<?xml version="1.0" encoding="UTF-8" standalone="no"?>
<!DOCTYPE svg PUBLIC "-//W3C//DTD SVG 1.1//EN"
 "http://www.w3.org/Graphics/SVG/1.1/DTD/svg11.dtd">
<!-- Generated by graphviz version 2.26.3 (20100126.1600)
 -->
<!-- Title: G Pages: 1 -->
<!--zoomable 200 -->
<svg id="main" version="1.1" xmlns="http://www.w3.org/2000/svg" xmlns:xlink="http://www.w3.org/1999/xlink" xml:space="preserve" onload="init(evt)">
        <defs>
                <circle id="rim" cx="0" cy="0" r="7"/>
                <circle id="rim2" cx="0" cy="0" r="3.5"/>
                <g id="zoomPlus">
                        <use xlink:href="#rim" fill="#404040">
                                <set attributeName="fill" to="#808080" begin="zoomplus.mouseover" end="zoomplus.mouseout"/>
                        </use>
                        <path d="M-4,0h8M0,-4v8" fill="none" stroke="white" stroke-width="1.5" pointer-events="none"/>
                </g>
                <g id="zoomMin">
                        <use xlink:href="#rim" fill="#404040">
                                <set attributeName="fill" to="#808080" begin="zoomminus.mouseover" end="zoomminus.mouseout"/>
                        </use>
                        <path d="M-4,0h8" fill="none" stroke="white" stroke-width="1.5" pointer-events="none"/>
                </g>
                <g id="dirArrow">
                        <path fill="none" stroke="white" stroke-width="1.5" d="M0,-3.0v7 M-2.5,-0.5L0,-3.0L2.5,-0.5"/>
                </g>
               <g id="resetDef">
                       <use xlink:href="#rim2" fill="#404040">
                               <set attributeName="fill" to="#808080" begin="reset.mouseover" end="reset.mouseout"/>
                       </use>
               </g>
        </defs>

<script type="text/javascript">
var viewWidth = 1404;
var viewHeight = 200;
var sectionId = 'dynsection-1';
</script>
<script xlink:href="../../svgpan.js"/>
<svg id="graph" class="graph">
<g id="viewport">
<title>G</title>
<polygon fill="white" stroke="white" points="-4,5 -4,-196 1401,-196 1401,5 -4,5"/>
<!-- Node1 -->
<g id="node1" class="node"><title>Node1</title>
<polygon fill="#bfbfbf" stroke="black" points="1206.5,-20.5 1206.5,-41.5 1395.5,-41.5 1395.5,-20.5 1206.5,-20.5"/>
<text text-anchor="middle" x="1301" y="-28.5" font-family="Helvetica,sans-Serif" font-size="10.00">mozilla::dom::GamepadAxisMoveEvent</text>
</g>
<!-- Node2 -->
<g id="node2" class="node"><title>Node2</title>
<a xlink:href="../../da/db3/classmozilla_1_1dom_1_1_gamepad_event.html" target="_top" xlink:title="mozilla::dom::GamepadEvent">
<polygon fill="white" stroke="black" points="1022,-43.5 1022,-64.5 1168,-64.5 1168,-43.5 1022,-43.5"/>
<text text-anchor="middle" x="1095" y="-51.5" font-family="Helvetica,sans-Serif" font-size="10.00">mozilla::dom::GamepadEvent</text>
</a>
</g>
<!-- Node2&#45;&gt;Node1 -->
<g id="edge2" class="edge"><title>Node2&#45;&gt;Node1</title>
<path fill="none" stroke="midnightblue" d="M1178.28,-44.7017C1187.66,-43.6545 1197.26,-42.5821 1206.77,-41.5208"/>
<polygon fill="midnightblue" stroke="midnightblue" points="1177.76,-41.2382 1168.21,-45.8263 1178.53,-48.195 1177.76,-41.2382"/>
</g>
<!-- Node3 -->
<g id="node4" class="node"><title>Node3</title>
<a xlink:href="../../dc/d9a/classns_d_o_m_event.html" target="_top" xlink:title="nsDOMEvent">
<polygon fill="white" stroke="black" points="864,-93.5 864,-114.5 940,-114.5 940,-93.5 864,-93.5"/>
<text text-anchor="middle" x="902" y="-101.5" font-family="Helvetica,sans-Serif" font-size="10.00">nsDOMEvent</text>
</a>
</g>
<!-- Node3&#45;&gt;Node2 -->
<g id="edge4" class="edge"><title>Node3&#45;&gt;Node2</title>
<path fill="none" stroke="midnightblue" d="M950.176,-91.5192C982.234,-83.214 1023.88,-72.4241 1054.28,-64.5483"/>
<polygon fill="midnightblue" stroke="midnightblue" points="948.933,-88.2255 940.131,-94.1216 950.689,-95.0018 948.933,-88.2255"/>
</g>
<!-- Node4 -->
<g id="node6" class="node"><title>Node4</title>
<a xlink:href="../../df/d03/classns_d_o_m_event_base.html" target="_top" xlink:title="nsDOMEventBase">
<polygon fill="white" stroke="black" points="597,-90.5 597,-111.5 695,-111.5 695,-90.5 597,-90.5"/>
<text text-anchor="middle" x="646" y="-98.5" font-family="Helvetica,sans-Serif" font-size="10.00">nsDOMEventBase</text>
</a>
</g>
<!-- Node4&#45;&gt;Node3 -->
<g id="edge6" class="edge"><title>Node4&#45;&gt;Node3</title>
<path fill="none" stroke="midnightblue" d="M705.183,-101.694C754.072,-102.266 822.02,-103.063 863.944,-103.554"/>
<polygon fill="midnightblue" stroke="midnightblue" points="705.097,-98.1924 695.056,-101.575 705.015,-105.192 705.097,-98.1924"/>
</g>
<!-- Node5 -->
<g id="node8" class="node"><title>Node5</title>
<a xlink:href="../../d4/d5c/interfacens_i_d_o_m_event.html" target="_top" xlink:title="nsIDOMEvent">
<polygon fill="white" stroke="black" points="384.5,-48.5 384.5,-69.5 463.5,-69.5 463.5,-48.5 384.5,-48.5"/>
<text text-anchor="middle" x="424" y="-56.5" font-family="Helvetica,sans-Serif" font-size="10.00">nsIDOMEvent</text>
</a>
</g>
<!-- Node5&#45;&gt;Node4 -->
<g id="edge8" class="edge"><title>Node5&#45;&gt;Node4</title>
<path fill="none" stroke="midnightblue" d="M473.694,-68.4015C510.472,-75.3596 560.334,-84.7929 596.957,-91.7216"/>
<polygon fill="midnightblue" stroke="midnightblue" points="474.166,-64.9288 463.689,-66.5088 472.864,-71.8068 474.166,-64.9288"/>
</g>
<!-- Node12 -->
<g id="node25" class="node"><title>Node12</title>
<a xlink:href="../../d1/de4/interfacens_i_d_o_m_gamepad_event.html" target="_top" xlink:title="nsIDOMGamepadEvent">
<polygon fill="white" stroke="black" points="585.5,-7.5 585.5,-28.5 706.5,-28.5 706.5,-7.5 585.5,-7.5"/>
<text text-anchor="middle" x="646" y="-15.5" font-family="Helvetica,sans-Serif" font-size="10.00">nsIDOMGamepadEvent</text>
</a>
</g>
<!-- Node5&#45;&gt;Node12 -->
<g id="edge30" class="edge"><title>Node5&#45;&gt;Node12</title>
<path fill="none" stroke="midnightblue" d="M464.843,-46.0871C498.589,-38.2995 546.996,-29.1186 585.282,-23.1212"/>
<polygon fill="midnightblue" stroke="midnightblue" points="463.79,-42.7397 454.868,-48.4542 465.406,-49.5506 463.79,-42.7397"/>
</g>
<!-- Node5&#45;&gt;Node12 -->
<g id="edge32" class="edge"><title>Node5&#45;&gt;Node12</title>
<path fill="none" stroke="midnightblue" d="M473.747,-55.5502C517.117,-49.1425 578.649,-37.479 615.227,-28.5226"/>
<polygon fill="midnightblue" stroke="midnightblue" points="473.094,-52.1079 463.689,-56.9859 474.083,-59.0377 473.094,-52.1079"/>
</g>
<!-- Node6 -->
<g id="node10" class="node"><title>Node6</title>
<a xlink:href="../../d4/d6a/classns_i_supports.html" target="_top" xlink:title="nsISupports">
<polygon fill="white" stroke="black" points="0.5,-48.5 0.5,-69.5 69.5,-69.5 69.5,-48.5 0.5,-48.5"/>
<text text-anchor="middle" x="35" y="-56.5" font-family="Helvetica,sans-Serif" font-size="10.00">nsISupports</text>
</a>
</g>
<!-- Node6&#45;&gt;Node5 -->
<g id="edge10" class="edge"><title>Node6&#45;&gt;Node5</title>
<path fill="none" stroke="midnightblue" d="M79.7977,-54.499C156.433,-51.4293 311.467,-51.502 384.391,-54.717"/>
<polygon fill="midnightblue" stroke="midnightblue" points="79.3569,-51.015 69.5212,-54.953 79.6659,-58.0082 79.3569,-51.015"/>
</g>
<!-- Node6&#45;&gt;Node5 -->
<g id="edge12" class="edge"><title>Node6&#45;&gt;Node5</title>
<path fill="none" stroke="midnightblue" d="M79.7977,-63.501C156.433,-66.5707 311.467,-66.498 384.391,-63.283"/>
<polygon fill="midnightblue" stroke="midnightblue" points="79.6659,-59.9918 69.5212,-63.047 79.3569,-66.985 79.6659,-59.9918"/>
</g>
<!-- Node7 -->
<g id="node13" class="node"><title>Node7</title>
<a xlink:href="../../d9/ddf/interfacens_i_d_o_m_event_target.html" target="_top" xlink:title="nsIDOMEventTarget">
<polygon fill="white" stroke="black" points="108.5,-96.5 108.5,-117.5 215.5,-117.5 215.5,-96.5 108.5,-96.5"/>
<text text-anchor="middle" x="162" y="-104.5" font-family="Helvetica,sans-Serif" font-size="10.00">nsIDOMEventTarget</text>
</a>
</g>
<!-- Node6&#45;&gt;Node7 -->
<g id="edge16" class="edge"><title>Node6&#45;&gt;Node7</title>
<path fill="none" stroke="midnightblue" d="M79.1727,-68.5671C82.1529,-69.7362 85.1158,-70.8957 88,-72 109.491,-80.2287 134.857,-88.9239 149.616,-96.4729"/>
<polygon fill="midnightblue" stroke="midnightblue" points="80.2586,-65.2338 69.6705,-64.8558 77.7119,-71.7541 80.2586,-65.2338"/>
</g>
<!-- Node6&#45;&gt;Node7 -->
<g id="edge18" class="edge"><title>Node6&#45;&gt;Node7</title>
<path fill="none" stroke="midnightblue" d="M53.1013,-74.7384C63.2967,-80.1293 76.2959,-85.5187 88,-90 94.4856,-92.4832 101.324,-95.0089 108.117,-97.3905"/>
<polygon fill="midnightblue" stroke="midnightblue" points="54.7178,-71.6291 44.3192,-69.599 51.1821,-77.6706 54.7178,-71.6291"/>
</g>
<!-- Node13 -->
<g id="node29" class="node"><title>Node13</title>
<a xlink:href="../../df/d18/interfacens_i_d_o_m_gamepad.html" target="_top" xlink:title="nsIDOMGamepad">
<polygon fill="white" stroke="black" points="114.5,-0.5 114.5,-21.5 209.5,-21.5 209.5,-0.5 114.5,-0.5"/>
<text text-anchor="middle" x="162" y="-8.5" font-family="Helvetica,sans-Serif" font-size="10.00">nsIDOMGamepad</text>
</a>
</g>
<!-- Node6&#45;&gt;Node13 -->
<g id="edge36" class="edge"><title>Node6&#45;&gt;Node13</title>
<path fill="none" stroke="midnightblue" d="M53.1013,-43.2616C63.2967,-37.8707 76.2959,-32.4813 88,-28 96.5203,-24.7377 105.65,-21.4021 114.485,-18.4164"/>
<polygon fill="midnightblue" stroke="midnightblue" points="51.1821,-40.3294 44.3192,-48.401 54.7178,-46.3709 51.1821,-40.3294"/>
</g>
<!-- Node6&#45;&gt;Node13 -->
<g id="edge38" class="edge"><title>Node6&#45;&gt;Node13</title>
<path fill="none" stroke="midnightblue" d="M79.1727,-49.4329C82.1529,-48.2638 85.1158,-47.1043 88,-46 109.491,-37.7713 134.857,-29.0761 149.616,-21.5271"/>
<polygon fill="midnightblue" stroke="midnightblue" points="77.7119,-46.2459 69.6705,-53.1442 80.2586,-52.7662 77.7119,-46.2459"/>
</g>
<!-- Node7&#45;&gt;Node5 -->
<g id="edge14" class="edge"><title>Node7&#45;&gt;Node5</title>
<path fill="none" stroke="#9a32cd" stroke-dasharray="5,2" d="M225.794,-98.4741C256.229,-94.1008 293.099,-88.3581 326,-82 345.218,-78.2861 366.378,-73.4196 384.102,-69.1198"/>
<polygon fill="#9a32cd" stroke="#9a32cd" points="225.142,-95.0315 215.734,-99.9037 226.127,-101.962 225.142,-95.0315"/>
<text text-anchor="middle" x="280" y="-139" font-family="Helvetica,sans-Serif" font-size="10.00"> target</text>
<text text-anchor="middle" x="280" y="-126" font-family="Helvetica,sans-Serif" font-size="10.00">currentTarget</text>
<text text-anchor="middle" x="280" y="-113" font-family="Helvetica,sans-Serif" font-size="10.00">originalTarget</text>
<text text-anchor="middle" x="280" y="-100" font-family="Helvetica,sans-Serif" font-size="10.00">explicitOriginalTarget</text>
</g>
<!-- Node8 -->
<g id="node17" class="node"><title>Node8</title>
<a xlink:href="../../d0/d7e/classns_wrapper_cache.html" target="_top" xlink:title="nsWrapperCache">
<polygon fill="white" stroke="black" points="600,-50.5 600,-71.5 692,-71.5 692,-50.5 600,-50.5"/>
<text text-anchor="middle" x="646" y="-58.5" font-family="Helvetica,sans-Serif" font-size="10.00">nsWrapperCache</text>
</a>
</g>
<!-- Node8&#45;&gt;Node3 -->
<g id="edge20" class="edge"><title>Node8&#45;&gt;Node3</title>
<path fill="none" stroke="midnightblue" d="M702.192,-70.4386C751.218,-78.6733 821.02,-90.3978 863.816,-97.5863"/>
<polygon fill="midnightblue" stroke="midnightblue" points="702.505,-66.9421 692.063,-68.7372 701.345,-73.8454 702.505,-66.9421"/>
</g>
<!-- Node9 -->
<g id="node19" class="node"><title>Node9</title>
<a xlink:href="../../d0/d01/classns_ref_ptr.html" target="_top" xlink:title="nsRefPtr\&lt; nsPresContext \&gt;">
<polygon fill="white" stroke="black" points="576.5,-170.5 576.5,-191.5 715.5,-191.5 715.5,-170.5 576.5,-170.5"/>
<text text-anchor="middle" x="646" y="-178.5" font-family="Helvetica,sans-Serif" font-size="10.00">nsRefPtr&lt; nsPresContext &gt;</text>
</a>
</g>
<!-- Node9&#45;&gt;Node3 -->
<g id="edge22" class="edge"><title>Node9&#45;&gt;Node3</title>
<path fill="none" stroke="#9a32cd" stroke-dasharray="5,2" d="M708.783,-168.328C737.473,-161.973 771.735,-153.584 802,-144 828.739,-135.532 858.475,-123.255 878.517,-114.539"/>
<polygon fill="#9a32cd" stroke="#9a32cd" points="707.906,-164.937 698.883,-170.49 709.4,-171.776 707.906,-164.937"/>
<text text-anchor="middle" x="768" y="-166" font-family="Helvetica,sans-Serif" font-size="10.00"> mPresContext</text>
</g>
<!-- Node10 -->
<g id="node21" class="node"><title>Node10</title>
<a xlink:href="../../dc/db1/classns_event.html" target="_top" xlink:title="nsEvent">
<polygon fill="white" stroke="black" points="619.5,-130.5 619.5,-151.5 672.5,-151.5 672.5,-130.5 619.5,-130.5"/>
<text text-anchor="middle" x="646" y="-138.5" font-family="Helvetica,sans-Serif" font-size="10.00">nsEvent</text>
</a>
</g>
<!-- Node10&#45;&gt;Node3 -->
<g id="edge24" class="edge"><title>Node10&#45;&gt;Node3</title>
<path fill="none" stroke="#9a32cd" stroke-dasharray="5,2" d="M682.919,-135.664C731.126,-128.697 815.096,-116.56 863.886,-109.509"/>
<polygon fill="#9a32cd" stroke="#9a32cd" points="682.309,-132.216 672.913,-137.11 683.31,-139.144 682.309,-132.216"/>
<text text-anchor="middle" x="768" y="-131" font-family="Helvetica,sans-Serif" font-size="10.00"> mEvent</text>
</g>
<!-- Node11 -->
<g id="node23" class="node"><title>Node11</title>
<a xlink:href="../../d9/d49/structmozilla_1_1widget_1_1_base_event_flags.html" target="_top" xlink:title="mozilla::widget::BaseEventFlags">
<polygon fill="white" stroke="black" points="344,-130.5 344,-151.5 504,-151.5 504,-130.5 344,-130.5"/>
<text text-anchor="middle" x="424" y="-138.5" font-family="Helvetica,sans-Serif" font-size="10.00">mozilla::widget::BaseEventFlags</text>
</a>
</g>
<!-- Node11&#45;&gt;Node10 -->
<g id="edge26" class="edge"><title>Node11&#45;&gt;Node10</title>
<path fill="none" stroke="#9a32cd" stroke-dasharray="5,2" d="M514.218,-141C552.133,-141 593.403,-141 619.47,-141"/>
<polygon fill="#9a32cd" stroke="#9a32cd" points="514.147,-137.5 504.147,-141 514.147,-144.5 514.147,-137.5"/>
<text text-anchor="middle" x="540" y="-145" font-family="Helvetica,sans-Serif" font-size="10.00"> mFlags</text>
</g>
<!-- Node12&#45;&gt;Node2 -->
<g id="edge28" class="edge"><title>Node12&#45;&gt;Node2</title>
<path fill="none" stroke="midnightblue" d="M690.898,-31.1195C704.616,-34.6133 719.824,-37.9753 734,-40 832.879,-54.1229 948.436,-56.0925 1021.66,-55.5641"/>
<polygon fill="midnightblue" stroke="midnightblue" points="691.77,-27.7298 681.209,-28.5694 689.988,-34.4993 691.77,-27.7298"/>
</g>
<!-- Node14 -->
<g id="node33" class="node"><title>Node14</title>
<a xlink:href="../../d0/df2/interfacens_i_d_o_m_gamepad_axis_move_event.html" target="_top" xlink:title="nsIDOMGamepadAxisMoveEvent">
<polygon fill="white" stroke="black" points="820,-4.5 820,-25.5 984,-25.5 984,-4.5 820,-4.5"/>
<text text-anchor="middle" x="902" y="-12.5" font-family="Helvetica,sans-Serif" font-size="10.00">nsIDOMGamepadAxisMoveEvent</text>
</a>
</g>
<!-- Node12&#45;&gt;Node14 -->
<g id="edge42" class="edge"><title>Node12&#45;&gt;Node14</title>
<path fill="none" stroke="midnightblue" d="M716.826,-11.0581C748.801,-9.91998 786.768,-9.39664 819.974,-9.61413"/>
<polygon fill="midnightblue" stroke="midnightblue" points="716.526,-7.56699 706.668,-11.4491 716.796,-14.5618 716.526,-7.56699"/>
</g>
<!-- Node12&#45;&gt;Node14 -->
<g id="edge44" class="edge"><title>Node12&#45;&gt;Node14</title>
<path fill="none" stroke="midnightblue" d="M716.826,-23.2819C748.801,-23.6706 786.768,-23.3041 819.974,-22.3084"/>
<polygon fill="midnightblue" stroke="midnightblue" points="716.72,-19.78 706.668,-23.129 716.615,-26.7792 716.72,-19.78"/>
</g>
<!-- Node13&#45;&gt;Node12 -->
<g id="edge34" class="edge"><title>Node13&#45;&gt;Node12</title>
<path fill="none" stroke="#9a32cd" stroke-dasharray="5,2" d="M220.004,-11.8389C312.284,-13.1735 491.658,-15.7678 585.489,-17.1248"/>
<polygon fill="#9a32cd" stroke="#9a32cd" points="219.782,-8.33542 209.732,-11.6903 219.681,-15.3347 219.782,-8.33542"/>
<text text-anchor="middle" x="424" y="-20" font-family="Helvetica,sans-Serif" font-size="10.00"> gamepad</text>
</g>
<!-- Node14&#45;&gt;Node1 -->
<g id="edge40" class="edge"><title>Node14&#45;&gt;Node1</title>
<path fill="none" stroke="midnightblue" d="M994.215,-18.6978C1057.83,-21.2489 1142.16,-24.6306 1206.31,-27.2028"/>
<polygon fill="midnightblue" stroke="midnightblue" points="994.322,-15.1994 984.189,-18.2958 994.041,-22.1938 994.322,-15.1994"/>
</g>
</g>
</svg>
        <g id="navigator" transform="translate(0 0)" fill="#404254">
                <rect fill="#f2f5e9" fill-opacity="0.5" stroke="#606060" stroke-width=".5" x="0" y="0" width="60" height="60"/>
                <use id="zoomplus" xlink:href="#zoomPlus" x="17" y="9" onmousedown="handleZoom(evt,'in')"/>
                <use id="zoomminus" xlink:href="#zoomMin" x="42" y="9" onmousedown="handleZoom(evt,'out')"/>
                <use id="reset" xlink:href="#resetDef" x="30" y="36" onmousedown="handleReset()"/>
                <g id="arrowUp" xlink:href="#dirArrow" transform="translate(30 24)" onmousedown="handlePan(0,-1)">
                  <use xlink:href="#rim" fill="#404040">
                        <set attributeName="fill" to="#808080" begin="arrowUp.mouseover" end="arrowUp.mouseout"/>
                  </use>
                  <path fill="none" stroke="white" stroke-width="1.5" d="M0,-3.0v7 M-2.5,-0.5L0,-3.0L2.5,-0.5"/>
                </g>
                <g id="arrowRight" xlink:href="#dirArrow" transform="rotate(90) translate(36 -43)" onmousedown="handlePan(1,0)">
                  <use xlink:href="#rim" fill="#404040">
                        <set attributeName="fill" to="#808080" begin="arrowRight.mouseover" end="arrowRight.mouseout"/>
                  </use>
                  <path fill="none" stroke="white" stroke-width="1.5" d="M0,-3.0v7 M-2.5,-0.5L0,-3.0L2.5,-0.5"/>
                </g>
                <g id="arrowDown" xlink:href="#dirArrow" transform="rotate(180) translate(-30 -48)" onmousedown="handlePan(0,1)">
                  <use xlink:href="#rim" fill="#404040">
                        <set attributeName="fill" to="#808080" begin="arrowDown.mouseover" end="arrowDown.mouseout"/>
                  </use>
                  <path fill="none" stroke="white" stroke-width="1.5" d="M0,-3.0v7 M-2.5,-0.5L0,-3.0L2.5,-0.5"/>
                </g>
                <g id="arrowLeft" xlink:href="#dirArrow" transform="rotate(270) translate(-36 17)" onmousedown="handlePan(-1,0)">
                  <use xlink:href="#rim" fill="#404040">
                        <set attributeName="fill" to="#808080" begin="arrowLeft.mouseover" end="arrowLeft.mouseout"/>
                  </use>
                  <path fill="none" stroke="white" stroke-width="1.5" d="M0,-3.0v7 M-2.5,-0.5L0,-3.0L2.5,-0.5"/>
                </g>
        </g>
</svg>
