<?xml version="1.0" encoding="UTF-8" standalone="no"?>
<!DOCTYPE svg PUBLIC "-//W3C//DTD SVG 1.1//EN"
 "http://www.w3.org/Graphics/SVG/1.1/DTD/svg11.dtd">
<!-- Generated by graphviz version 2.26.3 (20100126.1600)
 -->
<!-- Title: G Pages: 1 -->
<!--zoomable 228 -->
<svg id="main" version="1.1" xmlns="http://www.w3.org/2000/svg" xmlns:xlink="http://www.w3.org/1999/xlink" xml:space="preserve" onload="init(evt)">
        <defs>
                <circle id="rim" cx="0" cy="0" r="7"/>
                <circle id="rim2" cx="0" cy="0" r="3.5"/>
                <g id="zoomPlus">
                        <use xlink:href="#rim" fill="#404040">
                                <set attributeName="fill" to="#808080" begin="zoomplus.mouseover" end="zoomplus.mouseout"/>
                        </use>
                        <path d="M-4,0h8M0,-4v8" fill="none" stroke="white" stroke-width="1.5" pointer-events="none"/>
                </g>
                <g id="zoomMin">
                        <use xlink:href="#rim" fill="#404040">
                                <set attributeName="fill" to="#808080" begin="zoomminus.mouseover" end="zoomminus.mouseout"/>
                        </use>
                        <path d="M-4,0h8" fill="none" stroke="white" stroke-width="1.5" pointer-events="none"/>
                </g>
                <g id="dirArrow">
                        <path fill="none" stroke="white" stroke-width="1.5" d="M0,-3.0v7 M-2.5,-0.5L0,-3.0L2.5,-0.5"/>
                </g>
               <g id="resetDef">
                       <use xlink:href="#rim2" fill="#404040">
                               <set attributeName="fill" to="#808080" begin="reset.mouseover" end="reset.mouseout"/>
                       </use>
               </g>
        </defs>

<script type="text/javascript">
var viewWidth = 722;
var viewHeight = 228;
var sectionId = 'dynsection-0';
</script>
<script xlink:href="../../svgpan.js"/>
<svg id="graph" class="graph">
<g id="viewport">
<title>G</title>
<polygon fill="white" stroke="white" points="-4,5 -4,-224 719,-224 719,5 -4,5"/>
<!-- Node1 -->
<g id="node1" class="node"><title>Node1</title>
<polygon fill="#bfbfbf" stroke="black" points="590,-39.5 590,-60.5 714,-60.5 714,-39.5 590,-39.5"/>
<text text-anchor="middle" x="652" y="-47.5" font-family="Helvetica,sans-Serif" font-size="10.00">nsPartialFileInputStream</text>
</g>
<!-- Node2 -->
<g id="node2" class="node"><title>Node2</title>
<a xlink:href="../../d8/d71/classns_file_input_stream.html" target="_top" xlink:title="nsFileInputStream">
<polygon fill="white" stroke="black" points="458,-78.5 458,-99.5 554,-99.5 554,-78.5 458,-78.5"/>
<text text-anchor="middle" x="506" y="-86.5" font-family="Helvetica,sans-Serif" font-size="10.00">nsFileInputStream</text>
</a>
</g>
<!-- Node2&#45;&gt;Node1 -->
<g id="edge2" class="edge"><title>Node2&#45;&gt;Node1</title>
<path fill="none" stroke="midnightblue" d="M555.293,-75.8326C573.915,-70.8584 594.845,-65.2675 612.459,-60.5624"/>
<polygon fill="midnightblue" stroke="midnightblue" points="554.268,-72.4838 545.51,-78.446 556.074,-79.2467 554.268,-72.4838"/>
</g>
<!-- Node3 -->
<g id="node4" class="node"><title>Node3</title>
<a xlink:href="../../d1/d19/classns_file_stream_base.html" target="_top" xlink:title="nsFileStreamBase">
<polygon fill="white" stroke="black" points="297.5,-158.5 297.5,-179.5 394.5,-179.5 394.5,-158.5 297.5,-158.5"/>
<text text-anchor="middle" x="346" y="-166.5" font-family="Helvetica,sans-Serif" font-size="10.00">nsFileStreamBase</text>
</a>
</g>
<!-- Node3&#45;&gt;Node2 -->
<g id="edge4" class="edge"><title>Node3&#45;&gt;Node2</title>
<path fill="none" stroke="midnightblue" d="M404.34,-155.991C410.415,-153.947 416.407,-151.625 422,-149 450.067,-135.828 478.561,-113.058 494.087,-99.6777"/>
<polygon fill="midnightblue" stroke="midnightblue" points="403.273,-152.657 394.771,-158.978 405.359,-159.339 403.273,-152.657"/>
</g>
<!-- Node4 -->
<g id="node6" class="node"><title>Node4</title>
<a xlink:href="../../d9/d65/interfacens_i_seekable_stream.html" target="_top" xlink:title="nsISeekableStream">
<polygon fill="white" stroke="black" points="119,-198.5 119,-219.5 221,-219.5 221,-198.5 119,-198.5"/>
<text text-anchor="middle" x="170" y="-206.5" font-family="Helvetica,sans-Serif" font-size="10.00">nsISeekableStream</text>
</a>
</g>
<!-- Node4&#45;&gt;Node3 -->
<g id="edge6" class="edge"><title>Node4&#45;&gt;Node3</title>
<path fill="none" stroke="midnightblue" d="M226.172,-196.234C249.909,-190.839 277.216,-184.633 299.762,-179.509"/>
<polygon fill="midnightblue" stroke="midnightblue" points="225.218,-192.861 216.242,-198.49 226.769,-199.687 225.218,-192.861"/>
</g>
<!-- Node5 -->
<g id="node8" class="node"><title>Node5</title>
<a xlink:href="../../d4/d6a/classns_i_supports.html" target="_top" xlink:title="nsISupports">
<polygon fill="white" stroke="black" points="0.5,-118.5 0.5,-139.5 69.5,-139.5 69.5,-118.5 0.5,-118.5"/>
<text text-anchor="middle" x="35" y="-126.5" font-family="Helvetica,sans-Serif" font-size="10.00">nsISupports</text>
</a>
</g>
<!-- Node5&#45;&gt;Node4 -->
<g id="edge8" class="edge"><title>Node5&#45;&gt;Node4</title>
<path fill="none" stroke="midnightblue" d="M60.06,-146.363C72.885,-157.34 89.2909,-170.823 106,-180 121.101,-188.294 140.132,-193.683 153.502,-198.492"/>
<polygon fill="midnightblue" stroke="midnightblue" points="62.0444,-143.453 52.1821,-139.582 57.4777,-148.758 62.0444,-143.453"/>
</g>
<!-- Node5&#45;&gt;Node4 -->
<g id="edge10" class="edge"><title>Node5&#45;&gt;Node4</title>
<path fill="none" stroke="midnightblue" d="M46.5987,-147.977C59.8087,-163.865 82.6073,-185.152 106,-198 110.081,-200.242 114.45,-202.271 118.916,-204.065"/>
<polygon fill="midnightblue" stroke="midnightblue" points="49.175,-145.586 40.3034,-139.794 43.6268,-149.854 49.175,-145.586"/>
</g>
<!-- Node6 -->
<g id="node11" class="node"><title>Node6</title>
<a xlink:href="../../d0/d31/interfacens_i_file_metadata.html" target="_top" xlink:title="nsIFileMetadata">
<polygon fill="white" stroke="black" points="127,-158.5 127,-179.5 213,-179.5 213,-158.5 127,-158.5"/>
<text text-anchor="middle" x="170" y="-166.5" font-family="Helvetica,sans-Serif" font-size="10.00">nsIFileMetadata</text>
</a>
</g>
<!-- Node5&#45;&gt;Node6 -->
<g id="edge14" class="edge"><title>Node5&#45;&gt;Node6</title>
<path fill="none" stroke="midnightblue" d="M79.4631,-135.787C103.634,-142.159 132.283,-151.147 150.781,-158.417"/>
<polygon fill="midnightblue" stroke="midnightblue" points="80.3207,-132.393 69.7659,-133.313 78.5904,-139.176 80.3207,-132.393"/>
</g>
<!-- Node5&#45;&gt;Node6 -->
<g id="edge16" class="edge"><title>Node5&#45;&gt;Node6</title>
<path fill="none" stroke="midnightblue" d="M63.5986,-143.108C81.9624,-149.742 106.158,-157.147 126.836,-162.555"/>
<polygon fill="midnightblue" stroke="midnightblue" points="64.6479,-139.763 54.0559,-139.519 62.184,-146.315 64.6479,-139.763"/>
</g>
<!-- Node8 -->
<g id="node17" class="node"><title>Node8</title>
<a xlink:href="../../da/d78/interfacens_i_input_stream.html" target="_top" xlink:title="nsIInputStream">
<polygon fill="white" stroke="black" points="128.5,-118.5 128.5,-139.5 211.5,-139.5 211.5,-118.5 128.5,-118.5"/>
<text text-anchor="middle" x="170" y="-126.5" font-family="Helvetica,sans-Serif" font-size="10.00">nsIInputStream</text>
</a>
</g>
<!-- Node5&#45;&gt;Node8 -->
<g id="edge22" class="edge"><title>Node5&#45;&gt;Node8</title>
<path fill="none" stroke="midnightblue" d="M80.1616,-122.59C95.6538,-122.102 112.915,-122.139 128.135,-122.703"/>
<polygon fill="midnightblue" stroke="midnightblue" points="79.6157,-119.109 69.7659,-123.012 79.8996,-126.103 79.6157,-119.109"/>
</g>
<!-- Node5&#45;&gt;Node8 -->
<g id="edge24" class="edge"><title>Node5&#45;&gt;Node8</title>
<path fill="none" stroke="midnightblue" d="M80.1616,-135.41C95.6538,-135.898 112.915,-135.861 128.135,-135.297"/>
<polygon fill="midnightblue" stroke="midnightblue" points="79.8996,-131.897 69.7659,-134.988 79.6157,-138.891 79.8996,-131.897"/>
</g>
<!-- Node9 -->
<g id="node22" class="node"><title>Node9</title>
<a xlink:href="../../d6/d8e/interfacens_i_line_input_stream.html" target="_top" xlink:title="nsILineInputStream">
<polygon fill="white" stroke="black" points="119.5,-78.5 119.5,-99.5 220.5,-99.5 220.5,-78.5 119.5,-78.5"/>
<text text-anchor="middle" x="170" y="-86.5" font-family="Helvetica,sans-Serif" font-size="10.00">nsILineInputStream</text>
</a>
</g>
<!-- Node5&#45;&gt;Node9 -->
<g id="edge30" class="edge"><title>Node5&#45;&gt;Node9</title>
<path fill="none" stroke="midnightblue" d="M63.4923,-114.931C79.6868,-109.076 100.442,-102.615 119.322,-97.4555"/>
<polygon fill="midnightblue" stroke="midnightblue" points="62.183,-111.684 54.0559,-118.481 64.6479,-118.236 62.183,-111.684"/>
</g>
<!-- Node5&#45;&gt;Node9 -->
<g id="edge32" class="edge"><title>Node5&#45;&gt;Node9</title>
<path fill="none" stroke="midnightblue" d="M79.4631,-122.213C103.634,-115.841 132.283,-106.853 150.781,-99.5832"/>
<polygon fill="midnightblue" stroke="midnightblue" points="78.5904,-118.824 69.7659,-124.687 80.3207,-125.607 78.5904,-118.824"/>
</g>
<!-- Node10 -->
<g id="node26" class="node"><title>Node10</title>
<a xlink:href="../../df/d92/classns_i_i_p_c_serializable_input_stream.html" target="_top" xlink:title="nsIIPCSerializableInputStream">
<polygon fill="white" stroke="black" points="270.5,-39.5 270.5,-60.5 421.5,-60.5 421.5,-39.5 270.5,-39.5"/>
<text text-anchor="middle" x="346" y="-47.5" font-family="Helvetica,sans-Serif" font-size="10.00">nsIIPCSerializableInputStream</text>
</a>
</g>
<!-- Node5&#45;&gt;Node10 -->
<g id="edge36" class="edge"><title>Node5&#45;&gt;Node10</title>
<path fill="none" stroke="midnightblue" d="M50.6881,-110.576C63.8725,-96.5014 84.0422,-78.0339 106,-69 157.989,-47.6106 221.597,-43.4521 270.265,-44.3229"/>
<polygon fill="midnightblue" stroke="midnightblue" points="47.8665,-108.478 43.7718,-118.25 53.0664,-113.165 47.8665,-108.478"/>
</g>
<!-- Node11 -->
<g id="node29" class="node"><title>Node11</title>
<a xlink:href="../../d3/dcc/interfacens_i_partial_file_input_stream.html" target="_top" xlink:title="nsIPartialFileInputStream">
<polygon fill="white" stroke="black" points="106.5,-0.5 106.5,-21.5 233.5,-21.5 233.5,-0.5 106.5,-0.5"/>
<text text-anchor="middle" x="170" y="-8.5" font-family="Helvetica,sans-Serif" font-size="10.00">nsIPartialFileInputStream</text>
</a>
</g>
<!-- Node5&#45;&gt;Node11 -->
<g id="edge40" class="edge"><title>Node5&#45;&gt;Node11</title>
<path fill="none" stroke="midnightblue" d="M42.4393,-109.008C53.7012,-85.8115 76.8845,-48.9311 106,-27 108.573,-25.0622 111.314,-23.2551 114.161,-21.5832"/>
<polygon fill="midnightblue" stroke="midnightblue" points="39.163,-107.759 38.2422,-118.313 45.5441,-110.637 39.163,-107.759"/>
</g>
<!-- Node5&#45;&gt;Node11 -->
<g id="edge42" class="edge"><title>Node5&#45;&gt;Node11</title>
<path fill="none" stroke="midnightblue" d="M49.6939,-109.826C62.2913,-90.9457 82.1564,-62.96 106,-45 120.673,-33.9474 140.853,-27.1455 154.604,-21.5207"/>
<polygon fill="midnightblue" stroke="midnightblue" points="46.7009,-108.007 44.108,-118.28 52.5411,-111.866 46.7009,-108.007"/>
</g>
<!-- Node6&#45;&gt;Node3 -->
<g id="edge12" class="edge"><title>Node6&#45;&gt;Node3</title>
<path fill="none" stroke="midnightblue" d="M223.249,-169C246.864,-169 274.457,-169 297.493,-169"/>
<polygon fill="midnightblue" stroke="midnightblue" points="223.054,-165.5 213.054,-169 223.054,-172.5 223.054,-165.5"/>
</g>
<!-- Node7 -->
<g id="node15" class="node"><title>Node7</title>
<a xlink:href="../../d0/d78/interfacens_i_file_input_stream.html" target="_top" xlink:title="nsIFileInputStream">
<polygon fill="white" stroke="black" points="296.5,-118.5 296.5,-139.5 395.5,-139.5 395.5,-118.5 296.5,-118.5"/>
<text text-anchor="middle" x="346" y="-126.5" font-family="Helvetica,sans-Serif" font-size="10.00">nsIFileInputStream</text>
</a>
</g>
<!-- Node7&#45;&gt;Node2 -->
<g id="edge18" class="edge"><title>Node7&#45;&gt;Node2</title>
<path fill="none" stroke="midnightblue" d="M397.934,-116.016C419.308,-110.673 443.743,-104.564 463.965,-99.5087"/>
<polygon fill="midnightblue" stroke="midnightblue" points="396.891,-112.67 388.038,-118.49 398.588,-119.461 396.891,-112.67"/>
</g>
<!-- Node8&#45;&gt;Node7 -->
<g id="edge26" class="edge"><title>Node8&#45;&gt;Node7</title>
<path fill="none" stroke="midnightblue" d="M221.868,-122.783C245.433,-122.048 273.18,-122.073 296.458,-122.859"/>
<polygon fill="midnightblue" stroke="midnightblue" points="221.573,-119.292 211.71,-123.16 221.832,-126.287 221.573,-119.292"/>
</g>
<!-- Node8&#45;&gt;Node7 -->
<g id="edge20" class="edge"><title>Node8&#45;&gt;Node7</title>
<path fill="none" stroke="midnightblue" d="M221.868,-135.217C245.433,-135.952 273.18,-135.927 296.458,-135.141"/>
<polygon fill="midnightblue" stroke="midnightblue" points="221.832,-131.713 211.71,-134.84 221.573,-138.708 221.832,-131.713"/>
</g>
<!-- Node9&#45;&gt;Node2 -->
<g id="edge28" class="edge"><title>Node9&#45;&gt;Node2</title>
<path fill="none" stroke="midnightblue" d="M230.797,-89C295.974,-89 398.12,-89 457.921,-89"/>
<polygon fill="midnightblue" stroke="midnightblue" points="230.666,-85.5001 220.666,-89 230.666,-92.5001 230.666,-85.5001"/>
</g>
<!-- Node10&#45;&gt;Node2 -->
<g id="edge34" class="edge"><title>Node10&#45;&gt;Node2</title>
<path fill="none" stroke="midnightblue" d="M399.175,-62.9615C419.792,-67.9869 443.097,-73.6675 462.667,-78.4376"/>
<polygon fill="midnightblue" stroke="midnightblue" points="399.843,-59.5218 389.298,-60.554 398.185,-66.3226 399.843,-59.5218"/>
</g>
<!-- Node11&#45;&gt;Node1 -->
<g id="edge38" class="edge"><title>Node11&#45;&gt;Node1</title>
<path fill="none" stroke="midnightblue" d="M243.833,-16.3425C294.074,-20.033 362.064,-25.1348 422,-30 478.729,-34.6049 543.29,-40.2548 589.54,-44.3736"/>
<polygon fill="midnightblue" stroke="midnightblue" points="243.94,-12.841 233.71,-15.6004 243.428,-19.8223 243.94,-12.841"/>
</g>
</g>
</svg>
        <g id="navigator" transform="translate(0 0)" fill="#404254">
                <rect fill="#f2f5e9" fill-opacity="0.5" stroke="#606060" stroke-width=".5" x="0" y="0" width="60" height="60"/>
                <use id="zoomplus" xlink:href="#zoomPlus" x="17" y="9" onmousedown="handleZoom(evt,'in')"/>
                <use id="zoomminus" xlink:href="#zoomMin" x="42" y="9" onmousedown="handleZoom(evt,'out')"/>
                <use id="reset" xlink:href="#resetDef" x="30" y="36" onmousedown="handleReset()"/>
                <g id="arrowUp" xlink:href="#dirArrow" transform="translate(30 24)" onmousedown="handlePan(0,-1)">
                  <use xlink:href="#rim" fill="#404040">
                        <set attributeName="fill" to="#808080" begin="arrowUp.mouseover" end="arrowUp.mouseout"/>
                  </use>
                  <path fill="none" stroke="white" stroke-width="1.5" d="M0,-3.0v7 M-2.5,-0.5L0,-3.0L2.5,-0.5"/>
                </g>
                <g id="arrowRight" xlink:href="#dirArrow" transform="rotate(90) translate(36 -43)" onmousedown="handlePan(1,0)">
                  <use xlink:href="#rim" fill="#404040">
                        <set attributeName="fill" to="#808080" begin="arrowRight.mouseover" end="arrowRight.mouseout"/>
                  </use>
                  <path fill="none" stroke="white" stroke-width="1.5" d="M0,-3.0v7 M-2.5,-0.5L0,-3.0L2.5,-0.5"/>
                </g>
                <g id="arrowDown" xlink:href="#dirArrow" transform="rotate(180) translate(-30 -48)" onmousedown="handlePan(0,1)">
                  <use xlink:href="#rim" fill="#404040">
                        <set attributeName="fill" to="#808080" begin="arrowDown.mouseover" end="arrowDown.mouseout"/>
                  </use>
                  <path fill="none" stroke="white" stroke-width="1.5" d="M0,-3.0v7 M-2.5,-0.5L0,-3.0L2.5,-0.5"/>
                </g>
                <g id="arrowLeft" xlink:href="#dirArrow" transform="rotate(270) translate(-36 17)" onmousedown="handlePan(-1,0)">
                  <use xlink:href="#rim" fill="#404040">
                        <set attributeName="fill" to="#808080" begin="arrowLeft.mouseover" end="arrowLeft.mouseout"/>
                  </use>
                  <path fill="none" stroke="white" stroke-width="1.5" d="M0,-3.0v7 M-2.5,-0.5L0,-3.0L2.5,-0.5"/>
                </g>
        </g>
</svg>
