<?xml version="1.0" encoding="UTF-8" standalone="no"?>
<!DOCTYPE svg PUBLIC "-//W3C//DTD SVG 1.1//EN"
 "http://www.w3.org/Graphics/SVG/1.1/DTD/svg11.dtd">
<!-- Generated by graphviz version 2.26.3 (20100126.1600)
 -->
<!-- Title: G Pages: 1 -->
<!--zoomable 186 -->
<svg id="main" version="1.1" xmlns="http://www.w3.org/2000/svg" xmlns:xlink="http://www.w3.org/1999/xlink" xml:space="preserve" onload="init(evt)">
        <defs>
                <circle id="rim" cx="0" cy="0" r="7"/>
                <circle id="rim2" cx="0" cy="0" r="3.5"/>
                <g id="zoomPlus">
                        <use xlink:href="#rim" fill="#404040">
                                <set attributeName="fill" to="#808080" begin="zoomplus.mouseover" end="zoomplus.mouseout"/>
                        </use>
                        <path d="M-4,0h8M0,-4v8" fill="none" stroke="white" stroke-width="1.5" pointer-events="none"/>
                </g>
                <g id="zoomMin">
                        <use xlink:href="#rim" fill="#404040">
                                <set attributeName="fill" to="#808080" begin="zoomminus.mouseover" end="zoomminus.mouseout"/>
                        </use>
                        <path d="M-4,0h8" fill="none" stroke="white" stroke-width="1.5" pointer-events="none"/>
                </g>
                <g id="dirArrow">
                        <path fill="none" stroke="white" stroke-width="1.5" d="M0,-3.0v7 M-2.5,-0.5L0,-3.0L2.5,-0.5"/>
                </g>
               <g id="resetDef">
                       <use xlink:href="#rim2" fill="#404040">
                               <set attributeName="fill" to="#808080" begin="reset.mouseover" end="reset.mouseout"/>
                       </use>
               </g>
        </defs>

<script type="text/javascript">
var viewWidth = 916;
var viewHeight = 186;
var sectionId = 'dynsection-1';
</script>
<script xlink:href="../../svgpan.js"/>
<svg id="graph" class="graph">
<g id="viewport">
<title>G</title>
<polygon fill="white" stroke="white" points="-4,5 -4,-182 913,-182 913,5 -4,5"/>
<!-- Node1 -->
<g id="node1" class="node"><title>Node1</title>
<polygon fill="#bfbfbf" stroke="black" points="0.5,-117.5 0.5,-138.5 293.5,-138.5 293.5,-117.5 0.5,-117.5"/>
<text text-anchor="middle" x="147" y="-125.5" font-family="Helvetica,sans-Serif" font-size="10.00">mozilla::dom::AudioStreamTrackBinding::GetConstructorObject</text>
</g>
<!-- Node2 -->
<g id="node3" class="node"><title>Node2</title>
<a xlink:href="../../db/d82/namespacemozilla_1_1dom_1_1_audio_stream_track_binding.html#a15af00b5e3a14ecd39ca1fa50019859a" target="_top" xlink:title="mozilla::dom::AudioStreamTrackBinding::CreateInterfaceObjects">
<polygon fill="white" stroke="black" points="330.5,-156.5 330.5,-177.5 629.5,-177.5 629.5,-156.5 330.5,-156.5"/>
<text text-anchor="middle" x="480" y="-164.5" font-family="Helvetica,sans-Serif" font-size="10.00">mozilla::dom::AudioStreamTrackBinding::CreateInterfaceObjects</text>
</a>
</g>
<!-- Node1&#45;&gt;Node2 -->
<g id="edge2" class="edge"><title>Node1&#45;&gt;Node2</title>
<path fill="none" stroke="midnightblue" d="M236.676,-138.503C280.911,-143.683 334.413,-149.949 379.971,-155.285"/>
<polygon fill="midnightblue" stroke="midnightblue" points="379.825,-158.792 390.164,-156.479 380.639,-151.839 379.825,-158.792"/>
</g>
<!-- Node3 -->
<g id="node5" class="node"><title>Node3</title>
<a xlink:href="../../db/da2/namespacejs.html#aca7ef07fd5e632405949331c6929f1e6" target="_top" xlink:title="js::GetObjectClass">
<polygon fill="white" stroke="black" points="808,-79.5 808,-100.5 908,-100.5 908,-79.5 808,-79.5"/>
<text text-anchor="middle" x="858" y="-87.5" font-family="Helvetica,sans-Serif" font-size="10.00">js::GetObjectClass</text>
</a>
</g>
<!-- Node1&#45;&gt;Node3 -->
<g id="edge4" class="edge"><title>Node1&#45;&gt;Node3</title>
<path fill="none" stroke="midnightblue" d="M293.53,-121.264C420.218,-115.258 608.239,-105.904 772,-96 780.375,-95.4935 789.207,-94.921 797.893,-94.3359"/>
<polygon fill="midnightblue" stroke="midnightblue" points="798.249,-97.8198 807.987,-93.6463 797.772,-90.8361 798.249,-97.8198"/>
</g>
<!-- Node4 -->
<g id="node7" class="node"><title>Node4</title>
<a xlink:href="../../d7/d4b/namespacemozilla_1_1dom.html#ade3c1c38ff416c6d50f6c97f01f836e1" target="_top" xlink:title="mozilla::dom::GetProtoAndIfaceArray">
<polygon fill="white" stroke="black" points="390.5,-59.5 390.5,-80.5 569.5,-80.5 569.5,-59.5 390.5,-59.5"/>
<text text-anchor="middle" x="480" y="-67.5" font-family="Helvetica,sans-Serif" font-size="10.00">mozilla::dom::GetProtoAndIfaceArray</text>
</a>
</g>
<!-- Node1&#45;&gt;Node4 -->
<g id="edge6" class="edge"><title>Node1&#45;&gt;Node4</title>
<path fill="none" stroke="midnightblue" d="M207.304,-117.497C264.177,-107.591 349.422,-92.7433 409.432,-82.2911"/>
<polygon fill="midnightblue" stroke="midnightblue" points="410.332,-85.6871 419.583,-80.5231 409.131,-78.791 410.332,-85.6871"/>
</g>
<!-- Node4&#45;&gt;Node3 -->
<g id="edge8" class="edge"><title>Node4&#45;&gt;Node3</title>
<path fill="none" stroke="midnightblue" d="M569.581,-74.7397C639.956,-78.4633 736.042,-83.5472 797.567,-86.8025"/>
<polygon fill="midnightblue" stroke="midnightblue" points="797.716,-90.3152 807.887,-87.3485 798.086,-83.3249 797.716,-90.3152"/>
</g>
<!-- Node5 -->
<g id="node10" class="node"><title>Node5</title>
<a xlink:href="../../db/da2/namespacejs.html#ad81f7c892e54c34c67a930983b58c1b0" target="_top" xlink:title="js::GetReservedSlot">
<polygon fill="white" stroke="black" points="666.5,-40.5 666.5,-61.5 771.5,-61.5 771.5,-40.5 666.5,-40.5"/>
<text text-anchor="middle" x="719" y="-48.5" font-family="Helvetica,sans-Serif" font-size="10.00">js::GetReservedSlot</text>
</a>
</g>
<!-- Node4&#45;&gt;Node5 -->
<g id="edge10" class="edge"><title>Node4&#45;&gt;Node5</title>
<path fill="none" stroke="midnightblue" d="M569.675,-62.871C598.44,-60.5842 629.669,-58.1016 656.096,-56.0007"/>
<polygon fill="midnightblue" stroke="midnightblue" points="656.658,-59.4672 666.349,-55.1856 656.103,-52.4892 656.658,-59.4672"/>
</g>
<!-- Node6 -->
<g id="node13" class="node"><title>Node6</title>
<a xlink:href="../../d1/d94/class_j_s_1_1_value.html#acb6cff159be405ffc5f5f64fa39a04db" target="_top" xlink:title="JS::Value::toPrivate">
<polygon fill="white" stroke="black" points="667,-0.5 667,-21.5 771,-21.5 771,-0.5 667,-0.5"/>
<text text-anchor="middle" x="719" y="-8.5" font-family="Helvetica,sans-Serif" font-size="10.00">JS::Value::toPrivate</text>
</a>
</g>
<!-- Node4&#45;&gt;Node6 -->
<g id="edge14" class="edge"><title>Node4&#45;&gt;Node6</title>
<path fill="none" stroke="midnightblue" d="M522.728,-59.452C562.963,-49.5197 623.332,-34.6167 666.486,-23.9637"/>
<polygon fill="midnightblue" stroke="midnightblue" points="667.37,-27.3507 676.239,-21.556 665.692,-20.5547 667.37,-27.3507"/>
</g>
<!-- Node5&#45;&gt;Node3 -->
<g id="edge12" class="edge"><title>Node5&#45;&gt;Node3</title>
<path fill="none" stroke="midnightblue" d="M756.615,-61.554C773.149,-66.1929 792.757,-71.6943 810.302,-76.617"/>
<polygon fill="midnightblue" stroke="midnightblue" points="809.781,-80.106 820.355,-79.4376 811.672,-73.3662 809.781,-80.106"/>
</g>
</g>
</svg>
        <g id="navigator" transform="translate(0 0)" fill="#404254">
                <rect fill="#f2f5e9" fill-opacity="0.5" stroke="#606060" stroke-width=".5" x="0" y="0" width="60" height="60"/>
                <use id="zoomplus" xlink:href="#zoomPlus" x="17" y="9" onmousedown="handleZoom(evt,'in')"/>
                <use id="zoomminus" xlink:href="#zoomMin" x="42" y="9" onmousedown="handleZoom(evt,'out')"/>
                <use id="reset" xlink:href="#resetDef" x="30" y="36" onmousedown="handleReset()"/>
                <g id="arrowUp" xlink:href="#dirArrow" transform="translate(30 24)" onmousedown="handlePan(0,-1)">
                  <use xlink:href="#rim" fill="#404040">
                        <set attributeName="fill" to="#808080" begin="arrowUp.mouseover" end="arrowUp.mouseout"/>
                  </use>
                  <path fill="none" stroke="white" stroke-width="1.5" d="M0,-3.0v7 M-2.5,-0.5L0,-3.0L2.5,-0.5"/>
                </g>
                <g id="arrowRight" xlink:href="#dirArrow" transform="rotate(90) translate(36 -43)" onmousedown="handlePan(1,0)">
                  <use xlink:href="#rim" fill="#404040">
                        <set attributeName="fill" to="#808080" begin="arrowRight.mouseover" end="arrowRight.mouseout"/>
                  </use>
                  <path fill="none" stroke="white" stroke-width="1.5" d="M0,-3.0v7 M-2.5,-0.5L0,-3.0L2.5,-0.5"/>
                </g>
                <g id="arrowDown" xlink:href="#dirArrow" transform="rotate(180) translate(-30 -48)" onmousedown="handlePan(0,1)">
                  <use xlink:href="#rim" fill="#404040">
                        <set attributeName="fill" to="#808080" begin="arrowDown.mouseover" end="arrowDown.mouseout"/>
                  </use>
                  <path fill="none" stroke="white" stroke-width="1.5" d="M0,-3.0v7 M-2.5,-0.5L0,-3.0L2.5,-0.5"/>
                </g>
                <g id="arrowLeft" xlink:href="#dirArrow" transform="rotate(270) translate(-36 17)" onmousedown="handlePan(-1,0)">
                  <use xlink:href="#rim" fill="#404040">
                        <set attributeName="fill" to="#808080" begin="arrowLeft.mouseover" end="arrowLeft.mouseout"/>
                  </use>
                  <path fill="none" stroke="white" stroke-width="1.5" d="M0,-3.0v7 M-2.5,-0.5L0,-3.0L2.5,-0.5"/>
                </g>
        </g>
</svg>
