<?xml version="1.0" encoding="UTF-8" standalone="no"?>
<!DOCTYPE svg PUBLIC "-//W3C//DTD SVG 1.1//EN"
 "http://www.w3.org/Graphics/SVG/1.1/DTD/svg11.dtd">
<!-- Generated by graphviz version 2.26.3 (20100126.1600)
 -->
<!-- Title: G Pages: 1 -->
<!--zoomable 552 -->
<svg id="main" version="1.1" xmlns="http://www.w3.org/2000/svg" xmlns:xlink="http://www.w3.org/1999/xlink" xml:space="preserve" onload="init(evt)">
        <defs>
                <circle id="rim" cx="0" cy="0" r="7"/>
                <circle id="rim2" cx="0" cy="0" r="3.5"/>
                <g id="zoomPlus">
                        <use xlink:href="#rim" fill="#404040">
                                <set attributeName="fill" to="#808080" begin="zoomplus.mouseover" end="zoomplus.mouseout"/>
                        </use>
                        <path d="M-4,0h8M0,-4v8" fill="none" stroke="white" stroke-width="1.5" pointer-events="none"/>
                </g>
                <g id="zoomMin">
                        <use xlink:href="#rim" fill="#404040">
                                <set attributeName="fill" to="#808080" begin="zoomminus.mouseover" end="zoomminus.mouseout"/>
                        </use>
                        <path d="M-4,0h8" fill="none" stroke="white" stroke-width="1.5" pointer-events="none"/>
                </g>
                <g id="dirArrow">
                        <path fill="none" stroke="white" stroke-width="1.5" d="M0,-3.0v7 M-2.5,-0.5L0,-3.0L2.5,-0.5"/>
                </g>
               <g id="resetDef">
                       <use xlink:href="#rim2" fill="#404040">
                               <set attributeName="fill" to="#808080" begin="reset.mouseover" end="reset.mouseout"/>
                       </use>
               </g>
        </defs>

<script type="text/javascript">
var viewWidth = 618;
var viewHeight = 552;
var sectionId = 'dynsection-0';
</script>
<script xlink:href="../../svgpan.js"/>
<svg id="graph" class="graph">
<g id="viewport">
<title>G</title>
<polygon fill="white" stroke="white" points="-4,5 -4,-548 615,-548 615,5 -4,5"/>
<!-- Node1 -->
<g id="node1" class="node"><title>Node1</title>
<polygon fill="#bfbfbf" stroke="black" points="183,-522.5 183,-543.5 541,-543.5 541,-522.5 183,-522.5"/>
<text text-anchor="middle" x="362" y="-530.5" font-family="Helvetica,sans-Serif" font-size="10.00">/home/aoi/Documents/FxOS/B2G/gaia/xulrunner&#45;sdk/include/GLContextSkia.h</text>
</g>
<!-- Node2 -->
<g id="node3" class="node"><title>Node2</title>
<a xlink:href="../../d7/d31/_gr_g_l_interface_8h.html" target="_top" xlink:title="skia/GrGLInterface.h">
<polygon fill="white" stroke="black" points="308.5,-464.5 308.5,-485.5 415.5,-485.5 415.5,-464.5 308.5,-464.5"/>
<text text-anchor="middle" x="362" y="-472.5" font-family="Helvetica,sans-Serif" font-size="10.00">skia/GrGLInterface.h</text>
</a>
</g>
<!-- Node1&#45;&gt;Node2 -->
<g id="edge2" class="edge"><title>Node1&#45;&gt;Node2</title>
<path fill="none" stroke="midnightblue" d="M362,-522.362C362,-514.922 362,-504.743 362,-495.728"/>
<polygon fill="midnightblue" stroke="midnightblue" points="365.5,-495.571 362,-485.571 358.5,-495.571 365.5,-495.571"/>
</g>
<!-- Node3 -->
<g id="node5" class="node"><title>Node3</title>
<a xlink:href="../../d6/db9/_gr_g_l_functions_8h.html" target="_top" xlink:title="GrGLFunctions.h">
<polygon fill="white" stroke="black" points="364.5,-406.5 364.5,-427.5 455.5,-427.5 455.5,-406.5 364.5,-406.5"/>
<text text-anchor="middle" x="410" y="-414.5" font-family="Helvetica,sans-Serif" font-size="10.00">GrGLFunctions.h</text>
</a>
</g>
<!-- Node2&#45;&gt;Node3 -->
<g id="edge4" class="edge"><title>Node2&#45;&gt;Node3</title>
<path fill="none" stroke="midnightblue" d="M370.804,-464.362C377.502,-456.268 386.884,-444.932 394.789,-435.38"/>
<polygon fill="midnightblue" stroke="midnightblue" points="397.573,-437.506 401.252,-427.571 392.18,-433.043 397.573,-437.506"/>
</g>
<!-- Node17 -->
<g id="node37" class="node"><title>Node17</title>
<a xlink:href="../../d5/d5a/_gr_ref_cnt_8h.html" target="_top" xlink:title="GrRefCnt.h">
<polygon fill="white" stroke="black" points="280.5,-406.5 280.5,-427.5 347.5,-427.5 347.5,-406.5 280.5,-406.5"/>
<text text-anchor="middle" x="314" y="-414.5" font-family="Helvetica,sans-Serif" font-size="10.00">GrRefCnt.h</text>
</a>
</g>
<!-- Node2&#45;&gt;Node17 -->
<g id="edge40" class="edge"><title>Node2&#45;&gt;Node17</title>
<path fill="none" stroke="midnightblue" d="M353.196,-464.362C346.498,-456.268 337.116,-444.932 329.211,-435.38"/>
<polygon fill="midnightblue" stroke="midnightblue" points="331.82,-433.043 322.748,-427.571 326.427,-437.506 331.82,-433.043"/>
</g>
<!-- Node4 -->
<g id="node7" class="node"><title>Node4</title>
<a xlink:href="../../d6/dc9/_gr_g_l_config_8h.html" target="_top" xlink:title="GrGLConfig.h">
<polygon fill="white" stroke="black" points="371.5,-348.5 371.5,-369.5 448.5,-369.5 448.5,-348.5 371.5,-348.5"/>
<text text-anchor="middle" x="410" y="-356.5" font-family="Helvetica,sans-Serif" font-size="10.00">GrGLConfig.h</text>
</a>
</g>
<!-- Node3&#45;&gt;Node4 -->
<g id="edge6" class="edge"><title>Node3&#45;&gt;Node4</title>
<path fill="none" stroke="midnightblue" d="M410,-406.362C410,-398.922 410,-388.743 410,-379.728"/>
<polygon fill="midnightblue" stroke="midnightblue" points="413.5,-379.571 410,-369.571 406.5,-379.571 413.5,-379.571"/>
</g>
<!-- Node5 -->
<g id="node9" class="node"><title>Node5</title>
<a xlink:href="../../d8/de6/_gr_types_8h.html" target="_top" xlink:title="GrTypes.h">
<polygon fill="white" stroke="black" points="379,-232.5 379,-253.5 441,-253.5 441,-232.5 379,-232.5"/>
<text text-anchor="middle" x="410" y="-240.5" font-family="Helvetica,sans-Serif" font-size="10.00">GrTypes.h</text>
</a>
</g>
<!-- Node4&#45;&gt;Node5 -->
<g id="edge8" class="edge"><title>Node4&#45;&gt;Node5</title>
<path fill="none" stroke="midnightblue" d="M410,-348.295C410,-329.131 410,-288.654 410,-263.843"/>
<polygon fill="midnightblue" stroke="midnightblue" points="413.5,-263.679 410,-253.679 406.5,-263.679 413.5,-263.679"/>
</g>
<!-- Node6 -->
<g id="node11" class="node"><title>Node6</title>
<a xlink:href="../../d3/d36/_sk_types_8h.html" target="_top" xlink:title="SkTypes.h">
<polygon fill="white" stroke="black" points="289,-116.5 289,-137.5 353,-137.5 353,-116.5 289,-116.5"/>
<text text-anchor="middle" x="321" y="-124.5" font-family="Helvetica,sans-Serif" font-size="10.00">SkTypes.h</text>
</a>
</g>
<!-- Node5&#45;&gt;Node6 -->
<g id="edge10" class="edge"><title>Node5&#45;&gt;Node6</title>
<path fill="none" stroke="midnightblue" d="M401.787,-232.295C386.686,-212.613 354.337,-170.45 335.475,-145.867"/>
<polygon fill="midnightblue" stroke="midnightblue" points="338.058,-143.483 329.194,-137.679 332.504,-147.744 338.058,-143.483"/>
</g>
<!-- Node14 -->
<g id="node28" class="node"><title>Node14</title>
<a xlink:href="../../dd/d22/_gr_config_8h.html" target="_top" xlink:title="GrConfig.h">
<polygon fill="white" stroke="black" points="466,-174.5 466,-195.5 530,-195.5 530,-174.5 466,-174.5"/>
<text text-anchor="middle" x="498" y="-182.5" font-family="Helvetica,sans-Serif" font-size="10.00">GrConfig.h</text>
</a>
</g>
<!-- Node5&#45;&gt;Node14 -->
<g id="edge28" class="edge"><title>Node5&#45;&gt;Node14</title>
<path fill="none" stroke="midnightblue" d="M426.141,-232.362C439.414,-223.614 458.432,-211.079 473.57,-201.101"/>
<polygon fill="midnightblue" stroke="midnightblue" points="475.538,-203.996 481.962,-195.571 471.686,-198.151 475.538,-203.996"/>
</g>
<!-- Node16 -->
<g id="node34" class="node"><title>Node16</title>
<a xlink:href="../../d9/df0/_sk_math_8h.html" target="_top" xlink:title="SkMath.h">
<polygon fill="white" stroke="black" points="389.5,-174.5 389.5,-195.5 448.5,-195.5 448.5,-174.5 389.5,-174.5"/>
<text text-anchor="middle" x="419" y="-182.5" font-family="Helvetica,sans-Serif" font-size="10.00">SkMath.h</text>
</a>
</g>
<!-- Node5&#45;&gt;Node16 -->
<g id="edge36" class="edge"><title>Node5&#45;&gt;Node16</title>
<path fill="none" stroke="midnightblue" d="M411.651,-232.362C412.805,-224.922 414.385,-214.743 415.784,-205.728"/>
<polygon fill="midnightblue" stroke="midnightblue" points="419.285,-205.989 417.36,-195.571 412.368,-204.916 419.285,-205.989"/>
</g>
<!-- Node7 -->
<g id="node13" class="node"><title>Node7</title>
<a xlink:href="../../da/dc5/_sk_pre_config_8h.html" target="_top" xlink:title="SkPreConfig.h">
<polygon fill="white" stroke="black" points="275,-58.5 275,-79.5 355,-79.5 355,-58.5 275,-58.5"/>
<text text-anchor="middle" x="315" y="-66.5" font-family="Helvetica,sans-Serif" font-size="10.00">SkPreConfig.h</text>
</a>
</g>
<!-- Node6&#45;&gt;Node7 -->
<g id="edge12" class="edge"><title>Node6&#45;&gt;Node7</title>
<path fill="none" stroke="midnightblue" d="M319.9,-116.362C319.13,-108.922 318.077,-98.7427 317.144,-89.7276"/>
<polygon fill="midnightblue" stroke="midnightblue" points="320.604,-89.1574 316.094,-79.5707 313.641,-89.8777 320.604,-89.1574"/>
</g>
<!-- Node8 -->
<g id="node15" class="node"><title>Node8</title>
<a xlink:href="../../d8/d2f/_sk_user_config_8h.html" target="_top" xlink:title="SkUserConfig.h">
<polygon fill="white" stroke="black" points="373,-58.5 373,-79.5 459,-79.5 459,-58.5 373,-58.5"/>
<text text-anchor="middle" x="416" y="-66.5" font-family="Helvetica,sans-Serif" font-size="10.00">SkUserConfig.h</text>
</a>
</g>
<!-- Node6&#45;&gt;Node8 -->
<g id="edge14" class="edge"><title>Node6&#45;&gt;Node8</title>
<path fill="none" stroke="midnightblue" d="M338.424,-116.362C352.887,-107.532 373.669,-94.844 390.084,-84.8224"/>
<polygon fill="midnightblue" stroke="midnightblue" points="391.975,-87.7688 398.686,-79.5707 388.327,-81.7943 391.975,-87.7688"/>
</g>
<!-- Node9 -->
<g id="node17" class="node"><title>Node9</title>
<a xlink:href="../../d8/d35/_sk_post_config_8h.html" target="_top" xlink:title="SkPostConfig.h">
<polygon fill="white" stroke="black" points="171,-58.5 171,-79.5 257,-79.5 257,-58.5 171,-58.5"/>
<text text-anchor="middle" x="214" y="-66.5" font-family="Helvetica,sans-Serif" font-size="10.00">SkPostConfig.h</text>
</a>
</g>
<!-- Node6&#45;&gt;Node9 -->
<g id="edge16" class="edge"><title>Node6&#45;&gt;Node9</title>
<path fill="none" stroke="midnightblue" d="M301.375,-116.362C284.859,-107.409 261.026,-94.4908 242.422,-84.4064"/>
<polygon fill="midnightblue" stroke="midnightblue" points="243.96,-81.2592 233.501,-79.5707 240.625,-87.4132 243.96,-81.2592"/>
</g>
<!-- Node10 -->
<g id="node19" class="node"><title>Node10</title>
<polygon fill="white" stroke="#bfbfbf" points="123,-0.5 123,-21.5 169,-21.5 169,-0.5 123,-0.5"/>
<text text-anchor="middle" x="146" y="-8.5" font-family="Helvetica,sans-Serif" font-size="10.00">stdio.h</text>
</g>
<!-- Node6&#45;&gt;Node10 -->
<g id="edge26" class="edge"><title>Node6&#45;&gt;Node10</title>
<path fill="none" stroke="midnightblue" d="M288.86,-121.434C247.619,-113.651 179.321,-98.3845 162,-80 149.854,-67.108 146.311,-46.8796 145.535,-31.6517"/>
<polygon fill="midnightblue" stroke="midnightblue" points="149.034,-31.5668 145.375,-21.6237 142.035,-31.6781 149.034,-31.5668"/>
</g>
<!-- Node13 -->
<g id="node25" class="node"><title>Node13</title>
<polygon fill="white" stroke="#bfbfbf" points="476.5,-58.5 476.5,-79.5 525.5,-79.5 525.5,-58.5 476.5,-58.5"/>
<text text-anchor="middle" x="501" y="-66.5" font-family="Helvetica,sans-Serif" font-size="10.00">stdint.h</text>
</g>
<!-- Node6&#45;&gt;Node13 -->
<g id="edge24" class="edge"><title>Node6&#45;&gt;Node13</title>
<path fill="none" stroke="midnightblue" d="M353.154,-116.845C380.922,-108.047 422.366,-94.8507 466.411,-80.4982"/>
<polygon fill="midnightblue" stroke="midnightblue" points="467.724,-83.7516 476.145,-77.3215 465.552,-77.097 467.724,-83.7516"/>
</g>
<!-- Node9&#45;&gt;Node10 -->
<g id="edge18" class="edge"><title>Node9&#45;&gt;Node10</title>
<path fill="none" stroke="midnightblue" d="M201.528,-58.3619C191.655,-49.9408 177.667,-38.0105 166.202,-28.2308"/>
<polygon fill="midnightblue" stroke="midnightblue" points="168.273,-25.3972 158.393,-21.5707 163.73,-30.7231 168.273,-25.3972"/>
</g>
<!-- Node11 -->
<g id="node21" class="node"><title>Node11</title>
<polygon fill="white" stroke="#bfbfbf" points="253.5,-0.5 253.5,-21.5 302.5,-21.5 302.5,-0.5 253.5,-0.5"/>
<text text-anchor="middle" x="278" y="-8.5" font-family="Helvetica,sans-Serif" font-size="10.00">string.h</text>
</g>
<!-- Node9&#45;&gt;Node11 -->
<g id="edge20" class="edge"><title>Node9&#45;&gt;Node11</title>
<path fill="none" stroke="midnightblue" d="M225.739,-58.3619C234.941,-50.0226 247.94,-38.2418 258.672,-28.5162"/>
<polygon fill="midnightblue" stroke="midnightblue" points="261.276,-30.8793 266.336,-21.5707 256.576,-25.6924 261.276,-30.8793"/>
</g>
<!-- Node12 -->
<g id="node23" class="node"><title>Node12</title>
<polygon fill="white" stroke="#bfbfbf" points="188,-0.5 188,-21.5 236,-21.5 236,-0.5 188,-0.5"/>
<text text-anchor="middle" x="212" y="-8.5" font-family="Helvetica,sans-Serif" font-size="10.00">stdlib.h</text>
</g>
<!-- Node9&#45;&gt;Node12 -->
<g id="edge22" class="edge"><title>Node9&#45;&gt;Node12</title>
<path fill="none" stroke="midnightblue" d="M213.633,-58.3619C213.377,-50.9219 213.026,-40.7427 212.715,-31.7276"/>
<polygon fill="midnightblue" stroke="midnightblue" points="216.207,-31.4441 212.365,-21.5707 209.211,-31.6854 216.207,-31.4441"/>
</g>
<!-- Node14&#45;&gt;Node6 -->
<g id="edge30" class="edge"><title>Node14&#45;&gt;Node6</title>
<path fill="none" stroke="midnightblue" d="M465.947,-174.497C437.091,-165.041 394.494,-151.083 362.939,-140.743"/>
<polygon fill="midnightblue" stroke="midnightblue" points="363.706,-137.311 353.113,-137.523 361.526,-143.963 363.706,-137.311"/>
</g>
<!-- Node14&#45;&gt;Node13 -->
<g id="edge32" class="edge"><title>Node14&#45;&gt;Node13</title>
<path fill="none" stroke="midnightblue" d="M498.277,-174.295C498.772,-155.131 499.819,-114.654 500.461,-89.8434"/>
<polygon fill="midnightblue" stroke="midnightblue" points="503.964,-89.7664 500.724,-79.6792 496.966,-89.5853 503.964,-89.7664"/>
</g>
<!-- Node15 -->
<g id="node32" class="node"><title>Node15</title>
<a xlink:href="../../dc/dc1/_gr_user_config_8h.html" target="_top" xlink:title="GrUserConfig.h">
<polygon fill="white" stroke="black" points="525.5,-116.5 525.5,-137.5 610.5,-137.5 610.5,-116.5 525.5,-116.5"/>
<text text-anchor="middle" x="568" y="-124.5" font-family="Helvetica,sans-Serif" font-size="10.00">GrUserConfig.h</text>
</a>
</g>
<!-- Node14&#45;&gt;Node15 -->
<g id="edge34" class="edge"><title>Node14&#45;&gt;Node15</title>
<path fill="none" stroke="midnightblue" d="M510.839,-174.362C521.002,-165.941 535.401,-154.011 547.204,-144.231"/>
<polygon fill="midnightblue" stroke="midnightblue" points="549.775,-146.646 555.242,-137.571 545.309,-141.256 549.775,-146.646"/>
</g>
<!-- Node16&#45;&gt;Node6 -->
<g id="edge38" class="edge"><title>Node16&#45;&gt;Node6</title>
<path fill="none" stroke="midnightblue" d="M401.025,-174.362C386.106,-165.532 364.667,-152.844 347.734,-142.822"/>
<polygon fill="midnightblue" stroke="midnightblue" points="349.249,-139.652 338.861,-137.571 345.684,-145.676 349.249,-139.652"/>
</g>
<!-- Node17&#45;&gt;Node5 -->
<g id="edge42" class="edge"><title>Node17&#45;&gt;Node5</title>
<path fill="none" stroke="midnightblue" d="M319.861,-406.377C335.556,-377.93 378.726,-299.684 399.093,-262.769"/>
<polygon fill="midnightblue" stroke="midnightblue" points="402.205,-264.374 403.971,-253.928 396.076,-260.993 402.205,-264.374"/>
</g>
<!-- Node18 -->
<g id="node40" class="node"><title>Node18</title>
<a xlink:href="../../df/d2b/_sk_ref_cnt_8h.html" target="_top" xlink:title="SkRefCnt.h">
<polygon fill="white" stroke="black" points="180,-348.5 180,-369.5 248,-369.5 248,-348.5 180,-348.5"/>
<text text-anchor="middle" x="214" y="-356.5" font-family="Helvetica,sans-Serif" font-size="10.00">SkRefCnt.h</text>
</a>
</g>
<!-- Node17&#45;&gt;Node18 -->
<g id="edge44" class="edge"><title>Node17&#45;&gt;Node18</title>
<path fill="none" stroke="midnightblue" d="M295.658,-406.362C280.434,-397.532 258.559,-384.844 241.28,-374.822"/>
<polygon fill="midnightblue" stroke="midnightblue" points="242.632,-371.56 232.225,-369.571 239.12,-377.615 242.632,-371.56"/>
</g>
<!-- Node19 -->
<g id="node42" class="node"><title>Node19</title>
<a xlink:href="../../d9/def/_sk_thread_8h.html" target="_top" xlink:title="SkThread.h">
<polygon fill="white" stroke="black" points="222.5,-290.5 222.5,-311.5 289.5,-311.5 289.5,-290.5 222.5,-290.5"/>
<text text-anchor="middle" x="256" y="-298.5" font-family="Helvetica,sans-Serif" font-size="10.00">SkThread.h</text>
</a>
</g>
<!-- Node18&#45;&gt;Node19 -->
<g id="edge46" class="edge"><title>Node18&#45;&gt;Node19</title>
<path fill="none" stroke="midnightblue" d="M221.703,-348.362C227.446,-340.431 235.443,-329.389 242.27,-319.961"/>
<polygon fill="midnightblue" stroke="midnightblue" points="245.315,-321.723 248.345,-311.571 239.645,-317.617 245.315,-321.723"/>
</g>
<!-- Node21 -->
<g id="node47" class="node"><title>Node21</title>
<a xlink:href="../../dd/dac/_sk_inst_cnt_8h.html" target="_top" xlink:title="SkInstCnt.h">
<polygon fill="white" stroke="black" points="136.5,-290.5 136.5,-311.5 205.5,-311.5 205.5,-290.5 136.5,-290.5"/>
<text text-anchor="middle" x="171" y="-298.5" font-family="Helvetica,sans-Serif" font-size="10.00">SkInstCnt.h</text>
</a>
</g>
<!-- Node18&#45;&gt;Node21 -->
<g id="edge52" class="edge"><title>Node18&#45;&gt;Node21</title>
<path fill="none" stroke="midnightblue" d="M206.113,-348.362C200.173,-340.35 191.878,-329.161 184.841,-319.67"/>
<polygon fill="midnightblue" stroke="midnightblue" points="187.604,-317.519 178.837,-311.571 181.981,-321.688 187.604,-317.519"/>
</g>
<!-- Node24 -->
<g id="node55" class="node"><title>Node24</title>
<a xlink:href="../../db/d2d/_sk_templates_8h.html" target="_top" xlink:title="SkTemplates.h">
<polygon fill="white" stroke="black" points="-0.5,-174.5 -0.5,-195.5 82.5,-195.5 82.5,-174.5 -0.5,-174.5"/>
<text text-anchor="middle" x="41" y="-182.5" font-family="Helvetica,sans-Serif" font-size="10.00">SkTemplates.h</text>
</a>
</g>
<!-- Node18&#45;&gt;Node24 -->
<g id="edge70" class="edge"><title>Node18&#45;&gt;Node24</title>
<path fill="none" stroke="midnightblue" d="M189.902,-348.446C157.032,-332.764 98.725,-300.121 68,-254 58.1112,-239.156 51.0138,-220.15 46.5849,-205.845"/>
<polygon fill="midnightblue" stroke="midnightblue" points="49.8669,-204.596 43.7163,-195.969 43.1447,-206.549 49.8669,-204.596"/>
</g>
<!-- Node19&#45;&gt;Node6 -->
<g id="edge48" class="edge"><title>Node19&#45;&gt;Node6</title>
<path fill="none" stroke="midnightblue" d="M276.421,-290.4C289.643,-282.34 305.861,-269.926 314,-254 331.409,-219.933 328.46,-173.81 324.736,-147.552"/>
<polygon fill="midnightblue" stroke="midnightblue" points="328.181,-146.931 323.149,-137.608 321.268,-148.034 328.181,-146.931"/>
</g>
<!-- Node20 -->
<g id="node45" class="node"><title>Node20</title>
<a xlink:href="../../d9/d82/_sk_thread__platform_8h.html" target="_top" xlink:title="SkThread_platform.h">
<polygon fill="white" stroke="black" points="198.5,-232.5 198.5,-253.5 305.5,-253.5 305.5,-232.5 198.5,-232.5"/>
<text text-anchor="middle" x="252" y="-240.5" font-family="Helvetica,sans-Serif" font-size="10.00">SkThread_platform.h</text>
</a>
</g>
<!-- Node19&#45;&gt;Node20 -->
<g id="edge50" class="edge"><title>Node19&#45;&gt;Node20</title>
<path fill="none" stroke="midnightblue" d="M255.266,-290.362C254.753,-282.922 254.051,-272.743 253.429,-263.728"/>
<polygon fill="midnightblue" stroke="midnightblue" points="256.909,-263.306 252.729,-253.571 249.925,-263.788 256.909,-263.306"/>
</g>
<!-- Node21&#45;&gt;Node6 -->
<g id="edge54" class="edge"><title>Node21&#45;&gt;Node6</title>
<path fill="none" stroke="midnightblue" d="M171.885,-290.349C173.508,-276.031 177.981,-250.269 190,-232 216.132,-192.279 262.152,-160.546 292.103,-142.748"/>
<polygon fill="midnightblue" stroke="midnightblue" points="293.949,-145.724 300.843,-137.679 290.436,-139.669 293.949,-145.724"/>
</g>
<!-- Node21&#45;&gt;Node20 -->
<g id="edge68" class="edge"><title>Node21&#45;&gt;Node20</title>
<path fill="none" stroke="midnightblue" d="M185.857,-290.362C197.846,-281.777 214.927,-269.546 228.728,-259.664"/>
<polygon fill="midnightblue" stroke="midnightblue" points="231.145,-262.238 237.238,-253.571 227.069,-256.547 231.145,-262.238"/>
</g>
<!-- Node22 -->
<g id="node50" class="node"><title>Node22</title>
<a xlink:href="../../dd/d82/_sk_t_array_8h.html" target="_top" xlink:title="SkTArray.h">
<polygon fill="white" stroke="black" points="77,-232.5 77,-253.5 143,-253.5 143,-232.5 77,-232.5"/>
<text text-anchor="middle" x="110" y="-240.5" font-family="Helvetica,sans-Serif" font-size="10.00">SkTArray.h</text>
</a>
</g>
<!-- Node21&#45;&gt;Node22 -->
<g id="edge56" class="edge"><title>Node21&#45;&gt;Node22</title>
<path fill="none" stroke="midnightblue" d="M159.812,-290.362C151.041,-282.023 138.651,-270.242 128.422,-260.516"/>
<polygon fill="midnightblue" stroke="midnightblue" points="130.776,-257.925 121.117,-253.571 125.953,-262.998 130.776,-257.925"/>
</g>
<!-- Node22&#45;&gt;Node6 -->
<g id="edge60" class="edge"><title>Node22&#45;&gt;Node6</title>
<path fill="none" stroke="midnightblue" d="M116.875,-232.264C127.108,-217.124 147.764,-189.609 172,-174 204.679,-152.954 247.46,-140.743 278.794,-134.07"/>
<polygon fill="midnightblue" stroke="midnightblue" points="279.844,-137.429 288.951,-132.015 278.455,-130.568 279.844,-137.429"/>
</g>
<!-- Node23 -->
<g id="node52" class="node"><title>Node23</title>
<polygon fill="white" stroke="#bfbfbf" points="58.5,-116.5 58.5,-137.5 93.5,-137.5 93.5,-116.5 58.5,-116.5"/>
<text text-anchor="middle" x="76" y="-124.5" font-family="Helvetica,sans-Serif" font-size="10.00">new</text>
</g>
<!-- Node22&#45;&gt;Node23 -->
<g id="edge58" class="edge"><title>Node22&#45;&gt;Node23</title>
<path fill="none" stroke="midnightblue" d="M107.172,-232.205C103.571,-218.592 97.0869,-194.486 91,-174 88.3928,-165.225 85.3481,-155.585 82.6857,-147.332"/>
<polygon fill="midnightblue" stroke="midnightblue" points="86.0028,-146.215 79.5794,-137.789 79.3465,-148.381 86.0028,-146.215"/>
</g>
<!-- Node22&#45;&gt;Node24 -->
<g id="edge62" class="edge"><title>Node22&#45;&gt;Node24</title>
<path fill="none" stroke="midnightblue" d="M97.3443,-232.362C87.3261,-223.941 73.1332,-212.011 61.4987,-202.231"/>
<polygon fill="midnightblue" stroke="midnightblue" points="63.4824,-199.326 53.5754,-195.571 58.9782,-204.684 63.4824,-199.326"/>
</g>
<!-- Node24&#45;&gt;Node6 -->
<g id="edge64" class="edge"><title>Node24&#45;&gt;Node6</title>
<path fill="none" stroke="midnightblue" d="M82.6165,-176.379C135.317,-165.463 225.628,-146.756 278.667,-135.769"/>
<polygon fill="midnightblue" stroke="midnightblue" points="279.674,-139.135 288.756,-133.679 278.254,-132.28 279.674,-139.135"/>
</g>
<!-- Node24&#45;&gt;Node23 -->
<g id="edge66" class="edge"><title>Node24&#45;&gt;Node23</title>
<path fill="none" stroke="midnightblue" d="M47.4195,-174.362C52.1559,-166.513 58.7318,-155.616 64.382,-146.253"/>
<polygon fill="midnightblue" stroke="midnightblue" points="67.4511,-147.941 69.6212,-137.571 61.4578,-144.324 67.4511,-147.941"/>
</g>
</g>
</svg>
        <g id="navigator" transform="translate(0 0)" fill="#404254">
                <rect fill="#f2f5e9" fill-opacity="0.5" stroke="#606060" stroke-width=".5" x="0" y="0" width="60" height="60"/>
                <use id="zoomplus" xlink:href="#zoomPlus" x="17" y="9" onmousedown="handleZoom(evt,'in')"/>
                <use id="zoomminus" xlink:href="#zoomMin" x="42" y="9" onmousedown="handleZoom(evt,'out')"/>
                <use id="reset" xlink:href="#resetDef" x="30" y="36" onmousedown="handleReset()"/>
                <g id="arrowUp" xlink:href="#dirArrow" transform="translate(30 24)" onmousedown="handlePan(0,-1)">
                  <use xlink:href="#rim" fill="#404040">
                        <set attributeName="fill" to="#808080" begin="arrowUp.mouseover" end="arrowUp.mouseout"/>
                  </use>
                  <path fill="none" stroke="white" stroke-width="1.5" d="M0,-3.0v7 M-2.5,-0.5L0,-3.0L2.5,-0.5"/>
                </g>
                <g id="arrowRight" xlink:href="#dirArrow" transform="rotate(90) translate(36 -43)" onmousedown="handlePan(1,0)">
                  <use xlink:href="#rim" fill="#404040">
                        <set attributeName="fill" to="#808080" begin="arrowRight.mouseover" end="arrowRight.mouseout"/>
                  </use>
                  <path fill="none" stroke="white" stroke-width="1.5" d="M0,-3.0v7 M-2.5,-0.5L0,-3.0L2.5,-0.5"/>
                </g>
                <g id="arrowDown" xlink:href="#dirArrow" transform="rotate(180) translate(-30 -48)" onmousedown="handlePan(0,1)">
                  <use xlink:href="#rim" fill="#404040">
                        <set attributeName="fill" to="#808080" begin="arrowDown.mouseover" end="arrowDown.mouseout"/>
                  </use>
                  <path fill="none" stroke="white" stroke-width="1.5" d="M0,-3.0v7 M-2.5,-0.5L0,-3.0L2.5,-0.5"/>
                </g>
                <g id="arrowLeft" xlink:href="#dirArrow" transform="rotate(270) translate(-36 17)" onmousedown="handlePan(-1,0)">
                  <use xlink:href="#rim" fill="#404040">
                        <set attributeName="fill" to="#808080" begin="arrowLeft.mouseover" end="arrowLeft.mouseout"/>
                  </use>
                  <path fill="none" stroke="white" stroke-width="1.5" d="M0,-3.0v7 M-2.5,-0.5L0,-3.0L2.5,-0.5"/>
                </g>
        </g>
</svg>
