<?xml version="1.0" encoding="UTF-8" standalone="no"?>
<!DOCTYPE svg PUBLIC "-//W3C//DTD SVG 1.1//EN"
 "http://www.w3.org/Graphics/SVG/1.1/DTD/svg11.dtd">
<!-- Generated by graphviz version 2.26.3 (20100126.1600)
 -->
<!-- Title: G Pages: 1 -->
<svg width="434pt" height="110pt"
 viewBox="0.00 0.00 434.00 110.00" xmlns="http://www.w3.org/2000/svg" xmlns:xlink="http://www.w3.org/1999/xlink">
<g id="graph1" class="graph" transform="scale(1 1) rotate(0) translate(4 106)">
<title>G</title>
<polygon fill="white" stroke="white" points="-4,5 -4,-106 431,-106 431,5 -4,5"/>
<!-- Node1 -->
<g id="node1" class="node"><title>Node1</title>
<polygon fill="#bfbfbf" stroke="black" points="0,-40.5 0,-61.5 158,-61.5 158,-40.5 0,-40.5"/>
<text text-anchor="middle" x="79" y="-48.5" font-family="Helvetica,sans-Serif" font-size="10.00">mozilla::gfx::UserData::Remove</text>
</g>
<!-- Node2 -->
<g id="node3" class="node"><title>Node2</title>
<a xlink:href="../../d5/d2c/classns_rendering_context.html#a4c90ce2f4021160ea8b5e06124db7fb8" target="_top" xlink:title="nsRenderingContext::RemoveUserData">
<polygon fill="white" stroke="black" points="214.5,-80.5 214.5,-101.5 405.5,-101.5 405.5,-80.5 214.5,-80.5"/>
<text text-anchor="middle" x="310" y="-88.5" font-family="Helvetica,sans-Serif" font-size="10.00">nsRenderingContext::RemoveUserData</text>
</a>
</g>
<!-- Node1&#45;&gt;Node2 -->
<g id="edge2" class="edge"><title>Node1&#45;&gt;Node2</title>
<path fill="none" stroke="midnightblue" d="M149.354,-63.2523C164.103,-65.8161 179.561,-68.4997 194,-71 211.821,-74.0859 231.183,-77.4284 248.892,-80.4813"/>
<polygon fill="midnightblue" stroke="midnightblue" points="149.73,-59.7651 139.278,-61.5002 148.531,-66.6616 149.73,-59.7651"/>
</g>
<!-- Node3 -->
<g id="node5" class="node"><title>Node3</title>
<a xlink:href="../../d1/d01/classmozilla_1_1layers_1_1_layer_manager.html#a28d11bec973b23de3df9000710cc0d8b" target="_top" xlink:title="mozilla::layers::LayerManager::RemoveUserData">
<polygon fill="white" stroke="black" points="194,-40.5 194,-61.5 426,-61.5 426,-40.5 194,-40.5"/>
<text text-anchor="middle" x="310" y="-48.5" font-family="Helvetica,sans-Serif" font-size="10.00">mozilla::layers::LayerManager::RemoveUserData</text>
</a>
</g>
<!-- Node1&#45;&gt;Node3 -->
<g id="edge4" class="edge"><title>Node1&#45;&gt;Node3</title>
<path fill="none" stroke="midnightblue" d="M168.262,-51C176.622,-51 185.175,-51 193.733,-51"/>
<polygon fill="midnightblue" stroke="midnightblue" points="168.174,-47.5001 158.174,-51 168.174,-54.5001 168.174,-47.5001"/>
</g>
<!-- Node4 -->
<g id="node7" class="node"><title>Node4</title>
<a xlink:href="../../d9/da9/classmozilla_1_1layers_1_1_layer.html#a175677d44f8adab82e9b591ab70d7349" target="_top" xlink:title="mozilla::layers::Layer::RemoveUserData">
<polygon fill="white" stroke="black" points="213,-0.5 213,-21.5 407,-21.5 407,-0.5 213,-0.5"/>
<text text-anchor="middle" x="310" y="-8.5" font-family="Helvetica,sans-Serif" font-size="10.00">mozilla::layers::Layer::RemoveUserData</text>
</a>
</g>
<!-- Node1&#45;&gt;Node4 -->
<g id="edge6" class="edge"><title>Node1&#45;&gt;Node4</title>
<path fill="none" stroke="midnightblue" d="M149.354,-38.7477C164.103,-36.1839 179.561,-33.5003 194,-31 211.821,-27.9141 231.183,-24.5716 248.892,-21.5187"/>
<polygon fill="midnightblue" stroke="midnightblue" points="148.531,-35.3384 139.278,-40.4998 149.73,-42.2349 148.531,-35.3384"/>
</g>
</g>
</svg>
