<?xml version="1.0" encoding="UTF-8" standalone="no"?>
<!DOCTYPE svg PUBLIC "-//W3C//DTD SVG 1.1//EN"
 "http://www.w3.org/Graphics/SVG/1.1/DTD/svg11.dtd">
<!-- Generated by graphviz version 2.26.3 (20100126.1600)
 -->
<!-- Title: G Pages: 1 -->
<svg width="324pt" height="234pt"
 viewBox="0.00 0.00 324.00 234.00" xmlns="http://www.w3.org/2000/svg" xmlns:xlink="http://www.w3.org/1999/xlink">
<g id="graph1" class="graph" transform="scale(1 1) rotate(0) translate(4 230)">
<title>G</title>
<polygon fill="white" stroke="white" points="-4,5 -4,-230 321,-230 321,5 -4,5"/>
<!-- Node1 -->
<g id="node1" class="node"><title>Node1</title>
<polygon fill="#bfbfbf" stroke="black" points="118,-0.5 118,-21.5 228,-21.5 228,-0.5 118,-0.5"/>
<text text-anchor="middle" x="173" y="-8.5" font-family="Helvetica,sans-Serif" font-size="10.00">nsNSSShutDownList</text>
</g>
<!-- Node1&#45;&gt;Node1 -->
<g id="edge2" class="edge"><title>Node1&#45;&gt;Node1</title>
<path fill="none" stroke="#9a32cd" stroke-dasharray="5,2" d="M238.001,-16.9101C242.952,-15.5976 246,-13.6276 246,-11 246,-6.89844 238.574,-4.39905 228.073,-3.50183"/>
<polygon fill="#9a32cd" stroke="#9a32cd" points="237.395,-13.4625 228.073,-18.4982 238.501,-20.3746 237.395,-13.4625"/>
<text text-anchor="middle" x="267.5" y="-8.5" font-family="Helvetica,sans-Serif" font-size="10.00"> singleton</text>
</g>
<!-- Node2 -->
<g id="node3" class="node"><title>Node2</title>
<polygon fill="white" stroke="#bfbfbf" points="-0.5,-84.5 -0.5,-105.5 40.5,-105.5 40.5,-84.5 -0.5,-84.5"/>
<text text-anchor="middle" x="20" y="-92.5" font-family="Helvetica,sans-Serif" font-size="10.00">struct</text>
</g>
<!-- Node2&#45;&gt;Node1 -->
<g id="edge4" class="edge"><title>Node2&#45;&gt;Node1</title>
<path fill="none" stroke="#9a32cd" stroke-dasharray="5,2" d="M16.7573,-74.1096C16.2049,-62.6623 17.7332,-49.0112 26,-40 38.3534,-26.5341 81.4253,-19.114 117.776,-15.1596"/>
<polygon fill="#9a32cd" stroke="#9a32cd" points="13.2876,-74.5875 17.7725,-84.1863 20.2524,-73.8858 13.2876,-74.5875"/>
<text text-anchor="middle" x="91" y="-57" font-family="Helvetica,sans-Serif" font-size="10.00"> mPK11LogoutCancelObjects</text>
<text text-anchor="middle" x="91" y="-44" font-family="Helvetica,sans-Serif" font-size="10.00">mObjects</text>
</g>
<!-- Node3 -->
<g id="node5" class="node"><title>Node3</title>
<a xlink:href="../../d9/d12/classmozilla_1_1_mutex.html" target="_top" xlink:title="mozilla::Mutex">
<polygon fill="white" stroke="black" points="114,-84.5 114,-105.5 194,-105.5 194,-84.5 114,-84.5"/>
<text text-anchor="middle" x="154" y="-92.5" font-family="Helvetica,sans-Serif" font-size="10.00">mozilla::Mutex</text>
</a>
</g>
<!-- Node3&#45;&gt;Node1 -->
<g id="edge6" class="edge"><title>Node3&#45;&gt;Node1</title>
<path fill="none" stroke="#9a32cd" stroke-dasharray="5,2" d="M158.654,-74.4249C162.439,-57.6927 167.625,-34.7645 170.613,-21.5523"/>
<polygon fill="#9a32cd" stroke="#9a32cd" points="155.199,-73.8355 156.406,-84.3613 162.026,-75.3799 155.199,-73.8355"/>
<text text-anchor="middle" x="190.5" y="-50.5" font-family="Helvetica,sans-Serif" font-size="10.00"> mListLock</text>
</g>
<!-- Node4 -->
<g id="node7" class="node"><title>Node4</title>
<a xlink:href="../../de/d42/classmozilla_1_1_off_the_books_mutex.html" target="_top" xlink:title="mozilla::OffTheBooksMutex">
<polygon fill="white" stroke="black" points="85,-144.5 85,-165.5 223,-165.5 223,-144.5 85,-144.5"/>
<text text-anchor="middle" x="154" y="-152.5" font-family="Helvetica,sans-Serif" font-size="10.00">mozilla::OffTheBooksMutex</text>
</a>
</g>
<!-- Node4&#45;&gt;Node3 -->
<g id="edge8" class="edge"><title>Node4&#45;&gt;Node3</title>
<path fill="none" stroke="midnightblue" d="M154,-134.231C154,-124.592 154,-113.544 154,-105.634"/>
<polygon fill="midnightblue" stroke="midnightblue" points="150.5,-134.273 154,-144.273 157.5,-134.273 150.5,-134.273"/>
</g>
<!-- Node5 -->
<g id="node9" class="node"><title>Node5</title>
<a xlink:href="../../db/d98/classmozilla_1_1_blocking_resource_base.html" target="_top" xlink:title="mozilla::BlockingResourceBase">
<polygon fill="white" stroke="black" points="76.5,-204.5 76.5,-225.5 231.5,-225.5 231.5,-204.5 76.5,-204.5"/>
<text text-anchor="middle" x="154" y="-212.5" font-family="Helvetica,sans-Serif" font-size="10.00">mozilla::BlockingResourceBase</text>
</a>
</g>
<!-- Node5&#45;&gt;Node4 -->
<g id="edge10" class="edge"><title>Node5&#45;&gt;Node4</title>
<path fill="none" stroke="#8b1a1a" d="M154,-194.231C154,-184.592 154,-173.544 154,-165.634"/>
<polygon fill="#8b1a1a" stroke="#8b1a1a" points="150.5,-194.273 154,-204.273 157.5,-194.273 150.5,-194.273"/>
</g>
<!-- Node6 -->
<g id="node11" class="node"><title>Node6</title>
<a xlink:href="../../db/d1d/classns_n_s_s_activity_state.html" target="_top" xlink:title="nsNSSActivityState">
<polygon fill="white" stroke="black" points="212,-84.5 212,-105.5 316,-105.5 316,-84.5 212,-84.5"/>
<text text-anchor="middle" x="264" y="-92.5" font-family="Helvetica,sans-Serif" font-size="10.00">nsNSSActivityState</text>
</a>
</g>
<!-- Node6&#45;&gt;Node1 -->
<g id="edge12" class="edge"><title>Node6&#45;&gt;Node1</title>
<path fill="none" stroke="#9a32cd" stroke-dasharray="5,2" d="M250.95,-76.1179C242.607,-64.8507 231.109,-50.7016 219,-40 211.077,-32.9979 201.282,-26.5719 192.77,-21.5581"/>
<polygon fill="#9a32cd" stroke="#9a32cd" points="248.236,-78.3389 256.915,-84.4151 253.919,-74.2526 248.236,-78.3389"/>
<text text-anchor="middle" x="276" y="-50.5" font-family="Helvetica,sans-Serif" font-size="10.00"> mActivityState</text>
</g>
</g>
</svg>
