<?xml version="1.0" encoding="UTF-8" standalone="no"?>
<!DOCTYPE svg PUBLIC "-//W3C//DTD SVG 1.1//EN"
 "http://www.w3.org/Graphics/SVG/1.1/DTD/svg11.dtd">
<!-- Generated by graphviz version 2.26.3 (20100126.1600)
 -->
<!-- Title: G Pages: 1 -->
<svg width="405pt" height="350pt"
 viewBox="0.00 0.00 405.00 350.00" xmlns="http://www.w3.org/2000/svg" xmlns:xlink="http://www.w3.org/1999/xlink">
<g id="graph1" class="graph" transform="scale(1 1) rotate(0) translate(4 346)">
<title>G</title>
<polygon fill="white" stroke="white" points="-4,5 -4,-346 402,-346 402,5 -4,5"/>
<!-- Node1 -->
<g id="node1" class="node"><title>Node1</title>
<polygon fill="#bfbfbf" stroke="black" points="47,-0.5 47,-21.5 123,-21.5 123,-0.5 47,-0.5"/>
<text text-anchor="middle" x="85" y="-8.5" font-family="Helvetica,sans-Serif" font-size="10.00">IDBDatabase</text>
</g>
<!-- Node2 -->
<g id="node2" class="node"><title>Node2</title>
<a xlink:href="../../d3/d6f/class_i_d_b_wrapper_cache.html" target="_top" xlink:title="IDBWrapperCache">
<polygon fill="white" stroke="black" points="91.5,-60.5 91.5,-81.5 190.5,-81.5 190.5,-60.5 91.5,-60.5"/>
<text text-anchor="middle" x="141" y="-68.5" font-family="Helvetica,sans-Serif" font-size="10.00">IDBWrapperCache</text>
</a>
</g>
<!-- Node2&#45;&gt;Node1 -->
<g id="edge2" class="edge"><title>Node2&#45;&gt;Node1</title>
<path fill="none" stroke="midnightblue" d="M123.906,-52.6846C114.415,-42.5161 102.943,-30.2249 94.925,-21.6339"/>
<polygon fill="midnightblue" stroke="midnightblue" points="121.606,-55.3507 130.988,-60.2732 126.724,-50.5745 121.606,-55.3507"/>
</g>
<!-- Node3 -->
<g id="node4" class="node"><title>Node3</title>
<a xlink:href="../../df/d37/classns_d_o_m_event_target_helper.html" target="_top" xlink:title="nsDOMEventTargetHelper">
<polygon fill="white" stroke="black" points="92,-120.5 92,-141.5 224,-141.5 224,-120.5 92,-120.5"/>
<text text-anchor="middle" x="158" y="-128.5" font-family="Helvetica,sans-Serif" font-size="10.00">nsDOMEventTargetHelper</text>
</a>
</g>
<!-- Node3&#45;&gt;Node2 -->
<g id="edge4" class="edge"><title>Node3&#45;&gt;Node2</title>
<path fill="none" stroke="midnightblue" d="M152.203,-110.542C149.452,-100.83 146.278,-89.6294 144.013,-81.6339"/>
<polygon fill="midnightblue" stroke="midnightblue" points="148.867,-111.606 154.961,-120.273 155.602,-109.698 148.867,-111.606"/>
</g>
<!-- Node4 -->
<g id="node6" class="node"><title>Node4</title>
<a xlink:href="../../da/da8/classmozilla_1_1dom_1_1_event_target.html" target="_top" xlink:title="mozilla::dom::EventTarget">
<polygon fill="white" stroke="black" points="266.5,-200.5 266.5,-221.5 397.5,-221.5 397.5,-200.5 266.5,-200.5"/>
<text text-anchor="middle" x="332" y="-208.5" font-family="Helvetica,sans-Serif" font-size="10.00">mozilla::dom::EventTarget</text>
</a>
</g>
<!-- Node4&#45;&gt;Node3 -->
<g id="edge6" class="edge"><title>Node4&#45;&gt;Node3</title>
<path fill="none" stroke="midnightblue" d="M307.756,-194.692C290.935,-183.866 267.732,-169.883 246,-160 230.039,-152.742 211.717,-146.407 195.937,-141.525"/>
<polygon fill="midnightblue" stroke="midnightblue" points="306.108,-197.797 316.395,-200.336 309.937,-191.936 306.108,-197.797"/>
</g>
<!-- Node5 -->
<g id="node8" class="node"><title>Node5</title>
<a xlink:href="../../d9/ddf/interfacens_i_d_o_m_event_target.html" target="_top" xlink:title="nsIDOMEventTarget">
<polygon fill="white" stroke="black" points="278.5,-260.5 278.5,-281.5 385.5,-281.5 385.5,-260.5 278.5,-260.5"/>
<text text-anchor="middle" x="332" y="-268.5" font-family="Helvetica,sans-Serif" font-size="10.00">nsIDOMEventTarget</text>
</a>
</g>
<!-- Node5&#45;&gt;Node4 -->
<g id="edge8" class="edge"><title>Node5&#45;&gt;Node4</title>
<path fill="none" stroke="midnightblue" d="M332,-250.231C332,-240.592 332,-229.544 332,-221.634"/>
<polygon fill="midnightblue" stroke="midnightblue" points="328.5,-250.273 332,-260.273 335.5,-250.273 328.5,-250.273"/>
</g>
<!-- Node6 -->
<g id="node10" class="node"><title>Node6</title>
<a xlink:href="../../d4/d6a/classns_i_supports.html" target="_top" xlink:title="nsISupports">
<polygon fill="white" stroke="black" points="297.5,-320.5 297.5,-341.5 366.5,-341.5 366.5,-320.5 297.5,-320.5"/>
<text text-anchor="middle" x="332" y="-328.5" font-family="Helvetica,sans-Serif" font-size="10.00">nsISupports</text>
</a>
</g>
<!-- Node6&#45;&gt;Node5 -->
<g id="edge10" class="edge"><title>Node6&#45;&gt;Node5</title>
<path fill="none" stroke="midnightblue" d="M325.542,-310.231C324.913,-300.592 325.299,-289.544 326.701,-281.634"/>
<polygon fill="midnightblue" stroke="midnightblue" points="322.077,-310.733 326.684,-320.273 329.032,-309.942 322.077,-310.733"/>
</g>
<!-- Node6&#45;&gt;Node5 -->
<g id="edge12" class="edge"><title>Node6&#45;&gt;Node5</title>
<path fill="none" stroke="midnightblue" d="M338.458,-310.231C339.087,-300.592 338.701,-289.544 337.299,-281.634"/>
<polygon fill="midnightblue" stroke="midnightblue" points="334.968,-309.942 337.316,-320.273 341.923,-310.733 334.968,-309.942"/>
</g>
<!-- Node10 -->
<g id="node19" class="node"><title>Node10</title>
<a xlink:href="../../d9/d83/classns_i_file_storage.html" target="_top" xlink:title="nsIFileStorage">
<polygon fill="white" stroke="black" points="35,-260.5 35,-281.5 115,-281.5 115,-260.5 35,-260.5"/>
<text text-anchor="middle" x="75" y="-268.5" font-family="Helvetica,sans-Serif" font-size="10.00">nsIFileStorage</text>
</a>
</g>
<!-- Node6&#45;&gt;Node10 -->
<g id="edge22" class="edge"><title>Node6&#45;&gt;Node10</title>
<path fill="none" stroke="midnightblue" d="M287.421,-320.592C238.815,-309.245 161.738,-291.25 115.011,-280.341"/>
<polygon fill="midnightblue" stroke="midnightblue" points="286.806,-324.043 297.34,-322.908 288.397,-317.226 286.806,-324.043"/>
</g>
<!-- Node7 -->
<g id="node13" class="node"><title>Node7</title>
<a xlink:href="../../d0/d7e/classns_wrapper_cache.html" target="_top" xlink:title="nsWrapperCache">
<polygon fill="white" stroke="black" points="169,-260.5 169,-281.5 261,-281.5 261,-260.5 169,-260.5"/>
<text text-anchor="middle" x="215" y="-268.5" font-family="Helvetica,sans-Serif" font-size="10.00">nsWrapperCache</text>
</a>
</g>
<!-- Node7&#45;&gt;Node4 -->
<g id="edge14" class="edge"><title>Node7&#45;&gt;Node4</title>
<path fill="none" stroke="midnightblue" d="M244.68,-255.779C265.447,-245.13 292.674,-231.167 311.165,-221.685"/>
<polygon fill="midnightblue" stroke="midnightblue" points="242.949,-252.734 235.648,-260.411 246.143,-258.962 242.949,-252.734"/>
</g>
<!-- Node8 -->
<g id="node15" class="node"><title>Node8</title>
<a xlink:href="../../d0/d01/classns_ref_ptr.html" target="_top" xlink:title="nsRefPtr\&lt; nsEventListenerManager \&gt;">
<polygon fill="white" stroke="black" points="67,-200.5 67,-221.5 249,-221.5 249,-200.5 67,-200.5"/>
<text text-anchor="middle" x="158" y="-208.5" font-family="Helvetica,sans-Serif" font-size="10.00">nsRefPtr&lt; nsEventListenerManager &gt;</text>
</a>
</g>
<!-- Node8&#45;&gt;Node3 -->
<g id="edge16" class="edge"><title>Node8&#45;&gt;Node3</title>
<path fill="none" stroke="#9a32cd" stroke-dasharray="5,2" d="M158,-189.958C158,-174.413 158,-153.897 158,-141.618"/>
<polygon fill="#9a32cd" stroke="#9a32cd" points="154.5,-190.211 158,-200.211 161.5,-190.211 154.5,-190.211"/>
<text text-anchor="middle" x="200" y="-168.5" font-family="Helvetica,sans-Serif" font-size="10.00"> mListenerManager</text>
</g>
<!-- Node9 -->
<g id="node17" class="node"><title>Node9</title>
<a xlink:href="../../d6/dce/classns_i_offline_storage.html" target="_top" xlink:title="nsIOfflineStorage">
<polygon fill="white" stroke="black" points="0,-160.5 0,-181.5 92,-181.5 92,-160.5 0,-160.5"/>
<text text-anchor="middle" x="46" y="-168.5" font-family="Helvetica,sans-Serif" font-size="10.00">nsIOfflineStorage</text>
</a>
</g>
<!-- Node9&#45;&gt;Node1 -->
<g id="edge18" class="edge"><title>Node9&#45;&gt;Node1</title>
<path fill="none" stroke="midnightblue" d="M51.0345,-150.346C59.4286,-115.908 75.9931,-47.9514 82.3919,-21.6997"/>
<polygon fill="midnightblue" stroke="midnightblue" points="47.5873,-149.709 48.6195,-160.254 54.3881,-151.367 47.5873,-149.709"/>
</g>
<!-- Node10&#45;&gt;Node9 -->
<g id="edge20" class="edge"><title>Node10&#45;&gt;Node9</title>
<path fill="none" stroke="midnightblue" d="M67.3692,-250.525C64.2552,-241.799 60.7483,-231.468 58,-222 53.9936,-208.198 50.3615,-192.006 48.1679,-181.632"/>
<polygon fill="midnightblue" stroke="midnightblue" points="64.1839,-252.006 70.8953,-260.205 70.7611,-249.611 64.1839,-252.006"/>
</g>
</g>
</svg>
