<?xml version="1.0" encoding="UTF-8" standalone="no"?>
<!DOCTYPE svg PUBLIC "-//W3C//DTD SVG 1.1//EN"
 "http://www.w3.org/Graphics/SVG/1.1/DTD/svg11.dtd">
<!-- Generated by graphviz version 2.26.3 (20100126.1600)
 -->
<!-- Title: G Pages: 1 -->
<!--zoomable 270 -->
<svg id="main" version="1.1" xmlns="http://www.w3.org/2000/svg" xmlns:xlink="http://www.w3.org/1999/xlink" xml:space="preserve" onload="init(evt)">
        <defs>
                <circle id="rim" cx="0" cy="0" r="7"/>
                <circle id="rim2" cx="0" cy="0" r="3.5"/>
                <g id="zoomPlus">
                        <use xlink:href="#rim" fill="#404040">
                                <set attributeName="fill" to="#808080" begin="zoomplus.mouseover" end="zoomplus.mouseout"/>
                        </use>
                        <path d="M-4,0h8M0,-4v8" fill="none" stroke="white" stroke-width="1.5" pointer-events="none"/>
                </g>
                <g id="zoomMin">
                        <use xlink:href="#rim" fill="#404040">
                                <set attributeName="fill" to="#808080" begin="zoomminus.mouseover" end="zoomminus.mouseout"/>
                        </use>
                        <path d="M-4,0h8" fill="none" stroke="white" stroke-width="1.5" pointer-events="none"/>
                </g>
                <g id="dirArrow">
                        <path fill="none" stroke="white" stroke-width="1.5" d="M0,-3.0v7 M-2.5,-0.5L0,-3.0L2.5,-0.5"/>
                </g>
               <g id="resetDef">
                       <use xlink:href="#rim2" fill="#404040">
                               <set attributeName="fill" to="#808080" begin="reset.mouseover" end="reset.mouseout"/>
                       </use>
               </g>
        </defs>

<script type="text/javascript">
var viewWidth = 766;
var viewHeight = 270;
var sectionId = 'dynsection-0';
</script>
<script xlink:href="../../svgpan.js"/>
<svg id="graph" class="graph">
<g id="viewport">
<title>G</title>
<polygon fill="white" stroke="white" points="-4,5 -4,-266 763,-266 763,5 -4,5"/>
<!-- Node1 -->
<g id="node1" class="node"><title>Node1</title>
<polygon fill="#bfbfbf" stroke="black" points="624,-99.5 624,-120.5 758,-120.5 758,-99.5 624,-99.5"/>
<text text-anchor="middle" x="691" y="-107.5" font-family="Helvetica,sans-Serif" font-size="10.00">mozilla::dom::EventSource</text>
</g>
<!-- Node2 -->
<g id="node2" class="node"><title>Node2</title>
<a xlink:href="../../df/d37/classns_d_o_m_event_target_helper.html" target="_top" xlink:title="nsDOMEventTargetHelper">
<polygon fill="white" stroke="black" points="453,-199.5 453,-220.5 585,-220.5 585,-199.5 453,-199.5"/>
<text text-anchor="middle" x="519" y="-207.5" font-family="Helvetica,sans-Serif" font-size="10.00">nsDOMEventTargetHelper</text>
</a>
</g>
<!-- Node2&#45;&gt;Node1 -->
<g id="edge2" class="edge"><title>Node2&#45;&gt;Node1</title>
<path fill="none" stroke="midnightblue" d="M563.763,-195.871C572.003,-192.689 580.399,-189.04 588,-185 623.355,-166.211 660.205,-136.499 678.762,-120.702"/>
<polygon fill="midnightblue" stroke="midnightblue" points="562.39,-192.647 554.217,-199.389 564.811,-199.215 562.39,-192.647"/>
</g>
<!-- Node3 -->
<g id="node4" class="node"><title>Node3</title>
<a xlink:href="../../da/da8/classmozilla_1_1dom_1_1_event_target.html" target="_top" xlink:title="mozilla::dom::EventTarget">
<polygon fill="white" stroke="black" points="282.5,-200.5 282.5,-221.5 413.5,-221.5 413.5,-200.5 282.5,-200.5"/>
<text text-anchor="middle" x="348" y="-208.5" font-family="Helvetica,sans-Serif" font-size="10.00">mozilla::dom::EventTarget</text>
</a>
</g>
<!-- Node3&#45;&gt;Node2 -->
<g id="edge4" class="edge"><title>Node3&#45;&gt;Node2</title>
<path fill="none" stroke="midnightblue" d="M423.71,-210.557C433.469,-210.5 443.4,-210.442 452.986,-210.386"/>
<polygon fill="midnightblue" stroke="midnightblue" points="423.603,-207.058 413.624,-210.616 423.644,-214.058 423.603,-207.058"/>
</g>
<!-- Node4 -->
<g id="node6" class="node"><title>Node4</title>
<a xlink:href="../../d9/ddf/interfacens_i_d_o_m_event_target.html" target="_top" xlink:title="nsIDOMEventTarget">
<polygon fill="white" stroke="black" points="122.5,-240.5 122.5,-261.5 229.5,-261.5 229.5,-240.5 122.5,-240.5"/>
<text text-anchor="middle" x="176" y="-248.5" font-family="Helvetica,sans-Serif" font-size="10.00">nsIDOMEventTarget</text>
</a>
</g>
<!-- Node4&#45;&gt;Node3 -->
<g id="edge6" class="edge"><title>Node4&#45;&gt;Node3</title>
<path fill="none" stroke="midnightblue" d="M231.206,-238.161C254.331,-232.784 280.877,-226.61 302.813,-221.509"/>
<polygon fill="midnightblue" stroke="midnightblue" points="230.138,-234.816 221.191,-240.49 231.724,-241.634 230.138,-234.816"/>
</g>
<!-- Node5 -->
<g id="node8" class="node"><title>Node5</title>
<a xlink:href="../../d4/d6a/classns_i_supports.html" target="_top" xlink:title="nsISupports">
<polygon fill="white" stroke="black" points="0.5,-100.5 0.5,-121.5 69.5,-121.5 69.5,-100.5 0.5,-100.5"/>
<text text-anchor="middle" x="35" y="-108.5" font-family="Helvetica,sans-Serif" font-size="10.00">nsISupports</text>
</a>
</g>
<!-- Node5&#45;&gt;Node4 -->
<g id="edge8" class="edge"><title>Node5&#45;&gt;Node4</title>
<path fill="none" stroke="midnightblue" d="M44.0151,-130.967C54.623,-156.04 74.8439,-197.948 106,-222 118.706,-231.809 136.033,-236.808 150.269,-240.454"/>
<polygon fill="midnightblue" stroke="midnightblue" points="47.2223,-129.563 40.1745,-121.653 40.7509,-132.232 47.2223,-129.563"/>
</g>
<!-- Node5&#45;&gt;Node4 -->
<g id="edge10" class="edge"><title>Node5&#45;&gt;Node4</title>
<path fill="none" stroke="midnightblue" d="M39.7443,-131.459C48.5753,-160.518 69.9794,-212.193 106,-240 110.902,-243.784 116.493,-246.853 122.328,-249.278"/>
<polygon fill="midnightblue" stroke="midnightblue" points="43.0314,-130.216 36.9712,-121.526 36.2892,-132.099 43.0314,-130.216"/>
</g>
<!-- Node7 -->
<g id="node13" class="node"><title>Node7</title>
<a xlink:href="../../d5/d6a/interfacens_i_observer.html" target="_top" xlink:title="nsIObserver">
<polygon fill="white" stroke="black" points="141,-160.5 141,-181.5 211,-181.5 211,-160.5 141,-160.5"/>
<text text-anchor="middle" x="176" y="-168.5" font-family="Helvetica,sans-Serif" font-size="10.00">nsIObserver</text>
</a>
</g>
<!-- Node5&#45;&gt;Node7 -->
<g id="edge16" class="edge"><title>Node5&#45;&gt;Node7</title>
<path fill="none" stroke="midnightblue" d="M74.0057,-126.431C84.1845,-131.828 95.3052,-137.533 106,-142 123.844,-149.453 145.362,-155.142 159.789,-160.433"/>
<polygon fill="midnightblue" stroke="midnightblue" points="75.4321,-123.225 64.9618,-121.605 72.1365,-129.401 75.4321,-123.225"/>
</g>
<!-- Node5&#45;&gt;Node7 -->
<g id="edge18" class="edge"><title>Node5&#45;&gt;Node7</title>
<path fill="none" stroke="midnightblue" d="M50.2489,-128.025C64.2772,-138.828 85.8915,-151.6 106,-160 117.079,-164.628 129.576,-168.575 140.911,-171.25"/>
<polygon fill="midnightblue" stroke="midnightblue" points="52.4928,-125.339 42.5759,-121.61 48.0029,-130.709 52.4928,-125.339"/>
</g>
<!-- Node9 -->
<g id="node19" class="node"><title>Node9</title>
<a xlink:href="../../d1/dc4/interfacens_i_request_observer.html" target="_top" xlink:title="nsIRequestObserver">
<polygon fill="white" stroke="black" points="122.5,-120.5 122.5,-141.5 229.5,-141.5 229.5,-120.5 122.5,-120.5"/>
<text text-anchor="middle" x="176" y="-128.5" font-family="Helvetica,sans-Serif" font-size="10.00">nsIRequestObserver</text>
</a>
</g>
<!-- Node5&#45;&gt;Node9 -->
<g id="edge24" class="edge"><title>Node5&#45;&gt;Node9</title>
<path fill="none" stroke="midnightblue" d="M79.8329,-111.024C100.155,-113.221 123.774,-116.736 142.518,-120.407"/>
<polygon fill="midnightblue" stroke="midnightblue" points="80.152,-107.538 69.8539,-110.028 79.457,-114.504 80.152,-107.538"/>
</g>
<!-- Node5&#45;&gt;Node9 -->
<g id="edge26" class="edge"><title>Node5&#45;&gt;Node9</title>
<path fill="none" stroke="midnightblue" d="M77.9347,-123.359C91.973,-125.865 107.742,-128.204 122.462,-129.979"/>
<polygon fill="midnightblue" stroke="midnightblue" points="78.5316,-119.91 68.0582,-121.51 77.2433,-126.79 78.5316,-119.91"/>
</g>
<!-- Node10 -->
<g id="node24" class="node"><title>Node10</title>
<a xlink:href="../../d5/d15/interfacens_i_channel_event_sink.html" target="_top" xlink:title="nsIChannelEventSink">
<polygon fill="white" stroke="black" points="120.5,-80.5 120.5,-101.5 231.5,-101.5 231.5,-80.5 120.5,-80.5"/>
<text text-anchor="middle" x="176" y="-88.5" font-family="Helvetica,sans-Serif" font-size="10.00">nsIChannelEventSink</text>
</a>
</g>
<!-- Node5&#45;&gt;Node10 -->
<g id="edge32" class="edge"><title>Node5&#45;&gt;Node10</title>
<path fill="none" stroke="midnightblue" d="M77.9162,-98.6445C91.2579,-96.262 106.164,-94.0313 120.249,-92.291"/>
<polygon fill="midnightblue" stroke="midnightblue" points="77.2432,-95.2096 68.0582,-100.49 78.5316,-102.09 77.2432,-95.2096"/>
</g>
<!-- Node5&#45;&gt;Node10 -->
<g id="edge34" class="edge"><title>Node5&#45;&gt;Node10</title>
<path fill="none" stroke="midnightblue" d="M79.8329,-110.976C100.155,-108.779 123.774,-105.264 142.518,-101.593"/>
<polygon fill="midnightblue" stroke="midnightblue" points="79.457,-107.496 69.8539,-111.972 80.152,-114.462 79.457,-107.496"/>
</g>
<!-- Node11 -->
<g id="node28" class="node"><title>Node11</title>
<a xlink:href="../../df/de7/interfacens_i_interface_requestor.html" target="_top" xlink:title="nsIInterfaceRequestor">
<polygon fill="white" stroke="black" points="119.5,-40.5 119.5,-61.5 232.5,-61.5 232.5,-40.5 119.5,-40.5"/>
<text text-anchor="middle" x="176" y="-48.5" font-family="Helvetica,sans-Serif" font-size="10.00">nsIInterfaceRequestor</text>
</a>
</g>
<!-- Node5&#45;&gt;Node11 -->
<g id="edge38" class="edge"><title>Node5&#45;&gt;Node11</title>
<path fill="none" stroke="midnightblue" d="M50.2489,-93.9753C64.2772,-83.1723 85.8915,-70.3995 106,-62 110.315,-60.1975 114.845,-58.4983 119.438,-56.9373"/>
<polygon fill="midnightblue" stroke="midnightblue" points="48.0029,-91.291 42.5759,-100.39 52.4928,-96.6613 48.0029,-91.291"/>
</g>
<!-- Node5&#45;&gt;Node11 -->
<g id="edge40" class="edge"><title>Node5&#45;&gt;Node11</title>
<path fill="none" stroke="midnightblue" d="M74.0057,-95.5689C84.1845,-90.1716 95.3052,-84.4673 106,-80 123.844,-72.5465 145.362,-66.8584 159.789,-61.5666"/>
<polygon fill="midnightblue" stroke="midnightblue" points="72.1365,-92.5991 64.9618,-100.395 75.4321,-98.7749 72.1365,-92.5991"/>
</g>
<!-- Node13 -->
<g id="node34" class="node"><title>Node13</title>
<a xlink:href="../../df/dd6/interfacens_i_supports_weak_reference.html" target="_top" xlink:title="nsISupportsWeakReference">
<polygon fill="white" stroke="black" points="106,-0.5 106,-21.5 246,-21.5 246,-0.5 106,-0.5"/>
<text text-anchor="middle" x="176" y="-8.5" font-family="Helvetica,sans-Serif" font-size="10.00">nsISupportsWeakReference</text>
</a>
</g>
<!-- Node5&#45;&gt;Node13 -->
<g id="edge46" class="edge"><title>Node5&#45;&gt;Node13</title>
<path fill="none" stroke="midnightblue" d="M43.341,-91.5079C55.1234,-70.7298 78.32,-39.4163 106,-22 106.214,-21.8654 106.429,-21.7316 106.645,-21.5988"/>
<polygon fill="midnightblue" stroke="midnightblue" points="40.1752,-90.0085 38.6294,-100.49 46.3742,-93.2602 40.1752,-90.0085"/>
</g>
<!-- Node5&#45;&gt;Node13 -->
<g id="edge48" class="edge"><title>Node5&#45;&gt;Node13</title>
<path fill="none" stroke="midnightblue" d="M52.4186,-92.0983C65.2697,-75.9489 84.2509,-53.6846 106,-40 120.763,-30.7112 139.951,-25.6252 154.503,-21.5001"/>
<polygon fill="midnightblue" stroke="midnightblue" points="49.3616,-90.3237 45.9311,-100.348 54.864,-94.6509 49.3616,-90.3237"/>
</g>
<!-- Node6 -->
<g id="node11" class="node"><title>Node6</title>
<a xlink:href="../../d0/d7e/classns_wrapper_cache.html" target="_top" xlink:title="nsWrapperCache">
<polygon fill="white" stroke="black" points="130,-200.5 130,-221.5 222,-221.5 222,-200.5 130,-200.5"/>
<text text-anchor="middle" x="176" y="-208.5" font-family="Helvetica,sans-Serif" font-size="10.00">nsWrapperCache</text>
</a>
</g>
<!-- Node6&#45;&gt;Node3 -->
<g id="edge12" class="edge"><title>Node6&#45;&gt;Node3</title>
<path fill="none" stroke="midnightblue" d="M232.35,-211C248.341,-211 265.891,-211 282.38,-211"/>
<polygon fill="midnightblue" stroke="midnightblue" points="232.093,-207.5 222.093,-211 232.093,-214.5 232.093,-207.5"/>
</g>
<!-- Node7&#45;&gt;Node1 -->
<g id="edge14" class="edge"><title>Node7&#45;&gt;Node1</title>
<path fill="none" stroke="midnightblue" d="M221.414,-169.109C297.615,-165.448 455.858,-155.754 588,-134 609.016,-130.54 632.134,-125.288 651.135,-120.578"/>
<polygon fill="midnightblue" stroke="midnightblue" points="221.043,-165.622 211.218,-169.586 221.37,-172.615 221.043,-165.622"/>
</g>
<!-- Node8 -->
<g id="node17" class="node"><title>Node8</title>
<a xlink:href="../../d5/d6e/interfacens_i_stream_listener.html" target="_top" xlink:title="nsIStreamListener">
<polygon fill="white" stroke="black" points="300,-120.5 300,-141.5 396,-141.5 396,-120.5 300,-120.5"/>
<text text-anchor="middle" x="348" y="-128.5" font-family="Helvetica,sans-Serif" font-size="10.00">nsIStreamListener</text>
</a>
</g>
<!-- Node8&#45;&gt;Node1 -->
<g id="edge20" class="edge"><title>Node8&#45;&gt;Node1</title>
<path fill="none" stroke="midnightblue" d="M406.158,-127.439C466.404,-123.751 560.44,-117.993 623.821,-114.113"/>
<polygon fill="midnightblue" stroke="midnightblue" points="405.821,-123.953 396.054,-128.058 406.249,-130.94 405.821,-123.953"/>
</g>
<!-- Node9&#45;&gt;Node8 -->
<g id="edge22" class="edge"><title>Node9&#45;&gt;Node8</title>
<path fill="none" stroke="midnightblue" d="M240.108,-124.448C259.866,-124.083 281.277,-124.222 299.777,-124.866"/>
<polygon fill="midnightblue" stroke="midnightblue" points="239.866,-120.953 229.95,-124.685 240.029,-127.951 239.866,-120.953"/>
</g>
<!-- Node9&#45;&gt;Node8 -->
<g id="edge28" class="edge"><title>Node9&#45;&gt;Node8</title>
<path fill="none" stroke="midnightblue" d="M240.108,-137.552C259.866,-137.917 281.277,-137.778 299.777,-137.134"/>
<polygon fill="midnightblue" stroke="midnightblue" points="240.029,-134.049 229.95,-137.315 239.866,-141.047 240.029,-134.049"/>
</g>
<!-- Node10&#45;&gt;Node1 -->
<g id="edge30" class="edge"><title>Node10&#45;&gt;Node1</title>
<path fill="none" stroke="midnightblue" d="M241.717,-93.4245C340.099,-97.0541 524.686,-103.864 623.881,-107.524"/>
<polygon fill="midnightblue" stroke="midnightblue" points="241.726,-89.9225 231.603,-93.0514 241.467,-96.9178 241.726,-89.9225"/>
</g>
<!-- Node11&#45;&gt;Node1 -->
<g id="edge36" class="edge"><title>Node11&#45;&gt;Node1</title>
<path fill="none" stroke="midnightblue" d="M242.798,-58.1599C324.319,-66.9668 466.346,-82.5322 588,-97 599.633,-98.3835 612,-99.9026 623.976,-101.399"/>
<polygon fill="midnightblue" stroke="midnightblue" points="242.994,-54.6608 232.676,-57.0676 242.243,-61.6204 242.994,-54.6608"/>
</g>
<!-- Node12 -->
<g id="node32" class="node"><title>Node12</title>
<a xlink:href="../../d0/d50/classns_supports_weak_reference.html" target="_top" xlink:title="nsSupportsWeakReference">
<polygon fill="white" stroke="black" points="450.5,-2.5 450.5,-23.5 587.5,-23.5 587.5,-2.5 450.5,-2.5"/>
<text text-anchor="middle" x="519" y="-10.5" font-family="Helvetica,sans-Serif" font-size="10.00">nsSupportsWeakReference</text>
</a>
</g>
<!-- Node12&#45;&gt;Node1 -->
<g id="edge42" class="edge"><title>Node12&#45;&gt;Node1</title>
<path fill="none" stroke="midnightblue" d="M561.514,-27.1608C570.441,-30.6456 579.67,-34.6426 588,-39 622.448,-57.0193 659.08,-84.5521 678,-99.4846"/>
<polygon fill="midnightblue" stroke="midnightblue" points="562.595,-23.8282 552.003,-23.5877 560.133,-30.3811 562.595,-23.8282"/>
</g>
<!-- Node13&#45;&gt;Node12 -->
<g id="edge44" class="edge"><title>Node13&#45;&gt;Node12</title>
<path fill="none" stroke="midnightblue" d="M256.25,-11.4679C315.157,-11.8114 394.327,-12.273 450.319,-12.5995"/>
<polygon fill="midnightblue" stroke="midnightblue" points="256.259,-7.96802 246.239,-11.4096 256.218,-14.9679 256.259,-7.96802"/>
</g>
</g>
</svg>
        <g id="navigator" transform="translate(0 0)" fill="#404254">
                <rect fill="#f2f5e9" fill-opacity="0.5" stroke="#606060" stroke-width=".5" x="0" y="0" width="60" height="60"/>
                <use id="zoomplus" xlink:href="#zoomPlus" x="17" y="9" onmousedown="handleZoom(evt,'in')"/>
                <use id="zoomminus" xlink:href="#zoomMin" x="42" y="9" onmousedown="handleZoom(evt,'out')"/>
                <use id="reset" xlink:href="#resetDef" x="30" y="36" onmousedown="handleReset()"/>
                <g id="arrowUp" xlink:href="#dirArrow" transform="translate(30 24)" onmousedown="handlePan(0,-1)">
                  <use xlink:href="#rim" fill="#404040">
                        <set attributeName="fill" to="#808080" begin="arrowUp.mouseover" end="arrowUp.mouseout"/>
                  </use>
                  <path fill="none" stroke="white" stroke-width="1.5" d="M0,-3.0v7 M-2.5,-0.5L0,-3.0L2.5,-0.5"/>
                </g>
                <g id="arrowRight" xlink:href="#dirArrow" transform="rotate(90) translate(36 -43)" onmousedown="handlePan(1,0)">
                  <use xlink:href="#rim" fill="#404040">
                        <set attributeName="fill" to="#808080" begin="arrowRight.mouseover" end="arrowRight.mouseout"/>
                  </use>
                  <path fill="none" stroke="white" stroke-width="1.5" d="M0,-3.0v7 M-2.5,-0.5L0,-3.0L2.5,-0.5"/>
                </g>
                <g id="arrowDown" xlink:href="#dirArrow" transform="rotate(180) translate(-30 -48)" onmousedown="handlePan(0,1)">
                  <use xlink:href="#rim" fill="#404040">
                        <set attributeName="fill" to="#808080" begin="arrowDown.mouseover" end="arrowDown.mouseout"/>
                  </use>
                  <path fill="none" stroke="white" stroke-width="1.5" d="M0,-3.0v7 M-2.5,-0.5L0,-3.0L2.5,-0.5"/>
                </g>
                <g id="arrowLeft" xlink:href="#dirArrow" transform="rotate(270) translate(-36 17)" onmousedown="handlePan(-1,0)">
                  <use xlink:href="#rim" fill="#404040">
                        <set attributeName="fill" to="#808080" begin="arrowLeft.mouseover" end="arrowLeft.mouseout"/>
                  </use>
                  <path fill="none" stroke="white" stroke-width="1.5" d="M0,-3.0v7 M-2.5,-0.5L0,-3.0L2.5,-0.5"/>
                </g>
        </g>
</svg>
