<?xml version="1.0" encoding="UTF-8" standalone="no"?>
<!DOCTYPE svg PUBLIC "-//W3C//DTD SVG 1.1//EN"
 "http://www.w3.org/Graphics/SVG/1.1/DTD/svg11.dtd">
<!-- Generated by graphviz version 2.26.3 (20100126.1600)
 -->
<!-- Title: G Pages: 1 -->
<svg width="304pt" height="70pt"
 viewBox="0.00 0.00 304.00 70.00" xmlns="http://www.w3.org/2000/svg" xmlns:xlink="http://www.w3.org/1999/xlink">
<g id="graph1" class="graph" transform="scale(1 1) rotate(0) translate(4 66)">
<title>G</title>
<polygon fill="white" stroke="white" points="-4,5 -4,-66 301,-66 301,5 -4,5"/>
<!-- Node1 -->
<g id="node1" class="node"><title>Node1</title>
<polygon fill="#bfbfbf" stroke="black" points="0,-20.5 0,-41.5 84,-41.5 84,-20.5 0,-20.5"/>
<text text-anchor="middle" x="42" y="-28.5" font-family="Helvetica,sans-Serif" font-size="10.00">SkIPoint::Make</text>
</g>
<!-- Node2 -->
<g id="node3" class="node"><title>Node2</title>
<a xlink:href="../../dd/d7a/struct_sk_i_point.html#aeec2ffb6634f8d0be32f4527044d38ee" target="_top" xlink:title="SkIPoint::set">
<polygon fill="white" stroke="black" points="120,-20.5 120,-41.5 194,-41.5 194,-20.5 120,-20.5"/>
<text text-anchor="middle" x="157" y="-28.5" font-family="Helvetica,sans-Serif" font-size="10.00">SkIPoint::set</text>
</a>
</g>
<!-- Node1&#45;&gt;Node2 -->
<g id="edge2" class="edge"><title>Node1&#45;&gt;Node2</title>
<path fill="none" stroke="midnightblue" d="M84.1688,-31C92.4631,-31 101.217,-31 109.668,-31"/>
<polygon fill="midnightblue" stroke="midnightblue" points="109.775,-34.5001 119.774,-31 109.774,-27.5001 109.775,-34.5001"/>
</g>
<!-- Node3 -->
<g id="node5" class="node"><title>Node3</title>
<a xlink:href="../../dd/d7a/struct_sk_i_point.html#af688603b4776cffd17118ba7a7a47d8b" target="_top" xlink:title="SkIPoint::x">
<polygon fill="white" stroke="black" points="230.5,-40.5 230.5,-61.5 295.5,-61.5 295.5,-40.5 230.5,-40.5"/>
<text text-anchor="middle" x="263" y="-48.5" font-family="Helvetica,sans-Serif" font-size="10.00">SkIPoint::x</text>
</a>
</g>
<!-- Node2&#45;&gt;Node3 -->
<g id="edge4" class="edge"><title>Node2&#45;&gt;Node3</title>
<path fill="none" stroke="midnightblue" d="M194.074,-37.995C202.57,-39.5981 211.668,-41.3148 220.377,-42.958"/>
<polygon fill="midnightblue" stroke="midnightblue" points="219.888,-46.4273 230.363,-44.8421 221.186,-39.5486 219.888,-46.4273"/>
</g>
<!-- Node4 -->
<g id="node7" class="node"><title>Node4</title>
<a xlink:href="../../dd/d7a/struct_sk_i_point.html#aa6001494f26a1105b32b3ecf6a371f2b" target="_top" xlink:title="SkIPoint::y">
<polygon fill="white" stroke="black" points="230.5,-0.5 230.5,-21.5 295.5,-21.5 295.5,-0.5 230.5,-0.5"/>
<text text-anchor="middle" x="263" y="-8.5" font-family="Helvetica,sans-Serif" font-size="10.00">SkIPoint::y</text>
</a>
</g>
<!-- Node2&#45;&gt;Node4 -->
<g id="edge6" class="edge"><title>Node2&#45;&gt;Node4</title>
<path fill="none" stroke="midnightblue" d="M194.074,-24.005C202.57,-22.4019 211.668,-20.6852 220.377,-19.042"/>
<polygon fill="midnightblue" stroke="midnightblue" points="221.186,-22.4514 230.363,-17.1579 219.888,-15.5727 221.186,-22.4514"/>
</g>
</g>
</svg>
