<?xml version="1.0" encoding="UTF-8" standalone="no"?>
<!DOCTYPE svg PUBLIC "-//W3C//DTD SVG 1.1//EN"
 "http://www.w3.org/Graphics/SVG/1.1/DTD/svg11.dtd">
<!-- Generated by graphviz version 2.26.3 (20100126.1600)
 -->
<!-- Title: G Pages: 1 -->
<svg width="302pt" height="150pt"
 viewBox="0.00 0.00 302.00 150.00" xmlns="http://www.w3.org/2000/svg" xmlns:xlink="http://www.w3.org/1999/xlink">
<g id="graph1" class="graph" transform="scale(1 1) rotate(0) translate(4 146)">
<title>G</title>
<polygon fill="white" stroke="white" points="-4,5 -4,-146 299,-146 299,5 -4,5"/>
<!-- Node1 -->
<g id="node1" class="node"><title>Node1</title>
<polygon fill="#bfbfbf" stroke="black" points="0,-60.5 0,-81.5 104,-81.5 104,-60.5 0,-60.5"/>
<text text-anchor="middle" x="52" y="-68.5" font-family="Helvetica,sans-Serif" font-size="10.00">js::SetReservedSlot</text>
</g>
<!-- Node2 -->
<g id="node3" class="node"><title>Node2</title>
<a xlink:href="../../db/da2/namespacejs.html#aca7ef07fd5e632405949331c6929f1e6" target="_top" xlink:title="js::GetObjectClass">
<polygon fill="white" stroke="black" points="167,-120.5 167,-141.5 267,-141.5 267,-120.5 167,-120.5"/>
<text text-anchor="middle" x="217" y="-128.5" font-family="Helvetica,sans-Serif" font-size="10.00">js::GetObjectClass</text>
</a>
</g>
<!-- Node1&#45;&gt;Node2 -->
<g id="edge2" class="edge"><title>Node1&#45;&gt;Node2</title>
<path fill="none" stroke="midnightblue" d="M72.5632,-81.5721C90.1372,-90.3077 116.271,-102.596 140,-111 146.803,-113.409 154.036,-115.668 161.241,-117.738"/>
<polygon fill="midnightblue" stroke="midnightblue" points="160.434,-121.146 171.005,-120.439 162.3,-114.399 160.434,-121.146"/>
</g>
<!-- Node3 -->
<g id="node5" class="node"><title>Node3</title>
<a xlink:href="../../d1/d94/class_j_s_1_1_value.html#a394deb436e9afd28270b8154c146601b" target="_top" xlink:title="JS::Value::isMarkable">
<polygon fill="white" stroke="black" points="160.5,-80.5 160.5,-101.5 273.5,-101.5 273.5,-80.5 160.5,-80.5"/>
<text text-anchor="middle" x="217" y="-88.5" font-family="Helvetica,sans-Serif" font-size="10.00">JS::Value::isMarkable</text>
</a>
</g>
<!-- Node1&#45;&gt;Node3 -->
<g id="edge4" class="edge"><title>Node1&#45;&gt;Node3</title>
<path fill="none" stroke="midnightblue" d="M104.207,-77.3281C118.845,-79.1024 134.96,-81.0558 150.316,-82.9171"/>
<polygon fill="midnightblue" stroke="midnightblue" points="149.926,-86.3953 160.274,-84.1241 150.768,-79.4462 149.926,-86.3953"/>
</g>
<!-- Node4 -->
<g id="node7" class="node"><title>Node4</title>
<a xlink:href="../../db/da2/namespacejs.html#a21ea0b1c53f526ee2ca6ebb1b3847b93" target="_top" xlink:title="js::SetReservedSlotWithBarrier">
<polygon fill="white" stroke="black" points="140.5,-40.5 140.5,-61.5 293.5,-61.5 293.5,-40.5 140.5,-40.5"/>
<text text-anchor="middle" x="217" y="-48.5" font-family="Helvetica,sans-Serif" font-size="10.00">js::SetReservedSlotWithBarrier</text>
</a>
</g>
<!-- Node1&#45;&gt;Node4 -->
<g id="edge6" class="edge"><title>Node1&#45;&gt;Node4</title>
<path fill="none" stroke="midnightblue" d="M104.207,-64.6719C112.576,-63.6575 121.428,-62.5845 130.345,-61.5037"/>
<polygon fill="midnightblue" stroke="midnightblue" points="130.911,-64.9607 140.417,-60.2828 130.069,-58.0116 130.911,-64.9607"/>
</g>
<!-- Node5 -->
<g id="node9" class="node"><title>Node5</title>
<a xlink:href="../../d6/db5/structjs_1_1shadow_1_1_object.html#ac90754b4c064aada31bb8ff82e9ed4ae" target="_top" xlink:title="js::shadow::Object::slotRef">
<polygon fill="white" stroke="black" points="149,-0.5 149,-21.5 285,-21.5 285,-0.5 149,-0.5"/>
<text text-anchor="middle" x="217" y="-8.5" font-family="Helvetica,sans-Serif" font-size="10.00">js::shadow::Object::slotRef</text>
</a>
</g>
<!-- Node1&#45;&gt;Node5 -->
<g id="edge8" class="edge"><title>Node1&#45;&gt;Node5</title>
<path fill="none" stroke="midnightblue" d="M72.5632,-60.4279C90.1372,-51.6923 116.271,-39.4038 140,-31 146.803,-28.5908 154.036,-26.3319 161.241,-24.2623"/>
<polygon fill="midnightblue" stroke="midnightblue" points="162.3,-27.6008 171.005,-21.5611 160.434,-20.8542 162.3,-27.6008"/>
</g>
</g>
</svg>
