<?xml version="1.0" encoding="UTF-8" standalone="no"?>
<!DOCTYPE svg PUBLIC "-//W3C//DTD SVG 1.1//EN"
 "http://www.w3.org/Graphics/SVG/1.1/DTD/svg11.dtd">
<!-- Generated by graphviz version 2.26.3 (20100126.1600)
 -->
<!-- Title: G Pages: 1 -->
<!--zoomable 150 -->
<svg id="main" version="1.1" xmlns="http://www.w3.org/2000/svg" xmlns:xlink="http://www.w3.org/1999/xlink" xml:space="preserve" onload="init(evt)">
        <defs>
                <circle id="rim" cx="0" cy="0" r="7"/>
                <circle id="rim2" cx="0" cy="0" r="3.5"/>
                <g id="zoomPlus">
                        <use xlink:href="#rim" fill="#404040">
                                <set attributeName="fill" to="#808080" begin="zoomplus.mouseover" end="zoomplus.mouseout"/>
                        </use>
                        <path d="M-4,0h8M0,-4v8" fill="none" stroke="white" stroke-width="1.5" pointer-events="none"/>
                </g>
                <g id="zoomMin">
                        <use xlink:href="#rim" fill="#404040">
                                <set attributeName="fill" to="#808080" begin="zoomminus.mouseover" end="zoomminus.mouseout"/>
                        </use>
                        <path d="M-4,0h8" fill="none" stroke="white" stroke-width="1.5" pointer-events="none"/>
                </g>
                <g id="dirArrow">
                        <path fill="none" stroke="white" stroke-width="1.5" d="M0,-3.0v7 M-2.5,-0.5L0,-3.0L2.5,-0.5"/>
                </g>
               <g id="resetDef">
                       <use xlink:href="#rim2" fill="#404040">
                               <set attributeName="fill" to="#808080" begin="reset.mouseover" end="reset.mouseout"/>
                       </use>
               </g>
        </defs>

<script type="text/javascript">
var viewWidth = 572;
var viewHeight = 150;
var sectionId = 'dynsection-58';
</script>
<script xlink:href="../../svgpan.js"/>
<svg id="graph" class="graph">
<g id="viewport">
<title>G</title>
<polygon fill="white" stroke="white" points="-4,5 -4,-146 569,-146 569,5 -4,5"/>
<!-- Node1 -->
<g id="node1" class="node"><title>Node1</title>
<polygon fill="#bfbfbf" stroke="black" points="0,-60.5 0,-81.5 104,-81.5 104,-60.5 0,-60.5"/>
<text text-anchor="middle" x="52" y="-68.5" font-family="Helvetica,sans-Serif" font-size="10.00">js::SetReservedSlot</text>
</g>
<!-- Node2 -->
<g id="node3" class="node"><title>Node2</title>
<a xlink:href="../../d7/d4b/namespacemozilla_1_1dom.html#ad75f6ee2b79c1ef2da537b9e2f2681cb" target="_top" xlink:title="mozilla::dom::AllocateProtoAndIfaceCache">
<polygon fill="white" stroke="black" points="140,-120.5 140,-141.5 344,-141.5 344,-120.5 140,-120.5"/>
<text text-anchor="middle" x="242" y="-128.5" font-family="Helvetica,sans-Serif" font-size="10.00">mozilla::dom::AllocateProtoAndIfaceCache</text>
</a>
</g>
<!-- Node1&#45;&gt;Node2 -->
<g id="edge2" class="edge"><title>Node1&#45;&gt;Node2</title>
<path fill="none" stroke="midnightblue" d="M81.0297,-86.2673C97.866,-94.5908 119.694,-104.493 140,-111 151.6,-114.717 164.174,-117.865 176.402,-120.484"/>
<polygon fill="midnightblue" stroke="midnightblue" points="82.2479,-82.962 71.7427,-81.5866 79.0973,-89.2129 82.2479,-82.962"/>
</g>
<!-- Node3 -->
<g id="node5" class="node"><title>Node3</title>
<a xlink:href="../../db/da2/namespacejs.html#a5f8c60993264aec5525a16e4e2a8482e" target="_top" xlink:title="js::SetProxyExtra">
<polygon fill="white" stroke="black" points="195,-80.5 195,-101.5 289,-101.5 289,-80.5 195,-80.5"/>
<text text-anchor="middle" x="242" y="-88.5" font-family="Helvetica,sans-Serif" font-size="10.00">js::SetProxyExtra</text>
</a>
</g>
<!-- Node1&#45;&gt;Node3 -->
<g id="edge4" class="edge"><title>Node1&#45;&gt;Node3</title>
<path fill="none" stroke="midnightblue" d="M114.377,-77.566C140.564,-80.3226 170.516,-83.4754 194.819,-86.0336"/>
<polygon fill="midnightblue" stroke="midnightblue" points="114.481,-74.0577 104.17,-76.4915 113.748,-81.0192 114.481,-74.0577"/>
</g>
<!-- Node4 -->
<g id="node7" class="node"><title>Node4</title>
<a xlink:href="../../db/da2/namespacejs.html#afedb27dda234842c300dc78067f95404" target="_top" xlink:title="js::SetProxyHandler">
<polygon fill="white" stroke="black" points="190,-40.5 190,-61.5 294,-61.5 294,-40.5 190,-40.5"/>
<text text-anchor="middle" x="242" y="-48.5" font-family="Helvetica,sans-Serif" font-size="10.00">js::SetProxyHandler</text>
</a>
</g>
<!-- Node1&#45;&gt;Node4 -->
<g id="edge6" class="edge"><title>Node1&#45;&gt;Node4</title>
<path fill="none" stroke="midnightblue" d="M114.426,-64.4289C138.876,-61.8551 166.603,-58.9366 189.947,-56.4793"/>
<polygon fill="midnightblue" stroke="midnightblue" points="113.748,-60.9808 104.17,-65.5085 114.481,-67.9423 113.748,-60.9808"/>
</g>
<!-- Node5 -->
<g id="node9" class="node"><title>Node5</title>
<a xlink:href="../../d7/d4b/namespacemozilla_1_1dom.html#a286d8c89f870165a86fe3c9bed73cf63" target="_top" xlink:title="mozilla::dom::SetSystemOnlyWrapperSlot">
<polygon fill="white" stroke="black" points="141.5,-0.5 141.5,-21.5 342.5,-21.5 342.5,-0.5 141.5,-0.5"/>
<text text-anchor="middle" x="242" y="-8.5" font-family="Helvetica,sans-Serif" font-size="10.00">mozilla::dom::SetSystemOnlyWrapperSlot</text>
</a>
</g>
<!-- Node1&#45;&gt;Node5 -->
<g id="edge8" class="edge"><title>Node1&#45;&gt;Node5</title>
<path fill="none" stroke="midnightblue" d="M81.0297,-55.7327C97.866,-47.4092 119.694,-37.5075 140,-31 151.6,-27.2827 164.174,-24.1353 176.402,-21.5156"/>
<polygon fill="midnightblue" stroke="midnightblue" points="79.0973,-52.7871 71.7427,-60.4134 82.2479,-59.038 79.0973,-52.7871"/>
</g>
<!-- Node6 -->
<g id="node11" class="node"><title>Node6</title>
<a xlink:href="../../d7/d4b/namespacemozilla_1_1dom.html#a177f8acab149bb17211be401ceb034da" target="_top" xlink:title="mozilla::dom::SetSystemOnlyWrapper">
<polygon fill="white" stroke="black" points="380,-0.5 380,-21.5 564,-21.5 564,-0.5 380,-0.5"/>
<text text-anchor="middle" x="472" y="-8.5" font-family="Helvetica,sans-Serif" font-size="10.00">mozilla::dom::SetSystemOnlyWrapper</text>
</a>
</g>
<!-- Node5&#45;&gt;Node6 -->
<g id="edge10" class="edge"><title>Node5&#45;&gt;Node6</title>
<path fill="none" stroke="midnightblue" d="M352.799,-11C361.904,-11 371.044,-11 379.991,-11"/>
<polygon fill="midnightblue" stroke="midnightblue" points="352.547,-7.5001 342.547,-11 352.547,-14.5001 352.547,-7.5001"/>
</g>
</g>
</svg>
        <g id="navigator" transform="translate(0 0)" fill="#404254">
                <rect fill="#f2f5e9" fill-opacity="0.5" stroke="#606060" stroke-width=".5" x="0" y="0" width="60" height="60"/>
                <use id="zoomplus" xlink:href="#zoomPlus" x="17" y="9" onmousedown="handleZoom(evt,'in')"/>
                <use id="zoomminus" xlink:href="#zoomMin" x="42" y="9" onmousedown="handleZoom(evt,'out')"/>
                <use id="reset" xlink:href="#resetDef" x="30" y="36" onmousedown="handleReset()"/>
                <g id="arrowUp" xlink:href="#dirArrow" transform="translate(30 24)" onmousedown="handlePan(0,-1)">
                  <use xlink:href="#rim" fill="#404040">
                        <set attributeName="fill" to="#808080" begin="arrowUp.mouseover" end="arrowUp.mouseout"/>
                  </use>
                  <path fill="none" stroke="white" stroke-width="1.5" d="M0,-3.0v7 M-2.5,-0.5L0,-3.0L2.5,-0.5"/>
                </g>
                <g id="arrowRight" xlink:href="#dirArrow" transform="rotate(90) translate(36 -43)" onmousedown="handlePan(1,0)">
                  <use xlink:href="#rim" fill="#404040">
                        <set attributeName="fill" to="#808080" begin="arrowRight.mouseover" end="arrowRight.mouseout"/>
                  </use>
                  <path fill="none" stroke="white" stroke-width="1.5" d="M0,-3.0v7 M-2.5,-0.5L0,-3.0L2.5,-0.5"/>
                </g>
                <g id="arrowDown" xlink:href="#dirArrow" transform="rotate(180) translate(-30 -48)" onmousedown="handlePan(0,1)">
                  <use xlink:href="#rim" fill="#404040">
                        <set attributeName="fill" to="#808080" begin="arrowDown.mouseover" end="arrowDown.mouseout"/>
                  </use>
                  <path fill="none" stroke="white" stroke-width="1.5" d="M0,-3.0v7 M-2.5,-0.5L0,-3.0L2.5,-0.5"/>
                </g>
                <g id="arrowLeft" xlink:href="#dirArrow" transform="rotate(270) translate(-36 17)" onmousedown="handlePan(-1,0)">
                  <use xlink:href="#rim" fill="#404040">
                        <set attributeName="fill" to="#808080" begin="arrowLeft.mouseover" end="arrowLeft.mouseout"/>
                  </use>
                  <path fill="none" stroke="white" stroke-width="1.5" d="M0,-3.0v7 M-2.5,-0.5L0,-3.0L2.5,-0.5"/>
                </g>
        </g>
</svg>
