<?xml version="1.0" encoding="UTF-8" standalone="no"?>
<!DOCTYPE svg PUBLIC "-//W3C//DTD SVG 1.1//EN"
 "http://www.w3.org/Graphics/SVG/1.1/DTD/svg11.dtd">
<!-- Generated by graphviz version 2.26.3 (20100126.1600)
 -->
<!-- Title: G Pages: 1 -->
<svg width="488pt" height="150pt"
 viewBox="0.00 0.00 488.00 150.00" xmlns="http://www.w3.org/2000/svg" xmlns:xlink="http://www.w3.org/1999/xlink">
<g id="graph1" class="graph" transform="scale(1 1) rotate(0) translate(4 146)">
<title>G</title>
<polygon fill="white" stroke="white" points="-4,5 -4,-146 485,-146 485,5 -4,5"/>
<!-- Node1 -->
<g id="node1" class="node"><title>Node1</title>
<polygon fill="#bfbfbf" stroke="black" points="0,-99.5 0,-120.5 116,-120.5 116,-99.5 0,-99.5"/>
<text text-anchor="middle" x="58" y="-107.5" font-family="Helvetica,sans-Serif" font-size="10.00">nsWritingIterator::write</text>
</g>
<!-- Node2 -->
<g id="node3" class="node"><title>Node2</title>
<a xlink:href="../../dc/d8e/classns_writing_iterator.html#a5ad3635e3155f444999105247444e64f" target="_top" xlink:title="nsWritingIterator::advance">
<polygon fill="white" stroke="black" points="152.5,-80.5 152.5,-101.5 283.5,-101.5 283.5,-80.5 152.5,-80.5"/>
<text text-anchor="middle" x="218" y="-88.5" font-family="Helvetica,sans-Serif" font-size="10.00">nsWritingIterator::advance</text>
</a>
</g>
<!-- Node1&#45;&gt;Node2 -->
<g id="edge2" class="edge"><title>Node1&#45;&gt;Node2</title>
<path fill="none" stroke="midnightblue" d="M116.216,-103.087C124.629,-102.088 133.39,-101.047 142.087,-100.015"/>
<polygon fill="midnightblue" stroke="midnightblue" points="142.723,-103.464 152.241,-98.8089 141.898,-96.5126 142.723,-103.464"/>
</g>
<!-- Node4 -->
<g id="node7" class="node"><title>Node4</title>
<a xlink:href="../../dc/d8e/classns_writing_iterator.html#a09c12a0f9295da49c557f38f81e4169e" target="_top" xlink:title="nsWritingIterator::size_forward">
<polygon fill="white" stroke="black" points="325,-120.5 325,-141.5 475,-141.5 475,-120.5 325,-120.5"/>
<text text-anchor="middle" x="400" y="-128.5" font-family="Helvetica,sans-Serif" font-size="10.00">nsWritingIterator::size_forward</text>
</a>
</g>
<!-- Node1&#45;&gt;Node4 -->
<g id="edge12" class="edge"><title>Node1&#45;&gt;Node4</title>
<path fill="none" stroke="midnightblue" d="M116.016,-113.562C170.534,-116.91 252.786,-121.961 314.76,-125.766"/>
<polygon fill="midnightblue" stroke="midnightblue" points="314.718,-129.27 324.914,-126.389 315.147,-122.283 314.718,-129.27"/>
</g>
<!-- Node3 -->
<g id="node5" class="node"><title>Node3</title>
<a xlink:href="../../dc/d8e/classns_writing_iterator.html#a21c60fdc85c7ba625b63c202954eb481" target="_top" xlink:title="nsWritingIterator::size_backward">
<polygon fill="white" stroke="black" points="320,-80.5 320,-101.5 480,-101.5 480,-80.5 320,-80.5"/>
<text text-anchor="middle" x="400" y="-88.5" font-family="Helvetica,sans-Serif" font-size="10.00">nsWritingIterator::size_backward</text>
</a>
</g>
<!-- Node2&#45;&gt;Node3 -->
<g id="edge4" class="edge"><title>Node2&#45;&gt;Node3</title>
<path fill="none" stroke="midnightblue" d="M283.706,-91C292.122,-91 300.852,-91 309.574,-91"/>
<polygon fill="midnightblue" stroke="midnightblue" points="309.791,-94.5001 319.791,-91 309.791,-87.5001 309.791,-94.5001"/>
</g>
<!-- Node2&#45;&gt;Node4 -->
<g id="edge6" class="edge"><title>Node2&#45;&gt;Node4</title>
<path fill="none" stroke="midnightblue" d="M265.818,-101.51C289.237,-106.657 317.624,-112.895 342.246,-118.307"/>
<polygon fill="midnightblue" stroke="midnightblue" points="341.667,-121.763 352.185,-120.491 343.17,-114.926 341.667,-121.763"/>
</g>
<!-- Node5 -->
<g id="node9" class="node"><title>Node5</title>
<a xlink:href="../../d6/dbf/ns_algorithm_8h.html#a3c34307d0aa001b6fa838cbfb9e59efa" target="_top" xlink:title="XPCOM_MAX">
<polygon fill="white" stroke="black" points="360,-40.5 360,-61.5 440,-61.5 440,-40.5 360,-40.5"/>
<text text-anchor="middle" x="400" y="-48.5" font-family="Helvetica,sans-Serif" font-size="10.00">XPCOM_MAX</text>
</a>
</g>
<!-- Node2&#45;&gt;Node5 -->
<g id="edge8" class="edge"><title>Node2&#45;&gt;Node5</title>
<path fill="none" stroke="midnightblue" d="M265.818,-80.4905C291.666,-74.8097 323.564,-67.799 349.774,-62.0387"/>
<polygon fill="midnightblue" stroke="midnightblue" points="350.868,-65.3819 359.883,-59.8168 349.365,-58.5451 350.868,-65.3819"/>
</g>
<!-- Node6 -->
<g id="node11" class="node"><title>Node6</title>
<a xlink:href="../../d6/dbf/ns_algorithm_8h.html#aa8c38b22f99b4a73606f7d4f0d093646" target="_top" xlink:title="XPCOM_MIN">
<polygon fill="white" stroke="black" points="361.5,-0.5 361.5,-21.5 438.5,-21.5 438.5,-0.5 361.5,-0.5"/>
<text text-anchor="middle" x="400" y="-8.5" font-family="Helvetica,sans-Serif" font-size="10.00">XPCOM_MIN</text>
</a>
</g>
<!-- Node2&#45;&gt;Node6 -->
<g id="edge10" class="edge"><title>Node2&#45;&gt;Node6</title>
<path fill="none" stroke="midnightblue" d="M232.84,-80.4128C252.088,-67.1279 287.104,-44.4587 320,-31 329.941,-26.9329 340.926,-23.532 351.489,-20.756"/>
<polygon fill="midnightblue" stroke="midnightblue" points="352.579,-24.0919 361.44,-18.2846 350.891,-17.2982 352.579,-24.0919"/>
</g>
</g>
</svg>
