<?xml version="1.0" encoding="UTF-8" standalone="no"?>
<!DOCTYPE svg PUBLIC "-//W3C//DTD SVG 1.1//EN"
 "http://www.w3.org/Graphics/SVG/1.1/DTD/svg11.dtd">
<!-- Generated by graphviz version 2.26.3 (20100126.1600)
 -->
<!-- Title: G Pages: 1 -->
<svg width="292pt" height="110pt"
 viewBox="0.00 0.00 292.00 110.00" xmlns="http://www.w3.org/2000/svg" xmlns:xlink="http://www.w3.org/1999/xlink">
<g id="graph1" class="graph" transform="scale(1 1) rotate(0) translate(4 106)">
<title>G</title>
<polygon fill="white" stroke="white" points="-4,5 -4,-106 289,-106 289,5 -4,5"/>
<!-- Node1 -->
<g id="node1" class="node"><title>Node1</title>
<polygon fill="#bfbfbf" stroke="black" points="0,-40.5 0,-61.5 108,-61.5 108,-40.5 0,-40.5"/>
<text text-anchor="middle" x="54" y="-48.5" font-family="Helvetica,sans-Serif" font-size="10.00">nsWritingIterator::get</text>
</g>
<!-- Node2 -->
<g id="node3" class="node"><title>Node2</title>
<a xlink:href="../../df/d7d/classxpidl_1_1_builtin_location.html#a695d8c1b7c51a03609e41e8c8d4f19f1" target="_top" xlink:title="xpidl.BuiltinLocation.__str__">
<polygon fill="white" stroke="black" points="144.5,-80.5 144.5,-101.5 283.5,-101.5 283.5,-80.5 144.5,-80.5"/>
<text text-anchor="middle" x="214" y="-88.5" font-family="Helvetica,sans-Serif" font-size="10.00">xpidl.BuiltinLocation.__str__</text>
</a>
</g>
<!-- Node1&#45;&gt;Node2 -->
<g id="edge2" class="edge"><title>Node1&#45;&gt;Node2</title>
<path fill="none" stroke="midnightblue" d="M105.934,-63.9835C127.308,-69.3271 151.743,-75.4358 171.965,-80.4913"/>
<polygon fill="midnightblue" stroke="midnightblue" points="106.588,-60.5395 96.0381,-61.5095 104.891,-67.3305 106.588,-60.5395"/>
</g>
<!-- Node3 -->
<g id="node5" class="node"><title>Node3</title>
<a xlink:href="../../dd/dbc/ns_string_iterator_8h.html#ab4d5f45c1ef6117e615ccf6093731f0b" target="_top" xlink:title="operator!=">
<polygon fill="white" stroke="black" points="183.5,-40.5 183.5,-61.5 244.5,-61.5 244.5,-40.5 183.5,-40.5"/>
<text text-anchor="middle" x="214" y="-48.5" font-family="Helvetica,sans-Serif" font-size="10.00">operator!=</text>
</a>
</g>
<!-- Node1&#45;&gt;Node3 -->
<g id="edge4" class="edge"><title>Node1&#45;&gt;Node3</title>
<path fill="none" stroke="midnightblue" d="M118.312,-51C140.707,-51 164.809,-51 183.221,-51"/>
<polygon fill="midnightblue" stroke="midnightblue" points="118.169,-47.5001 108.169,-51 118.169,-54.5001 118.169,-47.5001"/>
</g>
<!-- Node4 -->
<g id="node7" class="node"><title>Node4</title>
<a xlink:href="../../dd/dbc/ns_string_iterator_8h.html#a9b6e3ba5cd96db8f4d411c456812bde8" target="_top" xlink:title="operator==">
<polygon fill="white" stroke="black" points="182,-0.5 182,-21.5 246,-21.5 246,-0.5 182,-0.5"/>
<text text-anchor="middle" x="214" y="-8.5" font-family="Helvetica,sans-Serif" font-size="10.00">operator==</text>
</a>
</g>
<!-- Node1&#45;&gt;Node4 -->
<g id="edge6" class="edge"><title>Node1&#45;&gt;Node4</title>
<path fill="none" stroke="midnightblue" d="M105.756,-38.0609C130.791,-31.8023 160.059,-24.4854 181.844,-19.039"/>
<polygon fill="midnightblue" stroke="midnightblue" points="104.891,-34.6695 96.0381,-40.4905 106.588,-41.4605 104.891,-34.6695"/>
</g>
</g>
</svg>
