<?xml version="1.0" encoding="UTF-8" standalone="no"?>
<!DOCTYPE svg PUBLIC "-//W3C//DTD SVG 1.1//EN"
 "http://www.w3.org/Graphics/SVG/1.1/DTD/svg11.dtd">
<!-- Generated by graphviz version 2.26.3 (20100126.1600)
 -->
<!-- Title: G Pages: 1 -->
<svg width="224pt" height="262pt"
 viewBox="0.00 0.00 224.00 262.00" xmlns="http://www.w3.org/2000/svg" xmlns:xlink="http://www.w3.org/1999/xlink">
<g id="graph1" class="graph" transform="scale(1 1) rotate(0) translate(4 258)">
<title>G</title>
<polygon fill="white" stroke="white" points="-4,5 -4,-258 221,-258 221,5 -4,5"/>
<!-- Node1 -->
<g id="node1" class="node"><title>Node1</title>
<polygon fill="#bfbfbf" stroke="black" points="-0.5,-232.5 -0.5,-253.5 216.5,-253.5 216.5,-232.5 -0.5,-232.5"/>
<text text-anchor="middle" x="108" y="-240.5" font-family="Helvetica,sans-Serif" font-size="10.00">nsAutoRefTraits&lt; nsMainThreadSurfaceRef &gt;</text>
</g>
<!-- Node2 -->
<g id="node3" class="node"><title>Node2</title>
<a xlink:href="../../d2/de0/classns_simple_ref.html" target="_top" xlink:title="nsSimpleRef\&lt; nsMainThreadSurfaceRef \&gt;">
<polygon fill="white" stroke="black" points="7,-174.5 7,-195.5 209,-195.5 209,-174.5 7,-174.5"/>
<text text-anchor="middle" x="108" y="-182.5" font-family="Helvetica,sans-Serif" font-size="10.00">nsSimpleRef&lt; nsMainThreadSurfaceRef &gt;</text>
</a>
</g>
<!-- Node1&#45;&gt;Node2 -->
<g id="edge2" class="edge"><title>Node1&#45;&gt;Node2</title>
<path fill="none" stroke="darkgreen" d="M108,-222.191C108,-213.168 108,-202.994 108,-195.571"/>
<polygon fill="darkgreen" stroke="darkgreen" points="104.5,-222.362 108,-232.362 111.5,-222.362 104.5,-222.362"/>
</g>
<!-- Node3 -->
<g id="node5" class="node"><title>Node3</title>
<a xlink:href="../../d0/d1d/classns_auto_ref_base.html" target="_top" xlink:title="nsAutoRefBase\&lt; nsMainThreadSurfaceRef \&gt;">
<polygon fill="white" stroke="black" points="0.5,-116.5 0.5,-137.5 215.5,-137.5 215.5,-116.5 0.5,-116.5"/>
<text text-anchor="middle" x="108" y="-124.5" font-family="Helvetica,sans-Serif" font-size="10.00">nsAutoRefBase&lt; nsMainThreadSurfaceRef &gt;</text>
</a>
</g>
<!-- Node2&#45;&gt;Node3 -->
<g id="edge4" class="edge"><title>Node2&#45;&gt;Node3</title>
<path fill="none" stroke="midnightblue" d="M108,-164.191C108,-155.168 108,-144.994 108,-137.571"/>
<polygon fill="midnightblue" stroke="midnightblue" points="104.5,-164.362 108,-174.362 111.5,-164.362 104.5,-164.362"/>
</g>
<!-- Node4 -->
<g id="node7" class="node"><title>Node4</title>
<a xlink:href="../../df/d3e/classns_auto_ref.html" target="_top" xlink:title="nsAutoRef\&lt; nsMainThreadSurfaceRef \&gt;">
<polygon fill="white" stroke="black" points="12,-58.5 12,-79.5 204,-79.5 204,-58.5 12,-58.5"/>
<text text-anchor="middle" x="108" y="-66.5" font-family="Helvetica,sans-Serif" font-size="10.00">nsAutoRef&lt; nsMainThreadSurfaceRef &gt;</text>
</a>
</g>
<!-- Node3&#45;&gt;Node4 -->
<g id="edge6" class="edge"><title>Node3&#45;&gt;Node4</title>
<path fill="none" stroke="midnightblue" d="M108,-106.191C108,-97.1684 108,-86.9941 108,-79.5707"/>
<polygon fill="midnightblue" stroke="midnightblue" points="104.5,-106.362 108,-116.362 111.5,-106.362 104.5,-106.362"/>
</g>
<!-- Node5 -->
<g id="node9" class="node"><title>Node5</title>
<a xlink:href="../../d7/dcb/classns_counted_ref.html" target="_top" xlink:title="nsCountedRef\&lt; nsMainThreadSurfaceRef \&gt;">
<polygon fill="white" stroke="black" points="3.5,-0.5 3.5,-21.5 212.5,-21.5 212.5,-0.5 3.5,-0.5"/>
<text text-anchor="middle" x="108" y="-8.5" font-family="Helvetica,sans-Serif" font-size="10.00">nsCountedRef&lt; nsMainThreadSurfaceRef &gt;</text>
</a>
</g>
<!-- Node4&#45;&gt;Node5 -->
<g id="edge8" class="edge"><title>Node4&#45;&gt;Node5</title>
<path fill="none" stroke="midnightblue" d="M108,-48.1906C108,-39.1684 108,-28.9941 108,-21.5707"/>
<polygon fill="midnightblue" stroke="midnightblue" points="104.5,-48.3619 108,-58.3619 111.5,-48.3619 104.5,-48.3619"/>
</g>
</g>
</svg>
