<?xml version="1.0" encoding="UTF-8" standalone="no"?>
<!DOCTYPE svg PUBLIC "-//W3C//DTD SVG 1.1//EN"
 "http://www.w3.org/Graphics/SVG/1.1/DTD/svg11.dtd">
<!-- Generated by graphviz version 2.26.3 (20100126.1600)
 -->
<!-- Title: G Pages: 1 -->
<svg width="182pt" height="262pt"
 viewBox="0.00 0.00 182.00 262.00" xmlns="http://www.w3.org/2000/svg" xmlns:xlink="http://www.w3.org/1999/xlink">
<g id="graph1" class="graph" transform="scale(1 1) rotate(0) translate(4 258)">
<title>G</title>
<polygon fill="white" stroke="white" points="-4,5 -4,-258 179,-258 179,5 -4,5"/>
<!-- Node1 -->
<g id="node1" class="node"><title>Node1</title>
<polygon fill="#bfbfbf" stroke="black" points="35.5,-174.5 35.5,-195.5 138.5,-195.5 138.5,-174.5 35.5,-174.5"/>
<text text-anchor="middle" x="87" y="-182.5" font-family="Helvetica,sans-Serif" font-size="10.00">nsIAccessibleValue</text>
</g>
<!-- Node3 -->
<g id="node6" class="node"><title>Node3</title>
<a xlink:href="../../db/d0f/classmozilla_1_1a11y_1_1_accessible.html" target="_top" xlink:title="mozilla::a11y::Accessible">
<polygon fill="white" stroke="black" points="23,-116.5 23,-137.5 151,-137.5 151,-116.5 23,-116.5"/>
<text text-anchor="middle" x="87" y="-124.5" font-family="Helvetica,sans-Serif" font-size="10.00">mozilla::a11y::Accessible</text>
</a>
</g>
<!-- Node1&#45;&gt;Node3 -->
<g id="edge6" class="edge"><title>Node1&#45;&gt;Node3</title>
<path fill="none" stroke="midnightblue" d="M87,-164.191C87,-155.168 87,-144.994 87,-137.571"/>
<polygon fill="midnightblue" stroke="midnightblue" points="83.5001,-164.362 87,-174.362 90.5001,-164.362 83.5001,-164.362"/>
</g>
<!-- Node2 -->
<g id="node2" class="node"><title>Node2</title>
<a xlink:href="../../d4/d6a/classns_i_supports.html" target="_top" xlink:title="nsISupports">
<polygon fill="white" stroke="black" points="52.5,-232.5 52.5,-253.5 121.5,-253.5 121.5,-232.5 52.5,-232.5"/>
<text text-anchor="middle" x="87" y="-240.5" font-family="Helvetica,sans-Serif" font-size="10.00">nsISupports</text>
</a>
</g>
<!-- Node2&#45;&gt;Node1 -->
<g id="edge2" class="edge"><title>Node2&#45;&gt;Node1</title>
<path fill="none" stroke="midnightblue" d="M80.4952,-222.191C79.9414,-213.168 80.3257,-202.994 81.6479,-195.571"/>
<polygon fill="midnightblue" stroke="midnightblue" points="77.0431,-222.814 81.6359,-232.362 83.9995,-222.034 77.0431,-222.814"/>
</g>
<!-- Node2&#45;&gt;Node1 -->
<g id="edge4" class="edge"><title>Node2&#45;&gt;Node1</title>
<path fill="none" stroke="midnightblue" d="M93.5048,-222.191C94.0586,-213.168 93.6743,-202.994 92.3521,-195.571"/>
<polygon fill="midnightblue" stroke="midnightblue" points="90.0005,-222.034 92.3641,-232.362 96.9569,-222.814 90.0005,-222.034"/>
</g>
<!-- Node4 -->
<g id="node8" class="node"><title>Node4</title>
<a xlink:href="../../d4/d81/classmozilla_1_1a11y_1_1_accessible_wrap.html" target="_top" xlink:title="mozilla::a11y::AccessibleWrap">
<polygon fill="white" stroke="black" points="11,-58.5 11,-79.5 163,-79.5 163,-58.5 11,-58.5"/>
<text text-anchor="middle" x="87" y="-66.5" font-family="Helvetica,sans-Serif" font-size="10.00">mozilla::a11y::AccessibleWrap</text>
</a>
</g>
<!-- Node3&#45;&gt;Node4 -->
<g id="edge8" class="edge"><title>Node3&#45;&gt;Node4</title>
<path fill="none" stroke="midnightblue" d="M87,-106.191C87,-97.1684 87,-86.9941 87,-79.5707"/>
<polygon fill="midnightblue" stroke="midnightblue" points="83.5001,-106.362 87,-116.362 90.5001,-106.362 83.5001,-106.362"/>
</g>
<!-- Node5 -->
<g id="node10" class="node"><title>Node5</title>
<a xlink:href="../../d5/d21/classmozilla_1_1a11y_1_1_hyper_text_accessible.html" target="_top" xlink:title="mozilla::a11y::HyperTextAccessible">
<polygon fill="white" stroke="black" points="0,-0.5 0,-21.5 174,-21.5 174,-0.5 0,-0.5"/>
<text text-anchor="middle" x="87" y="-8.5" font-family="Helvetica,sans-Serif" font-size="10.00">mozilla::a11y::HyperTextAccessible</text>
</a>
</g>
<!-- Node4&#45;&gt;Node5 -->
<g id="edge10" class="edge"><title>Node4&#45;&gt;Node5</title>
<path fill="none" stroke="midnightblue" d="M87,-48.1906C87,-39.1684 87,-28.9941 87,-21.5707"/>
<polygon fill="midnightblue" stroke="midnightblue" points="83.5001,-48.3619 87,-58.3619 90.5001,-48.3619 83.5001,-48.3619"/>
</g>
</g>
</svg>
