<?xml version="1.0" encoding="UTF-8" standalone="no"?>
<!DOCTYPE svg PUBLIC "-//W3C//DTD SVG 1.1//EN"
 "http://www.w3.org/Graphics/SVG/1.1/DTD/svg11.dtd">
<!-- Generated by graphviz version 2.26.3 (20100126.1600)
 -->
<!-- Title: G Pages: 1 -->
<svg width="178pt" height="88pt"
 viewBox="0.00 0.00 178.00 88.00" xmlns="http://www.w3.org/2000/svg" xmlns:xlink="http://www.w3.org/1999/xlink">
<g id="graph1" class="graph" transform="scale(1 1) rotate(0) translate(4 84)">
<title>G</title>
<polygon fill="white" stroke="white" points="-4,5 -4,-84 175,-84 175,5 -4,5"/>
<!-- Node1 -->
<g id="node1" class="node"><title>Node1</title>
<polygon fill="#bfbfbf" stroke="black" points="46,-58.5 46,-79.5 118,-79.5 118,-58.5 46,-58.5"/>
<text text-anchor="middle" x="82" y="-66.5" font-family="Helvetica,sans-Serif" font-size="10.00">processlist.h</text>
</g>
<!-- Node2 -->
<g id="node3" class="node"><title>Node2</title>
<a xlink:href="../../d0/d91/b2g-info_8cpp.html" target="_top" xlink:title="b2g&#45;info.cpp">
<polygon fill="white" stroke="black" points="0,-0.5 0,-21.5 70,-21.5 70,-0.5 0,-0.5"/>
<text text-anchor="middle" x="35" y="-8.5" font-family="Helvetica,sans-Serif" font-size="10.00">b2g&#45;info.cpp</text>
</a>
</g>
<!-- Node1&#45;&gt;Node2 -->
<g id="edge2" class="edge"><title>Node1&#45;&gt;Node2</title>
<path fill="none" stroke="midnightblue" d="M67.0416,-50.5407C59.293,-40.9786 50.1102,-29.6467 43.5659,-21.5707"/>
<polygon fill="midnightblue" stroke="midnightblue" points="64.3643,-52.7961 73.3795,-58.3619 69.8029,-48.389 64.3643,-52.7961"/>
</g>
<!-- Node3 -->
<g id="node5" class="node"><title>Node3</title>
<a xlink:href="../../d1/d7b/processlist_8cpp.html" target="_top" xlink:title="processlist.cpp">
<polygon fill="white" stroke="black" points="87.5,-0.5 87.5,-21.5 170.5,-21.5 170.5,-0.5 87.5,-0.5"/>
<text text-anchor="middle" x="129" y="-8.5" font-family="Helvetica,sans-Serif" font-size="10.00">processlist.cpp</text>
</a>
</g>
<!-- Node1&#45;&gt;Node3 -->
<g id="edge4" class="edge"><title>Node1&#45;&gt;Node3</title>
<path fill="none" stroke="midnightblue" d="M96.9584,-50.5407C104.707,-40.9786 113.89,-29.6467 120.434,-21.5707"/>
<polygon fill="midnightblue" stroke="midnightblue" points="94.1971,-48.389 90.6205,-58.3619 99.6357,-52.7961 94.1971,-48.389"/>
</g>
</g>
</svg>
