<?xml version="1.0" encoding="UTF-8" standalone="no"?>
<!DOCTYPE svg PUBLIC "-//W3C//DTD SVG 1.1//EN"
 "http://www.w3.org/Graphics/SVG/1.1/DTD/svg11.dtd">
<!-- Generated by graphviz version 2.26.3 (20100126.1600)
 -->
<!-- Title: G Pages: 1 -->
<!--zoomable 110 -->
<svg id="main" version="1.1" xmlns="http://www.w3.org/2000/svg" xmlns:xlink="http://www.w3.org/1999/xlink" xml:space="preserve" onload="init(evt)">
        <defs>
                <circle id="rim" cx="0" cy="0" r="7"/>
                <circle id="rim2" cx="0" cy="0" r="3.5"/>
                <g id="zoomPlus">
                        <use xlink:href="#rim" fill="#404040">
                                <set attributeName="fill" to="#808080" begin="zoomplus.mouseover" end="zoomplus.mouseout"/>
                        </use>
                        <path d="M-4,0h8M0,-4v8" fill="none" stroke="white" stroke-width="1.5" pointer-events="none"/>
                </g>
                <g id="zoomMin">
                        <use xlink:href="#rim" fill="#404040">
                                <set attributeName="fill" to="#808080" begin="zoomminus.mouseover" end="zoomminus.mouseout"/>
                        </use>
                        <path d="M-4,0h8" fill="none" stroke="white" stroke-width="1.5" pointer-events="none"/>
                </g>
                <g id="dirArrow">
                        <path fill="none" stroke="white" stroke-width="1.5" d="M0,-3.0v7 M-2.5,-0.5L0,-3.0L2.5,-0.5"/>
                </g>
               <g id="resetDef">
                       <use xlink:href="#rim2" fill="#404040">
                               <set attributeName="fill" to="#808080" begin="reset.mouseover" end="reset.mouseout"/>
                       </use>
               </g>
        </defs>

<script type="text/javascript">
var viewWidth = 832;
var viewHeight = 110;
var sectionId = 'dynsection-2';
</script>
<script xlink:href="../../svgpan.js"/>
<svg id="graph" class="graph">
<g id="viewport">
<title>G</title>
<polygon fill="white" stroke="white" points="-4,5 -4,-106 829,-106 829,5 -4,5"/>
<!-- Node1 -->
<g id="node1" class="node"><title>Node1</title>
<polygon fill="#bfbfbf" stroke="black" points="0,-40.5 0,-61.5 294,-61.5 294,-40.5 0,-40.5"/>
<text text-anchor="middle" x="147" y="-48.5" font-family="Helvetica,sans-Serif" font-size="10.00">mozilla::plugins::ProtectedVariantArray::~ProtectedVariantArray</text>
</g>
<!-- Node2 -->
<g id="node3" class="node"><title>Node2</title>
<a xlink:href="../../d6/d51/namespacemozilla_1_1plugins.html#aaf86e506e159ee3d7623dadcc5ddbc4d" target="_top" xlink:title="mozilla::plugins::ReleaseRemoteVariant">
<polygon fill="white" stroke="black" points="330.5,-40.5 330.5,-61.5 521.5,-61.5 521.5,-40.5 330.5,-40.5"/>
<text text-anchor="middle" x="426" y="-48.5" font-family="Helvetica,sans-Serif" font-size="10.00">mozilla::plugins::ReleaseRemoteVariant</text>
</a>
</g>
<!-- Node1&#45;&gt;Node2 -->
<g id="edge2" class="edge"><title>Node1&#45;&gt;Node2</title>
<path fill="none" stroke="midnightblue" d="M294.262,-51C302.923,-51 311.544,-51 319.99,-51"/>
<polygon fill="midnightblue" stroke="midnightblue" points="320.198,-54.5001 330.198,-51 320.198,-47.5001 320.198,-54.5001"/>
</g>
<!-- Node3 -->
<g id="node5" class="node"><title>Node3</title>
<a xlink:href="../../d6/de5/classmozilla_1_1plugins_1_1_plugin_module_child.html#ad2783ac93f02cef972d14487f47a543d" target="_top" xlink:title="mozilla::plugins::PluginModuleChild::current">
<polygon fill="white" stroke="black" points="587.5,-80.5 587.5,-101.5 794.5,-101.5 794.5,-80.5 587.5,-80.5"/>
<text text-anchor="middle" x="691" y="-88.5" font-family="Helvetica,sans-Serif" font-size="10.00">mozilla::plugins::PluginModuleChild::current</text>
</a>
</g>
<!-- Node2&#45;&gt;Node3 -->
<g id="edge4" class="edge"><title>Node2&#45;&gt;Node3</title>
<path fill="none" stroke="midnightblue" d="M495.531,-61.5499C515.682,-64.6034 537.717,-67.9384 558,-71 575.081,-73.5783 593.397,-76.3366 610.807,-78.9557"/>
<polygon fill="midnightblue" stroke="midnightblue" points="610.528,-82.453 620.938,-80.4792 611.569,-75.5309 610.528,-82.453"/>
</g>
<!-- Node4 -->
<g id="node7" class="node"><title>Node4</title>
<a xlink:href="../../dd/d79/classmozilla_1_1plugins_1_1_plugin_scriptable_object_parent.html#adb7b81aae0b86c968a32b5f9543bfc3d" target="_top" xlink:title="mozilla::plugins::PluginScriptableObjectParent::Unprotect">
<polygon fill="white" stroke="black" points="558,-40.5 558,-61.5 824,-61.5 824,-40.5 558,-40.5"/>
<text text-anchor="middle" x="691" y="-48.5" font-family="Helvetica,sans-Serif" font-size="10.00">mozilla::plugins::PluginScriptableObjectParent::Unprotect</text>
</a>
</g>
<!-- Node2&#45;&gt;Node4 -->
<g id="edge6" class="edge"><title>Node2&#45;&gt;Node4</title>
<path fill="none" stroke="midnightblue" d="M521.671,-51C530.089,-51 538.723,-51 547.42,-51"/>
<polygon fill="midnightblue" stroke="midnightblue" points="547.651,-54.5001 557.651,-51 547.651,-47.5001 547.651,-54.5001"/>
</g>
<!-- Node5 -->
<g id="node9" class="node"><title>Node5</title>
<a xlink:href="../../dc/d04/classmozilla_1_1plugins_1_1_plugin_scriptable_object_child.html#a9a09661de5ee487005a63e76f958e924" target="_top" xlink:title="mozilla::plugins::PluginScriptableObjectChild::Unprotect">
<polygon fill="white" stroke="black" points="561,-0.5 561,-21.5 821,-21.5 821,-0.5 561,-0.5"/>
<text text-anchor="middle" x="691" y="-8.5" font-family="Helvetica,sans-Serif" font-size="10.00">mozilla::plugins::PluginScriptableObjectChild::Unprotect</text>
</a>
</g>
<!-- Node2&#45;&gt;Node5 -->
<g id="edge8" class="edge"><title>Node2&#45;&gt;Node5</title>
<path fill="none" stroke="midnightblue" d="M495.531,-40.4501C515.682,-37.3966 537.717,-34.0616 558,-31 575.081,-28.4217 593.397,-25.6634 610.807,-23.0443"/>
<polygon fill="midnightblue" stroke="midnightblue" points="611.569,-26.4691 620.938,-21.5208 610.528,-19.547 611.569,-26.4691"/>
</g>
</g>
</svg>
        <g id="navigator" transform="translate(0 0)" fill="#404254">
                <rect fill="#f2f5e9" fill-opacity="0.5" stroke="#606060" stroke-width=".5" x="0" y="0" width="60" height="60"/>
                <use id="zoomplus" xlink:href="#zoomPlus" x="17" y="9" onmousedown="handleZoom(evt,'in')"/>
                <use id="zoomminus" xlink:href="#zoomMin" x="42" y="9" onmousedown="handleZoom(evt,'out')"/>
                <use id="reset" xlink:href="#resetDef" x="30" y="36" onmousedown="handleReset()"/>
                <g id="arrowUp" xlink:href="#dirArrow" transform="translate(30 24)" onmousedown="handlePan(0,-1)">
                  <use xlink:href="#rim" fill="#404040">
                        <set attributeName="fill" to="#808080" begin="arrowUp.mouseover" end="arrowUp.mouseout"/>
                  </use>
                  <path fill="none" stroke="white" stroke-width="1.5" d="M0,-3.0v7 M-2.5,-0.5L0,-3.0L2.5,-0.5"/>
                </g>
                <g id="arrowRight" xlink:href="#dirArrow" transform="rotate(90) translate(36 -43)" onmousedown="handlePan(1,0)">
                  <use xlink:href="#rim" fill="#404040">
                        <set attributeName="fill" to="#808080" begin="arrowRight.mouseover" end="arrowRight.mouseout"/>
                  </use>
                  <path fill="none" stroke="white" stroke-width="1.5" d="M0,-3.0v7 M-2.5,-0.5L0,-3.0L2.5,-0.5"/>
                </g>
                <g id="arrowDown" xlink:href="#dirArrow" transform="rotate(180) translate(-30 -48)" onmousedown="handlePan(0,1)">
                  <use xlink:href="#rim" fill="#404040">
                        <set attributeName="fill" to="#808080" begin="arrowDown.mouseover" end="arrowDown.mouseout"/>
                  </use>
                  <path fill="none" stroke="white" stroke-width="1.5" d="M0,-3.0v7 M-2.5,-0.5L0,-3.0L2.5,-0.5"/>
                </g>
                <g id="arrowLeft" xlink:href="#dirArrow" transform="rotate(270) translate(-36 17)" onmousedown="handlePan(-1,0)">
                  <use xlink:href="#rim" fill="#404040">
                        <set attributeName="fill" to="#808080" begin="arrowLeft.mouseover" end="arrowLeft.mouseout"/>
                  </use>
                  <path fill="none" stroke="white" stroke-width="1.5" d="M0,-3.0v7 M-2.5,-0.5L0,-3.0L2.5,-0.5"/>
                </g>
        </g>
</svg>
