<?xml version="1.0" encoding="UTF-8" standalone="no"?>
<!DOCTYPE svg PUBLIC "-//W3C//DTD SVG 1.1//EN"
 "http://www.w3.org/Graphics/SVG/1.1/DTD/svg11.dtd">
<!-- Generated by graphviz version 2.26.3 (20100126.1600)
 -->
<!-- Title: G Pages: 1 -->
<svg width="286pt" height="70pt"
 viewBox="0.00 0.00 286.00 70.00" xmlns="http://www.w3.org/2000/svg" xmlns:xlink="http://www.w3.org/1999/xlink">
<g id="graph1" class="graph" transform="scale(1 1) rotate(0) translate(4 66)">
<title>G</title>
<polygon fill="white" stroke="white" points="-4,5 -4,-66 283,-66 283,5 -4,5"/>
<!-- Node1 -->
<g id="node1" class="node"><title>Node1</title>
<polygon fill="#bfbfbf" stroke="black" points="0.5,-20.5 0.5,-41.5 41.5,-41.5 41.5,-20.5 0.5,-20.5"/>
<text text-anchor="middle" x="21" y="-28.5" font-family="Helvetica,sans-Serif" font-size="10.00">Swap</text>
</g>
<!-- Node2 -->
<g id="node3" class="node"><title>Node2</title>
<a xlink:href="../../de/d3d/classgoogle_1_1protobuf_1_1_repeated_ptr_field.html#a87a5078246bff3463127864e52572426" target="_top" xlink:title="google::protobuf::RepeatedPtrField::Swap">
<polygon fill="white" stroke="black" points="78.5,-40.5 78.5,-61.5 277.5,-61.5 277.5,-40.5 78.5,-40.5"/>
<text text-anchor="middle" x="178" y="-48.5" font-family="Helvetica,sans-Serif" font-size="10.00">google::protobuf::RepeatedPtrField::Swap</text>
</a>
</g>
<!-- Node1&#45;&gt;Node2 -->
<g id="edge2" class="edge"><title>Node1&#45;&gt;Node2</title>
<path fill="none" stroke="midnightblue" d="M51.492,-34.8843C64.1836,-36.5011 79.5931,-38.4641 95.2293,-40.456"/>
<polygon fill="midnightblue" stroke="midnightblue" points="51.8872,-31.4065 41.525,-33.6147 51.0025,-38.3504 51.8872,-31.4065"/>
</g>
<!-- Node3 -->
<g id="node5" class="node"><title>Node3</title>
<a xlink:href="../../da/d70/classjs_1_1detail_1_1_hash_table_entry.html#a767f3db717a0be11c2b37f3a2eb90b0b" target="_top" xlink:title="js::detail::HashTableEntry::swap">
<polygon fill="white" stroke="black" points="98.5,-0.5 98.5,-21.5 257.5,-21.5 257.5,-0.5 98.5,-0.5"/>
<text text-anchor="middle" x="178" y="-8.5" font-family="Helvetica,sans-Serif" font-size="10.00">js::detail::HashTableEntry::swap</text>
</a>
</g>
<!-- Node1&#45;&gt;Node3 -->
<g id="edge4" class="edge"><title>Node1&#45;&gt;Node3</title>
<path fill="none" stroke="midnightblue" d="M51.6589,-27.0944C65.1853,-25.3713 81.7751,-23.2579 98.4292,-21.1364"/>
<polygon fill="midnightblue" stroke="midnightblue" points="51.0025,-23.6496 41.525,-28.3853 51.8872,-30.5935 51.0025,-23.6496"/>
</g>
</g>
</svg>
