<?xml version="1.0" encoding="UTF-8" standalone="no"?>
<!DOCTYPE svg PUBLIC "-//W3C//DTD SVG 1.1//EN"
 "http://www.w3.org/Graphics/SVG/1.1/DTD/svg11.dtd">
<!-- Generated by graphviz version 2.26.3 (20100126.1600)
 -->
<!-- Title: G Pages: 1 -->
<svg width="234pt" height="70pt"
 viewBox="0.00 0.00 234.00 70.00" xmlns="http://www.w3.org/2000/svg" xmlns:xlink="http://www.w3.org/1999/xlink">
<g id="graph1" class="graph" transform="scale(1 1) rotate(0) translate(4 66)">
<title>G</title>
<polygon fill="white" stroke="white" points="-4,5 -4,-66 231,-66 231,5 -4,5"/>
<!-- Node1 -->
<g id="node1" class="node"><title>Node1</title>
<polygon fill="#bfbfbf" stroke="black" points="0,-40.5 0,-61.5 114,-61.5 114,-40.5 0,-40.5"/>
<text text-anchor="middle" x="57" y="-48.5" font-family="Helvetica,sans-Serif" font-size="10.00">Task::ensure_got_stat</text>
</g>
<!-- Node2 -->
<g id="node3" class="node"><title>Node2</title>
<a xlink:href="../../d7/d6d/class_task.html#aad70c410dab527475f0c89272d19159d" target="_top" xlink:title="Task::ppid">
<polygon fill="white" stroke="black" points="157,-40.5 157,-61.5 219,-61.5 219,-40.5 157,-40.5"/>
<text text-anchor="middle" x="188" y="-48.5" font-family="Helvetica,sans-Serif" font-size="10.00">Task::ppid</text>
</a>
</g>
<!-- Node1&#45;&gt;Node2 -->
<g id="edge2" class="edge"><title>Node1&#45;&gt;Node2</title>
<path fill="none" stroke="midnightblue" d="M114.077,-44.2999C124.926,-44.1708 136.088,-44.2923 146.347,-44.6644"/>
<polygon fill="midnightblue" stroke="midnightblue" points="146.507,-48.1756 156.659,-45.1429 146.832,-41.1831 146.507,-48.1756"/>
</g>
<!-- Node3 -->
<g id="node6" class="node"><title>Node3</title>
<a xlink:href="../../d7/d6d/class_task.html#a3fa3d6841978f86ac134f1267b85bdc2" target="_top" xlink:title="Task::task_id">
<polygon fill="white" stroke="black" points="150,-0.5 150,-21.5 226,-21.5 226,-0.5 150,-0.5"/>
<text text-anchor="middle" x="188" y="-8.5" font-family="Helvetica,sans-Serif" font-size="10.00">Task::task_id</text>
</a>
</g>
<!-- Node1&#45;&gt;Node3 -->
<g id="edge6" class="edge"><title>Node1&#45;&gt;Node3</title>
<path fill="none" stroke="midnightblue" d="M91.4187,-40.4905C107.388,-35.6144 126.566,-29.7585 143.609,-24.5546"/>
<polygon fill="midnightblue" stroke="midnightblue" points="144.814,-27.846 153.356,-21.5782 142.77,-21.1512 144.814,-27.846"/>
</g>
<!-- Node2&#45;&gt;Node1 -->
<g id="edge4" class="edge"><title>Node2&#45;&gt;Node1</title>
<path fill="none" stroke="midnightblue" d="M156.659,-56.8571C146.876,-57.4205 135.681,-57.7173 124.411,-57.7474"/>
<polygon fill="midnightblue" stroke="midnightblue" points="124.093,-54.2461 114.077,-57.7001 124.061,-61.246 124.093,-54.2461"/>
</g>
</g>
</svg>
