<?xml version="1.0" encoding="UTF-8" standalone="no"?>
<!DOCTYPE svg PUBLIC "-//W3C//DTD SVG 1.1//EN"
 "http://www.w3.org/Graphics/SVG/1.1/DTD/svg11.dtd">
<!-- Generated by graphviz version 2.26.3 (20100126.1600)
 -->
<!-- Title: G Pages: 1 -->
<svg width="332pt" height="30pt"
 viewBox="0.00 0.00 332.00 30.00" xmlns="http://www.w3.org/2000/svg" xmlns:xlink="http://www.w3.org/1999/xlink">
<g id="graph1" class="graph" transform="scale(1 1) rotate(0) translate(4 26)">
<title>G</title>
<polygon fill="white" stroke="white" points="-4,5 -4,-26 329,-26 329,5 -4,5"/>
<!-- Node1 -->
<g id="node1" class="node"><title>Node1</title>
<polygon fill="#bfbfbf" stroke="black" points="0,-0.5 0,-21.5 62,-21.5 62,-0.5 0,-0.5"/>
<text text-anchor="middle" x="31" y="-8.5" font-family="Helvetica,sans-Serif" font-size="10.00">Task::ppid</text>
</g>
<!-- Node2 -->
<g id="node3" class="node"><title>Node2</title>
<a xlink:href="../../d7/d6d/class_task.html#a7e5af70039983d080361f3e3caf77bd2" target="_top" xlink:title="Task::ensure_got_stat">
<polygon fill="white" stroke="black" points="98,-0.5 98,-21.5 212,-21.5 212,-0.5 98,-0.5"/>
<text text-anchor="middle" x="155" y="-8.5" font-family="Helvetica,sans-Serif" font-size="10.00">Task::ensure_got_stat</text>
</a>
</g>
<!-- Node1&#45;&gt;Node2 -->
<g id="edge2" class="edge"><title>Node1&#45;&gt;Node2</title>
<path fill="none" stroke="midnightblue" d="M62.2904,-5.04761C70.1096,-4.60515 78.8007,-4.34678 87.6381,-4.27249"/>
<polygon fill="midnightblue" stroke="midnightblue" points="87.6413,-7.77259 97.6393,-4.26683 87.6373,-0.772587 87.6413,-7.77259"/>
</g>
<!-- Node2&#45;&gt;Node1 -->
<g id="edge4" class="edge"><title>Node2&#45;&gt;Node1</title>
<path fill="none" stroke="midnightblue" d="M97.6393,-17.7332C89.1749,-17.7947 80.5945,-17.6876 72.5339,-17.4119"/>
<polygon fill="midnightblue" stroke="midnightblue" points="72.4373,-13.9041 62.2904,-16.9524 72.1235,-20.8971 72.4373,-13.9041"/>
</g>
<!-- Node3 -->
<g id="node6" class="node"><title>Node3</title>
<a xlink:href="../../d7/d6d/class_task.html#a3fa3d6841978f86ac134f1267b85bdc2" target="_top" xlink:title="Task::task_id">
<polygon fill="white" stroke="black" points="248,-0.5 248,-21.5 324,-21.5 324,-0.5 248,-0.5"/>
<text text-anchor="middle" x="286" y="-8.5" font-family="Helvetica,sans-Serif" font-size="10.00">Task::task_id</text>
</a>
</g>
<!-- Node2&#45;&gt;Node3 -->
<g id="edge6" class="edge"><title>Node2&#45;&gt;Node3</title>
<path fill="none" stroke="midnightblue" d="M212.077,-11C220.705,-11 229.53,-11 237.942,-11"/>
<polygon fill="midnightblue" stroke="midnightblue" points="237.955,-14.5001 247.955,-11 237.955,-7.5001 237.955,-14.5001"/>
</g>
</g>
</svg>
