<?xml version="1.0" encoding="UTF-8" standalone="no"?>
<!DOCTYPE svg PUBLIC "-//W3C//DTD SVG 1.1//EN"
 "http://www.w3.org/Graphics/SVG/1.1/DTD/svg11.dtd">
<!-- Generated by graphviz version 2.26.3 (20100126.1600)
 -->
<!-- Title: G Pages: 1 -->
<svg width="258pt" height="30pt"
 viewBox="0.00 0.00 258.00 30.00" xmlns="http://www.w3.org/2000/svg" xmlns:xlink="http://www.w3.org/1999/xlink">
<g id="graph1" class="graph" transform="scale(1 1) rotate(0) translate(4 26)">
<title>G</title>
<polygon fill="white" stroke="white" points="-4,5 -4,-26 255,-26 255,5 -4,5"/>
<!-- Node1 -->
<g id="node1" class="node"><title>Node1</title>
<polygon fill="#bfbfbf" stroke="black" points="0,-0.5 0,-21.5 62,-21.5 62,-0.5 0,-0.5"/>
<text text-anchor="middle" x="31" y="-8.5" font-family="Helvetica,sans-Serif" font-size="10.00">Task::nice</text>
</g>
<!-- Node2 -->
<g id="node3" class="node"><title>Node2</title>
<a xlink:href="../../d0/d91/b2g-info_8cpp.html#a72987403ed81c976534491e6e4cb7533" target="_top" xlink:title="print_b2g_info">
<polygon fill="white" stroke="black" points="98.5,-0.5 98.5,-21.5 175.5,-21.5 175.5,-0.5 98.5,-0.5"/>
<text text-anchor="middle" x="137" y="-8.5" font-family="Helvetica,sans-Serif" font-size="10.00">print_b2g_info</text>
</a>
</g>
<!-- Node1&#45;&gt;Node2 -->
<g id="edge2" class="edge"><title>Node1&#45;&gt;Node2</title>
<path fill="none" stroke="midnightblue" d="M72.4206,-11C81.001,-11 90.0071,-11 98.4786,-11"/>
<polygon fill="midnightblue" stroke="midnightblue" points="72.2302,-7.5001 62.2302,-11 72.2301,-14.5001 72.2302,-7.5001"/>
</g>
<!-- Node3 -->
<g id="node5" class="node"><title>Node3</title>
<a xlink:href="../../d0/d91/b2g-info_8cpp.html#a217dbf8b442f20279ea00b898af96f52" target="_top" xlink:title="main">
<polygon fill="white" stroke="black" points="212,-0.5 212,-21.5 250,-21.5 250,-0.5 212,-0.5"/>
<text text-anchor="middle" x="231" y="-8.5" font-family="Helvetica,sans-Serif" font-size="10.00">main</text>
</a>
</g>
<!-- Node2&#45;&gt;Node3 -->
<g id="edge4" class="edge"><title>Node2&#45;&gt;Node3</title>
<path fill="none" stroke="midnightblue" d="M185.632,-11C194.998,-11 204.278,-11 211.981,-11"/>
<polygon fill="midnightblue" stroke="midnightblue" points="185.505,-7.5001 175.505,-11 185.505,-14.5001 185.505,-7.5001"/>
</g>
</g>
</svg>
