<?xml version="1.0" encoding="UTF-8" standalone="no"?>
<!DOCTYPE svg PUBLIC "-//W3C//DTD SVG 1.1//EN"
 "http://www.w3.org/Graphics/SVG/1.1/DTD/svg11.dtd">
<!-- Generated by graphviz version 2.26.3 (20100126.1600)
 -->
<!-- Title: G Pages: 1 -->
<svg width="332pt" height="70pt"
 viewBox="0.00 0.00 332.00 70.00" xmlns="http://www.w3.org/2000/svg" xmlns:xlink="http://www.w3.org/1999/xlink">
<g id="graph1" class="graph" transform="scale(1 1) rotate(0) translate(4 66)">
<title>G</title>
<polygon fill="white" stroke="white" points="-4,5 -4,-66 329,-66 329,5 -4,5"/>
<!-- Node1 -->
<g id="node1" class="node"><title>Node1</title>
<polygon fill="#bfbfbf" stroke="black" points="0,-40.5 0,-61.5 62,-61.5 62,-40.5 0,-40.5"/>
<text text-anchor="middle" x="31" y="-48.5" font-family="Helvetica,sans-Serif" font-size="10.00">Task::nice</text>
</g>
<!-- Node2 -->
<g id="node3" class="node"><title>Node2</title>
<a xlink:href="../../d7/d6d/class_task.html#a7e5af70039983d080361f3e3caf77bd2" target="_top" xlink:title="Task::ensure_got_stat">
<polygon fill="white" stroke="black" points="98,-40.5 98,-61.5 212,-61.5 212,-40.5 98,-40.5"/>
<text text-anchor="middle" x="155" y="-48.5" font-family="Helvetica,sans-Serif" font-size="10.00">Task::ensure_got_stat</text>
</a>
</g>
<!-- Node1&#45;&gt;Node2 -->
<g id="edge2" class="edge"><title>Node1&#45;&gt;Node2</title>
<path fill="none" stroke="midnightblue" d="M62.2904,-51C70.1096,-51 78.8007,-51 87.6381,-51"/>
<polygon fill="midnightblue" stroke="midnightblue" points="87.6394,-54.5001 97.6393,-51 87.6393,-47.5001 87.6394,-54.5001"/>
</g>
<!-- Node3 -->
<g id="node5" class="node"><title>Node3</title>
<a xlink:href="../../d7/d6d/class_task.html#aad70c410dab527475f0c89272d19159d" target="_top" xlink:title="Task::ppid">
<polygon fill="white" stroke="black" points="255,-40.5 255,-61.5 317,-61.5 317,-40.5 255,-40.5"/>
<text text-anchor="middle" x="286" y="-48.5" font-family="Helvetica,sans-Serif" font-size="10.00">Task::ppid</text>
</a>
</g>
<!-- Node2&#45;&gt;Node3 -->
<g id="edge4" class="edge"><title>Node2&#45;&gt;Node3</title>
<path fill="none" stroke="midnightblue" d="M212.077,-44.2999C222.926,-44.1708 234.088,-44.2923 244.347,-44.6644"/>
<polygon fill="midnightblue" stroke="midnightblue" points="244.507,-48.1756 254.659,-45.1429 244.832,-41.1831 244.507,-48.1756"/>
</g>
<!-- Node4 -->
<g id="node8" class="node"><title>Node4</title>
<a xlink:href="../../d7/d6d/class_task.html#a3fa3d6841978f86ac134f1267b85bdc2" target="_top" xlink:title="Task::task_id">
<polygon fill="white" stroke="black" points="248,-0.5 248,-21.5 324,-21.5 324,-0.5 248,-0.5"/>
<text text-anchor="middle" x="286" y="-8.5" font-family="Helvetica,sans-Serif" font-size="10.00">Task::task_id</text>
</a>
</g>
<!-- Node2&#45;&gt;Node4 -->
<g id="edge8" class="edge"><title>Node2&#45;&gt;Node4</title>
<path fill="none" stroke="midnightblue" d="M189.419,-40.4905C205.388,-35.6144 224.566,-29.7585 241.609,-24.5546"/>
<polygon fill="midnightblue" stroke="midnightblue" points="242.814,-27.846 251.356,-21.5782 240.77,-21.1512 242.814,-27.846"/>
</g>
<!-- Node3&#45;&gt;Node2 -->
<g id="edge6" class="edge"><title>Node3&#45;&gt;Node2</title>
<path fill="none" stroke="midnightblue" d="M254.659,-56.8571C244.876,-57.4205 233.681,-57.7173 222.411,-57.7474"/>
<polygon fill="midnightblue" stroke="midnightblue" points="222.093,-54.2461 212.077,-57.7001 222.061,-61.246 222.093,-54.2461"/>
</g>
</g>
</svg>
