<?xml version="1.0" encoding="UTF-8" standalone="no"?>
<!DOCTYPE svg PUBLIC "-//W3C//DTD SVG 1.1//EN"
 "http://www.w3.org/Graphics/SVG/1.1/DTD/svg11.dtd">
<!-- Generated by graphviz version 2.26.3 (20100126.1600)
 -->
<!-- Title: G Pages: 1 -->
<svg width="414pt" height="110pt"
 viewBox="0.00 0.00 414.00 110.00" xmlns="http://www.w3.org/2000/svg" xmlns:xlink="http://www.w3.org/1999/xlink">
<g id="graph1" class="graph" transform="scale(1 1) rotate(0) translate(4 106)">
<title>G</title>
<polygon fill="white" stroke="white" points="-4,5 -4,-106 411,-106 411,5 -4,5"/>
<!-- Node1 -->
<g id="node1" class="node"><title>Node1</title>
<polygon fill="#bfbfbf" stroke="black" points="0,-20.5 0,-41.5 114,-41.5 114,-20.5 0,-20.5"/>
<text text-anchor="middle" x="57" y="-28.5" font-family="Helvetica,sans-Serif" font-size="10.00">Task::ensure_got_stat</text>
</g>
<!-- Node2 -->
<g id="node3" class="node"><title>Node2</title>
<a xlink:href="../../d7/d6d/class_task.html#a75d6a9e53bd83d443dff2b4a9d1faf7e" target="_top" xlink:title="Task::name">
<polygon fill="white" stroke="black" points="150,-80.5 150,-101.5 218,-101.5 218,-80.5 150,-80.5"/>
<text text-anchor="middle" x="184" y="-88.5" font-family="Helvetica,sans-Serif" font-size="10.00">Task::name</text>
</a>
</g>
<!-- Node1&#45;&gt;Node2 -->
<g id="edge2" class="edge"><title>Node1&#45;&gt;Node2</title>
<path fill="none" stroke="midnightblue" d="M88.6097,-45.9337C111.226,-56.6186 141.131,-70.7472 161.384,-80.3154"/>
<polygon fill="midnightblue" stroke="midnightblue" points="89.9495,-42.6958 79.4127,-41.5887 86.9593,-49.025 89.9495,-42.6958"/>
</g>
<!-- Node5 -->
<g id="node9" class="node"><title>Node5</title>
<a xlink:href="../../d7/d6d/class_task.html#ac7b46fd963ad1e0f7bc8c260ba31121c" target="_top" xlink:title="Task::nice">
<polygon fill="white" stroke="black" points="153,-40.5 153,-61.5 215,-61.5 215,-40.5 153,-40.5"/>
<text text-anchor="middle" x="184" y="-48.5" font-family="Helvetica,sans-Serif" font-size="10.00">Task::nice</text>
</a>
</g>
<!-- Node1&#45;&gt;Node5 -->
<g id="edge8" class="edge"><title>Node1&#45;&gt;Node5</title>
<path fill="none" stroke="midnightblue" d="M124.192,-41.5814C134.195,-43.1567 144.076,-44.7128 152.837,-46.0924"/>
<polygon fill="midnightblue" stroke="midnightblue" points="124.607,-38.1037 114.184,-40.0054 123.518,-45.0185 124.607,-38.1037"/>
</g>
<!-- Node6 -->
<g id="node12" class="node"><title>Node6</title>
<a xlink:href="../../d7/d6d/class_task.html#aad70c410dab527475f0c89272d19159d" target="_top" xlink:title="Task::ppid">
<polygon fill="white" stroke="black" points="153,-0.5 153,-21.5 215,-21.5 215,-0.5 153,-0.5"/>
<text text-anchor="middle" x="184" y="-8.5" font-family="Helvetica,sans-Serif" font-size="10.00">Task::ppid</text>
</a>
</g>
<!-- Node1&#45;&gt;Node6 -->
<g id="edge12" class="edge"><title>Node1&#45;&gt;Node6</title>
<path fill="none" stroke="midnightblue" d="M96.7115,-18.4362C114.735,-14.9002 135.747,-11.7233 152.639,-10.0249"/>
<polygon fill="midnightblue" stroke="midnightblue" points="95.86,-15.0381 86.7759,-20.4904 97.2774,-21.8931 95.86,-15.0381"/>
</g>
<!-- Node3 -->
<g id="node5" class="node"><title>Node3</title>
<a xlink:href="../../d0/d91/b2g-info_8cpp.html#a72987403ed81c976534491e6e4cb7533" target="_top" xlink:title="print_b2g_info">
<polygon fill="white" stroke="black" points="254.5,-60.5 254.5,-81.5 331.5,-81.5 331.5,-60.5 254.5,-60.5"/>
<text text-anchor="middle" x="293" y="-68.5" font-family="Helvetica,sans-Serif" font-size="10.00">print_b2g_info</text>
</a>
</g>
<!-- Node2&#45;&gt;Node3 -->
<g id="edge4" class="edge"><title>Node2&#45;&gt;Node3</title>
<path fill="none" stroke="midnightblue" d="M228.16,-82.8972C236.843,-81.304 245.89,-79.6441 254.374,-78.0873"/>
<polygon fill="midnightblue" stroke="midnightblue" points="227.393,-79.4794 218.189,-84.7267 228.657,-86.3645 227.393,-79.4794"/>
</g>
<!-- Node4 -->
<g id="node7" class="node"><title>Node4</title>
<a xlink:href="../../d0/d91/b2g-info_8cpp.html#a217dbf8b442f20279ea00b898af96f52" target="_top" xlink:title="main">
<polygon fill="white" stroke="black" points="368,-60.5 368,-81.5 406,-81.5 406,-60.5 368,-60.5"/>
<text text-anchor="middle" x="387" y="-68.5" font-family="Helvetica,sans-Serif" font-size="10.00">main</text>
</a>
</g>
<!-- Node3&#45;&gt;Node4 -->
<g id="edge6" class="edge"><title>Node3&#45;&gt;Node4</title>
<path fill="none" stroke="midnightblue" d="M341.632,-71C350.998,-71 360.278,-71 367.981,-71"/>
<polygon fill="midnightblue" stroke="midnightblue" points="341.505,-67.5001 331.505,-71 341.505,-74.5001 341.505,-67.5001"/>
</g>
<!-- Node5&#45;&gt;Node3 -->
<g id="edge10" class="edge"><title>Node5&#45;&gt;Node3</title>
<path fill="none" stroke="midnightblue" d="M225.306,-58.5791C234.85,-60.3303 244.968,-62.1869 254.392,-63.916"/>
<polygon fill="midnightblue" stroke="midnightblue" points="225.703,-55.0935 215.235,-56.7312 224.439,-61.9785 225.703,-55.0935"/>
</g>
<!-- Node6&#45;&gt;Node1 -->
<g id="edge14" class="edge"><title>Node6&#45;&gt;Node1</title>
<path fill="none" stroke="midnightblue" d="M144.245,-23.5724C134.709,-25.4425 124.338,-27.2119 114.184,-28.7149"/>
<polygon fill="midnightblue" stroke="midnightblue" points="145.131,-26.9633 154.215,-21.5115 143.714,-20.1082 145.131,-26.9633"/>
</g>
</g>
</svg>
