<?xml version="1.0" encoding="UTF-8" standalone="no"?>
<!DOCTYPE svg PUBLIC "-//W3C//DTD SVG 1.1//EN"
 "http://www.w3.org/Graphics/SVG/1.1/DTD/svg11.dtd">
<!-- Generated by graphviz version 2.26.3 (20100126.1600)
 -->
<!-- Title: G Pages: 1 -->
<svg width="338pt" height="70pt"
 viewBox="0.00 0.00 338.00 70.00" xmlns="http://www.w3.org/2000/svg" xmlns:xlink="http://www.w3.org/1999/xlink">
<g id="graph1" class="graph" transform="scale(1 1) rotate(0) translate(4 66)">
<title>G</title>
<polygon fill="white" stroke="white" points="-4,5 -4,-66 335,-66 335,5 -4,5"/>
<!-- Node1 -->
<g id="node1" class="node"><title>Node1</title>
<polygon fill="#bfbfbf" stroke="black" points="0,-40.5 0,-61.5 68,-61.5 68,-40.5 0,-40.5"/>
<text text-anchor="middle" x="34" y="-48.5" font-family="Helvetica,sans-Serif" font-size="10.00">Task::name</text>
</g>
<!-- Node2 -->
<g id="node3" class="node"><title>Node2</title>
<a xlink:href="../../d7/d6d/class_task.html#a7e5af70039983d080361f3e3caf77bd2" target="_top" xlink:title="Task::ensure_got_stat">
<polygon fill="white" stroke="black" points="104,-40.5 104,-61.5 218,-61.5 218,-40.5 104,-40.5"/>
<text text-anchor="middle" x="161" y="-48.5" font-family="Helvetica,sans-Serif" font-size="10.00">Task::ensure_got_stat</text>
</a>
</g>
<!-- Node1&#45;&gt;Node2 -->
<g id="edge2" class="edge"><title>Node1&#45;&gt;Node2</title>
<path fill="none" stroke="midnightblue" d="M68.0337,-51C76.0412,-51 84.8521,-51 93.7614,-51"/>
<polygon fill="midnightblue" stroke="midnightblue" points="93.8246,-54.5001 103.825,-51 93.8245,-47.5001 93.8246,-54.5001"/>
</g>
<!-- Node3 -->
<g id="node5" class="node"><title>Node3</title>
<a xlink:href="../../d7/d6d/class_task.html#aad70c410dab527475f0c89272d19159d" target="_top" xlink:title="Task::ppid">
<polygon fill="white" stroke="black" points="261,-40.5 261,-61.5 323,-61.5 323,-40.5 261,-40.5"/>
<text text-anchor="middle" x="292" y="-48.5" font-family="Helvetica,sans-Serif" font-size="10.00">Task::ppid</text>
</a>
</g>
<!-- Node2&#45;&gt;Node3 -->
<g id="edge4" class="edge"><title>Node2&#45;&gt;Node3</title>
<path fill="none" stroke="midnightblue" d="M218.077,-44.2999C228.926,-44.1708 240.088,-44.2923 250.347,-44.6644"/>
<polygon fill="midnightblue" stroke="midnightblue" points="250.507,-48.1756 260.659,-45.1429 250.832,-41.1831 250.507,-48.1756"/>
</g>
<!-- Node4 -->
<g id="node8" class="node"><title>Node4</title>
<a xlink:href="../../d7/d6d/class_task.html#a3fa3d6841978f86ac134f1267b85bdc2" target="_top" xlink:title="Task::task_id">
<polygon fill="white" stroke="black" points="254,-0.5 254,-21.5 330,-21.5 330,-0.5 254,-0.5"/>
<text text-anchor="middle" x="292" y="-8.5" font-family="Helvetica,sans-Serif" font-size="10.00">Task::task_id</text>
</a>
</g>
<!-- Node2&#45;&gt;Node4 -->
<g id="edge8" class="edge"><title>Node2&#45;&gt;Node4</title>
<path fill="none" stroke="midnightblue" d="M195.419,-40.4905C211.388,-35.6144 230.566,-29.7585 247.609,-24.5546"/>
<polygon fill="midnightblue" stroke="midnightblue" points="248.814,-27.846 257.356,-21.5782 246.77,-21.1512 248.814,-27.846"/>
</g>
<!-- Node3&#45;&gt;Node2 -->
<g id="edge6" class="edge"><title>Node3&#45;&gt;Node2</title>
<path fill="none" stroke="midnightblue" d="M260.659,-56.8571C250.876,-57.4205 239.681,-57.7173 228.411,-57.7474"/>
<polygon fill="midnightblue" stroke="midnightblue" points="228.093,-54.2461 218.077,-57.7001 228.061,-61.246 228.093,-54.2461"/>
</g>
</g>
</svg>
