<?xml version="1.0" encoding="UTF-8" standalone="no"?>
<!DOCTYPE svg PUBLIC "-//W3C//DTD SVG 1.1//EN"
 "http://www.w3.org/Graphics/SVG/1.1/DTD/svg11.dtd">
<!-- Generated by graphviz version 2.26.3 (20100126.1600)
 -->
<!-- Title: G Pages: 1 -->
<!--zoomable 110 -->
<svg id="main" version="1.1" xmlns="http://www.w3.org/2000/svg" xmlns:xlink="http://www.w3.org/1999/xlink" xml:space="preserve" onload="init(evt)">
        <defs>
                <circle id="rim" cx="0" cy="0" r="7"/>
                <circle id="rim2" cx="0" cy="0" r="3.5"/>
                <g id="zoomPlus">
                        <use xlink:href="#rim" fill="#404040">
                                <set attributeName="fill" to="#808080" begin="zoomplus.mouseover" end="zoomplus.mouseout"/>
                        </use>
                        <path d="M-4,0h8M0,-4v8" fill="none" stroke="white" stroke-width="1.5" pointer-events="none"/>
                </g>
                <g id="zoomMin">
                        <use xlink:href="#rim" fill="#404040">
                                <set attributeName="fill" to="#808080" begin="zoomminus.mouseover" end="zoomminus.mouseout"/>
                        </use>
                        <path d="M-4,0h8" fill="none" stroke="white" stroke-width="1.5" pointer-events="none"/>
                </g>
                <g id="dirArrow">
                        <path fill="none" stroke="white" stroke-width="1.5" d="M0,-3.0v7 M-2.5,-0.5L0,-3.0L2.5,-0.5"/>
                </g>
               <g id="resetDef">
                       <use xlink:href="#rim2" fill="#404040">
                               <set attributeName="fill" to="#808080" begin="reset.mouseover" end="reset.mouseout"/>
                       </use>
               </g>
        </defs>

<script type="text/javascript">
var viewWidth = 526;
var viewHeight = 110;
var sectionId = 'dynsection-9';
</script>
<script xlink:href="../../svgpan.js"/>
<svg id="graph" class="graph">
<g id="viewport">
<title>G</title>
<polygon fill="white" stroke="white" points="-4,5 -4,-106 523,-106 523,5 -4,5"/>
<!-- Node1 -->
<g id="node1" class="node"><title>Node1</title>
<polygon fill="#bfbfbf" stroke="black" points="0,-20.5 0,-41.5 76,-41.5 76,-20.5 0,-20.5"/>
<text text-anchor="middle" x="38" y="-28.5" font-family="Helvetica,sans-Serif" font-size="10.00">Task::task_id</text>
</g>
<!-- Node2 -->
<g id="node3" class="node"><title>Node2</title>
<a xlink:href="../../d7/d6d/class_task.html#a7e5af70039983d080361f3e3caf77bd2" target="_top" xlink:title="Task::ensure_got_stat">
<polygon fill="white" stroke="black" points="112,-20.5 112,-41.5 226,-41.5 226,-20.5 112,-20.5"/>
<text text-anchor="middle" x="169" y="-28.5" font-family="Helvetica,sans-Serif" font-size="10.00">Task::ensure_got_stat</text>
</a>
</g>
<!-- Node1&#45;&gt;Node2 -->
<g id="edge2" class="edge"><title>Node1&#45;&gt;Node2</title>
<path fill="none" stroke="midnightblue" d="M86.4941,-31C94.787,-31 103.471,-31 111.961,-31"/>
<polygon fill="midnightblue" stroke="midnightblue" points="86.2428,-27.5001 76.2428,-31 86.2427,-34.5001 86.2428,-27.5001"/>
</g>
<!-- Node3 -->
<g id="node5" class="node"><title>Node3</title>
<a xlink:href="../../d7/d6d/class_task.html#a75d6a9e53bd83d443dff2b4a9d1faf7e" target="_top" xlink:title="Task::name">
<polygon fill="white" stroke="black" points="262,-80.5 262,-101.5 330,-101.5 330,-80.5 262,-80.5"/>
<text text-anchor="middle" x="296" y="-88.5" font-family="Helvetica,sans-Serif" font-size="10.00">Task::name</text>
</a>
</g>
<!-- Node2&#45;&gt;Node3 -->
<g id="edge4" class="edge"><title>Node2&#45;&gt;Node3</title>
<path fill="none" stroke="midnightblue" d="M200.61,-45.9337C223.226,-56.6186 253.131,-70.7472 273.384,-80.3154"/>
<polygon fill="midnightblue" stroke="midnightblue" points="201.95,-42.6958 191.413,-41.5887 198.959,-49.025 201.95,-42.6958"/>
</g>
<!-- Node6 -->
<g id="node11" class="node"><title>Node6</title>
<a xlink:href="../../d7/d6d/class_task.html#ac7b46fd963ad1e0f7bc8c260ba31121c" target="_top" xlink:title="Task::nice">
<polygon fill="white" stroke="black" points="265,-40.5 265,-61.5 327,-61.5 327,-40.5 265,-40.5"/>
<text text-anchor="middle" x="296" y="-48.5" font-family="Helvetica,sans-Serif" font-size="10.00">Task::nice</text>
</a>
</g>
<!-- Node2&#45;&gt;Node6 -->
<g id="edge10" class="edge"><title>Node2&#45;&gt;Node6</title>
<path fill="none" stroke="midnightblue" d="M236.192,-41.5814C246.195,-43.1567 256.076,-44.7128 264.837,-46.0924"/>
<polygon fill="midnightblue" stroke="midnightblue" points="236.607,-38.1037 226.184,-40.0054 235.518,-45.0185 236.607,-38.1037"/>
</g>
<!-- Node7 -->
<g id="node14" class="node"><title>Node7</title>
<a xlink:href="../../d7/d6d/class_task.html#aad70c410dab527475f0c89272d19159d" target="_top" xlink:title="Task::ppid">
<polygon fill="white" stroke="black" points="265,-0.5 265,-21.5 327,-21.5 327,-0.5 265,-0.5"/>
<text text-anchor="middle" x="296" y="-8.5" font-family="Helvetica,sans-Serif" font-size="10.00">Task::ppid</text>
</a>
</g>
<!-- Node2&#45;&gt;Node7 -->
<g id="edge14" class="edge"><title>Node2&#45;&gt;Node7</title>
<path fill="none" stroke="midnightblue" d="M208.711,-18.4362C226.735,-14.9002 247.747,-11.7233 264.639,-10.0249"/>
<polygon fill="midnightblue" stroke="midnightblue" points="207.86,-15.0381 198.776,-20.4904 209.277,-21.8931 207.86,-15.0381"/>
</g>
<!-- Node4 -->
<g id="node7" class="node"><title>Node4</title>
<a xlink:href="../../d0/d91/b2g-info_8cpp.html#a72987403ed81c976534491e6e4cb7533" target="_top" xlink:title="print_b2g_info">
<polygon fill="white" stroke="black" points="366.5,-60.5 366.5,-81.5 443.5,-81.5 443.5,-60.5 366.5,-60.5"/>
<text text-anchor="middle" x="405" y="-68.5" font-family="Helvetica,sans-Serif" font-size="10.00">print_b2g_info</text>
</a>
</g>
<!-- Node3&#45;&gt;Node4 -->
<g id="edge6" class="edge"><title>Node3&#45;&gt;Node4</title>
<path fill="none" stroke="midnightblue" d="M340.16,-82.8972C348.843,-81.304 357.89,-79.6441 366.374,-78.0873"/>
<polygon fill="midnightblue" stroke="midnightblue" points="339.393,-79.4794 330.189,-84.7267 340.657,-86.3645 339.393,-79.4794"/>
</g>
<!-- Node5 -->
<g id="node9" class="node"><title>Node5</title>
<a xlink:href="../../d0/d91/b2g-info_8cpp.html#a217dbf8b442f20279ea00b898af96f52" target="_top" xlink:title="main">
<polygon fill="white" stroke="black" points="480,-60.5 480,-81.5 518,-81.5 518,-60.5 480,-60.5"/>
<text text-anchor="middle" x="499" y="-68.5" font-family="Helvetica,sans-Serif" font-size="10.00">main</text>
</a>
</g>
<!-- Node4&#45;&gt;Node5 -->
<g id="edge8" class="edge"><title>Node4&#45;&gt;Node5</title>
<path fill="none" stroke="midnightblue" d="M453.632,-71C462.998,-71 472.278,-71 479.981,-71"/>
<polygon fill="midnightblue" stroke="midnightblue" points="453.505,-67.5001 443.505,-71 453.505,-74.5001 453.505,-67.5001"/>
</g>
<!-- Node6&#45;&gt;Node4 -->
<g id="edge12" class="edge"><title>Node6&#45;&gt;Node4</title>
<path fill="none" stroke="midnightblue" d="M337.306,-58.5791C346.85,-60.3303 356.968,-62.1869 366.392,-63.916"/>
<polygon fill="midnightblue" stroke="midnightblue" points="337.703,-55.0935 327.235,-56.7312 336.439,-61.9785 337.703,-55.0935"/>
</g>
<!-- Node7&#45;&gt;Node2 -->
<g id="edge16" class="edge"><title>Node7&#45;&gt;Node2</title>
<path fill="none" stroke="midnightblue" d="M256.245,-23.5724C246.709,-25.4425 236.338,-27.2119 226.184,-28.7149"/>
<polygon fill="midnightblue" stroke="midnightblue" points="257.131,-26.9633 266.215,-21.5115 255.714,-20.1082 257.131,-26.9633"/>
</g>
</g>
</svg>
        <g id="navigator" transform="translate(0 0)" fill="#404254">
                <rect fill="#f2f5e9" fill-opacity="0.5" stroke="#606060" stroke-width=".5" x="0" y="0" width="60" height="60"/>
                <use id="zoomplus" xlink:href="#zoomPlus" x="17" y="9" onmousedown="handleZoom(evt,'in')"/>
                <use id="zoomminus" xlink:href="#zoomMin" x="42" y="9" onmousedown="handleZoom(evt,'out')"/>
                <use id="reset" xlink:href="#resetDef" x="30" y="36" onmousedown="handleReset()"/>
                <g id="arrowUp" xlink:href="#dirArrow" transform="translate(30 24)" onmousedown="handlePan(0,-1)">
                  <use xlink:href="#rim" fill="#404040">
                        <set attributeName="fill" to="#808080" begin="arrowUp.mouseover" end="arrowUp.mouseout"/>
                  </use>
                  <path fill="none" stroke="white" stroke-width="1.5" d="M0,-3.0v7 M-2.5,-0.5L0,-3.0L2.5,-0.5"/>
                </g>
                <g id="arrowRight" xlink:href="#dirArrow" transform="rotate(90) translate(36 -43)" onmousedown="handlePan(1,0)">
                  <use xlink:href="#rim" fill="#404040">
                        <set attributeName="fill" to="#808080" begin="arrowRight.mouseover" end="arrowRight.mouseout"/>
                  </use>
                  <path fill="none" stroke="white" stroke-width="1.5" d="M0,-3.0v7 M-2.5,-0.5L0,-3.0L2.5,-0.5"/>
                </g>
                <g id="arrowDown" xlink:href="#dirArrow" transform="rotate(180) translate(-30 -48)" onmousedown="handlePan(0,1)">
                  <use xlink:href="#rim" fill="#404040">
                        <set attributeName="fill" to="#808080" begin="arrowDown.mouseover" end="arrowDown.mouseout"/>
                  </use>
                  <path fill="none" stroke="white" stroke-width="1.5" d="M0,-3.0v7 M-2.5,-0.5L0,-3.0L2.5,-0.5"/>
                </g>
                <g id="arrowLeft" xlink:href="#dirArrow" transform="rotate(270) translate(-36 17)" onmousedown="handlePan(-1,0)">
                  <use xlink:href="#rim" fill="#404040">
                        <set attributeName="fill" to="#808080" begin="arrowLeft.mouseover" end="arrowLeft.mouseout"/>
                  </use>
                  <path fill="none" stroke="white" stroke-width="1.5" d="M0,-3.0v7 M-2.5,-0.5L0,-3.0L2.5,-0.5"/>
                </g>
        </g>
</svg>
