<?xml version="1.0" encoding="UTF-8" standalone="no"?>
<!DOCTYPE svg PUBLIC "-//W3C//DTD SVG 1.1//EN"
 "http://www.w3.org/Graphics/SVG/1.1/DTD/svg11.dtd">
<!-- Generated by graphviz version 2.26.3 (20100126.1600)
 -->
<!-- Title: G Pages: 1 -->
<!--zoomable 70 -->
<svg id="main" version="1.1" xmlns="http://www.w3.org/2000/svg" xmlns:xlink="http://www.w3.org/1999/xlink" xml:space="preserve" onload="init(evt)">
        <defs>
                <circle id="rim" cx="0" cy="0" r="7"/>
                <circle id="rim2" cx="0" cy="0" r="3.5"/>
                <g id="zoomPlus">
                        <use xlink:href="#rim" fill="#404040">
                                <set attributeName="fill" to="#808080" begin="zoomplus.mouseover" end="zoomplus.mouseout"/>
                        </use>
                        <path d="M-4,0h8M0,-4v8" fill="none" stroke="white" stroke-width="1.5" pointer-events="none"/>
                </g>
                <g id="zoomMin">
                        <use xlink:href="#rim" fill="#404040">
                                <set attributeName="fill" to="#808080" begin="zoomminus.mouseover" end="zoomminus.mouseout"/>
                        </use>
                        <path d="M-4,0h8" fill="none" stroke="white" stroke-width="1.5" pointer-events="none"/>
                </g>
                <g id="dirArrow">
                        <path fill="none" stroke="white" stroke-width="1.5" d="M0,-3.0v7 M-2.5,-0.5L0,-3.0L2.5,-0.5"/>
                </g>
               <g id="resetDef">
                       <use xlink:href="#rim2" fill="#404040">
                               <set attributeName="fill" to="#808080" begin="reset.mouseover" end="reset.mouseout"/>
                       </use>
               </g>
        </defs>

<script type="text/javascript">
var viewWidth = 684;
var viewHeight = 70;
var sectionId = 'dynsection-10';
</script>
<script xlink:href="../../svgpan.js"/>
<svg id="graph" class="graph">
<g id="viewport">
<title>G</title>
<polygon fill="white" stroke="white" points="-4,5 -4,-66 681,-66 681,5 -4,5"/>
<!-- Node1 -->
<g id="node1" class="node"><title>Node1</title>
<polygon fill="#bfbfbf" stroke="black" points="0,-20.5 0,-41.5 98,-41.5 98,-20.5 0,-20.5"/>
<text text-anchor="middle" x="49" y="-28.5" font-family="Helvetica,sans-Serif" font-size="10.00">add&#45;revision.git_op</text>
</g>
<!-- Node2 -->
<g id="node3" class="node"><title>Node2</title>
<a xlink:href="../../d7/d6d/namespaceadd-revision.html#a6da3e567d72532783d22b5e291a2a1e0" target="_top" xlink:title="add&#45;revision.find_rev">
<polygon fill="white" stroke="black" points="134.5,-40.5 134.5,-61.5 241.5,-61.5 241.5,-40.5 134.5,-40.5"/>
<text text-anchor="middle" x="188" y="-48.5" font-family="Helvetica,sans-Serif" font-size="10.00">add&#45;revision.find_rev</text>
</a>
</g>
<!-- Node1&#45;&gt;Node2 -->
<g id="edge2" class="edge"><title>Node1&#45;&gt;Node2</title>
<path fill="none" stroke="midnightblue" d="M108.068,-39.499C116.754,-40.7488 125.664,-42.0307 134.236,-43.2641"/>
<polygon fill="midnightblue" stroke="midnightblue" points="108.403,-36.0112 98.0062,-38.0513 107.406,-42.9398 108.403,-36.0112"/>
</g>
<!-- Node6 -->
<g id="node12" class="node"><title>Node6</title>
<a xlink:href="../../d7/d6d/namespaceadd-revision.html#a00e6cda950af62bf6097ab06d622ac8c" target="_top" xlink:title="add&#45;revision.find_tag">
<polygon fill="white" stroke="black" points="134.5,-0.5 134.5,-21.5 241.5,-21.5 241.5,-0.5 134.5,-0.5"/>
<text text-anchor="middle" x="188" y="-8.5" font-family="Helvetica,sans-Serif" font-size="10.00">add&#45;revision.find_tag</text>
</a>
</g>
<!-- Node1&#45;&gt;Node6 -->
<g id="edge12" class="edge"><title>Node1&#45;&gt;Node6</title>
<path fill="none" stroke="midnightblue" d="M108.068,-22.501C116.754,-21.2512 125.664,-19.9693 134.236,-18.7359"/>
<polygon fill="midnightblue" stroke="midnightblue" points="107.406,-19.0602 98.0062,-23.9487 108.403,-25.9888 107.406,-19.0602"/>
</g>
<!-- Node3 -->
<g id="node5" class="node"><title>Node3</title>
<a xlink:href="../../d7/d6d/namespaceadd-revision.html#a847a6821db9c3759448561bf59fba19e" target="_top" xlink:title="add&#45;revision.add_revision">
<polygon fill="white" stroke="black" points="418.5,-20.5 418.5,-41.5 545.5,-41.5 545.5,-20.5 418.5,-20.5"/>
<text text-anchor="middle" x="482" y="-28.5" font-family="Helvetica,sans-Serif" font-size="10.00">add&#45;revision.add_revision</text>
</a>
</g>
<!-- Node2&#45;&gt;Node3 -->
<g id="edge4" class="edge"><title>Node2&#45;&gt;Node3</title>
<path fill="none" stroke="midnightblue" d="M251.807,-46.6594C301.108,-43.3056 369.022,-38.6856 418.297,-35.3335"/>
<polygon fill="midnightblue" stroke="midnightblue" points="251.322,-43.1842 241.582,-47.3549 251.797,-50.1681 251.322,-43.1842"/>
</g>
<!-- Node5 -->
<g id="node9" class="node"><title>Node5</title>
<a xlink:href="../../d7/d6d/namespaceadd-revision.html#a777e2474c5634bc3e0266c56777978e6" target="_top" xlink:title="add&#45;revision.find_ref">
<polygon fill="white" stroke="black" points="278,-1.5 278,-22.5 382,-22.5 382,-1.5 278,-1.5"/>
<text text-anchor="middle" x="330" y="-9.5" font-family="Helvetica,sans-Serif" font-size="10.00">add&#45;revision.find_ref</text>
</a>
</g>
<!-- Node2&#45;&gt;Node5 -->
<g id="edge8" class="edge"><title>Node2&#45;&gt;Node5</title>
<path fill="none" stroke="midnightblue" d="M236.193,-37.7638C254.242,-32.8069 274.49,-27.2458 291.542,-22.5624"/>
<polygon fill="midnightblue" stroke="midnightblue" points="235.143,-34.4225 226.427,-40.446 236.997,-41.1726 235.143,-34.4225"/>
</g>
<!-- Node4 -->
<g id="node7" class="node"><title>Node4</title>
<a xlink:href="../../d7/d6d/namespaceadd-revision.html#a5a4ffebf4076e1f22253f727abd6860a" target="_top" xlink:title="add&#45;revision.main">
<polygon fill="white" stroke="black" points="582.5,-20.5 582.5,-41.5 675.5,-41.5 675.5,-20.5 582.5,-20.5"/>
<text text-anchor="middle" x="629" y="-28.5" font-family="Helvetica,sans-Serif" font-size="10.00">add&#45;revision.main</text>
</a>
</g>
<!-- Node3&#45;&gt;Node4 -->
<g id="edge6" class="edge"><title>Node3&#45;&gt;Node4</title>
<path fill="none" stroke="midnightblue" d="M555.734,-31C564.714,-31 573.689,-31 582.124,-31"/>
<polygon fill="midnightblue" stroke="midnightblue" points="555.621,-27.5001 545.621,-31 555.621,-34.5001 555.621,-27.5001"/>
</g>
<!-- Node5&#45;&gt;Node3 -->
<g id="edge10" class="edge"><title>Node5&#45;&gt;Node3</title>
<path fill="none" stroke="midnightblue" d="M392.258,-19.7822C400.851,-20.8563 409.686,-21.9607 418.304,-23.038"/>
<polygon fill="midnightblue" stroke="midnightblue" points="392.667,-16.3062 382.31,-18.5387 391.798,-23.2521 392.667,-16.3062"/>
</g>
<!-- Node6&#45;&gt;Node5 -->
<g id="edge14" class="edge"><title>Node6&#45;&gt;Node5</title>
<path fill="none" stroke="midnightblue" d="M251.754,-11.449C260.415,-11.51 269.222,-11.572 277.651,-11.6313"/>
<polygon fill="midnightblue" stroke="midnightblue" points="251.709,-7.94866 241.684,-11.3781 251.659,-14.9485 251.709,-7.94866"/>
</g>
</g>
</svg>
        <g id="navigator" transform="translate(0 0)" fill="#404254">
                <rect fill="#f2f5e9" fill-opacity="0.5" stroke="#606060" stroke-width=".5" x="0" y="0" width="60" height="60"/>
                <use id="zoomplus" xlink:href="#zoomPlus" x="17" y="9" onmousedown="handleZoom(evt,'in')"/>
                <use id="zoomminus" xlink:href="#zoomMin" x="42" y="9" onmousedown="handleZoom(evt,'out')"/>
                <use id="reset" xlink:href="#resetDef" x="30" y="36" onmousedown="handleReset()"/>
                <g id="arrowUp" xlink:href="#dirArrow" transform="translate(30 24)" onmousedown="handlePan(0,-1)">
                  <use xlink:href="#rim" fill="#404040">
                        <set attributeName="fill" to="#808080" begin="arrowUp.mouseover" end="arrowUp.mouseout"/>
                  </use>
                  <path fill="none" stroke="white" stroke-width="1.5" d="M0,-3.0v7 M-2.5,-0.5L0,-3.0L2.5,-0.5"/>
                </g>
                <g id="arrowRight" xlink:href="#dirArrow" transform="rotate(90) translate(36 -43)" onmousedown="handlePan(1,0)">
                  <use xlink:href="#rim" fill="#404040">
                        <set attributeName="fill" to="#808080" begin="arrowRight.mouseover" end="arrowRight.mouseout"/>
                  </use>
                  <path fill="none" stroke="white" stroke-width="1.5" d="M0,-3.0v7 M-2.5,-0.5L0,-3.0L2.5,-0.5"/>
                </g>
                <g id="arrowDown" xlink:href="#dirArrow" transform="rotate(180) translate(-30 -48)" onmousedown="handlePan(0,1)">
                  <use xlink:href="#rim" fill="#404040">
                        <set attributeName="fill" to="#808080" begin="arrowDown.mouseover" end="arrowDown.mouseout"/>
                  </use>
                  <path fill="none" stroke="white" stroke-width="1.5" d="M0,-3.0v7 M-2.5,-0.5L0,-3.0L2.5,-0.5"/>
                </g>
                <g id="arrowLeft" xlink:href="#dirArrow" transform="rotate(270) translate(-36 17)" onmousedown="handlePan(-1,0)">
                  <use xlink:href="#rim" fill="#404040">
                        <set attributeName="fill" to="#808080" begin="arrowLeft.mouseover" end="arrowLeft.mouseout"/>
                  </use>
                  <path fill="none" stroke="white" stroke-width="1.5" d="M0,-3.0v7 M-2.5,-0.5L0,-3.0L2.5,-0.5"/>
                </g>
        </g>
</svg>
