<?xml version="1.0" encoding="UTF-8" standalone="no"?>
<!DOCTYPE svg PUBLIC "-//W3C//DTD SVG 1.1//EN"
 "http://www.w3.org/Graphics/SVG/1.1/DTD/svg11.dtd">
<!-- Generated by graphviz version 2.26.3 (20100126.1600)
 -->
<!-- Title: G Pages: 1 -->
<!--zoomable 109 -->
<svg id="main" version="1.1" xmlns="http://www.w3.org/2000/svg" xmlns:xlink="http://www.w3.org/1999/xlink" xml:space="preserve" onload="init(evt)">
        <defs>
                <circle id="rim" cx="0" cy="0" r="7"/>
                <circle id="rim2" cx="0" cy="0" r="3.5"/>
                <g id="zoomPlus">
                        <use xlink:href="#rim" fill="#404040">
                                <set attributeName="fill" to="#808080" begin="zoomplus.mouseover" end="zoomplus.mouseout"/>
                        </use>
                        <path d="M-4,0h8M0,-4v8" fill="none" stroke="white" stroke-width="1.5" pointer-events="none"/>
                </g>
                <g id="zoomMin">
                        <use xlink:href="#rim" fill="#404040">
                                <set attributeName="fill" to="#808080" begin="zoomminus.mouseover" end="zoomminus.mouseout"/>
                        </use>
                        <path d="M-4,0h8" fill="none" stroke="white" stroke-width="1.5" pointer-events="none"/>
                </g>
                <g id="dirArrow">
                        <path fill="none" stroke="white" stroke-width="1.5" d="M0,-3.0v7 M-2.5,-0.5L0,-3.0L2.5,-0.5"/>
                </g>
               <g id="resetDef">
                       <use xlink:href="#rim2" fill="#404040">
                               <set attributeName="fill" to="#808080" begin="reset.mouseover" end="reset.mouseout"/>
                       </use>
               </g>
        </defs>

<script type="text/javascript">
var viewWidth = 718;
var viewHeight = 109;
var sectionId = 'dynsection-0';
</script>
<script xlink:href="../../svgpan.js"/>
<svg id="graph" class="graph">
<g id="viewport">
<title>G</title>
<polygon fill="white" stroke="white" points="-4,5 -4,-105 715,-105 715,5 -4,5"/>
<!-- Node1 -->
<g id="node1" class="node"><title>Node1</title>
<polygon fill="#bfbfbf" stroke="black" points="0.5,-39.5 0.5,-60.5 127.5,-60.5 127.5,-39.5 0.5,-39.5"/>
<text text-anchor="middle" x="64" y="-47.5" font-family="Helvetica,sans-Serif" font-size="10.00">add&#45;revision.add_revision</text>
</g>
<!-- Node2 -->
<g id="node3" class="node"><title>Node2</title>
<a xlink:href="../../d7/d6d/namespaceadd-revision.html#a777e2474c5634bc3e0266c56777978e6" target="_top" xlink:title="add&#45;revision.find_ref">
<polygon fill="white" stroke="black" points="182,-78.5 182,-99.5 286,-99.5 286,-78.5 182,-78.5"/>
<text text-anchor="middle" x="234" y="-86.5" font-family="Helvetica,sans-Serif" font-size="10.00">add&#45;revision.find_ref</text>
</a>
</g>
<!-- Node1&#45;&gt;Node2 -->
<g id="edge2" class="edge"><title>Node1&#45;&gt;Node2</title>
<path fill="none" stroke="midnightblue" d="M110.004,-60.554C130.982,-65.3664 156.004,-71.1068 178.059,-76.1665"/>
<polygon fill="midnightblue" stroke="midnightblue" points="177.429,-79.6129 187.959,-78.4376 178.995,-72.7901 177.429,-79.6129"/>
</g>
<!-- Node6 -->
<g id="node11" class="node"><title>Node6</title>
<a xlink:href="../../d7/d6d/namespaceadd-revision.html#a6da3e567d72532783d22b5e291a2a1e0" target="_top" xlink:title="add&#45;revision.find_rev">
<polygon fill="white" stroke="black" points="340.5,-39.5 340.5,-60.5 447.5,-60.5 447.5,-39.5 340.5,-39.5"/>
<text text-anchor="middle" x="394" y="-47.5" font-family="Helvetica,sans-Serif" font-size="10.00">add&#45;revision.find_rev</text>
</a>
</g>
<!-- Node1&#45;&gt;Node6 -->
<g id="edge14" class="edge"><title>Node1&#45;&gt;Node6</title>
<path fill="none" stroke="midnightblue" d="M127.627,-50C185.933,-50 271.813,-50 330.18,-50"/>
<polygon fill="midnightblue" stroke="midnightblue" points="330.383,-53.5001 340.383,-50 330.383,-46.5001 330.383,-53.5001"/>
</g>
<!-- Node7 -->
<g id="node15" class="node"><title>Node7</title>
<a xlink:href="../../d7/d6d/namespaceadd-revision.html#a2517334cd7dafdaf3d7285ad0b1e3269" target="_top" xlink:title="add&#45;revision.parse_manifest">
<polygon fill="white" stroke="black" points="164.5,-0.5 164.5,-21.5 303.5,-21.5 303.5,-0.5 164.5,-0.5"/>
<text text-anchor="middle" x="234" y="-8.5" font-family="Helvetica,sans-Serif" font-size="10.00">add&#45;revision.parse_manifest</text>
</a>
</g>
<!-- Node1&#45;&gt;Node7 -->
<g id="edge16" class="edge"><title>Node1&#45;&gt;Node7</title>
<path fill="none" stroke="midnightblue" d="M110.004,-39.446C130.982,-34.6336 156.004,-28.8932 178.059,-23.8335"/>
<polygon fill="midnightblue" stroke="midnightblue" points="178.995,-27.2099 187.959,-21.5624 177.429,-20.3871 178.995,-27.2099"/>
</g>
<!-- Node3 -->
<g id="node5" class="node"><title>Node3</title>
<a xlink:href="../../d7/d6d/namespaceadd-revision.html#a00e6cda950af62bf6097ab06d622ac8c" target="_top" xlink:title="add&#45;revision.find_tag">
<polygon fill="white" stroke="black" points="340.5,-79.5 340.5,-100.5 447.5,-100.5 447.5,-79.5 340.5,-79.5"/>
<text text-anchor="middle" x="394" y="-87.5" font-family="Helvetica,sans-Serif" font-size="10.00">add&#45;revision.find_tag</text>
</a>
</g>
<!-- Node2&#45;&gt;Node3 -->
<g id="edge4" class="edge"><title>Node2&#45;&gt;Node3</title>
<path fill="none" stroke="midnightblue" d="M286.39,-89.3274C300.324,-89.4145 315.532,-89.5096 330.011,-89.6001"/>
<polygon fill="midnightblue" stroke="midnightblue" points="330.374,-93.1023 340.396,-89.665 330.418,-86.1024 330.374,-93.1023"/>
</g>
<!-- Node2&#45;&gt;Node6 -->
<g id="edge10" class="edge"><title>Node2&#45;&gt;Node6</title>
<path fill="none" stroke="midnightblue" d="M277.298,-78.446C296.864,-73.677 320.168,-67.9965 340.788,-62.9704"/>
<polygon fill="midnightblue" stroke="midnightblue" points="341.78,-66.3311 350.667,-60.5624 340.123,-59.5302 341.78,-66.3311"/>
</g>
<!-- Node4 -->
<g id="node7" class="node"><title>Node4</title>
<a xlink:href="../../d7/d6d/namespaceadd-revision.html#a9e3e377ac6be1a024a7b6268bdc62b6d" target="_top" xlink:title="add&#45;revision.git_op">
<polygon fill="white" stroke="black" points="484,-59.5 484,-80.5 582,-80.5 582,-59.5 484,-59.5"/>
<text text-anchor="middle" x="533" y="-67.5" font-family="Helvetica,sans-Serif" font-size="10.00">add&#45;revision.git_op</text>
</a>
</g>
<!-- Node3&#45;&gt;Node4 -->
<g id="edge6" class="edge"><title>Node3&#45;&gt;Node4</title>
<path fill="none" stroke="midnightblue" d="M447.741,-82.2675C456.307,-81.035 465.21,-79.754 473.892,-78.5048"/>
<polygon fill="midnightblue" stroke="midnightblue" points="474.548,-81.9464 483.948,-77.0578 473.551,-75.0178 474.548,-81.9464"/>
</g>
<!-- Node5 -->
<g id="node9" class="node"><title>Node5</title>
<a xlink:href="../../d7/d6d/namespaceadd-revision.html#a1e57a0b1fec63780cb9ef1ace425563d" target="_top" xlink:title="add&#45;revision.cmd">
<polygon fill="white" stroke="black" points="618.5,-59.5 618.5,-80.5 709.5,-80.5 709.5,-59.5 618.5,-59.5"/>
<text text-anchor="middle" x="664" y="-67.5" font-family="Helvetica,sans-Serif" font-size="10.00">add&#45;revision.cmd</text>
</a>
</g>
<!-- Node4&#45;&gt;Node5 -->
<g id="edge8" class="edge"><title>Node4&#45;&gt;Node5</title>
<path fill="none" stroke="midnightblue" d="M582.152,-70C590.71,-70 599.666,-70 608.382,-70"/>
<polygon fill="midnightblue" stroke="midnightblue" points="608.467,-73.5001 618.467,-70 608.467,-66.5001 608.467,-73.5001"/>
</g>
<!-- Node6&#45;&gt;Node4 -->
<g id="edge12" class="edge"><title>Node6&#45;&gt;Node4</title>
<path fill="none" stroke="midnightblue" d="M447.741,-57.7325C456.307,-58.965 465.21,-60.246 473.892,-61.4952"/>
<polygon fill="midnightblue" stroke="midnightblue" points="473.551,-64.9822 483.948,-62.9422 474.548,-58.0536 473.551,-64.9822"/>
</g>
</g>
</svg>
        <g id="navigator" transform="translate(0 0)" fill="#404254">
                <rect fill="#f2f5e9" fill-opacity="0.5" stroke="#606060" stroke-width=".5" x="0" y="0" width="60" height="60"/>
                <use id="zoomplus" xlink:href="#zoomPlus" x="17" y="9" onmousedown="handleZoom(evt,'in')"/>
                <use id="zoomminus" xlink:href="#zoomMin" x="42" y="9" onmousedown="handleZoom(evt,'out')"/>
                <use id="reset" xlink:href="#resetDef" x="30" y="36" onmousedown="handleReset()"/>
                <g id="arrowUp" xlink:href="#dirArrow" transform="translate(30 24)" onmousedown="handlePan(0,-1)">
                  <use xlink:href="#rim" fill="#404040">
                        <set attributeName="fill" to="#808080" begin="arrowUp.mouseover" end="arrowUp.mouseout"/>
                  </use>
                  <path fill="none" stroke="white" stroke-width="1.5" d="M0,-3.0v7 M-2.5,-0.5L0,-3.0L2.5,-0.5"/>
                </g>
                <g id="arrowRight" xlink:href="#dirArrow" transform="rotate(90) translate(36 -43)" onmousedown="handlePan(1,0)">
                  <use xlink:href="#rim" fill="#404040">
                        <set attributeName="fill" to="#808080" begin="arrowRight.mouseover" end="arrowRight.mouseout"/>
                  </use>
                  <path fill="none" stroke="white" stroke-width="1.5" d="M0,-3.0v7 M-2.5,-0.5L0,-3.0L2.5,-0.5"/>
                </g>
                <g id="arrowDown" xlink:href="#dirArrow" transform="rotate(180) translate(-30 -48)" onmousedown="handlePan(0,1)">
                  <use xlink:href="#rim" fill="#404040">
                        <set attributeName="fill" to="#808080" begin="arrowDown.mouseover" end="arrowDown.mouseout"/>
                  </use>
                  <path fill="none" stroke="white" stroke-width="1.5" d="M0,-3.0v7 M-2.5,-0.5L0,-3.0L2.5,-0.5"/>
                </g>
                <g id="arrowLeft" xlink:href="#dirArrow" transform="rotate(270) translate(-36 17)" onmousedown="handlePan(-1,0)">
                  <use xlink:href="#rim" fill="#404040">
                        <set attributeName="fill" to="#808080" begin="arrowLeft.mouseover" end="arrowLeft.mouseout"/>
                  </use>
                  <path fill="none" stroke="white" stroke-width="1.5" d="M0,-3.0v7 M-2.5,-0.5L0,-3.0L2.5,-0.5"/>
                </g>
        </g>
</svg>
