<?xml version="1.0" encoding="UTF-8" standalone="no"?>
<!DOCTYPE svg PUBLIC "-//W3C//DTD SVG 1.1//EN"
 "http://www.w3.org/Graphics/SVG/1.1/DTD/svg11.dtd">
<!-- Generated by graphviz version 2.26.3 (20100126.1600)
 -->
<!-- Title: G Pages: 1 -->
<!--zoomable 109 -->
<svg id="main" version="1.1" xmlns="http://www.w3.org/2000/svg" xmlns:xlink="http://www.w3.org/1999/xlink" xml:space="preserve" onload="init(evt)">
        <defs>
                <circle id="rim" cx="0" cy="0" r="7"/>
                <circle id="rim2" cx="0" cy="0" r="3.5"/>
                <g id="zoomPlus">
                        <use xlink:href="#rim" fill="#404040">
                                <set attributeName="fill" to="#808080" begin="zoomplus.mouseover" end="zoomplus.mouseout"/>
                        </use>
                        <path d="M-4,0h8M0,-4v8" fill="none" stroke="white" stroke-width="1.5" pointer-events="none"/>
                </g>
                <g id="zoomMin">
                        <use xlink:href="#rim" fill="#404040">
                                <set attributeName="fill" to="#808080" begin="zoomminus.mouseover" end="zoomminus.mouseout"/>
                        </use>
                        <path d="M-4,0h8" fill="none" stroke="white" stroke-width="1.5" pointer-events="none"/>
                </g>
                <g id="dirArrow">
                        <path fill="none" stroke="white" stroke-width="1.5" d="M0,-3.0v7 M-2.5,-0.5L0,-3.0L2.5,-0.5"/>
                </g>
               <g id="resetDef">
                       <use xlink:href="#rim2" fill="#404040">
                               <set attributeName="fill" to="#808080" begin="reset.mouseover" end="reset.mouseout"/>
                       </use>
               </g>
        </defs>

<script type="text/javascript">
var viewWidth = 848;
var viewHeight = 109;
var sectionId = 'dynsection-11';
</script>
<script xlink:href="../../svgpan.js"/>
<svg id="graph" class="graph">
<g id="viewport">
<title>G</title>
<polygon fill="white" stroke="white" points="-4,5 -4,-105 845,-105 845,5 -4,5"/>
<!-- Node1 -->
<g id="node1" class="node"><title>Node1</title>
<polygon fill="#bfbfbf" stroke="black" points="0.5,-40.5 0.5,-61.5 93.5,-61.5 93.5,-40.5 0.5,-40.5"/>
<text text-anchor="middle" x="47" y="-48.5" font-family="Helvetica,sans-Serif" font-size="10.00">add&#45;revision.main</text>
</g>
<!-- Node2 -->
<g id="node3" class="node"><title>Node2</title>
<a xlink:href="../../d7/d6d/namespaceadd-revision.html#a847a6821db9c3759448561bf59fba19e" target="_top" xlink:title="add&#45;revision.add_revision">
<polygon fill="white" stroke="black" points="130.5,-40.5 130.5,-61.5 257.5,-61.5 257.5,-40.5 130.5,-40.5"/>
<text text-anchor="middle" x="194" y="-48.5" font-family="Helvetica,sans-Serif" font-size="10.00">add&#45;revision.add_revision</text>
</a>
</g>
<!-- Node1&#45;&gt;Node2 -->
<g id="edge2" class="edge"><title>Node1&#45;&gt;Node2</title>
<path fill="none" stroke="midnightblue" d="M93.5117,-51C102.007,-51 111.06,-51 120.121,-51"/>
<polygon fill="midnightblue" stroke="midnightblue" points="120.325,-54.5001 130.325,-51 120.325,-47.5001 120.325,-54.5001"/>
</g>
<!-- Node3 -->
<g id="node5" class="node"><title>Node3</title>
<a xlink:href="../../d7/d6d/namespaceadd-revision.html#a777e2474c5634bc3e0266c56777978e6" target="_top" xlink:title="add&#45;revision.find_ref">
<polygon fill="white" stroke="black" points="312,-40.5 312,-61.5 416,-61.5 416,-40.5 312,-40.5"/>
<text text-anchor="middle" x="364" y="-48.5" font-family="Helvetica,sans-Serif" font-size="10.00">add&#45;revision.find_ref</text>
</a>
</g>
<!-- Node2&#45;&gt;Node3 -->
<g id="edge4" class="edge"><title>Node2&#45;&gt;Node3</title>
<path fill="none" stroke="midnightblue" d="M257.785,-51C272.114,-51 287.302,-51 301.575,-51"/>
<polygon fill="midnightblue" stroke="midnightblue" points="301.78,-54.5001 311.78,-51 301.78,-47.5001 301.78,-54.5001"/>
</g>
<!-- Node4 -->
<g id="node7" class="node"><title>Node4</title>
<a xlink:href="../../d7/d6d/namespaceadd-revision.html#a6da3e567d72532783d22b5e291a2a1e0" target="_top" xlink:title="add&#45;revision.find_rev">
<polygon fill="white" stroke="black" points="470.5,-79.5 470.5,-100.5 577.5,-100.5 577.5,-79.5 470.5,-79.5"/>
<text text-anchor="middle" x="524" y="-87.5" font-family="Helvetica,sans-Serif" font-size="10.00">add&#45;revision.find_rev</text>
</a>
</g>
<!-- Node2&#45;&gt;Node4 -->
<g id="edge16" class="edge"><title>Node2&#45;&gt;Node4</title>
<path fill="none" stroke="midnightblue" d="M240.865,-61.5303C257.565,-64.975 276.556,-68.5433 294,-71 349.881,-78.8697 413.895,-83.8312 460.176,-86.7024"/>
<polygon fill="midnightblue" stroke="midnightblue" points="460.168,-90.2082 470.361,-87.3183 460.591,-83.221 460.168,-90.2082"/>
</g>
<!-- Node8 -->
<g id="node17" class="node"><title>Node8</title>
<a xlink:href="../../d7/d6d/namespaceadd-revision.html#a2517334cd7dafdaf3d7285ad0b1e3269" target="_top" xlink:title="add&#45;revision.parse_manifest">
<polygon fill="white" stroke="black" points="294.5,-0.5 294.5,-21.5 433.5,-21.5 433.5,-0.5 294.5,-0.5"/>
<text text-anchor="middle" x="364" y="-8.5" font-family="Helvetica,sans-Serif" font-size="10.00">add&#45;revision.parse_manifest</text>
</a>
</g>
<!-- Node2&#45;&gt;Node8 -->
<g id="edge18" class="edge"><title>Node2&#45;&gt;Node8</title>
<path fill="none" stroke="midnightblue" d="M238.665,-40.4905C260.346,-35.3892 286.584,-29.2155 309.439,-23.8378"/>
<polygon fill="midnightblue" stroke="midnightblue" points="310.405,-27.2061 319.338,-21.5087 308.802,-20.3922 310.405,-27.2061"/>
</g>
<!-- Node3&#45;&gt;Node4 -->
<g id="edge6" class="edge"><title>Node3&#45;&gt;Node4</title>
<path fill="none" stroke="midnightblue" d="M407.298,-61.554C426.864,-66.323 450.168,-72.0035 470.788,-77.0296"/>
<polygon fill="midnightblue" stroke="midnightblue" points="470.123,-80.4698 480.667,-79.4376 471.78,-73.6689 470.123,-80.4698"/>
</g>
<!-- Node7 -->
<g id="node13" class="node"><title>Node7</title>
<a xlink:href="../../d7/d6d/namespaceadd-revision.html#a00e6cda950af62bf6097ab06d622ac8c" target="_top" xlink:title="add&#45;revision.find_tag">
<polygon fill="white" stroke="black" points="470.5,-39.5 470.5,-60.5 577.5,-60.5 577.5,-39.5 470.5,-39.5"/>
<text text-anchor="middle" x="524" y="-47.5" font-family="Helvetica,sans-Serif" font-size="10.00">add&#45;revision.find_tag</text>
</a>
</g>
<!-- Node3&#45;&gt;Node7 -->
<g id="edge12" class="edge"><title>Node3&#45;&gt;Node7</title>
<path fill="none" stroke="midnightblue" d="M416.39,-50.6726C430.324,-50.5855 445.532,-50.4904 460.011,-50.3999"/>
<polygon fill="midnightblue" stroke="midnightblue" points="460.418,-53.8976 470.396,-50.335 460.374,-46.8977 460.418,-53.8976"/>
</g>
<!-- Node5 -->
<g id="node9" class="node"><title>Node5</title>
<a xlink:href="../../d7/d6d/namespaceadd-revision.html#a9e3e377ac6be1a024a7b6268bdc62b6d" target="_top" xlink:title="add&#45;revision.git_op">
<polygon fill="white" stroke="black" points="614,-59.5 614,-80.5 712,-80.5 712,-59.5 614,-59.5"/>
<text text-anchor="middle" x="663" y="-67.5" font-family="Helvetica,sans-Serif" font-size="10.00">add&#45;revision.git_op</text>
</a>
</g>
<!-- Node4&#45;&gt;Node5 -->
<g id="edge8" class="edge"><title>Node4&#45;&gt;Node5</title>
<path fill="none" stroke="midnightblue" d="M577.741,-82.2675C586.307,-81.035 595.21,-79.754 603.892,-78.5048"/>
<polygon fill="midnightblue" stroke="midnightblue" points="604.548,-81.9464 613.948,-77.0578 603.551,-75.0178 604.548,-81.9464"/>
</g>
<!-- Node6 -->
<g id="node11" class="node"><title>Node6</title>
<a xlink:href="../../d7/d6d/namespaceadd-revision.html#a1e57a0b1fec63780cb9ef1ace425563d" target="_top" xlink:title="add&#45;revision.cmd">
<polygon fill="white" stroke="black" points="748.5,-59.5 748.5,-80.5 839.5,-80.5 839.5,-59.5 748.5,-59.5"/>
<text text-anchor="middle" x="794" y="-67.5" font-family="Helvetica,sans-Serif" font-size="10.00">add&#45;revision.cmd</text>
</a>
</g>
<!-- Node5&#45;&gt;Node6 -->
<g id="edge10" class="edge"><title>Node5&#45;&gt;Node6</title>
<path fill="none" stroke="midnightblue" d="M712.152,-70C720.71,-70 729.666,-70 738.382,-70"/>
<polygon fill="midnightblue" stroke="midnightblue" points="738.467,-73.5001 748.467,-70 738.467,-66.5001 738.467,-73.5001"/>
</g>
<!-- Node7&#45;&gt;Node5 -->
<g id="edge14" class="edge"><title>Node7&#45;&gt;Node5</title>
<path fill="none" stroke="midnightblue" d="M577.741,-57.7325C586.307,-58.965 595.21,-60.246 603.892,-61.4952"/>
<polygon fill="midnightblue" stroke="midnightblue" points="603.551,-64.9822 613.948,-62.9422 604.548,-58.0536 603.551,-64.9822"/>
</g>
</g>
</svg>
        <g id="navigator" transform="translate(0 0)" fill="#404254">
                <rect fill="#f2f5e9" fill-opacity="0.5" stroke="#606060" stroke-width=".5" x="0" y="0" width="60" height="60"/>
                <use id="zoomplus" xlink:href="#zoomPlus" x="17" y="9" onmousedown="handleZoom(evt,'in')"/>
                <use id="zoomminus" xlink:href="#zoomMin" x="42" y="9" onmousedown="handleZoom(evt,'out')"/>
                <use id="reset" xlink:href="#resetDef" x="30" y="36" onmousedown="handleReset()"/>
                <g id="arrowUp" xlink:href="#dirArrow" transform="translate(30 24)" onmousedown="handlePan(0,-1)">
                  <use xlink:href="#rim" fill="#404040">
                        <set attributeName="fill" to="#808080" begin="arrowUp.mouseover" end="arrowUp.mouseout"/>
                  </use>
                  <path fill="none" stroke="white" stroke-width="1.5" d="M0,-3.0v7 M-2.5,-0.5L0,-3.0L2.5,-0.5"/>
                </g>
                <g id="arrowRight" xlink:href="#dirArrow" transform="rotate(90) translate(36 -43)" onmousedown="handlePan(1,0)">
                  <use xlink:href="#rim" fill="#404040">
                        <set attributeName="fill" to="#808080" begin="arrowRight.mouseover" end="arrowRight.mouseout"/>
                  </use>
                  <path fill="none" stroke="white" stroke-width="1.5" d="M0,-3.0v7 M-2.5,-0.5L0,-3.0L2.5,-0.5"/>
                </g>
                <g id="arrowDown" xlink:href="#dirArrow" transform="rotate(180) translate(-30 -48)" onmousedown="handlePan(0,1)">
                  <use xlink:href="#rim" fill="#404040">
                        <set attributeName="fill" to="#808080" begin="arrowDown.mouseover" end="arrowDown.mouseout"/>
                  </use>
                  <path fill="none" stroke="white" stroke-width="1.5" d="M0,-3.0v7 M-2.5,-0.5L0,-3.0L2.5,-0.5"/>
                </g>
                <g id="arrowLeft" xlink:href="#dirArrow" transform="rotate(270) translate(-36 17)" onmousedown="handlePan(-1,0)">
                  <use xlink:href="#rim" fill="#404040">
                        <set attributeName="fill" to="#808080" begin="arrowLeft.mouseover" end="arrowLeft.mouseout"/>
                  </use>
                  <path fill="none" stroke="white" stroke-width="1.5" d="M0,-3.0v7 M-2.5,-0.5L0,-3.0L2.5,-0.5"/>
                </g>
        </g>
</svg>
