<?xml version="1.0" encoding="UTF-8" standalone="no"?>
<!DOCTYPE svg PUBLIC "-//W3C//DTD SVG 1.1//EN"
 "http://www.w3.org/Graphics/SVG/1.1/DTD/svg11.dtd">
<!-- Generated by graphviz version 2.26.3 (20100126.1600)
 -->
<!-- Title: G Pages: 1 -->
<svg width="378pt" height="30pt"
 viewBox="0.00 0.00 378.00 30.00" xmlns="http://www.w3.org/2000/svg" xmlns:xlink="http://www.w3.org/1999/xlink">
<g id="graph1" class="graph" transform="scale(1 1) rotate(0) translate(4 26)">
<title>G</title>
<polygon fill="white" stroke="white" points="-4,5 -4,-26 375,-26 375,5 -4,5"/>
<!-- Node1 -->
<g id="node1" class="node"><title>Node1</title>
<polygon fill="#bfbfbf" stroke="black" points="0.5,-0.5 0.5,-21.5 107.5,-21.5 107.5,-0.5 0.5,-0.5"/>
<text text-anchor="middle" x="54" y="-8.5" font-family="Helvetica,sans-Serif" font-size="10.00">add&#45;revision.find_tag</text>
</g>
<!-- Node2 -->
<g id="node3" class="node"><title>Node2</title>
<a xlink:href="../../d7/d6d/namespaceadd-revision.html#a9e3e377ac6be1a024a7b6268bdc62b6d" target="_top" xlink:title="add&#45;revision.git_op">
<polygon fill="white" stroke="black" points="144,-0.5 144,-21.5 242,-21.5 242,-0.5 144,-0.5"/>
<text text-anchor="middle" x="193" y="-8.5" font-family="Helvetica,sans-Serif" font-size="10.00">add&#45;revision.git_op</text>
</a>
</g>
<!-- Node1&#45;&gt;Node2 -->
<g id="edge2" class="edge"><title>Node1&#45;&gt;Node2</title>
<path fill="none" stroke="midnightblue" d="M107.741,-11C116.307,-11 125.21,-11 133.892,-11"/>
<polygon fill="midnightblue" stroke="midnightblue" points="133.948,-14.5001 143.948,-11 133.948,-7.5001 133.948,-14.5001"/>
</g>
<!-- Node3 -->
<g id="node5" class="node"><title>Node3</title>
<a xlink:href="../../d7/d6d/namespaceadd-revision.html#a1e57a0b1fec63780cb9ef1ace425563d" target="_top" xlink:title="add&#45;revision.cmd">
<polygon fill="white" stroke="black" points="278.5,-0.5 278.5,-21.5 369.5,-21.5 369.5,-0.5 278.5,-0.5"/>
<text text-anchor="middle" x="324" y="-8.5" font-family="Helvetica,sans-Serif" font-size="10.00">add&#45;revision.cmd</text>
</a>
</g>
<!-- Node2&#45;&gt;Node3 -->
<g id="edge4" class="edge"><title>Node2&#45;&gt;Node3</title>
<path fill="none" stroke="midnightblue" d="M242.152,-11C250.71,-11 259.666,-11 268.382,-11"/>
<polygon fill="midnightblue" stroke="midnightblue" points="268.467,-14.5001 278.467,-11 268.467,-7.5001 268.467,-14.5001"/>
</g>
</g>
</svg>
