<?xml version="1.0" encoding="UTF-8" standalone="no"?>
<!DOCTYPE svg PUBLIC "-//W3C//DTD SVG 1.1//EN"
 "http://www.w3.org/Graphics/SVG/1.1/DTD/svg11.dtd">
<!-- Generated by graphviz version 2.26.3 (20100126.1600)
 -->
<!-- Title: G Pages: 1 -->
<svg width="442pt" height="30pt"
 viewBox="0.00 0.00 442.00 30.00" xmlns="http://www.w3.org/2000/svg" xmlns:xlink="http://www.w3.org/1999/xlink">
<g id="graph1" class="graph" transform="scale(1 1) rotate(0) translate(4 26)">
<title>G</title>
<polygon fill="white" stroke="white" points="-4,5 -4,-26 439,-26 439,5 -4,5"/>
<!-- Node1 -->
<g id="node1" class="node"><title>Node1</title>
<polygon fill="#bfbfbf" stroke="black" points="0.5,-0.5 0.5,-21.5 139.5,-21.5 139.5,-0.5 0.5,-0.5"/>
<text text-anchor="middle" x="70" y="-8.5" font-family="Helvetica,sans-Serif" font-size="10.00">add&#45;revision.parse_manifest</text>
</g>
<!-- Node2 -->
<g id="node3" class="node"><title>Node2</title>
<a xlink:href="../../d7/d6d/namespaceadd-revision.html#a847a6821db9c3759448561bf59fba19e" target="_top" xlink:title="add&#45;revision.add_revision">
<polygon fill="white" stroke="black" points="176.5,-0.5 176.5,-21.5 303.5,-21.5 303.5,-0.5 176.5,-0.5"/>
<text text-anchor="middle" x="240" y="-8.5" font-family="Helvetica,sans-Serif" font-size="10.00">add&#45;revision.add_revision</text>
</a>
</g>
<!-- Node1&#45;&gt;Node2 -->
<g id="edge2" class="edge"><title>Node1&#45;&gt;Node2</title>
<path fill="none" stroke="midnightblue" d="M149.717,-11C158.694,-11 167.75,-11 176.482,-11"/>
<polygon fill="midnightblue" stroke="midnightblue" points="149.636,-7.5001 139.636,-11 149.636,-14.5001 149.636,-7.5001"/>
</g>
<!-- Node3 -->
<g id="node5" class="node"><title>Node3</title>
<a xlink:href="../../d7/d6d/namespaceadd-revision.html#a5a4ffebf4076e1f22253f727abd6860a" target="_top" xlink:title="add&#45;revision.main">
<polygon fill="white" stroke="black" points="340.5,-0.5 340.5,-21.5 433.5,-21.5 433.5,-0.5 340.5,-0.5"/>
<text text-anchor="middle" x="387" y="-8.5" font-family="Helvetica,sans-Serif" font-size="10.00">add&#45;revision.main</text>
</a>
</g>
<!-- Node2&#45;&gt;Node3 -->
<g id="edge4" class="edge"><title>Node2&#45;&gt;Node3</title>
<path fill="none" stroke="midnightblue" d="M313.734,-11C322.714,-11 331.689,-11 340.124,-11"/>
<polygon fill="midnightblue" stroke="midnightblue" points="313.621,-7.5001 303.621,-11 313.621,-14.5001 313.621,-7.5001"/>
</g>
</g>
</svg>
