<?xml version="1.0" encoding="UTF-8" standalone="no"?>
<!DOCTYPE svg PUBLIC "-//W3C//DTD SVG 1.1//EN"
 "http://www.w3.org/Graphics/SVG/1.1/DTD/svg11.dtd">
<!-- Generated by graphviz version 2.26.3 (20100126.1600)
 -->
<!-- Title: G Pages: 1 -->
<svg width="136pt" height="70pt"
 viewBox="0.00 0.00 136.00 70.00" xmlns="http://www.w3.org/2000/svg" xmlns:xlink="http://www.w3.org/1999/xlink">
<g id="graph1" class="graph" transform="scale(1 1) rotate(0) translate(4 66)">
<title>G</title>
<polygon fill="white" stroke="white" points="-4,5 -4,-66 133,-66 133,5 -4,5"/>
<!-- Node1 -->
<g id="node1" class="node"><title>Node1</title>
<a xlink:href="d7/d6d/class_task.html" target="_top" xlink:title="Task">
<polygon fill="white" stroke="black" points="0,-20.5 0,-41.5 38,-41.5 38,-20.5 0,-20.5"/>
<text text-anchor="middle" x="19" y="-28.5" font-family="Helvetica,sans-Serif" font-size="10.00">Task</text>
</a>
</g>
<!-- Node2 -->
<g id="node3" class="node"><title>Node2</title>
<a xlink:href="d1/d41/class_process.html" target="_top" xlink:title="Process">
<polygon fill="white" stroke="black" points="74.5,-40.5 74.5,-61.5 127.5,-61.5 127.5,-40.5 74.5,-40.5"/>
<text text-anchor="middle" x="101" y="-48.5" font-family="Helvetica,sans-Serif" font-size="10.00">Process</text>
</a>
</g>
<!-- Node1&#45;&gt;Node2 -->
<g id="edge2" class="edge"><title>Node1&#45;&gt;Node2</title>
<path fill="none" stroke="midnightblue" d="M47.9818,-38.0687C56.5558,-40.1599 65.899,-42.4388 74.3203,-44.4928"/>
<polygon fill="midnightblue" stroke="midnightblue" points="48.5631,-34.608 38.0186,-35.6387 46.9044,-41.4086 48.5631,-34.608"/>
</g>
<!-- Node3 -->
<g id="node5" class="node"><title>Node3</title>
<a xlink:href="d8/d18/class_thread.html" target="_top" xlink:title="Thread">
<polygon fill="white" stroke="black" points="77.5,-0.5 77.5,-21.5 124.5,-21.5 124.5,-0.5 77.5,-0.5"/>
<text text-anchor="middle" x="101" y="-8.5" font-family="Helvetica,sans-Serif" font-size="10.00">Thread</text>
</a>
</g>
<!-- Node1&#45;&gt;Node3 -->
<g id="edge4" class="edge"><title>Node1&#45;&gt;Node3</title>
<path fill="none" stroke="midnightblue" d="M47.9768,-23.9325C57.6101,-21.5829 68.2147,-18.9964 77.3922,-16.758"/>
<polygon fill="midnightblue" stroke="midnightblue" points="46.9044,-20.5914 38.0186,-26.3613 48.5631,-27.392 46.9044,-20.5914"/>
</g>
</g>
</svg>
