<?xml version="1.0" encoding="UTF-8" standalone="no"?>
<!DOCTYPE svg PUBLIC "-//W3C//DTD SVG 1.1//EN"
 "http://www.w3.org/Graphics/SVG/1.1/DTD/svg11.dtd">
<!-- Generated by graphviz version 2.26.3 (20100126.1600)
 -->
<!-- Title: G Pages: 1 -->
<svg width="344pt" height="30pt"
 viewBox="0.00 0.00 344.00 30.00" xmlns="http://www.w3.org/2000/svg" xmlns:xlink="http://www.w3.org/1999/xlink">
<g id="graph1" class="graph" transform="scale(1 1) rotate(0) translate(4 26)">
<title>G</title>
<polygon fill="white" stroke="white" points="-4,5 -4,-26 341,-26 341,5 -4,5"/>
<!-- Node1 -->
<g id="node1" class="node"><title>Node1</title>
<polygon fill="#bfbfbf" stroke="black" points="0,-0.5 0,-21.5 112,-21.5 112,-0.5 0,-0.5"/>
<text text-anchor="middle" x="56" y="-8.5" font-family="Helvetica,sans-Serif" font-size="10.00">xml2dict.serializeTree</text>
</g>
<!-- Node2 -->
<g id="node3" class="node"><title>Node2</title>
<a xlink:href="../../da/df2/namespacexml2dict.html#a97ca2ab7b3211a970dd1d9e73abc087f" target="_top" xlink:title="xml2dict.serializeNode">
<polygon fill="white" stroke="black" points="148,-0.5 148,-21.5 264,-21.5 264,-0.5 148,-0.5"/>
<text text-anchor="middle" x="206" y="-8.5" font-family="Helvetica,sans-Serif" font-size="10.00">xml2dict.serializeNode</text>
</a>
</g>
<!-- Node1&#45;&gt;Node2 -->
<g id="edge2" class="edge"><title>Node1&#45;&gt;Node2</title>
<path fill="none" stroke="midnightblue" d="M112.281,-11C120.555,-11 129.154,-11 137.639,-11"/>
<polygon fill="midnightblue" stroke="midnightblue" points="137.902,-14.5001 147.902,-11 137.902,-7.5001 137.902,-14.5001"/>
</g>
<!-- Node3 -->
<g id="node5" class="node"><title>Node3</title>
<a xlink:href="../../da/d7d/cook_8js.html#ab73f4a250dadcbe62393ae213ecd01c3" target="_top" xlink:title="print">
<polygon fill="white" stroke="black" points="300.5,-0.5 300.5,-21.5 335.5,-21.5 335.5,-0.5 300.5,-0.5"/>
<text text-anchor="middle" x="318" y="-8.5" font-family="Helvetica,sans-Serif" font-size="10.00">print</text>
</a>
</g>
<!-- Node2&#45;&gt;Node3 -->
<g id="edge4" class="edge"><title>Node2&#45;&gt;Node3</title>
<path fill="none" stroke="midnightblue" d="M264.296,-11C273.359,-11 282.341,-11 290.291,-11"/>
<polygon fill="midnightblue" stroke="midnightblue" points="290.404,-14.5001 300.404,-11 290.404,-7.5001 290.404,-14.5001"/>
</g>
</g>
</svg>
