<?xml version="1.0" encoding="UTF-8" standalone="no"?>
<!DOCTYPE svg PUBLIC "-//W3C//DTD SVG 1.1//EN"
 "http://www.w3.org/Graphics/SVG/1.1/DTD/svg11.dtd">
<!-- Generated by graphviz version 2.26.3 (20100126.1600)
 -->
<!-- Title: G Pages: 1 -->
<!--zoomable 784 -->
<svg id="main" version="1.1" xmlns="http://www.w3.org/2000/svg" xmlns:xlink="http://www.w3.org/1999/xlink" xml:space="preserve" onload="init(evt)">
        <defs>
                <circle id="rim" cx="0" cy="0" r="7"/>
                <circle id="rim2" cx="0" cy="0" r="3.5"/>
                <g id="zoomPlus">
                        <use xlink:href="#rim" fill="#404040">
                                <set attributeName="fill" to="#808080" begin="zoomplus.mouseover" end="zoomplus.mouseout"/>
                        </use>
                        <path d="M-4,0h8M0,-4v8" fill="none" stroke="white" stroke-width="1.5" pointer-events="none"/>
                </g>
                <g id="zoomMin">
                        <use xlink:href="#rim" fill="#404040">
                                <set attributeName="fill" to="#808080" begin="zoomminus.mouseover" end="zoomminus.mouseout"/>
                        </use>
                        <path d="M-4,0h8" fill="none" stroke="white" stroke-width="1.5" pointer-events="none"/>
                </g>
                <g id="dirArrow">
                        <path fill="none" stroke="white" stroke-width="1.5" d="M0,-3.0v7 M-2.5,-0.5L0,-3.0L2.5,-0.5"/>
                </g>
               <g id="resetDef">
                       <use xlink:href="#rim2" fill="#404040">
                               <set attributeName="fill" to="#808080" begin="reset.mouseover" end="reset.mouseout"/>
                       </use>
               </g>
        </defs>

<script type="text/javascript">
var viewWidth = 1362;
var viewHeight = 784;
var sectionId = 'dynsection-0';
</script>
<script xlink:href="../../svgpan.js"/>
<svg id="graph" class="graph">
<g id="viewport">
<title>G</title>
<polygon fill="white" stroke="white" points="-4,5 -4,-780 1359,-780 1359,5 -4,5"/>
<!-- Node1 -->
<g id="node1" class="node"><title>Node1</title>
<polygon fill="#bfbfbf" stroke="black" points="0,-754.5 0,-775.5 418,-775.5 418,-754.5 0,-754.5"/>
<text text-anchor="middle" x="209" y="-762.5" font-family="Helvetica,sans-Serif" font-size="10.00">/home/aoi/Documents/FxOS/B2G/gaia/xulrunner&#45;sdk/include/nsIDOMXULCommandEvent.h</text>
</g>
<!-- Node2 -->
<g id="node3" class="node"><title>Node2</title>
<a xlink:href="../../dc/d9d/ns_i_d_o_m_u_i_event_8h.html" target="_top" xlink:title="nsIDOMUIEvent.h">
<polygon fill="white" stroke="black" points="160,-696.5 160,-717.5 258,-717.5 258,-696.5 160,-696.5"/>
<text text-anchor="middle" x="209" y="-704.5" font-family="Helvetica,sans-Serif" font-size="10.00">nsIDOMUIEvent.h</text>
</a>
</g>
<!-- Node1&#45;&gt;Node2 -->
<g id="edge2" class="edge"><title>Node1&#45;&gt;Node2</title>
<path fill="none" stroke="midnightblue" d="M209,-754.362C209,-746.922 209,-736.743 209,-727.728"/>
<polygon fill="midnightblue" stroke="midnightblue" points="212.5,-727.571 209,-717.571 205.5,-727.571 212.5,-727.571"/>
</g>
<!-- Node3 -->
<g id="node5" class="node"><title>Node3</title>
<a xlink:href="../../d6/df9/ns_i_d_o_m_event_8h.html" target="_top" xlink:title="nsIDOMEvent.h">
<polygon fill="white" stroke="black" points="165.5,-638.5 165.5,-659.5 252.5,-659.5 252.5,-638.5 165.5,-638.5"/>
<text text-anchor="middle" x="209" y="-646.5" font-family="Helvetica,sans-Serif" font-size="10.00">nsIDOMEvent.h</text>
</a>
</g>
<!-- Node2&#45;&gt;Node3 -->
<g id="edge4" class="edge"><title>Node2&#45;&gt;Node3</title>
<path fill="none" stroke="midnightblue" d="M209,-696.362C209,-688.922 209,-678.743 209,-669.728"/>
<polygon fill="midnightblue" stroke="midnightblue" points="212.5,-669.571 209,-659.571 205.5,-669.571 212.5,-669.571"/>
</g>
<!-- Node4 -->
<g id="node7" class="node"><title>Node4</title>
<a xlink:href="../../dd/d50/domstubs_8h.html" target="_top" xlink:title="domstubs.h">
<polygon fill="white" stroke="black" points="175,-580.5 175,-601.5 243,-601.5 243,-580.5 175,-580.5"/>
<text text-anchor="middle" x="209" y="-588.5" font-family="Helvetica,sans-Serif" font-size="10.00">domstubs.h</text>
</a>
</g>
<!-- Node3&#45;&gt;Node4 -->
<g id="edge6" class="edge"><title>Node3&#45;&gt;Node4</title>
<path fill="none" stroke="midnightblue" d="M209,-638.362C209,-630.922 209,-620.743 209,-611.728"/>
<polygon fill="midnightblue" stroke="midnightblue" points="212.5,-611.571 209,-601.571 205.5,-611.571 212.5,-611.571"/>
</g>
<!-- Node5 -->
<g id="node9" class="node"><title>Node5</title>
<a xlink:href="../../de/d5a/ns_i_supports_8h.html" target="_top" xlink:title="nsISupports.h">
<polygon fill="white" stroke="black" points="170.5,-522.5 170.5,-543.5 247.5,-543.5 247.5,-522.5 170.5,-522.5"/>
<text text-anchor="middle" x="209" y="-530.5" font-family="Helvetica,sans-Serif" font-size="10.00">nsISupports.h</text>
</a>
</g>
<!-- Node4&#45;&gt;Node5 -->
<g id="edge8" class="edge"><title>Node4&#45;&gt;Node5</title>
<path fill="none" stroke="midnightblue" d="M209,-580.362C209,-572.922 209,-562.743 209,-553.728"/>
<polygon fill="midnightblue" stroke="midnightblue" points="212.5,-553.571 209,-543.571 205.5,-553.571 212.5,-553.571"/>
</g>
<!-- Node6 -->
<g id="node11" class="node"><title>Node6</title>
<a xlink:href="../../d9/d92/nsrootidl_8h.html" target="_top" xlink:title="nsrootidl.h">
<polygon fill="white" stroke="black" points="119,-406.5 119,-427.5 181,-427.5 181,-406.5 119,-406.5"/>
<text text-anchor="middle" x="150" y="-414.5" font-family="Helvetica,sans-Serif" font-size="10.00">nsrootidl.h</text>
</a>
</g>
<!-- Node5&#45;&gt;Node6 -->
<g id="edge10" class="edge"><title>Node5&#45;&gt;Node6</title>
<path fill="none" stroke="midnightblue" d="M203.555,-522.295C193.676,-502.872 172.662,-461.556 160.094,-436.846"/>
<polygon fill="midnightblue" stroke="midnightblue" points="163.085,-435.006 155.432,-427.679 156.846,-438.179 163.085,-435.006"/>
</g>
<!-- Node22 -->
<g id="node47" class="node"><title>Node22</title>
<a xlink:href="../../de/d38/ns_i_supports_base_8h.html" target="_top" xlink:title="nsISupportsBase.h">
<polygon fill="white" stroke="black" points="260,-348.5 260,-369.5 360,-369.5 360,-348.5 260,-348.5"/>
<text text-anchor="middle" x="310" y="-356.5" font-family="Helvetica,sans-Serif" font-size="10.00">nsISupportsBase.h</text>
</a>
</g>
<!-- Node5&#45;&gt;Node22 -->
<g id="edge50" class="edge"><title>Node5&#45;&gt;Node22</title>
<path fill="none" stroke="midnightblue" d="M215.166,-522.377C231.679,-493.93 277.097,-415.684 298.525,-378.769"/>
<polygon fill="midnightblue" stroke="midnightblue" points="301.664,-380.333 303.657,-369.928 295.61,-376.819 301.664,-380.333"/>
</g>
<!-- Node24 -->
<g id="node54" class="node"><title>Node24</title>
<a xlink:href="../../d9/d4b/ns_i_supports_utils_8h.html" target="_top" xlink:title="nsISupportsUtils.h">
<polygon fill="white" stroke="black" points="339,-464.5 339,-485.5 437,-485.5 437,-464.5 339,-464.5"/>
<text text-anchor="middle" x="388" y="-472.5" font-family="Helvetica,sans-Serif" font-size="10.00">nsISupportsUtils.h</text>
</a>
</g>
<!-- Node5&#45;&gt;Node24 -->
<g id="edge60" class="edge"><title>Node5&#45;&gt;Node24</title>
<path fill="none" stroke="midnightblue" d="M241.416,-522.497C270.724,-513 314.048,-498.962 346.001,-488.609"/>
<polygon fill="midnightblue" stroke="midnightblue" points="347.089,-491.935 355.524,-485.523 344.932,-485.276 347.089,-491.935"/>
</g>
<!-- Node7 -->
<g id="node13" class="node"><title>Node7</title>
<a xlink:href="../../d3/dd8/nscore_8h.html" target="_top" xlink:title="nscore.h">
<polygon fill="white" stroke="black" points="296,-232.5 296,-253.5 350,-253.5 350,-232.5 296,-232.5"/>
<text text-anchor="middle" x="323" y="-240.5" font-family="Helvetica,sans-Serif" font-size="10.00">nscore.h</text>
</a>
</g>
<!-- Node6&#45;&gt;Node7 -->
<g id="edge12" class="edge"><title>Node6&#45;&gt;Node7</title>
<path fill="none" stroke="midnightblue" d="M153.084,-406.322C160.484,-382.432 181.402,-324.097 218,-290 237.135,-272.173 264.166,-260.286 286.01,-252.927"/>
<polygon fill="midnightblue" stroke="midnightblue" points="287.169,-256.231 295.634,-249.859 285.043,-249.561 287.169,-256.231"/>
</g>
<!-- Node8 -->
<g id="node15" class="node"><title>Node8</title>
<a xlink:href="../../d7/d2d/xpcom-config_8h.html" target="_top" xlink:title="xpcom&#45;config.h">
<polygon fill="white" stroke="black" points="63.5,-116.5 63.5,-137.5 146.5,-137.5 146.5,-116.5 63.5,-116.5"/>
<text text-anchor="middle" x="105" y="-124.5" font-family="Helvetica,sans-Serif" font-size="10.00">xpcom&#45;config.h</text>
</a>
</g>
<!-- Node7&#45;&gt;Node8 -->
<g id="edge14" class="edge"><title>Node7&#45;&gt;Node8</title>
<path fill="none" stroke="midnightblue" d="M295.726,-241.379C241.93,-237.551 125.247,-225.918 101,-196 90.1784,-182.647 92.7186,-162.636 97.0562,-147.597"/>
<polygon fill="midnightblue" stroke="midnightblue" points="100.516,-148.286 100.367,-137.692 93.8774,-146.067 100.516,-148.286"/>
</g>
<!-- Node9 -->
<g id="node17" class="node"><title>Node9</title>
<a xlink:href="../../d1/d62/mozalloc_8h.html" target="_top" xlink:title="mozilla/mozalloc.h">
<polygon fill="white" stroke="black" points="110,-174.5 110,-195.5 208,-195.5 208,-174.5 110,-174.5"/>
<text text-anchor="middle" x="159" y="-182.5" font-family="Helvetica,sans-Serif" font-size="10.00">mozilla/mozalloc.h</text>
</a>
</g>
<!-- Node7&#45;&gt;Node9 -->
<g id="edge16" class="edge"><title>Node7&#45;&gt;Node9</title>
<path fill="none" stroke="midnightblue" d="M295.919,-233.422C269.436,-224.057 228.808,-209.688 198.681,-199.033"/>
<polygon fill="midnightblue" stroke="midnightblue" points="199.496,-195.609 188.901,-195.575 197.162,-202.209 199.496,-195.609"/>
</g>
<!-- Node14 -->
<g id="node28" class="node"><title>Node14</title>
<a xlink:href="../../d1/de4/mozalloc__macro__wrappers_8h.html" target="_top" xlink:title="mozilla/mozalloc_macro_wrappers.h">
<polygon fill="white" stroke="black" points="225.5,-174.5 225.5,-195.5 400.5,-195.5 400.5,-174.5 225.5,-174.5"/>
<text text-anchor="middle" x="313" y="-182.5" font-family="Helvetica,sans-Serif" font-size="10.00">mozilla/mozalloc_macro_wrappers.h</text>
</a>
</g>
<!-- Node7&#45;&gt;Node14 -->
<g id="edge28" class="edge"><title>Node7&#45;&gt;Node14</title>
<path fill="none" stroke="midnightblue" d="M321.166,-232.362C319.869,-224.84 318.089,-214.519 316.523,-205.431"/>
<polygon fill="midnightblue" stroke="midnightblue" points="319.971,-204.831 314.823,-195.571 313.073,-206.02 319.971,-204.831"/>
</g>
<!-- Node15 -->
<g id="node30" class="node"><title>Node15</title>
<polygon fill="white" stroke="#bfbfbf" points="724,-174.5 724,-195.5 776,-195.5 776,-174.5 724,-174.5"/>
<text text-anchor="middle" x="750" y="-182.5" font-family="Helvetica,sans-Serif" font-size="10.00">stddef.h</text>
</g>
<!-- Node7&#45;&gt;Node15 -->
<g id="edge30" class="edge"><title>Node7&#45;&gt;Node15</title>
<path fill="none" stroke="midnightblue" d="M350.376,-241.466C413.143,-237.581 572.281,-225.629 713.622,-195.983"/>
<polygon fill="midnightblue" stroke="midnightblue" points="714.717,-199.328 723.767,-193.818 713.256,-192.483 714.717,-199.328"/>
</g>
<!-- Node16 -->
<g id="node32" class="node"><title>Node16</title>
<polygon fill="white" stroke="#bfbfbf" points="683.5,-116.5 683.5,-137.5 732.5,-137.5 732.5,-116.5 683.5,-116.5"/>
<text text-anchor="middle" x="708" y="-124.5" font-family="Helvetica,sans-Serif" font-size="10.00">stdint.h</text>
</g>
<!-- Node7&#45;&gt;Node16 -->
<g id="edge32" class="edge"><title>Node7&#45;&gt;Node16</title>
<path fill="none" stroke="midnightblue" d="M350.176,-237.632C388.589,-229.801 460.797,-214.18 521,-196 575.282,-179.608 636.687,-155.932 673.858,-141.011"/>
<polygon fill="midnightblue" stroke="midnightblue" points="675.257,-144.221 683.22,-137.233 672.637,-137.73 675.257,-144.221"/>
</g>
<!-- Node17 -->
<g id="node34" class="node"><title>Node17</title>
<a xlink:href="../../df/dcf/_null_ptr_8h.html" target="_top" xlink:title="mozilla/NullPtr.h">
<polygon fill="white" stroke="black" points="463.5,-58.5 463.5,-79.5 552.5,-79.5 552.5,-58.5 463.5,-58.5"/>
<text text-anchor="middle" x="508" y="-66.5" font-family="Helvetica,sans-Serif" font-size="10.00">mozilla/NullPtr.h</text>
</a>
</g>
<!-- Node7&#45;&gt;Node17 -->
<g id="edge34" class="edge"><title>Node7&#45;&gt;Node17</title>
<path fill="none" stroke="midnightblue" d="M295.637,-240.257C241.474,-234.386 122.983,-219.222 90,-196 58.2667,-173.658 29.0121,-144.824 55,-116 81.2171,-86.922 338.036,-74.7046 452.93,-70.6641"/>
<polygon fill="midnightblue" stroke="midnightblue" points="453.39,-74.1504 463.264,-70.3093 453.15,-67.1546 453.39,-74.1504"/>
</g>
<!-- Node18 -->
<g id="node37" class="node"><title>Node18</title>
<a xlink:href="../../d8/dcf/ns_error_8h.html" target="_top" xlink:title="nsError.h">
<polygon fill="white" stroke="black" points="456,-174.5 456,-195.5 512,-195.5 512,-174.5 456,-174.5"/>
<text text-anchor="middle" x="484" y="-182.5" font-family="Helvetica,sans-Serif" font-size="10.00">nsError.h</text>
</a>
</g>
<!-- Node7&#45;&gt;Node18 -->
<g id="edge38" class="edge"><title>Node7&#45;&gt;Node18</title>
<path fill="none" stroke="midnightblue" d="M350.311,-233.161C376.669,-223.666 416.796,-209.21 446.212,-198.613"/>
<polygon fill="midnightblue" stroke="midnightblue" points="447.52,-201.862 455.741,-195.18 445.147,-195.277 447.52,-201.862"/>
</g>
<!-- Node9&#45;&gt;Node8 -->
<g id="edge22" class="edge"><title>Node9&#45;&gt;Node8</title>
<path fill="none" stroke="midnightblue" d="M149.096,-174.362C141.484,-166.186 130.792,-154.702 121.843,-145.091"/>
<polygon fill="midnightblue" stroke="midnightblue" points="124.217,-142.505 114.842,-137.571 119.094,-147.275 124.217,-142.505"/>
</g>
<!-- Node10 -->
<g id="node19" class="node"><title>Node10</title>
<polygon fill="white" stroke="#bfbfbf" points="388,-116.5 388,-137.5 436,-137.5 436,-116.5 388,-116.5"/>
<text text-anchor="middle" x="412" y="-124.5" font-family="Helvetica,sans-Serif" font-size="10.00">stdlib.h</text>
</g>
<!-- Node9&#45;&gt;Node10 -->
<g id="edge18" class="edge"><title>Node9&#45;&gt;Node10</title>
<path fill="none" stroke="midnightblue" d="M208.384,-175.117C258.944,-164.888 335.071,-149.159 378.23,-137.963"/>
<polygon fill="midnightblue" stroke="midnightblue" points="379.189,-141.329 387.944,-135.363 377.379,-134.567 379.189,-141.329"/>
</g>
<!-- Node11 -->
<g id="node21" class="node"><title>Node11</title>
<polygon fill="white" stroke="#bfbfbf" points="201.5,-116.5 201.5,-137.5 250.5,-137.5 250.5,-116.5 201.5,-116.5"/>
<text text-anchor="middle" x="226" y="-124.5" font-family="Helvetica,sans-Serif" font-size="10.00">string.h</text>
</g>
<!-- Node9&#45;&gt;Node11 -->
<g id="edge20" class="edge"><title>Node9&#45;&gt;Node11</title>
<path fill="none" stroke="midnightblue" d="M171.289,-174.362C181.017,-165.941 194.798,-154.011 206.095,-144.231"/>
<polygon fill="midnightblue" stroke="midnightblue" points="208.519,-146.762 213.789,-137.571 203.938,-141.469 208.519,-146.762"/>
</g>
<!-- Node12 -->
<g id="node24" class="node"><title>Node12</title>
<a xlink:href="../../d1/da8/_attributes_8h.html" target="_top" xlink:title="mozilla/Attributes.h">
<polygon fill="white" stroke="black" points="749.5,-58.5 749.5,-79.5 850.5,-79.5 850.5,-58.5 749.5,-58.5"/>
<text text-anchor="middle" x="800" y="-66.5" font-family="Helvetica,sans-Serif" font-size="10.00">mozilla/Attributes.h</text>
</a>
</g>
<!-- Node9&#45;&gt;Node12 -->
<g id="edge24" class="edge"><title>Node9&#45;&gt;Node12</title>
<path fill="none" stroke="midnightblue" d="M160.835,-174.452C164.18,-158.752 172.873,-129.626 193,-116 215.384,-100.846 589.673,-79.8954 739.101,-72.0917"/>
<polygon fill="midnightblue" stroke="midnightblue" points="739.659,-75.5675 749.463,-71.5528 739.295,-68.577 739.659,-75.5675"/>
</g>
<!-- Node13 -->
<g id="node26" class="node"><title>Node13</title>
<a xlink:href="../../da/da7/_compiler_8h.html" target="_top" xlink:title="mozilla/Compiler.h">
<polygon fill="white" stroke="black" points="751,-0.5 751,-21.5 849,-21.5 849,-0.5 751,-0.5"/>
<text text-anchor="middle" x="800" y="-8.5" font-family="Helvetica,sans-Serif" font-size="10.00">mozilla/Compiler.h</text>
</a>
</g>
<!-- Node12&#45;&gt;Node13 -->
<g id="edge26" class="edge"><title>Node12&#45;&gt;Node13</title>
<path fill="none" stroke="midnightblue" d="M800,-58.3619C800,-50.9219 800,-40.7427 800,-31.7276"/>
<polygon fill="midnightblue" stroke="midnightblue" points="803.5,-31.5706 800,-21.5707 796.5,-31.5707 803.5,-31.5706"/>
</g>
<!-- Node17&#45;&gt;Node13 -->
<g id="edge36" class="edge"><title>Node17&#45;&gt;Node13</title>
<path fill="none" stroke="midnightblue" d="M552.666,-60.1279C603.051,-50.1201 685.205,-33.8017 740.876,-22.7438"/>
<polygon fill="midnightblue" stroke="midnightblue" points="741.822,-26.1243 750.949,-20.743 740.459,-19.2584 741.822,-26.1243"/>
</g>
<!-- Node18&#45;&gt;Node16 -->
<g id="edge46" class="edge"><title>Node18&#45;&gt;Node16</title>
<path fill="none" stroke="midnightblue" d="M512.022,-178.848C547.591,-170.878 611.008,-156.134 673.576,-138.278"/>
<polygon fill="midnightblue" stroke="midnightblue" points="674.561,-141.637 683.201,-135.504 672.623,-134.91 674.561,-141.637"/>
</g>
<!-- Node19 -->
<g id="node39" class="node"><title>Node19</title>
<a xlink:href="../../d1/d8a/_likely_8h.html" target="_top" xlink:title="mozilla/Likely.h">
<polygon fill="white" stroke="black" points="582,-116.5 582,-137.5 666,-137.5 666,-116.5 582,-116.5"/>
<text text-anchor="middle" x="624" y="-124.5" font-family="Helvetica,sans-Serif" font-size="10.00">mozilla/Likely.h</text>
</a>
</g>
<!-- Node18&#45;&gt;Node19 -->
<g id="edge40" class="edge"><title>Node18&#45;&gt;Node19</title>
<path fill="none" stroke="midnightblue" d="M509.353,-174.497C531.613,-165.275 564.212,-151.769 588.963,-141.515"/>
<polygon fill="midnightblue" stroke="midnightblue" points="590.464,-144.682 598.363,-137.621 587.784,-138.215 590.464,-144.682"/>
</g>
<!-- Node20 -->
<g id="node41" class="node"><title>Node20</title>
<a xlink:href="../../d3/dff/_typed_enum_8h.html" target="_top" xlink:title="mozilla/TypedEnum.h">
<polygon fill="white" stroke="black" points="453.5,-116.5 453.5,-137.5 564.5,-137.5 564.5,-116.5 453.5,-116.5"/>
<text text-anchor="middle" x="509" y="-124.5" font-family="Helvetica,sans-Serif" font-size="10.00">mozilla/TypedEnum.h</text>
</a>
</g>
<!-- Node18&#45;&gt;Node20 -->
<g id="edge42" class="edge"><title>Node18&#45;&gt;Node20</title>
<path fill="none" stroke="midnightblue" d="M488.585,-174.362C491.898,-166.677 496.47,-156.069 500.448,-146.84"/>
<polygon fill="midnightblue" stroke="midnightblue" points="503.699,-148.139 504.444,-137.571 497.271,-145.368 503.699,-148.139"/>
</g>
<!-- Node21 -->
<g id="node45" class="node"><title>Node21</title>
<a xlink:href="../../d7/dda/_error_list_c_defines_8h.html" target="_top" xlink:title="ErrorListCDefines.h">
<polygon fill="white" stroke="black" points="267.5,-116.5 267.5,-137.5 370.5,-137.5 370.5,-116.5 267.5,-116.5"/>
<text text-anchor="middle" x="319" y="-124.5" font-family="Helvetica,sans-Serif" font-size="10.00">ErrorListCDefines.h</text>
</a>
</g>
<!-- Node18&#45;&gt;Node21 -->
<g id="edge48" class="edge"><title>Node18&#45;&gt;Node21</title>
<path fill="none" stroke="midnightblue" d="M455.635,-175.029C428.897,-165.63 388.574,-151.456 358.656,-140.94"/>
<polygon fill="midnightblue" stroke="midnightblue" points="359.539,-137.54 348.944,-137.526 357.217,-144.144 359.539,-137.54"/>
</g>
<!-- Node20&#45;&gt;Node12 -->
<g id="edge44" class="edge"><title>Node20&#45;&gt;Node12</title>
<path fill="none" stroke="midnightblue" d="M561.698,-116.497C611.705,-106.53 686.814,-91.5594 739.303,-81.0977"/>
<polygon fill="midnightblue" stroke="midnightblue" points="740.034,-84.5209 749.157,-79.1337 738.666,-77.6559 740.034,-84.5209"/>
</g>
<!-- Node22&#45;&gt;Node7 -->
<g id="edge52" class="edge"><title>Node22&#45;&gt;Node7</title>
<path fill="none" stroke="midnightblue" d="M307.525,-348.15C304.792,-334.479 301.243,-310.314 305,-290 306.717,-280.715 310.192,-270.894 313.634,-262.644"/>
<polygon fill="midnightblue" stroke="midnightblue" points="316.835,-264.062 317.697,-253.502 310.438,-261.219 316.835,-264.062"/>
</g>
<!-- Node23 -->
<g id="node50" class="node"><title>Node23</title>
<a xlink:href="../../d9/d0a/ns_i_d_8h.html" target="_top" xlink:title="nsID.h">
<polygon fill="white" stroke="black" points="314,-290.5 314,-311.5 360,-311.5 360,-290.5 314,-290.5"/>
<text text-anchor="middle" x="337" y="-298.5" font-family="Helvetica,sans-Serif" font-size="10.00">nsID.h</text>
</a>
</g>
<!-- Node22&#45;&gt;Node23 -->
<g id="edge54" class="edge"><title>Node22&#45;&gt;Node23</title>
<path fill="none" stroke="midnightblue" d="M314.952,-348.362C318.53,-340.677 323.468,-330.069 327.764,-320.84"/>
<polygon fill="midnightblue" stroke="midnightblue" points="331.032,-322.114 332.079,-311.571 324.686,-319.159 331.032,-322.114"/>
</g>
<!-- Node23&#45;&gt;Node7 -->
<g id="edge58" class="edge"><title>Node23&#45;&gt;Node7</title>
<path fill="none" stroke="midnightblue" d="M334.432,-290.362C332.617,-282.84 330.125,-272.519 327.932,-263.431"/>
<polygon fill="midnightblue" stroke="midnightblue" points="331.3,-262.47 325.552,-253.571 324.496,-264.113 331.3,-262.47"/>
</g>
<!-- Node23&#45;&gt;Node11 -->
<g id="edge56" class="edge"><title>Node23&#45;&gt;Node11</title>
<path fill="none" stroke="midnightblue" d="M351.197,-290.466C380.008,-267.829 440.07,-213.409 409,-174 368.46,-122.579 328.658,-153.743 260.59,-138.057"/>
<polygon fill="midnightblue" stroke="midnightblue" points="261.353,-134.64 250.795,-135.52 259.597,-141.416 261.353,-134.64"/>
</g>
<!-- Node24&#45;&gt;Node7 -->
<g id="edge62" class="edge"><title>Node24&#45;&gt;Node7</title>
<path fill="none" stroke="midnightblue" d="M362.784,-464.372C330.024,-449.008 274.274,-417.162 251,-370 231.093,-329.661 273.395,-284.214 301.217,-260.129"/>
<polygon fill="midnightblue" stroke="midnightblue" points="303.538,-262.75 308.959,-253.647 299.044,-257.383 303.538,-262.75"/>
</g>
<!-- Node24&#45;&gt;Node18 -->
<g id="edge66" class="edge"><title>Node24&#45;&gt;Node18</title>
<path fill="none" stroke="midnightblue" d="M391.531,-464.335C405.672,-421.615 458.369,-262.426 477.231,-205.447"/>
<polygon fill="midnightblue" stroke="midnightblue" points="480.617,-206.355 480.437,-195.762 473.972,-204.156 480.617,-206.355"/>
</g>
<!-- Node24&#45;&gt;Node22 -->
<g id="edge64" class="edge"><title>Node24&#45;&gt;Node22</title>
<path fill="none" stroke="midnightblue" d="M380.802,-464.295C367.626,-444.7 339.465,-402.82 322.904,-378.191"/>
<polygon fill="midnightblue" stroke="midnightblue" points="325.665,-376.025 317.181,-369.679 319.856,-379.931 325.665,-376.025"/>
</g>
<!-- Node25 -->
<g id="node59" class="node"><title>Node25</title>
<a xlink:href="../../dc/d6d/ns_debug_8h.html" target="_top" xlink:title="nsDebug.h">
<polygon fill="white" stroke="black" points="470,-348.5 470,-369.5 534,-369.5 534,-348.5 470,-348.5"/>
<text text-anchor="middle" x="502" y="-356.5" font-family="Helvetica,sans-Serif" font-size="10.00">nsDebug.h</text>
</a>
</g>
<!-- Node24&#45;&gt;Node25 -->
<g id="edge68" class="edge"><title>Node24&#45;&gt;Node25</title>
<path fill="none" stroke="midnightblue" d="M398.521,-464.295C418.117,-444.355 460.393,-401.337 484.403,-376.906"/>
<polygon fill="midnightblue" stroke="midnightblue" points="486.992,-379.265 491.505,-369.679 481.999,-374.358 486.992,-379.265"/>
</g>
<!-- Node31 -->
<g id="node80" class="node"><title>Node31</title>
<a xlink:href="../../d0/d5a/ns_i_supports_impl_8h.html" target="_top" xlink:title="nsISupportsImpl.h">
<polygon fill="white" stroke="black" points="548,-406.5 548,-427.5 644,-427.5 644,-406.5 548,-406.5"/>
<text text-anchor="middle" x="596" y="-414.5" font-family="Helvetica,sans-Serif" font-size="10.00">nsISupportsImpl.h</text>
</a>
</g>
<!-- Node24&#45;&gt;Node31 -->
<g id="edge98" class="edge"><title>Node24&#45;&gt;Node31</title>
<path fill="none" stroke="midnightblue" d="M420.327,-464.497C453.099,-454.877 504.165,-440.598 542.863,-430.209"/>
<polygon fill="midnightblue" stroke="midnightblue" points="544.16,-433.485 552.919,-427.523 542.354,-426.722 544.16,-433.485"/>
</g>
<!-- Node25&#45;&gt;Node7 -->
<g id="edge70" class="edge"><title>Node25&#45;&gt;Node7</title>
<path fill="none" stroke="midnightblue" d="M494.782,-348.263C484.289,-333.371 463.49,-306.431 440,-290 415.672,-272.983 384.283,-260.805 360.142,-253.115"/>
<polygon fill="midnightblue" stroke="midnightblue" points="360.868,-249.677 350.282,-250.093 358.817,-256.37 360.868,-249.677"/>
</g>
<!-- Node25&#45;&gt;Node18 -->
<g id="edge72" class="edge"><title>Node25&#45;&gt;Node18</title>
<path fill="none" stroke="midnightblue" d="M500.901,-348.377C497.996,-320.293 490.07,-243.673 486.193,-206.203"/>
<polygon fill="midnightblue" stroke="midnightblue" points="489.641,-205.514 485.13,-195.928 482.678,-206.235 489.641,-205.514"/>
</g>
<!-- Node25&#45;&gt;Node19 -->
<g id="edge96" class="edge"><title>Node25&#45;&gt;Node19</title>
<path fill="none" stroke="midnightblue" d="M534.032,-349.502C562.879,-340.224 602.081,-325.558 611,-312 630.54,-282.295 615.344,-267.289 611,-232 608.985,-215.631 604.015,-212.369 602,-196 600.805,-186.295 599.877,-183.544 602,-174 604.086,-164.622 608.252,-154.901 612.403,-146.75"/>
<polygon fill="midnightblue" stroke="midnightblue" points="615.613,-148.173 617.317,-137.716 609.464,-144.828 615.613,-148.173"/>
</g>
<!-- Node26 -->
<g id="node63" class="node"><title>Node26</title>
<a xlink:href="../../dd/d3a/ns_x_p_c_o_m_8h.html" target="_top" xlink:title="nsXPCOM.h">
<polygon fill="white" stroke="black" points="530,-290.5 530,-311.5 602,-311.5 602,-290.5 530,-290.5"/>
<text text-anchor="middle" x="566" y="-298.5" font-family="Helvetica,sans-Serif" font-size="10.00">nsXPCOM.h</text>
</a>
</g>
<!-- Node25&#45;&gt;Node26 -->
<g id="edge74" class="edge"><title>Node25&#45;&gt;Node26</title>
<path fill="none" stroke="midnightblue" d="M513.739,-348.362C522.941,-340.023 535.94,-328.242 546.672,-318.516"/>
<polygon fill="midnightblue" stroke="midnightblue" points="549.276,-320.879 554.336,-311.571 544.576,-315.692 549.276,-320.879"/>
</g>
<!-- Node28 -->
<g id="node68" class="node"><title>Node28</title>
<a xlink:href="../../d9/de9/_assertions_8h.html" target="_top" xlink:title="mozilla/Assertions.h">
<polygon fill="white" stroke="black" points="935.5,-232.5 935.5,-253.5 1040.5,-253.5 1040.5,-232.5 935.5,-232.5"/>
<text text-anchor="middle" x="988" y="-240.5" font-family="Helvetica,sans-Serif" font-size="10.00">mozilla/Assertions.h</text>
</a>
</g>
<!-- Node25&#45;&gt;Node28 -->
<g id="edge80" class="edge"><title>Node25&#45;&gt;Node28</title>
<path fill="none" stroke="midnightblue" d="M534.217,-350.307C537.185,-349.521 540.147,-348.742 543,-348 645.025,-321.451 670.381,-314.149 773,-290 824.992,-277.765 884.312,-264.877 927.454,-255.698"/>
<polygon fill="midnightblue" stroke="midnightblue" points="928.451,-259.065 937.506,-253.564 926.997,-252.217 928.451,-259.065"/>
</g>
<!-- Node26&#45;&gt;Node7 -->
<g id="edge76" class="edge"><title>Node26&#45;&gt;Node7</title>
<path fill="none" stroke="midnightblue" d="M529.883,-292.379C484.281,-281.495 406.232,-262.866 360.148,-251.867"/>
<polygon fill="midnightblue" stroke="midnightblue" points="360.808,-248.426 350.268,-249.508 359.182,-255.235 360.808,-248.426"/>
</g>
<!-- Node27 -->
<g id="node66" class="node"><title>Node27</title>
<a xlink:href="../../d1/d66/ns_x_p_c_o_m_c_i_d_8h.html" target="_top" xlink:title="nsXPCOMCID.h">
<polygon fill="white" stroke="black" points="512,-232.5 512,-253.5 602,-253.5 602,-232.5 512,-232.5"/>
<text text-anchor="middle" x="557" y="-240.5" font-family="Helvetica,sans-Serif" font-size="10.00">nsXPCOMCID.h</text>
</a>
</g>
<!-- Node26&#45;&gt;Node27 -->
<g id="edge78" class="edge"><title>Node26&#45;&gt;Node27</title>
<path fill="none" stroke="midnightblue" d="M564.349,-290.362C563.195,-282.922 561.615,-272.743 560.216,-263.728"/>
<polygon fill="midnightblue" stroke="midnightblue" points="563.632,-262.916 558.64,-253.571 556.715,-263.989 563.632,-262.916"/>
</g>
<!-- Node28&#45;&gt;Node10 -->
<g id="edge92" class="edge"><title>Node28&#45;&gt;Node10</title>
<path fill="none" stroke="midnightblue" d="M939.268,-232.478C905.831,-224.454 860.841,-212.05 823,-196 805.034,-188.38 803.554,-180.049 785,-174 643.632,-127.913 595.567,-168.395 446.323,-137.882"/>
<polygon fill="midnightblue" stroke="midnightblue" points="446.852,-134.417 436.344,-135.768 445.402,-141.265 446.852,-134.417"/>
</g>
<!-- Node28&#45;&gt;Node12 -->
<g id="edge82" class="edge"><title>Node28&#45;&gt;Node12</title>
<path fill="none" stroke="midnightblue" d="M1040.66,-234.01C1084.22,-224.147 1135.58,-205.392 1113,-174 1083.16,-132.516 943.034,-97.8802 860.735,-80.679"/>
<polygon fill="midnightblue" stroke="midnightblue" points="861.253,-77.2121 850.752,-78.6185 859.838,-84.0676 861.253,-77.2121"/>
</g>
<!-- Node28&#45;&gt;Node13 -->
<g id="edge84" class="edge"><title>Node28&#45;&gt;Node13</title>
<path fill="none" stroke="midnightblue" d="M1040.76,-237.504C1088.82,-229.978 1149.43,-212.676 1129,-174 1076.18,-74.0058 938.559,-34.3225 859.044,-19.3817"/>
<polygon fill="midnightblue" stroke="midnightblue" points="859.635,-15.9318 849.171,-17.5976 858.39,-22.8202 859.635,-15.9318"/>
</g>
<!-- Node28&#45;&gt;Node15 -->
<g id="edge88" class="edge"><title>Node28&#45;&gt;Node15</title>
<path fill="none" stroke="midnightblue" d="M941.479,-232.446C901.282,-223.209 841.681,-209.236 790,-196 788.744,-195.678 787.467,-195.348 786.178,-195.011"/>
<polygon fill="midnightblue" stroke="midnightblue" points="786.779,-191.548 776.215,-192.351 784.974,-198.312 786.779,-191.548"/>
</g>
<!-- Node28&#45;&gt;Node19 -->
<g id="edge86" class="edge"><title>Node28&#45;&gt;Node19</title>
<path fill="none" stroke="midnightblue" d="M984.312,-232.262C978.32,-216.591 964.888,-187.821 943,-174 844.061,-111.527 795.956,-156.188 676.145,-138.001"/>
<polygon fill="midnightblue" stroke="midnightblue" points="676.685,-134.543 666.25,-136.381 675.554,-141.451 676.685,-134.543"/>
</g>
<!-- Node29 -->
<g id="node74" class="node"><title>Node29</title>
<polygon fill="white" stroke="#bfbfbf" points="990,-174.5 990,-195.5 1036,-195.5 1036,-174.5 990,-174.5"/>
<text text-anchor="middle" x="1013" y="-182.5" font-family="Helvetica,sans-Serif" font-size="10.00">stdio.h</text>
</g>
<!-- Node28&#45;&gt;Node29 -->
<g id="edge90" class="edge"><title>Node28&#45;&gt;Node29</title>
<path fill="none" stroke="midnightblue" d="M992.585,-232.362C995.898,-224.677 1000.47,-214.069 1004.45,-204.84"/>
<polygon fill="midnightblue" stroke="midnightblue" points="1007.7,-206.139 1008.44,-195.571 1001.27,-203.368 1007.7,-206.139"/>
</g>
<!-- Node30 -->
<g id="node77" class="node"><title>Node30</title>
<polygon fill="white" stroke="#bfbfbf" points="1054,-174.5 1054,-195.5 1104,-195.5 1104,-174.5 1054,-174.5"/>
<text text-anchor="middle" x="1079" y="-182.5" font-family="Helvetica,sans-Serif" font-size="10.00">signal.h</text>
</g>
<!-- Node28&#45;&gt;Node30 -->
<g id="edge94" class="edge"><title>Node28&#45;&gt;Node30</title>
<path fill="none" stroke="midnightblue" d="M1004.69,-232.362C1018.42,-223.614 1038.08,-211.079 1053.74,-201.101"/>
<polygon fill="midnightblue" stroke="midnightblue" points="1055.86,-203.897 1062.42,-195.571 1052.1,-197.994 1055.86,-203.897"/>
</g>
<!-- Node31&#45;&gt;Node7 -->
<g id="edge100" class="edge"><title>Node31&#45;&gt;Node7</title>
<path fill="none" stroke="midnightblue" d="M551.446,-406.445C524.12,-398.798 489.106,-386.828 461,-370 434.474,-354.119 371.362,-291.912 340.542,-260.849"/>
<polygon fill="midnightblue" stroke="midnightblue" points="342.963,-258.32 333.444,-253.67 337.986,-263.242 342.963,-258.32"/>
</g>
<!-- Node31&#45;&gt;Node12 -->
<g id="edge138" class="edge"><title>Node31&#45;&gt;Node12</title>
<path fill="none" stroke="midnightblue" d="M644.28,-414.728C811.242,-406.239 1354,-373.098 1354,-301 1354,-301 1354,-301 1354,-185 1354,-135.039 1004.38,-91.2509 860.62,-75.3578"/>
<polygon fill="midnightblue" stroke="midnightblue" points="860.955,-71.8737 850.632,-74.262 860.191,-78.8319 860.955,-71.8737"/>
</g>
<!-- Node31&#45;&gt;Node19 -->
<g id="edge142" class="edge"><title>Node31&#45;&gt;Node19</title>
<path fill="none" stroke="midnightblue" d="M614.434,-406.467C626.749,-398.287 641.938,-385.702 649,-370 658.033,-349.917 635.954,-202.478 627.3,-147.548"/>
<polygon fill="midnightblue" stroke="midnightblue" points="630.742,-146.911 625.717,-137.584 623.829,-148.01 630.742,-146.911"/>
</g>
<!-- Node31&#45;&gt;Node22 -->
<g id="edge102" class="edge"><title>Node31&#45;&gt;Node22</title>
<path fill="none" stroke="midnightblue" d="M547.807,-407.227C498.903,-397.309 423.072,-381.931 370.233,-371.215"/>
<polygon fill="midnightblue" stroke="midnightblue" points="370.813,-367.762 360.317,-369.204 369.422,-374.622 370.813,-367.762"/>
</g>
<!-- Node31&#45;&gt;Node24 -->
<g id="edge104" class="edge"><title>Node31&#45;&gt;Node24</title>
<path fill="none" stroke="midnightblue" d="M563.606,-427.523C530.809,-437.149 479.739,-451.428 441.058,-461.812"/>
<polygon fill="midnightblue" stroke="midnightblue" points="439.766,-458.535 431.007,-464.497 441.572,-465.298 439.766,-458.535"/>
</g>
<!-- Node31&#45;&gt;Node25 -->
<g id="edge122" class="edge"><title>Node31&#45;&gt;Node25</title>
<path fill="none" stroke="midnightblue" d="M578.759,-406.362C564.448,-397.532 543.885,-384.844 527.643,-374.822"/>
<polygon fill="midnightblue" stroke="midnightblue" points="529.48,-371.843 519.132,-369.571 525.804,-377.8 529.48,-371.843"/>
</g>
<!-- Node31&#45;&gt;Node28 -->
<g id="edge140" class="edge"><title>Node31&#45;&gt;Node28</title>
<path fill="none" stroke="midnightblue" d="M644.039,-406.973C678.451,-398.995 725.499,-386.444 765,-370 841.319,-338.229 924.154,-285.797 963.968,-259.343"/>
<polygon fill="midnightblue" stroke="midnightblue" points="966.101,-262.127 972.465,-253.657 962.208,-256.31 966.101,-262.127"/>
</g>
<!-- Node32 -->
<g id="node85" class="node"><title>Node32</title>
<a xlink:href="../../d2/df8/prthread_8h.html" target="_top" xlink:title="prthread.h">
<polygon fill="white" stroke="black" points="696,-348.5 696,-369.5 756,-369.5 756,-348.5 696,-348.5"/>
<text text-anchor="middle" x="726" y="-356.5" font-family="Helvetica,sans-Serif" font-size="10.00">prthread.h</text>
</a>
</g>
<!-- Node31&#45;&gt;Node32 -->
<g id="edge106" class="edge"><title>Node31&#45;&gt;Node32</title>
<path fill="none" stroke="midnightblue" d="M619.542,-406.497C640.029,-397.356 669.947,-384.008 692.854,-373.788"/>
<polygon fill="midnightblue" stroke="midnightblue" points="694.488,-376.892 702.194,-369.621 691.635,-370.499 694.488,-376.892"/>
</g>
<!-- Node38 -->
<g id="node100" class="node"><title>Node38</title>
<a xlink:href="../../dc/d1c/ns_trace_refcnt_8h.html" target="_top" xlink:title="nsTraceRefcnt.h">
<polygon fill="white" stroke="black" points="551.5,-348.5 551.5,-369.5 640.5,-369.5 640.5,-348.5 551.5,-348.5"/>
<text text-anchor="middle" x="596" y="-356.5" font-family="Helvetica,sans-Serif" font-size="10.00">nsTraceRefcnt.h</text>
</a>
</g>
<!-- Node31&#45;&gt;Node38 -->
<g id="edge124" class="edge"><title>Node31&#45;&gt;Node38</title>
<path fill="none" stroke="midnightblue" d="M596,-406.362C596,-398.922 596,-388.743 596,-379.728"/>
<polygon fill="midnightblue" stroke="midnightblue" points="599.5,-379.571 596,-369.571 592.5,-379.571 599.5,-379.571"/>
</g>
<!-- Node39 -->
<g id="node103" class="node"><title>Node39</title>
<a xlink:href="../../db/d18/_atomics_8h.html" target="_top" xlink:title="mozilla/Atomics.h">
<polygon fill="white" stroke="black" points="1059.5,-290.5 1059.5,-311.5 1154.5,-311.5 1154.5,-290.5 1059.5,-290.5"/>
<text text-anchor="middle" x="1107" y="-298.5" font-family="Helvetica,sans-Serif" font-size="10.00">mozilla/Atomics.h</text>
</a>
</g>
<!-- Node31&#45;&gt;Node39 -->
<g id="edge128" class="edge"><title>Node31&#45;&gt;Node39</title>
<path fill="none" stroke="midnightblue" d="M644.09,-414.67C712.323,-410.441 840.652,-399.064 946,-370 994.086,-356.734 1046.65,-332.14 1078.21,-316.181"/>
<polygon fill="midnightblue" stroke="midnightblue" points="1080,-319.199 1087.3,-311.528 1076.81,-312.968 1080,-319.199"/>
</g>
<!-- Node33 -->
<g id="node87" class="node"><title>Node33</title>
<a xlink:href="../../dc/d23/prtypes_8h.html" target="_top" xlink:title="prtypes.h">
<polygon fill="white" stroke="black" points="721.5,-232.5 721.5,-253.5 778.5,-253.5 778.5,-232.5 721.5,-232.5"/>
<text text-anchor="middle" x="750" y="-240.5" font-family="Helvetica,sans-Serif" font-size="10.00">prtypes.h</text>
</a>
</g>
<!-- Node32&#45;&gt;Node33 -->
<g id="edge108" class="edge"><title>Node32&#45;&gt;Node33</title>
<path fill="none" stroke="midnightblue" d="M728.215,-348.295C732.198,-329.045 740.63,-288.289 745.757,-263.509"/>
<polygon fill="midnightblue" stroke="midnightblue" points="749.192,-264.181 747.791,-253.679 742.337,-262.763 749.192,-264.181"/>
</g>
<!-- Node37 -->
<g id="node96" class="node"><title>Node37</title>
<a xlink:href="../../d7/dc8/prinrval_8h.html" target="_top" xlink:title="prinrval.h">
<polygon fill="white" stroke="black" points="782,-290.5 782,-311.5 838,-311.5 838,-290.5 782,-290.5"/>
<text text-anchor="middle" x="810" y="-298.5" font-family="Helvetica,sans-Serif" font-size="10.00">prinrval.h</text>
</a>
</g>
<!-- Node32&#45;&gt;Node37 -->
<g id="edge118" class="edge"><title>Node32&#45;&gt;Node37</title>
<path fill="none" stroke="midnightblue" d="M741.407,-348.362C753.958,-339.696 771.892,-327.313 786.275,-317.382"/>
<polygon fill="midnightblue" stroke="midnightblue" points="788.45,-320.133 794.691,-311.571 784.473,-314.372 788.45,-320.133"/>
</g>
<!-- Node33&#45;&gt;Node15 -->
<g id="edge112" class="edge"><title>Node33&#45;&gt;Node15</title>
<path fill="none" stroke="midnightblue" d="M750,-232.362C750,-224.922 750,-214.743 750,-205.728"/>
<polygon fill="midnightblue" stroke="midnightblue" points="753.5,-205.571 750,-195.571 746.5,-205.571 753.5,-205.571"/>
</g>
<!-- Node34 -->
<g id="node89" class="node"><title>Node34</title>
<a xlink:href="../../d7/d7e/prcpucfg_8h.html" target="_top" xlink:title="prcpucfg.h">
<polygon fill="white" stroke="black" points="644,-174.5 644,-195.5 706,-195.5 706,-174.5 644,-174.5"/>
<text text-anchor="middle" x="675" y="-182.5" font-family="Helvetica,sans-Serif" font-size="10.00">prcpucfg.h</text>
</a>
</g>
<!-- Node33&#45;&gt;Node34 -->
<g id="edge110" class="edge"><title>Node33&#45;&gt;Node34</title>
<path fill="none" stroke="midnightblue" d="M736.244,-232.362C725.249,-223.859 709.627,-211.779 696.914,-201.947"/>
<polygon fill="midnightblue" stroke="midnightblue" points="698.721,-198.919 688.669,-195.571 694.438,-204.457 698.721,-198.919"/>
</g>
<!-- Node35 -->
<g id="node92" class="node"><title>Node35</title>
<a xlink:href="../../d2/de8/protypes_8h.html" target="_top" xlink:title="obsolete/protypes.h">
<polygon fill="white" stroke="black" points="832,-174.5 832,-195.5 934,-195.5 934,-174.5 832,-174.5"/>
<text text-anchor="middle" x="883" y="-182.5" font-family="Helvetica,sans-Serif" font-size="10.00">obsolete/protypes.h</text>
</a>
</g>
<!-- Node33&#45;&gt;Node35 -->
<g id="edge114" class="edge"><title>Node33&#45;&gt;Node35</title>
<path fill="none" stroke="midnightblue" d="M774.085,-232.497C795.139,-223.315 825.927,-209.889 849.402,-199.652"/>
<polygon fill="midnightblue" stroke="midnightblue" points="850.877,-202.827 858.644,-195.621 848.079,-196.41 850.877,-202.827"/>
</g>
<!-- Node36 -->
<g id="node94" class="node"><title>Node36</title>
<polygon fill="white" stroke="#bfbfbf" points="849,-116.5 849,-137.5 917,-137.5 917,-116.5 849,-116.5"/>
<text text-anchor="middle" x="883" y="-124.5" font-family="Helvetica,sans-Serif" font-size="10.00">sys/types.h</text>
</g>
<!-- Node35&#45;&gt;Node36 -->
<g id="edge116" class="edge"><title>Node35&#45;&gt;Node36</title>
<path fill="none" stroke="midnightblue" d="M883,-174.362C883,-166.922 883,-156.743 883,-147.728"/>
<polygon fill="midnightblue" stroke="midnightblue" points="886.5,-147.571 883,-137.571 879.5,-147.571 886.5,-147.571"/>
</g>
<!-- Node37&#45;&gt;Node33 -->
<g id="edge120" class="edge"><title>Node37&#45;&gt;Node33</title>
<path fill="none" stroke="midnightblue" d="M798.995,-290.362C790.453,-282.104 778.42,-270.472 768.417,-260.803"/>
<polygon fill="midnightblue" stroke="midnightblue" points="770.558,-258.004 760.935,-253.571 765.692,-263.037 770.558,-258.004"/>
</g>
<!-- Node38&#45;&gt;Node26 -->
<g id="edge126" class="edge"><title>Node38&#45;&gt;Node26</title>
<path fill="none" stroke="midnightblue" d="M590.498,-348.362C586.48,-340.595 580.919,-329.843 576.11,-320.546"/>
<polygon fill="midnightblue" stroke="midnightblue" points="579.171,-318.845 571.468,-311.571 572.953,-322.061 579.171,-318.845"/>
</g>
<!-- Node39&#45;&gt;Node16 -->
<g id="edge136" class="edge"><title>Node39&#45;&gt;Node16</title>
<path fill="none" stroke="midnightblue" d="M1111.95,-290.16C1122.18,-265.937 1142.36,-206.966 1113,-174 1100.71,-160.196 838.749,-137.621 742.81,-129.784"/>
<polygon fill="midnightblue" stroke="midnightblue" points="742.993,-126.287 732.742,-128.966 742.426,-133.264 742.993,-126.287"/>
</g>
<!-- Node39&#45;&gt;Node28 -->
<g id="edge130" class="edge"><title>Node39&#45;&gt;Node28</title>
<path fill="none" stroke="midnightblue" d="M1085.45,-290.497C1066.86,-281.438 1039.8,-268.246 1018.9,-258.063"/>
<polygon fill="midnightblue" stroke="midnightblue" points="1020.31,-254.856 1009.79,-253.621 1017.25,-261.149 1020.31,-254.856"/>
</g>
<!-- Node40 -->
<g id="node106" class="node"><title>Node40</title>
<a xlink:href="../../d4/dd5/_type_traits_8h.html" target="_top" xlink:title="mozilla/TypeTraits.h">
<polygon fill="white" stroke="black" points="1221.5,-232.5 1221.5,-253.5 1326.5,-253.5 1326.5,-232.5 1221.5,-232.5"/>
<text text-anchor="middle" x="1274" y="-240.5" font-family="Helvetica,sans-Serif" font-size="10.00">mozilla/TypeTraits.h</text>
</a>
</g>
<!-- Node39&#45;&gt;Node40 -->
<g id="edge132" class="edge"><title>Node39&#45;&gt;Node40</title>
<path fill="none" stroke="midnightblue" d="M1137.24,-290.497C1164.35,-281.082 1204.31,-267.204 1234.04,-256.877"/>
<polygon fill="midnightblue" stroke="midnightblue" points="1235.4,-260.11 1243.7,-253.523 1233.11,-253.498 1235.4,-260.11"/>
</g>
<!-- Node41 -->
<g id="node108" class="node"><title>Node41</title>
<polygon fill="white" stroke="#bfbfbf" points="1248.5,-174.5 1248.5,-195.5 1299.5,-195.5 1299.5,-174.5 1248.5,-174.5"/>
<text text-anchor="middle" x="1274" y="-182.5" font-family="Helvetica,sans-Serif" font-size="10.00">wchar.h</text>
</g>
<!-- Node40&#45;&gt;Node41 -->
<g id="edge134" class="edge"><title>Node40&#45;&gt;Node41</title>
<path fill="none" stroke="midnightblue" d="M1274,-232.362C1274,-224.922 1274,-214.743 1274,-205.728"/>
<polygon fill="midnightblue" stroke="midnightblue" points="1277.5,-205.571 1274,-195.571 1270.5,-205.571 1277.5,-205.571"/>
</g>
</g>
</svg>
        <g id="navigator" transform="translate(0 0)" fill="#404254">
                <rect fill="#f2f5e9" fill-opacity="0.5" stroke="#606060" stroke-width=".5" x="0" y="0" width="60" height="60"/>
                <use id="zoomplus" xlink:href="#zoomPlus" x="17" y="9" onmousedown="handleZoom(evt,'in')"/>
                <use id="zoomminus" xlink:href="#zoomMin" x="42" y="9" onmousedown="handleZoom(evt,'out')"/>
                <use id="reset" xlink:href="#resetDef" x="30" y="36" onmousedown="handleReset()"/>
                <g id="arrowUp" xlink:href="#dirArrow" transform="translate(30 24)" onmousedown="handlePan(0,-1)">
                  <use xlink:href="#rim" fill="#404040">
                        <set attributeName="fill" to="#808080" begin="arrowUp.mouseover" end="arrowUp.mouseout"/>
                  </use>
                  <path fill="none" stroke="white" stroke-width="1.5" d="M0,-3.0v7 M-2.5,-0.5L0,-3.0L2.5,-0.5"/>
                </g>
                <g id="arrowRight" xlink:href="#dirArrow" transform="rotate(90) translate(36 -43)" onmousedown="handlePan(1,0)">
                  <use xlink:href="#rim" fill="#404040">
                        <set attributeName="fill" to="#808080" begin="arrowRight.mouseover" end="arrowRight.mouseout"/>
                  </use>
                  <path fill="none" stroke="white" stroke-width="1.5" d="M0,-3.0v7 M-2.5,-0.5L0,-3.0L2.5,-0.5"/>
                </g>
                <g id="arrowDown" xlink:href="#dirArrow" transform="rotate(180) translate(-30 -48)" onmousedown="handlePan(0,1)">
                  <use xlink:href="#rim" fill="#404040">
                        <set attributeName="fill" to="#808080" begin="arrowDown.mouseover" end="arrowDown.mouseout"/>
                  </use>
                  <path fill="none" stroke="white" stroke-width="1.5" d="M0,-3.0v7 M-2.5,-0.5L0,-3.0L2.5,-0.5"/>
                </g>
                <g id="arrowLeft" xlink:href="#dirArrow" transform="rotate(270) translate(-36 17)" onmousedown="handlePan(-1,0)">
                  <use xlink:href="#rim" fill="#404040">
                        <set attributeName="fill" to="#808080" begin="arrowLeft.mouseover" end="arrowLeft.mouseout"/>
                  </use>
                  <path fill="none" stroke="white" stroke-width="1.5" d="M0,-3.0v7 M-2.5,-0.5L0,-3.0L2.5,-0.5"/>
                </g>
        </g>
</svg>
