<?xml version="1.0" encoding="UTF-8" standalone="no"?>
<!DOCTYPE svg PUBLIC "-//W3C//DTD SVG 1.1//EN"
 "http://www.w3.org/Graphics/SVG/1.1/DTD/svg11.dtd">
<!-- Generated by graphviz version 2.26.3 (20100126.1600)
 -->
<!-- Title: G Pages: 1 -->
<svg width="434pt" height="204pt"
 viewBox="0.00 0.00 434.00 204.00" xmlns="http://www.w3.org/2000/svg" xmlns:xlink="http://www.w3.org/1999/xlink">
<g id="graph1" class="graph" transform="scale(1 1) rotate(0) translate(4 200)">
<title>G</title>
<polygon fill="white" stroke="white" points="-4,5 -4,-200 431,-200 431,5 -4,5"/>
<!-- Node1 -->
<g id="node1" class="node"><title>Node1</title>
<polygon fill="#bfbfbf" stroke="black" points="-0.5,-174.5 -0.5,-195.5 426.5,-195.5 426.5,-174.5 -0.5,-174.5"/>
<text text-anchor="middle" x="213" y="-182.5" font-family="Helvetica,sans-Serif" font-size="10.00">/home/aoi/Documents/FxOS/B2G/gaia/xulrunner&#45;sdk/include/mozIStoragePendingStatement.h</text>
</g>
<!-- Node2 -->
<g id="node3" class="node"><title>Node2</title>
<a xlink:href="../../d8/d6b/storage_8h.html" target="_top" xlink:title="/home/aoi/Documents/FxOS/B2G/gaia/xulrunner&#45;sdk/include/mozilla/storage.h">
<polygon fill="white" stroke="black" points="34.5,-116.5 34.5,-137.5 391.5,-137.5 391.5,-116.5 34.5,-116.5"/>
<text text-anchor="middle" x="213" y="-124.5" font-family="Helvetica,sans-Serif" font-size="10.00">/home/aoi/Documents/FxOS/B2G/gaia/xulrunner&#45;sdk/include/mozilla/storage.h</text>
</a>
</g>
<!-- Node1&#45;&gt;Node2 -->
<g id="edge2" class="edge"><title>Node1&#45;&gt;Node2</title>
<path fill="none" stroke="midnightblue" d="M213,-164.191C213,-155.168 213,-144.994 213,-137.571"/>
<polygon fill="midnightblue" stroke="midnightblue" points="209.5,-164.362 213,-174.362 216.5,-164.362 209.5,-164.362"/>
</g>
<!-- Node3 -->
<g id="node5" class="node"><title>Node3</title>
<a xlink:href="../../d1/d94/_database_8h.html" target="_top" xlink:title="/home/aoi/Documents/FxOS/B2G/gaia/xulrunner&#45;sdk/include/mozilla/places/Database.h">
<polygon fill="white" stroke="black" points="14,-58.5 14,-79.5 412,-79.5 412,-58.5 14,-58.5"/>
<text text-anchor="middle" x="213" y="-66.5" font-family="Helvetica,sans-Serif" font-size="10.00">/home/aoi/Documents/FxOS/B2G/gaia/xulrunner&#45;sdk/include/mozilla/places/Database.h</text>
</a>
</g>
<!-- Node2&#45;&gt;Node3 -->
<g id="edge4" class="edge"><title>Node2&#45;&gt;Node3</title>
<path fill="none" stroke="midnightblue" d="M213,-106.191C213,-97.1684 213,-86.9941 213,-79.5707"/>
<polygon fill="midnightblue" stroke="midnightblue" points="209.5,-106.362 213,-116.362 216.5,-106.362 209.5,-106.362"/>
</g>
<!-- Node4 -->
<g id="node7" class="node"><title>Node4</title>
<a xlink:href="../../d0/de8/_history_8h.html" target="_top" xlink:title="/home/aoi/Documents/FxOS/B2G/gaia/xulrunner&#45;sdk/include/mozilla/places/History.h">
<polygon fill="white" stroke="black" points="19,-0.5 19,-21.5 407,-21.5 407,-0.5 19,-0.5"/>
<text text-anchor="middle" x="213" y="-8.5" font-family="Helvetica,sans-Serif" font-size="10.00">/home/aoi/Documents/FxOS/B2G/gaia/xulrunner&#45;sdk/include/mozilla/places/History.h</text>
</a>
</g>
<!-- Node3&#45;&gt;Node4 -->
<g id="edge6" class="edge"><title>Node3&#45;&gt;Node4</title>
<path fill="none" stroke="midnightblue" d="M213,-48.1906C213,-39.1684 213,-28.9941 213,-21.5707"/>
<polygon fill="midnightblue" stroke="midnightblue" points="209.5,-48.3619 213,-58.3619 216.5,-48.3619 209.5,-48.3619"/>
</g>
</g>
</svg>
