<?xml version="1.0" encoding="UTF-8" standalone="no"?>
<!DOCTYPE svg PUBLIC "-//W3C//DTD SVG 1.1//EN"
 "http://www.w3.org/Graphics/SVG/1.1/DTD/svg11.dtd">
<!-- Generated by graphviz version 2.26.3 (20100126.1600)
 -->
<!-- Title: G Pages: 1 -->
<svg width="432pt" height="70pt"
 viewBox="0.00 0.00 432.00 70.00" xmlns="http://www.w3.org/2000/svg" xmlns:xlink="http://www.w3.org/1999/xlink">
<g id="graph1" class="graph" transform="scale(1 1) rotate(0) translate(4 66)">
<title>G</title>
<polygon fill="white" stroke="white" points="-4,5 -4,-66 429,-66 429,5 -4,5"/>
<!-- Node1 -->
<g id="node1" class="node"><title>Node1</title>
<polygon fill="#bfbfbf" stroke="black" points="0.5,-20.5 0.5,-41.5 177.5,-41.5 177.5,-20.5 0.5,-20.5"/>
<text text-anchor="middle" x="89" y="-28.5" font-family="Helvetica,sans-Serif" font-size="10.00">js::detail::HashTable::relookupOrAdd</text>
</g>
<!-- Node2 -->
<g id="node3" class="node"><title>Node2</title>
<a xlink:href="../../de/d4a/classjs_1_1_hash_map.html#a451dd0917ff93675c8ae2fce28a8b121" target="_top" xlink:title="js::HashMap\&lt; Key, Value \&gt;::relookupOrAdd">
<polygon fill="white" stroke="black" points="214.5,-40.5 214.5,-61.5 423.5,-61.5 423.5,-40.5 214.5,-40.5"/>
<text text-anchor="middle" x="319" y="-48.5" font-family="Helvetica,sans-Serif" font-size="10.00">js::HashMap&lt; Key, Value &gt;::relookupOrAdd</text>
</a>
</g>
<!-- Node1&#45;&gt;Node2 -->
<g id="edge2" class="edge"><title>Node1&#45;&gt;Node2</title>
<path fill="none" stroke="midnightblue" d="M187.823,-39.5933C196.596,-40.3561 205.497,-41.1302 214.317,-41.8971"/>
<polygon fill="midnightblue" stroke="midnightblue" points="187.861,-36.0835 177.595,-38.7039 187.254,-43.0571 187.861,-36.0835"/>
</g>
<!-- Node3 -->
<g id="node5" class="node"><title>Node3</title>
<a xlink:href="../../d4/d76/classjs_1_1_hash_set.html#a7ec3a0114dd982991a5dc92be39808d5" target="_top" xlink:title="js::HashSet\&lt; T \&gt;::relookupOrAdd">
<polygon fill="white" stroke="black" points="237.5,-0.5 237.5,-21.5 400.5,-21.5 400.5,-0.5 237.5,-0.5"/>
<text text-anchor="middle" x="319" y="-8.5" font-family="Helvetica,sans-Serif" font-size="10.00">js::HashSet&lt; T &gt;::relookupOrAdd</text>
</a>
</g>
<!-- Node1&#45;&gt;Node3 -->
<g id="edge4" class="edge"><title>Node1&#45;&gt;Node3</title>
<path fill="none" stroke="midnightblue" d="M187.792,-22.4094C204.284,-20.9753 221.23,-19.5018 237.236,-18.1099"/>
<polygon fill="midnightblue" stroke="midnightblue" points="187.254,-18.9429 177.595,-23.2961 187.861,-25.9165 187.254,-18.9429"/>
</g>
</g>
</svg>
