<?xml version="1.0" encoding="UTF-8" standalone="no"?>
<!DOCTYPE svg PUBLIC "-//W3C//DTD SVG 1.1//EN"
 "http://www.w3.org/Graphics/SVG/1.1/DTD/svg11.dtd">
<!-- Generated by graphviz version 2.26.3 (20100126.1600)
 -->
<!-- Title: G Pages: 1 -->
<svg width="350pt" height="70pt"
 viewBox="0.00 0.00 350.00 70.00" xmlns="http://www.w3.org/2000/svg" xmlns:xlink="http://www.w3.org/1999/xlink">
<g id="graph1" class="graph" transform="scale(1 1) rotate(0) translate(4 66)">
<title>G</title>
<polygon fill="white" stroke="white" points="-4,5 -4,-66 347,-66 347,5 -4,5"/>
<!-- Node1 -->
<g id="node1" class="node"><title>Node1</title>
<polygon fill="#bfbfbf" stroke="black" points="0.5,-20.5 0.5,-41.5 137.5,-41.5 137.5,-20.5 0.5,-20.5"/>
<text text-anchor="middle" x="69" y="-28.5" font-family="Helvetica,sans-Serif" font-size="10.00">js::detail::HashTable::count</text>
</g>
<!-- Node2 -->
<g id="node3" class="node"><title>Node2</title>
<a xlink:href="../../de/d4a/classjs_1_1_hash_map.html#af1575eddd562fee8ca262cc4c63de7f6" target="_top" xlink:title="js::HashMap\&lt; Key, Value \&gt;::count">
<polygon fill="white" stroke="black" points="174,-40.5 174,-61.5 342,-61.5 342,-40.5 174,-40.5"/>
<text text-anchor="middle" x="258" y="-48.5" font-family="Helvetica,sans-Serif" font-size="10.00">js::HashMap&lt; Key, Value &gt;::count</text>
</a>
</g>
<!-- Node1&#45;&gt;Node2 -->
<g id="edge2" class="edge"><title>Node1&#45;&gt;Node2</title>
<path fill="none" stroke="midnightblue" d="M147.605,-39.318C156.301,-40.2382 165.182,-41.1779 173.941,-42.1049"/>
<polygon fill="midnightblue" stroke="midnightblue" points="147.813,-35.8206 137.501,-38.2487 147.077,-42.7817 147.813,-35.8206"/>
</g>
<!-- Node3 -->
<g id="node5" class="node"><title>Node3</title>
<a xlink:href="../../d4/d76/classjs_1_1_hash_set.html#a46ab8791b3eeb07bbe7d850dc5f731d6" target="_top" xlink:title="js::HashSet\&lt; T \&gt;::count">
<polygon fill="white" stroke="black" points="197,-0.5 197,-21.5 319,-21.5 319,-0.5 197,-0.5"/>
<text text-anchor="middle" x="258" y="-8.5" font-family="Helvetica,sans-Serif" font-size="10.00">js::HashSet&lt; T &gt;::count</text>
</a>
</g>
<!-- Node1&#45;&gt;Node3 -->
<g id="edge4" class="edge"><title>Node1&#45;&gt;Node3</title>
<path fill="none" stroke="midnightblue" d="M147.646,-22.6777C164.107,-20.9358 181.228,-19.124 196.935,-17.4619"/>
<polygon fill="midnightblue" stroke="midnightblue" points="147.077,-19.2183 137.501,-23.7513 147.813,-26.1794 147.077,-19.2183"/>
</g>
</g>
</svg>
