<?xml version="1.0" encoding="UTF-8" standalone="no"?>
<!DOCTYPE svg PUBLIC "-//W3C//DTD SVG 1.1//EN"
 "http://www.w3.org/Graphics/SVG/1.1/DTD/svg11.dtd">
<!-- Generated by graphviz version 2.26.3 (20100126.1600)
 -->
<!-- Title: G Pages: 1 -->
<!--zoomable 150 -->
<svg id="main" version="1.1" xmlns="http://www.w3.org/2000/svg" xmlns:xlink="http://www.w3.org/1999/xlink" xml:space="preserve" onload="init(evt)">
        <defs>
                <circle id="rim" cx="0" cy="0" r="7"/>
                <circle id="rim2" cx="0" cy="0" r="3.5"/>
                <g id="zoomPlus">
                        <use xlink:href="#rim" fill="#404040">
                                <set attributeName="fill" to="#808080" begin="zoomplus.mouseover" end="zoomplus.mouseout"/>
                        </use>
                        <path d="M-4,0h8M0,-4v8" fill="none" stroke="white" stroke-width="1.5" pointer-events="none"/>
                </g>
                <g id="zoomMin">
                        <use xlink:href="#rim" fill="#404040">
                                <set attributeName="fill" to="#808080" begin="zoomminus.mouseover" end="zoomminus.mouseout"/>
                        </use>
                        <path d="M-4,0h8" fill="none" stroke="white" stroke-width="1.5" pointer-events="none"/>
                </g>
                <g id="dirArrow">
                        <path fill="none" stroke="white" stroke-width="1.5" d="M0,-3.0v7 M-2.5,-0.5L0,-3.0L2.5,-0.5"/>
                </g>
               <g id="resetDef">
                       <use xlink:href="#rim2" fill="#404040">
                               <set attributeName="fill" to="#808080" begin="reset.mouseover" end="reset.mouseout"/>
                       </use>
               </g>
        </defs>

<script type="text/javascript">
var viewWidth = 802;
var viewHeight = 150;
var sectionId = 'dynsection-0';
</script>
<script xlink:href="../../svgpan.js"/>
<svg id="graph" class="graph">
<g id="viewport">
<title>G</title>
<polygon fill="white" stroke="white" points="-4,5 -4,-146 799,-146 799,5 -4,5"/>
<!-- Node1 -->
<g id="node1" class="node"><title>Node1</title>
<polygon fill="#bfbfbf" stroke="black" points="0.5,-80.5 0.5,-101.5 365.5,-101.5 365.5,-80.5 0.5,-80.5"/>
<text text-anchor="middle" x="183" y="-88.5" font-family="Helvetica,sans-Serif" font-size="10.00">mozilla::layout::AutoMaybeDisableFontInflation::AutoMaybeDisableFontInflation</text>
</g>
<!-- Node2 -->
<g id="node3" class="node"><title>Node2</title>
<a xlink:href="../../d7/de1/classns_layout_utils.html#a768d33f839e4147fb91fbfa93800d4c0" target="_top" xlink:title="nsLayoutUtils::IsContainerForFontSizeInflation">
<polygon fill="white" stroke="black" points="402.5,-110.5 402.5,-131.5 623.5,-131.5 623.5,-110.5 402.5,-110.5"/>
<text text-anchor="middle" x="513" y="-118.5" font-family="Helvetica,sans-Serif" font-size="10.00">nsLayoutUtils::IsContainerForFontSizeInflation</text>
</a>
</g>
<!-- Node1&#45;&gt;Node2 -->
<g id="edge2" class="edge"><title>Node1&#45;&gt;Node2</title>
<path fill="none" stroke="midnightblue" d="M298.882,-101.535C329.082,-104.28 361.698,-107.245 392.149,-110.014"/>
<polygon fill="midnightblue" stroke="midnightblue" points="392.11,-113.524 402.386,-110.944 392.744,-106.553 392.11,-113.524"/>
</g>
<!-- Node4 -->
<g id="node7" class="node"><title>Node4</title>
<a xlink:href="../../d7/d20/classns_i_frame.html#aac332ffa5d15526c2a19f2d4cf620c69" target="_top" xlink:title="nsIFrame::PresContext">
<polygon fill="white" stroke="black" points="453.5,-50.5 453.5,-71.5 572.5,-71.5 572.5,-50.5 453.5,-50.5"/>
<text text-anchor="middle" x="513" y="-58.5" font-family="Helvetica,sans-Serif" font-size="10.00">nsIFrame::PresContext</text>
</a>
</g>
<!-- Node1&#45;&gt;Node4 -->
<g id="edge6" class="edge"><title>Node1&#45;&gt;Node4</title>
<path fill="none" stroke="midnightblue" d="M298.882,-80.4653C347.093,-76.0825 401.459,-71.1401 443.346,-67.3322"/>
<polygon fill="midnightblue" stroke="midnightblue" points="443.8,-70.8055 453.442,-66.4144 443.166,-63.8342 443.8,-70.8055"/>
</g>
<!-- Node3 -->
<g id="node5" class="node"><title>Node3</title>
<a xlink:href="../../d7/d20/classns_i_frame.html#a52e0e0cc483f2503172dd54c05ff86a9" target="_top" xlink:title="nsIFrame::GetStateBits">
<polygon fill="white" stroke="black" points="667,-120.5 667,-141.5 787,-141.5 787,-120.5 667,-120.5"/>
<text text-anchor="middle" x="727" y="-128.5" font-family="Helvetica,sans-Serif" font-size="10.00">nsIFrame::GetStateBits</text>
</a>
</g>
<!-- Node2&#45;&gt;Node3 -->
<g id="edge4" class="edge"><title>Node2&#45;&gt;Node3</title>
<path fill="none" stroke="midnightblue" d="M623.761,-126.176C635.045,-126.703 646.273,-127.228 656.942,-127.726"/>
<polygon fill="midnightblue" stroke="midnightblue" points="656.832,-131.225 666.984,-128.196 657.159,-124.232 656.832,-131.225"/>
</g>
<!-- Node5 -->
<g id="node9" class="node"><title>Node5</title>
<a xlink:href="../../d7/d20/classns_i_frame.html#ae4f1ab39c02bf210eba9cfe9afb5e923" target="_top" xlink:title="nsIFrame::StyleContext">
<polygon fill="white" stroke="black" points="666.5,-80.5 666.5,-101.5 787.5,-101.5 787.5,-80.5 666.5,-80.5"/>
<text text-anchor="middle" x="727" y="-88.5" font-family="Helvetica,sans-Serif" font-size="10.00">nsIFrame::StyleContext</text>
</a>
</g>
<!-- Node4&#45;&gt;Node5 -->
<g id="edge8" class="edge"><title>Node4&#45;&gt;Node5</title>
<path fill="none" stroke="midnightblue" d="M572.611,-69.3567C598.492,-72.9848 629.007,-77.2627 656.046,-81.0532"/>
<polygon fill="midnightblue" stroke="midnightblue" points="655.833,-84.5574 666.222,-82.4797 656.805,-77.6252 655.833,-84.5574"/>
</g>
<!-- Node6 -->
<g id="node11" class="node"><title>Node6</title>
<a xlink:href="../../db/d89/classns_style_context.html#a9bd119755290d73925017f1237ec4296" target="_top" xlink:title="nsStyleContext::RuleNode">
<polygon fill="white" stroke="black" points="660,-40.5 660,-61.5 794,-61.5 794,-40.5 660,-40.5"/>
<text text-anchor="middle" x="727" y="-48.5" font-family="Helvetica,sans-Serif" font-size="10.00">nsStyleContext::RuleNode</text>
</a>
</g>
<!-- Node4&#45;&gt;Node6 -->
<g id="edge10" class="edge"><title>Node4&#45;&gt;Node6</title>
<path fill="none" stroke="midnightblue" d="M572.611,-58.2144C596.416,-57.1021 624.142,-55.8065 649.477,-54.6226"/>
<polygon fill="midnightblue" stroke="midnightblue" points="649.97,-58.1034 659.796,-54.1404 649.644,-51.1111 649.97,-58.1034"/>
</g>
<!-- Node7 -->
<g id="node13" class="node"><title>Node7</title>
<a xlink:href="../../dc/d1e/classns_rule_node.html#a3d56032423202fefe678db45e12ad6c9" target="_top" xlink:title="nsRuleNode::PresContext">
<polygon fill="white" stroke="black" points="661.5,-0.5 661.5,-21.5 792.5,-21.5 792.5,-0.5 661.5,-0.5"/>
<text text-anchor="middle" x="727" y="-8.5" font-family="Helvetica,sans-Serif" font-size="10.00">nsRuleNode::PresContext</text>
</a>
</g>
<!-- Node4&#45;&gt;Node7 -->
<g id="edge12" class="edge"><title>Node4&#45;&gt;Node7</title>
<path fill="none" stroke="midnightblue" d="M558.122,-50.4574C591.271,-42.7125 636.49,-32.1471 671.795,-23.8983"/>
<polygon fill="midnightblue" stroke="midnightblue" points="672.998,-27.2117 681.939,-21.5282 671.405,-20.3952 672.998,-27.2117"/>
</g>
</g>
</svg>
        <g id="navigator" transform="translate(0 0)" fill="#404254">
                <rect fill="#f2f5e9" fill-opacity="0.5" stroke="#606060" stroke-width=".5" x="0" y="0" width="60" height="60"/>
                <use id="zoomplus" xlink:href="#zoomPlus" x="17" y="9" onmousedown="handleZoom(evt,'in')"/>
                <use id="zoomminus" xlink:href="#zoomMin" x="42" y="9" onmousedown="handleZoom(evt,'out')"/>
                <use id="reset" xlink:href="#resetDef" x="30" y="36" onmousedown="handleReset()"/>
                <g id="arrowUp" xlink:href="#dirArrow" transform="translate(30 24)" onmousedown="handlePan(0,-1)">
                  <use xlink:href="#rim" fill="#404040">
                        <set attributeName="fill" to="#808080" begin="arrowUp.mouseover" end="arrowUp.mouseout"/>
                  </use>
                  <path fill="none" stroke="white" stroke-width="1.5" d="M0,-3.0v7 M-2.5,-0.5L0,-3.0L2.5,-0.5"/>
                </g>
                <g id="arrowRight" xlink:href="#dirArrow" transform="rotate(90) translate(36 -43)" onmousedown="handlePan(1,0)">
                  <use xlink:href="#rim" fill="#404040">
                        <set attributeName="fill" to="#808080" begin="arrowRight.mouseover" end="arrowRight.mouseout"/>
                  </use>
                  <path fill="none" stroke="white" stroke-width="1.5" d="M0,-3.0v7 M-2.5,-0.5L0,-3.0L2.5,-0.5"/>
                </g>
                <g id="arrowDown" xlink:href="#dirArrow" transform="rotate(180) translate(-30 -48)" onmousedown="handlePan(0,1)">
                  <use xlink:href="#rim" fill="#404040">
                        <set attributeName="fill" to="#808080" begin="arrowDown.mouseover" end="arrowDown.mouseout"/>
                  </use>
                  <path fill="none" stroke="white" stroke-width="1.5" d="M0,-3.0v7 M-2.5,-0.5L0,-3.0L2.5,-0.5"/>
                </g>
                <g id="arrowLeft" xlink:href="#dirArrow" transform="rotate(270) translate(-36 17)" onmousedown="handlePan(-1,0)">
                  <use xlink:href="#rim" fill="#404040">
                        <set attributeName="fill" to="#808080" begin="arrowLeft.mouseover" end="arrowLeft.mouseout"/>
                  </use>
                  <path fill="none" stroke="white" stroke-width="1.5" d="M0,-3.0v7 M-2.5,-0.5L0,-3.0L2.5,-0.5"/>
                </g>
        </g>
</svg>
