<?xml version="1.0" encoding="UTF-8" standalone="no"?>
<!DOCTYPE svg PUBLIC "-//W3C//DTD SVG 1.1//EN"
 "http://www.w3.org/Graphics/SVG/1.1/DTD/svg11.dtd">
<!-- Generated by graphviz version 2.26.3 (20100126.1600)
 -->
<!-- Title: G Pages: 1 -->
<svg width="396pt" height="146pt"
 viewBox="0.00 0.00 396.00 146.00" xmlns="http://www.w3.org/2000/svg" xmlns:xlink="http://www.w3.org/1999/xlink">
<g id="graph1" class="graph" transform="scale(1 1) rotate(0) translate(4 142)">
<title>G</title>
<polygon fill="white" stroke="white" points="-4,5 -4,-142 393,-142 393,5 -4,5"/>
<!-- Node1 -->
<g id="node1" class="node"><title>Node1</title>
<polygon fill="#bfbfbf" stroke="black" points="72,-0.5 72,-21.5 254,-21.5 254,-0.5 72,-0.5"/>
<text text-anchor="middle" x="163" y="-8.5" font-family="Helvetica,sans-Serif" font-size="10.00">mozilla::dom::alarm::AlarmHalService</text>
</g>
<!-- Node2 -->
<g id="node2" class="node"><title>Node2</title>
<a xlink:href="../../dc/d0d/interfacens_i_alarm_hal_service.html" target="_top" xlink:title="nsIAlarmHalService">
<polygon fill="white" stroke="black" points="0,-58.5 0,-79.5 104,-79.5 104,-58.5 0,-58.5"/>
<text text-anchor="middle" x="52" y="-66.5" font-family="Helvetica,sans-Serif" font-size="10.00">nsIAlarmHalService</text>
</a>
</g>
<!-- Node2&#45;&gt;Node1 -->
<g id="edge2" class="edge"><title>Node2&#45;&gt;Node1</title>
<path fill="none" stroke="midnightblue" d="M81.1011,-53.794C100.468,-43.6746 125.425,-30.6338 142.673,-21.6212"/>
<polygon fill="midnightblue" stroke="midnightblue" points="79.3434,-50.7634 72.1013,-58.4966 82.5852,-56.9675 79.3434,-50.7634"/>
</g>
<!-- Node3 -->
<g id="node4" class="node"><title>Node3</title>
<a xlink:href="../../d4/d6a/classns_i_supports.html" target="_top" xlink:title="nsISupports">
<polygon fill="white" stroke="black" points="17.5,-116.5 17.5,-137.5 86.5,-137.5 86.5,-116.5 17.5,-116.5"/>
<text text-anchor="middle" x="52" y="-124.5" font-family="Helvetica,sans-Serif" font-size="10.00">nsISupports</text>
</a>
</g>
<!-- Node3&#45;&gt;Node2 -->
<g id="edge4" class="edge"><title>Node3&#45;&gt;Node2</title>
<path fill="none" stroke="midnightblue" d="M39.0276,-106.488C37.8662,-97.3924 38.6222,-87.0756 41.2958,-79.5707"/>
<polygon fill="midnightblue" stroke="midnightblue" points="35.6425,-107.386 41.2719,-116.362 42.4684,-105.835 35.6425,-107.386"/>
</g>
<!-- Node3&#45;&gt;Node2 -->
<g id="edge6" class="edge"><title>Node3&#45;&gt;Node2</title>
<path fill="none" stroke="midnightblue" d="M52,-106.191C52,-97.1684 52,-86.9941 52,-79.5707"/>
<polygon fill="midnightblue" stroke="midnightblue" points="48.5001,-106.362 52,-116.362 55.5001,-106.362 48.5001,-106.362"/>
</g>
<!-- Node3&#45;&gt;Node2 -->
<g id="edge8" class="edge"><title>Node3&#45;&gt;Node2</title>
<path fill="none" stroke="midnightblue" d="M64.9724,-106.488C66.1338,-97.3924 65.3778,-87.0756 62.7042,-79.5707"/>
<polygon fill="midnightblue" stroke="midnightblue" points="61.5316,-105.835 62.7281,-116.362 68.3575,-107.386 61.5316,-105.835"/>
</g>
<!-- Node4 -->
<g id="node8" class="node"><title>Node4</title>
<a xlink:href="../../d4/dac/classmozilla_1_1_observer.html" target="_top" xlink:title="AlarmObserver">
<polygon fill="white" stroke="black" points="122,-58.5 122,-79.5 204,-79.5 204,-58.5 122,-58.5"/>
<text text-anchor="middle" x="163" y="-66.5" font-family="Helvetica,sans-Serif" font-size="10.00">AlarmObserver</text>
</a>
</g>
<!-- Node4&#45;&gt;Node1 -->
<g id="edge10" class="edge"><title>Node4&#45;&gt;Node1</title>
<path fill="none" stroke="midnightblue" d="M163,-48.1906C163,-39.1684 163,-28.9941 163,-21.5707"/>
<polygon fill="midnightblue" stroke="midnightblue" points="159.5,-48.3619 163,-58.3619 166.5,-48.3619 159.5,-48.3619"/>
</g>
<!-- Node5 -->
<g id="node10" class="node"><title>Node5</title>
<a xlink:href="../../d4/dac/classmozilla_1_1_observer.html" target="_top" xlink:title="SystemTimezoneChangeObserver">
<polygon fill="white" stroke="black" points="221.5,-58.5 221.5,-79.5 388.5,-79.5 388.5,-58.5 221.5,-58.5"/>
<text text-anchor="middle" x="305" y="-66.5" font-family="Helvetica,sans-Serif" font-size="10.00">SystemTimezoneChangeObserver</text>
</a>
</g>
<!-- Node5&#45;&gt;Node1 -->
<g id="edge12" class="edge"><title>Node5&#45;&gt;Node1</title>
<path fill="none" stroke="midnightblue" d="M269.782,-54.6153C244.745,-44.3889 211.671,-30.8796 189.004,-21.6212"/>
<polygon fill="midnightblue" stroke="midnightblue" points="268.704,-57.9555 279.285,-58.4966 271.351,-51.4752 268.704,-57.9555"/>
</g>
</g>
</svg>
