<?xml version="1.0" encoding="UTF-8" standalone="no"?>
<!DOCTYPE svg PUBLIC "-//W3C//DTD SVG 1.1//EN"
 "http://www.w3.org/Graphics/SVG/1.1/DTD/svg11.dtd">
<!-- Generated by graphviz version 2.26.3 (20100126.1600)
 -->
<!-- Title: G Pages: 1 -->
<svg width="278pt" height="230pt"
 viewBox="0.00 0.00 278.00 230.00" xmlns="http://www.w3.org/2000/svg" xmlns:xlink="http://www.w3.org/1999/xlink">
<g id="graph1" class="graph" transform="scale(1 1) rotate(0) translate(4 226)">
<title>G</title>
<polygon fill="white" stroke="white" points="-4,5 -4,-226 275,-226 275,5 -4,5"/>
<!-- Node1 -->
<g id="node1" class="node"><title>Node1</title>
<polygon fill="#bfbfbf" stroke="black" points="0,-100.5 0,-121.5 50,-121.5 50,-100.5 0,-100.5"/>
<text text-anchor="middle" x="25" y="-108.5" font-family="Helvetica,sans-Serif" font-size="10.00">offsetof</text>
</g>
<!-- Node2 -->
<g id="node3" class="node"><title>Node2</title>
<a xlink:href="../../d0/d86/classgfx_shaped_word.html#a6235d474e473f2318c6e16e1c81dcebd" target="_top" xlink:title="gfxShapedWord::Create">
<polygon fill="white" stroke="black" points="117,-200.5 117,-221.5 239,-221.5 239,-200.5 117,-200.5"/>
<text text-anchor="middle" x="178" y="-208.5" font-family="Helvetica,sans-Serif" font-size="10.00">gfxShapedWord::Create</text>
</a>
</g>
<!-- Node1&#45;&gt;Node2 -->
<g id="edge2" class="edge"><title>Node1&#45;&gt;Node2</title>
<path fill="none" stroke="midnightblue" d="M34.8032,-130.8C45.0141,-149.298 62.7674,-176.217 86,-191 95.2394,-196.879 105.944,-201.051 116.715,-204.006"/>
<polygon fill="midnightblue" stroke="midnightblue" points="37.7987,-128.977 30.0406,-121.761 31.6058,-132.24 37.7987,-128.977"/>
</g>
<!-- Node3 -->
<g id="node5" class="node"><title>Node3</title>
<a xlink:href="../../db/d81/structjs_1_1_class.html#a49e58e702aadb3322611069c633f13ec" target="_top" xlink:title="js::Class::offsetOfFlags">
<polygon fill="white" stroke="black" points="117.5,-160.5 117.5,-181.5 238.5,-181.5 238.5,-160.5 117.5,-160.5"/>
<text text-anchor="middle" x="178" y="-168.5" font-family="Helvetica,sans-Serif" font-size="10.00">js::Class::offsetOfFlags</text>
</a>
</g>
<!-- Node1&#45;&gt;Node3 -->
<g id="edge4" class="edge"><title>Node1&#45;&gt;Node3</title>
<path fill="none" stroke="midnightblue" d="M46.5081,-127.907C57.7221,-135.974 71.9937,-145.124 86,-151 95.7972,-155.11 106.55,-158.423 117.142,-161.077"/>
<polygon fill="midnightblue" stroke="midnightblue" points="48.3467,-124.913 38.2338,-121.754 44.1694,-130.53 48.3467,-124.913"/>
</g>
<!-- Node4 -->
<g id="node7" class="node"><title>Node4</title>
<a xlink:href="../../d1/dc3/classjs_1_1_profile_entry.html#a54e1875011c487d8126164de23a6d1a4" target="_top" xlink:title="js::ProfileEntry::offsetOfPCIdx">
<polygon fill="white" stroke="black" points="103,-120.5 103,-141.5 253,-141.5 253,-120.5 103,-120.5"/>
<text text-anchor="middle" x="178" y="-128.5" font-family="Helvetica,sans-Serif" font-size="10.00">js::ProfileEntry::offsetOfPCIdx</text>
</a>
</g>
<!-- Node1&#45;&gt;Node4 -->
<g id="edge6" class="edge"><title>Node1&#45;&gt;Node4</title>
<path fill="none" stroke="midnightblue" d="M60.3944,-115.627C73.1154,-117.29 87.9934,-119.234 102.806,-121.171"/>
<polygon fill="midnightblue" stroke="midnightblue" points="60.6342,-112.128 50.2648,-114.303 59.7268,-119.069 60.6342,-112.128"/>
</g>
<!-- Node5 -->
<g id="node9" class="node"><title>Node5</title>
<a xlink:href="../../d1/dc3/classjs_1_1_profile_entry.html#a5a573d4786840e4605e00cec18784401" target="_top" xlink:title="js::ProfileEntry::offsetOfScript">
<polygon fill="white" stroke="black" points="104,-80.5 104,-101.5 252,-101.5 252,-80.5 104,-80.5"/>
<text text-anchor="middle" x="178" y="-88.5" font-family="Helvetica,sans-Serif" font-size="10.00">js::ProfileEntry::offsetOfScript</text>
</a>
</g>
<!-- Node1&#45;&gt;Node5 -->
<g id="edge8" class="edge"><title>Node1&#45;&gt;Node5</title>
<path fill="none" stroke="midnightblue" d="M60.1937,-106.4C73.2439,-104.694 88.5848,-102.688 103.804,-100.699"/>
<polygon fill="midnightblue" stroke="midnightblue" points="59.7268,-102.931 50.2648,-107.697 60.6342,-109.872 59.7268,-102.931"/>
</g>
<!-- Node6 -->
<g id="node11" class="node"><title>Node6</title>
<a xlink:href="../../d1/dc3/classjs_1_1_profile_entry.html#a253b79ee8575b4e23d5ecd023df31904" target="_top" xlink:title="js::ProfileEntry::offsetOfStackAddress">
<polygon fill="white" stroke="black" points="86,-40.5 86,-61.5 270,-61.5 270,-40.5 86,-40.5"/>
<text text-anchor="middle" x="178" y="-48.5" font-family="Helvetica,sans-Serif" font-size="10.00">js::ProfileEntry::offsetOfStackAddress</text>
</a>
</g>
<!-- Node1&#45;&gt;Node6 -->
<g id="edge10" class="edge"><title>Node1&#45;&gt;Node6</title>
<path fill="none" stroke="midnightblue" d="M46.5081,-94.0926C57.7221,-86.0261 71.9937,-76.8761 86,-71 95.0435,-67.2059 104.902,-64.0917 114.696,-61.5471"/>
<polygon fill="midnightblue" stroke="midnightblue" points="44.1694,-91.4701 38.2338,-100.246 48.3467,-97.0871 44.1694,-91.4701"/>
</g>
<!-- Node7 -->
<g id="node13" class="node"><title>Node7</title>
<a xlink:href="../../d1/dc3/classjs_1_1_profile_entry.html#ad5dde7266812c4469b671171aa98551f" target="_top" xlink:title="js::ProfileEntry::offsetOfString">
<polygon fill="white" stroke="black" points="104,-0.5 104,-21.5 252,-21.5 252,-0.5 104,-0.5"/>
<text text-anchor="middle" x="178" y="-8.5" font-family="Helvetica,sans-Serif" font-size="10.00">js::ProfileEntry::offsetOfString</text>
</a>
</g>
<!-- Node1&#45;&gt;Node7 -->
<g id="edge12" class="edge"><title>Node1&#45;&gt;Node7</title>
<path fill="none" stroke="midnightblue" d="M34.8032,-91.2001C45.0141,-72.7016 62.7674,-45.7835 86,-31 91.9298,-27.2267 98.4631,-24.1568 105.23,-21.6604"/>
<polygon fill="midnightblue" stroke="midnightblue" points="31.6058,-89.7601 30.0406,-100.239 37.7987,-93.0233 31.6058,-89.7601"/>
</g>
</g>
</svg>
