<?xml version="1.0" encoding="UTF-8" standalone="no"?>
<!DOCTYPE svg PUBLIC "-//W3C//DTD SVG 1.1//EN"
 "http://www.w3.org/Graphics/SVG/1.1/DTD/svg11.dtd">
<!-- Generated by graphviz version 2.26.3 (20100126.1600)
 -->
<!-- Title: G Pages: 1 -->
<svg width="234pt" height="320pt"
 viewBox="0.00 0.00 234.00 320.00" xmlns="http://www.w3.org/2000/svg" xmlns:xlink="http://www.w3.org/1999/xlink">
<g id="graph1" class="graph" transform="scale(1 1) rotate(0) translate(4 316)">
<title>G</title>
<polygon fill="white" stroke="white" points="-4,5 -4,-316 231,-316 231,5 -4,5"/>
<!-- Node1 -->
<g id="node1" class="node"><title>Node1</title>
<polygon fill="#bfbfbf" stroke="black" points="-0.5,-0.5 -0.5,-21.5 226.5,-21.5 226.5,-0.5 -0.5,-0.5"/>
<text text-anchor="middle" x="113" y="-8.5" font-family="Helvetica,sans-Serif" font-size="10.00">mozilla::dom::GamepadButtonEventInitInitializer</text>
</g>
<!-- Node2 -->
<g id="node2" class="node"><title>Node2</title>
<a xlink:href="../../d1/db0/structmozilla_1_1dom_1_1_gamepad_button_event_init.html" target="_top" xlink:title="mozilla::dom::GamepadButtonEventInit">
<polygon fill="white" stroke="black" points="19,-58.5 19,-79.5 207,-79.5 207,-58.5 19,-58.5"/>
<text text-anchor="middle" x="113" y="-66.5" font-family="Helvetica,sans-Serif" font-size="10.00">mozilla::dom::GamepadButtonEventInit</text>
</a>
</g>
<!-- Node2&#45;&gt;Node1 -->
<g id="edge2" class="edge"><title>Node2&#45;&gt;Node1</title>
<path fill="none" stroke="midnightblue" d="M113,-48.1906C113,-39.1684 113,-28.9941 113,-21.5707"/>
<polygon fill="midnightblue" stroke="midnightblue" points="109.5,-48.3619 113,-58.3619 116.5,-48.3619 109.5,-48.3619"/>
</g>
<!-- Node3 -->
<g id="node4" class="node"><title>Node3</title>
<a xlink:href="../../da/d70/structmozilla_1_1dom_1_1_gamepad_event_init.html" target="_top" xlink:title="mozilla::dom::GamepadEventInit">
<polygon fill="white" stroke="black" points="33.5,-116.5 33.5,-137.5 192.5,-137.5 192.5,-116.5 33.5,-116.5"/>
<text text-anchor="middle" x="113" y="-124.5" font-family="Helvetica,sans-Serif" font-size="10.00">mozilla::dom::GamepadEventInit</text>
</a>
</g>
<!-- Node3&#45;&gt;Node2 -->
<g id="edge4" class="edge"><title>Node3&#45;&gt;Node2</title>
<path fill="none" stroke="midnightblue" d="M113,-106.191C113,-97.1684 113,-86.9941 113,-79.5707"/>
<polygon fill="midnightblue" stroke="midnightblue" points="109.5,-106.362 113,-116.362 116.5,-106.362 109.5,-106.362"/>
</g>
<!-- Node4 -->
<g id="node6" class="node"><title>Node4</title>
<a xlink:href="../../d8/d68/structmozilla_1_1dom_1_1_event_init.html" target="_top" xlink:title="mozilla::dom::EventInit">
<polygon fill="white" stroke="black" points="54.5,-174.5 54.5,-195.5 171.5,-195.5 171.5,-174.5 54.5,-174.5"/>
<text text-anchor="middle" x="113" y="-182.5" font-family="Helvetica,sans-Serif" font-size="10.00">mozilla::dom::EventInit</text>
</a>
</g>
<!-- Node4&#45;&gt;Node3 -->
<g id="edge6" class="edge"><title>Node4&#45;&gt;Node3</title>
<path fill="none" stroke="midnightblue" d="M113,-164.191C113,-155.168 113,-144.994 113,-137.571"/>
<polygon fill="midnightblue" stroke="midnightblue" points="109.5,-164.362 113,-174.362 116.5,-164.362 109.5,-164.362"/>
</g>
<!-- Node5 -->
<g id="node8" class="node"><title>Node5</title>
<a xlink:href="../../d5/d9f/structmozilla_1_1dom_1_1_main_thread_dictionary_base.html" target="_top" xlink:title="mozilla::dom::MainThreadDictionaryBase">
<polygon fill="white" stroke="black" points="15,-232.5 15,-253.5 211,-253.5 211,-232.5 15,-232.5"/>
<text text-anchor="middle" x="113" y="-240.5" font-family="Helvetica,sans-Serif" font-size="10.00">mozilla::dom::MainThreadDictionaryBase</text>
</a>
</g>
<!-- Node5&#45;&gt;Node4 -->
<g id="edge8" class="edge"><title>Node5&#45;&gt;Node4</title>
<path fill="none" stroke="midnightblue" d="M113,-222.191C113,-213.168 113,-202.994 113,-195.571"/>
<polygon fill="midnightblue" stroke="midnightblue" points="109.5,-222.362 113,-232.362 116.5,-222.362 109.5,-222.362"/>
</g>
<!-- Node6 -->
<g id="node10" class="node"><title>Node6</title>
<a xlink:href="../../d6/d60/structmozilla_1_1dom_1_1_dictionary_base.html" target="_top" xlink:title="mozilla::dom::DictionaryBase">
<polygon fill="white" stroke="black" points="40.5,-290.5 40.5,-311.5 185.5,-311.5 185.5,-290.5 40.5,-290.5"/>
<text text-anchor="middle" x="113" y="-298.5" font-family="Helvetica,sans-Serif" font-size="10.00">mozilla::dom::DictionaryBase</text>
</a>
</g>
<!-- Node6&#45;&gt;Node5 -->
<g id="edge10" class="edge"><title>Node6&#45;&gt;Node5</title>
<path fill="none" stroke="midnightblue" d="M113,-280.191C113,-271.168 113,-260.994 113,-253.571"/>
<polygon fill="midnightblue" stroke="midnightblue" points="109.5,-280.362 113,-290.362 116.5,-280.362 109.5,-280.362"/>
</g>
</g>
</svg>
