<?xml version="1.0" encoding="UTF-8" standalone="no"?>
<!DOCTYPE svg PUBLIC "-//W3C//DTD SVG 1.1//EN"
 "http://www.w3.org/Graphics/SVG/1.1/DTD/svg11.dtd">
<!-- Generated by graphviz version 2.26.3 (20100126.1600)
 -->
<!-- Title: G Pages: 1 -->
<svg width="498pt" height="110pt"
 viewBox="0.00 0.00 498.00 110.00" xmlns="http://www.w3.org/2000/svg" xmlns:xlink="http://www.w3.org/1999/xlink">
<g id="graph1" class="graph" transform="scale(1 1) rotate(0) translate(4 106)">
<title>G</title>
<polygon fill="white" stroke="white" points="-4,5 -4,-106 495,-106 495,5 -4,5"/>
<!-- Node1 -->
<g id="node1" class="node"><title>Node1</title>
<polygon fill="#bfbfbf" stroke="black" points="0,-40.5 0,-61.5 212,-61.5 212,-40.5 0,-40.5"/>
<text text-anchor="middle" x="106" y="-48.5" font-family="Helvetica,sans-Serif" font-size="10.00">gaiatest.apps.fmradio.app.FmRadio.tap_next</text>
</g>
<!-- Node2 -->
<g id="node3" class="node"><title>Node2</title>
<a xlink:href="../../dd/d82/classgaiatest_1_1apps_1_1fmradio_1_1app_1_1_fm_radio.html#a3e133f5cec24fbdb1818c908ff2259f8" target="_top" xlink:title="gaiatest.apps.fmradio.app.FmRadio.frequency">
<polygon fill="white" stroke="black" points="260,-80.5 260,-101.5 478,-101.5 478,-80.5 260,-80.5"/>
<text text-anchor="middle" x="369" y="-88.5" font-family="Helvetica,sans-Serif" font-size="10.00">gaiatest.apps.fmradio.app.FmRadio.frequency</text>
</a>
</g>
<!-- Node1&#45;&gt;Node2 -->
<g id="edge2" class="edge"><title>Node1&#45;&gt;Node2</title>
<path fill="none" stroke="midnightblue" d="M175.1,-61.5095C210.296,-66.8625 253.255,-73.3962 289.784,-78.952"/>
<polygon fill="midnightblue" stroke="midnightblue" points="289.493,-82.4478 299.905,-80.4913 290.545,-75.5274 289.493,-82.4478"/>
</g>
<!-- Node3 -->
<g id="node5" class="node"><title>Node3</title>
<a xlink:href="../../d9/deb/classgaiatest_1_1apps_1_1base_1_1_base.html#acd0689f975942b2bad45ef1bf321e0c5" target="_top" xlink:title="gaiatest.apps.base.Base.wait_for_condition">
<polygon fill="white" stroke="black" points="266,-40.5 266,-61.5 472,-61.5 472,-40.5 266,-40.5"/>
<text text-anchor="middle" x="369" y="-48.5" font-family="Helvetica,sans-Serif" font-size="10.00">gaiatest.apps.base.Base.wait_for_condition</text>
</a>
</g>
<!-- Node1&#45;&gt;Node3 -->
<g id="edge4" class="edge"><title>Node1&#45;&gt;Node3</title>
<path fill="none" stroke="midnightblue" d="M212.214,-51C226.439,-51 241.075,-51 255.42,-51"/>
<polygon fill="midnightblue" stroke="midnightblue" points="255.804,-54.5001 265.804,-51 255.804,-47.5001 255.804,-54.5001"/>
</g>
<!-- Node4 -->
<g id="node7" class="node"><title>Node4</title>
<a xlink:href="../../d6/de4/classgaiatest_1_1gaia__test_1_1_gaia_test_case.html#a665ed7dc4e1131529b18157f28a01f8a" target="_top" xlink:title="gaiatest.gaia_test.GaiaTestCase.wait_for_condition">
<polygon fill="white" stroke="black" points="248,-0.5 248,-21.5 490,-21.5 490,-0.5 248,-0.5"/>
<text text-anchor="middle" x="369" y="-8.5" font-family="Helvetica,sans-Serif" font-size="10.00">gaiatest.gaia_test.GaiaTestCase.wait_for_condition</text>
</a>
</g>
<!-- Node1&#45;&gt;Node4 -->
<g id="edge6" class="edge"><title>Node1&#45;&gt;Node4</title>
<path fill="none" stroke="midnightblue" d="M175.1,-40.4905C210.296,-35.1375 253.255,-28.6038 289.784,-23.048"/>
<polygon fill="midnightblue" stroke="midnightblue" points="290.545,-26.4726 299.905,-21.5087 289.493,-19.5522 290.545,-26.4726"/>
</g>
</g>
</svg>
