<?xml version="1.0" encoding="UTF-8" standalone="no"?>
<!DOCTYPE svg PUBLIC "-//W3C//DTD SVG 1.1//EN"
 "http://www.w3.org/Graphics/SVG/1.1/DTD/svg11.dtd">
<!-- Generated by graphviz version 2.26.3 (20100126.1600)
 -->
<!-- Title: G Pages: 1 -->
<svg width="497pt" height="204pt"
 viewBox="0.00 0.00 497.00 204.00" xmlns="http://www.w3.org/2000/svg" xmlns:xlink="http://www.w3.org/1999/xlink">
<g id="graph1" class="graph" transform="scale(1 1) rotate(0) translate(4 200)">
<title>G</title>
<polygon fill="white" stroke="white" points="-4,5 -4,-200 494,-200 494,5 -4,5"/>
<!-- Node1 -->
<g id="node1" class="node"><title>Node1</title>
<polygon fill="#bfbfbf" stroke="black" points="13.5,-174.5 13.5,-195.5 378.5,-195.5 378.5,-174.5 13.5,-174.5"/>
<text text-anchor="middle" x="196" y="-182.5" font-family="Helvetica,sans-Serif" font-size="10.00">/home/aoi/Documents/FxOS/B2G/gaia/xulrunner&#45;sdk/include/opus/opus_types.h</text>
</g>
<!-- Node2 -->
<g id="node3" class="node"><title>Node2</title>
<a xlink:href="../../d0/d85/opus_8h.html" target="_top" xlink:title="Opus reference implementation API.">
<polygon fill="white" stroke="black" points="28,-58.5 28,-79.5 364,-79.5 364,-58.5 28,-58.5"/>
<text text-anchor="middle" x="196" y="-66.5" font-family="Helvetica,sans-Serif" font-size="10.00">/home/aoi/Documents/FxOS/B2G/gaia/xulrunner&#45;sdk/include/opus/opus.h</text>
</a>
</g>
<!-- Node1&#45;&gt;Node2 -->
<g id="edge2" class="edge"><title>Node1&#45;&gt;Node2</title>
<path fill="none" stroke="midnightblue" d="M147.426,-170.325C132.091,-163.145 116.851,-152.762 108,-138 92.0262,-111.359 130.395,-91.0663 161.417,-79.593"/>
<polygon fill="midnightblue" stroke="midnightblue" points="146.359,-173.676 156.93,-174.392 149.113,-167.24 146.359,-173.676"/>
</g>
<!-- Node4 -->
<g id="node7" class="node"><title>Node4</title>
<a xlink:href="../../dc/d98/opus__defines_8h.html" target="_top" xlink:title="Opus reference implementation constants.">
<polygon fill="white" stroke="black" points="116.5,-116.5 116.5,-137.5 489.5,-137.5 489.5,-116.5 116.5,-116.5"/>
<text text-anchor="middle" x="303" y="-124.5" font-family="Helvetica,sans-Serif" font-size="10.00">/home/aoi/Documents/FxOS/B2G/gaia/xulrunner&#45;sdk/include/opus/opus_defines.h</text>
</a>
</g>
<!-- Node1&#45;&gt;Node4 -->
<g id="edge6" class="edge"><title>Node1&#45;&gt;Node4</title>
<path fill="none" stroke="midnightblue" d="M224.563,-169.517C243.193,-159.419 267.02,-146.503 283.499,-137.571"/>
<polygon fill="midnightblue" stroke="midnightblue" points="222.749,-166.519 215.625,-174.362 226.085,-172.673 222.749,-166.519"/>
</g>
<!-- Node3 -->
<g id="node5" class="node"><title>Node3</title>
<a xlink:href="../../d1/de2/opus__multistream_8h.html" target="_top" xlink:title="Opus reference implementation multistream API.">
<polygon fill="white" stroke="black" points="0,-0.5 0,-21.5 392,-21.5 392,-0.5 0,-0.5"/>
<text text-anchor="middle" x="196" y="-8.5" font-family="Helvetica,sans-Serif" font-size="10.00">/home/aoi/Documents/FxOS/B2G/gaia/xulrunner&#45;sdk/include/opus/opus_multistream.h</text>
</a>
</g>
<!-- Node2&#45;&gt;Node3 -->
<g id="edge4" class="edge"><title>Node2&#45;&gt;Node3</title>
<path fill="none" stroke="midnightblue" d="M196,-48.1906C196,-39.1684 196,-28.9941 196,-21.5707"/>
<polygon fill="midnightblue" stroke="midnightblue" points="192.5,-48.3619 196,-58.3619 199.5,-48.3619 192.5,-48.3619"/>
</g>
<!-- Node4&#45;&gt;Node2 -->
<g id="edge8" class="edge"><title>Node4&#45;&gt;Node2</title>
<path fill="none" stroke="midnightblue" d="M274.437,-111.517C255.807,-101.419 231.98,-88.5032 215.501,-79.5707"/>
<polygon fill="midnightblue" stroke="midnightblue" points="272.915,-114.673 283.375,-116.362 276.251,-108.519 272.915,-114.673"/>
</g>
</g>
</svg>
