<?xml version="1.0" encoding="UTF-8" standalone="no"?>
<!DOCTYPE svg PUBLIC "-//W3C//DTD SVG 1.1//EN"
 "http://www.w3.org/Graphics/SVG/1.1/DTD/svg11.dtd">
<!-- Generated by graphviz version 2.26.3 (20100126.1600)
 -->
<!-- Title: G Pages: 1 -->
<svg width="390pt" height="378pt"
 viewBox="0.00 0.00 390.00 378.00" xmlns="http://www.w3.org/2000/svg" xmlns:xlink="http://www.w3.org/1999/xlink">
<g id="graph1" class="graph" transform="scale(1 1) rotate(0) translate(4 374)">
<title>G</title>
<polygon fill="white" stroke="white" points="-4,5 -4,-374 387,-374 387,5 -4,5"/>
<!-- Node1 -->
<g id="node1" class="node"><title>Node1</title>
<polygon fill="#bfbfbf" stroke="black" points="-0.5,-348.5 -0.5,-369.5 382.5,-369.5 382.5,-348.5 -0.5,-348.5"/>
<text text-anchor="middle" x="191" y="-356.5" font-family="Helvetica,sans-Serif" font-size="10.00">/home/aoi/Documents/FxOS/B2G/gaia/xulrunner&#45;sdk/include/nsISupportsObsolete.h</text>
</g>
<!-- Node2 -->
<g id="node3" class="node"><title>Node2</title>
<a xlink:href="../../db/da9/prcmon_8h.html" target="_top" xlink:title="prcmon.h">
<polygon fill="white" stroke="black" points="162.5,-290.5 162.5,-311.5 219.5,-311.5 219.5,-290.5 162.5,-290.5"/>
<text text-anchor="middle" x="191" y="-298.5" font-family="Helvetica,sans-Serif" font-size="10.00">prcmon.h</text>
</a>
</g>
<!-- Node1&#45;&gt;Node2 -->
<g id="edge2" class="edge"><title>Node1&#45;&gt;Node2</title>
<path fill="none" stroke="midnightblue" d="M191,-348.362C191,-340.922 191,-330.743 191,-321.728"/>
<polygon fill="midnightblue" stroke="midnightblue" points="194.5,-321.571 191,-311.571 187.5,-321.571 194.5,-321.571"/>
</g>
<!-- Node3 -->
<g id="node5" class="node"><title>Node3</title>
<a xlink:href="../../d3/d31/prmon_8h.html" target="_top" xlink:title="prmon.h">
<polygon fill="white" stroke="black" points="138,-232.5 138,-253.5 190,-253.5 190,-232.5 138,-232.5"/>
<text text-anchor="middle" x="164" y="-240.5" font-family="Helvetica,sans-Serif" font-size="10.00">prmon.h</text>
</a>
</g>
<!-- Node2&#45;&gt;Node3 -->
<g id="edge4" class="edge"><title>Node2&#45;&gt;Node3</title>
<path fill="none" stroke="midnightblue" d="M186.048,-290.362C182.47,-282.677 177.532,-272.069 173.236,-262.84"/>
<polygon fill="midnightblue" stroke="midnightblue" points="176.314,-261.159 168.921,-253.571 169.968,-264.114 176.314,-261.159"/>
</g>
<!-- Node9 -->
<g id="node17" class="node"><title>Node9</title>
<a xlink:href="../../d7/dc8/prinrval_8h.html" target="_top" xlink:title="prinrval.h">
<polygon fill="white" stroke="black" points="190,-174.5 190,-195.5 246,-195.5 246,-174.5 190,-174.5"/>
<text text-anchor="middle" x="218" y="-182.5" font-family="Helvetica,sans-Serif" font-size="10.00">prinrval.h</text>
</a>
</g>
<!-- Node2&#45;&gt;Node9 -->
<g id="edge20" class="edge"><title>Node2&#45;&gt;Node9</title>
<path fill="none" stroke="midnightblue" d="M193.492,-290.295C197.972,-271.045 207.459,-230.289 213.226,-205.509"/>
<polygon fill="midnightblue" stroke="midnightblue" points="216.656,-206.212 215.514,-195.679 209.838,-204.625 216.656,-206.212"/>
</g>
<!-- Node4 -->
<g id="node7" class="node"><title>Node4</title>
<a xlink:href="../../dc/d23/prtypes_8h.html" target="_top" xlink:title="prtypes.h">
<polygon fill="white" stroke="black" points="161.5,-116.5 161.5,-137.5 218.5,-137.5 218.5,-116.5 161.5,-116.5"/>
<text text-anchor="middle" x="190" y="-124.5" font-family="Helvetica,sans-Serif" font-size="10.00">prtypes.h</text>
</a>
</g>
<!-- Node3&#45;&gt;Node4 -->
<g id="edge6" class="edge"><title>Node3&#45;&gt;Node4</title>
<path fill="none" stroke="midnightblue" d="M166.399,-232.295C170.714,-213.045 179.849,-172.289 185.403,-147.509"/>
<polygon fill="midnightblue" stroke="midnightblue" points="188.834,-148.203 187.606,-137.679 182.004,-146.672 188.834,-148.203"/>
</g>
<!-- Node3&#45;&gt;Node9 -->
<g id="edge16" class="edge"><title>Node3&#45;&gt;Node9</title>
<path fill="none" stroke="midnightblue" d="M173.904,-232.362C181.516,-224.186 192.208,-212.702 201.157,-203.091"/>
<polygon fill="midnightblue" stroke="midnightblue" points="203.906,-205.275 208.158,-195.571 198.783,-200.505 203.906,-205.275"/>
</g>
<!-- Node5 -->
<g id="node9" class="node"><title>Node5</title>
<a xlink:href="../../d7/d7e/prcpucfg_8h.html" target="_top" xlink:title="prcpucfg.h">
<polygon fill="white" stroke="black" points="84,-58.5 84,-79.5 146,-79.5 146,-58.5 84,-58.5"/>
<text text-anchor="middle" x="115" y="-66.5" font-family="Helvetica,sans-Serif" font-size="10.00">prcpucfg.h</text>
</a>
</g>
<!-- Node4&#45;&gt;Node5 -->
<g id="edge8" class="edge"><title>Node4&#45;&gt;Node5</title>
<path fill="none" stroke="midnightblue" d="M176.244,-116.362C165.249,-107.859 149.627,-95.7785 136.914,-85.9466"/>
<polygon fill="midnightblue" stroke="midnightblue" points="138.721,-82.9195 128.669,-79.5707 134.438,-88.4569 138.721,-82.9195"/>
</g>
<!-- Node6 -->
<g id="node11" class="node"><title>Node6</title>
<polygon fill="white" stroke="#bfbfbf" points="164,-58.5 164,-79.5 216,-79.5 216,-58.5 164,-58.5"/>
<text text-anchor="middle" x="190" y="-66.5" font-family="Helvetica,sans-Serif" font-size="10.00">stddef.h</text>
</g>
<!-- Node4&#45;&gt;Node6 -->
<g id="edge10" class="edge"><title>Node4&#45;&gt;Node6</title>
<path fill="none" stroke="midnightblue" d="M190,-116.362C190,-108.922 190,-98.7427 190,-89.7276"/>
<polygon fill="midnightblue" stroke="midnightblue" points="193.5,-89.5706 190,-79.5707 186.5,-89.5707 193.5,-89.5706"/>
</g>
<!-- Node7 -->
<g id="node13" class="node"><title>Node7</title>
<a xlink:href="../../d2/de8/protypes_8h.html" target="_top" xlink:title="obsolete/protypes.h">
<polygon fill="white" stroke="black" points="234,-58.5 234,-79.5 336,-79.5 336,-58.5 234,-58.5"/>
<text text-anchor="middle" x="285" y="-66.5" font-family="Helvetica,sans-Serif" font-size="10.00">obsolete/protypes.h</text>
</a>
</g>
<!-- Node4&#45;&gt;Node7 -->
<g id="edge12" class="edge"><title>Node4&#45;&gt;Node7</title>
<path fill="none" stroke="midnightblue" d="M207.424,-116.362C221.887,-107.532 242.669,-94.844 259.084,-84.8224"/>
<polygon fill="midnightblue" stroke="midnightblue" points="260.975,-87.7688 267.686,-79.5707 257.327,-81.7943 260.975,-87.7688"/>
</g>
<!-- Node8 -->
<g id="node15" class="node"><title>Node8</title>
<polygon fill="white" stroke="#bfbfbf" points="251,-0.5 251,-21.5 319,-21.5 319,-0.5 251,-0.5"/>
<text text-anchor="middle" x="285" y="-8.5" font-family="Helvetica,sans-Serif" font-size="10.00">sys/types.h</text>
</g>
<!-- Node7&#45;&gt;Node8 -->
<g id="edge14" class="edge"><title>Node7&#45;&gt;Node8</title>
<path fill="none" stroke="midnightblue" d="M285,-58.3619C285,-50.9219 285,-40.7427 285,-31.7276"/>
<polygon fill="midnightblue" stroke="midnightblue" points="288.5,-31.5706 285,-21.5707 281.5,-31.5707 288.5,-31.5706"/>
</g>
<!-- Node9&#45;&gt;Node4 -->
<g id="edge18" class="edge"><title>Node9&#45;&gt;Node4</title>
<path fill="none" stroke="midnightblue" d="M212.864,-174.362C209.154,-166.677 204.033,-156.069 199.578,-146.84"/>
<polygon fill="midnightblue" stroke="midnightblue" points="202.603,-145.055 195.103,-137.571 196.299,-148.098 202.603,-145.055"/>
</g>
</g>
</svg>
