<?xml version="1.0" encoding="UTF-8" standalone="no"?>
<!DOCTYPE svg PUBLIC "-//W3C//DTD SVG 1.1//EN"
 "http://www.w3.org/Graphics/SVG/1.1/DTD/svg11.dtd">
<!-- Generated by graphviz version 2.26.3 (20100126.1600)
 -->
<!-- Title: G Pages: 1 -->
<svg width="150pt" height="146pt"
 viewBox="0.00 0.00 150.00 146.00" xmlns="http://www.w3.org/2000/svg" xmlns:xlink="http://www.w3.org/1999/xlink">
<g id="graph1" class="graph" transform="scale(1 1) rotate(0) translate(4 142)">
<title>G</title>
<polygon fill="white" stroke="white" points="-4,5 -4,-142 147,-142 147,5 -4,5"/>
<!-- Node1 -->
<g id="node1" class="node"><title>Node1</title>
<polygon fill="#bfbfbf" stroke="black" points="40.5,-116.5 40.5,-137.5 99.5,-137.5 99.5,-116.5 40.5,-116.5"/>
<text text-anchor="middle" x="70" y="-124.5" font-family="Helvetica,sans-Serif" font-size="10.00">process.h</text>
</g>
<!-- Node2 -->
<g id="node3" class="node"><title>Node2</title>
<a xlink:href="../../d5/d60/utils_8h.html" target="_top" xlink:title="utils.h">
<polygon fill="white" stroke="black" points="-0.5,-58.5 -0.5,-79.5 42.5,-79.5 42.5,-58.5 -0.5,-58.5"/>
<text text-anchor="middle" x="21" y="-66.5" font-family="Helvetica,sans-Serif" font-size="10.00">utils.h</text>
</a>
</g>
<!-- Node1&#45;&gt;Node2 -->
<g id="edge2" class="edge"><title>Node1&#45;&gt;Node2</title>
<path fill="none" stroke="midnightblue" d="M61.0126,-116.362C54.1745,-108.268 44.5976,-96.9318 36.5276,-87.3796"/>
<polygon fill="midnightblue" stroke="midnightblue" points="39.0575,-84.9508 29.9304,-79.5707 33.7103,-89.4683 39.0575,-84.9508"/>
</g>
<!-- Node3 -->
<g id="node5" class="node"><title>Node3</title>
<polygon fill="white" stroke="#bfbfbf" points="24.5,-0.5 24.5,-21.5 65.5,-21.5 65.5,-0.5 24.5,-0.5"/>
<text text-anchor="middle" x="45" y="-8.5" font-family="Helvetica,sans-Serif" font-size="10.00">string</text>
</g>
<!-- Node1&#45;&gt;Node3 -->
<g id="edge6" class="edge"><title>Node1&#45;&gt;Node3</title>
<path fill="none" stroke="midnightblue" d="M67.6929,-116.295C63.5442,-97.0451 54.7605,-56.2889 49.4201,-31.5091"/>
<polygon fill="midnightblue" stroke="midnightblue" points="52.8299,-30.7174 47.3016,-21.6792 45.987,-32.1922 52.8299,-30.7174"/>
</g>
<!-- Node4 -->
<g id="node8" class="node"><title>Node4</title>
<polygon fill="white" stroke="#bfbfbf" points="98,-58.5 98,-79.5 142,-79.5 142,-58.5 98,-58.5"/>
<text text-anchor="middle" x="120" y="-66.5" font-family="Helvetica,sans-Serif" font-size="10.00">vector</text>
</g>
<!-- Node1&#45;&gt;Node4 -->
<g id="edge8" class="edge"><title>Node1&#45;&gt;Node4</title>
<path fill="none" stroke="midnightblue" d="M79.1708,-116.362C86.1484,-108.268 95.9208,-96.9318 104.156,-87.3796"/>
<polygon fill="midnightblue" stroke="midnightblue" points="107.009,-89.4301 110.887,-79.5707 101.707,-84.8595 107.009,-89.4301"/>
</g>
<!-- Node2&#45;&gt;Node3 -->
<g id="edge4" class="edge"><title>Node2&#45;&gt;Node3</title>
<path fill="none" stroke="midnightblue" d="M25.402,-58.3619C28.5821,-50.6766 32.9716,-40.0686 36.7904,-30.8399"/>
<polygon fill="midnightblue" stroke="midnightblue" points="40.0364,-32.1491 40.6259,-21.5707 33.5683,-29.4726 40.0364,-32.1491"/>
</g>
</g>
</svg>
