<?xml version="1.0" encoding="UTF-8" standalone="no"?>
<!DOCTYPE svg PUBLIC "-//W3C//DTD SVG 1.1//EN"
 "http://www.w3.org/Graphics/SVG/1.1/DTD/svg11.dtd">
<!-- Generated by graphviz version 2.26.3 (20100126.1600)
 -->
<!-- Title: G Pages: 1 -->
<svg width="156pt" height="102pt"
 viewBox="0.00 0.00 156.00 102.00" xmlns="http://www.w3.org/2000/svg" xmlns:xlink="http://www.w3.org/1999/xlink">
<g id="graph1" class="graph" transform="scale(1 1) rotate(0) translate(4 98)">
<title>G</title>
<polygon fill="white" stroke="white" points="-4,5 -4,-98 153,-98 153,5 -4,5"/>
<!-- Node1 -->
<g id="node1" class="node"><title>Node1</title>
<polygon fill="#bfbfbf" stroke="black" points="-0.5,-0.5 -0.5,-21.5 148.5,-21.5 148.5,-0.5 -0.5,-0.5"/>
<text text-anchor="middle" x="74" y="-8.5" font-family="Helvetica,sans-Serif" font-size="10.00">nsIDOMMozCanvasPrintState</text>
</g>
<!-- Node2 -->
<g id="node2" class="node"><title>Node2</title>
<a xlink:href="../../d4/d6a/classns_i_supports.html" target="_top" xlink:title="nsISupports">
<polygon fill="white" stroke="black" points="39.5,-72.5 39.5,-93.5 108.5,-93.5 108.5,-72.5 39.5,-72.5"/>
<text text-anchor="middle" x="74" y="-80.5" font-family="Helvetica,sans-Serif" font-size="10.00">nsISupports</text>
</a>
</g>
<!-- Node2&#45;&gt;Node1 -->
<g id="edge2" class="edge"><title>Node2&#45;&gt;Node1</title>
<path fill="none" stroke="midnightblue" d="M67.8188,-62.2348C66.7675,-48.969 67.1736,-32.3188 69.037,-21.6674"/>
<polygon fill="midnightblue" stroke="midnightblue" points="64.3698,-62.8685 69.0446,-72.3762 71.3192,-62.0284 64.3698,-62.8685"/>
</g>
<!-- Node2&#45;&gt;Node1 -->
<g id="edge4" class="edge"><title>Node2&#45;&gt;Node1</title>
<path fill="none" stroke="midnightblue" d="M80.1812,-62.2348C81.2325,-48.969 80.8264,-32.3188 78.963,-21.6674"/>
<polygon fill="midnightblue" stroke="midnightblue" points="76.6808,-62.0284 78.9554,-72.3762 83.6302,-62.8685 76.6808,-62.0284"/>
</g>
<!-- Node2&#45;&gt;Node1 -->
<g id="edge6" class="edge"><title>Node2&#45;&gt;Node1</title>
<path fill="none" stroke="#9a32cd" stroke-dasharray="5,2" d="M89.4178,-63.9962C91.2987,-60.8176 92.9312,-57.4325 94,-54 95.8499,-48.0591 95.8499,-45.9409 94,-40 91.9271,-33.3431 87.7343,-26.8642 83.7207,-21.7249"/>
<polygon fill="#9a32cd" stroke="#9a32cd" points="86.5064,-62.053 83.7207,-72.2751 92.2729,-66.0213 86.5064,-62.053"/>
<text text-anchor="middle" x="113" y="-44.5" font-family="Helvetica,sans-Serif" font-size="10.00"> context</text>
</g>
</g>
</svg>
