<?xml version="1.0" encoding="UTF-8" standalone="no"?>
<!DOCTYPE svg PUBLIC "-//W3C//DTD SVG 1.1//EN"
 "http://www.w3.org/Graphics/SVG/1.1/DTD/svg11.dtd">
<!-- Generated by graphviz version 2.26.3 (20100126.1600)
 -->
<!-- Title: G Pages: 1 -->
<svg width="244pt" height="162pt"
 viewBox="0.00 0.00 244.00 162.00" xmlns="http://www.w3.org/2000/svg" xmlns:xlink="http://www.w3.org/1999/xlink">
<g id="graph1" class="graph" transform="scale(1 1) rotate(0) translate(4 158)">
<title>G</title>
<polygon fill="white" stroke="white" points="-4,5 -4,-158 241,-158 241,5 -4,5"/>
<!-- Node1 -->
<g id="node1" class="node"><title>Node1</title>
<polygon fill="#bfbfbf" stroke="black" points="0,-0.5 0,-21.5 92,-21.5 92,-0.5 0,-0.5"/>
<text text-anchor="middle" x="46" y="-8.5" font-family="Helvetica,sans-Serif" font-size="10.00">nsIUDPMessage</text>
</g>
<!-- Node2 -->
<g id="node2" class="node"><title>Node2</title>
<a xlink:href="../../d4/d6a/classns_i_supports.html" target="_top" xlink:title="nsISupports">
<polygon fill="white" stroke="black" points="72.5,-132.5 72.5,-153.5 141.5,-153.5 141.5,-132.5 72.5,-132.5"/>
<text text-anchor="middle" x="107" y="-140.5" font-family="Helvetica,sans-Serif" font-size="10.00">nsISupports</text>
</a>
</g>
<!-- Node2&#45;&gt;Node1 -->
<g id="edge2" class="edge"><title>Node2&#45;&gt;Node1</title>
<path fill="none" stroke="midnightblue" d="M73.8515,-126.849C62.1786,-118.435 50.4994,-107.151 44,-94 32.2748,-70.2759 33.736,-38.0567 38.8103,-21.6108"/>
<polygon fill="midnightblue" stroke="midnightblue" points="72.0114,-129.829 82.2759,-132.454 75.8888,-124.001 72.0114,-129.829"/>
</g>
<!-- Node2&#45;&gt;Node1 -->
<g id="edge4" class="edge"><title>Node2&#45;&gt;Node1</title>
<path fill="none" stroke="midnightblue" d="M89.304,-126.107C79.5026,-117.776 68.3101,-106.768 62,-94 50.2748,-70.2759 51.736,-38.0567 50.2351,-21.6108"/>
<polygon fill="midnightblue" stroke="midnightblue" points="87.1139,-128.837 97.0723,-132.454 91.543,-123.416 87.1139,-128.837"/>
</g>
<!-- Node3 -->
<g id="node5" class="node"><title>Node3</title>
<a xlink:href="../../db/dd5/interfacens_i_output_stream.html" target="_top" xlink:title="nsIOutputStream">
<polygon fill="white" stroke="black" points="61.5,-72.5 61.5,-93.5 152.5,-93.5 152.5,-72.5 61.5,-72.5"/>
<text text-anchor="middle" x="107" y="-80.5" font-family="Helvetica,sans-Serif" font-size="10.00">nsIOutputStream</text>
</a>
</g>
<!-- Node2&#45;&gt;Node3 -->
<g id="edge8" class="edge"><title>Node2&#45;&gt;Node3</title>
<path fill="none" stroke="midnightblue" d="M100.542,-122.231C99.9133,-112.592 100.299,-101.544 101.701,-93.6339"/>
<polygon fill="midnightblue" stroke="midnightblue" points="97.0768,-122.733 101.684,-132.273 104.032,-121.942 97.0768,-122.733"/>
</g>
<!-- Node2&#45;&gt;Node3 -->
<g id="edge10" class="edge"><title>Node2&#45;&gt;Node3</title>
<path fill="none" stroke="midnightblue" d="M113.458,-122.231C114.087,-112.592 113.701,-101.544 112.299,-93.6339"/>
<polygon fill="midnightblue" stroke="midnightblue" points="109.968,-121.942 112.316,-132.273 116.923,-122.733 109.968,-121.942"/>
</g>
<!-- Node4 -->
<g id="node9" class="node"><title>Node4</title>
<a xlink:href="../../d7/d83/interfacens_i_net_addr.html" target="_top" xlink:title="nsINetAddr">
<polygon fill="white" stroke="black" points="170,-72.5 170,-93.5 236,-93.5 236,-72.5 170,-72.5"/>
<text text-anchor="middle" x="203" y="-80.5" font-family="Helvetica,sans-Serif" font-size="10.00">nsINetAddr</text>
</a>
</g>
<!-- Node2&#45;&gt;Node4 -->
<g id="edge14" class="edge"><title>Node2&#45;&gt;Node4</title>
<path fill="none" stroke="midnightblue" d="M127.339,-126.473C143.037,-115.989 164.512,-102.735 180.686,-93.6339"/>
<polygon fill="midnightblue" stroke="midnightblue" points="125.131,-123.743 118.847,-132.273 129.079,-129.523 125.131,-123.743"/>
</g>
<!-- Node2&#45;&gt;Node4 -->
<g id="edge16" class="edge"><title>Node2&#45;&gt;Node4</title>
<path fill="none" stroke="midnightblue" d="M138.55,-127.058C156.611,-116.486 178.093,-102.905 191.285,-93.6339"/>
<polygon fill="midnightblue" stroke="midnightblue" points="136.404,-124.255 129.479,-132.273 139.893,-130.323 136.404,-124.255"/>
</g>
<!-- Node3&#45;&gt;Node1 -->
<g id="edge6" class="edge"><title>Node3&#45;&gt;Node1</title>
<path fill="none" stroke="#9a32cd" stroke-dasharray="5,2" d="M91.3976,-64.5841C79.8792,-50.9886 64.6032,-32.9579 55.0377,-21.6674"/>
<polygon fill="#9a32cd" stroke="#9a32cd" points="88.8646,-67.0088 97.9992,-72.3762 94.2055,-62.4838 88.8646,-67.0088"/>
<text text-anchor="middle" x="112" y="-44.5" font-family="Helvetica,sans-Serif" font-size="10.00"> outputStream</text>
</g>
<!-- Node4&#45;&gt;Node1 -->
<g id="edge12" class="edge"><title>Node4&#45;&gt;Node1</title>
<path fill="none" stroke="#9a32cd" stroke-dasharray="5,2" d="M184.284,-65.7596C173.935,-56.9981 160.471,-46.7959 147,-40 129.898,-31.3723 109.833,-24.9434 92.1143,-20.361"/>
<polygon fill="#9a32cd" stroke="#9a32cd" points="182.025,-68.4342 191.856,-72.3847 186.635,-63.1659 182.025,-68.4342"/>
<text text-anchor="middle" x="189.5" y="-44.5" font-family="Helvetica,sans-Serif" font-size="10.00"> fromAddr</text>
</g>
</g>
</svg>
