<?xml version="1.0" encoding="UTF-8" standalone="no"?>
<!DOCTYPE svg PUBLIC "-//W3C//DTD SVG 1.1//EN"
 "http://www.w3.org/Graphics/SVG/1.1/DTD/svg11.dtd">
<!-- Generated by graphviz version 2.26.3 (20100126.1600)
 -->
<!-- Title: G Pages: 1 -->
<!--zoomable 668 -->
<svg id="main" version="1.1" xmlns="http://www.w3.org/2000/svg" xmlns:xlink="http://www.w3.org/1999/xlink" xml:space="preserve" onload="init(evt)">
        <defs>
                <circle id="rim" cx="0" cy="0" r="7"/>
                <circle id="rim2" cx="0" cy="0" r="3.5"/>
                <g id="zoomPlus">
                        <use xlink:href="#rim" fill="#404040">
                                <set attributeName="fill" to="#808080" begin="zoomplus.mouseover" end="zoomplus.mouseout"/>
                        </use>
                        <path d="M-4,0h8M0,-4v8" fill="none" stroke="white" stroke-width="1.5" pointer-events="none"/>
                </g>
                <g id="zoomMin">
                        <use xlink:href="#rim" fill="#404040">
                                <set attributeName="fill" to="#808080" begin="zoomminus.mouseover" end="zoomminus.mouseout"/>
                        </use>
                        <path d="M-4,0h8" fill="none" stroke="white" stroke-width="1.5" pointer-events="none"/>
                </g>
                <g id="dirArrow">
                        <path fill="none" stroke="white" stroke-width="1.5" d="M0,-3.0v7 M-2.5,-0.5L0,-3.0L2.5,-0.5"/>
                </g>
               <g id="resetDef">
                       <use xlink:href="#rim2" fill="#404040">
                               <set attributeName="fill" to="#808080" begin="reset.mouseover" end="reset.mouseout"/>
                       </use>
               </g>
        </defs>

<script type="text/javascript">
var viewWidth = 853;
var viewHeight = 668;
var sectionId = 'dynsection-0';
</script>
<script xlink:href="../../svgpan.js"/>
<svg id="graph" class="graph">
<g id="viewport">
<title>G</title>
<polygon fill="white" stroke="white" points="-4,5 -4,-664 850,-664 850,5 -4,5"/>
<!-- Node1 -->
<g id="node1" class="node"><title>Node1</title>
<polygon fill="#bfbfbf" stroke="black" points="188.5,-638.5 188.5,-659.5 577.5,-659.5 577.5,-638.5 188.5,-638.5"/>
<text text-anchor="middle" x="383" y="-646.5" font-family="Helvetica,sans-Serif" font-size="10.00">/home/aoi/Documents/FxOS/B2G/gaia/xulrunner&#45;sdk/include/skia/GrTextureAccess.h</text>
</g>
<!-- Node2 -->
<g id="node3" class="node"><title>Node2</title>
<a xlink:href="../../de/d91/_gr_noncopyable_8h.html" target="_top" xlink:title="GrNoncopyable.h">
<polygon fill="white" stroke="black" points="153,-580.5 153,-601.5 245,-601.5 245,-580.5 153,-580.5"/>
<text text-anchor="middle" x="199" y="-588.5" font-family="Helvetica,sans-Serif" font-size="10.00">GrNoncopyable.h</text>
</a>
</g>
<!-- Node1&#45;&gt;Node2 -->
<g id="edge2" class="edge"><title>Node1&#45;&gt;Node2</title>
<path fill="none" stroke="midnightblue" d="M349.679,-638.497C319.552,-629 275.017,-614.962 242.172,-604.609"/>
<polygon fill="midnightblue" stroke="midnightblue" points="242.973,-601.191 232.384,-601.523 240.869,-607.868 242.973,-601.191"/>
</g>
<!-- Node15 -->
<g id="node33" class="node"><title>Node15</title>
<a xlink:href="../../df/d2b/_sk_ref_cnt_8h.html" target="_top" xlink:title="SkRefCnt.h">
<polygon fill="white" stroke="black" points="642,-348.5 642,-369.5 710,-369.5 710,-348.5 642,-348.5"/>
<text text-anchor="middle" x="676" y="-356.5" font-family="Helvetica,sans-Serif" font-size="10.00">SkRefCnt.h</text>
</a>
</g>
<!-- Node1&#45;&gt;Node15 -->
<g id="edge36" class="edge"><title>Node1&#45;&gt;Node15</title>
<path fill="none" stroke="midnightblue" d="M513.982,-638.497C638.857,-624.763 808,-594.761 808,-533 808,-533 808,-533 808,-475 808,-424.938 753.765,-391.394 714.824,-373.761"/>
<polygon fill="midnightblue" stroke="midnightblue" points="715.862,-370.396 705.295,-369.62 713.072,-376.816 715.862,-370.396"/>
</g>
<!-- Node22 -->
<g id="node54" class="node"><title>Node22</title>
<a xlink:href="../../dd/d33/_sk_shader_8h.html" target="_top" xlink:title="SkShader.h">
<polygon fill="white" stroke="black" points="349,-580.5 349,-601.5 417,-601.5 417,-580.5 349,-580.5"/>
<text text-anchor="middle" x="383" y="-588.5" font-family="Helvetica,sans-Serif" font-size="10.00">SkShader.h</text>
</a>
</g>
<!-- Node1&#45;&gt;Node22 -->
<g id="edge64" class="edge"><title>Node1&#45;&gt;Node22</title>
<path fill="none" stroke="midnightblue" d="M383,-638.362C383,-630.922 383,-620.743 383,-611.728"/>
<polygon fill="midnightblue" stroke="midnightblue" points="386.5,-611.571 383,-601.571 379.5,-611.571 386.5,-611.571"/>
</g>
<!-- Node3 -->
<g id="node5" class="node"><title>Node3</title>
<a xlink:href="../../d8/de6/_gr_types_8h.html" target="_top" xlink:title="GrTypes.h">
<polygon fill="white" stroke="black" points="76,-232.5 76,-253.5 138,-253.5 138,-232.5 76,-232.5"/>
<text text-anchor="middle" x="107" y="-240.5" font-family="Helvetica,sans-Serif" font-size="10.00">GrTypes.h</text>
</a>
</g>
<!-- Node2&#45;&gt;Node3 -->
<g id="edge4" class="edge"><title>Node2&#45;&gt;Node3</title>
<path fill="none" stroke="midnightblue" d="M183.625,-580.479C158.888,-562.167 113,-521.881 113,-475 113,-475 113,-475 113,-359 113,-325.553 110.481,-286.754 108.708,-263.577"/>
<polygon fill="midnightblue" stroke="midnightblue" points="112.192,-263.238 107.911,-253.547 105.214,-263.792 112.192,-263.238"/>
</g>
<!-- Node4 -->
<g id="node7" class="node"><title>Node4</title>
<a xlink:href="../../d3/d36/_sk_types_8h.html" target="_top" xlink:title="SkTypes.h">
<polygon fill="white" stroke="black" points="404,-116.5 404,-137.5 468,-137.5 468,-116.5 404,-116.5"/>
<text text-anchor="middle" x="436" y="-124.5" font-family="Helvetica,sans-Serif" font-size="10.00">SkTypes.h</text>
</a>
</g>
<!-- Node3&#45;&gt;Node4 -->
<g id="edge6" class="edge"><title>Node3&#45;&gt;Node4</title>
<path fill="none" stroke="midnightblue" d="M105.75,-232.372C104.604,-217.106 105.043,-189.147 121,-174 140.501,-155.488 312.23,-137.973 393.593,-130.628"/>
<polygon fill="midnightblue" stroke="midnightblue" points="394.335,-134.075 403.984,-129.7 393.712,-127.103 394.335,-134.075"/>
</g>
<!-- Node12 -->
<g id="node24" class="node"><title>Node12</title>
<a xlink:href="../../dd/d22/_gr_config_8h.html" target="_top" xlink:title="GrConfig.h">
<polygon fill="white" stroke="black" points="10,-174.5 10,-195.5 74,-195.5 74,-174.5 10,-174.5"/>
<text text-anchor="middle" x="42" y="-182.5" font-family="Helvetica,sans-Serif" font-size="10.00">GrConfig.h</text>
</a>
</g>
<!-- Node3&#45;&gt;Node12 -->
<g id="edge24" class="edge"><title>Node3&#45;&gt;Node12</title>
<path fill="none" stroke="midnightblue" d="M95.078,-232.362C85.6405,-223.941 72.2704,-212.011 61.3104,-202.231"/>
<polygon fill="midnightblue" stroke="midnightblue" points="63.6381,-199.617 53.8464,-195.571 58.9776,-204.84 63.6381,-199.617"/>
</g>
<!-- Node14 -->
<g id="node30" class="node"><title>Node14</title>
<a xlink:href="../../d9/df0/_sk_math_8h.html" target="_top" xlink:title="SkMath.h">
<polygon fill="white" stroke="black" points="129.5,-174.5 129.5,-195.5 188.5,-195.5 188.5,-174.5 129.5,-174.5"/>
<text text-anchor="middle" x="159" y="-182.5" font-family="Helvetica,sans-Serif" font-size="10.00">SkMath.h</text>
</a>
</g>
<!-- Node3&#45;&gt;Node14 -->
<g id="edge32" class="edge"><title>Node3&#45;&gt;Node14</title>
<path fill="none" stroke="midnightblue" d="M116.538,-232.362C123.868,-224.186 134.163,-212.702 142.781,-203.091"/>
<polygon fill="midnightblue" stroke="midnightblue" points="145.453,-205.353 149.523,-195.571 140.241,-200.68 145.453,-205.353"/>
</g>
<!-- Node5 -->
<g id="node9" class="node"><title>Node5</title>
<a xlink:href="../../da/dc5/_sk_pre_config_8h.html" target="_top" xlink:title="SkPreConfig.h">
<polygon fill="white" stroke="black" points="533,-58.5 533,-79.5 613,-79.5 613,-58.5 533,-58.5"/>
<text text-anchor="middle" x="573" y="-66.5" font-family="Helvetica,sans-Serif" font-size="10.00">SkPreConfig.h</text>
</a>
</g>
<!-- Node4&#45;&gt;Node5 -->
<g id="edge8" class="edge"><title>Node4&#45;&gt;Node5</title>
<path fill="none" stroke="midnightblue" d="M460.81,-116.497C482.496,-107.315 514.211,-93.8889 538.392,-83.6516"/>
<polygon fill="midnightblue" stroke="midnightblue" points="540.068,-86.7429 547.912,-79.6212 537.339,-80.2968 540.068,-86.7429"/>
</g>
<!-- Node6 -->
<g id="node11" class="node"><title>Node6</title>
<a xlink:href="../../d8/d2f/_sk_user_config_8h.html" target="_top" xlink:title="SkUserConfig.h">
<polygon fill="white" stroke="black" points="287,-58.5 287,-79.5 373,-79.5 373,-58.5 287,-58.5"/>
<text text-anchor="middle" x="330" y="-66.5" font-family="Helvetica,sans-Serif" font-size="10.00">SkUserConfig.h</text>
</a>
</g>
<!-- Node4&#45;&gt;Node6 -->
<g id="edge10" class="edge"><title>Node4&#45;&gt;Node6</title>
<path fill="none" stroke="midnightblue" d="M416.558,-116.362C400.196,-107.409 376.587,-94.4908 358.157,-84.4064"/>
<polygon fill="midnightblue" stroke="midnightblue" points="359.771,-81.3004 349.319,-79.5707 356.411,-87.4412 359.771,-81.3004"/>
</g>
<!-- Node7 -->
<g id="node13" class="node"><title>Node7</title>
<a xlink:href="../../d8/d35/_sk_post_config_8h.html" target="_top" xlink:title="SkPostConfig.h">
<polygon fill="white" stroke="black" points="429,-58.5 429,-79.5 515,-79.5 515,-58.5 429,-58.5"/>
<text text-anchor="middle" x="472" y="-66.5" font-family="Helvetica,sans-Serif" font-size="10.00">SkPostConfig.h</text>
</a>
</g>
<!-- Node4&#45;&gt;Node7 -->
<g id="edge12" class="edge"><title>Node4&#45;&gt;Node7</title>
<path fill="none" stroke="midnightblue" d="M442.603,-116.362C447.475,-108.513 454.238,-97.6159 460.05,-88.2527"/>
<polygon fill="midnightblue" stroke="midnightblue" points="463.139,-89.9129 465.439,-79.5707 457.191,-86.2213 463.139,-89.9129"/>
</g>
<!-- Node8 -->
<g id="node15" class="node"><title>Node8</title>
<polygon fill="white" stroke="#bfbfbf" points="379,-0.5 379,-21.5 425,-21.5 425,-0.5 379,-0.5"/>
<text text-anchor="middle" x="402" y="-8.5" font-family="Helvetica,sans-Serif" font-size="10.00">stdio.h</text>
</g>
<!-- Node4&#45;&gt;Node8 -->
<g id="edge22" class="edge"><title>Node4&#45;&gt;Node8</title>
<path fill="none" stroke="midnightblue" d="M432.089,-116.245C428.701,-106.765 423.767,-92.5485 420,-80 415.169,-63.9075 410.401,-45.4847 406.987,-31.7255"/>
<polygon fill="midnightblue" stroke="midnightblue" points="410.341,-30.7057 404.565,-21.8242 403.542,-32.3696 410.341,-30.7057"/>
</g>
<!-- Node11 -->
<g id="node21" class="node"><title>Node11</title>
<polygon fill="white" stroke="#bfbfbf" points="154.5,-58.5 154.5,-79.5 203.5,-79.5 203.5,-58.5 154.5,-58.5"/>
<text text-anchor="middle" x="179" y="-66.5" font-family="Helvetica,sans-Serif" font-size="10.00">stdint.h</text>
</g>
<!-- Node4&#45;&gt;Node11 -->
<g id="edge20" class="edge"><title>Node4&#45;&gt;Node11</title>
<path fill="none" stroke="midnightblue" d="M403.97,-119.772C355.48,-108.828 263.8,-88.1378 213.749,-76.8423"/>
<polygon fill="midnightblue" stroke="midnightblue" points="214.257,-73.3688 203.732,-74.5814 212.716,-80.1971 214.257,-73.3688"/>
</g>
<!-- Node7&#45;&gt;Node8 -->
<g id="edge14" class="edge"><title>Node7&#45;&gt;Node8</title>
<path fill="none" stroke="midnightblue" d="M459.161,-58.3619C448.998,-49.9408 434.599,-38.0105 422.796,-28.2308"/>
<polygon fill="midnightblue" stroke="midnightblue" points="424.691,-25.2558 414.758,-21.5707 420.225,-30.6459 424.691,-25.2558"/>
</g>
<!-- Node9 -->
<g id="node17" class="node"><title>Node9</title>
<polygon fill="white" stroke="#bfbfbf" points="511.5,-0.5 511.5,-21.5 560.5,-21.5 560.5,-0.5 511.5,-0.5"/>
<text text-anchor="middle" x="536" y="-8.5" font-family="Helvetica,sans-Serif" font-size="10.00">string.h</text>
</g>
<!-- Node7&#45;&gt;Node9 -->
<g id="edge16" class="edge"><title>Node7&#45;&gt;Node9</title>
<path fill="none" stroke="midnightblue" d="M483.739,-58.3619C492.941,-50.0226 505.94,-38.2418 516.672,-28.5162"/>
<polygon fill="midnightblue" stroke="midnightblue" points="519.276,-30.8793 524.336,-21.5707 514.576,-25.6924 519.276,-30.8793"/>
</g>
<!-- Node10 -->
<g id="node19" class="node"><title>Node10</title>
<polygon fill="white" stroke="#bfbfbf" points="446,-0.5 446,-21.5 494,-21.5 494,-0.5 446,-0.5"/>
<text text-anchor="middle" x="470" y="-8.5" font-family="Helvetica,sans-Serif" font-size="10.00">stdlib.h</text>
</g>
<!-- Node7&#45;&gt;Node10 -->
<g id="edge18" class="edge"><title>Node7&#45;&gt;Node10</title>
<path fill="none" stroke="midnightblue" d="M471.633,-58.3619C471.377,-50.9219 471.026,-40.7427 470.715,-31.7276"/>
<polygon fill="midnightblue" stroke="midnightblue" points="474.207,-31.4441 470.365,-21.5707 467.211,-31.6854 474.207,-31.4441"/>
</g>
<!-- Node12&#45;&gt;Node4 -->
<g id="edge26" class="edge"><title>Node12&#45;&gt;Node4</title>
<path fill="none" stroke="midnightblue" d="M74.0826,-176.893C78.7359,-175.844 83.4797,-174.844 88,-174 197.508,-153.565 327.983,-138.357 393.704,-131.325"/>
<polygon fill="midnightblue" stroke="midnightblue" points="394.107,-134.802 403.682,-130.267 393.369,-127.841 394.107,-134.802"/>
</g>
<!-- Node12&#45;&gt;Node11 -->
<g id="edge28" class="edge"><title>Node12&#45;&gt;Node11</title>
<path fill="none" stroke="midnightblue" d="M54.6431,-174.295C78.3973,-154.182 129.88,-110.59 158.597,-86.2752"/>
<polygon fill="midnightblue" stroke="midnightblue" points="161.017,-88.8123 166.387,-79.6792 156.494,-83.47 161.017,-88.8123"/>
</g>
<!-- Node13 -->
<g id="node28" class="node"><title>Node13</title>
<a xlink:href="../../dc/dc1/_gr_user_config_8h.html" target="_top" xlink:title="GrUserConfig.h">
<polygon fill="white" stroke="black" points="-0.5,-116.5 -0.5,-137.5 84.5,-137.5 84.5,-116.5 -0.5,-116.5"/>
<text text-anchor="middle" x="42" y="-124.5" font-family="Helvetica,sans-Serif" font-size="10.00">GrUserConfig.h</text>
</a>
</g>
<!-- Node12&#45;&gt;Node13 -->
<g id="edge30" class="edge"><title>Node12&#45;&gt;Node13</title>
<path fill="none" stroke="midnightblue" d="M42,-174.362C42,-166.922 42,-156.743 42,-147.728"/>
<polygon fill="midnightblue" stroke="midnightblue" points="45.5001,-147.571 42,-137.571 38.5001,-147.571 45.5001,-147.571"/>
</g>
<!-- Node14&#45;&gt;Node4 -->
<g id="edge34" class="edge"><title>Node14&#45;&gt;Node4</title>
<path fill="none" stroke="midnightblue" d="M188.805,-176.105C191.567,-175.361 194.33,-174.648 197,-174 265.342,-157.422 345.747,-142.549 393.704,-134.162"/>
<polygon fill="midnightblue" stroke="midnightblue" points="394.466,-137.582 403.719,-132.422 393.268,-130.685 394.466,-137.582"/>
</g>
<!-- Node16 -->
<g id="node35" class="node"><title>Node16</title>
<a xlink:href="../../d9/def/_sk_thread_8h.html" target="_top" xlink:title="SkThread.h">
<polygon fill="white" stroke="black" points="557.5,-290.5 557.5,-311.5 624.5,-311.5 624.5,-290.5 557.5,-290.5"/>
<text text-anchor="middle" x="591" y="-298.5" font-family="Helvetica,sans-Serif" font-size="10.00">SkThread.h</text>
</a>
</g>
<!-- Node15&#45;&gt;Node16 -->
<g id="edge38" class="edge"><title>Node15&#45;&gt;Node16</title>
<path fill="none" stroke="midnightblue" d="M660.41,-348.362C647.709,-339.696 629.562,-327.313 615.008,-317.382"/>
<polygon fill="midnightblue" stroke="midnightblue" points="616.724,-314.316 606.491,-311.571 612.779,-320.098 616.724,-314.316"/>
</g>
<!-- Node18 -->
<g id="node40" class="node"><title>Node18</title>
<a xlink:href="../../dd/dac/_sk_inst_cnt_8h.html" target="_top" xlink:title="SkInstCnt.h">
<polygon fill="white" stroke="black" points="641.5,-290.5 641.5,-311.5 710.5,-311.5 710.5,-290.5 641.5,-290.5"/>
<text text-anchor="middle" x="676" y="-298.5" font-family="Helvetica,sans-Serif" font-size="10.00">SkInstCnt.h</text>
</a>
</g>
<!-- Node15&#45;&gt;Node18 -->
<g id="edge44" class="edge"><title>Node15&#45;&gt;Node18</title>
<path fill="none" stroke="midnightblue" d="M676,-348.362C676,-340.922 676,-330.743 676,-321.728"/>
<polygon fill="midnightblue" stroke="midnightblue" points="679.5,-321.571 676,-311.571 672.5,-321.571 679.5,-321.571"/>
</g>
<!-- Node21 -->
<g id="node48" class="node"><title>Node21</title>
<a xlink:href="../../db/d2d/_sk_templates_8h.html" target="_top" xlink:title="SkTemplates.h">
<polygon fill="white" stroke="black" points="762.5,-174.5 762.5,-195.5 845.5,-195.5 845.5,-174.5 762.5,-174.5"/>
<text text-anchor="middle" x="804" y="-182.5" font-family="Helvetica,sans-Serif" font-size="10.00">SkTemplates.h</text>
</a>
</g>
<!-- Node15&#45;&gt;Node21 -->
<g id="edge62" class="edge"><title>Node15&#45;&gt;Node21</title>
<path fill="none" stroke="midnightblue" d="M689.175,-348.344C710.259,-330.694 751.769,-293.408 777,-254 786.617,-238.979 793.737,-219.988 798.244,-205.733"/>
<polygon fill="midnightblue" stroke="midnightblue" points="801.672,-206.484 801.179,-195.901 794.965,-204.482 801.672,-206.484"/>
</g>
<!-- Node16&#45;&gt;Node4 -->
<g id="edge40" class="edge"><title>Node16&#45;&gt;Node4</title>
<path fill="none" stroke="midnightblue" d="M575.285,-290.439C562.607,-281.522 544.693,-268.001 531,-254 497.05,-219.286 464.795,-172.135 448.008,-146.153"/>
<polygon fill="midnightblue" stroke="midnightblue" points="450.88,-144.147 442.55,-137.601 444.98,-147.913 450.88,-144.147"/>
</g>
<!-- Node17 -->
<g id="node38" class="node"><title>Node17</title>
<a xlink:href="../../d9/d82/_sk_thread__platform_8h.html" target="_top" xlink:title="SkThread_platform.h">
<polygon fill="white" stroke="black" points="539.5,-232.5 539.5,-253.5 646.5,-253.5 646.5,-232.5 539.5,-232.5"/>
<text text-anchor="middle" x="593" y="-240.5" font-family="Helvetica,sans-Serif" font-size="10.00">SkThread_platform.h</text>
</a>
</g>
<!-- Node16&#45;&gt;Node17 -->
<g id="edge42" class="edge"><title>Node16&#45;&gt;Node17</title>
<path fill="none" stroke="midnightblue" d="M591.367,-290.362C591.623,-282.922 591.974,-272.743 592.285,-263.728"/>
<polygon fill="midnightblue" stroke="midnightblue" points="595.789,-263.685 592.635,-253.571 588.793,-263.444 595.789,-263.685"/>
</g>
<!-- Node18&#45;&gt;Node4 -->
<g id="edge46" class="edge"><title>Node18&#45;&gt;Node4</title>
<path fill="none" stroke="midnightblue" d="M675.384,-290.396C674.002,-275.663 669.521,-248.909 655,-232 608.353,-177.684 527.238,-149.228 477.901,-136.222"/>
<polygon fill="midnightblue" stroke="midnightblue" points="478.732,-132.822 468.178,-133.751 477.008,-139.607 478.732,-132.822"/>
</g>
<!-- Node18&#45;&gt;Node17 -->
<g id="edge60" class="edge"><title>Node18&#45;&gt;Node17</title>
<path fill="none" stroke="midnightblue" d="M660.777,-290.362C648.375,-281.696 630.654,-269.313 616.443,-259.382"/>
<polygon fill="midnightblue" stroke="midnightblue" points="618.329,-256.43 608.127,-253.571 614.319,-262.168 618.329,-256.43"/>
</g>
<!-- Node19 -->
<g id="node43" class="node"><title>Node19</title>
<a xlink:href="../../dd/d82/_sk_t_array_8h.html" target="_top" xlink:title="SkTArray.h">
<polygon fill="white" stroke="black" points="702,-232.5 702,-253.5 768,-253.5 768,-232.5 702,-232.5"/>
<text text-anchor="middle" x="735" y="-240.5" font-family="Helvetica,sans-Serif" font-size="10.00">SkTArray.h</text>
</a>
</g>
<!-- Node18&#45;&gt;Node19 -->
<g id="edge48" class="edge"><title>Node18&#45;&gt;Node19</title>
<path fill="none" stroke="midnightblue" d="M686.822,-290.362C695.221,-282.104 707.054,-270.472 716.89,-260.803"/>
<polygon fill="midnightblue" stroke="midnightblue" points="719.569,-263.077 724.247,-253.571 714.662,-258.085 719.569,-263.077"/>
</g>
<!-- Node19&#45;&gt;Node4 -->
<g id="edge52" class="edge"><title>Node19&#45;&gt;Node4</title>
<path fill="none" stroke="midnightblue" d="M728.677,-232.415C718.839,-216.939 698.336,-188.415 673,-174 640.326,-155.41 537.226,-139.812 478.334,-132.129"/>
<polygon fill="midnightblue" stroke="midnightblue" points="478.593,-128.633 468.229,-130.832 477.702,-135.576 478.593,-128.633"/>
</g>
<!-- Node20 -->
<g id="node45" class="node"><title>Node20</title>
<polygon fill="white" stroke="#bfbfbf" points="751.5,-116.5 751.5,-137.5 786.5,-137.5 786.5,-116.5 751.5,-116.5"/>
<text text-anchor="middle" x="769" y="-124.5" font-family="Helvetica,sans-Serif" font-size="10.00">new</text>
</g>
<!-- Node19&#45;&gt;Node20 -->
<g id="edge50" class="edge"><title>Node19&#45;&gt;Node20</title>
<path fill="none" stroke="midnightblue" d="M737.828,-232.205C741.429,-218.592 747.913,-194.486 754,-174 756.607,-165.225 759.652,-155.585 762.314,-147.332"/>
<polygon fill="midnightblue" stroke="midnightblue" points="765.653,-148.381 765.421,-137.789 758.997,-146.215 765.653,-148.381"/>
</g>
<!-- Node19&#45;&gt;Node21 -->
<g id="edge54" class="edge"><title>Node19&#45;&gt;Node21</title>
<path fill="none" stroke="midnightblue" d="M747.656,-232.362C757.674,-223.941 771.867,-212.011 783.501,-202.231"/>
<polygon fill="midnightblue" stroke="midnightblue" points="786.022,-204.684 791.425,-195.571 781.518,-199.326 786.022,-204.684"/>
</g>
<!-- Node21&#45;&gt;Node4 -->
<g id="edge56" class="edge"><title>Node21&#45;&gt;Node4</title>
<path fill="none" stroke="midnightblue" d="M762.144,-178.403C691.4,-167.253 548.978,-144.806 478.082,-133.632"/>
<polygon fill="midnightblue" stroke="midnightblue" points="478.581,-130.168 468.158,-132.068 477.491,-137.083 478.581,-130.168"/>
</g>
<!-- Node21&#45;&gt;Node20 -->
<g id="edge58" class="edge"><title>Node21&#45;&gt;Node20</title>
<path fill="none" stroke="midnightblue" d="M797.58,-174.362C792.844,-166.513 786.268,-155.616 780.618,-146.253"/>
<polygon fill="midnightblue" stroke="midnightblue" points="783.542,-144.324 775.379,-137.571 777.549,-147.941 783.542,-144.324"/>
</g>
<!-- Node23 -->
<g id="node56" class="node"><title>Node23</title>
<a xlink:href="../../de/dad/_sk_bitmap_8h.html" target="_top" xlink:title="SkBitmap.h">
<polygon fill="white" stroke="black" points="349,-522.5 349,-543.5 417,-543.5 417,-522.5 349,-522.5"/>
<text text-anchor="middle" x="383" y="-530.5" font-family="Helvetica,sans-Serif" font-size="10.00">SkBitmap.h</text>
</a>
</g>
<!-- Node22&#45;&gt;Node23 -->
<g id="edge66" class="edge"><title>Node22&#45;&gt;Node23</title>
<path fill="none" stroke="midnightblue" d="M383,-580.362C383,-572.922 383,-562.743 383,-553.728"/>
<polygon fill="midnightblue" stroke="midnightblue" points="386.5,-553.571 383,-543.571 379.5,-553.571 386.5,-553.571"/>
</g>
<!-- Node33 -->
<g id="node81" class="node"><title>Node33</title>
<a xlink:href="../../d9/dad/_sk_flattenable_8h.html" target="_top" xlink:title="SkFlattenable.h">
<polygon fill="white" stroke="black" points="633.5,-406.5 633.5,-427.5 718.5,-427.5 718.5,-406.5 633.5,-406.5"/>
<text text-anchor="middle" x="676" y="-414.5" font-family="Helvetica,sans-Serif" font-size="10.00">SkFlattenable.h</text>
</a>
</g>
<!-- Node22&#45;&gt;Node33 -->
<g id="edge108" class="edge"><title>Node22&#45;&gt;Node33</title>
<path fill="none" stroke="midnightblue" d="M417.024,-586.765C500.716,-575.548 712.59,-542.033 751,-486 765.79,-464.424 738.483,-444.756 712.769,-431.988"/>
<polygon fill="midnightblue" stroke="midnightblue" points="713.988,-428.694 703.449,-427.606 711.009,-435.028 713.988,-428.694"/>
</g>
<!-- Node35 -->
<g id="node90" class="node"><title>Node35</title>
<a xlink:href="../../d8/d3b/_sk_mask_8h.html" target="_top" xlink:title="SkMask.h">
<polygon fill="white" stroke="black" points="188.5,-522.5 188.5,-543.5 249.5,-543.5 249.5,-522.5 188.5,-522.5"/>
<text text-anchor="middle" x="219" y="-530.5" font-family="Helvetica,sans-Serif" font-size="10.00">SkMask.h</text>
</a>
</g>
<!-- Node22&#45;&gt;Node35 -->
<g id="edge110" class="edge"><title>Node22&#45;&gt;Node35</title>
<path fill="none" stroke="midnightblue" d="M353.301,-580.497C326.68,-571.082 287.438,-557.204 258.239,-546.877"/>
<polygon fill="midnightblue" stroke="midnightblue" points="259.35,-543.558 248.755,-543.523 257.016,-550.157 259.35,-543.558"/>
</g>
<!-- Node38 -->
<g id="node98" class="node"><title>Node38</title>
<a xlink:href="../../da/d71/_sk_matrix_8h.html" target="_top" xlink:title="SkMatrix.h">
<polygon fill="white" stroke="black" points="267,-522.5 267,-543.5 331,-543.5 331,-522.5 267,-522.5"/>
<text text-anchor="middle" x="299" y="-530.5" font-family="Helvetica,sans-Serif" font-size="10.00">SkMatrix.h</text>
</a>
</g>
<!-- Node22&#45;&gt;Node38 -->
<g id="edge120" class="edge"><title>Node22&#45;&gt;Node38</title>
<path fill="none" stroke="midnightblue" d="M367.593,-580.362C355.042,-571.696 337.108,-559.313 322.725,-549.382"/>
<polygon fill="midnightblue" stroke="midnightblue" points="324.527,-546.372 314.309,-543.571 320.55,-552.133 324.527,-546.372"/>
</g>
<!-- Node39 -->
<g id="node101" class="node"><title>Node39</title>
<a xlink:href="../../d7/dac/_sk_paint_8h.html" target="_top" xlink:title="SkPaint.h">
<polygon fill="white" stroke="black" points="533.5,-522.5 533.5,-543.5 592.5,-543.5 592.5,-522.5 533.5,-522.5"/>
<text text-anchor="middle" x="563" y="-530.5" font-family="Helvetica,sans-Serif" font-size="10.00">SkPaint.h</text>
</a>
</g>
<!-- Node22&#45;&gt;Node39 -->
<g id="edge124" class="edge"><title>Node22&#45;&gt;Node39</title>
<path fill="none" stroke="midnightblue" d="M415.597,-580.497C445.987,-570.704 491.363,-556.083 523.735,-545.652"/>
<polygon fill="midnightblue" stroke="midnightblue" points="524.888,-548.958 533.333,-542.559 522.741,-542.295 524.888,-548.958"/>
</g>
<!-- Node23&#45;&gt;Node15 -->
<g id="edge106" class="edge"><title>Node23&#45;&gt;Node15</title>
<path fill="none" stroke="midnightblue" d="M382.425,-522.195C381.747,-496.968 384.037,-434.196 421,-406 453.379,-381.301 567.361,-368.038 631.428,-362.383"/>
<polygon fill="midnightblue" stroke="midnightblue" points="631.976,-365.849 641.641,-361.509 631.379,-358.874 631.976,-365.849"/>
</g>
<!-- Node24 -->
<g id="node58" class="node"><title>Node24</title>
<a xlink:href="../../d5/d31/_sk64_8h.html" target="_top" xlink:title="Sk64.h">
<polygon fill="white" stroke="black" points="321.5,-348.5 321.5,-369.5 368.5,-369.5 368.5,-348.5 321.5,-348.5"/>
<text text-anchor="middle" x="345" y="-356.5" font-family="Helvetica,sans-Serif" font-size="10.00">Sk64.h</text>
</a>
</g>
<!-- Node23&#45;&gt;Node24 -->
<g id="edge68" class="edge"><title>Node23&#45;&gt;Node24</title>
<path fill="none" stroke="midnightblue" d="M367.733,-522.196C357.169,-513.719 343.977,-500.886 338,-486 323.817,-450.677 331.907,-405.343 338.707,-379.494"/>
<polygon fill="midnightblue" stroke="midnightblue" points="342.124,-380.27 341.473,-369.695 335.388,-378.368 342.124,-380.27"/>
</g>
<!-- Node26 -->
<g id="node63" class="node"><title>Node26</title>
<a xlink:href="../../d8/de1/_sk_color_8h.html" target="_top" xlink:title="SkColor.h">
<polygon fill="white" stroke="black" points="430,-406.5 430,-427.5 490,-427.5 490,-406.5 430,-406.5"/>
<text text-anchor="middle" x="460" y="-414.5" font-family="Helvetica,sans-Serif" font-size="10.00">SkColor.h</text>
</a>
</g>
<!-- Node23&#45;&gt;Node26 -->
<g id="edge74" class="edge"><title>Node23&#45;&gt;Node26</title>
<path fill="none" stroke="midnightblue" d="M385.34,-522.469C388.838,-508.288 396.404,-482.68 409,-464 416.678,-452.613 427.639,-442.043 437.433,-433.822"/>
<polygon fill="midnightblue" stroke="midnightblue" points="439.69,-436.498 445.287,-427.502 435.302,-431.044 439.69,-436.498"/>
</g>
<!-- Node32 -->
<g id="node78" class="node"><title>Node32</title>
<a xlink:href="../../db/dc8/_sk_color_table_8h.html" target="_top" xlink:title="SkColorTable.h">
<polygon fill="white" stroke="black" points="418,-464.5 418,-485.5 502,-485.5 502,-464.5 418,-464.5"/>
<text text-anchor="middle" x="460" y="-472.5" font-family="Helvetica,sans-Serif" font-size="10.00">SkColorTable.h</text>
</a>
</g>
<!-- Node23&#45;&gt;Node32 -->
<g id="edge92" class="edge"><title>Node23&#45;&gt;Node32</title>
<path fill="none" stroke="midnightblue" d="M397.123,-522.362C408.52,-513.777 424.758,-501.546 437.878,-491.664"/>
<polygon fill="midnightblue" stroke="midnightblue" points="440.085,-494.383 445.967,-485.571 435.873,-488.792 440.085,-494.383"/>
</g>
<!-- Node34 -->
<g id="node84" class="node"><title>Node34</title>
<a xlink:href="../../dc/d8c/_sk_point_8h.html" target="_top" xlink:title="SkPoint.h">
<polygon fill="white" stroke="black" points="227.5,-406.5 227.5,-427.5 286.5,-427.5 286.5,-406.5 227.5,-406.5"/>
<text text-anchor="middle" x="257" y="-414.5" font-family="Helvetica,sans-Serif" font-size="10.00">SkPoint.h</text>
</a>
</g>
<!-- Node23&#45;&gt;Node34 -->
<g id="edge100" class="edge"><title>Node23&#45;&gt;Node34</title>
<path fill="none" stroke="midnightblue" d="M356.867,-522.329C339.325,-514.238 316.495,-501.816 300,-486 285.431,-472.031 273.721,-452.138 266.222,-437.298"/>
<polygon fill="midnightblue" stroke="midnightblue" points="269.217,-435.452 261.72,-427.966 262.913,-438.494 269.217,-435.452"/>
</g>
<!-- Node25 -->
<g id="node60" class="node"><title>Node25</title>
<a xlink:href="../../d0/df6/_sk_fixed_8h.html" target="_top" xlink:title="SkFixed.h">
<polygon fill="white" stroke="black" points="314.5,-290.5 314.5,-311.5 375.5,-311.5 375.5,-290.5 314.5,-290.5"/>
<text text-anchor="middle" x="345" y="-298.5" font-family="Helvetica,sans-Serif" font-size="10.00">SkFixed.h</text>
</a>
</g>
<!-- Node24&#45;&gt;Node25 -->
<g id="edge70" class="edge"><title>Node24&#45;&gt;Node25</title>
<path fill="none" stroke="midnightblue" d="M345,-348.362C345,-340.922 345,-330.743 345,-321.728"/>
<polygon fill="midnightblue" stroke="midnightblue" points="348.5,-321.571 345,-311.571 341.5,-321.571 348.5,-321.571"/>
</g>
<!-- Node25&#45;&gt;Node4 -->
<g id="edge72" class="edge"><title>Node25&#45;&gt;Node4</title>
<path fill="none" stroke="midnightblue" d="M359.367,-290.382C381.083,-273.331 421.386,-237.514 437,-196 442.791,-180.604 442.082,-161.876 440.181,-147.818"/>
<polygon fill="midnightblue" stroke="midnightblue" points="443.591,-146.989 438.501,-137.697 436.686,-148.135 443.591,-146.989"/>
</g>
<!-- Node27 -->
<g id="node65" class="node"><title>Node27</title>
<a xlink:href="../../d5/d8a/_sk_scalar_8h.html" target="_top" xlink:title="SkScalar.h">
<polygon fill="white" stroke="black" points="239.5,-348.5 239.5,-369.5 304.5,-369.5 304.5,-348.5 239.5,-348.5"/>
<text text-anchor="middle" x="272" y="-356.5" font-family="Helvetica,sans-Serif" font-size="10.00">SkScalar.h</text>
</a>
</g>
<!-- Node26&#45;&gt;Node27 -->
<g id="edge76" class="edge"><title>Node26&#45;&gt;Node27</title>
<path fill="none" stroke="midnightblue" d="M429.795,-407.681C398.619,-398.063 349.719,-382.977 314.618,-372.148"/>
<polygon fill="midnightblue" stroke="midnightblue" points="315.244,-368.678 304.656,-369.075 313.18,-375.367 315.244,-368.678"/>
</g>
<!-- Node27&#45;&gt;Node25 -->
<g id="edge78" class="edge"><title>Node27&#45;&gt;Node25</title>
<path fill="none" stroke="midnightblue" d="M285.389,-348.362C296.091,-339.859 311.296,-327.779 323.671,-317.947"/>
<polygon fill="midnightblue" stroke="midnightblue" points="326.043,-320.532 331.696,-311.571 321.689,-315.051 326.043,-320.532"/>
</g>
<!-- Node28 -->
<g id="node68" class="node"><title>Node28</title>
<a xlink:href="../../df/dd6/_sk_floating_point_8h.html" target="_top" xlink:title="SkFloatingPoint.h">
<polygon fill="white" stroke="black" points="245,-232.5 245,-253.5 339,-253.5 339,-232.5 245,-232.5"/>
<text text-anchor="middle" x="292" y="-240.5" font-family="Helvetica,sans-Serif" font-size="10.00">SkFloatingPoint.h</text>
</a>
</g>
<!-- Node27&#45;&gt;Node28 -->
<g id="edge80" class="edge"><title>Node27&#45;&gt;Node28</title>
<path fill="none" stroke="midnightblue" d="M273.846,-348.295C277.15,-329.131 284.129,-288.654 288.406,-263.843"/>
<polygon fill="midnightblue" stroke="midnightblue" points="291.909,-264.129 290.159,-253.679 285.01,-262.939 291.909,-264.129"/>
</g>
<!-- Node28&#45;&gt;Node4 -->
<g id="edge82" class="edge"><title>Node28&#45;&gt;Node4</title>
<path fill="none" stroke="midnightblue" d="M339.186,-236.011C365.497,-229.758 396.913,-218.002 417,-196 428.883,-182.984 433.431,-163.209 435.124,-148.16"/>
<polygon fill="midnightblue" stroke="midnightblue" points="438.646,-148.007 435.936,-137.764 431.668,-147.461 438.646,-148.007"/>
</g>
<!-- Node29 -->
<g id="node71" class="node"><title>Node29</title>
<polygon fill="white" stroke="#bfbfbf" points="205.5,-174.5 205.5,-195.5 252.5,-195.5 252.5,-174.5 205.5,-174.5"/>
<text text-anchor="middle" x="229" y="-182.5" font-family="Helvetica,sans-Serif" font-size="10.00">math.h</text>
</g>
<!-- Node28&#45;&gt;Node29 -->
<g id="edge84" class="edge"><title>Node28&#45;&gt;Node29</title>
<path fill="none" stroke="midnightblue" d="M280.445,-232.362C271.387,-224.023 258.59,-212.242 248.026,-202.516"/>
<polygon fill="midnightblue" stroke="midnightblue" points="250.21,-199.769 240.482,-195.571 245.468,-204.919 250.21,-199.769"/>
</g>
<!-- Node30 -->
<g id="node73" class="node"><title>Node30</title>
<polygon fill="white" stroke="#bfbfbf" points="270,-174.5 270,-195.5 314,-195.5 314,-174.5 270,-174.5"/>
<text text-anchor="middle" x="292" y="-182.5" font-family="Helvetica,sans-Serif" font-size="10.00">float.h</text>
</g>
<!-- Node28&#45;&gt;Node30 -->
<g id="edge86" class="edge"><title>Node28&#45;&gt;Node30</title>
<path fill="none" stroke="midnightblue" d="M292,-232.362C292,-224.922 292,-214.743 292,-205.728"/>
<polygon fill="midnightblue" stroke="midnightblue" points="295.5,-205.571 292,-195.571 288.5,-205.571 295.5,-205.571"/>
</g>
<!-- Node31 -->
<g id="node75" class="node"><title>Node31</title>
<a xlink:href="../../de/d2c/_sk_float_bits_8h.html" target="_top" xlink:title="SkFloatBits.h">
<polygon fill="white" stroke="black" points="332,-174.5 332,-195.5 408,-195.5 408,-174.5 332,-174.5"/>
<text text-anchor="middle" x="370" y="-182.5" font-family="Helvetica,sans-Serif" font-size="10.00">SkFloatBits.h</text>
</a>
</g>
<!-- Node28&#45;&gt;Node31 -->
<g id="edge88" class="edge"><title>Node28&#45;&gt;Node31</title>
<path fill="none" stroke="midnightblue" d="M306.306,-232.362C317.851,-223.777 334.3,-211.546 347.59,-201.664"/>
<polygon fill="midnightblue" stroke="midnightblue" points="349.848,-204.346 355.784,-195.571 345.671,-198.729 349.848,-204.346"/>
</g>
<!-- Node31&#45;&gt;Node4 -->
<g id="edge90" class="edge"><title>Node31&#45;&gt;Node4</title>
<path fill="none" stroke="midnightblue" d="M382.105,-174.362C391.688,-165.941 405.264,-154.011 416.393,-144.231"/>
<polygon fill="midnightblue" stroke="midnightblue" points="418.77,-146.801 423.971,-137.571 414.149,-141.543 418.77,-146.801"/>
</g>
<!-- Node32&#45;&gt;Node26 -->
<g id="edge94" class="edge"><title>Node32&#45;&gt;Node26</title>
<path fill="none" stroke="midnightblue" d="M460,-464.362C460,-456.922 460,-446.743 460,-437.728"/>
<polygon fill="midnightblue" stroke="midnightblue" points="463.5,-437.571 460,-427.571 456.5,-437.571 463.5,-437.571"/>
</g>
<!-- Node32&#45;&gt;Node33 -->
<g id="edge96" class="edge"><title>Node32&#45;&gt;Node33</title>
<path fill="none" stroke="midnightblue" d="M499.116,-464.497C534.94,-454.877 588.117,-440.598 626.808,-430.209"/>
<polygon fill="midnightblue" stroke="midnightblue" points="628.06,-433.497 636.811,-427.523 626.245,-426.736 628.06,-433.497"/>
</g>
<!-- Node33&#45;&gt;Node15 -->
<g id="edge98" class="edge"><title>Node33&#45;&gt;Node15</title>
<path fill="none" stroke="midnightblue" d="M676,-406.362C676,-398.922 676,-388.743 676,-379.728"/>
<polygon fill="midnightblue" stroke="midnightblue" points="679.5,-379.571 676,-369.571 672.5,-379.571 679.5,-379.571"/>
</g>
<!-- Node34&#45;&gt;Node14 -->
<g id="edge102" class="edge"><title>Node34&#45;&gt;Node14</title>
<path fill="none" stroke="midnightblue" d="M250.591,-406.387C245.053,-396.998 237.014,-382.835 231,-370 203.684,-311.708 177.899,-239.993 165.953,-205.474"/>
<polygon fill="midnightblue" stroke="midnightblue" points="169.134,-203.96 162.576,-195.638 162.513,-206.233 169.134,-203.96"/>
</g>
<!-- Node34&#45;&gt;Node27 -->
<g id="edge104" class="edge"><title>Node34&#45;&gt;Node27</title>
<path fill="none" stroke="midnightblue" d="M259.751,-406.362C261.697,-398.84 264.366,-388.519 266.716,-379.431"/>
<polygon fill="midnightblue" stroke="midnightblue" points="270.151,-380.128 269.266,-369.571 263.374,-378.376 270.151,-380.128"/>
</g>
<!-- Node36 -->
<g id="node92" class="node"><title>Node36</title>
<a xlink:href="../../df/d14/_sk_rect_8h.html" target="_top" xlink:title="SkRect.h">
<polygon fill="white" stroke="black" points="190,-464.5 190,-485.5 248,-485.5 248,-464.5 190,-464.5"/>
<text text-anchor="middle" x="219" y="-472.5" font-family="Helvetica,sans-Serif" font-size="10.00">SkRect.h</text>
</a>
</g>
<!-- Node35&#45;&gt;Node36 -->
<g id="edge112" class="edge"><title>Node35&#45;&gt;Node36</title>
<path fill="none" stroke="midnightblue" d="M219,-522.362C219,-514.922 219,-504.743 219,-495.728"/>
<polygon fill="midnightblue" stroke="midnightblue" points="222.5,-495.571 219,-485.571 215.5,-495.571 222.5,-495.571"/>
</g>
<!-- Node36&#45;&gt;Node34 -->
<g id="edge114" class="edge"><title>Node36&#45;&gt;Node34</title>
<path fill="none" stroke="midnightblue" d="M225.97,-464.362C231.166,-456.431 238.401,-445.389 244.578,-435.961"/>
<polygon fill="midnightblue" stroke="midnightblue" points="247.522,-437.853 250.074,-427.571 241.666,-434.017 247.522,-437.853"/>
</g>
<!-- Node37 -->
<g id="node95" class="node"><title>Node37</title>
<a xlink:href="../../d9/d2c/_sk_size_8h.html" target="_top" xlink:title="SkSize.h">
<polygon fill="white" stroke="black" points="154,-406.5 154,-427.5 210,-427.5 210,-406.5 154,-406.5"/>
<text text-anchor="middle" x="182" y="-414.5" font-family="Helvetica,sans-Serif" font-size="10.00">SkSize.h</text>
</a>
</g>
<!-- Node36&#45;&gt;Node37 -->
<g id="edge116" class="edge"><title>Node36&#45;&gt;Node37</title>
<path fill="none" stroke="midnightblue" d="M212.214,-464.362C207.207,-456.513 200.255,-445.616 194.282,-436.253"/>
<polygon fill="midnightblue" stroke="midnightblue" points="197.072,-434.119 188.743,-427.571 191.171,-437.884 197.072,-434.119"/>
</g>
<!-- Node37&#45;&gt;Node27 -->
<g id="edge118" class="edge"><title>Node37&#45;&gt;Node27</title>
<path fill="none" stroke="midnightblue" d="M198.507,-406.362C212.082,-397.614 231.533,-385.079 247.015,-375.101"/>
<polygon fill="midnightblue" stroke="midnightblue" points="249.088,-377.93 255.597,-369.571 245.296,-372.046 249.088,-377.93"/>
</g>
<!-- Node38&#45;&gt;Node36 -->
<g id="edge122" class="edge"><title>Node38&#45;&gt;Node36</title>
<path fill="none" stroke="midnightblue" d="M284.327,-522.362C272.486,-513.777 255.615,-501.546 241.984,-491.664"/>
<polygon fill="midnightblue" stroke="midnightblue" points="243.731,-488.607 233.58,-485.571 239.622,-494.274 243.731,-488.607"/>
</g>
<!-- Node39&#45;&gt;Node26 -->
<g id="edge126" class="edge"><title>Node39&#45;&gt;Node26</title>
<path fill="none" stroke="midnightblue" d="M555.805,-522.251C546.248,-508.269 528.522,-483.344 511,-464 501.527,-453.542 490.04,-442.81 480.368,-434.246"/>
<polygon fill="midnightblue" stroke="midnightblue" points="482.594,-431.544 472.754,-427.616 477.997,-436.823 482.594,-431.544"/>
</g>
<!-- Node40 -->
<g id="node104" class="node"><title>Node40</title>
<a xlink:href="../../dd/d31/_sk_draw_looper_8h.html" target="_top" xlink:title="SkDrawLooper.h">
<polygon fill="white" stroke="black" points="653.5,-464.5 653.5,-485.5 742.5,-485.5 742.5,-464.5 653.5,-464.5"/>
<text text-anchor="middle" x="698" y="-472.5" font-family="Helvetica,sans-Serif" font-size="10.00">SkDrawLooper.h</text>
</a>
</g>
<!-- Node39&#45;&gt;Node40 -->
<g id="edge128" class="edge"><title>Node39&#45;&gt;Node40</title>
<path fill="none" stroke="midnightblue" d="M587.447,-522.497C608.818,-513.315 640.069,-499.889 663.897,-489.652"/>
<polygon fill="midnightblue" stroke="midnightblue" points="665.472,-492.784 673.278,-485.621 662.709,-486.353 665.472,-492.784"/>
</g>
<!-- Node41 -->
<g id="node107" class="node"><title>Node41</title>
<a xlink:href="../../d6/d5a/_sk_xfermode_8h.html" target="_top" xlink:title="SkXfermode.h">
<polygon fill="white" stroke="black" points="557.5,-464.5 557.5,-485.5 636.5,-485.5 636.5,-464.5 557.5,-464.5"/>
<text text-anchor="middle" x="597" y="-472.5" font-family="Helvetica,sans-Serif" font-size="10.00">SkXfermode.h</text>
</a>
</g>
<!-- Node39&#45;&gt;Node41 -->
<g id="edge132" class="edge"><title>Node39&#45;&gt;Node41</title>
<path fill="none" stroke="midnightblue" d="M569.236,-522.362C573.837,-514.513 580.225,-503.616 585.714,-494.253"/>
<polygon fill="midnightblue" stroke="midnightblue" points="588.766,-495.968 590.803,-485.571 582.727,-492.428 588.766,-495.968"/>
</g>
<!-- Node40&#45;&gt;Node33 -->
<g id="edge130" class="edge"><title>Node40&#45;&gt;Node33</title>
<path fill="none" stroke="midnightblue" d="M693.965,-464.362C691.081,-456.758 687.112,-446.294 683.637,-437.135"/>
<polygon fill="midnightblue" stroke="midnightblue" points="686.829,-435.679 680.01,-427.571 680.284,-438.162 686.829,-435.679"/>
</g>
<!-- Node41&#45;&gt;Node26 -->
<g id="edge136" class="edge"><title>Node41&#45;&gt;Node26</title>
<path fill="none" stroke="midnightblue" d="M572.19,-464.497C550.504,-455.315 518.789,-441.889 494.608,-431.652"/>
<polygon fill="midnightblue" stroke="midnightblue" points="495.661,-428.297 485.088,-427.621 492.932,-434.743 495.661,-428.297"/>
</g>
<!-- Node41&#45;&gt;Node33 -->
<g id="edge134" class="edge"><title>Node41&#45;&gt;Node33</title>
<path fill="none" stroke="midnightblue" d="M611.49,-464.362C623.183,-455.777 639.843,-443.546 653.303,-433.664"/>
<polygon fill="midnightblue" stroke="midnightblue" points="655.613,-436.31 661.602,-427.571 651.47,-430.667 655.613,-436.31"/>
</g>
</g>
</svg>
        <g id="navigator" transform="translate(0 0)" fill="#404254">
                <rect fill="#f2f5e9" fill-opacity="0.5" stroke="#606060" stroke-width=".5" x="0" y="0" width="60" height="60"/>
                <use id="zoomplus" xlink:href="#zoomPlus" x="17" y="9" onmousedown="handleZoom(evt,'in')"/>
                <use id="zoomminus" xlink:href="#zoomMin" x="42" y="9" onmousedown="handleZoom(evt,'out')"/>
                <use id="reset" xlink:href="#resetDef" x="30" y="36" onmousedown="handleReset()"/>
                <g id="arrowUp" xlink:href="#dirArrow" transform="translate(30 24)" onmousedown="handlePan(0,-1)">
                  <use xlink:href="#rim" fill="#404040">
                        <set attributeName="fill" to="#808080" begin="arrowUp.mouseover" end="arrowUp.mouseout"/>
                  </use>
                  <path fill="none" stroke="white" stroke-width="1.5" d="M0,-3.0v7 M-2.5,-0.5L0,-3.0L2.5,-0.5"/>
                </g>
                <g id="arrowRight" xlink:href="#dirArrow" transform="rotate(90) translate(36 -43)" onmousedown="handlePan(1,0)">
                  <use xlink:href="#rim" fill="#404040">
                        <set attributeName="fill" to="#808080" begin="arrowRight.mouseover" end="arrowRight.mouseout"/>
                  </use>
                  <path fill="none" stroke="white" stroke-width="1.5" d="M0,-3.0v7 M-2.5,-0.5L0,-3.0L2.5,-0.5"/>
                </g>
                <g id="arrowDown" xlink:href="#dirArrow" transform="rotate(180) translate(-30 -48)" onmousedown="handlePan(0,1)">
                  <use xlink:href="#rim" fill="#404040">
                        <set attributeName="fill" to="#808080" begin="arrowDown.mouseover" end="arrowDown.mouseout"/>
                  </use>
                  <path fill="none" stroke="white" stroke-width="1.5" d="M0,-3.0v7 M-2.5,-0.5L0,-3.0L2.5,-0.5"/>
                </g>
                <g id="arrowLeft" xlink:href="#dirArrow" transform="rotate(270) translate(-36 17)" onmousedown="handlePan(-1,0)">
                  <use xlink:href="#rim" fill="#404040">
                        <set attributeName="fill" to="#808080" begin="arrowLeft.mouseover" end="arrowLeft.mouseout"/>
                  </use>
                  <path fill="none" stroke="white" stroke-width="1.5" d="M0,-3.0v7 M-2.5,-0.5L0,-3.0L2.5,-0.5"/>
                </g>
        </g>
</svg>
