<?xml version="1.0" encoding="UTF-8" standalone="no"?>
<!DOCTYPE svg PUBLIC "-//W3C//DTD SVG 1.1//EN"
 "http://www.w3.org/Graphics/SVG/1.1/DTD/svg11.dtd">
<!-- Generated by graphviz version 2.26.3 (20100126.1600)
 -->
<!-- Title: G Pages: 1 -->
<svg width="104pt" height="204pt"
 viewBox="0.00 0.00 104.00 204.00" xmlns="http://www.w3.org/2000/svg" xmlns:xlink="http://www.w3.org/1999/xlink">
<g id="graph1" class="graph" transform="scale(1 1) rotate(0) translate(4 200)">
<title>G</title>
<polygon fill="white" stroke="white" points="-4,5 -4,-200 101,-200 101,5 -4,5"/>
<!-- Node1 -->
<g id="node1" class="node"><title>Node1</title>
<polygon fill="#bfbfbf" stroke="black" points="0,-0.5 0,-21.5 96,-21.5 96,-0.5 0,-0.5"/>
<text text-anchor="middle" x="48" y="-8.5" font-family="Helvetica,sans-Serif" font-size="10.00">nsIDOMKeyEvent</text>
</g>
<!-- Node2 -->
<g id="node2" class="node"><title>Node2</title>
<a xlink:href="../../d9/d18/interfacens_i_d_o_m_u_i_event.html" target="_top" xlink:title="nsIDOMUIEvent">
<polygon fill="white" stroke="black" points="3.5,-58.5 3.5,-79.5 92.5,-79.5 92.5,-58.5 3.5,-58.5"/>
<text text-anchor="middle" x="48" y="-66.5" font-family="Helvetica,sans-Serif" font-size="10.00">nsIDOMUIEvent</text>
</a>
</g>
<!-- Node2&#45;&gt;Node1 -->
<g id="edge2" class="edge"><title>Node2&#45;&gt;Node1</title>
<path fill="none" stroke="midnightblue" d="M41.4952,-48.1906C40.9414,-39.1684 41.3257,-28.9941 42.6479,-21.5707"/>
<polygon fill="midnightblue" stroke="midnightblue" points="38.0431,-48.8143 42.6359,-58.3619 44.9995,-48.0341 38.0431,-48.8143"/>
</g>
<!-- Node2&#45;&gt;Node1 -->
<g id="edge12" class="edge"><title>Node2&#45;&gt;Node1</title>
<path fill="none" stroke="midnightblue" d="M54.5048,-48.1906C55.0586,-39.1684 54.6743,-28.9941 53.3521,-21.5707"/>
<polygon fill="midnightblue" stroke="midnightblue" points="51.0005,-48.0341 53.3641,-58.3619 57.9569,-48.8143 51.0005,-48.0341"/>
</g>
<!-- Node3 -->
<g id="node4" class="node"><title>Node3</title>
<a xlink:href="../../d4/d5c/interfacens_i_d_o_m_event.html" target="_top" xlink:title="nsIDOMEvent">
<polygon fill="white" stroke="black" points="8.5,-116.5 8.5,-137.5 87.5,-137.5 87.5,-116.5 8.5,-116.5"/>
<text text-anchor="middle" x="48" y="-124.5" font-family="Helvetica,sans-Serif" font-size="10.00">nsIDOMEvent</text>
</a>
</g>
<!-- Node3&#45;&gt;Node2 -->
<g id="edge4" class="edge"><title>Node3&#45;&gt;Node2</title>
<path fill="none" stroke="midnightblue" d="M41.4952,-106.191C40.9414,-97.1684 41.3257,-86.9941 42.6479,-79.5707"/>
<polygon fill="midnightblue" stroke="midnightblue" points="38.0431,-106.814 42.6359,-116.362 44.9995,-106.034 38.0431,-106.814"/>
</g>
<!-- Node3&#45;&gt;Node2 -->
<g id="edge10" class="edge"><title>Node3&#45;&gt;Node2</title>
<path fill="none" stroke="midnightblue" d="M54.5048,-106.191C55.0586,-97.1684 54.6743,-86.9941 53.3521,-79.5707"/>
<polygon fill="midnightblue" stroke="midnightblue" points="51.0005,-106.034 53.3641,-116.362 57.9569,-106.814 51.0005,-106.034"/>
</g>
<!-- Node4 -->
<g id="node6" class="node"><title>Node4</title>
<a xlink:href="../../d4/d6a/classns_i_supports.html" target="_top" xlink:title="nsISupports">
<polygon fill="white" stroke="black" points="13.5,-174.5 13.5,-195.5 82.5,-195.5 82.5,-174.5 13.5,-174.5"/>
<text text-anchor="middle" x="48" y="-182.5" font-family="Helvetica,sans-Serif" font-size="10.00">nsISupports</text>
</a>
</g>
<!-- Node4&#45;&gt;Node3 -->
<g id="edge6" class="edge"><title>Node4&#45;&gt;Node3</title>
<path fill="none" stroke="midnightblue" d="M41.4952,-164.191C40.9414,-155.168 41.3257,-144.994 42.6479,-137.571"/>
<polygon fill="midnightblue" stroke="midnightblue" points="38.0431,-164.814 42.6359,-174.362 44.9995,-164.034 38.0431,-164.814"/>
</g>
<!-- Node4&#45;&gt;Node3 -->
<g id="edge8" class="edge"><title>Node4&#45;&gt;Node3</title>
<path fill="none" stroke="midnightblue" d="M54.5048,-164.191C55.0586,-155.168 54.6743,-144.994 53.3521,-137.571"/>
<polygon fill="midnightblue" stroke="midnightblue" points="51.0005,-164.034 53.3641,-174.362 57.9569,-164.814 51.0005,-164.034"/>
</g>
</g>
</svg>
