<?xml version="1.0" encoding="UTF-8" standalone="no"?>
<!DOCTYPE svg PUBLIC "-//W3C//DTD SVG 1.1//EN"
 "http://www.w3.org/Graphics/SVG/1.1/DTD/svg11.dtd">
<!-- Generated by graphviz version 2.26.3 (20100126.1600)
 -->
<!-- Title: G Pages: 1 -->
<!--zoomable 436 -->
<svg id="main" version="1.1" xmlns="http://www.w3.org/2000/svg" xmlns:xlink="http://www.w3.org/1999/xlink" xml:space="preserve" onload="init(evt)">
        <defs>
                <circle id="rim" cx="0" cy="0" r="7"/>
                <circle id="rim2" cx="0" cy="0" r="3.5"/>
                <g id="zoomPlus">
                        <use xlink:href="#rim" fill="#404040">
                                <set attributeName="fill" to="#808080" begin="zoomplus.mouseover" end="zoomplus.mouseout"/>
                        </use>
                        <path d="M-4,0h8M0,-4v8" fill="none" stroke="white" stroke-width="1.5" pointer-events="none"/>
                </g>
                <g id="zoomMin">
                        <use xlink:href="#rim" fill="#404040">
                                <set attributeName="fill" to="#808080" begin="zoomminus.mouseover" end="zoomminus.mouseout"/>
                        </use>
                        <path d="M-4,0h8" fill="none" stroke="white" stroke-width="1.5" pointer-events="none"/>
                </g>
                <g id="dirArrow">
                        <path fill="none" stroke="white" stroke-width="1.5" d="M0,-3.0v7 M-2.5,-0.5L0,-3.0L2.5,-0.5"/>
                </g>
               <g id="resetDef">
                       <use xlink:href="#rim2" fill="#404040">
                               <set attributeName="fill" to="#808080" begin="reset.mouseover" end="reset.mouseout"/>
                       </use>
               </g>
        </defs>

<script type="text/javascript">
var viewWidth = 990;
var viewHeight = 436;
var sectionId = 'dynsection-0';
</script>
<script xlink:href="../../svgpan.js"/>
<svg id="graph" class="graph">
<g id="viewport">
<title>G</title>
<polygon fill="white" stroke="white" points="-4,5 -4,-432 986.961,-432 986.961,5 -4,5"/>
<!-- Node1 -->
<g id="node1" class="node"><title>Node1</title>
<polygon fill="#bfbfbf" stroke="black" points="338.461,-406.5 338.461,-427.5 691.461,-427.5 691.461,-406.5 338.461,-406.5"/>
<text text-anchor="middle" x="514.961" y="-414.5" font-family="Helvetica,sans-Serif" font-size="10.00">/home/aoi/Documents/FxOS/B2G/gaia/xulrunner&#45;sdk/include/nsChangeHint.h</text>
</g>
<!-- Node2 -->
<g id="node3" class="node"><title>Node2</title>
<a xlink:href="../../dc/d6d/ns_debug_8h.html" target="_top" xlink:title="nsDebug.h">
<polygon fill="white" stroke="black" points="482.961,-348.5 482.961,-369.5 546.961,-369.5 546.961,-348.5 482.961,-348.5"/>
<text text-anchor="middle" x="514.961" y="-356.5" font-family="Helvetica,sans-Serif" font-size="10.00">nsDebug.h</text>
</a>
</g>
<!-- Node1&#45;&gt;Node2 -->
<g id="edge2" class="edge"><title>Node1&#45;&gt;Node2</title>
<path fill="none" stroke="midnightblue" d="M514.961,-406.362C514.961,-398.922 514.961,-388.743 514.961,-379.728"/>
<polygon fill="midnightblue" stroke="midnightblue" points="518.461,-379.571 514.961,-369.571 511.461,-379.571 518.461,-379.571"/>
</g>
<!-- Node3 -->
<g id="node5" class="node"><title>Node3</title>
<a xlink:href="../../d3/dd8/nscore_8h.html" target="_top" xlink:title="nscore.h">
<polygon fill="white" stroke="black" points="324.961,-232.5 324.961,-253.5 378.961,-253.5 378.961,-232.5 324.961,-232.5"/>
<text text-anchor="middle" x="351.961" y="-240.5" font-family="Helvetica,sans-Serif" font-size="10.00">nscore.h</text>
</a>
</g>
<!-- Node2&#45;&gt;Node3 -->
<g id="edge4" class="edge"><title>Node2&#45;&gt;Node3</title>
<path fill="none" stroke="midnightblue" d="M482.902,-351.931C457.468,-345.067 422.129,-332.603 396.961,-312 380.711,-298.698 368.297,-277.955 360.666,-262.683"/>
<polygon fill="midnightblue" stroke="midnightblue" points="363.793,-261.11 356.349,-253.571 357.467,-264.107 363.793,-261.11"/>
</g>
<!-- Node14 -->
<g id="node29" class="node"><title>Node14</title>
<a xlink:href="../../d8/dcf/ns_error_8h.html" target="_top" xlink:title="nsError.h">
<polygon fill="white" stroke="black" points="482.961,-174.5 482.961,-195.5 538.961,-195.5 538.961,-174.5 482.961,-174.5"/>
<text text-anchor="middle" x="510.961" y="-182.5" font-family="Helvetica,sans-Serif" font-size="10.00">nsError.h</text>
</a>
</g>
<!-- Node2&#45;&gt;Node14 -->
<g id="edge42" class="edge"><title>Node2&#45;&gt;Node14</title>
<path fill="none" stroke="midnightblue" d="M514.716,-348.377C514.071,-320.293 512.309,-243.673 511.448,-206.203"/>
<polygon fill="midnightblue" stroke="midnightblue" points="514.941,-205.845 511.212,-195.928 507.943,-206.006 514.941,-205.845"/>
</g>
<!-- Node15 -->
<g id="node31" class="node"><title>Node15</title>
<a xlink:href="../../d1/d8a/_likely_8h.html" target="_top" xlink:title="mozilla/Likely.h">
<polygon fill="white" stroke="black" points="619.961,-116.5 619.961,-137.5 703.961,-137.5 703.961,-116.5 619.961,-116.5"/>
<text text-anchor="middle" x="661.961" y="-124.5" font-family="Helvetica,sans-Serif" font-size="10.00">mozilla/Likely.h</text>
</a>
</g>
<!-- Node2&#45;&gt;Node15 -->
<g id="edge66" class="edge"><title>Node2&#45;&gt;Node15</title>
<path fill="none" stroke="midnightblue" d="M521.659,-348.429C544.569,-312.271 620.024,-193.186 649.76,-146.255"/>
<polygon fill="midnightblue" stroke="midnightblue" points="652.827,-147.954 655.223,-137.634 646.914,-144.207 652.827,-147.954"/>
</g>
<!-- Node18 -->
<g id="node40" class="node"><title>Node18</title>
<a xlink:href="../../dd/d3a/ns_x_p_c_o_m_8h.html" target="_top" xlink:title="nsXPCOM.h">
<polygon fill="white" stroke="black" points="405.961,-290.5 405.961,-311.5 477.961,-311.5 477.961,-290.5 405.961,-290.5"/>
<text text-anchor="middle" x="441.961" y="-298.5" font-family="Helvetica,sans-Serif" font-size="10.00">nsXPCOM.h</text>
</a>
</g>
<!-- Node2&#45;&gt;Node18 -->
<g id="edge44" class="edge"><title>Node2&#45;&gt;Node18</title>
<path fill="none" stroke="midnightblue" d="M501.571,-348.362C490.869,-339.859 475.665,-327.779 463.29,-317.947"/>
<polygon fill="midnightblue" stroke="midnightblue" points="465.272,-315.051 455.265,-311.571 460.917,-320.532 465.272,-315.051"/>
</g>
<!-- Node20 -->
<g id="node45" class="node"><title>Node20</title>
<a xlink:href="../../d9/de9/_assertions_8h.html" target="_top" xlink:title="mozilla/Assertions.h">
<polygon fill="white" stroke="black" points="722.461,-174.5 722.461,-195.5 827.461,-195.5 827.461,-174.5 722.461,-174.5"/>
<text text-anchor="middle" x="774.961" y="-182.5" font-family="Helvetica,sans-Serif" font-size="10.00">mozilla/Assertions.h</text>
</a>
</g>
<!-- Node2&#45;&gt;Node20 -->
<g id="edge50" class="edge"><title>Node2&#45;&gt;Node20</title>
<path fill="none" stroke="midnightblue" d="M547.253,-354.311C579.447,-348.46 629.255,-336.134 665.961,-312 709.613,-283.298 745.716,-232.266 763.341,-204.429"/>
<polygon fill="midnightblue" stroke="midnightblue" points="766.503,-205.97 768.786,-195.624 760.549,-202.288 766.503,-205.97"/>
</g>
<!-- Node4 -->
<g id="node7" class="node"><title>Node4</title>
<a xlink:href="../../d7/d2d/xpcom-config_8h.html" target="_top" xlink:title="xpcom&#45;config.h">
<polygon fill="white" stroke="black" points="35.4606,-116.5 35.4606,-137.5 118.461,-137.5 118.461,-116.5 35.4606,-116.5"/>
<text text-anchor="middle" x="76.9606" y="-124.5" font-family="Helvetica,sans-Serif" font-size="10.00">xpcom&#45;config.h</text>
</a>
</g>
<!-- Node3&#45;&gt;Node4 -->
<g id="edge6" class="edge"><title>Node3&#45;&gt;Node4</title>
<path fill="none" stroke="midnightblue" d="M324.546,-233.01C300.953,-224.126 266.195,-210.353 236.961,-196 219.443,-187.4 216.565,-182.423 198.961,-174 172.597,-161.386 141.89,-149.571 117.879,-140.942"/>
<polygon fill="midnightblue" stroke="midnightblue" points="118.959,-137.612 108.364,-137.564 116.616,-144.208 118.959,-137.612"/>
</g>
<!-- Node5 -->
<g id="node9" class="node"><title>Node5</title>
<a xlink:href="../../d1/d62/mozalloc_8h.html" target="_top" xlink:title="mozilla/mozalloc.h">
<polygon fill="white" stroke="black" points="245.961,-174.5 245.961,-195.5 343.961,-195.5 343.961,-174.5 245.961,-174.5"/>
<text text-anchor="middle" x="294.961" y="-182.5" font-family="Helvetica,sans-Serif" font-size="10.00">mozilla/mozalloc.h</text>
</a>
</g>
<!-- Node3&#45;&gt;Node5 -->
<g id="edge8" class="edge"><title>Node3&#45;&gt;Node5</title>
<path fill="none" stroke="midnightblue" d="M341.506,-232.362C333.391,-224.104 321.959,-212.472 312.457,-202.803"/>
<polygon fill="midnightblue" stroke="midnightblue" points="314.855,-200.25 305.349,-195.571 309.862,-205.156 314.855,-200.25"/>
</g>
<!-- Node10 -->
<g id="node20" class="node"><title>Node10</title>
<a xlink:href="../../d1/de4/mozalloc__macro__wrappers_8h.html" target="_top" xlink:title="mozilla/mozalloc_macro_wrappers.h">
<polygon fill="white" stroke="black" points="15.4606,-174.5 15.4606,-195.5 190.461,-195.5 190.461,-174.5 15.4606,-174.5"/>
<text text-anchor="middle" x="102.961" y="-182.5" font-family="Helvetica,sans-Serif" font-size="10.00">mozilla/mozalloc_macro_wrappers.h</text>
</a>
</g>
<!-- Node3&#45;&gt;Node10 -->
<g id="edge20" class="edge"><title>Node3&#45;&gt;Node10</title>
<path fill="none" stroke="midnightblue" d="M324.839,-236.683C285.017,-227.407 209.856,-209.899 158.132,-197.851"/>
<polygon fill="midnightblue" stroke="midnightblue" points="158.65,-194.378 148.117,-195.518 157.062,-201.196 158.65,-194.378"/>
</g>
<!-- Node11 -->
<g id="node22" class="node"><title>Node11</title>
<polygon fill="white" stroke="#bfbfbf" points="721.961,-116.5 721.961,-137.5 773.961,-137.5 773.961,-116.5 721.961,-116.5"/>
<text text-anchor="middle" x="747.961" y="-124.5" font-family="Helvetica,sans-Serif" font-size="10.00">stddef.h</text>
</g>
<!-- Node3&#45;&gt;Node11 -->
<g id="edge22" class="edge"><title>Node3&#45;&gt;Node11</title>
<path fill="none" stroke="midnightblue" d="M379.025,-234.492C382.031,-233.618 385.055,-232.77 387.961,-232 458.42,-213.337 477.846,-215.916 547.961,-196 606.265,-179.438 672.504,-155.558 712.223,-140.676"/>
<polygon fill="midnightblue" stroke="midnightblue" points="713.604,-143.896 721.729,-137.096 711.137,-137.345 713.604,-143.896"/>
</g>
<!-- Node12 -->
<g id="node24" class="node"><title>Node12</title>
<polygon fill="white" stroke="#bfbfbf" points="239.461,-116.5 239.461,-137.5 288.461,-137.5 288.461,-116.5 239.461,-116.5"/>
<text text-anchor="middle" x="263.961" y="-124.5" font-family="Helvetica,sans-Serif" font-size="10.00">stdint.h</text>
</g>
<!-- Node3&#45;&gt;Node12 -->
<g id="edge24" class="edge"><title>Node3&#45;&gt;Node12</title>
<path fill="none" stroke="midnightblue" d="M355.382,-232.287C359.291,-217.9 363.846,-192.058 352.961,-174 346.607,-163.459 320.295,-150.287 297.914,-140.571"/>
<polygon fill="midnightblue" stroke="midnightblue" points="299.206,-137.317 288.633,-136.637 296.474,-143.762 299.206,-137.317"/>
</g>
<!-- Node13 -->
<g id="node26" class="node"><title>Node13</title>
<a xlink:href="../../df/dcf/_null_ptr_8h.html" target="_top" xlink:title="mozilla/NullPtr.h">
<polygon fill="white" stroke="black" points="167.461,-58.5 167.461,-79.5 256.461,-79.5 256.461,-58.5 167.461,-58.5"/>
<text text-anchor="middle" x="211.961" y="-66.5" font-family="Helvetica,sans-Serif" font-size="10.00">mozilla/NullPtr.h</text>
</a>
</g>
<!-- Node3&#45;&gt;Node13 -->
<g id="edge26" class="edge"><title>Node3&#45;&gt;Node13</title>
<path fill="none" stroke="midnightblue" d="M324.846,-241.327C247.137,-236.257 27.8566,-219.936 6.96059,-196 -10.1803,-176.366 9.014,-132.511 26.9606,-116 45.8752,-98.5983 109.791,-85.0289 157.228,-77.0367"/>
<polygon fill="midnightblue" stroke="midnightblue" points="158.08,-80.4437 167.38,-75.3681 156.945,-73.5364 158.08,-80.4437"/>
</g>
<!-- Node3&#45;&gt;Node14 -->
<g id="edge30" class="edge"><title>Node3&#45;&gt;Node14</title>
<path fill="none" stroke="midnightblue" d="M379.294,-233.029C405.186,-223.584 444.297,-209.317 473.169,-198.785"/>
<polygon fill="midnightblue" stroke="midnightblue" points="474.721,-201.945 482.916,-195.23 472.322,-195.369 474.721,-201.945"/>
</g>
<!-- Node5&#45;&gt;Node4 -->
<g id="edge14" class="edge"><title>Node5&#45;&gt;Node4</title>
<path fill="none" stroke="midnightblue" d="M255.482,-174.497C219.327,-164.877 165.657,-150.598 126.608,-140.209"/>
<polygon fill="midnightblue" stroke="midnightblue" points="127.077,-136.712 116.513,-137.523 125.277,-143.477 127.077,-136.712"/>
</g>
<!-- Node6 -->
<g id="node11" class="node"><title>Node6</title>
<polygon fill="white" stroke="#bfbfbf" points="425.961,-116.5 425.961,-137.5 473.961,-137.5 473.961,-116.5 425.961,-116.5"/>
<text text-anchor="middle" x="449.961" y="-124.5" font-family="Helvetica,sans-Serif" font-size="10.00">stdlib.h</text>
</g>
<!-- Node5&#45;&gt;Node6 -->
<g id="edge10" class="edge"><title>Node5&#45;&gt;Node6</title>
<path fill="none" stroke="midnightblue" d="M323.03,-174.497C349.136,-164.728 388.086,-150.153 415.948,-139.727"/>
<polygon fill="midnightblue" stroke="midnightblue" points="417.528,-142.873 425.667,-136.09 415.075,-136.317 417.528,-142.873"/>
</g>
<!-- Node7 -->
<g id="node13" class="node"><title>Node7</title>
<polygon fill="white" stroke="#bfbfbf" points="135.461,-116.5 135.461,-137.5 184.461,-137.5 184.461,-116.5 135.461,-116.5"/>
<text text-anchor="middle" x="159.961" y="-124.5" font-family="Helvetica,sans-Serif" font-size="10.00">string.h</text>
</g>
<!-- Node5&#45;&gt;Node7 -->
<g id="edge12" class="edge"><title>Node5&#45;&gt;Node7</title>
<path fill="none" stroke="midnightblue" d="M270.513,-174.497C249.143,-165.315 217.892,-151.889 194.063,-141.652"/>
<polygon fill="midnightblue" stroke="midnightblue" points="195.252,-138.353 184.682,-137.621 192.489,-144.784 195.252,-138.353"/>
</g>
<!-- Node8 -->
<g id="node16" class="node"><title>Node8</title>
<a xlink:href="../../d1/da8/_attributes_8h.html" target="_top" xlink:title="mozilla/Attributes.h">
<polygon fill="white" stroke="black" points="496.461,-58.5 496.461,-79.5 597.461,-79.5 597.461,-58.5 496.461,-58.5"/>
<text text-anchor="middle" x="546.961" y="-66.5" font-family="Helvetica,sans-Serif" font-size="10.00">mozilla/Attributes.h</text>
</a>
</g>
<!-- Node5&#45;&gt;Node8 -->
<g id="edge16" class="edge"><title>Node5&#45;&gt;Node8</title>
<path fill="none" stroke="midnightblue" d="M272.883,-174.463C247.808,-161.115 212.609,-137.283 230.961,-116 247.379,-96.9589 399.066,-81.3125 486.168,-73.8042"/>
<polygon fill="midnightblue" stroke="midnightblue" points="486.531,-77.2861 496.198,-72.951 485.937,-70.3113 486.531,-77.2861"/>
</g>
<!-- Node9 -->
<g id="node18" class="node"><title>Node9</title>
<a xlink:href="../../da/da7/_compiler_8h.html" target="_top" xlink:title="mozilla/Compiler.h">
<polygon fill="white" stroke="black" points="497.961,-0.5 497.961,-21.5 595.961,-21.5 595.961,-0.5 497.961,-0.5"/>
<text text-anchor="middle" x="546.961" y="-8.5" font-family="Helvetica,sans-Serif" font-size="10.00">mozilla/Compiler.h</text>
</a>
</g>
<!-- Node8&#45;&gt;Node9 -->
<g id="edge18" class="edge"><title>Node8&#45;&gt;Node9</title>
<path fill="none" stroke="midnightblue" d="M546.961,-58.3619C546.961,-50.9219 546.961,-40.7427 546.961,-31.7276"/>
<polygon fill="midnightblue" stroke="midnightblue" points="550.461,-31.5706 546.961,-21.5707 543.461,-31.5707 550.461,-31.5706"/>
</g>
<!-- Node13&#45;&gt;Node9 -->
<g id="edge28" class="edge"><title>Node13&#45;&gt;Node9</title>
<path fill="none" stroke="midnightblue" d="M256.793,-61.238C316.279,-50.9389 421.459,-32.7287 487.517,-21.2917"/>
<polygon fill="midnightblue" stroke="midnightblue" points="488.514,-24.6713 497.77,-19.5165 487.32,-17.7739 488.514,-24.6713"/>
</g>
<!-- Node14&#45;&gt;Node12 -->
<g id="edge38" class="edge"><title>Node14&#45;&gt;Node12</title>
<path fill="none" stroke="midnightblue" d="M482.686,-179.778C443.362,-172.303 369.782,-157.548 298.744,-138.315"/>
<polygon fill="midnightblue" stroke="midnightblue" points="299.31,-134.841 288.741,-135.572 297.459,-141.592 299.31,-134.841"/>
</g>
<!-- Node14&#45;&gt;Node15 -->
<g id="edge32" class="edge"><title>Node14&#45;&gt;Node15</title>
<path fill="none" stroke="midnightblue" d="M538.306,-174.497C562.603,-165.164 598.32,-151.445 625.128,-141.147"/>
<polygon fill="midnightblue" stroke="midnightblue" points="626.484,-144.376 634.564,-137.523 623.974,-137.842 626.484,-144.376"/>
</g>
<!-- Node16 -->
<g id="node33" class="node"><title>Node16</title>
<a xlink:href="../../d3/dff/_typed_enum_8h.html" target="_top" xlink:title="mozilla/TypedEnum.h">
<polygon fill="white" stroke="black" points="491.461,-116.5 491.461,-137.5 602.461,-137.5 602.461,-116.5 491.461,-116.5"/>
<text text-anchor="middle" x="546.961" y="-124.5" font-family="Helvetica,sans-Serif" font-size="10.00">mozilla/TypedEnum.h</text>
</a>
</g>
<!-- Node14&#45;&gt;Node16 -->
<g id="edge34" class="edge"><title>Node14&#45;&gt;Node16</title>
<path fill="none" stroke="midnightblue" d="M517.564,-174.362C522.435,-166.513 529.199,-155.616 535.011,-146.253"/>
<polygon fill="midnightblue" stroke="midnightblue" points="538.1,-147.913 540.399,-137.571 532.152,-144.221 538.1,-147.913"/>
</g>
<!-- Node17 -->
<g id="node37" class="node"><title>Node17</title>
<a xlink:href="../../d7/dda/_error_list_c_defines_8h.html" target="_top" xlink:title="ErrorListCDefines.h">
<polygon fill="white" stroke="black" points="305.461,-116.5 305.461,-137.5 408.461,-137.5 408.461,-116.5 305.461,-116.5"/>
<text text-anchor="middle" x="356.961" y="-124.5" font-family="Helvetica,sans-Serif" font-size="10.00">ErrorListCDefines.h</text>
</a>
</g>
<!-- Node14&#45;&gt;Node17 -->
<g id="edge40" class="edge"><title>Node14&#45;&gt;Node17</title>
<path fill="none" stroke="midnightblue" d="M483.072,-174.497C458.292,-165.164 421.865,-151.445 394.525,-141.147"/>
<polygon fill="midnightblue" stroke="midnightblue" points="395.493,-137.772 384.901,-137.523 393.026,-144.323 395.493,-137.772"/>
</g>
<!-- Node16&#45;&gt;Node8 -->
<g id="edge36" class="edge"><title>Node16&#45;&gt;Node8</title>
<path fill="none" stroke="midnightblue" d="M546.961,-116.362C546.961,-108.922 546.961,-98.7427 546.961,-89.7276"/>
<polygon fill="midnightblue" stroke="midnightblue" points="550.461,-89.5706 546.961,-79.5707 543.461,-89.5707 550.461,-89.5706"/>
</g>
<!-- Node18&#45;&gt;Node3 -->
<g id="edge46" class="edge"><title>Node18&#45;&gt;Node3</title>
<path fill="none" stroke="midnightblue" d="M425.453,-290.362C411.878,-281.614 392.427,-269.079 376.946,-259.101"/>
<polygon fill="midnightblue" stroke="midnightblue" points="378.665,-256.046 368.363,-253.571 374.873,-261.93 378.665,-256.046"/>
</g>
<!-- Node19 -->
<g id="node43" class="node"><title>Node19</title>
<a xlink:href="../../d1/d66/ns_x_p_c_o_m_c_i_d_8h.html" target="_top" xlink:title="nsXPCOMCID.h">
<polygon fill="white" stroke="black" points="396.961,-232.5 396.961,-253.5 486.961,-253.5 486.961,-232.5 396.961,-232.5"/>
<text text-anchor="middle" x="441.961" y="-240.5" font-family="Helvetica,sans-Serif" font-size="10.00">nsXPCOMCID.h</text>
</a>
</g>
<!-- Node18&#45;&gt;Node19 -->
<g id="edge48" class="edge"><title>Node18&#45;&gt;Node19</title>
<path fill="none" stroke="midnightblue" d="M441.961,-290.362C441.961,-282.922 441.961,-272.743 441.961,-263.728"/>
<polygon fill="midnightblue" stroke="midnightblue" points="445.461,-263.571 441.961,-253.571 438.461,-263.571 445.461,-263.571"/>
</g>
<!-- Node20&#45;&gt;Node6 -->
<g id="edge62" class="edge"><title>Node20&#45;&gt;Node6</title>
<path fill="none" stroke="midnightblue" d="M722.227,-179.126C665.478,-172.223 572.512,-159.237 483.922,-137.938"/>
<polygon fill="midnightblue" stroke="midnightblue" points="484.524,-134.482 473.979,-135.507 482.862,-141.282 484.524,-134.482"/>
</g>
<!-- Node20&#45;&gt;Node8 -->
<g id="edge52" class="edge"><title>Node20&#45;&gt;Node8</title>
<path fill="none" stroke="midnightblue" d="M780.528,-174.308C787.39,-159.471 796.576,-132.595 782.961,-116 761.185,-89.4599 670.1,-77.6256 607.673,-72.5537"/>
<polygon fill="midnightblue" stroke="midnightblue" points="607.771,-69.0509 597.53,-71.7682 607.23,-76.03 607.771,-69.0509"/>
</g>
<!-- Node20&#45;&gt;Node9 -->
<g id="edge54" class="edge"><title>Node20&#45;&gt;Node9</title>
<path fill="none" stroke="midnightblue" d="M825.304,-174.408C864.876,-163.677 910.067,-144.559 888.961,-116 855.148,-70.2487 694.602,-36.2088 606.013,-20.5467"/>
<polygon fill="midnightblue" stroke="midnightblue" points="606.555,-17.0886 596.103,-18.8182 605.353,-23.9845 606.555,-17.0886"/>
</g>
<!-- Node20&#45;&gt;Node11 -->
<g id="edge58" class="edge"><title>Node20&#45;&gt;Node11</title>
<path fill="none" stroke="midnightblue" d="M770.008,-174.362C766.431,-166.677 761.493,-156.069 757.196,-146.84"/>
<polygon fill="midnightblue" stroke="midnightblue" points="760.275,-145.159 752.881,-137.571 753.929,-148.114 760.275,-145.159"/>
</g>
<!-- Node20&#45;&gt;Node15 -->
<g id="edge56" class="edge"><title>Node20&#45;&gt;Node15</title>
<path fill="none" stroke="midnightblue" d="M754.497,-174.497C736.927,-165.479 711.378,-152.365 691.575,-142.201"/>
<polygon fill="midnightblue" stroke="midnightblue" points="693.148,-139.074 682.654,-137.621 689.952,-145.301 693.148,-139.074"/>
</g>
<!-- Node21 -->
<g id="node51" class="node"><title>Node21</title>
<polygon fill="white" stroke="#bfbfbf" points="935.961,-116.5 935.961,-137.5 981.961,-137.5 981.961,-116.5 935.961,-116.5"/>
<text text-anchor="middle" x="958.961" y="-124.5" font-family="Helvetica,sans-Serif" font-size="10.00">stdio.h</text>
</g>
<!-- Node20&#45;&gt;Node21 -->
<g id="edge60" class="edge"><title>Node20&#45;&gt;Node21</title>
<path fill="none" stroke="midnightblue" d="M808.282,-174.497C841.693,-163.965 892.826,-147.847 926.081,-137.364"/>
<polygon fill="midnightblue" stroke="midnightblue" points="927.303,-140.649 935.788,-134.304 925.198,-133.973 927.303,-140.649"/>
</g>
<!-- Node22 -->
<g id="node54" class="node"><title>Node22</title>
<polygon fill="white" stroke="#bfbfbf" points="829.961,-116.5 829.961,-137.5 879.961,-137.5 879.961,-116.5 829.961,-116.5"/>
<text text-anchor="middle" x="854.961" y="-124.5" font-family="Helvetica,sans-Serif" font-size="10.00">signal.h</text>
</g>
<!-- Node20&#45;&gt;Node22 -->
<g id="edge64" class="edge"><title>Node20&#45;&gt;Node22</title>
<path fill="none" stroke="midnightblue" d="M789.634,-174.362C801.475,-165.777 818.346,-153.546 831.976,-143.664"/>
<polygon fill="midnightblue" stroke="midnightblue" points="834.339,-146.274 840.38,-137.571 830.23,-140.607 834.339,-146.274"/>
</g>
</g>
</svg>
        <g id="navigator" transform="translate(0 0)" fill="#404254">
                <rect fill="#f2f5e9" fill-opacity="0.5" stroke="#606060" stroke-width=".5" x="0" y="0" width="60" height="60"/>
                <use id="zoomplus" xlink:href="#zoomPlus" x="17" y="9" onmousedown="handleZoom(evt,'in')"/>
                <use id="zoomminus" xlink:href="#zoomMin" x="42" y="9" onmousedown="handleZoom(evt,'out')"/>
                <use id="reset" xlink:href="#resetDef" x="30" y="36" onmousedown="handleReset()"/>
                <g id="arrowUp" xlink:href="#dirArrow" transform="translate(30 24)" onmousedown="handlePan(0,-1)">
                  <use xlink:href="#rim" fill="#404040">
                        <set attributeName="fill" to="#808080" begin="arrowUp.mouseover" end="arrowUp.mouseout"/>
                  </use>
                  <path fill="none" stroke="white" stroke-width="1.5" d="M0,-3.0v7 M-2.5,-0.5L0,-3.0L2.5,-0.5"/>
                </g>
                <g id="arrowRight" xlink:href="#dirArrow" transform="rotate(90) translate(36 -43)" onmousedown="handlePan(1,0)">
                  <use xlink:href="#rim" fill="#404040">
                        <set attributeName="fill" to="#808080" begin="arrowRight.mouseover" end="arrowRight.mouseout"/>
                  </use>
                  <path fill="none" stroke="white" stroke-width="1.5" d="M0,-3.0v7 M-2.5,-0.5L0,-3.0L2.5,-0.5"/>
                </g>
                <g id="arrowDown" xlink:href="#dirArrow" transform="rotate(180) translate(-30 -48)" onmousedown="handlePan(0,1)">
                  <use xlink:href="#rim" fill="#404040">
                        <set attributeName="fill" to="#808080" begin="arrowDown.mouseover" end="arrowDown.mouseout"/>
                  </use>
                  <path fill="none" stroke="white" stroke-width="1.5" d="M0,-3.0v7 M-2.5,-0.5L0,-3.0L2.5,-0.5"/>
                </g>
                <g id="arrowLeft" xlink:href="#dirArrow" transform="rotate(270) translate(-36 17)" onmousedown="handlePan(-1,0)">
                  <use xlink:href="#rim" fill="#404040">
                        <set attributeName="fill" to="#808080" begin="arrowLeft.mouseover" end="arrowLeft.mouseout"/>
                  </use>
                  <path fill="none" stroke="white" stroke-width="1.5" d="M0,-3.0v7 M-2.5,-0.5L0,-3.0L2.5,-0.5"/>
                </g>
        </g>
</svg>
