<?xml version="1.0" encoding="UTF-8" standalone="no"?>
<!DOCTYPE svg PUBLIC "-//W3C//DTD SVG 1.1//EN"
 "http://www.w3.org/Graphics/SVG/1.1/DTD/svg11.dtd">
<!-- Generated by graphviz version 2.26.3 (20100126.1600)
 -->
<!-- Title: G Pages: 1 -->
<!--zoomable 494 -->
<svg id="main" version="1.1" xmlns="http://www.w3.org/2000/svg" xmlns:xlink="http://www.w3.org/1999/xlink" xml:space="preserve" onload="init(evt)">
        <defs>
                <circle id="rim" cx="0" cy="0" r="7"/>
                <circle id="rim2" cx="0" cy="0" r="3.5"/>
                <g id="zoomPlus">
                        <use xlink:href="#rim" fill="#404040">
                                <set attributeName="fill" to="#808080" begin="zoomplus.mouseover" end="zoomplus.mouseout"/>
                        </use>
                        <path d="M-4,0h8M0,-4v8" fill="none" stroke="white" stroke-width="1.5" pointer-events="none"/>
                </g>
                <g id="zoomMin">
                        <use xlink:href="#rim" fill="#404040">
                                <set attributeName="fill" to="#808080" begin="zoomminus.mouseover" end="zoomminus.mouseout"/>
                        </use>
                        <path d="M-4,0h8" fill="none" stroke="white" stroke-width="1.5" pointer-events="none"/>
                </g>
                <g id="dirArrow">
                        <path fill="none" stroke="white" stroke-width="1.5" d="M0,-3.0v7 M-2.5,-0.5L0,-3.0L2.5,-0.5"/>
                </g>
               <g id="resetDef">
                       <use xlink:href="#rim2" fill="#404040">
                               <set attributeName="fill" to="#808080" begin="reset.mouseover" end="reset.mouseout"/>
                       </use>
               </g>
        </defs>

<script type="text/javascript">
var viewWidth = 3870;
var viewHeight = 494;
var sectionId = 'dynsection-1';
</script>
<script xlink:href="../../svgpan.js"/>
<svg id="graph" class="graph">
<g id="viewport">
<title>G</title>
<polygon fill="white" stroke="white" points="-4,5 -4,-490 3867,-490 3867,5 -4,5"/>
<!-- Node1 -->
<g id="node1" class="node"><title>Node1</title>
<polygon fill="#bfbfbf" stroke="black" points="1865,-464.5 1865,-485.5 2233,-485.5 2233,-464.5 1865,-464.5"/>
<text text-anchor="middle" x="2049" y="-472.5" font-family="Helvetica,sans-Serif" font-size="10.00">/home/aoi/Documents/FxOS/B2G/gaia/xulrunner&#45;sdk/idl/nsISimpleEnumerator.idl</text>
</g>
<!-- Node2 -->
<g id="node3" class="node"><title>Node2</title>
<a xlink:href="../../de/da3/ns_i_category_manager_8idl.html" target="_top" xlink:title="/home/aoi/Documents/FxOS/B2G/gaia/xulrunner&#45;sdk/idl/nsICategoryManager.idl">
<polygon fill="white" stroke="black" points="951.5,-406.5 951.5,-427.5 1316.5,-427.5 1316.5,-406.5 951.5,-406.5"/>
<text text-anchor="middle" x="1134" y="-414.5" font-family="Helvetica,sans-Serif" font-size="10.00">/home/aoi/Documents/FxOS/B2G/gaia/xulrunner&#45;sdk/idl/nsICategoryManager.idl</text>
</a>
</g>
<!-- Node1&#45;&gt;Node2 -->
<g id="edge2" class="edge"><title>Node1&#45;&gt;Node2</title>
<path fill="none" stroke="midnightblue" d="M1873.02,-463.845C1707.66,-453.363 1462.04,-437.794 1300.01,-427.523"/>
<polygon fill="midnightblue" stroke="midnightblue" points="1873.1,-467.357 1883.3,-464.497 1873.54,-460.371 1873.1,-467.357"/>
</g>
<!-- Node3 -->
<g id="node5" class="node"><title>Node3</title>
<a xlink:href="../../d9/d8c/ns_i_enumerator_8idl.html" target="_top" xlink:title="/home/aoi/Documents/FxOS/B2G/gaia/xulrunner&#45;sdk/idl/nsIEnumerator.idl">
<polygon fill="white" stroke="black" points="1580,-406.5 1580,-427.5 1918,-427.5 1918,-406.5 1580,-406.5"/>
<text text-anchor="middle" x="1749" y="-414.5" font-family="Helvetica,sans-Serif" font-size="10.00">/home/aoi/Documents/FxOS/B2G/gaia/xulrunner&#45;sdk/idl/nsIEnumerator.idl</text>
</a>
</g>
<!-- Node1&#45;&gt;Node3 -->
<g id="edge4" class="edge"><title>Node1&#45;&gt;Node3</title>
<path fill="none" stroke="midnightblue" d="M1984.53,-462.535C1930.55,-452.099 1854.38,-437.374 1803.43,-427.523"/>
<polygon fill="midnightblue" stroke="midnightblue" points="1984.19,-466.035 1994.67,-464.497 1985.52,-459.162 1984.19,-466.035"/>
</g>
<!-- Node13 -->
<g id="node28" class="node"><title>Node13</title>
<a xlink:href="../../d9/d81/ns_i_r_d_f_data_source_8idl.html" target="_top" xlink:title="/home/aoi/Documents/FxOS/B2G/gaia/xulrunner&#45;sdk/idl/nsIRDFDataSource.idl">
<polygon fill="white" stroke="black" points="1371.5,-232.5 1371.5,-253.5 1732.5,-253.5 1732.5,-232.5 1371.5,-232.5"/>
<text text-anchor="middle" x="1552" y="-240.5" font-family="Helvetica,sans-Serif" font-size="10.00">/home/aoi/Documents/FxOS/B2G/gaia/xulrunner&#45;sdk/idl/nsIRDFDataSource.idl</text>
</a>
</g>
<!-- Node1&#45;&gt;Node13 -->
<g id="edge62" class="edge"><title>Node1&#45;&gt;Node13</title>
<path fill="none" stroke="midnightblue" d="M1854.48,-467.382C1731.36,-460.602 1591.58,-448.494 1571,-428 1522.72,-379.932 1541.12,-285.424 1549.08,-253.684"/>
<polygon fill="midnightblue" stroke="midnightblue" points="1854.65,-470.896 1864.82,-467.941 1855.03,-463.906 1854.65,-470.896"/>
</g>
<!-- Node15 -->
<g id="node32" class="node"><title>Node15</title>
<a xlink:href="../../d8/dcb/ns_i_r_d_f_container_8idl.html" target="_top" xlink:title="/home/aoi/Documents/FxOS/B2G/gaia/xulrunner&#45;sdk/idl/nsIRDFContainer.idl">
<polygon fill="white" stroke="black" points="9.5,-174.5 9.5,-195.5 360.5,-195.5 360.5,-174.5 9.5,-174.5"/>
<text text-anchor="middle" x="185" y="-182.5" font-family="Helvetica,sans-Serif" font-size="10.00">/home/aoi/Documents/FxOS/B2G/gaia/xulrunner&#45;sdk/idl/nsIRDFContainer.idl</text>
</a>
</g>
<!-- Node1&#45;&gt;Node15 -->
<g id="edge64" class="edge"><title>Node1&#45;&gt;Node15</title>
<path fill="none" stroke="midnightblue" d="M1880.64,-463.708C1672.09,-447.407 1344,-413.157 1344,-359 1344,-359 1344,-359 1344,-301 1344,-275.691 634.833,-218.999 325.957,-195.507"/>
<polygon fill="midnightblue" stroke="midnightblue" points="1880.54,-467.211 1890.78,-464.494 1881.08,-460.232 1880.54,-467.211"/>
</g>
<!-- Node21 -->
<g id="node44" class="node"><title>Node21</title>
<a xlink:href="../../d2/dff/ns_i_interface_info_manager_8idl.html" target="_top" xlink:title="/home/aoi/Documents/FxOS/B2G/gaia/xulrunner&#45;sdk/idl/nsIInterfaceInfoManager.idl">
<polygon fill="white" stroke="black" points="1932,-348.5 1932,-369.5 2312,-369.5 2312,-348.5 1932,-348.5"/>
<text text-anchor="middle" x="2122" y="-356.5" font-family="Helvetica,sans-Serif" font-size="10.00">/home/aoi/Documents/FxOS/B2G/gaia/xulrunner&#45;sdk/idl/nsIInterfaceInfoManager.idl</text>
</a>
</g>
<!-- Node1&#45;&gt;Node21 -->
<g id="edge56" class="edge"><title>Node1&#45;&gt;Node21</title>
<path fill="none" stroke="midnightblue" d="M2008.11,-460.593C1979.18,-448.081 1948.27,-428.47 1965,-406 1976.81,-390.139 2022.08,-377.646 2060.99,-369.539"/>
<polygon fill="midnightblue" stroke="midnightblue" points="2006.79,-463.835 2017.37,-464.401 2009.46,-457.361 2006.79,-463.835"/>
</g>
<!-- Node24 -->
<g id="node50" class="node"><title>Node24</title>
<a xlink:href="../../dc/d56/ns_i_cookie_manager_8idl.html" target="_top" xlink:title="/home/aoi/Documents/FxOS/B2G/gaia/xulrunner&#45;sdk/idl/nsICookieManager.idl">
<polygon fill="white" stroke="black" points="1974,-406.5 1974,-427.5 2330,-427.5 2330,-406.5 1974,-406.5"/>
<text text-anchor="middle" x="2152" y="-414.5" font-family="Helvetica,sans-Serif" font-size="10.00">/home/aoi/Documents/FxOS/B2G/gaia/xulrunner&#45;sdk/idl/nsICookieManager.idl</text>
</a>
</g>
<!-- Node1&#45;&gt;Node24 -->
<g id="edge52" class="edge"><title>Node1&#45;&gt;Node24</title>
<path fill="none" stroke="midnightblue" d="M2076.74,-459.379C2094.64,-449.301 2117.44,-436.462 2133.23,-427.571"/>
<polygon fill="midnightblue" stroke="midnightblue" points="2074.89,-456.405 2067.89,-464.362 2078.32,-462.505 2074.89,-456.405"/>
</g>
<!-- Node26 -->
<g id="node55" class="node"><title>Node26</title>
<a xlink:href="../../d8/d7b/ns_i_permission_manager_8idl.html" target="_top" xlink:title="/home/aoi/Documents/FxOS/B2G/gaia/xulrunner&#45;sdk/idl/nsIPermissionManager.idl">
<polygon fill="white" stroke="black" points="2348,-406.5 2348,-427.5 2722,-427.5 2722,-406.5 2348,-406.5"/>
<text text-anchor="middle" x="2535" y="-414.5" font-family="Helvetica,sans-Serif" font-size="10.00">/home/aoi/Documents/FxOS/B2G/gaia/xulrunner&#45;sdk/idl/nsIPermissionManager.idl</text>
</a>
</g>
<!-- Node1&#45;&gt;Node26 -->
<g id="edge58" class="edge"><title>Node1&#45;&gt;Node26</title>
<path fill="none" stroke="midnightblue" d="M2146.97,-463.308C2234.71,-452.837 2362.22,-437.62 2446.82,-427.523"/>
<polygon fill="midnightblue" stroke="midnightblue" points="2146.53,-459.836 2137.01,-464.497 2147.36,-466.787 2146.53,-459.836"/>
</g>
<!-- Node27 -->
<g id="node57" class="node"><title>Node27</title>
<a xlink:href="../../d1/dd0/ns_i_persistent_properties2_8idl.html" target="_top" xlink:title="/home/aoi/Documents/FxOS/B2G/gaia/xulrunner&#45;sdk/idl/nsIPersistentProperties2.idl">
<polygon fill="white" stroke="black" points="2740,-406.5 2740,-427.5 3122,-427.5 3122,-406.5 2740,-406.5"/>
<text text-anchor="middle" x="2931" y="-414.5" font-family="Helvetica,sans-Serif" font-size="10.00">/home/aoi/Documents/FxOS/B2G/gaia/xulrunner&#45;sdk/idl/nsIPersistentProperties2.idl</text>
</a>
</g>
<!-- Node1&#45;&gt;Node27 -->
<g id="edge60" class="edge"><title>Node1&#45;&gt;Node27</title>
<path fill="none" stroke="midnightblue" d="M2219.11,-463.814C2378.5,-453.332 2614.95,-437.784 2770.98,-427.523"/>
<polygon fill="midnightblue" stroke="midnightblue" points="2218.47,-460.348 2208.72,-464.497 2218.93,-467.333 2218.47,-460.348"/>
</g>
<!-- Node28 -->
<g id="node61" class="node"><title>Node28</title>
<a xlink:href="../../d6/db1/ns_i_string_bundle_8idl.html" target="_top" xlink:title="/home/aoi/Documents/FxOS/B2G/gaia/xulrunner&#45;sdk/idl/nsIStringBundle.idl">
<polygon fill="white" stroke="black" points="3140,-406.5 3140,-427.5 3484,-427.5 3484,-406.5 3140,-406.5"/>
<text text-anchor="middle" x="3312" y="-414.5" font-family="Helvetica,sans-Serif" font-size="10.00">/home/aoi/Documents/FxOS/B2G/gaia/xulrunner&#45;sdk/idl/nsIStringBundle.idl</text>
</a>
</g>
<!-- Node1&#45;&gt;Node28 -->
<g id="edge66" class="edge"><title>Node1&#45;&gt;Node28</title>
<path fill="none" stroke="midnightblue" d="M2243.52,-467.564C2460.15,-459.046 2820.71,-444.167 3131,-428 3133.99,-427.844 3137,-427.685 3140.04,-427.523"/>
<polygon fill="midnightblue" stroke="midnightblue" points="2243.17,-464.075 2233.32,-467.965 2243.45,-471.069 2243.17,-464.075"/>
</g>
<!-- Node29 -->
<g id="node63" class="node"><title>Node29</title>
<a xlink:href="../../d7/d37/ns_i_window_mediator_8idl.html" target="_top" xlink:title="/home/aoi/Documents/FxOS/B2G/gaia/xulrunner&#45;sdk/idl/nsIWindowMediator.idl">
<polygon fill="white" stroke="black" points="3501.5,-406.5 3501.5,-427.5 3862.5,-427.5 3862.5,-406.5 3501.5,-406.5"/>
<text text-anchor="middle" x="3682" y="-414.5" font-family="Helvetica,sans-Serif" font-size="10.00">/home/aoi/Documents/FxOS/B2G/gaia/xulrunner&#45;sdk/idl/nsIWindowMediator.idl</text>
</a>
</g>
<!-- Node1&#45;&gt;Node29 -->
<g id="edge68" class="edge"><title>Node1&#45;&gt;Node29</title>
<path fill="none" stroke="midnightblue" d="M2243.29,-470.255C2520.62,-463.123 3045.93,-448.282 3493,-428 3496.53,-427.84 3500.1,-427.674 3503.69,-427.503"/>
<polygon fill="midnightblue" stroke="midnightblue" points="2243.03,-466.76 2233.12,-470.516 2243.21,-473.758 2243.03,-466.76"/>
</g>
<!-- Node4 -->
<g id="node7" class="node"><title>Node4</title>
<a xlink:href="../../d2/d64/ns_i_collection_8idl.html" target="_top" xlink:title="/home/aoi/Documents/FxOS/B2G/gaia/xulrunner&#45;sdk/idl/nsICollection.idl">
<polygon fill="white" stroke="black" points="1582,-348.5 1582,-369.5 1914,-369.5 1914,-348.5 1582,-348.5"/>
<text text-anchor="middle" x="1748" y="-356.5" font-family="Helvetica,sans-Serif" font-size="10.00">/home/aoi/Documents/FxOS/B2G/gaia/xulrunner&#45;sdk/idl/nsICollection.idl</text>
</a>
</g>
<!-- Node3&#45;&gt;Node4 -->
<g id="edge6" class="edge"><title>Node3&#45;&gt;Node4</title>
<path fill="none" stroke="midnightblue" d="M1748.64,-396.191C1748.49,-387.168 1748.31,-376.994 1748.18,-369.571"/>
<polygon fill="midnightblue" stroke="midnightblue" points="1745.14,-396.424 1748.82,-406.362 1752.14,-396.303 1745.14,-396.424"/>
</g>
<!-- Node3&#45;&gt;Node21 -->
<g id="edge46" class="edge"><title>Node3&#45;&gt;Node21</title>
<path fill="none" stroke="midnightblue" d="M1826.67,-404.923C1893.91,-394.468 1990.18,-379.497 2054.33,-369.523"/>
<polygon fill="midnightblue" stroke="midnightblue" points="1825.89,-401.502 1816.55,-406.497 1826.97,-408.418 1825.89,-401.502"/>
</g>
<!-- Node5 -->
<g id="node9" class="node"><title>Node5</title>
<a xlink:href="../../dc/d91/ns_i_supports_array_8idl.html" target="_top" xlink:title="/home/aoi/Documents/FxOS/B2G/gaia/xulrunner&#45;sdk/idl/nsISupportsArray.idl">
<polygon fill="white" stroke="black" points="2108,-290.5 2108,-311.5 2458,-311.5 2458,-290.5 2108,-290.5"/>
<text text-anchor="middle" x="2283" y="-298.5" font-family="Helvetica,sans-Serif" font-size="10.00">/home/aoi/Documents/FxOS/B2G/gaia/xulrunner&#45;sdk/idl/nsISupportsArray.idl</text>
</a>
</g>
<!-- Node4&#45;&gt;Node5 -->
<g id="edge8" class="edge"><title>Node4&#45;&gt;Node5</title>
<path fill="none" stroke="midnightblue" d="M1854.97,-347.403C1951.58,-336.93 2092.52,-321.65 2185.93,-311.523"/>
<polygon fill="midnightblue" stroke="midnightblue" points="1854.45,-343.939 1844.88,-348.497 1855.2,-350.898 1854.45,-343.939"/>
</g>
<!-- Node6 -->
<g id="node11" class="node"><title>Node6</title>
<a xlink:href="../../df/d84/ns_i_transferable_8idl.html" target="_top" xlink:title="/home/aoi/Documents/FxOS/B2G/gaia/xulrunner&#45;sdk/idl/nsITransferable.idl">
<polygon fill="white" stroke="black" points="2326,-174.5 2326,-195.5 2668,-195.5 2668,-174.5 2326,-174.5"/>
<text text-anchor="middle" x="2497" y="-182.5" font-family="Helvetica,sans-Serif" font-size="10.00">/home/aoi/Documents/FxOS/B2G/gaia/xulrunner&#45;sdk/idl/nsITransferable.idl</text>
</a>
</g>
<!-- Node5&#45;&gt;Node6 -->
<g id="edge10" class="edge"><title>Node5&#45;&gt;Node6</title>
<path fill="none" stroke="midnightblue" d="M2283.32,-280.351C2284.69,-264.96 2289.07,-244.519 2302,-232 2318.95,-215.588 2372.59,-203.382 2419.33,-195.528"/>
<polygon fill="midnightblue" stroke="midnightblue" points="2279.82,-280.308 2282.78,-290.48 2286.81,-280.682 2279.82,-280.308"/>
</g>
<!-- Node11 -->
<g id="node22" class="node"><title>Node11</title>
<a xlink:href="../../d3/d13/ns_i_drag_service_8idl.html" target="_top" xlink:title="/home/aoi/Documents/FxOS/B2G/gaia/xulrunner&#45;sdk/idl/nsIDragService.idl">
<polygon fill="white" stroke="black" points="2420,-58.5 2420,-79.5 2762,-79.5 2762,-58.5 2420,-58.5"/>
<text text-anchor="middle" x="2591" y="-66.5" font-family="Helvetica,sans-Serif" font-size="10.00">/home/aoi/Documents/FxOS/B2G/gaia/xulrunner&#45;sdk/idl/nsIDragService.idl</text>
</a>
</g>
<!-- Node5&#45;&gt;Node11 -->
<g id="edge28" class="edge"><title>Node5&#45;&gt;Node11</title>
<path fill="none" stroke="midnightblue" d="M2468.16,-290.263C2565.18,-282.692 2667,-270.867 2682,-254 2722.75,-208.164 2713.9,-168.383 2682,-116 2671.09,-98.0798 2650.9,-86.694 2632.31,-79.6261"/>
<polygon fill="midnightblue" stroke="midnightblue" points="2467.89,-286.773 2458.18,-291.028 2468.42,-293.753 2467.89,-286.773"/>
</g>
<!-- Node12 -->
<g id="node24" class="node"><title>Node12</title>
<a xlink:href="../../d3/d9d/ns_i_format_converter_8idl.html" target="_top" xlink:title="/home/aoi/Documents/FxOS/B2G/gaia/xulrunner&#45;sdk/idl/nsIFormatConverter.idl">
<polygon fill="white" stroke="black" points="2311,-232.5 2311,-253.5 2673,-253.5 2673,-232.5 2311,-232.5"/>
<text text-anchor="middle" x="2492" y="-240.5" font-family="Helvetica,sans-Serif" font-size="10.00">/home/aoi/Documents/FxOS/B2G/gaia/xulrunner&#45;sdk/idl/nsIFormatConverter.idl</text>
</a>
</g>
<!-- Node5&#45;&gt;Node12 -->
<g id="edge24" class="edge"><title>Node5&#45;&gt;Node12</title>
<path fill="none" stroke="midnightblue" d="M2330.52,-287.812C2367.94,-277.428 2419.4,-263.149 2454.08,-253.523"/>
<polygon fill="midnightblue" stroke="midnightblue" points="2329.55,-284.45 2320.85,-290.497 2331.42,-291.195 2329.55,-284.45"/>
</g>
<!-- Node5&#45;&gt;Node13 -->
<g id="edge30" class="edge"><title>Node5&#45;&gt;Node13</title>
<path fill="none" stroke="midnightblue" d="M2140.43,-289.688C2008.35,-279.208 1813.43,-263.743 1684.63,-253.523"/>
<polygon fill="midnightblue" stroke="midnightblue" points="2140.38,-293.195 2150.62,-290.497 2140.93,-286.217 2140.38,-293.195"/>
</g>
<!-- Node7 -->
<g id="node13" class="node"><title>Node7</title>
<a xlink:href="../../dc/df6/ns_i_clipboard_8idl.html" target="_top" xlink:title="/home/aoi/Documents/FxOS/B2G/gaia/xulrunner&#45;sdk/idl/nsIClipboard.idl">
<polygon fill="white" stroke="black" points="2046.5,-58.5 2046.5,-79.5 2375.5,-79.5 2375.5,-58.5 2046.5,-58.5"/>
<text text-anchor="middle" x="2211" y="-66.5" font-family="Helvetica,sans-Serif" font-size="10.00">/home/aoi/Documents/FxOS/B2G/gaia/xulrunner&#45;sdk/idl/nsIClipboard.idl</text>
</a>
</g>
<!-- Node6&#45;&gt;Node7 -->
<g id="edge12" class="edge"><title>Node6&#45;&gt;Node7</title>
<path fill="none" stroke="midnightblue" d="M2429.93,-172.261C2396.13,-164.585 2355,-153.294 2320,-138 2310.25,-133.74 2254.93,-97.7956 2227.06,-79.5446"/>
<polygon fill="midnightblue" stroke="midnightblue" points="2429.2,-175.682 2439.72,-174.429 2430.71,-168.848 2429.2,-175.682"/>
</g>
<!-- Node9 -->
<g id="node17" class="node"><title>Node9</title>
<a xlink:href="../../d2/d93/ns_i_clipboard_owner_8idl.html" target="_top" xlink:title="/home/aoi/Documents/FxOS/B2G/gaia/xulrunner&#45;sdk/idl/nsIClipboardOwner.idl">
<polygon fill="white" stroke="black" points="1915,-116.5 1915,-137.5 2273,-137.5 2273,-116.5 1915,-116.5"/>
<text text-anchor="middle" x="2094" y="-124.5" font-family="Helvetica,sans-Serif" font-size="10.00">/home/aoi/Documents/FxOS/B2G/gaia/xulrunner&#45;sdk/idl/nsIClipboardOwner.idl</text>
</a>
</g>
<!-- Node6&#45;&gt;Node9 -->
<g id="edge16" class="edge"><title>Node6&#45;&gt;Node9</title>
<path fill="none" stroke="midnightblue" d="M2413.98,-173.052C2341.29,-162.591 2236.7,-147.538 2167.12,-137.523"/>
<polygon fill="midnightblue" stroke="midnightblue" points="2413.62,-176.536 2424.02,-174.497 2414.62,-169.608 2413.62,-176.536"/>
</g>
<!-- Node10 -->
<g id="node20" class="node"><title>Node10</title>
<a xlink:href="../../d5/d2d/ns_i_drag_session_8idl.html" target="_top" xlink:title="/home/aoi/Documents/FxOS/B2G/gaia/xulrunner&#45;sdk/idl/nsIDragSession.idl">
<polygon fill="white" stroke="black" points="2329,-116.5 2329,-137.5 2673,-137.5 2673,-116.5 2329,-116.5"/>
<text text-anchor="middle" x="2501" y="-124.5" font-family="Helvetica,sans-Serif" font-size="10.00">/home/aoi/Documents/FxOS/B2G/gaia/xulrunner&#45;sdk/idl/nsIDragSession.idl</text>
</a>
</g>
<!-- Node6&#45;&gt;Node10 -->
<g id="edge20" class="edge"><title>Node6&#45;&gt;Node10</title>
<path fill="none" stroke="midnightblue" d="M2498.44,-164.191C2499.06,-155.168 2499.76,-144.994 2500.27,-137.571"/>
<polygon fill="midnightblue" stroke="midnightblue" points="2494.93,-164.145 2497.73,-174.362 2501.91,-164.626 2494.93,-164.145"/>
</g>
<!-- Node8 -->
<g id="node15" class="node"><title>Node8</title>
<a xlink:href="../../d4/d0d/ns_i_clipboard_helper_8idl.html" target="_top" xlink:title="/home/aoi/Documents/FxOS/B2G/gaia/xulrunner&#45;sdk/idl/nsIClipboardHelper.idl">
<polygon fill="white" stroke="black" points="2032,-0.5 2032,-21.5 2390,-21.5 2390,-0.5 2032,-0.5"/>
<text text-anchor="middle" x="2211" y="-8.5" font-family="Helvetica,sans-Serif" font-size="10.00">/home/aoi/Documents/FxOS/B2G/gaia/xulrunner&#45;sdk/idl/nsIClipboardHelper.idl</text>
</a>
</g>
<!-- Node7&#45;&gt;Node8 -->
<g id="edge14" class="edge"><title>Node7&#45;&gt;Node8</title>
<path fill="none" stroke="midnightblue" d="M2211,-48.1906C2211,-39.1684 2211,-28.9941 2211,-21.5707"/>
<polygon fill="midnightblue" stroke="midnightblue" points="2207.5,-48.3619 2211,-58.3619 2214.5,-48.3619 2207.5,-48.3619"/>
</g>
<!-- Node9&#45;&gt;Node7 -->
<g id="edge18" class="edge"><title>Node9&#45;&gt;Node7</title>
<path fill="none" stroke="midnightblue" d="M2124.4,-111.932C2144.85,-101.793 2171.31,-88.6748 2189.57,-79.6212"/>
<polygon fill="midnightblue" stroke="midnightblue" points="2122.59,-108.919 2115.19,-116.497 2125.7,-115.191 2122.59,-108.919"/>
</g>
<!-- Node10&#45;&gt;Node11 -->
<g id="edge22" class="edge"><title>Node10&#45;&gt;Node11</title>
<path fill="none" stroke="midnightblue" d="M2526.1,-110.821C2541.61,-100.831 2561.05,-88.2993 2574.6,-79.5707"/>
<polygon fill="midnightblue" stroke="midnightblue" points="2524.02,-108.003 2517.51,-116.362 2527.81,-113.887 2524.02,-108.003"/>
</g>
<!-- Node12&#45;&gt;Node6 -->
<g id="edge26" class="edge"><title>Node12&#45;&gt;Node6</title>
<path fill="none" stroke="midnightblue" d="M2493.79,-222.191C2494.57,-213.168 2495.45,-202.994 2496.09,-195.571"/>
<polygon fill="midnightblue" stroke="midnightblue" points="2490.29,-222.098 2492.92,-232.362 2497.26,-222.699 2490.29,-222.098"/>
</g>
<!-- Node14 -->
<g id="node30" class="node"><title>Node14</title>
<a xlink:href="../../d9/db0/ns_i_r_d_f_composite_data_source_8idl.html" target="_top" xlink:title="/home/aoi/Documents/FxOS/B2G/gaia/xulrunner&#45;sdk/idl/nsIRDFCompositeDataSource.idl">
<polygon fill="white" stroke="black" points="1142,-174.5 1142,-195.5 1550,-195.5 1550,-174.5 1142,-174.5"/>
<text text-anchor="middle" x="1346" y="-182.5" font-family="Helvetica,sans-Serif" font-size="10.00">/home/aoi/Documents/FxOS/B2G/gaia/xulrunner&#45;sdk/idl/nsIRDFCompositeDataSource.idl</text>
</a>
</g>
<!-- Node13&#45;&gt;Node14 -->
<g id="edge32" class="edge"><title>Node13&#45;&gt;Node14</title>
<path fill="none" stroke="midnightblue" d="M1504.69,-229.68C1467.85,-219.307 1417.42,-205.108 1383.38,-195.523"/>
<polygon fill="midnightblue" stroke="midnightblue" points="1504.12,-233.155 1514.69,-232.497 1506.02,-226.417 1504.12,-233.155"/>
</g>
<!-- Node13&#45;&gt;Node15 -->
<g id="edge34" class="edge"><title>Node13&#45;&gt;Node15</title>
<path fill="none" stroke="midnightblue" d="M1361.3,-232.154C1360.19,-232.102 1359.1,-232.051 1358,-232 918.629,-211.549 808.339,-217.126 369,-196 365.644,-195.839 362.253,-195.672 358.837,-195.501"/>
<polygon fill="midnightblue" stroke="midnightblue" points="1361.14,-235.651 1371.29,-232.633 1361.47,-228.659 1361.14,-235.651"/>
</g>
<!-- Node17 -->
<g id="node36" class="node"><title>Node17</title>
<a xlink:href="../../d7/d86/ns_i_r_d_f_infer_data_source_8idl.html" target="_top" xlink:title="/home/aoi/Documents/FxOS/B2G/gaia/xulrunner&#45;sdk/idl/nsIRDFInferDataSource.idl">
<polygon fill="white" stroke="black" points="1568,-174.5 1568,-195.5 1948,-195.5 1948,-174.5 1568,-174.5"/>
<text text-anchor="middle" x="1758" y="-182.5" font-family="Helvetica,sans-Serif" font-size="10.00">/home/aoi/Documents/FxOS/B2G/gaia/xulrunner&#45;sdk/idl/nsIRDFInferDataSource.idl</text>
</a>
</g>
<!-- Node13&#45;&gt;Node17 -->
<g id="edge38" class="edge"><title>Node13&#45;&gt;Node17</title>
<path fill="none" stroke="midnightblue" d="M1599.31,-229.68C1636.15,-219.307 1686.58,-205.108 1720.62,-195.523"/>
<polygon fill="midnightblue" stroke="midnightblue" points="1597.98,-226.417 1589.31,-232.497 1599.88,-233.155 1597.98,-226.417"/>
</g>
<!-- Node18 -->
<g id="node38" class="node"><title>Node18</title>
<a xlink:href="../../d1/de5/ns_i_r_d_f_service_8idl.html" target="_top" xlink:title="/home/aoi/Documents/FxOS/B2G/gaia/xulrunner&#45;sdk/idl/nsIRDFService.idl">
<polygon fill="white" stroke="black" points="1966,-174.5 1966,-195.5 2308,-195.5 2308,-174.5 1966,-174.5"/>
<text text-anchor="middle" x="2137" y="-182.5" font-family="Helvetica,sans-Serif" font-size="10.00">/home/aoi/Documents/FxOS/B2G/gaia/xulrunner&#45;sdk/idl/nsIRDFService.idl</text>
</a>
</g>
<!-- Node13&#45;&gt;Node18 -->
<g id="edge40" class="edge"><title>Node13&#45;&gt;Node18</title>
<path fill="none" stroke="midnightblue" d="M1668.01,-231.498C1773.67,-221.023 1928.41,-205.681 2030.86,-195.523"/>
<polygon fill="midnightblue" stroke="midnightblue" points="1667.54,-228.027 1657.94,-232.497 1668.24,-234.993 1667.54,-228.027"/>
</g>
<!-- Node19 -->
<g id="node40" class="node"><title>Node19</title>
<a xlink:href="../../d1/d86/ns_i_r_d_f_x_m_l_parser_8idl.html" target="_top" xlink:title="/home/aoi/Documents/FxOS/B2G/gaia/xulrunner&#45;sdk/idl/nsIRDFXMLParser.idl">
<polygon fill="white" stroke="black" points="378,-174.5 378,-195.5 736,-195.5 736,-174.5 378,-174.5"/>
<text text-anchor="middle" x="557" y="-182.5" font-family="Helvetica,sans-Serif" font-size="10.00">/home/aoi/Documents/FxOS/B2G/gaia/xulrunner&#45;sdk/idl/nsIRDFXMLParser.idl</text>
</a>
</g>
<!-- Node13&#45;&gt;Node19 -->
<g id="edge42" class="edge"><title>Node13&#45;&gt;Node19</title>
<path fill="none" stroke="midnightblue" d="M1361.14,-231.899C1197.62,-222.384 955.819,-208.307 745,-196 742.062,-195.829 739.099,-195.656 736.115,-195.481"/>
<polygon fill="midnightblue" stroke="midnightblue" points="1361.12,-235.404 1371.31,-232.491 1361.53,-228.416 1361.12,-235.404"/>
</g>
<!-- Node20 -->
<g id="node42" class="node"><title>Node20</title>
<a xlink:href="../../d2/da6/ns_i_r_d_f_x_m_l_serializer_8idl.html" target="_top" xlink:title="/home/aoi/Documents/FxOS/B2G/gaia/xulrunner&#45;sdk/idl/nsIRDFXMLSerializer.idl">
<polygon fill="white" stroke="black" points="754,-174.5 754,-195.5 1124,-195.5 1124,-174.5 754,-174.5"/>
<text text-anchor="middle" x="939" y="-182.5" font-family="Helvetica,sans-Serif" font-size="10.00">/home/aoi/Documents/FxOS/B2G/gaia/xulrunner&#45;sdk/idl/nsIRDFXMLSerializer.idl</text>
</a>
</g>
<!-- Node13&#45;&gt;Node20 -->
<g id="edge44" class="edge"><title>Node13&#45;&gt;Node20</title>
<path fill="none" stroke="midnightblue" d="M1430.77,-231.53C1320.05,-221.054 1157.69,-205.691 1050.22,-195.523"/>
<polygon fill="midnightblue" stroke="midnightblue" points="1430.71,-235.039 1440.99,-232.497 1431.36,-228.07 1430.71,-235.039"/>
</g>
<!-- Node16 -->
<g id="node34" class="node"><title>Node16</title>
<a xlink:href="../../d9/d44/ns_i_r_d_f_container_utils_8idl.html" target="_top" xlink:title="/home/aoi/Documents/FxOS/B2G/gaia/xulrunner&#45;sdk/idl/nsIRDFContainerUtils.idl">
<polygon fill="white" stroke="black" points="-0.5,-116.5 -0.5,-137.5 370.5,-137.5 370.5,-116.5 -0.5,-116.5"/>
<text text-anchor="middle" x="185" y="-124.5" font-family="Helvetica,sans-Serif" font-size="10.00">/home/aoi/Documents/FxOS/B2G/gaia/xulrunner&#45;sdk/idl/nsIRDFContainerUtils.idl</text>
</a>
</g>
<!-- Node15&#45;&gt;Node16 -->
<g id="edge36" class="edge"><title>Node15&#45;&gt;Node16</title>
<path fill="none" stroke="midnightblue" d="M185,-164.191C185,-155.168 185,-144.994 185,-137.571"/>
<polygon fill="midnightblue" stroke="midnightblue" points="181.5,-164.362 185,-174.362 188.5,-164.362 181.5,-164.362"/>
</g>
<!-- Node22 -->
<g id="node46" class="node"><title>Node22</title>
<a xlink:href="../../d9/d61/ns_i_x_p_connect_8idl.html" target="_top" xlink:title="/home/aoi/Documents/FxOS/B2G/gaia/xulrunner&#45;sdk/idl/nsIXPConnect.idl">
<polygon fill="white" stroke="black" points="2606,-290.5 2606,-311.5 2944,-311.5 2944,-290.5 2606,-290.5"/>
<text text-anchor="middle" x="2775" y="-298.5" font-family="Helvetica,sans-Serif" font-size="10.00">/home/aoi/Documents/FxOS/B2G/gaia/xulrunner&#45;sdk/idl/nsIXPConnect.idl</text>
</a>
</g>
<!-- Node21&#45;&gt;Node22 -->
<g id="edge48" class="edge"><title>Node21&#45;&gt;Node22</title>
<path fill="none" stroke="midnightblue" d="M2250.42,-347.593C2368.39,-337.115 2541.81,-321.712 2656.52,-311.523"/>
<polygon fill="midnightblue" stroke="midnightblue" points="2249.9,-344.126 2240.25,-348.497 2250.52,-351.098 2249.9,-344.126"/>
</g>
<!-- Node23 -->
<g id="node48" class="node"><title>Node23</title>
<a xlink:href="../../da/d0a/ns_i_x_p_c_scriptable_8idl.html" target="_top" xlink:title="/home/aoi/Documents/FxOS/B2G/gaia/xulrunner&#45;sdk/idl/nsIXPCScriptable.idl">
<polygon fill="white" stroke="black" points="2728.5,-232.5 2728.5,-253.5 3081.5,-253.5 3081.5,-232.5 2728.5,-232.5"/>
<text text-anchor="middle" x="2905" y="-240.5" font-family="Helvetica,sans-Serif" font-size="10.00">/home/aoi/Documents/FxOS/B2G/gaia/xulrunner&#45;sdk/idl/nsIXPCScriptable.idl</text>
</a>
</g>
<!-- Node22&#45;&gt;Node23 -->
<g id="edge50" class="edge"><title>Node22&#45;&gt;Node23</title>
<path fill="none" stroke="midnightblue" d="M2807.85,-286.343C2830.7,-276.15 2860.63,-262.798 2881.19,-253.621"/>
<polygon fill="midnightblue" stroke="midnightblue" points="2806.25,-283.226 2798.54,-290.497 2809.1,-289.618 2806.25,-283.226"/>
</g>
<!-- Node25 -->
<g id="node52" class="node"><title>Node25</title>
<a xlink:href="../../d1/dce/ns_i_cookie_manager2_8idl.html" target="_top" xlink:title="/home/aoi/Documents/FxOS/B2G/gaia/xulrunner&#45;sdk/idl/nsICookieManager2.idl">
<polygon fill="white" stroke="black" points="2330,-348.5 2330,-369.5 2692,-369.5 2692,-348.5 2330,-348.5"/>
<text text-anchor="middle" x="2511" y="-356.5" font-family="Helvetica,sans-Serif" font-size="10.00">/home/aoi/Documents/FxOS/B2G/gaia/xulrunner&#45;sdk/idl/nsICookieManager2.idl</text>
</a>
</g>
<!-- Node24&#45;&gt;Node25 -->
<g id="edge54" class="edge"><title>Node24&#45;&gt;Node25</title>
<path fill="none" stroke="midnightblue" d="M2227.15,-404.859C2291.85,-394.406 2384.26,-379.476 2445.87,-369.523"/>
<polygon fill="midnightblue" stroke="midnightblue" points="2226.33,-401.446 2217.01,-406.497 2227.44,-408.357 2226.33,-401.446"/>
</g>
</g>
</svg>
        <g id="navigator" transform="translate(0 0)" fill="#404254">
                <rect fill="#f2f5e9" fill-opacity="0.5" stroke="#606060" stroke-width=".5" x="0" y="0" width="60" height="60"/>
                <use id="zoomplus" xlink:href="#zoomPlus" x="17" y="9" onmousedown="handleZoom(evt,'in')"/>
                <use id="zoomminus" xlink:href="#zoomMin" x="42" y="9" onmousedown="handleZoom(evt,'out')"/>
                <use id="reset" xlink:href="#resetDef" x="30" y="36" onmousedown="handleReset()"/>
                <g id="arrowUp" xlink:href="#dirArrow" transform="translate(30 24)" onmousedown="handlePan(0,-1)">
                  <use xlink:href="#rim" fill="#404040">
                        <set attributeName="fill" to="#808080" begin="arrowUp.mouseover" end="arrowUp.mouseout"/>
                  </use>
                  <path fill="none" stroke="white" stroke-width="1.5" d="M0,-3.0v7 M-2.5,-0.5L0,-3.0L2.5,-0.5"/>
                </g>
                <g id="arrowRight" xlink:href="#dirArrow" transform="rotate(90) translate(36 -43)" onmousedown="handlePan(1,0)">
                  <use xlink:href="#rim" fill="#404040">
                        <set attributeName="fill" to="#808080" begin="arrowRight.mouseover" end="arrowRight.mouseout"/>
                  </use>
                  <path fill="none" stroke="white" stroke-width="1.5" d="M0,-3.0v7 M-2.5,-0.5L0,-3.0L2.5,-0.5"/>
                </g>
                <g id="arrowDown" xlink:href="#dirArrow" transform="rotate(180) translate(-30 -48)" onmousedown="handlePan(0,1)">
                  <use xlink:href="#rim" fill="#404040">
                        <set attributeName="fill" to="#808080" begin="arrowDown.mouseover" end="arrowDown.mouseout"/>
                  </use>
                  <path fill="none" stroke="white" stroke-width="1.5" d="M0,-3.0v7 M-2.5,-0.5L0,-3.0L2.5,-0.5"/>
                </g>
                <g id="arrowLeft" xlink:href="#dirArrow" transform="rotate(270) translate(-36 17)" onmousedown="handlePan(-1,0)">
                  <use xlink:href="#rim" fill="#404040">
                        <set attributeName="fill" to="#808080" begin="arrowLeft.mouseover" end="arrowLeft.mouseout"/>
                  </use>
                  <path fill="none" stroke="white" stroke-width="1.5" d="M0,-3.0v7 M-2.5,-0.5L0,-3.0L2.5,-0.5"/>
                </g>
        </g>
</svg>
