<?xml version="1.0" encoding="UTF-8" standalone="no"?>
<!DOCTYPE svg PUBLIC "-//W3C//DTD SVG 1.1//EN"
 "http://www.w3.org/Graphics/SVG/1.1/DTD/svg11.dtd">
<!-- Generated by graphviz version 2.26.3 (20100126.1600)
 -->
<!-- Title: G Pages: 1 -->
<!--zoomable 370 -->
<svg id="main" version="1.1" xmlns="http://www.w3.org/2000/svg" xmlns:xlink="http://www.w3.org/1999/xlink" xml:space="preserve" onload="init(evt)">
        <defs>
                <circle id="rim" cx="0" cy="0" r="7"/>
                <circle id="rim2" cx="0" cy="0" r="3.5"/>
                <g id="zoomPlus">
                        <use xlink:href="#rim" fill="#404040">
                                <set attributeName="fill" to="#808080" begin="zoomplus.mouseover" end="zoomplus.mouseout"/>
                        </use>
                        <path d="M-4,0h8M0,-4v8" fill="none" stroke="white" stroke-width="1.5" pointer-events="none"/>
                </g>
                <g id="zoomMin">
                        <use xlink:href="#rim" fill="#404040">
                                <set attributeName="fill" to="#808080" begin="zoomminus.mouseover" end="zoomminus.mouseout"/>
                        </use>
                        <path d="M-4,0h8" fill="none" stroke="white" stroke-width="1.5" pointer-events="none"/>
                </g>
                <g id="dirArrow">
                        <path fill="none" stroke="white" stroke-width="1.5" d="M0,-3.0v7 M-2.5,-0.5L0,-3.0L2.5,-0.5"/>
                </g>
               <g id="resetDef">
                       <use xlink:href="#rim2" fill="#404040">
                               <set attributeName="fill" to="#808080" begin="reset.mouseover" end="reset.mouseout"/>
                       </use>
               </g>
        </defs>

<script type="text/javascript">
var viewWidth = 996;
var viewHeight = 370;
var sectionId = 'dynsection-3';
</script>
<script xlink:href="../../svgpan.js"/>
<svg id="graph" class="graph">
<g id="viewport">
<title>G</title>
<polygon fill="white" stroke="white" points="-4,5 -4,-366 993,-366 993,5 -4,5"/>
<!-- Node1 -->
<g id="node1" class="node"><title>Node1</title>
<polygon fill="#bfbfbf" stroke="black" points="0,-180.5 0,-201.5 372,-201.5 372,-180.5 0,-180.5"/>
<text text-anchor="middle" x="186" y="-188.5" font-family="Helvetica,sans-Serif" font-size="10.00">gaiatest.apps.cost_control.regions.ftu_step2.FTUStep2.select_reset_report_value</text>
</g>
<!-- Node2 -->
<g id="node3" class="node"><title>Node2</title>
<a xlink:href="../../d5/d70/classgaiatest_1_1apps_1_1settings_1_1regions_1_1language_1_1_language.html#a326f3996934a04849b7354598f7d9890" target="_top" xlink:title="gaiatest.apps.settings.regions.language.Language.select">
<polygon fill="white" stroke="black" points="410.5,-340.5 410.5,-361.5 673.5,-361.5 673.5,-340.5 410.5,-340.5"/>
<text text-anchor="middle" x="542" y="-348.5" font-family="Helvetica,sans-Serif" font-size="10.00">gaiatest.apps.settings.regions.language.Language.select</text>
</a>
</g>
<!-- Node1&#45;&gt;Node2 -->
<g id="edge2" class="edge"><title>Node1&#45;&gt;Node2</title>
<path fill="none" stroke="midnightblue" d="M198.495,-201.585C230.75,-228.274 320.428,-298.497 408,-331 415.287,-333.705 422.926,-336.045 430.705,-338.068"/>
<polygon fill="midnightblue" stroke="midnightblue" points="430.073,-341.516 440.616,-340.467 431.719,-334.713 430.073,-341.516"/>
</g>
<!-- Node5 -->
<g id="node9" class="node"><title>Node5</title>
<a xlink:href="../../d7/dba/interfacens_i_d_o_m_x_u_l_text_box_element.html#a220cc5bcbc072fcb94eaa9456559e991" target="_top" xlink:title="nsIDOMXULTextBoxElement::select">
<polygon fill="white" stroke="black" points="453,-300.5 453,-321.5 631,-321.5 631,-300.5 453,-300.5"/>
<text text-anchor="middle" x="542" y="-308.5" font-family="Helvetica,sans-Serif" font-size="10.00">nsIDOMXULTextBoxElement::select</text>
</a>
</g>
<!-- Node1&#45;&gt;Node5 -->
<g id="edge8" class="edge"><title>Node1&#45;&gt;Node5</title>
<path fill="none" stroke="midnightblue" d="M204.623,-201.529C241.95,-222.143 329.115,-267.829 408,-291 419.196,-294.289 431.085,-297.054 442.977,-299.375"/>
<polygon fill="midnightblue" stroke="midnightblue" points="442.483,-302.842 452.953,-301.222 443.757,-295.959 442.483,-302.842"/>
</g>
<!-- Node6 -->
<g id="node11" class="node"><title>Node6</title>
<a xlink:href="../../df/d99/interfacens_i_tree_selection.html#aa05766b815f068bbf3721b618708e824" target="_top" xlink:title="nsITreeSelection::select">
<polygon fill="white" stroke="black" points="481,-260.5 481,-281.5 603,-281.5 603,-260.5 481,-260.5"/>
<text text-anchor="middle" x="542" y="-268.5" font-family="Helvetica,sans-Serif" font-size="10.00">nsITreeSelection::select</text>
</a>
</g>
<!-- Node1&#45;&gt;Node6 -->
<g id="edge10" class="edge"><title>Node1&#45;&gt;Node6</title>
<path fill="none" stroke="midnightblue" d="M220.309,-201.602C263.674,-214.694 340.783,-236.95 408,-251 428.189,-255.22 450.268,-258.896 470.575,-261.905"/>
<polygon fill="midnightblue" stroke="midnightblue" points="470.299,-265.401 480.698,-263.372 471.303,-258.473 470.299,-265.401"/>
</g>
<!-- Node7 -->
<g id="node13" class="node"><title>Node7</title>
<a xlink:href="../../dd/dc3/interfacens_i_d_o_m_h_t_m_l_text_area_element.html#a2595d1ace367193332a3557e25748aa9" target="_top" xlink:title="nsIDOMHTMLTextAreaElement::select">
<polygon fill="white" stroke="black" points="448,-220.5 448,-241.5 636,-241.5 636,-220.5 448,-220.5"/>
<text text-anchor="middle" x="542" y="-228.5" font-family="Helvetica,sans-Serif" font-size="10.00">nsIDOMHTMLTextAreaElement::select</text>
</a>
</g>
<!-- Node1&#45;&gt;Node7 -->
<g id="edge12" class="edge"><title>Node1&#45;&gt;Node7</title>
<path fill="none" stroke="midnightblue" d="M279.535,-201.51C328.296,-206.988 388.066,-213.704 438.245,-219.342"/>
<polygon fill="midnightblue" stroke="midnightblue" points="438.144,-222.853 448.472,-220.491 438.926,-215.897 438.144,-222.853"/>
</g>
<!-- Node8 -->
<g id="node15" class="node"><title>Node8</title>
<a xlink:href="../../d0/d5b/interfacens_i_d_o_m_h_t_m_l_input_element.html#aa13d882ba0b7246fcd8bbef27db197e4" target="_top" xlink:title="nsIDOMHTMLInputElement::select">
<polygon fill="white" stroke="black" points="457,-180.5 457,-201.5 627,-201.5 627,-180.5 457,-180.5"/>
<text text-anchor="middle" x="542" y="-188.5" font-family="Helvetica,sans-Serif" font-size="10.00">nsIDOMHTMLInputElement::select</text>
</a>
</g>
<!-- Node1&#45;&gt;Node8 -->
<g id="edge14" class="edge"><title>Node1&#45;&gt;Node8</title>
<path fill="none" stroke="midnightblue" d="M372.081,-191C397.9,-191 423.492,-191 446.679,-191"/>
<polygon fill="midnightblue" stroke="midnightblue" points="446.807,-194.5 456.807,-191 446.807,-187.5 446.807,-194.5"/>
</g>
<!-- Node9 -->
<g id="node17" class="node"><title>Node9</title>
<a xlink:href="../../d8/d2f/interfacens_i_prompt.html#abe470d6531194bc38870c22e8bf781fa" target="_top" xlink:title="nsIPrompt::select">
<polygon fill="white" stroke="black" points="495,-140.5 495,-161.5 589,-161.5 589,-140.5 495,-140.5"/>
<text text-anchor="middle" x="542" y="-148.5" font-family="Helvetica,sans-Serif" font-size="10.00">nsIPrompt::select</text>
</a>
</g>
<!-- Node1&#45;&gt;Node9 -->
<g id="edge16" class="edge"><title>Node1&#45;&gt;Node9</title>
<path fill="none" stroke="midnightblue" d="M279.535,-180.49C344.698,-173.169 429.522,-163.638 484.843,-157.422"/>
<polygon fill="midnightblue" stroke="midnightblue" points="485.271,-160.896 494.818,-156.301 484.49,-153.94 485.271,-160.896"/>
</g>
<!-- Node10 -->
<g id="node19" class="node"><title>Node10</title>
<a xlink:href="../../d9/deb/classgaiatest_1_1apps_1_1base_1_1_base.html#aa3674394589b7aa56351ae3f6e0ba8a1" target="_top" xlink:title="gaiatest.apps.base.Base.select">
<polygon fill="white" stroke="black" points="465,-100.5 465,-121.5 619,-121.5 619,-100.5 465,-100.5"/>
<text text-anchor="middle" x="542" y="-108.5" font-family="Helvetica,sans-Serif" font-size="10.00">gaiatest.apps.base.Base.select</text>
</a>
</g>
<!-- Node1&#45;&gt;Node10 -->
<g id="edge18" class="edge"><title>Node1&#45;&gt;Node10</title>
<path fill="none" stroke="midnightblue" d="M220.309,-180.398C263.674,-167.306 340.783,-145.05 408,-131 423.015,-127.861 439.076,-125.024 454.676,-122.538"/>
<polygon fill="midnightblue" stroke="midnightblue" points="455.502,-125.952 464.845,-120.955 454.425,-119.035 455.502,-125.952"/>
</g>
<!-- Node11 -->
<g id="node22" class="node"><title>Node11</title>
<a xlink:href="../../d5/dbc/interfacens_i_prompt_service.html#aa0bb2a2b9a345e313a8e81e26756e365" target="_top" xlink:title="nsIPromptService::select">
<polygon fill="white" stroke="black" points="478.5,-60.5 478.5,-81.5 605.5,-81.5 605.5,-60.5 478.5,-60.5"/>
<text text-anchor="middle" x="542" y="-68.5" font-family="Helvetica,sans-Serif" font-size="10.00">nsIPromptService::select</text>
</a>
</g>
<!-- Node1&#45;&gt;Node11 -->
<g id="edge22" class="edge"><title>Node1&#45;&gt;Node11</title>
<path fill="none" stroke="midnightblue" d="M204.623,-180.471C241.95,-159.857 329.115,-114.171 408,-91 427.122,-85.3833 448.265,-81.2936 467.997,-78.3355"/>
<polygon fill="midnightblue" stroke="midnightblue" points="468.761,-81.7622 478.169,-76.8897 467.776,-74.8319 468.761,-81.7622"/>
</g>
<!-- Node12 -->
<g id="node24" class="node"><title>Node12</title>
<a xlink:href="../../de/d19/classgaiatest_1_1apps_1_1cost__control_1_1app_1_1_cost_control.html#aec38c59a29125fed3597234fbcff472c" target="_top" xlink:title="gaiatest.apps.cost_control.app.CostControl.switch_to_ftu">
<polygon fill="white" stroke="black" points="408.5,-20.5 408.5,-41.5 675.5,-41.5 675.5,-20.5 408.5,-20.5"/>
<text text-anchor="middle" x="542" y="-28.5" font-family="Helvetica,sans-Serif" font-size="10.00">gaiatest.apps.cost_control.app.CostControl.switch_to_ftu</text>
</a>
</g>
<!-- Node1&#45;&gt;Node12 -->
<g id="edge24" class="edge"><title>Node1&#45;&gt;Node12</title>
<path fill="none" stroke="midnightblue" d="M198.495,-180.415C230.75,-153.726 320.428,-83.5032 408,-51 415.287,-48.2952 422.926,-45.9555 430.705,-43.9316"/>
<polygon fill="midnightblue" stroke="midnightblue" points="431.719,-47.2871 440.616,-41.5332 430.073,-40.4835 431.719,-47.2871"/>
</g>
<!-- Node3 -->
<g id="node5" class="node"><title>Node3</title>
<a xlink:href="../../d6/de4/classgaiatest_1_1gaia__test_1_1_gaia_test_case.html#a665ed7dc4e1131529b18157f28a01f8a" target="_top" xlink:title="gaiatest.gaia_test.GaiaTestCase.wait_for_condition">
<polygon fill="white" stroke="black" points="729,-340.5 729,-361.5 971,-361.5 971,-340.5 729,-340.5"/>
<text text-anchor="middle" x="850" y="-348.5" font-family="Helvetica,sans-Serif" font-size="10.00">gaiatest.gaia_test.GaiaTestCase.wait_for_condition</text>
</a>
</g>
<!-- Node2&#45;&gt;Node3 -->
<g id="edge4" class="edge"><title>Node2&#45;&gt;Node3</title>
<path fill="none" stroke="midnightblue" d="M673.513,-351C688.392,-351 703.557,-351 718.436,-351"/>
<polygon fill="midnightblue" stroke="midnightblue" points="718.685,-354.5 728.685,-351 718.685,-347.5 718.685,-354.5"/>
</g>
<!-- Node4 -->
<g id="node7" class="node"><title>Node4</title>
<a xlink:href="../../d9/deb/classgaiatest_1_1apps_1_1base_1_1_base.html#acd0689f975942b2bad45ef1bf321e0c5" target="_top" xlink:title="gaiatest.apps.base.Base.wait_for_condition">
<polygon fill="white" stroke="black" points="747,-200.5 747,-221.5 953,-221.5 953,-200.5 747,-200.5"/>
<text text-anchor="middle" x="850" y="-208.5" font-family="Helvetica,sans-Serif" font-size="10.00">gaiatest.apps.base.Base.wait_for_condition</text>
</a>
</g>
<!-- Node2&#45;&gt;Node4 -->
<g id="edge6" class="edge"><title>Node2&#45;&gt;Node4</title>
<path fill="none" stroke="midnightblue" d="M645.324,-340.472C655.864,-337.954 666.264,-334.843 676,-331 738.399,-306.369 800.41,-255.722 830.767,-228.776"/>
<polygon fill="midnightblue" stroke="midnightblue" points="833.375,-231.138 838.464,-221.846 828.691,-225.936 833.375,-231.138"/>
</g>
<!-- Node10&#45;&gt;Node4 -->
<g id="edge20" class="edge"><title>Node10&#45;&gt;Node4</title>
<path fill="none" stroke="midnightblue" d="M619.349,-118.743C638.117,-121.659 657.966,-125.627 676,-131 729.943,-147.071 788.632,-176.871 822.202,-195.214"/>
<polygon fill="midnightblue" stroke="midnightblue" points="820.934,-198.513 831.38,-200.287 824.321,-192.387 820.934,-198.513"/>
</g>
<!-- Node13 -->
<g id="node26" class="node"><title>Node13</title>
<a xlink:href="../../d9/deb/classgaiatest_1_1apps_1_1base_1_1_base.html#aa3f5f040dcce8f0459ec7bd776669753" target="_top" xlink:title="gaiatest.apps.base.Base.wait_for_element_present">
<polygon fill="white" stroke="black" points="730.5,-40.5 730.5,-61.5 969.5,-61.5 969.5,-40.5 730.5,-40.5"/>
<text text-anchor="middle" x="850" y="-48.5" font-family="Helvetica,sans-Serif" font-size="10.00">gaiatest.apps.base.Base.wait_for_element_present</text>
</a>
</g>
<!-- Node12&#45;&gt;Node13 -->
<g id="edge26" class="edge"><title>Node12&#45;&gt;Node13</title>
<path fill="none" stroke="midnightblue" d="M675.75,-39.685C690.523,-40.6443 705.549,-41.6201 720.272,-42.5761"/>
<polygon fill="midnightblue" stroke="midnightblue" points="720.204,-46.0789 730.409,-43.2344 720.657,-39.0937 720.204,-46.0789"/>
</g>
<!-- Node14 -->
<g id="node28" class="node"><title>Node14</title>
<a xlink:href="../../d6/de4/classgaiatest_1_1gaia__test_1_1_gaia_test_case.html#a9a8d473860e3a6857f763005df31717d" target="_top" xlink:title="gaiatest.gaia_test.GaiaTestCase.wait_for_element_present">
<polygon fill="white" stroke="black" points="712.5,-0.5 712.5,-21.5 987.5,-21.5 987.5,-0.5 712.5,-0.5"/>
<text text-anchor="middle" x="850" y="-8.5" font-family="Helvetica,sans-Serif" font-size="10.00">gaiatest.gaia_test.GaiaTestCase.wait_for_element_present</text>
</a>
</g>
<!-- Node12&#45;&gt;Node14 -->
<g id="edge28" class="edge"><title>Node12&#45;&gt;Node14</title>
<path fill="none" stroke="midnightblue" d="M675.75,-22.315C684.596,-21.7405 693.533,-21.1602 702.442,-20.5817"/>
<polygon fill="midnightblue" stroke="midnightblue" points="702.729,-24.0705 712.481,-19.9298 702.275,-17.0852 702.729,-24.0705"/>
</g>
</g>
</svg>
        <g id="navigator" transform="translate(0 0)" fill="#404254">
                <rect fill="#f2f5e9" fill-opacity="0.5" stroke="#606060" stroke-width=".5" x="0" y="0" width="60" height="60"/>
                <use id="zoomplus" xlink:href="#zoomPlus" x="17" y="9" onmousedown="handleZoom(evt,'in')"/>
                <use id="zoomminus" xlink:href="#zoomMin" x="42" y="9" onmousedown="handleZoom(evt,'out')"/>
                <use id="reset" xlink:href="#resetDef" x="30" y="36" onmousedown="handleReset()"/>
                <g id="arrowUp" xlink:href="#dirArrow" transform="translate(30 24)" onmousedown="handlePan(0,-1)">
                  <use xlink:href="#rim" fill="#404040">
                        <set attributeName="fill" to="#808080" begin="arrowUp.mouseover" end="arrowUp.mouseout"/>
                  </use>
                  <path fill="none" stroke="white" stroke-width="1.5" d="M0,-3.0v7 M-2.5,-0.5L0,-3.0L2.5,-0.5"/>
                </g>
                <g id="arrowRight" xlink:href="#dirArrow" transform="rotate(90) translate(36 -43)" onmousedown="handlePan(1,0)">
                  <use xlink:href="#rim" fill="#404040">
                        <set attributeName="fill" to="#808080" begin="arrowRight.mouseover" end="arrowRight.mouseout"/>
                  </use>
                  <path fill="none" stroke="white" stroke-width="1.5" d="M0,-3.0v7 M-2.5,-0.5L0,-3.0L2.5,-0.5"/>
                </g>
                <g id="arrowDown" xlink:href="#dirArrow" transform="rotate(180) translate(-30 -48)" onmousedown="handlePan(0,1)">
                  <use xlink:href="#rim" fill="#404040">
                        <set attributeName="fill" to="#808080" begin="arrowDown.mouseover" end="arrowDown.mouseout"/>
                  </use>
                  <path fill="none" stroke="white" stroke-width="1.5" d="M0,-3.0v7 M-2.5,-0.5L0,-3.0L2.5,-0.5"/>
                </g>
                <g id="arrowLeft" xlink:href="#dirArrow" transform="rotate(270) translate(-36 17)" onmousedown="handlePan(-1,0)">
                  <use xlink:href="#rim" fill="#404040">
                        <set attributeName="fill" to="#808080" begin="arrowLeft.mouseover" end="arrowLeft.mouseout"/>
                  </use>
                  <path fill="none" stroke="white" stroke-width="1.5" d="M0,-3.0v7 M-2.5,-0.5L0,-3.0L2.5,-0.5"/>
                </g>
        </g>
</svg>
