<?xml version="1.0" encoding="UTF-8" standalone="no"?>
<!DOCTYPE svg PUBLIC "-//W3C//DTD SVG 1.1//EN"
 "http://www.w3.org/Graphics/SVG/1.1/DTD/svg11.dtd">
<!-- Generated by graphviz version 2.26.3 (20100126.1600)
 -->
<!-- Title: G Pages: 1 -->
<svg width="360pt" height="110pt"
 viewBox="0.00 0.00 360.00 110.00" xmlns="http://www.w3.org/2000/svg" xmlns:xlink="http://www.w3.org/1999/xlink">
<g id="graph1" class="graph" transform="scale(1 1) rotate(0) translate(4 106)">
<title>G</title>
<polygon fill="white" stroke="white" points="-4,5 -4,-106 357,-106 357,5 -4,5"/>
<!-- Node1 -->
<g id="node1" class="node"><title>Node1</title>
<polygon fill="#bfbfbf" stroke="black" points="0,-40.5 0,-61.5 158,-61.5 158,-40.5 0,-40.5"/>
<text text-anchor="middle" x="79" y="-48.5" font-family="Helvetica,sans-Serif" font-size="10.00">nsINodeInfo::NamespaceEquals</text>
</g>
<!-- Node2 -->
<g id="node3" class="node"><title>Node2</title>
<a xlink:href="../../d0/dd8/classns_attr_name.html#adc94d711ea6a2dcda4f0a40448a44f3e" target="_top" xlink:title="nsAttrName::NamespaceEquals">
<polygon fill="white" stroke="black" points="194,-80.5 194,-101.5 352,-101.5 352,-80.5 194,-80.5"/>
<text text-anchor="middle" x="273" y="-88.5" font-family="Helvetica,sans-Serif" font-size="10.00">nsAttrName::NamespaceEquals</text>
</a>
</g>
<!-- Node1&#45;&gt;Node2 -->
<g id="edge2" class="edge"><title>Node1&#45;&gt;Node2</title>
<path fill="none" stroke="midnightblue" d="M139.868,-63.55C166.274,-68.9946 196.848,-75.2986 222.033,-80.4913"/>
<polygon fill="midnightblue" stroke="midnightblue" points="140.472,-60.1011 129.971,-61.5095 139.058,-66.9569 140.472,-60.1011"/>
</g>
<!-- Node3 -->
<g id="node5" class="node"><title>Node3</title>
<a xlink:href="../../d0/dd8/classns_attr_name.html#af5a9947cbf16b5be9b3bfd4bd1c2f1ed" target="_top" xlink:title="nsAttrName::nsAttrName">
<polygon fill="white" stroke="black" points="209,-40.5 209,-61.5 337,-61.5 337,-40.5 209,-40.5"/>
<text text-anchor="middle" x="273" y="-48.5" font-family="Helvetica,sans-Serif" font-size="10.00">nsAttrName::nsAttrName</text>
</a>
</g>
<!-- Node1&#45;&gt;Node3 -->
<g id="edge4" class="edge"><title>Node1&#45;&gt;Node3</title>
<path fill="none" stroke="midnightblue" d="M168.54,-51C182.153,-51 195.963,-51 208.889,-51"/>
<polygon fill="midnightblue" stroke="midnightblue" points="168.187,-47.5001 158.187,-51 168.187,-54.5001 168.187,-47.5001"/>
</g>
<!-- Node4 -->
<g id="node7" class="node"><title>Node4</title>
<a xlink:href="../../d0/dd8/classns_attr_name.html#aa1e34666f9a6972526924838ff17dc70" target="_top" xlink:title="nsAttrName::SetTo">
<polygon fill="white" stroke="black" points="222.5,-0.5 222.5,-21.5 323.5,-21.5 323.5,-0.5 222.5,-0.5"/>
<text text-anchor="middle" x="273" y="-8.5" font-family="Helvetica,sans-Serif" font-size="10.00">nsAttrName::SetTo</text>
</a>
</g>
<!-- Node1&#45;&gt;Node4 -->
<g id="edge6" class="edge"><title>Node1&#45;&gt;Node4</title>
<path fill="none" stroke="midnightblue" d="M139.908,-38.4417C166.422,-32.9748 197.134,-26.6426 222.369,-21.4393"/>
<polygon fill="midnightblue" stroke="midnightblue" points="139.058,-35.0431 129.971,-40.4905 140.472,-41.8989 139.058,-35.0431"/>
</g>
</g>
</svg>
