<?xml version="1.0" encoding="UTF-8" standalone="no"?>
<!DOCTYPE svg PUBLIC "-//W3C//DTD SVG 1.1//EN"
 "http://www.w3.org/Graphics/SVG/1.1/DTD/svg11.dtd">
<!-- Generated by graphviz version 2.26.3 (20100126.1600)
 -->
<!-- Title: G Pages: 1 -->
<!--zoomable 494 -->
<svg id="main" version="1.1" xmlns="http://www.w3.org/2000/svg" xmlns:xlink="http://www.w3.org/1999/xlink" xml:space="preserve" onload="init(evt)">
        <defs>
                <circle id="rim" cx="0" cy="0" r="7"/>
                <circle id="rim2" cx="0" cy="0" r="3.5"/>
                <g id="zoomPlus">
                        <use xlink:href="#rim" fill="#404040">
                                <set attributeName="fill" to="#808080" begin="zoomplus.mouseover" end="zoomplus.mouseout"/>
                        </use>
                        <path d="M-4,0h8M0,-4v8" fill="none" stroke="white" stroke-width="1.5" pointer-events="none"/>
                </g>
                <g id="zoomMin">
                        <use xlink:href="#rim" fill="#404040">
                                <set attributeName="fill" to="#808080" begin="zoomminus.mouseover" end="zoomminus.mouseout"/>
                        </use>
                        <path d="M-4,0h8" fill="none" stroke="white" stroke-width="1.5" pointer-events="none"/>
                </g>
                <g id="dirArrow">
                        <path fill="none" stroke="white" stroke-width="1.5" d="M0,-3.0v7 M-2.5,-0.5L0,-3.0L2.5,-0.5"/>
                </g>
               <g id="resetDef">
                       <use xlink:href="#rim2" fill="#404040">
                               <set attributeName="fill" to="#808080" begin="reset.mouseover" end="reset.mouseout"/>
                       </use>
               </g>
        </defs>

<script type="text/javascript">
var viewWidth = 1250;
var viewHeight = 494;
var sectionId = 'dynsection-0';
</script>
<script xlink:href="../../svgpan.js"/>
<svg id="graph" class="graph">
<g id="viewport">
<title>G</title>
<polygon fill="white" stroke="white" points="-4,5 -4,-490 1247,-490 1247,5 -4,5"/>
<!-- Node1 -->
<g id="node1" class="node"><title>Node1</title>
<polygon fill="#bfbfbf" stroke="black" points="309,-464.5 309,-485.5 671,-485.5 671,-464.5 309,-464.5"/>
<text text-anchor="middle" x="490" y="-472.5" font-family="Helvetica,sans-Serif" font-size="10.00">/home/aoi/Documents/FxOS/B2G/gaia/xulrunner&#45;sdk/include/nsISupportsImpl.h</text>
</g>
<!-- Node2 -->
<g id="node3" class="node"><title>Node2</title>
<a xlink:href="../../d3/dd8/nscore_8h.html" target="_top" xlink:title="nscore.h">
<polygon fill="white" stroke="black" points="306,-232.5 306,-253.5 360,-253.5 360,-232.5 306,-232.5"/>
<text text-anchor="middle" x="333" y="-240.5" font-family="Helvetica,sans-Serif" font-size="10.00">nscore.h</text>
</a>
</g>
<!-- Node1&#45;&gt;Node2 -->
<g id="edge2" class="edge"><title>Node1&#45;&gt;Node2</title>
<path fill="none" stroke="midnightblue" d="M419.697,-464.494C381.911,-457.251 335.17,-445.671 296,-428 254.978,-409.493 233.799,-409.908 213,-370 201.801,-348.511 222.305,-297.825 229,-290 246.091,-270.025 273.402,-258.131 295.749,-251.306"/>
<polygon fill="midnightblue" stroke="midnightblue" points="296.942,-254.606 305.612,-248.516 295.037,-247.87 296.942,-254.606"/>
</g>
<!-- Node7 -->
<g id="node14" class="node"><title>Node7</title>
<a xlink:href="../../d1/da8/_attributes_8h.html" target="_top" xlink:title="mozilla/Attributes.h">
<polygon fill="white" stroke="black" points="402.5,-58.5 402.5,-79.5 503.5,-79.5 503.5,-58.5 402.5,-58.5"/>
<text text-anchor="middle" x="453" y="-66.5" font-family="Helvetica,sans-Serif" font-size="10.00">mozilla/Attributes.h</text>
</a>
</g>
<!-- Node1&#45;&gt;Node7 -->
<g id="edge122" class="edge"><title>Node1&#45;&gt;Node7</title>
<path fill="none" stroke="midnightblue" d="M308.934,-465.653C169.352,-453.312 0,-424.784 0,-359 0,-359 0,-359 0,-185 0,-124.631 60.0048,-135.9 117,-116 166.512,-98.713 309.719,-82.7344 392.316,-74.6083"/>
<polygon fill="midnightblue" stroke="midnightblue" points="392.71,-78.0866 402.323,-73.633 392.031,-71.1196 392.71,-78.0866"/>
</g>
<!-- Node14 -->
<g id="node29" class="node"><title>Node14</title>
<a xlink:href="../../d1/d8a/_likely_8h.html" target="_top" xlink:title="mozilla/Likely.h">
<polygon fill="white" stroke="black" points="787,-116.5 787,-137.5 871,-137.5 871,-116.5 787,-116.5"/>
<text text-anchor="middle" x="829" y="-124.5" font-family="Helvetica,sans-Serif" font-size="10.00">mozilla/Likely.h</text>
</a>
</g>
<!-- Node1&#45;&gt;Node14 -->
<g id="edge126" class="edge"><title>Node1&#45;&gt;Node14</title>
<path fill="none" stroke="midnightblue" d="M583.482,-464.48C738.529,-445.752 1032,-404.317 1032,-359 1032,-359 1032,-359 1032,-243 1032,-173.548 941.317,-145.116 881.17,-133.896"/>
<polygon fill="midnightblue" stroke="midnightblue" points="881.517,-130.404 871.062,-132.117 880.304,-137.298 881.517,-130.404"/>
</g>
<!-- Node17 -->
<g id="node37" class="node"><title>Node17</title>
<a xlink:href="../../de/d38/ns_i_supports_base_8h.html" target="_top" xlink:title="nsISupportsBase.h">
<polygon fill="white" stroke="black" points="222,-348.5 222,-369.5 322,-369.5 322,-348.5 222,-348.5"/>
<text text-anchor="middle" x="272" y="-356.5" font-family="Helvetica,sans-Serif" font-size="10.00">nsISupportsBase.h</text>
</a>
</g>
<!-- Node1&#45;&gt;Node17 -->
<g id="edge40" class="edge"><title>Node1&#45;&gt;Node17</title>
<path fill="none" stroke="midnightblue" d="M410.282,-464.416C380.3,-457.587 347.168,-446.378 321,-428 303.247,-415.532 289.672,-394.492 281.361,-378.916"/>
<polygon fill="midnightblue" stroke="midnightblue" points="284.298,-376.966 276.669,-369.614 278.048,-380.119 284.298,-376.966"/>
</g>
<!-- Node19 -->
<g id="node44" class="node"><title>Node19</title>
<a xlink:href="../../d9/d4b/ns_i_supports_utils_8h.html" target="_top" xlink:title="nsISupportsUtils.h">
<polygon fill="white" stroke="black" points="330,-406.5 330,-427.5 428,-427.5 428,-406.5 330,-406.5"/>
<text text-anchor="middle" x="379" y="-414.5" font-family="Helvetica,sans-Serif" font-size="10.00">nsISupportsUtils.h</text>
</a>
</g>
<!-- Node1&#45;&gt;Node19 -->
<g id="edge50" class="edge"><title>Node1&#45;&gt;Node19</title>
<path fill="none" stroke="midnightblue" d="M464.559,-464.497C445.939,-455.601 421.046,-442.72 402.82,-432.616"/>
<polygon fill="midnightblue" stroke="midnightblue" points="404.395,-429.486 393.966,-427.621 400.956,-435.583 404.395,-429.486"/>
</g>
<!-- Node20 -->
<g id="node49" class="node"><title>Node20</title>
<a xlink:href="../../dc/d6d/ns_debug_8h.html" target="_top" xlink:title="nsDebug.h">
<polygon fill="white" stroke="black" points="522,-348.5 522,-369.5 586,-369.5 586,-348.5 522,-348.5"/>
<text text-anchor="middle" x="554" y="-356.5" font-family="Helvetica,sans-Serif" font-size="10.00">nsDebug.h</text>
</a>
</g>
<!-- Node1&#45;&gt;Node20 -->
<g id="edge106" class="edge"><title>Node1&#45;&gt;Node20</title>
<path fill="none" stroke="midnightblue" d="M507.173,-464.449C519.213,-456.098 534.601,-443.311 543,-428 551.102,-413.23 553.651,-394.179 554.287,-379.839"/>
<polygon fill="midnightblue" stroke="midnightblue" points="557.792,-379.576 554.457,-369.519 550.793,-379.46 557.792,-379.576"/>
</g>
<!-- Node23 -->
<g id="node58" class="node"><title>Node23</title>
<a xlink:href="../../d9/de9/_assertions_8h.html" target="_top" xlink:title="mozilla/Assertions.h">
<polygon fill="white" stroke="black" points="797.5,-232.5 797.5,-253.5 902.5,-253.5 902.5,-232.5 797.5,-232.5"/>
<text text-anchor="middle" x="850" y="-240.5" font-family="Helvetica,sans-Serif" font-size="10.00">mozilla/Assertions.h</text>
</a>
</g>
<!-- Node1&#45;&gt;Node23 -->
<g id="edge124" class="edge"><title>Node1&#45;&gt;Node23</title>
<path fill="none" stroke="midnightblue" d="M513.232,-464.447C563.781,-440.938 686.475,-380.869 777,-312 797.611,-296.32 818.873,-275.613 833.097,-260.988"/>
<polygon fill="midnightblue" stroke="midnightblue" points="835.827,-263.198 840.225,-253.559 830.776,-258.351 835.827,-263.198"/>
</g>
<!-- Node26 -->
<g id="node71" class="node"><title>Node26</title>
<a xlink:href="../../d2/df8/prthread_8h.html" target="_top" xlink:title="prthread.h">
<polygon fill="white" stroke="black" points="1060,-406.5 1060,-427.5 1120,-427.5 1120,-406.5 1060,-406.5"/>
<text text-anchor="middle" x="1090" y="-414.5" font-family="Helvetica,sans-Serif" font-size="10.00">prthread.h</text>
</a>
</g>
<!-- Node1&#45;&gt;Node26 -->
<g id="edge90" class="edge"><title>Node1&#45;&gt;Node26</title>
<path fill="none" stroke="midnightblue" d="M671.201,-467.052C780.333,-460.44 921.77,-448.642 1046,-428 1047.27,-427.789 1048.55,-427.561 1049.85,-427.318"/>
<polygon fill="midnightblue" stroke="midnightblue" points="1050.77,-430.7 1059.84,-425.219 1049.33,-423.85 1050.77,-430.7"/>
</g>
<!-- Node32 -->
<g id="node86" class="node"><title>Node32</title>
<a xlink:href="../../dc/d1c/ns_trace_refcnt_8h.html" target="_top" xlink:title="nsTraceRefcnt.h">
<polygon fill="white" stroke="black" points="445.5,-406.5 445.5,-427.5 534.5,-427.5 534.5,-406.5 445.5,-406.5"/>
<text text-anchor="middle" x="490" y="-414.5" font-family="Helvetica,sans-Serif" font-size="10.00">nsTraceRefcnt.h</text>
</a>
</g>
<!-- Node1&#45;&gt;Node32 -->
<g id="edge108" class="edge"><title>Node1&#45;&gt;Node32</title>
<path fill="none" stroke="midnightblue" d="M490,-464.362C490,-456.922 490,-446.743 490,-437.728"/>
<polygon fill="midnightblue" stroke="midnightblue" points="493.5,-437.571 490,-427.571 486.5,-437.571 493.5,-437.571"/>
</g>
<!-- Node33 -->
<g id="node89" class="node"><title>Node33</title>
<a xlink:href="../../db/d18/_atomics_8h.html" target="_top" xlink:title="mozilla/Atomics.h">
<polygon fill="white" stroke="black" points="640.5,-290.5 640.5,-311.5 735.5,-311.5 735.5,-290.5 640.5,-290.5"/>
<text text-anchor="middle" x="688" y="-298.5" font-family="Helvetica,sans-Serif" font-size="10.00">mozilla/Atomics.h</text>
</a>
</g>
<!-- Node1&#45;&gt;Node33 -->
<g id="edge112" class="edge"><title>Node1&#45;&gt;Node33</title>
<path fill="none" stroke="midnightblue" d="M507.622,-464.476C522.183,-455.476 543.129,-441.822 560,-428 603.264,-392.555 648.485,-344.726 671.859,-319.063"/>
<polygon fill="midnightblue" stroke="midnightblue" points="674.538,-321.319 678.65,-311.554 669.346,-316.623 674.538,-321.319"/>
</g>
<!-- Node3 -->
<g id="node5" class="node"><title>Node3</title>
<a xlink:href="../../d7/d2d/xpcom-config_8h.html" target="_top" xlink:title="xpcom&#45;config.h">
<polygon fill="white" stroke="black" points="242.5,-116.5 242.5,-137.5 325.5,-137.5 325.5,-116.5 242.5,-116.5"/>
<text text-anchor="middle" x="284" y="-124.5" font-family="Helvetica,sans-Serif" font-size="10.00">xpcom&#45;config.h</text>
</a>
</g>
<!-- Node2&#45;&gt;Node3 -->
<g id="edge4" class="edge"><title>Node2&#45;&gt;Node3</title>
<path fill="none" stroke="midnightblue" d="M305.737,-240.689C256.132,-235.857 154.263,-222.839 133,-196 102.924,-158.036 177.394,-140.182 232.119,-132.394"/>
<polygon fill="midnightblue" stroke="midnightblue" points="232.634,-135.857 242.078,-131.055 231.701,-128.919 232.634,-135.857"/>
</g>
<!-- Node4 -->
<g id="node7" class="node"><title>Node4</title>
<a xlink:href="../../d1/d62/mozalloc_8h.html" target="_top" xlink:title="mozilla/mozalloc.h">
<polygon fill="white" stroke="black" points="334,-174.5 334,-195.5 432,-195.5 432,-174.5 334,-174.5"/>
<text text-anchor="middle" x="383" y="-182.5" font-family="Helvetica,sans-Serif" font-size="10.00">mozilla/mozalloc.h</text>
</a>
</g>
<!-- Node2&#45;&gt;Node4 -->
<g id="edge6" class="edge"><title>Node2&#45;&gt;Node4</title>
<path fill="none" stroke="midnightblue" d="M342.171,-232.362C349.148,-224.268 358.921,-212.932 367.156,-203.38"/>
<polygon fill="midnightblue" stroke="midnightblue" points="370.009,-205.43 373.887,-195.571 364.707,-200.859 370.009,-205.43"/>
</g>
<!-- Node9 -->
<g id="node18" class="node"><title>Node9</title>
<a xlink:href="../../d1/de4/mozalloc__macro__wrappers_8h.html" target="_top" xlink:title="mozilla/mozalloc_macro_wrappers.h">
<polygon fill="white" stroke="black" points="141.5,-174.5 141.5,-195.5 316.5,-195.5 316.5,-174.5 141.5,-174.5"/>
<text text-anchor="middle" x="229" y="-182.5" font-family="Helvetica,sans-Serif" font-size="10.00">mozilla/mozalloc_macro_wrappers.h</text>
</a>
</g>
<!-- Node2&#45;&gt;Node9 -->
<g id="edge18" class="edge"><title>Node2&#45;&gt;Node9</title>
<path fill="none" stroke="midnightblue" d="M313.925,-232.362C297.945,-223.45 274.919,-210.609 256.873,-200.545"/>
<polygon fill="midnightblue" stroke="midnightblue" points="258.393,-197.385 247.954,-195.571 254.983,-203.498 258.393,-197.385"/>
</g>
<!-- Node10 -->
<g id="node20" class="node"><title>Node10</title>
<polygon fill="white" stroke="#bfbfbf" points="706,-174.5 706,-195.5 758,-195.5 758,-174.5 706,-174.5"/>
<text text-anchor="middle" x="732" y="-182.5" font-family="Helvetica,sans-Serif" font-size="10.00">stddef.h</text>
</g>
<!-- Node2&#45;&gt;Node10 -->
<g id="edge20" class="edge"><title>Node2&#45;&gt;Node10</title>
<path fill="none" stroke="midnightblue" d="M360.041,-238.821C374.045,-236.697 391.428,-234.124 407,-232 532.42,-214.896 568.277,-223.137 695.622,-196"/>
<polygon fill="midnightblue" stroke="midnightblue" points="696.73,-199.341 705.764,-193.806 695.25,-192.5 696.73,-199.341"/>
</g>
<!-- Node11 -->
<g id="node22" class="node"><title>Node11</title>
<polygon fill="white" stroke="#bfbfbf" points="406.5,-116.5 406.5,-137.5 455.5,-137.5 455.5,-116.5 406.5,-116.5"/>
<text text-anchor="middle" x="431" y="-124.5" font-family="Helvetica,sans-Serif" font-size="10.00">stdint.h</text>
</g>
<!-- Node2&#45;&gt;Node11 -->
<g id="edge22" class="edge"><title>Node2&#45;&gt;Node11</title>
<path fill="none" stroke="midnightblue" d="M360.21,-234.921C389.048,-225.743 431.696,-210.195 441,-196 450.488,-181.523 446.256,-161.69 440.671,-147.001"/>
<polygon fill="midnightblue" stroke="midnightblue" points="443.883,-145.609 436.741,-137.783 437.443,-148.355 443.883,-145.609"/>
</g>
<!-- Node12 -->
<g id="node24" class="node"><title>Node12</title>
<a xlink:href="../../df/dcf/_null_ptr_8h.html" target="_top" xlink:title="mozilla/NullPtr.h">
<polygon fill="white" stroke="black" points="201.5,-58.5 201.5,-79.5 290.5,-79.5 290.5,-58.5 201.5,-58.5"/>
<text text-anchor="middle" x="246" y="-66.5" font-family="Helvetica,sans-Serif" font-size="10.00">mozilla/NullPtr.h</text>
</a>
</g>
<!-- Node2&#45;&gt;Node12 -->
<g id="edge24" class="edge"><title>Node2&#45;&gt;Node12</title>
<path fill="none" stroke="midnightblue" d="M305.856,-240.794C254.706,-236.041 147.02,-223.011 123,-196 99.3063,-169.356 96.5537,-145.211 117,-116 126.065,-103.049 160.369,-90.9007 191.324,-82.2003"/>
<polygon fill="midnightblue" stroke="midnightblue" points="192.494,-85.509 201.22,-79.5 190.651,-78.7559 192.494,-85.509"/>
</g>
<!-- Node13 -->
<g id="node27" class="node"><title>Node13</title>
<a xlink:href="../../d8/dcf/ns_error_8h.html" target="_top" xlink:title="nsError.h">
<polygon fill="white" stroke="black" points="488,-174.5 488,-195.5 544,-195.5 544,-174.5 488,-174.5"/>
<text text-anchor="middle" x="516" y="-182.5" font-family="Helvetica,sans-Serif" font-size="10.00">nsError.h</text>
</a>
</g>
<!-- Node2&#45;&gt;Node13 -->
<g id="edge28" class="edge"><title>Node2&#45;&gt;Node13</title>
<path fill="none" stroke="midnightblue" d="M360.002,-234.442C391.221,-224.547 442.822,-208.193 478.063,-197.024"/>
<polygon fill="midnightblue" stroke="midnightblue" points="479.51,-200.237 487.985,-193.879 477.395,-193.564 479.51,-200.237"/>
</g>
<!-- Node4&#45;&gt;Node3 -->
<g id="edge12" class="edge"><title>Node4&#45;&gt;Node3</title>
<path fill="none" stroke="midnightblue" d="M364.842,-174.362C349.77,-165.532 328.113,-152.844 311.007,-142.822"/>
<polygon fill="midnightblue" stroke="midnightblue" points="312.441,-139.606 302.043,-137.571 308.902,-145.646 312.441,-139.606"/>
</g>
<!-- Node5 -->
<g id="node9" class="node"><title>Node5</title>
<polygon fill="white" stroke="#bfbfbf" points="721,-116.5 721,-137.5 769,-137.5 769,-116.5 721,-116.5"/>
<text text-anchor="middle" x="745" y="-124.5" font-family="Helvetica,sans-Serif" font-size="10.00">stdlib.h</text>
</g>
<!-- Node4&#45;&gt;Node5 -->
<g id="edge8" class="edge"><title>Node4&#45;&gt;Node5</title>
<path fill="none" stroke="midnightblue" d="M432.261,-179.067C506.593,-169.938 644.932,-152.216 711.027,-137.835"/>
<polygon fill="midnightblue" stroke="midnightblue" points="712.025,-141.197 720.994,-135.557 710.465,-134.373 712.025,-141.197"/>
</g>
<!-- Node6 -->
<g id="node11" class="node"><title>Node6</title>
<polygon fill="white" stroke="#bfbfbf" points="125.5,-116.5 125.5,-137.5 174.5,-137.5 174.5,-116.5 125.5,-116.5"/>
<text text-anchor="middle" x="150" y="-124.5" font-family="Helvetica,sans-Serif" font-size="10.00">string.h</text>
</g>
<!-- Node4&#45;&gt;Node6 -->
<g id="edge10" class="edge"><title>Node4&#45;&gt;Node6</title>
<path fill="none" stroke="midnightblue" d="M340.805,-174.497C296.074,-163.362 226.259,-145.983 184.635,-135.622"/>
<polygon fill="midnightblue" stroke="midnightblue" points="185.241,-132.166 174.692,-133.147 183.551,-138.959 185.241,-132.166"/>
</g>
<!-- Node4&#45;&gt;Node7 -->
<g id="edge14" class="edge"><title>Node4&#45;&gt;Node7</title>
<path fill="none" stroke="midnightblue" d="M383.235,-174.422C383.99,-160.187 386.928,-134.518 398,-116 405.222,-103.921 416.658,-93.412 427.236,-85.4125"/>
<polygon fill="midnightblue" stroke="midnightblue" points="429.336,-88.2138 435.439,-79.553 425.267,-82.5178 429.336,-88.2138"/>
</g>
<!-- Node8 -->
<g id="node16" class="node"><title>Node8</title>
<a xlink:href="../../da/da7/_compiler_8h.html" target="_top" xlink:title="mozilla/Compiler.h">
<polygon fill="white" stroke="black" points="404,-0.5 404,-21.5 502,-21.5 502,-0.5 404,-0.5"/>
<text text-anchor="middle" x="453" y="-8.5" font-family="Helvetica,sans-Serif" font-size="10.00">mozilla/Compiler.h</text>
</a>
</g>
<!-- Node7&#45;&gt;Node8 -->
<g id="edge16" class="edge"><title>Node7&#45;&gt;Node8</title>
<path fill="none" stroke="midnightblue" d="M453,-58.3619C453,-50.9219 453,-40.7427 453,-31.7276"/>
<polygon fill="midnightblue" stroke="midnightblue" points="456.5,-31.5706 453,-21.5707 449.5,-31.5707 456.5,-31.5706"/>
</g>
<!-- Node12&#45;&gt;Node8 -->
<g id="edge26" class="edge"><title>Node12&#45;&gt;Node8</title>
<path fill="none" stroke="midnightblue" d="M283.486,-58.4966C317.671,-48.9183 368.346,-34.7196 405.384,-24.3418"/>
<polygon fill="midnightblue" stroke="midnightblue" points="406.759,-27.5914 415.444,-21.5231 404.87,-20.8509 406.759,-27.5914"/>
</g>
<!-- Node13&#45;&gt;Node11 -->
<g id="edge36" class="edge"><title>Node13&#45;&gt;Node11</title>
<path fill="none" stroke="midnightblue" d="M500.41,-174.362C487.709,-165.696 469.562,-153.313 455.008,-143.382"/>
<polygon fill="midnightblue" stroke="midnightblue" points="456.724,-140.316 446.491,-137.571 452.779,-146.098 456.724,-140.316"/>
</g>
<!-- Node13&#45;&gt;Node14 -->
<g id="edge30" class="edge"><title>Node13&#45;&gt;Node14</title>
<path fill="none" stroke="midnightblue" d="M544.363,-180.246C590.807,-172.39 686.203,-155.951 777.085,-138.133"/>
<polygon fill="midnightblue" stroke="midnightblue" points="777.864,-141.547 786.999,-136.181 776.511,-134.679 777.864,-141.547"/>
</g>
<!-- Node15 -->
<g id="node31" class="node"><title>Node15</title>
<a xlink:href="../../d3/dff/_typed_enum_8h.html" target="_top" xlink:title="mozilla/TypedEnum.h">
<polygon fill="white" stroke="black" points="472.5,-116.5 472.5,-137.5 583.5,-137.5 583.5,-116.5 472.5,-116.5"/>
<text text-anchor="middle" x="528" y="-124.5" font-family="Helvetica,sans-Serif" font-size="10.00">mozilla/TypedEnum.h</text>
</a>
</g>
<!-- Node13&#45;&gt;Node15 -->
<g id="edge32" class="edge"><title>Node13&#45;&gt;Node15</title>
<path fill="none" stroke="midnightblue" d="M518.201,-174.362C519.757,-166.84 521.893,-156.519 523.773,-147.431"/>
<polygon fill="midnightblue" stroke="midnightblue" points="527.214,-148.072 525.813,-137.571 520.359,-146.654 527.214,-148.072"/>
</g>
<!-- Node16 -->
<g id="node35" class="node"><title>Node16</title>
<a xlink:href="../../d7/dda/_error_list_c_defines_8h.html" target="_top" xlink:title="ErrorListCDefines.h">
<polygon fill="white" stroke="black" points="600.5,-116.5 600.5,-137.5 703.5,-137.5 703.5,-116.5 600.5,-116.5"/>
<text text-anchor="middle" x="652" y="-124.5" font-family="Helvetica,sans-Serif" font-size="10.00">ErrorListCDefines.h</text>
</a>
</g>
<!-- Node13&#45;&gt;Node16 -->
<g id="edge38" class="edge"><title>Node13&#45;&gt;Node16</title>
<path fill="none" stroke="midnightblue" d="M540.629,-174.497C562.157,-165.315 593.64,-151.889 617.645,-141.652"/>
<polygon fill="midnightblue" stroke="midnightblue" points="619.27,-144.764 627.095,-137.621 616.524,-138.325 619.27,-144.764"/>
</g>
<!-- Node15&#45;&gt;Node7 -->
<g id="edge34" class="edge"><title>Node15&#45;&gt;Node7</title>
<path fill="none" stroke="midnightblue" d="M514.244,-116.362C503.249,-107.859 487.627,-95.7785 474.914,-85.9466"/>
<polygon fill="midnightblue" stroke="midnightblue" points="476.721,-82.9195 466.669,-79.5707 472.438,-88.4569 476.721,-82.9195"/>
</g>
<!-- Node17&#45;&gt;Node2 -->
<g id="edge42" class="edge"><title>Node17&#45;&gt;Node2</title>
<path fill="none" stroke="midnightblue" d="M277.629,-348.295C287.843,-328.872 309.57,-287.556 322.564,-262.846"/>
<polygon fill="midnightblue" stroke="midnightblue" points="325.828,-264.159 327.384,-253.679 319.632,-260.901 325.828,-264.159"/>
</g>
<!-- Node18 -->
<g id="node40" class="node"><title>Node18</title>
<a xlink:href="../../d9/d0a/ns_i_d_8h.html" target="_top" xlink:title="nsID.h">
<polygon fill="white" stroke="black" points="238,-290.5 238,-311.5 284,-311.5 284,-290.5 238,-290.5"/>
<text text-anchor="middle" x="261" y="-298.5" font-family="Helvetica,sans-Serif" font-size="10.00">nsID.h</text>
</a>
</g>
<!-- Node17&#45;&gt;Node18 -->
<g id="edge44" class="edge"><title>Node17&#45;&gt;Node18</title>
<path fill="none" stroke="midnightblue" d="M269.982,-348.362C268.556,-340.84 266.598,-330.519 264.875,-321.431"/>
<polygon fill="midnightblue" stroke="midnightblue" points="268.307,-320.743 263.005,-311.571 261.429,-322.048 268.307,-320.743"/>
</g>
<!-- Node18&#45;&gt;Node2 -->
<g id="edge48" class="edge"><title>Node18&#45;&gt;Node2</title>
<path fill="none" stroke="midnightblue" d="M274.206,-290.362C284.761,-281.859 299.758,-269.779 311.963,-259.947"/>
<polygon fill="midnightblue" stroke="midnightblue" points="314.286,-262.57 319.878,-253.571 309.895,-257.118 314.286,-262.57"/>
</g>
<!-- Node18&#45;&gt;Node6 -->
<g id="edge46" class="edge"><title>Node18&#45;&gt;Node6</title>
<path fill="none" stroke="midnightblue" d="M237.825,-291.445C205.19,-276.559 146.999,-244.417 123,-196 114.768,-179.393 124.357,-159.62 134.314,-145.507"/>
<polygon fill="midnightblue" stroke="midnightblue" points="137.118,-147.602 140.404,-137.53 131.554,-143.354 137.118,-147.602"/>
</g>
<!-- Node19&#45;&gt;Node1 -->
<g id="edge88" class="edge"><title>Node19&#45;&gt;Node1</title>
<path fill="none" stroke="midnightblue" d="M404.582,-427.571C423.183,-436.462 447.991,-449.301 466.171,-459.379"/>
<polygon fill="midnightblue" stroke="midnightblue" points="464.575,-462.498 475.005,-464.362 468.014,-456.401 464.575,-462.498"/>
</g>
<!-- Node19&#45;&gt;Node2 -->
<g id="edge52" class="edge"><title>Node19&#45;&gt;Node2</title>
<path fill="none" stroke="midnightblue" d="M376.192,-406.377C368.735,-378.172 348.337,-301.012 338.478,-263.72"/>
<polygon fill="midnightblue" stroke="midnightblue" points="341.829,-262.701 335.889,-253.928 335.061,-264.49 341.829,-262.701"/>
</g>
<!-- Node19&#45;&gt;Node13 -->
<g id="edge56" class="edge"><title>Node19&#45;&gt;Node13</title>
<path fill="none" stroke="midnightblue" d="M379.284,-406.412C380.42,-371.345 385.674,-259.652 407,-232 424.069,-209.868 453.645,-197.995 477.686,-191.722"/>
<polygon fill="midnightblue" stroke="midnightblue" points="478.68,-195.084 487.598,-189.363 477.059,-188.274 478.68,-195.084"/>
</g>
<!-- Node19&#45;&gt;Node17 -->
<g id="edge54" class="edge"><title>Node19&#45;&gt;Node17</title>
<path fill="none" stroke="midnightblue" d="M359.375,-406.362C342.859,-397.409 319.026,-384.491 300.422,-374.406"/>
<polygon fill="midnightblue" stroke="midnightblue" points="301.96,-371.259 291.501,-369.571 298.625,-377.413 301.96,-371.259"/>
</g>
<!-- Node19&#45;&gt;Node20 -->
<g id="edge58" class="edge"><title>Node19&#45;&gt;Node20</title>
<path fill="none" stroke="midnightblue" d="M410.691,-406.497C439.221,-397.041 481.336,-383.083 512.535,-372.743"/>
<polygon fill="midnightblue" stroke="midnightblue" points="513.858,-375.991 522.249,-369.523 511.656,-369.347 513.858,-375.991"/>
</g>
<!-- Node20&#45;&gt;Node2 -->
<g id="edge60" class="edge"><title>Node20&#45;&gt;Node2</title>
<path fill="none" stroke="midnightblue" d="M526.617,-348.478C504.261,-339.584 472.058,-326.074 445,-312 413.658,-295.698 379.3,-273.904 357.014,-259.207"/>
<polygon fill="midnightblue" stroke="midnightblue" points="358.795,-256.189 348.529,-253.569 354.921,-262.019 358.795,-256.189"/>
</g>
<!-- Node20&#45;&gt;Node13 -->
<g id="edge62" class="edge"><title>Node20&#45;&gt;Node13</title>
<path fill="none" stroke="midnightblue" d="M551.68,-348.377C545.52,-320.172 528.669,-243.012 520.525,-205.72"/>
<polygon fill="midnightblue" stroke="midnightblue" points="523.94,-204.951 518.387,-195.928 517.101,-206.444 523.94,-204.951"/>
</g>
<!-- Node20&#45;&gt;Node14 -->
<g id="edge86" class="edge"><title>Node20&#45;&gt;Node14</title>
<path fill="none" stroke="midnightblue" d="M554.989,-348.27C558.524,-316.4 573.459,-221.568 629,-174 631.873,-171.539 718.805,-151.692 777.101,-138.587"/>
<polygon fill="midnightblue" stroke="midnightblue" points="777.919,-141.991 786.909,-136.385 776.385,-135.161 777.919,-141.991"/>
</g>
<!-- Node21 -->
<g id="node53" class="node"><title>Node21</title>
<a xlink:href="../../dd/d3a/ns_x_p_c_o_m_8h.html" target="_top" xlink:title="nsXPCOM.h">
<polygon fill="white" stroke="black" points="454,-290.5 454,-311.5 526,-311.5 526,-290.5 454,-290.5"/>
<text text-anchor="middle" x="490" y="-298.5" font-family="Helvetica,sans-Serif" font-size="10.00">nsXPCOM.h</text>
</a>
</g>
<!-- Node20&#45;&gt;Node21 -->
<g id="edge64" class="edge"><title>Node20&#45;&gt;Node21</title>
<path fill="none" stroke="midnightblue" d="M542.261,-348.362C533.059,-340.023 520.06,-328.242 509.328,-318.516"/>
<polygon fill="midnightblue" stroke="midnightblue" points="511.424,-315.692 501.664,-311.571 506.724,-320.879 511.424,-315.692"/>
</g>
<!-- Node20&#45;&gt;Node23 -->
<g id="edge70" class="edge"><title>Node20&#45;&gt;Node23</title>
<path fill="none" stroke="midnightblue" d="M586.323,-354.388C625.006,-348.111 691.172,-334.946 744,-312 775.545,-298.298 808.168,-275.534 828.743,-259.926"/>
<polygon fill="midnightblue" stroke="midnightblue" points="831.004,-262.601 836.784,-253.722 826.729,-257.059 831.004,-262.601"/>
</g>
<!-- Node21&#45;&gt;Node2 -->
<g id="edge66" class="edge"><title>Node21&#45;&gt;Node2</title>
<path fill="none" stroke="midnightblue" d="M461.568,-290.497C435.8,-280.977 397.677,-266.893 369.632,-256.533"/>
<polygon fill="midnightblue" stroke="midnightblue" points="370.763,-253.219 360.169,-253.037 368.337,-259.786 370.763,-253.219"/>
</g>
<!-- Node22 -->
<g id="node56" class="node"><title>Node22</title>
<a xlink:href="../../d1/d66/ns_x_p_c_o_m_c_i_d_8h.html" target="_top" xlink:title="nsXPCOMCID.h">
<polygon fill="white" stroke="black" points="416,-232.5 416,-253.5 506,-253.5 506,-232.5 416,-232.5"/>
<text text-anchor="middle" x="461" y="-240.5" font-family="Helvetica,sans-Serif" font-size="10.00">nsXPCOMCID.h</text>
</a>
</g>
<!-- Node21&#45;&gt;Node22 -->
<g id="edge68" class="edge"><title>Node21&#45;&gt;Node22</title>
<path fill="none" stroke="midnightblue" d="M484.681,-290.362C480.797,-282.595 475.421,-271.843 470.773,-262.546"/>
<polygon fill="midnightblue" stroke="midnightblue" points="473.888,-260.95 466.285,-253.571 467.627,-264.08 473.888,-260.95"/>
</g>
<!-- Node23&#45;&gt;Node5 -->
<g id="edge82" class="edge"><title>Node23&#45;&gt;Node5</title>
<path fill="none" stroke="midnightblue" d="M840.31,-232.295C822.339,-212.441 783.659,-169.709 761.496,-145.224"/>
<polygon fill="midnightblue" stroke="midnightblue" points="763.972,-142.744 754.667,-137.679 758.783,-147.442 763.972,-142.744"/>
</g>
<!-- Node23&#45;&gt;Node7 -->
<g id="edge72" class="edge"><title>Node23&#45;&gt;Node7</title>
<path fill="none" stroke="midnightblue" d="M902.615,-234.722C944.651,-225.498 993.68,-207.291 975,-174 950.793,-130.858 926.818,-131.978 880,-116 813.723,-93.3816 614.892,-78.6551 513.657,-72.4139"/>
<polygon fill="midnightblue" stroke="midnightblue" points="513.775,-68.9148 503.581,-71.801 513.35,-75.9018 513.775,-68.9148"/>
</g>
<!-- Node23&#45;&gt;Node8 -->
<g id="edge74" class="edge"><title>Node23&#45;&gt;Node8</title>
<path fill="none" stroke="midnightblue" d="M902.703,-237.832C949.886,-230.592 1009.07,-213.536 991,-174 974.63,-138.178 959.178,-133.712 924,-116 786.782,-46.9127 604.475,-22.9257 512.081,-14.8762"/>
<polygon fill="midnightblue" stroke="midnightblue" points="512.334,-11.3852 502.076,-14.0365 511.748,-18.3607 512.334,-11.3852"/>
</g>
<!-- Node23&#45;&gt;Node10 -->
<g id="edge78" class="edge"><title>Node23&#45;&gt;Node10</title>
<path fill="none" stroke="midnightblue" d="M828.631,-232.497C810.201,-223.438 783.363,-210.246 762.645,-200.063"/>
<polygon fill="midnightblue" stroke="midnightblue" points="764.127,-196.891 753.609,-195.621 761.039,-203.174 764.127,-196.891"/>
</g>
<!-- Node23&#45;&gt;Node14 -->
<g id="edge76" class="edge"><title>Node23&#45;&gt;Node14</title>
<path fill="none" stroke="midnightblue" d="M848.062,-232.295C844.593,-213.131 837.265,-172.654 832.773,-147.843"/>
<polygon fill="midnightblue" stroke="midnightblue" points="836.159,-146.896 830.933,-137.679 829.271,-148.143 836.159,-146.896"/>
</g>
<!-- Node24 -->
<g id="node64" class="node"><title>Node24</title>
<polygon fill="white" stroke="#bfbfbf" points="920,-174.5 920,-195.5 966,-195.5 966,-174.5 920,-174.5"/>
<text text-anchor="middle" x="943" y="-182.5" font-family="Helvetica,sans-Serif" font-size="10.00">stdio.h</text>
</g>
<!-- Node23&#45;&gt;Node24 -->
<g id="edge80" class="edge"><title>Node23&#45;&gt;Node24</title>
<path fill="none" stroke="midnightblue" d="M867.058,-232.362C881.085,-223.614 901.184,-211.079 917.182,-201.101"/>
<polygon fill="midnightblue" stroke="midnightblue" points="919.418,-203.832 926.051,-195.571 915.713,-197.893 919.418,-203.832"/>
</g>
<!-- Node25 -->
<g id="node67" class="node"><title>Node25</title>
<polygon fill="white" stroke="#bfbfbf" points="852,-174.5 852,-195.5 902,-195.5 902,-174.5 852,-174.5"/>
<text text-anchor="middle" x="877" y="-182.5" font-family="Helvetica,sans-Serif" font-size="10.00">signal.h</text>
</g>
<!-- Node23&#45;&gt;Node25 -->
<g id="edge84" class="edge"><title>Node23&#45;&gt;Node25</title>
<path fill="none" stroke="midnightblue" d="M854.952,-232.362C858.53,-224.677 863.468,-214.069 867.764,-204.84"/>
<polygon fill="midnightblue" stroke="midnightblue" points="871.032,-206.114 872.079,-195.571 864.686,-203.159 871.032,-206.114"/>
</g>
<!-- Node27 -->
<g id="node73" class="node"><title>Node27</title>
<a xlink:href="../../dc/d23/prtypes_8h.html" target="_top" xlink:title="prtypes.h">
<polygon fill="white" stroke="black" points="1062.5,-290.5 1062.5,-311.5 1119.5,-311.5 1119.5,-290.5 1062.5,-290.5"/>
<text text-anchor="middle" x="1091" y="-298.5" font-family="Helvetica,sans-Serif" font-size="10.00">prtypes.h</text>
</a>
</g>
<!-- Node26&#45;&gt;Node27 -->
<g id="edge92" class="edge"><title>Node26&#45;&gt;Node27</title>
<path fill="none" stroke="midnightblue" d="M1101.56,-406.296C1110.15,-397.501 1121.18,-384.212 1126,-370 1129.14,-360.74 1129.08,-357.281 1126,-348 1122.53,-337.536 1115.73,-327.509 1109.04,-319.425"/>
<polygon fill="midnightblue" stroke="midnightblue" points="1111.5,-316.926 1102.24,-311.766 1106.26,-321.57 1111.5,-316.926"/>
</g>
<!-- Node31 -->
<g id="node82" class="node"><title>Node31</title>
<a xlink:href="../../d7/dc8/prinrval_8h.html" target="_top" xlink:title="prinrval.h">
<polygon fill="white" stroke="black" points="1061,-348.5 1061,-369.5 1117,-369.5 1117,-348.5 1061,-348.5"/>
<text text-anchor="middle" x="1089" y="-356.5" font-family="Helvetica,sans-Serif" font-size="10.00">prinrval.h</text>
</a>
</g>
<!-- Node26&#45;&gt;Node31 -->
<g id="edge102" class="edge"><title>Node26&#45;&gt;Node31</title>
<path fill="none" stroke="midnightblue" d="M1089.82,-406.362C1089.69,-398.922 1089.51,-388.743 1089.36,-379.728"/>
<polygon fill="midnightblue" stroke="midnightblue" points="1092.85,-379.509 1089.18,-369.571 1085.86,-379.63 1092.85,-379.509"/>
</g>
<!-- Node27&#45;&gt;Node10 -->
<g id="edge96" class="edge"><title>Node27&#45;&gt;Node10</title>
<path fill="none" stroke="midnightblue" d="M1062.08,-299.112C995.885,-294.376 835.463,-280.441 789,-254 768.758,-242.481 752.679,-220.796 742.827,-204.799"/>
<polygon fill="midnightblue" stroke="midnightblue" points="745.585,-202.581 737.517,-195.715 739.542,-206.115 745.585,-202.581"/>
</g>
<!-- Node28 -->
<g id="node75" class="node"><title>Node28</title>
<a xlink:href="../../d7/d7e/prcpucfg_8h.html" target="_top" xlink:title="prcpucfg.h">
<polygon fill="white" stroke="black" points="1060,-232.5 1060,-253.5 1122,-253.5 1122,-232.5 1060,-232.5"/>
<text text-anchor="middle" x="1091" y="-240.5" font-family="Helvetica,sans-Serif" font-size="10.00">prcpucfg.h</text>
</a>
</g>
<!-- Node27&#45;&gt;Node28 -->
<g id="edge94" class="edge"><title>Node27&#45;&gt;Node28</title>
<path fill="none" stroke="midnightblue" d="M1091,-290.362C1091,-282.922 1091,-272.743 1091,-263.728"/>
<polygon fill="midnightblue" stroke="midnightblue" points="1094.5,-263.571 1091,-253.571 1087.5,-263.571 1094.5,-263.571"/>
</g>
<!-- Node29 -->
<g id="node78" class="node"><title>Node29</title>
<a xlink:href="../../d2/de8/protypes_8h.html" target="_top" xlink:title="obsolete/protypes.h">
<polygon fill="white" stroke="black" points="1140,-232.5 1140,-253.5 1242,-253.5 1242,-232.5 1140,-232.5"/>
<text text-anchor="middle" x="1191" y="-240.5" font-family="Helvetica,sans-Serif" font-size="10.00">obsolete/protypes.h</text>
</a>
</g>
<!-- Node27&#45;&gt;Node29 -->
<g id="edge98" class="edge"><title>Node27&#45;&gt;Node29</title>
<path fill="none" stroke="midnightblue" d="M1109.34,-290.362C1124.57,-281.532 1146.44,-268.844 1163.72,-258.822"/>
<polygon fill="midnightblue" stroke="midnightblue" points="1165.88,-261.615 1172.77,-253.571 1162.37,-255.56 1165.88,-261.615"/>
</g>
<!-- Node30 -->
<g id="node80" class="node"><title>Node30</title>
<polygon fill="white" stroke="#bfbfbf" points="1157,-174.5 1157,-195.5 1225,-195.5 1225,-174.5 1157,-174.5"/>
<text text-anchor="middle" x="1191" y="-182.5" font-family="Helvetica,sans-Serif" font-size="10.00">sys/types.h</text>
</g>
<!-- Node29&#45;&gt;Node30 -->
<g id="edge100" class="edge"><title>Node29&#45;&gt;Node30</title>
<path fill="none" stroke="midnightblue" d="M1191,-232.362C1191,-224.922 1191,-214.743 1191,-205.728"/>
<polygon fill="midnightblue" stroke="midnightblue" points="1194.5,-205.571 1191,-195.571 1187.5,-205.571 1194.5,-205.571"/>
</g>
<!-- Node31&#45;&gt;Node27 -->
<g id="edge104" class="edge"><title>Node31&#45;&gt;Node27</title>
<path fill="none" stroke="midnightblue" d="M1089.37,-348.362C1089.62,-340.922 1089.97,-330.743 1090.29,-321.728"/>
<polygon fill="midnightblue" stroke="midnightblue" points="1093.79,-321.685 1090.64,-311.571 1086.79,-321.444 1093.79,-321.685"/>
</g>
<!-- Node32&#45;&gt;Node21 -->
<g id="edge110" class="edge"><title>Node32&#45;&gt;Node21</title>
<path fill="none" stroke="midnightblue" d="M490,-406.295C490,-387.131 490,-346.654 490,-321.843"/>
<polygon fill="midnightblue" stroke="midnightblue" points="493.5,-321.679 490,-311.679 486.5,-321.679 493.5,-321.679"/>
</g>
<!-- Node33&#45;&gt;Node11 -->
<g id="edge120" class="edge"><title>Node33&#45;&gt;Node11</title>
<path fill="none" stroke="midnightblue" d="M673.479,-290.326C661.249,-281.127 643.482,-267.272 629,-254 592.845,-220.864 593.768,-201.26 553,-174 545.358,-168.89 498.528,-151.425 465.171,-139.288"/>
<polygon fill="midnightblue" stroke="midnightblue" points="466.331,-135.986 455.737,-135.867 463.945,-142.567 466.331,-135.986"/>
</g>
<!-- Node33&#45;&gt;Node23 -->
<g id="edge114" class="edge"><title>Node33&#45;&gt;Node23</title>
<path fill="none" stroke="midnightblue" d="M717.337,-290.497C743.519,-281.123 782.06,-267.324 810.863,-257.012"/>
<polygon fill="midnightblue" stroke="midnightblue" points="812.373,-260.189 820.608,-253.523 810.013,-253.599 812.373,-260.189"/>
</g>
<!-- Node34 -->
<g id="node92" class="node"><title>Node34</title>
<a xlink:href="../../d4/dd5/_type_traits_8h.html" target="_top" xlink:title="mozilla/TypeTraits.h">
<polygon fill="white" stroke="black" points="637.5,-232.5 637.5,-253.5 742.5,-253.5 742.5,-232.5 637.5,-232.5"/>
<text text-anchor="middle" x="690" y="-240.5" font-family="Helvetica,sans-Serif" font-size="10.00">mozilla/TypeTraits.h</text>
</a>
</g>
<!-- Node33&#45;&gt;Node34 -->
<g id="edge116" class="edge"><title>Node33&#45;&gt;Node34</title>
<path fill="none" stroke="midnightblue" d="M688.367,-290.362C688.623,-282.922 688.974,-272.743 689.285,-263.728"/>
<polygon fill="midnightblue" stroke="midnightblue" points="692.789,-263.685 689.635,-253.571 685.793,-263.444 692.789,-263.685"/>
</g>
<!-- Node35 -->
<g id="node94" class="node"><title>Node35</title>
<polygon fill="white" stroke="#bfbfbf" points="637.5,-174.5 637.5,-195.5 688.5,-195.5 688.5,-174.5 637.5,-174.5"/>
<text text-anchor="middle" x="663" y="-182.5" font-family="Helvetica,sans-Serif" font-size="10.00">wchar.h</text>
</g>
<!-- Node34&#45;&gt;Node35 -->
<g id="edge118" class="edge"><title>Node34&#45;&gt;Node35</title>
<path fill="none" stroke="midnightblue" d="M685.048,-232.362C681.47,-224.677 676.532,-214.069 672.236,-204.84"/>
<polygon fill="midnightblue" stroke="midnightblue" points="675.314,-203.159 667.921,-195.571 668.968,-206.114 675.314,-203.159"/>
</g>
</g>
</svg>
        <g id="navigator" transform="translate(0 0)" fill="#404254">
                <rect fill="#f2f5e9" fill-opacity="0.5" stroke="#606060" stroke-width=".5" x="0" y="0" width="60" height="60"/>
                <use id="zoomplus" xlink:href="#zoomPlus" x="17" y="9" onmousedown="handleZoom(evt,'in')"/>
                <use id="zoomminus" xlink:href="#zoomMin" x="42" y="9" onmousedown="handleZoom(evt,'out')"/>
                <use id="reset" xlink:href="#resetDef" x="30" y="36" onmousedown="handleReset()"/>
                <g id="arrowUp" xlink:href="#dirArrow" transform="translate(30 24)" onmousedown="handlePan(0,-1)">
                  <use xlink:href="#rim" fill="#404040">
                        <set attributeName="fill" to="#808080" begin="arrowUp.mouseover" end="arrowUp.mouseout"/>
                  </use>
                  <path fill="none" stroke="white" stroke-width="1.5" d="M0,-3.0v7 M-2.5,-0.5L0,-3.0L2.5,-0.5"/>
                </g>
                <g id="arrowRight" xlink:href="#dirArrow" transform="rotate(90) translate(36 -43)" onmousedown="handlePan(1,0)">
                  <use xlink:href="#rim" fill="#404040">
                        <set attributeName="fill" to="#808080" begin="arrowRight.mouseover" end="arrowRight.mouseout"/>
                  </use>
                  <path fill="none" stroke="white" stroke-width="1.5" d="M0,-3.0v7 M-2.5,-0.5L0,-3.0L2.5,-0.5"/>
                </g>
                <g id="arrowDown" xlink:href="#dirArrow" transform="rotate(180) translate(-30 -48)" onmousedown="handlePan(0,1)">
                  <use xlink:href="#rim" fill="#404040">
                        <set attributeName="fill" to="#808080" begin="arrowDown.mouseover" end="arrowDown.mouseout"/>
                  </use>
                  <path fill="none" stroke="white" stroke-width="1.5" d="M0,-3.0v7 M-2.5,-0.5L0,-3.0L2.5,-0.5"/>
                </g>
                <g id="arrowLeft" xlink:href="#dirArrow" transform="rotate(270) translate(-36 17)" onmousedown="handlePan(-1,0)">
                  <use xlink:href="#rim" fill="#404040">
                        <set attributeName="fill" to="#808080" begin="arrowLeft.mouseover" end="arrowLeft.mouseout"/>
                  </use>
                  <path fill="none" stroke="white" stroke-width="1.5" d="M0,-3.0v7 M-2.5,-0.5L0,-3.0L2.5,-0.5"/>
                </g>
        </g>
</svg>
