<?xml version="1.0" encoding="UTF-8" standalone="no"?>
<!DOCTYPE svg PUBLIC "-//W3C//DTD SVG 1.1//EN"
 "http://www.w3.org/Graphics/SVG/1.1/DTD/svg11.dtd">
<!-- Generated by graphviz version 2.26.3 (20100126.1600)
 -->
<!-- Title: G Pages: 1 -->
<svg width="153pt" height="146pt"
 viewBox="0.00 0.00 153.00 146.00" xmlns="http://www.w3.org/2000/svg" xmlns:xlink="http://www.w3.org/1999/xlink">
<g id="graph1" class="graph" transform="scale(1 1) rotate(0) translate(4 142)">
<title>G</title>
<polygon fill="white" stroke="white" points="-4,5 -4,-142 150,-142 150,5 -4,5"/>
<!-- Node1 -->
<g id="node1" class="node"><title>Node1</title>
<polygon fill="#bfbfbf" stroke="black" points="57,-116.5 57,-137.5 113,-137.5 113,-116.5 57,-116.5"/>
<text text-anchor="middle" x="85" y="-124.5" font-family="Helvetica,sans-Serif" font-size="10.00">table.cpp</text>
</g>
<!-- Node2 -->
<g id="node3" class="node"><title>Node2</title>
<a xlink:href="../../dd/d98/table_8h.html" target="_top" xlink:title="table.h">
<polygon fill="white" stroke="black" points="29,-58.5 29,-79.5 75,-79.5 75,-58.5 29,-58.5"/>
<text text-anchor="middle" x="52" y="-66.5" font-family="Helvetica,sans-Serif" font-size="10.00">table.h</text>
</a>
</g>
<!-- Node1&#45;&gt;Node2 -->
<g id="edge2" class="edge"><title>Node1&#45;&gt;Node2</title>
<path fill="none" stroke="midnightblue" d="M78.9473,-116.362C74.5281,-108.595 68.4104,-97.8426 63.1209,-88.5458"/>
<polygon fill="midnightblue" stroke="midnightblue" points="66.0017,-86.5315 58.0143,-79.5707 59.9176,-89.9932 66.0017,-86.5315"/>
</g>
<!-- Node5 -->
<g id="node9" class="node"><title>Node5</title>
<polygon fill="white" stroke="#bfbfbf" points="93,-58.5 93,-79.5 145,-79.5 145,-58.5 93,-58.5"/>
<text text-anchor="middle" x="119" y="-66.5" font-family="Helvetica,sans-Serif" font-size="10.00">assert.h</text>
</g>
<!-- Node1&#45;&gt;Node5 -->
<g id="edge8" class="edge"><title>Node1&#45;&gt;Node5</title>
<path fill="none" stroke="midnightblue" d="M91.2361,-116.362C95.8371,-108.513 102.225,-97.6159 107.714,-88.2527"/>
<polygon fill="midnightblue" stroke="midnightblue" points="110.766,-89.9677 112.803,-79.5707 104.727,-86.4276 110.766,-89.9677"/>
</g>
<!-- Node3 -->
<g id="node5" class="node"><title>Node3</title>
<polygon fill="white" stroke="#bfbfbf" points="0,-0.5 0,-21.5 44,-21.5 44,-0.5 0,-0.5"/>
<text text-anchor="middle" x="22" y="-8.5" font-family="Helvetica,sans-Serif" font-size="10.00">vector</text>
</g>
<!-- Node2&#45;&gt;Node3 -->
<g id="edge4" class="edge"><title>Node2&#45;&gt;Node3</title>
<path fill="none" stroke="midnightblue" d="M46.4975,-58.3619C42.4801,-50.5949 36.9186,-39.8426 32.1099,-30.5458"/>
<polygon fill="midnightblue" stroke="midnightblue" points="35.1706,-28.8448 27.4676,-21.5707 28.9531,-32.0608 35.1706,-28.8448"/>
</g>
<!-- Node4 -->
<g id="node7" class="node"><title>Node4</title>
<polygon fill="white" stroke="#bfbfbf" points="61.5,-0.5 61.5,-21.5 102.5,-21.5 102.5,-0.5 61.5,-0.5"/>
<text text-anchor="middle" x="82" y="-8.5" font-family="Helvetica,sans-Serif" font-size="10.00">string</text>
</g>
<!-- Node2&#45;&gt;Node4 -->
<g id="edge6" class="edge"><title>Node2&#45;&gt;Node4</title>
<path fill="none" stroke="midnightblue" d="M57.5025,-58.3619C61.5199,-50.5949 67.0814,-39.8426 71.8901,-30.5458"/>
<polygon fill="midnightblue" stroke="midnightblue" points="75.0469,-32.0608 76.5324,-21.5707 68.8294,-28.8448 75.0469,-32.0608"/>
</g>
</g>
</svg>
