<?xml version="1.0" encoding="UTF-8" standalone="no"?>
<!DOCTYPE svg PUBLIC "-//W3C//DTD SVG 1.1//EN"
 "http://www.w3.org/Graphics/SVG/1.1/DTD/svg11.dtd">
<!-- Generated by graphviz version 2.26.3 (20100126.1600)
 -->
<!-- Title: G Pages: 1 -->
<svg width="485pt" height="146pt"
 viewBox="0.00 0.00 485.00 146.00" xmlns="http://www.w3.org/2000/svg" xmlns:xlink="http://www.w3.org/1999/xlink">
<g id="graph1" class="graph" transform="scale(1 1) rotate(0) translate(4 142)">
<title>G</title>
<polygon fill="white" stroke="white" points="-4,5 -4,-142 482,-142 482,5 -4,5"/>
<!-- Node1 -->
<g id="node1" class="node"><title>Node1</title>
<polygon fill="#bfbfbf" stroke="black" points="111,-116.5 111,-137.5 469,-137.5 469,-116.5 111,-116.5"/>
<text text-anchor="middle" x="290" y="-124.5" font-family="Helvetica,sans-Serif" font-size="10.00">/home/aoi/Documents/FxOS/B2G/gaia/xulrunner&#45;sdk/include/SurfaceFactory.h</text>
</g>
<!-- Node2 -->
<g id="node3" class="node"><title>Node2</title>
<a xlink:href="../../d1/d87/_shared_surface_g_l_8h.html" target="_top" xlink:title="/home/aoi/Documents/FxOS/B2G/gaia/xulrunner&#45;sdk/include/SharedSurfaceGL.h">
<polygon fill="white" stroke="black" points="0,-58.5 0,-79.5 368,-79.5 368,-58.5 0,-58.5"/>
<text text-anchor="middle" x="184" y="-66.5" font-family="Helvetica,sans-Serif" font-size="10.00">/home/aoi/Documents/FxOS/B2G/gaia/xulrunner&#45;sdk/include/SharedSurfaceGL.h</text>
</a>
</g>
<!-- Node1&#45;&gt;Node2 -->
<g id="edge2" class="edge"><title>Node1&#45;&gt;Node2</title>
<path fill="none" stroke="midnightblue" d="M261.704,-111.517C243.248,-101.419 219.644,-88.5032 203.319,-79.5707"/>
<polygon fill="midnightblue" stroke="midnightblue" points="260.105,-114.632 270.558,-116.362 263.465,-108.491 260.105,-114.632"/>
</g>
<!-- Node3 -->
<g id="node5" class="node"><title>Node3</title>
<a xlink:href="../../d1/df8/_shared_surface_e_g_l_8h.html" target="_top" xlink:title="/home/aoi/Documents/FxOS/B2G/gaia/xulrunner&#45;sdk/include/SharedSurfaceEGL.h">
<polygon fill="white" stroke="black" points="102.5,-0.5 102.5,-21.5 477.5,-21.5 477.5,-0.5 102.5,-0.5"/>
<text text-anchor="middle" x="290" y="-8.5" font-family="Helvetica,sans-Serif" font-size="10.00">/home/aoi/Documents/FxOS/B2G/gaia/xulrunner&#45;sdk/include/SharedSurfaceEGL.h</text>
</a>
</g>
<!-- Node1&#45;&gt;Node3 -->
<g id="edge6" class="edge"><title>Node1&#45;&gt;Node3</title>
<path fill="none" stroke="midnightblue" d="M337.657,-112.381C352.947,-105.184 368.189,-94.7744 377,-80 392.848,-53.4258 354.627,-33.0513 323.905,-21.5482"/>
<polygon fill="midnightblue" stroke="midnightblue" points="335.989,-109.289 328.188,-116.458 338.757,-115.718 335.989,-109.289"/>
</g>
<!-- Node2&#45;&gt;Node3 -->
<g id="edge4" class="edge"><title>Node2&#45;&gt;Node3</title>
<path fill="none" stroke="midnightblue" d="M212.296,-53.5175C230.752,-43.4189 254.356,-30.5032 270.681,-21.5707"/>
<polygon fill="midnightblue" stroke="midnightblue" points="210.535,-50.4913 203.442,-58.3619 213.895,-56.6322 210.535,-50.4913"/>
</g>
</g>
</svg>
