<?xml version="1.0" encoding="UTF-8" standalone="no"?>
<!DOCTYPE svg PUBLIC "-//W3C//DTD SVG 1.1//EN"
 "http://www.w3.org/Graphics/SVG/1.1/DTD/svg11.dtd">
<!-- Generated by graphviz version 2.26.3 (20100126.1600)
 -->
<!-- Title: G Pages: 1 -->
<!--zoomable 903 -->
<svg id="main" version="1.1" xmlns="http://www.w3.org/2000/svg" xmlns:xlink="http://www.w3.org/1999/xlink" xml:space="preserve" onload="init(evt)">
        <defs>
                <circle id="rim" cx="0" cy="0" r="7"/>
                <circle id="rim2" cx="0" cy="0" r="3.5"/>
                <g id="zoomPlus">
                        <use xlink:href="#rim" fill="#404040">
                                <set attributeName="fill" to="#808080" begin="zoomplus.mouseover" end="zoomplus.mouseout"/>
                        </use>
                        <path d="M-4,0h8M0,-4v8" fill="none" stroke="white" stroke-width="1.5" pointer-events="none"/>
                </g>
                <g id="zoomMin">
                        <use xlink:href="#rim" fill="#404040">
                                <set attributeName="fill" to="#808080" begin="zoomminus.mouseover" end="zoomminus.mouseout"/>
                        </use>
                        <path d="M-4,0h8" fill="none" stroke="white" stroke-width="1.5" pointer-events="none"/>
                </g>
                <g id="dirArrow">
                        <path fill="none" stroke="white" stroke-width="1.5" d="M0,-3.0v7 M-2.5,-0.5L0,-3.0L2.5,-0.5"/>
                </g>
               <g id="resetDef">
                       <use xlink:href="#rim2" fill="#404040">
                               <set attributeName="fill" to="#808080" begin="reset.mouseover" end="reset.mouseout"/>
                       </use>
               </g>
        </defs>

<script type="text/javascript">
var viewWidth = 1040;
var viewHeight = 903;
var sectionId = 'dynsection-3';
</script>
<script xlink:href="../../svgpan.js"/>
<svg id="graph" class="graph">
<g id="viewport">
<title>G</title>
<polygon fill="white" stroke="white" points="-4,5 -4,-898.715 1037,-898.715 1037,5 -4,5"/>
<!-- Node1 -->
<g id="node1" class="node"><title>Node1</title>
<polygon fill="#bfbfbf" stroke="black" points="0,-431.5 0,-452.5 38,-452.5 38,-431.5 0,-431.5"/>
<text text-anchor="middle" x="19" y="-439.5" font-family="Helvetica,sans-Serif" font-size="10.00">main</text>
</g>
<!-- Node2 -->
<g id="node3" class="node"><title>Node2</title>
<a xlink:href="../../d0/d91/b2g-info_8cpp.html#a72987403ed81c976534491e6e4cb7533" target="_top" xlink:title="print_b2g_info">
<polygon fill="white" stroke="black" points="74.5,-431.5 74.5,-452.5 151.5,-452.5 151.5,-431.5 74.5,-431.5"/>
<text text-anchor="middle" x="113" y="-439.5" font-family="Helvetica,sans-Serif" font-size="10.00">print_b2g_info</text>
</a>
</g>
<!-- Node1&#45;&gt;Node2 -->
<g id="edge2" class="edge"><title>Node1&#45;&gt;Node2</title>
<path fill="none" stroke="midnightblue" d="M38.0223,-442C45.6653,-442 54.8602,-442 64.1516,-442"/>
<polygon fill="midnightblue" stroke="midnightblue" points="64.2027,-445.5 74.2027,-442 64.2026,-438.5 64.2027,-445.5"/>
</g>
<!-- Node43 -->
<g id="node110" class="node"><title>Node43</title>
<a xlink:href="../../d0/d91/b2g-info_8cpp.html#aa3b05aa6e9f0537dd025e601f102491d" target="_top" xlink:title="print_b2g_pids">
<polygon fill="white" stroke="black" points="216,-864.5 216,-885.5 296,-885.5 296,-864.5 216,-864.5"/>
<text text-anchor="middle" x="256" y="-872.5" font-family="Helvetica,sans-Serif" font-size="10.00">print_b2g_pids</text>
</a>
</g>
<!-- Node1&#45;&gt;Node43 -->
<g id="edge134" class="edge"><title>Node1&#45;&gt;Node43</title>
<path fill="none" stroke="midnightblue" d="M20.8175,-452.595C29.8319,-502.271 73.9575,-714.897 188,-839 195.969,-847.672 206.516,-854.641 216.918,-860.052"/>
<polygon fill="midnightblue" stroke="midnightblue" points="215.427,-863.218 225.955,-864.408 218.467,-856.913 215.427,-863.218"/>
</g>
<!-- Node44 -->
<g id="node114" class="node"><title>Node44</title>
<a xlink:href="../../d0/d91/b2g-info_8cpp.html#a2ef30c42cbc289d899a8be5d2d8f77d0" target="_top" xlink:title="usage">
<polygon fill="white" stroke="black" points="91.5,-391.5 91.5,-412.5 134.5,-412.5 134.5,-391.5 91.5,-391.5"/>
<text text-anchor="middle" x="113" y="-399.5" font-family="Helvetica,sans-Serif" font-size="10.00">usage</text>
</a>
</g>
<!-- Node1&#45;&gt;Node44 -->
<g id="edge140" class="edge"><title>Node1&#45;&gt;Node44</title>
<path fill="none" stroke="midnightblue" d="M38.0223,-433.905C50.5756,-428.564 67.3156,-421.44 81.7932,-415.279"/>
<polygon fill="midnightblue" stroke="midnightblue" points="83.5444,-418.338 91.3755,-411.202 80.8035,-411.897 83.5444,-418.338"/>
</g>
<!-- Node3 -->
<g id="node5" class="node"><title>Node3</title>
<a xlink:href="../../d2/d8f/class_table.html#ac0fe0911280d47b403b52c6082938a52" target="_top" xlink:title="Table::multi_col_header">
<polygon fill="white" stroke="black" points="196,-628.5 196,-649.5 316,-649.5 316,-628.5 196,-628.5"/>
<text text-anchor="middle" x="256" y="-636.5" font-family="Helvetica,sans-Serif" font-size="10.00">Table::multi_col_header</text>
</a>
</g>
<!-- Node2&#45;&gt;Node3 -->
<g id="edge4" class="edge"><title>Node2&#45;&gt;Node3</title>
<path fill="none" stroke="midnightblue" d="M114.646,-452.541C119.821,-482.209 138.46,-567.295 188,-614 192.118,-617.883 196.89,-621.173 201.958,-623.959"/>
<polygon fill="midnightblue" stroke="midnightblue" points="200.793,-627.282 211.323,-628.448 203.819,-620.97 200.793,-627.282"/>
</g>
<!-- Node4 -->
<g id="node7" class="node"><title>Node4</title>
<a xlink:href="../../d0/d91/b2g-info_8cpp.html#ac34fe09044970be2eb915ce7cf2398a7" target="_top" xlink:title="b2g_ps_add_table_headers">
<polygon fill="white" stroke="black" points="188.5,-708.5 188.5,-729.5 323.5,-729.5 323.5,-708.5 188.5,-708.5"/>
<text text-anchor="middle" x="256" y="-716.5" font-family="Helvetica,sans-Serif" font-size="10.00">b2g_ps_add_table_headers</text>
</a>
</g>
<!-- Node2&#45;&gt;Node4 -->
<g id="edge6" class="edge"><title>Node2&#45;&gt;Node4</title>
<path fill="none" stroke="midnightblue" d="M114.738,-452.759C122.052,-496.781 151.64,-662.563 188,-699 189.434,-700.437 190.966,-701.772 192.577,-703.012"/>
<polygon fill="midnightblue" stroke="midnightblue" points="190.879,-706.08 201.204,-708.455 194.614,-700.159 190.879,-706.08"/>
</g>
<!-- Node5 -->
<g id="node9" class="node"><title>Node5</title>
<a xlink:href="../../d2/d8f/class_table.html#ae9bd2e6532ab16a8f3f2a4a73786160b" target="_top" xlink:title="Table::add">
<polygon fill="white" stroke="black" points="399,-671.5 399,-692.5 461,-692.5 461,-671.5 399,-671.5"/>
<text text-anchor="middle" x="430" y="-679.5" font-family="Helvetica,sans-Serif" font-size="10.00">Table::add</text>
</a>
</g>
<!-- Node2&#45;&gt;Node5 -->
<g id="edge36" class="edge"><title>Node2&#45;&gt;Node5</title>
<path fill="none" stroke="midnightblue" d="M115.017,-452.829C125.594,-509.35 174.673,-768.313 188,-779 235.155,-816.814 267.658,-800.888 324,-779 364.411,-763.301 398.808,-724.211 416.731,-700.725"/>
<polygon fill="midnightblue" stroke="midnightblue" points="419.632,-702.689 422.772,-692.57 414.007,-698.522 419.632,-702.689"/>
</g>
<!-- Node7 -->
<g id="node13" class="node"><title>Node7</title>
<a xlink:href="../../d2/d8f/class_table.html#aaa79e859aad704c4650914889b9e5598" target="_top" xlink:title="Table::start_row">
<polygon fill="white" stroke="black" points="386.5,-594.5 386.5,-615.5 473.5,-615.5 473.5,-594.5 386.5,-594.5"/>
<text text-anchor="middle" x="430" y="-602.5" font-family="Helvetica,sans-Serif" font-size="10.00">Table::start_row</text>
</a>
</g>
<!-- Node2&#45;&gt;Node7 -->
<g id="edge34" class="edge"><title>Node2&#45;&gt;Node7</title>
<path fill="none" stroke="midnightblue" d="M115.173,-452.643C121.263,-479.453 141.21,-549.846 188,-581 243.844,-618.183 323.603,-618.452 376.071,-613.308"/>
<polygon fill="midnightblue" stroke="midnightblue" points="376.619,-616.769 386.186,-612.216 375.868,-609.809 376.619,-616.769"/>
</g>
<!-- Node8 -->
<g id="node15" class="node"><title>Node8</title>
<a xlink:href="../../de/daf/class_process_list.html#a7ec48f71aab61004f16e35e12f583f99" target="_top" xlink:title="ProcessList::singleton">
<polygon fill="white" stroke="black" points="373.5,-825.5 373.5,-846.5 486.5,-846.5 486.5,-825.5 373.5,-825.5"/>
<text text-anchor="middle" x="430" y="-833.5" font-family="Helvetica,sans-Serif" font-size="10.00">ProcessList::singleton</text>
</a>
</g>
<!-- Node2&#45;&gt;Node8 -->
<g id="edge14" class="edge"><title>Node2&#45;&gt;Node8</title>
<path fill="none" stroke="midnightblue" d="M114.878,-452.813C125.148,-511.694 174.545,-791.491 188,-804 234.362,-847.103 309.012,-850.801 363.154,-846.403"/>
<polygon fill="midnightblue" stroke="midnightblue" points="363.718,-849.866 373.353,-845.46 363.074,-842.896 363.718,-849.866"/>
</g>
<!-- Node9 -->
<g id="node17" class="node"><title>Node9</title>
<a xlink:href="../../de/daf/class_process_list.html#a50e6f4206a8d67e3639f8af25cff4395" target="_top" xlink:title="ProcessList::b2g_processes">
<polygon fill="white" stroke="black" points="360,-356.5 360,-377.5 500,-377.5 500,-356.5 360,-356.5"/>
<text text-anchor="middle" x="430" y="-364.5" font-family="Helvetica,sans-Serif" font-size="10.00">ProcessList::b2g_processes</text>
</a>
</g>
<!-- Node2&#45;&gt;Node9 -->
<g id="edge16" class="edge"><title>Node2&#45;&gt;Node9</title>
<path fill="none" stroke="midnightblue" d="M136.899,-431.43C142.087,-428.682 147.395,-425.498 152,-422 170.784,-407.731 166.715,-393.169 188,-383 238.012,-359.106 300.578,-355.555 349.563,-357.743"/>
<polygon fill="midnightblue" stroke="midnightblue" points="349.628,-361.251 359.801,-358.291 350.002,-354.261 349.628,-361.251"/>
</g>
<!-- Node15 -->
<g id="node29" class="node"><title>Node15</title>
<a xlink:href="../../d1/d41/class_process.html#a4be0403d5862318cde4444476eac0c7b" target="_top" xlink:title="Process::pid">
<polygon fill="white" stroke="black" points="749.5,-278.5 749.5,-299.5 820.5,-299.5 820.5,-278.5 749.5,-278.5"/>
<text text-anchor="middle" x="785" y="-286.5" font-family="Helvetica,sans-Serif" font-size="10.00">Process::pid</text>
</a>
</g>
<!-- Node2&#45;&gt;Node15 -->
<g id="edge48" class="edge"><title>Node2&#45;&gt;Node15</title>
<path fill="none" stroke="midnightblue" d="M141.165,-431.296C145.243,-428.755 149.051,-425.683 152,-422 191.888,-372.186 138.33,-323.067 188,-283 273.478,-214.048 572.683,-258.485 682,-269 700.947,-270.822 721.587,-274.489 739.381,-278.191"/>
<polygon fill="midnightblue" stroke="midnightblue" points="738.983,-281.685 749.495,-280.361 740.452,-274.841 738.983,-281.685"/>
</g>
<!-- Node17 -->
<g id="node36" class="node"><title>Node17</title>
<a xlink:href="../../d7/d6d/class_task.html#a75d6a9e53bd83d443dff2b4a9d1faf7e" target="_top" xlink:title="Task::name">
<polygon fill="white" stroke="black" points="222,-0.5 222,-21.5 290,-21.5 290,-0.5 222,-0.5"/>
<text text-anchor="middle" x="256" y="-8.5" font-family="Helvetica,sans-Serif" font-size="10.00">Task::name</text>
</a>
</g>
<!-- Node2&#45;&gt;Node17 -->
<g id="edge38" class="edge"><title>Node2&#45;&gt;Node17</title>
<path fill="none" stroke="midnightblue" d="M142.081,-431.433C145.943,-428.891 149.443,-425.783 152,-422 200.863,-349.708 132.574,-98.3916 188,-31 194.149,-23.5229 202.941,-18.7527 212.171,-15.7316"/>
<polygon fill="midnightblue" stroke="midnightblue" points="213.078,-19.112 221.855,-13.1765 211.293,-12.3436 213.078,-19.112"/>
</g>
<!-- Node21 -->
<g id="node46" class="node"><title>Node21</title>
<a xlink:href="../../d7/d6d/class_task.html#ac7b46fd963ad1e0f7bc8c260ba31121c" target="_top" xlink:title="Task::nice">
<polygon fill="white" stroke="black" points="225,-40.5 225,-61.5 287,-61.5 287,-40.5 225,-40.5"/>
<text text-anchor="middle" x="256" y="-48.5" font-family="Helvetica,sans-Serif" font-size="10.00">Task::nice</text>
</a>
</g>
<!-- Node2&#45;&gt;Node21 -->
<g id="edge50" class="edge"><title>Node2&#45;&gt;Node21</title>
<path fill="none" stroke="midnightblue" d="M142.047,-431.409C145.913,-428.87 149.424,-425.769 152,-422 240.491,-292.535 87.7595,-191.598 188,-71 194.795,-62.8246 204.748,-57.8893 214.954,-54.9384"/>
<polygon fill="midnightblue" stroke="midnightblue" points="215.769,-58.3424 224.721,-52.6762 214.189,-51.5229 215.769,-58.3424"/>
</g>
<!-- Node22 -->
<g id="node49" class="node"><title>Node22</title>
<a xlink:href="../../d2/d8f/class_table.html#aae5a04f4d32ac6f8f293d45c97992853" target="_top" xlink:title="Table::add_fmt">
<polygon fill="white" stroke="black" points="389,-436.5 389,-457.5 471,-457.5 471,-436.5 389,-436.5"/>
<text text-anchor="middle" x="430" y="-444.5" font-family="Helvetica,sans-Serif" font-size="10.00">Table::add_fmt</text>
</a>
</g>
<!-- Node2&#45;&gt;Node22 -->
<g id="edge54" class="edge"><title>Node2&#45;&gt;Node22</title>
<path fill="none" stroke="midnightblue" d="M151.554,-442.608C208.525,-443.507 315.288,-445.191 378.777,-446.192"/>
<polygon fill="midnightblue" stroke="midnightblue" points="378.908,-449.694 388.962,-446.353 379.018,-442.695 378.908,-449.694"/>
</g>
<!-- Node23 -->
<g id="node51" class="node"><title>Node23</title>
<a xlink:href="../../d1/d41/class_process.html#affcdf07d032c70295f1f49bf3caa81d0" target="_top" xlink:title="Process::uss_mb">
<polygon fill="white" stroke="black" points="209.5,-200.5 209.5,-221.5 302.5,-221.5 302.5,-200.5 209.5,-200.5"/>
<text text-anchor="middle" x="256" y="-208.5" font-family="Helvetica,sans-Serif" font-size="10.00">Process::uss_mb</text>
</a>
</g>
<!-- Node2&#45;&gt;Node23 -->
<g id="edge56" class="edge"><title>Node2&#45;&gt;Node23</title>
<path fill="none" stroke="midnightblue" d="M141.365,-431.451C145.419,-428.891 149.167,-425.773 152,-422 202.558,-354.668 133.446,-300.137 188,-236 191.427,-231.971 195.562,-228.592 200.081,-225.757"/>
<polygon fill="midnightblue" stroke="midnightblue" points="201.96,-228.722 209.158,-220.948 198.683,-222.536 201.96,-228.722"/>
</g>
<!-- Node26 -->
<g id="node57" class="node"><title>Node26</title>
<a xlink:href="../../d1/d41/class_process.html#a8d5342e6338a7baba3c991465b0fc81d" target="_top" xlink:title="Process::pss_mb">
<polygon fill="white" stroke="black" points="209.5,-160.5 209.5,-181.5 302.5,-181.5 302.5,-160.5 209.5,-160.5"/>
<text text-anchor="middle" x="256" y="-168.5" font-family="Helvetica,sans-Serif" font-size="10.00">Process::pss_mb</text>
</a>
</g>
<!-- Node2&#45;&gt;Node26 -->
<g id="edge62" class="edge"><title>Node2&#45;&gt;Node26</title>
<path fill="none" stroke="midnightblue" d="M141.875,-431.288C145.763,-428.765 149.326,-425.7 152,-422 212.86,-337.783 119.512,-269.14 188,-191 191.46,-187.053 195.655,-183.865 200.244,-181.295"/>
<polygon fill="midnightblue" stroke="midnightblue" points="201.829,-184.418 209.464,-177.073 198.915,-178.054 201.829,-184.418"/>
</g>
<!-- Node28 -->
<g id="node62" class="node"><title>Node28</title>
<a xlink:href="../../d1/d41/class_process.html#a4b6fa50eea085f44801a70d77732911e" target="_top" xlink:title="Process::rss_mb">
<polygon fill="white" stroke="black" points="210.5,-120.5 210.5,-141.5 301.5,-141.5 301.5,-120.5 210.5,-120.5"/>
<text text-anchor="middle" x="256" y="-128.5" font-family="Helvetica,sans-Serif" font-size="10.00">Process::rss_mb</text>
</a>
</g>
<!-- Node2&#45;&gt;Node28 -->
<g id="edge68" class="edge"><title>Node2&#45;&gt;Node28</title>
<path fill="none" stroke="midnightblue" d="M141.948,-431.341C145.827,-428.811 149.368,-425.73 152,-422 222.053,-322.725 108.947,-243.269 188,-151 191.653,-146.736 196.164,-143.357 201.11,-140.683"/>
<polygon fill="midnightblue" stroke="midnightblue" points="202.655,-143.827 210.394,-136.591 199.832,-137.421 202.655,-143.827"/>
</g>
<!-- Node30 -->
<g id="node67" class="node"><title>Node30</title>
<a xlink:href="../../d1/d41/class_process.html#a5c0a5eabbeac51b40e7d691da2e74852" target="_top" xlink:title="Process::vsize_mb">
<polygon fill="white" stroke="black" points="205.5,-80.5 205.5,-101.5 306.5,-101.5 306.5,-80.5 205.5,-80.5"/>
<text text-anchor="middle" x="256" y="-88.5" font-family="Helvetica,sans-Serif" font-size="10.00">Process::vsize_mb</text>
</a>
</g>
<!-- Node2&#45;&gt;Node30 -->
<g id="edge74" class="edge"><title>Node2&#45;&gt;Node30</title>
<path fill="none" stroke="midnightblue" d="M142.004,-431.38C145.875,-428.844 149.399,-425.752 152,-422 231.266,-307.639 98.3609,-217.425 188,-111 190.485,-108.05 193.38,-105.522 196.549,-103.358"/>
<polygon fill="midnightblue" stroke="midnightblue" points="198.41,-106.329 205.48,-98.4376 195.032,-100.198 198.41,-106.329"/>
</g>
<!-- Node32 -->
<g id="node72" class="node"><title>Node32</title>
<a xlink:href="../../d1/d41/class_process.html#a564adaff3c401aa19bf673af81344b4f" target="_top" xlink:title="Process::oom_adj">
<polygon fill="white" stroke="black" points="208.5,-748.5 208.5,-769.5 303.5,-769.5 303.5,-748.5 208.5,-748.5"/>
<text text-anchor="middle" x="256" y="-756.5" font-family="Helvetica,sans-Serif" font-size="10.00">Process::oom_adj</text>
</a>
</g>
<!-- Node2&#45;&gt;Node32 -->
<g id="edge80" class="edge"><title>Node2&#45;&gt;Node32</title>
<path fill="none" stroke="midnightblue" d="M114.287,-452.75C120.254,-500.878 146.705,-696.076 188,-739 191.206,-742.332 194.936,-745.118 198.967,-747.444"/>
<polygon fill="midnightblue" stroke="midnightblue" points="197.653,-750.695 208.186,-751.839 200.666,-744.377 197.653,-750.695"/>
</g>
<!-- Node33 -->
<g id="node74" class="node"><title>Node33</title>
<a xlink:href="../../d1/d41/class_process.html#aa223046bc6b2f974ecf5c29fcef3db5b" target="_top" xlink:title="Process::user">
<polygon fill="white" stroke="black" points="570.5,-278.5 570.5,-299.5 647.5,-299.5 647.5,-278.5 570.5,-278.5"/>
<text text-anchor="middle" x="609" y="-286.5" font-family="Helvetica,sans-Serif" font-size="10.00">Process::user</text>
</a>
</g>
<!-- Node2&#45;&gt;Node33 -->
<g id="edge82" class="edge"><title>Node2&#45;&gt;Node33</title>
<path fill="none" stroke="midnightblue" d="M140.499,-431.314C144.756,-428.751 148.796,-425.667 152,-422 183.631,-385.798 149.802,-349.189 188,-320 245.098,-276.368 461.764,-281.392 560.023,-286.131"/>
<polygon fill="midnightblue" stroke="midnightblue" points="560.116,-289.64 570.279,-286.646 560.467,-282.649 560.116,-289.64"/>
</g>
<!-- Node34 -->
<g id="node77" class="node"><title>Node34</title>
<a xlink:href="../../d1/d41/class_process.html#add7d75128dca5994f9b93709d7273037" target="_top" xlink:title="Process::threads">
<polygon fill="white" stroke="black" points="563.5,-318.5 563.5,-339.5 654.5,-339.5 654.5,-318.5 563.5,-318.5"/>
<text text-anchor="middle" x="609" y="-326.5" font-family="Helvetica,sans-Serif" font-size="10.00">Process::threads</text>
</a>
</g>
<!-- Node2&#45;&gt;Node34 -->
<g id="edge86" class="edge"><title>Node2&#45;&gt;Node34</title>
<path fill="none" stroke="midnightblue" d="M139.266,-431.382C143.856,-428.766 148.328,-425.646 152,-422 176.544,-397.628 158.943,-371.765 188,-353 246.803,-315.024 452.677,-320.392 553.085,-325.539"/>
<polygon fill="midnightblue" stroke="midnightblue" points="553.166,-329.048 563.337,-326.083 553.537,-322.058 553.166,-329.048"/>
</g>
<!-- Node35 -->
<g id="node82" class="node"><title>Node35</title>
<a xlink:href="../../d8/d18/class_thread.html#a534615d23524caac8270febc60d297ed" target="_top" xlink:title="Thread::tid">
<polygon fill="white" stroke="black" points="224.5,-668.5 224.5,-689.5 287.5,-689.5 287.5,-668.5 224.5,-668.5"/>
<text text-anchor="middle" x="256" y="-676.5" font-family="Helvetica,sans-Serif" font-size="10.00">Thread::tid</text>
</a>
</g>
<!-- Node2&#45;&gt;Node35 -->
<g id="edge94" class="edge"><title>Node2&#45;&gt;Node35</title>
<path fill="none" stroke="midnightblue" d="M113.411,-452.851C115.342,-488.038 126.291,-600.108 188,-659 195.268,-665.936 204.816,-670.482 214.451,-673.457"/>
<polygon fill="midnightblue" stroke="midnightblue" points="213.874,-676.923 224.431,-676.023 215.617,-670.143 213.874,-676.923"/>
</g>
<!-- Node36 -->
<g id="node84" class="node"><title>Node36</title>
<a xlink:href="../../d2/d8f/class_table.html#aaeec241cb19d85082765f6c577724854" target="_top" xlink:title="Table::add_delimiter">
<polygon fill="white" stroke="black" points="204,-550.5 204,-571.5 308,-571.5 308,-550.5 204,-550.5"/>
<text text-anchor="middle" x="256" y="-558.5" font-family="Helvetica,sans-Serif" font-size="10.00">Table::add_delimiter</text>
</a>
</g>
<!-- Node2&#45;&gt;Node36 -->
<g id="edge96" class="edge"><title>Node2&#45;&gt;Node36</title>
<path fill="none" stroke="midnightblue" d="M118.169,-452.74C128.516,-473.094 153.753,-517.356 188,-541 190.872,-542.983 193.942,-544.772 197.131,-546.385"/>
<polygon fill="midnightblue" stroke="midnightblue" points="195.808,-549.627 206.368,-550.484 198.647,-543.229 195.808,-549.627"/>
</g>
<!-- Node37 -->
<g id="node86" class="node"><title>Node37</title>
<a xlink:href="../../d2/d8f/class_table.html#a0de5a9ca880b662ec7d608de686e309a" target="_top" xlink:title="Table::print">
<polygon fill="white" stroke="black" points="223.5,-392.5 223.5,-413.5 288.5,-413.5 288.5,-392.5 223.5,-392.5"/>
<text text-anchor="middle" x="256" y="-400.5" font-family="Helvetica,sans-Serif" font-size="10.00">Table::print</text>
</a>
</g>
<!-- Node2&#45;&gt;Node37 -->
<g id="edge98" class="edge"><title>Node2&#45;&gt;Node37</title>
<path fill="none" stroke="midnightblue" d="M151.698,-431.446C170.716,-426.259 193.687,-419.995 213.225,-414.666"/>
<polygon fill="midnightblue" stroke="midnightblue" points="214.364,-417.983 223.091,-411.975 212.522,-411.23 214.364,-417.983"/>
</g>
<!-- Node39 -->
<g id="node90" class="node"><title>Node39</title>
<a xlink:href="../../d0/d91/b2g-info_8cpp.html#a21a526f63654418c49b074caf7feb59d" target="_top" xlink:title="print_system_meminfo">
<polygon fill="white" stroke="black" points="198,-470.5 198,-491.5 314,-491.5 314,-470.5 198,-470.5"/>
<text text-anchor="middle" x="256" y="-478.5" font-family="Helvetica,sans-Serif" font-size="10.00">print_system_meminfo</text>
</a>
</g>
<!-- Node2&#45;&gt;Node39 -->
<g id="edge102" class="edge"><title>Node2&#45;&gt;Node39</title>
<path fill="none" stroke="midnightblue" d="M151.698,-452.554C168.866,-457.236 189.256,-462.797 207.434,-467.755"/>
<polygon fill="midnightblue" stroke="midnightblue" points="206.703,-471.183 217.271,-470.438 208.545,-464.43 206.703,-471.183"/>
</g>
<!-- Node40 -->
<g id="node99" class="node"><title>Node40</title>
<a xlink:href="../../d0/d91/b2g-info_8cpp.html#ad94350f1cec145d9fd41ae522c6c45ed" target="_top" xlink:title="print_lmk_params">
<polygon fill="white" stroke="black" points="209,-510.5 209,-531.5 303,-531.5 303,-510.5 209,-510.5"/>
<text text-anchor="middle" x="256" y="-518.5" font-family="Helvetica,sans-Serif" font-size="10.00">print_lmk_params</text>
</a>
</g>
<!-- Node2&#45;&gt;Node40 -->
<g id="edge118" class="edge"><title>Node2&#45;&gt;Node40</title>
<path fill="none" stroke="midnightblue" d="M123.746,-452.668C137.525,-465.793 162.677,-487.935 188,-501 192.286,-503.211 196.852,-505.214 201.514,-507.02"/>
<polygon fill="midnightblue" stroke="midnightblue" points="200.562,-510.396 211.156,-510.456 202.911,-503.802 200.562,-510.396"/>
</g>
<!-- Node4&#45;&gt;Node5 -->
<g id="edge8" class="edge"><title>Node4&#45;&gt;Node5</title>
<path fill="none" stroke="midnightblue" d="M305.396,-708.496C331.8,-702.882 363.925,-696.05 388.943,-690.731"/>
<polygon fill="midnightblue" stroke="midnightblue" points="389.792,-694.128 398.845,-688.625 388.336,-687.281 389.792,-694.128"/>
</g>
<!-- Node4&#45;&gt;Node7 -->
<g id="edge12" class="edge"><title>Node4&#45;&gt;Node7</title>
<path fill="none" stroke="midnightblue" d="M303.426,-708.485C310.583,-705.936 317.677,-702.812 324,-699 343.649,-687.153 343.076,-677.492 360,-662 375.413,-647.891 393.759,-633.018 407.802,-622.003"/>
<polygon fill="midnightblue" stroke="midnightblue" points="410.18,-624.587 415.924,-615.684 405.882,-619.061 410.18,-624.587"/>
</g>
<!-- Node6 -->
<g id="node11" class="node"><title>Node6</title>
<a xlink:href="../../d2/d8f/class_table.html#aa44a205cde99c5e8c54877884b1a3c0b" target="_top" xlink:title="Table::add_fmt_align">
<polygon fill="white" stroke="black" points="555.5,-671.5 555.5,-692.5 662.5,-692.5 662.5,-671.5 555.5,-671.5"/>
<text text-anchor="middle" x="609" y="-679.5" font-family="Helvetica,sans-Serif" font-size="10.00">Table::add_fmt_align</text>
</a>
</g>
<!-- Node5&#45;&gt;Node6 -->
<g id="edge10" class="edge"><title>Node5&#45;&gt;Node6</title>
<path fill="none" stroke="midnightblue" d="M461.179,-682C484.285,-682 516.575,-682 545.084,-682"/>
<polygon fill="midnightblue" stroke="midnightblue" points="545.393,-685.5 555.393,-682 545.393,-678.5 545.393,-685.5"/>
</g>
<!-- Node10 -->
<g id="node19" class="node"><title>Node10</title>
<a xlink:href="../../de/daf/class_process_list.html#afe0878d6ad8b143b0f374d2e84297554" target="_top" xlink:title="ProcessList::main_process">
<polygon fill="white" stroke="black" points="541.5,-358.5 541.5,-379.5 676.5,-379.5 676.5,-358.5 541.5,-358.5"/>
<text text-anchor="middle" x="609" y="-366.5" font-family="Helvetica,sans-Serif" font-size="10.00">ProcessList::main_process</text>
</a>
</g>
<!-- Node9&#45;&gt;Node10 -->
<g id="edge18" class="edge"><title>Node9&#45;&gt;Node10</title>
<path fill="none" stroke="midnightblue" d="M500.232,-367.785C510.369,-367.898 520.853,-368.015 531.128,-368.13"/>
<polygon fill="midnightblue" stroke="midnightblue" points="531.275,-371.632 541.314,-368.244 531.354,-364.632 531.275,-371.632"/>
</g>
<!-- Node16 -->
<g id="node31" class="node"><title>Node16</title>
<a xlink:href="../../de/daf/class_process_list.html#a16274094db38de453fa0d79f9c837704" target="_top" xlink:title="ProcessList::child_processes">
<polygon fill="white" stroke="black" points="536.5,-398.5 536.5,-419.5 681.5,-419.5 681.5,-398.5 536.5,-398.5"/>
<text text-anchor="middle" x="609" y="-406.5" font-family="Helvetica,sans-Serif" font-size="10.00">ProcessList::child_processes</text>
</a>
</g>
<!-- Node9&#45;&gt;Node16 -->
<g id="edge30" class="edge"><title>Node9&#45;&gt;Node16</title>
<path fill="none" stroke="midnightblue" d="M475.169,-377.598C499.216,-383.241 528.974,-390.223 554.319,-396.17"/>
<polygon fill="midnightblue" stroke="midnightblue" points="553.62,-399.601 564.156,-398.478 555.219,-392.786 553.62,-399.601"/>
</g>
<!-- Node11 -->
<g id="node21" class="node"><title>Node11</title>
<a xlink:href="../../de/daf/class_process_list.html#a35ff98074634bff93deff546c9d57b62" target="_top" xlink:title="ProcessList::all_processes">
<polygon fill="white" stroke="black" points="718,-395.5 718,-416.5 852,-416.5 852,-395.5 718,-395.5"/>
<text text-anchor="middle" x="785" y="-403.5" font-family="Helvetica,sans-Serif" font-size="10.00">ProcessList::all_processes</text>
</a>
</g>
<!-- Node10&#45;&gt;Node11 -->
<g id="edge20" class="edge"><title>Node10&#45;&gt;Node11</title>
<path fill="none" stroke="midnightblue" d="M658.964,-379.504C679.493,-383.82 703.443,-388.854 724.918,-393.369"/>
<polygon fill="midnightblue" stroke="midnightblue" points="724.405,-396.838 734.911,-395.47 725.845,-389.987 724.405,-396.838"/>
</g>
<!-- Node10&#45;&gt;Node15 -->
<g id="edge28" class="edge"><title>Node10&#45;&gt;Node15</title>
<path fill="none" stroke="midnightblue" d="M654.792,-358.42C663.951,-355.758 673.397,-352.611 682,-349 710.461,-337.052 740.723,-318.659 761.025,-305.387"/>
<polygon fill="midnightblue" stroke="midnightblue" points="763.212,-308.136 769.61,-299.69 759.342,-302.303 763.212,-308.136"/>
</g>
<!-- Node12 -->
<g id="node23" class="node"><title>Node12</title>
<a xlink:href="../../de/d06/utils_8cpp.html#a0fc6456d6824ff6e7fa42624077e0d84" target="_top" xlink:title="safe_opendir">
<polygon fill="white" stroke="black" points="888,-336.5 888,-357.5 960,-357.5 960,-336.5 888,-336.5"/>
<text text-anchor="middle" x="924" y="-344.5" font-family="Helvetica,sans-Serif" font-size="10.00">safe_opendir</text>
</a>
</g>
<!-- Node11&#45;&gt;Node12 -->
<g id="edge22" class="edge"><title>Node11&#45;&gt;Node12</title>
<path fill="none" stroke="midnightblue" d="M809.85,-395.452C832.048,-386.03 864.784,-372.135 889.514,-361.638"/>
<polygon fill="midnightblue" stroke="midnightblue" points="891.059,-364.785 898.896,-357.656 888.323,-358.341 891.059,-364.785"/>
</g>
<!-- Node13 -->
<g id="node25" class="node"><title>Node13</title>
<a xlink:href="../../de/d06/utils_8cpp.html#a5394673b22982035151b16fbf475e422" target="_top" xlink:title="str_to_int">
<polygon fill="white" stroke="black" points="895.5,-395.5 895.5,-416.5 952.5,-416.5 952.5,-395.5 895.5,-395.5"/>
<text text-anchor="middle" x="924" y="-403.5" font-family="Helvetica,sans-Serif" font-size="10.00">str_to_int</text>
</a>
</g>
<!-- Node11&#45;&gt;Node13 -->
<g id="edge24" class="edge"><title>Node11&#45;&gt;Node13</title>
<path fill="none" stroke="midnightblue" d="M852.057,-406C863.393,-406 874.815,-406 885.116,-406"/>
<polygon fill="midnightblue" stroke="midnightblue" points="885.394,-409.5 895.394,-406 885.394,-402.5 885.394,-409.5"/>
</g>
<!-- Node14 -->
<g id="node27" class="node"><title>Node14</title>
<a xlink:href="../../de/d06/utils_8cpp.html#a8421efed5119fd1615e48373572c0061" target="_top" xlink:title="strip">
<polygon fill="white" stroke="black" points="996.5,-395.5 996.5,-416.5 1031.5,-416.5 1031.5,-395.5 996.5,-395.5"/>
<text text-anchor="middle" x="1014" y="-403.5" font-family="Helvetica,sans-Serif" font-size="10.00">strip</text>
</a>
</g>
<!-- Node13&#45;&gt;Node14 -->
<g id="edge26" class="edge"><title>Node13&#45;&gt;Node14</title>
<path fill="none" stroke="midnightblue" d="M952.972,-406C963.574,-406 975.542,-406 986.053,-406"/>
<polygon fill="midnightblue" stroke="midnightblue" points="986.362,-409.5 996.361,-406 986.361,-402.5 986.362,-409.5"/>
</g>
<!-- Node16&#45;&gt;Node11 -->
<g id="edge32" class="edge"><title>Node16&#45;&gt;Node11</title>
<path fill="none" stroke="midnightblue" d="M681.602,-407.762C690.245,-407.615 699.093,-407.464 707.798,-407.316"/>
<polygon fill="midnightblue" stroke="midnightblue" points="707.992,-410.813 717.93,-407.143 707.872,-403.814 707.992,-410.813"/>
</g>
<!-- Node18 -->
<g id="node38" class="node"><title>Node18</title>
<a xlink:href="../../d7/d6d/class_task.html#a7e5af70039983d080361f3e3caf77bd2" target="_top" xlink:title="Task::ensure_got_stat">
<polygon fill="white" stroke="black" points="373,-0.5 373,-21.5 487,-21.5 487,-0.5 373,-0.5"/>
<text text-anchor="middle" x="430" y="-8.5" font-family="Helvetica,sans-Serif" font-size="10.00">Task::ensure_got_stat</text>
</a>
</g>
<!-- Node17&#45;&gt;Node18 -->
<g id="edge40" class="edge"><title>Node17&#45;&gt;Node18</title>
<path fill="none" stroke="midnightblue" d="M290.377,-11C311.007,-11 337.961,-11 362.679,-11"/>
<polygon fill="midnightblue" stroke="midnightblue" points="362.745,-14.5001 372.745,-11 362.745,-7.5001 362.745,-14.5001"/>
</g>
<!-- Node19 -->
<g id="node40" class="node"><title>Node19</title>
<a xlink:href="../../d7/d6d/class_task.html#aad70c410dab527475f0c89272d19159d" target="_top" xlink:title="Task::ppid">
<polygon fill="white" stroke="black" points="578,-0.5 578,-21.5 640,-21.5 640,-0.5 578,-0.5"/>
<text text-anchor="middle" x="609" y="-8.5" font-family="Helvetica,sans-Serif" font-size="10.00">Task::ppid</text>
</a>
</g>
<!-- Node18&#45;&gt;Node19 -->
<g id="edge42" class="edge"><title>Node18&#45;&gt;Node19</title>
<path fill="none" stroke="midnightblue" d="M487.129,-4.65879C513.332,-3.96854 543.814,-4.15241 567.737,-5.21039"/>
<polygon fill="midnightblue" stroke="midnightblue" points="567.724,-8.71433 577.892,-5.7375 568.087,-1.72375 567.724,-8.71433"/>
</g>
<!-- Node20 -->
<g id="node43" class="node"><title>Node20</title>
<a xlink:href="../../d7/d6d/class_task.html#a3fa3d6841978f86ac134f1267b85bdc2" target="_top" xlink:title="Task::task_id">
<polygon fill="white" stroke="black" points="571,-40.5 571,-61.5 647,-61.5 647,-40.5 571,-40.5"/>
<text text-anchor="middle" x="609" y="-48.5" font-family="Helvetica,sans-Serif" font-size="10.00">Task::task_id</text>
</a>
</g>
<!-- Node18&#45;&gt;Node20 -->
<g id="edge46" class="edge"><title>Node18&#45;&gt;Node20</title>
<path fill="none" stroke="midnightblue" d="M477.03,-21.5095C502.818,-27.2721 534.728,-34.403 560.711,-40.2092"/>
<polygon fill="midnightblue" stroke="midnightblue" points="560.194,-43.6799 570.717,-42.4451 561.721,-36.8484 560.194,-43.6799"/>
</g>
<!-- Node19&#45;&gt;Node18 -->
<g id="edge44" class="edge"><title>Node19&#45;&gt;Node18</title>
<path fill="none" stroke="midnightblue" d="M577.892,-16.2625C555.659,-17.6087 524.895,-18.0412 497.18,-17.5599"/>
<polygon fill="midnightblue" stroke="midnightblue" points="497.203,-14.0596 487.129,-17.3412 497.05,-21.058 497.203,-14.0596"/>
</g>
<!-- Node21&#45;&gt;Node18 -->
<g id="edge52" class="edge"><title>Node21&#45;&gt;Node18</title>
<path fill="none" stroke="midnightblue" d="M287.108,-43.8488C311.242,-38.3008 345.326,-30.4652 374.153,-23.8383"/>
<polygon fill="midnightblue" stroke="midnightblue" points="375.144,-27.2019 384.106,-21.5504 373.576,-20.3799 375.144,-27.2019"/>
</g>
<!-- Node24 -->
<g id="node53" class="node"><title>Node24</title>
<a xlink:href="../../de/d06/utils_8cpp.html#abc844f60102de1fc70d50005ffb97735" target="_top" xlink:title="kb_to_mb">
<polygon fill="white" stroke="black" points="400.5,-160.5 400.5,-181.5 459.5,-181.5 459.5,-160.5 400.5,-160.5"/>
<text text-anchor="middle" x="430" y="-168.5" font-family="Helvetica,sans-Serif" font-size="10.00">kb_to_mb</text>
</a>
</g>
<!-- Node23&#45;&gt;Node24 -->
<g id="edge58" class="edge"><title>Node23&#45;&gt;Node24</title>
<path fill="none" stroke="midnightblue" d="M301.716,-200.49C329.272,-194.156 364.022,-186.167 390.401,-180.103"/>
<polygon fill="midnightblue" stroke="midnightblue" points="391.466,-183.45 400.428,-177.798 389.898,-176.628 391.466,-183.45"/>
</g>
<!-- Node25 -->
<g id="node55" class="node"><title>Node25</title>
<a xlink:href="../../d1/d41/class_process.html#a4a474d8d93435dfa04b4ca6a21dcb181" target="_top" xlink:title="Process::uss_kb">
<polygon fill="white" stroke="black" points="385,-200.5 385,-221.5 475,-221.5 475,-200.5 385,-200.5"/>
<text text-anchor="middle" x="430" y="-208.5" font-family="Helvetica,sans-Serif" font-size="10.00">Process::uss_kb</text>
</a>
</g>
<!-- Node23&#45;&gt;Node25 -->
<g id="edge60" class="edge"><title>Node23&#45;&gt;Node25</title>
<path fill="none" stroke="midnightblue" d="M302.629,-211C324.814,-211 351.5,-211 374.701,-211"/>
<polygon fill="midnightblue" stroke="midnightblue" points="374.747,-214.5 384.747,-211 374.747,-207.5 374.747,-214.5"/>
</g>
<!-- Node26&#45;&gt;Node24 -->
<g id="edge64" class="edge"><title>Node26&#45;&gt;Node24</title>
<path fill="none" stroke="midnightblue" d="M302.629,-171C329.968,-171 364.141,-171 390.206,-171"/>
<polygon fill="midnightblue" stroke="midnightblue" points="390.479,-174.5 400.479,-171 390.479,-167.5 390.479,-174.5"/>
</g>
<!-- Node27 -->
<g id="node60" class="node"><title>Node27</title>
<a xlink:href="../../d1/d41/class_process.html#a1b4df06f4a34abc6b35a046678d1aec1" target="_top" xlink:title="Process::pss_kb">
<polygon fill="white" stroke="black" points="385,-120.5 385,-141.5 475,-141.5 475,-120.5 385,-120.5"/>
<text text-anchor="middle" x="430" y="-128.5" font-family="Helvetica,sans-Serif" font-size="10.00">Process::pss_kb</text>
</a>
</g>
<!-- Node26&#45;&gt;Node27 -->
<g id="edge66" class="edge"><title>Node26&#45;&gt;Node27</title>
<path fill="none" stroke="midnightblue" d="M301.716,-160.49C324.183,-155.326 351.431,-149.062 375.026,-143.638"/>
<polygon fill="midnightblue" stroke="midnightblue" points="375.928,-147.022 384.89,-141.37 374.36,-140.2 375.928,-147.022"/>
</g>
<!-- Node28&#45;&gt;Node24 -->
<g id="edge70" class="edge"><title>Node28&#45;&gt;Node24</title>
<path fill="none" stroke="midnightblue" d="M301.716,-141.51C329.272,-147.844 364.022,-155.833 390.401,-161.897"/>
<polygon fill="midnightblue" stroke="midnightblue" points="389.898,-165.372 400.428,-164.202 391.466,-158.55 389.898,-165.372"/>
</g>
<!-- Node29 -->
<g id="node65" class="node"><title>Node29</title>
<a xlink:href="../../d1/d41/class_process.html#a0c88dd980594f1d71940d26b7ad6cea8" target="_top" xlink:title="Process::rss_kb">
<polygon fill="white" stroke="black" points="386,-80.5 386,-101.5 474,-101.5 474,-80.5 386,-80.5"/>
<text text-anchor="middle" x="430" y="-88.5" font-family="Helvetica,sans-Serif" font-size="10.00">Process::rss_kb</text>
</a>
</g>
<!-- Node28&#45;&gt;Node29 -->
<g id="edge72" class="edge"><title>Node28&#45;&gt;Node29</title>
<path fill="none" stroke="midnightblue" d="M301.716,-120.49C324.447,-115.265 352.073,-108.914 375.857,-103.447"/>
<polygon fill="midnightblue" stroke="midnightblue" points="376.828,-106.815 385.79,-101.163 375.26,-99.9927 376.828,-106.815"/>
</g>
<!-- Node30&#45;&gt;Node24 -->
<g id="edge76" class="edge"><title>Node30&#45;&gt;Node24</title>
<path fill="none" stroke="midnightblue" d="M304.272,-101.56C311.167,-104.09 317.961,-107.197 324,-111 344.239,-123.746 339.712,-138.333 360,-151 369.181,-156.732 380.052,-160.867 390.455,-163.832"/>
<polygon fill="midnightblue" stroke="midnightblue" points="389.661,-167.242 400.216,-166.331 391.396,-160.46 389.661,-167.242"/>
</g>
<!-- Node31 -->
<g id="node70" class="node"><title>Node31</title>
<a xlink:href="../../d1/d41/class_process.html#a1681e85c54de948fe29f5e990fa1c56c" target="_top" xlink:title="Process::vsize_kb">
<polygon fill="white" stroke="black" points="381,-40.5 381,-61.5 479,-61.5 479,-40.5 381,-40.5"/>
<text text-anchor="middle" x="430" y="-48.5" font-family="Helvetica,sans-Serif" font-size="10.00">Process::vsize_kb</text>
</a>
</g>
<!-- Node30&#45;&gt;Node31 -->
<g id="edge78" class="edge"><title>Node30&#45;&gt;Node31</title>
<path fill="none" stroke="midnightblue" d="M301.716,-80.4905C324.007,-75.3663 351.004,-69.1601 374.47,-63.7655"/>
<polygon fill="midnightblue" stroke="midnightblue" points="375.325,-67.1602 384.287,-61.5087 373.757,-60.3382 375.325,-67.1602"/>
</g>
<!-- Node33&#45;&gt;Node15 -->
<g id="edge84" class="edge"><title>Node33&#45;&gt;Node15</title>
<path fill="none" stroke="midnightblue" d="M647.624,-289C674.66,-289 710.89,-289 739.355,-289"/>
<polygon fill="midnightblue" stroke="midnightblue" points="739.46,-292.5 749.46,-289 739.46,-285.5 739.46,-292.5"/>
</g>
<!-- Node34&#45;&gt;Node12 -->
<g id="edge88" class="edge"><title>Node34&#45;&gt;Node12</title>
<path fill="none" stroke="midnightblue" d="M654.804,-331.617C714.362,-335.021 817.824,-340.933 877.65,-344.351"/>
<polygon fill="midnightblue" stroke="midnightblue" points="877.752,-347.863 887.935,-344.939 878.151,-340.874 877.752,-347.863"/>
</g>
<!-- Node34&#45;&gt;Node13 -->
<g id="edge90" class="edge"><title>Node34&#45;&gt;Node13</title>
<path fill="none" stroke="midnightblue" d="M654.817,-339.165C703.77,-350.162 783.575,-368.479 852,-386 862.969,-388.809 874.828,-392.027 885.695,-395.049"/>
<polygon fill="midnightblue" stroke="midnightblue" points="884.768,-398.424 895.342,-397.752 886.657,-391.684 884.768,-398.424"/>
</g>
<!-- Node34&#45;&gt;Node15 -->
<g id="edge92" class="edge"><title>Node34&#45;&gt;Node15</title>
<path fill="none" stroke="midnightblue" d="M654.782,-318.595C680.858,-312.669 713.415,-305.269 739.452,-299.352"/>
<polygon fill="midnightblue" stroke="midnightblue" points="740.469,-302.71 749.445,-297.081 738.918,-295.884 740.469,-302.71"/>
</g>
<!-- Node38 -->
<g id="node88" class="node"><title>Node38</title>
<a xlink:href="../../d2/d8f/class_table.html#abbad1eb4d9f6c06b5fa6c0cea209ab6a" target="_top" xlink:title="Table::print_with_indent">
<polygon fill="white" stroke="black" points="370,-396.5 370,-417.5 490,-417.5 490,-396.5 370,-396.5"/>
<text text-anchor="middle" x="430" y="-404.5" font-family="Helvetica,sans-Serif" font-size="10.00">Table::print_with_indent</text>
</a>
</g>
<!-- Node37&#45;&gt;Node38 -->
<g id="edge100" class="edge"><title>Node37&#45;&gt;Node38</title>
<path fill="none" stroke="midnightblue" d="M288.728,-403.752C308.802,-404.214 335.293,-404.823 359.907,-405.389"/>
<polygon fill="midnightblue" stroke="midnightblue" points="359.874,-408.889 369.952,-405.62 360.035,-401.891 359.874,-408.889"/>
</g>
<!-- Node39&#45;&gt;Node5 -->
<g id="edge106" class="edge"><title>Node39&#45;&gt;Node5</title>
<path fill="none" stroke="midnightblue" d="M310.801,-491.54C315.661,-494.057 320.178,-497.165 324,-501 364.508,-541.649 328.312,-577.155 360,-625 370.965,-641.555 388.223,-655.686 402.859,-665.736"/>
<polygon fill="midnightblue" stroke="midnightblue" points="401.275,-668.883 411.554,-671.452 405.12,-663.034 401.275,-668.883"/>
</g>
<!-- Node39&#45;&gt;Node7 -->
<g id="edge104" class="edge"><title>Node39&#45;&gt;Node7</title>
<path fill="none" stroke="midnightblue" d="M305.576,-491.597C312.068,-494.107 318.4,-497.199 324,-501 345.479,-515.581 341.9,-528.389 360,-547 374.67,-562.085 393.047,-577.189 407.29,-588.201"/>
<polygon fill="midnightblue" stroke="midnightblue" points="405.477,-591.22 415.554,-594.492 409.717,-585.65 405.477,-591.22"/>
</g>
<!-- Node39&#45;&gt;Node8 -->
<g id="edge112" class="edge"><title>Node39&#45;&gt;Node8</title>
<path fill="none" stroke="midnightblue" d="M312.199,-491.677C316.598,-494.178 320.632,-497.244 324,-501 384.588,-568.569 330.651,-616.122 360,-702 374.752,-745.165 401.737,-791.481 417.546,-816.775"/>
<polygon fill="midnightblue" stroke="midnightblue" points="414.697,-818.819 423.008,-825.39 420.609,-815.071 414.697,-818.819"/>
</g>
<!-- Node39&#45;&gt;Node9 -->
<g id="edge114" class="edge"><title>Node39&#45;&gt;Node9</title>
<path fill="none" stroke="midnightblue" d="M269.047,-470.393C282.934,-458.983 305.422,-440.162 324,-423 340.621,-407.646 340.498,-398.475 360,-387 363.615,-384.873 367.469,-382.961 371.44,-381.245"/>
<polygon fill="midnightblue" stroke="midnightblue" points="372.805,-384.469 380.858,-377.584 370.27,-377.944 372.805,-384.469"/>
</g>
<!-- Node39&#45;&gt;Node22 -->
<g id="edge108" class="edge"><title>Node39&#45;&gt;Node22</title>
<path fill="none" stroke="midnightblue" d="M310.101,-470.429C332.062,-466.137 357.303,-461.205 378.944,-456.976"/>
<polygon fill="midnightblue" stroke="midnightblue" points="379.785,-460.378 388.928,-455.026 378.442,-453.508 379.785,-460.378"/>
</g>
<!-- Node39&#45;&gt;Node24 -->
<g id="edge110" class="edge"><title>Node39&#45;&gt;Node24</title>
<path fill="none" stroke="midnightblue" d="M274.545,-470.454C290.397,-460.397 312.426,-443.728 324,-423 374.873,-331.896 290.944,-269.225 360,-191 367.763,-182.206 379.098,-177.159 390.395,-174.299"/>
<polygon fill="midnightblue" stroke="midnightblue" points="391.115,-177.725 400.222,-172.309 389.726,-170.864 391.115,-177.725"/>
</g>
<!-- Node39&#45;&gt;Node38 -->
<g id="edge116" class="edge"><title>Node39&#45;&gt;Node38</title>
<path fill="none" stroke="midnightblue" d="M273.889,-470.299C294.207,-458.482 328.62,-439.483 360,-427 365.78,-424.701 371.925,-422.546 378.081,-420.566"/>
<polygon fill="midnightblue" stroke="midnightblue" points="379.185,-423.888 387.713,-417.601 377.126,-417.198 379.185,-423.888"/>
</g>
<!-- Node40&#45;&gt;Node5 -->
<g id="edge128" class="edge"><title>Node40&#45;&gt;Node5</title>
<path fill="none" stroke="midnightblue" d="M303.085,-528.919C310.69,-531.787 318.018,-535.69 324,-541 354.376,-567.965 335.544,-592.571 360,-625 372.113,-641.061 389.677,-655.346 404.181,-665.599"/>
<polygon fill="midnightblue" stroke="midnightblue" points="402.507,-668.694 412.74,-671.441 406.454,-662.912 402.507,-668.694"/>
</g>
<!-- Node40&#45;&gt;Node7 -->
<g id="edge126" class="edge"><title>Node40&#45;&gt;Node7</title>
<path fill="none" stroke="midnightblue" d="M303.157,-531.242C310.424,-533.832 317.623,-537.04 324,-541 344.039,-553.444 340.323,-566.99 360,-580 366.216,-584.11 373.19,-587.638 380.264,-590.638"/>
<polygon fill="midnightblue" stroke="midnightblue" points="379.321,-594.027 389.909,-594.405 381.868,-587.507 379.321,-594.027"/>
</g>
<!-- Node40&#45;&gt;Node13 -->
<g id="edge120" class="edge"><title>Node40&#45;&gt;Node13</title>
<path fill="none" stroke="midnightblue" d="M289.33,-531.547C309.543,-537.385 335.987,-544.044 360,-547 421.756,-554.603 438.578,-556.945 500,-547 651.394,-522.487 821.828,-451.743 891.602,-420.793"/>
<polygon fill="midnightblue" stroke="midnightblue" points="893.064,-423.973 900.767,-416.699 890.209,-417.582 893.064,-423.973"/>
</g>
<!-- Node40&#45;&gt;Node22 -->
<g id="edge130" class="edge"><title>Node40&#45;&gt;Node22</title>
<path fill="none" stroke="midnightblue" d="M302.569,-510.499C309.985,-507.933 317.384,-504.8 324,-501 343.083,-490.037 340.875,-477.889 360,-467 365.904,-463.639 372.414,-460.807 379.016,-458.431"/>
<polygon fill="midnightblue" stroke="midnightblue" points="380.277,-461.702 388.695,-455.268 378.102,-455.048 380.277,-461.702"/>
</g>
<!-- Node40&#45;&gt;Node38 -->
<g id="edge132" class="edge"><title>Node40&#45;&gt;Node38</title>
<path fill="none" stroke="midnightblue" d="M303.228,-512.707C310.73,-509.879 317.987,-506.086 324,-501 351.926,-477.381 331.983,-450.51 360,-427 361.991,-425.329 364.113,-423.798 366.334,-422.395"/>
<polygon fill="midnightblue" stroke="midnightblue" points="368.146,-425.395 375.311,-417.59 364.843,-419.223 368.146,-425.395"/>
</g>
<!-- Node41 -->
<g id="node102" class="node"><title>Node41</title>
<a xlink:href="../../d0/d91/b2g-info_8cpp.html#a4955454c83f8a998c0d85dee9ed28883" target="_top" xlink:title="read_whole_file">
<polygon fill="white" stroke="black" points="388,-476.5 388,-497.5 472,-497.5 472,-476.5 388,-476.5"/>
<text text-anchor="middle" x="430" y="-484.5" font-family="Helvetica,sans-Serif" font-size="10.00">read_whole_file</text>
</a>
</g>
<!-- Node40&#45;&gt;Node41 -->
<g id="edge122" class="edge"><title>Node40&#45;&gt;Node41</title>
<path fill="none" stroke="midnightblue" d="M303.087,-511.799C326.248,-507.273 354.228,-501.806 378.015,-497.158"/>
<polygon fill="midnightblue" stroke="midnightblue" points="378.784,-500.574 387.927,-495.221 377.442,-493.704 378.784,-500.574"/>
</g>
<!-- Node42 -->
<g id="node104" class="node"><title>Node42</title>
<a xlink:href="../../de/d06/utils_8cpp.html#a8dfb30005f01c1cabee86220ab29945d" target="_top" xlink:title="pages_to_kb">
<polygon fill="white" stroke="black" points="394,-516.5 394,-537.5 466,-537.5 466,-516.5 394,-516.5"/>
<text text-anchor="middle" x="430" y="-524.5" font-family="Helvetica,sans-Serif" font-size="10.00">pages_to_kb</text>
</a>
</g>
<!-- Node40&#45;&gt;Node42 -->
<g id="edge124" class="edge"><title>Node40&#45;&gt;Node42</title>
<path fill="none" stroke="midnightblue" d="M303.087,-522.624C328.097,-523.486 358.727,-524.542 383.629,-525.401"/>
<polygon fill="midnightblue" stroke="midnightblue" points="383.803,-528.909 393.917,-525.756 384.044,-521.913 383.803,-528.909"/>
</g>
<!-- Node43&#45;&gt;Node8 -->
<g id="edge136" class="edge"><title>Node43&#45;&gt;Node8</title>
<path fill="none" stroke="midnightblue" d="M296.356,-865.955C319.223,-860.829 348.192,-854.336 373.309,-848.707"/>
<polygon fill="midnightblue" stroke="midnightblue" points="374.093,-852.118 383.085,-846.515 372.562,-845.287 374.093,-852.118"/>
</g>
<!-- Node43&#45;&gt;Node16 -->
<g id="edge138" class="edge"><title>Node43&#45;&gt;Node16</title>
<path fill="none" stroke="midnightblue" d="M296.303,-885.244C349.922,-896.236 444.4,-906.009 500,-856 565.2,-797.355 515.82,-747.341 536,-662 556.709,-574.418 588.737,-471.923 602.429,-429.244"/>
<polygon fill="midnightblue" stroke="midnightblue" points="605.83,-430.099 605.568,-419.507 599.168,-427.951 605.83,-430.099"/>
</g>
</g>
</svg>
        <g id="navigator" transform="translate(0 0)" fill="#404254">
                <rect fill="#f2f5e9" fill-opacity="0.5" stroke="#606060" stroke-width=".5" x="0" y="0" width="60" height="60"/>
                <use id="zoomplus" xlink:href="#zoomPlus" x="17" y="9" onmousedown="handleZoom(evt,'in')"/>
                <use id="zoomminus" xlink:href="#zoomMin" x="42" y="9" onmousedown="handleZoom(evt,'out')"/>
                <use id="reset" xlink:href="#resetDef" x="30" y="36" onmousedown="handleReset()"/>
                <g id="arrowUp" xlink:href="#dirArrow" transform="translate(30 24)" onmousedown="handlePan(0,-1)">
                  <use xlink:href="#rim" fill="#404040">
                        <set attributeName="fill" to="#808080" begin="arrowUp.mouseover" end="arrowUp.mouseout"/>
                  </use>
                  <path fill="none" stroke="white" stroke-width="1.5" d="M0,-3.0v7 M-2.5,-0.5L0,-3.0L2.5,-0.5"/>
                </g>
                <g id="arrowRight" xlink:href="#dirArrow" transform="rotate(90) translate(36 -43)" onmousedown="handlePan(1,0)">
                  <use xlink:href="#rim" fill="#404040">
                        <set attributeName="fill" to="#808080" begin="arrowRight.mouseover" end="arrowRight.mouseout"/>
                  </use>
                  <path fill="none" stroke="white" stroke-width="1.5" d="M0,-3.0v7 M-2.5,-0.5L0,-3.0L2.5,-0.5"/>
                </g>
                <g id="arrowDown" xlink:href="#dirArrow" transform="rotate(180) translate(-30 -48)" onmousedown="handlePan(0,1)">
                  <use xlink:href="#rim" fill="#404040">
                        <set attributeName="fill" to="#808080" begin="arrowDown.mouseover" end="arrowDown.mouseout"/>
                  </use>
                  <path fill="none" stroke="white" stroke-width="1.5" d="M0,-3.0v7 M-2.5,-0.5L0,-3.0L2.5,-0.5"/>
                </g>
                <g id="arrowLeft" xlink:href="#dirArrow" transform="rotate(270) translate(-36 17)" onmousedown="handlePan(-1,0)">
                  <use xlink:href="#rim" fill="#404040">
                        <set attributeName="fill" to="#808080" begin="arrowLeft.mouseover" end="arrowLeft.mouseout"/>
                  </use>
                  <path fill="none" stroke="white" stroke-width="1.5" d="M0,-3.0v7 M-2.5,-0.5L0,-3.0L2.5,-0.5"/>
                </g>
        </g>
</svg>
