<?xml version="1.0" encoding="UTF-8" standalone="no"?>
<!DOCTYPE svg PUBLIC "-//W3C//DTD SVG 1.1//EN"
 "http://www.w3.org/Graphics/SVG/1.1/DTD/svg11.dtd">
<!-- Generated by graphviz version 2.26.3 (20100126.1600)
 -->
<!-- Title: G Pages: 1 -->
<!--zoomable 870 -->
<svg id="main" version="1.1" xmlns="http://www.w3.org/2000/svg" xmlns:xlink="http://www.w3.org/1999/xlink" xml:space="preserve" onload="init(evt)">
        <defs>
                <circle id="rim" cx="0" cy="0" r="7"/>
                <circle id="rim2" cx="0" cy="0" r="3.5"/>
                <g id="zoomPlus">
                        <use xlink:href="#rim" fill="#404040">
                                <set attributeName="fill" to="#808080" begin="zoomplus.mouseover" end="zoomplus.mouseout"/>
                        </use>
                        <path d="M-4,0h8M0,-4v8" fill="none" stroke="white" stroke-width="1.5" pointer-events="none"/>
                </g>
                <g id="zoomMin">
                        <use xlink:href="#rim" fill="#404040">
                                <set attributeName="fill" to="#808080" begin="zoomminus.mouseover" end="zoomminus.mouseout"/>
                        </use>
                        <path d="M-4,0h8" fill="none" stroke="white" stroke-width="1.5" pointer-events="none"/>
                </g>
                <g id="dirArrow">
                        <path fill="none" stroke="white" stroke-width="1.5" d="M0,-3.0v7 M-2.5,-0.5L0,-3.0L2.5,-0.5"/>
                </g>
               <g id="resetDef">
                       <use xlink:href="#rim2" fill="#404040">
                               <set attributeName="fill" to="#808080" begin="reset.mouseover" end="reset.mouseout"/>
                       </use>
               </g>
        </defs>

<script type="text/javascript">
var viewWidth = 966;
var viewHeight = 870;
var sectionId = 'dynsection-4';
</script>
<script xlink:href="../../svgpan.js"/>
<svg id="graph" class="graph">
<g id="viewport">
<title>G</title>
<polygon fill="white" stroke="white" points="-4,5 -4,-865.804 963,-865.804 963,5 -4,5"/>
<!-- Node1 -->
<g id="node1" class="node"><title>Node1</title>
<polygon fill="#bfbfbf" stroke="black" points="0.5,-418.5 0.5,-439.5 77.5,-439.5 77.5,-418.5 0.5,-418.5"/>
<text text-anchor="middle" x="39" y="-426.5" font-family="Helvetica,sans-Serif" font-size="10.00">print_b2g_info</text>
</g>
<!-- Node2 -->
<g id="node3" class="node"><title>Node2</title>
<a xlink:href="../../d2/d8f/class_table.html#ae9bd2e6532ab16a8f3f2a4a73786160b" target="_top" xlink:title="Table::add">
<polygon fill="white" stroke="black" points="325,-832.5 325,-853.5 387,-853.5 387,-832.5 325,-832.5"/>
<text text-anchor="middle" x="356" y="-840.5" font-family="Helvetica,sans-Serif" font-size="10.00">Table::add</text>
</a>
</g>
<!-- Node1&#45;&gt;Node2 -->
<g id="edge2" class="edge"><title>Node1&#45;&gt;Node2</title>
<path fill="none" stroke="midnightblue" d="M39.363,-439.821C41.541,-497.671 54.8556,-769.796 114,-823 168.766,-872.266 261.518,-863.595 314.883,-853.126"/>
<polygon fill="midnightblue" stroke="midnightblue" points="315.607,-856.55 324.69,-851.094 314.187,-849.696 315.607,-856.55"/>
</g>
<!-- Node4 -->
<g id="node7" class="node"><title>Node4</title>
<a xlink:href="../../d2/d8f/class_table.html#aaeec241cb19d85082765f6c577724854" target="_top" xlink:title="Table::add_delimiter">
<polygon fill="white" stroke="black" points="130,-200.5 130,-221.5 234,-221.5 234,-200.5 130,-200.5"/>
<text text-anchor="middle" x="182" y="-208.5" font-family="Helvetica,sans-Serif" font-size="10.00">Table::add_delimiter</text>
</a>
</g>
<!-- Node1&#45;&gt;Node4 -->
<g id="edge6" class="edge"><title>Node1&#45;&gt;Node4</title>
<path fill="none" stroke="midnightblue" d="M39.8196,-418.158C42.9176,-384.995 56.8421,-283.969 114,-231 116.158,-229 118.505,-227.2 120.989,-225.579"/>
<polygon fill="midnightblue" stroke="midnightblue" points="122.775,-228.591 129.876,-220.729 119.422,-222.447 122.775,-228.591"/>
</g>
<!-- Node5 -->
<g id="node9" class="node"><title>Node5</title>
<a xlink:href="../../d2/d8f/class_table.html#aae5a04f4d32ac6f8f293d45c97992853" target="_top" xlink:title="Table::add_fmt">
<polygon fill="white" stroke="black" points="315,-634.5 315,-655.5 397,-655.5 397,-634.5 315,-634.5"/>
<text text-anchor="middle" x="356" y="-642.5" font-family="Helvetica,sans-Serif" font-size="10.00">Table::add_fmt</text>
</a>
</g>
<!-- Node1&#45;&gt;Node5 -->
<g id="edge8" class="edge"><title>Node1&#45;&gt;Node5</title>
<path fill="none" stroke="midnightblue" d="M40.7498,-439.563C47.8928,-481.267 76.2644,-633.541 114,-661 143.348,-682.356 242.922,-667.691 304.824,-655.836"/>
<polygon fill="midnightblue" stroke="midnightblue" points="305.65,-659.241 314.794,-653.889 304.308,-652.371 305.65,-659.241"/>
</g>
<!-- Node6 -->
<g id="node11" class="node"><title>Node6</title>
<a xlink:href="../../de/daf/class_process_list.html#a50e6f4206a8d67e3639f8af25cff4395" target="_top" xlink:title="ProcessList::b2g_processes">
<polygon fill="white" stroke="black" points="286,-554.5 286,-575.5 426,-575.5 426,-554.5 286,-554.5"/>
<text text-anchor="middle" x="356" y="-562.5" font-family="Helvetica,sans-Serif" font-size="10.00">ProcessList::b2g_processes</text>
</a>
</g>
<!-- Node1&#45;&gt;Node6 -->
<g id="edge10" class="edge"><title>Node1&#45;&gt;Node6</title>
<path fill="none" stroke="midnightblue" d="M43.592,-439.52C53.267,-460.306 77.8729,-506.487 114,-528 162.599,-556.94 226.068,-565.79 275.814,-567.617"/>
<polygon fill="midnightblue" stroke="midnightblue" points="275.797,-571.117 285.891,-567.898 275.993,-564.12 275.797,-571.117"/>
</g>
<!-- Node12 -->
<g id="node23" class="node"><title>Node12</title>
<a xlink:href="../../d1/d41/class_process.html#a4be0403d5862318cde4444476eac0c7b" target="_top" xlink:title="Process::pid">
<polygon fill="white" stroke="black" points="675.5,-438.5 675.5,-459.5 746.5,-459.5 746.5,-438.5 675.5,-438.5"/>
<text text-anchor="middle" x="711" y="-446.5" font-family="Helvetica,sans-Serif" font-size="10.00">Process::pid</text>
</a>
</g>
<!-- Node1&#45;&gt;Node12 -->
<g id="edge52" class="edge"><title>Node1&#45;&gt;Node12</title>
<path fill="none" stroke="midnightblue" d="M77.7614,-426.413C169.944,-420.823 409.399,-409.617 608,-429 626.944,-430.849 647.584,-434.521 665.378,-438.219"/>
<polygon fill="midnightblue" stroke="midnightblue" points="664.981,-441.713 675.493,-440.386 666.448,-434.869 664.981,-441.713"/>
</g>
<!-- Node14 -->
<g id="node28" class="node"><title>Node14</title>
<a xlink:href="../../d0/d91/b2g-info_8cpp.html#ac34fe09044970be2eb915ce7cf2398a7" target="_top" xlink:title="b2g_ps_add_table_headers">
<polygon fill="white" stroke="black" points="114.5,-792.5 114.5,-813.5 249.5,-813.5 249.5,-792.5 114.5,-792.5"/>
<text text-anchor="middle" x="182" y="-800.5" font-family="Helvetica,sans-Serif" font-size="10.00">b2g_ps_add_table_headers</text>
</a>
</g>
<!-- Node1&#45;&gt;Node14 -->
<g id="edge28" class="edge"><title>Node1&#45;&gt;Node14</title>
<path fill="none" stroke="midnightblue" d="M39.943,-439.682C44.7875,-492.338 68.433,-723.871 114,-777 117.6,-781.197 121.955,-784.719 126.703,-787.674"/>
<polygon fill="midnightblue" stroke="midnightblue" points="125.122,-790.797 135.594,-792.404 128.409,-784.618 125.122,-790.797"/>
</g>
<!-- Node15 -->
<g id="node31" class="node"><title>Node15</title>
<a xlink:href="../../d2/d8f/class_table.html#aaa79e859aad704c4650914889b9e5598" target="_top" xlink:title="Table::start_row">
<polygon fill="white" stroke="black" points="312.5,-792.5 312.5,-813.5 399.5,-813.5 399.5,-792.5 312.5,-792.5"/>
<text text-anchor="middle" x="356" y="-800.5" font-family="Helvetica,sans-Serif" font-size="10.00">Table::start_row</text>
</a>
</g>
<!-- Node1&#45;&gt;Node15 -->
<g id="edge104" class="edge"><title>Node1&#45;&gt;Node15</title>
<path fill="none" stroke="midnightblue" d="M40.098,-439.653C45.4115,-489.175 70.0145,-696.354 114,-741 127.3,-754.5 235.239,-778.465 302.393,-792.314"/>
<polygon fill="midnightblue" stroke="midnightblue" points="301.895,-795.784 312.394,-794.364 303.301,-788.927 301.895,-795.784"/>
</g>
<!-- Node16 -->
<g id="node33" class="node"><title>Node16</title>
<a xlink:href="../../d2/d8f/class_table.html#ac0fe0911280d47b403b52c6082938a52" target="_top" xlink:title="Table::multi_col_header">
<polygon fill="white" stroke="black" points="122,-160.5 122,-181.5 242,-181.5 242,-160.5 122,-160.5"/>
<text text-anchor="middle" x="182" y="-168.5" font-family="Helvetica,sans-Serif" font-size="10.00">Table::multi_col_header</text>
</a>
</g>
<!-- Node1&#45;&gt;Node16 -->
<g id="edge34" class="edge"><title>Node1&#45;&gt;Node16</title>
<path fill="none" stroke="midnightblue" d="M40.9597,-418.469C48.902,-376.845 79.9034,-224.447 114,-191 115.449,-189.578 116.995,-188.256 118.617,-187.028"/>
<polygon fill="midnightblue" stroke="midnightblue" points="120.648,-189.886 127.288,-181.63 116.949,-183.944 120.648,-189.886"/>
</g>
<!-- Node17 -->
<g id="node35" class="node"><title>Node17</title>
<a xlink:href="../../d7/d6d/class_task.html#a75d6a9e53bd83d443dff2b4a9d1faf7e" target="_top" xlink:title="Task::name">
<polygon fill="white" stroke="black" points="148,-120.5 148,-141.5 216,-141.5 216,-120.5 148,-120.5"/>
<text text-anchor="middle" x="182" y="-128.5" font-family="Helvetica,sans-Serif" font-size="10.00">Task::name</text>
</a>
</g>
<!-- Node1&#45;&gt;Node17 -->
<g id="edge36" class="edge"><title>Node1&#45;&gt;Node17</title>
<path fill="none" stroke="midnightblue" d="M40.475,-418.319C47.0437,-372.223 75.0338,-190.855 114,-151 120.507,-144.344 129.106,-139.876 137.991,-136.883"/>
<polygon fill="midnightblue" stroke="midnightblue" points="138.972,-140.243 147.661,-134.181 137.088,-133.501 138.972,-140.243"/>
</g>
<!-- Node21 -->
<g id="node44" class="node"><title>Node21</title>
<a xlink:href="../../d7/d6d/class_task.html#ac7b46fd963ad1e0f7bc8c260ba31121c" target="_top" xlink:title="Task::nice">
<polygon fill="white" stroke="black" points="151,-80.5 151,-101.5 213,-101.5 213,-80.5 151,-80.5"/>
<text text-anchor="middle" x="182" y="-88.5" font-family="Helvetica,sans-Serif" font-size="10.00">Task::nice</text>
</a>
</g>
<!-- Node1&#45;&gt;Node21 -->
<g id="edge46" class="edge"><title>Node1&#45;&gt;Node21</title>
<path fill="none" stroke="midnightblue" d="M40.1027,-418.178C45.4375,-367.869 70.1218,-157.334 114,-111 121.108,-103.495 130.872,-98.7614 140.785,-95.789"/>
<polygon fill="midnightblue" stroke="midnightblue" points="141.776,-99.1496 150.654,-93.3663 140.108,-92.3514 141.776,-99.1496"/>
</g>
<!-- Node22 -->
<g id="node47" class="node"><title>Node22</title>
<a xlink:href="../../d1/d41/class_process.html#a564adaff3c401aa19bf673af81344b4f" target="_top" xlink:title="Process::oom_adj">
<polygon fill="white" stroke="black" points="134.5,-40.5 134.5,-61.5 229.5,-61.5 229.5,-40.5 134.5,-40.5"/>
<text text-anchor="middle" x="182" y="-48.5" font-family="Helvetica,sans-Serif" font-size="10.00">Process::oom_adj</text>
</a>
</g>
<!-- Node1&#45;&gt;Node22 -->
<g id="edge50" class="edge"><title>Node1&#45;&gt;Node22</title>
<path fill="none" stroke="midnightblue" d="M39.7868,-418.297C43.9513,-364.481 65.1021,-123.951 114,-71 117.185,-67.5505 120.932,-64.685 125.002,-62.306"/>
<polygon fill="midnightblue" stroke="midnightblue" points="126.826,-65.3128 134.334,-57.8373 123.803,-58.9992 126.826,-65.3128"/>
</g>
<!-- Node23 -->
<g id="node50" class="node"><title>Node23</title>
<a xlink:href="../../d2/d8f/class_table.html#a0de5a9ca880b662ec7d608de686e309a" target="_top" xlink:title="Table::print">
<polygon fill="white" stroke="black" points="149.5,-590.5 149.5,-611.5 214.5,-611.5 214.5,-590.5 149.5,-590.5"/>
<text text-anchor="middle" x="182" y="-598.5" font-family="Helvetica,sans-Serif" font-size="10.00">Table::print</text>
</a>
</g>
<!-- Node1&#45;&gt;Node23 -->
<g id="edge54" class="edge"><title>Node1&#45;&gt;Node23</title>
<path fill="none" stroke="midnightblue" d="M41.5126,-439.537C48.4004,-466.206 70.0637,-537.022 114,-576 121.333,-582.505 130.502,-587.366 139.711,-590.982"/>
<polygon fill="midnightblue" stroke="midnightblue" points="138.652,-594.319 149.246,-594.315 140.962,-587.711 138.652,-594.319"/>
</g>
<!-- Node25 -->
<g id="node54" class="node"><title>Node25</title>
<a xlink:href="../../d0/d91/b2g-info_8cpp.html#ad94350f1cec145d9fd41ae522c6c45ed" target="_top" xlink:title="print_lmk_params">
<polygon fill="white" stroke="black" points="135,-710.5 135,-731.5 229,-731.5 229,-710.5 135,-710.5"/>
<text text-anchor="middle" x="182" y="-718.5" font-family="Helvetica,sans-Serif" font-size="10.00">print_lmk_params</text>
</a>
</g>
<!-- Node1&#45;&gt;Node25 -->
<g id="edge58" class="edge"><title>Node1&#45;&gt;Node25</title>
<path fill="none" stroke="midnightblue" d="M40.7355,-439.697C48.1524,-484.252 78.4364,-654.604 114,-694 118.245,-698.703 123.417,-702.598 128.994,-705.821"/>
<polygon fill="midnightblue" stroke="midnightblue" points="127.508,-708.992 138.015,-710.354 130.651,-702.737 127.508,-708.992"/>
</g>
<!-- Node28 -->
<g id="node65" class="node"><title>Node28</title>
<a xlink:href="../../d0/d91/b2g-info_8cpp.html#a21a526f63654418c49b074caf7feb59d" target="_top" xlink:title="print_system_meminfo">
<polygon fill="white" stroke="black" points="124,-630.5 124,-651.5 240,-651.5 240,-630.5 124,-630.5"/>
<text text-anchor="middle" x="182" y="-638.5" font-family="Helvetica,sans-Serif" font-size="10.00">print_system_meminfo</text>
</a>
</g>
<!-- Node1&#45;&gt;Node28 -->
<g id="edge74" class="edge"><title>Node1&#45;&gt;Node28</title>
<path fill="none" stroke="midnightblue" d="M39.9301,-439.521C43.3462,-471.7 58.0887,-569.719 114,-621 115.695,-622.554 117.504,-623.988 119.403,-625.311"/>
<polygon fill="midnightblue" stroke="midnightblue" points="117.814,-628.435 128.219,-630.429 121.328,-622.382 117.814,-628.435"/>
</g>
<!-- Node30 -->
<g id="node72" class="node"><title>Node30</title>
<a xlink:href="../../de/daf/class_process_list.html#a7ec48f71aab61004f16e35e12f583f99" target="_top" xlink:title="ProcessList::singleton">
<polygon fill="white" stroke="black" points="299.5,-514.5 299.5,-535.5 412.5,-535.5 412.5,-514.5 299.5,-514.5"/>
<text text-anchor="middle" x="356" y="-522.5" font-family="Helvetica,sans-Serif" font-size="10.00">ProcessList::singleton</text>
</a>
</g>
<!-- Node1&#45;&gt;Node30 -->
<g id="edge102" class="edge"><title>Node1&#45;&gt;Node30</title>
<path fill="none" stroke="midnightblue" d="M46.5437,-439.687C58.6692,-455.91 84.1817,-486.308 114,-500 169.122,-525.312 238.554,-530.093 288.895,-529.412"/>
<polygon fill="midnightblue" stroke="midnightblue" points="289.093,-532.908 299.017,-529.198 288.945,-525.91 289.093,-532.908"/>
</g>
<!-- Node31 -->
<g id="node76" class="node"><title>Node31</title>
<a xlink:href="../../d1/d41/class_process.html#a8d5342e6338a7baba3c991465b0fc81d" target="_top" xlink:title="Process::pss_mb">
<polygon fill="white" stroke="black" points="135.5,-360.5 135.5,-381.5 228.5,-381.5 228.5,-360.5 135.5,-360.5"/>
<text text-anchor="middle" x="182" y="-368.5" font-family="Helvetica,sans-Serif" font-size="10.00">Process::pss_mb</text>
</a>
</g>
<!-- Node1&#45;&gt;Node31 -->
<g id="edge90" class="edge"><title>Node1&#45;&gt;Node31</title>
<path fill="none" stroke="midnightblue" d="M62.1522,-418.368C76.8957,-411.708 96.4537,-403.078 114,-396 123.177,-392.298 133.136,-388.511 142.529,-385.04"/>
<polygon fill="midnightblue" stroke="midnightblue" points="143.867,-388.277 152.056,-381.554 141.462,-381.703 143.867,-388.277"/>
</g>
<!-- Node33 -->
<g id="node81" class="node"><title>Node33</title>
<a xlink:href="../../d1/d41/class_process.html#a4b6fa50eea085f44801a70d77732911e" target="_top" xlink:title="Process::rss_mb">
<polygon fill="white" stroke="black" points="136.5,-320.5 136.5,-341.5 227.5,-341.5 227.5,-320.5 136.5,-320.5"/>
<text text-anchor="middle" x="182" y="-328.5" font-family="Helvetica,sans-Serif" font-size="10.00">Process::rss_mb</text>
</a>
</g>
<!-- Node1&#45;&gt;Node33 -->
<g id="edge96" class="edge"><title>Node1&#45;&gt;Node33</title>
<path fill="none" stroke="midnightblue" d="M46.2511,-418.49C58.3529,-401.737 84.2901,-369.033 114,-351 118.06,-348.536 122.441,-346.36 126.955,-344.442"/>
<polygon fill="midnightblue" stroke="midnightblue" points="128.251,-347.693 136.344,-340.856 125.753,-341.154 128.251,-347.693"/>
</g>
<!-- Node35 -->
<g id="node88" class="node"><title>Node35</title>
<a xlink:href="../../d1/d41/class_process.html#add7d75128dca5994f9b93709d7273037" target="_top" xlink:title="Process::threads">
<polygon fill="white" stroke="black" points="489.5,-478.5 489.5,-499.5 580.5,-499.5 580.5,-478.5 489.5,-478.5"/>
<text text-anchor="middle" x="535" y="-486.5" font-family="Helvetica,sans-Serif" font-size="10.00">Process::threads</text>
</a>
</g>
<!-- Node1&#45;&gt;Node35 -->
<g id="edge106" class="edge"><title>Node1&#45;&gt;Node35</title>
<path fill="none" stroke="midnightblue" d="M76.1468,-439.591C88.1454,-442.694 101.561,-445.832 114,-448 243.472,-470.571 397.67,-481.621 478.748,-486.228"/>
<polygon fill="midnightblue" stroke="midnightblue" points="479.039,-489.75 489.218,-486.81 479.428,-482.76 479.039,-489.75"/>
</g>
<!-- Node36 -->
<g id="node93" class="node"><title>Node36</title>
<a xlink:href="../../d8/d18/class_thread.html#a534615d23524caac8270febc60d297ed" target="_top" xlink:title="Thread::tid">
<polygon fill="white" stroke="black" points="150.5,-0.5 150.5,-21.5 213.5,-21.5 213.5,-0.5 150.5,-0.5"/>
<text text-anchor="middle" x="182" y="-8.5" font-family="Helvetica,sans-Serif" font-size="10.00">Thread::tid</text>
</a>
</g>
<!-- Node1&#45;&gt;Node36 -->
<g id="edge114" class="edge"><title>Node1&#45;&gt;Node36</title>
<path fill="none" stroke="midnightblue" d="M39.5445,-418.271C42.6677,-360.882 60.0998,-90.5665 114,-31 120.935,-23.3354 130.641,-18.5474 140.552,-15.5734"/>
<polygon fill="midnightblue" stroke="midnightblue" points="141.549,-18.9329 150.436,-13.1647 139.892,-12.1319 141.549,-18.9329"/>
</g>
<!-- Node37 -->
<g id="node95" class="node"><title>Node37</title>
<a xlink:href="../../d1/d41/class_process.html#aa223046bc6b2f974ecf5c29fcef3db5b" target="_top" xlink:title="Process::user">
<polygon fill="white" stroke="black" points="496.5,-438.5 496.5,-459.5 573.5,-459.5 573.5,-438.5 496.5,-438.5"/>
<text text-anchor="middle" x="535" y="-446.5" font-family="Helvetica,sans-Serif" font-size="10.00">Process::user</text>
</a>
</g>
<!-- Node1&#45;&gt;Node37 -->
<g id="edge116" class="edge"><title>Node1&#45;&gt;Node37</title>
<path fill="none" stroke="midnightblue" d="M77.5076,-430.553C166.669,-434.148 387.197,-443.04 485.885,-447.02"/>
<polygon fill="midnightblue" stroke="midnightblue" points="486.042,-450.529 496.175,-447.434 486.324,-443.534 486.042,-450.529"/>
</g>
<!-- Node38 -->
<g id="node98" class="node"><title>Node38</title>
<a xlink:href="../../d1/d41/class_process.html#affcdf07d032c70295f1f49bf3caa81d0" target="_top" xlink:title="Process::uss_mb">
<polygon fill="white" stroke="black" points="135.5,-280.5 135.5,-301.5 228.5,-301.5 228.5,-280.5 135.5,-280.5"/>
<text text-anchor="middle" x="182" y="-288.5" font-family="Helvetica,sans-Serif" font-size="10.00">Process::uss_mb</text>
</a>
</g>
<!-- Node1&#45;&gt;Node38 -->
<g id="edge120" class="edge"><title>Node1&#45;&gt;Node38</title>
<path fill="none" stroke="midnightblue" d="M42.7593,-418.376C51.4952,-395.241 75.4091,-340.054 114,-311 117.637,-308.261 121.644,-305.897 125.837,-303.855"/>
<polygon fill="midnightblue" stroke="midnightblue" points="127.393,-306.997 135.242,-299.882 124.669,-300.549 127.393,-306.997"/>
</g>
<!-- Node40 -->
<g id="node103" class="node"><title>Node40</title>
<a xlink:href="../../d1/d41/class_process.html#a5c0a5eabbeac51b40e7d691da2e74852" target="_top" xlink:title="Process::vsize_mb">
<polygon fill="white" stroke="black" points="131.5,-240.5 131.5,-261.5 232.5,-261.5 232.5,-240.5 131.5,-240.5"/>
<text text-anchor="middle" x="182" y="-248.5" font-family="Helvetica,sans-Serif" font-size="10.00">Process::vsize_mb</text>
</a>
</g>
<!-- Node1&#45;&gt;Node40 -->
<g id="edge126" class="edge"><title>Node1&#45;&gt;Node40</title>
<path fill="none" stroke="midnightblue" d="M40.9382,-418.337C46.6665,-389.93 66.2045,-311.819 114,-271 116.527,-268.842 119.277,-266.917 122.175,-265.2"/>
<polygon fill="midnightblue" stroke="midnightblue" points="123.875,-268.262 131.239,-260.645 120.732,-262.008 123.875,-268.262"/>
</g>
<!-- Node3 -->
<g id="node5" class="node"><title>Node3</title>
<a xlink:href="../../d2/d8f/class_table.html#aa44a205cde99c5e8c54877884b1a3c0b" target="_top" xlink:title="Table::add_fmt_align">
<polygon fill="white" stroke="black" points="481.5,-832.5 481.5,-853.5 588.5,-853.5 588.5,-832.5 481.5,-832.5"/>
<text text-anchor="middle" x="535" y="-840.5" font-family="Helvetica,sans-Serif" font-size="10.00">Table::add_fmt_align</text>
</a>
</g>
<!-- Node2&#45;&gt;Node3 -->
<g id="edge4" class="edge"><title>Node2&#45;&gt;Node3</title>
<path fill="none" stroke="midnightblue" d="M387.179,-843C410.285,-843 442.575,-843 471.084,-843"/>
<polygon fill="midnightblue" stroke="midnightblue" points="471.393,-846.5 481.393,-843 471.393,-839.5 471.393,-846.5"/>
</g>
<!-- Node7 -->
<g id="node13" class="node"><title>Node7</title>
<a xlink:href="../../de/daf/class_process_list.html#afe0878d6ad8b143b0f374d2e84297554" target="_top" xlink:title="ProcessList::main_process">
<polygon fill="white" stroke="black" points="467.5,-518.5 467.5,-539.5 602.5,-539.5 602.5,-518.5 467.5,-518.5"/>
<text text-anchor="middle" x="535" y="-526.5" font-family="Helvetica,sans-Serif" font-size="10.00">ProcessList::main_process</text>
</a>
</g>
<!-- Node6&#45;&gt;Node7 -->
<g id="edge12" class="edge"><title>Node6&#45;&gt;Node7</title>
<path fill="none" stroke="midnightblue" d="M408.255,-554.491C428.477,-550.424 451.787,-545.736 472.858,-541.498"/>
<polygon fill="midnightblue" stroke="midnightblue" points="473.566,-544.926 482.68,-539.523 472.186,-538.063 473.566,-544.926"/>
</g>
<!-- Node13 -->
<g id="node25" class="node"><title>Node13</title>
<a xlink:href="../../de/daf/class_process_list.html#a16274094db38de453fa0d79f9c837704" target="_top" xlink:title="ProcessList::child_processes">
<polygon fill="white" stroke="black" points="462.5,-558.5 462.5,-579.5 607.5,-579.5 607.5,-558.5 462.5,-558.5"/>
<text text-anchor="middle" x="535" y="-566.5" font-family="Helvetica,sans-Serif" font-size="10.00">ProcessList::child_processes</text>
</a>
</g>
<!-- Node6&#45;&gt;Node13 -->
<g id="edge24" class="edge"><title>Node6&#45;&gt;Node13</title>
<path fill="none" stroke="midnightblue" d="M426.232,-566.569C434.75,-566.76 443.513,-566.956 452.191,-567.15"/>
<polygon fill="midnightblue" stroke="midnightblue" points="452.244,-570.651 462.32,-567.376 452.401,-563.653 452.244,-570.651"/>
</g>
<!-- Node8 -->
<g id="node15" class="node"><title>Node8</title>
<a xlink:href="../../de/daf/class_process_list.html#a35ff98074634bff93deff546c9d57b62" target="_top" xlink:title="ProcessList::all_processes">
<polygon fill="white" stroke="black" points="644,-555.5 644,-576.5 778,-576.5 778,-555.5 644,-555.5"/>
<text text-anchor="middle" x="711" y="-563.5" font-family="Helvetica,sans-Serif" font-size="10.00">ProcessList::all_processes</text>
</a>
</g>
<!-- Node7&#45;&gt;Node8 -->
<g id="edge14" class="edge"><title>Node7&#45;&gt;Node8</title>
<path fill="none" stroke="midnightblue" d="M584.964,-539.504C605.493,-543.82 629.443,-548.854 650.918,-553.369"/>
<polygon fill="midnightblue" stroke="midnightblue" points="650.405,-556.838 660.911,-555.47 651.845,-549.987 650.405,-556.838"/>
</g>
<!-- Node7&#45;&gt;Node12 -->
<g id="edge22" class="edge"><title>Node7&#45;&gt;Node12</title>
<path fill="none" stroke="midnightblue" d="M580.792,-518.42C589.951,-515.758 599.397,-512.611 608,-509 636.461,-497.052 666.723,-478.659 687.025,-465.387"/>
<polygon fill="midnightblue" stroke="midnightblue" points="689.212,-468.136 695.61,-459.69 685.342,-462.303 689.212,-468.136"/>
</g>
<!-- Node9 -->
<g id="node17" class="node"><title>Node9</title>
<a xlink:href="../../de/d06/utils_8cpp.html#a0fc6456d6824ff6e7fa42624077e0d84" target="_top" xlink:title="safe_opendir">
<polygon fill="white" stroke="black" points="814,-496.5 814,-517.5 886,-517.5 886,-496.5 814,-496.5"/>
<text text-anchor="middle" x="850" y="-504.5" font-family="Helvetica,sans-Serif" font-size="10.00">safe_opendir</text>
</a>
</g>
<!-- Node8&#45;&gt;Node9 -->
<g id="edge16" class="edge"><title>Node8&#45;&gt;Node9</title>
<path fill="none" stroke="midnightblue" d="M735.85,-555.452C758.048,-546.03 790.784,-532.135 815.514,-521.638"/>
<polygon fill="midnightblue" stroke="midnightblue" points="817.059,-524.785 824.896,-517.656 814.323,-518.341 817.059,-524.785"/>
</g>
<!-- Node10 -->
<g id="node19" class="node"><title>Node10</title>
<a xlink:href="../../de/d06/utils_8cpp.html#a5394673b22982035151b16fbf475e422" target="_top" xlink:title="str_to_int">
<polygon fill="white" stroke="black" points="821.5,-555.5 821.5,-576.5 878.5,-576.5 878.5,-555.5 821.5,-555.5"/>
<text text-anchor="middle" x="850" y="-563.5" font-family="Helvetica,sans-Serif" font-size="10.00">str_to_int</text>
</a>
</g>
<!-- Node8&#45;&gt;Node10 -->
<g id="edge18" class="edge"><title>Node8&#45;&gt;Node10</title>
<path fill="none" stroke="midnightblue" d="M778.057,-566C789.393,-566 800.815,-566 811.116,-566"/>
<polygon fill="midnightblue" stroke="midnightblue" points="811.394,-569.5 821.394,-566 811.394,-562.5 811.394,-569.5"/>
</g>
<!-- Node11 -->
<g id="node21" class="node"><title>Node11</title>
<a xlink:href="../../de/d06/utils_8cpp.html#a8421efed5119fd1615e48373572c0061" target="_top" xlink:title="strip">
<polygon fill="white" stroke="black" points="922.5,-555.5 922.5,-576.5 957.5,-576.5 957.5,-555.5 922.5,-555.5"/>
<text text-anchor="middle" x="940" y="-563.5" font-family="Helvetica,sans-Serif" font-size="10.00">strip</text>
</a>
</g>
<!-- Node10&#45;&gt;Node11 -->
<g id="edge20" class="edge"><title>Node10&#45;&gt;Node11</title>
<path fill="none" stroke="midnightblue" d="M878.972,-566C889.574,-566 901.542,-566 912.053,-566"/>
<polygon fill="midnightblue" stroke="midnightblue" points="912.362,-569.5 922.361,-566 912.361,-562.5 912.362,-569.5"/>
</g>
<!-- Node13&#45;&gt;Node8 -->
<g id="edge26" class="edge"><title>Node13&#45;&gt;Node8</title>
<path fill="none" stroke="midnightblue" d="M607.602,-567.762C616.245,-567.615 625.093,-567.464 633.798,-567.316"/>
<polygon fill="midnightblue" stroke="midnightblue" points="633.992,-570.813 643.93,-567.143 633.872,-563.814 633.992,-570.813"/>
</g>
<!-- Node14&#45;&gt;Node2 -->
<g id="edge30" class="edge"><title>Node14&#45;&gt;Node2</title>
<path fill="none" stroke="midnightblue" d="M227.716,-813.51C254.739,-819.722 288.679,-827.524 314.86,-833.543"/>
<polygon fill="midnightblue" stroke="midnightblue" points="314.312,-837.008 324.842,-835.837 315.88,-830.186 314.312,-837.008"/>
</g>
<!-- Node14&#45;&gt;Node15 -->
<g id="edge32" class="edge"><title>Node14&#45;&gt;Node15</title>
<path fill="none" stroke="midnightblue" d="M249.771,-803C267.235,-803 285.787,-803 302.418,-803"/>
<polygon fill="midnightblue" stroke="midnightblue" points="302.498,-806.5 312.498,-803 302.497,-799.5 302.498,-806.5"/>
</g>
<!-- Node18 -->
<g id="node37" class="node"><title>Node18</title>
<a xlink:href="../../d7/d6d/class_task.html#a7e5af70039983d080361f3e3caf77bd2" target="_top" xlink:title="Task::ensure_got_stat">
<polygon fill="white" stroke="black" points="299,-100.5 299,-121.5 413,-121.5 413,-100.5 299,-100.5"/>
<text text-anchor="middle" x="356" y="-108.5" font-family="Helvetica,sans-Serif" font-size="10.00">Task::ensure_got_stat</text>
</a>
</g>
<!-- Node17&#45;&gt;Node18 -->
<g id="edge38" class="edge"><title>Node17&#45;&gt;Node18</title>
<path fill="none" stroke="midnightblue" d="M216.377,-127.049C237.007,-124.677 263.961,-121.579 288.679,-118.738"/>
<polygon fill="midnightblue" stroke="midnightblue" points="289.21,-122.2 298.745,-117.581 288.411,-115.246 289.21,-122.2"/>
</g>
<!-- Node19 -->
<g id="node39" class="node"><title>Node19</title>
<a xlink:href="../../d7/d6d/class_task.html#aad70c410dab527475f0c89272d19159d" target="_top" xlink:title="Task::ppid">
<polygon fill="white" stroke="black" points="504,-100.5 504,-121.5 566,-121.5 566,-100.5 504,-100.5"/>
<text text-anchor="middle" x="535" y="-108.5" font-family="Helvetica,sans-Serif" font-size="10.00">Task::ppid</text>
</a>
</g>
<!-- Node18&#45;&gt;Node19 -->
<g id="edge40" class="edge"><title>Node18&#45;&gt;Node19</title>
<path fill="none" stroke="midnightblue" d="M413.129,-104.659C439.332,-103.969 469.814,-104.152 493.737,-105.21"/>
<polygon fill="midnightblue" stroke="midnightblue" points="493.724,-108.714 503.892,-105.738 494.087,-101.724 493.724,-108.714"/>
</g>
<!-- Node20 -->
<g id="node42" class="node"><title>Node20</title>
<a xlink:href="../../d7/d6d/class_task.html#a3fa3d6841978f86ac134f1267b85bdc2" target="_top" xlink:title="Task::task_id">
<polygon fill="white" stroke="black" points="497,-140.5 497,-161.5 573,-161.5 573,-140.5 497,-140.5"/>
<text text-anchor="middle" x="535" y="-148.5" font-family="Helvetica,sans-Serif" font-size="10.00">Task::task_id</text>
</a>
</g>
<!-- Node18&#45;&gt;Node20 -->
<g id="edge44" class="edge"><title>Node18&#45;&gt;Node20</title>
<path fill="none" stroke="midnightblue" d="M403.03,-121.51C428.818,-127.272 460.728,-134.403 486.711,-140.209"/>
<polygon fill="midnightblue" stroke="midnightblue" points="486.194,-143.68 496.717,-142.445 487.721,-136.848 486.194,-143.68"/>
</g>
<!-- Node19&#45;&gt;Node18 -->
<g id="edge42" class="edge"><title>Node19&#45;&gt;Node18</title>
<path fill="none" stroke="midnightblue" d="M503.892,-116.262C481.659,-117.609 450.895,-118.041 423.18,-117.56"/>
<polygon fill="midnightblue" stroke="midnightblue" points="423.203,-114.06 413.129,-117.341 423.05,-121.058 423.203,-114.06"/>
</g>
<!-- Node21&#45;&gt;Node18 -->
<g id="edge48" class="edge"><title>Node21&#45;&gt;Node18</title>
<path fill="none" stroke="midnightblue" d="M213.108,-94.5756C234.078,-96.9859 262.56,-100.26 288.579,-103.25"/>
<polygon fill="midnightblue" stroke="midnightblue" points="288.452,-106.759 298.787,-104.424 289.252,-99.8047 288.452,-106.759"/>
</g>
<!-- Node24 -->
<g id="node52" class="node"><title>Node24</title>
<a xlink:href="../../d2/d8f/class_table.html#abbad1eb4d9f6c06b5fa6c0cea209ab6a" target="_top" xlink:title="Table::print_with_indent">
<polygon fill="white" stroke="black" points="296,-594.5 296,-615.5 416,-615.5 416,-594.5 296,-594.5"/>
<text text-anchor="middle" x="356" y="-602.5" font-family="Helvetica,sans-Serif" font-size="10.00">Table::print_with_indent</text>
</a>
</g>
<!-- Node23&#45;&gt;Node24 -->
<g id="edge56" class="edge"><title>Node23&#45;&gt;Node24</title>
<path fill="none" stroke="midnightblue" d="M214.728,-601.752C234.802,-602.214 261.293,-602.823 285.907,-603.389"/>
<polygon fill="midnightblue" stroke="midnightblue" points="285.874,-606.889 295.952,-603.62 286.035,-599.891 285.874,-606.889"/>
</g>
<!-- Node25&#45;&gt;Node2 -->
<g id="edge68" class="edge"><title>Node25&#45;&gt;Node2</title>
<path fill="none" stroke="midnightblue" d="M194.373,-731.625C208.265,-743.703 231.308,-764.187 250,-783 266.858,-799.967 265.712,-810.333 286,-823 294.764,-828.472 305.07,-832.489 315.038,-835.422"/>
<polygon fill="midnightblue" stroke="midnightblue" points="314.261,-838.837 324.824,-838.007 316.049,-832.069 314.261,-838.837"/>
</g>
<!-- Node25&#45;&gt;Node5 -->
<g id="edge70" class="edge"><title>Node25&#45;&gt;Node5</title>
<path fill="none" stroke="midnightblue" d="M212.398,-710.494C224.368,-705.957 238.076,-700.253 250,-694 267.03,-685.069 268.817,-678.632 286,-670 294.043,-665.96 302.9,-662.265 311.53,-659.028"/>
<polygon fill="midnightblue" stroke="midnightblue" points="312.899,-662.255 321.121,-655.573 310.527,-655.669 312.899,-662.255"/>
</g>
<!-- Node25&#45;&gt;Node10 -->
<g id="edge60" class="edge"><title>Node25&#45;&gt;Node10</title>
<path fill="none" stroke="midnightblue" d="M229.314,-711.094C330.407,-689.75 574.817,-637.2 778,-586 788.98,-583.233 800.842,-580.028 811.709,-577.005"/>
<polygon fill="midnightblue" stroke="midnightblue" points="812.672,-580.37 821.355,-574.298 810.781,-573.631 812.672,-580.37"/>
</g>
<!-- Node25&#45;&gt;Node15 -->
<g id="edge66" class="edge"><title>Node25&#45;&gt;Node15</title>
<path fill="none" stroke="midnightblue" d="M214.343,-731.534C226.046,-736.051 239.063,-741.932 250,-749 268.484,-760.945 266.875,-772.111 286,-783 291.207,-785.965 296.886,-788.517 302.683,-790.708"/>
<polygon fill="midnightblue" stroke="midnightblue" points="301.895,-794.138 312.49,-794.064 304.162,-787.515 301.895,-794.138"/>
</g>
<!-- Node25&#45;&gt;Node24 -->
<g id="edge72" class="edge"><title>Node25&#45;&gt;Node24</title>
<path fill="none" stroke="midnightblue" d="M194.491,-710.388C208.291,-698.571 231.067,-678.787 250,-661 266.491,-645.507 266.498,-636.475 286,-625 289.615,-622.873 293.469,-620.961 297.44,-619.245"/>
<polygon fill="midnightblue" stroke="midnightblue" points="298.805,-622.469 306.858,-615.584 296.27,-615.944 298.805,-622.469"/>
</g>
<!-- Node26 -->
<g id="node57" class="node"><title>Node26</title>
<a xlink:href="../../d0/d91/b2g-info_8cpp.html#a4955454c83f8a998c0d85dee9ed28883" target="_top" xlink:title="read_whole_file">
<polygon fill="white" stroke="black" points="314,-752.5 314,-773.5 398,-773.5 398,-752.5 314,-752.5"/>
<text text-anchor="middle" x="356" y="-760.5" font-family="Helvetica,sans-Serif" font-size="10.00">read_whole_file</text>
</a>
</g>
<!-- Node25&#45;&gt;Node26 -->
<g id="edge62" class="edge"><title>Node25&#45;&gt;Node26</title>
<path fill="none" stroke="midnightblue" d="M225.908,-731.598C249.621,-737.322 279.05,-744.426 303.916,-750.428"/>
<polygon fill="midnightblue" stroke="midnightblue" points="303.365,-753.895 313.907,-752.84 305.008,-747.091 303.365,-753.895"/>
</g>
<!-- Node27 -->
<g id="node59" class="node"><title>Node27</title>
<a xlink:href="../../de/d06/utils_8cpp.html#a8dfb30005f01c1cabee86220ab29945d" target="_top" xlink:title="pages_to_kb">
<polygon fill="white" stroke="black" points="320,-712.5 320,-733.5 392,-733.5 392,-712.5 320,-712.5"/>
<text text-anchor="middle" x="356" y="-720.5" font-family="Helvetica,sans-Serif" font-size="10.00">pages_to_kb</text>
</a>
</g>
<!-- Node25&#45;&gt;Node27 -->
<g id="edge64" class="edge"><title>Node25&#45;&gt;Node27</title>
<path fill="none" stroke="midnightblue" d="M229.087,-721.541C254.097,-721.829 284.727,-722.181 309.629,-722.467"/>
<polygon fill="midnightblue" stroke="midnightblue" points="309.878,-725.97 319.917,-722.585 309.958,-718.97 309.878,-725.97"/>
</g>
<!-- Node28&#45;&gt;Node2 -->
<g id="edge78" class="edge"><title>Node28&#45;&gt;Node2</title>
<path fill="none" stroke="midnightblue" d="M198.683,-651.627C214.15,-662.311 236.716,-680.155 250,-701 280.382,-748.676 245.852,-783.198 286,-823 293.754,-830.687 304.247,-835.464 314.746,-838.419"/>
<polygon fill="midnightblue" stroke="midnightblue" points="314.194,-841.884 324.725,-840.729 315.773,-835.064 314.194,-841.884"/>
</g>
<!-- Node28&#45;&gt;Node5 -->
<g id="edge80" class="edge"><title>Node28&#45;&gt;Node5</title>
<path fill="none" stroke="midnightblue" d="M240.424,-642.343C261.19,-642.82 284.399,-643.354 304.54,-643.817"/>
<polygon fill="midnightblue" stroke="midnightblue" points="304.686,-647.321 314.764,-644.052 304.847,-640.323 304.686,-647.321"/>
</g>
<!-- Node28&#45;&gt;Node6 -->
<g id="edge86" class="edge"><title>Node28&#45;&gt;Node6</title>
<path fill="none" stroke="midnightblue" d="M229.38,-630.409C236.543,-627.87 243.651,-624.769 250,-621 269.457,-609.45 266.498,-596.475 286,-585 289.615,-582.873 293.469,-580.961 297.44,-579.245"/>
<polygon fill="midnightblue" stroke="midnightblue" points="298.805,-582.469 306.858,-575.584 296.27,-575.944 298.805,-582.469"/>
</g>
<!-- Node28&#45;&gt;Node15 -->
<g id="edge76" class="edge"><title>Node28&#45;&gt;Node15</title>
<path fill="none" stroke="midnightblue" d="M197.531,-651.607C212.581,-662.534 235.237,-680.784 250,-701 273.473,-733.143 256.016,-756.824 286,-783 290.874,-787.255 296.597,-790.608 302.635,-793.249"/>
<polygon fill="midnightblue" stroke="midnightblue" points="301.714,-796.641 312.307,-796.842 304.151,-790.079 301.714,-796.641"/>
</g>
<!-- Node28&#45;&gt;Node24 -->
<g id="edge88" class="edge"><title>Node28&#45;&gt;Node24</title>
<path fill="none" stroke="midnightblue" d="M232.796,-630.491C252.364,-626.442 274.906,-621.778 295.316,-617.555"/>
<polygon fill="midnightblue" stroke="midnightblue" points="296.058,-620.976 305.141,-615.523 294.639,-614.121 296.058,-620.976"/>
</g>
<!-- Node29 -->
<g id="node70" class="node"><title>Node29</title>
<a xlink:href="../../de/d06/utils_8cpp.html#abc844f60102de1fc70d50005ffb97735" target="_top" xlink:title="kb_to_mb">
<polygon fill="white" stroke="black" points="326.5,-280.5 326.5,-301.5 385.5,-301.5 385.5,-280.5 326.5,-280.5"/>
<text text-anchor="middle" x="356" y="-288.5" font-family="Helvetica,sans-Serif" font-size="10.00">kb_to_mb</text>
</a>
</g>
<!-- Node28&#45;&gt;Node29 -->
<g id="edge82" class="edge"><title>Node28&#45;&gt;Node29</title>
<path fill="none" stroke="midnightblue" d="M238.764,-630.352C242.988,-627.84 246.828,-624.764 250,-621 339.374,-514.929 196.215,-416.723 286,-311 293.657,-301.984 305.07,-296.887 316.47,-294.049"/>
<polygon fill="midnightblue" stroke="midnightblue" points="317.256,-297.462 326.391,-292.094 315.903,-290.594 317.256,-297.462"/>
</g>
<!-- Node28&#45;&gt;Node30 -->
<g id="edge84" class="edge"><title>Node28&#45;&gt;Node30</title>
<path fill="none" stroke="midnightblue" d="M234.832,-630.446C240.313,-627.94 245.51,-624.838 250,-621 278.411,-596.716 257.495,-569.174 286,-545 287.982,-543.319 290.097,-541.779 292.312,-540.368"/>
<polygon fill="midnightblue" stroke="midnightblue" points="294.127,-543.366 301.271,-535.543 290.807,-537.203 294.127,-543.366"/>
</g>
<!-- Node31&#45;&gt;Node29 -->
<g id="edge92" class="edge"><title>Node31&#45;&gt;Node29</title>
<path fill="none" stroke="midnightblue" d="M228.844,-360.956C236.227,-358.335 243.544,-355.066 250,-351 270.239,-338.254 265.712,-323.667 286,-311 295.181,-305.268 306.052,-301.133 316.455,-298.168"/>
<polygon fill="midnightblue" stroke="midnightblue" points="317.396,-301.54 326.216,-295.669 315.661,-294.758 317.396,-301.54"/>
</g>
<!-- Node32 -->
<g id="node79" class="node"><title>Node32</title>
<a xlink:href="../../d1/d41/class_process.html#a1b4df06f4a34abc6b35a046678d1aec1" target="_top" xlink:title="Process::pss_kb">
<polygon fill="white" stroke="black" points="311,-360.5 311,-381.5 401,-381.5 401,-360.5 311,-360.5"/>
<text text-anchor="middle" x="356" y="-368.5" font-family="Helvetica,sans-Serif" font-size="10.00">Process::pss_kb</text>
</a>
</g>
<!-- Node31&#45;&gt;Node32 -->
<g id="edge94" class="edge"><title>Node31&#45;&gt;Node32</title>
<path fill="none" stroke="midnightblue" d="M228.629,-371C250.814,-371 277.5,-371 300.701,-371"/>
<polygon fill="midnightblue" stroke="midnightblue" points="300.747,-374.5 310.747,-371 300.747,-367.5 300.747,-374.5"/>
</g>
<!-- Node33&#45;&gt;Node29 -->
<g id="edge98" class="edge"><title>Node33&#45;&gt;Node29</title>
<path fill="none" stroke="midnightblue" d="M227.716,-320.49C255.272,-314.156 290.022,-306.167 316.401,-300.103"/>
<polygon fill="midnightblue" stroke="midnightblue" points="317.466,-303.45 326.428,-297.798 315.898,-296.628 317.466,-303.45"/>
</g>
<!-- Node34 -->
<g id="node84" class="node"><title>Node34</title>
<a xlink:href="../../d1/d41/class_process.html#a0c88dd980594f1d71940d26b7ad6cea8" target="_top" xlink:title="Process::rss_kb">
<polygon fill="white" stroke="black" points="312,-320.5 312,-341.5 400,-341.5 400,-320.5 312,-320.5"/>
<text text-anchor="middle" x="356" y="-328.5" font-family="Helvetica,sans-Serif" font-size="10.00">Process::rss_kb</text>
</a>
</g>
<!-- Node33&#45;&gt;Node34 -->
<g id="edge100" class="edge"><title>Node33&#45;&gt;Node34</title>
<path fill="none" stroke="midnightblue" d="M227.716,-331C250.346,-331 277.826,-331 301.539,-331"/>
<polygon fill="midnightblue" stroke="midnightblue" points="301.79,-334.5 311.79,-331 301.79,-327.5 301.79,-334.5"/>
</g>
<!-- Node35&#45;&gt;Node9 -->
<g id="edge108" class="edge"><title>Node35&#45;&gt;Node9</title>
<path fill="none" stroke="midnightblue" d="M580.804,-491.617C640.362,-495.021 743.824,-500.933 803.65,-504.351"/>
<polygon fill="midnightblue" stroke="midnightblue" points="803.752,-507.863 813.935,-504.939 804.151,-500.874 803.752,-507.863"/>
</g>
<!-- Node35&#45;&gt;Node10 -->
<g id="edge110" class="edge"><title>Node35&#45;&gt;Node10</title>
<path fill="none" stroke="midnightblue" d="M580.817,-499.165C629.77,-510.162 709.575,-528.479 778,-546 788.969,-548.809 800.828,-552.027 811.695,-555.049"/>
<polygon fill="midnightblue" stroke="midnightblue" points="810.768,-558.424 821.342,-557.752 812.657,-551.684 810.768,-558.424"/>
</g>
<!-- Node35&#45;&gt;Node12 -->
<g id="edge112" class="edge"><title>Node35&#45;&gt;Node12</title>
<path fill="none" stroke="midnightblue" d="M580.782,-478.595C606.858,-472.669 639.415,-465.269 665.452,-459.352"/>
<polygon fill="midnightblue" stroke="midnightblue" points="666.469,-462.71 675.445,-457.081 664.918,-455.884 666.469,-462.71"/>
</g>
<!-- Node37&#45;&gt;Node12 -->
<g id="edge118" class="edge"><title>Node37&#45;&gt;Node12</title>
<path fill="none" stroke="midnightblue" d="M573.624,-449C600.66,-449 636.89,-449 665.355,-449"/>
<polygon fill="midnightblue" stroke="midnightblue" points="665.46,-452.5 675.46,-449 665.46,-445.5 665.46,-452.5"/>
</g>
<!-- Node38&#45;&gt;Node29 -->
<g id="edge122" class="edge"><title>Node38&#45;&gt;Node29</title>
<path fill="none" stroke="midnightblue" d="M228.629,-291C255.968,-291 290.141,-291 316.206,-291"/>
<polygon fill="midnightblue" stroke="midnightblue" points="316.479,-294.5 326.479,-291 316.479,-287.5 316.479,-294.5"/>
</g>
<!-- Node39 -->
<g id="node101" class="node"><title>Node39</title>
<a xlink:href="../../d1/d41/class_process.html#a4a474d8d93435dfa04b4ca6a21dcb181" target="_top" xlink:title="Process::uss_kb">
<polygon fill="white" stroke="black" points="311,-240.5 311,-261.5 401,-261.5 401,-240.5 311,-240.5"/>
<text text-anchor="middle" x="356" y="-248.5" font-family="Helvetica,sans-Serif" font-size="10.00">Process::uss_kb</text>
</a>
</g>
<!-- Node38&#45;&gt;Node39 -->
<g id="edge124" class="edge"><title>Node38&#45;&gt;Node39</title>
<path fill="none" stroke="midnightblue" d="M227.716,-280.49C250.183,-275.326 277.431,-269.062 301.026,-263.638"/>
<polygon fill="midnightblue" stroke="midnightblue" points="301.928,-267.022 310.89,-261.37 300.36,-260.2 301.928,-267.022"/>
</g>
<!-- Node40&#45;&gt;Node29 -->
<g id="edge128" class="edge"><title>Node40&#45;&gt;Node29</title>
<path fill="none" stroke="midnightblue" d="M227.716,-261.51C255.272,-267.844 290.022,-275.833 316.401,-281.897"/>
<polygon fill="midnightblue" stroke="midnightblue" points="315.898,-285.372 326.428,-284.202 317.466,-278.55 315.898,-285.372"/>
</g>
<!-- Node41 -->
<g id="node106" class="node"><title>Node41</title>
<a xlink:href="../../d1/d41/class_process.html#a1681e85c54de948fe29f5e990fa1c56c" target="_top" xlink:title="Process::vsize_kb">
<polygon fill="white" stroke="black" points="307,-200.5 307,-221.5 405,-221.5 405,-200.5 307,-200.5"/>
<text text-anchor="middle" x="356" y="-208.5" font-family="Helvetica,sans-Serif" font-size="10.00">Process::vsize_kb</text>
</a>
</g>
<!-- Node40&#45;&gt;Node41 -->
<g id="edge130" class="edge"><title>Node40&#45;&gt;Node41</title>
<path fill="none" stroke="midnightblue" d="M227.716,-240.49C250.007,-235.366 277.004,-229.16 300.47,-223.765"/>
<polygon fill="midnightblue" stroke="midnightblue" points="301.325,-227.16 310.287,-221.509 299.757,-220.338 301.325,-227.16"/>
</g>
</g>
</svg>
        <g id="navigator" transform="translate(0 0)" fill="#404254">
                <rect fill="#f2f5e9" fill-opacity="0.5" stroke="#606060" stroke-width=".5" x="0" y="0" width="60" height="60"/>
                <use id="zoomplus" xlink:href="#zoomPlus" x="17" y="9" onmousedown="handleZoom(evt,'in')"/>
                <use id="zoomminus" xlink:href="#zoomMin" x="42" y="9" onmousedown="handleZoom(evt,'out')"/>
                <use id="reset" xlink:href="#resetDef" x="30" y="36" onmousedown="handleReset()"/>
                <g id="arrowUp" xlink:href="#dirArrow" transform="translate(30 24)" onmousedown="handlePan(0,-1)">
                  <use xlink:href="#rim" fill="#404040">
                        <set attributeName="fill" to="#808080" begin="arrowUp.mouseover" end="arrowUp.mouseout"/>
                  </use>
                  <path fill="none" stroke="white" stroke-width="1.5" d="M0,-3.0v7 M-2.5,-0.5L0,-3.0L2.5,-0.5"/>
                </g>
                <g id="arrowRight" xlink:href="#dirArrow" transform="rotate(90) translate(36 -43)" onmousedown="handlePan(1,0)">
                  <use xlink:href="#rim" fill="#404040">
                        <set attributeName="fill" to="#808080" begin="arrowRight.mouseover" end="arrowRight.mouseout"/>
                  </use>
                  <path fill="none" stroke="white" stroke-width="1.5" d="M0,-3.0v7 M-2.5,-0.5L0,-3.0L2.5,-0.5"/>
                </g>
                <g id="arrowDown" xlink:href="#dirArrow" transform="rotate(180) translate(-30 -48)" onmousedown="handlePan(0,1)">
                  <use xlink:href="#rim" fill="#404040">
                        <set attributeName="fill" to="#808080" begin="arrowDown.mouseover" end="arrowDown.mouseout"/>
                  </use>
                  <path fill="none" stroke="white" stroke-width="1.5" d="M0,-3.0v7 M-2.5,-0.5L0,-3.0L2.5,-0.5"/>
                </g>
                <g id="arrowLeft" xlink:href="#dirArrow" transform="rotate(270) translate(-36 17)" onmousedown="handlePan(-1,0)">
                  <use xlink:href="#rim" fill="#404040">
                        <set attributeName="fill" to="#808080" begin="arrowLeft.mouseover" end="arrowLeft.mouseout"/>
                  </use>
                  <path fill="none" stroke="white" stroke-width="1.5" d="M0,-3.0v7 M-2.5,-0.5L0,-3.0L2.5,-0.5"/>
                </g>
        </g>
</svg>
