<?xml version="1.0" encoding="UTF-8" standalone="no"?>
<!DOCTYPE svg PUBLIC "-//W3C//DTD SVG 1.1//EN"
 "http://www.w3.org/Graphics/SVG/1.1/DTD/svg11.dtd">
<!-- Generated by graphviz version 2.26.3 (20100126.1600)
 -->
<!-- Title: G Pages: 1 -->
<svg width="412pt" height="70pt"
 viewBox="0.00 0.00 412.00 70.00" xmlns="http://www.w3.org/2000/svg" xmlns:xlink="http://www.w3.org/1999/xlink">
<g id="graph1" class="graph" transform="scale(1 1) rotate(0) translate(4 66)">
<title>G</title>
<polygon fill="white" stroke="white" points="-4,5 -4,-66 409,-66 409,5 -4,5"/>
<!-- Node1 -->
<g id="node1" class="node"><title>Node1</title>
<polygon fill="#bfbfbf" stroke="black" points="0.5,-20.5 0.5,-41.5 135.5,-41.5 135.5,-20.5 0.5,-20.5"/>
<text text-anchor="middle" x="68" y="-28.5" font-family="Helvetica,sans-Serif" font-size="10.00">b2g_ps_add_table_headers</text>
</g>
<!-- Node2 -->
<g id="node3" class="node"><title>Node2</title>
<a xlink:href="../../d2/d8f/class_table.html#ae9bd2e6532ab16a8f3f2a4a73786160b" target="_top" xlink:title="Table::add">
<polygon fill="white" stroke="black" points="185,-40.5 185,-61.5 247,-61.5 247,-40.5 185,-40.5"/>
<text text-anchor="middle" x="216" y="-48.5" font-family="Helvetica,sans-Serif" font-size="10.00">Table::add</text>
</a>
</g>
<!-- Node1&#45;&gt;Node2 -->
<g id="edge2" class="edge"><title>Node1&#45;&gt;Node2</title>
<path fill="none" stroke="midnightblue" d="M135.504,-40.1221C148.83,-41.9229 162.439,-43.762 174.585,-45.4033"/>
<polygon fill="midnightblue" stroke="midnightblue" points="174.459,-48.9181 184.838,-46.7889 175.396,-41.9811 174.459,-48.9181"/>
</g>
<!-- Node4 -->
<g id="node7" class="node"><title>Node4</title>
<a xlink:href="../../d2/d8f/class_table.html#aaa79e859aad704c4650914889b9e5598" target="_top" xlink:title="Table::start_row">
<polygon fill="white" stroke="black" points="172.5,-0.5 172.5,-21.5 259.5,-21.5 259.5,-0.5 172.5,-0.5"/>
<text text-anchor="middle" x="216" y="-8.5" font-family="Helvetica,sans-Serif" font-size="10.00">Table::start_row</text>
</a>
</g>
<!-- Node1&#45;&gt;Node4 -->
<g id="edge6" class="edge"><title>Node1&#45;&gt;Node4</title>
<path fill="none" stroke="midnightblue" d="M135.504,-21.8779C144.49,-20.6635 153.605,-19.4317 162.314,-18.2549"/>
<polygon fill="midnightblue" stroke="midnightblue" points="162.876,-21.7108 172.318,-16.903 161.939,-14.7738 162.876,-21.7108"/>
</g>
<!-- Node3 -->
<g id="node5" class="node"><title>Node3</title>
<a xlink:href="../../d2/d8f/class_table.html#aa44a205cde99c5e8c54877884b1a3c0b" target="_top" xlink:title="Table::add_fmt_align">
<polygon fill="white" stroke="black" points="296.5,-40.5 296.5,-61.5 403.5,-61.5 403.5,-40.5 296.5,-40.5"/>
<text text-anchor="middle" x="350" y="-48.5" font-family="Helvetica,sans-Serif" font-size="10.00">Table::add_fmt_align</text>
</a>
</g>
<!-- Node2&#45;&gt;Node3 -->
<g id="edge4" class="edge"><title>Node2&#45;&gt;Node3</title>
<path fill="none" stroke="midnightblue" d="M247.079,-51C258.723,-51 272.423,-51 285.961,-51"/>
<polygon fill="midnightblue" stroke="midnightblue" points="286.245,-54.5001 296.245,-51 286.245,-47.5001 286.245,-54.5001"/>
</g>
</g>
</svg>
