<?xml version="1.0" encoding="UTF-8" standalone="no"?>
<!DOCTYPE svg PUBLIC "-//W3C//DTD SVG 1.1//EN"
 "http://www.w3.org/Graphics/SVG/1.1/DTD/svg11.dtd">
<!-- Generated by graphviz version 2.26.3 (20100126.1600)
 -->
<!-- Title: G Pages: 1 -->
<!--zoomable 90 -->
<svg id="main" version="1.1" xmlns="http://www.w3.org/2000/svg" xmlns:xlink="http://www.w3.org/1999/xlink" xml:space="preserve" onload="init(evt)">
        <defs>
                <circle id="rim" cx="0" cy="0" r="7"/>
                <circle id="rim2" cx="0" cy="0" r="3.5"/>
                <g id="zoomPlus">
                        <use xlink:href="#rim" fill="#404040">
                                <set attributeName="fill" to="#808080" begin="zoomplus.mouseover" end="zoomplus.mouseout"/>
                        </use>
                        <path d="M-4,0h8M0,-4v8" fill="none" stroke="white" stroke-width="1.5" pointer-events="none"/>
                </g>
                <g id="zoomMin">
                        <use xlink:href="#rim" fill="#404040">
                                <set attributeName="fill" to="#808080" begin="zoomminus.mouseover" end="zoomminus.mouseout"/>
                        </use>
                        <path d="M-4,0h8" fill="none" stroke="white" stroke-width="1.5" pointer-events="none"/>
                </g>
                <g id="dirArrow">
                        <path fill="none" stroke="white" stroke-width="1.5" d="M0,-3.0v7 M-2.5,-0.5L0,-3.0L2.5,-0.5"/>
                </g>
               <g id="resetDef">
                       <use xlink:href="#rim2" fill="#404040">
                               <set attributeName="fill" to="#808080" begin="reset.mouseover" end="reset.mouseout"/>
                       </use>
               </g>
        </defs>

<script type="text/javascript">
var viewWidth = 620;
var viewHeight = 90;
var sectionId = 'dynsection-6';
</script>
<script xlink:href="../../svgpan.js"/>
<svg id="graph" class="graph">
<g id="viewport">
<title>G</title>
<polygon fill="white" stroke="white" points="-4,5 -4,-86 617,-86 617,5 -4,5"/>
<!-- Node1 -->
<g id="node1" class="node"><title>Node1</title>
<polygon fill="#bfbfbf" stroke="black" points="0,-20.5 0,-41.5 80,-41.5 80,-20.5 0,-20.5"/>
<text text-anchor="middle" x="40" y="-28.5" font-family="Helvetica,sans-Serif" font-size="10.00">print_b2g_pids</text>
</g>
<!-- Node2 -->
<g id="node3" class="node"><title>Node2</title>
<a xlink:href="../../de/daf/class_process_list.html#a16274094db38de453fa0d79f9c837704" target="_top" xlink:title="ProcessList::child_processes">
<polygon fill="white" stroke="black" points="116.5,-40.5 116.5,-61.5 261.5,-61.5 261.5,-40.5 116.5,-40.5"/>
<text text-anchor="middle" x="189" y="-48.5" font-family="Helvetica,sans-Serif" font-size="10.00">ProcessList::child_processes</text>
</a>
</g>
<!-- Node1&#45;&gt;Node2 -->
<g id="edge2" class="edge"><title>Node1&#45;&gt;Node2</title>
<path fill="none" stroke="midnightblue" d="M80.3215,-36.4123C88.462,-37.505 97.2976,-38.691 106.295,-39.8986"/>
<polygon fill="midnightblue" stroke="midnightblue" points="106.116,-43.406 116.493,-41.2675 107.048,-36.4682 106.116,-43.406"/>
</g>
<!-- Node7 -->
<g id="node13" class="node"><title>Node7</title>
<a xlink:href="../../de/daf/class_process_list.html#a7ec48f71aab61004f16e35e12f583f99" target="_top" xlink:title="ProcessList::singleton">
<polygon fill="white" stroke="black" points="132.5,-0.5 132.5,-21.5 245.5,-21.5 245.5,-0.5 132.5,-0.5"/>
<text text-anchor="middle" x="189" y="-8.5" font-family="Helvetica,sans-Serif" font-size="10.00">ProcessList::singleton</text>
</a>
</g>
<!-- Node1&#45;&gt;Node7 -->
<g id="edge12" class="edge"><title>Node1&#45;&gt;Node7</title>
<path fill="none" stroke="midnightblue" d="M80.3215,-25.5877C93.2211,-23.8562 107.866,-21.8905 122.134,-19.9754"/>
<polygon fill="midnightblue" stroke="midnightblue" points="122.98,-23.3932 132.425,-18.5939 122.049,-16.4554 122.98,-23.3932"/>
</g>
<!-- Node3 -->
<g id="node5" class="node"><title>Node3</title>
<a xlink:href="../../de/daf/class_process_list.html#a35ff98074634bff93deff546c9d57b62" target="_top" xlink:title="ProcessList::all_processes">
<polygon fill="white" stroke="black" points="298,-40.5 298,-61.5 432,-61.5 432,-40.5 298,-40.5"/>
<text text-anchor="middle" x="365" y="-48.5" font-family="Helvetica,sans-Serif" font-size="10.00">ProcessList::all_processes</text>
</a>
</g>
<!-- Node2&#45;&gt;Node3 -->
<g id="edge4" class="edge"><title>Node2&#45;&gt;Node3</title>
<path fill="none" stroke="midnightblue" d="M261.602,-51C270.245,-51 279.093,-51 287.798,-51"/>
<polygon fill="midnightblue" stroke="midnightblue" points="287.93,-54.5001 297.93,-51 287.93,-47.5001 287.93,-54.5001"/>
</g>
<!-- Node4 -->
<g id="node7" class="node"><title>Node4</title>
<a xlink:href="../../de/d06/utils_8cpp.html#a0fc6456d6824ff6e7fa42624077e0d84" target="_top" xlink:title="safe_opendir">
<polygon fill="white" stroke="black" points="468,-60.5 468,-81.5 540,-81.5 540,-60.5 468,-60.5"/>
<text text-anchor="middle" x="504" y="-68.5" font-family="Helvetica,sans-Serif" font-size="10.00">safe_opendir</text>
</a>
</g>
<!-- Node3&#45;&gt;Node4 -->
<g id="edge6" class="edge"><title>Node3&#45;&gt;Node4</title>
<path fill="none" stroke="midnightblue" d="M432.057,-60.6485C440.746,-61.8987 449.486,-63.1562 457.732,-64.3428"/>
<polygon fill="midnightblue" stroke="midnightblue" points="457.477,-67.842 467.873,-65.8019 458.474,-60.9133 457.477,-67.842"/>
</g>
<!-- Node5 -->
<g id="node9" class="node"><title>Node5</title>
<a xlink:href="../../de/d06/utils_8cpp.html#a5394673b22982035151b16fbf475e422" target="_top" xlink:title="str_to_int">
<polygon fill="white" stroke="black" points="475.5,-20.5 475.5,-41.5 532.5,-41.5 532.5,-20.5 475.5,-20.5"/>
<text text-anchor="middle" x="504" y="-28.5" font-family="Helvetica,sans-Serif" font-size="10.00">str_to_int</text>
</a>
</g>
<!-- Node3&#45;&gt;Node5 -->
<g id="edge8" class="edge"><title>Node3&#45;&gt;Node5</title>
<path fill="none" stroke="midnightblue" d="M432.057,-41.3515C443.512,-39.7033 455.055,-38.0424 465.441,-36.5481"/>
<polygon fill="midnightblue" stroke="midnightblue" points="465.994,-40.0046 475.394,-35.116 464.997,-33.0759 465.994,-40.0046"/>
</g>
<!-- Node6 -->
<g id="node11" class="node"><title>Node6</title>
<a xlink:href="../../de/d06/utils_8cpp.html#a8421efed5119fd1615e48373572c0061" target="_top" xlink:title="strip">
<polygon fill="white" stroke="black" points="576.5,-20.5 576.5,-41.5 611.5,-41.5 611.5,-20.5 576.5,-20.5"/>
<text text-anchor="middle" x="594" y="-28.5" font-family="Helvetica,sans-Serif" font-size="10.00">strip</text>
</a>
</g>
<!-- Node5&#45;&gt;Node6 -->
<g id="edge10" class="edge"><title>Node5&#45;&gt;Node6</title>
<path fill="none" stroke="midnightblue" d="M532.972,-31C543.574,-31 555.542,-31 566.053,-31"/>
<polygon fill="midnightblue" stroke="midnightblue" points="566.362,-34.5001 576.361,-31 566.361,-27.5001 566.362,-34.5001"/>
</g>
</g>
</svg>
        <g id="navigator" transform="translate(0 0)" fill="#404254">
                <rect fill="#f2f5e9" fill-opacity="0.5" stroke="#606060" stroke-width=".5" x="0" y="0" width="60" height="60"/>
                <use id="zoomplus" xlink:href="#zoomPlus" x="17" y="9" onmousedown="handleZoom(evt,'in')"/>
                <use id="zoomminus" xlink:href="#zoomMin" x="42" y="9" onmousedown="handleZoom(evt,'out')"/>
                <use id="reset" xlink:href="#resetDef" x="30" y="36" onmousedown="handleReset()"/>
                <g id="arrowUp" xlink:href="#dirArrow" transform="translate(30 24)" onmousedown="handlePan(0,-1)">
                  <use xlink:href="#rim" fill="#404040">
                        <set attributeName="fill" to="#808080" begin="arrowUp.mouseover" end="arrowUp.mouseout"/>
                  </use>
                  <path fill="none" stroke="white" stroke-width="1.5" d="M0,-3.0v7 M-2.5,-0.5L0,-3.0L2.5,-0.5"/>
                </g>
                <g id="arrowRight" xlink:href="#dirArrow" transform="rotate(90) translate(36 -43)" onmousedown="handlePan(1,0)">
                  <use xlink:href="#rim" fill="#404040">
                        <set attributeName="fill" to="#808080" begin="arrowRight.mouseover" end="arrowRight.mouseout"/>
                  </use>
                  <path fill="none" stroke="white" stroke-width="1.5" d="M0,-3.0v7 M-2.5,-0.5L0,-3.0L2.5,-0.5"/>
                </g>
                <g id="arrowDown" xlink:href="#dirArrow" transform="rotate(180) translate(-30 -48)" onmousedown="handlePan(0,1)">
                  <use xlink:href="#rim" fill="#404040">
                        <set attributeName="fill" to="#808080" begin="arrowDown.mouseover" end="arrowDown.mouseout"/>
                  </use>
                  <path fill="none" stroke="white" stroke-width="1.5" d="M0,-3.0v7 M-2.5,-0.5L0,-3.0L2.5,-0.5"/>
                </g>
                <g id="arrowLeft" xlink:href="#dirArrow" transform="rotate(270) translate(-36 17)" onmousedown="handlePan(-1,0)">
                  <use xlink:href="#rim" fill="#404040">
                        <set attributeName="fill" to="#808080" begin="arrowLeft.mouseover" end="arrowLeft.mouseout"/>
                  </use>
                  <path fill="none" stroke="white" stroke-width="1.5" d="M0,-3.0v7 M-2.5,-0.5L0,-3.0L2.5,-0.5"/>
                </g>
        </g>
</svg>
