<?xml version="1.0" encoding="UTF-8" standalone="no"?>
<!DOCTYPE svg PUBLIC "-//W3C//DTD SVG 1.1//EN"
 "http://www.w3.org/Graphics/SVG/1.1/DTD/svg11.dtd">
<!-- Generated by graphviz version 2.26.3 (20100126.1600)
 -->
<!-- Title: G Pages: 1 -->
<!--zoomable 270 -->
<svg id="main" version="1.1" xmlns="http://www.w3.org/2000/svg" xmlns:xlink="http://www.w3.org/1999/xlink" xml:space="preserve" onload="init(evt)">
        <defs>
                <circle id="rim" cx="0" cy="0" r="7"/>
                <circle id="rim2" cx="0" cy="0" r="3.5"/>
                <g id="zoomPlus">
                        <use xlink:href="#rim" fill="#404040">
                                <set attributeName="fill" to="#808080" begin="zoomplus.mouseover" end="zoomplus.mouseout"/>
                        </use>
                        <path d="M-4,0h8M0,-4v8" fill="none" stroke="white" stroke-width="1.5" pointer-events="none"/>
                </g>
                <g id="zoomMin">
                        <use xlink:href="#rim" fill="#404040">
                                <set attributeName="fill" to="#808080" begin="zoomminus.mouseover" end="zoomminus.mouseout"/>
                        </use>
                        <path d="M-4,0h8" fill="none" stroke="white" stroke-width="1.5" pointer-events="none"/>
                </g>
                <g id="dirArrow">
                        <path fill="none" stroke="white" stroke-width="1.5" d="M0,-3.0v7 M-2.5,-0.5L0,-3.0L2.5,-0.5"/>
                </g>
               <g id="resetDef">
                       <use xlink:href="#rim2" fill="#404040">
                               <set attributeName="fill" to="#808080" begin="reset.mouseover" end="reset.mouseout"/>
                       </use>
               </g>
        </defs>

<script type="text/javascript">
var viewWidth = 832;
var viewHeight = 270;
var sectionId = 'dynsection-10';
</script>
<script xlink:href="../../svgpan.js"/>
<svg id="graph" class="graph">
<g id="viewport">
<title>G</title>
<polygon fill="white" stroke="white" points="-4,5 -4,-266 829,-266 829,5 -4,5"/>
<!-- Node1 -->
<g id="node1" class="node"><title>Node1</title>
<polygon fill="#bfbfbf" stroke="black" points="0,-120.5 0,-141.5 116,-141.5 116,-120.5 0,-120.5"/>
<text text-anchor="middle" x="58" y="-128.5" font-family="Helvetica,sans-Serif" font-size="10.00">print_system_meminfo</text>
</g>
<!-- Node2 -->
<g id="node3" class="node"><title>Node2</title>
<a xlink:href="../../d2/d8f/class_table.html#ae9bd2e6532ab16a8f3f2a4a73786160b" target="_top" xlink:title="Table::add">
<polygon fill="white" stroke="black" points="191,-240.5 191,-261.5 253,-261.5 253,-240.5 191,-240.5"/>
<text text-anchor="middle" x="222" y="-248.5" font-family="Helvetica,sans-Serif" font-size="10.00">Table::add</text>
</a>
</g>
<!-- Node1&#45;&gt;Node2 -->
<g id="edge2" class="edge"><title>Node1&#45;&gt;Node2</title>
<path fill="none" stroke="midnightblue" d="M64.9243,-141.523C78.8982,-161.92 112.527,-206.945 152,-231 160.823,-236.377 171.15,-240.359 181.119,-243.289"/>
<polygon fill="midnightblue" stroke="midnightblue" points="180.338,-246.703 190.901,-245.881 182.131,-239.937 180.338,-246.703"/>
</g>
<!-- Node4 -->
<g id="node7" class="node"><title>Node4</title>
<a xlink:href="../../d2/d8f/class_table.html#aae5a04f4d32ac6f8f293d45c97992853" target="_top" xlink:title="Table::add_fmt">
<polygon fill="white" stroke="black" points="181,-200.5 181,-221.5 263,-221.5 263,-200.5 181,-200.5"/>
<text text-anchor="middle" x="222" y="-208.5" font-family="Helvetica,sans-Serif" font-size="10.00">Table::add_fmt</text>
</a>
</g>
<!-- Node1&#45;&gt;Node4 -->
<g id="edge6" class="edge"><title>Node1&#45;&gt;Node4</title>
<path fill="none" stroke="midnightblue" d="M71.9132,-141.723C89.6416,-154.94 121.638,-177.324 152,-191 158.117,-193.755 164.706,-196.227 171.309,-198.416"/>
<polygon fill="midnightblue" stroke="midnightblue" points="170.352,-201.784 180.94,-201.419 172.436,-195.101 170.352,-201.784"/>
</g>
<!-- Node5 -->
<g id="node9" class="node"><title>Node5</title>
<a xlink:href="../../de/daf/class_process_list.html#a50e6f4206a8d67e3639f8af25cff4395" target="_top" xlink:title="ProcessList::b2g_processes">
<polygon fill="white" stroke="black" points="152,-160.5 152,-181.5 292,-181.5 292,-160.5 152,-160.5"/>
<text text-anchor="middle" x="222" y="-168.5" font-family="Helvetica,sans-Serif" font-size="10.00">ProcessList::b2g_processes</text>
</a>
</g>
<!-- Node1&#45;&gt;Node5 -->
<g id="edge8" class="edge"><title>Node1&#45;&gt;Node5</title>
<path fill="none" stroke="midnightblue" d="M101.089,-141.51C121.911,-146.588 147.09,-152.729 169.068,-158.09"/>
<polygon fill="midnightblue" stroke="midnightblue" points="168.37,-161.522 178.914,-160.491 170.028,-154.721 168.37,-161.522"/>
</g>
<!-- Node13 -->
<g id="node26" class="node"><title>Node13</title>
<a xlink:href="../../de/d06/utils_8cpp.html#abc844f60102de1fc70d50005ffb97735" target="_top" xlink:title="kb_to_mb">
<polygon fill="white" stroke="black" points="192.5,-120.5 192.5,-141.5 251.5,-141.5 251.5,-120.5 192.5,-120.5"/>
<text text-anchor="middle" x="222" y="-128.5" font-family="Helvetica,sans-Serif" font-size="10.00">kb_to_mb</text>
</a>
</g>
<!-- Node1&#45;&gt;Node13 -->
<g id="edge26" class="edge"><title>Node1&#45;&gt;Node13</title>
<path fill="none" stroke="midnightblue" d="M116.282,-131C138.134,-131 162.444,-131 182.237,-131"/>
<polygon fill="midnightblue" stroke="midnightblue" points="182.431,-134.5 192.431,-131 182.431,-127.5 182.431,-134.5"/>
</g>
<!-- Node14 -->
<g id="node28" class="node"><title>Node14</title>
<a xlink:href="../../d2/d8f/class_table.html#abbad1eb4d9f6c06b5fa6c0cea209ab6a" target="_top" xlink:title="Table::print_with_indent">
<polygon fill="white" stroke="black" points="162,-80.5 162,-101.5 282,-101.5 282,-80.5 162,-80.5"/>
<text text-anchor="middle" x="222" y="-88.5" font-family="Helvetica,sans-Serif" font-size="10.00">Table::print_with_indent</text>
</a>
</g>
<!-- Node1&#45;&gt;Node14 -->
<g id="edge28" class="edge"><title>Node1&#45;&gt;Node14</title>
<path fill="none" stroke="midnightblue" d="M101.089,-120.49C121.911,-115.412 147.09,-109.271 169.068,-103.91"/>
<polygon fill="midnightblue" stroke="midnightblue" points="170.028,-107.279 178.914,-101.509 168.37,-100.478 170.028,-107.279"/>
</g>
<!-- Node15 -->
<g id="node30" class="node"><title>Node15</title>
<a xlink:href="../../de/daf/class_process_list.html#a7ec48f71aab61004f16e35e12f583f99" target="_top" xlink:title="ProcessList::singleton">
<polygon fill="white" stroke="black" points="165.5,-40.5 165.5,-61.5 278.5,-61.5 278.5,-40.5 165.5,-40.5"/>
<text text-anchor="middle" x="222" y="-48.5" font-family="Helvetica,sans-Serif" font-size="10.00">ProcessList::singleton</text>
</a>
</g>
<!-- Node1&#45;&gt;Node15 -->
<g id="edge30" class="edge"><title>Node1&#45;&gt;Node15</title>
<path fill="none" stroke="midnightblue" d="M71.9132,-120.277C89.6416,-107.06 121.638,-84.6758 152,-71 157.042,-68.7291 162.405,-66.6502 167.832,-64.7641"/>
<polygon fill="midnightblue" stroke="midnightblue" points="169.19,-68.0027 177.614,-61.5775 167.022,-61.347 169.19,-68.0027"/>
</g>
<!-- Node16 -->
<g id="node32" class="node"><title>Node16</title>
<a xlink:href="../../d2/d8f/class_table.html#aaa79e859aad704c4650914889b9e5598" target="_top" xlink:title="Table::start_row">
<polygon fill="white" stroke="black" points="178.5,-0.5 178.5,-21.5 265.5,-21.5 265.5,-0.5 178.5,-0.5"/>
<text text-anchor="middle" x="222" y="-8.5" font-family="Helvetica,sans-Serif" font-size="10.00">Table::start_row</text>
</a>
</g>
<!-- Node1&#45;&gt;Node16 -->
<g id="edge32" class="edge"><title>Node1&#45;&gt;Node16</title>
<path fill="none" stroke="midnightblue" d="M64.9243,-120.477C78.8982,-100.08 112.527,-55.0549 152,-31 157.116,-27.882 162.738,-25.2329 168.503,-22.986"/>
<polygon fill="midnightblue" stroke="midnightblue" points="169.989,-26.1744 178.276,-19.5726 167.681,-19.5659 169.989,-26.1744"/>
</g>
<!-- Node3 -->
<g id="node5" class="node"><title>Node3</title>
<a xlink:href="../../d2/d8f/class_table.html#aa44a205cde99c5e8c54877884b1a3c0b" target="_top" xlink:title="Table::add_fmt_align">
<polygon fill="white" stroke="black" points="347.5,-240.5 347.5,-261.5 454.5,-261.5 454.5,-240.5 347.5,-240.5"/>
<text text-anchor="middle" x="401" y="-248.5" font-family="Helvetica,sans-Serif" font-size="10.00">Table::add_fmt_align</text>
</a>
</g>
<!-- Node2&#45;&gt;Node3 -->
<g id="edge4" class="edge"><title>Node2&#45;&gt;Node3</title>
<path fill="none" stroke="midnightblue" d="M253.179,-251C276.285,-251 308.575,-251 337.084,-251"/>
<polygon fill="midnightblue" stroke="midnightblue" points="337.393,-254.5 347.393,-251 337.393,-247.5 337.393,-254.5"/>
</g>
<!-- Node6 -->
<g id="node11" class="node"><title>Node6</title>
<a xlink:href="../../de/daf/class_process_list.html#afe0878d6ad8b143b0f374d2e84297554" target="_top" xlink:title="ProcessList::main_process">
<polygon fill="white" stroke="black" points="333.5,-140.5 333.5,-161.5 468.5,-161.5 468.5,-140.5 333.5,-140.5"/>
<text text-anchor="middle" x="401" y="-148.5" font-family="Helvetica,sans-Serif" font-size="10.00">ProcessList::main_process</text>
</a>
</g>
<!-- Node5&#45;&gt;Node6 -->
<g id="edge10" class="edge"><title>Node5&#45;&gt;Node6</title>
<path fill="none" stroke="midnightblue" d="M292.232,-163.153C302.369,-162.02 312.853,-160.849 323.128,-159.701"/>
<polygon fill="midnightblue" stroke="midnightblue" points="323.764,-163.152 333.314,-158.563 322.987,-156.195 323.764,-163.152"/>
</g>
<!-- Node12 -->
<g id="node23" class="node"><title>Node12</title>
<a xlink:href="../../de/daf/class_process_list.html#a16274094db38de453fa0d79f9c837704" target="_top" xlink:title="ProcessList::child_processes">
<polygon fill="white" stroke="black" points="328.5,-180.5 328.5,-201.5 473.5,-201.5 473.5,-180.5 328.5,-180.5"/>
<text text-anchor="middle" x="401" y="-188.5" font-family="Helvetica,sans-Serif" font-size="10.00">ProcessList::child_processes</text>
</a>
</g>
<!-- Node5&#45;&gt;Node12 -->
<g id="edge22" class="edge"><title>Node5&#45;&gt;Node12</title>
<path fill="none" stroke="midnightblue" d="M292.232,-178.847C300.75,-179.799 309.513,-180.778 318.191,-181.748"/>
<polygon fill="midnightblue" stroke="midnightblue" points="317.993,-185.247 328.32,-182.879 318.77,-178.29 317.993,-185.247"/>
</g>
<!-- Node7 -->
<g id="node13" class="node"><title>Node7</title>
<a xlink:href="../../de/daf/class_process_list.html#a35ff98074634bff93deff546c9d57b62" target="_top" xlink:title="ProcessList::all_processes">
<polygon fill="white" stroke="black" points="510,-180.5 510,-201.5 644,-201.5 644,-180.5 510,-180.5"/>
<text text-anchor="middle" x="577" y="-188.5" font-family="Helvetica,sans-Serif" font-size="10.00">ProcessList::all_processes</text>
</a>
</g>
<!-- Node6&#45;&gt;Node7 -->
<g id="edge12" class="edge"><title>Node6&#45;&gt;Node7</title>
<path fill="none" stroke="midnightblue" d="M447.242,-161.51C469.788,-166.634 497.096,-172.84 520.832,-178.235"/>
<polygon fill="midnightblue" stroke="midnightblue" points="520.235,-181.688 530.762,-180.491 521.786,-174.862 520.235,-181.688"/>
</g>
<!-- Node11 -->
<g id="node21" class="node"><title>Node11</title>
<a xlink:href="../../d1/d41/class_process.html#a4be0403d5862318cde4444476eac0c7b" target="_top" xlink:title="Process::pid">
<polygon fill="white" stroke="black" points="541.5,-140.5 541.5,-161.5 612.5,-161.5 612.5,-140.5 541.5,-140.5"/>
<text text-anchor="middle" x="577" y="-148.5" font-family="Helvetica,sans-Serif" font-size="10.00">Process::pid</text>
</a>
</g>
<!-- Node6&#45;&gt;Node11 -->
<g id="edge20" class="edge"><title>Node6&#45;&gt;Node11</title>
<path fill="none" stroke="midnightblue" d="M468.543,-151C489.482,-151 512.056,-151 531.16,-151"/>
<polygon fill="midnightblue" stroke="midnightblue" points="531.384,-154.5 541.384,-151 531.384,-147.5 531.384,-154.5"/>
</g>
<!-- Node8 -->
<g id="node15" class="node"><title>Node8</title>
<a xlink:href="../../de/d06/utils_8cpp.html#a0fc6456d6824ff6e7fa42624077e0d84" target="_top" xlink:title="safe_opendir">
<polygon fill="white" stroke="black" points="680,-200.5 680,-221.5 752,-221.5 752,-200.5 680,-200.5"/>
<text text-anchor="middle" x="716" y="-208.5" font-family="Helvetica,sans-Serif" font-size="10.00">safe_opendir</text>
</a>
</g>
<!-- Node7&#45;&gt;Node8 -->
<g id="edge14" class="edge"><title>Node7&#45;&gt;Node8</title>
<path fill="none" stroke="midnightblue" d="M644.057,-200.649C652.746,-201.899 661.486,-203.156 669.732,-204.343"/>
<polygon fill="midnightblue" stroke="midnightblue" points="669.477,-207.842 679.873,-205.802 670.474,-200.913 669.477,-207.842"/>
</g>
<!-- Node9 -->
<g id="node17" class="node"><title>Node9</title>
<a xlink:href="../../de/d06/utils_8cpp.html#a5394673b22982035151b16fbf475e422" target="_top" xlink:title="str_to_int">
<polygon fill="white" stroke="black" points="687.5,-160.5 687.5,-181.5 744.5,-181.5 744.5,-160.5 687.5,-160.5"/>
<text text-anchor="middle" x="716" y="-168.5" font-family="Helvetica,sans-Serif" font-size="10.00">str_to_int</text>
</a>
</g>
<!-- Node7&#45;&gt;Node9 -->
<g id="edge16" class="edge"><title>Node7&#45;&gt;Node9</title>
<path fill="none" stroke="midnightblue" d="M644.057,-181.351C655.512,-179.703 667.055,-178.042 677.441,-176.548"/>
<polygon fill="midnightblue" stroke="midnightblue" points="677.994,-180.005 687.394,-175.116 676.997,-173.076 677.994,-180.005"/>
</g>
<!-- Node10 -->
<g id="node19" class="node"><title>Node10</title>
<a xlink:href="../../de/d06/utils_8cpp.html#a8421efed5119fd1615e48373572c0061" target="_top" xlink:title="strip">
<polygon fill="white" stroke="black" points="788.5,-160.5 788.5,-181.5 823.5,-181.5 823.5,-160.5 788.5,-160.5"/>
<text text-anchor="middle" x="806" y="-168.5" font-family="Helvetica,sans-Serif" font-size="10.00">strip</text>
</a>
</g>
<!-- Node9&#45;&gt;Node10 -->
<g id="edge18" class="edge"><title>Node9&#45;&gt;Node10</title>
<path fill="none" stroke="midnightblue" d="M744.972,-171C755.574,-171 767.542,-171 778.053,-171"/>
<polygon fill="midnightblue" stroke="midnightblue" points="778.362,-174.5 788.361,-171 778.361,-167.5 778.362,-174.5"/>
</g>
<!-- Node12&#45;&gt;Node7 -->
<g id="edge24" class="edge"><title>Node12&#45;&gt;Node7</title>
<path fill="none" stroke="midnightblue" d="M473.602,-191C482.245,-191 491.093,-191 499.798,-191"/>
<polygon fill="midnightblue" stroke="midnightblue" points="499.93,-194.5 509.93,-191 499.93,-187.5 499.93,-194.5"/>
</g>
</g>
</svg>
        <g id="navigator" transform="translate(0 0)" fill="#404254">
                <rect fill="#f2f5e9" fill-opacity="0.5" stroke="#606060" stroke-width=".5" x="0" y="0" width="60" height="60"/>
                <use id="zoomplus" xlink:href="#zoomPlus" x="17" y="9" onmousedown="handleZoom(evt,'in')"/>
                <use id="zoomminus" xlink:href="#zoomMin" x="42" y="9" onmousedown="handleZoom(evt,'out')"/>
                <use id="reset" xlink:href="#resetDef" x="30" y="36" onmousedown="handleReset()"/>
                <g id="arrowUp" xlink:href="#dirArrow" transform="translate(30 24)" onmousedown="handlePan(0,-1)">
                  <use xlink:href="#rim" fill="#404040">
                        <set attributeName="fill" to="#808080" begin="arrowUp.mouseover" end="arrowUp.mouseout"/>
                  </use>
                  <path fill="none" stroke="white" stroke-width="1.5" d="M0,-3.0v7 M-2.5,-0.5L0,-3.0L2.5,-0.5"/>
                </g>
                <g id="arrowRight" xlink:href="#dirArrow" transform="rotate(90) translate(36 -43)" onmousedown="handlePan(1,0)">
                  <use xlink:href="#rim" fill="#404040">
                        <set attributeName="fill" to="#808080" begin="arrowRight.mouseover" end="arrowRight.mouseout"/>
                  </use>
                  <path fill="none" stroke="white" stroke-width="1.5" d="M0,-3.0v7 M-2.5,-0.5L0,-3.0L2.5,-0.5"/>
                </g>
                <g id="arrowDown" xlink:href="#dirArrow" transform="rotate(180) translate(-30 -48)" onmousedown="handlePan(0,1)">
                  <use xlink:href="#rim" fill="#404040">
                        <set attributeName="fill" to="#808080" begin="arrowDown.mouseover" end="arrowDown.mouseout"/>
                  </use>
                  <path fill="none" stroke="white" stroke-width="1.5" d="M0,-3.0v7 M-2.5,-0.5L0,-3.0L2.5,-0.5"/>
                </g>
                <g id="arrowLeft" xlink:href="#dirArrow" transform="rotate(270) translate(-36 17)" onmousedown="handlePan(-1,0)">
                  <use xlink:href="#rim" fill="#404040">
                        <set attributeName="fill" to="#808080" begin="arrowLeft.mouseover" end="arrowLeft.mouseout"/>
                  </use>
                  <path fill="none" stroke="white" stroke-width="1.5" d="M0,-3.0v7 M-2.5,-0.5L0,-3.0L2.5,-0.5"/>
                </g>
        </g>
</svg>
