<?xml version="1.0" encoding="UTF-8" standalone="no"?>
<!DOCTYPE svg PUBLIC "-//W3C//DTD SVG 1.1//EN"
 "http://www.w3.org/Graphics/SVG/1.1/DTD/svg11.dtd">
<!-- Generated by graphviz version 2.26.3 (20100126.1600)
 -->
<!-- Title: G Pages: 1 -->
<svg width="332pt" height="30pt"
 viewBox="0.00 0.00 332.00 30.00" xmlns="http://www.w3.org/2000/svg" xmlns:xlink="http://www.w3.org/1999/xlink">
<g id="graph1" class="graph" transform="scale(1 1) rotate(0) translate(4 26)">
<title>G</title>
<polygon fill="white" stroke="white" points="-4,5 -4,-26 329,-26 329,5 -4,5"/>
<!-- Node1 -->
<g id="node1" class="node"><title>Node1</title>
<polygon fill="#bfbfbf" stroke="black" points="0.5,-0.5 0.5,-21.5 135.5,-21.5 135.5,-0.5 0.5,-0.5"/>
<text text-anchor="middle" x="68" y="-8.5" font-family="Helvetica,sans-Serif" font-size="10.00">b2g_ps_add_table_headers</text>
</g>
<!-- Node2 -->
<g id="node3" class="node"><title>Node2</title>
<a xlink:href="../../d0/d91/b2g-info_8cpp.html#a72987403ed81c976534491e6e4cb7533" target="_top" xlink:title="print_b2g_info">
<polygon fill="white" stroke="black" points="172.5,-0.5 172.5,-21.5 249.5,-21.5 249.5,-0.5 172.5,-0.5"/>
<text text-anchor="middle" x="211" y="-8.5" font-family="Helvetica,sans-Serif" font-size="10.00">print_b2g_info</text>
</a>
</g>
<!-- Node1&#45;&gt;Node2 -->
<g id="edge2" class="edge"><title>Node1&#45;&gt;Node2</title>
<path fill="none" stroke="midnightblue" d="M145.744,-11C154.949,-11 164.014,-11 172.324,-11"/>
<polygon fill="midnightblue" stroke="midnightblue" points="145.731,-7.5001 135.731,-11 145.731,-14.5001 145.731,-7.5001"/>
</g>
<!-- Node3 -->
<g id="node5" class="node"><title>Node3</title>
<a xlink:href="../../d0/d91/b2g-info_8cpp.html#a217dbf8b442f20279ea00b898af96f52" target="_top" xlink:title="main">
<polygon fill="white" stroke="black" points="286,-0.5 286,-21.5 324,-21.5 324,-0.5 286,-0.5"/>
<text text-anchor="middle" x="305" y="-8.5" font-family="Helvetica,sans-Serif" font-size="10.00">main</text>
</a>
</g>
<!-- Node2&#45;&gt;Node3 -->
<g id="edge4" class="edge"><title>Node2&#45;&gt;Node3</title>
<path fill="none" stroke="midnightblue" d="M259.632,-11C268.998,-11 278.278,-11 285.981,-11"/>
<polygon fill="midnightblue" stroke="midnightblue" points="259.505,-7.5001 249.505,-11 259.505,-14.5001 259.505,-7.5001"/>
</g>
</g>
</svg>
