<?xml version="1.0" encoding="UTF-8" standalone="no"?>
<!DOCTYPE svg PUBLIC "-//W3C//DTD SVG 1.1//EN"
 "http://www.w3.org/Graphics/SVG/1.1/DTD/svg11.dtd">
<!-- Generated by graphviz version 2.26.3 (20100126.1600)
 -->
<!-- Title: G Pages: 1 -->
<svg width="402pt" height="270pt"
 viewBox="0.00 0.00 402.00 270.00" xmlns="http://www.w3.org/2000/svg" xmlns:xlink="http://www.w3.org/1999/xlink">
<g id="graph1" class="graph" transform="scale(1 1) rotate(0) translate(4 266)">
<title>G</title>
<polygon fill="white" stroke="white" points="-4,5 -4,-266 399,-266 399,5 -4,5"/>
<!-- Node1 -->
<g id="node1" class="node"><title>Node1</title>
<polygon fill="#bfbfbf" stroke="black" points="0,-120.5 0,-141.5 94,-141.5 94,-120.5 0,-120.5"/>
<text text-anchor="middle" x="47" y="-128.5" font-family="Helvetica,sans-Serif" font-size="10.00">print_lmk_params</text>
</g>
<!-- Node2 -->
<g id="node3" class="node"><title>Node2</title>
<a xlink:href="../../d2/d8f/class_table.html#ae9bd2e6532ab16a8f3f2a4a73786160b" target="_top" xlink:title="Table::add">
<polygon fill="white" stroke="black" points="159,-240.5 159,-261.5 221,-261.5 221,-240.5 159,-240.5"/>
<text text-anchor="middle" x="190" y="-248.5" font-family="Helvetica,sans-Serif" font-size="10.00">Table::add</text>
</a>
</g>
<!-- Node1&#45;&gt;Node2 -->
<g id="edge2" class="edge"><title>Node1&#45;&gt;Node2</title>
<path fill="none" stroke="midnightblue" d="M53.0758,-141.721C65.1348,-162.063 94.0582,-206.417 130,-231 135.785,-234.957 142.415,-238.184 149.109,-240.799"/>
<polygon fill="midnightblue" stroke="midnightblue" points="148.277,-244.215 158.872,-244.206 150.584,-237.606 148.277,-244.215"/>
</g>
<!-- Node4 -->
<g id="node7" class="node"><title>Node4</title>
<a xlink:href="../../d2/d8f/class_table.html#aae5a04f4d32ac6f8f293d45c97992853" target="_top" xlink:title="Table::add_fmt">
<polygon fill="white" stroke="black" points="149,-200.5 149,-221.5 231,-221.5 231,-200.5 149,-200.5"/>
<text text-anchor="middle" x="190" y="-208.5" font-family="Helvetica,sans-Serif" font-size="10.00">Table::add_fmt</text>
</a>
</g>
<!-- Node1&#45;&gt;Node4 -->
<g id="edge6" class="edge"><title>Node1&#45;&gt;Node4</title>
<path fill="none" stroke="midnightblue" d="M59.1546,-141.633C74.6739,-154.757 102.787,-177.045 130,-191 134.067,-193.086 138.398,-195.022 142.799,-196.802"/>
<polygon fill="midnightblue" stroke="midnightblue" points="141.879,-200.195 152.471,-200.447 144.348,-193.645 141.879,-200.195"/>
</g>
<!-- Node5 -->
<g id="node9" class="node"><title>Node5</title>
<a xlink:href="../../de/d06/utils_8cpp.html#a8dfb30005f01c1cabee86220ab29945d" target="_top" xlink:title="pages_to_kb">
<polygon fill="white" stroke="black" points="154,-160.5 154,-181.5 226,-181.5 226,-160.5 154,-160.5"/>
<text text-anchor="middle" x="190" y="-168.5" font-family="Helvetica,sans-Serif" font-size="10.00">pages_to_kb</text>
</a>
</g>
<!-- Node1&#45;&gt;Node5 -->
<g id="edge8" class="edge"><title>Node1&#45;&gt;Node5</title>
<path fill="none" stroke="midnightblue" d="M84.5716,-141.51C102.752,-146.595 124.743,-152.746 143.926,-158.112"/>
<polygon fill="midnightblue" stroke="midnightblue" points="143.093,-161.514 153.667,-160.837 144.979,-154.772 143.093,-161.514"/>
</g>
<!-- Node6 -->
<g id="node11" class="node"><title>Node6</title>
<a xlink:href="../../d2/d8f/class_table.html#abbad1eb4d9f6c06b5fa6c0cea209ab6a" target="_top" xlink:title="Table::print_with_indent">
<polygon fill="white" stroke="black" points="130,-120.5 130,-141.5 250,-141.5 250,-120.5 130,-120.5"/>
<text text-anchor="middle" x="190" y="-128.5" font-family="Helvetica,sans-Serif" font-size="10.00">Table::print_with_indent</text>
</a>
</g>
<!-- Node1&#45;&gt;Node6 -->
<g id="edge10" class="edge"><title>Node1&#45;&gt;Node6</title>
<path fill="none" stroke="midnightblue" d="M94.2199,-131C102.406,-131 111.074,-131 119.718,-131"/>
<polygon fill="midnightblue" stroke="midnightblue" points="119.825,-134.5 129.825,-131 119.825,-127.5 119.825,-134.5"/>
</g>
<!-- Node7 -->
<g id="node13" class="node"><title>Node7</title>
<a xlink:href="../../d0/d91/b2g-info_8cpp.html#a4955454c83f8a998c0d85dee9ed28883" target="_top" xlink:title="read_whole_file">
<polygon fill="white" stroke="black" points="148,-80.5 148,-101.5 232,-101.5 232,-80.5 148,-80.5"/>
<text text-anchor="middle" x="190" y="-88.5" font-family="Helvetica,sans-Serif" font-size="10.00">read_whole_file</text>
</a>
</g>
<!-- Node1&#45;&gt;Node7 -->
<g id="edge12" class="edge"><title>Node1&#45;&gt;Node7</title>
<path fill="none" stroke="midnightblue" d="M84.5716,-120.49C102.248,-115.546 123.526,-109.594 142.323,-104.336"/>
<polygon fill="midnightblue" stroke="midnightblue" points="143.495,-107.643 152.183,-101.578 141.61,-100.901 143.495,-107.643"/>
</g>
<!-- Node8 -->
<g id="node15" class="node"><title>Node8</title>
<a xlink:href="../../d2/d8f/class_table.html#aaa79e859aad704c4650914889b9e5598" target="_top" xlink:title="Table::start_row">
<polygon fill="white" stroke="black" points="146.5,-40.5 146.5,-61.5 233.5,-61.5 233.5,-40.5 146.5,-40.5"/>
<text text-anchor="middle" x="190" y="-48.5" font-family="Helvetica,sans-Serif" font-size="10.00">Table::start_row</text>
</a>
</g>
<!-- Node1&#45;&gt;Node8 -->
<g id="edge14" class="edge"><title>Node1&#45;&gt;Node8</title>
<path fill="none" stroke="midnightblue" d="M59.1546,-120.367C74.6739,-107.243 102.787,-84.9549 130,-71 134.067,-68.9145 138.398,-66.9784 142.799,-65.1983"/>
<polygon fill="midnightblue" stroke="midnightblue" points="144.348,-68.3548 152.471,-61.553 141.879,-61.8046 144.348,-68.3548"/>
</g>
<!-- Node9 -->
<g id="node17" class="node"><title>Node9</title>
<a xlink:href="../../de/d06/utils_8cpp.html#a5394673b22982035151b16fbf475e422" target="_top" xlink:title="str_to_int">
<polygon fill="white" stroke="black" points="161.5,-0.5 161.5,-21.5 218.5,-21.5 218.5,-0.5 161.5,-0.5"/>
<text text-anchor="middle" x="190" y="-8.5" font-family="Helvetica,sans-Serif" font-size="10.00">str_to_int</text>
</a>
</g>
<!-- Node1&#45;&gt;Node9 -->
<g id="edge16" class="edge"><title>Node1&#45;&gt;Node9</title>
<path fill="none" stroke="midnightblue" d="M53.0758,-120.279C65.1348,-99.9371 94.0582,-55.5833 130,-31 136.564,-26.5107 144.215,-22.9608 151.814,-20.178"/>
<polygon fill="midnightblue" stroke="midnightblue" points="152.919,-23.4991 161.326,-17.0506 150.733,-16.8494 152.919,-23.4991"/>
</g>
<!-- Node3 -->
<g id="node5" class="node"><title>Node3</title>
<a xlink:href="../../d2/d8f/class_table.html#aa44a205cde99c5e8c54877884b1a3c0b" target="_top" xlink:title="Table::add_fmt_align">
<polygon fill="white" stroke="black" points="286.5,-240.5 286.5,-261.5 393.5,-261.5 393.5,-240.5 286.5,-240.5"/>
<text text-anchor="middle" x="340" y="-248.5" font-family="Helvetica,sans-Serif" font-size="10.00">Table::add_fmt_align</text>
</a>
</g>
<!-- Node2&#45;&gt;Node3 -->
<g id="edge4" class="edge"><title>Node2&#45;&gt;Node3</title>
<path fill="none" stroke="midnightblue" d="M221.08,-251C237.01,-251 257.021,-251 276.061,-251"/>
<polygon fill="midnightblue" stroke="midnightblue" points="276.202,-254.5 286.202,-251 276.202,-247.5 276.202,-254.5"/>
</g>
<!-- Node10 -->
<g id="node19" class="node"><title>Node10</title>
<a xlink:href="../../de/d06/utils_8cpp.html#a8421efed5119fd1615e48373572c0061" target="_top" xlink:title="strip">
<polygon fill="white" stroke="black" points="322.5,-0.5 322.5,-21.5 357.5,-21.5 357.5,-0.5 322.5,-0.5"/>
<text text-anchor="middle" x="340" y="-8.5" font-family="Helvetica,sans-Serif" font-size="10.00">strip</text>
</a>
</g>
<!-- Node9&#45;&gt;Node10 -->
<g id="edge18" class="edge"><title>Node9&#45;&gt;Node10</title>
<path fill="none" stroke="midnightblue" d="M218.567,-11C245.462,-11 285.491,-11 312.15,-11"/>
<polygon fill="midnightblue" stroke="midnightblue" points="312.338,-14.5001 322.338,-11 312.338,-7.5001 312.338,-14.5001"/>
</g>
</g>
</svg>
