<?xml version="1.0" encoding="UTF-8" standalone="no"?>
<!DOCTYPE svg PUBLIC "-//W3C//DTD SVG 1.1//EN"
 "http://www.w3.org/Graphics/SVG/1.1/DTD/svg11.dtd">
<!-- Generated by graphviz version 2.26.3 (20100126.1600)
 -->
<!-- Title: G Pages: 1 -->
<!--zoomable 515 -->
<svg id="main" version="1.1" xmlns="http://www.w3.org/2000/svg" xmlns:xlink="http://www.w3.org/1999/xlink" xml:space="preserve" onload="init(evt)">
        <defs>
                <circle id="rim" cx="0" cy="0" r="7"/>
                <circle id="rim2" cx="0" cy="0" r="3.5"/>
                <g id="zoomPlus">
                        <use xlink:href="#rim" fill="#404040">
                                <set attributeName="fill" to="#808080" begin="zoomplus.mouseover" end="zoomplus.mouseout"/>
                        </use>
                        <path d="M-4,0h8M0,-4v8" fill="none" stroke="white" stroke-width="1.5" pointer-events="none"/>
                </g>
                <g id="zoomMin">
                        <use xlink:href="#rim" fill="#404040">
                                <set attributeName="fill" to="#808080" begin="zoomminus.mouseover" end="zoomminus.mouseout"/>
                        </use>
                        <path d="M-4,0h8" fill="none" stroke="white" stroke-width="1.5" pointer-events="none"/>
                </g>
                <g id="dirArrow">
                        <path fill="none" stroke="white" stroke-width="1.5" d="M0,-3.0v7 M-2.5,-0.5L0,-3.0L2.5,-0.5"/>
                </g>
               <g id="resetDef">
                       <use xlink:href="#rim2" fill="#404040">
                               <set attributeName="fill" to="#808080" begin="reset.mouseover" end="reset.mouseout"/>
                       </use>
               </g>
        </defs>

<script type="text/javascript">
var viewWidth = 840;
var viewHeight = 515;
var sectionId = 'dynsection-11';
</script>
<script xlink:href="../../svgpan.js"/>
<svg id="graph" class="graph">
<g id="viewport">
<title>G</title>
<polygon fill="white" stroke="white" points="-4,5 -4,-510.884 837,-510.884 837,5 -4,5"/>
<!-- Node1 -->
<g id="node1" class="node"><title>Node1</title>
<polygon fill="#bfbfbf" stroke="black" points="0.5,-405.384 0.5,-426.384 53.5,-426.384 53.5,-405.384 0.5,-405.384"/>
<text text-anchor="middle" x="27" y="-413.384" font-family="Helvetica,sans-Serif" font-size="10.00">success</text>
</g>
<!-- Node2 -->
<g id="node3" class="node"><title>Node2</title>
<a xlink:href="../../d7/db3/build__stage_2email_2shared_2js_2device__storage_2get__storage__if__available_8js.html#aabaf1134ace2a1f662f1bf7a4f52ff0a" target="_top" xlink:title="getStorageIfAvailable">
<polygon fill="white" stroke="black" points="90,-485.384 90,-506.384 200,-506.384 200,-485.384 90,-485.384"/>
<text text-anchor="middle" x="145" y="-493.384" font-family="Helvetica,sans-Serif" font-size="10.00">getStorageIfAvailable</text>
</a>
</g>
<!-- Node1&#45;&gt;Node2 -->
<g id="edge2" class="edge"><title>Node1&#45;&gt;Node2</title>
<path fill="none" stroke="midnightblue" d="M42.398,-434.138C54.2732,-447.253 71.714,-464.549 90,-475.884 95.9587,-479.577 102.701,-482.733 109.371,-485.372"/>
<polygon fill="midnightblue" stroke="midnightblue" points="45,-431.797 35.7654,-426.603 39.7456,-436.422 45,-431.797"/>
</g>
<!-- Node4 -->
<g id="node7" class="node"><title>Node4</title>
<a xlink:href="../../d4/d2c/contacts__matching__controller_8js.html#ab625ef56bb2d0211b885022c4be496f4" target="_top" xlink:title="if">
<polygon fill="white" stroke="black" points="130.5,-445.384 130.5,-466.384 159.5,-466.384 159.5,-445.384 130.5,-445.384"/>
<text text-anchor="middle" x="145" y="-453.384" font-family="Helvetica,sans-Serif" font-size="10.00">if</text>
</a>
</g>
<!-- Node1&#45;&gt;Node4 -->
<g id="edge6" class="edge"><title>Node1&#45;&gt;Node4</title>
<path fill="none" stroke="midnightblue" d="M63.3719,-428.213C85.8707,-435.84 113.544,-445.221 130.201,-450.867"/>
<polygon fill="midnightblue" stroke="midnightblue" points="64.3704,-424.856 53.776,-424.96 62.123,-431.486 64.3704,-424.856"/>
</g>
<!-- Node5 -->
<g id="node9" class="node"><title>Node5</title>
<a xlink:href="../../dc/d97/import__sim__contacts_8js.html#a743b765309969ff1cee53aff4a1afc00" target="_top" xlink:title="SimContactsImporter">
<polygon fill="white" stroke="black" points="90,-405.384 90,-426.384 200,-426.384 200,-405.384 90,-405.384"/>
<text text-anchor="middle" x="145" y="-413.384" font-family="Helvetica,sans-Serif" font-size="10.00">SimContactsImporter</text>
</a>
</g>
<!-- Node1&#45;&gt;Node5 -->
<g id="edge8" class="edge"><title>Node1&#45;&gt;Node5</title>
<path fill="none" stroke="midnightblue" d="M63.8284,-415.884C72.099,-415.884 81.0498,-415.884 89.884,-415.884"/>
<polygon fill="midnightblue" stroke="midnightblue" points="63.7761,-412.384 53.776,-415.884 63.776,-419.384 63.7761,-412.384"/>
</g>
<!-- Node6 -->
<g id="node11" class="node"><title>Node6</title>
<a xlink:href="../../db/df4/geoloc_8js.html#a31a97803492551dde08226a1db095a68" target="_top" xlink:title="startGeoloc">
<polygon fill="white" stroke="black" points="111.5,-365.384 111.5,-386.384 178.5,-386.384 178.5,-365.384 111.5,-365.384"/>
<text text-anchor="middle" x="145" y="-373.384" font-family="Helvetica,sans-Serif" font-size="10.00">startGeoloc</text>
</a>
</g>
<!-- Node1&#45;&gt;Node6 -->
<g id="edge10" class="edge"><title>Node1&#45;&gt;Node6</title>
<path fill="none" stroke="midnightblue" d="M63.4102,-403.541C79.5176,-398.081 98.2708,-391.724 113.734,-386.482"/>
<polygon fill="midnightblue" stroke="midnightblue" points="62.123,-400.282 53.776,-406.807 64.3704,-406.911 62.123,-400.282"/>
</g>
<!-- Node7 -->
<g id="node13" class="node"><title>Node7</title>
<a xlink:href="../../db/d80/download_8js.html#acc4e419f5bedc9e697af56e25c615638" target="_top" xlink:title="view">
<polygon fill="white" stroke="black" points="126.5,-325.384 126.5,-346.384 163.5,-346.384 163.5,-325.384 126.5,-325.384"/>
<text text-anchor="middle" x="145" y="-333.384" font-family="Helvetica,sans-Serif" font-size="10.00">view</text>
</a>
</g>
<!-- Node1&#45;&gt;Node7 -->
<g id="edge12" class="edge"><title>Node1&#45;&gt;Node7</title>
<path fill="none" stroke="midnightblue" d="M42.398,-397.629C54.2732,-384.515 71.714,-367.218 90,-355.884 101.227,-348.925 115.234,-343.876 126.303,-340.592"/>
<polygon fill="midnightblue" stroke="midnightblue" points="39.7456,-395.345 35.7654,-405.164 45,-399.971 39.7456,-395.345"/>
</g>
<!-- Node3 -->
<g id="node5" class="node"><title>Node3</title>
<a xlink:href="../../d7/db0/music_2js_2open_8js.html#ac64dad6a2d30f4ceae7972a0eaeaf89d" target="_top" xlink:title="handleOpenActivity">
<polygon fill="white" stroke="black" points="242.5,-485.384 242.5,-506.384 343.5,-506.384 343.5,-485.384 242.5,-485.384"/>
<text text-anchor="middle" x="293" y="-493.384" font-family="Helvetica,sans-Serif" font-size="10.00">handleOpenActivity</text>
</a>
</g>
<!-- Node2&#45;&gt;Node3 -->
<g id="edge4" class="edge"><title>Node2&#45;&gt;Node3</title>
<path fill="none" stroke="midnightblue" d="M210.277,-495.884C220.992,-495.884 231.954,-495.884 242.248,-495.884"/>
<polygon fill="midnightblue" stroke="midnightblue" points="210.11,-492.384 200.11,-495.884 210.11,-499.384 210.11,-492.384"/>
</g>
<!-- Node8 -->
<g id="node15" class="node"><title>Node8</title>
<a xlink:href="../../d1/d6b/video_2js_2db_8js.html#a07a8305a9fda7b34a61e41cf04035824" target="_top" xlink:title="addVideo">
<polygon fill="white" stroke="black" points="264.5,-385.384 264.5,-406.384 321.5,-406.384 321.5,-385.384 264.5,-385.384"/>
<text text-anchor="middle" x="293" y="-393.384" font-family="Helvetica,sans-Serif" font-size="10.00">addVideo</text>
</a>
</g>
<!-- Node7&#45;&gt;Node8 -->
<g id="edge14" class="edge"><title>Node7&#45;&gt;Node8</title>
<path fill="none" stroke="midnightblue" d="M173.325,-345.215C182,-348.331 191.495,-352.005 200,-355.884 216.653,-363.48 219.304,-368.382 236,-375.884 244.992,-379.924 255.066,-383.694 264.214,-386.847"/>
<polygon fill="midnightblue" stroke="midnightblue" points="174.22,-341.821 163.626,-341.836 171.917,-348.431 174.22,-341.821"/>
</g>
<!-- Node9 -->
<g id="node17" class="node"><title>Node9</title>
<a xlink:href="../../d9/d43/membuster_8js.html#ad15b98f7924e70d78fa64fc49c7065e2" target="_top" xlink:title="allocChunk">
<polygon fill="white" stroke="black" points="260.5,-345.384 260.5,-366.384 325.5,-366.384 325.5,-345.384 260.5,-345.384"/>
<text text-anchor="middle" x="293" y="-353.384" font-family="Helvetica,sans-Serif" font-size="10.00">allocChunk</text>
</a>
</g>
<!-- Node7&#45;&gt;Node9 -->
<g id="edge16" class="edge"><title>Node7&#45;&gt;Node9</title>
<path fill="none" stroke="midnightblue" d="M173.98,-339.8C198.802,-343.154 234.523,-347.981 260.349,-351.471"/>
<polygon fill="midnightblue" stroke="midnightblue" points="174.123,-336.288 163.744,-338.417 173.185,-343.225 174.123,-336.288"/>
</g>
<!-- Node11 -->
<g id="node21" class="node"><title>Node11</title>
<a xlink:href="../../da/ded/ds-test_8js.html#ad7a048bdad39b96926d05f8dff50fc5e" target="_top" xlink:title="getRandomBuffer">
<polygon fill="white" stroke="black" points="246.5,-305.384 246.5,-326.384 339.5,-326.384 339.5,-305.384 246.5,-305.384"/>
<text text-anchor="middle" x="293" y="-313.384" font-family="Helvetica,sans-Serif" font-size="10.00">getRandomBuffer</text>
</a>
</g>
<!-- Node7&#45;&gt;Node11 -->
<g id="edge20" class="edge"><title>Node7&#45;&gt;Node11</title>
<path fill="none" stroke="midnightblue" d="M173.779,-331.995C194.417,-329.206 222.666,-325.388 246.486,-322.169"/>
<polygon fill="midnightblue" stroke="midnightblue" points="173.185,-328.543 163.744,-333.351 174.123,-335.48 173.185,-328.543"/>
</g>
<!-- Node16 -->
<g id="node31" class="node"><title>Node16</title>
<a xlink:href="../../d2/d52/contacts_2js_2navigation_8js.html#a06bf9c92d5a57b56292cf100937d2996" target="_top" xlink:title="navigationStack">
<polygon fill="white" stroke="black" points="250,-265.384 250,-286.384 336,-286.384 336,-265.384 250,-265.384"/>
<text text-anchor="middle" x="293" y="-273.384" font-family="Helvetica,sans-Serif" font-size="10.00">navigationStack</text>
</a>
</g>
<!-- Node7&#45;&gt;Node16 -->
<g id="edge30" class="edge"><title>Node7&#45;&gt;Node16</title>
<path fill="none" stroke="midnightblue" d="M172.923,-322.946C190.81,-314.824 214.599,-304.327 236,-295.884 244.195,-292.651 253.148,-289.386 261.481,-286.458"/>
<polygon fill="midnightblue" stroke="midnightblue" points="171.286,-319.846 163.646,-327.186 174.196,-326.213 171.286,-319.846"/>
</g>
<!-- Node17 -->
<g id="node33" class="node"><title>Node17</title>
<a xlink:href="../../d0/da2/gallery_8js.html#a87c564c1396bcdba1067fd5afa2a9815" target="_top" xlink:title="setView">
<polygon fill="white" stroke="black" points="267,-128.384 267,-149.384 319,-149.384 319,-128.384 267,-128.384"/>
<text text-anchor="middle" x="293" y="-136.384" font-family="Helvetica,sans-Serif" font-size="10.00">setView</text>
</a>
</g>
<!-- Node7&#45;&gt;Node17 -->
<g id="edge32" class="edge"><title>Node7&#45;&gt;Node17</title>
<path fill="none" stroke="midnightblue" d="M159.154,-317.044C189.717,-276.361 261.061,-181.398 285.004,-149.528"/>
<polygon fill="midnightblue" stroke="midnightblue" points="156.165,-315.195 152.957,-325.292 161.762,-319.399 156.165,-315.195"/>
</g>
<!-- Node29 -->
<g id="node63" class="node"><title>Node29</title>
<a xlink:href="../../d9/d18/browser__sms__conversation_8js.html#a7d56316c615c9766d2e3ee5b7d75d298" target="_top" xlink:title="testSMSConversation">
<polygon fill="white" stroke="black" points="236.5,-425.384 236.5,-446.384 349.5,-446.384 349.5,-425.384 236.5,-425.384"/>
<text text-anchor="middle" x="293" y="-433.384" font-family="Helvetica,sans-Serif" font-size="10.00">testSMSConversation</text>
</a>
</g>
<!-- Node7&#45;&gt;Node29 -->
<g id="edge68" class="edge"><title>Node7&#45;&gt;Node29</title>
<path fill="none" stroke="midnightblue" d="M173.305,-342.126C182.523,-345.163 192.344,-349.57 200,-355.884 223.993,-375.669 211.895,-396.235 236,-415.884 240.633,-419.661 246.029,-422.747 251.618,-425.264"/>
<polygon fill="midnightblue" stroke="midnightblue" points="174.248,-338.756 163.669,-339.344 172.306,-345.481 174.248,-338.756"/>
</g>
<!-- Node10 -->
<g id="node19" class="node"><title>Node10</title>
<a xlink:href="../../d9/d43/membuster_8js.html#a6e30a60edfe21fe96088ecb7ad76ae78" target="_top" xlink:title="bustSysmem">
<polygon fill="white" stroke="black" points="399,-345.384 399,-366.384 473,-366.384 473,-345.384 399,-345.384"/>
<text text-anchor="middle" x="436" y="-353.384" font-family="Helvetica,sans-Serif" font-size="10.00">bustSysmem</text>
</a>
</g>
<!-- Node9&#45;&gt;Node10 -->
<g id="edge18" class="edge"><title>Node9&#45;&gt;Node10</title>
<path fill="none" stroke="midnightblue" d="M335.912,-355.884C355.939,-355.884 379.55,-355.884 398.808,-355.884"/>
<polygon fill="midnightblue" stroke="midnightblue" points="335.807,-352.384 325.807,-355.884 335.807,-359.384 335.807,-352.384"/>
</g>
<!-- Node12 -->
<g id="node23" class="node"><title>Node12</title>
<a xlink:href="../../da/ded/ds-test_8js.html#a68e53af02715f6dba222c9b5eb59ec08" target="_top" xlink:title="createRandomBlob">
<polygon fill="white" stroke="black" points="386,-305.384 386,-326.384 486,-326.384 486,-305.384 386,-305.384"/>
<text text-anchor="middle" x="436" y="-313.384" font-family="Helvetica,sans-Serif" font-size="10.00">createRandomBlob</text>
</a>
</g>
<!-- Node11&#45;&gt;Node12 -->
<g id="edge22" class="edge"><title>Node11&#45;&gt;Node12</title>
<path fill="none" stroke="midnightblue" d="M349.998,-315.884C361.775,-315.884 374.1,-315.884 385.621,-315.884"/>
<polygon fill="midnightblue" stroke="midnightblue" points="349.824,-312.384 339.824,-315.884 349.824,-319.384 349.824,-312.384"/>
</g>
<!-- Node13 -->
<g id="node25" class="node"><title>Node13</title>
<a xlink:href="../../da/ded/ds-test_8js.html#a6002cef5ec5652b140c373e2b9b0313e" target="_top" xlink:title="ds_test_dotdot">
<polygon fill="white" stroke="black" points="539.5,-325.384 539.5,-346.384 620.5,-346.384 620.5,-325.384 539.5,-325.384"/>
<text text-anchor="middle" x="580" y="-333.384" font-family="Helvetica,sans-Serif" font-size="10.00">ds_test_dotdot</text>
</a>
</g>
<!-- Node12&#45;&gt;Node13 -->
<g id="edge24" class="edge"><title>Node12&#45;&gt;Node13</title>
<path fill="none" stroke="midnightblue" d="M496.292,-324.258C510.827,-326.276 526.015,-328.386 539.403,-330.245"/>
<polygon fill="midnightblue" stroke="midnightblue" points="496.751,-320.788 486.364,-322.879 495.788,-327.721 496.751,-320.788"/>
</g>
<!-- Node14 -->
<g id="node27" class="node"><title>Node14</title>
<a xlink:href="../../da/ded/ds-test_8js.html#a5a12f7f6ed49052c6bd3fc0b37055cc8" target="_top" xlink:title="ds_test_enumerate">
<polygon fill="white" stroke="black" points="530,-285.384 530,-306.384 630,-306.384 630,-285.384 530,-285.384"/>
<text text-anchor="middle" x="580" y="-293.384" font-family="Helvetica,sans-Serif" font-size="10.00">ds_test_enumerate</text>
</a>
</g>
<!-- Node12&#45;&gt;Node14 -->
<g id="edge26" class="edge"><title>Node12&#45;&gt;Node14</title>
<path fill="none" stroke="midnightblue" d="M496.457,-307.487C507.596,-305.94 519.115,-304.34 529.907,-302.841"/>
<polygon fill="midnightblue" stroke="midnightblue" points="495.788,-304.046 486.364,-308.889 496.751,-310.98 495.788,-304.046"/>
</g>
<!-- Node15 -->
<g id="node29" class="node"><title>Node15</title>
<a xlink:href="../../da/ded/ds-test_8js.html#ae87f8bc0e2408064ad3e98a82ba3fa93" target="_top" xlink:title="ds_test_watch">
<polygon fill="white" stroke="black" points="540,-365.384 540,-386.384 620,-386.384 620,-365.384 540,-365.384"/>
<text text-anchor="middle" x="580" y="-373.384" font-family="Helvetica,sans-Serif" font-size="10.00">ds_test_watch</text>
</a>
</g>
<!-- Node12&#45;&gt;Node15 -->
<g id="edge28" class="edge"><title>Node12&#45;&gt;Node15</title>
<path fill="none" stroke="midnightblue" d="M473.863,-330.436C477.991,-332.198 482.105,-334.032 486,-335.884 502.53,-343.743 505.284,-348.427 522,-355.884 529.685,-359.312 538.15,-362.528 546.182,-365.338"/>
<polygon fill="midnightblue" stroke="midnightblue" points="474.879,-327.069 464.301,-326.48 472.203,-333.538 474.879,-327.069"/>
</g>
<!-- Node18 -->
<g id="node35" class="node"><title>Node18</title>
<a xlink:href="../../d0/da2/gallery_8js.html#a3076caeb3485095859089546849fda05" target="_top" xlink:title="cropPickedImage">
<polygon fill="white" stroke="black" points="390,-167.384 390,-188.384 482,-188.384 482,-167.384 390,-167.384"/>
<text text-anchor="middle" x="436" y="-175.384" font-family="Helvetica,sans-Serif" font-size="10.00">cropPickedImage</text>
</a>
</g>
<!-- Node17&#45;&gt;Node18 -->
<g id="edge34" class="edge"><title>Node17&#45;&gt;Node18</title>
<path fill="none" stroke="midnightblue" d="M328.97,-148.694C349.788,-154.371 375.994,-161.518 397.264,-167.319"/>
<polygon fill="midnightblue" stroke="midnightblue" points="329.797,-145.292 319.228,-146.037 327.955,-152.045 329.797,-145.292"/>
</g>
<!-- Node19 -->
<g id="node37" class="node"><title>Node19</title>
<a xlink:href="../../db/d0b/_image_editor_8js.html#a4508c27e6632ff4cc9e658dbc4a422cb" target="_top" xlink:title="editPhoto">
<polygon fill="white" stroke="black" points="407,-207.384 407,-228.384 465,-228.384 465,-207.384 407,-207.384"/>
<text text-anchor="middle" x="436" y="-215.384" font-family="Helvetica,sans-Serif" font-size="10.00">editPhoto</text>
</a>
</g>
<!-- Node17&#45;&gt;Node19 -->
<g id="edge36" class="edge"><title>Node17&#45;&gt;Node19</title>
<path fill="none" stroke="midnightblue" d="M316.281,-155.358C334.674,-167.949 361.278,-185.235 386,-197.884 392.658,-201.291 400.038,-204.521 407.038,-207.353"/>
<polygon fill="midnightblue" stroke="midnightblue" points="318.169,-152.408 307.955,-149.595 314.185,-158.164 318.169,-152.408"/>
</g>
<!-- Node21 -->
<g id="node41" class="node"><title>Node21</title>
<a xlink:href="../../db/d0b/_image_editor_8js.html#aaea2ca378b592007014d8144c4f7717b" target="_top" xlink:title="exitEditMode">
<polygon fill="white" stroke="black" points="543,-51.3838 543,-72.3838 617,-72.3838 617,-51.3838 543,-51.3838"/>
<text text-anchor="middle" x="580" y="-59.3838" font-family="Helvetica,sans-Serif" font-size="10.00">exitEditMode</text>
</a>
</g>
<!-- Node17&#45;&gt;Node21 -->
<g id="edge40" class="edge"><title>Node17&#45;&gt;Node21</title>
<path fill="none" stroke="midnightblue" d="M313.529,-121.788C331.451,-107.91 358.786,-89.1728 386,-79.8838 438.339,-62.0189 502.956,-59.6314 542.819,-60.2384"/>
<polygon fill="midnightblue" stroke="midnightblue" points="311.178,-119.185 305.529,-128.148 315.535,-124.665 311.178,-119.185"/>
</g>
<!-- Node23 -->
<g id="node45" class="node"><title>Node23</title>
<a xlink:href="../../d0/da2/gallery_8js.html#a39586a47f4ee455f04350f3c8248e124" target="_top" xlink:title="fileDeleted">
<polygon fill="white" stroke="black" points="548.5,-131.384 548.5,-152.384 611.5,-152.384 611.5,-131.384 548.5,-131.384"/>
<text text-anchor="middle" x="580" y="-139.384" font-family="Helvetica,sans-Serif" font-size="10.00">fileDeleted</text>
</a>
</g>
<!-- Node17&#45;&gt;Node23 -->
<g id="edge44" class="edge"><title>Node17&#45;&gt;Node23</title>
<path fill="none" stroke="midnightblue" d="M329.532,-139.266C386.29,-139.859 494.689,-140.992 548.326,-141.553"/>
<polygon fill="midnightblue" stroke="midnightblue" points="329.266,-135.763 319.23,-139.158 329.193,-142.762 329.266,-135.763"/>
</g>
<!-- Node24 -->
<g id="node47" class="node"><title>Node24</title>
<a xlink:href="../../d0/da2/gallery_8js.html#aa3ad0f72d51416a18a4336efa0b2b3cf" target="_top" xlink:title="initDB">
<polygon fill="white" stroke="black" points="698,-112.384 698,-133.384 742,-133.384 742,-112.384 698,-112.384"/>
<text text-anchor="middle" x="720" y="-120.384" font-family="Helvetica,sans-Serif" font-size="10.00">initDB</text>
</a>
</g>
<!-- Node17&#45;&gt;Node24 -->
<g id="edge52" class="edge"><title>Node17&#45;&gt;Node24</title>
<path fill="none" stroke="midnightblue" d="M304.173,-158.234C319.239,-182.154 348.551,-221.682 386,-237.884 488.792,-282.355 538.434,-289.174 638,-237.884 681.815,-215.313 707.377,-157.291 716.339,-133.402"/>
<polygon fill="midnightblue" stroke="midnightblue" points="307.125,-156.353 298.941,-149.625 301.143,-159.988 307.125,-156.353"/>
</g>
<!-- Node25 -->
<g id="node49" class="node"><title>Node25</title>
<a xlink:href="../../d0/da2/gallery_8js.html#af8dc73726eb0578fe44fb98cd2319445" target="_top" xlink:title="init">
<polygon fill="white" stroke="black" points="802.5,-13.3838 802.5,-34.3838 831.5,-34.3838 831.5,-13.3838 802.5,-13.3838"/>
<text text-anchor="middle" x="817" y="-21.3838" font-family="Helvetica,sans-Serif" font-size="10.00">init</text>
</a>
</g>
<!-- Node17&#45;&gt;Node25 -->
<g id="edge50" class="edge"><title>Node17&#45;&gt;Node25</title>
<path fill="none" stroke="midnightblue" d="M302.916,-119.163C317.269,-92.966 346.502,-47.5932 386,-26.8838 395.053,-22.1371 669.57,-4.04383 674,-3.88376 714.862,-2.40712 725.823,3.71249 766,-3.88376 778.709,-6.2867 792.309,-11.781 802.265,-16.404"/>
<polygon fill="midnightblue" stroke="midnightblue" points="299.733,-117.696 298.154,-128.172 305.921,-120.967 299.733,-117.696"/>
</g>
<!-- Node26 -->
<g id="node53" class="node"><title>Node26</title>
<a xlink:href="../../d8/df0/frames_8js.html#acca2cb5dc9247f573a21f61583c8d81d" target="_top" xlink:title="showFile">
<polygon fill="white" stroke="black" points="408,-89.3838 408,-110.384 464,-110.384 464,-89.3838 408,-89.3838"/>
<text text-anchor="middle" x="436" y="-97.3838" font-family="Helvetica,sans-Serif" font-size="10.00">showFile</text>
</a>
</g>
<!-- Node17&#45;&gt;Node26 -->
<g id="edge54" class="edge"><title>Node17&#45;&gt;Node26</title>
<path fill="none" stroke="midnightblue" d="M328.882,-129.098C353.376,-122.417 385.361,-113.694 407.982,-107.525"/>
<polygon fill="midnightblue" stroke="midnightblue" points="327.955,-125.723 319.228,-131.731 329.797,-132.476 327.955,-125.723"/>
</g>
<!-- Node28 -->
<g id="node60" class="node"><title>Node28</title>
<a xlink:href="../../d0/da2/gallery_8js.html#af1ea14645dcd3a1078e952cbde544991" target="_top" xlink:title="startPick">
<polygon fill="white" stroke="black" points="692,-13.3838 692,-34.3838 748,-34.3838 748,-13.3838 692,-13.3838"/>
<text text-anchor="middle" x="720" y="-21.3838" font-family="Helvetica,sans-Serif" font-size="10.00">startPick</text>
</a>
</g>
<!-- Node17&#45;&gt;Node28 -->
<g id="edge64" class="edge"><title>Node17&#45;&gt;Node28</title>
<path fill="none" stroke="midnightblue" d="M308.032,-120.445C324.838,-101.261 353.938,-72.0799 386,-57.8838 490.992,-11.3966 632.182,-16.322 691.685,-21.0615"/>
<polygon fill="midnightblue" stroke="midnightblue" points="305.226,-118.341 301.409,-128.224 310.556,-122.879 305.226,-118.341"/>
</g>
<!-- Node20 -->
<g id="node39" class="node"><title>Node20</title>
<a xlink:href="../../db/d0b/_image_editor_8js.html#acd058f2b5b35e5443cc4e6a485ba0bde" target="_top" xlink:title="editPhotoIfCardNotFull">
<polygon fill="white" stroke="black" points="522,-207.384 522,-228.384 638,-228.384 638,-207.384 522,-207.384"/>
<text text-anchor="middle" x="580" y="-215.384" font-family="Helvetica,sans-Serif" font-size="10.00">editPhotoIfCardNotFull</text>
</a>
</g>
<!-- Node19&#45;&gt;Node20 -->
<g id="edge38" class="edge"><title>Node19&#45;&gt;Node20</title>
<path fill="none" stroke="midnightblue" d="M475.156,-217.884C489.509,-217.884 506.08,-217.884 521.748,-217.884"/>
<polygon fill="midnightblue" stroke="midnightblue" points="475.141,-214.384 465.141,-217.884 475.141,-221.384 475.141,-214.384"/>
</g>
<!-- Node22 -->
<g id="node43" class="node"><title>Node22</title>
<a xlink:href="../../db/d0b/_image_editor_8js.html#ac6f310b5d611ae1c1dd40f458d32690d" target="_top" xlink:title="saveEditedImage">
<polygon fill="white" stroke="black" points="674,-53.3838 674,-74.3838 766,-74.3838 766,-53.3838 674,-53.3838"/>
<text text-anchor="middle" x="720" y="-61.3838" font-family="Helvetica,sans-Serif" font-size="10.00">saveEditedImage</text>
</a>
</g>
<!-- Node21&#45;&gt;Node22 -->
<g id="edge42" class="edge"><title>Node21&#45;&gt;Node22</title>
<path fill="none" stroke="midnightblue" d="M627.277,-62.5591C642.325,-62.7741 658.945,-63.0115 673.908,-63.2253"/>
<polygon fill="midnightblue" stroke="midnightblue" points="627.199,-59.0578 617.15,-62.4145 627.099,-66.0571 627.199,-59.0578"/>
</g>
<!-- Node23&#45;&gt;Node24 -->
<g id="edge46" class="edge"><title>Node23&#45;&gt;Node24</title>
<path fill="none" stroke="midnightblue" d="M621.737,-136.219C646.755,-132.824 677.563,-128.643 697.94,-125.878"/>
<polygon fill="midnightblue" stroke="midnightblue" points="621.207,-132.759 611.768,-137.572 622.148,-139.696 621.207,-132.759"/>
</g>
<!-- Node24&#45;&gt;Node25 -->
<g id="edge48" class="edge"><title>Node24&#45;&gt;Node25</title>
<path fill="none" stroke="midnightblue" d="M741.61,-105.798C749.533,-99.2187 758.412,-91.4617 766,-83.8838 782.251,-67.6534 799.136,-46.8855 808.825,-34.5255"/>
<polygon fill="midnightblue" stroke="midnightblue" points="739.332,-103.14 733.794,-112.172 743.756,-108.565 739.332,-103.14"/>
</g>
<!-- Node26&#45;&gt;Node21 -->
<g id="edge56" class="edge"><title>Node26&#45;&gt;Node21</title>
<path fill="none" stroke="midnightblue" d="M473.815,-89.9047C495.166,-84.2705 521.739,-77.2582 542.961,-71.6579"/>
<polygon fill="midnightblue" stroke="midnightblue" points="472.882,-86.531 464.106,-92.4668 474.669,-93.2993 472.882,-86.531"/>
</g>
<!-- Node26&#45;&gt;Node23 -->
<g id="edge62" class="edge"><title>Node26&#45;&gt;Node23</title>
<path fill="none" stroke="midnightblue" d="M473.966,-110.957C497.182,-117.728 526.529,-126.288 548.46,-132.685"/>
<polygon fill="midnightblue" stroke="midnightblue" points="474.687,-107.522 464.106,-108.081 472.726,-114.242 474.687,-107.522"/>
</g>
<!-- Node27 -->
<g id="node56" class="node"><title>Node27</title>
<a xlink:href="../../d0/da2/gallery_8js.html#a99873e3fc1be38a0caf0999e2a5b6e65" target="_top" xlink:title="fileCreated">
<polygon fill="white" stroke="black" points="548,-91.3838 548,-112.384 612,-112.384 612,-91.3838 548,-91.3838"/>
<text text-anchor="middle" x="580" y="-99.3838" font-family="Helvetica,sans-Serif" font-size="10.00">fileCreated</text>
</a>
</g>
<!-- Node26&#45;&gt;Node27 -->
<g id="edge58" class="edge"><title>Node26&#45;&gt;Node27</title>
<path fill="none" stroke="midnightblue" d="M474.207,-100.414C497.204,-100.734 526.15,-101.136 547.948,-101.439"/>
<polygon fill="midnightblue" stroke="midnightblue" points="474.154,-96.9134 464.106,-100.274 474.057,-103.913 474.154,-96.9134"/>
</g>
<!-- Node27&#45;&gt;Node24 -->
<g id="edge60" class="edge"><title>Node27&#45;&gt;Node24</title>
<path fill="none" stroke="midnightblue" d="M622.024,-108.187C646.862,-111.913 677.325,-116.483 697.625,-119.528"/>
<polygon fill="midnightblue" stroke="midnightblue" points="622.527,-104.724 612.119,-106.702 621.489,-111.646 622.527,-104.724"/>
</g>
<!-- Node28&#45;&gt;Node25 -->
<g id="edge66" class="edge"><title>Node28&#45;&gt;Node25</title>
<path fill="none" stroke="midnightblue" d="M758.457,-23.8838C773.927,-23.8838 790.823,-23.8838 802.47,-23.8838"/>
<polygon fill="midnightblue" stroke="midnightblue" points="758.056,-20.3839 748.056,-23.8838 758.056,-27.3839 758.056,-20.3839"/>
</g>
<!-- Node30 -->
<g id="node65" class="node"><title>Node30</title>
<a xlink:href="../../d9/d18/browser__sms__conversation_8js.html#acd92914cbf7a39ba90b1472c49cb71d4" target="_top" xlink:title="generatorTest">
<polygon fill="white" stroke="black" points="397.5,-425.384 397.5,-446.384 474.5,-446.384 474.5,-425.384 397.5,-425.384"/>
<text text-anchor="middle" x="436" y="-433.384" font-family="Helvetica,sans-Serif" font-size="10.00">generatorTest</text>
</a>
</g>
<!-- Node29&#45;&gt;Node30 -->
<g id="edge70" class="edge"><title>Node29&#45;&gt;Node30</title>
<path fill="none" stroke="midnightblue" d="M359.803,-435.884C372.724,-435.884 385.85,-435.884 397.485,-435.884"/>
<polygon fill="midnightblue" stroke="midnightblue" points="359.517,-432.384 349.517,-435.884 359.517,-439.384 359.517,-432.384"/>
</g>
</g>
</svg>
        <g id="navigator" transform="translate(0 0)" fill="#404254">
                <rect fill="#f2f5e9" fill-opacity="0.5" stroke="#606060" stroke-width=".5" x="0" y="0" width="60" height="60"/>
                <use id="zoomplus" xlink:href="#zoomPlus" x="17" y="9" onmousedown="handleZoom(evt,'in')"/>
                <use id="zoomminus" xlink:href="#zoomMin" x="42" y="9" onmousedown="handleZoom(evt,'out')"/>
                <use id="reset" xlink:href="#resetDef" x="30" y="36" onmousedown="handleReset()"/>
                <g id="arrowUp" xlink:href="#dirArrow" transform="translate(30 24)" onmousedown="handlePan(0,-1)">
                  <use xlink:href="#rim" fill="#404040">
                        <set attributeName="fill" to="#808080" begin="arrowUp.mouseover" end="arrowUp.mouseout"/>
                  </use>
                  <path fill="none" stroke="white" stroke-width="1.5" d="M0,-3.0v7 M-2.5,-0.5L0,-3.0L2.5,-0.5"/>
                </g>
                <g id="arrowRight" xlink:href="#dirArrow" transform="rotate(90) translate(36 -43)" onmousedown="handlePan(1,0)">
                  <use xlink:href="#rim" fill="#404040">
                        <set attributeName="fill" to="#808080" begin="arrowRight.mouseover" end="arrowRight.mouseout"/>
                  </use>
                  <path fill="none" stroke="white" stroke-width="1.5" d="M0,-3.0v7 M-2.5,-0.5L0,-3.0L2.5,-0.5"/>
                </g>
                <g id="arrowDown" xlink:href="#dirArrow" transform="rotate(180) translate(-30 -48)" onmousedown="handlePan(0,1)">
                  <use xlink:href="#rim" fill="#404040">
                        <set attributeName="fill" to="#808080" begin="arrowDown.mouseover" end="arrowDown.mouseout"/>
                  </use>
                  <path fill="none" stroke="white" stroke-width="1.5" d="M0,-3.0v7 M-2.5,-0.5L0,-3.0L2.5,-0.5"/>
                </g>
                <g id="arrowLeft" xlink:href="#dirArrow" transform="rotate(270) translate(-36 17)" onmousedown="handlePan(-1,0)">
                  <use xlink:href="#rim" fill="#404040">
                        <set attributeName="fill" to="#808080" begin="arrowLeft.mouseover" end="arrowLeft.mouseout"/>
                  </use>
                  <path fill="none" stroke="white" stroke-width="1.5" d="M0,-3.0v7 M-2.5,-0.5L0,-3.0L2.5,-0.5"/>
                </g>
        </g>
</svg>
