<?xml version="1.0" encoding="UTF-8" standalone="no"?>
<!DOCTYPE svg PUBLIC "-//W3C//DTD SVG 1.1//EN"
 "http://www.w3.org/Graphics/SVG/1.1/DTD/svg11.dtd">
<!-- Generated by graphviz version 2.26.3 (20100126.1600)
 -->
<!-- Title: G Pages: 1 -->
<!--zoomable 186 -->
<svg id="main" version="1.1" xmlns="http://www.w3.org/2000/svg" xmlns:xlink="http://www.w3.org/1999/xlink" xml:space="preserve" onload="init(evt)">
        <defs>
                <circle id="rim" cx="0" cy="0" r="7"/>
                <circle id="rim2" cx="0" cy="0" r="3.5"/>
                <g id="zoomPlus">
                        <use xlink:href="#rim" fill="#404040">
                                <set attributeName="fill" to="#808080" begin="zoomplus.mouseover" end="zoomplus.mouseout"/>
                        </use>
                        <path d="M-4,0h8M0,-4v8" fill="none" stroke="white" stroke-width="1.5" pointer-events="none"/>
                </g>
                <g id="zoomMin">
                        <use xlink:href="#rim" fill="#404040">
                                <set attributeName="fill" to="#808080" begin="zoomminus.mouseover" end="zoomminus.mouseout"/>
                        </use>
                        <path d="M-4,0h8" fill="none" stroke="white" stroke-width="1.5" pointer-events="none"/>
                </g>
                <g id="dirArrow">
                        <path fill="none" stroke="white" stroke-width="1.5" d="M0,-3.0v7 M-2.5,-0.5L0,-3.0L2.5,-0.5"/>
                </g>
               <g id="resetDef">
                       <use xlink:href="#rim2" fill="#404040">
                               <set attributeName="fill" to="#808080" begin="reset.mouseover" end="reset.mouseout"/>
                       </use>
               </g>
        </defs>

<script type="text/javascript">
var viewWidth = 968;
var viewHeight = 186;
var sectionId = 'dynsection-1';
</script>
<script xlink:href="../../svgpan.js"/>
<svg id="graph" class="graph">
<g id="viewport">
<title>G</title>
<polygon fill="white" stroke="white" points="-4,5 -4,-182 965,-182 965,5 -4,5"/>
<!-- Node1 -->
<g id="node1" class="node"><title>Node1</title>
<polygon fill="#bfbfbf" stroke="black" points="0,-117.5 0,-138.5 320,-138.5 320,-117.5 0,-117.5"/>
<text text-anchor="middle" x="160" y="-125.5" font-family="Helvetica,sans-Serif" font-size="10.00">mozilla::dom::WorkerLocationBinding_workers::GetConstructorObject</text>
</g>
<!-- Node2 -->
<g id="node3" class="node"><title>Node2</title>
<a xlink:href="../../df/d1b/namespacemozilla_1_1dom_1_1_worker_location_binding__workers.html#a3cef176e57d9e645ca0201d74916f637" target="_top" xlink:title="mozilla::dom::WorkerLocationBinding_workers::CreateInterfaceObjects">
<polygon fill="white" stroke="black" points="356,-156.5 356,-177.5 682,-177.5 682,-156.5 356,-156.5"/>
<text text-anchor="middle" x="519" y="-164.5" font-family="Helvetica,sans-Serif" font-size="10.00">mozilla::dom::WorkerLocationBinding_workers::CreateInterfaceObjects</text>
</a>
</g>
<!-- Node1&#45;&gt;Node2 -->
<g id="edge2" class="edge"><title>Node1&#45;&gt;Node2</title>
<path fill="none" stroke="midnightblue" d="M256.678,-138.503C304.668,-143.716 362.773,-150.028 412.089,-155.386"/>
<polygon fill="midnightblue" stroke="midnightblue" points="411.83,-158.878 422.15,-156.479 412.586,-151.919 411.83,-158.878"/>
</g>
<!-- Node3 -->
<g id="node5" class="node"><title>Node3</title>
<a xlink:href="../../db/da2/namespacejs.html#aca7ef07fd5e632405949331c6929f1e6" target="_top" xlink:title="js::GetObjectClass">
<polygon fill="white" stroke="black" points="860,-79.5 860,-100.5 960,-100.5 960,-79.5 860,-79.5"/>
<text text-anchor="middle" x="910" y="-87.5" font-family="Helvetica,sans-Serif" font-size="10.00">js::GetObjectClass</text>
</a>
</g>
<!-- Node1&#45;&gt;Node3 -->
<g id="edge4" class="edge"><title>Node1&#45;&gt;Node3</title>
<path fill="none" stroke="midnightblue" d="M320.047,-121.252C454.571,-115.349 651.903,-106.149 824,-96 832.376,-95.506 841.208,-94.9407 849.895,-94.3589"/>
<polygon fill="midnightblue" stroke="midnightblue" points="850.25,-97.8429 859.989,-93.6716 849.774,-90.859 850.25,-97.8429"/>
</g>
<!-- Node4 -->
<g id="node7" class="node"><title>Node4</title>
<a xlink:href="../../d7/d4b/namespacemozilla_1_1dom.html#ade3c1c38ff416c6d50f6c97f01f836e1" target="_top" xlink:title="mozilla::dom::GetProtoAndIfaceArray">
<polygon fill="white" stroke="black" points="429.5,-59.5 429.5,-80.5 608.5,-80.5 608.5,-59.5 429.5,-59.5"/>
<text text-anchor="middle" x="519" y="-67.5" font-family="Helvetica,sans-Serif" font-size="10.00">mozilla::dom::GetProtoAndIfaceArray</text>
</a>
</g>
<!-- Node1&#45;&gt;Node4 -->
<g id="edge6" class="edge"><title>Node1&#45;&gt;Node4</title>
<path fill="none" stroke="midnightblue" d="M225.012,-117.497C286.579,-107.55 378.987,-92.6205 443.723,-82.1618"/>
<polygon fill="midnightblue" stroke="midnightblue" points="444.552,-85.5733 453.866,-80.5231 443.436,-78.6629 444.552,-85.5733"/>
</g>
<!-- Node4&#45;&gt;Node3 -->
<g id="edge8" class="edge"><title>Node4&#45;&gt;Node3</title>
<path fill="none" stroke="midnightblue" d="M608.703,-74.5884C682.645,-78.3706 785.48,-83.6307 849.857,-86.9236"/>
<polygon fill="midnightblue" stroke="midnightblue" points="849.683,-90.4192 859.848,-87.4347 850.04,-83.4283 849.683,-90.4192"/>
</g>
<!-- Node5 -->
<g id="node10" class="node"><title>Node5</title>
<a xlink:href="../../db/da2/namespacejs.html#ad81f7c892e54c34c67a930983b58c1b0" target="_top" xlink:title="js::GetReservedSlot">
<polygon fill="white" stroke="black" points="718.5,-40.5 718.5,-61.5 823.5,-61.5 823.5,-40.5 718.5,-40.5"/>
<text text-anchor="middle" x="771" y="-48.5" font-family="Helvetica,sans-Serif" font-size="10.00">js::GetReservedSlot</text>
</a>
</g>
<!-- Node4&#45;&gt;Node5 -->
<g id="edge10" class="edge"><title>Node4&#45;&gt;Node5</title>
<path fill="none" stroke="midnightblue" d="M608.555,-63.2478C641.458,-60.7671 677.988,-58.0128 708.061,-55.7454"/>
<polygon fill="midnightblue" stroke="midnightblue" points="708.704,-59.207 718.412,-54.965 708.177,-52.2268 708.704,-59.207"/>
</g>
<!-- Node6 -->
<g id="node13" class="node"><title>Node6</title>
<a xlink:href="../../d1/d94/class_j_s_1_1_value.html#acb6cff159be405ffc5f5f64fa39a04db" target="_top" xlink:title="JS::Value::toPrivate">
<polygon fill="white" stroke="black" points="719,-0.5 719,-21.5 823,-21.5 823,-0.5 719,-0.5"/>
<text text-anchor="middle" x="771" y="-8.5" font-family="Helvetica,sans-Serif" font-size="10.00">JS::Value::toPrivate</text>
</a>
</g>
<!-- Node4&#45;&gt;Node6 -->
<g id="edge14" class="edge"><title>Node4&#45;&gt;Node6</title>
<path fill="none" stroke="midnightblue" d="M564.053,-59.452C606.565,-49.4988 670.397,-34.554 715.917,-23.8965"/>
<polygon fill="midnightblue" stroke="midnightblue" points="716.975,-27.2435 725.913,-21.556 715.379,-20.4278 716.975,-27.2435"/>
</g>
<!-- Node5&#45;&gt;Node3 -->
<g id="edge12" class="edge"><title>Node5&#45;&gt;Node3</title>
<path fill="none" stroke="midnightblue" d="M808.615,-61.554C825.149,-66.1929 844.757,-71.6943 862.302,-76.617"/>
<polygon fill="midnightblue" stroke="midnightblue" points="861.781,-80.106 872.355,-79.4376 863.672,-73.3662 861.781,-80.106"/>
</g>
</g>
</svg>
        <g id="navigator" transform="translate(0 0)" fill="#404254">
                <rect fill="#f2f5e9" fill-opacity="0.5" stroke="#606060" stroke-width=".5" x="0" y="0" width="60" height="60"/>
                <use id="zoomplus" xlink:href="#zoomPlus" x="17" y="9" onmousedown="handleZoom(evt,'in')"/>
                <use id="zoomminus" xlink:href="#zoomMin" x="42" y="9" onmousedown="handleZoom(evt,'out')"/>
                <use id="reset" xlink:href="#resetDef" x="30" y="36" onmousedown="handleReset()"/>
                <g id="arrowUp" xlink:href="#dirArrow" transform="translate(30 24)" onmousedown="handlePan(0,-1)">
                  <use xlink:href="#rim" fill="#404040">
                        <set attributeName="fill" to="#808080" begin="arrowUp.mouseover" end="arrowUp.mouseout"/>
                  </use>
                  <path fill="none" stroke="white" stroke-width="1.5" d="M0,-3.0v7 M-2.5,-0.5L0,-3.0L2.5,-0.5"/>
                </g>
                <g id="arrowRight" xlink:href="#dirArrow" transform="rotate(90) translate(36 -43)" onmousedown="handlePan(1,0)">
                  <use xlink:href="#rim" fill="#404040">
                        <set attributeName="fill" to="#808080" begin="arrowRight.mouseover" end="arrowRight.mouseout"/>
                  </use>
                  <path fill="none" stroke="white" stroke-width="1.5" d="M0,-3.0v7 M-2.5,-0.5L0,-3.0L2.5,-0.5"/>
                </g>
                <g id="arrowDown" xlink:href="#dirArrow" transform="rotate(180) translate(-30 -48)" onmousedown="handlePan(0,1)">
                  <use xlink:href="#rim" fill="#404040">
                        <set attributeName="fill" to="#808080" begin="arrowDown.mouseover" end="arrowDown.mouseout"/>
                  </use>
                  <path fill="none" stroke="white" stroke-width="1.5" d="M0,-3.0v7 M-2.5,-0.5L0,-3.0L2.5,-0.5"/>
                </g>
                <g id="arrowLeft" xlink:href="#dirArrow" transform="rotate(270) translate(-36 17)" onmousedown="handlePan(-1,0)">
                  <use xlink:href="#rim" fill="#404040">
                        <set attributeName="fill" to="#808080" begin="arrowLeft.mouseover" end="arrowLeft.mouseout"/>
                  </use>
                  <path fill="none" stroke="white" stroke-width="1.5" d="M0,-3.0v7 M-2.5,-0.5L0,-3.0L2.5,-0.5"/>
                </g>
        </g>
</svg>
