<?xml version="1.0" encoding="UTF-8" standalone="no"?>
<!DOCTYPE svg PUBLIC "-//W3C//DTD SVG 1.1//EN"
 "http://www.w3.org/Graphics/SVG/1.1/DTD/svg11.dtd">
<!-- Generated by graphviz version 2.26.3 (20100126.1600)
 -->
<!-- Title: G Pages: 1 -->
<svg width="417pt" height="178pt"
 viewBox="0.00 0.00 417.00 178.00" xmlns="http://www.w3.org/2000/svg" xmlns:xlink="http://www.w3.org/1999/xlink">
<g id="graph1" class="graph" transform="scale(1 1) rotate(0) translate(4 174)">
<title>G</title>
<polygon fill="white" stroke="white" points="-4,5 -4,-174 414,-174 414,5 -4,5"/>
<!-- Node1 -->
<g id="node1" class="node"><title>Node1</title>
<polygon fill="#bfbfbf" stroke="black" points="152,-0.5 152,-21.5 246,-21.5 246,-0.5 152,-0.5"/>
<text text-anchor="middle" x="199" y="-8.5" font-family="Helvetica,sans-Serif" font-size="10.00">CERTUserNotice</text>
</g>
<!-- Node2 -->
<g id="node2" class="node"><title>Node2</title>
<a xlink:href="../../d2/ddb/struct_c_e_r_t_notice_reference.html" target="_top" xlink:title="CERTNoticeReference">
<polygon fill="white" stroke="black" points="45,-74.5 45,-95.5 163,-95.5 163,-74.5 45,-74.5"/>
<text text-anchor="middle" x="104" y="-82.5" font-family="Helvetica,sans-Serif" font-size="10.00">CERTNoticeReference</text>
</a>
</g>
<!-- Node2&#45;&gt;Node1 -->
<g id="edge2" class="edge"><title>Node2&#45;&gt;Node1</title>
<path fill="none" stroke="#9a32cd" stroke-dasharray="5,2" d="M102.218,-64.255C102.571,-55.8853 104.461,-46.6549 110,-40 115.822,-33.0055 133.585,-26.5804 151.726,-21.5653"/>
<polygon fill="#9a32cd" stroke="#9a32cd" points="98.724,-64.5597 102.462,-74.4731 105.722,-64.3923 98.724,-64.5597"/>
<text text-anchor="middle" x="147.5" y="-44.5" font-family="Helvetica,sans-Serif" font-size="10.00"> noticeReference</text>
</g>
<!-- Node3 -->
<g id="node4" class="node"><title>Node3</title>
<a xlink:href="../../d2/d86/struct_s_e_c_item_str.html" target="_top" xlink:title="SECItemStr">
<polygon fill="white" stroke="black" points="0,-148.5 0,-169.5 70,-169.5 70,-148.5 0,-148.5"/>
<text text-anchor="middle" x="35" y="-156.5" font-family="Helvetica,sans-Serif" font-size="10.00">SECItemStr</text>
</a>
</g>
<!-- Node3&#45;&gt;Node2 -->
<g id="edge4" class="edge"><title>Node3&#45;&gt;Node2</title>
<path fill="none" stroke="#9a32cd" stroke-dasharray="5,2" d="M31.1092,-138.229C30.7696,-130.685 31.7518,-122.44 36,-116 42.1443,-106.686 51.8345,-100.131 61.9947,-95.5334"/>
<polygon fill="#9a32cd" stroke="#9a32cd" points="27.6331,-138.639 32.2665,-148.167 34.5862,-137.829 27.6331,-138.639"/>
<text text-anchor="middle" x="71" y="-120.5" font-family="Helvetica,sans-Serif" font-size="10.00"> noticeNumbers</text>
</g>
<!-- Node4 -->
<g id="node6" class="node"><title>Node4</title>
<polygon fill="white" stroke="#bfbfbf" points="178.5,-148.5 178.5,-169.5 219.5,-169.5 219.5,-148.5 178.5,-148.5"/>
<text text-anchor="middle" x="199" y="-156.5" font-family="Helvetica,sans-Serif" font-size="10.00">struct</text>
</g>
<!-- Node4&#45;&gt;Node1 -->
<g id="edge16" class="edge"><title>Node4&#45;&gt;Node1</title>
<path fill="none" stroke="#9a32cd" stroke-dasharray="5,2" d="M199,-138.32C199,-106.3 199,-45.8794 199,-21.5474"/>
<polygon fill="#9a32cd" stroke="#9a32cd" points="195.5,-138.356 199,-148.356 202.5,-138.356 195.5,-138.356"/>
<text text-anchor="middle" x="243" y="-89" font-family="Helvetica,sans-Serif" font-size="10.00"> displayText</text>
<text text-anchor="middle" x="243" y="-76" font-family="Helvetica,sans-Serif" font-size="10.00">derNoticeReference</text>
</g>
<!-- Node4&#45;&gt;Node2 -->
<g id="edge6" class="edge"><title>Node4&#45;&gt;Node2</title>
<path fill="none" stroke="#9a32cd" stroke-dasharray="5,2" d="M168.595,-151.337C155.285,-146.817 140.188,-139.976 129,-130 118.461,-120.602 111.408,-105.663 107.553,-95.603"/>
<polygon fill="#9a32cd" stroke="#9a32cd" points="167.743,-154.737 178.331,-154.355 169.815,-148.051 167.743,-154.737"/>
<text text-anchor="middle" x="157" y="-120.5" font-family="Helvetica,sans-Serif" font-size="10.00"> organization</text>
</g>
<!-- Node5 -->
<g id="node8" class="node"><title>Node5</title>
<a xlink:href="../../df/db7/struct_p_l_arena_pool.html" target="_top" xlink:title="PLArenaPool">
<polygon fill="white" stroke="black" points="305,-74.5 305,-95.5 379,-95.5 379,-74.5 305,-74.5"/>
<text text-anchor="middle" x="342" y="-82.5" font-family="Helvetica,sans-Serif" font-size="10.00">PLArenaPool</text>
</a>
</g>
<!-- Node4&#45;&gt;Node5 -->
<g id="edge14" class="edge"><title>Node4&#45;&gt;Node5</title>
<path fill="none" stroke="#9a32cd" stroke-dasharray="5,2" d="M228.727,-143.617C256.508,-129.24 297.25,-108.158 321.55,-95.5827"/>
<polygon fill="#9a32cd" stroke="#9a32cd" points="226.761,-140.693 219.488,-148.398 229.978,-146.91 226.761,-140.693"/>
<text text-anchor="middle" x="289" y="-120.5" font-family="Helvetica,sans-Serif" font-size="10.00"> first</text>
</g>
<!-- Node5&#45;&gt;Node1 -->
<g id="edge8" class="edge"><title>Node5&#45;&gt;Node1</title>
<path fill="none" stroke="#9a32cd" stroke-dasharray="5,2" d="M312.273,-69.617C284.492,-55.2404 243.75,-34.1576 219.45,-21.5827"/>
<polygon fill="#9a32cd" stroke="#9a32cd" points="311.022,-72.9101 321.512,-74.3976 314.239,-66.6932 311.022,-72.9101"/>
<text text-anchor="middle" x="293" y="-44.5" font-family="Helvetica,sans-Serif" font-size="10.00"> arena</text>
</g>
<!-- Node6 -->
<g id="node10" class="node"><title>Node6</title>
<a xlink:href="../../d0/da4/struct_p_l_arena.html" target="_top" xlink:title="PLArena">
<polygon fill="white" stroke="black" points="315,-148.5 315,-169.5 369,-169.5 369,-148.5 315,-148.5"/>
<text text-anchor="middle" x="342" y="-156.5" font-family="Helvetica,sans-Serif" font-size="10.00">PLArena</text>
</a>
</g>
<!-- Node6&#45;&gt;Node5 -->
<g id="edge10" class="edge"><title>Node6&#45;&gt;Node5</title>
<path fill="none" stroke="#9a32cd" stroke-dasharray="5,2" d="M342,-138.277C342,-124.387 342,-106.675 342,-95.5827"/>
<polygon fill="#9a32cd" stroke="#9a32cd" points="338.5,-138.398 342,-148.398 345.5,-138.398 338.5,-138.398"/>
<text text-anchor="middle" x="359" y="-120.5" font-family="Helvetica,sans-Serif" font-size="10.00"> current</text>
</g>
<!-- Node6&#45;&gt;Node6 -->
<g id="edge12" class="edge"><title>Node6&#45;&gt;Node6</title>
<path fill="none" stroke="#9a32cd" stroke-dasharray="5,2" d="M379.51,-164.818C384.038,-163.767 387,-161.828 387,-159 387,-154.359 379.024,-152.112 369.241,-152.257"/>
<polygon fill="#9a32cd" stroke="#9a32cd" points="378.886,-161.36 369.241,-165.743 379.515,-168.332 378.886,-161.36"/>
<text text-anchor="middle" x="398" y="-156.5" font-family="Helvetica,sans-Serif" font-size="10.00"> next</text>
</g>
</g>
</svg>
