<?xml version="1.0" encoding="UTF-8" standalone="no"?>
<!DOCTYPE svg PUBLIC "-//W3C//DTD SVG 1.1//EN"
 "http://www.w3.org/Graphics/SVG/1.1/DTD/svg11.dtd">
<!-- Generated by graphviz version 2.26.3 (20100126.1600)
 -->
<!-- Title: G Pages: 1 -->
<!--zoomable 150 -->
<svg id="main" version="1.1" xmlns="http://www.w3.org/2000/svg" xmlns:xlink="http://www.w3.org/1999/xlink" xml:space="preserve" onload="init(evt)">
        <defs>
                <circle id="rim" cx="0" cy="0" r="7"/>
                <circle id="rim2" cx="0" cy="0" r="3.5"/>
                <g id="zoomPlus">
                        <use xlink:href="#rim" fill="#404040">
                                <set attributeName="fill" to="#808080" begin="zoomplus.mouseover" end="zoomplus.mouseout"/>
                        </use>
                        <path d="M-4,0h8M0,-4v8" fill="none" stroke="white" stroke-width="1.5" pointer-events="none"/>
                </g>
                <g id="zoomMin">
                        <use xlink:href="#rim" fill="#404040">
                                <set attributeName="fill" to="#808080" begin="zoomminus.mouseover" end="zoomminus.mouseout"/>
                        </use>
                        <path d="M-4,0h8" fill="none" stroke="white" stroke-width="1.5" pointer-events="none"/>
                </g>
                <g id="dirArrow">
                        <path fill="none" stroke="white" stroke-width="1.5" d="M0,-3.0v7 M-2.5,-0.5L0,-3.0L2.5,-0.5"/>
                </g>
               <g id="resetDef">
                       <use xlink:href="#rim2" fill="#404040">
                               <set attributeName="fill" to="#808080" begin="reset.mouseover" end="reset.mouseout"/>
                       </use>
               </g>
        </defs>

<script type="text/javascript">
var viewWidth = 562;
var viewHeight = 150;
var sectionId = 'dynsection-38';
</script>
<script xlink:href="../../svgpan.js"/>
<svg id="graph" class="graph">
<g id="viewport">
<title>G</title>
<polygon fill="white" stroke="white" points="-4,5 -4,-146 559,-146 559,5 -4,5"/>
<!-- Node1 -->
<g id="node1" class="node"><title>Node1</title>
<polygon fill="#bfbfbf" stroke="black" points="0,-60.5 0,-81.5 230,-81.5 230,-60.5 0,-60.5"/>
<text text-anchor="middle" x="115" y="-68.5" font-family="Helvetica,sans-Serif" font-size="10.00">mozilla::layers::Layer::SnapTransformTranslation</text>
</g>
<!-- Node2 -->
<g id="node3" class="node"><title>Node2</title>
<a xlink:href="../../d9/d68/classmozilla_1_1layers_1_1_readback_layer.html#ad2eab6c7e9e3cc3e6b415b97498526ee" target="_top" xlink:title="mozilla::layers::ReadbackLayer::ComputeEffectiveTransforms">
<polygon fill="white" stroke="black" points="266,-120.5 266,-141.5 554,-141.5 554,-120.5 266,-120.5"/>
<text text-anchor="middle" x="410" y="-128.5" font-family="Helvetica,sans-Serif" font-size="10.00">mozilla::layers::ReadbackLayer::ComputeEffectiveTransforms</text>
</a>
</g>
<!-- Node1&#45;&gt;Node2 -->
<g id="edge2" class="edge"><title>Node1&#45;&gt;Node2</title>
<path fill="none" stroke="midnightblue" d="M159.522,-84.3122C189.418,-92.875 229.811,-103.721 266,-111 283.94,-114.608 303.268,-117.777 321.759,-120.465"/>
<polygon fill="midnightblue" stroke="midnightblue" points="160.385,-80.9186 149.806,-81.5043 158.441,-87.6433 160.385,-80.9186"/>
</g>
<!-- Node3 -->
<g id="node5" class="node"><title>Node3</title>
<a xlink:href="../../da/d93/classmozilla_1_1layers_1_1_thebes_layer.html#a5cd8344d8973324b89dce53eae5dd716" target="_top" xlink:title="mozilla::layers::ThebesLayer::ComputeEffectiveTransforms">
<polygon fill="white" stroke="black" points="272,-80.5 272,-101.5 548,-101.5 548,-80.5 272,-80.5"/>
<text text-anchor="middle" x="410" y="-88.5" font-family="Helvetica,sans-Serif" font-size="10.00">mozilla::layers::ThebesLayer::ComputeEffectiveTransforms</text>
</a>
</g>
<!-- Node1&#45;&gt;Node3 -->
<g id="edge4" class="edge"><title>Node1&#45;&gt;Node3</title>
<path fill="none" stroke="midnightblue" d="M240.567,-79.513C250.868,-80.2114 261.315,-80.9197 271.701,-81.6238"/>
<polygon fill="midnightblue" stroke="midnightblue" points="240.536,-76.003 230.322,-78.8185 240.062,-82.9869 240.536,-76.003"/>
</g>
<!-- Node4 -->
<g id="node7" class="node"><title>Node4</title>
<a xlink:href="../../d5/d00/classmozilla_1_1layers_1_1_color_layer.html#ae95de82679b0b8d0a6d04b485b793f93" target="_top" xlink:title="mozilla::layers::ColorLayer::ComputeEffectiveTransforms">
<polygon fill="white" stroke="black" points="276.5,-40.5 276.5,-61.5 543.5,-61.5 543.5,-40.5 276.5,-40.5"/>
<text text-anchor="middle" x="410" y="-48.5" font-family="Helvetica,sans-Serif" font-size="10.00">mozilla::layers::ColorLayer::ComputeEffectiveTransforms</text>
</a>
</g>
<!-- Node1&#45;&gt;Node4 -->
<g id="edge6" class="edge"><title>Node1&#45;&gt;Node4</title>
<path fill="none" stroke="midnightblue" d="M240.601,-62.4847C252.363,-61.6873 264.314,-60.877 276.148,-60.0747"/>
<polygon fill="midnightblue" stroke="midnightblue" points="240.062,-59.0131 230.322,-63.1815 240.536,-65.997 240.062,-59.0131"/>
</g>
<!-- Node5 -->
<g id="node9" class="node"><title>Node5</title>
<a xlink:href="../../db/da3/classmozilla_1_1layers_1_1_canvas_layer.html#aac937f6da31bb4ea4dac06344c5f14bb" target="_top" xlink:title="mozilla::layers::CanvasLayer::ComputeEffectiveTransforms">
<polygon fill="white" stroke="black" points="271,-0.5 271,-21.5 549,-21.5 549,-0.5 271,-0.5"/>
<text text-anchor="middle" x="410" y="-8.5" font-family="Helvetica,sans-Serif" font-size="10.00">mozilla::layers::CanvasLayer::ComputeEffectiveTransforms</text>
</a>
</g>
<!-- Node1&#45;&gt;Node5 -->
<g id="edge8" class="edge"><title>Node1&#45;&gt;Node5</title>
<path fill="none" stroke="midnightblue" d="M159.522,-57.6878C189.418,-49.125 229.811,-38.2785 266,-31 283.94,-27.3918 303.268,-24.2233 321.759,-21.5347"/>
<polygon fill="midnightblue" stroke="midnightblue" points="158.441,-54.3567 149.806,-60.4957 160.385,-61.0814 158.441,-54.3567"/>
</g>
</g>
</svg>
        <g id="navigator" transform="translate(0 0)" fill="#404254">
                <rect fill="#f2f5e9" fill-opacity="0.5" stroke="#606060" stroke-width=".5" x="0" y="0" width="60" height="60"/>
                <use id="zoomplus" xlink:href="#zoomPlus" x="17" y="9" onmousedown="handleZoom(evt,'in')"/>
                <use id="zoomminus" xlink:href="#zoomMin" x="42" y="9" onmousedown="handleZoom(evt,'out')"/>
                <use id="reset" xlink:href="#resetDef" x="30" y="36" onmousedown="handleReset()"/>
                <g id="arrowUp" xlink:href="#dirArrow" transform="translate(30 24)" onmousedown="handlePan(0,-1)">
                  <use xlink:href="#rim" fill="#404040">
                        <set attributeName="fill" to="#808080" begin="arrowUp.mouseover" end="arrowUp.mouseout"/>
                  </use>
                  <path fill="none" stroke="white" stroke-width="1.5" d="M0,-3.0v7 M-2.5,-0.5L0,-3.0L2.5,-0.5"/>
                </g>
                <g id="arrowRight" xlink:href="#dirArrow" transform="rotate(90) translate(36 -43)" onmousedown="handlePan(1,0)">
                  <use xlink:href="#rim" fill="#404040">
                        <set attributeName="fill" to="#808080" begin="arrowRight.mouseover" end="arrowRight.mouseout"/>
                  </use>
                  <path fill="none" stroke="white" stroke-width="1.5" d="M0,-3.0v7 M-2.5,-0.5L0,-3.0L2.5,-0.5"/>
                </g>
                <g id="arrowDown" xlink:href="#dirArrow" transform="rotate(180) translate(-30 -48)" onmousedown="handlePan(0,1)">
                  <use xlink:href="#rim" fill="#404040">
                        <set attributeName="fill" to="#808080" begin="arrowDown.mouseover" end="arrowDown.mouseout"/>
                  </use>
                  <path fill="none" stroke="white" stroke-width="1.5" d="M0,-3.0v7 M-2.5,-0.5L0,-3.0L2.5,-0.5"/>
                </g>
                <g id="arrowLeft" xlink:href="#dirArrow" transform="rotate(270) translate(-36 17)" onmousedown="handlePan(-1,0)">
                  <use xlink:href="#rim" fill="#404040">
                        <set attributeName="fill" to="#808080" begin="arrowLeft.mouseover" end="arrowLeft.mouseout"/>
                  </use>
                  <path fill="none" stroke="white" stroke-width="1.5" d="M0,-3.0v7 M-2.5,-0.5L0,-3.0L2.5,-0.5"/>
                </g>
        </g>
</svg>
