<?xml version="1.0" encoding="UTF-8" standalone="no"?>
<!DOCTYPE svg PUBLIC "-//W3C//DTD SVG 1.1//EN"
 "http://www.w3.org/Graphics/SVG/1.1/DTD/svg11.dtd">
<!-- Generated by graphviz version 2.26.3 (20100126.1600)
 -->
<!-- Title: G Pages: 1 -->
<!--zoomable 150 -->
<svg id="main" version="1.1" xmlns="http://www.w3.org/2000/svg" xmlns:xlink="http://www.w3.org/1999/xlink" xml:space="preserve" onload="init(evt)">
        <defs>
                <circle id="rim" cx="0" cy="0" r="7"/>
                <circle id="rim2" cx="0" cy="0" r="3.5"/>
                <g id="zoomPlus">
                        <use xlink:href="#rim" fill="#404040">
                                <set attributeName="fill" to="#808080" begin="zoomplus.mouseover" end="zoomplus.mouseout"/>
                        </use>
                        <path d="M-4,0h8M0,-4v8" fill="none" stroke="white" stroke-width="1.5" pointer-events="none"/>
                </g>
                <g id="zoomMin">
                        <use xlink:href="#rim" fill="#404040">
                                <set attributeName="fill" to="#808080" begin="zoomminus.mouseover" end="zoomminus.mouseout"/>
                        </use>
                        <path d="M-4,0h8" fill="none" stroke="white" stroke-width="1.5" pointer-events="none"/>
                </g>
                <g id="dirArrow">
                        <path fill="none" stroke="white" stroke-width="1.5" d="M0,-3.0v7 M-2.5,-0.5L0,-3.0L2.5,-0.5"/>
                </g>
               <g id="resetDef">
                       <use xlink:href="#rim2" fill="#404040">
                               <set attributeName="fill" to="#808080" begin="reset.mouseover" end="reset.mouseout"/>
                       </use>
               </g>
        </defs>

<script type="text/javascript">
var viewWidth = 682;
var viewHeight = 150;
var sectionId = 'dynsection-31';
</script>
<script xlink:href="../../svgpan.js"/>
<svg id="graph" class="graph">
<g id="viewport">
<title>G</title>
<polygon fill="white" stroke="white" points="-4,5 -4,-146 679,-146 679,5 -4,5"/>
<!-- Node1 -->
<g id="node1" class="node"><title>Node1</title>
<polygon fill="#bfbfbf" stroke="black" points="0.5,-60.5 0.5,-81.5 159.5,-81.5 159.5,-60.5 0.5,-60.5"/>
<text text-anchor="middle" x="80" y="-68.5" font-family="Helvetica,sans-Serif" font-size="10.00">mozilla::layers::Layer::SetParent</text>
</g>
<!-- Node2 -->
<g id="node3" class="node"><title>Node2</title>
<a xlink:href="../../db/d2d/classmozilla_1_1layers_1_1_ref_layer.html#a8ab8c646a6e09547cf58c9fc9c4e04c8" target="_top" xlink:title="mozilla::layers::RefLayer::ConnectReferentLayer">
<polygon fill="white" stroke="black" points="196,-120.5 196,-141.5 426,-141.5 426,-120.5 196,-120.5"/>
<text text-anchor="middle" x="311" y="-128.5" font-family="Helvetica,sans-Serif" font-size="10.00">mozilla::layers::RefLayer::ConnectReferentLayer</text>
</a>
</g>
<!-- Node1&#45;&gt;Node2 -->
<g id="edge2" class="edge"><title>Node1&#45;&gt;Node2</title>
<path fill="none" stroke="midnightblue" d="M116.356,-85.2147C138.991,-93.643 168.865,-104.01 196,-111 210.129,-114.64 225.408,-117.814 240.071,-120.497"/>
<polygon fill="midnightblue" stroke="midnightblue" points="117.406,-81.8705 106.815,-81.6176 114.937,-88.4204 117.406,-81.8705"/>
</g>
<!-- Node3 -->
<g id="node5" class="node"><title>Node3</title>
<a xlink:href="../../d7/d5e/_client_container_layer_8h.html#ac8eec80969688b14e282e64a050bc087" target="_top" xlink:title="ContainerInsertAfter">
<polygon fill="white" stroke="black" points="259,-80.5 259,-101.5 363,-101.5 363,-80.5 259,-80.5"/>
<text text-anchor="middle" x="311" y="-88.5" font-family="Helvetica,sans-Serif" font-size="10.00">ContainerInsertAfter</text>
</a>
</g>
<!-- Node1&#45;&gt;Node3 -->
<g id="edge4" class="edge"><title>Node1&#45;&gt;Node3</title>
<path fill="none" stroke="midnightblue" d="M169.912,-78.7846C199.983,-81.3881 232.49,-84.2026 258.714,-86.4731"/>
<polygon fill="midnightblue" stroke="midnightblue" points="170.085,-75.2866 159.821,-77.9109 169.481,-82.2605 170.085,-75.2866"/>
</g>
<!-- Node5 -->
<g id="node9" class="node"><title>Node5</title>
<a xlink:href="../../d7/d5e/_client_container_layer_8h.html#a15ac3a0f4248b21ef04ff5bfe8c1f83b" target="_top" xlink:title="ContainerRemoveChild">
<polygon fill="white" stroke="black" points="252,-40.5 252,-61.5 370,-61.5 370,-40.5 252,-40.5"/>
<text text-anchor="middle" x="311" y="-48.5" font-family="Helvetica,sans-Serif" font-size="10.00">ContainerRemoveChild</text>
</a>
</g>
<!-- Node1&#45;&gt;Node5 -->
<g id="edge8" class="edge"><title>Node1&#45;&gt;Node5</title>
<path fill="none" stroke="midnightblue" d="M169.866,-63.2194C197.416,-60.8341 227.015,-58.2714 251.957,-56.112"/>
<polygon fill="midnightblue" stroke="midnightblue" points="169.481,-59.7395 159.821,-64.0891 170.085,-66.7134 169.481,-59.7395"/>
</g>
<!-- Node8 -->
<g id="node15" class="node"><title>Node8</title>
<a xlink:href="../../db/d2d/classmozilla_1_1layers_1_1_ref_layer.html#a12766c740e3edfa661e5db236a06523b" target="_top" xlink:title="mozilla::layers::RefLayer::DetachReferentLayer">
<polygon fill="white" stroke="black" points="199,-0.5 199,-21.5 423,-21.5 423,-0.5 199,-0.5"/>
<text text-anchor="middle" x="311" y="-8.5" font-family="Helvetica,sans-Serif" font-size="10.00">mozilla::layers::RefLayer::DetachReferentLayer</text>
</a>
</g>
<!-- Node1&#45;&gt;Node8 -->
<g id="edge14" class="edge"><title>Node1&#45;&gt;Node8</title>
<path fill="none" stroke="midnightblue" d="M116.356,-56.7853C138.991,-48.357 168.865,-37.99 196,-31 210.129,-27.3601 225.408,-24.1857 240.071,-21.5027"/>
<polygon fill="midnightblue" stroke="midnightblue" points="114.937,-53.5796 106.815,-60.3824 117.406,-60.1295 114.937,-53.5796"/>
</g>
<!-- Node4 -->
<g id="node7" class="node"><title>Node4</title>
<a xlink:href="../../dc/d47/class_client_container_layer.html#a0be311beda22c83647c292c3da8ae41e" target="_top" xlink:title="ClientContainerLayer::InsertAfter">
<polygon fill="white" stroke="black" points="488,-80.5 488,-101.5 648,-101.5 648,-80.5 488,-80.5"/>
<text text-anchor="middle" x="568" y="-88.5" font-family="Helvetica,sans-Serif" font-size="10.00">ClientContainerLayer::InsertAfter</text>
</a>
</g>
<!-- Node3&#45;&gt;Node4 -->
<g id="edge6" class="edge"><title>Node3&#45;&gt;Node4</title>
<path fill="none" stroke="midnightblue" d="M373.385,-91C407.773,-91 450.844,-91 487.719,-91"/>
<polygon fill="midnightblue" stroke="midnightblue" points="373.008,-87.5001 363.008,-91 373.008,-94.5001 373.008,-87.5001"/>
</g>
<!-- Node6 -->
<g id="node11" class="node"><title>Node6</title>
<a xlink:href="../../dc/d47/class_client_container_layer.html#a2d3e2952931b822c0b82a7749753900c" target="_top" xlink:title="ClientContainerLayer::RemoveChild">
<polygon fill="white" stroke="black" points="481.5,-40.5 481.5,-61.5 654.5,-61.5 654.5,-40.5 481.5,-40.5"/>
<text text-anchor="middle" x="568" y="-48.5" font-family="Helvetica,sans-Serif" font-size="10.00">ClientContainerLayer::RemoveChild</text>
</a>
</g>
<!-- Node5&#45;&gt;Node6 -->
<g id="edge10" class="edge"><title>Node5&#45;&gt;Node6</title>
<path fill="none" stroke="midnightblue" d="M380.563,-51C411.579,-51 448.442,-51 481.236,-51"/>
<polygon fill="midnightblue" stroke="midnightblue" points="380.284,-47.5001 370.284,-51 380.284,-54.5001 380.284,-47.5001"/>
</g>
<!-- Node7 -->
<g id="node13" class="node"><title>Node7</title>
<a xlink:href="../../dc/d47/class_client_container_layer.html#ac6d19f23b7e57a08ae3b038ae408fa9c" target="_top" xlink:title="ClientContainerLayer::~ClientContainerLayer">
<polygon fill="white" stroke="black" points="462,-0.5 462,-21.5 674,-21.5 674,-0.5 462,-0.5"/>
<text text-anchor="middle" x="568" y="-8.5" font-family="Helvetica,sans-Serif" font-size="10.00">ClientContainerLayer::~ClientContainerLayer</text>
</a>
</g>
<!-- Node5&#45;&gt;Node7 -->
<g id="edge12" class="edge"><title>Node5&#45;&gt;Node7</title>
<path fill="none" stroke="midnightblue" d="M380.549,-40.1753C417.787,-34.3794 463.458,-27.2711 500.396,-21.522"/>
<polygon fill="midnightblue" stroke="midnightblue" points="379.626,-36.7766 370.284,-41.773 380.703,-43.6933 379.626,-36.7766"/>
</g>
</g>
</svg>
        <g id="navigator" transform="translate(0 0)" fill="#404254">
                <rect fill="#f2f5e9" fill-opacity="0.5" stroke="#606060" stroke-width=".5" x="0" y="0" width="60" height="60"/>
                <use id="zoomplus" xlink:href="#zoomPlus" x="17" y="9" onmousedown="handleZoom(evt,'in')"/>
                <use id="zoomminus" xlink:href="#zoomMin" x="42" y="9" onmousedown="handleZoom(evt,'out')"/>
                <use id="reset" xlink:href="#resetDef" x="30" y="36" onmousedown="handleReset()"/>
                <g id="arrowUp" xlink:href="#dirArrow" transform="translate(30 24)" onmousedown="handlePan(0,-1)">
                  <use xlink:href="#rim" fill="#404040">
                        <set attributeName="fill" to="#808080" begin="arrowUp.mouseover" end="arrowUp.mouseout"/>
                  </use>
                  <path fill="none" stroke="white" stroke-width="1.5" d="M0,-3.0v7 M-2.5,-0.5L0,-3.0L2.5,-0.5"/>
                </g>
                <g id="arrowRight" xlink:href="#dirArrow" transform="rotate(90) translate(36 -43)" onmousedown="handlePan(1,0)">
                  <use xlink:href="#rim" fill="#404040">
                        <set attributeName="fill" to="#808080" begin="arrowRight.mouseover" end="arrowRight.mouseout"/>
                  </use>
                  <path fill="none" stroke="white" stroke-width="1.5" d="M0,-3.0v7 M-2.5,-0.5L0,-3.0L2.5,-0.5"/>
                </g>
                <g id="arrowDown" xlink:href="#dirArrow" transform="rotate(180) translate(-30 -48)" onmousedown="handlePan(0,1)">
                  <use xlink:href="#rim" fill="#404040">
                        <set attributeName="fill" to="#808080" begin="arrowDown.mouseover" end="arrowDown.mouseout"/>
                  </use>
                  <path fill="none" stroke="white" stroke-width="1.5" d="M0,-3.0v7 M-2.5,-0.5L0,-3.0L2.5,-0.5"/>
                </g>
                <g id="arrowLeft" xlink:href="#dirArrow" transform="rotate(270) translate(-36 17)" onmousedown="handlePan(-1,0)">
                  <use xlink:href="#rim" fill="#404040">
                        <set attributeName="fill" to="#808080" begin="arrowLeft.mouseover" end="arrowLeft.mouseout"/>
                  </use>
                  <path fill="none" stroke="white" stroke-width="1.5" d="M0,-3.0v7 M-2.5,-0.5L0,-3.0L2.5,-0.5"/>
                </g>
        </g>
</svg>
