<?xml version="1.0" encoding="UTF-8" standalone="no"?>
<!DOCTYPE svg PUBLIC "-//W3C//DTD SVG 1.1//EN"
 "http://www.w3.org/Graphics/SVG/1.1/DTD/svg11.dtd">
<!-- Generated by graphviz version 2.26.3 (20100126.1600)
 -->
<!-- Title: G Pages: 1 -->
<!--zoomable 180 -->
<svg id="main" version="1.1" xmlns="http://www.w3.org/2000/svg" xmlns:xlink="http://www.w3.org/1999/xlink" xml:space="preserve" onload="init(evt)">
        <defs>
                <circle id="rim" cx="0" cy="0" r="7"/>
                <circle id="rim2" cx="0" cy="0" r="3.5"/>
                <g id="zoomPlus">
                        <use xlink:href="#rim" fill="#404040">
                                <set attributeName="fill" to="#808080" begin="zoomplus.mouseover" end="zoomplus.mouseout"/>
                        </use>
                        <path d="M-4,0h8M0,-4v8" fill="none" stroke="white" stroke-width="1.5" pointer-events="none"/>
                </g>
                <g id="zoomMin">
                        <use xlink:href="#rim" fill="#404040">
                                <set attributeName="fill" to="#808080" begin="zoomminus.mouseover" end="zoomminus.mouseout"/>
                        </use>
                        <path d="M-4,0h8" fill="none" stroke="white" stroke-width="1.5" pointer-events="none"/>
                </g>
                <g id="dirArrow">
                        <path fill="none" stroke="white" stroke-width="1.5" d="M0,-3.0v7 M-2.5,-0.5L0,-3.0L2.5,-0.5"/>
                </g>
               <g id="resetDef">
                       <use xlink:href="#rim2" fill="#404040">
                               <set attributeName="fill" to="#808080" begin="reset.mouseover" end="reset.mouseout"/>
                       </use>
               </g>
        </defs>

<script type="text/javascript">
var viewWidth = 676;
var viewHeight = 180;
var sectionId = 'dynsection-16';
</script>
<script xlink:href="../../svgpan.js"/>
<svg id="graph" class="graph">
<g id="viewport">
<title>G</title>
<polygon fill="white" stroke="white" points="-4,5 -4,-176 673,-176 673,5 -4,5"/>
<!-- Node1 -->
<g id="node1" class="node"><title>Node1</title>
<polygon fill="#bfbfbf" stroke="black" points="0.5,-90.5 0.5,-111.5 153.5,-111.5 153.5,-90.5 0.5,-90.5"/>
<text text-anchor="middle" x="77" y="-98.5" font-family="Helvetica,sans-Serif" font-size="10.00">mozilla::layers::Layer::Manager</text>
</g>
<!-- Node2 -->
<g id="node3" class="node"><title>Node2</title>
<a xlink:href="../../db/d2d/classmozilla_1_1layers_1_1_ref_layer.html#a8ab8c646a6e09547cf58c9fc9c4e04c8" target="_top" xlink:title="mozilla::layers::RefLayer::ConnectReferentLayer">
<polygon fill="white" stroke="black" points="190,-150.5 190,-171.5 420,-171.5 420,-150.5 190,-150.5"/>
<text text-anchor="middle" x="305" y="-158.5" font-family="Helvetica,sans-Serif" font-size="10.00">mozilla::layers::RefLayer::ConnectReferentLayer</text>
</a>
</g>
<!-- Node1&#45;&gt;Node2 -->
<g id="edge2" class="edge"><title>Node1&#45;&gt;Node2</title>
<path fill="none" stroke="midnightblue" d="M112.679,-115.366C134.68,-123.788 163.639,-134.094 190,-141 203.918,-144.646 218.962,-147.808 233.437,-150.474"/>
<polygon fill="midnightblue" stroke="midnightblue" points="113.683,-112.002 103.094,-111.648 111.151,-118.528 113.683,-112.002"/>
</g>
<!-- Node3 -->
<g id="node5" class="node"><title>Node3</title>
<a xlink:href="../../d7/d5e/_client_container_layer_8h.html#ac8eec80969688b14e282e64a050bc087" target="_top" xlink:title="ContainerInsertAfter">
<polygon fill="white" stroke="black" points="253,-110.5 253,-131.5 357,-131.5 357,-110.5 253,-110.5"/>
<text text-anchor="middle" x="305" y="-118.5" font-family="Helvetica,sans-Serif" font-size="10.00">ContainerInsertAfter</text>
</a>
</g>
<!-- Node1&#45;&gt;Node3 -->
<g id="edge4" class="edge"><title>Node1&#45;&gt;Node3</title>
<path fill="none" stroke="midnightblue" d="M163.617,-108.598C193.631,-111.231 226.335,-114.1 252.723,-116.414"/>
<polygon fill="midnightblue" stroke="midnightblue" points="163.823,-105.103 153.555,-107.715 163.211,-112.076 163.823,-105.103"/>
</g>
<!-- Node5 -->
<g id="node9" class="node"><title>Node5</title>
<a xlink:href="../../d7/d5e/_client_container_layer_8h.html#a15ac3a0f4248b21ef04ff5bfe8c1f83b" target="_top" xlink:title="ContainerRemoveChild">
<polygon fill="white" stroke="black" points="246,-70.5 246,-91.5 364,-91.5 364,-70.5 246,-70.5"/>
<text text-anchor="middle" x="305" y="-78.5" font-family="Helvetica,sans-Serif" font-size="10.00">ContainerRemoveChild</text>
</a>
</g>
<!-- Node1&#45;&gt;Node5 -->
<g id="edge8" class="edge"><title>Node1&#45;&gt;Node5</title>
<path fill="none" stroke="midnightblue" d="M163.574,-93.4058C191.08,-90.9929 220.852,-88.3814 245.952,-86.1797"/>
<polygon fill="midnightblue" stroke="midnightblue" points="163.211,-89.9241 153.555,-94.2847 163.823,-96.8973 163.211,-89.9241"/>
</g>
<!-- Node8 -->
<g id="node15" class="node"><title>Node8</title>
<a xlink:href="../../d7/d5e/_client_container_layer_8h.html#ab9d0be214a8396c4dbf326761221da1c" target="_top" xlink:title="ContainerRepositionChild">
<polygon fill="white" stroke="black" points="241,-20.5 241,-41.5 369,-41.5 369,-20.5 241,-20.5"/>
<text text-anchor="middle" x="305" y="-28.5" font-family="Helvetica,sans-Serif" font-size="10.00">ContainerRepositionChild</text>
</a>
</g>
<!-- Node1&#45;&gt;Node8 -->
<g id="edge14" class="edge"><title>Node1&#45;&gt;Node8</title>
<path fill="none" stroke="midnightblue" d="M114.224,-86.9249C136.132,-78.8672 164.465,-68.8345 190,-61 213.277,-53.8583 239.528,-46.9265 261.067,-41.5284"/>
<polygon fill="midnightblue" stroke="midnightblue" points="112.806,-83.7179 104.644,-90.4731 115.237,-90.2822 112.806,-83.7179"/>
</g>
<!-- Node4 -->
<g id="node7" class="node"><title>Node4</title>
<a xlink:href="../../dc/d47/class_client_container_layer.html#a0be311beda22c83647c292c3da8ae41e" target="_top" xlink:title="ClientContainerLayer::InsertAfter">
<polygon fill="white" stroke="black" points="482,-120.5 482,-141.5 642,-141.5 642,-120.5 482,-120.5"/>
<text text-anchor="middle" x="562" y="-128.5" font-family="Helvetica,sans-Serif" font-size="10.00">ClientContainerLayer::InsertAfter</text>
</a>
</g>
<!-- Node3&#45;&gt;Node4 -->
<g id="edge6" class="edge"><title>Node3&#45;&gt;Node4</title>
<path fill="none" stroke="midnightblue" d="M367.385,-123.427C401.773,-124.765 444.844,-126.441 481.719,-127.876"/>
<polygon fill="midnightblue" stroke="midnightblue" points="367.136,-119.915 357.008,-123.024 366.864,-126.91 367.136,-119.915"/>
</g>
<!-- Node6 -->
<g id="node11" class="node"><title>Node6</title>
<a xlink:href="../../dc/d47/class_client_container_layer.html#a2d3e2952931b822c0b82a7749753900c" target="_top" xlink:title="ClientContainerLayer::RemoveChild">
<polygon fill="white" stroke="black" points="475.5,-80.5 475.5,-101.5 648.5,-101.5 648.5,-80.5 475.5,-80.5"/>
<text text-anchor="middle" x="562" y="-88.5" font-family="Helvetica,sans-Serif" font-size="10.00">ClientContainerLayer::RemoveChild</text>
</a>
</g>
<!-- Node5&#45;&gt;Node6 -->
<g id="edge10" class="edge"><title>Node5&#45;&gt;Node6</title>
<path fill="none" stroke="midnightblue" d="M374.563,-83.7068C405.579,-84.9136 442.442,-86.3479 475.236,-87.624"/>
<polygon fill="midnightblue" stroke="midnightblue" points="374.412,-80.1983 364.284,-83.3068 374.14,-87.193 374.412,-80.1983"/>
</g>
<!-- Node7 -->
<g id="node13" class="node"><title>Node7</title>
<a xlink:href="../../dc/d47/class_client_container_layer.html#ac6d19f23b7e57a08ae3b038ae408fa9c" target="_top" xlink:title="ClientContainerLayer::~ClientContainerLayer">
<polygon fill="white" stroke="black" points="456,-40.5 456,-61.5 668,-61.5 668,-40.5 456,-40.5"/>
<text text-anchor="middle" x="562" y="-48.5" font-family="Helvetica,sans-Serif" font-size="10.00">ClientContainerLayer::~ClientContainerLayer</text>
</a>
</g>
<!-- Node5&#45;&gt;Node7 -->
<g id="edge12" class="edge"><title>Node5&#45;&gt;Node7</title>
<path fill="none" stroke="midnightblue" d="M374.232,-72.9184C404.229,-69.4168 439.744,-65.2711 471.769,-61.5328"/>
<polygon fill="midnightblue" stroke="midnightblue" points="373.81,-69.4438 364.284,-74.0797 374.622,-76.3966 373.81,-69.4438"/>
</g>
<!-- Node9 -->
<g id="node17" class="node"><title>Node9</title>
<a xlink:href="../../dc/d47/class_client_container_layer.html#a988747012fb94e84cd8b2eaf29f5fb94" target="_top" xlink:title="ClientContainerLayer::RepositionChild">
<polygon fill="white" stroke="black" points="470.5,-0.5 470.5,-21.5 653.5,-21.5 653.5,-0.5 470.5,-0.5"/>
<text text-anchor="middle" x="562" y="-8.5" font-family="Helvetica,sans-Serif" font-size="10.00">ClientContainerLayer::RepositionChild</text>
</a>
</g>
<!-- Node8&#45;&gt;Node9 -->
<g id="edge16" class="edge"><title>Node8&#45;&gt;Node9</title>
<path fill="none" stroke="midnightblue" d="M379.41,-25.2093C407.714,-23.0067 440.301,-20.4707 470.041,-18.1564"/>
<polygon fill="midnightblue" stroke="midnightblue" points="378.887,-21.7393 369.189,-26.0047 379.43,-28.7182 378.887,-21.7393"/>
</g>
</g>
</svg>
        <g id="navigator" transform="translate(0 0)" fill="#404254">
                <rect fill="#f2f5e9" fill-opacity="0.5" stroke="#606060" stroke-width=".5" x="0" y="0" width="60" height="60"/>
                <use id="zoomplus" xlink:href="#zoomPlus" x="17" y="9" onmousedown="handleZoom(evt,'in')"/>
                <use id="zoomminus" xlink:href="#zoomMin" x="42" y="9" onmousedown="handleZoom(evt,'out')"/>
                <use id="reset" xlink:href="#resetDef" x="30" y="36" onmousedown="handleReset()"/>
                <g id="arrowUp" xlink:href="#dirArrow" transform="translate(30 24)" onmousedown="handlePan(0,-1)">
                  <use xlink:href="#rim" fill="#404040">
                        <set attributeName="fill" to="#808080" begin="arrowUp.mouseover" end="arrowUp.mouseout"/>
                  </use>
                  <path fill="none" stroke="white" stroke-width="1.5" d="M0,-3.0v7 M-2.5,-0.5L0,-3.0L2.5,-0.5"/>
                </g>
                <g id="arrowRight" xlink:href="#dirArrow" transform="rotate(90) translate(36 -43)" onmousedown="handlePan(1,0)">
                  <use xlink:href="#rim" fill="#404040">
                        <set attributeName="fill" to="#808080" begin="arrowRight.mouseover" end="arrowRight.mouseout"/>
                  </use>
                  <path fill="none" stroke="white" stroke-width="1.5" d="M0,-3.0v7 M-2.5,-0.5L0,-3.0L2.5,-0.5"/>
                </g>
                <g id="arrowDown" xlink:href="#dirArrow" transform="rotate(180) translate(-30 -48)" onmousedown="handlePan(0,1)">
                  <use xlink:href="#rim" fill="#404040">
                        <set attributeName="fill" to="#808080" begin="arrowDown.mouseover" end="arrowDown.mouseout"/>
                  </use>
                  <path fill="none" stroke="white" stroke-width="1.5" d="M0,-3.0v7 M-2.5,-0.5L0,-3.0L2.5,-0.5"/>
                </g>
                <g id="arrowLeft" xlink:href="#dirArrow" transform="rotate(270) translate(-36 17)" onmousedown="handlePan(-1,0)">
                  <use xlink:href="#rim" fill="#404040">
                        <set attributeName="fill" to="#808080" begin="arrowLeft.mouseover" end="arrowLeft.mouseout"/>
                  </use>
                  <path fill="none" stroke="white" stroke-width="1.5" d="M0,-3.0v7 M-2.5,-0.5L0,-3.0L2.5,-0.5"/>
                </g>
        </g>
</svg>
