<?xml version="1.0" encoding="UTF-8" standalone="no"?>
<!DOCTYPE svg PUBLIC "-//W3C//DTD SVG 1.1//EN"
 "http://www.w3.org/Graphics/SVG/1.1/DTD/svg11.dtd">
<!-- Generated by graphviz version 2.26.3 (20100126.1600)
 -->
<!-- Title: G Pages: 1 -->
<svg width="404pt" height="106pt"
 viewBox="0.00 0.00 404.00 106.00" xmlns="http://www.w3.org/2000/svg" xmlns:xlink="http://www.w3.org/1999/xlink">
<g id="graph1" class="graph" transform="scale(1 1) rotate(0) translate(4 102)">
<title>G</title>
<polygon fill="white" stroke="white" points="-4,5 -4,-102 401,-102 401,5 -4,5"/>
<!-- Node1 -->
<g id="node1" class="node"><title>Node1</title>
<polygon fill="#bfbfbf" stroke="black" points="0.5,-29.5 0.5,-50.5 267.5,-50.5 267.5,-29.5 0.5,-29.5"/>
<text text-anchor="middle" x="134" y="-37.5" font-family="Helvetica,sans-Serif" font-size="10.00">mozilla::layers::ClientTiledThebesLayer::InvalidateRegion</text>
</g>
<!-- Node2 -->
<g id="node3" class="node"><title>Node2</title>
<a xlink:href="../../d5/d82/classns_int_region.html#ace2f179abc62139fed2bff20411a7d88" target="_top" xlink:title="nsIntRegion::Or">
<polygon fill="white" stroke="black" points="307,-58.5 307,-79.5 393,-79.5 393,-58.5 307,-58.5"/>
<text text-anchor="middle" x="350" y="-66.5" font-family="Helvetica,sans-Serif" font-size="10.00">nsIntRegion::Or</text>
</a>
</g>
<!-- Node1&#45;&gt;Node2 -->
<g id="edge2" class="edge"><title>Node1&#45;&gt;Node2</title>
<path fill="none" stroke="midnightblue" d="M212.286,-50.5107C240.3,-54.2718 271.206,-58.4212 296.63,-61.8346"/>
<polygon fill="midnightblue" stroke="midnightblue" points="296.427,-65.3387 306.804,-63.2006 297.359,-58.401 296.427,-65.3387"/>
</g>
<!-- Node3 -->
<g id="node6" class="node"><title>Node3</title>
<a xlink:href="../../d5/d82/classns_int_region.html#a47e86b26fe05f903c327286c5b67291a" target="_top" xlink:title="nsIntRegion::Sub">
<polygon fill="white" stroke="black" points="304,-0.5 304,-21.5 396,-21.5 396,-0.5 304,-0.5"/>
<text text-anchor="middle" x="350" y="-8.5" font-family="Helvetica,sans-Serif" font-size="10.00">nsIntRegion::Sub</text>
</a>
</g>
<!-- Node1&#45;&gt;Node3 -->
<g id="edge6" class="edge"><title>Node1&#45;&gt;Node3</title>
<path fill="none" stroke="midnightblue" d="M212.286,-29.4893C239.239,-25.8707 268.869,-21.8926 293.718,-18.5564"/>
<polygon fill="midnightblue" stroke="midnightblue" points="294.251,-22.0163 303.697,-17.2166 293.32,-15.0785 294.251,-22.0163"/>
</g>
<!-- Node2&#45;&gt;Node2 -->
<g id="edge4" class="edge"><title>Node2&#45;&gt;Node2</title>
<path fill="none" stroke="midnightblue" d="M315.929,-79.5571C300.885,-88.5478 312.242,-98 350,-98 376.548,-98 390.045,-93.327 390.489,-87.4271"/>
<polygon fill="midnightblue" stroke="midnightblue" points="393.103,-85.0948 384.071,-79.5571 387.678,-89.5188 393.103,-85.0948"/>
</g>
<!-- Node3&#45;&gt;Node3 -->
<g id="edge8" class="edge"><title>Node3&#45;&gt;Node3</title>
<path fill="none" stroke="midnightblue" d="M315.929,-21.5571C300.885,-30.5478 312.242,-40 350,-40 376.548,-40 390.045,-35.327 390.489,-29.4271"/>
<polygon fill="midnightblue" stroke="midnightblue" points="393.103,-27.0948 384.071,-21.5571 387.678,-31.5188 393.103,-27.0948"/>
</g>
</g>
</svg>
