<?xml version="1.0" encoding="UTF-8" standalone="no"?>
<!DOCTYPE svg PUBLIC "-//W3C//DTD SVG 1.1//EN"
 "http://www.w3.org/Graphics/SVG/1.1/DTD/svg11.dtd">
<!-- Generated by graphviz version 2.26.3 (20100126.1600)
 -->
<!-- Title: G Pages: 1 -->
<!--zoomable 668 -->
<svg id="main" version="1.1" xmlns="http://www.w3.org/2000/svg" xmlns:xlink="http://www.w3.org/1999/xlink" xml:space="preserve" onload="init(evt)">
        <defs>
                <circle id="rim" cx="0" cy="0" r="7"/>
                <circle id="rim2" cx="0" cy="0" r="3.5"/>
                <g id="zoomPlus">
                        <use xlink:href="#rim" fill="#404040">
                                <set attributeName="fill" to="#808080" begin="zoomplus.mouseover" end="zoomplus.mouseout"/>
                        </use>
                        <path d="M-4,0h8M0,-4v8" fill="none" stroke="white" stroke-width="1.5" pointer-events="none"/>
                </g>
                <g id="zoomMin">
                        <use xlink:href="#rim" fill="#404040">
                                <set attributeName="fill" to="#808080" begin="zoomminus.mouseover" end="zoomminus.mouseout"/>
                        </use>
                        <path d="M-4,0h8" fill="none" stroke="white" stroke-width="1.5" pointer-events="none"/>
                </g>
                <g id="dirArrow">
                        <path fill="none" stroke="white" stroke-width="1.5" d="M0,-3.0v7 M-2.5,-0.5L0,-3.0L2.5,-0.5"/>
                </g>
               <g id="resetDef">
                       <use xlink:href="#rim2" fill="#404040">
                               <set attributeName="fill" to="#808080" begin="reset.mouseover" end="reset.mouseout"/>
                       </use>
               </g>
        </defs>

<script type="text/javascript">
var viewWidth = 1319;
var viewHeight = 668;
var sectionId = 'dynsection-0';
</script>
<script xlink:href="../../svgpan.js"/>
<svg id="graph" class="graph">
<g id="viewport">
<title>G</title>
<polygon fill="white" stroke="white" points="-4,5 -4,-664 1316,-664 1316,5 -4,5"/>
<!-- Node1 -->
<g id="node1" class="node"><title>Node1</title>
<polygon fill="#bfbfbf" stroke="black" points="-0.5,-638.5 -0.5,-659.5 334.5,-659.5 334.5,-638.5 -0.5,-638.5"/>
<text text-anchor="middle" x="167" y="-646.5" font-family="Helvetica,sans-Serif" font-size="10.00">/home/aoi/Documents/FxOS/B2G/gaia/xulrunner&#45;sdk/idl/nsIScriptError.idl</text>
</g>
<!-- Node2 -->
<g id="node3" class="node"><title>Node2</title>
<a xlink:href="../../d0/d95/ns_i_supports_8idl.html" target="_top" xlink:title="nsISupports.idl">
<polygon fill="white" stroke="black" points="126,-522.5 126,-543.5 208,-543.5 208,-522.5 126,-522.5"/>
<text text-anchor="middle" x="167" y="-530.5" font-family="Helvetica,sans-Serif" font-size="10.00">nsISupports.idl</text>
</a>
</g>
<!-- Node1&#45;&gt;Node2 -->
<g id="edge2" class="edge"><title>Node1&#45;&gt;Node2</title>
<path fill="none" stroke="midnightblue" d="M159.716,-638.372C153.901,-629.201 146.214,-615.362 143,-602 140.713,-592.493 140.713,-589.507 143,-580 145.31,-570.396 149.931,-560.546 154.507,-552.359"/>
<polygon fill="midnightblue" stroke="midnightblue" points="157.598,-554.009 159.716,-543.628 151.587,-550.423 157.598,-554.009"/>
</g>
<!-- Node39 -->
<g id="node108" class="node"><title>Node39</title>
<a xlink:href="../../d6/d55/ns_i_console_message_8idl.html" target="_top" xlink:title="nsIConsoleMessage.idl">
<polygon fill="white" stroke="black" points="151.5,-580.5 151.5,-601.5 270.5,-601.5 270.5,-580.5 151.5,-580.5"/>
<text text-anchor="middle" x="211" y="-588.5" font-family="Helvetica,sans-Serif" font-size="10.00">nsIConsoleMessage.idl</text>
</a>
</g>
<!-- Node1&#45;&gt;Node39 -->
<g id="edge138" class="edge"><title>Node1&#45;&gt;Node39</title>
<path fill="none" stroke="midnightblue" d="M175.07,-638.362C181.149,-630.35 189.637,-619.161 196.837,-609.67"/>
<polygon fill="midnightblue" stroke="midnightblue" points="199.725,-611.653 202.981,-601.571 194.149,-607.422 199.725,-611.653"/>
</g>
<!-- Node3 -->
<g id="node5" class="node"><title>Node3</title>
<a xlink:href="../../db/d12/nsrootidl_8idl.html" target="_top" xlink:title="nsrootidl.idl">
<polygon fill="white" stroke="black" points="73,-406.5 73,-427.5 139,-427.5 139,-406.5 73,-406.5"/>
<text text-anchor="middle" x="106" y="-414.5" font-family="Helvetica,sans-Serif" font-size="10.00">nsrootidl.idl</text>
</a>
</g>
<!-- Node2&#45;&gt;Node3 -->
<g id="edge4" class="edge"><title>Node2&#45;&gt;Node3</title>
<path fill="none" stroke="midnightblue" d="M161.371,-522.295C151.157,-502.872 129.43,-461.556 116.436,-436.846"/>
<polygon fill="midnightblue" stroke="midnightblue" points="119.368,-434.901 111.616,-427.679 113.172,-438.159 119.368,-434.901"/>
</g>
<!-- Node19 -->
<g id="node41" class="node"><title>Node19</title>
<a xlink:href="../../de/d38/ns_i_supports_base_8h.html" target="_top" xlink:title="nsISupportsBase.h">
<polygon fill="white" stroke="black" points="217,-348.5 217,-369.5 317,-369.5 317,-348.5 217,-348.5"/>
<text text-anchor="middle" x="267" y="-356.5" font-family="Helvetica,sans-Serif" font-size="10.00">nsISupportsBase.h</text>
</a>
</g>
<!-- Node2&#45;&gt;Node19 -->
<g id="edge44" class="edge"><title>Node2&#45;&gt;Node19</title>
<path fill="none" stroke="midnightblue" d="M173.105,-522.377C189.454,-493.93 234.423,-415.684 255.639,-378.769"/>
<polygon fill="midnightblue" stroke="midnightblue" points="258.771,-380.342 260.72,-369.928 252.702,-376.854 258.771,-380.342"/>
</g>
<!-- Node21 -->
<g id="node48" class="node"><title>Node21</title>
<a xlink:href="../../d9/d4b/ns_i_supports_utils_8h.html" target="_top" xlink:title="nsISupportsUtils.h">
<polygon fill="white" stroke="black" points="296,-464.5 296,-485.5 394,-485.5 394,-464.5 296,-464.5"/>
<text text-anchor="middle" x="345" y="-472.5" font-family="Helvetica,sans-Serif" font-size="10.00">nsISupportsUtils.h</text>
</a>
</g>
<!-- Node2&#45;&gt;Node21 -->
<g id="edge54" class="edge"><title>Node2&#45;&gt;Node21</title>
<path fill="none" stroke="midnightblue" d="M199.234,-522.497C228.253,-513.041 271.09,-499.083 302.824,-488.743"/>
<polygon fill="midnightblue" stroke="midnightblue" points="304.281,-491.949 312.705,-485.523 302.113,-485.293 304.281,-491.949"/>
</g>
<!-- Node4 -->
<g id="node7" class="node"><title>Node4</title>
<a xlink:href="../../d3/dd8/nscore_8h.html" target="_top" xlink:title="nscore.h">
<polygon fill="white" stroke="black" points="253,-232.5 253,-253.5 307,-253.5 307,-232.5 253,-232.5"/>
<text text-anchor="middle" x="280" y="-240.5" font-family="Helvetica,sans-Serif" font-size="10.00">nscore.h</text>
</a>
</g>
<!-- Node3&#45;&gt;Node4 -->
<g id="edge6" class="edge"><title>Node3&#45;&gt;Node4</title>
<path fill="none" stroke="midnightblue" d="M109.175,-406.322C116.776,-382.432 138.177,-324.098 175,-290 194.189,-272.231 221.219,-260.343 243.049,-252.969"/>
<polygon fill="midnightblue" stroke="midnightblue" points="244.207,-256.273 252.666,-249.893 242.075,-249.606 244.207,-256.273"/>
</g>
<!-- Node5 -->
<g id="node9" class="node"><title>Node5</title>
<a xlink:href="../../d7/d2d/xpcom-config_8h.html" target="_top" xlink:title="xpcom&#45;config.h">
<polygon fill="white" stroke="black" points="20.5,-116.5 20.5,-137.5 103.5,-137.5 103.5,-116.5 20.5,-116.5"/>
<text text-anchor="middle" x="62" y="-124.5" font-family="Helvetica,sans-Serif" font-size="10.00">xpcom&#45;config.h</text>
</a>
</g>
<!-- Node4&#45;&gt;Node5 -->
<g id="edge8" class="edge"><title>Node4&#45;&gt;Node5</title>
<path fill="none" stroke="midnightblue" d="M252.726,-241.379C198.93,-237.551 82.2469,-225.918 58,-196 47.1784,-182.647 49.7186,-162.636 54.0562,-147.597"/>
<polygon fill="midnightblue" stroke="midnightblue" points="57.5164,-148.286 57.3669,-137.692 50.8774,-146.067 57.5164,-148.286"/>
</g>
<!-- Node6 -->
<g id="node11" class="node"><title>Node6</title>
<a xlink:href="../../d1/d62/mozalloc_8h.html" target="_top" xlink:title="mozilla/mozalloc.h">
<polygon fill="white" stroke="black" points="67,-174.5 67,-195.5 165,-195.5 165,-174.5 67,-174.5"/>
<text text-anchor="middle" x="116" y="-182.5" font-family="Helvetica,sans-Serif" font-size="10.00">mozilla/mozalloc.h</text>
</a>
</g>
<!-- Node4&#45;&gt;Node6 -->
<g id="edge10" class="edge"><title>Node4&#45;&gt;Node6</title>
<path fill="none" stroke="midnightblue" d="M252.919,-233.422C226.436,-224.057 185.808,-209.688 155.681,-199.033"/>
<polygon fill="midnightblue" stroke="midnightblue" points="156.496,-195.609 145.901,-195.575 154.162,-202.209 156.496,-195.609"/>
</g>
<!-- Node11 -->
<g id="node22" class="node"><title>Node11</title>
<a xlink:href="../../d1/de4/mozalloc__macro__wrappers_8h.html" target="_top" xlink:title="mozilla/mozalloc_macro_wrappers.h">
<polygon fill="white" stroke="black" points="182.5,-174.5 182.5,-195.5 357.5,-195.5 357.5,-174.5 182.5,-174.5"/>
<text text-anchor="middle" x="270" y="-182.5" font-family="Helvetica,sans-Serif" font-size="10.00">mozilla/mozalloc_macro_wrappers.h</text>
</a>
</g>
<!-- Node4&#45;&gt;Node11 -->
<g id="edge22" class="edge"><title>Node4&#45;&gt;Node11</title>
<path fill="none" stroke="midnightblue" d="M278.166,-232.362C276.869,-224.84 275.089,-214.519 273.523,-205.431"/>
<polygon fill="midnightblue" stroke="midnightblue" points="276.971,-204.831 271.823,-195.571 270.073,-206.02 276.971,-204.831"/>
</g>
<!-- Node12 -->
<g id="node24" class="node"><title>Node12</title>
<polygon fill="white" stroke="#bfbfbf" points="681,-174.5 681,-195.5 733,-195.5 733,-174.5 681,-174.5"/>
<text text-anchor="middle" x="707" y="-182.5" font-family="Helvetica,sans-Serif" font-size="10.00">stddef.h</text>
</g>
<!-- Node4&#45;&gt;Node12 -->
<g id="edge24" class="edge"><title>Node4&#45;&gt;Node12</title>
<path fill="none" stroke="midnightblue" d="M307.376,-241.466C370.143,-237.581 529.281,-225.629 670.622,-195.983"/>
<polygon fill="midnightblue" stroke="midnightblue" points="671.717,-199.328 680.767,-193.818 670.256,-192.483 671.717,-199.328"/>
</g>
<!-- Node13 -->
<g id="node26" class="node"><title>Node13</title>
<polygon fill="white" stroke="#bfbfbf" points="640.5,-116.5 640.5,-137.5 689.5,-137.5 689.5,-116.5 640.5,-116.5"/>
<text text-anchor="middle" x="665" y="-124.5" font-family="Helvetica,sans-Serif" font-size="10.00">stdint.h</text>
</g>
<!-- Node4&#45;&gt;Node13 -->
<g id="edge26" class="edge"><title>Node4&#45;&gt;Node13</title>
<path fill="none" stroke="midnightblue" d="M307.176,-237.632C345.589,-229.801 417.797,-214.18 478,-196 532.282,-179.608 593.687,-155.932 630.858,-141.011"/>
<polygon fill="midnightblue" stroke="midnightblue" points="632.257,-144.221 640.22,-137.233 629.637,-137.73 632.257,-144.221"/>
</g>
<!-- Node14 -->
<g id="node28" class="node"><title>Node14</title>
<a xlink:href="../../df/dcf/_null_ptr_8h.html" target="_top" xlink:title="mozilla/NullPtr.h">
<polygon fill="white" stroke="black" points="420.5,-58.5 420.5,-79.5 509.5,-79.5 509.5,-58.5 420.5,-58.5"/>
<text text-anchor="middle" x="465" y="-66.5" font-family="Helvetica,sans-Serif" font-size="10.00">mozilla/NullPtr.h</text>
</a>
</g>
<!-- Node4&#45;&gt;Node14 -->
<g id="edge28" class="edge"><title>Node4&#45;&gt;Node14</title>
<path fill="none" stroke="midnightblue" d="M252.637,-240.257C198.474,-234.386 79.9829,-219.222 47,-196 15.2667,-173.658 -13.9879,-144.824 12,-116 38.2171,-86.922 295.036,-74.7046 409.93,-70.6641"/>
<polygon fill="midnightblue" stroke="midnightblue" points="410.39,-74.1504 420.264,-70.3093 410.15,-67.1546 410.39,-74.1504"/>
</g>
<!-- Node15 -->
<g id="node31" class="node"><title>Node15</title>
<a xlink:href="../../d8/dcf/ns_error_8h.html" target="_top" xlink:title="nsError.h">
<polygon fill="white" stroke="black" points="413,-174.5 413,-195.5 469,-195.5 469,-174.5 413,-174.5"/>
<text text-anchor="middle" x="441" y="-182.5" font-family="Helvetica,sans-Serif" font-size="10.00">nsError.h</text>
</a>
</g>
<!-- Node4&#45;&gt;Node15 -->
<g id="edge32" class="edge"><title>Node4&#45;&gt;Node15</title>
<path fill="none" stroke="midnightblue" d="M307.311,-233.161C333.669,-223.666 373.796,-209.21 403.212,-198.613"/>
<polygon fill="midnightblue" stroke="midnightblue" points="404.52,-201.862 412.741,-195.18 402.147,-195.277 404.52,-201.862"/>
</g>
<!-- Node6&#45;&gt;Node5 -->
<g id="edge16" class="edge"><title>Node6&#45;&gt;Node5</title>
<path fill="none" stroke="midnightblue" d="M106.096,-174.362C98.4836,-166.186 87.792,-154.702 78.843,-145.091"/>
<polygon fill="midnightblue" stroke="midnightblue" points="81.2175,-142.505 71.8416,-137.571 76.0942,-147.275 81.2175,-142.505"/>
</g>
<!-- Node7 -->
<g id="node13" class="node"><title>Node7</title>
<polygon fill="white" stroke="#bfbfbf" points="345,-116.5 345,-137.5 393,-137.5 393,-116.5 345,-116.5"/>
<text text-anchor="middle" x="369" y="-124.5" font-family="Helvetica,sans-Serif" font-size="10.00">stdlib.h</text>
</g>
<!-- Node6&#45;&gt;Node7 -->
<g id="edge12" class="edge"><title>Node6&#45;&gt;Node7</title>
<path fill="none" stroke="midnightblue" d="M165.384,-175.117C215.944,-164.888 292.071,-149.159 335.23,-137.963"/>
<polygon fill="midnightblue" stroke="midnightblue" points="336.189,-141.329 344.944,-135.363 334.379,-134.567 336.189,-141.329"/>
</g>
<!-- Node8 -->
<g id="node15" class="node"><title>Node8</title>
<polygon fill="white" stroke="#bfbfbf" points="158.5,-116.5 158.5,-137.5 207.5,-137.5 207.5,-116.5 158.5,-116.5"/>
<text text-anchor="middle" x="183" y="-124.5" font-family="Helvetica,sans-Serif" font-size="10.00">string.h</text>
</g>
<!-- Node6&#45;&gt;Node8 -->
<g id="edge14" class="edge"><title>Node6&#45;&gt;Node8</title>
<path fill="none" stroke="midnightblue" d="M128.289,-174.362C138.017,-165.941 151.798,-154.011 163.095,-144.231"/>
<polygon fill="midnightblue" stroke="midnightblue" points="165.519,-146.762 170.789,-137.571 160.938,-141.469 165.519,-146.762"/>
</g>
<!-- Node9 -->
<g id="node18" class="node"><title>Node9</title>
<a xlink:href="../../d1/da8/_attributes_8h.html" target="_top" xlink:title="mozilla/Attributes.h">
<polygon fill="white" stroke="black" points="706.5,-58.5 706.5,-79.5 807.5,-79.5 807.5,-58.5 706.5,-58.5"/>
<text text-anchor="middle" x="757" y="-66.5" font-family="Helvetica,sans-Serif" font-size="10.00">mozilla/Attributes.h</text>
</a>
</g>
<!-- Node6&#45;&gt;Node9 -->
<g id="edge18" class="edge"><title>Node6&#45;&gt;Node9</title>
<path fill="none" stroke="midnightblue" d="M117.835,-174.452C121.18,-158.752 129.873,-129.626 150,-116 172.384,-100.846 546.673,-79.8954 696.101,-72.0917"/>
<polygon fill="midnightblue" stroke="midnightblue" points="696.659,-75.5675 706.463,-71.5528 696.295,-68.577 696.659,-75.5675"/>
</g>
<!-- Node10 -->
<g id="node20" class="node"><title>Node10</title>
<a xlink:href="../../da/da7/_compiler_8h.html" target="_top" xlink:title="mozilla/Compiler.h">
<polygon fill="white" stroke="black" points="708,-0.5 708,-21.5 806,-21.5 806,-0.5 708,-0.5"/>
<text text-anchor="middle" x="757" y="-8.5" font-family="Helvetica,sans-Serif" font-size="10.00">mozilla/Compiler.h</text>
</a>
</g>
<!-- Node9&#45;&gt;Node10 -->
<g id="edge20" class="edge"><title>Node9&#45;&gt;Node10</title>
<path fill="none" stroke="midnightblue" d="M757,-58.3619C757,-50.9219 757,-40.7427 757,-31.7276"/>
<polygon fill="midnightblue" stroke="midnightblue" points="760.5,-31.5706 757,-21.5707 753.5,-31.5707 760.5,-31.5706"/>
</g>
<!-- Node14&#45;&gt;Node10 -->
<g id="edge30" class="edge"><title>Node14&#45;&gt;Node10</title>
<path fill="none" stroke="midnightblue" d="M509.666,-60.1279C560.051,-50.1201 642.205,-33.8017 697.876,-22.7438"/>
<polygon fill="midnightblue" stroke="midnightblue" points="698.822,-26.1243 707.949,-20.743 697.459,-19.2584 698.822,-26.1243"/>
</g>
<!-- Node15&#45;&gt;Node13 -->
<g id="edge40" class="edge"><title>Node15&#45;&gt;Node13</title>
<path fill="none" stroke="midnightblue" d="M469.022,-178.848C504.591,-170.878 568.008,-156.134 630.576,-138.278"/>
<polygon fill="midnightblue" stroke="midnightblue" points="631.561,-141.637 640.201,-135.504 629.623,-134.91 631.561,-141.637"/>
</g>
<!-- Node16 -->
<g id="node33" class="node"><title>Node16</title>
<a xlink:href="../../d1/d8a/_likely_8h.html" target="_top" xlink:title="mozilla/Likely.h">
<polygon fill="white" stroke="black" points="539,-116.5 539,-137.5 623,-137.5 623,-116.5 539,-116.5"/>
<text text-anchor="middle" x="581" y="-124.5" font-family="Helvetica,sans-Serif" font-size="10.00">mozilla/Likely.h</text>
</a>
</g>
<!-- Node15&#45;&gt;Node16 -->
<g id="edge34" class="edge"><title>Node15&#45;&gt;Node16</title>
<path fill="none" stroke="midnightblue" d="M466.353,-174.497C488.613,-165.275 521.212,-151.769 545.963,-141.515"/>
<polygon fill="midnightblue" stroke="midnightblue" points="547.464,-144.682 555.363,-137.621 544.784,-138.215 547.464,-144.682"/>
</g>
<!-- Node17 -->
<g id="node35" class="node"><title>Node17</title>
<a xlink:href="../../d3/dff/_typed_enum_8h.html" target="_top" xlink:title="mozilla/TypedEnum.h">
<polygon fill="white" stroke="black" points="410.5,-116.5 410.5,-137.5 521.5,-137.5 521.5,-116.5 410.5,-116.5"/>
<text text-anchor="middle" x="466" y="-124.5" font-family="Helvetica,sans-Serif" font-size="10.00">mozilla/TypedEnum.h</text>
</a>
</g>
<!-- Node15&#45;&gt;Node17 -->
<g id="edge36" class="edge"><title>Node15&#45;&gt;Node17</title>
<path fill="none" stroke="midnightblue" d="M445.585,-174.362C448.898,-166.677 453.47,-156.069 457.448,-146.84"/>
<polygon fill="midnightblue" stroke="midnightblue" points="460.699,-148.139 461.444,-137.571 454.271,-145.368 460.699,-148.139"/>
</g>
<!-- Node18 -->
<g id="node39" class="node"><title>Node18</title>
<a xlink:href="../../d7/dda/_error_list_c_defines_8h.html" target="_top" xlink:title="ErrorListCDefines.h">
<polygon fill="white" stroke="black" points="224.5,-116.5 224.5,-137.5 327.5,-137.5 327.5,-116.5 224.5,-116.5"/>
<text text-anchor="middle" x="276" y="-124.5" font-family="Helvetica,sans-Serif" font-size="10.00">ErrorListCDefines.h</text>
</a>
</g>
<!-- Node15&#45;&gt;Node18 -->
<g id="edge42" class="edge"><title>Node15&#45;&gt;Node18</title>
<path fill="none" stroke="midnightblue" d="M412.635,-175.029C385.897,-165.63 345.574,-151.456 315.656,-140.94"/>
<polygon fill="midnightblue" stroke="midnightblue" points="316.539,-137.54 305.944,-137.526 314.217,-144.144 316.539,-137.54"/>
</g>
<!-- Node17&#45;&gt;Node9 -->
<g id="edge38" class="edge"><title>Node17&#45;&gt;Node9</title>
<path fill="none" stroke="midnightblue" d="M518.698,-116.497C568.705,-106.53 643.814,-91.5594 696.303,-81.0977"/>
<polygon fill="midnightblue" stroke="midnightblue" points="697.034,-84.5209 706.157,-79.1337 695.666,-77.6559 697.034,-84.5209"/>
</g>
<!-- Node19&#45;&gt;Node4 -->
<g id="edge46" class="edge"><title>Node19&#45;&gt;Node4</title>
<path fill="none" stroke="midnightblue" d="M264.525,-348.15C261.792,-334.479 258.243,-310.314 262,-290 263.717,-280.715 267.192,-270.894 270.634,-262.644"/>
<polygon fill="midnightblue" stroke="midnightblue" points="273.835,-264.062 274.697,-253.502 267.438,-261.219 273.835,-264.062"/>
</g>
<!-- Node20 -->
<g id="node44" class="node"><title>Node20</title>
<a xlink:href="../../d9/d0a/ns_i_d_8h.html" target="_top" xlink:title="nsID.h">
<polygon fill="white" stroke="black" points="271,-290.5 271,-311.5 317,-311.5 317,-290.5 271,-290.5"/>
<text text-anchor="middle" x="294" y="-298.5" font-family="Helvetica,sans-Serif" font-size="10.00">nsID.h</text>
</a>
</g>
<!-- Node19&#45;&gt;Node20 -->
<g id="edge48" class="edge"><title>Node19&#45;&gt;Node20</title>
<path fill="none" stroke="midnightblue" d="M271.952,-348.362C275.53,-340.677 280.468,-330.069 284.764,-320.84"/>
<polygon fill="midnightblue" stroke="midnightblue" points="288.032,-322.114 289.079,-311.571 281.686,-319.159 288.032,-322.114"/>
</g>
<!-- Node20&#45;&gt;Node4 -->
<g id="edge52" class="edge"><title>Node20&#45;&gt;Node4</title>
<path fill="none" stroke="midnightblue" d="M291.432,-290.362C289.617,-282.84 287.125,-272.519 284.932,-263.431"/>
<polygon fill="midnightblue" stroke="midnightblue" points="288.3,-262.47 282.552,-253.571 281.496,-264.113 288.3,-262.47"/>
</g>
<!-- Node20&#45;&gt;Node8 -->
<g id="edge50" class="edge"><title>Node20&#45;&gt;Node8</title>
<path fill="none" stroke="midnightblue" d="M308.197,-290.466C337.008,-267.829 397.07,-213.409 366,-174 325.46,-122.579 285.658,-153.743 217.59,-138.057"/>
<polygon fill="midnightblue" stroke="midnightblue" points="218.353,-134.64 207.795,-135.52 216.597,-141.416 218.353,-134.64"/>
</g>
<!-- Node21&#45;&gt;Node4 -->
<g id="edge56" class="edge"><title>Node21&#45;&gt;Node4</title>
<path fill="none" stroke="midnightblue" d="M319.784,-464.372C287.024,-449.008 231.274,-417.162 208,-370 188.093,-329.661 230.395,-284.214 258.217,-260.129"/>
<polygon fill="midnightblue" stroke="midnightblue" points="260.538,-262.75 265.959,-253.647 256.044,-257.383 260.538,-262.75"/>
</g>
<!-- Node21&#45;&gt;Node15 -->
<g id="edge60" class="edge"><title>Node21&#45;&gt;Node15</title>
<path fill="none" stroke="midnightblue" d="M348.531,-464.335C362.672,-421.615 415.369,-262.426 434.231,-205.447"/>
<polygon fill="midnightblue" stroke="midnightblue" points="437.617,-206.355 437.437,-195.762 430.972,-204.156 437.617,-206.355"/>
</g>
<!-- Node21&#45;&gt;Node19 -->
<g id="edge58" class="edge"><title>Node21&#45;&gt;Node19</title>
<path fill="none" stroke="midnightblue" d="M337.802,-464.295C324.626,-444.7 296.465,-402.82 279.904,-378.191"/>
<polygon fill="midnightblue" stroke="midnightblue" points="282.665,-376.025 274.181,-369.679 276.856,-379.931 282.665,-376.025"/>
</g>
<!-- Node22 -->
<g id="node53" class="node"><title>Node22</title>
<a xlink:href="../../dc/d6d/ns_debug_8h.html" target="_top" xlink:title="nsDebug.h">
<polygon fill="white" stroke="black" points="427,-348.5 427,-369.5 491,-369.5 491,-348.5 427,-348.5"/>
<text text-anchor="middle" x="459" y="-356.5" font-family="Helvetica,sans-Serif" font-size="10.00">nsDebug.h</text>
</a>
</g>
<!-- Node21&#45;&gt;Node22 -->
<g id="edge62" class="edge"><title>Node21&#45;&gt;Node22</title>
<path fill="none" stroke="midnightblue" d="M355.521,-464.295C375.117,-444.355 417.393,-401.337 441.403,-376.906"/>
<polygon fill="midnightblue" stroke="midnightblue" points="443.992,-379.265 448.505,-369.679 438.999,-374.358 443.992,-379.265"/>
</g>
<!-- Node28 -->
<g id="node74" class="node"><title>Node28</title>
<a xlink:href="../../d0/d5a/ns_i_supports_impl_8h.html" target="_top" xlink:title="nsISupportsImpl.h">
<polygon fill="white" stroke="black" points="505,-406.5 505,-427.5 601,-427.5 601,-406.5 505,-406.5"/>
<text text-anchor="middle" x="553" y="-414.5" font-family="Helvetica,sans-Serif" font-size="10.00">nsISupportsImpl.h</text>
</a>
</g>
<!-- Node21&#45;&gt;Node28 -->
<g id="edge92" class="edge"><title>Node21&#45;&gt;Node28</title>
<path fill="none" stroke="midnightblue" d="M377.327,-464.497C410.099,-454.877 461.165,-440.598 499.863,-430.209"/>
<polygon fill="midnightblue" stroke="midnightblue" points="501.16,-433.485 509.919,-427.523 499.354,-426.722 501.16,-433.485"/>
</g>
<!-- Node22&#45;&gt;Node4 -->
<g id="edge64" class="edge"><title>Node22&#45;&gt;Node4</title>
<path fill="none" stroke="midnightblue" d="M451.782,-348.263C441.289,-333.371 420.49,-306.431 397,-290 372.672,-272.983 341.283,-260.805 317.142,-253.115"/>
<polygon fill="midnightblue" stroke="midnightblue" points="317.868,-249.677 307.282,-250.093 315.817,-256.37 317.868,-249.677"/>
</g>
<!-- Node22&#45;&gt;Node15 -->
<g id="edge66" class="edge"><title>Node22&#45;&gt;Node15</title>
<path fill="none" stroke="midnightblue" d="M457.901,-348.377C454.996,-320.293 447.07,-243.673 443.193,-206.203"/>
<polygon fill="midnightblue" stroke="midnightblue" points="446.641,-205.514 442.13,-195.928 439.678,-206.235 446.641,-205.514"/>
</g>
<!-- Node22&#45;&gt;Node16 -->
<g id="edge90" class="edge"><title>Node22&#45;&gt;Node16</title>
<path fill="none" stroke="midnightblue" d="M491.032,-349.502C519.879,-340.224 559.081,-325.558 568,-312 587.54,-282.295 572.344,-267.289 568,-232 565.985,-215.631 561.015,-212.369 559,-196 557.805,-186.295 556.877,-183.544 559,-174 561.086,-164.622 565.252,-154.901 569.403,-146.75"/>
<polygon fill="midnightblue" stroke="midnightblue" points="572.613,-148.173 574.317,-137.716 566.464,-144.828 572.613,-148.173"/>
</g>
<!-- Node23 -->
<g id="node57" class="node"><title>Node23</title>
<a xlink:href="../../dd/d3a/ns_x_p_c_o_m_8h.html" target="_top" xlink:title="nsXPCOM.h">
<polygon fill="white" stroke="black" points="487,-290.5 487,-311.5 559,-311.5 559,-290.5 487,-290.5"/>
<text text-anchor="middle" x="523" y="-298.5" font-family="Helvetica,sans-Serif" font-size="10.00">nsXPCOM.h</text>
</a>
</g>
<!-- Node22&#45;&gt;Node23 -->
<g id="edge68" class="edge"><title>Node22&#45;&gt;Node23</title>
<path fill="none" stroke="midnightblue" d="M470.739,-348.362C479.941,-340.023 492.94,-328.242 503.672,-318.516"/>
<polygon fill="midnightblue" stroke="midnightblue" points="506.276,-320.879 511.336,-311.571 501.576,-315.692 506.276,-320.879"/>
</g>
<!-- Node25 -->
<g id="node62" class="node"><title>Node25</title>
<a xlink:href="../../d9/de9/_assertions_8h.html" target="_top" xlink:title="mozilla/Assertions.h">
<polygon fill="white" stroke="black" points="892.5,-232.5 892.5,-253.5 997.5,-253.5 997.5,-232.5 892.5,-232.5"/>
<text text-anchor="middle" x="945" y="-240.5" font-family="Helvetica,sans-Serif" font-size="10.00">mozilla/Assertions.h</text>
</a>
</g>
<!-- Node22&#45;&gt;Node25 -->
<g id="edge74" class="edge"><title>Node22&#45;&gt;Node25</title>
<path fill="none" stroke="midnightblue" d="M491.217,-350.307C494.185,-349.521 497.147,-348.742 500,-348 602.025,-321.451 627.381,-314.149 730,-290 781.992,-277.765 841.312,-264.877 884.454,-255.698"/>
<polygon fill="midnightblue" stroke="midnightblue" points="885.451,-259.065 894.506,-253.564 883.997,-252.217 885.451,-259.065"/>
</g>
<!-- Node23&#45;&gt;Node4 -->
<g id="edge70" class="edge"><title>Node23&#45;&gt;Node4</title>
<path fill="none" stroke="midnightblue" d="M486.883,-292.379C441.281,-281.495 363.232,-262.866 317.148,-251.867"/>
<polygon fill="midnightblue" stroke="midnightblue" points="317.808,-248.426 307.268,-249.508 316.182,-255.235 317.808,-248.426"/>
</g>
<!-- Node24 -->
<g id="node60" class="node"><title>Node24</title>
<a xlink:href="../../d1/d66/ns_x_p_c_o_m_c_i_d_8h.html" target="_top" xlink:title="nsXPCOMCID.h">
<polygon fill="white" stroke="black" points="469,-232.5 469,-253.5 559,-253.5 559,-232.5 469,-232.5"/>
<text text-anchor="middle" x="514" y="-240.5" font-family="Helvetica,sans-Serif" font-size="10.00">nsXPCOMCID.h</text>
</a>
</g>
<!-- Node23&#45;&gt;Node24 -->
<g id="edge72" class="edge"><title>Node23&#45;&gt;Node24</title>
<path fill="none" stroke="midnightblue" d="M521.349,-290.362C520.195,-282.922 518.615,-272.743 517.216,-263.728"/>
<polygon fill="midnightblue" stroke="midnightblue" points="520.632,-262.916 515.64,-253.571 513.715,-263.989 520.632,-262.916"/>
</g>
<!-- Node25&#45;&gt;Node7 -->
<g id="edge86" class="edge"><title>Node25&#45;&gt;Node7</title>
<path fill="none" stroke="midnightblue" d="M896.268,-232.478C862.831,-224.454 817.841,-212.05 780,-196 762.034,-188.38 760.554,-180.049 742,-174 600.632,-127.913 552.567,-168.395 403.323,-137.882"/>
<polygon fill="midnightblue" stroke="midnightblue" points="403.852,-134.417 393.344,-135.768 402.402,-141.265 403.852,-134.417"/>
</g>
<!-- Node25&#45;&gt;Node9 -->
<g id="edge76" class="edge"><title>Node25&#45;&gt;Node9</title>
<path fill="none" stroke="midnightblue" d="M997.656,-234.01C1041.22,-224.147 1092.58,-205.392 1070,-174 1040.16,-132.516 900.034,-97.8802 817.735,-80.679"/>
<polygon fill="midnightblue" stroke="midnightblue" points="818.253,-77.2121 807.752,-78.6185 816.838,-84.0676 818.253,-77.2121"/>
</g>
<!-- Node25&#45;&gt;Node10 -->
<g id="edge78" class="edge"><title>Node25&#45;&gt;Node10</title>
<path fill="none" stroke="midnightblue" d="M997.756,-237.504C1045.82,-229.978 1106.43,-212.676 1086,-174 1033.18,-74.0058 895.559,-34.3225 816.044,-19.3817"/>
<polygon fill="midnightblue" stroke="midnightblue" points="816.635,-15.9318 806.171,-17.5976 815.39,-22.8202 816.635,-15.9318"/>
</g>
<!-- Node25&#45;&gt;Node12 -->
<g id="edge82" class="edge"><title>Node25&#45;&gt;Node12</title>
<path fill="none" stroke="midnightblue" d="M898.479,-232.446C858.282,-223.209 798.681,-209.236 747,-196 745.744,-195.678 744.467,-195.348 743.178,-195.011"/>
<polygon fill="midnightblue" stroke="midnightblue" points="743.779,-191.548 733.215,-192.351 741.974,-198.312 743.779,-191.548"/>
</g>
<!-- Node25&#45;&gt;Node16 -->
<g id="edge80" class="edge"><title>Node25&#45;&gt;Node16</title>
<path fill="none" stroke="midnightblue" d="M941.312,-232.262C935.32,-216.591 921.888,-187.821 900,-174 801.061,-111.527 752.956,-156.188 633.145,-138.001"/>
<polygon fill="midnightblue" stroke="midnightblue" points="633.685,-134.543 623.25,-136.381 632.554,-141.451 633.685,-134.543"/>
</g>
<!-- Node26 -->
<g id="node68" class="node"><title>Node26</title>
<polygon fill="white" stroke="#bfbfbf" points="947,-174.5 947,-195.5 993,-195.5 993,-174.5 947,-174.5"/>
<text text-anchor="middle" x="970" y="-182.5" font-family="Helvetica,sans-Serif" font-size="10.00">stdio.h</text>
</g>
<!-- Node25&#45;&gt;Node26 -->
<g id="edge84" class="edge"><title>Node25&#45;&gt;Node26</title>
<path fill="none" stroke="midnightblue" d="M949.585,-232.362C952.898,-224.677 957.47,-214.069 961.448,-204.84"/>
<polygon fill="midnightblue" stroke="midnightblue" points="964.699,-206.139 965.444,-195.571 958.271,-203.368 964.699,-206.139"/>
</g>
<!-- Node27 -->
<g id="node71" class="node"><title>Node27</title>
<polygon fill="white" stroke="#bfbfbf" points="1011,-174.5 1011,-195.5 1061,-195.5 1061,-174.5 1011,-174.5"/>
<text text-anchor="middle" x="1036" y="-182.5" font-family="Helvetica,sans-Serif" font-size="10.00">signal.h</text>
</g>
<!-- Node25&#45;&gt;Node27 -->
<g id="edge88" class="edge"><title>Node25&#45;&gt;Node27</title>
<path fill="none" stroke="midnightblue" d="M961.691,-232.362C975.416,-223.614 995.084,-211.079 1010.74,-201.101"/>
<polygon fill="midnightblue" stroke="midnightblue" points="1012.86,-203.897 1019.42,-195.571 1009.1,-197.994 1012.86,-203.897"/>
</g>
<!-- Node28&#45;&gt;Node4 -->
<g id="edge94" class="edge"><title>Node28&#45;&gt;Node4</title>
<path fill="none" stroke="midnightblue" d="M508.446,-406.445C481.12,-398.798 446.106,-386.828 418,-370 391.474,-354.119 328.362,-291.912 297.542,-260.849"/>
<polygon fill="midnightblue" stroke="midnightblue" points="299.963,-258.32 290.444,-253.67 294.986,-263.242 299.963,-258.32"/>
</g>
<!-- Node28&#45;&gt;Node9 -->
<g id="edge132" class="edge"><title>Node28&#45;&gt;Node9</title>
<path fill="none" stroke="midnightblue" d="M601.28,-414.728C768.242,-406.239 1311,-373.098 1311,-301 1311,-301 1311,-301 1311,-185 1311,-135.039 961.377,-91.2509 817.62,-75.3578"/>
<polygon fill="midnightblue" stroke="midnightblue" points="817.955,-71.8737 807.632,-74.262 817.191,-78.8319 817.955,-71.8737"/>
</g>
<!-- Node28&#45;&gt;Node16 -->
<g id="edge136" class="edge"><title>Node28&#45;&gt;Node16</title>
<path fill="none" stroke="midnightblue" d="M571.434,-406.467C583.749,-398.287 598.938,-385.702 606,-370 615.033,-349.917 592.954,-202.478 584.3,-147.548"/>
<polygon fill="midnightblue" stroke="midnightblue" points="587.742,-146.911 582.717,-137.584 580.829,-148.01 587.742,-146.911"/>
</g>
<!-- Node28&#45;&gt;Node19 -->
<g id="edge96" class="edge"><title>Node28&#45;&gt;Node19</title>
<path fill="none" stroke="midnightblue" d="M504.807,-407.227C455.903,-397.309 380.072,-381.931 327.233,-371.215"/>
<polygon fill="midnightblue" stroke="midnightblue" points="327.813,-367.762 317.317,-369.204 326.422,-374.622 327.813,-367.762"/>
</g>
<!-- Node28&#45;&gt;Node21 -->
<g id="edge98" class="edge"><title>Node28&#45;&gt;Node21</title>
<path fill="none" stroke="midnightblue" d="M520.606,-427.523C487.809,-437.149 436.739,-451.428 398.058,-461.812"/>
<polygon fill="midnightblue" stroke="midnightblue" points="396.766,-458.535 388.007,-464.497 398.572,-465.298 396.766,-458.535"/>
</g>
<!-- Node28&#45;&gt;Node22 -->
<g id="edge116" class="edge"><title>Node28&#45;&gt;Node22</title>
<path fill="none" stroke="midnightblue" d="M535.759,-406.362C521.448,-397.532 500.885,-384.844 484.643,-374.822"/>
<polygon fill="midnightblue" stroke="midnightblue" points="486.48,-371.843 476.132,-369.571 482.804,-377.8 486.48,-371.843"/>
</g>
<!-- Node28&#45;&gt;Node25 -->
<g id="edge134" class="edge"><title>Node28&#45;&gt;Node25</title>
<path fill="none" stroke="midnightblue" d="M601.039,-406.973C635.451,-398.995 682.499,-386.444 722,-370 798.319,-338.229 881.154,-285.797 920.968,-259.343"/>
<polygon fill="midnightblue" stroke="midnightblue" points="923.101,-262.127 929.465,-253.657 919.208,-256.31 923.101,-262.127"/>
</g>
<!-- Node29 -->
<g id="node79" class="node"><title>Node29</title>
<a xlink:href="../../d2/df8/prthread_8h.html" target="_top" xlink:title="prthread.h">
<polygon fill="white" stroke="black" points="653,-348.5 653,-369.5 713,-369.5 713,-348.5 653,-348.5"/>
<text text-anchor="middle" x="683" y="-356.5" font-family="Helvetica,sans-Serif" font-size="10.00">prthread.h</text>
</a>
</g>
<!-- Node28&#45;&gt;Node29 -->
<g id="edge100" class="edge"><title>Node28&#45;&gt;Node29</title>
<path fill="none" stroke="midnightblue" d="M576.542,-406.497C597.029,-397.356 626.947,-384.008 649.854,-373.788"/>
<polygon fill="midnightblue" stroke="midnightblue" points="651.488,-376.892 659.194,-369.621 648.635,-370.499 651.488,-376.892"/>
</g>
<!-- Node35 -->
<g id="node94" class="node"><title>Node35</title>
<a xlink:href="../../dc/d1c/ns_trace_refcnt_8h.html" target="_top" xlink:title="nsTraceRefcnt.h">
<polygon fill="white" stroke="black" points="508.5,-348.5 508.5,-369.5 597.5,-369.5 597.5,-348.5 508.5,-348.5"/>
<text text-anchor="middle" x="553" y="-356.5" font-family="Helvetica,sans-Serif" font-size="10.00">nsTraceRefcnt.h</text>
</a>
</g>
<!-- Node28&#45;&gt;Node35 -->
<g id="edge118" class="edge"><title>Node28&#45;&gt;Node35</title>
<path fill="none" stroke="midnightblue" d="M553,-406.362C553,-398.922 553,-388.743 553,-379.728"/>
<polygon fill="midnightblue" stroke="midnightblue" points="556.5,-379.571 553,-369.571 549.5,-379.571 556.5,-379.571"/>
</g>
<!-- Node36 -->
<g id="node97" class="node"><title>Node36</title>
<a xlink:href="../../db/d18/_atomics_8h.html" target="_top" xlink:title="mozilla/Atomics.h">
<polygon fill="white" stroke="black" points="962.5,-290.5 962.5,-311.5 1057.5,-311.5 1057.5,-290.5 962.5,-290.5"/>
<text text-anchor="middle" x="1010" y="-298.5" font-family="Helvetica,sans-Serif" font-size="10.00">mozilla/Atomics.h</text>
</a>
</g>
<!-- Node28&#45;&gt;Node36 -->
<g id="edge122" class="edge"><title>Node28&#45;&gt;Node36</title>
<path fill="none" stroke="midnightblue" d="M601.202,-413.144C683.774,-406.106 848.638,-390.036 903,-370 935.847,-357.894 969.004,-334.358 989.517,-318.168"/>
<polygon fill="midnightblue" stroke="midnightblue" points="991.908,-320.736 997.496,-311.734 987.514,-315.287 991.908,-320.736"/>
</g>
<!-- Node30 -->
<g id="node81" class="node"><title>Node30</title>
<a xlink:href="../../dc/d23/prtypes_8h.html" target="_top" xlink:title="prtypes.h">
<polygon fill="white" stroke="black" points="678.5,-232.5 678.5,-253.5 735.5,-253.5 735.5,-232.5 678.5,-232.5"/>
<text text-anchor="middle" x="707" y="-240.5" font-family="Helvetica,sans-Serif" font-size="10.00">prtypes.h</text>
</a>
</g>
<!-- Node29&#45;&gt;Node30 -->
<g id="edge102" class="edge"><title>Node29&#45;&gt;Node30</title>
<path fill="none" stroke="midnightblue" d="M685.215,-348.295C689.198,-329.045 697.63,-288.289 702.757,-263.509"/>
<polygon fill="midnightblue" stroke="midnightblue" points="706.192,-264.181 704.791,-253.679 699.337,-262.763 706.192,-264.181"/>
</g>
<!-- Node34 -->
<g id="node90" class="node"><title>Node34</title>
<a xlink:href="../../d7/dc8/prinrval_8h.html" target="_top" xlink:title="prinrval.h">
<polygon fill="white" stroke="black" points="739,-290.5 739,-311.5 795,-311.5 795,-290.5 739,-290.5"/>
<text text-anchor="middle" x="767" y="-298.5" font-family="Helvetica,sans-Serif" font-size="10.00">prinrval.h</text>
</a>
</g>
<!-- Node29&#45;&gt;Node34 -->
<g id="edge112" class="edge"><title>Node29&#45;&gt;Node34</title>
<path fill="none" stroke="midnightblue" d="M698.407,-348.362C710.958,-339.696 728.892,-327.313 743.275,-317.382"/>
<polygon fill="midnightblue" stroke="midnightblue" points="745.45,-320.133 751.691,-311.571 741.473,-314.372 745.45,-320.133"/>
</g>
<!-- Node30&#45;&gt;Node12 -->
<g id="edge106" class="edge"><title>Node30&#45;&gt;Node12</title>
<path fill="none" stroke="midnightblue" d="M707,-232.362C707,-224.922 707,-214.743 707,-205.728"/>
<polygon fill="midnightblue" stroke="midnightblue" points="710.5,-205.571 707,-195.571 703.5,-205.571 710.5,-205.571"/>
</g>
<!-- Node31 -->
<g id="node83" class="node"><title>Node31</title>
<a xlink:href="../../d7/d7e/prcpucfg_8h.html" target="_top" xlink:title="prcpucfg.h">
<polygon fill="white" stroke="black" points="601,-174.5 601,-195.5 663,-195.5 663,-174.5 601,-174.5"/>
<text text-anchor="middle" x="632" y="-182.5" font-family="Helvetica,sans-Serif" font-size="10.00">prcpucfg.h</text>
</a>
</g>
<!-- Node30&#45;&gt;Node31 -->
<g id="edge104" class="edge"><title>Node30&#45;&gt;Node31</title>
<path fill="none" stroke="midnightblue" d="M693.244,-232.362C682.249,-223.859 666.627,-211.779 653.914,-201.947"/>
<polygon fill="midnightblue" stroke="midnightblue" points="655.721,-198.919 645.669,-195.571 651.438,-204.457 655.721,-198.919"/>
</g>
<!-- Node32 -->
<g id="node86" class="node"><title>Node32</title>
<a xlink:href="../../d2/de8/protypes_8h.html" target="_top" xlink:title="obsolete/protypes.h">
<polygon fill="white" stroke="black" points="789,-174.5 789,-195.5 891,-195.5 891,-174.5 789,-174.5"/>
<text text-anchor="middle" x="840" y="-182.5" font-family="Helvetica,sans-Serif" font-size="10.00">obsolete/protypes.h</text>
</a>
</g>
<!-- Node30&#45;&gt;Node32 -->
<g id="edge108" class="edge"><title>Node30&#45;&gt;Node32</title>
<path fill="none" stroke="midnightblue" d="M731.085,-232.497C752.139,-223.315 782.927,-209.889 806.402,-199.652"/>
<polygon fill="midnightblue" stroke="midnightblue" points="807.877,-202.827 815.644,-195.621 805.079,-196.41 807.877,-202.827"/>
</g>
<!-- Node33 -->
<g id="node88" class="node"><title>Node33</title>
<polygon fill="white" stroke="#bfbfbf" points="806,-116.5 806,-137.5 874,-137.5 874,-116.5 806,-116.5"/>
<text text-anchor="middle" x="840" y="-124.5" font-family="Helvetica,sans-Serif" font-size="10.00">sys/types.h</text>
</g>
<!-- Node32&#45;&gt;Node33 -->
<g id="edge110" class="edge"><title>Node32&#45;&gt;Node33</title>
<path fill="none" stroke="midnightblue" d="M840,-174.362C840,-166.922 840,-156.743 840,-147.728"/>
<polygon fill="midnightblue" stroke="midnightblue" points="843.5,-147.571 840,-137.571 836.5,-147.571 843.5,-147.571"/>
</g>
<!-- Node34&#45;&gt;Node30 -->
<g id="edge114" class="edge"><title>Node34&#45;&gt;Node30</title>
<path fill="none" stroke="midnightblue" d="M755.995,-290.362C747.453,-282.104 735.42,-270.472 725.417,-260.803"/>
<polygon fill="midnightblue" stroke="midnightblue" points="727.558,-258.004 717.935,-253.571 722.692,-263.037 727.558,-258.004"/>
</g>
<!-- Node35&#45;&gt;Node23 -->
<g id="edge120" class="edge"><title>Node35&#45;&gt;Node23</title>
<path fill="none" stroke="midnightblue" d="M547.498,-348.362C543.48,-340.595 537.919,-329.843 533.11,-320.546"/>
<polygon fill="midnightblue" stroke="midnightblue" points="536.171,-318.845 528.468,-311.571 529.953,-322.061 536.171,-318.845"/>
</g>
<!-- Node36&#45;&gt;Node13 -->
<g id="edge130" class="edge"><title>Node36&#45;&gt;Node13</title>
<path fill="none" stroke="midnightblue" d="M1022.4,-290.305C1048.12,-266.878 1102.28,-210.238 1070,-174 1057.71,-160.196 795.749,-137.621 699.81,-129.784"/>
<polygon fill="midnightblue" stroke="midnightblue" points="699.993,-126.287 689.742,-128.966 699.426,-133.264 699.993,-126.287"/>
</g>
<!-- Node36&#45;&gt;Node25 -->
<g id="edge124" class="edge"><title>Node36&#45;&gt;Node25</title>
<path fill="none" stroke="midnightblue" d="M998.078,-290.362C988.641,-281.941 975.27,-270.011 964.31,-260.231"/>
<polygon fill="midnightblue" stroke="midnightblue" points="966.638,-257.617 956.846,-253.571 961.978,-262.84 966.638,-257.617"/>
</g>
<!-- Node37 -->
<g id="node100" class="node"><title>Node37</title>
<a xlink:href="../../d4/dd5/_type_traits_8h.html" target="_top" xlink:title="mozilla/TypeTraits.h">
<polygon fill="white" stroke="black" points="1178.5,-232.5 1178.5,-253.5 1283.5,-253.5 1283.5,-232.5 1178.5,-232.5"/>
<text text-anchor="middle" x="1231" y="-240.5" font-family="Helvetica,sans-Serif" font-size="10.00">mozilla/TypeTraits.h</text>
</a>
</g>
<!-- Node36&#45;&gt;Node37 -->
<g id="edge126" class="edge"><title>Node36&#45;&gt;Node37</title>
<path fill="none" stroke="midnightblue" d="M1050.02,-290.497C1086.83,-280.836 1141.55,-266.477 1181.17,-256.077"/>
<polygon fill="midnightblue" stroke="midnightblue" points="1182.12,-259.447 1190.9,-253.523 1180.34,-252.676 1182.12,-259.447"/>
</g>
<!-- Node38 -->
<g id="node102" class="node"><title>Node38</title>
<polygon fill="white" stroke="#bfbfbf" points="1205.5,-174.5 1205.5,-195.5 1256.5,-195.5 1256.5,-174.5 1205.5,-174.5"/>
<text text-anchor="middle" x="1231" y="-182.5" font-family="Helvetica,sans-Serif" font-size="10.00">wchar.h</text>
</g>
<!-- Node37&#45;&gt;Node38 -->
<g id="edge128" class="edge"><title>Node37&#45;&gt;Node38</title>
<path fill="none" stroke="midnightblue" d="M1231,-232.362C1231,-224.922 1231,-214.743 1231,-205.728"/>
<polygon fill="midnightblue" stroke="midnightblue" points="1234.5,-205.571 1231,-195.571 1227.5,-205.571 1234.5,-205.571"/>
</g>
<!-- Node39&#45;&gt;Node2 -->
<g id="edge140" class="edge"><title>Node39&#45;&gt;Node2</title>
<path fill="none" stroke="midnightblue" d="M202.93,-580.362C196.851,-572.35 188.363,-561.161 181.163,-551.67"/>
<polygon fill="midnightblue" stroke="midnightblue" points="183.851,-549.422 175.019,-543.571 178.275,-553.653 183.851,-549.422"/>
</g>
</g>
</svg>
        <g id="navigator" transform="translate(0 0)" fill="#404254">
                <rect fill="#f2f5e9" fill-opacity="0.5" stroke="#606060" stroke-width=".5" x="0" y="0" width="60" height="60"/>
                <use id="zoomplus" xlink:href="#zoomPlus" x="17" y="9" onmousedown="handleZoom(evt,'in')"/>
                <use id="zoomminus" xlink:href="#zoomMin" x="42" y="9" onmousedown="handleZoom(evt,'out')"/>
                <use id="reset" xlink:href="#resetDef" x="30" y="36" onmousedown="handleReset()"/>
                <g id="arrowUp" xlink:href="#dirArrow" transform="translate(30 24)" onmousedown="handlePan(0,-1)">
                  <use xlink:href="#rim" fill="#404040">
                        <set attributeName="fill" to="#808080" begin="arrowUp.mouseover" end="arrowUp.mouseout"/>
                  </use>
                  <path fill="none" stroke="white" stroke-width="1.5" d="M0,-3.0v7 M-2.5,-0.5L0,-3.0L2.5,-0.5"/>
                </g>
                <g id="arrowRight" xlink:href="#dirArrow" transform="rotate(90) translate(36 -43)" onmousedown="handlePan(1,0)">
                  <use xlink:href="#rim" fill="#404040">
                        <set attributeName="fill" to="#808080" begin="arrowRight.mouseover" end="arrowRight.mouseout"/>
                  </use>
                  <path fill="none" stroke="white" stroke-width="1.5" d="M0,-3.0v7 M-2.5,-0.5L0,-3.0L2.5,-0.5"/>
                </g>
                <g id="arrowDown" xlink:href="#dirArrow" transform="rotate(180) translate(-30 -48)" onmousedown="handlePan(0,1)">
                  <use xlink:href="#rim" fill="#404040">
                        <set attributeName="fill" to="#808080" begin="arrowDown.mouseover" end="arrowDown.mouseout"/>
                  </use>
                  <path fill="none" stroke="white" stroke-width="1.5" d="M0,-3.0v7 M-2.5,-0.5L0,-3.0L2.5,-0.5"/>
                </g>
                <g id="arrowLeft" xlink:href="#dirArrow" transform="rotate(270) translate(-36 17)" onmousedown="handlePan(-1,0)">
                  <use xlink:href="#rim" fill="#404040">
                        <set attributeName="fill" to="#808080" begin="arrowLeft.mouseover" end="arrowLeft.mouseout"/>
                  </use>
                  <path fill="none" stroke="white" stroke-width="1.5" d="M0,-3.0v7 M-2.5,-0.5L0,-3.0L2.5,-0.5"/>
                </g>
        </g>
</svg>
