<?xml version="1.0" encoding="UTF-8" standalone="no"?>
<!DOCTYPE svg PUBLIC "-//W3C//DTD SVG 1.1//EN"
 "http://www.w3.org/Graphics/SVG/1.1/DTD/svg11.dtd">
<!-- Generated by graphviz version 2.26.3 (20100126.1600)
 -->
<!-- Title: G Pages: 1 -->
<svg width="308pt" height="70pt"
 viewBox="0.00 0.00 308.00 70.00" xmlns="http://www.w3.org/2000/svg" xmlns:xlink="http://www.w3.org/1999/xlink">
<g id="graph1" class="graph" transform="scale(1 1) rotate(0) translate(4 66)">
<title>G</title>
<polygon fill="white" stroke="white" points="-4,5 -4,-66 305,-66 305,5 -4,5"/>
<!-- Node1 -->
<g id="node1" class="node"><title>Node1</title>
<polygon fill="#bfbfbf" stroke="black" points="0.5,-20.5 0.5,-41.5 145.5,-41.5 145.5,-20.5 0.5,-20.5"/>
<text text-anchor="middle" x="73" y="-28.5" font-family="Helvetica,sans-Serif" font-size="10.00">JS::Value::isNullOrUndefined</text>
</g>
<!-- Node2 -->
<g id="node3" class="node"><title>Node2</title>
<a xlink:href="../../d1/d94/class_j_s_1_1_value.html#ab9252b7ca38f02b24713dd406b90c566" target="_top" xlink:title="JS::Value::isNull">
<polygon fill="white" stroke="black" points="196,-40.5 196,-61.5 286,-61.5 286,-40.5 196,-40.5"/>
<text text-anchor="middle" x="241" y="-48.5" font-family="Helvetica,sans-Serif" font-size="10.00">JS::Value::isNull</text>
</a>
</g>
<!-- Node1&#45;&gt;Node2 -->
<g id="edge2" class="edge"><title>Node1&#45;&gt;Node2</title>
<path fill="none" stroke="midnightblue" d="M145.71,-39.656C159.145,-41.2554 172.972,-42.9015 185.784,-44.4266"/>
<polygon fill="midnightblue" stroke="midnightblue" points="185.47,-47.9139 195.813,-45.6206 186.297,-40.963 185.47,-47.9139"/>
</g>
<!-- Node3 -->
<g id="node5" class="node"><title>Node3</title>
<a xlink:href="../../d1/d94/class_j_s_1_1_value.html#a2d69477fc4f9ec14be53d542e3b8ba1f" target="_top" xlink:title="JS::Value::isUndefined">
<polygon fill="white" stroke="black" points="182.5,-0.5 182.5,-21.5 299.5,-21.5 299.5,-0.5 182.5,-0.5"/>
<text text-anchor="middle" x="241" y="-8.5" font-family="Helvetica,sans-Serif" font-size="10.00">JS::Value::isUndefined</text>
</a>
</g>
<!-- Node1&#45;&gt;Node3 -->
<g id="edge4" class="edge"><title>Node1&#45;&gt;Node3</title>
<path fill="none" stroke="midnightblue" d="M145.71,-22.344C154.506,-21.2969 163.47,-20.2297 172.207,-19.1896"/>
<polygon fill="midnightblue" stroke="midnightblue" points="172.82,-22.6415 182.336,-17.9838 171.992,-15.6906 172.82,-22.6415"/>
</g>
</g>
</svg>
