<?xml version="1.0" encoding="UTF-8" standalone="no"?>
<!DOCTYPE svg PUBLIC "-//W3C//DTD SVG 1.1//EN"
 "http://www.w3.org/Graphics/SVG/1.1/DTD/svg11.dtd">
<!-- Generated by graphviz version 2.26.3 (20100126.1600)
 -->
<!-- Title: G Pages: 1 -->
<svg width="433pt" height="234pt"
 viewBox="0.00 0.00 433.00 234.00" xmlns="http://www.w3.org/2000/svg" xmlns:xlink="http://www.w3.org/1999/xlink">
<g id="graph1" class="graph" transform="scale(1 1) rotate(0) translate(4 230)">
<title>G</title>
<polygon fill="white" stroke="white" points="-4,5 -4,-230 430,-230 430,5 -4,5"/>
<!-- Node1 -->
<g id="node1" class="node"><title>Node1</title>
<polygon fill="#bfbfbf" stroke="black" points="90,-0.5 90,-21.5 180,-21.5 180,-0.5 90,-0.5"/>
<text text-anchor="middle" x="135" y="-8.5" font-family="Helvetica,sans-Serif" font-size="10.00">nsRDFResource</text>
</g>
<!-- Node2 -->
<g id="node2" class="node"><title>Node2</title>
<a xlink:href="../../d2/d74/interfacens_i_r_d_f_resource.html" target="_top" xlink:title="nsIRDFResource">
<polygon fill="white" stroke="black" points="-0.5,-72.5 -0.5,-93.5 92.5,-93.5 92.5,-72.5 -0.5,-72.5"/>
<text text-anchor="middle" x="46" y="-80.5" font-family="Helvetica,sans-Serif" font-size="10.00">nsIRDFResource</text>
</a>
</g>
<!-- Node2&#45;&gt;Node1 -->
<g id="edge2" class="edge"><title>Node2&#45;&gt;Node1</title>
<path fill="none" stroke="midnightblue" d="M67.3507,-65.7275C84.3014,-52.0146 107.463,-33.2774 121.814,-21.6674"/>
<polygon fill="midnightblue" stroke="midnightblue" points="64.7054,-63.3656 59.1323,-72.3762 69.1081,-68.8077 64.7054,-63.3656"/>
</g>
<!-- Node3 -->
<g id="node4" class="node"><title>Node3</title>
<a xlink:href="../../d6/d65/interfacens_i_r_d_f_node.html" target="_top" xlink:title="nsIRDFNode">
<polygon fill="white" stroke="black" points="9,-144.5 9,-165.5 83,-165.5 83,-144.5 9,-144.5"/>
<text text-anchor="middle" x="46" y="-152.5" font-family="Helvetica,sans-Serif" font-size="10.00">nsIRDFNode</text>
</a>
</g>
<!-- Node3&#45;&gt;Node2 -->
<g id="edge4" class="edge"><title>Node3&#45;&gt;Node2</title>
<path fill="none" stroke="midnightblue" d="M39.8188,-134.235C38.7675,-120.969 39.1736,-104.319 41.037,-93.6674"/>
<polygon fill="midnightblue" stroke="midnightblue" points="36.3698,-134.868 41.0446,-144.376 43.3192,-134.028 36.3698,-134.868"/>
</g>
<!-- Node3&#45;&gt;Node2 -->
<g id="edge10" class="edge"><title>Node3&#45;&gt;Node2</title>
<path fill="none" stroke="midnightblue" d="M52.1812,-134.235C53.2325,-120.969 52.8264,-104.319 50.963,-93.6674"/>
<polygon fill="midnightblue" stroke="midnightblue" points="48.6808,-134.028 50.9554,-144.376 55.6302,-134.868 48.6808,-134.028"/>
</g>
<!-- Node4 -->
<g id="node6" class="node"><title>Node4</title>
<a xlink:href="../../d4/d6a/classns_i_supports.html" target="_top" xlink:title="nsISupports">
<polygon fill="white" stroke="black" points="60.5,-204.5 60.5,-225.5 129.5,-225.5 129.5,-204.5 60.5,-204.5"/>
<text text-anchor="middle" x="95" y="-212.5" font-family="Helvetica,sans-Serif" font-size="10.00">nsISupports</text>
</a>
</g>
<!-- Node4&#45;&gt;Node3 -->
<g id="edge6" class="edge"><title>Node4&#45;&gt;Node3</title>
<path fill="none" stroke="midnightblue" d="M74.0422,-196.986C64.7853,-186.76 54.9335,-174.31 49.3849,-165.634"/>
<polygon fill="midnightblue" stroke="midnightblue" points="71.5133,-199.406 80.9239,-204.273 76.6026,-194.6 71.5133,-199.406"/>
</g>
<!-- Node4&#45;&gt;Node3 -->
<g id="edge8" class="edge"><title>Node4&#45;&gt;Node3</title>
<path fill="none" stroke="midnightblue" d="M85.6452,-195.773C78.2698,-185.789 68.2679,-173.97 59.9839,-165.634"/>
<polygon fill="midnightblue" stroke="midnightblue" points="82.9732,-198.061 91.5557,-204.273 88.7204,-194.065 82.9732,-198.061"/>
</g>
<!-- Node5 -->
<g id="node10" class="node"><title>Node5</title>
<a xlink:href="../../d4/d28/interfacens_i_r_d_f_service.html" target="_top" xlink:title="nsIRDFService">
<polygon fill="white" stroke="black" points="101,-144.5 101,-165.5 185,-165.5 185,-144.5 101,-144.5"/>
<text text-anchor="middle" x="143" y="-152.5" font-family="Helvetica,sans-Serif" font-size="10.00">nsIRDFService</text>
</a>
</g>
<!-- Node4&#45;&gt;Node5 -->
<g id="edge14" class="edge"><title>Node4&#45;&gt;Node5</title>
<path fill="none" stroke="midnightblue" d="M104.034,-195.773C111.243,-185.789 121.048,-173.97 129.193,-165.634"/>
<polygon fill="midnightblue" stroke="midnightblue" points="100.985,-194.033 98.2656,-204.273 106.777,-197.964 100.985,-194.033"/>
</g>
<!-- Node4&#45;&gt;Node5 -->
<g id="edge16" class="edge"><title>Node4&#45;&gt;Node5</title>
<path fill="none" stroke="midnightblue" d="M115.925,-196.685C124.933,-186.516 134.441,-174.225 139.792,-165.634"/>
<polygon fill="midnightblue" stroke="midnightblue" points="113.124,-194.558 108.897,-204.273 118.26,-199.314 113.124,-194.558"/>
</g>
<!-- Node5&#45;&gt;Node1 -->
<g id="edge12" class="edge"><title>Node5&#45;&gt;Node1</title>
<path fill="none" stroke="#9a32cd" stroke-dasharray="5,2" d="M141.831,-133.965C140.095,-102.718 136.899,-45.1898 135.587,-21.5577"/>
<polygon fill="#9a32cd" stroke="#9a32cd" points="138.349,-134.386 142.399,-144.177 145.339,-133.998 138.349,-134.386"/>
<text text-anchor="middle" x="171.5" y="-80.5" font-family="Helvetica,sans-Serif" font-size="10.00"> gRDFService</text>
</g>
<!-- Node6 -->
<g id="node14" class="node"><title>Node6</title>
<a xlink:href="../../d5/d29/structns_r_d_f_resource_1_1_delegate_entry.html" target="_top" xlink:title="nsRDFResource::DelegateEntry">
<polygon fill="white" stroke="black" points="216,-72.5 216,-93.5 374,-93.5 374,-72.5 216,-72.5"/>
<text text-anchor="middle" x="295" y="-80.5" font-family="Helvetica,sans-Serif" font-size="10.00">nsRDFResource::DelegateEntry</text>
</a>
</g>
<!-- Node6&#45;&gt;Node1 -->
<g id="edge18" class="edge"><title>Node6&#45;&gt;Node1</title>
<path fill="none" stroke="#9a32cd" stroke-dasharray="5,2" d="M261.915,-68.1116C231.04,-54.2179 185.748,-33.8366 158.445,-21.5501"/>
<polygon fill="#9a32cd" stroke="#9a32cd" points="260.836,-71.4642 271.391,-72.3762 263.709,-65.0807 260.836,-71.4642"/>
<text text-anchor="middle" x="257" y="-44.5" font-family="Helvetica,sans-Serif" font-size="10.00"> mDelegates</text>
</g>
<!-- Node6&#45;&gt;Node6 -->
<g id="edge20" class="edge"><title>Node6&#45;&gt;Node6</title>
<path fill="none" stroke="#9a32cd" stroke-dasharray="5,2" d="M384.156,-87.5215C389.074,-86.4215 392,-84.9144 392,-83 392,-80.0117 384.871,-78.0156 374.163,-77.0118"/>
<polygon fill="#9a32cd" stroke="#9a32cd" points="383.549,-84.073 374.163,-88.9882 384.565,-90.9988 383.549,-84.073"/>
<text text-anchor="middle" x="408.5" y="-80.5" font-family="Helvetica,sans-Serif" font-size="10.00"> mNext</text>
</g>
<!-- Node7 -->
<g id="node17" class="node"><title>Node7</title>
<a xlink:href="../../da/d75/classns_c_o_m_ptr_3_01ns_i_supports_01_4.html" target="_top" xlink:title="nsCOMPtr\&lt; nsISupports \&gt;">
<polygon fill="white" stroke="black" points="228,-144.5 228,-165.5 362,-165.5 362,-144.5 228,-144.5"/>
<text text-anchor="middle" x="295" y="-152.5" font-family="Helvetica,sans-Serif" font-size="10.00">nsCOMPtr&lt; nsISupports &gt;</text>
</a>
</g>
<!-- Node7&#45;&gt;Node6 -->
<g id="edge22" class="edge"><title>Node7&#45;&gt;Node6</title>
<path fill="none" stroke="#9a32cd" stroke-dasharray="5,2" d="M295,-134.235C295,-120.969 295,-104.319 295,-93.6674"/>
<polygon fill="#9a32cd" stroke="#9a32cd" points="291.5,-134.376 295,-144.376 298.5,-134.376 291.5,-134.376"/>
<text text-anchor="middle" x="320.5" y="-116.5" font-family="Helvetica,sans-Serif" font-size="10.00"> mDelegate</text>
</g>
<!-- Node8 -->
<g id="node19" class="node"><title>Node8</title>
<a xlink:href="../../df/de1/classns_c_o_m_ptr__base.html" target="_top" xlink:title="nsCOMPtr_base">
<polygon fill="white" stroke="black" points="250.5,-204.5 250.5,-225.5 339.5,-225.5 339.5,-204.5 250.5,-204.5"/>
<text text-anchor="middle" x="295" y="-212.5" font-family="Helvetica,sans-Serif" font-size="10.00">nsCOMPtr_base</text>
</a>
</g>
<!-- Node8&#45;&gt;Node7 -->
<g id="edge24" class="edge"><title>Node8&#45;&gt;Node7</title>
<path fill="none" stroke="#8b1a1a" d="M295,-194.231C295,-184.592 295,-173.544 295,-165.634"/>
<polygon fill="#8b1a1a" stroke="#8b1a1a" points="291.5,-194.273 295,-204.273 298.5,-194.273 291.5,-194.273"/>
</g>
</g>
</svg>
