<?xml version="1.0" encoding="UTF-8" standalone="no"?>
<!DOCTYPE svg PUBLIC "-//W3C//DTD SVG 1.1//EN"
 "http://www.w3.org/Graphics/SVG/1.1/DTD/svg11.dtd">
<!-- Generated by graphviz version 2.26.3 (20100126.1600)
 -->
<!-- Title: G Pages: 1 -->
<svg width="494pt" height="70pt"
 viewBox="0.00 0.00 494.00 70.00" xmlns="http://www.w3.org/2000/svg" xmlns:xlink="http://www.w3.org/1999/xlink">
<g id="graph1" class="graph" transform="scale(1 1) rotate(0) translate(4 66)">
<title>G</title>
<polygon fill="white" stroke="white" points="-4,5 -4,-66 491,-66 491,5 -4,5"/>
<!-- Node1 -->
<g id="node1" class="node"><title>Node1</title>
<polygon fill="#bfbfbf" stroke="black" points="0.5,-20.5 0.5,-41.5 207.5,-41.5 207.5,-20.5 0.5,-20.5"/>
<text text-anchor="middle" x="104" y="-28.5" font-family="Helvetica,sans-Serif" font-size="10.00">mozilla::layers::GetProgramTypeForTexture</text>
</g>
<!-- Node2 -->
<g id="node3" class="node"><title>Node2</title>
<a xlink:href="../../d0/d12/classmozilla_1_1layers_1_1_deprecated_texture_host.html#a300c7c74083050cf83fcbb73c762d788" target="_top" xlink:title="mozilla::layers::DeprecatedTextureHost::GetFormat">
<polygon fill="white" stroke="black" points="244,-40.5 244,-61.5 486,-61.5 486,-40.5 244,-40.5"/>
<text text-anchor="middle" x="365" y="-48.5" font-family="Helvetica,sans-Serif" font-size="10.00">mozilla::layers::DeprecatedTextureHost::GetFormat</text>
</a>
</g>
<!-- Node1&#45;&gt;Node2 -->
<g id="edge2" class="edge"><title>Node1&#45;&gt;Node2</title>
<path fill="none" stroke="midnightblue" d="M207.529,-38.9333C216.215,-39.5989 225.068,-40.2772 233.924,-40.9559"/>
<polygon fill="midnightblue" stroke="midnightblue" points="233.678,-44.4472 243.916,-41.7216 234.213,-37.4677 233.678,-44.4472"/>
</g>
<!-- Node3 -->
<g id="node5" class="node"><title>Node3</title>
<a xlink:href="../../d5/d27/namespacemozilla_1_1layers.html#a3598167fc76d3f7dcff21ef6890134fd" target="_top" xlink:title="mozilla::layers::GetProgramTypeForSurfaceFormat">
<polygon fill="white" stroke="black" points="245.5,-0.5 245.5,-21.5 484.5,-21.5 484.5,-0.5 245.5,-0.5"/>
<text text-anchor="middle" x="365" y="-8.5" font-family="Helvetica,sans-Serif" font-size="10.00">mozilla::layers::GetProgramTypeForSurfaceFormat</text>
</a>
</g>
<!-- Node1&#45;&gt;Node3 -->
<g id="edge4" class="edge"><title>Node1&#45;&gt;Node3</title>
<path fill="none" stroke="midnightblue" d="M207.529,-23.0667C216.622,-22.37 225.898,-21.6592 235.169,-20.9487"/>
<polygon fill="midnightblue" stroke="midnightblue" points="235.516,-24.4325 245.219,-20.1786 234.981,-17.453 235.516,-24.4325"/>
</g>
</g>
</svg>
