<?xml version="1.0" encoding="UTF-8" standalone="no"?>
<!DOCTYPE svg PUBLIC "-//W3C//DTD SVG 1.1//EN"
 "http://www.w3.org/Graphics/SVG/1.1/DTD/svg11.dtd">
<!-- Generated by graphviz version 2.26.3 (20100126.1600)
 -->
<!-- Title: G Pages: 1 -->
<svg width="496pt" height="70pt"
 viewBox="0.00 0.00 496.00 70.00" xmlns="http://www.w3.org/2000/svg" xmlns:xlink="http://www.w3.org/1999/xlink">
<g id="graph1" class="graph" transform="scale(1 1) rotate(0) translate(4 66)">
<title>G</title>
<polygon fill="white" stroke="white" points="-4,5 -4,-66 493,-66 493,5 -4,5"/>
<!-- Node1 -->
<g id="node1" class="node"><title>Node1</title>
<polygon fill="#bfbfbf" stroke="black" points="0,-20.5 0,-41.5 182,-41.5 182,-20.5 0,-20.5"/>
<text text-anchor="middle" x="91" y="-28.5" font-family="Helvetica,sans-Serif" font-size="10.00">mozilla::MediaQueue::LockedForEach</text>
</g>
<!-- Node2 -->
<g id="node3" class="node"><title>Node2</title>
<a xlink:href="../../db/d28/classmozilla_1_1_media_decoder_reader.html#a5702cf502b4675f325462aff75aacdfa" target="_top" xlink:title="mozilla::MediaDecoderReader::AudioQueueMemoryInUse">
<polygon fill="white" stroke="black" points="218.5,-40.5 218.5,-61.5 487.5,-61.5 487.5,-40.5 218.5,-40.5"/>
<text text-anchor="middle" x="353" y="-48.5" font-family="Helvetica,sans-Serif" font-size="10.00">mozilla::MediaDecoderReader::AudioQueueMemoryInUse</text>
</a>
</g>
<!-- Node1&#45;&gt;Node2 -->
<g id="edge2" class="edge"><title>Node1&#45;&gt;Node2</title>
<path fill="none" stroke="midnightblue" d="M192.491,-38.7474C200.951,-39.3932 209.584,-40.0522 218.24,-40.713"/>
<polygon fill="midnightblue" stroke="midnightblue" points="192.505,-35.2383 182.267,-37.967 191.972,-42.218 192.505,-35.2383"/>
</g>
<!-- Node3 -->
<g id="node5" class="node"><title>Node3</title>
<a xlink:href="../../db/d28/classmozilla_1_1_media_decoder_reader.html#a1cfb7f68a0f62467ef4427155b6e3529" target="_top" xlink:title="mozilla::MediaDecoderReader::VideoQueueMemoryInUse">
<polygon fill="white" stroke="black" points="218.5,-0.5 218.5,-21.5 487.5,-21.5 487.5,-0.5 218.5,-0.5"/>
<text text-anchor="middle" x="353" y="-8.5" font-family="Helvetica,sans-Serif" font-size="10.00">mozilla::MediaDecoderReader::VideoQueueMemoryInUse</text>
</a>
</g>
<!-- Node1&#45;&gt;Node3 -->
<g id="edge4" class="edge"><title>Node1&#45;&gt;Node3</title>
<path fill="none" stroke="midnightblue" d="M192.491,-23.2526C200.951,-22.6068 209.584,-21.9478 218.24,-21.287"/>
<polygon fill="midnightblue" stroke="midnightblue" points="191.972,-19.782 182.267,-24.033 192.505,-26.7617 191.972,-19.782"/>
</g>
</g>
</svg>
