<?xml version="1.0" encoding="UTF-8" standalone="no"?>
<!DOCTYPE svg PUBLIC "-//W3C//DTD SVG 1.1//EN"
 "http://www.w3.org/Graphics/SVG/1.1/DTD/svg11.dtd">
<!-- Generated by graphviz version 2.26.3 (20100126.1600)
 -->
<!-- Title: G Pages: 1 -->
<!--zoomable 1040 -->
<svg id="main" version="1.1" xmlns="http://www.w3.org/2000/svg" xmlns:xlink="http://www.w3.org/1999/xlink" xml:space="preserve" onload="init(evt)">
        <defs>
                <circle id="rim" cx="0" cy="0" r="7"/>
                <circle id="rim2" cx="0" cy="0" r="3.5"/>
                <g id="zoomPlus">
                        <use xlink:href="#rim" fill="#404040">
                                <set attributeName="fill" to="#808080" begin="zoomplus.mouseover" end="zoomplus.mouseout"/>
                        </use>
                        <path d="M-4,0h8M0,-4v8" fill="none" stroke="white" stroke-width="1.5" pointer-events="none"/>
                </g>
                <g id="zoomMin">
                        <use xlink:href="#rim" fill="#404040">
                                <set attributeName="fill" to="#808080" begin="zoomminus.mouseover" end="zoomminus.mouseout"/>
                        </use>
                        <path d="M-4,0h8" fill="none" stroke="white" stroke-width="1.5" pointer-events="none"/>
                </g>
                <g id="dirArrow">
                        <path fill="none" stroke="white" stroke-width="1.5" d="M0,-3.0v7 M-2.5,-0.5L0,-3.0L2.5,-0.5"/>
                </g>
               <g id="resetDef">
                       <use xlink:href="#rim2" fill="#404040">
                               <set attributeName="fill" to="#808080" begin="reset.mouseover" end="reset.mouseout"/>
                       </use>
               </g>
        </defs>

<script type="text/javascript">
var viewWidth = 1996;
var viewHeight = 1040;
var sectionId = 'dynsection-1';
</script>
<script xlink:href="../../svgpan.js"/>
<svg id="graph" class="graph">
<g id="viewport">
<title>G</title>
<polygon fill="white" stroke="white" points="-4,5 -4,-1036 1993,-1036 1993,5 -4,5"/>
<!-- Node1 -->
<g id="node1" class="node"><title>Node1</title>
<polygon fill="#bfbfbf" stroke="black" points="268,-0.5 268,-21.5 392,-21.5 392,-0.5 268,-0.5"/>
<text text-anchor="middle" x="330" y="-8.5" font-family="Helvetica,sans-Serif" font-size="10.00">nsGenericHTMLElement</text>
</g>
<!-- Node2 -->
<g id="node2" class="node"><title>Node2</title>
<a xlink:href="../../d4/d3f/classns_mapped_attribute_element.html" target="_top" xlink:title="nsGenericHTMLElementBase">
<polygon fill="white" stroke="black" points="340,-60.5 340,-81.5 486,-81.5 486,-60.5 340,-60.5"/>
<text text-anchor="middle" x="413" y="-68.5" font-family="Helvetica,sans-Serif" font-size="10.00">nsGenericHTMLElementBase</text>
</a>
</g>
<!-- Node2&#45;&gt;Node1 -->
<g id="edge2" class="edge"><title>Node2&#45;&gt;Node1</title>
<path fill="none" stroke="midnightblue" d="M389.73,-54.1784C375.293,-43.7421 357.183,-30.6502 344.71,-21.6339"/>
<polygon fill="midnightblue" stroke="midnightblue" points="388.007,-57.2512 398.161,-60.2732 392.108,-51.5782 388.007,-57.2512"/>
</g>
<!-- Node3 -->
<g id="node4" class="node"><title>Node3</title>
<a xlink:href="../../d1/d80/classns_styled_element.html" target="_top" xlink:title="nsMappedAttributeElementBase">
<polygon fill="white" stroke="black" points="389.5,-120.5 389.5,-141.5 546.5,-141.5 546.5,-120.5 389.5,-120.5"/>
<text text-anchor="middle" x="468" y="-128.5" font-family="Helvetica,sans-Serif" font-size="10.00">nsMappedAttributeElementBase</text>
</a>
</g>
<!-- Node3&#45;&gt;Node2 -->
<g id="edge4" class="edge"><title>Node3&#45;&gt;Node2</title>
<path fill="none" stroke="midnightblue" d="M451.211,-112.685C441.89,-102.516 430.623,-90.2249 422.748,-81.6339"/>
<polygon fill="midnightblue" stroke="midnightblue" points="448.83,-115.267 458.167,-120.273 453.99,-110.537 448.83,-115.267"/>
</g>
<!-- Node4 -->
<g id="node6" class="node"><title>Node4</title>
<a xlink:href="../../dc/d07/classns_styled_element_not_element_c_s_s_inline_style.html" target="_top" xlink:title="nsStyledElementNotElementCSSInlineStyle">
<polygon fill="white" stroke="black" points="567.5,-182.5 567.5,-203.5 776.5,-203.5 776.5,-182.5 567.5,-182.5"/>
<text text-anchor="middle" x="672" y="-190.5" font-family="Helvetica,sans-Serif" font-size="10.00">nsStyledElementNotElementCSSInlineStyle</text>
</a>
</g>
<!-- Node4&#45;&gt;Node3 -->
<g id="edge6" class="edge"><title>Node4&#45;&gt;Node3</title>
<path fill="none" stroke="midnightblue" d="M627.742,-179.549C590.263,-168.158 537.272,-152.053 502.776,-141.569"/>
<polygon fill="midnightblue" stroke="midnightblue" points="626.809,-182.923 637.394,-182.483 628.844,-176.226 626.809,-182.923"/>
</g>
<!-- Node5 -->
<g id="node8" class="node"><title>Node5</title>
<a xlink:href="../../de/da4/classmozilla_1_1dom_1_1_element.html" target="_top" xlink:title="nsStyledElementBase">
<polygon fill="white" stroke="black" points="1243.5,-246.5 1243.5,-267.5 1356.5,-267.5 1356.5,-246.5 1243.5,-246.5"/>
<text text-anchor="middle" x="1300" y="-254.5" font-family="Helvetica,sans-Serif" font-size="10.00">nsStyledElementBase</text>
</a>
</g>
<!-- Node5&#45;&gt;Node4 -->
<g id="edge8" class="edge"><title>Node5&#45;&gt;Node4</title>
<path fill="none" stroke="midnightblue" d="M1233.18,-250.19C1123.56,-239.019 904.794,-216.724 775.157,-203.513"/>
<polygon fill="midnightblue" stroke="midnightblue" points="1233.14,-253.704 1243.44,-251.236 1233.85,-246.74 1233.14,-253.704"/>
</g>
<!-- Node6 -->
<g id="node10" class="node"><title>Node6</title>
<a xlink:href="../../df/da2/classmozilla_1_1dom_1_1_fragment_or_element.html" target="_top" xlink:title="mozilla::dom::FragmentOrElement">
<polygon fill="white" stroke="black" points="1360,-329.5 1360,-350.5 1526,-350.5 1526,-329.5 1360,-329.5"/>
<text text-anchor="middle" x="1443" y="-337.5" font-family="Helvetica,sans-Serif" font-size="10.00">mozilla::dom::FragmentOrElement</text>
</a>
</g>
<!-- Node6&#45;&gt;Node5 -->
<g id="edge10" class="edge"><title>Node6&#45;&gt;Node5</title>
<path fill="none" stroke="midnightblue" d="M1416.23,-324.46C1387.69,-307.895 1343.26,-282.11 1318.42,-267.689"/>
<polygon fill="midnightblue" stroke="midnightblue" points="1414.48,-327.495 1424.89,-329.488 1418,-321.441 1414.48,-327.495"/>
</g>
<!-- Node7 -->
<g id="node12" class="node"><title>Node7</title>
<a xlink:href="../../d7/d68/classns_i_content.html" target="_top" xlink:title="nsIContent">
<polygon fill="white" stroke="black" points="1303.5,-431.5 1303.5,-452.5 1368.5,-452.5 1368.5,-431.5 1303.5,-431.5"/>
<text text-anchor="middle" x="1336" y="-439.5" font-family="Helvetica,sans-Serif" font-size="10.00">nsIContent</text>
</a>
</g>
<!-- Node7&#45;&gt;Node6 -->
<g id="edge12" class="edge"><title>Node7&#45;&gt;Node6</title>
<path fill="none" stroke="midnightblue" d="M1354.55,-424.318C1376.84,-403.07 1413.52,-368.099 1431.85,-350.627"/>
<polygon fill="midnightblue" stroke="midnightblue" points="1351.87,-422.035 1347.05,-431.468 1356.7,-427.102 1351.87,-422.035"/>
</g>
<!-- Node8 -->
<g id="node14" class="node"><title>Node8</title>
<a xlink:href="../../d7/de8/classns_i_node.html" target="_top" xlink:title="nsINode">
<polygon fill="white" stroke="black" points="989.5,-246.5 989.5,-267.5 1042.5,-267.5 1042.5,-246.5 989.5,-246.5"/>
<text text-anchor="middle" x="1016" y="-254.5" font-family="Helvetica,sans-Serif" font-size="10.00">nsINode</text>
</a>
</g>
<!-- Node7&#45;&gt;Node8 -->
<g id="edge26" class="edge"><title>Node7&#45;&gt;Node8</title>
<path fill="none" stroke="#9a32cd" stroke-dasharray="5,2" d="M1314.95,-424.794C1308.65,-419.858 1301.65,-414.577 1295,-410 1208.62,-350.518 1186.84,-334.847 1093,-288 1076.75,-279.89 1057.85,-272.253 1042.83,-266.589"/>
<polygon fill="#9a32cd" stroke="#9a32cd" points="1313,-427.719 1323.01,-431.213 1317.37,-422.244 1313,-427.719"/>
<text text-anchor="middle" x="1260.5" y="-350.5" font-family="Helvetica,sans-Serif" font-size="10.00"> mPreviousSibling</text>
<text text-anchor="middle" x="1260.5" y="-337.5" font-family="Helvetica,sans-Serif" font-size="10.00">mFirstChild</text>
<text text-anchor="middle" x="1260.5" y="-324.5" font-family="Helvetica,sans-Serif" font-size="10.00">mNextSibling</text>
</g>
<!-- Node26 -->
<g id="node55" class="node"><title>Node26</title>
<a xlink:href="../../d7/d20/classns_i_frame.html" target="_top" xlink:title="nsIFrame">
<polygon fill="white" stroke="black" points="987,-329.5 987,-350.5 1045,-350.5 1045,-329.5 987,-329.5"/>
<text text-anchor="middle" x="1016" y="-337.5" font-family="Helvetica,sans-Serif" font-size="10.00">nsIFrame</text>
</a>
</g>
<!-- Node7&#45;&gt;Node26 -->
<g id="edge66" class="edge"><title>Node7&#45;&gt;Node26</title>
<path fill="none" stroke="#9a32cd" stroke-dasharray="5,2" d="M1317.83,-424.491C1311.14,-418.994 1303.19,-413.463 1295,-410 1241.28,-387.277 1219.95,-411.572 1165,-392 1153.73,-387.984 1152.93,-382.878 1142,-378 1109.97,-363.704 1071.05,-352.89 1045.02,-346.522"/>
<polygon fill="#9a32cd" stroke="#9a32cd" points="1315.72,-427.302 1325.55,-431.277 1320.35,-422.045 1315.72,-427.302"/>
<text text-anchor="middle" x="1188" y="-382.5" font-family="Helvetica,sans-Serif" font-size="10.00"> mContent</text>
</g>
<!-- Node8&#45;&gt;Node7 -->
<g id="edge14" class="edge"><title>Node8&#45;&gt;Node7</title>
<path fill="none" stroke="midnightblue" d="M1052.95,-259.376C1124.16,-264.805 1276.24,-280.815 1308,-320 1335.09,-353.428 1337.03,-408.128 1336.51,-431.198"/>
<polygon fill="midnightblue" stroke="midnightblue" points="1052.87,-255.861 1042.64,-258.621 1052.36,-262.842 1052.87,-255.861"/>
</g>
<!-- Node8&#45;&gt;Node8 -->
<g id="edge28" class="edge"><title>Node8&#45;&gt;Node8</title>
<path fill="none" stroke="#9a32cd" stroke-dasharray="5,2" d="M1052.68,-262.172C1057.1,-261.238 1060,-259.514 1060,-257 1060,-252.875 1052.2,-250.877 1042.64,-251.006"/>
<polygon fill="#9a32cd" stroke="#9a32cd" points="1052.32,-258.689 1042.64,-262.994 1052.89,-265.666 1052.32,-258.689"/>
<text text-anchor="middle" x="1093.5" y="-261" font-family="Helvetica,sans-Serif" font-size="10.00"> mSubtreeRoot</text>
<text text-anchor="middle" x="1093.5" y="-248" font-family="Helvetica,sans-Serif" font-size="10.00">mParent</text>
</g>
<!-- Node9 -->
<g id="node16" class="node"><title>Node9</title>
<a xlink:href="../../da/da8/classmozilla_1_1dom_1_1_event_target.html" target="_top" xlink:title="mozilla::dom::EventTarget">
<polygon fill="white" stroke="black" points="402.5,-329.5 402.5,-350.5 533.5,-350.5 533.5,-329.5 402.5,-329.5"/>
<text text-anchor="middle" x="468" y="-337.5" font-family="Helvetica,sans-Serif" font-size="10.00">mozilla::dom::EventTarget</text>
</a>
</g>
<!-- Node9&#45;&gt;Node8 -->
<g id="edge16" class="edge"><title>Node9&#45;&gt;Node8</title>
<path fill="none" stroke="midnightblue" d="M543.752,-328.527C667.991,-309.709 909.261,-273.167 989.403,-261.028"/>
<polygon fill="midnightblue" stroke="midnightblue" points="542.92,-325.113 533.557,-330.071 543.969,-332.034 542.92,-325.113"/>
</g>
<!-- Node10 -->
<g id="node18" class="node"><title>Node10</title>
<a xlink:href="../../d9/ddf/interfacens_i_d_o_m_event_target.html" target="_top" xlink:title="nsIDOMEventTarget">
<polygon fill="white" stroke="black" points="414.5,-431.5 414.5,-452.5 521.5,-452.5 521.5,-431.5 414.5,-431.5"/>
<text text-anchor="middle" x="468" y="-439.5" font-family="Helvetica,sans-Serif" font-size="10.00">nsIDOMEventTarget</text>
</a>
</g>
<!-- Node10&#45;&gt;Node9 -->
<g id="edge18" class="edge"><title>Node10&#45;&gt;Node9</title>
<path fill="none" stroke="midnightblue" d="M468,-421.446C468,-400.036 468,-367.333 468,-350.627"/>
<polygon fill="midnightblue" stroke="midnightblue" points="464.5,-421.468 468,-431.468 471.5,-421.468 464.5,-421.468"/>
</g>
<!-- Node11 -->
<g id="node20" class="node"><title>Node11</title>
<a xlink:href="../../d4/d6a/classns_i_supports.html" target="_top" xlink:title="nsISupports">
<polygon fill="white" stroke="black" points="226.5,-524.5 226.5,-545.5 295.5,-545.5 295.5,-524.5 226.5,-524.5"/>
<text text-anchor="middle" x="261" y="-532.5" font-family="Helvetica,sans-Serif" font-size="10.00">nsISupports</text>
</a>
</g>
<!-- Node11&#45;&gt;Node10 -->
<g id="edge22" class="edge"><title>Node11&#45;&gt;Node10</title>
<path fill="none" stroke="midnightblue" d="M290.569,-520.417C318.391,-508.522 360.706,-490.969 397,-474 411.375,-467.279 427.273,-459.057 440.577,-452.631"/>
<polygon fill="midnightblue" stroke="midnightblue" points="289.168,-517.209 281.366,-524.378 291.935,-523.639 289.168,-517.209"/>
</g>
<!-- Node11&#45;&gt;Node10 -->
<g id="edge20" class="edge"><title>Node11&#45;&gt;Node10</title>
<path fill="none" stroke="midnightblue" d="M304.081,-520.836C335.391,-508.936 378.277,-491.169 415,-474 429.265,-467.331 445.03,-459.183 455.915,-452.778"/>
<polygon fill="midnightblue" stroke="midnightblue" points="302.48,-517.698 294.345,-524.485 304.937,-524.253 302.48,-517.698"/>
</g>
<!-- Node42 -->
<g id="node93" class="node"><title>Node42</title>
<a xlink:href="../../dc/dcf/interfacens_i_atom.html" target="_top" xlink:title="nsIAtom">
<polygon fill="white" stroke="black" points="234.5,-431.5 234.5,-452.5 287.5,-452.5 287.5,-431.5 234.5,-431.5"/>
<text text-anchor="middle" x="261" y="-439.5" font-family="Helvetica,sans-Serif" font-size="10.00">nsIAtom</text>
</a>
</g>
<!-- Node11&#45;&gt;Node42 -->
<g id="edge106" class="edge"><title>Node11&#45;&gt;Node42</title>
<path fill="none" stroke="midnightblue" d="M255.266,-514.204C253.575,-495.07 253.995,-467.47 256.527,-452.544"/>
<polygon fill="midnightblue" stroke="midnightblue" points="251.817,-514.831 256.506,-524.332 258.765,-513.98 251.817,-514.831"/>
</g>
<!-- Node11&#45;&gt;Node42 -->
<g id="edge108" class="edge"><title>Node11&#45;&gt;Node42</title>
<path fill="none" stroke="midnightblue" d="M266.734,-514.204C268.425,-495.07 268.005,-467.47 265.473,-452.544"/>
<polygon fill="midnightblue" stroke="midnightblue" points="263.235,-513.98 265.494,-524.332 270.183,-514.831 263.235,-513.98"/>
</g>
<!-- Node12 -->
<g id="node23" class="node"><title>Node12</title>
<a xlink:href="../../d0/d7e/classns_wrapper_cache.html" target="_top" xlink:title="nsWrapperCache">
<polygon fill="white" stroke="black" points="305,-431.5 305,-452.5 397,-452.5 397,-431.5 305,-431.5"/>
<text text-anchor="middle" x="351" y="-439.5" font-family="Helvetica,sans-Serif" font-size="10.00">nsWrapperCache</text>
</a>
</g>
<!-- Node12&#45;&gt;Node9 -->
<g id="edge24" class="edge"><title>Node12&#45;&gt;Node9</title>
<path fill="none" stroke="midnightblue" d="M370.644,-424.874C394.95,-403.684 435.593,-368.252 455.81,-350.627"/>
<polygon fill="midnightblue" stroke="midnightblue" points="368.318,-422.259 363.08,-431.468 372.918,-427.535 368.318,-422.259"/>
</g>
<!-- Node13 -->
<g id="node27" class="node"><title>Node13</title>
<a xlink:href="../../d6/d39/classns_i_node_1_1ns_slots.html" target="_top" xlink:title="nsINode::nsSlots">
<polygon fill="white" stroke="black" points="752,-329.5 752,-350.5 844,-350.5 844,-329.5 752,-329.5"/>
<text text-anchor="middle" x="798" y="-337.5" font-family="Helvetica,sans-Serif" font-size="10.00">nsINode::nsSlots</text>
</a>
</g>
<!-- Node13&#45;&gt;Node8 -->
<g id="edge30" class="edge"><title>Node13&#45;&gt;Node8</title>
<path fill="none" stroke="#9a32cd" stroke-dasharray="5,2" d="M835.037,-325.899C878.82,-309.229 950.608,-281.897 989.296,-267.167"/>
<polygon fill="#9a32cd" stroke="#9a32cd" points="833.71,-322.659 825.61,-329.488 836.201,-329.201 833.71,-322.659"/>
<text text-anchor="middle" x="950" y="-292.5" font-family="Helvetica,sans-Serif" font-size="10.00"> mSlots</text>
</g>
<!-- Node14 -->
<g id="node29" class="node"><title>Node14</title>
<a xlink:href="../../d3/d4a/classns_t_observer_array.html" target="_top" xlink:title="nsTObserverArray\&lt; nsIMutationObserver * \&gt;">
<polygon fill="white" stroke="black" points="539,-431.5 539,-452.5 751,-452.5 751,-431.5 539,-431.5"/>
<text text-anchor="middle" x="645" y="-439.5" font-family="Helvetica,sans-Serif" font-size="10.00">nsTObserverArray&lt; nsIMutationObserver * &gt;</text>
</a>
</g>
<!-- Node14&#45;&gt;Node13 -->
<g id="edge32" class="edge"><title>Node14&#45;&gt;Node13</title>
<path fill="none" stroke="#9a32cd" stroke-dasharray="5,2" d="M658.062,-422.618C668.335,-408.619 683.76,-390.118 701,-378 718.46,-365.727 740.433,-356.695 759.049,-350.523"/>
<polygon fill="#9a32cd" stroke="#9a32cd" points="655.01,-420.871 652.087,-431.054 660.723,-424.916 655.01,-420.871"/>
<text text-anchor="middle" x="748" y="-382.5" font-family="Helvetica,sans-Serif" font-size="10.00"> mMutationObservers</text>
</g>
<!-- Node15 -->
<g id="node31" class="node"><title>Node15</title>
<a xlink:href="../../d6/d06/classns_auto_t_observer_array.html" target="_top" xlink:title="nsAutoTObserverArray\&lt; nsIMutationObserver *, 0 \&gt;">
<polygon fill="white" stroke="black" points="312.5,-524.5 312.5,-545.5 555.5,-545.5 555.5,-524.5 312.5,-524.5"/>
<text text-anchor="middle" x="434" y="-532.5" font-family="Helvetica,sans-Serif" font-size="10.00">nsAutoTObserverArray&lt; nsIMutationObserver *, 0 &gt;</text>
</a>
</g>
<!-- Node15&#45;&gt;Node14 -->
<g id="edge34" class="edge"><title>Node15&#45;&gt;Node14</title>
<path fill="none" stroke="midnightblue" d="M467.369,-520.292C510.186,-501.42 583.415,-469.144 621.078,-452.544"/>
<polygon fill="midnightblue" stroke="midnightblue" points="465.943,-517.096 458.204,-524.332 468.767,-523.501 465.943,-517.096"/>
</g>
<!-- Node16 -->
<g id="node33" class="node"><title>Node16</title>
<a xlink:href="../../d3/dbe/classns_t_observer_array__base.html" target="_top" xlink:title="nsTObserverArray_base">
<polygon fill="white" stroke="black" points="531,-686.5 531,-707.5 653,-707.5 653,-686.5 531,-686.5"/>
<text text-anchor="middle" x="592" y="-694.5" font-family="Helvetica,sans-Serif" font-size="10.00">nsTObserverArray_base</text>
</a>
</g>
<!-- Node16&#45;&gt;Node15 -->
<g id="edge36" class="edge"><title>Node16&#45;&gt;Node15</title>
<path fill="none" stroke="darkgreen" d="M574.472,-679.028C541.536,-645.258 471.321,-573.266 444.612,-545.881"/>
<polygon fill="darkgreen" stroke="darkgreen" points="572.145,-681.656 581.633,-686.371 577.157,-676.768 572.145,-681.656"/>
</g>
<!-- Node17 -->
<g id="node35" class="node"><title>Node17</title>
<a xlink:href="../../dc/d90/classns_t_observer_array__base_1_1_iterator__base.html" target="_top" xlink:title="nsTObserverArray_base::Iterator_base">
<polygon fill="white" stroke="black" points="512.5,-758.5 512.5,-779.5 697.5,-779.5 697.5,-758.5 512.5,-758.5"/>
<text text-anchor="middle" x="605" y="-766.5" font-family="Helvetica,sans-Serif" font-size="10.00">nsTObserverArray_base::Iterator_base</text>
</a>
</g>
<!-- Node17&#45;&gt;Node16 -->
<g id="edge38" class="edge"><title>Node17&#45;&gt;Node16</title>
<path fill="none" stroke="#9a32cd" stroke-dasharray="5,2" d="M601.251,-748.235C598.856,-734.969 595.849,-718.319 593.926,-707.667"/>
<polygon fill="#9a32cd" stroke="#9a32cd" points="597.861,-749.157 603.082,-758.376 604.749,-747.913 597.861,-749.157"/>
<text text-anchor="middle" x="624" y="-730.5" font-family="Helvetica,sans-Serif" font-size="10.00"> mIterators</text>
</g>
<!-- Node17&#45;&gt;Node17 -->
<g id="edge40" class="edge"><title>Node17&#45;&gt;Node17</title>
<path fill="none" stroke="#9a32cd" stroke-dasharray="5,2" d="M707.782,-772.469C712.341,-771.584 715,-770.428 715,-769 715,-766.715 708.192,-765.126 697.688,-764.233"/>
<polygon fill="#9a32cd" stroke="#9a32cd" points="707.16,-769.02 697.688,-773.767 708.053,-775.963 707.16,-769.02"/>
<text text-anchor="middle" x="731.5" y="-766.5" font-family="Helvetica,sans-Serif" font-size="10.00"> mNext</text>
</g>
<!-- Node18 -->
<g id="node38" class="node"><title>Node18</title>
<a xlink:href="../../d2/dcf/classns_auto_t_array.html" target="_top" xlink:title="nsAutoTArray\&lt; nsIMutationObserver *, N \&gt;">
<polygon fill="white" stroke="black" points="273,-686.5 273,-707.5 479,-707.5 479,-686.5 273,-686.5"/>
<text text-anchor="middle" x="376" y="-694.5" font-family="Helvetica,sans-Serif" font-size="10.00">nsAutoTArray&lt; nsIMutationObserver *, N &gt;</text>
</a>
</g>
<!-- Node18&#45;&gt;Node15 -->
<g id="edge42" class="edge"><title>Node18&#45;&gt;Node15</title>
<path fill="none" stroke="#9a32cd" stroke-dasharray="5,2" d="M383.218,-676.841C395.605,-642.24 420.507,-572.688 430.104,-545.881"/>
<polygon fill="#9a32cd" stroke="#9a32cd" points="379.881,-675.776 379.806,-686.371 386.472,-678.136 379.881,-675.776"/>
<text text-anchor="middle" x="440.5" y="-613.5" font-family="Helvetica,sans-Serif" font-size="10.00"> mArray</text>
</g>
<!-- Node19 -->
<g id="node40" class="node"><title>Node19</title>
<a xlink:href="../../d9/d56/classns_auto_array_base.html" target="_top" xlink:title="nsAutoArrayBase\&lt; nsTArray\&lt; nsIMutationObserver * \&gt;, N \&gt;">
<polygon fill="white" stroke="black" points="215,-758.5 215,-779.5 495,-779.5 495,-758.5 215,-758.5"/>
<text text-anchor="middle" x="355" y="-766.5" font-family="Helvetica,sans-Serif" font-size="10.00">nsAutoArrayBase&lt; nsTArray&lt; nsIMutationObserver * &gt;, N &gt;</text>
</a>
</g>
<!-- Node19&#45;&gt;Node18 -->
<g id="edge44" class="edge"><title>Node19&#45;&gt;Node18</title>
<path fill="none" stroke="midnightblue" d="M360.941,-748.632C364.828,-735.303 369.751,-718.425 372.889,-707.667"/>
<polygon fill="midnightblue" stroke="midnightblue" points="357.539,-747.796 358.099,-758.376 364.259,-749.756 357.539,-747.796"/>
</g>
<!-- Node20 -->
<g id="node42" class="node"><title>Node20</title>
<a xlink:href="../../d8/d6f/classns_t_array.html" target="_top" xlink:title="nsTArray\&lt; nsIMutationObserver * \&gt;">
<polygon fill="white" stroke="black" points="269,-818.5 269,-839.5 441,-839.5 441,-818.5 269,-818.5"/>
<text text-anchor="middle" x="355" y="-826.5" font-family="Helvetica,sans-Serif" font-size="10.00">nsTArray&lt; nsIMutationObserver * &gt;</text>
</a>
</g>
<!-- Node20&#45;&gt;Node19 -->
<g id="edge46" class="edge"><title>Node20&#45;&gt;Node19</title>
<path fill="none" stroke="midnightblue" d="M355,-808.231C355,-798.592 355,-787.544 355,-779.634"/>
<polygon fill="midnightblue" stroke="midnightblue" points="351.5,-808.273 355,-818.273 358.5,-808.273 351.5,-808.273"/>
</g>
<!-- Node21 -->
<g id="node44" class="node"><title>Node21</title>
<a xlink:href="../../d4/dd8/classns_t_array___impl.html" target="_top" xlink:title="nsTArray_Impl\&lt; nsIMutationObserver *, nsTArrayInfallibleAllocator \&gt;">
<polygon fill="white" stroke="black" points="197,-878.5 197,-899.5 513,-899.5 513,-878.5 197,-878.5"/>
<text text-anchor="middle" x="355" y="-886.5" font-family="Helvetica,sans-Serif" font-size="10.00">nsTArray_Impl&lt; nsIMutationObserver *, nsTArrayInfallibleAllocator &gt;</text>
</a>
</g>
<!-- Node21&#45;&gt;Node20 -->
<g id="edge48" class="edge"><title>Node21&#45;&gt;Node20</title>
<path fill="none" stroke="midnightblue" d="M355,-868.231C355,-858.592 355,-847.544 355,-839.634"/>
<polygon fill="midnightblue" stroke="midnightblue" points="351.5,-868.273 355,-878.273 358.5,-868.273 351.5,-868.273"/>
</g>
<!-- Node22 -->
<g id="node46" class="node"><title>Node22</title>
<a xlink:href="../../db/d9f/classns_t_array__base.html" target="_top" xlink:title="nsTArray_base\&lt; nsTArrayInfallibleAllocator, nsTArray_CopyElements\&lt; nsIMutationObserver * \&gt; \&gt;">
<polygon fill="white" stroke="black" points="0,-938.5 0,-959.5 446,-959.5 446,-938.5 0,-938.5"/>
<text text-anchor="middle" x="223" y="-946.5" font-family="Helvetica,sans-Serif" font-size="10.00">nsTArray_base&lt; nsTArrayInfallibleAllocator, nsTArray_CopyElements&lt; nsIMutationObserver * &gt; &gt;</text>
</a>
</g>
<!-- Node22&#45;&gt;Node21 -->
<g id="edge50" class="edge"><title>Node22&#45;&gt;Node21</title>
<path fill="none" stroke="midnightblue" d="M255.54,-934.209C279.083,-923.508 310.35,-909.296 331.494,-899.685"/>
<polygon fill="midnightblue" stroke="midnightblue" points="253.95,-931.087 246.295,-938.411 256.847,-937.46 253.95,-931.087"/>
</g>
<!-- Node23 -->
<g id="node48" class="node"><title>Node23</title>
<a xlink:href="../../dc/d5a/structns_t_array_header.html" target="_top" xlink:title="nsTArrayHeader">
<polygon fill="white" stroke="black" points="179,-1010.5 179,-1031.5 267,-1031.5 267,-1010.5 179,-1010.5"/>
<text text-anchor="middle" x="223" y="-1018.5" font-family="Helvetica,sans-Serif" font-size="10.00">nsTArrayHeader</text>
</a>
</g>
<!-- Node23&#45;&gt;Node22 -->
<g id="edge52" class="edge"><title>Node23&#45;&gt;Node22</title>
<path fill="none" stroke="#9a32cd" stroke-dasharray="5,2" d="M223,-1000.23C223,-986.969 223,-970.319 223,-959.667"/>
<polygon fill="#9a32cd" stroke="#9a32cd" points="219.5,-1000.38 223,-1010.38 226.5,-1000.38 219.5,-1000.38"/>
<text text-anchor="middle" x="237" y="-982.5" font-family="Helvetica,sans-Serif" font-size="10.00"> mHdr</text>
</g>
<!-- Node23&#45;&gt;Node23 -->
<g id="edge54" class="edge"><title>Node23&#45;&gt;Node23</title>
<path fill="none" stroke="#9a32cd" stroke-dasharray="5,2" d="M277.258,-1026.3C282.019,-1025.18 285,-1023.42 285,-1021 285,-1017.13 277.369,-1014.93 267.024,-1014.38"/>
<polygon fill="#9a32cd" stroke="#9a32cd" points="276.498,-1022.87 267.024,-1027.62 277.389,-1029.82 276.498,-1022.87"/>
<text text-anchor="middle" x="311.5" y="-1018.5" font-family="Helvetica,sans-Serif" font-size="10.00"> sEmptyHdr</text>
</g>
<!-- Node24 -->
<g id="node51" class="node"><title>Node24</title>
<a xlink:href="../../d7/dcf/structns_t_array___typed_base.html" target="_top" xlink:title="nsTArray_TypedBase\&lt; nsIMutationObserver *, nsTArray_Impl\&lt; nsIMutationObserver *, nsTArrayInfallibleAllocator \&gt; \&gt;">
<polygon fill="white" stroke="black" points="464,-938.5 464,-959.5 996,-959.5 996,-938.5 464,-938.5"/>
<text text-anchor="middle" x="730" y="-946.5" font-family="Helvetica,sans-Serif" font-size="10.00">nsTArray_TypedBase&lt; nsIMutationObserver *, nsTArray_Impl&lt; nsIMutationObserver *, nsTArrayInfallibleAllocator &gt; &gt;</text>
</a>
</g>
<!-- Node24&#45;&gt;Node21 -->
<g id="edge56" class="edge"><title>Node24&#45;&gt;Node21</title>
<path fill="none" stroke="midnightblue" d="M653.956,-936.833C585.449,-925.872 485.781,-909.925 420.674,-899.508"/>
<polygon fill="midnightblue" stroke="midnightblue" points="653.823,-940.356 664.251,-938.48 654.929,-933.444 653.823,-940.356"/>
</g>
<!-- Node25 -->
<g id="node53" class="node"><title>Node25</title>
<a xlink:href="../../db/d62/structns_t_array___safe_element_at_helper.html" target="_top" xlink:title="nsTArray_SafeElementAtHelper\&lt; nsIMutationObserver *, nsTArray_Impl\&lt; nsIMutationObserver *, nsTArrayInfallibleAllocator \&gt; \&gt;">
<polygon fill="white" stroke="black" points="441.5,-1010.5 441.5,-1031.5 1018.5,-1031.5 1018.5,-1010.5 441.5,-1010.5"/>
<text text-anchor="middle" x="730" y="-1018.5" font-family="Helvetica,sans-Serif" font-size="10.00">nsTArray_SafeElementAtHelper&lt; nsIMutationObserver *, nsTArray_Impl&lt; nsIMutationObserver *, nsTArrayInfallibleAllocator &gt; &gt;</text>
</a>
</g>
<!-- Node25&#45;&gt;Node24 -->
<g id="edge58" class="edge"><title>Node25&#45;&gt;Node24</title>
<path fill="none" stroke="midnightblue" d="M730,-1000.23C730,-986.969 730,-970.319 730,-959.667"/>
<polygon fill="midnightblue" stroke="midnightblue" points="726.5,-1000.38 730,-1010.38 733.5,-1000.38 726.5,-1000.38"/>
</g>
<!-- Node26&#45;&gt;Node8 -->
<g id="edge60" class="edge"><title>Node26&#45;&gt;Node8</title>
<path fill="none" stroke="#9a32cd" stroke-dasharray="5,2" d="M1016,-319.258C1016,-302.873 1016,-280.674 1016,-267.689"/>
<polygon fill="#9a32cd" stroke="#9a32cd" points="1012.5,-319.488 1016,-329.488 1019.5,-319.488 1012.5,-319.488"/>
<text text-anchor="middle" x="1052.5" y="-292.5" font-family="Helvetica,sans-Serif" font-size="10.00"> mPrimaryFrame</text>
</g>
<!-- Node26&#45;&gt;Node26 -->
<g id="edge100" class="edge"><title>Node26&#45;&gt;Node26</title>
<path fill="none" stroke="#9a32cd" stroke-dasharray="5,2" d="M1055.6,-346.991C1060.09,-345.682 1063,-343.352 1063,-340 1063,-334.5 1055.17,-331.75 1045.38,-331.75"/>
<polygon fill="#9a32cd" stroke="#9a32cd" points="1054.87,-343.555 1045.38,-348.25 1055.73,-350.502 1054.87,-343.555"/>
<text text-anchor="middle" x="1083" y="-337.5" font-family="Helvetica,sans-Serif" font-size="10.00"> mParent</text>
</g>
<!-- Node27 -->
<g id="node57" class="node"><title>Node27</title>
<a xlink:href="../../dd/d10/classns_query_frame.html" target="_top" xlink:title="nsQueryFrame">
<polygon fill="white" stroke="black" points="768.5,-431.5 768.5,-452.5 849.5,-452.5 849.5,-431.5 768.5,-431.5"/>
<text text-anchor="middle" x="809" y="-439.5" font-family="Helvetica,sans-Serif" font-size="10.00">nsQueryFrame</text>
</a>
</g>
<!-- Node27&#45;&gt;Node26 -->
<g id="edge62" class="edge"><title>Node27&#45;&gt;Node26</title>
<path fill="none" stroke="midnightblue" d="M832.476,-425.567C840.414,-420.311 849.438,-414.653 858,-410 902.287,-385.933 956.492,-363.308 988.525,-350.596"/>
<polygon fill="midnightblue" stroke="midnightblue" points="830.383,-422.758 824.058,-431.257 834.303,-428.557 830.383,-422.758"/>
</g>
<!-- Node28 -->
<g id="node59" class="node"><title>Node28</title>
<a xlink:href="../../d1/dee/structns_i_frame_1_1_visual_deltas.html" target="_top" xlink:title="nsIFrame::VisualDeltas">
<polygon fill="white" stroke="black" points="866.5,-431.5 866.5,-452.5 985.5,-452.5 985.5,-431.5 866.5,-431.5"/>
<text text-anchor="middle" x="926" y="-439.5" font-family="Helvetica,sans-Serif" font-size="10.00">nsIFrame::VisualDeltas</text>
</a>
</g>
<!-- Node28&#45;&gt;Node26 -->
<g id="edge64" class="edge"><title>Node28&#45;&gt;Node26</title>
<path fill="none" stroke="#9a32cd" stroke-dasharray="5,2" d="M928.048,-421.031C930.304,-407.5 935.044,-390.212 945,-378 955.778,-364.78 972.408,-355.53 986.865,-349.469"/>
<polygon fill="#9a32cd" stroke="#9a32cd" points="924.529,-420.944 926.677,-431.319 931.467,-421.869 924.529,-420.944"/>
<text text-anchor="middle" x="978.5" y="-382.5" font-family="Helvetica,sans-Serif" font-size="10.00"> mVisualDeltas</text>
</g>
<!-- Node29 -->
<g id="node62" class="node"><title>Node29</title>
<a xlink:href="../../da/d97/structns_rect.html" target="_top" xlink:title="nsRect">
<polygon fill="white" stroke="black" points="1003,-431.5 1003,-452.5 1051,-452.5 1051,-431.5 1003,-431.5"/>
<text text-anchor="middle" x="1027" y="-439.5" font-family="Helvetica,sans-Serif" font-size="10.00">nsRect</text>
</a>
</g>
<!-- Node29&#45;&gt;Node26 -->
<g id="edge68" class="edge"><title>Node29&#45;&gt;Node26</title>
<path fill="none" stroke="#9a32cd" stroke-dasharray="5,2" d="M1022.03,-421.428C1020.08,-412.448 1018.06,-401.76 1017,-392 1015.46,-377.817 1015.44,-361.333 1015.65,-350.791"/>
<polygon fill="#9a32cd" stroke="#9a32cd" points="1018.66,-422.389 1024.3,-431.357 1025.48,-420.828 1018.66,-422.389"/>
<text text-anchor="middle" x="1033.5" y="-382.5" font-family="Helvetica,sans-Serif" font-size="10.00"> mRect</text>
</g>
<!-- Node30 -->
<g id="node64" class="node"><title>Node30</title>
<a xlink:href="../../dc/db8/structmozilla_1_1gfx_1_1_base_rect.html" target="_top" xlink:title="mozilla::gfx::BaseRect\&lt; nscoord, nsRect, nsPoint, nsSize, nsMargin \&gt;">
<polygon fill="white" stroke="black" points="572.5,-524.5 572.5,-545.5 899.5,-545.5 899.5,-524.5 572.5,-524.5"/>
<text text-anchor="middle" x="736" y="-532.5" font-family="Helvetica,sans-Serif" font-size="10.00">mozilla::gfx::BaseRect&lt; nscoord, nsRect, nsPoint, nsSize, nsMargin &gt;</text>
</a>
</g>
<!-- Node30&#45;&gt;Node29 -->
<g id="edge70" class="edge"><title>Node30&#45;&gt;Node29</title>
<path fill="none" stroke="midnightblue" d="M844.027,-522.705C892.115,-513.972 948.116,-499.132 994,-474 1003.66,-468.71 1012.49,-459.824 1018.59,-452.757"/>
<polygon fill="midnightblue" stroke="midnightblue" points="843.14,-519.307 833.892,-524.477 844.346,-526.202 843.14,-519.307"/>
</g>
<!-- Node31 -->
<g id="node66" class="node"><title>Node31</title>
<a xlink:href="../../db/d89/classns_style_context.html" target="_top" xlink:title="nsStyleContext">
<polygon fill="white" stroke="black" points="1121,-431.5 1121,-452.5 1205,-452.5 1205,-431.5 1121,-431.5"/>
<text text-anchor="middle" x="1163" y="-439.5" font-family="Helvetica,sans-Serif" font-size="10.00">nsStyleContext</text>
</a>
</g>
<!-- Node31&#45;&gt;Node26 -->
<g id="edge72" class="edge"><title>Node31&#45;&gt;Node26</title>
<path fill="none" stroke="#9a32cd" stroke-dasharray="5,2" d="M1131.33,-426.707C1113.57,-417.575 1091.37,-405.206 1073,-392 1055.38,-379.333 1037.24,-361.874 1026.29,-350.761"/>
<polygon fill="#9a32cd" stroke="#9a32cd" points="1130.18,-430.048 1140.68,-431.432 1133.34,-423.799 1130.18,-430.048"/>
<text text-anchor="middle" x="1107.5" y="-382.5" font-family="Helvetica,sans-Serif" font-size="10.00"> mStyleContext</text>
</g>
<!-- Node31&#45;&gt;Node31 -->
<g id="edge98" class="edge"><title>Node31&#45;&gt;Node31</title>
<path fill="none" stroke="#9a32cd" stroke-dasharray="5,2" d="M1214.89,-450.472C1219.86,-448.748 1223,-445.924 1223,-442 1223,-435.875 1215.34,-432.43 1205.06,-431.664"/>
<polygon fill="#9a32cd" stroke="#9a32cd" points="1214.23,-447.036 1205.06,-452.336 1215.53,-453.914 1214.23,-447.036"/>
<text text-anchor="middle" x="1254.5" y="-465.5" font-family="Helvetica,sans-Serif" font-size="10.00"> mEmptyChild</text>
<text text-anchor="middle" x="1254.5" y="-452.5" font-family="Helvetica,sans-Serif" font-size="10.00">mChild</text>
<text text-anchor="middle" x="1254.5" y="-439.5" font-family="Helvetica,sans-Serif" font-size="10.00">mPrevSibling</text>
<text text-anchor="middle" x="1254.5" y="-426.5" font-family="Helvetica,sans-Serif" font-size="10.00">mParent</text>
<text text-anchor="middle" x="1254.5" y="-413.5" font-family="Helvetica,sans-Serif" font-size="10.00">mNextSibling</text>
</g>
<!-- Node32 -->
<g id="node68" class="node"><title>Node32</title>
<a xlink:href="../../dc/d1e/classns_rule_node.html" target="_top" xlink:title="nsRuleNode">
<polygon fill="white" stroke="black" points="1192.5,-524.5 1192.5,-545.5 1263.5,-545.5 1263.5,-524.5 1192.5,-524.5"/>
<text text-anchor="middle" x="1228" y="-532.5" font-family="Helvetica,sans-Serif" font-size="10.00">nsRuleNode</text>
</a>
</g>
<!-- Node32&#45;&gt;Node31 -->
<g id="edge74" class="edge"><title>Node32&#45;&gt;Node31</title>
<path fill="none" stroke="#9a32cd" stroke-dasharray="5,2" d="M1214.76,-516.054C1201.36,-496.89 1181.14,-467.958 1170.37,-452.544"/>
<polygon fill="#9a32cd" stroke="#9a32cd" points="1211.95,-518.14 1220.54,-524.332 1217.68,-514.13 1211.95,-518.14"/>
<text text-anchor="middle" x="1233.5" y="-496.5" font-family="Helvetica,sans-Serif" font-size="10.00"> mRuleNode</text>
</g>
<!-- Node32&#45;&gt;Node32 -->
<g id="edge82" class="edge"><title>Node32&#45;&gt;Node32</title>
<path fill="none" stroke="#9a32cd" stroke-dasharray="5,2" d="M1273.81,-540.454C1278.21,-539.346 1281,-537.528 1281,-535 1281,-530.852 1273.49,-528.615 1263.67,-528.291"/>
<polygon fill="#9a32cd" stroke="#9a32cd" points="1273.16,-537.007 1263.67,-541.709 1274.02,-543.954 1273.16,-537.007"/>
<text text-anchor="middle" x="1296" y="-532.5" font-family="Helvetica,sans-Serif" font-size="10.00"> asList</text>
</g>
<!-- Node33 -->
<g id="node70" class="node"><title>Node33</title>
<a xlink:href="../../d9/d33/struct_p_l_d_hash_table.html" target="_top" xlink:title="PLDHashTable">
<polygon fill="white" stroke="black" points="967.5,-686.5 967.5,-707.5 1050.5,-707.5 1050.5,-686.5 967.5,-686.5"/>
<text text-anchor="middle" x="1009" y="-694.5" font-family="Helvetica,sans-Serif" font-size="10.00">PLDHashTable</text>
</a>
</g>
<!-- Node33&#45;&gt;Node32 -->
<g id="edge76" class="edge"><title>Node33&#45;&gt;Node32</title>
<path fill="none" stroke="#9a32cd" stroke-dasharray="5,2" d="M1039.57,-681.458C1047.06,-677.331 1054.94,-672.705 1062,-668 1123.14,-627.232 1189.54,-569.478 1216.07,-545.781"/>
<polygon fill="#9a32cd" stroke="#9a32cd" points="1037.54,-678.573 1030.39,-686.388 1040.86,-684.74 1037.54,-678.573"/>
<text text-anchor="middle" x="1210.5" y="-613.5" font-family="Helvetica,sans-Serif" font-size="10.00"> asHash</text>
</g>
<!-- Node34 -->
<g id="node72" class="node"><title>Node34</title>
<a xlink:href="../../dc/d8f/struct_p_l_d_hash_table_ops.html" target="_top" xlink:title="PLDHashTableOps">
<polygon fill="white" stroke="black" points="916.5,-524.5 916.5,-545.5 1017.5,-545.5 1017.5,-524.5 916.5,-524.5"/>
<text text-anchor="middle" x="967" y="-532.5" font-family="Helvetica,sans-Serif" font-size="10.00">PLDHashTableOps</text>
</a>
</g>
<!-- Node33&#45;&gt;Node34 -->
<g id="edge80" class="edge"><title>Node33&#45;&gt;Node34</title>
<path fill="none" stroke="#9a32cd" stroke-dasharray="5,2" d="M1008.35,-676.079C1006.89,-649.22 1002.18,-601.597 987,-564 984.343,-557.422 979.988,-550.851 976.018,-545.631"/>
<polygon fill="#9a32cd" stroke="#9a32cd" points="1004.86,-676.393 1008.8,-686.229 1011.85,-676.085 1004.86,-676.393"/>
<text text-anchor="middle" x="1032.5" y="-659" font-family="Helvetica,sans-Serif" font-size="10.00"> finalize</text>
<text text-anchor="middle" x="1032.5" y="-646" font-family="Helvetica,sans-Serif" font-size="10.00">clearEntry</text>
<text text-anchor="middle" x="1032.5" y="-633" font-family="Helvetica,sans-Serif" font-size="10.00">hashKey</text>
<text text-anchor="middle" x="1032.5" y="-620" font-family="Helvetica,sans-Serif" font-size="10.00">moveEntry</text>
<text text-anchor="middle" x="1032.5" y="-607" font-family="Helvetica,sans-Serif" font-size="10.00">initEntry</text>
<text text-anchor="middle" x="1032.5" y="-594" font-family="Helvetica,sans-Serif" font-size="10.00">allocTable</text>
<text text-anchor="middle" x="1032.5" y="-581" font-family="Helvetica,sans-Serif" font-size="10.00">freeTable</text>
<text text-anchor="middle" x="1032.5" y="-568" font-family="Helvetica,sans-Serif" font-size="10.00">matchEntry</text>
</g>
<!-- Node34&#45;&gt;Node33 -->
<g id="edge78" class="edge"><title>Node34&#45;&gt;Node33</title>
<path fill="none" stroke="#9a32cd" stroke-dasharray="5,2" d="M961.608,-555.808C955.687,-583.238 949.302,-632.202 968,-668 972.037,-675.728 979.176,-681.844 986.377,-686.427"/>
<polygon fill="#9a32cd" stroke="#9a32cd" points="965.083,-556.322 963.963,-545.787 958.268,-554.721 965.083,-556.322"/>
<text text-anchor="middle" x="977.5" y="-613.5" font-family="Helvetica,sans-Serif" font-size="10.00"> ops</text>
</g>
<!-- Node35 -->
<g id="node76" class="node"><title>Node35</title>
<a xlink:href="../../d7/dbf/structns_inherited_style_data.html" target="_top" xlink:title="nsInheritedStyleData">
<polygon fill="white" stroke="black" points="1329,-524.5 1329,-545.5 1437,-545.5 1437,-524.5 1329,-524.5"/>
<text text-anchor="middle" x="1383" y="-532.5" font-family="Helvetica,sans-Serif" font-size="10.00">nsInheritedStyleData</text>
</a>
</g>
<!-- Node35&#45;&gt;Node31 -->
<g id="edge84" class="edge"><title>Node35&#45;&gt;Node31</title>
<path fill="none" stroke="#9a32cd" stroke-dasharray="5,2" d="M1348.49,-520.411C1303.89,-501.556 1227.29,-469.179 1187.94,-452.544"/>
<polygon fill="#9a32cd" stroke="#9a32cd" points="1347.19,-523.662 1357.76,-524.332 1349.92,-517.214 1347.19,-523.662"/>
<text text-anchor="middle" x="1363" y="-496.5" font-family="Helvetica,sans-Serif" font-size="10.00"> mCachedInheritedData</text>
</g>
<!-- Node36 -->
<g id="node78" class="node"><title>Node36</title>
<a xlink:href="../../de/dfc/class_fixed_style_struct_array.html" target="_top" xlink:title="FixedStyleStructArray\&lt; nsStyleStructID_Inherited_Start, nsStyleStructID_Inherited_Count \&gt;">
<polygon fill="white" stroke="black" points="1155.5,-686.5 1155.5,-707.5 1574.5,-707.5 1574.5,-686.5 1155.5,-686.5"/>
<text text-anchor="middle" x="1365" y="-694.5" font-family="Helvetica,sans-Serif" font-size="10.00">FixedStyleStructArray&lt; nsStyleStructID_Inherited_Start, nsStyleStructID_Inherited_Count &gt;</text>
</a>
</g>
<!-- Node36&#45;&gt;Node35 -->
<g id="edge86" class="edge"><title>Node36&#45;&gt;Node35</title>
<path fill="none" stroke="#9a32cd" stroke-dasharray="5,2" d="M1367.29,-676.391C1371.15,-641.641 1378.83,-572.573 1381.79,-545.881"/>
<polygon fill="#9a32cd" stroke="#9a32cd" points="1363.81,-676.045 1366.18,-686.371 1370.76,-676.818 1363.81,-676.045"/>
<text text-anchor="middle" x="1412" y="-613.5" font-family="Helvetica,sans-Serif" font-size="10.00"> mStyleStructs</text>
</g>
<!-- Node37 -->
<g id="node80" class="node"><title>Node37</title>
<a xlink:href="../../df/ddf/structns_style_context_1_1_allocation_header.html" target="_top" xlink:title="nsStyleContext::AllocationHeader">
<polygon fill="white" stroke="black" points="1455,-524.5 1455,-545.5 1619,-545.5 1619,-524.5 1455,-524.5"/>
<text text-anchor="middle" x="1537" y="-532.5" font-family="Helvetica,sans-Serif" font-size="10.00">nsStyleContext::AllocationHeader</text>
</a>
</g>
<!-- Node37&#45;&gt;Node31 -->
<g id="edge88" class="edge"><title>Node37&#45;&gt;Node31</title>
<path fill="none" stroke="#9a32cd" stroke-dasharray="5,2" d="M1503.18,-520.572C1479.9,-511.164 1448.05,-499.318 1419,-492 1365,-478.395 1349.68,-484.572 1295,-474 1263.63,-467.934 1228.49,-459.325 1202.35,-452.564"/>
<polygon fill="#9a32cd" stroke="#9a32cd" points="1502.02,-523.879 1512.6,-524.434 1504.68,-517.402 1502.02,-523.879"/>
<text text-anchor="middle" x="1491" y="-496.5" font-family="Helvetica,sans-Serif" font-size="10.00"> mAllocations</text>
</g>
<!-- Node37&#45;&gt;Node37 -->
<g id="edge90" class="edge"><title>Node37&#45;&gt;Node37</title>
<path fill="none" stroke="#9a32cd" stroke-dasharray="5,2" d="M1629.62,-539.363C1634.26,-538.278 1637,-536.824 1637,-535 1637,-532.082 1629.99,-530.11 1619.38,-529.084"/>
<polygon fill="#9a32cd" stroke="#9a32cd" points="1628.75,-535.955 1619.38,-540.916 1629.8,-542.876 1628.75,-535.955"/>
<text text-anchor="middle" x="1653.5" y="-532.5" font-family="Helvetica,sans-Serif" font-size="10.00"> mNext</text>
</g>
<!-- Node38 -->
<g id="node83" class="node"><title>Node38</title>
<a xlink:href="../../d1/d37/structns_reset_style_data.html" target="_top" xlink:title="nsResetStyleData">
<polygon fill="white" stroke="black" points="1723.5,-524.5 1723.5,-545.5 1820.5,-545.5 1820.5,-524.5 1723.5,-524.5"/>
<text text-anchor="middle" x="1772" y="-532.5" font-family="Helvetica,sans-Serif" font-size="10.00">nsResetStyleData</text>
</a>
</g>
<!-- Node38&#45;&gt;Node31 -->
<g id="edge92" class="edge"><title>Node38&#45;&gt;Node31</title>
<path fill="none" stroke="#9a32cd" stroke-dasharray="5,2" d="M1713.5,-523.213C1663.6,-513.544 1589.85,-500.164 1525,-492 1423.27,-479.193 1396.26,-490.13 1295,-474 1262.4,-468.807 1225.98,-459.723 1199.66,-452.558"/>
<polygon fill="#9a32cd" stroke="#9a32cd" points="1712.98,-526.677 1723.46,-525.156 1714.32,-519.806 1712.98,-526.677"/>
<text text-anchor="middle" x="1659.5" y="-496.5" font-family="Helvetica,sans-Serif" font-size="10.00"> mCachedResetData</text>
</g>
<!-- Node39 -->
<g id="node85" class="node"><title>Node39</title>
<a xlink:href="../../de/dfc/class_fixed_style_struct_array.html" target="_top" xlink:title="FixedStyleStructArray\&lt; nsStyleStructID_Reset_Start, nsStyleStructID_Reset_Count \&gt;">
<polygon fill="white" stroke="black" points="1591.5,-686.5 1591.5,-707.5 1988.5,-707.5 1988.5,-686.5 1591.5,-686.5"/>
<text text-anchor="middle" x="1790" y="-694.5" font-family="Helvetica,sans-Serif" font-size="10.00">FixedStyleStructArray&lt; nsStyleStructID_Reset_Start, nsStyleStructID_Reset_Count &gt;</text>
</a>
</g>
<!-- Node39&#45;&gt;Node38 -->
<g id="edge94" class="edge"><title>Node39&#45;&gt;Node38</title>
<path fill="none" stroke="#9a32cd" stroke-dasharray="5,2" d="M1787.71,-676.391C1783.85,-641.641 1776.17,-572.573 1773.21,-545.881"/>
<polygon fill="#9a32cd" stroke="#9a32cd" points="1784.24,-676.818 1788.82,-686.371 1791.19,-676.045 1784.24,-676.818"/>
<text text-anchor="middle" x="1819" y="-613.5" font-family="Helvetica,sans-Serif" font-size="10.00"> mStyleStructs</text>
</g>
<!-- Node40 -->
<g id="node87" class="node"><title>Node40</title>
<a xlink:href="../../d0/d01/classns_ref_ptr.html" target="_top" xlink:title="nsRefPtr\&lt; nsStyleContext \&gt;">
<polygon fill="white" stroke="black" points="1034.5,-524.5 1034.5,-545.5 1175.5,-545.5 1175.5,-524.5 1034.5,-524.5"/>
<text text-anchor="middle" x="1105" y="-532.5" font-family="Helvetica,sans-Serif" font-size="10.00">nsRefPtr&lt; nsStyleContext &gt;</text>
</a>
</g>
<!-- Node40&#45;&gt;Node31 -->
<g id="edge96" class="edge"><title>Node40&#45;&gt;Node31</title>
<path fill="none" stroke="#9a32cd" stroke-dasharray="5,2" d="M1110.97,-514.651C1113.54,-507.265 1116.91,-499.017 1121,-492 1129.67,-477.11 1142.85,-462.275 1152.13,-452.679"/>
<polygon fill="#9a32cd" stroke="#9a32cd" points="1107.6,-513.707 1107.86,-524.299 1114.26,-515.851 1107.6,-513.707"/>
<text text-anchor="middle" x="1156" y="-496.5" font-family="Helvetica,sans-Serif" font-size="10.00"> mStyleIfVisited</text>
</g>
<!-- Node41 -->
<g id="node91" class="node"><title>Node41</title>
<a xlink:href="../../dc/d0a/classns_attr_and_child_array.html" target="_top" xlink:title="nsAttrAndChildArray">
<polygon fill="white" stroke="black" points="1390,-431.5 1390,-452.5 1496,-452.5 1496,-431.5 1390,-431.5"/>
<text text-anchor="middle" x="1443" y="-439.5" font-family="Helvetica,sans-Serif" font-size="10.00">nsAttrAndChildArray</text>
</a>
</g>
<!-- Node41&#45;&gt;Node6 -->
<g id="edge102" class="edge"><title>Node41&#45;&gt;Node6</title>
<path fill="none" stroke="#9a32cd" stroke-dasharray="5,2" d="M1443,-421.446C1443,-400.036 1443,-367.333 1443,-350.627"/>
<polygon fill="#9a32cd" stroke="#9a32cd" points="1439.5,-421.468 1443,-431.468 1446.5,-421.468 1439.5,-421.468"/>
<text text-anchor="middle" x="1486" y="-382.5" font-family="Helvetica,sans-Serif" font-size="10.00"> mAttrsAndChildren</text>
</g>
<!-- Node42&#45;&gt;Node1 -->
<g id="edge104" class="edge"><title>Node42&#45;&gt;Node1</title>
<path fill="none" stroke="#9a32cd" stroke-dasharray="5,2" d="M271.446,-422.279C281.114,-402.167 294,-369.774 294,-340 294,-340 294,-340 294,-71 294,-51.5635 308.062,-32.9851 318.609,-21.7846"/>
<polygon fill="#9a32cd" stroke="#9a32cd" points="268.252,-420.842 266.9,-431.35 274.51,-423.978 268.252,-420.842"/>
<text text-anchor="middle" x="317.5" y="-197" font-family="Helvetica,sans-Serif" font-size="10.00"> aBaseAttr</text>
<text text-anchor="middle" x="317.5" y="-184" font-family="Helvetica,sans-Serif" font-size="10.00">const</text>
</g>
</g>
</svg>
        <g id="navigator" transform="translate(0 0)" fill="#404254">
                <rect fill="#f2f5e9" fill-opacity="0.5" stroke="#606060" stroke-width=".5" x="0" y="0" width="60" height="60"/>
                <use id="zoomplus" xlink:href="#zoomPlus" x="17" y="9" onmousedown="handleZoom(evt,'in')"/>
                <use id="zoomminus" xlink:href="#zoomMin" x="42" y="9" onmousedown="handleZoom(evt,'out')"/>
                <use id="reset" xlink:href="#resetDef" x="30" y="36" onmousedown="handleReset()"/>
                <g id="arrowUp" xlink:href="#dirArrow" transform="translate(30 24)" onmousedown="handlePan(0,-1)">
                  <use xlink:href="#rim" fill="#404040">
                        <set attributeName="fill" to="#808080" begin="arrowUp.mouseover" end="arrowUp.mouseout"/>
                  </use>
                  <path fill="none" stroke="white" stroke-width="1.5" d="M0,-3.0v7 M-2.5,-0.5L0,-3.0L2.5,-0.5"/>
                </g>
                <g id="arrowRight" xlink:href="#dirArrow" transform="rotate(90) translate(36 -43)" onmousedown="handlePan(1,0)">
                  <use xlink:href="#rim" fill="#404040">
                        <set attributeName="fill" to="#808080" begin="arrowRight.mouseover" end="arrowRight.mouseout"/>
                  </use>
                  <path fill="none" stroke="white" stroke-width="1.5" d="M0,-3.0v7 M-2.5,-0.5L0,-3.0L2.5,-0.5"/>
                </g>
                <g id="arrowDown" xlink:href="#dirArrow" transform="rotate(180) translate(-30 -48)" onmousedown="handlePan(0,1)">
                  <use xlink:href="#rim" fill="#404040">
                        <set attributeName="fill" to="#808080" begin="arrowDown.mouseover" end="arrowDown.mouseout"/>
                  </use>
                  <path fill="none" stroke="white" stroke-width="1.5" d="M0,-3.0v7 M-2.5,-0.5L0,-3.0L2.5,-0.5"/>
                </g>
                <g id="arrowLeft" xlink:href="#dirArrow" transform="rotate(270) translate(-36 17)" onmousedown="handlePan(-1,0)">
                  <use xlink:href="#rim" fill="#404040">
                        <set attributeName="fill" to="#808080" begin="arrowLeft.mouseover" end="arrowLeft.mouseout"/>
                  </use>
                  <path fill="none" stroke="white" stroke-width="1.5" d="M0,-3.0v7 M-2.5,-0.5L0,-3.0L2.5,-0.5"/>
                </g>
        </g>
</svg>
