<?xml version="1.0" encoding="UTF-8" standalone="no"?>
<!DOCTYPE svg PUBLIC "-//W3C//DTD SVG 1.1//EN"
 "http://www.w3.org/Graphics/SVG/1.1/DTD/svg11.dtd">
<!-- Generated by graphviz version 2.26.3 (20100126.1600)
 -->
<!-- Title: G Pages: 1 -->
<!--zoomable 176 -->
<svg id="main" version="1.1" xmlns="http://www.w3.org/2000/svg" xmlns:xlink="http://www.w3.org/1999/xlink" xml:space="preserve" onload="init(evt)">
        <defs>
                <circle id="rim" cx="0" cy="0" r="7"/>
                <circle id="rim2" cx="0" cy="0" r="3.5"/>
                <g id="zoomPlus">
                        <use xlink:href="#rim" fill="#404040">
                                <set attributeName="fill" to="#808080" begin="zoomplus.mouseover" end="zoomplus.mouseout"/>
                        </use>
                        <path d="M-4,0h8M0,-4v8" fill="none" stroke="white" stroke-width="1.5" pointer-events="none"/>
                </g>
                <g id="zoomMin">
                        <use xlink:href="#rim" fill="#404040">
                                <set attributeName="fill" to="#808080" begin="zoomminus.mouseover" end="zoomminus.mouseout"/>
                        </use>
                        <path d="M-4,0h8" fill="none" stroke="white" stroke-width="1.5" pointer-events="none"/>
                </g>
                <g id="dirArrow">
                        <path fill="none" stroke="white" stroke-width="1.5" d="M0,-3.0v7 M-2.5,-0.5L0,-3.0L2.5,-0.5"/>
                </g>
               <g id="resetDef">
                       <use xlink:href="#rim2" fill="#404040">
                               <set attributeName="fill" to="#808080" begin="reset.mouseover" end="reset.mouseout"/>
                       </use>
               </g>
        </defs>

<script type="text/javascript">
var viewWidth = 870;
var viewHeight = 176;
var sectionId = 'dynsection-46';
</script>
<script xlink:href="../../svgpan.js"/>
<svg id="graph" class="graph">
<g id="viewport">
<title>G</title>
<polygon fill="white" stroke="white" points="-4,5 -4,-172 867,-172 867,5 -4,5"/>
<!-- Node1 -->
<g id="node1" class="node"><title>Node1</title>
<polygon fill="#bfbfbf" stroke="black" points="0,-107.5 0,-128.5 186,-128.5 186,-107.5 0,-107.5"/>
<text text-anchor="middle" x="93" y="-115.5" font-family="Helvetica,sans-Serif" font-size="10.00">NS_LoadPersistentPropertiesFromURI</text>
</g>
<!-- Node2 -->
<g id="node3" class="node"><title>Node2</title>
<a xlink:href="../../dc/db2/ns_component_manager_utils_8h.html#ac0eafe69a33e24b71c373986f7c449a6" target="_top" xlink:title="do_CreateInstance">
<polygon fill="white" stroke="black" points="336.5,-146.5 336.5,-167.5 435.5,-167.5 435.5,-146.5 336.5,-146.5"/>
<text text-anchor="middle" x="386" y="-154.5" font-family="Helvetica,sans-Serif" font-size="10.00">do_CreateInstance</text>
</a>
</g>
<!-- Node1&#45;&gt;Node2 -->
<g id="edge2" class="edge"><title>Node1&#45;&gt;Node2</title>
<path fill="none" stroke="midnightblue" d="M171.904,-128.503C220.494,-134.97 281.789,-143.129 326.331,-149.058"/>
<polygon fill="midnightblue" stroke="midnightblue" points="326.046,-152.551 336.42,-150.401 326.969,-145.612 326.046,-152.551"/>
</g>
<!-- Node5 -->
<g id="node9" class="node"><title>Node5</title>
<a xlink:href="../../de/db2/ns_auto_ptr_8h.html#a3892f2732d861ecbf1e20826158db1b6" target="_top" xlink:title="getter_AddRefs">
<polygon fill="white" stroke="black" points="484.5,-80.5 484.5,-101.5 569.5,-101.5 569.5,-80.5 484.5,-80.5"/>
<text text-anchor="middle" x="527" y="-88.5" font-family="Helvetica,sans-Serif" font-size="10.00">getter_AddRefs</text>
</a>
</g>
<!-- Node1&#45;&gt;Node5 -->
<g id="edge8" class="edge"><title>Node1&#45;&gt;Node5</title>
<path fill="none" stroke="midnightblue" d="M186.2,-113.033C255.2,-109.242 351.49,-103.714 436,-98 448.351,-97.165 461.638,-96.1876 474.141,-95.2327"/>
<polygon fill="midnightblue" stroke="midnightblue" points="474.719,-98.6986 484.42,-94.4394 474.18,-91.7193 474.719,-98.6986"/>
</g>
<!-- Node6 -->
<g id="node11" class="node"><title>Node6</title>
<a xlink:href="../../d9/d5b/ns_net_util_8h.html#a893de01dd017920d550efe136db0afd0" target="_top" xlink:title="NS_OpenURI">
<polygon fill="white" stroke="black" points="222.5,-68.5 222.5,-89.5 299.5,-89.5 299.5,-68.5 222.5,-68.5"/>
<text text-anchor="middle" x="261" y="-76.5" font-family="Helvetica,sans-Serif" font-size="10.00">NS_OpenURI</text>
</a>
</g>
<!-- Node1&#45;&gt;Node6 -->
<g id="edge10" class="edge"><title>Node1&#45;&gt;Node6</title>
<path fill="none" stroke="midnightblue" d="M138.463,-107.446C161.318,-102.14 189.033,-95.7066 212.32,-90.3007"/>
<polygon fill="midnightblue" stroke="midnightblue" points="213.388,-93.646 222.337,-87.9753 211.805,-86.8273 213.388,-93.646"/>
</g>
<!-- Node3 -->
<g id="node5" class="node"><title>Node3</title>
<a xlink:href="../../d0/de6/fake-oncall-desktop_8js.html#a6efd5e1eedff09b640ec574dc6dd2879" target="_top" xlink:title="error">
<polygon fill="white" stroke="black" points="746,-96.5 746,-117.5 782,-117.5 782,-96.5 746,-96.5"/>
<text text-anchor="middle" x="764" y="-104.5" font-family="Helvetica,sans-Serif" font-size="10.00">error</text>
</a>
</g>
<!-- Node2&#45;&gt;Node3 -->
<g id="edge4" class="edge"><title>Node2&#45;&gt;Node3</title>
<path fill="none" stroke="midnightblue" d="M435.806,-150.412C516.159,-139.783 671.834,-119.191 735.658,-110.749"/>
<polygon fill="midnightblue" stroke="midnightblue" points="736.326,-114.191 745.78,-109.41 735.408,-107.252 736.326,-114.191"/>
</g>
<!-- Node4 -->
<g id="node7" class="node"><title>Node4</title>
<a xlink:href="../../d1/d22/ical_8js.html#a6053319846c80bf9561a1958bb817380" target="_top" xlink:title="typeof">
<polygon fill="white" stroke="black" points="818,-96.5 818,-117.5 862,-117.5 862,-96.5 818,-96.5"/>
<text text-anchor="middle" x="840" y="-104.5" font-family="Helvetica,sans-Serif" font-size="10.00">typeof</text>
</a>
</g>
<!-- Node3&#45;&gt;Node4 -->
<g id="edge6" class="edge"><title>Node3&#45;&gt;Node4</title>
<path fill="none" stroke="midnightblue" d="M782.011,-107C789.709,-107 798.937,-107 807.744,-107"/>
<polygon fill="midnightblue" stroke="midnightblue" points="807.772,-110.5 817.772,-107 807.772,-103.5 807.772,-110.5"/>
</g>
<!-- Node6&#45;&gt;Node5 -->
<g id="edge12" class="edge"><title>Node6&#45;&gt;Node5</title>
<path fill="none" stroke="midnightblue" d="M299.679,-80.7449C345.647,-82.8186 422.586,-86.2896 474.053,-88.6114"/>
<polygon fill="midnightblue" stroke="midnightblue" points="474.162,-92.1198 484.31,-89.0741 474.478,-85.1269 474.162,-92.1198"/>
</g>
<!-- Node7 -->
<g id="node14" class="node"><title>Node7</title>
<a xlink:href="../../d9/d5b/ns_net_util_8h.html#ae4782d8818efb2adee7c063fc0adee62" target="_top" xlink:title="NS_NewChannel">
<polygon fill="white" stroke="black" points="340,-30.5 340,-51.5 432,-51.5 432,-30.5 340,-30.5"/>
<text text-anchor="middle" x="386" y="-38.5" font-family="Helvetica,sans-Serif" font-size="10.00">NS_NewChannel</text>
</a>
</g>
<!-- Node6&#45;&gt;Node7 -->
<g id="edge14" class="edge"><title>Node6&#45;&gt;Node7</title>
<path fill="none" stroke="midnightblue" d="M295.819,-68.4149C310.042,-64.0914 326.66,-59.0393 341.729,-54.4583"/>
<polygon fill="midnightblue" stroke="midnightblue" points="342.818,-57.7857 351.367,-51.5284 340.782,-51.0883 342.818,-57.7857"/>
</g>
<!-- Node7&#45;&gt;Node5 -->
<g id="edge16" class="edge"><title>Node7&#45;&gt;Node5</title>
<path fill="none" stroke="midnightblue" d="M415.902,-51.6037C436.746,-58.9951 464.772,-68.9333 487.46,-76.9786"/>
<polygon fill="midnightblue" stroke="midnightblue" points="486.546,-80.3681 497.141,-80.4116 488.885,-73.7706 486.546,-80.3681"/>
</g>
<!-- Node8 -->
<g id="node17" class="node"><title>Node8</title>
<a xlink:href="../../d9/d5b/ns_net_util_8h.html#afaeb22bb1df6ee5397be07bf58529546" target="_top" xlink:title="net_EnsureIOService">
<polygon fill="white" stroke="black" points="472,-40.5 472,-61.5 582,-61.5 582,-40.5 472,-40.5"/>
<text text-anchor="middle" x="527" y="-48.5" font-family="Helvetica,sans-Serif" font-size="10.00">net_EnsureIOService</text>
</a>
</g>
<!-- Node7&#45;&gt;Node8 -->
<g id="edge18" class="edge"><title>Node7&#45;&gt;Node8</title>
<path fill="none" stroke="midnightblue" d="M432.169,-44.2744C441.587,-44.9423 451.666,-45.6571 461.608,-46.3623"/>
<polygon fill="midnightblue" stroke="midnightblue" points="461.664,-49.8749 471.886,-47.0912 462.159,-42.8925 461.664,-49.8749"/>
</g>
<!-- Node10 -->
<g id="node22" class="node"><title>Node10</title>
<a xlink:href="../../d5/d03/ns_c_o_m_ptr_8h.html#af95dba31e48b04c94928ebf8bd30bb0c" target="_top" xlink:title="do_QueryInterface">
<polygon fill="white" stroke="black" points="478.5,-0.5 478.5,-21.5 575.5,-21.5 575.5,-0.5 478.5,-0.5"/>
<text text-anchor="middle" x="527" y="-8.5" font-family="Helvetica,sans-Serif" font-size="10.00">do_QueryInterface</text>
</a>
</g>
<!-- Node7&#45;&gt;Node10 -->
<g id="edge24" class="edge"><title>Node7&#45;&gt;Node10</title>
<path fill="none" stroke="midnightblue" d="M432.169,-31.1769C443.714,-28.7204 456.252,-26.0528 468.314,-23.4863"/>
<polygon fill="midnightblue" stroke="midnightblue" points="469.25,-26.8656 478.303,-21.3611 467.794,-20.0188 469.25,-26.8656"/>
</g>
<!-- Node9 -->
<g id="node19" class="node"><title>Node9</title>
<a xlink:href="../../d9/d5b/ns_net_util_8h.html#a0add396a07df9701587b1c3ce42f4012" target="_top" xlink:title="do_GetIOService">
<polygon fill="white" stroke="black" points="618,-65.5 618,-86.5 710,-86.5 710,-65.5 618,-65.5"/>
<text text-anchor="middle" x="664" y="-73.5" font-family="Helvetica,sans-Serif" font-size="10.00">do_GetIOService</text>
</a>
</g>
<!-- Node8&#45;&gt;Node9 -->
<g id="edge20" class="edge"><title>Node8&#45;&gt;Node9</title>
<path fill="none" stroke="midnightblue" d="M582.328,-61.0964C590.67,-62.6186 599.283,-64.1903 607.646,-65.7164"/>
<polygon fill="midnightblue" stroke="midnightblue" points="607.222,-69.1968 617.688,-67.5489 608.479,-62.3105 607.222,-69.1968"/>
</g>
<!-- Node9&#45;&gt;Node3 -->
<g id="edge22" class="edge"><title>Node9&#45;&gt;Node3</title>
<path fill="none" stroke="midnightblue" d="M698.135,-86.5817C710.475,-90.4074 724.255,-94.6789 736.007,-98.3223"/>
<polygon fill="midnightblue" stroke="midnightblue" points="735.139,-101.717 745.727,-101.335 737.211,-95.0311 735.139,-101.717"/>
</g>
</g>
</svg>
        <g id="navigator" transform="translate(0 0)" fill="#404254">
                <rect fill="#f2f5e9" fill-opacity="0.5" stroke="#606060" stroke-width=".5" x="0" y="0" width="60" height="60"/>
                <use id="zoomplus" xlink:href="#zoomPlus" x="17" y="9" onmousedown="handleZoom(evt,'in')"/>
                <use id="zoomminus" xlink:href="#zoomMin" x="42" y="9" onmousedown="handleZoom(evt,'out')"/>
                <use id="reset" xlink:href="#resetDef" x="30" y="36" onmousedown="handleReset()"/>
                <g id="arrowUp" xlink:href="#dirArrow" transform="translate(30 24)" onmousedown="handlePan(0,-1)">
                  <use xlink:href="#rim" fill="#404040">
                        <set attributeName="fill" to="#808080" begin="arrowUp.mouseover" end="arrowUp.mouseout"/>
                  </use>
                  <path fill="none" stroke="white" stroke-width="1.5" d="M0,-3.0v7 M-2.5,-0.5L0,-3.0L2.5,-0.5"/>
                </g>
                <g id="arrowRight" xlink:href="#dirArrow" transform="rotate(90) translate(36 -43)" onmousedown="handlePan(1,0)">
                  <use xlink:href="#rim" fill="#404040">
                        <set attributeName="fill" to="#808080" begin="arrowRight.mouseover" end="arrowRight.mouseout"/>
                  </use>
                  <path fill="none" stroke="white" stroke-width="1.5" d="M0,-3.0v7 M-2.5,-0.5L0,-3.0L2.5,-0.5"/>
                </g>
                <g id="arrowDown" xlink:href="#dirArrow" transform="rotate(180) translate(-30 -48)" onmousedown="handlePan(0,1)">
                  <use xlink:href="#rim" fill="#404040">
                        <set attributeName="fill" to="#808080" begin="arrowDown.mouseover" end="arrowDown.mouseout"/>
                  </use>
                  <path fill="none" stroke="white" stroke-width="1.5" d="M0,-3.0v7 M-2.5,-0.5L0,-3.0L2.5,-0.5"/>
                </g>
                <g id="arrowLeft" xlink:href="#dirArrow" transform="rotate(270) translate(-36 17)" onmousedown="handlePan(-1,0)">
                  <use xlink:href="#rim" fill="#404040">
                        <set attributeName="fill" to="#808080" begin="arrowLeft.mouseover" end="arrowLeft.mouseout"/>
                  </use>
                  <path fill="none" stroke="white" stroke-width="1.5" d="M0,-3.0v7 M-2.5,-0.5L0,-3.0L2.5,-0.5"/>
                </g>
        </g>
</svg>
