<?xml version="1.0" encoding="UTF-8" standalone="no"?>
<!DOCTYPE svg PUBLIC "-//W3C//DTD SVG 1.1//EN"
 "http://www.w3.org/Graphics/SVG/1.1/DTD/svg11.dtd">
<!-- Generated by graphviz version 2.26.3 (20100126.1600)
 -->
<!-- Title: G Pages: 1 -->
<!--zoomable 130 -->
<svg id="main" version="1.1" xmlns="http://www.w3.org/2000/svg" xmlns:xlink="http://www.w3.org/1999/xlink" xml:space="preserve" onload="init(evt)">
        <defs>
                <circle id="rim" cx="0" cy="0" r="7"/>
                <circle id="rim2" cx="0" cy="0" r="3.5"/>
                <g id="zoomPlus">
                        <use xlink:href="#rim" fill="#404040">
                                <set attributeName="fill" to="#808080" begin="zoomplus.mouseover" end="zoomplus.mouseout"/>
                        </use>
                        <path d="M-4,0h8M0,-4v8" fill="none" stroke="white" stroke-width="1.5" pointer-events="none"/>
                </g>
                <g id="zoomMin">
                        <use xlink:href="#rim" fill="#404040">
                                <set attributeName="fill" to="#808080" begin="zoomminus.mouseover" end="zoomminus.mouseout"/>
                        </use>
                        <path d="M-4,0h8" fill="none" stroke="white" stroke-width="1.5" pointer-events="none"/>
                </g>
                <g id="dirArrow">
                        <path fill="none" stroke="white" stroke-width="1.5" d="M0,-3.0v7 M-2.5,-0.5L0,-3.0L2.5,-0.5"/>
                </g>
               <g id="resetDef">
                       <use xlink:href="#rim2" fill="#404040">
                               <set attributeName="fill" to="#808080" begin="reset.mouseover" end="reset.mouseout"/>
                       </use>
               </g>
        </defs>

<script type="text/javascript">
var viewWidth = 930;
var viewHeight = 130;
var sectionId = 'dynsection-22';
</script>
<script xlink:href="../../svgpan.js"/>
<svg id="graph" class="graph">
<g id="viewport">
<title>G</title>
<polygon fill="white" stroke="white" points="-4,5 -4,-126 927,-126 927,5 -4,5"/>
<!-- Node1 -->
<g id="node1" class="node"><title>Node1</title>
<polygon fill="#bfbfbf" stroke="black" points="0.5,-60.5 0.5,-81.5 189.5,-81.5 189.5,-60.5 0.5,-60.5"/>
<text text-anchor="middle" x="95" y="-68.5" font-family="Helvetica,sans-Serif" font-size="10.00">NS_GetContentDispositionFromHeader</text>
</g>
<!-- Node2 -->
<g id="node3" class="node"><title>Node2</title>
<a xlink:href="../../d4/d2f/ns_service_manager_utils_8h.html#aa748eea5e1aca70481a32f78ee8b8a5d" target="_top" xlink:title="do_GetService">
<polygon fill="white" stroke="black" points="278.5,-100.5 278.5,-121.5 359.5,-121.5 359.5,-100.5 278.5,-100.5"/>
<text text-anchor="middle" x="319" y="-108.5" font-family="Helvetica,sans-Serif" font-size="10.00">do_GetService</text>
</a>
</g>
<!-- Node1&#45;&gt;Node2 -->
<g id="edge2" class="edge"><title>Node1&#45;&gt;Node2</title>
<path fill="none" stroke="midnightblue" d="M153.853,-81.5095C189.33,-87.8446 234.068,-95.8335 268.028,-101.898"/>
<polygon fill="midnightblue" stroke="midnightblue" points="267.74,-105.402 278.2,-103.714 268.971,-98.5108 267.74,-105.402"/>
</g>
<!-- Node3 -->
<g id="node5" class="node"><title>Node3</title>
<a xlink:href="../../de/db2/ns_auto_ptr_8h.html#a3892f2732d861ecbf1e20826158db1b6" target="_top" xlink:title="getter_AddRefs">
<polygon fill="white" stroke="black" points="276.5,-60.5 276.5,-81.5 361.5,-81.5 361.5,-60.5 276.5,-60.5"/>
<text text-anchor="middle" x="319" y="-68.5" font-family="Helvetica,sans-Serif" font-size="10.00">getter_AddRefs</text>
</a>
</g>
<!-- Node1&#45;&gt;Node3 -->
<g id="edge4" class="edge"><title>Node1&#45;&gt;Node3</title>
<path fill="none" stroke="midnightblue" d="M189.671,-71C215.868,-71 243.362,-71 266.23,-71"/>
<polygon fill="midnightblue" stroke="midnightblue" points="266.39,-74.5001 276.39,-71 266.39,-67.5001 266.39,-74.5001"/>
</g>
<!-- Node4 -->
<g id="node7" class="node"><title>Node4</title>
<a xlink:href="../../d9/d5b/ns_net_util_8h.html#a1b950e3619ae5f3ce3c497c7115354ce" target="_top" xlink:title="NS_GetContentDispositionFromToken">
<polygon fill="white" stroke="black" points="226.5,-20.5 226.5,-41.5 411.5,-41.5 411.5,-20.5 226.5,-20.5"/>
<text text-anchor="middle" x="319" y="-28.5" font-family="Helvetica,sans-Serif" font-size="10.00">NS_GetContentDispositionFromToken</text>
</a>
</g>
<!-- Node1&#45;&gt;Node4 -->
<g id="edge6" class="edge"><title>Node1&#45;&gt;Node4</title>
<path fill="none" stroke="midnightblue" d="M153.853,-60.4905C183.317,-55.229 219.17,-48.8268 249.931,-43.3338"/>
<polygon fill="midnightblue" stroke="midnightblue" points="250.922,-46.7122 260.151,-41.5087 249.692,-39.8212 250.922,-46.7122"/>
</g>
<!-- Node5 -->
<g id="node9" class="node"><title>Node5</title>
<a xlink:href="../../d4/dc1/classns_t_substring___char_t.html#a1ae9e8693b5518a2d83650d3f4bd128d" target="_top" xlink:title="nsTSubstring_CharT::LowerCaseEqualsLiteral">
<polygon fill="white" stroke="black" points="448,-40.5 448,-61.5 666,-61.5 666,-40.5 448,-40.5"/>
<text text-anchor="middle" x="557" y="-48.5" font-family="Helvetica,sans-Serif" font-size="10.00">nsTSubstring_CharT::LowerCaseEqualsLiteral</text>
</a>
</g>
<!-- Node4&#45;&gt;Node5 -->
<g id="edge8" class="edge"><title>Node4&#45;&gt;Node5</title>
<path fill="none" stroke="midnightblue" d="M411.699,-38.7898C420.235,-39.5072 428.962,-40.2405 437.691,-40.9741"/>
<polygon fill="midnightblue" stroke="midnightblue" points="437.67,-44.4846 447.928,-41.8343 438.257,-37.5091 437.67,-44.4846"/>
</g>
<!-- Node7 -->
<g id="node13" class="node"><title>Node7</title>
<a xlink:href="../../df/dcc/ns_t_dependent_substring_8h.html#a2b819481efd0ebf8ac6a11b2a4eb919b" target="_top" xlink:title="StringHead">
<polygon fill="white" stroke="black" points="524.5,-0.5 524.5,-21.5 589.5,-21.5 589.5,-0.5 524.5,-0.5"/>
<text text-anchor="middle" x="557" y="-8.5" font-family="Helvetica,sans-Serif" font-size="10.00">StringHead</text>
</a>
</g>
<!-- Node4&#45;&gt;Node7 -->
<g id="edge12" class="edge"><title>Node4&#45;&gt;Node7</title>
<path fill="none" stroke="midnightblue" d="M411.699,-23.2102C447.153,-20.2308 485.887,-16.9759 514.44,-14.5765"/>
<polygon fill="midnightblue" stroke="midnightblue" points="514.802,-18.0584 524.474,-13.7333 514.216,-11.083 514.802,-18.0584"/>
</g>
<!-- Node6 -->
<g id="node11" class="node"><title>Node6</title>
<a xlink:href="../../d4/dc1/classns_t_substring___char_t.html#a148db56957a8598c827486a0ad0420a4" target="_top" xlink:title="nsTSubstring_CharT::LowerCaseEqualsASCII">
<polygon fill="white" stroke="black" points="702.5,-40.5 702.5,-61.5 921.5,-61.5 921.5,-40.5 702.5,-40.5"/>
<text text-anchor="middle" x="812" y="-48.5" font-family="Helvetica,sans-Serif" font-size="10.00">nsTSubstring_CharT::LowerCaseEqualsASCII</text>
</a>
</g>
<!-- Node5&#45;&gt;Node6 -->
<g id="edge10" class="edge"><title>Node5&#45;&gt;Node6</title>
<path fill="none" stroke="midnightblue" d="M666.253,-51C674.803,-51 683.464,-51 692.08,-51"/>
<polygon fill="midnightblue" stroke="midnightblue" points="692.163,-54.5001 702.163,-51 692.163,-47.5001 692.163,-54.5001"/>
</g>
</g>
</svg>
        <g id="navigator" transform="translate(0 0)" fill="#404254">
                <rect fill="#f2f5e9" fill-opacity="0.5" stroke="#606060" stroke-width=".5" x="0" y="0" width="60" height="60"/>
                <use id="zoomplus" xlink:href="#zoomPlus" x="17" y="9" onmousedown="handleZoom(evt,'in')"/>
                <use id="zoomminus" xlink:href="#zoomMin" x="42" y="9" onmousedown="handleZoom(evt,'out')"/>
                <use id="reset" xlink:href="#resetDef" x="30" y="36" onmousedown="handleReset()"/>
                <g id="arrowUp" xlink:href="#dirArrow" transform="translate(30 24)" onmousedown="handlePan(0,-1)">
                  <use xlink:href="#rim" fill="#404040">
                        <set attributeName="fill" to="#808080" begin="arrowUp.mouseover" end="arrowUp.mouseout"/>
                  </use>
                  <path fill="none" stroke="white" stroke-width="1.5" d="M0,-3.0v7 M-2.5,-0.5L0,-3.0L2.5,-0.5"/>
                </g>
                <g id="arrowRight" xlink:href="#dirArrow" transform="rotate(90) translate(36 -43)" onmousedown="handlePan(1,0)">
                  <use xlink:href="#rim" fill="#404040">
                        <set attributeName="fill" to="#808080" begin="arrowRight.mouseover" end="arrowRight.mouseout"/>
                  </use>
                  <path fill="none" stroke="white" stroke-width="1.5" d="M0,-3.0v7 M-2.5,-0.5L0,-3.0L2.5,-0.5"/>
                </g>
                <g id="arrowDown" xlink:href="#dirArrow" transform="rotate(180) translate(-30 -48)" onmousedown="handlePan(0,1)">
                  <use xlink:href="#rim" fill="#404040">
                        <set attributeName="fill" to="#808080" begin="arrowDown.mouseover" end="arrowDown.mouseout"/>
                  </use>
                  <path fill="none" stroke="white" stroke-width="1.5" d="M0,-3.0v7 M-2.5,-0.5L0,-3.0L2.5,-0.5"/>
                </g>
                <g id="arrowLeft" xlink:href="#dirArrow" transform="rotate(270) translate(-36 17)" onmousedown="handlePan(-1,0)">
                  <use xlink:href="#rim" fill="#404040">
                        <set attributeName="fill" to="#808080" begin="arrowLeft.mouseover" end="arrowLeft.mouseout"/>
                  </use>
                  <path fill="none" stroke="white" stroke-width="1.5" d="M0,-3.0v7 M-2.5,-0.5L0,-3.0L2.5,-0.5"/>
                </g>
        </g>
</svg>
