<?xml version="1.0" encoding="UTF-8" standalone="no"?>
<!DOCTYPE svg PUBLIC "-//W3C//DTD SVG 1.1//EN"
 "http://www.w3.org/Graphics/SVG/1.1/DTD/svg11.dtd">
<!-- Generated by graphviz version 2.26.3 (20100126.1600)
 -->
<!-- Title: G Pages: 1 -->
<svg width="252pt" height="70pt"
 viewBox="0.00 0.00 252.00 70.00" xmlns="http://www.w3.org/2000/svg" xmlns:xlink="http://www.w3.org/1999/xlink">
<g id="graph1" class="graph" transform="scale(1 1) rotate(0) translate(4 66)">
<title>G</title>
<polygon fill="white" stroke="white" points="-4,5 -4,-66 249,-66 249,5 -4,5"/>
<!-- Node1 -->
<g id="node1" class="node"><title>Node1</title>
<polygon fill="#bfbfbf" stroke="black" points="0,-20.5 0,-41.5 116,-41.5 116,-20.5 0,-20.5"/>
<text text-anchor="middle" x="58" y="-28.5" font-family="Helvetica,sans-Serif" font-size="10.00">NS_MakeAbsoluteURI</text>
</g>
<!-- Node2 -->
<g id="node3" class="node"><title>Node2</title>
<a xlink:href="../../dd/d71/interfacens_i_u_r_i.html#a1ca7898fa50ad2c3660f6949968fb653" target="_top" xlink:title="nsIURI::GetSpec">
<polygon fill="white" stroke="black" points="152,-40.5 152,-61.5 244,-61.5 244,-40.5 152,-40.5"/>
<text text-anchor="middle" x="198" y="-48.5" font-family="Helvetica,sans-Serif" font-size="10.00">nsIURI::GetSpec</text>
</a>
</g>
<!-- Node1&#45;&gt;Node2 -->
<g id="edge2" class="edge"><title>Node1&#45;&gt;Node2</title>
<path fill="none" stroke="midnightblue" d="M116.156,-39.308C124.595,-40.5136 133.271,-41.7529 141.672,-42.9532"/>
<polygon fill="midnightblue" stroke="midnightblue" points="141.357,-46.4435 151.751,-44.393 142.347,-39.5139 141.357,-46.4435"/>
</g>
<!-- Node3 -->
<g id="node5" class="node"><title>Node3</title>
<a xlink:href="../../dd/d71/interfacens_i_u_r_i.html#ad4e97567245244b90944e07adf2934df" target="_top" xlink:title="nsIURI::Resolve">
<polygon fill="white" stroke="black" points="153,-0.5 153,-21.5 243,-21.5 243,-0.5 153,-0.5"/>
<text text-anchor="middle" x="198" y="-8.5" font-family="Helvetica,sans-Serif" font-size="10.00">nsIURI::Resolve</text>
</a>
</g>
<!-- Node1&#45;&gt;Node3 -->
<g id="edge4" class="edge"><title>Node1&#45;&gt;Node3</title>
<path fill="none" stroke="midnightblue" d="M116.156,-22.692C124.904,-21.4423 133.906,-20.1563 142.593,-18.9152"/>
<polygon fill="midnightblue" stroke="midnightblue" points="143.21,-22.3628 152.614,-17.4837 142.22,-15.4332 143.21,-22.3628"/>
</g>
</g>
</svg>
