<?xml version="1.0" encoding="UTF-8" standalone="no"?>
<!DOCTYPE svg PUBLIC "-//W3C//DTD SVG 1.1//EN"
 "http://www.w3.org/Graphics/SVG/1.1/DTD/svg11.dtd">
<!-- Generated by graphviz version 2.26.3 (20100126.1600)
 -->
<!-- Title: G Pages: 1 -->
<!--zoomable 204 -->
<svg id="main" version="1.1" xmlns="http://www.w3.org/2000/svg" xmlns:xlink="http://www.w3.org/1999/xlink" xml:space="preserve" onload="init(evt)">
        <defs>
                <circle id="rim" cx="0" cy="0" r="7"/>
                <circle id="rim2" cx="0" cy="0" r="3.5"/>
                <g id="zoomPlus">
                        <use xlink:href="#rim" fill="#404040">
                                <set attributeName="fill" to="#808080" begin="zoomplus.mouseover" end="zoomplus.mouseout"/>
                        </use>
                        <path d="M-4,0h8M0,-4v8" fill="none" stroke="white" stroke-width="1.5" pointer-events="none"/>
                </g>
                <g id="zoomMin">
                        <use xlink:href="#rim" fill="#404040">
                                <set attributeName="fill" to="#808080" begin="zoomminus.mouseover" end="zoomminus.mouseout"/>
                        </use>
                        <path d="M-4,0h8" fill="none" stroke="white" stroke-width="1.5" pointer-events="none"/>
                </g>
                <g id="dirArrow">
                        <path fill="none" stroke="white" stroke-width="1.5" d="M0,-3.0v7 M-2.5,-0.5L0,-3.0L2.5,-0.5"/>
                </g>
               <g id="resetDef">
                       <use xlink:href="#rim2" fill="#404040">
                               <set attributeName="fill" to="#808080" begin="reset.mouseover" end="reset.mouseout"/>
                       </use>
               </g>
        </defs>

<script type="text/javascript">
var viewWidth = 540;
var viewHeight = 204;
var sectionId = 'dynsection-0';
</script>
<script xlink:href="../../svgpan.js"/>
<svg id="graph" class="graph">
<g id="viewport">
<title>G</title>
<polygon fill="white" stroke="white" points="-4,5 -4,-200 537,-200 537,5 -4,5"/>
<!-- Node1 -->
<g id="node1" class="node"><title>Node1</title>
<polygon fill="#bfbfbf" stroke="black" points="0,-174.5 0,-195.5 486,-195.5 486,-174.5 0,-174.5"/>
<text text-anchor="middle" x="243" y="-182.5" font-family="Helvetica,sans-Serif" font-size="10.00">/home/aoi/Documents/FxOS/B2G/gaia/xulrunner&#45;sdk/include/protobuf/google/protobuf/io/coded_stream_inl.h</text>
</g>
<!-- Node2 -->
<g id="node3" class="node"><title>Node2</title>
<a xlink:href="../../de/d6c/coded__stream_8h.html" target="_top" xlink:title="google/protobuf/io/coded_stream.h">
<polygon fill="white" stroke="black" points="159.5,-116.5 159.5,-137.5 326.5,-137.5 326.5,-116.5 159.5,-116.5"/>
<text text-anchor="middle" x="243" y="-124.5" font-family="Helvetica,sans-Serif" font-size="10.00">google/protobuf/io/coded_stream.h</text>
</a>
</g>
<!-- Node1&#45;&gt;Node2 -->
<g id="edge2" class="edge"><title>Node1&#45;&gt;Node2</title>
<path fill="none" stroke="midnightblue" d="M243,-174.362C243,-166.922 243,-156.743 243,-147.728"/>
<polygon fill="midnightblue" stroke="midnightblue" points="246.5,-147.571 243,-137.571 239.5,-147.571 246.5,-147.571"/>
</g>
<!-- Node3 -->
<g id="node5" class="node"><title>Node3</title>
<polygon fill="white" stroke="#bfbfbf" points="157.5,-0.5 157.5,-21.5 198.5,-21.5 198.5,-0.5 157.5,-0.5"/>
<text text-anchor="middle" x="178" y="-8.5" font-family="Helvetica,sans-Serif" font-size="10.00">string</text>
</g>
<!-- Node1&#45;&gt;Node3 -->
<g id="edge22" class="edge"><title>Node1&#45;&gt;Node3</title>
<path fill="none" stroke="midnightblue" d="M201.252,-174.488C182.458,-167.447 162.049,-156.051 151,-138 130.249,-104.096 150.898,-56.6391 165.757,-30.3884"/>
<polygon fill="midnightblue" stroke="midnightblue" points="168.795,-32.1281 170.882,-21.741 162.773,-28.5591 168.795,-32.1281"/>
</g>
<!-- Node11 -->
<g id="node23" class="node"><title>Node11</title>
<a xlink:href="../../d1/dc1/stl__util-inl_8h.html" target="_top" xlink:title="google/protobuf/stubs/stl_util&#45;inl.h">
<polygon fill="white" stroke="black" points="343.5,-116.5 343.5,-137.5 506.5,-137.5 506.5,-116.5 343.5,-116.5"/>
<text text-anchor="middle" x="425" y="-124.5" font-family="Helvetica,sans-Serif" font-size="10.00">google/protobuf/stubs/stl_util&#45;inl.h</text>
</a>
</g>
<!-- Node1&#45;&gt;Node11 -->
<g id="edge24" class="edge"><title>Node1&#45;&gt;Node11</title>
<path fill="none" stroke="midnightblue" d="M275.959,-174.497C305.758,-165 349.809,-150.962 382.297,-140.609"/>
<polygon fill="midnightblue" stroke="midnightblue" points="383.514,-143.894 391.979,-137.523 381.389,-137.225 383.514,-143.894"/>
</g>
<!-- Node2&#45;&gt;Node3 -->
<g id="edge4" class="edge"><title>Node2&#45;&gt;Node3</title>
<path fill="none" stroke="midnightblue" d="M230.132,-116.251C220.328,-107.43 207.164,-94.1298 199,-80 190.314,-64.967 184.876,-45.9767 181.717,-31.726"/>
<polygon fill="midnightblue" stroke="midnightblue" points="185.142,-31.0039 179.728,-21.8963 178.281,-32.3918 185.142,-31.0039"/>
</g>
<!-- Node4 -->
<g id="node7" class="node"><title>Node4</title>
<polygon fill="white" stroke="#bfbfbf" points="207.5,-58.5 207.5,-79.5 278.5,-79.5 278.5,-58.5 207.5,-58.5"/>
<text text-anchor="middle" x="243" y="-66.5" font-family="Helvetica,sans-Serif" font-size="10.00">sys/param.h</text>
</g>
<!-- Node2&#45;&gt;Node4 -->
<g id="edge6" class="edge"><title>Node2&#45;&gt;Node4</title>
<path fill="none" stroke="midnightblue" d="M243,-116.362C243,-108.922 243,-98.7427 243,-89.7276"/>
<polygon fill="midnightblue" stroke="midnightblue" points="246.5,-89.5706 243,-79.5707 239.5,-89.5707 246.5,-89.5706"/>
</g>
<!-- Node5 -->
<g id="node9" class="node"><title>Node5</title>
<a xlink:href="../../dc/d54/common_8h.html" target="_top" xlink:title="google/protobuf/stubs/common.h">
<polygon fill="white" stroke="black" points="296.5,-58.5 296.5,-79.5 455.5,-79.5 455.5,-58.5 296.5,-58.5"/>
<text text-anchor="middle" x="376" y="-66.5" font-family="Helvetica,sans-Serif" font-size="10.00">google/protobuf/stubs/common.h</text>
</a>
</g>
<!-- Node2&#45;&gt;Node5 -->
<g id="edge8" class="edge"><title>Node2&#45;&gt;Node5</title>
<path fill="none" stroke="midnightblue" d="M267.085,-116.497C288.139,-107.315 318.927,-93.8889 342.402,-83.6516"/>
<polygon fill="midnightblue" stroke="midnightblue" points="343.877,-86.8268 351.644,-79.6212 341.079,-80.4104 343.877,-86.8268"/>
</g>
<!-- Node5&#45;&gt;Node3 -->
<g id="edge16" class="edge"><title>Node5&#45;&gt;Node3</title>
<path fill="none" stroke="midnightblue" d="M334.011,-58.4622C301.77,-50.1158 255.991,-37.7165 208.113,-22.192"/>
<polygon fill="midnightblue" stroke="midnightblue" points="209.105,-18.8341 198.512,-19.0457 206.925,-25.486 209.105,-18.8341"/>
</g>
<!-- Node6 -->
<g id="node11" class="node"><title>Node6</title>
<polygon fill="white" stroke="#bfbfbf" points="216,-0.5 216,-21.5 268,-21.5 268,-0.5 216,-0.5"/>
<text text-anchor="middle" x="242" y="-8.5" font-family="Helvetica,sans-Serif" font-size="10.00">assert.h</text>
</g>
<!-- Node5&#45;&gt;Node6 -->
<g id="edge10" class="edge"><title>Node5&#45;&gt;Node6</title>
<path fill="none" stroke="midnightblue" d="M351.734,-58.4966C330.522,-49.3154 299.502,-35.8889 275.85,-25.6516"/>
<polygon fill="midnightblue" stroke="midnightblue" points="277.106,-22.3815 266.539,-21.6212 274.326,-28.8055 277.106,-22.3815"/>
</g>
<!-- Node7 -->
<g id="node13" class="node"><title>Node7</title>
<polygon fill="white" stroke="#bfbfbf" points="286,-0.5 286,-21.5 334,-21.5 334,-0.5 286,-0.5"/>
<text text-anchor="middle" x="310" y="-8.5" font-family="Helvetica,sans-Serif" font-size="10.00">stdlib.h</text>
</g>
<!-- Node5&#45;&gt;Node7 -->
<g id="edge12" class="edge"><title>Node5&#45;&gt;Node7</title>
<path fill="none" stroke="midnightblue" d="M363.895,-58.3619C354.312,-49.9408 340.736,-38.0105 329.607,-28.2308"/>
<polygon fill="midnightblue" stroke="midnightblue" points="331.851,-25.5427 322.029,-21.5707 327.23,-30.8009 331.851,-25.5427"/>
</g>
<!-- Node8 -->
<g id="node15" class="node"><title>Node8</title>
<polygon fill="white" stroke="#bfbfbf" points="351.5,-0.5 351.5,-21.5 400.5,-21.5 400.5,-0.5 351.5,-0.5"/>
<text text-anchor="middle" x="376" y="-8.5" font-family="Helvetica,sans-Serif" font-size="10.00">cstddef</text>
</g>
<!-- Node5&#45;&gt;Node8 -->
<g id="edge14" class="edge"><title>Node5&#45;&gt;Node8</title>
<path fill="none" stroke="midnightblue" d="M376,-58.3619C376,-50.9219 376,-40.7427 376,-31.7276"/>
<polygon fill="midnightblue" stroke="midnightblue" points="379.5,-31.5706 376,-21.5707 372.5,-31.5707 379.5,-31.5706"/>
</g>
<!-- Node9 -->
<g id="node18" class="node"><title>Node9</title>
<polygon fill="white" stroke="#bfbfbf" points="417.5,-0.5 417.5,-21.5 466.5,-21.5 466.5,-0.5 417.5,-0.5"/>
<text text-anchor="middle" x="442" y="-8.5" font-family="Helvetica,sans-Serif" font-size="10.00">string.h</text>
</g>
<!-- Node5&#45;&gt;Node9 -->
<g id="edge18" class="edge"><title>Node5&#45;&gt;Node9</title>
<path fill="none" stroke="midnightblue" d="M388.105,-58.3619C397.688,-49.9408 411.264,-38.0105 422.393,-28.2308"/>
<polygon fill="midnightblue" stroke="midnightblue" points="424.77,-30.8009 429.971,-21.5707 420.149,-25.5427 424.77,-30.8009"/>
</g>
<!-- Node10 -->
<g id="node20" class="node"><title>Node10</title>
<polygon fill="white" stroke="#bfbfbf" points="483.5,-0.5 483.5,-21.5 532.5,-21.5 532.5,-0.5 483.5,-0.5"/>
<text text-anchor="middle" x="508" y="-8.5" font-family="Helvetica,sans-Serif" font-size="10.00">stdint.h</text>
</g>
<!-- Node5&#45;&gt;Node10 -->
<g id="edge20" class="edge"><title>Node5&#45;&gt;Node10</title>
<path fill="none" stroke="midnightblue" d="M399.904,-58.4966C420.8,-49.3154 451.356,-35.8889 474.655,-25.6516"/>
<polygon fill="midnightblue" stroke="midnightblue" points="476.08,-28.8483 483.828,-21.6212 473.264,-22.4397 476.08,-28.8483"/>
</g>
<!-- Node11&#45;&gt;Node5 -->
<g id="edge26" class="edge"><title>Node11&#45;&gt;Node5</title>
<path fill="none" stroke="midnightblue" d="M416.013,-116.362C409.175,-108.268 399.598,-96.9318 391.528,-87.3796"/>
<polygon fill="midnightblue" stroke="midnightblue" points="394.058,-84.9508 384.93,-79.5707 388.71,-89.4683 394.058,-84.9508"/>
</g>
</g>
</svg>
        <g id="navigator" transform="translate(0 0)" fill="#404254">
                <rect fill="#f2f5e9" fill-opacity="0.5" stroke="#606060" stroke-width=".5" x="0" y="0" width="60" height="60"/>
                <use id="zoomplus" xlink:href="#zoomPlus" x="17" y="9" onmousedown="handleZoom(evt,'in')"/>
                <use id="zoomminus" xlink:href="#zoomMin" x="42" y="9" onmousedown="handleZoom(evt,'out')"/>
                <use id="reset" xlink:href="#resetDef" x="30" y="36" onmousedown="handleReset()"/>
                <g id="arrowUp" xlink:href="#dirArrow" transform="translate(30 24)" onmousedown="handlePan(0,-1)">
                  <use xlink:href="#rim" fill="#404040">
                        <set attributeName="fill" to="#808080" begin="arrowUp.mouseover" end="arrowUp.mouseout"/>
                  </use>
                  <path fill="none" stroke="white" stroke-width="1.5" d="M0,-3.0v7 M-2.5,-0.5L0,-3.0L2.5,-0.5"/>
                </g>
                <g id="arrowRight" xlink:href="#dirArrow" transform="rotate(90) translate(36 -43)" onmousedown="handlePan(1,0)">
                  <use xlink:href="#rim" fill="#404040">
                        <set attributeName="fill" to="#808080" begin="arrowRight.mouseover" end="arrowRight.mouseout"/>
                  </use>
                  <path fill="none" stroke="white" stroke-width="1.5" d="M0,-3.0v7 M-2.5,-0.5L0,-3.0L2.5,-0.5"/>
                </g>
                <g id="arrowDown" xlink:href="#dirArrow" transform="rotate(180) translate(-30 -48)" onmousedown="handlePan(0,1)">
                  <use xlink:href="#rim" fill="#404040">
                        <set attributeName="fill" to="#808080" begin="arrowDown.mouseover" end="arrowDown.mouseout"/>
                  </use>
                  <path fill="none" stroke="white" stroke-width="1.5" d="M0,-3.0v7 M-2.5,-0.5L0,-3.0L2.5,-0.5"/>
                </g>
                <g id="arrowLeft" xlink:href="#dirArrow" transform="rotate(270) translate(-36 17)" onmousedown="handlePan(-1,0)">
                  <use xlink:href="#rim" fill="#404040">
                        <set attributeName="fill" to="#808080" begin="arrowLeft.mouseover" end="arrowLeft.mouseout"/>
                  </use>
                  <path fill="none" stroke="white" stroke-width="1.5" d="M0,-3.0v7 M-2.5,-0.5L0,-3.0L2.5,-0.5"/>
                </g>
        </g>
</svg>
