<?xml version="1.0" encoding="UTF-8" standalone="no"?>
<!DOCTYPE svg PUBLIC "-//W3C//DTD SVG 1.1//EN"
 "http://www.w3.org/Graphics/SVG/1.1/DTD/svg11.dtd">
<!-- Generated by graphviz version 2.26.3 (20100126.1600)
 -->
<!-- Title: G Pages: 1 -->
<svg width="338pt" height="70pt"
 viewBox="0.00 0.00 338.00 70.00" xmlns="http://www.w3.org/2000/svg" xmlns:xlink="http://www.w3.org/1999/xlink">
<g id="graph1" class="graph" transform="scale(1 1) rotate(0) translate(4 66)">
<title>G</title>
<polygon fill="white" stroke="white" points="-4,5 -4,-66 335,-66 335,5 -4,5"/>
<!-- Node1 -->
<g id="node1" class="node"><title>Node1</title>
<polygon fill="#bfbfbf" stroke="black" points="0.5,-20.5 0.5,-41.5 121.5,-41.5 121.5,-20.5 0.5,-20.5"/>
<text text-anchor="middle" x="61" y="-28.5" font-family="Helvetica,sans-Serif" font-size="10.00">gfxFont::GetScaledFont</text>
</g>
<!-- Node2 -->
<g id="node3" class="node"><title>Node2</title>
<a xlink:href="../../d5/d19/classgfx_platform.html#a9757975d540764c2a841005f8bae529f" target="_top" xlink:title="gfxPlatform::GetPlatform">
<polygon fill="white" stroke="black" points="181.5,-40.5 181.5,-61.5 306.5,-61.5 306.5,-40.5 181.5,-40.5"/>
<text text-anchor="middle" x="244" y="-48.5" font-family="Helvetica,sans-Serif" font-size="10.00">gfxPlatform::GetPlatform</text>
</a>
</g>
<!-- Node1&#45;&gt;Node2 -->
<g id="edge2" class="edge"><title>Node1&#45;&gt;Node2</title>
<path fill="none" stroke="midnightblue" d="M121.682,-37.6319C137.536,-39.3645 154.787,-41.2499 171.199,-43.0436"/>
<polygon fill="midnightblue" stroke="midnightblue" points="170.969,-46.5392 181.29,-44.1464 171.729,-39.5806 170.969,-46.5392"/>
</g>
<!-- Node3 -->
<g id="node5" class="node"><title>Node3</title>
<a xlink:href="../../d5/d19/classgfx_platform.html#a13a3885de9fa1436cf1740701ae48aa9" target="_top" xlink:title="gfxPlatform::GetScaledFontForFont">
<polygon fill="white" stroke="black" points="158,-0.5 158,-21.5 330,-21.5 330,-0.5 158,-0.5"/>
<text text-anchor="middle" x="244" y="-8.5" font-family="Helvetica,sans-Serif" font-size="10.00">gfxPlatform::GetScaledFontForFont</text>
</a>
</g>
<!-- Node1&#45;&gt;Node3 -->
<g id="edge4" class="edge"><title>Node1&#45;&gt;Node3</title>
<path fill="none" stroke="midnightblue" d="M121.682,-24.3681C130.073,-23.451 138.855,-22.4912 147.698,-21.5248"/>
<polygon fill="midnightblue" stroke="midnightblue" points="148.128,-24.9987 157.689,-20.4329 147.368,-18.0402 148.128,-24.9987"/>
</g>
</g>
</svg>
