<?xml version="1.0" encoding="UTF-8" standalone="no"?>
<!DOCTYPE svg PUBLIC "-//W3C//DTD SVG 1.1//EN"
 "http://www.w3.org/Graphics/SVG/1.1/DTD/svg11.dtd">
<!-- Generated by graphviz version 2.26.3 (20100126.1600)
 -->
<!-- Title: G Pages: 1 -->
<svg width="488pt" height="146pt"
 viewBox="0.00 0.00 488.00 146.00" xmlns="http://www.w3.org/2000/svg" xmlns:xlink="http://www.w3.org/1999/xlink">
<g id="graph1" class="graph" transform="scale(1 1) rotate(0) translate(4 142)">
<title>G</title>
<polygon fill="white" stroke="white" points="-4,5 -4,-142 485,-142 485,5 -4,5"/>
<!-- Node1 -->
<g id="node1" class="node"><title>Node1</title>
<polygon fill="#bfbfbf" stroke="black" points="198.5,-116.5 198.5,-137.5 251.5,-137.5 251.5,-116.5 198.5,-116.5"/>
<text text-anchor="middle" x="225" y="-124.5" font-family="Helvetica,sans-Serif" font-size="10.00">utils.cpp</text>
</g>
<!-- Node2 -->
<g id="node3" class="node"><title>Node2</title>
<a xlink:href="../../d5/d60/utils_8h.html" target="_top" xlink:title="utils.h">
<polygon fill="white" stroke="black" points="-0.5,-58.5 -0.5,-79.5 42.5,-79.5 42.5,-58.5 -0.5,-58.5"/>
<text text-anchor="middle" x="21" y="-66.5" font-family="Helvetica,sans-Serif" font-size="10.00">utils.h</text>
</a>
</g>
<!-- Node1&#45;&gt;Node2 -->
<g id="edge2" class="edge"><title>Node1&#45;&gt;Node2</title>
<path fill="none" stroke="midnightblue" d="M198.285,-119.865C164.906,-110.883 106.079,-94.8287 56,-80 54.9312,-79.6835 53.845,-79.3589 52.7487,-79.0288"/>
<polygon fill="midnightblue" stroke="midnightblue" points="53.3969,-75.5666 42.8101,-75.9777 51.3425,-82.2584 53.3969,-75.5666"/>
</g>
<!-- Node3 -->
<g id="node5" class="node"><title>Node3</title>
<polygon fill="white" stroke="#bfbfbf" points="24.5,-0.5 24.5,-21.5 65.5,-21.5 65.5,-0.5 24.5,-0.5"/>
<text text-anchor="middle" x="45" y="-8.5" font-family="Helvetica,sans-Serif" font-size="10.00">string</text>
</g>
<!-- Node1&#45;&gt;Node3 -->
<g id="edge16" class="edge"><title>Node1&#45;&gt;Node3</title>
<path fill="none" stroke="midnightblue" d="M198.464,-123.181C169.076,-117.822 121.557,-105.684 89,-80 72.6214,-67.079 60.556,-46.28 53.2443,-30.8911"/>
<polygon fill="midnightblue" stroke="midnightblue" points="56.4088,-29.394 49.1283,-21.6969 50.0198,-32.2542 56.4088,-29.394"/>
</g>
<!-- Node4 -->
<g id="node7" class="node"><title>Node4</title>
<polygon fill="white" stroke="#bfbfbf" points="98,-58.5 98,-79.5 150,-79.5 150,-58.5 98,-58.5"/>
<text text-anchor="middle" x="124" y="-66.5" font-family="Helvetica,sans-Serif" font-size="10.00">assert.h</text>
</g>
<!-- Node1&#45;&gt;Node4 -->
<g id="edge6" class="edge"><title>Node1&#45;&gt;Node4</title>
<path fill="none" stroke="midnightblue" d="M206.475,-116.362C191.099,-107.532 169.004,-94.844 151.553,-84.8224"/>
<polygon fill="midnightblue" stroke="midnightblue" points="152.822,-81.5154 142.408,-79.5707 149.336,-87.5857 152.822,-81.5154"/>
</g>
<!-- Node5 -->
<g id="node9" class="node"><title>Node5</title>
<polygon fill="white" stroke="#bfbfbf" points="167.5,-58.5 167.5,-79.5 216.5,-79.5 216.5,-58.5 167.5,-58.5"/>
<text text-anchor="middle" x="192" y="-66.5" font-family="Helvetica,sans-Serif" font-size="10.00">ctype.h</text>
</g>
<!-- Node1&#45;&gt;Node5 -->
<g id="edge8" class="edge"><title>Node1&#45;&gt;Node5</title>
<path fill="none" stroke="midnightblue" d="M218.947,-116.362C214.528,-108.595 208.41,-97.8426 203.121,-88.5458"/>
<polygon fill="midnightblue" stroke="midnightblue" points="206.002,-86.5315 198.014,-79.5707 199.918,-89.9932 206.002,-86.5315"/>
</g>
<!-- Node6 -->
<g id="node11" class="node"><title>Node6</title>
<polygon fill="white" stroke="#bfbfbf" points="233.5,-58.5 233.5,-79.5 282.5,-79.5 282.5,-58.5 233.5,-58.5"/>
<text text-anchor="middle" x="258" y="-66.5" font-family="Helvetica,sans-Serif" font-size="10.00">dirent.h</text>
</g>
<!-- Node1&#45;&gt;Node6 -->
<g id="edge10" class="edge"><title>Node1&#45;&gt;Node6</title>
<path fill="none" stroke="midnightblue" d="M231.053,-116.362C235.472,-108.595 241.59,-97.8426 246.879,-88.5458"/>
<polygon fill="midnightblue" stroke="midnightblue" points="250.082,-89.9932 251.986,-79.5707 243.998,-86.5315 250.082,-89.9932"/>
</g>
<!-- Node7 -->
<g id="node13" class="node"><title>Node7</title>
<polygon fill="white" stroke="#bfbfbf" points="299.5,-58.5 299.5,-79.5 346.5,-79.5 346.5,-58.5 299.5,-58.5"/>
<text text-anchor="middle" x="323" y="-66.5" font-family="Helvetica,sans-Serif" font-size="10.00">errno.h</text>
</g>
<!-- Node1&#45;&gt;Node7 -->
<g id="edge12" class="edge"><title>Node1&#45;&gt;Node7</title>
<path fill="none" stroke="midnightblue" d="M242.975,-116.362C257.894,-107.532 279.333,-94.844 296.266,-84.8224"/>
<polygon fill="midnightblue" stroke="midnightblue" points="298.316,-87.6759 305.139,-79.5707 294.751,-81.6519 298.316,-87.6759"/>
</g>
<!-- Node8 -->
<g id="node15" class="node"><title>Node8</title>
<polygon fill="white" stroke="#bfbfbf" points="364,-58.5 364,-79.5 412,-79.5 412,-58.5 364,-58.5"/>
<text text-anchor="middle" x="388" y="-66.5" font-family="Helvetica,sans-Serif" font-size="10.00">stdlib.h</text>
</g>
<!-- Node1&#45;&gt;Node8 -->
<g id="edge14" class="edge"><title>Node1&#45;&gt;Node8</title>
<path fill="none" stroke="midnightblue" d="M251.552,-117.552C279.513,-107.603 323.628,-91.9054 354.09,-81.0663"/>
<polygon fill="midnightblue" stroke="midnightblue" points="355.606,-84.2419 363.854,-77.592 353.259,-77.647 355.606,-84.2419"/>
</g>
<!-- Node9 -->
<g id="node18" class="node"><title>Node9</title>
<polygon fill="white" stroke="#bfbfbf" points="429.5,-58.5 429.5,-79.5 480.5,-79.5 480.5,-58.5 429.5,-58.5"/>
<text text-anchor="middle" x="455" y="-66.5" font-family="Helvetica,sans-Serif" font-size="10.00">unistd.h</text>
</g>
<!-- Node1&#45;&gt;Node9 -->
<g id="edge18" class="edge"><title>Node1&#45;&gt;Node9</title>
<path fill="none" stroke="midnightblue" d="M251.799,-121.265C287.927,-113.385 354.425,-98.3568 419.81,-80.2032"/>
<polygon fill="midnightblue" stroke="midnightblue" points="420.761,-83.5716 429.445,-77.5026 418.871,-76.8314 420.761,-83.5716"/>
</g>
<!-- Node2&#45;&gt;Node3 -->
<g id="edge4" class="edge"><title>Node2&#45;&gt;Node3</title>
<path fill="none" stroke="midnightblue" d="M25.402,-58.3619C28.5821,-50.6766 32.9716,-40.0686 36.7904,-30.8399"/>
<polygon fill="midnightblue" stroke="midnightblue" points="40.0364,-32.1491 40.6259,-21.5707 33.5683,-29.4726 40.0364,-32.1491"/>
</g>
</g>
</svg>
