<?xml version="1.0" encoding="UTF-8" standalone="no"?>
<!DOCTYPE svg PUBLIC "-//W3C//DTD SVG 1.1//EN"
 "http://www.w3.org/Graphics/SVG/1.1/DTD/svg11.dtd">
<!-- Generated by graphviz version 2.26.3 (20100126.1600)
 -->
<!-- Title: G Pages: 1 -->
<svg width="231pt" height="180pt"
 viewBox="0.00 0.00 231.00 180.00" xmlns="http://www.w3.org/2000/svg" xmlns:xlink="http://www.w3.org/1999/xlink">
<g id="graph1" class="graph" transform="scale(1 1) rotate(0) translate(4 176)">
<title>G</title>
<polygon fill="white" stroke="white" points="-4,5 -4,-176 228,-176 228,5 -4,5"/>
<!-- Node1 -->
<g id="node1" class="node"><title>Node1</title>
<polygon fill="#bfbfbf" stroke="black" points="0,-0.5 0,-21.5 74,-21.5 74,-0.5 0,-0.5"/>
<text text-anchor="middle" x="37" y="-8.5" font-family="Helvetica,sans-Serif" font-size="10.00">nsITelemetry</text>
</g>
<!-- Node2 -->
<g id="node2" class="node"><title>Node2</title>
<a xlink:href="../../d4/d6a/classns_i_supports.html" target="_top" xlink:title="nsISupports">
<polygon fill="white" stroke="black" points="2.5,-150.5 2.5,-171.5 71.5,-171.5 71.5,-150.5 2.5,-150.5"/>
<text text-anchor="middle" x="37" y="-158.5" font-family="Helvetica,sans-Serif" font-size="10.00">nsISupports</text>
</a>
</g>
<!-- Node2&#45;&gt;Node1 -->
<g id="edge2" class="edge"><title>Node2&#45;&gt;Node1</title>
<path fill="none" stroke="midnightblue" d="M32.146,-140.041C29.2758,-107.588 29.6643,-46.3507 33.3115,-21.6899"/>
<polygon fill="midnightblue" stroke="midnightblue" points="28.6947,-140.669 33.2971,-150.212 35.6503,-139.882 28.6947,-140.669"/>
</g>
<!-- Node2&#45;&gt;Node1 -->
<g id="edge4" class="edge"><title>Node2&#45;&gt;Node1</title>
<path fill="none" stroke="midnightblue" d="M41.854,-140.041C44.7242,-107.588 44.3357,-46.3507 40.6885,-21.6899"/>
<polygon fill="midnightblue" stroke="midnightblue" points="38.3497,-139.882 40.7029,-150.212 45.3053,-140.669 38.3497,-139.882"/>
</g>
<!-- Node3 -->
<g id="node5" class="node"><title>Node3</title>
<a xlink:href="../../d1/d94/class_j_s_1_1_value.html" target="_top" xlink:title="JS::Value">
<polygon fill="white" stroke="black" points="88.5,-150.5 88.5,-171.5 147.5,-171.5 147.5,-150.5 88.5,-150.5"/>
<text text-anchor="middle" x="118" y="-158.5" font-family="Helvetica,sans-Serif" font-size="10.00">JS::Value</text>
</a>
</g>
<!-- Node3&#45;&gt;Node1 -->
<g id="edge6" class="edge"><title>Node3&#45;&gt;Node1</title>
<path fill="none" stroke="#9a32cd" stroke-dasharray="5,2" d="M109.981,-140.849C99.8198,-116.231 81.0716,-73.7031 60,-40 55.9802,-33.5706 50.7795,-26.9068 46.3406,-21.5908"/>
<polygon fill="#9a32cd" stroke="#9a32cd" points="106.784,-142.278 113.792,-150.225 113.269,-139.643 106.784,-142.278"/>
<text text-anchor="middle" x="164" y="-122.5" font-family="Helvetica,sans-Serif" font-size="10.00"> slowSQL</text>
<text text-anchor="middle" x="164" y="-109.5" font-family="Helvetica,sans-Serif" font-size="10.00">debugSlowSQL</text>
<text text-anchor="middle" x="164" y="-96.5" font-family="Helvetica,sans-Serif" font-size="10.00">registeredHistograms</text>
<text text-anchor="middle" x="164" y="-83.5" font-family="Helvetica,sans-Serif" font-size="10.00">lateWrites</text>
<text text-anchor="middle" x="164" y="-70.5" font-family="Helvetica,sans-Serif" font-size="10.00">histogramSnapshots</text>
<text text-anchor="middle" x="164" y="-57.5" font-family="Helvetica,sans-Serif" font-size="10.00">addonHistogramSnapshots</text>
<text text-anchor="middle" x="164" y="-44.5" font-family="Helvetica,sans-Serif" font-size="10.00">chromeHangs</text>
</g>
</g>
</svg>
