<?xml version="1.0" encoding="UTF-8" standalone="no"?>
<!DOCTYPE svg PUBLIC "-//W3C//DTD SVG 1.1//EN"
 "http://www.w3.org/Graphics/SVG/1.1/DTD/svg11.dtd">
<!-- Generated by graphviz version 2.26.3 (20100126.1600)
 -->
<!-- Title: G Pages: 1 -->
<svg width="290pt" height="150pt"
 viewBox="0.00 0.00 290.00 150.00" xmlns="http://www.w3.org/2000/svg" xmlns:xlink="http://www.w3.org/1999/xlink">
<g id="graph1" class="graph" transform="scale(1 1) rotate(0) translate(4 146)">
<title>G</title>
<polygon fill="white" stroke="white" points="-4,5 -4,-146 287,-146 287,5 -4,5"/>
<!-- Node1 -->
<g id="node1" class="node"><title>Node1</title>
<polygon fill="#bfbfbf" stroke="black" points="0.5,-40.5 0.5,-61.5 91.5,-61.5 91.5,-40.5 0.5,-40.5"/>
<text text-anchor="middle" x="46" y="-48.5" font-family="Helvetica,sans-Serif" font-size="10.00">core_hmac_sha1</text>
</g>
<!-- Node2 -->
<g id="node3" class="node"><title>Node2</title>
<a xlink:href="../../da/d5b/showcase__apps_2twittershare_2js_2ext_2sha1_8js.html#a284960934b2f67a0db33ee396a05cff7" target="_top" xlink:title="core_sha1">
<polygon fill="white" stroke="black" points="128,-60.5 128,-81.5 190,-81.5 190,-60.5 128,-60.5"/>
<text text-anchor="middle" x="159" y="-68.5" font-family="Helvetica,sans-Serif" font-size="10.00">core_sha1</text>
</a>
</g>
<!-- Node1&#45;&gt;Node2 -->
<g id="edge2" class="edge"><title>Node1&#45;&gt;Node2</title>
<path fill="none" stroke="midnightblue" d="M91.6357,-59.0771C100.258,-60.6032 109.231,-62.1914 117.711,-63.6921"/>
<polygon fill="midnightblue" stroke="midnightblue" points="117.295,-67.1729 127.752,-65.4693 118.515,-60.28 117.295,-67.1729"/>
</g>
<!-- Node7 -->
<g id="node13" class="node"><title>Node7</title>
<a xlink:href="../../da/d5b/showcase__apps_2twittershare_2js_2ext_2sha1_8js.html#a031bc28943f4a2eeebb6995532605d82" target="_top" xlink:title="str2binb">
<polygon fill="white" stroke="black" points="133.5,-20.5 133.5,-41.5 184.5,-41.5 184.5,-20.5 133.5,-20.5"/>
<text text-anchor="middle" x="159" y="-28.5" font-family="Helvetica,sans-Serif" font-size="10.00">str2binb</text>
</a>
</g>
<!-- Node1&#45;&gt;Node7 -->
<g id="edge12" class="edge"><title>Node1&#45;&gt;Node7</title>
<path fill="none" stroke="midnightblue" d="M91.6357,-42.9229C102.183,-41.0562 113.255,-39.0965 123.306,-37.3176"/>
<polygon fill="midnightblue" stroke="midnightblue" points="124.108,-40.73 133.345,-35.5407 122.888,-33.8371 124.108,-40.73"/>
</g>
<!-- Node3 -->
<g id="node5" class="node"><title>Node3</title>
<a xlink:href="../../da/d5b/showcase__apps_2twittershare_2js_2ext_2sha1_8js.html#acebf897e9468e4952ed0e5352b22c2b1" target="_top" xlink:title="safe_add">
<polygon fill="white" stroke="black" points="226,-120.5 226,-141.5 282,-141.5 282,-120.5 226,-120.5"/>
<text text-anchor="middle" x="254" y="-128.5" font-family="Helvetica,sans-Serif" font-size="10.00">safe_add</text>
</a>
</g>
<!-- Node2&#45;&gt;Node3 -->
<g id="edge4" class="edge"><title>Node2&#45;&gt;Node3</title>
<path fill="none" stroke="midnightblue" d="M175.984,-81.7268C190.574,-90.9415 211.825,-104.363 228.465,-114.872"/>
<polygon fill="midnightblue" stroke="midnightblue" points="226.839,-117.985 237.163,-120.366 230.577,-112.067 226.839,-117.985"/>
</g>
<!-- Node4 -->
<g id="node7" class="node"><title>Node4</title>
<a xlink:href="../../da/d5b/showcase__apps_2twittershare_2js_2ext_2sha1_8js.html#acd7460ea9c9080454bf6e65fc6c4ebc9" target="_top" xlink:title="sha1_ft">
<polygon fill="white" stroke="black" points="229.5,-80.5 229.5,-101.5 278.5,-101.5 278.5,-80.5 229.5,-80.5"/>
<text text-anchor="middle" x="254" y="-88.5" font-family="Helvetica,sans-Serif" font-size="10.00">sha1_ft</text>
</a>
</g>
<!-- Node2&#45;&gt;Node4 -->
<g id="edge6" class="edge"><title>Node2&#45;&gt;Node4</title>
<path fill="none" stroke="midnightblue" d="M190.107,-77.5487C199.485,-79.5232 209.835,-81.7022 219.425,-83.7211"/>
<polygon fill="midnightblue" stroke="midnightblue" points="218.944,-87.1964 229.45,-85.8316 220.386,-80.3465 218.944,-87.1964"/>
</g>
<!-- Node5 -->
<g id="node9" class="node"><title>Node5</title>
<a xlink:href="../../da/d5b/showcase__apps_2twittershare_2js_2ext_2sha1_8js.html#af92f6b34cf1f05a6f4eb633925413c62" target="_top" xlink:title="rol">
<polygon fill="white" stroke="black" points="239.5,-40.5 239.5,-61.5 268.5,-61.5 268.5,-40.5 239.5,-40.5"/>
<text text-anchor="middle" x="254" y="-48.5" font-family="Helvetica,sans-Serif" font-size="10.00">rol</text>
</a>
</g>
<!-- Node2&#45;&gt;Node5 -->
<g id="edge8" class="edge"><title>Node2&#45;&gt;Node5</title>
<path fill="none" stroke="midnightblue" d="M190.107,-64.4513C202.784,-61.7823 217.238,-58.7394 229.188,-56.2237"/>
<polygon fill="midnightblue" stroke="midnightblue" points="230.271,-59.5724 239.335,-54.0873 228.829,-52.7226 230.271,-59.5724"/>
</g>
<!-- Node6 -->
<g id="node11" class="node"><title>Node6</title>
<a xlink:href="../../da/d5b/showcase__apps_2twittershare_2js_2ext_2sha1_8js.html#a5bc010df0d101d6e25144a8be8f01583" target="_top" xlink:title="sha1_kt">
<polygon fill="white" stroke="black" points="228.5,-0.5 228.5,-21.5 279.5,-21.5 279.5,-0.5 228.5,-0.5"/>
<text text-anchor="middle" x="254" y="-8.5" font-family="Helvetica,sans-Serif" font-size="10.00">sha1_kt</text>
</a>
</g>
<!-- Node2&#45;&gt;Node6 -->
<g id="edge10" class="edge"><title>Node2&#45;&gt;Node6</title>
<path fill="none" stroke="midnightblue" d="M175.984,-60.2732C190.574,-51.0585 211.825,-37.6367 228.465,-27.1275"/>
<polygon fill="midnightblue" stroke="midnightblue" points="230.577,-29.9331 237.163,-21.6339 226.839,-24.0147 230.577,-29.9331"/>
</g>
</g>
</svg>
