<?xml version="1.0" encoding="UTF-8" standalone="no"?>
<!DOCTYPE svg PUBLIC "-//W3C//DTD SVG 1.1//EN"
 "http://www.w3.org/Graphics/SVG/1.1/DTD/svg11.dtd">
<!-- Generated by graphviz version 2.26.3 (20100126.1600)
 -->
<!-- Title: G Pages: 1 -->
<svg width="352pt" height="204pt"
 viewBox="0.00 0.00 352.00 204.00" xmlns="http://www.w3.org/2000/svg" xmlns:xlink="http://www.w3.org/1999/xlink">
<g id="graph1" class="graph" transform="scale(1 1) rotate(0) translate(4 200)">
<title>G</title>
<polygon fill="white" stroke="white" points="-4,5 -4,-200 349,-200 349,5 -4,5"/>
<!-- Node1 -->
<g id="node1" class="node"><title>Node1</title>
<polygon fill="#bfbfbf" stroke="black" points="93,-0.5 93,-21.5 251,-21.5 251,-0.5 93,-0.5"/>
<text text-anchor="middle" x="172" y="-8.5" font-family="Helvetica,sans-Serif" font-size="10.00">mozilla::gfx::DataSourceSurface</text>
</g>
<!-- Node2 -->
<g id="node2" class="node"><title>Node2</title>
<a xlink:href="../../da/df8/classmozilla_1_1gfx_1_1_source_surface.html" target="_top" xlink:title="mozilla::gfx::SourceSurface">
<polygon fill="white" stroke="black" points="103.5,-58.5 103.5,-79.5 240.5,-79.5 240.5,-58.5 103.5,-58.5"/>
<text text-anchor="middle" x="172" y="-66.5" font-family="Helvetica,sans-Serif" font-size="10.00">mozilla::gfx::SourceSurface</text>
</a>
</g>
<!-- Node2&#45;&gt;Node1 -->
<g id="edge2" class="edge"><title>Node2&#45;&gt;Node1</title>
<path fill="none" stroke="midnightblue" d="M172,-48.1906C172,-39.1684 172,-28.9941 172,-21.5707"/>
<polygon fill="midnightblue" stroke="midnightblue" points="168.5,-48.3619 172,-58.3619 175.5,-48.3619 168.5,-48.3619"/>
</g>
<!-- Node3 -->
<g id="node4" class="node"><title>Node3</title>
<a xlink:href="../../d2/de4/classmozilla_1_1_ref_counted.html" target="_top" xlink:title="mozilla::RefCounted\&lt; SourceSurface \&gt;">
<polygon fill="white" stroke="black" points="78,-116.5 78,-137.5 266,-137.5 266,-116.5 78,-116.5"/>
<text text-anchor="middle" x="172" y="-124.5" font-family="Helvetica,sans-Serif" font-size="10.00">mozilla::RefCounted&lt; SourceSurface &gt;</text>
</a>
</g>
<!-- Node3&#45;&gt;Node2 -->
<g id="edge4" class="edge"><title>Node3&#45;&gt;Node2</title>
<path fill="none" stroke="midnightblue" d="M172,-106.191C172,-97.1684 172,-86.9941 172,-79.5707"/>
<polygon fill="midnightblue" stroke="midnightblue" points="168.5,-106.362 172,-116.362 175.5,-106.362 168.5,-106.362"/>
</g>
<!-- Node4 -->
<g id="node6" class="node"><title>Node4</title>
<a xlink:href="../../df/d3c/classmozilla_1_1detail_1_1_ref_counted.html" target="_top" xlink:title="mozilla::detail::RefCounted\&lt; SourceSurface, detail::NonAtomicRefCount \&gt;">
<polygon fill="white" stroke="black" points="0,-174.5 0,-195.5 344,-195.5 344,-174.5 0,-174.5"/>
<text text-anchor="middle" x="172" y="-182.5" font-family="Helvetica,sans-Serif" font-size="10.00">mozilla::detail::RefCounted&lt; SourceSurface, detail::NonAtomicRefCount &gt;</text>
</a>
</g>
<!-- Node4&#45;&gt;Node3 -->
<g id="edge6" class="edge"><title>Node4&#45;&gt;Node3</title>
<path fill="none" stroke="midnightblue" d="M172,-164.191C172,-155.168 172,-144.994 172,-137.571"/>
<polygon fill="midnightblue" stroke="midnightblue" points="168.5,-164.362 172,-174.362 175.5,-164.362 168.5,-164.362"/>
</g>
</g>
</svg>
