<?xml version="1.0" encoding="UTF-8" standalone="no"?>
<!DOCTYPE svg PUBLIC "-//W3C//DTD SVG 1.1//EN"
 "http://www.w3.org/Graphics/SVG/1.1/DTD/svg11.dtd">
<!-- Generated by graphviz version 2.26.3 (20100126.1600)
 -->
<!-- Title: G Pages: 1 -->
<svg width="180pt" height="262pt"
 viewBox="0.00 0.00 180.00 262.00" xmlns="http://www.w3.org/2000/svg" xmlns:xlink="http://www.w3.org/1999/xlink">
<g id="graph1" class="graph" transform="scale(1 1) rotate(0) translate(4 258)">
<title>G</title>
<polygon fill="white" stroke="white" points="-4,5 -4,-258 177,-258 177,5 -4,5"/>
<!-- Node1 -->
<g id="node1" class="node"><title>Node1</title>
<polygon fill="#bfbfbf" stroke="black" points="21.5,-116.5 21.5,-137.5 150.5,-137.5 150.5,-116.5 21.5,-116.5"/>
<text text-anchor="middle" x="86" y="-124.5" font-family="Helvetica,sans-Serif" font-size="10.00">nsDisplayImageContainer</text>
</g>
<!-- Node4 -->
<g id="node7" class="node"><title>Node4</title>
<a xlink:href="../../d2/deb/classns_display_background_image.html" target="_top" xlink:title="nsDisplayBackgroundImage">
<polygon fill="white" stroke="black" points="16.5,-58.5 16.5,-79.5 155.5,-79.5 155.5,-58.5 16.5,-58.5"/>
<text text-anchor="middle" x="86" y="-66.5" font-family="Helvetica,sans-Serif" font-size="10.00">nsDisplayBackgroundImage</text>
</a>
</g>
<!-- Node1&#45;&gt;Node4 -->
<g id="edge6" class="edge"><title>Node1&#45;&gt;Node4</title>
<path fill="none" stroke="midnightblue" d="M86,-106.191C86,-97.1684 86,-86.9941 86,-79.5707"/>
<polygon fill="midnightblue" stroke="midnightblue" points="82.5001,-106.362 86,-116.362 89.5001,-106.362 82.5001,-106.362"/>
</g>
<!-- Node2 -->
<g id="node2" class="node"><title>Node2</title>
<a xlink:href="../../db/d9b/classns_display_item.html" target="_top" xlink:title="nsDisplayItem">
<polygon fill="white" stroke="black" points="46,-174.5 46,-195.5 126,-195.5 126,-174.5 46,-174.5"/>
<text text-anchor="middle" x="86" y="-182.5" font-family="Helvetica,sans-Serif" font-size="10.00">nsDisplayItem</text>
</a>
</g>
<!-- Node2&#45;&gt;Node1 -->
<g id="edge2" class="edge"><title>Node2&#45;&gt;Node1</title>
<path fill="none" stroke="midnightblue" d="M86,-164.191C86,-155.168 86,-144.994 86,-137.571"/>
<polygon fill="midnightblue" stroke="midnightblue" points="82.5001,-164.362 86,-174.362 89.5001,-164.362 82.5001,-164.362"/>
</g>
<!-- Node3 -->
<g id="node4" class="node"><title>Node3</title>
<a xlink:href="../../d7/d5b/classns_display_item_link.html" target="_top" xlink:title="nsDisplayItemLink">
<polygon fill="white" stroke="black" points="37,-232.5 37,-253.5 135,-253.5 135,-232.5 37,-232.5"/>
<text text-anchor="middle" x="86" y="-240.5" font-family="Helvetica,sans-Serif" font-size="10.00">nsDisplayItemLink</text>
</a>
</g>
<!-- Node3&#45;&gt;Node2 -->
<g id="edge4" class="edge"><title>Node3&#45;&gt;Node2</title>
<path fill="none" stroke="midnightblue" d="M86,-222.191C86,-213.168 86,-202.994 86,-195.571"/>
<polygon fill="midnightblue" stroke="midnightblue" points="82.5001,-222.362 86,-232.362 89.5001,-222.362 82.5001,-222.362"/>
</g>
<!-- Node5 -->
<g id="node9" class="node"><title>Node5</title>
<a xlink:href="../../d4/d10/classns_display_canvas_background_image.html" target="_top" xlink:title="nsDisplayCanvasBackgroundImage">
<polygon fill="white" stroke="black" points="-0.5,-0.5 -0.5,-21.5 172.5,-21.5 172.5,-0.5 -0.5,-0.5"/>
<text text-anchor="middle" x="86" y="-8.5" font-family="Helvetica,sans-Serif" font-size="10.00">nsDisplayCanvasBackgroundImage</text>
</a>
</g>
<!-- Node4&#45;&gt;Node5 -->
<g id="edge8" class="edge"><title>Node4&#45;&gt;Node5</title>
<path fill="none" stroke="midnightblue" d="M86,-48.1906C86,-39.1684 86,-28.9941 86,-21.5707"/>
<polygon fill="midnightblue" stroke="midnightblue" points="82.5001,-48.3619 86,-58.3619 89.5001,-48.3619 82.5001,-48.3619"/>
</g>
</g>
</svg>
