<?xml version="1.0" encoding="UTF-8" standalone="no"?>
<!DOCTYPE svg PUBLIC "-//W3C//DTD SVG 1.1//EN"
 "http://www.w3.org/Graphics/SVG/1.1/DTD/svg11.dtd">
<!-- Generated by graphviz version 2.26.3 (20100126.1600)
 -->
<!-- Title: G Pages: 1 -->
<svg width="240pt" height="146pt"
 viewBox="0.00 0.00 240.00 146.00" xmlns="http://www.w3.org/2000/svg" xmlns:xlink="http://www.w3.org/1999/xlink">
<g id="graph1" class="graph" transform="scale(1 1) rotate(0) translate(4 142)">
<title>G</title>
<polygon fill="white" stroke="white" points="-4,5 -4,-142 237,-142 237,5 -4,5"/>
<!-- Node1 -->
<g id="node1" class="node"><title>Node1</title>
<polygon fill="#bfbfbf" stroke="black" points="76.5,-58.5 76.5,-79.5 161.5,-79.5 161.5,-58.5 76.5,-58.5"/>
<text text-anchor="middle" x="119" y="-66.5" font-family="Helvetica,sans-Serif" font-size="10.00">nsIASN1Object</text>
</g>
<!-- Node3 -->
<g id="node6" class="node"><title>Node3</title>
<a xlink:href="../../d6/d95/interfacens_i_a_s_n1_printable_item.html" target="_top" xlink:title="nsIASN1PrintableItem">
<polygon fill="white" stroke="black" points="0,-0.5 0,-21.5 114,-21.5 114,-0.5 0,-0.5"/>
<text text-anchor="middle" x="57" y="-8.5" font-family="Helvetica,sans-Serif" font-size="10.00">nsIASN1PrintableItem</text>
</a>
</g>
<!-- Node1&#45;&gt;Node3 -->
<g id="edge6" class="edge"><title>Node1&#45;&gt;Node3</title>
<path fill="none" stroke="midnightblue" d="M94.2602,-51.6908C82.887,-41.8996 70.4327,-29.973 62.9476,-21.5707"/>
<polygon fill="midnightblue" stroke="midnightblue" points="92.3416,-54.6479 102.264,-58.3619 96.8234,-49.2708 92.3416,-54.6479"/>
</g>
<!-- Node1&#45;&gt;Node3 -->
<g id="edge8" class="edge"><title>Node1&#45;&gt;Node3</title>
<path fill="none" stroke="midnightblue" d="M105.89,-50.8299C96.4165,-41.2078 83.825,-29.7282 73.6518,-21.5707"/>
<polygon fill="midnightblue" stroke="midnightblue" points="103.585,-53.4877 112.992,-58.3619 108.678,-48.6852 103.585,-53.4877"/>
</g>
<!-- Node4 -->
<g id="node9" class="node"><title>Node4</title>
<a xlink:href="../../da/d8d/interfacens_i_a_s_n1_sequence.html" target="_top" xlink:title="nsIASN1Sequence">
<polygon fill="white" stroke="black" points="132,-0.5 132,-21.5 232,-21.5 232,-0.5 132,-0.5"/>
<text text-anchor="middle" x="182" y="-8.5" font-family="Helvetica,sans-Serif" font-size="10.00">nsIASN1Sequence</text>
</a>
</g>
<!-- Node1&#45;&gt;Node4 -->
<g id="edge10" class="edge"><title>Node1&#45;&gt;Node4</title>
<path fill="none" stroke="midnightblue" d="M132.135,-51.118C141.807,-41.4377 154.749,-29.8098 165.166,-21.5707"/>
<polygon fill="midnightblue" stroke="midnightblue" points="129.585,-48.721 125.191,-58.3619 134.638,-53.5651 129.585,-48.721"/>
</g>
<!-- Node1&#45;&gt;Node4 -->
<g id="edge12" class="edge"><title>Node1&#45;&gt;Node4</title>
<path fill="none" stroke="midnightblue" d="M143.702,-51.9753C155.334,-42.1315 168.166,-30.0545 175.87,-21.5707"/>
<polygon fill="midnightblue" stroke="midnightblue" points="141.43,-49.3127 135.919,-58.3619 145.87,-54.7241 141.43,-49.3127"/>
</g>
<!-- Node2 -->
<g id="node2" class="node"><title>Node2</title>
<a xlink:href="../../d4/d6a/classns_i_supports.html" target="_top" xlink:title="nsISupports">
<polygon fill="white" stroke="black" points="84.5,-116.5 84.5,-137.5 153.5,-137.5 153.5,-116.5 84.5,-116.5"/>
<text text-anchor="middle" x="119" y="-124.5" font-family="Helvetica,sans-Serif" font-size="10.00">nsISupports</text>
</a>
</g>
<!-- Node2&#45;&gt;Node1 -->
<g id="edge2" class="edge"><title>Node2&#45;&gt;Node1</title>
<path fill="none" stroke="midnightblue" d="M112.495,-106.191C111.941,-97.1684 112.326,-86.9941 113.648,-79.5707"/>
<polygon fill="midnightblue" stroke="midnightblue" points="109.043,-106.814 113.636,-116.362 116,-106.034 109.043,-106.814"/>
</g>
<!-- Node2&#45;&gt;Node1 -->
<g id="edge4" class="edge"><title>Node2&#45;&gt;Node1</title>
<path fill="none" stroke="midnightblue" d="M125.505,-106.191C126.059,-97.1684 125.674,-86.9941 124.352,-79.5707"/>
<polygon fill="midnightblue" stroke="midnightblue" points="122,-106.034 124.364,-116.362 128.957,-106.814 122,-106.034"/>
</g>
</g>
</svg>
