<?xml version="1.0" encoding="UTF-8" standalone="no"?>
<!DOCTYPE svg PUBLIC "-//W3C//DTD SVG 1.1//EN"
 "http://www.w3.org/Graphics/SVG/1.1/DTD/svg11.dtd">
<!-- Generated by graphviz version 2.26.3 (20100126.1600)
 -->
<!-- Title: G Pages: 1 -->
<svg width="468pt" height="70pt"
 viewBox="0.00 0.00 468.00 70.00" xmlns="http://www.w3.org/2000/svg" xmlns:xlink="http://www.w3.org/1999/xlink">
<g id="graph1" class="graph" transform="scale(1 1) rotate(0) translate(4 66)">
<title>G</title>
<polygon fill="white" stroke="white" points="-4,5 -4,-66 465,-66 465,5 -4,5"/>
<!-- Node1 -->
<g id="node1" class="node"><title>Node1</title>
<polygon fill="#bfbfbf" stroke="black" points="0,-20.5 0,-41.5 218,-41.5 218,-20.5 0,-20.5"/>
<text text-anchor="middle" x="109" y="-28.5" font-family="Helvetica,sans-Serif" font-size="10.00">nsPIDOMWindow::GetOuterFromCurrentInner</text>
</g>
<!-- Node2 -->
<g id="node3" class="node"><title>Node2</title>
<a xlink:href="../../d5/d4d/classns_p_i_d_o_m_window.html#aed8103feaea9243118a323838f4ad1f8" target="_top" xlink:title="nsPIDOMWindow::GetCurrentInnerWindow">
<polygon fill="white" stroke="black" points="254,-40.5 254,-61.5 460,-61.5 460,-40.5 254,-40.5"/>
<text text-anchor="middle" x="357" y="-48.5" font-family="Helvetica,sans-Serif" font-size="10.00">nsPIDOMWindow::GetCurrentInnerWindow</text>
</a>
</g>
<!-- Node1&#45;&gt;Node2 -->
<g id="edge2" class="edge"><title>Node1&#45;&gt;Node2</title>
<path fill="none" stroke="midnightblue" d="M218.137,-39.8014C226.545,-40.4794 235.044,-41.1649 243.479,-41.8451"/>
<polygon fill="midnightblue" stroke="midnightblue" points="243.475,-45.3561 253.724,-42.6713 244.038,-38.3787 243.475,-45.3561"/>
</g>
<!-- Node3 -->
<g id="node5" class="node"><title>Node3</title>
<a xlink:href="../../d5/d4d/classns_p_i_d_o_m_window.html#a82e8f5222e3c91c6d80ec6ce53f643b7" target="_top" xlink:title="nsPIDOMWindow::GetOuterWindow">
<polygon fill="white" stroke="black" points="269,-0.5 269,-21.5 445,-21.5 445,-0.5 269,-0.5"/>
<text text-anchor="middle" x="357" y="-8.5" font-family="Helvetica,sans-Serif" font-size="10.00">nsPIDOMWindow::GetOuterWindow</text>
</a>
</g>
<!-- Node1&#45;&gt;Node3 -->
<g id="edge4" class="edge"><title>Node1&#45;&gt;Node3</title>
<path fill="none" stroke="midnightblue" d="M218.137,-22.1986C231.6,-21.1129 245.299,-20.0082 258.588,-18.9364"/>
<polygon fill="midnightblue" stroke="midnightblue" points="258.974,-22.4168 268.66,-18.1242 258.411,-15.4394 258.974,-22.4168"/>
</g>
</g>
</svg>
