<?xml version="1.0" encoding="UTF-8" standalone="no"?>
<!DOCTYPE svg PUBLIC "-//W3C//DTD SVG 1.1//EN"
 "http://www.w3.org/Graphics/SVG/1.1/DTD/svg11.dtd">
<!-- Generated by graphviz version 2.26.3 (20100126.1600)
 -->
<!-- Title: G Pages: 1 -->
<svg width="438pt" height="30pt"
 viewBox="0.00 0.00 438.00 30.00" xmlns="http://www.w3.org/2000/svg" xmlns:xlink="http://www.w3.org/1999/xlink">
<g id="graph1" class="graph" transform="scale(1 1) rotate(0) translate(4 26)">
<title>G</title>
<polygon fill="white" stroke="white" points="-4,5 -4,-26 435,-26 435,5 -4,5"/>
<!-- Node1 -->
<g id="node1" class="node"><title>Node1</title>
<polygon fill="#bfbfbf" stroke="black" points="0.5,-0.5 0.5,-21.5 131.5,-21.5 131.5,-0.5 0.5,-0.5"/>
<text text-anchor="middle" x="66" y="-8.5" font-family="Helvetica,sans-Serif" font-size="10.00">SkRandom::nextUScalar1</text>
</g>
<!-- Node2 -->
<g id="node3" class="node"><title>Node2</title>
<a xlink:href="../../de/d48/class_sk_random.html#a14d548966bbdb6407e01362ff143b23a" target="_top" xlink:title="SkRandom::nextUFixed1">
<polygon fill="white" stroke="black" points="168.5,-0.5 168.5,-21.5 295.5,-21.5 295.5,-0.5 168.5,-0.5"/>
<text text-anchor="middle" x="232" y="-8.5" font-family="Helvetica,sans-Serif" font-size="10.00">SkRandom::nextUFixed1</text>
</a>
</g>
<!-- Node1&#45;&gt;Node2 -->
<g id="edge2" class="edge"><title>Node1&#45;&gt;Node2</title>
<path fill="none" stroke="midnightblue" d="M131.608,-11C140.431,-11 149.528,-11 158.477,-11"/>
<polygon fill="midnightblue" stroke="midnightblue" points="158.495,-14.5001 168.495,-11 158.495,-7.5001 158.495,-14.5001"/>
</g>
<!-- Node3 -->
<g id="node5" class="node"><title>Node3</title>
<a xlink:href="../../de/d48/class_sk_random.html#a0ee2b238ff494b4a112f3e24dc5a5545" target="_top" xlink:title="SkRandom::nextU">
<polygon fill="white" stroke="black" points="332,-0.5 332,-21.5 430,-21.5 430,-0.5 332,-0.5"/>
<text text-anchor="middle" x="381" y="-8.5" font-family="Helvetica,sans-Serif" font-size="10.00">SkRandom::nextU</text>
</a>
</g>
<!-- Node2&#45;&gt;Node3 -->
<g id="edge4" class="edge"><title>Node2&#45;&gt;Node3</title>
<path fill="none" stroke="midnightblue" d="M295.622,-11C304.169,-11 312.912,-11 321.386,-11"/>
<polygon fill="midnightblue" stroke="midnightblue" points="321.56,-14.5001 331.56,-11 321.56,-7.5001 321.56,-14.5001"/>
</g>
</g>
</svg>
