<?xml version="1.0" encoding="UTF-8" standalone="no"?>
<!DOCTYPE svg PUBLIC "-//W3C//DTD SVG 1.1//EN"
 "http://www.w3.org/Graphics/SVG/1.1/DTD/svg11.dtd">
<!-- Generated by graphviz version 2.26.3 (20100126.1600)
 -->
<!-- Title: G Pages: 1 -->
<svg width="434pt" height="70pt"
 viewBox="0.00 0.00 434.00 70.00" xmlns="http://www.w3.org/2000/svg" xmlns:xlink="http://www.w3.org/1999/xlink">
<g id="graph1" class="graph" transform="scale(1 1) rotate(0) translate(4 66)">
<title>G</title>
<polygon fill="white" stroke="white" points="-4,5 -4,-66 431,-66 431,5 -4,5"/>
<!-- Node1 -->
<g id="node1" class="node"><title>Node1</title>
<polygon fill="#bfbfbf" stroke="black" points="0.5,-20.5 0.5,-41.5 75.5,-41.5 75.5,-20.5 0.5,-20.5"/>
<text text-anchor="middle" x="38" y="-28.5" font-family="Helvetica,sans-Serif" font-size="10.00">NSToIntFloor</text>
</g>
<!-- Node2 -->
<g id="node3" class="node"><title>Node2</title>
<a xlink:href="../../da/d97/structns_rect.html#ad42ab8ecb350b276dcedf71363449d3d" target="_top" xlink:title="nsRect::ScaleToInsidePixels">
<polygon fill="white" stroke="black" points="116.5,-40.5 116.5,-61.5 259.5,-61.5 259.5,-40.5 116.5,-40.5"/>
<text text-anchor="middle" x="188" y="-48.5" font-family="Helvetica,sans-Serif" font-size="10.00">nsRect::ScaleToInsidePixels</text>
</a>
</g>
<!-- Node1&#45;&gt;Node2 -->
<g id="edge2" class="edge"><title>Node1&#45;&gt;Node2</title>
<path fill="none" stroke="midnightblue" d="M86.0147,-37.402C95.6632,-38.6884 105.999,-40.0665 116.254,-41.4338"/>
<polygon fill="midnightblue" stroke="midnightblue" points="86.2262,-33.8993 75.8513,-36.0468 85.301,-40.8379 86.2262,-33.8993"/>
</g>
<!-- Node4 -->
<g id="node7" class="node"><title>Node4</title>
<a xlink:href="../../da/d97/structns_rect.html#a9db56d163b419e70f958ba3904468ea5" target="_top" xlink:title="nsRect::ScaleToOutsidePixels">
<polygon fill="white" stroke="black" points="112.5,-0.5 112.5,-21.5 263.5,-21.5 263.5,-0.5 112.5,-0.5"/>
<text text-anchor="middle" x="188" y="-8.5" font-family="Helvetica,sans-Serif" font-size="10.00">nsRect::ScaleToOutsidePixels</text>
</a>
</g>
<!-- Node1&#45;&gt;Node4 -->
<g id="edge6" class="edge"><title>Node1&#45;&gt;Node4</title>
<path fill="none" stroke="midnightblue" d="M85.8955,-24.6139C94.3759,-23.4832 103.39,-22.2813 112.416,-21.0778"/>
<polygon fill="midnightblue" stroke="midnightblue" points="85.301,-21.1621 75.8513,-25.9532 86.2262,-28.1007 85.301,-21.1621"/>
</g>
<!-- Node3 -->
<g id="node5" class="node"><title>Node3</title>
<a xlink:href="../../da/d97/structns_rect.html#af8ee33f748508d272da4088518f1ed95" target="_top" xlink:title="nsRect::ToInsidePixels">
<polygon fill="white" stroke="black" points="303.5,-40.5 303.5,-61.5 422.5,-61.5 422.5,-40.5 303.5,-40.5"/>
<text text-anchor="middle" x="363" y="-48.5" font-family="Helvetica,sans-Serif" font-size="10.00">nsRect::ToInsidePixels</text>
</a>
</g>
<!-- Node2&#45;&gt;Node3 -->
<g id="edge4" class="edge"><title>Node2&#45;&gt;Node3</title>
<path fill="none" stroke="midnightblue" d="M269.983,-51C281.258,-51 292.655,-51 303.423,-51"/>
<polygon fill="midnightblue" stroke="midnightblue" points="269.684,-47.5001 259.684,-51 269.684,-54.5001 269.684,-47.5001"/>
</g>
<!-- Node5 -->
<g id="node9" class="node"><title>Node5</title>
<a xlink:href="../../da/d97/structns_rect.html#a85c1d2aea2cb9808e63f91b2c2cbbe76" target="_top" xlink:title="nsRect::ToOutsidePixels">
<polygon fill="white" stroke="black" points="300,-0.5 300,-21.5 426,-21.5 426,-0.5 300,-0.5"/>
<text text-anchor="middle" x="363" y="-8.5" font-family="Helvetica,sans-Serif" font-size="10.00">nsRect::ToOutsidePixels</text>
</a>
</g>
<!-- Node4&#45;&gt;Node5 -->
<g id="edge8" class="edge"><title>Node4&#45;&gt;Node5</title>
<path fill="none" stroke="midnightblue" d="M273.923,-11C282.623,-11 291.344,-11 299.742,-11"/>
<polygon fill="midnightblue" stroke="midnightblue" points="273.74,-7.5001 263.74,-11 273.74,-14.5001 273.74,-7.5001"/>
</g>
</g>
</svg>
