<?xml version="1.0" encoding="UTF-8" standalone="no"?>
<!DOCTYPE svg PUBLIC "-//W3C//DTD SVG 1.1//EN"
 "http://www.w3.org/Graphics/SVG/1.1/DTD/svg11.dtd">
<!-- Generated by graphviz version 2.26.3 (20100126.1600)
 -->
<!-- Title: G Pages: 1 -->
<!--zoomable 320 -->
<svg id="main" version="1.1" xmlns="http://www.w3.org/2000/svg" xmlns:xlink="http://www.w3.org/1999/xlink" xml:space="preserve" onload="init(evt)">
        <defs>
                <circle id="rim" cx="0" cy="0" r="7"/>
                <circle id="rim2" cx="0" cy="0" r="3.5"/>
                <g id="zoomPlus">
                        <use xlink:href="#rim" fill="#404040">
                                <set attributeName="fill" to="#808080" begin="zoomplus.mouseover" end="zoomplus.mouseout"/>
                        </use>
                        <path d="M-4,0h8M0,-4v8" fill="none" stroke="white" stroke-width="1.5" pointer-events="none"/>
                </g>
                <g id="zoomMin">
                        <use xlink:href="#rim" fill="#404040">
                                <set attributeName="fill" to="#808080" begin="zoomminus.mouseover" end="zoomminus.mouseout"/>
                        </use>
                        <path d="M-4,0h8" fill="none" stroke="white" stroke-width="1.5" pointer-events="none"/>
                </g>
                <g id="dirArrow">
                        <path fill="none" stroke="white" stroke-width="1.5" d="M0,-3.0v7 M-2.5,-0.5L0,-3.0L2.5,-0.5"/>
                </g>
               <g id="resetDef">
                       <use xlink:href="#rim2" fill="#404040">
                               <set attributeName="fill" to="#808080" begin="reset.mouseover" end="reset.mouseout"/>
                       </use>
               </g>
        </defs>

<script type="text/javascript">
var viewWidth = 604;
var viewHeight = 320;
var sectionId = 'dynsection-0';
</script>
<script xlink:href="../../svgpan.js"/>
<svg id="graph" class="graph">
<g id="viewport">
<title>G</title>
<polygon fill="white" stroke="white" points="-4,5 -4,-316 601,-316 601,5 -4,5"/>
<!-- Node1 -->
<g id="node1" class="node"><title>Node1</title>
<polygon fill="#bfbfbf" stroke="black" points="-0.5,-290.5 -0.5,-311.5 352.5,-311.5 352.5,-290.5 -0.5,-290.5"/>
<text text-anchor="middle" x="176" y="-298.5" font-family="Helvetica,sans-Serif" font-size="10.00">/home/aoi/Documents/FxOS/B2G/gaia/xulrunner&#45;sdk/include/mozilla/Range.h</text>
</g>
<!-- Node2 -->
<g id="node3" class="node"><title>Node2</title>
<a xlink:href="../../df/dcf/_null_ptr_8h.html" target="_top" xlink:title="mozilla/NullPtr.h">
<polygon fill="white" stroke="black" points="18.5,-174.5 18.5,-195.5 107.5,-195.5 107.5,-174.5 18.5,-174.5"/>
<text text-anchor="middle" x="63" y="-182.5" font-family="Helvetica,sans-Serif" font-size="10.00">mozilla/NullPtr.h</text>
</a>
</g>
<!-- Node1&#45;&gt;Node2 -->
<g id="edge2" class="edge"><title>Node1&#45;&gt;Node2</title>
<path fill="none" stroke="midnightblue" d="M160.021,-290.473C147.13,-281.577 128.916,-268.066 115,-254 99.7686,-238.605 85.1782,-218.629 75.3503,-204.135"/>
<polygon fill="midnightblue" stroke="midnightblue" points="78.0679,-201.9 69.6208,-195.505 72.2362,-205.772 78.0679,-201.9"/>
</g>
<!-- Node4 -->
<g id="node7" class="node"><title>Node4</title>
<a xlink:href="../../d8/dff/_ranged_ptr_8h.html" target="_top" xlink:title="mozilla/RangedPtr.h">
<polygon fill="white" stroke="black" points="123.5,-232.5 123.5,-253.5 228.5,-253.5 228.5,-232.5 123.5,-232.5"/>
<text text-anchor="middle" x="176" y="-240.5" font-family="Helvetica,sans-Serif" font-size="10.00">mozilla/RangedPtr.h</text>
</a>
</g>
<!-- Node1&#45;&gt;Node4 -->
<g id="edge6" class="edge"><title>Node1&#45;&gt;Node4</title>
<path fill="none" stroke="midnightblue" d="M176,-290.362C176,-282.922 176,-272.743 176,-263.728"/>
<polygon fill="midnightblue" stroke="midnightblue" points="179.5,-263.571 176,-253.571 172.5,-263.571 179.5,-263.571"/>
</g>
<!-- Node8 -->
<g id="node17" class="node"><title>Node8</title>
<polygon fill="white" stroke="#bfbfbf" points="478,-58.5 478,-79.5 530,-79.5 530,-58.5 478,-58.5"/>
<text text-anchor="middle" x="504" y="-66.5" font-family="Helvetica,sans-Serif" font-size="10.00">stddef.h</text>
</g>
<!-- Node1&#45;&gt;Node8 -->
<g id="edge42" class="edge"><title>Node1&#45;&gt;Node8</title>
<path fill="none" stroke="midnightblue" d="M190.946,-290.429C243.133,-253.516 417.508,-130.177 480.798,-85.4115"/>
<polygon fill="midnightblue" stroke="midnightblue" points="482.823,-88.2657 488.966,-79.6335 478.781,-82.5507 482.823,-88.2657"/>
</g>
<!-- Node3 -->
<g id="node5" class="node"><title>Node3</title>
<a xlink:href="../../da/da7/_compiler_8h.html" target="_top" xlink:title="mozilla/Compiler.h">
<polygon fill="white" stroke="black" points="23,-0.5 23,-21.5 121,-21.5 121,-0.5 23,-0.5"/>
<text text-anchor="middle" x="72" y="-8.5" font-family="Helvetica,sans-Serif" font-size="10.00">mozilla/Compiler.h</text>
</a>
</g>
<!-- Node2&#45;&gt;Node3 -->
<g id="edge4" class="edge"><title>Node2&#45;&gt;Node3</title>
<path fill="none" stroke="midnightblue" d="M52.7251,-174.236C32.858,-152.057 -7.16228,-99.8392 13,-58 19.2066,-45.1205 30.8494,-34.6785 42.1631,-26.9373"/>
<polygon fill="midnightblue" stroke="midnightblue" points="44.0871,-29.8617 50.6551,-21.5484 40.3364,-23.9513 44.0871,-29.8617"/>
</g>
<!-- Node4&#45;&gt;Node2 -->
<g id="edge28" class="edge"><title>Node4&#45;&gt;Node2</title>
<path fill="none" stroke="midnightblue" d="M155.537,-232.497C137.967,-223.479 112.418,-210.365 92.6149,-200.201"/>
<polygon fill="midnightblue" stroke="midnightblue" points="94.1879,-197.074 83.6931,-195.621 90.9914,-203.301 94.1879,-197.074"/>
</g>
<!-- Node5 -->
<g id="node9" class="node"><title>Node5</title>
<a xlink:href="../../d9/de9/_assertions_8h.html" target="_top" xlink:title="mozilla/Assertions.h">
<polygon fill="white" stroke="black" points="200.5,-116.5 200.5,-137.5 305.5,-137.5 305.5,-116.5 200.5,-116.5"/>
<text text-anchor="middle" x="253" y="-124.5" font-family="Helvetica,sans-Serif" font-size="10.00">mozilla/Assertions.h</text>
</a>
</g>
<!-- Node4&#45;&gt;Node5 -->
<g id="edge8" class="edge"><title>Node4&#45;&gt;Node5</title>
<path fill="none" stroke="midnightblue" d="M178.892,-232.028C182.977,-217.803 191.376,-192.618 204,-174 211.47,-162.983 221.884,-152.54 231.191,-144.309"/>
<polygon fill="midnightblue" stroke="midnightblue" points="233.631,-146.829 238.984,-137.686 229.097,-141.495 233.631,-146.829"/>
</g>
<!-- Node6 -->
<g id="node11" class="node"><title>Node6</title>
<a xlink:href="../../d1/da8/_attributes_8h.html" target="_top" xlink:title="mozilla/Attributes.h">
<polygon fill="white" stroke="black" points="21.5,-58.5 21.5,-79.5 122.5,-79.5 122.5,-58.5 21.5,-58.5"/>
<text text-anchor="middle" x="72" y="-66.5" font-family="Helvetica,sans-Serif" font-size="10.00">mozilla/Attributes.h</text>
</a>
</g>
<!-- Node4&#45;&gt;Node6 -->
<g id="edge26" class="edge"><title>Node4&#45;&gt;Node6</title>
<path fill="none" stroke="midnightblue" d="M169.651,-232.377C152.648,-203.93 105.88,-125.684 83.8159,-88.7689"/>
<polygon fill="midnightblue" stroke="midnightblue" points="86.6663,-86.7157 78.5315,-79.9277 80.6577,-90.307 86.6663,-86.7157"/>
</g>
<!-- Node12 -->
<g id="node27" class="node"><title>Node12</title>
<a xlink:href="../../dd/d90/_util_8h.html" target="_top" xlink:title="mozilla/Util.h">
<polygon fill="white" stroke="black" points="213,-174.5 213,-195.5 287,-195.5 287,-174.5 213,-174.5"/>
<text text-anchor="middle" x="250" y="-182.5" font-family="Helvetica,sans-Serif" font-size="10.00">mozilla/Util.h</text>
</a>
</g>
<!-- Node4&#45;&gt;Node12 -->
<g id="edge30" class="edge"><title>Node4&#45;&gt;Node12</title>
<path fill="none" stroke="midnightblue" d="M189.573,-232.362C200.421,-223.859 215.834,-211.779 228.379,-201.947"/>
<polygon fill="midnightblue" stroke="midnightblue" points="230.802,-204.494 236.513,-195.571 226.484,-198.985 230.802,-204.494"/>
</g>
<!-- Node5&#45;&gt;Node3 -->
<g id="edge14" class="edge"><title>Node5&#45;&gt;Node3</title>
<path fill="none" stroke="midnightblue" d="M232.616,-116.393C215.38,-107.237 190.181,-93.4042 169,-80 142.498,-63.2288 113.33,-42.0939 93.9694,-27.6627"/>
<polygon fill="midnightblue" stroke="midnightblue" points="95.9094,-24.7427 85.8091,-21.5436 91.7099,-30.3431 95.9094,-24.7427"/>
</g>
<!-- Node5&#45;&gt;Node6 -->
<g id="edge10" class="edge"><title>Node5&#45;&gt;Node6</title>
<path fill="none" stroke="midnightblue" d="M220.222,-116.497C190.587,-107 146.778,-92.9619 114.469,-82.6087"/>
<polygon fill="midnightblue" stroke="midnightblue" points="115.43,-79.2416 104.839,-79.5231 113.294,-85.9078 115.43,-79.2416"/>
</g>
<!-- Node7 -->
<g id="node15" class="node"><title>Node7</title>
<a xlink:href="../../d1/d8a/_likely_8h.html" target="_top" xlink:title="mozilla/Likely.h">
<polygon fill="white" stroke="black" points="178,-58.5 178,-79.5 262,-79.5 262,-58.5 178,-58.5"/>
<text text-anchor="middle" x="220" y="-66.5" font-family="Helvetica,sans-Serif" font-size="10.00">mozilla/Likely.h</text>
</a>
</g>
<!-- Node5&#45;&gt;Node7 -->
<g id="edge16" class="edge"><title>Node5&#45;&gt;Node7</title>
<path fill="none" stroke="midnightblue" d="M246.947,-116.362C242.528,-108.595 236.41,-97.8426 231.121,-88.5458"/>
<polygon fill="midnightblue" stroke="midnightblue" points="234.002,-86.5315 226.014,-79.5707 227.918,-89.9932 234.002,-86.5315"/>
</g>
<!-- Node5&#45;&gt;Node8 -->
<g id="edge18" class="edge"><title>Node5&#45;&gt;Node8</title>
<path fill="none" stroke="midnightblue" d="M305.694,-116.918C347.395,-108.626 407.272,-96.0267 467.957,-80.1254"/>
<polygon fill="midnightblue" stroke="midnightblue" points="468.93,-83.4884 477.701,-77.5451 467.138,-76.7216 468.93,-83.4884"/>
</g>
<!-- Node9 -->
<g id="node19" class="node"><title>Node9</title>
<polygon fill="white" stroke="#bfbfbf" points="280,-58.5 280,-79.5 326,-79.5 326,-58.5 280,-58.5"/>
<text text-anchor="middle" x="303" y="-66.5" font-family="Helvetica,sans-Serif" font-size="10.00">stdio.h</text>
</g>
<!-- Node5&#45;&gt;Node9 -->
<g id="edge20" class="edge"><title>Node5&#45;&gt;Node9</title>
<path fill="none" stroke="midnightblue" d="M262.171,-116.362C269.148,-108.268 278.921,-96.9318 287.156,-87.3796"/>
<polygon fill="midnightblue" stroke="midnightblue" points="290.009,-89.4301 293.887,-79.5707 284.707,-84.8595 290.009,-89.4301"/>
</g>
<!-- Node10 -->
<g id="node21" class="node"><title>Node10</title>
<polygon fill="white" stroke="#bfbfbf" points="344,-58.5 344,-79.5 392,-79.5 392,-58.5 344,-58.5"/>
<text text-anchor="middle" x="368" y="-66.5" font-family="Helvetica,sans-Serif" font-size="10.00">stdlib.h</text>
</g>
<!-- Node5&#45;&gt;Node10 -->
<g id="edge22" class="edge"><title>Node5&#45;&gt;Node10</title>
<path fill="none" stroke="midnightblue" d="M273.826,-116.497C291.706,-107.479 317.707,-94.3649 337.861,-84.2006"/>
<polygon fill="midnightblue" stroke="midnightblue" points="339.588,-87.2495 346.941,-79.6212 336.436,-80.9994 339.588,-87.2495"/>
</g>
<!-- Node11 -->
<g id="node23" class="node"><title>Node11</title>
<polygon fill="white" stroke="#bfbfbf" points="410,-58.5 410,-79.5 460,-79.5 460,-58.5 410,-58.5"/>
<text text-anchor="middle" x="435" y="-66.5" font-family="Helvetica,sans-Serif" font-size="10.00">signal.h</text>
</g>
<!-- Node5&#45;&gt;Node11 -->
<g id="edge24" class="edge"><title>Node5&#45;&gt;Node11</title>
<path fill="none" stroke="midnightblue" d="M286.521,-116.412C314.536,-107.55 355.786,-94.4723 400.226,-80.2384"/>
<polygon fill="midnightblue" stroke="midnightblue" points="401.299,-83.5699 409.754,-77.1846 399.163,-76.9039 401.299,-83.5699"/>
</g>
<!-- Node6&#45;&gt;Node3 -->
<g id="edge12" class="edge"><title>Node6&#45;&gt;Node3</title>
<path fill="none" stroke="midnightblue" d="M72,-58.3619C72,-50.9219 72,-40.7427 72,-31.7276"/>
<polygon fill="midnightblue" stroke="midnightblue" points="75.5001,-31.5706 72,-21.5707 68.5001,-31.5707 75.5001,-31.5706"/>
</g>
<!-- Node12&#45;&gt;Node5 -->
<g id="edge32" class="edge"><title>Node12&#45;&gt;Node5</title>
<path fill="none" stroke="midnightblue" d="M250.55,-174.362C250.935,-166.922 251.462,-156.743 251.928,-147.728"/>
<polygon fill="midnightblue" stroke="midnightblue" points="255.432,-147.738 252.453,-137.571 248.441,-147.376 255.432,-147.738"/>
</g>
<!-- Node12&#45;&gt;Node6 -->
<g id="edge34" class="edge"><title>Node12&#45;&gt;Node6</title>
<path fill="none" stroke="midnightblue" d="M235.103,-174.47C215.541,-160.723 180.035,-136.054 149,-116 132.442,-105.301 113.551,-93.7599 98.6244,-84.792"/>
<polygon fill="midnightblue" stroke="midnightblue" points="100.277,-81.7024 89.8991,-79.5712 96.6832,-87.7092 100.277,-81.7024"/>
</g>
<!-- Node13 -->
<g id="node31" class="node"><title>Node13</title>
<a xlink:href="../../d9/dae/mozilla_2_types_8h.html" target="_top" xlink:title="mozilla/Types.h">
<polygon fill="white" stroke="black" points="461,-116.5 461,-137.5 547,-137.5 547,-116.5 461,-116.5"/>
<text text-anchor="middle" x="504" y="-124.5" font-family="Helvetica,sans-Serif" font-size="10.00">mozilla/Types.h</text>
</a>
</g>
<!-- Node12&#45;&gt;Node13 -->
<g id="edge36" class="edge"><title>Node12&#45;&gt;Node13</title>
<path fill="none" stroke="midnightblue" d="M287.206,-176.504C330.392,-166.643 401.94,-150.305 450.945,-139.115"/>
<polygon fill="midnightblue" stroke="midnightblue" points="451.767,-142.517 460.736,-136.879 450.208,-135.693 451.767,-142.517"/>
</g>
<!-- Node13&#45;&gt;Node8 -->
<g id="edge38" class="edge"><title>Node13&#45;&gt;Node8</title>
<path fill="none" stroke="midnightblue" d="M504,-116.362C504,-108.922 504,-98.7427 504,-89.7276"/>
<polygon fill="midnightblue" stroke="midnightblue" points="507.5,-89.5706 504,-79.5707 500.5,-89.5707 507.5,-89.5706"/>
</g>
<!-- Node14 -->
<g id="node34" class="node"><title>Node14</title>
<polygon fill="white" stroke="#bfbfbf" points="547.5,-58.5 547.5,-79.5 596.5,-79.5 596.5,-58.5 547.5,-58.5"/>
<text text-anchor="middle" x="572" y="-66.5" font-family="Helvetica,sans-Serif" font-size="10.00">stdint.h</text>
</g>
<!-- Node13&#45;&gt;Node14 -->
<g id="edge40" class="edge"><title>Node13&#45;&gt;Node14</title>
<path fill="none" stroke="midnightblue" d="M516.472,-116.362C526.345,-107.941 540.333,-96.0105 551.798,-86.2308"/>
<polygon fill="midnightblue" stroke="midnightblue" points="554.27,-88.7231 559.607,-79.5707 549.727,-83.3972 554.27,-88.7231"/>
</g>
</g>
</svg>
        <g id="navigator" transform="translate(0 0)" fill="#404254">
                <rect fill="#f2f5e9" fill-opacity="0.5" stroke="#606060" stroke-width=".5" x="0" y="0" width="60" height="60"/>
                <use id="zoomplus" xlink:href="#zoomPlus" x="17" y="9" onmousedown="handleZoom(evt,'in')"/>
                <use id="zoomminus" xlink:href="#zoomMin" x="42" y="9" onmousedown="handleZoom(evt,'out')"/>
                <use id="reset" xlink:href="#resetDef" x="30" y="36" onmousedown="handleReset()"/>
                <g id="arrowUp" xlink:href="#dirArrow" transform="translate(30 24)" onmousedown="handlePan(0,-1)">
                  <use xlink:href="#rim" fill="#404040">
                        <set attributeName="fill" to="#808080" begin="arrowUp.mouseover" end="arrowUp.mouseout"/>
                  </use>
                  <path fill="none" stroke="white" stroke-width="1.5" d="M0,-3.0v7 M-2.5,-0.5L0,-3.0L2.5,-0.5"/>
                </g>
                <g id="arrowRight" xlink:href="#dirArrow" transform="rotate(90) translate(36 -43)" onmousedown="handlePan(1,0)">
                  <use xlink:href="#rim" fill="#404040">
                        <set attributeName="fill" to="#808080" begin="arrowRight.mouseover" end="arrowRight.mouseout"/>
                  </use>
                  <path fill="none" stroke="white" stroke-width="1.5" d="M0,-3.0v7 M-2.5,-0.5L0,-3.0L2.5,-0.5"/>
                </g>
                <g id="arrowDown" xlink:href="#dirArrow" transform="rotate(180) translate(-30 -48)" onmousedown="handlePan(0,1)">
                  <use xlink:href="#rim" fill="#404040">
                        <set attributeName="fill" to="#808080" begin="arrowDown.mouseover" end="arrowDown.mouseout"/>
                  </use>
                  <path fill="none" stroke="white" stroke-width="1.5" d="M0,-3.0v7 M-2.5,-0.5L0,-3.0L2.5,-0.5"/>
                </g>
                <g id="arrowLeft" xlink:href="#dirArrow" transform="rotate(270) translate(-36 17)" onmousedown="handlePan(-1,0)">
                  <use xlink:href="#rim" fill="#404040">
                        <set attributeName="fill" to="#808080" begin="arrowLeft.mouseover" end="arrowLeft.mouseout"/>
                  </use>
                  <path fill="none" stroke="white" stroke-width="1.5" d="M0,-3.0v7 M-2.5,-0.5L0,-3.0L2.5,-0.5"/>
                </g>
        </g>
</svg>
