<?xml version="1.0" encoding="UTF-8" standalone="no"?>
<!DOCTYPE svg PUBLIC "-//W3C//DTD SVG 1.1//EN"
 "http://www.w3.org/Graphics/SVG/1.1/DTD/svg11.dtd">
<!-- Generated by graphviz version 2.26.3 (20100126.1600)
 -->
<!-- Title: G Pages: 1 -->
<!--zoomable 320 -->
<svg id="main" version="1.1" xmlns="http://www.w3.org/2000/svg" xmlns:xlink="http://www.w3.org/1999/xlink" xml:space="preserve" onload="init(evt)">
        <defs>
                <circle id="rim" cx="0" cy="0" r="7"/>
                <circle id="rim2" cx="0" cy="0" r="3.5"/>
                <g id="zoomPlus">
                        <use xlink:href="#rim" fill="#404040">
                                <set attributeName="fill" to="#808080" begin="zoomplus.mouseover" end="zoomplus.mouseout"/>
                        </use>
                        <path d="M-4,0h8M0,-4v8" fill="none" stroke="white" stroke-width="1.5" pointer-events="none"/>
                </g>
                <g id="zoomMin">
                        <use xlink:href="#rim" fill="#404040">
                                <set attributeName="fill" to="#808080" begin="zoomminus.mouseover" end="zoomminus.mouseout"/>
                        </use>
                        <path d="M-4,0h8" fill="none" stroke="white" stroke-width="1.5" pointer-events="none"/>
                </g>
                <g id="dirArrow">
                        <path fill="none" stroke="white" stroke-width="1.5" d="M0,-3.0v7 M-2.5,-0.5L0,-3.0L2.5,-0.5"/>
                </g>
               <g id="resetDef">
                       <use xlink:href="#rim2" fill="#404040">
                               <set attributeName="fill" to="#808080" begin="reset.mouseover" end="reset.mouseout"/>
                       </use>
               </g>
        </defs>

<script type="text/javascript">
var viewWidth = 1638;
var viewHeight = 320;
var sectionId = 'dynsection-1';
</script>
<script xlink:href="../../svgpan.js"/>
<svg id="graph" class="graph">
<g id="viewport">
<title>G</title>
<polygon fill="white" stroke="white" points="-4,5 -4,-316 1635,-316 1635,5 -4,5"/>
<!-- Node1 -->
<g id="node1" class="node"><title>Node1</title>
<polygon fill="#bfbfbf" stroke="black" points="449.5,-290.5 449.5,-311.5 836.5,-311.5 836.5,-290.5 449.5,-290.5"/>
<text text-anchor="middle" x="643" y="-298.5" font-family="Helvetica,sans-Serif" font-size="10.00">/home/aoi/Documents/FxOS/B2G/gaia/xulrunner&#45;sdk/include/nsISelectionController.h</text>
</g>
<!-- Node2 -->
<g id="node3" class="node"><title>Node2</title>
<a xlink:href="../../d9/dca/_hyper_text_accessible_8h.html" target="_top" xlink:title="/home/aoi/Documents/FxOS/B2G/gaia/xulrunner&#45;sdk/include/mozilla/a11y/HyperTextAccessible.h">
<polygon fill="white" stroke="black" points="106.5,-116.5 106.5,-137.5 549.5,-137.5 549.5,-116.5 106.5,-116.5"/>
<text text-anchor="middle" x="328" y="-124.5" font-family="Helvetica,sans-Serif" font-size="10.00">/home/aoi/Documents/FxOS/B2G/gaia/xulrunner&#45;sdk/include/mozilla/a11y/HyperTextAccessible.h</text>
</a>
</g>
<!-- Node1&#45;&gt;Node2 -->
<g id="edge2" class="edge"><title>Node1&#45;&gt;Node2</title>
<path fill="none" stroke="midnightblue" d="M528.285,-289.304C450.713,-280.299 360.079,-267.197 347,-254 315.456,-222.172 321.733,-162.032 325.886,-137.66"/>
<polygon fill="midnightblue" stroke="midnightblue" points="528.312,-292.83 538.646,-290.492 529.11,-285.875 528.312,-292.83"/>
</g>
<!-- Node5 -->
<g id="node9" class="node"><title>Node5</title>
<a xlink:href="../../dc/d82/mozilla_2_selection_8h.html" target="_top" xlink:title="/home/aoi/Documents/FxOS/B2G/gaia/xulrunner&#45;sdk/include/mozilla/Selection.h">
<polygon fill="white" stroke="black" points="355.5,-232.5 355.5,-253.5 720.5,-253.5 720.5,-232.5 355.5,-232.5"/>
<text text-anchor="middle" x="538" y="-240.5" font-family="Helvetica,sans-Serif" font-size="10.00">/home/aoi/Documents/FxOS/B2G/gaia/xulrunner&#45;sdk/include/mozilla/Selection.h</text>
</a>
</g>
<!-- Node1&#45;&gt;Node5 -->
<g id="edge8" class="edge"><title>Node1&#45;&gt;Node5</title>
<path fill="none" stroke="midnightblue" d="M614.971,-285.517C596.689,-275.419 573.308,-262.503 557.137,-253.571"/>
<polygon fill="midnightblue" stroke="midnightblue" points="613.296,-288.59 623.741,-290.362 616.68,-282.463 613.296,-288.59"/>
</g>
<!-- Node6 -->
<g id="node11" class="node"><title>Node6</title>
<a xlink:href="../../dd/d65/ns_frame_selection_8h.html" target="_top" xlink:title="/home/aoi/Documents/FxOS/B2G/gaia/xulrunner&#45;sdk/include/nsFrameSelection.h">
<polygon fill="white" stroke="black" points="450,-174.5 450,-195.5 820,-195.5 820,-174.5 450,-174.5"/>
<text text-anchor="middle" x="635" y="-182.5" font-family="Helvetica,sans-Serif" font-size="10.00">/home/aoi/Documents/FxOS/B2G/gaia/xulrunner&#45;sdk/include/nsFrameSelection.h</text>
</a>
</g>
<!-- Node1&#45;&gt;Node6 -->
<g id="edge24" class="edge"><title>Node1&#45;&gt;Node6</title>
<path fill="none" stroke="midnightblue" d="M685.657,-286.674C714.024,-274.637 743.602,-255.627 729,-232 717.873,-213.996 697.529,-202.658 678.607,-195.641"/>
<polygon fill="midnightblue" stroke="midnightblue" points="684.128,-283.516 676.149,-290.485 686.733,-290.013 684.128,-283.516"/>
</g>
<!-- Node12 -->
<g id="node25" class="node"><title>Node12</title>
<a xlink:href="../../d8/d49/_selection_8h.html" target="_top" xlink:title="/home/aoi/Documents/FxOS/B2G/gaia/xulrunner&#45;sdk/include/Selection.h">
<polygon fill="white" stroke="black" points="776,-232.5 776,-253.5 1108,-253.5 1108,-232.5 776,-232.5"/>
<text text-anchor="middle" x="942" y="-240.5" font-family="Helvetica,sans-Serif" font-size="10.00">/home/aoi/Documents/FxOS/B2G/gaia/xulrunner&#45;sdk/include/Selection.h</text>
</a>
</g>
<!-- Node1&#45;&gt;Node12 -->
<g id="edge26" class="edge"><title>Node1&#45;&gt;Node12</title>
<path fill="none" stroke="midnightblue" d="M707.26,-288.535C761.056,-278.099 836.969,-263.374 887.752,-253.523"/>
<polygon fill="midnightblue" stroke="midnightblue" points="706.297,-285.156 697.147,-290.497 707.63,-292.028 706.297,-285.156"/>
</g>
<!-- Node3 -->
<g id="node5" class="node"><title>Node3</title>
<a xlink:href="../../db/dc2/_hyper_text_accessible_wrap_8h.html" target="_top" xlink:title="/home/aoi/Documents/FxOS/B2G/gaia/xulrunner&#45;sdk/include/mozilla/a11y/HyperTextAccessibleWrap.h">
<polygon fill="white" stroke="black" points="84,-58.5 84,-79.5 550,-79.5 550,-58.5 84,-58.5"/>
<text text-anchor="middle" x="317" y="-66.5" font-family="Helvetica,sans-Serif" font-size="10.00">/home/aoi/Documents/FxOS/B2G/gaia/xulrunner&#45;sdk/include/mozilla/a11y/HyperTextAccessibleWrap.h</text>
</a>
</g>
<!-- Node2&#45;&gt;Node3 -->
<g id="edge4" class="edge"><title>Node2&#45;&gt;Node3</title>
<path fill="none" stroke="midnightblue" d="M324.11,-106.488C322.385,-97.3924 320.428,-87.0756 319.005,-79.5707"/>
<polygon fill="midnightblue" stroke="midnightblue" points="320.68,-107.189 325.982,-116.362 327.558,-105.885 320.68,-107.189"/>
</g>
<!-- Node4 -->
<g id="node7" class="node"><title>Node4</title>
<a xlink:href="../../dd/dc9/_doc_accessible_8h.html" target="_top" xlink:title="/home/aoi/Documents/FxOS/B2G/gaia/xulrunner&#45;sdk/include/mozilla/a11y/DocAccessible.h">
<polygon fill="white" stroke="black" points="-0.5,-0.5 -0.5,-21.5 414.5,-21.5 414.5,-0.5 -0.5,-0.5"/>
<text text-anchor="middle" x="207" y="-8.5" font-family="Helvetica,sans-Serif" font-size="10.00">/home/aoi/Documents/FxOS/B2G/gaia/xulrunner&#45;sdk/include/mozilla/a11y/DocAccessible.h</text>
</a>
</g>
<!-- Node3&#45;&gt;Node4 -->
<g id="edge6" class="edge"><title>Node3&#45;&gt;Node4</title>
<path fill="none" stroke="midnightblue" d="M288.161,-53.794C268.969,-43.6746 244.236,-30.6338 227.144,-21.6212"/>
<polygon fill="midnightblue" stroke="midnightblue" points="286.602,-56.9285 297.08,-58.4966 289.867,-50.7365 286.602,-56.9285"/>
</g>
<!-- Node5&#45;&gt;Node6 -->
<g id="edge10" class="edge"><title>Node5&#45;&gt;Node6</title>
<path fill="none" stroke="midnightblue" d="M564.59,-227.101C581.373,-217.066 602.587,-204.381 617.321,-195.571"/>
<polygon fill="midnightblue" stroke="midnightblue" points="562.578,-224.226 555.791,-232.362 566.17,-230.234 562.578,-224.226"/>
</g>
<!-- Node6&#45;&gt;Node2 -->
<g id="edge12" class="edge"><title>Node6&#45;&gt;Node2</title>
<path fill="none" stroke="midnightblue" d="M569.365,-172.6C514.109,-162.161 435.95,-147.394 383.7,-137.523"/>
<polygon fill="midnightblue" stroke="midnightblue" points="568.929,-176.079 579.405,-174.497 570.228,-169.201 568.929,-176.079"/>
</g>
<!-- Node7 -->
<g id="node14" class="node"><title>Node7</title>
<a xlink:href="../../de/d6e/ns_caret_8h.html" target="_top" xlink:title="/home/aoi/Documents/FxOS/B2G/gaia/xulrunner&#45;sdk/include/nsCaret.h">
<polygon fill="white" stroke="black" points="589,-116.5 589,-137.5 915,-137.5 915,-116.5 589,-116.5"/>
<text text-anchor="middle" x="752" y="-124.5" font-family="Helvetica,sans-Serif" font-size="10.00">/home/aoi/Documents/FxOS/B2G/gaia/xulrunner&#45;sdk/include/nsCaret.h</text>
</a>
</g>
<!-- Node6&#45;&gt;Node7 -->
<g id="edge14" class="edge"><title>Node6&#45;&gt;Node7</title>
<path fill="none" stroke="midnightblue" d="M665.396,-169.932C685.848,-159.793 712.311,-146.675 730.574,-137.621"/>
<polygon fill="midnightblue" stroke="midnightblue" points="663.593,-166.919 656.188,-174.497 666.702,-173.191 663.593,-166.919"/>
</g>
<!-- Node8 -->
<g id="node16" class="node"><title>Node8</title>
<a xlink:href="../../de/d41/ns_display_list_8h.html" target="_top" xlink:title="/home/aoi/Documents/FxOS/B2G/gaia/xulrunner&#45;sdk/include/nsDisplayList.h">
<polygon fill="white" stroke="black" points="688,-58.5 688,-79.5 1038,-79.5 1038,-58.5 688,-58.5"/>
<text text-anchor="middle" x="863" y="-66.5" font-family="Helvetica,sans-Serif" font-size="10.00">/home/aoi/Documents/FxOS/B2G/gaia/xulrunner&#45;sdk/include/nsDisplayList.h</text>
</a>
</g>
<!-- Node7&#45;&gt;Node8 -->
<g id="edge16" class="edge"><title>Node7&#45;&gt;Node8</title>
<path fill="none" stroke="midnightblue" d="M781.101,-111.794C800.468,-101.675 825.425,-88.6338 842.673,-79.6212"/>
<polygon fill="midnightblue" stroke="midnightblue" points="779.343,-108.763 772.101,-116.497 782.585,-114.968 779.343,-108.763"/>
</g>
<!-- Node9 -->
<g id="node18" class="node"><title>Node9</title>
<a xlink:href="../../d6/d25/_render_frame_parent_8h.html" target="_top" xlink:title="/home/aoi/Documents/FxOS/B2G/gaia/xulrunner&#45;sdk/include/mozilla/layout/RenderFrameParent.h">
<polygon fill="white" stroke="black" points="432,-0.5 432,-21.5 874,-21.5 874,-0.5 432,-0.5"/>
<text text-anchor="middle" x="653" y="-8.5" font-family="Helvetica,sans-Serif" font-size="10.00">/home/aoi/Documents/FxOS/B2G/gaia/xulrunner&#45;sdk/include/mozilla/layout/RenderFrameParent.h</text>
</a>
</g>
<!-- Node8&#45;&gt;Node9 -->
<g id="edge18" class="edge"><title>Node8&#45;&gt;Node9</title>
<path fill="none" stroke="midnightblue" d="M815.251,-55.8123C777.655,-45.4285 725.952,-31.1487 691.101,-21.5231"/>
<polygon fill="midnightblue" stroke="midnightblue" points="814.4,-59.208 824.971,-58.4966 816.263,-52.4606 814.4,-59.208"/>
</g>
<!-- Node10 -->
<g id="node20" class="node"><title>Node10</title>
<a xlink:href="../../df/de6/ns_canvas_frame_8h.html" target="_top" xlink:title="/home/aoi/Documents/FxOS/B2G/gaia/xulrunner&#45;sdk/include/nsCanvasFrame.h">
<polygon fill="white" stroke="black" points="891.5,-0.5 891.5,-21.5 1254.5,-21.5 1254.5,-0.5 891.5,-0.5"/>
<text text-anchor="middle" x="1073" y="-8.5" font-family="Helvetica,sans-Serif" font-size="10.00">/home/aoi/Documents/FxOS/B2G/gaia/xulrunner&#45;sdk/include/nsCanvasFrame.h</text>
</a>
</g>
<!-- Node8&#45;&gt;Node10 -->
<g id="edge20" class="edge"><title>Node8&#45;&gt;Node10</title>
<path fill="none" stroke="midnightblue" d="M910.749,-55.8123C948.345,-45.4285 1000.05,-31.1487 1034.9,-21.5231"/>
<polygon fill="midnightblue" stroke="midnightblue" points="909.737,-52.4606 901.029,-58.4966 911.6,-59.208 909.737,-52.4606"/>
</g>
<!-- Node11 -->
<g id="node22" class="node"><title>Node11</title>
<a xlink:href="../../d2/d45/ns_object_frame_8h.html" target="_top" xlink:title="/home/aoi/Documents/FxOS/B2G/gaia/xulrunner&#45;sdk/include/nsObjectFrame.h">
<polygon fill="white" stroke="black" points="1272,-0.5 1272,-21.5 1630,-21.5 1630,-0.5 1272,-0.5"/>
<text text-anchor="middle" x="1451" y="-8.5" font-family="Helvetica,sans-Serif" font-size="10.00">/home/aoi/Documents/FxOS/B2G/gaia/xulrunner&#45;sdk/include/nsObjectFrame.h</text>
</a>
</g>
<!-- Node8&#45;&gt;Node11 -->
<g id="edge22" class="edge"><title>Node8&#45;&gt;Node11</title>
<path fill="none" stroke="midnightblue" d="M979.603,-57.4984C1085.81,-47.0226 1241.34,-31.6812 1344.32,-21.5231"/>
<polygon fill="midnightblue" stroke="midnightblue" points="979.09,-54.0318 969.482,-58.4966 979.778,-60.998 979.09,-54.0318"/>
</g>
</g>
</svg>
        <g id="navigator" transform="translate(0 0)" fill="#404254">
                <rect fill="#f2f5e9" fill-opacity="0.5" stroke="#606060" stroke-width=".5" x="0" y="0" width="60" height="60"/>
                <use id="zoomplus" xlink:href="#zoomPlus" x="17" y="9" onmousedown="handleZoom(evt,'in')"/>
                <use id="zoomminus" xlink:href="#zoomMin" x="42" y="9" onmousedown="handleZoom(evt,'out')"/>
                <use id="reset" xlink:href="#resetDef" x="30" y="36" onmousedown="handleReset()"/>
                <g id="arrowUp" xlink:href="#dirArrow" transform="translate(30 24)" onmousedown="handlePan(0,-1)">
                  <use xlink:href="#rim" fill="#404040">
                        <set attributeName="fill" to="#808080" begin="arrowUp.mouseover" end="arrowUp.mouseout"/>
                  </use>
                  <path fill="none" stroke="white" stroke-width="1.5" d="M0,-3.0v7 M-2.5,-0.5L0,-3.0L2.5,-0.5"/>
                </g>
                <g id="arrowRight" xlink:href="#dirArrow" transform="rotate(90) translate(36 -43)" onmousedown="handlePan(1,0)">
                  <use xlink:href="#rim" fill="#404040">
                        <set attributeName="fill" to="#808080" begin="arrowRight.mouseover" end="arrowRight.mouseout"/>
                  </use>
                  <path fill="none" stroke="white" stroke-width="1.5" d="M0,-3.0v7 M-2.5,-0.5L0,-3.0L2.5,-0.5"/>
                </g>
                <g id="arrowDown" xlink:href="#dirArrow" transform="rotate(180) translate(-30 -48)" onmousedown="handlePan(0,1)">
                  <use xlink:href="#rim" fill="#404040">
                        <set attributeName="fill" to="#808080" begin="arrowDown.mouseover" end="arrowDown.mouseout"/>
                  </use>
                  <path fill="none" stroke="white" stroke-width="1.5" d="M0,-3.0v7 M-2.5,-0.5L0,-3.0L2.5,-0.5"/>
                </g>
                <g id="arrowLeft" xlink:href="#dirArrow" transform="rotate(270) translate(-36 17)" onmousedown="handlePan(-1,0)">
                  <use xlink:href="#rim" fill="#404040">
                        <set attributeName="fill" to="#808080" begin="arrowLeft.mouseover" end="arrowLeft.mouseout"/>
                  </use>
                  <path fill="none" stroke="white" stroke-width="1.5" d="M0,-3.0v7 M-2.5,-0.5L0,-3.0L2.5,-0.5"/>
                </g>
        </g>
</svg>
