<?xml version="1.0" encoding="UTF-8" standalone="no"?>
<!DOCTYPE svg PUBLIC "-//W3C//DTD SVG 1.1//EN"
 "http://www.w3.org/Graphics/SVG/1.1/DTD/svg11.dtd">
<!-- Generated by graphviz version 2.26.3 (20100126.1600)
 -->
<!-- Title: G Pages: 1 -->
<svg width="188pt" height="102pt"
 viewBox="0.00 0.00 188.00 102.00" xmlns="http://www.w3.org/2000/svg" xmlns:xlink="http://www.w3.org/1999/xlink">
<g id="graph1" class="graph" transform="scale(1 1) rotate(0) translate(4 98)">
<title>G</title>
<polygon fill="white" stroke="white" points="-4,5 -4,-98 185,-98 185,5 -4,5"/>
<!-- Node1 -->
<g id="node1" class="node"><title>Node1</title>
<polygon fill="#bfbfbf" stroke="black" points="28.5,-0.5 28.5,-21.5 163.5,-21.5 163.5,-0.5 28.5,-0.5"/>
<text text-anchor="middle" x="96" y="-8.5" font-family="Helvetica,sans-Serif" font-size="10.00">mozilla::dom::ParentObject</text>
</g>
<!-- Node2 -->
<g id="node2" class="node"><title>Node2</title>
<a xlink:href="../../d0/d7e/classns_wrapper_cache.html" target="_top" xlink:title="nsWrapperCache">
<polygon fill="white" stroke="black" points="0,-72.5 0,-93.5 92,-93.5 92,-72.5 0,-72.5"/>
<text text-anchor="middle" x="46" y="-80.5" font-family="Helvetica,sans-Serif" font-size="10.00">nsWrapperCache</text>
</a>
</g>
<!-- Node2&#45;&gt;Node1 -->
<g id="edge2" class="edge"><title>Node2&#45;&gt;Node1</title>
<path fill="none" stroke="#9a32cd" stroke-dasharray="5,2" d="M42.4723,-62.2018C42.2077,-54.7537 43.146,-46.5804 47,-40 51.6961,-31.9819 59.5499,-25.9422 67.6095,-21.5089"/>
<polygon fill="#9a32cd" stroke="#9a32cd" points="39.0091,-62.7391 43.5209,-72.3252 45.9718,-62.0178 39.0091,-62.7391"/>
<text text-anchor="middle" x="85.5" y="-44.5" font-family="Helvetica,sans-Serif" font-size="10.00"> mWrapperCache</text>
</g>
<!-- Node3 -->
<g id="node4" class="node"><title>Node3</title>
<a xlink:href="../../d4/d6a/classns_i_supports.html" target="_top" xlink:title="nsISupports">
<polygon fill="white" stroke="black" points="111.5,-72.5 111.5,-93.5 180.5,-93.5 180.5,-72.5 111.5,-72.5"/>
<text text-anchor="middle" x="146" y="-80.5" font-family="Helvetica,sans-Serif" font-size="10.00">nsISupports</text>
</a>
</g>
<!-- Node3&#45;&gt;Node1 -->
<g id="edge4" class="edge"><title>Node3&#45;&gt;Node1</title>
<path fill="none" stroke="#9a32cd" stroke-dasharray="5,2" d="M137.336,-63.093C133.678,-55.5712 129.084,-47.1162 124,-40 119.28,-33.3945 113.089,-26.8209 107.729,-21.6066"/>
<polygon fill="#9a32cd" stroke="#9a32cd" points="134.197,-64.6434 141.569,-72.2524 140.551,-61.7067 134.197,-64.6434"/>
<text text-anchor="middle" x="152" y="-44.5" font-family="Helvetica,sans-Serif" font-size="10.00"> mObject</text>
</g>
</g>
</svg>
