<?xml version="1.0" encoding="UTF-8" standalone="no"?>
<!DOCTYPE svg PUBLIC "-//W3C//DTD SVG 1.1//EN"
 "http://www.w3.org/Graphics/SVG/1.1/DTD/svg11.dtd">
<!-- Generated by graphviz version 2.26.3 (20100126.1600)
 -->
<!-- Title: G Pages: 1 -->
<svg width="370pt" height="320pt"
 viewBox="0.00 0.00 370.00 320.00" xmlns="http://www.w3.org/2000/svg" xmlns:xlink="http://www.w3.org/1999/xlink">
<g id="graph1" class="graph" transform="scale(1 1) rotate(0) translate(4 316)">
<title>G</title>
<polygon fill="white" stroke="white" points="-4,5 -4,-316 367,-316 367,5 -4,5"/>
<!-- Node1 -->
<g id="node1" class="node"><title>Node1</title>
<polygon fill="#bfbfbf" stroke="black" points="102.5,-174.5 102.5,-195.5 215.5,-195.5 215.5,-174.5 102.5,-174.5"/>
<text text-anchor="middle" x="159" y="-182.5" font-family="Helvetica,sans-Serif" font-size="10.00">nsIDOMDOMRequest</text>
</g>
<!-- Node4 -->
<g id="node9" class="node"><title>Node4</title>
<a xlink:href="../../df/db1/classmozilla_1_1dom_1_1_d_o_m_request.html" target="_top" xlink:title="mozilla::dom::DOMRequest">
<polygon fill="white" stroke="black" points="90,-116.5 90,-137.5 228,-137.5 228,-116.5 90,-116.5"/>
<text text-anchor="middle" x="159" y="-124.5" font-family="Helvetica,sans-Serif" font-size="10.00">mozilla::dom::DOMRequest</text>
</a>
</g>
<!-- Node1&#45;&gt;Node4 -->
<g id="edge10" class="edge"><title>Node1&#45;&gt;Node4</title>
<path fill="none" stroke="midnightblue" d="M159,-164.191C159,-155.168 159,-144.994 159,-137.571"/>
<polygon fill="midnightblue" stroke="midnightblue" points="155.5,-164.362 159,-174.362 162.5,-164.362 155.5,-164.362"/>
</g>
<!-- Node2 -->
<g id="node2" class="node"><title>Node2</title>
<a xlink:href="../../d9/ddf/interfacens_i_d_o_m_event_target.html" target="_top" xlink:title="nsIDOMEventTarget">
<polygon fill="white" stroke="black" points="105.5,-232.5 105.5,-253.5 212.5,-253.5 212.5,-232.5 105.5,-232.5"/>
<text text-anchor="middle" x="159" y="-240.5" font-family="Helvetica,sans-Serif" font-size="10.00">nsIDOMEventTarget</text>
</a>
</g>
<!-- Node2&#45;&gt;Node1 -->
<g id="edge2" class="edge"><title>Node2&#45;&gt;Node1</title>
<path fill="none" stroke="midnightblue" d="M152.495,-222.191C151.941,-213.168 152.326,-202.994 153.648,-195.571"/>
<polygon fill="midnightblue" stroke="midnightblue" points="149.043,-222.814 153.636,-232.362 156,-222.034 149.043,-222.814"/>
</g>
<!-- Node2&#45;&gt;Node1 -->
<g id="edge8" class="edge"><title>Node2&#45;&gt;Node1</title>
<path fill="none" stroke="midnightblue" d="M165.505,-222.191C166.059,-213.168 165.674,-202.994 164.352,-195.571"/>
<polygon fill="midnightblue" stroke="midnightblue" points="162,-222.034 164.364,-232.362 168.957,-222.814 162,-222.034"/>
</g>
<!-- Node3 -->
<g id="node4" class="node"><title>Node3</title>
<a xlink:href="../../d4/d6a/classns_i_supports.html" target="_top" xlink:title="nsISupports">
<polygon fill="white" stroke="black" points="124.5,-290.5 124.5,-311.5 193.5,-311.5 193.5,-290.5 124.5,-290.5"/>
<text text-anchor="middle" x="159" y="-298.5" font-family="Helvetica,sans-Serif" font-size="10.00">nsISupports</text>
</a>
</g>
<!-- Node3&#45;&gt;Node2 -->
<g id="edge4" class="edge"><title>Node3&#45;&gt;Node2</title>
<path fill="none" stroke="midnightblue" d="M152.495,-280.191C151.941,-271.168 152.326,-260.994 153.648,-253.571"/>
<polygon fill="midnightblue" stroke="midnightblue" points="149.043,-280.814 153.636,-290.362 156,-280.034 149.043,-280.814"/>
</g>
<!-- Node3&#45;&gt;Node2 -->
<g id="edge6" class="edge"><title>Node3&#45;&gt;Node2</title>
<path fill="none" stroke="midnightblue" d="M165.505,-280.191C166.059,-271.168 165.674,-260.994 164.352,-253.571"/>
<polygon fill="midnightblue" stroke="midnightblue" points="162,-280.034 164.364,-290.362 168.957,-280.814 162,-280.034"/>
</g>
<!-- Node5 -->
<g id="node11" class="node"><title>Node5</title>
<a xlink:href="../../d7/d41/class_archive_request.html" target="_top" xlink:title="ArchiveRequest">
<polygon fill="white" stroke="black" points="0,-58.5 0,-79.5 86,-79.5 86,-58.5 0,-58.5"/>
<text text-anchor="middle" x="43" y="-66.5" font-family="Helvetica,sans-Serif" font-size="10.00">ArchiveRequest</text>
</a>
</g>
<!-- Node4&#45;&gt;Node5 -->
<g id="edge12" class="edge"><title>Node4&#45;&gt;Node5</title>
<path fill="none" stroke="midnightblue" d="M128.864,-111.932C108.586,-101.793 82.3495,-88.6748 64.2424,-79.6212"/>
<polygon fill="midnightblue" stroke="midnightblue" points="127.484,-115.155 137.993,-116.497 130.614,-108.894 127.484,-115.155"/>
</g>
<!-- Node6 -->
<g id="node13" class="node"><title>Node6</title>
<a xlink:href="../../d7/d49/classmozilla_1_1dom_1_1_activity.html" target="_top" xlink:title="mozilla::dom::Activity">
<polygon fill="white" stroke="black" points="103.5,-58.5 103.5,-79.5 214.5,-79.5 214.5,-58.5 103.5,-58.5"/>
<text text-anchor="middle" x="159" y="-66.5" font-family="Helvetica,sans-Serif" font-size="10.00">mozilla::dom::Activity</text>
</a>
</g>
<!-- Node4&#45;&gt;Node6 -->
<g id="edge14" class="edge"><title>Node4&#45;&gt;Node6</title>
<path fill="none" stroke="midnightblue" d="M159,-106.191C159,-97.1684 159,-86.9941 159,-79.5707"/>
<polygon fill="midnightblue" stroke="midnightblue" points="155.5,-106.362 159,-116.362 162.5,-106.362 155.5,-106.362"/>
</g>
<!-- Node7 -->
<g id="node15" class="node"><title>Node7</title>
<a xlink:href="../../d7/df2/classmozilla_1_1dom_1_1_d_o_m_cursor.html" target="_top" xlink:title="mozilla::dom::DOMCursor">
<polygon fill="white" stroke="black" points="231.5,-58.5 231.5,-79.5 362.5,-79.5 362.5,-58.5 231.5,-58.5"/>
<text text-anchor="middle" x="297" y="-66.5" font-family="Helvetica,sans-Serif" font-size="10.00">mozilla::dom::DOMCursor</text>
</a>
</g>
<!-- Node4&#45;&gt;Node7 -->
<g id="edge16" class="edge"><title>Node4&#45;&gt;Node7</title>
<path fill="none" stroke="midnightblue" d="M193.226,-112.615C217.557,-102.389 249.7,-88.8796 271.729,-79.6212"/>
<polygon fill="midnightblue" stroke="midnightblue" points="191.854,-109.395 183.991,-116.497 194.566,-115.849 191.854,-109.395"/>
</g>
<!-- Node8 -->
<g id="node17" class="node"><title>Node8</title>
<a xlink:href="../../d4/dfc/class_m_o_z___f_i_n_a_l.html" target="_top" xlink:title="MOZ_FINAL\&lt; T \&gt;">
<polygon fill="white" stroke="black" points="249,-0.5 249,-21.5 345,-21.5 345,-0.5 249,-0.5"/>
<text text-anchor="middle" x="297" y="-8.5" font-family="Helvetica,sans-Serif" font-size="10.00">MOZ_FINAL&lt; T &gt;</text>
</a>
</g>
<!-- Node7&#45;&gt;Node8 -->
<g id="edge18" class="edge"><title>Node7&#45;&gt;Node8</title>
<path fill="none" stroke="midnightblue" d="M297,-48.1906C297,-39.1684 297,-28.9941 297,-21.5707"/>
<polygon fill="midnightblue" stroke="midnightblue" points="293.5,-48.3619 297,-58.3619 300.5,-48.3619 293.5,-48.3619"/>
</g>
</g>
</svg>
