<?xml version="1.0" encoding="UTF-8" standalone="no"?>
<!DOCTYPE svg PUBLIC "-//W3C//DTD SVG 1.1//EN"
 "http://www.w3.org/Graphics/SVG/1.1/DTD/svg11.dtd">
<!-- Generated by graphviz version 2.26.3 (20100126.1600)
 -->
<!-- Title: G Pages: 1 -->
<svg width="410pt" height="70pt"
 viewBox="0.00 0.00 410.00 70.00" xmlns="http://www.w3.org/2000/svg" xmlns:xlink="http://www.w3.org/1999/xlink">
<g id="graph1" class="graph" transform="scale(1 1) rotate(0) translate(4 66)">
<title>G</title>
<polygon fill="white" stroke="white" points="-4,5 -4,-66 407,-66 407,5 -4,5"/>
<!-- Node1 -->
<g id="node1" class="node"><title>Node1</title>
<polygon fill="#bfbfbf" stroke="black" points="0,-20.5 0,-41.5 214,-41.5 214,-20.5 0,-20.5"/>
<text text-anchor="middle" x="107" y="-28.5" font-family="Helvetica,sans-Serif" font-size="10.00">mozilla::dom::DOMString::StringBufferLength</text>
</g>
<!-- Node2 -->
<g id="node3" class="node"><title>Node2</title>
<a xlink:href="../../de/da4/classmozilla_1_1dom_1_1_element.html#aee03c8bf84aefdea32893ab8cc68ef11" target="_top" xlink:title="mozilla::dom::Element::GetAttr">
<polygon fill="white" stroke="black" points="250,-40.5 250,-61.5 402,-61.5 402,-40.5 250,-40.5"/>
<text text-anchor="middle" x="326" y="-48.5" font-family="Helvetica,sans-Serif" font-size="10.00">mozilla::dom::Element::GetAttr</text>
</a>
</g>
<!-- Node1&#45;&gt;Node2 -->
<g id="edge2" class="edge"><title>Node1&#45;&gt;Node2</title>
<path fill="none" stroke="midnightblue" d="M224.4,-41.7215C233.028,-42.5094 241.59,-43.2913 249.871,-44.0476"/>
<polygon fill="midnightblue" stroke="midnightblue" points="224.531,-38.219 214.255,-40.7949 223.895,-45.19 224.531,-38.219"/>
</g>
<!-- Node3 -->
<g id="node5" class="node"><title>Node3</title>
<a xlink:href="../../d0/d1d/namespacexpc.html#aa99961349502fa7984d8a21e5f92d73f" target="_top" xlink:title="xpc::NonVoidStringToJsval">
<polygon fill="white" stroke="black" points="258,-0.5 258,-21.5 394,-21.5 394,-0.5 258,-0.5"/>
<text text-anchor="middle" x="326" y="-8.5" font-family="Helvetica,sans-Serif" font-size="10.00">xpc::NonVoidStringToJsval</text>
</a>
</g>
<!-- Node1&#45;&gt;Node3 -->
<g id="edge4" class="edge"><title>Node1&#45;&gt;Node3</title>
<path fill="none" stroke="midnightblue" d="M224.342,-20.2838C235.801,-19.2373 247.146,-18.2013 257.869,-17.222"/>
<polygon fill="midnightblue" stroke="midnightblue" points="223.895,-16.81 214.255,-21.2051 224.531,-23.781 223.895,-16.81"/>
</g>
</g>
</svg>
