<?xml version="1.0" encoding="UTF-8" standalone="no"?>
<!DOCTYPE svg PUBLIC "-//W3C//DTD SVG 1.1//EN"
 "http://www.w3.org/Graphics/SVG/1.1/DTD/svg11.dtd">
<!-- Generated by graphviz version 2.26.3 (20100126.1600)
 -->
<!-- Title: G Pages: 1 -->
<svg width="470pt" height="30pt"
 viewBox="0.00 0.00 470.00 30.00" xmlns="http://www.w3.org/2000/svg" xmlns:xlink="http://www.w3.org/1999/xlink">
<g id="graph1" class="graph" transform="scale(1 1) rotate(0) translate(4 26)">
<title>G</title>
<polygon fill="white" stroke="white" points="-4,5 -4,-26 467,-26 467,5 -4,5"/>
<!-- Node1 -->
<g id="node1" class="node"><title>Node1</title>
<polygon fill="#bfbfbf" stroke="black" points="0.5,-0.5 0.5,-21.5 115.5,-21.5 115.5,-0.5 0.5,-0.5"/>
<text text-anchor="middle" x="58" y="-8.5" font-family="Helvetica,sans-Serif" font-size="10.00">nsINode::AppendChild</text>
</g>
<!-- Node2 -->
<g id="node3" class="node"><title>Node2</title>
<a xlink:href="../../d7/de8/classns_i_node.html#ad4c6ee37929256c5eb378d0359939e99" target="_top" xlink:title="nsINode::InsertBefore">
<polygon fill="white" stroke="black" points="152.5,-0.5 152.5,-21.5 265.5,-21.5 265.5,-0.5 152.5,-0.5"/>
<text text-anchor="middle" x="209" y="-8.5" font-family="Helvetica,sans-Serif" font-size="10.00">nsINode::InsertBefore</text>
</a>
</g>
<!-- Node1&#45;&gt;Node2 -->
<g id="edge2" class="edge"><title>Node1&#45;&gt;Node2</title>
<path fill="none" stroke="midnightblue" d="M115.517,-11C124.144,-11 133.102,-11 141.907,-11"/>
<polygon fill="midnightblue" stroke="midnightblue" points="142.142,-14.5001 152.142,-11 142.142,-7.5001 142.142,-14.5001"/>
</g>
<!-- Node3 -->
<g id="node5" class="node"><title>Node3</title>
<a xlink:href="../../d7/de8/classns_i_node.html#a824c0eabcad8045bf42b57c15515e112" target="_top" xlink:title="nsINode::ReplaceOrInsertBefore">
<polygon fill="white" stroke="black" points="302.5,-0.5 302.5,-21.5 461.5,-21.5 461.5,-0.5 302.5,-0.5"/>
<text text-anchor="middle" x="382" y="-8.5" font-family="Helvetica,sans-Serif" font-size="10.00">nsINode::ReplaceOrInsertBefore</text>
</a>
</g>
<!-- Node2&#45;&gt;Node3 -->
<g id="edge4" class="edge"><title>Node2&#45;&gt;Node3</title>
<path fill="none" stroke="midnightblue" d="M265.647,-11C274.167,-11 283.127,-11 292.137,-11"/>
<polygon fill="midnightblue" stroke="midnightblue" points="292.308,-14.5001 302.308,-11 292.308,-7.5001 292.308,-14.5001"/>
</g>
</g>
</svg>
