<?xml version="1.0" encoding="UTF-8" standalone="no"?>
<!DOCTYPE svg PUBLIC "-//W3C//DTD SVG 1.1//EN"
 "http://www.w3.org/Graphics/SVG/1.1/DTD/svg11.dtd">
<!-- Generated by graphviz version 2.26.3 (20100126.1600)
 -->
<!-- Title: G Pages: 1 -->
<svg width="318pt" height="146pt"
 viewBox="0.00 0.00 318.00 146.00" xmlns="http://www.w3.org/2000/svg" xmlns:xlink="http://www.w3.org/1999/xlink">
<g id="graph1" class="graph" transform="scale(1 1) rotate(0) translate(4 142)">
<title>G</title>
<polygon fill="white" stroke="white" points="-4,5 -4,-142 315,-142 315,5 -4,5"/>
<!-- Node1 -->
<g id="node1" class="node"><title>Node1</title>
<polygon fill="#bfbfbf" stroke="black" points="58,-0.5 58,-21.5 242,-21.5 242,-0.5 58,-0.5"/>
<text text-anchor="middle" x="150" y="-8.5" font-family="Helvetica,sans-Serif" font-size="10.00">mozilla::layers::ImageLayerComposite</text>
</g>
<!-- Node2 -->
<g id="node2" class="node"><title>Node2</title>
<a xlink:href="../../da/d82/classmozilla_1_1layers_1_1_image_layer.html" target="_top" xlink:title="mozilla::layers::ImageLayer">
<polygon fill="white" stroke="black" points="-0.5,-58.5 -0.5,-79.5 136.5,-79.5 136.5,-58.5 -0.5,-58.5"/>
<text text-anchor="middle" x="68" y="-66.5" font-family="Helvetica,sans-Serif" font-size="10.00">mozilla::layers::ImageLayer</text>
</a>
</g>
<!-- Node2&#45;&gt;Node1 -->
<g id="edge2" class="edge"><title>Node2&#45;&gt;Node1</title>
<path fill="none" stroke="midnightblue" d="M91.27,-52.5407C105.328,-42.5973 122.83,-30.2177 135.055,-21.5707"/>
<polygon fill="midnightblue" stroke="midnightblue" points="89.1831,-49.7298 83.0401,-58.3619 93.2254,-55.4447 89.1831,-49.7298"/>
</g>
<!-- Node3 -->
<g id="node4" class="node"><title>Node3</title>
<a xlink:href="../../d9/da9/classmozilla_1_1layers_1_1_layer.html" target="_top" xlink:title="mozilla::layers::Layer">
<polygon fill="white" stroke="black" points="13,-116.5 13,-137.5 123,-137.5 123,-116.5 13,-116.5"/>
<text text-anchor="middle" x="68" y="-124.5" font-family="Helvetica,sans-Serif" font-size="10.00">mozilla::layers::Layer</text>
</a>
</g>
<!-- Node3&#45;&gt;Node2 -->
<g id="edge4" class="edge"><title>Node3&#45;&gt;Node2</title>
<path fill="none" stroke="midnightblue" d="M68,-106.191C68,-97.1684 68,-86.9941 68,-79.5707"/>
<polygon fill="midnightblue" stroke="midnightblue" points="64.5001,-106.362 68,-116.362 71.5001,-106.362 64.5001,-106.362"/>
</g>
<!-- Node4 -->
<g id="node6" class="node"><title>Node4</title>
<a xlink:href="../../d9/d63/classmozilla_1_1layers_1_1_layer_composite.html" target="_top" xlink:title="mozilla::layers::LayerComposite">
<polygon fill="white" stroke="black" points="153.5,-58.5 153.5,-79.5 310.5,-79.5 310.5,-58.5 153.5,-58.5"/>
<text text-anchor="middle" x="232" y="-66.5" font-family="Helvetica,sans-Serif" font-size="10.00">mozilla::layers::LayerComposite</text>
</a>
</g>
<!-- Node4&#45;&gt;Node1 -->
<g id="edge6" class="edge"><title>Node4&#45;&gt;Node1</title>
<path fill="none" stroke="midnightblue" d="M208.73,-52.5407C194.672,-42.5973 177.17,-30.2177 164.945,-21.5707"/>
<polygon fill="midnightblue" stroke="midnightblue" points="206.775,-55.4447 216.96,-58.3619 210.817,-49.7298 206.775,-55.4447"/>
</g>
</g>
</svg>
