<?xml version="1.0" encoding="UTF-8" standalone="no"?>
<!DOCTYPE svg PUBLIC "-//W3C//DTD SVG 1.1//EN"
 "http://www.w3.org/Graphics/SVG/1.1/DTD/svg11.dtd">
<!-- Generated by graphviz version 2.26.3 (20100126.1600)
 -->
<!-- Title: G Pages: 1 -->
<!--zoomable 262 -->
<svg id="main" version="1.1" xmlns="http://www.w3.org/2000/svg" xmlns:xlink="http://www.w3.org/1999/xlink" xml:space="preserve" onload="init(evt)">
        <defs>
                <circle id="rim" cx="0" cy="0" r="7"/>
                <circle id="rim2" cx="0" cy="0" r="3.5"/>
                <g id="zoomPlus">
                        <use xlink:href="#rim" fill="#404040">
                                <set attributeName="fill" to="#808080" begin="zoomplus.mouseover" end="zoomplus.mouseout"/>
                        </use>
                        <path d="M-4,0h8M0,-4v8" fill="none" stroke="white" stroke-width="1.5" pointer-events="none"/>
                </g>
                <g id="zoomMin">
                        <use xlink:href="#rim" fill="#404040">
                                <set attributeName="fill" to="#808080" begin="zoomminus.mouseover" end="zoomminus.mouseout"/>
                        </use>
                        <path d="M-4,0h8" fill="none" stroke="white" stroke-width="1.5" pointer-events="none"/>
                </g>
                <g id="dirArrow">
                        <path fill="none" stroke="white" stroke-width="1.5" d="M0,-3.0v7 M-2.5,-0.5L0,-3.0L2.5,-0.5"/>
                </g>
               <g id="resetDef">
                       <use xlink:href="#rim2" fill="#404040">
                               <set attributeName="fill" to="#808080" begin="reset.mouseover" end="reset.mouseout"/>
                       </use>
               </g>
        </defs>

<script type="text/javascript">
var viewWidth = 5202;
var viewHeight = 262;
var sectionId = 'dynsection-1';
</script>
<script xlink:href="../../svgpan.js"/>
<svg id="graph" class="graph">
<g id="viewport">
<title>G</title>
<polygon fill="white" stroke="white" points="-4,5 -4,-258 5199,-258 5199,5 -4,5"/>
<!-- Node1 -->
<g id="node1" class="node"><title>Node1</title>
<polygon fill="#bfbfbf" stroke="black" points="3201,-232.5 3201,-253.5 3599,-253.5 3599,-232.5 3201,-232.5"/>
<text text-anchor="middle" x="3400" y="-240.5" font-family="Helvetica,sans-Serif" font-size="10.00">/home/aoi/Documents/FxOS/B2G/gaia/xulrunner&#45;sdk/include/nsIWebProgressListener.h</text>
</g>
<!-- Node2 -->
<g id="node3" class="node"><title>Node2</title>
<a xlink:href="../../d8/d4f/_doc_manager_8h.html" target="_top" xlink:title="/home/aoi/Documents/FxOS/B2G/gaia/xulrunner&#45;sdk/include/mozilla/a11y/DocManager.h">
<polygon fill="white" stroke="black" points="676,-174.5 676,-195.5 1080,-195.5 1080,-174.5 676,-174.5"/>
<text text-anchor="middle" x="878" y="-182.5" font-family="Helvetica,sans-Serif" font-size="10.00">/home/aoi/Documents/FxOS/B2G/gaia/xulrunner&#45;sdk/include/mozilla/a11y/DocManager.h</text>
</a>
</g>
<!-- Node1&#45;&gt;Node2 -->
<g id="edge2" class="edge"><title>Node1&#45;&gt;Node2</title>
<path fill="none" stroke="midnightblue" d="M3190.69,-238.186C2713.63,-227.215 1550.72,-200.471 1080.38,-189.654"/>
<polygon fill="midnightblue" stroke="midnightblue" points="3190.71,-241.688 3200.79,-238.419 3190.87,-234.689 3190.71,-241.688"/>
</g>
<!-- Node4 -->
<g id="node7" class="node"><title>Node4</title>
<a xlink:href="../../d9/d9b/_h_t_m_l_form_element_8h.html" target="_top" xlink:title="/home/aoi/Documents/FxOS/B2G/gaia/xulrunner&#45;sdk/include/mozilla/dom/HTMLFormElement.h">
<polygon fill="white" stroke="black" points="1781,-174.5 1781,-195.5 2213,-195.5 2213,-174.5 1781,-174.5"/>
<text text-anchor="middle" x="1997" y="-182.5" font-family="Helvetica,sans-Serif" font-size="10.00">/home/aoi/Documents/FxOS/B2G/gaia/xulrunner&#45;sdk/include/mozilla/dom/HTMLFormElement.h</text>
</a>
</g>
<!-- Node1&#45;&gt;Node4 -->
<g id="edge6" class="edge"><title>Node1&#45;&gt;Node4</title>
<path fill="none" stroke="midnightblue" d="M3190.8,-234.352C2928,-223.487 2479.31,-204.939 2213.23,-193.939"/>
<polygon fill="midnightblue" stroke="midnightblue" points="3190.71,-237.851 3200.85,-234.767 3191,-230.857 3190.71,-237.851"/>
</g>
<!-- Node12 -->
<g id="node24" class="node"><title>Node12</title>
<a xlink:href="../../d2/d8e/_tab_child_8h.html" target="_top" xlink:title="/home/aoi/Documents/FxOS/B2G/gaia/xulrunner&#45;sdk/include/mozilla/dom/TabChild.h">
<polygon fill="white" stroke="black" points="2428,-174.5 2428,-195.5 2814,-195.5 2814,-174.5 2428,-174.5"/>
<text text-anchor="middle" x="2621" y="-182.5" font-family="Helvetica,sans-Serif" font-size="10.00">/home/aoi/Documents/FxOS/B2G/gaia/xulrunner&#45;sdk/include/mozilla/dom/TabChild.h</text>
</a>
</g>
<!-- Node1&#45;&gt;Node12 -->
<g id="edge24" class="edge"><title>Node1&#45;&gt;Node12</title>
<path fill="none" stroke="midnightblue" d="M3248.91,-231.751C3108.15,-221.27 2899.87,-205.763 2762.34,-195.523"/>
<polygon fill="midnightblue" stroke="midnightblue" points="3248.7,-235.244 3258.93,-232.497 3249.22,-228.264 3248.7,-235.244"/>
</g>
<!-- Node14 -->
<g id="node28" class="node"><title>Node14</title>
<a xlink:href="../../dd/d5c/ns_doc_loader_8h.html" target="_top" xlink:title="/home/aoi/Documents/FxOS/B2G/gaia/xulrunner&#45;sdk/include/nsDocLoader.h">
<polygon fill="white" stroke="black" points="2831.5,-174.5 2831.5,-195.5 3180.5,-195.5 3180.5,-174.5 2831.5,-174.5"/>
<text text-anchor="middle" x="3006" y="-182.5" font-family="Helvetica,sans-Serif" font-size="10.00">/home/aoi/Documents/FxOS/B2G/gaia/xulrunner&#45;sdk/include/nsDocLoader.h</text>
</a>
</g>
<!-- Node1&#45;&gt;Node14 -->
<g id="edge28" class="edge"><title>Node1&#45;&gt;Node14</title>
<path fill="none" stroke="midnightblue" d="M3318.4,-230.988C3247.35,-220.529 3145.38,-205.517 3077.48,-195.523"/>
<polygon fill="midnightblue" stroke="midnightblue" points="3318.25,-234.503 3328.65,-232.497 3319.27,-227.577 3318.25,-234.503"/>
</g>
<!-- Node15 -->
<g id="node30" class="node"><title>Node15</title>
<a xlink:href="../../d1/d0b/ns_i_web_progress_listener2_8h.html" target="_top" xlink:title="/home/aoi/Documents/FxOS/B2G/gaia/xulrunner&#45;sdk/include/nsIWebProgressListener2.h">
<polygon fill="white" stroke="black" points="3198,-174.5 3198,-195.5 3602,-195.5 3602,-174.5 3198,-174.5"/>
<text text-anchor="middle" x="3400" y="-182.5" font-family="Helvetica,sans-Serif" font-size="10.00">/home/aoi/Documents/FxOS/B2G/gaia/xulrunner&#45;sdk/include/nsIWebProgressListener2.h</text>
</a>
</g>
<!-- Node1&#45;&gt;Node15 -->
<g id="edge30" class="edge"><title>Node1&#45;&gt;Node15</title>
<path fill="none" stroke="midnightblue" d="M3400,-222.191C3400,-213.168 3400,-202.994 3400,-195.571"/>
<polygon fill="midnightblue" stroke="midnightblue" points="3396.5,-222.362 3400,-232.362 3403.5,-222.362 3396.5,-222.362"/>
</g>
<!-- Node20 -->
<g id="node40" class="node"><title>Node20</title>
<a xlink:href="../../d4/da3/ns_h_t_m_l_d_n_s_prefetch_8h.html" target="_top" xlink:title="/home/aoi/Documents/FxOS/B2G/gaia/xulrunner&#45;sdk/include/nsHTMLDNSPrefetch.h">
<polygon fill="white" stroke="black" points="3619.5,-174.5 3619.5,-195.5 4006.5,-195.5 4006.5,-174.5 3619.5,-174.5"/>
<text text-anchor="middle" x="3813" y="-182.5" font-family="Helvetica,sans-Serif" font-size="10.00">/home/aoi/Documents/FxOS/B2G/gaia/xulrunner&#45;sdk/include/nsHTMLDNSPrefetch.h</text>
</a>
</g>
<!-- Node1&#45;&gt;Node20 -->
<g id="edge40" class="edge"><title>Node1&#45;&gt;Node20</title>
<path fill="none" stroke="midnightblue" d="M3485.08,-231.052C3559.57,-220.591 3666.76,-205.538 3738.07,-195.523"/>
<polygon fill="midnightblue" stroke="midnightblue" points="3484.21,-227.64 3474.79,-232.497 3485.18,-234.572 3484.21,-227.64"/>
</g>
<!-- Node21 -->
<g id="node42" class="node"><title>Node21</title>
<a xlink:href="../../d8/dd1/ns_i_printing_prompt_8h.html" target="_top" xlink:title="/home/aoi/Documents/FxOS/B2G/gaia/xulrunner&#45;sdk/include/nsIPrintingPrompt.h">
<polygon fill="white" stroke="black" points="4023.5,-174.5 4023.5,-195.5 4392.5,-195.5 4392.5,-174.5 4023.5,-174.5"/>
<text text-anchor="middle" x="4208" y="-182.5" font-family="Helvetica,sans-Serif" font-size="10.00">/home/aoi/Documents/FxOS/B2G/gaia/xulrunner&#45;sdk/include/nsIPrintingPrompt.h</text>
</a>
</g>
<!-- Node1&#45;&gt;Node21 -->
<g id="edge42" class="edge"><title>Node1&#45;&gt;Node21</title>
<path fill="none" stroke="midnightblue" d="M3556.71,-231.751C3702.72,-221.27 3918.75,-205.763 4061.4,-195.523"/>
<polygon fill="midnightblue" stroke="midnightblue" points="3556.05,-228.29 3546.32,-232.497 3556.55,-235.272 3556.05,-228.29"/>
</g>
<!-- Node22 -->
<g id="node44" class="node"><title>Node22</title>
<a xlink:href="../../d1/d77/ns_i_printing_prompt_service_8h.html" target="_top" xlink:title="/home/aoi/Documents/FxOS/B2G/gaia/xulrunner&#45;sdk/include/nsIPrintingPromptService.h">
<polygon fill="white" stroke="black" points="4410,-174.5 4410,-195.5 4812,-195.5 4812,-174.5 4410,-174.5"/>
<text text-anchor="middle" x="4611" y="-182.5" font-family="Helvetica,sans-Serif" font-size="10.00">/home/aoi/Documents/FxOS/B2G/gaia/xulrunner&#45;sdk/include/nsIPrintingPromptService.h</text>
</a>
</g>
<!-- Node1&#45;&gt;Node22 -->
<g id="edge44" class="edge"><title>Node1&#45;&gt;Node22</title>
<path fill="none" stroke="midnightblue" d="M3609.59,-233.489C3812.13,-224.221 4127.6,-209.579 4401,-196 4404.28,-195.837 4407.59,-195.672 4410.93,-195.505"/>
<polygon fill="midnightblue" stroke="midnightblue" points="3609.26,-230.001 3599.43,-233.954 3609.58,-236.994 3609.26,-230.001"/>
</g>
<!-- Node23 -->
<g id="node46" class="node"><title>Node23</title>
<a xlink:href="../../df/ddd/ns_i_print_progress_8h.html" target="_top" xlink:title="/home/aoi/Documents/FxOS/B2G/gaia/xulrunner&#45;sdk/include/nsIPrintProgress.h">
<polygon fill="white" stroke="black" points="4830,-174.5 4830,-195.5 5194,-195.5 5194,-174.5 4830,-174.5"/>
<text text-anchor="middle" x="5012" y="-182.5" font-family="Helvetica,sans-Serif" font-size="10.00">/home/aoi/Documents/FxOS/B2G/gaia/xulrunner&#45;sdk/include/nsIPrintProgress.h</text>
</a>
</g>
<!-- Node1&#45;&gt;Node23 -->
<g id="edge46" class="edge"><title>Node1&#45;&gt;Node23</title>
<path fill="none" stroke="midnightblue" d="M3609.39,-237.676C3886.61,-230.261 4390.64,-215.507 4821,-196 4824.48,-195.842 4828,-195.679 4831.55,-195.51"/>
<polygon fill="midnightblue" stroke="midnightblue" points="3609.12,-234.182 3599.21,-237.948 3609.3,-241.18 3609.12,-234.182"/>
</g>
<!-- Node3 -->
<g id="node5" class="node"><title>Node3</title>
<a xlink:href="../../d9/d0b/ns_accessibility_service_8h.html" target="_top" xlink:title="/home/aoi/Documents/FxOS/B2G/gaia/xulrunner&#45;sdk/include/nsAccessibilityService.h">
<polygon fill="white" stroke="black" points="0,-116.5 0,-137.5 390,-137.5 390,-116.5 0,-116.5"/>
<text text-anchor="middle" x="195" y="-124.5" font-family="Helvetica,sans-Serif" font-size="10.00">/home/aoi/Documents/FxOS/B2G/gaia/xulrunner&#45;sdk/include/nsAccessibilityService.h</text>
</a>
</g>
<!-- Node2&#45;&gt;Node3 -->
<g id="edge4" class="edge"><title>Node2&#45;&gt;Node3</title>
<path fill="none" stroke="midnightblue" d="M744.048,-173.625C620.655,-163.146 439.021,-147.722 318.918,-137.523"/>
<polygon fill="midnightblue" stroke="midnightblue" points="744.054,-177.138 754.314,-174.497 744.646,-170.163 744.054,-177.138"/>
</g>
<!-- Node5 -->
<g id="node9" class="node"><title>Node5</title>
<a xlink:href="../../d2/d7e/_h_t_m_l_field_set_element_8h.html" target="_top" xlink:title="/home/aoi/Documents/FxOS/B2G/gaia/xulrunner&#45;sdk/include/mozilla/dom/HTMLFieldSetElement.h">
<polygon fill="white" stroke="black" points="408,-116.5 408,-137.5 854,-137.5 854,-116.5 408,-116.5"/>
<text text-anchor="middle" x="631" y="-124.5" font-family="Helvetica,sans-Serif" font-size="10.00">/home/aoi/Documents/FxOS/B2G/gaia/xulrunner&#45;sdk/include/mozilla/dom/HTMLFieldSetElement.h</text>
</a>
</g>
<!-- Node4&#45;&gt;Node5 -->
<g id="edge8" class="edge"><title>Node4&#45;&gt;Node5</title>
<path fill="none" stroke="midnightblue" d="M1770.79,-176.021C1541.89,-166.842 1177.83,-151.988 863,-138 859.375,-137.839 855.717,-137.676 852.035,-137.51"/>
<polygon fill="midnightblue" stroke="midnightblue" points="1770.78,-179.523 1780.91,-176.427 1771.06,-172.529 1770.78,-179.523"/>
</g>
<!-- Node6 -->
<g id="node11" class="node"><title>Node6</title>
<a xlink:href="../../dd/d48/_h_t_m_l_input_element_8h.html" target="_top" xlink:title="/home/aoi/Documents/FxOS/B2G/gaia/xulrunner&#45;sdk/include/mozilla/dom/HTMLInputElement.h">
<polygon fill="white" stroke="black" points="871.5,-116.5 871.5,-137.5 1302.5,-137.5 1302.5,-116.5 871.5,-116.5"/>
<text text-anchor="middle" x="1087" y="-124.5" font-family="Helvetica,sans-Serif" font-size="10.00">/home/aoi/Documents/FxOS/B2G/gaia/xulrunner&#45;sdk/include/mozilla/dom/HTMLInputElement.h</text>
</a>
</g>
<!-- Node4&#45;&gt;Node6 -->
<g id="edge10" class="edge"><title>Node4&#45;&gt;Node6</title>
<path fill="none" stroke="midnightblue" d="M1821.98,-173.845C1657.53,-163.363 1413.25,-147.794 1252.1,-137.523"/>
<polygon fill="midnightblue" stroke="midnightblue" points="1822,-177.353 1832.21,-174.497 1822.45,-170.368 1822,-177.353"/>
</g>
<!-- Node7 -->
<g id="node13" class="node"><title>Node7</title>
<a xlink:href="../../db/d22/_h_t_m_l_legend_element_8h.html" target="_top" xlink:title="/home/aoi/Documents/FxOS/B2G/gaia/xulrunner&#45;sdk/include/mozilla/dom/HTMLLegendElement.h">
<polygon fill="white" stroke="black" points="1319.5,-116.5 1319.5,-137.5 1760.5,-137.5 1760.5,-116.5 1319.5,-116.5"/>
<text text-anchor="middle" x="1540" y="-124.5" font-family="Helvetica,sans-Serif" font-size="10.00">/home/aoi/Documents/FxOS/B2G/gaia/xulrunner&#45;sdk/include/mozilla/dom/HTMLLegendElement.h</text>
</a>
</g>
<!-- Node4&#45;&gt;Node7 -->
<g id="edge12" class="edge"><title>Node4&#45;&gt;Node7</title>
<path fill="none" stroke="midnightblue" d="M1904.12,-173.212C1821.64,-162.745 1702.23,-147.589 1622.91,-137.523"/>
<polygon fill="midnightblue" stroke="midnightblue" points="1903.88,-176.71 1914.24,-174.497 1904.76,-169.765 1903.88,-176.71"/>
</g>
<!-- Node8 -->
<g id="node15" class="node"><title>Node8</title>
<a xlink:href="../../d5/db7/_h_t_m_l_option_element_8h.html" target="_top" xlink:title="/home/aoi/Documents/FxOS/B2G/gaia/xulrunner&#45;sdk/include/mozilla/dom/HTMLOptionElement.h">
<polygon fill="white" stroke="black" points="1778,-116.5 1778,-137.5 2216,-137.5 2216,-116.5 1778,-116.5"/>
<text text-anchor="middle" x="1997" y="-124.5" font-family="Helvetica,sans-Serif" font-size="10.00">/home/aoi/Documents/FxOS/B2G/gaia/xulrunner&#45;sdk/include/mozilla/dom/HTMLOptionElement.h</text>
</a>
</g>
<!-- Node4&#45;&gt;Node8 -->
<g id="edge14" class="edge"><title>Node4&#45;&gt;Node8</title>
<path fill="none" stroke="midnightblue" d="M1997,-164.191C1997,-155.168 1997,-144.994 1997,-137.571"/>
<polygon fill="midnightblue" stroke="midnightblue" points="1993.5,-164.362 1997,-174.362 2000.5,-164.362 1993.5,-164.362"/>
</g>
<!-- Node10 -->
<g id="node19" class="node"><title>Node10</title>
<a xlink:href="../../d3/dcd/_h_t_m_l_select_element_8h.html" target="_top" xlink:title="/home/aoi/Documents/FxOS/B2G/gaia/xulrunner&#45;sdk/include/mozilla/dom/HTMLSelectElement.h">
<polygon fill="white" stroke="black" points="1898.5,-0.5 1898.5,-21.5 2335.5,-21.5 2335.5,-0.5 1898.5,-0.5"/>
<text text-anchor="middle" x="2117" y="-8.5" font-family="Helvetica,sans-Serif" font-size="10.00">/home/aoi/Documents/FxOS/B2G/gaia/xulrunner&#45;sdk/include/mozilla/dom/HTMLSelectElement.h</text>
</a>
</g>
<!-- Node4&#45;&gt;Node10 -->
<g id="edge20" class="edge"><title>Node4&#45;&gt;Node10</title>
<path fill="none" stroke="midnightblue" d="M2124.16,-172.924C2168.79,-165.848 2211.26,-154.858 2225,-138 2247.46,-110.437 2244.49,-87.7377 2225,-58 2212.95,-39.6147 2191.98,-28.3825 2171.7,-21.5378"/>
<polygon fill="midnightblue" stroke="midnightblue" points="2123.37,-169.504 2114.01,-174.464 2124.42,-176.425 2123.37,-169.504"/>
</g>
<!-- Node11 -->
<g id="node22" class="node"><title>Node11</title>
<a xlink:href="../../d3/d2e/_h_t_m_l_text_area_element_8h.html" target="_top" xlink:title="/home/aoi/Documents/FxOS/B2G/gaia/xulrunner&#45;sdk/include/mozilla/dom/HTMLTextAreaElement.h">
<polygon fill="white" stroke="black" points="2271.5,-116.5 2271.5,-137.5 2720.5,-137.5 2720.5,-116.5 2271.5,-116.5"/>
<text text-anchor="middle" x="2496" y="-124.5" font-family="Helvetica,sans-Serif" font-size="10.00">/home/aoi/Documents/FxOS/B2G/gaia/xulrunner&#45;sdk/include/mozilla/dom/HTMLTextAreaElement.h</text>
</a>
</g>
<!-- Node4&#45;&gt;Node11 -->
<g id="edge22" class="edge"><title>Node4&#45;&gt;Node11</title>
<path fill="none" stroke="midnightblue" d="M2097.32,-173.34C2187.41,-162.868 2318.51,-147.63 2405.47,-137.523"/>
<polygon fill="midnightblue" stroke="midnightblue" points="2096.89,-169.865 2087.37,-174.497 2097.7,-176.819 2096.89,-169.865"/>
</g>
<!-- Node9 -->
<g id="node17" class="node"><title>Node9</title>
<a xlink:href="../../db/d09/_h_t_m_l_options_collection_8h.html" target="_top" xlink:title="/home/aoi/Documents/FxOS/B2G/gaia/xulrunner&#45;sdk/include/mozilla/dom/HTMLOptionsCollection.h">
<polygon fill="white" stroke="black" points="1765.5,-58.5 1765.5,-79.5 2216.5,-79.5 2216.5,-58.5 1765.5,-58.5"/>
<text text-anchor="middle" x="1991" y="-66.5" font-family="Helvetica,sans-Serif" font-size="10.00">/home/aoi/Documents/FxOS/B2G/gaia/xulrunner&#45;sdk/include/mozilla/dom/HTMLOptionsCollection.h</text>
</a>
</g>
<!-- Node8&#45;&gt;Node9 -->
<g id="edge16" class="edge"><title>Node8&#45;&gt;Node9</title>
<path fill="none" stroke="midnightblue" d="M1994.85,-106.191C1993.91,-97.1684 1992.86,-86.9941 1992.09,-79.5707"/>
<polygon fill="midnightblue" stroke="midnightblue" points="1991.39,-106.775 1995.9,-116.362 1998.35,-106.055 1991.39,-106.775"/>
</g>
<!-- Node9&#45;&gt;Node10 -->
<g id="edge18" class="edge"><title>Node9&#45;&gt;Node10</title>
<path fill="none" stroke="midnightblue" d="M2023.14,-54.2064C2045.24,-44.031 2074.08,-30.7567 2093.93,-21.6212"/>
<polygon fill="midnightblue" stroke="midnightblue" points="2021.44,-51.1358 2013.82,-58.4966 2024.36,-57.4945 2021.44,-51.1358"/>
</g>
<!-- Node13 -->
<g id="node26" class="node"><title>Node13</title>
<a xlink:href="../../d9/dba/_remote_open_file_child_8h.html" target="_top" xlink:title="/home/aoi/Documents/FxOS/B2G/gaia/xulrunner&#45;sdk/include/mozilla/net/RemoteOpenFileChild.h">
<polygon fill="white" stroke="black" points="2737.5,-116.5 2737.5,-137.5 3174.5,-137.5 3174.5,-116.5 2737.5,-116.5"/>
<text text-anchor="middle" x="2956" y="-124.5" font-family="Helvetica,sans-Serif" font-size="10.00">/home/aoi/Documents/FxOS/B2G/gaia/xulrunner&#45;sdk/include/mozilla/net/RemoteOpenFileChild.h</text>
</a>
</g>
<!-- Node12&#45;&gt;Node13 -->
<g id="edge26" class="edge"><title>Node12&#45;&gt;Node13</title>
<path fill="none" stroke="midnightblue" d="M2691.87,-172.73C2752.21,-162.283 2837.97,-147.435 2895.22,-137.523"/>
<polygon fill="midnightblue" stroke="midnightblue" points="2690.92,-169.342 2681.67,-174.497 2692.12,-176.239 2690.92,-169.342"/>
</g>
<!-- Node16 -->
<g id="node32" class="node"><title>Node16</title>
<a xlink:href="../../d1/ddd/ns_external_helper_app_service_8h.html" target="_top" xlink:title="/home/aoi/Documents/FxOS/B2G/gaia/xulrunner&#45;sdk/include/nsExternalHelperAppService.h">
<polygon fill="white" stroke="black" points="3192,-116.5 3192,-137.5 3608,-137.5 3608,-116.5 3192,-116.5"/>
<text text-anchor="middle" x="3400" y="-124.5" font-family="Helvetica,sans-Serif" font-size="10.00">/home/aoi/Documents/FxOS/B2G/gaia/xulrunner&#45;sdk/include/nsExternalHelperAppService.h</text>
</a>
</g>
<!-- Node15&#45;&gt;Node16 -->
<g id="edge32" class="edge"><title>Node15&#45;&gt;Node16</title>
<path fill="none" stroke="midnightblue" d="M3400,-164.191C3400,-155.168 3400,-144.994 3400,-137.571"/>
<polygon fill="midnightblue" stroke="midnightblue" points="3396.5,-164.362 3400,-174.362 3403.5,-164.362 3396.5,-164.362"/>
</g>
<!-- Node18 -->
<g id="node36" class="node"><title>Node18</title>
<a xlink:href="../../d0/d3e/ns_i_transfer_8h.html" target="_top" xlink:title="/home/aoi/Documents/FxOS/B2G/gaia/xulrunner&#45;sdk/include/nsITransfer.h">
<polygon fill="white" stroke="black" points="3625.5,-116.5 3625.5,-137.5 3966.5,-137.5 3966.5,-116.5 3625.5,-116.5"/>
<text text-anchor="middle" x="3796" y="-124.5" font-family="Helvetica,sans-Serif" font-size="10.00">/home/aoi/Documents/FxOS/B2G/gaia/xulrunner&#45;sdk/include/nsITransfer.h</text>
</a>
</g>
<!-- Node15&#45;&gt;Node18 -->
<g id="edge36" class="edge"><title>Node15&#45;&gt;Node18</title>
<path fill="none" stroke="midnightblue" d="M3482.01,-172.988C3553.42,-162.529 3655.92,-147.517 3724.15,-137.523"/>
<polygon fill="midnightblue" stroke="midnightblue" points="3481.1,-169.584 3471.71,-174.497 3482.11,-176.51 3481.1,-169.584"/>
</g>
<!-- Node17 -->
<g id="node34" class="node"><title>Node17</title>
<a xlink:href="../../d4/d23/ns_o_s_helper_app_service_8h.html" target="_top" xlink:title="/home/aoi/Documents/FxOS/B2G/gaia/xulrunner&#45;sdk/include/nsOSHelperAppService.h">
<polygon fill="white" stroke="black" points="3202.5,-58.5 3202.5,-79.5 3597.5,-79.5 3597.5,-58.5 3202.5,-58.5"/>
<text text-anchor="middle" x="3400" y="-66.5" font-family="Helvetica,sans-Serif" font-size="10.00">/home/aoi/Documents/FxOS/B2G/gaia/xulrunner&#45;sdk/include/nsOSHelperAppService.h</text>
</a>
</g>
<!-- Node16&#45;&gt;Node17 -->
<g id="edge34" class="edge"><title>Node16&#45;&gt;Node17</title>
<path fill="none" stroke="midnightblue" d="M3400,-106.191C3400,-97.1684 3400,-86.9941 3400,-79.5707"/>
<polygon fill="midnightblue" stroke="midnightblue" points="3396.5,-106.362 3400,-116.362 3403.5,-106.362 3396.5,-106.362"/>
</g>
<!-- Node19 -->
<g id="node38" class="node"><title>Node19</title>
<a xlink:href="../../d0/d1e/ns_i_download_8h.html" target="_top" xlink:title="/home/aoi/Documents/FxOS/B2G/gaia/xulrunner&#45;sdk/include/nsIDownload.h">
<polygon fill="white" stroke="black" points="3622,-58.5 3622,-79.5 3970,-79.5 3970,-58.5 3622,-58.5"/>
<text text-anchor="middle" x="3796" y="-66.5" font-family="Helvetica,sans-Serif" font-size="10.00">/home/aoi/Documents/FxOS/B2G/gaia/xulrunner&#45;sdk/include/nsIDownload.h</text>
</a>
</g>
<!-- Node18&#45;&gt;Node19 -->
<g id="edge38" class="edge"><title>Node18&#45;&gt;Node19</title>
<path fill="none" stroke="midnightblue" d="M3796,-106.191C3796,-97.1684 3796,-86.9941 3796,-79.5707"/>
<polygon fill="midnightblue" stroke="midnightblue" points="3792.5,-106.362 3796,-116.362 3799.5,-106.362 3792.5,-106.362"/>
</g>
</g>
</svg>
        <g id="navigator" transform="translate(0 0)" fill="#404254">
                <rect fill="#f2f5e9" fill-opacity="0.5" stroke="#606060" stroke-width=".5" x="0" y="0" width="60" height="60"/>
                <use id="zoomplus" xlink:href="#zoomPlus" x="17" y="9" onmousedown="handleZoom(evt,'in')"/>
                <use id="zoomminus" xlink:href="#zoomMin" x="42" y="9" onmousedown="handleZoom(evt,'out')"/>
                <use id="reset" xlink:href="#resetDef" x="30" y="36" onmousedown="handleReset()"/>
                <g id="arrowUp" xlink:href="#dirArrow" transform="translate(30 24)" onmousedown="handlePan(0,-1)">
                  <use xlink:href="#rim" fill="#404040">
                        <set attributeName="fill" to="#808080" begin="arrowUp.mouseover" end="arrowUp.mouseout"/>
                  </use>
                  <path fill="none" stroke="white" stroke-width="1.5" d="M0,-3.0v7 M-2.5,-0.5L0,-3.0L2.5,-0.5"/>
                </g>
                <g id="arrowRight" xlink:href="#dirArrow" transform="rotate(90) translate(36 -43)" onmousedown="handlePan(1,0)">
                  <use xlink:href="#rim" fill="#404040">
                        <set attributeName="fill" to="#808080" begin="arrowRight.mouseover" end="arrowRight.mouseout"/>
                  </use>
                  <path fill="none" stroke="white" stroke-width="1.5" d="M0,-3.0v7 M-2.5,-0.5L0,-3.0L2.5,-0.5"/>
                </g>
                <g id="arrowDown" xlink:href="#dirArrow" transform="rotate(180) translate(-30 -48)" onmousedown="handlePan(0,1)">
                  <use xlink:href="#rim" fill="#404040">
                        <set attributeName="fill" to="#808080" begin="arrowDown.mouseover" end="arrowDown.mouseout"/>
                  </use>
                  <path fill="none" stroke="white" stroke-width="1.5" d="M0,-3.0v7 M-2.5,-0.5L0,-3.0L2.5,-0.5"/>
                </g>
                <g id="arrowLeft" xlink:href="#dirArrow" transform="rotate(270) translate(-36 17)" onmousedown="handlePan(-1,0)">
                  <use xlink:href="#rim" fill="#404040">
                        <set attributeName="fill" to="#808080" begin="arrowLeft.mouseover" end="arrowLeft.mouseout"/>
                  </use>
                  <path fill="none" stroke="white" stroke-width="1.5" d="M0,-3.0v7 M-2.5,-0.5L0,-3.0L2.5,-0.5"/>
                </g>
        </g>
</svg>
