<?xml version="1.0" encoding="UTF-8" standalone="no"?>
<!DOCTYPE svg PUBLIC "-//W3C//DTD SVG 1.1//EN"
 "http://www.w3.org/Graphics/SVG/1.1/DTD/svg11.dtd">
<!-- Generated by graphviz version 2.26.3 (20100126.1600)
 -->
<!-- Title: G Pages: 1 -->
<svg width="398pt" height="30pt"
 viewBox="0.00 0.00 398.00 30.00" xmlns="http://www.w3.org/2000/svg" xmlns:xlink="http://www.w3.org/1999/xlink">
<g id="graph1" class="graph" transform="scale(1 1) rotate(0) translate(4 26)">
<title>G</title>
<polygon fill="white" stroke="white" points="-4,5 -4,-26 395,-26 395,5 -4,5"/>
<!-- Node1 -->
<g id="node1" class="node"><title>Node1</title>
<polygon fill="#bfbfbf" stroke="black" points="0,-0.5 0,-21.5 72,-21.5 72,-0.5 0,-0.5"/>
<text text-anchor="middle" x="36" y="-8.5" font-family="Helvetica,sans-Serif" font-size="10.00">pages_to_kb</text>
</g>
<!-- Node2 -->
<g id="node3" class="node"><title>Node2</title>
<a xlink:href="../../d0/d91/b2g-info_8cpp.html#ad94350f1cec145d9fd41ae522c6c45ed" target="_top" xlink:title="print_lmk_params">
<polygon fill="white" stroke="black" points="108,-0.5 108,-21.5 202,-21.5 202,-0.5 108,-0.5"/>
<text text-anchor="middle" x="155" y="-8.5" font-family="Helvetica,sans-Serif" font-size="10.00">print_lmk_params</text>
</a>
</g>
<!-- Node1&#45;&gt;Node2 -->
<g id="edge2" class="edge"><title>Node1&#45;&gt;Node2</title>
<path fill="none" stroke="midnightblue" d="M82.0398,-11C90.4419,-11 99.2218,-11 107.661,-11"/>
<polygon fill="midnightblue" stroke="midnightblue" points="82.0269,-7.5001 72.0269,-11 82.0268,-14.5001 82.0269,-7.5001"/>
</g>
<!-- Node3 -->
<g id="node5" class="node"><title>Node3</title>
<a xlink:href="../../d0/d91/b2g-info_8cpp.html#a72987403ed81c976534491e6e4cb7533" target="_top" xlink:title="print_b2g_info">
<polygon fill="white" stroke="black" points="238.5,-0.5 238.5,-21.5 315.5,-21.5 315.5,-0.5 238.5,-0.5"/>
<text text-anchor="middle" x="277" y="-8.5" font-family="Helvetica,sans-Serif" font-size="10.00">print_b2g_info</text>
</a>
</g>
<!-- Node2&#45;&gt;Node3 -->
<g id="edge4" class="edge"><title>Node2&#45;&gt;Node3</title>
<path fill="none" stroke="midnightblue" d="M212.372,-11C221.141,-11 230.009,-11 238.25,-11"/>
<polygon fill="midnightblue" stroke="midnightblue" points="212.168,-7.5001 202.168,-11 212.168,-14.5001 212.168,-7.5001"/>
</g>
<!-- Node4 -->
<g id="node7" class="node"><title>Node4</title>
<a xlink:href="../../d0/d91/b2g-info_8cpp.html#a217dbf8b442f20279ea00b898af96f52" target="_top" xlink:title="main">
<polygon fill="white" stroke="black" points="352,-0.5 352,-21.5 390,-21.5 390,-0.5 352,-0.5"/>
<text text-anchor="middle" x="371" y="-8.5" font-family="Helvetica,sans-Serif" font-size="10.00">main</text>
</a>
</g>
<!-- Node3&#45;&gt;Node4 -->
<g id="edge6" class="edge"><title>Node3&#45;&gt;Node4</title>
<path fill="none" stroke="midnightblue" d="M325.632,-11C334.998,-11 344.278,-11 351.981,-11"/>
<polygon fill="midnightblue" stroke="midnightblue" points="325.505,-7.5001 315.505,-11 325.505,-14.5001 325.505,-7.5001"/>
</g>
</g>
</svg>
