<?xml version="1.0" encoding="UTF-8" standalone="no"?>
<!DOCTYPE svg PUBLIC "-//W3C//DTD SVG 1.1//EN"
 "http://www.w3.org/Graphics/SVG/1.1/DTD/svg11.dtd">
<!-- Generated by graphviz version 2.26.3 (20100126.1600)
 -->
<!-- Title: G Pages: 1 -->
<!--zoomable 310 -->
<svg id="main" version="1.1" xmlns="http://www.w3.org/2000/svg" xmlns:xlink="http://www.w3.org/1999/xlink" xml:space="preserve" onload="init(evt)">
        <defs>
                <circle id="rim" cx="0" cy="0" r="7"/>
                <circle id="rim2" cx="0" cy="0" r="3.5"/>
                <g id="zoomPlus">
                        <use xlink:href="#rim" fill="#404040">
                                <set attributeName="fill" to="#808080" begin="zoomplus.mouseover" end="zoomplus.mouseout"/>
                        </use>
                        <path d="M-4,0h8M0,-4v8" fill="none" stroke="white" stroke-width="1.5" pointer-events="none"/>
                </g>
                <g id="zoomMin">
                        <use xlink:href="#rim" fill="#404040">
                                <set attributeName="fill" to="#808080" begin="zoomminus.mouseover" end="zoomminus.mouseout"/>
                        </use>
                        <path d="M-4,0h8" fill="none" stroke="white" stroke-width="1.5" pointer-events="none"/>
                </g>
                <g id="dirArrow">
                        <path fill="none" stroke="white" stroke-width="1.5" d="M0,-3.0v7 M-2.5,-0.5L0,-3.0L2.5,-0.5"/>
                </g>
               <g id="resetDef">
                       <use xlink:href="#rim2" fill="#404040">
                               <set attributeName="fill" to="#808080" begin="reset.mouseover" end="reset.mouseout"/>
                       </use>
               </g>
        </defs>

<script type="text/javascript">
var viewWidth = 962;
var viewHeight = 310;
var sectionId = 'dynsection-0';
</script>
<script xlink:href="../../svgpan.js"/>
<svg id="graph" class="graph">
<g id="viewport">
<title>G</title>
<polygon fill="white" stroke="white" points="-4,5 -4,-306 959,-306 959,5 -4,5"/>
<!-- Node1 -->
<g id="node1" class="node"><title>Node1</title>
<polygon fill="#bfbfbf" stroke="black" points="106.5,-120.5 106.5,-141.5 173.5,-141.5 173.5,-120.5 106.5,-120.5"/>
<text text-anchor="middle" x="140" y="-128.5" font-family="Helvetica,sans-Serif" font-size="10.00">nsIRequest</text>
</g>
<!-- Node3 -->
<g id="node6" class="node"><title>Node3</title>
<a xlink:href="../../d6/d84/interfaceimg_i_request.html" target="_top" xlink:title="imgIRequest">
<polygon fill="white" stroke="black" points="237,-240.5 237,-261.5 309,-261.5 309,-240.5 237,-240.5"/>
<text text-anchor="middle" x="273" y="-248.5" font-family="Helvetica,sans-Serif" font-size="10.00">imgIRequest</text>
</a>
</g>
<!-- Node1&#45;&gt;Node3 -->
<g id="edge6" class="edge"><title>Node1&#45;&gt;Node3</title>
<path fill="none" stroke="midnightblue" d="M152.434,-150.568C164.249,-171.274 184.054,-202.933 210,-222 222.669,-231.31 239.821,-236.383 253.029,-240.467"/>
<polygon fill="midnightblue" stroke="midnightblue" points="155.375,-148.656 147.43,-141.647 149.27,-152.081 155.375,-148.656"/>
</g>
<!-- Node1&#45;&gt;Node3 -->
<g id="edge12" class="edge"><title>Node1&#45;&gt;Node3</title>
<path fill="none" stroke="midnightblue" d="M146.375,-151.277C156.652,-176.253 178.92,-217.161 210,-240 217.86,-245.776 227.446,-249.921 236.745,-252.552"/>
<polygon fill="midnightblue" stroke="midnightblue" points="149.539,-149.752 142.714,-141.648 142.996,-152.239 149.539,-149.752"/>
</g>
<!-- Node6 -->
<g id="node13" class="node"><title>Node6</title>
<a xlink:href="../../d1/d13/interfacens_i_async_stream_copier.html" target="_top" xlink:title="nsIAsyncStreamCopier">
<polygon fill="white" stroke="black" points="214,-200.5 214,-221.5 332,-221.5 332,-200.5 214,-200.5"/>
<text text-anchor="middle" x="273" y="-208.5" font-family="Helvetica,sans-Serif" font-size="10.00">nsIAsyncStreamCopier</text>
</a>
</g>
<!-- Node1&#45;&gt;Node6 -->
<g id="edge14" class="edge"><title>Node1&#45;&gt;Node6</title>
<path fill="none" stroke="midnightblue" d="M164.667,-148.346C177.302,-159.318 193.48,-172.803 210,-182 224.839,-190.262 243.577,-195.655 256.746,-200.475"/>
<polygon fill="midnightblue" stroke="midnightblue" points="166.742,-145.511 156.908,-141.568 162.137,-150.783 166.742,-145.511"/>
</g>
<!-- Node1&#45;&gt;Node6 -->
<g id="edge16" class="edge"><title>Node1&#45;&gt;Node6</title>
<path fill="none" stroke="midnightblue" d="M151.411,-149.967C164.414,-165.845 186.873,-187.124 210,-200 211.303,-200.726 212.637,-201.429 213.994,-202.11"/>
<polygon fill="midnightblue" stroke="midnightblue" points="154.044,-147.646 145.216,-141.789 148.465,-151.873 154.044,-147.646"/>
</g>
<!-- Node7 -->
<g id="node16" class="node"><title>Node7</title>
<a xlink:href="../../d1/d2d/interfacens_i_channel.html" target="_top" xlink:title="nsIChannel">
<polygon fill="white" stroke="black" points="240,-160.5 240,-181.5 306,-181.5 306,-160.5 240,-160.5"/>
<text text-anchor="middle" x="273" y="-168.5" font-family="Helvetica,sans-Serif" font-size="10.00">nsIChannel</text>
</a>
</g>
<!-- Node1&#45;&gt;Node7 -->
<g id="edge44" class="edge"><title>Node1&#45;&gt;Node7</title>
<path fill="none" stroke="midnightblue" d="M183.506,-137.707C207.459,-144.105 235.95,-153.176 254.244,-160.488"/>
<polygon fill="midnightblue" stroke="midnightblue" points="184.119,-134.25 173.562,-135.141 182.37,-141.028 184.119,-134.25"/>
</g>
<!-- Node1&#45;&gt;Node7 -->
<g id="edge18" class="edge"><title>Node1&#45;&gt;Node7</title>
<path fill="none" stroke="midnightblue" d="M168.393,-145.187C189.362,-152.864 217.963,-161.558 239.959,-166.988"/>
<polygon fill="midnightblue" stroke="midnightblue" points="169.364,-141.812 158.774,-141.519 166.87,-148.353 169.364,-141.812"/>
</g>
<!-- Node16 -->
<g id="node39" class="node"><title>Node16</title>
<a xlink:href="../../d1/d5e/interfacens_i_incremental_download.html" target="_top" xlink:title="nsIIncrementalDownload">
<polygon fill="white" stroke="black" points="210.5,-120.5 210.5,-141.5 335.5,-141.5 335.5,-120.5 210.5,-120.5"/>
<text text-anchor="middle" x="273" y="-128.5" font-family="Helvetica,sans-Serif" font-size="10.00">nsIIncrementalDownload</text>
</a>
</g>
<!-- Node1&#45;&gt;Node16 -->
<g id="edge46" class="edge"><title>Node1&#45;&gt;Node16</title>
<path fill="none" stroke="midnightblue" d="M183.68,-124.616C192.246,-124.331 201.387,-124.212 210.431,-124.26"/>
<polygon fill="midnightblue" stroke="midnightblue" points="183.403,-121.125 173.562,-125.048 183.701,-128.119 183.403,-121.125"/>
</g>
<!-- Node1&#45;&gt;Node16 -->
<g id="edge48" class="edge"><title>Node1&#45;&gt;Node16</title>
<path fill="none" stroke="midnightblue" d="M183.68,-137.384C192.246,-137.669 201.387,-137.788 210.431,-137.74"/>
<polygon fill="midnightblue" stroke="midnightblue" points="183.701,-133.881 173.562,-136.952 183.403,-140.875 183.701,-133.881"/>
</g>
<!-- Node17 -->
<g id="node42" class="node"><title>Node17</title>
<a xlink:href="../../de/df0/interfacens_i_input_stream_pump.html" target="_top" xlink:title="nsIInputStreamPump">
<polygon fill="white" stroke="black" points="218.5,-80.5 218.5,-101.5 327.5,-101.5 327.5,-80.5 218.5,-80.5"/>
<text text-anchor="middle" x="273" y="-88.5" font-family="Helvetica,sans-Serif" font-size="10.00">nsIInputStreamPump</text>
</a>
</g>
<!-- Node1&#45;&gt;Node17 -->
<g id="edge50" class="edge"><title>Node1&#45;&gt;Node17</title>
<path fill="none" stroke="midnightblue" d="M168.229,-116.872C182.835,-111.519 201.175,-105.665 218.411,-100.765"/>
<polygon fill="midnightblue" stroke="midnightblue" points="166.868,-113.646 158.774,-120.481 169.364,-120.185 166.868,-113.646"/>
</g>
<!-- Node1&#45;&gt;Node17 -->
<g id="edge52" class="edge"><title>Node1&#45;&gt;Node17</title>
<path fill="none" stroke="midnightblue" d="M183.506,-124.293C207.459,-117.895 235.95,-108.824 254.244,-101.512"/>
<polygon fill="midnightblue" stroke="midnightblue" points="182.37,-120.972 173.562,-126.859 184.119,-127.75 182.37,-120.972"/>
</g>
<!-- Node18 -->
<g id="node45" class="node"><title>Node18</title>
<a xlink:href="../../da/d0e/interfacens_i_load_group.html" target="_top" xlink:title="nsILoadGroup">
<polygon fill="white" stroke="black" points="234.5,-40.5 234.5,-61.5 311.5,-61.5 311.5,-40.5 234.5,-40.5"/>
<text text-anchor="middle" x="273" y="-48.5" font-family="Helvetica,sans-Serif" font-size="10.00">nsILoadGroup</text>
</a>
</g>
<!-- Node1&#45;&gt;Node18 -->
<g id="edge54" class="edge"><title>Node1&#45;&gt;Node18</title>
<path fill="none" stroke="midnightblue" d="M151.411,-112.033C164.414,-96.1551 186.873,-74.8762 210,-62 217.52,-57.8134 226.041,-54.3633 234.331,-51.8038"/>
<polygon fill="midnightblue" stroke="midnightblue" points="148.465,-110.127 145.216,-120.211 154.044,-114.354 148.465,-110.127"/>
</g>
<!-- Node1&#45;&gt;Node18 -->
<g id="edge56" class="edge"><title>Node1&#45;&gt;Node18</title>
<path fill="none" stroke="midnightblue" d="M164.667,-113.654C177.302,-102.682 193.48,-89.1973 210,-80 224.839,-71.7385 243.577,-66.3448 256.746,-61.5252"/>
<polygon fill="midnightblue" stroke="midnightblue" points="162.137,-111.217 156.908,-120.432 166.742,-116.489 162.137,-111.217"/>
</g>
<!-- Node19 -->
<g id="node48" class="node"><title>Node19</title>
<a xlink:href="../../d1/d9c/interfacens_i_u_r_i_checker.html" target="_top" xlink:title="nsIURIChecker">
<polygon fill="white" stroke="black" points="230.5,-0.5 230.5,-21.5 315.5,-21.5 315.5,-0.5 230.5,-0.5"/>
<text text-anchor="middle" x="273" y="-8.5" font-family="Helvetica,sans-Serif" font-size="10.00">nsIURIChecker</text>
</a>
</g>
<!-- Node1&#45;&gt;Node19 -->
<g id="edge58" class="edge"><title>Node1&#45;&gt;Node19</title>
<path fill="none" stroke="midnightblue" d="M146.375,-110.723C156.652,-85.7471 178.92,-44.8391 210,-22 216.103,-17.5151 223.247,-14.0134 230.489,-11.4403"/>
<polygon fill="midnightblue" stroke="midnightblue" points="142.996,-109.761 142.714,-120.352 149.539,-112.248 142.996,-109.761"/>
</g>
<!-- Node1&#45;&gt;Node19 -->
<g id="edge60" class="edge"><title>Node1&#45;&gt;Node19</title>
<path fill="none" stroke="midnightblue" d="M152.434,-111.432C164.249,-90.7258 184.054,-59.0666 210,-40 222.669,-30.6905 239.821,-25.6172 253.029,-21.5329"/>
<polygon fill="midnightblue" stroke="midnightblue" points="149.27,-109.919 147.43,-120.353 155.375,-113.344 149.27,-109.919"/>
</g>
<!-- Node2 -->
<g id="node2" class="node"><title>Node2</title>
<a xlink:href="../../d4/d6a/classns_i_supports.html" target="_top" xlink:title="nsISupports">
<polygon fill="white" stroke="black" points="0.5,-120.5 0.5,-141.5 69.5,-141.5 69.5,-120.5 0.5,-120.5"/>
<text text-anchor="middle" x="35" y="-128.5" font-family="Helvetica,sans-Serif" font-size="10.00">nsISupports</text>
</a>
</g>
<!-- Node2&#45;&gt;Node1 -->
<g id="edge2" class="edge"><title>Node2&#45;&gt;Node1</title>
<path fill="none" stroke="midnightblue" d="M79.9135,-124.313C88.8075,-124.164 97.9983,-124.279 106.436,-124.656"/>
<polygon fill="midnightblue" stroke="midnightblue" points="79.5668,-120.821 69.6719,-124.609 79.7687,-127.819 79.5668,-120.821"/>
</g>
<!-- Node2&#45;&gt;Node1 -->
<g id="edge4" class="edge"><title>Node2&#45;&gt;Node1</title>
<path fill="none" stroke="midnightblue" d="M79.9135,-137.687C88.8075,-137.836 97.9983,-137.721 106.436,-137.344"/>
<polygon fill="midnightblue" stroke="midnightblue" points="79.7687,-134.181 69.6719,-137.391 79.5668,-141.179 79.7687,-134.181"/>
</g>
<!-- Node4 -->
<g id="node8" class="node"><title>Node4</title>
<a xlink:href="../../d8/dbd/classimg_request_proxy.html" target="_top" xlink:title="imgRequestProxy">
<polygon fill="white" stroke="black" points="418.5,-280.5 418.5,-301.5 513.5,-301.5 513.5,-280.5 418.5,-280.5"/>
<text text-anchor="middle" x="466" y="-288.5" font-family="Helvetica,sans-Serif" font-size="10.00">imgRequestProxy</text>
</a>
</g>
<!-- Node3&#45;&gt;Node4 -->
<g id="edge8" class="edge"><title>Node3&#45;&gt;Node4</title>
<path fill="none" stroke="midnightblue" d="M319.471,-260.631C349.343,-266.822 388.056,-274.846 418.188,-281.091"/>
<polygon fill="midnightblue" stroke="midnightblue" points="319.804,-257.126 309.302,-258.524 318.383,-263.98 319.804,-257.126"/>
</g>
<!-- Node5 -->
<g id="node10" class="node"><title>Node5</title>
<a xlink:href="../../d5/d77/classimg_request_proxy_static.html" target="_top" xlink:title="imgRequestProxyStatic">
<polygon fill="white" stroke="black" points="622,-280.5 622,-301.5 742,-301.5 742,-280.5 622,-280.5"/>
<text text-anchor="middle" x="682" y="-288.5" font-family="Helvetica,sans-Serif" font-size="10.00">imgRequestProxyStatic</text>
</a>
</g>
<!-- Node4&#45;&gt;Node5 -->
<g id="edge10" class="edge"><title>Node4&#45;&gt;Node5</title>
<path fill="none" stroke="midnightblue" d="M524.054,-291C554.263,-291 591.157,-291 621.688,-291"/>
<polygon fill="midnightblue" stroke="midnightblue" points="523.67,-287.5 513.67,-291 523.669,-294.5 523.67,-287.5"/>
</g>
<!-- Node8 -->
<g id="node18" class="node"><title>Node8</title>
<a xlink:href="../../d2/de9/classmozilla_1_1dom_1_1_external_helper_app_parent.html" target="_top" xlink:title="mozilla::dom::ExternalHelperAppParent">
<polygon fill="white" stroke="black" points="372,-240.5 372,-261.5 560,-261.5 560,-240.5 372,-240.5"/>
<text text-anchor="middle" x="466" y="-248.5" font-family="Helvetica,sans-Serif" font-size="10.00">mozilla::dom::ExternalHelperAppParent</text>
</a>
</g>
<!-- Node7&#45;&gt;Node8 -->
<g id="edge20" class="edge"><title>Node7&#45;&gt;Node8</title>
<path fill="none" stroke="midnightblue" d="M315.761,-181.167C322.818,-183.787 329.834,-187.024 336,-191 356.101,-203.961 351.289,-219.037 372,-231 378.646,-234.839 385.938,-237.944 393.431,-240.455"/>
<polygon fill="midnightblue" stroke="midnightblue" points="316.783,-177.818 306.189,-177.966 314.563,-184.457 316.783,-177.818"/>
</g>
<!-- Node9 -->
<g id="node20" class="node"><title>Node9</title>
<a xlink:href="../../d4/d8f/interfacens_i_http_channel.html" target="_top" xlink:title="nsIHttpChannel">
<polygon fill="white" stroke="black" points="423.5,-200.5 423.5,-221.5 508.5,-221.5 508.5,-200.5 423.5,-200.5"/>
<text text-anchor="middle" x="466" y="-208.5" font-family="Helvetica,sans-Serif" font-size="10.00">nsIHttpChannel</text>
</a>
</g>
<!-- Node7&#45;&gt;Node9 -->
<g id="edge22" class="edge"><title>Node7&#45;&gt;Node9</title>
<path fill="none" stroke="midnightblue" d="M316.293,-174.233C353.722,-180.402 406.688,-191.664 438.555,-200.425"/>
<polygon fill="midnightblue" stroke="midnightblue" points="316.602,-170.738 306.178,-172.634 315.509,-177.653 316.602,-170.738"/>
</g>
<!-- Node7&#45;&gt;Node9 -->
<g id="edge28" class="edge"><title>Node7&#45;&gt;Node9</title>
<path fill="none" stroke="midnightblue" d="M310.199,-184.167C342.54,-192.502 389.395,-202.299 423.268,-207.859"/>
<polygon fill="midnightblue" stroke="midnightblue" points="310.807,-180.707 300.243,-181.519 309.007,-187.472 310.807,-180.707"/>
</g>
<!-- Node12 -->
<g id="node27" class="node"><title>Node12</title>
<a xlink:href="../../d7/d62/interfacens_i_j_a_r_channel.html" target="_top" xlink:title="nsIJARChannel">
<polygon fill="white" stroke="black" points="423,-160.5 423,-181.5 509,-181.5 509,-160.5 423,-160.5"/>
<text text-anchor="middle" x="466" y="-168.5" font-family="Helvetica,sans-Serif" font-size="10.00">nsIJARChannel</text>
</a>
</g>
<!-- Node7&#45;&gt;Node12 -->
<g id="edge30" class="edge"><title>Node7&#45;&gt;Node12</title>
<path fill="none" stroke="midnightblue" d="M316.486,-165.252C348.232,-163.912 391.078,-163.916 422.765,-165.263"/>
<polygon fill="midnightblue" stroke="midnightblue" points="315.994,-161.772 306.178,-165.758 316.337,-168.764 315.994,-161.772"/>
</g>
<!-- Node7&#45;&gt;Node12 -->
<g id="edge32" class="edge"><title>Node7&#45;&gt;Node12</title>
<path fill="none" stroke="midnightblue" d="M316.486,-176.748C348.232,-178.088 391.078,-178.084 422.765,-176.737"/>
<polygon fill="midnightblue" stroke="midnightblue" points="316.337,-173.236 306.178,-176.242 315.994,-180.228 316.337,-173.236"/>
</g>
<!-- Node13 -->
<g id="node30" class="node"><title>Node13</title>
<a xlink:href="../../d8/d0d/interfacens_i_view_source_channel.html" target="_top" xlink:title="nsIViewSourceChannel">
<polygon fill="white" stroke="black" points="406.5,-120.5 406.5,-141.5 525.5,-141.5 525.5,-120.5 406.5,-120.5"/>
<text text-anchor="middle" x="466" y="-128.5" font-family="Helvetica,sans-Serif" font-size="10.00">nsIViewSourceChannel</text>
</a>
</g>
<!-- Node7&#45;&gt;Node13 -->
<g id="edge34" class="edge"><title>Node7&#45;&gt;Node13</title>
<path fill="none" stroke="midnightblue" d="M310.139,-157.849C337.365,-150.829 374.9,-142.77 406.313,-137.077"/>
<polygon fill="midnightblue" stroke="midnightblue" points="309.007,-154.528 300.243,-160.481 310.807,-161.293 309.007,-154.528"/>
</g>
<!-- Node7&#45;&gt;Node13 -->
<g id="edge36" class="edge"><title>Node7&#45;&gt;Node13</title>
<path fill="none" stroke="midnightblue" d="M316.293,-167.767C353.722,-161.598 406.688,-150.336 438.555,-141.575"/>
<polygon fill="midnightblue" stroke="midnightblue" points="315.509,-164.347 306.178,-169.366 316.602,-171.262 315.509,-164.347"/>
</g>
<!-- Node14 -->
<g id="node33" class="node"><title>Node14</title>
<a xlink:href="../../d4/d52/interfacens_i_wyciwyg_channel.html" target="_top" xlink:title="nsIWyciwygChannel">
<polygon fill="white" stroke="black" points="412.5,-80.5 412.5,-101.5 519.5,-101.5 519.5,-80.5 412.5,-80.5"/>
<text text-anchor="middle" x="466" y="-88.5" font-family="Helvetica,sans-Serif" font-size="10.00">nsIWyciwygChannel</text>
</a>
</g>
<!-- Node7&#45;&gt;Node14 -->
<g id="edge38" class="edge"><title>Node7&#45;&gt;Node14</title>
<path fill="none" stroke="midnightblue" d="M300.803,-157.275C312.308,-153.48 325.408,-148.83 336,-142 356.101,-129.039 351.289,-113.963 372,-102 384.136,-94.9898 398.428,-90.4268 412.155,-87.7776"/>
<polygon fill="midnightblue" stroke="midnightblue" points="299.616,-153.981 291.205,-160.423 301.798,-160.632 299.616,-153.981"/>
</g>
<!-- Node7&#45;&gt;Node14 -->
<g id="edge42" class="edge"><title>Node7&#45;&gt;Node14</title>
<path fill="none" stroke="midnightblue" d="M315.761,-169.693C322.818,-167.213 329.834,-163.976 336,-160 356.101,-147.039 351.289,-131.963 372,-120 389.337,-109.985 411.075,-104.965 429.279,-101.53"/>
<polygon fill="midnightblue" stroke="midnightblue" points="314.739,-166.346 306.189,-172.603 316.775,-173.043 314.739,-166.346"/>
</g>
<!-- Node10 -->
<g id="node22" class="node"><title>Node10</title>
<a xlink:href="../../d8/d60/classmozilla_1_1net_1_1_http_base_channel.html" target="_top" xlink:title="mozilla::net::HttpBaseChannel">
<polygon fill="white" stroke="black" points="607,-200.5 607,-221.5 757,-221.5 757,-200.5 607,-200.5"/>
<text text-anchor="middle" x="682" y="-208.5" font-family="Helvetica,sans-Serif" font-size="10.00">mozilla::net::HttpBaseChannel</text>
</a>
</g>
<!-- Node9&#45;&gt;Node10 -->
<g id="edge24" class="edge"><title>Node9&#45;&gt;Node10</title>
<path fill="none" stroke="midnightblue" d="M518.848,-211C545.249,-211 577.659,-211 606.617,-211"/>
<polygon fill="midnightblue" stroke="midnightblue" points="518.675,-207.5 508.675,-211 518.675,-214.5 518.675,-207.5"/>
</g>
<!-- Node11 -->
<g id="node24" class="node"><title>Node11</title>
<a xlink:href="../../d2/db2/classmozilla_1_1net_1_1_http_channel_child.html" target="_top" xlink:title="mozilla::net::HttpChannelChild">
<polygon fill="white" stroke="black" points="804,-200.5 804,-221.5 954,-221.5 954,-200.5 804,-200.5"/>
<text text-anchor="middle" x="879" y="-208.5" font-family="Helvetica,sans-Serif" font-size="10.00">mozilla::net::HttpChannelChild</text>
</a>
</g>
<!-- Node10&#45;&gt;Node11 -->
<g id="edge26" class="edge"><title>Node10&#45;&gt;Node11</title>
<path fill="none" stroke="midnightblue" d="M767.199,-211C779.392,-211 791.862,-211 803.843,-211"/>
<polygon fill="midnightblue" stroke="midnightblue" points="767.039,-207.5 757.039,-211 767.039,-214.5 767.039,-207.5"/>
</g>
<!-- Node15 -->
<g id="node35" class="node"><title>Node15</title>
<a xlink:href="../../d9/d2c/classmozilla_1_1net_1_1_wyciwyg_channel_child.html" target="_top" xlink:title="mozilla::net::WyciwygChannelChild">
<polygon fill="white" stroke="black" points="596,-80.5 596,-101.5 768,-101.5 768,-80.5 596,-80.5"/>
<text text-anchor="middle" x="682" y="-88.5" font-family="Helvetica,sans-Serif" font-size="10.00">mozilla::net::WyciwygChannelChild</text>
</a>
</g>
<!-- Node14&#45;&gt;Node15 -->
<g id="edge40" class="edge"><title>Node14&#45;&gt;Node15</title>
<path fill="none" stroke="midnightblue" d="M529.899,-91C550.554,-91 573.807,-91 595.802,-91"/>
<polygon fill="midnightblue" stroke="midnightblue" points="529.671,-87.5001 519.671,-91 529.671,-94.5001 529.671,-87.5001"/>
</g>
</g>
</svg>
        <g id="navigator" transform="translate(0 0)" fill="#404254">
                <rect fill="#f2f5e9" fill-opacity="0.5" stroke="#606060" stroke-width=".5" x="0" y="0" width="60" height="60"/>
                <use id="zoomplus" xlink:href="#zoomPlus" x="17" y="9" onmousedown="handleZoom(evt,'in')"/>
                <use id="zoomminus" xlink:href="#zoomMin" x="42" y="9" onmousedown="handleZoom(evt,'out')"/>
                <use id="reset" xlink:href="#resetDef" x="30" y="36" onmousedown="handleReset()"/>
                <g id="arrowUp" xlink:href="#dirArrow" transform="translate(30 24)" onmousedown="handlePan(0,-1)">
                  <use xlink:href="#rim" fill="#404040">
                        <set attributeName="fill" to="#808080" begin="arrowUp.mouseover" end="arrowUp.mouseout"/>
                  </use>
                  <path fill="none" stroke="white" stroke-width="1.5" d="M0,-3.0v7 M-2.5,-0.5L0,-3.0L2.5,-0.5"/>
                </g>
                <g id="arrowRight" xlink:href="#dirArrow" transform="rotate(90) translate(36 -43)" onmousedown="handlePan(1,0)">
                  <use xlink:href="#rim" fill="#404040">
                        <set attributeName="fill" to="#808080" begin="arrowRight.mouseover" end="arrowRight.mouseout"/>
                  </use>
                  <path fill="none" stroke="white" stroke-width="1.5" d="M0,-3.0v7 M-2.5,-0.5L0,-3.0L2.5,-0.5"/>
                </g>
                <g id="arrowDown" xlink:href="#dirArrow" transform="rotate(180) translate(-30 -48)" onmousedown="handlePan(0,1)">
                  <use xlink:href="#rim" fill="#404040">
                        <set attributeName="fill" to="#808080" begin="arrowDown.mouseover" end="arrowDown.mouseout"/>
                  </use>
                  <path fill="none" stroke="white" stroke-width="1.5" d="M0,-3.0v7 M-2.5,-0.5L0,-3.0L2.5,-0.5"/>
                </g>
                <g id="arrowLeft" xlink:href="#dirArrow" transform="rotate(270) translate(-36 17)" onmousedown="handlePan(-1,0)">
                  <use xlink:href="#rim" fill="#404040">
                        <set attributeName="fill" to="#808080" begin="arrowLeft.mouseover" end="arrowLeft.mouseout"/>
                  </use>
                  <path fill="none" stroke="white" stroke-width="1.5" d="M0,-3.0v7 M-2.5,-0.5L0,-3.0L2.5,-0.5"/>
                </g>
        </g>
</svg>
