<?xml version="1.0" encoding="UTF-8" standalone="no"?>
<!DOCTYPE svg PUBLIC "-//W3C//DTD SVG 1.1//EN"
 "http://www.w3.org/Graphics/SVG/1.1/DTD/svg11.dtd">
<!-- Generated by graphviz version 2.26.3 (20100126.1600)
 -->
<!-- Title: G Pages: 1 -->
<svg width="187pt" height="102pt"
 viewBox="0.00 0.00 187.00 102.00" xmlns="http://www.w3.org/2000/svg" xmlns:xlink="http://www.w3.org/1999/xlink">
<g id="graph1" class="graph" transform="scale(1 1) rotate(0) translate(4 98)">
<title>G</title>
<polygon fill="white" stroke="white" points="-4,5 -4,-98 184,-98 184,5 -4,5"/>
<!-- Node1 -->
<g id="node1" class="node"><title>Node1</title>
<polygon fill="#bfbfbf" stroke="black" points="-0.5,-0.5 -0.5,-21.5 138.5,-21.5 138.5,-0.5 -0.5,-0.5"/>
<text text-anchor="middle" x="69" y="-8.5" font-family="Helvetica,sans-Serif" font-size="10.00">nsIDOMMozActivityOptions</text>
</g>
<!-- Node2 -->
<g id="node2" class="node"><title>Node2</title>
<a xlink:href="../../d4/d6a/classns_i_supports.html" target="_top" xlink:title="nsISupports">
<polygon fill="white" stroke="black" points="34.5,-72.5 34.5,-93.5 103.5,-93.5 103.5,-72.5 34.5,-72.5"/>
<text text-anchor="middle" x="69" y="-80.5" font-family="Helvetica,sans-Serif" font-size="10.00">nsISupports</text>
</a>
</g>
<!-- Node2&#45;&gt;Node1 -->
<g id="edge2" class="edge"><title>Node2&#45;&gt;Node1</title>
<path fill="none" stroke="midnightblue" d="M56.7015,-62.6318C54.519,-49.3026 55.3098,-32.4253 59.074,-21.6674"/>
<polygon fill="midnightblue" stroke="midnightblue" points="53.3098,-63.4965 59.0892,-72.3762 60.1086,-61.8305 53.3098,-63.4965"/>
</g>
<!-- Node2&#45;&gt;Node1 -->
<g id="edge4" class="edge"><title>Node2&#45;&gt;Node1</title>
<path fill="none" stroke="midnightblue" d="M69,-62.2348C69,-48.969 69,-32.3188 69,-21.6674"/>
<polygon fill="midnightblue" stroke="midnightblue" points="65.5001,-62.3761 69,-72.3762 72.5001,-62.3762 65.5001,-62.3761"/>
</g>
<!-- Node2&#45;&gt;Node1 -->
<g id="edge6" class="edge"><title>Node2&#45;&gt;Node1</title>
<path fill="none" stroke="midnightblue" d="M81.2985,-62.6318C83.481,-49.3026 82.6902,-32.4253 78.926,-21.6674"/>
<polygon fill="midnightblue" stroke="midnightblue" points="77.8914,-61.8305 78.9108,-72.3762 84.6902,-63.4965 77.8914,-61.8305"/>
</g>
<!-- Node3 -->
<g id="node6" class="node"><title>Node3</title>
<a xlink:href="../../d1/d94/class_j_s_1_1_value.html" target="_top" xlink:title="JS::Value">
<polygon fill="white" stroke="black" points="120.5,-72.5 120.5,-93.5 179.5,-93.5 179.5,-72.5 120.5,-72.5"/>
<text text-anchor="middle" x="150" y="-80.5" font-family="Helvetica,sans-Serif" font-size="10.00">JS::Value</text>
</a>
</g>
<!-- Node3&#45;&gt;Node1 -->
<g id="edge8" class="edge"><title>Node3&#45;&gt;Node1</title>
<path fill="none" stroke="#9a32cd" stroke-dasharray="5,2" d="M130.568,-65.7275C115.141,-52.0146 94.0621,-33.2774 81.0009,-21.6674"/>
<polygon fill="#9a32cd" stroke="#9a32cd" points="128.249,-68.3484 138.048,-72.3762 132.899,-63.1165 128.249,-68.3484"/>
<text text-anchor="middle" x="127" y="-44.5" font-family="Helvetica,sans-Serif" font-size="10.00"> data</text>
</g>
</g>
</svg>
