<?xml version="1.0" encoding="UTF-8" standalone="no"?>
<!DOCTYPE svg PUBLIC "-//W3C//DTD SVG 1.1//EN"
 "http://www.w3.org/Graphics/SVG/1.1/DTD/svg11.dtd">
<!-- Generated by graphviz version 2.26.3 (20100126.1600)
 -->
<!-- Title: G Pages: 1 -->
<svg width="402pt" height="82pt"
 viewBox="0.00 0.00 402.00 81.69" xmlns="http://www.w3.org/2000/svg" xmlns:xlink="http://www.w3.org/1999/xlink">
<g id="graph1" class="graph" transform="scale(1 1) rotate(0) translate(4 77.6912)">
<title>G</title>
<polygon fill="white" stroke="white" points="-4,5 -4,-77.6912 399,-77.6912 399,5 -4,5"/>
<!-- Node1 -->
<g id="node1" class="node"><title>Node1</title>
<polygon fill="#bfbfbf" stroke="black" points="0.5,-40.5 0.5,-61.5 113.5,-61.5 113.5,-40.5 0.5,-40.5"/>
<text text-anchor="middle" x="57" y="-48.5" font-family="Helvetica,sans-Serif" font-size="10.00">parseSourceElements</text>
</g>
<!-- Node2 -->
<g id="node3" class="node"><title>Node2</title>
<a xlink:href="../../db/d7b/r_8js.html#a98235696795509f1466ca6456d6d4496" target="_top" xlink:title="parseProgram">
<polygon fill="white" stroke="black" points="150.5,-40.5 150.5,-61.5 227.5,-61.5 227.5,-40.5 150.5,-40.5"/>
<text text-anchor="middle" x="189" y="-48.5" font-family="Helvetica,sans-Serif" font-size="10.00">parseProgram</text>
</a>
</g>
<!-- Node1&#45;&gt;Node2 -->
<g id="edge2" class="edge"><title>Node1&#45;&gt;Node2</title>
<path fill="none" stroke="midnightblue" d="M123.897,-51C132.91,-51 141.902,-51 150.199,-51"/>
<polygon fill="midnightblue" stroke="midnightblue" points="123.746,-47.5001 113.746,-51 123.746,-54.5001 123.746,-47.5001"/>
</g>
<!-- Node3 -->
<g id="node5" class="node"><title>Node3</title>
<a xlink:href="../../db/d7b/r_8js.html#a3e70263fa1d00b23249fce45e65e5849" target="_top" xlink:title="parse">
<polygon fill="white" stroke="black" points="352.5,-40.5 352.5,-61.5 393.5,-61.5 393.5,-40.5 352.5,-40.5"/>
<text text-anchor="middle" x="373" y="-48.5" font-family="Helvetica,sans-Serif" font-size="10.00">parse</text>
</a>
</g>
<!-- Node2&#45;&gt;Node3 -->
<g id="edge4" class="edge"><title>Node2&#45;&gt;Node3</title>
<path fill="none" stroke="midnightblue" d="M231.02,-64.2631C241.67,-67.0533 253.166,-69.5802 264,-71 286.915,-74.0029 293.217,-74.881 316,-71 328.406,-68.8867 341.706,-64.36 352.336,-60.147"/>
<polygon fill="midnightblue" stroke="midnightblue" points="231.686,-60.8165 221.116,-61.5348 229.827,-67.5651 231.686,-60.8165"/>
</g>
<!-- Node4 -->
<g id="node7" class="node"><title>Node4</title>
<a xlink:href="../../db/d7b/r_8js.html#a4bb36e0d0cde43aa023083eb1a91c876" target="_top" xlink:title="patch">
<polygon fill="white" stroke="black" points="269.5,-40.5 269.5,-61.5 310.5,-61.5 310.5,-40.5 269.5,-40.5"/>
<text text-anchor="middle" x="290" y="-48.5" font-family="Helvetica,sans-Serif" font-size="10.00">patch</text>
</a>
</g>
<!-- Node2&#45;&gt;Node4 -->
<g id="edge6" class="edge"><title>Node2&#45;&gt;Node4</title>
<path fill="none" stroke="midnightblue" d="M237.848,-51C248.932,-51 260.122,-51 269.279,-51"/>
<polygon fill="midnightblue" stroke="midnightblue" points="237.76,-47.5001 227.76,-51 237.76,-54.5001 237.76,-47.5001"/>
</g>
<!-- Node5 -->
<g id="node10" class="node"><title>Node5</title>
<a xlink:href="../../db/d7b/r_8js.html#acdaaf121ae542d32ab051476c11ab32a" target="_top" xlink:title="unpatch">
<polygon fill="white" stroke="black" points="264.5,-0.5 264.5,-21.5 315.5,-21.5 315.5,-0.5 264.5,-0.5"/>
<text text-anchor="middle" x="290" y="-8.5" font-family="Helvetica,sans-Serif" font-size="10.00">unpatch</text>
</a>
</g>
<!-- Node2&#45;&gt;Node5 -->
<g id="edge10" class="edge"><title>Node2&#45;&gt;Node5</title>
<path fill="none" stroke="midnightblue" d="M225.121,-36.6945C238.09,-31.5584 252.439,-25.8757 264.338,-21.1632"/>
<polygon fill="midnightblue" stroke="midnightblue" points="223.545,-33.5542 215.537,-40.4905 226.123,-40.0624 223.545,-33.5542"/>
</g>
<!-- Node4&#45;&gt;Node3 -->
<g id="edge8" class="edge"><title>Node4&#45;&gt;Node3</title>
<path fill="none" stroke="midnightblue" d="M320.656,-51C331.245,-51 342.847,-51 352.432,-51"/>
<polygon fill="midnightblue" stroke="midnightblue" points="320.517,-47.5001 310.517,-51 320.517,-54.5001 320.517,-47.5001"/>
</g>
<!-- Node5&#45;&gt;Node3 -->
<g id="edge12" class="edge"><title>Node5&#45;&gt;Node3</title>
<path fill="none" stroke="midnightblue" d="M321.09,-25.983C331.579,-31.0381 343.017,-36.5503 352.48,-41.1108"/>
<polygon fill="midnightblue" stroke="midnightblue" points="322.335,-22.698 311.807,-21.5095 319.296,-29.004 322.335,-22.698"/>
</g>
</g>
</svg>
