<?xml version="1.0" encoding="UTF-8" standalone="no"?>
<!DOCTYPE svg PUBLIC "-//W3C//DTD SVG 1.1//EN"
 "http://www.w3.org/Graphics/SVG/1.1/DTD/svg11.dtd">
<!-- Generated by graphviz version 2.26.3 (20100126.1600)
 -->
<!-- Title: G Pages: 1 -->
<svg width="498pt" height="150pt"
 viewBox="0.00 0.00 498.00 150.00" xmlns="http://www.w3.org/2000/svg" xmlns:xlink="http://www.w3.org/1999/xlink">
<g id="graph1" class="graph" transform="scale(1 1) rotate(0) translate(4 146)">
<title>G</title>
<polygon fill="white" stroke="white" points="-4,5 -4,-146 495,-146 495,5 -4,5"/>
<!-- Node1 -->
<g id="node1" class="node"><title>Node1</title>
<polygon fill="#bfbfbf" stroke="black" points="0,-60.5 0,-81.5 110,-81.5 110,-60.5 0,-60.5"/>
<text text-anchor="middle" x="55" y="-68.5" font-family="Helvetica,sans-Serif" font-size="10.00">createLocationMarker</text>
</g>
<!-- Node2 -->
<g id="node3" class="node"><title>Node2</title>
<a xlink:href="../../db/d7b/r_8js.html#a62ed1e2ea92af56635abd07176d4248b" target="_top" xlink:title="trackGroupExpression">
<polygon fill="white" stroke="black" points="183.5,-120.5 183.5,-141.5 296.5,-141.5 296.5,-120.5 183.5,-120.5"/>
<text text-anchor="middle" x="240" y="-128.5" font-family="Helvetica,sans-Serif" font-size="10.00">trackGroupExpression</text>
</a>
</g>
<!-- Node1&#45;&gt;Node2 -->
<g id="edge2" class="edge"><title>Node1&#45;&gt;Node2</title>
<path fill="none" stroke="midnightblue" d="M84.9759,-86.0319C102.437,-94.3143 125.074,-104.253 146,-111 157.91,-114.84 170.909,-118.146 183.338,-120.903"/>
<polygon fill="midnightblue" stroke="midnightblue" points="86.379,-82.8229 75.8513,-81.6318 83.3384,-89.1281 86.379,-82.8229"/>
</g>
<!-- Node5 -->
<g id="node9" class="node"><title>Node5</title>
<a xlink:href="../../db/d7b/r_8js.html#a11ec19180b29a7c45621ef05b8890c30" target="_top" xlink:title="trackLeftHandSideExpression">
<polygon fill="white" stroke="black" points="167,-80.5 167,-101.5 313,-101.5 313,-80.5 167,-80.5"/>
<text text-anchor="middle" x="240" y="-88.5" font-family="Helvetica,sans-Serif" font-size="10.00">trackLeftHandSideExpression</text>
</a>
</g>
<!-- Node1&#45;&gt;Node5 -->
<g id="edge8" class="edge"><title>Node1&#45;&gt;Node5</title>
<path fill="none" stroke="midnightblue" d="M120.223,-78.0512C135.258,-79.6766 151.349,-81.4161 166.701,-83.0758"/>
<polygon fill="midnightblue" stroke="midnightblue" points="120.324,-74.5417 110.005,-76.9465 119.571,-81.5011 120.324,-74.5417"/>
</g>
<!-- Node6 -->
<g id="node12" class="node"><title>Node6</title>
<a xlink:href="../../db/d7b/r_8js.html#a8109edbc91b1c5805509faafc36dda62" target="_top" xlink:title="trackLeftHandSideExpressionAllowCall">
<polygon fill="white" stroke="black" points="146,-40.5 146,-61.5 334,-61.5 334,-40.5 146,-40.5"/>
<text text-anchor="middle" x="240" y="-48.5" font-family="Helvetica,sans-Serif" font-size="10.00">trackLeftHandSideExpressionAllowCall</text>
</a>
</g>
<!-- Node1&#45;&gt;Node6 -->
<g id="edge12" class="edge"><title>Node1&#45;&gt;Node6</title>
<path fill="none" stroke="midnightblue" d="M120,-63.973C128.344,-63.0709 137.017,-62.1333 145.711,-61.1934"/>
<polygon fill="midnightblue" stroke="midnightblue" points="119.571,-60.4989 110.005,-65.0535 120.324,-67.4583 119.571,-60.4989"/>
</g>
<!-- Node7 -->
<g id="node15" class="node"><title>Node7</title>
<a xlink:href="../../db/d7b/r_8js.html#ad36ba87109b06426a8b5f6a9256f41fa" target="_top" xlink:title="wrapTrackingFunction">
<polygon fill="white" stroke="black" points="183.5,-0.5 183.5,-21.5 296.5,-21.5 296.5,-0.5 183.5,-0.5"/>
<text text-anchor="middle" x="240" y="-8.5" font-family="Helvetica,sans-Serif" font-size="10.00">wrapTrackingFunction</text>
</a>
</g>
<!-- Node1&#45;&gt;Node7 -->
<g id="edge16" class="edge"><title>Node1&#45;&gt;Node7</title>
<path fill="none" stroke="midnightblue" d="M84.9759,-55.9681C102.437,-47.6857 125.074,-37.7469 146,-31 157.91,-27.1601 170.909,-23.8536 183.338,-21.0974"/>
<polygon fill="midnightblue" stroke="midnightblue" points="83.3384,-52.8719 75.8513,-60.3682 86.379,-59.1771 83.3384,-52.8719"/>
</g>
<!-- Node3 -->
<g id="node5" class="node"><title>Node3</title>
<a xlink:href="../../db/d7b/r_8js.html#a4bb36e0d0cde43aa023083eb1a91c876" target="_top" xlink:title="patch">
<polygon fill="white" stroke="black" points="370.5,-60.5 370.5,-81.5 411.5,-81.5 411.5,-60.5 370.5,-60.5"/>
<text text-anchor="middle" x="391" y="-68.5" font-family="Helvetica,sans-Serif" font-size="10.00">patch</text>
</a>
</g>
<!-- Node2&#45;&gt;Node3 -->
<g id="edge4" class="edge"><title>Node2&#45;&gt;Node3</title>
<path fill="none" stroke="midnightblue" d="M306.586,-120.338C315.982,-117.831 325.372,-114.758 334,-111 350.847,-103.662 367.783,-90.9365 378.763,-81.8079"/>
<polygon fill="midnightblue" stroke="midnightblue" points="305.691,-116.954 296.823,-122.751 307.37,-123.75 305.691,-116.954"/>
</g>
<!-- Node4 -->
<g id="node7" class="node"><title>Node4</title>
<a xlink:href="../../db/d7b/r_8js.html#a3e70263fa1d00b23249fce45e65e5849" target="_top" xlink:title="parse">
<polygon fill="white" stroke="black" points="448.5,-60.5 448.5,-81.5 489.5,-81.5 489.5,-60.5 448.5,-60.5"/>
<text text-anchor="middle" x="469" y="-68.5" font-family="Helvetica,sans-Serif" font-size="10.00">parse</text>
</a>
</g>
<!-- Node3&#45;&gt;Node4 -->
<g id="edge6" class="edge"><title>Node3&#45;&gt;Node4</title>
<path fill="none" stroke="midnightblue" d="M421.921,-71C430.782,-71 440.225,-71 448.31,-71"/>
<polygon fill="midnightblue" stroke="midnightblue" points="421.903,-67.5001 411.903,-71 421.903,-74.5001 421.903,-67.5001"/>
</g>
<!-- Node5&#45;&gt;Node3 -->
<g id="edge10" class="edge"><title>Node5&#45;&gt;Node3</title>
<path fill="none" stroke="midnightblue" d="M323.56,-79.9325C340.94,-77.6305 357.744,-75.4048 370.231,-73.7509"/>
<polygon fill="midnightblue" stroke="midnightblue" points="322.742,-76.5101 313.288,-81.2929 323.661,-83.4495 322.742,-76.5101"/>
</g>
<!-- Node6&#45;&gt;Node3 -->
<g id="edge14" class="edge"><title>Node6&#45;&gt;Node3</title>
<path fill="none" stroke="midnightblue" d="M329.608,-62.8686C344.887,-64.8923 359.367,-66.8102 370.423,-68.2746"/>
<polygon fill="midnightblue" stroke="midnightblue" points="329.853,-59.3705 319.48,-61.5271 328.934,-66.3099 329.853,-59.3705"/>
</g>
<!-- Node7&#45;&gt;Node3 -->
<g id="edge18" class="edge"><title>Node7&#45;&gt;Node3</title>
<path fill="none" stroke="midnightblue" d="M306.586,-21.6617C315.982,-24.169 325.372,-27.2419 334,-31 350.847,-38.3378 367.783,-51.0635 378.763,-60.1921"/>
<polygon fill="midnightblue" stroke="midnightblue" points="307.37,-18.2504 296.823,-19.2486 305.691,-25.0459 307.37,-18.2504"/>
</g>
</g>
</svg>
