<?xml version="1.0" encoding="UTF-8" standalone="no"?>
<!DOCTYPE svg PUBLIC "-//W3C//DTD SVG 1.1//EN"
 "http://www.w3.org/Graphics/SVG/1.1/DTD/svg11.dtd">
<!-- Generated by graphviz version 2.26.3 (20100126.1600)
 -->
<!-- Title: G Pages: 1 -->
<!--zoomable 430 -->
<svg id="main" version="1.1" xmlns="http://www.w3.org/2000/svg" xmlns:xlink="http://www.w3.org/1999/xlink" xml:space="preserve" onload="init(evt)">
        <defs>
                <circle id="rim" cx="0" cy="0" r="7"/>
                <circle id="rim2" cx="0" cy="0" r="3.5"/>
                <g id="zoomPlus">
                        <use xlink:href="#rim" fill="#404040">
                                <set attributeName="fill" to="#808080" begin="zoomplus.mouseover" end="zoomplus.mouseout"/>
                        </use>
                        <path d="M-4,0h8M0,-4v8" fill="none" stroke="white" stroke-width="1.5" pointer-events="none"/>
                </g>
                <g id="zoomMin">
                        <use xlink:href="#rim" fill="#404040">
                                <set attributeName="fill" to="#808080" begin="zoomminus.mouseover" end="zoomminus.mouseout"/>
                        </use>
                        <path d="M-4,0h8" fill="none" stroke="white" stroke-width="1.5" pointer-events="none"/>
                </g>
                <g id="dirArrow">
                        <path fill="none" stroke="white" stroke-width="1.5" d="M0,-3.0v7 M-2.5,-0.5L0,-3.0L2.5,-0.5"/>
                </g>
               <g id="resetDef">
                       <use xlink:href="#rim2" fill="#404040">
                               <set attributeName="fill" to="#808080" begin="reset.mouseover" end="reset.mouseout"/>
                       </use>
               </g>
        </defs>

<script type="text/javascript">
var viewWidth = 606;
var viewHeight = 430;
var sectionId = 'dynsection-1';
</script>
<script xlink:href="../../svgpan.js"/>
<svg id="graph" class="graph">
<g id="viewport">
<title>G</title>
<polygon fill="white" stroke="white" points="-4,5 -4,-426 603,-426 603,5 -4,5"/>
<!-- Node1 -->
<g id="node1" class="node"><title>Node1</title>
<polygon fill="#bfbfbf" stroke="black" points="0,-200.5 0,-221.5 98,-221.5 98,-200.5 0,-200.5"/>
<text text-anchor="middle" x="49" y="-208.5" font-family="Helvetica,sans-Serif" font-size="10.00">CallQueryInterface</text>
</g>
<!-- Node2 -->
<g id="node3" class="node"><title>Node2</title>
<a xlink:href="../../de/db2/ns_auto_ptr_8h.html#a0ac31d9f46a8803932ea0e42a8103b3a" target="_top" xlink:title="CallQueryInterface">
<polygon fill="white" stroke="black" points="207,-400.5 207,-421.5 305,-421.5 305,-400.5 207,-400.5"/>
<text text-anchor="middle" x="256" y="-408.5" font-family="Helvetica,sans-Serif" font-size="10.00">CallQueryInterface</text>
</a>
</g>
<!-- Node1&#45;&gt;Node2 -->
<g id="edge2" class="edge"><title>Node1&#45;&gt;Node2</title>
<path fill="none" stroke="midnightblue" d="M52.3424,-231.609C59.6875,-269.74 81.0072,-351.044 134,-391 154.565,-406.506 182.657,-411.87 206.701,-413.192"/>
<polygon fill="midnightblue" stroke="midnightblue" points="55.7686,-230.886 50.5587,-221.661 48.8785,-232.121 55.7686,-230.886"/>
</g>
<!-- Node3 -->
<g id="node5" class="node"><title>Node3</title>
<a xlink:href="../../d7/d4b/namespacemozilla_1_1dom.html#adeef5516d607f0ec2b955dddb98e61b3" target="_top" xlink:title="mozilla::dom::ClearWrapper">
<polygon fill="white" stroke="black" points="187,-360.5 187,-381.5 325,-381.5 325,-360.5 187,-360.5"/>
<text text-anchor="middle" x="256" y="-368.5" font-family="Helvetica,sans-Serif" font-size="10.00">mozilla::dom::ClearWrapper</text>
</a>
</g>
<!-- Node1&#45;&gt;Node3 -->
<g id="edge4" class="edge"><title>Node1&#45;&gt;Node3</title>
<path fill="none" stroke="midnightblue" d="M55.2064,-231.363C65.8657,-262.61 90.7832,-321.825 134,-351 149.476,-361.448 168.524,-367.105 186.928,-370.02"/>
<polygon fill="midnightblue" stroke="midnightblue" points="58.4438,-230 52.0241,-221.572 51.7865,-232.164 58.4438,-230"/>
</g>
<!-- Node4 -->
<g id="node7" class="node"><title>Node4</title>
<a xlink:href="../../dc/d9a/classns_d_o_m_event.html#a3605f08f3b8dd324f79dc70d56ec12a8" target="_top" xlink:title="nsDOMEvent::GetParentObject">
<polygon fill="white" stroke="black" points="178.5,-320.5 178.5,-341.5 333.5,-341.5 333.5,-320.5 178.5,-320.5"/>
<text text-anchor="middle" x="256" y="-328.5" font-family="Helvetica,sans-Serif" font-size="10.00">nsDOMEvent::GetParentObject</text>
</a>
</g>
<!-- Node1&#45;&gt;Node4 -->
<g id="edge6" class="edge"><title>Node1&#45;&gt;Node4</title>
<path fill="none" stroke="midnightblue" d="M59.7623,-230.565C73.6653,-253.819 100.154,-291.872 134,-311 147.454,-318.603 162.99,-323.512 178.373,-326.64"/>
<polygon fill="midnightblue" stroke="midnightblue" points="62.6201,-228.515 54.5896,-221.604 56.5575,-232.014 62.6201,-228.515"/>
</g>
<!-- Node5 -->
<g id="node9" class="node"><title>Node5</title>
<a xlink:href="../../df/d37/classns_d_o_m_event_target_helper.html#aeb04c8ac706739d79f06e125b301e9a9" target="_top" xlink:title="nsDOMEventTargetHelper::GetParentObject">
<polygon fill="white" stroke="black" points="150.5,-280.5 150.5,-301.5 361.5,-301.5 361.5,-280.5 150.5,-280.5"/>
<text text-anchor="middle" x="256" y="-288.5" font-family="Helvetica,sans-Serif" font-size="10.00">nsDOMEventTargetHelper::GetParentObject</text>
</a>
</g>
<!-- Node1&#45;&gt;Node5 -->
<g id="edge8" class="edge"><title>Node1&#45;&gt;Node5</title>
<path fill="none" stroke="midnightblue" d="M68.0733,-228.333C84.3765,-242.145 109.089,-260.801 134,-271 143.435,-274.863 153.569,-277.98 163.818,-280.497"/>
<polygon fill="midnightblue" stroke="midnightblue" points="70.2001,-225.544 60.3578,-221.622 65.6063,-230.826 70.2001,-225.544"/>
</g>
<!-- Node6 -->
<g id="node11" class="node"><title>Node6</title>
<a xlink:href="../../d0/d18/classns_i_h_t_m_l_collection.html#a2958371a6fc2507fdfeb32371279abe9" target="_top" xlink:title="nsIHTMLCollection::GetWrapperPreserveColor">
<polygon fill="white" stroke="black" points="145.5,-240.5 145.5,-261.5 366.5,-261.5 366.5,-240.5 145.5,-240.5"/>
<text text-anchor="middle" x="256" y="-248.5" font-family="Helvetica,sans-Serif" font-size="10.00">nsIHTMLCollection::GetWrapperPreserveColor</text>
</a>
</g>
<!-- Node1&#45;&gt;Node6 -->
<g id="edge10" class="edge"><title>Node1&#45;&gt;Node6</title>
<path fill="none" stroke="midnightblue" d="M101.035,-223.84C111.899,-226.352 123.3,-228.867 134,-231 150.944,-234.378 169.296,-237.609 186.494,-240.452"/>
<polygon fill="midnightblue" stroke="midnightblue" points="101.781,-220.42 91.246,-221.543 100.183,-227.235 101.781,-220.42"/>
</g>
<!-- Node7 -->
<g id="node13" class="node"><title>Node7</title>
<a xlink:href="../../d6/d37/classxpc_object_helper.html#a63bc8cd0e73181a46503208a53f0b002" target="_top" xlink:title="xpcObjectHelper::GetXPCClassInfo">
<polygon fill="white" stroke="black" points="169,-200.5 169,-221.5 343,-221.5 343,-200.5 169,-200.5"/>
<text text-anchor="middle" x="256" y="-208.5" font-family="Helvetica,sans-Serif" font-size="10.00">xpcObjectHelper::GetXPCClassInfo</text>
</a>
</g>
<!-- Node1&#45;&gt;Node7 -->
<g id="edge12" class="edge"><title>Node1&#45;&gt;Node7</title>
<path fill="none" stroke="midnightblue" d="M108.266,-211C127.127,-211 148.403,-211 168.811,-211"/>
<polygon fill="midnightblue" stroke="midnightblue" points="108.056,-207.5 98.0561,-211 108.056,-214.5 108.056,-207.5"/>
</g>
<!-- Node10 -->
<g id="node19" class="node"><title>Node10</title>
<a xlink:href="../../d0/d7e/classns_wrapper_cache.html#a15634328d3e712ea2ecf8781c5dd1136" target="_top" xlink:title="nsWrapperCache::IsBlackAndDoesNotNeedTracing">
<polygon fill="white" stroke="black" points="134.5,-160.5 134.5,-181.5 377.5,-181.5 377.5,-160.5 134.5,-160.5"/>
<text text-anchor="middle" x="256" y="-168.5" font-family="Helvetica,sans-Serif" font-size="10.00">nsWrapperCache::IsBlackAndDoesNotNeedTracing</text>
</a>
</g>
<!-- Node1&#45;&gt;Node10 -->
<g id="edge18" class="edge"><title>Node1&#45;&gt;Node10</title>
<path fill="none" stroke="midnightblue" d="M101.035,-198.16C111.899,-195.648 123.3,-193.133 134,-191 150.944,-187.622 169.296,-184.391 186.494,-181.548"/>
<polygon fill="midnightblue" stroke="midnightblue" points="100.183,-194.765 91.246,-200.457 101.781,-201.58 100.183,-194.765"/>
</g>
<!-- Node11 -->
<g id="node21" class="node"><title>Node11</title>
<a xlink:href="../../d9/d5b/ns_net_util_8h.html#aa79019da38d81fd6e7315090cde5e07f" target="_top" xlink:title="NS_GetFileProtocolHandler">
<polygon fill="white" stroke="black" points="187.5,-120.5 187.5,-141.5 324.5,-141.5 324.5,-120.5 187.5,-120.5"/>
<text text-anchor="middle" x="256" y="-128.5" font-family="Helvetica,sans-Serif" font-size="10.00">NS_GetFileProtocolHandler</text>
</a>
</g>
<!-- Node1&#45;&gt;Node11 -->
<g id="edge20" class="edge"><title>Node1&#45;&gt;Node11</title>
<path fill="none" stroke="midnightblue" d="M68.0733,-193.667C84.3765,-179.855 109.089,-161.199 134,-151 150.685,-144.169 169.556,-139.668 187.381,-136.703"/>
<polygon fill="midnightblue" stroke="midnightblue" points="65.6063,-191.174 60.3578,-200.378 70.2001,-196.456 65.6063,-191.174"/>
</g>
<!-- Node16 -->
<g id="node31" class="node"><title>Node16</title>
<a xlink:href="../../d9/d5b/ns_net_util_8h.html#a5f40db21cb429bc789fb9f013e5d2777" target="_top" xlink:title="NS_NewPartialLocalFileInputStream">
<polygon fill="white" stroke="black" points="168,-80.5 168,-101.5 344,-101.5 344,-80.5 168,-80.5"/>
<text text-anchor="middle" x="256" y="-88.5" font-family="Helvetica,sans-Serif" font-size="10.00">NS_NewPartialLocalFileInputStream</text>
</a>
</g>
<!-- Node1&#45;&gt;Node16 -->
<g id="edge30" class="edge"><title>Node1&#45;&gt;Node16</title>
<path fill="none" stroke="midnightblue" d="M59.7623,-191.435C73.6653,-168.181 100.154,-130.128 134,-111 144.371,-105.139 155.979,-100.879 167.8,-97.8022"/>
<polygon fill="midnightblue" stroke="midnightblue" points="56.5575,-189.986 54.5896,-200.396 62.6201,-193.485 56.5575,-189.986"/>
</g>
<!-- Node17 -->
<g id="node33" class="node"><title>Node17</title>
<a xlink:href="../../d0/d7e/classns_wrapper_cache.html#a4d7fa35de74c2d34835cd548ecb4fe14" target="_top" xlink:title="nsWrapperCache::PreserveWrapper">
<polygon fill="white" stroke="black" points="169,-40.5 169,-61.5 343,-61.5 343,-40.5 169,-40.5"/>
<text text-anchor="middle" x="256" y="-48.5" font-family="Helvetica,sans-Serif" font-size="10.00">nsWrapperCache::PreserveWrapper</text>
</a>
</g>
<!-- Node1&#45;&gt;Node17 -->
<g id="edge32" class="edge"><title>Node1&#45;&gt;Node17</title>
<path fill="none" stroke="midnightblue" d="M55.2064,-190.637C65.8657,-159.39 90.7832,-100.175 134,-71 144.407,-63.9746 156.428,-59.1156 168.782,-55.7998"/>
<polygon fill="midnightblue" stroke="midnightblue" points="51.7865,-189.836 52.0241,-200.428 58.4438,-192 51.7865,-189.836"/>
</g>
<!-- Node18 -->
<g id="node35" class="node"><title>Node18</title>
<a xlink:href="../../d6/d37/classxpc_object_helper.html#a04360441938bfc8c4a7242e7a4f0b174" target="_top" xlink:title="xpcObjectHelper::xpcObjectHelper">
<polygon fill="white" stroke="black" points="172,-0.5 172,-21.5 340,-21.5 340,-0.5 172,-0.5"/>
<text text-anchor="middle" x="256" y="-8.5" font-family="Helvetica,sans-Serif" font-size="10.00">xpcObjectHelper::xpcObjectHelper</text>
</a>
</g>
<!-- Node1&#45;&gt;Node18 -->
<g id="edge34" class="edge"><title>Node1&#45;&gt;Node18</title>
<path fill="none" stroke="midnightblue" d="M52.3424,-190.391C59.6875,-152.26 81.0072,-70.9563 134,-31 145.054,-22.6655 158.282,-17.2612 171.888,-13.8396"/>
<polygon fill="midnightblue" stroke="midnightblue" points="48.8785,-189.879 50.5587,-200.339 55.7686,-191.114 48.8785,-189.879"/>
</g>
<!-- Node8 -->
<g id="node15" class="node"><title>Node8</title>
<a xlink:href="../../d6/d37/classxpc_object_helper.html#adaeb8b60efdef34dbc100b8188509307" target="_top" xlink:title="xpcObjectHelper::forgetXPCClassInfo">
<polygon fill="white" stroke="black" points="414.5,-240.5 414.5,-261.5 597.5,-261.5 597.5,-240.5 414.5,-240.5"/>
<text text-anchor="middle" x="506" y="-248.5" font-family="Helvetica,sans-Serif" font-size="10.00">xpcObjectHelper::forgetXPCClassInfo</text>
</a>
</g>
<!-- Node7&#45;&gt;Node8 -->
<g id="edge14" class="edge"><title>Node7&#45;&gt;Node8</title>
<path fill="none" stroke="midnightblue" d="M331.751,-223.12C366.379,-228.661 407.008,-235.161 440.321,-240.491"/>
<polygon fill="midnightblue" stroke="midnightblue" points="332.112,-219.633 321.685,-221.51 331.006,-226.546 332.112,-219.633"/>
</g>
<!-- Node9 -->
<g id="node17" class="node"><title>Node9</title>
<a xlink:href="../../d6/d37/classxpc_object_helper.html#a86269f399e329d5c8b16ff1e8c2ca6a0" target="_top" xlink:title="xpcObjectHelper::GetScriptableFlags">
<polygon fill="white" stroke="black" points="416.5,-200.5 416.5,-221.5 595.5,-221.5 595.5,-200.5 416.5,-200.5"/>
<text text-anchor="middle" x="506" y="-208.5" font-family="Helvetica,sans-Serif" font-size="10.00">xpcObjectHelper::GetScriptableFlags</text>
</a>
</g>
<!-- Node7&#45;&gt;Node9 -->
<g id="edge16" class="edge"><title>Node7&#45;&gt;Node9</title>
<path fill="none" stroke="midnightblue" d="M353.183,-211C373.946,-211 395.789,-211 416.257,-211"/>
<polygon fill="midnightblue" stroke="midnightblue" points="353.087,-207.5 343.087,-211 353.087,-214.5 353.087,-207.5"/>
</g>
<!-- Node12 -->
<g id="node23" class="node"><title>Node12</title>
<a xlink:href="../../d9/d5b/ns_net_util_8h.html#a0cc07243020b1c82c199aaa653ab195d" target="_top" xlink:title="NS_GetURLSpecFromFile">
<polygon fill="white" stroke="black" points="439.5,-160.5 439.5,-181.5 572.5,-181.5 572.5,-160.5 439.5,-160.5"/>
<text text-anchor="middle" x="506" y="-168.5" font-family="Helvetica,sans-Serif" font-size="10.00">NS_GetURLSpecFromFile</text>
</a>
</g>
<!-- Node11&#45;&gt;Node12 -->
<g id="edge22" class="edge"><title>Node11&#45;&gt;Node12</title>
<path fill="none" stroke="midnightblue" d="M331.751,-143.12C366.379,-148.661 407.008,-155.161 440.321,-160.491"/>
<polygon fill="midnightblue" stroke="midnightblue" points="332.112,-139.633 321.685,-141.51 331.006,-146.546 332.112,-139.633"/>
</g>
<!-- Node13 -->
<g id="node25" class="node"><title>Node13</title>
<a xlink:href="../../d9/d5b/ns_net_util_8h.html#acdb5cd28f1a538429e5e7397627dab73" target="_top" xlink:title="NS_GetURLSpecFromActualFile">
<polygon fill="white" stroke="black" points="425.5,-120.5 425.5,-141.5 586.5,-141.5 586.5,-120.5 425.5,-120.5"/>
<text text-anchor="middle" x="506" y="-128.5" font-family="Helvetica,sans-Serif" font-size="10.00">NS_GetURLSpecFromActualFile</text>
</a>
</g>
<!-- Node11&#45;&gt;Node13 -->
<g id="edge24" class="edge"><title>Node11&#45;&gt;Node13</title>
<path fill="none" stroke="midnightblue" d="M334.662,-131C363.468,-131 396.098,-131 425.097,-131"/>
<polygon fill="midnightblue" stroke="midnightblue" points="334.644,-127.5 324.644,-131 334.644,-134.5 334.644,-127.5"/>
</g>
<!-- Node14 -->
<g id="node27" class="node"><title>Node14</title>
<a xlink:href="../../d9/d5b/ns_net_util_8h.html#a0f10fc43220cbd91a5f8430d7ced8662" target="_top" xlink:title="NS_GetURLSpecFromDir">
<polygon fill="white" stroke="black" points="441,-80.5 441,-101.5 571,-101.5 571,-80.5 441,-80.5"/>
<text text-anchor="middle" x="506" y="-88.5" font-family="Helvetica,sans-Serif" font-size="10.00">NS_GetURLSpecFromDir</text>
</a>
</g>
<!-- Node11&#45;&gt;Node14 -->
<g id="edge26" class="edge"><title>Node11&#45;&gt;Node14</title>
<path fill="none" stroke="midnightblue" d="M331.791,-118.873C366.561,-113.31 407.374,-106.78 440.754,-101.439"/>
<polygon fill="midnightblue" stroke="midnightblue" points="331.006,-115.454 321.685,-120.49 332.112,-122.367 331.006,-115.454"/>
</g>
<!-- Node15 -->
<g id="node29" class="node"><title>Node15</title>
<a xlink:href="../../d9/d5b/ns_net_util_8h.html#a11ea153805b4ce66090bb2074e9fb327" target="_top" xlink:title="NS_GetFileFromURLSpec">
<polygon fill="white" stroke="black" points="439.5,-40.5 439.5,-61.5 572.5,-61.5 572.5,-40.5 439.5,-40.5"/>
<text text-anchor="middle" x="506" y="-48.5" font-family="Helvetica,sans-Serif" font-size="10.00">NS_GetFileFromURLSpec</text>
</a>
</g>
<!-- Node11&#45;&gt;Node15 -->
<g id="edge28" class="edge"><title>Node11&#45;&gt;Node15</title>
<path fill="none" stroke="midnightblue" d="M334.394,-126.153C349.485,-123.041 364.714,-118.262 378,-111 398.987,-99.5284 393.316,-83.0089 414,-71 421.775,-66.4862 430.455,-62.9888 439.293,-60.2793"/>
<polygon fill="midnightblue" stroke="midnightblue" points="333.722,-122.718 324.519,-127.967 334.987,-129.603 333.722,-122.718"/>
</g>
</g>
</svg>
        <g id="navigator" transform="translate(0 0)" fill="#404254">
                <rect fill="#f2f5e9" fill-opacity="0.5" stroke="#606060" stroke-width=".5" x="0" y="0" width="60" height="60"/>
                <use id="zoomplus" xlink:href="#zoomPlus" x="17" y="9" onmousedown="handleZoom(evt,'in')"/>
                <use id="zoomminus" xlink:href="#zoomMin" x="42" y="9" onmousedown="handleZoom(evt,'out')"/>
                <use id="reset" xlink:href="#resetDef" x="30" y="36" onmousedown="handleReset()"/>
                <g id="arrowUp" xlink:href="#dirArrow" transform="translate(30 24)" onmousedown="handlePan(0,-1)">
                  <use xlink:href="#rim" fill="#404040">
                        <set attributeName="fill" to="#808080" begin="arrowUp.mouseover" end="arrowUp.mouseout"/>
                  </use>
                  <path fill="none" stroke="white" stroke-width="1.5" d="M0,-3.0v7 M-2.5,-0.5L0,-3.0L2.5,-0.5"/>
                </g>
                <g id="arrowRight" xlink:href="#dirArrow" transform="rotate(90) translate(36 -43)" onmousedown="handlePan(1,0)">
                  <use xlink:href="#rim" fill="#404040">
                        <set attributeName="fill" to="#808080" begin="arrowRight.mouseover" end="arrowRight.mouseout"/>
                  </use>
                  <path fill="none" stroke="white" stroke-width="1.5" d="M0,-3.0v7 M-2.5,-0.5L0,-3.0L2.5,-0.5"/>
                </g>
                <g id="arrowDown" xlink:href="#dirArrow" transform="rotate(180) translate(-30 -48)" onmousedown="handlePan(0,1)">
                  <use xlink:href="#rim" fill="#404040">
                        <set attributeName="fill" to="#808080" begin="arrowDown.mouseover" end="arrowDown.mouseout"/>
                  </use>
                  <path fill="none" stroke="white" stroke-width="1.5" d="M0,-3.0v7 M-2.5,-0.5L0,-3.0L2.5,-0.5"/>
                </g>
                <g id="arrowLeft" xlink:href="#dirArrow" transform="rotate(270) translate(-36 17)" onmousedown="handlePan(-1,0)">
                  <use xlink:href="#rim" fill="#404040">
                        <set attributeName="fill" to="#808080" begin="arrowLeft.mouseover" end="arrowLeft.mouseout"/>
                  </use>
                  <path fill="none" stroke="white" stroke-width="1.5" d="M0,-3.0v7 M-2.5,-0.5L0,-3.0L2.5,-0.5"/>
                </g>
        </g>
</svg>
