<?xml version="1.0" encoding="UTF-8" standalone="no"?>
<!DOCTYPE svg PUBLIC "-//W3C//DTD SVG 1.1//EN"
 "http://www.w3.org/Graphics/SVG/1.1/DTD/svg11.dtd">
<!-- Generated by graphviz version 2.26.3 (20100126.1600)
 -->
<!-- Title: G Pages: 1 -->
<!--zoomable 70 -->
<svg id="main" version="1.1" xmlns="http://www.w3.org/2000/svg" xmlns:xlink="http://www.w3.org/1999/xlink" xml:space="preserve" onload="init(evt)">
        <defs>
                <circle id="rim" cx="0" cy="0" r="7"/>
                <circle id="rim2" cx="0" cy="0" r="3.5"/>
                <g id="zoomPlus">
                        <use xlink:href="#rim" fill="#404040">
                                <set attributeName="fill" to="#808080" begin="zoomplus.mouseover" end="zoomplus.mouseout"/>
                        </use>
                        <path d="M-4,0h8M0,-4v8" fill="none" stroke="white" stroke-width="1.5" pointer-events="none"/>
                </g>
                <g id="zoomMin">
                        <use xlink:href="#rim" fill="#404040">
                                <set attributeName="fill" to="#808080" begin="zoomminus.mouseover" end="zoomminus.mouseout"/>
                        </use>
                        <path d="M-4,0h8" fill="none" stroke="white" stroke-width="1.5" pointer-events="none"/>
                </g>
                <g id="dirArrow">
                        <path fill="none" stroke="white" stroke-width="1.5" d="M0,-3.0v7 M-2.5,-0.5L0,-3.0L2.5,-0.5"/>
                </g>
               <g id="resetDef">
                       <use xlink:href="#rim2" fill="#404040">
                               <set attributeName="fill" to="#808080" begin="reset.mouseover" end="reset.mouseout"/>
                       </use>
               </g>
        </defs>

<script type="text/javascript">
var viewWidth = 1156;
var viewHeight = 70;
var sectionId = 'dynsection-35';
</script>
<script xlink:href="../../svgpan.js"/>
<svg id="graph" class="graph">
<g id="viewport">
<title>G</title>
<polygon fill="white" stroke="white" points="-4,5 -4,-66 1153,-66 1153,5 -4,5"/>
<!-- Node1 -->
<g id="node1" class="node"><title>Node1</title>
<polygon fill="#bfbfbf" stroke="black" points="0.5,-20.5 0.5,-41.5 293.5,-41.5 293.5,-20.5 0.5,-20.5"/>
<text text-anchor="middle" x="147" y="-28.5" font-family="Helvetica,sans-Serif" font-size="10.00">google::protobuf::internal::WireFormatLite::WriteGroupNoVirtual</text>
</g>
<!-- Node2 -->
<g id="node3" class="node"><title>Node2</title>
<a xlink:href="../../d9/d8e/classgoogle_1_1protobuf_1_1internal_1_1_wire_format_lite.html#af38c481bdeedae727b8d5f1fd62c64e7" target="_top" xlink:title="google::protobuf::internal::WireFormatLite::WriteTag">
<polygon fill="white" stroke="black" points="330,-20.5 330,-41.5 572,-41.5 572,-20.5 330,-20.5"/>
<text text-anchor="middle" x="451" y="-28.5" font-family="Helvetica,sans-Serif" font-size="10.00">google::protobuf::internal::WireFormatLite::WriteTag</text>
</a>
</g>
<!-- Node1&#45;&gt;Node2 -->
<g id="edge2" class="edge"><title>Node1&#45;&gt;Node2</title>
<path fill="none" stroke="midnightblue" d="M293.657,-31C302.388,-31 311.142,-31 319.804,-31"/>
<polygon fill="midnightblue" stroke="midnightblue" points="319.923,-34.5001 329.923,-31 319.923,-27.5001 319.923,-34.5001"/>
</g>
<!-- Node3 -->
<g id="node5" class="node"><title>Node3</title>
<a xlink:href="../../df/d72/classgoogle_1_1protobuf_1_1io_1_1_coded_output_stream.html#aa758ef2106157acbe71c330e38ac9bb6" target="_top" xlink:title="google::protobuf::io::CodedOutputStream::WriteTag">
<polygon fill="white" stroke="black" points="609.5,-40.5 609.5,-61.5 850.5,-61.5 850.5,-40.5 609.5,-40.5"/>
<text text-anchor="middle" x="730" y="-48.5" font-family="Helvetica,sans-Serif" font-size="10.00">google::protobuf::io::CodedOutputStream::WriteTag</text>
</a>
</g>
<!-- Node2&#45;&gt;Node3 -->
<g id="edge4" class="edge"><title>Node2&#45;&gt;Node3</title>
<path fill="none" stroke="midnightblue" d="M572.156,-39.685C581.131,-40.3284 590.21,-40.9792 599.239,-41.6265"/>
<polygon fill="midnightblue" stroke="midnightblue" points="599.18,-45.1311 609.404,-42.3552 599.68,-38.149 599.18,-45.1311"/>
</g>
<!-- Node5 -->
<g id="node9" class="node"><title>Node5</title>
<a xlink:href="../../d9/d8e/classgoogle_1_1protobuf_1_1internal_1_1_wire_format_lite.html#af19df489143ee50c97e661946c7efb04" target="_top" xlink:title="google::protobuf::internal::WireFormatLite::MakeTag">
<polygon fill="white" stroke="black" points="608.5,-0.5 608.5,-21.5 851.5,-21.5 851.5,-0.5 608.5,-0.5"/>
<text text-anchor="middle" x="730" y="-8.5" font-family="Helvetica,sans-Serif" font-size="10.00">google::protobuf::internal::WireFormatLite::MakeTag</text>
</a>
</g>
<!-- Node2&#45;&gt;Node5 -->
<g id="edge8" class="edge"><title>Node2&#45;&gt;Node5</title>
<path fill="none" stroke="midnightblue" d="M572.156,-22.315C580.718,-21.7012 589.373,-21.0808 597.99,-20.4631"/>
<polygon fill="midnightblue" stroke="midnightblue" points="598.357,-23.9459 608.081,-19.7397 597.856,-16.9638 598.357,-23.9459"/>
</g>
<!-- Node4 -->
<g id="node7" class="node"><title>Node4</title>
<a xlink:href="../../df/d72/classgoogle_1_1protobuf_1_1io_1_1_coded_output_stream.html#a98309ef5997118334926b30d4fde9560" target="_top" xlink:title="google::protobuf::io::CodedOutputStream::WriteVarint32">
<polygon fill="white" stroke="black" points="888,-40.5 888,-61.5 1148,-61.5 1148,-40.5 888,-40.5"/>
<text text-anchor="middle" x="1018" y="-48.5" font-family="Helvetica,sans-Serif" font-size="10.00">google::protobuf::io::CodedOutputStream::WriteVarint32</text>
</a>
</g>
<!-- Node3&#45;&gt;Node4 -->
<g id="edge6" class="edge"><title>Node3&#45;&gt;Node4</title>
<path fill="none" stroke="midnightblue" d="M850.886,-51C859.722,-51 868.676,-51 877.613,-51"/>
<polygon fill="midnightblue" stroke="midnightblue" points="877.687,-54.5001 887.687,-51 877.687,-47.5001 877.687,-54.5001"/>
</g>
</g>
</svg>
        <g id="navigator" transform="translate(0 0)" fill="#404254">
                <rect fill="#f2f5e9" fill-opacity="0.5" stroke="#606060" stroke-width=".5" x="0" y="0" width="60" height="60"/>
                <use id="zoomplus" xlink:href="#zoomPlus" x="17" y="9" onmousedown="handleZoom(evt,'in')"/>
                <use id="zoomminus" xlink:href="#zoomMin" x="42" y="9" onmousedown="handleZoom(evt,'out')"/>
                <use id="reset" xlink:href="#resetDef" x="30" y="36" onmousedown="handleReset()"/>
                <g id="arrowUp" xlink:href="#dirArrow" transform="translate(30 24)" onmousedown="handlePan(0,-1)">
                  <use xlink:href="#rim" fill="#404040">
                        <set attributeName="fill" to="#808080" begin="arrowUp.mouseover" end="arrowUp.mouseout"/>
                  </use>
                  <path fill="none" stroke="white" stroke-width="1.5" d="M0,-3.0v7 M-2.5,-0.5L0,-3.0L2.5,-0.5"/>
                </g>
                <g id="arrowRight" xlink:href="#dirArrow" transform="rotate(90) translate(36 -43)" onmousedown="handlePan(1,0)">
                  <use xlink:href="#rim" fill="#404040">
                        <set attributeName="fill" to="#808080" begin="arrowRight.mouseover" end="arrowRight.mouseout"/>
                  </use>
                  <path fill="none" stroke="white" stroke-width="1.5" d="M0,-3.0v7 M-2.5,-0.5L0,-3.0L2.5,-0.5"/>
                </g>
                <g id="arrowDown" xlink:href="#dirArrow" transform="rotate(180) translate(-30 -48)" onmousedown="handlePan(0,1)">
                  <use xlink:href="#rim" fill="#404040">
                        <set attributeName="fill" to="#808080" begin="arrowDown.mouseover" end="arrowDown.mouseout"/>
                  </use>
                  <path fill="none" stroke="white" stroke-width="1.5" d="M0,-3.0v7 M-2.5,-0.5L0,-3.0L2.5,-0.5"/>
                </g>
                <g id="arrowLeft" xlink:href="#dirArrow" transform="rotate(270) translate(-36 17)" onmousedown="handlePan(-1,0)">
                  <use xlink:href="#rim" fill="#404040">
                        <set attributeName="fill" to="#808080" begin="arrowLeft.mouseover" end="arrowLeft.mouseout"/>
                  </use>
                  <path fill="none" stroke="white" stroke-width="1.5" d="M0,-3.0v7 M-2.5,-0.5L0,-3.0L2.5,-0.5"/>
                </g>
        </g>
</svg>
