<?xml version="1.0" encoding="UTF-8" standalone="no"?>
<!DOCTYPE svg PUBLIC "-//W3C//DTD SVG 1.1//EN"
 "http://www.w3.org/Graphics/SVG/1.1/DTD/svg11.dtd">
<!-- Generated by graphviz version 2.26.3 (20100126.1600)
 -->
<!-- Title: G Pages: 1 -->
<!--zoomable 90 -->
<svg id="main" version="1.1" xmlns="http://www.w3.org/2000/svg" xmlns:xlink="http://www.w3.org/1999/xlink" xml:space="preserve" onload="init(evt)">
        <defs>
                <circle id="rim" cx="0" cy="0" r="7"/>
                <circle id="rim2" cx="0" cy="0" r="3.5"/>
                <g id="zoomPlus">
                        <use xlink:href="#rim" fill="#404040">
                                <set attributeName="fill" to="#808080" begin="zoomplus.mouseover" end="zoomplus.mouseout"/>
                        </use>
                        <path d="M-4,0h8M0,-4v8" fill="none" stroke="white" stroke-width="1.5" pointer-events="none"/>
                </g>
                <g id="zoomMin">
                        <use xlink:href="#rim" fill="#404040">
                                <set attributeName="fill" to="#808080" begin="zoomminus.mouseover" end="zoomminus.mouseout"/>
                        </use>
                        <path d="M-4,0h8" fill="none" stroke="white" stroke-width="1.5" pointer-events="none"/>
                </g>
                <g id="dirArrow">
                        <path fill="none" stroke="white" stroke-width="1.5" d="M0,-3.0v7 M-2.5,-0.5L0,-3.0L2.5,-0.5"/>
                </g>
               <g id="resetDef">
                       <use xlink:href="#rim2" fill="#404040">
                               <set attributeName="fill" to="#808080" begin="reset.mouseover" end="reset.mouseout"/>
                       </use>
               </g>
        </defs>

<script type="text/javascript">
var viewWidth = 1370;
var viewHeight = 90;
var sectionId = 'dynsection-22';
</script>
<script xlink:href="../../svgpan.js"/>
<svg id="graph" class="graph">
<g id="viewport">
<title>G</title>
<polygon fill="white" stroke="white" points="-4,5 -4,-86 1367,-86 1367,5 -4,5"/>
<!-- Node1 -->
<g id="node1" class="node"><title>Node1</title>
<polygon fill="#bfbfbf" stroke="black" points="0,-20.5 0,-41.5 286,-41.5 286,-20.5 0,-20.5"/>
<text text-anchor="middle" x="143" y="-28.5" font-family="Helvetica,sans-Serif" font-size="10.00">google::protobuf::internal::WireFormatLite::WriteEnumToArray</text>
</g>
<!-- Node2 -->
<g id="node3" class="node"><title>Node2</title>
<a xlink:href="../../d9/d8e/classgoogle_1_1protobuf_1_1internal_1_1_wire_format_lite.html#a55ecc2c96f1179b783f7160a2791dc8b" target="_top" xlink:title="google::protobuf::internal::WireFormatLite::WriteEnumNoTagToArray">
<polygon fill="white" stroke="black" points="322.5,-40.5 322.5,-61.5 637.5,-61.5 637.5,-40.5 322.5,-40.5"/>
<text text-anchor="middle" x="480" y="-48.5" font-family="Helvetica,sans-Serif" font-size="10.00">google::protobuf::internal::WireFormatLite::WriteEnumNoTagToArray</text>
</a>
</g>
<!-- Node1&#45;&gt;Node2 -->
<g id="edge2" class="edge"><title>Node1&#45;&gt;Node2</title>
<path fill="none" stroke="midnightblue" d="M286.407,-39.5108C294.97,-40.019 303.621,-40.5324 312.269,-41.0456"/>
<polygon fill="midnightblue" stroke="midnightblue" points="312.225,-44.5491 322.415,-41.6478 312.64,-37.5614 312.225,-44.5491"/>
</g>
<!-- Node6 -->
<g id="node11" class="node"><title>Node6</title>
<a xlink:href="../../d9/d8e/classgoogle_1_1protobuf_1_1internal_1_1_wire_format_lite.html#ac95b0ee735986226d8a8dad8a406835b" target="_top" xlink:title="google::protobuf::internal::WireFormatLite::WriteTagToArray">
<polygon fill="white" stroke="black" points="341.5,-0.5 341.5,-21.5 618.5,-21.5 618.5,-0.5 341.5,-0.5"/>
<text text-anchor="middle" x="480" y="-8.5" font-family="Helvetica,sans-Serif" font-size="10.00">google::protobuf::internal::WireFormatLite::WriteTagToArray</text>
</a>
</g>
<!-- Node1&#45;&gt;Node6 -->
<g id="edge10" class="edge"><title>Node1&#45;&gt;Node6</title>
<path fill="none" stroke="midnightblue" d="M286.407,-22.4892C301.181,-21.6124 316.218,-20.72 331.051,-19.8397"/>
<polygon fill="midnightblue" stroke="midnightblue" points="331.506,-23.319 341.281,-19.2326 331.091,-16.3313 331.506,-23.319"/>
</g>
<!-- Node3 -->
<g id="node5" class="node"><title>Node3</title>
<a xlink:href="../../df/d72/classgoogle_1_1protobuf_1_1io_1_1_coded_output_stream.html#a64719959d1b324c3731a23154a1420bc" target="_top" xlink:title="google::protobuf::io::CodedOutputStream::WriteVarint32SignExtendedToArray">
<polygon fill="white" stroke="black" points="674,-40.5 674,-61.5 1030,-61.5 1030,-40.5 674,-40.5"/>
<text text-anchor="middle" x="852" y="-48.5" font-family="Helvetica,sans-Serif" font-size="10.00">google::protobuf::io::CodedOutputStream::WriteVarint32SignExtendedToArray</text>
</a>
</g>
<!-- Node2&#45;&gt;Node3 -->
<g id="edge4" class="edge"><title>Node2&#45;&gt;Node3</title>
<path fill="none" stroke="midnightblue" d="M637.761,-51C646.372,-51 655.066,-51 663.766,-51"/>
<polygon fill="midnightblue" stroke="midnightblue" points="663.978,-54.5001 673.978,-51 663.978,-47.5001 663.978,-54.5001"/>
</g>
<!-- Node4 -->
<g id="node7" class="node"><title>Node4</title>
<a xlink:href="../../df/d72/classgoogle_1_1protobuf_1_1io_1_1_coded_output_stream.html#a0e5d2639bfcc0faec224586aa7c7cc7e" target="_top" xlink:title="google::protobuf::io::CodedOutputStream::WriteVarint64ToArray">
<polygon fill="white" stroke="black" points="1066.5,-60.5 1066.5,-81.5 1361.5,-81.5 1361.5,-60.5 1066.5,-60.5"/>
<text text-anchor="middle" x="1214" y="-68.5" font-family="Helvetica,sans-Serif" font-size="10.00">google::protobuf::io::CodedOutputStream::WriteVarint64ToArray</text>
</a>
</g>
<!-- Node3&#45;&gt;Node4 -->
<g id="edge6" class="edge"><title>Node3&#45;&gt;Node4</title>
<path fill="none" stroke="midnightblue" d="M1030.08,-60.8389C1038.81,-61.3212 1047.55,-61.8041 1056.22,-62.283"/>
<polygon fill="midnightblue" stroke="midnightblue" points="1056.18,-65.786 1066.36,-62.843 1056.57,-58.7966 1056.18,-65.786"/>
</g>
<!-- Node5 -->
<g id="node9" class="node"><title>Node5</title>
<a xlink:href="../../df/d72/classgoogle_1_1protobuf_1_1io_1_1_coded_output_stream.html#ac2b69d7c332e682f16c5dcd2c99b197a" target="_top" xlink:title="google::protobuf::io::CodedOutputStream::WriteVarint32ToArray">
<polygon fill="white" stroke="black" points="1066.5,-20.5 1066.5,-41.5 1361.5,-41.5 1361.5,-20.5 1066.5,-20.5"/>
<text text-anchor="middle" x="1214" y="-28.5" font-family="Helvetica,sans-Serif" font-size="10.00">google::protobuf::io::CodedOutputStream::WriteVarint32ToArray</text>
</a>
</g>
<!-- Node3&#45;&gt;Node5 -->
<g id="edge8" class="edge"><title>Node3&#45;&gt;Node5</title>
<path fill="none" stroke="midnightblue" d="M1030.08,-41.1611C1038.81,-40.6788 1047.55,-40.1959 1056.22,-39.717"/>
<polygon fill="midnightblue" stroke="midnightblue" points="1056.57,-43.2034 1066.36,-39.157 1056.18,-36.214 1056.57,-43.2034"/>
</g>
<!-- Node7 -->
<g id="node13" class="node"><title>Node7</title>
<a xlink:href="../../d9/d8e/classgoogle_1_1protobuf_1_1internal_1_1_wire_format_lite.html#af19df489143ee50c97e661946c7efb04" target="_top" xlink:title="google::protobuf::internal::WireFormatLite::MakeTag">
<polygon fill="white" stroke="black" points="730.5,-0.5 730.5,-21.5 973.5,-21.5 973.5,-0.5 730.5,-0.5"/>
<text text-anchor="middle" x="852" y="-8.5" font-family="Helvetica,sans-Serif" font-size="10.00">google::protobuf::internal::WireFormatLite::MakeTag</text>
</a>
</g>
<!-- Node6&#45;&gt;Node7 -->
<g id="edge12" class="edge"><title>Node6&#45;&gt;Node7</title>
<path fill="none" stroke="midnightblue" d="M618.519,-11C651.842,-11 687.343,-11 720.343,-11"/>
<polygon fill="midnightblue" stroke="midnightblue" points="720.499,-14.5001 730.499,-11 720.499,-7.5001 720.499,-14.5001"/>
</g>
</g>
</svg>
        <g id="navigator" transform="translate(0 0)" fill="#404254">
                <rect fill="#f2f5e9" fill-opacity="0.5" stroke="#606060" stroke-width=".5" x="0" y="0" width="60" height="60"/>
                <use id="zoomplus" xlink:href="#zoomPlus" x="17" y="9" onmousedown="handleZoom(evt,'in')"/>
                <use id="zoomminus" xlink:href="#zoomMin" x="42" y="9" onmousedown="handleZoom(evt,'out')"/>
                <use id="reset" xlink:href="#resetDef" x="30" y="36" onmousedown="handleReset()"/>
                <g id="arrowUp" xlink:href="#dirArrow" transform="translate(30 24)" onmousedown="handlePan(0,-1)">
                  <use xlink:href="#rim" fill="#404040">
                        <set attributeName="fill" to="#808080" begin="arrowUp.mouseover" end="arrowUp.mouseout"/>
                  </use>
                  <path fill="none" stroke="white" stroke-width="1.5" d="M0,-3.0v7 M-2.5,-0.5L0,-3.0L2.5,-0.5"/>
                </g>
                <g id="arrowRight" xlink:href="#dirArrow" transform="rotate(90) translate(36 -43)" onmousedown="handlePan(1,0)">
                  <use xlink:href="#rim" fill="#404040">
                        <set attributeName="fill" to="#808080" begin="arrowRight.mouseover" end="arrowRight.mouseout"/>
                  </use>
                  <path fill="none" stroke="white" stroke-width="1.5" d="M0,-3.0v7 M-2.5,-0.5L0,-3.0L2.5,-0.5"/>
                </g>
                <g id="arrowDown" xlink:href="#dirArrow" transform="rotate(180) translate(-30 -48)" onmousedown="handlePan(0,1)">
                  <use xlink:href="#rim" fill="#404040">
                        <set attributeName="fill" to="#808080" begin="arrowDown.mouseover" end="arrowDown.mouseout"/>
                  </use>
                  <path fill="none" stroke="white" stroke-width="1.5" d="M0,-3.0v7 M-2.5,-0.5L0,-3.0L2.5,-0.5"/>
                </g>
                <g id="arrowLeft" xlink:href="#dirArrow" transform="rotate(270) translate(-36 17)" onmousedown="handlePan(-1,0)">
                  <use xlink:href="#rim" fill="#404040">
                        <set attributeName="fill" to="#808080" begin="arrowLeft.mouseover" end="arrowLeft.mouseout"/>
                  </use>
                  <path fill="none" stroke="white" stroke-width="1.5" d="M0,-3.0v7 M-2.5,-0.5L0,-3.0L2.5,-0.5"/>
                </g>
        </g>
</svg>
