<?xml version="1.0" encoding="UTF-8" standalone="no"?>
<!DOCTYPE svg PUBLIC "-//W3C//DTD SVG 1.1//EN"
 "http://www.w3.org/Graphics/SVG/1.1/DTD/svg11.dtd">
<!-- Generated by graphviz version 2.26.3 (20100126.1600)
 -->
<!-- Title: G Pages: 1 -->
<!--zoomable 110 -->
<svg id="main" version="1.1" xmlns="http://www.w3.org/2000/svg" xmlns:xlink="http://www.w3.org/1999/xlink" xml:space="preserve" onload="init(evt)">
        <defs>
                <circle id="rim" cx="0" cy="0" r="7"/>
                <circle id="rim2" cx="0" cy="0" r="3.5"/>
                <g id="zoomPlus">
                        <use xlink:href="#rim" fill="#404040">
                                <set attributeName="fill" to="#808080" begin="zoomplus.mouseover" end="zoomplus.mouseout"/>
                        </use>
                        <path d="M-4,0h8M0,-4v8" fill="none" stroke="white" stroke-width="1.5" pointer-events="none"/>
                </g>
                <g id="zoomMin">
                        <use xlink:href="#rim" fill="#404040">
                                <set attributeName="fill" to="#808080" begin="zoomminus.mouseover" end="zoomminus.mouseout"/>
                        </use>
                        <path d="M-4,0h8" fill="none" stroke="white" stroke-width="1.5" pointer-events="none"/>
                </g>
                <g id="dirArrow">
                        <path fill="none" stroke="white" stroke-width="1.5" d="M0,-3.0v7 M-2.5,-0.5L0,-3.0L2.5,-0.5"/>
                </g>
               <g id="resetDef">
                       <use xlink:href="#rim2" fill="#404040">
                               <set attributeName="fill" to="#808080" begin="reset.mouseover" end="reset.mouseout"/>
                       </use>
               </g>
        </defs>

<script type="text/javascript">
var viewWidth = 994;
var viewHeight = 110;
var sectionId = 'dynsection-34';
</script>
<script xlink:href="../../svgpan.js"/>
<svg id="graph" class="graph">
<g id="viewport">
<title>G</title>
<polygon fill="white" stroke="white" points="-4,5 -4,-106 991,-106 991,5 -4,5"/>
<!-- Node1 -->
<g id="node1" class="node"><title>Node1</title>
<polygon fill="#bfbfbf" stroke="black" points="0,-20.5 0,-41.5 282,-41.5 282,-20.5 0,-20.5"/>
<text text-anchor="middle" x="141" y="-28.5" font-family="Helvetica,sans-Serif" font-size="10.00">google::protobuf::internal::WireFormatLite::WriteFloatToArray</text>
</g>
<!-- Node2 -->
<g id="node3" class="node"><title>Node2</title>
<a xlink:href="../../d9/d8e/classgoogle_1_1protobuf_1_1internal_1_1_wire_format_lite.html#a458dfd38a28f7ff3fde19760b2aaf420" target="_top" xlink:title="google::protobuf::internal::WireFormatLite::WriteFloatNoTagToArray">
<polygon fill="white" stroke="black" points="318.5,-40.5 318.5,-61.5 629.5,-61.5 629.5,-40.5 318.5,-40.5"/>
<text text-anchor="middle" x="474" y="-48.5" font-family="Helvetica,sans-Serif" font-size="10.00">google::protobuf::internal::WireFormatLite::WriteFloatNoTagToArray</text>
</a>
</g>
<!-- Node1&#45;&gt;Node2 -->
<g id="edge2" class="edge"><title>Node1&#45;&gt;Node2</title>
<path fill="none" stroke="midnightblue" d="M282.222,-39.4818C290.822,-39.9983 299.514,-40.5204 308.204,-41.0423"/>
<polygon fill="midnightblue" stroke="midnightblue" points="308.206,-44.5486 318.398,-41.6545 308.626,-37.5612 308.206,-44.5486"/>
</g>
<!-- Node5 -->
<g id="node9" class="node"><title>Node5</title>
<a xlink:href="../../d9/d8e/classgoogle_1_1protobuf_1_1internal_1_1_wire_format_lite.html#ac95b0ee735986226d8a8dad8a406835b" target="_top" xlink:title="google::protobuf::internal::WireFormatLite::WriteTagToArray">
<polygon fill="white" stroke="black" points="335.5,-0.5 335.5,-21.5 612.5,-21.5 612.5,-0.5 335.5,-0.5"/>
<text text-anchor="middle" x="474" y="-8.5" font-family="Helvetica,sans-Serif" font-size="10.00">google::protobuf::internal::WireFormatLite::WriteTagToArray</text>
</a>
</g>
<!-- Node1&#45;&gt;Node5 -->
<g id="edge8" class="edge"><title>Node1&#45;&gt;Node5</title>
<path fill="none" stroke="midnightblue" d="M282.222,-22.5182C296.415,-21.6658 310.859,-20.7983 325.128,-19.9413"/>
<polygon fill="midnightblue" stroke="midnightblue" points="325.709,-23.4128 335.481,-19.3195 325.289,-16.4254 325.709,-23.4128"/>
</g>
<!-- Node3 -->
<g id="node5" class="node"><title>Node3</title>
<a xlink:href="../../d9/d8e/classgoogle_1_1protobuf_1_1internal_1_1_wire_format_lite.html#a97e8ea78dc9333c6160762db35327b6d" target="_top" xlink:title="google::protobuf::internal::WireFormatLite::EncodeFloat">
<polygon fill="white" stroke="black" points="697.5,-80.5 697.5,-101.5 954.5,-101.5 954.5,-80.5 697.5,-80.5"/>
<text text-anchor="middle" x="826" y="-88.5" font-family="Helvetica,sans-Serif" font-size="10.00">google::protobuf::internal::WireFormatLite::EncodeFloat</text>
</a>
</g>
<!-- Node2&#45;&gt;Node3 -->
<g id="edge4" class="edge"><title>Node2&#45;&gt;Node3</title>
<path fill="none" stroke="midnightblue" d="M566.484,-61.5095C614.697,-66.9883 673.795,-73.704 723.41,-79.3421"/>
<polygon fill="midnightblue" stroke="midnightblue" points="723.192,-82.8397 733.523,-80.4913 723.982,-75.8845 723.192,-82.8397"/>
</g>
<!-- Node4 -->
<g id="node7" class="node"><title>Node4</title>
<a xlink:href="../../df/d72/classgoogle_1_1protobuf_1_1io_1_1_coded_output_stream.html#a4c24f6be2171292c6e7d69ac54d4dbaa" target="_top" xlink:title="google::protobuf::io::CodedOutputStream::WriteLittleEndian32ToArray">
<polygon fill="white" stroke="black" points="666,-40.5 666,-61.5 986,-61.5 986,-40.5 666,-40.5"/>
<text text-anchor="middle" x="826" y="-48.5" font-family="Helvetica,sans-Serif" font-size="10.00">google::protobuf::io::CodedOutputStream::WriteLittleEndian32ToArray</text>
</a>
</g>
<!-- Node2&#45;&gt;Node4 -->
<g id="edge6" class="edge"><title>Node2&#45;&gt;Node4</title>
<path fill="none" stroke="midnightblue" d="M629.673,-51C638.337,-51 647.068,-51 655.779,-51"/>
<polygon fill="midnightblue" stroke="midnightblue" points="655.992,-54.5001 665.992,-51 655.992,-47.5001 655.992,-54.5001"/>
</g>
<!-- Node6 -->
<g id="node11" class="node"><title>Node6</title>
<a xlink:href="../../d9/d8e/classgoogle_1_1protobuf_1_1internal_1_1_wire_format_lite.html#af19df489143ee50c97e661946c7efb04" target="_top" xlink:title="google::protobuf::internal::WireFormatLite::MakeTag">
<polygon fill="white" stroke="black" points="704.5,-0.5 704.5,-21.5 947.5,-21.5 947.5,-0.5 704.5,-0.5"/>
<text text-anchor="middle" x="826" y="-8.5" font-family="Helvetica,sans-Serif" font-size="10.00">google::protobuf::internal::WireFormatLite::MakeTag</text>
</a>
</g>
<!-- Node5&#45;&gt;Node6 -->
<g id="edge10" class="edge"><title>Node5&#45;&gt;Node6</title>
<path fill="none" stroke="midnightblue" d="M612.614,-11C639.483,-11 667.57,-11 694.212,-11"/>
<polygon fill="midnightblue" stroke="midnightblue" points="694.347,-14.5001 704.347,-11 694.347,-7.5001 694.347,-14.5001"/>
</g>
</g>
</svg>
        <g id="navigator" transform="translate(0 0)" fill="#404254">
                <rect fill="#f2f5e9" fill-opacity="0.5" stroke="#606060" stroke-width=".5" x="0" y="0" width="60" height="60"/>
                <use id="zoomplus" xlink:href="#zoomPlus" x="17" y="9" onmousedown="handleZoom(evt,'in')"/>
                <use id="zoomminus" xlink:href="#zoomMin" x="42" y="9" onmousedown="handleZoom(evt,'out')"/>
                <use id="reset" xlink:href="#resetDef" x="30" y="36" onmousedown="handleReset()"/>
                <g id="arrowUp" xlink:href="#dirArrow" transform="translate(30 24)" onmousedown="handlePan(0,-1)">
                  <use xlink:href="#rim" fill="#404040">
                        <set attributeName="fill" to="#808080" begin="arrowUp.mouseover" end="arrowUp.mouseout"/>
                  </use>
                  <path fill="none" stroke="white" stroke-width="1.5" d="M0,-3.0v7 M-2.5,-0.5L0,-3.0L2.5,-0.5"/>
                </g>
                <g id="arrowRight" xlink:href="#dirArrow" transform="rotate(90) translate(36 -43)" onmousedown="handlePan(1,0)">
                  <use xlink:href="#rim" fill="#404040">
                        <set attributeName="fill" to="#808080" begin="arrowRight.mouseover" end="arrowRight.mouseout"/>
                  </use>
                  <path fill="none" stroke="white" stroke-width="1.5" d="M0,-3.0v7 M-2.5,-0.5L0,-3.0L2.5,-0.5"/>
                </g>
                <g id="arrowDown" xlink:href="#dirArrow" transform="rotate(180) translate(-30 -48)" onmousedown="handlePan(0,1)">
                  <use xlink:href="#rim" fill="#404040">
                        <set attributeName="fill" to="#808080" begin="arrowDown.mouseover" end="arrowDown.mouseout"/>
                  </use>
                  <path fill="none" stroke="white" stroke-width="1.5" d="M0,-3.0v7 M-2.5,-0.5L0,-3.0L2.5,-0.5"/>
                </g>
                <g id="arrowLeft" xlink:href="#dirArrow" transform="rotate(270) translate(-36 17)" onmousedown="handlePan(-1,0)">
                  <use xlink:href="#rim" fill="#404040">
                        <set attributeName="fill" to="#808080" begin="arrowLeft.mouseover" end="arrowLeft.mouseout"/>
                  </use>
                  <path fill="none" stroke="white" stroke-width="1.5" d="M0,-3.0v7 M-2.5,-0.5L0,-3.0L2.5,-0.5"/>
                </g>
        </g>
</svg>
