<?xml version="1.0" encoding="UTF-8" standalone="no"?>
<!DOCTYPE svg PUBLIC "-//W3C//DTD SVG 1.1//EN"
 "http://www.w3.org/Graphics/SVG/1.1/DTD/svg11.dtd">
<!-- Generated by graphviz version 2.26.3 (20100126.1600)
 -->
<!-- Title: G Pages: 1 -->
<!--zoomable 150 -->
<svg id="main" version="1.1" xmlns="http://www.w3.org/2000/svg" xmlns:xlink="http://www.w3.org/1999/xlink" xml:space="preserve" onload="init(evt)">
        <defs>
                <circle id="rim" cx="0" cy="0" r="7"/>
                <circle id="rim2" cx="0" cy="0" r="3.5"/>
                <g id="zoomPlus">
                        <use xlink:href="#rim" fill="#404040">
                                <set attributeName="fill" to="#808080" begin="zoomplus.mouseover" end="zoomplus.mouseout"/>
                        </use>
                        <path d="M-4,0h8M0,-4v8" fill="none" stroke="white" stroke-width="1.5" pointer-events="none"/>
                </g>
                <g id="zoomMin">
                        <use xlink:href="#rim" fill="#404040">
                                <set attributeName="fill" to="#808080" begin="zoomminus.mouseover" end="zoomminus.mouseout"/>
                        </use>
                        <path d="M-4,0h8" fill="none" stroke="white" stroke-width="1.5" pointer-events="none"/>
                </g>
                <g id="dirArrow">
                        <path fill="none" stroke="white" stroke-width="1.5" d="M0,-3.0v7 M-2.5,-0.5L0,-3.0L2.5,-0.5"/>
                </g>
               <g id="resetDef">
                       <use xlink:href="#rim2" fill="#404040">
                               <set attributeName="fill" to="#808080" begin="reset.mouseover" end="reset.mouseout"/>
                       </use>
               </g>
        </defs>

<script type="text/javascript">
var viewWidth = 650;
var viewHeight = 150;
var sectionId = 'dynsection-4';
</script>
<script xlink:href="../../svgpan.js"/>
<svg id="graph" class="graph">
<g id="viewport">
<title>G</title>
<polygon fill="white" stroke="white" points="-4,5 -4,-146 647,-146 647,5 -4,5"/>
<!-- Node1 -->
<g id="node1" class="node"><title>Node1</title>
<polygon fill="#bfbfbf" stroke="black" points="0.5,-60.5 0.5,-81.5 293.5,-81.5 293.5,-60.5 0.5,-60.5"/>
<text text-anchor="middle" x="147" y="-68.5" font-family="Helvetica,sans-Serif" font-size="10.00">google::protobuf::internal::WireFormatLite::ReadGroupNoVirtual</text>
</g>
<!-- Node2 -->
<g id="node3" class="node"><title>Node2</title>
<a xlink:href="../../de/d54/classgoogle_1_1protobuf_1_1io_1_1_coded_input_stream.html#aabc8f94b211fcf84fa2fdea15777d481" target="_top" xlink:title="google::protobuf::io::CodedInputStream::DecrementRecursionDepth">
<polygon fill="white" stroke="black" points="330,-120.5 330,-141.5 642,-141.5 642,-120.5 330,-120.5"/>
<text text-anchor="middle" x="486" y="-128.5" font-family="Helvetica,sans-Serif" font-size="10.00">google::protobuf::io::CodedInputStream::DecrementRecursionDepth</text>
</a>
</g>
<!-- Node1&#45;&gt;Node2 -->
<g id="edge2" class="edge"><title>Node1&#45;&gt;Node2</title>
<path fill="none" stroke="midnightblue" d="M190.051,-81.5287C227.003,-90.2967 281.773,-102.654 330,-111 347.093,-113.958 365.31,-116.68 383.04,-119.1"/>
<polygon fill="midnightblue" stroke="midnightblue" points="383.035,-122.63 393.411,-120.49 383.964,-115.692 383.035,-122.63"/>
</g>
<!-- Node3 -->
<g id="node5" class="node"><title>Node3</title>
<a xlink:href="../../de/d54/classgoogle_1_1protobuf_1_1io_1_1_coded_input_stream.html#aa378da875bec7f2a1c9e09a9d37f3672" target="_top" xlink:title="google::protobuf::io::CodedInputStream::IncrementRecursionDepth">
<polygon fill="white" stroke="black" points="332,-80.5 332,-101.5 640,-101.5 640,-80.5 332,-80.5"/>
<text text-anchor="middle" x="486" y="-88.5" font-family="Helvetica,sans-Serif" font-size="10.00">google::protobuf::io::CodedInputStream::IncrementRecursionDepth</text>
</a>
</g>
<!-- Node1&#45;&gt;Node3 -->
<g id="edge4" class="edge"><title>Node1&#45;&gt;Node3</title>
<path fill="none" stroke="midnightblue" d="M293.719,-79.656C302.983,-80.2025 312.34,-80.7546 321.676,-81.3054"/>
<polygon fill="midnightblue" stroke="midnightblue" points="321.604,-84.8071 331.793,-81.9022 322.017,-77.8193 321.604,-84.8071"/>
</g>
<!-- Node4 -->
<g id="node7" class="node"><title>Node4</title>
<a xlink:href="../../de/d54/classgoogle_1_1protobuf_1_1io_1_1_coded_input_stream.html#a00d69e1980355010ed8155ba9d07e317" target="_top" xlink:title="google::protobuf::io::CodedInputStream::LastTagWas">
<polygon fill="white" stroke="black" points="361.5,-40.5 361.5,-61.5 610.5,-61.5 610.5,-40.5 361.5,-40.5"/>
<text text-anchor="middle" x="486" y="-48.5" font-family="Helvetica,sans-Serif" font-size="10.00">google::protobuf::io::CodedInputStream::LastTagWas</text>
</a>
</g>
<!-- Node1&#45;&gt;Node4 -->
<g id="edge6" class="edge"><title>Node1&#45;&gt;Node4</title>
<path fill="none" stroke="midnightblue" d="M293.719,-62.344C312.831,-61.2165 332.336,-60.0657 351.239,-58.9505"/>
<polygon fill="midnightblue" stroke="midnightblue" points="351.591,-62.4359 361.367,-58.353 351.178,-55.4481 351.591,-62.4359"/>
</g>
<!-- Node5 -->
<g id="node9" class="node"><title>Node5</title>
<a xlink:href="../../d9/d8e/classgoogle_1_1protobuf_1_1internal_1_1_wire_format_lite.html#af19df489143ee50c97e661946c7efb04" target="_top" xlink:title="google::protobuf::internal::WireFormatLite::MakeTag">
<polygon fill="white" stroke="black" points="364.5,-0.5 364.5,-21.5 607.5,-21.5 607.5,-0.5 364.5,-0.5"/>
<text text-anchor="middle" x="486" y="-8.5" font-family="Helvetica,sans-Serif" font-size="10.00">google::protobuf::internal::WireFormatLite::MakeTag</text>
</a>
</g>
<!-- Node1&#45;&gt;Node5 -->
<g id="edge8" class="edge"><title>Node1&#45;&gt;Node5</title>
<path fill="none" stroke="midnightblue" d="M190.051,-60.4713C227.003,-51.7033 281.773,-39.3457 330,-31 347.093,-28.042 365.31,-25.3205 383.04,-22.9001"/>
<polygon fill="midnightblue" stroke="midnightblue" points="383.964,-26.3077 393.411,-21.5104 383.035,-19.3697 383.964,-26.3077"/>
</g>
</g>
</svg>
        <g id="navigator" transform="translate(0 0)" fill="#404254">
                <rect fill="#f2f5e9" fill-opacity="0.5" stroke="#606060" stroke-width=".5" x="0" y="0" width="60" height="60"/>
                <use id="zoomplus" xlink:href="#zoomPlus" x="17" y="9" onmousedown="handleZoom(evt,'in')"/>
                <use id="zoomminus" xlink:href="#zoomMin" x="42" y="9" onmousedown="handleZoom(evt,'out')"/>
                <use id="reset" xlink:href="#resetDef" x="30" y="36" onmousedown="handleReset()"/>
                <g id="arrowUp" xlink:href="#dirArrow" transform="translate(30 24)" onmousedown="handlePan(0,-1)">
                  <use xlink:href="#rim" fill="#404040">
                        <set attributeName="fill" to="#808080" begin="arrowUp.mouseover" end="arrowUp.mouseout"/>
                  </use>
                  <path fill="none" stroke="white" stroke-width="1.5" d="M0,-3.0v7 M-2.5,-0.5L0,-3.0L2.5,-0.5"/>
                </g>
                <g id="arrowRight" xlink:href="#dirArrow" transform="rotate(90) translate(36 -43)" onmousedown="handlePan(1,0)">
                  <use xlink:href="#rim" fill="#404040">
                        <set attributeName="fill" to="#808080" begin="arrowRight.mouseover" end="arrowRight.mouseout"/>
                  </use>
                  <path fill="none" stroke="white" stroke-width="1.5" d="M0,-3.0v7 M-2.5,-0.5L0,-3.0L2.5,-0.5"/>
                </g>
                <g id="arrowDown" xlink:href="#dirArrow" transform="rotate(180) translate(-30 -48)" onmousedown="handlePan(0,1)">
                  <use xlink:href="#rim" fill="#404040">
                        <set attributeName="fill" to="#808080" begin="arrowDown.mouseover" end="arrowDown.mouseout"/>
                  </use>
                  <path fill="none" stroke="white" stroke-width="1.5" d="M0,-3.0v7 M-2.5,-0.5L0,-3.0L2.5,-0.5"/>
                </g>
                <g id="arrowLeft" xlink:href="#dirArrow" transform="rotate(270) translate(-36 17)" onmousedown="handlePan(-1,0)">
                  <use xlink:href="#rim" fill="#404040">
                        <set attributeName="fill" to="#808080" begin="arrowLeft.mouseover" end="arrowLeft.mouseout"/>
                  </use>
                  <path fill="none" stroke="white" stroke-width="1.5" d="M0,-3.0v7 M-2.5,-0.5L0,-3.0L2.5,-0.5"/>
                </g>
        </g>
</svg>
