<?xml version="1.0" encoding="UTF-8" standalone="no"?>
<!DOCTYPE svg PUBLIC "-//W3C//DTD SVG 1.1//EN"
 "http://www.w3.org/Graphics/SVG/1.1/DTD/svg11.dtd">
<!-- Generated by graphviz version 2.26.3 (20100126.1600)
 -->
<!-- Title: G Pages: 1 -->
<!--zoomable 110 -->
<svg id="main" version="1.1" xmlns="http://www.w3.org/2000/svg" xmlns:xlink="http://www.w3.org/1999/xlink" xml:space="preserve" onload="init(evt)">
        <defs>
                <circle id="rim" cx="0" cy="0" r="7"/>
                <circle id="rim2" cx="0" cy="0" r="3.5"/>
                <g id="zoomPlus">
                        <use xlink:href="#rim" fill="#404040">
                                <set attributeName="fill" to="#808080" begin="zoomplus.mouseover" end="zoomplus.mouseout"/>
                        </use>
                        <path d="M-4,0h8M0,-4v8" fill="none" stroke="white" stroke-width="1.5" pointer-events="none"/>
                </g>
                <g id="zoomMin">
                        <use xlink:href="#rim" fill="#404040">
                                <set attributeName="fill" to="#808080" begin="zoomminus.mouseover" end="zoomminus.mouseout"/>
                        </use>
                        <path d="M-4,0h8" fill="none" stroke="white" stroke-width="1.5" pointer-events="none"/>
                </g>
                <g id="dirArrow">
                        <path fill="none" stroke="white" stroke-width="1.5" d="M0,-3.0v7 M-2.5,-0.5L0,-3.0L2.5,-0.5"/>
                </g>
               <g id="resetDef">
                       <use xlink:href="#rim2" fill="#404040">
                               <set attributeName="fill" to="#808080" begin="reset.mouseover" end="reset.mouseout"/>
                       </use>
               </g>
        </defs>

<script type="text/javascript">
var viewWidth = 1012;
var viewHeight = 110;
var sectionId = 'dynsection-18';
</script>
<script xlink:href="../../svgpan.js"/>
<svg id="graph" class="graph">
<g id="viewport">
<title>G</title>
<polygon fill="white" stroke="white" points="-4,5 -4,-106 1009,-106 1009,5 -4,5"/>
<!-- Node1 -->
<g id="node1" class="node"><title>Node1</title>
<polygon fill="#bfbfbf" stroke="black" points="0.5,-20.5 0.5,-41.5 291.5,-41.5 291.5,-20.5 0.5,-20.5"/>
<text text-anchor="middle" x="146" y="-28.5" font-family="Helvetica,sans-Serif" font-size="10.00">google::protobuf::internal::WireFormatLite::WriteDoubleToArray</text>
</g>
<!-- Node2 -->
<g id="node3" class="node"><title>Node2</title>
<a xlink:href="../../d9/d8e/classgoogle_1_1protobuf_1_1internal_1_1_wire_format_lite.html#abfc4ea6cf948c9ca490a41f99c9b5876" target="_top" xlink:title="google::protobuf::internal::WireFormatLite::WriteDoubleNoTagToArray">
<polygon fill="white" stroke="black" points="328,-40.5 328,-61.5 648,-61.5 648,-40.5 328,-40.5"/>
<text text-anchor="middle" x="488" y="-48.5" font-family="Helvetica,sans-Serif" font-size="10.00">google::protobuf::internal::WireFormatLite::WriteDoubleNoTagToArray</text>
</a>
</g>
<!-- Node1&#45;&gt;Node2 -->
<g id="edge2" class="edge"><title>Node1&#45;&gt;Node2</title>
<path fill="none" stroke="midnightblue" d="M291.535,-39.5108C300.159,-40.0151 308.872,-40.5247 317.582,-41.0341"/>
<polygon fill="midnightblue" stroke="midnightblue" points="317.614,-44.5418 327.802,-41.6317 318.023,-37.5538 317.614,-44.5418"/>
</g>
<!-- Node5 -->
<g id="node9" class="node"><title>Node5</title>
<a xlink:href="../../d9/d8e/classgoogle_1_1protobuf_1_1internal_1_1_wire_format_lite.html#ac95b0ee735986226d8a8dad8a406835b" target="_top" xlink:title="google::protobuf::internal::WireFormatLite::WriteTagToArray">
<polygon fill="white" stroke="black" points="349.5,-0.5 349.5,-21.5 626.5,-21.5 626.5,-0.5 349.5,-0.5"/>
<text text-anchor="middle" x="488" y="-8.5" font-family="Helvetica,sans-Serif" font-size="10.00">google::protobuf::internal::WireFormatLite::WriteTagToArray</text>
</a>
</g>
<!-- Node1&#45;&gt;Node5 -->
<g id="edge8" class="edge"><title>Node1&#45;&gt;Node5</title>
<path fill="none" stroke="midnightblue" d="M291.535,-22.4892C307.269,-21.5691 323.297,-20.6318 339.07,-19.7094"/>
<polygon fill="midnightblue" stroke="midnightblue" points="339.614,-23.1836 349.393,-19.1057 339.206,-16.1955 339.614,-23.1836"/>
</g>
<!-- Node3 -->
<g id="node5" class="node"><title>Node3</title>
<a xlink:href="../../d9/d8e/classgoogle_1_1protobuf_1_1internal_1_1_wire_format_lite.html#aac7fb24a3cf8bbf57e0a387d8f93297c" target="_top" xlink:title="google::protobuf::internal::WireFormatLite::EncodeDouble">
<polygon fill="white" stroke="black" points="711,-80.5 711,-101.5 977,-101.5 977,-80.5 711,-80.5"/>
<text text-anchor="middle" x="844" y="-88.5" font-family="Helvetica,sans-Serif" font-size="10.00">google::protobuf::internal::WireFormatLite::EncodeDouble</text>
</a>
</g>
<!-- Node2&#45;&gt;Node3 -->
<g id="edge4" class="edge"><title>Node2&#45;&gt;Node3</title>
<path fill="none" stroke="midnightblue" d="M581.535,-61.5095C630.296,-66.9883 690.066,-73.704 740.245,-79.3421"/>
<polygon fill="midnightblue" stroke="midnightblue" points="740.144,-82.8527 750.472,-80.4913 740.926,-75.8965 740.144,-82.8527"/>
</g>
<!-- Node4 -->
<g id="node7" class="node"><title>Node4</title>
<a xlink:href="../../df/d72/classgoogle_1_1protobuf_1_1io_1_1_coded_output_stream.html#a96d329f453bf6f45011307afcd63079a" target="_top" xlink:title="google::protobuf::io::CodedOutputStream::WriteLittleEndian64ToArray">
<polygon fill="white" stroke="black" points="684,-40.5 684,-61.5 1004,-61.5 1004,-40.5 684,-40.5"/>
<text text-anchor="middle" x="844" y="-48.5" font-family="Helvetica,sans-Serif" font-size="10.00">google::protobuf::io::CodedOutputStream::WriteLittleEndian64ToArray</text>
</a>
</g>
<!-- Node2&#45;&gt;Node4 -->
<g id="edge6" class="edge"><title>Node2&#45;&gt;Node4</title>
<path fill="none" stroke="midnightblue" d="M648.036,-51C656.599,-51 665.217,-51 673.811,-51"/>
<polygon fill="midnightblue" stroke="midnightblue" points="673.884,-54.5001 683.884,-51 673.884,-47.5001 673.884,-54.5001"/>
</g>
<!-- Node6 -->
<g id="node11" class="node"><title>Node6</title>
<a xlink:href="../../d9/d8e/classgoogle_1_1protobuf_1_1internal_1_1_wire_format_lite.html#af19df489143ee50c97e661946c7efb04" target="_top" xlink:title="google::protobuf::internal::WireFormatLite::MakeTag">
<polygon fill="white" stroke="black" points="722.5,-0.5 722.5,-21.5 965.5,-21.5 965.5,-0.5 722.5,-0.5"/>
<text text-anchor="middle" x="844" y="-8.5" font-family="Helvetica,sans-Serif" font-size="10.00">google::protobuf::internal::WireFormatLite::MakeTag</text>
</a>
</g>
<!-- Node5&#45;&gt;Node6 -->
<g id="edge10" class="edge"><title>Node5&#45;&gt;Node6</title>
<path fill="none" stroke="midnightblue" d="M626.658,-11C654.74,-11 684.196,-11 712.039,-11"/>
<polygon fill="midnightblue" stroke="midnightblue" points="712.218,-14.5001 722.218,-11 712.218,-7.5001 712.218,-14.5001"/>
</g>
</g>
</svg>
        <g id="navigator" transform="translate(0 0)" fill="#404254">
                <rect fill="#f2f5e9" fill-opacity="0.5" stroke="#606060" stroke-width=".5" x="0" y="0" width="60" height="60"/>
                <use id="zoomplus" xlink:href="#zoomPlus" x="17" y="9" onmousedown="handleZoom(evt,'in')"/>
                <use id="zoomminus" xlink:href="#zoomMin" x="42" y="9" onmousedown="handleZoom(evt,'out')"/>
                <use id="reset" xlink:href="#resetDef" x="30" y="36" onmousedown="handleReset()"/>
                <g id="arrowUp" xlink:href="#dirArrow" transform="translate(30 24)" onmousedown="handlePan(0,-1)">
                  <use xlink:href="#rim" fill="#404040">
                        <set attributeName="fill" to="#808080" begin="arrowUp.mouseover" end="arrowUp.mouseout"/>
                  </use>
                  <path fill="none" stroke="white" stroke-width="1.5" d="M0,-3.0v7 M-2.5,-0.5L0,-3.0L2.5,-0.5"/>
                </g>
                <g id="arrowRight" xlink:href="#dirArrow" transform="rotate(90) translate(36 -43)" onmousedown="handlePan(1,0)">
                  <use xlink:href="#rim" fill="#404040">
                        <set attributeName="fill" to="#808080" begin="arrowRight.mouseover" end="arrowRight.mouseout"/>
                  </use>
                  <path fill="none" stroke="white" stroke-width="1.5" d="M0,-3.0v7 M-2.5,-0.5L0,-3.0L2.5,-0.5"/>
                </g>
                <g id="arrowDown" xlink:href="#dirArrow" transform="rotate(180) translate(-30 -48)" onmousedown="handlePan(0,1)">
                  <use xlink:href="#rim" fill="#404040">
                        <set attributeName="fill" to="#808080" begin="arrowDown.mouseover" end="arrowDown.mouseout"/>
                  </use>
                  <path fill="none" stroke="white" stroke-width="1.5" d="M0,-3.0v7 M-2.5,-0.5L0,-3.0L2.5,-0.5"/>
                </g>
                <g id="arrowLeft" xlink:href="#dirArrow" transform="rotate(270) translate(-36 17)" onmousedown="handlePan(-1,0)">
                  <use xlink:href="#rim" fill="#404040">
                        <set attributeName="fill" to="#808080" begin="arrowLeft.mouseover" end="arrowLeft.mouseout"/>
                  </use>
                  <path fill="none" stroke="white" stroke-width="1.5" d="M0,-3.0v7 M-2.5,-0.5L0,-3.0L2.5,-0.5"/>
                </g>
        </g>
</svg>
