<?xml version="1.0" encoding="UTF-8" standalone="no"?>
<!DOCTYPE svg PUBLIC "-//W3C//DTD SVG 1.1//EN"
 "http://www.w3.org/Graphics/SVG/1.1/DTD/svg11.dtd">
<!-- Generated by graphviz version 2.26.3 (20100126.1600)
 -->
<!-- Title: G Pages: 1 -->
<svg width="340pt" height="70pt"
 viewBox="0.00 0.00 340.00 70.00" xmlns="http://www.w3.org/2000/svg" xmlns:xlink="http://www.w3.org/1999/xlink">
<g id="graph1" class="graph" transform="scale(1 1) rotate(0) translate(4 66)">
<title>G</title>
<polygon fill="white" stroke="white" points="-4,5 -4,-66 337,-66 337,5 -4,5"/>
<!-- Node1 -->
<g id="node1" class="node"><title>Node1</title>
<polygon fill="#bfbfbf" stroke="black" points="0.5,-20.5 0.5,-41.5 167.5,-41.5 167.5,-20.5 0.5,-20.5"/>
<text text-anchor="middle" x="84" y="-28.5" font-family="Helvetica,sans-Serif" font-size="10.00">nsXPTType::deprecated_IsPointer</text>
</g>
<!-- Node2 -->
<g id="node3" class="node"><title>Node2</title>
<a xlink:href="../../df/db3/classns_x_p_t_type.html#ad9cdb9633c8bd9fd4a7443e96730a452" target="_top" xlink:title="nsXPTType::IsArithmetic">
<polygon fill="white" stroke="black" points="204.5,-40.5 204.5,-61.5 331.5,-61.5 331.5,-40.5 204.5,-40.5"/>
<text text-anchor="middle" x="268" y="-48.5" font-family="Helvetica,sans-Serif" font-size="10.00">nsXPTType::IsArithmetic</text>
</a>
</g>
<!-- Node1&#45;&gt;Node2 -->
<g id="edge2" class="edge"><title>Node1&#45;&gt;Node2</title>
<path fill="none" stroke="midnightblue" d="M167.655,-40.0929C176.525,-41.0571 185.5,-42.0326 194.245,-42.9832"/>
<polygon fill="midnightblue" stroke="midnightblue" points="194.067,-46.4843 204.387,-44.0855 194.824,-39.5253 194.067,-46.4843"/>
</g>
<!-- Node3 -->
<g id="node5" class="node"><title>Node3</title>
<a xlink:href="../../df/db3/classns_x_p_t_type.html#a553188d4a255567230fd22cd0931e746" target="_top" xlink:title="nsXPTType::TagPart">
<polygon fill="white" stroke="black" points="213.5,-0.5 213.5,-21.5 322.5,-21.5 322.5,-0.5 213.5,-0.5"/>
<text text-anchor="middle" x="268" y="-8.5" font-family="Helvetica,sans-Serif" font-size="10.00">nsXPTType::TagPart</text>
</a>
</g>
<!-- Node1&#45;&gt;Node3 -->
<g id="edge4" class="edge"><title>Node1&#45;&gt;Node3</title>
<path fill="none" stroke="midnightblue" d="M167.655,-21.9071C179.623,-20.6062 191.781,-19.2846 203.311,-18.0315"/>
<polygon fill="midnightblue" stroke="midnightblue" points="203.696,-21.5102 213.26,-16.95 202.94,-14.5512 203.696,-21.5102"/>
</g>
</g>
</svg>
