<?xml version="1.0" encoding="UTF-8" standalone="no"?>
<!DOCTYPE svg PUBLIC "-//W3C//DTD SVG 1.1//EN"
 "http://www.w3.org/Graphics/SVG/1.1/DTD/svg11.dtd">
<!-- Generated by graphviz version 2.26.3 (20100126.1600)
 -->
<!-- Title: G Pages: 1 -->
<!--zoomable 146 -->
<svg id="main" version="1.1" xmlns="http://www.w3.org/2000/svg" xmlns:xlink="http://www.w3.org/1999/xlink" xml:space="preserve" onload="init(evt)">
        <defs>
                <circle id="rim" cx="0" cy="0" r="7"/>
                <circle id="rim2" cx="0" cy="0" r="3.5"/>
                <g id="zoomPlus">
                        <use xlink:href="#rim" fill="#404040">
                                <set attributeName="fill" to="#808080" begin="zoomplus.mouseover" end="zoomplus.mouseout"/>
                        </use>
                        <path d="M-4,0h8M0,-4v8" fill="none" stroke="white" stroke-width="1.5" pointer-events="none"/>
                </g>
                <g id="zoomMin">
                        <use xlink:href="#rim" fill="#404040">
                                <set attributeName="fill" to="#808080" begin="zoomminus.mouseover" end="zoomminus.mouseout"/>
                        </use>
                        <path d="M-4,0h8" fill="none" stroke="white" stroke-width="1.5" pointer-events="none"/>
                </g>
                <g id="dirArrow">
                        <path fill="none" stroke="white" stroke-width="1.5" d="M0,-3.0v7 M-2.5,-0.5L0,-3.0L2.5,-0.5"/>
                </g>
               <g id="resetDef">
                       <use xlink:href="#rim2" fill="#404040">
                               <set attributeName="fill" to="#808080" begin="reset.mouseover" end="reset.mouseout"/>
                       </use>
               </g>
        </defs>

<script type="text/javascript">
var viewWidth = 859;
var viewHeight = 146;
var sectionId = 'dynsection-1';
</script>
<script xlink:href="../../svgpan.js"/>
<svg id="graph" class="graph">
<g id="viewport">
<title>G</title>
<polygon fill="white" stroke="white" points="-4,5 -4,-142 856,-142 856,5 -4,5"/>
<!-- Node1 -->
<g id="node1" class="node"><title>Node1</title>
<polygon fill="#bfbfbf" stroke="black" points="207,-116.5 207,-137.5 563,-137.5 563,-116.5 207,-116.5"/>
<text text-anchor="middle" x="385" y="-124.5" font-family="Helvetica,sans-Serif" font-size="10.00">/home/aoi/Documents/FxOS/B2G/gaia/xulrunner&#45;sdk/include/DeviceStorage.h</text>
</g>
<!-- Node2 -->
<g id="node3" class="node"><title>Node2</title>
<a xlink:href="../../db/d45/_gonk_camera_control_8h.html" target="_top" xlink:title="/home/aoi/Documents/FxOS/B2G/gaia/xulrunner&#45;sdk/include/GonkCameraControl.h">
<polygon fill="white" stroke="black" points="0,-58.5 0,-79.5 380,-79.5 380,-58.5 0,-58.5"/>
<text text-anchor="middle" x="190" y="-66.5" font-family="Helvetica,sans-Serif" font-size="10.00">/home/aoi/Documents/FxOS/B2G/gaia/xulrunner&#45;sdk/include/GonkCameraControl.h</text>
</a>
</g>
<!-- Node1&#45;&gt;Node2 -->
<g id="edge2" class="edge"><title>Node1&#45;&gt;Node2</title>
<path fill="none" stroke="midnightblue" d="M339.768,-113.546C304.935,-103.186 257.466,-89.0668 225.379,-79.5231"/>
<polygon fill="midnightblue" stroke="midnightblue" points="339.104,-117 349.687,-116.497 341.1,-110.291 339.104,-117"/>
</g>
<!-- Node3 -->
<g id="node5" class="node"><title>Node3</title>
<a xlink:href="../../d3/def/ns_device_storage_8h.html" target="_top" xlink:title="/home/aoi/Documents/FxOS/B2G/gaia/xulrunner&#45;sdk/include/nsDeviceStorage.h">
<polygon fill="white" stroke="black" points="398,-58.5 398,-79.5 764,-79.5 764,-58.5 398,-58.5"/>
<text text-anchor="middle" x="581" y="-66.5" font-family="Helvetica,sans-Serif" font-size="10.00">/home/aoi/Documents/FxOS/B2G/gaia/xulrunner&#45;sdk/include/nsDeviceStorage.h</text>
</a>
</g>
<!-- Node1&#45;&gt;Node3 -->
<g id="edge4" class="edge"><title>Node1&#45;&gt;Node3</title>
<path fill="none" stroke="midnightblue" d="M430.464,-113.546C465.476,-103.186 513.188,-89.0668 545.439,-79.5231"/>
<polygon fill="midnightblue" stroke="midnightblue" points="429.09,-110.303 420.494,-116.497 431.076,-117.015 429.09,-110.303"/>
</g>
<!-- Node4 -->
<g id="node7" class="node"><title>Node4</title>
<a xlink:href="../../dd/dda/_device_storage_request_parent_8h.html" target="_top" xlink:title="/home/aoi/Documents/FxOS/B2G/gaia/xulrunner&#45;sdk/include/mozilla/dom/devicestorage/DeviceStorageRequestParent.h">
<polygon fill="white" stroke="black" points="311,-0.5 311,-21.5 851,-21.5 851,-0.5 311,-0.5"/>
<text text-anchor="middle" x="581" y="-8.5" font-family="Helvetica,sans-Serif" font-size="10.00">/home/aoi/Documents/FxOS/B2G/gaia/xulrunner&#45;sdk/include/mozilla/dom/devicestorage/DeviceStorageRequestParent.h</text>
</a>
</g>
<!-- Node3&#45;&gt;Node4 -->
<g id="edge6" class="edge"><title>Node3&#45;&gt;Node4</title>
<path fill="none" stroke="midnightblue" d="M581,-48.1906C581,-39.1684 581,-28.9941 581,-21.5707"/>
<polygon fill="midnightblue" stroke="midnightblue" points="577.5,-48.3619 581,-58.3619 584.5,-48.3619 577.5,-48.3619"/>
</g>
</g>
</svg>
        <g id="navigator" transform="translate(0 0)" fill="#404254">
                <rect fill="#f2f5e9" fill-opacity="0.5" stroke="#606060" stroke-width=".5" x="0" y="0" width="60" height="60"/>
                <use id="zoomplus" xlink:href="#zoomPlus" x="17" y="9" onmousedown="handleZoom(evt,'in')"/>
                <use id="zoomminus" xlink:href="#zoomMin" x="42" y="9" onmousedown="handleZoom(evt,'out')"/>
                <use id="reset" xlink:href="#resetDef" x="30" y="36" onmousedown="handleReset()"/>
                <g id="arrowUp" xlink:href="#dirArrow" transform="translate(30 24)" onmousedown="handlePan(0,-1)">
                  <use xlink:href="#rim" fill="#404040">
                        <set attributeName="fill" to="#808080" begin="arrowUp.mouseover" end="arrowUp.mouseout"/>
                  </use>
                  <path fill="none" stroke="white" stroke-width="1.5" d="M0,-3.0v7 M-2.5,-0.5L0,-3.0L2.5,-0.5"/>
                </g>
                <g id="arrowRight" xlink:href="#dirArrow" transform="rotate(90) translate(36 -43)" onmousedown="handlePan(1,0)">
                  <use xlink:href="#rim" fill="#404040">
                        <set attributeName="fill" to="#808080" begin="arrowRight.mouseover" end="arrowRight.mouseout"/>
                  </use>
                  <path fill="none" stroke="white" stroke-width="1.5" d="M0,-3.0v7 M-2.5,-0.5L0,-3.0L2.5,-0.5"/>
                </g>
                <g id="arrowDown" xlink:href="#dirArrow" transform="rotate(180) translate(-30 -48)" onmousedown="handlePan(0,1)">
                  <use xlink:href="#rim" fill="#404040">
                        <set attributeName="fill" to="#808080" begin="arrowDown.mouseover" end="arrowDown.mouseout"/>
                  </use>
                  <path fill="none" stroke="white" stroke-width="1.5" d="M0,-3.0v7 M-2.5,-0.5L0,-3.0L2.5,-0.5"/>
                </g>
                <g id="arrowLeft" xlink:href="#dirArrow" transform="rotate(270) translate(-36 17)" onmousedown="handlePan(-1,0)">
                  <use xlink:href="#rim" fill="#404040">
                        <set attributeName="fill" to="#808080" begin="arrowLeft.mouseover" end="arrowLeft.mouseout"/>
                  </use>
                  <path fill="none" stroke="white" stroke-width="1.5" d="M0,-3.0v7 M-2.5,-0.5L0,-3.0L2.5,-0.5"/>
                </g>
        </g>
</svg>
