<?xml version="1.0" encoding="UTF-8" standalone="no"?>
<!DOCTYPE svg PUBLIC "-//W3C//DTD SVG 1.1//EN"
 "http://www.w3.org/Graphics/SVG/1.1/DTD/svg11.dtd">
<!-- Generated by graphviz version 2.26.3 (20100126.1600)
 -->
<!-- Title: G Pages: 1 -->
<!--zoomable 346 -->
<svg id="main" version="1.1" xmlns="http://www.w3.org/2000/svg" xmlns:xlink="http://www.w3.org/1999/xlink" xml:space="preserve" onload="init(evt)">
        <defs>
                <circle id="rim" cx="0" cy="0" r="7"/>
                <circle id="rim2" cx="0" cy="0" r="3.5"/>
                <g id="zoomPlus">
                        <use xlink:href="#rim" fill="#404040">
                                <set attributeName="fill" to="#808080" begin="zoomplus.mouseover" end="zoomplus.mouseout"/>
                        </use>
                        <path d="M-4,0h8M0,-4v8" fill="none" stroke="white" stroke-width="1.5" pointer-events="none"/>
                </g>
                <g id="zoomMin">
                        <use xlink:href="#rim" fill="#404040">
                                <set attributeName="fill" to="#808080" begin="zoomminus.mouseover" end="zoomminus.mouseout"/>
                        </use>
                        <path d="M-4,0h8" fill="none" stroke="white" stroke-width="1.5" pointer-events="none"/>
                </g>
                <g id="dirArrow">
                        <path fill="none" stroke="white" stroke-width="1.5" d="M0,-3.0v7 M-2.5,-0.5L0,-3.0L2.5,-0.5"/>
                </g>
               <g id="resetDef">
                       <use xlink:href="#rim2" fill="#404040">
                               <set attributeName="fill" to="#808080" begin="reset.mouseover" end="reset.mouseout"/>
                       </use>
               </g>
        </defs>

<script type="text/javascript">
var viewWidth = 1576;
var viewHeight = 346;
var sectionId = 'dynsection-100';
</script>
<script xlink:href="../../svgpan.js"/>
<svg id="graph" class="graph">
<g id="viewport">
<title>G</title>
<polygon fill="white" stroke="white" points="-4,5 -4,-342 1573,-342 1573,5 -4,5"/>
<!-- Node1 -->
<g id="node1" class="node"><title>Node1</title>
<polygon fill="#bfbfbf" stroke="black" points="0,-138.5 0,-159.5 182,-159.5 182,-138.5 0,-138.5"/>
<text text-anchor="middle" x="91" y="-146.5" font-family="Helvetica,sans-Serif" font-size="10.00">mozilla::dom::WrapNewBindingObject</text>
</g>
<!-- Node2 -->
<g id="node3" class="node"><title>Node2</title>
<a xlink:href="../../d8/dff/structmozilla_1_1dom_1_1_wrap_new_binding_object_helper.html#a7d5c32c7f6f1cfcd8a5137d246573f08" target="_top" xlink:title="mozilla::dom::WrapNewBindingObjectHelper::Wrap">
<polygon fill="white" stroke="black" points="218,-138.5 218,-159.5 458,-159.5 458,-138.5 218,-138.5"/>
<text text-anchor="middle" x="338" y="-146.5" font-family="Helvetica,sans-Serif" font-size="10.00">mozilla::dom::WrapNewBindingObjectHelper::Wrap</text>
</a>
</g>
<!-- Node1&#45;&gt;Node2 -->
<g id="edge2" class="edge"><title>Node1&#45;&gt;Node2</title>
<path fill="none" stroke="midnightblue" d="M182.272,-149C190.569,-149 199.075,-149 207.624,-149"/>
<polygon fill="midnightblue" stroke="midnightblue" points="207.671,-152.5 217.671,-149 207.671,-145.5 207.671,-152.5"/>
</g>
<!-- Node3 -->
<g id="node5" class="node"><title>Node3</title>
<a xlink:href="../../d7/d4b/namespacemozilla_1_1dom.html#a543e7e6c27eb90731ab4c4d62bba4375" target="_top" xlink:title="mozilla::dom::WrapNewBindingObject">
<polygon fill="white" stroke="black" points="494,-158.5 494,-179.5 676,-179.5 676,-158.5 494,-158.5"/>
<text text-anchor="middle" x="585" y="-166.5" font-family="Helvetica,sans-Serif" font-size="10.00">mozilla::dom::WrapNewBindingObject</text>
</a>
</g>
<!-- Node2&#45;&gt;Node3 -->
<g id="edge4" class="edge"><title>Node2&#45;&gt;Node3</title>
<path fill="none" stroke="midnightblue" d="M458.244,-158.736C466.792,-159.428 475.361,-160.122 483.786,-160.805"/>
<polygon fill="midnightblue" stroke="midnightblue" points="483.732,-164.311 493.981,-161.63 484.297,-157.334 483.732,-164.311"/>
</g>
<!-- Node23 -->
<g id="node48" class="node"><title>Node23</title>
<a xlink:href="../../df/dfb/class_j_s_1_1_handle.html#a191fd3f89675b0917e12f831b4ad6697" target="_top" xlink:title="JS::Handle::get">
<polygon fill="white" stroke="black" points="542.5,-118.5 542.5,-139.5 627.5,-139.5 627.5,-118.5 542.5,-118.5"/>
<text text-anchor="middle" x="585" y="-126.5" font-family="Helvetica,sans-Serif" font-size="10.00">JS::Handle::get</text>
</a>
</g>
<!-- Node2&#45;&gt;Node23 -->
<g id="edge50" class="edge"><title>Node2&#45;&gt;Node23</title>
<path fill="none" stroke="midnightblue" d="M458.244,-139.264C484.299,-137.154 510.547,-135.029 532.346,-133.264"/>
<polygon fill="midnightblue" stroke="midnightblue" points="532.664,-136.749 542.349,-132.454 532.099,-129.772 532.664,-136.749"/>
</g>
<!-- Node4 -->
<g id="node7" class="node"><title>Node4</title>
<a xlink:href="../../d1/d2f/class_j_s_1_1_mutable_handle.html#a29f3c5d66a464e63edf39d6a33cf1485" target="_top" xlink:title="JS::MutableHandle::address">
<polygon fill="white" stroke="black" points="728,-278.5 728,-299.5 868,-299.5 868,-278.5 728,-278.5"/>
<text text-anchor="middle" x="798" y="-286.5" font-family="Helvetica,sans-Serif" font-size="10.00">JS::MutableHandle::address</text>
</a>
</g>
<!-- Node3&#45;&gt;Node4 -->
<g id="edge6" class="edge"><title>Node3&#45;&gt;Node4</title>
<path fill="none" stroke="midnightblue" d="M595.104,-179.608C615.295,-200.155 662.924,-245.429 712,-269 716.923,-271.364 722.141,-273.458 727.476,-275.31"/>
<polygon fill="midnightblue" stroke="midnightblue" points="726.579,-278.698 737.17,-278.391 728.699,-272.026 726.579,-278.698"/>
</g>
<!-- Node5 -->
<g id="node9" class="node"><title>Node5</title>
<a xlink:href="../../d7/d4b/namespacemozilla_1_1dom.html#a89a97772cc9444dd202dbb0f3659dfac" target="_top" xlink:title="mozilla::dom::CouldBeDOMBinding">
<polygon fill="white" stroke="black" points="712.5,-238.5 712.5,-259.5 883.5,-259.5 883.5,-238.5 712.5,-238.5"/>
<text text-anchor="middle" x="798" y="-246.5" font-family="Helvetica,sans-Serif" font-size="10.00">mozilla::dom::CouldBeDOMBinding</text>
</a>
</g>
<!-- Node3&#45;&gt;Node5 -->
<g id="edge8" class="edge"><title>Node3&#45;&gt;Node5</title>
<path fill="none" stroke="midnightblue" d="M604.253,-179.687C628.675,-192.868 672.388,-215.213 712,-229 719.329,-231.551 727.123,-233.875 734.91,-235.962"/>
<polygon fill="midnightblue" stroke="midnightblue" points="734.18,-239.388 744.736,-238.479 735.917,-232.607 734.18,-239.388"/>
</g>
<!-- Node6 -->
<g id="node11" class="node"><title>Node6</title>
<a xlink:href="../../db/da2/namespacejs.html#aebfb66aa1ca98ea2eae1c562f677594f" target="_top" xlink:title="js::GetContextCompartment">
<polygon fill="white" stroke="black" points="728,-198.5 728,-219.5 868,-219.5 868,-198.5 728,-198.5"/>
<text text-anchor="middle" x="798" y="-206.5" font-family="Helvetica,sans-Serif" font-size="10.00">js::GetContextCompartment</text>
</a>
</g>
<!-- Node3&#45;&gt;Node6 -->
<g id="edge10" class="edge"><title>Node3&#45;&gt;Node6</title>
<path fill="none" stroke="midnightblue" d="M640.963,-179.51C668.859,-184.748 702.776,-191.118 731.941,-196.595"/>
<polygon fill="midnightblue" stroke="midnightblue" points="731.567,-200.085 742.041,-198.491 732.859,-193.206 731.567,-200.085"/>
</g>
<!-- Node8 -->
<g id="node15" class="node"><title>Node8</title>
<a xlink:href="../../d7/d4b/namespacemozilla_1_1dom.html#a6b9ad35de88126a4f81645308b85202b" target="_top" xlink:title="mozilla::dom::GetDOMClass">
<polygon fill="white" stroke="black" points="726.5,-158.5 726.5,-179.5 869.5,-179.5 869.5,-158.5 726.5,-158.5"/>
<text text-anchor="middle" x="798" y="-166.5" font-family="Helvetica,sans-Serif" font-size="10.00">mozilla::dom::GetDOMClass</text>
</a>
</g>
<!-- Node3&#45;&gt;Node8 -->
<g id="edge14" class="edge"><title>Node3&#45;&gt;Node8</title>
<path fill="none" stroke="midnightblue" d="M676.258,-169C689.444,-169 702.949,-169 715.94,-169"/>
<polygon fill="midnightblue" stroke="midnightblue" points="716.234,-172.5 726.234,-169 716.234,-165.5 716.234,-172.5"/>
</g>
<!-- Node20 -->
<g id="node42" class="node"><title>Node20</title>
<a xlink:href="../../db/da2/namespacejs.html#ac230d874415f87793cba2fe49db107b9" target="_top" xlink:title="js::IsObjectInContextCompartment">
<polygon fill="white" stroke="black" points="713.5,-118.5 713.5,-139.5 882.5,-139.5 882.5,-118.5 713.5,-118.5"/>
<text text-anchor="middle" x="798" y="-126.5" font-family="Helvetica,sans-Serif" font-size="10.00">js::IsObjectInContextCompartment</text>
</a>
</g>
<!-- Node3&#45;&gt;Node20 -->
<g id="edge44" class="edge"><title>Node3&#45;&gt;Node20</title>
<path fill="none" stroke="midnightblue" d="M640.963,-158.49C668.859,-153.252 702.776,-146.882 731.941,-141.405"/>
<polygon fill="midnightblue" stroke="midnightblue" points="732.859,-144.794 742.041,-139.509 731.567,-137.915 732.859,-144.794"/>
</g>
<!-- Node21 -->
<g id="node44" class="node"><title>Node21</title>
<a xlink:href="../../d1/d2f/class_j_s_1_1_mutable_handle.html#a62abdee2e1a2def647c6e0de3c0fb717" target="_top" xlink:title="JS::MutableHandle::set">
<polygon fill="white" stroke="black" points="738.5,-78.5 738.5,-99.5 857.5,-99.5 857.5,-78.5 738.5,-78.5"/>
<text text-anchor="middle" x="798" y="-86.5" font-family="Helvetica,sans-Serif" font-size="10.00">JS::MutableHandle::set</text>
</a>
</g>
<!-- Node3&#45;&gt;Node21 -->
<g id="edge46" class="edge"><title>Node3&#45;&gt;Node21</title>
<path fill="none" stroke="midnightblue" d="M654.786,-158.423C662.204,-155.919 669.43,-152.825 676,-149 696.67,-136.968 691.403,-121.158 712,-109 717.159,-105.955 722.746,-103.374 728.512,-101.185"/>
<polygon fill="midnightblue" stroke="midnightblue" points="729.987,-104.381 738.338,-97.8609 727.744,-97.7501 729.987,-104.381"/>
</g>
<!-- Node22 -->
<g id="node46" class="node"><title>Node22</title>
<a xlink:href="../../dd/d29/xpcpublic_8h.html#a3524b52485d0cff7865b8db3b66b1bb2" target="_top" xlink:title="xpc_UnmarkNonNullGrayObject">
<polygon fill="white" stroke="black" points="719.5,-38.5 719.5,-59.5 876.5,-59.5 876.5,-38.5 719.5,-38.5"/>
<text text-anchor="middle" x="798" y="-46.5" font-family="Helvetica,sans-Serif" font-size="10.00">xpc_UnmarkNonNullGrayObject</text>
</a>
</g>
<!-- Node3&#45;&gt;Node22 -->
<g id="edge48" class="edge"><title>Node3&#45;&gt;Node22</title>
<path fill="none" stroke="midnightblue" d="M660.647,-158.417C666.151,-155.874 671.354,-152.773 676,-149 706.265,-124.419 681.885,-93.7648 712,-69 714.02,-67.3387 716.153,-65.8101 718.375,-64.4037"/>
<polygon fill="midnightblue" stroke="midnightblue" points="720.199,-67.3965 727.333,-59.5638 716.871,-61.2378 720.199,-67.3965"/>
</g>
<!-- Node7 -->
<g id="node13" class="node"><title>Node7</title>
<a xlink:href="../../d4/d00/tools_2xpcwindow_2lib_2modules_2debug_8js.html#a18697261a961b9d0efde405b5a2b244f" target="_top" xlink:title="get">
<polygon fill="white" stroke="black" points="1008,-316.5 1008,-337.5 1038,-337.5 1038,-316.5 1008,-316.5"/>
<text text-anchor="middle" x="1023" y="-324.5" font-family="Helvetica,sans-Serif" font-size="10.00">get</text>
</a>
</g>
<!-- Node6&#45;&gt;Node7 -->
<g id="edge12" class="edge"><title>Node6&#45;&gt;Node7</title>
<path fill="none" stroke="midnightblue" d="M868.203,-219.418C873.877,-221.978 879.246,-225.128 884,-229 913.606,-253.11 889.957,-283.437 920,-307 942.172,-324.389 975.156,-328.066 997.791,-328.253"/>
<polygon fill="midnightblue" stroke="midnightblue" points="998.029,-331.75 1007.98,-328.109 997.93,-324.75 998.029,-331.75"/>
</g>
<!-- Node9 -->
<g id="node17" class="node"><title>Node9</title>
<a xlink:href="../../d0/d2c/structmozilla_1_1dom_1_1_d_o_m_j_s_class.html#a7d7ffa356764e1e919cee57254968cab" target="_top" xlink:title="mozilla::dom::DOMJSClass::FromJSClass">
<polygon fill="white" stroke="black" points="920.5,-276.5 920.5,-297.5 1125.5,-297.5 1125.5,-276.5 920.5,-276.5"/>
<text text-anchor="middle" x="1023" y="-284.5" font-family="Helvetica,sans-Serif" font-size="10.00">mozilla::dom::DOMJSClass::FromJSClass</text>
</a>
</g>
<!-- Node8&#45;&gt;Node9 -->
<g id="edge16" class="edge"><title>Node8&#45;&gt;Node9</title>
<path fill="none" stroke="midnightblue" d="M868.097,-179.55C873.794,-182.082 879.196,-185.19 884,-189 912.342,-211.48 891.766,-239.384 920,-262 925.089,-266.077 930.743,-269.504 936.708,-272.383"/>
<polygon fill="midnightblue" stroke="midnightblue" points="935.729,-275.771 946.301,-276.472 938.474,-269.331 935.729,-275.771"/>
</g>
<!-- Node10 -->
<g id="node19" class="node"><title>Node10</title>
<a xlink:href="../../db/da2/namespacejs.html#aca7ef07fd5e632405949331c6929f1e6" target="_top" xlink:title="js::GetObjectClass">
<polygon fill="white" stroke="black" points="1304,-198.5 1304,-219.5 1404,-219.5 1404,-198.5 1304,-198.5"/>
<text text-anchor="middle" x="1354" y="-206.5" font-family="Helvetica,sans-Serif" font-size="10.00">js::GetObjectClass</text>
</a>
</g>
<!-- Node8&#45;&gt;Node10 -->
<g id="edge18" class="edge"><title>Node8&#45;&gt;Node10</title>
<path fill="none" stroke="midnightblue" d="M846.262,-179.541C915.672,-194.11 1047.9,-219.659 1162,-229 1208.95,-232.844 1221.2,-234.371 1268,-229 1280.86,-227.525 1294.59,-224.847 1307.22,-221.921"/>
<polygon fill="midnightblue" stroke="midnightblue" points="1308.18,-225.29 1317.07,-219.539 1306.53,-218.486 1308.18,-225.29"/>
</g>
<!-- Node11 -->
<g id="node21" class="node"><title>Node11</title>
<a xlink:href="../../db/da2/namespacejs.html#afc902f82c906b6e3b871e899defc28cd" target="_top" xlink:title="js::GetProxyHandler">
<polygon fill="white" stroke="black" points="970.5,-158.5 970.5,-179.5 1075.5,-179.5 1075.5,-158.5 970.5,-158.5"/>
<text text-anchor="middle" x="1023" y="-166.5" font-family="Helvetica,sans-Serif" font-size="10.00">js::GetProxyHandler</text>
</a>
</g>
<!-- Node8&#45;&gt;Node11 -->
<g id="edge20" class="edge"><title>Node8&#45;&gt;Node11</title>
<path fill="none" stroke="midnightblue" d="M869.501,-169C898.61,-169 931.962,-169 960.125,-169"/>
<polygon fill="midnightblue" stroke="midnightblue" points="960.249,-172.5 970.249,-169 960.249,-165.5 960.249,-172.5"/>
</g>
<!-- Node14 -->
<g id="node29" class="node"><title>Node14</title>
<a xlink:href="../../db/da2/namespacejs.html#ad965faa46bc843dcc541de166befa797" target="_top" xlink:title="js::IsProxyClass">
<polygon fill="white" stroke="black" points="1309.5,-119.5 1309.5,-140.5 1398.5,-140.5 1398.5,-119.5 1309.5,-119.5"/>
<text text-anchor="middle" x="1354" y="-127.5" font-family="Helvetica,sans-Serif" font-size="10.00">js::IsProxyClass</text>
</a>
</g>
<!-- Node8&#45;&gt;Node14 -->
<g id="edge40" class="edge"><title>Node8&#45;&gt;Node14</title>
<path fill="none" stroke="midnightblue" d="M846.262,-158.459C915.672,-143.89 1047.9,-118.341 1162,-109 1208.95,-105.156 1221.23,-103.372 1268,-109 1281.62,-110.639 1296.19,-113.687 1309.4,-116.963"/>
<polygon fill="midnightblue" stroke="midnightblue" points="1308.64,-120.382 1319.2,-119.493 1310.39,-113.604 1308.64,-120.382"/>
</g>
<!-- Node18 -->
<g id="node37" class="node"><title>Node18</title>
<a xlink:href="../../d7/d4b/namespacemozilla_1_1dom.html#a06998ddfcba66111a31e1c067d5bf166" target="_top" xlink:title="mozilla::dom::IsDOMClass">
<polygon fill="white" stroke="black" points="955.5,-40.5 955.5,-61.5 1090.5,-61.5 1090.5,-40.5 955.5,-40.5"/>
<text text-anchor="middle" x="1023" y="-48.5" font-family="Helvetica,sans-Serif" font-size="10.00">mozilla::dom::IsDOMClass</text>
</a>
</g>
<!-- Node8&#45;&gt;Node18 -->
<g id="edge38" class="edge"><title>Node8&#45;&gt;Node18</title>
<path fill="none" stroke="midnightblue" d="M868.097,-158.45C873.794,-155.918 879.196,-152.81 884,-149 912.342,-126.52 891.766,-98.6164 920,-76 927.568,-69.9378 936.384,-65.312 945.615,-61.7882"/>
<polygon fill="midnightblue" stroke="midnightblue" points="946.994,-65.0166 955.349,-58.5009 944.754,-58.3846 946.994,-65.0166"/>
</g>
<!-- Node19 -->
<g id="node40" class="node"><title>Node19</title>
<a xlink:href="../../d7/d4b/namespacemozilla_1_1dom.html#a6195201dc864c6aa8d7f6d5262d324e9" target="_top" xlink:title="mozilla::dom::ProxyFamily">
<polygon fill="white" stroke="black" points="956.5,-0.5 956.5,-21.5 1089.5,-21.5 1089.5,-0.5 956.5,-0.5"/>
<text text-anchor="middle" x="1023" y="-8.5" font-family="Helvetica,sans-Serif" font-size="10.00">mozilla::dom::ProxyFamily</text>
</a>
</g>
<!-- Node8&#45;&gt;Node19 -->
<g id="edge42" class="edge"><title>Node8&#45;&gt;Node19</title>
<path fill="none" stroke="midnightblue" d="M869.619,-158.844C874.857,-156.215 879.744,-152.977 884,-149 924.06,-111.561 879.26,-67.697 920,-31 927.563,-24.188 936.731,-19.3968 946.443,-16.0689"/>
<polygon fill="midnightblue" stroke="midnightblue" points="947.67,-19.3573 956.298,-13.208 945.718,-12.6348 947.67,-19.3573"/>
</g>
<!-- Node12 -->
<g id="node23" class="node"><title>Node12</title>
<a xlink:href="../../db/da2/namespacejs.html#ad81f7c892e54c34c67a930983b58c1b0" target="_top" xlink:title="js::GetReservedSlot">
<polygon fill="white" stroke="black" points="1162.5,-198.5 1162.5,-219.5 1267.5,-219.5 1267.5,-198.5 1162.5,-198.5"/>
<text text-anchor="middle" x="1215" y="-206.5" font-family="Helvetica,sans-Serif" font-size="10.00">js::GetReservedSlot</text>
</a>
</g>
<!-- Node11&#45;&gt;Node12 -->
<g id="edge22" class="edge"><title>Node11&#45;&gt;Node12</title>
<path fill="none" stroke="midnightblue" d="M1073.45,-179.51C1098.37,-184.702 1128.63,-191.006 1154.76,-196.451"/>
<polygon fill="midnightblue" stroke="midnightblue" points="1154.05,-199.878 1164.56,-198.491 1155.48,-193.025 1154.05,-199.878"/>
</g>
<!-- Node13 -->
<g id="node26" class="node"><title>Node13</title>
<a xlink:href="../../db/da2/namespacejs.html#a5f2e5200310c72e68bb180fd6db2bf68" target="_top" xlink:title="js::IsProxy">
<polygon fill="white" stroke="black" points="1183,-158.5 1183,-179.5 1247,-179.5 1247,-158.5 1183,-158.5"/>
<text text-anchor="middle" x="1215" y="-166.5" font-family="Helvetica,sans-Serif" font-size="10.00">js::IsProxy</text>
</a>
</g>
<!-- Node11&#45;&gt;Node13 -->
<g id="edge26" class="edge"><title>Node11&#45;&gt;Node13</title>
<path fill="none" stroke="midnightblue" d="M1075.72,-169C1106.27,-169 1144.22,-169 1172.79,-169"/>
<polygon fill="midnightblue" stroke="midnightblue" points="1172.85,-172.5 1182.85,-169 1172.85,-165.5 1172.85,-172.5"/>
</g>
<!-- Node17 -->
<g id="node35" class="node"><title>Node17</title>
<a xlink:href="../../d1/d94/class_j_s_1_1_value.html#acb6cff159be405ffc5f5f64fa39a04db" target="_top" xlink:title="JS::Value::toPrivate">
<polygon fill="white" stroke="black" points="1163,-118.5 1163,-139.5 1267,-139.5 1267,-118.5 1163,-118.5"/>
<text text-anchor="middle" x="1215" y="-126.5" font-family="Helvetica,sans-Serif" font-size="10.00">JS::Value::toPrivate</text>
</a>
</g>
<!-- Node11&#45;&gt;Node17 -->
<g id="edge36" class="edge"><title>Node11&#45;&gt;Node17</title>
<path fill="none" stroke="midnightblue" d="M1073.45,-158.49C1098.37,-153.298 1128.63,-146.994 1154.76,-141.549"/>
<polygon fill="midnightblue" stroke="midnightblue" points="1155.48,-144.975 1164.56,-139.509 1154.05,-138.122 1155.48,-144.975"/>
</g>
<!-- Node12&#45;&gt;Node10 -->
<g id="edge24" class="edge"><title>Node12&#45;&gt;Node10</title>
<path fill="none" stroke="midnightblue" d="M1267.55,-209C1276.06,-209 1284.93,-209 1293.61,-209"/>
<polygon fill="midnightblue" stroke="midnightblue" points="1293.67,-212.5 1303.67,-209 1293.67,-205.5 1293.67,-212.5"/>
</g>
<!-- Node13&#45;&gt;Node10 -->
<g id="edge28" class="edge"><title>Node13&#45;&gt;Node10</title>
<path fill="none" stroke="midnightblue" d="M1247.24,-178.277C1265.15,-183.43 1287.74,-189.932 1307.52,-195.625"/>
<polygon fill="midnightblue" stroke="midnightblue" points="1306.7,-199.03 1317.27,-198.432 1308.63,-192.303 1306.7,-199.03"/>
</g>
<!-- Node13&#45;&gt;Node14 -->
<g id="edge30" class="edge"><title>Node13&#45;&gt;Node14</title>
<path fill="none" stroke="midnightblue" d="M1247.24,-159.955C1264.94,-154.988 1287.22,-148.737 1306.84,-143.232"/>
<polygon fill="midnightblue" stroke="midnightblue" points="1307.84,-146.587 1316.52,-140.515 1305.95,-139.847 1307.84,-146.587"/>
</g>
<!-- Node15 -->
<g id="node31" class="node"><title>Node15</title>
<a xlink:href="../../db/da2/namespacejs.html#ab7c4efa33dd1db699ed6960c8df32769" target="_top" xlink:title="js::IsFunctionProxyClass">
<polygon fill="white" stroke="black" points="1440.5,-139.5 1440.5,-160.5 1567.5,-160.5 1567.5,-139.5 1440.5,-139.5"/>
<text text-anchor="middle" x="1504" y="-147.5" font-family="Helvetica,sans-Serif" font-size="10.00">js::IsFunctionProxyClass</text>
</a>
</g>
<!-- Node14&#45;&gt;Node15 -->
<g id="edge32" class="edge"><title>Node14&#45;&gt;Node15</title>
<path fill="none" stroke="midnightblue" d="M1398.6,-135.947C1408.65,-137.287 1419.58,-138.743 1430.46,-140.195"/>
<polygon fill="midnightblue" stroke="midnightblue" points="1430.05,-143.67 1440.42,-141.523 1430.97,-136.732 1430.05,-143.67"/>
</g>
<!-- Node16 -->
<g id="node33" class="node"><title>Node16</title>
<a xlink:href="../../db/da2/namespacejs.html#aff283fd270a0f844f81537eea2e88666" target="_top" xlink:title="js::IsObjectProxyClass">
<polygon fill="white" stroke="black" points="1445,-99.5 1445,-120.5 1563,-120.5 1563,-99.5 1445,-99.5"/>
<text text-anchor="middle" x="1504" y="-107.5" font-family="Helvetica,sans-Serif" font-size="10.00">js::IsObjectProxyClass</text>
</a>
</g>
<!-- Node14&#45;&gt;Node16 -->
<g id="edge34" class="edge"><title>Node14&#45;&gt;Node16</title>
<path fill="none" stroke="midnightblue" d="M1398.6,-124.053C1409.93,-122.542 1422.38,-120.882 1434.63,-119.249"/>
<polygon fill="midnightblue" stroke="midnightblue" points="1435.39,-122.679 1444.84,-117.887 1434.47,-115.74 1435.39,-122.679"/>
</g>
</g>
</svg>
        <g id="navigator" transform="translate(0 0)" fill="#404254">
                <rect fill="#f2f5e9" fill-opacity="0.5" stroke="#606060" stroke-width=".5" x="0" y="0" width="60" height="60"/>
                <use id="zoomplus" xlink:href="#zoomPlus" x="17" y="9" onmousedown="handleZoom(evt,'in')"/>
                <use id="zoomminus" xlink:href="#zoomMin" x="42" y="9" onmousedown="handleZoom(evt,'out')"/>
                <use id="reset" xlink:href="#resetDef" x="30" y="36" onmousedown="handleReset()"/>
                <g id="arrowUp" xlink:href="#dirArrow" transform="translate(30 24)" onmousedown="handlePan(0,-1)">
                  <use xlink:href="#rim" fill="#404040">
                        <set attributeName="fill" to="#808080" begin="arrowUp.mouseover" end="arrowUp.mouseout"/>
                  </use>
                  <path fill="none" stroke="white" stroke-width="1.5" d="M0,-3.0v7 M-2.5,-0.5L0,-3.0L2.5,-0.5"/>
                </g>
                <g id="arrowRight" xlink:href="#dirArrow" transform="rotate(90) translate(36 -43)" onmousedown="handlePan(1,0)">
                  <use xlink:href="#rim" fill="#404040">
                        <set attributeName="fill" to="#808080" begin="arrowRight.mouseover" end="arrowRight.mouseout"/>
                  </use>
                  <path fill="none" stroke="white" stroke-width="1.5" d="M0,-3.0v7 M-2.5,-0.5L0,-3.0L2.5,-0.5"/>
                </g>
                <g id="arrowDown" xlink:href="#dirArrow" transform="rotate(180) translate(-30 -48)" onmousedown="handlePan(0,1)">
                  <use xlink:href="#rim" fill="#404040">
                        <set attributeName="fill" to="#808080" begin="arrowDown.mouseover" end="arrowDown.mouseout"/>
                  </use>
                  <path fill="none" stroke="white" stroke-width="1.5" d="M0,-3.0v7 M-2.5,-0.5L0,-3.0L2.5,-0.5"/>
                </g>
                <g id="arrowLeft" xlink:href="#dirArrow" transform="rotate(270) translate(-36 17)" onmousedown="handlePan(-1,0)">
                  <use xlink:href="#rim" fill="#404040">
                        <set attributeName="fill" to="#808080" begin="arrowLeft.mouseover" end="arrowLeft.mouseout"/>
                  </use>
                  <path fill="none" stroke="white" stroke-width="1.5" d="M0,-3.0v7 M-2.5,-0.5L0,-3.0L2.5,-0.5"/>
                </g>
        </g>
</svg>
