<?xml version="1.0" encoding="UTF-8" standalone="no"?>
<!DOCTYPE svg PUBLIC "-//W3C//DTD SVG 1.1//EN"
 "http://www.w3.org/Graphics/SVG/1.1/DTD/svg11.dtd">
<!-- Generated by graphviz version 2.26.3 (20100126.1600)
 -->
<!-- Title: G Pages: 1 -->
<svg width="380pt" height="70pt"
 viewBox="0.00 0.00 380.00 70.00" xmlns="http://www.w3.org/2000/svg" xmlns:xlink="http://www.w3.org/1999/xlink">
<g id="graph1" class="graph" transform="scale(1 1) rotate(0) translate(4 66)">
<title>G</title>
<polygon fill="white" stroke="white" points="-4,5 -4,-66 377,-66 377,5 -4,5"/>
<!-- Node1 -->
<g id="node1" class="node"><title>Node1</title>
<polygon fill="#bfbfbf" stroke="black" points="0,-20.5 0,-41.5 192,-41.5 192,-20.5 0,-20.5"/>
<text text-anchor="middle" x="96" y="-28.5" font-family="Helvetica,sans-Serif" font-size="10.00">mozilla::dom::WrapObject&lt; nsIVariant &gt;</text>
</g>
<!-- Node2 -->
<g id="node3" class="node"><title>Node2</title>
<a xlink:href="../../d1/d2f/class_j_s_1_1_mutable_handle.html#a29f3c5d66a464e63edf39d6a33cf1485" target="_top" xlink:title="JS::MutableHandle::address">
<polygon fill="white" stroke="black" points="230,-40.5 230,-61.5 370,-61.5 370,-40.5 230,-40.5"/>
<text text-anchor="middle" x="300" y="-48.5" font-family="Helvetica,sans-Serif" font-size="10.00">JS::MutableHandle::address</text>
</a>
</g>
<!-- Node1&#45;&gt;Node2 -->
<g id="edge2" class="edge"><title>Node1&#45;&gt;Node2</title>
<path fill="none" stroke="midnightblue" d="M192.026,-40.4144C201.262,-41.3198 210.563,-42.2317 219.625,-43.1201"/>
<polygon fill="midnightblue" stroke="midnightblue" points="219.445,-46.6192 229.739,-44.1117 220.128,-39.6526 219.445,-46.6192"/>
</g>
<!-- Node3 -->
<g id="node5" class="node"><title>Node3</title>
<a xlink:href="../../d7/d4b/namespacemozilla_1_1dom.html#a4f04283242b7de32625054ed68eee4e6" target="_top" xlink:title="mozilla::dom::VariantToJsval">
<polygon fill="white" stroke="black" points="228.5,-0.5 228.5,-21.5 371.5,-21.5 371.5,-0.5 228.5,-0.5"/>
<text text-anchor="middle" x="300" y="-8.5" font-family="Helvetica,sans-Serif" font-size="10.00">mozilla::dom::VariantToJsval</text>
</a>
</g>
<!-- Node1&#45;&gt;Node3 -->
<g id="edge4" class="edge"><title>Node1&#45;&gt;Node3</title>
<path fill="none" stroke="midnightblue" d="M192.026,-21.5856C200.791,-20.7264 209.615,-19.8613 218.238,-19.0159"/>
<polygon fill="midnightblue" stroke="midnightblue" points="218.641,-22.4932 228.252,-18.0341 217.958,-15.5266 218.641,-22.4932"/>
</g>
</g>
</svg>
