<?xml version="1.0" encoding="UTF-8" standalone="no"?>
<!DOCTYPE svg PUBLIC "-//W3C//DTD SVG 1.1//EN"
 "http://www.w3.org/Graphics/SVG/1.1/DTD/svg11.dtd">
<!-- Generated by graphviz version 2.26.3 (20100126.1600)
 -->
<!-- Title: G Pages: 1 -->
<!--zoomable 323 -->
<svg id="main" version="1.1" xmlns="http://www.w3.org/2000/svg" xmlns:xlink="http://www.w3.org/1999/xlink" xml:space="preserve" onload="init(evt)">
        <defs>
                <circle id="rim" cx="0" cy="0" r="7"/>
                <circle id="rim2" cx="0" cy="0" r="3.5"/>
                <g id="zoomPlus">
                        <use xlink:href="#rim" fill="#404040">
                                <set attributeName="fill" to="#808080" begin="zoomplus.mouseover" end="zoomplus.mouseout"/>
                        </use>
                        <path d="M-4,0h8M0,-4v8" fill="none" stroke="white" stroke-width="1.5" pointer-events="none"/>
                </g>
                <g id="zoomMin">
                        <use xlink:href="#rim" fill="#404040">
                                <set attributeName="fill" to="#808080" begin="zoomminus.mouseover" end="zoomminus.mouseout"/>
                        </use>
                        <path d="M-4,0h8" fill="none" stroke="white" stroke-width="1.5" pointer-events="none"/>
                </g>
                <g id="dirArrow">
                        <path fill="none" stroke="white" stroke-width="1.5" d="M0,-3.0v7 M-2.5,-0.5L0,-3.0L2.5,-0.5"/>
                </g>
               <g id="resetDef">
                       <use xlink:href="#rim2" fill="#404040">
                               <set attributeName="fill" to="#808080" begin="reset.mouseover" end="reset.mouseout"/>
                       </use>
               </g>
        </defs>

<script type="text/javascript">
var viewWidth = 930;
var viewHeight = 323;
var sectionId = 'dynsection-50';
</script>
<script xlink:href="../../svgpan.js"/>
<svg id="graph" class="graph">
<g id="viewport">
<title>G</title>
<polygon fill="white" stroke="white" points="-4,5 -4,-319 927,-319 927,5 -4,5"/>
<!-- Node1 -->
<g id="node1" class="node"><title>Node1</title>
<polygon fill="#bfbfbf" stroke="black" points="0,-39.5 0,-60.5 138,-60.5 138,-39.5 0,-39.5"/>
<text text-anchor="middle" x="69" y="-47.5" font-family="Helvetica,sans-Serif" font-size="10.00">mozilla::dom::IsDOMObject</text>
</g>
<!-- Node2 -->
<g id="node3" class="node"><title>Node2</title>
<a xlink:href="../../db/da2/namespacejs.html#aca7ef07fd5e632405949331c6929f1e6" target="_top" xlink:title="js::GetObjectClass">
<polygon fill="white" stroke="black" points="658,-146.5 658,-167.5 758,-167.5 758,-146.5 658,-146.5"/>
<text text-anchor="middle" x="708" y="-154.5" font-family="Helvetica,sans-Serif" font-size="10.00">js::GetObjectClass</text>
</a>
</g>
<!-- Node1&#45;&gt;Node2 -->
<g id="edge2" class="edge"><title>Node1&#45;&gt;Node2</title>
<path fill="none" stroke="midnightblue" d="M138.209,-46.4842C220.59,-43.8345 361.867,-44.1574 480,-69 554.115,-84.5859 635.723,-121.221 678.342,-141.973"/>
<polygon fill="midnightblue" stroke="midnightblue" points="676.805,-145.118 687.323,-146.393 679.896,-138.837 676.805,-145.118"/>
</g>
<!-- Node3 -->
<g id="node5" class="node"><title>Node3</title>
<a xlink:href="../../d7/d4b/namespacemozilla_1_1dom.html#a06998ddfcba66111a31e1c067d5bf166" target="_top" xlink:title="mozilla::dom::IsDOMClass">
<polygon fill="white" stroke="black" points="174.5,-0.5 174.5,-21.5 309.5,-21.5 309.5,-0.5 174.5,-0.5"/>
<text text-anchor="middle" x="242" y="-8.5" font-family="Helvetica,sans-Serif" font-size="10.00">mozilla::dom::IsDOMClass</text>
</a>
</g>
<!-- Node1&#45;&gt;Node3 -->
<g id="edge4" class="edge"><title>Node1&#45;&gt;Node3</title>
<path fill="none" stroke="midnightblue" d="M115.816,-39.446C137.26,-34.612 162.857,-28.8414 185.375,-23.7651"/>
<polygon fill="midnightblue" stroke="midnightblue" points="186.161,-27.1759 195.146,-21.5624 184.621,-20.3473 186.161,-27.1759"/>
</g>
<!-- Node4 -->
<g id="node7" class="node"><title>Node4</title>
<a xlink:href="../../d7/d4b/namespacemozilla_1_1dom.html#a375a5202da47e5c7a4427078a16cd060" target="_top" xlink:title="mozilla::dom::IsDOMProxy">
<polygon fill="white" stroke="black" points="174.5,-141.5 174.5,-162.5 309.5,-162.5 309.5,-141.5 174.5,-141.5"/>
<text text-anchor="middle" x="242" y="-149.5" font-family="Helvetica,sans-Serif" font-size="10.00">mozilla::dom::IsDOMProxy</text>
</a>
</g>
<!-- Node1&#45;&gt;Node4 -->
<g id="edge6" class="edge"><title>Node1&#45;&gt;Node4</title>
<path fill="none" stroke="midnightblue" d="M86.8624,-60.5316C117.294,-78.4739 179.358,-115.066 215.073,-136.124"/>
<polygon fill="midnightblue" stroke="midnightblue" points="213.584,-139.309 223.976,-141.373 217.139,-133.279 213.584,-139.309"/>
</g>
<!-- Node4&#45;&gt;Node2 -->
<g id="edge10" class="edge"><title>Node4&#45;&gt;Node2</title>
<path fill="none" stroke="midnightblue" d="M309.503,-143.109C385.661,-134.522 513.115,-124.506 622,-137 634.858,-138.475 648.589,-141.153 661.218,-144.079"/>
<polygon fill="midnightblue" stroke="midnightblue" points="660.531,-147.514 671.073,-146.461 662.176,-140.71 660.531,-147.514"/>
</g>
<!-- Node5 -->
<g id="node9" class="node"><title>Node5</title>
<a xlink:href="../../d7/d4b/namespacemozilla_1_1dom.html#a6195201dc864c6aa8d7f6d5262d324e9" target="_top" xlink:title="mozilla::dom::ProxyFamily">
<polygon fill="white" stroke="black" points="346.5,-78.5 346.5,-99.5 479.5,-99.5 479.5,-78.5 346.5,-78.5"/>
<text text-anchor="middle" x="413" y="-86.5" font-family="Helvetica,sans-Serif" font-size="10.00">mozilla::dom::ProxyFamily</text>
</a>
</g>
<!-- Node4&#45;&gt;Node5 -->
<g id="edge8" class="edge"><title>Node4&#45;&gt;Node5</title>
<path fill="none" stroke="midnightblue" d="M270.622,-141.455C299.105,-130.961 343,-114.789 374.521,-103.176"/>
<polygon fill="midnightblue" stroke="midnightblue" points="376.112,-106.321 384.285,-99.5792 373.692,-99.7521 376.112,-106.321"/>
</g>
<!-- Node6 -->
<g id="node12" class="node"><title>Node6</title>
<a xlink:href="../../db/da2/namespacejs.html#ab7c4efa33dd1db699ed6960c8df32769" target="_top" xlink:title="js::IsFunctionProxyClass">
<polygon fill="white" stroke="black" points="794.5,-235.5 794.5,-256.5 921.5,-256.5 921.5,-235.5 794.5,-235.5"/>
<text text-anchor="middle" x="858" y="-243.5" font-family="Helvetica,sans-Serif" font-size="10.00">js::IsFunctionProxyClass</text>
</a>
</g>
<!-- Node4&#45;&gt;Node6 -->
<g id="edge12" class="edge"><title>Node4&#45;&gt;Node6</title>
<path fill="none" stroke="midnightblue" d="M265.351,-162.654C286.304,-172.081 317.979,-186.008 346,-197 420.59,-226.26 437.027,-243.472 516,-257 622.012,-275.159 650.606,-262.889 758,-257 766.553,-256.531 775.499,-255.838 784.373,-255.024"/>
<polygon fill="midnightblue" stroke="midnightblue" points="784.722,-258.507 794.338,-254.059 784.047,-251.539 784.722,-258.507"/>
</g>
<!-- Node7 -->
<g id="node14" class="node"><title>Node7</title>
<a xlink:href="../../db/da2/namespacejs.html#aff283fd270a0f844f81537eea2e88666" target="_top" xlink:title="js::IsObjectProxyClass">
<polygon fill="white" stroke="black" points="799,-293.5 799,-314.5 917,-314.5 917,-293.5 799,-293.5"/>
<text text-anchor="middle" x="858" y="-301.5" font-family="Helvetica,sans-Serif" font-size="10.00">js::IsObjectProxyClass</text>
</a>
</g>
<!-- Node4&#45;&gt;Node7 -->
<g id="edge14" class="edge"><title>Node4&#45;&gt;Node7</title>
<path fill="none" stroke="midnightblue" d="M251.77,-162.748C268.967,-180.975 306.574,-217.83 346,-237 491.563,-307.775 686.475,-312.045 788.724,-308.414"/>
<polygon fill="midnightblue" stroke="midnightblue" points="789.07,-311.904 798.925,-308.015 788.796,-304.909 789.07,-311.904"/>
</g>
<!-- Node8 -->
<g id="node16" class="node"><title>Node8</title>
<a xlink:href="../../db/da2/namespacejs.html#afc902f82c906b6e3b871e899defc28cd" target="_top" xlink:title="js::GetProxyHandler">
<polygon fill="white" stroke="black" points="360.5,-166.5 360.5,-187.5 465.5,-187.5 465.5,-166.5 360.5,-166.5"/>
<text text-anchor="middle" x="413" y="-174.5" font-family="Helvetica,sans-Serif" font-size="10.00">js::GetProxyHandler</text>
</a>
</g>
<!-- Node4&#45;&gt;Node8 -->
<g id="edge16" class="edge"><title>Node4&#45;&gt;Node8</title>
<path fill="none" stroke="midnightblue" d="M309.584,-161.881C323.049,-163.849 337.134,-165.909 350.422,-167.851"/>
<polygon fill="midnightblue" stroke="midnightblue" points="350.004,-171.327 360.405,-169.311 351.016,-164.401 350.004,-171.327"/>
</g>
<!-- Node9 -->
<g id="node18" class="node"><title>Node9</title>
<a xlink:href="../../db/da2/namespacejs.html#ad81f7c892e54c34c67a930983b58c1b0" target="_top" xlink:title="js::GetReservedSlot">
<polygon fill="white" stroke="black" points="516.5,-186.5 516.5,-207.5 621.5,-207.5 621.5,-186.5 516.5,-186.5"/>
<text text-anchor="middle" x="569" y="-194.5" font-family="Helvetica,sans-Serif" font-size="10.00">js::GetReservedSlot</text>
</a>
</g>
<!-- Node8&#45;&gt;Node9 -->
<g id="edge18" class="edge"><title>Node8&#45;&gt;Node9</title>
<path fill="none" stroke="midnightblue" d="M465.814,-183.771C478.775,-185.433 492.775,-187.228 506.156,-188.943"/>
<polygon fill="midnightblue" stroke="midnightblue" points="505.876,-192.436 516.24,-190.236 506.766,-185.493 505.876,-192.436"/>
</g>
<!-- Node10 -->
<g id="node21" class="node"><title>Node10</title>
<a xlink:href="../../db/da2/namespacejs.html#a5f2e5200310c72e68bb180fd6db2bf68" target="_top" xlink:title="js::IsProxy">
<polygon fill="white" stroke="black" points="537,-226.5 537,-247.5 601,-247.5 601,-226.5 537,-226.5"/>
<text text-anchor="middle" x="569" y="-234.5" font-family="Helvetica,sans-Serif" font-size="10.00">js::IsProxy</text>
</a>
</g>
<!-- Node8&#45;&gt;Node10 -->
<g id="edge22" class="edge"><title>Node8&#45;&gt;Node10</title>
<path fill="none" stroke="midnightblue" d="M440.081,-187.598C460.837,-195.702 490.202,-207.124 516,-217 520.925,-218.886 526.113,-220.859 531.236,-222.8"/>
<polygon fill="midnightblue" stroke="midnightblue" points="530.333,-226.201 540.925,-226.463 532.809,-219.653 530.333,-226.201"/>
</g>
<!-- Node12 -->
<g id="node28" class="node"><title>Node12</title>
<a xlink:href="../../d1/d94/class_j_s_1_1_value.html#acb6cff159be405ffc5f5f64fa39a04db" target="_top" xlink:title="JS::Value::toPrivate">
<polygon fill="white" stroke="black" points="517,-146.5 517,-167.5 621,-167.5 621,-146.5 517,-146.5"/>
<text text-anchor="middle" x="569" y="-154.5" font-family="Helvetica,sans-Serif" font-size="10.00">JS::Value::toPrivate</text>
</a>
</g>
<!-- Node8&#45;&gt;Node12 -->
<g id="edge32" class="edge"><title>Node8&#45;&gt;Node12</title>
<path fill="none" stroke="midnightblue" d="M465.814,-170.229C478.916,-168.549 493.079,-166.733 506.592,-165.001"/>
<polygon fill="midnightblue" stroke="midnightblue" points="507.296,-168.44 516.77,-163.696 506.406,-161.496 507.296,-168.44"/>
</g>
<!-- Node9&#45;&gt;Node2 -->
<g id="edge20" class="edge"><title>Node9&#45;&gt;Node2</title>
<path fill="none" stroke="midnightblue" d="M605.521,-186.49C622.623,-181.569 643.195,-175.649 661.404,-170.409"/>
<polygon fill="midnightblue" stroke="midnightblue" points="662.599,-173.707 671.241,-167.578 660.663,-166.98 662.599,-173.707"/>
</g>
<!-- Node10&#45;&gt;Node2 -->
<g id="edge24" class="edge"><title>Node10&#45;&gt;Node2</title>
<path fill="none" stroke="midnightblue" d="M600.953,-226.41C608.03,-223.663 615.388,-220.485 622,-217 645.453,-204.641 670.05,-186.929 686.902,-173.952"/>
<polygon fill="midnightblue" stroke="midnightblue" points="689.239,-176.568 694.962,-167.651 684.928,-171.053 689.239,-176.568"/>
</g>
<!-- Node11 -->
<g id="node24" class="node"><title>Node11</title>
<a xlink:href="../../db/da2/namespacejs.html#ad965faa46bc843dcc541de166befa797" target="_top" xlink:title="js::IsProxyClass">
<polygon fill="white" stroke="black" points="663.5,-226.5 663.5,-247.5 752.5,-247.5 752.5,-226.5 663.5,-226.5"/>
<text text-anchor="middle" x="708" y="-234.5" font-family="Helvetica,sans-Serif" font-size="10.00">js::IsProxyClass</text>
</a>
</g>
<!-- Node10&#45;&gt;Node11 -->
<g id="edge26" class="edge"><title>Node10&#45;&gt;Node11</title>
<path fill="none" stroke="midnightblue" d="M601.239,-237C616.658,-237 635.552,-237 653.136,-237"/>
<polygon fill="midnightblue" stroke="midnightblue" points="653.302,-240.5 663.302,-237 653.302,-233.5 653.302,-240.5"/>
</g>
<!-- Node11&#45;&gt;Node6 -->
<g id="edge28" class="edge"><title>Node11&#45;&gt;Node6</title>
<path fill="none" stroke="midnightblue" d="M752.599,-239.676C762.546,-240.273 773.353,-240.921 784.128,-241.568"/>
<polygon fill="midnightblue" stroke="midnightblue" points="784.229,-245.08 794.42,-242.185 784.648,-238.092 784.229,-245.08"/>
</g>
<!-- Node11&#45;&gt;Node7 -->
<g id="edge30" class="edge"><title>Node11&#45;&gt;Node7</title>
<path fill="none" stroke="midnightblue" d="M731.768,-247.616C756.893,-258.839 796.711,-276.624 824.9,-289.216"/>
<polygon fill="midnightblue" stroke="midnightblue" points="823.785,-292.551 834.343,-293.433 826.64,-286.159 823.785,-292.551"/>
</g>
</g>
</svg>
        <g id="navigator" transform="translate(0 0)" fill="#404254">
                <rect fill="#f2f5e9" fill-opacity="0.5" stroke="#606060" stroke-width=".5" x="0" y="0" width="60" height="60"/>
                <use id="zoomplus" xlink:href="#zoomPlus" x="17" y="9" onmousedown="handleZoom(evt,'in')"/>
                <use id="zoomminus" xlink:href="#zoomMin" x="42" y="9" onmousedown="handleZoom(evt,'out')"/>
                <use id="reset" xlink:href="#resetDef" x="30" y="36" onmousedown="handleReset()"/>
                <g id="arrowUp" xlink:href="#dirArrow" transform="translate(30 24)" onmousedown="handlePan(0,-1)">
                  <use xlink:href="#rim" fill="#404040">
                        <set attributeName="fill" to="#808080" begin="arrowUp.mouseover" end="arrowUp.mouseout"/>
                  </use>
                  <path fill="none" stroke="white" stroke-width="1.5" d="M0,-3.0v7 M-2.5,-0.5L0,-3.0L2.5,-0.5"/>
                </g>
                <g id="arrowRight" xlink:href="#dirArrow" transform="rotate(90) translate(36 -43)" onmousedown="handlePan(1,0)">
                  <use xlink:href="#rim" fill="#404040">
                        <set attributeName="fill" to="#808080" begin="arrowRight.mouseover" end="arrowRight.mouseout"/>
                  </use>
                  <path fill="none" stroke="white" stroke-width="1.5" d="M0,-3.0v7 M-2.5,-0.5L0,-3.0L2.5,-0.5"/>
                </g>
                <g id="arrowDown" xlink:href="#dirArrow" transform="rotate(180) translate(-30 -48)" onmousedown="handlePan(0,1)">
                  <use xlink:href="#rim" fill="#404040">
                        <set attributeName="fill" to="#808080" begin="arrowDown.mouseover" end="arrowDown.mouseout"/>
                  </use>
                  <path fill="none" stroke="white" stroke-width="1.5" d="M0,-3.0v7 M-2.5,-0.5L0,-3.0L2.5,-0.5"/>
                </g>
                <g id="arrowLeft" xlink:href="#dirArrow" transform="rotate(270) translate(-36 17)" onmousedown="handlePan(-1,0)">
                  <use xlink:href="#rim" fill="#404040">
                        <set attributeName="fill" to="#808080" begin="arrowLeft.mouseover" end="arrowLeft.mouseout"/>
                  </use>
                  <path fill="none" stroke="white" stroke-width="1.5" d="M0,-3.0v7 M-2.5,-0.5L0,-3.0L2.5,-0.5"/>
                </g>
        </g>
</svg>
