<?xml version="1.0" encoding="UTF-8" standalone="no"?>
<!DOCTYPE svg PUBLIC "-//W3C//DTD SVG 1.1//EN"
 "http://www.w3.org/Graphics/SVG/1.1/DTD/svg11.dtd">
<!-- Generated by graphviz version 2.26.3 (20100126.1600)
 -->
<!-- Title: G Pages: 1 -->
<!--zoomable 443 -->
<svg id="main" version="1.1" xmlns="http://www.w3.org/2000/svg" xmlns:xlink="http://www.w3.org/1999/xlink" xml:space="preserve" onload="init(evt)">
        <defs>
                <circle id="rim" cx="0" cy="0" r="7"/>
                <circle id="rim2" cx="0" cy="0" r="3.5"/>
                <g id="zoomPlus">
                        <use xlink:href="#rim" fill="#404040">
                                <set attributeName="fill" to="#808080" begin="zoomplus.mouseover" end="zoomplus.mouseout"/>
                        </use>
                        <path d="M-4,0h8M0,-4v8" fill="none" stroke="white" stroke-width="1.5" pointer-events="none"/>
                </g>
                <g id="zoomMin">
                        <use xlink:href="#rim" fill="#404040">
                                <set attributeName="fill" to="#808080" begin="zoomminus.mouseover" end="zoomminus.mouseout"/>
                        </use>
                        <path d="M-4,0h8" fill="none" stroke="white" stroke-width="1.5" pointer-events="none"/>
                </g>
                <g id="dirArrow">
                        <path fill="none" stroke="white" stroke-width="1.5" d="M0,-3.0v7 M-2.5,-0.5L0,-3.0L2.5,-0.5"/>
                </g>
               <g id="resetDef">
                       <use xlink:href="#rim2" fill="#404040">
                               <set attributeName="fill" to="#808080" begin="reset.mouseover" end="reset.mouseout"/>
                       </use>
               </g>
        </defs>

<script type="text/javascript">
var viewWidth = 1620;
var viewHeight = 443;
var sectionId = 'dynsection-60';
</script>
<script xlink:href="../../svgpan.js"/>
<svg id="graph" class="graph">
<g id="viewport">
<title>G</title>
<polygon fill="white" stroke="white" points="-4,5 -4,-438.683 1617,-438.683 1617,5 -4,5"/>
<!-- Node1 -->
<g id="node1" class="node"><title>Node1</title>
<polygon fill="#bfbfbf" stroke="black" points="0,-353.183 0,-374.183 212,-374.183 212,-353.183 0,-353.183"/>
<text text-anchor="middle" x="106" y="-361.183" font-family="Helvetica,sans-Serif" font-size="10.00">mozilla::dom::MaybeWrapObjectOrNullValue</text>
</g>
<!-- Node2 -->
<g id="node3" class="node"><title>Node2</title>
<a xlink:href="../../df/dd5/classjs_1_1_value_operations.html#a4152d43ff720567944f2ca20b500931e" target="_top" xlink:title="js::ValueOperations::isNull">
<polygon fill="white" stroke="black" points="273.5,-393.183 273.5,-414.183 406.5,-414.183 406.5,-393.183 273.5,-393.183"/>
<text text-anchor="middle" x="340" y="-401.183" font-family="Helvetica,sans-Serif" font-size="10.00">js::ValueOperations::isNull</text>
</a>
</g>
<!-- Node1&#45;&gt;Node2 -->
<g id="edge2" class="edge"><title>Node1&#45;&gt;Node2</title>
<path fill="none" stroke="midnightblue" d="M167.481,-374.192C198.394,-379.477 236.039,-385.912 268.266,-391.421"/>
<polygon fill="midnightblue" stroke="midnightblue" points="268.077,-394.939 278.524,-393.174 269.257,-388.039 268.077,-394.939"/>
</g>
<!-- Node3 -->
<g id="node5" class="node"><title>Node3</title>
<a xlink:href="../../df/dd5/classjs_1_1_value_operations.html#a88f05b9ac6ef5b60f9d8e81a40c66393" target="_top" xlink:title="js::ValueOperations::isObjectOrNull">
<polygon fill="white" stroke="black" points="254,-353.183 254,-374.183 426,-374.183 426,-353.183 254,-353.183"/>
<text text-anchor="middle" x="340" y="-361.183" font-family="Helvetica,sans-Serif" font-size="10.00">js::ValueOperations::isObjectOrNull</text>
</a>
</g>
<!-- Node1&#45;&gt;Node3 -->
<g id="edge4" class="edge"><title>Node1&#45;&gt;Node3</title>
<path fill="none" stroke="midnightblue" d="M212.046,-363.683C222.676,-363.683 233.427,-363.683 243.946,-363.683"/>
<polygon fill="midnightblue" stroke="midnightblue" points="243.947,-367.183 253.947,-363.683 243.947,-360.183 243.947,-367.183"/>
</g>
<!-- Node4 -->
<g id="node7" class="node"><title>Node4</title>
<a xlink:href="../../d7/d4b/namespacemozilla_1_1dom.html#a227993c7df4c07c978455bccca4195ed" target="_top" xlink:title="mozilla::dom::MaybeWrapObjectValue">
<polygon fill="white" stroke="black" points="248,-313.183 248,-334.183 432,-334.183 432,-313.183 248,-313.183"/>
<text text-anchor="middle" x="340" y="-321.183" font-family="Helvetica,sans-Serif" font-size="10.00">mozilla::dom::MaybeWrapObjectValue</text>
</a>
</g>
<!-- Node1&#45;&gt;Node4 -->
<g id="edge6" class="edge"><title>Node1&#45;&gt;Node4</title>
<path fill="none" stroke="midnightblue" d="M167.481,-353.173C198.394,-347.889 236.039,-341.454 268.266,-335.945"/>
<polygon fill="midnightblue" stroke="midnightblue" points="269.257,-339.327 278.524,-334.192 268.077,-332.427 269.257,-339.327"/>
</g>
<!-- Node5 -->
<g id="node9" class="node"><title>Node5</title>
<a xlink:href="../../db/da2/namespacejs.html#aebfb66aa1ca98ea2eae1c562f677594f" target="_top" xlink:title="js::GetContextCompartment">
<polygon fill="white" stroke="black" points="541,-413.183 541,-434.183 681,-434.183 681,-413.183 541,-413.183"/>
<text text-anchor="middle" x="611" y="-421.183" font-family="Helvetica,sans-Serif" font-size="10.00">js::GetContextCompartment</text>
</a>
</g>
<!-- Node4&#45;&gt;Node5 -->
<g id="edge8" class="edge"><title>Node4&#45;&gt;Node5</title>
<path fill="none" stroke="midnightblue" d="M414.617,-334.232C420.789,-336.764 426.687,-339.872 432,-343.683 457.27,-361.808 442.067,-386.519 468,-403.683 486.317,-415.806 508.848,-421.973 530.562,-424.842"/>
<polygon fill="midnightblue" stroke="midnightblue" points="530.475,-428.353 540.798,-425.967 531.24,-421.395 530.475,-428.353"/>
</g>
<!-- Node7 -->
<g id="node13" class="node"><title>Node7</title>
<a xlink:href="../../d1/d2f/class_j_s_1_1_mutable_handle.html#a62abdee2e1a2def647c6e0de3c0fb717" target="_top" xlink:title="JS::MutableHandle::set">
<polygon fill="white" stroke="black" points="551.5,-373.183 551.5,-394.183 670.5,-394.183 670.5,-373.183 551.5,-373.183"/>
<text text-anchor="middle" x="611" y="-381.183" font-family="Helvetica,sans-Serif" font-size="10.00">JS::MutableHandle::set</text>
</a>
</g>
<!-- Node4&#45;&gt;Node7 -->
<g id="edge12" class="edge"><title>Node4&#45;&gt;Node7</title>
<path fill="none" stroke="midnightblue" d="M400.617,-334.21C411.235,-336.8 422.059,-339.934 432,-343.683 449.126,-350.141 450.643,-357.873 468,-363.683 491.296,-371.481 517.712,-376.24 541.445,-379.143"/>
<polygon fill="midnightblue" stroke="midnightblue" points="541.105,-382.627 551.436,-380.278 541.894,-375.672 541.105,-382.627"/>
</g>
<!-- Node8 -->
<g id="node15" class="node"><title>Node8</title>
<a xlink:href="../../df/dd5/classjs_1_1_value_operations.html#ac143126b200f9934749d76f66fcfb6dc" target="_top" xlink:title="js::ValueOperations::isObject">
<polygon fill="white" stroke="black" points="539,-333.183 539,-354.183 683,-354.183 683,-333.183 539,-333.183"/>
<text text-anchor="middle" x="611" y="-341.183" font-family="Helvetica,sans-Serif" font-size="10.00">js::ValueOperations::isObject</text>
</a>
</g>
<!-- Node4&#45;&gt;Node8 -->
<g id="edge14" class="edge"><title>Node4&#45;&gt;Node8</title>
<path fill="none" stroke="midnightblue" d="M432.126,-330.482C463.421,-332.791 498.165,-335.356 528.646,-337.605"/>
<polygon fill="midnightblue" stroke="midnightblue" points="528.578,-341.109 538.809,-338.355 529.093,-334.128 528.578,-341.109"/>
</g>
<!-- Node9 -->
<g id="node17" class="node"><title>Node9</title>
<a xlink:href="../../df/dd5/classjs_1_1_value_operations.html#acfd90819c031a8779edbb74a812171ad" target="_top" xlink:title="js::ValueOperations::toObject">
<polygon fill="white" stroke="black" points="538.5,-293.183 538.5,-314.183 683.5,-314.183 683.5,-293.183 538.5,-293.183"/>
<text text-anchor="middle" x="611" y="-301.183" font-family="Helvetica,sans-Serif" font-size="10.00">js::ValueOperations::toObject</text>
</a>
</g>
<!-- Node4&#45;&gt;Node9 -->
<g id="edge16" class="edge"><title>Node4&#45;&gt;Node9</title>
<path fill="none" stroke="midnightblue" d="M432.126,-316.884C463.283,-314.584 497.859,-312.033 528.243,-309.79"/>
<polygon fill="midnightblue" stroke="midnightblue" points="528.66,-313.269 538.376,-309.043 528.145,-306.288 528.66,-313.269"/>
</g>
<!-- Node10 -->
<g id="node19" class="node"><title>Node10</title>
<a xlink:href="../../d1/d2f/class_j_s_1_1_mutable_handle.html#a29f3c5d66a464e63edf39d6a33cf1485" target="_top" xlink:title="JS::MutableHandle::address">
<polygon fill="white" stroke="black" points="541,-253.183 541,-274.183 681,-274.183 681,-253.183 541,-253.183"/>
<text text-anchor="middle" x="611" y="-261.183" font-family="Helvetica,sans-Serif" font-size="10.00">JS::MutableHandle::address</text>
</a>
</g>
<!-- Node4&#45;&gt;Node10 -->
<g id="edge18" class="edge"><title>Node4&#45;&gt;Node10</title>
<path fill="none" stroke="midnightblue" d="M368.862,-313.17C394.566,-304.168 433.358,-291.463 468,-283.683 488.178,-279.151 510.203,-275.463 530.787,-272.546"/>
<polygon fill="midnightblue" stroke="midnightblue" points="531.332,-276.004 540.762,-271.175 530.379,-269.069 531.332,-276.004"/>
</g>
<!-- Node11 -->
<g id="node21" class="node"><title>Node11</title>
<a xlink:href="../../d7/d4b/namespacemozilla_1_1dom.html#a115a894d696290b58936707a053a98e7" target="_top" xlink:title="mozilla::dom::GetSameCompartmentWrapperForDOMBinding">
<polygon fill="white" stroke="black" points="468.5,-213.183 468.5,-234.183 753.5,-234.183 753.5,-213.183 468.5,-213.183"/>
<text text-anchor="middle" x="611" y="-221.183" font-family="Helvetica,sans-Serif" font-size="10.00">mozilla::dom::GetSameCompartmentWrapperForDOMBinding</text>
</a>
</g>
<!-- Node4&#45;&gt;Node11 -->
<g id="edge20" class="edge"><title>Node4&#45;&gt;Node11</title>
<path fill="none" stroke="midnightblue" d="M352.847,-313.03C374.875,-295.397 421.946,-260.43 468,-243.683 475.537,-240.942 483.423,-238.574 491.454,-236.528"/>
<polygon fill="midnightblue" stroke="midnightblue" points="492.387,-239.904 501.308,-234.189 490.77,-233.093 492.387,-239.904"/>
</g>
<!-- Node6 -->
<g id="node11" class="node"><title>Node6</title>
<a xlink:href="../../d4/d00/tools_2xpcwindow_2lib_2modules_2debug_8js.html#a18697261a961b9d0efde405b5a2b244f" target="_top" xlink:title="get">
<polygon fill="white" stroke="black" points="876,-413.183 876,-434.183 906,-434.183 906,-413.183 876,-413.183"/>
<text text-anchor="middle" x="891" y="-421.183" font-family="Helvetica,sans-Serif" font-size="10.00">get</text>
</a>
</g>
<!-- Node5&#45;&gt;Node6 -->
<g id="edge10" class="edge"><title>Node5&#45;&gt;Node6</title>
<path fill="none" stroke="midnightblue" d="M681.294,-423.683C741.392,-423.683 824.498,-423.683 865.717,-423.683"/>
<polygon fill="midnightblue" stroke="midnightblue" points="865.948,-427.183 875.948,-423.683 865.948,-420.183 865.948,-427.183"/>
</g>
<!-- Node12 -->
<g id="node23" class="node"><title>Node12</title>
<a xlink:href="../../db/da2/namespacejs.html#aca7ef07fd5e632405949331c6929f1e6" target="_top" xlink:title="js::GetObjectClass">
<polygon fill="white" stroke="black" points="1348,-233.183 1348,-254.183 1448,-254.183 1448,-233.183 1348,-233.183"/>
<text text-anchor="middle" x="1398" y="-241.183" font-family="Helvetica,sans-Serif" font-size="10.00">js::GetObjectClass</text>
</a>
</g>
<!-- Node11&#45;&gt;Node12 -->
<g id="edge22" class="edge"><title>Node11&#45;&gt;Node12</title>
<path fill="none" stroke="midnightblue" d="M735.947,-234.197C742.262,-236.853 748.328,-239.99 754,-243.683 779.426,-260.237 763.835,-286.324 790,-301.683 947.317,-394.028 1017.63,-316.459 1200,-320.683 1249.76,-321.835 1265.5,-338.457 1312,-320.683 1342.52,-309.017 1369.05,-280.981 1384.29,-262.157"/>
<polygon fill="midnightblue" stroke="midnightblue" points="1387.07,-264.282 1390.47,-254.248 1381.55,-259.971 1387.07,-264.282"/>
</g>
<!-- Node13 -->
<g id="node25" class="node"><title>Node13</title>
<a xlink:href="../../d7/d4b/namespacemozilla_1_1dom.html#a0842fcc5d79b41098fdc8c2d42564daa" target="_top" xlink:title="mozilla::dom::GetSystemOnlyWrapperSlot">
<polygon fill="white" stroke="black" points="790,-271.183 790,-292.183 992,-292.183 992,-271.183 790,-271.183"/>
<text text-anchor="middle" x="891" y="-279.183" font-family="Helvetica,sans-Serif" font-size="10.00">mozilla::dom::GetSystemOnlyWrapperSlot</text>
</a>
</g>
<!-- Node11&#45;&gt;Node13 -->
<g id="edge24" class="edge"><title>Node11&#45;&gt;Node13</title>
<path fill="none" stroke="midnightblue" d="M706.525,-234.234C722.486,-236.798 738.792,-239.917 754,-243.683 770.512,-247.772 773.722,-251.744 790,-256.683 804.255,-261.008 819.808,-265.141 834.342,-268.757"/>
<polygon fill="midnightblue" stroke="midnightblue" points="833.667,-272.195 844.213,-271.173 835.332,-265.396 833.667,-272.195"/>
</g>
<!-- Node16 -->
<g id="node33" class="node"><title>Node16</title>
<a xlink:href="../../d7/d4b/namespacemozilla_1_1dom.html#a06998ddfcba66111a31e1c067d5bf166" target="_top" xlink:title="mozilla::dom::IsDOMClass">
<polygon fill="white" stroke="black" points="1028.5,-232.183 1028.5,-253.183 1163.5,-253.183 1163.5,-232.183 1028.5,-232.183"/>
<text text-anchor="middle" x="1096" y="-240.183" font-family="Helvetica,sans-Serif" font-size="10.00">mozilla::dom::IsDOMClass</text>
</a>
</g>
<!-- Node11&#45;&gt;Node16 -->
<g id="edge36" class="edge"><title>Node11&#45;&gt;Node16</title>
<path fill="none" stroke="midnightblue" d="M753.566,-229.268C840.001,-232.654 946.968,-236.844 1018.12,-239.632"/>
<polygon fill="midnightblue" stroke="midnightblue" points="1018.22,-243.138 1028.35,-240.033 1018.49,-236.144 1018.22,-243.138"/>
</g>
<!-- Node17 -->
<g id="node36" class="node"><title>Node17</title>
<a xlink:href="../../d7/d4b/namespacemozilla_1_1dom.html#a375a5202da47e5c7a4427078a16cd060" target="_top" xlink:title="mozilla::dom::IsDOMProxy">
<polygon fill="white" stroke="black" points="823.5,-95.1828 823.5,-116.183 958.5,-116.183 958.5,-95.1828 823.5,-95.1828"/>
<text text-anchor="middle" x="891" y="-103.183" font-family="Helvetica,sans-Serif" font-size="10.00">mozilla::dom::IsDOMProxy</text>
</a>
</g>
<!-- Node11&#45;&gt;Node17 -->
<g id="edge38" class="edge"><title>Node11&#45;&gt;Node17</title>
<path fill="none" stroke="midnightblue" d="M634.634,-213.08C668.781,-197.831 733.971,-168.977 790,-145.683 811.058,-136.928 834.757,-127.519 853.904,-120.027"/>
<polygon fill="midnightblue" stroke="midnightblue" points="855.419,-123.193 863.464,-116.298 852.875,-116.672 855.419,-123.193"/>
</g>
<!-- Node25 -->
<g id="node57" class="node"><title>Node25</title>
<a xlink:href="../../d1/d94/class_j_s_1_1_value.html#ab5484f93cfc9cde1a811d0e671366a40" target="_top" xlink:title="JS::Value::isObject">
<polygon fill="white" stroke="black" points="1045.5,-192.183 1045.5,-213.183 1146.5,-213.183 1146.5,-192.183 1045.5,-192.183"/>
<text text-anchor="middle" x="1096" y="-200.183" font-family="Helvetica,sans-Serif" font-size="10.00">JS::Value::isObject</text>
</a>
</g>
<!-- Node11&#45;&gt;Node25 -->
<g id="edge64" class="edge"><title>Node11&#45;&gt;Node25</title>
<path fill="none" stroke="midnightblue" d="M753.566,-217.51C847.327,-213.45 965.245,-208.344 1035.4,-205.307"/>
<polygon fill="midnightblue" stroke="midnightblue" points="1035.56,-208.803 1045.4,-204.874 1035.26,-201.81 1035.56,-208.803"/>
</g>
<!-- Node26 -->
<g id="node59" class="node"><title>Node26</title>
<a xlink:href="../../d1/d94/class_j_s_1_1_value.html#ae7db353eae5a97a5f417627674d33525" target="_top" xlink:title="JS::Value::toObject">
<polygon fill="white" stroke="black" points="840,-155.183 840,-176.183 942,-176.183 942,-155.183 840,-155.183"/>
<text text-anchor="middle" x="891" y="-163.183" font-family="Helvetica,sans-Serif" font-size="10.00">JS::Value::toObject</text>
</a>
</g>
<!-- Node11&#45;&gt;Node26 -->
<g id="edge66" class="edge"><title>Node11&#45;&gt;Node26</title>
<path fill="none" stroke="midnightblue" d="M661.706,-213.179C709.033,-203.376 779.726,-188.732 830.093,-178.299"/>
<polygon fill="midnightblue" stroke="midnightblue" points="831.117,-181.662 840.199,-176.206 829.697,-174.807 831.117,-181.662"/>
</g>
<!-- Node14 -->
<g id="node27" class="node"><title>Node14</title>
<a xlink:href="../../db/da2/namespacejs.html#a3b37e5b7ed888e01cec287d38daede33" target="_top" xlink:title="js::GetObjectJSClass">
<polygon fill="white" stroke="black" points="1200,-290.183 1200,-311.183 1312,-311.183 1312,-290.183 1200,-290.183"/>
<text text-anchor="middle" x="1256" y="-298.183" font-family="Helvetica,sans-Serif" font-size="10.00">js::GetObjectJSClass</text>
</a>
</g>
<!-- Node13&#45;&gt;Node14 -->
<g id="edge26" class="edge"><title>Node13&#45;&gt;Node14</title>
<path fill="none" stroke="midnightblue" d="M984.142,-292.211C998.803,-293.576 1013.8,-294.803 1028,-295.683 1082.37,-299.052 1144.16,-300.244 1189.69,-300.626"/>
<polygon fill="midnightblue" stroke="midnightblue" points="1189.7,-304.126 1199.73,-300.699 1189.75,-297.126 1189.7,-304.126"/>
</g>
<!-- Node15 -->
<g id="node30" class="node"><title>Node15</title>
<a xlink:href="../../db/da2/namespacejs.html#ad81f7c892e54c34c67a930983b58c1b0" target="_top" xlink:title="js::GetReservedSlot">
<polygon fill="white" stroke="black" points="1203.5,-194.183 1203.5,-215.183 1308.5,-215.183 1308.5,-194.183 1203.5,-194.183"/>
<text text-anchor="middle" x="1256" y="-202.183" font-family="Helvetica,sans-Serif" font-size="10.00">js::GetReservedSlot</text>
</a>
</g>
<!-- Node13&#45;&gt;Node15 -->
<g id="edge30" class="edge"><title>Node13&#45;&gt;Node15</title>
<path fill="none" stroke="midnightblue" d="M992.129,-286.318C1044.59,-285.834 1109.02,-280.658 1164,-262.683 1190.99,-253.859 1218.02,-235.386 1235.73,-221.646"/>
<polygon fill="midnightblue" stroke="midnightblue" points="1237.99,-224.315 1243.63,-215.344 1233.63,-218.842 1237.99,-224.315"/>
</g>
<!-- Node13&#45;&gt;Node16 -->
<g id="edge34" class="edge"><title>Node13&#45;&gt;Node16</title>
<path fill="none" stroke="midnightblue" d="M946.206,-271.18C972.294,-266.217 1003.62,-260.258 1030.86,-255.075"/>
<polygon fill="midnightblue" stroke="midnightblue" points="1031.53,-258.512 1040.7,-253.204 1030.22,-251.635 1031.53,-258.512"/>
</g>
<!-- Node14&#45;&gt;Node12 -->
<g id="edge28" class="edge"><title>Node14&#45;&gt;Node12</title>
<path fill="none" stroke="midnightblue" d="M1282.38,-290.095C1304.89,-281.057 1337.48,-267.977 1362.32,-258.004"/>
<polygon fill="midnightblue" stroke="midnightblue" points="1363.79,-261.187 1371.76,-254.214 1361.18,-254.691 1363.79,-261.187"/>
</g>
<!-- Node15&#45;&gt;Node12 -->
<g id="edge32" class="edge"><title>Node15&#45;&gt;Node12</title>
<path fill="none" stroke="midnightblue" d="M1294.43,-215.237C1311.48,-219.919 1331.72,-225.48 1349.77,-230.438"/>
<polygon fill="midnightblue" stroke="midnightblue" points="1348.97,-233.847 1359.54,-233.12 1350.83,-227.097 1348.97,-233.847"/>
</g>
<!-- Node17&#45;&gt;Node12 -->
<g id="edge40" class="edge"><title>Node17&#45;&gt;Node12</title>
<path fill="none" stroke="midnightblue" d="M927.909,-116.243C955.476,-124.117 994.083,-135.117 1028,-144.683 1088.4,-161.719 1111.07,-148.958 1164,-182.683 1184.73,-195.894 1178.18,-213.353 1200,-224.683 1242.38,-246.688 1296.75,-250.464 1337.79,-249.284"/>
<polygon fill="midnightblue" stroke="midnightblue" points="1338.06,-252.776 1347.92,-248.885 1337.79,-245.781 1338.06,-252.776"/>
</g>
<!-- Node18 -->
<g id="node39" class="node"><title>Node18</title>
<a xlink:href="../../db/da2/namespacejs.html#afc902f82c906b6e3b871e899defc28cd" target="_top" xlink:title="js::GetProxyHandler">
<polygon fill="white" stroke="black" points="1043.5,-114.183 1043.5,-135.183 1148.5,-135.183 1148.5,-114.183 1043.5,-114.183"/>
<text text-anchor="middle" x="1096" y="-122.183" font-family="Helvetica,sans-Serif" font-size="10.00">js::GetProxyHandler</text>
</a>
</g>
<!-- Node17&#45;&gt;Node18 -->
<g id="edge42" class="edge"><title>Node17&#45;&gt;Node18</title>
<path fill="none" stroke="midnightblue" d="M958.693,-111.957C982.668,-114.179 1009.53,-116.668 1033.09,-118.852"/>
<polygon fill="midnightblue" stroke="midnightblue" points="1033.03,-122.362 1043.31,-119.8 1033.68,-115.391 1033.03,-122.362"/>
</g>
<!-- Node21 -->
<g id="node47" class="node"><title>Node21</title>
<a xlink:href="../../db/da2/namespacejs.html#ab7c4efa33dd1db699ed6960c8df32769" target="_top" xlink:title="js::IsFunctionProxyClass">
<polygon fill="white" stroke="black" points="1484.5,-65.1828 1484.5,-86.1828 1611.5,-86.1828 1611.5,-65.1828 1484.5,-65.1828"/>
<text text-anchor="middle" x="1548" y="-73.1828" font-family="Helvetica,sans-Serif" font-size="10.00">js::IsFunctionProxyClass</text>
</a>
</g>
<!-- Node17&#45;&gt;Node21 -->
<g id="edge58" class="edge"><title>Node17&#45;&gt;Node21</title>
<path fill="none" stroke="midnightblue" d="M958.529,-102.599C1082.55,-96.9363 1345.65,-84.9227 1474.2,-79.0528"/>
<polygon fill="midnightblue" stroke="midnightblue" points="1474.51,-82.5423 1484.34,-78.5897 1474.19,-75.5496 1474.51,-82.5423"/>
</g>
<!-- Node22 -->
<g id="node49" class="node"><title>Node22</title>
<a xlink:href="../../db/da2/namespacejs.html#aff283fd270a0f844f81537eea2e88666" target="_top" xlink:title="js::IsObjectProxyClass">
<polygon fill="white" stroke="black" points="1489,-16.1828 1489,-37.1828 1607,-37.1828 1607,-16.1828 1489,-16.1828"/>
<text text-anchor="middle" x="1548" y="-24.1828" font-family="Helvetica,sans-Serif" font-size="10.00">js::IsObjectProxyClass</text>
</a>
</g>
<!-- Node17&#45;&gt;Node22 -->
<g id="edge60" class="edge"><title>Node17&#45;&gt;Node22</title>
<path fill="none" stroke="midnightblue" d="M903.94,-95.0387C927.089,-76.7656 977.873,-40.1 1028,-26.6828 1184.61,15.2361 1377.39,-1.65673 1478.52,-15.4772"/>
<polygon fill="midnightblue" stroke="midnightblue" points="1478.22,-18.9695 1488.61,-16.8877 1479.19,-12.0369 1478.22,-18.9695"/>
</g>
<!-- Node24 -->
<g id="node55" class="node"><title>Node24</title>
<a xlink:href="../../d7/d4b/namespacemozilla_1_1dom.html#a6195201dc864c6aa8d7f6d5262d324e9" target="_top" xlink:title="mozilla::dom::ProxyFamily">
<polygon fill="white" stroke="black" points="1029.5,-36.1828 1029.5,-57.1828 1162.5,-57.1828 1162.5,-36.1828 1029.5,-36.1828"/>
<text text-anchor="middle" x="1096" y="-44.1828" font-family="Helvetica,sans-Serif" font-size="10.00">mozilla::dom::ProxyFamily</text>
</a>
</g>
<!-- Node17&#45;&gt;Node24 -->
<g id="edge62" class="edge"><title>Node17&#45;&gt;Node24</title>
<path fill="none" stroke="midnightblue" d="M927.65,-95.1348C961.652,-85.3489 1012.42,-70.7377 1049.31,-60.1203"/>
<polygon fill="midnightblue" stroke="midnightblue" points="1050.68,-63.3681 1059.32,-57.2388 1048.74,-56.6412 1050.68,-63.3681"/>
</g>
<!-- Node18&#45;&gt;Node15 -->
<g id="edge44" class="edge"><title>Node18&#45;&gt;Node15</title>
<path fill="none" stroke="midnightblue" d="M1133.32,-135.233C1143.67,-138.99 1154.63,-143.786 1164,-149.683 1182.89,-161.571 1181.06,-172.883 1200,-184.683 1203.17,-186.655 1206.55,-188.469 1210.04,-190.13"/>
<polygon fill="midnightblue" stroke="midnightblue" points="1208.83,-193.42 1219.39,-194.172 1211.6,-186.994 1208.83,-193.42"/>
</g>
<!-- Node19 -->
<g id="node42" class="node"><title>Node19</title>
<a xlink:href="../../db/da2/namespacejs.html#a5f2e5200310c72e68bb180fd6db2bf68" target="_top" xlink:title="js::IsProxy">
<polygon fill="white" stroke="black" points="1224,-114.183 1224,-135.183 1288,-135.183 1288,-114.183 1224,-114.183"/>
<text text-anchor="middle" x="1256" y="-122.183" font-family="Helvetica,sans-Serif" font-size="10.00">js::IsProxy</text>
</a>
</g>
<!-- Node18&#45;&gt;Node19 -->
<g id="edge46" class="edge"><title>Node18&#45;&gt;Node19</title>
<path fill="none" stroke="midnightblue" d="M1148.83,-124.683C1169.82,-124.683 1193.64,-124.683 1213.48,-124.683"/>
<polygon fill="midnightblue" stroke="midnightblue" points="1213.75,-128.183 1223.75,-124.683 1213.75,-121.183 1213.75,-128.183"/>
</g>
<!-- Node23 -->
<g id="node51" class="node"><title>Node23</title>
<a xlink:href="../../d1/d94/class_j_s_1_1_value.html#acb6cff159be405ffc5f5f64fa39a04db" target="_top" xlink:title="JS::Value::toPrivate">
<polygon fill="white" stroke="black" points="1204,-154.183 1204,-175.183 1308,-175.183 1308,-154.183 1204,-154.183"/>
<text text-anchor="middle" x="1256" y="-162.183" font-family="Helvetica,sans-Serif" font-size="10.00">JS::Value::toPrivate</text>
</a>
</g>
<!-- Node18&#45;&gt;Node23 -->
<g id="edge56" class="edge"><title>Node18&#45;&gt;Node23</title>
<path fill="none" stroke="midnightblue" d="M1138.04,-135.192C1158.26,-140.248 1182.7,-146.357 1204.07,-151.7"/>
<polygon fill="midnightblue" stroke="midnightblue" points="1203.41,-155.144 1213.97,-154.174 1205.11,-148.353 1203.41,-155.144"/>
</g>
<!-- Node19&#45;&gt;Node12 -->
<g id="edge48" class="edge"><title>Node19&#45;&gt;Node12</title>
<path fill="none" stroke="midnightblue" d="M1288.17,-133.012C1296.35,-135.957 1304.84,-139.791 1312,-144.683 1343.75,-166.369 1371.03,-202.525 1385.93,-224.623"/>
<polygon fill="midnightblue" stroke="midnightblue" points="1383.11,-226.714 1391.53,-233.15 1388.96,-222.87 1383.11,-226.714"/>
</g>
<!-- Node20 -->
<g id="node45" class="node"><title>Node20</title>
<a xlink:href="../../db/da2/namespacejs.html#ad965faa46bc843dcc541de166befa797" target="_top" xlink:title="js::IsProxyClass">
<polygon fill="white" stroke="black" points="1353.5,-36.1828 1353.5,-57.1828 1442.5,-57.1828 1442.5,-36.1828 1353.5,-36.1828"/>
<text text-anchor="middle" x="1398" y="-44.1828" font-family="Helvetica,sans-Serif" font-size="10.00">js::IsProxyClass</text>
</a>
</g>
<!-- Node19&#45;&gt;Node20 -->
<g id="edge50" class="edge"><title>Node19&#45;&gt;Node20</title>
<path fill="none" stroke="midnightblue" d="M1275.15,-114.163C1299.5,-100.789 1341.74,-77.5874 1369.78,-62.184"/>
<polygon fill="midnightblue" stroke="midnightblue" points="1371.62,-65.1669 1378.7,-57.2847 1368.25,-59.0315 1371.62,-65.1669"/>
</g>
<!-- Node20&#45;&gt;Node21 -->
<g id="edge52" class="edge"><title>Node20&#45;&gt;Node21</title>
<path fill="none" stroke="midnightblue" d="M1442.6,-55.3053C1455.45,-57.7908 1469.75,-60.5536 1483.55,-63.2224"/>
<polygon fill="midnightblue" stroke="midnightblue" points="1483.01,-66.6819 1493.49,-65.1438 1484.33,-59.8092 1483.01,-66.6819"/>
</g>
<!-- Node20&#45;&gt;Node22 -->
<g id="edge54" class="edge"><title>Node20&#45;&gt;Node22</title>
<path fill="none" stroke="midnightblue" d="M1442.6,-40.7363C1453.93,-39.225 1466.38,-37.5651 1478.63,-35.932"/>
<polygon fill="midnightblue" stroke="midnightblue" points="1479.39,-39.3613 1488.84,-34.5703 1478.47,-32.4227 1479.39,-39.3613"/>
</g>
<!-- Node26&#45;&gt;Node25 -->
<g id="edge68" class="edge"><title>Node26&#45;&gt;Node25</title>
<path fill="none" stroke="midnightblue" d="M942.201,-174.924C970.42,-180.017 1005.63,-186.372 1035.23,-191.715"/>
<polygon fill="midnightblue" stroke="midnightblue" points="1034.99,-195.227 1045.45,-193.559 1036.23,-188.339 1034.99,-195.227"/>
</g>
</g>
</svg>
        <g id="navigator" transform="translate(0 0)" fill="#404254">
                <rect fill="#f2f5e9" fill-opacity="0.5" stroke="#606060" stroke-width=".5" x="0" y="0" width="60" height="60"/>
                <use id="zoomplus" xlink:href="#zoomPlus" x="17" y="9" onmousedown="handleZoom(evt,'in')"/>
                <use id="zoomminus" xlink:href="#zoomMin" x="42" y="9" onmousedown="handleZoom(evt,'out')"/>
                <use id="reset" xlink:href="#resetDef" x="30" y="36" onmousedown="handleReset()"/>
                <g id="arrowUp" xlink:href="#dirArrow" transform="translate(30 24)" onmousedown="handlePan(0,-1)">
                  <use xlink:href="#rim" fill="#404040">
                        <set attributeName="fill" to="#808080" begin="arrowUp.mouseover" end="arrowUp.mouseout"/>
                  </use>
                  <path fill="none" stroke="white" stroke-width="1.5" d="M0,-3.0v7 M-2.5,-0.5L0,-3.0L2.5,-0.5"/>
                </g>
                <g id="arrowRight" xlink:href="#dirArrow" transform="rotate(90) translate(36 -43)" onmousedown="handlePan(1,0)">
                  <use xlink:href="#rim" fill="#404040">
                        <set attributeName="fill" to="#808080" begin="arrowRight.mouseover" end="arrowRight.mouseout"/>
                  </use>
                  <path fill="none" stroke="white" stroke-width="1.5" d="M0,-3.0v7 M-2.5,-0.5L0,-3.0L2.5,-0.5"/>
                </g>
                <g id="arrowDown" xlink:href="#dirArrow" transform="rotate(180) translate(-30 -48)" onmousedown="handlePan(0,1)">
                  <use xlink:href="#rim" fill="#404040">
                        <set attributeName="fill" to="#808080" begin="arrowDown.mouseover" end="arrowDown.mouseout"/>
                  </use>
                  <path fill="none" stroke="white" stroke-width="1.5" d="M0,-3.0v7 M-2.5,-0.5L0,-3.0L2.5,-0.5"/>
                </g>
                <g id="arrowLeft" xlink:href="#dirArrow" transform="rotate(270) translate(-36 17)" onmousedown="handlePan(-1,0)">
                  <use xlink:href="#rim" fill="#404040">
                        <set attributeName="fill" to="#808080" begin="arrowLeft.mouseover" end="arrowLeft.mouseout"/>
                  </use>
                  <path fill="none" stroke="white" stroke-width="1.5" d="M0,-3.0v7 M-2.5,-0.5L0,-3.0L2.5,-0.5"/>
                </g>
        </g>
</svg>
