<?xml version="1.0" encoding="UTF-8" standalone="no"?>
<!DOCTYPE svg PUBLIC "-//W3C//DTD SVG 1.1//EN"
 "http://www.w3.org/Graphics/SVG/1.1/DTD/svg11.dtd">
<!-- Generated by graphviz version 2.26.3 (20100126.1600)
 -->
<!-- Title: G Pages: 1 -->
<!--zoomable 236 -->
<svg id="main" version="1.1" xmlns="http://www.w3.org/2000/svg" xmlns:xlink="http://www.w3.org/1999/xlink" xml:space="preserve" onload="init(evt)">
        <defs>
                <circle id="rim" cx="0" cy="0" r="7"/>
                <circle id="rim2" cx="0" cy="0" r="3.5"/>
                <g id="zoomPlus">
                        <use xlink:href="#rim" fill="#404040">
                                <set attributeName="fill" to="#808080" begin="zoomplus.mouseover" end="zoomplus.mouseout"/>
                        </use>
                        <path d="M-4,0h8M0,-4v8" fill="none" stroke="white" stroke-width="1.5" pointer-events="none"/>
                </g>
                <g id="zoomMin">
                        <use xlink:href="#rim" fill="#404040">
                                <set attributeName="fill" to="#808080" begin="zoomminus.mouseover" end="zoomminus.mouseout"/>
                        </use>
                        <path d="M-4,0h8" fill="none" stroke="white" stroke-width="1.5" pointer-events="none"/>
                </g>
                <g id="dirArrow">
                        <path fill="none" stroke="white" stroke-width="1.5" d="M0,-3.0v7 M-2.5,-0.5L0,-3.0L2.5,-0.5"/>
                </g>
               <g id="resetDef">
                       <use xlink:href="#rim2" fill="#404040">
                               <set attributeName="fill" to="#808080" begin="reset.mouseover" end="reset.mouseout"/>
                       </use>
               </g>
        </defs>

<script type="text/javascript">
var viewWidth = 928;
var viewHeight = 236;
var sectionId = 'dynsection-53';
</script>
<script xlink:href="../../svgpan.js"/>
<svg id="graph" class="graph">
<g id="viewport">
<title>G</title>
<polygon fill="white" stroke="white" points="-4,5 -4,-232.227 925,-232.227 925,5 -4,5"/>
<!-- Node1 -->
<g id="node1" class="node"><title>Node1</title>
<polygon fill="#bfbfbf" stroke="black" points="0.5,-206.727 0.5,-227.727 135.5,-227.727 135.5,-206.727 0.5,-206.727"/>
<text text-anchor="middle" x="68" y="-214.727" font-family="Helvetica,sans-Serif" font-size="10.00">mozilla::dom::IsDOMProxy</text>
</g>
<!-- Node2 -->
<g id="node3" class="node"><title>Node2</title>
<a xlink:href="../../db/da2/namespacejs.html#aca7ef07fd5e632405949331c6929f1e6" target="_top" xlink:title="js::GetObjectClass">
<polygon fill="white" stroke="black" points="656,-109.727 656,-130.727 756,-130.727 756,-109.727 656,-109.727"/>
<text text-anchor="middle" x="706" y="-117.727" font-family="Helvetica,sans-Serif" font-size="10.00">js::GetObjectClass</text>
</a>
</g>
<!-- Node1&#45;&gt;Node2 -->
<g id="edge2" class="edge"><title>Node1&#45;&gt;Node2</title>
<path fill="none" stroke="midnightblue" d="M135.594,-219.004C217.264,-220.063 358.585,-218.403 478,-199.227 542.738,-188.831 558.412,-181.72 620,-159.227 639.052,-152.269 659.775,-142.928 676.104,-135.131"/>
<polygon fill="midnightblue" stroke="midnightblue" points="677.686,-138.254 685.165,-130.75 674.639,-131.952 677.686,-138.254"/>
</g>
<!-- Node3 -->
<g id="node5" class="node"><title>Node3</title>
<a xlink:href="../../d7/d4b/namespacemozilla_1_1dom.html#a375a5202da47e5c7a4427078a16cd060" target="_top" xlink:title="mozilla::dom::IsDOMProxy">
<polygon fill="white" stroke="black" points="172.5,-148.727 172.5,-169.727 307.5,-169.727 307.5,-148.727 172.5,-148.727"/>
<text text-anchor="middle" x="240" y="-156.727" font-family="Helvetica,sans-Serif" font-size="10.00">mozilla::dom::IsDOMProxy</text>
</a>
</g>
<!-- Node1&#45;&gt;Node3 -->
<g id="edge4" class="edge"><title>Node1&#45;&gt;Node3</title>
<path fill="none" stroke="midnightblue" d="M99.1479,-206.724C127.189,-197.268 168.582,-183.31 199.245,-172.97"/>
<polygon fill="midnightblue" stroke="midnightblue" points="200.436,-176.262 208.794,-169.75 198.2,-169.629 200.436,-176.262"/>
</g>
<!-- Node3&#45;&gt;Node2 -->
<g id="edge6" class="edge"><title>Node3&#45;&gt;Node2</title>
<path fill="none" stroke="midnightblue" d="M307.741,-157.583C400.381,-155.064 561.741,-149.64 620,-141.227 632.963,-139.355 646.826,-136.402 659.552,-133.296"/>
<polygon fill="midnightblue" stroke="midnightblue" points="660.638,-136.631 669.476,-130.789 658.924,-129.845 660.638,-136.631"/>
</g>
<!-- Node4 -->
<g id="node8" class="node"><title>Node4</title>
<a xlink:href="../../db/da2/namespacejs.html#afc902f82c906b6e3b871e899defc28cd" target="_top" xlink:title="js::GetProxyHandler">
<polygon fill="white" stroke="black" points="358.5,-70.7269 358.5,-91.7269 463.5,-91.7269 463.5,-70.7269 358.5,-70.7269"/>
<text text-anchor="middle" x="411" y="-78.7269" font-family="Helvetica,sans-Serif" font-size="10.00">js::GetProxyHandler</text>
</a>
</g>
<!-- Node3&#45;&gt;Node4 -->
<g id="edge8" class="edge"><title>Node3&#45;&gt;Node4</title>
<path fill="none" stroke="midnightblue" d="M263.062,-148.707C292.766,-135.158 344.578,-111.525 378.329,-96.1294"/>
<polygon fill="midnightblue" stroke="midnightblue" points="380.112,-99.1632 387.757,-91.8288 377.207,-92.7945 380.112,-99.1632"/>
</g>
<!-- Node8 -->
<g id="node18" class="node"><title>Node8</title>
<a xlink:href="../../db/da2/namespacejs.html#ab7c4efa33dd1db699ed6960c8df32769" target="_top" xlink:title="js::IsFunctionProxyClass">
<polygon fill="white" stroke="black" points="792.5,-10.7269 792.5,-31.7269 919.5,-31.7269 919.5,-10.7269 792.5,-10.7269"/>
<text text-anchor="middle" x="856" y="-18.7269" font-family="Helvetica,sans-Serif" font-size="10.00">js::IsFunctionProxyClass</text>
</a>
</g>
<!-- Node3&#45;&gt;Node8 -->
<g id="edge26" class="edge"><title>Node3&#45;&gt;Node8</title>
<path fill="none" stroke="midnightblue" d="M248.134,-148.463C264.133,-128.089 301.83,-83.9043 344,-61.2269 484.591,14.3771 678.959,3.79575 783.119,-9.39954"/>
<polygon fill="midnightblue" stroke="midnightblue" points="782.849,-12.894 793.22,-10.7234 783.759,-5.95338 782.849,-12.894"/>
</g>
<!-- Node9 -->
<g id="node20" class="node"><title>Node9</title>
<a xlink:href="../../db/da2/namespacejs.html#aff283fd270a0f844f81537eea2e88666" target="_top" xlink:title="js::IsObjectProxyClass">
<polygon fill="white" stroke="black" points="797,-128.727 797,-149.727 915,-149.727 915,-128.727 797,-128.727"/>
<text text-anchor="middle" x="856" y="-136.727" font-family="Helvetica,sans-Serif" font-size="10.00">js::IsObjectProxyClass</text>
</a>
</g>
<!-- Node3&#45;&gt;Node9 -->
<g id="edge28" class="edge"><title>Node3&#45;&gt;Node9</title>
<path fill="none" stroke="midnightblue" d="M260.842,-169.871C281.376,-179.718 313.949,-193.647 344,-199.227 516.845,-231.32 725.883,-178.838 813.809,-152.675"/>
<polygon fill="midnightblue" stroke="midnightblue" points="814.863,-156.013 823.426,-149.774 812.841,-149.311 814.863,-156.013"/>
</g>
<!-- Node11 -->
<g id="node26" class="node"><title>Node11</title>
<a xlink:href="../../d7/d4b/namespacemozilla_1_1dom.html#a6195201dc864c6aa8d7f6d5262d324e9" target="_top" xlink:title="mozilla::dom::ProxyFamily">
<polygon fill="white" stroke="black" points="344.5,-168.727 344.5,-189.727 477.5,-189.727 477.5,-168.727 344.5,-168.727"/>
<text text-anchor="middle" x="411" y="-176.727" font-family="Helvetica,sans-Serif" font-size="10.00">mozilla::dom::ProxyFamily</text>
</a>
</g>
<!-- Node3&#45;&gt;Node11 -->
<g id="edge30" class="edge"><title>Node3&#45;&gt;Node11</title>
<path fill="none" stroke="midnightblue" d="M307.584,-167.131C316.401,-168.163 325.485,-169.225 334.437,-170.272"/>
<polygon fill="midnightblue" stroke="midnightblue" points="334.127,-173.76 344.466,-171.445 334.941,-166.807 334.127,-173.76"/>
</g>
<!-- Node5 -->
<g id="node10" class="node"><title>Node5</title>
<a xlink:href="../../db/da2/namespacejs.html#ad81f7c892e54c34c67a930983b58c1b0" target="_top" xlink:title="js::GetReservedSlot">
<polygon fill="white" stroke="black" points="514.5,-70.7269 514.5,-91.7269 619.5,-91.7269 619.5,-70.7269 514.5,-70.7269"/>
<text text-anchor="middle" x="567" y="-78.7269" font-family="Helvetica,sans-Serif" font-size="10.00">js::GetReservedSlot</text>
</a>
</g>
<!-- Node4&#45;&gt;Node5 -->
<g id="edge10" class="edge"><title>Node4&#45;&gt;Node5</title>
<path fill="none" stroke="midnightblue" d="M463.814,-81.2269C476.775,-81.2269 490.775,-81.2269 504.156,-81.2269"/>
<polygon fill="midnightblue" stroke="midnightblue" points="504.24,-84.727 514.24,-81.2269 504.24,-77.727 504.24,-84.727"/>
</g>
<!-- Node6 -->
<g id="node13" class="node"><title>Node6</title>
<a xlink:href="../../db/da2/namespacejs.html#a5f2e5200310c72e68bb180fd6db2bf68" target="_top" xlink:title="js::IsProxy">
<polygon fill="white" stroke="black" points="535,-30.7269 535,-51.7269 599,-51.7269 599,-30.7269 535,-30.7269"/>
<text text-anchor="middle" x="567" y="-38.7269" font-family="Helvetica,sans-Serif" font-size="10.00">js::IsProxy</text>
</a>
</g>
<!-- Node4&#45;&gt;Node6 -->
<g id="edge14" class="edge"><title>Node4&#45;&gt;Node6</title>
<path fill="none" stroke="midnightblue" d="M451.987,-70.7174C474.556,-64.9305 502.507,-57.7637 525.202,-51.9442"/>
<polygon fill="midnightblue" stroke="midnightblue" points="526.081,-55.3322 534.898,-49.4581 524.342,-48.5516 526.081,-55.3322"/>
</g>
<!-- Node10 -->
<g id="node22" class="node"><title>Node10</title>
<a xlink:href="../../d1/d94/class_j_s_1_1_value.html#acb6cff159be405ffc5f5f64fa39a04db" target="_top" xlink:title="JS::Value::toPrivate">
<polygon fill="white" stroke="black" points="515,-110.727 515,-131.727 619,-131.727 619,-110.727 515,-110.727"/>
<text text-anchor="middle" x="567" y="-118.727" font-family="Helvetica,sans-Serif" font-size="10.00">JS::Value::toPrivate</text>
</a>
</g>
<!-- Node4&#45;&gt;Node10 -->
<g id="edge24" class="edge"><title>Node4&#45;&gt;Node10</title>
<path fill="none" stroke="midnightblue" d="M451.987,-91.7364C471.615,-96.7691 495.313,-102.846 516.085,-108.172"/>
<polygon fill="midnightblue" stroke="midnightblue" points="515.46,-111.625 526.016,-110.718 517.199,-104.844 515.46,-111.625"/>
</g>
<!-- Node5&#45;&gt;Node2 -->
<g id="edge12" class="edge"><title>Node5&#45;&gt;Node2</title>
<path fill="none" stroke="midnightblue" d="M604.615,-91.7809C621.149,-96.4198 640.757,-101.921 658.302,-106.844"/>
<polygon fill="midnightblue" stroke="midnightblue" points="657.781,-110.333 668.355,-109.664 659.672,-103.593 657.781,-110.333"/>
</g>
<!-- Node6&#45;&gt;Node2 -->
<g id="edge16" class="edge"><title>Node6&#45;&gt;Node2</title>
<path fill="none" stroke="midnightblue" d="M598.653,-51.7476C605.817,-54.5172 613.287,-57.7228 620,-61.2269 643.237,-73.3558 667.694,-90.6342 684.561,-103.359"/>
<polygon fill="midnightblue" stroke="midnightblue" points="682.575,-106.247 692.643,-109.548 686.831,-100.689 682.575,-106.247"/>
</g>
<!-- Node7 -->
<g id="node16" class="node"><title>Node7</title>
<a xlink:href="../../db/da2/namespacejs.html#ad965faa46bc843dcc541de166befa797" target="_top" xlink:title="js::IsProxyClass">
<polygon fill="white" stroke="black" points="661.5,-30.7269 661.5,-51.7269 750.5,-51.7269 750.5,-30.7269 661.5,-30.7269"/>
<text text-anchor="middle" x="706" y="-38.7269" font-family="Helvetica,sans-Serif" font-size="10.00">js::IsProxyClass</text>
</a>
</g>
<!-- Node6&#45;&gt;Node7 -->
<g id="edge18" class="edge"><title>Node6&#45;&gt;Node7</title>
<path fill="none" stroke="midnightblue" d="M599.239,-41.2269C614.658,-41.2269 633.552,-41.2269 651.136,-41.2269"/>
<polygon fill="midnightblue" stroke="midnightblue" points="651.302,-44.727 661.302,-41.2269 651.302,-37.727 651.302,-44.727"/>
</g>
<!-- Node7&#45;&gt;Node8 -->
<g id="edge20" class="edge"><title>Node7&#45;&gt;Node8</title>
<path fill="none" stroke="midnightblue" d="M750.599,-35.2804C760.649,-33.9404 771.576,-32.4835 782.461,-31.0321"/>
<polygon fill="midnightblue" stroke="midnightblue" points="782.971,-34.4952 792.42,-29.7042 782.046,-27.5566 782.971,-34.4952"/>
</g>
<!-- Node7&#45;&gt;Node9 -->
<g id="edge22" class="edge"><title>Node7&#45;&gt;Node9</title>
<path fill="none" stroke="midnightblue" d="M722.338,-51.9012C748.6,-69.0587 800.373,-102.884 831.207,-123.029"/>
<polygon fill="midnightblue" stroke="midnightblue" points="829.396,-126.026 839.682,-128.566 833.225,-120.166 829.396,-126.026"/>
</g>
</g>
</svg>
        <g id="navigator" transform="translate(0 0)" fill="#404254">
                <rect fill="#f2f5e9" fill-opacity="0.5" stroke="#606060" stroke-width=".5" x="0" y="0" width="60" height="60"/>
                <use id="zoomplus" xlink:href="#zoomPlus" x="17" y="9" onmousedown="handleZoom(evt,'in')"/>
                <use id="zoomminus" xlink:href="#zoomMin" x="42" y="9" onmousedown="handleZoom(evt,'out')"/>
                <use id="reset" xlink:href="#resetDef" x="30" y="36" onmousedown="handleReset()"/>
                <g id="arrowUp" xlink:href="#dirArrow" transform="translate(30 24)" onmousedown="handlePan(0,-1)">
                  <use xlink:href="#rim" fill="#404040">
                        <set attributeName="fill" to="#808080" begin="arrowUp.mouseover" end="arrowUp.mouseout"/>
                  </use>
                  <path fill="none" stroke="white" stroke-width="1.5" d="M0,-3.0v7 M-2.5,-0.5L0,-3.0L2.5,-0.5"/>
                </g>
                <g id="arrowRight" xlink:href="#dirArrow" transform="rotate(90) translate(36 -43)" onmousedown="handlePan(1,0)">
                  <use xlink:href="#rim" fill="#404040">
                        <set attributeName="fill" to="#808080" begin="arrowRight.mouseover" end="arrowRight.mouseout"/>
                  </use>
                  <path fill="none" stroke="white" stroke-width="1.5" d="M0,-3.0v7 M-2.5,-0.5L0,-3.0L2.5,-0.5"/>
                </g>
                <g id="arrowDown" xlink:href="#dirArrow" transform="rotate(180) translate(-30 -48)" onmousedown="handlePan(0,1)">
                  <use xlink:href="#rim" fill="#404040">
                        <set attributeName="fill" to="#808080" begin="arrowDown.mouseover" end="arrowDown.mouseout"/>
                  </use>
                  <path fill="none" stroke="white" stroke-width="1.5" d="M0,-3.0v7 M-2.5,-0.5L0,-3.0L2.5,-0.5"/>
                </g>
                <g id="arrowLeft" xlink:href="#dirArrow" transform="rotate(270) translate(-36 17)" onmousedown="handlePan(-1,0)">
                  <use xlink:href="#rim" fill="#404040">
                        <set attributeName="fill" to="#808080" begin="arrowLeft.mouseover" end="arrowLeft.mouseout"/>
                  </use>
                  <path fill="none" stroke="white" stroke-width="1.5" d="M0,-3.0v7 M-2.5,-0.5L0,-3.0L2.5,-0.5"/>
                </g>
        </g>
</svg>
