<?xml version="1.0" encoding="UTF-8" standalone="no"?>
<!DOCTYPE svg PUBLIC "-//W3C//DTD SVG 1.1//EN"
 "http://www.w3.org/Graphics/SVG/1.1/DTD/svg11.dtd">
<!-- Generated by graphviz version 2.26.3 (20100126.1600)
 -->
<!-- Title: G Pages: 1 -->
<!--zoomable 888 -->
<svg id="main" version="1.1" xmlns="http://www.w3.org/2000/svg" xmlns:xlink="http://www.w3.org/1999/xlink" xml:space="preserve" onload="init(evt)">
        <defs>
                <circle id="rim" cx="0" cy="0" r="7"/>
                <circle id="rim2" cx="0" cy="0" r="3.5"/>
                <g id="zoomPlus">
                        <use xlink:href="#rim" fill="#404040">
                                <set attributeName="fill" to="#808080" begin="zoomplus.mouseover" end="zoomplus.mouseout"/>
                        </use>
                        <path d="M-4,0h8M0,-4v8" fill="none" stroke="white" stroke-width="1.5" pointer-events="none"/>
                </g>
                <g id="zoomMin">
                        <use xlink:href="#rim" fill="#404040">
                                <set attributeName="fill" to="#808080" begin="zoomminus.mouseover" end="zoomminus.mouseout"/>
                        </use>
                        <path d="M-4,0h8" fill="none" stroke="white" stroke-width="1.5" pointer-events="none"/>
                </g>
                <g id="dirArrow">
                        <path fill="none" stroke="white" stroke-width="1.5" d="M0,-3.0v7 M-2.5,-0.5L0,-3.0L2.5,-0.5"/>
                </g>
               <g id="resetDef">
                       <use xlink:href="#rim2" fill="#404040">
                               <set attributeName="fill" to="#808080" begin="reset.mouseover" end="reset.mouseout"/>
                       </use>
               </g>
        </defs>

<script type="text/javascript">
var viewWidth = 1875;
var viewHeight = 888;
var sectionId = 'dynsection-1';
</script>
<script xlink:href="../../svgpan.js"/>
<svg id="graph" class="graph">
<g id="viewport">
<title>G</title>
<polygon fill="white" stroke="white" points="-4,5 -4,-884 1872,-884 1872,5 -4,5"/>
<!-- Node1 -->
<g id="node1" class="node"><title>Node1</title>
<polygon fill="#bfbfbf" stroke="black" points="951,-0.5 951,-21.5 1045,-21.5 1045,-0.5 951,-0.5"/>
<text text-anchor="middle" x="998" y="-8.5" font-family="Helvetica,sans-Serif" font-size="10.00">nsDisplayGeneric</text>
</g>
<!-- Node2 -->
<g id="node2" class="node"><title>Node2</title>
<a xlink:href="../../db/d9b/classns_display_item.html" target="_top" xlink:title="nsDisplayItem">
<polygon fill="white" stroke="black" points="1094,-100.5 1094,-121.5 1174,-121.5 1174,-100.5 1094,-100.5"/>
<text text-anchor="middle" x="1134" y="-108.5" font-family="Helvetica,sans-Serif" font-size="10.00">nsDisplayItem</text>
</a>
</g>
<!-- Node2&#45;&gt;Node1 -->
<g id="edge2" class="edge"><title>Node2&#45;&gt;Node1</title>
<path fill="none" stroke="midnightblue" d="M1111.3,-94.3073C1083.2,-73.6451 1036.17,-39.064 1012.52,-21.6729"/>
<polygon fill="midnightblue" stroke="midnightblue" points="1109.57,-97.3831 1119.7,-100.487 1113.72,-91.7435 1109.57,-97.3831"/>
</g>
<!-- Node3 -->
<g id="node4" class="node"><title>Node3</title>
<a xlink:href="../../d7/d5b/classns_display_item_link.html" target="_top" xlink:title="nsDisplayItemLink">
<polygon fill="white" stroke="black" points="1078,-0.5 1078,-21.5 1176,-21.5 1176,-0.5 1078,-0.5"/>
<text text-anchor="middle" x="1127" y="-8.5" font-family="Helvetica,sans-Serif" font-size="10.00">nsDisplayItemLink</text>
</a>
</g>
<!-- Node2&#45;&gt;Node3 -->
<g id="edge6" class="edge"><title>Node2&#45;&gt;Node3</title>
<path fill="none" stroke="#9a32cd" stroke-dasharray="5,2" d="M1132.54,-90.189C1131.08,-69.2803 1128.88,-37.8923 1127.74,-21.6248"/>
<polygon fill="#9a32cd" stroke="#9a32cd" points="1129.06,-90.5671 1133.25,-100.298 1136.04,-90.0782 1129.06,-90.5671"/>
<text text-anchor="middle" x="1152" y="-57.5" font-family="Helvetica,sans-Serif" font-size="10.00"> mAbove</text>
</g>
<!-- Node3&#45;&gt;Node2 -->
<g id="edge4" class="edge"><title>Node3&#45;&gt;Node2</title>
<path fill="none" stroke="midnightblue" d="M1118.31,-31.1223C1117.36,-34.0529 1116.54,-37.0704 1116,-40 1112.8,-57.4865 1111.38,-62.8337 1116,-80 1117.97,-87.3314 1122.15,-94.7156 1125.99,-100.437"/>
<polygon fill="midnightblue" stroke="midnightblue" points="1121.59,-32.3389 1121.86,-21.7473 1115.04,-29.8619 1121.59,-32.3389"/>
</g>
<!-- Node4 -->
<g id="node7" class="node"><title>Node4</title>
<a xlink:href="../../d6/d7b/structns_point.html" target="_top" xlink:title="nsPoint">
<polygon fill="white" stroke="black" points="1339,-186.5 1339,-207.5 1389,-207.5 1389,-186.5 1339,-186.5"/>
<text text-anchor="middle" x="1364" y="-194.5" font-family="Helvetica,sans-Serif" font-size="10.00">nsPoint</text>
</a>
</g>
<!-- Node4&#45;&gt;Node2 -->
<g id="edge8" class="edge"><title>Node4&#45;&gt;Node2</title>
<path fill="none" stroke="#9a32cd" stroke-dasharray="5,2" d="M1335.43,-181.703C1312.32,-169.76 1278.68,-153.344 1248,-142 1223.95,-133.109 1196.21,-125.51 1174.11,-120.061"/>
<polygon fill="#9a32cd" stroke="#9a32cd" points="1333.86,-184.834 1344.35,-186.359 1337.1,-178.629 1333.86,-184.834"/>
<text text-anchor="middle" x="1353" y="-152.5" font-family="Helvetica,sans-Serif" font-size="10.00"> mToReferenceFrame</text>
</g>
<!-- Node5 -->
<g id="node9" class="node"><title>Node5</title>
<a xlink:href="../../d2/dfb/structmozilla_1_1gfx_1_1_base_point.html" target="_top" xlink:title="mozilla::gfx::BasePoint\&lt; nscoord, nsPoint \&gt;">
<polygon fill="white" stroke="black" points="1285.5,-279.5 1285.5,-300.5 1494.5,-300.5 1494.5,-279.5 1285.5,-279.5"/>
<text text-anchor="middle" x="1390" y="-287.5" font-family="Helvetica,sans-Serif" font-size="10.00">mozilla::gfx::BasePoint&lt; nscoord, nsPoint &gt;</text>
</a>
</g>
<!-- Node5&#45;&gt;Node4 -->
<g id="edge10" class="edge"><title>Node5&#45;&gt;Node4</title>
<path fill="none" stroke="midnightblue" d="M1384.26,-269.472C1378.91,-250.329 1371.14,-222.54 1366.95,-207.544"/>
<polygon fill="midnightblue" stroke="midnightblue" points="1380.95,-270.643 1387.02,-279.332 1387.7,-268.759 1380.95,-270.643"/>
</g>
<!-- Node6 -->
<g id="node11" class="node"><title>Node6</title>
<a xlink:href="../../da/d95/classmozilla_1_1_display_item_clip.html" target="_top" xlink:title="mozilla::DisplayItemClip">
<polygon fill="white" stroke="black" points="1072.5,-186.5 1072.5,-207.5 1195.5,-207.5 1195.5,-186.5 1072.5,-186.5"/>
<text text-anchor="middle" x="1134" y="-194.5" font-family="Helvetica,sans-Serif" font-size="10.00">mozilla::DisplayItemClip</text>
</a>
</g>
<!-- Node6&#45;&gt;Node2 -->
<g id="edge12" class="edge"><title>Node6&#45;&gt;Node2</title>
<path fill="none" stroke="#9a32cd" stroke-dasharray="5,2" d="M1134,-176.256C1134,-159.026 1134,-135.215 1134,-121.632"/>
<polygon fill="#9a32cd" stroke="#9a32cd" points="1130.5,-176.455 1134,-186.455 1137.5,-176.455 1130.5,-176.455"/>
<text text-anchor="middle" x="1148.5" y="-152.5" font-family="Helvetica,sans-Serif" font-size="10.00"> mClip</text>
</g>
<!-- Node7 -->
<g id="node13" class="node"><title>Node7</title>
<a xlink:href="../../da/d97/structns_rect.html" target="_top" xlink:title="nsRect">
<polygon fill="white" stroke="black" points="1220,-279.5 1220,-300.5 1268,-300.5 1268,-279.5 1220,-279.5"/>
<text text-anchor="middle" x="1244" y="-287.5" font-family="Helvetica,sans-Serif" font-size="10.00">nsRect</text>
</a>
</g>
<!-- Node7&#45;&gt;Node2 -->
<g id="edge14" class="edge"><title>Node7&#45;&gt;Node2</title>
<path fill="none" stroke="#9a32cd" stroke-dasharray="5,2" d="M1238.39,-269.705C1231.92,-248.061 1220.07,-213.221 1204,-186 1191.01,-163.996 1184.56,-160.557 1167,-142 1160.3,-134.921 1152.35,-127.427 1145.93,-121.58"/>
<polygon fill="#9a32cd" stroke="#9a32cd" points="1235.07,-270.809 1241.21,-279.445 1241.79,-268.866 1235.07,-270.809"/>
<text text-anchor="middle" x="1245" y="-194.5" font-family="Helvetica,sans-Serif" font-size="10.00"> mVisibleRect</text>
</g>
<!-- Node9 -->
<g id="node17" class="node"><title>Node9</title>
<a xlink:href="../../d7/d20/classns_i_frame.html" target="_top" xlink:title="nsIFrame">
<polygon fill="white" stroke="black" points="934,-186.5 934,-207.5 992,-207.5 992,-186.5 934,-186.5"/>
<text text-anchor="middle" x="963" y="-194.5" font-family="Helvetica,sans-Serif" font-size="10.00">nsIFrame</text>
</a>
</g>
<!-- Node7&#45;&gt;Node9 -->
<g id="edge74" class="edge"><title>Node7&#45;&gt;Node9</title>
<path fill="none" stroke="#9a32cd" stroke-dasharray="5,2" d="M1227.94,-271.74C1222.89,-266.785 1217.05,-261.758 1211,-258 1174.94,-235.6 1162.01,-236.978 1121,-226 1076.68,-214.136 1024.08,-205.545 992.141,-200.919"/>
<polygon fill="#9a32cd" stroke="#9a32cd" points="1225.69,-274.452 1235.12,-279.273 1230.75,-269.621 1225.69,-274.452"/>
<text text-anchor="middle" x="1190.5" y="-230.5" font-family="Helvetica,sans-Serif" font-size="10.00"> mRect</text>
</g>
<!-- Node8 -->
<g id="node15" class="node"><title>Node8</title>
<a xlink:href="../../dc/db8/structmozilla_1_1gfx_1_1_base_rect.html" target="_top" xlink:title="mozilla::gfx::BaseRect\&lt; nscoord, nsRect, nsPoint, nsSize, nsMargin \&gt;">
<polygon fill="white" stroke="black" points="1540.5,-372.5 1540.5,-393.5 1867.5,-393.5 1867.5,-372.5 1540.5,-372.5"/>
<text text-anchor="middle" x="1704" y="-380.5" font-family="Helvetica,sans-Serif" font-size="10.00">mozilla::gfx::BaseRect&lt; nscoord, nsRect, nsPoint, nsSize, nsMargin &gt;</text>
</a>
</g>
<!-- Node8&#45;&gt;Node7 -->
<g id="edge16" class="edge"><title>Node8&#45;&gt;Node7</title>
<path fill="none" stroke="midnightblue" d="M1623.9,-370.976C1565.03,-362.204 1483.07,-350.129 1411,-340 1351.49,-331.637 1331.06,-348.233 1277,-322 1266.95,-317.122 1258.02,-308.009 1251.99,-300.752"/>
<polygon fill="midnightblue" stroke="midnightblue" points="1623.47,-374.451 1633.88,-372.464 1624.51,-367.528 1623.47,-374.451"/>
</g>
<!-- Node9&#45;&gt;Node1 -->
<g id="edge106" class="edge"><title>Node9&#45;&gt;Node1</title>
<path fill="none" stroke="#9a32cd" stroke-dasharray="5,2" d="M966.871,-176.427C974.291,-136.998 990.28,-52.0275 995.953,-21.8809"/>
<polygon fill="#9a32cd" stroke="#9a32cd" points="963.392,-175.992 964.982,-186.467 970.271,-177.287 963.392,-175.992"/>
<text text-anchor="middle" x="999" y="-108.5" font-family="Helvetica,sans-Serif" font-size="10.00"> mPaint</text>
</g>
<!-- Node9&#45;&gt;Node2 -->
<g id="edge18" class="edge"><title>Node9&#45;&gt;Node2</title>
<path fill="none" stroke="#9a32cd" stroke-dasharray="5,2" d="M986.603,-180.863C1007.26,-166.905 1035.8,-148.044 1048,-142 1064.21,-133.965 1083.04,-126.939 1098.94,-121.617"/>
<polygon fill="#9a32cd" stroke="#9a32cd" points="984.615,-177.982 978.306,-186.493 988.546,-183.774 984.615,-177.982"/>
<text text-anchor="middle" x="1089" y="-159" font-family="Helvetica,sans-Serif" font-size="10.00"> mFrame</text>
<text text-anchor="middle" x="1089" y="-146" font-family="Helvetica,sans-Serif" font-size="10.00">mReferenceFrame</text>
</g>
<!-- Node9&#45;&gt;Node9 -->
<g id="edge104" class="edge"><title>Node9&#45;&gt;Node9</title>
<path fill="none" stroke="#9a32cd" stroke-dasharray="5,2" d="M1002.6,-202.72C1007.09,-201.649 1010,-199.742 1010,-197 1010,-192.5 1002.17,-190.25 992.375,-190.25"/>
<polygon fill="#9a32cd" stroke="#9a32cd" points="1001.97,-199.266 992.375,-203.75 1002.68,-206.23 1001.97,-199.266"/>
<text text-anchor="middle" x="1030" y="-194.5" font-family="Helvetica,sans-Serif" font-size="10.00"> mParent</text>
</g>
<!-- Node13 -->
<g id="node25" class="node"><title>Node13</title>
<a xlink:href="../../d7/de8/classns_i_node.html" target="_top" xlink:title="nsINode">
<polygon fill="white" stroke="black" points="722.5,-100.5 722.5,-121.5 775.5,-121.5 775.5,-100.5 722.5,-100.5"/>
<text text-anchor="middle" x="749" y="-108.5" font-family="Helvetica,sans-Serif" font-size="10.00">nsINode</text>
</a>
</g>
<!-- Node9&#45;&gt;Node13 -->
<g id="edge72" class="edge"><title>Node9&#45;&gt;Node13</title>
<path fill="none" stroke="#9a32cd" stroke-dasharray="5,2" d="M923.743,-194.528C893.354,-191.381 850.876,-184.233 817,-168 793.106,-156.55 770.623,-134.756 758.441,-121.685"/>
<polygon fill="#9a32cd" stroke="#9a32cd" points="923.672,-198.036 933.954,-195.482 924.324,-191.067 923.672,-198.036"/>
<text text-anchor="middle" x="853.5" y="-152.5" font-family="Helvetica,sans-Serif" font-size="10.00"> mPrimaryFrame</text>
</g>
<!-- Node10 -->
<g id="node19" class="node"><title>Node10</title>
<a xlink:href="../../dd/d10/classns_query_frame.html" target="_top" xlink:title="nsQueryFrame">
<polygon fill="white" stroke="black" points="802.5,-279.5 802.5,-300.5 883.5,-300.5 883.5,-279.5 802.5,-279.5"/>
<text text-anchor="middle" x="843" y="-287.5" font-family="Helvetica,sans-Serif" font-size="10.00">nsQueryFrame</text>
</a>
</g>
<!-- Node10&#45;&gt;Node9 -->
<g id="edge20" class="edge"><title>Node10&#45;&gt;Node9</title>
<path fill="none" stroke="midnightblue" d="M864.812,-273.096C889.449,-254.002 928.786,-223.516 949.395,-207.544"/>
<polygon fill="midnightblue" stroke="midnightblue" points="862.526,-270.44 856.766,-279.332 866.814,-275.972 862.526,-270.44"/>
</g>
<!-- Node11 -->
<g id="node21" class="node"><title>Node11</title>
<a xlink:href="../../d1/dee/structns_i_frame_1_1_visual_deltas.html" target="_top" xlink:title="nsIFrame::VisualDeltas">
<polygon fill="white" stroke="black" points="900.5,-279.5 900.5,-300.5 1019.5,-300.5 1019.5,-279.5 900.5,-279.5"/>
<text text-anchor="middle" x="960" y="-287.5" font-family="Helvetica,sans-Serif" font-size="10.00">nsIFrame::VisualDeltas</text>
</a>
</g>
<!-- Node11&#45;&gt;Node9 -->
<g id="edge22" class="edge"><title>Node11&#45;&gt;Node9</title>
<path fill="none" stroke="#9a32cd" stroke-dasharray="5,2" d="M960.671,-269.204C961.288,-250.07 962.178,-222.47 962.66,-207.544"/>
<polygon fill="#9a32cd" stroke="#9a32cd" points="957.168,-269.224 960.344,-279.332 964.165,-269.45 957.168,-269.224"/>
<text text-anchor="middle" x="996.5" y="-230.5" font-family="Helvetica,sans-Serif" font-size="10.00"> mVisualDeltas</text>
</g>
<!-- Node12 -->
<g id="node23" class="node"><title>Node12</title>
<a xlink:href="../../d7/d68/classns_i_content.html" target="_top" xlink:title="nsIContent">
<polygon fill="white" stroke="black" points="749.5,-0.5 749.5,-21.5 814.5,-21.5 814.5,-0.5 749.5,-0.5"/>
<text text-anchor="middle" x="782" y="-8.5" font-family="Helvetica,sans-Serif" font-size="10.00">nsIContent</text>
</a>
</g>
<!-- Node12&#45;&gt;Node9 -->
<g id="edge24" class="edge"><title>Node12&#45;&gt;Node9</title>
<path fill="none" stroke="#9a32cd" stroke-dasharray="5,2" d="M824.339,-22.6168C835.364,-26.9224 846.737,-32.6155 856,-40 909.132,-82.3572 946.04,-158.207 958.43,-186.22"/>
<polygon fill="#9a32cd" stroke="#9a32cd" points="825.396,-19.2773 814.801,-19.1826 823.024,-25.8634 825.396,-19.2773"/>
<text text-anchor="middle" x="949" y="-108.5" font-family="Helvetica,sans-Serif" font-size="10.00"> mContent</text>
</g>
<!-- Node12&#45;&gt;Node13 -->
<g id="edge38" class="edge"><title>Node12&#45;&gt;Node13</title>
<path fill="none" stroke="#9a32cd" stroke-dasharray="5,2" d="M775.6,-31.6728C771.301,-45.41 765.446,-63.8279 760,-80 757.704,-86.8193 755.003,-94.4355 752.852,-100.412"/>
<polygon fill="#9a32cd" stroke="#9a32cd" points="779.046,-32.3801 778.678,-21.7917 772.362,-30.2987 779.046,-32.3801"/>
<text text-anchor="middle" x="812.5" y="-70.5" font-family="Helvetica,sans-Serif" font-size="10.00"> mPreviousSibling</text>
<text text-anchor="middle" x="812.5" y="-57.5" font-family="Helvetica,sans-Serif" font-size="10.00">mFirstChild</text>
<text text-anchor="middle" x="812.5" y="-44.5" font-family="Helvetica,sans-Serif" font-size="10.00">mNextSibling</text>
</g>
<!-- Node13&#45;&gt;Node12 -->
<g id="edge26" class="edge"><title>Node13&#45;&gt;Node12</title>
<path fill="none" stroke="midnightblue" d="M750.98,-90.0899C752.861,-75.6155 756.42,-56.1298 763,-40 765.637,-33.5351 769.786,-26.9747 773.534,-21.7327"/>
<polygon fill="midnightblue" stroke="midnightblue" points="747.501,-89.7115 749.847,-100.043 754.456,-90.5032 747.501,-89.7115"/>
</g>
<!-- Node13&#45;&gt;Node13 -->
<g id="edge40" class="edge"><title>Node13&#45;&gt;Node13</title>
<path fill="none" stroke="#9a32cd" stroke-dasharray="5,2" d="M785.677,-118.111C790.104,-116.827 793,-114.456 793,-111 793,-105.328 785.201,-102.581 775.635,-102.758"/>
<polygon fill="#9a32cd" stroke="#9a32cd" points="785.181,-114.645 775.635,-119.242 785.964,-121.601 785.181,-114.645"/>
<text text-anchor="middle" x="826.5" y="-115" font-family="Helvetica,sans-Serif" font-size="10.00"> mSubtreeRoot</text>
<text text-anchor="middle" x="826.5" y="-102" font-family="Helvetica,sans-Serif" font-size="10.00">mParent</text>
</g>
<!-- Node14 -->
<g id="node27" class="node"><title>Node14</title>
<a xlink:href="../../da/da8/classmozilla_1_1dom_1_1_event_target.html" target="_top" xlink:title="mozilla::dom::EventTarget">
<polygon fill="white" stroke="black" points="665.5,-186.5 665.5,-207.5 796.5,-207.5 796.5,-186.5 665.5,-186.5"/>
<text text-anchor="middle" x="731" y="-194.5" font-family="Helvetica,sans-Serif" font-size="10.00">mozilla::dom::EventTarget</text>
</a>
</g>
<!-- Node14&#45;&gt;Node13 -->
<g id="edge28" class="edge"><title>Node14&#45;&gt;Node13</title>
<path fill="none" stroke="midnightblue" d="M735.342,-176.256C738.948,-159.026 743.932,-135.215 746.775,-121.632"/>
<polygon fill="midnightblue" stroke="midnightblue" points="731.83,-175.95 733.207,-186.455 738.682,-177.384 731.83,-175.95"/>
</g>
<!-- Node15 -->
<g id="node29" class="node"><title>Node15</title>
<a xlink:href="../../d9/ddf/interfacens_i_d_o_m_event_target.html" target="_top" xlink:title="nsIDOMEventTarget">
<polygon fill="white" stroke="black" points="552.5,-279.5 552.5,-300.5 659.5,-300.5 659.5,-279.5 552.5,-279.5"/>
<text text-anchor="middle" x="606" y="-287.5" font-family="Helvetica,sans-Serif" font-size="10.00">nsIDOMEventTarget</text>
</a>
</g>
<!-- Node15&#45;&gt;Node14 -->
<g id="edge30" class="edge"><title>Node15&#45;&gt;Node14</title>
<path fill="none" stroke="midnightblue" d="M628.386,-273.345C654.026,-254.268 695.266,-223.586 716.828,-207.544"/>
<polygon fill="midnightblue" stroke="midnightblue" points="626.273,-270.554 620.339,-279.332 630.451,-276.171 626.273,-270.554"/>
</g>
<!-- Node16 -->
<g id="node31" class="node"><title>Node16</title>
<a xlink:href="../../d4/d6a/classns_i_supports.html" target="_top" xlink:title="nsISupports">
<polygon fill="white" stroke="black" points="569.5,-372.5 569.5,-393.5 638.5,-393.5 638.5,-372.5 569.5,-372.5"/>
<text text-anchor="middle" x="604" y="-380.5" font-family="Helvetica,sans-Serif" font-size="10.00">nsISupports</text>
</a>
</g>
<!-- Node16&#45;&gt;Node15 -->
<g id="edge32" class="edge"><title>Node16&#45;&gt;Node15</title>
<path fill="none" stroke="midnightblue" d="M598.713,-362.204C597.433,-343.07 598.447,-315.47 601.3,-300.544"/>
<polygon fill="midnightblue" stroke="midnightblue" points="595.249,-362.734 599.735,-372.332 602.214,-362.031 595.249,-362.734"/>
</g>
<!-- Node16&#45;&gt;Node15 -->
<g id="edge34" class="edge"><title>Node16&#45;&gt;Node15</title>
<path fill="none" stroke="midnightblue" d="M610.181,-362.204C612.284,-343.07 612.457,-315.47 610.246,-300.544"/>
<polygon fill="midnightblue" stroke="midnightblue" points="606.684,-361.935 608.723,-372.332 613.612,-362.932 606.684,-361.935"/>
</g>
<!-- Node17 -->
<g id="node34" class="node"><title>Node17</title>
<a xlink:href="../../d0/d7e/classns_wrapper_cache.html" target="_top" xlink:title="nsWrapperCache">
<polygon fill="white" stroke="black" points="685,-279.5 685,-300.5 777,-300.5 777,-279.5 685,-279.5"/>
<text text-anchor="middle" x="731" y="-287.5" font-family="Helvetica,sans-Serif" font-size="10.00">nsWrapperCache</text>
</a>
</g>
<!-- Node17&#45;&gt;Node14 -->
<g id="edge36" class="edge"><title>Node17&#45;&gt;Node14</title>
<path fill="none" stroke="midnightblue" d="M731,-269.204C731,-250.07 731,-222.47 731,-207.544"/>
<polygon fill="midnightblue" stroke="midnightblue" points="727.5,-269.332 731,-279.332 734.5,-269.332 727.5,-269.332"/>
</g>
<!-- Node18 -->
<g id="node38" class="node"><title>Node18</title>
<a xlink:href="../../d6/d39/classns_i_node_1_1ns_slots.html" target="_top" xlink:title="nsINode::nsSlots">
<polygon fill="white" stroke="black" points="487,-186.5 487,-207.5 579,-207.5 579,-186.5 487,-186.5"/>
<text text-anchor="middle" x="533" y="-194.5" font-family="Helvetica,sans-Serif" font-size="10.00">nsINode::nsSlots</text>
</a>
</g>
<!-- Node18&#45;&gt;Node13 -->
<g id="edge42" class="edge"><title>Node18&#45;&gt;Node13</title>
<path fill="none" stroke="#9a32cd" stroke-dasharray="5,2" d="M569.045,-182.649C612.271,-165.438 683.714,-136.994 722.298,-121.632"/>
<polygon fill="#9a32cd" stroke="#9a32cd" points="567.482,-179.504 559.486,-186.455 570.071,-186.007 567.482,-179.504"/>
<text text-anchor="middle" x="684" y="-152.5" font-family="Helvetica,sans-Serif" font-size="10.00"> mSlots</text>
</g>
<!-- Node19 -->
<g id="node40" class="node"><title>Node19</title>
<a xlink:href="../../d3/d4a/classns_t_observer_array.html" target="_top" xlink:title="nsTObserverArray\&lt; nsIMutationObserver * \&gt;">
<polygon fill="white" stroke="black" points="323,-279.5 323,-300.5 535,-300.5 535,-279.5 323,-279.5"/>
<text text-anchor="middle" x="429" y="-287.5" font-family="Helvetica,sans-Serif" font-size="10.00">nsTObserverArray&lt; nsIMutationObserver * &gt;</text>
</a>
</g>
<!-- Node19&#45;&gt;Node18 -->
<g id="edge44" class="edge"><title>Node19&#45;&gt;Node18</title>
<path fill="none" stroke="#9a32cd" stroke-dasharray="5,2" d="M448.466,-272.593C469.85,-253.47 503.503,-223.377 521.209,-207.544"/>
<polygon fill="#9a32cd" stroke="#9a32cd" points="446.051,-270.057 440.93,-279.332 450.717,-275.275 446.051,-270.057"/>
<text text-anchor="middle" x="547" y="-230.5" font-family="Helvetica,sans-Serif" font-size="10.00"> mMutationObservers</text>
</g>
<!-- Node20 -->
<g id="node42" class="node"><title>Node20</title>
<a xlink:href="../../d6/d06/classns_auto_t_observer_array.html" target="_top" xlink:title="nsAutoTObserverArray\&lt; nsIMutationObserver *, 0 \&gt;">
<polygon fill="white" stroke="black" points="307.5,-372.5 307.5,-393.5 550.5,-393.5 550.5,-372.5 307.5,-372.5"/>
<text text-anchor="middle" x="429" y="-380.5" font-family="Helvetica,sans-Serif" font-size="10.00">nsAutoTObserverArray&lt; nsIMutationObserver *, 0 &gt;</text>
</a>
</g>
<!-- Node20&#45;&gt;Node19 -->
<g id="edge46" class="edge"><title>Node20&#45;&gt;Node19</title>
<path fill="none" stroke="midnightblue" d="M429,-362.204C429,-343.07 429,-315.47 429,-300.544"/>
<polygon fill="midnightblue" stroke="midnightblue" points="425.5,-362.332 429,-372.332 432.5,-362.332 425.5,-362.332"/>
</g>
<!-- Node21 -->
<g id="node44" class="node"><title>Node21</title>
<a xlink:href="../../d3/dbe/classns_t_observer_array__base.html" target="_top" xlink:title="nsTObserverArray_base">
<polygon fill="white" stroke="black" points="528,-534.5 528,-555.5 650,-555.5 650,-534.5 528,-534.5"/>
<text text-anchor="middle" x="589" y="-542.5" font-family="Helvetica,sans-Serif" font-size="10.00">nsTObserverArray_base</text>
</a>
</g>
<!-- Node21&#45;&gt;Node20 -->
<g id="edge48" class="edge"><title>Node21&#45;&gt;Node20</title>
<path fill="none" stroke="darkgreen" d="M571.72,-527C546.963,-501.286 499.874,-452.648 459,-412 452.836,-405.87 445.859,-399.115 440.186,-393.668"/>
<polygon fill="darkgreen" stroke="darkgreen" points="569.2,-529.429 578.655,-534.21 574.245,-524.577 569.2,-529.429"/>
</g>
<!-- Node22 -->
<g id="node46" class="node"><title>Node22</title>
<a xlink:href="../../dc/d90/classns_t_observer_array__base_1_1_iterator__base.html" target="_top" xlink:title="nsTObserverArray_base::Iterator_base">
<polygon fill="white" stroke="black" points="512.5,-606.5 512.5,-627.5 697.5,-627.5 697.5,-606.5 512.5,-606.5"/>
<text text-anchor="middle" x="605" y="-614.5" font-family="Helvetica,sans-Serif" font-size="10.00">nsTObserverArray_base::Iterator_base</text>
</a>
</g>
<!-- Node22&#45;&gt;Node21 -->
<g id="edge50" class="edge"><title>Node22&#45;&gt;Node21</title>
<path fill="none" stroke="#9a32cd" stroke-dasharray="5,2" d="M600.386,-596.235C597.438,-582.969 593.738,-566.319 591.371,-555.667"/>
<polygon fill="#9a32cd" stroke="#9a32cd" points="597.053,-597.374 602.639,-606.376 603.886,-595.855 597.053,-597.374"/>
<text text-anchor="middle" x="623" y="-578.5" font-family="Helvetica,sans-Serif" font-size="10.00"> mIterators</text>
</g>
<!-- Node22&#45;&gt;Node22 -->
<g id="edge52" class="edge"><title>Node22&#45;&gt;Node22</title>
<path fill="none" stroke="#9a32cd" stroke-dasharray="5,2" d="M707.782,-620.469C712.341,-619.584 715,-618.428 715,-617 715,-614.715 708.192,-613.126 697.688,-612.233"/>
<polygon fill="#9a32cd" stroke="#9a32cd" points="707.16,-617.02 697.688,-621.767 708.053,-623.963 707.16,-617.02"/>
<text text-anchor="middle" x="731.5" y="-614.5" font-family="Helvetica,sans-Serif" font-size="10.00"> mNext</text>
</g>
<!-- Node23 -->
<g id="node49" class="node"><title>Node23</title>
<a xlink:href="../../d2/dcf/classns_auto_t_array.html" target="_top" xlink:title="nsAutoTArray\&lt; nsIMutationObserver *, N \&gt;">
<polygon fill="white" stroke="black" points="278,-534.5 278,-555.5 484,-555.5 484,-534.5 278,-534.5"/>
<text text-anchor="middle" x="381" y="-542.5" font-family="Helvetica,sans-Serif" font-size="10.00">nsAutoTArray&lt; nsIMutationObserver *, N &gt;</text>
</a>
</g>
<!-- Node23&#45;&gt;Node20 -->
<g id="edge54" class="edge"><title>Node23&#45;&gt;Node20</title>
<path fill="none" stroke="#9a32cd" stroke-dasharray="5,2" d="M387.106,-524.391C397.403,-489.641 417.867,-420.573 425.776,-393.881"/>
<polygon fill="#9a32cd" stroke="#9a32cd" points="383.635,-523.788 384.149,-534.371 390.346,-525.777 383.635,-523.788"/>
<text text-anchor="middle" x="437.5" y="-461.5" font-family="Helvetica,sans-Serif" font-size="10.00"> mArray</text>
</g>
<!-- Node24 -->
<g id="node51" class="node"><title>Node24</title>
<a xlink:href="../../d9/d56/classns_auto_array_base.html" target="_top" xlink:title="nsAutoArrayBase\&lt; nsTArray\&lt; nsIMutationObserver * \&gt;, N \&gt;">
<polygon fill="white" stroke="black" points="215,-606.5 215,-627.5 495,-627.5 495,-606.5 215,-606.5"/>
<text text-anchor="middle" x="355" y="-614.5" font-family="Helvetica,sans-Serif" font-size="10.00">nsAutoArrayBase&lt; nsTArray&lt; nsIMutationObserver * &gt;, N &gt;</text>
</a>
</g>
<!-- Node24&#45;&gt;Node23 -->
<g id="edge56" class="edge"><title>Node24&#45;&gt;Node23</title>
<path fill="none" stroke="midnightblue" d="M362.355,-596.632C367.169,-583.303 373.263,-566.425 377.148,-555.667"/>
<polygon fill="midnightblue" stroke="midnightblue" points="358.941,-595.782 358.836,-606.376 365.525,-598.159 358.941,-595.782"/>
</g>
<!-- Node25 -->
<g id="node53" class="node"><title>Node25</title>
<a xlink:href="../../d8/d6f/classns_t_array.html" target="_top" xlink:title="nsTArray\&lt; nsIMutationObserver * \&gt;">
<polygon fill="white" stroke="black" points="269,-666.5 269,-687.5 441,-687.5 441,-666.5 269,-666.5"/>
<text text-anchor="middle" x="355" y="-674.5" font-family="Helvetica,sans-Serif" font-size="10.00">nsTArray&lt; nsIMutationObserver * &gt;</text>
</a>
</g>
<!-- Node25&#45;&gt;Node24 -->
<g id="edge58" class="edge"><title>Node25&#45;&gt;Node24</title>
<path fill="none" stroke="midnightblue" d="M355,-656.231C355,-646.592 355,-635.544 355,-627.634"/>
<polygon fill="midnightblue" stroke="midnightblue" points="351.5,-656.273 355,-666.273 358.5,-656.273 351.5,-656.273"/>
</g>
<!-- Node26 -->
<g id="node55" class="node"><title>Node26</title>
<a xlink:href="../../d4/dd8/classns_t_array___impl.html" target="_top" xlink:title="nsTArray_Impl\&lt; nsIMutationObserver *, nsTArrayInfallibleAllocator \&gt;">
<polygon fill="white" stroke="black" points="197,-726.5 197,-747.5 513,-747.5 513,-726.5 197,-726.5"/>
<text text-anchor="middle" x="355" y="-734.5" font-family="Helvetica,sans-Serif" font-size="10.00">nsTArray_Impl&lt; nsIMutationObserver *, nsTArrayInfallibleAllocator &gt;</text>
</a>
</g>
<!-- Node26&#45;&gt;Node25 -->
<g id="edge60" class="edge"><title>Node26&#45;&gt;Node25</title>
<path fill="none" stroke="midnightblue" d="M355,-716.231C355,-706.592 355,-695.544 355,-687.634"/>
<polygon fill="midnightblue" stroke="midnightblue" points="351.5,-716.273 355,-726.273 358.5,-716.273 351.5,-716.273"/>
</g>
<!-- Node27 -->
<g id="node57" class="node"><title>Node27</title>
<a xlink:href="../../db/d9f/classns_t_array__base.html" target="_top" xlink:title="nsTArray_base\&lt; nsTArrayInfallibleAllocator, nsTArray_CopyElements\&lt; nsIMutationObserver * \&gt; \&gt;">
<polygon fill="white" stroke="black" points="0,-786.5 0,-807.5 446,-807.5 446,-786.5 0,-786.5"/>
<text text-anchor="middle" x="223" y="-794.5" font-family="Helvetica,sans-Serif" font-size="10.00">nsTArray_base&lt; nsTArrayInfallibleAllocator, nsTArray_CopyElements&lt; nsIMutationObserver * &gt; &gt;</text>
</a>
</g>
<!-- Node27&#45;&gt;Node26 -->
<g id="edge62" class="edge"><title>Node27&#45;&gt;Node26</title>
<path fill="none" stroke="midnightblue" d="M255.54,-782.209C279.083,-771.508 310.35,-757.296 331.494,-747.685"/>
<polygon fill="midnightblue" stroke="midnightblue" points="253.95,-779.087 246.295,-786.411 256.847,-785.46 253.95,-779.087"/>
</g>
<!-- Node28 -->
<g id="node59" class="node"><title>Node28</title>
<a xlink:href="../../dc/d5a/structns_t_array_header.html" target="_top" xlink:title="nsTArrayHeader">
<polygon fill="white" stroke="black" points="179,-858.5 179,-879.5 267,-879.5 267,-858.5 179,-858.5"/>
<text text-anchor="middle" x="223" y="-866.5" font-family="Helvetica,sans-Serif" font-size="10.00">nsTArrayHeader</text>
</a>
</g>
<!-- Node28&#45;&gt;Node27 -->
<g id="edge64" class="edge"><title>Node28&#45;&gt;Node27</title>
<path fill="none" stroke="#9a32cd" stroke-dasharray="5,2" d="M223,-848.235C223,-834.969 223,-818.319 223,-807.667"/>
<polygon fill="#9a32cd" stroke="#9a32cd" points="219.5,-848.376 223,-858.376 226.5,-848.376 219.5,-848.376"/>
<text text-anchor="middle" x="237" y="-830.5" font-family="Helvetica,sans-Serif" font-size="10.00"> mHdr</text>
</g>
<!-- Node28&#45;&gt;Node28 -->
<g id="edge66" class="edge"><title>Node28&#45;&gt;Node28</title>
<path fill="none" stroke="#9a32cd" stroke-dasharray="5,2" d="M277.258,-874.304C282.019,-873.185 285,-871.417 285,-869 285,-865.133 277.369,-862.927 267.024,-862.383"/>
<polygon fill="#9a32cd" stroke="#9a32cd" points="276.498,-870.872 267.024,-875.617 277.389,-877.816 276.498,-870.872"/>
<text text-anchor="middle" x="311.5" y="-866.5" font-family="Helvetica,sans-Serif" font-size="10.00"> sEmptyHdr</text>
</g>
<!-- Node29 -->
<g id="node62" class="node"><title>Node29</title>
<a xlink:href="../../d7/dcf/structns_t_array___typed_base.html" target="_top" xlink:title="nsTArray_TypedBase\&lt; nsIMutationObserver *, nsTArray_Impl\&lt; nsIMutationObserver *, nsTArrayInfallibleAllocator \&gt; \&gt;">
<polygon fill="white" stroke="black" points="464,-786.5 464,-807.5 996,-807.5 996,-786.5 464,-786.5"/>
<text text-anchor="middle" x="730" y="-794.5" font-family="Helvetica,sans-Serif" font-size="10.00">nsTArray_TypedBase&lt; nsIMutationObserver *, nsTArray_Impl&lt; nsIMutationObserver *, nsTArrayInfallibleAllocator &gt; &gt;</text>
</a>
</g>
<!-- Node29&#45;&gt;Node26 -->
<g id="edge68" class="edge"><title>Node29&#45;&gt;Node26</title>
<path fill="none" stroke="midnightblue" d="M653.956,-784.833C585.449,-773.872 485.781,-757.925 420.674,-747.508"/>
<polygon fill="midnightblue" stroke="midnightblue" points="653.823,-788.356 664.251,-786.48 654.929,-781.444 653.823,-788.356"/>
</g>
<!-- Node30 -->
<g id="node64" class="node"><title>Node30</title>
<a xlink:href="../../db/d62/structns_t_array___safe_element_at_helper.html" target="_top" xlink:title="nsTArray_SafeElementAtHelper\&lt; nsIMutationObserver *, nsTArray_Impl\&lt; nsIMutationObserver *, nsTArrayInfallibleAllocator \&gt; \&gt;">
<polygon fill="white" stroke="black" points="441.5,-858.5 441.5,-879.5 1018.5,-879.5 1018.5,-858.5 441.5,-858.5"/>
<text text-anchor="middle" x="730" y="-866.5" font-family="Helvetica,sans-Serif" font-size="10.00">nsTArray_SafeElementAtHelper&lt; nsIMutationObserver *, nsTArray_Impl&lt; nsIMutationObserver *, nsTArrayInfallibleAllocator &gt; &gt;</text>
</a>
</g>
<!-- Node30&#45;&gt;Node29 -->
<g id="edge70" class="edge"><title>Node30&#45;&gt;Node29</title>
<path fill="none" stroke="midnightblue" d="M730,-848.235C730,-834.969 730,-818.319 730,-807.667"/>
<polygon fill="midnightblue" stroke="midnightblue" points="726.5,-848.376 730,-858.376 733.5,-848.376 726.5,-848.376"/>
</g>
<!-- Node31 -->
<g id="node68" class="node"><title>Node31</title>
<a xlink:href="../../db/d89/classns_style_context.html" target="_top" xlink:title="nsStyleContext">
<polygon fill="white" stroke="black" points="1037,-279.5 1037,-300.5 1121,-300.5 1121,-279.5 1037,-279.5"/>
<text text-anchor="middle" x="1079" y="-287.5" font-family="Helvetica,sans-Serif" font-size="10.00">nsStyleContext</text>
</a>
</g>
<!-- Node31&#45;&gt;Node9 -->
<g id="edge76" class="edge"><title>Node31&#45;&gt;Node9</title>
<path fill="none" stroke="#9a32cd" stroke-dasharray="5,2" d="M1069.05,-270.195C1061.17,-256.236 1049.02,-237.968 1034,-226 1021.82,-216.291 1005.94,-209.399 992.29,-204.777"/>
<polygon fill="#9a32cd" stroke="#9a32cd" points="1065.98,-271.887 1073.8,-279.041 1072.15,-268.575 1065.98,-271.887"/>
<text text-anchor="middle" x="1082.5" y="-230.5" font-family="Helvetica,sans-Serif" font-size="10.00"> mStyleContext</text>
</g>
<!-- Node31&#45;&gt;Node31 -->
<g id="edge102" class="edge"><title>Node31&#45;&gt;Node31</title>
<path fill="none" stroke="#9a32cd" stroke-dasharray="5,2" d="M1130.89,-298.472C1135.86,-296.748 1139,-293.924 1139,-290 1139,-283.875 1131.34,-280.43 1121.06,-279.664"/>
<polygon fill="#9a32cd" stroke="#9a32cd" points="1130.23,-295.036 1121.06,-300.336 1131.53,-301.914 1130.23,-295.036"/>
<text text-anchor="middle" x="1170.5" y="-313.5" font-family="Helvetica,sans-Serif" font-size="10.00"> mEmptyChild</text>
<text text-anchor="middle" x="1170.5" y="-300.5" font-family="Helvetica,sans-Serif" font-size="10.00">mChild</text>
<text text-anchor="middle" x="1170.5" y="-287.5" font-family="Helvetica,sans-Serif" font-size="10.00">mPrevSibling</text>
<text text-anchor="middle" x="1170.5" y="-274.5" font-family="Helvetica,sans-Serif" font-size="10.00">mParent</text>
<text text-anchor="middle" x="1170.5" y="-261.5" font-family="Helvetica,sans-Serif" font-size="10.00">mNextSibling</text>
</g>
<!-- Node32 -->
<g id="node70" class="node"><title>Node32</title>
<a xlink:href="../../dc/d1e/classns_rule_node.html" target="_top" xlink:title="nsRuleNode">
<polygon fill="white" stroke="black" points="773.5,-372.5 773.5,-393.5 844.5,-393.5 844.5,-372.5 773.5,-372.5"/>
<text text-anchor="middle" x="809" y="-380.5" font-family="Helvetica,sans-Serif" font-size="10.00">nsRuleNode</text>
</a>
</g>
<!-- Node32&#45;&gt;Node31 -->
<g id="edge78" class="edge"><title>Node32&#45;&gt;Node31</title>
<path fill="none" stroke="#9a32cd" stroke-dasharray="5,2" d="M850.807,-369.272C878.512,-360.395 915.745,-348.882 949,-340 983.791,-330.707 994.723,-335.764 1028,-322 1041.33,-316.487 1055.11,-307.619 1064.98,-300.615"/>
<polygon fill="#9a32cd" stroke="#9a32cd" points="849.501,-366.016 841.056,-372.414 851.648,-372.679 849.501,-366.016"/>
<text text-anchor="middle" x="976.5" y="-344.5" font-family="Helvetica,sans-Serif" font-size="10.00"> mRuleNode</text>
</g>
<!-- Node32&#45;&gt;Node32 -->
<g id="edge86" class="edge"><title>Node32&#45;&gt;Node32</title>
<path fill="none" stroke="#9a32cd" stroke-dasharray="5,2" d="M854.812,-388.454C859.212,-387.346 862,-385.528 862,-383 862,-378.852 854.493,-376.615 844.669,-376.291"/>
<polygon fill="#9a32cd" stroke="#9a32cd" points="854.164,-385.007 844.669,-389.709 855.023,-391.954 854.164,-385.007"/>
<text text-anchor="middle" x="877" y="-380.5" font-family="Helvetica,sans-Serif" font-size="10.00"> asList</text>
</g>
<!-- Node33 -->
<g id="node72" class="node"><title>Node33</title>
<a xlink:href="../../d9/d33/struct_p_l_d_hash_table.html" target="_top" xlink:title="PLDHashTable">
<polygon fill="white" stroke="black" points="693.5,-534.5 693.5,-555.5 776.5,-555.5 776.5,-534.5 693.5,-534.5"/>
<text text-anchor="middle" x="735" y="-542.5" font-family="Helvetica,sans-Serif" font-size="10.00">PLDHashTable</text>
</a>
</g>
<!-- Node33&#45;&gt;Node32 -->
<g id="edge80" class="edge"><title>Node33&#45;&gt;Node32</title>
<path fill="none" stroke="#9a32cd" stroke-dasharray="5,2" d="M772.132,-529.242C777.452,-525.581 782.349,-521.196 786,-516 812.944,-477.654 811.826,-418.047 810.048,-393.804"/>
<polygon fill="#9a32cd" stroke="#9a32cd" points="770.305,-526.256 763.542,-534.411 773.915,-532.254 770.305,-526.256"/>
<text text-anchor="middle" x="829.5" y="-461.5" font-family="Helvetica,sans-Serif" font-size="10.00"> asHash</text>
</g>
<!-- Node34 -->
<g id="node74" class="node"><title>Node34</title>
<a xlink:href="../../dc/d8f/struct_p_l_d_hash_table_ops.html" target="_top" xlink:title="PLDHashTableOps">
<polygon fill="white" stroke="black" points="655.5,-372.5 655.5,-393.5 756.5,-393.5 756.5,-372.5 655.5,-372.5"/>
<text text-anchor="middle" x="706" y="-380.5" font-family="Helvetica,sans-Serif" font-size="10.00">PLDHashTableOps</text>
</a>
</g>
<!-- Node33&#45;&gt;Node34 -->
<g id="edge84" class="edge"><title>Node33&#45;&gt;Node34</title>
<path fill="none" stroke="#9a32cd" stroke-dasharray="5,2" d="M732.062,-524.352C728.221,-498.13 721.03,-451.535 713,-412 711.763,-405.909 710.147,-399.156 708.78,-393.701"/>
<polygon fill="#9a32cd" stroke="#9a32cd" points="728.6,-524.867 733.495,-534.263 735.528,-523.865 728.6,-524.867"/>
<text text-anchor="middle" x="756.5" y="-507" font-family="Helvetica,sans-Serif" font-size="10.00"> finalize</text>
<text text-anchor="middle" x="756.5" y="-494" font-family="Helvetica,sans-Serif" font-size="10.00">clearEntry</text>
<text text-anchor="middle" x="756.5" y="-481" font-family="Helvetica,sans-Serif" font-size="10.00">hashKey</text>
<text text-anchor="middle" x="756.5" y="-468" font-family="Helvetica,sans-Serif" font-size="10.00">moveEntry</text>
<text text-anchor="middle" x="756.5" y="-455" font-family="Helvetica,sans-Serif" font-size="10.00">initEntry</text>
<text text-anchor="middle" x="756.5" y="-442" font-family="Helvetica,sans-Serif" font-size="10.00">allocTable</text>
<text text-anchor="middle" x="756.5" y="-429" font-family="Helvetica,sans-Serif" font-size="10.00">freeTable</text>
<text text-anchor="middle" x="756.5" y="-416" font-family="Helvetica,sans-Serif" font-size="10.00">matchEntry</text>
</g>
<!-- Node34&#45;&gt;Node33 -->
<g id="edge82" class="edge"><title>Node34&#45;&gt;Node33</title>
<path fill="none" stroke="#9a32cd" stroke-dasharray="5,2" d="M696.522,-403.074C695.481,-406.011 694.587,-409.044 694,-412 684.991,-457.336 672.754,-474.95 694,-516 698.007,-523.743 705.14,-529.862 712.345,-534.444"/>
<polygon fill="#9a32cd" stroke="#9a32cd" points="699.811,-404.277 700.391,-393.698 693.341,-401.607 699.811,-404.277"/>
<text text-anchor="middle" x="703.5" y="-461.5" font-family="Helvetica,sans-Serif" font-size="10.00"> ops</text>
</g>
<!-- Node35 -->
<g id="node78" class="node"><title>Node35</title>
<a xlink:href="../../d7/dbf/structns_inherited_style_data.html" target="_top" xlink:title="nsInheritedStyleData">
<polygon fill="white" stroke="black" points="1182,-372.5 1182,-393.5 1290,-393.5 1290,-372.5 1182,-372.5"/>
<text text-anchor="middle" x="1236" y="-380.5" font-family="Helvetica,sans-Serif" font-size="10.00">nsInheritedStyleData</text>
</a>
</g>
<!-- Node35&#45;&gt;Node31 -->
<g id="edge88" class="edge"><title>Node35&#45;&gt;Node31</title>
<path fill="none" stroke="#9a32cd" stroke-dasharray="5,2" d="M1220.9,-364.543C1213.44,-356.263 1203.92,-346.842 1194,-340 1168.64,-322.513 1136.18,-309.082 1112.22,-300.565"/>
<polygon fill="#9a32cd" stroke="#9a32cd" points="1218.42,-367.03 1227.61,-372.305 1223.72,-362.452 1218.42,-367.03"/>
<text text-anchor="middle" x="1262" y="-344.5" font-family="Helvetica,sans-Serif" font-size="10.00"> mCachedInheritedData</text>
</g>
<!-- Node36 -->
<g id="node80" class="node"><title>Node36</title>
<a xlink:href="../../de/dfc/class_fixed_style_struct_array.html" target="_top" xlink:title="FixedStyleStructArray\&lt; nsStyleStructID_Inherited_Start, nsStyleStructID_Inherited_Count \&gt;">
<polygon fill="white" stroke="black" points="1269.5,-534.5 1269.5,-555.5 1688.5,-555.5 1688.5,-534.5 1269.5,-534.5"/>
<text text-anchor="middle" x="1479" y="-542.5" font-family="Helvetica,sans-Serif" font-size="10.00">FixedStyleStructArray&lt; nsStyleStructID_Inherited_Start, nsStyleStructID_Inherited_Count &gt;</text>
</a>
</g>
<!-- Node36&#45;&gt;Node35 -->
<g id="edge90" class="edge"><title>Node36&#45;&gt;Node35</title>
<path fill="none" stroke="#9a32cd" stroke-dasharray="5,2" d="M1454.54,-528.69C1404.89,-495.594 1293.52,-421.346 1252,-393.668"/>
<polygon fill="#9a32cd" stroke="#9a32cd" points="1452.79,-531.736 1463.06,-534.371 1456.68,-525.912 1452.79,-531.736"/>
<text text-anchor="middle" x="1465" y="-461.5" font-family="Helvetica,sans-Serif" font-size="10.00"> mStyleStructs</text>
</g>
<!-- Node37 -->
<g id="node82" class="node"><title>Node37</title>
<a xlink:href="../../df/ddf/structns_style_context_1_1_allocation_header.html" target="_top" xlink:title="nsStyleContext::AllocationHeader">
<polygon fill="white" stroke="black" points="1308,-372.5 1308,-393.5 1472,-393.5 1472,-372.5 1308,-372.5"/>
<text text-anchor="middle" x="1390" y="-380.5" font-family="Helvetica,sans-Serif" font-size="10.00">nsStyleContext::AllocationHeader</text>
</a>
</g>
<!-- Node37&#45;&gt;Node31 -->
<g id="edge92" class="edge"><title>Node37&#45;&gt;Node31</title>
<path fill="none" stroke="#9a32cd" stroke-dasharray="5,2" d="M1367.63,-366.67C1353.94,-357.455 1335.71,-346.515 1318,-340 1272.74,-323.35 1258.24,-331.687 1211,-322 1180.05,-315.653 1145.33,-307.183 1119.27,-300.551"/>
<polygon fill="#9a32cd" stroke="#9a32cd" points="1365.7,-369.593 1375.92,-372.412 1369.69,-363.839 1365.7,-369.593"/>
<text text-anchor="middle" x="1377" y="-344.5" font-family="Helvetica,sans-Serif" font-size="10.00"> mAllocations</text>
</g>
<!-- Node37&#45;&gt;Node37 -->
<g id="edge94" class="edge"><title>Node37&#45;&gt;Node37</title>
<path fill="none" stroke="#9a32cd" stroke-dasharray="5,2" d="M1482.62,-387.363C1487.26,-386.278 1490,-384.824 1490,-383 1490,-380.082 1482.99,-378.11 1472.38,-377.084"/>
<polygon fill="#9a32cd" stroke="#9a32cd" points="1481.75,-383.955 1472.38,-388.916 1482.8,-390.876 1481.75,-383.955"/>
<text text-anchor="middle" x="1506.5" y="-380.5" font-family="Helvetica,sans-Serif" font-size="10.00"> mNext</text>
</g>
<!-- Node38 -->
<g id="node85" class="node"><title>Node38</title>
<a xlink:href="../../d1/d37/structns_reset_style_data.html" target="_top" xlink:title="nsResetStyleData">
<polygon fill="white" stroke="black" points="1067.5,-372.5 1067.5,-393.5 1164.5,-393.5 1164.5,-372.5 1067.5,-372.5"/>
<text text-anchor="middle" x="1116" y="-380.5" font-family="Helvetica,sans-Serif" font-size="10.00">nsResetStyleData</text>
</a>
</g>
<!-- Node38&#45;&gt;Node31 -->
<g id="edge96" class="edge"><title>Node38&#45;&gt;Node31</title>
<path fill="none" stroke="#9a32cd" stroke-dasharray="5,2" d="M1105.44,-363.531C1103.87,-360.381 1102.34,-357.127 1101,-354 1093.14,-335.636 1086.02,-313.439 1082.12,-300.598"/>
<polygon fill="#9a32cd" stroke="#9a32cd" points="1102.35,-365.176 1110.06,-372.437 1108.56,-361.95 1102.35,-365.176"/>
<text text-anchor="middle" x="1147.5" y="-344.5" font-family="Helvetica,sans-Serif" font-size="10.00"> mCachedResetData</text>
</g>
<!-- Node39 -->
<g id="node87" class="node"><title>Node39</title>
<a xlink:href="../../de/dfc/class_fixed_style_struct_array.html" target="_top" xlink:title="FixedStyleStructArray\&lt; nsStyleStructID_Reset_Start, nsStyleStructID_Reset_Count \&gt;">
<polygon fill="white" stroke="black" points="855.5,-534.5 855.5,-555.5 1252.5,-555.5 1252.5,-534.5 855.5,-534.5"/>
<text text-anchor="middle" x="1054" y="-542.5" font-family="Helvetica,sans-Serif" font-size="10.00">FixedStyleStructArray&lt; nsStyleStructID_Reset_Start, nsStyleStructID_Reset_Count &gt;</text>
</a>
</g>
<!-- Node39&#45;&gt;Node38 -->
<g id="edge98" class="edge"><title>Node39&#45;&gt;Node38</title>
<path fill="none" stroke="#9a32cd" stroke-dasharray="5,2" d="M1061.72,-524.841C1074.96,-490.24 1101.58,-420.688 1111.84,-393.881"/>
<polygon fill="#9a32cd" stroke="#9a32cd" points="1058.37,-523.78 1058.07,-534.371 1064.91,-526.282 1058.37,-523.78"/>
<text text-anchor="middle" x="1138" y="-461.5" font-family="Helvetica,sans-Serif" font-size="10.00"> mStyleStructs</text>
</g>
<!-- Node40 -->
<g id="node89" class="node"><title>Node40</title>
<a xlink:href="../../d0/d01/classns_ref_ptr.html" target="_top" xlink:title="nsRefPtr\&lt; nsStyleContext \&gt;">
<polygon fill="white" stroke="black" points="909.5,-372.5 909.5,-393.5 1050.5,-393.5 1050.5,-372.5 909.5,-372.5"/>
<text text-anchor="middle" x="980" y="-380.5" font-family="Helvetica,sans-Serif" font-size="10.00">nsRefPtr&lt; nsStyleContext &gt;</text>
</a>
</g>
<!-- Node40&#45;&gt;Node31 -->
<g id="edge100" class="edge"><title>Node40&#45;&gt;Node31</title>
<path fill="none" stroke="#9a32cd" stroke-dasharray="5,2" d="M997.068,-364.911C1004.58,-357.111 1013.59,-347.968 1022,-340 1036.71,-326.055 1054.35,-310.793 1066.07,-300.846"/>
<polygon fill="#9a32cd" stroke="#9a32cd" points="994.509,-362.522 990.133,-372.171 999.571,-367.357 994.509,-362.522"/>
<text text-anchor="middle" x="1057" y="-344.5" font-family="Helvetica,sans-Serif" font-size="10.00"> mStyleIfVisited</text>
</g>
</g>
</svg>
        <g id="navigator" transform="translate(0 0)" fill="#404254">
                <rect fill="#f2f5e9" fill-opacity="0.5" stroke="#606060" stroke-width=".5" x="0" y="0" width="60" height="60"/>
                <use id="zoomplus" xlink:href="#zoomPlus" x="17" y="9" onmousedown="handleZoom(evt,'in')"/>
                <use id="zoomminus" xlink:href="#zoomMin" x="42" y="9" onmousedown="handleZoom(evt,'out')"/>
                <use id="reset" xlink:href="#resetDef" x="30" y="36" onmousedown="handleReset()"/>
                <g id="arrowUp" xlink:href="#dirArrow" transform="translate(30 24)" onmousedown="handlePan(0,-1)">
                  <use xlink:href="#rim" fill="#404040">
                        <set attributeName="fill" to="#808080" begin="arrowUp.mouseover" end="arrowUp.mouseout"/>
                  </use>
                  <path fill="none" stroke="white" stroke-width="1.5" d="M0,-3.0v7 M-2.5,-0.5L0,-3.0L2.5,-0.5"/>
                </g>
                <g id="arrowRight" xlink:href="#dirArrow" transform="rotate(90) translate(36 -43)" onmousedown="handlePan(1,0)">
                  <use xlink:href="#rim" fill="#404040">
                        <set attributeName="fill" to="#808080" begin="arrowRight.mouseover" end="arrowRight.mouseout"/>
                  </use>
                  <path fill="none" stroke="white" stroke-width="1.5" d="M0,-3.0v7 M-2.5,-0.5L0,-3.0L2.5,-0.5"/>
                </g>
                <g id="arrowDown" xlink:href="#dirArrow" transform="rotate(180) translate(-30 -48)" onmousedown="handlePan(0,1)">
                  <use xlink:href="#rim" fill="#404040">
                        <set attributeName="fill" to="#808080" begin="arrowDown.mouseover" end="arrowDown.mouseout"/>
                  </use>
                  <path fill="none" stroke="white" stroke-width="1.5" d="M0,-3.0v7 M-2.5,-0.5L0,-3.0L2.5,-0.5"/>
                </g>
                <g id="arrowLeft" xlink:href="#dirArrow" transform="rotate(270) translate(-36 17)" onmousedown="handlePan(-1,0)">
                  <use xlink:href="#rim" fill="#404040">
                        <set attributeName="fill" to="#808080" begin="arrowLeft.mouseover" end="arrowLeft.mouseout"/>
                  </use>
                  <path fill="none" stroke="white" stroke-width="1.5" d="M0,-3.0v7 M-2.5,-0.5L0,-3.0L2.5,-0.5"/>
                </g>
        </g>
</svg>
