<?xml version="1.0" encoding="UTF-8" standalone="no"?>
<!DOCTYPE svg PUBLIC "-//W3C//DTD SVG 1.1//EN"
 "http://www.w3.org/Graphics/SVG/1.1/DTD/svg11.dtd">
<!-- Generated by graphviz version 2.26.3 (20100126.1600)
 -->
<!-- Title: G Pages: 1 -->
<svg width="364pt" height="378pt"
 viewBox="0.00 0.00 364.00 378.00" xmlns="http://www.w3.org/2000/svg" xmlns:xlink="http://www.w3.org/1999/xlink">
<g id="graph1" class="graph" transform="scale(1 1) rotate(0) translate(4 374)">
<title>G</title>
<polygon fill="white" stroke="white" points="-4,5 -4,-374 361,-374 361,5 -4,5"/>
<!-- Node1 -->
<g id="node1" class="node"><title>Node1</title>
<polygon fill="#bfbfbf" stroke="black" points="135,-116.5 135,-137.5 239,-137.5 239,-116.5 135,-116.5"/>
<text text-anchor="middle" x="187" y="-124.5" font-family="Helvetica,sans-Serif" font-size="10.00">nsHashPropertyBag</text>
</g>
<!-- Node7 -->
<g id="node18" class="node"><title>Node7</title>
<a xlink:href="../../d2/de9/classmozilla_1_1dom_1_1_external_helper_app_parent.html" target="_top" xlink:title="mozilla::dom::ExternalHelperAppParent">
<polygon fill="white" stroke="black" points="0,-58.5 0,-79.5 188,-79.5 188,-58.5 0,-58.5"/>
<text text-anchor="middle" x="94" y="-66.5" font-family="Helvetica,sans-Serif" font-size="10.00">mozilla::dom::ExternalHelperAppParent</text>
</a>
</g>
<!-- Node1&#45;&gt;Node7 -->
<g id="edge22" class="edge"><title>Node1&#45;&gt;Node7</title>
<path fill="none" stroke="midnightblue" d="M161.059,-110.821C145.04,-100.831 124.945,-88.2993 110.949,-79.5707"/>
<polygon fill="midnightblue" stroke="midnightblue" points="159.605,-114.04 169.942,-116.362 163.309,-108.1 159.605,-114.04"/>
</g>
<!-- Node8 -->
<g id="node20" class="node"><title>Node8</title>
<a xlink:href="../../d8/d60/classmozilla_1_1net_1_1_http_base_channel.html" target="_top" xlink:title="mozilla::net::HttpBaseChannel">
<polygon fill="white" stroke="black" points="206,-58.5 206,-79.5 356,-79.5 356,-58.5 206,-58.5"/>
<text text-anchor="middle" x="281" y="-66.5" font-family="Helvetica,sans-Serif" font-size="10.00">mozilla::net::HttpBaseChannel</text>
</a>
</g>
<!-- Node1&#45;&gt;Node8 -->
<g id="edge24" class="edge"><title>Node1&#45;&gt;Node8</title>
<path fill="none" stroke="midnightblue" d="M212.767,-111.101C229.031,-101.066 249.59,-88.3808 263.868,-79.5707"/>
<polygon fill="midnightblue" stroke="midnightblue" points="210.914,-108.132 204.241,-116.362 214.589,-114.089 210.914,-108.132"/>
</g>
<!-- Node2 -->
<g id="node2" class="node"><title>Node2</title>
<a xlink:href="../../d9/dda/interfacens_i_writable_property_bag.html" target="_top" xlink:title="nsIWritablePropertyBag">
<polygon fill="white" stroke="black" points="58,-232.5 58,-253.5 178,-253.5 178,-232.5 58,-232.5"/>
<text text-anchor="middle" x="118" y="-240.5" font-family="Helvetica,sans-Serif" font-size="10.00">nsIWritablePropertyBag</text>
</a>
</g>
<!-- Node2&#45;&gt;Node1 -->
<g id="edge2" class="edge"><title>Node2&#45;&gt;Node1</title>
<path fill="none" stroke="midnightblue" d="M129.629,-223.45C144.313,-198.764 169.055,-157.168 180.648,-137.679"/>
<polygon fill="midnightblue" stroke="midnightblue" points="126.472,-221.911 124.368,-232.295 132.488,-225.49 126.472,-221.911"/>
</g>
<!-- Node3 -->
<g id="node4" class="node"><title>Node3</title>
<a xlink:href="../../da/df6/interfacens_i_property_bag.html" target="_top" xlink:title="nsIPropertyBag">
<polygon fill="white" stroke="black" points="137,-290.5 137,-311.5 221,-311.5 221,-290.5 137,-290.5"/>
<text text-anchor="middle" x="179" y="-298.5" font-family="Helvetica,sans-Serif" font-size="10.00">nsIPropertyBag</text>
</a>
</g>
<!-- Node3&#45;&gt;Node2 -->
<g id="edge4" class="edge"><title>Node3&#45;&gt;Node2</title>
<path fill="none" stroke="midnightblue" d="M154.559,-283.691C143.354,-273.9 131.106,-261.973 123.765,-253.571"/>
<polygon fill="midnightblue" stroke="midnightblue" points="152.552,-286.577 162.448,-290.362 157.072,-281.232 152.552,-286.577"/>
</g>
<!-- Node3&#45;&gt;Node2 -->
<g id="edge10" class="edge"><title>Node3&#45;&gt;Node2</title>
<path fill="none" stroke="midnightblue" d="M166.203,-282.83C156.896,-273.208 144.502,-261.728 134.47,-253.571"/>
<polygon fill="midnightblue" stroke="midnightblue" points="163.814,-285.401 173.176,-290.362 168.951,-280.646 163.814,-285.401"/>
</g>
<!-- Node6 -->
<g id="node12" class="node"><title>Node6</title>
<a xlink:href="../../d2/d42/interfacens_i_property_bag2.html" target="_top" xlink:title="nsIPropertyBag2">
<polygon fill="white" stroke="black" points="195.5,-232.5 195.5,-253.5 284.5,-253.5 284.5,-232.5 195.5,-232.5"/>
<text text-anchor="middle" x="240" y="-240.5" font-family="Helvetica,sans-Serif" font-size="10.00">nsIPropertyBag2</text>
</a>
</g>
<!-- Node3&#45;&gt;Node6 -->
<g id="edge16" class="edge"><title>Node3&#45;&gt;Node6</title>
<path fill="none" stroke="midnightblue" d="M191.797,-282.83C201.104,-273.208 213.498,-261.728 223.53,-253.571"/>
<polygon fill="midnightblue" stroke="midnightblue" points="189.049,-280.646 184.824,-290.362 194.186,-285.401 189.049,-280.646"/>
</g>
<!-- Node3&#45;&gt;Node6 -->
<g id="edge18" class="edge"><title>Node3&#45;&gt;Node6</title>
<path fill="none" stroke="midnightblue" d="M203.441,-283.691C214.646,-273.9 226.894,-261.973 234.235,-253.571"/>
<polygon fill="midnightblue" stroke="midnightblue" points="200.928,-281.232 195.552,-290.362 205.448,-286.577 200.928,-281.232"/>
</g>
<!-- Node4 -->
<g id="node6" class="node"><title>Node4</title>
<a xlink:href="../../d4/d6a/classns_i_supports.html" target="_top" xlink:title="nsISupports">
<polygon fill="white" stroke="black" points="144.5,-348.5 144.5,-369.5 213.5,-369.5 213.5,-348.5 144.5,-348.5"/>
<text text-anchor="middle" x="179" y="-356.5" font-family="Helvetica,sans-Serif" font-size="10.00">nsISupports</text>
</a>
</g>
<!-- Node4&#45;&gt;Node3 -->
<g id="edge6" class="edge"><title>Node4&#45;&gt;Node3</title>
<path fill="none" stroke="midnightblue" d="M172.495,-338.191C171.941,-329.168 172.326,-318.994 173.648,-311.571"/>
<polygon fill="midnightblue" stroke="midnightblue" points="169.043,-338.814 173.636,-348.362 176,-338.034 169.043,-338.814"/>
</g>
<!-- Node4&#45;&gt;Node3 -->
<g id="edge8" class="edge"><title>Node4&#45;&gt;Node3</title>
<path fill="none" stroke="midnightblue" d="M185.505,-338.191C186.059,-329.168 185.674,-318.994 184.352,-311.571"/>
<polygon fill="midnightblue" stroke="midnightblue" points="182,-338.034 184.364,-348.362 188.957,-338.814 182,-338.034"/>
</g>
<!-- Node5 -->
<g id="node10" class="node"><title>Node5</title>
<a xlink:href="../../d0/d56/interfacens_i_writable_property_bag2.html" target="_top" xlink:title="nsIWritablePropertyBag2">
<polygon fill="white" stroke="black" points="177.5,-174.5 177.5,-195.5 302.5,-195.5 302.5,-174.5 177.5,-174.5"/>
<text text-anchor="middle" x="240" y="-182.5" font-family="Helvetica,sans-Serif" font-size="10.00">nsIWritablePropertyBag2</text>
</a>
</g>
<!-- Node5&#45;&gt;Node1 -->
<g id="edge12" class="edge"><title>Node5&#45;&gt;Node1</title>
<path fill="none" stroke="midnightblue" d="M223.396,-166.83C214.604,-157.208 204.114,-145.728 196.659,-137.571"/>
<polygon fill="midnightblue" stroke="midnightblue" points="220.949,-169.341 230.279,-174.362 226.117,-164.619 220.949,-169.341"/>
</g>
<!-- Node6&#45;&gt;Node5 -->
<g id="edge14" class="edge"><title>Node6&#45;&gt;Node5</title>
<path fill="none" stroke="midnightblue" d="M233.495,-222.191C232.941,-213.168 233.326,-202.994 234.648,-195.571"/>
<polygon fill="midnightblue" stroke="midnightblue" points="230.043,-222.814 234.636,-232.362 237,-222.034 230.043,-222.814"/>
</g>
<!-- Node6&#45;&gt;Node5 -->
<g id="edge20" class="edge"><title>Node6&#45;&gt;Node5</title>
<path fill="none" stroke="midnightblue" d="M246.505,-222.191C247.059,-213.168 246.674,-202.994 245.352,-195.571"/>
<polygon fill="midnightblue" stroke="midnightblue" points="243,-222.034 245.364,-232.362 249.957,-222.814 243,-222.034"/>
</g>
<!-- Node9 -->
<g id="node22" class="node"><title>Node9</title>
<a xlink:href="../../d2/db2/classmozilla_1_1net_1_1_http_channel_child.html" target="_top" xlink:title="mozilla::net::HttpChannelChild">
<polygon fill="white" stroke="black" points="206,-0.5 206,-21.5 356,-21.5 356,-0.5 206,-0.5"/>
<text text-anchor="middle" x="281" y="-8.5" font-family="Helvetica,sans-Serif" font-size="10.00">mozilla::net::HttpChannelChild</text>
</a>
</g>
<!-- Node8&#45;&gt;Node9 -->
<g id="edge26" class="edge"><title>Node8&#45;&gt;Node9</title>
<path fill="none" stroke="midnightblue" d="M281,-48.1906C281,-39.1684 281,-28.9941 281,-21.5707"/>
<polygon fill="midnightblue" stroke="midnightblue" points="277.5,-48.3619 281,-58.3619 284.5,-48.3619 277.5,-48.3619"/>
</g>
</g>
</svg>
