<?xml version="1.0" encoding="UTF-8" standalone="no"?>
<!DOCTYPE svg PUBLIC "-//W3C//DTD SVG 1.1//EN"
 "http://www.w3.org/Graphics/SVG/1.1/DTD/svg11.dtd">
<!-- Generated by graphviz version 2.26.3 (20100126.1600)
 -->
<!-- Title: G Pages: 1 -->
<!--zoomable 204 -->
<svg id="main" version="1.1" xmlns="http://www.w3.org/2000/svg" xmlns:xlink="http://www.w3.org/1999/xlink" xml:space="preserve" onload="init(evt)">
        <defs>
                <circle id="rim" cx="0" cy="0" r="7"/>
                <circle id="rim2" cx="0" cy="0" r="3.5"/>
                <g id="zoomPlus">
                        <use xlink:href="#rim" fill="#404040">
                                <set attributeName="fill" to="#808080" begin="zoomplus.mouseover" end="zoomplus.mouseout"/>
                        </use>
                        <path d="M-4,0h8M0,-4v8" fill="none" stroke="white" stroke-width="1.5" pointer-events="none"/>
                </g>
                <g id="zoomMin">
                        <use xlink:href="#rim" fill="#404040">
                                <set attributeName="fill" to="#808080" begin="zoomminus.mouseover" end="zoomminus.mouseout"/>
                        </use>
                        <path d="M-4,0h8" fill="none" stroke="white" stroke-width="1.5" pointer-events="none"/>
                </g>
                <g id="dirArrow">
                        <path fill="none" stroke="white" stroke-width="1.5" d="M0,-3.0v7 M-2.5,-0.5L0,-3.0L2.5,-0.5"/>
                </g>
               <g id="resetDef">
                       <use xlink:href="#rim2" fill="#404040">
                               <set attributeName="fill" to="#808080" begin="reset.mouseover" end="reset.mouseout"/>
                       </use>
               </g>
        </defs>

<script type="text/javascript">
var viewWidth = 538;
var viewHeight = 204;
var sectionId = 'dynsection-0';
</script>
<script xlink:href="../../svgpan.js"/>
<svg id="graph" class="graph">
<g id="viewport">
<title>G</title>
<polygon fill="white" stroke="white" points="-4,5 -4,-200 535.493,-200 535.493,5 -4,5"/>
<!-- Node1 -->
<g id="node1" class="node"><title>Node1</title>
<polygon fill="#bfbfbf" stroke="black" points="219.493,-174.5 219.493,-195.5 289.493,-195.5 289.493,-174.5 219.493,-174.5"/>
<text text-anchor="middle" x="254.493" y="-182.5" font-family="Helvetica,sans-Serif" font-size="10.00">b2g&#45;info.cpp</text>
</g>
<!-- Node2 -->
<g id="node3" class="node"><title>Node2</title>
<a xlink:href="../../dd/d98/table_8h.html" target="_top" xlink:title="table.h">
<polygon fill="white" stroke="black" points="180.493,-116.5 180.493,-137.5 226.493,-137.5 226.493,-116.5 180.493,-116.5"/>
<text text-anchor="middle" x="203.493" y="-124.5" font-family="Helvetica,sans-Serif" font-size="10.00">table.h</text>
</a>
</g>
<!-- Node1&#45;&gt;Node2 -->
<g id="edge2" class="edge"><title>Node1&#45;&gt;Node2</title>
<path fill="none" stroke="midnightblue" d="M245.139,-174.362C237.95,-166.186 227.852,-154.702 219.4,-145.091"/>
<polygon fill="midnightblue" stroke="midnightblue" points="222.02,-142.769 212.788,-137.571 216.763,-147.392 222.02,-142.769"/>
</g>
<!-- Node4 -->
<g id="node7" class="node"><title>Node4</title>
<polygon fill="white" stroke="#bfbfbf" points="118.993,-0.5 118.993,-21.5 159.993,-21.5 159.993,-0.5 118.993,-0.5"/>
<text text-anchor="middle" x="139.493" y="-8.5" font-family="Helvetica,sans-Serif" font-size="10.00">string</text>
</g>
<!-- Node1&#45;&gt;Node4 -->
<g id="edge30" class="edge"><title>Node1&#45;&gt;Node4</title>
<path fill="none" stroke="midnightblue" d="M253.055,-174.153C250.849,-160.064 245.763,-135.025 235.493,-116 216.35,-80.5376 182.614,-47.6279 160.661,-28.4214"/>
<polygon fill="midnightblue" stroke="midnightblue" points="162.751,-25.6029 152.88,-21.7546 158.197,-30.9187 162.751,-25.6029"/>
</g>
<!-- Node5 -->
<g id="node9" class="node"><title>Node5</title>
<a xlink:href="../../da/d42/process_8h.html" target="_top" xlink:title="process.h">
<polygon fill="white" stroke="black" points="13.9929,-116.5 13.9929,-137.5 72.9929,-137.5 72.9929,-116.5 13.9929,-116.5"/>
<text text-anchor="middle" x="43.4929" y="-124.5" font-family="Helvetica,sans-Serif" font-size="10.00">process.h</text>
</a>
</g>
<!-- Node1&#45;&gt;Node5 -->
<g id="edge8" class="edge"><title>Node1&#45;&gt;Node5</title>
<path fill="none" stroke="midnightblue" d="M219.324,-175.628C186.386,-166.809 135.538,-153.094 83.147,-138.44"/>
<polygon fill="midnightblue" stroke="midnightblue" points="83.924,-135.022 73.3504,-135.693 82.0345,-141.763 83.924,-135.022"/>
</g>
<!-- Node6 -->
<g id="node11" class="node"><title>Node6</title>
<a xlink:href="../../d5/d60/utils_8h.html" target="_top" xlink:title="utils.h">
<polygon fill="white" stroke="black" points="13.9929,-58.5 13.9929,-79.5 56.9929,-79.5 56.9929,-58.5 13.9929,-58.5"/>
<text text-anchor="middle" x="35.4929" y="-66.5" font-family="Helvetica,sans-Serif" font-size="10.00">utils.h</text>
</a>
</g>
<!-- Node1&#45;&gt;Node6 -->
<g id="edge22" class="edge"><title>Node1&#45;&gt;Node6</title>
<path fill="none" stroke="midnightblue" d="M219.184,-183.68C157.059,-180.535 32.234,-170.261 5.49292,-138 -6.88611,-123.066 5.19119,-102.24 17.5171,-87.3825"/>
<polygon fill="midnightblue" stroke="midnightblue" points="20.2122,-89.6187 24.2366,-79.8179 14.9787,-84.9699 20.2122,-89.6187"/>
</g>
<!-- Node7 -->
<g id="node16" class="node"><title>Node7</title>
<a xlink:href="../../d5/d32/processlist_8h.html" target="_top" xlink:title="processlist.h">
<polygon fill="white" stroke="black" points="90.4929,-116.5 90.4929,-137.5 162.493,-137.5 162.493,-116.5 90.4929,-116.5"/>
<text text-anchor="middle" x="126.493" y="-124.5" font-family="Helvetica,sans-Serif" font-size="10.00">processlist.h</text>
</a>
</g>
<!-- Node1&#45;&gt;Node7 -->
<g id="edge18" class="edge"><title>Node1&#45;&gt;Node7</title>
<path fill="none" stroke="midnightblue" d="M231.313,-174.497C211.141,-165.356 181.683,-152.008 159.129,-141.788"/>
<polygon fill="midnightblue" stroke="midnightblue" points="160.486,-138.561 149.933,-137.621 157.597,-144.937 160.486,-138.561"/>
</g>
<!-- Node8 -->
<g id="node20" class="node"><title>Node8</title>
<polygon fill="white" stroke="#bfbfbf" points="282.493,-116.5 282.493,-137.5 334.493,-137.5 334.493,-116.5 282.493,-116.5"/>
<text text-anchor="middle" x="308.493" y="-124.5" font-family="Helvetica,sans-Serif" font-size="10.00">assert.h</text>
</g>
<!-- Node1&#45;&gt;Node8 -->
<g id="edge24" class="edge"><title>Node1&#45;&gt;Node8</title>
<path fill="none" stroke="midnightblue" d="M264.397,-174.362C272.009,-166.186 282.701,-154.702 291.65,-145.091"/>
<polygon fill="midnightblue" stroke="midnightblue" points="294.399,-147.275 298.651,-137.571 289.275,-142.505 294.399,-147.275"/>
</g>
<!-- Node9 -->
<g id="node22" class="node"><title>Node9</title>
<polygon fill="white" stroke="#bfbfbf" points="351.993,-116.5 351.993,-137.5 398.993,-137.5 398.993,-116.5 351.993,-116.5"/>
<text text-anchor="middle" x="375.493" y="-124.5" font-family="Helvetica,sans-Serif" font-size="10.00">errno.h</text>
</g>
<!-- Node1&#45;&gt;Node9 -->
<g id="edge26" class="edge"><title>Node1&#45;&gt;Node9</title>
<path fill="none" stroke="midnightblue" d="M276.405,-174.497C295.304,-165.438 322.824,-152.246 344.069,-142.063"/>
<polygon fill="midnightblue" stroke="midnightblue" points="345.83,-145.1 353.335,-137.621 342.804,-138.788 345.83,-145.1"/>
</g>
<!-- Node10 -->
<g id="node24" class="node"><title>Node10</title>
<polygon fill="white" stroke="#bfbfbf" points="416.493,-116.5 416.493,-137.5 460.493,-137.5 460.493,-116.5 416.493,-116.5"/>
<text text-anchor="middle" x="438.493" y="-124.5" font-family="Helvetica,sans-Serif" font-size="10.00">fcntl.h</text>
</g>
<!-- Node1&#45;&gt;Node10 -->
<g id="edge28" class="edge"><title>Node1&#45;&gt;Node10</title>
<path fill="none" stroke="midnightblue" d="M289.569,-174.692C318.603,-166.055 361.142,-153.166 406.47,-138.257"/>
<polygon fill="midnightblue" stroke="midnightblue" points="407.786,-141.509 416.181,-135.046 405.588,-134.862 407.786,-141.509"/>
</g>
<!-- Node11 -->
<g id="node27" class="node"><title>Node11</title>
<polygon fill="white" stroke="#bfbfbf" points="478.493,-116.5 478.493,-137.5 530.493,-137.5 530.493,-116.5 478.493,-116.5"/>
<text text-anchor="middle" x="504.493" y="-124.5" font-family="Helvetica,sans-Serif" font-size="10.00">sstream</text>
</g>
<!-- Node1&#45;&gt;Node11 -->
<g id="edge32" class="edge"><title>Node1&#45;&gt;Node11</title>
<path fill="none" stroke="midnightblue" d="M289.729,-178.302C330.502,-170.331 399.832,-156.104 468.128,-138.209"/>
<polygon fill="midnightblue" stroke="midnightblue" points="469.423,-141.487 478.193,-135.542 467.63,-134.72 469.423,-141.487"/>
</g>
<!-- Node3 -->
<g id="node5" class="node"><title>Node3</title>
<polygon fill="white" stroke="#bfbfbf" points="112.493,-58.5 112.493,-79.5 156.493,-79.5 156.493,-58.5 112.493,-58.5"/>
<text text-anchor="middle" x="134.493" y="-66.5" font-family="Helvetica,sans-Serif" font-size="10.00">vector</text>
</g>
<!-- Node2&#45;&gt;Node3 -->
<g id="edge4" class="edge"><title>Node2&#45;&gt;Node3</title>
<path fill="none" stroke="midnightblue" d="M190.837,-116.362C180.819,-107.941 166.626,-96.0105 154.992,-86.2308"/>
<polygon fill="midnightblue" stroke="midnightblue" points="156.975,-83.326 147.068,-79.5707 152.471,-88.6844 156.975,-83.326"/>
</g>
<!-- Node2&#45;&gt;Node4 -->
<g id="edge6" class="edge"><title>Node2&#45;&gt;Node4</title>
<path fill="none" stroke="midnightblue" d="M197.575,-116.24C190.106,-102.662 176.86,-78.5934 165.493,-58 160.57,-49.0808 155.114,-39.2146 150.476,-30.834"/>
<polygon fill="midnightblue" stroke="midnightblue" points="153.394,-28.878 145.488,-21.824 147.269,-32.2681 153.394,-28.878"/>
</g>
<!-- Node5&#45;&gt;Node3 -->
<g id="edge16" class="edge"><title>Node5&#45;&gt;Node3</title>
<path fill="none" stroke="midnightblue" d="M60.1837,-116.362C73.9093,-107.614 93.5765,-95.0786 109.23,-85.1015"/>
<polygon fill="midnightblue" stroke="midnightblue" points="111.356,-87.8969 117.908,-79.5707 107.594,-81.994 111.356,-87.8969"/>
</g>
<!-- Node5&#45;&gt;Node4 -->
<g id="edge14" class="edge"><title>Node5&#45;&gt;Node4</title>
<path fill="none" stroke="midnightblue" d="M52.3523,-116.295C68.7118,-96.5271 103.84,-54.0801 124.146,-29.5443"/>
<polygon fill="midnightblue" stroke="midnightblue" points="126.976,-31.6147 130.655,-21.6792 121.583,-27.1517 126.976,-31.6147"/>
</g>
<!-- Node5&#45;&gt;Node6 -->
<g id="edge10" class="edge"><title>Node5&#45;&gt;Node6</title>
<path fill="none" stroke="midnightblue" d="M42.0256,-116.362C40.9994,-108.922 39.5954,-98.7427 38.3519,-89.7276"/>
<polygon fill="midnightblue" stroke="midnightblue" points="41.7846,-88.9986 36.9509,-79.5707 34.8502,-89.9551 41.7846,-88.9986"/>
</g>
<!-- Node6&#45;&gt;Node4 -->
<g id="edge12" class="edge"><title>Node6&#45;&gt;Node4</title>
<path fill="none" stroke="midnightblue" d="M54.5681,-58.3619C70.5476,-49.4502 93.5739,-36.6087 111.62,-26.5447"/>
<polygon fill="midnightblue" stroke="midnightblue" points="113.51,-29.4982 120.539,-21.5707 110.1,-23.3846 113.51,-29.4982"/>
</g>
<!-- Node7&#45;&gt;Node3 -->
<g id="edge20" class="edge"><title>Node7&#45;&gt;Node3</title>
<path fill="none" stroke="midnightblue" d="M127.96,-116.362C128.986,-108.922 130.39,-98.7427 131.634,-89.7276"/>
<polygon fill="midnightblue" stroke="midnightblue" points="135.136,-89.9551 133.035,-79.5707 128.201,-88.9986 135.136,-89.9551"/>
</g>
</g>
</svg>
        <g id="navigator" transform="translate(0 0)" fill="#404254">
                <rect fill="#f2f5e9" fill-opacity="0.5" stroke="#606060" stroke-width=".5" x="0" y="0" width="60" height="60"/>
                <use id="zoomplus" xlink:href="#zoomPlus" x="17" y="9" onmousedown="handleZoom(evt,'in')"/>
                <use id="zoomminus" xlink:href="#zoomMin" x="42" y="9" onmousedown="handleZoom(evt,'out')"/>
                <use id="reset" xlink:href="#resetDef" x="30" y="36" onmousedown="handleReset()"/>
                <g id="arrowUp" xlink:href="#dirArrow" transform="translate(30 24)" onmousedown="handlePan(0,-1)">
                  <use xlink:href="#rim" fill="#404040">
                        <set attributeName="fill" to="#808080" begin="arrowUp.mouseover" end="arrowUp.mouseout"/>
                  </use>
                  <path fill="none" stroke="white" stroke-width="1.5" d="M0,-3.0v7 M-2.5,-0.5L0,-3.0L2.5,-0.5"/>
                </g>
                <g id="arrowRight" xlink:href="#dirArrow" transform="rotate(90) translate(36 -43)" onmousedown="handlePan(1,0)">
                  <use xlink:href="#rim" fill="#404040">
                        <set attributeName="fill" to="#808080" begin="arrowRight.mouseover" end="arrowRight.mouseout"/>
                  </use>
                  <path fill="none" stroke="white" stroke-width="1.5" d="M0,-3.0v7 M-2.5,-0.5L0,-3.0L2.5,-0.5"/>
                </g>
                <g id="arrowDown" xlink:href="#dirArrow" transform="rotate(180) translate(-30 -48)" onmousedown="handlePan(0,1)">
                  <use xlink:href="#rim" fill="#404040">
                        <set attributeName="fill" to="#808080" begin="arrowDown.mouseover" end="arrowDown.mouseout"/>
                  </use>
                  <path fill="none" stroke="white" stroke-width="1.5" d="M0,-3.0v7 M-2.5,-0.5L0,-3.0L2.5,-0.5"/>
                </g>
                <g id="arrowLeft" xlink:href="#dirArrow" transform="rotate(270) translate(-36 17)" onmousedown="handlePan(-1,0)">
                  <use xlink:href="#rim" fill="#404040">
                        <set attributeName="fill" to="#808080" begin="arrowLeft.mouseover" end="arrowLeft.mouseout"/>
                  </use>
                  <path fill="none" stroke="white" stroke-width="1.5" d="M0,-3.0v7 M-2.5,-0.5L0,-3.0L2.5,-0.5"/>
                </g>
        </g>
</svg>
