<?xml version="1.0" encoding="UTF-8" standalone="no"?>
<!DOCTYPE svg PUBLIC "-//W3C//DTD SVG 1.1//EN"
 "http://www.w3.org/Graphics/SVG/1.1/DTD/svg11.dtd">
<!-- Generated by graphviz version 2.26.3 (20100126.1600)
 -->
<!-- Title: G Pages: 1 -->
<svg width="412pt" height="70pt"
 viewBox="0.00 0.00 412.00 70.00" xmlns="http://www.w3.org/2000/svg" xmlns:xlink="http://www.w3.org/1999/xlink">
<g id="graph1" class="graph" transform="scale(1 1) rotate(0) translate(4 66)">
<title>G</title>
<polygon fill="white" stroke="white" points="-4,5 -4,-66 409,-66 409,5 -4,5"/>
<!-- Node1 -->
<g id="node1" class="node"><title>Node1</title>
<polygon fill="#bfbfbf" stroke="black" points="0,-20.5 0,-41.5 156,-41.5 156,-20.5 0,-20.5"/>
<text text-anchor="middle" x="78" y="-28.5" font-family="Helvetica,sans-Serif" font-size="10.00">mozilla::gl::GLContext::fDisable</text>
</g>
<!-- Node2 -->
<g id="node3" class="node"><title>Node2</title>
<a xlink:href="../../dd/d58/structmozilla_1_1gl_1_1_scoped_g_l_state.html#a1976a8dc53d656165bc4e287063117cc" target="_top" xlink:title="mozilla::gl::ScopedGLState::ScopedGLState">
<polygon fill="white" stroke="black" points="192.5,-40.5 192.5,-61.5 403.5,-61.5 403.5,-40.5 192.5,-40.5"/>
<text text-anchor="middle" x="298" y="-48.5" font-family="Helvetica,sans-Serif" font-size="10.00">mozilla::gl::ScopedGLState::ScopedGLState</text>
</a>
</g>
<!-- Node1&#45;&gt;Node2 -->
<g id="edge2" class="edge"><title>Node1&#45;&gt;Node2</title>
<path fill="none" stroke="midnightblue" d="M166.195,-39.0177C174.807,-39.8007 183.606,-40.6005 192.367,-41.397"/>
<polygon fill="midnightblue" stroke="midnightblue" points="166.459,-35.5274 156.183,-38.1076 165.825,-42.4986 166.459,-35.5274"/>
</g>
<!-- Node3 -->
<g id="node5" class="node"><title>Node3</title>
<a xlink:href="../../dd/d58/structmozilla_1_1gl_1_1_scoped_g_l_state.html#a0f73a9c4219d4543d7425fc969d0e35a" target="_top" xlink:title="mozilla::gl::ScopedGLState::UnwrapImpl">
<polygon fill="white" stroke="black" points="201,-0.5 201,-21.5 395,-21.5 395,-0.5 201,-0.5"/>
<text text-anchor="middle" x="298" y="-8.5" font-family="Helvetica,sans-Serif" font-size="10.00">mozilla::gl::ScopedGLState::UnwrapImpl</text>
</a>
</g>
<!-- Node1&#45;&gt;Node3 -->
<g id="edge4" class="edge"><title>Node1&#45;&gt;Node3</title>
<path fill="none" stroke="midnightblue" d="M166.461,-22.9581C177.765,-21.9305 189.384,-20.8741 200.817,-19.8348"/>
<polygon fill="midnightblue" stroke="midnightblue" points="165.825,-19.5014 156.183,-23.8924 166.459,-26.4726 165.825,-19.5014"/>
</g>
</g>
</svg>
