<?xml version="1.0" encoding="UTF-8" standalone="no"?>
<!DOCTYPE svg PUBLIC "-//W3C//DTD SVG 1.1//EN"
 "http://www.w3.org/Graphics/SVG/1.1/DTD/svg11.dtd">
<!-- Generated by graphviz version 2.26.3 (20100126.1600)
 -->
<!-- Title: G Pages: 1 -->
<!--zoomable 190 -->
<svg id="main" version="1.1" xmlns="http://www.w3.org/2000/svg" xmlns:xlink="http://www.w3.org/1999/xlink" xml:space="preserve" onload="init(evt)">
        <defs>
                <circle id="rim" cx="0" cy="0" r="7"/>
                <circle id="rim2" cx="0" cy="0" r="3.5"/>
                <g id="zoomPlus">
                        <use xlink:href="#rim" fill="#404040">
                                <set attributeName="fill" to="#808080" begin="zoomplus.mouseover" end="zoomplus.mouseout"/>
                        </use>
                        <path d="M-4,0h8M0,-4v8" fill="none" stroke="white" stroke-width="1.5" pointer-events="none"/>
                </g>
                <g id="zoomMin">
                        <use xlink:href="#rim" fill="#404040">
                                <set attributeName="fill" to="#808080" begin="zoomminus.mouseover" end="zoomminus.mouseout"/>
                        </use>
                        <path d="M-4,0h8" fill="none" stroke="white" stroke-width="1.5" pointer-events="none"/>
                </g>
                <g id="dirArrow">
                        <path fill="none" stroke="white" stroke-width="1.5" d="M0,-3.0v7 M-2.5,-0.5L0,-3.0L2.5,-0.5"/>
                </g>
               <g id="resetDef">
                       <use xlink:href="#rim2" fill="#404040">
                               <set attributeName="fill" to="#808080" begin="reset.mouseover" end="reset.mouseout"/>
                       </use>
               </g>
        </defs>

<script type="text/javascript">
var viewWidth = 640;
var viewHeight = 190;
var sectionId = 'dynsection-11';
</script>
<script xlink:href="../../svgpan.js"/>
<svg id="graph" class="graph">
<g id="viewport">
<title>G</title>
<polygon fill="white" stroke="white" points="-4,5 -4,-186 637,-186 637,5 -4,5"/>
<!-- Node1 -->
<g id="node1" class="node"><title>Node1</title>
<polygon fill="#bfbfbf" stroke="black" points="0.5,-80.5 0.5,-101.5 209.5,-101.5 209.5,-80.5 0.5,-80.5"/>
<text text-anchor="middle" x="105" y="-88.5" font-family="Helvetica,sans-Serif" font-size="10.00">mozilla::gl::GLContext::fDeleteFramebuffers</text>
</g>
<!-- Node2 -->
<g id="node3" class="node"><title>Node2</title>
<a xlink:href="../../da/d33/structmozilla_1_1gl_1_1_scoped_framebuffer_for_renderbuffer.html#a243323af860f27fca39642fbf7676b6d" target="_top" xlink:title="mozilla::gl::ScopedFramebufferForRenderbuffer::ScopedFramebufferForRenderbuffer">
<polygon fill="white" stroke="black" points="246.5,-160.5 246.5,-181.5 631.5,-181.5 631.5,-160.5 246.5,-160.5"/>
<text text-anchor="middle" x="439" y="-168.5" font-family="Helvetica,sans-Serif" font-size="10.00">mozilla::gl::ScopedFramebufferForRenderbuffer::ScopedFramebufferForRenderbuffer</text>
</a>
</g>
<!-- Node1&#45;&gt;Node2 -->
<g id="edge2" class="edge"><title>Node1&#45;&gt;Node2</title>
<path fill="none" stroke="midnightblue" d="M134.051,-106.415C161.946,-120.471 205.678,-140.584 246,-151 260.922,-154.855 276.674,-157.97 292.484,-160.488"/>
<polygon fill="midnightblue" stroke="midnightblue" points="135.374,-103.16 124.877,-101.722 132.186,-109.392 135.374,-103.16"/>
</g>
<!-- Node3 -->
<g id="node5" class="node"><title>Node3</title>
<a xlink:href="../../d9/d38/structmozilla_1_1gl_1_1_scoped_framebuffer_for_texture.html#a2ec23ebaf508265c7f3ea2e0024dfc44" target="_top" xlink:title="mozilla::gl::ScopedFramebufferForTexture::ScopedFramebufferForTexture">
<polygon fill="white" stroke="black" points="270,-120.5 270,-141.5 608,-141.5 608,-120.5 270,-120.5"/>
<text text-anchor="middle" x="439" y="-128.5" font-family="Helvetica,sans-Serif" font-size="10.00">mozilla::gl::ScopedFramebufferForTexture::ScopedFramebufferForTexture</text>
</a>
</g>
<!-- Node1&#45;&gt;Node3 -->
<g id="edge4" class="edge"><title>Node1&#45;&gt;Node3</title>
<path fill="none" stroke="midnightblue" d="M185.741,-102.986C205.436,-105.762 226.461,-108.603 246,-111 273.334,-114.354 302.891,-117.605 330.465,-120.477"/>
<polygon fill="midnightblue" stroke="midnightblue" points="185.97,-99.483 175.577,-101.542 184.986,-106.413 185.97,-99.483"/>
</g>
<!-- Node4 -->
<g id="node7" class="node"><title>Node4</title>
<a xlink:href="../../d9/d38/structmozilla_1_1gl_1_1_scoped_framebuffer_for_texture.html#aab22606770e07366ef638a90f8082739" target="_top" xlink:title="mozilla::gl::ScopedFramebufferForTexture::UnwrapImpl">
<polygon fill="white" stroke="black" points="310,-80.5 310,-101.5 568,-101.5 568,-80.5 310,-80.5"/>
<text text-anchor="middle" x="439" y="-88.5" font-family="Helvetica,sans-Serif" font-size="10.00">mozilla::gl::ScopedFramebufferForTexture::UnwrapImpl</text>
</a>
</g>
<!-- Node1&#45;&gt;Node4 -->
<g id="edge6" class="edge"><title>Node1&#45;&gt;Node4</title>
<path fill="none" stroke="midnightblue" d="M219.922,-91C248.935,-91 280.279,-91 309.938,-91"/>
<polygon fill="midnightblue" stroke="midnightblue" points="219.763,-87.5001 209.763,-91 219.763,-94.5001 219.763,-87.5001"/>
</g>
<!-- Node5 -->
<g id="node9" class="node"><title>Node5</title>
<a xlink:href="../../da/d33/structmozilla_1_1gl_1_1_scoped_framebuffer_for_renderbuffer.html#ab3a396d5e1a72aeb39cac3f0765af1cb" target="_top" xlink:title="mozilla::gl::ScopedFramebufferForRenderbuffer::UnwrapImpl">
<polygon fill="white" stroke="black" points="298.5,-40.5 298.5,-61.5 579.5,-61.5 579.5,-40.5 298.5,-40.5"/>
<text text-anchor="middle" x="439" y="-48.5" font-family="Helvetica,sans-Serif" font-size="10.00">mozilla::gl::ScopedFramebufferForRenderbuffer::UnwrapImpl</text>
</a>
</g>
<!-- Node1&#45;&gt;Node5 -->
<g id="edge8" class="edge"><title>Node1&#45;&gt;Node5</title>
<path fill="none" stroke="midnightblue" d="M185.741,-79.0145C205.436,-76.238 226.461,-73.3973 246,-71 273.334,-67.6464 302.891,-64.3951 330.465,-61.5228"/>
<polygon fill="midnightblue" stroke="midnightblue" points="184.986,-75.5865 175.577,-80.4579 185.97,-82.517 184.986,-75.5865"/>
</g>
<!-- Node6 -->
<g id="node11" class="node"><title>Node6</title>
<a xlink:href="../../d3/d7b/classmozilla_1_1layers_1_1_compositing_render_target_o_g_l.html#a6395e8cb07b48a3dd41699f28ab3596c" target="_top" xlink:title="mozilla::layers::CompositingRenderTargetOGL::~CompositingRenderTargetOGL">
<polygon fill="white" stroke="black" points="256,-0.5 256,-21.5 622,-21.5 622,-0.5 256,-0.5"/>
<text text-anchor="middle" x="439" y="-8.5" font-family="Helvetica,sans-Serif" font-size="10.00">mozilla::layers::CompositingRenderTargetOGL::~CompositingRenderTargetOGL</text>
</a>
</g>
<!-- Node1&#45;&gt;Node6 -->
<g id="edge10" class="edge"><title>Node1&#45;&gt;Node6</title>
<path fill="none" stroke="midnightblue" d="M134.051,-75.5847C161.946,-61.5288 205.678,-41.4158 246,-31 260.922,-27.1455 276.674,-24.0299 292.484,-21.5123"/>
<polygon fill="midnightblue" stroke="midnightblue" points="132.186,-72.6077 124.877,-80.2779 135.374,-78.8396 132.186,-72.6077"/>
</g>
</g>
</svg>
        <g id="navigator" transform="translate(0 0)" fill="#404254">
                <rect fill="#f2f5e9" fill-opacity="0.5" stroke="#606060" stroke-width=".5" x="0" y="0" width="60" height="60"/>
                <use id="zoomplus" xlink:href="#zoomPlus" x="17" y="9" onmousedown="handleZoom(evt,'in')"/>
                <use id="zoomminus" xlink:href="#zoomMin" x="42" y="9" onmousedown="handleZoom(evt,'out')"/>
                <use id="reset" xlink:href="#resetDef" x="30" y="36" onmousedown="handleReset()"/>
                <g id="arrowUp" xlink:href="#dirArrow" transform="translate(30 24)" onmousedown="handlePan(0,-1)">
                  <use xlink:href="#rim" fill="#404040">
                        <set attributeName="fill" to="#808080" begin="arrowUp.mouseover" end="arrowUp.mouseout"/>
                  </use>
                  <path fill="none" stroke="white" stroke-width="1.5" d="M0,-3.0v7 M-2.5,-0.5L0,-3.0L2.5,-0.5"/>
                </g>
                <g id="arrowRight" xlink:href="#dirArrow" transform="rotate(90) translate(36 -43)" onmousedown="handlePan(1,0)">
                  <use xlink:href="#rim" fill="#404040">
                        <set attributeName="fill" to="#808080" begin="arrowRight.mouseover" end="arrowRight.mouseout"/>
                  </use>
                  <path fill="none" stroke="white" stroke-width="1.5" d="M0,-3.0v7 M-2.5,-0.5L0,-3.0L2.5,-0.5"/>
                </g>
                <g id="arrowDown" xlink:href="#dirArrow" transform="rotate(180) translate(-30 -48)" onmousedown="handlePan(0,1)">
                  <use xlink:href="#rim" fill="#404040">
                        <set attributeName="fill" to="#808080" begin="arrowDown.mouseover" end="arrowDown.mouseout"/>
                  </use>
                  <path fill="none" stroke="white" stroke-width="1.5" d="M0,-3.0v7 M-2.5,-0.5L0,-3.0L2.5,-0.5"/>
                </g>
                <g id="arrowLeft" xlink:href="#dirArrow" transform="rotate(270) translate(-36 17)" onmousedown="handlePan(-1,0)">
                  <use xlink:href="#rim" fill="#404040">
                        <set attributeName="fill" to="#808080" begin="arrowLeft.mouseover" end="arrowLeft.mouseout"/>
                  </use>
                  <path fill="none" stroke="white" stroke-width="1.5" d="M0,-3.0v7 M-2.5,-0.5L0,-3.0L2.5,-0.5"/>
                </g>
        </g>
</svg>
