<?xml version="1.0" encoding="UTF-8" standalone="no"?>
<!DOCTYPE svg PUBLIC "-//W3C//DTD SVG 1.1//EN"
 "http://www.w3.org/Graphics/SVG/1.1/DTD/svg11.dtd">
<!-- Generated by graphviz version 2.26.3 (20100126.1600)
 -->
<!-- Title: G Pages: 1 -->
<svg width="348pt" height="146pt"
 viewBox="0.00 0.00 348.00 146.00" xmlns="http://www.w3.org/2000/svg" xmlns:xlink="http://www.w3.org/1999/xlink">
<g id="graph1" class="graph" transform="scale(1 1) rotate(0) translate(4 142)">
<title>G</title>
<polygon fill="white" stroke="white" points="-4,5 -4,-142 345,-142 345,5 -4,5"/>
<!-- Node1 -->
<g id="node1" class="node"><title>Node1</title>
<polygon fill="#bfbfbf" stroke="black" points="-0.5,-116.5 -0.5,-137.5 340.5,-137.5 340.5,-116.5 -0.5,-116.5"/>
<text text-anchor="middle" x="170" y="-124.5" font-family="Helvetica,sans-Serif" font-size="10.00">/home/aoi/Documents/FxOS/B2G/gaia/xulrunner&#45;sdk/include/mozilla/arm.h</text>
</g>
<!-- Node2 -->
<g id="node3" class="node"><title>Node2</title>
<a xlink:href="../../d9/dae/mozilla_2_types_8h.html" target="_top" xlink:title="mozilla/Types.h">
<polygon fill="white" stroke="black" points="127,-58.5 127,-79.5 213,-79.5 213,-58.5 127,-58.5"/>
<text text-anchor="middle" x="170" y="-66.5" font-family="Helvetica,sans-Serif" font-size="10.00">mozilla/Types.h</text>
</a>
</g>
<!-- Node1&#45;&gt;Node2 -->
<g id="edge2" class="edge"><title>Node1&#45;&gt;Node2</title>
<path fill="none" stroke="midnightblue" d="M170,-116.362C170,-108.922 170,-98.7427 170,-89.7276"/>
<polygon fill="midnightblue" stroke="midnightblue" points="173.5,-89.5706 170,-79.5707 166.5,-89.5707 173.5,-89.5706"/>
</g>
<!-- Node3 -->
<g id="node5" class="node"><title>Node3</title>
<polygon fill="white" stroke="#bfbfbf" points="110,-0.5 110,-21.5 162,-21.5 162,-0.5 110,-0.5"/>
<text text-anchor="middle" x="136" y="-8.5" font-family="Helvetica,sans-Serif" font-size="10.00">stddef.h</text>
</g>
<!-- Node2&#45;&gt;Node3 -->
<g id="edge4" class="edge"><title>Node2&#45;&gt;Node3</title>
<path fill="none" stroke="midnightblue" d="M163.764,-58.3619C159.163,-50.5131 152.775,-39.6159 147.286,-30.2527"/>
<polygon fill="midnightblue" stroke="midnightblue" points="150.273,-28.4276 142.197,-21.5707 144.234,-31.9677 150.273,-28.4276"/>
</g>
<!-- Node4 -->
<g id="node7" class="node"><title>Node4</title>
<polygon fill="white" stroke="#bfbfbf" points="179.5,-0.5 179.5,-21.5 228.5,-21.5 228.5,-0.5 179.5,-0.5"/>
<text text-anchor="middle" x="204" y="-8.5" font-family="Helvetica,sans-Serif" font-size="10.00">stdint.h</text>
</g>
<!-- Node2&#45;&gt;Node4 -->
<g id="edge6" class="edge"><title>Node2&#45;&gt;Node4</title>
<path fill="none" stroke="midnightblue" d="M176.236,-58.3619C180.837,-50.5131 187.225,-39.6159 192.714,-30.2527"/>
<polygon fill="midnightblue" stroke="midnightblue" points="195.766,-31.9677 197.803,-21.5707 189.727,-28.4276 195.766,-31.9677"/>
</g>
</g>
</svg>
