<?xml version="1.0" encoding="UTF-8" standalone="no"?>
<!DOCTYPE svg PUBLIC "-//W3C//DTD SVG 1.1//EN"
 "http://www.w3.org/Graphics/SVG/1.1/DTD/svg11.dtd">
<!-- Generated by graphviz version 2.26.3 (20100126.1600)
 -->
<!-- Title: G Pages: 1 -->
<svg width="356pt" height="230pt"
 viewBox="0.00 0.00 356.00 230.00" xmlns="http://www.w3.org/2000/svg" xmlns:xlink="http://www.w3.org/1999/xlink">
<g id="graph1" class="graph" transform="scale(1 1) rotate(0) translate(4 226)">
<title>G</title>
<polygon fill="white" stroke="white" points="-4,5 -4,-226 353,-226 353,5 -4,5"/>
<!-- Node1 -->
<g id="node1" class="node"><title>Node1</title>
<polygon fill="#bfbfbf" stroke="black" points="0.5,-100.5 0.5,-121.5 57.5,-121.5 57.5,-100.5 0.5,-100.5"/>
<text text-anchor="middle" x="29" y="-108.5" font-family="Helvetica,sans-Serif" font-size="10.00">moz_free</text>
</g>
<!-- Node2 -->
<g id="node3" class="node"><title>Node2</title>
<a xlink:href="../../d4/d22/structns_t_array_fallible_allocator.html#a05850d724d7b345603767d2fd9e61e96" target="_top" xlink:title="nsTArrayFallibleAllocator::Free">
<polygon fill="white" stroke="black" points="145.5,-200.5 145.5,-221.5 296.5,-221.5 296.5,-200.5 145.5,-200.5"/>
<text text-anchor="middle" x="221" y="-208.5" font-family="Helvetica,sans-Serif" font-size="10.00">nsTArrayFallibleAllocator::Free</text>
</a>
</g>
<!-- Node1&#45;&gt;Node2 -->
<g id="edge2" class="edge"><title>Node1&#45;&gt;Node2</title>
<path fill="none" stroke="midnightblue" d="M39.2532,-130.553C50.1803,-149.298 69.3029,-176.783 94,-191 109.475,-199.909 127.681,-205.203 145.399,-208.271"/>
<polygon fill="midnightblue" stroke="midnightblue" points="42.2249,-128.696 34.2999,-121.664 36.1101,-132.103 42.2249,-128.696"/>
</g>
<!-- Node3 -->
<g id="node5" class="node"><title>Node3</title>
<a xlink:href="../../dc/dbb/structns_t_array_infallible_allocator.html#afa389b2796468d22797fffb2ab1d970d" target="_top" xlink:title="nsTArrayInfallibleAllocator::Free">
<polygon fill="white" stroke="black" points="143,-160.5 143,-181.5 299,-181.5 299,-160.5 143,-160.5"/>
<text text-anchor="middle" x="221" y="-168.5" font-family="Helvetica,sans-Serif" font-size="10.00">nsTArrayInfallibleAllocator::Free</text>
</a>
</g>
<!-- Node1&#45;&gt;Node3 -->
<g id="edge4" class="edge"><title>Node1&#45;&gt;Node3</title>
<path fill="none" stroke="midnightblue" d="M51.1072,-127.654C63.1812,-135.94 78.7473,-145.364 94,-151 109.389,-156.686 126.41,-160.755 142.857,-163.668"/>
<polygon fill="midnightblue" stroke="midnightblue" points="52.7969,-124.561 42.6179,-121.622 48.7421,-130.267 52.7969,-124.561"/>
</g>
<!-- Node4 -->
<g id="node7" class="node"><title>Node4</title>
<a xlink:href="../../d0/d86/classgfx_shaped_word.html#ae6bd27259a4c550418925e482cdb7b33" target="_top" xlink:title="gfxShapedWord::operator delete">
<polygon fill="white" stroke="black" points="142.5,-120.5 142.5,-141.5 299.5,-141.5 299.5,-120.5 142.5,-120.5"/>
<text text-anchor="middle" x="221" y="-128.5" font-family="Helvetica,sans-Serif" font-size="10.00">gfxShapedWord::operator delete</text>
</a>
</g>
<!-- Node1&#45;&gt;Node4 -->
<g id="edge6" class="edge"><title>Node1&#45;&gt;Node4</title>
<path fill="none" stroke="midnightblue" d="M67.737,-115.035C89.1402,-117.265 116.528,-120.118 142.216,-122.793"/>
<polygon fill="midnightblue" stroke="midnightblue" points="68.0532,-111.549 57.7443,-113.994 67.3279,-118.512 68.0532,-111.549"/>
</g>
<!-- Node5 -->
<g id="node9" class="node"><title>Node5</title>
<a xlink:href="../../d6/d7e/classgfx_text_run.html#a071a2d9cb947ad2f841e35fa124caeed" target="_top" xlink:title="gfxTextRun::operator delete">
<polygon fill="white" stroke="black" points="152,-80.5 152,-101.5 290,-101.5 290,-80.5 152,-80.5"/>
<text text-anchor="middle" x="221" y="-88.5" font-family="Helvetica,sans-Serif" font-size="10.00">gfxTextRun::operator delete</text>
</a>
</g>
<!-- Node1&#45;&gt;Node5 -->
<g id="edge8" class="edge"><title>Node1&#45;&gt;Node5</title>
<path fill="none" stroke="midnightblue" d="M67.8967,-106.948C91.9568,-104.442 123.535,-101.153 151.759,-98.2126"/>
<polygon fill="midnightblue" stroke="midnightblue" points="67.3279,-103.488 57.7443,-108.006 68.0532,-110.451 67.3279,-103.488"/>
</g>
<!-- Node6 -->
<g id="node11" class="node"><title>Node6</title>
<a xlink:href="../../d5/df2/classns_d_o_m_memory_file_1_1_data_owner.html#a48667911408f4c94f9ae68f99842a4fa" target="_top" xlink:title="nsDOMMemoryFile::DataOwner::~DataOwner">
<polygon fill="white" stroke="black" points="112,-40.5 112,-61.5 330,-61.5 330,-40.5 112,-40.5"/>
<text text-anchor="middle" x="221" y="-48.5" font-family="Helvetica,sans-Serif" font-size="10.00">nsDOMMemoryFile::DataOwner::~DataOwner</text>
</a>
</g>
<!-- Node1&#45;&gt;Node6 -->
<g id="edge10" class="edge"><title>Node1&#45;&gt;Node6</title>
<path fill="none" stroke="midnightblue" d="M51.1072,-94.3456C63.1812,-86.06 78.7473,-76.6357 94,-71 104.364,-67.1708 115.468,-64.0746 126.639,-61.5712"/>
<polygon fill="midnightblue" stroke="midnightblue" points="48.7421,-91.7326 42.6179,-100.378 52.7969,-97.4387 48.7421,-91.7326"/>
</g>
<!-- Node7 -->
<g id="node13" class="node"><title>Node7</title>
<a xlink:href="../../da/d46/classmozilla_1_1_queued_data_message.html#aa7a814dd27a30b7c559d0e7ecded8316" target="_top" xlink:title="mozilla::QueuedDataMessage::~QueuedDataMessage">
<polygon fill="white" stroke="black" points="94,-0.5 94,-21.5 348,-21.5 348,-0.5 94,-0.5"/>
<text text-anchor="middle" x="221" y="-8.5" font-family="Helvetica,sans-Serif" font-size="10.00">mozilla::QueuedDataMessage::~QueuedDataMessage</text>
</a>
</g>
<!-- Node1&#45;&gt;Node7 -->
<g id="edge12" class="edge"><title>Node1&#45;&gt;Node7</title>
<path fill="none" stroke="midnightblue" d="M39.2532,-91.447C50.1803,-72.7019 69.3029,-45.2174 94,-31 100.48,-27.2695 107.439,-24.1729 114.641,-21.6081"/>
<polygon fill="midnightblue" stroke="midnightblue" points="36.1101,-89.8972 34.2999,-100.336 42.2249,-93.3045 36.1101,-89.8972"/>
</g>
</g>
</svg>
