<?xml version="1.0" encoding="UTF-8" standalone="no"?>
<!DOCTYPE svg PUBLIC "-//W3C//DTD SVG 1.1//EN"
 "http://www.w3.org/Graphics/SVG/1.1/DTD/svg11.dtd">
<!-- Generated by graphviz version 2.26.3 (20100126.1600)
 -->
<!-- Title: G Pages: 1 -->
<!--zoomable 610 -->
<svg id="main" version="1.1" xmlns="http://www.w3.org/2000/svg" xmlns:xlink="http://www.w3.org/1999/xlink" xml:space="preserve" onload="init(evt)">
        <defs>
                <circle id="rim" cx="0" cy="0" r="7"/>
                <circle id="rim2" cx="0" cy="0" r="3.5"/>
                <g id="zoomPlus">
                        <use xlink:href="#rim" fill="#404040">
                                <set attributeName="fill" to="#808080" begin="zoomplus.mouseover" end="zoomplus.mouseout"/>
                        </use>
                        <path d="M-4,0h8M0,-4v8" fill="none" stroke="white" stroke-width="1.5" pointer-events="none"/>
                </g>
                <g id="zoomMin">
                        <use xlink:href="#rim" fill="#404040">
                                <set attributeName="fill" to="#808080" begin="zoomminus.mouseover" end="zoomminus.mouseout"/>
                        </use>
                        <path d="M-4,0h8" fill="none" stroke="white" stroke-width="1.5" pointer-events="none"/>
                </g>
                <g id="dirArrow">
                        <path fill="none" stroke="white" stroke-width="1.5" d="M0,-3.0v7 M-2.5,-0.5L0,-3.0L2.5,-0.5"/>
                </g>
               <g id="resetDef">
                       <use xlink:href="#rim2" fill="#404040">
                               <set attributeName="fill" to="#808080" begin="reset.mouseover" end="reset.mouseout"/>
                       </use>
               </g>
        </defs>

<script type="text/javascript">
var viewWidth = 1373;
var viewHeight = 610;
var sectionId = 'dynsection-0';
</script>
<script xlink:href="../../svgpan.js"/>
<svg id="graph" class="graph">
<g id="viewport">
<title>G</title>
<polygon fill="white" stroke="white" points="-4,5 -4,-606 1370,-606 1370,5 -4,5"/>
<!-- Node1 -->
<g id="node1" class="node"><title>Node1</title>
<polygon fill="#bfbfbf" stroke="black" points="0,-580.5 0,-601.5 440,-601.5 440,-580.5 0,-580.5"/>
<text text-anchor="middle" x="220" y="-588.5" font-family="Helvetica,sans-Serif" font-size="10.00">/home/aoi/Documents/FxOS/B2G/gaia/xulrunner&#45;sdk/include/nsIDOMXULCommandDispatcher.h</text>
</g>
<!-- Node2 -->
<g id="node3" class="node"><title>Node2</title>
<a xlink:href="../../de/d5a/ns_i_supports_8h.html" target="_top" xlink:title="nsISupports.h">
<polygon fill="white" stroke="black" points="181.5,-522.5 181.5,-543.5 258.5,-543.5 258.5,-522.5 181.5,-522.5"/>
<text text-anchor="middle" x="220" y="-530.5" font-family="Helvetica,sans-Serif" font-size="10.00">nsISupports.h</text>
</a>
</g>
<!-- Node1&#45;&gt;Node2 -->
<g id="edge2" class="edge"><title>Node1&#45;&gt;Node2</title>
<path fill="none" stroke="midnightblue" d="M220,-580.362C220,-572.922 220,-562.743 220,-553.728"/>
<polygon fill="midnightblue" stroke="midnightblue" points="223.5,-553.571 220,-543.571 216.5,-553.571 223.5,-553.571"/>
</g>
<!-- Node3 -->
<g id="node5" class="node"><title>Node3</title>
<a xlink:href="../../d9/d92/nsrootidl_8h.html" target="_top" xlink:title="nsrootidl.h">
<polygon fill="white" stroke="black" points="130,-406.5 130,-427.5 192,-427.5 192,-406.5 130,-406.5"/>
<text text-anchor="middle" x="161" y="-414.5" font-family="Helvetica,sans-Serif" font-size="10.00">nsrootidl.h</text>
</a>
</g>
<!-- Node2&#45;&gt;Node3 -->
<g id="edge4" class="edge"><title>Node2&#45;&gt;Node3</title>
<path fill="none" stroke="midnightblue" d="M214.555,-522.295C204.676,-502.872 183.662,-461.556 171.094,-436.846"/>
<polygon fill="midnightblue" stroke="midnightblue" points="174.085,-435.006 166.432,-427.679 167.846,-438.179 174.085,-435.006"/>
</g>
<!-- Node19 -->
<g id="node41" class="node"><title>Node19</title>
<a xlink:href="../../de/d38/ns_i_supports_base_8h.html" target="_top" xlink:title="nsISupportsBase.h">
<polygon fill="white" stroke="black" points="271,-348.5 271,-369.5 371,-369.5 371,-348.5 271,-348.5"/>
<text text-anchor="middle" x="321" y="-356.5" font-family="Helvetica,sans-Serif" font-size="10.00">nsISupportsBase.h</text>
</a>
</g>
<!-- Node2&#45;&gt;Node19 -->
<g id="edge44" class="edge"><title>Node2&#45;&gt;Node19</title>
<path fill="none" stroke="midnightblue" d="M226.166,-522.377C242.679,-493.93 288.097,-415.684 309.525,-378.769"/>
<polygon fill="midnightblue" stroke="midnightblue" points="312.664,-380.333 314.657,-369.928 306.61,-376.819 312.664,-380.333"/>
</g>
<!-- Node21 -->
<g id="node48" class="node"><title>Node21</title>
<a xlink:href="../../d9/d4b/ns_i_supports_utils_8h.html" target="_top" xlink:title="nsISupportsUtils.h">
<polygon fill="white" stroke="black" points="350,-464.5 350,-485.5 448,-485.5 448,-464.5 350,-464.5"/>
<text text-anchor="middle" x="399" y="-472.5" font-family="Helvetica,sans-Serif" font-size="10.00">nsISupportsUtils.h</text>
</a>
</g>
<!-- Node2&#45;&gt;Node21 -->
<g id="edge54" class="edge"><title>Node2&#45;&gt;Node21</title>
<path fill="none" stroke="midnightblue" d="M252.416,-522.497C281.724,-513 325.048,-498.962 357.001,-488.609"/>
<polygon fill="midnightblue" stroke="midnightblue" points="358.089,-491.935 366.524,-485.523 355.932,-485.276 358.089,-491.935"/>
</g>
<!-- Node4 -->
<g id="node7" class="node"><title>Node4</title>
<a xlink:href="../../d3/dd8/nscore_8h.html" target="_top" xlink:title="nscore.h">
<polygon fill="white" stroke="black" points="307,-232.5 307,-253.5 361,-253.5 361,-232.5 307,-232.5"/>
<text text-anchor="middle" x="334" y="-240.5" font-family="Helvetica,sans-Serif" font-size="10.00">nscore.h</text>
</a>
</g>
<!-- Node3&#45;&gt;Node4 -->
<g id="edge6" class="edge"><title>Node3&#45;&gt;Node4</title>
<path fill="none" stroke="midnightblue" d="M164.084,-406.322C171.484,-382.432 192.402,-324.097 229,-290 248.135,-272.173 275.166,-260.286 297.01,-252.927"/>
<polygon fill="midnightblue" stroke="midnightblue" points="298.169,-256.231 306.634,-249.859 296.043,-249.561 298.169,-256.231"/>
</g>
<!-- Node5 -->
<g id="node9" class="node"><title>Node5</title>
<a xlink:href="../../d7/d2d/xpcom-config_8h.html" target="_top" xlink:title="xpcom&#45;config.h">
<polygon fill="white" stroke="black" points="74.5,-116.5 74.5,-137.5 157.5,-137.5 157.5,-116.5 74.5,-116.5"/>
<text text-anchor="middle" x="116" y="-124.5" font-family="Helvetica,sans-Serif" font-size="10.00">xpcom&#45;config.h</text>
</a>
</g>
<!-- Node4&#45;&gt;Node5 -->
<g id="edge8" class="edge"><title>Node4&#45;&gt;Node5</title>
<path fill="none" stroke="midnightblue" d="M306.726,-241.379C252.93,-237.551 136.247,-225.918 112,-196 101.178,-182.647 103.719,-162.636 108.056,-147.597"/>
<polygon fill="midnightblue" stroke="midnightblue" points="111.516,-148.286 111.367,-137.692 104.877,-146.067 111.516,-148.286"/>
</g>
<!-- Node6 -->
<g id="node11" class="node"><title>Node6</title>
<a xlink:href="../../d1/d62/mozalloc_8h.html" target="_top" xlink:title="mozilla/mozalloc.h">
<polygon fill="white" stroke="black" points="121,-174.5 121,-195.5 219,-195.5 219,-174.5 121,-174.5"/>
<text text-anchor="middle" x="170" y="-182.5" font-family="Helvetica,sans-Serif" font-size="10.00">mozilla/mozalloc.h</text>
</a>
</g>
<!-- Node4&#45;&gt;Node6 -->
<g id="edge10" class="edge"><title>Node4&#45;&gt;Node6</title>
<path fill="none" stroke="midnightblue" d="M306.919,-233.422C280.436,-224.057 239.808,-209.688 209.681,-199.033"/>
<polygon fill="midnightblue" stroke="midnightblue" points="210.496,-195.609 199.901,-195.575 208.162,-202.209 210.496,-195.609"/>
</g>
<!-- Node11 -->
<g id="node22" class="node"><title>Node11</title>
<a xlink:href="../../d1/de4/mozalloc__macro__wrappers_8h.html" target="_top" xlink:title="mozilla/mozalloc_macro_wrappers.h">
<polygon fill="white" stroke="black" points="236.5,-174.5 236.5,-195.5 411.5,-195.5 411.5,-174.5 236.5,-174.5"/>
<text text-anchor="middle" x="324" y="-182.5" font-family="Helvetica,sans-Serif" font-size="10.00">mozilla/mozalloc_macro_wrappers.h</text>
</a>
</g>
<!-- Node4&#45;&gt;Node11 -->
<g id="edge22" class="edge"><title>Node4&#45;&gt;Node11</title>
<path fill="none" stroke="midnightblue" d="M332.166,-232.362C330.869,-224.84 329.089,-214.519 327.523,-205.431"/>
<polygon fill="midnightblue" stroke="midnightblue" points="330.971,-204.831 325.823,-195.571 324.073,-206.02 330.971,-204.831"/>
</g>
<!-- Node12 -->
<g id="node24" class="node"><title>Node12</title>
<polygon fill="white" stroke="#bfbfbf" points="735,-174.5 735,-195.5 787,-195.5 787,-174.5 735,-174.5"/>
<text text-anchor="middle" x="761" y="-182.5" font-family="Helvetica,sans-Serif" font-size="10.00">stddef.h</text>
</g>
<!-- Node4&#45;&gt;Node12 -->
<g id="edge24" class="edge"><title>Node4&#45;&gt;Node12</title>
<path fill="none" stroke="midnightblue" d="M361.376,-241.466C424.143,-237.581 583.281,-225.629 724.622,-195.983"/>
<polygon fill="midnightblue" stroke="midnightblue" points="725.717,-199.328 734.767,-193.818 724.256,-192.483 725.717,-199.328"/>
</g>
<!-- Node13 -->
<g id="node26" class="node"><title>Node13</title>
<polygon fill="white" stroke="#bfbfbf" points="694.5,-116.5 694.5,-137.5 743.5,-137.5 743.5,-116.5 694.5,-116.5"/>
<text text-anchor="middle" x="719" y="-124.5" font-family="Helvetica,sans-Serif" font-size="10.00">stdint.h</text>
</g>
<!-- Node4&#45;&gt;Node13 -->
<g id="edge26" class="edge"><title>Node4&#45;&gt;Node13</title>
<path fill="none" stroke="midnightblue" d="M361.176,-237.632C399.589,-229.801 471.797,-214.18 532,-196 586.282,-179.608 647.687,-155.932 684.858,-141.011"/>
<polygon fill="midnightblue" stroke="midnightblue" points="686.257,-144.221 694.22,-137.233 683.637,-137.73 686.257,-144.221"/>
</g>
<!-- Node14 -->
<g id="node28" class="node"><title>Node14</title>
<a xlink:href="../../df/dcf/_null_ptr_8h.html" target="_top" xlink:title="mozilla/NullPtr.h">
<polygon fill="white" stroke="black" points="474.5,-58.5 474.5,-79.5 563.5,-79.5 563.5,-58.5 474.5,-58.5"/>
<text text-anchor="middle" x="519" y="-66.5" font-family="Helvetica,sans-Serif" font-size="10.00">mozilla/NullPtr.h</text>
</a>
</g>
<!-- Node4&#45;&gt;Node14 -->
<g id="edge28" class="edge"><title>Node4&#45;&gt;Node14</title>
<path fill="none" stroke="midnightblue" d="M306.637,-240.257C252.474,-234.386 133.983,-219.222 101,-196 69.2667,-173.658 40.0121,-144.824 66,-116 92.2171,-86.922 349.036,-74.7046 463.93,-70.6641"/>
<polygon fill="midnightblue" stroke="midnightblue" points="464.39,-74.1504 474.264,-70.3093 464.15,-67.1546 464.39,-74.1504"/>
</g>
<!-- Node15 -->
<g id="node31" class="node"><title>Node15</title>
<a xlink:href="../../d8/dcf/ns_error_8h.html" target="_top" xlink:title="nsError.h">
<polygon fill="white" stroke="black" points="467,-174.5 467,-195.5 523,-195.5 523,-174.5 467,-174.5"/>
<text text-anchor="middle" x="495" y="-182.5" font-family="Helvetica,sans-Serif" font-size="10.00">nsError.h</text>
</a>
</g>
<!-- Node4&#45;&gt;Node15 -->
<g id="edge32" class="edge"><title>Node4&#45;&gt;Node15</title>
<path fill="none" stroke="midnightblue" d="M361.311,-233.161C387.669,-223.666 427.796,-209.21 457.212,-198.613"/>
<polygon fill="midnightblue" stroke="midnightblue" points="458.52,-201.862 466.741,-195.18 456.147,-195.277 458.52,-201.862"/>
</g>
<!-- Node6&#45;&gt;Node5 -->
<g id="edge16" class="edge"><title>Node6&#45;&gt;Node5</title>
<path fill="none" stroke="midnightblue" d="M160.096,-174.362C152.484,-166.186 141.792,-154.702 132.843,-145.091"/>
<polygon fill="midnightblue" stroke="midnightblue" points="135.217,-142.505 125.842,-137.571 130.094,-147.275 135.217,-142.505"/>
</g>
<!-- Node7 -->
<g id="node13" class="node"><title>Node7</title>
<polygon fill="white" stroke="#bfbfbf" points="399,-116.5 399,-137.5 447,-137.5 447,-116.5 399,-116.5"/>
<text text-anchor="middle" x="423" y="-124.5" font-family="Helvetica,sans-Serif" font-size="10.00">stdlib.h</text>
</g>
<!-- Node6&#45;&gt;Node7 -->
<g id="edge12" class="edge"><title>Node6&#45;&gt;Node7</title>
<path fill="none" stroke="midnightblue" d="M219.384,-175.117C269.944,-164.888 346.071,-149.159 389.23,-137.963"/>
<polygon fill="midnightblue" stroke="midnightblue" points="390.189,-141.329 398.944,-135.363 388.379,-134.567 390.189,-141.329"/>
</g>
<!-- Node8 -->
<g id="node15" class="node"><title>Node8</title>
<polygon fill="white" stroke="#bfbfbf" points="212.5,-116.5 212.5,-137.5 261.5,-137.5 261.5,-116.5 212.5,-116.5"/>
<text text-anchor="middle" x="237" y="-124.5" font-family="Helvetica,sans-Serif" font-size="10.00">string.h</text>
</g>
<!-- Node6&#45;&gt;Node8 -->
<g id="edge14" class="edge"><title>Node6&#45;&gt;Node8</title>
<path fill="none" stroke="midnightblue" d="M182.289,-174.362C192.017,-165.941 205.798,-154.011 217.095,-144.231"/>
<polygon fill="midnightblue" stroke="midnightblue" points="219.519,-146.762 224.789,-137.571 214.938,-141.469 219.519,-146.762"/>
</g>
<!-- Node9 -->
<g id="node18" class="node"><title>Node9</title>
<a xlink:href="../../d1/da8/_attributes_8h.html" target="_top" xlink:title="mozilla/Attributes.h">
<polygon fill="white" stroke="black" points="760.5,-58.5 760.5,-79.5 861.5,-79.5 861.5,-58.5 760.5,-58.5"/>
<text text-anchor="middle" x="811" y="-66.5" font-family="Helvetica,sans-Serif" font-size="10.00">mozilla/Attributes.h</text>
</a>
</g>
<!-- Node6&#45;&gt;Node9 -->
<g id="edge18" class="edge"><title>Node6&#45;&gt;Node9</title>
<path fill="none" stroke="midnightblue" d="M171.835,-174.452C175.18,-158.752 183.873,-129.626 204,-116 226.384,-100.846 600.673,-79.8954 750.101,-72.0917"/>
<polygon fill="midnightblue" stroke="midnightblue" points="750.659,-75.5675 760.463,-71.5528 750.295,-68.577 750.659,-75.5675"/>
</g>
<!-- Node10 -->
<g id="node20" class="node"><title>Node10</title>
<a xlink:href="../../da/da7/_compiler_8h.html" target="_top" xlink:title="mozilla/Compiler.h">
<polygon fill="white" stroke="black" points="762,-0.5 762,-21.5 860,-21.5 860,-0.5 762,-0.5"/>
<text text-anchor="middle" x="811" y="-8.5" font-family="Helvetica,sans-Serif" font-size="10.00">mozilla/Compiler.h</text>
</a>
</g>
<!-- Node9&#45;&gt;Node10 -->
<g id="edge20" class="edge"><title>Node9&#45;&gt;Node10</title>
<path fill="none" stroke="midnightblue" d="M811,-58.3619C811,-50.9219 811,-40.7427 811,-31.7276"/>
<polygon fill="midnightblue" stroke="midnightblue" points="814.5,-31.5706 811,-21.5707 807.5,-31.5707 814.5,-31.5706"/>
</g>
<!-- Node14&#45;&gt;Node10 -->
<g id="edge30" class="edge"><title>Node14&#45;&gt;Node10</title>
<path fill="none" stroke="midnightblue" d="M563.666,-60.1279C614.051,-50.1201 696.205,-33.8017 751.876,-22.7438"/>
<polygon fill="midnightblue" stroke="midnightblue" points="752.822,-26.1243 761.949,-20.743 751.459,-19.2584 752.822,-26.1243"/>
</g>
<!-- Node15&#45;&gt;Node13 -->
<g id="edge40" class="edge"><title>Node15&#45;&gt;Node13</title>
<path fill="none" stroke="midnightblue" d="M523.022,-178.848C558.591,-170.878 622.008,-156.134 684.576,-138.278"/>
<polygon fill="midnightblue" stroke="midnightblue" points="685.561,-141.637 694.201,-135.504 683.623,-134.91 685.561,-141.637"/>
</g>
<!-- Node16 -->
<g id="node33" class="node"><title>Node16</title>
<a xlink:href="../../d1/d8a/_likely_8h.html" target="_top" xlink:title="mozilla/Likely.h">
<polygon fill="white" stroke="black" points="593,-116.5 593,-137.5 677,-137.5 677,-116.5 593,-116.5"/>
<text text-anchor="middle" x="635" y="-124.5" font-family="Helvetica,sans-Serif" font-size="10.00">mozilla/Likely.h</text>
</a>
</g>
<!-- Node15&#45;&gt;Node16 -->
<g id="edge34" class="edge"><title>Node15&#45;&gt;Node16</title>
<path fill="none" stroke="midnightblue" d="M520.353,-174.497C542.613,-165.275 575.212,-151.769 599.963,-141.515"/>
<polygon fill="midnightblue" stroke="midnightblue" points="601.464,-144.682 609.363,-137.621 598.784,-138.215 601.464,-144.682"/>
</g>
<!-- Node17 -->
<g id="node35" class="node"><title>Node17</title>
<a xlink:href="../../d3/dff/_typed_enum_8h.html" target="_top" xlink:title="mozilla/TypedEnum.h">
<polygon fill="white" stroke="black" points="464.5,-116.5 464.5,-137.5 575.5,-137.5 575.5,-116.5 464.5,-116.5"/>
<text text-anchor="middle" x="520" y="-124.5" font-family="Helvetica,sans-Serif" font-size="10.00">mozilla/TypedEnum.h</text>
</a>
</g>
<!-- Node15&#45;&gt;Node17 -->
<g id="edge36" class="edge"><title>Node15&#45;&gt;Node17</title>
<path fill="none" stroke="midnightblue" d="M499.585,-174.362C502.898,-166.677 507.47,-156.069 511.448,-146.84"/>
<polygon fill="midnightblue" stroke="midnightblue" points="514.699,-148.139 515.444,-137.571 508.271,-145.368 514.699,-148.139"/>
</g>
<!-- Node18 -->
<g id="node39" class="node"><title>Node18</title>
<a xlink:href="../../d7/dda/_error_list_c_defines_8h.html" target="_top" xlink:title="ErrorListCDefines.h">
<polygon fill="white" stroke="black" points="278.5,-116.5 278.5,-137.5 381.5,-137.5 381.5,-116.5 278.5,-116.5"/>
<text text-anchor="middle" x="330" y="-124.5" font-family="Helvetica,sans-Serif" font-size="10.00">ErrorListCDefines.h</text>
</a>
</g>
<!-- Node15&#45;&gt;Node18 -->
<g id="edge42" class="edge"><title>Node15&#45;&gt;Node18</title>
<path fill="none" stroke="midnightblue" d="M466.635,-175.029C439.897,-165.63 399.574,-151.456 369.656,-140.94"/>
<polygon fill="midnightblue" stroke="midnightblue" points="370.539,-137.54 359.944,-137.526 368.217,-144.144 370.539,-137.54"/>
</g>
<!-- Node17&#45;&gt;Node9 -->
<g id="edge38" class="edge"><title>Node17&#45;&gt;Node9</title>
<path fill="none" stroke="midnightblue" d="M572.698,-116.497C622.705,-106.53 697.814,-91.5594 750.303,-81.0977"/>
<polygon fill="midnightblue" stroke="midnightblue" points="751.034,-84.5209 760.157,-79.1337 749.666,-77.6559 751.034,-84.5209"/>
</g>
<!-- Node19&#45;&gt;Node4 -->
<g id="edge46" class="edge"><title>Node19&#45;&gt;Node4</title>
<path fill="none" stroke="midnightblue" d="M318.525,-348.15C315.792,-334.479 312.243,-310.314 316,-290 317.717,-280.715 321.192,-270.894 324.634,-262.644"/>
<polygon fill="midnightblue" stroke="midnightblue" points="327.835,-264.062 328.697,-253.502 321.438,-261.219 327.835,-264.062"/>
</g>
<!-- Node20 -->
<g id="node44" class="node"><title>Node20</title>
<a xlink:href="../../d9/d0a/ns_i_d_8h.html" target="_top" xlink:title="nsID.h">
<polygon fill="white" stroke="black" points="325,-290.5 325,-311.5 371,-311.5 371,-290.5 325,-290.5"/>
<text text-anchor="middle" x="348" y="-298.5" font-family="Helvetica,sans-Serif" font-size="10.00">nsID.h</text>
</a>
</g>
<!-- Node19&#45;&gt;Node20 -->
<g id="edge48" class="edge"><title>Node19&#45;&gt;Node20</title>
<path fill="none" stroke="midnightblue" d="M325.952,-348.362C329.53,-340.677 334.468,-330.069 338.764,-320.84"/>
<polygon fill="midnightblue" stroke="midnightblue" points="342.032,-322.114 343.079,-311.571 335.686,-319.159 342.032,-322.114"/>
</g>
<!-- Node20&#45;&gt;Node4 -->
<g id="edge52" class="edge"><title>Node20&#45;&gt;Node4</title>
<path fill="none" stroke="midnightblue" d="M345.432,-290.362C343.617,-282.84 341.125,-272.519 338.932,-263.431"/>
<polygon fill="midnightblue" stroke="midnightblue" points="342.3,-262.47 336.552,-253.571 335.496,-264.113 342.3,-262.47"/>
</g>
<!-- Node20&#45;&gt;Node8 -->
<g id="edge50" class="edge"><title>Node20&#45;&gt;Node8</title>
<path fill="none" stroke="midnightblue" d="M362.197,-290.466C391.008,-267.829 451.07,-213.409 420,-174 379.46,-122.579 339.658,-153.743 271.59,-138.057"/>
<polygon fill="midnightblue" stroke="midnightblue" points="272.353,-134.64 261.795,-135.52 270.597,-141.416 272.353,-134.64"/>
</g>
<!-- Node21&#45;&gt;Node4 -->
<g id="edge56" class="edge"><title>Node21&#45;&gt;Node4</title>
<path fill="none" stroke="midnightblue" d="M373.784,-464.372C341.024,-449.008 285.274,-417.162 262,-370 242.093,-329.661 284.395,-284.214 312.217,-260.129"/>
<polygon fill="midnightblue" stroke="midnightblue" points="314.538,-262.75 319.959,-253.647 310.044,-257.383 314.538,-262.75"/>
</g>
<!-- Node21&#45;&gt;Node15 -->
<g id="edge60" class="edge"><title>Node21&#45;&gt;Node15</title>
<path fill="none" stroke="midnightblue" d="M402.531,-464.335C416.672,-421.615 469.369,-262.426 488.231,-205.447"/>
<polygon fill="midnightblue" stroke="midnightblue" points="491.617,-206.355 491.437,-195.762 484.972,-204.156 491.617,-206.355"/>
</g>
<!-- Node21&#45;&gt;Node19 -->
<g id="edge58" class="edge"><title>Node21&#45;&gt;Node19</title>
<path fill="none" stroke="midnightblue" d="M391.802,-464.295C378.626,-444.7 350.465,-402.82 333.904,-378.191"/>
<polygon fill="midnightblue" stroke="midnightblue" points="336.665,-376.025 328.181,-369.679 330.856,-379.931 336.665,-376.025"/>
</g>
<!-- Node22 -->
<g id="node53" class="node"><title>Node22</title>
<a xlink:href="../../dc/d6d/ns_debug_8h.html" target="_top" xlink:title="nsDebug.h">
<polygon fill="white" stroke="black" points="481,-348.5 481,-369.5 545,-369.5 545,-348.5 481,-348.5"/>
<text text-anchor="middle" x="513" y="-356.5" font-family="Helvetica,sans-Serif" font-size="10.00">nsDebug.h</text>
</a>
</g>
<!-- Node21&#45;&gt;Node22 -->
<g id="edge62" class="edge"><title>Node21&#45;&gt;Node22</title>
<path fill="none" stroke="midnightblue" d="M409.521,-464.295C429.117,-444.355 471.393,-401.337 495.403,-376.906"/>
<polygon fill="midnightblue" stroke="midnightblue" points="497.992,-379.265 502.505,-369.679 492.999,-374.358 497.992,-379.265"/>
</g>
<!-- Node28 -->
<g id="node74" class="node"><title>Node28</title>
<a xlink:href="../../d0/d5a/ns_i_supports_impl_8h.html" target="_top" xlink:title="nsISupportsImpl.h">
<polygon fill="white" stroke="black" points="559,-406.5 559,-427.5 655,-427.5 655,-406.5 559,-406.5"/>
<text text-anchor="middle" x="607" y="-414.5" font-family="Helvetica,sans-Serif" font-size="10.00">nsISupportsImpl.h</text>
</a>
</g>
<!-- Node21&#45;&gt;Node28 -->
<g id="edge92" class="edge"><title>Node21&#45;&gt;Node28</title>
<path fill="none" stroke="midnightblue" d="M431.327,-464.497C464.099,-454.877 515.165,-440.598 553.863,-430.209"/>
<polygon fill="midnightblue" stroke="midnightblue" points="555.16,-433.485 563.919,-427.523 553.354,-426.722 555.16,-433.485"/>
</g>
<!-- Node22&#45;&gt;Node4 -->
<g id="edge64" class="edge"><title>Node22&#45;&gt;Node4</title>
<path fill="none" stroke="midnightblue" d="M505.782,-348.263C495.289,-333.371 474.49,-306.431 451,-290 426.672,-272.983 395.283,-260.805 371.142,-253.115"/>
<polygon fill="midnightblue" stroke="midnightblue" points="371.868,-249.677 361.282,-250.093 369.817,-256.37 371.868,-249.677"/>
</g>
<!-- Node22&#45;&gt;Node15 -->
<g id="edge66" class="edge"><title>Node22&#45;&gt;Node15</title>
<path fill="none" stroke="midnightblue" d="M511.901,-348.377C508.996,-320.293 501.07,-243.673 497.193,-206.203"/>
<polygon fill="midnightblue" stroke="midnightblue" points="500.641,-205.514 496.13,-195.928 493.678,-206.235 500.641,-205.514"/>
</g>
<!-- Node22&#45;&gt;Node16 -->
<g id="edge90" class="edge"><title>Node22&#45;&gt;Node16</title>
<path fill="none" stroke="midnightblue" d="M545.032,-349.502C573.879,-340.224 613.081,-325.558 622,-312 641.54,-282.295 626.344,-267.289 622,-232 619.985,-215.631 615.015,-212.369 613,-196 611.805,-186.295 610.877,-183.544 613,-174 615.086,-164.622 619.252,-154.901 623.403,-146.75"/>
<polygon fill="midnightblue" stroke="midnightblue" points="626.613,-148.173 628.317,-137.716 620.464,-144.828 626.613,-148.173"/>
</g>
<!-- Node23 -->
<g id="node57" class="node"><title>Node23</title>
<a xlink:href="../../dd/d3a/ns_x_p_c_o_m_8h.html" target="_top" xlink:title="nsXPCOM.h">
<polygon fill="white" stroke="black" points="541,-290.5 541,-311.5 613,-311.5 613,-290.5 541,-290.5"/>
<text text-anchor="middle" x="577" y="-298.5" font-family="Helvetica,sans-Serif" font-size="10.00">nsXPCOM.h</text>
</a>
</g>
<!-- Node22&#45;&gt;Node23 -->
<g id="edge68" class="edge"><title>Node22&#45;&gt;Node23</title>
<path fill="none" stroke="midnightblue" d="M524.739,-348.362C533.941,-340.023 546.94,-328.242 557.672,-318.516"/>
<polygon fill="midnightblue" stroke="midnightblue" points="560.276,-320.879 565.336,-311.571 555.576,-315.692 560.276,-320.879"/>
</g>
<!-- Node25 -->
<g id="node62" class="node"><title>Node25</title>
<a xlink:href="../../d9/de9/_assertions_8h.html" target="_top" xlink:title="mozilla/Assertions.h">
<polygon fill="white" stroke="black" points="946.5,-232.5 946.5,-253.5 1051.5,-253.5 1051.5,-232.5 946.5,-232.5"/>
<text text-anchor="middle" x="999" y="-240.5" font-family="Helvetica,sans-Serif" font-size="10.00">mozilla/Assertions.h</text>
</a>
</g>
<!-- Node22&#45;&gt;Node25 -->
<g id="edge74" class="edge"><title>Node22&#45;&gt;Node25</title>
<path fill="none" stroke="midnightblue" d="M545.217,-350.307C548.185,-349.521 551.147,-348.742 554,-348 656.025,-321.451 681.381,-314.149 784,-290 835.992,-277.765 895.312,-264.877 938.454,-255.698"/>
<polygon fill="midnightblue" stroke="midnightblue" points="939.451,-259.065 948.506,-253.564 937.997,-252.217 939.451,-259.065"/>
</g>
<!-- Node23&#45;&gt;Node4 -->
<g id="edge70" class="edge"><title>Node23&#45;&gt;Node4</title>
<path fill="none" stroke="midnightblue" d="M540.883,-292.379C495.281,-281.495 417.232,-262.866 371.148,-251.867"/>
<polygon fill="midnightblue" stroke="midnightblue" points="371.808,-248.426 361.268,-249.508 370.182,-255.235 371.808,-248.426"/>
</g>
<!-- Node24 -->
<g id="node60" class="node"><title>Node24</title>
<a xlink:href="../../d1/d66/ns_x_p_c_o_m_c_i_d_8h.html" target="_top" xlink:title="nsXPCOMCID.h">
<polygon fill="white" stroke="black" points="523,-232.5 523,-253.5 613,-253.5 613,-232.5 523,-232.5"/>
<text text-anchor="middle" x="568" y="-240.5" font-family="Helvetica,sans-Serif" font-size="10.00">nsXPCOMCID.h</text>
</a>
</g>
<!-- Node23&#45;&gt;Node24 -->
<g id="edge72" class="edge"><title>Node23&#45;&gt;Node24</title>
<path fill="none" stroke="midnightblue" d="M575.349,-290.362C574.195,-282.922 572.615,-272.743 571.216,-263.728"/>
<polygon fill="midnightblue" stroke="midnightblue" points="574.632,-262.916 569.64,-253.571 567.715,-263.989 574.632,-262.916"/>
</g>
<!-- Node25&#45;&gt;Node7 -->
<g id="edge86" class="edge"><title>Node25&#45;&gt;Node7</title>
<path fill="none" stroke="midnightblue" d="M950.268,-232.478C916.831,-224.454 871.841,-212.05 834,-196 816.034,-188.38 814.554,-180.049 796,-174 654.632,-127.913 606.567,-168.395 457.323,-137.882"/>
<polygon fill="midnightblue" stroke="midnightblue" points="457.852,-134.417 447.344,-135.768 456.402,-141.265 457.852,-134.417"/>
</g>
<!-- Node25&#45;&gt;Node9 -->
<g id="edge76" class="edge"><title>Node25&#45;&gt;Node9</title>
<path fill="none" stroke="midnightblue" d="M1051.66,-234.01C1095.22,-224.147 1146.58,-205.392 1124,-174 1094.16,-132.516 954.034,-97.8802 871.735,-80.679"/>
<polygon fill="midnightblue" stroke="midnightblue" points="872.253,-77.2121 861.752,-78.6185 870.838,-84.0676 872.253,-77.2121"/>
</g>
<!-- Node25&#45;&gt;Node10 -->
<g id="edge78" class="edge"><title>Node25&#45;&gt;Node10</title>
<path fill="none" stroke="midnightblue" d="M1051.76,-237.504C1099.82,-229.978 1160.43,-212.676 1140,-174 1087.18,-74.0058 949.559,-34.3225 870.044,-19.3817"/>
<polygon fill="midnightblue" stroke="midnightblue" points="870.635,-15.9318 860.171,-17.5976 869.39,-22.8202 870.635,-15.9318"/>
</g>
<!-- Node25&#45;&gt;Node12 -->
<g id="edge82" class="edge"><title>Node25&#45;&gt;Node12</title>
<path fill="none" stroke="midnightblue" d="M952.479,-232.446C912.282,-223.209 852.681,-209.236 801,-196 799.744,-195.678 798.467,-195.348 797.178,-195.011"/>
<polygon fill="midnightblue" stroke="midnightblue" points="797.779,-191.548 787.215,-192.351 795.974,-198.312 797.779,-191.548"/>
</g>
<!-- Node25&#45;&gt;Node16 -->
<g id="edge80" class="edge"><title>Node25&#45;&gt;Node16</title>
<path fill="none" stroke="midnightblue" d="M995.312,-232.262C989.32,-216.591 975.888,-187.821 954,-174 855.061,-111.527 806.956,-156.188 687.145,-138.001"/>
<polygon fill="midnightblue" stroke="midnightblue" points="687.685,-134.543 677.25,-136.381 686.554,-141.451 687.685,-134.543"/>
</g>
<!-- Node26 -->
<g id="node68" class="node"><title>Node26</title>
<polygon fill="white" stroke="#bfbfbf" points="1001,-174.5 1001,-195.5 1047,-195.5 1047,-174.5 1001,-174.5"/>
<text text-anchor="middle" x="1024" y="-182.5" font-family="Helvetica,sans-Serif" font-size="10.00">stdio.h</text>
</g>
<!-- Node25&#45;&gt;Node26 -->
<g id="edge84" class="edge"><title>Node25&#45;&gt;Node26</title>
<path fill="none" stroke="midnightblue" d="M1003.59,-232.362C1006.9,-224.677 1011.47,-214.069 1015.45,-204.84"/>
<polygon fill="midnightblue" stroke="midnightblue" points="1018.7,-206.139 1019.44,-195.571 1012.27,-203.368 1018.7,-206.139"/>
</g>
<!-- Node27 -->
<g id="node71" class="node"><title>Node27</title>
<polygon fill="white" stroke="#bfbfbf" points="1065,-174.5 1065,-195.5 1115,-195.5 1115,-174.5 1065,-174.5"/>
<text text-anchor="middle" x="1090" y="-182.5" font-family="Helvetica,sans-Serif" font-size="10.00">signal.h</text>
</g>
<!-- Node25&#45;&gt;Node27 -->
<g id="edge88" class="edge"><title>Node25&#45;&gt;Node27</title>
<path fill="none" stroke="midnightblue" d="M1015.69,-232.362C1029.42,-223.614 1049.08,-211.079 1064.74,-201.101"/>
<polygon fill="midnightblue" stroke="midnightblue" points="1066.86,-203.897 1073.42,-195.571 1063.1,-197.994 1066.86,-203.897"/>
</g>
<!-- Node28&#45;&gt;Node4 -->
<g id="edge94" class="edge"><title>Node28&#45;&gt;Node4</title>
<path fill="none" stroke="midnightblue" d="M562.446,-406.445C535.12,-398.798 500.106,-386.828 472,-370 445.474,-354.119 382.362,-291.912 351.542,-260.849"/>
<polygon fill="midnightblue" stroke="midnightblue" points="353.963,-258.32 344.444,-253.67 348.986,-263.242 353.963,-258.32"/>
</g>
<!-- Node28&#45;&gt;Node9 -->
<g id="edge132" class="edge"><title>Node28&#45;&gt;Node9</title>
<path fill="none" stroke="midnightblue" d="M655.28,-414.728C822.242,-406.239 1365,-373.098 1365,-301 1365,-301 1365,-301 1365,-185 1365,-135.039 1015.38,-91.2509 871.62,-75.3578"/>
<polygon fill="midnightblue" stroke="midnightblue" points="871.955,-71.8737 861.632,-74.262 871.191,-78.8319 871.955,-71.8737"/>
</g>
<!-- Node28&#45;&gt;Node16 -->
<g id="edge136" class="edge"><title>Node28&#45;&gt;Node16</title>
<path fill="none" stroke="midnightblue" d="M625.434,-406.467C637.749,-398.287 652.938,-385.702 660,-370 669.033,-349.917 646.954,-202.478 638.3,-147.548"/>
<polygon fill="midnightblue" stroke="midnightblue" points="641.742,-146.911 636.717,-137.584 634.829,-148.01 641.742,-146.911"/>
</g>
<!-- Node28&#45;&gt;Node19 -->
<g id="edge96" class="edge"><title>Node28&#45;&gt;Node19</title>
<path fill="none" stroke="midnightblue" d="M558.807,-407.227C509.903,-397.309 434.072,-381.931 381.233,-371.215"/>
<polygon fill="midnightblue" stroke="midnightblue" points="381.813,-367.762 371.317,-369.204 380.422,-374.622 381.813,-367.762"/>
</g>
<!-- Node28&#45;&gt;Node21 -->
<g id="edge98" class="edge"><title>Node28&#45;&gt;Node21</title>
<path fill="none" stroke="midnightblue" d="M574.606,-427.523C541.809,-437.149 490.739,-451.428 452.058,-461.812"/>
<polygon fill="midnightblue" stroke="midnightblue" points="450.766,-458.535 442.007,-464.497 452.572,-465.298 450.766,-458.535"/>
</g>
<!-- Node28&#45;&gt;Node22 -->
<g id="edge116" class="edge"><title>Node28&#45;&gt;Node22</title>
<path fill="none" stroke="midnightblue" d="M589.759,-406.362C575.448,-397.532 554.885,-384.844 538.643,-374.822"/>
<polygon fill="midnightblue" stroke="midnightblue" points="540.48,-371.843 530.132,-369.571 536.804,-377.8 540.48,-371.843"/>
</g>
<!-- Node28&#45;&gt;Node25 -->
<g id="edge134" class="edge"><title>Node28&#45;&gt;Node25</title>
<path fill="none" stroke="midnightblue" d="M655.039,-406.973C689.451,-398.995 736.499,-386.444 776,-370 852.319,-338.229 935.154,-285.797 974.968,-259.343"/>
<polygon fill="midnightblue" stroke="midnightblue" points="977.101,-262.127 983.465,-253.657 973.208,-256.31 977.101,-262.127"/>
</g>
<!-- Node29 -->
<g id="node79" class="node"><title>Node29</title>
<a xlink:href="../../d2/df8/prthread_8h.html" target="_top" xlink:title="prthread.h">
<polygon fill="white" stroke="black" points="707,-348.5 707,-369.5 767,-369.5 767,-348.5 707,-348.5"/>
<text text-anchor="middle" x="737" y="-356.5" font-family="Helvetica,sans-Serif" font-size="10.00">prthread.h</text>
</a>
</g>
<!-- Node28&#45;&gt;Node29 -->
<g id="edge100" class="edge"><title>Node28&#45;&gt;Node29</title>
<path fill="none" stroke="midnightblue" d="M630.542,-406.497C651.029,-397.356 680.947,-384.008 703.854,-373.788"/>
<polygon fill="midnightblue" stroke="midnightblue" points="705.488,-376.892 713.194,-369.621 702.635,-370.499 705.488,-376.892"/>
</g>
<!-- Node35 -->
<g id="node94" class="node"><title>Node35</title>
<a xlink:href="../../dc/d1c/ns_trace_refcnt_8h.html" target="_top" xlink:title="nsTraceRefcnt.h">
<polygon fill="white" stroke="black" points="562.5,-348.5 562.5,-369.5 651.5,-369.5 651.5,-348.5 562.5,-348.5"/>
<text text-anchor="middle" x="607" y="-356.5" font-family="Helvetica,sans-Serif" font-size="10.00">nsTraceRefcnt.h</text>
</a>
</g>
<!-- Node28&#45;&gt;Node35 -->
<g id="edge118" class="edge"><title>Node28&#45;&gt;Node35</title>
<path fill="none" stroke="midnightblue" d="M607,-406.362C607,-398.922 607,-388.743 607,-379.728"/>
<polygon fill="midnightblue" stroke="midnightblue" points="610.5,-379.571 607,-369.571 603.5,-379.571 610.5,-379.571"/>
</g>
<!-- Node36 -->
<g id="node97" class="node"><title>Node36</title>
<a xlink:href="../../db/d18/_atomics_8h.html" target="_top" xlink:title="mozilla/Atomics.h">
<polygon fill="white" stroke="black" points="1070.5,-290.5 1070.5,-311.5 1165.5,-311.5 1165.5,-290.5 1070.5,-290.5"/>
<text text-anchor="middle" x="1118" y="-298.5" font-family="Helvetica,sans-Serif" font-size="10.00">mozilla/Atomics.h</text>
</a>
</g>
<!-- Node28&#45;&gt;Node36 -->
<g id="edge122" class="edge"><title>Node28&#45;&gt;Node36</title>
<path fill="none" stroke="midnightblue" d="M655.09,-414.67C723.323,-410.441 851.652,-399.064 957,-370 1005.09,-356.734 1057.65,-332.14 1089.21,-316.181"/>
<polygon fill="midnightblue" stroke="midnightblue" points="1091,-319.199 1098.3,-311.528 1087.81,-312.968 1091,-319.199"/>
</g>
<!-- Node30 -->
<g id="node81" class="node"><title>Node30</title>
<a xlink:href="../../dc/d23/prtypes_8h.html" target="_top" xlink:title="prtypes.h">
<polygon fill="white" stroke="black" points="732.5,-232.5 732.5,-253.5 789.5,-253.5 789.5,-232.5 732.5,-232.5"/>
<text text-anchor="middle" x="761" y="-240.5" font-family="Helvetica,sans-Serif" font-size="10.00">prtypes.h</text>
</a>
</g>
<!-- Node29&#45;&gt;Node30 -->
<g id="edge102" class="edge"><title>Node29&#45;&gt;Node30</title>
<path fill="none" stroke="midnightblue" d="M739.215,-348.295C743.198,-329.045 751.63,-288.289 756.757,-263.509"/>
<polygon fill="midnightblue" stroke="midnightblue" points="760.192,-264.181 758.791,-253.679 753.337,-262.763 760.192,-264.181"/>
</g>
<!-- Node34 -->
<g id="node90" class="node"><title>Node34</title>
<a xlink:href="../../d7/dc8/prinrval_8h.html" target="_top" xlink:title="prinrval.h">
<polygon fill="white" stroke="black" points="793,-290.5 793,-311.5 849,-311.5 849,-290.5 793,-290.5"/>
<text text-anchor="middle" x="821" y="-298.5" font-family="Helvetica,sans-Serif" font-size="10.00">prinrval.h</text>
</a>
</g>
<!-- Node29&#45;&gt;Node34 -->
<g id="edge112" class="edge"><title>Node29&#45;&gt;Node34</title>
<path fill="none" stroke="midnightblue" d="M752.407,-348.362C764.958,-339.696 782.892,-327.313 797.275,-317.382"/>
<polygon fill="midnightblue" stroke="midnightblue" points="799.45,-320.133 805.691,-311.571 795.473,-314.372 799.45,-320.133"/>
</g>
<!-- Node30&#45;&gt;Node12 -->
<g id="edge106" class="edge"><title>Node30&#45;&gt;Node12</title>
<path fill="none" stroke="midnightblue" d="M761,-232.362C761,-224.922 761,-214.743 761,-205.728"/>
<polygon fill="midnightblue" stroke="midnightblue" points="764.5,-205.571 761,-195.571 757.5,-205.571 764.5,-205.571"/>
</g>
<!-- Node31 -->
<g id="node83" class="node"><title>Node31</title>
<a xlink:href="../../d7/d7e/prcpucfg_8h.html" target="_top" xlink:title="prcpucfg.h">
<polygon fill="white" stroke="black" points="655,-174.5 655,-195.5 717,-195.5 717,-174.5 655,-174.5"/>
<text text-anchor="middle" x="686" y="-182.5" font-family="Helvetica,sans-Serif" font-size="10.00">prcpucfg.h</text>
</a>
</g>
<!-- Node30&#45;&gt;Node31 -->
<g id="edge104" class="edge"><title>Node30&#45;&gt;Node31</title>
<path fill="none" stroke="midnightblue" d="M747.244,-232.362C736.249,-223.859 720.627,-211.779 707.914,-201.947"/>
<polygon fill="midnightblue" stroke="midnightblue" points="709.721,-198.919 699.669,-195.571 705.438,-204.457 709.721,-198.919"/>
</g>
<!-- Node32 -->
<g id="node86" class="node"><title>Node32</title>
<a xlink:href="../../d2/de8/protypes_8h.html" target="_top" xlink:title="obsolete/protypes.h">
<polygon fill="white" stroke="black" points="843,-174.5 843,-195.5 945,-195.5 945,-174.5 843,-174.5"/>
<text text-anchor="middle" x="894" y="-182.5" font-family="Helvetica,sans-Serif" font-size="10.00">obsolete/protypes.h</text>
</a>
</g>
<!-- Node30&#45;&gt;Node32 -->
<g id="edge108" class="edge"><title>Node30&#45;&gt;Node32</title>
<path fill="none" stroke="midnightblue" d="M785.085,-232.497C806.139,-223.315 836.927,-209.889 860.402,-199.652"/>
<polygon fill="midnightblue" stroke="midnightblue" points="861.877,-202.827 869.644,-195.621 859.079,-196.41 861.877,-202.827"/>
</g>
<!-- Node33 -->
<g id="node88" class="node"><title>Node33</title>
<polygon fill="white" stroke="#bfbfbf" points="860,-116.5 860,-137.5 928,-137.5 928,-116.5 860,-116.5"/>
<text text-anchor="middle" x="894" y="-124.5" font-family="Helvetica,sans-Serif" font-size="10.00">sys/types.h</text>
</g>
<!-- Node32&#45;&gt;Node33 -->
<g id="edge110" class="edge"><title>Node32&#45;&gt;Node33</title>
<path fill="none" stroke="midnightblue" d="M894,-174.362C894,-166.922 894,-156.743 894,-147.728"/>
<polygon fill="midnightblue" stroke="midnightblue" points="897.5,-147.571 894,-137.571 890.5,-147.571 897.5,-147.571"/>
</g>
<!-- Node34&#45;&gt;Node30 -->
<g id="edge114" class="edge"><title>Node34&#45;&gt;Node30</title>
<path fill="none" stroke="midnightblue" d="M809.995,-290.362C801.453,-282.104 789.42,-270.472 779.417,-260.803"/>
<polygon fill="midnightblue" stroke="midnightblue" points="781.558,-258.004 771.935,-253.571 776.692,-263.037 781.558,-258.004"/>
</g>
<!-- Node35&#45;&gt;Node23 -->
<g id="edge120" class="edge"><title>Node35&#45;&gt;Node23</title>
<path fill="none" stroke="midnightblue" d="M601.498,-348.362C597.48,-340.595 591.919,-329.843 587.11,-320.546"/>
<polygon fill="midnightblue" stroke="midnightblue" points="590.171,-318.845 582.468,-311.571 583.953,-322.061 590.171,-318.845"/>
</g>
<!-- Node36&#45;&gt;Node13 -->
<g id="edge130" class="edge"><title>Node36&#45;&gt;Node13</title>
<path fill="none" stroke="midnightblue" d="M1122.95,-290.16C1133.18,-265.937 1153.36,-206.966 1124,-174 1111.71,-160.196 849.749,-137.621 753.81,-129.784"/>
<polygon fill="midnightblue" stroke="midnightblue" points="753.993,-126.287 743.742,-128.966 753.426,-133.264 753.993,-126.287"/>
</g>
<!-- Node36&#45;&gt;Node25 -->
<g id="edge124" class="edge"><title>Node36&#45;&gt;Node25</title>
<path fill="none" stroke="midnightblue" d="M1096.45,-290.497C1077.86,-281.438 1050.8,-268.246 1029.9,-258.063"/>
<polygon fill="midnightblue" stroke="midnightblue" points="1031.31,-254.856 1020.79,-253.621 1028.25,-261.149 1031.31,-254.856"/>
</g>
<!-- Node37 -->
<g id="node100" class="node"><title>Node37</title>
<a xlink:href="../../d4/dd5/_type_traits_8h.html" target="_top" xlink:title="mozilla/TypeTraits.h">
<polygon fill="white" stroke="black" points="1232.5,-232.5 1232.5,-253.5 1337.5,-253.5 1337.5,-232.5 1232.5,-232.5"/>
<text text-anchor="middle" x="1285" y="-240.5" font-family="Helvetica,sans-Serif" font-size="10.00">mozilla/TypeTraits.h</text>
</a>
</g>
<!-- Node36&#45;&gt;Node37 -->
<g id="edge126" class="edge"><title>Node36&#45;&gt;Node37</title>
<path fill="none" stroke="midnightblue" d="M1148.24,-290.497C1175.35,-281.082 1215.31,-267.204 1245.04,-256.877"/>
<polygon fill="midnightblue" stroke="midnightblue" points="1246.4,-260.11 1254.7,-253.523 1244.11,-253.498 1246.4,-260.11"/>
</g>
<!-- Node38 -->
<g id="node102" class="node"><title>Node38</title>
<polygon fill="white" stroke="#bfbfbf" points="1259.5,-174.5 1259.5,-195.5 1310.5,-195.5 1310.5,-174.5 1259.5,-174.5"/>
<text text-anchor="middle" x="1285" y="-182.5" font-family="Helvetica,sans-Serif" font-size="10.00">wchar.h</text>
</g>
<!-- Node37&#45;&gt;Node38 -->
<g id="edge128" class="edge"><title>Node37&#45;&gt;Node38</title>
<path fill="none" stroke="midnightblue" d="M1285,-232.362C1285,-224.922 1285,-214.743 1285,-205.728"/>
<polygon fill="midnightblue" stroke="midnightblue" points="1288.5,-205.571 1285,-195.571 1281.5,-205.571 1288.5,-205.571"/>
</g>
</g>
</svg>
        <g id="navigator" transform="translate(0 0)" fill="#404254">
                <rect fill="#f2f5e9" fill-opacity="0.5" stroke="#606060" stroke-width=".5" x="0" y="0" width="60" height="60"/>
                <use id="zoomplus" xlink:href="#zoomPlus" x="17" y="9" onmousedown="handleZoom(evt,'in')"/>
                <use id="zoomminus" xlink:href="#zoomMin" x="42" y="9" onmousedown="handleZoom(evt,'out')"/>
                <use id="reset" xlink:href="#resetDef" x="30" y="36" onmousedown="handleReset()"/>
                <g id="arrowUp" xlink:href="#dirArrow" transform="translate(30 24)" onmousedown="handlePan(0,-1)">
                  <use xlink:href="#rim" fill="#404040">
                        <set attributeName="fill" to="#808080" begin="arrowUp.mouseover" end="arrowUp.mouseout"/>
                  </use>
                  <path fill="none" stroke="white" stroke-width="1.5" d="M0,-3.0v7 M-2.5,-0.5L0,-3.0L2.5,-0.5"/>
                </g>
                <g id="arrowRight" xlink:href="#dirArrow" transform="rotate(90) translate(36 -43)" onmousedown="handlePan(1,0)">
                  <use xlink:href="#rim" fill="#404040">
                        <set attributeName="fill" to="#808080" begin="arrowRight.mouseover" end="arrowRight.mouseout"/>
                  </use>
                  <path fill="none" stroke="white" stroke-width="1.5" d="M0,-3.0v7 M-2.5,-0.5L0,-3.0L2.5,-0.5"/>
                </g>
                <g id="arrowDown" xlink:href="#dirArrow" transform="rotate(180) translate(-30 -48)" onmousedown="handlePan(0,1)">
                  <use xlink:href="#rim" fill="#404040">
                        <set attributeName="fill" to="#808080" begin="arrowDown.mouseover" end="arrowDown.mouseout"/>
                  </use>
                  <path fill="none" stroke="white" stroke-width="1.5" d="M0,-3.0v7 M-2.5,-0.5L0,-3.0L2.5,-0.5"/>
                </g>
                <g id="arrowLeft" xlink:href="#dirArrow" transform="rotate(270) translate(-36 17)" onmousedown="handlePan(-1,0)">
                  <use xlink:href="#rim" fill="#404040">
                        <set attributeName="fill" to="#808080" begin="arrowLeft.mouseover" end="arrowLeft.mouseout"/>
                  </use>
                  <path fill="none" stroke="white" stroke-width="1.5" d="M0,-3.0v7 M-2.5,-0.5L0,-3.0L2.5,-0.5"/>
                </g>
        </g>
</svg>
