<?xml version="1.0" encoding="UTF-8" standalone="no"?>
<!DOCTYPE svg PUBLIC "-//W3C//DTD SVG 1.1//EN"
 "http://www.w3.org/Graphics/SVG/1.1/DTD/svg11.dtd">
<!-- Generated by graphviz version 2.26.3 (20100126.1600)
 -->
<!-- Title: G Pages: 1 -->
<svg width="188pt" height="204pt"
 viewBox="0.00 0.00 188.00 204.00" xmlns="http://www.w3.org/2000/svg" xmlns:xlink="http://www.w3.org/1999/xlink">
<g id="graph1" class="graph" transform="scale(1 1) rotate(0) translate(4 200)">
<title>G</title>
<polygon fill="white" stroke="white" points="-4,5 -4,-200 185,-200 185,5 -4,5"/>
<!-- Node1 -->
<g id="node1" class="node"><title>Node1</title>
<polygon fill="#bfbfbf" stroke="black" points="12.5,-58.5 12.5,-79.5 167.5,-79.5 167.5,-58.5 12.5,-58.5"/>
<text text-anchor="middle" x="90" y="-66.5" font-family="Helvetica,sans-Serif" font-size="10.00">nsIDOMSpeechSynthesisEvent</text>
</g>
<!-- Node4 -->
<g id="node9" class="node"><title>Node4</title>
<a xlink:href="../../db/d68/classmozilla_1_1dom_1_1_speech_synthesis_event.html" target="_top" xlink:title="mozilla::dom::SpeechSynthesisEvent">
<polygon fill="white" stroke="black" points="0,-0.5 0,-21.5 180,-21.5 180,-0.5 0,-0.5"/>
<text text-anchor="middle" x="90" y="-8.5" font-family="Helvetica,sans-Serif" font-size="10.00">mozilla::dom::SpeechSynthesisEvent</text>
</a>
</g>
<!-- Node1&#45;&gt;Node4 -->
<g id="edge10" class="edge"><title>Node1&#45;&gt;Node4</title>
<path fill="none" stroke="midnightblue" d="M90,-48.1906C90,-39.1684 90,-28.9941 90,-21.5707"/>
<polygon fill="midnightblue" stroke="midnightblue" points="86.5001,-48.3619 90,-58.3619 93.5001,-48.3619 86.5001,-48.3619"/>
</g>
<!-- Node2 -->
<g id="node2" class="node"><title>Node2</title>
<a xlink:href="../../d4/d5c/interfacens_i_d_o_m_event.html" target="_top" xlink:title="nsIDOMEvent">
<polygon fill="white" stroke="black" points="50.5,-116.5 50.5,-137.5 129.5,-137.5 129.5,-116.5 50.5,-116.5"/>
<text text-anchor="middle" x="90" y="-124.5" font-family="Helvetica,sans-Serif" font-size="10.00">nsIDOMEvent</text>
</a>
</g>
<!-- Node2&#45;&gt;Node1 -->
<g id="edge2" class="edge"><title>Node2&#45;&gt;Node1</title>
<path fill="none" stroke="midnightblue" d="M83.4952,-106.191C82.9414,-97.1684 83.3257,-86.9941 84.6479,-79.5707"/>
<polygon fill="midnightblue" stroke="midnightblue" points="80.0431,-106.814 84.6359,-116.362 86.9995,-106.034 80.0431,-106.814"/>
</g>
<!-- Node2&#45;&gt;Node1 -->
<g id="edge8" class="edge"><title>Node2&#45;&gt;Node1</title>
<path fill="none" stroke="midnightblue" d="M96.5048,-106.191C97.0586,-97.1684 96.6743,-86.9941 95.3521,-79.5707"/>
<polygon fill="midnightblue" stroke="midnightblue" points="93.0005,-106.034 95.3641,-116.362 99.9569,-106.814 93.0005,-106.034"/>
</g>
<!-- Node3 -->
<g id="node4" class="node"><title>Node3</title>
<a xlink:href="../../d4/d6a/classns_i_supports.html" target="_top" xlink:title="nsISupports">
<polygon fill="white" stroke="black" points="55.5,-174.5 55.5,-195.5 124.5,-195.5 124.5,-174.5 55.5,-174.5"/>
<text text-anchor="middle" x="90" y="-182.5" font-family="Helvetica,sans-Serif" font-size="10.00">nsISupports</text>
</a>
</g>
<!-- Node3&#45;&gt;Node2 -->
<g id="edge4" class="edge"><title>Node3&#45;&gt;Node2</title>
<path fill="none" stroke="midnightblue" d="M83.4952,-164.191C82.9414,-155.168 83.3257,-144.994 84.6479,-137.571"/>
<polygon fill="midnightblue" stroke="midnightblue" points="80.0431,-164.814 84.6359,-174.362 86.9995,-164.034 80.0431,-164.814"/>
</g>
<!-- Node3&#45;&gt;Node2 -->
<g id="edge6" class="edge"><title>Node3&#45;&gt;Node2</title>
<path fill="none" stroke="midnightblue" d="M96.5048,-164.191C97.0586,-155.168 96.6743,-144.994 95.3521,-137.571"/>
<polygon fill="midnightblue" stroke="midnightblue" points="93.0005,-164.034 95.3641,-174.362 99.9569,-164.814 93.0005,-164.034"/>
</g>
</g>
</svg>
