<?xml version="1.0" encoding="UTF-8" standalone="no"?>
<!DOCTYPE svg PUBLIC "-//W3C//DTD SVG 1.1//EN"
 "http://www.w3.org/Graphics/SVG/1.1/DTD/svg11.dtd">
<!-- Generated by graphviz version 2.26.3 (20100126.1600)
 -->
<!-- Title: G Pages: 1 -->
<svg width="302pt" height="258pt"
 viewBox="0.00 0.00 302.00 258.00" xmlns="http://www.w3.org/2000/svg" xmlns:xlink="http://www.w3.org/1999/xlink">
<g id="graph1" class="graph" transform="scale(1 1) rotate(0) translate(4 254)">
<title>G</title>
<polygon fill="white" stroke="white" points="-4,5 -4,-254 299,-254 299,5 -4,5"/>
<!-- Node1 -->
<g id="node1" class="node"><title>Node1</title>
<polygon fill="#bfbfbf" stroke="black" points="17,-0.5 17,-21.5 141,-21.5 141,-0.5 17,-0.5"/>
<text text-anchor="middle" x="79" y="-8.5" font-family="Helvetica,sans-Serif" font-size="10.00">CERTCertificatePolicies</text>
</g>
<!-- Node2 -->
<g id="node2" class="node"><title>Node2</title>
<a xlink:href="../../df/db7/struct_p_l_arena_pool.html" target="_top" xlink:title="PLArenaPool">
<polygon fill="white" stroke="black" points="12,-144.5 12,-165.5 86,-165.5 86,-144.5 12,-144.5"/>
<text text-anchor="middle" x="49" y="-152.5" font-family="Helvetica,sans-Serif" font-size="10.00">PLArenaPool</text>
</a>
</g>
<!-- Node2&#45;&gt;Node1 -->
<g id="edge2" class="edge"><title>Node2&#45;&gt;Node1</title>
<path fill="none" stroke="#9a32cd" stroke-dasharray="5,2" d="M49.9776,-134.003C51.0749,-117.095 53.3528,-92.8028 58,-72 62.0535,-53.8548 69.68,-33.5929 74.5414,-21.589"/>
<polygon fill="#9a32cd" stroke="#9a32cd" points="46.4603,-134.214 49.3921,-144.395 53.4492,-134.608 46.4603,-134.214"/>
<text text-anchor="middle" x="72" y="-80.5" font-family="Helvetica,sans-Serif" font-size="10.00"> arena</text>
</g>
<!-- Node3 -->
<g id="node4" class="node"><title>Node3</title>
<a xlink:href="../../d0/da4/struct_p_l_arena.html" target="_top" xlink:title="PLArena">
<polygon fill="white" stroke="black" points="0,-228.5 0,-249.5 54,-249.5 54,-228.5 0,-228.5"/>
<text text-anchor="middle" x="27" y="-236.5" font-family="Helvetica,sans-Serif" font-size="10.00">PLArena</text>
</a>
</g>
<!-- Node3&#45;&gt;Node2 -->
<g id="edge4" class="edge"><title>Node3&#45;&gt;Node2</title>
<path fill="none" stroke="#9a32cd" stroke-dasharray="5,2" d="M27.3541,-217.959C28.0141,-207.542 29.5531,-194.895 33,-184 35.0467,-177.531 38.606,-170.864 41.8486,-165.556"/>
<polygon fill="#9a32cd" stroke="#9a32cd" points="23.8469,-218.065 26.9343,-228.2 30.841,-218.352 23.8469,-218.065"/>
<text text-anchor="middle" x="50" y="-194.5" font-family="Helvetica,sans-Serif" font-size="10.00"> current</text>
</g>
<!-- Node3&#45;&gt;Node3 -->
<g id="edge6" class="edge"><title>Node3&#45;&gt;Node3</title>
<path fill="none" stroke="#9a32cd" stroke-dasharray="5,2" d="M64.5105,-245.788C69.0382,-244.562 72,-242.299 72,-239 72,-233.586 64.0239,-230.964 54.2408,-231.133"/>
<polygon fill="#9a32cd" stroke="#9a32cd" points="63.82,-242.341 54.2408,-246.867 64.5519,-249.303 63.82,-242.341"/>
<text text-anchor="middle" x="83" y="-236.5" font-family="Helvetica,sans-Serif" font-size="10.00"> next</text>
</g>
<!-- Node4 -->
<g id="node7" class="node"><title>Node4</title>
<polygon fill="white" stroke="#bfbfbf" points="111.5,-228.5 111.5,-249.5 152.5,-249.5 152.5,-228.5 111.5,-228.5"/>
<text text-anchor="middle" x="132" y="-236.5" font-family="Helvetica,sans-Serif" font-size="10.00">struct</text>
</g>
<!-- Node4&#45;&gt;Node2 -->
<g id="edge8" class="edge"><title>Node4&#45;&gt;Node2</title>
<path fill="none" stroke="#9a32cd" stroke-dasharray="5,2" d="M109.46,-221.91C104.871,-218.138 100.174,-214.054 96,-210 81.2249,-195.647 66.0915,-177.112 57.1227,-165.643"/>
<polygon fill="#9a32cd" stroke="#9a32cd" points="107.465,-224.795 117.468,-228.287 111.826,-219.319 107.465,-224.795"/>
<text text-anchor="middle" x="106" y="-194.5" font-family="Helvetica,sans-Serif" font-size="10.00"> first</text>
</g>
<!-- Node5 -->
<g id="node9" class="node"><title>Node5</title>
<a xlink:href="../../db/d59/struct_c_e_r_t_policy_info.html" target="_top" xlink:title="CERTPolicyInfo">
<polygon fill="white" stroke="black" points="95,-72.5 95,-93.5 183,-93.5 183,-72.5 95,-72.5"/>
<text text-anchor="middle" x="139" y="-80.5" font-family="Helvetica,sans-Serif" font-size="10.00">CERTPolicyInfo</text>
</a>
</g>
<!-- Node4&#45;&gt;Node5 -->
<g id="edge16" class="edge"><title>Node4&#45;&gt;Node5</title>
<path fill="none" stroke="#9a32cd" stroke-dasharray="5,2" d="M132.934,-218.183C134.443,-184.561 137.363,-119.479 138.515,-93.7975"/>
<polygon fill="#9a32cd" stroke="#9a32cd" points="129.433,-218.131 132.481,-228.277 136.426,-218.444 129.433,-218.131"/>
<text text-anchor="middle" x="156" y="-152.5" font-family="Helvetica,sans-Serif" font-size="10.00"> policyID</text>
</g>
<!-- Node6 -->
<g id="node11" class="node"><title>Node6</title>
<a xlink:href="../../d5/d8c/struct_c_e_r_t_policy_qualifier.html" target="_top" xlink:title="CERTPolicyQualifier">
<polygon fill="white" stroke="black" points="187.5,-144.5 187.5,-165.5 294.5,-165.5 294.5,-144.5 187.5,-144.5"/>
<text text-anchor="middle" x="241" y="-152.5" font-family="Helvetica,sans-Serif" font-size="10.00">CERTPolicyQualifier</text>
</a>
</g>
<!-- Node4&#45;&gt;Node6 -->
<g id="edge14" class="edge"><title>Node4&#45;&gt;Node6</title>
<path fill="none" stroke="#9a32cd" stroke-dasharray="5,2" d="M153.885,-222.135C175.804,-205.243 208.856,-179.771 227.307,-165.552"/>
<polygon fill="#9a32cd" stroke="#9a32cd" points="151.589,-219.485 145.805,-228.361 155.862,-225.029 151.589,-219.485"/>
<text text-anchor="middle" x="231.5" y="-201" font-family="Helvetica,sans-Serif" font-size="10.00"> qualifierID</text>
<text text-anchor="middle" x="231.5" y="-188" font-family="Helvetica,sans-Serif" font-size="10.00">qualifierValue</text>
</g>
<!-- Node5&#45;&gt;Node1 -->
<g id="edge10" class="edge"><title>Node5&#45;&gt;Node1</title>
<path fill="none" stroke="#9a32cd" stroke-dasharray="5,2" d="M123.653,-64.5841C112.324,-50.9886 97.2983,-32.9579 87.8895,-21.6674"/>
<polygon fill="#9a32cd" stroke="#9a32cd" points="121.056,-66.9346 130.147,-72.3762 126.434,-62.4533 121.056,-66.9346"/>
<text text-anchor="middle" x="139.5" y="-44.5" font-family="Helvetica,sans-Serif" font-size="10.00"> policyInfos</text>
</g>
<!-- Node6&#45;&gt;Node5 -->
<g id="edge12" class="edge"><title>Node6&#45;&gt;Node5</title>
<path fill="none" stroke="#9a32cd" stroke-dasharray="5,2" d="M217.593,-138.477C198.082,-124.705 170.862,-105.49 154.112,-93.6674"/>
<polygon fill="#9a32cd" stroke="#9a32cd" points="215.761,-141.469 225.95,-144.376 219.798,-135.75 215.761,-141.469"/>
<text text-anchor="middle" x="234" y="-116.5" font-family="Helvetica,sans-Serif" font-size="10.00"> policyQualifiers</text>
</g>
</g>
</svg>
