<?xml version="1.0" encoding="UTF-8" standalone="no"?>
<!DOCTYPE svg PUBLIC "-//W3C//DTD SVG 1.1//EN"
 "http://www.w3.org/Graphics/SVG/1.1/DTD/svg11.dtd">
<!-- Generated by graphviz version 2.26.3 (20100126.1600)
 -->
<!-- Title: G Pages: 1 -->
<svg width="179pt" height="150pt"
 viewBox="0.00 0.00 179.00 150.00" xmlns="http://www.w3.org/2000/svg" xmlns:xlink="http://www.w3.org/1999/xlink">
<g id="graph1" class="graph" transform="scale(1 1) rotate(0) translate(4 146)">
<title>G</title>
<polygon fill="white" stroke="white" points="-4,5 -4,-146 176,-146 176,5 -4,5"/>
<!-- Node1 -->
<g id="node1" class="node"><title>Node1</title>
<polygon fill="#bfbfbf" stroke="black" points="-0.5,-0.5 -0.5,-21.5 94.5,-21.5 94.5,-0.5 -0.5,-0.5"/>
<text text-anchor="middle" x="47" y="-8.5" font-family="Helvetica,sans-Serif" font-size="10.00">nsAutoXPTCStub</text>
</g>
<!-- Node2 -->
<g id="node2" class="node"><title>Node2</title>
<a xlink:href="../../d9/de8/classns_i_x_p_t_c_proxy.html" target="_top" xlink:title="nsIXPTCProxy">
<polygon fill="white" stroke="black" points="88.5,-60.5 88.5,-81.5 171.5,-81.5 171.5,-60.5 88.5,-60.5"/>
<text text-anchor="middle" x="130" y="-68.5" font-family="Helvetica,sans-Serif" font-size="10.00">nsIXPTCProxy</text>
</a>
</g>
<!-- Node2&#45;&gt;Node1 -->
<g id="edge2" class="edge"><title>Node2&#45;&gt;Node1</title>
<path fill="none" stroke="darkgreen" d="M106.73,-54.1784C92.2932,-43.7421 74.1827,-30.6502 61.7103,-21.6339"/>
<polygon fill="darkgreen" stroke="darkgreen" points="105.007,-57.2512 115.161,-60.2732 109.108,-51.5782 105.007,-57.2512"/>
</g>
<!-- Node3 -->
<g id="node4" class="node"><title>Node3</title>
<a xlink:href="../../d4/d6a/classns_i_supports.html" target="_top" xlink:title="nsISupports">
<polygon fill="white" stroke="black" points="12.5,-120.5 12.5,-141.5 81.5,-141.5 81.5,-120.5 12.5,-120.5"/>
<text text-anchor="middle" x="47" y="-128.5" font-family="Helvetica,sans-Serif" font-size="10.00">nsISupports</text>
</a>
</g>
<!-- Node3&#45;&gt;Node1 -->
<g id="edge6" class="edge"><title>Node3&#45;&gt;Node1</title>
<path fill="none" stroke="#9a32cd" stroke-dasharray="5,2" d="M33.9962,-111.778C28.8716,-103.082 23.5962,-92.4317 21,-82 15.5472,-60.0901 29.1584,-35.5711 38.6779,-21.8394"/>
<polygon fill="#9a32cd" stroke="#9a32cd" points="31.0877,-113.728 39.3637,-120.343 37.0192,-110.011 31.0877,-113.728"/>
<text text-anchor="middle" x="50.5" y="-68.5" font-family="Helvetica,sans-Serif" font-size="10.00"> mXPTCStub</text>
</g>
<!-- Node3&#45;&gt;Node2 -->
<g id="edge4" class="edge"><title>Node3&#45;&gt;Node2</title>
<path fill="none" stroke="midnightblue" d="M70.2698,-114.178C84.7068,-103.742 102.817,-90.6502 115.29,-81.6339"/>
<polygon fill="midnightblue" stroke="midnightblue" points="67.8925,-111.578 61.8387,-120.273 71.9935,-117.251 67.8925,-111.578"/>
</g>
</g>
</svg>
