<?xml version="1.0" encoding="UTF-8" standalone="no"?>
<!DOCTYPE svg PUBLIC "-//W3C//DTD SVG 1.1//EN"
 "http://www.w3.org/Graphics/SVG/1.1/DTD/svg11.dtd">
<!-- Generated by graphviz version 2.26.3 (20100126.1600)
 -->
<!-- Title: G Pages: 1 -->
<svg width="466pt" height="70pt"
 viewBox="0.00 0.00 466.00 70.00" xmlns="http://www.w3.org/2000/svg" xmlns:xlink="http://www.w3.org/1999/xlink">
<g id="graph1" class="graph" transform="scale(1 1) rotate(0) translate(4 66)">
<title>G</title>
<polygon fill="white" stroke="white" points="-4,5 -4,-66 463,-66 463,5 -4,5"/>
<!-- Node1 -->
<g id="node1" class="node"><title>Node1</title>
<polygon fill="#bfbfbf" stroke="black" points="0.5,-20.5 0.5,-41.5 107.5,-41.5 107.5,-20.5 0.5,-20.5"/>
<text text-anchor="middle" x="54" y="-28.5" font-family="Helvetica,sans-Serif" font-size="10.00">gfxSparseBitSet::set</text>
</g>
<!-- Node2 -->
<g id="node3" class="node"><title>Node2</title>
<a xlink:href="../../de/dcb/classgfx_sparse_bit_set.html#acf250415e0a1842732d922a0d43ff8cf" target="_top" xlink:title="gfxSparseBitSet::clear">
<polygon fill="white" stroke="black" points="144.5,-20.5 144.5,-41.5 259.5,-41.5 259.5,-20.5 144.5,-20.5"/>
<text text-anchor="middle" x="202" y="-28.5" font-family="Helvetica,sans-Serif" font-size="10.00">gfxSparseBitSet::clear</text>
</a>
</g>
<!-- Node1&#45;&gt;Node2 -->
<g id="edge2" class="edge"><title>Node1&#45;&gt;Node2</title>
<path fill="none" stroke="midnightblue" d="M107.85,-31C116.404,-31 125.348,-31 134.173,-31"/>
<polygon fill="midnightblue" stroke="midnightblue" points="134.448,-34.5001 144.448,-31 134.448,-27.5001 134.448,-34.5001"/>
</g>
<!-- Node3 -->
<g id="node5" class="node"><title>Node3</title>
<a xlink:href="../../d4/dd8/classns_t_array___impl.html#a1c222edc1c9c3fa51d40b1bccbee6ffd" target="_top" xlink:title="nsTArray_Impl::AppendElements">
<polygon fill="white" stroke="black" points="296.5,-40.5 296.5,-61.5 457.5,-61.5 457.5,-40.5 296.5,-40.5"/>
<text text-anchor="middle" x="377" y="-48.5" font-family="Helvetica,sans-Serif" font-size="10.00">nsTArray_Impl::AppendElements</text>
</a>
</g>
<!-- Node2&#45;&gt;Node3 -->
<g id="edge4" class="edge"><title>Node2&#45;&gt;Node3</title>
<path fill="none" stroke="midnightblue" d="M259.787,-37.6042C268.322,-38.5797 277.286,-39.6041 286.295,-40.6337"/>
<polygon fill="midnightblue" stroke="midnightblue" points="286.132,-44.1378 296.465,-41.796 286.927,-37.1831 286.132,-44.1378"/>
</g>
<!-- Node4 -->
<g id="node7" class="node"><title>Node4</title>
<a xlink:href="../../db/d9f/classns_t_array__base.html#a9ff8fa91fb766d44982e50ac82558141" target="_top" xlink:title="nsTArray_base::Length">
<polygon fill="white" stroke="black" points="318,-0.5 318,-21.5 436,-21.5 436,-0.5 318,-0.5"/>
<text text-anchor="middle" x="377" y="-8.5" font-family="Helvetica,sans-Serif" font-size="10.00">nsTArray_base::Length</text>
</a>
</g>
<!-- Node2&#45;&gt;Node4 -->
<g id="edge6" class="edge"><title>Node2&#45;&gt;Node4</title>
<path fill="none" stroke="midnightblue" d="M259.787,-24.3958C275.059,-22.6504 291.701,-20.7485 307.522,-18.9404"/>
<polygon fill="midnightblue" stroke="midnightblue" points="308.239,-22.3813 317.777,-17.7684 307.444,-15.4266 308.239,-22.3813"/>
</g>
</g>
</svg>
