<?xml version="1.0" encoding="UTF-8" standalone="no"?>
<!DOCTYPE svg PUBLIC "-//W3C//DTD SVG 1.1//EN"
 "http://www.w3.org/Graphics/SVG/1.1/DTD/svg11.dtd">
<!-- Generated by graphviz version 2.26.3 (20100126.1600)
 -->
<!-- Title: G Pages: 1 -->
<svg width="326pt" height="70pt"
 viewBox="0.00 0.00 326.00 70.00" xmlns="http://www.w3.org/2000/svg" xmlns:xlink="http://www.w3.org/1999/xlink">
<g id="graph1" class="graph" transform="scale(1 1) rotate(0) translate(4 66)">
<title>G</title>
<polygon fill="white" stroke="white" points="-4,5 -4,-66 323,-66 323,5 -4,5"/>
<!-- Node1 -->
<g id="node1" class="node"><title>Node1</title>
<polygon fill="#bfbfbf" stroke="black" points="0.5,-20.5 0.5,-41.5 119.5,-41.5 119.5,-20.5 0.5,-20.5"/>
<text text-anchor="middle" x="60" y="-28.5" font-family="Helvetica,sans-Serif" font-size="10.00">gfxSparseBitSet::Union</text>
</g>
<!-- Node2 -->
<g id="node3" class="node"><title>Node2</title>
<a xlink:href="../../d4/dd8/classns_t_array___impl.html#a1c222edc1c9c3fa51d40b1bccbee6ffd" target="_top" xlink:title="nsTArray_Impl::AppendElements">
<polygon fill="white" stroke="black" points="156.5,-40.5 156.5,-61.5 317.5,-61.5 317.5,-40.5 156.5,-40.5"/>
<text text-anchor="middle" x="237" y="-48.5" font-family="Helvetica,sans-Serif" font-size="10.00">nsTArray_Impl::AppendElements</text>
</a>
</g>
<!-- Node1&#45;&gt;Node2 -->
<g id="edge2" class="edge"><title>Node1&#45;&gt;Node2</title>
<path fill="none" stroke="midnightblue" d="M119.924,-37.7711C128.45,-38.7344 137.372,-39.7425 146.323,-40.754"/>
<polygon fill="midnightblue" stroke="midnightblue" points="146.093,-44.2502 156.423,-41.8952 146.879,-37.2945 146.093,-44.2502"/>
</g>
<!-- Node3 -->
<g id="node5" class="node"><title>Node3</title>
<a xlink:href="../../db/d9f/classns_t_array__base.html#a9ff8fa91fb766d44982e50ac82558141" target="_top" xlink:title="nsTArray_base::Length">
<polygon fill="white" stroke="black" points="178,-0.5 178,-21.5 296,-21.5 296,-0.5 178,-0.5"/>
<text text-anchor="middle" x="237" y="-8.5" font-family="Helvetica,sans-Serif" font-size="10.00">nsTArray_base::Length</text>
</a>
</g>
<!-- Node1&#45;&gt;Node3 -->
<g id="edge4" class="edge"><title>Node1&#45;&gt;Node3</title>
<path fill="none" stroke="midnightblue" d="M119.924,-24.2289C135.226,-22.4998 151.805,-20.6265 167.541,-18.8484"/>
<polygon fill="midnightblue" stroke="midnightblue" points="168.195,-22.297 177.739,-17.6962 167.409,-15.3412 168.195,-22.297"/>
</g>
</g>
</svg>
