<?xml version="1.0" encoding="UTF-8" standalone="no"?>
<!DOCTYPE svg PUBLIC "-//W3C//DTD SVG 1.1//EN"
 "http://www.w3.org/Graphics/SVG/1.1/DTD/svg11.dtd">
<!-- Generated by graphviz version 2.26.3 (20100126.1600)
 -->
<!-- Title: G Pages: 1 -->
<svg width="475pt" height="378pt"
 viewBox="0.00 0.00 475.00 378.00" xmlns="http://www.w3.org/2000/svg" xmlns:xlink="http://www.w3.org/1999/xlink">
<g id="graph1" class="graph" transform="scale(1 1) rotate(0) translate(4 374)">
<title>G</title>
<polygon fill="white" stroke="white" points="-4,5 -4,-374 472,-374 472,5 -4,5"/>
<!-- Node1 -->
<g id="node1" class="node"><title>Node1</title>
<polygon fill="#bfbfbf" stroke="black" points="47,-348.5 47,-369.5 467,-369.5 467,-348.5 47,-348.5"/>
<text text-anchor="middle" x="257" y="-356.5" font-family="Helvetica,sans-Serif" font-size="10.00">/home/aoi/Documents/FxOS/B2G/gaia/xulrunner&#45;sdk/include/skia/GrBackendEffectFactory.h</text>
</g>
<!-- Node2 -->
<g id="node3" class="node"><title>Node2</title>
<a xlink:href="../../d8/de6/_gr_types_8h.html" target="_top" xlink:title="GrTypes.h">
<polygon fill="white" stroke="black" points="209,-232.5 209,-253.5 271,-253.5 271,-232.5 209,-232.5"/>
<text text-anchor="middle" x="240" y="-240.5" font-family="Helvetica,sans-Serif" font-size="10.00">GrTypes.h</text>
</a>
</g>
<!-- Node1&#45;&gt;Node2 -->
<g id="edge2" class="edge"><title>Node1&#45;&gt;Node2</title>
<path fill="none" stroke="midnightblue" d="M250.618,-348.242C245.525,-338.994 238.796,-325.111 236,-312 232.604,-296.073 233.933,-277.64 235.931,-263.835"/>
<polygon fill="midnightblue" stroke="midnightblue" points="239.397,-264.333 237.6,-253.892 232.493,-263.175 239.397,-264.333"/>
</g>
<!-- Node14 -->
<g id="node31" class="node"><title>Node14</title>
<a xlink:href="../../db/d2d/_sk_templates_8h.html" target="_top" xlink:title="SkTemplates.h">
<polygon fill="white" stroke="black" points="106.5,-290.5 106.5,-311.5 189.5,-311.5 189.5,-290.5 106.5,-290.5"/>
<text text-anchor="middle" x="148" y="-298.5" font-family="Helvetica,sans-Serif" font-size="10.00">SkTemplates.h</text>
</a>
</g>
<!-- Node1&#45;&gt;Node14 -->
<g id="edge34" class="edge"><title>Node1&#45;&gt;Node14</title>
<path fill="none" stroke="midnightblue" d="M237.261,-348.497C220.39,-339.519 195.891,-326.484 176.826,-316.339"/>
<polygon fill="midnightblue" stroke="midnightblue" points="178.433,-313.229 167.961,-311.621 175.144,-319.409 178.433,-313.229"/>
</g>
<!-- Node16 -->
<g id="node36" class="node"><title>Node16</title>
<a xlink:href="../../d9/d82/_sk_thread__platform_8h.html" target="_top" xlink:title="SkThread_platform.h">
<polygon fill="white" stroke="black" points="244.5,-290.5 244.5,-311.5 351.5,-311.5 351.5,-290.5 244.5,-290.5"/>
<text text-anchor="middle" x="298" y="-298.5" font-family="Helvetica,sans-Serif" font-size="10.00">SkThread_platform.h</text>
</a>
</g>
<!-- Node1&#45;&gt;Node16 -->
<g id="edge40" class="edge"><title>Node1&#45;&gt;Node16</title>
<path fill="none" stroke="midnightblue" d="M264.52,-348.362C270.126,-340.431 277.932,-329.389 284.597,-319.961"/>
<polygon fill="midnightblue" stroke="midnightblue" points="287.613,-321.757 290.528,-311.571 281.897,-317.716 287.613,-321.757"/>
</g>
<!-- Node17 -->
<g id="node38" class="node"><title>Node17</title>
<a xlink:href="../../de/d91/_gr_noncopyable_8h.html" target="_top" xlink:title="GrNoncopyable.h">
<polygon fill="white" stroke="black" points="369,-290.5 369,-311.5 461,-311.5 461,-290.5 369,-290.5"/>
<text text-anchor="middle" x="415" y="-298.5" font-family="Helvetica,sans-Serif" font-size="10.00">GrNoncopyable.h</text>
</a>
</g>
<!-- Node1&#45;&gt;Node17 -->
<g id="edge42" class="edge"><title>Node1&#45;&gt;Node17</title>
<path fill="none" stroke="midnightblue" d="M285.613,-348.497C311.148,-339.123 348.737,-325.324 376.829,-315.012"/>
<polygon fill="midnightblue" stroke="midnightblue" points="378.152,-318.255 386.334,-311.523 375.74,-311.684 378.152,-318.255"/>
</g>
<!-- Node3 -->
<g id="node5" class="node"><title>Node3</title>
<a xlink:href="../../d3/d36/_sk_types_8h.html" target="_top" xlink:title="SkTypes.h">
<polygon fill="white" stroke="black" points="153,-116.5 153,-137.5 217,-137.5 217,-116.5 153,-116.5"/>
<text text-anchor="middle" x="185" y="-124.5" font-family="Helvetica,sans-Serif" font-size="10.00">SkTypes.h</text>
</a>
</g>
<!-- Node2&#45;&gt;Node3 -->
<g id="edge4" class="edge"><title>Node2&#45;&gt;Node3</title>
<path fill="none" stroke="midnightblue" d="M238.362,-232.256C235.941,-218.279 230.621,-193.361 221,-174 215.976,-163.889 208.635,-153.802 201.891,-145.58"/>
<polygon fill="midnightblue" stroke="midnightblue" points="204.363,-143.085 195.201,-137.763 199.045,-147.636 204.363,-143.085"/>
</g>
<!-- Node11 -->
<g id="node22" class="node"><title>Node11</title>
<a xlink:href="../../dd/d22/_gr_config_8h.html" target="_top" xlink:title="GrConfig.h">
<polygon fill="white" stroke="black" points="268,-174.5 268,-195.5 332,-195.5 332,-174.5 268,-174.5"/>
<text text-anchor="middle" x="300" y="-182.5" font-family="Helvetica,sans-Serif" font-size="10.00">GrConfig.h</text>
</a>
</g>
<!-- Node2&#45;&gt;Node11 -->
<g id="edge22" class="edge"><title>Node2&#45;&gt;Node11</title>
<path fill="none" stroke="midnightblue" d="M251.005,-232.362C259.547,-224.104 271.58,-212.472 281.583,-202.803"/>
<polygon fill="midnightblue" stroke="midnightblue" points="284.308,-205.037 289.065,-195.571 279.442,-200.004 284.308,-205.037"/>
</g>
<!-- Node13 -->
<g id="node28" class="node"><title>Node13</title>
<a xlink:href="../../d9/df0/_sk_math_8h.html" target="_top" xlink:title="SkMath.h">
<polygon fill="white" stroke="black" points="153.5,-174.5 153.5,-195.5 212.5,-195.5 212.5,-174.5 153.5,-174.5"/>
<text text-anchor="middle" x="183" y="-182.5" font-family="Helvetica,sans-Serif" font-size="10.00">SkMath.h</text>
</a>
</g>
<!-- Node2&#45;&gt;Node13 -->
<g id="edge30" class="edge"><title>Node2&#45;&gt;Node13</title>
<path fill="none" stroke="midnightblue" d="M229.545,-232.362C221.43,-224.104 209.999,-212.472 200.496,-202.803"/>
<polygon fill="midnightblue" stroke="midnightblue" points="202.894,-200.25 193.388,-195.571 197.901,-205.156 202.894,-200.25"/>
</g>
<!-- Node4 -->
<g id="node7" class="node"><title>Node4</title>
<a xlink:href="../../da/dc5/_sk_pre_config_8h.html" target="_top" xlink:title="SkPreConfig.h">
<polygon fill="white" stroke="black" points="246,-58.5 246,-79.5 326,-79.5 326,-58.5 246,-58.5"/>
<text text-anchor="middle" x="286" y="-66.5" font-family="Helvetica,sans-Serif" font-size="10.00">SkPreConfig.h</text>
</a>
</g>
<!-- Node3&#45;&gt;Node4 -->
<g id="edge6" class="edge"><title>Node3&#45;&gt;Node4</title>
<path fill="none" stroke="midnightblue" d="M203.525,-116.362C218.901,-107.532 240.996,-94.844 258.447,-84.8224"/>
<polygon fill="midnightblue" stroke="midnightblue" points="260.664,-87.5857 267.592,-79.5707 257.178,-81.5154 260.664,-87.5857"/>
</g>
<!-- Node5 -->
<g id="node9" class="node"><title>Node5</title>
<a xlink:href="../../d8/d2f/_sk_user_config_8h.html" target="_top" xlink:title="SkUserConfig.h">
<polygon fill="white" stroke="black" points="0,-58.5 0,-79.5 86,-79.5 86,-58.5 0,-58.5"/>
<text text-anchor="middle" x="43" y="-66.5" font-family="Helvetica,sans-Serif" font-size="10.00">SkUserConfig.h</text>
</a>
</g>
<!-- Node3&#45;&gt;Node5 -->
<g id="edge8" class="edge"><title>Node3&#45;&gt;Node5</title>
<path fill="none" stroke="midnightblue" d="M159.285,-116.497C136.707,-107.275 103.642,-93.7695 78.5374,-83.5153"/>
<polygon fill="midnightblue" stroke="midnightblue" points="79.5847,-80.1624 69.0037,-79.6212 76.9378,-86.6427 79.5847,-80.1624"/>
</g>
<!-- Node6 -->
<g id="node11" class="node"><title>Node6</title>
<a xlink:href="../../d8/d35/_sk_post_config_8h.html" target="_top" xlink:title="SkPostConfig.h">
<polygon fill="white" stroke="black" points="142,-58.5 142,-79.5 228,-79.5 228,-58.5 142,-58.5"/>
<text text-anchor="middle" x="185" y="-66.5" font-family="Helvetica,sans-Serif" font-size="10.00">SkPostConfig.h</text>
</a>
</g>
<!-- Node3&#45;&gt;Node6 -->
<g id="edge10" class="edge"><title>Node3&#45;&gt;Node6</title>
<path fill="none" stroke="midnightblue" d="M185,-116.362C185,-108.922 185,-98.7427 185,-89.7276"/>
<polygon fill="midnightblue" stroke="midnightblue" points="188.5,-89.5706 185,-79.5707 181.5,-89.5707 188.5,-89.5706"/>
</g>
<!-- Node7 -->
<g id="node13" class="node"><title>Node7</title>
<polygon fill="white" stroke="#bfbfbf" points="92,-0.5 92,-21.5 138,-21.5 138,-0.5 92,-0.5"/>
<text text-anchor="middle" x="115" y="-8.5" font-family="Helvetica,sans-Serif" font-size="10.00">stdio.h</text>
</g>
<!-- Node3&#45;&gt;Node7 -->
<g id="edge20" class="edge"><title>Node3&#45;&gt;Node7</title>
<path fill="none" stroke="midnightblue" d="M169.07,-116.485C157.409,-107.978 142.092,-94.9798 133,-80 123.991,-65.1571 119.451,-45.8678 117.187,-31.4591"/>
<polygon fill="midnightblue" stroke="midnightblue" points="120.656,-30.9951 115.863,-21.5465 113.717,-31.9218 120.656,-30.9951"/>
</g>
<!-- Node10 -->
<g id="node19" class="node"><title>Node10</title>
<polygon fill="white" stroke="#bfbfbf" points="343.5,-58.5 343.5,-79.5 392.5,-79.5 392.5,-58.5 343.5,-58.5"/>
<text text-anchor="middle" x="368" y="-66.5" font-family="Helvetica,sans-Serif" font-size="10.00">stdint.h</text>
</g>
<!-- Node3&#45;&gt;Node10 -->
<g id="edge18" class="edge"><title>Node3&#45;&gt;Node10</title>
<path fill="none" stroke="midnightblue" d="M217.24,-117.083C245.633,-108.309 288.343,-95.011 333.484,-80.4599"/>
<polygon fill="midnightblue" stroke="midnightblue" points="334.71,-83.7421 343.15,-77.337 332.558,-77.0812 334.71,-83.7421"/>
</g>
<!-- Node6&#45;&gt;Node7 -->
<g id="edge12" class="edge"><title>Node6&#45;&gt;Node7</title>
<path fill="none" stroke="midnightblue" d="M172.161,-58.3619C161.998,-49.9408 147.599,-38.0105 135.796,-28.2308"/>
<polygon fill="midnightblue" stroke="midnightblue" points="137.691,-25.2558 127.758,-21.5707 133.225,-30.6459 137.691,-25.2558"/>
</g>
<!-- Node8 -->
<g id="node15" class="node"><title>Node8</title>
<polygon fill="white" stroke="#bfbfbf" points="224.5,-0.5 224.5,-21.5 273.5,-21.5 273.5,-0.5 224.5,-0.5"/>
<text text-anchor="middle" x="249" y="-8.5" font-family="Helvetica,sans-Serif" font-size="10.00">string.h</text>
</g>
<!-- Node6&#45;&gt;Node8 -->
<g id="edge14" class="edge"><title>Node6&#45;&gt;Node8</title>
<path fill="none" stroke="midnightblue" d="M196.739,-58.3619C205.941,-50.0226 218.94,-38.2418 229.672,-28.5162"/>
<polygon fill="midnightblue" stroke="midnightblue" points="232.276,-30.8793 237.336,-21.5707 227.576,-25.6924 232.276,-30.8793"/>
</g>
<!-- Node9 -->
<g id="node17" class="node"><title>Node9</title>
<polygon fill="white" stroke="#bfbfbf" points="159,-0.5 159,-21.5 207,-21.5 207,-0.5 159,-0.5"/>
<text text-anchor="middle" x="183" y="-8.5" font-family="Helvetica,sans-Serif" font-size="10.00">stdlib.h</text>
</g>
<!-- Node6&#45;&gt;Node9 -->
<g id="edge16" class="edge"><title>Node6&#45;&gt;Node9</title>
<path fill="none" stroke="midnightblue" d="M184.633,-58.3619C184.377,-50.9219 184.026,-40.7427 183.715,-31.7276"/>
<polygon fill="midnightblue" stroke="midnightblue" points="187.207,-31.4441 183.365,-21.5707 180.211,-31.6854 187.207,-31.4441"/>
</g>
<!-- Node11&#45;&gt;Node3 -->
<g id="edge24" class="edge"><title>Node11&#45;&gt;Node3</title>
<path fill="none" stroke="midnightblue" d="M279.174,-174.497C261.294,-165.479 235.293,-152.365 215.139,-142.201"/>
<polygon fill="midnightblue" stroke="midnightblue" points="216.564,-138.999 206.059,-137.621 213.412,-145.249 216.564,-138.999"/>
</g>
<!-- Node11&#45;&gt;Node10 -->
<g id="edge26" class="edge"><title>Node11&#45;&gt;Node10</title>
<path fill="none" stroke="midnightblue" d="M314.94,-174.256C325.892,-165.629 340.31,-152.581 349,-138 357.921,-123.031 362.77,-103.754 365.331,-89.3817"/>
<polygon fill="midnightblue" stroke="midnightblue" points="368.79,-89.9201 366.873,-79.5 361.873,-88.8408 368.79,-89.9201"/>
</g>
<!-- Node12 -->
<g id="node26" class="node"><title>Node12</title>
<a xlink:href="../../dc/dc1/_gr_user_config_8h.html" target="_top" xlink:title="GrUserConfig.h">
<polygon fill="white" stroke="black" points="255.5,-116.5 255.5,-137.5 340.5,-137.5 340.5,-116.5 255.5,-116.5"/>
<text text-anchor="middle" x="298" y="-124.5" font-family="Helvetica,sans-Serif" font-size="10.00">GrUserConfig.h</text>
</a>
</g>
<!-- Node11&#45;&gt;Node12 -->
<g id="edge28" class="edge"><title>Node11&#45;&gt;Node12</title>
<path fill="none" stroke="midnightblue" d="M299.633,-174.362C299.377,-166.922 299.026,-156.743 298.715,-147.728"/>
<polygon fill="midnightblue" stroke="midnightblue" points="302.207,-147.444 298.365,-137.571 295.211,-147.685 302.207,-147.444"/>
</g>
<!-- Node13&#45;&gt;Node3 -->
<g id="edge32" class="edge"><title>Node13&#45;&gt;Node3</title>
<path fill="none" stroke="midnightblue" d="M183.367,-174.362C183.623,-166.922 183.974,-156.743 184.285,-147.728"/>
<polygon fill="midnightblue" stroke="midnightblue" points="187.789,-147.685 184.635,-137.571 180.793,-147.444 187.789,-147.685"/>
</g>
<!-- Node14&#45;&gt;Node3 -->
<g id="edge36" class="edge"><title>Node14&#45;&gt;Node3</title>
<path fill="none" stroke="midnightblue" d="M145.205,-290.37C139.861,-268.002 129.998,-214.776 145,-174 148.996,-163.14 156.739,-153.078 164.357,-145.074"/>
<polygon fill="midnightblue" stroke="midnightblue" points="167.089,-147.297 171.79,-137.802 162.194,-142.293 167.089,-147.297"/>
</g>
<!-- Node15 -->
<g id="node34" class="node"><title>Node15</title>
<polygon fill="white" stroke="#bfbfbf" points="153.5,-232.5 153.5,-253.5 188.5,-253.5 188.5,-232.5 153.5,-232.5"/>
<text text-anchor="middle" x="171" y="-240.5" font-family="Helvetica,sans-Serif" font-size="10.00">new</text>
</g>
<!-- Node14&#45;&gt;Node15 -->
<g id="edge38" class="edge"><title>Node14&#45;&gt;Node15</title>
<path fill="none" stroke="midnightblue" d="M152.219,-290.362C155.234,-282.758 159.383,-272.294 163.015,-263.135"/>
<polygon fill="midnightblue" stroke="midnightblue" points="166.375,-264.157 166.808,-253.571 159.868,-261.576 166.375,-264.157"/>
</g>
<!-- Node17&#45;&gt;Node2 -->
<g id="edge44" class="edge"><title>Node17&#45;&gt;Node2</title>
<path fill="none" stroke="midnightblue" d="M383.309,-290.497C354.601,-280.982 312.139,-266.909 280.883,-256.55"/>
<polygon fill="midnightblue" stroke="midnightblue" points="281.755,-253.151 271.161,-253.328 279.552,-259.796 281.755,-253.151"/>
</g>
</g>
</svg>
