<?xml version="1.0" encoding="UTF-8" standalone="no"?>
<!DOCTYPE svg PUBLIC "-//W3C//DTD SVG 1.1//EN"
 "http://www.w3.org/Graphics/SVG/1.1/DTD/svg11.dtd">
<!-- Generated by graphviz version 2.26.3 (20100126.1600)
 -->
<!-- Title: G Pages: 1 -->
<svg width="441pt" height="204pt"
 viewBox="0.00 0.00 441.00 204.00" xmlns="http://www.w3.org/2000/svg" xmlns:xlink="http://www.w3.org/1999/xlink">
<g id="graph1" class="graph" transform="scale(1 1) rotate(0) translate(4 200)">
<title>G</title>
<polygon fill="white" stroke="white" points="-4,5 -4,-200 438,-200 438,5 -4,5"/>
<!-- Node1 -->
<g id="node1" class="node"><title>Node1</title>
<polygon fill="#bfbfbf" stroke="black" points="32,-0.5 32,-21.5 314,-21.5 314,-0.5 32,-0.5"/>
<text text-anchor="middle" x="173" y="-8.5" font-family="Helvetica,sans-Serif" font-size="10.00">mozilla::layers::YCbCrDeprecatedTextureHostOGL::Channel</text>
</g>
<!-- Node2 -->
<g id="node2" class="node"><title>Node2</title>
<a xlink:href="../../d1/db2/classmozilla_1_1layers_1_1_texture_source_o_g_l.html" target="_top" xlink:title="mozilla::layers::TextureSourceOGL">
<polygon fill="white" stroke="black" points="0,-58.5 0,-79.5 170,-79.5 170,-58.5 0,-58.5"/>
<text text-anchor="middle" x="85" y="-66.5" font-family="Helvetica,sans-Serif" font-size="10.00">mozilla::layers::TextureSourceOGL</text>
</a>
</g>
<!-- Node2&#45;&gt;Node1 -->
<g id="edge2" class="edge"><title>Node2&#45;&gt;Node1</title>
<path fill="none" stroke="midnightblue" d="M109.547,-52.8215C124.704,-42.8312 143.718,-30.2993 156.962,-21.5707"/>
<polygon fill="midnightblue" stroke="midnightblue" points="107.564,-49.9364 101.141,-58.3619 111.416,-55.7811 107.564,-49.9364"/>
</g>
<!-- Node3 -->
<g id="node4" class="node"><title>Node3</title>
<a xlink:href="../../dc/d92/classmozilla_1_1layers_1_1_texture_source.html" target="_top" xlink:title="mozilla::layers::TextureSource">
<polygon fill="white" stroke="black" points="187.5,-58.5 187.5,-79.5 336.5,-79.5 336.5,-58.5 187.5,-58.5"/>
<text text-anchor="middle" x="262" y="-66.5" font-family="Helvetica,sans-Serif" font-size="10.00">mozilla::layers::TextureSource</text>
</a>
</g>
<!-- Node3&#45;&gt;Node1 -->
<g id="edge4" class="edge"><title>Node3&#45;&gt;Node1</title>
<path fill="none" stroke="midnightblue" d="M237.174,-52.8215C221.844,-42.8312 202.614,-30.2993 189.22,-21.5707"/>
<polygon fill="midnightblue" stroke="midnightblue" points="235.387,-55.8344 245.676,-58.3619 239.209,-49.9698 235.387,-55.8344"/>
</g>
<!-- Node4 -->
<g id="node6" class="node"><title>Node4</title>
<a xlink:href="../../d2/de4/classmozilla_1_1_ref_counted.html" target="_top" xlink:title="mozilla::RefCounted\&lt; TextureSource \&gt;">
<polygon fill="white" stroke="black" points="168,-116.5 168,-137.5 356,-137.5 356,-116.5 168,-116.5"/>
<text text-anchor="middle" x="262" y="-124.5" font-family="Helvetica,sans-Serif" font-size="10.00">mozilla::RefCounted&lt; TextureSource &gt;</text>
</a>
</g>
<!-- Node4&#45;&gt;Node3 -->
<g id="edge6" class="edge"><title>Node4&#45;&gt;Node3</title>
<path fill="none" stroke="midnightblue" d="M262,-106.191C262,-97.1684 262,-86.9941 262,-79.5707"/>
<polygon fill="midnightblue" stroke="midnightblue" points="258.5,-106.362 262,-116.362 265.5,-106.362 258.5,-106.362"/>
</g>
<!-- Node5 -->
<g id="node8" class="node"><title>Node5</title>
<a xlink:href="../../df/d3c/classmozilla_1_1detail_1_1_ref_counted.html" target="_top" xlink:title="mozilla::detail::RefCounted\&lt; TextureSource, detail::NonAtomicRefCount \&gt;">
<polygon fill="white" stroke="black" points="90.5,-174.5 90.5,-195.5 433.5,-195.5 433.5,-174.5 90.5,-174.5"/>
<text text-anchor="middle" x="262" y="-182.5" font-family="Helvetica,sans-Serif" font-size="10.00">mozilla::detail::RefCounted&lt; TextureSource, detail::NonAtomicRefCount &gt;</text>
</a>
</g>
<!-- Node5&#45;&gt;Node4 -->
<g id="edge8" class="edge"><title>Node5&#45;&gt;Node4</title>
<path fill="none" stroke="midnightblue" d="M262,-164.191C262,-155.168 262,-144.994 262,-137.571"/>
<polygon fill="midnightblue" stroke="midnightblue" points="258.5,-164.362 262,-174.362 265.5,-164.362 258.5,-164.362"/>
</g>
</g>
</svg>
