<?xml version="1.0" encoding="UTF-8" standalone="no"?>
<!DOCTYPE svg PUBLIC "-//W3C//DTD SVG 1.1//EN"
 "http://www.w3.org/Graphics/SVG/1.1/DTD/svg11.dtd">
<!-- Generated by graphviz version 2.26.3 (20100126.1600)
 -->
<!-- Title: G Pages: 1 -->
<!--zoomable 70 -->
<svg id="main" version="1.1" xmlns="http://www.w3.org/2000/svg" xmlns:xlink="http://www.w3.org/1999/xlink" xml:space="preserve" onload="init(evt)">
        <defs>
                <circle id="rim" cx="0" cy="0" r="7"/>
                <circle id="rim2" cx="0" cy="0" r="3.5"/>
                <g id="zoomPlus">
                        <use xlink:href="#rim" fill="#404040">
                                <set attributeName="fill" to="#808080" begin="zoomplus.mouseover" end="zoomplus.mouseout"/>
                        </use>
                        <path d="M-4,0h8M0,-4v8" fill="none" stroke="white" stroke-width="1.5" pointer-events="none"/>
                </g>
                <g id="zoomMin">
                        <use xlink:href="#rim" fill="#404040">
                                <set attributeName="fill" to="#808080" begin="zoomminus.mouseover" end="zoomminus.mouseout"/>
                        </use>
                        <path d="M-4,0h8" fill="none" stroke="white" stroke-width="1.5" pointer-events="none"/>
                </g>
                <g id="dirArrow">
                        <path fill="none" stroke="white" stroke-width="1.5" d="M0,-3.0v7 M-2.5,-0.5L0,-3.0L2.5,-0.5"/>
                </g>
               <g id="resetDef">
                       <use xlink:href="#rim2" fill="#404040">
                               <set attributeName="fill" to="#808080" begin="reset.mouseover" end="reset.mouseout"/>
                       </use>
               </g>
        </defs>

<script type="text/javascript">
var viewWidth = 1500;
var viewHeight = 70;
var sectionId = 'dynsection-13';
</script>
<script xlink:href="../../svgpan.js"/>
<svg id="graph" class="graph">
<g id="viewport">
<title>G</title>
<polygon fill="white" stroke="white" points="-4,5 -4,-66 1497,-66 1497,5 -4,5"/>
<!-- Node1 -->
<g id="node1" class="node"><title>Node1</title>
<polygon fill="#bfbfbf" stroke="black" points="0.5,-20.5 0.5,-41.5 279.5,-41.5 279.5,-20.5 0.5,-20.5"/>
<text text-anchor="middle" x="140" y="-28.5" font-family="Helvetica,sans-Serif" font-size="10.00">mozilla::a11y::HyperTextAccessible::GetChildIndexAtOffset</text>
</g>
<!-- Node2 -->
<g id="node3" class="node"><title>Node2</title>
<a xlink:href="../../d5/d21/classmozilla_1_1a11y_1_1_hyper_text_accessible.html#a343203bdb415433bf0f99057e637644c" target="_top" xlink:title="mozilla::a11y::HyperTextAccessible::CharAt">
<polygon fill="white" stroke="black" points="338.5,-40.5 338.5,-61.5 549.5,-61.5 549.5,-40.5 338.5,-40.5"/>
<text text-anchor="middle" x="444" y="-48.5" font-family="Helvetica,sans-Serif" font-size="10.00">mozilla::a11y::HyperTextAccessible::CharAt</text>
</a>
</g>
<!-- Node1&#45;&gt;Node2 -->
<g id="edge2" class="edge"><title>Node1&#45;&gt;Node2</title>
<path fill="none" stroke="midnightblue" d="M289.703,-40.8489C306.036,-41.9234 322.406,-43.0004 338.056,-44.03"/>
<polygon fill="midnightblue" stroke="midnightblue" points="289.752,-37.3446 279.544,-40.1805 289.292,-44.3295 289.752,-37.3446"/>
</g>
<!-- Node6 -->
<g id="node11" class="node"><title>Node6</title>
<a xlink:href="../../d5/d21/classmozilla_1_1a11y_1_1_hyper_text_accessible.html#af23729fc8d3a6fdc4d4ad56639d5a9e6" target="_top" xlink:title="mozilla::a11y::HyperTextAccessible::GetChildAtOffset">
<polygon fill="white" stroke="black" points="316.5,-0.5 316.5,-21.5 571.5,-21.5 571.5,-0.5 316.5,-0.5"/>
<text text-anchor="middle" x="444" y="-8.5" font-family="Helvetica,sans-Serif" font-size="10.00">mozilla::a11y::HyperTextAccessible::GetChildAtOffset</text>
</a>
</g>
<!-- Node1&#45;&gt;Node6 -->
<g id="edge10" class="edge"><title>Node1&#45;&gt;Node6</title>
<path fill="none" stroke="midnightblue" d="M289.548,-21.1613C298.42,-20.5777 307.302,-19.9933 316.075,-19.4161"/>
<polygon fill="midnightblue" stroke="midnightblue" points="289.292,-17.6705 279.544,-21.8195 289.752,-24.6554 289.292,-17.6705"/>
</g>
<!-- Node3 -->
<g id="node5" class="node"><title>Node3</title>
<a xlink:href="../../d5/d21/classmozilla_1_1a11y_1_1_hyper_text_accessible.html#a0cb965b82439486e1d98b86a262ba218" target="_top" xlink:title="mozilla::a11y::HyperTextAccessible::IsCharAt">
<polygon fill="white" stroke="black" points="636.5,-40.5 636.5,-61.5 855.5,-61.5 855.5,-40.5 636.5,-40.5"/>
<text text-anchor="middle" x="746" y="-48.5" font-family="Helvetica,sans-Serif" font-size="10.00">mozilla::a11y::HyperTextAccessible::IsCharAt</text>
</a>
</g>
<!-- Node2&#45;&gt;Node3 -->
<g id="edge4" class="edge"><title>Node2&#45;&gt;Node3</title>
<path fill="none" stroke="midnightblue" d="M559.914,-51C585.015,-51 611.485,-51 636.337,-51"/>
<polygon fill="midnightblue" stroke="midnightblue" points="559.625,-47.5001 549.625,-51 559.625,-54.5001 559.625,-47.5001"/>
</g>
<!-- Node4 -->
<g id="node7" class="node"><title>Node4</title>
<a xlink:href="../../d5/d21/classmozilla_1_1a11y_1_1_hyper_text_accessible.html#aa0fcd2ea00d6019b8b259aa63ee76f3b" target="_top" xlink:title="mozilla::a11y::HyperTextAccessible::IsLineEndCharAt">
<polygon fill="white" stroke="black" points="920,-40.5 920,-61.5 1174,-61.5 1174,-40.5 920,-40.5"/>
<text text-anchor="middle" x="1047" y="-48.5" font-family="Helvetica,sans-Serif" font-size="10.00">mozilla::a11y::HyperTextAccessible::IsLineEndCharAt</text>
</a>
</g>
<!-- Node3&#45;&gt;Node4 -->
<g id="edge6" class="edge"><title>Node3&#45;&gt;Node4</title>
<path fill="none" stroke="midnightblue" d="M865.904,-51C883.672,-51 902.033,-51 919.941,-51"/>
<polygon fill="midnightblue" stroke="midnightblue" points="865.519,-47.5001 855.519,-51 865.519,-54.5001 865.519,-47.5001"/>
</g>
<!-- Node5 -->
<g id="node9" class="node"><title>Node5</title>
<a xlink:href="../../d5/d21/classmozilla_1_1a11y_1_1_hyper_text_accessible.html#a32a73de4a10a2027a6d56ad9cd1c8da2" target="_top" xlink:title="mozilla::a11y::HyperTextAccessible::IsEmptyLastLineOffset">
<polygon fill="white" stroke="black" points="1210.5,-40.5 1210.5,-61.5 1491.5,-61.5 1491.5,-40.5 1210.5,-40.5"/>
<text text-anchor="middle" x="1351" y="-48.5" font-family="Helvetica,sans-Serif" font-size="10.00">mozilla::a11y::HyperTextAccessible::IsEmptyLastLineOffset</text>
</a>
</g>
<!-- Node4&#45;&gt;Node5 -->
<g id="edge8" class="edge"><title>Node4&#45;&gt;Node5</title>
<path fill="none" stroke="midnightblue" d="M1184.23,-51C1192.83,-51 1201.5,-51 1210.12,-51"/>
<polygon fill="midnightblue" stroke="midnightblue" points="1184.16,-47.5001 1174.16,-51 1184.16,-54.5001 1184.16,-47.5001"/>
</g>
<!-- Node7 -->
<g id="node13" class="node"><title>Node7</title>
<a xlink:href="../../d5/d21/classmozilla_1_1a11y_1_1_hyper_text_accessible.html#ab25e12f73159c59ef38418107cd9dbfb" target="_top" xlink:title="mozilla::a11y::HyperTextAccessible::GetLinkIndexAtOffset">
<polygon fill="white" stroke="black" points="608.5,-0.5 608.5,-21.5 883.5,-21.5 883.5,-0.5 608.5,-0.5"/>
<text text-anchor="middle" x="746" y="-8.5" font-family="Helvetica,sans-Serif" font-size="10.00">mozilla::a11y::HyperTextAccessible::GetLinkIndexAtOffset</text>
</a>
</g>
<!-- Node6&#45;&gt;Node7 -->
<g id="edge12" class="edge"><title>Node6&#45;&gt;Node7</title>
<path fill="none" stroke="midnightblue" d="M581.866,-11C590.608,-11 599.41,-11 608.152,-11"/>
<polygon fill="midnightblue" stroke="midnightblue" points="581.637,-7.5001 571.637,-11 581.637,-14.5001 581.637,-7.5001"/>
</g>
</g>
</svg>
        <g id="navigator" transform="translate(0 0)" fill="#404254">
                <rect fill="#f2f5e9" fill-opacity="0.5" stroke="#606060" stroke-width=".5" x="0" y="0" width="60" height="60"/>
                <use id="zoomplus" xlink:href="#zoomPlus" x="17" y="9" onmousedown="handleZoom(evt,'in')"/>
                <use id="zoomminus" xlink:href="#zoomMin" x="42" y="9" onmousedown="handleZoom(evt,'out')"/>
                <use id="reset" xlink:href="#resetDef" x="30" y="36" onmousedown="handleReset()"/>
                <g id="arrowUp" xlink:href="#dirArrow" transform="translate(30 24)" onmousedown="handlePan(0,-1)">
                  <use xlink:href="#rim" fill="#404040">
                        <set attributeName="fill" to="#808080" begin="arrowUp.mouseover" end="arrowUp.mouseout"/>
                  </use>
                  <path fill="none" stroke="white" stroke-width="1.5" d="M0,-3.0v7 M-2.5,-0.5L0,-3.0L2.5,-0.5"/>
                </g>
                <g id="arrowRight" xlink:href="#dirArrow" transform="rotate(90) translate(36 -43)" onmousedown="handlePan(1,0)">
                  <use xlink:href="#rim" fill="#404040">
                        <set attributeName="fill" to="#808080" begin="arrowRight.mouseover" end="arrowRight.mouseout"/>
                  </use>
                  <path fill="none" stroke="white" stroke-width="1.5" d="M0,-3.0v7 M-2.5,-0.5L0,-3.0L2.5,-0.5"/>
                </g>
                <g id="arrowDown" xlink:href="#dirArrow" transform="rotate(180) translate(-30 -48)" onmousedown="handlePan(0,1)">
                  <use xlink:href="#rim" fill="#404040">
                        <set attributeName="fill" to="#808080" begin="arrowDown.mouseover" end="arrowDown.mouseout"/>
                  </use>
                  <path fill="none" stroke="white" stroke-width="1.5" d="M0,-3.0v7 M-2.5,-0.5L0,-3.0L2.5,-0.5"/>
                </g>
                <g id="arrowLeft" xlink:href="#dirArrow" transform="rotate(270) translate(-36 17)" onmousedown="handlePan(-1,0)">
                  <use xlink:href="#rim" fill="#404040">
                        <set attributeName="fill" to="#808080" begin="arrowLeft.mouseover" end="arrowLeft.mouseout"/>
                  </use>
                  <path fill="none" stroke="white" stroke-width="1.5" d="M0,-3.0v7 M-2.5,-0.5L0,-3.0L2.5,-0.5"/>
                </g>
        </g>
</svg>
