<?xml version="1.0" encoding="UTF-8" standalone="no"?>
<!DOCTYPE svg PUBLIC "-//W3C//DTD SVG 1.1//EN"
 "http://www.w3.org/Graphics/SVG/1.1/DTD/svg11.dtd">
<!-- Generated by graphviz version 2.26.3 (20100126.1600)
 -->
<!-- Title: G Pages: 1 -->
<!--zoomable 90 -->
<svg id="main" version="1.1" xmlns="http://www.w3.org/2000/svg" xmlns:xlink="http://www.w3.org/1999/xlink" xml:space="preserve" onload="init(evt)">
        <defs>
                <circle id="rim" cx="0" cy="0" r="7"/>
                <circle id="rim2" cx="0" cy="0" r="3.5"/>
                <g id="zoomPlus">
                        <use xlink:href="#rim" fill="#404040">
                                <set attributeName="fill" to="#808080" begin="zoomplus.mouseover" end="zoomplus.mouseout"/>
                        </use>
                        <path d="M-4,0h8M0,-4v8" fill="none" stroke="white" stroke-width="1.5" pointer-events="none"/>
                </g>
                <g id="zoomMin">
                        <use xlink:href="#rim" fill="#404040">
                                <set attributeName="fill" to="#808080" begin="zoomminus.mouseover" end="zoomminus.mouseout"/>
                        </use>
                        <path d="M-4,0h8" fill="none" stroke="white" stroke-width="1.5" pointer-events="none"/>
                </g>
                <g id="dirArrow">
                        <path fill="none" stroke="white" stroke-width="1.5" d="M0,-3.0v7 M-2.5,-0.5L0,-3.0L2.5,-0.5"/>
                </g>
               <g id="resetDef">
                       <use xlink:href="#rim2" fill="#404040">
                               <set attributeName="fill" to="#808080" begin="reset.mouseover" end="reset.mouseout"/>
                       </use>
               </g>
        </defs>

<script type="text/javascript">
var viewWidth = 1066;
var viewHeight = 90;
var sectionId = 'dynsection-7';
</script>
<script xlink:href="../../svgpan.js"/>
<svg id="graph" class="graph">
<g id="viewport">
<title>G</title>
<polygon fill="white" stroke="white" points="-4,5 -4,-86 1063,-86 1063,5 -4,5"/>
<!-- Node1 -->
<g id="node1" class="node"><title>Node1</title>
<polygon fill="#bfbfbf" stroke="black" points="0,-20.5 0,-41.5 268,-41.5 268,-20.5 0,-20.5"/>
<text text-anchor="middle" x="134" y="-28.5" font-family="Helvetica,sans-Serif" font-size="10.00">mozilla::a11y::HyperTextAccessible::ConvertMagicOffset</text>
</g>
<!-- Node2 -->
<g id="node3" class="node"><title>Node2</title>
<a xlink:href="../../d5/d21/classmozilla_1_1a11y_1_1_hyper_text_accessible.html#a6a506b8e431f0976e51e2858221b6d13" target="_top" xlink:title="mozilla::a11y::HyperTextAccessible::CharacterCount">
<polygon fill="white" stroke="black" points="304.5,-40.5 304.5,-61.5 553.5,-61.5 553.5,-40.5 304.5,-40.5"/>
<text text-anchor="middle" x="429" y="-48.5" font-family="Helvetica,sans-Serif" font-size="10.00">mozilla::a11y::HyperTextAccessible::CharacterCount</text>
</a>
</g>
<!-- Node1&#45;&gt;Node2 -->
<g id="edge2" class="edge"><title>Node1&#45;&gt;Node2</title>
<path fill="none" stroke="midnightblue" d="M268.12,-40.0929C276.763,-40.6788 285.467,-41.2689 294.113,-41.8551"/>
<polygon fill="midnightblue" stroke="midnightblue" points="294.014,-45.3564 304.228,-42.5409 294.488,-38.3724 294.014,-45.3564"/>
</g>
<!-- Node6 -->
<g id="node11" class="node"><title>Node6</title>
<a xlink:href="../../d4/d2d/interfacens_i_accessible_text.html#a367a8efe04cdad52aba19eba2202016a" target="_top" xlink:title="nsIAccessibleText::GetCaretOffset">
<polygon fill="white" stroke="black" points="344,-0.5 344,-21.5 514,-21.5 514,-0.5 344,-0.5"/>
<text text-anchor="middle" x="429" y="-8.5" font-family="Helvetica,sans-Serif" font-size="10.00">nsIAccessibleText::GetCaretOffset</text>
</a>
</g>
<!-- Node1&#45;&gt;Node6 -->
<g id="edge10" class="edge"><title>Node1&#45;&gt;Node6</title>
<path fill="none" stroke="midnightblue" d="M268.12,-21.9071C290.226,-20.4084 312.735,-18.8824 333.641,-17.465"/>
<polygon fill="midnightblue" stroke="midnightblue" points="334.025,-20.9471 343.766,-16.7786 333.552,-13.9631 334.025,-20.9471"/>
</g>
<!-- Node3 -->
<g id="node5" class="node"><title>Node3</title>
<a xlink:href="../../db/d0f/classmozilla_1_1a11y_1_1_accessible.html#a7924e749963a7b207dbe947a9657776a" target="_top" xlink:title="mozilla::a11y::Accessible::ChildCount">
<polygon fill="white" stroke="black" points="621.5,-60.5 621.5,-81.5 804.5,-81.5 804.5,-60.5 621.5,-60.5"/>
<text text-anchor="middle" x="713" y="-68.5" font-family="Helvetica,sans-Serif" font-size="10.00">mozilla::a11y::Accessible::ChildCount</text>
</a>
</g>
<!-- Node2&#45;&gt;Node3 -->
<g id="edge4" class="edge"><title>Node2&#45;&gt;Node3</title>
<path fill="none" stroke="midnightblue" d="M553.567,-59.7723C572.895,-61.1335 592.662,-62.5255 611.404,-63.8453"/>
<polygon fill="midnightblue" stroke="midnightblue" points="611.18,-67.3382 621.401,-64.5494 611.672,-60.3555 611.18,-67.3382"/>
</g>
<!-- Node4 -->
<g id="node7" class="node"><title>Node4</title>
<a xlink:href="../../d5/d21/classmozilla_1_1a11y_1_1_hyper_text_accessible.html#aa53e6d0b93187be5dffef47b87563d44" target="_top" xlink:title="mozilla::a11y::HyperTextAccessible::GetChildOffset">
<polygon fill="white" stroke="black" points="590.5,-20.5 590.5,-41.5 835.5,-41.5 835.5,-20.5 590.5,-20.5"/>
<text text-anchor="middle" x="713" y="-28.5" font-family="Helvetica,sans-Serif" font-size="10.00">mozilla::a11y::HyperTextAccessible::GetChildOffset</text>
</a>
</g>
<!-- Node2&#45;&gt;Node4 -->
<g id="edge6" class="edge"><title>Node2&#45;&gt;Node4</title>
<path fill="none" stroke="midnightblue" d="M553.567,-42.2277C562.446,-41.6024 571.418,-40.9706 580.34,-40.3423"/>
<polygon fill="midnightblue" stroke="midnightblue" points="580.656,-43.8288 590.385,-39.6349 580.164,-36.8461 580.656,-43.8288"/>
</g>
<!-- Node5 -->
<g id="node9" class="node"><title>Node5</title>
<a xlink:href="../../db/d0f/classmozilla_1_1a11y_1_1_accessible.html#a4dc5f9b0b4c0988cdb9f2b6b8b5c505f" target="_top" xlink:title="mozilla::a11y::Accessible::GetIndexOf">
<polygon fill="white" stroke="black" points="872.5,-20.5 872.5,-41.5 1057.5,-41.5 1057.5,-20.5 872.5,-20.5"/>
<text text-anchor="middle" x="965" y="-28.5" font-family="Helvetica,sans-Serif" font-size="10.00">mozilla::a11y::Accessible::GetIndexOf</text>
</a>
</g>
<!-- Node4&#45;&gt;Node5 -->
<g id="edge8" class="edge"><title>Node4&#45;&gt;Node5</title>
<path fill="none" stroke="midnightblue" d="M835.678,-31C844.495,-31 853.333,-31 862.021,-31"/>
<polygon fill="midnightblue" stroke="midnightblue" points="862.139,-34.5001 872.139,-31 862.139,-27.5001 862.139,-34.5001"/>
</g>
</g>
</svg>
        <g id="navigator" transform="translate(0 0)" fill="#404254">
                <rect fill="#f2f5e9" fill-opacity="0.5" stroke="#606060" stroke-width=".5" x="0" y="0" width="60" height="60"/>
                <use id="zoomplus" xlink:href="#zoomPlus" x="17" y="9" onmousedown="handleZoom(evt,'in')"/>
                <use id="zoomminus" xlink:href="#zoomMin" x="42" y="9" onmousedown="handleZoom(evt,'out')"/>
                <use id="reset" xlink:href="#resetDef" x="30" y="36" onmousedown="handleReset()"/>
                <g id="arrowUp" xlink:href="#dirArrow" transform="translate(30 24)" onmousedown="handlePan(0,-1)">
                  <use xlink:href="#rim" fill="#404040">
                        <set attributeName="fill" to="#808080" begin="arrowUp.mouseover" end="arrowUp.mouseout"/>
                  </use>
                  <path fill="none" stroke="white" stroke-width="1.5" d="M0,-3.0v7 M-2.5,-0.5L0,-3.0L2.5,-0.5"/>
                </g>
                <g id="arrowRight" xlink:href="#dirArrow" transform="rotate(90) translate(36 -43)" onmousedown="handlePan(1,0)">
                  <use xlink:href="#rim" fill="#404040">
                        <set attributeName="fill" to="#808080" begin="arrowRight.mouseover" end="arrowRight.mouseout"/>
                  </use>
                  <path fill="none" stroke="white" stroke-width="1.5" d="M0,-3.0v7 M-2.5,-0.5L0,-3.0L2.5,-0.5"/>
                </g>
                <g id="arrowDown" xlink:href="#dirArrow" transform="rotate(180) translate(-30 -48)" onmousedown="handlePan(0,1)">
                  <use xlink:href="#rim" fill="#404040">
                        <set attributeName="fill" to="#808080" begin="arrowDown.mouseover" end="arrowDown.mouseout"/>
                  </use>
                  <path fill="none" stroke="white" stroke-width="1.5" d="M0,-3.0v7 M-2.5,-0.5L0,-3.0L2.5,-0.5"/>
                </g>
                <g id="arrowLeft" xlink:href="#dirArrow" transform="rotate(270) translate(-36 17)" onmousedown="handlePan(-1,0)">
                  <use xlink:href="#rim" fill="#404040">
                        <set attributeName="fill" to="#808080" begin="arrowLeft.mouseover" end="arrowLeft.mouseout"/>
                  </use>
                  <path fill="none" stroke="white" stroke-width="1.5" d="M0,-3.0v7 M-2.5,-0.5L0,-3.0L2.5,-0.5"/>
                </g>
        </g>
</svg>
