<?xml version="1.0" encoding="UTF-8" standalone="no"?>
<!DOCTYPE svg PUBLIC "-//W3C//DTD SVG 1.1//EN"
 "http://www.w3.org/Graphics/SVG/1.1/DTD/svg11.dtd">
<!-- Generated by graphviz version 2.26.3 (20100126.1600)
 -->
<!-- Title: G Pages: 1 -->
<!--zoomable 761 -->
<svg id="main" version="1.1" xmlns="http://www.w3.org/2000/svg" xmlns:xlink="http://www.w3.org/1999/xlink" xml:space="preserve" onload="init(evt)">
        <defs>
                <circle id="rim" cx="0" cy="0" r="7"/>
                <circle id="rim2" cx="0" cy="0" r="3.5"/>
                <g id="zoomPlus">
                        <use xlink:href="#rim" fill="#404040">
                                <set attributeName="fill" to="#808080" begin="zoomplus.mouseover" end="zoomplus.mouseout"/>
                        </use>
                        <path d="M-4,0h8M0,-4v8" fill="none" stroke="white" stroke-width="1.5" pointer-events="none"/>
                </g>
                <g id="zoomMin">
                        <use xlink:href="#rim" fill="#404040">
                                <set attributeName="fill" to="#808080" begin="zoomminus.mouseover" end="zoomminus.mouseout"/>
                        </use>
                        <path d="M-4,0h8" fill="none" stroke="white" stroke-width="1.5" pointer-events="none"/>
                </g>
                <g id="dirArrow">
                        <path fill="none" stroke="white" stroke-width="1.5" d="M0,-3.0v7 M-2.5,-0.5L0,-3.0L2.5,-0.5"/>
                </g>
               <g id="resetDef">
                       <use xlink:href="#rim2" fill="#404040">
                               <set attributeName="fill" to="#808080" begin="reset.mouseover" end="reset.mouseout"/>
                       </use>
               </g>
        </defs>

<script type="text/javascript">
var viewWidth = 1572;
var viewHeight = 761;
var sectionId = 'dynsection-9';
</script>
<script xlink:href="../../svgpan.js"/>
<svg id="graph" class="graph">
<g id="viewport">
<title>G</title>
<polygon fill="white" stroke="white" points="-4,5 -4,-757 1569,-757 1569,5 -4,5"/>
<!-- Node1 -->
<g id="node1" class="node"><title>Node1</title>
<polygon fill="#bfbfbf" stroke="black" points="0.5,-222.5 0.5,-243.5 29.5,-243.5 29.5,-222.5 0.5,-222.5"/>
<text text-anchor="middle" x="15" y="-230.5" font-family="Helvetica,sans-Serif" font-size="10.00">init</text>
</g>
<!-- Node2 -->
<g id="node3" class="node"><title>Node2</title>
<a xlink:href="../../d0/da2/gallery_8js.html#a7e9da90af1c46280e00745b86da7ff0f" target="_top" xlink:title="cropAndEndPick">
<polygon fill="white" stroke="black" points="74.5,-731.5 74.5,-752.5 163.5,-752.5 163.5,-731.5 74.5,-731.5"/>
<text text-anchor="middle" x="119" y="-739.5" font-family="Helvetica,sans-Serif" font-size="10.00">cropAndEndPick</text>
</a>
</g>
<!-- Node1&#45;&gt;Node2 -->
<g id="edge2" class="edge"><title>Node1&#45;&gt;Node2</title>
<path fill="none" stroke="midnightblue" d="M15.5125,-243.911C18.794,-312.004 37.625,-677.044 66,-717 68.3839,-720.357 71.3385,-723.277 74.6239,-725.815"/>
<polygon fill="midnightblue" stroke="midnightblue" points="73.0209,-728.944 83.335,-731.366 76.7829,-723.04 73.0209,-728.944"/>
</g>
<!-- Node3 -->
<g id="node5" class="node"><title>Node3</title>
<a xlink:href="../../dd/d85/video_8js.html#aebc1dbd30434352ff024a083c75b5b4f" target="_top" xlink:title="deleteSelectedItems">
<polygon fill="white" stroke="black" points="66,-282.5 66,-303.5 172,-303.5 172,-282.5 66,-282.5"/>
<text text-anchor="middle" x="119" y="-290.5" font-family="Helvetica,sans-Serif" font-size="10.00">deleteSelectedItems</text>
</a>
</g>
<!-- Node1&#45;&gt;Node3 -->
<g id="edge4" class="edge"><title>Node1&#45;&gt;Node3</title>
<path fill="none" stroke="midnightblue" d="M26.4263,-243.634C36.3117,-252.407 51.2935,-264.716 66,-273 69.4677,-274.953 73.1635,-276.789 76.9287,-278.495"/>
<polygon fill="midnightblue" stroke="midnightblue" points="75.7659,-281.803 86.3402,-282.463 78.4855,-275.353 75.7659,-281.803"/>
</g>
<!-- Node6 -->
<g id="node11" class="node"><title>Node6</title>
<a xlink:href="../../d0/da2/gallery_8js.html#aa3ad0f72d51416a18a4336efa0b2b3cf" target="_top" xlink:title="initDB">
<polygon fill="white" stroke="black" points="97,-242.5 97,-263.5 141,-263.5 141,-242.5 97,-242.5"/>
<text text-anchor="middle" x="119" y="-250.5" font-family="Helvetica,sans-Serif" font-size="10.00">initDB</text>
</a>
</g>
<!-- Node1&#45;&gt;Node6 -->
<g id="edge10" class="edge"><title>Node1&#45;&gt;Node6</title>
<path fill="none" stroke="midnightblue" d="M29.9007,-235.866C44.6863,-238.709 67.822,-243.158 86.8124,-246.81"/>
<polygon fill="midnightblue" stroke="midnightblue" points="86.3757,-250.29 96.8568,-248.742 87.6977,-243.416 86.3757,-250.29"/>
</g>
<!-- Node18 -->
<g id="node35" class="node"><title>Node18</title>
<a xlink:href="../../d0/da2/gallery_8js.html#a87c564c1396bcdba1067fd5afa2a9815" target="_top" xlink:title="setView">
<polygon fill="white" stroke="black" points="505,-143.5 505,-164.5 557,-164.5 557,-143.5 505,-143.5"/>
<text text-anchor="middle" x="531" y="-151.5" font-family="Helvetica,sans-Serif" font-size="10.00">setView</text>
</a>
</g>
<!-- Node1&#45;&gt;Node18 -->
<g id="edge120" class="edge"><title>Node1&#45;&gt;Node18</title>
<path fill="none" stroke="midnightblue" d="M16.8074,-222.336C21.1909,-199.603 34.4399,-145.929 66,-115 114.689,-67.2837 141.105,-70.135 208,-57 321.818,-34.6516 452.906,-104.98 506.377,-137.932"/>
<polygon fill="midnightblue" stroke="midnightblue" points="504.817,-141.085 515.148,-143.435 508.537,-135.156 504.817,-141.085"/>
</g>
<!-- Node27 -->
<g id="node61" class="node"><title>Node27</title>
<a xlink:href="../../db/d0b/_image_editor_8js.html#a949ea6f42ae029faa03eb19facfa08b0" target="_top" xlink:title="resizeHandler">
<polygon fill="white" stroke="black" points="492.5,-672.5 492.5,-693.5 569.5,-693.5 569.5,-672.5 492.5,-672.5"/>
<text text-anchor="middle" x="531" y="-680.5" font-family="Helvetica,sans-Serif" font-size="10.00">resizeHandler</text>
</a>
</g>
<!-- Node1&#45;&gt;Node27 -->
<g id="edge118" class="edge"><title>Node1&#45;&gt;Node27</title>
<path fill="none" stroke="midnightblue" d="M15.5796,-243.785C19.3392,-301.665 45.5634,-576.828 208,-684 294.416,-741.016 424.183,-715.274 489.827,-696.487"/>
<polygon fill="midnightblue" stroke="midnightblue" points="491.195,-699.732 499.795,-693.545 489.214,-693.019 491.195,-699.732"/>
</g>
<!-- Node47 -->
<g id="node105" class="node"><title>Node47</title>
<a xlink:href="../../dd/d85/video_8js.html#af2e261a1ef7f340a5c693d2b6a1b92ed" target="_top" xlink:title="launchCameraApp">
<polygon fill="white" stroke="black" points="70.5,-164.5 70.5,-185.5 167.5,-185.5 167.5,-164.5 70.5,-164.5"/>
<text text-anchor="middle" x="119" y="-172.5" font-family="Helvetica,sans-Serif" font-size="10.00">launchCameraApp</text>
</a>
</g>
<!-- Node1&#45;&gt;Node47 -->
<g id="edge116" class="edge"><title>Node1&#45;&gt;Node47</title>
<path fill="none" stroke="midnightblue" d="M29.8498,-222.64C39.8551,-215.849 53.4653,-206.971 66,-200 72.2128,-196.545 78.9826,-193.114 85.5425,-189.95"/>
<polygon fill="midnightblue" stroke="midnightblue" points="87.3588,-192.963 94.9139,-185.536 84.3758,-186.631 87.3588,-192.963"/>
</g>
<!-- Node48 -->
<g id="node109" class="node"><title>Node48</title>
<a xlink:href="../../dd/d85/video_8js.html#aa4d606e25464d76378eb75550ec7663c" target="_top" xlink:title="shareSelectedItems">
<polygon fill="white" stroke="black" points="67,-124.5 67,-145.5 171,-145.5 171,-124.5 67,-124.5"/>
<text text-anchor="middle" x="119" y="-132.5" font-family="Helvetica,sans-Serif" font-size="10.00">shareSelectedItems</text>
</a>
</g>
<!-- Node1&#45;&gt;Node48 -->
<g id="edge122" class="edge"><title>Node1&#45;&gt;Node48</title>
<path fill="none" stroke="midnightblue" d="M19.3236,-222.383C26.5933,-205.776 42.7821,-173.633 66,-155 68.047,-153.357 70.2432,-151.84 72.5352,-150.439"/>
<polygon fill="midnightblue" stroke="midnightblue" points="74.5166,-153.351 81.7378,-145.599 71.258,-147.156 74.5166,-153.351"/>
</g>
<!-- Node50 -->
<g id="node113" class="node"><title>Node50</title>
<a xlink:href="../../d0/da2/gallery_8js.html#af1ea14645dcd3a1078e952cbde544991" target="_top" xlink:title="startPick">
<polygon fill="white" stroke="black" points="220,-106.5 220,-127.5 276,-127.5 276,-106.5 220,-106.5"/>
<text text-anchor="middle" x="248" y="-114.5" font-family="Helvetica,sans-Serif" font-size="10.00">startPick</text>
</a>
</g>
<!-- Node1&#45;&gt;Node50 -->
<g id="edge126" class="edge"><title>Node1&#45;&gt;Node50</title>
<path fill="none" stroke="midnightblue" d="M29.9479,-233.016C59.7927,-232.326 127.696,-227.058 172,-195 196.58,-177.214 185.584,-157.446 208,-137 209.506,-135.627 211.123,-134.324 212.814,-133.094"/>
<polygon fill="midnightblue" stroke="midnightblue" points="215.078,-135.805 221.696,-127.531 211.363,-129.873 215.078,-135.805"/>
</g>
<!-- Node4 -->
<g id="node7" class="node"><title>Node4</title>
<a xlink:href="../../d0/da2/gallery_8js.html#a1d34740c9f45587facea86c15f99a2c6" target="_top" xlink:title="deleteFile">
<polygon fill="white" stroke="black" points="218.5,-653.5 218.5,-674.5 277.5,-674.5 277.5,-653.5 218.5,-653.5"/>
<text text-anchor="middle" x="248" y="-661.5" font-family="Helvetica,sans-Serif" font-size="10.00">deleteFile</text>
</a>
</g>
<!-- Node3&#45;&gt;Node4 -->
<g id="edge6" class="edge"><title>Node3&#45;&gt;Node4</title>
<path fill="none" stroke="midnightblue" d="M120.674,-303.811C128.933,-356.088 166.596,-582.449 208,-639 210.262,-642.089 213.031,-644.884 216.048,-647.388"/>
<polygon fill="midnightblue" stroke="midnightblue" points="214.251,-650.405 224.43,-653.344 218.306,-644.699 214.251,-650.405"/>
</g>
<!-- Node5 -->
<g id="node9" class="node"><title>Node5</title>
<a xlink:href="../../dd/d85/video_8js.html#a8504dd9a3990da74a9aa029b26e6fb1c" target="_top" xlink:title="clearSelection">
<polygon fill="white" stroke="black" points="644,-182.5 644,-203.5 722,-203.5 722,-182.5 644,-182.5"/>
<text text-anchor="middle" x="683" y="-190.5" font-family="Helvetica,sans-Serif" font-size="10.00">clearSelection</text>
</a>
</g>
<!-- Node3&#45;&gt;Node5 -->
<g id="edge8" class="edge"><title>Node3&#45;&gt;Node5</title>
<path fill="none" stroke="midnightblue" d="M166.095,-282.432C207.562,-273.293 269.64,-260.01 324,-250 434.244,-229.699 564.341,-210.127 633.663,-200.047"/>
<polygon fill="midnightblue" stroke="midnightblue" points="634.452,-203.469 643.847,-198.571 633.448,-196.542 634.452,-203.469"/>
</g>
<!-- Node7 -->
<g id="node13" class="node"><title>Node7</title>
<a xlink:href="../../de/db0/music_8js.html#a06b9f891a17c6f5559d8709267729496" target="_top" xlink:title="showOverlay">
<polygon fill="white" stroke="black" points="1490,-437.5 1490,-458.5 1564,-458.5 1564,-437.5 1490,-437.5"/>
<text text-anchor="middle" x="1527" y="-445.5" font-family="Helvetica,sans-Serif" font-size="10.00">showOverlay</text>
</a>
</g>
<!-- Node6&#45;&gt;Node7 -->
<g id="edge12" class="edge"><title>Node6&#45;&gt;Node7</title>
<path fill="none" stroke="midnightblue" d="M141.153,-256.04C152.055,-258.699 164.446,-263.678 172,-273 238.521,-355.095 153.456,-417.504 208,-508 256.106,-587.814 288.81,-625 382,-625 382,-625 382,-625 1282,-625 1308.24,-625 1435.06,-567.599 1454,-552 1482.78,-528.302 1505.37,-490.571 1517.41,-467.662"/>
<polygon fill="midnightblue" stroke="midnightblue" points="1520.62,-469.058 1522.04,-458.558 1514.39,-465.882 1520.62,-469.058"/>
</g>
<!-- Node8 -->
<g id="node15" class="node"><title>Node8</title>
<a xlink:href="../../d0/da2/gallery_8js.html#a99873e3fc1be38a0caf0999e2a5b6e65" target="_top" xlink:title="fileCreated">
<polygon fill="white" stroke="black" points="216,-299.5 216,-320.5 280,-320.5 280,-299.5 216,-299.5"/>
<text text-anchor="middle" x="248" y="-307.5" font-family="Helvetica,sans-Serif" font-size="10.00">fileCreated</text>
</a>
</g>
<!-- Node6&#45;&gt;Node8 -->
<g id="edge14" class="edge"><title>Node6&#45;&gt;Node8</title>
<path fill="none" stroke="midnightblue" d="M141.1,-260.822C150.679,-264.345 161.975,-268.679 172,-273 187.549,-279.702 204.519,-287.878 218.471,-294.838"/>
<polygon fill="midnightblue" stroke="midnightblue" points="217.088,-298.06 227.594,-299.43 220.235,-291.808 217.088,-298.06"/>
</g>
<!-- Node6&#45;&gt;Node18 -->
<g id="edge52" class="edge"><title>Node6&#45;&gt;Node18</title>
<path fill="none" stroke="midnightblue" d="M141.361,-243.619C159.171,-236.414 184.866,-226.61 208,-220 261.895,-204.6 422.4,-174.13 494.829,-160.665"/>
<polygon fill="midnightblue" stroke="midnightblue" points="495.659,-164.071 504.853,-158.805 494.382,-157.188 495.659,-164.071"/>
</g>
<!-- Node24 -->
<g id="node51" class="node"><title>Node24</title>
<a xlink:href="../../d0/da2/gallery_8js.html#a39586a47f4ee455f04350f3c8248e124" target="_top" xlink:title="fileDeleted">
<polygon fill="white" stroke="black" points="216.5,-146.5 216.5,-167.5 279.5,-167.5 279.5,-146.5 216.5,-146.5"/>
<text text-anchor="middle" x="248" y="-154.5" font-family="Helvetica,sans-Serif" font-size="10.00">fileDeleted</text>
</a>
</g>
<!-- Node6&#45;&gt;Node24 -->
<g id="edge54" class="edge"><title>Node6&#45;&gt;Node24</title>
<path fill="none" stroke="midnightblue" d="M141.202,-245.246C151.233,-241.086 162.857,-235.3 172,-228 192.288,-211.802 188.701,-199.364 208,-182 211.449,-178.897 215.331,-175.942 219.284,-173.223"/>
<polygon fill="midnightblue" stroke="midnightblue" points="221.393,-176.029 227.915,-167.68 217.61,-170.139 221.393,-176.029"/>
</g>
<!-- Node25 -->
<g id="node56" class="node"><title>Node25</title>
<a xlink:href="../../d0/da2/gallery_8js.html#a6d772599ba184f90212d966f0036bd7f" target="_top" xlink:title="initThumbnails">
<polygon fill="white" stroke="black" points="208,-477.5 208,-498.5 288,-498.5 288,-477.5 208,-477.5"/>
<text text-anchor="middle" x="248" y="-485.5" font-family="Helvetica,sans-Serif" font-size="10.00">initThumbnails</text>
</a>
</g>
<!-- Node6&#45;&gt;Node25 -->
<g id="edge62" class="edge"><title>Node6&#45;&gt;Node25</title>
<path fill="none" stroke="midnightblue" d="M141.255,-256.868C151.784,-259.728 163.812,-264.638 172,-273 200.009,-301.605 231.197,-419.202 243.059,-467.326"/>
<polygon fill="midnightblue" stroke="midnightblue" points="239.705,-468.343 245.469,-477.233 246.506,-466.689 239.705,-468.343"/>
</g>
<!-- Node8&#45;&gt;Node7 -->
<g id="edge50" class="edge"><title>Node8&#45;&gt;Node7</title>
<path fill="none" stroke="midnightblue" d="M280.219,-320.156C293.621,-323.94 309.424,-327.837 324,-330 559.806,-364.99 621.612,-350 860,-350 860,-350 860,-350 1282,-350 1368.85,-350 1461.44,-403.749 1503.63,-431.636"/>
<polygon fill="midnightblue" stroke="midnightblue" points="1501.83,-434.644 1512.08,-437.326 1505.74,-428.838 1501.83,-434.644"/>
</g>
<!-- Node9 -->
<g id="node17" class="node"><title>Node9</title>
<a xlink:href="../../d0/da2/gallery_8js.html#af0bf2f6ad5f7519cef00440ab733686b" target="_top" xlink:title="compareFilesByDate">
<polygon fill="white" stroke="black" points="328,-299.5 328,-320.5 436,-320.5 436,-299.5 328,-299.5"/>
<text text-anchor="middle" x="382" y="-307.5" font-family="Helvetica,sans-Serif" font-size="10.00">compareFilesByDate</text>
</a>
</g>
<!-- Node8&#45;&gt;Node9 -->
<g id="edge16" class="edge"><title>Node8&#45;&gt;Node9</title>
<path fill="none" stroke="midnightblue" d="M280.096,-310C291.399,-310 304.54,-310 317.553,-310"/>
<polygon fill="midnightblue" stroke="midnightblue" points="317.923,-313.5 327.923,-310 317.923,-306.5 317.923,-313.5"/>
</g>
<!-- Node10 -->
<g id="node19" class="node"><title>Node10</title>
<a xlink:href="../../d4/d76/camera_2js_2filmstrip_8js.html#a246682eea904b777ca4d4707f24232f2" target="_top" xlink:title="createThumbnail">
<polygon fill="white" stroke="black" points="337.5,-377.5 337.5,-398.5 426.5,-398.5 426.5,-377.5 337.5,-377.5"/>
<text text-anchor="middle" x="382" y="-385.5" font-family="Helvetica,sans-Serif" font-size="10.00">createThumbnail</text>
</a>
</g>
<!-- Node8&#45;&gt;Node10 -->
<g id="edge18" class="edge"><title>Node8&#45;&gt;Node10</title>
<path fill="none" stroke="midnightblue" d="M261.461,-320.643C276.242,-332.026 300.95,-350.168 324,-363 330.587,-366.667 337.819,-370.167 344.874,-373.326"/>
<polygon fill="midnightblue" stroke="midnightblue" points="343.741,-376.649 354.309,-377.405 346.519,-370.224 343.741,-376.649"/>
</g>
<!-- Node11 -->
<g id="node21" class="node"><title>Node11</title>
<a xlink:href="../../d8/df0/frames_8js.html#acca2cb5dc9247f573a21f61583c8d81d" target="_top" xlink:title="showFile">
<polygon fill="white" stroke="black" points="354,-259.5 354,-280.5 410,-280.5 410,-259.5 354,-259.5"/>
<text text-anchor="middle" x="382" y="-267.5" font-family="Helvetica,sans-Serif" font-size="10.00">showFile</text>
</a>
</g>
<!-- Node8&#45;&gt;Node11 -->
<g id="edge20" class="edge"><title>Node8&#45;&gt;Node11</title>
<path fill="none" stroke="midnightblue" d="M280.096,-300.419C299.305,-294.685 323.824,-287.366 343.997,-281.344"/>
<polygon fill="midnightblue" stroke="midnightblue" points="345.222,-284.631 353.803,-278.417 343.22,-277.924 345.222,-284.631"/>
</g>
<!-- Node12 -->
<g id="node23" class="node"><title>Node12</title>
<a xlink:href="../../d8/df0/frames_8js.html#aa95a0e33ee54ea6e80e6ca47df7ecf96" target="_top" xlink:title="resetFramesPosition">
<polygon fill="white" stroke="black" points="477.5,-259.5 477.5,-280.5 584.5,-280.5 584.5,-259.5 477.5,-259.5"/>
<text text-anchor="middle" x="531" y="-267.5" font-family="Helvetica,sans-Serif" font-size="10.00">resetFramesPosition</text>
</a>
</g>
<!-- Node11&#45;&gt;Node12 -->
<g id="edge22" class="edge"><title>Node11&#45;&gt;Node12</title>
<path fill="none" stroke="midnightblue" d="M410.026,-270C426.252,-270 447.375,-270 467.42,-270"/>
<polygon fill="midnightblue" stroke="midnightblue" points="467.459,-273.5 477.459,-270 467.459,-266.5 467.459,-273.5"/>
</g>
<!-- Node14 -->
<g id="node27" class="node"><title>Node14</title>
<a xlink:href="../../d8/df0/frames_8js.html#a9da97cccdb118a001a04c6062ff6c31f" target="_top" xlink:title="setupFrameContent">
<polygon fill="white" stroke="black" points="479.5,-299.5 479.5,-320.5 582.5,-320.5 582.5,-299.5 479.5,-299.5"/>
<text text-anchor="middle" x="531" y="-307.5" font-family="Helvetica,sans-Serif" font-size="10.00">setupFrameContent</text>
</a>
</g>
<!-- Node11&#45;&gt;Node14 -->
<g id="edge26" class="edge"><title>Node11&#45;&gt;Node14</title>
<path fill="none" stroke="midnightblue" d="M410.026,-277.524C430.237,-282.949 458.046,-290.415 481.905,-296.82"/>
<polygon fill="midnightblue" stroke="midnightblue" points="481.29,-300.279 491.855,-299.491 483.105,-293.518 481.29,-300.279"/>
</g>
<!-- Node11&#45;&gt;Node18 -->
<g id="edge34" class="edge"><title>Node11&#45;&gt;Node18</title>
<path fill="none" stroke="midnightblue" d="M395.75,-259.295C421.696,-239.096 478.059,-195.216 509.211,-170.963"/>
<polygon fill="midnightblue" stroke="midnightblue" points="511.542,-173.584 517.283,-164.679 507.242,-168.061 511.542,-173.584"/>
</g>
<!-- Node13 -->
<g id="node25" class="node"><title>Node13</title>
<a xlink:href="../../d8/df0/frames_8js.html#a1e990ee9315d596bcab04e06af23ceea" target="_top" xlink:title="setFramesPosition">
<polygon fill="white" stroke="black" points="634,-222.5 634,-243.5 732,-243.5 732,-222.5 634,-222.5"/>
<text text-anchor="middle" x="683" y="-230.5" font-family="Helvetica,sans-Serif" font-size="10.00">setFramesPosition</text>
</a>
</g>
<!-- Node12&#45;&gt;Node13 -->
<g id="edge24" class="edge"><title>Node12&#45;&gt;Node13</title>
<path fill="none" stroke="midnightblue" d="M574.151,-259.496C591.479,-255.278 611.63,-250.373 629.849,-245.938"/>
<polygon fill="midnightblue" stroke="midnightblue" points="630.853,-249.296 639.742,-243.53 629.197,-242.495 630.853,-249.296"/>
</g>
<!-- Node15 -->
<g id="node29" class="node"><title>Node15</title>
<a xlink:href="../../d0/da2/gallery_8js.html#a377c40257a942d42736eccd490acfec4" target="_top" xlink:title="getVideoFile">
<polygon fill="white" stroke="black" points="647.5,-262.5 647.5,-283.5 718.5,-283.5 718.5,-262.5 647.5,-262.5"/>
<text text-anchor="middle" x="683" y="-270.5" font-family="Helvetica,sans-Serif" font-size="10.00">getVideoFile</text>
</a>
</g>
<!-- Node14&#45;&gt;Node15 -->
<g id="edge28" class="edge"><title>Node14&#45;&gt;Node15</title>
<path fill="none" stroke="midnightblue" d="M574.151,-299.496C593.973,-294.671 617.487,-288.947 637.578,-284.057"/>
<polygon fill="midnightblue" stroke="midnightblue" points="638.546,-287.423 647.435,-281.657 636.891,-280.622 638.546,-287.423"/>
</g>
<!-- Node16 -->
<g id="node31" class="node"><title>Node16</title>
<a xlink:href="../../d6/d52/js_2browser_8js.html#a7321fd84345f4f9455f25996b932b8fd" target="_top" xlink:title="if">
<polygon fill="white" stroke="black" points="845.5,-221.5 845.5,-242.5 874.5,-242.5 874.5,-221.5 845.5,-221.5"/>
<text text-anchor="middle" x="860" y="-229.5" font-family="Helvetica,sans-Serif" font-size="10.00">if</text>
</a>
</g>
<!-- Node14&#45;&gt;Node16 -->
<g id="edge30" class="edge"><title>Node14&#45;&gt;Node16</title>
<path fill="none" stroke="midnightblue" d="M582.822,-311.631C626.61,-311.655 690.551,-308.479 744,-293 778.384,-283.043 814.317,-262.286 836.908,-247.764"/>
<polygon fill="midnightblue" stroke="midnightblue" points="839.007,-250.573 845.448,-242.161 835.167,-244.721 839.007,-250.573"/>
</g>
<!-- Node17 -->
<g id="node33" class="node"><title>Node17</title>
<a xlink:href="../../d6/d52/js_2browser_8js.html#a35ca1017bd581c0cd64ad0e3defc07d8" target="_top" xlink:title="actHandle">
<polygon fill="white" stroke="black" points="976.5,-221.5 976.5,-242.5 1037.5,-242.5 1037.5,-221.5 976.5,-221.5"/>
<text text-anchor="middle" x="1007" y="-229.5" font-family="Helvetica,sans-Serif" font-size="10.00">actHandle</text>
</a>
</g>
<!-- Node16&#45;&gt;Node17 -->
<g id="edge32" class="edge"><title>Node16&#45;&gt;Node17</title>
<path fill="none" stroke="midnightblue" d="M874.632,-232C895.745,-232 935.559,-232 966.029,-232"/>
<polygon fill="midnightblue" stroke="midnightblue" points="966.371,-235.5 976.371,-232 966.371,-228.5 966.371,-235.5"/>
</g>
<!-- Node18&#45;&gt;Node5 -->
<g id="edge48" class="edge"><title>Node18&#45;&gt;Node5</title>
<path fill="none" stroke="midnightblue" d="M557.13,-160.704C578.186,-166.107 608.387,-173.856 633.927,-180.409"/>
<polygon fill="midnightblue" stroke="midnightblue" points="633.264,-183.852 643.82,-182.947 635.004,-177.072 633.264,-183.852"/>
</g>
<!-- Node19 -->
<g id="node37" class="node"><title>Node19</title>
<a xlink:href="../../db/d80/download_8js.html#acc4e419f5bedc9e697af56e25c615638" target="_top" xlink:title="view">
<polygon fill="white" stroke="black" points="664.5,-102.5 664.5,-123.5 701.5,-123.5 701.5,-102.5 664.5,-102.5"/>
<text text-anchor="middle" x="683" y="-110.5" font-family="Helvetica,sans-Serif" font-size="10.00">view</text>
</a>
</g>
<!-- Node18&#45;&gt;Node19 -->
<g id="edge36" class="edge"><title>Node18&#45;&gt;Node19</title>
<path fill="none" stroke="midnightblue" d="M557.13,-146.952C584.225,-139.643 626.462,-128.25 654.428,-120.707"/>
<polygon fill="midnightblue" stroke="midnightblue" points="655.642,-124.005 664.386,-118.021 653.819,-117.246 655.642,-124.005"/>
</g>
<!-- Node23 -->
<g id="node46" class="node"><title>Node23</title>
<a xlink:href="../../d0/da2/gallery_8js.html#a28338bd953bdf52348c88293ad0c30d1" target="_top" xlink:title="scrollToShowThumbnail">
<polygon fill="white" stroke="black" points="622.5,-142.5 622.5,-163.5 743.5,-163.5 743.5,-142.5 622.5,-142.5"/>
<text text-anchor="middle" x="683" y="-150.5" font-family="Helvetica,sans-Serif" font-size="10.00">scrollToShowThumbnail</text>
</a>
</g>
<!-- Node18&#45;&gt;Node23 -->
<g id="edge46" class="edge"><title>Node18&#45;&gt;Node23</title>
<path fill="none" stroke="midnightblue" d="M557.13,-153.828C572.381,-153.728 592.43,-153.596 612.03,-153.467"/>
<polygon fill="midnightblue" stroke="midnightblue" points="612.235,-156.966 622.211,-153.4 612.189,-149.966 612.235,-156.966"/>
</g>
<!-- Node19&#45;&gt;Node16 -->
<g id="edge38" class="edge"><title>Node19&#45;&gt;Node16</title>
<path fill="none" stroke="midnightblue" d="M701.658,-117.101C714.153,-120.322 730.687,-125.524 744,-133 783.476,-155.167 821.972,-191.893 843.183,-213.837"/>
<polygon fill="midnightblue" stroke="midnightblue" points="840.758,-216.365 850.186,-221.198 845.829,-211.54 840.758,-216.365"/>
</g>
<!-- Node20 -->
<g id="node40" class="node"><title>Node20</title>
<a xlink:href="../../db/df4/geoloc_8js.html#a15b4f92b0ef49ac05f43437f3d85ae46" target="_top" xlink:title="success">
<polygon fill="white" stroke="black" points="833.5,-102.5 833.5,-123.5 886.5,-123.5 886.5,-102.5 833.5,-102.5"/>
<text text-anchor="middle" x="860" y="-110.5" font-family="Helvetica,sans-Serif" font-size="10.00">success</text>
</a>
</g>
<!-- Node19&#45;&gt;Node20 -->
<g id="edge40" class="edge"><title>Node19&#45;&gt;Node20</title>
<path fill="none" stroke="midnightblue" d="M701.608,-113C730.286,-113 785.847,-113 822.941,-113"/>
<polygon fill="midnightblue" stroke="midnightblue" points="823.342,-116.5 833.342,-113 823.342,-109.5 823.342,-116.5"/>
</g>
<!-- Node21 -->
<g id="node42" class="node"><title>Node21</title>
<a xlink:href="../../d1/d22/ical_8js.html#a6053319846c80bf9561a1958bb817380" target="_top" xlink:title="typeof">
<polygon fill="white" stroke="black" points="985,-122.5 985,-143.5 1029,-143.5 1029,-122.5 985,-122.5"/>
<text text-anchor="middle" x="1007" y="-130.5" font-family="Helvetica,sans-Serif" font-size="10.00">typeof</text>
</a>
</g>
<!-- Node20&#45;&gt;Node21 -->
<g id="edge42" class="edge"><title>Node20&#45;&gt;Node21</title>
<path fill="none" stroke="midnightblue" d="M886.621,-116.622C911.455,-120.001 948.543,-125.047 974.983,-128.644"/>
<polygon fill="midnightblue" stroke="midnightblue" points="974.515,-132.112 984.896,-129.993 975.459,-125.176 974.515,-132.112"/>
</g>
<!-- Node22 -->
<g id="node44" class="node"><title>Node22</title>
<a xlink:href="../../db/df4/geoloc_8js.html#af2466db6613b121fa92f40e15d832813" target="_top" xlink:title="keep">
<polygon fill="white" stroke="black" points="988,-82.5 988,-103.5 1026,-103.5 1026,-82.5 988,-82.5"/>
<text text-anchor="middle" x="1007" y="-90.5" font-family="Helvetica,sans-Serif" font-size="10.00">keep</text>
</a>
</g>
<!-- Node20&#45;&gt;Node22 -->
<g id="edge44" class="edge"><title>Node20&#45;&gt;Node22</title>
<path fill="none" stroke="midnightblue" d="M886.621,-109.378C912.217,-105.896 950.833,-100.642 977.388,-97.0288"/>
<polygon fill="midnightblue" stroke="midnightblue" points="978.175,-100.454 987.612,-95.6378 977.232,-93.518 978.175,-100.454"/>
</g>
<!-- Node24&#45;&gt;Node7 -->
<g id="edge60" class="edge"><title>Node24&#45;&gt;Node7</title>
<path fill="none" stroke="midnightblue" d="M269.69,-146.4C275.655,-143.419 282.104,-140.134 288,-137 397.48,-78.8144 407.018,-7.10543e-15 531,-0 531,-0 531,-0 1282,-0 1479.45,-0 1518.78,-339.142 1525.67,-427.275"/>
<polygon fill="midnightblue" stroke="midnightblue" points="1522.18,-427.646 1526.4,-437.368 1529.17,-427.141 1522.18,-427.646"/>
</g>
<!-- Node24&#45;&gt;Node11 -->
<g id="edge58" class="edge"><title>Node24&#45;&gt;Node11</title>
<path fill="none" stroke="midnightblue" d="M260.848,-167.835C284.12,-187.459 333.423,-229.036 361.43,-252.654"/>
<polygon fill="midnightblue" stroke="midnightblue" points="359.485,-255.592 369.386,-259.363 363.998,-250.241 359.485,-255.592"/>
</g>
<!-- Node24&#45;&gt;Node18 -->
<g id="edge56" class="edge"><title>Node24&#45;&gt;Node18</title>
<path fill="none" stroke="midnightblue" d="M279.64,-156.665C332.621,-156.103 438.959,-154.976 494.824,-154.383"/>
<polygon fill="midnightblue" stroke="midnightblue" points="495.006,-157.882 504.969,-154.276 494.932,-150.882 495.006,-157.882"/>
</g>
<!-- Node25&#45;&gt;Node7 -->
<g id="edge64" class="edge"><title>Node25&#45;&gt;Node7</title>
<path fill="none" stroke="midnightblue" d="M254.378,-498.61C265.795,-516.511 291.59,-552.293 324,-568 407.138,-608.292 438.613,-587 531,-587 531,-587 531,-587 1282,-587 1378.79,-587 1472.36,-503.915 1509.84,-466.216"/>
<polygon fill="midnightblue" stroke="midnightblue" points="1512.49,-468.511 1516.96,-458.907 1507.48,-463.624 1512.49,-468.511"/>
</g>
<!-- Node25&#45;&gt;Node10 -->
<g id="edge114" class="edge"><title>Node25&#45;&gt;Node10</title>
<path fill="none" stroke="midnightblue" d="M255.417,-477.376C267.776,-460.412 294.192,-427.171 324,-408 327.093,-406.01 330.408,-404.194 333.827,-402.539"/>
<polygon fill="midnightblue" stroke="midnightblue" points="335.268,-405.73 343.043,-398.533 332.477,-399.31 335.268,-405.73"/>
</g>
<!-- Node26 -->
<g id="node59" class="node"><title>Node26</title>
<a xlink:href="../../d7/d7e/build__stage_2email_2shared_2js_2visibility__monitor_8js.html#ab0efb05f081609be5307fea87d23e624" target="_top" xlink:title="monitorChildVisibility">
<polygon fill="white" stroke="black" points="328,-653.5 328,-674.5 436,-674.5 436,-653.5 328,-653.5"/>
<text text-anchor="middle" x="382" y="-661.5" font-family="Helvetica,sans-Serif" font-size="10.00">monitorChildVisibility</text>
</a>
</g>
<!-- Node25&#45;&gt;Node26 -->
<g id="edge66" class="edge"><title>Node25&#45;&gt;Node26</title>
<path fill="none" stroke="midnightblue" d="M254.407,-498.654C266.891,-519.144 295.733,-565.18 324,-601 336.541,-616.892 352.151,-633.703 364.017,-645.958"/>
<polygon fill="midnightblue" stroke="midnightblue" points="361.707,-648.602 371.203,-653.299 366.708,-643.705 361.707,-648.602"/>
</g>
<!-- Node28 -->
<g id="node63" class="node"><title>Node28</title>
<a xlink:href="../../d4/daf/video_2js_2view_8js.html#af9c6eaaef1f3af067f5ea1aff90ff861" target="_top" xlink:title="done">
<polygon fill="white" stroke="black" points="363,-537.5 363,-558.5 401,-558.5 401,-537.5 363,-537.5"/>
<text text-anchor="middle" x="382" y="-545.5" font-family="Helvetica,sans-Serif" font-size="10.00">done</text>
</a>
</g>
<!-- Node25&#45;&gt;Node28 -->
<g id="edge70" class="edge"><title>Node25&#45;&gt;Node28</title>
<path fill="none" stroke="midnightblue" d="M266.352,-498.673C281.51,-507.239 303.746,-519.239 324,-528 333.333,-532.037 343.771,-535.845 353.192,-539.032"/>
<polygon fill="midnightblue" stroke="midnightblue" points="352.323,-542.431 362.916,-542.23 354.509,-535.781 352.323,-542.431"/>
</g>
<!-- Node29 -->
<g id="node65" class="node"><title>Node29</title>
<a xlink:href="../../dd/d85/video_8js.html#a7e53b2a5efd2d199bb7a70417e3d9b75" target="_top" xlink:title="thumbnailClickHandler">
<polygon fill="white" stroke="black" points="324.5,-417.5 324.5,-438.5 439.5,-438.5 439.5,-417.5 324.5,-417.5"/>
<text text-anchor="middle" x="382" y="-425.5" font-family="Helvetica,sans-Serif" font-size="10.00">thumbnailClickHandler</text>
</a>
</g>
<!-- Node25&#45;&gt;Node29 -->
<g id="edge72" class="edge"><title>Node25&#45;&gt;Node29</title>
<path fill="none" stroke="midnightblue" d="M266.352,-477.327C281.51,-468.761 303.746,-456.761 324,-448 328.766,-445.938 333.82,-443.937 338.879,-442.047"/>
<polygon fill="midnightblue" stroke="midnightblue" points="340.321,-445.248 348.542,-438.564 337.947,-438.663 340.321,-445.248"/>
</g>
<!-- Node45 -->
<g id="node100" class="node"><title>Node45</title>
<a xlink:href="../../d0/da2/gallery_8js.html#a20faf3ee1393446ec53a3fff0f1d8a0e" target="_top" xlink:title="thumbnailOnscreen">
<polygon fill="white" stroke="black" points="331.5,-497.5 331.5,-518.5 432.5,-518.5 432.5,-497.5 331.5,-497.5"/>
<text text-anchor="middle" x="382" y="-505.5" font-family="Helvetica,sans-Serif" font-size="10.00">thumbnailOnscreen</text>
</a>
</g>
<!-- Node25&#45;&gt;Node45 -->
<g id="edge110" class="edge"><title>Node25&#45;&gt;Node45</title>
<path fill="none" stroke="midnightblue" d="M288.204,-494.001C298.592,-495.551 310.009,-497.255 321.194,-498.924"/>
<polygon fill="midnightblue" stroke="midnightblue" points="320.957,-502.428 331.364,-500.442 321.99,-495.504 320.957,-502.428"/>
</g>
<!-- Node46 -->
<g id="node102" class="node"><title>Node46</title>
<a xlink:href="../../d0/da2/gallery_8js.html#aa4068f2bdc717b6caa7bdd1260cc6ad4" target="_top" xlink:title="thumbnailOffscreen">
<polygon fill="white" stroke="black" points="331.5,-457.5 331.5,-478.5 432.5,-478.5 432.5,-457.5 331.5,-457.5"/>
<text text-anchor="middle" x="382" y="-465.5" font-family="Helvetica,sans-Serif" font-size="10.00">thumbnailOffscreen</text>
</a>
</g>
<!-- Node25&#45;&gt;Node46 -->
<g id="edge112" class="edge"><title>Node25&#45;&gt;Node46</title>
<path fill="none" stroke="midnightblue" d="M288.204,-481.999C298.592,-480.449 310.009,-478.745 321.194,-477.076"/>
<polygon fill="midnightblue" stroke="midnightblue" points="321.99,-480.496 331.364,-475.558 320.957,-473.572 321.99,-480.496"/>
</g>
<!-- Node26&#45;&gt;Node27 -->
<g id="edge68" class="edge"><title>Node26&#45;&gt;Node27</title>
<path fill="none" stroke="midnightblue" d="M436.214,-670.913C451.358,-672.844 467.712,-674.93 482.503,-676.816"/>
<polygon fill="midnightblue" stroke="midnightblue" points="482.097,-680.292 492.459,-678.085 482.982,-673.349 482.097,-680.292"/>
</g>
<!-- Node30 -->
<g id="node67" class="node"><title>Node30</title>
<a xlink:href="../../dd/d85/video_8js.html#a15d44776569f9fc347277fd6f43910f7" target="_top" xlink:title="showPlayer">
<polygon fill="white" stroke="black" points="497,-457.5 497,-478.5 565,-478.5 565,-457.5 497,-457.5"/>
<text text-anchor="middle" x="531" y="-465.5" font-family="Helvetica,sans-Serif" font-size="10.00">showPlayer</text>
</a>
</g>
<!-- Node29&#45;&gt;Node30 -->
<g id="edge74" class="edge"><title>Node29&#45;&gt;Node30</title>
<path fill="none" stroke="midnightblue" d="M421.148,-438.51C441.303,-443.92 465.951,-450.537 486.789,-456.131"/>
<polygon fill="midnightblue" stroke="midnightblue" points="486.111,-459.573 496.676,-458.786 487.926,-452.812 486.111,-459.573"/>
</g>
<!-- Node43 -->
<g id="node96" class="node"><title>Node43</title>
<a xlink:href="../../d8/d50/apps_2video_2js_2metadata_8js.html#ad014160132e84df1000790632524a0ed" target="_top" xlink:title="stopParsingMetadata">
<polygon fill="white" stroke="black" points="476.5,-417.5 476.5,-438.5 585.5,-438.5 585.5,-417.5 476.5,-417.5"/>
<text text-anchor="middle" x="531" y="-425.5" font-family="Helvetica,sans-Serif" font-size="10.00">stopParsingMetadata</text>
</a>
</g>
<!-- Node29&#45;&gt;Node43 -->
<g id="edge106" class="edge"><title>Node29&#45;&gt;Node43</title>
<path fill="none" stroke="midnightblue" d="M439.607,-428C448.319,-428 457.355,-428 466.206,-428"/>
<polygon fill="midnightblue" stroke="midnightblue" points="466.479,-431.5 476.479,-428 466.479,-424.5 466.479,-431.5"/>
</g>
<!-- Node44 -->
<g id="node98" class="node"><title>Node44</title>
<a xlink:href="../../dd/d85/video_8js.html#abf93aff80867b9e72335f08461dcf3d8" target="_top" xlink:title="updateSelection">
<polygon fill="white" stroke="black" points="488,-377.5 488,-398.5 574,-398.5 574,-377.5 488,-377.5"/>
<text text-anchor="middle" x="531" y="-385.5" font-family="Helvetica,sans-Serif" font-size="10.00">updateSelection</text>
</a>
</g>
<!-- Node29&#45;&gt;Node44 -->
<g id="edge108" class="edge"><title>Node29&#45;&gt;Node44</title>
<path fill="none" stroke="midnightblue" d="M421.148,-417.49C439.81,-412.481 462.324,-406.437 482.099,-401.128"/>
<polygon fill="midnightblue" stroke="midnightblue" points="483.105,-404.482 491.855,-398.509 481.29,-397.721 483.105,-404.482"/>
</g>
<!-- Node31 -->
<g id="node69" class="node"><title>Node31</title>
<a xlink:href="../../dd/d85/video_8js.html#a5ac3b5032f9a9ecde23b4b999725109f" target="_top" xlink:title="updateDialog">
<polygon fill="white" stroke="black" points="1380,-437.5 1380,-458.5 1454,-458.5 1454,-437.5 1380,-437.5"/>
<text text-anchor="middle" x="1417" y="-445.5" font-family="Helvetica,sans-Serif" font-size="10.00">updateDialog</text>
</a>
</g>
<!-- Node30&#45;&gt;Node31 -->
<g id="edge76" class="edge"><title>Node30&#45;&gt;Node31</title>
<path fill="none" stroke="midnightblue" d="M565.13,-458.534C572.346,-455.742 579.682,-452.261 586,-448 605.829,-434.626 600.556,-418.593 622,-408 717.139,-361.003 753.886,-389 860,-389 860,-389 860,-389 1129,-389 1218.85,-389 1321.32,-416.9 1376.56,-434.329"/>
<polygon fill="midnightblue" stroke="midnightblue" points="1375.72,-437.735 1386.31,-437.452 1377.86,-431.069 1375.72,-437.735"/>
</g>
<!-- Node32 -->
<g id="node72" class="node"><title>Node32</title>
<a xlink:href="../../dd/d85/video_8js.html#a8c49c6155f6629d2ec8fe5cb57b84637" target="_top" xlink:title="showVideoControls">
<polygon fill="white" stroke="black" points="632.5,-497.5 632.5,-518.5 733.5,-518.5 733.5,-497.5 632.5,-497.5"/>
<text text-anchor="middle" x="683" y="-505.5" font-family="Helvetica,sans-Serif" font-size="10.00">showVideoControls</text>
</a>
</g>
<!-- Node30&#45;&gt;Node32 -->
<g id="edge80" class="edge"><title>Node30&#45;&gt;Node32</title>
<path fill="none" stroke="midnightblue" d="M565.112,-476.977C585.15,-482.25 610.839,-489.01 633.118,-494.873"/>
<polygon fill="midnightblue" stroke="midnightblue" points="632.521,-498.335 643.082,-497.495 634.302,-491.566 632.521,-498.335"/>
</g>
<!-- Node33 -->
<g id="node74" class="node"><title>Node33</title>
<a xlink:href="../../dd/d85/video_8js.html#acfb484790968a6e575eec4d19f594d76" target="_top" xlink:title="setVideoUrl">
<polygon fill="white" stroke="black" points="649,-457.5 649,-478.5 717,-478.5 717,-457.5 649,-457.5"/>
<text text-anchor="middle" x="683" y="-465.5" font-family="Helvetica,sans-Serif" font-size="10.00">setVideoUrl</text>
</a>
</g>
<!-- Node30&#45;&gt;Node33 -->
<g id="edge82" class="edge"><title>Node30&#45;&gt;Node33</title>
<path fill="none" stroke="midnightblue" d="M565.112,-468C586.842,-468 615.216,-468 638.682,-468"/>
<polygon fill="midnightblue" stroke="midnightblue" points="638.739,-471.5 648.739,-468 638.739,-464.5 638.739,-471.5"/>
</g>
<!-- Node34 -->
<g id="node76" class="node"><title>Node34</title>
<a xlink:href="../../dd/d85/video_8js.html#a80f1ea9fbe384f49287a314810c41138" target="_top" xlink:title="setPlayerSize">
<polygon fill="white" stroke="black" points="644.5,-417.5 644.5,-438.5 721.5,-438.5 721.5,-417.5 644.5,-417.5"/>
<text text-anchor="middle" x="683" y="-425.5" font-family="Helvetica,sans-Serif" font-size="10.00">setPlayerSize</text>
</a>
</g>
<!-- Node30&#45;&gt;Node34 -->
<g id="edge84" class="edge"><title>Node30&#45;&gt;Node34</title>
<path fill="none" stroke="midnightblue" d="M565.112,-459.023C585.622,-453.626 612.051,-446.671 634.685,-440.714"/>
<polygon fill="midnightblue" stroke="midnightblue" points="635.673,-444.074 644.453,-438.144 633.891,-437.304 635.673,-444.074"/>
</g>
<!-- Node35 -->
<g id="node78" class="node"><title>Node35</title>
<a xlink:href="../../dd/d85/video_8js.html#a7751b1e88bf6a27cd0cae9e64e11e0a8" target="_top" xlink:title="timeUpdated">
<polygon fill="white" stroke="black" points="647,-537.5 647,-558.5 719,-558.5 719,-537.5 647,-537.5"/>
<text text-anchor="middle" x="683" y="-545.5" font-family="Helvetica,sans-Serif" font-size="10.00">timeUpdated</text>
</a>
</g>
<!-- Node30&#45;&gt;Node35 -->
<g id="edge86" class="edge"><title>Node30&#45;&gt;Node35</title>
<path fill="none" stroke="midnightblue" d="M544.496,-478.569C561.686,-491.627 592.69,-513.846 622,-528 626.893,-530.363 632.134,-532.551 637.414,-534.545"/>
<polygon fill="midnightblue" stroke="midnightblue" points="636.297,-537.863 646.892,-537.921 638.646,-531.268 636.297,-537.863"/>
</g>
<!-- Node31&#45;&gt;Node7 -->
<g id="edge78" class="edge"><title>Node31&#45;&gt;Node7</title>
<path fill="none" stroke="midnightblue" d="M1454.24,-448C1462.39,-448 1471.13,-448 1479.62,-448"/>
<polygon fill="midnightblue" stroke="midnightblue" points="1479.8,-451.5 1489.8,-448 1479.8,-444.5 1479.8,-451.5"/>
</g>
<!-- Node36 -->
<g id="node80" class="node"><title>Node36</title>
<a xlink:href="../../d2/da3/namespacegoogle_1_1protobuf_1_1internal.html#a1b0bebbb829f5b272171927a1b7adfbe" target="_top" xlink:title="google::protobuf::internal::Infinity">
<polygon fill="white" stroke="black" points="780.5,-497.5 780.5,-518.5 939.5,-518.5 939.5,-497.5 780.5,-497.5"/>
<text text-anchor="middle" x="860" y="-505.5" font-family="Helvetica,sans-Serif" font-size="10.00">google::protobuf::internal::Infinity</text>
</a>
</g>
<!-- Node35&#45;&gt;Node36 -->
<g id="edge88" class="edge"><title>Node35&#45;&gt;Node36</title>
<path fill="none" stroke="midnightblue" d="M719.246,-539.809C743.477,-534.333 775.85,-527.017 803.44,-520.782"/>
<polygon fill="midnightblue" stroke="midnightblue" points="804.382,-524.157 813.364,-518.539 802.839,-517.33 804.382,-524.157"/>
</g>
<!-- Node37 -->
<g id="node82" class="node"><title>Node37</title>
<a xlink:href="../../dd/d85/video_8js.html#a6fcd1c3d17b759ae9f24a6d8edceed54" target="_top" xlink:title="playerEnded">
<polygon fill="white" stroke="black" points="824.5,-537.5 824.5,-558.5 895.5,-558.5 895.5,-537.5 824.5,-537.5"/>
<text text-anchor="middle" x="860" y="-545.5" font-family="Helvetica,sans-Serif" font-size="10.00">playerEnded</text>
</a>
</g>
<!-- Node35&#45;&gt;Node37 -->
<g id="edge90" class="edge"><title>Node35&#45;&gt;Node37</title>
<path fill="none" stroke="midnightblue" d="M719.246,-548C746.749,-548 784.744,-548 814.326,-548"/>
<polygon fill="midnightblue" stroke="midnightblue" points="814.408,-551.5 824.408,-548 814.408,-544.5 814.408,-551.5"/>
</g>
<!-- Node38 -->
<g id="node84" class="node"><title>Node38</title>
<a xlink:href="../../dd/d85/video_8js.html#a87871aceb087d64a0527f9a89eb07e37" target="_top" xlink:title="hidePlayer">
<polygon fill="white" stroke="black" points="976,-496.5 976,-517.5 1038,-517.5 1038,-496.5 976,-496.5"/>
<text text-anchor="middle" x="1007" y="-504.5" font-family="Helvetica,sans-Serif" font-size="10.00">hidePlayer</text>
</a>
</g>
<!-- Node37&#45;&gt;Node38 -->
<g id="edge92" class="edge"><title>Node37&#45;&gt;Node38</title>
<path fill="none" stroke="midnightblue" d="M895.562,-539.584C909.472,-536.169 925.53,-532.073 940,-528 948.434,-525.626 957.413,-522.93 965.967,-520.28"/>
<polygon fill="midnightblue" stroke="midnightblue" points="967.26,-523.542 975.755,-517.211 965.166,-516.863 967.26,-523.542"/>
</g>
<!-- Node38&#45;&gt;Node31 -->
<g id="edge94" class="edge"><title>Node38&#45;&gt;Node31</title>
<path fill="none" stroke="midnightblue" d="M1020.43,-496.287C1033.33,-486.682 1053.79,-473.18 1074,-467 1175.78,-435.876 1302.33,-438.911 1369.66,-443.606"/>
<polygon fill="midnightblue" stroke="midnightblue" points="1369.72,-447.12 1379.95,-444.369 1370.24,-440.139 1369.72,-447.12"/>
</g>
<!-- Node39 -->
<g id="node87" class="node"><title>Node39</title>
<a xlink:href="../../d8/d50/apps_2video_2js_2metadata_8js.html#a630c4c6c13813ba79f9cceef1fc57d7b" target="_top" xlink:title="captureFrame">
<polygon fill="white" stroke="black" points="1090.5,-476.5 1090.5,-497.5 1167.5,-497.5 1167.5,-476.5 1090.5,-476.5"/>
<text text-anchor="middle" x="1129" y="-484.5" font-family="Helvetica,sans-Serif" font-size="10.00">captureFrame</text>
</a>
</g>
<!-- Node38&#45;&gt;Node39 -->
<g id="edge96" class="edge"><title>Node38&#45;&gt;Node39</title>
<path fill="none" stroke="midnightblue" d="M1038.1,-501.901C1050.83,-499.815 1065.86,-497.351 1079.99,-495.034"/>
<polygon fill="midnightblue" stroke="midnightblue" points="1080.78,-498.451 1090.08,-493.38 1079.65,-491.544 1080.78,-498.451"/>
</g>
<!-- Node40 -->
<g id="node89" class="node"><title>Node40</title>
<a xlink:href="../../d8/d50/apps_2video_2js_2metadata_8js.html#ae22812565b83dc890014f0864f947bd0" target="_top" xlink:title="startParsingMetadata">
<polygon fill="white" stroke="black" points="1074,-516.5 1074,-537.5 1184,-537.5 1184,-516.5 1074,-516.5"/>
<text text-anchor="middle" x="1129" y="-524.5" font-family="Helvetica,sans-Serif" font-size="10.00">startParsingMetadata</text>
</a>
</g>
<!-- Node38&#45;&gt;Node40 -->
<g id="edge98" class="edge"><title>Node38&#45;&gt;Node40</title>
<path fill="none" stroke="midnightblue" d="M1038.1,-512.099C1046,-513.394 1054.79,-514.834 1063.7,-516.295"/>
<polygon fill="midnightblue" stroke="midnightblue" points="1063.34,-519.782 1073.77,-517.946 1064.47,-512.874 1063.34,-519.782"/>
</g>
<!-- Node41 -->
<g id="node91" class="node"><title>Node41</title>
<a xlink:href="../../dd/d85/video_8js.html#a75635219ebfcafcc9f0d68b6c4c7b610" target="_top" xlink:title="showThrobber">
<polygon fill="white" stroke="black" points="1243,-476.5 1243,-497.5 1321,-497.5 1321,-476.5 1243,-476.5"/>
<text text-anchor="middle" x="1282" y="-484.5" font-family="Helvetica,sans-Serif" font-size="10.00">showThrobber</text>
</a>
</g>
<!-- Node40&#45;&gt;Node41 -->
<g id="edge100" class="edge"><title>Node40&#45;&gt;Node41</title>
<path fill="none" stroke="midnightblue" d="M1169.2,-516.49C1188.75,-511.378 1212.43,-505.189 1233.03,-499.803"/>
<polygon fill="midnightblue" stroke="midnightblue" points="1234.07,-503.148 1242.86,-497.232 1232.3,-496.375 1234.07,-503.148"/>
</g>
<!-- Node42 -->
<g id="node93" class="node"><title>Node42</title>
<a xlink:href="../../d8/d50/apps_2video_2js_2metadata_8js.html#ab0dcf0f45a87ccde675b9320f5b69d3a" target="_top" xlink:title="processFirstQueuedItem">
<polygon fill="white" stroke="red" points="1220,-516.5 1220,-537.5 1344,-537.5 1344,-516.5 1220,-516.5"/>
<text text-anchor="middle" x="1282" y="-524.5" font-family="Helvetica,sans-Serif" font-size="10.00">processFirstQueuedItem</text>
</a>
</g>
<!-- Node40&#45;&gt;Node42 -->
<g id="edge102" class="edge"><title>Node40&#45;&gt;Node42</title>
<path fill="none" stroke="midnightblue" d="M1184.24,-527C1192.54,-527 1201.21,-527 1209.81,-527"/>
<polygon fill="midnightblue" stroke="midnightblue" points="1209.84,-530.5 1219.84,-527 1209.84,-523.5 1209.84,-530.5"/>
</g>
<!-- Node42&#45;&gt;Node31 -->
<g id="edge104" class="edge"><title>Node42&#45;&gt;Node31</title>
<path fill="none" stroke="midnightblue" d="M1322.26,-516.404C1329.69,-513.786 1337.24,-510.659 1344,-507 1364.61,-495.852 1385.09,-478.615 1399.1,-465.645"/>
<polygon fill="midnightblue" stroke="midnightblue" points="1401.7,-468.003 1406.54,-458.581 1396.88,-462.925 1401.7,-468.003"/>
</g>
<!-- Node49 -->
<g id="node111" class="node"><title>Node49</title>
<a xlink:href="../../dd/d85/video_8js.html#a1adf7471b1bc968b8517bf786fffa94d" target="_top" xlink:title="share">
<polygon fill="white" stroke="black" points="227.5,-66.5 227.5,-87.5 268.5,-87.5 268.5,-66.5 227.5,-66.5"/>
<text text-anchor="middle" x="248" y="-74.5" font-family="Helvetica,sans-Serif" font-size="10.00">share</text>
</a>
</g>
<!-- Node48&#45;&gt;Node49 -->
<g id="edge124" class="edge"><title>Node48&#45;&gt;Node49</title>
<path fill="none" stroke="midnightblue" d="M142.361,-124.497C163.58,-114.956 194.994,-100.832 218.051,-90.4655"/>
<polygon fill="midnightblue" stroke="midnightblue" points="219.681,-93.5699 227.367,-86.277 216.811,-87.1856 219.681,-93.5699"/>
</g>
<!-- Node50&#45;&gt;Node18 -->
<g id="edge128" class="edge"><title>Node50&#45;&gt;Node18</title>
<path fill="none" stroke="midnightblue" d="M276.17,-120.683C327.763,-127.428 437.368,-141.758 494.556,-149.235"/>
<polygon fill="midnightblue" stroke="midnightblue" points="494.229,-152.722 504.598,-150.548 495.137,-145.781 494.229,-152.722"/>
</g>
</g>
</svg>
        <g id="navigator" transform="translate(0 0)" fill="#404254">
                <rect fill="#f2f5e9" fill-opacity="0.5" stroke="#606060" stroke-width=".5" x="0" y="0" width="60" height="60"/>
                <use id="zoomplus" xlink:href="#zoomPlus" x="17" y="9" onmousedown="handleZoom(evt,'in')"/>
                <use id="zoomminus" xlink:href="#zoomMin" x="42" y="9" onmousedown="handleZoom(evt,'out')"/>
                <use id="reset" xlink:href="#resetDef" x="30" y="36" onmousedown="handleReset()"/>
                <g id="arrowUp" xlink:href="#dirArrow" transform="translate(30 24)" onmousedown="handlePan(0,-1)">
                  <use xlink:href="#rim" fill="#404040">
                        <set attributeName="fill" to="#808080" begin="arrowUp.mouseover" end="arrowUp.mouseout"/>
                  </use>
                  <path fill="none" stroke="white" stroke-width="1.5" d="M0,-3.0v7 M-2.5,-0.5L0,-3.0L2.5,-0.5"/>
                </g>
                <g id="arrowRight" xlink:href="#dirArrow" transform="rotate(90) translate(36 -43)" onmousedown="handlePan(1,0)">
                  <use xlink:href="#rim" fill="#404040">
                        <set attributeName="fill" to="#808080" begin="arrowRight.mouseover" end="arrowRight.mouseout"/>
                  </use>
                  <path fill="none" stroke="white" stroke-width="1.5" d="M0,-3.0v7 M-2.5,-0.5L0,-3.0L2.5,-0.5"/>
                </g>
                <g id="arrowDown" xlink:href="#dirArrow" transform="rotate(180) translate(-30 -48)" onmousedown="handlePan(0,1)">
                  <use xlink:href="#rim" fill="#404040">
                        <set attributeName="fill" to="#808080" begin="arrowDown.mouseover" end="arrowDown.mouseout"/>
                  </use>
                  <path fill="none" stroke="white" stroke-width="1.5" d="M0,-3.0v7 M-2.5,-0.5L0,-3.0L2.5,-0.5"/>
                </g>
                <g id="arrowLeft" xlink:href="#dirArrow" transform="rotate(270) translate(-36 17)" onmousedown="handlePan(-1,0)">
                  <use xlink:href="#rim" fill="#404040">
                        <set attributeName="fill" to="#808080" begin="arrowLeft.mouseover" end="arrowLeft.mouseout"/>
                  </use>
                  <path fill="none" stroke="white" stroke-width="1.5" d="M0,-3.0v7 M-2.5,-0.5L0,-3.0L2.5,-0.5"/>
                </g>
        </g>
</svg>
