<?xml version="1.0" encoding="UTF-8" standalone="no"?>
<!DOCTYPE svg PUBLIC "-//W3C//DTD SVG 1.1//EN"
 "http://www.w3.org/Graphics/SVG/1.1/DTD/svg11.dtd">
<!-- Generated by graphviz version 2.26.3 (20100126.1600)
 -->
<!-- Title: G Pages: 1 -->
<!--zoomable 291 -->
<svg id="main" version="1.1" xmlns="http://www.w3.org/2000/svg" xmlns:xlink="http://www.w3.org/1999/xlink" xml:space="preserve" onload="init(evt)">
        <defs>
                <circle id="rim" cx="0" cy="0" r="7"/>
                <circle id="rim2" cx="0" cy="0" r="3.5"/>
                <g id="zoomPlus">
                        <use xlink:href="#rim" fill="#404040">
                                <set attributeName="fill" to="#808080" begin="zoomplus.mouseover" end="zoomplus.mouseout"/>
                        </use>
                        <path d="M-4,0h8M0,-4v8" fill="none" stroke="white" stroke-width="1.5" pointer-events="none"/>
                </g>
                <g id="zoomMin">
                        <use xlink:href="#rim" fill="#404040">
                                <set attributeName="fill" to="#808080" begin="zoomminus.mouseover" end="zoomminus.mouseout"/>
                        </use>
                        <path d="M-4,0h8" fill="none" stroke="white" stroke-width="1.5" pointer-events="none"/>
                </g>
                <g id="dirArrow">
                        <path fill="none" stroke="white" stroke-width="1.5" d="M0,-3.0v7 M-2.5,-0.5L0,-3.0L2.5,-0.5"/>
                </g>
               <g id="resetDef">
                       <use xlink:href="#rim2" fill="#404040">
                               <set attributeName="fill" to="#808080" begin="reset.mouseover" end="reset.mouseout"/>
                       </use>
               </g>
        </defs>

<script type="text/javascript">
var viewWidth = 534;
var viewHeight = 291;
var sectionId = 'dynsection-16';
</script>
<script xlink:href="../../svgpan.js"/>
<svg id="graph" class="graph">
<g id="viewport">
<title>G</title>
<polygon fill="white" stroke="white" points="-4,5 -4,-287.265 531,-287.265 531,5 -4,5"/>
<!-- Node1 -->
<g id="node1" class="node"><title>Node1</title>
<polygon fill="#bfbfbf" stroke="black" points="0,-123.765 0,-144.765 52,-144.765 52,-123.765 0,-123.765"/>
<text text-anchor="middle" x="26" y="-131.765" font-family="Helvetica,sans-Serif" font-size="10.00">setView</text>
</g>
<!-- Node2 -->
<g id="node3" class="node"><title>Node2</title>
<a xlink:href="../../d0/da2/gallery_8js.html#a3076caeb3485095859089546849fda05" target="_top" xlink:title="cropPickedImage">
<polygon fill="white" stroke="black" points="88,-261.765 88,-282.765 180,-282.765 180,-261.765 88,-261.765"/>
<text text-anchor="middle" x="134" y="-269.765" font-family="Helvetica,sans-Serif" font-size="10.00">cropPickedImage</text>
</a>
</g>
<!-- Node1&#45;&gt;Node2 -->
<g id="edge2" class="edge"><title>Node1&#45;&gt;Node2</title>
<path fill="none" stroke="midnightblue" d="M32.0386,-154.729C40.6137,-180.58 58.6253,-224.978 88,-252.265 91.9557,-255.939 96.6935,-259.007 101.603,-261.547"/>
<polygon fill="midnightblue" stroke="midnightblue" points="35.2812,-153.373 28.9358,-144.889 28.6053,-155.479 35.2812,-153.373"/>
</g>
<!-- Node3 -->
<g id="node5" class="node"><title>Node3</title>
<a xlink:href="../../db/d0b/_image_editor_8js.html#a4508c27e6632ff4cc9e658dbc4a422cb" target="_top" xlink:title="editPhoto">
<polygon fill="white" stroke="black" points="105,-221.765 105,-242.765 163,-242.765 163,-221.765 105,-221.765"/>
<text text-anchor="middle" x="134" y="-229.765" font-family="Helvetica,sans-Serif" font-size="10.00">editPhoto</text>
</a>
</g>
<!-- Node1&#45;&gt;Node3 -->
<g id="edge4" class="edge"><title>Node1&#45;&gt;Node3</title>
<path fill="none" stroke="midnightblue" d="M39.2146,-153.475C50.7707,-169.288 68.689,-191.576 88,-207.265 94.7725,-212.767 102.934,-217.658 110.491,-221.623"/>
<polygon fill="midnightblue" stroke="midnightblue" points="41.8371,-151.124 33.1833,-145.011 36.1365,-155.186 41.8371,-151.124"/>
</g>
<!-- Node5 -->
<g id="node9" class="node"><title>Node5</title>
<a xlink:href="../../db/d0b/_image_editor_8js.html#aaea2ca378b592007014d8144c4f7717b" target="_top" xlink:title="exitEditMode">
<polygon fill="white" stroke="black" points="237,-143.765 237,-164.765 311,-164.765 311,-143.765 237,-143.765"/>
<text text-anchor="middle" x="274" y="-151.765" font-family="Helvetica,sans-Serif" font-size="10.00">exitEditMode</text>
</a>
</g>
<!-- Node1&#45;&gt;Node5 -->
<g id="edge8" class="edge"><title>Node1&#45;&gt;Node5</title>
<path fill="none" stroke="midnightblue" d="M62.3234,-137.194C108.97,-140.956 189.51,-147.451 236.649,-151.253"/>
<polygon fill="midnightblue" stroke="midnightblue" points="62.3206,-133.683 52.0716,-136.367 61.7579,-140.66 62.3206,-133.683"/>
</g>
<!-- Node7 -->
<g id="node13" class="node"><title>Node7</title>
<a xlink:href="../../d0/da2/gallery_8js.html#a39586a47f4ee455f04350f3c8248e124" target="_top" xlink:title="fileDeleted">
<polygon fill="white" stroke="black" points="242.5,-63.7648 242.5,-84.7648 305.5,-84.7648 305.5,-63.7648 242.5,-63.7648"/>
<text text-anchor="middle" x="274" y="-71.7648" font-family="Helvetica,sans-Serif" font-size="10.00">fileDeleted</text>
</a>
</g>
<!-- Node1&#45;&gt;Node7 -->
<g id="edge12" class="edge"><title>Node1&#45;&gt;Node7</title>
<path fill="none" stroke="midnightblue" d="M46.8666,-117.291C58.3215,-108.916 73.1803,-99.5078 88,-94.2648 139.898,-75.9043 204.612,-73.0894 242.419,-73.2833"/>
<polygon fill="midnightblue" stroke="midnightblue" points="44.6662,-114.567 38.8275,-123.408 48.905,-120.138 44.6662,-114.567"/>
</g>
<!-- Node8 -->
<g id="node15" class="node"><title>Node8</title>
<a xlink:href="../../d0/da2/gallery_8js.html#aa3ad0f72d51416a18a4336efa0b2b3cf" target="_top" xlink:title="initDB">
<polygon fill="white" stroke="black" points="392,-63.7648 392,-84.7648 436,-84.7648 436,-63.7648 392,-63.7648"/>
<text text-anchor="middle" x="414" y="-71.7648" font-family="Helvetica,sans-Serif" font-size="10.00">initDB</text>
</a>
</g>
<!-- Node1&#45;&gt;Node8 -->
<g id="edge20" class="edge"><title>Node1&#45;&gt;Node8</title>
<path fill="none" stroke="midnightblue" d="M39.0771,-115.324C50.2709,-100.719 67.7582,-81.3622 88,-71.2648 191.321,-19.7241 336.987,-52.2314 391.901,-67.5641"/>
<polygon fill="midnightblue" stroke="midnightblue" points="36.0421,-113.545 32.9524,-123.679 41.6876,-117.683 36.0421,-113.545"/>
</g>
<!-- Node9 -->
<g id="node17" class="node"><title>Node9</title>
<a xlink:href="../../d0/da2/gallery_8js.html#af8dc73726eb0578fe44fb98cd2319445" target="_top" xlink:title="init">
<polygon fill="white" stroke="black" points="496.5,-63.7648 496.5,-84.7648 525.5,-84.7648 525.5,-63.7648 496.5,-63.7648"/>
<text text-anchor="middle" x="511" y="-71.7648" font-family="Helvetica,sans-Serif" font-size="10.00">init</text>
</a>
</g>
<!-- Node1&#45;&gt;Node9 -->
<g id="edge18" class="edge"><title>Node1&#45;&gt;Node9</title>
<path fill="none" stroke="midnightblue" d="M57.3835,-149.069C133.077,-182.412 329.087,-254.454 460,-174.265 492.573,-154.313 505.164,-106.294 509.276,-84.8814"/>
<polygon fill="midnightblue" stroke="midnightblue" points="58.489,-145.729 47.9325,-144.829 55.6239,-152.116 58.489,-145.729"/>
</g>
<!-- Node10 -->
<g id="node21" class="node"><title>Node10</title>
<a xlink:href="../../d8/df0/frames_8js.html#acca2cb5dc9247f573a21f61583c8d81d" target="_top" xlink:title="showFile">
<polygon fill="white" stroke="black" points="106,-103.765 106,-124.765 162,-124.765 162,-103.765 106,-103.765"/>
<text text-anchor="middle" x="134" y="-111.765" font-family="Helvetica,sans-Serif" font-size="10.00">showFile</text>
</a>
</g>
<!-- Node1&#45;&gt;Node10 -->
<g id="edge22" class="edge"><title>Node1&#45;&gt;Node10</title>
<path fill="none" stroke="midnightblue" d="M62.1172,-127.576C76.359,-124.939 92.4715,-121.955 105.827,-119.482"/>
<polygon fill="midnightblue" stroke="midnightblue" points="61.3393,-124.161 52.1438,-129.423 62.6139,-131.044 61.3393,-124.161"/>
</g>
<!-- Node12 -->
<g id="node28" class="node"><title>Node12</title>
<a xlink:href="../../d0/da2/gallery_8js.html#af1ea14645dcd3a1078e952cbde544991" target="_top" xlink:title="startPick">
<polygon fill="white" stroke="black" points="386,-5.76484 386,-26.7648 442,-26.7648 442,-5.76484 386,-5.76484"/>
<text text-anchor="middle" x="414" y="-13.7648" font-family="Helvetica,sans-Serif" font-size="10.00">startPick</text>
</a>
</g>
<!-- Node1&#45;&gt;Node12 -->
<g id="edge32" class="edge"><title>Node1&#45;&gt;Node12</title>
<path fill="none" stroke="midnightblue" d="M33.1932,-114.142C42.2536,-92.0655 60.099,-57.6 88,-41.2648 184.746,15.377 326.247,-0.498052 385.866,-10.7112"/>
<polygon fill="midnightblue" stroke="midnightblue" points="29.8868,-112.989 29.5444,-123.578 36.4156,-115.513 29.8868,-112.989"/>
</g>
<!-- Node4 -->
<g id="node7" class="node"><title>Node4</title>
<a xlink:href="../../db/d0b/_image_editor_8js.html#acd058f2b5b35e5443cc4e6a485ba0bde" target="_top" xlink:title="editPhotoIfCardNotFull">
<polygon fill="white" stroke="black" points="216,-221.765 216,-242.765 332,-242.765 332,-221.765 216,-221.765"/>
<text text-anchor="middle" x="274" y="-229.765" font-family="Helvetica,sans-Serif" font-size="10.00">editPhotoIfCardNotFull</text>
</a>
</g>
<!-- Node3&#45;&gt;Node4 -->
<g id="edge6" class="edge"><title>Node3&#45;&gt;Node4</title>
<path fill="none" stroke="midnightblue" d="M173.179,-232.265C186.411,-232.265 201.48,-232.265 215.861,-232.265"/>
<polygon fill="midnightblue" stroke="midnightblue" points="173.008,-228.765 163.008,-232.265 173.008,-235.765 173.008,-228.765"/>
</g>
<!-- Node6 -->
<g id="node11" class="node"><title>Node6</title>
<a xlink:href="../../db/d0b/_image_editor_8js.html#ac6f310b5d611ae1c1dd40f458d32690d" target="_top" xlink:title="saveEditedImage">
<polygon fill="white" stroke="black" points="368,-143.765 368,-164.765 460,-164.765 460,-143.765 368,-143.765"/>
<text text-anchor="middle" x="414" y="-151.765" font-family="Helvetica,sans-Serif" font-size="10.00">saveEditedImage</text>
</a>
</g>
<!-- Node5&#45;&gt;Node6 -->
<g id="edge10" class="edge"><title>Node5&#45;&gt;Node6</title>
<path fill="none" stroke="midnightblue" d="M321.277,-154.265C336.325,-154.265 352.945,-154.265 367.908,-154.265"/>
<polygon fill="midnightblue" stroke="midnightblue" points="321.15,-150.765 311.15,-154.265 321.15,-157.765 321.15,-150.765"/>
</g>
<!-- Node7&#45;&gt;Node8 -->
<g id="edge14" class="edge"><title>Node7&#45;&gt;Node8</title>
<path fill="none" stroke="midnightblue" d="M316.071,-74.2648C341.029,-74.2648 371.653,-74.2648 391.94,-74.2648"/>
<polygon fill="midnightblue" stroke="midnightblue" points="315.768,-70.7649 305.768,-74.2648 315.768,-77.7649 315.768,-70.7649"/>
</g>
<!-- Node8&#45;&gt;Node9 -->
<g id="edge16" class="edge"><title>Node8&#45;&gt;Node9</title>
<path fill="none" stroke="midnightblue" d="M446.088,-74.2648C463.043,-74.2648 483.031,-74.2648 496.302,-74.2648"/>
<polygon fill="midnightblue" stroke="midnightblue" points="446.011,-70.7649 436.011,-74.2648 446.011,-77.7649 446.011,-70.7649"/>
</g>
<!-- Node10&#45;&gt;Node5 -->
<g id="edge24" class="edge"><title>Node10&#45;&gt;Node5</title>
<path fill="none" stroke="midnightblue" d="M172.161,-125.168C192.405,-130.952 217.163,-138.026 237.199,-143.75"/>
<polygon fill="midnightblue" stroke="midnightblue" points="172.908,-121.741 162.331,-122.359 170.985,-128.472 172.908,-121.741"/>
</g>
<!-- Node10&#45;&gt;Node7 -->
<g id="edge30" class="edge"><title>Node10&#45;&gt;Node7</title>
<path fill="none" stroke="midnightblue" d="M172.027,-103.4C194.047,-97.1086 221.443,-89.2812 242.292,-83.3243"/>
<polygon fill="midnightblue" stroke="midnightblue" points="170.985,-100.058 162.331,-106.17 172.908,-106.788 170.985,-100.058"/>
</g>
<!-- Node11 -->
<g id="node24" class="node"><title>Node11</title>
<a xlink:href="../../d0/da2/gallery_8js.html#a99873e3fc1be38a0caf0999e2a5b6e65" target="_top" xlink:title="fileCreated">
<polygon fill="white" stroke="black" points="242,-103.765 242,-124.765 306,-124.765 306,-103.765 242,-103.765"/>
<text text-anchor="middle" x="274" y="-111.765" font-family="Helvetica,sans-Serif" font-size="10.00">fileCreated</text>
</a>
</g>
<!-- Node10&#45;&gt;Node11 -->
<g id="edge26" class="edge"><title>Node10&#45;&gt;Node11</title>
<path fill="none" stroke="midnightblue" d="M172.549,-114.265C194.303,-114.265 221.173,-114.265 241.793,-114.265"/>
<polygon fill="midnightblue" stroke="midnightblue" points="172.331,-110.765 162.331,-114.265 172.331,-117.765 172.331,-110.765"/>
</g>
<!-- Node11&#45;&gt;Node8 -->
<g id="edge28" class="edge"><title>Node11&#45;&gt;Node8</title>
<path fill="none" stroke="midnightblue" d="M316.024,-102.258C340.862,-95.1614 371.325,-86.4576 391.625,-80.6576"/>
<polygon fill="midnightblue" stroke="midnightblue" points="314.773,-98.9754 306.119,-105.088 316.696,-105.706 314.773,-98.9754"/>
</g>
<!-- Node12&#45;&gt;Node9 -->
<g id="edge34" class="edge"><title>Node12&#45;&gt;Node9</title>
<path fill="none" stroke="midnightblue" d="M440.677,-32.2162C458.691,-42.9871 481.778,-56.792 496.485,-65.5856"/>
<polygon fill="midnightblue" stroke="midnightblue" points="442.17,-29.031 431.791,-26.9029 438.578,-35.0389 442.17,-29.031"/>
</g>
</g>
</svg>
        <g id="navigator" transform="translate(0 0)" fill="#404254">
                <rect fill="#f2f5e9" fill-opacity="0.5" stroke="#606060" stroke-width=".5" x="0" y="0" width="60" height="60"/>
                <use id="zoomplus" xlink:href="#zoomPlus" x="17" y="9" onmousedown="handleZoom(evt,'in')"/>
                <use id="zoomminus" xlink:href="#zoomMin" x="42" y="9" onmousedown="handleZoom(evt,'out')"/>
                <use id="reset" xlink:href="#resetDef" x="30" y="36" onmousedown="handleReset()"/>
                <g id="arrowUp" xlink:href="#dirArrow" transform="translate(30 24)" onmousedown="handlePan(0,-1)">
                  <use xlink:href="#rim" fill="#404040">
                        <set attributeName="fill" to="#808080" begin="arrowUp.mouseover" end="arrowUp.mouseout"/>
                  </use>
                  <path fill="none" stroke="white" stroke-width="1.5" d="M0,-3.0v7 M-2.5,-0.5L0,-3.0L2.5,-0.5"/>
                </g>
                <g id="arrowRight" xlink:href="#dirArrow" transform="rotate(90) translate(36 -43)" onmousedown="handlePan(1,0)">
                  <use xlink:href="#rim" fill="#404040">
                        <set attributeName="fill" to="#808080" begin="arrowRight.mouseover" end="arrowRight.mouseout"/>
                  </use>
                  <path fill="none" stroke="white" stroke-width="1.5" d="M0,-3.0v7 M-2.5,-0.5L0,-3.0L2.5,-0.5"/>
                </g>
                <g id="arrowDown" xlink:href="#dirArrow" transform="rotate(180) translate(-30 -48)" onmousedown="handlePan(0,1)">
                  <use xlink:href="#rim" fill="#404040">
                        <set attributeName="fill" to="#808080" begin="arrowDown.mouseover" end="arrowDown.mouseout"/>
                  </use>
                  <path fill="none" stroke="white" stroke-width="1.5" d="M0,-3.0v7 M-2.5,-0.5L0,-3.0L2.5,-0.5"/>
                </g>
                <g id="arrowLeft" xlink:href="#dirArrow" transform="rotate(270) translate(-36 17)" onmousedown="handlePan(-1,0)">
                  <use xlink:href="#rim" fill="#404040">
                        <set attributeName="fill" to="#808080" begin="arrowLeft.mouseover" end="arrowLeft.mouseout"/>
                  </use>
                  <path fill="none" stroke="white" stroke-width="1.5" d="M0,-3.0v7 M-2.5,-0.5L0,-3.0L2.5,-0.5"/>
                </g>
        </g>
</svg>
