<?xml version="1.0" encoding="UTF-8" standalone="no"?>
<!DOCTYPE svg PUBLIC "-//W3C//DTD SVG 1.1//EN"
 "http://www.w3.org/Graphics/SVG/1.1/DTD/svg11.dtd">
<!-- Generated by graphviz version 2.26.3 (20100126.1600)
 -->
<!-- Title: G Pages: 1 -->
<svg width="166pt" height="162pt"
 viewBox="0.00 0.00 166.00 162.00" xmlns="http://www.w3.org/2000/svg" xmlns:xlink="http://www.w3.org/1999/xlink">
<g id="graph1" class="graph" transform="scale(1 1) rotate(0) translate(4 158)">
<title>G</title>
<polygon fill="white" stroke="white" points="-4,5 -4,-158 163,-158 163,5 -4,5"/>
<!-- Node1 -->
<g id="node1" class="node"><title>Node1</title>
<polygon fill="#bfbfbf" stroke="black" points="0,-0.5 0,-21.5 122,-21.5 122,-0.5 0,-0.5"/>
<text text-anchor="middle" x="61" y="-8.5" font-family="Helvetica,sans-Serif" font-size="10.00">nsIRDFInferDataSource</text>
</g>
<!-- Node2 -->
<g id="node2" class="node"><title>Node2</title>
<a xlink:href="../../d4/d70/interfacens_i_r_d_f_data_source.html" target="_top" xlink:title="nsIRDFDataSource">
<polygon fill="white" stroke="black" points="9.5,-72.5 9.5,-93.5 112.5,-93.5 112.5,-72.5 9.5,-72.5"/>
<text text-anchor="middle" x="61" y="-80.5" font-family="Helvetica,sans-Serif" font-size="10.00">nsIRDFDataSource</text>
</a>
</g>
<!-- Node2&#45;&gt;Node1 -->
<g id="edge2" class="edge"><title>Node2&#45;&gt;Node1</title>
<path fill="none" stroke="midnightblue" d="M54.8188,-62.2348C53.7675,-48.969 54.1736,-32.3188 56.037,-21.6674"/>
<polygon fill="midnightblue" stroke="midnightblue" points="51.3698,-62.8685 56.0446,-72.3762 58.3192,-62.0284 51.3698,-62.8685"/>
</g>
<!-- Node2&#45;&gt;Node1 -->
<g id="edge8" class="edge"><title>Node2&#45;&gt;Node1</title>
<path fill="none" stroke="midnightblue" d="M67.1812,-62.2348C68.2325,-48.969 67.8264,-32.3188 65.963,-21.6674"/>
<polygon fill="midnightblue" stroke="midnightblue" points="63.6808,-62.0284 65.9554,-72.3762 70.6302,-62.8685 63.6808,-62.0284"/>
</g>
<!-- Node2&#45;&gt;Node1 -->
<g id="edge10" class="edge"><title>Node2&#45;&gt;Node1</title>
<path fill="none" stroke="#9a32cd" stroke-dasharray="5,2" d="M76.4178,-63.9962C78.2987,-60.8176 79.9312,-57.4325 81,-54 82.8499,-48.0591 82.8499,-45.9409 81,-40 78.9271,-33.3431 74.7343,-26.8642 70.7207,-21.7249"/>
<polygon fill="#9a32cd" stroke="#9a32cd" points="73.5064,-62.053 70.7207,-72.2751 79.2729,-66.0213 73.5064,-62.053"/>
<text text-anchor="middle" x="120" y="-44.5" font-family="Helvetica,sans-Serif" font-size="10.00"> baseDataSource</text>
</g>
<!-- Node3 -->
<g id="node4" class="node"><title>Node3</title>
<a xlink:href="../../d4/d6a/classns_i_supports.html" target="_top" xlink:title="nsISupports">
<polygon fill="white" stroke="black" points="26.5,-132.5 26.5,-153.5 95.5,-153.5 95.5,-132.5 26.5,-132.5"/>
<text text-anchor="middle" x="61" y="-140.5" font-family="Helvetica,sans-Serif" font-size="10.00">nsISupports</text>
</a>
</g>
<!-- Node3&#45;&gt;Node2 -->
<g id="edge4" class="edge"><title>Node3&#45;&gt;Node2</title>
<path fill="none" stroke="midnightblue" d="M54.5424,-122.231C53.9133,-112.592 54.2993,-101.544 55.7005,-93.6339"/>
<polygon fill="midnightblue" stroke="midnightblue" points="51.0768,-122.733 55.6841,-132.273 58.032,-121.942 51.0768,-122.733"/>
</g>
<!-- Node3&#45;&gt;Node2 -->
<g id="edge6" class="edge"><title>Node3&#45;&gt;Node2</title>
<path fill="none" stroke="midnightblue" d="M67.4576,-122.231C68.0867,-112.592 67.7007,-101.544 66.2995,-93.6339"/>
<polygon fill="midnightblue" stroke="midnightblue" points="63.968,-121.942 66.3159,-132.273 70.9232,-122.733 63.968,-121.942"/>
</g>
</g>
</svg>
