<?xml version="1.0" encoding="UTF-8" standalone="no"?>
<!DOCTYPE svg PUBLIC "-//W3C//DTD SVG 1.1//EN"
 "http://www.w3.org/Graphics/SVG/1.1/DTD/svg11.dtd">
<!-- Generated by graphviz version 2.26.3 (20100126.1600)
 -->
<!-- Title: G Pages: 1 -->
<svg width="173pt" height="162pt"
 viewBox="0.00 0.00 173.00 162.00" xmlns="http://www.w3.org/2000/svg" xmlns:xlink="http://www.w3.org/1999/xlink">
<g id="graph1" class="graph" transform="scale(1 1) rotate(0) translate(4 158)">
<title>G</title>
<polygon fill="white" stroke="white" points="-4,5 -4,-158 170,-158 170,5 -4,5"/>
<!-- Node1 -->
<g id="node1" class="node"><title>Node1</title>
<polygon fill="#bfbfbf" stroke="black" points="0,-0.5 0,-21.5 92,-21.5 92,-0.5 0,-0.5"/>
<text text-anchor="middle" x="46" y="-8.5" font-family="Helvetica,sans-Serif" font-size="10.00">nsICacheService</text>
</g>
<!-- Node2 -->
<g id="node2" class="node"><title>Node2</title>
<a xlink:href="../../d4/d6a/classns_i_supports.html" target="_top" xlink:title="nsISupports">
<polygon fill="white" stroke="black" points="41.5,-132.5 41.5,-153.5 110.5,-153.5 110.5,-132.5 41.5,-132.5"/>
<text text-anchor="middle" x="76" y="-140.5" font-family="Helvetica,sans-Serif" font-size="10.00">nsISupports</text>
</a>
</g>
<!-- Node2&#45;&gt;Node1 -->
<g id="edge2" class="edge"><title>Node2&#45;&gt;Node1</title>
<path fill="none" stroke="midnightblue" d="M66.2758,-122.456C57.1967,-93.9515 46.1114,-43.4497 44.527,-21.5825"/>
<polygon fill="midnightblue" stroke="midnightblue" points="63.0658,-123.884 69.6332,-132.198 69.6838,-121.603 63.0658,-123.884"/>
</g>
<!-- Node2&#45;&gt;Node1 -->
<g id="edge4" class="edge"><title>Node2&#45;&gt;Node1</title>
<path fill="none" stroke="midnightblue" d="M76.3343,-122.078C72.404,-93.5071 60.6016,-43.3534 52.2832,-21.5825"/>
<polygon fill="midnightblue" stroke="midnightblue" points="72.8756,-122.645 77.4568,-132.198 79.833,-121.873 72.8756,-122.645"/>
</g>
<!-- Node3 -->
<g id="node5" class="node"><title>Node3</title>
<a xlink:href="../../d0/da2/interfacens_i_event_target.html" target="_top" xlink:title="nsIEventTarget">
<polygon fill="white" stroke="black" points="82.5,-72.5 82.5,-93.5 165.5,-93.5 165.5,-72.5 82.5,-72.5"/>
<text text-anchor="middle" x="124" y="-80.5" font-family="Helvetica,sans-Serif" font-size="10.00">nsIEventTarget</text>
</a>
</g>
<!-- Node2&#45;&gt;Node3 -->
<g id="edge8" class="edge"><title>Node2&#45;&gt;Node3</title>
<path fill="none" stroke="midnightblue" d="M85.0343,-123.773C92.2434,-113.789 102.048,-101.97 110.193,-93.6339"/>
<polygon fill="midnightblue" stroke="midnightblue" points="81.9851,-122.033 79.2656,-132.273 87.7772,-125.964 81.9851,-122.033"/>
</g>
<!-- Node2&#45;&gt;Node3 -->
<g id="edge10" class="edge"><title>Node2&#45;&gt;Node3</title>
<path fill="none" stroke="midnightblue" d="M96.925,-124.685C105.933,-114.516 115.441,-102.225 120.792,-93.6339"/>
<polygon fill="midnightblue" stroke="midnightblue" points="94.1241,-122.558 89.8973,-132.273 99.26,-127.314 94.1241,-122.558"/>
</g>
<!-- Node3&#45;&gt;Node1 -->
<g id="edge6" class="edge"><title>Node3&#45;&gt;Node1</title>
<path fill="none" stroke="#9a32cd" stroke-dasharray="5,2" d="M104.878,-65.3488C90.0607,-51.6714 70.0185,-33.1709 57.5564,-21.6674"/>
<polygon fill="#9a32cd" stroke="#9a32cd" points="102.769,-68.1651 112.491,-72.3762 107.517,-63.0215 102.769,-68.1651"/>
<text text-anchor="middle" x="125" y="-44.5" font-family="Helvetica,sans-Serif" font-size="10.00"> cacheIOTarget</text>
</g>
</g>
</svg>
