<?xml version="1.0" encoding="UTF-8" standalone="no"?>
<!DOCTYPE svg PUBLIC "-//W3C//DTD SVG 1.1//EN"
 "http://www.w3.org/Graphics/SVG/1.1/DTD/svg11.dtd">
<!-- Generated by graphviz version 2.26.3 (20100126.1600)
 -->
<!-- Title: G Pages: 1 -->
<svg width="256pt" height="350pt"
 viewBox="0.00 0.00 256.00 350.00" xmlns="http://www.w3.org/2000/svg" xmlns:xlink="http://www.w3.org/1999/xlink">
<g id="graph1" class="graph" transform="scale(1 1) rotate(0) translate(4 346)">
<title>G</title>
<polygon fill="white" stroke="white" points="-4,5 -4,-346 253,-346 253,5 -4,5"/>
<!-- Node1 -->
<g id="node1" class="node"><title>Node1</title>
<polygon fill="#bfbfbf" stroke="black" points="0.5,-160.5 0.5,-181.5 69.5,-181.5 69.5,-160.5 0.5,-160.5"/>
<text text-anchor="middle" x="35" y="-168.5" font-family="Helvetica,sans-Serif" font-size="10.00">SkRect::set</text>
</g>
<!-- Node2 -->
<g id="node3" class="node"><title>Node2</title>
<a xlink:href="../../d1/da5/class_sk_clip_stack.html#a00aabb13977bbb2d88543a41bdb5e683" target="_top" xlink:title="SkClipStack::clipDevRect">
<polygon fill="white" stroke="black" points="111.5,-320.5 111.5,-341.5 242.5,-341.5 242.5,-320.5 111.5,-320.5"/>
<text text-anchor="middle" x="177" y="-328.5" font-family="Helvetica,sans-Serif" font-size="10.00">SkClipStack::clipDevRect</text>
</a>
</g>
<!-- Node1&#45;&gt;Node2 -->
<g id="edge2" class="edge"><title>Node1&#45;&gt;Node2</title>
<path fill="none" stroke="midnightblue" d="M39.8055,-191.594C48.0306,-222.228 67.7496,-279.558 106,-311 110.65,-314.822 115.985,-317.915 121.598,-320.417"/>
<polygon fill="midnightblue" stroke="midnightblue" points="43.1265,-190.45 37.2822,-181.613 36.34,-192.166 43.1265,-190.45"/>
</g>
<!-- Node3 -->
<g id="node5" class="node"><title>Node3</title>
<a xlink:href="../../de/d49/class_sk_canvas.html#a20be0f34a3d0f8f4ad3a11501ddcd3c1" target="_top" xlink:title="SkCanvas::drawBitmapRect">
<polygon fill="white" stroke="black" points="106.5,-280.5 106.5,-301.5 247.5,-301.5 247.5,-280.5 106.5,-280.5"/>
<text text-anchor="middle" x="177" y="-288.5" font-family="Helvetica,sans-Serif" font-size="10.00">SkCanvas::drawBitmapRect</text>
</a>
</g>
<!-- Node1&#45;&gt;Node3 -->
<g id="edge4" class="edge"><title>Node1&#45;&gt;Node3</title>
<path fill="none" stroke="midnightblue" d="M43.8377,-190.618C55.0692,-213.332 76.5899,-250.27 106,-271 111.443,-274.837 117.604,-277.94 123.967,-280.449"/>
<polygon fill="midnightblue" stroke="midnightblue" points="46.9897,-189.097 39.5353,-181.568 40.6677,-192.102 46.9897,-189.097"/>
</g>
<!-- Node4 -->
<g id="node7" class="node"><title>Node4</title>
<a xlink:href="../../de/d49/class_sk_canvas.html#a9646a00be01648cb4b6206a84581e8fb" target="_top" xlink:title="SkCanvas::drawIRect">
<polygon fill="white" stroke="black" points="120.5,-240.5 120.5,-261.5 233.5,-261.5 233.5,-240.5 120.5,-240.5"/>
<text text-anchor="middle" x="177" y="-248.5" font-family="Helvetica,sans-Serif" font-size="10.00">SkCanvas::drawIRect</text>
</a>
</g>
<!-- Node1&#45;&gt;Node4 -->
<g id="edge6" class="edge"><title>Node1&#45;&gt;Node4</title>
<path fill="none" stroke="midnightblue" d="M52.1538,-189.207C65.6358,-202.533 85.5057,-220.119 106,-231 113.126,-234.783 121.044,-237.916 128.934,-240.489"/>
<polygon fill="midnightblue" stroke="midnightblue" points="54.5066,-186.608 44.9975,-181.936 49.5175,-191.518 54.5066,-186.608"/>
</g>
<!-- Node5 -->
<g id="node9" class="node"><title>Node5</title>
<a xlink:href="../../df/dfb/struct_sk_rect.html#adf327eb61b4732222a59e22e93a2840e" target="_top" xlink:title="SkRect::Make">
<polygon fill="white" stroke="black" points="137,-200.5 137,-221.5 217,-221.5 217,-200.5 137,-200.5"/>
<text text-anchor="middle" x="177" y="-208.5" font-family="Helvetica,sans-Serif" font-size="10.00">SkRect::Make</text>
</a>
</g>
<!-- Node1&#45;&gt;Node5 -->
<g id="edge8" class="edge"><title>Node1&#45;&gt;Node5</title>
<path fill="none" stroke="midnightblue" d="M79.5226,-183.542C98.8379,-188.983 121.205,-195.283 139.638,-200.475"/>
<polygon fill="midnightblue" stroke="midnightblue" points="80.3115,-180.128 69.7371,-180.785 78.4135,-186.865 80.3115,-180.128"/>
</g>
<!-- Node6 -->
<g id="node11" class="node"><title>Node6</title>
<a xlink:href="../../df/dfb/struct_sk_rect.html#ab4c409f4e78a18277098e3c7db372a93" target="_top" xlink:title="SkRect::MakeFromIRect">
<polygon fill="white" stroke="black" points="114,-160.5 114,-181.5 240,-181.5 240,-160.5 114,-160.5"/>
<text text-anchor="middle" x="177" y="-168.5" font-family="Helvetica,sans-Serif" font-size="10.00">SkRect::MakeFromIRect</text>
</a>
</g>
<!-- Node1&#45;&gt;Node6 -->
<g id="edge10" class="edge"><title>Node1&#45;&gt;Node6</title>
<path fill="none" stroke="midnightblue" d="M79.77,-171C90.5775,-171 102.328,-171 113.804,-171"/>
<polygon fill="midnightblue" stroke="midnightblue" points="79.7371,-167.5 69.7371,-171 79.7371,-174.5 79.7371,-167.5"/>
</g>
<!-- Node7 -->
<g id="node13" class="node"><title>Node7</title>
<a xlink:href="../../df/dfb/struct_sk_rect.html#add42b8235de18443f410d18ec19ec49e" target="_top" xlink:title="SkRect::MakeLTRB">
<polygon fill="white" stroke="black" points="124.5,-120.5 124.5,-141.5 229.5,-141.5 229.5,-120.5 124.5,-120.5"/>
<text text-anchor="middle" x="177" y="-128.5" font-family="Helvetica,sans-Serif" font-size="10.00">SkRect::MakeLTRB</text>
</a>
</g>
<!-- Node1&#45;&gt;Node7 -->
<g id="edge12" class="edge"><title>Node1&#45;&gt;Node7</title>
<path fill="none" stroke="midnightblue" d="M79.5226,-158.458C98.8379,-153.017 121.205,-146.717 139.638,-141.525"/>
<polygon fill="midnightblue" stroke="midnightblue" points="78.4135,-155.135 69.7371,-161.215 80.3115,-161.872 78.4135,-155.135"/>
</g>
<!-- Node8 -->
<g id="node15" class="node"><title>Node8</title>
<a xlink:href="../../df/dfb/struct_sk_rect.html#a113a25c2acb7ec298ce15ea68167857a" target="_top" xlink:title="SkRect::MakeSize">
<polygon fill="white" stroke="black" points="127.5,-80.5 127.5,-101.5 226.5,-101.5 226.5,-80.5 127.5,-80.5"/>
<text text-anchor="middle" x="177" y="-88.5" font-family="Helvetica,sans-Serif" font-size="10.00">SkRect::MakeSize</text>
</a>
</g>
<!-- Node1&#45;&gt;Node8 -->
<g id="edge14" class="edge"><title>Node1&#45;&gt;Node8</title>
<path fill="none" stroke="midnightblue" d="M52.1538,-152.793C65.6358,-139.467 85.5057,-121.881 106,-111 113.126,-107.217 121.044,-104.084 128.934,-101.511"/>
<polygon fill="midnightblue" stroke="midnightblue" points="49.5175,-150.482 44.9975,-160.064 54.5066,-155.392 49.5175,-150.482"/>
</g>
<!-- Node9 -->
<g id="node17" class="node"><title>Node9</title>
<a xlink:href="../../df/dfb/struct_sk_rect.html#a14b9ebbba5f7ba2f1969f6ce7a0ce880" target="_top" xlink:title="SkRect::MakeWH">
<polygon fill="white" stroke="black" points="128.5,-40.5 128.5,-61.5 225.5,-61.5 225.5,-40.5 128.5,-40.5"/>
<text text-anchor="middle" x="177" y="-48.5" font-family="Helvetica,sans-Serif" font-size="10.00">SkRect::MakeWH</text>
</a>
</g>
<!-- Node1&#45;&gt;Node9 -->
<g id="edge16" class="edge"><title>Node1&#45;&gt;Node9</title>
<path fill="none" stroke="midnightblue" d="M43.8377,-151.382C55.0692,-128.668 76.5899,-91.7301 106,-71 112.699,-66.2781 120.486,-62.6672 128.398,-59.9068"/>
<polygon fill="midnightblue" stroke="midnightblue" points="40.6677,-149.898 39.5353,-160.432 46.9897,-152.903 40.6677,-149.898"/>
</g>
<!-- Node10 -->
<g id="node19" class="node"><title>Node10</title>
<a xlink:href="../../df/dfb/struct_sk_rect.html#acd4dc126abbfb9706e3352e2441b8fc4" target="_top" xlink:title="SkRect::MakeXYWH">
<polygon fill="white" stroke="black" points="122,-0.5 122,-21.5 232,-21.5 232,-0.5 122,-0.5"/>
<text text-anchor="middle" x="177" y="-8.5" font-family="Helvetica,sans-Serif" font-size="10.00">SkRect::MakeXYWH</text>
</a>
</g>
<!-- Node1&#45;&gt;Node10 -->
<g id="edge18" class="edge"><title>Node1&#45;&gt;Node10</title>
<path fill="none" stroke="midnightblue" d="M39.8055,-150.406C48.0306,-119.772 67.7496,-62.4418 106,-31 110.749,-27.0967 116.213,-23.954 121.957,-21.4239"/>
<polygon fill="midnightblue" stroke="midnightblue" points="36.34,-149.834 37.2822,-160.387 43.1265,-151.55 36.34,-149.834"/>
</g>
</g>
</svg>
