<?xml version="1.0" encoding="UTF-8" standalone="no"?>
<!DOCTYPE svg PUBLIC "-//W3C//DTD SVG 1.1//EN"
 "http://www.w3.org/Graphics/SVG/1.1/DTD/svg11.dtd">
<!-- Generated by graphviz version 2.26.3 (20100126.1600)
 -->
<!-- Title: G Pages: 1 -->
<svg width="199pt" height="166pt"
 viewBox="0.00 0.00 199.00 166.00" xmlns="http://www.w3.org/2000/svg" xmlns:xlink="http://www.w3.org/1999/xlink">
<g id="graph1" class="graph" transform="scale(1 1) rotate(0) translate(4 162)">
<title>G</title>
<polygon fill="white" stroke="white" points="-4,5 -4,-162 196,-162 196,5 -4,5"/>
<!-- Node1 -->
<g id="node1" class="node"><title>Node1</title>
<polygon fill="#bfbfbf" stroke="black" points="0,-0.5 0,-21.5 122,-21.5 122,-0.5 0,-0.5"/>
<text text-anchor="middle" x="61" y="-8.5" font-family="Helvetica,sans-Serif" font-size="10.00">nsITouchEventReceiver</text>
</g>
<!-- Node2 -->
<g id="node2" class="node"><title>Node2</title>
<a xlink:href="../../d4/d6a/classns_i_supports.html" target="_top" xlink:title="nsISupports">
<polygon fill="white" stroke="black" points="26.5,-136.5 26.5,-157.5 95.5,-157.5 95.5,-136.5 26.5,-136.5"/>
<text text-anchor="middle" x="61" y="-144.5" font-family="Helvetica,sans-Serif" font-size="10.00">nsISupports</text>
</a>
</g>
<!-- Node2&#45;&gt;Node1 -->
<g id="edge2" class="edge"><title>Node2&#45;&gt;Node1</title>
<path fill="none" stroke="midnightblue" d="M55.9883,-126.319C53.3289,-96.9201 53.7209,-44.1209 57.1646,-21.6221"/>
<polygon fill="midnightblue" stroke="midnightblue" points="52.5208,-126.802 57.157,-136.328 59.4736,-125.99 52.5208,-126.802"/>
</g>
<!-- Node2&#45;&gt;Node1 -->
<g id="edge4" class="edge"><title>Node2&#45;&gt;Node1</title>
<path fill="none" stroke="midnightblue" d="M66.0117,-126.319C68.6711,-96.9201 68.2791,-44.1209 64.8354,-21.6221"/>
<polygon fill="midnightblue" stroke="midnightblue" points="62.5264,-125.99 64.843,-136.328 69.4792,-126.802 62.5264,-125.99"/>
</g>
<!-- Node3 -->
<g id="node5" class="node"><title>Node3</title>
<a xlink:href="../../d1/d94/class_j_s_1_1_value.html" target="_top" xlink:title="JS::Value">
<polygon fill="white" stroke="black" points="112.5,-136.5 112.5,-157.5 171.5,-157.5 171.5,-136.5 112.5,-136.5"/>
<text text-anchor="middle" x="142" y="-144.5" font-family="Helvetica,sans-Serif" font-size="10.00">JS::Value</text>
</a>
</g>
<!-- Node3&#45;&gt;Node1 -->
<g id="edge6" class="edge"><title>Node3&#45;&gt;Node1</title>
<path fill="none" stroke="#9a32cd" stroke-dasharray="5,2" d="M132.485,-127.035C121.728,-105.084 103.199,-69.0734 84,-40 79.8216,-33.6725 74.6085,-27.0167 70.2023,-21.6797"/>
<polygon fill="#9a32cd" stroke="#9a32cd" points="129.474,-128.847 136.983,-136.322 135.774,-125.796 129.474,-128.847"/>
<text text-anchor="middle" x="159" y="-109" font-family="Helvetica,sans-Serif" font-size="10.00"> ontouchstart</text>
<text text-anchor="middle" x="159" y="-96" font-family="Helvetica,sans-Serif" font-size="10.00">ontouchend</text>
<text text-anchor="middle" x="159" y="-83" font-family="Helvetica,sans-Serif" font-size="10.00">ontouchleave</text>
<text text-anchor="middle" x="159" y="-70" font-family="Helvetica,sans-Serif" font-size="10.00">ontouchmove</text>
<text text-anchor="middle" x="159" y="-57" font-family="Helvetica,sans-Serif" font-size="10.00">ontouchenter</text>
<text text-anchor="middle" x="159" y="-44" font-family="Helvetica,sans-Serif" font-size="10.00">ontouchcancel</text>
</g>
</g>
</svg>
