<?xml version="1.0" encoding="UTF-8" standalone="no"?>
<!DOCTYPE svg PUBLIC "-//W3C//DTD SVG 1.1//EN"
 "http://www.w3.org/Graphics/SVG/1.1/DTD/svg11.dtd">
<!-- Generated by graphviz version 2.26.3 (20100126.1600)
 -->
<!-- Title: G Pages: 1 -->
<svg width="262pt" height="262pt"
 viewBox="0.00 0.00 262.00 262.00" xmlns="http://www.w3.org/2000/svg" xmlns:xlink="http://www.w3.org/1999/xlink">
<g id="graph1" class="graph" transform="scale(1 1) rotate(0) translate(4 258)">
<title>G</title>
<polygon fill="white" stroke="white" points="-4,5 -4,-258 259,-258 259,5 -4,5"/>
<!-- Node1 -->
<g id="node1" class="node"><title>Node1</title>
<polygon fill="#bfbfbf" stroke="black" points="19.5,-58.5 19.5,-79.5 234.5,-79.5 234.5,-58.5 19.5,-58.5"/>
<text text-anchor="middle" x="127" y="-66.5" font-family="Helvetica,sans-Serif" font-size="10.00">mozilla::dom::DeviceStorageChangeEventInit</text>
</g>
<!-- Node5 -->
<g id="node9" class="node"><title>Node5</title>
<a xlink:href="../../d8/d1a/structmozilla_1_1dom_1_1_device_storage_change_event_init_initializer.html" target="_top" xlink:title="mozilla::dom::DeviceStorageChangeEventInitInitializer">
<polygon fill="white" stroke="black" points="0,-0.5 0,-21.5 254,-21.5 254,-0.5 0,-0.5"/>
<text text-anchor="middle" x="127" y="-8.5" font-family="Helvetica,sans-Serif" font-size="10.00">mozilla::dom::DeviceStorageChangeEventInitInitializer</text>
</a>
</g>
<!-- Node1&#45;&gt;Node5 -->
<g id="edge8" class="edge"><title>Node1&#45;&gt;Node5</title>
<path fill="none" stroke="midnightblue" d="M127,-48.1906C127,-39.1684 127,-28.9941 127,-21.5707"/>
<polygon fill="midnightblue" stroke="midnightblue" points="123.5,-48.3619 127,-58.3619 130.5,-48.3619 123.5,-48.3619"/>
</g>
<!-- Node2 -->
<g id="node2" class="node"><title>Node2</title>
<a xlink:href="../../d8/d68/structmozilla_1_1dom_1_1_event_init.html" target="_top" xlink:title="mozilla::dom::EventInit">
<polygon fill="white" stroke="black" points="68.5,-116.5 68.5,-137.5 185.5,-137.5 185.5,-116.5 68.5,-116.5"/>
<text text-anchor="middle" x="127" y="-124.5" font-family="Helvetica,sans-Serif" font-size="10.00">mozilla::dom::EventInit</text>
</a>
</g>
<!-- Node2&#45;&gt;Node1 -->
<g id="edge2" class="edge"><title>Node2&#45;&gt;Node1</title>
<path fill="none" stroke="midnightblue" d="M127,-106.191C127,-97.1684 127,-86.9941 127,-79.5707"/>
<polygon fill="midnightblue" stroke="midnightblue" points="123.5,-106.362 127,-116.362 130.5,-106.362 123.5,-106.362"/>
</g>
<!-- Node3 -->
<g id="node4" class="node"><title>Node3</title>
<a xlink:href="../../d5/d9f/structmozilla_1_1dom_1_1_main_thread_dictionary_base.html" target="_top" xlink:title="mozilla::dom::MainThreadDictionaryBase">
<polygon fill="white" stroke="black" points="29,-174.5 29,-195.5 225,-195.5 225,-174.5 29,-174.5"/>
<text text-anchor="middle" x="127" y="-182.5" font-family="Helvetica,sans-Serif" font-size="10.00">mozilla::dom::MainThreadDictionaryBase</text>
</a>
</g>
<!-- Node3&#45;&gt;Node2 -->
<g id="edge4" class="edge"><title>Node3&#45;&gt;Node2</title>
<path fill="none" stroke="midnightblue" d="M127,-164.191C127,-155.168 127,-144.994 127,-137.571"/>
<polygon fill="midnightblue" stroke="midnightblue" points="123.5,-164.362 127,-174.362 130.5,-164.362 123.5,-164.362"/>
</g>
<!-- Node4 -->
<g id="node6" class="node"><title>Node4</title>
<a xlink:href="../../d6/d60/structmozilla_1_1dom_1_1_dictionary_base.html" target="_top" xlink:title="mozilla::dom::DictionaryBase">
<polygon fill="white" stroke="black" points="54.5,-232.5 54.5,-253.5 199.5,-253.5 199.5,-232.5 54.5,-232.5"/>
<text text-anchor="middle" x="127" y="-240.5" font-family="Helvetica,sans-Serif" font-size="10.00">mozilla::dom::DictionaryBase</text>
</a>
</g>
<!-- Node4&#45;&gt;Node3 -->
<g id="edge6" class="edge"><title>Node4&#45;&gt;Node3</title>
<path fill="none" stroke="midnightblue" d="M127,-222.191C127,-213.168 127,-202.994 127,-195.571"/>
<polygon fill="midnightblue" stroke="midnightblue" points="123.5,-222.362 127,-232.362 130.5,-222.362 123.5,-222.362"/>
</g>
</g>
</svg>
