<?xml version="1.0" encoding="UTF-8" standalone="no"?>
<!DOCTYPE svg PUBLIC "-//W3C//DTD SVG 1.1//EN"
 "http://www.w3.org/Graphics/SVG/1.1/DTD/svg11.dtd">
<!-- Generated by graphviz version 2.26.3 (20100126.1600)
 -->
<!-- Title: G Pages: 1 -->
<!--zoomable 320 -->
<svg id="main" version="1.1" xmlns="http://www.w3.org/2000/svg" xmlns:xlink="http://www.w3.org/1999/xlink" xml:space="preserve" onload="init(evt)">
        <defs>
                <circle id="rim" cx="0" cy="0" r="7"/>
                <circle id="rim2" cx="0" cy="0" r="3.5"/>
                <g id="zoomPlus">
                        <use xlink:href="#rim" fill="#404040">
                                <set attributeName="fill" to="#808080" begin="zoomplus.mouseover" end="zoomplus.mouseout"/>
                        </use>
                        <path d="M-4,0h8M0,-4v8" fill="none" stroke="white" stroke-width="1.5" pointer-events="none"/>
                </g>
                <g id="zoomMin">
                        <use xlink:href="#rim" fill="#404040">
                                <set attributeName="fill" to="#808080" begin="zoomminus.mouseover" end="zoomminus.mouseout"/>
                        </use>
                        <path d="M-4,0h8" fill="none" stroke="white" stroke-width="1.5" pointer-events="none"/>
                </g>
                <g id="dirArrow">
                        <path fill="none" stroke="white" stroke-width="1.5" d="M0,-3.0v7 M-2.5,-0.5L0,-3.0L2.5,-0.5"/>
                </g>
               <g id="resetDef">
                       <use xlink:href="#rim2" fill="#404040">
                               <set attributeName="fill" to="#808080" begin="reset.mouseover" end="reset.mouseout"/>
                       </use>
               </g>
        </defs>

<script type="text/javascript">
var viewWidth = 5864;
var viewHeight = 320;
var sectionId = 'dynsection-1';
</script>
<script xlink:href="../../svgpan.js"/>
<svg id="graph" class="graph">
<g id="viewport">
<title>G</title>
<polygon fill="white" stroke="white" points="-4,5 -4,-316 5861.07,-316 5861.07,5 -4,5"/>
<!-- Node1 -->
<g id="node1" class="node"><title>Node1</title>
<polygon fill="#bfbfbf" stroke="black" points="3966.07,-290.5 3966.07,-311.5 4368.07,-311.5 4368.07,-290.5 3966.07,-290.5"/>
<text text-anchor="middle" x="4167.07" y="-298.5" font-family="Helvetica,sans-Serif" font-size="10.00">/home/aoi/Documents/FxOS/B2G/gaia/xulrunner&#45;sdk/include/nsInterfaceRequestorAgg.h</text>
</g>
<!-- Node2 -->
<g id="node3" class="node"><title>Node2</title>
<a xlink:href="../../d5/d01/_x_p_c_o_m_8h.html" target="_top" xlink:title="/home/aoi/Documents/FxOS/B2G/gaia/xulrunner&#45;sdk/include/mozilla/XPCOM.h">
<polygon fill="white" stroke="black" points="3477.07,-232.5 3477.07,-253.5 3839.07,-253.5 3839.07,-232.5 3477.07,-232.5"/>
<text text-anchor="middle" x="3658.07" y="-240.5" font-family="Helvetica,sans-Serif" font-size="10.00">/home/aoi/Documents/FxOS/B2G/gaia/xulrunner&#45;sdk/include/mozilla/XPCOM.h</text>
</a>
</g>
<!-- Node1&#45;&gt;Node2 -->
<g id="edge2" class="edge"><title>Node1&#45;&gt;Node2</title>
<path fill="none" stroke="midnightblue" d="M4064.74,-289.34C3972.85,-278.868 3839.12,-263.63 3750.42,-253.523"/>
<polygon fill="midnightblue" stroke="midnightblue" points="4064.56,-292.842 4074.9,-290.497 4065.36,-285.887 4064.56,-292.842"/>
</g>
<!-- Node20 -->
<g id="node41" class="node"><title>Node20</title>
<a xlink:href="../../d9/d5b/ns_net_util_8h.html" target="_top" xlink:title="/home/aoi/Documents/FxOS/B2G/gaia/xulrunner&#45;sdk/include/nsNetUtil.h">
<polygon fill="white" stroke="black" points="4510.07,-232.5 4510.07,-253.5 4842.07,-253.5 4842.07,-232.5 4510.07,-232.5"/>
<text text-anchor="middle" x="4676.07" y="-240.5" font-family="Helvetica,sans-Serif" font-size="10.00">/home/aoi/Documents/FxOS/B2G/gaia/xulrunner&#45;sdk/include/nsNetUtil.h</text>
</a>
</g>
<!-- Node1&#45;&gt;Node20 -->
<g id="edge42" class="edge"><title>Node1&#45;&gt;Node20</title>
<path fill="none" stroke="midnightblue" d="M4269.4,-289.34C4361.3,-278.868 4495.03,-263.63 4583.72,-253.523"/>
<polygon fill="midnightblue" stroke="midnightblue" points="4268.79,-285.887 4259.25,-290.497 4269.58,-292.842 4268.79,-285.887"/>
</g>
<!-- Node3 -->
<g id="node5" class="node"><title>Node3</title>
<a xlink:href="../../d0/d94/_media_resource_8h.html" target="_top" xlink:title="/home/aoi/Documents/FxOS/B2G/gaia/xulrunner&#45;sdk/include/MediaResource.h">
<polygon fill="white" stroke="black" points="2949.57,-174.5 2949.57,-195.5 3308.57,-195.5 3308.57,-174.5 2949.57,-174.5"/>
<text text-anchor="middle" x="3129.07" y="-182.5" font-family="Helvetica,sans-Serif" font-size="10.00">/home/aoi/Documents/FxOS/B2G/gaia/xulrunner&#45;sdk/include/MediaResource.h</text>
</a>
</g>
<!-- Node2&#45;&gt;Node3 -->
<g id="edge4" class="edge"><title>Node2&#45;&gt;Node3</title>
<path fill="none" stroke="midnightblue" d="M3552.3,-231.403C3456.78,-220.93 3317.42,-205.65 3225.05,-195.523"/>
<polygon fill="midnightblue" stroke="midnightblue" points="3551.95,-234.886 3562.27,-232.497 3552.72,-227.928 3551.95,-234.886"/>
</g>
<!-- Node19 -->
<g id="node39" class="node"><title>Node19</title>
<a xlink:href="../../d4/d00/_i_o_interposer_8h.html" target="_top" xlink:title="/home/aoi/Documents/FxOS/B2G/gaia/xulrunner&#45;sdk/include/mozilla/IOInterposer.h">
<polygon fill="white" stroke="black" points="3468.57,-174.5 3468.57,-195.5 3847.57,-195.5 3847.57,-174.5 3468.57,-174.5"/>
<text text-anchor="middle" x="3658.07" y="-182.5" font-family="Helvetica,sans-Serif" font-size="10.00">/home/aoi/Documents/FxOS/B2G/gaia/xulrunner&#45;sdk/include/mozilla/IOInterposer.h</text>
</a>
</g>
<!-- Node2&#45;&gt;Node19 -->
<g id="edge40" class="edge"><title>Node2&#45;&gt;Node19</title>
<path fill="none" stroke="midnightblue" d="M3658.07,-222.191C3658.07,-213.168 3658.07,-202.994 3658.07,-195.571"/>
<polygon fill="midnightblue" stroke="midnightblue" points="3654.57,-222.362 3658.07,-232.362 3661.57,-222.362 3654.57,-222.362"/>
</g>
<!-- Node4 -->
<g id="node7" class="node"><title>Node4</title>
<a xlink:href="../../db/d29/_media_decoder_8h.html" target="_top" xlink:title="/home/aoi/Documents/FxOS/B2G/gaia/xulrunner&#45;sdk/include/MediaDecoder.h">
<polygon fill="white" stroke="black" points="951.073,-116.5 951.073,-137.5 1305.07,-137.5 1305.07,-116.5 951.073,-116.5"/>
<text text-anchor="middle" x="1128.07" y="-124.5" font-family="Helvetica,sans-Serif" font-size="10.00">/home/aoi/Documents/FxOS/B2G/gaia/xulrunner&#45;sdk/include/MediaDecoder.h</text>
</a>
</g>
<!-- Node3&#45;&gt;Node4 -->
<g id="edge6" class="edge"><title>Node3&#45;&gt;Node4</title>
<path fill="none" stroke="midnightblue" d="M2939.13,-179.495C2552.8,-168.296 1680.35,-143.008 1305.11,-132.132"/>
<polygon fill="midnightblue" stroke="midnightblue" points="2939.2,-182.998 2949.29,-179.789 2939.4,-176.001 2939.2,-182.998"/>
</g>
<!-- Node12 -->
<g id="node24" class="node"><title>Node12</title>
<a xlink:href="../../d3/de9/_media_decoder_reader_8h.html" target="_top" xlink:title="/home/aoi/Documents/FxOS/B2G/gaia/xulrunner&#45;sdk/include/MediaDecoderReader.h">
<polygon fill="white" stroke="black" points="2793.07,-116.5 2793.07,-137.5 3179.07,-137.5 3179.07,-116.5 2793.07,-116.5"/>
<text text-anchor="middle" x="2986.07" y="-124.5" font-family="Helvetica,sans-Serif" font-size="10.00">/home/aoi/Documents/FxOS/B2G/gaia/xulrunner&#45;sdk/include/MediaDecoderReader.h</text>
</a>
</g>
<!-- Node3&#45;&gt;Node12 -->
<g id="edge24" class="edge"><title>Node3&#45;&gt;Node12</title>
<path fill="none" stroke="midnightblue" d="M3093.61,-170.615C3068.39,-160.389 3035.09,-146.88 3012.26,-137.621"/>
<polygon fill="midnightblue" stroke="midnightblue" points="3092.59,-173.981 3103.18,-174.497 3095.23,-167.495 3092.59,-173.981"/>
</g>
<!-- Node18 -->
<g id="node37" class="node"><title>Node18</title>
<a xlink:href="../../d4/d1e/_buffer_media_resource_8h.html" target="_top" xlink:title="/home/aoi/Documents/FxOS/B2G/gaia/xulrunner&#45;sdk/include/BufferMediaResource.h">
<polygon fill="white" stroke="black" points="3197.07,-116.5 3197.07,-137.5 3583.07,-137.5 3583.07,-116.5 3197.07,-116.5"/>
<text text-anchor="middle" x="3390.07" y="-124.5" font-family="Helvetica,sans-Serif" font-size="10.00">/home/aoi/Documents/FxOS/B2G/gaia/xulrunner&#45;sdk/include/BufferMediaResource.h</text>
</a>
</g>
<!-- Node3&#45;&gt;Node18 -->
<g id="edge38" class="edge"><title>Node3&#45;&gt;Node18</title>
<path fill="none" stroke="midnightblue" d="M3186.34,-172.274C3233.23,-161.855 3298.76,-147.292 3342.72,-137.523"/>
<polygon fill="midnightblue" stroke="midnightblue" points="3185.34,-168.911 3176.34,-174.497 3186.86,-175.744 3185.34,-168.911"/>
</g>
<!-- Node5 -->
<g id="node9" class="node"><title>Node5</title>
<a xlink:href="../../dc/dae/_audio_available_event_manager_8h.html" target="_top" xlink:title="/home/aoi/Documents/FxOS/B2G/gaia/xulrunner&#45;sdk/include/AudioAvailableEventManager.h">
<polygon fill="white" stroke="black" points="1879.57,-58.5 1879.57,-79.5 2298.57,-79.5 2298.57,-58.5 1879.57,-58.5"/>
<text text-anchor="middle" x="2089.07" y="-66.5" font-family="Helvetica,sans-Serif" font-size="10.00">/home/aoi/Documents/FxOS/B2G/gaia/xulrunner&#45;sdk/include/AudioAvailableEventManager.h</text>
</a>
</g>
<!-- Node4&#45;&gt;Node5 -->
<g id="edge8" class="edge"><title>Node4&#45;&gt;Node5</title>
<path fill="none" stroke="midnightblue" d="M1312.12,-115.892C1485.8,-105.41 1744.29,-89.8092 1914.72,-79.5231"/>
<polygon fill="midnightblue" stroke="midnightblue" points="1311.87,-112.4 1302.1,-116.497 1312.3,-119.388 1311.87,-112.4"/>
</g>
<!-- Node6 -->
<g id="node11" class="node"><title>Node6</title>
<a xlink:href="../../dc/d47/_media_decoder_state_machine_8h.html" target="_top" xlink:title="/home/aoi/Documents/FxOS/B2G/gaia/xulrunner&#45;sdk/include/MediaDecoderStateMachine.h">
<polygon fill="white" stroke="black" points="830.073,-0.5 830.073,-21.5 1244.07,-21.5 1244.07,-0.5 830.073,-0.5"/>
<text text-anchor="middle" x="1037.07" y="-8.5" font-family="Helvetica,sans-Serif" font-size="10.00">/home/aoi/Documents/FxOS/B2G/gaia/xulrunner&#45;sdk/include/MediaDecoderStateMachine.h</text>
</a>
</g>
<!-- Node4&#45;&gt;Node6 -->
<g id="edge14" class="edge"><title>Node4&#45;&gt;Node6</title>
<path fill="none" stroke="midnightblue" d="M940.818,-125.834C629.652,-122.965 36.8689,-113.155 5.07262,-80 -1.69521,-72.943 -1.6822,-65.0695 5.07262,-58 33.0863,-28.6815 536.692,-17.33 829.852,-13.1925"/>
<polygon fill="midnightblue" stroke="midnightblue" points="940.822,-129.334 950.854,-125.925 940.886,-122.334 940.822,-129.334"/>
</g>
<!-- Node7 -->
<g id="node13" class="node"><title>Node7</title>
<a xlink:href="../../d4/d26/_g_streamer_decoder_8h.html" target="_top" xlink:title="/home/aoi/Documents/FxOS/B2G/gaia/xulrunner&#45;sdk/include/GStreamerDecoder.h">
<polygon fill="white" stroke="black" points="13.5726,-58.5 13.5726,-79.5 388.573,-79.5 388.573,-58.5 13.5726,-58.5"/>
<text text-anchor="middle" x="201.073" y="-66.5" font-family="Helvetica,sans-Serif" font-size="10.00">/home/aoi/Documents/FxOS/B2G/gaia/xulrunner&#45;sdk/include/GStreamerDecoder.h</text>
</a>
</g>
<!-- Node4&#45;&gt;Node7 -->
<g id="edge12" class="edge"><title>Node4&#45;&gt;Node7</title>
<path fill="none" stroke="midnightblue" d="M950.036,-115.861C782.509,-105.379 533.497,-89.799 369.26,-79.5231"/>
<polygon fill="midnightblue" stroke="midnightblue" points="950.001,-119.365 960.2,-116.497 950.438,-112.379 950.001,-119.365"/>
</g>
<!-- Node8 -->
<g id="node16" class="node"><title>Node8</title>
<a xlink:href="../../db/d01/_ogg_decoder_8h.html" target="_top" xlink:title="/home/aoi/Documents/FxOS/B2G/gaia/xulrunner&#45;sdk/include/OggDecoder.h">
<polygon fill="white" stroke="black" points="406.073,-58.5 406.073,-79.5 752.073,-79.5 752.073,-58.5 406.073,-58.5"/>
<text text-anchor="middle" x="579.073" y="-66.5" font-family="Helvetica,sans-Serif" font-size="10.00">/home/aoi/Documents/FxOS/B2G/gaia/xulrunner&#45;sdk/include/OggDecoder.h</text>
</a>
</g>
<!-- Node4&#45;&gt;Node8 -->
<g id="edge16" class="edge"><title>Node4&#45;&gt;Node8</title>
<path fill="none" stroke="midnightblue" d="M1018.6,-115.435C919.46,-104.961 774.637,-89.6607 678.679,-79.5231"/>
<polygon fill="midnightblue" stroke="midnightblue" points="1018.34,-118.927 1028.65,-116.497 1019.08,-111.965 1018.34,-118.927"/>
</g>
<!-- Node9 -->
<g id="node18" class="node"><title>Node9</title>
<a xlink:href="../../d8/dff/_raw_decoder_8h.html" target="_top" xlink:title="/home/aoi/Documents/FxOS/B2G/gaia/xulrunner&#45;sdk/include/RawDecoder.h">
<polygon fill="white" stroke="black" points="770.073,-58.5 770.073,-79.5 1118.07,-79.5 1118.07,-58.5 770.073,-58.5"/>
<text text-anchor="middle" x="944.073" y="-66.5" font-family="Helvetica,sans-Serif" font-size="10.00">/home/aoi/Documents/FxOS/B2G/gaia/xulrunner&#45;sdk/include/RawDecoder.h</text>
</a>
</g>
<!-- Node4&#45;&gt;Node9 -->
<g id="edge18" class="edge"><title>Node4&#45;&gt;Node9</title>
<path fill="none" stroke="midnightblue" d="M1084.97,-113.413C1052.14,-103.065 1007.6,-89.0258 977.456,-79.5231"/>
<polygon fill="midnightblue" stroke="midnightblue" points="1084.16,-116.828 1094.75,-116.497 1086.27,-110.152 1084.16,-116.828"/>
</g>
<!-- Node10 -->
<g id="node20" class="node"><title>Node10</title>
<a xlink:href="../../df/df2/_wave_decoder_8h.html" target="_top" xlink:title="/home/aoi/Documents/FxOS/B2G/gaia/xulrunner&#45;sdk/include/WaveDecoder.h">
<polygon fill="white" stroke="black" points="1135.57,-58.5 1135.57,-79.5 1488.57,-79.5 1488.57,-58.5 1135.57,-58.5"/>
<text text-anchor="middle" x="1312.07" y="-66.5" font-family="Helvetica,sans-Serif" font-size="10.00">/home/aoi/Documents/FxOS/B2G/gaia/xulrunner&#45;sdk/include/WaveDecoder.h</text>
</a>
</g>
<!-- Node4&#45;&gt;Node10 -->
<g id="edge20" class="edge"><title>Node4&#45;&gt;Node10</title>
<path fill="none" stroke="midnightblue" d="M1171.18,-113.413C1204.01,-103.065 1248.54,-89.0258 1278.69,-79.5231"/>
<polygon fill="midnightblue" stroke="midnightblue" points="1169.88,-110.152 1161.39,-116.497 1171.98,-116.828 1169.88,-110.152"/>
</g>
<!-- Node11 -->
<g id="node22" class="node"><title>Node11</title>
<a xlink:href="../../d8/de6/_web_m_decoder_8h.html" target="_top" xlink:title="/home/aoi/Documents/FxOS/B2G/gaia/xulrunner&#45;sdk/include/WebMDecoder.h">
<polygon fill="white" stroke="black" points="1506.07,-58.5 1506.07,-79.5 1862.07,-79.5 1862.07,-58.5 1506.07,-58.5"/>
<text text-anchor="middle" x="1684.07" y="-66.5" font-family="Helvetica,sans-Serif" font-size="10.00">/home/aoi/Documents/FxOS/B2G/gaia/xulrunner&#45;sdk/include/WebMDecoder.h</text>
</a>
</g>
<!-- Node4&#45;&gt;Node11 -->
<g id="edge22" class="edge"><title>Node4&#45;&gt;Node11</title>
<path fill="none" stroke="midnightblue" d="M1238.94,-115.435C1339.35,-104.961 1486.01,-89.6607 1583.2,-79.5231"/>
<polygon fill="midnightblue" stroke="midnightblue" points="1238.34,-111.978 1228.76,-116.497 1239.07,-118.94 1238.34,-111.978"/>
</g>
<!-- Node5&#45;&gt;Node6 -->
<g id="edge10" class="edge"><title>Node5&#45;&gt;Node6</title>
<path fill="none" stroke="midnightblue" d="M1888.45,-57.939C1698.32,-47.4566 1414.79,-31.8246 1227.94,-21.5231"/>
<polygon fill="midnightblue" stroke="midnightblue" points="1888.39,-61.4407 1898.56,-58.4966 1888.77,-54.4514 1888.39,-61.4407"/>
</g>
<!-- Node12&#45;&gt;Node5 -->
<g id="edge26" class="edge"><title>Node12&#45;&gt;Node5</title>
<path fill="none" stroke="midnightblue" d="M2813.56,-115.845C2651.45,-105.363 2410.66,-89.7938 2251.82,-79.5231"/>
<polygon fill="midnightblue" stroke="midnightblue" points="2813.43,-119.344 2823.63,-116.497 2813.88,-112.359 2813.43,-119.344"/>
</g>
<!-- Node13 -->
<g id="node27" class="node"><title>Node13</title>
<a xlink:href="../../d2/d00/_g_streamer_reader_8h.html" target="_top" xlink:title="/home/aoi/Documents/FxOS/B2G/gaia/xulrunner&#45;sdk/include/GStreamerReader.h">
<polygon fill="white" stroke="black" points="2316.07,-58.5 2316.07,-79.5 2686.07,-79.5 2686.07,-58.5 2316.07,-58.5"/>
<text text-anchor="middle" x="2501.07" y="-66.5" font-family="Helvetica,sans-Serif" font-size="10.00">/home/aoi/Documents/FxOS/B2G/gaia/xulrunner&#45;sdk/include/GStreamerReader.h</text>
</a>
</g>
<!-- Node12&#45;&gt;Node13 -->
<g id="edge28" class="edge"><title>Node12&#45;&gt;Node13</title>
<path fill="none" stroke="midnightblue" d="M2888.3,-115.308C2800.75,-104.837 2673.5,-89.6198 2589.07,-79.5231"/>
<polygon fill="midnightblue" stroke="midnightblue" points="2887.9,-118.784 2898.24,-116.497 2888.73,-111.834 2887.9,-118.784"/>
</g>
<!-- Node14 -->
<g id="node29" class="node"><title>Node14</title>
<a xlink:href="../../df/d61/_ogg_reader_8h.html" target="_top" xlink:title="/home/aoi/Documents/FxOS/B2G/gaia/xulrunner&#45;sdk/include/OggReader.h">
<polygon fill="white" stroke="black" points="2703.57,-58.5 2703.57,-79.5 3044.57,-79.5 3044.57,-58.5 2703.57,-58.5"/>
<text text-anchor="middle" x="2874.07" y="-66.5" font-family="Helvetica,sans-Serif" font-size="10.00">/home/aoi/Documents/FxOS/B2G/gaia/xulrunner&#45;sdk/include/OggReader.h</text>
</a>
</g>
<!-- Node12&#45;&gt;Node14 -->
<g id="edge30" class="edge"><title>Node12&#45;&gt;Node14</title>
<path fill="none" stroke="midnightblue" d="M2956.71,-111.794C2937.17,-101.675 2911.99,-88.6338 2894.58,-79.6212"/>
<polygon fill="midnightblue" stroke="midnightblue" points="2955.3,-115.006 2965.79,-116.497 2958.52,-108.79 2955.3,-115.006"/>
</g>
<!-- Node15 -->
<g id="node31" class="node"><title>Node15</title>
<a xlink:href="../../d0/dbf/_raw_reader_8h.html" target="_top" xlink:title="/home/aoi/Documents/FxOS/B2G/gaia/xulrunner&#45;sdk/include/RawReader.h">
<polygon fill="white" stroke="black" points="3061.57,-58.5 3061.57,-79.5 3404.57,-79.5 3404.57,-58.5 3061.57,-58.5"/>
<text text-anchor="middle" x="3233.07" y="-66.5" font-family="Helvetica,sans-Serif" font-size="10.00">/home/aoi/Documents/FxOS/B2G/gaia/xulrunner&#45;sdk/include/RawReader.h</text>
</a>
</g>
<!-- Node12&#45;&gt;Node15 -->
<g id="edge32" class="edge"><title>Node12&#45;&gt;Node15</title>
<path fill="none" stroke="midnightblue" d="M3040.55,-114.208C3084.9,-103.794 3146.74,-89.2716 3188.26,-79.5231"/>
<polygon fill="midnightblue" stroke="midnightblue" points="3039.74,-110.803 3030.8,-116.497 3041.34,-117.618 3039.74,-110.803"/>
</g>
<!-- Node16 -->
<g id="node33" class="node"><title>Node16</title>
<a xlink:href="../../d8/dd7/_wave_reader_8h.html" target="_top" xlink:title="/home/aoi/Documents/FxOS/B2G/gaia/xulrunner&#45;sdk/include/WaveReader.h">
<polygon fill="white" stroke="black" points="3422.07,-58.5 3422.07,-79.5 3770.07,-79.5 3770.07,-58.5 3422.07,-58.5"/>
<text text-anchor="middle" x="3596.07" y="-66.5" font-family="Helvetica,sans-Serif" font-size="10.00">/home/aoi/Documents/FxOS/B2G/gaia/xulrunner&#45;sdk/include/WaveReader.h</text>
</a>
</g>
<!-- Node12&#45;&gt;Node16 -->
<g id="edge34" class="edge"><title>Node12&#45;&gt;Node16</title>
<path fill="none" stroke="midnightblue" d="M3106.7,-115.53C3216.89,-105.054 3378.46,-89.6914 3485.4,-79.5231"/>
<polygon fill="midnightblue" stroke="midnightblue" points="3106.16,-112.066 3096.54,-116.497 3106.83,-119.034 3106.16,-112.066"/>
</g>
<!-- Node17 -->
<g id="node35" class="node"><title>Node17</title>
<a xlink:href="../../d3/d79/_web_m_reader_8h.html" target="_top" xlink:title="/home/aoi/Documents/FxOS/B2G/gaia/xulrunner&#45;sdk/include/WebMReader.h">
<polygon fill="white" stroke="black" points="3787.57,-58.5 3787.57,-79.5 4138.57,-79.5 4138.57,-58.5 3787.57,-58.5"/>
<text text-anchor="middle" x="3963.07" y="-66.5" font-family="Helvetica,sans-Serif" font-size="10.00">/home/aoi/Documents/FxOS/B2G/gaia/xulrunner&#45;sdk/include/WebMReader.h</text>
</a>
</g>
<!-- Node12&#45;&gt;Node17 -->
<g id="edge36" class="edge"><title>Node12&#45;&gt;Node17</title>
<path fill="none" stroke="midnightblue" d="M3174.01,-115.888C3334.69,-106.382 3572.08,-92.3213 3779.07,-80 3781.79,-79.8384 3784.53,-79.6753 3787.28,-79.5112"/>
<polygon fill="midnightblue" stroke="midnightblue" points="3173.8,-112.395 3164.02,-116.479 3174.21,-119.383 3173.8,-112.395"/>
</g>
<!-- Node21 -->
<g id="node43" class="node"><title>Node21</title>
<a xlink:href="../../de/dab/_content_parent_8h.html" target="_top" xlink:title="/home/aoi/Documents/FxOS/B2G/gaia/xulrunner&#45;sdk/include/mozilla/dom/ContentParent.h">
<polygon fill="white" stroke="black" points="4263.07,-174.5 4263.07,-195.5 4673.07,-195.5 4673.07,-174.5 4263.07,-174.5"/>
<text text-anchor="middle" x="4468.07" y="-182.5" font-family="Helvetica,sans-Serif" font-size="10.00">/home/aoi/Documents/FxOS/B2G/gaia/xulrunner&#45;sdk/include/mozilla/dom/ContentParent.h</text>
</a>
</g>
<!-- Node20&#45;&gt;Node21 -->
<g id="edge44" class="edge"><title>Node20&#45;&gt;Node21</title>
<path fill="none" stroke="midnightblue" d="M4628.3,-229.68C4591.1,-219.307 4540.18,-205.108 4505.81,-195.523"/>
<polygon fill="midnightblue" stroke="midnightblue" points="4627.83,-233.182 4638.41,-232.497 4629.71,-226.439 4627.83,-233.182"/>
</g>
<!-- Node29 -->
<g id="node59" class="node"><title>Node29</title>
<a xlink:href="../../d2/d8e/_tab_child_8h.html" target="_top" xlink:title="/home/aoi/Documents/FxOS/B2G/gaia/xulrunner&#45;sdk/include/mozilla/dom/TabChild.h">
<polygon fill="white" stroke="black" points="4691.07,-174.5 4691.07,-195.5 5077.07,-195.5 5077.07,-174.5 4691.07,-174.5"/>
<text text-anchor="middle" x="4884.07" y="-182.5" font-family="Helvetica,sans-Serif" font-size="10.00">/home/aoi/Documents/FxOS/B2G/gaia/xulrunner&#45;sdk/include/mozilla/dom/TabChild.h</text>
</a>
</g>
<!-- Node20&#45;&gt;Node29 -->
<g id="edge60" class="edge"><title>Node20&#45;&gt;Node29</title>
<path fill="none" stroke="midnightblue" d="M4723.84,-229.68C4761.04,-219.307 4811.96,-205.108 4846.33,-195.523"/>
<polygon fill="midnightblue" stroke="midnightblue" points="4722.43,-226.439 4713.74,-232.497 4724.31,-233.182 4722.43,-226.439"/>
</g>
<!-- Node31 -->
<g id="node63" class="node"><title>Node31</title>
<a xlink:href="../../d1/d99/_p_http_channel_params_8h.html" target="_top" xlink:title="/home/aoi/Documents/FxOS/B2G/gaia/xulrunner&#45;sdk/include/mozilla/net/PHttpChannelParams.h">
<polygon fill="white" stroke="black" points="5094.57,-174.5 5094.57,-195.5 5531.57,-195.5 5531.57,-174.5 5094.57,-174.5"/>
<text text-anchor="middle" x="5313.07" y="-182.5" font-family="Helvetica,sans-Serif" font-size="10.00">/home/aoi/Documents/FxOS/B2G/gaia/xulrunner&#45;sdk/include/mozilla/net/PHttpChannelParams.h</text>
</a>
</g>
<!-- Node20&#45;&gt;Node31 -->
<g id="edge64" class="edge"><title>Node20&#45;&gt;Node31</title>
<path fill="none" stroke="midnightblue" d="M4801.7,-231.562C4916.77,-221.084 5085.71,-205.702 5197.5,-195.523"/>
<polygon fill="midnightblue" stroke="midnightblue" points="4801.07,-228.104 4791.43,-232.497 4801.7,-235.075 4801.07,-228.104"/>
</g>
<!-- Node22 -->
<g id="node45" class="node"><title>Node22</title>
<a xlink:href="../../dd/dda/_device_storage_request_parent_8h.html" target="_top" xlink:title="/home/aoi/Documents/FxOS/B2G/gaia/xulrunner&#45;sdk/include/mozilla/dom/devicestorage/DeviceStorageRequestParent.h">
<polygon fill="white" stroke="black" points="3714.07,-116.5 3714.07,-137.5 4254.07,-137.5 4254.07,-116.5 3714.07,-116.5"/>
<text text-anchor="middle" x="3984.07" y="-124.5" font-family="Helvetica,sans-Serif" font-size="10.00">/home/aoi/Documents/FxOS/B2G/gaia/xulrunner&#45;sdk/include/mozilla/dom/devicestorage/DeviceStorageRequestParent.h</text>
</a>
</g>
<!-- Node21&#45;&gt;Node22 -->
<g id="edge46" class="edge"><title>Node21&#45;&gt;Node22</title>
<path fill="none" stroke="midnightblue" d="M4370.24,-173.276C4282.87,-162.806 4156.06,-147.61 4071.89,-137.523"/>
<polygon fill="midnightblue" stroke="midnightblue" points="4370.08,-176.782 4380.42,-174.497 4370.91,-169.832 4370.08,-176.782"/>
</g>
<!-- Node23 -->
<g id="node47" class="node"><title>Node23</title>
<a xlink:href="../../d8/d36/_tab_parent_8h.html" target="_top" xlink:title="/home/aoi/Documents/FxOS/B2G/gaia/xulrunner&#45;sdk/include/mozilla/dom/TabParent.h">
<polygon fill="white" stroke="black" points="4272.07,-116.5 4272.07,-137.5 4664.07,-137.5 4664.07,-116.5 4272.07,-116.5"/>
<text text-anchor="middle" x="4468.07" y="-124.5" font-family="Helvetica,sans-Serif" font-size="10.00">/home/aoi/Documents/FxOS/B2G/gaia/xulrunner&#45;sdk/include/mozilla/dom/TabParent.h</text>
</a>
</g>
<!-- Node21&#45;&gt;Node23 -->
<g id="edge48" class="edge"><title>Node21&#45;&gt;Node23</title>
<path fill="none" stroke="midnightblue" d="M4468.07,-164.191C4468.07,-155.168 4468.07,-144.994 4468.07,-137.571"/>
<polygon fill="midnightblue" stroke="midnightblue" points="4464.57,-164.362 4468.07,-174.362 4471.57,-164.362 4464.57,-164.362"/>
</g>
<!-- Node24 -->
<g id="node49" class="node"><title>Node24</title>
<a xlink:href="../../de/d60/_hal_8h.html" target="_top" xlink:title="/home/aoi/Documents/FxOS/B2G/gaia/xulrunner&#45;sdk/include/mozilla/Hal.h">
<polygon fill="white" stroke="black" points="4682.07,-116.5 4682.07,-137.5 5022.07,-137.5 5022.07,-116.5 4682.07,-116.5"/>
<text text-anchor="middle" x="4852.07" y="-124.5" font-family="Helvetica,sans-Serif" font-size="10.00">/home/aoi/Documents/FxOS/B2G/gaia/xulrunner&#45;sdk/include/mozilla/Hal.h</text>
</a>
</g>
<!-- Node21&#45;&gt;Node24 -->
<g id="edge50" class="edge"><title>Node21&#45;&gt;Node24</title>
<path fill="none" stroke="midnightblue" d="M4547.6,-172.988C4616.85,-162.529 4716.23,-147.517 4782.4,-137.523"/>
<polygon fill="midnightblue" stroke="midnightblue" points="4546.98,-169.542 4537.61,-174.497 4548.02,-176.464 4546.98,-169.542"/>
</g>
<!-- Node25 -->
<g id="node51" class="node"><title>Node25</title>
<a xlink:href="../../da/df3/_alarm_hal_service_8h.html" target="_top" xlink:title="/home/aoi/Documents/FxOS/B2G/gaia/xulrunner&#45;sdk/include/mozilla/dom/alarm/AlarmHalService.h">
<polygon fill="white" stroke="black" points="4155.57,-58.5 4155.57,-79.5 4602.57,-79.5 4602.57,-58.5 4155.57,-58.5"/>
<text text-anchor="middle" x="4379.07" y="-66.5" font-family="Helvetica,sans-Serif" font-size="10.00">/home/aoi/Documents/FxOS/B2G/gaia/xulrunner&#45;sdk/include/mozilla/dom/alarm/AlarmHalService.h</text>
</a>
</g>
<!-- Node24&#45;&gt;Node25 -->
<g id="edge52" class="edge"><title>Node24&#45;&gt;Node25</title>
<path fill="none" stroke="midnightblue" d="M4756.46,-115.276C4671.08,-104.806 4547.15,-89.6095 4464.89,-79.5231"/>
<polygon fill="midnightblue" stroke="midnightblue" points="4756.06,-118.753 4766.42,-116.497 4756.92,-111.805 4756.06,-118.753"/>
</g>
<!-- Node26 -->
<g id="node53" class="node"><title>Node26</title>
<a xlink:href="../../dd/df3/_time_change_observer_8h.html" target="_top" xlink:title="/home/aoi/Documents/FxOS/B2G/gaia/xulrunner&#45;sdk/include/mozilla/dom/time/TimeChangeObserver.h">
<polygon fill="white" stroke="black" points="4620.07,-58.5 4620.07,-79.5 5084.07,-79.5 5084.07,-58.5 4620.07,-58.5"/>
<text text-anchor="middle" x="4852.07" y="-66.5" font-family="Helvetica,sans-Serif" font-size="10.00">/home/aoi/Documents/FxOS/B2G/gaia/xulrunner&#45;sdk/include/mozilla/dom/time/TimeChangeObserver.h</text>
</a>
</g>
<!-- Node24&#45;&gt;Node26 -->
<g id="edge54" class="edge"><title>Node24&#45;&gt;Node26</title>
<path fill="none" stroke="midnightblue" d="M4852.07,-106.191C4852.07,-97.1684 4852.07,-86.9941 4852.07,-79.5707"/>
<polygon fill="midnightblue" stroke="midnightblue" points="4848.57,-106.362 4852.07,-116.362 4855.57,-106.362 4848.57,-106.362"/>
</g>
<!-- Node27 -->
<g id="node55" class="node"><title>Node27</title>
<a xlink:href="../../d8/d12/_hal_impl_8h.html" target="_top" xlink:title="/home/aoi/Documents/FxOS/B2G/gaia/xulrunner&#45;sdk/include/mozilla/HalImpl.h">
<polygon fill="white" stroke="black" points="5101.57,-58.5 5101.57,-79.5 5460.57,-79.5 5460.57,-58.5 5101.57,-58.5"/>
<text text-anchor="middle" x="5281.07" y="-66.5" font-family="Helvetica,sans-Serif" font-size="10.00">/home/aoi/Documents/FxOS/B2G/gaia/xulrunner&#45;sdk/include/mozilla/HalImpl.h</text>
</a>
</g>
<!-- Node24&#45;&gt;Node27 -->
<g id="edge56" class="edge"><title>Node24&#45;&gt;Node27</title>
<path fill="none" stroke="midnightblue" d="M4939.97,-115.116C5017.37,-104.652 5129.01,-89.5583 5203.24,-79.5231"/>
<polygon fill="midnightblue" stroke="midnightblue" points="4939.2,-111.688 4929.76,-116.497 4940.14,-118.625 4939.2,-111.688"/>
</g>
<!-- Node28 -->
<g id="node57" class="node"><title>Node28</title>
<a xlink:href="../../dd/d1d/_hal_sandbox_8h.html" target="_top" xlink:title="/home/aoi/Documents/FxOS/B2G/gaia/xulrunner&#45;sdk/include/mozilla/HalSandbox.h">
<polygon fill="white" stroke="black" points="5478.07,-58.5 5478.07,-79.5 5856.07,-79.5 5856.07,-58.5 5478.07,-58.5"/>
<text text-anchor="middle" x="5667.07" y="-66.5" font-family="Helvetica,sans-Serif" font-size="10.00">/home/aoi/Documents/FxOS/B2G/gaia/xulrunner&#45;sdk/include/mozilla/HalSandbox.h</text>
</a>
</g>
<!-- Node24&#45;&gt;Node28 -->
<g id="edge58" class="edge"><title>Node24&#45;&gt;Node28</title>
<path fill="none" stroke="midnightblue" d="M5009.7,-115.782C5156.98,-105.301 5375.17,-89.7734 5519.21,-79.5231"/>
<polygon fill="midnightblue" stroke="midnightblue" points="5009.39,-112.296 4999.66,-116.497 5009.89,-119.278 5009.39,-112.296"/>
</g>
<!-- Node30 -->
<g id="node61" class="node"><title>Node30</title>
<a xlink:href="../../d9/dba/_remote_open_file_child_8h.html" target="_top" xlink:title="/home/aoi/Documents/FxOS/B2G/gaia/xulrunner&#45;sdk/include/mozilla/net/RemoteOpenFileChild.h">
<polygon fill="white" stroke="black" points="5039.57,-116.5 5039.57,-137.5 5476.57,-137.5 5476.57,-116.5 5039.57,-116.5"/>
<text text-anchor="middle" x="5258.07" y="-124.5" font-family="Helvetica,sans-Serif" font-size="10.00">/home/aoi/Documents/FxOS/B2G/gaia/xulrunner&#45;sdk/include/mozilla/net/RemoteOpenFileChild.h</text>
</a>
</g>
<!-- Node29&#45;&gt;Node30 -->
<g id="edge62" class="edge"><title>Node29&#45;&gt;Node30</title>
<path fill="none" stroke="midnightblue" d="M4961.95,-172.923C5029.37,-162.468 5125.9,-147.497 5190.22,-137.523"/>
<polygon fill="midnightblue" stroke="midnightblue" points="4961.15,-169.505 4951.8,-174.497 4962.22,-176.423 4961.15,-169.505"/>
</g>
</g>
</svg>
        <g id="navigator" transform="translate(0 0)" fill="#404254">
                <rect fill="#f2f5e9" fill-opacity="0.5" stroke="#606060" stroke-width=".5" x="0" y="0" width="60" height="60"/>
                <use id="zoomplus" xlink:href="#zoomPlus" x="17" y="9" onmousedown="handleZoom(evt,'in')"/>
                <use id="zoomminus" xlink:href="#zoomMin" x="42" y="9" onmousedown="handleZoom(evt,'out')"/>
                <use id="reset" xlink:href="#resetDef" x="30" y="36" onmousedown="handleReset()"/>
                <g id="arrowUp" xlink:href="#dirArrow" transform="translate(30 24)" onmousedown="handlePan(0,-1)">
                  <use xlink:href="#rim" fill="#404040">
                        <set attributeName="fill" to="#808080" begin="arrowUp.mouseover" end="arrowUp.mouseout"/>
                  </use>
                  <path fill="none" stroke="white" stroke-width="1.5" d="M0,-3.0v7 M-2.5,-0.5L0,-3.0L2.5,-0.5"/>
                </g>
                <g id="arrowRight" xlink:href="#dirArrow" transform="rotate(90) translate(36 -43)" onmousedown="handlePan(1,0)">
                  <use xlink:href="#rim" fill="#404040">
                        <set attributeName="fill" to="#808080" begin="arrowRight.mouseover" end="arrowRight.mouseout"/>
                  </use>
                  <path fill="none" stroke="white" stroke-width="1.5" d="M0,-3.0v7 M-2.5,-0.5L0,-3.0L2.5,-0.5"/>
                </g>
                <g id="arrowDown" xlink:href="#dirArrow" transform="rotate(180) translate(-30 -48)" onmousedown="handlePan(0,1)">
                  <use xlink:href="#rim" fill="#404040">
                        <set attributeName="fill" to="#808080" begin="arrowDown.mouseover" end="arrowDown.mouseout"/>
                  </use>
                  <path fill="none" stroke="white" stroke-width="1.5" d="M0,-3.0v7 M-2.5,-0.5L0,-3.0L2.5,-0.5"/>
                </g>
                <g id="arrowLeft" xlink:href="#dirArrow" transform="rotate(270) translate(-36 17)" onmousedown="handlePan(-1,0)">
                  <use xlink:href="#rim" fill="#404040">
                        <set attributeName="fill" to="#808080" begin="arrowLeft.mouseover" end="arrowLeft.mouseout"/>
                  </use>
                  <path fill="none" stroke="white" stroke-width="1.5" d="M0,-3.0v7 M-2.5,-0.5L0,-3.0L2.5,-0.5"/>
                </g>
        </g>
</svg>
