<?xml version="1.0" encoding="UTF-8" standalone="no"?>
<!DOCTYPE svg PUBLIC "-//W3C//DTD SVG 1.1//EN"
 "http://www.w3.org/Graphics/SVG/1.1/DTD/svg11.dtd">
<!-- Generated by graphviz version 2.26.3 (20100126.1600)
 -->
<!-- Title: G Pages: 1 -->
<svg width="396pt" height="88pt"
 viewBox="0.00 0.00 396.00 88.00" xmlns="http://www.w3.org/2000/svg" xmlns:xlink="http://www.w3.org/1999/xlink">
<g id="graph1" class="graph" transform="scale(1 1) rotate(0) translate(4 84)">
<title>G</title>
<polygon fill="white" stroke="white" points="-4,5 -4,-84 393,-84 393,5 -4,5"/>
<!-- Node1 -->
<g id="node1" class="node"><title>Node1</title>
<polygon fill="#bfbfbf" stroke="black" points="162,-58.5 162,-79.5 218,-79.5 218,-58.5 162,-58.5"/>
<text text-anchor="middle" x="190" y="-66.5" font-family="Helvetica,sans-Serif" font-size="10.00">killer.cpp</text>
</g>
<!-- Node2 -->
<g id="node3" class="node"><title>Node2</title>
<polygon fill="white" stroke="#bfbfbf" points="0,-0.5 0,-21.5 46,-21.5 46,-0.5 0,-0.5"/>
<text text-anchor="middle" x="23" y="-8.5" font-family="Helvetica,sans-Serif" font-size="10.00">stdio.h</text>
</g>
<!-- Node1&#45;&gt;Node2 -->
<g id="edge2" class="edge"><title>Node1&#45;&gt;Node2</title>
<path fill="none" stroke="midnightblue" d="M161.671,-59.1611C132.281,-48.9539 86.3862,-33.0144 55.5305,-22.298"/>
<polygon fill="midnightblue" stroke="midnightblue" points="56.6757,-18.9907 46.0809,-19.0161 54.3791,-25.6033 56.6757,-18.9907"/>
</g>
<!-- Node3 -->
<g id="node5" class="node"><title>Node3</title>
<polygon fill="white" stroke="#bfbfbf" points="64,-0.5 64,-21.5 112,-21.5 112,-0.5 64,-0.5"/>
<text text-anchor="middle" x="88" y="-8.5" font-family="Helvetica,sans-Serif" font-size="10.00">stdlib.h</text>
</g>
<!-- Node1&#45;&gt;Node3 -->
<g id="edge4" class="edge"><title>Node1&#45;&gt;Node3</title>
<path fill="none" stroke="midnightblue" d="M171.292,-58.3619C155.619,-49.4502 133.036,-36.6087 115.337,-26.5447"/>
<polygon fill="midnightblue" stroke="midnightblue" points="117.013,-23.4712 106.59,-21.5707 113.553,-29.5562 117.013,-23.4712"/>
</g>
<!-- Node4 -->
<g id="node7" class="node"><title>Node4</title>
<polygon fill="white" stroke="#bfbfbf" points="130,-0.5 130,-21.5 182,-21.5 182,-0.5 130,-0.5"/>
<text text-anchor="middle" x="156" y="-8.5" font-family="Helvetica,sans-Serif" font-size="10.00">assert.h</text>
</g>
<!-- Node1&#45;&gt;Node4 -->
<g id="edge6" class="edge"><title>Node1&#45;&gt;Node4</title>
<path fill="none" stroke="midnightblue" d="M183.764,-58.3619C179.163,-50.5131 172.775,-39.6159 167.286,-30.2527"/>
<polygon fill="midnightblue" stroke="midnightblue" points="170.273,-28.4276 162.197,-21.5707 164.234,-31.9677 170.273,-28.4276"/>
</g>
<!-- Node5 -->
<g id="node9" class="node"><title>Node5</title>
<polygon fill="white" stroke="#bfbfbf" points="200,-0.5 200,-21.5 250,-21.5 250,-0.5 200,-0.5"/>
<text text-anchor="middle" x="225" y="-8.5" font-family="Helvetica,sans-Serif" font-size="10.00">signal.h</text>
</g>
<!-- Node1&#45;&gt;Node5 -->
<g id="edge8" class="edge"><title>Node1&#45;&gt;Node5</title>
<path fill="none" stroke="midnightblue" d="M196.42,-58.3619C201.156,-50.5131 207.732,-39.6159 213.382,-30.2527"/>
<polygon fill="midnightblue" stroke="midnightblue" points="216.451,-31.9409 218.621,-21.5707 210.458,-28.3242 216.451,-31.9409"/>
</g>
<!-- Node6 -->
<g id="node11" class="node"><title>Node6</title>
<polygon fill="white" stroke="#bfbfbf" points="267.5,-0.5 267.5,-21.5 320.5,-21.5 320.5,-0.5 267.5,-0.5"/>
<text text-anchor="middle" x="294" y="-8.5" font-family="Helvetica,sans-Serif" font-size="10.00">malloc.h</text>
</g>
<!-- Node1&#45;&gt;Node6 -->
<g id="edge10" class="edge"><title>Node1&#45;&gt;Node6</title>
<path fill="none" stroke="midnightblue" d="M209.075,-58.3619C225.055,-49.4502 248.081,-36.6087 266.127,-26.5447"/>
<polygon fill="midnightblue" stroke="midnightblue" points="268.017,-29.4982 275.046,-21.5707 264.607,-23.3846 268.017,-29.4982"/>
</g>
<!-- Node7 -->
<g id="node13" class="node"><title>Node7</title>
<polygon fill="white" stroke="#bfbfbf" points="337.5,-0.5 337.5,-21.5 388.5,-21.5 388.5,-0.5 337.5,-0.5"/>
<text text-anchor="middle" x="363" y="-8.5" font-family="Helvetica,sans-Serif" font-size="10.00">unistd.h</text>
</g>
<!-- Node1&#45;&gt;Node7 -->
<g id="edge12" class="edge"><title>Node1&#45;&gt;Node7</title>
<path fill="none" stroke="midnightblue" d="M218.18,-59.5522C248.116,-49.5161 295.494,-33.632 327.849,-22.7847"/>
<polygon fill="midnightblue" stroke="midnightblue" points="329.003,-26.0892 337.372,-19.592 326.778,-19.4523 329.003,-26.0892"/>
</g>
</g>
</svg>
