<?xml version="1.0" encoding="UTF-8" standalone="no"?>
<!DOCTYPE svg PUBLIC "-//W3C//DTD SVG 1.1//EN"
 "http://www.w3.org/Graphics/SVG/1.1/DTD/svg11.dtd">
<!-- Generated by graphviz version 2.26.3 (20100126.1600)
 -->
<!-- Title: G Pages: 1 -->
<svg width="494pt" height="90pt"
 viewBox="0.00 0.00 494.00 90.00" xmlns="http://www.w3.org/2000/svg" xmlns:xlink="http://www.w3.org/1999/xlink">
<g id="graph1" class="graph" transform="scale(1 1) rotate(0) translate(4 86)">
<title>G</title>
<polygon fill="white" stroke="white" points="-4,5 -4,-86 491,-86 491,5 -4,5"/>
<!-- Node1 -->
<g id="node1" class="node"><title>Node1</title>
<polygon fill="#bfbfbf" stroke="black" points="0.5,-20.5 0.5,-41.5 135.5,-41.5 135.5,-20.5 0.5,-20.5"/>
<text text-anchor="middle" x="68" y="-28.5" font-family="Helvetica,sans-Serif" font-size="10.00">ProcessList::main_process</text>
</g>
<!-- Node2 -->
<g id="node3" class="node"><title>Node2</title>
<a xlink:href="../../de/daf/class_process_list.html#a35ff98074634bff93deff546c9d57b62" target="_top" xlink:title="ProcessList::all_processes">
<polygon fill="white" stroke="black" points="172,-40.5 172,-61.5 306,-61.5 306,-40.5 172,-40.5"/>
<text text-anchor="middle" x="239" y="-48.5" font-family="Helvetica,sans-Serif" font-size="10.00">ProcessList::all_processes</text>
</a>
</g>
<!-- Node1&#45;&gt;Node2 -->
<g id="edge2" class="edge"><title>Node1&#45;&gt;Node2</title>
<path fill="none" stroke="midnightblue" d="M135.584,-38.9045C144.172,-39.909 153.013,-40.9431 161.739,-41.9636"/>
<polygon fill="midnightblue" stroke="midnightblue" points="161.568,-45.4674 171.907,-43.1529 162.381,-38.5148 161.568,-45.4674"/>
</g>
<!-- Node6 -->
<g id="node11" class="node"><title>Node6</title>
<a xlink:href="../../d1/d41/class_process.html#a4be0403d5862318cde4444476eac0c7b" target="_top" xlink:title="Process::pid">
<polygon fill="white" stroke="black" points="203.5,-0.5 203.5,-21.5 274.5,-21.5 274.5,-0.5 203.5,-0.5"/>
<text text-anchor="middle" x="239" y="-8.5" font-family="Helvetica,sans-Serif" font-size="10.00">Process::pid</text>
</a>
</g>
<!-- Node1&#45;&gt;Node6 -->
<g id="edge10" class="edge"><title>Node1&#45;&gt;Node6</title>
<path fill="none" stroke="midnightblue" d="M135.584,-23.0955C154.937,-20.8319 175.573,-18.4184 193.28,-16.3474"/>
<polygon fill="midnightblue" stroke="midnightblue" points="193.809,-19.8094 203.335,-15.1714 192.996,-12.8568 193.809,-19.8094"/>
</g>
<!-- Node3 -->
<g id="node5" class="node"><title>Node3</title>
<a xlink:href="../../de/d06/utils_8cpp.html#a0fc6456d6824ff6e7fa42624077e0d84" target="_top" xlink:title="safe_opendir">
<polygon fill="white" stroke="black" points="342,-60.5 342,-81.5 414,-81.5 414,-60.5 342,-60.5"/>
<text text-anchor="middle" x="378" y="-68.5" font-family="Helvetica,sans-Serif" font-size="10.00">safe_opendir</text>
</a>
</g>
<!-- Node2&#45;&gt;Node3 -->
<g id="edge4" class="edge"><title>Node2&#45;&gt;Node3</title>
<path fill="none" stroke="midnightblue" d="M306.057,-60.6485C314.746,-61.8987 323.486,-63.1562 331.732,-64.3428"/>
<polygon fill="midnightblue" stroke="midnightblue" points="331.477,-67.842 341.873,-65.8019 332.474,-60.9133 331.477,-67.842"/>
</g>
<!-- Node4 -->
<g id="node7" class="node"><title>Node4</title>
<a xlink:href="../../de/d06/utils_8cpp.html#a5394673b22982035151b16fbf475e422" target="_top" xlink:title="str_to_int">
<polygon fill="white" stroke="black" points="349.5,-20.5 349.5,-41.5 406.5,-41.5 406.5,-20.5 349.5,-20.5"/>
<text text-anchor="middle" x="378" y="-28.5" font-family="Helvetica,sans-Serif" font-size="10.00">str_to_int</text>
</a>
</g>
<!-- Node2&#45;&gt;Node4 -->
<g id="edge6" class="edge"><title>Node2&#45;&gt;Node4</title>
<path fill="none" stroke="midnightblue" d="M306.057,-41.3515C317.512,-39.7033 329.055,-38.0424 339.441,-36.5481"/>
<polygon fill="midnightblue" stroke="midnightblue" points="339.994,-40.0046 349.394,-35.116 338.997,-33.0759 339.994,-40.0046"/>
</g>
<!-- Node5 -->
<g id="node9" class="node"><title>Node5</title>
<a xlink:href="../../de/d06/utils_8cpp.html#a8421efed5119fd1615e48373572c0061" target="_top" xlink:title="strip">
<polygon fill="white" stroke="black" points="450.5,-20.5 450.5,-41.5 485.5,-41.5 485.5,-20.5 450.5,-20.5"/>
<text text-anchor="middle" x="468" y="-28.5" font-family="Helvetica,sans-Serif" font-size="10.00">strip</text>
</a>
</g>
<!-- Node4&#45;&gt;Node5 -->
<g id="edge8" class="edge"><title>Node4&#45;&gt;Node5</title>
<path fill="none" stroke="midnightblue" d="M406.972,-31C417.574,-31 429.542,-31 440.053,-31"/>
<polygon fill="midnightblue" stroke="midnightblue" points="440.362,-34.5001 450.361,-31 440.361,-27.5001 440.362,-34.5001"/>
</g>
</g>
</svg>
