<?xml version="1.0" encoding="UTF-8" standalone="no"?>
<!DOCTYPE svg PUBLIC "-//W3C//DTD SVG 1.1//EN"
 "http://www.w3.org/Graphics/SVG/1.1/DTD/svg11.dtd">
<!-- Generated by graphviz version 2.26.3 (20100126.1600)
 -->
<!-- Title: G Pages: 1 -->
<!--zoomable 84 -->
<svg id="main" version="1.1" xmlns="http://www.w3.org/2000/svg" xmlns:xlink="http://www.w3.org/1999/xlink" xml:space="preserve" onload="init(evt)">
        <defs>
                <circle id="rim" cx="0" cy="0" r="7"/>
                <circle id="rim2" cx="0" cy="0" r="3.5"/>
                <g id="zoomPlus">
                        <use xlink:href="#rim" fill="#404040">
                                <set attributeName="fill" to="#808080" begin="zoomplus.mouseover" end="zoomplus.mouseout"/>
                        </use>
                        <path d="M-4,0h8M0,-4v8" fill="none" stroke="white" stroke-width="1.5" pointer-events="none"/>
                </g>
                <g id="zoomMin">
                        <use xlink:href="#rim" fill="#404040">
                                <set attributeName="fill" to="#808080" begin="zoomminus.mouseover" end="zoomminus.mouseout"/>
                        </use>
                        <path d="M-4,0h8" fill="none" stroke="white" stroke-width="1.5" pointer-events="none"/>
                </g>
                <g id="dirArrow">
                        <path fill="none" stroke="white" stroke-width="1.5" d="M0,-3.0v7 M-2.5,-0.5L0,-3.0L2.5,-0.5"/>
                </g>
               <g id="resetDef">
                       <use xlink:href="#rim2" fill="#404040">
                               <set attributeName="fill" to="#808080" begin="reset.mouseover" end="reset.mouseout"/>
                       </use>
               </g>
        </defs>

<script type="text/javascript">
var viewWidth = 840;
var viewHeight = 84;
var sectionId = 'dynsection-1';
</script>
<script xlink:href="../../svgpan.js"/>
<svg id="graph" class="graph">
<g id="viewport">
<title>G</title>
<polygon fill="white" stroke="white" points="-4,5 -4,-79.5494 837,-79.5494 837,5 -4,5"/>
<!-- Node1 -->
<g id="node1" class="node"><title>Node1</title>
<polygon fill="#bfbfbf" stroke="black" points="0,-34.0494 0,-55.0494 134,-55.0494 134,-34.0494 0,-34.0494"/>
<text text-anchor="middle" x="67" y="-42.0494" font-family="Helvetica,sans-Serif" font-size="10.00">ProcessList::all_processes</text>
</g>
<!-- Node2 -->
<g id="node3" class="node"><title>Node2</title>
<a xlink:href="../../de/daf/class_process_list.html#a16274094db38de453fa0d79f9c837704" target="_top" xlink:title="ProcessList::child_processes">
<polygon fill="white" stroke="black" points="170.5,-54.0494 170.5,-75.0494 315.5,-75.0494 315.5,-54.0494 170.5,-54.0494"/>
<text text-anchor="middle" x="243" y="-62.0494" font-family="Helvetica,sans-Serif" font-size="10.00">ProcessList::child_processes</text>
</a>
</g>
<!-- Node1&#45;&gt;Node2 -->
<g id="edge2" class="edge"><title>Node1&#45;&gt;Node2</title>
<path fill="none" stroke="midnightblue" d="M144.147,-53.3161C152.83,-54.3029 161.656,-55.3059 170.281,-56.2859"/>
<polygon fill="midnightblue" stroke="midnightblue" points="144.371,-49.8192 134.04,-52.1676 143.581,-56.7744 144.371,-49.8192"/>
</g>
<!-- Node8 -->
<g id="node17" class="node"><title>Node8</title>
<a xlink:href="../../de/daf/class_process_list.html#afe0878d6ad8b143b0f374d2e84297554" target="_top" xlink:title="ProcessList::main_process">
<polygon fill="white" stroke="black" points="175.5,-14.0494 175.5,-35.0494 310.5,-35.0494 310.5,-14.0494 175.5,-14.0494"/>
<text text-anchor="middle" x="243" y="-22.0494" font-family="Helvetica,sans-Serif" font-size="10.00">ProcessList::main_process</text>
</a>
</g>
<!-- Node1&#45;&gt;Node8 -->
<g id="edge18" class="edge"><title>Node1&#45;&gt;Node8</title>
<path fill="none" stroke="midnightblue" d="M144.277,-35.768C154.602,-34.5947 165.127,-33.3987 175.271,-32.2459"/>
<polygon fill="midnightblue" stroke="midnightblue" points="143.581,-32.3244 134.04,-36.9312 144.371,-39.2797 143.581,-32.3244"/>
</g>
<!-- Node3 -->
<g id="node5" class="node"><title>Node3</title>
<a xlink:href="../../d0/d91/b2g-info_8cpp.html#aa3b05aa6e9f0537dd025e601f102491d" target="_top" xlink:title="print_b2g_pids">
<polygon fill="white" stroke="black" points="546,-54.0494 546,-75.0494 626,-75.0494 626,-54.0494 546,-54.0494"/>
<text text-anchor="middle" x="586" y="-62.0494" font-family="Helvetica,sans-Serif" font-size="10.00">print_b2g_pids</text>
</a>
</g>
<!-- Node2&#45;&gt;Node3 -->
<g id="edge4" class="edge"><title>Node2&#45;&gt;Node3</title>
<path fill="none" stroke="midnightblue" d="M325.826,-64.5494C395.563,-64.5494 492.283,-64.5494 545.993,-64.5494"/>
<polygon fill="midnightblue" stroke="midnightblue" points="325.742,-61.0495 315.741,-64.5494 325.741,-68.0495 325.742,-61.0495"/>
</g>
<!-- Node5 -->
<g id="node9" class="node"><title>Node5</title>
<a xlink:href="../../de/daf/class_process_list.html#a50e6f4206a8d67e3639f8af25cff4395" target="_top" xlink:title="ProcessList::b2g_processes">
<polygon fill="white" stroke="black" points="352,-14.0494 352,-35.0494 492,-35.0494 492,-14.0494 352,-14.0494"/>
<text text-anchor="middle" x="422" y="-22.0494" font-family="Helvetica,sans-Serif" font-size="10.00">ProcessList::b2g_processes</text>
</a>
</g>
<!-- Node2&#45;&gt;Node5 -->
<g id="edge8" class="edge"><title>Node2&#45;&gt;Node5</title>
<path fill="none" stroke="midnightblue" d="M299.806,-51.8553C324.023,-46.4439 351.941,-40.2051 374.974,-35.0582"/>
<polygon fill="midnightblue" stroke="midnightblue" points="299.026,-48.4432 290.03,-54.0399 300.553,-55.2747 299.026,-48.4432"/>
</g>
<!-- Node4 -->
<g id="node7" class="node"><title>Node4</title>
<a xlink:href="../../d0/d91/b2g-info_8cpp.html#a217dbf8b442f20279ea00b898af96f52" target="_top" xlink:title="main">
<polygon fill="white" stroke="black" points="794,-33.0494 794,-54.0494 832,-54.0494 832,-33.0494 794,-33.0494"/>
<text text-anchor="middle" x="813" y="-41.0494" font-family="Helvetica,sans-Serif" font-size="10.00">main</text>
</a>
</g>
<!-- Node3&#45;&gt;Node4 -->
<g id="edge6" class="edge"><title>Node3&#45;&gt;Node4</title>
<path fill="none" stroke="midnightblue" d="M636.279,-59.8981C685.958,-55.3022 759.366,-48.5112 793.821,-45.3237"/>
<polygon fill="midnightblue" stroke="midnightblue" points="635.696,-56.437 626.061,-60.8434 636.34,-63.4073 635.696,-56.437"/>
</g>
<!-- Node6 -->
<g id="node11" class="node"><title>Node6</title>
<a xlink:href="../../d0/d91/b2g-info_8cpp.html#a21a526f63654418c49b074caf7feb59d" target="_top" xlink:title="print_system_meminfo">
<polygon fill="white" stroke="black" points="528,-14.0494 528,-35.0494 644,-35.0494 644,-14.0494 528,-14.0494"/>
<text text-anchor="middle" x="586" y="-22.0494" font-family="Helvetica,sans-Serif" font-size="10.00">print_system_meminfo</text>
</a>
</g>
<!-- Node5&#45;&gt;Node6 -->
<g id="edge10" class="edge"><title>Node5&#45;&gt;Node6</title>
<path fill="none" stroke="midnightblue" d="M502.149,-24.5494C510.802,-24.5494 519.483,-24.5494 527.806,-24.5494"/>
<polygon fill="midnightblue" stroke="midnightblue" points="502.027,-21.0495 492.026,-24.5494 502.026,-28.0495 502.027,-21.0495"/>
</g>
<!-- Node7 -->
<g id="node13" class="node"><title>Node7</title>
<a xlink:href="../../d0/d91/b2g-info_8cpp.html#a72987403ed81c976534491e6e4cb7533" target="_top" xlink:title="print_b2g_info">
<polygon fill="white" stroke="black" points="680.5,-14.0494 680.5,-35.0494 757.5,-35.0494 757.5,-14.0494 680.5,-14.0494"/>
<text text-anchor="middle" x="719" y="-22.0494" font-family="Helvetica,sans-Serif" font-size="10.00">print_b2g_info</text>
</a>
</g>
<!-- Node5&#45;&gt;Node7 -->
<g id="edge16" class="edge"><title>Node5&#45;&gt;Node7</title>
<path fill="none" stroke="midnightblue" d="M477.501,-12.0608C493.694,-8.96611 511.478,-6.09451 528,-4.54944 579.332,0.250813 592.881,2.14931 644,-4.54944 658.297,-6.42296 673.745,-10.2243 686.884,-14.0146"/>
<polygon fill="midnightblue" stroke="midnightblue" points="476.782,-8.63515 467.65,-14.0067 478.138,-15.5025 476.782,-8.63515"/>
</g>
<!-- Node6&#45;&gt;Node7 -->
<g id="edge12" class="edge"><title>Node6&#45;&gt;Node7</title>
<path fill="none" stroke="midnightblue" d="M654.347,-24.5494C663.227,-24.5494 672.064,-24.5494 680.222,-24.5494"/>
<polygon fill="midnightblue" stroke="midnightblue" points="654.336,-21.0495 644.336,-24.5494 654.336,-28.0495 654.336,-21.0495"/>
</g>
<!-- Node7&#45;&gt;Node4 -->
<g id="edge14" class="edge"><title>Node7&#45;&gt;Node4</title>
<path fill="none" stroke="midnightblue" d="M767.333,-34.3188C776.801,-36.2325 786.196,-38.1317 793.981,-39.7052"/>
<polygon fill="midnightblue" stroke="midnightblue" points="768,-30.883 757.505,-32.3323 766.613,-37.7442 768,-30.883"/>
</g>
<!-- Node8&#45;&gt;Node5 -->
<g id="edge20" class="edge"><title>Node8&#45;&gt;Node5</title>
<path fill="none" stroke="midnightblue" d="M320.881,-24.5494C331.181,-24.5494 341.689,-24.5494 351.848,-24.5494"/>
<polygon fill="midnightblue" stroke="midnightblue" points="320.672,-21.0495 310.672,-24.5494 320.672,-28.0495 320.672,-21.0495"/>
</g>
</g>
</svg>
        <g id="navigator" transform="translate(0 0)" fill="#404254">
                <rect fill="#f2f5e9" fill-opacity="0.5" stroke="#606060" stroke-width=".5" x="0" y="0" width="60" height="60"/>
                <use id="zoomplus" xlink:href="#zoomPlus" x="17" y="9" onmousedown="handleZoom(evt,'in')"/>
                <use id="zoomminus" xlink:href="#zoomMin" x="42" y="9" onmousedown="handleZoom(evt,'out')"/>
                <use id="reset" xlink:href="#resetDef" x="30" y="36" onmousedown="handleReset()"/>
                <g id="arrowUp" xlink:href="#dirArrow" transform="translate(30 24)" onmousedown="handlePan(0,-1)">
                  <use xlink:href="#rim" fill="#404040">
                        <set attributeName="fill" to="#808080" begin="arrowUp.mouseover" end="arrowUp.mouseout"/>
                  </use>
                  <path fill="none" stroke="white" stroke-width="1.5" d="M0,-3.0v7 M-2.5,-0.5L0,-3.0L2.5,-0.5"/>
                </g>
                <g id="arrowRight" xlink:href="#dirArrow" transform="rotate(90) translate(36 -43)" onmousedown="handlePan(1,0)">
                  <use xlink:href="#rim" fill="#404040">
                        <set attributeName="fill" to="#808080" begin="arrowRight.mouseover" end="arrowRight.mouseout"/>
                  </use>
                  <path fill="none" stroke="white" stroke-width="1.5" d="M0,-3.0v7 M-2.5,-0.5L0,-3.0L2.5,-0.5"/>
                </g>
                <g id="arrowDown" xlink:href="#dirArrow" transform="rotate(180) translate(-30 -48)" onmousedown="handlePan(0,1)">
                  <use xlink:href="#rim" fill="#404040">
                        <set attributeName="fill" to="#808080" begin="arrowDown.mouseover" end="arrowDown.mouseout"/>
                  </use>
                  <path fill="none" stroke="white" stroke-width="1.5" d="M0,-3.0v7 M-2.5,-0.5L0,-3.0L2.5,-0.5"/>
                </g>
                <g id="arrowLeft" xlink:href="#dirArrow" transform="rotate(270) translate(-36 17)" onmousedown="handlePan(-1,0)">
                  <use xlink:href="#rim" fill="#404040">
                        <set attributeName="fill" to="#808080" begin="arrowLeft.mouseover" end="arrowLeft.mouseout"/>
                  </use>
                  <path fill="none" stroke="white" stroke-width="1.5" d="M0,-3.0v7 M-2.5,-0.5L0,-3.0L2.5,-0.5"/>
                </g>
        </g>
</svg>
