<?xml version="1.0" encoding="UTF-8" standalone="no"?>
<!DOCTYPE svg PUBLIC "-//W3C//DTD SVG 1.1//EN"
 "http://www.w3.org/Graphics/SVG/1.1/DTD/svg11.dtd">
<!-- Generated by graphviz version 2.26.3 (20100126.1600)
 -->
<!-- Title: G Pages: 1 -->
<svg width="464pt" height="83pt"
 viewBox="0.00 0.00 464.00 82.51" xmlns="http://www.w3.org/2000/svg" xmlns:xlink="http://www.w3.org/1999/xlink">
<g id="graph1" class="graph" transform="scale(1 1) rotate(0) translate(4 78.5122)">
<title>G</title>
<polygon fill="white" stroke="white" points="-4,5 -4,-78.5122 461,-78.5122 461,5 -4,5"/>
<!-- Node1 -->
<g id="node1" class="node"><title>Node1</title>
<polygon fill="#bfbfbf" stroke="black" points="0.5,-39.5 0.5,-60.5 113.5,-60.5 113.5,-39.5 0.5,-39.5"/>
<text text-anchor="middle" x="57" y="-47.5" font-family="Helvetica,sans-Serif" font-size="10.00">ProcessList::singleton</text>
</g>
<!-- Node2 -->
<g id="node3" class="node"><title>Node2</title>
<a xlink:href="../../d0/d91/b2g-info_8cpp.html#a72987403ed81c976534491e6e4cb7533" target="_top" xlink:title="print_b2g_info">
<polygon fill="white" stroke="black" points="303.5,-40.5 303.5,-61.5 380.5,-61.5 380.5,-40.5 303.5,-40.5"/>
<text text-anchor="middle" x="342" y="-48.5" font-family="Helvetica,sans-Serif" font-size="10.00">print_b2g_info</text>
</a>
</g>
<!-- Node1&#45;&gt;Node2 -->
<g id="edge2" class="edge"><title>Node1&#45;&gt;Node2</title>
<path fill="none" stroke="midnightblue" d="M106.832,-62.7483C120.711,-65.7423 135.86,-68.4968 150,-70 201.267,-75.4502 214.831,-76.2992 266,-70 279.769,-68.305 294.631,-64.9444 307.529,-61.5146"/>
<polygon fill="midnightblue" stroke="midnightblue" points="107.506,-59.3126 96.9826,-60.5403 105.975,-66.1431 107.506,-59.3126"/>
</g>
<!-- Node4 -->
<g id="node7" class="node"><title>Node4</title>
<a xlink:href="../../d0/d91/b2g-info_8cpp.html#aa3b05aa6e9f0537dd025e601f102491d" target="_top" xlink:title="print_b2g_pids">
<polygon fill="white" stroke="black" points="302,-0.5 302,-21.5 382,-21.5 382,-0.5 302,-0.5"/>
<text text-anchor="middle" x="342" y="-8.5" font-family="Helvetica,sans-Serif" font-size="10.00">print_b2g_pids</text>
</a>
</g>
<!-- Node1&#45;&gt;Node4 -->
<g id="edge6" class="edge"><title>Node1&#45;&gt;Node4</title>
<path fill="none" stroke="midnightblue" d="M111.232,-37.2575C123.903,-34.581 137.383,-31.9745 150,-30 202.122,-21.8433 262.784,-16.5314 301.749,-13.6513"/>
<polygon fill="midnightblue" stroke="midnightblue" points="110.311,-33.8756 101.276,-39.4083 111.789,-40.7177 110.311,-33.8756"/>
</g>
<!-- Node5 -->
<g id="node10" class="node"><title>Node5</title>
<a xlink:href="../../d0/d91/b2g-info_8cpp.html#a21a526f63654418c49b074caf7feb59d" target="_top" xlink:title="print_system_meminfo">
<polygon fill="white" stroke="black" points="150,-39.5 150,-60.5 266,-60.5 266,-39.5 150,-39.5"/>
<text text-anchor="middle" x="208" y="-47.5" font-family="Helvetica,sans-Serif" font-size="10.00">print_system_meminfo</text>
</a>
</g>
<!-- Node1&#45;&gt;Node5 -->
<g id="edge10" class="edge"><title>Node1&#45;&gt;Node5</title>
<path fill="none" stroke="midnightblue" d="M123.74,-50C132.415,-50 141.246,-50 149.767,-50"/>
<polygon fill="midnightblue" stroke="midnightblue" points="123.656,-46.5001 113.656,-50 123.656,-53.5001 123.656,-46.5001"/>
</g>
<!-- Node3 -->
<g id="node5" class="node"><title>Node3</title>
<a xlink:href="../../d0/d91/b2g-info_8cpp.html#a217dbf8b442f20279ea00b898af96f52" target="_top" xlink:title="main">
<polygon fill="white" stroke="black" points="418,-20.5 418,-41.5 456,-41.5 456,-20.5 418,-20.5"/>
<text text-anchor="middle" x="437" y="-28.5" font-family="Helvetica,sans-Serif" font-size="10.00">main</text>
</a>
</g>
<!-- Node2&#45;&gt;Node3 -->
<g id="edge4" class="edge"><title>Node2&#45;&gt;Node3</title>
<path fill="none" stroke="midnightblue" d="M390.684,-40.7507C400.364,-38.7128 409.979,-36.6887 417.918,-35.0172"/>
<polygon fill="midnightblue" stroke="midnightblue" points="389.705,-37.3801 380.64,-42.8652 391.147,-44.23 389.705,-37.3801"/>
</g>
<!-- Node4&#45;&gt;Node3 -->
<g id="edge8" class="edge"><title>Node4&#45;&gt;Node3</title>
<path fill="none" stroke="midnightblue" d="M392.037,-21.534C401.289,-23.4818 410.412,-25.4026 417.997,-26.9995"/>
<polygon fill="midnightblue" stroke="midnightblue" points="392.52,-18.0591 382.013,-19.4238 391.078,-24.9089 392.52,-18.0591"/>
</g>
<!-- Node5&#45;&gt;Node2 -->
<g id="edge12" class="edge"><title>Node5&#45;&gt;Node2</title>
<path fill="none" stroke="midnightblue" d="M276.442,-50.5108C285.728,-50.5801 294.977,-50.6491 303.475,-50.7125"/>
<polygon fill="midnightblue" stroke="midnightblue" points="276.41,-47.0105 266.385,-50.4357 276.358,-54.0103 276.41,-47.0105"/>
</g>
</g>
</svg>
