<?xml version="1.0" encoding="UTF-8" standalone="no"?>
<!DOCTYPE svg PUBLIC "-//W3C//DTD SVG 1.1//EN"
 "http://www.w3.org/Graphics/SVG/1.1/DTD/svg11.dtd">
<!-- Generated by graphviz version 2.26.3 (20100126.1600)
 -->
<!-- Title: G Pages: 1 -->
<svg width="488pt" height="49pt"
 viewBox="0.00 0.00 488.00 49.00" xmlns="http://www.w3.org/2000/svg" xmlns:xlink="http://www.w3.org/1999/xlink">
<g id="graph1" class="graph" transform="scale(1 1) rotate(0) translate(4 45)">
<title>G</title>
<polygon fill="white" stroke="white" points="-4,5 -4,-45 485,-45 485,5 -4,5"/>
<!-- Node1 -->
<g id="node1" class="node"><title>Node1</title>
<polygon fill="#bfbfbf" stroke="black" points="0,-19.5 0,-40.5 140,-40.5 140,-19.5 0,-19.5"/>
<text text-anchor="middle" x="70" y="-27.5" font-family="Helvetica,sans-Serif" font-size="10.00">ProcessList::b2g_processes</text>
</g>
<!-- Node2 -->
<g id="node3" class="node"><title>Node2</title>
<a xlink:href="../../d0/d91/b2g-info_8cpp.html#a72987403ed81c976534491e6e4cb7533" target="_top" xlink:title="print_b2g_info">
<polygon fill="white" stroke="black" points="328.5,-19.5 328.5,-40.5 405.5,-40.5 405.5,-19.5 328.5,-19.5"/>
<text text-anchor="middle" x="367" y="-27.5" font-family="Helvetica,sans-Serif" font-size="10.00">print_b2g_info</text>
</a>
</g>
<!-- Node1&#45;&gt;Node2 -->
<g id="edge2" class="edge"><title>Node1&#45;&gt;Node2</title>
<path fill="none" stroke="midnightblue" d="M150.286,-30.8373C158.965,-30.904 167.667,-30.9607 176,-31 227.555,-31.2432 240.446,-31.3437 292,-31 303.85,-30.921 316.752,-30.7718 328.461,-30.6123"/>
<polygon fill="midnightblue" stroke="midnightblue" points="150.16,-27.3363 140.131,-30.7549 150.103,-34.336 150.16,-27.3363"/>
</g>
<!-- Node4 -->
<g id="node7" class="node"><title>Node4</title>
<a xlink:href="../../d0/d91/b2g-info_8cpp.html#a21a526f63654418c49b074caf7feb59d" target="_top" xlink:title="print_system_meminfo">
<polygon fill="white" stroke="black" points="176,-0.5 176,-21.5 292,-21.5 292,-0.5 176,-0.5"/>
<text text-anchor="middle" x="234" y="-8.5" font-family="Helvetica,sans-Serif" font-size="10.00">print_system_meminfo</text>
</a>
</g>
<!-- Node1&#45;&gt;Node4 -->
<g id="edge6" class="edge"><title>Node1&#45;&gt;Node4</title>
<path fill="none" stroke="midnightblue" d="M150.149,-20.7145C158.802,-19.7119 167.483,-18.7062 175.806,-17.742"/>
<polygon fill="midnightblue" stroke="midnightblue" points="149.557,-17.2595 140.026,-21.8872 150.363,-24.213 149.557,-17.2595"/>
</g>
<!-- Node3 -->
<g id="node5" class="node"><title>Node3</title>
<a xlink:href="../../d0/d91/b2g-info_8cpp.html#a217dbf8b442f20279ea00b898af96f52" target="_top" xlink:title="main">
<polygon fill="white" stroke="black" points="442,-19.5 442,-40.5 480,-40.5 480,-19.5 442,-19.5"/>
<text text-anchor="middle" x="461" y="-27.5" font-family="Helvetica,sans-Serif" font-size="10.00">main</text>
</a>
</g>
<!-- Node2&#45;&gt;Node3 -->
<g id="edge4" class="edge"><title>Node2&#45;&gt;Node3</title>
<path fill="none" stroke="midnightblue" d="M415.632,-30C424.998,-30 434.278,-30 441.981,-30"/>
<polygon fill="midnightblue" stroke="midnightblue" points="415.505,-26.5001 405.505,-30 415.505,-33.5001 415.505,-26.5001"/>
</g>
<!-- Node4&#45;&gt;Node2 -->
<g id="edge8" class="edge"><title>Node4&#45;&gt;Node2</title>
<path fill="none" stroke="midnightblue" d="M302.347,-20.7638C311.227,-22.0325 320.064,-23.2948 328.222,-24.4603"/>
<polygon fill="midnightblue" stroke="midnightblue" points="302.73,-17.2832 292.336,-19.3337 301.74,-24.2128 302.73,-17.2832"/>
</g>
</g>
</svg>
