<?xml version="1.0" encoding="UTF-8" standalone="no"?>
<!DOCTYPE svg PUBLIC "-//W3C//DTD SVG 1.1//EN"
 "http://www.w3.org/Graphics/SVG/1.1/DTD/svg11.dtd">
<!-- Generated by graphviz version 2.26.3 (20100126.1600)
 -->
<!-- Title: G Pages: 1 -->
<!--zoomable 153 -->
<svg id="main" version="1.1" xmlns="http://www.w3.org/2000/svg" xmlns:xlink="http://www.w3.org/1999/xlink" xml:space="preserve" onload="init(evt)">
        <defs>
                <circle id="rim" cx="0" cy="0" r="7"/>
                <circle id="rim2" cx="0" cy="0" r="3.5"/>
                <g id="zoomPlus">
                        <use xlink:href="#rim" fill="#404040">
                                <set attributeName="fill" to="#808080" begin="zoomplus.mouseover" end="zoomplus.mouseout"/>
                        </use>
                        <path d="M-4,0h8M0,-4v8" fill="none" stroke="white" stroke-width="1.5" pointer-events="none"/>
                </g>
                <g id="zoomMin">
                        <use xlink:href="#rim" fill="#404040">
                                <set attributeName="fill" to="#808080" begin="zoomminus.mouseover" end="zoomminus.mouseout"/>
                        </use>
                        <path d="M-4,0h8" fill="none" stroke="white" stroke-width="1.5" pointer-events="none"/>
                </g>
                <g id="dirArrow">
                        <path fill="none" stroke="white" stroke-width="1.5" d="M0,-3.0v7 M-2.5,-0.5L0,-3.0L2.5,-0.5"/>
                </g>
               <g id="resetDef">
                       <use xlink:href="#rim2" fill="#404040">
                               <set attributeName="fill" to="#808080" begin="reset.mouseover" end="reset.mouseout"/>
                       </use>
               </g>
        </defs>

<script type="text/javascript">
var viewWidth = 2674;
var viewHeight = 153;
var sectionId = 'dynsection-1';
</script>
<script xlink:href="../../svgpan.js"/>
<svg id="graph" class="graph">
<g id="viewport">
<title>G</title>
<polygon fill="white" stroke="white" points="-4,5 -4,-149 2671,-149 2671,5 -4,5"/>
<!-- Node1 -->
<g id="node1" class="node"><title>Node1</title>
<polygon fill="#bfbfbf" stroke="black" points="2472,-59.5 2472,-80.5 2666,-80.5 2666,-59.5 2472,-59.5"/>
<text text-anchor="middle" x="2569" y="-67.5" font-family="Helvetica,sans-Serif" font-size="10.00">mozilla::dom::AudioChannelServiceChild</text>
</g>
<!-- Node2 -->
<g id="node2" class="node"><title>Node2</title>
<a xlink:href="../../d6/d5d/classmozilla_1_1dom_1_1_audio_channel_service.html" target="_top" xlink:title="mozilla::dom::AudioChannelService">
<polygon fill="white" stroke="black" points="2262,-59.5 2262,-80.5 2434,-80.5 2434,-59.5 2262,-59.5"/>
<text text-anchor="middle" x="2348" y="-67.5" font-family="Helvetica,sans-Serif" font-size="10.00">mozilla::dom::AudioChannelService</text>
</a>
</g>
<!-- Node2&#45;&gt;Node1 -->
<g id="edge2" class="edge"><title>Node2&#45;&gt;Node1</title>
<path fill="none" stroke="midnightblue" d="M2444.3,-70C2453.42,-70 2462.66,-70 2471.79,-70"/>
<polygon fill="midnightblue" stroke="midnightblue" points="2444.08,-66.5001 2434.08,-70 2444.08,-73.5001 2444.08,-66.5001"/>
</g>
<!-- Node3 -->
<g id="node4" class="node"><title>Node3</title>
<a xlink:href="../../d5/d6a/interfacens_i_observer.html" target="_top" xlink:title="nsIObserver">
<polygon fill="white" stroke="black" points="1883,-123.5 1883,-144.5 1953,-144.5 1953,-123.5 1883,-123.5"/>
<text text-anchor="middle" x="1918" y="-131.5" font-family="Helvetica,sans-Serif" font-size="10.00">nsIObserver</text>
</a>
</g>
<!-- Node3&#45;&gt;Node2 -->
<g id="edge4" class="edge"><title>Node3&#45;&gt;Node2</title>
<path fill="none" stroke="midnightblue" d="M1963.44,-129.838C2026.65,-123.695 2144.56,-110.959 2244,-93 2263.74,-89.4341 2285.43,-84.7593 2303.87,-80.5562"/>
<polygon fill="midnightblue" stroke="midnightblue" points="1963.02,-126.361 1953.4,-130.802 1963.69,-133.329 1963.02,-126.361"/>
</g>
<!-- Node4 -->
<g id="node6" class="node"><title>Node4</title>
<a xlink:href="../../d4/d6a/classns_i_supports.html" target="_top" xlink:title="nsISupports">
<polygon fill="white" stroke="black" points="1359.5,-101.5 1359.5,-122.5 1428.5,-122.5 1428.5,-101.5 1359.5,-101.5"/>
<text text-anchor="middle" x="1394" y="-109.5" font-family="Helvetica,sans-Serif" font-size="10.00">nsISupports</text>
</a>
</g>
<!-- Node4&#45;&gt;Node3 -->
<g id="edge6" class="edge"><title>Node4&#45;&gt;Node3</title>
<path fill="none" stroke="midnightblue" d="M1438.8,-109.897C1541.19,-110.382 1790.57,-120.983 1882.88,-128.933"/>
<polygon fill="midnightblue" stroke="midnightblue" points="1438.79,-106.397 1428.79,-109.883 1438.78,-113.397 1438.79,-106.397"/>
</g>
<!-- Node4&#45;&gt;Node3 -->
<g id="edge8" class="edge"><title>Node4&#45;&gt;Node3</title>
<path fill="none" stroke="midnightblue" d="M1438.8,-117.866C1541.19,-125.978 1790.57,-136.317 1882.88,-136.118"/>
<polygon fill="midnightblue" stroke="midnightblue" points="1439.04,-114.373 1428.79,-117.038 1438.46,-121.35 1439.04,-114.373"/>
</g>
<!-- Node5 -->
<g id="node9" class="node"><title>Node5</title>
<a xlink:href="../../de/dc8/interfacens_i_timer_callback.html" target="_top" xlink:title="nsITimerCallback">
<polygon fill="white" stroke="black" points="1871.5,-80.5 1871.5,-101.5 1964.5,-101.5 1964.5,-80.5 1871.5,-80.5"/>
<text text-anchor="middle" x="1918" y="-88.5" font-family="Helvetica,sans-Serif" font-size="10.00">nsITimerCallback</text>
</a>
</g>
<!-- Node4&#45;&gt;Node5 -->
<g id="edge12" class="edge"><title>Node4&#45;&gt;Node5</title>
<path fill="none" stroke="midnightblue" d="M1438.99,-106.205C1537.42,-98.6057 1771.03,-89.2208 1871.14,-88.8181"/>
<polygon fill="midnightblue" stroke="midnightblue" points="1438.47,-102.736 1428.79,-107.028 1439.04,-109.713 1438.47,-102.736"/>
</g>
<!-- Node4&#45;&gt;Node5 -->
<g id="edge14" class="edge"><title>Node4&#45;&gt;Node5</title>
<path fill="none" stroke="midnightblue" d="M1438.99,-114.188C1537.42,-113.899 1771.03,-104.559 1871.14,-96.938"/>
<polygon fill="midnightblue" stroke="midnightblue" points="1438.79,-110.688 1428.79,-114.184 1438.79,-117.688 1438.79,-110.688"/>
</g>
<!-- Node5&#45;&gt;Node2 -->
<g id="edge10" class="edge"><title>Node5&#45;&gt;Node2</title>
<path fill="none" stroke="midnightblue" d="M1974.76,-88.9805C2039.82,-86.5687 2149.64,-82.2011 2244,-77 2249.78,-76.6813 2255.74,-76.3329 2261.75,-75.9672"/>
<polygon fill="midnightblue" stroke="midnightblue" points="1974.58,-85.4848 1964.71,-89.3506 1974.84,-92.48 1974.58,-85.4848"/>
</g>
<!-- Node6 -->
<g id="node13" class="node"><title>Node6</title>
<a xlink:href="../../d8/d6f/classns_t_array.html" target="_top" xlink:title="nsTArray\&lt; uint64_t \&gt;">
<polygon fill="white" stroke="black" points="1863.5,-40.5 1863.5,-61.5 1972.5,-61.5 1972.5,-40.5 1863.5,-40.5"/>
<text text-anchor="middle" x="1918" y="-48.5" font-family="Helvetica,sans-Serif" font-size="10.00">nsTArray&lt; uint64_t &gt;</text>
</a>
</g>
<!-- Node6&#45;&gt;Node2 -->
<g id="edge16" class="edge"><title>Node6&#45;&gt;Node2</title>
<path fill="none" stroke="#9a32cd" stroke-dasharray="5,2" d="M1982.88,-47.5621C2048.78,-44.8767 2153.71,-42.8202 2244,-51 2262.65,-52.6892 2282.94,-56.0486 2300.62,-59.4791"/>
<polygon fill="#9a32cd" stroke="#9a32cd" points="1982.49,-44.0755 1972.64,-47.9971 1982.78,-51.0692 1982.49,-44.0755"/>
<text text-anchor="middle" x="2189" y="-68" font-family="Helvetica,sans-Serif" font-size="10.00"> mChannelCounters</text>
<text text-anchor="middle" x="2189" y="-55" font-family="Helvetica,sans-Serif" font-size="10.00">mActiveContentChildIDs</text>
</g>
<!-- Node7 -->
<g id="node15" class="node"><title>Node7</title>
<a xlink:href="../../d4/dd8/classns_t_array___impl.html" target="_top" xlink:title="nsTArray_Impl\&lt; uint64_t, nsTArrayInfallibleAllocator \&gt;">
<polygon fill="white" stroke="black" points="1267.5,-40.5 1267.5,-61.5 1520.5,-61.5 1520.5,-40.5 1267.5,-40.5"/>
<text text-anchor="middle" x="1394" y="-48.5" font-family="Helvetica,sans-Serif" font-size="10.00">nsTArray_Impl&lt; uint64_t, nsTArrayInfallibleAllocator &gt;</text>
</a>
</g>
<!-- Node7&#45;&gt;Node6 -->
<g id="edge18" class="edge"><title>Node7&#45;&gt;Node6</title>
<path fill="none" stroke="midnightblue" d="M1530.56,-51C1639.03,-51 1785.05,-51 1863.2,-51"/>
<polygon fill="midnightblue" stroke="midnightblue" points="1530.51,-47.5001 1520.51,-51 1530.51,-54.5001 1530.51,-47.5001"/>
</g>
<!-- Node8 -->
<g id="node17" class="node"><title>Node8</title>
<a xlink:href="../../db/d9f/classns_t_array__base.html" target="_top" xlink:title="nsTArray_base\&lt; nsTArrayInfallibleAllocator, nsTArray_CopyElements\&lt; uint64_t \&gt; \&gt;">
<polygon fill="white" stroke="black" points="604.5,-80.5 604.5,-101.5 987.5,-101.5 987.5,-80.5 604.5,-80.5"/>
<text text-anchor="middle" x="796" y="-88.5" font-family="Helvetica,sans-Serif" font-size="10.00">nsTArray_base&lt; nsTArrayInfallibleAllocator, nsTArray_CopyElements&lt; uint64_t &gt; &gt;</text>
</a>
</g>
<!-- Node8&#45;&gt;Node7 -->
<g id="edge20" class="edge"><title>Node8&#45;&gt;Node7</title>
<path fill="none" stroke="midnightblue" d="M963.25,-79.8127C1059.51,-73.3737 1178.55,-65.4114 1267.08,-59.4899"/>
<polygon fill="midnightblue" stroke="midnightblue" points="962.862,-76.3308 953.117,-80.4905 963.329,-83.3152 962.862,-76.3308"/>
</g>
<!-- Node9 -->
<g id="node19" class="node"><title>Node9</title>
<a xlink:href="../../dc/d5a/structns_t_array_header.html" target="_top" xlink:title="nsTArrayHeader">
<polygon fill="white" stroke="black" points="182,-80.5 182,-101.5 270,-101.5 270,-80.5 182,-80.5"/>
<text text-anchor="middle" x="226" y="-88.5" font-family="Helvetica,sans-Serif" font-size="10.00">nsTArrayHeader</text>
</a>
</g>
<!-- Node9&#45;&gt;Node8 -->
<g id="edge22" class="edge"><title>Node9&#45;&gt;Node8</title>
<path fill="none" stroke="#9a32cd" stroke-dasharray="5,2" d="M280.263,-91C354.199,-91 490.425,-91 604.308,-91"/>
<polygon fill="#9a32cd" stroke="#9a32cd" points="280.253,-87.5001 270.253,-91 280.253,-94.5001 280.253,-87.5001"/>
<text text-anchor="middle" x="488" y="-95" font-family="Helvetica,sans-Serif" font-size="10.00"> mHdr</text>
</g>
<!-- Node9&#45;&gt;Node9 -->
<g id="edge24" class="edge"><title>Node9&#45;&gt;Node9</title>
<path fill="none" stroke="#9a32cd" stroke-dasharray="5,2" d="M176.992,-108.232C175.315,-114.683 191.651,-120 226,-120 271.799,-120 285.574,-110.548 267.326,-101.557"/>
<polygon fill="#9a32cd" stroke="#9a32cd" points="179.421,-110.758 184.674,-101.557 174.83,-105.474 179.421,-110.758"/>
<text text-anchor="middle" x="226" y="-124" font-family="Helvetica,sans-Serif" font-size="10.00"> sEmptyHdr</text>
</g>
<!-- Node10 -->
<g id="node22" class="node"><title>Node10</title>
<a xlink:href="../../d7/dcf/structns_t_array___typed_base.html" target="_top" xlink:title="nsTArray_TypedBase\&lt; uint64_t, nsTArray_Impl\&lt; uint64_t, nsTArrayInfallibleAllocator \&gt; \&gt;">
<polygon fill="white" stroke="black" points="593,-40.5 593,-61.5 999,-61.5 999,-40.5 593,-40.5"/>
<text text-anchor="middle" x="796" y="-48.5" font-family="Helvetica,sans-Serif" font-size="10.00">nsTArray_TypedBase&lt; uint64_t, nsTArray_Impl&lt; uint64_t, nsTArrayInfallibleAllocator &gt; &gt;</text>
</a>
</g>
<!-- Node10&#45;&gt;Node7 -->
<g id="edge26" class="edge"><title>Node10&#45;&gt;Node7</title>
<path fill="none" stroke="midnightblue" d="M1009.5,-51C1095.87,-51 1192.63,-51 1267.48,-51"/>
<polygon fill="midnightblue" stroke="midnightblue" points="1009.29,-47.5001 999.29,-51 1009.29,-54.5001 1009.29,-47.5001"/>
</g>
<!-- Node11 -->
<g id="node24" class="node"><title>Node11</title>
<a xlink:href="../../db/d62/structns_t_array___safe_element_at_helper.html" target="_top" xlink:title="nsTArray_SafeElementAtHelper\&lt; uint64_t, nsTArray_Impl\&lt; uint64_t, nsTArrayInfallibleAllocator \&gt; \&gt;">
<polygon fill="white" stroke="black" points="0.5,-40.5 0.5,-61.5 451.5,-61.5 451.5,-40.5 0.5,-40.5"/>
<text text-anchor="middle" x="226" y="-48.5" font-family="Helvetica,sans-Serif" font-size="10.00">nsTArray_SafeElementAtHelper&lt; uint64_t, nsTArray_Impl&lt; uint64_t, nsTArrayInfallibleAllocator &gt; &gt;</text>
</a>
</g>
<!-- Node11&#45;&gt;Node10 -->
<g id="edge28" class="edge"><title>Node11&#45;&gt;Node10</title>
<path fill="none" stroke="midnightblue" d="M461.835,-51C505.386,-51 550.516,-51 592.99,-51"/>
<polygon fill="midnightblue" stroke="midnightblue" points="461.688,-47.5001 451.688,-51 461.688,-54.5001 461.688,-47.5001"/>
</g>
<!-- Node12 -->
<g id="node26" class="node"><title>Node12</title>
<a xlink:href="../../d3/d72/classns_class_hashtable.html" target="_top" xlink:title="nsClassHashtable\&lt; nsPtrHashKey\&lt; AudioChannelAgent \&gt;, AudioChannelAgentData \&gt;">
<polygon fill="white" stroke="black" points="1720,-0.5 1720,-21.5 2116,-21.5 2116,-0.5 1720,-0.5"/>
<text text-anchor="middle" x="1918" y="-8.5" font-family="Helvetica,sans-Serif" font-size="10.00">nsClassHashtable&lt; nsPtrHashKey&lt; AudioChannelAgent &gt;, AudioChannelAgentData &gt;</text>
</a>
</g>
<!-- Node12&#45;&gt;Node2 -->
<g id="edge30" class="edge"><title>Node12&#45;&gt;Node2</title>
<path fill="none" stroke="#9a32cd" stroke-dasharray="5,2" d="M2126.36,-11.5575C2165.75,-14.5626 2206.38,-19.668 2244,-28 2274.23,-34.6949 2307.03,-49.2753 2327.54,-59.3633"/>
<polygon fill="#9a32cd" stroke="#9a32cd" points="2126.6,-8.06591 2116.37,-10.8381 2126.1,-15.0478 2126.6,-8.06591"/>
<text text-anchor="middle" x="2189" y="-32" font-family="Helvetica,sans-Serif" font-size="10.00"> mAgents</text>
</g>
<!-- Node13 -->
<g id="node28" class="node"><title>Node13</title>
<a xlink:href="../../da/dba/classns_base_hashtable.html" target="_top" xlink:title="nsBaseHashtable\&lt; nsPtrHashKey\&lt; AudioChannelAgent \&gt;, nsAutoPtr\&lt; AudioChannelAgentData \&gt;, AudioChannelAgentData * \&gt;">
<polygon fill="white" stroke="black" points="1106.5,-0.5 1106.5,-21.5 1681.5,-21.5 1681.5,-0.5 1106.5,-0.5"/>
<text text-anchor="middle" x="1394" y="-8.5" font-family="Helvetica,sans-Serif" font-size="10.00">nsBaseHashtable&lt; nsPtrHashKey&lt; AudioChannelAgent &gt;, nsAutoPtr&lt; AudioChannelAgentData &gt;, AudioChannelAgentData * &gt;</text>
</a>
</g>
<!-- Node13&#45;&gt;Node12 -->
<g id="edge32" class="edge"><title>Node13&#45;&gt;Node12</title>
<path fill="none" stroke="midnightblue" d="M1691.9,-11C1701.31,-11 1710.65,-11 1719.87,-11"/>
<polygon fill="midnightblue" stroke="midnightblue" points="1691.68,-7.5001 1681.68,-11 1691.68,-14.5001 1691.68,-7.5001"/>
</g>
<!-- Node14 -->
<g id="node30" class="node"><title>Node14</title>
<a xlink:href="../../d5/dc3/classns_t_hashtable.html" target="_top" xlink:title="nsTHashtable\&lt; nsBaseHashtableET\&lt; nsPtrHashKey\&lt; AudioChannelAgent \&gt;,nsAutoPtr\&lt; AudioChannelAgentData \&gt; \&gt; \&gt;">
<polygon fill="white" stroke="black" points="524.5,-0.5 524.5,-21.5 1067.5,-21.5 1067.5,-0.5 524.5,-0.5"/>
<text text-anchor="middle" x="796" y="-8.5" font-family="Helvetica,sans-Serif" font-size="10.00">nsTHashtable&lt; nsBaseHashtableET&lt; nsPtrHashKey&lt; AudioChannelAgent &gt;,nsAutoPtr&lt; AudioChannelAgentData &gt; &gt; &gt;</text>
</a>
</g>
<!-- Node14&#45;&gt;Node13 -->
<g id="edge34" class="edge"><title>Node14&#45;&gt;Node13</title>
<path fill="none" stroke="darkgreen" d="M1078.09,-11C1087.52,-11 1096.96,-11 1106.4,-11"/>
<polygon fill="darkgreen" stroke="darkgreen" points="1077.88,-7.5001 1067.88,-11 1077.88,-14.5001 1077.88,-7.5001"/>
</g>
<!-- Node15 -->
<g id="node32" class="node"><title>Node15</title>
<polygon fill="white" stroke="#bfbfbf" points="205.5,-0.5 205.5,-21.5 246.5,-21.5 246.5,-0.5 205.5,-0.5"/>
<text text-anchor="middle" x="226" y="-8.5" font-family="Helvetica,sans-Serif" font-size="10.00">struct</text>
</g>
<!-- Node15&#45;&gt;Node14 -->
<g id="edge36" class="edge"><title>Node15&#45;&gt;Node14</title>
<path fill="none" stroke="#9a32cd" stroke-dasharray="5,2" d="M256.764,-11C308.473,-11 417.657,-11 524.342,-11"/>
<polygon fill="#9a32cd" stroke="#9a32cd" points="256.623,-7.5001 246.623,-11 256.623,-14.5001 256.623,-7.5001"/>
<text text-anchor="middle" x="488" y="-15" font-family="Helvetica,sans-Serif" font-size="10.00"> mTable</text>
</g>
</g>
</svg>
        <g id="navigator" transform="translate(0 0)" fill="#404254">
                <rect fill="#f2f5e9" fill-opacity="0.5" stroke="#606060" stroke-width=".5" x="0" y="0" width="60" height="60"/>
                <use id="zoomplus" xlink:href="#zoomPlus" x="17" y="9" onmousedown="handleZoom(evt,'in')"/>
                <use id="zoomminus" xlink:href="#zoomMin" x="42" y="9" onmousedown="handleZoom(evt,'out')"/>
                <use id="reset" xlink:href="#resetDef" x="30" y="36" onmousedown="handleReset()"/>
                <g id="arrowUp" xlink:href="#dirArrow" transform="translate(30 24)" onmousedown="handlePan(0,-1)">
                  <use xlink:href="#rim" fill="#404040">
                        <set attributeName="fill" to="#808080" begin="arrowUp.mouseover" end="arrowUp.mouseout"/>
                  </use>
                  <path fill="none" stroke="white" stroke-width="1.5" d="M0,-3.0v7 M-2.5,-0.5L0,-3.0L2.5,-0.5"/>
                </g>
                <g id="arrowRight" xlink:href="#dirArrow" transform="rotate(90) translate(36 -43)" onmousedown="handlePan(1,0)">
                  <use xlink:href="#rim" fill="#404040">
                        <set attributeName="fill" to="#808080" begin="arrowRight.mouseover" end="arrowRight.mouseout"/>
                  </use>
                  <path fill="none" stroke="white" stroke-width="1.5" d="M0,-3.0v7 M-2.5,-0.5L0,-3.0L2.5,-0.5"/>
                </g>
                <g id="arrowDown" xlink:href="#dirArrow" transform="rotate(180) translate(-30 -48)" onmousedown="handlePan(0,1)">
                  <use xlink:href="#rim" fill="#404040">
                        <set attributeName="fill" to="#808080" begin="arrowDown.mouseover" end="arrowDown.mouseout"/>
                  </use>
                  <path fill="none" stroke="white" stroke-width="1.5" d="M0,-3.0v7 M-2.5,-0.5L0,-3.0L2.5,-0.5"/>
                </g>
                <g id="arrowLeft" xlink:href="#dirArrow" transform="rotate(270) translate(-36 17)" onmousedown="handlePan(-1,0)">
                  <use xlink:href="#rim" fill="#404040">
                        <set attributeName="fill" to="#808080" begin="arrowLeft.mouseover" end="arrowLeft.mouseout"/>
                  </use>
                  <path fill="none" stroke="white" stroke-width="1.5" d="M0,-3.0v7 M-2.5,-0.5L0,-3.0L2.5,-0.5"/>
                </g>
        </g>
</svg>
