<?xml version="1.0" encoding="UTF-8" standalone="no"?>
<!DOCTYPE svg PUBLIC "-//W3C//DTD SVG 1.1//EN"
 "http://www.w3.org/Graphics/SVG/1.1/DTD/svg11.dtd">
<!-- Generated by graphviz version 2.26.3 (20100126.1600)
 -->
<!-- Title: G Pages: 1 -->
<!--zoomable 186 -->
<svg id="main" version="1.1" xmlns="http://www.w3.org/2000/svg" xmlns:xlink="http://www.w3.org/1999/xlink" xml:space="preserve" onload="init(evt)">
        <defs>
                <circle id="rim" cx="0" cy="0" r="7"/>
                <circle id="rim2" cx="0" cy="0" r="3.5"/>
                <g id="zoomPlus">
                        <use xlink:href="#rim" fill="#404040">
                                <set attributeName="fill" to="#808080" begin="zoomplus.mouseover" end="zoomplus.mouseout"/>
                        </use>
                        <path d="M-4,0h8M0,-4v8" fill="none" stroke="white" stroke-width="1.5" pointer-events="none"/>
                </g>
                <g id="zoomMin">
                        <use xlink:href="#rim" fill="#404040">
                                <set attributeName="fill" to="#808080" begin="zoomminus.mouseover" end="zoomminus.mouseout"/>
                        </use>
                        <path d="M-4,0h8" fill="none" stroke="white" stroke-width="1.5" pointer-events="none"/>
                </g>
                <g id="dirArrow">
                        <path fill="none" stroke="white" stroke-width="1.5" d="M0,-3.0v7 M-2.5,-0.5L0,-3.0L2.5,-0.5"/>
                </g>
               <g id="resetDef">
                       <use xlink:href="#rim2" fill="#404040">
                               <set attributeName="fill" to="#808080" begin="reset.mouseover" end="reset.mouseout"/>
                       </use>
               </g>
        </defs>

<script type="text/javascript">
var viewWidth = 964;
var viewHeight = 186;
var sectionId = 'dynsection-1';
</script>
<script xlink:href="../../svgpan.js"/>
<svg id="graph" class="graph">
<g id="viewport">
<title>G</title>
<polygon fill="white" stroke="white" points="-4,5 -4,-182 961,-182 961,5 -4,5"/>
<!-- Node1 -->
<g id="node1" class="node"><title>Node1</title>
<polygon fill="#bfbfbf" stroke="black" points="0.5,-117.5 0.5,-138.5 317.5,-138.5 317.5,-117.5 0.5,-117.5"/>
<text text-anchor="middle" x="159" y="-125.5" font-family="Helvetica,sans-Serif" font-size="10.00">mozilla::dom::SpeechRecognitionErrorBinding::GetConstructorObject</text>
</g>
<!-- Node2 -->
<g id="node3" class="node"><title>Node2</title>
<a xlink:href="../../d6/dee/namespacemozilla_1_1dom_1_1_speech_recognition_error_binding.html#a5d0a4afb830464c55997437406f6c3a6" target="_top" xlink:title="mozilla::dom::SpeechRecognitionErrorBinding::CreateInterfaceObjects">
<polygon fill="white" stroke="black" points="354.5,-156.5 354.5,-177.5 677.5,-177.5 677.5,-156.5 354.5,-156.5"/>
<text text-anchor="middle" x="516" y="-164.5" font-family="Helvetica,sans-Serif" font-size="10.00">mozilla::dom::SpeechRecognitionErrorBinding::CreateInterfaceObjects</text>
</a>
</g>
<!-- Node1&#45;&gt;Node2 -->
<g id="edge2" class="edge"><title>Node1&#45;&gt;Node2</title>
<path fill="none" stroke="midnightblue" d="M255.139,-138.503C302.862,-143.716 360.644,-150.028 409.684,-155.386"/>
<polygon fill="midnightblue" stroke="midnightblue" points="409.368,-158.872 419.689,-156.479 410.129,-151.913 409.368,-158.872"/>
</g>
<!-- Node3 -->
<g id="node5" class="node"><title>Node3</title>
<a xlink:href="../../db/da2/namespacejs.html#aca7ef07fd5e632405949331c6929f1e6" target="_top" xlink:title="js::GetObjectClass">
<polygon fill="white" stroke="black" points="856,-79.5 856,-100.5 956,-100.5 956,-79.5 856,-79.5"/>
<text text-anchor="middle" x="906" y="-87.5" font-family="Helvetica,sans-Serif" font-size="10.00">js::GetObjectClass</text>
</a>
</g>
<!-- Node1&#45;&gt;Node3 -->
<g id="edge4" class="edge"><title>Node1&#45;&gt;Node3</title>
<path fill="none" stroke="midnightblue" d="M317.652,-121.268C451.582,-115.358 648.393,-106.139 820,-96 828.376,-95.5051 837.208,-94.9392 845.894,-94.3572"/>
<polygon fill="midnightblue" stroke="midnightblue" points="846.25,-97.8412 855.989,-93.6698 845.774,-90.8574 846.25,-97.8412"/>
</g>
<!-- Node4 -->
<g id="node7" class="node"><title>Node4</title>
<a xlink:href="../../d7/d4b/namespacemozilla_1_1dom.html#ade3c1c38ff416c6d50f6c97f01f836e1" target="_top" xlink:title="mozilla::dom::GetProtoAndIfaceArray">
<polygon fill="white" stroke="black" points="426.5,-59.5 426.5,-80.5 605.5,-80.5 605.5,-59.5 426.5,-59.5"/>
<text text-anchor="middle" x="516" y="-67.5" font-family="Helvetica,sans-Serif" font-size="10.00">mozilla::dom::GetProtoAndIfaceArray</text>
</a>
</g>
<!-- Node1&#45;&gt;Node4 -->
<g id="edge6" class="edge"><title>Node1&#45;&gt;Node4</title>
<path fill="none" stroke="midnightblue" d="M223.65,-117.497C284.874,-107.55 376.767,-92.6205 441.142,-82.1618"/>
<polygon fill="midnightblue" stroke="midnightblue" points="441.919,-85.5815 451.229,-80.5231 440.797,-78.6721 441.919,-85.5815"/>
</g>
<!-- Node4&#45;&gt;Node3 -->
<g id="edge8" class="edge"><title>Node4&#45;&gt;Node3</title>
<path fill="none" stroke="midnightblue" d="M605.964,-74.6135C679.48,-78.3836 781.387,-83.6096 845.489,-86.8969"/>
<polygon fill="midnightblue" stroke="midnightblue" points="845.666,-90.4105 855.832,-87.4273 846.025,-83.4196 845.666,-90.4105"/>
</g>
<!-- Node5 -->
<g id="node10" class="node"><title>Node5</title>
<a xlink:href="../../db/da2/namespacejs.html#ad81f7c892e54c34c67a930983b58c1b0" target="_top" xlink:title="js::GetReservedSlot">
<polygon fill="white" stroke="black" points="714.5,-40.5 714.5,-61.5 819.5,-61.5 819.5,-40.5 714.5,-40.5"/>
<text text-anchor="middle" x="767" y="-48.5" font-family="Helvetica,sans-Serif" font-size="10.00">js::GetReservedSlot</text>
</a>
</g>
<!-- Node4&#45;&gt;Node5 -->
<g id="edge10" class="edge"><title>Node4&#45;&gt;Node5</title>
<path fill="none" stroke="midnightblue" d="M605.554,-63.221C638.172,-60.7519 674.328,-58.015 704.142,-55.7582"/>
<polygon fill="midnightblue" stroke="midnightblue" points="704.699,-59.2261 714.407,-54.9812 704.171,-52.2461 704.699,-59.2261"/>
</g>
<!-- Node6 -->
<g id="node13" class="node"><title>Node6</title>
<a xlink:href="../../d1/d94/class_j_s_1_1_value.html#acb6cff159be405ffc5f5f64fa39a04db" target="_top" xlink:title="JS::Value::toPrivate">
<polygon fill="white" stroke="black" points="715,-0.5 715,-21.5 819,-21.5 819,-0.5 715,-0.5"/>
<text text-anchor="middle" x="767" y="-8.5" font-family="Helvetica,sans-Serif" font-size="10.00">JS::Value::toPrivate</text>
</a>
</g>
<!-- Node4&#45;&gt;Node6 -->
<g id="edge14" class="edge"><title>Node4&#45;&gt;Node6</title>
<path fill="none" stroke="midnightblue" d="M560.874,-59.452C603.217,-49.4988 666.796,-34.554 712.135,-23.8965"/>
<polygon fill="midnightblue" stroke="midnightblue" points="713.159,-27.2514 722.092,-21.556 711.557,-20.4372 713.159,-27.2514"/>
</g>
<!-- Node5&#45;&gt;Node3 -->
<g id="edge12" class="edge"><title>Node5&#45;&gt;Node3</title>
<path fill="none" stroke="midnightblue" d="M804.615,-61.554C821.149,-66.1929 840.757,-71.6943 858.302,-76.617"/>
<polygon fill="midnightblue" stroke="midnightblue" points="857.781,-80.106 868.355,-79.4376 859.672,-73.3662 857.781,-80.106"/>
</g>
</g>
</svg>
        <g id="navigator" transform="translate(0 0)" fill="#404254">
                <rect fill="#f2f5e9" fill-opacity="0.5" stroke="#606060" stroke-width=".5" x="0" y="0" width="60" height="60"/>
                <use id="zoomplus" xlink:href="#zoomPlus" x="17" y="9" onmousedown="handleZoom(evt,'in')"/>
                <use id="zoomminus" xlink:href="#zoomMin" x="42" y="9" onmousedown="handleZoom(evt,'out')"/>
                <use id="reset" xlink:href="#resetDef" x="30" y="36" onmousedown="handleReset()"/>
                <g id="arrowUp" xlink:href="#dirArrow" transform="translate(30 24)" onmousedown="handlePan(0,-1)">
                  <use xlink:href="#rim" fill="#404040">
                        <set attributeName="fill" to="#808080" begin="arrowUp.mouseover" end="arrowUp.mouseout"/>
                  </use>
                  <path fill="none" stroke="white" stroke-width="1.5" d="M0,-3.0v7 M-2.5,-0.5L0,-3.0L2.5,-0.5"/>
                </g>
                <g id="arrowRight" xlink:href="#dirArrow" transform="rotate(90) translate(36 -43)" onmousedown="handlePan(1,0)">
                  <use xlink:href="#rim" fill="#404040">
                        <set attributeName="fill" to="#808080" begin="arrowRight.mouseover" end="arrowRight.mouseout"/>
                  </use>
                  <path fill="none" stroke="white" stroke-width="1.5" d="M0,-3.0v7 M-2.5,-0.5L0,-3.0L2.5,-0.5"/>
                </g>
                <g id="arrowDown" xlink:href="#dirArrow" transform="rotate(180) translate(-30 -48)" onmousedown="handlePan(0,1)">
                  <use xlink:href="#rim" fill="#404040">
                        <set attributeName="fill" to="#808080" begin="arrowDown.mouseover" end="arrowDown.mouseout"/>
                  </use>
                  <path fill="none" stroke="white" stroke-width="1.5" d="M0,-3.0v7 M-2.5,-0.5L0,-3.0L2.5,-0.5"/>
                </g>
                <g id="arrowLeft" xlink:href="#dirArrow" transform="rotate(270) translate(-36 17)" onmousedown="handlePan(-1,0)">
                  <use xlink:href="#rim" fill="#404040">
                        <set attributeName="fill" to="#808080" begin="arrowLeft.mouseover" end="arrowLeft.mouseout"/>
                  </use>
                  <path fill="none" stroke="white" stroke-width="1.5" d="M0,-3.0v7 M-2.5,-0.5L0,-3.0L2.5,-0.5"/>
                </g>
        </g>
</svg>
