<?xml version="1.0" encoding="UTF-8" standalone="no"?>
<!DOCTYPE svg PUBLIC "-//W3C//DTD SVG 1.1//EN"
 "http://www.w3.org/Graphics/SVG/1.1/DTD/svg11.dtd">
<!-- Generated by graphviz version 2.26.3 (20100126.1600)
 -->
<!-- Title: G Pages: 1 -->
<svg width="498pt" height="70pt"
 viewBox="0.00 0.00 498.00 70.00" xmlns="http://www.w3.org/2000/svg" xmlns:xlink="http://www.w3.org/1999/xlink">
<g id="graph1" class="graph" transform="scale(1 1) rotate(0) translate(4 66)">
<title>G</title>
<polygon fill="white" stroke="white" points="-4,5 -4,-66 495,-66 495,5 -4,5"/>
<!-- Node1 -->
<g id="node1" class="node"><title>Node1</title>
<polygon fill="#bfbfbf" stroke="black" points="0.5,-20.5 0.5,-41.5 141.5,-41.5 141.5,-20.5 0.5,-20.5"/>
<text text-anchor="middle" x="71" y="-28.5" font-family="Helvetica,sans-Serif" font-size="10.00">gfxCharacterMap::CalcHash</text>
</g>
<!-- Node2 -->
<g id="node3" class="node"><title>Node2</title>
<a xlink:href="../../de/dcb/classgfx_sparse_bit_set.html#a20eebbf58478160a34c7c63775c6924a" target="_top" xlink:title="gfxSparseBitSet::GetChecksum">
<polygon fill="white" stroke="black" points="178.5,-20.5 178.5,-41.5 335.5,-41.5 335.5,-20.5 178.5,-20.5"/>
<text text-anchor="middle" x="257" y="-28.5" font-family="Helvetica,sans-Serif" font-size="10.00">gfxSparseBitSet::GetChecksum</text>
</a>
</g>
<!-- Node1&#45;&gt;Node2 -->
<g id="edge2" class="edge"><title>Node1&#45;&gt;Node2</title>
<path fill="none" stroke="midnightblue" d="M141.584,-31C150.32,-31 159.337,-31 168.3,-31"/>
<polygon fill="midnightblue" stroke="midnightblue" points="168.38,-34.5001 178.38,-31 168.38,-27.5001 168.38,-34.5001"/>
</g>
<!-- Node3 -->
<g id="node5" class="node"><title>Node3</title>
<a xlink:href="../../d1/d5b/namespacejcconv.html#a846efc552618562a262a88978ef66841" target="_top" xlink:title="jcconv.check">
<polygon fill="white" stroke="black" points="394,-40.5 394,-61.5 468,-61.5 468,-40.5 394,-40.5"/>
<text text-anchor="middle" x="431" y="-48.5" font-family="Helvetica,sans-Serif" font-size="10.00">jcconv.check</text>
</a>
</g>
<!-- Node2&#45;&gt;Node3 -->
<g id="edge4" class="edge"><title>Node2&#45;&gt;Node3</title>
<path fill="none" stroke="midnightblue" d="M335.601,-40.0345C351.834,-41.9005 368.461,-43.8116 383.193,-45.505"/>
<polygon fill="midnightblue" stroke="midnightblue" points="383.218,-49.0308 393.552,-46.6957 384.018,-42.0766 383.218,-49.0308"/>
</g>
<!-- Node4 -->
<g id="node7" class="node"><title>Node4</title>
<a xlink:href="../../db/d9f/classns_t_array__base.html#a9ff8fa91fb766d44982e50ac82558141" target="_top" xlink:title="nsTArray_base::Length">
<polygon fill="white" stroke="black" points="372,-0.5 372,-21.5 490,-21.5 490,-0.5 372,-0.5"/>
<text text-anchor="middle" x="431" y="-8.5" font-family="Helvetica,sans-Serif" font-size="10.00">nsTArray_base::Length</text>
</a>
</g>
<!-- Node2&#45;&gt;Node4 -->
<g id="edge6" class="edge"><title>Node2&#45;&gt;Node4</title>
<path fill="none" stroke="midnightblue" d="M335.601,-21.9655C344.339,-20.961 353.192,-19.9434 361.802,-18.9538"/>
<polygon fill="midnightblue" stroke="midnightblue" points="362.241,-22.4264 371.776,-17.8073 361.442,-15.4722 362.241,-22.4264"/>
</g>
</g>
</svg>
