<?xml version="1.0" encoding="UTF-8" standalone="no"?>
<!DOCTYPE svg PUBLIC "-//W3C//DTD SVG 1.1//EN"
 "http://www.w3.org/Graphics/SVG/1.1/DTD/svg11.dtd">
<!-- Generated by graphviz version 2.26.3 (20100126.1600)
 -->
<!-- Title: G Pages: 1 -->
<svg width="498pt" height="204pt"
 viewBox="0.00 0.00 498.00 204.00" xmlns="http://www.w3.org/2000/svg" xmlns:xlink="http://www.w3.org/1999/xlink">
<g id="graph1" class="graph" transform="scale(1 1) rotate(0) translate(4 200)">
<title>G</title>
<polygon fill="white" stroke="white" points="-4,5 -4,-200 495,-200 495,5 -4,5"/>
<!-- Node1 -->
<g id="node1" class="node"><title>Node1</title>
<polygon fill="#bfbfbf" stroke="black" points="19,-174.5 19,-195.5 471,-195.5 471,-174.5 19,-174.5"/>
<text text-anchor="middle" x="245" y="-182.5" font-family="Helvetica,sans-Serif" font-size="10.00">/home/aoi/Documents/FxOS/B2G/gaia/xulrunner&#45;sdk/include/mozilla/plugins/PluginIdentifierParent.h</text>
</g>
<!-- Node2 -->
<g id="node3" class="node"><title>Node2</title>
<a xlink:href="../../d8/d57/_plugin_module_parent_8h.html" target="_top" xlink:title="/home/aoi/Documents/FxOS/B2G/gaia/xulrunner&#45;sdk/include/mozilla/plugins/PluginModuleParent.h">
<polygon fill="white" stroke="black" points="22,-116.5 22,-137.5 468,-137.5 468,-116.5 22,-116.5"/>
<text text-anchor="middle" x="245" y="-124.5" font-family="Helvetica,sans-Serif" font-size="10.00">/home/aoi/Documents/FxOS/B2G/gaia/xulrunner&#45;sdk/include/mozilla/plugins/PluginModuleParent.h</text>
</a>
</g>
<!-- Node1&#45;&gt;Node2 -->
<g id="edge2" class="edge"><title>Node1&#45;&gt;Node2</title>
<path fill="none" stroke="midnightblue" d="M245,-164.191C245,-155.168 245,-144.994 245,-137.571"/>
<polygon fill="midnightblue" stroke="midnightblue" points="241.5,-164.362 245,-174.362 248.5,-164.362 241.5,-164.362"/>
</g>
<!-- Node3 -->
<g id="node5" class="node"><title>Node3</title>
<a xlink:href="../../d9/d99/_plugin_scriptable_object_utils_8h.html" target="_top" xlink:title="/home/aoi/Documents/FxOS/B2G/gaia/xulrunner&#45;sdk/include/mozilla/plugins/PluginScriptableObjectUtils.h">
<polygon fill="white" stroke="black" points="6,-58.5 6,-79.5 484,-79.5 484,-58.5 6,-58.5"/>
<text text-anchor="middle" x="245" y="-66.5" font-family="Helvetica,sans-Serif" font-size="10.00">/home/aoi/Documents/FxOS/B2G/gaia/xulrunner&#45;sdk/include/mozilla/plugins/PluginScriptableObjectUtils.h</text>
</a>
</g>
<!-- Node2&#45;&gt;Node3 -->
<g id="edge4" class="edge"><title>Node2&#45;&gt;Node3</title>
<path fill="none" stroke="midnightblue" d="M245,-106.191C245,-97.1684 245,-86.9941 245,-79.5707"/>
<polygon fill="midnightblue" stroke="midnightblue" points="241.5,-106.362 245,-116.362 248.5,-106.362 241.5,-106.362"/>
</g>
<!-- Node4 -->
<g id="node7" class="node"><title>Node4</title>
<a xlink:href="../../d8/d00/_plugin_scriptable_object_utils-inl_8h.html" target="_top" xlink:title="/home/aoi/Documents/FxOS/B2G/gaia/xulrunner&#45;sdk/include/mozilla/plugins/PluginScriptableObjectUtils&#45;inl.h">
<polygon fill="white" stroke="black" points="-0.5,-0.5 -0.5,-21.5 490.5,-21.5 490.5,-0.5 -0.5,-0.5"/>
<text text-anchor="middle" x="245" y="-8.5" font-family="Helvetica,sans-Serif" font-size="10.00">/home/aoi/Documents/FxOS/B2G/gaia/xulrunner&#45;sdk/include/mozilla/plugins/PluginScriptableObjectUtils&#45;inl.h</text>
</a>
</g>
<!-- Node3&#45;&gt;Node4 -->
<g id="edge6" class="edge"><title>Node3&#45;&gt;Node4</title>
<path fill="none" stroke="midnightblue" d="M238.495,-48.1906C237.941,-39.1684 238.326,-28.9941 239.648,-21.5707"/>
<polygon fill="midnightblue" stroke="midnightblue" points="235.043,-48.8143 239.636,-58.3619 242,-48.0341 235.043,-48.8143"/>
</g>
<!-- Node4&#45;&gt;Node3 -->
<g id="edge8" class="edge"><title>Node4&#45;&gt;Node3</title>
<path fill="none" stroke="midnightblue" d="M251.5,-31.7276C252.059,-40.7427 251.681,-50.9219 250.364,-58.3619"/>
<polygon fill="midnightblue" stroke="midnightblue" points="254.953,-31.1144 250.352,-21.5707 247.997,-31.9004 254.953,-31.1144"/>
</g>
</g>
</svg>
