<?xml version="1.0" encoding="UTF-8" standalone="no"?>
<!DOCTYPE svg PUBLIC "-//W3C//DTD SVG 1.1//EN"
 "http://www.w3.org/Graphics/SVG/1.1/DTD/svg11.dtd">
<!-- Generated by graphviz version 2.26.3 (20100126.1600)
 -->
<!-- Title: G Pages: 1 -->
<!--zoomable 70 -->
<svg id="main" version="1.1" xmlns="http://www.w3.org/2000/svg" xmlns:xlink="http://www.w3.org/1999/xlink" xml:space="preserve" onload="init(evt)">
        <defs>
                <circle id="rim" cx="0" cy="0" r="7"/>
                <circle id="rim2" cx="0" cy="0" r="3.5"/>
                <g id="zoomPlus">
                        <use xlink:href="#rim" fill="#404040">
                                <set attributeName="fill" to="#808080" begin="zoomplus.mouseover" end="zoomplus.mouseout"/>
                        </use>
                        <path d="M-4,0h8M0,-4v8" fill="none" stroke="white" stroke-width="1.5" pointer-events="none"/>
                </g>
                <g id="zoomMin">
                        <use xlink:href="#rim" fill="#404040">
                                <set attributeName="fill" to="#808080" begin="zoomminus.mouseover" end="zoomminus.mouseout"/>
                        </use>
                        <path d="M-4,0h8" fill="none" stroke="white" stroke-width="1.5" pointer-events="none"/>
                </g>
                <g id="dirArrow">
                        <path fill="none" stroke="white" stroke-width="1.5" d="M0,-3.0v7 M-2.5,-0.5L0,-3.0L2.5,-0.5"/>
                </g>
               <g id="resetDef">
                       <use xlink:href="#rim2" fill="#404040">
                               <set attributeName="fill" to="#808080" begin="reset.mouseover" end="reset.mouseout"/>
                       </use>
               </g>
        </defs>

<script type="text/javascript">
var viewWidth = 1018;
var viewHeight = 70;
var sectionId = 'dynsection-32';
</script>
<script xlink:href="../../svgpan.js"/>
<svg id="graph" class="graph">
<g id="viewport">
<title>G</title>
<polygon fill="white" stroke="white" points="-4,5 -4,-66 1015,-66 1015,5 -4,5"/>
<!-- Node1 -->
<g id="node1" class="node"><title>Node1</title>
<polygon fill="#bfbfbf" stroke="black" points="0,-20.5 0,-41.5 162,-41.5 162,-20.5 0,-20.5"/>
<text text-anchor="middle" x="81" y="-28.5" font-family="Helvetica,sans-Serif" font-size="10.00">nsIFrame::GetOffsetToCrossDoc</text>
</g>
<!-- Node2 -->
<g id="node3" class="node"><title>Node2</title>
<a xlink:href="../../df/da5/classns_display_list_builder.html#a88807031b34898c0550662b2044e5aaf" target="_top" xlink:title="nsDisplayListBuilder::FindReferenceFrameFor">
<polygon fill="white" stroke="black" points="198,-20.5 198,-41.5 416,-41.5 416,-20.5 198,-20.5"/>
<text text-anchor="middle" x="307" y="-28.5" font-family="Helvetica,sans-Serif" font-size="10.00">nsDisplayListBuilder::FindReferenceFrameFor</text>
</a>
</g>
<!-- Node1&#45;&gt;Node2 -->
<g id="edge2" class="edge"><title>Node1&#45;&gt;Node2</title>
<path fill="none" stroke="midnightblue" d="M172.365,-31C180.717,-31 189.233,-31 197.721,-31"/>
<polygon fill="midnightblue" stroke="midnightblue" points="172.272,-27.5001 162.272,-31 172.272,-34.5001 172.272,-27.5001"/>
</g>
<!-- Node3 -->
<g id="node5" class="node"><title>Node3</title>
<a xlink:href="../../db/d9b/classns_display_item.html#ac03f419a392ca1a42ac3303dcbd731a1" target="_top" xlink:title="nsDisplayItem::nsDisplayItem">
<polygon fill="white" stroke="black" points="772.5,-40.5 772.5,-61.5 921.5,-61.5 921.5,-40.5 772.5,-40.5"/>
<text text-anchor="middle" x="847" y="-48.5" font-family="Helvetica,sans-Serif" font-size="10.00">nsDisplayItem::nsDisplayItem</text>
</a>
</g>
<!-- Node2&#45;&gt;Node3 -->
<g id="edge4" class="edge"><title>Node2&#45;&gt;Node3</title>
<path fill="none" stroke="midnightblue" d="M426.35,-35.4204C531.929,-39.3307 682.711,-44.9152 772.15,-48.2278"/>
<polygon fill="midnightblue" stroke="midnightblue" points="426.4,-31.9199 416.277,-35.0473 426.141,-38.9151 426.4,-31.9199"/>
</g>
<!-- Node4 -->
<g id="node7" class="node"><title>Node4</title>
<a xlink:href="../../df/da5/classns_display_list_builder.html#a3065db79d086998adfd7d29b6a9a49d6" target="_top" xlink:title="nsDisplayListBuilder::ToReferenceFrame">
<polygon fill="white" stroke="black" points="452,-1.5 452,-22.5 648,-22.5 648,-1.5 452,-1.5"/>
<text text-anchor="middle" x="550" y="-9.5" font-family="Helvetica,sans-Serif" font-size="10.00">nsDisplayListBuilder::ToReferenceFrame</text>
</a>
</g>
<!-- Node2&#45;&gt;Node4 -->
<g id="edge6" class="edge"><title>Node2&#45;&gt;Node4</title>
<path fill="none" stroke="midnightblue" d="M426.096,-21.688C434.659,-21.0185 443.237,-20.3477 451.662,-19.689"/>
<polygon fill="midnightblue" stroke="midnightblue" points="425.758,-18.2036 416.061,-22.4726 426.303,-25.1823 425.758,-18.2036"/>
</g>
<!-- Node4&#45;&gt;Node3 -->
<g id="edge10" class="edge"><title>Node4&#45;&gt;Node3</title>
<path fill="none" stroke="midnightblue" d="M632.249,-23.9105C649.346,-26.3166 667.254,-28.7856 684,-31 712.83,-34.8123 744.563,-38.7617 772.308,-42.1338"/>
<polygon fill="midnightblue" stroke="midnightblue" points="632.682,-20.4371 622.291,-22.5035 631.703,-27.3682 632.682,-20.4371"/>
</g>
<!-- Node5 -->
<g id="node9" class="node"><title>Node5</title>
<a xlink:href="../../d5/d74/classns_display_list_builder_1_1_auto_building_display_list.html#aeeb4e3ed7999a6e347f91fe1f6cb0d87" target="_top" xlink:title="nsDisplayListBuilder::AutoBuildingDisplayList::AutoBuildingDisplayList">
<polygon fill="white" stroke="black" points="684.5,-0.5 684.5,-21.5 1009.5,-21.5 1009.5,-0.5 684.5,-0.5"/>
<text text-anchor="middle" x="847" y="-8.5" font-family="Helvetica,sans-Serif" font-size="10.00">nsDisplayListBuilder::AutoBuildingDisplayList::AutoBuildingDisplayList</text>
</a>
</g>
<!-- Node4&#45;&gt;Node5 -->
<g id="edge8" class="edge"><title>Node4&#45;&gt;Node5</title>
<path fill="none" stroke="midnightblue" d="M658.086,-11.6361C666.699,-11.6071 675.509,-11.5774 684.387,-11.5475"/>
<polygon fill="midnightblue" stroke="midnightblue" points="658.06,-8.13604 648.072,-11.6698 658.084,-15.136 658.06,-8.13604"/>
</g>
</g>
</svg>
        <g id="navigator" transform="translate(0 0)" fill="#404254">
                <rect fill="#f2f5e9" fill-opacity="0.5" stroke="#606060" stroke-width=".5" x="0" y="0" width="60" height="60"/>
                <use id="zoomplus" xlink:href="#zoomPlus" x="17" y="9" onmousedown="handleZoom(evt,'in')"/>
                <use id="zoomminus" xlink:href="#zoomMin" x="42" y="9" onmousedown="handleZoom(evt,'out')"/>
                <use id="reset" xlink:href="#resetDef" x="30" y="36" onmousedown="handleReset()"/>
                <g id="arrowUp" xlink:href="#dirArrow" transform="translate(30 24)" onmousedown="handlePan(0,-1)">
                  <use xlink:href="#rim" fill="#404040">
                        <set attributeName="fill" to="#808080" begin="arrowUp.mouseover" end="arrowUp.mouseout"/>
                  </use>
                  <path fill="none" stroke="white" stroke-width="1.5" d="M0,-3.0v7 M-2.5,-0.5L0,-3.0L2.5,-0.5"/>
                </g>
                <g id="arrowRight" xlink:href="#dirArrow" transform="rotate(90) translate(36 -43)" onmousedown="handlePan(1,0)">
                  <use xlink:href="#rim" fill="#404040">
                        <set attributeName="fill" to="#808080" begin="arrowRight.mouseover" end="arrowRight.mouseout"/>
                  </use>
                  <path fill="none" stroke="white" stroke-width="1.5" d="M0,-3.0v7 M-2.5,-0.5L0,-3.0L2.5,-0.5"/>
                </g>
                <g id="arrowDown" xlink:href="#dirArrow" transform="rotate(180) translate(-30 -48)" onmousedown="handlePan(0,1)">
                  <use xlink:href="#rim" fill="#404040">
                        <set attributeName="fill" to="#808080" begin="arrowDown.mouseover" end="arrowDown.mouseout"/>
                  </use>
                  <path fill="none" stroke="white" stroke-width="1.5" d="M0,-3.0v7 M-2.5,-0.5L0,-3.0L2.5,-0.5"/>
                </g>
                <g id="arrowLeft" xlink:href="#dirArrow" transform="rotate(270) translate(-36 17)" onmousedown="handlePan(-1,0)">
                  <use xlink:href="#rim" fill="#404040">
                        <set attributeName="fill" to="#808080" begin="arrowLeft.mouseover" end="arrowLeft.mouseout"/>
                  </use>
                  <path fill="none" stroke="white" stroke-width="1.5" d="M0,-3.0v7 M-2.5,-0.5L0,-3.0L2.5,-0.5"/>
                </g>
        </g>
</svg>
