<?xml version="1.0" encoding="UTF-8" standalone="no"?>
<!DOCTYPE svg PUBLIC "-//W3C//DTD SVG 1.1//EN"
 "http://www.w3.org/Graphics/SVG/1.1/DTD/svg11.dtd">
<!-- Generated by graphviz version 2.26.3 (20100126.1600)
 -->
<!-- Title: G Pages: 1 -->
<svg width="392pt" height="70pt"
 viewBox="0.00 0.00 392.00 70.00" xmlns="http://www.w3.org/2000/svg" xmlns:xlink="http://www.w3.org/1999/xlink">
<g id="graph1" class="graph" transform="scale(1 1) rotate(0) translate(4 66)">
<title>G</title>
<polygon fill="white" stroke="white" points="-4,5 -4,-66 389,-66 389,5 -4,5"/>
<!-- Node1 -->
<g id="node1" class="node"><title>Node1</title>
<polygon fill="#bfbfbf" stroke="black" points="0,-20.5 0,-41.5 154,-41.5 154,-20.5 0,-20.5"/>
<text text-anchor="middle" x="77" y="-28.5" font-family="Helvetica,sans-Serif" font-size="10.00">nsIFrame::GetFirstContinuation</text>
</g>
<!-- Node2 -->
<g id="node3" class="node"><title>Node2</title>
<a xlink:href="../../d7/de1/classns_layout_utils.html#a9ddea9ec05bfd192769b9226a3b674f8" target="_top" xlink:title="nsLayoutUtils::FrameIsNonFirstInIBSplit">
<polygon fill="white" stroke="black" points="190,-40.5 190,-61.5 384,-61.5 384,-40.5 190,-40.5"/>
<text text-anchor="middle" x="287" y="-48.5" font-family="Helvetica,sans-Serif" font-size="10.00">nsLayoutUtils::FrameIsNonFirstInIBSplit</text>
</a>
</g>
<!-- Node1&#45;&gt;Node2 -->
<g id="edge2" class="edge"><title>Node1&#45;&gt;Node2</title>
<path fill="none" stroke="midnightblue" d="M163.985,-39.2843C172.565,-40.1014 181.31,-40.9343 189.982,-41.7602"/>
<polygon fill="midnightblue" stroke="midnightblue" points="164.291,-35.7976 154.004,-38.3337 163.627,-42.7661 164.291,-35.7976"/>
</g>
<!-- Node3 -->
<g id="node5" class="node"><title>Node3</title>
<a xlink:href="../../d7/de1/classns_layout_utils.html#ae0519ba217ddba80ad0f65061c51770c" target="_top" xlink:title="nsLayoutUtils::FrameIsNonLastInIBSplit">
<polygon fill="white" stroke="black" points="190.5,-0.5 190.5,-21.5 383.5,-21.5 383.5,-0.5 190.5,-0.5"/>
<text text-anchor="middle" x="287" y="-8.5" font-family="Helvetica,sans-Serif" font-size="10.00">nsLayoutUtils::FrameIsNonLastInIBSplit</text>
</a>
</g>
<!-- Node1&#45;&gt;Node3 -->
<g id="edge4" class="edge"><title>Node1&#45;&gt;Node3</title>
<path fill="none" stroke="midnightblue" d="M164.086,-22.7061C172.753,-21.8807 181.587,-21.0393 190.343,-20.2054"/>
<polygon fill="midnightblue" stroke="midnightblue" points="163.627,-19.2339 154.004,-23.6663 164.291,-26.2024 163.627,-19.2339"/>
</g>
</g>
</svg>
