<?xml version="1.0" encoding="UTF-8" standalone="no"?>
<!DOCTYPE svg PUBLIC "-//W3C//DTD SVG 1.1//EN"
 "http://www.w3.org/Graphics/SVG/1.1/DTD/svg11.dtd">
<!-- Generated by graphviz version 2.26.3 (20100126.1600)
 -->
<!-- Title: G Pages: 1 -->
<!--zoomable 190 -->
<svg id="main" version="1.1" xmlns="http://www.w3.org/2000/svg" xmlns:xlink="http://www.w3.org/1999/xlink" xml:space="preserve" onload="init(evt)">
        <defs>
                <circle id="rim" cx="0" cy="0" r="7"/>
                <circle id="rim2" cx="0" cy="0" r="3.5"/>
                <g id="zoomPlus">
                        <use xlink:href="#rim" fill="#404040">
                                <set attributeName="fill" to="#808080" begin="zoomplus.mouseover" end="zoomplus.mouseout"/>
                        </use>
                        <path d="M-4,0h8M0,-4v8" fill="none" stroke="white" stroke-width="1.5" pointer-events="none"/>
                </g>
                <g id="zoomMin">
                        <use xlink:href="#rim" fill="#404040">
                                <set attributeName="fill" to="#808080" begin="zoomminus.mouseover" end="zoomminus.mouseout"/>
                        </use>
                        <path d="M-4,0h8" fill="none" stroke="white" stroke-width="1.5" pointer-events="none"/>
                </g>
                <g id="dirArrow">
                        <path fill="none" stroke="white" stroke-width="1.5" d="M0,-3.0v7 M-2.5,-0.5L0,-3.0L2.5,-0.5"/>
                </g>
               <g id="resetDef">
                       <use xlink:href="#rim2" fill="#404040">
                               <set attributeName="fill" to="#808080" begin="reset.mouseover" end="reset.mouseout"/>
                       </use>
               </g>
        </defs>

<script type="text/javascript">
var viewWidth = 870;
var viewHeight = 190;
var sectionId = 'dynsection-65';
</script>
<script xlink:href="../../svgpan.js"/>
<svg id="graph" class="graph">
<g id="viewport">
<title>G</title>
<polygon fill="white" stroke="white" points="-4,5 -4,-186 867,-186 867,5 -4,5"/>
<!-- Node1 -->
<g id="node1" class="node"><title>Node1</title>
<polygon fill="#bfbfbf" stroke="black" points="0.5,-100.5 0.5,-121.5 223.5,-121.5 223.5,-100.5 0.5,-100.5"/>
<text text-anchor="middle" x="112" y="-108.5" font-family="Helvetica,sans-Serif" font-size="10.00">nsIFrame::IsPseudoStackingContextFromStyle</text>
</g>
<!-- Node2 -->
<g id="node3" class="node"><title>Node2</title>
<a xlink:href="../../da/dd0/structns_style_display.html#a147618947c0c2e3f379e9f94e506cbb7" target="_top" xlink:title="nsStyleDisplay::IsFloating">
<polygon fill="white" stroke="black" points="266.5,-120.5 266.5,-141.5 397.5,-141.5 397.5,-120.5 266.5,-120.5"/>
<text text-anchor="middle" x="332" y="-128.5" font-family="Helvetica,sans-Serif" font-size="10.00">nsStyleDisplay::IsFloating</text>
</a>
</g>
<!-- Node1&#45;&gt;Node2 -->
<g id="edge2" class="edge"><title>Node1&#45;&gt;Node2</title>
<path fill="none" stroke="midnightblue" d="M223.611,-121.146C234.734,-122.158 245.836,-123.167 256.46,-124.133"/>
<polygon fill="midnightblue" stroke="midnightblue" points="256.209,-127.624 266.485,-125.044 256.843,-120.653 256.209,-127.624"/>
</g>
<!-- Node5 -->
<g id="node9" class="node"><title>Node5</title>
<a xlink:href="../../da/dd0/structns_style_display.html#a75528b829852a8f9dfeefdcb6898d1fe" target="_top" xlink:title="nsStyleDisplay::IsPositioned">
<polygon fill="white" stroke="black" points="260.5,-80.5 260.5,-101.5 403.5,-101.5 403.5,-80.5 260.5,-80.5"/>
<text text-anchor="middle" x="332" y="-88.5" font-family="Helvetica,sans-Serif" font-size="10.00">nsStyleDisplay::IsPositioned</text>
</a>
</g>
<!-- Node1&#45;&gt;Node5 -->
<g id="edge8" class="edge"><title>Node1&#45;&gt;Node5</title>
<path fill="none" stroke="midnightblue" d="M223.611,-100.854C232.556,-100.04 241.486,-99.2286 250.165,-98.4395"/>
<polygon fill="midnightblue" stroke="midnightblue" points="250.583,-101.916 260.225,-97.525 249.949,-94.9448 250.583,-101.916"/>
</g>
<!-- Node3 -->
<g id="node5" class="node"><title>Node3</title>
<a xlink:href="../../d7/d20/classns_i_frame.html#ac1645aa6f960ccedd936e867ad005d43" target="_top" xlink:title="nsIFrame::IsSVGText">
<polygon fill="white" stroke="black" points="489.5,-120.5 489.5,-141.5 602.5,-141.5 602.5,-120.5 489.5,-120.5"/>
<text text-anchor="middle" x="546" y="-128.5" font-family="Helvetica,sans-Serif" font-size="10.00">nsIFrame::IsSVGText</text>
</a>
</g>
<!-- Node2&#45;&gt;Node3 -->
<g id="edge4" class="edge"><title>Node2&#45;&gt;Node3</title>
<path fill="none" stroke="midnightblue" d="M397.661,-131C423.585,-131 453.333,-131 479.352,-131"/>
<polygon fill="midnightblue" stroke="midnightblue" points="479.499,-134.5 489.499,-131 479.499,-127.5 479.499,-134.5"/>
</g>
<!-- Node4 -->
<g id="node7" class="node"><title>Node4</title>
<a xlink:href="../../da/dd0/structns_style_display.html#a2c67bb04d91ab2293872a973de02cb17" target="_top" xlink:title="nsStyleDisplay::IsFloatingStyle">
<polygon fill="white" stroke="black" points="469,-160.5 469,-181.5 623,-181.5 623,-160.5 469,-160.5"/>
<text text-anchor="middle" x="546" y="-168.5" font-family="Helvetica,sans-Serif" font-size="10.00">nsStyleDisplay::IsFloatingStyle</text>
</a>
</g>
<!-- Node2&#45;&gt;Node4 -->
<g id="edge6" class="edge"><title>Node2&#45;&gt;Node4</title>
<path fill="none" stroke="midnightblue" d="M388.226,-141.51C416.252,-146.748 450.329,-153.118 479.631,-158.595"/>
<polygon fill="midnightblue" stroke="midnightblue" points="479.306,-162.094 489.778,-160.491 480.592,-155.213 479.306,-162.094"/>
</g>
<!-- Node5&#45;&gt;Node3 -->
<g id="edge18" class="edge"><title>Node5&#45;&gt;Node3</title>
<path fill="none" stroke="midnightblue" d="M388.226,-101.51C416.252,-106.748 450.329,-113.118 479.631,-118.595"/>
<polygon fill="midnightblue" stroke="midnightblue" points="479.306,-122.094 489.778,-120.491 480.592,-115.213 479.306,-122.094"/>
</g>
<!-- Node6 -->
<g id="node11" class="node"><title>Node6</title>
<a xlink:href="../../da/dd0/structns_style_display.html#a47ac1a984bc1703171b8e332850e119f" target="_top" xlink:title="nsStyleDisplay::HasTransform">
<polygon fill="white" stroke="black" points="470.5,-80.5 470.5,-101.5 621.5,-101.5 621.5,-80.5 470.5,-80.5"/>
<text text-anchor="middle" x="546" y="-88.5" font-family="Helvetica,sans-Serif" font-size="10.00">nsStyleDisplay::HasTransform</text>
</a>
</g>
<!-- Node5&#45;&gt;Node6 -->
<g id="edge10" class="edge"><title>Node5&#45;&gt;Node6</title>
<path fill="none" stroke="midnightblue" d="M403.556,-91C421.787,-91 441.564,-91 460.417,-91"/>
<polygon fill="midnightblue" stroke="midnightblue" points="460.478,-94.5001 470.478,-91 460.478,-87.5001 460.478,-94.5001"/>
</g>
<!-- Node9 -->
<g id="node17" class="node"><title>Node9</title>
<a xlink:href="../../da/dd0/structns_style_display.html#aa6926c5e511bceac1a7abc4e8320de6c" target="_top" xlink:title="nsStyleDisplay::IsRelativelyPositionedStyle">
<polygon fill="white" stroke="black" points="441.5,-40.5 441.5,-61.5 650.5,-61.5 650.5,-40.5 441.5,-40.5"/>
<text text-anchor="middle" x="546" y="-48.5" font-family="Helvetica,sans-Serif" font-size="10.00">nsStyleDisplay::IsRelativelyPositionedStyle</text>
</a>
</g>
<!-- Node5&#45;&gt;Node9 -->
<g id="edge16" class="edge"><title>Node5&#45;&gt;Node9</title>
<path fill="none" stroke="midnightblue" d="M388.226,-80.4905C416.252,-75.2519 450.329,-68.8825 479.631,-63.4055"/>
<polygon fill="midnightblue" stroke="midnightblue" points="480.592,-66.7865 489.778,-61.5087 479.306,-59.9057 480.592,-66.7865"/>
</g>
<!-- Node10 -->
<g id="node20" class="node"><title>Node10</title>
<a xlink:href="../../da/dd0/structns_style_display.html#aa490899c7c5305052e2432d7f36505f7" target="_top" xlink:title="nsStyleDisplay::IsAbsolutelyPositionedStyle">
<polygon fill="white" stroke="black" points="440.5,-0.5 440.5,-21.5 651.5,-21.5 651.5,-0.5 440.5,-0.5"/>
<text text-anchor="middle" x="546" y="-8.5" font-family="Helvetica,sans-Serif" font-size="10.00">nsStyleDisplay::IsAbsolutelyPositionedStyle</text>
</a>
</g>
<!-- Node5&#45;&gt;Node10 -->
<g id="edge20" class="edge"><title>Node5&#45;&gt;Node10</title>
<path fill="none" stroke="midnightblue" d="M347.34,-80.3801C367.621,-66.8448 404.9,-43.685 440,-31 447.513,-28.2849 455.465,-25.9193 463.502,-23.8621"/>
<polygon fill="midnightblue" stroke="midnightblue" points="464.416,-27.242 473.322,-21.503 462.781,-20.4356 464.416,-27.242"/>
</g>
<!-- Node7 -->
<g id="node13" class="node"><title>Node7</title>
<a xlink:href="../../da/dd0/structns_style_display.html#aa8987ad8b908460c7f50f70106a9129a" target="_top" xlink:title="nsStyleDisplay::HasTransformStyle">
<polygon fill="white" stroke="black" points="688.5,-100.5 688.5,-121.5 861.5,-121.5 861.5,-100.5 688.5,-100.5"/>
<text text-anchor="middle" x="775" y="-108.5" font-family="Helvetica,sans-Serif" font-size="10.00">nsStyleDisplay::HasTransformStyle</text>
</a>
</g>
<!-- Node6&#45;&gt;Node7 -->
<g id="edge12" class="edge"><title>Node6&#45;&gt;Node7</title>
<path fill="none" stroke="midnightblue" d="M621.618,-97.6042C639.729,-99.1859 659.312,-100.896 678.233,-102.549"/>
<polygon fill="midnightblue" stroke="midnightblue" points="678.092,-106.05 688.359,-103.433 678.701,-99.0762 678.092,-106.05"/>
</g>
<!-- Node8 -->
<g id="node15" class="node"><title>Node8</title>
<a xlink:href="../../d7/d20/classns_i_frame.html#a1b1d065af632e48973e6fd078babf8a0" target="_top" xlink:title="nsIFrame::IsFrameOfType">
<polygon fill="white" stroke="black" points="709,-60.5 709,-81.5 841,-81.5 841,-60.5 709,-60.5"/>
<text text-anchor="middle" x="775" y="-68.5" font-family="Helvetica,sans-Serif" font-size="10.00">nsIFrame::IsFrameOfType</text>
</a>
</g>
<!-- Node6&#45;&gt;Node8 -->
<g id="edge14" class="edge"><title>Node6&#45;&gt;Node8</title>
<path fill="none" stroke="midnightblue" d="M621.618,-84.3958C646.35,-82.2358 673.829,-79.8359 698.618,-77.6709"/>
<polygon fill="midnightblue" stroke="midnightblue" points="699.039,-81.1476 708.696,-76.7907 698.43,-74.1741 699.039,-81.1476"/>
</g>
</g>
</svg>
        <g id="navigator" transform="translate(0 0)" fill="#404254">
                <rect fill="#f2f5e9" fill-opacity="0.5" stroke="#606060" stroke-width=".5" x="0" y="0" width="60" height="60"/>
                <use id="zoomplus" xlink:href="#zoomPlus" x="17" y="9" onmousedown="handleZoom(evt,'in')"/>
                <use id="zoomminus" xlink:href="#zoomMin" x="42" y="9" onmousedown="handleZoom(evt,'out')"/>
                <use id="reset" xlink:href="#resetDef" x="30" y="36" onmousedown="handleReset()"/>
                <g id="arrowUp" xlink:href="#dirArrow" transform="translate(30 24)" onmousedown="handlePan(0,-1)">
                  <use xlink:href="#rim" fill="#404040">
                        <set attributeName="fill" to="#808080" begin="arrowUp.mouseover" end="arrowUp.mouseout"/>
                  </use>
                  <path fill="none" stroke="white" stroke-width="1.5" d="M0,-3.0v7 M-2.5,-0.5L0,-3.0L2.5,-0.5"/>
                </g>
                <g id="arrowRight" xlink:href="#dirArrow" transform="rotate(90) translate(36 -43)" onmousedown="handlePan(1,0)">
                  <use xlink:href="#rim" fill="#404040">
                        <set attributeName="fill" to="#808080" begin="arrowRight.mouseover" end="arrowRight.mouseout"/>
                  </use>
                  <path fill="none" stroke="white" stroke-width="1.5" d="M0,-3.0v7 M-2.5,-0.5L0,-3.0L2.5,-0.5"/>
                </g>
                <g id="arrowDown" xlink:href="#dirArrow" transform="rotate(180) translate(-30 -48)" onmousedown="handlePan(0,1)">
                  <use xlink:href="#rim" fill="#404040">
                        <set attributeName="fill" to="#808080" begin="arrowDown.mouseover" end="arrowDown.mouseout"/>
                  </use>
                  <path fill="none" stroke="white" stroke-width="1.5" d="M0,-3.0v7 M-2.5,-0.5L0,-3.0L2.5,-0.5"/>
                </g>
                <g id="arrowLeft" xlink:href="#dirArrow" transform="rotate(270) translate(-36 17)" onmousedown="handlePan(-1,0)">
                  <use xlink:href="#rim" fill="#404040">
                        <set attributeName="fill" to="#808080" begin="arrowLeft.mouseover" end="arrowLeft.mouseout"/>
                  </use>
                  <path fill="none" stroke="white" stroke-width="1.5" d="M0,-3.0v7 M-2.5,-0.5L0,-3.0L2.5,-0.5"/>
                </g>
        </g>
</svg>
