<?xml version="1.0" encoding="UTF-8" standalone="no"?>
<!DOCTYPE svg PUBLIC "-//W3C//DTD SVG 1.1//EN"
 "http://www.w3.org/Graphics/SVG/1.1/DTD/svg11.dtd">
<!-- Generated by graphviz version 2.26.3 (20100126.1600)
 -->
<!-- Title: G Pages: 1 -->
<svg width="298pt" height="110pt"
 viewBox="0.00 0.00 298.00 110.00" xmlns="http://www.w3.org/2000/svg" xmlns:xlink="http://www.w3.org/1999/xlink">
<g id="graph1" class="graph" transform="scale(1 1) rotate(0) translate(4 106)">
<title>G</title>
<polygon fill="white" stroke="white" points="-4,5 -4,-106 295,-106 295,5 -4,5"/>
<!-- Node1 -->
<g id="node1" class="node"><title>Node1</title>
<polygon fill="#bfbfbf" stroke="black" points="0.5,-40.5 0.5,-61.5 119.5,-61.5 119.5,-40.5 0.5,-40.5"/>
<text text-anchor="middle" x="60" y="-48.5" font-family="Helvetica,sans-Serif" font-size="10.00">nsIFrame::PresContext</text>
</g>
<!-- Node2 -->
<g id="node3" class="node"><title>Node2</title>
<a xlink:href="../../dc/d1e/classns_rule_node.html#a3d56032423202fefe678db45e12ad6c9" target="_top" xlink:title="nsRuleNode::PresContext">
<polygon fill="white" stroke="black" points="157.5,-80.5 157.5,-101.5 288.5,-101.5 288.5,-80.5 157.5,-80.5"/>
<text text-anchor="middle" x="223" y="-88.5" font-family="Helvetica,sans-Serif" font-size="10.00">nsRuleNode::PresContext</text>
</a>
</g>
<!-- Node1&#45;&gt;Node2 -->
<g id="edge2" class="edge"><title>Node1&#45;&gt;Node2</title>
<path fill="none" stroke="midnightblue" d="M102.826,-61.5095C123.521,-66.588 148.546,-72.7292 170.391,-78.0898"/>
<polygon fill="midnightblue" stroke="midnightblue" points="169.631,-81.5071 180.177,-80.4913 171.299,-74.7088 169.631,-81.5071"/>
</g>
<!-- Node3 -->
<g id="node5" class="node"><title>Node3</title>
<a xlink:href="../../db/d89/classns_style_context.html#a9bd119755290d73925017f1237ec4296" target="_top" xlink:title="nsStyleContext::RuleNode">
<polygon fill="white" stroke="black" points="156,-40.5 156,-61.5 290,-61.5 290,-40.5 156,-40.5"/>
<text text-anchor="middle" x="223" y="-48.5" font-family="Helvetica,sans-Serif" font-size="10.00">nsStyleContext::RuleNode</text>
</a>
</g>
<!-- Node1&#45;&gt;Node3 -->
<g id="edge4" class="edge"><title>Node1&#45;&gt;Node3</title>
<path fill="none" stroke="midnightblue" d="M119.77,-51C128.194,-51 136.953,-51 145.648,-51"/>
<polygon fill="midnightblue" stroke="midnightblue" points="145.803,-54.5001 155.803,-51 145.803,-47.5001 145.803,-54.5001"/>
</g>
<!-- Node4 -->
<g id="node7" class="node"><title>Node4</title>
<a xlink:href="../../d7/d20/classns_i_frame.html#ae4f1ab39c02bf210eba9cfe9afb5e923" target="_top" xlink:title="nsIFrame::StyleContext">
<polygon fill="white" stroke="black" points="162.5,-0.5 162.5,-21.5 283.5,-21.5 283.5,-0.5 162.5,-0.5"/>
<text text-anchor="middle" x="223" y="-8.5" font-family="Helvetica,sans-Serif" font-size="10.00">nsIFrame::StyleContext</text>
</a>
</g>
<!-- Node1&#45;&gt;Node4 -->
<g id="edge6" class="edge"><title>Node1&#45;&gt;Node4</title>
<path fill="none" stroke="midnightblue" d="M102.826,-40.4905C123.521,-35.412 148.546,-29.2708 170.391,-23.9102"/>
<polygon fill="midnightblue" stroke="midnightblue" points="171.299,-27.2912 180.177,-21.5087 169.631,-20.4929 171.299,-27.2912"/>
</g>
</g>
</svg>
