<?xml version="1.0" encoding="UTF-8" standalone="no"?>
<!DOCTYPE svg PUBLIC "-//W3C//DTD SVG 1.1//EN"
 "http://www.w3.org/Graphics/SVG/1.1/DTD/svg11.dtd">
<!-- Generated by graphviz version 2.26.3 (20100126.1600)
 -->
<!-- Title: G Pages: 1 -->
<svg width="482pt" height="30pt"
 viewBox="0.00 0.00 482.00 30.00" xmlns="http://www.w3.org/2000/svg" xmlns:xlink="http://www.w3.org/1999/xlink">
<g id="graph1" class="graph" transform="scale(1 1) rotate(0) translate(4 26)">
<title>G</title>
<polygon fill="white" stroke="white" points="-4,5 -4,-26 479,-26 479,5 -4,5"/>
<!-- Node1 -->
<g id="node1" class="node"><title>Node1</title>
<polygon fill="#bfbfbf" stroke="black" points="0,-0.5 0,-21.5 122,-21.5 122,-0.5 0,-0.5"/>
<text text-anchor="middle" x="61" y="-8.5" font-family="Helvetica,sans-Serif" font-size="10.00">nsIFrame::GetFirstChild</text>
</g>
<!-- Node2 -->
<g id="node3" class="node"><title>Node2</title>
<a xlink:href="../../d7/d20/classns_i_frame.html#a84ed1cdcb9d0c6cb2c0ceec04d332a61" target="_top" xlink:title="nsIFrame::GetFirstPrincipalChild">
<polygon fill="white" stroke="black" points="158.5,-0.5 158.5,-21.5 317.5,-21.5 317.5,-0.5 158.5,-0.5"/>
<text text-anchor="middle" x="238" y="-8.5" font-family="Helvetica,sans-Serif" font-size="10.00">nsIFrame::GetFirstPrincipalChild</text>
</a>
</g>
<!-- Node1&#45;&gt;Node2 -->
<g id="edge2" class="edge"><title>Node1&#45;&gt;Node2</title>
<path fill="none" stroke="midnightblue" d="M132.603,-11C141.065,-11 149.741,-11 158.307,-11"/>
<polygon fill="midnightblue" stroke="midnightblue" points="132.409,-7.5001 122.409,-11 132.409,-14.5001 132.409,-7.5001"/>
</g>
<!-- Node3 -->
<g id="node5" class="node"><title>Node3</title>
<a xlink:href="../../d7/d20/classns_i_frame.html#ae0332306e7b75621625c5e9309decb54" target="_top" xlink:title="nsIFrame::GetChildBox">
<polygon fill="white" stroke="black" points="354.5,-0.5 354.5,-21.5 473.5,-21.5 473.5,-0.5 354.5,-0.5"/>
<text text-anchor="middle" x="414" y="-8.5" font-family="Helvetica,sans-Serif" font-size="10.00">nsIFrame::GetChildBox</text>
</a>
</g>
<!-- Node2&#45;&gt;Node3 -->
<g id="edge4" class="edge"><title>Node2&#45;&gt;Node3</title>
<path fill="none" stroke="midnightblue" d="M327.697,-11C336.735,-11 345.749,-11 354.357,-11"/>
<polygon fill="midnightblue" stroke="midnightblue" points="327.504,-7.5001 317.504,-11 327.504,-14.5001 327.504,-7.5001"/>
</g>
</g>
</svg>
