<?xml version="1.0" encoding="UTF-8" standalone="no"?>
<!DOCTYPE svg PUBLIC "-//W3C//DTD SVG 1.1//EN"
 "http://www.w3.org/Graphics/SVG/1.1/DTD/svg11.dtd">
<!-- Generated by graphviz version 2.26.3 (20100126.1600)
 -->
<!-- Title: G Pages: 1 -->
<svg width="400pt" height="70pt"
 viewBox="0.00 0.00 400.00 70.00" xmlns="http://www.w3.org/2000/svg" xmlns:xlink="http://www.w3.org/1999/xlink">
<g id="graph1" class="graph" transform="scale(1 1) rotate(0) translate(4 66)">
<title>G</title>
<polygon fill="white" stroke="white" points="-4,5 -4,-66 397,-66 397,5 -4,5"/>
<!-- Node1 -->
<g id="node1" class="node"><title>Node1</title>
<polygon fill="#bfbfbf" stroke="black" points="0,-20.5 0,-41.5 206,-41.5 206,-20.5 0,-20.5"/>
<text text-anchor="middle" x="103" y="-28.5" font-family="Helvetica,sans-Serif" font-size="10.00">mozilla::net::ChannelEventQueue::Resume</text>
</g>
<!-- Node2 -->
<g id="node3" class="node"><title>Node2</title>
<a xlink:href="../../d6/d6b/ns_thread_utils_8h.html#ac209c4e6e9b9c3cb894231f001f0c9a2" target="_top" xlink:title="NS_DispatchToCurrentThread">
<polygon fill="white" stroke="black" points="242.5,-40.5 242.5,-61.5 391.5,-61.5 391.5,-40.5 242.5,-40.5"/>
<text text-anchor="middle" x="317" y="-48.5" font-family="Helvetica,sans-Serif" font-size="10.00">NS_DispatchToCurrentThread</text>
</a>
</g>
<!-- Node1&#45;&gt;Node2 -->
<g id="edge2" class="edge"><title>Node1&#45;&gt;Node2</title>
<path fill="none" stroke="midnightblue" d="M206.239,-40.6485C214.997,-41.467 223.788,-42.2886 232.378,-43.0914"/>
<polygon fill="midnightblue" stroke="midnightblue" points="232.073,-46.578 242.355,-44.0238 232.724,-39.6084 232.073,-46.578"/>
</g>
<!-- Node3 -->
<g id="node5" class="node"><title>Node3</title>
<a xlink:href="../../d6/d6b/ns_thread_utils_8h.html#af587a38959089a2b20092d49728ff4ac" target="_top" xlink:title="NS_NewRunnableMethod">
<polygon fill="white" stroke="black" points="252,-0.5 252,-21.5 382,-21.5 382,-0.5 252,-0.5"/>
<text text-anchor="middle" x="317" y="-8.5" font-family="Helvetica,sans-Serif" font-size="10.00">NS_NewRunnableMethod</text>
</a>
</g>
<!-- Node1&#45;&gt;Node3 -->
<g id="edge4" class="edge"><title>Node1&#45;&gt;Node3</title>
<path fill="none" stroke="midnightblue" d="M206.239,-21.3515C218.226,-20.2312 230.275,-19.1051 241.785,-18.0294"/>
<polygon fill="midnightblue" stroke="midnightblue" points="242.115,-21.5139 251.746,-17.0985 241.464,-14.5443 242.115,-21.5139"/>
</g>
</g>
</svg>
