<?xml version="1.0" encoding="UTF-8" standalone="no"?>
<!DOCTYPE svg PUBLIC "-//W3C//DTD SVG 1.1//EN"
 "http://www.w3.org/Graphics/SVG/1.1/DTD/svg11.dtd">
<!-- Generated by graphviz version 2.26.3 (20100126.1600)
 -->
<!-- Title: G Pages: 1 -->
<!--zoomable 150 -->
<svg id="main" version="1.1" xmlns="http://www.w3.org/2000/svg" xmlns:xlink="http://www.w3.org/1999/xlink" xml:space="preserve" onload="init(evt)">
        <defs>
                <circle id="rim" cx="0" cy="0" r="7"/>
                <circle id="rim2" cx="0" cy="0" r="3.5"/>
                <g id="zoomPlus">
                        <use xlink:href="#rim" fill="#404040">
                                <set attributeName="fill" to="#808080" begin="zoomplus.mouseover" end="zoomplus.mouseout"/>
                        </use>
                        <path d="M-4,0h8M0,-4v8" fill="none" stroke="white" stroke-width="1.5" pointer-events="none"/>
                </g>
                <g id="zoomMin">
                        <use xlink:href="#rim" fill="#404040">
                                <set attributeName="fill" to="#808080" begin="zoomminus.mouseover" end="zoomminus.mouseout"/>
                        </use>
                        <path d="M-4,0h8" fill="none" stroke="white" stroke-width="1.5" pointer-events="none"/>
                </g>
                <g id="dirArrow">
                        <path fill="none" stroke="white" stroke-width="1.5" d="M0,-3.0v7 M-2.5,-0.5L0,-3.0L2.5,-0.5"/>
                </g>
               <g id="resetDef">
                       <use xlink:href="#rim2" fill="#404040">
                               <set attributeName="fill" to="#808080" begin="reset.mouseover" end="reset.mouseout"/>
                       </use>
               </g>
        </defs>

<script type="text/javascript">
var viewWidth = 532;
var viewHeight = 150;
var sectionId = 'dynsection-2';
</script>
<script xlink:href="../../svgpan.js"/>
<svg id="graph" class="graph">
<g id="viewport">
<title>G</title>
<polygon fill="white" stroke="white" points="-4,5 -4,-146 529,-146 529,5 -4,5"/>
<!-- Node1 -->
<g id="node1" class="node"><title>Node1</title>
<polygon fill="#bfbfbf" stroke="black" points="0,-60.5 0,-81.5 260,-81.5 260,-60.5 0,-60.5"/>
<text text-anchor="middle" x="130" y="-68.5" font-family="Helvetica,sans-Serif" font-size="10.00">mozilla::OffTheBooksMutex::AssertCurrentThreadOwns</text>
</g>
<!-- Node2 -->
<g id="node3" class="node"><title>Node2</title>
<a xlink:href="../../dd/d9b/classmozilla_1_1_static_mutex.html#a597f7519ef6eaa887c978836be0b578d" target="_top" xlink:title="mozilla::StaticMutex::AssertCurrentThreadOwns">
<polygon fill="white" stroke="black" points="296,-120.5 296,-141.5 524,-141.5 524,-120.5 296,-120.5"/>
<text text-anchor="middle" x="410" y="-128.5" font-family="Helvetica,sans-Serif" font-size="10.00">mozilla::StaticMutex::AssertCurrentThreadOwns</text>
</a>
</g>
<!-- Node1&#45;&gt;Node2 -->
<g id="edge2" class="edge"><title>Node1&#45;&gt;Node2</title>
<path fill="none" stroke="midnightblue" d="M180.579,-84.0605C213.369,-92.3111 257.073,-102.904 296,-111 312.132,-114.355 329.626,-117.613 345.954,-120.492"/>
<polygon fill="midnightblue" stroke="midnightblue" points="181.323,-80.6386 170.77,-81.5805 179.607,-87.4251 181.323,-80.6386"/>
</g>
<!-- Node3 -->
<g id="node5" class="node"><title>Node3</title>
<a xlink:href="../../de/d99/classns_cache_service.html#abc1e224df865d155e8910a3faafd9736" target="_top" xlink:title="nsCacheService::AssertOwnsLock">
<polygon fill="white" stroke="black" points="325,-80.5 325,-101.5 495,-101.5 495,-80.5 325,-80.5"/>
<text text-anchor="middle" x="410" y="-88.5" font-family="Helvetica,sans-Serif" font-size="10.00">nsCacheService::AssertOwnsLock</text>
</a>
</g>
<!-- Node1&#45;&gt;Node3 -->
<g id="edge4" class="edge"><title>Node1&#45;&gt;Node3</title>
<path fill="none" stroke="midnightblue" d="M270.23,-81.0164C288.914,-82.351 307.592,-83.6851 324.934,-84.9238"/>
<polygon fill="midnightblue" stroke="midnightblue" points="270.387,-77.5188 260.163,-80.2974 269.889,-84.5011 270.387,-77.5188"/>
</g>
<!-- Node4 -->
<g id="node7" class="node"><title>Node4</title>
<a xlink:href="../../d3/d21/classmozilla_1_1_audio_node_engine.html#af13b2456b8108eb1640d1986e6b42774" target="_top" xlink:title="mozilla::AudioNodeEngine::ClearNode">
<polygon fill="white" stroke="black" points="318,-40.5 318,-61.5 502,-61.5 502,-40.5 318,-40.5"/>
<text text-anchor="middle" x="410" y="-48.5" font-family="Helvetica,sans-Serif" font-size="10.00">mozilla::AudioNodeEngine::ClearNode</text>
</a>
</g>
<!-- Node1&#45;&gt;Node4 -->
<g id="edge6" class="edge"><title>Node1&#45;&gt;Node4</title>
<path fill="none" stroke="midnightblue" d="M270.193,-60.9862C286.313,-59.8348 302.429,-58.6836 317.687,-57.5938"/>
<polygon fill="midnightblue" stroke="midnightblue" points="269.889,-57.4989 260.163,-61.7026 270.387,-64.4812 269.889,-57.4989"/>
</g>
<!-- Node5 -->
<g id="node9" class="node"><title>Node5</title>
<a xlink:href="../../d3/d21/classmozilla_1_1_audio_node_engine.html#a549f0fe863bd30944a7cf5a8e72f40d3" target="_top" xlink:title="mozilla::AudioNodeEngine::Node">
<polygon fill="white" stroke="black" points="329.5,-0.5 329.5,-21.5 490.5,-21.5 490.5,-0.5 329.5,-0.5"/>
<text text-anchor="middle" x="410" y="-8.5" font-family="Helvetica,sans-Serif" font-size="10.00">mozilla::AudioNodeEngine::Node</text>
</a>
</g>
<!-- Node1&#45;&gt;Node5 -->
<g id="edge8" class="edge"><title>Node1&#45;&gt;Node5</title>
<path fill="none" stroke="midnightblue" d="M180.579,-57.9395C213.369,-49.6889 257.073,-39.0964 296,-31 312.132,-27.6448 329.626,-24.387 345.954,-21.5085"/>
<polygon fill="midnightblue" stroke="midnightblue" points="179.607,-54.5749 170.77,-60.4195 181.323,-61.3614 179.607,-54.5749"/>
</g>
</g>
</svg>
        <g id="navigator" transform="translate(0 0)" fill="#404254">
                <rect fill="#f2f5e9" fill-opacity="0.5" stroke="#606060" stroke-width=".5" x="0" y="0" width="60" height="60"/>
                <use id="zoomplus" xlink:href="#zoomPlus" x="17" y="9" onmousedown="handleZoom(evt,'in')"/>
                <use id="zoomminus" xlink:href="#zoomMin" x="42" y="9" onmousedown="handleZoom(evt,'out')"/>
                <use id="reset" xlink:href="#resetDef" x="30" y="36" onmousedown="handleReset()"/>
                <g id="arrowUp" xlink:href="#dirArrow" transform="translate(30 24)" onmousedown="handlePan(0,-1)">
                  <use xlink:href="#rim" fill="#404040">
                        <set attributeName="fill" to="#808080" begin="arrowUp.mouseover" end="arrowUp.mouseout"/>
                  </use>
                  <path fill="none" stroke="white" stroke-width="1.5" d="M0,-3.0v7 M-2.5,-0.5L0,-3.0L2.5,-0.5"/>
                </g>
                <g id="arrowRight" xlink:href="#dirArrow" transform="rotate(90) translate(36 -43)" onmousedown="handlePan(1,0)">
                  <use xlink:href="#rim" fill="#404040">
                        <set attributeName="fill" to="#808080" begin="arrowRight.mouseover" end="arrowRight.mouseout"/>
                  </use>
                  <path fill="none" stroke="white" stroke-width="1.5" d="M0,-3.0v7 M-2.5,-0.5L0,-3.0L2.5,-0.5"/>
                </g>
                <g id="arrowDown" xlink:href="#dirArrow" transform="rotate(180) translate(-30 -48)" onmousedown="handlePan(0,1)">
                  <use xlink:href="#rim" fill="#404040">
                        <set attributeName="fill" to="#808080" begin="arrowDown.mouseover" end="arrowDown.mouseout"/>
                  </use>
                  <path fill="none" stroke="white" stroke-width="1.5" d="M0,-3.0v7 M-2.5,-0.5L0,-3.0L2.5,-0.5"/>
                </g>
                <g id="arrowLeft" xlink:href="#dirArrow" transform="rotate(270) translate(-36 17)" onmousedown="handlePan(-1,0)">
                  <use xlink:href="#rim" fill="#404040">
                        <set attributeName="fill" to="#808080" begin="arrowLeft.mouseover" end="arrowLeft.mouseout"/>
                  </use>
                  <path fill="none" stroke="white" stroke-width="1.5" d="M0,-3.0v7 M-2.5,-0.5L0,-3.0L2.5,-0.5"/>
                </g>
        </g>
</svg>
