<?xml version="1.0" encoding="UTF-8" standalone="no"?>
<!DOCTYPE svg PUBLIC "-//W3C//DTD SVG 1.1//EN"
 "http://www.w3.org/Graphics/SVG/1.1/DTD/svg11.dtd">
<!-- Generated by graphviz version 2.26.3 (20100126.1600)
 -->
<!-- Title: G Pages: 1 -->
<svg width="221pt" height="262pt"
 viewBox="0.00 0.00 221.00 262.00" xmlns="http://www.w3.org/2000/svg" xmlns:xlink="http://www.w3.org/1999/xlink">
<g id="graph1" class="graph" transform="scale(1 1) rotate(0) translate(4 258)">
<title>G</title>
<polygon fill="white" stroke="white" points="-4,5 -4,-258 218,-258 218,5 -4,5"/>
<!-- Node1 -->
<g id="node1" class="node"><title>Node1</title>
<polygon fill="#bfbfbf" stroke="black" points="109,-58.5 109,-79.5 211,-79.5 211,-58.5 109,-58.5"/>
<text text-anchor="middle" x="160" y="-66.5" font-family="Helvetica,sans-Serif" font-size="10.00">nsISAXXMLReader</text>
</g>
<!-- Node5 -->
<g id="node12" class="node"><title>Node5</title>
<a xlink:href="../../d4/dfc/class_m_o_z___f_i_n_a_l.html" target="_top" xlink:title="MOZ_FINAL\&lt; T \&gt;">
<polygon fill="white" stroke="black" points="0,-0.5 0,-21.5 96,-21.5 96,-0.5 0,-0.5"/>
<text text-anchor="middle" x="48" y="-8.5" font-family="Helvetica,sans-Serif" font-size="10.00">MOZ_FINAL&lt; T &gt;</text>
</a>
</g>
<!-- Node1&#45;&gt;Node5 -->
<g id="edge14" class="edge"><title>Node1&#45;&gt;Node5</title>
<path fill="none" stroke="midnightblue" d="M130.637,-53.794C111.096,-43.6746 85.9135,-30.6338 68.5099,-21.6212"/>
<polygon fill="midnightblue" stroke="midnightblue" points="129.228,-57.006 139.718,-58.4966 132.447,-50.7901 129.228,-57.006"/>
</g>
<!-- Node6 -->
<g id="node14" class="node"><title>Node6</title>
<a xlink:href="../../dd/d9c/interfacens_i_s_a_x_x_m_l_filter.html" target="_top" xlink:title="nsISAXXMLFilter">
<polygon fill="white" stroke="black" points="114,-0.5 114,-21.5 206,-21.5 206,-0.5 114,-0.5"/>
<text text-anchor="middle" x="160" y="-8.5" font-family="Helvetica,sans-Serif" font-size="10.00">nsISAXXMLFilter</text>
</a>
</g>
<!-- Node1&#45;&gt;Node6 -->
<g id="edge16" class="edge"><title>Node1&#45;&gt;Node6</title>
<path fill="none" stroke="midnightblue" d="M153.495,-48.1906C152.941,-39.1684 153.326,-28.9941 154.648,-21.5707"/>
<polygon fill="midnightblue" stroke="midnightblue" points="150.043,-48.8143 154.636,-58.3619 157,-48.0341 150.043,-48.8143"/>
</g>
<!-- Node1&#45;&gt;Node6 -->
<g id="edge18" class="edge"><title>Node1&#45;&gt;Node6</title>
<path fill="none" stroke="midnightblue" d="M166.505,-48.1906C167.059,-39.1684 166.674,-28.9941 165.352,-21.5707"/>
<polygon fill="midnightblue" stroke="midnightblue" points="163,-48.0341 165.364,-58.3619 169.957,-48.8143 163,-48.0341"/>
</g>
<!-- Node2 -->
<g id="node2" class="node"><title>Node2</title>
<a xlink:href="../../d5/d6e/interfacens_i_stream_listener.html" target="_top" xlink:title="nsIStreamListener">
<polygon fill="white" stroke="black" points="112,-116.5 112,-137.5 208,-137.5 208,-116.5 112,-116.5"/>
<text text-anchor="middle" x="160" y="-124.5" font-family="Helvetica,sans-Serif" font-size="10.00">nsIStreamListener</text>
</a>
</g>
<!-- Node2&#45;&gt;Node1 -->
<g id="edge2" class="edge"><title>Node2&#45;&gt;Node1</title>
<path fill="none" stroke="midnightblue" d="M153.495,-106.191C152.941,-97.1684 153.326,-86.9941 154.648,-79.5707"/>
<polygon fill="midnightblue" stroke="midnightblue" points="150.043,-106.814 154.636,-116.362 157,-106.034 150.043,-106.814"/>
</g>
<!-- Node2&#45;&gt;Node1 -->
<g id="edge12" class="edge"><title>Node2&#45;&gt;Node1</title>
<path fill="none" stroke="midnightblue" d="M166.505,-106.191C167.059,-97.1684 166.674,-86.9941 165.352,-79.5707"/>
<polygon fill="midnightblue" stroke="midnightblue" points="163,-106.034 165.364,-116.362 169.957,-106.814 163,-106.034"/>
</g>
<!-- Node3 -->
<g id="node4" class="node"><title>Node3</title>
<a xlink:href="../../d1/dc4/interfacens_i_request_observer.html" target="_top" xlink:title="nsIRequestObserver">
<polygon fill="white" stroke="black" points="106.5,-174.5 106.5,-195.5 213.5,-195.5 213.5,-174.5 106.5,-174.5"/>
<text text-anchor="middle" x="160" y="-182.5" font-family="Helvetica,sans-Serif" font-size="10.00">nsIRequestObserver</text>
</a>
</g>
<!-- Node3&#45;&gt;Node2 -->
<g id="edge4" class="edge"><title>Node3&#45;&gt;Node2</title>
<path fill="none" stroke="midnightblue" d="M153.495,-164.191C152.941,-155.168 153.326,-144.994 154.648,-137.571"/>
<polygon fill="midnightblue" stroke="midnightblue" points="150.043,-164.814 154.636,-174.362 157,-164.034 150.043,-164.814"/>
</g>
<!-- Node3&#45;&gt;Node2 -->
<g id="edge10" class="edge"><title>Node3&#45;&gt;Node2</title>
<path fill="none" stroke="midnightblue" d="M166.505,-164.191C167.059,-155.168 166.674,-144.994 165.352,-137.571"/>
<polygon fill="midnightblue" stroke="midnightblue" points="163,-164.034 165.364,-174.362 169.957,-164.814 163,-164.034"/>
</g>
<!-- Node4 -->
<g id="node6" class="node"><title>Node4</title>
<a xlink:href="../../d4/d6a/classns_i_supports.html" target="_top" xlink:title="nsISupports">
<polygon fill="white" stroke="black" points="125.5,-232.5 125.5,-253.5 194.5,-253.5 194.5,-232.5 125.5,-232.5"/>
<text text-anchor="middle" x="160" y="-240.5" font-family="Helvetica,sans-Serif" font-size="10.00">nsISupports</text>
</a>
</g>
<!-- Node4&#45;&gt;Node3 -->
<g id="edge6" class="edge"><title>Node4&#45;&gt;Node3</title>
<path fill="none" stroke="midnightblue" d="M153.495,-222.191C152.941,-213.168 153.326,-202.994 154.648,-195.571"/>
<polygon fill="midnightblue" stroke="midnightblue" points="150.043,-222.814 154.636,-232.362 157,-222.034 150.043,-222.814"/>
</g>
<!-- Node4&#45;&gt;Node3 -->
<g id="edge8" class="edge"><title>Node4&#45;&gt;Node3</title>
<path fill="none" stroke="midnightblue" d="M166.505,-222.191C167.059,-213.168 166.674,-202.994 165.352,-195.571"/>
<polygon fill="midnightblue" stroke="midnightblue" points="163,-222.034 165.364,-232.362 169.957,-222.814 163,-222.034"/>
</g>
</g>
</svg>
