<?xml version="1.0" encoding="UTF-8" standalone="no"?>
<!DOCTYPE svg PUBLIC "-//W3C//DTD SVG 1.1//EN"
 "http://www.w3.org/Graphics/SVG/1.1/DTD/svg11.dtd">
<!-- Generated by graphviz version 2.26.3 (20100126.1600)
 -->
<!-- Title: G Pages: 1 -->
<!--zoomable 186 -->
<svg id="main" version="1.1" xmlns="http://www.w3.org/2000/svg" xmlns:xlink="http://www.w3.org/1999/xlink" xml:space="preserve" onload="init(evt)">
        <defs>
                <circle id="rim" cx="0" cy="0" r="7"/>
                <circle id="rim2" cx="0" cy="0" r="3.5"/>
                <g id="zoomPlus">
                        <use xlink:href="#rim" fill="#404040">
                                <set attributeName="fill" to="#808080" begin="zoomplus.mouseover" end="zoomplus.mouseout"/>
                        </use>
                        <path d="M-4,0h8M0,-4v8" fill="none" stroke="white" stroke-width="1.5" pointer-events="none"/>
                </g>
                <g id="zoomMin">
                        <use xlink:href="#rim" fill="#404040">
                                <set attributeName="fill" to="#808080" begin="zoomminus.mouseover" end="zoomminus.mouseout"/>
                        </use>
                        <path d="M-4,0h8" fill="none" stroke="white" stroke-width="1.5" pointer-events="none"/>
                </g>
                <g id="dirArrow">
                        <path fill="none" stroke="white" stroke-width="1.5" d="M0,-3.0v7 M-2.5,-0.5L0,-3.0L2.5,-0.5"/>
                </g>
               <g id="resetDef">
                       <use xlink:href="#rim2" fill="#404040">
                               <set attributeName="fill" to="#808080" begin="reset.mouseover" end="reset.mouseout"/>
                       </use>
               </g>
        </defs>

<script type="text/javascript">
var viewWidth = 796;
var viewHeight = 186;
var sectionId = 'dynsection-2';
</script>
<script xlink:href="../../svgpan.js"/>
<svg id="graph" class="graph">
<g id="viewport">
<title>G</title>
<polygon fill="white" stroke="white" points="-4,5 -4,-182 793,-182 793,5 -4,5"/>
<!-- Node1 -->
<g id="node1" class="node"><title>Node1</title>
<polygon fill="#bfbfbf" stroke="black" points="0,-117.5 0,-138.5 220,-138.5 220,-117.5 0,-117.5"/>
<text text-anchor="middle" x="110" y="-125.5" font-family="Helvetica,sans-Serif" font-size="10.00">mozilla::dom::PromiseBinding::GetProtoObject</text>
</g>
<!-- Node2 -->
<g id="node3" class="node"><title>Node2</title>
<a xlink:href="../../d8/df7/namespacemozilla_1_1dom_1_1_promise_binding.html#a4cd42909188aefae6d232fc8015233fa" target="_top" xlink:title="mozilla::dom::PromiseBinding::CreateInterfaceObjects">
<polygon fill="white" stroke="black" points="256,-156.5 256,-177.5 510,-177.5 510,-156.5 256,-156.5"/>
<text text-anchor="middle" x="383" y="-164.5" font-family="Helvetica,sans-Serif" font-size="10.00">mozilla::dom::PromiseBinding::CreateInterfaceObjects</text>
</a>
</g>
<!-- Node1&#45;&gt;Node2 -->
<g id="edge2" class="edge"><title>Node1&#45;&gt;Node2</title>
<path fill="none" stroke="midnightblue" d="M183.518,-138.503C219.174,-143.596 262.173,-149.739 299.106,-155.015"/>
<polygon fill="midnightblue" stroke="midnightblue" points="298.956,-158.529 309.351,-156.479 299.946,-151.6 298.956,-158.529"/>
</g>
<!-- Node3 -->
<g id="node5" class="node"><title>Node3</title>
<a xlink:href="../../db/da2/namespacejs.html#aca7ef07fd5e632405949331c6929f1e6" target="_top" xlink:title="js::GetObjectClass">
<polygon fill="white" stroke="black" points="688,-79.5 688,-100.5 788,-100.5 788,-79.5 688,-79.5"/>
<text text-anchor="middle" x="738" y="-87.5" font-family="Helvetica,sans-Serif" font-size="10.00">js::GetObjectClass</text>
</a>
</g>
<!-- Node1&#45;&gt;Node3 -->
<g id="edge4" class="edge"><title>Node1&#45;&gt;Node3</title>
<path fill="none" stroke="midnightblue" d="M220.056,-121.848C329.577,-115.644 502.435,-105.632 652,-96 660.373,-95.4607 669.204,-94.8699 677.889,-94.276"/>
<polygon fill="midnightblue" stroke="midnightblue" points="678.247,-97.7597 687.983,-93.5802 677.766,-90.7763 678.247,-97.7597"/>
</g>
<!-- Node4 -->
<g id="node7" class="node"><title>Node4</title>
<a xlink:href="../../d7/d4b/namespacemozilla_1_1dom.html#ade3c1c38ff416c6d50f6c97f01f836e1" target="_top" xlink:title="mozilla::dom::GetProtoAndIfaceArray">
<polygon fill="white" stroke="black" points="293.5,-59.5 293.5,-80.5 472.5,-80.5 472.5,-59.5 293.5,-59.5"/>
<text text-anchor="middle" x="383" y="-67.5" font-family="Helvetica,sans-Serif" font-size="10.00">mozilla::dom::GetProtoAndIfaceArray</text>
</a>
</g>
<!-- Node1&#45;&gt;Node4 -->
<g id="edge6" class="edge"><title>Node1&#45;&gt;Node4</title>
<path fill="none" stroke="midnightblue" d="M159.438,-117.497C205.582,-107.693 274.508,-93.0496 323.616,-82.6165"/>
<polygon fill="midnightblue" stroke="midnightblue" points="324.415,-86.0249 333.469,-80.5231 322.96,-79.1777 324.415,-86.0249"/>
</g>
<!-- Node4&#45;&gt;Node3 -->
<g id="edge8" class="edge"><title>Node4&#45;&gt;Node3</title>
<path fill="none" stroke="midnightblue" d="M472.581,-75.0468C536.779,-78.6636 621.505,-83.4369 677.773,-86.6069"/>
<polygon fill="midnightblue" stroke="midnightblue" points="677.756,-90.1114 687.937,-87.1796 678.15,-83.1225 677.756,-90.1114"/>
</g>
<!-- Node5 -->
<g id="node10" class="node"><title>Node5</title>
<a xlink:href="../../db/da2/namespacejs.html#ad81f7c892e54c34c67a930983b58c1b0" target="_top" xlink:title="js::GetReservedSlot">
<polygon fill="white" stroke="black" points="546.5,-40.5 546.5,-61.5 651.5,-61.5 651.5,-40.5 546.5,-40.5"/>
<text text-anchor="middle" x="599" y="-48.5" font-family="Helvetica,sans-Serif" font-size="10.00">js::GetReservedSlot</text>
</a>
</g>
<!-- Node4&#45;&gt;Node5 -->
<g id="edge10" class="edge"><title>Node4&#45;&gt;Node5</title>
<path fill="none" stroke="midnightblue" d="M472.727,-62.1074C494.047,-60.232 516.346,-58.2705 536.168,-56.5269"/>
<polygon fill="midnightblue" stroke="midnightblue" points="536.635,-59.9994 546.29,-55.6365 536.022,-53.0263 536.635,-59.9994"/>
</g>
<!-- Node6 -->
<g id="node13" class="node"><title>Node6</title>
<a xlink:href="../../d1/d94/class_j_s_1_1_value.html#acb6cff159be405ffc5f5f64fa39a04db" target="_top" xlink:title="JS::Value::toPrivate">
<polygon fill="white" stroke="black" points="547,-0.5 547,-21.5 651,-21.5 651,-0.5 547,-0.5"/>
<text text-anchor="middle" x="599" y="-8.5" font-family="Helvetica,sans-Serif" font-size="10.00">JS::Value::toPrivate</text>
</a>
</g>
<!-- Node4&#45;&gt;Node6 -->
<g id="edge14" class="edge"><title>Node4&#45;&gt;Node6</title>
<path fill="none" stroke="midnightblue" d="M421.616,-59.452C457.596,-49.6242 511.392,-34.9299 550.303,-24.3015"/>
<polygon fill="midnightblue" stroke="midnightblue" points="551.63,-27.5673 560.354,-21.556 549.785,-20.8147 551.63,-27.5673"/>
</g>
<!-- Node5&#45;&gt;Node3 -->
<g id="edge12" class="edge"><title>Node5&#45;&gt;Node3</title>
<path fill="none" stroke="midnightblue" d="M636.615,-61.554C653.149,-66.1929 672.757,-71.6943 690.302,-76.617"/>
<polygon fill="midnightblue" stroke="midnightblue" points="689.781,-80.106 700.355,-79.4376 691.672,-73.3662 689.781,-80.106"/>
</g>
</g>
</svg>
        <g id="navigator" transform="translate(0 0)" fill="#404254">
                <rect fill="#f2f5e9" fill-opacity="0.5" stroke="#606060" stroke-width=".5" x="0" y="0" width="60" height="60"/>
                <use id="zoomplus" xlink:href="#zoomPlus" x="17" y="9" onmousedown="handleZoom(evt,'in')"/>
                <use id="zoomminus" xlink:href="#zoomMin" x="42" y="9" onmousedown="handleZoom(evt,'out')"/>
                <use id="reset" xlink:href="#resetDef" x="30" y="36" onmousedown="handleReset()"/>
                <g id="arrowUp" xlink:href="#dirArrow" transform="translate(30 24)" onmousedown="handlePan(0,-1)">
                  <use xlink:href="#rim" fill="#404040">
                        <set attributeName="fill" to="#808080" begin="arrowUp.mouseover" end="arrowUp.mouseout"/>
                  </use>
                  <path fill="none" stroke="white" stroke-width="1.5" d="M0,-3.0v7 M-2.5,-0.5L0,-3.0L2.5,-0.5"/>
                </g>
                <g id="arrowRight" xlink:href="#dirArrow" transform="rotate(90) translate(36 -43)" onmousedown="handlePan(1,0)">
                  <use xlink:href="#rim" fill="#404040">
                        <set attributeName="fill" to="#808080" begin="arrowRight.mouseover" end="arrowRight.mouseout"/>
                  </use>
                  <path fill="none" stroke="white" stroke-width="1.5" d="M0,-3.0v7 M-2.5,-0.5L0,-3.0L2.5,-0.5"/>
                </g>
                <g id="arrowDown" xlink:href="#dirArrow" transform="rotate(180) translate(-30 -48)" onmousedown="handlePan(0,1)">
                  <use xlink:href="#rim" fill="#404040">
                        <set attributeName="fill" to="#808080" begin="arrowDown.mouseover" end="arrowDown.mouseout"/>
                  </use>
                  <path fill="none" stroke="white" stroke-width="1.5" d="M0,-3.0v7 M-2.5,-0.5L0,-3.0L2.5,-0.5"/>
                </g>
                <g id="arrowLeft" xlink:href="#dirArrow" transform="rotate(270) translate(-36 17)" onmousedown="handlePan(-1,0)">
                  <use xlink:href="#rim" fill="#404040">
                        <set attributeName="fill" to="#808080" begin="arrowLeft.mouseover" end="arrowLeft.mouseout"/>
                  </use>
                  <path fill="none" stroke="white" stroke-width="1.5" d="M0,-3.0v7 M-2.5,-0.5L0,-3.0L2.5,-0.5"/>
                </g>
        </g>
</svg>
