<?xml version="1.0" encoding="UTF-8" standalone="no"?>
<!DOCTYPE svg PUBLIC "-//W3C//DTD SVG 1.1//EN"
 "http://www.w3.org/Graphics/SVG/1.1/DTD/svg11.dtd">
<!-- Generated by graphviz version 2.26.3 (20100126.1600)
 -->
<!-- Title: G Pages: 1 -->
<svg width="430pt" height="84pt"
 viewBox="0.00 0.00 430.00 83.98" xmlns="http://www.w3.org/2000/svg" xmlns:xlink="http://www.w3.org/1999/xlink">
<g id="graph1" class="graph" transform="scale(1 1) rotate(0) translate(4 79.9827)">
<title>G</title>
<polygon fill="white" stroke="white" points="-4,5 -4,-79.9827 427,-79.9827 427,5 -4,5"/>
<!-- Node1 -->
<g id="node1" class="node"><title>Node1</title>
<polygon fill="#bfbfbf" stroke="black" points="0,-40.5 0,-61.5 82,-61.5 82,-40.5 0,-40.5"/>
<text text-anchor="middle" x="41" y="-48.5" font-family="Helvetica,sans-Serif" font-size="10.00">Table::add_fmt</text>
</g>
<!-- Node2 -->
<g id="node3" class="node"><title>Node2</title>
<a xlink:href="../../d0/d91/b2g-info_8cpp.html#a72987403ed81c976534491e6e4cb7533" target="_top" xlink:title="print_b2g_info">
<polygon fill="white" stroke="black" points="270.5,-40.5 270.5,-61.5 347.5,-61.5 347.5,-40.5 270.5,-40.5"/>
<text text-anchor="middle" x="309" y="-48.5" font-family="Helvetica,sans-Serif" font-size="10.00">print_b2g_info</text>
</a>
</g>
<!-- Node1&#45;&gt;Node2 -->
<g id="edge2" class="edge"><title>Node1&#45;&gt;Node2</title>
<path fill="none" stroke="midnightblue" d="M83.8222,-64.1776C94.851,-67.0019 106.776,-69.5662 118,-71 169.14,-77.5332 182.881,-77.6988 234,-71 248.297,-69.1265 263.745,-65.3251 276.884,-61.5348"/>
<polygon fill="midnightblue" stroke="midnightblue" points="84.5574,-60.751 73.9916,-61.5356 82.7405,-67.5112 84.5574,-60.751"/>
</g>
<!-- Node4 -->
<g id="node7" class="node"><title>Node4</title>
<a xlink:href="../../d0/d91/b2g-info_8cpp.html#ad94350f1cec145d9fd41ae522c6c45ed" target="_top" xlink:title="print_lmk_params">
<polygon fill="white" stroke="black" points="129,-40.5 129,-61.5 223,-61.5 223,-40.5 129,-40.5"/>
<text text-anchor="middle" x="176" y="-48.5" font-family="Helvetica,sans-Serif" font-size="10.00">print_lmk_params</text>
</a>
</g>
<!-- Node1&#45;&gt;Node4 -->
<g id="edge6" class="edge"><title>Node1&#45;&gt;Node4</title>
<path fill="none" stroke="midnightblue" d="M92.5156,-51C104.465,-51 117.123,-51 128.872,-51"/>
<polygon fill="midnightblue" stroke="midnightblue" points="92.238,-47.5001 82.238,-51 92.238,-54.5001 92.238,-47.5001"/>
</g>
<!-- Node5 -->
<g id="node10" class="node"><title>Node5</title>
<a xlink:href="../../d0/d91/b2g-info_8cpp.html#a21a526f63654418c49b074caf7feb59d" target="_top" xlink:title="print_system_meminfo">
<polygon fill="white" stroke="black" points="118,-0.5 118,-21.5 234,-21.5 234,-0.5 118,-0.5"/>
<text text-anchor="middle" x="176" y="-8.5" font-family="Helvetica,sans-Serif" font-size="10.00">print_system_meminfo</text>
</a>
</g>
<!-- Node1&#45;&gt;Node5 -->
<g id="edge10" class="edge"><title>Node1&#45;&gt;Node5</title>
<path fill="none" stroke="midnightblue" d="M86.4996,-37.5186C104.042,-32.3208 123.811,-26.4635 140.299,-21.5782"/>
<polygon fill="midnightblue" stroke="midnightblue" points="85.0633,-34.2937 76.4697,-40.4905 87.052,-41.0053 85.0633,-34.2937"/>
</g>
<!-- Node3 -->
<g id="node5" class="node"><title>Node3</title>
<a xlink:href="../../d0/d91/b2g-info_8cpp.html#a217dbf8b442f20279ea00b898af96f52" target="_top" xlink:title="main">
<polygon fill="white" stroke="black" points="384,-40.5 384,-61.5 422,-61.5 422,-40.5 384,-40.5"/>
<text text-anchor="middle" x="403" y="-48.5" font-family="Helvetica,sans-Serif" font-size="10.00">main</text>
</a>
</g>
<!-- Node2&#45;&gt;Node3 -->
<g id="edge4" class="edge"><title>Node2&#45;&gt;Node3</title>
<path fill="none" stroke="midnightblue" d="M357.632,-51C366.998,-51 376.278,-51 383.981,-51"/>
<polygon fill="midnightblue" stroke="midnightblue" points="357.505,-47.5001 347.505,-51 357.505,-54.5001 357.505,-47.5001"/>
</g>
<!-- Node4&#45;&gt;Node2 -->
<g id="edge8" class="edge"><title>Node4&#45;&gt;Node2</title>
<path fill="none" stroke="midnightblue" d="M233.536,-51C245.927,-51 258.742,-51 270.215,-51"/>
<polygon fill="midnightblue" stroke="midnightblue" points="233.265,-47.5001 223.265,-51 233.265,-54.5001 233.265,-47.5001"/>
</g>
<!-- Node5&#45;&gt;Node2 -->
<g id="edge12" class="edge"><title>Node5&#45;&gt;Node2</title>
<path fill="none" stroke="midnightblue" d="M220.826,-24.4814C238.108,-29.6792 257.584,-35.5365 273.827,-40.4218"/>
<polygon fill="midnightblue" stroke="midnightblue" points="221.529,-21.038 210.944,-21.5095 219.512,-27.7414 221.529,-21.038"/>
</g>
</g>
</svg>
