<?xml version="1.0" encoding="UTF-8" standalone="no"?>
<!DOCTYPE svg PUBLIC "-//W3C//DTD SVG 1.1//EN"
 "http://www.w3.org/Graphics/SVG/1.1/DTD/svg11.dtd">
<!-- Generated by graphviz version 2.26.3 (20100126.1600)
 -->
<!-- Title: G Pages: 1 -->
<!--zoomable 148 -->
<svg id="main" version="1.1" xmlns="http://www.w3.org/2000/svg" xmlns:xlink="http://www.w3.org/1999/xlink" xml:space="preserve" onload="init(evt)">
        <defs>
                <circle id="rim" cx="0" cy="0" r="7"/>
                <circle id="rim2" cx="0" cy="0" r="3.5"/>
                <g id="zoomPlus">
                        <use xlink:href="#rim" fill="#404040">
                                <set attributeName="fill" to="#808080" begin="zoomplus.mouseover" end="zoomplus.mouseout"/>
                        </use>
                        <path d="M-4,0h8M0,-4v8" fill="none" stroke="white" stroke-width="1.5" pointer-events="none"/>
                </g>
                <g id="zoomMin">
                        <use xlink:href="#rim" fill="#404040">
                                <set attributeName="fill" to="#808080" begin="zoomminus.mouseover" end="zoomminus.mouseout"/>
                        </use>
                        <path d="M-4,0h8" fill="none" stroke="white" stroke-width="1.5" pointer-events="none"/>
                </g>
                <g id="dirArrow">
                        <path fill="none" stroke="white" stroke-width="1.5" d="M0,-3.0v7 M-2.5,-0.5L0,-3.0L2.5,-0.5"/>
                </g>
               <g id="resetDef">
                       <use xlink:href="#rim2" fill="#404040">
                               <set attributeName="fill" to="#808080" begin="reset.mouseover" end="reset.mouseout"/>
                       </use>
               </g>
        </defs>

<script type="text/javascript">
var viewWidth = 574;
var viewHeight = 148;
var sectionId = 'dynsection-5';
</script>
<script xlink:href="../../svgpan.js"/>
<svg id="graph" class="graph">
<g id="viewport">
<title>G</title>
<polygon fill="white" stroke="white" points="-4,5 -4,-144 571,-144 571,5 -4,5"/>
<!-- Node1 -->
<g id="node1" class="node"><title>Node1</title>
<polygon fill="#bfbfbf" stroke="black" points="0.5,-59.5 0.5,-80.5 107.5,-80.5 107.5,-59.5 0.5,-59.5"/>
<text text-anchor="middle" x="54" y="-67.5" font-family="Helvetica,sans-Serif" font-size="10.00">Table::add_fmt_align</text>
</g>
<!-- Node2 -->
<g id="node3" class="node"><title>Node2</title>
<a xlink:href="../../d2/d8f/class_table.html#ae9bd2e6532ab16a8f3f2a4a73786160b" target="_top" xlink:title="Table::add">
<polygon fill="white" stroke="black" points="144,-59.5 144,-80.5 206,-80.5 206,-59.5 144,-59.5"/>
<text text-anchor="middle" x="175" y="-67.5" font-family="Helvetica,sans-Serif" font-size="10.00">Table::add</text>
</a>
</g>
<!-- Node1&#45;&gt;Node2 -->
<g id="edge2" class="edge"><title>Node1&#45;&gt;Node2</title>
<path fill="none" stroke="midnightblue" d="M117.967,-70C126.992,-70 135.914,-70 143.925,-70"/>
<polygon fill="midnightblue" stroke="midnightblue" points="117.777,-66.5001 107.777,-70 117.777,-73.5001 117.777,-66.5001"/>
</g>
<!-- Node3 -->
<g id="node5" class="node"><title>Node3</title>
<a xlink:href="../../d0/d91/b2g-info_8cpp.html#ac34fe09044970be2eb915ce7cf2398a7" target="_top" xlink:title="b2g_ps_add_table_headers">
<polygon fill="white" stroke="black" points="242.5,-118.5 242.5,-139.5 377.5,-139.5 377.5,-118.5 242.5,-118.5"/>
<text text-anchor="middle" x="310" y="-126.5" font-family="Helvetica,sans-Serif" font-size="10.00">b2g_ps_add_table_headers</text>
</a>
</g>
<!-- Node2&#45;&gt;Node3 -->
<g id="edge4" class="edge"><title>Node2&#45;&gt;Node3</title>
<path fill="none" stroke="midnightblue" d="M203.305,-85.2918C215.117,-91.4286 229.073,-98.367 242,-104 253.877,-109.176 267.204,-114.233 278.893,-118.43"/>
<polygon fill="midnightblue" stroke="midnightblue" points="204.833,-82.1406 194.353,-80.5823 201.573,-88.3357 204.833,-82.1406"/>
</g>
<!-- Node4 -->
<g id="node7" class="node"><title>Node4</title>
<a xlink:href="../../d0/d91/b2g-info_8cpp.html#a72987403ed81c976534491e6e4cb7533" target="_top" xlink:title="print_b2g_info">
<polygon fill="white" stroke="black" points="414.5,-59.5 414.5,-80.5 491.5,-80.5 491.5,-59.5 414.5,-59.5"/>
<text text-anchor="middle" x="453" y="-67.5" font-family="Helvetica,sans-Serif" font-size="10.00">print_b2g_info</text>
</a>
</g>
<!-- Node2&#45;&gt;Node4 -->
<g id="edge10" class="edge"><title>Node2&#45;&gt;Node4</title>
<path fill="none" stroke="midnightblue" d="M216.171,-70.7113C224.709,-70.8316 233.647,-70.9377 242,-71 302.443,-71.451 317.557,-71.4029 378,-71 389.85,-70.921 402.752,-70.7718 414.461,-70.6123"/>
<polygon fill="midnightblue" stroke="midnightblue" points="216.072,-67.2095 206.021,-70.5594 215.967,-74.2088 216.072,-67.2095"/>
</g>
<!-- Node6 -->
<g id="node12" class="node"><title>Node6</title>
<a xlink:href="../../d0/d91/b2g-info_8cpp.html#ad94350f1cec145d9fd41ae522c6c45ed" target="_top" xlink:title="print_lmk_params">
<polygon fill="white" stroke="black" points="263,-40.5 263,-61.5 357,-61.5 357,-40.5 263,-40.5"/>
<text text-anchor="middle" x="310" y="-48.5" font-family="Helvetica,sans-Serif" font-size="10.00">print_lmk_params</text>
</a>
</g>
<!-- Node2&#45;&gt;Node6 -->
<g id="edge12" class="edge"><title>Node2&#45;&gt;Node6</title>
<path fill="none" stroke="midnightblue" d="M216.607,-64.1441C231.282,-62.0788 247.882,-59.7426 262.973,-57.6186"/>
<polygon fill="midnightblue" stroke="midnightblue" points="215.726,-60.7337 206.311,-65.5933 216.701,-67.6653 215.726,-60.7337"/>
</g>
<!-- Node7 -->
<g id="node15" class="node"><title>Node7</title>
<a xlink:href="../../d0/d91/b2g-info_8cpp.html#a21a526f63654418c49b074caf7feb59d" target="_top" xlink:title="print_system_meminfo">
<polygon fill="white" stroke="black" points="252,-0.5 252,-21.5 368,-21.5 368,-0.5 252,-0.5"/>
<text text-anchor="middle" x="310" y="-8.5" font-family="Helvetica,sans-Serif" font-size="10.00">print_system_meminfo</text>
</a>
</g>
<!-- Node2&#45;&gt;Node7 -->
<g id="edge16" class="edge"><title>Node2&#45;&gt;Node7</title>
<path fill="none" stroke="midnightblue" d="M199.471,-53.8375C211.847,-46.1671 227.322,-37.3201 242,-31 250.251,-27.4473 259.325,-24.2945 268.083,-21.6023"/>
<polygon fill="midnightblue" stroke="midnightblue" points="197.249,-51.1024 190.677,-59.4124 200.997,-57.0147 197.249,-51.1024"/>
</g>
<!-- Node3&#45;&gt;Node4 -->
<g id="edge6" class="edge"><title>Node3&#45;&gt;Node4</title>
<path fill="none" stroke="midnightblue" d="M349.767,-114.935C359.081,-111.488 368.93,-107.717 378,-104 395.991,-96.6266 416.033,-87.4917 430.87,-80.5479"/>
<polygon fill="midnightblue" stroke="midnightblue" points="348.499,-111.672 340.31,-118.395 350.904,-118.246 348.499,-111.672"/>
</g>
<!-- Node5 -->
<g id="node9" class="node"><title>Node5</title>
<a xlink:href="../../d0/d91/b2g-info_8cpp.html#a217dbf8b442f20279ea00b898af96f52" target="_top" xlink:title="main">
<polygon fill="white" stroke="black" points="528,-59.5 528,-80.5 566,-80.5 566,-59.5 528,-59.5"/>
<text text-anchor="middle" x="547" y="-67.5" font-family="Helvetica,sans-Serif" font-size="10.00">main</text>
</a>
</g>
<!-- Node4&#45;&gt;Node5 -->
<g id="edge8" class="edge"><title>Node4&#45;&gt;Node5</title>
<path fill="none" stroke="midnightblue" d="M501.632,-70C510.998,-70 520.278,-70 527.981,-70"/>
<polygon fill="midnightblue" stroke="midnightblue" points="501.505,-66.5001 491.505,-70 501.505,-73.5001 501.505,-66.5001"/>
</g>
<!-- Node6&#45;&gt;Node4 -->
<g id="edge14" class="edge"><title>Node6&#45;&gt;Node4</title>
<path fill="none" stroke="midnightblue" d="M367.424,-58.6298C383.213,-60.7276 399.956,-62.9522 414.405,-64.872"/>
<polygon fill="midnightblue" stroke="midnightblue" points="367.594,-55.1216 357.22,-57.274 366.672,-62.0607 367.594,-55.1216"/>
</g>
<!-- Node7&#45;&gt;Node4 -->
<g id="edge18" class="edge"><title>Node7&#45;&gt;Node4</title>
<path fill="none" stroke="midnightblue" d="M360.623,-24.7023C366.539,-26.6522 372.442,-28.7622 378,-31 398.149,-39.1127 420.068,-50.88 434.976,-59.3648"/>
<polygon fill="midnightblue" stroke="midnightblue" points="361.302,-21.2466 350.712,-21.5777 359.197,-27.9227 361.302,-21.2466"/>
</g>
</g>
</svg>
        <g id="navigator" transform="translate(0 0)" fill="#404254">
                <rect fill="#f2f5e9" fill-opacity="0.5" stroke="#606060" stroke-width=".5" x="0" y="0" width="60" height="60"/>
                <use id="zoomplus" xlink:href="#zoomPlus" x="17" y="9" onmousedown="handleZoom(evt,'in')"/>
                <use id="zoomminus" xlink:href="#zoomMin" x="42" y="9" onmousedown="handleZoom(evt,'out')"/>
                <use id="reset" xlink:href="#resetDef" x="30" y="36" onmousedown="handleReset()"/>
                <g id="arrowUp" xlink:href="#dirArrow" transform="translate(30 24)" onmousedown="handlePan(0,-1)">
                  <use xlink:href="#rim" fill="#404040">
                        <set attributeName="fill" to="#808080" begin="arrowUp.mouseover" end="arrowUp.mouseout"/>
                  </use>
                  <path fill="none" stroke="white" stroke-width="1.5" d="M0,-3.0v7 M-2.5,-0.5L0,-3.0L2.5,-0.5"/>
                </g>
                <g id="arrowRight" xlink:href="#dirArrow" transform="rotate(90) translate(36 -43)" onmousedown="handlePan(1,0)">
                  <use xlink:href="#rim" fill="#404040">
                        <set attributeName="fill" to="#808080" begin="arrowRight.mouseover" end="arrowRight.mouseout"/>
                  </use>
                  <path fill="none" stroke="white" stroke-width="1.5" d="M0,-3.0v7 M-2.5,-0.5L0,-3.0L2.5,-0.5"/>
                </g>
                <g id="arrowDown" xlink:href="#dirArrow" transform="rotate(180) translate(-30 -48)" onmousedown="handlePan(0,1)">
                  <use xlink:href="#rim" fill="#404040">
                        <set attributeName="fill" to="#808080" begin="arrowDown.mouseover" end="arrowDown.mouseout"/>
                  </use>
                  <path fill="none" stroke="white" stroke-width="1.5" d="M0,-3.0v7 M-2.5,-0.5L0,-3.0L2.5,-0.5"/>
                </g>
                <g id="arrowLeft" xlink:href="#dirArrow" transform="rotate(270) translate(-36 17)" onmousedown="handlePan(-1,0)">
                  <use xlink:href="#rim" fill="#404040">
                        <set attributeName="fill" to="#808080" begin="arrowLeft.mouseover" end="arrowLeft.mouseout"/>
                  </use>
                  <path fill="none" stroke="white" stroke-width="1.5" d="M0,-3.0v7 M-2.5,-0.5L0,-3.0L2.5,-0.5"/>
                </g>
        </g>
</svg>
