<?xml version="1.0" encoding="UTF-8" standalone="no"?>
<!DOCTYPE svg PUBLIC "-//W3C//DTD SVG 1.1//EN"
 "http://www.w3.org/Graphics/SVG/1.1/DTD/svg11.dtd">
<!-- Generated by graphviz version 2.26.3 (20100126.1600)
 -->
<!-- Title: G Pages: 1 -->
<svg width="468pt" height="110pt"
 viewBox="0.00 0.00 468.00 110.00" xmlns="http://www.w3.org/2000/svg" xmlns:xlink="http://www.w3.org/1999/xlink">
<g id="graph1" class="graph" transform="scale(1 1) rotate(0) translate(4 106)">
<title>G</title>
<polygon fill="white" stroke="white" points="-4,5 -4,-106 465,-106 465,5 -4,5"/>
<!-- Node1 -->
<g id="node1" class="node"><title>Node1</title>
<polygon fill="#bfbfbf" stroke="black" points="0,-40.5 0,-61.5 120,-61.5 120,-40.5 0,-40.5"/>
<text text-anchor="middle" x="60" y="-48.5" font-family="Helvetica,sans-Serif" font-size="10.00">Table::print_with_indent</text>
</g>
<!-- Node2 -->
<g id="node3" class="node"><title>Node2</title>
<a xlink:href="../../d2/d8f/class_table.html#a0de5a9ca880b662ec7d608de686e309a" target="_top" xlink:title="Table::print">
<polygon fill="white" stroke="black" points="181.5,-80.5 181.5,-101.5 246.5,-101.5 246.5,-80.5 181.5,-80.5"/>
<text text-anchor="middle" x="214" y="-88.5" font-family="Helvetica,sans-Serif" font-size="10.00">Table::print</text>
</a>
</g>
<!-- Node1&#45;&gt;Node2 -->
<g id="edge2" class="edge"><title>Node1&#45;&gt;Node2</title>
<path fill="none" stroke="midnightblue" d="M110.209,-64.0412C133.557,-70.1057 160.66,-77.1454 181.314,-82.5101"/>
<polygon fill="midnightblue" stroke="midnightblue" points="111.02,-60.636 100.462,-61.5095 109.261,-67.4112 111.02,-60.636"/>
</g>
<!-- Node5 -->
<g id="node9" class="node"><title>Node5</title>
<a xlink:href="../../d0/d91/b2g-info_8cpp.html#ad94350f1cec145d9fd41ae522c6c45ed" target="_top" xlink:title="print_lmk_params">
<polygon fill="white" stroke="black" points="167,-40.5 167,-61.5 261,-61.5 261,-40.5 167,-40.5"/>
<text text-anchor="middle" x="214" y="-48.5" font-family="Helvetica,sans-Serif" font-size="10.00">print_lmk_params</text>
</a>
</g>
<!-- Node1&#45;&gt;Node5 -->
<g id="edge8" class="edge"><title>Node1&#45;&gt;Node5</title>
<path fill="none" stroke="midnightblue" d="M130.592,-51C142.792,-51 155.207,-51 166.602,-51"/>
<polygon fill="midnightblue" stroke="midnightblue" points="130.423,-47.5001 120.423,-51 130.423,-54.5001 130.423,-47.5001"/>
</g>
<!-- Node6 -->
<g id="node12" class="node"><title>Node6</title>
<a xlink:href="../../d0/d91/b2g-info_8cpp.html#a21a526f63654418c49b074caf7feb59d" target="_top" xlink:title="print_system_meminfo">
<polygon fill="white" stroke="black" points="156,-0.5 156,-21.5 272,-21.5 272,-0.5 156,-0.5"/>
<text text-anchor="middle" x="214" y="-8.5" font-family="Helvetica,sans-Serif" font-size="10.00">print_system_meminfo</text>
</a>
</g>
<!-- Node1&#45;&gt;Node6 -->
<g id="edge12" class="edge"><title>Node1&#45;&gt;Node6</title>
<path fill="none" stroke="midnightblue" d="M110.266,-37.9439C130.772,-32.6177 154.166,-26.5413 173.541,-21.5087"/>
<polygon fill="midnightblue" stroke="midnightblue" points="109.261,-34.5888 100.462,-40.4905 111.02,-41.364 109.261,-34.5888"/>
</g>
<!-- Node3 -->
<g id="node5" class="node"><title>Node3</title>
<a xlink:href="../../d0/d91/b2g-info_8cpp.html#a72987403ed81c976534491e6e4cb7533" target="_top" xlink:title="print_b2g_info">
<polygon fill="white" stroke="black" points="308.5,-40.5 308.5,-61.5 385.5,-61.5 385.5,-40.5 308.5,-40.5"/>
<text text-anchor="middle" x="347" y="-48.5" font-family="Helvetica,sans-Serif" font-size="10.00">print_b2g_info</text>
</a>
</g>
<!-- Node2&#45;&gt;Node3 -->
<g id="edge4" class="edge"><title>Node2&#45;&gt;Node3</title>
<path fill="none" stroke="midnightblue" d="M256.199,-78.3085C274.176,-72.902 294.899,-66.6694 312.006,-61.5246"/>
<polygon fill="midnightblue" stroke="midnightblue" points="255.104,-74.983 246.535,-81.2149 257.12,-81.6864 255.104,-74.983"/>
</g>
<!-- Node4 -->
<g id="node7" class="node"><title>Node4</title>
<a xlink:href="../../d0/d91/b2g-info_8cpp.html#a217dbf8b442f20279ea00b898af96f52" target="_top" xlink:title="main">
<polygon fill="white" stroke="black" points="422,-40.5 422,-61.5 460,-61.5 460,-40.5 422,-40.5"/>
<text text-anchor="middle" x="441" y="-48.5" font-family="Helvetica,sans-Serif" font-size="10.00">main</text>
</a>
</g>
<!-- Node3&#45;&gt;Node4 -->
<g id="edge6" class="edge"><title>Node3&#45;&gt;Node4</title>
<path fill="none" stroke="midnightblue" d="M395.632,-51C404.998,-51 414.278,-51 421.981,-51"/>
<polygon fill="midnightblue" stroke="midnightblue" points="395.505,-47.5001 385.505,-51 395.505,-54.5001 395.505,-47.5001"/>
</g>
<!-- Node5&#45;&gt;Node3 -->
<g id="edge10" class="edge"><title>Node5&#45;&gt;Node3</title>
<path fill="none" stroke="midnightblue" d="M271.536,-51C283.927,-51 296.742,-51 308.215,-51"/>
<polygon fill="midnightblue" stroke="midnightblue" points="271.265,-47.5001 261.265,-51 271.265,-54.5001 271.265,-47.5001"/>
</g>
<!-- Node6&#45;&gt;Node3 -->
<g id="edge14" class="edge"><title>Node6&#45;&gt;Node3</title>
<path fill="none" stroke="midnightblue" d="M258.826,-24.4814C276.108,-29.6792 295.584,-35.5365 311.827,-40.4218"/>
<polygon fill="midnightblue" stroke="midnightblue" points="259.529,-21.038 248.944,-21.5095 257.512,-27.7414 259.529,-21.038"/>
</g>
</g>
</svg>
