<?xml version="1.0" encoding="UTF-8" standalone="no"?>
<!DOCTYPE svg PUBLIC "-//W3C//DTD SVG 1.1//EN"
 "http://www.w3.org/Graphics/SVG/1.1/DTD/svg11.dtd">
<!-- Generated by graphviz version 2.26.3 (20100126.1600)
 -->
<!-- Title: G Pages: 1 -->
<svg width="456pt" height="148pt"
 viewBox="0.00 0.00 456.00 148.00" xmlns="http://www.w3.org/2000/svg" xmlns:xlink="http://www.w3.org/1999/xlink">
<g id="graph1" class="graph" transform="scale(1 1) rotate(0) translate(4 144)">
<title>G</title>
<polygon fill="white" stroke="white" points="-4,5 -4,-144 453,-144 453,5 -4,5"/>
<!-- Node1 -->
<g id="node1" class="node"><title>Node1</title>
<polygon fill="#bfbfbf" stroke="black" points="0.5,-59.5 0.5,-80.5 87.5,-80.5 87.5,-59.5 0.5,-59.5"/>
<text text-anchor="middle" x="44" y="-67.5" font-family="Helvetica,sans-Serif" font-size="10.00">Table::start_row</text>
</g>
<!-- Node2 -->
<g id="node3" class="node"><title>Node2</title>
<a xlink:href="../../d0/d91/b2g-info_8cpp.html#ac34fe09044970be2eb915ce7cf2398a7" target="_top" xlink:title="b2g_ps_add_table_headers">
<polygon fill="white" stroke="black" points="124.5,-118.5 124.5,-139.5 259.5,-139.5 259.5,-118.5 124.5,-118.5"/>
<text text-anchor="middle" x="192" y="-126.5" font-family="Helvetica,sans-Serif" font-size="10.00">b2g_ps_add_table_headers</text>
</a>
</g>
<!-- Node1&#45;&gt;Node2 -->
<g id="edge2" class="edge"><title>Node1&#45;&gt;Node2</title>
<path fill="none" stroke="midnightblue" d="M77.4439,-84.6504C91.7214,-90.791 108.61,-97.9049 124,-104 136.513,-108.956 150.445,-114.136 162.425,-118.488"/>
<polygon fill="midnightblue" stroke="midnightblue" points="78.5949,-81.335 68.0271,-80.5791 75.817,-87.7602 78.5949,-81.335"/>
</g>
<!-- Node3 -->
<g id="node5" class="node"><title>Node3</title>
<a xlink:href="../../d0/d91/b2g-info_8cpp.html#a72987403ed81c976534491e6e4cb7533" target="_top" xlink:title="print_b2g_info">
<polygon fill="white" stroke="black" points="296.5,-59.5 296.5,-80.5 373.5,-80.5 373.5,-59.5 296.5,-59.5"/>
<text text-anchor="middle" x="335" y="-67.5" font-family="Helvetica,sans-Serif" font-size="10.00">print_b2g_info</text>
</a>
</g>
<!-- Node1&#45;&gt;Node3 -->
<g id="edge8" class="edge"><title>Node1&#45;&gt;Node3</title>
<path fill="none" stroke="midnightblue" d="M97.7496,-70.7641C106.523,-70.8623 115.514,-70.947 124,-71 184.443,-71.3778 199.557,-71.4029 260,-71 271.85,-70.921 284.752,-70.7718 296.461,-70.6123"/>
<polygon fill="midnightblue" stroke="midnightblue" points="97.6356,-67.2626 87.5948,-70.6437 97.5526,-74.2621 97.6356,-67.2626"/>
</g>
<!-- Node5 -->
<g id="node10" class="node"><title>Node5</title>
<a xlink:href="../../d0/d91/b2g-info_8cpp.html#ad94350f1cec145d9fd41ae522c6c45ed" target="_top" xlink:title="print_lmk_params">
<polygon fill="white" stroke="black" points="145,-40.5 145,-61.5 239,-61.5 239,-40.5 145,-40.5"/>
<text text-anchor="middle" x="192" y="-48.5" font-family="Helvetica,sans-Serif" font-size="10.00">print_lmk_params</text>
</a>
</g>
<!-- Node1&#45;&gt;Node5 -->
<g id="edge10" class="edge"><title>Node1&#45;&gt;Node5</title>
<path fill="none" stroke="midnightblue" d="M97.5522,-63.1251C113.022,-61.1391 129.785,-58.9871 144.835,-57.055"/>
<polygon fill="midnightblue" stroke="midnightblue" points="97.0773,-59.6572 87.6044,-64.4021 97.9687,-66.6002 97.0773,-59.6572"/>
</g>
<!-- Node6 -->
<g id="node13" class="node"><title>Node6</title>
<a xlink:href="../../d0/d91/b2g-info_8cpp.html#a21a526f63654418c49b074caf7feb59d" target="_top" xlink:title="print_system_meminfo">
<polygon fill="white" stroke="black" points="134,-0.5 134,-21.5 250,-21.5 250,-0.5 134,-0.5"/>
<text text-anchor="middle" x="192" y="-8.5" font-family="Helvetica,sans-Serif" font-size="10.00">print_system_meminfo</text>
</a>
</g>
<!-- Node1&#45;&gt;Node6 -->
<g id="edge14" class="edge"><title>Node1&#45;&gt;Node6</title>
<path fill="none" stroke="midnightblue" d="M72.5838,-54.6173C87.6158,-46.9011 106.509,-37.7805 124,-31 132.949,-27.5307 142.758,-24.3188 152.071,-21.5295"/>
<polygon fill="midnightblue" stroke="midnightblue" points="70.5674,-51.7213 63.3167,-59.4465 73.8023,-57.929 70.5674,-51.7213"/>
</g>
<!-- Node2&#45;&gt;Node3 -->
<g id="edge4" class="edge"><title>Node2&#45;&gt;Node3</title>
<path fill="none" stroke="midnightblue" d="M231.767,-114.935C241.081,-111.488 250.93,-107.717 260,-104 277.991,-96.6266 298.033,-87.4917 312.87,-80.5479"/>
<polygon fill="midnightblue" stroke="midnightblue" points="230.499,-111.672 222.31,-118.395 232.904,-118.246 230.499,-111.672"/>
</g>
<!-- Node4 -->
<g id="node7" class="node"><title>Node4</title>
<a xlink:href="../../d0/d91/b2g-info_8cpp.html#a217dbf8b442f20279ea00b898af96f52" target="_top" xlink:title="main">
<polygon fill="white" stroke="black" points="410,-59.5 410,-80.5 448,-80.5 448,-59.5 410,-59.5"/>
<text text-anchor="middle" x="429" y="-67.5" font-family="Helvetica,sans-Serif" font-size="10.00">main</text>
</a>
</g>
<!-- Node3&#45;&gt;Node4 -->
<g id="edge6" class="edge"><title>Node3&#45;&gt;Node4</title>
<path fill="none" stroke="midnightblue" d="M383.632,-70C392.998,-70 402.278,-70 409.981,-70"/>
<polygon fill="midnightblue" stroke="midnightblue" points="383.505,-66.5001 373.505,-70 383.505,-73.5001 383.505,-66.5001"/>
</g>
<!-- Node5&#45;&gt;Node3 -->
<g id="edge12" class="edge"><title>Node5&#45;&gt;Node3</title>
<path fill="none" stroke="midnightblue" d="M249.424,-58.6298C265.213,-60.7276 281.956,-62.9522 296.405,-64.872"/>
<polygon fill="midnightblue" stroke="midnightblue" points="249.594,-55.1216 239.22,-57.274 248.672,-62.0607 249.594,-55.1216"/>
</g>
<!-- Node6&#45;&gt;Node3 -->
<g id="edge16" class="edge"><title>Node6&#45;&gt;Node3</title>
<path fill="none" stroke="midnightblue" d="M242.623,-24.7023C248.539,-26.6522 254.442,-28.7622 260,-31 280.149,-39.1127 302.068,-50.88 316.976,-59.3648"/>
<polygon fill="midnightblue" stroke="midnightblue" points="243.302,-21.2466 232.712,-21.5777 241.197,-27.9227 243.302,-21.2466"/>
</g>
</g>
</svg>
