<?xml version="1.0" encoding="UTF-8" standalone="no"?>
<!DOCTYPE svg PUBLIC "-//W3C//DTD SVG 1.1//EN"
 "http://www.w3.org/Graphics/SVG/1.1/DTD/svg11.dtd">
<!-- Generated by graphviz version 2.26.3 (20100126.1600)
 -->
<!-- Title: G Pages: 1 -->
<svg width="316pt" height="30pt"
 viewBox="0.00 0.00 316.00 30.00" xmlns="http://www.w3.org/2000/svg" xmlns:xlink="http://www.w3.org/1999/xlink">
<g id="graph1" class="graph" transform="scale(1 1) rotate(0) translate(4 26)">
<title>G</title>
<polygon fill="white" stroke="white" points="-4,5 -4,-26 313,-26 313,5 -4,5"/>
<!-- Node1 -->
<g id="node1" class="node"><title>Node1</title>
<polygon fill="#bfbfbf" stroke="black" points="0,-0.5 0,-21.5 120,-21.5 120,-0.5 0,-0.5"/>
<text text-anchor="middle" x="60" y="-8.5" font-family="Helvetica,sans-Serif" font-size="10.00">Table::multi_col_header</text>
</g>
<!-- Node2 -->
<g id="node3" class="node"><title>Node2</title>
<a xlink:href="../../d0/d91/b2g-info_8cpp.html#a72987403ed81c976534491e6e4cb7533" target="_top" xlink:title="print_b2g_info">
<polygon fill="white" stroke="black" points="156.5,-0.5 156.5,-21.5 233.5,-21.5 233.5,-0.5 156.5,-0.5"/>
<text text-anchor="middle" x="195" y="-8.5" font-family="Helvetica,sans-Serif" font-size="10.00">print_b2g_info</text>
</a>
</g>
<!-- Node1&#45;&gt;Node2 -->
<g id="edge2" class="edge"><title>Node1&#45;&gt;Node2</title>
<path fill="none" stroke="midnightblue" d="M130.45,-11C139.362,-11 148.205,-11 156.357,-11"/>
<polygon fill="midnightblue" stroke="midnightblue" points="130.393,-7.5001 120.393,-11 130.393,-14.5001 130.393,-7.5001"/>
</g>
<!-- Node3 -->
<g id="node5" class="node"><title>Node3</title>
<a xlink:href="../../d0/d91/b2g-info_8cpp.html#a217dbf8b442f20279ea00b898af96f52" target="_top" xlink:title="main">
<polygon fill="white" stroke="black" points="270,-0.5 270,-21.5 308,-21.5 308,-0.5 270,-0.5"/>
<text text-anchor="middle" x="289" y="-8.5" font-family="Helvetica,sans-Serif" font-size="10.00">main</text>
</a>
</g>
<!-- Node2&#45;&gt;Node3 -->
<g id="edge4" class="edge"><title>Node2&#45;&gt;Node3</title>
<path fill="none" stroke="midnightblue" d="M243.632,-11C252.998,-11 262.278,-11 269.981,-11"/>
<polygon fill="midnightblue" stroke="midnightblue" points="243.505,-7.5001 233.505,-11 243.505,-14.5001 243.505,-7.5001"/>
</g>
</g>
</svg>
