<?xml version="1.0" encoding="UTF-8" standalone="no"?>
<!DOCTYPE svg PUBLIC "-//W3C//DTD SVG 1.1//EN"
 "http://www.w3.org/Graphics/SVG/1.1/DTD/svg11.dtd">
<!-- Generated by graphviz version 2.26.3 (20100126.1600)
 -->
<!-- Title: G Pages: 1 -->
<svg width="430pt" height="148pt"
 viewBox="0.00 0.00 430.00 148.00" xmlns="http://www.w3.org/2000/svg" xmlns:xlink="http://www.w3.org/1999/xlink">
<g id="graph1" class="graph" transform="scale(1 1) rotate(0) translate(4 144)">
<title>G</title>
<polygon fill="white" stroke="white" points="-4,5 -4,-144 427,-144 427,5 -4,5"/>
<!-- Node1 -->
<g id="node1" class="node"><title>Node1</title>
<polygon fill="#bfbfbf" stroke="black" points="0,-59.5 0,-80.5 62,-80.5 62,-59.5 0,-59.5"/>
<text text-anchor="middle" x="31" y="-67.5" font-family="Helvetica,sans-Serif" font-size="10.00">Table::add</text>
</g>
<!-- Node2 -->
<g id="node3" class="node"><title>Node2</title>
<a xlink:href="../../d0/d91/b2g-info_8cpp.html#ac34fe09044970be2eb915ce7cf2398a7" target="_top" xlink:title="b2g_ps_add_table_headers">
<polygon fill="white" stroke="black" points="98.5,-118.5 98.5,-139.5 233.5,-139.5 233.5,-118.5 98.5,-118.5"/>
<text text-anchor="middle" x="166" y="-126.5" font-family="Helvetica,sans-Serif" font-size="10.00">b2g_ps_add_table_headers</text>
</a>
</g>
<!-- Node1&#45;&gt;Node2 -->
<g id="edge2" class="edge"><title>Node1&#45;&gt;Node2</title>
<path fill="none" stroke="midnightblue" d="M59.3051,-85.2918C71.1168,-91.4286 85.0733,-98.367 98,-104 109.877,-109.176 123.204,-114.233 134.893,-118.43"/>
<polygon fill="midnightblue" stroke="midnightblue" points="60.8326,-82.1406 50.3529,-80.5823 57.5735,-88.3357 60.8326,-82.1406"/>
</g>
<!-- Node3 -->
<g id="node5" class="node"><title>Node3</title>
<a xlink:href="../../d0/d91/b2g-info_8cpp.html#a72987403ed81c976534491e6e4cb7533" target="_top" xlink:title="print_b2g_info">
<polygon fill="white" stroke="black" points="270.5,-59.5 270.5,-80.5 347.5,-80.5 347.5,-59.5 270.5,-59.5"/>
<text text-anchor="middle" x="309" y="-67.5" font-family="Helvetica,sans-Serif" font-size="10.00">print_b2g_info</text>
</a>
</g>
<!-- Node1&#45;&gt;Node3 -->
<g id="edge8" class="edge"><title>Node1&#45;&gt;Node3</title>
<path fill="none" stroke="midnightblue" d="M72.1707,-70.7113C80.7088,-70.8316 89.647,-70.9377 98,-71 158.443,-71.451 173.557,-71.4029 234,-71 245.85,-70.921 258.752,-70.7718 270.461,-70.6123"/>
<polygon fill="midnightblue" stroke="midnightblue" points="72.0721,-67.2095 62.0208,-70.5594 71.9673,-74.2088 72.0721,-67.2095"/>
</g>
<!-- Node5 -->
<g id="node10" class="node"><title>Node5</title>
<a xlink:href="../../d0/d91/b2g-info_8cpp.html#ad94350f1cec145d9fd41ae522c6c45ed" target="_top" xlink:title="print_lmk_params">
<polygon fill="white" stroke="black" points="119,-40.5 119,-61.5 213,-61.5 213,-40.5 119,-40.5"/>
<text text-anchor="middle" x="166" y="-48.5" font-family="Helvetica,sans-Serif" font-size="10.00">print_lmk_params</text>
</a>
</g>
<!-- Node1&#45;&gt;Node5 -->
<g id="edge10" class="edge"><title>Node1&#45;&gt;Node5</title>
<path fill="none" stroke="midnightblue" d="M72.6074,-64.1441C87.2824,-62.0788 103.882,-59.7426 118.973,-57.6186"/>
<polygon fill="midnightblue" stroke="midnightblue" points="71.7256,-60.7337 62.311,-65.5933 72.7013,-67.6653 71.7256,-60.7337"/>
</g>
<!-- Node6 -->
<g id="node13" class="node"><title>Node6</title>
<a xlink:href="../../d0/d91/b2g-info_8cpp.html#a21a526f63654418c49b074caf7feb59d" target="_top" xlink:title="print_system_meminfo">
<polygon fill="white" stroke="black" points="108,-0.5 108,-21.5 224,-21.5 224,-0.5 108,-0.5"/>
<text text-anchor="middle" x="166" y="-8.5" font-family="Helvetica,sans-Serif" font-size="10.00">print_system_meminfo</text>
</a>
</g>
<!-- Node1&#45;&gt;Node6 -->
<g id="edge14" class="edge"><title>Node1&#45;&gt;Node6</title>
<path fill="none" stroke="midnightblue" d="M55.4715,-53.8375C67.8471,-46.1671 83.3223,-37.3201 98,-31 106.251,-27.4473 115.325,-24.2945 124.083,-21.6023"/>
<polygon fill="midnightblue" stroke="midnightblue" points="53.2488,-51.1024 46.6765,-59.4124 56.9965,-57.0147 53.2488,-51.1024"/>
</g>
<!-- Node2&#45;&gt;Node3 -->
<g id="edge4" class="edge"><title>Node2&#45;&gt;Node3</title>
<path fill="none" stroke="midnightblue" d="M205.767,-114.935C215.081,-111.488 224.93,-107.717 234,-104 251.991,-96.6266 272.033,-87.4917 286.87,-80.5479"/>
<polygon fill="midnightblue" stroke="midnightblue" points="204.499,-111.672 196.31,-118.395 206.904,-118.246 204.499,-111.672"/>
</g>
<!-- Node4 -->
<g id="node7" class="node"><title>Node4</title>
<a xlink:href="../../d0/d91/b2g-info_8cpp.html#a217dbf8b442f20279ea00b898af96f52" target="_top" xlink:title="main">
<polygon fill="white" stroke="black" points="384,-59.5 384,-80.5 422,-80.5 422,-59.5 384,-59.5"/>
<text text-anchor="middle" x="403" y="-67.5" font-family="Helvetica,sans-Serif" font-size="10.00">main</text>
</a>
</g>
<!-- Node3&#45;&gt;Node4 -->
<g id="edge6" class="edge"><title>Node3&#45;&gt;Node4</title>
<path fill="none" stroke="midnightblue" d="M357.632,-70C366.998,-70 376.278,-70 383.981,-70"/>
<polygon fill="midnightblue" stroke="midnightblue" points="357.505,-66.5001 347.505,-70 357.505,-73.5001 357.505,-66.5001"/>
</g>
<!-- Node5&#45;&gt;Node3 -->
<g id="edge12" class="edge"><title>Node5&#45;&gt;Node3</title>
<path fill="none" stroke="midnightblue" d="M223.424,-58.6298C239.213,-60.7276 255.956,-62.9522 270.405,-64.872"/>
<polygon fill="midnightblue" stroke="midnightblue" points="223.594,-55.1216 213.22,-57.274 222.672,-62.0607 223.594,-55.1216"/>
</g>
<!-- Node6&#45;&gt;Node3 -->
<g id="edge16" class="edge"><title>Node6&#45;&gt;Node3</title>
<path fill="none" stroke="midnightblue" d="M216.623,-24.7023C222.539,-26.6522 228.442,-28.7622 234,-31 254.149,-39.1127 276.068,-50.88 290.976,-59.3648"/>
<polygon fill="midnightblue" stroke="midnightblue" points="217.302,-21.2466 206.712,-21.5777 215.197,-27.9227 217.302,-21.2466"/>
</g>
</g>
</svg>
