<?xml version="1.0" encoding="UTF-8" standalone="no"?>
<!DOCTYPE svg PUBLIC "-//W3C//DTD SVG 1.1//EN"
 "http://www.w3.org/Graphics/SVG/1.1/DTD/svg11.dtd">
<!-- Generated by graphviz version 2.26.3 (20100126.1600)
 -->
<!-- Title: G Pages: 1 -->
<svg width="212pt" height="146pt"
 viewBox="0.00 0.00 212.00 146.00" xmlns="http://www.w3.org/2000/svg" xmlns:xlink="http://www.w3.org/1999/xlink">
<g id="graph1" class="graph" transform="scale(1 1) rotate(0) translate(4 142)">
<title>G</title>
<polygon fill="white" stroke="white" points="-4,5 -4,-142 209,-142 209,5 -4,5"/>
<!-- Node1 -->
<g id="node1" class="node"><title>Node1</title>
<polygon fill="#bfbfbf" stroke="black" points="42,-0.5 42,-21.5 162,-21.5 162,-0.5 42,-0.5"/>
<text text-anchor="middle" x="102" y="-8.5" font-family="Helvetica,sans-Serif" font-size="10.00">mozilla::dom::Gamepad</text>
</g>
<!-- Node2 -->
<g id="node2" class="node"><title>Node2</title>
<a xlink:href="../../df/d18/interfacens_i_d_o_m_gamepad.html" target="_top" xlink:title="nsIDOMGamepad">
<polygon fill="white" stroke="black" points="-0.5,-58.5 -0.5,-79.5 94.5,-79.5 94.5,-58.5 -0.5,-58.5"/>
<text text-anchor="middle" x="47" y="-66.5" font-family="Helvetica,sans-Serif" font-size="10.00">nsIDOMGamepad</text>
</a>
</g>
<!-- Node2&#45;&gt;Node1 -->
<g id="edge2" class="edge"><title>Node2&#45;&gt;Node1</title>
<path fill="none" stroke="midnightblue" d="M64.2302,-50.8299C73.3546,-41.2078 84.2405,-29.7282 91.9761,-21.5707"/>
<polygon fill="midnightblue" stroke="midnightblue" points="61.4291,-48.6973 57.0878,-58.3619 66.5085,-53.514 61.4291,-48.6973"/>
</g>
<!-- Node3 -->
<g id="node4" class="node"><title>Node3</title>
<a xlink:href="../../d4/d6a/classns_i_supports.html" target="_top" xlink:title="nsISupports">
<polygon fill="white" stroke="black" points="12.5,-116.5 12.5,-137.5 81.5,-137.5 81.5,-116.5 12.5,-116.5"/>
<text text-anchor="middle" x="47" y="-124.5" font-family="Helvetica,sans-Serif" font-size="10.00">nsISupports</text>
</a>
</g>
<!-- Node3&#45;&gt;Node2 -->
<g id="edge4" class="edge"><title>Node3&#45;&gt;Node2</title>
<path fill="none" stroke="midnightblue" d="M40.4952,-106.191C39.9414,-97.1684 40.3257,-86.9941 41.6479,-79.5707"/>
<polygon fill="midnightblue" stroke="midnightblue" points="37.0431,-106.814 41.6359,-116.362 43.9995,-106.034 37.0431,-106.814"/>
</g>
<!-- Node3&#45;&gt;Node2 -->
<g id="edge6" class="edge"><title>Node3&#45;&gt;Node2</title>
<path fill="none" stroke="midnightblue" d="M53.5048,-106.191C54.0586,-97.1684 53.6743,-86.9941 52.3521,-79.5707"/>
<polygon fill="midnightblue" stroke="midnightblue" points="50.0005,-106.034 52.3641,-116.362 56.9569,-106.814 50.0005,-106.034"/>
</g>
<!-- Node4 -->
<g id="node7" class="node"><title>Node4</title>
<a xlink:href="../../d0/d7e/classns_wrapper_cache.html" target="_top" xlink:title="nsWrapperCache">
<polygon fill="white" stroke="black" points="112,-58.5 112,-79.5 204,-79.5 204,-58.5 112,-58.5"/>
<text text-anchor="middle" x="158" y="-66.5" font-family="Helvetica,sans-Serif" font-size="10.00">nsWrapperCache</text>
</a>
</g>
<!-- Node4&#45;&gt;Node1 -->
<g id="edge8" class="edge"><title>Node4&#45;&gt;Node1</title>
<path fill="none" stroke="midnightblue" d="M140.735,-51.118C131.388,-41.4377 120.161,-29.8098 112.206,-21.5707"/>
<polygon fill="midnightblue" stroke="midnightblue" points="138.265,-53.599 147.729,-58.3619 143.301,-48.7368 138.265,-53.599"/>
</g>
</g>
</svg>
