<?xml version="1.0" encoding="UTF-8" standalone="no"?>
<!DOCTYPE svg PUBLIC "-//W3C//DTD SVG 1.1//EN"
 "http://www.w3.org/Graphics/SVG/1.1/DTD/svg11.dtd">
<!-- Generated by graphviz version 2.26.3 (20100126.1600)
 -->
<!-- Title: G Pages: 1 -->
<svg width="136pt" height="262pt"
 viewBox="0.00 0.00 136.00 262.00" xmlns="http://www.w3.org/2000/svg" xmlns:xlink="http://www.w3.org/1999/xlink">
<g id="graph1" class="graph" transform="scale(1 1) rotate(0) translate(4 258)">
<title>G</title>
<polygon fill="white" stroke="white" points="-4,5 -4,-258 133,-258 133,5 -4,5"/>
<!-- Node1 -->
<g id="node1" class="node"><title>Node1</title>
<polygon fill="#bfbfbf" stroke="black" points="-0.5,-116.5 -0.5,-137.5 128.5,-137.5 128.5,-116.5 -0.5,-116.5"/>
<text text-anchor="middle" x="64" y="-124.5" font-family="Helvetica,sans-Serif" font-size="10.00">nsIWebProgressListener2</text>
</g>
<!-- Node4 -->
<g id="node9" class="node"><title>Node4</title>
<a xlink:href="../../d3/dc5/interfacens_i_transfer.html" target="_top" xlink:title="nsITransfer">
<polygon fill="white" stroke="black" points="31,-58.5 31,-79.5 97,-79.5 97,-58.5 31,-58.5"/>
<text text-anchor="middle" x="64" y="-66.5" font-family="Helvetica,sans-Serif" font-size="10.00">nsITransfer</text>
</a>
</g>
<!-- Node1&#45;&gt;Node4 -->
<g id="edge10" class="edge"><title>Node1&#45;&gt;Node4</title>
<path fill="none" stroke="midnightblue" d="M57.4952,-106.191C56.9414,-97.1684 57.3257,-86.9941 58.6479,-79.5707"/>
<polygon fill="midnightblue" stroke="midnightblue" points="54.0431,-106.814 58.6359,-116.362 60.9995,-106.034 54.0431,-106.814"/>
</g>
<!-- Node1&#45;&gt;Node4 -->
<g id="edge16" class="edge"><title>Node1&#45;&gt;Node4</title>
<path fill="none" stroke="midnightblue" d="M70.5048,-106.191C71.0586,-97.1684 70.6743,-86.9941 69.3521,-79.5707"/>
<polygon fill="midnightblue" stroke="midnightblue" points="67.0005,-106.034 69.3641,-116.362 73.9569,-106.814 67.0005,-106.034"/>
</g>
<!-- Node2 -->
<g id="node2" class="node"><title>Node2</title>
<a xlink:href="../../d5/db0/interfacens_i_web_progress_listener.html" target="_top" xlink:title="nsIWebProgressListener">
<polygon fill="white" stroke="black" points="2,-174.5 2,-195.5 126,-195.5 126,-174.5 2,-174.5"/>
<text text-anchor="middle" x="64" y="-182.5" font-family="Helvetica,sans-Serif" font-size="10.00">nsIWebProgressListener</text>
</a>
</g>
<!-- Node2&#45;&gt;Node1 -->
<g id="edge2" class="edge"><title>Node2&#45;&gt;Node1</title>
<path fill="none" stroke="midnightblue" d="M57.4952,-164.191C56.9414,-155.168 57.3257,-144.994 58.6479,-137.571"/>
<polygon fill="midnightblue" stroke="midnightblue" points="54.0431,-164.814 58.6359,-174.362 60.9995,-164.034 54.0431,-164.814"/>
</g>
<!-- Node2&#45;&gt;Node1 -->
<g id="edge8" class="edge"><title>Node2&#45;&gt;Node1</title>
<path fill="none" stroke="midnightblue" d="M70.5048,-164.191C71.0586,-155.168 70.6743,-144.994 69.3521,-137.571"/>
<polygon fill="midnightblue" stroke="midnightblue" points="67.0005,-164.034 69.3641,-174.362 73.9569,-164.814 67.0005,-164.034"/>
</g>
<!-- Node3 -->
<g id="node4" class="node"><title>Node3</title>
<a xlink:href="../../d4/d6a/classns_i_supports.html" target="_top" xlink:title="nsISupports">
<polygon fill="white" stroke="black" points="29.5,-232.5 29.5,-253.5 98.5,-253.5 98.5,-232.5 29.5,-232.5"/>
<text text-anchor="middle" x="64" y="-240.5" font-family="Helvetica,sans-Serif" font-size="10.00">nsISupports</text>
</a>
</g>
<!-- Node3&#45;&gt;Node2 -->
<g id="edge4" class="edge"><title>Node3&#45;&gt;Node2</title>
<path fill="none" stroke="midnightblue" d="M57.4952,-222.191C56.9414,-213.168 57.3257,-202.994 58.6479,-195.571"/>
<polygon fill="midnightblue" stroke="midnightblue" points="54.0431,-222.814 58.6359,-232.362 60.9995,-222.034 54.0431,-222.814"/>
</g>
<!-- Node3&#45;&gt;Node2 -->
<g id="edge6" class="edge"><title>Node3&#45;&gt;Node2</title>
<path fill="none" stroke="midnightblue" d="M70.5048,-222.191C71.0586,-213.168 70.6743,-202.994 69.3521,-195.571"/>
<polygon fill="midnightblue" stroke="midnightblue" points="67.0005,-222.034 69.3641,-232.362 73.9569,-222.814 67.0005,-222.034"/>
</g>
<!-- Node5 -->
<g id="node11" class="node"><title>Node5</title>
<a xlink:href="../../d1/d8a/interfacens_i_download.html" target="_top" xlink:title="nsIDownload">
<polygon fill="white" stroke="black" points="27,-0.5 27,-21.5 101,-21.5 101,-0.5 27,-0.5"/>
<text text-anchor="middle" x="64" y="-8.5" font-family="Helvetica,sans-Serif" font-size="10.00">nsIDownload</text>
</a>
</g>
<!-- Node4&#45;&gt;Node5 -->
<g id="edge12" class="edge"><title>Node4&#45;&gt;Node5</title>
<path fill="none" stroke="midnightblue" d="M57.4952,-48.1906C56.9414,-39.1684 57.3257,-28.9941 58.6479,-21.5707"/>
<polygon fill="midnightblue" stroke="midnightblue" points="54.0431,-48.8143 58.6359,-58.3619 60.9995,-48.0341 54.0431,-48.8143"/>
</g>
<!-- Node4&#45;&gt;Node5 -->
<g id="edge14" class="edge"><title>Node4&#45;&gt;Node5</title>
<path fill="none" stroke="midnightblue" d="M70.5048,-48.1906C71.0586,-39.1684 70.6743,-28.9941 69.3521,-21.5707"/>
<polygon fill="midnightblue" stroke="midnightblue" points="67.0005,-48.0341 69.3641,-58.3619 73.9569,-48.8143 67.0005,-48.0341"/>
</g>
</g>
</svg>
