<?xml version="1.0" encoding="UTF-8" standalone="no"?>
<!DOCTYPE svg PUBLIC "-//W3C//DTD SVG 1.1//EN"
 "http://www.w3.org/Graphics/SVG/1.1/DTD/svg11.dtd">
<!-- Generated by graphviz version 2.26.3 (20100126.1600)
 -->
<!-- Title: G Pages: 1 -->
<!--zoomable 630 -->
<svg id="main" version="1.1" xmlns="http://www.w3.org/2000/svg" xmlns:xlink="http://www.w3.org/1999/xlink" xml:space="preserve" onload="init(evt)">
        <defs>
                <circle id="rim" cx="0" cy="0" r="7"/>
                <circle id="rim2" cx="0" cy="0" r="3.5"/>
                <g id="zoomPlus">
                        <use xlink:href="#rim" fill="#404040">
                                <set attributeName="fill" to="#808080" begin="zoomplus.mouseover" end="zoomplus.mouseout"/>
                        </use>
                        <path d="M-4,0h8M0,-4v8" fill="none" stroke="white" stroke-width="1.5" pointer-events="none"/>
                </g>
                <g id="zoomMin">
                        <use xlink:href="#rim" fill="#404040">
                                <set attributeName="fill" to="#808080" begin="zoomminus.mouseover" end="zoomminus.mouseout"/>
                        </use>
                        <path d="M-4,0h8" fill="none" stroke="white" stroke-width="1.5" pointer-events="none"/>
                </g>
                <g id="dirArrow">
                        <path fill="none" stroke="white" stroke-width="1.5" d="M0,-3.0v7 M-2.5,-0.5L0,-3.0L2.5,-0.5"/>
                </g>
               <g id="resetDef">
                       <use xlink:href="#rim2" fill="#404040">
                               <set attributeName="fill" to="#808080" begin="reset.mouseover" end="reset.mouseout"/>
                       </use>
               </g>
        </defs>

<script type="text/javascript">
var viewWidth = 738;
var viewHeight = 630;
var sectionId = 'dynsection-5';
</script>
<script xlink:href="../../svgpan.js"/>
<svg id="graph" class="graph">
<g id="viewport">
<title>G</title>
<polygon fill="white" stroke="white" points="-4,5 -4,-626 735,-626 735,5 -4,5"/>
<!-- Node1 -->
<g id="node1" class="node"><title>Node1</title>
<polygon fill="#bfbfbf" stroke="black" points="0.5,-300.5 0.5,-321.5 81.5,-321.5 81.5,-300.5 0.5,-300.5"/>
<text text-anchor="middle" x="41" y="-308.5" font-family="Helvetica,sans-Serif" font-size="10.00">do_GetService</text>
</g>
<!-- Node2 -->
<g id="node3" class="node"><title>Node2</title>
<a xlink:href="../../d5/d15/ns_obj_c_exceptions_8h.html#a2549a178226b79d36766691780eff55b" target="_top" xlink:title="__attribute__">
<polygon fill="white" stroke="black" points="176.5,-600.5 176.5,-621.5 249.5,-621.5 249.5,-600.5 176.5,-600.5"/>
<text text-anchor="middle" x="213" y="-608.5" font-family="Helvetica,sans-Serif" font-size="10.00">__attribute__</text>
</a>
</g>
<!-- Node1&#45;&gt;Node2 -->
<g id="edge2" class="edge"><title>Node1&#45;&gt;Node2</title>
<path fill="none" stroke="midnightblue" d="M43.8878,-331.75C52.4517,-390.285 79.5326,-554.806 118,-591 133.467,-605.553 156.722,-610.625 176.352,-612.024"/>
<polygon fill="midnightblue" stroke="midnightblue" points="47.306,-330.929 42.424,-321.526 40.3766,-331.921 47.306,-330.929"/>
</g>
<!-- Node3 -->
<g id="node5" class="node"><title>Node3</title>
<a xlink:href="../../da/d8e/namespacemozilla_1_1gfx.html#a98d6f6d156eb0cebdb5674a9e41f89b2" target="_top" xlink:title="mozilla::gfx::LogFailure">
<polygon fill="white" stroke="black" points="154,-560.5 154,-581.5 272,-581.5 272,-560.5 154,-560.5"/>
<text text-anchor="middle" x="213" y="-568.5" font-family="Helvetica,sans-Serif" font-size="10.00">mozilla::gfx::LogFailure</text>
</a>
</g>
<!-- Node1&#45;&gt;Node3 -->
<g id="edge4" class="edge"><title>Node1&#45;&gt;Node3</title>
<path fill="none" stroke="midnightblue" d="M44.8557,-331.544C55.1081,-383.992 84.5551,-520.833 118,-551 127.887,-559.918 140.719,-565.237 153.737,-568.328"/>
<polygon fill="midnightblue" stroke="midnightblue" points="48.2887,-330.861 42.9648,-321.701 41.4145,-332.182 48.2887,-330.861"/>
</g>
<!-- Node4 -->
<g id="node7" class="node"><title>Node4</title>
<a xlink:href="../../d9/d5b/ns_net_util_8h.html#a38b24c6a4c4f082497d4879d0953be54" target="_top" xlink:title="net_EnsurePSMInit">
<polygon fill="white" stroke="black" points="162.5,-520.5 162.5,-541.5 263.5,-541.5 263.5,-520.5 162.5,-520.5"/>
<text text-anchor="middle" x="213" y="-528.5" font-family="Helvetica,sans-Serif" font-size="10.00">net_EnsurePSMInit</text>
</a>
</g>
<!-- Node1&#45;&gt;Node4 -->
<g id="edge6" class="edge"><title>Node1&#45;&gt;Node4</title>
<path fill="none" stroke="midnightblue" d="M42.6438,-331.835C47.048,-372.826 62.8475,-464.035 118,-511 130.319,-521.49 146.758,-526.925 162.495,-529.621"/>
<polygon fill="midnightblue" stroke="midnightblue" points="46.1096,-331.308 41.6805,-321.684 39.1409,-331.97 46.1096,-331.308"/>
</g>
<!-- Node5 -->
<g id="node9" class="node"><title>Node5</title>
<a xlink:href="../../d9/d5b/ns_net_util_8h.html#a53b3875252c52701a35c7387f7b10f72" target="_top" xlink:title="NS_BackgroundInputStream">
<polygon fill="white" stroke="black" points="142.5,-480.5 142.5,-501.5 283.5,-501.5 283.5,-480.5 142.5,-480.5"/>
<text text-anchor="middle" x="213" y="-488.5" font-family="Helvetica,sans-Serif" font-size="10.00">NS_BackgroundInputStream</text>
</a>
</g>
<!-- Node1&#45;&gt;Node5 -->
<g id="edge8" class="edge"><title>Node1&#45;&gt;Node5</title>
<path fill="none" stroke="midnightblue" d="M44.7955,-331.473C52.3101,-365.947 72.4658,-435.303 118,-471 125.163,-476.615 133.531,-480.752 142.277,-483.783"/>
<polygon fill="midnightblue" stroke="midnightblue" points="48.2087,-330.694 42.7838,-321.593 41.3495,-332.091 48.2087,-330.694"/>
</g>
<!-- Node6 -->
<g id="node11" class="node"><title>Node6</title>
<a xlink:href="../../d9/d5b/ns_net_util_8h.html#aa6be74547cf3e51620c7d04f3832d058" target="_top" xlink:title="NS_BackgroundOutputStream">
<polygon fill="white" stroke="black" points="138.5,-440.5 138.5,-461.5 287.5,-461.5 287.5,-440.5 138.5,-440.5"/>
<text text-anchor="middle" x="213" y="-448.5" font-family="Helvetica,sans-Serif" font-size="10.00">NS_BackgroundOutputStream</text>
</a>
</g>
<!-- Node1&#45;&gt;Node6 -->
<g id="edge10" class="edge"><title>Node1&#45;&gt;Node6</title>
<path fill="none" stroke="midnightblue" d="M48.2493,-331.324C59.0462,-358.516 82.025,-406.182 118,-431 124.243,-435.307 131.227,-438.718 138.498,-441.414"/>
<polygon fill="midnightblue" stroke="midnightblue" points="51.4102,-329.788 44.5918,-321.679 44.865,-332.27 51.4102,-329.788"/>
</g>
<!-- Node7 -->
<g id="node13" class="node"><title>Node7</title>
<a xlink:href="../../d9/d5b/ns_net_util_8h.html#a5760ce0b4c26539fabbe41a3b93f9f6d" target="_top" xlink:title="NS_CheckIsJavaCompatibleURLString">
<polygon fill="white" stroke="black" points="118.5,-400.5 118.5,-421.5 307.5,-421.5 307.5,-400.5 118.5,-400.5"/>
<text text-anchor="middle" x="213" y="-408.5" font-family="Helvetica,sans-Serif" font-size="10.00">NS_CheckIsJavaCompatibleURLString</text>
</a>
</g>
<!-- Node1&#45;&gt;Node7 -->
<g id="edge12" class="edge"><title>Node1&#45;&gt;Node7</title>
<path fill="none" stroke="midnightblue" d="M54.022,-330.06C67.7337,-348.592 91.048,-376.065 118,-391 124.929,-394.839 132.516,-397.943 140.286,-400.452"/>
<polygon fill="midnightblue" stroke="midnightblue" points="56.7565,-327.867 48.0883,-321.775 51.0655,-331.943 56.7565,-327.867"/>
</g>
<!-- Node8 -->
<g id="node15" class="node"><title>Node8</title>
<a xlink:href="../../d6/d19/ns_prompt_utils_8h.html#a84baddeb243f8c5f866ff8abc2affb5a" target="_top" xlink:title="NS_GetAuthHostPort">
<polygon fill="white" stroke="black" points="157.5,-360.5 157.5,-381.5 268.5,-381.5 268.5,-360.5 157.5,-360.5"/>
<text text-anchor="middle" x="213" y="-368.5" font-family="Helvetica,sans-Serif" font-size="10.00">NS_GetAuthHostPort</text>
</a>
</g>
<!-- Node1&#45;&gt;Node8 -->
<g id="edge14" class="edge"><title>Node1&#45;&gt;Node8</title>
<path fill="none" stroke="midnightblue" d="M67.0333,-326.786C81.5886,-335.025 100.313,-344.678 118,-351 130.379,-355.425 144.034,-359.01 157.038,-361.857"/>
<polygon fill="midnightblue" stroke="midnightblue" points="68.5308,-323.608 58.1233,-321.625 65.0223,-329.666 68.5308,-323.608"/>
</g>
<!-- Node10 -->
<g id="node19" class="node"><title>Node10</title>
<a xlink:href="../../d9/d5b/ns_net_util_8h.html#a58d68c2a0f09fac84734b69c7c48a126" target="_top" xlink:title="NS_GetContentDispositionFromHeader">
<polygon fill="white" stroke="black" points="118.5,-320.5 118.5,-341.5 307.5,-341.5 307.5,-320.5 118.5,-320.5"/>
<text text-anchor="middle" x="213" y="-328.5" font-family="Helvetica,sans-Serif" font-size="10.00">NS_GetContentDispositionFromHeader</text>
</a>
</g>
<!-- Node1&#45;&gt;Node10 -->
<g id="edge18" class="edge"><title>Node1&#45;&gt;Node10</title>
<path fill="none" stroke="midnightblue" d="M91.9993,-316.93C101.722,-318.061 112.164,-319.275 122.693,-320.499"/>
<polygon fill="midnightblue" stroke="midnightblue" points="92.099,-313.418 81.7616,-315.74 91.2904,-320.371 92.099,-313.418"/>
</g>
<!-- Node11 -->
<g id="node21" class="node"><title>Node11</title>
<a xlink:href="../../d9/d5b/ns_net_util_8h.html#a643048f95610b14587ef8139aeaa088c" target="_top" xlink:title="NS_GetFilenameFromDisposition">
<polygon fill="white" stroke="black" points="131.5,-280.5 131.5,-301.5 294.5,-301.5 294.5,-280.5 131.5,-280.5"/>
<text text-anchor="middle" x="213" y="-288.5" font-family="Helvetica,sans-Serif" font-size="10.00">NS_GetFilenameFromDisposition</text>
</a>
</g>
<!-- Node1&#45;&gt;Node11 -->
<g id="edge20" class="edge"><title>Node1&#45;&gt;Node11</title>
<path fill="none" stroke="midnightblue" d="M91.8752,-305.084C104.279,-303.642 117.861,-302.063 131.301,-300.5"/>
<polygon fill="midnightblue" stroke="midnightblue" points="91.2904,-301.629 81.7616,-306.26 92.099,-308.582 91.2904,-301.629"/>
</g>
<!-- Node12 -->
<g id="node23" class="node"><title>Node12</title>
<a xlink:href="../../d3/d57/ns_directory_service_utils_8h.html#a78c0a2e8b7d68972b461fdc730fa09bb" target="_top" xlink:title="NS_GetSpecialDirectory">
<polygon fill="white" stroke="black" points="151,-240.5 151,-261.5 275,-261.5 275,-240.5 151,-240.5"/>
<text text-anchor="middle" x="213" y="-248.5" font-family="Helvetica,sans-Serif" font-size="10.00">NS_GetSpecialDirectory</text>
</a>
</g>
<!-- Node1&#45;&gt;Node12 -->
<g id="edge22" class="edge"><title>Node1&#45;&gt;Node12</title>
<path fill="none" stroke="midnightblue" d="M67.0333,-295.214C81.5886,-286.975 100.313,-277.322 118,-271 128.475,-267.256 139.863,-264.113 150.997,-261.51"/>
<polygon fill="midnightblue" stroke="midnightblue" points="65.0223,-292.334 58.1233,-300.375 68.5308,-298.392 65.0223,-292.334"/>
</g>
<!-- Node14 -->
<g id="node27" class="node"><title>Node14</title>
<a xlink:href="../../d9/d5b/ns_net_util_8h.html#ad7f2cafc859549af25ea4b37366b67d6" target="_top" xlink:title="NS_LinkRedirectChannels">
<polygon fill="white" stroke="black" points="147,-200.5 147,-221.5 279,-221.5 279,-200.5 147,-200.5"/>
<text text-anchor="middle" x="213" y="-208.5" font-family="Helvetica,sans-Serif" font-size="10.00">NS_LinkRedirectChannels</text>
</a>
</g>
<!-- Node1&#45;&gt;Node14 -->
<g id="edge26" class="edge"><title>Node1&#45;&gt;Node14</title>
<path fill="none" stroke="midnightblue" d="M54.022,-291.94C67.7337,-273.408 91.048,-245.935 118,-231 126.846,-226.099 136.763,-222.396 146.765,-219.6"/>
<polygon fill="midnightblue" stroke="midnightblue" points="51.0655,-290.057 48.0883,-300.225 56.7565,-294.133 51.0655,-290.057"/>
</g>
<!-- Node15 -->
<g id="node29" class="node"><title>Node15</title>
<a xlink:href="../../d9/d5b/ns_net_util_8h.html#a58173f1a876e21abafe713d162a066e5" target="_top" xlink:title="NS_MakeRandomInvalidURLString">
<polygon fill="white" stroke="black" points="127.5,-160.5 127.5,-181.5 298.5,-181.5 298.5,-160.5 127.5,-160.5"/>
<text text-anchor="middle" x="213" y="-168.5" font-family="Helvetica,sans-Serif" font-size="10.00">NS_MakeRandomInvalidURLString</text>
</a>
</g>
<!-- Node1&#45;&gt;Node15 -->
<g id="edge28" class="edge"><title>Node1&#45;&gt;Node15</title>
<path fill="none" stroke="midnightblue" d="M48.2493,-290.676C59.0462,-263.484 82.025,-215.818 118,-191 123.549,-187.172 129.684,-184.051 136.085,-181.511"/>
<polygon fill="midnightblue" stroke="midnightblue" points="44.865,-289.73 44.5918,-300.321 51.4102,-292.212 44.865,-289.73"/>
</g>
<!-- Node16 -->
<g id="node31" class="node"><title>Node16</title>
<a xlink:href="../../d9/d5b/ns_net_util_8h.html#a68f551dd8f38b53935c2b70702a3294b" target="_top" xlink:title="NS_NewProxyInfo">
<polygon fill="white" stroke="black" points="164,-120.5 164,-141.5 262,-141.5 262,-120.5 164,-120.5"/>
<text text-anchor="middle" x="213" y="-128.5" font-family="Helvetica,sans-Serif" font-size="10.00">NS_NewProxyInfo</text>
</a>
</g>
<!-- Node1&#45;&gt;Node16 -->
<g id="edge30" class="edge"><title>Node1&#45;&gt;Node16</title>
<path fill="none" stroke="midnightblue" d="M44.7955,-290.527C52.3101,-256.053 72.4658,-186.697 118,-151 130.999,-140.809 147.968,-135.49 163.961,-132.806"/>
<polygon fill="midnightblue" stroke="midnightblue" points="41.3495,-289.909 42.7838,-300.407 48.2087,-291.306 41.3495,-289.909"/>
</g>
<!-- Node17 -->
<g id="node33" class="node"><title>Node17</title>
<a xlink:href="../../d9/d5b/ns_net_util_8h.html#a06419e067bab34382808c3f1744a869a" target="_top" xlink:title="NS_ShouldCheckAppCache">
<polygon fill="white" stroke="black" points="143,-80.5 143,-101.5 283,-101.5 283,-80.5 143,-80.5"/>
<text text-anchor="middle" x="213" y="-88.5" font-family="Helvetica,sans-Serif" font-size="10.00">NS_ShouldCheckAppCache</text>
</a>
</g>
<!-- Node1&#45;&gt;Node17 -->
<g id="edge32" class="edge"><title>Node1&#45;&gt;Node17</title>
<path fill="none" stroke="midnightblue" d="M42.6438,-290.165C47.048,-249.174 62.8475,-157.965 118,-111 125.186,-104.881 133.774,-100.482 142.807,-97.3428"/>
<polygon fill="midnightblue" stroke="midnightblue" points="39.1409,-290.03 41.6805,-300.316 46.1096,-290.692 39.1409,-290.03"/>
</g>
<!-- Node18 -->
<g id="node35" class="node"><title>Node18</title>
<a xlink:href="../../d9/d5b/ns_net_util_8h.html#ad802843c559750a17594d665a626397a" target="_top" xlink:title="NS_StringToACE">
<polygon fill="white" stroke="black" points="166,-40.5 166,-61.5 260,-61.5 260,-40.5 166,-40.5"/>
<text text-anchor="middle" x="213" y="-48.5" font-family="Helvetica,sans-Serif" font-size="10.00">NS_StringToACE</text>
</a>
</g>
<!-- Node1&#45;&gt;Node18 -->
<g id="edge34" class="edge"><title>Node1&#45;&gt;Node18</title>
<path fill="none" stroke="midnightblue" d="M44.8557,-290.456C55.1081,-238.008 84.5551,-101.167 118,-71 130.891,-59.3724 148.787,-53.8638 165.575,-51.4326"/>
<polygon fill="midnightblue" stroke="midnightblue" points="41.4145,-289.818 42.9648,-300.299 48.2887,-291.139 41.4145,-289.818"/>
</g>
<!-- Node19 -->
<g id="node37" class="node"><title>Node19</title>
<a xlink:href="../../d9/d5b/ns_net_util_8h.html#a9d71d6567bd5ed1f6646885ab03104b5" target="_top" xlink:title="NS_WrapAuthPrompt">
<polygon fill="white" stroke="black" points="157.5,-0.5 157.5,-21.5 268.5,-21.5 268.5,-0.5 157.5,-0.5"/>
<text text-anchor="middle" x="213" y="-8.5" font-family="Helvetica,sans-Serif" font-size="10.00">NS_WrapAuthPrompt</text>
</a>
</g>
<!-- Node1&#45;&gt;Node19 -->
<g id="edge36" class="edge"><title>Node1&#45;&gt;Node19</title>
<path fill="none" stroke="midnightblue" d="M43.8878,-290.25C52.4517,-231.715 79.5326,-67.1944 118,-31 128.679,-20.9517 143.072,-15.4232 157.421,-12.503"/>
<polygon fill="midnightblue" stroke="midnightblue" points="40.3766,-290.079 42.424,-300.474 47.306,-291.071 40.3766,-290.079"/>
</g>
<!-- Node9 -->
<g id="node17" class="node"><title>Node9</title>
<a xlink:href="../../d6/d19/ns_prompt_utils_8h.html#a8c673bcae87c6084c845bb920dd83396" target="_top" xlink:title="NS_GetAuthKey">
<polygon fill="white" stroke="black" points="414.5,-360.5 414.5,-381.5 503.5,-381.5 503.5,-360.5 414.5,-360.5"/>
<text text-anchor="middle" x="459" y="-368.5" font-family="Helvetica,sans-Serif" font-size="10.00">NS_GetAuthKey</text>
</a>
</g>
<!-- Node8&#45;&gt;Node9 -->
<g id="edge16" class="edge"><title>Node8&#45;&gt;Node9</title>
<path fill="none" stroke="midnightblue" d="M278.588,-371C321.503,-371 376.439,-371 414.355,-371"/>
<polygon fill="midnightblue" stroke="midnightblue" points="278.514,-367.5 268.514,-371 278.514,-374.5 278.514,-367.5"/>
</g>
<!-- Node13 -->
<g id="node25" class="node"><title>Node13</title>
<a xlink:href="../../d9/d12/classmozilla_1_1_media_engine_web_r_t_c_video_source.html#af081282f9d64525af600c3a9e7831851" target="_top" xlink:title="mozilla::MediaEngineWebRTCVideoSource::Run">
<polygon fill="white" stroke="black" points="344,-240.5 344,-261.5 574,-261.5 574,-240.5 344,-240.5"/>
<text text-anchor="middle" x="459" y="-248.5" font-family="Helvetica,sans-Serif" font-size="10.00">mozilla::MediaEngineWebRTCVideoSource::Run</text>
</a>
</g>
<!-- Node12&#45;&gt;Node13 -->
<g id="edge24" class="edge"><title>Node12&#45;&gt;Node13</title>
<path fill="none" stroke="midnightblue" d="M285.101,-251C303.512,-251 323.77,-251 343.754,-251"/>
<polygon fill="midnightblue" stroke="midnightblue" points="285.076,-247.5 275.076,-251 285.076,-254.5 285.076,-247.5"/>
</g>
<!-- Node20 -->
<g id="node39" class="node"><title>Node20</title>
<a xlink:href="../../d9/d5b/ns_net_util_8h.html#aea4d73be216b002e40efc5ed0e641f7c" target="_top" xlink:title="NS_QueryAuthPrompt2">
<polygon fill="white" stroke="black" points="399.5,-0.5 399.5,-21.5 518.5,-21.5 518.5,-0.5 399.5,-0.5"/>
<text text-anchor="middle" x="459" y="-8.5" font-family="Helvetica,sans-Serif" font-size="10.00">NS_QueryAuthPrompt2</text>
</a>
</g>
<!-- Node19&#45;&gt;Node20 -->
<g id="edge38" class="edge"><title>Node19&#45;&gt;Node20</title>
<path fill="none" stroke="midnightblue" d="M278.835,-11C316.342,-11 362.969,-11 399.391,-11"/>
<polygon fill="midnightblue" stroke="midnightblue" points="278.514,-7.5001 268.514,-11 278.514,-14.5001 278.514,-7.5001"/>
</g>
<!-- Node21 -->
<g id="node41" class="node"><title>Node21</title>
<a xlink:href="../../d9/d5b/ns_net_util_8h.html#ad4a2a12d18b8f81a723cd027a512f643" target="_top" xlink:title="NS_QueryAuthPrompt2">
<polygon fill="white" stroke="black" points="610.5,-0.5 610.5,-21.5 729.5,-21.5 729.5,-0.5 610.5,-0.5"/>
<text text-anchor="middle" x="670" y="-8.5" font-family="Helvetica,sans-Serif" font-size="10.00">NS_QueryAuthPrompt2</text>
</a>
</g>
<!-- Node20&#45;&gt;Node21 -->
<g id="edge40" class="edge"><title>Node20&#45;&gt;Node21</title>
<path fill="none" stroke="midnightblue" d="M528.899,-11C555.205,-11 584.856,-11 610.164,-11"/>
<polygon fill="midnightblue" stroke="midnightblue" points="528.618,-7.5001 518.618,-11 528.618,-14.5001 528.618,-7.5001"/>
</g>
</g>
</svg>
        <g id="navigator" transform="translate(0 0)" fill="#404254">
                <rect fill="#f2f5e9" fill-opacity="0.5" stroke="#606060" stroke-width=".5" x="0" y="0" width="60" height="60"/>
                <use id="zoomplus" xlink:href="#zoomPlus" x="17" y="9" onmousedown="handleZoom(evt,'in')"/>
                <use id="zoomminus" xlink:href="#zoomMin" x="42" y="9" onmousedown="handleZoom(evt,'out')"/>
                <use id="reset" xlink:href="#resetDef" x="30" y="36" onmousedown="handleReset()"/>
                <g id="arrowUp" xlink:href="#dirArrow" transform="translate(30 24)" onmousedown="handlePan(0,-1)">
                  <use xlink:href="#rim" fill="#404040">
                        <set attributeName="fill" to="#808080" begin="arrowUp.mouseover" end="arrowUp.mouseout"/>
                  </use>
                  <path fill="none" stroke="white" stroke-width="1.5" d="M0,-3.0v7 M-2.5,-0.5L0,-3.0L2.5,-0.5"/>
                </g>
                <g id="arrowRight" xlink:href="#dirArrow" transform="rotate(90) translate(36 -43)" onmousedown="handlePan(1,0)">
                  <use xlink:href="#rim" fill="#404040">
                        <set attributeName="fill" to="#808080" begin="arrowRight.mouseover" end="arrowRight.mouseout"/>
                  </use>
                  <path fill="none" stroke="white" stroke-width="1.5" d="M0,-3.0v7 M-2.5,-0.5L0,-3.0L2.5,-0.5"/>
                </g>
                <g id="arrowDown" xlink:href="#dirArrow" transform="rotate(180) translate(-30 -48)" onmousedown="handlePan(0,1)">
                  <use xlink:href="#rim" fill="#404040">
                        <set attributeName="fill" to="#808080" begin="arrowDown.mouseover" end="arrowDown.mouseout"/>
                  </use>
                  <path fill="none" stroke="white" stroke-width="1.5" d="M0,-3.0v7 M-2.5,-0.5L0,-3.0L2.5,-0.5"/>
                </g>
                <g id="arrowLeft" xlink:href="#dirArrow" transform="rotate(270) translate(-36 17)" onmousedown="handlePan(-1,0)">
                  <use xlink:href="#rim" fill="#404040">
                        <set attributeName="fill" to="#808080" begin="arrowLeft.mouseover" end="arrowLeft.mouseout"/>
                  </use>
                  <path fill="none" stroke="white" stroke-width="1.5" d="M0,-3.0v7 M-2.5,-0.5L0,-3.0L2.5,-0.5"/>
                </g>
        </g>
</svg>
