<?xml version="1.0" encoding="UTF-8" standalone="no"?>
<!DOCTYPE svg PUBLIC "-//W3C//DTD SVG 1.1//EN"
 "http://www.w3.org/Graphics/SVG/1.1/DTD/svg11.dtd">
<!-- Generated by graphviz version 2.26.3 (20100126.1600)
 -->
<!-- Title: G Pages: 1 -->
<!--zoomable 90 -->
<svg id="main" version="1.1" xmlns="http://www.w3.org/2000/svg" xmlns:xlink="http://www.w3.org/1999/xlink" xml:space="preserve" onload="init(evt)">
        <defs>
                <circle id="rim" cx="0" cy="0" r="7"/>
                <circle id="rim2" cx="0" cy="0" r="3.5"/>
                <g id="zoomPlus">
                        <use xlink:href="#rim" fill="#404040">
                                <set attributeName="fill" to="#808080" begin="zoomplus.mouseover" end="zoomplus.mouseout"/>
                        </use>
                        <path d="M-4,0h8M0,-4v8" fill="none" stroke="white" stroke-width="1.5" pointer-events="none"/>
                </g>
                <g id="zoomMin">
                        <use xlink:href="#rim" fill="#404040">
                                <set attributeName="fill" to="#808080" begin="zoomminus.mouseover" end="zoomminus.mouseout"/>
                        </use>
                        <path d="M-4,0h8" fill="none" stroke="white" stroke-width="1.5" pointer-events="none"/>
                </g>
                <g id="dirArrow">
                        <path fill="none" stroke="white" stroke-width="1.5" d="M0,-3.0v7 M-2.5,-0.5L0,-3.0L2.5,-0.5"/>
                </g>
               <g id="resetDef">
                       <use xlink:href="#rim2" fill="#404040">
                               <set attributeName="fill" to="#808080" begin="reset.mouseover" end="reset.mouseout"/>
                       </use>
               </g>
        </defs>

<script type="text/javascript">
var viewWidth = 672;
var viewHeight = 90;
var sectionId = 'dynsection-7';
</script>
<script xlink:href="../../svgpan.js"/>
<svg id="graph" class="graph">
<g id="viewport">
<title>G</title>
<polygon fill="white" stroke="white" points="-4,5 -4,-86 669,-86 669,5 -4,5"/>
<!-- Node1 -->
<g id="node1" class="node"><title>Node1</title>
<polygon fill="#bfbfbf" stroke="black" points="0.5,-40.5 0.5,-61.5 239.5,-61.5 239.5,-40.5 0.5,-40.5"/>
<text text-anchor="middle" x="120" y="-48.5" font-family="Helvetica,sans-Serif" font-size="10.00">nsEventListenerManager::GetOnErrorEventHandler</text>
</g>
<!-- Node2 -->
<g id="node3" class="node"><title>Node2</title>
<a xlink:href="../../d9/d4f/classns_event_listener_manager.html#afc792dda3f8abfe9549ae87769662a76" target="_top" xlink:title="nsEventListenerManager::GetEventHandlerInternal">
<polygon fill="white" stroke="black" points="276,-60.5 276,-81.5 514,-81.5 514,-60.5 276,-60.5"/>
<text text-anchor="middle" x="395" y="-68.5" font-family="Helvetica,sans-Serif" font-size="10.00">nsEventListenerManager::GetEventHandlerInternal</text>
</a>
</g>
<!-- Node1&#45;&gt;Node2 -->
<g id="edge2" class="edge"><title>Node1&#45;&gt;Node2</title>
<path fill="none" stroke="midnightblue" d="M239.819,-59.7141C248.35,-60.3345 256.973,-60.9616 265.554,-61.5857"/>
<polygon fill="midnightblue" stroke="midnightblue" points="265.372,-65.0817 275.6,-62.3163 265.88,-58.1001 265.372,-65.0817"/>
</g>
<!-- Node3 -->
<g id="node5" class="node"><title>Node3</title>
<a xlink:href="../../d6/d7a/classns_event_handler.html#aa0b6d889cce762f2fbb77e0522ca959a" target="_top" xlink:title="nsEventHandler::OnErrorEventHandler">
<polygon fill="white" stroke="black" points="302.5,-20.5 302.5,-41.5 487.5,-41.5 487.5,-20.5 302.5,-20.5"/>
<text text-anchor="middle" x="395" y="-28.5" font-family="Helvetica,sans-Serif" font-size="10.00">nsEventHandler::OnErrorEventHandler</text>
</a>
</g>
<!-- Node1&#45;&gt;Node3 -->
<g id="edge4" class="edge"><title>Node1&#45;&gt;Node3</title>
<path fill="none" stroke="midnightblue" d="M239.819,-42.2859C257.363,-41.01 275.298,-39.7056 292.455,-38.4579"/>
<polygon fill="midnightblue" stroke="midnightblue" points="292.738,-41.9466 302.458,-37.7304 292.23,-34.965 292.738,-41.9466"/>
</g>
<!-- Node4 -->
<g id="node7" class="node"><title>Node4</title>
<a xlink:href="../../d6/d7a/classns_event_handler.html#a7f9cbe6e8316e1bdbd474a06ac3dcf16" target="_top" xlink:title="nsEventHandler::Ptr">
<polygon fill="white" stroke="black" points="554.5,-40.5 554.5,-61.5 659.5,-61.5 659.5,-40.5 554.5,-40.5"/>
<text text-anchor="middle" x="607" y="-48.5" font-family="Helvetica,sans-Serif" font-size="10.00">nsEventHandler::Ptr</text>
</a>
</g>
<!-- Node3&#45;&gt;Node4 -->
<g id="edge6" class="edge"><title>Node3&#45;&gt;Node4</title>
<path fill="none" stroke="midnightblue" d="M487.678,-39.7432C506.771,-41.5445 526.451,-43.401 544.185,-45.074"/>
<polygon fill="midnightblue" stroke="midnightblue" points="544.098,-48.5813 554.382,-46.0361 544.755,-41.6122 544.098,-48.5813"/>
</g>
<!-- Node5 -->
<g id="node9" class="node"><title>Node5</title>
<a xlink:href="../../d6/d7a/classns_event_handler.html#abb91d8c0bfd1ffd4ec1624abdcf638a1" target="_top" xlink:title="nsEventHandler::Type">
<polygon fill="white" stroke="black" points="550,-0.5 550,-21.5 664,-21.5 664,-0.5 550,-0.5"/>
<text text-anchor="middle" x="607" y="-8.5" font-family="Helvetica,sans-Serif" font-size="10.00">nsEventHandler::Type</text>
</a>
</g>
<!-- Node3&#45;&gt;Node5 -->
<g id="edge8" class="edge"><title>Node3&#45;&gt;Node5</title>
<path fill="none" stroke="midnightblue" d="M487.678,-22.2568C505.209,-20.6029 523.234,-18.9025 539.793,-17.3403"/>
<polygon fill="midnightblue" stroke="midnightblue" points="540.27,-20.8109 549.897,-16.3871 539.612,-13.8419 540.27,-20.8109"/>
</g>
</g>
</svg>
        <g id="navigator" transform="translate(0 0)" fill="#404254">
                <rect fill="#f2f5e9" fill-opacity="0.5" stroke="#606060" stroke-width=".5" x="0" y="0" width="60" height="60"/>
                <use id="zoomplus" xlink:href="#zoomPlus" x="17" y="9" onmousedown="handleZoom(evt,'in')"/>
                <use id="zoomminus" xlink:href="#zoomMin" x="42" y="9" onmousedown="handleZoom(evt,'out')"/>
                <use id="reset" xlink:href="#resetDef" x="30" y="36" onmousedown="handleReset()"/>
                <g id="arrowUp" xlink:href="#dirArrow" transform="translate(30 24)" onmousedown="handlePan(0,-1)">
                  <use xlink:href="#rim" fill="#404040">
                        <set attributeName="fill" to="#808080" begin="arrowUp.mouseover" end="arrowUp.mouseout"/>
                  </use>
                  <path fill="none" stroke="white" stroke-width="1.5" d="M0,-3.0v7 M-2.5,-0.5L0,-3.0L2.5,-0.5"/>
                </g>
                <g id="arrowRight" xlink:href="#dirArrow" transform="rotate(90) translate(36 -43)" onmousedown="handlePan(1,0)">
                  <use xlink:href="#rim" fill="#404040">
                        <set attributeName="fill" to="#808080" begin="arrowRight.mouseover" end="arrowRight.mouseout"/>
                  </use>
                  <path fill="none" stroke="white" stroke-width="1.5" d="M0,-3.0v7 M-2.5,-0.5L0,-3.0L2.5,-0.5"/>
                </g>
                <g id="arrowDown" xlink:href="#dirArrow" transform="rotate(180) translate(-30 -48)" onmousedown="handlePan(0,1)">
                  <use xlink:href="#rim" fill="#404040">
                        <set attributeName="fill" to="#808080" begin="arrowDown.mouseover" end="arrowDown.mouseout"/>
                  </use>
                  <path fill="none" stroke="white" stroke-width="1.5" d="M0,-3.0v7 M-2.5,-0.5L0,-3.0L2.5,-0.5"/>
                </g>
                <g id="arrowLeft" xlink:href="#dirArrow" transform="rotate(270) translate(-36 17)" onmousedown="handlePan(-1,0)">
                  <use xlink:href="#rim" fill="#404040">
                        <set attributeName="fill" to="#808080" begin="arrowLeft.mouseover" end="arrowLeft.mouseout"/>
                  </use>
                  <path fill="none" stroke="white" stroke-width="1.5" d="M0,-3.0v7 M-2.5,-0.5L0,-3.0L2.5,-0.5"/>
                </g>
        </g>
</svg>
