<?xml version="1.0" encoding="UTF-8" standalone="no"?>
<!DOCTYPE svg PUBLIC "-//W3C//DTD SVG 1.1//EN"
 "http://www.w3.org/Graphics/SVG/1.1/DTD/svg11.dtd">
<!-- Generated by graphviz version 2.26.3 (20100126.1600)
 -->
<!-- Title: G Pages: 1 -->
<!--zoomable 90 -->
<svg id="main" version="1.1" xmlns="http://www.w3.org/2000/svg" xmlns:xlink="http://www.w3.org/1999/xlink" xml:space="preserve" onload="init(evt)">
        <defs>
                <circle id="rim" cx="0" cy="0" r="7"/>
                <circle id="rim2" cx="0" cy="0" r="3.5"/>
                <g id="zoomPlus">
                        <use xlink:href="#rim" fill="#404040">
                                <set attributeName="fill" to="#808080" begin="zoomplus.mouseover" end="zoomplus.mouseout"/>
                        </use>
                        <path d="M-4,0h8M0,-4v8" fill="none" stroke="white" stroke-width="1.5" pointer-events="none"/>
                </g>
                <g id="zoomMin">
                        <use xlink:href="#rim" fill="#404040">
                                <set attributeName="fill" to="#808080" begin="zoomminus.mouseover" end="zoomminus.mouseout"/>
                        </use>
                        <path d="M-4,0h8" fill="none" stroke="white" stroke-width="1.5" pointer-events="none"/>
                </g>
                <g id="dirArrow">
                        <path fill="none" stroke="white" stroke-width="1.5" d="M0,-3.0v7 M-2.5,-0.5L0,-3.0L2.5,-0.5"/>
                </g>
               <g id="resetDef">
                       <use xlink:href="#rim2" fill="#404040">
                               <set attributeName="fill" to="#808080" begin="reset.mouseover" end="reset.mouseout"/>
                       </use>
               </g>
        </defs>

<script type="text/javascript">
var viewWidth = 638;
var viewHeight = 90;
var sectionId = 'dynsection-4';
</script>
<script xlink:href="../../svgpan.js"/>
<svg id="graph" class="graph">
<g id="viewport">
<title>G</title>
<polygon fill="white" stroke="white" points="-4,5 -4,-86 635,-86 635,5 -4,5"/>
<!-- Node1 -->
<g id="node1" class="node"><title>Node1</title>
<polygon fill="#bfbfbf" stroke="black" points="0,-20.5 0,-41.5 206,-41.5 206,-20.5 0,-20.5"/>
<text text-anchor="middle" x="103" y="-28.5" font-family="Helvetica,sans-Serif" font-size="10.00">nsEventListenerManager::GetEventHandler</text>
</g>
<!-- Node2 -->
<g id="node3" class="node"><title>Node2</title>
<a xlink:href="../../d6/d7a/classns_event_handler.html#ad6d97b75c415fd60bf51f891577c30c0" target="_top" xlink:title="nsEventHandler::EventHandler">
<polygon fill="white" stroke="black" points="285,-40.5 285,-61.5 437,-61.5 437,-40.5 285,-40.5"/>
<text text-anchor="middle" x="361" y="-48.5" font-family="Helvetica,sans-Serif" font-size="10.00">nsEventHandler::EventHandler</text>
</a>
</g>
<!-- Node1&#45;&gt;Node2 -->
<g id="edge2" class="edge"><title>Node1&#45;&gt;Node2</title>
<path fill="none" stroke="midnightblue" d="M206.081,-38.9908C228.842,-40.7552 252.725,-42.6066 274.738,-44.313"/>
<polygon fill="midnightblue" stroke="midnightblue" points="274.468,-47.8025 284.709,-45.086 275.009,-40.8235 274.468,-47.8025"/>
</g>
<!-- Node5 -->
<g id="node9" class="node"><title>Node5</title>
<a xlink:href="../../d9/d4f/classns_event_listener_manager.html#afc792dda3f8abfe9549ae87769662a76" target="_top" xlink:title="nsEventListenerManager::GetEventHandlerInternal">
<polygon fill="white" stroke="black" points="242,-0.5 242,-21.5 480,-21.5 480,-0.5 242,-0.5"/>
<text text-anchor="middle" x="361" y="-8.5" font-family="Helvetica,sans-Serif" font-size="10.00">nsEventListenerManager::GetEventHandlerInternal</text>
</a>
</g>
<!-- Node1&#45;&gt;Node5 -->
<g id="edge8" class="edge"><title>Node1&#45;&gt;Node5</title>
<path fill="none" stroke="midnightblue" d="M206.081,-23.0092C214.555,-22.3523 223.185,-21.6834 231.815,-21.0143"/>
<polygon fill="midnightblue" stroke="midnightblue" points="232.239,-24.4921 241.938,-20.2296 231.698,-17.513 232.239,-24.4921"/>
</g>
<!-- Node3 -->
<g id="node5" class="node"><title>Node3</title>
<a xlink:href="../../d6/d7a/classns_event_handler.html#a7f9cbe6e8316e1bdbd474a06ac3dcf16" target="_top" xlink:title="nsEventHandler::Ptr">
<polygon fill="white" stroke="black" points="520.5,-60.5 520.5,-81.5 625.5,-81.5 625.5,-60.5 520.5,-60.5"/>
<text text-anchor="middle" x="573" y="-68.5" font-family="Helvetica,sans-Serif" font-size="10.00">nsEventHandler::Ptr</text>
</a>
</g>
<!-- Node2&#45;&gt;Node3 -->
<g id="edge4" class="edge"><title>Node2&#45;&gt;Node3</title>
<path fill="none" stroke="midnightblue" d="M437.237,-58.1922C461.12,-60.4453 487.196,-62.9053 510.054,-65.0617"/>
<polygon fill="midnightblue" stroke="midnightblue" points="510.026,-68.5745 520.31,-66.0293 510.683,-61.6054 510.026,-68.5745"/>
</g>
<!-- Node4 -->
<g id="node7" class="node"><title>Node4</title>
<a xlink:href="../../d6/d7a/classns_event_handler.html#abb91d8c0bfd1ffd4ec1624abdcf638a1" target="_top" xlink:title="nsEventHandler::Type">
<polygon fill="white" stroke="black" points="516,-20.5 516,-41.5 630,-41.5 630,-20.5 516,-20.5"/>
<text text-anchor="middle" x="573" y="-28.5" font-family="Helvetica,sans-Serif" font-size="10.00">nsEventHandler::Type</text>
</a>
</g>
<!-- Node2&#45;&gt;Node4 -->
<g id="edge6" class="edge"><title>Node2&#45;&gt;Node4</title>
<path fill="none" stroke="midnightblue" d="M437.237,-43.8078C459.578,-41.7002 483.837,-39.4116 505.587,-37.3597"/>
<polygon fill="midnightblue" stroke="midnightblue" points="506.087,-40.8282 515.714,-36.4044 505.429,-33.8591 506.087,-40.8282"/>
</g>
</g>
</svg>
        <g id="navigator" transform="translate(0 0)" fill="#404254">
                <rect fill="#f2f5e9" fill-opacity="0.5" stroke="#606060" stroke-width=".5" x="0" y="0" width="60" height="60"/>
                <use id="zoomplus" xlink:href="#zoomPlus" x="17" y="9" onmousedown="handleZoom(evt,'in')"/>
                <use id="zoomminus" xlink:href="#zoomMin" x="42" y="9" onmousedown="handleZoom(evt,'out')"/>
                <use id="reset" xlink:href="#resetDef" x="30" y="36" onmousedown="handleReset()"/>
                <g id="arrowUp" xlink:href="#dirArrow" transform="translate(30 24)" onmousedown="handlePan(0,-1)">
                  <use xlink:href="#rim" fill="#404040">
                        <set attributeName="fill" to="#808080" begin="arrowUp.mouseover" end="arrowUp.mouseout"/>
                  </use>
                  <path fill="none" stroke="white" stroke-width="1.5" d="M0,-3.0v7 M-2.5,-0.5L0,-3.0L2.5,-0.5"/>
                </g>
                <g id="arrowRight" xlink:href="#dirArrow" transform="rotate(90) translate(36 -43)" onmousedown="handlePan(1,0)">
                  <use xlink:href="#rim" fill="#404040">
                        <set attributeName="fill" to="#808080" begin="arrowRight.mouseover" end="arrowRight.mouseout"/>
                  </use>
                  <path fill="none" stroke="white" stroke-width="1.5" d="M0,-3.0v7 M-2.5,-0.5L0,-3.0L2.5,-0.5"/>
                </g>
                <g id="arrowDown" xlink:href="#dirArrow" transform="rotate(180) translate(-30 -48)" onmousedown="handlePan(0,1)">
                  <use xlink:href="#rim" fill="#404040">
                        <set attributeName="fill" to="#808080" begin="arrowDown.mouseover" end="arrowDown.mouseout"/>
                  </use>
                  <path fill="none" stroke="white" stroke-width="1.5" d="M0,-3.0v7 M-2.5,-0.5L0,-3.0L2.5,-0.5"/>
                </g>
                <g id="arrowLeft" xlink:href="#dirArrow" transform="rotate(270) translate(-36 17)" onmousedown="handlePan(-1,0)">
                  <use xlink:href="#rim" fill="#404040">
                        <set attributeName="fill" to="#808080" begin="arrowLeft.mouseover" end="arrowLeft.mouseout"/>
                  </use>
                  <path fill="none" stroke="white" stroke-width="1.5" d="M0,-3.0v7 M-2.5,-0.5L0,-3.0L2.5,-0.5"/>
                </g>
        </g>
</svg>
