<?xml version="1.0" encoding="UTF-8" standalone="no"?>
<!DOCTYPE svg PUBLIC "-//W3C//DTD SVG 1.1//EN"
 "http://www.w3.org/Graphics/SVG/1.1/DTD/svg11.dtd">
<!-- Generated by graphviz version 2.26.3 (20100126.1600)
 -->
<!-- Title: G Pages: 1 -->
<!--zoomable 308 -->
<svg id="main" version="1.1" xmlns="http://www.w3.org/2000/svg" xmlns:xlink="http://www.w3.org/1999/xlink" xml:space="preserve" onload="init(evt)">
        <defs>
                <circle id="rim" cx="0" cy="0" r="7"/>
                <circle id="rim2" cx="0" cy="0" r="3.5"/>
                <g id="zoomPlus">
                        <use xlink:href="#rim" fill="#404040">
                                <set attributeName="fill" to="#808080" begin="zoomplus.mouseover" end="zoomplus.mouseout"/>
                        </use>
                        <path d="M-4,0h8M0,-4v8" fill="none" stroke="white" stroke-width="1.5" pointer-events="none"/>
                </g>
                <g id="zoomMin">
                        <use xlink:href="#rim" fill="#404040">
                                <set attributeName="fill" to="#808080" begin="zoomminus.mouseover" end="zoomminus.mouseout"/>
                        </use>
                        <path d="M-4,0h8" fill="none" stroke="white" stroke-width="1.5" pointer-events="none"/>
                </g>
                <g id="dirArrow">
                        <path fill="none" stroke="white" stroke-width="1.5" d="M0,-3.0v7 M-2.5,-0.5L0,-3.0L2.5,-0.5"/>
                </g>
               <g id="resetDef">
                       <use xlink:href="#rim2" fill="#404040">
                               <set attributeName="fill" to="#808080" begin="reset.mouseover" end="reset.mouseout"/>
                       </use>
               </g>
        </defs>

<script type="text/javascript">
var viewWidth = 984;
var viewHeight = 308;
var sectionId = 'dynsection-1';
</script>
<script xlink:href="../../svgpan.js"/>
<svg id="graph" class="graph">
<g id="viewport">
<title>G</title>
<polygon fill="white" stroke="white" points="-4,5 -4,-304 981,-304 981,5 -4,5"/>
<!-- Node1 -->
<g id="node1" class="node"><title>Node1</title>
<polygon fill="#bfbfbf" stroke="black" points="0.5,-177.5 0.5,-198.5 77.5,-198.5 77.5,-177.5 0.5,-177.5"/>
<text text-anchor="middle" x="39" y="-185.5" font-family="Helvetica,sans-Serif" font-size="10.00">enumerateDB</text>
</g>
<!-- Node2 -->
<g id="node3" class="node"><title>Node2</title>
<a xlink:href="../../d8/d50/apps_2video_2js_2metadata_8js.html#a5644e1056ce14d2eca9684a6f6aed7d9" target="_top" xlink:title="addToMetadataQueue">
<polygon fill="white" stroke="black" points="114.5,-158.5 114.5,-179.5 227.5,-179.5 227.5,-158.5 114.5,-158.5"/>
<text text-anchor="middle" x="171" y="-166.5" font-family="Helvetica,sans-Serif" font-size="10.00">addToMetadataQueue</text>
</a>
</g>
<!-- Node1&#45;&gt;Node2 -->
<g id="edge2" class="edge"><title>Node1&#45;&gt;Node2</title>
<path fill="none" stroke="midnightblue" d="M77.5347,-182.453C85.8281,-181.26 94.8257,-179.964 103.852,-178.665"/>
<polygon fill="midnightblue" stroke="midnightblue" points="104.62,-182.091 114.019,-177.202 103.622,-175.162 104.62,-182.091"/>
</g>
<!-- Node9 -->
<g id="node17" class="node"><title>Node9</title>
<a xlink:href="../../d4/d76/camera_2js_2filmstrip_8js.html#ae6b06bd26f6c80aa7e9c46e369a2882c" target="_top" xlink:title="addVideo">
<polygon fill="white" stroke="black" points="578.5,-198.5 578.5,-219.5 635.5,-219.5 635.5,-198.5 578.5,-198.5"/>
<text text-anchor="middle" x="607" y="-206.5" font-family="Helvetica,sans-Serif" font-size="10.00">addVideo</text>
</a>
</g>
<!-- Node1&#45;&gt;Node9 -->
<g id="edge44" class="edge"><title>Node1&#45;&gt;Node9</title>
<path fill="none" stroke="midnightblue" d="M77.5944,-189.427C181.155,-193.256 464.336,-203.725 568.169,-207.564"/>
<polygon fill="midnightblue" stroke="midnightblue" points="568.096,-211.064 578.218,-207.936 568.354,-204.069 568.096,-211.064"/>
</g>
<!-- Node3 -->
<g id="node5" class="node"><title>Node3</title>
<a xlink:href="../../d8/d50/apps_2video_2js_2metadata_8js.html#ae22812565b83dc890014f0864f947bd0" target="_top" xlink:title="startParsingMetadata">
<polygon fill="white" stroke="black" points="264,-158.5 264,-179.5 374,-179.5 374,-158.5 264,-158.5"/>
<text text-anchor="middle" x="319" y="-166.5" font-family="Helvetica,sans-Serif" font-size="10.00">startParsingMetadata</text>
</a>
</g>
<!-- Node2&#45;&gt;Node3 -->
<g id="edge4" class="edge"><title>Node2&#45;&gt;Node3</title>
<path fill="none" stroke="midnightblue" d="M227.797,-169C236.143,-169 244.797,-169 253.303,-169"/>
<polygon fill="midnightblue" stroke="midnightblue" points="253.575,-172.5 263.575,-169 253.574,-165.5 253.575,-172.5"/>
</g>
<!-- Node4 -->
<g id="node7" class="node"><title>Node4</title>
<a xlink:href="../../dd/d85/video_8js.html#a75635219ebfcafcc9f0d68b6c4c7b610" target="_top" xlink:title="showThrobber">
<polygon fill="white" stroke="black" points="433,-118.5 433,-139.5 511,-139.5 511,-118.5 433,-118.5"/>
<text text-anchor="middle" x="472" y="-126.5" font-family="Helvetica,sans-Serif" font-size="10.00">showThrobber</text>
</a>
</g>
<!-- Node3&#45;&gt;Node4 -->
<g id="edge6" class="edge"><title>Node3&#45;&gt;Node4</title>
<path fill="none" stroke="midnightblue" d="M359.199,-158.49C378.753,-153.378 402.427,-147.189 423.028,-141.803"/>
<polygon fill="midnightblue" stroke="midnightblue" points="424.073,-145.148 432.863,-139.232 422.302,-138.375 424.073,-145.148"/>
</g>
<!-- Node5 -->
<g id="node9" class="node"><title>Node5</title>
<a xlink:href="../../d8/d50/apps_2video_2js_2metadata_8js.html#ab0dcf0f45a87ccde675b9320f5b69d3a" target="_top" xlink:title="processFirstQueuedItem">
<polygon fill="white" stroke="black" points="410,-158.5 410,-179.5 534,-179.5 534,-158.5 410,-158.5"/>
<text text-anchor="middle" x="472" y="-166.5" font-family="Helvetica,sans-Serif" font-size="10.00">processFirstQueuedItem</text>
</a>
</g>
<!-- Node3&#45;&gt;Node5 -->
<g id="edge8" class="edge"><title>Node3&#45;&gt;Node5</title>
<path fill="none" stroke="midnightblue" d="M374.237,-169C382.542,-169 391.211,-169 399.807,-169"/>
<polygon fill="midnightblue" stroke="midnightblue" points="399.838,-172.5 409.838,-169 399.838,-165.5 399.838,-172.5"/>
</g>
<!-- Node6 -->
<g id="node11" class="node"><title>Node6</title>
<a xlink:href="../../dd/d85/video_8js.html#a5ac3b5032f9a9ecde23b4b999725109f" target="_top" xlink:title="updateDialog">
<polygon fill="white" stroke="black" points="570,-118.5 570,-139.5 644,-139.5 644,-118.5 570,-118.5"/>
<text text-anchor="middle" x="607" y="-126.5" font-family="Helvetica,sans-Serif" font-size="10.00">updateDialog</text>
</a>
</g>
<!-- Node5&#45;&gt;Node6 -->
<g id="edge10" class="edge"><title>Node5&#45;&gt;Node6</title>
<path fill="none" stroke="midnightblue" d="M507.47,-158.49C523.926,-153.614 543.69,-147.759 561.253,-142.555"/>
<polygon fill="midnightblue" stroke="midnightblue" points="562.705,-145.775 571.299,-139.578 560.716,-139.063 562.705,-145.775"/>
</g>
<!-- Node8 -->
<g id="node15" class="node"><title>Node8</title>
<a xlink:href="../../dd/d85/video_8js.html#a7b433f6aa3139d37460764b72cf2d163" target="_top" xlink:title="hideThrobber">
<polygon fill="white" stroke="black" points="570.5,-78.5 570.5,-99.5 643.5,-99.5 643.5,-78.5 570.5,-78.5"/>
<text text-anchor="middle" x="607" y="-86.5" font-family="Helvetica,sans-Serif" font-size="10.00">hideThrobber</text>
</a>
</g>
<!-- Node5&#45;&gt;Node8 -->
<g id="edge14" class="edge"><title>Node5&#45;&gt;Node8</title>
<path fill="none" stroke="midnightblue" d="M515.039,-158.397C521.66,-155.852 528.21,-152.752 534,-149 554.071,-135.993 551.205,-123.792 570,-109 571.772,-107.606 573.654,-106.257 575.595,-104.963"/>
<polygon fill="midnightblue" stroke="midnightblue" points="577.583,-107.85 584.315,-99.6682 573.95,-101.867 577.583,-107.85"/>
</g>
<!-- Node5&#45;&gt;Node9 -->
<g id="edge16" class="edge"><title>Node5&#45;&gt;Node9</title>
<path fill="none" stroke="midnightblue" d="M507.47,-179.51C526.23,-185.068 549.287,-191.9 568.484,-197.588"/>
<polygon fill="midnightblue" stroke="midnightblue" points="567.545,-200.96 578.127,-200.445 569.533,-194.248 567.545,-200.96"/>
</g>
<!-- Node11 -->
<g id="node21" class="node"><title>Node11</title>
<a xlink:href="../../d8/d50/apps_2video_2js_2metadata_8js.html#a0b97138040447870c0f4f24d76ba070a" target="_top" xlink:title="getMetadata">
<polygon fill="white" stroke="black" points="571.5,-158.5 571.5,-179.5 642.5,-179.5 642.5,-158.5 571.5,-158.5"/>
<text text-anchor="middle" x="607" y="-166.5" font-family="Helvetica,sans-Serif" font-size="10.00">getMetadata</text>
</a>
</g>
<!-- Node5&#45;&gt;Node11 -->
<g id="edge20" class="edge"><title>Node5&#45;&gt;Node11</title>
<path fill="none" stroke="midnightblue" d="M534.363,-169C543.4,-169 552.561,-169 561.193,-169"/>
<polygon fill="midnightblue" stroke="midnightblue" points="561.415,-172.5 571.414,-169 561.414,-165.5 561.415,-172.5"/>
</g>
<!-- Node7 -->
<g id="node13" class="node"><title>Node7</title>
<a xlink:href="../../de/db0/music_8js.html#a06b9f891a17c6f5559d8709267729496" target="_top" xlink:title="showOverlay">
<polygon fill="white" stroke="black" points="702,-0.5 702,-21.5 776,-21.5 776,-0.5 702,-0.5"/>
<text text-anchor="middle" x="739" y="-8.5" font-family="Helvetica,sans-Serif" font-size="10.00">showOverlay</text>
</a>
</g>
<!-- Node6&#45;&gt;Node7 -->
<g id="edge12" class="edge"><title>Node6&#45;&gt;Node7</title>
<path fill="none" stroke="midnightblue" d="M632.057,-118.341C636.398,-115.728 640.602,-112.62 644,-109 670.132,-81.1633 651.615,-56.5358 680,-31 683.676,-27.6929 687.921,-24.9291 692.414,-22.6201"/>
<polygon fill="midnightblue" stroke="midnightblue" points="694.116,-25.6965 701.883,-18.4909 691.318,-19.28 694.116,-25.6965"/>
</g>
<!-- Node10 -->
<g id="node19" class="node"><title>Node10</title>
<a xlink:href="../../d4/d76/camera_2js_2filmstrip_8js.html#a246682eea904b777ca4d4707f24232f2" target="_top" xlink:title="createThumbnail">
<polygon fill="white" stroke="black" points="694.5,-278.5 694.5,-299.5 783.5,-299.5 783.5,-278.5 694.5,-278.5"/>
<text text-anchor="middle" x="739" y="-286.5" font-family="Helvetica,sans-Serif" font-size="10.00">createThumbnail</text>
</a>
</g>
<!-- Node9&#45;&gt;Node10 -->
<g id="edge18" class="edge"><title>Node9&#45;&gt;Node10</title>
<path fill="none" stroke="midnightblue" d="M617.455,-219.712C630.862,-232.917 655.338,-255.289 680,-269 683.722,-271.069 687.695,-272.975 691.753,-274.719"/>
<polygon fill="midnightblue" stroke="midnightblue" points="690.714,-278.072 701.301,-278.494 693.288,-271.562 690.714,-278.072"/>
</g>
<!-- Node11&#45;&gt;Node10 -->
<g id="edge38" class="edge"><title>Node11&#45;&gt;Node10</title>
<path fill="none" stroke="midnightblue" d="M632.085,-179.633C636.423,-182.248 640.619,-185.364 644,-189 670.55,-217.554 651.139,-242.785 680,-269 681.724,-270.566 683.575,-272.01 685.52,-273.341"/>
<polygon fill="midnightblue" stroke="midnightblue" points="684.123,-276.573 694.544,-278.487 687.591,-270.493 684.123,-276.573"/>
</g>
<!-- Node12 -->
<g id="node23" class="node"><title>Node12</title>
<a xlink:href="../../d1/d22/ical_8js.html#a6053319846c80bf9561a1958bb817380" target="_top" xlink:title="typeof">
<polygon fill="white" stroke="black" points="932,-81.5 932,-102.5 976,-102.5 976,-81.5 932,-81.5"/>
<text text-anchor="middle" x="954" y="-89.5" font-family="Helvetica,sans-Serif" font-size="10.00">typeof</text>
</a>
</g>
<!-- Node11&#45;&gt;Node12 -->
<g id="edge22" class="edge"><title>Node11&#45;&gt;Node12</title>
<path fill="none" stroke="midnightblue" d="M642.515,-158.727C654.388,-155.437 667.723,-151.9 680,-149 775.262,-126.498 800.405,-127.044 896,-106 904.415,-104.148 913.485,-102.021 921.895,-99.9938"/>
<polygon fill="midnightblue" stroke="midnightblue" points="922.852,-103.363 931.739,-97.5957 921.195,-96.5621 922.852,-103.363"/>
</g>
<!-- Node13 -->
<g id="node25" class="node"><title>Node13</title>
<a xlink:href="../../d8/d50/apps_2video_2js_2metadata_8js.html#a630c4c6c13813ba79f9cceef1fc57d7b" target="_top" xlink:title="captureFrame">
<polygon fill="white" stroke="black" points="700.5,-40.5 700.5,-61.5 777.5,-61.5 777.5,-40.5 700.5,-40.5"/>
<text text-anchor="middle" x="739" y="-48.5" font-family="Helvetica,sans-Serif" font-size="10.00">captureFrame</text>
</a>
</g>
<!-- Node11&#45;&gt;Node13 -->
<g id="edge24" class="edge"><title>Node11&#45;&gt;Node13</title>
<path fill="none" stroke="midnightblue" d="M632.057,-158.341C636.398,-155.728 640.602,-152.62 644,-149 670.132,-121.163 651.615,-96.5358 680,-71 683.347,-67.989 687.165,-65.4285 691.213,-63.2514"/>
<polygon fill="midnightblue" stroke="midnightblue" points="692.711,-66.4153 700.348,-59.0722 689.798,-60.0499 692.711,-66.4153"/>
</g>
<!-- Node14 -->
<g id="node27" class="node"><title>Node14</title>
<a xlink:href="../../d7/d78/namespacefactory.html#a1c47ef339eafcb580414d1d592ef4628" target="_top" xlink:title="factory.failed">
<polygon fill="white" stroke="black" points="702.5,-238.5 702.5,-259.5 775.5,-259.5 775.5,-238.5 702.5,-238.5"/>
<text text-anchor="middle" x="739" y="-246.5" font-family="Helvetica,sans-Serif" font-size="10.00">factory.failed</text>
</a>
</g>
<!-- Node11&#45;&gt;Node14 -->
<g id="edge26" class="edge"><title>Node11&#45;&gt;Node14</title>
<path fill="none" stroke="midnightblue" d="M629.685,-179.668C634.606,-182.411 639.639,-185.568 644,-189 662.795,-203.792 660.025,-215.845 680,-229 684.022,-231.649 688.431,-233.982 692.969,-236.028"/>
<polygon fill="midnightblue" stroke="midnightblue" points="691.801,-239.331 702.384,-239.835 694.426,-232.842 691.801,-239.331"/>
</g>
<!-- Node15 -->
<g id="node29" class="node"><title>Node15</title>
<a xlink:href="../../dd/d85/video_8js.html#a48ae97587470b75a7c95fc58c25bd3e3" target="_top" xlink:title="fileNameToVideoName">
<polygon fill="white" stroke="black" points="680,-198.5 680,-219.5 798,-219.5 798,-198.5 680,-198.5"/>
<text text-anchor="middle" x="739" y="-206.5" font-family="Helvetica,sans-Serif" font-size="10.00">fileNameToVideoName</text>
</a>
</g>
<!-- Node11&#45;&gt;Node15 -->
<g id="edge28" class="edge"><title>Node11&#45;&gt;Node15</title>
<path fill="none" stroke="midnightblue" d="M641.681,-179.51C657.773,-184.386 677.097,-190.241 694.27,-195.445"/>
<polygon fill="midnightblue" stroke="midnightblue" points="693.507,-198.871 704.092,-198.422 695.537,-192.172 693.507,-198.871"/>
</g>
<!-- Node16 -->
<g id="node31" class="node"><title>Node16</title>
<a xlink:href="../../df/dcd/apps_2gallery_2js_2metadata__scripts_8js.html#ab788b9d95bc35ef077f98db5199435ab" target="_top" xlink:title="getVideoRotation">
<polygon fill="white" stroke="black" points="693,-80.5 693,-101.5 785,-101.5 785,-80.5 693,-80.5"/>
<text text-anchor="middle" x="739" y="-88.5" font-family="Helvetica,sans-Serif" font-size="10.00">getVideoRotation</text>
</a>
</g>
<!-- Node11&#45;&gt;Node16 -->
<g id="edge30" class="edge"><title>Node11&#45;&gt;Node16</title>
<path fill="none" stroke="midnightblue" d="M628.671,-158.443C633.844,-155.612 639.241,-152.388 644,-149 661.681,-136.411 661.743,-127.738 680,-116 685.91,-112.2 692.495,-108.754 699.062,-105.718"/>
<polygon fill="midnightblue" stroke="midnightblue" points="700.818,-108.771 708.59,-101.57 698.024,-102.352 700.818,-108.771"/>
</g>
<!-- Node18 -->
<g id="node38" class="node"><title>Node18</title>
<a xlink:href="../../d6/d52/js_2browser_8js.html#a7321fd84345f4f9455f25996b932b8fd" target="_top" xlink:title="if">
<polygon fill="white" stroke="black" points="724.5,-158.5 724.5,-179.5 753.5,-179.5 753.5,-158.5 724.5,-158.5"/>
<text text-anchor="middle" x="739" y="-166.5" font-family="Helvetica,sans-Serif" font-size="10.00">if</text>
</a>
</g>
<!-- Node11&#45;&gt;Node18 -->
<g id="edge40" class="edge"><title>Node11&#45;&gt;Node18</title>
<path fill="none" stroke="midnightblue" d="M642.721,-169C665.269,-169 693.836,-169 713.978,-169"/>
<polygon fill="midnightblue" stroke="midnightblue" points="714.209,-172.5 724.209,-169 714.209,-165.5 714.209,-172.5"/>
</g>
<!-- Node16&#45;&gt;Node12 -->
<g id="edge32" class="edge"><title>Node16&#45;&gt;Node12</title>
<path fill="none" stroke="midnightblue" d="M785.123,-91.2145C826.337,-91.4062 885.653,-91.6821 921.91,-91.8507"/>
<polygon fill="midnightblue" stroke="midnightblue" points="921.917,-95.3507 931.934,-91.8974 921.95,-88.3508 921.917,-95.3507"/>
</g>
<!-- Node17 -->
<g id="node34" class="node"><title>Node17</title>
<a xlink:href="../../d0/de6/fake-oncall-desktop_8js.html#a6efd5e1eedff09b640ec574dc6dd2879" target="_top" xlink:title="error">
<polygon fill="white" stroke="black" points="847,-42.5 847,-63.5 883,-63.5 883,-42.5 847,-42.5"/>
<text text-anchor="middle" x="865" y="-50.5" font-family="Helvetica,sans-Serif" font-size="10.00">error</text>
</a>
</g>
<!-- Node16&#45;&gt;Node17 -->
<g id="edge34" class="edge"><title>Node16&#45;&gt;Node17</title>
<path fill="none" stroke="midnightblue" d="M774.098,-80.4149C794.004,-74.4114 818.568,-67.0032 837.141,-61.4019"/>
<polygon fill="midnightblue" stroke="midnightblue" points="838.212,-64.7348 846.775,-58.4963 836.191,-58.0329 838.212,-64.7348"/>
</g>
<!-- Node17&#45;&gt;Node12 -->
<g id="edge36" class="edge"><title>Node17&#45;&gt;Node12</title>
<path fill="none" stroke="midnightblue" d="M883.01,-60.8922C894.373,-65.8713 909.358,-72.4379 922.632,-78.2543"/>
<polygon fill="midnightblue" stroke="midnightblue" points="921.354,-81.5156 931.918,-82.3235 924.163,-75.1042 921.354,-81.5156"/>
</g>
<!-- Node19 -->
<g id="node40" class="node"><title>Node19</title>
<a xlink:href="../../d6/d52/js_2browser_8js.html#a35ca1017bd581c0cd64ad0e3defc07d8" target="_top" xlink:title="actHandle">
<polygon fill="white" stroke="black" points="834.5,-158.5 834.5,-179.5 895.5,-179.5 895.5,-158.5 834.5,-158.5"/>
<text text-anchor="middle" x="865" y="-166.5" font-family="Helvetica,sans-Serif" font-size="10.00">actHandle</text>
</a>
</g>
<!-- Node18&#45;&gt;Node19 -->
<g id="edge42" class="edge"><title>Node18&#45;&gt;Node19</title>
<path fill="none" stroke="midnightblue" d="M753.949,-169C771.154,-169 800.133,-169 824.173,-169"/>
<polygon fill="midnightblue" stroke="midnightblue" points="824.468,-172.5 834.468,-169 824.467,-165.5 824.468,-172.5"/>
</g>
</g>
</svg>
        <g id="navigator" transform="translate(0 0)" fill="#404254">
                <rect fill="#f2f5e9" fill-opacity="0.5" stroke="#606060" stroke-width=".5" x="0" y="0" width="60" height="60"/>
                <use id="zoomplus" xlink:href="#zoomPlus" x="17" y="9" onmousedown="handleZoom(evt,'in')"/>
                <use id="zoomminus" xlink:href="#zoomMin" x="42" y="9" onmousedown="handleZoom(evt,'out')"/>
                <use id="reset" xlink:href="#resetDef" x="30" y="36" onmousedown="handleReset()"/>
                <g id="arrowUp" xlink:href="#dirArrow" transform="translate(30 24)" onmousedown="handlePan(0,-1)">
                  <use xlink:href="#rim" fill="#404040">
                        <set attributeName="fill" to="#808080" begin="arrowUp.mouseover" end="arrowUp.mouseout"/>
                  </use>
                  <path fill="none" stroke="white" stroke-width="1.5" d="M0,-3.0v7 M-2.5,-0.5L0,-3.0L2.5,-0.5"/>
                </g>
                <g id="arrowRight" xlink:href="#dirArrow" transform="rotate(90) translate(36 -43)" onmousedown="handlePan(1,0)">
                  <use xlink:href="#rim" fill="#404040">
                        <set attributeName="fill" to="#808080" begin="arrowRight.mouseover" end="arrowRight.mouseout"/>
                  </use>
                  <path fill="none" stroke="white" stroke-width="1.5" d="M0,-3.0v7 M-2.5,-0.5L0,-3.0L2.5,-0.5"/>
                </g>
                <g id="arrowDown" xlink:href="#dirArrow" transform="rotate(180) translate(-30 -48)" onmousedown="handlePan(0,1)">
                  <use xlink:href="#rim" fill="#404040">
                        <set attributeName="fill" to="#808080" begin="arrowDown.mouseover" end="arrowDown.mouseout"/>
                  </use>
                  <path fill="none" stroke="white" stroke-width="1.5" d="M0,-3.0v7 M-2.5,-0.5L0,-3.0L2.5,-0.5"/>
                </g>
                <g id="arrowLeft" xlink:href="#dirArrow" transform="rotate(270) translate(-36 17)" onmousedown="handlePan(-1,0)">
                  <use xlink:href="#rim" fill="#404040">
                        <set attributeName="fill" to="#808080" begin="arrowLeft.mouseover" end="arrowLeft.mouseout"/>
                  </use>
                  <path fill="none" stroke="white" stroke-width="1.5" d="M0,-3.0v7 M-2.5,-0.5L0,-3.0L2.5,-0.5"/>
                </g>
        </g>
</svg>
