<?xml version="1.0" encoding="UTF-8" standalone="no"?>
<!DOCTYPE svg PUBLIC "-//W3C//DTD SVG 1.1//EN"
 "http://www.w3.org/Graphics/SVG/1.1/DTD/svg11.dtd">
<!-- Generated by graphviz version 2.26.3 (20100126.1600)
 -->
<!-- Title: G Pages: 1 -->
<svg width="193pt" height="174pt"
 viewBox="0.00 0.00 193.00 174.00" xmlns="http://www.w3.org/2000/svg" xmlns:xlink="http://www.w3.org/1999/xlink">
<g id="graph1" class="graph" transform="scale(1 1) rotate(0) translate(4 170)">
<title>G</title>
<polygon fill="white" stroke="white" points="-4,5 -4,-170 190,-170 190,5 -4,5"/>
<!-- Node1 -->
<g id="node1" class="node"><title>Node1</title>
<polygon fill="#bfbfbf" stroke="black" points="22.5,-0.5 22.5,-21.5 125.5,-21.5 125.5,-0.5 22.5,-0.5"/>
<text text-anchor="middle" x="74" y="-8.5" font-family="Helvetica,sans-Serif" font-size="10.00">CERTDERCertsStr</text>
</g>
<!-- Node2 -->
<g id="node2" class="node"><title>Node2</title>
<a xlink:href="../../d2/d86/struct_s_e_c_item_str.html" target="_top" xlink:title="SECItemStr">
<polygon fill="white" stroke="black" points="0,-72.5 0,-93.5 70,-93.5 70,-72.5 0,-72.5"/>
<text text-anchor="middle" x="35" y="-80.5" font-family="Helvetica,sans-Serif" font-size="10.00">SECItemStr</text>
</a>
</g>
<!-- Node2&#45;&gt;Node1 -->
<g id="edge2" class="edge"><title>Node2&#45;&gt;Node1</title>
<path fill="none" stroke="#9a32cd" stroke-dasharray="5,2" d="M39.2933,-62.3014C41.3136,-54.9721 44.1476,-46.8511 48,-40 51.7783,-33.2808 57.3474,-26.7951 62.3632,-21.6674"/>
<polygon fill="#9a32cd" stroke="#9a32cd" points="35.8402,-61.6906 36.8915,-72.2331 42.6441,-63.336 35.8402,-61.6906"/>
<text text-anchor="middle" x="69.5" y="-44.5" font-family="Helvetica,sans-Serif" font-size="10.00"> rawCerts</text>
</g>
<!-- Node3 -->
<g id="node4" class="node"><title>Node3</title>
<a xlink:href="../../df/db7/struct_p_l_arena_pool.html" target="_top" xlink:title="PLArenaPool">
<polygon fill="white" stroke="black" points="88,-72.5 88,-93.5 162,-93.5 162,-72.5 88,-72.5"/>
<text text-anchor="middle" x="125" y="-80.5" font-family="Helvetica,sans-Serif" font-size="10.00">PLArenaPool</text>
</a>
</g>
<!-- Node3&#45;&gt;Node1 -->
<g id="edge4" class="edge"><title>Node3&#45;&gt;Node1</title>
<path fill="none" stroke="#9a32cd" stroke-dasharray="5,2" d="M111.682,-64.1981C102.085,-50.649 89.4781,-32.8514 81.5561,-21.6674"/>
<polygon fill="#9a32cd" stroke="#9a32cd" points="108.838,-66.239 117.475,-72.3762 114.551,-62.1928 108.838,-66.239"/>
<text text-anchor="middle" x="118" y="-44.5" font-family="Helvetica,sans-Serif" font-size="10.00"> arena</text>
</g>
<!-- Node4 -->
<g id="node6" class="node"><title>Node4</title>
<a xlink:href="../../d0/da4/struct_p_l_arena.html" target="_top" xlink:title="PLArena">
<polygon fill="white" stroke="black" points="33,-144.5 33,-165.5 87,-165.5 87,-144.5 33,-144.5"/>
<text text-anchor="middle" x="60" y="-152.5" font-family="Helvetica,sans-Serif" font-size="10.00">PLArena</text>
</a>
</g>
<!-- Node4&#45;&gt;Node3 -->
<g id="edge6" class="edge"><title>Node4&#45;&gt;Node3</title>
<path fill="none" stroke="#9a32cd" stroke-dasharray="5,2" d="M76.6255,-136.584C88.8992,-122.989 105.177,-104.958 115.37,-93.6674"/>
<polygon fill="#9a32cd" stroke="#9a32cd" points="73.6941,-134.608 69.591,-144.376 78.89,-139.299 73.6941,-134.608"/>
<text text-anchor="middle" x="115" y="-116.5" font-family="Helvetica,sans-Serif" font-size="10.00"> current</text>
</g>
<!-- Node4&#45;&gt;Node4 -->
<g id="edge8" class="edge"><title>Node4&#45;&gt;Node4</title>
<path fill="none" stroke="#9a32cd" stroke-dasharray="5,2" d="M97.5105,-160.818C102.038,-159.767 105,-157.828 105,-155 105,-150.359 97.0239,-148.112 87.2408,-148.257"/>
<polygon fill="#9a32cd" stroke="#9a32cd" points="96.8863,-157.36 87.2408,-161.743 97.5146,-164.332 96.8863,-157.36"/>
<text text-anchor="middle" x="116" y="-152.5" font-family="Helvetica,sans-Serif" font-size="10.00"> next</text>
</g>
<!-- Node5 -->
<g id="node9" class="node"><title>Node5</title>
<polygon fill="white" stroke="#bfbfbf" points="144.5,-144.5 144.5,-165.5 185.5,-165.5 185.5,-144.5 144.5,-144.5"/>
<text text-anchor="middle" x="165" y="-152.5" font-family="Helvetica,sans-Serif" font-size="10.00">struct</text>
</g>
<!-- Node5&#45;&gt;Node3 -->
<g id="edge10" class="edge"><title>Node5&#45;&gt;Node3</title>
<path fill="none" stroke="#9a32cd" stroke-dasharray="5,2" d="M154.122,-135.419C146.652,-121.973 137.021,-104.638 130.926,-93.6674"/>
<polygon fill="#9a32cd" stroke="#9a32cd" points="151.182,-137.334 159.098,-144.376 157.301,-133.935 151.182,-137.334"/>
<text text-anchor="middle" x="158" y="-116.5" font-family="Helvetica,sans-Serif" font-size="10.00"> first</text>
</g>
</g>
</svg>
