<?xml version="1.0" encoding="UTF-8" standalone="no"?>
<!DOCTYPE svg PUBLIC "-//W3C//DTD SVG 1.1//EN"
 "http://www.w3.org/Graphics/SVG/1.1/DTD/svg11.dtd">
<!-- Generated by graphviz version 2.26.3 (20100126.1600)
 -->
<!-- Title: G Pages: 1 -->
<svg width="350pt" height="70pt"
 viewBox="0.00 0.00 350.00 70.00" xmlns="http://www.w3.org/2000/svg" xmlns:xlink="http://www.w3.org/1999/xlink">
<g id="graph1" class="graph" transform="scale(1 1) rotate(0) translate(4 66)">
<title>G</title>
<polygon fill="white" stroke="white" points="-4,5 -4,-66 347,-66 347,5 -4,5"/>
<!-- Node1 -->
<g id="node1" class="node"><title>Node1</title>
<polygon fill="#bfbfbf" stroke="black" points="0.5,-20.5 0.5,-41.5 111.5,-41.5 111.5,-20.5 0.5,-20.5"/>
<text text-anchor="middle" x="56" y="-28.5" font-family="Helvetica,sans-Serif" font-size="10.00">nsHttp::ResolveAtom</text>
</g>
<!-- Node2 -->
<g id="node3" class="node"><title>Node2</title>
<a xlink:href="../../d9/d6d/struct_i_p_c_1_1_param_traits_3_01ns_http_atom_01_4.html#aa28ad825fcded755a417896cff663ea4" target="_top" xlink:title="IPC::ParamTraits\&lt; nsHttpAtom \&gt;::Read">
<polygon fill="white" stroke="black" points="148.5,-40.5 148.5,-61.5 341.5,-61.5 341.5,-40.5 148.5,-40.5"/>
<text text-anchor="middle" x="245" y="-48.5" font-family="Helvetica,sans-Serif" font-size="10.00">IPC::ParamTraits&lt; nsHttpAtom &gt;::Read</text>
</a>
</g>
<!-- Node1&#45;&gt;Node2 -->
<g id="edge2" class="edge"><title>Node1&#45;&gt;Node2</title>
<path fill="none" stroke="midnightblue" d="M121.906,-37.9742C130.444,-38.8777 139.325,-39.8175 148.233,-40.7602"/>
<polygon fill="midnightblue" stroke="midnightblue" points="121.997,-34.4643 111.684,-36.8925 121.26,-41.4255 121.997,-34.4643"/>
</g>
<!-- Node3 -->
<g id="node5" class="node"><title>Node3</title>
<a xlink:href="../../d4/d81/structns_http.html#a678934f1ad85de82a4e3abcca0b28250" target="_top" xlink:title="nsHttp::ResolveAtom">
<polygon fill="white" stroke="black" points="189.5,-0.5 189.5,-21.5 300.5,-21.5 300.5,-0.5 189.5,-0.5"/>
<text text-anchor="middle" x="245" y="-8.5" font-family="Helvetica,sans-Serif" font-size="10.00">nsHttp::ResolveAtom</text>
</a>
</g>
<!-- Node1&#45;&gt;Node3 -->
<g id="edge4" class="edge"><title>Node1&#45;&gt;Node3</title>
<path fill="none" stroke="midnightblue" d="M121.649,-24.053C143.736,-21.7158 168.149,-19.1324 189.388,-16.8849"/>
<polygon fill="midnightblue" stroke="midnightblue" points="121.26,-20.5745 111.684,-25.1075 121.997,-27.5357 121.26,-20.5745"/>
</g>
</g>
</svg>
