<?xml version="1.0" encoding="UTF-8" standalone="no"?>
<!DOCTYPE svg PUBLIC "-//W3C//DTD SVG 1.1//EN"
 "http://www.w3.org/Graphics/SVG/1.1/DTD/svg11.dtd">
<!-- Generated by graphviz version 2.26.3 (20100126.1600)
 -->
<!-- Title: G Pages: 1 -->
<svg width="352pt" height="70pt"
 viewBox="0.00 0.00 352.00 70.00" xmlns="http://www.w3.org/2000/svg" xmlns:xlink="http://www.w3.org/1999/xlink">
<g id="graph1" class="graph" transform="scale(1 1) rotate(0) translate(4 66)">
<title>G</title>
<polygon fill="white" stroke="white" points="-4,5 -4,-66 349,-66 349,5 -4,5"/>
<!-- Node1 -->
<g id="node1" class="node"><title>Node1</title>
<polygon fill="#bfbfbf" stroke="black" points="0,-20.5 0,-41.5 146,-41.5 146,-20.5 0,-20.5"/>
<text text-anchor="middle" x="73" y="-28.5" font-family="Helvetica,sans-Serif" font-size="10.00">nsStyleImage::GetImageData</text>
</g>
<!-- Node2 -->
<g id="node3" class="node"><title>Node2</title>
<a xlink:href="../../d7/d20/classns_i_frame.html#a7849343f3ccb69f9880f0eb7783b576a" target="_top" xlink:title="nsIFrame::AssociateImage">
<polygon fill="white" stroke="black" points="196,-40.5 196,-61.5 330,-61.5 330,-40.5 196,-40.5"/>
<text text-anchor="middle" x="263" y="-48.5" font-family="Helvetica,sans-Serif" font-size="10.00">nsIFrame::AssociateImage</text>
</a>
</g>
<!-- Node1&#45;&gt;Node2 -->
<g id="edge2" class="edge"><title>Node1&#45;&gt;Node2</title>
<path fill="none" stroke="midnightblue" d="M156.22,-39.76C169.441,-41.1517 182.971,-42.5759 195.765,-43.9226"/>
<polygon fill="midnightblue" stroke="midnightblue" points="156.499,-36.2701 146.187,-38.7039 155.766,-43.2316 156.499,-36.2701"/>
</g>
<!-- Node3 -->
<g id="node5" class="node"><title>Node3</title>
<a xlink:href="../../d4/d35/structns_style_image.html#ae29592f24007d85fe1c33c68994f12c1" target="_top" xlink:title="nsStyleImage::ImageDataEquals">
<polygon fill="white" stroke="black" points="182.5,-0.5 182.5,-21.5 343.5,-21.5 343.5,-0.5 182.5,-0.5"/>
<text text-anchor="middle" x="263" y="-8.5" font-family="Helvetica,sans-Serif" font-size="10.00">nsStyleImage::ImageDataEquals</text>
</a>
</g>
<!-- Node1&#45;&gt;Node3 -->
<g id="edge4" class="edge"><title>Node1&#45;&gt;Node3</title>
<path fill="none" stroke="midnightblue" d="M156.25,-22.2369C164.888,-21.3276 173.658,-20.4045 182.267,-19.4982"/>
<polygon fill="midnightblue" stroke="midnightblue" points="155.766,-18.7684 146.187,-23.2961 156.499,-25.7299 155.766,-18.7684"/>
</g>
</g>
</svg>
