<?xml version="1.0" encoding="UTF-8" standalone="no"?>
<!DOCTYPE svg PUBLIC "-//W3C//DTD SVG 1.1//EN"
 "http://www.w3.org/Graphics/SVG/1.1/DTD/svg11.dtd">
<!-- Generated by graphviz version 2.26.3 (20100126.1600)
 -->
<!-- Title: G Pages: 1 -->
<svg width="444pt" height="110pt"
 viewBox="0.00 0.00 444.00 110.00" xmlns="http://www.w3.org/2000/svg" xmlns:xlink="http://www.w3.org/1999/xlink">
<g id="graph1" class="graph" transform="scale(1 1) rotate(0) translate(4 106)">
<title>G</title>
<polygon fill="white" stroke="white" points="-4,5 -4,-106 441,-106 441,5 -4,5"/>
<!-- Node1 -->
<g id="node1" class="node"><title>Node1</title>
<polygon fill="#bfbfbf" stroke="black" points="0,-40.5 0,-61.5 80,-61.5 80,-40.5 0,-40.5"/>
<text text-anchor="middle" x="40" y="-48.5" font-family="Helvetica,sans-Serif" font-size="10.00">NS_NewAtom</text>
</g>
<!-- Node2 -->
<g id="node3" class="node"><title>Node2</title>
<a xlink:href="../../de/d25/ns_i_atom_8idl.html#ab8cf41182a48586d75996674b1df698d" target="_top" xlink:title="do_GetAtom">
<polygon fill="white" stroke="black" points="116.5,-40.5 116.5,-61.5 187.5,-61.5 187.5,-40.5 116.5,-40.5"/>
<text text-anchor="middle" x="152" y="-48.5" font-family="Helvetica,sans-Serif" font-size="10.00">do_GetAtom</text>
</a>
</g>
<!-- Node1&#45;&gt;Node2 -->
<g id="edge2" class="edge"><title>Node1&#45;&gt;Node2</title>
<path fill="none" stroke="midnightblue" d="M90.266,-51C99.029,-51 107.981,-51 116.252,-51"/>
<polygon fill="midnightblue" stroke="midnightblue" points="90.1183,-47.5001 80.1182,-51 90.1182,-54.5001 90.1183,-47.5001"/>
</g>
<!-- Node3 -->
<g id="node5" class="node"><title>Node3</title>
<a xlink:href="../../da/da8/classmozilla_1_1dom_1_1_event_target.html#a1988e4a935b01aaa3b243e377e09df3b" target="_top" xlink:title="mozilla::dom::EventTarget::GetEventHandler">
<polygon fill="white" stroke="black" points="224,-80.5 224,-101.5 436,-101.5 436,-80.5 224,-80.5"/>
<text text-anchor="middle" x="330" y="-88.5" font-family="Helvetica,sans-Serif" font-size="10.00">mozilla::dom::EventTarget::GetEventHandler</text>
</a>
</g>
<!-- Node2&#45;&gt;Node3 -->
<g id="edge4" class="edge"><title>Node2&#45;&gt;Node3</title>
<path fill="none" stroke="midnightblue" d="M197.443,-64.2491C206.221,-66.6306 215.37,-68.9911 224,-71 238.592,-74.3968 254.415,-77.6238 269.276,-80.4553"/>
<polygon fill="midnightblue" stroke="midnightblue" points="198.308,-60.8572 187.738,-61.569 196.445,-67.6047 198.308,-60.8572"/>
</g>
<!-- Node4 -->
<g id="node7" class="node"><title>Node4</title>
<a xlink:href="../../de/d2e/classns_html5_tree_operation.html#a6c8fd814dbd679cb87f73ad7e2a37b8f" target="_top" xlink:title="nsHtml5TreeOperation::Reget">
<polygon fill="white" stroke="black" points="256.5,-40.5 256.5,-61.5 403.5,-61.5 403.5,-40.5 256.5,-40.5"/>
<text text-anchor="middle" x="330" y="-48.5" font-family="Helvetica,sans-Serif" font-size="10.00">nsHtml5TreeOperation::Reget</text>
</a>
</g>
<!-- Node2&#45;&gt;Node4 -->
<g id="edge6" class="edge"><title>Node2&#45;&gt;Node4</title>
<path fill="none" stroke="midnightblue" d="M197.696,-51C215.508,-51 236.38,-51 256.213,-51"/>
<polygon fill="midnightblue" stroke="midnightblue" points="197.593,-47.5001 187.593,-51 197.593,-54.5001 197.593,-47.5001"/>
</g>
<!-- Node5 -->
<g id="node9" class="node"><title>Node5</title>
<a xlink:href="../../da/da8/classmozilla_1_1dom_1_1_event_target.html#ac2661930b558271ef43be684b843ad4e" target="_top" xlink:title="mozilla::dom::EventTarget::SetEventHandler">
<polygon fill="white" stroke="black" points="224,-0.5 224,-21.5 436,-21.5 436,-0.5 224,-0.5"/>
<text text-anchor="middle" x="330" y="-8.5" font-family="Helvetica,sans-Serif" font-size="10.00">mozilla::dom::EventTarget::SetEventHandler</text>
</a>
</g>
<!-- Node2&#45;&gt;Node5 -->
<g id="edge8" class="edge"><title>Node2&#45;&gt;Node5</title>
<path fill="none" stroke="midnightblue" d="M197.443,-37.7509C206.221,-35.3694 215.37,-33.0089 224,-31 238.592,-27.6032 254.415,-24.3762 269.276,-21.5447"/>
<polygon fill="midnightblue" stroke="midnightblue" points="196.445,-34.3953 187.738,-40.431 198.308,-41.1428 196.445,-34.3953"/>
</g>
</g>
</svg>
