<?xml version="1.0" encoding="UTF-8" standalone="no"?>
<!DOCTYPE svg PUBLIC "-//W3C//DTD SVG 1.1//EN"
 "http://www.w3.org/Graphics/SVG/1.1/DTD/svg11.dtd">
<!-- Generated by graphviz version 2.26.3 (20100126.1600)
 -->
<!-- Title: G Pages: 1 -->
<svg width="328pt" height="110pt"
 viewBox="0.00 0.00 328.00 110.00" xmlns="http://www.w3.org/2000/svg" xmlns:xlink="http://www.w3.org/1999/xlink">
<g id="graph1" class="graph" transform="scale(1 1) rotate(0) translate(4 106)">
<title>G</title>
<polygon fill="white" stroke="white" points="-4,5 -4,-106 325,-106 325,5 -4,5"/>
<!-- Node1 -->
<g id="node1" class="node"><title>Node1</title>
<polygon fill="#bfbfbf" stroke="black" points="0.5,-40.5 0.5,-61.5 71.5,-61.5 71.5,-40.5 0.5,-40.5"/>
<text text-anchor="middle" x="36" y="-48.5" font-family="Helvetica,sans-Serif" font-size="10.00">do_GetAtom</text>
</g>
<!-- Node2 -->
<g id="node3" class="node"><title>Node2</title>
<a xlink:href="../../da/da8/classmozilla_1_1dom_1_1_event_target.html#a1988e4a935b01aaa3b243e377e09df3b" target="_top" xlink:title="mozilla::dom::EventTarget::GetEventHandler">
<polygon fill="white" stroke="black" points="108,-80.5 108,-101.5 320,-101.5 320,-80.5 108,-80.5"/>
<text text-anchor="middle" x="214" y="-88.5" font-family="Helvetica,sans-Serif" font-size="10.00">mozilla::dom::EventTarget::GetEventHandler</text>
</a>
</g>
<!-- Node1&#45;&gt;Node2 -->
<g id="edge2" class="edge"><title>Node1&#45;&gt;Node2</title>
<path fill="none" stroke="midnightblue" d="M81.4427,-64.2491C90.2207,-66.6306 99.3704,-68.9911 108,-71 122.592,-74.3968 138.415,-77.6238 153.276,-80.4553"/>
<polygon fill="midnightblue" stroke="midnightblue" points="82.3084,-60.8572 71.7375,-61.569 80.4451,-67.6047 82.3084,-60.8572"/>
</g>
<!-- Node3 -->
<g id="node5" class="node"><title>Node3</title>
<a xlink:href="../../de/d2e/classns_html5_tree_operation.html#a6c8fd814dbd679cb87f73ad7e2a37b8f" target="_top" xlink:title="nsHtml5TreeOperation::Reget">
<polygon fill="white" stroke="black" points="140.5,-40.5 140.5,-61.5 287.5,-61.5 287.5,-40.5 140.5,-40.5"/>
<text text-anchor="middle" x="214" y="-48.5" font-family="Helvetica,sans-Serif" font-size="10.00">nsHtml5TreeOperation::Reget</text>
</a>
</g>
<!-- Node1&#45;&gt;Node3 -->
<g id="edge4" class="edge"><title>Node1&#45;&gt;Node3</title>
<path fill="none" stroke="midnightblue" d="M81.6961,-51C99.5081,-51 120.38,-51 140.213,-51"/>
<polygon fill="midnightblue" stroke="midnightblue" points="81.5932,-47.5001 71.5931,-51 81.5931,-54.5001 81.5932,-47.5001"/>
</g>
<!-- Node4 -->
<g id="node7" class="node"><title>Node4</title>
<a xlink:href="../../da/da8/classmozilla_1_1dom_1_1_event_target.html#ac2661930b558271ef43be684b843ad4e" target="_top" xlink:title="mozilla::dom::EventTarget::SetEventHandler">
<polygon fill="white" stroke="black" points="108,-0.5 108,-21.5 320,-21.5 320,-0.5 108,-0.5"/>
<text text-anchor="middle" x="214" y="-8.5" font-family="Helvetica,sans-Serif" font-size="10.00">mozilla::dom::EventTarget::SetEventHandler</text>
</a>
</g>
<!-- Node1&#45;&gt;Node4 -->
<g id="edge6" class="edge"><title>Node1&#45;&gt;Node4</title>
<path fill="none" stroke="midnightblue" d="M81.4427,-37.7509C90.2207,-35.3694 99.3704,-33.0089 108,-31 122.592,-27.6032 138.415,-24.3762 153.276,-21.5447"/>
<polygon fill="midnightblue" stroke="midnightblue" points="80.4451,-34.3953 71.7375,-40.431 82.3084,-41.1428 80.4451,-34.3953"/>
</g>
</g>
</svg>
