<?xml version="1.0" encoding="UTF-8" standalone="no"?>
<!DOCTYPE svg PUBLIC "-//W3C//DTD SVG 1.1//EN"
 "http://www.w3.org/Graphics/SVG/1.1/DTD/svg11.dtd">
<!-- Generated by graphviz version 2.26.3 (20100126.1600)
 -->
<!-- Title: G Pages: 1 -->
<!--zoomable 772 -->
<svg id="main" version="1.1" xmlns="http://www.w3.org/2000/svg" xmlns:xlink="http://www.w3.org/1999/xlink" xml:space="preserve" onload="init(evt)">
        <defs>
                <circle id="rim" cx="0" cy="0" r="7"/>
                <circle id="rim2" cx="0" cy="0" r="3.5"/>
                <g id="zoomPlus">
                        <use xlink:href="#rim" fill="#404040">
                                <set attributeName="fill" to="#808080" begin="zoomplus.mouseover" end="zoomplus.mouseout"/>
                        </use>
                        <path d="M-4,0h8M0,-4v8" fill="none" stroke="white" stroke-width="1.5" pointer-events="none"/>
                </g>
                <g id="zoomMin">
                        <use xlink:href="#rim" fill="#404040">
                                <set attributeName="fill" to="#808080" begin="zoomminus.mouseover" end="zoomminus.mouseout"/>
                        </use>
                        <path d="M-4,0h8" fill="none" stroke="white" stroke-width="1.5" pointer-events="none"/>
                </g>
                <g id="dirArrow">
                        <path fill="none" stroke="white" stroke-width="1.5" d="M0,-3.0v7 M-2.5,-0.5L0,-3.0L2.5,-0.5"/>
                </g>
               <g id="resetDef">
                       <use xlink:href="#rim2" fill="#404040">
                               <set attributeName="fill" to="#808080" begin="reset.mouseover" end="reset.mouseout"/>
                       </use>
               </g>
        </defs>

<script type="text/javascript">
var viewWidth = 1680;
var viewHeight = 772;
var sectionId = 'dynsection-1';
</script>
<script xlink:href="../../svgpan.js"/>
<svg id="graph" class="graph">
<g id="viewport">
<title>G</title>
<polygon fill="white" stroke="white" points="-4,5 -4,-768.418 1677,-768.418 1677,5 -4,5"/>
<!-- Node1 -->
<g id="node1" class="node"><title>Node1</title>
<polygon fill="#bfbfbf" stroke="black" points="1524.5,-323.918 1524.5,-344.918 1667.5,-344.918 1667.5,-323.918 1524.5,-323.918"/>
<text text-anchor="middle" x="1596" y="-331.918" font-family="Helvetica,sans-Serif" font-size="10.00">mozilla::layers::CanvasLayer</text>
</g>
<!-- Node2 -->
<g id="node2" class="node"><title>Node2</title>
<a xlink:href="../../d9/da9/classmozilla_1_1layers_1_1_layer.html" target="_top" xlink:title="mozilla::layers::Layer">
<polygon fill="white" stroke="black" points="1264,-299.918 1264,-320.918 1374,-320.918 1374,-299.918 1264,-299.918"/>
<text text-anchor="middle" x="1319" y="-307.918" font-family="Helvetica,sans-Serif" font-size="10.00">mozilla::layers::Layer</text>
</a>
</g>
<!-- Node2&#45;&gt;Node1 -->
<g id="edge2" class="edge"><title>Node2&#45;&gt;Node1</title>
<path fill="none" stroke="midnightblue" d="M1384.15,-308.28C1419.2,-307.936 1463.09,-308.801 1502,-313.418 1520.27,-315.585 1540.19,-319.767 1556.97,-323.832"/>
<polygon fill="midnightblue" stroke="midnightblue" points="1384,-304.781 1374.05,-308.415 1384.09,-311.781 1384,-304.781"/>
</g>
<!-- Node2&#45;&gt;Node2 -->
<g id="edge4" class="edge"><title>Node2&#45;&gt;Node2</title>
<path fill="none" stroke="#9a32cd" stroke-dasharray="5,2" d="M1291.95,-330.473C1293.73,-335.582 1302.74,-339.418 1319,-339.418 1344.38,-339.418 1352.11,-330.071 1342.2,-321.126"/>
<polygon fill="#9a32cd" stroke="#9a32cd" points="1295.23,-331.705 1295.8,-321.126 1288.76,-329.039 1295.23,-331.705"/>
<text text-anchor="middle" x="1319" y="-356.418" font-family="Helvetica,sans-Serif" font-size="10.00"> mPrevSibling</text>
<text text-anchor="middle" x="1319" y="-343.418" font-family="Helvetica,sans-Serif" font-size="10.00">mNextSibling</text>
</g>
<!-- Node12 -->
<g id="node23" class="node"><title>Node12</title>
<a xlink:href="../../d0/d1c/classmozilla_1_1layers_1_1_container_layer.html" target="_top" xlink:title="mozilla::layers::ContainerLayer">
<polygon fill="white" stroke="black" points="1520,-398.918 1520,-419.918 1672,-419.918 1672,-398.918 1520,-398.918"/>
<text text-anchor="middle" x="1596" y="-406.918" font-family="Helvetica,sans-Serif" font-size="10.00">mozilla::layers::ContainerLayer</text>
</a>
</g>
<!-- Node2&#45;&gt;Node12 -->
<g id="edge26" class="edge"><title>Node2&#45;&gt;Node12</title>
<path fill="none" stroke="midnightblue" d="M1335.94,-328.529C1356.16,-348.806 1392.03,-380.74 1430,-395.418 1458.06,-406.262 1490.71,-410.606 1519.6,-411.941"/>
<polygon fill="midnightblue" stroke="midnightblue" points="1338.23,-325.864 1328.75,-321.139 1333.22,-330.746 1338.23,-325.864"/>
</g>
<!-- Node2&#45;&gt;Node12 -->
<g id="edge30" class="edge"><title>Node2&#45;&gt;Node12</title>
<path fill="none" stroke="#9a32cd" stroke-dasharray="5,2" d="M1359.5,-324.151C1380.46,-331.106 1406.51,-339.515 1430,-346.418 1461.75,-355.749 1470.89,-354.135 1502,-365.418 1528.43,-375.001 1557.55,-389.244 1576.27,-398.908"/>
<polygon fill="#9a32cd" stroke="#9a32cd" points="1360.55,-320.812 1349.96,-320.969 1358.34,-327.453 1360.55,-320.812"/>
<text text-anchor="middle" x="1466" y="-382.418" font-family="Helvetica,sans-Serif" font-size="10.00"> mFirstChild</text>
<text text-anchor="middle" x="1466" y="-369.418" font-family="Helvetica,sans-Serif" font-size="10.00">mLastChild</text>
</g>
<!-- Node3 -->
<g id="node5" class="node"><title>Node3</title>
<a xlink:href="../../d8/d2e/classmozilla_1_1_debug_only.html" target="_top" xlink:title="mozilla::DebugOnly\&lt; uint32_t \&gt;">
<polygon fill="white" stroke="black" points="857.5,-454.918 857.5,-475.918 1012.5,-475.918 1012.5,-454.918 857.5,-454.918"/>
<text text-anchor="middle" x="935" y="-462.918" font-family="Helvetica,sans-Serif" font-size="10.00">mozilla::DebugOnly&lt; uint32_t &gt;</text>
</a>
</g>
<!-- Node3&#45;&gt;Node2 -->
<g id="edge6" class="edge"><title>Node3&#45;&gt;Node2</title>
<path fill="none" stroke="#9a32cd" stroke-dasharray="5,2" d="M1022.96,-464.436C1078.65,-460.634 1150.71,-449.672 1208,-420.418 1255.84,-395.988 1296.08,-343.546 1311.86,-321.037"/>
<polygon fill="#9a32cd" stroke="#9a32cd" points="1022.52,-460.956 1012.75,-465.066 1022.95,-467.943 1022.52,-460.956"/>
<text text-anchor="middle" x="1150" y="-459.418" font-family="Helvetica,sans-Serif" font-size="10.00"> mDebugColorIndex</text>
</g>
<!-- Node4 -->
<g id="node7" class="node"><title>Node4</title>
<a xlink:href="../../d7/dc7/structns_int_rect.html" target="_top" xlink:title="nsIntRect">
<polygon fill="white" stroke="black" points="905.5,-407.918 905.5,-428.918 964.5,-428.918 964.5,-407.918 905.5,-407.918"/>
<text text-anchor="middle" x="935" y="-415.918" font-family="Helvetica,sans-Serif" font-size="10.00">nsIntRect</text>
</a>
</g>
<!-- Node4&#45;&gt;Node1 -->
<g id="edge78" class="edge"><title>Node4&#45;&gt;Node1</title>
<path fill="none" stroke="#9a32cd" stroke-dasharray="5,2" d="M974.673,-424.361C1069.14,-436.923 1313.59,-460.003 1502,-395.418 1534.57,-384.252 1567.04,-359.366 1583.98,-345.07"/>
<polygon fill="#9a32cd" stroke="#9a32cd" points="975.074,-420.884 964.692,-422.998 974.126,-427.819 975.074,-420.884"/>
<text text-anchor="middle" x="1319" y="-441.418" font-family="Helvetica,sans-Serif" font-size="10.00"> mBounds</text>
</g>
<!-- Node4&#45;&gt;Node2 -->
<g id="edge8" class="edge"><title>Node4&#45;&gt;Node2</title>
<path fill="none" stroke="#9a32cd" stroke-dasharray="5,2" d="M974.879,-411.83C1039.77,-400.893 1165.27,-378.771 1208,-364.418 1242.13,-352.955 1279.27,-333.281 1300.77,-321.11"/>
<polygon fill="#9a32cd" stroke="#9a32cd" points="973.912,-408.443 964.629,-413.55 975.071,-415.347 973.912,-408.443"/>
<text text-anchor="middle" x="1150" y="-407.418" font-family="Helvetica,sans-Serif" font-size="10.00"> mClipRect</text>
<text text-anchor="middle" x="1150" y="-394.418" font-family="Helvetica,sans-Serif" font-size="10.00">mTileSourceRect</text>
</g>
<!-- Node5 -->
<g id="node9" class="node"><title>Node5</title>
<a xlink:href="../../dc/db8/structmozilla_1_1gfx_1_1_base_rect.html" target="_top" xlink:title="mozilla::gfx::BaseRect\&lt; int32_t, nsIntRect, nsIntPoint, nsIntSize, nsIntMargin \&gt;">
<polygon fill="white" stroke="black" points="219.5,-407.918 219.5,-428.918 586.5,-428.918 586.5,-407.918 219.5,-407.918"/>
<text text-anchor="middle" x="403" y="-415.918" font-family="Helvetica,sans-Serif" font-size="10.00">mozilla::gfx::BaseRect&lt; int32_t, nsIntRect, nsIntPoint, nsIntSize, nsIntMargin &gt;</text>
</a>
</g>
<!-- Node5&#45;&gt;Node4 -->
<g id="edge10" class="edge"><title>Node5&#45;&gt;Node4</title>
<path fill="none" stroke="midnightblue" d="M596.835,-418.418C711.866,-418.418 846.374,-418.418 905.067,-418.418"/>
<polygon fill="midnightblue" stroke="midnightblue" points="596.829,-414.918 586.829,-418.418 596.829,-421.918 596.829,-414.918"/>
</g>
<!-- Node6 -->
<g id="node11" class="node"><title>Node6</title>
<a xlink:href="../../de/d80/structmozilla_1_1gfx_1_1_point_typed.html" target="_top" xlink:title="mozilla::gfx::PointTyped\&lt; LayerPixel \&gt;">
<polygon fill="white" stroke="black" points="842,-350.918 842,-371.918 1028,-371.918 1028,-350.918 842,-350.918"/>
<text text-anchor="middle" x="935" y="-358.918" font-family="Helvetica,sans-Serif" font-size="10.00">mozilla::gfx::PointTyped&lt; LayerPixel &gt;</text>
</a>
</g>
<!-- Node6&#45;&gt;Node2 -->
<g id="edge12" class="edge"><title>Node6&#45;&gt;Node2</title>
<path fill="none" stroke="#9a32cd" stroke-dasharray="5,2" d="M1038.26,-353.333C1089.47,-348.687 1152.16,-342.044 1208,-333.418 1229.69,-330.068 1253.54,-325.273 1273.56,-320.927"/>
<polygon fill="#9a32cd" stroke="#9a32cd" points="1037.82,-349.858 1028.17,-354.235 1038.45,-356.83 1037.82,-349.858"/>
<text text-anchor="middle" x="1150" y="-351.418" font-family="Helvetica,sans-Serif" font-size="10.00"> mAnchor</text>
</g>
<!-- Node7 -->
<g id="node13" class="node"><title>Node7</title>
<a xlink:href="../../d2/dfb/structmozilla_1_1gfx_1_1_base_point.html" target="_top" xlink:title="mozilla::gfx::BasePoint\&lt; Float, PointTyped\&lt; LayerPixel \&gt; \&gt;">
<polygon fill="white" stroke="black" points="264.5,-362.918 264.5,-383.918 541.5,-383.918 541.5,-362.918 264.5,-362.918"/>
<text text-anchor="middle" x="403" y="-370.918" font-family="Helvetica,sans-Serif" font-size="10.00">mozilla::gfx::BasePoint&lt; Float, PointTyped&lt; LayerPixel &gt; &gt;</text>
</a>
</g>
<!-- Node7&#45;&gt;Node6 -->
<g id="edge14" class="edge"><title>Node7&#45;&gt;Node6</title>
<path fill="none" stroke="midnightblue" d="M551.804,-370.061C644.819,-367.963 761.73,-365.326 841.805,-363.52"/>
<polygon fill="midnightblue" stroke="midnightblue" points="551.653,-366.564 541.735,-370.289 551.811,-373.562 551.653,-366.564"/>
</g>
<!-- Node8 -->
<g id="node15" class="node"><title>Node8</title>
<a xlink:href="../../da/db9/structmozilla_1_1_layer_pixel.html" target="_top" xlink:title="mozilla::LayerPixel">
<polygon fill="white" stroke="black" points="353.5,-322.918 353.5,-343.918 452.5,-343.918 452.5,-322.918 353.5,-322.918"/>
<text text-anchor="middle" x="403" y="-330.918" font-family="Helvetica,sans-Serif" font-size="10.00">mozilla::LayerPixel</text>
</a>
</g>
<!-- Node8&#45;&gt;Node6 -->
<g id="edge16" class="edge"><title>Node8&#45;&gt;Node6</title>
<path fill="none" stroke="midnightblue" d="M462.568,-336.553C554.742,-341.404 732.675,-350.769 841.924,-356.519"/>
<polygon fill="midnightblue" stroke="midnightblue" points="462.742,-333.058 452.572,-336.027 462.374,-340.048 462.742,-333.058"/>
</g>
<!-- Node26 -->
<g id="node54" class="node"><title>Node26</title>
<a xlink:href="../../d8/d1c/structmozilla_1_1gfx_1_1_margin_typed.html" target="_top" xlink:title="mozilla::gfx::MarginTyped\&lt; LayerPixel \&gt;">
<polygon fill="white" stroke="black" points="838.5,-310.918 838.5,-331.918 1031.5,-331.918 1031.5,-310.918 838.5,-310.918"/>
<text text-anchor="middle" x="935" y="-318.918" font-family="Helvetica,sans-Serif" font-size="10.00">mozilla::gfx::MarginTyped&lt; LayerPixel &gt;</text>
</a>
</g>
<!-- Node8&#45;&gt;Node26 -->
<g id="edge62" class="edge"><title>Node8&#45;&gt;Node26</title>
<path fill="none" stroke="midnightblue" d="M462.74,-332.07C553.989,-330.012 728.996,-326.065 838.441,-323.596"/>
<polygon fill="midnightblue" stroke="midnightblue" points="462.49,-328.575 452.572,-332.3 462.648,-335.573 462.49,-328.575"/>
</g>
<!-- Node9 -->
<g id="node17" class="node"><title>Node9</title>
<a xlink:href="../../d6/d3b/classgfx3_d_matrix.html" target="_top" xlink:title="gfx3DMatrix">
<polygon fill="white" stroke="black" points="900,-270.918 900,-291.918 970,-291.918 970,-270.918 900,-270.918"/>
<text text-anchor="middle" x="935" y="-278.918" font-family="Helvetica,sans-Serif" font-size="10.00">gfx3DMatrix</text>
</a>
</g>
<!-- Node9&#45;&gt;Node2 -->
<g id="edge18" class="edge"><title>Node9&#45;&gt;Node2</title>
<path fill="none" stroke="#9a32cd" stroke-dasharray="5,2" d="M980.065,-278.577C1034.36,-275.884 1128.24,-273.56 1208,-283.418 1233.98,-286.629 1262.68,-293.707 1284.39,-299.811"/>
<polygon fill="#9a32cd" stroke="#9a32cd" points="979.878,-275.082 970.075,-279.099 980.244,-282.072 979.878,-275.082"/>
<text text-anchor="middle" x="1150" y="-300.418" font-family="Helvetica,sans-Serif" font-size="10.00"> mEffectiveTransform</text>
<text text-anchor="middle" x="1150" y="-287.418" font-family="Helvetica,sans-Serif" font-size="10.00">mTransform</text>
</g>
<!-- Node10 -->
<g id="node19" class="node"><title>Node10</title>
<a xlink:href="../../d1/db5/classmozilla_1_1gfx_1_1_user_data.html" target="_top" xlink:title="mozilla::gfx::UserData">
<polygon fill="white" stroke="black" points="345.5,-231.918 345.5,-252.918 460.5,-252.918 460.5,-231.918 345.5,-231.918"/>
<text text-anchor="middle" x="403" y="-239.918" font-family="Helvetica,sans-Serif" font-size="10.00">mozilla::gfx::UserData</text>
</a>
</g>
<!-- Node10&#45;&gt;Node2 -->
<g id="edge20" class="edge"><title>Node10&#45;&gt;Node2</title>
<path fill="none" stroke="#9a32cd" stroke-dasharray="5,2" d="M470.857,-239.267C592.193,-234.468 854.219,-227.901 1074,-248.418 1134.24,-254.042 1149.43,-257.242 1208,-272.418 1237.18,-279.979 1269.72,-291.498 1291.98,-299.872"/>
<polygon fill="#9a32cd" stroke="#9a32cd" points="470.461,-235.78 460.611,-239.681 470.744,-242.774 470.461,-235.78"/>
<text text-anchor="middle" x="935" y="-252.418" font-family="Helvetica,sans-Serif" font-size="10.00"> mUserData</text>
</g>
<!-- Node28 -->
<g id="node59" class="node"><title>Node28</title>
<a xlink:href="../../d1/d01/classmozilla_1_1layers_1_1_layer_manager.html" target="_top" xlink:title="mozilla::layers::LayerManager">
<polygon fill="white" stroke="black" points="861.5,-179.918 861.5,-200.918 1008.5,-200.918 1008.5,-179.918 861.5,-179.918"/>
<text text-anchor="middle" x="935" y="-187.918" font-family="Helvetica,sans-Serif" font-size="10.00">mozilla::layers::LayerManager</text>
</a>
</g>
<!-- Node10&#45;&gt;Node28 -->
<g id="edge70" class="edge"><title>Node10&#45;&gt;Node28</title>
<path fill="none" stroke="#9a32cd" stroke-dasharray="5,2" d="M470.699,-235.801C570.875,-226.009 757.862,-207.732 861.353,-197.617"/>
<polygon fill="#9a32cd" stroke="#9a32cd" points="470.304,-232.323 460.692,-236.779 470.985,-239.289 470.304,-232.323"/>
<text text-anchor="middle" x="751" y="-213.418" font-family="Helvetica,sans-Serif" font-size="10.00"> mUserData</text>
</g>
<!-- Node11 -->
<g id="node21" class="node"><title>Node11</title>
<a xlink:href="../../d1/d89/classns_auto_ptr.html" target="_top" xlink:title="nsAutoPtr\&lt; gfx3DMatrix \&gt;">
<polygon fill="white" stroke="black" points="869.5,-63.918 869.5,-84.918 1000.5,-84.918 1000.5,-63.918 869.5,-63.918"/>
<text text-anchor="middle" x="935" y="-71.918" font-family="Helvetica,sans-Serif" font-size="10.00">nsAutoPtr&lt; gfx3DMatrix &gt;</text>
</a>
</g>
<!-- Node11&#45;&gt;Node2 -->
<g id="edge22" class="edge"><title>Node11&#45;&gt;Node2</title>
<path fill="none" stroke="#9a32cd" stroke-dasharray="5,2" d="M998.346,-62.5585C1057.55,-55.0415 1145.9,-53.3243 1208,-94.418 1283.77,-144.561 1310.63,-263.346 1317.23,-299.675"/>
<polygon fill="#9a32cd" stroke="#9a32cd" points="997.811,-59.0989 988.374,-63.9142 998.754,-66.0351 997.811,-59.0989"/>
<text text-anchor="middle" x="1150" y="-98.418" font-family="Helvetica,sans-Serif" font-size="10.00"> mPendingTransform</text>
</g>
<!-- Node12&#45;&gt;Node2 -->
<g id="edge24" class="edge"><title>Node12&#45;&gt;Node2</title>
<path fill="none" stroke="#9a32cd" stroke-dasharray="5,2" d="M1570.65,-393.28C1555.3,-382.988 1535.72,-368.899 1520,-354.418 1510.96,-346.09 1512.83,-339.242 1502,-333.418 1462.8,-312.33 1412.22,-307.361 1374.17,-307.225"/>
<polygon fill="#9a32cd" stroke="#9a32cd" points="1568.86,-396.293 1579.13,-398.876 1572.71,-390.449 1568.86,-396.293"/>
<text text-anchor="middle" x="1466" y="-337.418" font-family="Helvetica,sans-Serif" font-size="10.00"> mParent</text>
</g>
<!-- Node13 -->
<g id="node26" class="node"><title>Node13</title>
<a xlink:href="../../d0/d01/classns_ref_ptr.html" target="_top" xlink:title="nsRefPtr\&lt; AsyncPanZoomController \&gt;">
<polygon fill="white" stroke="black" points="1226.5,-593.918 1226.5,-614.918 1411.5,-614.918 1411.5,-593.918 1226.5,-593.918"/>
<text text-anchor="middle" x="1319" y="-601.918" font-family="Helvetica,sans-Serif" font-size="10.00">nsRefPtr&lt; AsyncPanZoomController &gt;</text>
</a>
</g>
<!-- Node13&#45;&gt;Node12 -->
<g id="edge28" class="edge"><title>Node13&#45;&gt;Node12</title>
<path fill="none" stroke="#9a32cd" stroke-dasharray="5,2" d="M1395.07,-590.915C1400.89,-589.02 1406.6,-586.866 1412,-584.418 1496.71,-545.989 1566.78,-452.024 1588.79,-420.177"/>
<polygon fill="#9a32cd" stroke="#9a32cd" points="1393.76,-587.653 1385.17,-593.866 1395.76,-594.361 1393.76,-587.653"/>
<text text-anchor="middle" x="1466" y="-578.418" font-family="Helvetica,sans-Serif" font-size="10.00"> mAPZC</text>
</g>
<!-- Node14 -->
<g id="node29" class="node"><title>Node14</title>
<a xlink:href="../../d5/d2f/structmozilla_1_1layers_1_1_frame_metrics.html" target="_top" xlink:title="mozilla::layers::FrameMetrics">
<polygon fill="white" stroke="black" points="1246,-553.918 1246,-574.918 1392,-574.918 1392,-553.918 1246,-553.918"/>
<text text-anchor="middle" x="1319" y="-561.918" font-family="Helvetica,sans-Serif" font-size="10.00">mozilla::layers::FrameMetrics</text>
</a>
</g>
<!-- Node14&#45;&gt;Node12 -->
<g id="edge32" class="edge"><title>Node14&#45;&gt;Node12</title>
<path fill="none" stroke="#9a32cd" stroke-dasharray="5,2" d="M1346.77,-548.881C1403.07,-517.373 1529.4,-446.687 1577.19,-419.941"/>
<polygon fill="#9a32cd" stroke="#9a32cd" points="1345.06,-545.827 1338.04,-553.764 1348.48,-551.935 1345.06,-545.827"/>
<text text-anchor="middle" x="1466" y="-504.418" font-family="Helvetica,sans-Serif" font-size="10.00"> mFrameMetrics</text>
</g>
<!-- Node15 -->
<g id="node31" class="node"><title>Node15</title>
<a xlink:href="../../de/d80/structmozilla_1_1gfx_1_1_point_typed.html" target="_top" xlink:title="mozilla::gfx::PointTyped\&lt; CSSPixel \&gt;">
<polygon fill="white" stroke="black" points="843.5,-722.918 843.5,-743.918 1026.5,-743.918 1026.5,-722.918 843.5,-722.918"/>
<text text-anchor="middle" x="935" y="-730.918" font-family="Helvetica,sans-Serif" font-size="10.00">mozilla::gfx::PointTyped&lt; CSSPixel &gt;</text>
</a>
</g>
<!-- Node15&#45;&gt;Node14 -->
<g id="edge34" class="edge"><title>Node15&#45;&gt;Node14</title>
<path fill="none" stroke="#9a32cd" stroke-dasharray="5,2" d="M987.587,-745.834C1048.98,-756.91 1149.53,-763.877 1208,-708.418 1248.4,-670.094 1187.98,-625.105 1226,-584.418 1231.53,-578.506 1238.34,-574.124 1245.75,-570.903"/>
<polygon fill="#9a32cd" stroke="#9a32cd" points="988.19,-742.386 977.712,-743.956 986.882,-749.263 988.19,-742.386"/>
<text text-anchor="middle" x="1150" y="-755.418" font-family="Helvetica,sans-Serif" font-size="10.00"> mScrollOffset</text>
</g>
<!-- Node16 -->
<g id="node33" class="node"><title>Node16</title>
<a xlink:href="../../d2/dfb/structmozilla_1_1gfx_1_1_base_point.html" target="_top" xlink:title="mozilla::gfx::BasePoint\&lt; Float, PointTyped\&lt; CSSPixel \&gt; \&gt;">
<polygon fill="white" stroke="black" points="266,-730.918 266,-751.918 540,-751.918 540,-730.918 266,-730.918"/>
<text text-anchor="middle" x="403" y="-738.918" font-family="Helvetica,sans-Serif" font-size="10.00">mozilla::gfx::BasePoint&lt; Float, PointTyped&lt; CSSPixel &gt; &gt;</text>
</a>
</g>
<!-- Node16&#45;&gt;Node15 -->
<g id="edge36" class="edge"><title>Node16&#45;&gt;Node15</title>
<path fill="none" stroke="midnightblue" d="M550.158,-739.205C643.986,-737.794 762.647,-736.01 843.227,-734.798"/>
<polygon fill="midnightblue" stroke="midnightblue" points="549.949,-735.708 540.003,-739.358 550.055,-742.707 549.949,-735.708"/>
</g>
<!-- Node17 -->
<g id="node35" class="node"><title>Node17</title>
<a xlink:href="../../da/d4f/structmozilla_1_1_c_s_s_pixel.html" target="_top" xlink:title="mozilla::CSSPixel">
<polygon fill="white" stroke="black" points="355,-690.918 355,-711.918 451,-711.918 451,-690.918 355,-690.918"/>
<text text-anchor="middle" x="403" y="-698.918" font-family="Helvetica,sans-Serif" font-size="10.00">mozilla::CSSPixel</text>
</a>
</g>
<!-- Node17&#45;&gt;Node15 -->
<g id="edge38" class="edge"><title>Node17&#45;&gt;Node15</title>
<path fill="none" stroke="midnightblue" d="M461.412,-704.931C553.634,-710.479 733.723,-721.311 843.305,-727.902"/>
<polygon fill="midnightblue" stroke="midnightblue" points="461.342,-701.421 451.15,-704.314 460.922,-708.408 461.342,-701.421"/>
</g>
<!-- Node24 -->
<g id="node49" class="node"><title>Node24</title>
<a xlink:href="../../d5/d9e/structmozilla_1_1gfx_1_1_rect_typed.html" target="_top" xlink:title="mozilla::gfx::RectTyped\&lt; CSSPixel \&gt;">
<polygon fill="white" stroke="black" points="844,-654.918 844,-675.918 1026,-675.918 1026,-654.918 844,-654.918"/>
<text text-anchor="middle" x="935" y="-662.918" font-family="Helvetica,sans-Serif" font-size="10.00">mozilla::gfx::RectTyped&lt; CSSPixel &gt;</text>
</a>
</g>
<!-- Node17&#45;&gt;Node24 -->
<g id="edge56" class="edge"><title>Node17&#45;&gt;Node24</title>
<path fill="none" stroke="midnightblue" d="M461.222,-697.642C522.229,-693.669 620.853,-687.203 706,-681.418 751.428,-678.332 801.919,-674.813 843.906,-671.863"/>
<polygon fill="midnightblue" stroke="midnightblue" points="460.773,-694.163 451.021,-698.305 461.228,-701.149 460.773,-694.163"/>
</g>
<!-- Node18 -->
<g id="node37" class="node"><title>Node18</title>
<a xlink:href="../../dc/d67/structmozilla_1_1gfx_1_1_scale_factor.html" target="_top" xlink:title="mozilla::gfx::ScaleFactor\&lt; CSSPixel, LayoutDevicePixel \&gt;">
<polygon fill="white" stroke="black" points="798,-614.918 798,-635.918 1072,-635.918 1072,-614.918 798,-614.918"/>
<text text-anchor="middle" x="935" y="-622.918" font-family="Helvetica,sans-Serif" font-size="10.00">mozilla::gfx::ScaleFactor&lt; CSSPixel, LayoutDevicePixel &gt;</text>
</a>
</g>
<!-- Node18&#45;&gt;Node14 -->
<g id="edge40" class="edge"><title>Node18&#45;&gt;Node14</title>
<path fill="none" stroke="#9a32cd" stroke-dasharray="5,2" d="M1082.4,-617.572C1123.64,-612.849 1168.08,-605.338 1208,-593.418 1216.57,-590.859 1217.56,-587.382 1226,-584.418 1236.44,-580.752 1247.79,-577.634 1258.85,-575.03"/>
<polygon fill="#9a32cd" stroke="#9a32cd" points="1081.83,-614.114 1072.27,-618.685 1082.59,-621.072 1081.83,-614.114"/>
<text text-anchor="middle" x="1150" y="-619.418" font-family="Helvetica,sans-Serif" font-size="10.00"> mDevPixelsPerCSSPixel</text>
</g>
<!-- Node19 -->
<g id="node39" class="node"><title>Node19</title>
<a xlink:href="../../dd/de9/structmozilla_1_1gfx_1_1_int_rect_typed.html" target="_top" xlink:title="mozilla::gfx::IntRectTyped\&lt; ScreenPixel \&gt;">
<polygon fill="white" stroke="black" points="833.5,-574.918 833.5,-595.918 1036.5,-595.918 1036.5,-574.918 833.5,-574.918"/>
<text text-anchor="middle" x="935" y="-582.918" font-family="Helvetica,sans-Serif" font-size="10.00">mozilla::gfx::IntRectTyped&lt; ScreenPixel &gt;</text>
</a>
</g>
<!-- Node19&#45;&gt;Node14 -->
<g id="edge42" class="edge"><title>Node19&#45;&gt;Node14</title>
<path fill="none" stroke="#9a32cd" stroke-dasharray="5,2" d="M1046.8,-579.304C1110.89,-575.799 1189.52,-571.499 1245.76,-568.423"/>
<polygon fill="#9a32cd" stroke="#9a32cd" points="1046.44,-575.818 1036.65,-579.859 1046.82,-582.808 1046.44,-575.818"/>
<text text-anchor="middle" x="1150" y="-580.418" font-family="Helvetica,sans-Serif" font-size="10.00"> mCompositionBounds</text>
</g>
<!-- Node20 -->
<g id="node41" class="node"><title>Node20</title>
<a xlink:href="../../dc/db8/structmozilla_1_1gfx_1_1_base_rect.html" target="_top" xlink:title="mozilla::gfx::BaseRect\&lt; int32_t, IntRectTyped\&lt; ScreenPixel \&gt;, IntPointTyped\&lt; ScreenPixel \&gt;, IntSizeTyped\&lt; ScreenPixel \&gt;, Margin \&gt;">
<polygon fill="white" stroke="black" points="100,-595.918 100,-616.918 706,-616.918 706,-595.918 100,-595.918"/>
<text text-anchor="middle" x="403" y="-603.918" font-family="Helvetica,sans-Serif" font-size="10.00">mozilla::gfx::BaseRect&lt; int32_t, IntRectTyped&lt; ScreenPixel &gt;, IntPointTyped&lt; ScreenPixel &gt;, IntSizeTyped&lt; ScreenPixel &gt;, Margin &gt;</text>
</a>
</g>
<!-- Node20&#45;&gt;Node19 -->
<g id="edge44" class="edge"><title>Node20&#45;&gt;Node19</title>
<path fill="none" stroke="midnightblue" d="M700.238,-595.519C726.536,-594.495 752.747,-593.452 778,-592.418 795.856,-591.687 814.853,-590.871 833.237,-590.063"/>
<polygon fill="midnightblue" stroke="midnightblue" points="700.013,-592.025 690.156,-595.91 700.284,-599.02 700.013,-592.025"/>
</g>
<!-- Node21 -->
<g id="node43" class="node"><title>Node21</title>
<a xlink:href="../../d4/d94/structmozilla_1_1_screen_pixel.html" target="_top" xlink:title="mozilla::ScreenPixel">
<polygon fill="white" stroke="black" points="350,-555.918 350,-576.918 456,-576.918 456,-555.918 350,-555.918"/>
<text text-anchor="middle" x="403" y="-563.918" font-family="Helvetica,sans-Serif" font-size="10.00">mozilla::ScreenPixel</text>
</a>
</g>
<!-- Node21&#45;&gt;Node19 -->
<g id="edge46" class="edge"><title>Node21&#45;&gt;Node19</title>
<path fill="none" stroke="midnightblue" d="M466.595,-568.689C557.408,-571.933 725.192,-577.925 833.354,-581.788"/>
<polygon fill="midnightblue" stroke="midnightblue" points="466.565,-565.186 456.446,-568.327 466.315,-572.182 466.565,-565.186"/>
</g>
<!-- Node22 -->
<g id="node45" class="node"><title>Node22</title>
<a xlink:href="../../dc/d67/structmozilla_1_1gfx_1_1_scale_factor.html" target="_top" xlink:title="mozilla::gfx::ScaleFactor\&lt; ScreenPixel, ScreenPixel \&gt;">
<polygon fill="white" stroke="black" points="808,-534.918 808,-555.918 1062,-555.918 1062,-534.918 808,-534.918"/>
<text text-anchor="middle" x="935" y="-542.918" font-family="Helvetica,sans-Serif" font-size="10.00">mozilla::gfx::ScaleFactor&lt; ScreenPixel, ScreenPixel &gt;</text>
</a>
</g>
<!-- Node22&#45;&gt;Node14 -->
<g id="edge48" class="edge"><title>Node22&#45;&gt;Node14</title>
<path fill="none" stroke="#9a32cd" stroke-dasharray="5,2" d="M1072.31,-543.388C1115.76,-543.693 1163.94,-545.015 1208,-548.418 1223.72,-549.632 1240.61,-551.68 1256.35,-553.912"/>
<polygon fill="#9a32cd" stroke="#9a32cd" points="1072.26,-539.887 1062.24,-543.334 1072.22,-546.887 1072.26,-539.887"/>
<text text-anchor="middle" x="1150" y="-552.418" font-family="Helvetica,sans-Serif" font-size="10.00"> mZoom</text>
</g>
<!-- Node23 -->
<g id="node47" class="node"><title>Node23</title>
<a xlink:href="../../dc/d67/structmozilla_1_1gfx_1_1_scale_factor.html" target="_top" xlink:title="mozilla::gfx::ScaleFactor\&lt; LayoutDevicePixel, LayerPixel \&gt;">
<polygon fill="white" stroke="black" points="796.5,-494.918 796.5,-515.918 1073.5,-515.918 1073.5,-494.918 796.5,-494.918"/>
<text text-anchor="middle" x="935" y="-502.918" font-family="Helvetica,sans-Serif" font-size="10.00">mozilla::gfx::ScaleFactor&lt; LayoutDevicePixel, LayerPixel &gt;</text>
</a>
</g>
<!-- Node23&#45;&gt;Node14 -->
<g id="edge50" class="edge"><title>Node23&#45;&gt;Node14</title>
<path fill="none" stroke="#9a32cd" stroke-dasharray="5,2" d="M1084.01,-510.035C1124.52,-513.144 1168.19,-518.211 1208,-526.418 1238.32,-532.669 1271.77,-544.893 1293.94,-553.794"/>
<polygon fill="#9a32cd" stroke="#9a32cd" points="1084.01,-506.526 1073.78,-509.286 1083.5,-513.507 1084.01,-506.526"/>
<text text-anchor="middle" x="1150" y="-530.418" font-family="Helvetica,sans-Serif" font-size="10.00"> mResolution</text>
</g>
<!-- Node24&#45;&gt;Node14 -->
<g id="edge52" class="edge"><title>Node24&#45;&gt;Node14</title>
<path fill="none" stroke="#9a32cd" stroke-dasharray="5,2" d="M1036.18,-658.268C1108.13,-652.331 1194.36,-643.143 1208,-632.418 1225.91,-618.338 1208.75,-599.303 1226,-584.418 1231.75,-579.455 1238.44,-575.63 1245.54,-572.694"/>
<polygon fill="#9a32cd" stroke="#9a32cd" points="1035.82,-654.786 1026.13,-659.084 1036.38,-661.763 1035.82,-654.786"/>
<text text-anchor="middle" x="1150" y="-695.418" font-family="Helvetica,sans-Serif" font-size="10.00"> mScrollableRect</text>
<text text-anchor="middle" x="1150" y="-682.418" font-family="Helvetica,sans-Serif" font-size="10.00">mViewport</text>
<text text-anchor="middle" x="1150" y="-669.418" font-family="Helvetica,sans-Serif" font-size="10.00">mCriticalDisplayPort</text>
<text text-anchor="middle" x="1150" y="-656.418" font-family="Helvetica,sans-Serif" font-size="10.00">mDisplayPort</text>
</g>
<!-- Node25 -->
<g id="node51" class="node"><title>Node25</title>
<a xlink:href="../../dc/db8/structmozilla_1_1gfx_1_1_base_rect.html" target="_top" xlink:title="mozilla::gfx::BaseRect\&lt; Float, RectTyped\&lt; CSSPixel \&gt;, PointTyped\&lt; CSSPixel \&gt;, SizeTyped\&lt; CSSPixel \&gt;, Margin \&gt;">
<polygon fill="white" stroke="black" points="135,-650.918 135,-671.918 671,-671.918 671,-650.918 135,-650.918"/>
<text text-anchor="middle" x="403" y="-658.918" font-family="Helvetica,sans-Serif" font-size="10.00">mozilla::gfx::BaseRect&lt; Float, RectTyped&lt; CSSPixel &gt;, PointTyped&lt; CSSPixel &gt;, SizeTyped&lt; CSSPixel &gt;, Margin &gt;</text>
</a>
</g>
<!-- Node25&#45;&gt;Node24 -->
<g id="edge54" class="edge"><title>Node25&#45;&gt;Node24</title>
<path fill="none" stroke="midnightblue" d="M681.544,-663.512C740.319,-663.954 798.276,-664.39 843.901,-664.733"/>
<polygon fill="midnightblue" stroke="midnightblue" points="681.364,-660.011 671.338,-663.436 681.311,-667.011 681.364,-660.011"/>
</g>
<!-- Node26&#45;&gt;Node2 -->
<g id="edge58" class="edge"><title>Node26&#45;&gt;Node2</title>
<path fill="none" stroke="#9a32cd" stroke-dasharray="5,2" d="M1041.92,-318.355C1113.95,-316.292 1206.01,-313.655 1263.75,-312.001"/>
<polygon fill="#9a32cd" stroke="#9a32cd" points="1041.8,-314.857 1031.9,-318.642 1042,-321.854 1041.8,-314.857"/>
<text text-anchor="middle" x="1150" y="-320.418" font-family="Helvetica,sans-Serif" font-size="10.00"> mMargins</text>
</g>
<!-- Node27 -->
<g id="node56" class="node"><title>Node27</title>
<a xlink:href="../../dd/db7/structmozilla_1_1gfx_1_1_base_margin.html" target="_top" xlink:title="mozilla::gfx::BaseMargin\&lt; Float, MarginTyped\&lt; LayerPixel \&gt; \&gt;">
<polygon fill="white" stroke="black" points="258,-282.918 258,-303.918 548,-303.918 548,-282.918 258,-282.918"/>
<text text-anchor="middle" x="403" y="-290.918" font-family="Helvetica,sans-Serif" font-size="10.00">mozilla::gfx::BaseMargin&lt; Float, MarginTyped&lt; LayerPixel &gt; &gt;</text>
</a>
</g>
<!-- Node27&#45;&gt;Node26 -->
<g id="edge60" class="edge"><title>Node27&#45;&gt;Node26</title>
<path fill="none" stroke="midnightblue" d="M558.119,-301.582C648.728,-306.351 760.244,-312.22 838.377,-316.333"/>
<polygon fill="midnightblue" stroke="midnightblue" points="558.19,-298.081 548.02,-301.051 557.822,-305.071 558.19,-298.081"/>
</g>
<!-- Node28&#45;&gt;Node2 -->
<g id="edge64" class="edge"><title>Node28&#45;&gt;Node2</title>
<path fill="none" stroke="#9a32cd" stroke-dasharray="5,2" d="M1018.87,-183.73C1074.61,-182.463 1148.26,-187.032 1208,-212.418 1254.14,-232.024 1294.39,-278.623 1310.95,-299.717"/>
<polygon fill="#9a32cd" stroke="#9a32cd" points="1018.57,-180.237 1008.68,-184.03 1018.78,-187.234 1018.57,-180.237"/>
<text text-anchor="middle" x="1150" y="-216.418" font-family="Helvetica,sans-Serif" font-size="10.00"> mManager</text>
</g>
<!-- Node29 -->
<g id="node61" class="node"><title>Node29</title>
<a xlink:href="../../da/d4e/struct_p_r_log_module_info.html" target="_top" xlink:title="PRLogModuleInfo">
<polygon fill="white" stroke="black" points="355.5,-179.918 355.5,-200.918 450.5,-200.918 450.5,-179.918 355.5,-179.918"/>
<text text-anchor="middle" x="403" y="-187.918" font-family="Helvetica,sans-Serif" font-size="10.00">PRLogModuleInfo</text>
</a>
</g>
<!-- Node29&#45;&gt;Node28 -->
<g id="edge66" class="edge"><title>Node29&#45;&gt;Node28</title>
<path fill="none" stroke="#9a32cd" stroke-dasharray="5,2" d="M460.909,-190.418C558.17,-190.418 754.17,-190.418 861.175,-190.418"/>
<polygon fill="#9a32cd" stroke="#9a32cd" points="460.68,-186.918 450.68,-190.418 460.68,-193.918 460.68,-186.918"/>
<text text-anchor="middle" x="751" y="-194.418" font-family="Helvetica,sans-Serif" font-size="10.00"> sLog</text>
</g>
<!-- Node30 -->
<g id="node63" class="node"><title>Node30</title>
<polygon fill="white" stroke="#bfbfbf" points="0.5,-179.918 0.5,-200.918 41.5,-200.918 41.5,-179.918 0.5,-179.918"/>
<text text-anchor="middle" x="21" y="-187.918" font-family="Helvetica,sans-Serif" font-size="10.00">struct</text>
</g>
<!-- Node30&#45;&gt;Node29 -->
<g id="edge68" class="edge"><title>Node30&#45;&gt;Node29</title>
<path fill="none" stroke="#9a32cd" stroke-dasharray="5,2" d="M51.7718,-190.418C118.293,-190.418 275.886,-190.418 355.386,-190.418"/>
<polygon fill="#9a32cd" stroke="#9a32cd" points="51.538,-186.918 41.538,-190.418 51.5379,-193.918 51.538,-186.918"/>
<text text-anchor="middle" x="71" y="-194.418" font-family="Helvetica,sans-Serif" font-size="10.00"> next</text>
</g>
<!-- Node31 -->
<g id="node66" class="node"><title>Node31</title>
<a xlink:href="../../d0/d01/classns_ref_ptr.html" target="_top" xlink:title="nsRefPtr\&lt; Layer \&gt;">
<polygon fill="white" stroke="black" points="354,-125.918 354,-146.918 452,-146.918 452,-125.918 354,-125.918"/>
<text text-anchor="middle" x="403" y="-133.918" font-family="Helvetica,sans-Serif" font-size="10.00">nsRefPtr&lt; Layer &gt;</text>
</a>
</g>
<!-- Node31&#45;&gt;Node2 -->
<g id="edge74" class="edge"><title>Node31&#45;&gt;Node2</title>
<path fill="none" stroke="#9a32cd" stroke-dasharray="5,2" d="M462.372,-133.039C626.254,-124.746 1081.17,-109.012 1208,-181.418 1259.83,-211.008 1298.98,-274.219 1313.19,-299.57"/>
<polygon fill="#9a32cd" stroke="#9a32cd" points="461.811,-129.563 452.005,-133.573 462.172,-136.554 461.811,-129.563"/>
<text text-anchor="middle" x="935" y="-146.418" font-family="Helvetica,sans-Serif" font-size="10.00"> mMaskLayer</text>
</g>
<!-- Node31&#45;&gt;Node28 -->
<g id="edge72" class="edge"><title>Node31&#45;&gt;Node28</title>
<path fill="none" stroke="#9a32cd" stroke-dasharray="5,2" d="M462.204,-142.084C536.125,-149.199 666.441,-161.875 778,-173.418 805.134,-176.226 834.893,-179.419 861.138,-182.274"/>
<polygon fill="#9a32cd" stroke="#9a32cd" points="462.444,-138.591 452.155,-141.118 461.774,-145.559 462.444,-138.591"/>
<text text-anchor="middle" x="751" y="-177.418" font-family="Helvetica,sans-Serif" font-size="10.00"> mRoot</text>
</g>
<!-- Node32 -->
<g id="node69" class="node"><title>Node32</title>
<a xlink:href="../../d5/d82/classns_int_region.html" target="_top" xlink:title="nsIntRegion">
<polygon fill="white" stroke="black" points="900.5,-19.918 900.5,-40.918 969.5,-40.918 969.5,-19.918 900.5,-19.918"/>
<text text-anchor="middle" x="935" y="-27.918" font-family="Helvetica,sans-Serif" font-size="10.00">nsIntRegion</text>
</a>
</g>
<!-- Node32&#45;&gt;Node2 -->
<g id="edge76" class="edge"><title>Node32&#45;&gt;Node2</title>
<path fill="none" stroke="#9a32cd" stroke-dasharray="5,2" d="M976.78,-17.044C1034.25,-1.3966 1138.47,16.8142 1208,-30.418 1303.6,-95.3541 1316.86,-256.845 1318.7,-299.789"/>
<polygon fill="#9a32cd" stroke="#9a32cd" points="975.624,-13.7337 966.951,-19.8201 977.526,-20.4702 975.624,-13.7337"/>
<text text-anchor="middle" x="1150" y="-47.418" font-family="Helvetica,sans-Serif" font-size="10.00"> mVisibleRegion</text>
<text text-anchor="middle" x="1150" y="-34.418" font-family="Helvetica,sans-Serif" font-size="10.00">mInvalidRegion</text>
</g>
</g>
</svg>
        <g id="navigator" transform="translate(0 0)" fill="#404254">
                <rect fill="#f2f5e9" fill-opacity="0.5" stroke="#606060" stroke-width=".5" x="0" y="0" width="60" height="60"/>
                <use id="zoomplus" xlink:href="#zoomPlus" x="17" y="9" onmousedown="handleZoom(evt,'in')"/>
                <use id="zoomminus" xlink:href="#zoomMin" x="42" y="9" onmousedown="handleZoom(evt,'out')"/>
                <use id="reset" xlink:href="#resetDef" x="30" y="36" onmousedown="handleReset()"/>
                <g id="arrowUp" xlink:href="#dirArrow" transform="translate(30 24)" onmousedown="handlePan(0,-1)">
                  <use xlink:href="#rim" fill="#404040">
                        <set attributeName="fill" to="#808080" begin="arrowUp.mouseover" end="arrowUp.mouseout"/>
                  </use>
                  <path fill="none" stroke="white" stroke-width="1.5" d="M0,-3.0v7 M-2.5,-0.5L0,-3.0L2.5,-0.5"/>
                </g>
                <g id="arrowRight" xlink:href="#dirArrow" transform="rotate(90) translate(36 -43)" onmousedown="handlePan(1,0)">
                  <use xlink:href="#rim" fill="#404040">
                        <set attributeName="fill" to="#808080" begin="arrowRight.mouseover" end="arrowRight.mouseout"/>
                  </use>
                  <path fill="none" stroke="white" stroke-width="1.5" d="M0,-3.0v7 M-2.5,-0.5L0,-3.0L2.5,-0.5"/>
                </g>
                <g id="arrowDown" xlink:href="#dirArrow" transform="rotate(180) translate(-30 -48)" onmousedown="handlePan(0,1)">
                  <use xlink:href="#rim" fill="#404040">
                        <set attributeName="fill" to="#808080" begin="arrowDown.mouseover" end="arrowDown.mouseout"/>
                  </use>
                  <path fill="none" stroke="white" stroke-width="1.5" d="M0,-3.0v7 M-2.5,-0.5L0,-3.0L2.5,-0.5"/>
                </g>
                <g id="arrowLeft" xlink:href="#dirArrow" transform="rotate(270) translate(-36 17)" onmousedown="handlePan(-1,0)">
                  <use xlink:href="#rim" fill="#404040">
                        <set attributeName="fill" to="#808080" begin="arrowLeft.mouseover" end="arrowLeft.mouseout"/>
                  </use>
                  <path fill="none" stroke="white" stroke-width="1.5" d="M0,-3.0v7 M-2.5,-0.5L0,-3.0L2.5,-0.5"/>
                </g>
        </g>
</svg>
