<?xml version="1.0" encoding="UTF-8" standalone="no"?>
<!DOCTYPE svg PUBLIC "-//W3C//DTD SVG 1.1//EN"
 "http://www.w3.org/Graphics/SVG/1.1/DTD/svg11.dtd">
<!-- Generated by graphviz version 2.26.3 (20100126.1600)
 -->
<!-- Title: G Pages: 1 -->
<!--zoomable 436 -->
<svg id="main" version="1.1" xmlns="http://www.w3.org/2000/svg" xmlns:xlink="http://www.w3.org/1999/xlink" xml:space="preserve" onload="init(evt)">
        <defs>
                <circle id="rim" cx="0" cy="0" r="7"/>
                <circle id="rim2" cx="0" cy="0" r="3.5"/>
                <g id="zoomPlus">
                        <use xlink:href="#rim" fill="#404040">
                                <set attributeName="fill" to="#808080" begin="zoomplus.mouseover" end="zoomplus.mouseout"/>
                        </use>
                        <path d="M-4,0h8M0,-4v8" fill="none" stroke="white" stroke-width="1.5" pointer-events="none"/>
                </g>
                <g id="zoomMin">
                        <use xlink:href="#rim" fill="#404040">
                                <set attributeName="fill" to="#808080" begin="zoomminus.mouseover" end="zoomminus.mouseout"/>
                        </use>
                        <path d="M-4,0h8" fill="none" stroke="white" stroke-width="1.5" pointer-events="none"/>
                </g>
                <g id="dirArrow">
                        <path fill="none" stroke="white" stroke-width="1.5" d="M0,-3.0v7 M-2.5,-0.5L0,-3.0L2.5,-0.5"/>
                </g>
               <g id="resetDef">
                       <use xlink:href="#rim2" fill="#404040">
                               <set attributeName="fill" to="#808080" begin="reset.mouseover" end="reset.mouseout"/>
                       </use>
               </g>
        </defs>

<script type="text/javascript">
var viewWidth = 966;
var viewHeight = 436;
var sectionId = 'dynsection-0';
</script>
<script xlink:href="../../svgpan.js"/>
<svg id="graph" class="graph">
<g id="viewport">
<title>G</title>
<polygon fill="white" stroke="white" points="-4,5 -4,-432 962.765,-432 962.765,5 -4,5"/>
<!-- Node1 -->
<g id="node1" class="node"><title>Node1</title>
<polygon fill="#bfbfbf" stroke="black" points="201.765,-406.5 201.765,-427.5 581.765,-427.5 581.765,-406.5 201.765,-406.5"/>
<text text-anchor="middle" x="391.765" y="-414.5" font-family="Helvetica,sans-Serif" font-size="10.00">/home/aoi/Documents/FxOS/B2G/gaia/xulrunner&#45;sdk/include/mozilla/PaintTracker.h</text>
</g>
<!-- Node2 -->
<g id="node3" class="node"><title>Node2</title>
<a xlink:href="../../d3/dd8/nscore_8h.html" target="_top" xlink:title="nscore.h">
<polygon fill="white" stroke="black" points="298.765,-232.5 298.765,-253.5 352.765,-253.5 352.765,-232.5 298.765,-232.5"/>
<text text-anchor="middle" x="325.765" y="-240.5" font-family="Helvetica,sans-Serif" font-size="10.00">nscore.h</text>
</a>
</g>
<!-- Node1&#45;&gt;Node2 -->
<g id="edge2" class="edge"><title>Node1&#45;&gt;Node2</title>
<path fill="none" stroke="midnightblue" d="M387.736,-406.377C377.037,-378.172 347.77,-301.012 333.624,-263.72"/>
<polygon fill="midnightblue" stroke="midnightblue" points="336.729,-262.036 329.91,-253.928 330.184,-264.519 336.729,-262.036"/>
</g>
<!-- Node17 -->
<g id="node37" class="node"><title>Node17</title>
<a xlink:href="../../dc/d6d/ns_debug_8h.html" target="_top" xlink:title="nsDebug.h">
<polygon fill="white" stroke="black" points="426.765,-348.5 426.765,-369.5 490.765,-369.5 490.765,-348.5 426.765,-348.5"/>
<text text-anchor="middle" x="458.765" y="-356.5" font-family="Helvetica,sans-Serif" font-size="10.00">nsDebug.h</text>
</a>
</g>
<!-- Node1&#45;&gt;Node17 -->
<g id="edge40" class="edge"><title>Node1&#45;&gt;Node17</title>
<path fill="none" stroke="midnightblue" d="M404.054,-406.362C413.782,-397.941 427.563,-386.011 438.861,-376.231"/>
<polygon fill="midnightblue" stroke="midnightblue" points="441.284,-378.762 446.554,-369.571 436.703,-373.469 441.284,-378.762"/>
</g>
<!-- Node3 -->
<g id="node5" class="node"><title>Node3</title>
<a xlink:href="../../d7/d2d/xpcom-config_8h.html" target="_top" xlink:title="xpcom&#45;config.h">
<polygon fill="white" stroke="black" points="11.2651,-116.5 11.2651,-137.5 94.2651,-137.5 94.2651,-116.5 11.2651,-116.5"/>
<text text-anchor="middle" x="52.7651" y="-124.5" font-family="Helvetica,sans-Serif" font-size="10.00">xpcom&#45;config.h</text>
</a>
</g>
<!-- Node2&#45;&gt;Node3 -->
<g id="edge4" class="edge"><title>Node2&#45;&gt;Node3</title>
<path fill="none" stroke="midnightblue" d="M298.703,-241.092C241.926,-236.581 112.874,-223.51 79.7651,-196 65.4342,-184.093 58.6767,-163.571 55.5102,-147.995"/>
<polygon fill="midnightblue" stroke="midnightblue" points="58.8924,-147.002 53.7822,-137.721 51.9894,-148.163 58.8924,-147.002"/>
</g>
<!-- Node4 -->
<g id="node7" class="node"><title>Node4</title>
<a xlink:href="../../d1/d62/mozalloc_8h.html" target="_top" xlink:title="mozilla/mozalloc.h">
<polygon fill="white" stroke="black" points="88.7651,-174.5 88.7651,-195.5 186.765,-195.5 186.765,-174.5 88.7651,-174.5"/>
<text text-anchor="middle" x="137.765" y="-182.5" font-family="Helvetica,sans-Serif" font-size="10.00">mozilla/mozalloc.h</text>
</a>
</g>
<!-- Node2&#45;&gt;Node4 -->
<g id="edge6" class="edge"><title>Node2&#45;&gt;Node4</title>
<path fill="none" stroke="midnightblue" d="M298.428,-234.566C267.803,-225.118 217.727,-209.669 181.614,-198.528"/>
<polygon fill="midnightblue" stroke="midnightblue" points="182.414,-195.112 171.827,-195.508 180.35,-201.801 182.414,-195.112"/>
</g>
<!-- Node9 -->
<g id="node18" class="node"><title>Node9</title>
<a xlink:href="../../d1/de4/mozalloc__macro__wrappers_8h.html" target="_top" xlink:title="mozilla/mozalloc_macro_wrappers.h">
<polygon fill="white" stroke="black" points="242.265,-174.5 242.265,-195.5 417.265,-195.5 417.265,-174.5 242.265,-174.5"/>
<text text-anchor="middle" x="329.765" y="-182.5" font-family="Helvetica,sans-Serif" font-size="10.00">mozilla/mozalloc_macro_wrappers.h</text>
</a>
</g>
<!-- Node2&#45;&gt;Node9 -->
<g id="edge18" class="edge"><title>Node2&#45;&gt;Node9</title>
<path fill="none" stroke="midnightblue" d="M326.499,-232.362C327.012,-224.922 327.714,-214.743 328.336,-205.728"/>
<polygon fill="midnightblue" stroke="midnightblue" points="331.84,-205.788 329.036,-195.571 324.856,-205.306 331.84,-205.788"/>
</g>
<!-- Node10 -->
<g id="node20" class="node"><title>Node10</title>
<polygon fill="white" stroke="#bfbfbf" points="281.765,-116.5 281.765,-137.5 333.765,-137.5 333.765,-116.5 281.765,-116.5"/>
<text text-anchor="middle" x="307.765" y="-124.5" font-family="Helvetica,sans-Serif" font-size="10.00">stddef.h</text>
</g>
<!-- Node2&#45;&gt;Node10 -->
<g id="edge20" class="edge"><title>Node2&#45;&gt;Node10</title>
<path fill="none" stroke="midnightblue" d="M298.732,-237.301C276.982,-231.139 247.81,-218.947 233.765,-196 220.126,-173.717 247.314,-154.035 272.493,-141.454"/>
<polygon fill="midnightblue" stroke="midnightblue" points="274.055,-144.587 281.599,-137.148 271.063,-138.259 274.055,-144.587"/>
</g>
<!-- Node11 -->
<g id="node22" class="node"><title>Node11</title>
<polygon fill="white" stroke="#bfbfbf" points="661.265,-116.5 661.265,-137.5 710.265,-137.5 710.265,-116.5 661.265,-116.5"/>
<text text-anchor="middle" x="685.765" y="-124.5" font-family="Helvetica,sans-Serif" font-size="10.00">stdint.h</text>
</g>
<!-- Node2&#45;&gt;Node11 -->
<g id="edge22" class="edge"><title>Node2&#45;&gt;Node11</title>
<path fill="none" stroke="midnightblue" d="M353.086,-234.778C356.665,-233.793 360.294,-232.84 363.765,-232 444.754,-212.396 468.891,-222.878 547.765,-196 588.59,-182.088 632.652,-158.38 659.73,-142.702"/>
<polygon fill="midnightblue" stroke="midnightblue" points="661.71,-145.599 668.566,-137.521 658.169,-139.56 661.71,-145.599"/>
</g>
<!-- Node12 -->
<g id="node24" class="node"><title>Node12</title>
<a xlink:href="../../df/dcf/_null_ptr_8h.html" target="_top" xlink:title="mozilla/NullPtr.h">
<polygon fill="white" stroke="black" points="92.2651,-58.5 92.2651,-79.5 181.265,-79.5 181.265,-58.5 92.2651,-58.5"/>
<text text-anchor="middle" x="136.765" y="-66.5" font-family="Helvetica,sans-Serif" font-size="10.00">mozilla/NullPtr.h</text>
</a>
</g>
<!-- Node2&#45;&gt;Node12 -->
<g id="edge24" class="edge"><title>Node2&#45;&gt;Node12</title>
<path fill="none" stroke="midnightblue" d="M298.663,-240.326C239.58,-234.16 101.16,-217.787 59.7651,-196 27.7822,-179.166 16.4508,-171.451 2.76506,-138 -12.4484,-100.815 38.7895,-83.414 82.2409,-75.4416"/>
<polygon fill="midnightblue" stroke="midnightblue" points="82.9461,-78.872 92.2179,-73.7453 81.7727,-71.971 82.9461,-78.872"/>
</g>
<!-- Node13 -->
<g id="node27" class="node"><title>Node13</title>
<a xlink:href="../../d8/dcf/ns_error_8h.html" target="_top" xlink:title="nsError.h">
<polygon fill="white" stroke="black" points="655.765,-174.5 655.765,-195.5 711.765,-195.5 711.765,-174.5 655.765,-174.5"/>
<text text-anchor="middle" x="683.765" y="-182.5" font-family="Helvetica,sans-Serif" font-size="10.00">nsError.h</text>
</a>
</g>
<!-- Node2&#45;&gt;Node13 -->
<g id="edge28" class="edge"><title>Node2&#45;&gt;Node13</title>
<path fill="none" stroke="midnightblue" d="M353.039,-234.569C356.626,-233.618 360.269,-232.73 363.765,-232 484.425,-206.79 517.602,-218.669 638.765,-196 640.949,-195.591 643.185,-195.143 645.438,-194.668"/>
<polygon fill="midnightblue" stroke="midnightblue" points="646.309,-198.06 655.301,-192.457 644.777,-191.229 646.309,-198.06"/>
</g>
<!-- Node4&#45;&gt;Node3 -->
<g id="edge12" class="edge"><title>Node4&#45;&gt;Node3</title>
<path fill="none" stroke="midnightblue" d="M122.175,-174.362C109.474,-165.696 91.3266,-153.313 76.773,-143.382"/>
<polygon fill="midnightblue" stroke="midnightblue" points="78.4895,-140.316 68.2565,-137.571 74.544,-146.098 78.4895,-140.316"/>
</g>
<!-- Node5 -->
<g id="node9" class="node"><title>Node5</title>
<polygon fill="white" stroke="#bfbfbf" points="215.765,-116.5 215.765,-137.5 263.765,-137.5 263.765,-116.5 215.765,-116.5"/>
<text text-anchor="middle" x="239.765" y="-124.5" font-family="Helvetica,sans-Serif" font-size="10.00">stdlib.h</text>
</g>
<!-- Node4&#45;&gt;Node5 -->
<g id="edge8" class="edge"><title>Node4&#45;&gt;Node5</title>
<path fill="none" stroke="midnightblue" d="M156.473,-174.362C172.146,-165.45 194.729,-152.609 212.428,-142.545"/>
<polygon fill="midnightblue" stroke="midnightblue" points="214.212,-145.556 221.175,-137.571 210.752,-139.471 214.212,-145.556"/>
</g>
<!-- Node6 -->
<g id="node11" class="node"><title>Node6</title>
<polygon fill="white" stroke="#bfbfbf" points="111.265,-116.5 111.265,-137.5 160.265,-137.5 160.265,-116.5 111.265,-116.5"/>
<text text-anchor="middle" x="135.765" y="-124.5" font-family="Helvetica,sans-Serif" font-size="10.00">string.h</text>
</g>
<!-- Node4&#45;&gt;Node6 -->
<g id="edge10" class="edge"><title>Node4&#45;&gt;Node6</title>
<path fill="none" stroke="midnightblue" d="M137.398,-174.362C137.142,-166.922 136.791,-156.743 136.48,-147.728"/>
<polygon fill="midnightblue" stroke="midnightblue" points="139.972,-147.444 136.13,-137.571 132.976,-147.685 139.972,-147.444"/>
</g>
<!-- Node7 -->
<g id="node14" class="node"><title>Node7</title>
<a xlink:href="../../d1/da8/_attributes_8h.html" target="_top" xlink:title="mozilla/Attributes.h">
<polygon fill="white" stroke="black" points="435.265,-58.5 435.265,-79.5 536.265,-79.5 536.265,-58.5 435.265,-58.5"/>
<text text-anchor="middle" x="485.765" y="-66.5" font-family="Helvetica,sans-Serif" font-size="10.00">mozilla/Attributes.h</text>
</a>
</g>
<!-- Node4&#45;&gt;Node7 -->
<g id="edge14" class="edge"><title>Node4&#45;&gt;Node7</title>
<path fill="none" stroke="midnightblue" d="M145.045,-174.322C156.304,-158.728 179.512,-130.055 206.765,-116 243.902,-96.8478 354.903,-82.3936 425.189,-74.8519"/>
<polygon fill="midnightblue" stroke="midnightblue" points="425.673,-78.3203 435.25,-73.7896 424.938,-71.359 425.673,-78.3203"/>
</g>
<!-- Node8 -->
<g id="node16" class="node"><title>Node8</title>
<a xlink:href="../../da/da7/_compiler_8h.html" target="_top" xlink:title="mozilla/Compiler.h">
<polygon fill="white" stroke="black" points="312.765,-0.5 312.765,-21.5 410.765,-21.5 410.765,-0.5 312.765,-0.5"/>
<text text-anchor="middle" x="361.765" y="-8.5" font-family="Helvetica,sans-Serif" font-size="10.00">mozilla/Compiler.h</text>
</a>
</g>
<!-- Node7&#45;&gt;Node8 -->
<g id="edge16" class="edge"><title>Node7&#45;&gt;Node8</title>
<path fill="none" stroke="midnightblue" d="M463.31,-58.4966C443.855,-49.397 415.485,-36.1273 393.674,-25.9253"/>
<polygon fill="midnightblue" stroke="midnightblue" points="395.014,-22.6878 384.472,-21.6212 392.048,-29.0285 395.014,-22.6878"/>
</g>
<!-- Node12&#45;&gt;Node8 -->
<g id="edge26" class="edge"><title>Node12&#45;&gt;Node8</title>
<path fill="none" stroke="midnightblue" d="M177.511,-58.4966C214.986,-48.8364 270.692,-34.4765 311.037,-24.0765"/>
<polygon fill="midnightblue" stroke="midnightblue" points="312.133,-27.4085 320.943,-21.5231 310.386,-20.6301 312.133,-27.4085"/>
</g>
<!-- Node13&#45;&gt;Node11 -->
<g id="edge36" class="edge"><title>Node13&#45;&gt;Node11</title>
<path fill="none" stroke="midnightblue" d="M684.132,-174.362C684.388,-166.922 684.739,-156.743 685.05,-147.728"/>
<polygon fill="midnightblue" stroke="midnightblue" points="688.554,-147.685 685.401,-137.571 681.558,-147.444 688.554,-147.685"/>
</g>
<!-- Node14 -->
<g id="node29" class="node"><title>Node14</title>
<a xlink:href="../../d1/d8a/_likely_8h.html" target="_top" xlink:title="mozilla/Likely.h">
<polygon fill="white" stroke="black" points="559.765,-116.5 559.765,-137.5 643.765,-137.5 643.765,-116.5 559.765,-116.5"/>
<text text-anchor="middle" x="601.765" y="-124.5" font-family="Helvetica,sans-Serif" font-size="10.00">mozilla/Likely.h</text>
</a>
</g>
<!-- Node13&#45;&gt;Node14 -->
<g id="edge30" class="edge"><title>Node13&#45;&gt;Node14</title>
<path fill="none" stroke="midnightblue" d="M668.725,-174.362C656.473,-165.696 638.966,-153.313 624.926,-143.382"/>
<polygon fill="midnightblue" stroke="midnightblue" points="626.895,-140.488 616.71,-137.571 622.853,-146.203 626.895,-140.488"/>
</g>
<!-- Node15 -->
<g id="node31" class="node"><title>Node15</title>
<a xlink:href="../../d3/dff/_typed_enum_8h.html" target="_top" xlink:title="mozilla/TypedEnum.h">
<polygon fill="white" stroke="black" points="727.265,-116.5 727.265,-137.5 838.265,-137.5 838.265,-116.5 727.265,-116.5"/>
<text text-anchor="middle" x="782.765" y="-124.5" font-family="Helvetica,sans-Serif" font-size="10.00">mozilla/TypedEnum.h</text>
</a>
</g>
<!-- Node13&#45;&gt;Node15 -->
<g id="edge32" class="edge"><title>Node13&#45;&gt;Node15</title>
<path fill="none" stroke="midnightblue" d="M701.923,-174.362C716.995,-165.532 738.652,-152.844 755.758,-142.822"/>
<polygon fill="midnightblue" stroke="midnightblue" points="757.863,-145.646 764.722,-137.571 754.324,-139.606 757.863,-145.646"/>
</g>
<!-- Node16 -->
<g id="node35" class="node"><title>Node16</title>
<a xlink:href="../../d7/dda/_error_list_c_defines_8h.html" target="_top" xlink:title="ErrorListCDefines.h">
<polygon fill="white" stroke="black" points="855.265,-116.5 855.265,-137.5 958.265,-137.5 958.265,-116.5 855.265,-116.5"/>
<text text-anchor="middle" x="906.765" y="-124.5" font-family="Helvetica,sans-Serif" font-size="10.00">ErrorListCDefines.h</text>
</a>
</g>
<!-- Node13&#45;&gt;Node16 -->
<g id="edge38" class="edge"><title>Node13&#45;&gt;Node16</title>
<path fill="none" stroke="midnightblue" d="M712.008,-177.654C748.292,-168.217 811.902,-151.673 856.528,-140.066"/>
<polygon fill="midnightblue" stroke="midnightblue" points="857.51,-143.427 866.307,-137.523 855.748,-136.653 857.51,-143.427"/>
</g>
<!-- Node15&#45;&gt;Node7 -->
<g id="edge34" class="edge"><title>Node15&#45;&gt;Node7</title>
<path fill="none" stroke="midnightblue" d="M728.981,-116.497C677.628,-106.468 600.341,-91.375 546.727,-80.9051"/>
<polygon fill="midnightblue" stroke="midnightblue" points="547.155,-77.4226 536.669,-78.9409 545.813,-84.2928 547.155,-77.4226"/>
</g>
<!-- Node17&#45;&gt;Node2 -->
<g id="edge42" class="edge"><title>Node17&#45;&gt;Node2</title>
<path fill="none" stroke="midnightblue" d="M437.195,-348.408C420.983,-339.861 398.742,-326.846 381.765,-312 364.838,-297.198 349.033,-276.885 338.56,-262.134"/>
<polygon fill="midnightblue" stroke="midnightblue" points="341.336,-259.995 332.765,-253.767 335.581,-263.98 341.336,-259.995"/>
</g>
<!-- Node17&#45;&gt;Node13 -->
<g id="edge44" class="edge"><title>Node17&#45;&gt;Node13</title>
<path fill="none" stroke="midnightblue" d="M490.867,-353.619C520.014,-347.469 563.018,-335.115 593.765,-312 632.433,-282.929 661.031,-232.414 674.734,-204.661"/>
<polygon fill="midnightblue" stroke="midnightblue" points="677.936,-206.078 679.1,-195.547 671.623,-203.054 677.936,-206.078"/>
</g>
<!-- Node17&#45;&gt;Node14 -->
<g id="edge68" class="edge"><title>Node17&#45;&gt;Node14</title>
<path fill="none" stroke="midnightblue" d="M465.281,-348.429C487.568,-312.271 560.97,-193.186 589.897,-146.255"/>
<polygon fill="midnightblue" stroke="midnightblue" points="592.943,-147.983 595.211,-137.634 586.984,-144.31 592.943,-147.983"/>
</g>
<!-- Node18 -->
<g id="node41" class="node"><title>Node18</title>
<a xlink:href="../../dd/d3a/ns_x_p_c_o_m_8h.html" target="_top" xlink:title="nsXPCOM.h">
<polygon fill="white" stroke="black" points="390.765,-290.5 390.765,-311.5 462.765,-311.5 462.765,-290.5 390.765,-290.5"/>
<text text-anchor="middle" x="426.765" y="-298.5" font-family="Helvetica,sans-Serif" font-size="10.00">nsXPCOM.h</text>
</a>
</g>
<!-- Node17&#45;&gt;Node18 -->
<g id="edge46" class="edge"><title>Node17&#45;&gt;Node18</title>
<path fill="none" stroke="midnightblue" d="M452.896,-348.362C448.611,-340.595 442.678,-329.843 437.549,-320.546"/>
<polygon fill="midnightblue" stroke="midnightblue" points="440.492,-318.636 432.597,-311.571 434.363,-322.017 440.492,-318.636"/>
</g>
<!-- Node20 -->
<g id="node46" class="node"><title>Node20</title>
<a xlink:href="../../d9/de9/_assertions_8h.html" target="_top" xlink:title="mozilla/Assertions.h">
<polygon fill="white" stroke="black" points="434.265,-174.5 434.265,-195.5 539.265,-195.5 539.265,-174.5 434.265,-174.5"/>
<text text-anchor="middle" x="486.765" y="-182.5" font-family="Helvetica,sans-Serif" font-size="10.00">mozilla/Assertions.h</text>
</a>
</g>
<!-- Node17&#45;&gt;Node20 -->
<g id="edge52" class="edge"><title>Node17&#45;&gt;Node20</title>
<path fill="none" stroke="midnightblue" d="M462.232,-348.284C465.169,-338.829 469.288,-324.628 471.765,-312 479.029,-274.97 483.26,-231.127 485.283,-205.842"/>
<polygon fill="midnightblue" stroke="midnightblue" points="488.791,-205.858 486.06,-195.622 481.812,-205.328 488.791,-205.858"/>
</g>
<!-- Node18&#45;&gt;Node2 -->
<g id="edge48" class="edge"><title>Node18&#45;&gt;Node2</title>
<path fill="none" stroke="midnightblue" d="M408.24,-290.362C392.864,-281.532 370.769,-268.844 353.318,-258.822"/>
<polygon fill="midnightblue" stroke="midnightblue" points="354.587,-255.515 344.173,-253.571 351.101,-261.586 354.587,-255.515"/>
</g>
<!-- Node19 -->
<g id="node44" class="node"><title>Node19</title>
<a xlink:href="../../d1/d66/ns_x_p_c_o_m_c_i_d_8h.html" target="_top" xlink:title="nsXPCOMCID.h">
<polygon fill="white" stroke="black" points="372.765,-232.5 372.765,-253.5 462.765,-253.5 462.765,-232.5 372.765,-232.5"/>
<text text-anchor="middle" x="417.765" y="-240.5" font-family="Helvetica,sans-Serif" font-size="10.00">nsXPCOMCID.h</text>
</a>
</g>
<!-- Node18&#45;&gt;Node19 -->
<g id="edge50" class="edge"><title>Node18&#45;&gt;Node19</title>
<path fill="none" stroke="midnightblue" d="M425.114,-290.362C423.96,-282.922 422.38,-272.743 420.981,-263.728"/>
<polygon fill="midnightblue" stroke="midnightblue" points="424.397,-262.916 419.405,-253.571 417.48,-263.989 424.397,-262.916"/>
</g>
<!-- Node20&#45;&gt;Node5 -->
<g id="edge64" class="edge"><title>Node20&#45;&gt;Node5</title>
<path fill="none" stroke="midnightblue" d="M434.058,-175.038C392.72,-166.859 333.598,-154.361 273.48,-138.004"/>
<polygon fill="midnightblue" stroke="midnightblue" points="274.396,-134.626 263.826,-135.346 272.538,-141.375 274.396,-134.626"/>
</g>
<!-- Node20&#45;&gt;Node7 -->
<g id="edge54" class="edge"><title>Node20&#45;&gt;Node7</title>
<path fill="none" stroke="midnightblue" d="M495.159,-174.46C504.753,-161.109 518.441,-137.274 512.765,-116 510.157,-106.223 504.976,-96.367 499.844,-88.2234"/>
<polygon fill="midnightblue" stroke="midnightblue" points="502.697,-86.1941 494.21,-79.8521 496.89,-90.1025 502.697,-86.1941"/>
</g>
<!-- Node20&#45;&gt;Node8 -->
<g id="edge56" class="edge"><title>Node20&#45;&gt;Node8</title>
<path fill="none" stroke="midnightblue" d="M437.668,-174.419C417.015,-167.473 394.61,-156.176 380.765,-138 357.137,-106.982 356.926,-59.0666 359.164,-31.8216"/>
<polygon fill="midnightblue" stroke="midnightblue" points="362.649,-32.1371 360.173,-21.8357 355.685,-31.433 362.649,-32.1371"/>
</g>
<!-- Node20&#45;&gt;Node10 -->
<g id="edge60" class="edge"><title>Node20&#45;&gt;Node10</title>
<path fill="none" stroke="midnightblue" d="M454.35,-174.497C423.033,-164.349 375.712,-149.016 343.363,-138.535"/>
<polygon fill="midnightblue" stroke="midnightblue" points="344.431,-135.201 333.839,-135.448 342.273,-141.861 344.431,-135.201"/>
</g>
<!-- Node20&#45;&gt;Node14 -->
<g id="edge58" class="edge"><title>Node20&#45;&gt;Node14</title>
<path fill="none" stroke="midnightblue" d="M507.591,-174.497C525.471,-165.479 551.473,-152.365 571.626,-142.201"/>
<polygon fill="midnightblue" stroke="midnightblue" points="573.353,-145.249 580.706,-137.621 570.201,-138.999 573.353,-145.249"/>
</g>
<!-- Node21 -->
<g id="node52" class="node"><title>Node21</title>
<polygon fill="white" stroke="#bfbfbf" points="457.765,-116.5 457.765,-137.5 503.765,-137.5 503.765,-116.5 457.765,-116.5"/>
<text text-anchor="middle" x="480.765" y="-124.5" font-family="Helvetica,sans-Serif" font-size="10.00">stdio.h</text>
</g>
<!-- Node20&#45;&gt;Node21 -->
<g id="edge62" class="edge"><title>Node20&#45;&gt;Node21</title>
<path fill="none" stroke="midnightblue" d="M485.665,-174.362C484.895,-166.922 483.842,-156.743 482.909,-147.728"/>
<polygon fill="midnightblue" stroke="midnightblue" points="486.369,-147.157 481.859,-137.571 479.406,-147.878 486.369,-147.157"/>
</g>
<!-- Node22 -->
<g id="node55" class="node"><title>Node22</title>
<polygon fill="white" stroke="#bfbfbf" points="389.765,-116.5 389.765,-137.5 439.765,-137.5 439.765,-116.5 389.765,-116.5"/>
<text text-anchor="middle" x="414.765" y="-124.5" font-family="Helvetica,sans-Serif" font-size="10.00">signal.h</text>
</g>
<!-- Node20&#45;&gt;Node22 -->
<g id="edge66" class="edge"><title>Node20&#45;&gt;Node22</title>
<path fill="none" stroke="midnightblue" d="M473.559,-174.362C463.004,-165.859 448.007,-153.779 435.802,-143.947"/>
<polygon fill="midnightblue" stroke="midnightblue" points="437.87,-141.118 427.887,-137.571 433.479,-146.57 437.87,-141.118"/>
</g>
</g>
</svg>
        <g id="navigator" transform="translate(0 0)" fill="#404254">
                <rect fill="#f2f5e9" fill-opacity="0.5" stroke="#606060" stroke-width=".5" x="0" y="0" width="60" height="60"/>
                <use id="zoomplus" xlink:href="#zoomPlus" x="17" y="9" onmousedown="handleZoom(evt,'in')"/>
                <use id="zoomminus" xlink:href="#zoomMin" x="42" y="9" onmousedown="handleZoom(evt,'out')"/>
                <use id="reset" xlink:href="#resetDef" x="30" y="36" onmousedown="handleReset()"/>
                <g id="arrowUp" xlink:href="#dirArrow" transform="translate(30 24)" onmousedown="handlePan(0,-1)">
                  <use xlink:href="#rim" fill="#404040">
                        <set attributeName="fill" to="#808080" begin="arrowUp.mouseover" end="arrowUp.mouseout"/>
                  </use>
                  <path fill="none" stroke="white" stroke-width="1.5" d="M0,-3.0v7 M-2.5,-0.5L0,-3.0L2.5,-0.5"/>
                </g>
                <g id="arrowRight" xlink:href="#dirArrow" transform="rotate(90) translate(36 -43)" onmousedown="handlePan(1,0)">
                  <use xlink:href="#rim" fill="#404040">
                        <set attributeName="fill" to="#808080" begin="arrowRight.mouseover" end="arrowRight.mouseout"/>
                  </use>
                  <path fill="none" stroke="white" stroke-width="1.5" d="M0,-3.0v7 M-2.5,-0.5L0,-3.0L2.5,-0.5"/>
                </g>
                <g id="arrowDown" xlink:href="#dirArrow" transform="rotate(180) translate(-30 -48)" onmousedown="handlePan(0,1)">
                  <use xlink:href="#rim" fill="#404040">
                        <set attributeName="fill" to="#808080" begin="arrowDown.mouseover" end="arrowDown.mouseout"/>
                  </use>
                  <path fill="none" stroke="white" stroke-width="1.5" d="M0,-3.0v7 M-2.5,-0.5L0,-3.0L2.5,-0.5"/>
                </g>
                <g id="arrowLeft" xlink:href="#dirArrow" transform="rotate(270) translate(-36 17)" onmousedown="handlePan(-1,0)">
                  <use xlink:href="#rim" fill="#404040">
                        <set attributeName="fill" to="#808080" begin="arrowLeft.mouseover" end="arrowLeft.mouseout"/>
                  </use>
                  <path fill="none" stroke="white" stroke-width="1.5" d="M0,-3.0v7 M-2.5,-0.5L0,-3.0L2.5,-0.5"/>
                </g>
        </g>
</svg>
