<?xml version="1.0" encoding="UTF-8" standalone="no"?>
<!DOCTYPE svg PUBLIC "-//W3C//DTD SVG 1.1//EN"
 "http://www.w3.org/Graphics/SVG/1.1/DTD/svg11.dtd">
<!-- Generated by graphviz version 2.26.3 (20100126.1600)
 -->
<!-- Title: G Pages: 1 -->
<svg width="120pt" height="204pt"
 viewBox="0.00 0.00 120.00 204.00" xmlns="http://www.w3.org/2000/svg" xmlns:xlink="http://www.w3.org/1999/xlink">
<g id="graph1" class="graph" transform="scale(1 1) rotate(0) translate(4 200)">
<title>G</title>
<polygon fill="white" stroke="white" points="-4,5 -4,-200 117,-200 117,5 -4,5"/>
<!-- Node1 -->
<g id="node1" class="node"><title>Node1</title>
<polygon fill="#bfbfbf" stroke="black" points="0,-0.5 0,-21.5 112,-21.5 112,-0.5 0,-0.5"/>
<text text-anchor="middle" x="56" y="-8.5" font-family="Helvetica,sans-Serif" font-size="10.00">nsIObjectInputStream</text>
</g>
<!-- Node2 -->
<g id="node2" class="node"><title>Node2</title>
<a xlink:href="../../d5/da0/interfacens_i_binary_input_stream.html" target="_top" xlink:title="nsIBinaryInputStream">
<polygon fill="white" stroke="black" points="0.5,-58.5 0.5,-79.5 111.5,-79.5 111.5,-58.5 0.5,-58.5"/>
<text text-anchor="middle" x="56" y="-66.5" font-family="Helvetica,sans-Serif" font-size="10.00">nsIBinaryInputStream</text>
</a>
</g>
<!-- Node2&#45;&gt;Node1 -->
<g id="edge2" class="edge"><title>Node2&#45;&gt;Node1</title>
<path fill="none" stroke="midnightblue" d="M49.4952,-48.1906C48.9414,-39.1684 49.3257,-28.9941 50.6479,-21.5707"/>
<polygon fill="midnightblue" stroke="midnightblue" points="46.0431,-48.8143 50.6359,-58.3619 52.9995,-48.0341 46.0431,-48.8143"/>
</g>
<!-- Node2&#45;&gt;Node1 -->
<g id="edge12" class="edge"><title>Node2&#45;&gt;Node1</title>
<path fill="none" stroke="midnightblue" d="M62.5048,-48.1906C63.0586,-39.1684 62.6743,-28.9941 61.3521,-21.5707"/>
<polygon fill="midnightblue" stroke="midnightblue" points="59.0005,-48.0341 61.3641,-58.3619 65.9569,-48.8143 59.0005,-48.0341"/>
</g>
<!-- Node3 -->
<g id="node4" class="node"><title>Node3</title>
<a xlink:href="../../da/d78/interfacens_i_input_stream.html" target="_top" xlink:title="nsIInputStream">
<polygon fill="white" stroke="black" points="14.5,-116.5 14.5,-137.5 97.5,-137.5 97.5,-116.5 14.5,-116.5"/>
<text text-anchor="middle" x="56" y="-124.5" font-family="Helvetica,sans-Serif" font-size="10.00">nsIInputStream</text>
</a>
</g>
<!-- Node3&#45;&gt;Node2 -->
<g id="edge4" class="edge"><title>Node3&#45;&gt;Node2</title>
<path fill="none" stroke="midnightblue" d="M49.4952,-106.191C48.9414,-97.1684 49.3257,-86.9941 50.6479,-79.5707"/>
<polygon fill="midnightblue" stroke="midnightblue" points="46.0431,-106.814 50.6359,-116.362 52.9995,-106.034 46.0431,-106.814"/>
</g>
<!-- Node3&#45;&gt;Node2 -->
<g id="edge10" class="edge"><title>Node3&#45;&gt;Node2</title>
<path fill="none" stroke="midnightblue" d="M62.5048,-106.191C63.0586,-97.1684 62.6743,-86.9941 61.3521,-79.5707"/>
<polygon fill="midnightblue" stroke="midnightblue" points="59.0005,-106.034 61.3641,-116.362 65.9569,-106.814 59.0005,-106.034"/>
</g>
<!-- Node4 -->
<g id="node6" class="node"><title>Node4</title>
<a xlink:href="../../d4/d6a/classns_i_supports.html" target="_top" xlink:title="nsISupports">
<polygon fill="white" stroke="black" points="21.5,-174.5 21.5,-195.5 90.5,-195.5 90.5,-174.5 21.5,-174.5"/>
<text text-anchor="middle" x="56" y="-182.5" font-family="Helvetica,sans-Serif" font-size="10.00">nsISupports</text>
</a>
</g>
<!-- Node4&#45;&gt;Node3 -->
<g id="edge6" class="edge"><title>Node4&#45;&gt;Node3</title>
<path fill="none" stroke="midnightblue" d="M49.4952,-164.191C48.9414,-155.168 49.3257,-144.994 50.6479,-137.571"/>
<polygon fill="midnightblue" stroke="midnightblue" points="46.0431,-164.814 50.6359,-174.362 52.9995,-164.034 46.0431,-164.814"/>
</g>
<!-- Node4&#45;&gt;Node3 -->
<g id="edge8" class="edge"><title>Node4&#45;&gt;Node3</title>
<path fill="none" stroke="midnightblue" d="M62.5048,-164.191C63.0586,-155.168 62.6743,-144.994 61.3521,-137.571"/>
<polygon fill="midnightblue" stroke="midnightblue" points="59.0005,-164.034 61.3641,-174.362 65.9569,-164.814 59.0005,-164.034"/>
</g>
</g>
</svg>
