<?xml version="1.0" encoding="UTF-8" standalone="no"?>
<!DOCTYPE svg PUBLIC "-//W3C//DTD SVG 1.1//EN"
 "http://www.w3.org/Graphics/SVG/1.1/DTD/svg11.dtd">
<!-- Generated by graphviz version 2.26.3 (20100126.1600)
 -->
<!-- Title: G Pages: 1 -->
<svg width="196pt" height="222pt"
 viewBox="0.00 0.00 196.00 222.00" xmlns="http://www.w3.org/2000/svg" xmlns:xlink="http://www.w3.org/1999/xlink">
<g id="graph1" class="graph" transform="scale(1 1) rotate(0) translate(4 218)">
<title>G</title>
<polygon fill="white" stroke="white" points="-4,5 -4,-218 193,-218 193,5 -4,5"/>
<!-- Node1 -->
<g id="node1" class="node"><title>Node1</title>
<polygon fill="#bfbfbf" stroke="black" points="-0.5,-0.5 -0.5,-21.5 118.5,-21.5 118.5,-0.5 -0.5,-0.5"/>
<text text-anchor="middle" x="59" y="-8.5" font-family="Helvetica,sans-Serif" font-size="10.00">nsIXULTemplateResult</text>
</g>
<!-- Node2 -->
<g id="node2" class="node"><title>Node2</title>
<a xlink:href="../../d4/d6a/classns_i_supports.html" target="_top" xlink:title="nsISupports">
<polygon fill="white" stroke="black" points="53.5,-192.5 53.5,-213.5 122.5,-213.5 122.5,-192.5 53.5,-192.5"/>
<text text-anchor="middle" x="88" y="-200.5" font-family="Helvetica,sans-Serif" font-size="10.00">nsISupports</text>
</a>
</g>
<!-- Node2&#45;&gt;Node1 -->
<g id="edge2" class="edge"><title>Node2&#45;&gt;Node1</title>
<path fill="none" stroke="midnightblue" d="M80.5541,-182.57C70.9337,-142.046 57.788,-52.7355 57.3028,-21.8002"/>
<polygon fill="midnightblue" stroke="midnightblue" points="77.205,-183.6 83.0988,-192.404 83.9818,-181.846 77.205,-183.6"/>
</g>
<!-- Node2&#45;&gt;Node1 -->
<g id="edge4" class="edge"><title>Node2&#45;&gt;Node1</title>
<path fill="none" stroke="midnightblue" d="M89.2576,-182.311C86.5942,-141.666 72.8007,-52.6696 63.9598,-21.8002"/>
<polygon fill="midnightblue" stroke="midnightblue" points="85.7654,-182.567 89.7003,-192.404 92.7586,-182.26 85.7654,-182.567"/>
</g>
<!-- Node4 -->
<g id="node7" class="node"><title>Node4</title>
<a xlink:href="../../d6/d65/interfacens_i_r_d_f_node.html" target="_top" xlink:title="nsIRDFNode">
<polygon fill="white" stroke="black" points="98,-132.5 98,-153.5 172,-153.5 172,-132.5 98,-132.5"/>
<text text-anchor="middle" x="135" y="-140.5" font-family="Helvetica,sans-Serif" font-size="10.00">nsIRDFNode</text>
</a>
</g>
<!-- Node2&#45;&gt;Node4 -->
<g id="edge10" class="edge"><title>Node2&#45;&gt;Node4</title>
<path fill="none" stroke="midnightblue" d="M96.7139,-183.773C103.757,-173.789 113.364,-161.97 121.371,-153.634"/>
<polygon fill="midnightblue" stroke="midnightblue" points="93.6884,-182.003 91.0868,-192.273 99.5253,-185.867 93.6884,-182.003"/>
</g>
<!-- Node2&#45;&gt;Node4 -->
<g id="edge12" class="edge"><title>Node2&#45;&gt;Node4</title>
<path fill="none" stroke="midnightblue" d="M108.62,-184.685C117.458,-174.516 126.762,-162.225 131.97,-153.634"/>
<polygon fill="midnightblue" stroke="midnightblue" points="105.857,-182.52 101.719,-192.273 111.036,-187.23 105.857,-182.52"/>
</g>
<!-- Node3 -->
<g id="node5" class="node"><title>Node3</title>
<a xlink:href="../../d2/d74/interfacens_i_r_d_f_resource.html" target="_top" xlink:title="nsIRDFResource">
<polygon fill="white" stroke="black" points="95.5,-72.5 95.5,-93.5 188.5,-93.5 188.5,-72.5 95.5,-72.5"/>
<text text-anchor="middle" x="142" y="-80.5" font-family="Helvetica,sans-Serif" font-size="10.00">nsIRDFResource</text>
</a>
</g>
<!-- Node3&#45;&gt;Node1 -->
<g id="edge6" class="edge"><title>Node3&#45;&gt;Node1</title>
<path fill="none" stroke="#9a32cd" stroke-dasharray="5,2" d="M122.089,-65.7275C106.281,-52.0146 84.6809,-33.2774 71.2972,-21.6674"/>
<polygon fill="#9a32cd" stroke="#9a32cd" points="119.906,-68.4672 129.753,-72.3762 124.493,-63.1795 119.906,-68.4672"/>
<text text-anchor="middle" x="127.5" y="-44.5" font-family="Helvetica,sans-Serif" font-size="10.00"> resource</text>
</g>
<!-- Node4&#45;&gt;Node3 -->
<g id="edge8" class="edge"><title>Node4&#45;&gt;Node3</title>
<path fill="none" stroke="midnightblue" d="M130.965,-122.231C131.461,-112.592 133.136,-101.544 135.46,-93.6339"/>
<polygon fill="midnightblue" stroke="midnightblue" points="127.465,-122.263 130.936,-132.273 134.465,-122.284 127.465,-122.263"/>
</g>
<!-- Node4&#45;&gt;Node3 -->
<g id="edge14" class="edge"><title>Node4&#45;&gt;Node3</title>
<path fill="none" stroke="midnightblue" d="M143.881,-122.231C145.634,-112.592 146.537,-101.544 146.059,-93.6339"/>
<polygon fill="midnightblue" stroke="midnightblue" points="140.402,-121.743 141.567,-132.273 147.223,-123.314 140.402,-121.743"/>
</g>
</g>
</svg>
