<?xml version="1.0" encoding="UTF-8" standalone="no"?>
<!DOCTYPE svg PUBLIC "-//W3C//DTD SVG 1.1//EN"
 "http://www.w3.org/Graphics/SVG/1.1/DTD/svg11.dtd">
<!-- Generated by graphviz version 2.26.3 (20100126.1600)
 -->
<!-- Title: G Pages: 1 -->
<!--zoomable 320 -->
<svg id="main" version="1.1" xmlns="http://www.w3.org/2000/svg" xmlns:xlink="http://www.w3.org/1999/xlink" xml:space="preserve" onload="init(evt)">
        <defs>
                <circle id="rim" cx="0" cy="0" r="7"/>
                <circle id="rim2" cx="0" cy="0" r="3.5"/>
                <g id="zoomPlus">
                        <use xlink:href="#rim" fill="#404040">
                                <set attributeName="fill" to="#808080" begin="zoomplus.mouseover" end="zoomplus.mouseout"/>
                        </use>
                        <path d="M-4,0h8M0,-4v8" fill="none" stroke="white" stroke-width="1.5" pointer-events="none"/>
                </g>
                <g id="zoomMin">
                        <use xlink:href="#rim" fill="#404040">
                                <set attributeName="fill" to="#808080" begin="zoomminus.mouseover" end="zoomminus.mouseout"/>
                        </use>
                        <path d="M-4,0h8" fill="none" stroke="white" stroke-width="1.5" pointer-events="none"/>
                </g>
                <g id="dirArrow">
                        <path fill="none" stroke="white" stroke-width="1.5" d="M0,-3.0v7 M-2.5,-0.5L0,-3.0L2.5,-0.5"/>
                </g>
               <g id="resetDef">
                       <use xlink:href="#rim2" fill="#404040">
                               <set attributeName="fill" to="#808080" begin="reset.mouseover" end="reset.mouseout"/>
                       </use>
               </g>
        </defs>

<script type="text/javascript">
var viewWidth = 651;
var viewHeight = 320;
var sectionId = 'dynsection-0';
</script>
<script xlink:href="../../svgpan.js"/>
<svg id="graph" class="graph">
<g id="viewport">
<title>G</title>
<polygon fill="white" stroke="white" points="-4,5 -4,-316 648.383,-316 648.383,5 -4,5"/>
<!-- Node1 -->
<g id="node1" class="node"><title>Node1</title>
<polygon fill="#bfbfbf" stroke="black" points="55.2357,-290.5 55.2357,-311.5 410.236,-311.5 410.236,-290.5 55.2357,-290.5"/>
<text text-anchor="middle" x="232.736" y="-298.5" font-family="Helvetica,sans-Serif" font-size="10.00">/home/aoi/Documents/FxOS/B2G/gaia/xulrunner&#45;sdk/include/nss/seccomon.h</text>
</g>
<!-- Node2 -->
<g id="node3" class="node"><title>Node2</title>
<a xlink:href="../../d3/da9/utilrename_8h.html" target="_top" xlink:title="utilrename.h">
<polygon fill="white" stroke="black" points="20.7357,-174.5 20.7357,-195.5 90.7357,-195.5 90.7357,-174.5 20.7357,-174.5"/>
<text text-anchor="middle" x="55.7357" y="-182.5" font-family="Helvetica,sans-Serif" font-size="10.00">utilrename.h</text>
</a>
</g>
<!-- Node1&#45;&gt;Node2 -->
<g id="edge2" class="edge"><title>Node1&#45;&gt;Node2</title>
<path fill="none" stroke="midnightblue" d="M216.401,-290.295C185.237,-269.871 117.133,-225.238 80.3973,-201.162"/>
<polygon fill="midnightblue" stroke="midnightblue" points="82.0574,-198.066 71.775,-195.512 78.2204,-203.92 82.0574,-198.066"/>
</g>
<!-- Node3 -->
<g id="node5" class="node"><title>Node3</title>
<a xlink:href="../../dc/d23/prtypes_8h.html" target="_top" xlink:title="prtypes.h">
<polygon fill="white" stroke="black" points="247.236,-116.5 247.236,-137.5 304.236,-137.5 304.236,-116.5 247.236,-116.5"/>
<text text-anchor="middle" x="275.736" y="-124.5" font-family="Helvetica,sans-Serif" font-size="10.00">prtypes.h</text>
</a>
</g>
<!-- Node1&#45;&gt;Node3 -->
<g id="edge4" class="edge"><title>Node1&#45;&gt;Node3</title>
<path fill="none" stroke="midnightblue" d="M173.7,-290.495C92.0748,-273.463 -39.6986,-235.4 11.7357,-174 40.0415,-140.21 170.929,-130.692 237.145,-128.027"/>
<polygon fill="midnightblue" stroke="midnightblue" points="237.328,-131.523 247.191,-127.656 237.069,-124.528 237.328,-131.523"/>
</g>
<!-- Node8 -->
<g id="node15" class="node"><title>Node8</title>
<a xlink:href="../../d9/d82/secport_8h.html" target="_top" xlink:title="secport.h">
<polygon fill="white" stroke="black" points="282.236,-232.5 282.236,-253.5 339.236,-253.5 339.236,-232.5 282.236,-232.5"/>
<text text-anchor="middle" x="310.736" y="-240.5" font-family="Helvetica,sans-Serif" font-size="10.00">secport.h</text>
</a>
</g>
<!-- Node1&#45;&gt;Node8 -->
<g id="edge14" class="edge"><title>Node1&#45;&gt;Node8</title>
<path fill="none" stroke="midnightblue" d="M241.678,-290.362C251.799,-281.696 268.191,-269.313 282.558,-259.382"/>
<polygon fill="midnightblue" stroke="midnightblue" points="284.837,-262.066 291.168,-253.571 280.921,-256.264 284.837,-262.066"/>
</g>
<!-- Node4 -->
<g id="node7" class="node"><title>Node4</title>
<a xlink:href="../../d7/d7e/prcpucfg_8h.html" target="_top" xlink:title="prcpucfg.h">
<polygon fill="white" stroke="black" points="244.736,-58.5 244.736,-79.5 306.736,-79.5 306.736,-58.5 244.736,-58.5"/>
<text text-anchor="middle" x="275.736" y="-66.5" font-family="Helvetica,sans-Serif" font-size="10.00">prcpucfg.h</text>
</a>
</g>
<!-- Node3&#45;&gt;Node4 -->
<g id="edge6" class="edge"><title>Node3&#45;&gt;Node4</title>
<path fill="none" stroke="midnightblue" d="M275.736,-116.362C275.736,-108.922 275.736,-98.7427 275.736,-89.7276"/>
<polygon fill="midnightblue" stroke="midnightblue" points="279.236,-89.5706 275.736,-79.5707 272.236,-89.5707 279.236,-89.5706"/>
</g>
<!-- Node5 -->
<g id="node9" class="node"><title>Node5</title>
<polygon fill="white" stroke="#bfbfbf" points="545.736,-58.5 545.736,-79.5 597.736,-79.5 597.736,-58.5 545.736,-58.5"/>
<text text-anchor="middle" x="571.736" y="-66.5" font-family="Helvetica,sans-Serif" font-size="10.00">stddef.h</text>
</g>
<!-- Node3&#45;&gt;Node5 -->
<g id="edge8" class="edge"><title>Node3&#45;&gt;Node5</title>
<path fill="none" stroke="midnightblue" d="M304.303,-120.718C311.61,-119.144 319.458,-117.483 326.736,-116 400.868,-100.897 487.905,-84.5214 535.719,-75.6423"/>
<polygon fill="midnightblue" stroke="midnightblue" points="536.396,-79.0766 545.59,-73.8123 535.12,-72.1939 536.396,-79.0766"/>
</g>
<!-- Node6 -->
<g id="node11" class="node"><title>Node6</title>
<a xlink:href="../../d2/de8/protypes_8h.html" target="_top" xlink:title="obsolete/protypes.h">
<polygon fill="white" stroke="black" points="358.736,-58.5 358.736,-79.5 460.736,-79.5 460.736,-58.5 358.736,-58.5"/>
<text text-anchor="middle" x="409.736" y="-66.5" font-family="Helvetica,sans-Serif" font-size="10.00">obsolete/protypes.h</text>
</a>
</g>
<!-- Node3&#45;&gt;Node6 -->
<g id="edge10" class="edge"><title>Node3&#45;&gt;Node6</title>
<path fill="none" stroke="midnightblue" d="M300.002,-116.497C321.214,-107.315 352.234,-93.8889 375.885,-83.6516"/>
<polygon fill="midnightblue" stroke="midnightblue" points="377.41,-86.8055 385.197,-79.6212 374.629,-80.3815 377.41,-86.8055"/>
</g>
<!-- Node7 -->
<g id="node13" class="node"><title>Node7</title>
<polygon fill="white" stroke="#bfbfbf" points="499.736,-0.5 499.736,-21.5 567.736,-21.5 567.736,-0.5 499.736,-0.5"/>
<text text-anchor="middle" x="533.736" y="-8.5" font-family="Helvetica,sans-Serif" font-size="10.00">sys/types.h</text>
</g>
<!-- Node6&#45;&gt;Node7 -->
<g id="edge12" class="edge"><title>Node6&#45;&gt;Node7</title>
<path fill="none" stroke="midnightblue" d="M432.191,-58.4966C451.646,-49.397 480.015,-36.1273 501.826,-25.9253"/>
<polygon fill="midnightblue" stroke="midnightblue" points="503.453,-29.0285 511.028,-21.6212 500.487,-22.6878 503.453,-29.0285"/>
</g>
<!-- Node8&#45;&gt;Node1 -->
<g id="edge48" class="edge"><title>Node8&#45;&gt;Node1</title>
<path fill="none" stroke="midnightblue" d="M301.872,-253.571C291.783,-262.218 275.402,-274.597 261.025,-284.541"/>
<polygon fill="midnightblue" stroke="midnightblue" points="258.734,-281.864 252.406,-290.362 262.652,-287.665 258.734,-281.864"/>
</g>
<!-- Node8&#45;&gt;Node2 -->
<g id="edge16" class="edge"><title>Node8&#45;&gt;Node2</title>
<path fill="none" stroke="midnightblue" d="M282.014,-236.848C243.188,-228.479 171.558,-212.851 100.761,-196.203"/>
<polygon fill="midnightblue" stroke="midnightblue" points="101.317,-192.738 90.7803,-193.848 99.7091,-199.551 101.317,-192.738"/>
</g>
<!-- Node8&#45;&gt;Node3 -->
<g id="edge32" class="edge"><title>Node8&#45;&gt;Node3</title>
<path fill="none" stroke="midnightblue" d="M307.971,-232.186C304.436,-218.553 298.019,-194.427 291.736,-174 289.027,-165.195 285.792,-155.55 282.941,-147.301"/>
<polygon fill="midnightblue" stroke="midnightblue" points="286.212,-146.051 279.605,-137.768 279.604,-148.363 286.212,-146.051"/>
</g>
<!-- Node8&#45;&gt;Node5 -->
<g id="edge28" class="edge"><title>Node8&#45;&gt;Node5</title>
<path fill="none" stroke="midnightblue" d="M339.268,-240.478C409.217,-234.007 584.774,-215.921 601.736,-196 628.012,-165.139 602.91,-115.387 585.408,-88.2195"/>
<polygon fill="midnightblue" stroke="midnightblue" points="588.113,-85.9692 579.631,-79.6201 582.302,-89.8727 588.113,-85.9692"/>
</g>
<!-- Node8&#45;&gt;Node7 -->
<g id="edge22" class="edge"><title>Node8&#45;&gt;Node7</title>
<path fill="none" stroke="midnightblue" d="M339.501,-240.754C412.864,-234.737 602.459,-217.257 620.736,-196 660.928,-149.255 641.616,-108.832 606.736,-58 597.45,-44.4684 582.859,-33.9455 569.155,-26.3196"/>
<polygon fill="midnightblue" stroke="midnightblue" points="570.372,-23.0078 559.885,-21.5017 567.144,-29.219 570.372,-23.0078"/>
</g>
<!-- Node9 -->
<g id="node18" class="node"><title>Node9</title>
<a xlink:href="../../d3/d82/prlink_8h.html" target="_top" xlink:title="prlink.h">
<polygon fill="white" stroke="black" points="108.736,-174.5 108.736,-195.5 156.736,-195.5 156.736,-174.5 108.736,-174.5"/>
<text text-anchor="middle" x="132.736" y="-182.5" font-family="Helvetica,sans-Serif" font-size="10.00">prlink.h</text>
</a>
</g>
<!-- Node8&#45;&gt;Node9 -->
<g id="edge18" class="edge"><title>Node8&#45;&gt;Node9</title>
<path fill="none" stroke="midnightblue" d="M282.1,-233.795C254.778,-224.996 212.217,-211.245 166.644,-196.283"/>
<polygon fill="midnightblue" stroke="midnightblue" points="167.471,-192.871 156.879,-193.073 165.286,-199.521 167.471,-192.871"/>
</g>
<!-- Node10 -->
<g id="node22" class="node"><title>Node10</title>
<polygon fill="white" stroke="#bfbfbf" points="412.236,-174.5 412.236,-195.5 461.236,-195.5 461.236,-174.5 412.236,-174.5"/>
<text text-anchor="middle" x="436.736" y="-182.5" font-family="Helvetica,sans-Serif" font-size="10.00">ctype.h</text>
</g>
<!-- Node8&#45;&gt;Node10 -->
<g id="edge24" class="edge"><title>Node8&#45;&gt;Node10</title>
<path fill="none" stroke="midnightblue" d="M333.553,-232.497C353.322,-223.397 382.149,-210.127 404.312,-199.925"/>
<polygon fill="midnightblue" stroke="midnightblue" points="406.042,-202.982 413.662,-195.621 403.115,-196.623 406.042,-202.982"/>
</g>
<!-- Node11 -->
<g id="node24" class="node"><title>Node11</title>
<polygon fill="white" stroke="#bfbfbf" points="478.236,-174.5 478.236,-195.5 527.236,-195.5 527.236,-174.5 478.236,-174.5"/>
<text text-anchor="middle" x="502.736" y="-182.5" font-family="Helvetica,sans-Serif" font-size="10.00">string.h</text>
</g>
<!-- Node8&#45;&gt;Node11 -->
<g id="edge26" class="edge"><title>Node8&#45;&gt;Node11</title>
<path fill="none" stroke="midnightblue" d="M339.26,-234.888C369.22,-226.298 417.932,-212.135 468.171,-196.434"/>
<polygon fill="midnightblue" stroke="midnightblue" points="469.407,-199.715 477.899,-193.38 467.31,-193.036 469.407,-199.715"/>
</g>
<!-- Node12 -->
<g id="node27" class="node"><title>Node12</title>
<polygon fill="white" stroke="#bfbfbf" points="544.736,-174.5 544.736,-195.5 592.736,-195.5 592.736,-174.5 544.736,-174.5"/>
<text text-anchor="middle" x="568.736" y="-182.5" font-family="Helvetica,sans-Serif" font-size="10.00">stdlib.h</text>
</g>
<!-- Node8&#45;&gt;Node12 -->
<g id="edge30" class="edge"><title>Node8&#45;&gt;Node12</title>
<path fill="none" stroke="midnightblue" d="M339.401,-238.112C380.639,-230.843 459.216,-216.11 534.98,-195.987"/>
<polygon fill="midnightblue" stroke="midnightblue" points="535.936,-199.354 544.683,-193.375 534.117,-192.595 535.936,-199.354"/>
</g>
<!-- Node13 -->
<g id="node30" class="node"><title>Node13</title>
<a xlink:href="../../db/d6e/prlog_8h.html" target="_top" xlink:title="prlog.h">
<polygon fill="white" stroke="black" points="174.736,-174.5 174.736,-195.5 220.736,-195.5 220.736,-174.5 174.736,-174.5"/>
<text text-anchor="middle" x="197.736" y="-182.5" font-family="Helvetica,sans-Serif" font-size="10.00">prlog.h</text>
</a>
</g>
<!-- Node8&#45;&gt;Node13 -->
<g id="edge34" class="edge"><title>Node8&#45;&gt;Node13</title>
<path fill="none" stroke="midnightblue" d="M290.272,-232.497C272.703,-223.479 247.154,-210.365 227.351,-200.201"/>
<polygon fill="midnightblue" stroke="midnightblue" points="228.924,-197.074 218.429,-195.621 225.727,-203.301 228.924,-197.074"/>
</g>
<!-- Node14 -->
<g id="node33" class="node"><title>Node14</title>
<a xlink:href="../../d5/d70/plarena_8h.html" target="_top" xlink:title="plarena.h">
<polygon fill="white" stroke="black" points="338.736,-174.5 338.736,-195.5 394.736,-195.5 394.736,-174.5 338.736,-174.5"/>
<text text-anchor="middle" x="366.736" y="-182.5" font-family="Helvetica,sans-Serif" font-size="10.00">plarena.h</text>
</a>
</g>
<!-- Node8&#45;&gt;Node14 -->
<g id="edge38" class="edge"><title>Node8&#45;&gt;Node14</title>
<path fill="none" stroke="midnightblue" d="M321.007,-232.362C328.98,-224.104 340.21,-212.472 349.547,-202.803"/>
<polygon fill="midnightblue" stroke="midnightblue" points="352.101,-205.196 356.53,-195.571 347.066,-200.334 352.101,-205.196"/>
</g>
<!-- Node16 -->
<g id="node38" class="node"><title>Node16</title>
<a xlink:href="../../de/d72/plstr_8h.html" target="_top" xlink:title="plstr.h">
<polygon fill="white" stroke="black" points="238.736,-174.5 238.736,-195.5 282.736,-195.5 282.736,-174.5 238.736,-174.5"/>
<text text-anchor="middle" x="260.736" y="-182.5" font-family="Helvetica,sans-Serif" font-size="10.00">plstr.h</text>
</a>
</g>
<!-- Node8&#45;&gt;Node16 -->
<g id="edge44" class="edge"><title>Node8&#45;&gt;Node16</title>
<path fill="none" stroke="midnightblue" d="M301.565,-232.362C294.587,-224.268 284.815,-212.932 276.58,-203.38"/>
<polygon fill="midnightblue" stroke="midnightblue" points="279.029,-200.859 269.848,-195.571 273.727,-205.43 279.029,-200.859"/>
</g>
<!-- Node9&#45;&gt;Node3 -->
<g id="edge20" class="edge"><title>Node9&#45;&gt;Node3</title>
<path fill="none" stroke="midnightblue" d="M156.994,-175.161C179.745,-165.933 214.049,-152.02 239.945,-141.517"/>
<polygon fill="midnightblue" stroke="midnightblue" points="241.465,-144.677 249.416,-137.675 238.834,-138.19 241.465,-144.677"/>
</g>
<!-- Node13&#45;&gt;Node3 -->
<g id="edge36" class="edge"><title>Node13&#45;&gt;Node3</title>
<path fill="none" stroke="midnightblue" d="M212.042,-174.362C223.587,-165.777 240.036,-153.546 253.326,-143.664"/>
<polygon fill="midnightblue" stroke="midnightblue" points="255.584,-146.346 261.52,-137.571 251.407,-140.729 255.584,-146.346"/>
</g>
<!-- Node14&#45;&gt;Node3 -->
<g id="edge40" class="edge"><title>Node14&#45;&gt;Node3</title>
<path fill="none" stroke="midnightblue" d="M350.045,-174.362C336.319,-165.614 316.652,-153.079 300.998,-143.101"/>
<polygon fill="midnightblue" stroke="midnightblue" points="302.635,-139.994 292.321,-137.571 298.872,-145.897 302.635,-139.994"/>
</g>
<!-- Node15 -->
<g id="node36" class="node"><title>Node15</title>
<a xlink:href="../../dd/dc2/plarenas_8h.html" target="_top" xlink:title="plarenas.h">
<polygon fill="white" stroke="black" points="335.736,-116.5 335.736,-137.5 397.736,-137.5 397.736,-116.5 335.736,-116.5"/>
<text text-anchor="middle" x="366.736" y="-124.5" font-family="Helvetica,sans-Serif" font-size="10.00">plarenas.h</text>
</a>
</g>
<!-- Node14&#45;&gt;Node15 -->
<g id="edge42" class="edge"><title>Node14&#45;&gt;Node15</title>
<path fill="none" stroke="midnightblue" d="M366.736,-174.362C366.736,-166.922 366.736,-156.743 366.736,-147.728"/>
<polygon fill="midnightblue" stroke="midnightblue" points="370.236,-147.571 366.736,-137.571 363.236,-147.571 370.236,-147.571"/>
</g>
<!-- Node16&#45;&gt;Node3 -->
<g id="edge46" class="edge"><title>Node16&#45;&gt;Node3</title>
<path fill="none" stroke="midnightblue" d="M263.487,-174.362C265.432,-166.84 268.102,-156.519 270.452,-147.431"/>
<polygon fill="midnightblue" stroke="midnightblue" points="273.886,-148.128 273.002,-137.571 267.109,-146.376 273.886,-148.128"/>
</g>
</g>
</svg>
        <g id="navigator" transform="translate(0 0)" fill="#404254">
                <rect fill="#f2f5e9" fill-opacity="0.5" stroke="#606060" stroke-width=".5" x="0" y="0" width="60" height="60"/>
                <use id="zoomplus" xlink:href="#zoomPlus" x="17" y="9" onmousedown="handleZoom(evt,'in')"/>
                <use id="zoomminus" xlink:href="#zoomMin" x="42" y="9" onmousedown="handleZoom(evt,'out')"/>
                <use id="reset" xlink:href="#resetDef" x="30" y="36" onmousedown="handleReset()"/>
                <g id="arrowUp" xlink:href="#dirArrow" transform="translate(30 24)" onmousedown="handlePan(0,-1)">
                  <use xlink:href="#rim" fill="#404040">
                        <set attributeName="fill" to="#808080" begin="arrowUp.mouseover" end="arrowUp.mouseout"/>
                  </use>
                  <path fill="none" stroke="white" stroke-width="1.5" d="M0,-3.0v7 M-2.5,-0.5L0,-3.0L2.5,-0.5"/>
                </g>
                <g id="arrowRight" xlink:href="#dirArrow" transform="rotate(90) translate(36 -43)" onmousedown="handlePan(1,0)">
                  <use xlink:href="#rim" fill="#404040">
                        <set attributeName="fill" to="#808080" begin="arrowRight.mouseover" end="arrowRight.mouseout"/>
                  </use>
                  <path fill="none" stroke="white" stroke-width="1.5" d="M0,-3.0v7 M-2.5,-0.5L0,-3.0L2.5,-0.5"/>
                </g>
                <g id="arrowDown" xlink:href="#dirArrow" transform="rotate(180) translate(-30 -48)" onmousedown="handlePan(0,1)">
                  <use xlink:href="#rim" fill="#404040">
                        <set attributeName="fill" to="#808080" begin="arrowDown.mouseover" end="arrowDown.mouseout"/>
                  </use>
                  <path fill="none" stroke="white" stroke-width="1.5" d="M0,-3.0v7 M-2.5,-0.5L0,-3.0L2.5,-0.5"/>
                </g>
                <g id="arrowLeft" xlink:href="#dirArrow" transform="rotate(270) translate(-36 17)" onmousedown="handlePan(-1,0)">
                  <use xlink:href="#rim" fill="#404040">
                        <set attributeName="fill" to="#808080" begin="arrowLeft.mouseover" end="arrowLeft.mouseout"/>
                  </use>
                  <path fill="none" stroke="white" stroke-width="1.5" d="M0,-3.0v7 M-2.5,-0.5L0,-3.0L2.5,-0.5"/>
                </g>
        </g>
</svg>
