<?xml version="1.0" encoding="UTF-8" standalone="no"?>
<!DOCTYPE svg PUBLIC "-//W3C//DTD SVG 1.1//EN"
 "http://www.w3.org/Graphics/SVG/1.1/DTD/svg11.dtd">
<!-- Generated by graphviz version 2.26.3 (20100126.1600)
 -->
<!-- Title: G Pages: 1 -->
<svg width="222pt" height="70pt"
 viewBox="0.00 0.00 222.00 70.00" xmlns="http://www.w3.org/2000/svg" xmlns:xlink="http://www.w3.org/1999/xlink">
<g id="graph1" class="graph" transform="scale(1 1) rotate(0) translate(4 66)">
<title>G</title>
<polygon fill="white" stroke="white" points="-4,5 -4,-66 219,-66 219,5 -4,5"/>
<!-- Node1 -->
<g id="node1" class="node"><title>Node1</title>
<polygon fill="#bfbfbf" stroke="black" points="0,-20.5 0,-41.5 72,-41.5 72,-20.5 0,-20.5"/>
<text text-anchor="middle" x="36" y="-28.5" font-family="Helvetica,sans-Serif" font-size="10.00">SkTDict::set</text>
</g>
<!-- Node2 -->
<g id="node3" class="node"><title>Node2</title>
<a xlink:href="../../d9/d81/class_sk_chunk_alloc.html#a779bcdab3e6f6dfdb33036b7b7b34a7a" target="_top" xlink:title="SkChunkAlloc::alloc">
<polygon fill="white" stroke="black" points="108.5,-40.5 108.5,-61.5 213.5,-61.5 213.5,-40.5 108.5,-40.5"/>
<text text-anchor="middle" x="161" y="-48.5" font-family="Helvetica,sans-Serif" font-size="10.00">SkChunkAlloc::alloc</text>
</a>
</g>
<!-- Node1&#45;&gt;Node2 -->
<g id="edge2" class="edge"><title>Node1&#45;&gt;Node2</title>
<path fill="none" stroke="midnightblue" d="M72.1552,-36.7848C80.3277,-38.0924 89.2359,-39.5177 98.1534,-40.9445"/>
<polygon fill="midnightblue" stroke="midnightblue" points="97.7595,-44.426 108.187,-42.5499 98.8655,-37.5139 97.7595,-44.426"/>
</g>
<!-- Node3 -->
<g id="node5" class="node"><title>Node3</title>
<a xlink:href="../../d2/d18/class_sk_t_d_array.html#a6fc25731cbf830fedb0e2516041a114f" target="_top" xlink:title="SkTDArray::insert">
<polygon fill="white" stroke="black" points="113.5,-0.5 113.5,-21.5 208.5,-21.5 208.5,-0.5 113.5,-0.5"/>
<text text-anchor="middle" x="161" y="-8.5" font-family="Helvetica,sans-Serif" font-size="10.00">SkTDArray::insert</text>
</a>
</g>
<!-- Node1&#45;&gt;Node3 -->
<g id="edge4" class="edge"><title>Node1&#45;&gt;Node3</title>
<path fill="none" stroke="midnightblue" d="M72.1552,-25.2152C81.8813,-23.659 92.6494,-21.9361 103.235,-20.2424"/>
<polygon fill="midnightblue" stroke="midnightblue" points="103.967,-23.6698 113.289,-18.6338 102.861,-16.7578 103.967,-23.6698"/>
</g>
</g>
</svg>
