<?xml version="1.0" encoding="UTF-8" standalone="no"?>
<!DOCTYPE svg PUBLIC "-//W3C//DTD SVG 1.1//EN"
 "http://www.w3.org/Graphics/SVG/1.1/DTD/svg11.dtd">
<!-- Generated by graphviz version 2.26.3 (20100126.1600)
 -->
<!-- Title: G Pages: 1 -->
<!--zoomable 280 -->
<svg id="main" version="1.1" xmlns="http://www.w3.org/2000/svg" xmlns:xlink="http://www.w3.org/1999/xlink" xml:space="preserve" onload="init(evt)">
        <defs>
                <circle id="rim" cx="0" cy="0" r="7"/>
                <circle id="rim2" cx="0" cy="0" r="3.5"/>
                <g id="zoomPlus">
                        <use xlink:href="#rim" fill="#404040">
                                <set attributeName="fill" to="#808080" begin="zoomplus.mouseover" end="zoomplus.mouseout"/>
                        </use>
                        <path d="M-4,0h8M0,-4v8" fill="none" stroke="white" stroke-width="1.5" pointer-events="none"/>
                </g>
                <g id="zoomMin">
                        <use xlink:href="#rim" fill="#404040">
                                <set attributeName="fill" to="#808080" begin="zoomminus.mouseover" end="zoomminus.mouseout"/>
                        </use>
                        <path d="M-4,0h8" fill="none" stroke="white" stroke-width="1.5" pointer-events="none"/>
                </g>
                <g id="dirArrow">
                        <path fill="none" stroke="white" stroke-width="1.5" d="M0,-3.0v7 M-2.5,-0.5L0,-3.0L2.5,-0.5"/>
                </g>
               <g id="resetDef">
                       <use xlink:href="#rim2" fill="#404040">
                               <set attributeName="fill" to="#808080" begin="reset.mouseover" end="reset.mouseout"/>
                       </use>
               </g>
        </defs>

<script type="text/javascript">
var viewWidth = 680;
var viewHeight = 280;
var sectionId = 'dynsection-0';
</script>
<script xlink:href="../../svgpan.js"/>
<svg id="graph" class="graph">
<g id="viewport">
<title>G</title>
<polygon fill="white" stroke="white" points="-4,5 -4,-276 677,-276 677,5 -4,5"/>
<!-- Node1 -->
<g id="node1" class="node"><title>Node1</title>
<polygon fill="#bfbfbf" stroke="black" points="222.5,-120.5 222.5,-141.5 311.5,-141.5 311.5,-120.5 222.5,-120.5"/>
<text text-anchor="middle" x="267" y="-128.5" font-family="Helvetica,sans-Serif" font-size="10.00">nsIDOMUIEvent</text>
</g>
<!-- Node4 -->
<g id="node9" class="node"><title>Node4</title>
<a xlink:href="../../df/dde/classns_d_o_m_u_i_event.html" target="_top" xlink:title="nsDOMUIEvent">
<polygon fill="white" stroke="black" points="377,-240.5 377,-261.5 463,-261.5 463,-240.5 377,-240.5"/>
<text text-anchor="middle" x="420" y="-248.5" font-family="Helvetica,sans-Serif" font-size="10.00">nsDOMUIEvent</text>
</a>
</g>
<!-- Node1&#45;&gt;Node4 -->
<g id="edge10" class="edge"><title>Node1&#45;&gt;Node4</title>
<path fill="none" stroke="midnightblue" d="M277.588,-150.322C291.016,-173.017 316.287,-210.201 348,-231 356.57,-236.621 366.708,-240.677 376.629,-243.599"/>
<polygon fill="midnightblue" stroke="midnightblue" points="280.583,-148.509 272.574,-141.573 274.51,-151.989 280.583,-148.509"/>
</g>
<!-- Node7 -->
<g id="node15" class="node"><title>Node7</title>
<a xlink:href="../../d6/dbf/interfacens_i_d_o_m_composition_event.html" target="_top" xlink:title="nsIDOMCompositionEvent">
<polygon fill="white" stroke="black" points="353,-200.5 353,-221.5 487,-221.5 487,-200.5 353,-200.5"/>
<text text-anchor="middle" x="420" y="-208.5" font-family="Helvetica,sans-Serif" font-size="10.00">nsIDOMCompositionEvent</text>
</a>
</g>
<!-- Node1&#45;&gt;Node7 -->
<g id="edge16" class="edge"><title>Node1&#45;&gt;Node7</title>
<path fill="none" stroke="midnightblue" d="M295.175,-147.83C310.033,-158.94 329.07,-172.757 348,-182 365.137,-190.368 386.333,-195.72 401.277,-200.465"/>
<polygon fill="midnightblue" stroke="midnightblue" points="297.043,-144.856 286.943,-141.657 292.843,-150.456 297.043,-144.856"/>
</g>
<!-- Node1&#45;&gt;Node7 -->
<g id="edge18" class="edge"><title>Node1&#45;&gt;Node7</title>
<path fill="none" stroke="midnightblue" d="M280.066,-149.592C295.3,-165.575 321.753,-187.183 348,-200 349.632,-200.797 351.301,-201.567 352.998,-202.308"/>
<polygon fill="midnightblue" stroke="midnightblue" points="282.435,-146.987 273.183,-141.823 277.195,-151.629 282.435,-146.987"/>
</g>
<!-- Node8 -->
<g id="node18" class="node"><title>Node8</title>
<a xlink:href="../../de/d46/interfacens_i_d_o_m_focus_event.html" target="_top" xlink:title="nsIDOMFocusEvent">
<polygon fill="white" stroke="black" points="367,-160.5 367,-181.5 473,-181.5 473,-160.5 367,-160.5"/>
<text text-anchor="middle" x="420" y="-168.5" font-family="Helvetica,sans-Serif" font-size="10.00">nsIDOMFocusEvent</text>
</a>
</g>
<!-- Node1&#45;&gt;Node8 -->
<g id="edge22" class="edge"><title>Node1&#45;&gt;Node8</title>
<path fill="none" stroke="midnightblue" d="M321.562,-138.768C347.948,-145.041 378.137,-153.465 398.05,-160.358"/>
<polygon fill="midnightblue" stroke="midnightblue" points="322.197,-135.322 311.665,-136.476 320.618,-142.142 322.197,-135.322"/>
</g>
<!-- Node1&#45;&gt;Node8 -->
<g id="edge20" class="edge"><title>Node1&#45;&gt;Node8</title>
<path fill="none" stroke="midnightblue" d="M298.289,-144.748C318.007,-151.08 343.975,-158.167 366.859,-163.569"/>
<polygon fill="midnightblue" stroke="midnightblue" points="299.19,-141.36 288.597,-141.519 296.978,-148.001 299.19,-141.36"/>
</g>
<!-- Node9 -->
<g id="node21" class="node"><title>Node9</title>
<a xlink:href="../../dd/d62/interfacens_i_d_o_m_key_event.html" target="_top" xlink:title="nsIDOMKeyEvent">
<polygon fill="white" stroke="black" points="372,-120.5 372,-141.5 468,-141.5 468,-120.5 372,-120.5"/>
<text text-anchor="middle" x="420" y="-128.5" font-family="Helvetica,sans-Serif" font-size="10.00">nsIDOMKeyEvent</text>
</a>
</g>
<!-- Node1&#45;&gt;Node9 -->
<g id="edge24" class="edge"><title>Node1&#45;&gt;Node9</title>
<path fill="none" stroke="midnightblue" d="M322.111,-124.49C338.365,-124.116 356.021,-124.179 371.805,-124.679"/>
<polygon fill="midnightblue" stroke="midnightblue" points="321.557,-121.005 311.665,-124.799 321.764,-128.002 321.557,-121.005"/>
</g>
<!-- Node1&#45;&gt;Node9 -->
<g id="edge26" class="edge"><title>Node1&#45;&gt;Node9</title>
<path fill="none" stroke="midnightblue" d="M322.111,-137.51C338.365,-137.884 356.021,-137.821 371.805,-137.321"/>
<polygon fill="midnightblue" stroke="midnightblue" points="321.764,-133.998 311.665,-137.201 321.557,-140.995 321.764,-133.998"/>
</g>
<!-- Node10 -->
<g id="node24" class="node"><title>Node10</title>
<a xlink:href="../../d4/d03/interfacens_i_d_o_m_mouse_event.html" target="_top" xlink:title="nsIDOMMouseEvent">
<polygon fill="white" stroke="black" points="366,-80.5 366,-101.5 474,-101.5 474,-80.5 366,-80.5"/>
<text text-anchor="middle" x="420" y="-88.5" font-family="Helvetica,sans-Serif" font-size="10.00">nsIDOMMouseEvent</text>
</a>
</g>
<!-- Node1&#45;&gt;Node10 -->
<g id="edge28" class="edge"><title>Node1&#45;&gt;Node10</title>
<path fill="none" stroke="midnightblue" d="M298.163,-117.292C317.615,-111.041 343.184,-104.047 365.874,-98.6641"/>
<polygon fill="midnightblue" stroke="midnightblue" points="296.977,-113.998 288.597,-120.481 299.19,-120.639 296.977,-113.998"/>
</g>
<!-- Node1&#45;&gt;Node10 -->
<g id="edge46" class="edge"><title>Node1&#45;&gt;Node10</title>
<path fill="none" stroke="midnightblue" d="M321.562,-123.232C347.948,-116.959 378.137,-108.535 398.05,-101.642"/>
<polygon fill="midnightblue" stroke="midnightblue" points="320.618,-119.858 311.665,-125.524 322.197,-126.678 320.618,-119.858"/>
</g>
<!-- Node15 -->
<g id="node39" class="node"><title>Node15</title>
<a xlink:href="../../d4/d03/interfacens_i_d_o_m_scroll_area_event.html" target="_top" xlink:title="nsIDOMScrollAreaEvent">
<polygon fill="white" stroke="black" points="358,-40.5 358,-61.5 482,-61.5 482,-40.5 358,-40.5"/>
<text text-anchor="middle" x="420" y="-48.5" font-family="Helvetica,sans-Serif" font-size="10.00">nsIDOMScrollAreaEvent</text>
</a>
</g>
<!-- Node1&#45;&gt;Node15 -->
<g id="edge48" class="edge"><title>Node1&#45;&gt;Node15</title>
<path fill="none" stroke="midnightblue" d="M280.066,-112.408C295.3,-96.4254 321.753,-74.8166 348,-62 351.148,-60.463 354.432,-59.0278 357.79,-57.7005"/>
<polygon fill="midnightblue" stroke="midnightblue" points="277.195,-110.371 273.183,-120.177 282.435,-115.013 277.195,-110.371"/>
</g>
<!-- Node1&#45;&gt;Node15 -->
<g id="edge50" class="edge"><title>Node1&#45;&gt;Node15</title>
<path fill="none" stroke="midnightblue" d="M295.175,-114.17C310.033,-103.06 329.07,-89.2435 348,-80 365.137,-71.632 386.333,-66.2796 401.277,-61.5347"/>
<polygon fill="midnightblue" stroke="midnightblue" points="292.843,-111.544 286.943,-120.343 297.043,-117.144 292.843,-111.544"/>
</g>
<!-- Node16 -->
<g id="node42" class="node"><title>Node16</title>
<a xlink:href="../../dd/d06/interfacens_i_d_o_m_x_u_l_command_event.html" target="_top" xlink:title="nsIDOMXULCommandEvent">
<polygon fill="white" stroke="black" points="348.5,-0.5 348.5,-21.5 491.5,-21.5 491.5,-0.5 348.5,-0.5"/>
<text text-anchor="middle" x="420" y="-8.5" font-family="Helvetica,sans-Serif" font-size="10.00">nsIDOMXULCommandEvent</text>
</a>
</g>
<!-- Node1&#45;&gt;Node16 -->
<g id="edge52" class="edge"><title>Node1&#45;&gt;Node16</title>
<path fill="none" stroke="midnightblue" d="M274.701,-110.923C287.165,-85.8029 313.846,-44.3994 348,-22 348.217,-21.8577 348.435,-21.7164 348.654,-21.5761"/>
<polygon fill="midnightblue" stroke="midnightblue" points="271.392,-109.741 270.377,-120.287 277.747,-112.676 271.392,-109.741"/>
</g>
<!-- Node1&#45;&gt;Node16 -->
<g id="edge54" class="edge"><title>Node1&#45;&gt;Node16</title>
<path fill="none" stroke="midnightblue" d="M281.817,-111.773C295.971,-90.9354 319.357,-58.7848 348,-40 362.537,-30.4662 381.582,-25.4334 396.434,-21.511"/>
<polygon fill="midnightblue" stroke="midnightblue" points="278.827,-109.948 276.153,-120.2 284.636,-113.852 278.827,-109.948"/>
</g>
<!-- Node2 -->
<g id="node2" class="node"><title>Node2</title>
<a xlink:href="../../d4/d5c/interfacens_i_d_o_m_event.html" target="_top" xlink:title="nsIDOMEvent">
<polygon fill="white" stroke="black" points="106.5,-120.5 106.5,-141.5 185.5,-141.5 185.5,-120.5 106.5,-120.5"/>
<text text-anchor="middle" x="146" y="-128.5" font-family="Helvetica,sans-Serif" font-size="10.00">nsIDOMEvent</text>
</a>
</g>
<!-- Node2&#45;&gt;Node1 -->
<g id="edge2" class="edge"><title>Node2&#45;&gt;Node1</title>
<path fill="none" stroke="midnightblue" d="M195.742,-124.346C204.527,-124.188 213.624,-124.225 222.261,-124.458"/>
<polygon fill="midnightblue" stroke="midnightblue" points="195.521,-120.85 185.62,-124.621 195.711,-127.848 195.521,-120.85"/>
</g>
<!-- Node2&#45;&gt;Node1 -->
<g id="edge8" class="edge"><title>Node2&#45;&gt;Node1</title>
<path fill="none" stroke="midnightblue" d="M195.742,-137.654C204.527,-137.812 213.624,-137.775 222.261,-137.542"/>
<polygon fill="midnightblue" stroke="midnightblue" points="195.711,-134.152 185.62,-137.379 195.521,-141.15 195.711,-134.152"/>
</g>
<!-- Node3 -->
<g id="node4" class="node"><title>Node3</title>
<a xlink:href="../../d4/d6a/classns_i_supports.html" target="_top" xlink:title="nsISupports">
<polygon fill="white" stroke="black" points="0.5,-120.5 0.5,-141.5 69.5,-141.5 69.5,-120.5 0.5,-120.5"/>
<text text-anchor="middle" x="35" y="-128.5" font-family="Helvetica,sans-Serif" font-size="10.00">nsISupports</text>
</a>
</g>
<!-- Node3&#45;&gt;Node2 -->
<g id="edge4" class="edge"><title>Node3&#45;&gt;Node2</title>
<path fill="none" stroke="midnightblue" d="M79.6828,-124.365C88.5447,-124.174 97.7893,-124.221 106.465,-124.505"/>
<polygon fill="midnightblue" stroke="midnightblue" points="79.3926,-120.873 69.5126,-124.699 79.622,-127.869 79.3926,-120.873"/>
</g>
<!-- Node3&#45;&gt;Node2 -->
<g id="edge6" class="edge"><title>Node3&#45;&gt;Node2</title>
<path fill="none" stroke="midnightblue" d="M79.6828,-137.635C88.5447,-137.826 97.7893,-137.779 106.465,-137.495"/>
<polygon fill="midnightblue" stroke="midnightblue" points="79.622,-134.131 69.5126,-137.301 79.3926,-141.127 79.622,-134.131"/>
</g>
<!-- Node5 -->
<g id="node11" class="node"><title>Node5</title>
<a xlink:href="../../d7/d1d/classmozilla_1_1dom_1_1_m_o_z___f_i_n_a_l.html" target="_top" xlink:title="mozilla::dom::MOZ_FINAL">
<polygon fill="white" stroke="black" points="533,-250.5 533,-271.5 667,-271.5 667,-250.5 533,-250.5"/>
<text text-anchor="middle" x="600" y="-258.5" font-family="Helvetica,sans-Serif" font-size="10.00">mozilla::dom::MOZ_FINAL</text>
</a>
</g>
<!-- Node4&#45;&gt;Node5 -->
<g id="edge12" class="edge"><title>Node4&#45;&gt;Node5</title>
<path fill="none" stroke="midnightblue" d="M473.231,-253.957C491.962,-254.998 513.26,-256.181 532.98,-257.277"/>
<polygon fill="midnightblue" stroke="midnightblue" points="473.293,-250.455 463.114,-253.395 472.905,-257.445 473.293,-250.455"/>
</g>
<!-- Node6 -->
<g id="node13" class="node"><title>Node6</title>
<a xlink:href="../../df/d19/classns_d_o_m_touch_event.html" target="_top" xlink:title="nsDOMTouchEvent">
<polygon fill="white" stroke="black" points="548.5,-210.5 548.5,-231.5 651.5,-231.5 651.5,-210.5 548.5,-210.5"/>
<text text-anchor="middle" x="600" y="-218.5" font-family="Helvetica,sans-Serif" font-size="10.00">nsDOMTouchEvent</text>
</a>
</g>
<!-- Node4&#45;&gt;Node6 -->
<g id="edge14" class="edge"><title>Node4&#45;&gt;Node6</title>
<path fill="none" stroke="midnightblue" d="M473.013,-242.164C496.762,-238.206 524.67,-233.555 548.267,-229.622"/>
<polygon fill="midnightblue" stroke="midnightblue" points="472.403,-238.718 463.114,-243.814 473.554,-245.623 472.403,-238.718"/>
</g>
<!-- Node11 -->
<g id="node26" class="node"><title>Node11</title>
<a xlink:href="../../df/d04/interfacens_i_d_o_m_drag_event.html" target="_top" xlink:title="nsIDOMDragEvent">
<polygon fill="white" stroke="black" points="550,-150.5 550,-171.5 650,-171.5 650,-150.5 550,-150.5"/>
<text text-anchor="middle" x="600" y="-158.5" font-family="Helvetica,sans-Serif" font-size="10.00">nsIDOMDragEvent</text>
</a>
</g>
<!-- Node10&#45;&gt;Node11 -->
<g id="edge30" class="edge"><title>Node10&#45;&gt;Node11</title>
<path fill="none" stroke="midnightblue" d="M483.523,-97.9928C486.433,-99.2339 489.273,-100.57 492,-102 510.446,-111.67 509.554,-122.33 528,-132 544.546,-140.674 565.259,-145.918 580.216,-150.448"/>
<polygon fill="midnightblue" stroke="midnightblue" points="484.643,-94.6736 474.053,-94.3561 482.134,-101.208 484.643,-94.6736"/>
</g>
<!-- Node10&#45;&gt;Node11 -->
<g id="edge32" class="edge"><title>Node10&#45;&gt;Node11</title>
<path fill="none" stroke="midnightblue" d="M449.528,-104.424C462.984,-108.354 478.815,-113.088 492,-120 510.446,-129.67 509.554,-140.33 528,-150 534.779,-153.554 542.258,-156.532 549.754,-158.901"/>
<polygon fill="midnightblue" stroke="midnightblue" points="450.366,-101.022 439.784,-101.552 448.387,-107.737 450.366,-101.022"/>
</g>
<!-- Node12 -->
<g id="node29" class="node"><title>Node12</title>
<a xlink:href="../../d4/daa/interfacens_i_d_o_m_mouse_scroll_event.html" target="_top" xlink:title="nsIDOMMouseScrollEvent">
<polygon fill="white" stroke="black" points="533.5,-110.5 533.5,-131.5 666.5,-131.5 666.5,-110.5 533.5,-110.5"/>
<text text-anchor="middle" x="600" y="-118.5" font-family="Helvetica,sans-Serif" font-size="10.00">nsIDOMMouseScrollEvent</text>
</a>
</g>
<!-- Node10&#45;&gt;Node12 -->
<g id="edge34" class="edge"><title>Node10&#45;&gt;Node12</title>
<path fill="none" stroke="midnightblue" d="M483.974,-95.1697C512.672,-99.3701 545.232,-105.203 568.54,-110.483"/>
<polygon fill="midnightblue" stroke="midnightblue" points="484.398,-91.695 474.006,-93.7557 483.415,-98.6256 484.398,-91.695"/>
</g>
<!-- Node10&#45;&gt;Node12 -->
<g id="edge36" class="edge"><title>Node10&#45;&gt;Node12</title>
<path fill="none" stroke="midnightblue" d="M461.734,-103.756C482.935,-108.215 509.21,-112.843 533.144,-116.405"/>
<polygon fill="midnightblue" stroke="midnightblue" points="462.282,-100.293 451.766,-101.586 460.793,-107.133 462.282,-100.293"/>
</g>
<!-- Node13 -->
<g id="node32" class="node"><title>Node13</title>
<a xlink:href="../../d7/d73/interfacens_i_d_o_m_simple_gesture_event.html" target="_top" xlink:title="nsIDOMSimpleGestureEvent">
<polygon fill="white" stroke="black" points="528.5,-70.5 528.5,-91.5 671.5,-91.5 671.5,-70.5 528.5,-70.5"/>
<text text-anchor="middle" x="600" y="-78.5" font-family="Helvetica,sans-Serif" font-size="10.00">nsIDOMSimpleGestureEvent</text>
</a>
</g>
<!-- Node10&#45;&gt;Node13 -->
<g id="edge38" class="edge"><title>Node10&#45;&gt;Node13</title>
<path fill="none" stroke="midnightblue" d="M484.232,-80.9338C498.537,-79.8518 513.791,-78.9625 528.372,-78.3559"/>
<polygon fill="midnightblue" stroke="midnightblue" points="483.694,-77.4656 474.006,-81.7544 484.254,-84.4431 483.694,-77.4656"/>
</g>
<!-- Node10&#45;&gt;Node13 -->
<g id="edge40" class="edge"><title>Node10&#45;&gt;Node13</title>
<path fill="none" stroke="midnightblue" d="M484.057,-93.9356C498.844,-93.4132 514.652,-92.5717 529.688,-91.5105"/>
<polygon fill="midnightblue" stroke="midnightblue" points="483.893,-90.4389 474.006,-94.245 484.109,-97.4356 483.893,-90.4389"/>
</g>
<!-- Node14 -->
<g id="node35" class="node"><title>Node14</title>
<a xlink:href="../../d4/db6/interfacens_i_d_o_m_wheel_event.html" target="_top" xlink:title="nsIDOMWheelEvent">
<polygon fill="white" stroke="black" points="546.5,-30.5 546.5,-51.5 653.5,-51.5 653.5,-30.5 546.5,-30.5"/>
<text text-anchor="middle" x="600" y="-38.5" font-family="Helvetica,sans-Serif" font-size="10.00">nsIDOMWheelEvent</text>
</a>
</g>
<!-- Node10&#45;&gt;Node14 -->
<g id="edge42" class="edge"><title>Node10&#45;&gt;Node14</title>
<path fill="none" stroke="midnightblue" d="M451.452,-76.9905C477.561,-68.1745 515.283,-57.3738 546.18,-49.7102"/>
<polygon fill="midnightblue" stroke="midnightblue" points="450.004,-73.7888 441.712,-80.3843 452.307,-80.399 450.004,-73.7888"/>
</g>
<!-- Node10&#45;&gt;Node14 -->
<g id="edge44" class="edge"><title>Node10&#45;&gt;Node14</title>
<path fill="none" stroke="midnightblue" d="M484.057,-79.7006C517.042,-71.2054 555.111,-59.9921 578.363,-51.5884"/>
<polygon fill="midnightblue" stroke="midnightblue" points="482.842,-76.3977 474.006,-82.2437 484.559,-83.1839 482.842,-76.3977"/>
</g>
</g>
</svg>
        <g id="navigator" transform="translate(0 0)" fill="#404254">
                <rect fill="#f2f5e9" fill-opacity="0.5" stroke="#606060" stroke-width=".5" x="0" y="0" width="60" height="60"/>
                <use id="zoomplus" xlink:href="#zoomPlus" x="17" y="9" onmousedown="handleZoom(evt,'in')"/>
                <use id="zoomminus" xlink:href="#zoomMin" x="42" y="9" onmousedown="handleZoom(evt,'out')"/>
                <use id="reset" xlink:href="#resetDef" x="30" y="36" onmousedown="handleReset()"/>
                <g id="arrowUp" xlink:href="#dirArrow" transform="translate(30 24)" onmousedown="handlePan(0,-1)">
                  <use xlink:href="#rim" fill="#404040">
                        <set attributeName="fill" to="#808080" begin="arrowUp.mouseover" end="arrowUp.mouseout"/>
                  </use>
                  <path fill="none" stroke="white" stroke-width="1.5" d="M0,-3.0v7 M-2.5,-0.5L0,-3.0L2.5,-0.5"/>
                </g>
                <g id="arrowRight" xlink:href="#dirArrow" transform="rotate(90) translate(36 -43)" onmousedown="handlePan(1,0)">
                  <use xlink:href="#rim" fill="#404040">
                        <set attributeName="fill" to="#808080" begin="arrowRight.mouseover" end="arrowRight.mouseout"/>
                  </use>
                  <path fill="none" stroke="white" stroke-width="1.5" d="M0,-3.0v7 M-2.5,-0.5L0,-3.0L2.5,-0.5"/>
                </g>
                <g id="arrowDown" xlink:href="#dirArrow" transform="rotate(180) translate(-30 -48)" onmousedown="handlePan(0,1)">
                  <use xlink:href="#rim" fill="#404040">
                        <set attributeName="fill" to="#808080" begin="arrowDown.mouseover" end="arrowDown.mouseout"/>
                  </use>
                  <path fill="none" stroke="white" stroke-width="1.5" d="M0,-3.0v7 M-2.5,-0.5L0,-3.0L2.5,-0.5"/>
                </g>
                <g id="arrowLeft" xlink:href="#dirArrow" transform="rotate(270) translate(-36 17)" onmousedown="handlePan(-1,0)">
                  <use xlink:href="#rim" fill="#404040">
                        <set attributeName="fill" to="#808080" begin="arrowLeft.mouseover" end="arrowLeft.mouseout"/>
                  </use>
                  <path fill="none" stroke="white" stroke-width="1.5" d="M0,-3.0v7 M-2.5,-0.5L0,-3.0L2.5,-0.5"/>
                </g>
        </g>
</svg>
