<?xml version="1.0" encoding="UTF-8" standalone="no"?>
<!DOCTYPE svg PUBLIC "-//W3C//DTD SVG 1.1//EN"
 "http://www.w3.org/Graphics/SVG/1.1/DTD/svg11.dtd">
<!-- Generated by graphviz version 2.26.3 (20100126.1600)
 -->
<!-- Title: G Pages: 1 -->
<svg width="444pt" height="108pt"
 viewBox="0.00 0.00 444.00 108.00" xmlns="http://www.w3.org/2000/svg" xmlns:xlink="http://www.w3.org/1999/xlink">
<g id="graph1" class="graph" transform="scale(1 1) rotate(0) translate(4 104)">
<title>G</title>
<polygon fill="white" stroke="white" points="-4,5 -4,-104 441,-104 441,5 -4,5"/>
<!-- Node1 -->
<g id="node1" class="node"><title>Node1</title>
<polygon fill="#bfbfbf" stroke="black" points="0,-39.5 0,-60.5 116,-60.5 116,-39.5 0,-39.5"/>
<text text-anchor="middle" x="58" y="-47.5" font-family="Helvetica,sans-Serif" font-size="10.00">nsAttrName::GetPrefix</text>
</g>
<!-- Node2 -->
<g id="node3" class="node"><title>Node2</title>
<a xlink:href="../../d1/d14/classns_i_node_info.html#aa55ca639254aadde44869647b43757b2" target="_top" xlink:title="nsINodeInfo::GetPrefixAtom">
<polygon fill="white" stroke="black" points="152,-78.5 152,-99.5 292,-99.5 292,-78.5 152,-78.5"/>
<text text-anchor="middle" x="222" y="-86.5" font-family="Helvetica,sans-Serif" font-size="10.00">nsINodeInfo::GetPrefixAtom</text>
</a>
</g>
<!-- Node1&#45;&gt;Node2 -->
<g id="edge2" class="edge"><title>Node1&#45;&gt;Node2</title>
<path fill="none" stroke="midnightblue" d="M102.381,-60.554C122.526,-65.3447 146.539,-71.0551 167.746,-76.0981"/>
<polygon fill="midnightblue" stroke="midnightblue" points="167.045,-79.529 177.584,-78.4376 168.665,-72.7189 167.045,-79.529"/>
</g>
<!-- Node3 -->
<g id="node5" class="node"><title>Node3</title>
<a xlink:href="../../d0/dd8/classns_attr_name.html#aa777040b167e0e05820778624786ce50" target="_top" xlink:title="nsAttrName::IsAtom">
<polygon fill="white" stroke="black" points="328.5,-19.5 328.5,-40.5 435.5,-40.5 435.5,-19.5 328.5,-19.5"/>
<text text-anchor="middle" x="382" y="-27.5" font-family="Helvetica,sans-Serif" font-size="10.00">nsAttrName::IsAtom</text>
</a>
</g>
<!-- Node1&#45;&gt;Node3 -->
<g id="edge4" class="edge"><title>Node1&#45;&gt;Node3</title>
<path fill="none" stroke="midnightblue" d="M116.299,-46.4013C173.188,-42.8896 259.512,-37.561 318.209,-33.9377"/>
<polygon fill="midnightblue" stroke="midnightblue" points="318.705,-37.4139 328.47,-33.3043 318.274,-30.4272 318.705,-37.4139"/>
</g>
<!-- Node4 -->
<g id="node7" class="node"><title>Node4</title>
<a xlink:href="../../d0/dd8/classns_attr_name.html#a270229f051d058e82152ca4079c83398" target="_top" xlink:title="nsAttrName::NodeInfo">
<polygon fill="white" stroke="black" points="164.5,-0.5 164.5,-21.5 279.5,-21.5 279.5,-0.5 164.5,-0.5"/>
<text text-anchor="middle" x="222" y="-8.5" font-family="Helvetica,sans-Serif" font-size="10.00">nsAttrName::NodeInfo</text>
</a>
</g>
<!-- Node1&#45;&gt;Node4 -->
<g id="edge6" class="edge"><title>Node1&#45;&gt;Node4</title>
<path fill="none" stroke="midnightblue" d="M102.381,-39.446C122.526,-34.6553 146.539,-28.9449 167.746,-23.9019"/>
<polygon fill="midnightblue" stroke="midnightblue" points="168.665,-27.2811 177.584,-21.5624 167.045,-20.471 168.665,-27.2811"/>
</g>
<!-- Node4&#45;&gt;Node3 -->
<g id="edge8" class="edge"><title>Node4&#45;&gt;Node3</title>
<path fill="none" stroke="midnightblue" d="M279.764,-17.8594C292.265,-19.344 305.554,-20.922 318.27,-22.432"/>
<polygon fill="midnightblue" stroke="midnightblue" points="317.976,-25.9217 328.319,-23.6254 318.802,-18.9705 317.976,-25.9217"/>
</g>
</g>
</svg>
