<?xml version="1.0" encoding="UTF-8" standalone="no"?>
<!DOCTYPE svg PUBLIC "-//W3C//DTD SVG 1.1//EN"
 "http://www.w3.org/Graphics/SVG/1.1/DTD/svg11.dtd">
<!-- Generated by graphviz version 2.26.3 (20100126.1600)
 -->
<!-- Title: G Pages: 1 -->
<svg width="466pt" height="84pt"
 viewBox="0.00 0.00 466.00 84.02" xmlns="http://www.w3.org/2000/svg" xmlns:xlink="http://www.w3.org/1999/xlink">
<g id="graph1" class="graph" transform="scale(1 1) rotate(0) translate(4 80.0198)">
<title>G</title>
<polygon fill="white" stroke="white" points="-4,5 -4,-80.0198 463,-80.0198 463,5 -4,5"/>
<!-- Node1 -->
<g id="node1" class="node"><title>Node1</title>
<polygon fill="#bfbfbf" stroke="black" points="0,-40.5 0,-61.5 138,-61.5 138,-40.5 0,-40.5"/>
<text text-anchor="middle" x="69" y="-48.5" font-family="Helvetica,sans-Serif" font-size="10.00">nsAttrName::NamespaceID</text>
</g>
<!-- Node2 -->
<g id="node3" class="node"><title>Node2</title>
<a xlink:href="../../d0/dd8/classns_attr_name.html#aa777040b167e0e05820778624786ce50" target="_top" xlink:title="nsAttrName::IsAtom">
<polygon fill="white" stroke="black" points="350.5,-39.5 350.5,-60.5 457.5,-60.5 457.5,-39.5 350.5,-39.5"/>
<text text-anchor="middle" x="404" y="-47.5" font-family="Helvetica,sans-Serif" font-size="10.00">nsAttrName::IsAtom</text>
</a>
</g>
<!-- Node1&#45;&gt;Node2 -->
<g id="edge2" class="edge"><title>Node1&#45;&gt;Node2</title>
<path fill="none" stroke="midnightblue" d="M114.214,-61.5426C132.646,-65.334 154.232,-69.1341 174,-71 235.947,-76.8471 252.186,-78.1161 314,-71 328.365,-69.3462 343.771,-66.2542 357.703,-62.9415"/>
<polygon fill="midnightblue" stroke="midnightblue" points="358.684,-66.3045 367.552,-60.5077 357.004,-59.5089 358.684,-66.3045"/>
</g>
<!-- Node3 -->
<g id="node5" class="node"><title>Node3</title>
<a xlink:href="../../d1/d14/classns_i_node_info.html#a0d303db6b6309811070ce1cd5cd64047" target="_top" xlink:title="nsINodeInfo::NamespaceID">
<polygon fill="white" stroke="black" points="174.5,-40.5 174.5,-61.5 313.5,-61.5 313.5,-40.5 174.5,-40.5"/>
<text text-anchor="middle" x="244" y="-48.5" font-family="Helvetica,sans-Serif" font-size="10.00">nsINodeInfo::NamespaceID</text>
</a>
</g>
<!-- Node1&#45;&gt;Node3 -->
<g id="edge4" class="edge"><title>Node1&#45;&gt;Node3</title>
<path fill="none" stroke="midnightblue" d="M138.165,-51C146.748,-51 155.578,-51 164.304,-51"/>
<polygon fill="midnightblue" stroke="midnightblue" points="164.478,-54.5001 174.478,-51 164.478,-47.5001 164.478,-54.5001"/>
</g>
<!-- Node4 -->
<g id="node7" class="node"><title>Node4</title>
<a xlink:href="../../d0/dd8/classns_attr_name.html#a270229f051d058e82152ca4079c83398" target="_top" xlink:title="nsAttrName::NodeInfo">
<polygon fill="white" stroke="black" points="186.5,-0.5 186.5,-21.5 301.5,-21.5 301.5,-0.5 186.5,-0.5"/>
<text text-anchor="middle" x="244" y="-8.5" font-family="Helvetica,sans-Serif" font-size="10.00">nsAttrName::NodeInfo</text>
</a>
</g>
<!-- Node1&#45;&gt;Node4 -->
<g id="edge6" class="edge"><title>Node1&#45;&gt;Node4</title>
<path fill="none" stroke="midnightblue" d="M114.979,-40.4905C137.398,-35.3663 164.55,-29.1601 188.151,-23.7655"/>
<polygon fill="midnightblue" stroke="midnightblue" points="189.056,-27.149 198.024,-21.5087 187.496,-20.325 189.056,-27.149"/>
</g>
<!-- Node4&#45;&gt;Node2 -->
<g id="edge8" class="edge"><title>Node4&#45;&gt;Node2</title>
<path fill="none" stroke="midnightblue" d="M287.298,-21.554C306.864,-26.323 330.168,-32.0035 350.788,-37.0296"/>
<polygon fill="midnightblue" stroke="midnightblue" points="350.123,-40.4698 360.667,-39.4376 351.78,-33.6689 350.123,-40.4698"/>
</g>
</g>
</svg>
