<?xml version="1.0" encoding="UTF-8" standalone="no"?>
<!DOCTYPE svg PUBLIC "-//W3C//DTD SVG 1.1//EN"
 "http://www.w3.org/Graphics/SVG/1.1/DTD/svg11.dtd">
<!-- Generated by graphviz version 2.26.3 (20100126.1600)
 -->
<!-- Title: G Pages: 1 -->
<svg width="275pt" height="242pt"
 viewBox="0.00 0.00 274.76 242.31" xmlns="http://www.w3.org/2000/svg" xmlns:xlink="http://www.w3.org/1999/xlink">
<g id="graph1" class="graph" transform="scale(1 1) rotate(0) translate(4 238.309)">
<title>G</title>
<polygon fill="white" stroke="white" points="-4,5 -4,-238.309 271.763,-238.309 271.763,5 -4,5"/>
<!-- Node1 -->
<g id="node1" class="node"><title>Node1</title>
<polygon fill="#bfbfbf" stroke="black" points="178.763,-0.5 178.763,-21.5 252.763,-21.5 252.763,-0.5 178.763,-0.5"/>
<text text-anchor="middle" x="215.763" y="-8.5" font-family="Helvetica,sans-Serif" font-size="10.00">PRRecvWait</text>
</g>
<!-- Node2 -->
<g id="node2" class="node"><title>Node2</title>
<a xlink:href="../../d8/dea/struct_p_r_file_desc.html" target="_top" xlink:title="PRFileDesc">
<polygon fill="white" stroke="black" points="82.7627,-204.5 82.7627,-225.5 152.763,-225.5 152.763,-204.5 82.7627,-204.5"/>
<text text-anchor="middle" x="117.763" y="-212.5" font-family="Helvetica,sans-Serif" font-size="10.00">PRFileDesc</text>
</a>
</g>
<!-- Node2&#45;&gt;Node1 -->
<g id="edge2" class="edge"><title>Node2&#45;&gt;Node1</title>
<path fill="none" stroke="#9a32cd" stroke-dasharray="5,2" d="M148.23,-198.422C153.695,-194.313 158.878,-189.488 162.763,-184 201.074,-129.883 178.583,-102.122 201.763,-40 204.108,-33.7144 207.331,-26.9495 210.093,-21.5357"/>
<polygon fill="#9a32cd" stroke="#9a32cd" points="145.884,-195.783 139.557,-204.282 149.803,-201.583 145.884,-195.783"/>
<text text-anchor="middle" x="207.763" y="-109.5" font-family="Helvetica,sans-Serif" font-size="10.00"> fd</text>
</g>
<!-- Node2&#45;&gt;Node2 -->
<g id="edge4" class="edge"><title>Node2&#45;&gt;Node2</title>
<path fill="none" stroke="#9a32cd" stroke-dasharray="5,2" d="M136.859,-231.003C153.349,-238.236 170.763,-232.902 170.763,-215 170.763,-193.783 146.302,-190.219 127.909,-204.309"/>
<polygon fill="#9a32cd" stroke="#9a32cd" points="138.295,-227.785 127.909,-225.691 134.722,-233.805 138.295,-227.785"/>
<text text-anchor="middle" x="184.263" y="-219" font-family="Helvetica,sans-Serif" font-size="10.00"> lower</text>
<text text-anchor="middle" x="184.263" y="-206" font-family="Helvetica,sans-Serif" font-size="10.00">higher</text>
</g>
<!-- Node3 -->
<g id="node5" class="node"><title>Node3</title>
<a xlink:href="../../d8/d37/struct_p_r_i_o_methods.html" target="_top" xlink:title="PRIOMethods">
<polygon fill="white" stroke="black" points="46.2627,-0.5 46.2627,-21.5 125.263,-21.5 125.263,-0.5 46.2627,-0.5"/>
<text text-anchor="middle" x="85.7627" y="-8.5" font-family="Helvetica,sans-Serif" font-size="10.00">PRIOMethods</text>
</a>
</g>
<!-- Node2&#45;&gt;Node3 -->
<g id="edge8" class="edge"><title>Node2&#45;&gt;Node3</title>
<path fill="none" stroke="#9a32cd" stroke-dasharray="5,2" d="M72.6643,-204.868C52.7654,-199.397 32.5647,-192.106 26.7627,-184 -10.4878,-131.958 -7.06909,-94.3269 26.7627,-40 31.8911,-31.7648 40.1184,-25.8012 48.8213,-21.5086"/>
<polygon fill="#9a32cd" stroke="#9a32cd" points="71.7836,-208.256 82.3441,-207.404 73.5574,-201.484 71.7836,-208.256"/>
<text text-anchor="middle" x="61.7627" y="-174.5" font-family="Helvetica,sans-Serif" font-size="10.00"> transmitfile</text>
<text text-anchor="middle" x="61.7627" y="-161.5" font-family="Helvetica,sans-Serif" font-size="10.00">available64</text>
<text text-anchor="middle" x="61.7627" y="-148.5" font-family="Helvetica,sans-Serif" font-size="10.00">available</text>
<text text-anchor="middle" x="61.7627" y="-135.5" font-family="Helvetica,sans-Serif" font-size="10.00">getsockname</text>
<text text-anchor="middle" x="61.7627" y="-122.5" font-family="Helvetica,sans-Serif" font-size="10.00">close</text>
<text text-anchor="middle" x="61.7627" y="-109.5" font-family="Helvetica,sans-Serif" font-size="10.00">setsocketoption</text>
<text text-anchor="middle" x="61.7627" y="-96.5" font-family="Helvetica,sans-Serif" font-size="10.00">sendto</text>
<text text-anchor="middle" x="61.7627" y="-83.5" font-family="Helvetica,sans-Serif" font-size="10.00">fileInfo64</text>
<text text-anchor="middle" x="61.7627" y="-70.5" font-family="Helvetica,sans-Serif" font-size="10.00">recv</text>
<text text-anchor="middle" x="61.7627" y="-57.5" font-family="Helvetica,sans-Serif" font-size="10.00">writev</text>
<text text-anchor="middle" x="61.7627" y="-44.5" font-family="Helvetica,sans-Serif" font-size="10.00">...</text>
</g>
<!-- Node3&#45;&gt;Node2 -->
<g id="edge6" class="edge"><title>Node3&#45;&gt;Node2</title>
<path fill="none" stroke="#9a32cd" stroke-dasharray="5,2" d="M97.193,-30.6849C98.5898,-33.7275 99.8453,-36.8928 100.763,-40 118.568,-100.308 118.726,-176.874 118.108,-204.482"/>
<polygon fill="#9a32cd" stroke="#9a32cd" points="100.196,-28.873 92.4887,-21.6035 93.9806,-32.0928 100.196,-28.873"/>
<text text-anchor="middle" x="138.263" y="-109.5" font-family="Helvetica,sans-Serif" font-size="10.00"> methods</text>
</g>
<!-- Node4 -->
<g id="node8" class="node"><title>Node4</title>
<polygon fill="white" stroke="#bfbfbf" points="215.263,-204.5 215.263,-225.5 256.263,-225.5 256.263,-204.5 215.263,-204.5"/>
<text text-anchor="middle" x="235.763" y="-212.5" font-family="Helvetica,sans-Serif" font-size="10.00">struct</text>
</g>
<!-- Node4&#45;&gt;Node1 -->
<g id="edge10" class="edge"><title>Node4&#45;&gt;Node1</title>
<path fill="none" stroke="#9a32cd" stroke-dasharray="5,2" d="M233.721,-194.172C229.503,-151.148 219.958,-53.7932 216.799,-21.575"/>
<polygon fill="#9a32cd" stroke="#9a32cd" points="230.256,-194.709 234.716,-204.319 237.223,-194.025 230.256,-194.709"/>
<text text-anchor="middle" x="249.263" y="-116" font-family="Helvetica,sans-Serif" font-size="10.00"> internal</text>
<text text-anchor="middle" x="249.263" y="-103" font-family="Helvetica,sans-Serif" font-size="10.00">buffer</text>
</g>
</g>
</svg>
