<?xml version="1.0" encoding="UTF-8" standalone="no"?>
<!DOCTYPE svg PUBLIC "-//W3C//DTD SVG 1.1//EN"
 "http://www.w3.org/Graphics/SVG/1.1/DTD/svg11.dtd">
<!-- Generated by graphviz version 2.26.3 (20100126.1600)
 -->
<!-- Title: G Pages: 1 -->
<svg width="472pt" height="70pt"
 viewBox="0.00 0.00 472.00 70.00" xmlns="http://www.w3.org/2000/svg" xmlns:xlink="http://www.w3.org/1999/xlink">
<g id="graph1" class="graph" transform="scale(1 1) rotate(0) translate(4 66)">
<title>G</title>
<polygon fill="white" stroke="white" points="-4,5 -4,-66 469,-66 469,5 -4,5"/>
<!-- Node1 -->
<g id="node1" class="node"><title>Node1</title>
<polygon fill="#bfbfbf" stroke="black" points="0.5,-20.5 0.5,-41.5 211.5,-41.5 211.5,-20.5 0.5,-20.5"/>
<text text-anchor="middle" x="106" y="-28.5" font-family="Helvetica,sans-Serif" font-size="10.00">soundtouch::FIFOSamplePipe::numSamples</text>
</g>
<!-- Node2 -->
<g id="node3" class="node"><title>Node2</title>
<a xlink:href="../../d0/d9b/classsoundtouch_1_1_f_i_f_o_sample_pipe.html#a081941881e2c75dc5cb8a6f214e7242e" target="_top" xlink:title="soundtouch::FIFOSamplePipe::moveSamples">
<polygon fill="white" stroke="black" points="248,-40.5 248,-61.5 464,-61.5 464,-40.5 248,-40.5"/>
<text text-anchor="middle" x="356" y="-48.5" font-family="Helvetica,sans-Serif" font-size="10.00">soundtouch::FIFOSamplePipe::moveSamples</text>
</a>
</g>
<!-- Node1&#45;&gt;Node2 -->
<g id="edge2" class="edge"><title>Node1&#45;&gt;Node2</title>
<path fill="none" stroke="midnightblue" d="M221.827,-40.2662C230.52,-40.9616 239.273,-41.6618 247.915,-42.3532"/>
<polygon fill="midnightblue" stroke="midnightblue" points="221.907,-36.7615 211.66,-39.4528 221.349,-43.7392 221.907,-36.7615"/>
</g>
<!-- Node3 -->
<g id="node5" class="node"><title>Node3</title>
<a xlink:href="../../dc/d67/classsoundtouch_1_1_f_i_f_o_processor.html#a254a8506a4a93083c0e914aff361c674" target="_top" xlink:title="Returns number of samples currently available.">
<polygon fill="white" stroke="black" points="254.5,-0.5 254.5,-21.5 457.5,-21.5 457.5,-0.5 254.5,-0.5"/>
<text text-anchor="middle" x="356" y="-8.5" font-family="Helvetica,sans-Serif" font-size="10.00">soundtouch::FIFOProcessor::numSamples</text>
</a>
</g>
<!-- Node1&#45;&gt;Node3 -->
<g id="edge4" class="edge"><title>Node1&#45;&gt;Node3</title>
<path fill="none" stroke="midnightblue" d="M221.638,-21.7489C232.543,-20.8765 243.544,-19.9965 254.306,-19.1356"/>
<polygon fill="midnightblue" stroke="midnightblue" points="221.349,-18.2608 211.66,-22.5472 221.907,-25.2385 221.349,-18.2608"/>
</g>
</g>
</svg>
