<?xml version="1.0" encoding="UTF-8" standalone="no"?>
<!DOCTYPE svg PUBLIC "-//W3C//DTD SVG 1.1//EN"
 "http://www.w3.org/Graphics/SVG/1.1/DTD/svg11.dtd">
<!-- Generated by graphviz version 2.26.3 (20100126.1600)
 -->
<!-- Title: G Pages: 1 -->
<!--zoomable 610 -->
<svg id="main" version="1.1" xmlns="http://www.w3.org/2000/svg" xmlns:xlink="http://www.w3.org/1999/xlink" xml:space="preserve" onload="init(evt)">
        <defs>
                <circle id="rim" cx="0" cy="0" r="7"/>
                <circle id="rim2" cx="0" cy="0" r="3.5"/>
                <g id="zoomPlus">
                        <use xlink:href="#rim" fill="#404040">
                                <set attributeName="fill" to="#808080" begin="zoomplus.mouseover" end="zoomplus.mouseout"/>
                        </use>
                        <path d="M-4,0h8M0,-4v8" fill="none" stroke="white" stroke-width="1.5" pointer-events="none"/>
                </g>
                <g id="zoomMin">
                        <use xlink:href="#rim" fill="#404040">
                                <set attributeName="fill" to="#808080" begin="zoomminus.mouseover" end="zoomminus.mouseout"/>
                        </use>
                        <path d="M-4,0h8" fill="none" stroke="white" stroke-width="1.5" pointer-events="none"/>
                </g>
                <g id="dirArrow">
                        <path fill="none" stroke="white" stroke-width="1.5" d="M0,-3.0v7 M-2.5,-0.5L0,-3.0L2.5,-0.5"/>
                </g>
               <g id="resetDef">
                       <use xlink:href="#rim2" fill="#404040">
                               <set attributeName="fill" to="#808080" begin="reset.mouseover" end="reset.mouseout"/>
                       </use>
               </g>
        </defs>

<script type="text/javascript">
var viewWidth = 1361;
var viewHeight = 610;
var sectionId = 'dynsection-0';
</script>
<script xlink:href="../../svgpan.js"/>
<svg id="graph" class="graph">
<g id="viewport">
<title>G</title>
<polygon fill="white" stroke="white" points="-4,5 -4,-606 1358,-606 1358,5 -4,5"/>
<!-- Node1 -->
<g id="node1" class="node"><title>Node1</title>
<polygon fill="#bfbfbf" stroke="black" points="0,-580.5 0,-601.5 416,-601.5 416,-580.5 0,-580.5"/>
<text text-anchor="middle" x="208" y="-588.5" font-family="Helvetica,sans-Serif" font-size="10.00">/home/aoi/Documents/FxOS/B2G/gaia/xulrunner&#45;sdk/include/nsISecurityConsoleMessage.h</text>
</g>
<!-- Node2 -->
<g id="node3" class="node"><title>Node2</title>
<a xlink:href="../../de/d5a/ns_i_supports_8h.html" target="_top" xlink:title="nsISupports.h">
<polygon fill="white" stroke="black" points="169.5,-522.5 169.5,-543.5 246.5,-543.5 246.5,-522.5 169.5,-522.5"/>
<text text-anchor="middle" x="208" y="-530.5" font-family="Helvetica,sans-Serif" font-size="10.00">nsISupports.h</text>
</a>
</g>
<!-- Node1&#45;&gt;Node2 -->
<g id="edge2" class="edge"><title>Node1&#45;&gt;Node2</title>
<path fill="none" stroke="midnightblue" d="M208,-580.362C208,-572.922 208,-562.743 208,-553.728"/>
<polygon fill="midnightblue" stroke="midnightblue" points="211.5,-553.571 208,-543.571 204.5,-553.571 211.5,-553.571"/>
</g>
<!-- Node3 -->
<g id="node5" class="node"><title>Node3</title>
<a xlink:href="../../d9/d92/nsrootidl_8h.html" target="_top" xlink:title="nsrootidl.h">
<polygon fill="white" stroke="black" points="118,-406.5 118,-427.5 180,-427.5 180,-406.5 118,-406.5"/>
<text text-anchor="middle" x="149" y="-414.5" font-family="Helvetica,sans-Serif" font-size="10.00">nsrootidl.h</text>
</a>
</g>
<!-- Node2&#45;&gt;Node3 -->
<g id="edge4" class="edge"><title>Node2&#45;&gt;Node3</title>
<path fill="none" stroke="midnightblue" d="M202.555,-522.295C192.676,-502.872 171.662,-461.556 159.094,-436.846"/>
<polygon fill="midnightblue" stroke="midnightblue" points="162.085,-435.006 154.432,-427.679 155.846,-438.179 162.085,-435.006"/>
</g>
<!-- Node19 -->
<g id="node41" class="node"><title>Node19</title>
<a xlink:href="../../de/d38/ns_i_supports_base_8h.html" target="_top" xlink:title="nsISupportsBase.h">
<polygon fill="white" stroke="black" points="259,-348.5 259,-369.5 359,-369.5 359,-348.5 259,-348.5"/>
<text text-anchor="middle" x="309" y="-356.5" font-family="Helvetica,sans-Serif" font-size="10.00">nsISupportsBase.h</text>
</a>
</g>
<!-- Node2&#45;&gt;Node19 -->
<g id="edge44" class="edge"><title>Node2&#45;&gt;Node19</title>
<path fill="none" stroke="midnightblue" d="M214.166,-522.377C230.679,-493.93 276.097,-415.684 297.525,-378.769"/>
<polygon fill="midnightblue" stroke="midnightblue" points="300.664,-380.333 302.657,-369.928 294.61,-376.819 300.664,-380.333"/>
</g>
<!-- Node21 -->
<g id="node48" class="node"><title>Node21</title>
<a xlink:href="../../d9/d4b/ns_i_supports_utils_8h.html" target="_top" xlink:title="nsISupportsUtils.h">
<polygon fill="white" stroke="black" points="338,-464.5 338,-485.5 436,-485.5 436,-464.5 338,-464.5"/>
<text text-anchor="middle" x="387" y="-472.5" font-family="Helvetica,sans-Serif" font-size="10.00">nsISupportsUtils.h</text>
</a>
</g>
<!-- Node2&#45;&gt;Node21 -->
<g id="edge54" class="edge"><title>Node2&#45;&gt;Node21</title>
<path fill="none" stroke="midnightblue" d="M240.416,-522.497C269.724,-513 313.048,-498.962 345.001,-488.609"/>
<polygon fill="midnightblue" stroke="midnightblue" points="346.089,-491.935 354.524,-485.523 343.932,-485.276 346.089,-491.935"/>
</g>
<!-- Node4 -->
<g id="node7" class="node"><title>Node4</title>
<a xlink:href="../../d3/dd8/nscore_8h.html" target="_top" xlink:title="nscore.h">
<polygon fill="white" stroke="black" points="295,-232.5 295,-253.5 349,-253.5 349,-232.5 295,-232.5"/>
<text text-anchor="middle" x="322" y="-240.5" font-family="Helvetica,sans-Serif" font-size="10.00">nscore.h</text>
</a>
</g>
<!-- Node3&#45;&gt;Node4 -->
<g id="edge6" class="edge"><title>Node3&#45;&gt;Node4</title>
<path fill="none" stroke="midnightblue" d="M152.084,-406.322C159.484,-382.432 180.402,-324.097 217,-290 236.135,-272.173 263.166,-260.286 285.01,-252.927"/>
<polygon fill="midnightblue" stroke="midnightblue" points="286.169,-256.231 294.634,-249.859 284.043,-249.561 286.169,-256.231"/>
</g>
<!-- Node5 -->
<g id="node9" class="node"><title>Node5</title>
<a xlink:href="../../d7/d2d/xpcom-config_8h.html" target="_top" xlink:title="xpcom&#45;config.h">
<polygon fill="white" stroke="black" points="62.5,-116.5 62.5,-137.5 145.5,-137.5 145.5,-116.5 62.5,-116.5"/>
<text text-anchor="middle" x="104" y="-124.5" font-family="Helvetica,sans-Serif" font-size="10.00">xpcom&#45;config.h</text>
</a>
</g>
<!-- Node4&#45;&gt;Node5 -->
<g id="edge8" class="edge"><title>Node4&#45;&gt;Node5</title>
<path fill="none" stroke="midnightblue" d="M294.726,-241.379C240.93,-237.551 124.247,-225.918 100,-196 89.1784,-182.647 91.7186,-162.636 96.0562,-147.597"/>
<polygon fill="midnightblue" stroke="midnightblue" points="99.5164,-148.286 99.3669,-137.692 92.8774,-146.067 99.5164,-148.286"/>
</g>
<!-- Node6 -->
<g id="node11" class="node"><title>Node6</title>
<a xlink:href="../../d1/d62/mozalloc_8h.html" target="_top" xlink:title="mozilla/mozalloc.h">
<polygon fill="white" stroke="black" points="109,-174.5 109,-195.5 207,-195.5 207,-174.5 109,-174.5"/>
<text text-anchor="middle" x="158" y="-182.5" font-family="Helvetica,sans-Serif" font-size="10.00">mozilla/mozalloc.h</text>
</a>
</g>
<!-- Node4&#45;&gt;Node6 -->
<g id="edge10" class="edge"><title>Node4&#45;&gt;Node6</title>
<path fill="none" stroke="midnightblue" d="M294.919,-233.422C268.436,-224.057 227.808,-209.688 197.681,-199.033"/>
<polygon fill="midnightblue" stroke="midnightblue" points="198.496,-195.609 187.901,-195.575 196.162,-202.209 198.496,-195.609"/>
</g>
<!-- Node11 -->
<g id="node22" class="node"><title>Node11</title>
<a xlink:href="../../d1/de4/mozalloc__macro__wrappers_8h.html" target="_top" xlink:title="mozilla/mozalloc_macro_wrappers.h">
<polygon fill="white" stroke="black" points="224.5,-174.5 224.5,-195.5 399.5,-195.5 399.5,-174.5 224.5,-174.5"/>
<text text-anchor="middle" x="312" y="-182.5" font-family="Helvetica,sans-Serif" font-size="10.00">mozilla/mozalloc_macro_wrappers.h</text>
</a>
</g>
<!-- Node4&#45;&gt;Node11 -->
<g id="edge22" class="edge"><title>Node4&#45;&gt;Node11</title>
<path fill="none" stroke="midnightblue" d="M320.166,-232.362C318.869,-224.84 317.089,-214.519 315.523,-205.431"/>
<polygon fill="midnightblue" stroke="midnightblue" points="318.971,-204.831 313.823,-195.571 312.073,-206.02 318.971,-204.831"/>
</g>
<!-- Node12 -->
<g id="node24" class="node"><title>Node12</title>
<polygon fill="white" stroke="#bfbfbf" points="723,-174.5 723,-195.5 775,-195.5 775,-174.5 723,-174.5"/>
<text text-anchor="middle" x="749" y="-182.5" font-family="Helvetica,sans-Serif" font-size="10.00">stddef.h</text>
</g>
<!-- Node4&#45;&gt;Node12 -->
<g id="edge24" class="edge"><title>Node4&#45;&gt;Node12</title>
<path fill="none" stroke="midnightblue" d="M349.376,-241.466C412.143,-237.581 571.281,-225.629 712.622,-195.983"/>
<polygon fill="midnightblue" stroke="midnightblue" points="713.717,-199.328 722.767,-193.818 712.256,-192.483 713.717,-199.328"/>
</g>
<!-- Node13 -->
<g id="node26" class="node"><title>Node13</title>
<polygon fill="white" stroke="#bfbfbf" points="682.5,-116.5 682.5,-137.5 731.5,-137.5 731.5,-116.5 682.5,-116.5"/>
<text text-anchor="middle" x="707" y="-124.5" font-family="Helvetica,sans-Serif" font-size="10.00">stdint.h</text>
</g>
<!-- Node4&#45;&gt;Node13 -->
<g id="edge26" class="edge"><title>Node4&#45;&gt;Node13</title>
<path fill="none" stroke="midnightblue" d="M349.176,-237.632C387.589,-229.801 459.797,-214.18 520,-196 574.282,-179.608 635.687,-155.932 672.858,-141.011"/>
<polygon fill="midnightblue" stroke="midnightblue" points="674.257,-144.221 682.22,-137.233 671.637,-137.73 674.257,-144.221"/>
</g>
<!-- Node14 -->
<g id="node28" class="node"><title>Node14</title>
<a xlink:href="../../df/dcf/_null_ptr_8h.html" target="_top" xlink:title="mozilla/NullPtr.h">
<polygon fill="white" stroke="black" points="462.5,-58.5 462.5,-79.5 551.5,-79.5 551.5,-58.5 462.5,-58.5"/>
<text text-anchor="middle" x="507" y="-66.5" font-family="Helvetica,sans-Serif" font-size="10.00">mozilla/NullPtr.h</text>
</a>
</g>
<!-- Node4&#45;&gt;Node14 -->
<g id="edge28" class="edge"><title>Node4&#45;&gt;Node14</title>
<path fill="none" stroke="midnightblue" d="M294.637,-240.257C240.474,-234.386 121.983,-219.222 89,-196 57.2667,-173.658 28.0121,-144.824 54,-116 80.2171,-86.922 337.036,-74.7046 451.93,-70.6641"/>
<polygon fill="midnightblue" stroke="midnightblue" points="452.39,-74.1504 462.264,-70.3093 452.15,-67.1546 452.39,-74.1504"/>
</g>
<!-- Node15 -->
<g id="node31" class="node"><title>Node15</title>
<a xlink:href="../../d8/dcf/ns_error_8h.html" target="_top" xlink:title="nsError.h">
<polygon fill="white" stroke="black" points="455,-174.5 455,-195.5 511,-195.5 511,-174.5 455,-174.5"/>
<text text-anchor="middle" x="483" y="-182.5" font-family="Helvetica,sans-Serif" font-size="10.00">nsError.h</text>
</a>
</g>
<!-- Node4&#45;&gt;Node15 -->
<g id="edge32" class="edge"><title>Node4&#45;&gt;Node15</title>
<path fill="none" stroke="midnightblue" d="M349.311,-233.161C375.669,-223.666 415.796,-209.21 445.212,-198.613"/>
<polygon fill="midnightblue" stroke="midnightblue" points="446.52,-201.862 454.741,-195.18 444.147,-195.277 446.52,-201.862"/>
</g>
<!-- Node6&#45;&gt;Node5 -->
<g id="edge16" class="edge"><title>Node6&#45;&gt;Node5</title>
<path fill="none" stroke="midnightblue" d="M148.096,-174.362C140.484,-166.186 129.792,-154.702 120.843,-145.091"/>
<polygon fill="midnightblue" stroke="midnightblue" points="123.217,-142.505 113.842,-137.571 118.094,-147.275 123.217,-142.505"/>
</g>
<!-- Node7 -->
<g id="node13" class="node"><title>Node7</title>
<polygon fill="white" stroke="#bfbfbf" points="387,-116.5 387,-137.5 435,-137.5 435,-116.5 387,-116.5"/>
<text text-anchor="middle" x="411" y="-124.5" font-family="Helvetica,sans-Serif" font-size="10.00">stdlib.h</text>
</g>
<!-- Node6&#45;&gt;Node7 -->
<g id="edge12" class="edge"><title>Node6&#45;&gt;Node7</title>
<path fill="none" stroke="midnightblue" d="M207.384,-175.117C257.944,-164.888 334.071,-149.159 377.23,-137.963"/>
<polygon fill="midnightblue" stroke="midnightblue" points="378.189,-141.329 386.944,-135.363 376.379,-134.567 378.189,-141.329"/>
</g>
<!-- Node8 -->
<g id="node15" class="node"><title>Node8</title>
<polygon fill="white" stroke="#bfbfbf" points="200.5,-116.5 200.5,-137.5 249.5,-137.5 249.5,-116.5 200.5,-116.5"/>
<text text-anchor="middle" x="225" y="-124.5" font-family="Helvetica,sans-Serif" font-size="10.00">string.h</text>
</g>
<!-- Node6&#45;&gt;Node8 -->
<g id="edge14" class="edge"><title>Node6&#45;&gt;Node8</title>
<path fill="none" stroke="midnightblue" d="M170.289,-174.362C180.017,-165.941 193.798,-154.011 205.095,-144.231"/>
<polygon fill="midnightblue" stroke="midnightblue" points="207.519,-146.762 212.789,-137.571 202.938,-141.469 207.519,-146.762"/>
</g>
<!-- Node9 -->
<g id="node18" class="node"><title>Node9</title>
<a xlink:href="../../d1/da8/_attributes_8h.html" target="_top" xlink:title="mozilla/Attributes.h">
<polygon fill="white" stroke="black" points="748.5,-58.5 748.5,-79.5 849.5,-79.5 849.5,-58.5 748.5,-58.5"/>
<text text-anchor="middle" x="799" y="-66.5" font-family="Helvetica,sans-Serif" font-size="10.00">mozilla/Attributes.h</text>
</a>
</g>
<!-- Node6&#45;&gt;Node9 -->
<g id="edge18" class="edge"><title>Node6&#45;&gt;Node9</title>
<path fill="none" stroke="midnightblue" d="M159.835,-174.452C163.18,-158.752 171.873,-129.626 192,-116 214.384,-100.846 588.673,-79.8954 738.101,-72.0917"/>
<polygon fill="midnightblue" stroke="midnightblue" points="738.659,-75.5675 748.463,-71.5528 738.295,-68.577 738.659,-75.5675"/>
</g>
<!-- Node10 -->
<g id="node20" class="node"><title>Node10</title>
<a xlink:href="../../da/da7/_compiler_8h.html" target="_top" xlink:title="mozilla/Compiler.h">
<polygon fill="white" stroke="black" points="750,-0.5 750,-21.5 848,-21.5 848,-0.5 750,-0.5"/>
<text text-anchor="middle" x="799" y="-8.5" font-family="Helvetica,sans-Serif" font-size="10.00">mozilla/Compiler.h</text>
</a>
</g>
<!-- Node9&#45;&gt;Node10 -->
<g id="edge20" class="edge"><title>Node9&#45;&gt;Node10</title>
<path fill="none" stroke="midnightblue" d="M799,-58.3619C799,-50.9219 799,-40.7427 799,-31.7276"/>
<polygon fill="midnightblue" stroke="midnightblue" points="802.5,-31.5706 799,-21.5707 795.5,-31.5707 802.5,-31.5706"/>
</g>
<!-- Node14&#45;&gt;Node10 -->
<g id="edge30" class="edge"><title>Node14&#45;&gt;Node10</title>
<path fill="none" stroke="midnightblue" d="M551.666,-60.1279C602.051,-50.1201 684.205,-33.8017 739.876,-22.7438"/>
<polygon fill="midnightblue" stroke="midnightblue" points="740.822,-26.1243 749.949,-20.743 739.459,-19.2584 740.822,-26.1243"/>
</g>
<!-- Node15&#45;&gt;Node13 -->
<g id="edge40" class="edge"><title>Node15&#45;&gt;Node13</title>
<path fill="none" stroke="midnightblue" d="M511.022,-178.848C546.591,-170.878 610.008,-156.134 672.576,-138.278"/>
<polygon fill="midnightblue" stroke="midnightblue" points="673.561,-141.637 682.201,-135.504 671.623,-134.91 673.561,-141.637"/>
</g>
<!-- Node16 -->
<g id="node33" class="node"><title>Node16</title>
<a xlink:href="../../d1/d8a/_likely_8h.html" target="_top" xlink:title="mozilla/Likely.h">
<polygon fill="white" stroke="black" points="581,-116.5 581,-137.5 665,-137.5 665,-116.5 581,-116.5"/>
<text text-anchor="middle" x="623" y="-124.5" font-family="Helvetica,sans-Serif" font-size="10.00">mozilla/Likely.h</text>
</a>
</g>
<!-- Node15&#45;&gt;Node16 -->
<g id="edge34" class="edge"><title>Node15&#45;&gt;Node16</title>
<path fill="none" stroke="midnightblue" d="M508.353,-174.497C530.613,-165.275 563.212,-151.769 587.963,-141.515"/>
<polygon fill="midnightblue" stroke="midnightblue" points="589.464,-144.682 597.363,-137.621 586.784,-138.215 589.464,-144.682"/>
</g>
<!-- Node17 -->
<g id="node35" class="node"><title>Node17</title>
<a xlink:href="../../d3/dff/_typed_enum_8h.html" target="_top" xlink:title="mozilla/TypedEnum.h">
<polygon fill="white" stroke="black" points="452.5,-116.5 452.5,-137.5 563.5,-137.5 563.5,-116.5 452.5,-116.5"/>
<text text-anchor="middle" x="508" y="-124.5" font-family="Helvetica,sans-Serif" font-size="10.00">mozilla/TypedEnum.h</text>
</a>
</g>
<!-- Node15&#45;&gt;Node17 -->
<g id="edge36" class="edge"><title>Node15&#45;&gt;Node17</title>
<path fill="none" stroke="midnightblue" d="M487.585,-174.362C490.898,-166.677 495.47,-156.069 499.448,-146.84"/>
<polygon fill="midnightblue" stroke="midnightblue" points="502.699,-148.139 503.444,-137.571 496.271,-145.368 502.699,-148.139"/>
</g>
<!-- Node18 -->
<g id="node39" class="node"><title>Node18</title>
<a xlink:href="../../d7/dda/_error_list_c_defines_8h.html" target="_top" xlink:title="ErrorListCDefines.h">
<polygon fill="white" stroke="black" points="266.5,-116.5 266.5,-137.5 369.5,-137.5 369.5,-116.5 266.5,-116.5"/>
<text text-anchor="middle" x="318" y="-124.5" font-family="Helvetica,sans-Serif" font-size="10.00">ErrorListCDefines.h</text>
</a>
</g>
<!-- Node15&#45;&gt;Node18 -->
<g id="edge42" class="edge"><title>Node15&#45;&gt;Node18</title>
<path fill="none" stroke="midnightblue" d="M454.635,-175.029C427.897,-165.63 387.574,-151.456 357.656,-140.94"/>
<polygon fill="midnightblue" stroke="midnightblue" points="358.539,-137.54 347.944,-137.526 356.217,-144.144 358.539,-137.54"/>
</g>
<!-- Node17&#45;&gt;Node9 -->
<g id="edge38" class="edge"><title>Node17&#45;&gt;Node9</title>
<path fill="none" stroke="midnightblue" d="M560.698,-116.497C610.705,-106.53 685.814,-91.5594 738.303,-81.0977"/>
<polygon fill="midnightblue" stroke="midnightblue" points="739.034,-84.5209 748.157,-79.1337 737.666,-77.6559 739.034,-84.5209"/>
</g>
<!-- Node19&#45;&gt;Node4 -->
<g id="edge46" class="edge"><title>Node19&#45;&gt;Node4</title>
<path fill="none" stroke="midnightblue" d="M306.525,-348.15C303.792,-334.479 300.243,-310.314 304,-290 305.717,-280.715 309.192,-270.894 312.634,-262.644"/>
<polygon fill="midnightblue" stroke="midnightblue" points="315.835,-264.062 316.697,-253.502 309.438,-261.219 315.835,-264.062"/>
</g>
<!-- Node20 -->
<g id="node44" class="node"><title>Node20</title>
<a xlink:href="../../d9/d0a/ns_i_d_8h.html" target="_top" xlink:title="nsID.h">
<polygon fill="white" stroke="black" points="313,-290.5 313,-311.5 359,-311.5 359,-290.5 313,-290.5"/>
<text text-anchor="middle" x="336" y="-298.5" font-family="Helvetica,sans-Serif" font-size="10.00">nsID.h</text>
</a>
</g>
<!-- Node19&#45;&gt;Node20 -->
<g id="edge48" class="edge"><title>Node19&#45;&gt;Node20</title>
<path fill="none" stroke="midnightblue" d="M313.952,-348.362C317.53,-340.677 322.468,-330.069 326.764,-320.84"/>
<polygon fill="midnightblue" stroke="midnightblue" points="330.032,-322.114 331.079,-311.571 323.686,-319.159 330.032,-322.114"/>
</g>
<!-- Node20&#45;&gt;Node4 -->
<g id="edge52" class="edge"><title>Node20&#45;&gt;Node4</title>
<path fill="none" stroke="midnightblue" d="M333.432,-290.362C331.617,-282.84 329.125,-272.519 326.932,-263.431"/>
<polygon fill="midnightblue" stroke="midnightblue" points="330.3,-262.47 324.552,-253.571 323.496,-264.113 330.3,-262.47"/>
</g>
<!-- Node20&#45;&gt;Node8 -->
<g id="edge50" class="edge"><title>Node20&#45;&gt;Node8</title>
<path fill="none" stroke="midnightblue" d="M350.197,-290.466C379.008,-267.829 439.07,-213.409 408,-174 367.46,-122.579 327.658,-153.743 259.59,-138.057"/>
<polygon fill="midnightblue" stroke="midnightblue" points="260.353,-134.64 249.795,-135.52 258.597,-141.416 260.353,-134.64"/>
</g>
<!-- Node21&#45;&gt;Node4 -->
<g id="edge56" class="edge"><title>Node21&#45;&gt;Node4</title>
<path fill="none" stroke="midnightblue" d="M361.784,-464.372C329.024,-449.008 273.274,-417.162 250,-370 230.093,-329.661 272.395,-284.214 300.217,-260.129"/>
<polygon fill="midnightblue" stroke="midnightblue" points="302.538,-262.75 307.959,-253.647 298.044,-257.383 302.538,-262.75"/>
</g>
<!-- Node21&#45;&gt;Node15 -->
<g id="edge60" class="edge"><title>Node21&#45;&gt;Node15</title>
<path fill="none" stroke="midnightblue" d="M390.531,-464.335C404.672,-421.615 457.369,-262.426 476.231,-205.447"/>
<polygon fill="midnightblue" stroke="midnightblue" points="479.617,-206.355 479.437,-195.762 472.972,-204.156 479.617,-206.355"/>
</g>
<!-- Node21&#45;&gt;Node19 -->
<g id="edge58" class="edge"><title>Node21&#45;&gt;Node19</title>
<path fill="none" stroke="midnightblue" d="M379.802,-464.295C366.626,-444.7 338.465,-402.82 321.904,-378.191"/>
<polygon fill="midnightblue" stroke="midnightblue" points="324.665,-376.025 316.181,-369.679 318.856,-379.931 324.665,-376.025"/>
</g>
<!-- Node22 -->
<g id="node53" class="node"><title>Node22</title>
<a xlink:href="../../dc/d6d/ns_debug_8h.html" target="_top" xlink:title="nsDebug.h">
<polygon fill="white" stroke="black" points="469,-348.5 469,-369.5 533,-369.5 533,-348.5 469,-348.5"/>
<text text-anchor="middle" x="501" y="-356.5" font-family="Helvetica,sans-Serif" font-size="10.00">nsDebug.h</text>
</a>
</g>
<!-- Node21&#45;&gt;Node22 -->
<g id="edge62" class="edge"><title>Node21&#45;&gt;Node22</title>
<path fill="none" stroke="midnightblue" d="M397.521,-464.295C417.117,-444.355 459.393,-401.337 483.403,-376.906"/>
<polygon fill="midnightblue" stroke="midnightblue" points="485.992,-379.265 490.505,-369.679 480.999,-374.358 485.992,-379.265"/>
</g>
<!-- Node28 -->
<g id="node74" class="node"><title>Node28</title>
<a xlink:href="../../d0/d5a/ns_i_supports_impl_8h.html" target="_top" xlink:title="nsISupportsImpl.h">
<polygon fill="white" stroke="black" points="547,-406.5 547,-427.5 643,-427.5 643,-406.5 547,-406.5"/>
<text text-anchor="middle" x="595" y="-414.5" font-family="Helvetica,sans-Serif" font-size="10.00">nsISupportsImpl.h</text>
</a>
</g>
<!-- Node21&#45;&gt;Node28 -->
<g id="edge92" class="edge"><title>Node21&#45;&gt;Node28</title>
<path fill="none" stroke="midnightblue" d="M419.327,-464.497C452.099,-454.877 503.165,-440.598 541.863,-430.209"/>
<polygon fill="midnightblue" stroke="midnightblue" points="543.16,-433.485 551.919,-427.523 541.354,-426.722 543.16,-433.485"/>
</g>
<!-- Node22&#45;&gt;Node4 -->
<g id="edge64" class="edge"><title>Node22&#45;&gt;Node4</title>
<path fill="none" stroke="midnightblue" d="M493.782,-348.263C483.289,-333.371 462.49,-306.431 439,-290 414.672,-272.983 383.283,-260.805 359.142,-253.115"/>
<polygon fill="midnightblue" stroke="midnightblue" points="359.868,-249.677 349.282,-250.093 357.817,-256.37 359.868,-249.677"/>
</g>
<!-- Node22&#45;&gt;Node15 -->
<g id="edge66" class="edge"><title>Node22&#45;&gt;Node15</title>
<path fill="none" stroke="midnightblue" d="M499.901,-348.377C496.996,-320.293 489.07,-243.673 485.193,-206.203"/>
<polygon fill="midnightblue" stroke="midnightblue" points="488.641,-205.514 484.13,-195.928 481.678,-206.235 488.641,-205.514"/>
</g>
<!-- Node22&#45;&gt;Node16 -->
<g id="edge90" class="edge"><title>Node22&#45;&gt;Node16</title>
<path fill="none" stroke="midnightblue" d="M533.032,-349.502C561.879,-340.224 601.081,-325.558 610,-312 629.54,-282.295 614.344,-267.289 610,-232 607.985,-215.631 603.015,-212.369 601,-196 599.805,-186.295 598.877,-183.544 601,-174 603.086,-164.622 607.252,-154.901 611.403,-146.75"/>
<polygon fill="midnightblue" stroke="midnightblue" points="614.613,-148.173 616.317,-137.716 608.464,-144.828 614.613,-148.173"/>
</g>
<!-- Node23 -->
<g id="node57" class="node"><title>Node23</title>
<a xlink:href="../../dd/d3a/ns_x_p_c_o_m_8h.html" target="_top" xlink:title="nsXPCOM.h">
<polygon fill="white" stroke="black" points="529,-290.5 529,-311.5 601,-311.5 601,-290.5 529,-290.5"/>
<text text-anchor="middle" x="565" y="-298.5" font-family="Helvetica,sans-Serif" font-size="10.00">nsXPCOM.h</text>
</a>
</g>
<!-- Node22&#45;&gt;Node23 -->
<g id="edge68" class="edge"><title>Node22&#45;&gt;Node23</title>
<path fill="none" stroke="midnightblue" d="M512.739,-348.362C521.941,-340.023 534.94,-328.242 545.672,-318.516"/>
<polygon fill="midnightblue" stroke="midnightblue" points="548.276,-320.879 553.336,-311.571 543.576,-315.692 548.276,-320.879"/>
</g>
<!-- Node25 -->
<g id="node62" class="node"><title>Node25</title>
<a xlink:href="../../d9/de9/_assertions_8h.html" target="_top" xlink:title="mozilla/Assertions.h">
<polygon fill="white" stroke="black" points="934.5,-232.5 934.5,-253.5 1039.5,-253.5 1039.5,-232.5 934.5,-232.5"/>
<text text-anchor="middle" x="987" y="-240.5" font-family="Helvetica,sans-Serif" font-size="10.00">mozilla/Assertions.h</text>
</a>
</g>
<!-- Node22&#45;&gt;Node25 -->
<g id="edge74" class="edge"><title>Node22&#45;&gt;Node25</title>
<path fill="none" stroke="midnightblue" d="M533.217,-350.307C536.185,-349.521 539.147,-348.742 542,-348 644.025,-321.451 669.381,-314.149 772,-290 823.992,-277.765 883.312,-264.877 926.454,-255.698"/>
<polygon fill="midnightblue" stroke="midnightblue" points="927.451,-259.065 936.506,-253.564 925.997,-252.217 927.451,-259.065"/>
</g>
<!-- Node23&#45;&gt;Node4 -->
<g id="edge70" class="edge"><title>Node23&#45;&gt;Node4</title>
<path fill="none" stroke="midnightblue" d="M528.883,-292.379C483.281,-281.495 405.232,-262.866 359.148,-251.867"/>
<polygon fill="midnightblue" stroke="midnightblue" points="359.808,-248.426 349.268,-249.508 358.182,-255.235 359.808,-248.426"/>
</g>
<!-- Node24 -->
<g id="node60" class="node"><title>Node24</title>
<a xlink:href="../../d1/d66/ns_x_p_c_o_m_c_i_d_8h.html" target="_top" xlink:title="nsXPCOMCID.h">
<polygon fill="white" stroke="black" points="511,-232.5 511,-253.5 601,-253.5 601,-232.5 511,-232.5"/>
<text text-anchor="middle" x="556" y="-240.5" font-family="Helvetica,sans-Serif" font-size="10.00">nsXPCOMCID.h</text>
</a>
</g>
<!-- Node23&#45;&gt;Node24 -->
<g id="edge72" class="edge"><title>Node23&#45;&gt;Node24</title>
<path fill="none" stroke="midnightblue" d="M563.349,-290.362C562.195,-282.922 560.615,-272.743 559.216,-263.728"/>
<polygon fill="midnightblue" stroke="midnightblue" points="562.632,-262.916 557.64,-253.571 555.715,-263.989 562.632,-262.916"/>
</g>
<!-- Node25&#45;&gt;Node7 -->
<g id="edge86" class="edge"><title>Node25&#45;&gt;Node7</title>
<path fill="none" stroke="midnightblue" d="M938.268,-232.478C904.831,-224.454 859.841,-212.05 822,-196 804.034,-188.38 802.554,-180.049 784,-174 642.632,-127.913 594.567,-168.395 445.323,-137.882"/>
<polygon fill="midnightblue" stroke="midnightblue" points="445.852,-134.417 435.344,-135.768 444.402,-141.265 445.852,-134.417"/>
</g>
<!-- Node25&#45;&gt;Node9 -->
<g id="edge76" class="edge"><title>Node25&#45;&gt;Node9</title>
<path fill="none" stroke="midnightblue" d="M1039.66,-234.01C1083.22,-224.147 1134.58,-205.392 1112,-174 1082.16,-132.516 942.034,-97.8802 859.735,-80.679"/>
<polygon fill="midnightblue" stroke="midnightblue" points="860.253,-77.2121 849.752,-78.6185 858.838,-84.0676 860.253,-77.2121"/>
</g>
<!-- Node25&#45;&gt;Node10 -->
<g id="edge78" class="edge"><title>Node25&#45;&gt;Node10</title>
<path fill="none" stroke="midnightblue" d="M1039.76,-237.504C1087.82,-229.978 1148.43,-212.676 1128,-174 1075.18,-74.0058 937.559,-34.3225 858.044,-19.3817"/>
<polygon fill="midnightblue" stroke="midnightblue" points="858.635,-15.9318 848.171,-17.5976 857.39,-22.8202 858.635,-15.9318"/>
</g>
<!-- Node25&#45;&gt;Node12 -->
<g id="edge82" class="edge"><title>Node25&#45;&gt;Node12</title>
<path fill="none" stroke="midnightblue" d="M940.479,-232.446C900.282,-223.209 840.681,-209.236 789,-196 787.744,-195.678 786.467,-195.348 785.178,-195.011"/>
<polygon fill="midnightblue" stroke="midnightblue" points="785.779,-191.548 775.215,-192.351 783.974,-198.312 785.779,-191.548"/>
</g>
<!-- Node25&#45;&gt;Node16 -->
<g id="edge80" class="edge"><title>Node25&#45;&gt;Node16</title>
<path fill="none" stroke="midnightblue" d="M983.312,-232.262C977.32,-216.591 963.888,-187.821 942,-174 843.061,-111.527 794.956,-156.188 675.145,-138.001"/>
<polygon fill="midnightblue" stroke="midnightblue" points="675.685,-134.543 665.25,-136.381 674.554,-141.451 675.685,-134.543"/>
</g>
<!-- Node26 -->
<g id="node68" class="node"><title>Node26</title>
<polygon fill="white" stroke="#bfbfbf" points="989,-174.5 989,-195.5 1035,-195.5 1035,-174.5 989,-174.5"/>
<text text-anchor="middle" x="1012" y="-182.5" font-family="Helvetica,sans-Serif" font-size="10.00">stdio.h</text>
</g>
<!-- Node25&#45;&gt;Node26 -->
<g id="edge84" class="edge"><title>Node25&#45;&gt;Node26</title>
<path fill="none" stroke="midnightblue" d="M991.585,-232.362C994.898,-224.677 999.47,-214.069 1003.45,-204.84"/>
<polygon fill="midnightblue" stroke="midnightblue" points="1006.7,-206.139 1007.44,-195.571 1000.27,-203.368 1006.7,-206.139"/>
</g>
<!-- Node27 -->
<g id="node71" class="node"><title>Node27</title>
<polygon fill="white" stroke="#bfbfbf" points="1053,-174.5 1053,-195.5 1103,-195.5 1103,-174.5 1053,-174.5"/>
<text text-anchor="middle" x="1078" y="-182.5" font-family="Helvetica,sans-Serif" font-size="10.00">signal.h</text>
</g>
<!-- Node25&#45;&gt;Node27 -->
<g id="edge88" class="edge"><title>Node25&#45;&gt;Node27</title>
<path fill="none" stroke="midnightblue" d="M1003.69,-232.362C1017.42,-223.614 1037.08,-211.079 1052.74,-201.101"/>
<polygon fill="midnightblue" stroke="midnightblue" points="1054.86,-203.897 1061.42,-195.571 1051.1,-197.994 1054.86,-203.897"/>
</g>
<!-- Node28&#45;&gt;Node4 -->
<g id="edge94" class="edge"><title>Node28&#45;&gt;Node4</title>
<path fill="none" stroke="midnightblue" d="M550.446,-406.445C523.12,-398.798 488.106,-386.828 460,-370 433.474,-354.119 370.362,-291.912 339.542,-260.849"/>
<polygon fill="midnightblue" stroke="midnightblue" points="341.963,-258.32 332.444,-253.67 336.986,-263.242 341.963,-258.32"/>
</g>
<!-- Node28&#45;&gt;Node9 -->
<g id="edge132" class="edge"><title>Node28&#45;&gt;Node9</title>
<path fill="none" stroke="midnightblue" d="M643.28,-414.728C810.242,-406.239 1353,-373.098 1353,-301 1353,-301 1353,-301 1353,-185 1353,-135.039 1003.38,-91.2509 859.62,-75.3578"/>
<polygon fill="midnightblue" stroke="midnightblue" points="859.955,-71.8737 849.632,-74.262 859.191,-78.8319 859.955,-71.8737"/>
</g>
<!-- Node28&#45;&gt;Node16 -->
<g id="edge136" class="edge"><title>Node28&#45;&gt;Node16</title>
<path fill="none" stroke="midnightblue" d="M613.434,-406.467C625.749,-398.287 640.938,-385.702 648,-370 657.033,-349.917 634.954,-202.478 626.3,-147.548"/>
<polygon fill="midnightblue" stroke="midnightblue" points="629.742,-146.911 624.717,-137.584 622.829,-148.01 629.742,-146.911"/>
</g>
<!-- Node28&#45;&gt;Node19 -->
<g id="edge96" class="edge"><title>Node28&#45;&gt;Node19</title>
<path fill="none" stroke="midnightblue" d="M546.807,-407.227C497.903,-397.309 422.072,-381.931 369.233,-371.215"/>
<polygon fill="midnightblue" stroke="midnightblue" points="369.813,-367.762 359.317,-369.204 368.422,-374.622 369.813,-367.762"/>
</g>
<!-- Node28&#45;&gt;Node21 -->
<g id="edge98" class="edge"><title>Node28&#45;&gt;Node21</title>
<path fill="none" stroke="midnightblue" d="M562.606,-427.523C529.809,-437.149 478.739,-451.428 440.058,-461.812"/>
<polygon fill="midnightblue" stroke="midnightblue" points="438.766,-458.535 430.007,-464.497 440.572,-465.298 438.766,-458.535"/>
</g>
<!-- Node28&#45;&gt;Node22 -->
<g id="edge116" class="edge"><title>Node28&#45;&gt;Node22</title>
<path fill="none" stroke="midnightblue" d="M577.759,-406.362C563.448,-397.532 542.885,-384.844 526.643,-374.822"/>
<polygon fill="midnightblue" stroke="midnightblue" points="528.48,-371.843 518.132,-369.571 524.804,-377.8 528.48,-371.843"/>
</g>
<!-- Node28&#45;&gt;Node25 -->
<g id="edge134" class="edge"><title>Node28&#45;&gt;Node25</title>
<path fill="none" stroke="midnightblue" d="M643.039,-406.973C677.451,-398.995 724.499,-386.444 764,-370 840.319,-338.229 923.154,-285.797 962.968,-259.343"/>
<polygon fill="midnightblue" stroke="midnightblue" points="965.101,-262.127 971.465,-253.657 961.208,-256.31 965.101,-262.127"/>
</g>
<!-- Node29 -->
<g id="node79" class="node"><title>Node29</title>
<a xlink:href="../../d2/df8/prthread_8h.html" target="_top" xlink:title="prthread.h">
<polygon fill="white" stroke="black" points="695,-348.5 695,-369.5 755,-369.5 755,-348.5 695,-348.5"/>
<text text-anchor="middle" x="725" y="-356.5" font-family="Helvetica,sans-Serif" font-size="10.00">prthread.h</text>
</a>
</g>
<!-- Node28&#45;&gt;Node29 -->
<g id="edge100" class="edge"><title>Node28&#45;&gt;Node29</title>
<path fill="none" stroke="midnightblue" d="M618.542,-406.497C639.029,-397.356 668.947,-384.008 691.854,-373.788"/>
<polygon fill="midnightblue" stroke="midnightblue" points="693.488,-376.892 701.194,-369.621 690.635,-370.499 693.488,-376.892"/>
</g>
<!-- Node35 -->
<g id="node94" class="node"><title>Node35</title>
<a xlink:href="../../dc/d1c/ns_trace_refcnt_8h.html" target="_top" xlink:title="nsTraceRefcnt.h">
<polygon fill="white" stroke="black" points="550.5,-348.5 550.5,-369.5 639.5,-369.5 639.5,-348.5 550.5,-348.5"/>
<text text-anchor="middle" x="595" y="-356.5" font-family="Helvetica,sans-Serif" font-size="10.00">nsTraceRefcnt.h</text>
</a>
</g>
<!-- Node28&#45;&gt;Node35 -->
<g id="edge118" class="edge"><title>Node28&#45;&gt;Node35</title>
<path fill="none" stroke="midnightblue" d="M595,-406.362C595,-398.922 595,-388.743 595,-379.728"/>
<polygon fill="midnightblue" stroke="midnightblue" points="598.5,-379.571 595,-369.571 591.5,-379.571 598.5,-379.571"/>
</g>
<!-- Node36 -->
<g id="node97" class="node"><title>Node36</title>
<a xlink:href="../../db/d18/_atomics_8h.html" target="_top" xlink:title="mozilla/Atomics.h">
<polygon fill="white" stroke="black" points="1058.5,-290.5 1058.5,-311.5 1153.5,-311.5 1153.5,-290.5 1058.5,-290.5"/>
<text text-anchor="middle" x="1106" y="-298.5" font-family="Helvetica,sans-Serif" font-size="10.00">mozilla/Atomics.h</text>
</a>
</g>
<!-- Node28&#45;&gt;Node36 -->
<g id="edge122" class="edge"><title>Node28&#45;&gt;Node36</title>
<path fill="none" stroke="midnightblue" d="M643.09,-414.67C711.323,-410.441 839.652,-399.064 945,-370 993.086,-356.734 1045.65,-332.14 1077.21,-316.181"/>
<polygon fill="midnightblue" stroke="midnightblue" points="1079,-319.199 1086.3,-311.528 1075.81,-312.968 1079,-319.199"/>
</g>
<!-- Node30 -->
<g id="node81" class="node"><title>Node30</title>
<a xlink:href="../../dc/d23/prtypes_8h.html" target="_top" xlink:title="prtypes.h">
<polygon fill="white" stroke="black" points="720.5,-232.5 720.5,-253.5 777.5,-253.5 777.5,-232.5 720.5,-232.5"/>
<text text-anchor="middle" x="749" y="-240.5" font-family="Helvetica,sans-Serif" font-size="10.00">prtypes.h</text>
</a>
</g>
<!-- Node29&#45;&gt;Node30 -->
<g id="edge102" class="edge"><title>Node29&#45;&gt;Node30</title>
<path fill="none" stroke="midnightblue" d="M727.215,-348.295C731.198,-329.045 739.63,-288.289 744.757,-263.509"/>
<polygon fill="midnightblue" stroke="midnightblue" points="748.192,-264.181 746.791,-253.679 741.337,-262.763 748.192,-264.181"/>
</g>
<!-- Node34 -->
<g id="node90" class="node"><title>Node34</title>
<a xlink:href="../../d7/dc8/prinrval_8h.html" target="_top" xlink:title="prinrval.h">
<polygon fill="white" stroke="black" points="781,-290.5 781,-311.5 837,-311.5 837,-290.5 781,-290.5"/>
<text text-anchor="middle" x="809" y="-298.5" font-family="Helvetica,sans-Serif" font-size="10.00">prinrval.h</text>
</a>
</g>
<!-- Node29&#45;&gt;Node34 -->
<g id="edge112" class="edge"><title>Node29&#45;&gt;Node34</title>
<path fill="none" stroke="midnightblue" d="M740.407,-348.362C752.958,-339.696 770.892,-327.313 785.275,-317.382"/>
<polygon fill="midnightblue" stroke="midnightblue" points="787.45,-320.133 793.691,-311.571 783.473,-314.372 787.45,-320.133"/>
</g>
<!-- Node30&#45;&gt;Node12 -->
<g id="edge106" class="edge"><title>Node30&#45;&gt;Node12</title>
<path fill="none" stroke="midnightblue" d="M749,-232.362C749,-224.922 749,-214.743 749,-205.728"/>
<polygon fill="midnightblue" stroke="midnightblue" points="752.5,-205.571 749,-195.571 745.5,-205.571 752.5,-205.571"/>
</g>
<!-- Node31 -->
<g id="node83" class="node"><title>Node31</title>
<a xlink:href="../../d7/d7e/prcpucfg_8h.html" target="_top" xlink:title="prcpucfg.h">
<polygon fill="white" stroke="black" points="643,-174.5 643,-195.5 705,-195.5 705,-174.5 643,-174.5"/>
<text text-anchor="middle" x="674" y="-182.5" font-family="Helvetica,sans-Serif" font-size="10.00">prcpucfg.h</text>
</a>
</g>
<!-- Node30&#45;&gt;Node31 -->
<g id="edge104" class="edge"><title>Node30&#45;&gt;Node31</title>
<path fill="none" stroke="midnightblue" d="M735.244,-232.362C724.249,-223.859 708.627,-211.779 695.914,-201.947"/>
<polygon fill="midnightblue" stroke="midnightblue" points="697.721,-198.919 687.669,-195.571 693.438,-204.457 697.721,-198.919"/>
</g>
<!-- Node32 -->
<g id="node86" class="node"><title>Node32</title>
<a xlink:href="../../d2/de8/protypes_8h.html" target="_top" xlink:title="obsolete/protypes.h">
<polygon fill="white" stroke="black" points="831,-174.5 831,-195.5 933,-195.5 933,-174.5 831,-174.5"/>
<text text-anchor="middle" x="882" y="-182.5" font-family="Helvetica,sans-Serif" font-size="10.00">obsolete/protypes.h</text>
</a>
</g>
<!-- Node30&#45;&gt;Node32 -->
<g id="edge108" class="edge"><title>Node30&#45;&gt;Node32</title>
<path fill="none" stroke="midnightblue" d="M773.085,-232.497C794.139,-223.315 824.927,-209.889 848.402,-199.652"/>
<polygon fill="midnightblue" stroke="midnightblue" points="849.877,-202.827 857.644,-195.621 847.079,-196.41 849.877,-202.827"/>
</g>
<!-- Node33 -->
<g id="node88" class="node"><title>Node33</title>
<polygon fill="white" stroke="#bfbfbf" points="848,-116.5 848,-137.5 916,-137.5 916,-116.5 848,-116.5"/>
<text text-anchor="middle" x="882" y="-124.5" font-family="Helvetica,sans-Serif" font-size="10.00">sys/types.h</text>
</g>
<!-- Node32&#45;&gt;Node33 -->
<g id="edge110" class="edge"><title>Node32&#45;&gt;Node33</title>
<path fill="none" stroke="midnightblue" d="M882,-174.362C882,-166.922 882,-156.743 882,-147.728"/>
<polygon fill="midnightblue" stroke="midnightblue" points="885.5,-147.571 882,-137.571 878.5,-147.571 885.5,-147.571"/>
</g>
<!-- Node34&#45;&gt;Node30 -->
<g id="edge114" class="edge"><title>Node34&#45;&gt;Node30</title>
<path fill="none" stroke="midnightblue" d="M797.995,-290.362C789.453,-282.104 777.42,-270.472 767.417,-260.803"/>
<polygon fill="midnightblue" stroke="midnightblue" points="769.558,-258.004 759.935,-253.571 764.692,-263.037 769.558,-258.004"/>
</g>
<!-- Node35&#45;&gt;Node23 -->
<g id="edge120" class="edge"><title>Node35&#45;&gt;Node23</title>
<path fill="none" stroke="midnightblue" d="M589.498,-348.362C585.48,-340.595 579.919,-329.843 575.11,-320.546"/>
<polygon fill="midnightblue" stroke="midnightblue" points="578.171,-318.845 570.468,-311.571 571.953,-322.061 578.171,-318.845"/>
</g>
<!-- Node36&#45;&gt;Node13 -->
<g id="edge130" class="edge"><title>Node36&#45;&gt;Node13</title>
<path fill="none" stroke="midnightblue" d="M1110.95,-290.16C1121.18,-265.937 1141.36,-206.966 1112,-174 1099.71,-160.196 837.749,-137.621 741.81,-129.784"/>
<polygon fill="midnightblue" stroke="midnightblue" points="741.993,-126.287 731.742,-128.966 741.426,-133.264 741.993,-126.287"/>
</g>
<!-- Node36&#45;&gt;Node25 -->
<g id="edge124" class="edge"><title>Node36&#45;&gt;Node25</title>
<path fill="none" stroke="midnightblue" d="M1084.45,-290.497C1065.86,-281.438 1038.8,-268.246 1017.9,-258.063"/>
<polygon fill="midnightblue" stroke="midnightblue" points="1019.31,-254.856 1008.79,-253.621 1016.25,-261.149 1019.31,-254.856"/>
</g>
<!-- Node37 -->
<g id="node100" class="node"><title>Node37</title>
<a xlink:href="../../d4/dd5/_type_traits_8h.html" target="_top" xlink:title="mozilla/TypeTraits.h">
<polygon fill="white" stroke="black" points="1220.5,-232.5 1220.5,-253.5 1325.5,-253.5 1325.5,-232.5 1220.5,-232.5"/>
<text text-anchor="middle" x="1273" y="-240.5" font-family="Helvetica,sans-Serif" font-size="10.00">mozilla/TypeTraits.h</text>
</a>
</g>
<!-- Node36&#45;&gt;Node37 -->
<g id="edge126" class="edge"><title>Node36&#45;&gt;Node37</title>
<path fill="none" stroke="midnightblue" d="M1136.24,-290.497C1163.35,-281.082 1203.31,-267.204 1233.04,-256.877"/>
<polygon fill="midnightblue" stroke="midnightblue" points="1234.4,-260.11 1242.7,-253.523 1232.11,-253.498 1234.4,-260.11"/>
</g>
<!-- Node38 -->
<g id="node102" class="node"><title>Node38</title>
<polygon fill="white" stroke="#bfbfbf" points="1247.5,-174.5 1247.5,-195.5 1298.5,-195.5 1298.5,-174.5 1247.5,-174.5"/>
<text text-anchor="middle" x="1273" y="-182.5" font-family="Helvetica,sans-Serif" font-size="10.00">wchar.h</text>
</g>
<!-- Node37&#45;&gt;Node38 -->
<g id="edge128" class="edge"><title>Node37&#45;&gt;Node38</title>
<path fill="none" stroke="midnightblue" d="M1273,-232.362C1273,-224.922 1273,-214.743 1273,-205.728"/>
<polygon fill="midnightblue" stroke="midnightblue" points="1276.5,-205.571 1273,-195.571 1269.5,-205.571 1276.5,-205.571"/>
</g>
</g>
</svg>
        <g id="navigator" transform="translate(0 0)" fill="#404254">
                <rect fill="#f2f5e9" fill-opacity="0.5" stroke="#606060" stroke-width=".5" x="0" y="0" width="60" height="60"/>
                <use id="zoomplus" xlink:href="#zoomPlus" x="17" y="9" onmousedown="handleZoom(evt,'in')"/>
                <use id="zoomminus" xlink:href="#zoomMin" x="42" y="9" onmousedown="handleZoom(evt,'out')"/>
                <use id="reset" xlink:href="#resetDef" x="30" y="36" onmousedown="handleReset()"/>
                <g id="arrowUp" xlink:href="#dirArrow" transform="translate(30 24)" onmousedown="handlePan(0,-1)">
                  <use xlink:href="#rim" fill="#404040">
                        <set attributeName="fill" to="#808080" begin="arrowUp.mouseover" end="arrowUp.mouseout"/>
                  </use>
                  <path fill="none" stroke="white" stroke-width="1.5" d="M0,-3.0v7 M-2.5,-0.5L0,-3.0L2.5,-0.5"/>
                </g>
                <g id="arrowRight" xlink:href="#dirArrow" transform="rotate(90) translate(36 -43)" onmousedown="handlePan(1,0)">
                  <use xlink:href="#rim" fill="#404040">
                        <set attributeName="fill" to="#808080" begin="arrowRight.mouseover" end="arrowRight.mouseout"/>
                  </use>
                  <path fill="none" stroke="white" stroke-width="1.5" d="M0,-3.0v7 M-2.5,-0.5L0,-3.0L2.5,-0.5"/>
                </g>
                <g id="arrowDown" xlink:href="#dirArrow" transform="rotate(180) translate(-30 -48)" onmousedown="handlePan(0,1)">
                  <use xlink:href="#rim" fill="#404040">
                        <set attributeName="fill" to="#808080" begin="arrowDown.mouseover" end="arrowDown.mouseout"/>
                  </use>
                  <path fill="none" stroke="white" stroke-width="1.5" d="M0,-3.0v7 M-2.5,-0.5L0,-3.0L2.5,-0.5"/>
                </g>
                <g id="arrowLeft" xlink:href="#dirArrow" transform="rotate(270) translate(-36 17)" onmousedown="handlePan(-1,0)">
                  <use xlink:href="#rim" fill="#404040">
                        <set attributeName="fill" to="#808080" begin="arrowLeft.mouseover" end="arrowLeft.mouseout"/>
                  </use>
                  <path fill="none" stroke="white" stroke-width="1.5" d="M0,-3.0v7 M-2.5,-0.5L0,-3.0L2.5,-0.5"/>
                </g>
        </g>
</svg>
