<?xml version="1.0" encoding="UTF-8" standalone="no"?>
<!DOCTYPE svg PUBLIC "-//W3C//DTD SVG 1.1//EN"
 "http://www.w3.org/Graphics/SVG/1.1/DTD/svg11.dtd">
<!-- Generated by graphviz version 2.26.3 (20100126.1600)
 -->
<!-- Title: G Pages: 1 -->
<!--zoomable 150 -->
<svg id="main" version="1.1" xmlns="http://www.w3.org/2000/svg" xmlns:xlink="http://www.w3.org/1999/xlink" xml:space="preserve" onload="init(evt)">
        <defs>
                <circle id="rim" cx="0" cy="0" r="7"/>
                <circle id="rim2" cx="0" cy="0" r="3.5"/>
                <g id="zoomPlus">
                        <use xlink:href="#rim" fill="#404040">
                                <set attributeName="fill" to="#808080" begin="zoomplus.mouseover" end="zoomplus.mouseout"/>
                        </use>
                        <path d="M-4,0h8M0,-4v8" fill="none" stroke="white" stroke-width="1.5" pointer-events="none"/>
                </g>
                <g id="zoomMin">
                        <use xlink:href="#rim" fill="#404040">
                                <set attributeName="fill" to="#808080" begin="zoomminus.mouseover" end="zoomminus.mouseout"/>
                        </use>
                        <path d="M-4,0h8" fill="none" stroke="white" stroke-width="1.5" pointer-events="none"/>
                </g>
                <g id="dirArrow">
                        <path fill="none" stroke="white" stroke-width="1.5" d="M0,-3.0v7 M-2.5,-0.5L0,-3.0L2.5,-0.5"/>
                </g>
               <g id="resetDef">
                       <use xlink:href="#rim2" fill="#404040">
                               <set attributeName="fill" to="#808080" begin="reset.mouseover" end="reset.mouseout"/>
                       </use>
               </g>
        </defs>

<script type="text/javascript">
var viewWidth = 780;
var viewHeight = 150;
var sectionId = 'dynsection-3';
</script>
<script xlink:href="../../svgpan.js"/>
<svg id="graph" class="graph">
<g id="viewport">
<title>G</title>
<polygon fill="white" stroke="white" points="-4,5 -4,-146 777,-146 777,5 -4,5"/>
<!-- Node1 -->
<g id="node1" class="node"><title>Node1</title>
<polygon fill="#bfbfbf" stroke="black" points="0.5,-60.5 0.5,-81.5 451.5,-81.5 451.5,-60.5 0.5,-60.5"/>
<text text-anchor="middle" x="226" y="-68.5" font-family="Helvetica,sans-Serif" font-size="10.00">gaiatest.apps.cost_control.regions.ftu_step3.FTUStep3.select_when_use_is_above_unit_and_value</text>
</g>
<!-- Node2 -->
<g id="node3" class="node"><title>Node2</title>
<a xlink:href="../../d9/deb/classgaiatest_1_1apps_1_1base_1_1_base.html#acd0689f975942b2bad45ef1bf321e0c5" target="_top" xlink:title="gaiatest.apps.base.Base.wait_for_condition">
<polygon fill="white" stroke="black" points="527,-120.5 527,-141.5 733,-141.5 733,-120.5 527,-120.5"/>
<text text-anchor="middle" x="630" y="-128.5" font-family="Helvetica,sans-Serif" font-size="10.00">gaiatest.apps.base.Base.wait_for_condition</text>
</a>
</g>
<!-- Node1&#45;&gt;Node2 -->
<g id="edge2" class="edge"><title>Node1&#45;&gt;Node2</title>
<path fill="none" stroke="midnightblue" d="M293.551,-81.5329C346.442,-89.7267 421.874,-101.296 488,-111 506.082,-113.654 525.469,-116.43 543.927,-119.04"/>
<polygon fill="midnightblue" stroke="midnightblue" points="543.681,-122.54 554.071,-120.471 544.659,-115.609 543.681,-122.54"/>
</g>
<!-- Node3 -->
<g id="node5" class="node"><title>Node3</title>
<a xlink:href="../../d6/de4/classgaiatest_1_1gaia__test_1_1_gaia_test_case.html#a665ed7dc4e1131529b18157f28a01f8a" target="_top" xlink:title="gaiatest.gaia_test.GaiaTestCase.wait_for_condition">
<polygon fill="white" stroke="black" points="509,-80.5 509,-101.5 751,-101.5 751,-80.5 509,-80.5"/>
<text text-anchor="middle" x="630" y="-88.5" font-family="Helvetica,sans-Serif" font-size="10.00">gaiatest.gaia_test.GaiaTestCase.wait_for_condition</text>
</a>
</g>
<!-- Node1&#45;&gt;Node3 -->
<g id="edge4" class="edge"><title>Node1&#45;&gt;Node3</title>
<path fill="none" stroke="midnightblue" d="M438.352,-81.5125C458.933,-82.5313 479.37,-83.5431 498.806,-84.5052"/>
<polygon fill="midnightblue" stroke="midnightblue" points="498.713,-88.0048 508.874,-85.0037 499.059,-81.0134 498.713,-88.0048"/>
</g>
<!-- Node4 -->
<g id="node7" class="node"><title>Node4</title>
<a xlink:href="../../d9/deb/classgaiatest_1_1apps_1_1base_1_1_base.html#a9abcc24aee943e40fb976f06825085b0" target="_top" xlink:title="gaiatest.apps.base.Base.wait_for_element_displayed">
<polygon fill="white" stroke="black" points="506,-40.5 506,-61.5 754,-61.5 754,-40.5 506,-40.5"/>
<text text-anchor="middle" x="630" y="-48.5" font-family="Helvetica,sans-Serif" font-size="10.00">gaiatest.apps.base.Base.wait_for_element_displayed</text>
</a>
</g>
<!-- Node1&#45;&gt;Node4 -->
<g id="edge6" class="edge"><title>Node1&#45;&gt;Node4</title>
<path fill="none" stroke="midnightblue" d="M438.352,-60.4875C457.861,-59.5217 477.241,-58.5623 495.761,-57.6455"/>
<polygon fill="midnightblue" stroke="midnightblue" points="496.142,-61.131 505.957,-57.1407 495.796,-54.1396 496.142,-61.131"/>
</g>
<!-- Node5 -->
<g id="node9" class="node"><title>Node5</title>
<a xlink:href="../../d6/de4/classgaiatest_1_1gaia__test_1_1_gaia_test_case.html#ae87c78f7a1e6470c436b8b0553e87bd3" target="_top" xlink:title="gaiatest.gaia_test.GaiaTestCase.wait_for_element_displayed">
<polygon fill="white" stroke="black" points="488,-0.5 488,-21.5 772,-21.5 772,-0.5 488,-0.5"/>
<text text-anchor="middle" x="630" y="-8.5" font-family="Helvetica,sans-Serif" font-size="10.00">gaiatest.gaia_test.GaiaTestCase.wait_for_element_displayed</text>
</a>
</g>
<!-- Node1&#45;&gt;Node5 -->
<g id="edge8" class="edge"><title>Node1&#45;&gt;Node5</title>
<path fill="none" stroke="midnightblue" d="M293.551,-60.4671C346.442,-52.2733 421.874,-40.7042 488,-31 506.082,-28.3465 525.469,-25.5703 543.927,-22.9599"/>
<polygon fill="midnightblue" stroke="midnightblue" points="544.659,-26.3914 554.071,-21.5286 543.681,-19.4601 544.659,-26.3914"/>
</g>
</g>
</svg>
        <g id="navigator" transform="translate(0 0)" fill="#404254">
                <rect fill="#f2f5e9" fill-opacity="0.5" stroke="#606060" stroke-width=".5" x="0" y="0" width="60" height="60"/>
                <use id="zoomplus" xlink:href="#zoomPlus" x="17" y="9" onmousedown="handleZoom(evt,'in')"/>
                <use id="zoomminus" xlink:href="#zoomMin" x="42" y="9" onmousedown="handleZoom(evt,'out')"/>
                <use id="reset" xlink:href="#resetDef" x="30" y="36" onmousedown="handleReset()"/>
                <g id="arrowUp" xlink:href="#dirArrow" transform="translate(30 24)" onmousedown="handlePan(0,-1)">
                  <use xlink:href="#rim" fill="#404040">
                        <set attributeName="fill" to="#808080" begin="arrowUp.mouseover" end="arrowUp.mouseout"/>
                  </use>
                  <path fill="none" stroke="white" stroke-width="1.5" d="M0,-3.0v7 M-2.5,-0.5L0,-3.0L2.5,-0.5"/>
                </g>
                <g id="arrowRight" xlink:href="#dirArrow" transform="rotate(90) translate(36 -43)" onmousedown="handlePan(1,0)">
                  <use xlink:href="#rim" fill="#404040">
                        <set attributeName="fill" to="#808080" begin="arrowRight.mouseover" end="arrowRight.mouseout"/>
                  </use>
                  <path fill="none" stroke="white" stroke-width="1.5" d="M0,-3.0v7 M-2.5,-0.5L0,-3.0L2.5,-0.5"/>
                </g>
                <g id="arrowDown" xlink:href="#dirArrow" transform="rotate(180) translate(-30 -48)" onmousedown="handlePan(0,1)">
                  <use xlink:href="#rim" fill="#404040">
                        <set attributeName="fill" to="#808080" begin="arrowDown.mouseover" end="arrowDown.mouseout"/>
                  </use>
                  <path fill="none" stroke="white" stroke-width="1.5" d="M0,-3.0v7 M-2.5,-0.5L0,-3.0L2.5,-0.5"/>
                </g>
                <g id="arrowLeft" xlink:href="#dirArrow" transform="rotate(270) translate(-36 17)" onmousedown="handlePan(-1,0)">
                  <use xlink:href="#rim" fill="#404040">
                        <set attributeName="fill" to="#808080" begin="arrowLeft.mouseover" end="arrowLeft.mouseout"/>
                  </use>
                  <path fill="none" stroke="white" stroke-width="1.5" d="M0,-3.0v7 M-2.5,-0.5L0,-3.0L2.5,-0.5"/>
                </g>
        </g>
</svg>
