<?xml version="1.0" encoding="UTF-8" standalone="no"?>
<!DOCTYPE svg PUBLIC "-//W3C//DTD SVG 1.1//EN"
 "http://www.w3.org/Graphics/SVG/1.1/DTD/svg11.dtd">
<!-- Generated by graphviz version 2.26.3 (20100126.1600)
 -->
<!-- Title: G Pages: 1 -->
<svg width="203pt" height="246pt"
 viewBox="0.00 0.00 203.00 246.00" xmlns="http://www.w3.org/2000/svg" xmlns:xlink="http://www.w3.org/1999/xlink">
<g id="graph1" class="graph" transform="scale(1 1) rotate(0) translate(4 242)">
<title>G</title>
<polygon fill="white" stroke="white" points="-4,5 -4,-242 200,-242 200,5 -4,5"/>
<!-- Node1 -->
<g id="node1" class="node"><title>Node1</title>
<polygon fill="#bfbfbf" stroke="black" points="-0.5,-0.5 -0.5,-21.5 84.5,-21.5 84.5,-0.5 -0.5,-0.5"/>
<text text-anchor="middle" x="42" y="-8.5" font-family="Helvetica,sans-Serif" font-size="10.00">nsIInterfaceInfo</text>
</g>
<!-- Node1&#45;&gt;Node1 -->
<g id="edge6" class="edge"><title>Node1&#45;&gt;Node1</title>
<path fill="none" stroke="#9a32cd" stroke-dasharray="5,2" d="M94.5075,-17.1876C99.1151,-15.8824 102,-13.8198 102,-11 102,-6.48828 94.6147,-3.91519 84.6043,-3.28073"/>
<polygon fill="#9a32cd" stroke="#9a32cd" points="93.9518,-13.7319 84.6043,-18.7193 95.0217,-20.6496 93.9518,-13.7319"/>
<text text-anchor="middle" x="117.5" y="-8.5" font-family="Helvetica,sans-Serif" font-size="10.00"> parent</text>
</g>
<!-- Node2 -->
<g id="node2" class="node"><title>Node2</title>
<a xlink:href="../../d4/d6a/classns_i_supports.html" target="_top" xlink:title="nsISupports">
<polygon fill="white" stroke="black" points="7.5,-84.5 7.5,-105.5 76.5,-105.5 76.5,-84.5 7.5,-84.5"/>
<text text-anchor="middle" x="42" y="-92.5" font-family="Helvetica,sans-Serif" font-size="10.00">nsISupports</text>
</a>
</g>
<!-- Node2&#45;&gt;Node1 -->
<g id="edge2" class="edge"><title>Node2&#45;&gt;Node1</title>
<path fill="none" stroke="midnightblue" d="M36.1006,-74.4249C34.6443,-57.6927 35.058,-34.7645 37.3417,-21.5523"/>
<polygon fill="midnightblue" stroke="midnightblue" points="32.6283,-74.8653 37.3268,-84.3613 39.5756,-74.0079 32.6283,-74.8653"/>
</g>
<!-- Node2&#45;&gt;Node1 -->
<g id="edge4" class="edge"><title>Node2&#45;&gt;Node1</title>
<path fill="none" stroke="midnightblue" d="M47.8994,-74.4249C49.3557,-57.6927 48.942,-34.7645 46.6583,-21.5523"/>
<polygon fill="midnightblue" stroke="midnightblue" points="44.4244,-74.0079 46.6732,-84.3613 51.3717,-74.8653 44.4244,-74.0079"/>
</g>
<!-- Node3 -->
<g id="node6" class="node"><title>Node3</title>
<a xlink:href="../../d6/db3/classns_x_p_t_param_info.html" target="_top" xlink:title="nsXPTParamInfo">
<polygon fill="white" stroke="black" points="94,-84.5 94,-105.5 186,-105.5 186,-84.5 94,-84.5"/>
<text text-anchor="middle" x="140" y="-92.5" font-family="Helvetica,sans-Serif" font-size="10.00">nsXPTParamInfo</text>
</a>
</g>
<!-- Node3&#45;&gt;Node1 -->
<g id="edge8" class="edge"><title>Node3&#45;&gt;Node1</title>
<path fill="none" stroke="#9a32cd" stroke-dasharray="5,2" d="M119.798,-77.6841C100.092,-60.7929 70.7529,-35.6453 54.311,-21.5523"/>
<polygon fill="#9a32cd" stroke="#9a32cd" points="117.718,-80.5108 127.588,-84.3613 122.273,-75.196 117.718,-80.5108"/>
<text text-anchor="middle" x="120.5" y="-57" font-family="Helvetica,sans-Serif" font-size="10.00"> param</text>
<text text-anchor="middle" x="120.5" y="-44" font-family="Helvetica,sans-Serif" font-size="10.00">iid</text>
</g>
<!-- Node4 -->
<g id="node8" class="node"><title>Node4</title>
<a xlink:href="../../de/dd2/struct_x_p_t_param_descriptor.html" target="_top" xlink:title="XPTParamDescriptor">
<polygon fill="white" stroke="black" points="85,-144.5 85,-165.5 195,-165.5 195,-144.5 85,-144.5"/>
<text text-anchor="middle" x="140" y="-152.5" font-family="Helvetica,sans-Serif" font-size="10.00">XPTParamDescriptor</text>
</a>
</g>
<!-- Node4&#45;&gt;Node3 -->
<g id="edge10" class="edge"><title>Node4&#45;&gt;Node3</title>
<path fill="none" stroke="midnightblue" d="M140,-134.231C140,-124.592 140,-113.544 140,-105.634"/>
<polygon fill="midnightblue" stroke="midnightblue" points="136.5,-134.273 140,-144.273 143.5,-134.273 136.5,-134.273"/>
</g>
<!-- Node5 -->
<g id="node10" class="node"><title>Node5</title>
<polygon fill="white" stroke="#bfbfbf" points="119.5,-216.5 119.5,-237.5 160.5,-237.5 160.5,-216.5 119.5,-216.5"/>
<text text-anchor="middle" x="140" y="-224.5" font-family="Helvetica,sans-Serif" font-size="10.00">struct</text>
</g>
<!-- Node5&#45;&gt;Node4 -->
<g id="edge12" class="edge"><title>Node5&#45;&gt;Node4</title>
<path fill="none" stroke="#9a32cd" stroke-dasharray="5,2" d="M140,-206.235C140,-192.969 140,-176.319 140,-165.667"/>
<polygon fill="#9a32cd" stroke="#9a32cd" points="136.5,-206.376 140,-216.376 143.5,-206.376 136.5,-206.376"/>
<text text-anchor="middle" x="151" y="-188.5" font-family="Helvetica,sans-Serif" font-size="10.00"> type</text>
</g>
</g>
</svg>
