<?xml version="1.0" encoding="UTF-8" standalone="no"?>
<!DOCTYPE svg PUBLIC "-//W3C//DTD SVG 1.1//EN"
 "http://www.w3.org/Graphics/SVG/1.1/DTD/svg11.dtd">
<!-- Generated by graphviz version 2.26.3 (20100126.1600)
 -->
<!-- Title: G Pages: 1 -->
<svg width="370pt" height="378pt"
 viewBox="0.00 0.00 370.00 378.00" xmlns="http://www.w3.org/2000/svg" xmlns:xlink="http://www.w3.org/1999/xlink">
<g id="graph1" class="graph" transform="scale(1 1) rotate(0) translate(4 374)">
<title>G</title>
<polygon fill="white" stroke="white" points="-4,5 -4,-374 367,-374 367,5 -4,5"/>
<!-- Node1 -->
<g id="node1" class="node"><title>Node1</title>
<polygon fill="#bfbfbf" stroke="black" points="90,-116.5 90,-137.5 228,-137.5 228,-116.5 90,-116.5"/>
<text text-anchor="middle" x="159" y="-124.5" font-family="Helvetica,sans-Serif" font-size="10.00">mozilla::dom::DOMRequest</text>
</g>
<!-- Node8 -->
<g id="node18" class="node"><title>Node8</title>
<a xlink:href="../../d7/d41/class_archive_request.html" target="_top" xlink:title="ArchiveRequest">
<polygon fill="white" stroke="black" points="0,-58.5 0,-79.5 86,-79.5 86,-58.5 0,-58.5"/>
<text text-anchor="middle" x="43" y="-66.5" font-family="Helvetica,sans-Serif" font-size="10.00">ArchiveRequest</text>
</a>
</g>
<!-- Node1&#45;&gt;Node8 -->
<g id="edge20" class="edge"><title>Node1&#45;&gt;Node8</title>
<path fill="none" stroke="midnightblue" d="M128.864,-111.932C108.586,-101.793 82.3495,-88.6748 64.2424,-79.6212"/>
<polygon fill="midnightblue" stroke="midnightblue" points="127.484,-115.155 137.993,-116.497 130.614,-108.894 127.484,-115.155"/>
</g>
<!-- Node9 -->
<g id="node20" class="node"><title>Node9</title>
<a xlink:href="../../d7/d49/classmozilla_1_1dom_1_1_activity.html" target="_top" xlink:title="mozilla::dom::Activity">
<polygon fill="white" stroke="black" points="103.5,-58.5 103.5,-79.5 214.5,-79.5 214.5,-58.5 103.5,-58.5"/>
<text text-anchor="middle" x="159" y="-66.5" font-family="Helvetica,sans-Serif" font-size="10.00">mozilla::dom::Activity</text>
</a>
</g>
<!-- Node1&#45;&gt;Node9 -->
<g id="edge22" class="edge"><title>Node1&#45;&gt;Node9</title>
<path fill="none" stroke="midnightblue" d="M159,-106.191C159,-97.1684 159,-86.9941 159,-79.5707"/>
<polygon fill="midnightblue" stroke="midnightblue" points="155.5,-106.362 159,-116.362 162.5,-106.362 155.5,-106.362"/>
</g>
<!-- Node10 -->
<g id="node22" class="node"><title>Node10</title>
<a xlink:href="../../d7/df2/classmozilla_1_1dom_1_1_d_o_m_cursor.html" target="_top" xlink:title="mozilla::dom::DOMCursor">
<polygon fill="white" stroke="black" points="231.5,-58.5 231.5,-79.5 362.5,-79.5 362.5,-58.5 231.5,-58.5"/>
<text text-anchor="middle" x="297" y="-66.5" font-family="Helvetica,sans-Serif" font-size="10.00">mozilla::dom::DOMCursor</text>
</a>
</g>
<!-- Node1&#45;&gt;Node10 -->
<g id="edge24" class="edge"><title>Node1&#45;&gt;Node10</title>
<path fill="none" stroke="midnightblue" d="M193.226,-112.615C217.557,-102.389 249.7,-88.8796 271.729,-79.6212"/>
<polygon fill="midnightblue" stroke="midnightblue" points="191.854,-109.395 183.991,-116.497 194.566,-115.849 191.854,-109.395"/>
</g>
<!-- Node2 -->
<g id="node2" class="node"><title>Node2</title>
<a xlink:href="../../df/d37/classns_d_o_m_event_target_helper.html" target="_top" xlink:title="nsDOMEventTargetHelper">
<polygon fill="white" stroke="black" points="41,-174.5 41,-195.5 173,-195.5 173,-174.5 41,-174.5"/>
<text text-anchor="middle" x="107" y="-182.5" font-family="Helvetica,sans-Serif" font-size="10.00">nsDOMEventTargetHelper</text>
</a>
</g>
<!-- Node2&#45;&gt;Node1 -->
<g id="edge2" class="edge"><title>Node2&#45;&gt;Node1</title>
<path fill="none" stroke="midnightblue" d="M123.29,-166.83C131.917,-157.208 142.209,-145.728 149.523,-137.571"/>
<polygon fill="midnightblue" stroke="midnightblue" points="120.607,-164.58 116.538,-174.362 125.819,-169.253 120.607,-164.58"/>
</g>
<!-- Node3 -->
<g id="node4" class="node"><title>Node3</title>
<a xlink:href="../../da/da8/classmozilla_1_1dom_1_1_event_target.html" target="_top" xlink:title="mozilla::dom::EventTarget">
<polygon fill="white" stroke="black" points="19.5,-232.5 19.5,-253.5 150.5,-253.5 150.5,-232.5 19.5,-232.5"/>
<text text-anchor="middle" x="85" y="-240.5" font-family="Helvetica,sans-Serif" font-size="10.00">mozilla::dom::EventTarget</text>
</a>
</g>
<!-- Node3&#45;&gt;Node2 -->
<g id="edge4" class="edge"><title>Node3&#45;&gt;Node2</title>
<path fill="none" stroke="midnightblue" d="M92.6682,-222.784C96.1453,-213.617 100.113,-203.157 102.99,-195.571"/>
<polygon fill="midnightblue" stroke="midnightblue" points="89.3093,-221.771 89.0351,-232.362 95.8542,-224.253 89.3093,-221.771"/>
</g>
<!-- Node4 -->
<g id="node6" class="node"><title>Node4</title>
<a xlink:href="../../d9/ddf/interfacens_i_d_o_m_event_target.html" target="_top" xlink:title="nsIDOMEventTarget">
<polygon fill="white" stroke="black" points="170.5,-290.5 170.5,-311.5 277.5,-311.5 277.5,-290.5 170.5,-290.5"/>
<text text-anchor="middle" x="224" y="-298.5" font-family="Helvetica,sans-Serif" font-size="10.00">nsIDOMEventTarget</text>
</a>
</g>
<!-- Node4&#45;&gt;Node3 -->
<g id="edge6" class="edge"><title>Node4&#45;&gt;Node3</title>
<path fill="none" stroke="midnightblue" d="M189.526,-286.615C165.018,-276.389 132.642,-262.88 110.454,-253.621"/>
<polygon fill="midnightblue" stroke="midnightblue" points="188.252,-289.876 198.828,-290.497 190.947,-283.416 188.252,-289.876"/>
</g>
<!-- Node7 -->
<g id="node13" class="node"><title>Node7</title>
<a xlink:href="../../d8/df2/interfacens_i_d_o_m_d_o_m_request.html" target="_top" xlink:title="nsIDOMDOMRequest">
<polygon fill="white" stroke="black" points="167.5,-232.5 167.5,-253.5 280.5,-253.5 280.5,-232.5 167.5,-232.5"/>
<text text-anchor="middle" x="224" y="-240.5" font-family="Helvetica,sans-Serif" font-size="10.00">nsIDOMDOMRequest</text>
</a>
</g>
<!-- Node4&#45;&gt;Node7 -->
<g id="edge16" class="edge"><title>Node4&#45;&gt;Node7</title>
<path fill="none" stroke="midnightblue" d="M217.495,-280.191C216.941,-271.168 217.326,-260.994 218.648,-253.571"/>
<polygon fill="midnightblue" stroke="midnightblue" points="214.043,-280.814 218.636,-290.362 221,-280.034 214.043,-280.814"/>
</g>
<!-- Node4&#45;&gt;Node7 -->
<g id="edge18" class="edge"><title>Node4&#45;&gt;Node7</title>
<path fill="none" stroke="midnightblue" d="M230.505,-280.191C231.059,-271.168 230.674,-260.994 229.352,-253.571"/>
<polygon fill="midnightblue" stroke="midnightblue" points="227,-280.034 229.364,-290.362 233.957,-280.814 227,-280.034"/>
</g>
<!-- Node5 -->
<g id="node8" class="node"><title>Node5</title>
<a xlink:href="../../d4/d6a/classns_i_supports.html" target="_top" xlink:title="nsISupports">
<polygon fill="white" stroke="black" points="189.5,-348.5 189.5,-369.5 258.5,-369.5 258.5,-348.5 189.5,-348.5"/>
<text text-anchor="middle" x="224" y="-356.5" font-family="Helvetica,sans-Serif" font-size="10.00">nsISupports</text>
</a>
</g>
<!-- Node5&#45;&gt;Node4 -->
<g id="edge8" class="edge"><title>Node5&#45;&gt;Node4</title>
<path fill="none" stroke="midnightblue" d="M217.495,-338.191C216.941,-329.168 217.326,-318.994 218.648,-311.571"/>
<polygon fill="midnightblue" stroke="midnightblue" points="214.043,-338.814 218.636,-348.362 221,-338.034 214.043,-338.814"/>
</g>
<!-- Node5&#45;&gt;Node4 -->
<g id="edge10" class="edge"><title>Node5&#45;&gt;Node4</title>
<path fill="none" stroke="midnightblue" d="M230.505,-338.191C231.059,-329.168 230.674,-318.994 229.352,-311.571"/>
<polygon fill="midnightblue" stroke="midnightblue" points="227,-338.034 229.364,-348.362 233.957,-338.814 227,-338.034"/>
</g>
<!-- Node6 -->
<g id="node11" class="node"><title>Node6</title>
<a xlink:href="../../d0/d7e/classns_wrapper_cache.html" target="_top" xlink:title="nsWrapperCache">
<polygon fill="white" stroke="black" points="39,-290.5 39,-311.5 131,-311.5 131,-290.5 39,-290.5"/>
<text text-anchor="middle" x="85" y="-298.5" font-family="Helvetica,sans-Serif" font-size="10.00">nsWrapperCache</text>
</a>
</g>
<!-- Node6&#45;&gt;Node3 -->
<g id="edge12" class="edge"><title>Node6&#45;&gt;Node3</title>
<path fill="none" stroke="midnightblue" d="M85,-280.191C85,-271.168 85,-260.994 85,-253.571"/>
<polygon fill="midnightblue" stroke="midnightblue" points="81.5001,-280.362 85,-290.362 88.5001,-280.362 81.5001,-280.362"/>
</g>
<!-- Node7&#45;&gt;Node1 -->
<g id="edge14" class="edge"><title>Node7&#45;&gt;Node1</title>
<path fill="none" stroke="midnightblue" d="M213.045,-223.45C199.213,-198.764 175.905,-157.168 164.984,-137.679"/>
<polygon fill="midnightblue" stroke="midnightblue" points="210.06,-225.282 218.001,-232.295 216.166,-221.86 210.06,-225.282"/>
</g>
<!-- Node11 -->
<g id="node24" class="node"><title>Node11</title>
<a xlink:href="../../d4/dfc/class_m_o_z___f_i_n_a_l.html" target="_top" xlink:title="MOZ_FINAL\&lt; T \&gt;">
<polygon fill="white" stroke="black" points="249,-0.5 249,-21.5 345,-21.5 345,-0.5 249,-0.5"/>
<text text-anchor="middle" x="297" y="-8.5" font-family="Helvetica,sans-Serif" font-size="10.00">MOZ_FINAL&lt; T &gt;</text>
</a>
</g>
<!-- Node10&#45;&gt;Node11 -->
<g id="edge26" class="edge"><title>Node10&#45;&gt;Node11</title>
<path fill="none" stroke="midnightblue" d="M297,-48.1906C297,-39.1684 297,-28.9941 297,-21.5707"/>
<polygon fill="midnightblue" stroke="midnightblue" points="293.5,-48.3619 297,-58.3619 300.5,-48.3619 293.5,-48.3619"/>
</g>
</g>
</svg>
