<?xml version="1.0" encoding="UTF-8" standalone="no"?>
<!DOCTYPE svg PUBLIC "-//W3C//DTD SVG 1.1//EN"
 "http://www.w3.org/Graphics/SVG/1.1/DTD/svg11.dtd">
<!-- Generated by graphviz version 2.26.3 (20100126.1600)
 -->
<!-- Title: G Pages: 1 -->
<!--zoomable 166 -->
<svg id="main" version="1.1" xmlns="http://www.w3.org/2000/svg" xmlns:xlink="http://www.w3.org/1999/xlink" xml:space="preserve" onload="init(evt)">
        <defs>
                <circle id="rim" cx="0" cy="0" r="7"/>
                <circle id="rim2" cx="0" cy="0" r="3.5"/>
                <g id="zoomPlus">
                        <use xlink:href="#rim" fill="#404040">
                                <set attributeName="fill" to="#808080" begin="zoomplus.mouseover" end="zoomplus.mouseout"/>
                        </use>
                        <path d="M-4,0h8M0,-4v8" fill="none" stroke="white" stroke-width="1.5" pointer-events="none"/>
                </g>
                <g id="zoomMin">
                        <use xlink:href="#rim" fill="#404040">
                                <set attributeName="fill" to="#808080" begin="zoomminus.mouseover" end="zoomminus.mouseout"/>
                        </use>
                        <path d="M-4,0h8" fill="none" stroke="white" stroke-width="1.5" pointer-events="none"/>
                </g>
                <g id="dirArrow">
                        <path fill="none" stroke="white" stroke-width="1.5" d="M0,-3.0v7 M-2.5,-0.5L0,-3.0L2.5,-0.5"/>
                </g>
               <g id="resetDef">
                       <use xlink:href="#rim2" fill="#404040">
                               <set attributeName="fill" to="#808080" begin="reset.mouseover" end="reset.mouseout"/>
                       </use>
               </g>
        </defs>

<script type="text/javascript">
var viewWidth = 1008;
var viewHeight = 166;
var sectionId = 'dynsection-9';
</script>
<script xlink:href="../../svgpan.js"/>
<svg id="graph" class="graph">
<g id="viewport">
<title>G</title>
<polygon fill="white" stroke="white" points="-4,5 -4,-162 1005,-162 1005,5 -4,5"/>
<!-- Node1 -->
<g id="node1" class="node"><title>Node1</title>
<polygon fill="#bfbfbf" stroke="black" points="0.5,-77.5 0.5,-98.5 35.5,-98.5 35.5,-77.5 0.5,-77.5"/>
<text text-anchor="middle" x="18" y="-85.5" font-family="Helvetica,sans-Serif" font-size="10.00">strip</text>
</g>
<!-- Node2 -->
<g id="node3" class="node"><title>Node2</title>
<a xlink:href="../../d5/d60/utils_8h.html#a5394673b22982035151b16fbf475e422" target="_top" xlink:title="str_to_int">
<polygon fill="white" stroke="black" points="72.5,-77.5 72.5,-98.5 129.5,-98.5 129.5,-77.5 72.5,-77.5"/>
<text text-anchor="middle" x="101" y="-85.5" font-family="Helvetica,sans-Serif" font-size="10.00">str_to_int</text>
</a>
</g>
<!-- Node1&#45;&gt;Node2 -->
<g id="edge2" class="edge"><title>Node1&#45;&gt;Node2</title>
<path fill="none" stroke="midnightblue" d="M45.8127,-88C54.3401,-88 63.7357,-88 72.3199,-88"/>
<polygon fill="midnightblue" stroke="midnightblue" points="45.6022,-84.5001 35.6022,-88 45.6021,-91.5001 45.6022,-84.5001"/>
</g>
<!-- Node3 -->
<g id="node5" class="node"><title>Node3</title>
<a xlink:href="../../d0/d91/b2g-info_8cpp.html#ad94350f1cec145d9fd41ae522c6c45ed" target="_top" xlink:title="print_lmk_params">
<polygon fill="white" stroke="black" points="705,-136.5 705,-157.5 799,-157.5 799,-136.5 705,-136.5"/>
<text text-anchor="middle" x="752" y="-144.5" font-family="Helvetica,sans-Serif" font-size="10.00">print_lmk_params</text>
</a>
</g>
<!-- Node2&#45;&gt;Node3 -->
<g id="edge4" class="edge"><title>Node2&#45;&gt;Node3</title>
<path fill="none" stroke="midnightblue" d="M139.599,-100.769C148.207,-103.198 157.348,-105.459 166,-107 364.025,-142.272 604.788,-146.936 704.865,-147.22"/>
<polygon fill="midnightblue" stroke="midnightblue" points="140.384,-97.351 129.802,-97.8729 138.4,-104.064 140.384,-97.351"/>
</g>
<!-- Node6 -->
<g id="node11" class="node"><title>Node6</title>
<a xlink:href="../../d1/d41/class_process.html#add7d75128dca5994f9b93709d7273037" target="_top" xlink:title="Process::threads">
<polygon fill="white" stroke="black" points="542.5,-97.5 542.5,-118.5 633.5,-118.5 633.5,-97.5 542.5,-97.5"/>
<text text-anchor="middle" x="588" y="-105.5" font-family="Helvetica,sans-Serif" font-size="10.00">Process::threads</text>
</a>
</g>
<!-- Node2&#45;&gt;Node6 -->
<g id="edge10" class="edge"><title>Node2&#45;&gt;Node6</title>
<path fill="none" stroke="midnightblue" d="M139.843,-89.5952C228.851,-93.2506 447.201,-102.218 542.392,-106.127"/>
<polygon fill="midnightblue" stroke="midnightblue" points="139.781,-86.0898 129.646,-89.1764 139.494,-93.0839 139.781,-86.0898"/>
</g>
<!-- Node7 -->
<g id="node14" class="node"><title>Node7</title>
<a xlink:href="../../de/daf/class_process_list.html#a35ff98074634bff93deff546c9d57b62" target="_top" xlink:title="ProcessList::all_processes">
<polygon fill="white" stroke="black" points="166,-58.5 166,-79.5 300,-79.5 300,-58.5 166,-58.5"/>
<text text-anchor="middle" x="233" y="-66.5" font-family="Helvetica,sans-Serif" font-size="10.00">ProcessList::all_processes</text>
</a>
</g>
<!-- Node2&#45;&gt;Node7 -->
<g id="edge14" class="edge"><title>Node2&#45;&gt;Node7</title>
<path fill="none" stroke="midnightblue" d="M139.704,-82.429C147.981,-81.2376 156.953,-79.9461 165.952,-78.6509"/>
<polygon fill="midnightblue" stroke="midnightblue" points="139.041,-78.9882 129.642,-83.8773 140.039,-85.9168 139.041,-78.9882"/>
</g>
<!-- Node13 -->
<g id="node30" class="node"><title>Node13</title>
<a xlink:href="../../d5/d60/utils_8h.html#a76b174abfb67f43f44650fdeca91c04c" target="_top" xlink:title="str_to_int">
<polygon fill="white" stroke="black" points="204.5,-18.5 204.5,-39.5 261.5,-39.5 261.5,-18.5 204.5,-18.5"/>
<text text-anchor="middle" x="233" y="-26.5" font-family="Helvetica,sans-Serif" font-size="10.00">str_to_int</text>
</a>
</g>
<!-- Node2&#45;&gt;Node13 -->
<g id="edge34" class="edge"><title>Node2&#45;&gt;Node13</title>
<path fill="none" stroke="midnightblue" d="M124.691,-71.8234C136.685,-64.1495 151.702,-55.3037 166,-49 178.218,-43.6131 192.307,-39.1629 204.402,-35.8391"/>
<polygon fill="midnightblue" stroke="midnightblue" points="122.62,-68.9959 116.17,-77.4016 126.454,-74.8524 122.62,-68.9959"/>
</g>
<!-- Node4 -->
<g id="node7" class="node"><title>Node4</title>
<a xlink:href="../../d0/d91/b2g-info_8cpp.html#a72987403ed81c976534491e6e4cb7533" target="_top" xlink:title="print_b2g_info">
<polygon fill="white" stroke="black" points="847.5,-59.5 847.5,-80.5 924.5,-80.5 924.5,-59.5 847.5,-59.5"/>
<text text-anchor="middle" x="886" y="-67.5" font-family="Helvetica,sans-Serif" font-size="10.00">print_b2g_info</text>
</a>
</g>
<!-- Node3&#45;&gt;Node4 -->
<g id="edge6" class="edge"><title>Node3&#45;&gt;Node4</title>
<path fill="none" stroke="midnightblue" d="M788.888,-132.373C796.013,-129.194 803.331,-125.674 810,-122 832.825,-109.426 857.395,-91.7831 872.234,-80.6235"/>
<polygon fill="midnightblue" stroke="midnightblue" points="787.166,-129.304 779.372,-136.48 789.94,-135.731 787.166,-129.304"/>
</g>
<!-- Node5 -->
<g id="node9" class="node"><title>Node5</title>
<a xlink:href="../../d0/d91/b2g-info_8cpp.html#a217dbf8b442f20279ea00b898af96f52" target="_top" xlink:title="main">
<polygon fill="white" stroke="black" points="962,-29.5 962,-50.5 1000,-50.5 1000,-29.5 962,-29.5"/>
<text text-anchor="middle" x="981" y="-37.5" font-family="Helvetica,sans-Serif" font-size="10.00">main</text>
</a>
</g>
<!-- Node4&#45;&gt;Node5 -->
<g id="edge8" class="edge"><title>Node4&#45;&gt;Node5</title>
<path fill="none" stroke="midnightblue" d="M929.368,-56.305C940.774,-52.7031 952.5,-49.0001 961.889,-46.0351"/>
<polygon fill="midnightblue" stroke="midnightblue" points="927.975,-53.0742 919.493,-59.4231 930.083,-59.7493 927.975,-53.0742"/>
</g>
<!-- Node6&#45;&gt;Node4 -->
<g id="edge12" class="edge"><title>Node6&#45;&gt;Node4</title>
<path fill="none" stroke="midnightblue" d="M643.521,-100.92C702.773,-93.3645 795.111,-81.5899 847.072,-74.964"/>
<polygon fill="midnightblue" stroke="midnightblue" points="643.061,-97.4504 633.584,-102.187 643.947,-104.394 643.061,-97.4504"/>
</g>
<!-- Node8 -->
<g id="node16" class="node"><title>Node8</title>
<a xlink:href="../../de/daf/class_process_list.html#afe0878d6ad8b143b0f374d2e84297554" target="_top" xlink:title="ProcessList::main_process">
<polygon fill="white" stroke="black" points="341.5,-58.5 341.5,-79.5 476.5,-79.5 476.5,-58.5 341.5,-58.5"/>
<text text-anchor="middle" x="409" y="-66.5" font-family="Helvetica,sans-Serif" font-size="10.00">ProcessList::main_process</text>
</a>
</g>
<!-- Node7&#45;&gt;Node8 -->
<g id="edge16" class="edge"><title>Node7&#45;&gt;Node8</title>
<path fill="none" stroke="midnightblue" d="M310.277,-69C320.602,-69 331.127,-69 341.271,-69"/>
<polygon fill="midnightblue" stroke="midnightblue" points="310.04,-65.5001 300.04,-69 310.04,-72.5001 310.04,-65.5001"/>
</g>
<!-- Node11 -->
<g id="node24" class="node"><title>Node11</title>
<a xlink:href="../../de/daf/class_process_list.html#a16274094db38de453fa0d79f9c837704" target="_top" xlink:title="ProcessList::child_processes">
<polygon fill="white" stroke="black" points="336.5,-18.5 336.5,-39.5 481.5,-39.5 481.5,-18.5 336.5,-18.5"/>
<text text-anchor="middle" x="409" y="-26.5" font-family="Helvetica,sans-Serif" font-size="10.00">ProcessList::child_processes</text>
</a>
</g>
<!-- Node7&#45;&gt;Node11 -->
<g id="edge26" class="edge"><title>Node7&#45;&gt;Node11</title>
<path fill="none" stroke="midnightblue" d="M289.172,-56.2337C312.909,-50.839 340.216,-44.6328 362.762,-39.5087"/>
<polygon fill="midnightblue" stroke="midnightblue" points="288.218,-52.8612 279.242,-58.4905 289.769,-59.6871 288.218,-52.8612"/>
</g>
<!-- Node9 -->
<g id="node18" class="node"><title>Node9</title>
<a xlink:href="../../de/daf/class_process_list.html#a50e6f4206a8d67e3639f8af25cff4395" target="_top" xlink:title="ProcessList::b2g_processes">
<polygon fill="white" stroke="black" points="518,-38.5 518,-59.5 658,-59.5 658,-38.5 518,-38.5"/>
<text text-anchor="middle" x="588" y="-46.5" font-family="Helvetica,sans-Serif" font-size="10.00">ProcessList::b2g_processes</text>
</a>
</g>
<!-- Node8&#45;&gt;Node9 -->
<g id="edge18" class="edge"><title>Node8&#45;&gt;Node9</title>
<path fill="none" stroke="midnightblue" d="M486.881,-60.2982C497.181,-59.1474 507.689,-57.9733 517.848,-56.8382"/>
<polygon fill="midnightblue" stroke="midnightblue" points="486.222,-56.85 476.672,-61.4389 486.999,-63.8067 486.222,-56.85"/>
</g>
<!-- Node9&#45;&gt;Node4 -->
<g id="edge24" class="edge"><title>Node9&#45;&gt;Node4</title>
<path fill="none" stroke="midnightblue" d="M668.486,-54.6718C726.463,-58.7574 802.131,-64.0898 847.23,-67.2679"/>
<polygon fill="midnightblue" stroke="midnightblue" points="668.466,-51.1618 658.244,-53.9501 667.974,-58.1445 668.466,-51.1618"/>
</g>
<!-- Node10 -->
<g id="node20" class="node"><title>Node10</title>
<a xlink:href="../../d0/d91/b2g-info_8cpp.html#a21a526f63654418c49b074caf7feb59d" target="_top" xlink:title="print_system_meminfo">
<polygon fill="white" stroke="black" points="694,-20.5 694,-41.5 810,-41.5 810,-20.5 694,-20.5"/>
<text text-anchor="middle" x="752" y="-28.5" font-family="Helvetica,sans-Serif" font-size="10.00">print_system_meminfo</text>
</a>
</g>
<!-- Node9&#45;&gt;Node10 -->
<g id="edge20" class="edge"><title>Node9&#45;&gt;Node10</title>
<path fill="none" stroke="midnightblue" d="M668.149,-40.2032C676.802,-39.2534 685.483,-38.3007 693.806,-37.3872"/>
<polygon fill="midnightblue" stroke="midnightblue" points="667.585,-36.744 658.026,-41.3142 668.349,-43.7022 667.585,-36.744"/>
</g>
<!-- Node10&#45;&gt;Node4 -->
<g id="edge22" class="edge"><title>Node10&#45;&gt;Node4</title>
<path fill="none" stroke="midnightblue" d="M797.952,-44.3741C814.863,-49.2961 833.766,-54.7976 849.709,-59.4376"/>
<polygon fill="midnightblue" stroke="midnightblue" points="798.842,-40.988 788.262,-41.554 796.886,-47.7091 798.842,-40.988"/>
</g>
<!-- Node11&#45;&gt;Node9 -->
<g id="edge32" class="edge"><title>Node11&#45;&gt;Node9</title>
<path fill="none" stroke="midnightblue" d="M491.768,-38.2478C500.524,-39.2262 509.367,-40.2142 517.959,-41.1742"/>
<polygon fill="midnightblue" stroke="midnightblue" points="491.875,-34.7381 481.548,-37.1059 491.098,-41.6948 491.875,-34.7381"/>
</g>
<!-- Node12 -->
<g id="node26" class="node"><title>Node12</title>
<a xlink:href="../../d0/d91/b2g-info_8cpp.html#aa3b05aa6e9f0537dd025e601f102491d" target="_top" xlink:title="print_b2g_pids">
<polygon fill="white" stroke="black" points="846,-0.5 846,-21.5 926,-21.5 926,-0.5 846,-0.5"/>
<text text-anchor="middle" x="886" y="-8.5" font-family="Helvetica,sans-Serif" font-size="10.00">print_b2g_pids</text>
</a>
</g>
<!-- Node11&#45;&gt;Node12 -->
<g id="edge28" class="edge"><title>Node11&#45;&gt;Node12</title>
<path fill="none" stroke="midnightblue" d="M491.582,-22.4029C548.444,-18.1996 625.75,-13.1531 694,-11 746.474,-9.34458 807.055,-9.7261 845.905,-10.2648"/>
<polygon fill="midnightblue" stroke="midnightblue" points="491.279,-18.9157 481.567,-23.1501 491.799,-25.8963 491.279,-18.9157"/>
</g>
<!-- Node12&#45;&gt;Node5 -->
<g id="edge30" class="edge"><title>Node12&#45;&gt;Node5</title>
<path fill="none" stroke="midnightblue" d="M930.198,-24.4921C941.3,-27.8811 952.643,-31.3438 961.787,-34.135"/>
<polygon fill="midnightblue" stroke="midnightblue" points="931.152,-21.1239 920.566,-21.5517 929.108,-27.8189 931.152,-21.1239"/>
</g>
</g>
</svg>
        <g id="navigator" transform="translate(0 0)" fill="#404254">
                <rect fill="#f2f5e9" fill-opacity="0.5" stroke="#606060" stroke-width=".5" x="0" y="0" width="60" height="60"/>
                <use id="zoomplus" xlink:href="#zoomPlus" x="17" y="9" onmousedown="handleZoom(evt,'in')"/>
                <use id="zoomminus" xlink:href="#zoomMin" x="42" y="9" onmousedown="handleZoom(evt,'out')"/>
                <use id="reset" xlink:href="#resetDef" x="30" y="36" onmousedown="handleReset()"/>
                <g id="arrowUp" xlink:href="#dirArrow" transform="translate(30 24)" onmousedown="handlePan(0,-1)">
                  <use xlink:href="#rim" fill="#404040">
                        <set attributeName="fill" to="#808080" begin="arrowUp.mouseover" end="arrowUp.mouseout"/>
                  </use>
                  <path fill="none" stroke="white" stroke-width="1.5" d="M0,-3.0v7 M-2.5,-0.5L0,-3.0L2.5,-0.5"/>
                </g>
                <g id="arrowRight" xlink:href="#dirArrow" transform="rotate(90) translate(36 -43)" onmousedown="handlePan(1,0)">
                  <use xlink:href="#rim" fill="#404040">
                        <set attributeName="fill" to="#808080" begin="arrowRight.mouseover" end="arrowRight.mouseout"/>
                  </use>
                  <path fill="none" stroke="white" stroke-width="1.5" d="M0,-3.0v7 M-2.5,-0.5L0,-3.0L2.5,-0.5"/>
                </g>
                <g id="arrowDown" xlink:href="#dirArrow" transform="rotate(180) translate(-30 -48)" onmousedown="handlePan(0,1)">
                  <use xlink:href="#rim" fill="#404040">
                        <set attributeName="fill" to="#808080" begin="arrowDown.mouseover" end="arrowDown.mouseout"/>
                  </use>
                  <path fill="none" stroke="white" stroke-width="1.5" d="M0,-3.0v7 M-2.5,-0.5L0,-3.0L2.5,-0.5"/>
                </g>
                <g id="arrowLeft" xlink:href="#dirArrow" transform="rotate(270) translate(-36 17)" onmousedown="handlePan(-1,0)">
                  <use xlink:href="#rim" fill="#404040">
                        <set attributeName="fill" to="#808080" begin="arrowLeft.mouseover" end="arrowLeft.mouseout"/>
                  </use>
                  <path fill="none" stroke="white" stroke-width="1.5" d="M0,-3.0v7 M-2.5,-0.5L0,-3.0L2.5,-0.5"/>
                </g>
        </g>
</svg>
