<?xml version="1.0" encoding="UTF-8" standalone="no"?>
<!DOCTYPE svg PUBLIC "-//W3C//DTD SVG 1.1//EN"
 "http://www.w3.org/Graphics/SVG/1.1/DTD/svg11.dtd">
<!-- Generated by graphviz version 2.26.3 (20100126.1600)
 -->
<!-- Title: G Pages: 1 -->
<!--zoomable 185 -->
<svg id="main" version="1.1" xmlns="http://www.w3.org/2000/svg" xmlns:xlink="http://www.w3.org/1999/xlink" xml:space="preserve" onload="init(evt)">
        <defs>
                <circle id="rim" cx="0" cy="0" r="7"/>
                <circle id="rim2" cx="0" cy="0" r="3.5"/>
                <g id="zoomPlus">
                        <use xlink:href="#rim" fill="#404040">
                                <set attributeName="fill" to="#808080" begin="zoomplus.mouseover" end="zoomplus.mouseout"/>
                        </use>
                        <path d="M-4,0h8M0,-4v8" fill="none" stroke="white" stroke-width="1.5" pointer-events="none"/>
                </g>
                <g id="zoomMin">
                        <use xlink:href="#rim" fill="#404040">
                                <set attributeName="fill" to="#808080" begin="zoomminus.mouseover" end="zoomminus.mouseout"/>
                        </use>
                        <path d="M-4,0h8" fill="none" stroke="white" stroke-width="1.5" pointer-events="none"/>
                </g>
                <g id="dirArrow">
                        <path fill="none" stroke="white" stroke-width="1.5" d="M0,-3.0v7 M-2.5,-0.5L0,-3.0L2.5,-0.5"/>
                </g>
               <g id="resetDef">
                       <use xlink:href="#rim2" fill="#404040">
                               <set attributeName="fill" to="#808080" begin="reset.mouseover" end="reset.mouseout"/>
                       </use>
               </g>
        </defs>

<script type="text/javascript">
var viewWidth = 934;
var viewHeight = 185;
var sectionId = 'dynsection-5';
</script>
<script xlink:href="../../svgpan.js"/>
<svg id="graph" class="graph">
<g id="viewport">
<title>G</title>
<polygon fill="white" stroke="white" points="-4,5 -4,-181 931,-181 931,5 -4,5"/>
<!-- Node1 -->
<g id="node1" class="node"><title>Node1</title>
<polygon fill="#bfbfbf" stroke="black" points="0.5,-96.5 0.5,-117.5 57.5,-117.5 57.5,-96.5 0.5,-96.5"/>
<text text-anchor="middle" x="29" y="-104.5" font-family="Helvetica,sans-Serif" font-size="10.00">str_to_int</text>
</g>
<!-- Node2 -->
<g id="node3" class="node"><title>Node2</title>
<a xlink:href="../../de/daf/class_process_list.html#a35ff98074634bff93deff546c9d57b62" target="_top" xlink:title="ProcessList::all_processes">
<polygon fill="white" stroke="black" points="94,-37.5 94,-58.5 228,-58.5 228,-37.5 94,-37.5"/>
<text text-anchor="middle" x="161" y="-45.5" font-family="Helvetica,sans-Serif" font-size="10.00">ProcessList::all_processes</text>
</a>
</g>
<!-- Node1&#45;&gt;Node2 -->
<g id="edge2" class="edge"><title>Node1&#45;&gt;Node2</title>
<path fill="none" stroke="midnightblue" d="M52.6908,-90.8234C64.6848,-83.1495 79.7024,-74.3037 94,-68 102.108,-64.4251 111.041,-61.2627 119.667,-58.5682"/>
<polygon fill="midnightblue" stroke="midnightblue" points="50.6197,-87.9959 44.1703,-96.4016 54.454,-93.8524 50.6197,-87.9959"/>
</g>
<!-- Node10 -->
<g id="node22" class="node"><title>Node10</title>
<a xlink:href="../../d0/d91/b2g-info_8cpp.html#ad94350f1cec145d9fd41ae522c6c45ed" target="_top" xlink:title="print_lmk_params">
<polygon fill="white" stroke="black" points="469,-116.5 469,-137.5 563,-137.5 563,-116.5 469,-116.5"/>
<text text-anchor="middle" x="516" y="-124.5" font-family="Helvetica,sans-Serif" font-size="10.00">print_lmk_params</text>
</a>
</g>
<!-- Node1&#45;&gt;Node10 -->
<g id="edge24" class="edge"><title>Node1&#45;&gt;Node10</title>
<path fill="none" stroke="midnightblue" d="M67.788,-108.593C156.298,-112.228 372.904,-121.123 468.89,-125.065"/>
<polygon fill="midnightblue" stroke="midnightblue" points="67.7811,-105.09 57.6459,-108.176 67.4938,-112.084 67.7811,-105.09"/>
</g>
<!-- Node11 -->
<g id="node25" class="node"><title>Node11</title>
<a xlink:href="../../d5/d60/utils_8h.html#a76b174abfb67f43f44650fdeca91c04c" target="_top" xlink:title="str_to_int">
<polygon fill="white" stroke="black" points="132.5,-77.5 132.5,-98.5 189.5,-98.5 189.5,-77.5 132.5,-77.5"/>
<text text-anchor="middle" x="161" y="-85.5" font-family="Helvetica,sans-Serif" font-size="10.00">str_to_int</text>
</a>
</g>
<!-- Node1&#45;&gt;Node11 -->
<g id="edge28" class="edge"><title>Node1&#45;&gt;Node11</title>
<path fill="none" stroke="midnightblue" d="M67.7157,-101.427C88.4255,-98.4463 113.485,-94.8393 132.414,-92.1147"/>
<polygon fill="midnightblue" stroke="midnightblue" points="67.0413,-97.9882 57.642,-102.877 68.0387,-104.917 67.0413,-97.9882"/>
</g>
<!-- Node12 -->
<g id="node27" class="node"><title>Node12</title>
<a xlink:href="../../d1/d41/class_process.html#add7d75128dca5994f9b93709d7273037" target="_top" xlink:title="Process::threads">
<polygon fill="white" stroke="black" points="291.5,-155.5 291.5,-176.5 382.5,-176.5 382.5,-155.5 291.5,-155.5"/>
<text text-anchor="middle" x="337" y="-163.5" font-family="Helvetica,sans-Serif" font-size="10.00">Process::threads</text>
</a>
</g>
<!-- Node1&#45;&gt;Node12 -->
<g id="edge30" class="edge"><title>Node1&#45;&gt;Node12</title>
<path fill="none" stroke="midnightblue" d="M53.8506,-122.844C65.5823,-129.565 80.0468,-136.802 94,-141 160.604,-161.037 241.599,-165.662 291.212,-166.398"/>
<polygon fill="midnightblue" stroke="midnightblue" points="55.4736,-119.737 45.0899,-117.633 51.8947,-125.753 55.4736,-119.737"/>
</g>
<!-- Node3 -->
<g id="node5" class="node"><title>Node3</title>
<a xlink:href="../../de/daf/class_process_list.html#afe0878d6ad8b143b0f374d2e84297554" target="_top" xlink:title="ProcessList::main_process">
<polygon fill="white" stroke="black" points="269.5,-40.5 269.5,-61.5 404.5,-61.5 404.5,-40.5 269.5,-40.5"/>
<text text-anchor="middle" x="337" y="-48.5" font-family="Helvetica,sans-Serif" font-size="10.00">ProcessList::main_process</text>
</a>
</g>
<!-- Node2&#45;&gt;Node3 -->
<g id="edge4" class="edge"><title>Node2&#45;&gt;Node3</title>
<path fill="none" stroke="midnightblue" d="M238.277,-49.3172C248.602,-49.4932 259.127,-49.6726 269.271,-49.8455"/>
<polygon fill="midnightblue" stroke="midnightblue" points="238.098,-45.8138 228.04,-49.1427 237.979,-52.8127 238.098,-45.8138"/>
</g>
<!-- Node8 -->
<g id="node16" class="node"><title>Node8</title>
<a xlink:href="../../de/daf/class_process_list.html#a16274094db38de453fa0d79f9c837704" target="_top" xlink:title="ProcessList::child_processes">
<polygon fill="white" stroke="black" points="264.5,-0.5 264.5,-21.5 409.5,-21.5 409.5,-0.5 264.5,-0.5"/>
<text text-anchor="middle" x="337" y="-8.5" font-family="Helvetica,sans-Serif" font-size="10.00">ProcessList::child_processes</text>
</a>
</g>
<!-- Node2&#45;&gt;Node8 -->
<g id="edge16" class="edge"><title>Node2&#45;&gt;Node8</title>
<path fill="none" stroke="midnightblue" d="M220.952,-35.3966C242.417,-30.884 266.368,-25.8488 286.911,-21.53"/>
<polygon fill="midnightblue" stroke="midnightblue" points="220.03,-32.0137 210.964,-37.4963 221.47,-38.864 220.03,-32.0137"/>
</g>
<!-- Node4 -->
<g id="node7" class="node"><title>Node4</title>
<a xlink:href="../../de/daf/class_process_list.html#a50e6f4206a8d67e3639f8af25cff4395" target="_top" xlink:title="ProcessList::b2g_processes">
<polygon fill="white" stroke="black" points="446,-40.5 446,-61.5 586,-61.5 586,-40.5 446,-40.5"/>
<text text-anchor="middle" x="516" y="-48.5" font-family="Helvetica,sans-Serif" font-size="10.00">ProcessList::b2g_processes</text>
</a>
</g>
<!-- Node3&#45;&gt;Node4 -->
<g id="edge6" class="edge"><title>Node3&#45;&gt;Node4</title>
<path fill="none" stroke="midnightblue" d="M414.881,-51C425.181,-51 435.689,-51 445.848,-51"/>
<polygon fill="midnightblue" stroke="midnightblue" points="414.672,-47.5001 404.672,-51 414.672,-54.5001 414.672,-47.5001"/>
</g>
<!-- Node5 -->
<g id="node9" class="node"><title>Node5</title>
<a xlink:href="../../d0/d91/b2g-info_8cpp.html#a21a526f63654418c49b074caf7feb59d" target="_top" xlink:title="print_system_meminfo">
<polygon fill="white" stroke="black" points="622,-40.5 622,-61.5 738,-61.5 738,-40.5 622,-40.5"/>
<text text-anchor="middle" x="680" y="-48.5" font-family="Helvetica,sans-Serif" font-size="10.00">print_system_meminfo</text>
</a>
</g>
<!-- Node4&#45;&gt;Node5 -->
<g id="edge8" class="edge"><title>Node4&#45;&gt;Node5</title>
<path fill="none" stroke="midnightblue" d="M596.149,-51C604.802,-51 613.483,-51 621.806,-51"/>
<polygon fill="midnightblue" stroke="midnightblue" points="596.027,-47.5001 586.026,-51 596.026,-54.5001 596.027,-47.5001"/>
</g>
<!-- Node6 -->
<g id="node11" class="node"><title>Node6</title>
<a xlink:href="../../d0/d91/b2g-info_8cpp.html#a72987403ed81c976534491e6e4cb7533" target="_top" xlink:title="print_b2g_info">
<polygon fill="white" stroke="black" points="774.5,-79.5 774.5,-100.5 851.5,-100.5 851.5,-79.5 774.5,-79.5"/>
<text text-anchor="middle" x="813" y="-87.5" font-family="Helvetica,sans-Serif" font-size="10.00">print_b2g_info</text>
</a>
</g>
<!-- Node4&#45;&gt;Node6 -->
<g id="edge14" class="edge"><title>Node4&#45;&gt;Node6</title>
<path fill="none" stroke="midnightblue" d="M576.823,-63.419C591.569,-66.1685 607.315,-68.8884 622,-71 674.61,-78.5651 735.807,-84.079 774.468,-87.1609"/>
<polygon fill="midnightblue" stroke="midnightblue" points="577.277,-59.9428 566.8,-61.5178 575.973,-66.8201 577.277,-59.9428"/>
</g>
<!-- Node5&#45;&gt;Node6 -->
<g id="edge10" class="edge"><title>Node5&#45;&gt;Node6</title>
<path fill="none" stroke="midnightblue" d="M725.609,-64.3741C742.394,-69.2961 761.156,-74.7976 776.98,-79.4376"/>
<polygon fill="midnightblue" stroke="midnightblue" points="726.573,-61.0093 715.992,-61.554 724.603,-67.7265 726.573,-61.0093"/>
</g>
<!-- Node7 -->
<g id="node13" class="node"><title>Node7</title>
<a xlink:href="../../d0/d91/b2g-info_8cpp.html#a217dbf8b442f20279ea00b898af96f52" target="_top" xlink:title="main">
<polygon fill="white" stroke="black" points="888,-49.5 888,-70.5 926,-70.5 926,-49.5 888,-49.5"/>
<text text-anchor="middle" x="907" y="-57.5" font-family="Helvetica,sans-Serif" font-size="10.00">main</text>
</a>
</g>
<!-- Node6&#45;&gt;Node7 -->
<g id="edge12" class="edge"><title>Node6&#45;&gt;Node7</title>
<path fill="none" stroke="midnightblue" d="M855.837,-76.3288C867.036,-72.7544 878.554,-69.0786 887.818,-66.1218"/>
<polygon fill="midnightblue" stroke="midnightblue" points="854.603,-73.0483 846.141,-79.4231 856.732,-79.717 854.603,-73.0483"/>
</g>
<!-- Node8&#45;&gt;Node4 -->
<g id="edge22" class="edge"><title>Node8&#45;&gt;Node4</title>
<path fill="none" stroke="midnightblue" d="M393.806,-23.6941C418.023,-29.1056 445.941,-35.3443 468.974,-40.4913"/>
<polygon fill="midnightblue" stroke="midnightblue" points="394.553,-20.2747 384.03,-21.5095 393.026,-27.1062 394.553,-20.2747"/>
</g>
<!-- Node9 -->
<g id="node18" class="node"><title>Node9</title>
<a xlink:href="../../d0/d91/b2g-info_8cpp.html#aa3b05aa6e9f0537dd025e601f102491d" target="_top" xlink:title="print_b2g_pids">
<polygon fill="white" stroke="black" points="640,-0.5 640,-21.5 720,-21.5 720,-0.5 640,-0.5"/>
<text text-anchor="middle" x="680" y="-8.5" font-family="Helvetica,sans-Serif" font-size="10.00">print_b2g_pids</text>
</a>
</g>
<!-- Node8&#45;&gt;Node9 -->
<g id="edge18" class="edge"><title>Node8&#45;&gt;Node9</title>
<path fill="none" stroke="midnightblue" d="M419.826,-11C489.563,-11 586.283,-11 639.993,-11"/>
<polygon fill="midnightblue" stroke="midnightblue" points="419.742,-7.5001 409.741,-11 419.741,-14.5001 419.742,-7.5001"/>
</g>
<!-- Node9&#45;&gt;Node7 -->
<g id="edge20" class="edge"><title>Node9&#45;&gt;Node7</title>
<path fill="none" stroke="midnightblue" d="M729.967,-21.7859C779.65,-32.5105 853.294,-48.407 887.821,-55.8601"/>
<polygon fill="midnightblue" stroke="midnightblue" points="730.574,-18.3363 720.061,-19.6474 729.097,-25.1787 730.574,-18.3363"/>
</g>
<!-- Node10&#45;&gt;Node6 -->
<g id="edge26" class="edge"><title>Node10&#45;&gt;Node6</title>
<path fill="none" stroke="midnightblue" d="M573.479,-122.337C618.392,-118.382 682.323,-112.067 738,-104 749.798,-102.291 762.57,-100.053 774.173,-97.8693"/>
<polygon fill="midnightblue" stroke="midnightblue" points="573.002,-118.865 563.342,-123.218 573.608,-125.839 573.002,-118.865"/>
</g>
<!-- Node12&#45;&gt;Node6 -->
<g id="edge32" class="edge"><title>Node12&#45;&gt;Node6</title>
<path fill="none" stroke="midnightblue" d="M392.712,-166.532C471.318,-165.864 618.525,-159.38 738,-124 757.602,-118.195 778.707,-108.267 793.52,-100.632"/>
<polygon fill="midnightblue" stroke="midnightblue" points="392.528,-163.033 382.548,-166.589 392.567,-170.033 392.528,-163.033"/>
</g>
</g>
</svg>
        <g id="navigator" transform="translate(0 0)" fill="#404254">
                <rect fill="#f2f5e9" fill-opacity="0.5" stroke="#606060" stroke-width=".5" x="0" y="0" width="60" height="60"/>
                <use id="zoomplus" xlink:href="#zoomPlus" x="17" y="9" onmousedown="handleZoom(evt,'in')"/>
                <use id="zoomminus" xlink:href="#zoomMin" x="42" y="9" onmousedown="handleZoom(evt,'out')"/>
                <use id="reset" xlink:href="#resetDef" x="30" y="36" onmousedown="handleReset()"/>
                <g id="arrowUp" xlink:href="#dirArrow" transform="translate(30 24)" onmousedown="handlePan(0,-1)">
                  <use xlink:href="#rim" fill="#404040">
                        <set attributeName="fill" to="#808080" begin="arrowUp.mouseover" end="arrowUp.mouseout"/>
                  </use>
                  <path fill="none" stroke="white" stroke-width="1.5" d="M0,-3.0v7 M-2.5,-0.5L0,-3.0L2.5,-0.5"/>
                </g>
                <g id="arrowRight" xlink:href="#dirArrow" transform="rotate(90) translate(36 -43)" onmousedown="handlePan(1,0)">
                  <use xlink:href="#rim" fill="#404040">
                        <set attributeName="fill" to="#808080" begin="arrowRight.mouseover" end="arrowRight.mouseout"/>
                  </use>
                  <path fill="none" stroke="white" stroke-width="1.5" d="M0,-3.0v7 M-2.5,-0.5L0,-3.0L2.5,-0.5"/>
                </g>
                <g id="arrowDown" xlink:href="#dirArrow" transform="rotate(180) translate(-30 -48)" onmousedown="handlePan(0,1)">
                  <use xlink:href="#rim" fill="#404040">
                        <set attributeName="fill" to="#808080" begin="arrowDown.mouseover" end="arrowDown.mouseout"/>
                  </use>
                  <path fill="none" stroke="white" stroke-width="1.5" d="M0,-3.0v7 M-2.5,-0.5L0,-3.0L2.5,-0.5"/>
                </g>
                <g id="arrowLeft" xlink:href="#dirArrow" transform="rotate(270) translate(-36 17)" onmousedown="handlePan(-1,0)">
                  <use xlink:href="#rim" fill="#404040">
                        <set attributeName="fill" to="#808080" begin="arrowLeft.mouseover" end="arrowLeft.mouseout"/>
                  </use>
                  <path fill="none" stroke="white" stroke-width="1.5" d="M0,-3.0v7 M-2.5,-0.5L0,-3.0L2.5,-0.5"/>
                </g>
        </g>
</svg>
