<?xml version="1.0" encoding="UTF-8" standalone="no"?>
<!DOCTYPE svg PUBLIC "-//W3C//DTD SVG 1.1//EN"
 "http://www.w3.org/Graphics/SVG/1.1/DTD/svg11.dtd">
<!-- Generated by graphviz version 2.26.3 (20100126.1600)
 -->
<!-- Title: G Pages: 1 -->
<!--zoomable 138 -->
<svg id="main" version="1.1" xmlns="http://www.w3.org/2000/svg" xmlns:xlink="http://www.w3.org/1999/xlink" xml:space="preserve" onload="init(evt)">
        <defs>
                <circle id="rim" cx="0" cy="0" r="7"/>
                <circle id="rim2" cx="0" cy="0" r="3.5"/>
                <g id="zoomPlus">
                        <use xlink:href="#rim" fill="#404040">
                                <set attributeName="fill" to="#808080" begin="zoomplus.mouseover" end="zoomplus.mouseout"/>
                        </use>
                        <path d="M-4,0h8M0,-4v8" fill="none" stroke="white" stroke-width="1.5" pointer-events="none"/>
                </g>
                <g id="zoomMin">
                        <use xlink:href="#rim" fill="#404040">
                                <set attributeName="fill" to="#808080" begin="zoomminus.mouseover" end="zoomminus.mouseout"/>
                        </use>
                        <path d="M-4,0h8" fill="none" stroke="white" stroke-width="1.5" pointer-events="none"/>
                </g>
                <g id="dirArrow">
                        <path fill="none" stroke="white" stroke-width="1.5" d="M0,-3.0v7 M-2.5,-0.5L0,-3.0L2.5,-0.5"/>
                </g>
               <g id="resetDef">
                       <use xlink:href="#rim2" fill="#404040">
                               <set attributeName="fill" to="#808080" begin="reset.mouseover" end="reset.mouseout"/>
                       </use>
               </g>
        </defs>

<script type="text/javascript">
var viewWidth = 948;
var viewHeight = 138;
var sectionId = 'dynsection-3';
</script>
<script xlink:href="../../svgpan.js"/>
<svg id="graph" class="graph">
<g id="viewport">
<title>G</title>
<polygon fill="white" stroke="white" points="-4,5 -4,-134 945,-134 945,5 -4,5"/>
<!-- Node1 -->
<g id="node1" class="node"><title>Node1</title>
<polygon fill="#bfbfbf" stroke="black" points="0,-24.5 0,-45.5 72,-45.5 72,-24.5 0,-24.5"/>
<text text-anchor="middle" x="36" y="-32.5" font-family="Helvetica,sans-Serif" font-size="10.00">safe_opendir</text>
</g>
<!-- Node2 -->
<g id="node3" class="node"><title>Node2</title>
<a xlink:href="../../de/daf/class_process_list.html#a35ff98074634bff93deff546c9d57b62" target="_top" xlink:title="ProcessList::all_processes">
<polygon fill="white" stroke="black" points="108,-44.5 108,-65.5 242,-65.5 242,-44.5 108,-44.5"/>
<text text-anchor="middle" x="175" y="-52.5" font-family="Helvetica,sans-Serif" font-size="10.00">ProcessList::all_processes</text>
</a>
</g>
<!-- Node1&#45;&gt;Node2 -->
<g id="edge2" class="edge"><title>Node1&#45;&gt;Node2</title>
<path fill="none" stroke="midnightblue" d="M82.2426,-41.6536C90.4423,-42.8334 99.1302,-44.0835 107.771,-45.3268"/>
<polygon fill="midnightblue" stroke="midnightblue" points="82.5543,-38.1625 72.1578,-40.2026 81.5573,-45.0911 82.5543,-38.1625"/>
</g>
<!-- Node10 -->
<g id="node22" class="node"><title>Node10</title>
<a xlink:href="../../d1/d41/class_process.html#add7d75128dca5994f9b93709d7273037" target="_top" xlink:title="Process::threads">
<polygon fill="white" stroke="black" points="484.5,-0.5 484.5,-21.5 575.5,-21.5 575.5,-0.5 484.5,-0.5"/>
<text text-anchor="middle" x="530" y="-8.5" font-family="Helvetica,sans-Serif" font-size="10.00">Process::threads</text>
</a>
</g>
<!-- Node1&#45;&gt;Node10 -->
<g id="edge24" class="edge"><title>Node1&#45;&gt;Node10</title>
<path fill="none" stroke="midnightblue" d="M82.4417,-32.7437C176.98,-28.1508 390.745,-17.7654 484.492,-13.2109"/>
<polygon fill="midnightblue" stroke="midnightblue" points="82.1433,-29.254 72.325,-33.2352 82.4831,-36.2457 82.1433,-29.254"/>
</g>
<!-- Node3 -->
<g id="node5" class="node"><title>Node3</title>
<a xlink:href="../../de/daf/class_process_list.html#afe0878d6ad8b143b0f374d2e84297554" target="_top" xlink:title="ProcessList::main_process">
<polygon fill="white" stroke="black" points="283.5,-44.5 283.5,-65.5 418.5,-65.5 418.5,-44.5 283.5,-44.5"/>
<text text-anchor="middle" x="351" y="-52.5" font-family="Helvetica,sans-Serif" font-size="10.00">ProcessList::main_process</text>
</a>
</g>
<!-- Node2&#45;&gt;Node3 -->
<g id="edge4" class="edge"><title>Node2&#45;&gt;Node3</title>
<path fill="none" stroke="midnightblue" d="M252.277,-55C262.602,-55 273.127,-55 283.271,-55"/>
<polygon fill="midnightblue" stroke="midnightblue" points="252.04,-51.5001 242.04,-55 252.04,-58.5001 252.04,-51.5001"/>
</g>
<!-- Node8 -->
<g id="node16" class="node"><title>Node8</title>
<a xlink:href="../../de/daf/class_process_list.html#a16274094db38de453fa0d79f9c837704" target="_top" xlink:title="ProcessList::child_processes">
<polygon fill="white" stroke="black" points="278.5,-84.5 278.5,-105.5 423.5,-105.5 423.5,-84.5 278.5,-84.5"/>
<text text-anchor="middle" x="351" y="-92.5" font-family="Helvetica,sans-Serif" font-size="10.00">ProcessList::child_processes</text>
</a>
</g>
<!-- Node2&#45;&gt;Node8 -->
<g id="edge16" class="edge"><title>Node2&#45;&gt;Node8</title>
<path fill="none" stroke="midnightblue" d="M231.172,-67.7663C254.909,-73.161 282.216,-79.3672 304.762,-84.4913"/>
<polygon fill="midnightblue" stroke="midnightblue" points="231.769,-64.3129 221.242,-65.5095 230.218,-71.1388 231.769,-64.3129"/>
</g>
<!-- Node4 -->
<g id="node7" class="node"><title>Node4</title>
<a xlink:href="../../de/daf/class_process_list.html#a50e6f4206a8d67e3639f8af25cff4395" target="_top" xlink:title="ProcessList::b2g_processes">
<polygon fill="white" stroke="black" points="460,-49.5 460,-70.5 600,-70.5 600,-49.5 460,-49.5"/>
<text text-anchor="middle" x="530" y="-57.5" font-family="Helvetica,sans-Serif" font-size="10.00">ProcessList::b2g_processes</text>
</a>
</g>
<!-- Node3&#45;&gt;Node4 -->
<g id="edge6" class="edge"><title>Node3&#45;&gt;Node4</title>
<path fill="none" stroke="midnightblue" d="M428.881,-57.1755C439.181,-57.4632 449.689,-57.7567 459.848,-58.0405"/>
<polygon fill="midnightblue" stroke="midnightblue" points="428.766,-53.671 418.672,-56.8903 428.571,-60.6682 428.766,-53.671"/>
</g>
<!-- Node5 -->
<g id="node9" class="node"><title>Node5</title>
<a xlink:href="../../d0/d91/b2g-info_8cpp.html#a21a526f63654418c49b074caf7feb59d" target="_top" xlink:title="print_system_meminfo">
<polygon fill="white" stroke="black" points="636,-30.5 636,-51.5 752,-51.5 752,-30.5 636,-30.5"/>
<text text-anchor="middle" x="694" y="-38.5" font-family="Helvetica,sans-Serif" font-size="10.00">print_system_meminfo</text>
</a>
</g>
<!-- Node4&#45;&gt;Node5 -->
<g id="edge8" class="edge"><title>Node4&#45;&gt;Node5</title>
<path fill="none" stroke="midnightblue" d="M610.149,-50.7145C618.802,-49.7119 627.483,-48.7062 635.806,-47.742"/>
<polygon fill="midnightblue" stroke="midnightblue" points="609.557,-47.2595 600.026,-51.8872 610.363,-54.213 609.557,-47.2595"/>
</g>
<!-- Node6 -->
<g id="node11" class="node"><title>Node6</title>
<a xlink:href="../../d0/d91/b2g-info_8cpp.html#a72987403ed81c976534491e6e4cb7533" target="_top" xlink:title="print_b2g_info">
<polygon fill="white" stroke="black" points="788.5,-40.5 788.5,-61.5 865.5,-61.5 865.5,-40.5 788.5,-40.5"/>
<text text-anchor="middle" x="827" y="-48.5" font-family="Helvetica,sans-Serif" font-size="10.00">print_b2g_info</text>
</a>
</g>
<!-- Node4&#45;&gt;Node6 -->
<g id="edge14" class="edge"><title>Node4&#45;&gt;Node6</title>
<path fill="none" stroke="midnightblue" d="M610.291,-63.0961C652.511,-64.033 705.103,-64.1127 752,-61 763.797,-60.217 776.568,-58.7486 788.172,-57.1735"/>
<polygon fill="midnightblue" stroke="midnightblue" points="610.15,-59.5917 600.068,-62.8481 609.98,-66.5896 610.15,-59.5917"/>
</g>
<!-- Node5&#45;&gt;Node6 -->
<g id="edge10" class="edge"><title>Node5&#45;&gt;Node6</title>
<path fill="none" stroke="midnightblue" d="M762.347,-46.1389C771.227,-46.8066 780.064,-47.471 788.222,-48.0844"/>
<polygon fill="midnightblue" stroke="midnightblue" points="762.57,-42.6459 752.336,-45.3861 762.045,-49.6261 762.57,-42.6459"/>
</g>
<!-- Node7 -->
<g id="node13" class="node"><title>Node7</title>
<a xlink:href="../../d0/d91/b2g-info_8cpp.html#a217dbf8b442f20279ea00b898af96f52" target="_top" xlink:title="main">
<polygon fill="white" stroke="black" points="902,-69.5 902,-90.5 940,-90.5 940,-69.5 902,-69.5"/>
<text text-anchor="middle" x="921" y="-77.5" font-family="Helvetica,sans-Serif" font-size="10.00">main</text>
</a>
</g>
<!-- Node6&#45;&gt;Node7 -->
<g id="edge12" class="edge"><title>Node6&#45;&gt;Node7</title>
<path fill="none" stroke="midnightblue" d="M871.066,-64.5948C881.944,-67.9509 893.033,-71.372 901.989,-74.135"/>
<polygon fill="midnightblue" stroke="midnightblue" points="871.789,-61.1553 861.202,-61.5517 869.726,-67.8442 871.789,-61.1553"/>
</g>
<!-- Node8&#45;&gt;Node4 -->
<g id="edge22" class="edge"><title>Node8&#45;&gt;Node4</title>
<path fill="none" stroke="midnightblue" d="M414.69,-82.5466C434.752,-78.624 456.705,-74.3314 476.023,-70.5542"/>
<polygon fill="midnightblue" stroke="midnightblue" points="413.848,-79.1448 404.706,-84.4988 415.192,-86.0148 413.848,-79.1448"/>
</g>
<!-- Node9 -->
<g id="node18" class="node"><title>Node9</title>
<a xlink:href="../../d0/d91/b2g-info_8cpp.html#aa3b05aa6e9f0537dd025e601f102491d" target="_top" xlink:title="print_b2g_pids">
<polygon fill="white" stroke="black" points="654,-108.5 654,-129.5 734,-129.5 734,-108.5 654,-108.5"/>
<text text-anchor="middle" x="694" y="-116.5" font-family="Helvetica,sans-Serif" font-size="10.00">print_b2g_pids</text>
</a>
</g>
<!-- Node8&#45;&gt;Node9 -->
<g id="edge18" class="edge"><title>Node8&#45;&gt;Node9</title>
<path fill="none" stroke="midnightblue" d="M433.826,-100.795C503.563,-105.675 600.283,-112.443 653.993,-116.201"/>
<polygon fill="midnightblue" stroke="midnightblue" points="433.961,-97.2964 423.741,-100.09 433.473,-104.279 433.961,-97.2964"/>
</g>
<!-- Node9&#45;&gt;Node7 -->
<g id="edge20" class="edge"><title>Node9&#45;&gt;Node7</title>
<path fill="none" stroke="midnightblue" d="M743.967,-110.415C793.65,-101.879 867.294,-89.2271 901.821,-83.295"/>
<polygon fill="midnightblue" stroke="midnightblue" points="743.323,-106.975 734.061,-112.117 744.509,-113.873 743.323,-106.975"/>
</g>
<!-- Node10&#45;&gt;Node6 -->
<g id="edge26" class="edge"><title>Node10&#45;&gt;Node6</title>
<path fill="none" stroke="midnightblue" d="M585.847,-8.39094C631.144,-7.49434 696.373,-8.98287 752,-21 770.917,-25.0865 791.233,-33.4849 805.943,-40.359"/>
<polygon fill="midnightblue" stroke="midnightblue" points="585.55,-4.89705 575.639,-8.64003 585.721,-11.895 585.55,-4.89705"/>
</g>
</g>
</svg>
        <g id="navigator" transform="translate(0 0)" fill="#404254">
                <rect fill="#f2f5e9" fill-opacity="0.5" stroke="#606060" stroke-width=".5" x="0" y="0" width="60" height="60"/>
                <use id="zoomplus" xlink:href="#zoomPlus" x="17" y="9" onmousedown="handleZoom(evt,'in')"/>
                <use id="zoomminus" xlink:href="#zoomMin" x="42" y="9" onmousedown="handleZoom(evt,'out')"/>
                <use id="reset" xlink:href="#resetDef" x="30" y="36" onmousedown="handleReset()"/>
                <g id="arrowUp" xlink:href="#dirArrow" transform="translate(30 24)" onmousedown="handlePan(0,-1)">
                  <use xlink:href="#rim" fill="#404040">
                        <set attributeName="fill" to="#808080" begin="arrowUp.mouseover" end="arrowUp.mouseout"/>
                  </use>
                  <path fill="none" stroke="white" stroke-width="1.5" d="M0,-3.0v7 M-2.5,-0.5L0,-3.0L2.5,-0.5"/>
                </g>
                <g id="arrowRight" xlink:href="#dirArrow" transform="rotate(90) translate(36 -43)" onmousedown="handlePan(1,0)">
                  <use xlink:href="#rim" fill="#404040">
                        <set attributeName="fill" to="#808080" begin="arrowRight.mouseover" end="arrowRight.mouseout"/>
                  </use>
                  <path fill="none" stroke="white" stroke-width="1.5" d="M0,-3.0v7 M-2.5,-0.5L0,-3.0L2.5,-0.5"/>
                </g>
                <g id="arrowDown" xlink:href="#dirArrow" transform="rotate(180) translate(-30 -48)" onmousedown="handlePan(0,1)">
                  <use xlink:href="#rim" fill="#404040">
                        <set attributeName="fill" to="#808080" begin="arrowDown.mouseover" end="arrowDown.mouseout"/>
                  </use>
                  <path fill="none" stroke="white" stroke-width="1.5" d="M0,-3.0v7 M-2.5,-0.5L0,-3.0L2.5,-0.5"/>
                </g>
                <g id="arrowLeft" xlink:href="#dirArrow" transform="rotate(270) translate(-36 17)" onmousedown="handlePan(-1,0)">
                  <use xlink:href="#rim" fill="#404040">
                        <set attributeName="fill" to="#808080" begin="arrowLeft.mouseover" end="arrowLeft.mouseout"/>
                  </use>
                  <path fill="none" stroke="white" stroke-width="1.5" d="M0,-3.0v7 M-2.5,-0.5L0,-3.0L2.5,-0.5"/>
                </g>
        </g>
</svg>
