<?xml version="1.0" encoding="UTF-8" standalone="no"?>
<!DOCTYPE svg PUBLIC "-//W3C//DTD SVG 1.1//EN"
 "http://www.w3.org/Graphics/SVG/1.1/DTD/svg11.dtd">
<!-- Generated by graphviz version 2.26.3 (20100126.1600)
 -->
<!-- Title: G Pages: 1 -->
<svg width="408pt" height="190pt"
 viewBox="0.00 0.00 408.00 190.00" xmlns="http://www.w3.org/2000/svg" xmlns:xlink="http://www.w3.org/1999/xlink">
<g id="graph1" class="graph" transform="scale(1 1) rotate(0) translate(4 186)">
<title>G</title>
<polygon fill="white" stroke="white" points="-4,5 -4,-186 405,-186 405,5 -4,5"/>
<!-- Node1 -->
<g id="node1" class="node"><title>Node1</title>
<polygon fill="#bfbfbf" stroke="black" points="0.5,-80.5 0.5,-101.5 59.5,-101.5 59.5,-80.5 0.5,-80.5"/>
<text text-anchor="middle" x="30" y="-88.5" font-family="Helvetica,sans-Serif" font-size="10.00">kb_to_mb</text>
</g>
<!-- Node2 -->
<g id="node3" class="node"><title>Node2</title>
<a xlink:href="../../d0/d91/b2g-info_8cpp.html#a21a526f63654418c49b074caf7feb59d" target="_top" xlink:title="print_system_meminfo">
<polygon fill="white" stroke="black" points="96,-160.5 96,-181.5 212,-181.5 212,-160.5 96,-160.5"/>
<text text-anchor="middle" x="154" y="-168.5" font-family="Helvetica,sans-Serif" font-size="10.00">print_system_meminfo</text>
</a>
</g>
<!-- Node1&#45;&gt;Node2 -->
<g id="edge2" class="edge"><title>Node1&#45;&gt;Node2</title>
<path fill="none" stroke="midnightblue" d="M46.238,-109.308C58.7325,-122.449 77.0242,-139.756 96,-151 102.231,-154.692 109.244,-157.834 116.184,-160.458"/>
<polygon fill="midnightblue" stroke="midnightblue" points="48.6126,-106.72 39.2534,-101.755 43.4733,-111.473 48.6126,-106.72"/>
</g>
<!-- Node5 -->
<g id="node9" class="node"><title>Node5</title>
<a xlink:href="../../d1/d41/class_process.html#a8d5342e6338a7baba3c991465b0fc81d" target="_top" xlink:title="Process::pss_mb">
<polygon fill="white" stroke="black" points="107.5,-120.5 107.5,-141.5 200.5,-141.5 200.5,-120.5 107.5,-120.5"/>
<text text-anchor="middle" x="154" y="-128.5" font-family="Helvetica,sans-Serif" font-size="10.00">Process::pss_mb</text>
</a>
</g>
<!-- Node1&#45;&gt;Node5 -->
<g id="edge8" class="edge"><title>Node1&#45;&gt;Node5</title>
<path fill="none" stroke="midnightblue" d="M69.6526,-103.791C86.2279,-109.138 105.263,-115.279 121.051,-120.371"/>
<polygon fill="midnightblue" stroke="midnightblue" points="70.2927,-100.32 59.7011,-100.581 68.1436,-106.982 70.2927,-100.32"/>
</g>
<!-- Node6 -->
<g id="node12" class="node"><title>Node6</title>
<a xlink:href="../../d1/d41/class_process.html#a4b6fa50eea085f44801a70d77732911e" target="_top" xlink:title="Process::rss_mb">
<polygon fill="white" stroke="black" points="108.5,-80.5 108.5,-101.5 199.5,-101.5 199.5,-80.5 108.5,-80.5"/>
<text text-anchor="middle" x="154" y="-88.5" font-family="Helvetica,sans-Serif" font-size="10.00">Process::rss_mb</text>
</a>
</g>
<!-- Node1&#45;&gt;Node6 -->
<g id="edge12" class="edge"><title>Node1&#45;&gt;Node6</title>
<path fill="none" stroke="midnightblue" d="M69.9839,-91C82.1282,-91 95.5677,-91 108.071,-91"/>
<polygon fill="midnightblue" stroke="midnightblue" points="69.7011,-87.5001 59.7011,-91 69.7011,-94.5001 69.7011,-87.5001"/>
</g>
<!-- Node7 -->
<g id="node15" class="node"><title>Node7</title>
<a xlink:href="../../d1/d41/class_process.html#affcdf07d032c70295f1f49bf3caa81d0" target="_top" xlink:title="Process::uss_mb">
<polygon fill="white" stroke="black" points="107.5,-40.5 107.5,-61.5 200.5,-61.5 200.5,-40.5 107.5,-40.5"/>
<text text-anchor="middle" x="154" y="-48.5" font-family="Helvetica,sans-Serif" font-size="10.00">Process::uss_mb</text>
</a>
</g>
<!-- Node1&#45;&gt;Node7 -->
<g id="edge16" class="edge"><title>Node1&#45;&gt;Node7</title>
<path fill="none" stroke="midnightblue" d="M69.6526,-78.2088C86.2279,-72.862 105.263,-66.7215 121.051,-61.6286"/>
<polygon fill="midnightblue" stroke="midnightblue" points="68.1436,-75.0179 59.7011,-81.419 70.2927,-81.6799 68.1436,-75.0179"/>
</g>
<!-- Node8 -->
<g id="node18" class="node"><title>Node8</title>
<a xlink:href="../../d1/d41/class_process.html#a5c0a5eabbeac51b40e7d691da2e74852" target="_top" xlink:title="Process::vsize_mb">
<polygon fill="white" stroke="black" points="103.5,-0.5 103.5,-21.5 204.5,-21.5 204.5,-0.5 103.5,-0.5"/>
<text text-anchor="middle" x="154" y="-8.5" font-family="Helvetica,sans-Serif" font-size="10.00">Process::vsize_mb</text>
</a>
</g>
<!-- Node1&#45;&gt;Node8 -->
<g id="edge20" class="edge"><title>Node1&#45;&gt;Node8</title>
<path fill="none" stroke="midnightblue" d="M46.238,-72.6923C58.7325,-59.5508 77.0242,-42.2444 96,-31 102.231,-27.3077 109.244,-24.1658 116.184,-21.5424"/>
<polygon fill="midnightblue" stroke="midnightblue" points="43.4733,-70.527 39.2534,-80.2452 48.6126,-75.2797 43.4733,-70.527"/>
</g>
<!-- Node3 -->
<g id="node5" class="node"><title>Node3</title>
<a xlink:href="../../d0/d91/b2g-info_8cpp.html#a72987403ed81c976534491e6e4cb7533" target="_top" xlink:title="print_b2g_info">
<polygon fill="white" stroke="black" points="248.5,-80.5 248.5,-101.5 325.5,-101.5 325.5,-80.5 248.5,-80.5"/>
<text text-anchor="middle" x="287" y="-88.5" font-family="Helvetica,sans-Serif" font-size="10.00">print_b2g_info</text>
</a>
</g>
<!-- Node2&#45;&gt;Node3 -->
<g id="edge4" class="edge"><title>Node2&#45;&gt;Node3</title>
<path fill="none" stroke="midnightblue" d="M200.243,-156.694C204.299,-154.951 208.274,-153.052 212,-151 237.123,-137.164 262.343,-114.835 276.189,-101.672"/>
<polygon fill="midnightblue" stroke="midnightblue" points="198.715,-153.534 190.712,-160.477 201.298,-160.04 198.715,-153.534"/>
</g>
<!-- Node4 -->
<g id="node7" class="node"><title>Node4</title>
<a xlink:href="../../d0/d91/b2g-info_8cpp.html#a217dbf8b442f20279ea00b898af96f52" target="_top" xlink:title="main">
<polygon fill="white" stroke="black" points="362,-80.5 362,-101.5 400,-101.5 400,-80.5 362,-80.5"/>
<text text-anchor="middle" x="381" y="-88.5" font-family="Helvetica,sans-Serif" font-size="10.00">main</text>
</a>
</g>
<!-- Node3&#45;&gt;Node4 -->
<g id="edge6" class="edge"><title>Node3&#45;&gt;Node4</title>
<path fill="none" stroke="midnightblue" d="M335.632,-91C344.998,-91 354.278,-91 361.981,-91"/>
<polygon fill="midnightblue" stroke="midnightblue" points="335.505,-87.5001 325.505,-91 335.505,-94.5001 335.505,-87.5001"/>
</g>
<!-- Node5&#45;&gt;Node3 -->
<g id="edge10" class="edge"><title>Node5&#45;&gt;Node3</title>
<path fill="none" stroke="midnightblue" d="M198.826,-117.519C216.108,-112.321 235.584,-106.463 251.827,-101.578"/>
<polygon fill="midnightblue" stroke="midnightblue" points="197.512,-114.259 188.944,-120.49 199.529,-120.962 197.512,-114.259"/>
</g>
<!-- Node6&#45;&gt;Node3 -->
<g id="edge14" class="edge"><title>Node6&#45;&gt;Node3</title>
<path fill="none" stroke="midnightblue" d="M209.949,-91C222.833,-91 236.26,-91 248.226,-91"/>
<polygon fill="midnightblue" stroke="midnightblue" points="209.771,-87.5001 199.771,-91 209.771,-94.5001 209.771,-87.5001"/>
</g>
<!-- Node7&#45;&gt;Node3 -->
<g id="edge18" class="edge"><title>Node7&#45;&gt;Node3</title>
<path fill="none" stroke="midnightblue" d="M198.826,-64.4814C216.108,-69.6792 235.584,-75.5365 251.827,-80.4218"/>
<polygon fill="midnightblue" stroke="midnightblue" points="199.529,-61.038 188.944,-61.5095 197.512,-67.7414 199.529,-61.038"/>
</g>
<!-- Node8&#45;&gt;Node3 -->
<g id="edge22" class="edge"><title>Node8&#45;&gt;Node3</title>
<path fill="none" stroke="midnightblue" d="M200.243,-25.3063C204.299,-27.0493 208.274,-28.9479 212,-31 237.123,-44.8357 262.343,-67.1647 276.189,-80.3284"/>
<polygon fill="midnightblue" stroke="midnightblue" points="201.298,-21.9596 190.712,-21.5226 198.715,-28.4656 201.298,-21.9596"/>
</g>
</g>
</svg>
