<?xml version="1.0" encoding="UTF-8" standalone="no"?>
<!DOCTYPE svg PUBLIC "-//W3C//DTD SVG 1.1//EN"
 "http://www.w3.org/Graphics/SVG/1.1/DTD/svg11.dtd">
<!-- Generated by graphviz version 2.26.3 (20100126.1600)
 -->
<!-- Title: G Pages: 1 -->
<svg width="232pt" height="30pt"
 viewBox="0.00 0.00 232.00 30.00" xmlns="http://www.w3.org/2000/svg" xmlns:xlink="http://www.w3.org/1999/xlink">
<g id="graph1" class="graph" transform="scale(1 1) rotate(0) translate(4 26)">
<title>G</title>
<polygon fill="white" stroke="white" points="-4,5 -4,-26 229,-26 229,5 -4,5"/>
<!-- Node1 -->
<g id="node1" class="node"><title>Node1</title>
<polygon fill="#bfbfbf" stroke="black" points="0.5,-0.5 0.5,-21.5 57.5,-21.5 57.5,-0.5 0.5,-0.5"/>
<text text-anchor="middle" x="29" y="-8.5" font-family="Helvetica,sans-Serif" font-size="10.00">str_to_int</text>
</g>
<!-- Node2 -->
<g id="node3" class="node"><title>Node2</title>
<a xlink:href="../../de/d06/utils_8cpp.html#a5394673b22982035151b16fbf475e422" target="_top" xlink:title="str_to_int">
<polygon fill="white" stroke="black" points="94.5,-0.5 94.5,-21.5 151.5,-21.5 151.5,-0.5 94.5,-0.5"/>
<text text-anchor="middle" x="123" y="-8.5" font-family="Helvetica,sans-Serif" font-size="10.00">str_to_int</text>
</a>
</g>
<!-- Node1&#45;&gt;Node2 -->
<g id="edge2" class="edge"><title>Node1&#45;&gt;Node2</title>
<path fill="none" stroke="midnightblue" d="M57.7139,-11C66.0961,-11 75.3976,-11 84.2902,-11"/>
<polygon fill="midnightblue" stroke="midnightblue" points="84.462,-14.5001 94.462,-11 84.4619,-7.5001 84.462,-14.5001"/>
</g>
<!-- Node3 -->
<g id="node5" class="node"><title>Node3</title>
<a xlink:href="../../de/d06/utils_8cpp.html#a8421efed5119fd1615e48373572c0061" target="_top" xlink:title="strip">
<polygon fill="white" stroke="black" points="188.5,-0.5 188.5,-21.5 223.5,-21.5 223.5,-0.5 188.5,-0.5"/>
<text text-anchor="middle" x="206" y="-8.5" font-family="Helvetica,sans-Serif" font-size="10.00">strip</text>
</a>
</g>
<!-- Node2&#45;&gt;Node3 -->
<g id="edge4" class="edge"><title>Node2&#45;&gt;Node3</title>
<path fill="none" stroke="midnightblue" d="M151.564,-11C160.136,-11 169.527,-11 178.059,-11"/>
<polygon fill="midnightblue" stroke="midnightblue" points="178.28,-14.5001 188.28,-11 178.28,-7.5001 178.28,-14.5001"/>
</g>
</g>
</svg>
