<?xml version="1.0" encoding="UTF-8" standalone="no"?>
<!DOCTYPE svg PUBLIC "-//W3C//DTD SVG 1.1//EN"
 "http://www.w3.org/Graphics/SVG/1.1/DTD/svg11.dtd">
<!-- Generated by graphviz version 2.26.3 (20100126.1600)
 -->
<!-- Title: G Pages: 1 -->
<!--zoomable 848 -->
<svg id="main" version="1.1" xmlns="http://www.w3.org/2000/svg" xmlns:xlink="http://www.w3.org/1999/xlink" xml:space="preserve" onload="init(evt)">
        <defs>
                <circle id="rim" cx="0" cy="0" r="7"/>
                <circle id="rim2" cx="0" cy="0" r="3.5"/>
                <g id="zoomPlus">
                        <use xlink:href="#rim" fill="#404040">
                                <set attributeName="fill" to="#808080" begin="zoomplus.mouseover" end="zoomplus.mouseout"/>
                        </use>
                        <path d="M-4,0h8M0,-4v8" fill="none" stroke="white" stroke-width="1.5" pointer-events="none"/>
                </g>
                <g id="zoomMin">
                        <use xlink:href="#rim" fill="#404040">
                                <set attributeName="fill" to="#808080" begin="zoomminus.mouseover" end="zoomminus.mouseout"/>
                        </use>
                        <path d="M-4,0h8" fill="none" stroke="white" stroke-width="1.5" pointer-events="none"/>
                </g>
                <g id="dirArrow">
                        <path fill="none" stroke="white" stroke-width="1.5" d="M0,-3.0v7 M-2.5,-0.5L0,-3.0L2.5,-0.5"/>
                </g>
               <g id="resetDef">
                       <use xlink:href="#rim2" fill="#404040">
                               <set attributeName="fill" to="#808080" begin="reset.mouseover" end="reset.mouseout"/>
                       </use>
               </g>
        </defs>

<script type="text/javascript">
var viewWidth = 966;
var viewHeight = 848;
var sectionId = 'dynsection-7';
</script>
<script xlink:href="../../svgpan.js"/>
<svg id="graph" class="graph">
<g id="viewport">
<title>G</title>
<polygon fill="white" stroke="white" points="-4,5 -4,-844 963,-844 963,5 -4,5"/>
<!-- Node1 -->
<g id="node1" class="node"><title>Node1</title>
<polygon fill="#bfbfbf" stroke="black" points="0.5,-400.5 0.5,-421.5 265.5,-421.5 265.5,-400.5 0.5,-400.5"/>
<text text-anchor="middle" x="133" y="-408.5" font-family="Helvetica,sans-Serif" font-size="10.00">mozilla::dom::CanvasRenderingContext2D::CurrentState</text>
</g>
<!-- Node2 -->
<g id="node3" class="node"><title>Node2</title>
<a xlink:href="../../d7/d68/classmozilla_1_1dom_1_1_canvas_rendering_context2_d.html#ac28f9958261dfc4542567fd173c50d25" target="_top" xlink:title="mozilla::dom::CanvasRenderingContext2D::GetFont">
<polygon fill="white" stroke="black" points="346.5,-798.5 346.5,-819.5 591.5,-819.5 591.5,-798.5 346.5,-798.5"/>
<text text-anchor="middle" x="469" y="-806.5" font-family="Helvetica,sans-Serif" font-size="10.00">mozilla::dom::CanvasRenderingContext2D::GetFont</text>
</a>
</g>
<!-- Node1&#45;&gt;Node2 -->
<g id="edge2" class="edge"><title>Node1&#45;&gt;Node2</title>
<path fill="none" stroke="midnightblue" d="M135.299,-431.977C143.678,-497.332 178.869,-698.319 302,-789 315.049,-798.61 330.29,-804.994 346.158,-809.097"/>
<polygon fill="midnightblue" stroke="midnightblue" points="138.735,-431.235 134.067,-421.725 131.785,-432.071 138.735,-431.235"/>
</g>
<!-- Node5 -->
<g id="node9" class="node"><title>Node5</title>
<a xlink:href="../../d7/d68/classmozilla_1_1dom_1_1_canvas_rendering_context2_d.html#aac3fb6f8f88a4ed96ec1b54524ec7f8d" target="_top" xlink:title="mozilla::dom::CanvasRenderingContext2D::GetShadowColor">
<polygon fill="white" stroke="black" points="327,-758.5 327,-779.5 611,-779.5 611,-758.5 327,-758.5"/>
<text text-anchor="middle" x="469" y="-766.5" font-family="Helvetica,sans-Serif" font-size="10.00">mozilla::dom::CanvasRenderingContext2D::GetShadowColor</text>
</a>
</g>
<!-- Node1&#45;&gt;Node5 -->
<g id="edge8" class="edge"><title>Node1&#45;&gt;Node5</title>
<path fill="none" stroke="midnightblue" d="M136.425,-431.759C147.612,-492.326 189.09,-669.551 302,-749 309.642,-754.377 317.983,-758.723 326.728,-762.21"/>
<polygon fill="midnightblue" stroke="midnightblue" points="139.81,-430.8 134.628,-421.559 132.916,-432.015 139.81,-430.8"/>
</g>
<!-- Node6 -->
<g id="node11" class="node"><title>Node6</title>
<a xlink:href="../../d7/d68/classmozilla_1_1dom_1_1_canvas_rendering_context2_d.html#aef4e838b80c55c9c1b56c24a3adfb211" target="_top" xlink:title="mozilla::dom::CanvasRenderingContext2D::GlobalAlpha">
<polygon fill="white" stroke="black" points="338,-718.5 338,-739.5 600,-739.5 600,-718.5 338,-718.5"/>
<text text-anchor="middle" x="469" y="-726.5" font-family="Helvetica,sans-Serif" font-size="10.00">mozilla::dom::CanvasRenderingContext2D::GlobalAlpha</text>
</a>
</g>
<!-- Node1&#45;&gt;Node6 -->
<g id="edge10" class="edge"><title>Node1&#45;&gt;Node6</title>
<path fill="none" stroke="midnightblue" d="M137.796,-431.521C151.949,-487.033 199.153,-640.577 302,-709 312.94,-716.278 325.194,-721.616 337.962,-725.47"/>
<polygon fill="midnightblue" stroke="midnightblue" points="141.119,-430.379 135.334,-421.503 134.322,-432.049 141.119,-430.379"/>
</g>
<!-- Node7 -->
<g id="node13" class="node"><title>Node7</title>
<a xlink:href="../../d7/d68/classmozilla_1_1dom_1_1_canvas_rendering_context2_d.html#ab699f5702d8224c815190532a9d9247e" target="_top" xlink:title="mozilla::dom::CanvasRenderingContext2D::ImageSmoothingEnabled">
<polygon fill="white" stroke="black" points="310,-678.5 310,-699.5 628,-699.5 628,-678.5 310,-678.5"/>
<text text-anchor="middle" x="469" y="-686.5" font-family="Helvetica,sans-Serif" font-size="10.00">mozilla::dom::CanvasRenderingContext2D::ImageSmoothingEnabled</text>
</a>
</g>
<!-- Node1&#45;&gt;Node7 -->
<g id="edge12" class="edge"><title>Node1&#45;&gt;Node7</title>
<path fill="none" stroke="midnightblue" d="M139.587,-431.464C156.954,-481.745 209.152,-611.428 302,-669 307.832,-672.616 314,-675.737 320.394,-678.423"/>
<polygon fill="midnightblue" stroke="midnightblue" points="142.824,-430.105 136.325,-421.738 136.187,-432.332 142.824,-430.105"/>
</g>
<!-- Node8 -->
<g id="node15" class="node"><title>Node8</title>
<a xlink:href="../../d7/d68/classmozilla_1_1dom_1_1_canvas_rendering_context2_d.html#aee08ae20f73b446f03fcdccd72703fb9" target="_top" xlink:title="mozilla::dom::CanvasRenderingContext2D::LineWidth">
<polygon fill="white" stroke="black" points="342.5,-638.5 342.5,-659.5 595.5,-659.5 595.5,-638.5 342.5,-638.5"/>
<text text-anchor="middle" x="469" y="-646.5" font-family="Helvetica,sans-Serif" font-size="10.00">mozilla::dom::CanvasRenderingContext2D::LineWidth</text>
</a>
</g>
<!-- Node1&#45;&gt;Node8 -->
<g id="edge14" class="edge"><title>Node1&#45;&gt;Node8</title>
<path fill="none" stroke="midnightblue" d="M141.638,-430.697C162.169,-474.879 218.497,-581.712 302,-629 314.45,-636.051 328.253,-641.135 342.434,-644.747"/>
<polygon fill="midnightblue" stroke="midnightblue" points="144.816,-429.23 137.496,-421.57 138.442,-432.123 144.816,-429.23"/>
</g>
<!-- Node9 -->
<g id="node17" class="node"><title>Node9</title>
<a xlink:href="../../d7/d68/classmozilla_1_1dom_1_1_canvas_rendering_context2_d.html#ac1c76a52938ab7762e3a5e9a0867b07e" target="_top" xlink:title="mozilla::dom::CanvasRenderingContext2D::MiterLimit">
<polygon fill="white" stroke="black" points="343,-598.5 343,-619.5 595,-619.5 595,-598.5 343,-598.5"/>
<text text-anchor="middle" x="469" y="-606.5" font-family="Helvetica,sans-Serif" font-size="10.00">mozilla::dom::CanvasRenderingContext2D::MiterLimit</text>
</a>
</g>
<!-- Node1&#45;&gt;Node9 -->
<g id="edge16" class="edge"><title>Node1&#45;&gt;Node9</title>
<path fill="none" stroke="midnightblue" d="M144.744,-430.435C168.847,-468.371 227.922,-551.812 302,-589 314.657,-595.354 328.512,-600.018 342.657,-603.405"/>
<polygon fill="midnightblue" stroke="midnightblue" points="147.639,-428.464 139.381,-421.827 141.698,-432.166 147.639,-428.464"/>
</g>
<!-- Node10 -->
<g id="node19" class="node"><title>Node10</title>
<a xlink:href="../../d7/d68/classmozilla_1_1dom_1_1_canvas_rendering_context2_d.html#a5d2ac31344a81b658e99030b79182310" target="_top" xlink:title="mozilla::dom::CanvasRenderingContext2D::MozDashOffset">
<polygon fill="white" stroke="black" points="330,-558.5 330,-579.5 608,-579.5 608,-558.5 330,-558.5"/>
<text text-anchor="middle" x="469" y="-566.5" font-family="Helvetica,sans-Serif" font-size="10.00">mozilla::dom::CanvasRenderingContext2D::MozDashOffset</text>
</a>
</g>
<!-- Node1&#45;&gt;Node10 -->
<g id="edge18" class="edge"><title>Node1&#45;&gt;Node10</title>
<path fill="none" stroke="midnightblue" d="M148.837,-429.443C176.437,-460.177 236.678,-521.23 302,-549 310.868,-552.77 320.225,-555.9 329.797,-558.493"/>
<polygon fill="midnightblue" stroke="midnightblue" points="151.183,-426.812 141.941,-421.631 145.935,-431.444 151.183,-426.812"/>
</g>
<!-- Node11 -->
<g id="node21" class="node"><title>Node11</title>
<a xlink:href="../../d7/d68/classmozilla_1_1dom_1_1_canvas_rendering_context2_d.html#a8b95dfbd7ea002b475f36b2a2a58f8b0" target="_top" xlink:title="mozilla::dom::CanvasRenderingContext2D::NeedToDrawShadow">
<polygon fill="white" stroke="black" points="318,-518.5 318,-539.5 620,-539.5 620,-518.5 318,-518.5"/>
<text text-anchor="middle" x="469" y="-526.5" font-family="Helvetica,sans-Serif" font-size="10.00">mozilla::dom::CanvasRenderingContext2D::NeedToDrawShadow</text>
</a>
</g>
<!-- Node1&#45;&gt;Node11 -->
<g id="edge20" class="edge"><title>Node1&#45;&gt;Node11</title>
<path fill="none" stroke="midnightblue" d="M156.51,-427.497C188.058,-448.774 246.556,-485.267 302,-504 320.469,-510.24 340.612,-514.926 360.313,-518.443"/>
<polygon fill="midnightblue" stroke="midnightblue" points="158.216,-424.423 147.984,-421.672 154.267,-430.203 158.216,-424.423"/>
</g>
<!-- Node12 -->
<g id="node23" class="node"><title>Node12</title>
<a xlink:href="../../d7/d68/classmozilla_1_1dom_1_1_canvas_rendering_context2_d.html#a07186e55f7c7497e6cebd5bb7d27e4b6" target="_top" xlink:title="mozilla::dom::CanvasRenderingContext2D::UsedOperation">
<polygon fill="white" stroke="black" points="677.5,-499.5 677.5,-520.5 952.5,-520.5 952.5,-499.5 677.5,-499.5"/>
<text text-anchor="middle" x="815" y="-507.5" font-family="Helvetica,sans-Serif" font-size="10.00">mozilla::dom::CanvasRenderingContext2D::UsedOperation</text>
</a>
</g>
<!-- Node1&#45;&gt;Node12 -->
<g id="edge48" class="edge"><title>Node1&#45;&gt;Node12</title>
<path fill="none" stroke="midnightblue" d="M165.794,-425.584C199.306,-439.78 253.207,-460.676 302,-471 427.288,-497.509 573.149,-506.558 677.241,-509.389"/>
<polygon fill="midnightblue" stroke="midnightblue" points="167.061,-422.319 156.491,-421.593 164.301,-428.752 167.061,-422.319"/>
</g>
<!-- Node13 -->
<g id="node25" class="node"><title>Node13</title>
<a xlink:href="../../d7/d68/classmozilla_1_1dom_1_1_canvas_rendering_context2_d.html#ace2bbf6a5c977952afc96a8fd70fd356" target="_top" xlink:title="mozilla::dom::CanvasRenderingContext2D::SetGlobalAlpha">
<polygon fill="white" stroke="black" points="330.5,-440.5 330.5,-461.5 607.5,-461.5 607.5,-440.5 330.5,-440.5"/>
<text text-anchor="middle" x="469" y="-448.5" font-family="Helvetica,sans-Serif" font-size="10.00">mozilla::dom::CanvasRenderingContext2D::SetGlobalAlpha</text>
</a>
</g>
<!-- Node1&#45;&gt;Node13 -->
<g id="edge24" class="edge"><title>Node1&#45;&gt;Node13</title>
<path fill="none" stroke="midnightblue" d="M231.23,-422.694C278.53,-428.325 334.802,-435.024 380.727,-440.491"/>
<polygon fill="midnightblue" stroke="midnightblue" points="231.624,-419.216 221.28,-421.51 230.796,-426.167 231.624,-419.216"/>
</g>
<!-- Node14 -->
<g id="node27" class="node"><title>Node14</title>
<a xlink:href="../../d7/d68/classmozilla_1_1dom_1_1_canvas_rendering_context2_d.html#a92f73dcd862f55bfdaf508d46bf190e6" target="_top" xlink:title="mozilla::dom::CanvasRenderingContext2D::SetImageSmoothingEnabled">
<polygon fill="white" stroke="black" points="302.5,-400.5 302.5,-421.5 635.5,-421.5 635.5,-400.5 302.5,-400.5"/>
<text text-anchor="middle" x="469" y="-408.5" font-family="Helvetica,sans-Serif" font-size="10.00">mozilla::dom::CanvasRenderingContext2D::SetImageSmoothingEnabled</text>
</a>
</g>
<!-- Node1&#45;&gt;Node14 -->
<g id="edge26" class="edge"><title>Node1&#45;&gt;Node14</title>
<path fill="none" stroke="midnightblue" d="M275.988,-411C284.71,-411 293.525,-411 302.334,-411"/>
<polygon fill="midnightblue" stroke="midnightblue" points="275.796,-407.5 265.796,-411 275.796,-414.5 275.796,-407.5"/>
</g>
<!-- Node15 -->
<g id="node29" class="node"><title>Node15</title>
<a xlink:href="../../d7/d68/classmozilla_1_1dom_1_1_canvas_rendering_context2_d.html#ab805d707d565d1ed6c13efade3415881" target="_top" xlink:title="mozilla::dom::CanvasRenderingContext2D::SetLineWidth">
<polygon fill="white" stroke="black" points="335,-360.5 335,-381.5 603,-381.5 603,-360.5 335,-360.5"/>
<text text-anchor="middle" x="469" y="-368.5" font-family="Helvetica,sans-Serif" font-size="10.00">mozilla::dom::CanvasRenderingContext2D::SetLineWidth</text>
</a>
</g>
<!-- Node1&#45;&gt;Node15 -->
<g id="edge28" class="edge"><title>Node1&#45;&gt;Node15</title>
<path fill="none" stroke="midnightblue" d="M231.23,-399.306C278.53,-393.675 334.802,-386.976 380.727,-381.509"/>
<polygon fill="midnightblue" stroke="midnightblue" points="230.796,-395.833 221.28,-400.49 231.624,-402.784 230.796,-395.833"/>
</g>
<!-- Node16 -->
<g id="node31" class="node"><title>Node16</title>
<a xlink:href="../../d7/d68/classmozilla_1_1dom_1_1_canvas_rendering_context2_d.html#a150756d6d1e5af44210f32d76fbdf4aa" target="_top" xlink:title="mozilla::dom::CanvasRenderingContext2D::SetMiterLimit">
<polygon fill="white" stroke="black" points="335.5,-320.5 335.5,-341.5 602.5,-341.5 602.5,-320.5 335.5,-320.5"/>
<text text-anchor="middle" x="469" y="-328.5" font-family="Helvetica,sans-Serif" font-size="10.00">mozilla::dom::CanvasRenderingContext2D::SetMiterLimit</text>
</a>
</g>
<!-- Node1&#45;&gt;Node16 -->
<g id="edge30" class="edge"><title>Node1&#45;&gt;Node16</title>
<path fill="none" stroke="midnightblue" d="M166.756,-396.503C200.401,-382.659 253.856,-362.281 302,-351 318.347,-347.169 335.776,-344.051 352.976,-341.517"/>
<polygon fill="midnightblue" stroke="midnightblue" points="165.285,-393.325 157.396,-400.397 167.973,-399.788 165.285,-393.325"/>
</g>
<!-- Node17 -->
<g id="node33" class="node"><title>Node17</title>
<a xlink:href="../../d7/d68/classmozilla_1_1dom_1_1_canvas_rendering_context2_d.html#aeed930b926ff29317712fc31fbc38c14" target="_top" xlink:title="mozilla::dom::CanvasRenderingContext2D::SetShadowBlur">
<polygon fill="white" stroke="black" points="330.5,-280.5 330.5,-301.5 607.5,-301.5 607.5,-280.5 330.5,-280.5"/>
<text text-anchor="middle" x="469" y="-288.5" font-family="Helvetica,sans-Serif" font-size="10.00">mozilla::dom::CanvasRenderingContext2D::SetShadowBlur</text>
</a>
</g>
<!-- Node1&#45;&gt;Node17 -->
<g id="edge32" class="edge"><title>Node1&#45;&gt;Node17</title>
<path fill="none" stroke="midnightblue" d="M154.77,-394.029C185.619,-370.977 244.695,-330.421 302,-311 313.2,-307.204 325.037,-304.109 337.027,-301.587"/>
<polygon fill="midnightblue" stroke="midnightblue" points="152.344,-391.477 146.489,-400.307 156.573,-397.055 152.344,-391.477"/>
</g>
<!-- Node18 -->
<g id="node35" class="node"><title>Node18</title>
<a xlink:href="../../d7/d68/classmozilla_1_1dom_1_1_canvas_rendering_context2_d.html#a3ca0e6c7b0f1b64ee816b3c1830275d2" target="_top" xlink:title="mozilla::dom::CanvasRenderingContext2D::SetShadowOffsetX">
<polygon fill="white" stroke="black" points="322.5,-240.5 322.5,-261.5 615.5,-261.5 615.5,-240.5 322.5,-240.5"/>
<text text-anchor="middle" x="469" y="-248.5" font-family="Helvetica,sans-Serif" font-size="10.00">mozilla::dom::CanvasRenderingContext2D::SetShadowOffsetX</text>
</a>
</g>
<!-- Node1&#45;&gt;Node18 -->
<g id="edge34" class="edge"><title>Node1&#45;&gt;Node18</title>
<path fill="none" stroke="midnightblue" d="M148.776,-392.288C176.287,-361.106 236.397,-299.163 302,-271 310.72,-267.256 319.918,-264.141 329.332,-261.554"/>
<polygon fill="midnightblue" stroke="midnightblue" points="145.811,-390.365 141.904,-400.213 151.1,-394.951 145.811,-390.365"/>
</g>
<!-- Node19 -->
<g id="node37" class="node"><title>Node19</title>
<a xlink:href="../../d7/d68/classmozilla_1_1dom_1_1_canvas_rendering_context2_d.html#a557d76f93f7c3f0dace9f3d27490a8e4" target="_top" xlink:title="mozilla::dom::CanvasRenderingContext2D::SetShadowOffsetY">
<polygon fill="white" stroke="black" points="322.5,-200.5 322.5,-221.5 615.5,-221.5 615.5,-200.5 322.5,-200.5"/>
<text text-anchor="middle" x="469" y="-208.5" font-family="Helvetica,sans-Serif" font-size="10.00">mozilla::dom::CanvasRenderingContext2D::SetShadowOffsetY</text>
</a>
</g>
<!-- Node1&#45;&gt;Node19 -->
<g id="edge36" class="edge"><title>Node1&#45;&gt;Node19</title>
<path fill="none" stroke="midnightblue" d="M144.686,-391.348C168.687,-352.989 227.588,-268.616 302,-231 309.297,-227.311 316.995,-224.19 324.92,-221.557"/>
<polygon fill="midnightblue" stroke="midnightblue" points="141.592,-389.698 139.348,-400.052 147.559,-393.357 141.592,-389.698"/>
</g>
<!-- Node20 -->
<g id="node39" class="node"><title>Node20</title>
<a xlink:href="../../d7/d68/classmozilla_1_1dom_1_1_canvas_rendering_context2_d.html#a4cd8dfb362a642b465070c5e8e20e94b" target="_top" xlink:title="mozilla::dom::CanvasRenderingContext2D::SetStyleFromGradient">
<polygon fill="white" stroke="black" points="316,-160.5 316,-181.5 622,-181.5 622,-160.5 316,-160.5"/>
<text text-anchor="middle" x="469" y="-168.5" font-family="Helvetica,sans-Serif" font-size="10.00">mozilla::dom::CanvasRenderingContext2D::SetStyleFromGradient</text>
</a>
</g>
<!-- Node1&#45;&gt;Node20 -->
<g id="edge38" class="edge"><title>Node1&#45;&gt;Node20</title>
<path fill="none" stroke="midnightblue" d="M141.585,-391.126C162.007,-346.545 218.123,-238.744 302,-191 308.344,-187.389 315.042,-184.292 321.964,-181.644"/>
<polygon fill="midnightblue" stroke="midnightblue" points="138.355,-389.777 137.467,-400.334 144.745,-392.635 138.355,-389.777"/>
</g>
<!-- Node21 -->
<g id="node41" class="node"><title>Node21</title>
<a xlink:href="../../d7/d68/classmozilla_1_1dom_1_1_canvas_rendering_context2_d.html#ad4fab91982aed6a5400809de553aeae0" target="_top" xlink:title="mozilla::dom::CanvasRenderingContext2D::SetStyleFromPattern">
<polygon fill="white" stroke="black" points="318.5,-120.5 318.5,-141.5 619.5,-141.5 619.5,-120.5 318.5,-120.5"/>
<text text-anchor="middle" x="469" y="-128.5" font-family="Helvetica,sans-Serif" font-size="10.00">mozilla::dom::CanvasRenderingContext2D::SetStyleFromPattern</text>
</a>
</g>
<!-- Node1&#45;&gt;Node21 -->
<g id="edge40" class="edge"><title>Node1&#45;&gt;Node21</title>
<path fill="none" stroke="midnightblue" d="M139.42,-390.727C156.554,-340.316 208.537,-209.182 302,-151 307.826,-147.374 313.989,-144.244 320.379,-141.552"/>
<polygon fill="midnightblue" stroke="midnightblue" points="136.019,-389.866 136.209,-400.46 142.666,-392.06 136.019,-389.866"/>
</g>
<!-- Node22 -->
<g id="node43" class="node"><title>Node22</title>
<a xlink:href="../../d7/d68/classmozilla_1_1dom_1_1_canvas_rendering_context2_d.html#a0de77ef25dff7661230e751eb7eac3cc" target="_top" xlink:title="mozilla::dom::CanvasRenderingContext2D::ShadowBlur">
<polygon fill="white" stroke="black" points="338,-80.5 338,-101.5 600,-101.5 600,-80.5 338,-80.5"/>
<text text-anchor="middle" x="469" y="-88.5" font-family="Helvetica,sans-Serif" font-size="10.00">mozilla::dom::CanvasRenderingContext2D::ShadowBlur</text>
</a>
</g>
<!-- Node1&#45;&gt;Node22 -->
<g id="edge42" class="edge"><title>Node1&#45;&gt;Node22</title>
<path fill="none" stroke="midnightblue" d="M137.663,-390.694C151.593,-335.116 198.514,-180.063 302,-111 312.93,-103.706 325.177,-98.3582 337.941,-94.4979"/>
<polygon fill="midnightblue" stroke="midnightblue" points="134.258,-389.886 135.31,-400.429 141.062,-391.531 134.258,-389.886"/>
</g>
<!-- Node23 -->
<g id="node45" class="node"><title>Node23</title>
<a xlink:href="../../d7/d68/classmozilla_1_1dom_1_1_canvas_rendering_context2_d.html#a2f73fa316a8a6997cc6014fa04c18c06" target="_top" xlink:title="mozilla::dom::CanvasRenderingContext2D::ShadowOffsetX">
<polygon fill="white" stroke="black" points="330,-40.5 330,-61.5 608,-61.5 608,-40.5 330,-40.5"/>
<text text-anchor="middle" x="469" y="-48.5" font-family="Helvetica,sans-Serif" font-size="10.00">mozilla::dom::CanvasRenderingContext2D::ShadowOffsetX</text>
</a>
</g>
<!-- Node1&#45;&gt;Node23 -->
<g id="edge44" class="edge"><title>Node1&#45;&gt;Node23</title>
<path fill="none" stroke="midnightblue" d="M136.314,-390.501C147.284,-329.948 188.413,-151.125 302,-71 310.471,-65.0247 319.803,-60.322 329.596,-56.6539"/>
<polygon fill="midnightblue" stroke="midnightblue" points="132.861,-389.93 134.606,-400.38 139.758,-391.123 132.861,-389.93"/>
</g>
<!-- Node24 -->
<g id="node47" class="node"><title>Node24</title>
<a xlink:href="../../d7/d68/classmozilla_1_1dom_1_1_canvas_rendering_context2_d.html#aa846e1f02a00c301fc6c7fd2f845b7cc" target="_top" xlink:title="mozilla::dom::CanvasRenderingContext2D::ShadowOffsetY">
<polygon fill="white" stroke="black" points="330,-0.5 330,-21.5 608,-21.5 608,-0.5 330,-0.5"/>
<text text-anchor="middle" x="469" y="-8.5" font-family="Helvetica,sans-Serif" font-size="10.00">mozilla::dom::CanvasRenderingContext2D::ShadowOffsetY</text>
</a>
</g>
<!-- Node1&#45;&gt;Node24 -->
<g id="edge46" class="edge"><title>Node1&#45;&gt;Node24</title>
<path fill="none" stroke="midnightblue" d="M135.26,-389.916C143.525,-324.225 178.415,-122.203 302,-31 310.458,-24.758 319.84,-19.8761 329.719,-16.0952"/>
<polygon fill="midnightblue" stroke="midnightblue" points="131.741,-389.88 134.046,-400.22 138.692,-390.699 131.741,-389.88"/>
</g>
<!-- Node3 -->
<g id="node5" class="node"><title>Node3</title>
<a xlink:href="../../d7/d68/classmozilla_1_1dom_1_1_canvas_rendering_context2_d.html#afe00a5f3540ff1e601b47b10763c0282" target="_top" xlink:title="mozilla::dom::CanvasRenderingContext2D::GetMozTextStyle">
<polygon fill="white" stroke="black" points="672,-818.5 672,-839.5 958,-839.5 958,-818.5 672,-818.5"/>
<text text-anchor="middle" x="815" y="-826.5" font-family="Helvetica,sans-Serif" font-size="10.00">mozilla::dom::CanvasRenderingContext2D::GetMozTextStyle</text>
</a>
</g>
<!-- Node2&#45;&gt;Node3 -->
<g id="edge4" class="edge"><title>Node2&#45;&gt;Node3</title>
<path fill="none" stroke="midnightblue" d="M602.027,-816.689C624.859,-818.009 648.674,-819.386 671.759,-820.72"/>
<polygon fill="midnightblue" stroke="midnightblue" points="602.146,-813.191 591.961,-816.108 601.742,-820.179 602.146,-813.191"/>
</g>
<!-- Node4 -->
<g id="node7" class="node"><title>Node4</title>
<a xlink:href="../../d7/d68/classmozilla_1_1dom_1_1_canvas_rendering_context2_d.html#ab6b906e2a753ff1fc84e53bc790136f6" target="_top" xlink:title="mozilla::dom::CanvasRenderingContext2D::GetFont">
<polygon fill="white" stroke="black" points="692.5,-778.5 692.5,-799.5 937.5,-799.5 937.5,-778.5 692.5,-778.5"/>
<text text-anchor="middle" x="815" y="-786.5" font-family="Helvetica,sans-Serif" font-size="10.00">mozilla::dom::CanvasRenderingContext2D::GetFont</text>
</a>
</g>
<!-- Node2&#45;&gt;Node4 -->
<g id="edge6" class="edge"><title>Node2&#45;&gt;Node4</title>
<path fill="none" stroke="midnightblue" d="M601.978,-801.313C631.722,-799.594 663.136,-797.778 692.435,-796.085"/>
<polygon fill="midnightblue" stroke="midnightblue" points="601.742,-797.821 591.961,-801.892 602.146,-804.809 601.742,-797.821"/>
</g>
<!-- Node11&#45;&gt;Node12 -->
<g id="edge22" class="edge"><title>Node11&#45;&gt;Node12</title>
<path fill="none" stroke="midnightblue" d="M630.336,-520.141C646.092,-519.275 661.977,-518.403 677.467,-517.552"/>
<polygon fill="midnightblue" stroke="midnightblue" points="629.799,-516.665 620.006,-520.708 630.183,-523.654 629.799,-516.665"/>
</g>
</g>
</svg>
        <g id="navigator" transform="translate(0 0)" fill="#404254">
                <rect fill="#f2f5e9" fill-opacity="0.5" stroke="#606060" stroke-width=".5" x="0" y="0" width="60" height="60"/>
                <use id="zoomplus" xlink:href="#zoomPlus" x="17" y="9" onmousedown="handleZoom(evt,'in')"/>
                <use id="zoomminus" xlink:href="#zoomMin" x="42" y="9" onmousedown="handleZoom(evt,'out')"/>
                <use id="reset" xlink:href="#resetDef" x="30" y="36" onmousedown="handleReset()"/>
                <g id="arrowUp" xlink:href="#dirArrow" transform="translate(30 24)" onmousedown="handlePan(0,-1)">
                  <use xlink:href="#rim" fill="#404040">
                        <set attributeName="fill" to="#808080" begin="arrowUp.mouseover" end="arrowUp.mouseout"/>
                  </use>
                  <path fill="none" stroke="white" stroke-width="1.5" d="M0,-3.0v7 M-2.5,-0.5L0,-3.0L2.5,-0.5"/>
                </g>
                <g id="arrowRight" xlink:href="#dirArrow" transform="rotate(90) translate(36 -43)" onmousedown="handlePan(1,0)">
                  <use xlink:href="#rim" fill="#404040">
                        <set attributeName="fill" to="#808080" begin="arrowRight.mouseover" end="arrowRight.mouseout"/>
                  </use>
                  <path fill="none" stroke="white" stroke-width="1.5" d="M0,-3.0v7 M-2.5,-0.5L0,-3.0L2.5,-0.5"/>
                </g>
                <g id="arrowDown" xlink:href="#dirArrow" transform="rotate(180) translate(-30 -48)" onmousedown="handlePan(0,1)">
                  <use xlink:href="#rim" fill="#404040">
                        <set attributeName="fill" to="#808080" begin="arrowDown.mouseover" end="arrowDown.mouseout"/>
                  </use>
                  <path fill="none" stroke="white" stroke-width="1.5" d="M0,-3.0v7 M-2.5,-0.5L0,-3.0L2.5,-0.5"/>
                </g>
                <g id="arrowLeft" xlink:href="#dirArrow" transform="rotate(270) translate(-36 17)" onmousedown="handlePan(-1,0)">
                  <use xlink:href="#rim" fill="#404040">
                        <set attributeName="fill" to="#808080" begin="arrowLeft.mouseover" end="arrowLeft.mouseout"/>
                  </use>
                  <path fill="none" stroke="white" stroke-width="1.5" d="M0,-3.0v7 M-2.5,-0.5L0,-3.0L2.5,-0.5"/>
                </g>
        </g>
</svg>
