<?xml version="1.0" encoding="UTF-8" standalone="no"?>
<!DOCTYPE svg PUBLIC "-//W3C//DTD SVG 1.1//EN"
 "http://www.w3.org/Graphics/SVG/1.1/DTD/svg11.dtd">
<!-- Generated by graphviz version 2.26.3 (20100126.1600)
 -->
<!-- Title: G Pages: 1 -->
<svg width="366pt" height="70pt"
 viewBox="0.00 0.00 366.00 70.00" xmlns="http://www.w3.org/2000/svg" xmlns:xlink="http://www.w3.org/1999/xlink">
<g id="graph1" class="graph" transform="scale(1 1) rotate(0) translate(4 66)">
<title>G</title>
<polygon fill="white" stroke="white" points="-4,5 -4,-66 363,-66 363,5 -4,5"/>
<!-- Node1 -->
<g id="node1" class="node"><title>Node1</title>
<polygon fill="#bfbfbf" stroke="black" points="0,-20.5 0,-41.5 110,-41.5 110,-20.5 0,-20.5"/>
<text text-anchor="middle" x="55" y="-28.5" font-family="Helvetica,sans-Serif" font-size="10.00">nsIContent::DoGetID</text>
</g>
<!-- Node2 -->
<g id="node3" class="node"><title>Node2</title>
<a xlink:href="../../d7/d68/classns_i_content.html#af00099293433ef2ce37bf343fa872226" target="_top" xlink:title="nsIContent::GetID">
<polygon fill="white" stroke="black" points="203.5,-40.5 203.5,-61.5 300.5,-61.5 300.5,-40.5 203.5,-40.5"/>
<text text-anchor="middle" x="252" y="-48.5" font-family="Helvetica,sans-Serif" font-size="10.00">nsIContent::GetID</text>
</a>
</g>
<!-- Node1&#45;&gt;Node2 -->
<g id="edge2" class="edge"><title>Node1&#45;&gt;Node2</title>
<path fill="none" stroke="midnightblue" d="M120.305,-37.6299C147.368,-40.3775 178.218,-43.5095 203.253,-46.0511"/>
<polygon fill="midnightblue" stroke="midnightblue" points="120.44,-34.1257 110.137,-36.5977 119.733,-41.0899 120.44,-34.1257"/>
</g>
<!-- Node3 -->
<g id="node5" class="node"><title>Node3</title>
<a xlink:href="../../de/da4/classmozilla_1_1dom_1_1_element.html#a734989f9e4f7dc37d459bd9e8456a324" target="_top" xlink:title="mozilla::dom::Element::RemoveFromIdTable">
<polygon fill="white" stroke="black" points="146,-0.5 146,-21.5 358,-21.5 358,-0.5 146,-0.5"/>
<text text-anchor="middle" x="252" y="-8.5" font-family="Helvetica,sans-Serif" font-size="10.00">mozilla::dom::Element::RemoveFromIdTable</text>
</a>
</g>
<!-- Node1&#45;&gt;Node3 -->
<g id="edge4" class="edge"><title>Node1&#45;&gt;Node3</title>
<path fill="none" stroke="midnightblue" d="M120.161,-24.3846C129.217,-23.4653 138.699,-22.5027 148.246,-21.5334"/>
<polygon fill="midnightblue" stroke="midnightblue" points="119.733,-20.9101 110.137,-25.4023 120.44,-27.8743 119.733,-20.9101"/>
</g>
</g>
</svg>
