<?xml version="1.0" encoding="UTF-8" standalone="no"?>
<!DOCTYPE svg PUBLIC "-//W3C//DTD SVG 1.1//EN"
 "http://www.w3.org/Graphics/SVG/1.1/DTD/svg11.dtd">
<!-- Generated by graphviz version 2.26.3 (20100126.1600)
 -->
<!-- Title: G Pages: 1 -->
<!--zoomable 150 -->
<svg id="main" version="1.1" xmlns="http://www.w3.org/2000/svg" xmlns:xlink="http://www.w3.org/1999/xlink" xml:space="preserve" onload="init(evt)">
        <defs>
                <circle id="rim" cx="0" cy="0" r="7"/>
                <circle id="rim2" cx="0" cy="0" r="3.5"/>
                <g id="zoomPlus">
                        <use xlink:href="#rim" fill="#404040">
                                <set attributeName="fill" to="#808080" begin="zoomplus.mouseover" end="zoomplus.mouseout"/>
                        </use>
                        <path d="M-4,0h8M0,-4v8" fill="none" stroke="white" stroke-width="1.5" pointer-events="none"/>
                </g>
                <g id="zoomMin">
                        <use xlink:href="#rim" fill="#404040">
                                <set attributeName="fill" to="#808080" begin="zoomminus.mouseover" end="zoomminus.mouseout"/>
                        </use>
                        <path d="M-4,0h8" fill="none" stroke="white" stroke-width="1.5" pointer-events="none"/>
                </g>
                <g id="dirArrow">
                        <path fill="none" stroke="white" stroke-width="1.5" d="M0,-3.0v7 M-2.5,-0.5L0,-3.0L2.5,-0.5"/>
                </g>
               <g id="resetDef">
                       <use xlink:href="#rim2" fill="#404040">
                               <set attributeName="fill" to="#808080" begin="reset.mouseover" end="reset.mouseout"/>
                       </use>
               </g>
        </defs>

<script type="text/javascript">
var viewWidth = 506;
var viewHeight = 150;
var sectionId = 'dynsection-15';
</script>
<script xlink:href="../../svgpan.js"/>
<svg id="graph" class="graph">
<g id="viewport">
<title>G</title>
<polygon fill="white" stroke="white" points="-4,5 -4,-146 503,-146 503,5 -4,5"/>
<!-- Node1 -->
<g id="node1" class="node"><title>Node1</title>
<polygon fill="#bfbfbf" stroke="black" points="0,-60.5 0,-81.5 140,-81.5 140,-60.5 0,-60.5"/>
<text text-anchor="middle" x="70" y="-68.5" font-family="Helvetica,sans-Serif" font-size="10.00">nsIContent::IsInNamespace</text>
</g>
<!-- Node2 -->
<g id="node3" class="node"><title>Node2</title>
<a xlink:href="../../d7/d68/classns_i_content.html#a0139419acbed61a45db3243148c9c5a0" target="_top" xlink:title="nsIContent::IsHTML">
<polygon fill="white" stroke="black" points="180,-120.5 180,-141.5 286,-141.5 286,-120.5 180,-120.5"/>
<text text-anchor="middle" x="233" y="-128.5" font-family="Helvetica,sans-Serif" font-size="10.00">nsIContent::IsHTML</text>
</a>
</g>
<!-- Node1&#45;&gt;Node2 -->
<g id="edge2" class="edge"><title>Node1&#45;&gt;Node2</title>
<path fill="none" stroke="midnightblue" d="M106.905,-85.1683C127.244,-92.9159 152.969,-102.615 176,-111 184.573,-114.121 193.903,-117.431 202.484,-120.44"/>
<polygon fill="midnightblue" stroke="midnightblue" points="107.979,-81.832 97.388,-81.5361 105.483,-88.3719 107.979,-81.832"/>
</g>
<!-- Node4 -->
<g id="node7" class="node"><title>Node4</title>
<a xlink:href="../../d7/d68/classns_i_content.html#a01a975a579c9ae27fc448e549543b3a6" target="_top" xlink:title="nsIContent::IsMathML">
<polygon fill="white" stroke="black" points="176,-80.5 176,-101.5 290,-101.5 290,-80.5 176,-80.5"/>
<text text-anchor="middle" x="233" y="-88.5" font-family="Helvetica,sans-Serif" font-size="10.00">nsIContent::IsMathML</text>
</a>
</g>
<!-- Node1&#45;&gt;Node4 -->
<g id="edge6" class="edge"><title>Node1&#45;&gt;Node4</title>
<path fill="none" stroke="midnightblue" d="M150.249,-80.8465C158.945,-81.9135 167.66,-82.9828 175.998,-84.0058"/>
<polygon fill="midnightblue" stroke="midnightblue" points="150.424,-77.3419 140.073,-79.5979 149.572,-84.2898 150.424,-77.3419"/>
</g>
<!-- Node5 -->
<g id="node9" class="node"><title>Node5</title>
<a xlink:href="../../d7/d68/classns_i_content.html#af7c5ec7b557f0f6d78a96bd7d498ea39" target="_top" xlink:title="nsIContent::IsSVG">
<polygon fill="white" stroke="black" points="183,-40.5 183,-61.5 283,-61.5 283,-40.5 183,-40.5"/>
<text text-anchor="middle" x="233" y="-48.5" font-family="Helvetica,sans-Serif" font-size="10.00">nsIContent::IsSVG</text>
</a>
</g>
<!-- Node1&#45;&gt;Node5 -->
<g id="edge8" class="edge"><title>Node1&#45;&gt;Node5</title>
<path fill="none" stroke="midnightblue" d="M150.2,-61.1596C161.262,-59.8022 172.356,-58.4409 182.667,-57.1758"/>
<polygon fill="midnightblue" stroke="midnightblue" points="149.572,-57.7102 140.073,-62.4021 150.424,-64.6581 149.572,-57.7102"/>
</g>
<!-- Node6 -->
<g id="node11" class="node"><title>Node6</title>
<a xlink:href="../../d7/d68/classns_i_content.html#a4114a35d22d93ef09e39fc87c1b80ddb" target="_top" xlink:title="nsIContent::IsXUL">
<polygon fill="white" stroke="black" points="184,-0.5 184,-21.5 282,-21.5 282,-0.5 184,-0.5"/>
<text text-anchor="middle" x="233" y="-8.5" font-family="Helvetica,sans-Serif" font-size="10.00">nsIContent::IsXUL</text>
</a>
</g>
<!-- Node1&#45;&gt;Node6 -->
<g id="edge10" class="edge"><title>Node1&#45;&gt;Node6</title>
<path fill="none" stroke="midnightblue" d="M106.905,-56.8317C127.244,-49.0841 152.969,-39.3848 176,-31 184.573,-27.8787 193.903,-24.5691 202.484,-21.5596"/>
<polygon fill="midnightblue" stroke="midnightblue" points="105.483,-53.6281 97.388,-60.4639 107.979,-60.168 105.483,-53.6281"/>
</g>
<!-- Node3 -->
<g id="node5" class="node"><title>Node3</title>
<a xlink:href="../../de/da4/classmozilla_1_1dom_1_1_element.html#adbe5718d3962acb1ef5806077085e799" target="_top" xlink:title="mozilla::dom::Element::HasDirAuto">
<polygon fill="white" stroke="black" points="326.5,-120.5 326.5,-141.5 497.5,-141.5 497.5,-120.5 326.5,-120.5"/>
<text text-anchor="middle" x="412" y="-128.5" font-family="Helvetica,sans-Serif" font-size="10.00">mozilla::dom::Element::HasDirAuto</text>
</a>
</g>
<!-- Node2&#45;&gt;Node3 -->
<g id="edge4" class="edge"><title>Node2&#45;&gt;Node3</title>
<path fill="none" stroke="midnightblue" d="M296.236,-131C306.027,-131 316.279,-131 326.462,-131"/>
<polygon fill="midnightblue" stroke="midnightblue" points="296.221,-127.5 286.221,-131 296.221,-134.5 296.221,-127.5"/>
</g>
</g>
</svg>
        <g id="navigator" transform="translate(0 0)" fill="#404254">
                <rect fill="#f2f5e9" fill-opacity="0.5" stroke="#606060" stroke-width=".5" x="0" y="0" width="60" height="60"/>
                <use id="zoomplus" xlink:href="#zoomPlus" x="17" y="9" onmousedown="handleZoom(evt,'in')"/>
                <use id="zoomminus" xlink:href="#zoomMin" x="42" y="9" onmousedown="handleZoom(evt,'out')"/>
                <use id="reset" xlink:href="#resetDef" x="30" y="36" onmousedown="handleReset()"/>
                <g id="arrowUp" xlink:href="#dirArrow" transform="translate(30 24)" onmousedown="handlePan(0,-1)">
                  <use xlink:href="#rim" fill="#404040">
                        <set attributeName="fill" to="#808080" begin="arrowUp.mouseover" end="arrowUp.mouseout"/>
                  </use>
                  <path fill="none" stroke="white" stroke-width="1.5" d="M0,-3.0v7 M-2.5,-0.5L0,-3.0L2.5,-0.5"/>
                </g>
                <g id="arrowRight" xlink:href="#dirArrow" transform="rotate(90) translate(36 -43)" onmousedown="handlePan(1,0)">
                  <use xlink:href="#rim" fill="#404040">
                        <set attributeName="fill" to="#808080" begin="arrowRight.mouseover" end="arrowRight.mouseout"/>
                  </use>
                  <path fill="none" stroke="white" stroke-width="1.5" d="M0,-3.0v7 M-2.5,-0.5L0,-3.0L2.5,-0.5"/>
                </g>
                <g id="arrowDown" xlink:href="#dirArrow" transform="rotate(180) translate(-30 -48)" onmousedown="handlePan(0,1)">
                  <use xlink:href="#rim" fill="#404040">
                        <set attributeName="fill" to="#808080" begin="arrowDown.mouseover" end="arrowDown.mouseout"/>
                  </use>
                  <path fill="none" stroke="white" stroke-width="1.5" d="M0,-3.0v7 M-2.5,-0.5L0,-3.0L2.5,-0.5"/>
                </g>
                <g id="arrowLeft" xlink:href="#dirArrow" transform="rotate(270) translate(-36 17)" onmousedown="handlePan(-1,0)">
                  <use xlink:href="#rim" fill="#404040">
                        <set attributeName="fill" to="#808080" begin="arrowLeft.mouseover" end="arrowLeft.mouseout"/>
                  </use>
                  <path fill="none" stroke="white" stroke-width="1.5" d="M0,-3.0v7 M-2.5,-0.5L0,-3.0L2.5,-0.5"/>
                </g>
        </g>
</svg>
