<?xml version="1.0" encoding="UTF-8" standalone="no"?>
<!DOCTYPE svg PUBLIC "-//W3C//DTD SVG 1.1//EN"
 "http://www.w3.org/Graphics/SVG/1.1/DTD/svg11.dtd">
<!-- Generated by graphviz version 2.26.3 (20100126.1600)
 -->
<!-- Title: G Pages: 1 -->
<svg width="152pt" height="88pt"
 viewBox="0.00 0.00 152.00 88.00" xmlns="http://www.w3.org/2000/svg" xmlns:xlink="http://www.w3.org/1999/xlink">
<g id="graph1" class="graph" transform="scale(1 1) rotate(0) translate(4 84)">
<title>G</title>
<polygon fill="white" stroke="white" points="-4,5 -4,-84 149,-84 149,5 -4,5"/>
<!-- Node1 -->
<g id="node1" class="node"><title>Node1</title>
<polygon fill="#bfbfbf" stroke="black" points="52,-58.5 52,-79.5 98,-79.5 98,-58.5 52,-58.5"/>
<text text-anchor="middle" x="75" y="-66.5" font-family="Helvetica,sans-Serif" font-size="10.00">table.h</text>
</g>
<!-- Node2 -->
<g id="node3" class="node"><title>Node2</title>
<a xlink:href="../../d0/d91/b2g-info_8cpp.html" target="_top" xlink:title="b2g&#45;info.cpp">
<polygon fill="white" stroke="black" points="0,-0.5 0,-21.5 70,-21.5 70,-0.5 0,-0.5"/>
<text text-anchor="middle" x="35" y="-8.5" font-family="Helvetica,sans-Serif" font-size="10.00">b2g&#45;info.cpp</text>
</a>
</g>
<!-- Node1&#45;&gt;Node2 -->
<g id="edge2" class="edge"><title>Node1&#45;&gt;Node2</title>
<path fill="none" stroke="midnightblue" d="M61.8683,-49.9591C55.36,-40.522 47.7472,-29.4835 42.2901,-21.5707"/>
<polygon fill="midnightblue" stroke="midnightblue" points="59.1048,-52.1168 67.6634,-58.3619 64.8673,-48.1427 59.1048,-52.1168"/>
</g>
<!-- Node3 -->
<g id="node5" class="node"><title>Node3</title>
<a xlink:href="../../d6/dd0/table_8cpp.html" target="_top" xlink:title="table.cpp">
<polygon fill="white" stroke="black" points="88,-0.5 88,-21.5 144,-21.5 144,-0.5 88,-0.5"/>
<text text-anchor="middle" x="116" y="-8.5" font-family="Helvetica,sans-Serif" font-size="10.00">table.cpp</text>
</a>
</g>
<!-- Node1&#45;&gt;Node3 -->
<g id="edge4" class="edge"><title>Node1&#45;&gt;Node3</title>
<path fill="none" stroke="midnightblue" d="M88.46,-49.9591C95.131,-40.522 102.934,-29.4835 108.528,-21.5707"/>
<polygon fill="midnightblue" stroke="midnightblue" points="85.4344,-48.1758 82.52,-58.3619 91.1505,-52.2165 85.4344,-48.1758"/>
</g>
</g>
</svg>
