<?xml version="1.0" encoding="UTF-8" standalone="no"?>
<!DOCTYPE svg PUBLIC "-//W3C//DTD SVG 1.1//EN"
 "http://www.w3.org/Graphics/SVG/1.1/DTD/svg11.dtd">
<!-- Generated by graphviz version 2.26.3 (20100126.1600)
 -->
<!-- Title: G Pages: 1 -->
<svg width="354pt" height="70pt"
 viewBox="0.00 0.00 354.00 70.00" xmlns="http://www.w3.org/2000/svg" xmlns:xlink="http://www.w3.org/1999/xlink">
<g id="graph1" class="graph" transform="scale(1 1) rotate(0) translate(4 66)">
<title>G</title>
<polygon fill="white" stroke="white" points="-4,5 -4,-66 351,-66 351,5 -4,5"/>
<!-- Node1 -->
<g id="node1" class="node"><title>Node1</title>
<polygon fill="#bfbfbf" stroke="black" points="0,-20.5 0,-41.5 158,-41.5 158,-20.5 0,-20.5"/>
<text text-anchor="middle" x="79" y="-28.5" font-family="Helvetica,sans-Serif" font-size="10.00">StructuredCloneReadInfo::Swap</text>
</g>
<!-- Node2 -->
<g id="node3" class="node"><title>Node2</title>
<a xlink:href="../../d0/d92/_indexed_database_8h.html#a034865ba3bff7b31c6c682f2e621ad46" target="_top" xlink:title="SwapData">
<polygon fill="white" stroke="black" points="239,-40.5 239,-61.5 301,-61.5 301,-40.5 239,-40.5"/>
<text text-anchor="middle" x="270" y="-48.5" font-family="Helvetica,sans-Serif" font-size="10.00">SwapData</text>
</a>
</g>
<!-- Node1&#45;&gt;Node2 -->
<g id="edge2" class="edge"><title>Node1&#45;&gt;Node2</title>
<path fill="none" stroke="midnightblue" d="M158.066,-39.2791C182.297,-41.8164 207.984,-44.5062 228.631,-46.6681"/>
<polygon fill="midnightblue" stroke="midnightblue" points="228.322,-50.1549 238.632,-47.7154 229.051,-43.1929 228.322,-50.1549"/>
</g>
<!-- Node3 -->
<g id="node5" class="node"><title>Node3</title>
<a xlink:href="../../d4/dd8/classns_t_array___impl.html#aed7dab91ad9f28a213504c6a2af25111" target="_top" xlink:title="nsTArray_Impl::SwapElements">
<polygon fill="white" stroke="black" points="194,-0.5 194,-21.5 346,-21.5 346,-0.5 194,-0.5"/>
<text text-anchor="middle" x="270" y="-8.5" font-family="Helvetica,sans-Serif" font-size="10.00">nsTArray_Impl::SwapElements</text>
</a>
</g>
<!-- Node1&#45;&gt;Node3 -->
<g id="edge4" class="edge"><title>Node1&#45;&gt;Node3</title>
<path fill="none" stroke="midnightblue" d="M158.066,-22.7209C166.549,-21.8326 175.21,-20.9257 183.771,-20.0293"/>
<polygon fill="midnightblue" stroke="midnightblue" points="184.176,-23.506 193.758,-18.9835 183.447,-16.5441 184.176,-23.506"/>
</g>
</g>
</svg>
