<?xml version="1.0" encoding="UTF-8" standalone="no"?>
<!DOCTYPE svg PUBLIC "-//W3C//DTD SVG 1.1//EN"
 "http://www.w3.org/Graphics/SVG/1.1/DTD/svg11.dtd">
<!-- Generated by graphviz version 2.26.3 (20100126.1600)
 -->
<!-- Title: G Pages: 1 -->
<!--zoomable 320 -->
<svg id="main" version="1.1" xmlns="http://www.w3.org/2000/svg" xmlns:xlink="http://www.w3.org/1999/xlink" xml:space="preserve" onload="init(evt)">
        <defs>
                <circle id="rim" cx="0" cy="0" r="7"/>
                <circle id="rim2" cx="0" cy="0" r="3.5"/>
                <g id="zoomPlus">
                        <use xlink:href="#rim" fill="#404040">
                                <set attributeName="fill" to="#808080" begin="zoomplus.mouseover" end="zoomplus.mouseout"/>
                        </use>
                        <path d="M-4,0h8M0,-4v8" fill="none" stroke="white" stroke-width="1.5" pointer-events="none"/>
                </g>
                <g id="zoomMin">
                        <use xlink:href="#rim" fill="#404040">
                                <set attributeName="fill" to="#808080" begin="zoomminus.mouseover" end="zoomminus.mouseout"/>
                        </use>
                        <path d="M-4,0h8" fill="none" stroke="white" stroke-width="1.5" pointer-events="none"/>
                </g>
                <g id="dirArrow">
                        <path fill="none" stroke="white" stroke-width="1.5" d="M0,-3.0v7 M-2.5,-0.5L0,-3.0L2.5,-0.5"/>
                </g>
               <g id="resetDef">
                       <use xlink:href="#rim2" fill="#404040">
                               <set attributeName="fill" to="#808080" begin="reset.mouseover" end="reset.mouseout"/>
                       </use>
               </g>
        </defs>

<script type="text/javascript">
var viewWidth = 2930;
var viewHeight = 320;
var sectionId = 'dynsection-1';
</script>
<script xlink:href="../../svgpan.js"/>
<svg id="graph" class="graph">
<g id="viewport">
<title>G</title>
<polygon fill="white" stroke="white" points="-4,5 -4,-316 2926.75,-316 2926.75,5 -4,5"/>
<!-- Node1 -->
<g id="node1" class="node"><title>Node1</title>
<polygon fill="#bfbfbf" stroke="black" points="287.746,-290.5 287.746,-311.5 701.746,-311.5 701.746,-290.5 287.746,-290.5"/>
<text text-anchor="middle" x="494.746" y="-298.5" font-family="Helvetica,sans-Serif" font-size="10.00">/home/aoi/Documents/FxOS/B2G/gaia/xulrunner&#45;sdk/include/mozIStorageBaseStatement.h</text>
</g>
<!-- Node2 -->
<g id="node3" class="node"><title>Node2</title>
<a xlink:href="../../dc/dcd/moz_i_storage_async_statement_8h.html" target="_top" xlink:title="/home/aoi/Documents/FxOS/B2G/gaia/xulrunner&#45;sdk/include/mozIStorageAsyncStatement.h">
<polygon fill="white" stroke="black" points="21.2457,-232.5 21.2457,-253.5 440.246,-253.5 440.246,-232.5 21.2457,-232.5"/>
<text text-anchor="middle" x="230.746" y="-240.5" font-family="Helvetica,sans-Serif" font-size="10.00">/home/aoi/Documents/FxOS/B2G/gaia/xulrunner&#45;sdk/include/mozIStorageAsyncStatement.h</text>
</a>
</g>
<!-- Node1&#45;&gt;Node2 -->
<g id="edge2" class="edge"><title>Node1&#45;&gt;Node2</title>
<path fill="none" stroke="midnightblue" d="M437.117,-288.339C389.673,-277.916 323.203,-263.313 278.644,-253.523"/>
<polygon fill="midnightblue" stroke="midnightblue" points="436.419,-291.769 446.937,-290.497 437.921,-284.932 436.419,-291.769"/>
</g>
<!-- Node7 -->
<g id="node15" class="node"><title>Node7</title>
<a xlink:href="../../db/d92/moz_i_storage_statement_8h.html" target="_top" xlink:title="/home/aoi/Documents/FxOS/B2G/gaia/xulrunner&#45;sdk/include/mozIStorageStatement.h">
<polygon fill="white" stroke="black" points="563.746,-232.5 563.746,-253.5 955.746,-253.5 955.746,-232.5 563.746,-232.5"/>
<text text-anchor="middle" x="759.746" y="-240.5" font-family="Helvetica,sans-Serif" font-size="10.00">/home/aoi/Documents/FxOS/B2G/gaia/xulrunner&#45;sdk/include/mozIStorageStatement.h</text>
</a>
</g>
<!-- Node1&#45;&gt;Node7 -->
<g id="edge16" class="edge"><title>Node1&#45;&gt;Node7</title>
<path fill="none" stroke="midnightblue" d="M552.593,-288.339C600.216,-277.916 666.938,-263.313 711.666,-253.523"/>
<polygon fill="midnightblue" stroke="midnightblue" points="551.756,-284.939 542.735,-290.497 553.252,-291.778 551.756,-284.939"/>
</g>
<!-- Node3 -->
<g id="node5" class="node"><title>Node3</title>
<a xlink:href="../../df/d46/_statement_cache_8h.html" target="_top" xlink:title="/home/aoi/Documents/FxOS/B2G/gaia/xulrunner&#45;sdk/include/mozilla/storage/StatementCache.h">
<polygon fill="white" stroke="black" points="13.7457,-174.5 13.7457,-195.5 447.746,-195.5 447.746,-174.5 13.7457,-174.5"/>
<text text-anchor="middle" x="230.746" y="-182.5" font-family="Helvetica,sans-Serif" font-size="10.00">/home/aoi/Documents/FxOS/B2G/gaia/xulrunner&#45;sdk/include/mozilla/storage/StatementCache.h</text>
</a>
</g>
<!-- Node2&#45;&gt;Node3 -->
<g id="edge4" class="edge"><title>Node2&#45;&gt;Node3</title>
<path fill="none" stroke="midnightblue" d="M230.746,-222.191C230.746,-213.168 230.746,-202.994 230.746,-195.571"/>
<polygon fill="midnightblue" stroke="midnightblue" points="227.246,-222.362 230.746,-232.362 234.246,-222.362 227.246,-222.362"/>
</g>
<!-- Node6 -->
<g id="node11" class="node"><title>Node6</title>
<a xlink:href="../../d8/d6b/storage_8h.html" target="_top" xlink:title="/home/aoi/Documents/FxOS/B2G/gaia/xulrunner&#45;sdk/include/mozilla/storage.h">
<polygon fill="white" stroke="black" points="155.246,-116.5 155.246,-137.5 512.246,-137.5 512.246,-116.5 155.246,-116.5"/>
<text text-anchor="middle" x="333.746" y="-124.5" font-family="Helvetica,sans-Serif" font-size="10.00">/home/aoi/Documents/FxOS/B2G/gaia/xulrunner&#45;sdk/include/mozilla/storage.h</text>
</a>
</g>
<!-- Node2&#45;&gt;Node6 -->
<g id="edge14" class="edge"><title>Node2&#45;&gt;Node6</title>
<path fill="none" stroke="midnightblue" d="M105.55,-230.931C61.0009,-223.839 18.4407,-212.836 4.74572,-196 -1.42433,-188.415 -1.6607,-181.387 4.74572,-174 18.1188,-158.581 117.223,-145.848 203.199,-137.542"/>
<polygon fill="midnightblue" stroke="midnightblue" points="105.268,-234.428 115.681,-232.474 106.322,-227.508 105.268,-234.428"/>
</g>
<!-- Node4 -->
<g id="node7" class="node"><title>Node4</title>
<a xlink:href="../../d1/d94/_database_8h.html" target="_top" xlink:title="/home/aoi/Documents/FxOS/B2G/gaia/xulrunner&#45;sdk/include/mozilla/places/Database.h">
<polygon fill="white" stroke="black" points="21.7457,-58.5 21.7457,-79.5 419.746,-79.5 419.746,-58.5 21.7457,-58.5"/>
<text text-anchor="middle" x="220.746" y="-66.5" font-family="Helvetica,sans-Serif" font-size="10.00">/home/aoi/Documents/FxOS/B2G/gaia/xulrunner&#45;sdk/include/mozilla/places/Database.h</text>
</a>
</g>
<!-- Node3&#45;&gt;Node4 -->
<g id="edge6" class="edge"><title>Node3&#45;&gt;Node4</title>
<path fill="none" stroke="midnightblue" d="M185.423,-170.371C170.412,-163.123 155.356,-152.683 146.746,-138 132.174,-113.149 166.642,-91.821 193.298,-79.7007"/>
<polygon fill="midnightblue" stroke="midnightblue" points="184.144,-173.633 194.705,-174.481 186.978,-167.232 184.144,-173.633"/>
</g>
<!-- Node3&#45;&gt;Node6 -->
<g id="edge10" class="edge"><title>Node3&#45;&gt;Node6</title>
<path fill="none" stroke="midnightblue" d="M258.487,-169.379C276.383,-159.301 299.183,-146.462 314.974,-137.571"/>
<polygon fill="midnightblue" stroke="midnightblue" points="256.634,-166.405 249.638,-174.362 260.068,-172.505 256.634,-166.405"/>
</g>
<!-- Node5 -->
<g id="node9" class="node"><title>Node5</title>
<a xlink:href="../../d0/de8/_history_8h.html" target="_top" xlink:title="/home/aoi/Documents/FxOS/B2G/gaia/xulrunner&#45;sdk/include/mozilla/places/History.h">
<polygon fill="white" stroke="black" points="26.7457,-0.5 26.7457,-21.5 414.746,-21.5 414.746,-0.5 26.7457,-0.5"/>
<text text-anchor="middle" x="220.746" y="-8.5" font-family="Helvetica,sans-Serif" font-size="10.00">/home/aoi/Documents/FxOS/B2G/gaia/xulrunner&#45;sdk/include/mozilla/places/History.h</text>
</a>
</g>
<!-- Node4&#45;&gt;Node5 -->
<g id="edge8" class="edge"><title>Node4&#45;&gt;Node5</title>
<path fill="none" stroke="midnightblue" d="M220.746,-48.1906C220.746,-39.1684 220.746,-28.9941 220.746,-21.5707"/>
<polygon fill="midnightblue" stroke="midnightblue" points="217.246,-48.3619 220.746,-58.3619 224.246,-48.3619 217.246,-48.3619"/>
</g>
<!-- Node6&#45;&gt;Node4 -->
<g id="edge12" class="edge"><title>Node6&#45;&gt;Node4</title>
<path fill="none" stroke="midnightblue" d="M304.12,-111.794C284.405,-101.675 258.998,-88.6338 241.439,-79.6212"/>
<polygon fill="midnightblue" stroke="midnightblue" points="302.787,-115.044 313.282,-116.497 305.984,-108.816 302.787,-115.044"/>
</g>
<!-- Node7&#45;&gt;Node3 -->
<g id="edge46" class="edge"><title>Node7&#45;&gt;Node3</title>
<path fill="none" stroke="midnightblue" d="M653.975,-231.403C558.451,-220.93 419.092,-205.65 326.723,-195.523"/>
<polygon fill="midnightblue" stroke="midnightblue" points="653.626,-234.886 663.948,-232.497 654.389,-227.928 653.626,-234.886"/>
</g>
<!-- Node7&#45;&gt;Node6 -->
<g id="edge48" class="edge"><title>Node7&#45;&gt;Node6</title>
<path fill="none" stroke="midnightblue" d="M801.338,-228.639C832.419,-215.736 866.413,-195.551 846.746,-174 835.197,-161.345 653.636,-146.998 509.751,-137.521"/>
<polygon fill="midnightblue" stroke="midnightblue" points="799.854,-225.462 791.849,-232.402 802.435,-231.969 799.854,-225.462"/>
</g>
<!-- Node8 -->
<g id="node17" class="node"><title>Node8</title>
<a xlink:href="../../d5/d8e/_i_d_b_transaction_8h.html" target="_top" xlink:title="/home/aoi/Documents/FxOS/B2G/gaia/xulrunner&#45;sdk/include/mozilla/dom/indexedDB/IDBTransaction.h">
<polygon fill="white" stroke="black" points="893.746,-174.5 893.746,-195.5 1359.75,-195.5 1359.75,-174.5 893.746,-174.5"/>
<text text-anchor="middle" x="1126.75" y="-182.5" font-family="Helvetica,sans-Serif" font-size="10.00">/home/aoi/Documents/FxOS/B2G/gaia/xulrunner&#45;sdk/include/mozilla/dom/indexedDB/IDBTransaction.h</text>
</a>
</g>
<!-- Node7&#45;&gt;Node8 -->
<g id="edge18" class="edge"><title>Node7&#45;&gt;Node8</title>
<path fill="none" stroke="midnightblue" d="M836.162,-230.923C902.322,-220.468 997.05,-205.497 1060.16,-195.523"/>
<polygon fill="midnightblue" stroke="midnightblue" points="835.538,-227.478 826.207,-232.497 836.63,-234.393 835.538,-227.478"/>
</g>
<!-- Node15 -->
<g id="node33" class="node"><title>Node15</title>
<a xlink:href="../../d7/dfc/_key_8h.html" target="_top" xlink:title="/home/aoi/Documents/FxOS/B2G/gaia/xulrunner&#45;sdk/include/mozilla/dom/indexedDB/Key.h">
<polygon fill="white" stroke="black" points="1976.25,-116.5 1976.25,-137.5 2391.25,-137.5 2391.25,-116.5 1976.25,-116.5"/>
<text text-anchor="middle" x="2183.75" y="-124.5" font-family="Helvetica,sans-Serif" font-size="10.00">/home/aoi/Documents/FxOS/B2G/gaia/xulrunner&#45;sdk/include/mozilla/dom/indexedDB/Key.h</text>
</a>
</g>
<!-- Node7&#45;&gt;Node15 -->
<g id="edge36" class="edge"><title>Node7&#45;&gt;Node15</title>
<path fill="none" stroke="midnightblue" d="M910.021,-231.715C1033.29,-222.383 1212.35,-208.655 1368.75,-196 1615.37,-176.043 1903.85,-151.286 2062.95,-137.51"/>
<polygon fill="midnightblue" stroke="midnightblue" points="909.466,-228.247 899.758,-232.492 909.994,-235.227 909.466,-228.247"/>
</g>
<!-- Node17 -->
<g id="node42" class="node"><title>Node17</title>
<a xlink:href="../../d5/deb/moz_storage_helper_8h.html" target="_top" xlink:title="/home/aoi/Documents/FxOS/B2G/gaia/xulrunner&#45;sdk/include/mozStorageHelper.h">
<polygon fill="white" stroke="black" points="465.746,-174.5 465.746,-195.5 837.746,-195.5 837.746,-174.5 465.746,-174.5"/>
<text text-anchor="middle" x="651.746" y="-182.5" font-family="Helvetica,sans-Serif" font-size="10.00">/home/aoi/Documents/FxOS/B2G/gaia/xulrunner&#45;sdk/include/mozStorageHelper.h</text>
</a>
</g>
<!-- Node7&#45;&gt;Node17 -->
<g id="edge50" class="edge"><title>Node7&#45;&gt;Node17</title>
<path fill="none" stroke="midnightblue" d="M731.174,-227.656C712.368,-217.556 688.229,-204.593 671.523,-195.621"/>
<polygon fill="midnightblue" stroke="midnightblue" points="729.722,-230.849 740.188,-232.497 733.034,-224.682 729.722,-230.849"/>
</g>
<!-- Node9 -->
<g id="node19" class="node"><title>Node9</title>
<a xlink:href="../../d7/d33/_i_d_b_object_store_8h.html" target="_top" xlink:title="/home/aoi/Documents/FxOS/B2G/gaia/xulrunner&#45;sdk/include/mozilla/dom/indexedDB/IDBObjectStore.h">
<polygon fill="white" stroke="black" points="1017.25,-116.5 1017.25,-137.5 1484.25,-137.5 1484.25,-116.5 1017.25,-116.5"/>
<text text-anchor="middle" x="1250.75" y="-124.5" font-family="Helvetica,sans-Serif" font-size="10.00">/home/aoi/Documents/FxOS/B2G/gaia/xulrunner&#45;sdk/include/mozilla/dom/indexedDB/IDBObjectStore.h</text>
</a>
</g>
<!-- Node8&#45;&gt;Node9 -->
<g id="edge20" class="edge"><title>Node8&#45;&gt;Node9</title>
<path fill="none" stroke="midnightblue" d="M1158.37,-170.206C1180.13,-160.031 1208.51,-146.757 1228.04,-137.621"/>
<polygon fill="midnightblue" stroke="midnightblue" points="1156.78,-167.089 1149.2,-174.497 1159.74,-173.43 1156.78,-167.089"/>
</g>
<!-- Node11 -->
<g id="node23" class="node"><title>Node11</title>
<a xlink:href="../../dc/d28/_serialization_helpers_8h.html" target="_top" xlink:title="/home/aoi/Documents/FxOS/B2G/gaia/xulrunner&#45;sdk/include/mozilla/dom/indexedDB/SerializationHelpers.h">
<polygon fill="white" stroke="black" points="1707.25,-0.5 1707.25,-21.5 2192.25,-21.5 2192.25,-0.5 1707.25,-0.5"/>
<text text-anchor="middle" x="1949.75" y="-8.5" font-family="Helvetica,sans-Serif" font-size="10.00">/home/aoi/Documents/FxOS/B2G/gaia/xulrunner&#45;sdk/include/mozilla/dom/indexedDB/SerializationHelpers.h</text>
</a>
</g>
<!-- Node8&#45;&gt;Node11 -->
<g id="edge34" class="edge"><title>Node8&#45;&gt;Node11</title>
<path fill="none" stroke="midnightblue" d="M969.28,-173.609C780.838,-157.012 497.768,-121.073 558.746,-58 578.401,-37.6694 1313.5,-21.9346 1706.92,-14.9497"/>
<polygon fill="midnightblue" stroke="midnightblue" points="969.036,-177.1 979.302,-174.481 969.643,-170.127 969.036,-177.1"/>
</g>
<!-- Node10 -->
<g id="node21" class="node"><title>Node10</title>
<a xlink:href="../../da/d25/_database_info_8h.html" target="_top" xlink:title="/home/aoi/Documents/FxOS/B2G/gaia/xulrunner&#45;sdk/include/mozilla/dom/indexedDB/DatabaseInfo.h">
<polygon fill="white" stroke="black" points="1487.75,-58.5 1487.75,-79.5 1943.75,-79.5 1943.75,-58.5 1487.75,-58.5"/>
<text text-anchor="middle" x="1715.75" y="-66.5" font-family="Helvetica,sans-Serif" font-size="10.00">/home/aoi/Documents/FxOS/B2G/gaia/xulrunner&#45;sdk/include/mozilla/dom/indexedDB/DatabaseInfo.h</text>
</a>
</g>
<!-- Node9&#45;&gt;Node10 -->
<g id="edge22" class="edge"><title>Node9&#45;&gt;Node10</title>
<path fill="none" stroke="midnightblue" d="M1345,-115.244C1428.93,-104.775 1550.6,-89.5993 1631.38,-79.5231"/>
<polygon fill="midnightblue" stroke="midnightblue" points="1344.44,-111.786 1334.95,-116.497 1345.31,-118.732 1344.44,-111.786"/>
</g>
<!-- Node12 -->
<g id="node25" class="node"><title>Node12</title>
<a xlink:href="../../da/da0/_i_d_b_cursor_8h.html" target="_top" xlink:title="/home/aoi/Documents/FxOS/B2G/gaia/xulrunner&#45;sdk/include/mozilla/dom/indexedDB/IDBCursor.h">
<polygon fill="white" stroke="black" points="1961.75,-58.5 1961.75,-79.5 2405.75,-79.5 2405.75,-58.5 1961.75,-58.5"/>
<text text-anchor="middle" x="2183.75" y="-66.5" font-family="Helvetica,sans-Serif" font-size="10.00">/home/aoi/Documents/FxOS/B2G/gaia/xulrunner&#45;sdk/include/mozilla/dom/indexedDB/IDBCursor.h</text>
</a>
</g>
<!-- Node9&#45;&gt;Node12 -->
<g id="edge26" class="edge"><title>Node9&#45;&gt;Node12</title>
<path fill="none" stroke="midnightblue" d="M1429.93,-115.861C1598.55,-105.379 1849.17,-89.799 2014.47,-79.5231"/>
<polygon fill="midnightblue" stroke="midnightblue" points="1429.47,-112.383 1419.7,-116.497 1429.9,-119.369 1429.47,-112.383"/>
</g>
<!-- Node13 -->
<g id="node28" class="node"><title>Node13</title>
<a xlink:href="../../db/df0/_i_d_b_events_8h.html" target="_top" xlink:title="/home/aoi/Documents/FxOS/B2G/gaia/xulrunner&#45;sdk/include/mozilla/dom/indexedDB/IDBEvents.h">
<polygon fill="white" stroke="black" points="567.746,-58.5 567.746,-79.5 1013.75,-79.5 1013.75,-58.5 567.746,-58.5"/>
<text text-anchor="middle" x="790.746" y="-66.5" font-family="Helvetica,sans-Serif" font-size="10.00">/home/aoi/Documents/FxOS/B2G/gaia/xulrunner&#45;sdk/include/mozilla/dom/indexedDB/IDBEvents.h</text>
</a>
</g>
<!-- Node9&#45;&gt;Node13 -->
<g id="edge30" class="edge"><title>Node9&#45;&gt;Node13</title>
<path fill="none" stroke="midnightblue" d="M1157.51,-115.244C1074.48,-104.775 954.119,-89.5993 874.204,-79.5231"/>
<polygon fill="midnightblue" stroke="midnightblue" points="1157.08,-118.718 1167.44,-116.497 1157.96,-111.773 1157.08,-118.718"/>
</g>
<!-- Node14 -->
<g id="node30" class="node"><title>Node14</title>
<a xlink:href="../../d6/d59/_i_d_b_index_8h.html" target="_top" xlink:title="/home/aoi/Documents/FxOS/B2G/gaia/xulrunner&#45;sdk/include/mozilla/dom/indexedDB/IDBIndex.h">
<polygon fill="white" stroke="black" points="1031.25,-58.5 1031.25,-79.5 1470.25,-79.5 1470.25,-58.5 1031.25,-58.5"/>
<text text-anchor="middle" x="1250.75" y="-66.5" font-family="Helvetica,sans-Serif" font-size="10.00">/home/aoi/Documents/FxOS/B2G/gaia/xulrunner&#45;sdk/include/mozilla/dom/indexedDB/IDBIndex.h</text>
</a>
</g>
<!-- Node9&#45;&gt;Node14 -->
<g id="edge32" class="edge"><title>Node9&#45;&gt;Node14</title>
<path fill="none" stroke="midnightblue" d="M1250.75,-106.191C1250.75,-97.1684 1250.75,-86.9941 1250.75,-79.5707"/>
<polygon fill="midnightblue" stroke="midnightblue" points="1247.25,-106.362 1250.75,-116.362 1254.25,-106.362 1247.25,-106.362"/>
</g>
<!-- Node10&#45;&gt;Node11 -->
<g id="edge24" class="edge"><title>Node10&#45;&gt;Node11</title>
<path fill="none" stroke="midnightblue" d="M1767.89,-56.0766C1809.86,-45.6718 1868.13,-31.2306 1907.29,-21.5231"/>
<polygon fill="midnightblue" stroke="midnightblue" points="1766.99,-52.6935 1758.12,-58.4966 1768.67,-59.4879 1766.99,-52.6935"/>
</g>
<!-- Node12&#45;&gt;Node11 -->
<g id="edge28" class="edge"><title>Node12&#45;&gt;Node11</title>
<path fill="none" stroke="midnightblue" d="M2131.61,-56.0766C2089.63,-45.6718 2031.37,-31.2306 1992.2,-21.5231"/>
<polygon fill="midnightblue" stroke="midnightblue" points="2130.82,-59.4879 2141.37,-58.4966 2132.51,-52.6935 2130.82,-59.4879"/>
</g>
<!-- Node15&#45;&gt;Node10 -->
<g id="edge38" class="edge"><title>Node15&#45;&gt;Node10</title>
<path fill="none" stroke="midnightblue" d="M2088.89,-115.244C2004.42,-104.775 1881.96,-89.5993 1800.66,-79.5231"/>
<polygon fill="midnightblue" stroke="midnightblue" points="2088.64,-118.74 2098.99,-116.497 2089.5,-111.793 2088.64,-118.74"/>
</g>
<!-- Node15&#45;&gt;Node11 -->
<g id="edge44" class="edge"><title>Node15&#45;&gt;Node11</title>
<path fill="none" stroke="midnightblue" d="M2313.45,-114.982C2358.34,-107.929 2400.9,-96.9407 2414.75,-80 2420.93,-72.4281 2421.3,-65.2532 2414.75,-58 2398.49,-40.018 2296.09,-28.5826 2191.51,-21.5002"/>
<polygon fill="midnightblue" stroke="midnightblue" points="2312.92,-111.523 2303.55,-116.472 2313.96,-118.446 2312.92,-111.523"/>
</g>
<!-- Node15&#45;&gt;Node12 -->
<g id="edge40" class="edge"><title>Node15&#45;&gt;Node12</title>
<path fill="none" stroke="midnightblue" d="M2183.75,-106.191C2183.75,-97.1684 2183.75,-86.9941 2183.75,-79.5707"/>
<polygon fill="midnightblue" stroke="midnightblue" points="2180.25,-106.362 2183.75,-116.362 2187.25,-106.362 2180.25,-106.362"/>
</g>
<!-- Node16 -->
<g id="node37" class="node"><title>Node16</title>
<a xlink:href="../../d2/d6d/_i_d_b_key_range_8h.html" target="_top" xlink:title="/home/aoi/Documents/FxOS/B2G/gaia/xulrunner&#45;sdk/include/mozilla/dom/indexedDB/IDBKeyRange.h">
<polygon fill="white" stroke="black" points="2461.25,-58.5 2461.25,-79.5 2922.25,-79.5 2922.25,-58.5 2461.25,-58.5"/>
<text text-anchor="middle" x="2691.75" y="-66.5" font-family="Helvetica,sans-Serif" font-size="10.00">/home/aoi/Documents/FxOS/B2G/gaia/xulrunner&#45;sdk/include/mozilla/dom/indexedDB/IDBKeyRange.h</text>
</a>
</g>
<!-- Node15&#45;&gt;Node16 -->
<g id="edge42" class="edge"><title>Node15&#45;&gt;Node16</title>
<path fill="none" stroke="midnightblue" d="M2285.87,-115.34C2377.59,-104.868 2511.06,-89.63 2599.58,-79.5231"/>
<polygon fill="midnightblue" stroke="midnightblue" points="2285.28,-111.885 2275.74,-116.497 2286.07,-118.84 2285.28,-111.885"/>
</g>
<!-- Node17&#45;&gt;Node6 -->
<g id="edge52" class="edge"><title>Node17&#45;&gt;Node6</title>
<path fill="none" stroke="midnightblue" d="M584.115,-172.665C526.859,-162.222 445.676,-147.415 391.441,-137.523"/>
<polygon fill="midnightblue" stroke="midnightblue" points="583.693,-176.145 594.158,-174.497 584.949,-169.259 583.693,-176.145"/>
</g>
</g>
</svg>
        <g id="navigator" transform="translate(0 0)" fill="#404254">
                <rect fill="#f2f5e9" fill-opacity="0.5" stroke="#606060" stroke-width=".5" x="0" y="0" width="60" height="60"/>
                <use id="zoomplus" xlink:href="#zoomPlus" x="17" y="9" onmousedown="handleZoom(evt,'in')"/>
                <use id="zoomminus" xlink:href="#zoomMin" x="42" y="9" onmousedown="handleZoom(evt,'out')"/>
                <use id="reset" xlink:href="#resetDef" x="30" y="36" onmousedown="handleReset()"/>
                <g id="arrowUp" xlink:href="#dirArrow" transform="translate(30 24)" onmousedown="handlePan(0,-1)">
                  <use xlink:href="#rim" fill="#404040">
                        <set attributeName="fill" to="#808080" begin="arrowUp.mouseover" end="arrowUp.mouseout"/>
                  </use>
                  <path fill="none" stroke="white" stroke-width="1.5" d="M0,-3.0v7 M-2.5,-0.5L0,-3.0L2.5,-0.5"/>
                </g>
                <g id="arrowRight" xlink:href="#dirArrow" transform="rotate(90) translate(36 -43)" onmousedown="handlePan(1,0)">
                  <use xlink:href="#rim" fill="#404040">
                        <set attributeName="fill" to="#808080" begin="arrowRight.mouseover" end="arrowRight.mouseout"/>
                  </use>
                  <path fill="none" stroke="white" stroke-width="1.5" d="M0,-3.0v7 M-2.5,-0.5L0,-3.0L2.5,-0.5"/>
                </g>
                <g id="arrowDown" xlink:href="#dirArrow" transform="rotate(180) translate(-30 -48)" onmousedown="handlePan(0,1)">
                  <use xlink:href="#rim" fill="#404040">
                        <set attributeName="fill" to="#808080" begin="arrowDown.mouseover" end="arrowDown.mouseout"/>
                  </use>
                  <path fill="none" stroke="white" stroke-width="1.5" d="M0,-3.0v7 M-2.5,-0.5L0,-3.0L2.5,-0.5"/>
                </g>
                <g id="arrowLeft" xlink:href="#dirArrow" transform="rotate(270) translate(-36 17)" onmousedown="handlePan(-1,0)">
                  <use xlink:href="#rim" fill="#404040">
                        <set attributeName="fill" to="#808080" begin="arrowLeft.mouseover" end="arrowLeft.mouseout"/>
                  </use>
                  <path fill="none" stroke="white" stroke-width="1.5" d="M0,-3.0v7 M-2.5,-0.5L0,-3.0L2.5,-0.5"/>
                </g>
        </g>
</svg>
