<?xml version="1.0" encoding="UTF-8" standalone="no"?>
<!DOCTYPE svg PUBLIC "-//W3C//DTD SVG 1.1//EN"
 "http://www.w3.org/Graphics/SVG/1.1/DTD/svg11.dtd">
<!-- Generated by graphviz version 2.26.3 (20100126.1600)
 -->
<!-- Title: G Pages: 1 -->
<svg width="168pt" height="102pt"
 viewBox="0.00 0.00 168.00 102.00" xmlns="http://www.w3.org/2000/svg" xmlns:xlink="http://www.w3.org/1999/xlink">
<g id="graph1" class="graph" transform="scale(1 1) rotate(0) translate(4 98)">
<title>G</title>
<polygon fill="white" stroke="white" points="-4,5 -4,-98 165,-98 165,5 -4,5"/>
<!-- Node1 -->
<g id="node1" class="node"><title>Node1</title>
<polygon fill="#bfbfbf" stroke="black" points="-0.5,-0.5 -0.5,-21.5 160.5,-21.5 160.5,-0.5 -0.5,-0.5"/>
<text text-anchor="middle" x="80" y="-8.5" font-family="Helvetica,sans-Serif" font-size="10.00">js::HashMapEntry&lt; Key, Value &gt;</text>
</g>
<!-- Node2 -->
<g id="node2" class="node"><title>Node2</title>
<a xlink:href="../../d1/d94/class_j_s_1_1_value.html" target="_top" xlink:title="JS::Value">
<polygon fill="white" stroke="black" points="18.5,-72.5 18.5,-93.5 77.5,-93.5 77.5,-72.5 18.5,-72.5"/>
<text text-anchor="middle" x="48" y="-80.5" font-family="Helvetica,sans-Serif" font-size="10.00">JS::Value</text>
</a>
</g>
<!-- Node2&#45;&gt;Node1 -->
<g id="edge2" class="edge"><title>Node2&#45;&gt;Node1</title>
<path fill="none" stroke="#9a32cd" stroke-dasharray="5,2" d="M54.2678,-62.4308C56.7025,-55.2168 59.7017,-47.1366 63,-40 65.8891,-33.7488 69.7267,-27.099 73.0245,-21.7462"/>
<polygon fill="#9a32cd" stroke="#9a32cd" points="50.8655,-61.5781 51.1353,-72.1695 57.5293,-63.7216 50.8655,-61.5781"/>
<text text-anchor="middle" x="76.5" y="-44.5" font-family="Helvetica,sans-Serif" font-size="10.00"> value</text>
</g>
<!-- Node3 -->
<g id="node4" class="node"><title>Node3</title>
<a xlink:href="../../df/df7/class_key.html" target="_top" xlink:title="Key">
<polygon fill="white" stroke="black" points="95,-72.5 95,-93.5 129,-93.5 129,-72.5 95,-72.5"/>
<text text-anchor="middle" x="112" y="-80.5" font-family="Helvetica,sans-Serif" font-size="10.00">Key</text>
</a>
</g>
<!-- Node3&#45;&gt;Node1 -->
<g id="edge4" class="edge"><title>Node3&#45;&gt;Node1</title>
<path fill="none" stroke="#9a32cd" stroke-dasharray="5,2" d="M103.123,-63.0266C97.1722,-49.6374 89.5697,-32.5318 84.7411,-21.6674"/>
<polygon fill="#9a32cd" stroke="#9a32cd" points="100.019,-64.6595 107.278,-72.3762 106.415,-61.8165 100.019,-64.6595"/>
<text text-anchor="middle" x="107.5" y="-44.5" font-family="Helvetica,sans-Serif" font-size="10.00"> key</text>
</g>
</g>
</svg>
