<?xml version="1.0" encoding="UTF-8" standalone="no"?>
<!DOCTYPE svg PUBLIC "-//W3C//DTD SVG 1.1//EN"
 "http://www.w3.org/Graphics/SVG/1.1/DTD/svg11.dtd">
<!-- Generated by graphviz version 2.26.3 (20100126.1600)
 -->
<!-- Title: G Pages: 1 -->
<svg width="384pt" height="70pt"
 viewBox="0.00 0.00 384.00 70.00" xmlns="http://www.w3.org/2000/svg" xmlns:xlink="http://www.w3.org/1999/xlink">
<g id="graph1" class="graph" transform="scale(1 1) rotate(0) translate(4 66)">
<title>G</title>
<polygon fill="white" stroke="white" points="-4,5 -4,-66 381,-66 381,5 -4,5"/>
<!-- Node1 -->
<g id="node1" class="node"><title>Node1</title>
<polygon fill="#bfbfbf" stroke="black" points="0,-20.5 0,-41.5 170,-41.5 170,-20.5 0,-20.5"/>
<text text-anchor="middle" x="85" y="-28.5" font-family="Helvetica,sans-Serif" font-size="10.00">mozilla::dom::Element::SetCapture</text>
</g>
<!-- Node2 -->
<g id="node3" class="node"><title>Node2</title>
<a xlink:href="../../d3/d8f/classns_i_pres_shell.html#a14b9835099b941fe09a07135ec22fc86" target="_top" xlink:title="nsIPresShell::GetCapturingContent">
<polygon fill="white" stroke="black" points="206,-40.5 206,-61.5 376,-61.5 376,-40.5 206,-40.5"/>
<text text-anchor="middle" x="291" y="-48.5" font-family="Helvetica,sans-Serif" font-size="10.00">nsIPresShell::GetCapturingContent</text>
</a>
</g>
<!-- Node1&#45;&gt;Node2 -->
<g id="edge2" class="edge"><title>Node1&#45;&gt;Node2</title>
<path fill="none" stroke="midnightblue" d="M170.275,-39.2791C178.708,-40.0979 187.305,-40.9325 195.829,-41.7601"/>
<polygon fill="midnightblue" stroke="midnightblue" points="195.497,-45.2443 205.789,-42.7271 196.174,-38.277 195.497,-45.2443"/>
</g>
<!-- Node3 -->
<g id="node5" class="node"><title>Node3</title>
<a xlink:href="../../d3/d8f/classns_i_pres_shell.html#a400d207364cc091733b2e55a1ae2e11e" target="_top" xlink:title="nsIPresShell::SetCapturingContent">
<polygon fill="white" stroke="black" points="206,-0.5 206,-21.5 376,-21.5 376,-0.5 206,-0.5"/>
<text text-anchor="middle" x="291" y="-8.5" font-family="Helvetica,sans-Serif" font-size="10.00">nsIPresShell::SetCapturingContent</text>
</a>
</g>
<!-- Node1&#45;&gt;Node3 -->
<g id="edge4" class="edge"><title>Node1&#45;&gt;Node3</title>
<path fill="none" stroke="midnightblue" d="M170.275,-22.7209C178.708,-21.9021 187.305,-21.0675 195.829,-20.2399"/>
<polygon fill="midnightblue" stroke="midnightblue" points="196.174,-23.723 205.789,-19.2729 195.497,-16.7557 196.174,-23.723"/>
</g>
</g>
</svg>
