<?xml version="1.0" encoding="UTF-8" standalone="no"?>
<!DOCTYPE svg PUBLIC "-//W3C//DTD SVG 1.1//EN"
 "http://www.w3.org/Graphics/SVG/1.1/DTD/svg11.dtd">
<!-- Generated by graphviz version 2.26.3 (20100126.1600)
 -->
<!-- Title: G Pages: 1 -->
<svg width="114pt" height="204pt"
 viewBox="0.00 0.00 114.00 204.00" xmlns="http://www.w3.org/2000/svg" xmlns:xlink="http://www.w3.org/1999/xlink">
<g id="graph1" class="graph" transform="scale(1 1) rotate(0) translate(4 200)">
<title>G</title>
<polygon fill="white" stroke="white" points="-4,5 -4,-200 111,-200 111,5 -4,5"/>
<!-- Node1 -->
<g id="node1" class="node"><title>Node1</title>
<polygon fill="#bfbfbf" stroke="black" points="0.5,-58.5 0.5,-79.5 105.5,-79.5 105.5,-58.5 0.5,-58.5"/>
<text text-anchor="middle" x="53" y="-66.5" font-family="Helvetica,sans-Serif" font-size="10.00">nsISupportsPRTime</text>
</g>
<!-- Node4 -->
<g id="node9" class="node"><title>Node4</title>
<a xlink:href="../../d4/dfc/class_m_o_z___f_i_n_a_l.html" target="_top" xlink:title="MOZ_FINAL\&lt; T \&gt;">
<polygon fill="white" stroke="black" points="5,-0.5 5,-21.5 101,-21.5 101,-0.5 5,-0.5"/>
<text text-anchor="middle" x="53" y="-8.5" font-family="Helvetica,sans-Serif" font-size="10.00">MOZ_FINAL&lt; T &gt;</text>
</a>
</g>
<!-- Node1&#45;&gt;Node4 -->
<g id="edge10" class="edge"><title>Node1&#45;&gt;Node4</title>
<path fill="none" stroke="midnightblue" d="M53,-48.1906C53,-39.1684 53,-28.9941 53,-21.5707"/>
<polygon fill="midnightblue" stroke="midnightblue" points="49.5001,-48.3619 53,-58.3619 56.5001,-48.3619 49.5001,-48.3619"/>
</g>
<!-- Node2 -->
<g id="node2" class="node"><title>Node2</title>
<a xlink:href="../../d1/d61/interfacens_i_supports_primitive.html" target="_top" xlink:title="nsISupportsPrimitive">
<polygon fill="white" stroke="black" points="-0.5,-116.5 -0.5,-137.5 106.5,-137.5 106.5,-116.5 -0.5,-116.5"/>
<text text-anchor="middle" x="53" y="-124.5" font-family="Helvetica,sans-Serif" font-size="10.00">nsISupportsPrimitive</text>
</a>
</g>
<!-- Node2&#45;&gt;Node1 -->
<g id="edge2" class="edge"><title>Node2&#45;&gt;Node1</title>
<path fill="none" stroke="midnightblue" d="M46.4952,-106.191C45.9414,-97.1684 46.3257,-86.9941 47.6479,-79.5707"/>
<polygon fill="midnightblue" stroke="midnightblue" points="43.0431,-106.814 47.6359,-116.362 49.9995,-106.034 43.0431,-106.814"/>
</g>
<!-- Node2&#45;&gt;Node1 -->
<g id="edge8" class="edge"><title>Node2&#45;&gt;Node1</title>
<path fill="none" stroke="midnightblue" d="M59.5048,-106.191C60.0586,-97.1684 59.6743,-86.9941 58.3521,-79.5707"/>
<polygon fill="midnightblue" stroke="midnightblue" points="56.0005,-106.034 58.3641,-116.362 62.9569,-106.814 56.0005,-106.034"/>
</g>
<!-- Node3 -->
<g id="node4" class="node"><title>Node3</title>
<a xlink:href="../../d4/d6a/classns_i_supports.html" target="_top" xlink:title="nsISupports">
<polygon fill="white" stroke="black" points="18.5,-174.5 18.5,-195.5 87.5,-195.5 87.5,-174.5 18.5,-174.5"/>
<text text-anchor="middle" x="53" y="-182.5" font-family="Helvetica,sans-Serif" font-size="10.00">nsISupports</text>
</a>
</g>
<!-- Node3&#45;&gt;Node2 -->
<g id="edge4" class="edge"><title>Node3&#45;&gt;Node2</title>
<path fill="none" stroke="midnightblue" d="M46.4952,-164.191C45.9414,-155.168 46.3257,-144.994 47.6479,-137.571"/>
<polygon fill="midnightblue" stroke="midnightblue" points="43.0431,-164.814 47.6359,-174.362 49.9995,-164.034 43.0431,-164.814"/>
</g>
<!-- Node3&#45;&gt;Node2 -->
<g id="edge6" class="edge"><title>Node3&#45;&gt;Node2</title>
<path fill="none" stroke="midnightblue" d="M59.5048,-164.191C60.0586,-155.168 59.6743,-144.994 58.3521,-137.571"/>
<polygon fill="midnightblue" stroke="midnightblue" points="56.0005,-164.034 58.3641,-174.362 62.9569,-164.814 56.0005,-164.034"/>
</g>
</g>
</svg>
