<?xml version="1.0" encoding="UTF-8" standalone="no"?>
<!DOCTYPE svg PUBLIC "-//W3C//DTD SVG 1.1//EN"
 "http://www.w3.org/Graphics/SVG/1.1/DTD/svg11.dtd">
<!-- Generated by graphviz version 2.26.3 (20100126.1600)
 -->
<!-- Title: G Pages: 1 -->
<svg width="422pt" height="88pt"
 viewBox="0.00 0.00 422.00 88.00" xmlns="http://www.w3.org/2000/svg" xmlns:xlink="http://www.w3.org/1999/xlink">
<g id="graph1" class="graph" transform="scale(1 1) rotate(0) translate(4 84)">
<title>G</title>
<polygon fill="white" stroke="white" points="-4,5 -4,-84 419,-84 419,5 -4,5"/>
<!-- Node1 -->
<g id="node1" class="node"><title>Node1</title>
<polygon fill="#bfbfbf" stroke="black" points="22,-58.5 22,-79.5 392,-79.5 392,-58.5 22,-58.5"/>
<text text-anchor="middle" x="207" y="-66.5" font-family="Helvetica,sans-Serif" font-size="10.00">/home/aoi/Documents/FxOS/B2G/gaia/xulrunner&#45;sdk/include/nsIDOMClassInfo.h</text>
</g>
<!-- Node2 -->
<g id="node3" class="node"><title>Node2</title>
<a xlink:href="../../d7/d19/ns_i_d_o_m_script_object_factory_8h.html" target="_top" xlink:title="/home/aoi/Documents/FxOS/B2G/gaia/xulrunner&#45;sdk/include/nsIDOMScriptObjectFactory.h">
<polygon fill="white" stroke="black" points="-0.5,-0.5 -0.5,-21.5 414.5,-21.5 414.5,-0.5 -0.5,-0.5"/>
<text text-anchor="middle" x="207" y="-8.5" font-family="Helvetica,sans-Serif" font-size="10.00">/home/aoi/Documents/FxOS/B2G/gaia/xulrunner&#45;sdk/include/nsIDOMScriptObjectFactory.h</text>
</a>
</g>
<!-- Node1&#45;&gt;Node2 -->
<g id="edge2" class="edge"><title>Node1&#45;&gt;Node2</title>
<path fill="none" stroke="midnightblue" d="M200.495,-48.1906C199.941,-39.1684 200.326,-28.9941 201.648,-21.5707"/>
<polygon fill="midnightblue" stroke="midnightblue" points="197.043,-48.8143 201.636,-58.3619 204,-48.0341 197.043,-48.8143"/>
</g>
<!-- Node2&#45;&gt;Node1 -->
<g id="edge4" class="edge"><title>Node2&#45;&gt;Node1</title>
<path fill="none" stroke="midnightblue" d="M213.5,-31.7276C214.059,-40.7427 213.681,-50.9219 212.364,-58.3619"/>
<polygon fill="midnightblue" stroke="midnightblue" points="216.953,-31.1144 212.352,-21.5707 209.997,-31.9004 216.953,-31.1144"/>
</g>
</g>
</svg>
