<?xml version="1.0" encoding="UTF-8" standalone="no"?>
<!DOCTYPE svg PUBLIC "-//W3C//DTD SVG 1.1//EN"
 "http://www.w3.org/Graphics/SVG/1.1/DTD/svg11.dtd">
<!-- Generated by graphviz version 2.26.3 (20100126.1600)
 -->
<!-- Title: G Pages: 1 -->
<svg width="468pt" height="146pt"
 viewBox="0.00 0.00 468.00 146.00" xmlns="http://www.w3.org/2000/svg" xmlns:xlink="http://www.w3.org/1999/xlink">
<g id="graph1" class="graph" transform="scale(1 1) rotate(0) translate(4 142)">
<title>G</title>
<polygon fill="white" stroke="white" points="-4,5 -4,-142 465,-142 465,5 -4,5"/>
<!-- Node1 -->
<g id="node1" class="node"><title>Node1</title>
<polygon fill="#bfbfbf" stroke="black" points="-0.5,-116.5 -0.5,-137.5 460.5,-137.5 460.5,-116.5 -0.5,-116.5"/>
<text text-anchor="middle" x="230" y="-124.5" font-family="Helvetica,sans-Serif" font-size="10.00">/home/aoi/Documents/FxOS/B2G/gaia/xulrunner&#45;sdk/include/protobuf/google/protobuf/stubs/map&#45;util.h</text>
</g>
<!-- Node2 -->
<g id="node3" class="node"><title>Node2</title>
<a xlink:href="../../dc/d54/common_8h.html" target="_top" xlink:title="google/protobuf/stubs/common.h">
<polygon fill="white" stroke="black" points="150.5,-58.5 150.5,-79.5 309.5,-79.5 309.5,-58.5 150.5,-58.5"/>
<text text-anchor="middle" x="230" y="-66.5" font-family="Helvetica,sans-Serif" font-size="10.00">google/protobuf/stubs/common.h</text>
</a>
</g>
<!-- Node1&#45;&gt;Node2 -->
<g id="edge2" class="edge"><title>Node1&#45;&gt;Node2</title>
<path fill="none" stroke="midnightblue" d="M230,-116.362C230,-108.922 230,-98.7427 230,-89.7276"/>
<polygon fill="midnightblue" stroke="midnightblue" points="233.5,-89.5706 230,-79.5707 226.5,-89.5707 233.5,-89.5706"/>
</g>
<!-- Node3 -->
<g id="node5" class="node"><title>Node3</title>
<polygon fill="white" stroke="#bfbfbf" points="39,-0.5 39,-21.5 91,-21.5 91,-0.5 39,-0.5"/>
<text text-anchor="middle" x="65" y="-8.5" font-family="Helvetica,sans-Serif" font-size="10.00">assert.h</text>
</g>
<!-- Node2&#45;&gt;Node3 -->
<g id="edge4" class="edge"><title>Node2&#45;&gt;Node3</title>
<path fill="none" stroke="midnightblue" d="M200.12,-58.4966C172.169,-48.6714 130.387,-33.9846 100.694,-23.5471"/>
<polygon fill="midnightblue" stroke="midnightblue" points="101.72,-20.1979 91.1255,-20.1835 99.3989,-26.8018 101.72,-20.1979"/>
</g>
<!-- Node4 -->
<g id="node7" class="node"><title>Node4</title>
<polygon fill="white" stroke="#bfbfbf" points="109,-0.5 109,-21.5 157,-21.5 157,-0.5 109,-0.5"/>
<text text-anchor="middle" x="133" y="-8.5" font-family="Helvetica,sans-Serif" font-size="10.00">stdlib.h</text>
</g>
<!-- Node2&#45;&gt;Node4 -->
<g id="edge6" class="edge"><title>Node2&#45;&gt;Node4</title>
<path fill="none" stroke="midnightblue" d="M212.209,-58.3619C197.441,-49.532 176.222,-36.844 159.462,-26.8224"/>
<polygon fill="midnightblue" stroke="midnightblue" points="161.057,-23.6987 150.679,-21.5707 157.465,-29.7066 161.057,-23.6987"/>
</g>
<!-- Node5 -->
<g id="node9" class="node"><title>Node5</title>
<polygon fill="white" stroke="#bfbfbf" points="174.5,-0.5 174.5,-21.5 223.5,-21.5 223.5,-0.5 174.5,-0.5"/>
<text text-anchor="middle" x="199" y="-8.5" font-family="Helvetica,sans-Serif" font-size="10.00">cstddef</text>
</g>
<!-- Node2&#45;&gt;Node5 -->
<g id="edge8" class="edge"><title>Node2&#45;&gt;Node5</title>
<path fill="none" stroke="midnightblue" d="M224.314,-58.3619C220.163,-50.5949 214.416,-39.8426 209.447,-30.5458"/>
<polygon fill="midnightblue" stroke="midnightblue" points="212.45,-28.7401 204.65,-21.5707 206.277,-32.0398 212.45,-28.7401"/>
</g>
<!-- Node6 -->
<g id="node11" class="node"><title>Node6</title>
<polygon fill="white" stroke="#bfbfbf" points="240.5,-0.5 240.5,-21.5 281.5,-21.5 281.5,-0.5 240.5,-0.5"/>
<text text-anchor="middle" x="261" y="-8.5" font-family="Helvetica,sans-Serif" font-size="10.00">string</text>
</g>
<!-- Node2&#45;&gt;Node6 -->
<g id="edge10" class="edge"><title>Node2&#45;&gt;Node6</title>
<path fill="none" stroke="midnightblue" d="M235.686,-58.3619C239.837,-50.5949 245.584,-39.8426 250.553,-30.5458"/>
<polygon fill="midnightblue" stroke="midnightblue" points="253.723,-32.0398 255.35,-21.5707 247.55,-28.7401 253.723,-32.0398"/>
</g>
<!-- Node7 -->
<g id="node13" class="node"><title>Node7</title>
<polygon fill="white" stroke="#bfbfbf" points="298.5,-0.5 298.5,-21.5 347.5,-21.5 347.5,-0.5 298.5,-0.5"/>
<text text-anchor="middle" x="323" y="-8.5" font-family="Helvetica,sans-Serif" font-size="10.00">string.h</text>
</g>
<!-- Node2&#45;&gt;Node7 -->
<g id="edge12" class="edge"><title>Node2&#45;&gt;Node7</title>
<path fill="none" stroke="midnightblue" d="M247.058,-58.3619C261.085,-49.6138 281.184,-37.0786 297.182,-27.1015"/>
<polygon fill="midnightblue" stroke="midnightblue" points="299.418,-29.8323 306.051,-21.5707 295.713,-23.8927 299.418,-29.8323"/>
</g>
<!-- Node8 -->
<g id="node15" class="node"><title>Node8</title>
<polygon fill="white" stroke="#bfbfbf" points="364.5,-0.5 364.5,-21.5 413.5,-21.5 413.5,-0.5 364.5,-0.5"/>
<text text-anchor="middle" x="389" y="-8.5" font-family="Helvetica,sans-Serif" font-size="10.00">stdint.h</text>
</g>
<!-- Node2&#45;&gt;Node8 -->
<g id="edge14" class="edge"><title>Node2&#45;&gt;Node8</title>
<path fill="none" stroke="midnightblue" d="M258.794,-58.4966C285.771,-48.6557 326.119,-33.9377 354.741,-23.4972"/>
<polygon fill="midnightblue" stroke="midnightblue" points="356.139,-26.7127 364.334,-19.9976 353.74,-20.1365 356.139,-26.7127"/>
</g>
</g>
</svg>
