<?xml version="1.0" encoding="UTF-8" standalone="no"?>
<!DOCTYPE svg PUBLIC "-//W3C//DTD SVG 1.1//EN"
 "http://www.w3.org/Graphics/SVG/1.1/DTD/svg11.dtd">
<!-- Generated by graphviz version 2.26.3 (20100126.1600)
 -->
<!-- Title: G Pages: 1 -->
<svg width="374pt" height="162pt"
 viewBox="0.00 0.00 374.00 162.00" xmlns="http://www.w3.org/2000/svg" xmlns:xlink="http://www.w3.org/1999/xlink">
<g id="graph1" class="graph" transform="scale(1 1) rotate(0) translate(4 158)">
<title>G</title>
<polygon fill="white" stroke="white" points="-4,5 -4,-158 371,-158 371,5 -4,5"/>
<!-- Node1 -->
<g id="node1" class="node"><title>Node1</title>
<polygon fill="#bfbfbf" stroke="black" points="94.5,-0.5 94.5,-21.5 257.5,-21.5 257.5,-0.5 94.5,-0.5"/>
<text text-anchor="middle" x="176" y="-8.5" font-family="Helvetica,sans-Serif" font-size="10.00">mozilla::layers::ImageBridgeChild</text>
</g>
<!-- Node2 -->
<g id="node2" class="node"><title>Node2</title>
<a xlink:href="../../d8/da3/classmozilla_1_1layers_1_1_compositable_forwarder.html" target="_top" xlink:title="mozilla::layers::CompositableForwarder">
<polygon fill="white" stroke="black" points="81.5,-60.5 81.5,-81.5 270.5,-81.5 270.5,-60.5 81.5,-60.5"/>
<text text-anchor="middle" x="176" y="-68.5" font-family="Helvetica,sans-Serif" font-size="10.00">mozilla::layers::CompositableForwarder</text>
</a>
</g>
<!-- Node2&#45;&gt;Node1 -->
<g id="edge2" class="edge"><title>Node2&#45;&gt;Node1</title>
<path fill="none" stroke="midnightblue" d="M176,-50.2312C176,-40.5922 176,-29.5444 176,-21.6339"/>
<polygon fill="midnightblue" stroke="midnightblue" points="172.5,-50.2732 176,-60.2732 179.5,-50.2732 172.5,-50.2732"/>
</g>
<!-- Node3 -->
<g id="node4" class="node"><title>Node3</title>
<a xlink:href="../../dd/d26/classmozilla_1_1layers_1_1_i_surface_allocator.html" target="_top" xlink:title="mozilla::layers::ISurfaceAllocator">
<polygon fill="white" stroke="black" points="-0.5,-132.5 -0.5,-153.5 160.5,-153.5 160.5,-132.5 -0.5,-132.5"/>
<text text-anchor="middle" x="80" y="-140.5" font-family="Helvetica,sans-Serif" font-size="10.00">mozilla::layers::ISurfaceAllocator</text>
</a>
</g>
<!-- Node3&#45;&gt;Node2 -->
<g id="edge4" class="edge"><title>Node3&#45;&gt;Node2</title>
<path fill="none" stroke="midnightblue" d="M102.528,-126.104C120.855,-112.359 146.155,-93.384 161.777,-81.6674"/>
<polygon fill="midnightblue" stroke="midnightblue" points="100.065,-123.576 94.1651,-132.376 104.265,-129.176 100.065,-123.576"/>
</g>
<!-- Node4 -->
<g id="node6" class="node"><title>Node4</title>
<a xlink:href="../../d4/d27/structmozilla_1_1layers_1_1_texture_factory_identifier.html" target="_top" xlink:title="mozilla::layers::TextureFactoryIdentifier">
<polygon fill="white" stroke="black" points="177.5,-132.5 177.5,-153.5 366.5,-153.5 366.5,-132.5 177.5,-132.5"/>
<text text-anchor="middle" x="272" y="-140.5" font-family="Helvetica,sans-Serif" font-size="10.00">mozilla::layers::TextureFactoryIdentifier</text>
</a>
</g>
<!-- Node4&#45;&gt;Node2 -->
<g id="edge6" class="edge"><title>Node4&#45;&gt;Node2</title>
<path fill="none" stroke="#9a32cd" stroke-dasharray="5,2" d="M249.472,-126.104C231.145,-112.359 205.845,-93.384 190.223,-81.6674"/>
<polygon fill="#9a32cd" stroke="#9a32cd" points="247.735,-129.176 257.835,-132.376 251.935,-123.576 247.735,-129.176"/>
<text text-anchor="middle" x="290.5" y="-104.5" font-family="Helvetica,sans-Serif" font-size="10.00"> mTextureFactoryIdentifier</text>
</g>
</g>
</svg>
