<?xml version="1.0" encoding="UTF-8" standalone="no"?>
<!DOCTYPE svg PUBLIC "-//W3C//DTD SVG 1.1//EN"
 "http://www.w3.org/Graphics/SVG/1.1/DTD/svg11.dtd">
<!-- Generated by graphviz version 2.26.3 (20100126.1600)
 -->
<!-- Title: G Pages: 1 -->
<svg width="356pt" height="70pt"
 viewBox="0.00 0.00 356.00 70.00" xmlns="http://www.w3.org/2000/svg" xmlns:xlink="http://www.w3.org/1999/xlink">
<g id="graph1" class="graph" transform="scale(1 1) rotate(0) translate(4 66)">
<title>G</title>
<polygon fill="white" stroke="white" points="-4,5 -4,-66 353,-66 353,5 -4,5"/>
<!-- Node1 -->
<g id="node1" class="node"><title>Node1</title>
<polygon fill="#bfbfbf" stroke="black" points="0.5,-20.5 0.5,-41.5 125.5,-41.5 125.5,-20.5 0.5,-20.5"/>
<text text-anchor="middle" x="63" y="-28.5" font-family="Helvetica,sans-Serif" font-size="10.00">GrEffectStage::getEffect</text>
</g>
<!-- Node2 -->
<g id="node3" class="node"><title>Node2</title>
<a xlink:href="../../d4/d7e/class_gr_effect_stage_1_1_deferred_stage.html#ac90e723bab429b137ba51095cb27e027" target="_top" xlink:title="GrEffectStage::DeferredStage::isEqual">
<polygon fill="white" stroke="black" points="162,-40.5 162,-61.5 348,-61.5 348,-40.5 162,-40.5"/>
<text text-anchor="middle" x="255" y="-48.5" font-family="Helvetica,sans-Serif" font-size="10.00">GrEffectStage::DeferredStage::isEqual</text>
</a>
</g>
<!-- Node1&#45;&gt;Node2 -->
<g id="edge2" class="edge"><title>Node1&#45;&gt;Node2</title>
<path fill="none" stroke="midnightblue" d="M135.828,-38.5863C144.333,-39.4722 153.095,-40.3849 161.826,-41.2944"/>
<polygon fill="midnightblue" stroke="midnightblue" points="135.911,-35.0761 125.602,-37.5211 135.186,-42.0384 135.911,-35.0761"/>
</g>
<!-- Node3 -->
<g id="node5" class="node"><title>Node3</title>
<a xlink:href="../../d6/d27/class_gr_effect_stage.html#a0e0d505de975fa0b4a24be304763993e" target="_top" xlink:title="GrEffectStage::operator==">
<polygon fill="white" stroke="black" points="189,-0.5 189,-21.5 321,-21.5 321,-0.5 189,-0.5"/>
<text text-anchor="middle" x="255" y="-8.5" font-family="Helvetica,sans-Serif" font-size="10.00">GrEffectStage::operator==</text>
</a>
</g>
<!-- Node1&#45;&gt;Node3 -->
<g id="edge4" class="edge"><title>Node1&#45;&gt;Node3</title>
<path fill="none" stroke="midnightblue" d="M135.731,-23.4239C153.179,-21.6064 171.718,-19.6752 188.849,-17.8907"/>
<polygon fill="midnightblue" stroke="midnightblue" points="135.186,-19.9616 125.602,-24.4789 135.911,-26.9239 135.186,-19.9616"/>
</g>
</g>
</svg>
