<?xml version="1.0" encoding="UTF-8" standalone="no"?>
<!DOCTYPE svg PUBLIC "-//W3C//DTD SVG 1.1//EN"
 "http://www.w3.org/Graphics/SVG/1.1/DTD/svg11.dtd">
<!-- Generated by graphviz version 2.26.3 (20100126.1600)
 -->
<!-- Title: G Pages: 1 -->
<svg width="402pt" height="30pt"
 viewBox="0.00 0.00 402.00 30.00" xmlns="http://www.w3.org/2000/svg" xmlns:xlink="http://www.w3.org/1999/xlink">
<g id="graph1" class="graph" transform="scale(1 1) rotate(0) translate(4 26)">
<title>G</title>
<polygon fill="white" stroke="white" points="-4,5 -4,-26 399,-26 399,5 -4,5"/>
<!-- Node1 -->
<g id="node1" class="node"><title>Node1</title>
<polygon fill="#bfbfbf" stroke="black" points="0,-0.5 0,-21.5 106,-21.5 106,-0.5 0,-0.5"/>
<text text-anchor="middle" x="53" y="-8.5" font-family="Helvetica,sans-Serif" font-size="10.00">typelib.isDipperType</text>
</g>
<!-- Node2 -->
<g id="node3" class="node"><title>Node2</title>
<a xlink:href="../../d6/d27/namespacetypelib.html#a7fa003bc8dc2bc6c4004e5147d257921" target="_top" xlink:title="typelib.build_interface">
<polygon fill="white" stroke="black" points="142.5,-0.5 142.5,-21.5 253.5,-21.5 253.5,-0.5 142.5,-0.5"/>
<text text-anchor="middle" x="198" y="-8.5" font-family="Helvetica,sans-Serif" font-size="10.00">typelib.build_interface</text>
</a>
</g>
<!-- Node1&#45;&gt;Node2 -->
<g id="edge2" class="edge"><title>Node1&#45;&gt;Node2</title>
<path fill="none" stroke="midnightblue" d="M116.27,-11C124.972,-11 133.853,-11 142.402,-11"/>
<polygon fill="midnightblue" stroke="midnightblue" points="116.169,-7.5001 106.169,-11 116.169,-14.5001 116.169,-7.5001"/>
</g>
<!-- Node3 -->
<g id="node5" class="node"><title>Node3</title>
<a xlink:href="../../d6/d27/namespacetypelib.html#a269cb025c7b3030cae5d3626bbc4668b" target="_top" xlink:title="typelib.write_typelib">
<polygon fill="white" stroke="black" points="290.5,-0.5 290.5,-21.5 393.5,-21.5 393.5,-0.5 290.5,-0.5"/>
<text text-anchor="middle" x="342" y="-8.5" font-family="Helvetica,sans-Serif" font-size="10.00">typelib.write_typelib</text>
</a>
</g>
<!-- Node2&#45;&gt;Node3 -->
<g id="edge4" class="edge"><title>Node2&#45;&gt;Node3</title>
<path fill="none" stroke="midnightblue" d="M263.945,-11C272.769,-11 281.715,-11 290.248,-11"/>
<polygon fill="midnightblue" stroke="midnightblue" points="263.674,-7.5001 253.674,-11 263.674,-14.5001 263.674,-7.5001"/>
</g>
</g>
</svg>
