<?xml version="1.0" encoding="UTF-8" standalone="no"?>
<!DOCTYPE svg PUBLIC "-//W3C//DTD SVG 1.1//EN"
 "http://www.w3.org/Graphics/SVG/1.1/DTD/svg11.dtd">
<!-- Generated by graphviz version 2.26.3 (20100126.1600)
 -->
<!-- Title: G Pages: 1 -->
<svg width="281pt" height="262pt"
 viewBox="0.00 0.00 281.00 262.00" xmlns="http://www.w3.org/2000/svg" xmlns:xlink="http://www.w3.org/1999/xlink">
<g id="graph1" class="graph" transform="scale(1 1) rotate(0) translate(4 258)">
<title>G</title>
<polygon fill="white" stroke="white" points="-4,5 -4,-258 278,-258 278,5 -4,5"/>
<!-- Node1 -->
<g id="node1" class="node"><title>Node1</title>
<polygon fill="#bfbfbf" stroke="black" points="60,-116.5 60,-137.5 130,-137.5 130,-116.5 60,-116.5"/>
<text text-anchor="middle" x="95" y="-124.5" font-family="Helvetica,sans-Serif" font-size="10.00">EventTarget</text>
</g>
<!-- Node5 -->
<g id="node9" class="node"><title>Node5</title>
<a xlink:href="../../d6/dfe/class_u_r_l.html" target="_top" xlink:title="URL">
<polygon fill="white" stroke="black" points="22.5,-58.5 22.5,-79.5 59.5,-79.5 59.5,-58.5 22.5,-58.5"/>
<text text-anchor="middle" x="41" y="-66.5" font-family="Helvetica,sans-Serif" font-size="10.00">URL</text>
</a>
</g>
<!-- Node1&#45;&gt;Node5 -->
<g id="edge8" class="edge"><title>Node1&#45;&gt;Node5</title>
<path fill="none" stroke="midnightblue" d="M78.083,-108.83C69.1245,-99.2078 58.4366,-87.7282 50.8416,-79.5707"/>
<polygon fill="midnightblue" stroke="midnightblue" points="75.7197,-111.428 85.0956,-116.362 80.843,-106.658 75.7197,-111.428"/>
</g>
<!-- Node6 -->
<g id="node11" class="node"><title>Node6</title>
<a xlink:href="../../d2/d72/class_x_m_l_http_request_event_target.html" target="_top" xlink:title="XMLHttpRequestEventTarget">
<polygon fill="white" stroke="black" points="77,-58.5 77,-79.5 223,-79.5 223,-58.5 77,-58.5"/>
<text text-anchor="middle" x="150" y="-66.5" font-family="Helvetica,sans-Serif" font-size="10.00">XMLHttpRequestEventTarget</text>
</a>
</g>
<!-- Node1&#45;&gt;Node6 -->
<g id="edge10" class="edge"><title>Node1&#45;&gt;Node6</title>
<path fill="none" stroke="midnightblue" d="M112.23,-108.83C121.355,-99.2078 132.24,-87.7282 139.976,-79.5707"/>
<polygon fill="midnightblue" stroke="midnightblue" points="109.429,-106.697 105.088,-116.362 114.508,-111.514 109.429,-106.697"/>
</g>
<!-- Node2 -->
<g id="node2" class="node"><title>Node2</title>
<a xlink:href="../../d6/d2a/class_d_o_m_binding_base.html" target="_top" xlink:title="DOMBindingBase">
<polygon fill="white" stroke="black" points="47.5,-174.5 47.5,-195.5 142.5,-195.5 142.5,-174.5 47.5,-174.5"/>
<text text-anchor="middle" x="95" y="-182.5" font-family="Helvetica,sans-Serif" font-size="10.00">DOMBindingBase</text>
</a>
</g>
<!-- Node2&#45;&gt;Node1 -->
<g id="edge2" class="edge"><title>Node2&#45;&gt;Node1</title>
<path fill="none" stroke="midnightblue" d="M95,-164.191C95,-155.168 95,-144.994 95,-137.571"/>
<polygon fill="midnightblue" stroke="midnightblue" points="91.5001,-164.362 95,-174.362 98.5001,-164.362 91.5001,-164.362"/>
</g>
<!-- Node3 -->
<g id="node4" class="node"><title>Node3</title>
<a xlink:href="../../d0/d7e/classns_wrapper_cache.html" target="_top" xlink:title="nsWrapperCache">
<polygon fill="white" stroke="black" points="0,-232.5 0,-253.5 92,-253.5 92,-232.5 0,-232.5"/>
<text text-anchor="middle" x="46" y="-240.5" font-family="Helvetica,sans-Serif" font-size="10.00">nsWrapperCache</text>
</a>
</g>
<!-- Node3&#45;&gt;Node2 -->
<g id="edge4" class="edge"><title>Node3&#45;&gt;Node2</title>
<path fill="none" stroke="midnightblue" d="M61.5949,-224.541C69.6733,-214.979 79.2468,-203.647 86.0696,-195.571"/>
<polygon fill="midnightblue" stroke="midnightblue" points="58.7673,-222.464 54.9874,-232.362 64.1145,-226.982 58.7673,-222.464"/>
</g>
<!-- Node4 -->
<g id="node6" class="node"><title>Node4</title>
<a xlink:href="../../d4/d6a/classns_i_supports.html" target="_top" xlink:title="nsISupports">
<polygon fill="white" stroke="black" points="109.5,-232.5 109.5,-253.5 178.5,-253.5 178.5,-232.5 109.5,-232.5"/>
<text text-anchor="middle" x="144" y="-240.5" font-family="Helvetica,sans-Serif" font-size="10.00">nsISupports</text>
</a>
</g>
<!-- Node4&#45;&gt;Node2 -->
<g id="edge6" class="edge"><title>Node4&#45;&gt;Node2</title>
<path fill="none" stroke="midnightblue" d="M128.405,-224.541C120.327,-214.979 110.753,-203.647 103.93,-195.571"/>
<polygon fill="midnightblue" stroke="midnightblue" points="125.885,-226.982 135.013,-232.362 131.233,-222.464 125.885,-226.982"/>
</g>
<!-- Node7 -->
<g id="node13" class="node"><title>Node7</title>
<a xlink:href="../../d9/d0a/class_x_m_l_http_request.html" target="_top" xlink:title="XMLHttpRequest">
<polygon fill="white" stroke="black" points="41,-0.5 41,-21.5 133,-21.5 133,-0.5 41,-0.5"/>
<text text-anchor="middle" x="87" y="-8.5" font-family="Helvetica,sans-Serif" font-size="10.00">XMLHttpRequest</text>
</a>
</g>
<!-- Node6&#45;&gt;Node7 -->
<g id="edge12" class="edge"><title>Node6&#45;&gt;Node7</title>
<path fill="none" stroke="midnightblue" d="M130.888,-51.405C120.312,-41.6683 107.52,-29.8914 98.4819,-21.5707"/>
<polygon fill="midnightblue" stroke="midnightblue" points="128.717,-54.1637 138.445,-58.3619 133.458,-49.0138 128.717,-54.1637"/>
</g>
<!-- Node8 -->
<g id="node15" class="node"><title>Node8</title>
<a xlink:href="../../d5/db2/class_x_m_l_http_request_upload.html" target="_top" xlink:title="XMLHttpRequestUpload">
<polygon fill="white" stroke="black" points="150.5,-0.5 150.5,-21.5 273.5,-21.5 273.5,-0.5 150.5,-0.5"/>
<text text-anchor="middle" x="212" y="-8.5" font-family="Helvetica,sans-Serif" font-size="10.00">XMLHttpRequestUpload</text>
</a>
</g>
<!-- Node6&#45;&gt;Node8 -->
<g id="edge14" class="edge"><title>Node6&#45;&gt;Node8</title>
<path fill="none" stroke="midnightblue" d="M168.808,-51.405C179.217,-41.6683 191.806,-29.8914 200.7,-21.5707"/>
<polygon fill="midnightblue" stroke="midnightblue" points="166.283,-48.9743 161.372,-58.3619 171.066,-54.0863 166.283,-48.9743"/>
</g>
</g>
</svg>
