<?xml version="1.0" encoding="UTF-8" standalone="no"?>
<!DOCTYPE svg PUBLIC "-//W3C//DTD SVG 1.1//EN"
 "http://www.w3.org/Graphics/SVG/1.1/DTD/svg11.dtd">
<!-- Generated by graphviz version 2.26.3 (20100126.1600)
 -->
<!-- Title: G Pages: 1 -->
<!--zoomable 320 -->
<svg id="main" version="1.1" xmlns="http://www.w3.org/2000/svg" xmlns:xlink="http://www.w3.org/1999/xlink" xml:space="preserve" onload="init(evt)">
        <defs>
                <circle id="rim" cx="0" cy="0" r="7"/>
                <circle id="rim2" cx="0" cy="0" r="3.5"/>
                <g id="zoomPlus">
                        <use xlink:href="#rim" fill="#404040">
                                <set attributeName="fill" to="#808080" begin="zoomplus.mouseover" end="zoomplus.mouseout"/>
                        </use>
                        <path d="M-4,0h8M0,-4v8" fill="none" stroke="white" stroke-width="1.5" pointer-events="none"/>
                </g>
                <g id="zoomMin">
                        <use xlink:href="#rim" fill="#404040">
                                <set attributeName="fill" to="#808080" begin="zoomminus.mouseover" end="zoomminus.mouseout"/>
                        </use>
                        <path d="M-4,0h8" fill="none" stroke="white" stroke-width="1.5" pointer-events="none"/>
                </g>
                <g id="dirArrow">
                        <path fill="none" stroke="white" stroke-width="1.5" d="M0,-3.0v7 M-2.5,-0.5L0,-3.0L2.5,-0.5"/>
                </g>
               <g id="resetDef">
                       <use xlink:href="#rim2" fill="#404040">
                               <set attributeName="fill" to="#808080" begin="reset.mouseover" end="reset.mouseout"/>
                       </use>
               </g>
        </defs>

<script type="text/javascript">
var viewWidth = 3471;
var viewHeight = 320;
var sectionId = 'dynsection-1';
</script>
<script xlink:href="../../svgpan.js"/>
<svg id="graph" class="graph">
<g id="viewport">
<title>G</title>
<polygon fill="white" stroke="white" points="-4,5 -4,-316 3468.41,-316 3468.41,5 -4,5"/>
<!-- Node1 -->
<g id="node1" class="node"><title>Node1</title>
<polygon fill="#bfbfbf" stroke="black" points="1432,-290.5 1432,-311.5 1944,-311.5 1944,-290.5 1432,-290.5"/>
<text text-anchor="middle" x="1688" y="-298.5" font-family="Helvetica,sans-Serif" font-size="10.00">/home/aoi/Documents/FxOS/B2G/gaia/xulrunner&#45;sdk/include/mozilla/dom/indexedDB/IndexedDatabaseManager.h</text>
</g>
<!-- Node2 -->
<g id="node3" class="node"><title>Node2</title>
<a xlink:href="../../d7/d56/_file_info_8h.html" target="_top" xlink:title="/home/aoi/Documents/FxOS/B2G/gaia/xulrunner&#45;sdk/include/mozilla/dom/indexedDB/FileInfo.h">
<polygon fill="white" stroke="black" points="1617,-232.5 1617,-253.5 2047,-253.5 2047,-232.5 1617,-232.5"/>
<text text-anchor="middle" x="1832" y="-240.5" font-family="Helvetica,sans-Serif" font-size="10.00">/home/aoi/Documents/FxOS/B2G/gaia/xulrunner&#45;sdk/include/mozilla/dom/indexedDB/FileInfo.h</text>
</a>
</g>
<!-- Node1&#45;&gt;Node2 -->
<g id="edge2" class="edge"><title>Node1&#45;&gt;Node2</title>
<path fill="none" stroke="midnightblue" d="M1723.38,-286.751C1748.81,-276.509 1782.54,-262.921 1805.63,-253.621"/>
<polygon fill="midnightblue" stroke="midnightblue" points="1722.05,-283.514 1714.08,-290.497 1724.66,-290.007 1722.05,-283.514"/>
</g>
<!-- Node3 -->
<g id="node5" class="node"><title>Node3</title>
<a xlink:href="../../de/d4c/ns_d_o_m_file_8h.html" target="_top" xlink:title="/home/aoi/Documents/FxOS/B2G/gaia/xulrunner&#45;sdk/include/nsDOMFile.h">
<polygon fill="white" stroke="black" points="1287.5,-174.5 1287.5,-195.5 1628.5,-195.5 1628.5,-174.5 1287.5,-174.5"/>
<text text-anchor="middle" x="1458" y="-182.5" font-family="Helvetica,sans-Serif" font-size="10.00">/home/aoi/Documents/FxOS/B2G/gaia/xulrunner&#45;sdk/include/nsDOMFile.h</text>
</a>
</g>
<!-- Node1&#45;&gt;Node3 -->
<g id="edge42" class="edge"><title>Node1&#45;&gt;Node3</title>
<path fill="none" stroke="midnightblue" d="M1657.61,-285.671C1610.14,-261.731 1519.63,-216.082 1478.84,-195.512"/>
<polygon fill="midnightblue" stroke="midnightblue" points="1656.27,-288.917 1666.77,-290.295 1659.42,-282.667 1656.27,-288.917"/>
</g>
<!-- Node2&#45;&gt;Node3 -->
<g id="edge4" class="edge"><title>Node2&#45;&gt;Node3</title>
<path fill="none" stroke="midnightblue" d="M1754.13,-230.923C1686.7,-220.468 1590.17,-205.497 1525.86,-195.523"/>
<polygon fill="midnightblue" stroke="midnightblue" points="1753.85,-234.423 1764.27,-232.497 1754.93,-227.505 1753.85,-234.423"/>
</g>
<!-- Node12 -->
<g id="node23" class="node"><title>Node12</title>
<a xlink:href="../../d7/d3a/_i_d_b_file_handle_8h.html" target="_top" xlink:title="/home/aoi/Documents/FxOS/B2G/gaia/xulrunner&#45;sdk/include/mozilla/dom/indexedDB/IDBFileHandle.h">
<polygon fill="white" stroke="black" points="1645.5,-174.5 1645.5,-195.5 2106.5,-195.5 2106.5,-174.5 1645.5,-174.5"/>
<text text-anchor="middle" x="1876" y="-182.5" font-family="Helvetica,sans-Serif" font-size="10.00">/home/aoi/Documents/FxOS/B2G/gaia/xulrunner&#45;sdk/include/mozilla/dom/indexedDB/IDBFileHandle.h</text>
</a>
</g>
<!-- Node2&#45;&gt;Node12 -->
<g id="edge22" class="edge"><title>Node2&#45;&gt;Node12</title>
<path fill="none" stroke="midnightblue" d="M1846.22,-224.25C1853.43,-214.75 1861.92,-203.565 1867.98,-195.571"/>
<polygon fill="midnightblue" stroke="midnightblue" points="1843.33,-222.28 1840.07,-232.362 1848.9,-226.51 1843.33,-222.28"/>
</g>
<!-- Node13 -->
<g id="node25" class="node"><title>Node13</title>
<a xlink:href="../../d5/d8e/_i_d_b_transaction_8h.html" target="_top" xlink:title="/home/aoi/Documents/FxOS/B2G/gaia/xulrunner&#45;sdk/include/mozilla/dom/indexedDB/IDBTransaction.h">
<polygon fill="white" stroke="black" points="2532,-174.5 2532,-195.5 2998,-195.5 2998,-174.5 2532,-174.5"/>
<text text-anchor="middle" x="2765" y="-182.5" font-family="Helvetica,sans-Serif" font-size="10.00">/home/aoi/Documents/FxOS/B2G/gaia/xulrunner&#45;sdk/include/mozilla/dom/indexedDB/IDBTransaction.h</text>
</a>
</g>
<!-- Node2&#45;&gt;Node13 -->
<g id="edge24" class="edge"><title>Node2&#45;&gt;Node13</title>
<path fill="none" stroke="midnightblue" d="M2011.19,-231.861C2179.8,-221.379 2430.42,-205.799 2595.72,-195.523"/>
<polygon fill="midnightblue" stroke="midnightblue" points="2010.72,-228.383 2000.96,-232.497 2011.16,-235.369 2010.72,-228.383"/>
</g>
<!-- Node4 -->
<g id="node7" class="node"><title>Node4</title>
<a xlink:href="../../dd/d31/_encoded_buffer_cache_8h.html" target="_top" xlink:title="/home/aoi/Documents/FxOS/B2G/gaia/xulrunner&#45;sdk/include/EncodedBufferCache.h">
<polygon fill="white" stroke="black" points="0,-116.5 0,-137.5 384,-137.5 384,-116.5 0,-116.5"/>
<text text-anchor="middle" x="192" y="-124.5" font-family="Helvetica,sans-Serif" font-size="10.00">/home/aoi/Documents/FxOS/B2G/gaia/xulrunner&#45;sdk/include/EncodedBufferCache.h</text>
</a>
</g>
<!-- Node3&#45;&gt;Node4 -->
<g id="edge6" class="edge"><title>Node3&#45;&gt;Node4</title>
<path fill="none" stroke="midnightblue" d="M1277.07,-177.598C1065.15,-168.794 703.546,-153.35 393,-138 389.771,-137.84 386.513,-137.678 383.233,-137.513"/>
<polygon fill="midnightblue" stroke="midnightblue" points="1277.22,-181.107 1287.36,-178.025 1277.51,-174.113 1277.22,-181.107"/>
</g>
<!-- Node6 -->
<g id="node11" class="node"><title>Node6</title>
<a xlink:href="../../de/d6e/_media_engine_web_r_t_c_8h.html" target="_top" xlink:title="/home/aoi/Documents/FxOS/B2G/gaia/xulrunner&#45;sdk/include/MediaEngineWebRTC.h">
<polygon fill="white" stroke="black" points="401.5,-116.5 401.5,-137.5 790.5,-137.5 790.5,-116.5 401.5,-116.5"/>
<text text-anchor="middle" x="596" y="-124.5" font-family="Helvetica,sans-Serif" font-size="10.00">/home/aoi/Documents/FxOS/B2G/gaia/xulrunner&#45;sdk/include/MediaEngineWebRTC.h</text>
</a>
</g>
<!-- Node3&#45;&gt;Node6 -->
<g id="edge10" class="edge"><title>Node3&#45;&gt;Node6</title>
<path fill="none" stroke="midnightblue" d="M1291.75,-173.814C1135.97,-163.332 904.887,-147.784 752.394,-137.523"/>
<polygon fill="midnightblue" stroke="midnightblue" points="1291.69,-177.317 1301.9,-174.497 1292.16,-170.333 1291.69,-177.317"/>
</g>
<!-- Node7 -->
<g id="node13" class="node"><title>Node7</title>
<a xlink:href="../../db/d5e/_archive_event_8h.html" target="_top" xlink:title="/home/aoi/Documents/FxOS/B2G/gaia/xulrunner&#45;sdk/include/mozilla/dom/file/ArchiveEvent.h">
<polygon fill="white" stroke="black" points="807.5,-116.5 807.5,-137.5 1228.5,-137.5 1228.5,-116.5 807.5,-116.5"/>
<text text-anchor="middle" x="1018" y="-124.5" font-family="Helvetica,sans-Serif" font-size="10.00">/home/aoi/Documents/FxOS/B2G/gaia/xulrunner&#45;sdk/include/mozilla/dom/file/ArchiveEvent.h</text>
</a>
</g>
<!-- Node3&#45;&gt;Node7 -->
<g id="edge12" class="edge"><title>Node3&#45;&gt;Node7</title>
<path fill="none" stroke="midnightblue" d="M1368.33,-173.18C1288.93,-162.714 1174.12,-147.579 1097.83,-137.523"/>
<polygon fill="midnightblue" stroke="midnightblue" points="1367.95,-176.66 1378.32,-174.497 1368.86,-169.72 1367.95,-176.66"/>
</g>
<!-- Node9 -->
<g id="node17" class="node"><title>Node9</title>
<a xlink:href="../../dd/d1d/_archive_zip_file_8h.html" target="_top" xlink:title="/home/aoi/Documents/FxOS/B2G/gaia/xulrunner&#45;sdk/include/mozilla/dom/file/ArchiveZipFile.h">
<polygon fill="white" stroke="black" points="1245.5,-116.5 1245.5,-137.5 1670.5,-137.5 1670.5,-116.5 1245.5,-116.5"/>
<text text-anchor="middle" x="1458" y="-124.5" font-family="Helvetica,sans-Serif" font-size="10.00">/home/aoi/Documents/FxOS/B2G/gaia/xulrunner&#45;sdk/include/mozilla/dom/file/ArchiveZipFile.h</text>
</a>
</g>
<!-- Node3&#45;&gt;Node9 -->
<g id="edge16" class="edge"><title>Node3&#45;&gt;Node9</title>
<path fill="none" stroke="midnightblue" d="M1458,-164.191C1458,-155.168 1458,-144.994 1458,-137.571"/>
<polygon fill="midnightblue" stroke="midnightblue" points="1454.5,-164.362 1458,-174.362 1461.5,-164.362 1454.5,-164.362"/>
</g>
<!-- Node10 -->
<g id="node19" class="node"><title>Node10</title>
<a xlink:href="../../df/d0c/_file_8h.html" target="_top" xlink:title="/home/aoi/Documents/FxOS/B2G/gaia/xulrunner&#45;sdk/include/mozilla/dom/file/File.h">
<polygon fill="white" stroke="black" points="1688,-116.5 1688,-137.5 2066,-137.5 2066,-116.5 1688,-116.5"/>
<text text-anchor="middle" x="1877" y="-124.5" font-family="Helvetica,sans-Serif" font-size="10.00">/home/aoi/Documents/FxOS/B2G/gaia/xulrunner&#45;sdk/include/mozilla/dom/file/File.h</text>
</a>
</g>
<!-- Node3&#45;&gt;Node10 -->
<g id="edge18" class="edge"><title>Node3&#45;&gt;Node10</title>
<path fill="none" stroke="midnightblue" d="M1543.85,-173.116C1619.44,-162.652 1728.48,-147.558 1800.98,-137.523"/>
<polygon fill="midnightblue" stroke="midnightblue" points="1543.3,-169.658 1533.88,-174.497 1544.26,-176.592 1543.3,-169.658"/>
</g>
<!-- Node11 -->
<g id="node21" class="node"><title>Node11</title>
<a xlink:href="../../dd/d48/_h_t_m_l_input_element_8h.html" target="_top" xlink:title="/home/aoi/Documents/FxOS/B2G/gaia/xulrunner&#45;sdk/include/mozilla/dom/HTMLInputElement.h">
<polygon fill="white" stroke="black" points="2083.5,-116.5 2083.5,-137.5 2514.5,-137.5 2514.5,-116.5 2083.5,-116.5"/>
<text text-anchor="middle" x="2299" y="-124.5" font-family="Helvetica,sans-Serif" font-size="10.00">/home/aoi/Documents/FxOS/B2G/gaia/xulrunner&#45;sdk/include/mozilla/dom/HTMLInputElement.h</text>
</a>
</g>
<!-- Node3&#45;&gt;Node11 -->
<g id="edge20" class="edge"><title>Node3&#45;&gt;Node11</title>
<path fill="none" stroke="midnightblue" d="M1620.66,-173.782C1772.63,-163.301 1997.79,-147.773 2146.42,-137.523"/>
<polygon fill="midnightblue" stroke="midnightblue" points="1620.03,-170.317 1610.3,-174.497 1620.52,-177.3 1620.03,-170.317"/>
</g>
<!-- Node5 -->
<g id="node9" class="node"><title>Node5</title>
<a xlink:href="../../d0/d81/_media_recorder_8h.html" target="_top" xlink:title="/home/aoi/Documents/FxOS/B2G/gaia/xulrunner&#45;sdk/include/MediaRecorder.h">
<polygon fill="white" stroke="black" points="13.5,-58.5 13.5,-79.5 370.5,-79.5 370.5,-58.5 13.5,-58.5"/>
<text text-anchor="middle" x="192" y="-66.5" font-family="Helvetica,sans-Serif" font-size="10.00">/home/aoi/Documents/FxOS/B2G/gaia/xulrunner&#45;sdk/include/MediaRecorder.h</text>
</a>
</g>
<!-- Node4&#45;&gt;Node5 -->
<g id="edge8" class="edge"><title>Node4&#45;&gt;Node5</title>
<path fill="none" stroke="midnightblue" d="M192,-106.191C192,-97.1684 192,-86.9941 192,-79.5707"/>
<polygon fill="midnightblue" stroke="midnightblue" points="188.5,-106.362 192,-116.362 195.5,-106.362 188.5,-106.362"/>
</g>
<!-- Node8 -->
<g id="node15" class="node"><title>Node8</title>
<a xlink:href="../../d6/d2a/_archive_zip_event_8h.html" target="_top" xlink:title="/home/aoi/Documents/FxOS/B2G/gaia/xulrunner&#45;sdk/include/mozilla/dom/file/ArchiveZipEvent.h">
<polygon fill="white" stroke="black" points="801,-58.5 801,-79.5 1235,-79.5 1235,-58.5 801,-58.5"/>
<text text-anchor="middle" x="1018" y="-66.5" font-family="Helvetica,sans-Serif" font-size="10.00">/home/aoi/Documents/FxOS/B2G/gaia/xulrunner&#45;sdk/include/mozilla/dom/file/ArchiveZipEvent.h</text>
</a>
</g>
<!-- Node7&#45;&gt;Node8 -->
<g id="edge14" class="edge"><title>Node7&#45;&gt;Node8</title>
<path fill="none" stroke="midnightblue" d="M1018,-106.191C1018,-97.1684 1018,-86.9941 1018,-79.5707"/>
<polygon fill="midnightblue" stroke="midnightblue" points="1014.5,-106.362 1018,-116.362 1021.5,-106.362 1014.5,-106.362"/>
</g>
<!-- Node14 -->
<g id="node27" class="node"><title>Node14</title>
<a xlink:href="../../d7/d33/_i_d_b_object_store_8h.html" target="_top" xlink:title="/home/aoi/Documents/FxOS/B2G/gaia/xulrunner&#45;sdk/include/mozilla/dom/indexedDB/IDBObjectStore.h">
<polygon fill="white" stroke="black" points="2531.5,-116.5 2531.5,-137.5 2998.5,-137.5 2998.5,-116.5 2531.5,-116.5"/>
<text text-anchor="middle" x="2765" y="-124.5" font-family="Helvetica,sans-Serif" font-size="10.00">/home/aoi/Documents/FxOS/B2G/gaia/xulrunner&#45;sdk/include/mozilla/dom/indexedDB/IDBObjectStore.h</text>
</a>
</g>
<!-- Node13&#45;&gt;Node14 -->
<g id="edge26" class="edge"><title>Node13&#45;&gt;Node14</title>
<path fill="none" stroke="midnightblue" d="M2765,-164.191C2765,-155.168 2765,-144.994 2765,-137.571"/>
<polygon fill="midnightblue" stroke="midnightblue" points="2761.5,-164.362 2765,-174.362 2768.5,-164.362 2761.5,-164.362"/>
</g>
<!-- Node16 -->
<g id="node31" class="node"><title>Node16</title>
<a xlink:href="../../dc/d28/_serialization_helpers_8h.html" target="_top" xlink:title="/home/aoi/Documents/FxOS/B2G/gaia/xulrunner&#45;sdk/include/mozilla/dom/indexedDB/SerializationHelpers.h">
<polygon fill="white" stroke="black" points="2059.5,-0.5 2059.5,-21.5 2544.5,-21.5 2544.5,-0.5 2059.5,-0.5"/>
<text text-anchor="middle" x="2302" y="-8.5" font-family="Helvetica,sans-Serif" font-size="10.00">/home/aoi/Documents/FxOS/B2G/gaia/xulrunner&#45;sdk/include/mozilla/dom/indexedDB/SerializationHelpers.h</text>
</a>
</g>
<!-- Node13&#45;&gt;Node16 -->
<g id="edge40" class="edge"><title>Node13&#45;&gt;Node16</title>
<path fill="none" stroke="midnightblue" d="M3008.33,-174.562C3232.37,-160.445 3520.57,-128.384 3453,-58 3422.05,-25.7641 2873.16,-15.6307 2544.72,-12.4503"/>
<polygon fill="midnightblue" stroke="midnightblue" points="3007.81,-171.088 2998.05,-175.201 3008.24,-178.074 3007.81,-171.088"/>
</g>
<!-- Node15 -->
<g id="node29" class="node"><title>Node15</title>
<a xlink:href="../../da/d25/_database_info_8h.html" target="_top" xlink:title="/home/aoi/Documents/FxOS/B2G/gaia/xulrunner&#45;sdk/include/mozilla/dom/indexedDB/DatabaseInfo.h">
<polygon fill="white" stroke="black" points="1606,-58.5 1606,-79.5 2062,-79.5 2062,-58.5 1606,-58.5"/>
<text text-anchor="middle" x="1834" y="-66.5" font-family="Helvetica,sans-Serif" font-size="10.00">/home/aoi/Documents/FxOS/B2G/gaia/xulrunner&#45;sdk/include/mozilla/dom/indexedDB/DatabaseInfo.h</text>
</a>
</g>
<!-- Node14&#45;&gt;Node15 -->
<g id="edge28" class="edge"><title>Node14&#45;&gt;Node15</title>
<path fill="none" stroke="midnightblue" d="M2586.2,-115.861C2417.95,-105.379 2167.86,-89.799 2002.91,-79.5231"/>
<polygon fill="midnightblue" stroke="midnightblue" points="2586.2,-119.368 2596.4,-116.497 2586.64,-112.382 2586.2,-119.368"/>
</g>
<!-- Node17 -->
<g id="node33" class="node"><title>Node17</title>
<a xlink:href="../../da/da0/_i_d_b_cursor_8h.html" target="_top" xlink:title="/home/aoi/Documents/FxOS/B2G/gaia/xulrunner&#45;sdk/include/mozilla/dom/indexedDB/IDBCursor.h">
<polygon fill="white" stroke="black" points="2080,-58.5 2080,-79.5 2524,-79.5 2524,-58.5 2080,-58.5"/>
<text text-anchor="middle" x="2302" y="-66.5" font-family="Helvetica,sans-Serif" font-size="10.00">/home/aoi/Documents/FxOS/B2G/gaia/xulrunner&#45;sdk/include/mozilla/dom/indexedDB/IDBCursor.h</text>
</a>
</g>
<!-- Node14&#45;&gt;Node17 -->
<g id="edge32" class="edge"><title>Node14&#45;&gt;Node17</title>
<path fill="none" stroke="midnightblue" d="M2671.15,-115.244C2587.59,-104.775 2466.44,-89.5993 2386,-79.5231"/>
<polygon fill="midnightblue" stroke="midnightblue" points="2670.8,-118.726 2681.15,-116.497 2671.67,-111.781 2670.8,-118.726"/>
</g>
<!-- Node18 -->
<g id="node36" class="node"><title>Node18</title>
<a xlink:href="../../db/df0/_i_d_b_events_8h.html" target="_top" xlink:title="/home/aoi/Documents/FxOS/B2G/gaia/xulrunner&#45;sdk/include/mozilla/dom/indexedDB/IDBEvents.h">
<polygon fill="white" stroke="black" points="2542,-58.5 2542,-79.5 2988,-79.5 2988,-58.5 2542,-58.5"/>
<text text-anchor="middle" x="2765" y="-66.5" font-family="Helvetica,sans-Serif" font-size="10.00">/home/aoi/Documents/FxOS/B2G/gaia/xulrunner&#45;sdk/include/mozilla/dom/indexedDB/IDBEvents.h</text>
</a>
</g>
<!-- Node14&#45;&gt;Node18 -->
<g id="edge36" class="edge"><title>Node14&#45;&gt;Node18</title>
<path fill="none" stroke="midnightblue" d="M2765,-106.191C2765,-97.1684 2765,-86.9941 2765,-79.5707"/>
<polygon fill="midnightblue" stroke="midnightblue" points="2761.5,-106.362 2765,-116.362 2768.5,-106.362 2761.5,-106.362"/>
</g>
<!-- Node19 -->
<g id="node38" class="node"><title>Node19</title>
<a xlink:href="../../d6/d59/_i_d_b_index_8h.html" target="_top" xlink:title="/home/aoi/Documents/FxOS/B2G/gaia/xulrunner&#45;sdk/include/mozilla/dom/indexedDB/IDBIndex.h">
<polygon fill="white" stroke="black" points="3005.5,-58.5 3005.5,-79.5 3444.5,-79.5 3444.5,-58.5 3005.5,-58.5"/>
<text text-anchor="middle" x="3225" y="-66.5" font-family="Helvetica,sans-Serif" font-size="10.00">/home/aoi/Documents/FxOS/B2G/gaia/xulrunner&#45;sdk/include/mozilla/dom/indexedDB/IDBIndex.h</text>
</a>
</g>
<!-- Node14&#45;&gt;Node19 -->
<g id="edge38" class="edge"><title>Node14&#45;&gt;Node19</title>
<path fill="none" stroke="midnightblue" d="M2858.24,-115.244C2941.26,-104.775 3061.63,-89.5993 3141.54,-79.5231"/>
<polygon fill="midnightblue" stroke="midnightblue" points="2857.79,-111.773 2848.3,-116.497 2858.66,-118.718 2857.79,-111.773"/>
</g>
<!-- Node15&#45;&gt;Node16 -->
<g id="edge30" class="edge"><title>Node15&#45;&gt;Node16</title>
<path fill="none" stroke="midnightblue" d="M1928.86,-57.244C2013.33,-46.7755 2135.79,-31.5993 2217.09,-21.5231"/>
<polygon fill="midnightblue" stroke="midnightblue" points="1928.24,-53.7932 1918.75,-58.4966 1929.11,-60.7401 1928.24,-53.7932"/>
</g>
<!-- Node17&#45;&gt;Node16 -->
<g id="edge34" class="edge"><title>Node17&#45;&gt;Node16</title>
<path fill="none" stroke="midnightblue" d="M2302,-48.1906C2302,-39.1684 2302,-28.9941 2302,-21.5707"/>
<polygon fill="midnightblue" stroke="midnightblue" points="2298.5,-48.3619 2302,-58.3619 2305.5,-48.3619 2298.5,-48.3619"/>
</g>
</g>
</svg>
        <g id="navigator" transform="translate(0 0)" fill="#404254">
                <rect fill="#f2f5e9" fill-opacity="0.5" stroke="#606060" stroke-width=".5" x="0" y="0" width="60" height="60"/>
                <use id="zoomplus" xlink:href="#zoomPlus" x="17" y="9" onmousedown="handleZoom(evt,'in')"/>
                <use id="zoomminus" xlink:href="#zoomMin" x="42" y="9" onmousedown="handleZoom(evt,'out')"/>
                <use id="reset" xlink:href="#resetDef" x="30" y="36" onmousedown="handleReset()"/>
                <g id="arrowUp" xlink:href="#dirArrow" transform="translate(30 24)" onmousedown="handlePan(0,-1)">
                  <use xlink:href="#rim" fill="#404040">
                        <set attributeName="fill" to="#808080" begin="arrowUp.mouseover" end="arrowUp.mouseout"/>
                  </use>
                  <path fill="none" stroke="white" stroke-width="1.5" d="M0,-3.0v7 M-2.5,-0.5L0,-3.0L2.5,-0.5"/>
                </g>
                <g id="arrowRight" xlink:href="#dirArrow" transform="rotate(90) translate(36 -43)" onmousedown="handlePan(1,0)">
                  <use xlink:href="#rim" fill="#404040">
                        <set attributeName="fill" to="#808080" begin="arrowRight.mouseover" end="arrowRight.mouseout"/>
                  </use>
                  <path fill="none" stroke="white" stroke-width="1.5" d="M0,-3.0v7 M-2.5,-0.5L0,-3.0L2.5,-0.5"/>
                </g>
                <g id="arrowDown" xlink:href="#dirArrow" transform="rotate(180) translate(-30 -48)" onmousedown="handlePan(0,1)">
                  <use xlink:href="#rim" fill="#404040">
                        <set attributeName="fill" to="#808080" begin="arrowDown.mouseover" end="arrowDown.mouseout"/>
                  </use>
                  <path fill="none" stroke="white" stroke-width="1.5" d="M0,-3.0v7 M-2.5,-0.5L0,-3.0L2.5,-0.5"/>
                </g>
                <g id="arrowLeft" xlink:href="#dirArrow" transform="rotate(270) translate(-36 17)" onmousedown="handlePan(-1,0)">
                  <use xlink:href="#rim" fill="#404040">
                        <set attributeName="fill" to="#808080" begin="arrowLeft.mouseover" end="arrowLeft.mouseout"/>
                  </use>
                  <path fill="none" stroke="white" stroke-width="1.5" d="M0,-3.0v7 M-2.5,-0.5L0,-3.0L2.5,-0.5"/>
                </g>
        </g>
</svg>
