<?xml version="1.0" encoding="UTF-8" standalone="no"?>
<!DOCTYPE svg PUBLIC "-//W3C//DTD SVG 1.1//EN"
 "http://www.w3.org/Graphics/SVG/1.1/DTD/svg11.dtd">
<!-- Generated by graphviz version 2.26.3 (20100126.1600)
 -->
<!-- Title: G Pages: 1 -->
<svg width="332pt" height="70pt"
 viewBox="0.00 0.00 332.00 70.00" xmlns="http://www.w3.org/2000/svg" xmlns:xlink="http://www.w3.org/1999/xlink">
<g id="graph1" class="graph" transform="scale(1 1) rotate(0) translate(4 66)">
<title>G</title>
<polygon fill="white" stroke="white" points="-4,5 -4,-66 329,-66 329,5 -4,5"/>
<!-- Node1 -->
<g id="node1" class="node"><title>Node1</title>
<polygon fill="#bfbfbf" stroke="black" points="0.5,-20.5 0.5,-41.5 137.5,-41.5 137.5,-20.5 0.5,-20.5"/>
<text text-anchor="middle" x="69" y="-28.5" font-family="Helvetica,sans-Serif" font-size="10.00">mozilla::Version::operator!=</text>
</g>
<!-- Node2 -->
<g id="node3" class="node"><title>Node2</title>
<a xlink:href="../../d2/d93/namespacemozilla.html#a62332a26b57a673c329844163d4bcf1e" target="_top" xlink:title="mozilla::CompareVersions">
<polygon fill="white" stroke="black" points="183.5,-40.5 183.5,-61.5 314.5,-61.5 314.5,-40.5 183.5,-40.5"/>
<text text-anchor="middle" x="249" y="-48.5" font-family="Helvetica,sans-Serif" font-size="10.00">mozilla::CompareVersions</text>
</a>
</g>
<!-- Node1&#45;&gt;Node2 -->
<g id="edge2" class="edge"><title>Node1&#45;&gt;Node2</title>
<path fill="none" stroke="midnightblue" d="M137.564,-38.6182C149.167,-39.9074 161.275,-41.2528 173.053,-42.5615"/>
<polygon fill="midnightblue" stroke="midnightblue" points="172.973,-46.074 183.299,-43.6998 173.746,-39.1169 172.973,-46.074"/>
</g>
<!-- Node3 -->
<g id="node5" class="node"><title>Node3</title>
<a xlink:href="../../d5/d47/structmozilla_1_1_version.html#ae1bd2872f1a3475ba5981c831e36a2e9" target="_top" xlink:title="mozilla::Version::ReadContent">
<polygon fill="white" stroke="black" points="174,-0.5 174,-21.5 324,-21.5 324,-0.5 174,-0.5"/>
<text text-anchor="middle" x="249" y="-8.5" font-family="Helvetica,sans-Serif" font-size="10.00">mozilla::Version::ReadContent</text>
</a>
</g>
<!-- Node1&#45;&gt;Node3 -->
<g id="edge4" class="edge"><title>Node1&#45;&gt;Node3</title>
<path fill="none" stroke="midnightblue" d="M137.564,-23.3818C146.061,-22.4376 154.83,-21.4634 163.541,-20.4954"/>
<polygon fill="midnightblue" stroke="midnightblue" points="164.17,-23.9472 173.722,-19.3642 163.397,-16.99 164.17,-23.9472"/>
</g>
</g>
</svg>
