<?xml version="1.0" encoding="UTF-8" standalone="no"?>
<!DOCTYPE svg PUBLIC "-//W3C//DTD SVG 1.1//EN"
 "http://www.w3.org/Graphics/SVG/1.1/DTD/svg11.dtd">
<!-- Generated by graphviz version 2.26.3 (20100126.1600)
 -->
<!-- Title: G Pages: 1 -->
<svg width="432pt" height="84pt"
 viewBox="0.00 0.00 432.00 83.82" xmlns="http://www.w3.org/2000/svg" xmlns:xlink="http://www.w3.org/1999/xlink">
<g id="graph1" class="graph" transform="scale(1 1) rotate(0) translate(4 79.8213)">
<title>G</title>
<polygon fill="white" stroke="white" points="-4,5 -4,-79.8213 429,-79.8213 429,5 -4,5"/>
<!-- Node1 -->
<g id="node1" class="node"><title>Node1</title>
<polygon fill="#bfbfbf" stroke="black" points="0,-15.3213 0,-36.3213 94,-36.3213 94,-15.3213 0,-15.3213"/>
<text text-anchor="middle" x="47" y="-23.3213" font-family="Helvetica,sans-Serif" font-size="10.00">buildSearchQuery</text>
</g>
<!-- Node2 -->
<g id="node3" class="node"><title>Node2</title>
<a xlink:href="../../dc/d5e/apps_2email_2js_2ext_2mailapi_2imap_2probe_8js.html#abcd08625ae0ec62657961ab7570b3ebb" target="_top" xlink:title="buildSearchQuery">
<polygon fill="white" stroke="black" points="130,-54.3213 130,-75.3213 224,-75.3213 224,-54.3213 130,-54.3213"/>
<text text-anchor="middle" x="177" y="-62.3213" font-family="Helvetica,sans-Serif" font-size="10.00">buildSearchQuery</text>
</a>
</g>
<!-- Node1&#45;&gt;Node2 -->
<g id="edge2" class="edge"><title>Node1&#45;&gt;Node2</title>
<path fill="none" stroke="midnightblue" d="M82.1799,-36.3752C97.4986,-40.9709 115.638,-46.4128 131.929,-51.3001"/>
<polygon fill="midnightblue" stroke="midnightblue" points="131.208,-54.7377 141.792,-54.2589 133.219,-48.0329 131.208,-54.7377"/>
</g>
<!-- Node3 -->
<g id="node5" class="node"><title>Node3</title>
<a xlink:href="../../d1/d22/ical_8js.html#a6053319846c80bf9561a1958bb817380" target="_top" xlink:title="typeof">
<polygon fill="white" stroke="black" points="380,-16.3213 380,-37.3213 424,-37.3213 424,-16.3213 380,-16.3213"/>
<text text-anchor="middle" x="402" y="-24.3213" font-family="Helvetica,sans-Serif" font-size="10.00">typeof</text>
</a>
</g>
<!-- Node1&#45;&gt;Node3 -->
<g id="edge10" class="edge"><title>Node1&#45;&gt;Node3</title>
<path fill="none" stroke="midnightblue" d="M94.1496,-16.191C153.015,-5.68075 256.608,7.82319 344,-6.82128 352.758,-8.28895 361.964,-10.922 370.396,-13.8057"/>
<polygon fill="midnightblue" stroke="midnightblue" points="369.273,-17.1214 379.867,-17.2512 371.666,-10.5432 369.273,-17.1214"/>
</g>
<!-- Node4 -->
<g id="node7" class="node"><title>Node4</title>
<a xlink:href="../../dc/d5e/apps_2email_2js_2ext_2mailapi_2imap_2probe_8js.html#af2882f96708c5c81ff2d63ecf7225382" target="_top" xlink:title="validateUIDList">
<polygon fill="white" stroke="black" points="260,-16.3213 260,-37.3213 344,-37.3213 344,-16.3213 260,-16.3213"/>
<text text-anchor="middle" x="302" y="-24.3213" font-family="Helvetica,sans-Serif" font-size="10.00">validateUIDList</text>
</a>
</g>
<!-- Node1&#45;&gt;Node4 -->
<g id="edge12" class="edge"><title>Node1&#45;&gt;Node4</title>
<path fill="none" stroke="midnightblue" d="M94.0681,-26.0059C138.219,-26.179 204.117,-26.4374 249.848,-26.6168"/>
<polygon fill="midnightblue" stroke="midnightblue" points="249.846,-30.1167 259.86,-26.656 249.873,-23.1167 249.846,-30.1167"/>
</g>
<!-- Node2&#45;&gt;Node3 -->
<g id="edge4" class="edge"><title>Node2&#45;&gt;Node3</title>
<path fill="none" stroke="midnightblue" d="M224.25,-62.564C257.946,-60.2683 304.156,-55.7192 344,-46.8213 352.667,-44.8858 361.841,-42.0896 370.272,-39.1986"/>
<polygon fill="midnightblue" stroke="midnightblue" points="371.516,-42.4708 379.753,-35.8073 369.158,-35.8798 371.516,-42.4708"/>
</g>
<!-- Node2&#45;&gt;Node4 -->
<g id="edge6" class="edge"><title>Node2&#45;&gt;Node4</title>
<path fill="none" stroke="midnightblue" d="M211.819,-54.2362C226.042,-49.9126 242.66,-44.8606 257.729,-40.2796"/>
<polygon fill="midnightblue" stroke="midnightblue" points="258.818,-43.607 267.367,-37.3496 256.782,-36.9096 258.818,-43.607"/>
</g>
<!-- Node4&#45;&gt;Node3 -->
<g id="edge8" class="edge"><title>Node4&#45;&gt;Node3</title>
<path fill="none" stroke="midnightblue" d="M344.119,-26.8213C352.655,-26.8213 361.506,-26.8213 369.642,-26.8213"/>
<polygon fill="midnightblue" stroke="midnightblue" points="369.839,-30.3214 379.839,-26.8213 369.839,-23.3214 369.839,-30.3214"/>
</g>
</g>
</svg>
