<?xml version="1.0" encoding="UTF-8" standalone="no"?>
<!DOCTYPE svg PUBLIC "-//W3C//DTD SVG 1.1//EN"
 "http://www.w3.org/Graphics/SVG/1.1/DTD/svg11.dtd">
<!-- Generated by graphviz version 2.26.3 (20100126.1600)
 -->
<!-- Title: G Pages: 1 -->
<svg width="228pt" height="262pt"
 viewBox="0.00 0.00 228.00 262.00" xmlns="http://www.w3.org/2000/svg" xmlns:xlink="http://www.w3.org/1999/xlink">
<g id="graph1" class="graph" transform="scale(1 1) rotate(0) translate(4 258)">
<title>G</title>
<polygon fill="white" stroke="white" points="-4,5 -4,-258 225,-258 225,5 -4,5"/>
<!-- Node1 -->
<g id="node1" class="node"><title>Node1</title>
<polygon fill="#bfbfbf" stroke="black" points="67.5,-58.5 67.5,-79.5 148.5,-79.5 148.5,-58.5 67.5,-58.5"/>
<text text-anchor="middle" x="108" y="-66.5" font-family="Helvetica,sans-Serif" font-size="10.00">SkDrawLooper</text>
</g>
<!-- Node5 -->
<g id="node9" class="node"><title>Node5</title>
<a xlink:href="../../db/d3c/class_sk_blur_draw_looper.html" target="_top" xlink:title="SkBlurDrawLooper">
<polygon fill="white" stroke="black" points="0,-0.5 0,-21.5 98,-21.5 98,-0.5 0,-0.5"/>
<text text-anchor="middle" x="49" y="-8.5" font-family="Helvetica,sans-Serif" font-size="10.00">SkBlurDrawLooper</text>
</a>
</g>
<!-- Node1&#45;&gt;Node5 -->
<g id="edge8" class="edge"><title>Node1&#45;&gt;Node5</title>
<path fill="none" stroke="midnightblue" d="M89.8097,-51.118C79.9625,-41.4377 68.1341,-29.8098 59.7529,-21.5707"/>
<polygon fill="midnightblue" stroke="midnightblue" points="87.5936,-53.8474 97.1785,-58.3619 92.5009,-48.8556 87.5936,-53.8474"/>
</g>
<!-- Node6 -->
<g id="node11" class="node"><title>Node6</title>
<a xlink:href="../../d6/dc8/class_sk_layer_draw_looper.html" target="_top" xlink:title="SkLayerDrawLooper">
<polygon fill="white" stroke="black" points="115.5,-0.5 115.5,-21.5 220.5,-21.5 220.5,-0.5 115.5,-0.5"/>
<text text-anchor="middle" x="168" y="-8.5" font-family="Helvetica,sans-Serif" font-size="10.00">SkLayerDrawLooper</text>
</a>
</g>
<!-- Node1&#45;&gt;Node6 -->
<g id="edge10" class="edge"><title>Node1&#45;&gt;Node6</title>
<path fill="none" stroke="midnightblue" d="M126.202,-51.405C136.274,-41.6683 148.457,-29.8914 157.065,-21.5707"/>
<polygon fill="midnightblue" stroke="midnightblue" points="123.762,-48.8952 119.005,-58.3619 128.627,-53.9281 123.762,-48.8952"/>
</g>
<!-- Node2 -->
<g id="node2" class="node"><title>Node2</title>
<a xlink:href="../../dd/d75/class_sk_flattenable.html" target="_top" xlink:title="SkFlattenable">
<polygon fill="white" stroke="black" points="69.5,-116.5 69.5,-137.5 146.5,-137.5 146.5,-116.5 69.5,-116.5"/>
<text text-anchor="middle" x="108" y="-124.5" font-family="Helvetica,sans-Serif" font-size="10.00">SkFlattenable</text>
</a>
</g>
<!-- Node2&#45;&gt;Node1 -->
<g id="edge2" class="edge"><title>Node2&#45;&gt;Node1</title>
<path fill="none" stroke="midnightblue" d="M108,-106.191C108,-97.1684 108,-86.9941 108,-79.5707"/>
<polygon fill="midnightblue" stroke="midnightblue" points="104.5,-106.362 108,-116.362 111.5,-106.362 104.5,-106.362"/>
</g>
<!-- Node3 -->
<g id="node4" class="node"><title>Node3</title>
<a xlink:href="../../da/dec/class_sk_ref_cnt.html" target="_top" xlink:title="SkRefCnt">
<polygon fill="white" stroke="black" points="78,-174.5 78,-195.5 138,-195.5 138,-174.5 78,-174.5"/>
<text text-anchor="middle" x="108" y="-182.5" font-family="Helvetica,sans-Serif" font-size="10.00">SkRefCnt</text>
</a>
</g>
<!-- Node3&#45;&gt;Node2 -->
<g id="edge4" class="edge"><title>Node3&#45;&gt;Node2</title>
<path fill="none" stroke="midnightblue" d="M108,-164.191C108,-155.168 108,-144.994 108,-137.571"/>
<polygon fill="midnightblue" stroke="midnightblue" points="104.5,-164.362 108,-174.362 111.5,-164.362 104.5,-164.362"/>
</g>
<!-- Node4 -->
<g id="node6" class="node"><title>Node4</title>
<a xlink:href="../../d2/ddd/class_sk_noncopyable.html" target="_top" xlink:title="SkNoncopyable">
<polygon fill="white" stroke="black" points="65,-232.5 65,-253.5 151,-253.5 151,-232.5 65,-232.5"/>
<text text-anchor="middle" x="108" y="-240.5" font-family="Helvetica,sans-Serif" font-size="10.00">SkNoncopyable</text>
</a>
</g>
<!-- Node4&#45;&gt;Node3 -->
<g id="edge6" class="edge"><title>Node4&#45;&gt;Node3</title>
<path fill="none" stroke="#8b1a1a" d="M108,-222.191C108,-213.168 108,-202.994 108,-195.571"/>
<polygon fill="#8b1a1a" stroke="#8b1a1a" points="104.5,-222.362 108,-232.362 111.5,-222.362 104.5,-222.362"/>
</g>
</g>
</svg>
