<?xml version="1.0" encoding="UTF-8" standalone="no"?>
<!DOCTYPE svg PUBLIC "-//W3C//DTD SVG 1.1//EN"
 "http://www.w3.org/Graphics/SVG/1.1/DTD/svg11.dtd">
<!-- Generated by graphviz version 2.26.3 (20100126.1600)
 -->
<!-- Title: G Pages: 1 -->
<svg width="185pt" height="222pt"
 viewBox="0.00 0.00 185.00 222.00" xmlns="http://www.w3.org/2000/svg" xmlns:xlink="http://www.w3.org/1999/xlink">
<g id="graph1" class="graph" transform="scale(1 1) rotate(0) translate(4 218)">
<title>G</title>
<polygon fill="white" stroke="white" points="-4,5 -4,-218 182,-218 182,5 -4,5"/>
<!-- Node1 -->
<g id="node1" class="node"><title>Node1</title>
<polygon fill="#bfbfbf" stroke="black" points="81.5,-0.5 81.5,-21.5 142.5,-21.5 142.5,-0.5 81.5,-0.5"/>
<text text-anchor="middle" x="112" y="-8.5" font-family="Helvetica,sans-Serif" font-size="10.00">GrSurface</text>
</g>
<!-- Node2 -->
<g id="node2" class="node"><title>Node2</title>
<a xlink:href="../../d0/d18/class_gr_resource.html" target="_top" xlink:title="GrResource">
<polygon fill="white" stroke="black" points="8.5,-72.5 8.5,-93.5 77.5,-93.5 77.5,-72.5 8.5,-72.5"/>
<text text-anchor="middle" x="43" y="-80.5" font-family="Helvetica,sans-Serif" font-size="10.00">GrResource</text>
</a>
</g>
<!-- Node2&#45;&gt;Node1 -->
<g id="edge2" class="edge"><title>Node2&#45;&gt;Node1</title>
<path fill="none" stroke="midnightblue" d="M60.281,-64.9677C73.351,-51.3294 90.8549,-33.0644 101.777,-21.6674"/>
<polygon fill="midnightblue" stroke="midnightblue" points="57.5733,-62.7346 53.1812,-72.3762 62.6272,-67.5779 57.5733,-62.7346"/>
</g>
<!-- Node3 -->
<g id="node4" class="node"><title>Node3</title>
<a xlink:href="../../da/dec/class_sk_ref_cnt.html" target="_top" xlink:title="GrRefCnt">
<polygon fill="white" stroke="black" points="13.5,-132.5 13.5,-153.5 72.5,-153.5 72.5,-132.5 13.5,-132.5"/>
<text text-anchor="middle" x="43" y="-140.5" font-family="Helvetica,sans-Serif" font-size="10.00">GrRefCnt</text>
</a>
</g>
<!-- Node3&#45;&gt;Node2 -->
<g id="edge4" class="edge"><title>Node3&#45;&gt;Node2</title>
<path fill="none" stroke="midnightblue" d="M43,-122.231C43,-112.592 43,-101.544 43,-93.6339"/>
<polygon fill="midnightblue" stroke="midnightblue" points="39.5001,-122.273 43,-132.273 46.5001,-122.273 39.5001,-122.273"/>
</g>
<!-- Node4 -->
<g id="node6" class="node"><title>Node4</title>
<a xlink:href="../../d2/ddd/class_sk_noncopyable.html" target="_top" xlink:title="SkNoncopyable">
<polygon fill="white" stroke="black" points="0,-192.5 0,-213.5 86,-213.5 86,-192.5 0,-192.5"/>
<text text-anchor="middle" x="43" y="-200.5" font-family="Helvetica,sans-Serif" font-size="10.00">SkNoncopyable</text>
</a>
</g>
<!-- Node4&#45;&gt;Node3 -->
<g id="edge6" class="edge"><title>Node4&#45;&gt;Node3</title>
<path fill="none" stroke="#8b1a1a" d="M43,-182.231C43,-172.592 43,-161.544 43,-153.634"/>
<polygon fill="#8b1a1a" stroke="#8b1a1a" points="39.5001,-182.273 43,-192.273 46.5001,-182.273 39.5001,-182.273"/>
</g>
<!-- Node5 -->
<g id="node8" class="node"><title>Node5</title>
<a xlink:href="../../d5/d17/struct_gr_texture_desc.html" target="_top" xlink:title="GrTextureDesc">
<polygon fill="white" stroke="black" points="94.5,-72.5 94.5,-93.5 177.5,-93.5 177.5,-72.5 94.5,-72.5"/>
<text text-anchor="middle" x="136" y="-80.5" font-family="Helvetica,sans-Serif" font-size="10.00">GrTextureDesc</text>
</a>
</g>
<!-- Node5&#45;&gt;Node1 -->
<g id="edge8" class="edge"><title>Node5&#45;&gt;Node1</title>
<path fill="none" stroke="#9a32cd" stroke-dasharray="5,2" d="M129.211,-62.6318C124.768,-49.3026 119.142,-32.4253 115.556,-21.6674"/>
<polygon fill="#9a32cd" stroke="#9a32cd" points="125.976,-63.9961 132.459,-72.3762 132.617,-61.7825 125.976,-63.9961"/>
<text text-anchor="middle" x="141" y="-44.5" font-family="Helvetica,sans-Serif" font-size="10.00"> fDesc</text>
</g>
</g>
</svg>
