<?xml version="1.0" encoding="UTF-8" standalone="no"?>
<!DOCTYPE svg PUBLIC "-//W3C//DTD SVG 1.1//EN"
 "http://www.w3.org/Graphics/SVG/1.1/DTD/svg11.dtd">
<!-- Generated by graphviz version 2.26.3 (20100126.1600)
 -->
<!-- Title: G Pages: 1 -->
<!--zoomable 916 -->
<svg id="main" version="1.1" xmlns="http://www.w3.org/2000/svg" xmlns:xlink="http://www.w3.org/1999/xlink" xml:space="preserve" onload="init(evt)">
        <defs>
                <circle id="rim" cx="0" cy="0" r="7"/>
                <circle id="rim2" cx="0" cy="0" r="3.5"/>
                <g id="zoomPlus">
                        <use xlink:href="#rim" fill="#404040">
                                <set attributeName="fill" to="#808080" begin="zoomplus.mouseover" end="zoomplus.mouseout"/>
                        </use>
                        <path d="M-4,0h8M0,-4v8" fill="none" stroke="white" stroke-width="1.5" pointer-events="none"/>
                </g>
                <g id="zoomMin">
                        <use xlink:href="#rim" fill="#404040">
                                <set attributeName="fill" to="#808080" begin="zoomminus.mouseover" end="zoomminus.mouseout"/>
                        </use>
                        <path d="M-4,0h8" fill="none" stroke="white" stroke-width="1.5" pointer-events="none"/>
                </g>
                <g id="dirArrow">
                        <path fill="none" stroke="white" stroke-width="1.5" d="M0,-3.0v7 M-2.5,-0.5L0,-3.0L2.5,-0.5"/>
                </g>
               <g id="resetDef">
                       <use xlink:href="#rim2" fill="#404040">
                               <set attributeName="fill" to="#808080" begin="reset.mouseover" end="reset.mouseout"/>
                       </use>
               </g>
        </defs>

<script type="text/javascript">
var viewWidth = 1957;
var viewHeight = 916;
var sectionId = 'dynsection-1';
</script>
<script xlink:href="../../svgpan.js"/>
<svg id="graph" class="graph">
<g id="viewport">
<title>G</title>
<polygon fill="white" stroke="white" points="-4,5 -4,-912 1954,-912 1954,5 -4,5"/>
<!-- Node1 -->
<g id="node1" class="node"><title>Node1</title>
<polygon fill="#bfbfbf" stroke="black" points="1419.5,-0.5 1419.5,-21.5 1510.5,-21.5 1510.5,-0.5 1419.5,-0.5"/>
<text text-anchor="middle" x="1465" y="-8.5" font-family="Helvetica,sans-Serif" font-size="10.00">nsStyledElement</text>
</g>
<!-- Node2 -->
<g id="node2" class="node"><title>Node2</title>
<a xlink:href="../../dc/d07/classns_styled_element_not_element_c_s_s_inline_style.html" target="_top" xlink:title="nsStyledElementNotElementCSSInlineStyle">
<polygon fill="white" stroke="black" points="1360.5,-60.5 1360.5,-81.5 1569.5,-81.5 1569.5,-60.5 1360.5,-60.5"/>
<text text-anchor="middle" x="1465" y="-68.5" font-family="Helvetica,sans-Serif" font-size="10.00">nsStyledElementNotElementCSSInlineStyle</text>
</a>
</g>
<!-- Node2&#45;&gt;Node1 -->
<g id="edge2" class="edge"><title>Node2&#45;&gt;Node1</title>
<path fill="none" stroke="midnightblue" d="M1465,-50.2312C1465,-40.5922 1465,-29.5444 1465,-21.6339"/>
<polygon fill="midnightblue" stroke="midnightblue" points="1461.5,-50.2732 1465,-60.2732 1468.5,-50.2732 1461.5,-50.2732"/>
</g>
<!-- Node3 -->
<g id="node4" class="node"><title>Node3</title>
<a xlink:href="../../de/da4/classmozilla_1_1dom_1_1_element.html" target="_top" xlink:title="nsStyledElementBase">
<polygon fill="white" stroke="black" points="1408.5,-122.5 1408.5,-143.5 1521.5,-143.5 1521.5,-122.5 1408.5,-122.5"/>
<text text-anchor="middle" x="1465" y="-130.5" font-family="Helvetica,sans-Serif" font-size="10.00">nsStyledElementBase</text>
</a>
</g>
<!-- Node3&#45;&gt;Node2 -->
<g id="edge4" class="edge"><title>Node3&#45;&gt;Node2</title>
<path fill="none" stroke="midnightblue" d="M1465,-112.299C1465,-102.079 1465,-90.1727 1465,-81.7774"/>
<polygon fill="midnightblue" stroke="midnightblue" points="1461.5,-112.483 1465,-122.483 1468.5,-112.483 1461.5,-112.483"/>
</g>
<!-- Node4 -->
<g id="node6" class="node"><title>Node4</title>
<a xlink:href="../../df/da2/classmozilla_1_1dom_1_1_fragment_or_element.html" target="_top" xlink:title="mozilla::dom::FragmentOrElement">
<polygon fill="white" stroke="black" points="1382,-205.5 1382,-226.5 1548,-226.5 1548,-205.5 1382,-205.5"/>
<text text-anchor="middle" x="1465" y="-213.5" font-family="Helvetica,sans-Serif" font-size="10.00">mozilla::dom::FragmentOrElement</text>
</a>
</g>
<!-- Node4&#45;&gt;Node3 -->
<g id="edge6" class="edge"><title>Node4&#45;&gt;Node3</title>
<path fill="none" stroke="midnightblue" d="M1465,-195.258C1465,-178.873 1465,-156.674 1465,-143.689"/>
<polygon fill="midnightblue" stroke="midnightblue" points="1461.5,-195.488 1465,-205.488 1468.5,-195.488 1461.5,-195.488"/>
</g>
<!-- Node5 -->
<g id="node8" class="node"><title>Node5</title>
<a xlink:href="../../d7/d68/classns_i_content.html" target="_top" xlink:title="nsIContent">
<polygon fill="white" stroke="black" points="1297.5,-307.5 1297.5,-328.5 1362.5,-328.5 1362.5,-307.5 1297.5,-307.5"/>
<text text-anchor="middle" x="1330" y="-315.5" font-family="Helvetica,sans-Serif" font-size="10.00">nsIContent</text>
</a>
</g>
<!-- Node5&#45;&gt;Node4 -->
<g id="edge8" class="edge"><title>Node5&#45;&gt;Node4</title>
<path fill="none" stroke="midnightblue" d="M1351.94,-301.424C1379.89,-280.302 1427.4,-244.405 1450.93,-226.627"/>
<polygon fill="midnightblue" stroke="midnightblue" points="1349.81,-298.647 1343.94,-307.468 1354.03,-304.233 1349.81,-298.647"/>
</g>
<!-- Node6 -->
<g id="node10" class="node"><title>Node6</title>
<a xlink:href="../../d7/de8/classns_i_node.html" target="_top" xlink:title="nsINode">
<polygon fill="white" stroke="black" points="1003.5,-122.5 1003.5,-143.5 1056.5,-143.5 1056.5,-122.5 1003.5,-122.5"/>
<text text-anchor="middle" x="1030" y="-130.5" font-family="Helvetica,sans-Serif" font-size="10.00">nsINode</text>
</a>
</g>
<!-- Node5&#45;&gt;Node6 -->
<g id="edge22" class="edge"><title>Node5&#45;&gt;Node6</title>
<path fill="none" stroke="#9a32cd" stroke-dasharray="5,2" d="M1313.77,-299.912C1301.91,-286.887 1285.29,-269.033 1270,-254 1242.63,-227.086 1238.17,-216.948 1206,-196 1176.66,-176.89 1166.85,-176.138 1134,-164 1108.2,-154.466 1078,-145.723 1056.81,-139.971"/>
<polygon fill="#9a32cd" stroke="#9a32cd" points="1311.18,-302.267 1320.49,-307.331 1316.37,-297.569 1311.18,-302.267"/>
<text text-anchor="middle" x="1291.5" y="-226.5" font-family="Helvetica,sans-Serif" font-size="10.00"> mPreviousSibling</text>
<text text-anchor="middle" x="1291.5" y="-213.5" font-family="Helvetica,sans-Serif" font-size="10.00">mFirstChild</text>
<text text-anchor="middle" x="1291.5" y="-200.5" font-family="Helvetica,sans-Serif" font-size="10.00">mNextSibling</text>
</g>
<!-- Node24 -->
<g id="node51" class="node"><title>Node24</title>
<a xlink:href="../../d7/d20/classns_i_frame.html" target="_top" xlink:title="nsIFrame">
<polygon fill="white" stroke="black" points="1001,-205.5 1001,-226.5 1059,-226.5 1059,-205.5 1001,-205.5"/>
<text text-anchor="middle" x="1030" y="-213.5" font-family="Helvetica,sans-Serif" font-size="10.00">nsIFrame</text>
</a>
</g>
<!-- Node5&#45;&gt;Node24 -->
<g id="edge62" class="edge"><title>Node5&#45;&gt;Node24</title>
<path fill="none" stroke="#9a32cd" stroke-dasharray="5,2" d="M1311.78,-300.605C1305.09,-295.117 1297.14,-289.563 1289,-286 1243.62,-266.141 1225.46,-285.196 1179,-268 1167.78,-263.846 1166.93,-258.878 1156,-254 1123.97,-239.704 1085.05,-228.89 1059.02,-222.522"/>
<polygon fill="#9a32cd" stroke="#9a32cd" points="1309.68,-303.416 1319.51,-307.365 1314.28,-298.147 1309.68,-303.416"/>
<text text-anchor="middle" x="1202" y="-258.5" font-family="Helvetica,sans-Serif" font-size="10.00"> mContent</text>
</g>
<!-- Node6&#45;&gt;Node5 -->
<g id="edge10" class="edge"><title>Node6&#45;&gt;Node5</title>
<path fill="none" stroke="midnightblue" d="M1066.27,-145.815C1079.38,-150.907 1094.11,-157.18 1107,-164 1192.26,-209.107 1283.97,-280.725 1317.13,-307.47"/>
<polygon fill="midnightblue" stroke="midnightblue" points="1067.22,-142.431 1056.63,-142.162 1064.74,-148.977 1067.22,-142.431"/>
</g>
<!-- Node6&#45;&gt;Node6 -->
<g id="edge24" class="edge"><title>Node6&#45;&gt;Node6</title>
<path fill="none" stroke="#9a32cd" stroke-dasharray="5,2" d="M1066.68,-138.172C1071.1,-137.238 1074,-135.514 1074,-133 1074,-128.875 1066.2,-126.877 1056.64,-127.006"/>
<polygon fill="#9a32cd" stroke="#9a32cd" points="1066.32,-134.689 1056.64,-138.994 1066.89,-141.666 1066.32,-134.689"/>
<text text-anchor="middle" x="1107.5" y="-137" font-family="Helvetica,sans-Serif" font-size="10.00"> mSubtreeRoot</text>
<text text-anchor="middle" x="1107.5" y="-124" font-family="Helvetica,sans-Serif" font-size="10.00">mParent</text>
</g>
<!-- Node7 -->
<g id="node12" class="node"><title>Node7</title>
<a xlink:href="../../da/da8/classmozilla_1_1dom_1_1_event_target.html" target="_top" xlink:title="mozilla::dom::EventTarget">
<polygon fill="white" stroke="black" points="195.5,-205.5 195.5,-226.5 326.5,-226.5 326.5,-205.5 195.5,-205.5"/>
<text text-anchor="middle" x="261" y="-213.5" font-family="Helvetica,sans-Serif" font-size="10.00">mozilla::dom::EventTarget</text>
</a>
</g>
<!-- Node7&#45;&gt;Node6 -->
<g id="edge12" class="edge"><title>Node7&#45;&gt;Node6</title>
<path fill="none" stroke="midnightblue" d="M336.749,-207.824C503.697,-189.805 896.925,-147.363 1003.15,-135.898"/>
<polygon fill="midnightblue" stroke="midnightblue" points="336.131,-204.37 326.565,-208.923 336.882,-211.33 336.131,-204.37"/>
</g>
<!-- Node8 -->
<g id="node14" class="node"><title>Node8</title>
<a xlink:href="../../d9/ddf/interfacens_i_d_o_m_event_target.html" target="_top" xlink:title="nsIDOMEventTarget">
<polygon fill="white" stroke="black" points="207.5,-307.5 207.5,-328.5 314.5,-328.5 314.5,-307.5 207.5,-307.5"/>
<text text-anchor="middle" x="261" y="-315.5" font-family="Helvetica,sans-Serif" font-size="10.00">nsIDOMEventTarget</text>
</a>
</g>
<!-- Node8&#45;&gt;Node7 -->
<g id="edge14" class="edge"><title>Node8&#45;&gt;Node7</title>
<path fill="none" stroke="midnightblue" d="M261,-297.446C261,-276.036 261,-243.333 261,-226.627"/>
<polygon fill="midnightblue" stroke="midnightblue" points="257.5,-297.468 261,-307.468 264.5,-297.468 257.5,-297.468"/>
</g>
<!-- Node9 -->
<g id="node16" class="node"><title>Node9</title>
<a xlink:href="../../d4/d6a/classns_i_supports.html" target="_top" xlink:title="nsISupports">
<polygon fill="white" stroke="black" points="226.5,-400.5 226.5,-421.5 295.5,-421.5 295.5,-400.5 226.5,-400.5"/>
<text text-anchor="middle" x="261" y="-408.5" font-family="Helvetica,sans-Serif" font-size="10.00">nsISupports</text>
</a>
</g>
<!-- Node9&#45;&gt;Node8 -->
<g id="edge16" class="edge"><title>Node9&#45;&gt;Node8</title>
<path fill="none" stroke="midnightblue" d="M255.266,-390.204C253.575,-371.07 253.995,-343.47 256.527,-328.544"/>
<polygon fill="midnightblue" stroke="midnightblue" points="251.817,-390.831 256.506,-400.332 258.765,-389.98 251.817,-390.831"/>
</g>
<!-- Node9&#45;&gt;Node8 -->
<g id="edge18" class="edge"><title>Node9&#45;&gt;Node8</title>
<path fill="none" stroke="midnightblue" d="M266.734,-390.204C268.425,-371.07 268.005,-343.47 265.473,-328.544"/>
<polygon fill="midnightblue" stroke="midnightblue" points="263.235,-389.98 265.494,-400.332 270.183,-390.831 263.235,-389.98"/>
</g>
<!-- Node10 -->
<g id="node19" class="node"><title>Node10</title>
<a xlink:href="../../d0/d7e/classns_wrapper_cache.html" target="_top" xlink:title="nsWrapperCache">
<polygon fill="white" stroke="black" points="98,-307.5 98,-328.5 190,-328.5 190,-307.5 98,-307.5"/>
<text text-anchor="middle" x="144" y="-315.5" font-family="Helvetica,sans-Serif" font-size="10.00">nsWrapperCache</text>
</a>
</g>
<!-- Node10&#45;&gt;Node7 -->
<g id="edge20" class="edge"><title>Node10&#45;&gt;Node7</title>
<path fill="none" stroke="midnightblue" d="M163.644,-300.874C187.95,-279.684 228.593,-244.252 248.81,-226.627"/>
<polygon fill="midnightblue" stroke="midnightblue" points="161.318,-298.259 156.08,-307.468 165.918,-303.535 161.318,-298.259"/>
</g>
<!-- Node11 -->
<g id="node23" class="node"><title>Node11</title>
<a xlink:href="../../d6/d39/classns_i_node_1_1ns_slots.html" target="_top" xlink:title="nsINode::nsSlots">
<polygon fill="white" stroke="black" points="766,-205.5 766,-226.5 858,-226.5 858,-205.5 766,-205.5"/>
<text text-anchor="middle" x="812" y="-213.5" font-family="Helvetica,sans-Serif" font-size="10.00">nsINode::nsSlots</text>
</a>
</g>
<!-- Node11&#45;&gt;Node6 -->
<g id="edge26" class="edge"><title>Node11&#45;&gt;Node6</title>
<path fill="none" stroke="#9a32cd" stroke-dasharray="5,2" d="M849.037,-201.899C892.82,-185.229 964.608,-157.897 1003.3,-143.167"/>
<polygon fill="#9a32cd" stroke="#9a32cd" points="847.71,-198.659 839.61,-205.488 850.201,-205.201 847.71,-198.659"/>
<text text-anchor="middle" x="964" y="-168.5" font-family="Helvetica,sans-Serif" font-size="10.00"> mSlots</text>
</g>
<!-- Node12 -->
<g id="node25" class="node"><title>Node12</title>
<a xlink:href="../../d3/d4a/classns_t_observer_array.html" target="_top" xlink:title="nsTObserverArray\&lt; nsIMutationObserver * \&gt;">
<polygon fill="white" stroke="black" points="511,-307.5 511,-328.5 723,-328.5 723,-307.5 511,-307.5"/>
<text text-anchor="middle" x="617" y="-315.5" font-family="Helvetica,sans-Serif" font-size="10.00">nsTObserverArray&lt; nsIMutationObserver * &gt;</text>
</a>
</g>
<!-- Node12&#45;&gt;Node11 -->
<g id="edge28" class="edge"><title>Node12&#45;&gt;Node11</title>
<path fill="none" stroke="#9a32cd" stroke-dasharray="5,2" d="M639.212,-301.597C658.573,-287.771 687.746,-268.049 715,-254 736.06,-243.144 760.966,-233.448 780.268,-226.567"/>
<polygon fill="#9a32cd" stroke="#9a32cd" points="637.106,-298.801 631.049,-307.494 641.205,-304.476 637.106,-298.801"/>
<text text-anchor="middle" x="762" y="-258.5" font-family="Helvetica,sans-Serif" font-size="10.00"> mMutationObservers</text>
</g>
<!-- Node13 -->
<g id="node27" class="node"><title>Node13</title>
<a xlink:href="../../d6/d06/classns_auto_t_observer_array.html" target="_top" xlink:title="nsAutoTObserverArray\&lt; nsIMutationObserver *, 0 \&gt;">
<polygon fill="white" stroke="black" points="312.5,-400.5 312.5,-421.5 555.5,-421.5 555.5,-400.5 312.5,-400.5"/>
<text text-anchor="middle" x="434" y="-408.5" font-family="Helvetica,sans-Serif" font-size="10.00">nsAutoTObserverArray&lt; nsIMutationObserver *, 0 &gt;</text>
</a>
</g>
<!-- Node13&#45;&gt;Node12 -->
<g id="edge30" class="edge"><title>Node13&#45;&gt;Node12</title>
<path fill="none" stroke="midnightblue" d="M464.357,-395.572C501.672,-376.609 564,-344.935 596.252,-328.544"/>
<polygon fill="midnightblue" stroke="midnightblue" points="462.322,-392.681 454.992,-400.332 465.493,-398.921 462.322,-392.681"/>
</g>
<!-- Node14 -->
<g id="node29" class="node"><title>Node14</title>
<a xlink:href="../../d3/dbe/classns_t_observer_array__base.html" target="_top" xlink:title="nsTObserverArray_base">
<polygon fill="white" stroke="black" points="531,-562.5 531,-583.5 653,-583.5 653,-562.5 531,-562.5"/>
<text text-anchor="middle" x="592" y="-570.5" font-family="Helvetica,sans-Serif" font-size="10.00">nsTObserverArray_base</text>
</a>
</g>
<!-- Node14&#45;&gt;Node13 -->
<g id="edge32" class="edge"><title>Node14&#45;&gt;Node13</title>
<path fill="none" stroke="darkgreen" d="M574.472,-555.028C541.536,-521.258 471.321,-449.266 444.612,-421.881"/>
<polygon fill="darkgreen" stroke="darkgreen" points="572.145,-557.656 581.633,-562.371 577.157,-552.768 572.145,-557.656"/>
</g>
<!-- Node15 -->
<g id="node31" class="node"><title>Node15</title>
<a xlink:href="../../dc/d90/classns_t_observer_array__base_1_1_iterator__base.html" target="_top" xlink:title="nsTObserverArray_base::Iterator_base">
<polygon fill="white" stroke="black" points="512.5,-634.5 512.5,-655.5 697.5,-655.5 697.5,-634.5 512.5,-634.5"/>
<text text-anchor="middle" x="605" y="-642.5" font-family="Helvetica,sans-Serif" font-size="10.00">nsTObserverArray_base::Iterator_base</text>
</a>
</g>
<!-- Node15&#45;&gt;Node14 -->
<g id="edge34" class="edge"><title>Node15&#45;&gt;Node14</title>
<path fill="none" stroke="#9a32cd" stroke-dasharray="5,2" d="M601.251,-624.235C598.856,-610.969 595.849,-594.319 593.926,-583.667"/>
<polygon fill="#9a32cd" stroke="#9a32cd" points="597.861,-625.157 603.082,-634.376 604.749,-623.913 597.861,-625.157"/>
<text text-anchor="middle" x="624" y="-606.5" font-family="Helvetica,sans-Serif" font-size="10.00"> mIterators</text>
</g>
<!-- Node15&#45;&gt;Node15 -->
<g id="edge36" class="edge"><title>Node15&#45;&gt;Node15</title>
<path fill="none" stroke="#9a32cd" stroke-dasharray="5,2" d="M707.782,-648.469C712.341,-647.584 715,-646.428 715,-645 715,-642.715 708.192,-641.126 697.688,-640.233"/>
<polygon fill="#9a32cd" stroke="#9a32cd" points="707.16,-645.02 697.688,-649.767 708.053,-651.963 707.16,-645.02"/>
<text text-anchor="middle" x="731.5" y="-642.5" font-family="Helvetica,sans-Serif" font-size="10.00"> mNext</text>
</g>
<!-- Node16 -->
<g id="node34" class="node"><title>Node16</title>
<a xlink:href="../../d2/dcf/classns_auto_t_array.html" target="_top" xlink:title="nsAutoTArray\&lt; nsIMutationObserver *, N \&gt;">
<polygon fill="white" stroke="black" points="273,-562.5 273,-583.5 479,-583.5 479,-562.5 273,-562.5"/>
<text text-anchor="middle" x="376" y="-570.5" font-family="Helvetica,sans-Serif" font-size="10.00">nsAutoTArray&lt; nsIMutationObserver *, N &gt;</text>
</a>
</g>
<!-- Node16&#45;&gt;Node13 -->
<g id="edge38" class="edge"><title>Node16&#45;&gt;Node13</title>
<path fill="none" stroke="#9a32cd" stroke-dasharray="5,2" d="M383.218,-552.841C395.605,-518.24 420.507,-448.688 430.104,-421.881"/>
<polygon fill="#9a32cd" stroke="#9a32cd" points="379.881,-551.776 379.806,-562.371 386.472,-554.136 379.881,-551.776"/>
<text text-anchor="middle" x="440.5" y="-489.5" font-family="Helvetica,sans-Serif" font-size="10.00"> mArray</text>
</g>
<!-- Node17 -->
<g id="node36" class="node"><title>Node17</title>
<a xlink:href="../../d9/d56/classns_auto_array_base.html" target="_top" xlink:title="nsAutoArrayBase\&lt; nsTArray\&lt; nsIMutationObserver * \&gt;, N \&gt;">
<polygon fill="white" stroke="black" points="215,-634.5 215,-655.5 495,-655.5 495,-634.5 215,-634.5"/>
<text text-anchor="middle" x="355" y="-642.5" font-family="Helvetica,sans-Serif" font-size="10.00">nsAutoArrayBase&lt; nsTArray&lt; nsIMutationObserver * &gt;, N &gt;</text>
</a>
</g>
<!-- Node17&#45;&gt;Node16 -->
<g id="edge40" class="edge"><title>Node17&#45;&gt;Node16</title>
<path fill="none" stroke="midnightblue" d="M360.941,-624.632C364.828,-611.303 369.751,-594.425 372.889,-583.667"/>
<polygon fill="midnightblue" stroke="midnightblue" points="357.539,-623.796 358.099,-634.376 364.259,-625.756 357.539,-623.796"/>
</g>
<!-- Node18 -->
<g id="node38" class="node"><title>Node18</title>
<a xlink:href="../../d8/d6f/classns_t_array.html" target="_top" xlink:title="nsTArray\&lt; nsIMutationObserver * \&gt;">
<polygon fill="white" stroke="black" points="269,-694.5 269,-715.5 441,-715.5 441,-694.5 269,-694.5"/>
<text text-anchor="middle" x="355" y="-702.5" font-family="Helvetica,sans-Serif" font-size="10.00">nsTArray&lt; nsIMutationObserver * &gt;</text>
</a>
</g>
<!-- Node18&#45;&gt;Node17 -->
<g id="edge42" class="edge"><title>Node18&#45;&gt;Node17</title>
<path fill="none" stroke="midnightblue" d="M355,-684.231C355,-674.592 355,-663.544 355,-655.634"/>
<polygon fill="midnightblue" stroke="midnightblue" points="351.5,-684.273 355,-694.273 358.5,-684.273 351.5,-684.273"/>
</g>
<!-- Node19 -->
<g id="node40" class="node"><title>Node19</title>
<a xlink:href="../../d4/dd8/classns_t_array___impl.html" target="_top" xlink:title="nsTArray_Impl\&lt; nsIMutationObserver *, nsTArrayInfallibleAllocator \&gt;">
<polygon fill="white" stroke="black" points="197,-754.5 197,-775.5 513,-775.5 513,-754.5 197,-754.5"/>
<text text-anchor="middle" x="355" y="-762.5" font-family="Helvetica,sans-Serif" font-size="10.00">nsTArray_Impl&lt; nsIMutationObserver *, nsTArrayInfallibleAllocator &gt;</text>
</a>
</g>
<!-- Node19&#45;&gt;Node18 -->
<g id="edge44" class="edge"><title>Node19&#45;&gt;Node18</title>
<path fill="none" stroke="midnightblue" d="M355,-744.231C355,-734.592 355,-723.544 355,-715.634"/>
<polygon fill="midnightblue" stroke="midnightblue" points="351.5,-744.273 355,-754.273 358.5,-744.273 351.5,-744.273"/>
</g>
<!-- Node20 -->
<g id="node42" class="node"><title>Node20</title>
<a xlink:href="../../db/d9f/classns_t_array__base.html" target="_top" xlink:title="nsTArray_base\&lt; nsTArrayInfallibleAllocator, nsTArray_CopyElements\&lt; nsIMutationObserver * \&gt; \&gt;">
<polygon fill="white" stroke="black" points="0,-814.5 0,-835.5 446,-835.5 446,-814.5 0,-814.5"/>
<text text-anchor="middle" x="223" y="-822.5" font-family="Helvetica,sans-Serif" font-size="10.00">nsTArray_base&lt; nsTArrayInfallibleAllocator, nsTArray_CopyElements&lt; nsIMutationObserver * &gt; &gt;</text>
</a>
</g>
<!-- Node20&#45;&gt;Node19 -->
<g id="edge46" class="edge"><title>Node20&#45;&gt;Node19</title>
<path fill="none" stroke="midnightblue" d="M255.54,-810.209C279.083,-799.508 310.35,-785.296 331.494,-775.685"/>
<polygon fill="midnightblue" stroke="midnightblue" points="253.95,-807.087 246.295,-814.411 256.847,-813.46 253.95,-807.087"/>
</g>
<!-- Node21 -->
<g id="node44" class="node"><title>Node21</title>
<a xlink:href="../../dc/d5a/structns_t_array_header.html" target="_top" xlink:title="nsTArrayHeader">
<polygon fill="white" stroke="black" points="179,-886.5 179,-907.5 267,-907.5 267,-886.5 179,-886.5"/>
<text text-anchor="middle" x="223" y="-894.5" font-family="Helvetica,sans-Serif" font-size="10.00">nsTArrayHeader</text>
</a>
</g>
<!-- Node21&#45;&gt;Node20 -->
<g id="edge48" class="edge"><title>Node21&#45;&gt;Node20</title>
<path fill="none" stroke="#9a32cd" stroke-dasharray="5,2" d="M223,-876.235C223,-862.969 223,-846.319 223,-835.667"/>
<polygon fill="#9a32cd" stroke="#9a32cd" points="219.5,-876.376 223,-886.376 226.5,-876.376 219.5,-876.376"/>
<text text-anchor="middle" x="237" y="-858.5" font-family="Helvetica,sans-Serif" font-size="10.00"> mHdr</text>
</g>
<!-- Node21&#45;&gt;Node21 -->
<g id="edge50" class="edge"><title>Node21&#45;&gt;Node21</title>
<path fill="none" stroke="#9a32cd" stroke-dasharray="5,2" d="M277.258,-902.304C282.019,-901.185 285,-899.417 285,-897 285,-893.133 277.369,-890.927 267.024,-890.383"/>
<polygon fill="#9a32cd" stroke="#9a32cd" points="276.498,-898.872 267.024,-903.617 277.389,-905.816 276.498,-898.872"/>
<text text-anchor="middle" x="311.5" y="-894.5" font-family="Helvetica,sans-Serif" font-size="10.00"> sEmptyHdr</text>
</g>
<!-- Node22 -->
<g id="node47" class="node"><title>Node22</title>
<a xlink:href="../../d7/dcf/structns_t_array___typed_base.html" target="_top" xlink:title="nsTArray_TypedBase\&lt; nsIMutationObserver *, nsTArray_Impl\&lt; nsIMutationObserver *, nsTArrayInfallibleAllocator \&gt; \&gt;">
<polygon fill="white" stroke="black" points="464,-814.5 464,-835.5 996,-835.5 996,-814.5 464,-814.5"/>
<text text-anchor="middle" x="730" y="-822.5" font-family="Helvetica,sans-Serif" font-size="10.00">nsTArray_TypedBase&lt; nsIMutationObserver *, nsTArray_Impl&lt; nsIMutationObserver *, nsTArrayInfallibleAllocator &gt; &gt;</text>
</a>
</g>
<!-- Node22&#45;&gt;Node19 -->
<g id="edge52" class="edge"><title>Node22&#45;&gt;Node19</title>
<path fill="none" stroke="midnightblue" d="M653.956,-812.833C585.449,-801.872 485.781,-785.925 420.674,-775.508"/>
<polygon fill="midnightblue" stroke="midnightblue" points="653.823,-816.356 664.251,-814.48 654.929,-809.444 653.823,-816.356"/>
</g>
<!-- Node23 -->
<g id="node49" class="node"><title>Node23</title>
<a xlink:href="../../db/d62/structns_t_array___safe_element_at_helper.html" target="_top" xlink:title="nsTArray_SafeElementAtHelper\&lt; nsIMutationObserver *, nsTArray_Impl\&lt; nsIMutationObserver *, nsTArrayInfallibleAllocator \&gt; \&gt;">
<polygon fill="white" stroke="black" points="441.5,-886.5 441.5,-907.5 1018.5,-907.5 1018.5,-886.5 441.5,-886.5"/>
<text text-anchor="middle" x="730" y="-894.5" font-family="Helvetica,sans-Serif" font-size="10.00">nsTArray_SafeElementAtHelper&lt; nsIMutationObserver *, nsTArray_Impl&lt; nsIMutationObserver *, nsTArrayInfallibleAllocator &gt; &gt;</text>
</a>
</g>
<!-- Node23&#45;&gt;Node22 -->
<g id="edge54" class="edge"><title>Node23&#45;&gt;Node22</title>
<path fill="none" stroke="midnightblue" d="M730,-876.235C730,-862.969 730,-846.319 730,-835.667"/>
<polygon fill="midnightblue" stroke="midnightblue" points="726.5,-876.376 730,-886.376 733.5,-876.376 726.5,-876.376"/>
</g>
<!-- Node24&#45;&gt;Node6 -->
<g id="edge56" class="edge"><title>Node24&#45;&gt;Node6</title>
<path fill="none" stroke="#9a32cd" stroke-dasharray="5,2" d="M1030,-195.258C1030,-178.873 1030,-156.674 1030,-143.689"/>
<polygon fill="#9a32cd" stroke="#9a32cd" points="1026.5,-195.488 1030,-205.488 1033.5,-195.488 1026.5,-195.488"/>
<text text-anchor="middle" x="1066.5" y="-168.5" font-family="Helvetica,sans-Serif" font-size="10.00"> mPrimaryFrame</text>
</g>
<!-- Node24&#45;&gt;Node24 -->
<g id="edge96" class="edge"><title>Node24&#45;&gt;Node24</title>
<path fill="none" stroke="#9a32cd" stroke-dasharray="5,2" d="M1069.6,-222.991C1074.09,-221.682 1077,-219.352 1077,-216 1077,-210.5 1069.17,-207.75 1059.38,-207.75"/>
<polygon fill="#9a32cd" stroke="#9a32cd" points="1068.87,-219.555 1059.38,-224.25 1069.73,-226.502 1068.87,-219.555"/>
<text text-anchor="middle" x="1097" y="-213.5" font-family="Helvetica,sans-Serif" font-size="10.00"> mParent</text>
</g>
<!-- Node25 -->
<g id="node53" class="node"><title>Node25</title>
<a xlink:href="../../dd/d10/classns_query_frame.html" target="_top" xlink:title="nsQueryFrame">
<polygon fill="white" stroke="black" points="782.5,-307.5 782.5,-328.5 863.5,-328.5 863.5,-307.5 782.5,-307.5"/>
<text text-anchor="middle" x="823" y="-315.5" font-family="Helvetica,sans-Serif" font-size="10.00">nsQueryFrame</text>
</a>
</g>
<!-- Node25&#45;&gt;Node24 -->
<g id="edge58" class="edge"><title>Node25&#45;&gt;Node24</title>
<path fill="none" stroke="midnightblue" d="M846.476,-301.567C854.414,-296.311 863.438,-290.653 872,-286 916.287,-261.933 970.492,-239.308 1002.53,-226.596"/>
<polygon fill="midnightblue" stroke="midnightblue" points="844.383,-298.758 838.058,-307.257 848.303,-304.557 844.383,-298.758"/>
</g>
<!-- Node26 -->
<g id="node55" class="node"><title>Node26</title>
<a xlink:href="../../d1/dee/structns_i_frame_1_1_visual_deltas.html" target="_top" xlink:title="nsIFrame::VisualDeltas">
<polygon fill="white" stroke="black" points="880.5,-307.5 880.5,-328.5 999.5,-328.5 999.5,-307.5 880.5,-307.5"/>
<text text-anchor="middle" x="940" y="-315.5" font-family="Helvetica,sans-Serif" font-size="10.00">nsIFrame::VisualDeltas</text>
</a>
</g>
<!-- Node26&#45;&gt;Node24 -->
<g id="edge60" class="edge"><title>Node26&#45;&gt;Node24</title>
<path fill="none" stroke="#9a32cd" stroke-dasharray="5,2" d="M942.439,-297.038C944.933,-283.511 949.949,-266.223 960,-254 970.627,-241.076 986.846,-231.88 1001,-225.775"/>
<polygon fill="#9a32cd" stroke="#9a32cd" points="938.918,-296.912 940.882,-307.323 945.839,-297.96 938.918,-296.912"/>
<text text-anchor="middle" x="993.5" y="-258.5" font-family="Helvetica,sans-Serif" font-size="10.00"> mVisualDeltas</text>
</g>
<!-- Node27 -->
<g id="node58" class="node"><title>Node27</title>
<a xlink:href="../../da/d97/structns_rect.html" target="_top" xlink:title="nsRect">
<polygon fill="white" stroke="black" points="1017,-307.5 1017,-328.5 1065,-328.5 1065,-307.5 1017,-307.5"/>
<text text-anchor="middle" x="1041" y="-315.5" font-family="Helvetica,sans-Serif" font-size="10.00">nsRect</text>
</a>
</g>
<!-- Node27&#45;&gt;Node24 -->
<g id="edge64" class="edge"><title>Node27&#45;&gt;Node24</title>
<path fill="none" stroke="#9a32cd" stroke-dasharray="5,2" d="M1036.03,-297.428C1034.08,-288.448 1032.06,-277.76 1031,-268 1029.46,-253.817 1029.44,-237.333 1029.65,-226.791"/>
<polygon fill="#9a32cd" stroke="#9a32cd" points="1032.66,-298.389 1038.3,-307.357 1039.48,-296.828 1032.66,-298.389"/>
<text text-anchor="middle" x="1047.5" y="-258.5" font-family="Helvetica,sans-Serif" font-size="10.00"> mRect</text>
</g>
<!-- Node28 -->
<g id="node60" class="node"><title>Node28</title>
<a xlink:href="../../dc/db8/structmozilla_1_1gfx_1_1_base_rect.html" target="_top" xlink:title="mozilla::gfx::BaseRect\&lt; nscoord, nsRect, nsPoint, nsSize, nsMargin \&gt;">
<polygon fill="white" stroke="black" points="572.5,-400.5 572.5,-421.5 899.5,-421.5 899.5,-400.5 572.5,-400.5"/>
<text text-anchor="middle" x="736" y="-408.5" font-family="Helvetica,sans-Serif" font-size="10.00">mozilla::gfx::BaseRect&lt; nscoord, nsRect, nsPoint, nsSize, nsMargin &gt;</text>
</a>
</g>
<!-- Node28&#45;&gt;Node27 -->
<g id="edge66" class="edge"><title>Node28&#45;&gt;Node27</title>
<path fill="none" stroke="midnightblue" d="M854.895,-398.781C904.433,-390.104 961.194,-375.286 1008,-350 1017.69,-344.765 1026.52,-335.876 1032.61,-328.792"/>
<polygon fill="midnightblue" stroke="midnightblue" points="854.045,-395.375 844.766,-400.489 855.208,-402.278 854.045,-395.375"/>
</g>
<!-- Node29 -->
<g id="node62" class="node"><title>Node29</title>
<a xlink:href="../../db/d89/classns_style_context.html" target="_top" xlink:title="nsStyleContext">
<polygon fill="white" stroke="black" points="1115,-307.5 1115,-328.5 1199,-328.5 1199,-307.5 1115,-307.5"/>
<text text-anchor="middle" x="1157" y="-315.5" font-family="Helvetica,sans-Serif" font-size="10.00">nsStyleContext</text>
</a>
</g>
<!-- Node29&#45;&gt;Node24 -->
<g id="edge68" class="edge"><title>Node29&#45;&gt;Node24</title>
<path fill="none" stroke="#9a32cd" stroke-dasharray="5,2" d="M1132.61,-301.64C1118.91,-292.192 1101.67,-279.862 1087,-268 1070.33,-254.525 1052.23,-237.581 1041,-226.768"/>
<polygon fill="#9a32cd" stroke="#9a32cd" points="1130.8,-304.647 1141.04,-307.399 1134.75,-298.868 1130.8,-304.647"/>
<text text-anchor="middle" x="1121.5" y="-258.5" font-family="Helvetica,sans-Serif" font-size="10.00"> mStyleContext</text>
</g>
<!-- Node29&#45;&gt;Node29 -->
<g id="edge94" class="edge"><title>Node29&#45;&gt;Node29</title>
<path fill="none" stroke="#9a32cd" stroke-dasharray="5,2" d="M1208.89,-326.472C1213.86,-324.748 1217,-321.924 1217,-318 1217,-311.875 1209.34,-308.43 1199.06,-307.664"/>
<polygon fill="#9a32cd" stroke="#9a32cd" points="1208.23,-323.036 1199.06,-328.336 1209.53,-329.914 1208.23,-323.036"/>
<text text-anchor="middle" x="1248.5" y="-341.5" font-family="Helvetica,sans-Serif" font-size="10.00"> mEmptyChild</text>
<text text-anchor="middle" x="1248.5" y="-328.5" font-family="Helvetica,sans-Serif" font-size="10.00">mChild</text>
<text text-anchor="middle" x="1248.5" y="-315.5" font-family="Helvetica,sans-Serif" font-size="10.00">mPrevSibling</text>
<text text-anchor="middle" x="1248.5" y="-302.5" font-family="Helvetica,sans-Serif" font-size="10.00">mParent</text>
<text text-anchor="middle" x="1248.5" y="-289.5" font-family="Helvetica,sans-Serif" font-size="10.00">mNextSibling</text>
</g>
<!-- Node30 -->
<g id="node64" class="node"><title>Node30</title>
<a xlink:href="../../dc/d1e/classns_rule_node.html" target="_top" xlink:title="nsRuleNode">
<polygon fill="white" stroke="black" points="1034.5,-400.5 1034.5,-421.5 1105.5,-421.5 1105.5,-400.5 1034.5,-400.5"/>
<text text-anchor="middle" x="1070" y="-408.5" font-family="Helvetica,sans-Serif" font-size="10.00">nsRuleNode</text>
</a>
</g>
<!-- Node30&#45;&gt;Node29 -->
<g id="edge70" class="edge"><title>Node30&#45;&gt;Node29</title>
<path fill="none" stroke="#9a32cd" stroke-dasharray="5,2" d="M1087,-392.829C1104.91,-373.677 1132.52,-344.167 1147.14,-328.544"/>
<polygon fill="#9a32cd" stroke="#9a32cd" points="1084.26,-390.638 1079.98,-400.332 1089.37,-395.42 1084.26,-390.638"/>
<text text-anchor="middle" x="1136.5" y="-372.5" font-family="Helvetica,sans-Serif" font-size="10.00"> mRuleNode</text>
</g>
<!-- Node30&#45;&gt;Node30 -->
<g id="edge78" class="edge"><title>Node30&#45;&gt;Node30</title>
<path fill="none" stroke="#9a32cd" stroke-dasharray="5,2" d="M1115.81,-416.454C1120.21,-415.346 1123,-413.528 1123,-411 1123,-406.852 1115.49,-404.615 1105.67,-404.291"/>
<polygon fill="#9a32cd" stroke="#9a32cd" points="1115.16,-413.007 1105.67,-417.709 1116.02,-419.954 1115.16,-413.007"/>
<text text-anchor="middle" x="1138" y="-408.5" font-family="Helvetica,sans-Serif" font-size="10.00"> asList</text>
</g>
<!-- Node31 -->
<g id="node66" class="node"><title>Node31</title>
<a xlink:href="../../d9/d33/struct_p_l_d_hash_table.html" target="_top" xlink:title="PLDHashTable">
<polygon fill="white" stroke="black" points="954.5,-562.5 954.5,-583.5 1037.5,-583.5 1037.5,-562.5 954.5,-562.5"/>
<text text-anchor="middle" x="996" y="-570.5" font-family="Helvetica,sans-Serif" font-size="10.00">PLDHashTable</text>
</a>
</g>
<!-- Node31&#45;&gt;Node30 -->
<g id="edge72" class="edge"><title>Node31&#45;&gt;Node30</title>
<path fill="none" stroke="#9a32cd" stroke-dasharray="5,2" d="M1033.13,-557.242C1038.45,-553.581 1043.35,-549.196 1047,-544 1073.94,-505.654 1072.83,-446.047 1071.05,-421.804"/>
<polygon fill="#9a32cd" stroke="#9a32cd" points="1031.31,-554.256 1024.54,-562.411 1034.91,-560.254 1031.31,-554.256"/>
<text text-anchor="middle" x="1090.5" y="-489.5" font-family="Helvetica,sans-Serif" font-size="10.00"> asHash</text>
</g>
<!-- Node32 -->
<g id="node68" class="node"><title>Node32</title>
<a xlink:href="../../dc/d8f/struct_p_l_d_hash_table_ops.html" target="_top" xlink:title="PLDHashTableOps">
<polygon fill="white" stroke="black" points="916.5,-400.5 916.5,-421.5 1017.5,-421.5 1017.5,-400.5 916.5,-400.5"/>
<text text-anchor="middle" x="967" y="-408.5" font-family="Helvetica,sans-Serif" font-size="10.00">PLDHashTableOps</text>
</a>
</g>
<!-- Node31&#45;&gt;Node32 -->
<g id="edge76" class="edge"><title>Node31&#45;&gt;Node32</title>
<path fill="none" stroke="#9a32cd" stroke-dasharray="5,2" d="M993.062,-552.352C989.221,-526.13 982.03,-479.535 974,-440 972.763,-433.909 971.147,-427.156 969.78,-421.701"/>
<polygon fill="#9a32cd" stroke="#9a32cd" points="989.6,-552.867 994.495,-562.263 996.528,-551.865 989.6,-552.867"/>
<text text-anchor="middle" x="1017.5" y="-535" font-family="Helvetica,sans-Serif" font-size="10.00"> finalize</text>
<text text-anchor="middle" x="1017.5" y="-522" font-family="Helvetica,sans-Serif" font-size="10.00">clearEntry</text>
<text text-anchor="middle" x="1017.5" y="-509" font-family="Helvetica,sans-Serif" font-size="10.00">hashKey</text>
<text text-anchor="middle" x="1017.5" y="-496" font-family="Helvetica,sans-Serif" font-size="10.00">moveEntry</text>
<text text-anchor="middle" x="1017.5" y="-483" font-family="Helvetica,sans-Serif" font-size="10.00">initEntry</text>
<text text-anchor="middle" x="1017.5" y="-470" font-family="Helvetica,sans-Serif" font-size="10.00">allocTable</text>
<text text-anchor="middle" x="1017.5" y="-457" font-family="Helvetica,sans-Serif" font-size="10.00">freeTable</text>
<text text-anchor="middle" x="1017.5" y="-444" font-family="Helvetica,sans-Serif" font-size="10.00">matchEntry</text>
</g>
<!-- Node32&#45;&gt;Node31 -->
<g id="edge74" class="edge"><title>Node32&#45;&gt;Node31</title>
<path fill="none" stroke="#9a32cd" stroke-dasharray="5,2" d="M957.522,-431.074C956.481,-434.011 955.587,-437.044 955,-440 945.991,-485.336 933.754,-502.95 955,-544 959.007,-551.743 966.14,-557.862 973.345,-562.444"/>
<polygon fill="#9a32cd" stroke="#9a32cd" points="960.811,-432.277 961.391,-421.698 954.341,-429.607 960.811,-432.277"/>
<text text-anchor="middle" x="964.5" y="-489.5" font-family="Helvetica,sans-Serif" font-size="10.00"> ops</text>
</g>
<!-- Node33 -->
<g id="node72" class="node"><title>Node33</title>
<a xlink:href="../../d7/dbf/structns_inherited_style_data.html" target="_top" xlink:title="nsInheritedStyleData">
<polygon fill="white" stroke="black" points="1443,-400.5 1443,-421.5 1551,-421.5 1551,-400.5 1443,-400.5"/>
<text text-anchor="middle" x="1497" y="-408.5" font-family="Helvetica,sans-Serif" font-size="10.00">nsInheritedStyleData</text>
</a>
</g>
<!-- Node33&#45;&gt;Node29 -->
<g id="edge80" class="edge"><title>Node33&#45;&gt;Node29</title>
<path fill="none" stroke="#9a32cd" stroke-dasharray="5,2" d="M1471.5,-395.148C1455.32,-385.809 1433.62,-374.573 1413,-368 1359.94,-351.084 1343.68,-360.572 1289,-350 1257.63,-343.934 1222.49,-335.325 1196.35,-328.564"/>
<polygon fill="#9a32cd" stroke="#9a32cd" points="1469.95,-398.297 1480.34,-400.377 1473.51,-392.273 1469.95,-398.297"/>
<text text-anchor="middle" x="1498" y="-372.5" font-family="Helvetica,sans-Serif" font-size="10.00"> mCachedInheritedData</text>
</g>
<!-- Node34 -->
<g id="node74" class="node"><title>Node34</title>
<a xlink:href="../../de/dfc/class_fixed_style_struct_array.html" target="_top" xlink:title="FixedStyleStructArray\&lt; nsStyleStructID_Inherited_Start, nsStyleStructID_Inherited_Count \&gt;">
<polygon fill="white" stroke="black" points="1530.5,-562.5 1530.5,-583.5 1949.5,-583.5 1949.5,-562.5 1530.5,-562.5"/>
<text text-anchor="middle" x="1740" y="-570.5" font-family="Helvetica,sans-Serif" font-size="10.00">FixedStyleStructArray&lt; nsStyleStructID_Inherited_Start, nsStyleStructID_Inherited_Count &gt;</text>
</a>
</g>
<!-- Node34&#45;&gt;Node33 -->
<g id="edge82" class="edge"><title>Node34&#45;&gt;Node33</title>
<path fill="none" stroke="#9a32cd" stroke-dasharray="5,2" d="M1715.54,-556.69C1665.89,-523.594 1554.52,-449.346 1513,-421.668"/>
<polygon fill="#9a32cd" stroke="#9a32cd" points="1713.79,-559.736 1724.06,-562.371 1717.68,-553.912 1713.79,-559.736"/>
<text text-anchor="middle" x="1726" y="-489.5" font-family="Helvetica,sans-Serif" font-size="10.00"> mStyleStructs</text>
</g>
<!-- Node35 -->
<g id="node76" class="node"><title>Node35</title>
<a xlink:href="../../df/ddf/structns_style_context_1_1_allocation_header.html" target="_top" xlink:title="nsStyleContext::AllocationHeader">
<polygon fill="white" stroke="black" points="1569,-400.5 1569,-421.5 1733,-421.5 1733,-400.5 1569,-400.5"/>
<text text-anchor="middle" x="1651" y="-408.5" font-family="Helvetica,sans-Serif" font-size="10.00">nsStyleContext::AllocationHeader</text>
</a>
</g>
<!-- Node35&#45;&gt;Node29 -->
<g id="edge84" class="edge"><title>Node35&#45;&gt;Node29</title>
<path fill="none" stroke="#9a32cd" stroke-dasharray="5,2" d="M1623.44,-395.666C1604.51,-385.928 1578.48,-374.056 1554,-368 1439.41,-339.648 1405.67,-367.971 1289,-350 1256.14,-344.938 1219.43,-335.745 1193.09,-328.507"/>
<polygon fill="#9a32cd" stroke="#9a32cd" points="1621.9,-398.814 1632.38,-400.381 1625.16,-392.621 1621.9,-398.814"/>
<text text-anchor="middle" x="1622" y="-372.5" font-family="Helvetica,sans-Serif" font-size="10.00"> mAllocations</text>
</g>
<!-- Node35&#45;&gt;Node35 -->
<g id="edge86" class="edge"><title>Node35&#45;&gt;Node35</title>
<path fill="none" stroke="#9a32cd" stroke-dasharray="5,2" d="M1743.62,-415.363C1748.26,-414.278 1751,-412.824 1751,-411 1751,-408.082 1743.99,-406.11 1733.38,-405.084"/>
<polygon fill="#9a32cd" stroke="#9a32cd" points="1742.75,-411.955 1733.38,-416.916 1743.8,-418.876 1742.75,-411.955"/>
<text text-anchor="middle" x="1767.5" y="-408.5" font-family="Helvetica,sans-Serif" font-size="10.00"> mNext</text>
</g>
<!-- Node36 -->
<g id="node79" class="node"><title>Node36</title>
<a xlink:href="../../d1/d37/structns_reset_style_data.html" target="_top" xlink:title="nsResetStyleData">
<polygon fill="white" stroke="black" points="1328.5,-400.5 1328.5,-421.5 1425.5,-421.5 1425.5,-400.5 1328.5,-400.5"/>
<text text-anchor="middle" x="1377" y="-408.5" font-family="Helvetica,sans-Serif" font-size="10.00">nsResetStyleData</text>
</a>
</g>
<!-- Node36&#45;&gt;Node29 -->
<g id="edge88" class="edge"><title>Node36&#45;&gt;Node29</title>
<path fill="none" stroke="#9a32cd" stroke-dasharray="5,2" d="M1347.03,-395.953C1329.65,-387.413 1307.27,-376.722 1287,-368 1252.91,-353.326 1212.96,-338.272 1186.44,-328.571"/>
<polygon fill="#9a32cd" stroke="#9a32cd" points="1345.6,-399.154 1356.12,-400.45 1348.71,-392.879 1345.6,-399.154"/>
<text text-anchor="middle" x="1362.5" y="-372.5" font-family="Helvetica,sans-Serif" font-size="10.00"> mCachedResetData</text>
</g>
<!-- Node37 -->
<g id="node81" class="node"><title>Node37</title>
<a xlink:href="../../de/dfc/class_fixed_style_struct_array.html" target="_top" xlink:title="FixedStyleStructArray\&lt; nsStyleStructID_Reset_Start, nsStyleStructID_Reset_Count \&gt;">
<polygon fill="white" stroke="black" points="1116.5,-562.5 1116.5,-583.5 1513.5,-583.5 1513.5,-562.5 1116.5,-562.5"/>
<text text-anchor="middle" x="1315" y="-570.5" font-family="Helvetica,sans-Serif" font-size="10.00">FixedStyleStructArray&lt; nsStyleStructID_Reset_Start, nsStyleStructID_Reset_Count &gt;</text>
</a>
</g>
<!-- Node37&#45;&gt;Node36 -->
<g id="edge90" class="edge"><title>Node37&#45;&gt;Node36</title>
<path fill="none" stroke="#9a32cd" stroke-dasharray="5,2" d="M1322.72,-552.841C1335.96,-518.24 1362.58,-448.688 1372.84,-421.881"/>
<polygon fill="#9a32cd" stroke="#9a32cd" points="1319.37,-551.78 1319.07,-562.371 1325.91,-554.282 1319.37,-551.78"/>
<text text-anchor="middle" x="1398" y="-489.5" font-family="Helvetica,sans-Serif" font-size="10.00"> mStyleStructs</text>
</g>
<!-- Node38 -->
<g id="node83" class="node"><title>Node38</title>
<a xlink:href="../../d0/d01/classns_ref_ptr.html" target="_top" xlink:title="nsRefPtr\&lt; nsStyleContext \&gt;">
<polygon fill="white" stroke="black" points="1170.5,-400.5 1170.5,-421.5 1311.5,-421.5 1311.5,-400.5 1170.5,-400.5"/>
<text text-anchor="middle" x="1241" y="-408.5" font-family="Helvetica,sans-Serif" font-size="10.00">nsRefPtr&lt; nsStyleContext &gt;</text>
</a>
</g>
<!-- Node38&#45;&gt;Node29 -->
<g id="edge92" class="edge"><title>Node38&#45;&gt;Node29</title>
<path fill="none" stroke="#9a32cd" stroke-dasharray="5,2" d="M1224.59,-392.829C1207.29,-373.677 1180.64,-344.167 1166.52,-328.544"/>
<polygon fill="#9a32cd" stroke="#9a32cd" points="1222.06,-395.257 1231.36,-400.332 1227.26,-390.565 1222.06,-395.257"/>
<text text-anchor="middle" x="1248" y="-372.5" font-family="Helvetica,sans-Serif" font-size="10.00"> mStyleIfVisited</text>
</g>
<!-- Node39 -->
<g id="node87" class="node"><title>Node39</title>
<a xlink:href="../../dc/d0a/classns_attr_and_child_array.html" target="_top" xlink:title="nsAttrAndChildArray">
<polygon fill="white" stroke="black" points="1412,-307.5 1412,-328.5 1518,-328.5 1518,-307.5 1412,-307.5"/>
<text text-anchor="middle" x="1465" y="-315.5" font-family="Helvetica,sans-Serif" font-size="10.00">nsAttrAndChildArray</text>
</a>
</g>
<!-- Node39&#45;&gt;Node4 -->
<g id="edge98" class="edge"><title>Node39&#45;&gt;Node4</title>
<path fill="none" stroke="#9a32cd" stroke-dasharray="5,2" d="M1465,-297.446C1465,-276.036 1465,-243.333 1465,-226.627"/>
<polygon fill="#9a32cd" stroke="#9a32cd" points="1461.5,-297.468 1465,-307.468 1468.5,-297.468 1461.5,-297.468"/>
<text text-anchor="middle" x="1508" y="-258.5" font-family="Helvetica,sans-Serif" font-size="10.00"> mAttrsAndChildren</text>
</g>
</g>
</svg>
        <g id="navigator" transform="translate(0 0)" fill="#404254">
                <rect fill="#f2f5e9" fill-opacity="0.5" stroke="#606060" stroke-width=".5" x="0" y="0" width="60" height="60"/>
                <use id="zoomplus" xlink:href="#zoomPlus" x="17" y="9" onmousedown="handleZoom(evt,'in')"/>
                <use id="zoomminus" xlink:href="#zoomMin" x="42" y="9" onmousedown="handleZoom(evt,'out')"/>
                <use id="reset" xlink:href="#resetDef" x="30" y="36" onmousedown="handleReset()"/>
                <g id="arrowUp" xlink:href="#dirArrow" transform="translate(30 24)" onmousedown="handlePan(0,-1)">
                  <use xlink:href="#rim" fill="#404040">
                        <set attributeName="fill" to="#808080" begin="arrowUp.mouseover" end="arrowUp.mouseout"/>
                  </use>
                  <path fill="none" stroke="white" stroke-width="1.5" d="M0,-3.0v7 M-2.5,-0.5L0,-3.0L2.5,-0.5"/>
                </g>
                <g id="arrowRight" xlink:href="#dirArrow" transform="rotate(90) translate(36 -43)" onmousedown="handlePan(1,0)">
                  <use xlink:href="#rim" fill="#404040">
                        <set attributeName="fill" to="#808080" begin="arrowRight.mouseover" end="arrowRight.mouseout"/>
                  </use>
                  <path fill="none" stroke="white" stroke-width="1.5" d="M0,-3.0v7 M-2.5,-0.5L0,-3.0L2.5,-0.5"/>
                </g>
                <g id="arrowDown" xlink:href="#dirArrow" transform="rotate(180) translate(-30 -48)" onmousedown="handlePan(0,1)">
                  <use xlink:href="#rim" fill="#404040">
                        <set attributeName="fill" to="#808080" begin="arrowDown.mouseover" end="arrowDown.mouseout"/>
                  </use>
                  <path fill="none" stroke="white" stroke-width="1.5" d="M0,-3.0v7 M-2.5,-0.5L0,-3.0L2.5,-0.5"/>
                </g>
                <g id="arrowLeft" xlink:href="#dirArrow" transform="rotate(270) translate(-36 17)" onmousedown="handlePan(-1,0)">
                  <use xlink:href="#rim" fill="#404040">
                        <set attributeName="fill" to="#808080" begin="arrowLeft.mouseover" end="arrowLeft.mouseout"/>
                  </use>
                  <path fill="none" stroke="white" stroke-width="1.5" d="M0,-3.0v7 M-2.5,-0.5L0,-3.0L2.5,-0.5"/>
                </g>
        </g>
</svg>
