<?xml version="1.0" encoding="UTF-8" standalone="no"?>
<!DOCTYPE svg PUBLIC "-//W3C//DTD SVG 1.1//EN"
 "http://www.w3.org/Graphics/SVG/1.1/DTD/svg11.dtd">
<!-- Generated by graphviz version 2.26.3 (20100126.1600)
 -->
<!-- Title: G Pages: 1 -->
<svg width="334pt" height="70pt"
 viewBox="0.00 0.00 334.00 70.00" xmlns="http://www.w3.org/2000/svg" xmlns:xlink="http://www.w3.org/1999/xlink">
<g id="graph1" class="graph" transform="scale(1 1) rotate(0) translate(4 66)">
<title>G</title>
<polygon fill="white" stroke="white" points="-4,5 -4,-66 331,-66 331,5 -4,5"/>
<!-- Node1 -->
<g id="node1" class="node"><title>Node1</title>
<polygon fill="#bfbfbf" stroke="black" points="0,-20.5 0,-41.5 144,-41.5 144,-20.5 0,-20.5"/>
<text text-anchor="middle" x="72" y="-28.5" font-family="Helvetica,sans-Serif" font-size="10.00">nsLayoutUtils::SortFrameList</text>
</g>
<!-- Node2 -->
<g id="node3" class="node"><title>Node2</title>
<a xlink:href="../../dd/d64/classns_frame_list.html#a9c41717d390591c7277ab44a3bf2b7bc" target="_top" xlink:title="nsFrameList::FirstChild">
<polygon fill="white" stroke="black" points="193.5,-40.5 193.5,-61.5 312.5,-61.5 312.5,-40.5 193.5,-40.5"/>
<text text-anchor="middle" x="253" y="-48.5" font-family="Helvetica,sans-Serif" font-size="10.00">nsFrameList::FirstChild</text>
</a>
</g>
<!-- Node1&#45;&gt;Node2 -->
<g id="edge2" class="edge"><title>Node1&#45;&gt;Node2</title>
<path fill="none" stroke="midnightblue" d="M144.056,-38.962C156.969,-40.3888 170.405,-41.8735 183.252,-43.293"/>
<polygon fill="midnightblue" stroke="midnightblue" points="183.083,-46.7956 193.407,-44.4151 183.852,-39.8379 183.083,-46.7956"/>
</g>
<!-- Node3 -->
<g id="node5" class="node"><title>Node3</title>
<a xlink:href="../../d7/de1/classns_layout_utils.html#afc2f0c8fc724feb415c362bf6912a407" target="_top" xlink:title="nsLayoutUtils::GetLastSibling">
<polygon fill="white" stroke="black" points="180,-0.5 180,-21.5 326,-21.5 326,-0.5 180,-0.5"/>
<text text-anchor="middle" x="253" y="-8.5" font-family="Helvetica,sans-Serif" font-size="10.00">nsLayoutUtils::GetLastSibling</text>
</a>
</g>
<!-- Node1&#45;&gt;Node3 -->
<g id="edge4" class="edge"><title>Node1&#45;&gt;Node3</title>
<path fill="none" stroke="midnightblue" d="M144.056,-23.038C152.488,-22.1063 161.143,-21.1499 169.712,-20.2031"/>
<polygon fill="midnightblue" stroke="midnightblue" points="170.157,-23.6754 179.712,-19.0982 169.388,-16.7177 170.157,-23.6754"/>
</g>
</g>
</svg>
