<?xml version="1.0" encoding="UTF-8" standalone="no"?>
<!DOCTYPE svg PUBLIC "-//W3C//DTD SVG 1.1//EN"
 "http://www.w3.org/Graphics/SVG/1.1/DTD/svg11.dtd">
<!-- Generated by graphviz version 2.26.3 (20100126.1600)
 -->
<!-- Title: G Pages: 1 -->
<!--zoomable 430 -->
<svg id="main" version="1.1" xmlns="http://www.w3.org/2000/svg" xmlns:xlink="http://www.w3.org/1999/xlink" xml:space="preserve" onload="init(evt)">
        <defs>
                <circle id="rim" cx="0" cy="0" r="7"/>
                <circle id="rim2" cx="0" cy="0" r="3.5"/>
                <g id="zoomPlus">
                        <use xlink:href="#rim" fill="#404040">
                                <set attributeName="fill" to="#808080" begin="zoomplus.mouseover" end="zoomplus.mouseout"/>
                        </use>
                        <path d="M-4,0h8M0,-4v8" fill="none" stroke="white" stroke-width="1.5" pointer-events="none"/>
                </g>
                <g id="zoomMin">
                        <use xlink:href="#rim" fill="#404040">
                                <set attributeName="fill" to="#808080" begin="zoomminus.mouseover" end="zoomminus.mouseout"/>
                        </use>
                        <path d="M-4,0h8" fill="none" stroke="white" stroke-width="1.5" pointer-events="none"/>
                </g>
                <g id="dirArrow">
                        <path fill="none" stroke="white" stroke-width="1.5" d="M0,-3.0v7 M-2.5,-0.5L0,-3.0L2.5,-0.5"/>
                </g>
               <g id="resetDef">
                       <use xlink:href="#rim2" fill="#404040">
                               <set attributeName="fill" to="#808080" begin="reset.mouseover" end="reset.mouseout"/>
                       </use>
               </g>
        </defs>

<script type="text/javascript">
var viewWidth = 894;
var viewHeight = 430;
var sectionId = 'dynsection-34';
</script>
<script xlink:href="../../svgpan.js"/>
<svg id="graph" class="graph">
<g id="viewport">
<title>G</title>
<polygon fill="white" stroke="white" points="-4,5 -4,-426 891,-426 891,5 -4,5"/>
<!-- Node1 -->
<g id="node1" class="node"><title>Node1</title>
<polygon fill="#bfbfbf" stroke="black" points="0.5,-119.5 0.5,-140.5 71.5,-140.5 71.5,-119.5 0.5,-119.5"/>
<text text-anchor="middle" x="36" y="-127.5" font-family="Helvetica,sans-Serif" font-size="10.00">onTouchEnd</text>
</g>
<!-- Node2 -->
<g id="node3" class="node"><title>Node2</title>
<a xlink:href="../../d1/dbd/apps_2keyboard_2js_2keyboard_8js.html#a4e23a91b94e858005459d71119b6451a" target="_top" xlink:title="endPress">
<polygon fill="white" stroke="black" points="235,-220.5 235,-241.5 293,-241.5 293,-220.5 235,-220.5"/>
<text text-anchor="middle" x="264" y="-228.5" font-family="Helvetica,sans-Serif" font-size="10.00">endPress</text>
</a>
</g>
<!-- Node1&#45;&gt;Node2 -->
<g id="edge2" class="edge"><title>Node1&#45;&gt;Node2</title>
<path fill="none" stroke="midnightblue" d="M59.9691,-140.618C100.85,-158.728 184.142,-195.624 230.668,-216.235"/>
<polygon fill="midnightblue" stroke="midnightblue" points="229.449,-219.523 240.01,-220.373 232.284,-213.122 229.449,-219.523"/>
</g>
<!-- Node16 -->
<g id="node32" class="node"><title>Node16</title>
<a xlink:href="../../d1/dbd/apps_2keyboard_2js_2keyboard_8js.html#ab94a7a3fe6c2694b99ae02cecfe804d5" target="_top" xlink:title="handleTouches">
<polygon fill="white" stroke="black" points="222.5,-80.5 222.5,-101.5 305.5,-101.5 305.5,-80.5 222.5,-80.5"/>
<text text-anchor="middle" x="264" y="-88.5" font-family="Helvetica,sans-Serif" font-size="10.00">handleTouches</text>
</a>
</g>
<!-- Node1&#45;&gt;Node16 -->
<g id="edge32" class="edge"><title>Node1&#45;&gt;Node16</title>
<path fill="none" stroke="midnightblue" d="M69.8108,-119.483C81.7807,-116.06 95.4025,-112.502 108,-110 142.501,-103.147 181.818,-98.3778 212.349,-95.3314"/>
<polygon fill="midnightblue" stroke="midnightblue" points="212.731,-98.8109 222.347,-94.3638 212.056,-91.8435 212.731,-98.8109"/>
</g>
<!-- Node17 -->
<g id="node34" class="node"><title>Node17</title>
<a xlink:href="../../d1/dbd/apps_2keyboard_2js_2keyboard_8js.html#adf29c5809e39f92faa17744fe27844af" target="_top" xlink:title="onTouchMove">
<polygon fill="white" stroke="black" points="108,-119.5 108,-140.5 186,-140.5 186,-119.5 108,-119.5"/>
<text text-anchor="middle" x="147" y="-127.5" font-family="Helvetica,sans-Serif" font-size="10.00">onTouchMove</text>
</a>
</g>
<!-- Node1&#45;&gt;Node17 -->
<g id="edge34" class="edge"><title>Node1&#45;&gt;Node17</title>
<path fill="none" stroke="midnightblue" d="M71.7321,-130C80.0225,-130 88.9899,-130 97.7472,-130"/>
<polygon fill="midnightblue" stroke="midnightblue" points="97.8778,-133.5 107.878,-130 97.8777,-126.5 97.8778,-133.5"/>
</g>
<!-- Node3 -->
<g id="node5" class="node"><title>Node3</title>
<a xlink:href="../../d1/dbd/apps_2keyboard_2js_2keyboard_8js.html#a144f37cdeda72d00534dac97f6444679" target="_top" xlink:title="candidatePanelOnScroll">
<polygon fill="white" stroke="black" points="346.5,-240.5 346.5,-261.5 467.5,-261.5 467.5,-240.5 346.5,-240.5"/>
<text text-anchor="middle" x="407" y="-248.5" font-family="Helvetica,sans-Serif" font-size="10.00">candidatePanelOnScroll</text>
</a>
</g>
<!-- Node2&#45;&gt;Node3 -->
<g id="edge4" class="edge"><title>Node2&#45;&gt;Node3</title>
<path fill="none" stroke="midnightblue" d="M293.283,-235.096C305.885,-236.858 321.212,-239.002 336.48,-241.137"/>
<polygon fill="midnightblue" stroke="midnightblue" points="336.087,-244.616 346.475,-242.535 337.056,-237.683 336.087,-244.616"/>
</g>
<!-- Node4 -->
<g id="node7" class="node"><title>Node4</title>
<a xlink:href="../../d1/dbd/apps_2keyboard_2js_2keyboard_8js.html#af9c1c7267aeff57a49f782be487f5417" target="_top" xlink:title="hideAlternatives">
<polygon fill="white" stroke="black" points="364,-120.5 364,-141.5 450,-141.5 450,-120.5 364,-120.5"/>
<text text-anchor="middle" x="407" y="-128.5" font-family="Helvetica,sans-Serif" font-size="10.00">hideAlternatives</text>
</a>
</g>
<!-- Node2&#45;&gt;Node4 -->
<g id="edge6" class="edge"><title>Node2&#45;&gt;Node4</title>
<path fill="none" stroke="midnightblue" d="M271.604,-220.269C284.278,-203.154 311.374,-169.704 342,-151 345.845,-148.652 349.987,-146.559 354.254,-144.699"/>
<polygon fill="midnightblue" stroke="midnightblue" points="355.691,-147.894 363.723,-140.986 353.136,-141.378 355.691,-147.894"/>
</g>
<!-- Node5 -->
<g id="node9" class="node"><title>Node5</title>
<a xlink:href="../../d1/dbd/apps_2keyboard_2js_2keyboard_8js.html#a8f28d388e140adaf9b6ebc50a5ba52d7" target="_top" xlink:title="hideKeyboardLayoutMenu">
<polygon fill="white" stroke="black" points="342.5,-200.5 342.5,-221.5 471.5,-221.5 471.5,-200.5 342.5,-200.5"/>
<text text-anchor="middle" x="407" y="-208.5" font-family="Helvetica,sans-Serif" font-size="10.00">hideKeyboardLayoutMenu</text>
</a>
</g>
<!-- Node2&#45;&gt;Node5 -->
<g id="edge8" class="edge"><title>Node2&#45;&gt;Node5</title>
<path fill="none" stroke="midnightblue" d="M293.283,-226.904C304.724,-225.304 318.412,-223.39 332.262,-221.453"/>
<polygon fill="midnightblue" stroke="midnightblue" points="332.927,-224.894 342.346,-220.043 331.958,-217.961 332.927,-224.894"/>
</g>
<!-- Node6 -->
<g id="node11" class="node"><title>Node6</title>
<a xlink:href="../../d1/dbd/apps_2keyboard_2js_2keyboard_8js.html#a60d90f1ca4522b28e7fa3437f12af350" target="_top" xlink:title="isNormalKey">
<polygon fill="white" stroke="black" points="370.5,-160.5 370.5,-181.5 443.5,-181.5 443.5,-160.5 370.5,-160.5"/>
<text text-anchor="middle" x="407" y="-168.5" font-family="Helvetica,sans-Serif" font-size="10.00">isNormalKey</text>
</a>
</g>
<!-- Node2&#45;&gt;Node6 -->
<g id="edge10" class="edge"><title>Node2&#45;&gt;Node6</title>
<path fill="none" stroke="midnightblue" d="M282.48,-220.354C298.017,-211.69 320.994,-199.541 342,-191 347.886,-188.607 354.169,-186.336 360.423,-184.242"/>
<polygon fill="midnightblue" stroke="midnightblue" points="361.719,-187.502 370.165,-181.105 359.573,-180.839 361.719,-187.502"/>
</g>
<!-- Node7 -->
<g id="node13" class="node"><title>Node7</title>
<a xlink:href="../../d1/dbd/apps_2keyboard_2js_2keyboard_8js.html#a86ee62b3aff5d19be8a82edbafb2967d" target="_top" xlink:title="setLayoutPage">
<polygon fill="white" stroke="black" points="366,-360.5 366,-381.5 448,-381.5 448,-360.5 366,-360.5"/>
<text text-anchor="middle" x="407" y="-368.5" font-family="Helvetica,sans-Serif" font-size="10.00">setLayoutPage</text>
</a>
</g>
<!-- Node2&#45;&gt;Node7 -->
<g id="edge12" class="edge"><title>Node2&#45;&gt;Node7</title>
<path fill="none" stroke="midnightblue" d="M268.009,-241.768C277.291,-265.225 302.531,-321.215 342,-351 346.359,-354.289 351.264,-357.043 356.376,-359.347"/>
<polygon fill="midnightblue" stroke="midnightblue" points="355.141,-362.622 365.729,-363.027 357.705,-356.108 355.141,-362.622"/>
</g>
<!-- Node13 -->
<g id="node25" class="node"><title>Node13</title>
<a xlink:href="../../d1/dbd/apps_2keyboard_2js_2keyboard_8js.html#aa81ee8f01abb42185a1c5039dd7052f0" target="_top" xlink:title="setUpperCase">
<polygon fill="white" stroke="black" points="367,-320.5 367,-341.5 447,-341.5 447,-320.5 367,-320.5"/>
<text text-anchor="middle" x="407" y="-328.5" font-family="Helvetica,sans-Serif" font-size="10.00">setUpperCase</text>
</a>
</g>
<!-- Node2&#45;&gt;Node13 -->
<g id="edge24" class="edge"><title>Node2&#45;&gt;Node13</title>
<path fill="none" stroke="midnightblue" d="M271.604,-241.731C284.278,-258.846 311.374,-292.296 342,-311 346.723,-313.885 351.896,-316.383 357.195,-318.541"/>
<polygon fill="midnightblue" stroke="midnightblue" points="356.208,-321.907 366.801,-322.066 358.619,-315.335 356.208,-321.907"/>
</g>
<!-- Node15 -->
<g id="node30" class="node"><title>Node15</title>
<a xlink:href="../../d1/dbd/apps_2keyboard_2js_2keyboard_8js.html#a27016f9f3f2b8e28c4732cae4fbc53e8" target="_top" xlink:title="switchToNextIME">
<polygon fill="white" stroke="black" points="359.5,-280.5 359.5,-301.5 454.5,-301.5 454.5,-280.5 359.5,-280.5"/>
<text text-anchor="middle" x="407" y="-288.5" font-family="Helvetica,sans-Serif" font-size="10.00">switchToNextIME</text>
</a>
</g>
<!-- Node2&#45;&gt;Node15 -->
<g id="edge30" class="edge"><title>Node2&#45;&gt;Node15</title>
<path fill="none" stroke="midnightblue" d="M282.48,-241.646C298.017,-250.31 320.994,-262.459 342,-271 347.465,-273.222 353.273,-275.339 359.082,-277.306"/>
<polygon fill="midnightblue" stroke="midnightblue" points="358.207,-280.702 368.799,-280.47 360.374,-274.046 358.207,-280.702"/>
</g>
<!-- Node8 -->
<g id="node15" class="node"><title>Node8</title>
<a xlink:href="../../d1/dbd/apps_2keyboard_2js_2keyboard_8js.html#a7b96a7f4f2f0187130b525c2608e2b36" target="_top" xlink:title="renderKeyboard">
<polygon fill="white" stroke="black" points="511.5,-360.5 511.5,-381.5 596.5,-381.5 596.5,-360.5 511.5,-360.5"/>
<text text-anchor="middle" x="554" y="-368.5" font-family="Helvetica,sans-Serif" font-size="10.00">renderKeyboard</text>
</a>
</g>
<!-- Node7&#45;&gt;Node8 -->
<g id="edge14" class="edge"><title>Node7&#45;&gt;Node8</title>
<path fill="none" stroke="midnightblue" d="M448.339,-371C464.808,-371 483.961,-371 501.401,-371"/>
<polygon fill="midnightblue" stroke="midnightblue" points="501.438,-374.5 511.438,-371 501.438,-367.5 501.438,-374.5"/>
</g>
<!-- Node9 -->
<g id="node17" class="node"><title>Node9</title>
<a xlink:href="../../d1/dbd/apps_2keyboard_2js_2keyboard_8js.html#acc8b089fda882346b28f6efe74bd32e1" target="_top" xlink:title="updateLayoutParams">
<polygon fill="white" stroke="black" points="637.5,-400.5 637.5,-421.5 746.5,-421.5 746.5,-400.5 637.5,-400.5"/>
<text text-anchor="middle" x="692" y="-408.5" font-family="Helvetica,sans-Serif" font-size="10.00">updateLayoutParams</text>
</a>
</g>
<!-- Node8&#45;&gt;Node9 -->
<g id="edge16" class="edge"><title>Node8&#45;&gt;Node9</title>
<path fill="none" stroke="midnightblue" d="M590.258,-381.51C607.238,-386.431 627.661,-392.351 645.74,-397.591"/>
<polygon fill="midnightblue" stroke="midnightblue" points="644.926,-400.999 655.505,-400.422 646.875,-394.276 644.926,-400.999"/>
</g>
<!-- Node11 -->
<g id="node21" class="node"><title>Node11</title>
<a xlink:href="../../d1/dbd/apps_2keyboard_2js_2keyboard_8js.html#a922182ce18cf4e3ac21cb6d43797d2ab" target="_top" xlink:title="needsCandidatePanel">
<polygon fill="white" stroke="black" points="636,-320.5 636,-341.5 748,-341.5 748,-320.5 636,-320.5"/>
<text text-anchor="middle" x="692" y="-328.5" font-family="Helvetica,sans-Serif" font-size="10.00">needsCandidatePanel</text>
</a>
</g>
<!-- Node8&#45;&gt;Node11 -->
<g id="edge20" class="edge"><title>Node8&#45;&gt;Node11</title>
<path fill="none" stroke="midnightblue" d="M590.258,-360.49C607.238,-355.569 627.661,-349.649 645.74,-344.409"/>
<polygon fill="midnightblue" stroke="midnightblue" points="646.875,-347.724 655.505,-341.578 644.926,-341.001 646.875,-347.724"/>
</g>
<!-- Node12 -->
<g id="node23" class="node"><title>Node12</title>
<a xlink:href="../../d1/dbd/apps_2keyboard_2js_2keyboard_8js.html#a451ae41f4caf7552018caa52051c8167" target="_top" xlink:title="modifyLayout">
<polygon fill="white" stroke="black" points="654.5,-360.5 654.5,-381.5 729.5,-381.5 729.5,-360.5 654.5,-360.5"/>
<text text-anchor="middle" x="692" y="-368.5" font-family="Helvetica,sans-Serif" font-size="10.00">modifyLayout</text>
</a>
</g>
<!-- Node8&#45;&gt;Node12 -->
<g id="edge22" class="edge"><title>Node8&#45;&gt;Node12</title>
<path fill="none" stroke="midnightblue" d="M596.531,-371C611.459,-371 628.335,-371 643.702,-371"/>
<polygon fill="midnightblue" stroke="midnightblue" points="644.057,-374.5 654.057,-371 644.057,-367.5 644.057,-374.5"/>
</g>
<!-- Node10 -->
<g id="node19" class="node"><title>Node10</title>
<a xlink:href="../../d1/dbd/apps_2keyboard_2js_2keyboard_8js.html#aa0453d64a59724a4df0a4682fbb42cd9" target="_top" xlink:title="getKeyCoordinateY">
<polygon fill="white" stroke="black" points="784.5,-400.5 784.5,-421.5 885.5,-421.5 885.5,-400.5 784.5,-400.5"/>
<text text-anchor="middle" x="835" y="-408.5" font-family="Helvetica,sans-Serif" font-size="10.00">getKeyCoordinateY</text>
</a>
</g>
<!-- Node9&#45;&gt;Node10 -->
<g id="edge18" class="edge"><title>Node9&#45;&gt;Node10</title>
<path fill="none" stroke="midnightblue" d="M746.879,-411C755.806,-411 765.099,-411 774.159,-411"/>
<polygon fill="midnightblue" stroke="midnightblue" points="774.256,-414.5 784.256,-411 774.256,-407.5 774.256,-414.5"/>
</g>
<!-- Node13&#45;&gt;Node11 -->
<g id="edge28" class="edge"><title>Node13&#45;&gt;Node11</title>
<path fill="none" stroke="midnightblue" d="M447.229,-331C493.597,-331 570.498,-331 625.737,-331"/>
<polygon fill="midnightblue" stroke="midnightblue" points="625.788,-334.5 635.788,-331 625.788,-327.5 625.788,-334.5"/>
</g>
<!-- Node14 -->
<g id="node27" class="node"><title>Node14</title>
<a xlink:href="../../d1/d22/ical_8js.html#a6053319846c80bf9561a1958bb817380" target="_top" xlink:title="typeof">
<polygon fill="white" stroke="black" points="532,-281.5 532,-302.5 576,-302.5 576,-281.5 532,-281.5"/>
<text text-anchor="middle" x="554" y="-289.5" font-family="Helvetica,sans-Serif" font-size="10.00">typeof</text>
</a>
</g>
<!-- Node13&#45;&gt;Node14 -->
<g id="edge26" class="edge"><title>Node13&#45;&gt;Node14</title>
<path fill="none" stroke="midnightblue" d="M446.78,-320.446C470.416,-314.175 499.992,-306.329 522.091,-300.466"/>
<polygon fill="midnightblue" stroke="midnightblue" points="523.206,-303.791 531.974,-297.844 521.411,-297.025 523.206,-303.791"/>
</g>
<!-- Node17&#45;&gt;Node16 -->
<g id="edge36" class="edge"><title>Node17&#45;&gt;Node16</title>
<path fill="none" stroke="midnightblue" d="M178.662,-119.446C192.189,-114.937 208.159,-109.614 222.605,-104.798"/>
<polygon fill="midnightblue" stroke="midnightblue" points="223.933,-108.045 232.313,-101.562 221.719,-101.404 223.933,-108.045"/>
</g>
<!-- Node18 -->
<g id="node37" class="node"><title>Node18</title>
<a xlink:href="../../d1/dbd/apps_2keyboard_2js_2keyboard_8js.html#ac9221f6492e79a110fec5c6238940268" target="_top" xlink:title="movePress">
<polygon fill="white" stroke="black" points="231,-120.5 231,-141.5 297,-141.5 297,-120.5 231,-120.5"/>
<text text-anchor="middle" x="264" y="-128.5" font-family="Helvetica,sans-Serif" font-size="10.00">movePress</text>
</a>
</g>
<!-- Node17&#45;&gt;Node18 -->
<g id="edge38" class="edge"><title>Node17&#45;&gt;Node18</title>
<path fill="none" stroke="midnightblue" d="M186.285,-130.336C197.365,-130.43 209.48,-130.534 220.777,-130.631"/>
<polygon fill="midnightblue" stroke="midnightblue" points="220.84,-134.131 230.87,-130.717 220.9,-127.131 220.84,-134.131"/>
</g>
<!-- Node18&#45;&gt;Node4 -->
<g id="edge40" class="edge"><title>Node18&#45;&gt;Node4</title>
<path fill="none" stroke="midnightblue" d="M297.167,-131C314.021,-131 334.911,-131 353.933,-131"/>
<polygon fill="midnightblue" stroke="midnightblue" points="353.974,-134.5 363.974,-131 353.974,-127.5 353.974,-134.5"/>
</g>
<!-- Node18&#45;&gt;Node5 -->
<g id="edge42" class="edge"><title>Node18&#45;&gt;Node5</title>
<path fill="none" stroke="midnightblue" d="M275.251,-141.782C289.659,-155.06 315.896,-177.506 342,-191 346.235,-193.189 350.75,-195.185 355.353,-196.994"/>
<polygon fill="midnightblue" stroke="midnightblue" points="354.267,-200.324 364.861,-200.449 356.657,-193.744 354.267,-200.324"/>
</g>
<!-- Node18&#45;&gt;Node6 -->
<g id="edge46" class="edge"><title>Node18&#45;&gt;Node6</title>
<path fill="none" stroke="midnightblue" d="M297.167,-140.277C316.027,-145.553 339.94,-152.242 360.635,-158.031"/>
<polygon fill="midnightblue" stroke="midnightblue" points="359.926,-161.467 370.499,-160.79 361.811,-154.725 359.926,-161.467"/>
</g>
<!-- Node19 -->
<g id="node41" class="node"><title>Node19</title>
<a xlink:href="../../d1/dbd/apps_2keyboard_2js_2keyboard_8js.html#a81799b4f01fcd370a23b18448708a3f9" target="_top" xlink:title="inMenuLockedArea">
<polygon fill="white" stroke="black" points="357,-80.5 357,-101.5 457,-101.5 457,-80.5 357,-80.5"/>
<text text-anchor="middle" x="407" y="-88.5" font-family="Helvetica,sans-Serif" font-size="10.00">inMenuLockedArea</text>
</a>
</g>
<!-- Node18&#45;&gt;Node19 -->
<g id="edge44" class="edge"><title>Node18&#45;&gt;Node19</title>
<path fill="none" stroke="midnightblue" d="M297.167,-121.723C315.673,-116.546 339.043,-110.009 359.464,-104.297"/>
<polygon fill="midnightblue" stroke="midnightblue" points="360.53,-107.633 369.218,-101.568 358.645,-100.892 360.53,-107.633"/>
</g>
<!-- Node20 -->
<g id="node44" class="node"><title>Node20</title>
<a xlink:href="../../d1/dbd/apps_2keyboard_2js_2keyboard_8js.html#a6345c8ae6f65ead950ef07b9b6a3cc89" target="_top" xlink:title="setMenuTimeout">
<polygon fill="white" stroke="black" points="362.5,-40.5 362.5,-61.5 451.5,-61.5 451.5,-40.5 362.5,-40.5"/>
<text text-anchor="middle" x="407" y="-48.5" font-family="Helvetica,sans-Serif" font-size="10.00">setMenuTimeout</text>
</a>
</g>
<!-- Node18&#45;&gt;Node20 -->
<g id="edge48" class="edge"><title>Node18&#45;&gt;Node20</title>
<path fill="none" stroke="midnightblue" d="M274.292,-120.299C283.2,-115.017 296.162,-109.343 306,-102 325.167,-87.6935 321.841,-74.8712 342,-62 345.374,-59.8457 348.995,-57.9111 352.737,-56.1969"/>
<polygon fill="midnightblue" stroke="midnightblue" points="354.244,-59.3634 362.221,-52.3899 351.637,-52.8673 354.244,-59.3634"/>
</g>
<!-- Node20&#45;&gt;Node18 -->
<g id="edge62" class="edge"><title>Node20&#45;&gt;Node18</title>
<path fill="none" stroke="midnightblue" d="M387.929,-61.5544C374.325,-65.8838 356.031,-71.0411 342,-80 321.841,-92.8712 325.167,-105.694 306,-120 305.915,-120.063 305.83,-120.127 305.744,-120.19"/>
<polygon fill="midnightblue" stroke="midnightblue" points="303.785,-117.289 297.281,-125.652 307.581,-123.17 303.785,-117.289"/>
</g>
<!-- Node21 -->
<g id="node46" class="node"><title>Node21</title>
<a xlink:href="../../d1/dbd/apps_2keyboard_2js_2keyboard_8js.html#a24c9b89c87414c4fa2edb61354cc1bf4" target="_top" xlink:title="showAlternatives">
<polygon fill="white" stroke="black" points="508,-60.5 508,-81.5 600,-81.5 600,-60.5 508,-60.5"/>
<text text-anchor="middle" x="554" y="-68.5" font-family="Helvetica,sans-Serif" font-size="10.00">showAlternatives</text>
</a>
</g>
<!-- Node20&#45;&gt;Node21 -->
<g id="edge50" class="edge"><title>Node20&#45;&gt;Node21</title>
<path fill="none" stroke="midnightblue" d="M451.504,-57.0549C466.13,-59.0449 482.581,-61.2831 497.951,-63.3743"/>
<polygon fill="midnightblue" stroke="midnightblue" points="497.485,-66.8431 507.866,-64.7232 498.429,-59.907 497.485,-66.8431"/>
</g>
<!-- Node26 -->
<g id="node56" class="node"><title>Node26</title>
<a xlink:href="../../d1/dbd/apps_2keyboard_2js_2keyboard_8js.html#aaa02336590e9c88ad9fea2434b80f670" target="_top" xlink:title="sendKey">
<polygon fill="white" stroke="black" points="526.5,-20.5 526.5,-41.5 581.5,-41.5 581.5,-20.5 526.5,-20.5"/>
<text text-anchor="middle" x="554" y="-28.5" font-family="Helvetica,sans-Serif" font-size="10.00">sendKey</text>
</a>
</g>
<!-- Node20&#45;&gt;Node26 -->
<g id="edge60" class="edge"><title>Node20&#45;&gt;Node26</title>
<path fill="none" stroke="midnightblue" d="M451.504,-44.9451C472.133,-42.1383 496.392,-38.8378 516.129,-36.1525"/>
<polygon fill="midnightblue" stroke="midnightblue" points="516.849,-39.5869 526.286,-34.7707 515.905,-32.6508 516.849,-39.5869"/>
</g>
<!-- Node22 -->
<g id="node48" class="node"><title>Node22</title>
<a xlink:href="../../d1/dbd/apps_2keyboard_2js_2keyboard_8js.html#af8d3efc13cc7c9040fb4976125ead3d5" target="_top" xlink:title="showIMEList">
<polygon fill="white" stroke="black" points="655,-40.5 655,-61.5 729,-61.5 729,-40.5 655,-40.5"/>
<text text-anchor="middle" x="692" y="-48.5" font-family="Helvetica,sans-Serif" font-size="10.00">showIMEList</text>
</a>
</g>
<!-- Node21&#45;&gt;Node22 -->
<g id="edge52" class="edge"><title>Node21&#45;&gt;Node22</title>
<path fill="none" stroke="midnightblue" d="M600.336,-64.2847C614.576,-62.2209 630.264,-59.9472 644.576,-57.873"/>
<polygon fill="midnightblue" stroke="midnightblue" points="645.319,-61.302 654.713,-56.4038 644.315,-54.3744 645.319,-61.302"/>
</g>
<!-- Node23 -->
<g id="node50" class="node"><title>Node23</title>
<a xlink:href="../../d1/dbd/apps_2keyboard_2js_2keyboard_8js.html#aa7d18f85eb186d45ea087d13b84dfd4d" target="_top" xlink:title="getWindowLeft">
<polygon fill="white" stroke="black" points="651,-0.5 651,-21.5 733,-21.5 733,-0.5 651,-0.5"/>
<text text-anchor="middle" x="692" y="-8.5" font-family="Helvetica,sans-Serif" font-size="10.00">getWindowLeft</text>
</a>
</g>
<!-- Node21&#45;&gt;Node23 -->
<g id="edge54" class="edge"><title>Node21&#45;&gt;Node23</title>
<path fill="none" stroke="midnightblue" d="M579.51,-60.4324C586.234,-57.5049 593.441,-54.2384 600,-51 616.412,-42.897 619.325,-38.5479 636,-31 640.467,-28.9778 645.205,-27.0175 649.958,-25.1657"/>
<polygon fill="midnightblue" stroke="midnightblue" points="651.521,-28.3181 659.657,-21.532 649.065,-21.763 651.521,-28.3181"/>
</g>
<!-- Node24 -->
<g id="node52" class="node"><title>Node24</title>
<a xlink:href="../../d1/dbd/apps_2keyboard_2js_2keyboard_8js.html#afc2f79c687067f0d9318f7b475ebee80" target="_top" xlink:title="getUpperCaseValue">
<polygon fill="white" stroke="black" points="640,-120.5 640,-141.5 744,-141.5 744,-120.5 640,-120.5"/>
<text text-anchor="middle" x="692" y="-128.5" font-family="Helvetica,sans-Serif" font-size="10.00">getUpperCaseValue</text>
</a>
</g>
<!-- Node21&#45;&gt;Node24 -->
<g id="edge56" class="edge"><title>Node21&#45;&gt;Node24</title>
<path fill="none" stroke="midnightblue" d="M574.267,-81.6664C590.688,-90.1182 614.54,-101.966 636,-111 640.813,-113.026 645.909,-115.032 650.99,-116.947"/>
<polygon fill="midnightblue" stroke="midnightblue" points="650.069,-120.337 660.663,-120.498 652.482,-113.766 650.069,-120.337"/>
</g>
<!-- Node25 -->
<g id="node54" class="node"><title>Node25</title>
<a xlink:href="../../d1/dbd/apps_2keyboard_2js_2keyboard_8js.html#a806b936549a9fdf76d9455e348ec089f" target="_top" xlink:title="getWindowTop">
<polygon fill="white" stroke="black" points="651,-80.5 651,-101.5 733,-101.5 733,-80.5 651,-80.5"/>
<text text-anchor="middle" x="692" y="-88.5" font-family="Helvetica,sans-Serif" font-size="10.00">getWindowTop</text>
</a>
</g>
<!-- Node21&#45;&gt;Node25 -->
<g id="edge58" class="edge"><title>Node21&#45;&gt;Node25</title>
<path fill="none" stroke="midnightblue" d="M600.336,-77.7153C613.314,-79.5963 627.496,-81.6516 640.742,-83.5714"/>
<polygon fill="midnightblue" stroke="midnightblue" points="640.255,-87.0372 650.654,-85.0078 641.259,-80.1096 640.255,-87.0372"/>
</g>
</g>
</svg>
        <g id="navigator" transform="translate(0 0)" fill="#404254">
                <rect fill="#f2f5e9" fill-opacity="0.5" stroke="#606060" stroke-width=".5" x="0" y="0" width="60" height="60"/>
                <use id="zoomplus" xlink:href="#zoomPlus" x="17" y="9" onmousedown="handleZoom(evt,'in')"/>
                <use id="zoomminus" xlink:href="#zoomMin" x="42" y="9" onmousedown="handleZoom(evt,'out')"/>
                <use id="reset" xlink:href="#resetDef" x="30" y="36" onmousedown="handleReset()"/>
                <g id="arrowUp" xlink:href="#dirArrow" transform="translate(30 24)" onmousedown="handlePan(0,-1)">
                  <use xlink:href="#rim" fill="#404040">
                        <set attributeName="fill" to="#808080" begin="arrowUp.mouseover" end="arrowUp.mouseout"/>
                  </use>
                  <path fill="none" stroke="white" stroke-width="1.5" d="M0,-3.0v7 M-2.5,-0.5L0,-3.0L2.5,-0.5"/>
                </g>
                <g id="arrowRight" xlink:href="#dirArrow" transform="rotate(90) translate(36 -43)" onmousedown="handlePan(1,0)">
                  <use xlink:href="#rim" fill="#404040">
                        <set attributeName="fill" to="#808080" begin="arrowRight.mouseover" end="arrowRight.mouseout"/>
                  </use>
                  <path fill="none" stroke="white" stroke-width="1.5" d="M0,-3.0v7 M-2.5,-0.5L0,-3.0L2.5,-0.5"/>
                </g>
                <g id="arrowDown" xlink:href="#dirArrow" transform="rotate(180) translate(-30 -48)" onmousedown="handlePan(0,1)">
                  <use xlink:href="#rim" fill="#404040">
                        <set attributeName="fill" to="#808080" begin="arrowDown.mouseover" end="arrowDown.mouseout"/>
                  </use>
                  <path fill="none" stroke="white" stroke-width="1.5" d="M0,-3.0v7 M-2.5,-0.5L0,-3.0L2.5,-0.5"/>
                </g>
                <g id="arrowLeft" xlink:href="#dirArrow" transform="rotate(270) translate(-36 17)" onmousedown="handlePan(-1,0)">
                  <use xlink:href="#rim" fill="#404040">
                        <set attributeName="fill" to="#808080" begin="arrowLeft.mouseover" end="arrowLeft.mouseout"/>
                  </use>
                  <path fill="none" stroke="white" stroke-width="1.5" d="M0,-3.0v7 M-2.5,-0.5L0,-3.0L2.5,-0.5"/>
                </g>
        </g>
</svg>
