<?xml version="1.0" encoding="UTF-8" standalone="no"?>
<!DOCTYPE svg PUBLIC "-//W3C//DTD SVG 1.1//EN"
 "http://www.w3.org/Graphics/SVG/1.1/DTD/svg11.dtd">
<!-- Generated by graphviz version 2.26.3 (20100126.1600)
 -->
<!-- Title: G Pages: 1 -->
<svg width="350pt" height="30pt"
 viewBox="0.00 0.00 350.00 30.00" xmlns="http://www.w3.org/2000/svg" xmlns:xlink="http://www.w3.org/1999/xlink">
<g id="graph1" class="graph" transform="scale(1 1) rotate(0) translate(4 26)">
<title>G</title>
<polygon fill="white" stroke="white" points="-4,5 -4,-26 347,-26 347,5 -4,5"/>
<!-- Node1 -->
<g id="node1" class="node"><title>Node1</title>
<polygon fill="#bfbfbf" stroke="black" points="0.5,-0.5 0.5,-21.5 89.5,-21.5 89.5,-0.5 0.5,-0.5"/>
<text text-anchor="middle" x="45" y="-8.5" font-family="Helvetica,sans-Serif" font-size="10.00">isSpecialKeyObj</text>
</g>
<!-- Node2 -->
<g id="node3" class="node"><title>Node2</title>
<a xlink:href="../../d1/dbd/apps_2keyboard_2js_2keyboard_8js.html#a4a74127111cc8c17f8d717e46fb96944" target="_top" xlink:title="initKeyboard">
<polygon fill="white" stroke="black" points="126.5,-0.5 126.5,-21.5 197.5,-21.5 197.5,-0.5 126.5,-0.5"/>
<text text-anchor="middle" x="162" y="-8.5" font-family="Helvetica,sans-Serif" font-size="10.00">initKeyboard</text>
</a>
</g>
<!-- Node1&#45;&gt;Node2 -->
<g id="edge2" class="edge"><title>Node1&#45;&gt;Node2</title>
<path fill="none" stroke="midnightblue" d="M99.6701,-11C108.706,-11 117.864,-11 126.278,-11"/>
<polygon fill="midnightblue" stroke="midnightblue" points="99.5665,-7.5001 89.5664,-11 99.5664,-14.5001 99.5665,-7.5001"/>
</g>
<!-- Node3 -->
<g id="node5" class="node"><title>Node3</title>
<a xlink:href="../../d1/dbd/apps_2keyboard_2js_2keyboard_8js.html#a426dddc1977adce1af8952ff886ed206" target="_top" xlink:title="getKeyboardSettings">
<polygon fill="white" stroke="black" points="234.5,-0.5 234.5,-21.5 341.5,-21.5 341.5,-0.5 234.5,-0.5"/>
<text text-anchor="middle" x="288" y="-8.5" font-family="Helvetica,sans-Serif" font-size="10.00">getKeyboardSettings</text>
</a>
</g>
<!-- Node2&#45;&gt;Node3 -->
<g id="edge4" class="edge"><title>Node2&#45;&gt;Node3</title>
<path fill="none" stroke="midnightblue" d="M207.931,-11C216.485,-11 225.493,-11 234.256,-11"/>
<polygon fill="midnightblue" stroke="midnightblue" points="207.77,-7.5001 197.77,-11 207.769,-14.5001 207.77,-7.5001"/>
</g>
</g>
</svg>
