<?xml version="1.0" encoding="UTF-8" standalone="no"?>
<!DOCTYPE svg PUBLIC "-//W3C//DTD SVG 1.1//EN"
 "http://www.w3.org/Graphics/SVG/1.1/DTD/svg11.dtd">
<!-- Generated by graphviz version 2.26.3 (20100126.1600)
 -->
<!-- Title: G Pages: 1 -->
<!--zoomable 368 -->
<svg id="main" version="1.1" xmlns="http://www.w3.org/2000/svg" xmlns:xlink="http://www.w3.org/1999/xlink" xml:space="preserve" onload="init(evt)">
        <defs>
                <circle id="rim" cx="0" cy="0" r="7"/>
                <circle id="rim2" cx="0" cy="0" r="3.5"/>
                <g id="zoomPlus">
                        <use xlink:href="#rim" fill="#404040">
                                <set attributeName="fill" to="#808080" begin="zoomplus.mouseover" end="zoomplus.mouseout"/>
                        </use>
                        <path d="M-4,0h8M0,-4v8" fill="none" stroke="white" stroke-width="1.5" pointer-events="none"/>
                </g>
                <g id="zoomMin">
                        <use xlink:href="#rim" fill="#404040">
                                <set attributeName="fill" to="#808080" begin="zoomminus.mouseover" end="zoomminus.mouseout"/>
                        </use>
                        <path d="M-4,0h8" fill="none" stroke="white" stroke-width="1.5" pointer-events="none"/>
                </g>
                <g id="dirArrow">
                        <path fill="none" stroke="white" stroke-width="1.5" d="M0,-3.0v7 M-2.5,-0.5L0,-3.0L2.5,-0.5"/>
                </g>
               <g id="resetDef">
                       <use xlink:href="#rim2" fill="#404040">
                               <set attributeName="fill" to="#808080" begin="reset.mouseover" end="reset.mouseout"/>
                       </use>
               </g>
        </defs>

<script type="text/javascript">
var viewWidth = 608;
var viewHeight = 368;
var sectionId = 'dynsection-29';
</script>
<script xlink:href="../../svgpan.js"/>
<svg id="graph" class="graph">
<g id="viewport">
<title>G</title>
<polygon fill="white" stroke="white" points="-4,5 -4,-364 605,-364 605,5 -4,5"/>
<!-- Node1 -->
<g id="node1" class="node"><title>Node1</title>
<polygon fill="#bfbfbf" stroke="black" points="0,-59.5 0,-80.5 82,-80.5 82,-59.5 0,-59.5"/>
<text text-anchor="middle" x="41" y="-67.5" font-family="Helvetica,sans-Serif" font-size="10.00">onMouseDown</text>
</g>
<!-- Node2 -->
<g id="node3" class="node"><title>Node2</title>
<a xlink:href="../../d1/dbd/apps_2keyboard_2js_2keyboard_8js.html#a9af72ed2e70290213040b48bff173bfb" target="_top" xlink:title="startPress">
<polygon fill="white" stroke="black" points="118,-59.5 118,-80.5 180,-80.5 180,-59.5 118,-59.5"/>
<text text-anchor="middle" x="149" y="-67.5" font-family="Helvetica,sans-Serif" font-size="10.00">startPress</text>
</a>
</g>
<!-- Node1&#45;&gt;Node2 -->
<g id="edge2" class="edge"><title>Node1&#45;&gt;Node2</title>
<path fill="none" stroke="midnightblue" d="M82.1383,-70C90.4372,-70 99.1665,-70 107.478,-70"/>
<polygon fill="midnightblue" stroke="midnightblue" points="107.72,-73.5001 117.72,-70 107.72,-66.5001 107.72,-73.5001"/>
</g>
<!-- Node3 -->
<g id="node5" class="node"><title>Node3</title>
<a xlink:href="../../d1/dbd/apps_2keyboard_2js_2keyboard_8js.html#a6345c8ae6f65ead950ef07b9b6a3cc89" target="_top" xlink:title="setMenuTimeout">
<polygon fill="white" stroke="black" points="216.5,-118.5 216.5,-139.5 305.5,-139.5 305.5,-118.5 216.5,-118.5"/>
<text text-anchor="middle" x="261" y="-126.5" font-family="Helvetica,sans-Serif" font-size="10.00">setMenuTimeout</text>
</a>
</g>
<!-- Node2&#45;&gt;Node3 -->
<g id="edge4" class="edge"><title>Node2&#45;&gt;Node3</title>
<path fill="none" stroke="midnightblue" d="M169.023,-80.548C186.514,-89.7617 212.124,-103.253 231.881,-113.661"/>
<polygon fill="midnightblue" stroke="midnightblue" points="230.294,-116.78 240.772,-118.344 233.556,-110.587 230.294,-116.78"/>
</g>
<!-- Node14 -->
<g id="node27" class="node"><title>Node14</title>
<a xlink:href="../../d1/dbd/apps_2keyboard_2js_2keyboard_8js.html#a60d90f1ca4522b28e7fa3437f12af350" target="_top" xlink:title="isNormalKey">
<polygon fill="white" stroke="black" points="498.5,-58.5 498.5,-79.5 571.5,-79.5 571.5,-58.5 498.5,-58.5"/>
<text text-anchor="middle" x="535" y="-66.5" font-family="Helvetica,sans-Serif" font-size="10.00">isNormalKey</text>
</a>
</g>
<!-- Node2&#45;&gt;Node14 -->
<g id="edge30" class="edge"><title>Node2&#45;&gt;Node14</title>
<path fill="none" stroke="midnightblue" d="M180.021,-70.5594C191.344,-70.7382 204.251,-70.9123 216,-71 312.591,-71.7208 425.635,-70.5311 487.88,-69.6996"/>
<polygon fill="midnightblue" stroke="midnightblue" points="488.208,-73.1955 498.16,-69.5593 488.113,-66.1962 488.208,-73.1955"/>
</g>
<!-- Node15 -->
<g id="node31" class="node"><title>Node15</title>
<a xlink:href="../../d1/dbd/apps_2keyboard_2js_2keyboard_8js.html#abddc679320b77782fade94f3c7b6ad57" target="_top" xlink:title="sendDelete">
<polygon fill="white" stroke="black" points="228,-40.5 228,-61.5 294,-61.5 294,-40.5 228,-40.5"/>
<text text-anchor="middle" x="261" y="-48.5" font-family="Helvetica,sans-Serif" font-size="10.00">sendDelete</text>
</a>
</g>
<!-- Node2&#45;&gt;Node15 -->
<g id="edge32" class="edge"><title>Node2&#45;&gt;Node15</title>
<path fill="none" stroke="midnightblue" d="M180.198,-64.7074C191.728,-62.7516 205.015,-60.4975 217.441,-58.3895"/>
<polygon fill="midnightblue" stroke="midnightblue" points="218.345,-61.7861 227.619,-56.6628 217.175,-54.8848 218.345,-61.7861"/>
</g>
<!-- Node16 -->
<g id="node33" class="node"><title>Node16</title>
<a xlink:href="../../d1/dbd/apps_2keyboard_2js_2keyboard_8js.html#ad3231a6e9c5b8edb61a24df21e69deaf" target="_top" xlink:title="triggerFeedback">
<polygon fill="white" stroke="black" points="218,-0.5 218,-21.5 304,-21.5 304,-0.5 218,-0.5"/>
<text text-anchor="middle" x="261" y="-8.5" font-family="Helvetica,sans-Serif" font-size="10.00">triggerFeedback</text>
</a>
</g>
<!-- Node2&#45;&gt;Node16 -->
<g id="edge34" class="edge"><title>Node2&#45;&gt;Node16</title>
<path fill="none" stroke="midnightblue" d="M166.065,-59.3732C179.437,-51.2168 198.624,-39.8851 216,-31 219.497,-29.212 223.188,-27.4216 226.89,-25.6874"/>
<polygon fill="midnightblue" stroke="midnightblue" points="228.369,-28.8599 236.014,-21.5254 225.464,-22.4911 228.369,-28.8599"/>
</g>
<!-- Node4 -->
<g id="node7" class="node"><title>Node4</title>
<a xlink:href="../../d1/dbd/apps_2keyboard_2js_2keyboard_8js.html#a24c9b89c87414c4fa2edb61354cc1bf4" target="_top" xlink:title="showAlternatives">
<polygon fill="white" stroke="black" points="342,-258.5 342,-279.5 434,-279.5 434,-258.5 342,-258.5"/>
<text text-anchor="middle" x="388" y="-266.5" font-family="Helvetica,sans-Serif" font-size="10.00">showAlternatives</text>
</a>
</g>
<!-- Node3&#45;&gt;Node4 -->
<g id="edge6" class="edge"><title>Node3&#45;&gt;Node4</title>
<path fill="none" stroke="midnightblue" d="M270.546,-139.523C292.059,-163.238 344.548,-221.1 371.474,-250.782"/>
<polygon fill="midnightblue" stroke="midnightblue" points="369.032,-253.3 378.344,-258.355 374.217,-248.597 369.032,-253.3"/>
</g>
<!-- Node9 -->
<g id="node17" class="node"><title>Node9</title>
<a xlink:href="../../d1/dbd/apps_2keyboard_2js_2keyboard_8js.html#aaa02336590e9c88ad9fea2434b80f670" target="_top" xlink:title="sendKey">
<polygon fill="white" stroke="black" points="360.5,-158.5 360.5,-179.5 415.5,-179.5 415.5,-158.5 360.5,-158.5"/>
<text text-anchor="middle" x="388" y="-166.5" font-family="Helvetica,sans-Serif" font-size="10.00">sendKey</text>
</a>
</g>
<!-- Node3&#45;&gt;Node9 -->
<g id="edge16" class="edge"><title>Node3&#45;&gt;Node9</title>
<path fill="none" stroke="midnightblue" d="M294.368,-139.51C311.569,-144.927 332.612,-151.555 350.388,-157.154"/>
<polygon fill="midnightblue" stroke="midnightblue" points="349.834,-160.649 360.423,-160.314 351.937,-153.972 349.834,-160.649"/>
</g>
<!-- Node10 -->
<g id="node19" class="node"><title>Node10</title>
<a xlink:href="../../d1/dbd/apps_2keyboard_2js_2keyboard_8js.html#ac9221f6492e79a110fec5c6238940268" target="_top" xlink:title="movePress">
<polygon fill="white" stroke="black" points="355,-118.5 355,-139.5 421,-139.5 421,-118.5 355,-118.5"/>
<text text-anchor="middle" x="388" y="-126.5" font-family="Helvetica,sans-Serif" font-size="10.00">movePress</text>
</a>
</g>
<!-- Node3&#45;&gt;Node10 -->
<g id="edge18" class="edge"><title>Node3&#45;&gt;Node10</title>
<path fill="none" stroke="midnightblue" d="M305.775,-122.518C318.385,-122.147 332.075,-122.161 344.602,-122.56"/>
<polygon fill="midnightblue" stroke="midnightblue" points="344.665,-126.066 354.802,-122.986 344.957,-119.072 344.665,-126.066"/>
</g>
<!-- Node5 -->
<g id="node9" class="node"><title>Node5</title>
<a xlink:href="../../d1/dbd/apps_2keyboard_2js_2keyboard_8js.html#af8d3efc13cc7c9040fb4976125ead3d5" target="_top" xlink:title="showIMEList">
<polygon fill="white" stroke="black" points="498,-338.5 498,-359.5 572,-359.5 572,-338.5 498,-338.5"/>
<text text-anchor="middle" x="535" y="-346.5" font-family="Helvetica,sans-Serif" font-size="10.00">showIMEList</text>
</a>
</g>
<!-- Node4&#45;&gt;Node5 -->
<g id="edge8" class="edge"><title>Node4&#45;&gt;Node5</title>
<path fill="none" stroke="midnightblue" d="M399.668,-279.515C414.866,-292.724 442.724,-315.313 470,-329 475.679,-331.85 481.842,-334.385 488.036,-336.612"/>
<polygon fill="midnightblue" stroke="midnightblue" points="487.134,-340.001 497.727,-339.86 489.357,-333.364 487.134,-340.001"/>
</g>
<!-- Node6 -->
<g id="node11" class="node"><title>Node6</title>
<a xlink:href="../../d1/dbd/apps_2keyboard_2js_2keyboard_8js.html#aa7d18f85eb186d45ea087d13b84dfd4d" target="_top" xlink:title="getWindowLeft">
<polygon fill="white" stroke="black" points="494,-298.5 494,-319.5 576,-319.5 576,-298.5 494,-298.5"/>
<text text-anchor="middle" x="535" y="-306.5" font-family="Helvetica,sans-Serif" font-size="10.00">getWindowLeft</text>
</a>
</g>
<!-- Node4&#45;&gt;Node6 -->
<g id="edge10" class="edge"><title>Node4&#45;&gt;Node6</title>
<path fill="none" stroke="midnightblue" d="M426.623,-279.51C444.949,-284.496 467.043,-290.508 486.488,-295.799"/>
<polygon fill="midnightblue" stroke="midnightblue" points="485.812,-299.243 496.38,-298.491 487.65,-292.488 485.812,-299.243"/>
</g>
<!-- Node7 -->
<g id="node13" class="node"><title>Node7</title>
<a xlink:href="../../d1/dbd/apps_2keyboard_2js_2keyboard_8js.html#afc2f79c687067f0d9318f7b475ebee80" target="_top" xlink:title="getUpperCaseValue">
<polygon fill="white" stroke="black" points="483,-258.5 483,-279.5 587,-279.5 587,-258.5 483,-258.5"/>
<text text-anchor="middle" x="535" y="-266.5" font-family="Helvetica,sans-Serif" font-size="10.00">getUpperCaseValue</text>
</a>
</g>
<!-- Node4&#45;&gt;Node7 -->
<g id="edge12" class="edge"><title>Node4&#45;&gt;Node7</title>
<path fill="none" stroke="midnightblue" d="M434.108,-269C446.333,-269 459.738,-269 472.67,-269"/>
<polygon fill="midnightblue" stroke="midnightblue" points="472.908,-272.5 482.908,-269 472.908,-265.5 472.908,-272.5"/>
</g>
<!-- Node8 -->
<g id="node15" class="node"><title>Node8</title>
<a xlink:href="../../d1/dbd/apps_2keyboard_2js_2keyboard_8js.html#a806b936549a9fdf76d9455e348ec089f" target="_top" xlink:title="getWindowTop">
<polygon fill="white" stroke="black" points="494,-218.5 494,-239.5 576,-239.5 576,-218.5 494,-218.5"/>
<text text-anchor="middle" x="535" y="-226.5" font-family="Helvetica,sans-Serif" font-size="10.00">getWindowTop</text>
</a>
</g>
<!-- Node4&#45;&gt;Node8 -->
<g id="edge14" class="edge"><title>Node4&#45;&gt;Node8</title>
<path fill="none" stroke="midnightblue" d="M426.623,-258.49C444.949,-253.504 467.043,-247.492 486.488,-242.201"/>
<polygon fill="midnightblue" stroke="midnightblue" points="487.65,-245.512 496.38,-239.509 485.812,-238.757 487.65,-245.512"/>
</g>
<!-- Node10&#45;&gt;Node3 -->
<g id="edge28" class="edge"><title>Node10&#45;&gt;Node3</title>
<path fill="none" stroke="midnightblue" d="M354.802,-135.014C342.869,-135.641 329.071,-135.867 315.79,-135.693"/>
<polygon fill="midnightblue" stroke="midnightblue" points="315.847,-132.194 305.775,-135.482 315.699,-139.192 315.847,-132.194"/>
</g>
<!-- Node11 -->
<g id="node21" class="node"><title>Node11</title>
<a xlink:href="../../d1/dbd/apps_2keyboard_2js_2keyboard_8js.html#af9c1c7267aeff57a49f782be487f5417" target="_top" xlink:title="hideAlternatives">
<polygon fill="white" stroke="black" points="492,-178.5 492,-199.5 578,-199.5 578,-178.5 492,-178.5"/>
<text text-anchor="middle" x="535" y="-186.5" font-family="Helvetica,sans-Serif" font-size="10.00">hideAlternatives</text>
</a>
</g>
<!-- Node10&#45;&gt;Node11 -->
<g id="edge20" class="edge"><title>Node10&#45;&gt;Node11</title>
<path fill="none" stroke="midnightblue" d="M413.51,-139.568C420.234,-142.495 427.441,-145.762 434,-149 450.412,-157.103 453.162,-161.825 470,-169 475.159,-171.198 480.642,-173.27 486.15,-175.185"/>
<polygon fill="midnightblue" stroke="midnightblue" points="485.435,-178.635 496.028,-178.458 487.637,-171.99 485.435,-178.635"/>
</g>
<!-- Node12 -->
<g id="node23" class="node"><title>Node12</title>
<a xlink:href="../../d1/dbd/apps_2keyboard_2js_2keyboard_8js.html#a8f28d388e140adaf9b6ebc50a5ba52d7" target="_top" xlink:title="hideKeyboardLayoutMenu">
<polygon fill="white" stroke="black" points="470.5,-138.5 470.5,-159.5 599.5,-159.5 599.5,-138.5 470.5,-138.5"/>
<text text-anchor="middle" x="535" y="-146.5" font-family="Helvetica,sans-Serif" font-size="10.00">hideKeyboardLayoutMenu</text>
</a>
</g>
<!-- Node10&#45;&gt;Node12 -->
<g id="edge22" class="edge"><title>Node10&#45;&gt;Node12</title>
<path fill="none" stroke="midnightblue" d="M421.357,-133.538C433.081,-135.133 446.771,-136.996 460.507,-138.865"/>
<polygon fill="midnightblue" stroke="midnightblue" points="460.11,-142.343 470.49,-140.223 461.053,-135.407 460.11,-142.343"/>
</g>
<!-- Node13 -->
<g id="node25" class="node"><title>Node13</title>
<a xlink:href="../../d1/dbd/apps_2keyboard_2js_2keyboard_8js.html#a81799b4f01fcd370a23b18448708a3f9" target="_top" xlink:title="inMenuLockedArea">
<polygon fill="white" stroke="black" points="485,-98.5 485,-119.5 585,-119.5 585,-98.5 485,-98.5"/>
<text text-anchor="middle" x="535" y="-106.5" font-family="Helvetica,sans-Serif" font-size="10.00">inMenuLockedArea</text>
</a>
</g>
<!-- Node10&#45;&gt;Node13 -->
<g id="edge24" class="edge"><title>Node10&#45;&gt;Node13</title>
<path fill="none" stroke="midnightblue" d="M421.357,-124.462C437.152,-122.313 456.516,-119.678 474.754,-117.197"/>
<polygon fill="midnightblue" stroke="midnightblue" points="475.303,-120.654 484.74,-115.838 474.36,-113.718 475.303,-120.654"/>
</g>
<!-- Node10&#45;&gt;Node14 -->
<g id="edge26" class="edge"><title>Node10&#45;&gt;Node14</title>
<path fill="none" stroke="midnightblue" d="M407.496,-118.422C423.872,-109.798 448.049,-97.6701 470,-89 475.909,-86.6659 482.206,-84.4294 488.467,-82.3526"/>
<polygon fill="midnightblue" stroke="midnightblue" points="489.759,-85.6138 498.214,-79.2293 487.623,-78.9477 489.759,-85.6138"/>
</g>
</g>
</svg>
        <g id="navigator" transform="translate(0 0)" fill="#404254">
                <rect fill="#f2f5e9" fill-opacity="0.5" stroke="#606060" stroke-width=".5" x="0" y="0" width="60" height="60"/>
                <use id="zoomplus" xlink:href="#zoomPlus" x="17" y="9" onmousedown="handleZoom(evt,'in')"/>
                <use id="zoomminus" xlink:href="#zoomMin" x="42" y="9" onmousedown="handleZoom(evt,'out')"/>
                <use id="reset" xlink:href="#resetDef" x="30" y="36" onmousedown="handleReset()"/>
                <g id="arrowUp" xlink:href="#dirArrow" transform="translate(30 24)" onmousedown="handlePan(0,-1)">
                  <use xlink:href="#rim" fill="#404040">
                        <set attributeName="fill" to="#808080" begin="arrowUp.mouseover" end="arrowUp.mouseout"/>
                  </use>
                  <path fill="none" stroke="white" stroke-width="1.5" d="M0,-3.0v7 M-2.5,-0.5L0,-3.0L2.5,-0.5"/>
                </g>
                <g id="arrowRight" xlink:href="#dirArrow" transform="rotate(90) translate(36 -43)" onmousedown="handlePan(1,0)">
                  <use xlink:href="#rim" fill="#404040">
                        <set attributeName="fill" to="#808080" begin="arrowRight.mouseover" end="arrowRight.mouseout"/>
                  </use>
                  <path fill="none" stroke="white" stroke-width="1.5" d="M0,-3.0v7 M-2.5,-0.5L0,-3.0L2.5,-0.5"/>
                </g>
                <g id="arrowDown" xlink:href="#dirArrow" transform="rotate(180) translate(-30 -48)" onmousedown="handlePan(0,1)">
                  <use xlink:href="#rim" fill="#404040">
                        <set attributeName="fill" to="#808080" begin="arrowDown.mouseover" end="arrowDown.mouseout"/>
                  </use>
                  <path fill="none" stroke="white" stroke-width="1.5" d="M0,-3.0v7 M-2.5,-0.5L0,-3.0L2.5,-0.5"/>
                </g>
                <g id="arrowLeft" xlink:href="#dirArrow" transform="rotate(270) translate(-36 17)" onmousedown="handlePan(-1,0)">
                  <use xlink:href="#rim" fill="#404040">
                        <set attributeName="fill" to="#808080" begin="arrowLeft.mouseover" end="arrowLeft.mouseout"/>
                  </use>
                  <path fill="none" stroke="white" stroke-width="1.5" d="M0,-3.0v7 M-2.5,-0.5L0,-3.0L2.5,-0.5"/>
                </g>
        </g>
</svg>
