<?xml version="1.0" encoding="UTF-8" standalone="no"?>
<!DOCTYPE svg PUBLIC "-//W3C//DTD SVG 1.1//EN"
 "http://www.w3.org/Graphics/SVG/1.1/DTD/svg11.dtd">
<!-- Generated by graphviz version 2.26.3 (20100126.1600)
 -->
<!-- Title: G Pages: 1 -->
<!--zoomable 230 -->
<svg id="main" version="1.1" xmlns="http://www.w3.org/2000/svg" xmlns:xlink="http://www.w3.org/1999/xlink" xml:space="preserve" onload="init(evt)">
        <defs>
                <circle id="rim" cx="0" cy="0" r="7"/>
                <circle id="rim2" cx="0" cy="0" r="3.5"/>
                <g id="zoomPlus">
                        <use xlink:href="#rim" fill="#404040">
                                <set attributeName="fill" to="#808080" begin="zoomplus.mouseover" end="zoomplus.mouseout"/>
                        </use>
                        <path d="M-4,0h8M0,-4v8" fill="none" stroke="white" stroke-width="1.5" pointer-events="none"/>
                </g>
                <g id="zoomMin">
                        <use xlink:href="#rim" fill="#404040">
                                <set attributeName="fill" to="#808080" begin="zoomminus.mouseover" end="zoomminus.mouseout"/>
                        </use>
                        <path d="M-4,0h8" fill="none" stroke="white" stroke-width="1.5" pointer-events="none"/>
                </g>
                <g id="dirArrow">
                        <path fill="none" stroke="white" stroke-width="1.5" d="M0,-3.0v7 M-2.5,-0.5L0,-3.0L2.5,-0.5"/>
                </g>
               <g id="resetDef">
                       <use xlink:href="#rim2" fill="#404040">
                               <set attributeName="fill" to="#808080" begin="reset.mouseover" end="reset.mouseout"/>
                       </use>
               </g>
        </defs>

<script type="text/javascript">
var viewWidth = 508;
var viewHeight = 230;
var sectionId = 'dynsection-26';
</script>
<script xlink:href="../../svgpan.js"/>
<svg id="graph" class="graph">
<g id="viewport">
<title>G</title>
<polygon fill="white" stroke="white" points="-4,5 -4,-226 505,-226 505,5 -4,5"/>
<!-- Node1 -->
<g id="node1" class="node"><title>Node1</title>
<polygon fill="#bfbfbf" stroke="black" points="0,-100.5 0,-121.5 66,-121.5 66,-100.5 0,-100.5"/>
<text text-anchor="middle" x="33" y="-108.5" font-family="Helvetica,sans-Serif" font-size="10.00">movePress</text>
</g>
<!-- Node2 -->
<g id="node3" class="node"><title>Node2</title>
<a xlink:href="../../d1/dbd/apps_2keyboard_2js_2keyboard_8js.html#af9c1c7267aeff57a49f782be487f5417" target="_top" xlink:title="hideAlternatives">
<polygon fill="white" stroke="black" points="124,-200.5 124,-221.5 210,-221.5 210,-200.5 124,-200.5"/>
<text text-anchor="middle" x="167" y="-208.5" font-family="Helvetica,sans-Serif" font-size="10.00">hideAlternatives</text>
</a>
</g>
<!-- Node1&#45;&gt;Node2 -->
<g id="edge2" class="edge"><title>Node1&#45;&gt;Node2</title>
<path fill="none" stroke="midnightblue" d="M39.4237,-121.764C50.2103,-138.926 73.5953,-172.439 102,-191 105.828,-193.502 109.986,-195.704 114.287,-197.641"/>
<polygon fill="midnightblue" stroke="midnightblue" points="113.27,-201.004 123.855,-201.468 115.87,-194.505 113.27,-201.004"/>
</g>
<!-- Node3 -->
<g id="node5" class="node"><title>Node3</title>
<a xlink:href="../../d1/dbd/apps_2keyboard_2js_2keyboard_8js.html#a8f28d388e140adaf9b6ebc50a5ba52d7" target="_top" xlink:title="hideKeyboardLayoutMenu">
<polygon fill="white" stroke="black" points="102.5,-160.5 102.5,-181.5 231.5,-181.5 231.5,-160.5 102.5,-160.5"/>
<text text-anchor="middle" x="167" y="-168.5" font-family="Helvetica,sans-Serif" font-size="10.00">hideKeyboardLayoutMenu</text>
</a>
</g>
<!-- Node1&#45;&gt;Node3 -->
<g id="edge4" class="edge"><title>Node1&#45;&gt;Node3</title>
<path fill="none" stroke="midnightblue" d="M48.9039,-121.617C62.5496,-130.381 82.9677,-142.684 102,-151 107.071,-153.216 112.465,-155.291 117.893,-157.202"/>
<polygon fill="midnightblue" stroke="midnightblue" points="117.043,-160.609 127.637,-160.461 119.263,-153.97 117.043,-160.609"/>
</g>
<!-- Node4 -->
<g id="node7" class="node"><title>Node4</title>
<a xlink:href="../../d1/dbd/apps_2keyboard_2js_2keyboard_8js.html#a81799b4f01fcd370a23b18448708a3f9" target="_top" xlink:title="inMenuLockedArea">
<polygon fill="white" stroke="black" points="117,-120.5 117,-141.5 217,-141.5 217,-120.5 117,-120.5"/>
<text text-anchor="middle" x="167" y="-128.5" font-family="Helvetica,sans-Serif" font-size="10.00">inMenuLockedArea</text>
</a>
</g>
<!-- Node1&#45;&gt;Node4 -->
<g id="edge6" class="edge"><title>Node1&#45;&gt;Node4</title>
<path fill="none" stroke="midnightblue" d="M66.1236,-115.944C78.4096,-117.778 92.7579,-119.919 106.714,-122.002"/>
<polygon fill="midnightblue" stroke="midnightblue" points="106.364,-125.489 116.771,-123.503 107.398,-118.565 106.364,-125.489"/>
</g>
<!-- Node5 -->
<g id="node9" class="node"><title>Node5</title>
<a xlink:href="../../d1/dbd/apps_2keyboard_2js_2keyboard_8js.html#a60d90f1ca4522b28e7fa3437f12af350" target="_top" xlink:title="isNormalKey">
<polygon fill="white" stroke="black" points="130.5,-80.5 130.5,-101.5 203.5,-101.5 203.5,-80.5 130.5,-80.5"/>
<text text-anchor="middle" x="167" y="-88.5" font-family="Helvetica,sans-Serif" font-size="10.00">isNormalKey</text>
</a>
</g>
<!-- Node1&#45;&gt;Node5 -->
<g id="edge8" class="edge"><title>Node1&#45;&gt;Node5</title>
<path fill="none" stroke="midnightblue" d="M66.1236,-106.056C82.5263,-103.608 102.605,-100.611 120.518,-97.9376"/>
<polygon fill="midnightblue" stroke="midnightblue" points="121.115,-101.387 130.489,-96.4494 120.082,-94.464 121.115,-101.387"/>
</g>
<!-- Node6 -->
<g id="node11" class="node"><title>Node6</title>
<a xlink:href="../../d1/dbd/apps_2keyboard_2js_2keyboard_8js.html#a6345c8ae6f65ead950ef07b9b6a3cc89" target="_top" xlink:title="setMenuTimeout">
<polygon fill="white" stroke="black" points="122.5,-40.5 122.5,-61.5 211.5,-61.5 211.5,-40.5 122.5,-40.5"/>
<text text-anchor="middle" x="167" y="-48.5" font-family="Helvetica,sans-Serif" font-size="10.00">setMenuTimeout</text>
</a>
</g>
<!-- Node1&#45;&gt;Node6 -->
<g id="edge10" class="edge"><title>Node1&#45;&gt;Node6</title>
<path fill="none" stroke="midnightblue" d="M40.3621,-100.428C52.6691,-88.7549 78.3999,-72.3116 102,-62 105.449,-60.4932 109.046,-59.0516 112.702,-57.6996"/>
<polygon fill="midnightblue" stroke="midnightblue" points="114.135,-60.9082 122.454,-54.3471 111.859,-54.2884 114.135,-60.9082"/>
</g>
<!-- Node6&#45;&gt;Node1 -->
<g id="edge24" class="edge"><title>Node6&#45;&gt;Node1</title>
<path fill="none" stroke="midnightblue" d="M152.201,-61.5687C138.799,-66.9612 118.662,-72.7201 102,-80 91.6056,-84.5417 80.7978,-90.2728 70.9057,-95.6721"/>
<polygon fill="midnightblue" stroke="midnightblue" points="69.2006,-92.6153 62.1166,-100.494 72.5674,-98.7525 69.2006,-92.6153"/>
</g>
<!-- Node7 -->
<g id="node13" class="node"><title>Node7</title>
<a xlink:href="../../d1/dbd/apps_2keyboard_2js_2keyboard_8js.html#a24c9b89c87414c4fa2edb61354cc1bf4" target="_top" xlink:title="showAlternatives">
<polygon fill="white" stroke="black" points="268,-60.5 268,-81.5 360,-81.5 360,-60.5 268,-60.5"/>
<text text-anchor="middle" x="314" y="-68.5" font-family="Helvetica,sans-Serif" font-size="10.00">showAlternatives</text>
</a>
</g>
<!-- Node6&#45;&gt;Node7 -->
<g id="edge12" class="edge"><title>Node6&#45;&gt;Node7</title>
<path fill="none" stroke="midnightblue" d="M211.504,-57.0549C226.13,-59.0449 242.581,-61.2831 257.951,-63.3743"/>
<polygon fill="midnightblue" stroke="midnightblue" points="257.485,-66.8431 267.866,-64.7232 258.429,-59.907 257.485,-66.8431"/>
</g>
<!-- Node12 -->
<g id="node23" class="node"><title>Node12</title>
<a xlink:href="../../d1/dbd/apps_2keyboard_2js_2keyboard_8js.html#aaa02336590e9c88ad9fea2434b80f670" target="_top" xlink:title="sendKey">
<polygon fill="white" stroke="black" points="286.5,-20.5 286.5,-41.5 341.5,-41.5 341.5,-20.5 286.5,-20.5"/>
<text text-anchor="middle" x="314" y="-28.5" font-family="Helvetica,sans-Serif" font-size="10.00">sendKey</text>
</a>
</g>
<!-- Node6&#45;&gt;Node12 -->
<g id="edge22" class="edge"><title>Node6&#45;&gt;Node12</title>
<path fill="none" stroke="midnightblue" d="M211.504,-44.9451C232.133,-42.1383 256.392,-38.8378 276.129,-36.1525"/>
<polygon fill="midnightblue" stroke="midnightblue" points="276.849,-39.5869 286.286,-34.7707 275.905,-32.6508 276.849,-39.5869"/>
</g>
<!-- Node8 -->
<g id="node15" class="node"><title>Node8</title>
<a xlink:href="../../d1/dbd/apps_2keyboard_2js_2keyboard_8js.html#af8d3efc13cc7c9040fb4976125ead3d5" target="_top" xlink:title="showIMEList">
<polygon fill="white" stroke="black" points="411,-120.5 411,-141.5 485,-141.5 485,-120.5 411,-120.5"/>
<text text-anchor="middle" x="448" y="-128.5" font-family="Helvetica,sans-Serif" font-size="10.00">showIMEList</text>
</a>
</g>
<!-- Node7&#45;&gt;Node8 -->
<g id="edge14" class="edge"><title>Node7&#45;&gt;Node8</title>
<path fill="none" stroke="midnightblue" d="M334.327,-81.5259C350.782,-89.8981 374.65,-101.708 396,-111 400.423,-112.925 405.097,-114.859 409.755,-116.726"/>
<polygon fill="midnightblue" stroke="midnightblue" points="408.623,-120.042 419.211,-120.438 411.181,-113.526 408.623,-120.042"/>
</g>
<!-- Node9 -->
<g id="node17" class="node"><title>Node9</title>
<a xlink:href="../../d1/dbd/apps_2keyboard_2js_2keyboard_8js.html#aa7d18f85eb186d45ea087d13b84dfd4d" target="_top" xlink:title="getWindowLeft">
<polygon fill="white" stroke="black" points="407,-80.5 407,-101.5 489,-101.5 489,-80.5 407,-80.5"/>
<text text-anchor="middle" x="448" y="-88.5" font-family="Helvetica,sans-Serif" font-size="10.00">getWindowLeft</text>
</a>
</g>
<!-- Node7&#45;&gt;Node9 -->
<g id="edge16" class="edge"><title>Node7&#45;&gt;Node9</title>
<path fill="none" stroke="midnightblue" d="M360.115,-77.8829C371.944,-79.6484 384.738,-81.558 396.807,-83.3592"/>
<polygon fill="midnightblue" stroke="midnightblue" points="396.329,-86.8266 406.736,-84.8413 397.363,-79.9033 396.329,-86.8266"/>
</g>
<!-- Node10 -->
<g id="node19" class="node"><title>Node10</title>
<a xlink:href="../../d1/dbd/apps_2keyboard_2js_2keyboard_8js.html#afc2f79c687067f0d9318f7b475ebee80" target="_top" xlink:title="getUpperCaseValue">
<polygon fill="white" stroke="black" points="396,-40.5 396,-61.5 500,-61.5 500,-40.5 396,-40.5"/>
<text text-anchor="middle" x="448" y="-48.5" font-family="Helvetica,sans-Serif" font-size="10.00">getUpperCaseValue</text>
</a>
</g>
<!-- Node7&#45;&gt;Node10 -->
<g id="edge18" class="edge"><title>Node7&#45;&gt;Node10</title>
<path fill="none" stroke="midnightblue" d="M360.115,-64.1171C368.386,-62.8827 377.129,-61.5778 385.765,-60.2888"/>
<polygon fill="midnightblue" stroke="midnightblue" points="386.447,-63.7259 395.82,-58.788 385.413,-56.8026 386.447,-63.7259"/>
</g>
<!-- Node11 -->
<g id="node21" class="node"><title>Node11</title>
<a xlink:href="../../d1/dbd/apps_2keyboard_2js_2keyboard_8js.html#a806b936549a9fdf76d9455e348ec089f" target="_top" xlink:title="getWindowTop">
<polygon fill="white" stroke="black" points="407,-0.5 407,-21.5 489,-21.5 489,-0.5 407,-0.5"/>
<text text-anchor="middle" x="448" y="-8.5" font-family="Helvetica,sans-Serif" font-size="10.00">getWindowTop</text>
</a>
</g>
<!-- Node7&#45;&gt;Node11 -->
<g id="edge20" class="edge"><title>Node7&#45;&gt;Node11</title>
<path fill="none" stroke="midnightblue" d="M339.51,-60.4324C346.234,-57.5049 353.441,-54.2384 360,-51 376.412,-42.897 379.418,-38.7487 396,-31 400.154,-29.0588 404.553,-27.1507 408.963,-25.33"/>
<polygon fill="midnightblue" stroke="midnightblue" points="410.556,-28.4627 418.546,-21.505 407.961,-21.9615 410.556,-28.4627"/>
</g>
</g>
</svg>
        <g id="navigator" transform="translate(0 0)" fill="#404254">
                <rect fill="#f2f5e9" fill-opacity="0.5" stroke="#606060" stroke-width=".5" x="0" y="0" width="60" height="60"/>
                <use id="zoomplus" xlink:href="#zoomPlus" x="17" y="9" onmousedown="handleZoom(evt,'in')"/>
                <use id="zoomminus" xlink:href="#zoomMin" x="42" y="9" onmousedown="handleZoom(evt,'out')"/>
                <use id="reset" xlink:href="#resetDef" x="30" y="36" onmousedown="handleReset()"/>
                <g id="arrowUp" xlink:href="#dirArrow" transform="translate(30 24)" onmousedown="handlePan(0,-1)">
                  <use xlink:href="#rim" fill="#404040">
                        <set attributeName="fill" to="#808080" begin="arrowUp.mouseover" end="arrowUp.mouseout"/>
                  </use>
                  <path fill="none" stroke="white" stroke-width="1.5" d="M0,-3.0v7 M-2.5,-0.5L0,-3.0L2.5,-0.5"/>
                </g>
                <g id="arrowRight" xlink:href="#dirArrow" transform="rotate(90) translate(36 -43)" onmousedown="handlePan(1,0)">
                  <use xlink:href="#rim" fill="#404040">
                        <set attributeName="fill" to="#808080" begin="arrowRight.mouseover" end="arrowRight.mouseout"/>
                  </use>
                  <path fill="none" stroke="white" stroke-width="1.5" d="M0,-3.0v7 M-2.5,-0.5L0,-3.0L2.5,-0.5"/>
                </g>
                <g id="arrowDown" xlink:href="#dirArrow" transform="rotate(180) translate(-30 -48)" onmousedown="handlePan(0,1)">
                  <use xlink:href="#rim" fill="#404040">
                        <set attributeName="fill" to="#808080" begin="arrowDown.mouseover" end="arrowDown.mouseout"/>
                  </use>
                  <path fill="none" stroke="white" stroke-width="1.5" d="M0,-3.0v7 M-2.5,-0.5L0,-3.0L2.5,-0.5"/>
                </g>
                <g id="arrowLeft" xlink:href="#dirArrow" transform="rotate(270) translate(-36 17)" onmousedown="handlePan(-1,0)">
                  <use xlink:href="#rim" fill="#404040">
                        <set attributeName="fill" to="#808080" begin="arrowLeft.mouseover" end="arrowLeft.mouseout"/>
                  </use>
                  <path fill="none" stroke="white" stroke-width="1.5" d="M0,-3.0v7 M-2.5,-0.5L0,-3.0L2.5,-0.5"/>
                </g>
        </g>
</svg>
