<?xml version="1.0" encoding="UTF-8" standalone="no"?>
<!DOCTYPE svg PUBLIC "-//W3C//DTD SVG 1.1//EN"
 "http://www.w3.org/Graphics/SVG/1.1/DTD/svg11.dtd">
<!-- Generated by graphviz version 2.26.3 (20100126.1600)
 -->
<!-- Title: G Pages: 1 -->
<!--zoomable 90 -->
<svg id="main" version="1.1" xmlns="http://www.w3.org/2000/svg" xmlns:xlink="http://www.w3.org/1999/xlink" xml:space="preserve" onload="init(evt)">
        <defs>
                <circle id="rim" cx="0" cy="0" r="7"/>
                <circle id="rim2" cx="0" cy="0" r="3.5"/>
                <g id="zoomPlus">
                        <use xlink:href="#rim" fill="#404040">
                                <set attributeName="fill" to="#808080" begin="zoomplus.mouseover" end="zoomplus.mouseout"/>
                        </use>
                        <path d="M-4,0h8M0,-4v8" fill="none" stroke="white" stroke-width="1.5" pointer-events="none"/>
                </g>
                <g id="zoomMin">
                        <use xlink:href="#rim" fill="#404040">
                                <set attributeName="fill" to="#808080" begin="zoomminus.mouseover" end="zoomminus.mouseout"/>
                        </use>
                        <path d="M-4,0h8" fill="none" stroke="white" stroke-width="1.5" pointer-events="none"/>
                </g>
                <g id="dirArrow">
                        <path fill="none" stroke="white" stroke-width="1.5" d="M0,-3.0v7 M-2.5,-0.5L0,-3.0L2.5,-0.5"/>
                </g>
               <g id="resetDef">
                       <use xlink:href="#rim2" fill="#404040">
                               <set attributeName="fill" to="#808080" begin="reset.mouseover" end="reset.mouseout"/>
                       </use>
               </g>
        </defs>

<script type="text/javascript">
var viewWidth = 634;
var viewHeight = 90;
var sectionId = 'dynsection-44';
</script>
<script xlink:href="../../svgpan.js"/>
<svg id="graph" class="graph">
<g id="viewport">
<title>G</title>
<polygon fill="white" stroke="white" points="-4,5 -4,-86 631,-86 631,5 -4,5"/>
<!-- Node1 -->
<g id="node1" class="node"><title>Node1</title>
<polygon fill="#bfbfbf" stroke="black" points="0,-40.5 0,-61.5 88,-61.5 88,-40.5 0,-40.5"/>
<text text-anchor="middle" x="44" y="-48.5" font-family="Helvetica,sans-Serif" font-size="10.00">resetUpperCase</text>
</g>
<!-- Node2 -->
<g id="node3" class="node"><title>Node2</title>
<a xlink:href="../../df/d12/latin__test_8js.html#af8dc73726eb0578fe44fb98cd2319445" target="_top" xlink:title="init">
<polygon fill="white" stroke="black" points="147.5,-60.5 147.5,-81.5 176.5,-81.5 176.5,-60.5 147.5,-60.5"/>
<text text-anchor="middle" x="162" y="-68.5" font-family="Helvetica,sans-Serif" font-size="10.00">init</text>
</a>
</g>
<!-- Node1&#45;&gt;Node2 -->
<g id="edge2" class="edge"><title>Node1&#45;&gt;Node2</title>
<path fill="none" stroke="midnightblue" d="M98.1707,-60.1815C116.173,-63.2327 134.779,-66.3863 147.224,-68.4956"/>
<polygon fill="midnightblue" stroke="midnightblue" points="98.7189,-56.7245 88.2746,-58.5042 97.549,-63.6261 98.7189,-56.7245"/>
</g>
<!-- Node3 -->
<g id="node5" class="node"><title>Node3</title>
<a xlink:href="../../d1/dbd/apps_2keyboard_2js_2keyboard_8js.html#ac9da22c518cf43b832c2abe8ec34803b" target="_top" xlink:title="loadIMEngine">
<polygon fill="white" stroke="black" points="124,-20.5 124,-41.5 200,-41.5 200,-20.5 124,-20.5"/>
<text text-anchor="middle" x="162" y="-28.5" font-family="Helvetica,sans-Serif" font-size="10.00">loadIMEngine</text>
</a>
</g>
<!-- Node1&#45;&gt;Node3 -->
<g id="edge4" class="edge"><title>Node1&#45;&gt;Node3</title>
<path fill="none" stroke="midnightblue" d="M98.2462,-41.8057C106.831,-40.3507 115.551,-38.8728 123.672,-37.4962"/>
<polygon fill="midnightblue" stroke="midnightblue" points="97.549,-38.3739 88.2746,-43.4958 98.7189,-45.2755 97.549,-38.3739"/>
</g>
<!-- Node4 -->
<g id="node7" class="node"><title>Node4</title>
<a xlink:href="../../d1/dbd/apps_2keyboard_2js_2keyboard_8js.html#ab8f6b197af4b402f31c8a9c1e976f609" target="_top" xlink:title="loadKeyboard">
<polygon fill="white" stroke="black" points="247,-40.5 247,-61.5 323,-61.5 323,-40.5 247,-40.5"/>
<text text-anchor="middle" x="285" y="-48.5" font-family="Helvetica,sans-Serif" font-size="10.00">loadKeyboard</text>
</a>
</g>
<!-- Node3&#45;&gt;Node4 -->
<g id="edge6" class="edge"><title>Node3&#45;&gt;Node4</title>
<path fill="none" stroke="midnightblue" d="M210.221,-38.8408C222.354,-40.8137 235.212,-42.9044 246.78,-44.7854"/>
<polygon fill="midnightblue" stroke="midnightblue" points="210.676,-35.3689 200.244,-37.2185 209.552,-42.2781 210.676,-35.3689"/>
</g>
<!-- Node7 -->
<g id="node13" class="node"><title>Node7</title>
<a xlink:href="../../d1/dbd/apps_2keyboard_2js_2keyboard_8js.html#aa113f746db183f3b5e9f38698d16a502" target="_top" xlink:title="setKeyboardName">
<polygon fill="white" stroke="black" points="236,-0.5 236,-21.5 334,-21.5 334,-0.5 236,-0.5"/>
<text text-anchor="middle" x="285" y="-8.5" font-family="Helvetica,sans-Serif" font-size="10.00">setKeyboardName</text>
</a>
</g>
<!-- Node3&#45;&gt;Node7 -->
<g id="edge12" class="edge"><title>Node3&#45;&gt;Node7</title>
<path fill="none" stroke="midnightblue" d="M210.29,-23.1479C218.705,-21.7797 227.465,-20.3552 235.901,-18.9836"/>
<polygon fill="midnightblue" stroke="midnightblue" points="209.552,-19.7219 200.244,-24.7815 210.676,-26.6311 209.552,-19.7219"/>
</g>
<!-- Node5 -->
<g id="node9" class="node"><title>Node5</title>
<a xlink:href="../../d1/dbd/apps_2keyboard_2js_2keyboard_8js.html#a4180a488992857d0da15da1ce26384a1" target="_top" xlink:title="handleNewKeyboards">
<polygon fill="white" stroke="black" points="370,-40.5 370,-61.5 482,-61.5 482,-40.5 370,-40.5"/>
<text text-anchor="middle" x="426" y="-48.5" font-family="Helvetica,sans-Serif" font-size="10.00">handleNewKeyboards</text>
</a>
</g>
<!-- Node4&#45;&gt;Node5 -->
<g id="edge8" class="edge"><title>Node4&#45;&gt;Node5</title>
<path fill="none" stroke="midnightblue" d="M333.227,-51C345,-51 357.696,-51 369.805,-51"/>
<polygon fill="midnightblue" stroke="midnightblue" points="333.157,-47.5001 323.157,-51 333.157,-54.5001 333.157,-47.5001"/>
</g>
<!-- Node6 -->
<g id="node11" class="node"><title>Node6</title>
<a xlink:href="../../d1/dbd/apps_2keyboard_2js_2keyboard_8js.html#a426dddc1977adce1af8952ff886ed206" target="_top" xlink:title="getKeyboardSettings">
<polygon fill="white" stroke="black" points="518.5,-40.5 518.5,-61.5 625.5,-61.5 625.5,-40.5 518.5,-40.5"/>
<text text-anchor="middle" x="572" y="-48.5" font-family="Helvetica,sans-Serif" font-size="10.00">getKeyboardSettings</text>
</a>
</g>
<!-- Node5&#45;&gt;Node6 -->
<g id="edge10" class="edge"><title>Node5&#45;&gt;Node6</title>
<path fill="none" stroke="midnightblue" d="M492.193,-51C500.927,-51 509.792,-51 518.283,-51"/>
<polygon fill="midnightblue" stroke="midnightblue" points="492.03,-47.5001 482.03,-51 492.03,-54.5001 492.03,-47.5001"/>
</g>
<!-- Node8 -->
<g id="node15" class="node"><title>Node8</title>
<a xlink:href="../../d1/dbd/apps_2keyboard_2js_2keyboard_8js.html#ae80b05f64e0f815ed3fa6a5343c87f1b" target="_top" xlink:title="showKeyboard">
<polygon fill="white" stroke="black" points="385.5,-0.5 385.5,-21.5 466.5,-21.5 466.5,-0.5 385.5,-0.5"/>
<text text-anchor="middle" x="426" y="-8.5" font-family="Helvetica,sans-Serif" font-size="10.00">showKeyboard</text>
</a>
</g>
<!-- Node7&#45;&gt;Node8 -->
<g id="edge14" class="edge"><title>Node7&#45;&gt;Node8</title>
<path fill="none" stroke="midnightblue" d="M344.658,-11C358.373,-11 372.648,-11 385.341,-11"/>
<polygon fill="midnightblue" stroke="midnightblue" points="344.315,-7.5001 334.315,-11 344.315,-14.5001 344.315,-7.5001"/>
</g>
</g>
</svg>
        <g id="navigator" transform="translate(0 0)" fill="#404254">
                <rect fill="#f2f5e9" fill-opacity="0.5" stroke="#606060" stroke-width=".5" x="0" y="0" width="60" height="60"/>
                <use id="zoomplus" xlink:href="#zoomPlus" x="17" y="9" onmousedown="handleZoom(evt,'in')"/>
                <use id="zoomminus" xlink:href="#zoomMin" x="42" y="9" onmousedown="handleZoom(evt,'out')"/>
                <use id="reset" xlink:href="#resetDef" x="30" y="36" onmousedown="handleReset()"/>
                <g id="arrowUp" xlink:href="#dirArrow" transform="translate(30 24)" onmousedown="handlePan(0,-1)">
                  <use xlink:href="#rim" fill="#404040">
                        <set attributeName="fill" to="#808080" begin="arrowUp.mouseover" end="arrowUp.mouseout"/>
                  </use>
                  <path fill="none" stroke="white" stroke-width="1.5" d="M0,-3.0v7 M-2.5,-0.5L0,-3.0L2.5,-0.5"/>
                </g>
                <g id="arrowRight" xlink:href="#dirArrow" transform="rotate(90) translate(36 -43)" onmousedown="handlePan(1,0)">
                  <use xlink:href="#rim" fill="#404040">
                        <set attributeName="fill" to="#808080" begin="arrowRight.mouseover" end="arrowRight.mouseout"/>
                  </use>
                  <path fill="none" stroke="white" stroke-width="1.5" d="M0,-3.0v7 M-2.5,-0.5L0,-3.0L2.5,-0.5"/>
                </g>
                <g id="arrowDown" xlink:href="#dirArrow" transform="rotate(180) translate(-30 -48)" onmousedown="handlePan(0,1)">
                  <use xlink:href="#rim" fill="#404040">
                        <set attributeName="fill" to="#808080" begin="arrowDown.mouseover" end="arrowDown.mouseout"/>
                  </use>
                  <path fill="none" stroke="white" stroke-width="1.5" d="M0,-3.0v7 M-2.5,-0.5L0,-3.0L2.5,-0.5"/>
                </g>
                <g id="arrowLeft" xlink:href="#dirArrow" transform="rotate(270) translate(-36 17)" onmousedown="handlePan(-1,0)">
                  <use xlink:href="#rim" fill="#404040">
                        <set attributeName="fill" to="#808080" begin="arrowLeft.mouseover" end="arrowLeft.mouseout"/>
                  </use>
                  <path fill="none" stroke="white" stroke-width="1.5" d="M0,-3.0v7 M-2.5,-0.5L0,-3.0L2.5,-0.5"/>
                </g>
        </g>
</svg>
