<?xml version="1.0" encoding="UTF-8" standalone="no"?>
<!DOCTYPE svg PUBLIC "-//W3C//DTD SVG 1.1//EN"
 "http://www.w3.org/Graphics/SVG/1.1/DTD/svg11.dtd">
<!-- Generated by graphviz version 2.26.3 (20100126.1600)
 -->
<!-- Title: G Pages: 1 -->
<svg width="376pt" height="30pt"
 viewBox="0.00 0.00 376.00 30.00" xmlns="http://www.w3.org/2000/svg" xmlns:xlink="http://www.w3.org/1999/xlink">
<g id="graph1" class="graph" transform="scale(1 1) rotate(0) translate(4 26)">
<title>G</title>
<polygon fill="white" stroke="white" points="-4,5 -4,-26 373,-26 373,5 -4,5"/>
<!-- Node1 -->
<g id="node1" class="node"><title>Node1</title>
<polygon fill="#bfbfbf" stroke="black" points="0,-0.5 0,-21.5 76,-21.5 76,-0.5 0,-0.5"/>
<text text-anchor="middle" x="38" y="-8.5" font-family="Helvetica,sans-Serif" font-size="10.00">loadKeyboard</text>
</g>
<!-- Node2 -->
<g id="node3" class="node"><title>Node2</title>
<a xlink:href="../../d1/dbd/apps_2keyboard_2js_2keyboard_8js.html#a4180a488992857d0da15da1ce26384a1" target="_top" xlink:title="handleNewKeyboards">
<polygon fill="white" stroke="black" points="112,-0.5 112,-21.5 224,-21.5 224,-0.5 112,-0.5"/>
<text text-anchor="middle" x="168" y="-8.5" font-family="Helvetica,sans-Serif" font-size="10.00">handleNewKeyboards</text>
</a>
</g>
<!-- Node1&#45;&gt;Node2 -->
<g id="edge2" class="edge"><title>Node1&#45;&gt;Node2</title>
<path fill="none" stroke="midnightblue" d="M86.4617,-11C94.6767,-11 103.269,-11 111.665,-11"/>
<polygon fill="midnightblue" stroke="midnightblue" points="86.3012,-7.5001 76.3012,-11 86.3011,-14.5001 86.3012,-7.5001"/>
</g>
<!-- Node3 -->
<g id="node5" class="node"><title>Node3</title>
<a xlink:href="../../d1/dbd/apps_2keyboard_2js_2keyboard_8js.html#a426dddc1977adce1af8952ff886ed206" target="_top" xlink:title="getKeyboardSettings">
<polygon fill="white" stroke="black" points="260.5,-0.5 260.5,-21.5 367.5,-21.5 367.5,-0.5 260.5,-0.5"/>
<text text-anchor="middle" x="314" y="-8.5" font-family="Helvetica,sans-Serif" font-size="10.00">getKeyboardSettings</text>
</a>
</g>
<!-- Node2&#45;&gt;Node3 -->
<g id="edge4" class="edge"><title>Node2&#45;&gt;Node3</title>
<path fill="none" stroke="midnightblue" d="M234.193,-11C242.927,-11 251.792,-11 260.283,-11"/>
<polygon fill="midnightblue" stroke="midnightblue" points="234.03,-7.5001 224.03,-11 234.03,-14.5001 234.03,-7.5001"/>
</g>
</g>
</svg>
