<?xml version="1.0" encoding="UTF-8" standalone="no"?>
<!DOCTYPE svg PUBLIC "-//W3C//DTD SVG 1.1//EN"
 "http://www.w3.org/Graphics/SVG/1.1/DTD/svg11.dtd">
<!-- Generated by graphviz version 2.26.3 (20100126.1600)
 -->
<!-- Title: G Pages: 1 -->
<svg width="288pt" height="150pt"
 viewBox="0.00 0.00 288.00 150.00" xmlns="http://www.w3.org/2000/svg" xmlns:xlink="http://www.w3.org/1999/xlink">
<g id="graph1" class="graph" transform="scale(1 1) rotate(0) translate(4 146)">
<title>G</title>
<polygon fill="white" stroke="white" points="-4,5 -4,-146 285,-146 285,5 -4,5"/>
<!-- Node1 -->
<g id="node1" class="node"><title>Node1</title>
<polygon fill="#bfbfbf" stroke="black" points="0.5,-60.5 0.5,-81.5 103.5,-81.5 103.5,-60.5 0.5,-60.5"/>
<text text-anchor="middle" x="52" y="-68.5" font-family="Helvetica,sans-Serif" font-size="10.00">nsTArrayToJSArray</text>
</g>
<!-- Node2 -->
<g id="node3" class="node"><title>Node2</title>
<a xlink:href="../../db/d76/class_j_s_1_1_rooted.html#a07c39990607b88255e0ffeaf6096800f" target="_top" xlink:title="JS::Rooted::address">
<polygon fill="white" stroke="black" points="156.5,-120.5 156.5,-141.5 263.5,-141.5 263.5,-120.5 156.5,-120.5"/>
<text text-anchor="middle" x="210" y="-128.5" font-family="Helvetica,sans-Serif" font-size="10.00">JS::Rooted::address</text>
</a>
</g>
<!-- Node1&#45;&gt;Node2 -->
<g id="edge2" class="edge"><title>Node1&#45;&gt;Node2</title>
<path fill="none" stroke="midnightblue" d="M72.9696,-81.5983C90.5713,-90.2337 116.532,-102.368 140,-111 146.296,-113.316 152.991,-115.531 159.648,-117.588"/>
<polygon fill="midnightblue" stroke="midnightblue" points="158.74,-120.97 169.323,-120.482 160.745,-114.263 158.74,-120.97"/>
</g>
<!-- Node3 -->
<g id="node5" class="node"><title>Node3</title>
<a xlink:href="../../de/db2/ns_auto_ptr_8h.html#a3892f2732d861ecbf1e20826158db1b6" target="_top" xlink:title="getter_AddRefs">
<polygon fill="white" stroke="black" points="167.5,-80.5 167.5,-101.5 252.5,-101.5 252.5,-80.5 167.5,-80.5"/>
<text text-anchor="middle" x="210" y="-88.5" font-family="Helvetica,sans-Serif" font-size="10.00">getter_AddRefs</text>
</a>
</g>
<!-- Node1&#45;&gt;Node3 -->
<g id="edge4" class="edge"><title>Node1&#45;&gt;Node3</title>
<path fill="none" stroke="midnightblue" d="M103.735,-77.5487C120.964,-79.7296 140.164,-82.16 157.453,-84.3485"/>
<polygon fill="midnightblue" stroke="midnightblue" points="157.022,-87.8218 167.383,-85.6054 157.902,-80.8772 157.022,-87.8218"/>
</g>
<!-- Node4 -->
<g id="node7" class="node"><title>Node4</title>
<a xlink:href="../../db/d9f/classns_t_array__base.html#a9ff8fa91fb766d44982e50ac82558141" target="_top" xlink:title="nsTArray_base::Length">
<polygon fill="white" stroke="black" points="151,-40.5 151,-61.5 269,-61.5 269,-40.5 151,-40.5"/>
<text text-anchor="middle" x="210" y="-48.5" font-family="Helvetica,sans-Serif" font-size="10.00">nsTArray_base::Length</text>
</a>
</g>
<!-- Node1&#45;&gt;Node4 -->
<g id="edge6" class="edge"><title>Node1&#45;&gt;Node4</title>
<path fill="none" stroke="midnightblue" d="M103.735,-64.4513C115.477,-62.9649 128.135,-61.3626 140.48,-59.8"/>
<polygon fill="midnightblue" stroke="midnightblue" points="141.267,-63.2283 150.749,-58.5002 140.388,-56.2838 141.267,-63.2283"/>
</g>
<!-- Node5 -->
<g id="node9" class="node"><title>Node5</title>
<a xlink:href="../../d1/d62/classns_content_utils.html#a6512aa32612a02d00647832fbfd519a3" target="_top" xlink:title="nsContentUtils::WrapNative">
<polygon fill="white" stroke="black" points="140,-0.5 140,-21.5 280,-21.5 280,-0.5 140,-0.5"/>
<text text-anchor="middle" x="210" y="-8.5" font-family="Helvetica,sans-Serif" font-size="10.00">nsContentUtils::WrapNative</text>
</a>
</g>
<!-- Node1&#45;&gt;Node5 -->
<g id="edge8" class="edge"><title>Node1&#45;&gt;Node5</title>
<path fill="none" stroke="midnightblue" d="M72.9696,-60.4017C90.5713,-51.7663 116.532,-39.6321 140,-31 146.296,-28.6841 152.991,-26.4688 159.648,-24.4119"/>
<polygon fill="midnightblue" stroke="midnightblue" points="160.745,-27.7369 169.323,-21.5184 158.74,-21.0303 160.745,-27.7369"/>
</g>
</g>
</svg>
