<?xml version="1.0" encoding="UTF-8" standalone="no"?>
<!DOCTYPE svg PUBLIC "-//W3C//DTD SVG 1.1//EN"
 "http://www.w3.org/Graphics/SVG/1.1/DTD/svg11.dtd">
<!-- Generated by graphviz version 2.26.3 (20100126.1600)
 -->
<!-- Title: G Pages: 1 -->
<!--zoomable 150 -->
<svg id="main" version="1.1" xmlns="http://www.w3.org/2000/svg" xmlns:xlink="http://www.w3.org/1999/xlink" xml:space="preserve" onload="init(evt)">
        <defs>
                <circle id="rim" cx="0" cy="0" r="7"/>
                <circle id="rim2" cx="0" cy="0" r="3.5"/>
                <g id="zoomPlus">
                        <use xlink:href="#rim" fill="#404040">
                                <set attributeName="fill" to="#808080" begin="zoomplus.mouseover" end="zoomplus.mouseout"/>
                        </use>
                        <path d="M-4,0h8M0,-4v8" fill="none" stroke="white" stroke-width="1.5" pointer-events="none"/>
                </g>
                <g id="zoomMin">
                        <use xlink:href="#rim" fill="#404040">
                                <set attributeName="fill" to="#808080" begin="zoomminus.mouseover" end="zoomminus.mouseout"/>
                        </use>
                        <path d="M-4,0h8" fill="none" stroke="white" stroke-width="1.5" pointer-events="none"/>
                </g>
                <g id="dirArrow">
                        <path fill="none" stroke="white" stroke-width="1.5" d="M0,-3.0v7 M-2.5,-0.5L0,-3.0L2.5,-0.5"/>
                </g>
               <g id="resetDef">
                       <use xlink:href="#rim2" fill="#404040">
                               <set attributeName="fill" to="#808080" begin="reset.mouseover" end="reset.mouseout"/>
                       </use>
               </g>
        </defs>

<script type="text/javascript">
var viewWidth = 664;
var viewHeight = 150;
var sectionId = 'dynsection-2';
</script>
<script xlink:href="../../svgpan.js"/>
<svg id="graph" class="graph">
<g id="viewport">
<title>G</title>
<polygon fill="white" stroke="white" points="-4,5 -4,-146 661,-146 661,5 -4,5"/>
<!-- Node1 -->
<g id="node1" class="node"><title>Node1</title>
<polygon fill="#bfbfbf" stroke="black" points="0.5,-60.5 0.5,-81.5 385.5,-81.5 385.5,-60.5 0.5,-60.5"/>
<text text-anchor="middle" x="193" y="-68.5" font-family="Helvetica,sans-Serif" font-size="10.00">mozilla::gl::ScopedFramebufferForRenderbuffer::ScopedFramebufferForRenderbuffer</text>
</g>
<!-- Node2 -->
<g id="node3" class="node"><title>Node2</title>
<a xlink:href="../../df/d68/classmozilla_1_1gl_1_1_g_l_context.html#a41f6d6eff412b84f84bcb06949df71d4" target="_top" xlink:title="mozilla::gl::GLContext::fCheckFramebufferStatus">
<polygon fill="white" stroke="black" points="422.5,-120.5 422.5,-141.5 655.5,-141.5 655.5,-120.5 422.5,-120.5"/>
<text text-anchor="middle" x="539" y="-128.5" font-family="Helvetica,sans-Serif" font-size="10.00">mozilla::gl::GLContext::fCheckFramebufferStatus</text>
</a>
</g>
<!-- Node1&#45;&gt;Node2 -->
<g id="edge2" class="edge"><title>Node1&#45;&gt;Node2</title>
<path fill="none" stroke="midnightblue" d="M252.778,-81.5027C298.98,-89.6052 364.533,-101.069 422,-111 436.519,-113.509 452.054,-116.177 466.906,-118.718"/>
<polygon fill="midnightblue" stroke="midnightblue" points="466.611,-122.219 477.058,-120.455 467.791,-115.319 466.611,-122.219"/>
</g>
<!-- Node3 -->
<g id="node5" class="node"><title>Node3</title>
<a xlink:href="../../df/d68/classmozilla_1_1gl_1_1_g_l_context.html#a5bf5f49f45edc4d9a18c48ec3241a7fa" target="_top" xlink:title="mozilla::gl::GLContext::fDeleteFramebuffers">
<polygon fill="white" stroke="black" points="434.5,-80.5 434.5,-101.5 643.5,-101.5 643.5,-80.5 434.5,-80.5"/>
<text text-anchor="middle" x="539" y="-88.5" font-family="Helvetica,sans-Serif" font-size="10.00">mozilla::gl::GLContext::fDeleteFramebuffers</text>
</a>
</g>
<!-- Node1&#45;&gt;Node3 -->
<g id="edge4" class="edge"><title>Node1&#45;&gt;Node3</title>
<path fill="none" stroke="midnightblue" d="M374.866,-81.5125C391.578,-82.4785 408.179,-83.4381 424.044,-84.3551"/>
<polygon fill="midnightblue" stroke="midnightblue" points="424.171,-87.8683 434.357,-84.9512 424.575,-80.8799 424.171,-87.8683"/>
</g>
<!-- Node4 -->
<g id="node7" class="node"><title>Node4</title>
<a xlink:href="../../df/d68/classmozilla_1_1gl_1_1_g_l_context.html#a9093b4f8dcf4e9b18881eebbb0ab8173" target="_top" xlink:title="mozilla::gl::GLContext::fFramebufferRenderbuffer">
<polygon fill="white" stroke="black" points="423,-40.5 423,-61.5 655,-61.5 655,-40.5 423,-40.5"/>
<text text-anchor="middle" x="539" y="-48.5" font-family="Helvetica,sans-Serif" font-size="10.00">mozilla::gl::GLContext::fFramebufferRenderbuffer</text>
</a>
</g>
<!-- Node1&#45;&gt;Node4 -->
<g id="edge6" class="edge"><title>Node1&#45;&gt;Node4</title>
<path fill="none" stroke="midnightblue" d="M374.866,-60.4875C387.599,-59.7515 400.268,-59.0192 412.595,-58.3066"/>
<polygon fill="midnightblue" stroke="midnightblue" points="413.083,-61.7844 422.864,-57.7131 412.679,-54.7961 413.083,-61.7844"/>
</g>
<!-- Node5 -->
<g id="node9" class="node"><title>Node5</title>
<a xlink:href="../../df/d68/classmozilla_1_1gl_1_1_g_l_context.html#a46628277b31464aef510284438946ee1" target="_top" xlink:title="mozilla::gl::GLContext::fGenFramebuffers">
<polygon fill="white" stroke="black" points="439.5,-0.5 439.5,-21.5 638.5,-21.5 638.5,-0.5 439.5,-0.5"/>
<text text-anchor="middle" x="539" y="-8.5" font-family="Helvetica,sans-Serif" font-size="10.00">mozilla::gl::GLContext::fGenFramebuffers</text>
</a>
</g>
<!-- Node1&#45;&gt;Node5 -->
<g id="edge8" class="edge"><title>Node1&#45;&gt;Node5</title>
<path fill="none" stroke="midnightblue" d="M252.778,-60.4973C298.98,-52.3948 364.533,-40.9306 422,-31 436.519,-28.491 452.054,-25.8234 466.906,-23.2815"/>
<polygon fill="midnightblue" stroke="midnightblue" points="467.791,-26.6811 477.058,-21.5453 466.611,-19.7813 467.791,-26.6811"/>
</g>
</g>
</svg>
        <g id="navigator" transform="translate(0 0)" fill="#404254">
                <rect fill="#f2f5e9" fill-opacity="0.5" stroke="#606060" stroke-width=".5" x="0" y="0" width="60" height="60"/>
                <use id="zoomplus" xlink:href="#zoomPlus" x="17" y="9" onmousedown="handleZoom(evt,'in')"/>
                <use id="zoomminus" xlink:href="#zoomMin" x="42" y="9" onmousedown="handleZoom(evt,'out')"/>
                <use id="reset" xlink:href="#resetDef" x="30" y="36" onmousedown="handleReset()"/>
                <g id="arrowUp" xlink:href="#dirArrow" transform="translate(30 24)" onmousedown="handlePan(0,-1)">
                  <use xlink:href="#rim" fill="#404040">
                        <set attributeName="fill" to="#808080" begin="arrowUp.mouseover" end="arrowUp.mouseout"/>
                  </use>
                  <path fill="none" stroke="white" stroke-width="1.5" d="M0,-3.0v7 M-2.5,-0.5L0,-3.0L2.5,-0.5"/>
                </g>
                <g id="arrowRight" xlink:href="#dirArrow" transform="rotate(90) translate(36 -43)" onmousedown="handlePan(1,0)">
                  <use xlink:href="#rim" fill="#404040">
                        <set attributeName="fill" to="#808080" begin="arrowRight.mouseover" end="arrowRight.mouseout"/>
                  </use>
                  <path fill="none" stroke="white" stroke-width="1.5" d="M0,-3.0v7 M-2.5,-0.5L0,-3.0L2.5,-0.5"/>
                </g>
                <g id="arrowDown" xlink:href="#dirArrow" transform="rotate(180) translate(-30 -48)" onmousedown="handlePan(0,1)">
                  <use xlink:href="#rim" fill="#404040">
                        <set attributeName="fill" to="#808080" begin="arrowDown.mouseover" end="arrowDown.mouseout"/>
                  </use>
                  <path fill="none" stroke="white" stroke-width="1.5" d="M0,-3.0v7 M-2.5,-0.5L0,-3.0L2.5,-0.5"/>
                </g>
                <g id="arrowLeft" xlink:href="#dirArrow" transform="rotate(270) translate(-36 17)" onmousedown="handlePan(-1,0)">
                  <use xlink:href="#rim" fill="#404040">
                        <set attributeName="fill" to="#808080" begin="arrowLeft.mouseover" end="arrowLeft.mouseout"/>
                  </use>
                  <path fill="none" stroke="white" stroke-width="1.5" d="M0,-3.0v7 M-2.5,-0.5L0,-3.0L2.5,-0.5"/>
                </g>
        </g>
</svg>
