<?xml version="1.0" encoding="UTF-8" standalone="no"?>
<!DOCTYPE svg PUBLIC "-//W3C//DTD SVG 1.1//EN"
 "http://www.w3.org/Graphics/SVG/1.1/DTD/svg11.dtd">
<!-- Generated by graphviz version 2.26.3 (20100126.1600)
 -->
<!-- Title: G Pages: 1 -->
<!--zoomable 668 -->
<svg id="main" version="1.1" xmlns="http://www.w3.org/2000/svg" xmlns:xlink="http://www.w3.org/1999/xlink" xml:space="preserve" onload="init(evt)">
        <defs>
                <circle id="rim" cx="0" cy="0" r="7"/>
                <circle id="rim2" cx="0" cy="0" r="3.5"/>
                <g id="zoomPlus">
                        <use xlink:href="#rim" fill="#404040">
                                <set attributeName="fill" to="#808080" begin="zoomplus.mouseover" end="zoomplus.mouseout"/>
                        </use>
                        <path d="M-4,0h8M0,-4v8" fill="none" stroke="white" stroke-width="1.5" pointer-events="none"/>
                </g>
                <g id="zoomMin">
                        <use xlink:href="#rim" fill="#404040">
                                <set attributeName="fill" to="#808080" begin="zoomminus.mouseover" end="zoomminus.mouseout"/>
                        </use>
                        <path d="M-4,0h8" fill="none" stroke="white" stroke-width="1.5" pointer-events="none"/>
                </g>
                <g id="dirArrow">
                        <path fill="none" stroke="white" stroke-width="1.5" d="M0,-3.0v7 M-2.5,-0.5L0,-3.0L2.5,-0.5"/>
                </g>
               <g id="resetDef">
                       <use xlink:href="#rim2" fill="#404040">
                               <set attributeName="fill" to="#808080" begin="reset.mouseover" end="reset.mouseout"/>
                       </use>
               </g>
        </defs>

<script type="text/javascript">
var viewWidth = 834;
var viewHeight = 668;
var sectionId = 'dynsection-0';
</script>
<script xlink:href="../../svgpan.js"/>
<svg id="graph" class="graph">
<g id="viewport">
<title>G</title>
<polygon fill="white" stroke="white" points="-4,5 -4,-664 831.426,-664 831.426,5 -4,5"/>
<!-- Node1 -->
<g id="node1" class="node"><title>Node1</title>
<polygon fill="#bfbfbf" stroke="black" points="387.426,-638.5 387.426,-659.5 757.426,-659.5 757.426,-638.5 387.426,-638.5"/>
<text text-anchor="middle" x="572.426" y="-646.5" font-family="Helvetica,sans-Serif" font-size="10.00">/home/aoi/Documents/FxOS/B2G/gaia/xulrunner&#45;sdk/include/skia/GrFontScaler.h</text>
</g>
<!-- Node2 -->
<g id="node3" class="node"><title>Node2</title>
<a xlink:href="../../d7/d4f/_gr_glyph_8h.html" target="_top" xlink:title="GrGlyph.h">
<polygon fill="white" stroke="black" points="501.926,-580.5 501.926,-601.5 562.926,-601.5 562.926,-580.5 501.926,-580.5"/>
<text text-anchor="middle" x="532.426" y="-588.5" font-family="Helvetica,sans-Serif" font-size="10.00">GrGlyph.h</text>
</a>
</g>
<!-- Node1&#45;&gt;Node2 -->
<g id="edge2" class="edge"><title>Node1&#45;&gt;Node2</title>
<path fill="none" stroke="midnightblue" d="M565.09,-638.362C559.62,-630.431 552.005,-619.389 545.503,-609.961"/>
<polygon fill="midnightblue" stroke="midnightblue" points="548.275,-607.816 539.716,-601.571 542.512,-611.79 548.275,-607.816"/>
</g>
<!-- Node36 -->
<g id="node92" class="node"><title>Node36</title>
<a xlink:href="../../d6/d3b/_gr_key_8h.html" target="_top" xlink:title="GrKey.h">
<polygon fill="white" stroke="black" points="585.926,-580.5 585.926,-601.5 638.926,-601.5 638.926,-580.5 585.926,-580.5"/>
<text text-anchor="middle" x="612.426" y="-588.5" font-family="Helvetica,sans-Serif" font-size="10.00">GrKey.h</text>
</a>
</g>
<!-- Node1&#45;&gt;Node36 -->
<g id="edge112" class="edge"><title>Node1&#45;&gt;Node36</title>
<path fill="none" stroke="midnightblue" d="M579.763,-638.362C585.232,-630.431 592.848,-619.389 599.35,-609.961"/>
<polygon fill="midnightblue" stroke="midnightblue" points="602.34,-611.79 605.136,-601.571 596.578,-607.816 602.34,-611.79"/>
</g>
<!-- Node3 -->
<g id="node5" class="node"><title>Node3</title>
<a xlink:href="../../d2/d1c/_gr_rect_8h.html" target="_top" xlink:title="GrRect.h">
<polygon fill="white" stroke="black" points="504.426,-464.5 504.426,-485.5 560.426,-485.5 560.426,-464.5 504.426,-464.5"/>
<text text-anchor="middle" x="532.426" y="-472.5" font-family="Helvetica,sans-Serif" font-size="10.00">GrRect.h</text>
</a>
</g>
<!-- Node2&#45;&gt;Node3 -->
<g id="edge4" class="edge"><title>Node2&#45;&gt;Node3</title>
<path fill="none" stroke="midnightblue" d="M532.426,-580.295C532.426,-561.131 532.426,-520.654 532.426,-495.843"/>
<polygon fill="midnightblue" stroke="midnightblue" points="535.926,-495.679 532.426,-485.679 528.926,-495.679 535.926,-495.679"/>
</g>
<!-- Node26 -->
<g id="node62" class="node"><title>Node26</title>
<a xlink:href="../../d4/d49/_sk_path_8h.html" target="_top" xlink:title="SkPath.h">
<polygon fill="white" stroke="black" points="325.926,-522.5 325.926,-543.5 382.926,-543.5 382.926,-522.5 325.926,-522.5"/>
<text text-anchor="middle" x="354.426" y="-530.5" font-family="Helvetica,sans-Serif" font-size="10.00">SkPath.h</text>
</a>
</g>
<!-- Node2&#45;&gt;Node26 -->
<g id="edge72" class="edge"><title>Node2&#45;&gt;Node26</title>
<path fill="none" stroke="midnightblue" d="M501.827,-581.029C471.65,-571.196 425.434,-556.137 392.811,-545.507"/>
<polygon fill="midnightblue" stroke="midnightblue" points="393.748,-542.132 383.156,-542.361 391.579,-548.787 393.748,-542.132"/>
</g>
<!-- Node4 -->
<g id="node7" class="node"><title>Node4</title>
<a xlink:href="../../d5/d2b/_gr_point_8h.html" target="_top" xlink:title="GrPoint.h">
<polygon fill="white" stroke="black" points="521.426,-406.5 521.426,-427.5 579.426,-427.5 579.426,-406.5 521.426,-406.5"/>
<text text-anchor="middle" x="550.426" y="-414.5" font-family="Helvetica,sans-Serif" font-size="10.00">GrPoint.h</text>
</a>
</g>
<!-- Node3&#45;&gt;Node4 -->
<g id="edge6" class="edge"><title>Node3&#45;&gt;Node4</title>
<path fill="none" stroke="midnightblue" d="M535.728,-464.362C538.087,-456.758 541.335,-446.294 544.177,-437.135"/>
<polygon fill="midnightblue" stroke="midnightblue" points="547.524,-438.159 547.146,-427.571 540.839,-436.084 547.524,-438.159"/>
</g>
<!-- Node24 -->
<g id="node56" class="node"><title>Node24</title>
<a xlink:href="../../df/d14/_sk_rect_8h.html" target="_top" xlink:title="SkRect.h">
<polygon fill="white" stroke="black" points="445.426,-406.5 445.426,-427.5 503.426,-427.5 503.426,-406.5 445.426,-406.5"/>
<text text-anchor="middle" x="474.426" y="-414.5" font-family="Helvetica,sans-Serif" font-size="10.00">SkRect.h</text>
</a>
</g>
<!-- Node3&#45;&gt;Node24 -->
<g id="edge64" class="edge"><title>Node3&#45;&gt;Node24</title>
<path fill="none" stroke="midnightblue" d="M521.788,-464.362C513.531,-456.104 501.899,-444.472 492.229,-434.803"/>
<polygon fill="midnightblue" stroke="midnightblue" points="494.543,-432.167 484.997,-427.571 489.593,-437.117 494.543,-432.167"/>
</g>
<!-- Node5 -->
<g id="node9" class="node"><title>Node5</title>
<a xlink:href="../../d8/de6/_gr_types_8h.html" target="_top" xlink:title="GrTypes.h">
<polygon fill="white" stroke="black" points="656.426,-232.5 656.426,-253.5 718.426,-253.5 718.426,-232.5 656.426,-232.5"/>
<text text-anchor="middle" x="687.426" y="-240.5" font-family="Helvetica,sans-Serif" font-size="10.00">GrTypes.h</text>
</a>
</g>
<!-- Node4&#45;&gt;Node5 -->
<g id="edge8" class="edge"><title>Node4&#45;&gt;Node5</title>
<path fill="none" stroke="midnightblue" d="M574.153,-406.472C590.258,-398.371 611.142,-385.88 625.426,-370 654.126,-338.096 672.55,-290.505 681.343,-263.555"/>
<polygon fill="midnightblue" stroke="midnightblue" points="684.785,-264.275 684.43,-253.686 678.104,-262.185 684.785,-264.275"/>
</g>
<!-- Node17 -->
<g id="node37" class="node"><title>Node17</title>
<a xlink:href="../../d5/d8a/_sk_scalar_8h.html" target="_top" xlink:title="SkScalar.h">
<polygon fill="white" stroke="black" points="497.926,-290.5 497.926,-311.5 562.926,-311.5 562.926,-290.5 497.926,-290.5"/>
<text text-anchor="middle" x="530.426" y="-298.5" font-family="Helvetica,sans-Serif" font-size="10.00">SkScalar.h</text>
</a>
</g>
<!-- Node4&#45;&gt;Node17 -->
<g id="edge40" class="edge"><title>Node4&#45;&gt;Node17</title>
<path fill="none" stroke="midnightblue" d="M548.581,-406.295C545.276,-387.131 538.298,-346.654 534.02,-321.843"/>
<polygon fill="midnightblue" stroke="midnightblue" points="537.416,-320.939 532.267,-311.679 530.518,-322.129 537.416,-320.939"/>
</g>
<!-- Node23 -->
<g id="node52" class="node"><title>Node23</title>
<a xlink:href="../../dc/d8c/_sk_point_8h.html" target="_top" xlink:title="SkPoint.h">
<polygon fill="white" stroke="black" points="557.926,-348.5 557.926,-369.5 616.926,-369.5 616.926,-348.5 557.926,-348.5"/>
<text text-anchor="middle" x="587.426" y="-356.5" font-family="Helvetica,sans-Serif" font-size="10.00">SkPoint.h</text>
</a>
</g>
<!-- Node4&#45;&gt;Node23 -->
<g id="edge58" class="edge"><title>Node4&#45;&gt;Node23</title>
<path fill="none" stroke="midnightblue" d="M557.213,-406.362C562.22,-398.513 569.171,-387.616 575.144,-378.253"/>
<polygon fill="midnightblue" stroke="midnightblue" points="578.255,-379.884 580.683,-369.571 572.354,-376.119 578.255,-379.884"/>
</g>
<!-- Node6 -->
<g id="node11" class="node"><title>Node6</title>
<a xlink:href="../../d3/d36/_sk_types_8h.html" target="_top" xlink:title="SkTypes.h">
<polygon fill="white" stroke="black" points="449.426,-116.5 449.426,-137.5 513.426,-137.5 513.426,-116.5 449.426,-116.5"/>
<text text-anchor="middle" x="481.426" y="-124.5" font-family="Helvetica,sans-Serif" font-size="10.00">SkTypes.h</text>
</a>
</g>
<!-- Node5&#45;&gt;Node6 -->
<g id="edge10" class="edge"><title>Node5&#45;&gt;Node6</title>
<path fill="none" stroke="midnightblue" d="M695.29,-232.451C705.188,-217.784 719.317,-191.107 705.426,-174 682.979,-146.355 582.158,-134.381 523.713,-129.686"/>
<polygon fill="midnightblue" stroke="midnightblue" points="523.909,-126.191 513.671,-128.918 523.374,-133.171 523.909,-126.191"/>
</g>
<!-- Node14 -->
<g id="node28" class="node"><title>Node14</title>
<a xlink:href="../../dd/d22/_gr_config_8h.html" target="_top" xlink:title="GrConfig.h">
<polygon fill="white" stroke="black" points="752.426,-174.5 752.426,-195.5 816.426,-195.5 816.426,-174.5 752.426,-174.5"/>
<text text-anchor="middle" x="784.426" y="-182.5" font-family="Helvetica,sans-Serif" font-size="10.00">GrConfig.h</text>
</a>
</g>
<!-- Node5&#45;&gt;Node14 -->
<g id="edge28" class="edge"><title>Node5&#45;&gt;Node14</title>
<path fill="none" stroke="midnightblue" d="M705.218,-232.362C719.985,-223.532 741.204,-210.844 757.965,-200.822"/>
<polygon fill="midnightblue" stroke="midnightblue" points="759.961,-203.707 766.748,-195.571 756.369,-197.699 759.961,-203.707"/>
</g>
<!-- Node16 -->
<g id="node34" class="node"><title>Node16</title>
<a xlink:href="../../d9/df0/_sk_math_8h.html" target="_top" xlink:title="SkMath.h">
<polygon fill="white" stroke="black" points="637.926,-174.5 637.926,-195.5 696.926,-195.5 696.926,-174.5 637.926,-174.5"/>
<text text-anchor="middle" x="667.426" y="-182.5" font-family="Helvetica,sans-Serif" font-size="10.00">SkMath.h</text>
</a>
</g>
<!-- Node5&#45;&gt;Node16 -->
<g id="edge36" class="edge"><title>Node5&#45;&gt;Node16</title>
<path fill="none" stroke="midnightblue" d="M683.758,-232.362C681.136,-224.758 677.528,-214.294 674.369,-205.135"/>
<polygon fill="midnightblue" stroke="midnightblue" points="677.64,-203.883 671.071,-195.571 671.022,-206.165 677.64,-203.883"/>
</g>
<!-- Node7 -->
<g id="node13" class="node"><title>Node7</title>
<a xlink:href="../../da/dc5/_sk_pre_config_8h.html" target="_top" xlink:title="SkPreConfig.h">
<polygon fill="white" stroke="black" points="546.426,-58.5 546.426,-79.5 626.426,-79.5 626.426,-58.5 546.426,-58.5"/>
<text text-anchor="middle" x="586.426" y="-66.5" font-family="Helvetica,sans-Serif" font-size="10.00">SkPreConfig.h</text>
</a>
</g>
<!-- Node6&#45;&gt;Node7 -->
<g id="edge12" class="edge"><title>Node6&#45;&gt;Node7</title>
<path fill="none" stroke="midnightblue" d="M500.685,-116.362C516.892,-107.409 540.279,-94.4908 558.535,-84.4064"/>
<polygon fill="midnightblue" stroke="midnightblue" points="560.229,-87.4696 567.29,-79.5707 556.844,-81.3422 560.229,-87.4696"/>
</g>
<!-- Node8 -->
<g id="node15" class="node"><title>Node8</title>
<a xlink:href="../../d8/d2f/_sk_user_config_8h.html" target="_top" xlink:title="SkUserConfig.h">
<polygon fill="white" stroke="black" points="300.426,-58.5 300.426,-79.5 386.426,-79.5 386.426,-58.5 300.426,-58.5"/>
<text text-anchor="middle" x="343.426" y="-66.5" font-family="Helvetica,sans-Serif" font-size="10.00">SkUserConfig.h</text>
</a>
</g>
<!-- Node6&#45;&gt;Node8 -->
<g id="edge14" class="edge"><title>Node6&#45;&gt;Node8</title>
<path fill="none" stroke="midnightblue" d="M456.435,-116.497C434.493,-107.275 402.36,-93.7695 377.963,-83.5153"/>
<polygon fill="midnightblue" stroke="midnightblue" points="379.272,-80.2693 368.697,-79.6212 376.56,-86.7225 379.272,-80.2693"/>
</g>
<!-- Node9 -->
<g id="node17" class="node"><title>Node9</title>
<a xlink:href="../../d8/d35/_sk_post_config_8h.html" target="_top" xlink:title="SkPostConfig.h">
<polygon fill="white" stroke="black" points="442.426,-58.5 442.426,-79.5 528.426,-79.5 528.426,-58.5 442.426,-58.5"/>
<text text-anchor="middle" x="485.426" y="-66.5" font-family="Helvetica,sans-Serif" font-size="10.00">SkPostConfig.h</text>
</a>
</g>
<!-- Node6&#45;&gt;Node9 -->
<g id="edge16" class="edge"><title>Node6&#45;&gt;Node9</title>
<path fill="none" stroke="midnightblue" d="M482.16,-116.362C482.673,-108.922 483.375,-98.7427 483.997,-89.7276"/>
<polygon fill="midnightblue" stroke="midnightblue" points="487.501,-89.7878 484.697,-79.5707 480.517,-89.3061 487.501,-89.7878"/>
</g>
<!-- Node10 -->
<g id="node19" class="node"><title>Node10</title>
<polygon fill="white" stroke="#bfbfbf" points="392.426,-0.5 392.426,-21.5 438.426,-21.5 438.426,-0.5 392.426,-0.5"/>
<text text-anchor="middle" x="415.426" y="-8.5" font-family="Helvetica,sans-Serif" font-size="10.00">stdio.h</text>
</g>
<!-- Node6&#45;&gt;Node10 -->
<g id="edge26" class="edge"><title>Node6&#45;&gt;Node10</title>
<path fill="none" stroke="midnightblue" d="M466.741,-116.226C455.986,-107.583 441.852,-94.5282 433.426,-80 424.899,-65.2964 420.341,-46.5176 417.947,-32.264"/>
<polygon fill="midnightblue" stroke="midnightblue" points="421.353,-31.363 416.457,-21.9674 414.425,-32.3656 421.353,-31.363"/>
</g>
<!-- Node13 -->
<g id="node25" class="node"><title>Node13</title>
<polygon fill="white" stroke="#bfbfbf" points="650.926,-58.5 650.926,-79.5 699.926,-79.5 699.926,-58.5 650.926,-58.5"/>
<text text-anchor="middle" x="675.426" y="-66.5" font-family="Helvetica,sans-Serif" font-size="10.00">stdint.h</text>
</g>
<!-- Node6&#45;&gt;Node13 -->
<g id="edge24" class="edge"><title>Node6&#45;&gt;Node13</title>
<path fill="none" stroke="midnightblue" d="M513.461,-117.422C548.678,-106.894 605.039,-90.0435 641.131,-79.2531"/>
<polygon fill="midnightblue" stroke="midnightblue" points="642.161,-82.5985 650.739,-76.3807 640.156,-75.8918 642.161,-82.5985"/>
</g>
<!-- Node9&#45;&gt;Node10 -->
<g id="edge18" class="edge"><title>Node9&#45;&gt;Node10</title>
<path fill="none" stroke="midnightblue" d="M472.587,-58.3619C462.424,-49.9408 448.025,-38.0105 436.222,-28.2308"/>
<polygon fill="midnightblue" stroke="midnightblue" points="438.117,-25.2558 428.184,-21.5707 433.651,-30.6459 438.117,-25.2558"/>
</g>
<!-- Node11 -->
<g id="node21" class="node"><title>Node11</title>
<polygon fill="white" stroke="#bfbfbf" points="524.926,-0.5 524.926,-21.5 573.926,-21.5 573.926,-0.5 524.926,-0.5"/>
<text text-anchor="middle" x="549.426" y="-8.5" font-family="Helvetica,sans-Serif" font-size="10.00">string.h</text>
</g>
<!-- Node9&#45;&gt;Node11 -->
<g id="edge20" class="edge"><title>Node9&#45;&gt;Node11</title>
<path fill="none" stroke="midnightblue" d="M497.165,-58.3619C506.367,-50.0226 519.366,-38.2418 530.098,-28.5162"/>
<polygon fill="midnightblue" stroke="midnightblue" points="532.703,-30.8793 537.762,-21.5707 528.002,-25.6924 532.703,-30.8793"/>
</g>
<!-- Node12 -->
<g id="node23" class="node"><title>Node12</title>
<polygon fill="white" stroke="#bfbfbf" points="459.426,-0.5 459.426,-21.5 507.426,-21.5 507.426,-0.5 459.426,-0.5"/>
<text text-anchor="middle" x="483.426" y="-8.5" font-family="Helvetica,sans-Serif" font-size="10.00">stdlib.h</text>
</g>
<!-- Node9&#45;&gt;Node12 -->
<g id="edge22" class="edge"><title>Node9&#45;&gt;Node12</title>
<path fill="none" stroke="midnightblue" d="M485.059,-58.3619C484.803,-50.9219 484.452,-40.7427 484.141,-31.7276"/>
<polygon fill="midnightblue" stroke="midnightblue" points="487.633,-31.4441 483.791,-21.5707 480.638,-31.6854 487.633,-31.4441"/>
</g>
<!-- Node14&#45;&gt;Node6 -->
<g id="edge30" class="edge"><title>Node14&#45;&gt;Node6</title>
<path fill="none" stroke="midnightblue" d="M752.305,-177.086C747.658,-176.009 742.926,-174.949 738.426,-174 663.064,-158.11 574.608,-142.622 523.584,-133.993"/>
<polygon fill="midnightblue" stroke="midnightblue" points="524.03,-130.519 513.588,-132.309 522.868,-137.422 524.03,-130.519"/>
</g>
<!-- Node14&#45;&gt;Node13 -->
<g id="edge32" class="edge"><title>Node14&#45;&gt;Node13</title>
<path fill="none" stroke="midnightblue" d="M771.853,-174.216C761.268,-164.951 745.903,-151.059 733.426,-138 717.849,-121.696 701.432,-101.885 690.056,-87.6811"/>
<polygon fill="midnightblue" stroke="midnightblue" points="692.635,-85.3002 683.677,-79.643 687.152,-89.6517 692.635,-85.3002"/>
</g>
<!-- Node15 -->
<g id="node32" class="node"><title>Node15</title>
<a xlink:href="../../dc/dc1/_gr_user_config_8h.html" target="_top" xlink:title="GrUserConfig.h">
<polygon fill="white" stroke="black" points="741.926,-116.5 741.926,-137.5 826.926,-137.5 826.926,-116.5 741.926,-116.5"/>
<text text-anchor="middle" x="784.426" y="-124.5" font-family="Helvetica,sans-Serif" font-size="10.00">GrUserConfig.h</text>
</a>
</g>
<!-- Node14&#45;&gt;Node15 -->
<g id="edge34" class="edge"><title>Node14&#45;&gt;Node15</title>
<path fill="none" stroke="midnightblue" d="M784.426,-174.362C784.426,-166.922 784.426,-156.743 784.426,-147.728"/>
<polygon fill="midnightblue" stroke="midnightblue" points="787.926,-147.571 784.426,-137.571 780.926,-147.571 787.926,-147.571"/>
</g>
<!-- Node16&#45;&gt;Node6 -->
<g id="edge38" class="edge"><title>Node16&#45;&gt;Node6</title>
<path fill="none" stroke="midnightblue" d="M637.542,-175.681C606.699,-166.063 558.318,-150.977 523.59,-140.148"/>
<polygon fill="midnightblue" stroke="midnightblue" points="524.324,-136.711 513.735,-137.075 522.24,-143.393 524.324,-136.711"/>
</g>
<!-- Node18 -->
<g id="node39" class="node"><title>Node18</title>
<a xlink:href="../../d0/df6/_sk_fixed_8h.html" target="_top" xlink:title="SkFixed.h">
<polygon fill="white" stroke="black" points="522.926,-232.5 522.926,-253.5 583.926,-253.5 583.926,-232.5 522.926,-232.5"/>
<text text-anchor="middle" x="553.426" y="-240.5" font-family="Helvetica,sans-Serif" font-size="10.00">SkFixed.h</text>
</a>
</g>
<!-- Node17&#45;&gt;Node18 -->
<g id="edge42" class="edge"><title>Node17&#45;&gt;Node18</title>
<path fill="none" stroke="midnightblue" d="M534.645,-290.362C537.66,-282.758 541.81,-272.294 545.442,-263.135"/>
<polygon fill="midnightblue" stroke="midnightblue" points="548.802,-264.157 549.234,-253.571 542.295,-261.576 548.802,-264.157"/>
</g>
<!-- Node19 -->
<g id="node42" class="node"><title>Node19</title>
<a xlink:href="../../df/dd6/_sk_floating_point_8h.html" target="_top" xlink:title="SkFloatingPoint.h">
<polygon fill="white" stroke="black" points="411.426,-232.5 411.426,-253.5 505.426,-253.5 505.426,-232.5 411.426,-232.5"/>
<text text-anchor="middle" x="458.426" y="-240.5" font-family="Helvetica,sans-Serif" font-size="10.00">SkFloatingPoint.h</text>
</a>
</g>
<!-- Node17&#45;&gt;Node19 -->
<g id="edge46" class="edge"><title>Node17&#45;&gt;Node19</title>
<path fill="none" stroke="midnightblue" d="M517.22,-290.362C506.665,-281.859 491.669,-269.779 479.463,-259.947"/>
<polygon fill="midnightblue" stroke="midnightblue" points="481.532,-257.118 471.548,-253.571 477.14,-262.57 481.532,-257.118"/>
</g>
<!-- Node18&#45;&gt;Node6 -->
<g id="edge44" class="edge"><title>Node18&#45;&gt;Node6</title>
<path fill="none" stroke="midnightblue" d="M566.66,-232.409C582.27,-218.598 604.536,-193.858 591.426,-174 576.409,-151.253 547.876,-139.476 523.634,-133.4"/>
<polygon fill="midnightblue" stroke="midnightblue" points="524.084,-129.914 513.559,-131.13 522.545,-136.743 524.084,-129.914"/>
</g>
<!-- Node19&#45;&gt;Node6 -->
<g id="edge48" class="edge"><title>Node19&#45;&gt;Node6</title>
<path fill="none" stroke="midnightblue" d="M460.549,-232.295C464.366,-213.045 472.447,-172.289 477.36,-147.509"/>
<polygon fill="midnightblue" stroke="midnightblue" points="480.797,-148.169 479.309,-137.679 473.931,-146.808 480.797,-148.169"/>
</g>
<!-- Node20 -->
<g id="node45" class="node"><title>Node20</title>
<polygon fill="white" stroke="#bfbfbf" points="341.926,-174.5 341.926,-195.5 388.926,-195.5 388.926,-174.5 341.926,-174.5"/>
<text text-anchor="middle" x="365.426" y="-182.5" font-family="Helvetica,sans-Serif" font-size="10.00">math.h</text>
</g>
<!-- Node19&#45;&gt;Node20 -->
<g id="edge50" class="edge"><title>Node19&#45;&gt;Node20</title>
<path fill="none" stroke="midnightblue" d="M441.369,-232.362C427.341,-223.614 407.242,-211.079 391.244,-201.101"/>
<polygon fill="midnightblue" stroke="midnightblue" points="392.713,-197.893 382.376,-195.571 389.009,-203.832 392.713,-197.893"/>
</g>
<!-- Node21 -->
<g id="node47" class="node"><title>Node21</title>
<polygon fill="white" stroke="#bfbfbf" points="406.426,-174.5 406.426,-195.5 450.426,-195.5 450.426,-174.5 406.426,-174.5"/>
<text text-anchor="middle" x="428.426" y="-182.5" font-family="Helvetica,sans-Serif" font-size="10.00">float.h</text>
</g>
<!-- Node19&#45;&gt;Node21 -->
<g id="edge52" class="edge"><title>Node19&#45;&gt;Node21</title>
<path fill="none" stroke="midnightblue" d="M452.924,-232.362C448.906,-224.595 443.345,-213.843 438.536,-204.546"/>
<polygon fill="midnightblue" stroke="midnightblue" points="441.597,-202.845 433.894,-195.571 435.379,-206.061 441.597,-202.845"/>
</g>
<!-- Node22 -->
<g id="node49" class="node"><title>Node22</title>
<a xlink:href="../../de/d2c/_sk_float_bits_8h.html" target="_top" xlink:title="SkFloatBits.h">
<polygon fill="white" stroke="black" points="506.426,-174.5 506.426,-195.5 582.426,-195.5 582.426,-174.5 506.426,-174.5"/>
<text text-anchor="middle" x="544.426" y="-182.5" font-family="Helvetica,sans-Serif" font-size="10.00">SkFloatBits.h</text>
</a>
</g>
<!-- Node19&#45;&gt;Node22 -->
<g id="edge54" class="edge"><title>Node19&#45;&gt;Node22</title>
<path fill="none" stroke="midnightblue" d="M474.2,-232.362C487.05,-223.696 505.411,-211.313 520.136,-201.382"/>
<polygon fill="midnightblue" stroke="midnightblue" points="522.419,-204.064 528.753,-195.571 518.505,-198.26 522.419,-204.064"/>
</g>
<!-- Node22&#45;&gt;Node6 -->
<g id="edge56" class="edge"><title>Node22&#45;&gt;Node6</title>
<path fill="none" stroke="midnightblue" d="M532.871,-174.362C523.813,-166.023 511.017,-154.242 500.453,-144.516"/>
<polygon fill="midnightblue" stroke="midnightblue" points="502.636,-141.769 492.908,-137.571 497.895,-146.919 502.636,-141.769"/>
</g>
<!-- Node23&#45;&gt;Node16 -->
<g id="edge60" class="edge"><title>Node23&#45;&gt;Node16</title>
<path fill="none" stroke="midnightblue" d="M592.31,-348.377C605.334,-320.051 641.059,-242.349 658.119,-205.242"/>
<polygon fill="midnightblue" stroke="midnightblue" points="661.405,-206.476 662.402,-195.928 655.045,-203.551 661.405,-206.476"/>
</g>
<!-- Node23&#45;&gt;Node17 -->
<g id="edge62" class="edge"><title>Node23&#45;&gt;Node17</title>
<path fill="none" stroke="midnightblue" d="M576.972,-348.362C568.856,-340.104 557.425,-328.472 547.922,-318.803"/>
<polygon fill="midnightblue" stroke="midnightblue" points="550.32,-316.25 540.815,-311.571 545.328,-321.156 550.32,-316.25"/>
</g>
<!-- Node24&#45;&gt;Node23 -->
<g id="edge66" class="edge"><title>Node24&#45;&gt;Node23</title>
<path fill="none" stroke="midnightblue" d="M494.89,-406.497C512.459,-397.479 538.008,-384.365 557.811,-374.201"/>
<polygon fill="midnightblue" stroke="midnightblue" points="559.435,-377.301 566.733,-369.621 556.238,-371.074 559.435,-377.301"/>
</g>
<!-- Node25 -->
<g id="node59" class="node"><title>Node25</title>
<a xlink:href="../../d9/d2c/_sk_size_8h.html" target="_top" xlink:title="SkSize.h">
<polygon fill="white" stroke="black" points="446.426,-348.5 446.426,-369.5 502.426,-369.5 502.426,-348.5 446.426,-348.5"/>
<text text-anchor="middle" x="474.426" y="-356.5" font-family="Helvetica,sans-Serif" font-size="10.00">SkSize.h</text>
</a>
</g>
<!-- Node24&#45;&gt;Node25 -->
<g id="edge68" class="edge"><title>Node24&#45;&gt;Node25</title>
<path fill="none" stroke="midnightblue" d="M474.426,-406.362C474.426,-398.922 474.426,-388.743 474.426,-379.728"/>
<polygon fill="midnightblue" stroke="midnightblue" points="477.926,-379.571 474.426,-369.571 470.926,-379.571 477.926,-379.571"/>
</g>
<!-- Node25&#45;&gt;Node17 -->
<g id="edge70" class="edge"><title>Node25&#45;&gt;Node17</title>
<path fill="none" stroke="midnightblue" d="M484.698,-348.362C492.67,-340.104 503.901,-328.472 513.237,-318.803"/>
<polygon fill="midnightblue" stroke="midnightblue" points="515.792,-321.196 520.22,-311.571 510.756,-316.334 515.792,-321.196"/>
</g>
<!-- Node27 -->
<g id="node64" class="node"><title>Node27</title>
<a xlink:href="../../dd/dac/_sk_inst_cnt_8h.html" target="_top" xlink:title="SkInstCnt.h">
<polygon fill="white" stroke="black" points="133.926,-290.5 133.926,-311.5 202.926,-311.5 202.926,-290.5 133.926,-290.5"/>
<text text-anchor="middle" x="168.426" y="-298.5" font-family="Helvetica,sans-Serif" font-size="10.00">SkInstCnt.h</text>
</a>
</g>
<!-- Node26&#45;&gt;Node27 -->
<g id="edge74" class="edge"><title>Node26&#45;&gt;Node27</title>
<path fill="none" stroke="midnightblue" d="M338.582,-522.356C326.053,-513.494 308.546,-500.087 295.426,-486 244.946,-431.798 199.397,-356.065 179.299,-320.678"/>
<polygon fill="midnightblue" stroke="midnightblue" points="182.271,-318.823 174.322,-311.819 176.168,-322.251 182.271,-318.823"/>
</g>
<!-- Node32 -->
<g id="node78" class="node"><title>Node32</title>
<a xlink:href="../../da/d71/_sk_matrix_8h.html" target="_top" xlink:title="SkMatrix.h">
<polygon fill="white" stroke="black" points="418.426,-464.5 418.426,-485.5 482.426,-485.5 482.426,-464.5 418.426,-464.5"/>
<text text-anchor="middle" x="450.426" y="-472.5" font-family="Helvetica,sans-Serif" font-size="10.00">SkMatrix.h</text>
</a>
</g>
<!-- Node26&#45;&gt;Node32 -->
<g id="edge92" class="edge"><title>Node26&#45;&gt;Node32</title>
<path fill="none" stroke="midnightblue" d="M372.034,-522.362C386.649,-513.532 407.65,-500.844 424.237,-490.822"/>
<polygon fill="midnightblue" stroke="midnightblue" points="426.181,-493.738 432.93,-485.571 422.561,-487.746 426.181,-493.738"/>
</g>
<!-- Node33 -->
<g id="node81" class="node"><title>Node33</title>
<a xlink:href="../../d4/d78/_sk_t_d_array_8h.html" target="_top" xlink:title="SkTDArray.h">
<polygon fill="white" stroke="black" points="317.426,-464.5 317.426,-485.5 391.426,-485.5 391.426,-464.5 317.426,-464.5"/>
<text text-anchor="middle" x="354.426" y="-472.5" font-family="Helvetica,sans-Serif" font-size="10.00">SkTDArray.h</text>
</a>
</g>
<!-- Node26&#45;&gt;Node33 -->
<g id="edge96" class="edge"><title>Node26&#45;&gt;Node33</title>
<path fill="none" stroke="midnightblue" d="M354.426,-522.362C354.426,-514.922 354.426,-504.743 354.426,-495.728"/>
<polygon fill="midnightblue" stroke="midnightblue" points="357.926,-495.571 354.426,-485.571 350.926,-495.571 357.926,-495.571"/>
</g>
<!-- Node34 -->
<g id="node84" class="node"><title>Node34</title>
<a xlink:href="../../df/d2b/_sk_ref_cnt_8h.html" target="_top" xlink:title="SkRefCnt.h">
<polygon fill="white" stroke="black" points="255.426,-348.5 255.426,-369.5 323.426,-369.5 323.426,-348.5 255.426,-348.5"/>
<text text-anchor="middle" x="289.426" y="-356.5" font-family="Helvetica,sans-Serif" font-size="10.00">SkRefCnt.h</text>
</a>
</g>
<!-- Node26&#45;&gt;Node34 -->
<g id="edge100" class="edge"><title>Node26&#45;&gt;Node34</title>
<path fill="none" stroke="midnightblue" d="M339.921,-522.336C329.388,-513.752 315.748,-500.721 308.426,-486 291.301,-451.572 288.627,-405.887 288.705,-379.741"/>
<polygon fill="midnightblue" stroke="midnightblue" points="292.209,-379.576 288.883,-369.517 285.21,-379.455 292.209,-379.576"/>
</g>
<!-- Node27&#45;&gt;Node6 -->
<g id="edge76" class="edge"><title>Node27&#45;&gt;Node6</title>
<path fill="none" stroke="midnightblue" d="M156.181,-290.499C141.457,-276.571 120.271,-251.481 133.426,-232 168.092,-180.665 354.233,-146.317 439.148,-133.09"/>
<polygon fill="midnightblue" stroke="midnightblue" points="439.872,-136.52 449.226,-131.546 438.811,-129.601 439.872,-136.52"/>
</g>
<!-- Node28 -->
<g id="node67" class="node"><title>Node28</title>
<a xlink:href="../../dd/d82/_sk_t_array_8h.html" target="_top" xlink:title="SkTArray.h">
<polygon fill="white" stroke="black" points="20.4263,-232.5 20.4263,-253.5 86.4263,-253.5 86.4263,-232.5 20.4263,-232.5"/>
<text text-anchor="middle" x="53.4263" y="-240.5" font-family="Helvetica,sans-Serif" font-size="10.00">SkTArray.h</text>
</a>
</g>
<!-- Node27&#45;&gt;Node28 -->
<g id="edge78" class="edge"><title>Node27&#45;&gt;Node28</title>
<path fill="none" stroke="midnightblue" d="M147.601,-290.497C129.72,-281.479 103.719,-268.365 83.5653,-258.201"/>
<polygon fill="midnightblue" stroke="midnightblue" points="84.9904,-254.999 74.4856,-253.621 81.8381,-261.249 84.9904,-254.999"/>
</g>
<!-- Node31 -->
<g id="node76" class="node"><title>Node31</title>
<a xlink:href="../../d9/d82/_sk_thread__platform_8h.html" target="_top" xlink:title="SkThread_platform.h">
<polygon fill="white" stroke="black" points="141.926,-232.5 141.926,-253.5 248.926,-253.5 248.926,-232.5 141.926,-232.5"/>
<text text-anchor="middle" x="195.426" y="-240.5" font-family="Helvetica,sans-Serif" font-size="10.00">SkThread_platform.h</text>
</a>
</g>
<!-- Node27&#45;&gt;Node31 -->
<g id="edge90" class="edge"><title>Node27&#45;&gt;Node31</title>
<path fill="none" stroke="midnightblue" d="M173.378,-290.362C176.956,-282.677 181.894,-272.069 186.19,-262.84"/>
<polygon fill="midnightblue" stroke="midnightblue" points="189.458,-264.114 190.505,-253.571 183.112,-261.159 189.458,-264.114"/>
</g>
<!-- Node28&#45;&gt;Node6 -->
<g id="edge82" class="edge"><title>Node28&#45;&gt;Node6</title>
<path fill="none" stroke="midnightblue" d="M64.0255,-232.256C80.2063,-216.576 112.754,-187.796 146.426,-174 198.589,-152.628 360.9,-136.88 438.829,-130.339"/>
<polygon fill="midnightblue" stroke="midnightblue" points="439.567,-133.79 449.245,-129.477 438.99,-126.814 439.567,-133.79"/>
</g>
<!-- Node29 -->
<g id="node69" class="node"><title>Node29</title>
<polygon fill="white" stroke="#bfbfbf" points="0.92625,-116.5 0.92625,-137.5 35.9263,-137.5 35.9263,-116.5 0.92625,-116.5"/>
<text text-anchor="middle" x="18.4263" y="-124.5" font-family="Helvetica,sans-Serif" font-size="10.00">new</text>
</g>
<!-- Node28&#45;&gt;Node29 -->
<g id="edge80" class="edge"><title>Node28&#45;&gt;Node29</title>
<path fill="none" stroke="midnightblue" d="M36.0094,-232.225C24.3794,-223.93 10.0465,-211.309 3.42625,-196 -3.38666,-180.246 1.73997,-161.084 7.78381,-146.955"/>
<polygon fill="midnightblue" stroke="midnightblue" points="11.0616,-148.211 12.1892,-137.677 4.7382,-145.209 11.0616,-148.211"/>
</g>
<!-- Node30 -->
<g id="node72" class="node"><title>Node30</title>
<a xlink:href="../../db/d2d/_sk_templates_8h.html" target="_top" xlink:title="SkTemplates.h">
<polygon fill="white" stroke="black" points="11.9263,-174.5 11.9263,-195.5 94.9263,-195.5 94.9263,-174.5 11.9263,-174.5"/>
<text text-anchor="middle" x="53.4263" y="-182.5" font-family="Helvetica,sans-Serif" font-size="10.00">SkTemplates.h</text>
</a>
</g>
<!-- Node28&#45;&gt;Node30 -->
<g id="edge84" class="edge"><title>Node28&#45;&gt;Node30</title>
<path fill="none" stroke="midnightblue" d="M53.4263,-232.362C53.4263,-224.922 53.4263,-214.743 53.4263,-205.728"/>
<polygon fill="midnightblue" stroke="midnightblue" points="56.9263,-205.571 53.4263,-195.571 49.9263,-205.571 56.9263,-205.571"/>
</g>
<!-- Node30&#45;&gt;Node6 -->
<g id="edge86" class="edge"><title>Node30&#45;&gt;Node6</title>
<path fill="none" stroke="midnightblue" d="M95.1109,-176.335C99.5972,-175.5 104.101,-174.704 108.426,-174 227.913,-154.549 370.059,-138.612 439.307,-131.307"/>
<polygon fill="midnightblue" stroke="midnightblue" points="439.801,-134.774 449.382,-130.251 439.072,-127.812 439.801,-134.774"/>
</g>
<!-- Node30&#45;&gt;Node29 -->
<g id="edge88" class="edge"><title>Node30&#45;&gt;Node29</title>
<path fill="none" stroke="midnightblue" d="M47.0067,-174.362C42.2704,-166.513 35.6945,-155.616 30.0443,-146.253"/>
<polygon fill="midnightblue" stroke="midnightblue" points="32.9685,-144.324 24.8051,-137.571 26.9751,-147.941 32.9685,-144.324"/>
</g>
<!-- Node32&#45;&gt;Node24 -->
<g id="edge94" class="edge"><title>Node32&#45;&gt;Node24</title>
<path fill="none" stroke="midnightblue" d="M454.828,-464.362C458.008,-456.677 462.398,-446.069 466.217,-436.84"/>
<polygon fill="midnightblue" stroke="midnightblue" points="469.463,-438.149 470.052,-427.571 462.995,-435.473 469.463,-438.149"/>
</g>
<!-- Node33&#45;&gt;Node6 -->
<g id="edge98" class="edge"><title>Node33&#45;&gt;Node6</title>
<path fill="none" stroke="midnightblue" d="M354.122,-464.445C353.563,-444.065 352.426,-397.874 352.426,-359 352.426,-359 352.426,-359 352.426,-301 352.426,-243.927 299.726,-220.061 333.426,-174 346.093,-156.687 400.208,-142.736 439.342,-134.657"/>
<polygon fill="midnightblue" stroke="midnightblue" points="440.068,-138.082 449.184,-132.683 438.691,-131.218 440.068,-138.082"/>
</g>
<!-- Node34&#45;&gt;Node27 -->
<g id="edge108" class="edge"><title>Node34&#45;&gt;Node27</title>
<path fill="none" stroke="midnightblue" d="M267.514,-348.497C248.615,-339.438 221.095,-326.246 199.85,-316.063"/>
<polygon fill="midnightblue" stroke="midnightblue" points="201.115,-312.788 190.584,-311.621 198.089,-319.1 201.115,-312.788"/>
</g>
<!-- Node34&#45;&gt;Node30 -->
<g id="edge110" class="edge"><title>Node34&#45;&gt;Node30</title>
<path fill="none" stroke="midnightblue" d="M292.72,-348.468C296.487,-334.72 301.409,-310.049 295.426,-290 286.614,-260.469 282.71,-249.619 257.426,-232 233.175,-215.101 157.386,-200.702 105.341,-192.449"/>
<polygon fill="midnightblue" stroke="midnightblue" points="105.69,-188.961 95.2708,-190.881 104.613,-195.878 105.69,-188.961"/>
</g>
<!-- Node35 -->
<g id="node86" class="node"><title>Node35</title>
<a xlink:href="../../d9/def/_sk_thread_8h.html" target="_top" xlink:title="SkThread.h">
<polygon fill="white" stroke="black" points="219.926,-290.5 219.926,-311.5 286.926,-311.5 286.926,-290.5 219.926,-290.5"/>
<text text-anchor="middle" x="253.426" y="-298.5" font-family="Helvetica,sans-Serif" font-size="10.00">SkThread.h</text>
</a>
</g>
<!-- Node34&#45;&gt;Node35 -->
<g id="edge102" class="edge"><title>Node34&#45;&gt;Node35</title>
<path fill="none" stroke="midnightblue" d="M282.823,-348.362C277.952,-340.513 271.188,-329.616 265.376,-320.253"/>
<polygon fill="midnightblue" stroke="midnightblue" points="268.235,-318.221 259.987,-311.571 262.287,-321.913 268.235,-318.221"/>
</g>
<!-- Node35&#45;&gt;Node6 -->
<g id="edge104" class="edge"><title>Node35&#45;&gt;Node6</title>
<path fill="none" stroke="midnightblue" d="M254.149,-290.322C256.392,-265.911 265.377,-205.696 300.426,-174 320.673,-155.691 392.42,-141.155 439.272,-133.336"/>
<polygon fill="midnightblue" stroke="midnightblue" points="439.847,-136.789 449.153,-131.725 438.72,-129.88 439.847,-136.789"/>
</g>
<!-- Node35&#45;&gt;Node31 -->
<g id="edge106" class="edge"><title>Node35&#45;&gt;Node31</title>
<path fill="none" stroke="midnightblue" d="M242.788,-290.362C234.531,-282.104 222.899,-270.472 213.229,-260.803"/>
<polygon fill="midnightblue" stroke="midnightblue" points="215.543,-258.167 205.997,-253.571 210.593,-263.117 215.543,-258.167"/>
</g>
<!-- Node37 -->
<g id="node94" class="node"><title>Node37</title>
<a xlink:href="../../d5/d5a/_gr_ref_cnt_8h.html" target="_top" xlink:title="GrRefCnt.h">
<polygon fill="white" stroke="black" points="596.926,-406.5 596.926,-427.5 663.926,-427.5 663.926,-406.5 596.926,-406.5"/>
<text text-anchor="middle" x="630.426" y="-414.5" font-family="Helvetica,sans-Serif" font-size="10.00">GrRefCnt.h</text>
</a>
</g>
<!-- Node36&#45;&gt;Node37 -->
<g id="edge114" class="edge"><title>Node36&#45;&gt;Node37</title>
<path fill="none" stroke="midnightblue" d="M613.525,-580.377C616.43,-552.293 624.357,-475.673 628.233,-438.203"/>
<polygon fill="midnightblue" stroke="midnightblue" points="631.748,-438.235 629.296,-427.928 624.785,-437.514 631.748,-438.235"/>
</g>
<!-- Node37&#45;&gt;Node5 -->
<g id="edge116" class="edge"><title>Node37&#45;&gt;Node5</title>
<path fill="none" stroke="midnightblue" d="M640.026,-406.221C647.555,-397.179 657.687,-383.594 663.426,-370 678.402,-334.525 684.085,-289.543 686.204,-263.741"/>
<polygon fill="midnightblue" stroke="midnightblue" points="689.704,-263.863 686.929,-253.638 682.722,-263.362 689.704,-263.863"/>
</g>
<!-- Node37&#45;&gt;Node34 -->
<g id="edge118" class="edge"><title>Node37&#45;&gt;Node34</title>
<path fill="none" stroke="midnightblue" d="M596.569,-407.821C593.822,-407.172 591.082,-406.555 588.426,-406 498.66,-387.239 392.326,-372.214 333.732,-364.551"/>
<polygon fill="midnightblue" stroke="midnightblue" points="334.075,-361.066 323.708,-363.251 333.175,-368.008 334.075,-361.066"/>
</g>
</g>
</svg>
        <g id="navigator" transform="translate(0 0)" fill="#404254">
                <rect fill="#f2f5e9" fill-opacity="0.5" stroke="#606060" stroke-width=".5" x="0" y="0" width="60" height="60"/>
                <use id="zoomplus" xlink:href="#zoomPlus" x="17" y="9" onmousedown="handleZoom(evt,'in')"/>
                <use id="zoomminus" xlink:href="#zoomMin" x="42" y="9" onmousedown="handleZoom(evt,'out')"/>
                <use id="reset" xlink:href="#resetDef" x="30" y="36" onmousedown="handleReset()"/>
                <g id="arrowUp" xlink:href="#dirArrow" transform="translate(30 24)" onmousedown="handlePan(0,-1)">
                  <use xlink:href="#rim" fill="#404040">
                        <set attributeName="fill" to="#808080" begin="arrowUp.mouseover" end="arrowUp.mouseout"/>
                  </use>
                  <path fill="none" stroke="white" stroke-width="1.5" d="M0,-3.0v7 M-2.5,-0.5L0,-3.0L2.5,-0.5"/>
                </g>
                <g id="arrowRight" xlink:href="#dirArrow" transform="rotate(90) translate(36 -43)" onmousedown="handlePan(1,0)">
                  <use xlink:href="#rim" fill="#404040">
                        <set attributeName="fill" to="#808080" begin="arrowRight.mouseover" end="arrowRight.mouseout"/>
                  </use>
                  <path fill="none" stroke="white" stroke-width="1.5" d="M0,-3.0v7 M-2.5,-0.5L0,-3.0L2.5,-0.5"/>
                </g>
                <g id="arrowDown" xlink:href="#dirArrow" transform="rotate(180) translate(-30 -48)" onmousedown="handlePan(0,1)">
                  <use xlink:href="#rim" fill="#404040">
                        <set attributeName="fill" to="#808080" begin="arrowDown.mouseover" end="arrowDown.mouseout"/>
                  </use>
                  <path fill="none" stroke="white" stroke-width="1.5" d="M0,-3.0v7 M-2.5,-0.5L0,-3.0L2.5,-0.5"/>
                </g>
                <g id="arrowLeft" xlink:href="#dirArrow" transform="rotate(270) translate(-36 17)" onmousedown="handlePan(-1,0)">
                  <use xlink:href="#rim" fill="#404040">
                        <set attributeName="fill" to="#808080" begin="arrowLeft.mouseover" end="arrowLeft.mouseout"/>
                  </use>
                  <path fill="none" stroke="white" stroke-width="1.5" d="M0,-3.0v7 M-2.5,-0.5L0,-3.0L2.5,-0.5"/>
                </g>
        </g>
</svg>
