<?xml version="1.0" encoding="UTF-8" standalone="no"?>
<!DOCTYPE svg PUBLIC "-//W3C//DTD SVG 1.1//EN"
 "http://www.w3.org/Graphics/SVG/1.1/DTD/svg11.dtd">
<!-- Generated by graphviz version 2.26.3 (20100126.1600)
 -->
<!-- Title: G Pages: 1 -->
<svg width="367pt" height="204pt"
 viewBox="0.00 0.00 367.00 204.00" xmlns="http://www.w3.org/2000/svg" xmlns:xlink="http://www.w3.org/1999/xlink">
<g id="graph1" class="graph" transform="scale(1 1) rotate(0) translate(4 200)">
<title>G</title>
<polygon fill="white" stroke="white" points="-4,5 -4,-200 364,-200 364,5 -4,5"/>
<!-- Node1 -->
<g id="node1" class="node"><title>Node1</title>
<polygon fill="#bfbfbf" stroke="black" points="-0.5,-174.5 -0.5,-195.5 344.5,-195.5 344.5,-174.5 -0.5,-174.5"/>
<text text-anchor="middle" x="172" y="-182.5" font-family="Helvetica,sans-Serif" font-size="10.00">/home/aoi/Documents/FxOS/B2G/gaia/xulrunner&#45;sdk/include/mozmemory.h</text>
</g>
<!-- Node2 -->
<g id="node3" class="node"><title>Node2</title>
<a xlink:href="../../df/d0c/mozmemory__wrap_8h.html" target="_top" xlink:title="mozmemory_wrap.h">
<polygon fill="white" stroke="black" points="0.5,-116.5 0.5,-137.5 105.5,-137.5 105.5,-116.5 0.5,-116.5"/>
<text text-anchor="middle" x="53" y="-124.5" font-family="Helvetica,sans-Serif" font-size="10.00">mozmemory_wrap.h</text>
</a>
</g>
<!-- Node1&#45;&gt;Node2 -->
<g id="edge2" class="edge"><title>Node1&#45;&gt;Node2</title>
<path fill="none" stroke="midnightblue" d="M150.45,-174.497C131.864,-165.438 104.798,-152.246 83.9046,-142.063"/>
<polygon fill="midnightblue" stroke="midnightblue" points="85.3144,-138.856 74.7918,-137.621 82.2475,-145.149 85.3144,-138.856"/>
</g>
<!-- Node3 -->
<g id="node5" class="node"><title>Node3</title>
<a xlink:href="../../d9/dae/mozilla_2_types_8h.html" target="_top" xlink:title="mozilla/Types.h">
<polygon fill="white" stroke="black" points="49,-58.5 49,-79.5 135,-79.5 135,-58.5 49,-58.5"/>
<text text-anchor="middle" x="92" y="-66.5" font-family="Helvetica,sans-Serif" font-size="10.00">mozilla/Types.h</text>
</a>
</g>
<!-- Node1&#45;&gt;Node3 -->
<g id="edge14" class="edge"><title>Node1&#45;&gt;Node3</title>
<path fill="none" stroke="midnightblue" d="M164.617,-174.295C151.103,-154.7 122.221,-112.82 105.235,-88.1913"/>
<polygon fill="midnightblue" stroke="midnightblue" points="107.924,-85.9243 99.365,-79.6792 102.161,-89.8984 107.924,-85.9243"/>
</g>
<!-- Node6 -->
<g id="node11" class="node"><title>Node6</title>
<a xlink:href="../../d1/da8/_attributes_8h.html" target="_top" xlink:title="mozilla/Attributes.h">
<polygon fill="white" stroke="black" points="160.5,-116.5 160.5,-137.5 261.5,-137.5 261.5,-116.5 160.5,-116.5"/>
<text text-anchor="middle" x="211" y="-124.5" font-family="Helvetica,sans-Serif" font-size="10.00">mozilla/Attributes.h</text>
</a>
</g>
<!-- Node1&#45;&gt;Node6 -->
<g id="edge10" class="edge"><title>Node1&#45;&gt;Node6</title>
<path fill="none" stroke="midnightblue" d="M179.153,-174.362C184.486,-166.431 191.911,-155.389 198.251,-145.961"/>
<polygon fill="midnightblue" stroke="midnightblue" points="201.217,-147.822 203.892,-137.571 195.408,-143.916 201.217,-147.822"/>
</g>
<!-- Node8 -->
<g id="node16" class="node"><title>Node8</title>
<a xlink:href="../../d7/d87/jemalloc__types_8h.html" target="_top" xlink:title="jemalloc_types.h">
<polygon fill="white" stroke="black" points="269,-58.5 269,-79.5 359,-79.5 359,-58.5 269,-58.5"/>
<text text-anchor="middle" x="314" y="-66.5" font-family="Helvetica,sans-Serif" font-size="10.00">jemalloc_types.h</text>
</a>
</g>
<!-- Node1&#45;&gt;Node8 -->
<g id="edge16" class="edge"><title>Node1&#45;&gt;Node8</title>
<path fill="none" stroke="midnightblue" d="M205.123,-174.404C225.5,-166.681 251.218,-154.645 270,-138 285.378,-124.372 297.423,-104.12 304.994,-89.0778"/>
<polygon fill="midnightblue" stroke="midnightblue" points="308.35,-90.1735 309.506,-79.6419 302.034,-87.1536 308.35,-90.1735"/>
</g>
<!-- Node2&#45;&gt;Node3 -->
<g id="edge4" class="edge"><title>Node2&#45;&gt;Node3</title>
<path fill="none" stroke="midnightblue" d="M60.1532,-116.362C65.4858,-108.431 72.9112,-97.3885 79.2506,-87.9606"/>
<polygon fill="midnightblue" stroke="midnightblue" points="82.2166,-89.8221 84.8921,-79.5707 76.4077,-85.9161 82.2166,-89.8221"/>
</g>
<!-- Node4 -->
<g id="node7" class="node"><title>Node4</title>
<polygon fill="white" stroke="#bfbfbf" points="211,-0.5 211,-21.5 263,-21.5 263,-0.5 211,-0.5"/>
<text text-anchor="middle" x="237" y="-8.5" font-family="Helvetica,sans-Serif" font-size="10.00">stddef.h</text>
</g>
<!-- Node3&#45;&gt;Node4 -->
<g id="edge6" class="edge"><title>Node3&#45;&gt;Node4</title>
<path fill="none" stroke="midnightblue" d="M118.258,-58.4966C141.56,-49.1759 175.8,-35.4799 201.532,-25.1872"/>
<polygon fill="midnightblue" stroke="midnightblue" points="202.952,-28.3889 210.937,-21.4252 200.352,-21.8895 202.952,-28.3889"/>
</g>
<!-- Node5 -->
<g id="node9" class="node"><title>Node5</title>
<polygon fill="white" stroke="#bfbfbf" points="67.5,-0.5 67.5,-21.5 116.5,-21.5 116.5,-0.5 67.5,-0.5"/>
<text text-anchor="middle" x="92" y="-8.5" font-family="Helvetica,sans-Serif" font-size="10.00">stdint.h</text>
</g>
<!-- Node3&#45;&gt;Node5 -->
<g id="edge8" class="edge"><title>Node3&#45;&gt;Node5</title>
<path fill="none" stroke="midnightblue" d="M92,-58.3619C92,-50.9219 92,-40.7427 92,-31.7276"/>
<polygon fill="midnightblue" stroke="midnightblue" points="95.5001,-31.5706 92,-21.5707 88.5001,-31.5707 95.5001,-31.5706"/>
</g>
<!-- Node7 -->
<g id="node13" class="node"><title>Node7</title>
<a xlink:href="../../da/da7/_compiler_8h.html" target="_top" xlink:title="mozilla/Compiler.h">
<polygon fill="white" stroke="black" points="153,-58.5 153,-79.5 251,-79.5 251,-58.5 153,-58.5"/>
<text text-anchor="middle" x="202" y="-66.5" font-family="Helvetica,sans-Serif" font-size="10.00">mozilla/Compiler.h</text>
</a>
</g>
<!-- Node6&#45;&gt;Node7 -->
<g id="edge12" class="edge"><title>Node6&#45;&gt;Node7</title>
<path fill="none" stroke="midnightblue" d="M209.349,-116.362C208.195,-108.922 206.615,-98.7427 205.216,-89.7276"/>
<polygon fill="midnightblue" stroke="midnightblue" points="208.632,-88.9157 203.64,-79.5707 201.715,-89.9891 208.632,-88.9157"/>
</g>
<!-- Node8&#45;&gt;Node4 -->
<g id="edge18" class="edge"><title>Node8&#45;&gt;Node4</title>
<path fill="none" stroke="midnightblue" d="M299.877,-58.3619C288.48,-49.7773 272.242,-37.5459 259.122,-27.6636"/>
<polygon fill="midnightblue" stroke="midnightblue" points="261.127,-24.7916 251.033,-21.5707 256.915,-30.3829 261.127,-24.7916"/>
</g>
</g>
</svg>
