<?xml version="1.0" encoding="UTF-8" standalone="no"?>
<!DOCTYPE svg PUBLIC "-//W3C//DTD SVG 1.1//EN"
 "http://www.w3.org/Graphics/SVG/1.1/DTD/svg11.dtd">
<!-- Generated by graphviz version 2.26.3 (20100126.1600)
 -->
<!-- Title: G Pages: 1 -->
<!--zoomable 494 -->
<svg id="main" version="1.1" xmlns="http://www.w3.org/2000/svg" xmlns:xlink="http://www.w3.org/1999/xlink" xml:space="preserve" onload="init(evt)">
        <defs>
                <circle id="rim" cx="0" cy="0" r="7"/>
                <circle id="rim2" cx="0" cy="0" r="3.5"/>
                <g id="zoomPlus">
                        <use xlink:href="#rim" fill="#404040">
                                <set attributeName="fill" to="#808080" begin="zoomplus.mouseover" end="zoomplus.mouseout"/>
                        </use>
                        <path d="M-4,0h8M0,-4v8" fill="none" stroke="white" stroke-width="1.5" pointer-events="none"/>
                </g>
                <g id="zoomMin">
                        <use xlink:href="#rim" fill="#404040">
                                <set attributeName="fill" to="#808080" begin="zoomminus.mouseover" end="zoomminus.mouseout"/>
                        </use>
                        <path d="M-4,0h8" fill="none" stroke="white" stroke-width="1.5" pointer-events="none"/>
                </g>
                <g id="dirArrow">
                        <path fill="none" stroke="white" stroke-width="1.5" d="M0,-3.0v7 M-2.5,-0.5L0,-3.0L2.5,-0.5"/>
                </g>
               <g id="resetDef">
                       <use xlink:href="#rim2" fill="#404040">
                               <set attributeName="fill" to="#808080" begin="reset.mouseover" end="reset.mouseout"/>
                       </use>
               </g>
        </defs>

<script type="text/javascript">
var viewWidth = 514;
var viewHeight = 494;
var sectionId = 'dynsection-0';
</script>
<script xlink:href="../../svgpan.js"/>
<svg id="graph" class="graph">
<g id="viewport">
<title>G</title>
<polygon fill="white" stroke="white" points="-4,5 -4,-490 511,-490 511,5 -4,5"/>
<!-- Node1 -->
<g id="node1" class="node"><title>Node1</title>
<polygon fill="#bfbfbf" stroke="black" points="27,-464.5 27,-485.5 371,-485.5 371,-464.5 27,-464.5"/>
<text text-anchor="middle" x="199" y="-472.5" font-family="Helvetica,sans-Serif" font-size="10.00">/home/aoi/Documents/FxOS/B2G/gaia/xulrunner&#45;sdk/include/skia/GrRect.h</text>
</g>
<!-- Node2 -->
<g id="node3" class="node"><title>Node2</title>
<a xlink:href="../../d5/d2b/_gr_point_8h.html" target="_top" xlink:title="GrPoint.h">
<polygon fill="white" stroke="black" points="132,-406.5 132,-427.5 190,-427.5 190,-406.5 132,-406.5"/>
<text text-anchor="middle" x="161" y="-414.5" font-family="Helvetica,sans-Serif" font-size="10.00">GrPoint.h</text>
</a>
</g>
<!-- Node1&#45;&gt;Node2 -->
<g id="edge2" class="edge"><title>Node1&#45;&gt;Node2</title>
<path fill="none" stroke="midnightblue" d="M192.03,-464.362C186.834,-456.431 179.599,-445.389 173.422,-435.961"/>
<polygon fill="midnightblue" stroke="midnightblue" points="176.334,-434.017 167.926,-427.571 170.478,-437.853 176.334,-434.017"/>
</g>
<!-- Node22 -->
<g id="node52" class="node"><title>Node22</title>
<a xlink:href="../../df/d14/_sk_rect_8h.html" target="_top" xlink:title="SkRect.h">
<polygon fill="white" stroke="black" points="208,-406.5 208,-427.5 266,-427.5 266,-406.5 208,-406.5"/>
<text text-anchor="middle" x="237" y="-414.5" font-family="Helvetica,sans-Serif" font-size="10.00">SkRect.h</text>
</a>
</g>
<!-- Node1&#45;&gt;Node22 -->
<g id="edge60" class="edge"><title>Node1&#45;&gt;Node22</title>
<path fill="none" stroke="midnightblue" d="M205.97,-464.362C211.166,-456.431 218.401,-445.389 224.578,-435.961"/>
<polygon fill="midnightblue" stroke="midnightblue" points="227.522,-437.853 230.074,-427.571 221.666,-434.017 227.522,-437.853"/>
</g>
<!-- Node3 -->
<g id="node5" class="node"><title>Node3</title>
<a xlink:href="../../d8/de6/_gr_types_8h.html" target="_top" xlink:title="GrTypes.h">
<polygon fill="white" stroke="black" points="92,-232.5 92,-253.5 154,-253.5 154,-232.5 92,-232.5"/>
<text text-anchor="middle" x="123" y="-240.5" font-family="Helvetica,sans-Serif" font-size="10.00">GrTypes.h</text>
</a>
</g>
<!-- Node2&#45;&gt;Node3 -->
<g id="edge4" class="edge"><title>Node2&#45;&gt;Node3</title>
<path fill="none" stroke="midnightblue" d="M158.68,-406.377C152.52,-378.172 135.669,-301.012 127.525,-263.72"/>
<polygon fill="midnightblue" stroke="midnightblue" points="130.94,-262.951 125.387,-253.928 124.101,-264.444 130.94,-262.951"/>
</g>
<!-- Node15 -->
<g id="node33" class="node"><title>Node15</title>
<a xlink:href="../../d5/d8a/_sk_scalar_8h.html" target="_top" xlink:title="SkScalar.h">
<polygon fill="white" stroke="black" points="209.5,-290.5 209.5,-311.5 274.5,-311.5 274.5,-290.5 209.5,-290.5"/>
<text text-anchor="middle" x="242" y="-298.5" font-family="Helvetica,sans-Serif" font-size="10.00">SkScalar.h</text>
</a>
</g>
<!-- Node2&#45;&gt;Node15 -->
<g id="edge36" class="edge"><title>Node2&#45;&gt;Node15</title>
<path fill="none" stroke="midnightblue" d="M161.813,-406.301C163.354,-391.929 167.735,-366.105 180,-348 188.452,-335.524 201.312,-324.996 213.133,-317.088"/>
<polygon fill="midnightblue" stroke="midnightblue" points="215.295,-319.862 221.879,-311.562 211.556,-313.944 215.295,-319.862"/>
</g>
<!-- Node21 -->
<g id="node48" class="node"><title>Node21</title>
<a xlink:href="../../dc/d8c/_sk_point_8h.html" target="_top" xlink:title="SkPoint.h">
<polygon fill="white" stroke="black" points="188.5,-348.5 188.5,-369.5 247.5,-369.5 247.5,-348.5 188.5,-348.5"/>
<text text-anchor="middle" x="218" y="-356.5" font-family="Helvetica,sans-Serif" font-size="10.00">SkPoint.h</text>
</a>
</g>
<!-- Node2&#45;&gt;Node21 -->
<g id="edge54" class="edge"><title>Node2&#45;&gt;Node21</title>
<path fill="none" stroke="midnightblue" d="M171.455,-406.362C179.57,-398.104 191.001,-386.472 200.504,-376.803"/>
<polygon fill="midnightblue" stroke="midnightblue" points="203.099,-379.156 207.612,-369.571 198.106,-374.25 203.099,-379.156"/>
</g>
<!-- Node4 -->
<g id="node7" class="node"><title>Node4</title>
<a xlink:href="../../d3/d36/_sk_types_8h.html" target="_top" xlink:title="SkTypes.h">
<polygon fill="white" stroke="black" points="178,-116.5 178,-137.5 242,-137.5 242,-116.5 178,-116.5"/>
<text text-anchor="middle" x="210" y="-124.5" font-family="Helvetica,sans-Serif" font-size="10.00">SkTypes.h</text>
</a>
</g>
<!-- Node3&#45;&gt;Node4 -->
<g id="edge6" class="edge"><title>Node3&#45;&gt;Node4</title>
<path fill="none" stroke="midnightblue" d="M123.899,-232.228C125.569,-217.774 130.235,-191.858 143,-174 152.175,-161.164 165.997,-150.62 178.709,-142.795"/>
<polygon fill="midnightblue" stroke="midnightblue" points="180.794,-145.632 187.686,-137.584 177.28,-139.578 180.794,-145.632"/>
</g>
<!-- Node12 -->
<g id="node24" class="node"><title>Node12</title>
<a xlink:href="../../dd/d22/_gr_config_8h.html" target="_top" xlink:title="GrConfig.h">
<polygon fill="white" stroke="black" points="32,-174.5 32,-195.5 96,-195.5 96,-174.5 32,-174.5"/>
<text text-anchor="middle" x="64" y="-182.5" font-family="Helvetica,sans-Serif" font-size="10.00">GrConfig.h</text>
</a>
</g>
<!-- Node3&#45;&gt;Node12 -->
<g id="edge24" class="edge"><title>Node3&#45;&gt;Node12</title>
<path fill="none" stroke="midnightblue" d="M112.178,-232.362C103.779,-224.104 91.9462,-212.472 82.1098,-202.803"/>
<polygon fill="midnightblue" stroke="midnightblue" points="84.3378,-200.085 74.7529,-195.571 79.4305,-205.077 84.3378,-200.085"/>
</g>
<!-- Node14 -->
<g id="node30" class="node"><title>Node14</title>
<a xlink:href="../../d9/df0/_sk_math_8h.html" target="_top" xlink:title="SkMath.h">
<polygon fill="white" stroke="black" points="151.5,-174.5 151.5,-195.5 210.5,-195.5 210.5,-174.5 151.5,-174.5"/>
<text text-anchor="middle" x="181" y="-182.5" font-family="Helvetica,sans-Serif" font-size="10.00">SkMath.h</text>
</a>
</g>
<!-- Node3&#45;&gt;Node14 -->
<g id="edge32" class="edge"><title>Node3&#45;&gt;Node14</title>
<path fill="none" stroke="midnightblue" d="M133.638,-232.362C141.896,-224.104 153.528,-212.472 163.197,-202.803"/>
<polygon fill="midnightblue" stroke="midnightblue" points="165.833,-205.117 170.429,-195.571 160.883,-200.167 165.833,-205.117"/>
</g>
<!-- Node5 -->
<g id="node9" class="node"><title>Node5</title>
<a xlink:href="../../da/dc5/_sk_pre_config_8h.html" target="_top" xlink:title="SkPreConfig.h">
<polygon fill="white" stroke="black" points="170,-58.5 170,-79.5 250,-79.5 250,-58.5 170,-58.5"/>
<text text-anchor="middle" x="210" y="-66.5" font-family="Helvetica,sans-Serif" font-size="10.00">SkPreConfig.h</text>
</a>
</g>
<!-- Node4&#45;&gt;Node5 -->
<g id="edge8" class="edge"><title>Node4&#45;&gt;Node5</title>
<path fill="none" stroke="midnightblue" d="M210,-116.362C210,-108.922 210,-98.7427 210,-89.7276"/>
<polygon fill="midnightblue" stroke="midnightblue" points="213.5,-89.5706 210,-79.5707 206.5,-89.5707 213.5,-89.5706"/>
</g>
<!-- Node6 -->
<g id="node11" class="node"><title>Node6</title>
<a xlink:href="../../d8/d2f/_sk_user_config_8h.html" target="_top" xlink:title="SkUserConfig.h">
<polygon fill="white" stroke="black" points="268,-58.5 268,-79.5 354,-79.5 354,-58.5 268,-58.5"/>
<text text-anchor="middle" x="311" y="-66.5" font-family="Helvetica,sans-Serif" font-size="10.00">SkUserConfig.h</text>
</a>
</g>
<!-- Node4&#45;&gt;Node6 -->
<g id="edge10" class="edge"><title>Node4&#45;&gt;Node6</title>
<path fill="none" stroke="midnightblue" d="M228.525,-116.362C243.901,-107.532 265.996,-94.844 283.447,-84.8224"/>
<polygon fill="midnightblue" stroke="midnightblue" points="285.664,-87.5857 292.592,-79.5707 282.178,-81.5154 285.664,-87.5857"/>
</g>
<!-- Node7 -->
<g id="node13" class="node"><title>Node7</title>
<a xlink:href="../../d8/d35/_sk_post_config_8h.html" target="_top" xlink:title="SkPostConfig.h">
<polygon fill="white" stroke="black" points="66,-58.5 66,-79.5 152,-79.5 152,-58.5 66,-58.5"/>
<text text-anchor="middle" x="109" y="-66.5" font-family="Helvetica,sans-Serif" font-size="10.00">SkPostConfig.h</text>
</a>
</g>
<!-- Node4&#45;&gt;Node7 -->
<g id="edge12" class="edge"><title>Node4&#45;&gt;Node7</title>
<path fill="none" stroke="midnightblue" d="M191.475,-116.362C176.099,-107.532 154.004,-94.844 136.553,-84.8224"/>
<polygon fill="midnightblue" stroke="midnightblue" points="137.822,-81.5154 127.408,-79.5707 134.336,-87.5857 137.822,-81.5154"/>
</g>
<!-- Node8 -->
<g id="node15" class="node"><title>Node8</title>
<polygon fill="white" stroke="#bfbfbf" points="271,-0.5 271,-21.5 317,-21.5 317,-0.5 271,-0.5"/>
<text text-anchor="middle" x="294" y="-8.5" font-family="Helvetica,sans-Serif" font-size="10.00">stdio.h</text>
</g>
<!-- Node4&#45;&gt;Node8 -->
<g id="edge22" class="edge"><title>Node4&#45;&gt;Node8</title>
<path fill="none" stroke="midnightblue" d="M242.266,-121.671C282.737,-114.253 348.592,-99.4988 363,-80 378.355,-59.2198 350.924,-38.7093 326.237,-25.5228"/>
<polygon fill="midnightblue" stroke="midnightblue" points="327.507,-22.2425 317.005,-20.8422 324.341,-28.4859 327.507,-22.2425"/>
</g>
<!-- Node11 -->
<g id="node21" class="node"><title>Node11</title>
<polygon fill="white" stroke="#bfbfbf" points="-0.5,-58.5 -0.5,-79.5 48.5,-79.5 48.5,-58.5 -0.5,-58.5"/>
<text text-anchor="middle" x="24" y="-66.5" font-family="Helvetica,sans-Serif" font-size="10.00">stdint.h</text>
</g>
<!-- Node4&#45;&gt;Node11 -->
<g id="edge20" class="edge"><title>Node4&#45;&gt;Node11</title>
<path fill="none" stroke="midnightblue" d="M177.99,-117.408C148.985,-108.663 104.836,-95.2211 58.4584,-80.4276"/>
<polygon fill="midnightblue" stroke="midnightblue" points="59.4365,-77.0659 48.8456,-77.3519 57.3033,-83.7329 59.4365,-77.0659"/>
</g>
<!-- Node7&#45;&gt;Node8 -->
<g id="edge14" class="edge"><title>Node7&#45;&gt;Node8</title>
<path fill="none" stroke="midnightblue" d="M142.502,-58.4966C176.19,-47.9351 227.795,-31.7561 261.223,-21.276"/>
<polygon fill="midnightblue" stroke="midnightblue" points="262.479,-24.5505 270.974,-18.2191 260.384,-17.871 262.479,-24.5505"/>
</g>
<!-- Node9 -->
<g id="node17" class="node"><title>Node9</title>
<polygon fill="white" stroke="#bfbfbf" points="51.5,-0.5 51.5,-21.5 100.5,-21.5 100.5,-0.5 51.5,-0.5"/>
<text text-anchor="middle" x="76" y="-8.5" font-family="Helvetica,sans-Serif" font-size="10.00">string.h</text>
</g>
<!-- Node7&#45;&gt;Node9 -->
<g id="edge16" class="edge"><title>Node7&#45;&gt;Node9</title>
<path fill="none" stroke="midnightblue" d="M102.947,-58.3619C98.5281,-50.5949 92.4104,-39.8426 87.1209,-30.5458"/>
<polygon fill="midnightblue" stroke="midnightblue" points="90.0017,-28.5315 82.0143,-21.5707 83.9176,-31.9932 90.0017,-28.5315"/>
</g>
<!-- Node10 -->
<g id="node19" class="node"><title>Node10</title>
<polygon fill="white" stroke="#bfbfbf" points="118,-0.5 118,-21.5 166,-21.5 166,-0.5 118,-0.5"/>
<text text-anchor="middle" x="142" y="-8.5" font-family="Helvetica,sans-Serif" font-size="10.00">stdlib.h</text>
</g>
<!-- Node7&#45;&gt;Node10 -->
<g id="edge18" class="edge"><title>Node7&#45;&gt;Node10</title>
<path fill="none" stroke="midnightblue" d="M115.053,-58.3619C119.472,-50.5949 125.59,-39.8426 130.879,-30.5458"/>
<polygon fill="midnightblue" stroke="midnightblue" points="134.082,-31.9932 135.986,-21.5707 127.998,-28.5315 134.082,-31.9932"/>
</g>
<!-- Node12&#45;&gt;Node4 -->
<g id="edge26" class="edge"><title>Node12&#45;&gt;Node4</title>
<path fill="none" stroke="midnightblue" d="M90.4395,-174.497C113.756,-165.234 147.95,-151.65 173.804,-141.379"/>
<polygon fill="midnightblue" stroke="midnightblue" points="175.263,-144.566 183.264,-137.621 172.678,-138.06 175.263,-144.566"/>
</g>
<!-- Node12&#45;&gt;Node11 -->
<g id="edge28" class="edge"><title>Node12&#45;&gt;Node11</title>
<path fill="none" stroke="midnightblue" d="M58.6897,-174.363C54.1304,-164.958 47.5872,-150.787 43,-138 37.3057,-122.127 32.3089,-103.691 28.8705,-89.8711"/>
<polygon fill="midnightblue" stroke="midnightblue" points="32.2154,-88.8119 26.4636,-79.9143 25.4114,-90.4567 32.2154,-88.8119"/>
</g>
<!-- Node13 -->
<g id="node28" class="node"><title>Node13</title>
<a xlink:href="../../dc/dc1/_gr_user_config_8h.html" target="_top" xlink:title="GrUserConfig.h">
<polygon fill="white" stroke="black" points="51.5,-116.5 51.5,-137.5 136.5,-137.5 136.5,-116.5 51.5,-116.5"/>
<text text-anchor="middle" x="94" y="-124.5" font-family="Helvetica,sans-Serif" font-size="10.00">GrUserConfig.h</text>
</a>
</g>
<!-- Node12&#45;&gt;Node13 -->
<g id="edge30" class="edge"><title>Node12&#45;&gt;Node13</title>
<path fill="none" stroke="midnightblue" d="M69.5025,-174.362C73.5199,-166.595 79.0814,-155.843 83.8901,-146.546"/>
<polygon fill="midnightblue" stroke="midnightblue" points="87.0469,-148.061 88.5324,-137.571 80.8294,-144.845 87.0469,-148.061"/>
</g>
<!-- Node14&#45;&gt;Node4 -->
<g id="edge34" class="edge"><title>Node14&#45;&gt;Node4</title>
<path fill="none" stroke="midnightblue" d="M186.319,-174.362C190.203,-166.595 195.579,-155.843 200.227,-146.546"/>
<polygon fill="midnightblue" stroke="midnightblue" points="203.373,-148.08 204.715,-137.571 197.112,-144.95 203.373,-148.08"/>
</g>
<!-- Node16 -->
<g id="node35" class="node"><title>Node16</title>
<a xlink:href="../../d0/df6/_sk_fixed_8h.html" target="_top" xlink:title="SkFixed.h">
<polygon fill="white" stroke="black" points="210.5,-232.5 210.5,-253.5 271.5,-253.5 271.5,-232.5 210.5,-232.5"/>
<text text-anchor="middle" x="241" y="-240.5" font-family="Helvetica,sans-Serif" font-size="10.00">SkFixed.h</text>
</a>
</g>
<!-- Node15&#45;&gt;Node16 -->
<g id="edge38" class="edge"><title>Node15&#45;&gt;Node16</title>
<path fill="none" stroke="midnightblue" d="M241.817,-290.362C241.688,-282.922 241.513,-272.743 241.357,-263.728"/>
<polygon fill="midnightblue" stroke="midnightblue" points="244.854,-263.509 241.182,-253.571 237.855,-263.63 244.854,-263.509"/>
</g>
<!-- Node17 -->
<g id="node38" class="node"><title>Node17</title>
<a xlink:href="../../df/dd6/_sk_floating_point_8h.html" target="_top" xlink:title="SkFloatingPoint.h">
<polygon fill="white" stroke="black" points="305,-232.5 305,-253.5 399,-253.5 399,-232.5 305,-232.5"/>
<text text-anchor="middle" x="352" y="-240.5" font-family="Helvetica,sans-Serif" font-size="10.00">SkFloatingPoint.h</text>
</a>
</g>
<!-- Node15&#45;&gt;Node17 -->
<g id="edge42" class="edge"><title>Node15&#45;&gt;Node17</title>
<path fill="none" stroke="midnightblue" d="M261.92,-290.497C278.946,-281.519 303.669,-268.484 322.909,-258.339"/>
<polygon fill="midnightblue" stroke="midnightblue" points="324.643,-261.381 331.856,-253.621 321.378,-255.189 324.643,-261.381"/>
</g>
<!-- Node16&#45;&gt;Node4 -->
<g id="edge40" class="edge"><title>Node16&#45;&gt;Node4</title>
<path fill="none" stroke="midnightblue" d="M238.139,-232.295C232.995,-213.045 222.103,-172.289 215.481,-147.509"/>
<polygon fill="midnightblue" stroke="midnightblue" points="218.817,-146.437 212.854,-137.679 212.054,-148.244 218.817,-146.437"/>
</g>
<!-- Node17&#45;&gt;Node4 -->
<g id="edge44" class="edge"><title>Node17&#45;&gt;Node4</title>
<path fill="none" stroke="midnightblue" d="M363.303,-232.376C377.122,-218.089 397.039,-192.362 383,-174 367.183,-153.312 298.121,-139.588 252.183,-132.563"/>
<polygon fill="midnightblue" stroke="midnightblue" points="252.595,-129.086 242.19,-131.084 251.57,-136.01 252.595,-129.086"/>
</g>
<!-- Node18 -->
<g id="node41" class="node"><title>Node18</title>
<polygon fill="white" stroke="#bfbfbf" points="265.5,-174.5 265.5,-195.5 312.5,-195.5 312.5,-174.5 265.5,-174.5"/>
<text text-anchor="middle" x="289" y="-182.5" font-family="Helvetica,sans-Serif" font-size="10.00">math.h</text>
</g>
<!-- Node17&#45;&gt;Node18 -->
<g id="edge46" class="edge"><title>Node17&#45;&gt;Node18</title>
<path fill="none" stroke="midnightblue" d="M340.445,-232.362C331.387,-224.023 318.59,-212.242 308.026,-202.516"/>
<polygon fill="midnightblue" stroke="midnightblue" points="310.21,-199.769 300.482,-195.571 305.468,-204.919 310.21,-199.769"/>
</g>
<!-- Node19 -->
<g id="node43" class="node"><title>Node19</title>
<polygon fill="white" stroke="#bfbfbf" points="330,-174.5 330,-195.5 374,-195.5 374,-174.5 330,-174.5"/>
<text text-anchor="middle" x="352" y="-182.5" font-family="Helvetica,sans-Serif" font-size="10.00">float.h</text>
</g>
<!-- Node17&#45;&gt;Node19 -->
<g id="edge48" class="edge"><title>Node17&#45;&gt;Node19</title>
<path fill="none" stroke="midnightblue" d="M352,-232.362C352,-224.922 352,-214.743 352,-205.728"/>
<polygon fill="midnightblue" stroke="midnightblue" points="355.5,-205.571 352,-195.571 348.5,-205.571 355.5,-205.571"/>
</g>
<!-- Node20 -->
<g id="node45" class="node"><title>Node20</title>
<a xlink:href="../../de/d2c/_sk_float_bits_8h.html" target="_top" xlink:title="SkFloatBits.h">
<polygon fill="white" stroke="black" points="430,-174.5 430,-195.5 506,-195.5 506,-174.5 430,-174.5"/>
<text text-anchor="middle" x="468" y="-182.5" font-family="Helvetica,sans-Serif" font-size="10.00">SkFloatBits.h</text>
</a>
</g>
<!-- Node17&#45;&gt;Node20 -->
<g id="edge50" class="edge"><title>Node17&#45;&gt;Node20</title>
<path fill="none" stroke="midnightblue" d="M373.007,-232.497C391.043,-223.479 417.27,-210.365 437.599,-200.201"/>
<polygon fill="midnightblue" stroke="midnightblue" points="439.379,-203.224 446.758,-195.621 436.248,-196.963 439.379,-203.224"/>
</g>
<!-- Node20&#45;&gt;Node4 -->
<g id="edge52" class="edge"><title>Node20&#45;&gt;Node4</title>
<path fill="none" stroke="midnightblue" d="M429.931,-176.442C382.428,-165.763 301.455,-147.56 252.131,-136.471"/>
<polygon fill="midnightblue" stroke="midnightblue" points="252.634,-132.997 242.11,-134.218 251.098,-139.827 252.634,-132.997"/>
</g>
<!-- Node21&#45;&gt;Node14 -->
<g id="edge56" class="edge"><title>Node21&#45;&gt;Node14</title>
<path fill="none" stroke="midnightblue" d="M213.489,-348.356C209.661,-338.948 204.284,-324.774 201,-312 191.554,-275.257 185.835,-231.321 183.058,-205.94"/>
<polygon fill="midnightblue" stroke="midnightblue" points="186.506,-205.259 181.986,-195.676 179.544,-205.986 186.506,-205.259"/>
</g>
<!-- Node21&#45;&gt;Node15 -->
<g id="edge58" class="edge"><title>Node21&#45;&gt;Node15</title>
<path fill="none" stroke="midnightblue" d="M222.402,-348.362C225.582,-340.677 229.972,-330.069 233.79,-320.84"/>
<polygon fill="midnightblue" stroke="midnightblue" points="237.036,-322.149 237.626,-311.571 230.568,-319.473 237.036,-322.149"/>
</g>
<!-- Node22&#45;&gt;Node21 -->
<g id="edge62" class="edge"><title>Node22&#45;&gt;Node21</title>
<path fill="none" stroke="midnightblue" d="M233.515,-406.362C231.024,-398.758 227.596,-388.294 224.596,-379.135"/>
<polygon fill="midnightblue" stroke="midnightblue" points="227.902,-377.984 221.463,-369.571 221.25,-380.163 227.902,-377.984"/>
</g>
<!-- Node23 -->
<g id="node55" class="node"><title>Node23</title>
<a xlink:href="../../d9/d2c/_sk_size_8h.html" target="_top" xlink:title="SkSize.h">
<polygon fill="white" stroke="black" points="265,-348.5 265,-369.5 321,-369.5 321,-348.5 265,-348.5"/>
<text text-anchor="middle" x="293" y="-356.5" font-family="Helvetica,sans-Serif" font-size="10.00">SkSize.h</text>
</a>
</g>
<!-- Node22&#45;&gt;Node23 -->
<g id="edge64" class="edge"><title>Node22&#45;&gt;Node23</title>
<path fill="none" stroke="midnightblue" d="M247.271,-406.362C255.244,-398.104 266.475,-386.472 275.811,-376.803"/>
<polygon fill="midnightblue" stroke="midnightblue" points="278.366,-379.196 282.794,-369.571 273.33,-374.334 278.366,-379.196"/>
</g>
<!-- Node23&#45;&gt;Node15 -->
<g id="edge66" class="edge"><title>Node23&#45;&gt;Node15</title>
<path fill="none" stroke="midnightblue" d="M283.646,-348.362C276.457,-340.186 266.359,-328.702 257.907,-319.091"/>
<polygon fill="midnightblue" stroke="midnightblue" points="260.527,-316.769 251.295,-311.571 255.27,-321.392 260.527,-316.769"/>
</g>
</g>
</svg>
        <g id="navigator" transform="translate(0 0)" fill="#404254">
                <rect fill="#f2f5e9" fill-opacity="0.5" stroke="#606060" stroke-width=".5" x="0" y="0" width="60" height="60"/>
                <use id="zoomplus" xlink:href="#zoomPlus" x="17" y="9" onmousedown="handleZoom(evt,'in')"/>
                <use id="zoomminus" xlink:href="#zoomMin" x="42" y="9" onmousedown="handleZoom(evt,'out')"/>
                <use id="reset" xlink:href="#resetDef" x="30" y="36" onmousedown="handleReset()"/>
                <g id="arrowUp" xlink:href="#dirArrow" transform="translate(30 24)" onmousedown="handlePan(0,-1)">
                  <use xlink:href="#rim" fill="#404040">
                        <set attributeName="fill" to="#808080" begin="arrowUp.mouseover" end="arrowUp.mouseout"/>
                  </use>
                  <path fill="none" stroke="white" stroke-width="1.5" d="M0,-3.0v7 M-2.5,-0.5L0,-3.0L2.5,-0.5"/>
                </g>
                <g id="arrowRight" xlink:href="#dirArrow" transform="rotate(90) translate(36 -43)" onmousedown="handlePan(1,0)">
                  <use xlink:href="#rim" fill="#404040">
                        <set attributeName="fill" to="#808080" begin="arrowRight.mouseover" end="arrowRight.mouseout"/>
                  </use>
                  <path fill="none" stroke="white" stroke-width="1.5" d="M0,-3.0v7 M-2.5,-0.5L0,-3.0L2.5,-0.5"/>
                </g>
                <g id="arrowDown" xlink:href="#dirArrow" transform="rotate(180) translate(-30 -48)" onmousedown="handlePan(0,1)">
                  <use xlink:href="#rim" fill="#404040">
                        <set attributeName="fill" to="#808080" begin="arrowDown.mouseover" end="arrowDown.mouseout"/>
                  </use>
                  <path fill="none" stroke="white" stroke-width="1.5" d="M0,-3.0v7 M-2.5,-0.5L0,-3.0L2.5,-0.5"/>
                </g>
                <g id="arrowLeft" xlink:href="#dirArrow" transform="rotate(270) translate(-36 17)" onmousedown="handlePan(-1,0)">
                  <use xlink:href="#rim" fill="#404040">
                        <set attributeName="fill" to="#808080" begin="arrowLeft.mouseover" end="arrowLeft.mouseout"/>
                  </use>
                  <path fill="none" stroke="white" stroke-width="1.5" d="M0,-3.0v7 M-2.5,-0.5L0,-3.0L2.5,-0.5"/>
                </g>
        </g>
</svg>
