<?xml version="1.0" encoding="UTF-8" standalone="no"?>
<!DOCTYPE svg PUBLIC "-//W3C//DTD SVG 1.1//EN"
 "http://www.w3.org/Graphics/SVG/1.1/DTD/svg11.dtd">
<!-- Generated by graphviz version 2.26.3 (20100126.1600)
 -->
<!-- Title: G Pages: 1 -->
<svg width="480pt" height="70pt"
 viewBox="0.00 0.00 480.00 70.00" xmlns="http://www.w3.org/2000/svg" xmlns:xlink="http://www.w3.org/1999/xlink">
<g id="graph1" class="graph" transform="scale(1 1) rotate(0) translate(4 66)">
<title>G</title>
<polygon fill="white" stroke="white" points="-4,5 -4,-66 477,-66 477,5 -4,5"/>
<!-- Node1 -->
<g id="node1" class="node"><title>Node1</title>
<polygon fill="#bfbfbf" stroke="black" points="0.5,-20.5 0.5,-41.5 221.5,-41.5 221.5,-20.5 0.5,-20.5"/>
<text text-anchor="middle" x="111" y="-28.5" font-family="Helvetica,sans-Serif" font-size="10.00">nsIHTMLCollection::GetWrapperPreserveColor</text>
</g>
<!-- Node2 -->
<g id="node3" class="node"><title>Node2</title>
<a xlink:href="../../da/d0a/ns_i_x_p_c_scriptable_8idl.html#aa4f78e380eabb13ae05feb33602d6525" target="_top" xlink:title="CallQueryInterface">
<polygon fill="white" stroke="black" points="316,-40.5 316,-61.5 414,-61.5 414,-40.5 316,-40.5"/>
<text text-anchor="middle" x="365" y="-48.5" font-family="Helvetica,sans-Serif" font-size="10.00">CallQueryInterface</text>
</a>
</g>
<!-- Node1&#45;&gt;Node2 -->
<g id="edge2" class="edge"><title>Node1&#45;&gt;Node2</title>
<path fill="none" stroke="midnightblue" d="M221.669,-39.7141C250.574,-41.9901 280.626,-44.3564 305.702,-46.3309"/>
<polygon fill="midnightblue" stroke="midnightblue" points="305.524,-49.8276 315.767,-47.1234 306.073,-42.8492 305.524,-49.8276"/>
</g>
<!-- Node3 -->
<g id="node5" class="node"><title>Node3</title>
<a xlink:href="../../d0/d7e/classns_wrapper_cache.html#a24257e00a4edba7e58cef8dbfd1cecef" target="_top" xlink:title="nsWrapperCache::GetWrapperPreserveColor">
<polygon fill="white" stroke="black" points="258.5,-0.5 258.5,-21.5 471.5,-21.5 471.5,-0.5 258.5,-0.5"/>
<text text-anchor="middle" x="365" y="-8.5" font-family="Helvetica,sans-Serif" font-size="10.00">nsWrapperCache::GetWrapperPreserveColor</text>
</a>
</g>
<!-- Node1&#45;&gt;Node3 -->
<g id="edge4" class="edge"><title>Node1&#45;&gt;Node3</title>
<path fill="none" stroke="midnightblue" d="M221.669,-22.2859C230.508,-21.5899 239.455,-20.8855 248.333,-20.1864"/>
<polygon fill="midnightblue" stroke="midnightblue" points="248.625,-23.6743 258.319,-19.4001 248.075,-16.6959 248.625,-23.6743"/>
</g>
</g>
</svg>
