<?xml version="1.0" encoding="UTF-8" standalone="no"?>
<!DOCTYPE svg PUBLIC "-//W3C//DTD SVG 1.1//EN"
 "http://www.w3.org/Graphics/SVG/1.1/DTD/svg11.dtd">
<!-- Generated by graphviz version 2.26.3 (20100126.1600)
 -->
<!-- Title: G Pages: 1 -->
<svg width="350pt" height="70pt"
 viewBox="0.00 0.00 350.00 70.00" xmlns="http://www.w3.org/2000/svg" xmlns:xlink="http://www.w3.org/1999/xlink">
<g id="graph1" class="graph" transform="scale(1 1) rotate(0) translate(4 66)">
<title>G</title>
<polygon fill="white" stroke="white" points="-4,5 -4,-66 347,-66 347,5 -4,5"/>
<!-- Node1 -->
<g id="node1" class="node"><title>Node1</title>
<polygon fill="#bfbfbf" stroke="black" points="0.5,-20.5 0.5,-41.5 193.5,-41.5 193.5,-20.5 0.5,-20.5"/>
<text text-anchor="middle" x="97" y="-28.5" font-family="Helvetica,sans-Serif" font-size="10.00">IPC::ParamTraits&lt; nsHttpAtom &gt;::Read</text>
</g>
<!-- Node2 -->
<g id="node3" class="node"><title>Node2</title>
<a xlink:href="../../d1/de6/structns_http_atom.html#ab5d779d9d02a8eb296d9f4585c39f4e4" target="_top" xlink:title="nsHttpAtom::get">
<polygon fill="white" stroke="black" points="241.5,-40.5 241.5,-61.5 330.5,-61.5 330.5,-40.5 241.5,-40.5"/>
<text text-anchor="middle" x="286" y="-48.5" font-family="Helvetica,sans-Serif" font-size="10.00">nsHttpAtom::get</text>
</a>
</g>
<!-- Node1&#45;&gt;Node2 -->
<g id="edge2" class="edge"><title>Node1&#45;&gt;Node2</title>
<path fill="none" stroke="midnightblue" d="M193.715,-41.2344C206.64,-42.6021 219.509,-43.9639 231.356,-45.2176"/>
<polygon fill="midnightblue" stroke="midnightblue" points="231.166,-48.7169 241.479,-46.2888 231.903,-41.7558 231.166,-48.7169"/>
</g>
<!-- Node3 -->
<g id="node5" class="node"><title>Node3</title>
<a xlink:href="../../d4/d81/structns_http.html#af55ef1d6b463334ce299478bf5371876" target="_top" xlink:title="nsHttp::ResolveAtom">
<polygon fill="white" stroke="black" points="230.5,-0.5 230.5,-21.5 341.5,-21.5 341.5,-0.5 230.5,-0.5"/>
<text text-anchor="middle" x="286" y="-8.5" font-family="Helvetica,sans-Serif" font-size="10.00">nsHttp::ResolveAtom</text>
</a>
</g>
<!-- Node1&#45;&gt;Node3 -->
<g id="edge4" class="edge"><title>Node1&#45;&gt;Node3</title>
<path fill="none" stroke="midnightblue" d="M193.715,-20.7656C202.723,-19.8124 211.704,-18.862 220.331,-17.9491"/>
<polygon fill="midnightblue" stroke="midnightblue" points="220.7,-21.4297 230.276,-16.8967 219.963,-14.4686 220.7,-21.4297"/>
</g>
</g>
</svg>
