<?xml version="1.0" encoding="UTF-8" standalone="no"?>
<!DOCTYPE svg PUBLIC "-//W3C//DTD SVG 1.1//EN"
 "http://www.w3.org/Graphics/SVG/1.1/DTD/svg11.dtd">
<!-- Generated by graphviz version 2.26.3 (20100126.1600)
 -->
<!-- Title: G Pages: 1 -->
<svg width="462pt" height="88pt"
 viewBox="0.00 0.00 462.00 88.00" xmlns="http://www.w3.org/2000/svg" xmlns:xlink="http://www.w3.org/1999/xlink">
<g id="graph1" class="graph" transform="scale(1 1) rotate(0) translate(4 84)">
<title>G</title>
<polygon fill="white" stroke="white" points="-4,5 -4,-84 459,-84 459,5 -4,5"/>
<!-- Node1 -->
<g id="node1" class="node"><title>Node1</title>
<polygon fill="#bfbfbf" stroke="black" points="207,-58.5 207,-79.5 275,-79.5 275,-58.5 207,-58.5"/>
<text text-anchor="middle" x="241" y="-66.5" font-family="Helvetica,sans-Serif" font-size="10.00">nsHashKey</text>
</g>
<!-- Node2 -->
<g id="node3" class="node"><title>Node2</title>
<a xlink:href="../../d8/d3d/classns_c_string_key.html" target="_top" xlink:title="nsCStringKey">
<polygon fill="white" stroke="black" points="-0.5,-0.5 -0.5,-21.5 76.5,-21.5 76.5,-0.5 -0.5,-0.5"/>
<text text-anchor="middle" x="38" y="-8.5" font-family="Helvetica,sans-Serif" font-size="10.00">nsCStringKey</text>
</a>
</g>
<!-- Node1&#45;&gt;Node2 -->
<g id="edge2" class="edge"><title>Node1&#45;&gt;Node2</title>
<path fill="none" stroke="midnightblue" d="M196.705,-56.3443C160.288,-45.9393 109.282,-31.3662 75.0139,-21.5754"/>
<polygon fill="midnightblue" stroke="midnightblue" points="195.987,-59.7791 206.564,-59.1611 197.91,-53.0485 195.987,-59.7791"/>
</g>
<!-- Node3 -->
<g id="node5" class="node"><title>Node3</title>
<a xlink:href="../../da/dbe/classns_i_supports_key.html" target="_top" xlink:title="nsISupportsKey">
<polygon fill="white" stroke="black" points="94,-0.5 94,-21.5 180,-21.5 180,-0.5 94,-0.5"/>
<text text-anchor="middle" x="137" y="-8.5" font-family="Helvetica,sans-Serif" font-size="10.00">nsISupportsKey</text>
</a>
</g>
<!-- Node1&#45;&gt;Node3 -->
<g id="edge4" class="edge"><title>Node1&#45;&gt;Node3</title>
<path fill="none" stroke="midnightblue" d="M212.99,-53.379C194.919,-43.3011 171.898,-30.4624 155.954,-21.5707"/>
<polygon fill="midnightblue" stroke="midnightblue" points="211.486,-56.548 221.925,-58.3619 214.896,-50.4344 211.486,-56.548"/>
</g>
<!-- Node4 -->
<g id="node7" class="node"><title>Node4</title>
<a xlink:href="../../d0/d6a/classns_p_r_uint32_key.html" target="_top" xlink:title="nsPRUint32Key">
<polygon fill="white" stroke="black" points="197.5,-0.5 197.5,-21.5 284.5,-21.5 284.5,-0.5 197.5,-0.5"/>
<text text-anchor="middle" x="241" y="-8.5" font-family="Helvetica,sans-Serif" font-size="10.00">nsPRUint32Key</text>
</a>
</g>
<!-- Node1&#45;&gt;Node4 -->
<g id="edge6" class="edge"><title>Node1&#45;&gt;Node4</title>
<path fill="none" stroke="midnightblue" d="M241,-48.1906C241,-39.1684 241,-28.9941 241,-21.5707"/>
<polygon fill="midnightblue" stroke="midnightblue" points="237.5,-48.3619 241,-58.3619 244.5,-48.3619 237.5,-48.3619"/>
</g>
<!-- Node5 -->
<g id="node9" class="node"><title>Node5</title>
<a xlink:href="../../d1/dfc/classns_string_key.html" target="_top" xlink:title="nsStringKey">
<polygon fill="white" stroke="black" points="302,-0.5 302,-21.5 372,-21.5 372,-0.5 302,-0.5"/>
<text text-anchor="middle" x="337" y="-8.5" font-family="Helvetica,sans-Serif" font-size="10.00">nsStringKey</text>
</a>
</g>
<!-- Node1&#45;&gt;Node5 -->
<g id="edge8" class="edge"><title>Node1&#45;&gt;Node5</title>
<path fill="none" stroke="midnightblue" d="M267.316,-53.1009C283.926,-43.0658 304.921,-30.3808 319.504,-21.5707"/>
<polygon fill="midnightblue" stroke="midnightblue" points="265.357,-50.195 258.608,-58.3619 268.977,-56.1864 265.357,-50.195"/>
</g>
<!-- Node6 -->
<g id="node11" class="node"><title>Node6</title>
<a xlink:href="../../d7/d65/classns_void_key.html" target="_top" xlink:title="nsVoidKey">
<polygon fill="white" stroke="black" points="390,-0.5 390,-21.5 454,-21.5 454,-0.5 390,-0.5"/>
<text text-anchor="middle" x="422" y="-8.5" font-family="Helvetica,sans-Serif" font-size="10.00">nsVoidKey</text>
</a>
</g>
<!-- Node1&#45;&gt;Node6 -->
<g id="edge10" class="edge"><title>Node1&#45;&gt;Node6</title>
<path fill="none" stroke="midnightblue" d="M283.464,-55.3927C315.973,-44.9753 360.128,-30.8265 389.77,-21.3277"/>
<polygon fill="midnightblue" stroke="midnightblue" points="282.233,-52.1119 273.778,-58.4966 284.369,-58.7781 282.233,-52.1119"/>
</g>
</g>
</svg>
