<?xml version="1.0" encoding="UTF-8" standalone="no"?>
<!DOCTYPE svg PUBLIC "-//W3C//DTD SVG 1.1//EN"
 "http://www.w3.org/Graphics/SVG/1.1/DTD/svg11.dtd">
<!-- Generated by graphviz version 2.26.3 (20100126.1600)
 -->
<!-- Title: G Pages: 1 -->
<svg width="302pt" height="162pt"
 viewBox="0.00 0.00 302.00 162.00" xmlns="http://www.w3.org/2000/svg" xmlns:xlink="http://www.w3.org/1999/xlink">
<g id="graph1" class="graph" transform="scale(1 1) rotate(0) translate(4 158)">
<title>G</title>
<polygon fill="white" stroke="white" points="-4,5 -4,-158 299,-158 299,5 -4,5"/>
<!-- Node1 -->
<g id="node1" class="node"><title>Node1</title>
<polygon fill="#bfbfbf" stroke="black" points="87.5,-0.5 87.5,-21.5 230.5,-21.5 230.5,-0.5 87.5,-0.5"/>
<text text-anchor="middle" x="159" y="-8.5" font-family="Helvetica,sans-Serif" font-size="10.00">mozilla::dom::nsSpeechTask</text>
</g>
<!-- Node2 -->
<g id="node2" class="node"><title>Node2</title>
<a xlink:href="../../d9/dc1/interfacens_i_speech_task.html" target="_top" xlink:title="nsISpeechTask">
<polygon fill="white" stroke="black" points="-0.5,-72.5 -0.5,-93.5 84.5,-93.5 84.5,-72.5 -0.5,-72.5"/>
<text text-anchor="middle" x="42" y="-80.5" font-family="Helvetica,sans-Serif" font-size="10.00">nsISpeechTask</text>
</a>
</g>
<!-- Node2&#45;&gt;Node1 -->
<g id="edge2" class="edge"><title>Node2&#45;&gt;Node1</title>
<path fill="none" stroke="midnightblue" d="M67.9471,-67.0325C90.384,-53.2252 122.193,-33.6502 141.665,-21.6674"/>
<polygon fill="midnightblue" stroke="midnightblue" points="65.946,-64.1543 59.2638,-72.3762 69.6147,-70.1159 65.946,-64.1543"/>
</g>
<!-- Node3 -->
<g id="node4" class="node"><title>Node3</title>
<a xlink:href="../../d4/d6a/classns_i_supports.html" target="_top" xlink:title="nsISupports">
<polygon fill="white" stroke="black" points="7.5,-132.5 7.5,-153.5 76.5,-153.5 76.5,-132.5 7.5,-132.5"/>
<text text-anchor="middle" x="42" y="-140.5" font-family="Helvetica,sans-Serif" font-size="10.00">nsISupports</text>
</a>
</g>
<!-- Node3&#45;&gt;Node2 -->
<g id="edge4" class="edge"><title>Node3&#45;&gt;Node2</title>
<path fill="none" stroke="midnightblue" d="M35.5424,-122.231C34.9133,-112.592 35.2993,-101.544 36.7005,-93.6339"/>
<polygon fill="midnightblue" stroke="midnightblue" points="32.0768,-122.733 36.6841,-132.273 39.032,-121.942 32.0768,-122.733"/>
</g>
<!-- Node3&#45;&gt;Node2 -->
<g id="edge6" class="edge"><title>Node3&#45;&gt;Node2</title>
<path fill="none" stroke="midnightblue" d="M48.4576,-122.231C49.0867,-112.592 48.7007,-101.544 47.2995,-93.6339"/>
<polygon fill="midnightblue" stroke="midnightblue" points="44.968,-121.942 47.3159,-132.273 51.9232,-122.733 44.968,-121.942"/>
</g>
<!-- Node4 -->
<g id="node7" class="node"><title>Node4</title>
<a xlink:href="../../d0/d01/classns_ref_ptr.html" target="_top" xlink:title="nsRefPtr\&lt; SpeechSynthesisUtterance \&gt;">
<polygon fill="white" stroke="black" points="101.5,-72.5 101.5,-93.5 294.5,-93.5 294.5,-72.5 101.5,-72.5"/>
<text text-anchor="middle" x="198" y="-80.5" font-family="Helvetica,sans-Serif" font-size="10.00">nsRefPtr&lt; SpeechSynthesisUtterance &gt;</text>
</a>
</g>
<!-- Node4&#45;&gt;Node1 -->
<g id="edge8" class="edge"><title>Node4&#45;&gt;Node1</title>
<path fill="none" stroke="#9a32cd" stroke-dasharray="5,2" d="M187.394,-63.4193C180.111,-49.9734 170.721,-32.6384 164.778,-21.6674"/>
<polygon fill="#9a32cd" stroke="#9a32cd" points="184.405,-65.2502 192.245,-72.3762 190.56,-61.9162 184.405,-65.2502"/>
<text text-anchor="middle" x="208.5" y="-44.5" font-family="Helvetica,sans-Serif" font-size="10.00"> mUtterance</text>
</g>
</g>
</svg>
