<?xml version="1.0" encoding="UTF-8" standalone="no"?>
<!DOCTYPE svg PUBLIC "-//W3C//DTD SVG 1.1//EN"
 "http://www.w3.org/Graphics/SVG/1.1/DTD/svg11.dtd">
<!-- Generated by graphviz version 2.26.3 (20100126.1600)
 -->
<!-- Title: G Pages: 1 -->
<!--zoomable 262 -->
<svg id="main" version="1.1" xmlns="http://www.w3.org/2000/svg" xmlns:xlink="http://www.w3.org/1999/xlink" xml:space="preserve" onload="init(evt)">
        <defs>
                <circle id="rim" cx="0" cy="0" r="7"/>
                <circle id="rim2" cx="0" cy="0" r="3.5"/>
                <g id="zoomPlus">
                        <use xlink:href="#rim" fill="#404040">
                                <set attributeName="fill" to="#808080" begin="zoomplus.mouseover" end="zoomplus.mouseout"/>
                        </use>
                        <path d="M-4,0h8M0,-4v8" fill="none" stroke="white" stroke-width="1.5" pointer-events="none"/>
                </g>
                <g id="zoomMin">
                        <use xlink:href="#rim" fill="#404040">
                                <set attributeName="fill" to="#808080" begin="zoomminus.mouseover" end="zoomminus.mouseout"/>
                        </use>
                        <path d="M-4,0h8" fill="none" stroke="white" stroke-width="1.5" pointer-events="none"/>
                </g>
                <g id="dirArrow">
                        <path fill="none" stroke="white" stroke-width="1.5" d="M0,-3.0v7 M-2.5,-0.5L0,-3.0L2.5,-0.5"/>
                </g>
               <g id="resetDef">
                       <use xlink:href="#rim2" fill="#404040">
                               <set attributeName="fill" to="#808080" begin="reset.mouseover" end="reset.mouseout"/>
                       </use>
               </g>
        </defs>

<script type="text/javascript">
var viewWidth = 727;
var viewHeight = 262;
var sectionId = 'dynsection-1';
</script>
<script xlink:href="../../svgpan.js"/>
<svg id="graph" class="graph">
<g id="viewport">
<title>G</title>
<polygon fill="white" stroke="white" points="-4,5 -4,-258 724,-258 724,5 -4,5"/>
<!-- Node1 -->
<g id="node1" class="node"><title>Node1</title>
<polygon fill="#bfbfbf" stroke="black" points="142,-232.5 142,-253.5 628,-253.5 628,-232.5 142,-232.5"/>
<text text-anchor="middle" x="385" y="-240.5" font-family="Helvetica,sans-Serif" font-size="10.00">/home/aoi/Documents/FxOS/B2G/gaia/xulrunner&#45;sdk/include/mozilla/plugins/PluginScriptableObjectParent.h</text>
</g>
<!-- Node2 -->
<g id="node3" class="node"><title>Node2</title>
<a xlink:href="../../d9/d30/_plugin_instance_parent_8h.html" target="_top" xlink:title="/home/aoi/Documents/FxOS/B2G/gaia/xulrunner&#45;sdk/include/mozilla/plugins/PluginInstanceParent.h">
<polygon fill="white" stroke="black" points="32,-174.5 32,-195.5 484,-195.5 484,-174.5 32,-174.5"/>
<text text-anchor="middle" x="258" y="-182.5" font-family="Helvetica,sans-Serif" font-size="10.00">/home/aoi/Documents/FxOS/B2G/gaia/xulrunner&#45;sdk/include/mozilla/plugins/PluginInstanceParent.h</text>
</a>
</g>
<!-- Node1&#45;&gt;Node2 -->
<g id="edge2" class="edge"><title>Node1&#45;&gt;Node2</title>
<path fill="none" stroke="midnightblue" d="M352.607,-228.206C330.327,-218.031 301.26,-204.757 281.257,-195.621"/>
<polygon fill="midnightblue" stroke="midnightblue" points="351.451,-231.526 362.001,-232.497 354.359,-225.159 351.451,-231.526"/>
</g>
<!-- Node4 -->
<g id="node7" class="node"><title>Node4</title>
<a xlink:href="../../d9/d99/_plugin_scriptable_object_utils_8h.html" target="_top" xlink:title="/home/aoi/Documents/FxOS/B2G/gaia/xulrunner&#45;sdk/include/mozilla/plugins/PluginScriptableObjectUtils.h">
<polygon fill="white" stroke="black" points="235,-58.5 235,-79.5 713,-79.5 713,-58.5 235,-58.5"/>
<text text-anchor="middle" x="474" y="-66.5" font-family="Helvetica,sans-Serif" font-size="10.00">/home/aoi/Documents/FxOS/B2G/gaia/xulrunner&#45;sdk/include/mozilla/plugins/PluginScriptableObjectUtils.h</text>
</a>
</g>
<!-- Node1&#45;&gt;Node4 -->
<g id="edge14" class="edge"><title>Node1&#45;&gt;Node4</title>
<path fill="none" stroke="midnightblue" d="M449.218,-228.922C466.313,-221.933 482.833,-211.513 493,-196 517.319,-158.894 492.349,-102.735 480.023,-79.566"/>
<polygon fill="midnightblue" stroke="midnightblue" points="447.851,-225.696 439.698,-232.462 450.291,-232.257 447.851,-225.696"/>
</g>
<!-- Node3 -->
<g id="node5" class="node"><title>Node3</title>
<a xlink:href="../../d8/d57/_plugin_module_parent_8h.html" target="_top" xlink:title="/home/aoi/Documents/FxOS/B2G/gaia/xulrunner&#45;sdk/include/mozilla/plugins/PluginModuleParent.h">
<polygon fill="white" stroke="black" points="0,-116.5 0,-137.5 446,-137.5 446,-116.5 0,-116.5"/>
<text text-anchor="middle" x="223" y="-124.5" font-family="Helvetica,sans-Serif" font-size="10.00">/home/aoi/Documents/FxOS/B2G/gaia/xulrunner&#45;sdk/include/mozilla/plugins/PluginModuleParent.h</text>
</a>
</g>
<!-- Node2&#45;&gt;Node3 -->
<g id="edge4" class="edge"><title>Node2&#45;&gt;Node3</title>
<path fill="none" stroke="midnightblue" d="M246.333,-165.667C240.678,-156.295 234.105,-145.402 229.379,-137.571"/>
<polygon fill="midnightblue" stroke="midnightblue" points="243.417,-167.608 251.58,-174.362 249.41,-163.992 243.417,-167.608"/>
</g>
<!-- Node2&#45;&gt;Node4 -->
<g id="edge12" class="edge"><title>Node2&#45;&gt;Node4</title>
<path fill="none" stroke="midnightblue" d="M347.006,-172.764C391.471,-164.926 439.131,-153.331 455,-138 471.085,-122.461 473.944,-94.661 474.224,-79.5245"/>
<polygon fill="midnightblue" stroke="midnightblue" points="346.255,-169.342 336.988,-174.478 347.435,-176.242 346.255,-169.342"/>
</g>
<!-- Node3&#45;&gt;Node4 -->
<g id="edge6" class="edge"><title>Node3&#45;&gt;Node4</title>
<path fill="none" stroke="midnightblue" d="M278.358,-114.208C323.427,-103.794 386.273,-89.2716 428.461,-79.5231"/>
<polygon fill="midnightblue" stroke="midnightblue" points="277.409,-110.835 268.454,-116.497 278.985,-117.655 277.409,-110.835"/>
</g>
<!-- Node5 -->
<g id="node9" class="node"><title>Node5</title>
<a xlink:href="../../d8/d00/_plugin_scriptable_object_utils-inl_8h.html" target="_top" xlink:title="/home/aoi/Documents/FxOS/B2G/gaia/xulrunner&#45;sdk/include/mozilla/plugins/PluginScriptableObjectUtils&#45;inl.h">
<polygon fill="white" stroke="black" points="228.5,-0.5 228.5,-21.5 719.5,-21.5 719.5,-0.5 228.5,-0.5"/>
<text text-anchor="middle" x="474" y="-8.5" font-family="Helvetica,sans-Serif" font-size="10.00">/home/aoi/Documents/FxOS/B2G/gaia/xulrunner&#45;sdk/include/mozilla/plugins/PluginScriptableObjectUtils&#45;inl.h</text>
</a>
</g>
<!-- Node4&#45;&gt;Node5 -->
<g id="edge8" class="edge"><title>Node4&#45;&gt;Node5</title>
<path fill="none" stroke="midnightblue" d="M467.495,-48.1906C466.941,-39.1684 467.326,-28.9941 468.648,-21.5707"/>
<polygon fill="midnightblue" stroke="midnightblue" points="464.043,-48.8143 468.636,-58.3619 471,-48.0341 464.043,-48.8143"/>
</g>
<!-- Node5&#45;&gt;Node4 -->
<g id="edge10" class="edge"><title>Node5&#45;&gt;Node4</title>
<path fill="none" stroke="midnightblue" d="M480.5,-31.7276C481.059,-40.7427 480.681,-50.9219 479.364,-58.3619"/>
<polygon fill="midnightblue" stroke="midnightblue" points="483.953,-31.1144 479.352,-21.5707 476.997,-31.9004 483.953,-31.1144"/>
</g>
</g>
</svg>
        <g id="navigator" transform="translate(0 0)" fill="#404254">
                <rect fill="#f2f5e9" fill-opacity="0.5" stroke="#606060" stroke-width=".5" x="0" y="0" width="60" height="60"/>
                <use id="zoomplus" xlink:href="#zoomPlus" x="17" y="9" onmousedown="handleZoom(evt,'in')"/>
                <use id="zoomminus" xlink:href="#zoomMin" x="42" y="9" onmousedown="handleZoom(evt,'out')"/>
                <use id="reset" xlink:href="#resetDef" x="30" y="36" onmousedown="handleReset()"/>
                <g id="arrowUp" xlink:href="#dirArrow" transform="translate(30 24)" onmousedown="handlePan(0,-1)">
                  <use xlink:href="#rim" fill="#404040">
                        <set attributeName="fill" to="#808080" begin="arrowUp.mouseover" end="arrowUp.mouseout"/>
                  </use>
                  <path fill="none" stroke="white" stroke-width="1.5" d="M0,-3.0v7 M-2.5,-0.5L0,-3.0L2.5,-0.5"/>
                </g>
                <g id="arrowRight" xlink:href="#dirArrow" transform="rotate(90) translate(36 -43)" onmousedown="handlePan(1,0)">
                  <use xlink:href="#rim" fill="#404040">
                        <set attributeName="fill" to="#808080" begin="arrowRight.mouseover" end="arrowRight.mouseout"/>
                  </use>
                  <path fill="none" stroke="white" stroke-width="1.5" d="M0,-3.0v7 M-2.5,-0.5L0,-3.0L2.5,-0.5"/>
                </g>
                <g id="arrowDown" xlink:href="#dirArrow" transform="rotate(180) translate(-30 -48)" onmousedown="handlePan(0,1)">
                  <use xlink:href="#rim" fill="#404040">
                        <set attributeName="fill" to="#808080" begin="arrowDown.mouseover" end="arrowDown.mouseout"/>
                  </use>
                  <path fill="none" stroke="white" stroke-width="1.5" d="M0,-3.0v7 M-2.5,-0.5L0,-3.0L2.5,-0.5"/>
                </g>
                <g id="arrowLeft" xlink:href="#dirArrow" transform="rotate(270) translate(-36 17)" onmousedown="handlePan(-1,0)">
                  <use xlink:href="#rim" fill="#404040">
                        <set attributeName="fill" to="#808080" begin="arrowLeft.mouseover" end="arrowLeft.mouseout"/>
                  </use>
                  <path fill="none" stroke="white" stroke-width="1.5" d="M0,-3.0v7 M-2.5,-0.5L0,-3.0L2.5,-0.5"/>
                </g>
        </g>
</svg>
