<?xml version="1.0" encoding="UTF-8" standalone="no"?>
<!DOCTYPE svg PUBLIC "-//W3C//DTD SVG 1.1//EN"
 "http://www.w3.org/Graphics/SVG/1.1/DTD/svg11.dtd">
<!-- Generated by graphviz version 2.26.3 (20100126.1600)
 -->
<!-- Title: G Pages: 1 -->
<!--zoomable 112 -->
<svg id="main" version="1.1" xmlns="http://www.w3.org/2000/svg" xmlns:xlink="http://www.w3.org/1999/xlink" xml:space="preserve" onload="init(evt)">
        <defs>
                <circle id="rim" cx="0" cy="0" r="7"/>
                <circle id="rim2" cx="0" cy="0" r="3.5"/>
                <g id="zoomPlus">
                        <use xlink:href="#rim" fill="#404040">
                                <set attributeName="fill" to="#808080" begin="zoomplus.mouseover" end="zoomplus.mouseout"/>
                        </use>
                        <path d="M-4,0h8M0,-4v8" fill="none" stroke="white" stroke-width="1.5" pointer-events="none"/>
                </g>
                <g id="zoomMin">
                        <use xlink:href="#rim" fill="#404040">
                                <set attributeName="fill" to="#808080" begin="zoomminus.mouseover" end="zoomminus.mouseout"/>
                        </use>
                        <path d="M-4,0h8" fill="none" stroke="white" stroke-width="1.5" pointer-events="none"/>
                </g>
                <g id="dirArrow">
                        <path fill="none" stroke="white" stroke-width="1.5" d="M0,-3.0v7 M-2.5,-0.5L0,-3.0L2.5,-0.5"/>
                </g>
               <g id="resetDef">
                       <use xlink:href="#rim2" fill="#404040">
                               <set attributeName="fill" to="#808080" begin="reset.mouseover" end="reset.mouseout"/>
                       </use>
               </g>
        </defs>

<script type="text/javascript">
var viewWidth = 1690;
var viewHeight = 112;
var sectionId = 'dynsection-0';
</script>
<script xlink:href="../../svgpan.js"/>
<svg id="graph" class="graph">
<g id="viewport">
<title>G</title>
<polygon fill="white" stroke="white" points="-4,5 -4,-108 1687,-108 1687,5 -4,5"/>
<!-- Node1 -->
<g id="node1" class="node"><title>Node1</title>
<polygon fill="#bfbfbf" stroke="black" points="1546.5,-40.5 1546.5,-61.5 1681.5,-61.5 1681.5,-40.5 1546.5,-40.5"/>
<text text-anchor="middle" x="1614" y="-48.5" font-family="Helvetica,sans-Serif" font-size="10.00">mozilla::NrIceMediaStream</text>
</g>
<!-- Node2 -->
<g id="node2" class="node"><title>Node2</title>
<a xlink:href="../../da/ddb/classsigslot_1_1signal1.html" target="_top" xlink:title="sigslot::signal1\&lt; NrIceMediaStream * \&gt;">
<polygon fill="white" stroke="black" points="1151,-80.5 1151,-101.5 1339,-101.5 1339,-80.5 1151,-80.5"/>
<text text-anchor="middle" x="1245" y="-88.5" font-family="Helvetica,sans-Serif" font-size="10.00">sigslot::signal1&lt; NrIceMediaStream * &gt;</text>
</a>
</g>
<!-- Node2&#45;&gt;Node1 -->
<g id="edge2" class="edge"><title>Node2&#45;&gt;Node1</title>
<path fill="none" stroke="#9a32cd" stroke-dasharray="5,2" d="M1349.45,-84.6302C1402.98,-80.7362 1469.13,-74.9531 1528,-67 1538.99,-65.5159 1550.7,-63.5771 1561.83,-61.5637"/>
<polygon fill="#9a32cd" stroke="#9a32cd" points="1348.99,-81.1543 1339.27,-85.3596 1349.49,-88.1364 1348.99,-81.1543"/>
<text text-anchor="middle" x="1476" y="-95" font-family="Helvetica,sans-Serif" font-size="10.00"> SignalReady</text>
<text text-anchor="middle" x="1476" y="-82" font-family="Helvetica,sans-Serif" font-size="10.00">SignalFailed</text>
</g>
<!-- Node3 -->
<g id="node4" class="node"><title>Node3</title>
<a xlink:href="../../d5/d40/classsigslot_1_1__signal__base1.html" target="_top" xlink:title="sigslot::_signal_base1\&lt; NrIceMediaStream *, SIGSLOT_DEFAULT_MT_POLICY \&gt;">
<polygon fill="white" stroke="black" points="597.5,-80.5 597.5,-101.5 978.5,-101.5 978.5,-80.5 597.5,-80.5"/>
<text text-anchor="middle" x="788" y="-88.5" font-family="Helvetica,sans-Serif" font-size="10.00">sigslot::_signal_base1&lt; NrIceMediaStream *, SIGSLOT_DEFAULT_MT_POLICY &gt;</text>
</a>
</g>
<!-- Node3&#45;&gt;Node2 -->
<g id="edge4" class="edge"><title>Node3&#45;&gt;Node2</title>
<path fill="none" stroke="midnightblue" d="M988.946,-91C1045.26,-91 1103.84,-91 1150.73,-91"/>
<polygon fill="midnightblue" stroke="midnightblue" points="988.831,-87.5001 978.831,-91 988.83,-94.5001 988.831,-87.5001"/>
</g>
<!-- Node4 -->
<g id="node6" class="node"><title>Node4</title>
<a xlink:href="../../d1/dd5/classsigslot_1_1__signal__base.html" target="_top" xlink:title="sigslot::_signal_base\&lt; SIGSLOT_DEFAULT_MT_POLICY \&gt;">
<polygon fill="white" stroke="black" points="210.5,-40.5 210.5,-61.5 491.5,-61.5 491.5,-40.5 210.5,-40.5"/>
<text text-anchor="middle" x="351" y="-48.5" font-family="Helvetica,sans-Serif" font-size="10.00">sigslot::_signal_base&lt; SIGSLOT_DEFAULT_MT_POLICY &gt;</text>
</a>
</g>
<!-- Node4&#45;&gt;Node3 -->
<g id="edge6" class="edge"><title>Node4&#45;&gt;Node3</title>
<path fill="none" stroke="midnightblue" d="M449.954,-62.663C475.975,-65.5636 504.029,-68.5432 530,-71 566.005,-74.406 604.877,-77.6475 641.253,-80.4913"/>
<polygon fill="midnightblue" stroke="midnightblue" points="450.037,-59.1504 439.709,-61.5134 449.257,-66.1067 450.037,-59.1504"/>
</g>
<!-- Node8 -->
<g id="node14" class="node"><title>Node8</title>
<a xlink:href="../../d5/dac/classsigslot_1_1__signal__base2.html" target="_top" xlink:title="sigslot::_signal_base2\&lt; NrIceMediaStream *, const std::string &amp;, SIGSLOT_DEFAULT_MT_POLICY \&gt;">
<polygon fill="white" stroke="black" points="554.5,-40.5 554.5,-61.5 1021.5,-61.5 1021.5,-40.5 554.5,-40.5"/>
<text text-anchor="middle" x="788" y="-48.5" font-family="Helvetica,sans-Serif" font-size="10.00">sigslot::_signal_base2&lt; NrIceMediaStream *, const std::string &amp;, SIGSLOT_DEFAULT_MT_POLICY &gt;</text>
</a>
</g>
<!-- Node4&#45;&gt;Node8 -->
<g id="edge16" class="edge"><title>Node4&#45;&gt;Node8</title>
<path fill="none" stroke="midnightblue" d="M502.117,-51C519.018,-51 536.515,-51 554.145,-51"/>
<polygon fill="midnightblue" stroke="midnightblue" points="501.675,-47.5001 491.675,-51 501.675,-54.5001 501.675,-47.5001"/>
</g>
<!-- Node10 -->
<g id="node19" class="node"><title>Node10</title>
<a xlink:href="../../db/dc0/classsigslot_1_1__signal__base4.html" target="_top" xlink:title="sigslot::_signal_base4\&lt; NrIceMediaStream *, int, const unsigned char *, int, SIGSLOT_DEFAULT_MT_POLICY \&gt;">
<polygon fill="white" stroke="black" points="530.5,-0.5 530.5,-21.5 1045.5,-21.5 1045.5,-0.5 530.5,-0.5"/>
<text text-anchor="middle" x="788" y="-8.5" font-family="Helvetica,sans-Serif" font-size="10.00">sigslot::_signal_base4&lt; NrIceMediaStream *, int, const unsigned char *, int, SIGSLOT_DEFAULT_MT_POLICY &gt;</text>
</a>
</g>
<!-- Node4&#45;&gt;Node10 -->
<g id="edge22" class="edge"><title>Node4&#45;&gt;Node10</title>
<path fill="none" stroke="midnightblue" d="M449.954,-39.337C475.975,-36.4364 504.029,-33.4568 530,-31 566.005,-27.594 604.877,-24.3525 641.253,-21.5087"/>
<polygon fill="midnightblue" stroke="midnightblue" points="449.257,-35.8933 439.709,-40.4866 450.037,-42.8496 449.257,-35.8933"/>
</g>
<!-- Node5 -->
<g id="node8" class="node"><title>Node5</title>
<a xlink:href="../../d9/d50/classsigslot_1_1__signal__base__interface.html" target="_top" xlink:title="sigslot::_signal_base_interface">
<polygon fill="white" stroke="black" points="10.5,-60.5 10.5,-81.5 161.5,-81.5 161.5,-60.5 10.5,-60.5"/>
<text text-anchor="middle" x="86" y="-68.5" font-family="Helvetica,sans-Serif" font-size="10.00">sigslot::_signal_base_interface</text>
</a>
</g>
<!-- Node5&#45;&gt;Node4 -->
<g id="edge8" class="edge"><title>Node5&#45;&gt;Node4</title>
<path fill="none" stroke="midnightblue" d="M171.721,-64.5305C184.555,-63.5619 198.06,-62.5426 211.662,-61.5161"/>
<polygon fill="midnightblue" stroke="midnightblue" points="171.292,-61.0528 161.584,-65.2956 171.819,-68.033 171.292,-61.0528"/>
</g>
<!-- Node6 -->
<g id="node10" class="node"><title>Node6</title>
<a xlink:href="../../d7/dfc/class_s_i_g_s_l_o_t___d_e_f_a_u_l_t___m_t___p_o_l_i_c_y.html" target="_top" xlink:title="SIGSLOT_DEFAULT_MT_POLICY">
<polygon fill="white" stroke="black" points="0,-20.5 0,-41.5 172,-41.5 172,-20.5 0,-20.5"/>
<text text-anchor="middle" x="86" y="-28.5" font-family="Helvetica,sans-Serif" font-size="10.00">SIGSLOT_DEFAULT_MT_POLICY</text>
</a>
</g>
<!-- Node6&#45;&gt;Node4 -->
<g id="edge10" class="edge"><title>Node6&#45;&gt;Node4</title>
<path fill="none" stroke="midnightblue" d="M182.282,-38.2665C191.83,-38.9872 201.65,-39.7283 211.522,-40.4733"/>
<polygon fill="midnightblue" stroke="midnightblue" points="182.273,-34.756 172.038,-37.4934 181.746,-41.7362 182.273,-34.756"/>
</g>
<!-- Node7 -->
<g id="node12" class="node"><title>Node7</title>
<a xlink:href="../../da/de7/classsigslot_1_1signal2.html" target="_top" xlink:title="sigslot::signal2\&lt; NrIceMediaStream *, const std::string &amp; \&gt;">
<polygon fill="white" stroke="black" points="1107.5,-40.5 1107.5,-61.5 1382.5,-61.5 1382.5,-40.5 1107.5,-40.5"/>
<text text-anchor="middle" x="1245" y="-48.5" font-family="Helvetica,sans-Serif" font-size="10.00">sigslot::signal2&lt; NrIceMediaStream *, const std::string &amp; &gt;</text>
</a>
</g>
<!-- Node7&#45;&gt;Node1 -->
<g id="edge12" class="edge"><title>Node7&#45;&gt;Node1</title>
<path fill="none" stroke="#9a32cd" stroke-dasharray="5,2" d="M1392.88,-51C1446.03,-51 1503.4,-51 1546.39,-51"/>
<polygon fill="#9a32cd" stroke="#9a32cd" points="1392.66,-47.5001 1382.66,-51 1392.66,-54.5001 1392.66,-47.5001"/>
<text text-anchor="middle" x="1476" y="-55" font-family="Helvetica,sans-Serif" font-size="10.00"> SignalCandidate</text>
</g>
<!-- Node8&#45;&gt;Node7 -->
<g id="edge14" class="edge"><title>Node8&#45;&gt;Node7</title>
<path fill="none" stroke="midnightblue" d="M1031.83,-51C1057.69,-51 1083.29,-51 1107.29,-51"/>
<polygon fill="midnightblue" stroke="midnightblue" points="1031.52,-47.5001 1021.52,-51 1031.52,-54.5001 1031.52,-47.5001"/>
</g>
<!-- Node9 -->
<g id="node17" class="node"><title>Node9</title>
<a xlink:href="../../d2/dc5/classsigslot_1_1signal4.html" target="_top" xlink:title="sigslot::signal4\&lt; NrIceMediaStream *, int, const unsigned char *, int \&gt;">
<polygon fill="white" stroke="black" points="1084,-0.5 1084,-21.5 1406,-21.5 1406,-0.5 1084,-0.5"/>
<text text-anchor="middle" x="1245" y="-8.5" font-family="Helvetica,sans-Serif" font-size="10.00">sigslot::signal4&lt; NrIceMediaStream *, int, const unsigned char *, int &gt;</text>
</a>
</g>
<!-- Node9&#45;&gt;Node1 -->
<g id="edge18" class="edge"><title>Node9&#45;&gt;Node1</title>
<path fill="none" stroke="#9a32cd" stroke-dasharray="5,2" d="M1416.57,-21.7844C1453.42,-24.9825 1492.07,-29.0059 1528,-34 1540.36,-35.7183 1553.63,-38.0801 1565.95,-40.4967"/>
<polygon fill="#9a32cd" stroke="#9a32cd" points="1416.49,-18.2651 1406.23,-20.9042 1415.9,-25.2399 1416.49,-18.2651"/>
<text text-anchor="middle" x="1476" y="-38" font-family="Helvetica,sans-Serif" font-size="10.00"> SignalPacketReceived</text>
</g>
<!-- Node10&#45;&gt;Node9 -->
<g id="edge20" class="edge"><title>Node10&#45;&gt;Node9</title>
<path fill="none" stroke="midnightblue" d="M1055.56,-11C1065.13,-11 1074.61,-11 1083.92,-11"/>
<polygon fill="midnightblue" stroke="midnightblue" points="1055.55,-7.5001 1045.55,-11 1055.55,-14.5001 1055.55,-7.5001"/>
</g>
</g>
</svg>
        <g id="navigator" transform="translate(0 0)" fill="#404254">
                <rect fill="#f2f5e9" fill-opacity="0.5" stroke="#606060" stroke-width=".5" x="0" y="0" width="60" height="60"/>
                <use id="zoomplus" xlink:href="#zoomPlus" x="17" y="9" onmousedown="handleZoom(evt,'in')"/>
                <use id="zoomminus" xlink:href="#zoomMin" x="42" y="9" onmousedown="handleZoom(evt,'out')"/>
                <use id="reset" xlink:href="#resetDef" x="30" y="36" onmousedown="handleReset()"/>
                <g id="arrowUp" xlink:href="#dirArrow" transform="translate(30 24)" onmousedown="handlePan(0,-1)">
                  <use xlink:href="#rim" fill="#404040">
                        <set attributeName="fill" to="#808080" begin="arrowUp.mouseover" end="arrowUp.mouseout"/>
                  </use>
                  <path fill="none" stroke="white" stroke-width="1.5" d="M0,-3.0v7 M-2.5,-0.5L0,-3.0L2.5,-0.5"/>
                </g>
                <g id="arrowRight" xlink:href="#dirArrow" transform="rotate(90) translate(36 -43)" onmousedown="handlePan(1,0)">
                  <use xlink:href="#rim" fill="#404040">
                        <set attributeName="fill" to="#808080" begin="arrowRight.mouseover" end="arrowRight.mouseout"/>
                  </use>
                  <path fill="none" stroke="white" stroke-width="1.5" d="M0,-3.0v7 M-2.5,-0.5L0,-3.0L2.5,-0.5"/>
                </g>
                <g id="arrowDown" xlink:href="#dirArrow" transform="rotate(180) translate(-30 -48)" onmousedown="handlePan(0,1)">
                  <use xlink:href="#rim" fill="#404040">
                        <set attributeName="fill" to="#808080" begin="arrowDown.mouseover" end="arrowDown.mouseout"/>
                  </use>
                  <path fill="none" stroke="white" stroke-width="1.5" d="M0,-3.0v7 M-2.5,-0.5L0,-3.0L2.5,-0.5"/>
                </g>
                <g id="arrowLeft" xlink:href="#dirArrow" transform="rotate(270) translate(-36 17)" onmousedown="handlePan(-1,0)">
                  <use xlink:href="#rim" fill="#404040">
                        <set attributeName="fill" to="#808080" begin="arrowLeft.mouseover" end="arrowLeft.mouseout"/>
                  </use>
                  <path fill="none" stroke="white" stroke-width="1.5" d="M0,-3.0v7 M-2.5,-0.5L0,-3.0L2.5,-0.5"/>
                </g>
        </g>
</svg>
