<?xml version="1.0" encoding="UTF-8" standalone="no"?>
<!DOCTYPE svg PUBLIC "-//W3C//DTD SVG 1.1//EN"
 "http://www.w3.org/Graphics/SVG/1.1/DTD/svg11.dtd">
<!-- Generated by graphviz version 2.26.3 (20100126.1600)
 -->
<!-- Title: G Pages: 1 -->
<svg width="326pt" height="110pt"
 viewBox="0.00 0.00 326.00 110.00" xmlns="http://www.w3.org/2000/svg" xmlns:xlink="http://www.w3.org/1999/xlink">
<g id="graph1" class="graph" transform="scale(1 1) rotate(0) translate(4 106)">
<title>G</title>
<polygon fill="white" stroke="white" points="-4,5 -4,-106 323,-106 323,5 -4,5"/>
<!-- Node1 -->
<g id="node1" class="node"><title>Node1</title>
<polygon fill="#bfbfbf" stroke="black" points="0,-40.5 0,-61.5 188,-61.5 188,-40.5 0,-40.5"/>
<text text-anchor="middle" x="94" y="-48.5" font-family="Helvetica,sans-Serif" font-size="10.00">GrEffect::MakeDivByTextureWHMatrix</text>
</g>
<!-- Node2 -->
<g id="node3" class="node"><title>Node2</title>
<a xlink:href="../../d1/d22/class_gr_surface.html#a5e7562f870f496e470d3ee5a3e21c532" target="_top" xlink:title="GrSurface::height">
<polygon fill="white" stroke="black" points="224.5,-80.5 224.5,-101.5 317.5,-101.5 317.5,-80.5 224.5,-80.5"/>
<text text-anchor="middle" x="271" y="-88.5" font-family="Helvetica,sans-Serif" font-size="10.00">GrSurface::height</text>
</a>
</g>
<!-- Node1&#45;&gt;Node2 -->
<g id="edge2" class="edge"><title>Node1&#45;&gt;Node2</title>
<path fill="none" stroke="midnightblue" d="M140.505,-61.5095C163.179,-66.6337 190.642,-72.8399 214.513,-78.2345"/>
<polygon fill="midnightblue" stroke="midnightblue" points="213.973,-81.7008 224.499,-80.4913 215.516,-74.873 213.973,-81.7008"/>
</g>
<!-- Node3 -->
<g id="node5" class="node"><title>Node3</title>
<a xlink:href="../../db/dd6/class_sk_matrix.html#a4a0eebef76cf26fadc9e216ef3401c77" target="_top" xlink:title="SkMatrix::setIDiv">
<polygon fill="white" stroke="black" points="224.5,-40.5 224.5,-61.5 317.5,-61.5 317.5,-40.5 224.5,-40.5"/>
<text text-anchor="middle" x="271" y="-48.5" font-family="Helvetica,sans-Serif" font-size="10.00">SkMatrix::setIDiv</text>
</a>
</g>
<!-- Node1&#45;&gt;Node3 -->
<g id="edge4" class="edge"><title>Node1&#45;&gt;Node3</title>
<path fill="none" stroke="midnightblue" d="M188.201,-51C197.122,-51 205.966,-51 214.368,-51"/>
<polygon fill="midnightblue" stroke="midnightblue" points="214.372,-54.5001 224.372,-51 214.372,-47.5001 214.372,-54.5001"/>
</g>
<!-- Node4 -->
<g id="node7" class="node"><title>Node4</title>
<a xlink:href="../../d1/d22/class_gr_surface.html#a25b26142b17fe052ee640c2575b73071" target="_top" xlink:title="GrSurface::width">
<polygon fill="white" stroke="black" points="226,-0.5 226,-21.5 316,-21.5 316,-0.5 226,-0.5"/>
<text text-anchor="middle" x="271" y="-8.5" font-family="Helvetica,sans-Serif" font-size="10.00">GrSurface::width</text>
</a>
</g>
<!-- Node1&#45;&gt;Node4 -->
<g id="edge6" class="edge"><title>Node1&#45;&gt;Node4</title>
<path fill="none" stroke="midnightblue" d="M140.505,-40.4905C163.641,-35.262 191.761,-28.9071 215.965,-23.4372"/>
<polygon fill="midnightblue" stroke="midnightblue" points="216.741,-26.8503 225.723,-21.232 215.198,-20.0225 216.741,-26.8503"/>
</g>
</g>
</svg>
