<?xml version="1.0" encoding="UTF-8" standalone="no"?>
<!DOCTYPE svg PUBLIC "-//W3C//DTD SVG 1.1//EN"
 "http://www.w3.org/Graphics/SVG/1.1/DTD/svg11.dtd">
<!-- Generated by graphviz version 2.26.3 (20100126.1600)
 -->
<!-- Title: G Pages: 1 -->
<svg width="394pt" height="70pt"
 viewBox="0.00 0.00 394.00 70.00" xmlns="http://www.w3.org/2000/svg" xmlns:xlink="http://www.w3.org/1999/xlink">
<g id="graph1" class="graph" transform="scale(1 1) rotate(0) translate(4 66)">
<title>G</title>
<polygon fill="white" stroke="white" points="-4,5 -4,-66 391,-66 391,5 -4,5"/>
<!-- Node1 -->
<g id="node1" class="node"><title>Node1</title>
<polygon fill="#bfbfbf" stroke="black" points="0,-20.5 0,-41.5 194,-41.5 194,-20.5 0,-20.5"/>
<text text-anchor="middle" x="97" y="-28.5" font-family="Helvetica,sans-Serif" font-size="10.00">mozilla::gl::ScopedGLState::UnwrapImpl</text>
</g>
<!-- Node2 -->
<g id="node3" class="node"><title>Node2</title>
<a xlink:href="../../df/d68/classmozilla_1_1gl_1_1_g_l_context.html#a21e8e61bff7849865c574609efc389d2" target="_top" xlink:title="mozilla::gl::GLContext::fDisable">
<polygon fill="white" stroke="black" points="230,-40.5 230,-61.5 386,-61.5 386,-40.5 230,-40.5"/>
<text text-anchor="middle" x="308" y="-48.5" font-family="Helvetica,sans-Serif" font-size="10.00">mozilla::gl::GLContext::fDisable</text>
</a>
</g>
<!-- Node1&#45;&gt;Node2 -->
<g id="edge2" class="edge"><title>Node1&#45;&gt;Node2</title>
<path fill="none" stroke="midnightblue" d="M194.163,-40.2097C202.698,-41.0187 211.306,-41.8347 219.763,-42.6363"/>
<polygon fill="midnightblue" stroke="midnightblue" points="219.701,-46.1461 229.987,-43.6054 220.362,-39.1773 219.701,-46.1461"/>
</g>
<!-- Node3 -->
<g id="node5" class="node"><title>Node3</title>
<a xlink:href="../../df/d68/classmozilla_1_1gl_1_1_g_l_context.html#aead1528498069d6812fd10c944aa7fbb" target="_top" xlink:title="mozilla::gl::GLContext::fEnable">
<polygon fill="white" stroke="black" points="231.5,-0.5 231.5,-21.5 384.5,-21.5 384.5,-0.5 231.5,-0.5"/>
<text text-anchor="middle" x="308" y="-8.5" font-family="Helvetica,sans-Serif" font-size="10.00">mozilla::gl::GLContext::fEnable</text>
</a>
</g>
<!-- Node1&#45;&gt;Node3 -->
<g id="edge4" class="edge"><title>Node1&#45;&gt;Node3</title>
<path fill="none" stroke="midnightblue" d="M194.163,-21.7903C203.2,-20.9337 212.319,-20.0693 221.253,-19.2225"/>
<polygon fill="midnightblue" stroke="midnightblue" points="221.621,-22.7033 231.247,-18.2752 220.961,-15.7346 221.621,-22.7033"/>
</g>
</g>
</svg>
