<?xml version="1.0" encoding="UTF-8" standalone="no"?>
<!DOCTYPE svg PUBLIC "-//W3C//DTD SVG 1.1//EN"
 "http://www.w3.org/Graphics/SVG/1.1/DTD/svg11.dtd">
<!-- Generated by graphviz version 2.26.3 (20100126.1600)
 -->
<!-- Title: G Pages: 1 -->
<svg width="366pt" height="150pt"
 viewBox="0.00 0.00 366.00 150.00" xmlns="http://www.w3.org/2000/svg" xmlns:xlink="http://www.w3.org/1999/xlink">
<g id="graph1" class="graph" transform="scale(1 1) rotate(0) translate(4 146)">
<title>G</title>
<polygon fill="white" stroke="white" points="-4,5 -4,-146 363,-146 363,5 -4,5"/>
<!-- Node1 -->
<g id="node1" class="node"><title>Node1</title>
<polygon fill="#bfbfbf" stroke="black" points="0,-60.5 0,-81.5 122,-81.5 122,-60.5 0,-60.5"/>
<text text-anchor="middle" x="61" y="-68.5" font-family="Helvetica,sans-Serif" font-size="10.00">gfxShapedWord::Create</text>
</g>
<!-- Node2 -->
<g id="node3" class="node"><title>Node2</title>
<a xlink:href="../../d3/df6/namespacemozilla_1_1layers_1_1_compositable_map.html#aa82599b1b1ccdeb4aa199b742a63322b" target="_top" xlink:title="mozilla::layers::CompositableMap::Create">
<polygon fill="white" stroke="black" points="158,-120.5 158,-141.5 358,-141.5 358,-120.5 158,-120.5"/>
<text text-anchor="middle" x="258" y="-128.5" font-family="Helvetica,sans-Serif" font-size="10.00">mozilla::layers::CompositableMap::Create</text>
</a>
</g>
<!-- Node1&#45;&gt;Node2 -->
<g id="edge2" class="edge"><title>Node1&#45;&gt;Node2</title>
<path fill="none" stroke="midnightblue" d="M83.2832,-81.6412C102.658,-90.5392 131.676,-103.022 158,-111 166.929,-113.706 176.419,-116.145 185.86,-118.313"/>
<polygon fill="midnightblue" stroke="midnightblue" points="185.138,-121.738 195.657,-120.474 186.645,-114.902 185.138,-121.738"/>
</g>
<!-- Node3 -->
<g id="node5" class="node"><title>Node3</title>
<a xlink:href="../../dd/ddd/ns_readable_utils_8h.html#a3b680877c4b74851cc15baf4e5de621e" target="_top" xlink:title="LossyAppendUTF16toASCII">
<polygon fill="white" stroke="black" points="187.5,-80.5 187.5,-101.5 328.5,-101.5 328.5,-80.5 187.5,-80.5"/>
<text text-anchor="middle" x="258" y="-88.5" font-family="Helvetica,sans-Serif" font-size="10.00">LossyAppendUTF16toASCII</text>
</a>
</g>
<!-- Node1&#45;&gt;Node3 -->
<g id="edge4" class="edge"><title>Node1&#45;&gt;Node3</title>
<path fill="none" stroke="midnightblue" d="M122.252,-77.2185C139.692,-78.9891 158.959,-80.9451 177.365,-82.8137"/>
<polygon fill="midnightblue" stroke="midnightblue" points="177.182,-86.3131 187.485,-83.8411 177.89,-79.3489 177.182,-86.3131"/>
</g>
<!-- Node4 -->
<g id="node7" class="node"><title>Node4</title>
<a xlink:href="../../d1/d62/mozalloc_8h.html#a615e3dd0c7796ac7148882e691f71594" target="_top" xlink:title="moz_malloc">
<polygon fill="white" stroke="black" points="223.5,-40.5 223.5,-61.5 292.5,-61.5 292.5,-40.5 223.5,-40.5"/>
<text text-anchor="middle" x="258" y="-48.5" font-family="Helvetica,sans-Serif" font-size="10.00">moz_malloc</text>
</a>
</g>
<!-- Node1&#45;&gt;Node4 -->
<g id="edge6" class="edge"><title>Node1&#45;&gt;Node4</title>
<path fill="none" stroke="midnightblue" d="M122.252,-64.7815C151.667,-61.7952 186.28,-58.2812 213.192,-55.549"/>
<polygon fill="midnightblue" stroke="midnightblue" points="213.877,-58.9976 223.472,-54.5054 213.17,-52.0334 213.877,-58.9976"/>
</g>
<!-- Node5 -->
<g id="node9" class="node"><title>Node5</title>
<a xlink:href="../../dc/d10/ns_c_s_s_property_8h.html#a47e433676bb6902977b7a50bfe31f5fc" target="_top" xlink:title="offsetof">
<polygon fill="white" stroke="black" points="233,-0.5 233,-21.5 283,-21.5 283,-0.5 233,-0.5"/>
<text text-anchor="middle" x="258" y="-8.5" font-family="Helvetica,sans-Serif" font-size="10.00">offsetof</text>
</a>
</g>
<!-- Node1&#45;&gt;Node5 -->
<g id="edge8" class="edge"><title>Node1&#45;&gt;Node5</title>
<path fill="none" stroke="midnightblue" d="M83.2832,-60.3588C102.658,-51.4608 131.676,-38.9776 158,-31 179.113,-24.6015 203.365,-19.6935 222.697,-16.3409"/>
<polygon fill="midnightblue" stroke="midnightblue" points="223.312,-19.7868 232.597,-14.6844 222.157,-12.8828 223.312,-19.7868"/>
</g>
</g>
</svg>
