<?xml version="1.0" encoding="UTF-8" standalone="no"?>
<!DOCTYPE svg PUBLIC "-//W3C//DTD SVG 1.1//EN"
 "http://www.w3.org/Graphics/SVG/1.1/DTD/svg11.dtd">
<!-- Generated by graphviz version 2.26.3 (20100126.1600)
 -->
<!-- Title: G Pages: 1 -->
<svg width="266pt" height="146pt"
 viewBox="0.00 0.00 266.00 146.00" xmlns="http://www.w3.org/2000/svg" xmlns:xlink="http://www.w3.org/1999/xlink">
<g id="graph1" class="graph" transform="scale(1 1) rotate(0) translate(4 142)">
<title>G</title>
<polygon fill="white" stroke="white" points="-4,5 -4,-142 263,-142 263,5 -4,5"/>
<!-- Node1 -->
<g id="node1" class="node"><title>Node1</title>
<polygon fill="#bfbfbf" stroke="black" points="93.5,-116.5 93.5,-137.5 136.5,-137.5 136.5,-116.5 93.5,-116.5"/>
<text text-anchor="middle" x="115" y="-124.5" font-family="Helvetica,sans-Serif" font-size="10.00">utils.h</text>
</g>
<!-- Node2 -->
<g id="node3" class="node"><title>Node2</title>
<a xlink:href="../../da/d42/process_8h.html" target="_top" xlink:title="process.h">
<polygon fill="white" stroke="black" points="85.5,-58.5 85.5,-79.5 144.5,-79.5 144.5,-58.5 85.5,-58.5"/>
<text text-anchor="middle" x="115" y="-66.5" font-family="Helvetica,sans-Serif" font-size="10.00">process.h</text>
</a>
</g>
<!-- Node1&#45;&gt;Node2 -->
<g id="edge2" class="edge"><title>Node1&#45;&gt;Node2</title>
<path fill="none" stroke="midnightblue" d="M115,-106.191C115,-97.1684 115,-86.9941 115,-79.5707"/>
<polygon fill="midnightblue" stroke="midnightblue" points="111.5,-106.362 115,-116.362 118.5,-106.362 111.5,-106.362"/>
</g>
<!-- Node3 -->
<g id="node5" class="node"><title>Node3</title>
<a xlink:href="../../d0/d91/b2g-info_8cpp.html" target="_top" xlink:title="b2g&#45;info.cpp">
<polygon fill="white" stroke="black" points="0,-0.5 0,-21.5 70,-21.5 70,-0.5 0,-0.5"/>
<text text-anchor="middle" x="35" y="-8.5" font-family="Helvetica,sans-Serif" font-size="10.00">b2g&#45;info.cpp</text>
</a>
</g>
<!-- Node1&#45;&gt;Node3 -->
<g id="edge10" class="edge"><title>Node1&#45;&gt;Node3</title>
<path fill="none" stroke="midnightblue" d="M99.2508,-108.689C92.1741,-100.172 83.8855,-89.7817 77,-80 62.9543,-60.0463 48.599,-35.3409 40.8437,-21.5612"/>
<polygon fill="midnightblue" stroke="midnightblue" points="96.7052,-111.099 105.827,-116.489 102.057,-106.588 96.7052,-111.099"/>
</g>
<!-- Node6 -->
<g id="node12" class="node"><title>Node6</title>
<a xlink:href="../../de/d06/utils_8cpp.html" target="_top" xlink:title="utils.cpp">
<polygon fill="white" stroke="black" points="161.5,-58.5 161.5,-79.5 214.5,-79.5 214.5,-58.5 161.5,-58.5"/>
<text text-anchor="middle" x="188" y="-66.5" font-family="Helvetica,sans-Serif" font-size="10.00">utils.cpp</text>
</a>
</g>
<!-- Node1&#45;&gt;Node6 -->
<g id="edge12" class="edge"><title>Node1&#45;&gt;Node6</title>
<path fill="none" stroke="midnightblue" d="M136.428,-109.975C148.817,-100.132 164.018,-88.0545 174.696,-79.5707"/>
<polygon fill="midnightblue" stroke="midnightblue" points="134.042,-107.401 128.389,-116.362 138.396,-112.881 134.042,-107.401"/>
</g>
<!-- Node2&#45;&gt;Node3 -->
<g id="edge4" class="edge"><title>Node2&#45;&gt;Node3</title>
<path fill="none" stroke="midnightblue" d="M91.9085,-52.2587C78.2608,-42.3641 61.3946,-30.1361 49.5802,-21.5707"/>
<polygon fill="midnightblue" stroke="midnightblue" points="90.1762,-55.3258 100.327,-58.3619 94.285,-49.6585 90.1762,-55.3258"/>
</g>
<!-- Node4 -->
<g id="node7" class="node"><title>Node4</title>
<a xlink:href="../../d0/d4c/process_8cpp.html" target="_top" xlink:title="process.cpp">
<polygon fill="white" stroke="black" points="88,-0.5 88,-21.5 158,-21.5 158,-0.5 88,-0.5"/>
<text text-anchor="middle" x="123" y="-8.5" font-family="Helvetica,sans-Serif" font-size="10.00">process.cpp</text>
</a>
</g>
<!-- Node2&#45;&gt;Node4 -->
<g id="edge6" class="edge"><title>Node2&#45;&gt;Node4</title>
<path fill="none" stroke="midnightblue" d="M117.87,-48.1906C119.115,-39.1684 120.518,-28.9941 121.542,-21.5707"/>
<polygon fill="midnightblue" stroke="midnightblue" points="114.367,-47.9774 116.467,-58.3619 121.301,-48.934 114.367,-47.9774"/>
</g>
<!-- Node5 -->
<g id="node9" class="node"><title>Node5</title>
<a xlink:href="../../d1/d7b/processlist_8cpp.html" target="_top" xlink:title="processlist.cpp">
<polygon fill="white" stroke="black" points="175.5,-0.5 175.5,-21.5 258.5,-21.5 258.5,-0.5 175.5,-0.5"/>
<text text-anchor="middle" x="217" y="-8.5" font-family="Helvetica,sans-Serif" font-size="10.00">processlist.cpp</text>
</a>
</g>
<!-- Node2&#45;&gt;Node5 -->
<g id="edge8" class="edge"><title>Node2&#45;&gt;Node5</title>
<path fill="none" stroke="midnightblue" d="M142.471,-53.379C160.195,-43.3011 182.773,-30.4624 198.41,-21.5707"/>
<polygon fill="midnightblue" stroke="midnightblue" points="140.671,-50.3763 133.708,-58.3619 144.131,-56.4614 140.671,-50.3763"/>
</g>
</g>
</svg>
