<?xml version="1.0" encoding="UTF-8" standalone="no"?>
<!DOCTYPE svg PUBLIC "-//W3C//DTD SVG 1.1//EN"
 "http://www.w3.org/Graphics/SVG/1.1/DTD/svg11.dtd">
<!-- Generated by graphviz version 2.26.3 (20100126.1600)
 -->
<!-- Title: G Pages: 1 -->
<svg width="208pt" height="262pt"
 viewBox="0.00 0.00 208.00 262.00" xmlns="http://www.w3.org/2000/svg" xmlns:xlink="http://www.w3.org/1999/xlink">
<g id="graph1" class="graph" transform="scale(1 1) rotate(0) translate(4 258)">
<title>G</title>
<polygon fill="white" stroke="white" points="-4,5 -4,-258 205,-258 205,5 -4,5"/>
<!-- Node1 -->
<g id="node1" class="node"><title>Node1</title>
<polygon fill="#bfbfbf" stroke="black" points="0,-0.5 0,-21.5 200,-21.5 200,-0.5 0,-0.5"/>
<text text-anchor="middle" x="100" y="-8.5" font-family="Helvetica,sans-Serif" font-size="10.00">mozilla::dom::AnimationEventInitInitializer</text>
</g>
<!-- Node2 -->
<g id="node2" class="node"><title>Node2</title>
<a xlink:href="../../d5/d77/structmozilla_1_1dom_1_1_animation_event_init.html" target="_top" xlink:title="mozilla::dom::AnimationEventInit">
<polygon fill="white" stroke="black" points="19.5,-58.5 19.5,-79.5 180.5,-79.5 180.5,-58.5 19.5,-58.5"/>
<text text-anchor="middle" x="100" y="-66.5" font-family="Helvetica,sans-Serif" font-size="10.00">mozilla::dom::AnimationEventInit</text>
</a>
</g>
<!-- Node2&#45;&gt;Node1 -->
<g id="edge2" class="edge"><title>Node2&#45;&gt;Node1</title>
<path fill="none" stroke="midnightblue" d="M100,-48.1906C100,-39.1684 100,-28.9941 100,-21.5707"/>
<polygon fill="midnightblue" stroke="midnightblue" points="96.5001,-48.3619 100,-58.3619 103.5,-48.3619 96.5001,-48.3619"/>
</g>
<!-- Node3 -->
<g id="node4" class="node"><title>Node3</title>
<a xlink:href="../../d8/d68/structmozilla_1_1dom_1_1_event_init.html" target="_top" xlink:title="mozilla::dom::EventInit">
<polygon fill="white" stroke="black" points="41.5,-116.5 41.5,-137.5 158.5,-137.5 158.5,-116.5 41.5,-116.5"/>
<text text-anchor="middle" x="100" y="-124.5" font-family="Helvetica,sans-Serif" font-size="10.00">mozilla::dom::EventInit</text>
</a>
</g>
<!-- Node3&#45;&gt;Node2 -->
<g id="edge4" class="edge"><title>Node3&#45;&gt;Node2</title>
<path fill="none" stroke="midnightblue" d="M100,-106.191C100,-97.1684 100,-86.9941 100,-79.5707"/>
<polygon fill="midnightblue" stroke="midnightblue" points="96.5001,-106.362 100,-116.362 103.5,-106.362 96.5001,-106.362"/>
</g>
<!-- Node4 -->
<g id="node6" class="node"><title>Node4</title>
<a xlink:href="../../d5/d9f/structmozilla_1_1dom_1_1_main_thread_dictionary_base.html" target="_top" xlink:title="mozilla::dom::MainThreadDictionaryBase">
<polygon fill="white" stroke="black" points="2,-174.5 2,-195.5 198,-195.5 198,-174.5 2,-174.5"/>
<text text-anchor="middle" x="100" y="-182.5" font-family="Helvetica,sans-Serif" font-size="10.00">mozilla::dom::MainThreadDictionaryBase</text>
</a>
</g>
<!-- Node4&#45;&gt;Node3 -->
<g id="edge6" class="edge"><title>Node4&#45;&gt;Node3</title>
<path fill="none" stroke="midnightblue" d="M100,-164.191C100,-155.168 100,-144.994 100,-137.571"/>
<polygon fill="midnightblue" stroke="midnightblue" points="96.5001,-164.362 100,-174.362 103.5,-164.362 96.5001,-164.362"/>
</g>
<!-- Node5 -->
<g id="node8" class="node"><title>Node5</title>
<a xlink:href="../../d6/d60/structmozilla_1_1dom_1_1_dictionary_base.html" target="_top" xlink:title="mozilla::dom::DictionaryBase">
<polygon fill="white" stroke="black" points="27.5,-232.5 27.5,-253.5 172.5,-253.5 172.5,-232.5 27.5,-232.5"/>
<text text-anchor="middle" x="100" y="-240.5" font-family="Helvetica,sans-Serif" font-size="10.00">mozilla::dom::DictionaryBase</text>
</a>
</g>
<!-- Node5&#45;&gt;Node4 -->
<g id="edge8" class="edge"><title>Node5&#45;&gt;Node4</title>
<path fill="none" stroke="midnightblue" d="M100,-222.191C100,-213.168 100,-202.994 100,-195.571"/>
<polygon fill="midnightblue" stroke="midnightblue" points="96.5001,-222.362 100,-232.362 103.5,-222.362 96.5001,-222.362"/>
</g>
</g>
</svg>
