<?xml version="1.0" encoding="UTF-8" standalone="no"?>
<!DOCTYPE svg PUBLIC "-//W3C//DTD SVG 1.1//EN"
 "http://www.w3.org/Graphics/SVG/1.1/DTD/svg11.dtd">
<!-- Generated by graphviz version 2.26.3 (20100126.1600)
 -->
<!-- Title: G Pages: 1 -->
<!--zoomable 213 -->
<svg id="main" version="1.1" xmlns="http://www.w3.org/2000/svg" xmlns:xlink="http://www.w3.org/1999/xlink" xml:space="preserve" onload="init(evt)">
        <defs>
                <circle id="rim" cx="0" cy="0" r="7"/>
                <circle id="rim2" cx="0" cy="0" r="3.5"/>
                <g id="zoomPlus">
                        <use xlink:href="#rim" fill="#404040">
                                <set attributeName="fill" to="#808080" begin="zoomplus.mouseover" end="zoomplus.mouseout"/>
                        </use>
                        <path d="M-4,0h8M0,-4v8" fill="none" stroke="white" stroke-width="1.5" pointer-events="none"/>
                </g>
                <g id="zoomMin">
                        <use xlink:href="#rim" fill="#404040">
                                <set attributeName="fill" to="#808080" begin="zoomminus.mouseover" end="zoomminus.mouseout"/>
                        </use>
                        <path d="M-4,0h8" fill="none" stroke="white" stroke-width="1.5" pointer-events="none"/>
                </g>
                <g id="dirArrow">
                        <path fill="none" stroke="white" stroke-width="1.5" d="M0,-3.0v7 M-2.5,-0.5L0,-3.0L2.5,-0.5"/>
                </g>
               <g id="resetDef">
                       <use xlink:href="#rim2" fill="#404040">
                               <set attributeName="fill" to="#808080" begin="reset.mouseover" end="reset.mouseout"/>
                       </use>
               </g>
        </defs>

<script type="text/javascript">
var viewWidth = 688;
var viewHeight = 213;
var sectionId = 'dynsection-4';
</script>
<script xlink:href="../../svgpan.js"/>
<svg id="graph" class="graph">
<g id="viewport">
<title>G</title>
<polygon fill="white" stroke="white" points="-4,5 -4,-208.703 685,-208.703 685,5 -4,5"/>
<!-- Node1 -->
<g id="node1" class="node"><title>Node1</title>
<polygon fill="#bfbfbf" stroke="black" points="0.5,-100.5 0.5,-121.5 251.5,-121.5 251.5,-100.5 0.5,-100.5"/>
<text text-anchor="middle" x="126" y="-108.5" font-family="Helvetica,sans-Serif" font-size="10.00">nsDisplayItem::ComputeInvalidationRegionDifference</text>
</g>
<!-- Node2 -->
<g id="node3" class="node"><title>Node2</title>
<a xlink:href="../../db/d9b/classns_display_item.html#a09d78bf13081dd2c56c1c24d44f1bed4" target="_top" xlink:title="nsDisplayItem::Frame">
<polygon fill="white" stroke="black" points="538.5,-179.5 538.5,-200.5 651.5,-200.5 651.5,-179.5 538.5,-179.5"/>
<text text-anchor="middle" x="595" y="-187.5" font-family="Helvetica,sans-Serif" font-size="10.00">nsDisplayItem::Frame</text>
</a>
</g>
<!-- Node1&#45;&gt;Node2 -->
<g id="edge2" class="edge"><title>Node1&#45;&gt;Node2</title>
<path fill="none" stroke="midnightblue" d="M141.178,-121.509C168.838,-139.946 229.962,-177.451 288,-191 369.001,-209.91 465.334,-205.393 528.203,-198.984"/>
<polygon fill="midnightblue" stroke="midnightblue" points="528.811,-202.439 538.384,-197.9 528.069,-195.478 528.811,-202.439"/>
</g>
<!-- Node3 -->
<g id="node5" class="node"><title>Node3</title>
<a xlink:href="../../d7/d20/classns_i_frame.html#aba76cf8fd47f098cdb7893590835b51c" target="_top" xlink:title="nsIFrame::GetBorderRadii">
<polygon fill="white" stroke="black" points="315.5,-160.5 315.5,-181.5 446.5,-181.5 446.5,-160.5 315.5,-160.5"/>
<text text-anchor="middle" x="381" y="-168.5" font-family="Helvetica,sans-Serif" font-size="10.00">nsIFrame::GetBorderRadii</text>
</a>
</g>
<!-- Node1&#45;&gt;Node3 -->
<g id="edge4" class="edge"><title>Node1&#45;&gt;Node3</title>
<path fill="none" stroke="midnightblue" d="M167.2,-121.538C199.893,-129.811 246.789,-141.483 288,-151 298.595,-153.447 309.892,-155.958 320.83,-158.339"/>
<polygon fill="midnightblue" stroke="midnightblue" points="320.228,-161.789 330.742,-160.483 321.708,-154.948 320.228,-161.789"/>
</g>
<!-- Node4 -->
<g id="node7" class="node"><title>Node4</title>
<a xlink:href="../../db/d9b/classns_display_item.html#a354daf337df751ffd6e712f5cf2f2b40" target="_top" xlink:title="nsDisplayItem::GetBounds">
<polygon fill="white" stroke="black" points="314,-120.5 314,-141.5 448,-141.5 448,-120.5 314,-120.5"/>
<text text-anchor="middle" x="381" y="-128.5" font-family="Helvetica,sans-Serif" font-size="10.00">nsDisplayItem::GetBounds</text>
</a>
</g>
<!-- Node1&#45;&gt;Node4 -->
<g id="edge6" class="edge"><title>Node1&#45;&gt;Node4</title>
<path fill="none" stroke="midnightblue" d="M251.632,-120.854C269.435,-122.25 287.286,-123.65 303.797,-124.945"/>
<polygon fill="midnightblue" stroke="midnightblue" points="303.649,-128.444 313.892,-125.737 304.196,-121.465 303.649,-128.444"/>
</g>
<!-- Node6 -->
<g id="node12" class="node"><title>Node6</title>
<a xlink:href="../../dc/db8/structmozilla_1_1gfx_1_1_base_rect.html#aa73c9818634a416ded6d10a3da1caf50" target="_top" xlink:title="mozilla::gfx::BaseRect::IsEqualInterior">
<polygon fill="white" stroke="black" points="288.5,-80.5 288.5,-101.5 473.5,-101.5 473.5,-80.5 288.5,-80.5"/>
<text text-anchor="middle" x="381" y="-88.5" font-family="Helvetica,sans-Serif" font-size="10.00">mozilla::gfx::BaseRect::IsEqualInterior</text>
</a>
</g>
<!-- Node1&#45;&gt;Node6 -->
<g id="edge12" class="edge"><title>Node1&#45;&gt;Node6</title>
<path fill="none" stroke="midnightblue" d="M251.632,-101.146C260.487,-100.452 269.355,-99.7565 278.063,-99.0735"/>
<polygon fill="midnightblue" stroke="midnightblue" points="278.507,-102.55 288.202,-98.2783 277.959,-95.571 278.507,-102.55"/>
</g>
<!-- Node7 -->
<g id="node14" class="node"><title>Node7</title>
<a xlink:href="../../d9/df6/classns_region.html#a23726ce30a9ea76581f91483ea40deeb" target="_top" xlink:title="nsRegion::Or">
<polygon fill="white" stroke="black" points="344,-40.5 344,-61.5 418,-61.5 418,-40.5 344,-40.5"/>
<text text-anchor="middle" x="381" y="-48.5" font-family="Helvetica,sans-Serif" font-size="10.00">nsRegion::Or</text>
</a>
</g>
<!-- Node1&#45;&gt;Node7 -->
<g id="edge14" class="edge"><title>Node1&#45;&gt;Node7</title>
<path fill="none" stroke="midnightblue" d="M167.2,-100.462C199.893,-92.1888 246.789,-80.5168 288,-71 302.905,-67.5581 319.199,-63.9886 333.925,-60.8345"/>
<polygon fill="midnightblue" stroke="midnightblue" points="334.783,-64.2305 343.834,-58.7239 333.324,-57.3841 334.783,-64.2305"/>
</g>
<!-- Node8 -->
<g id="node16" class="node"><title>Node8</title>
<a xlink:href="../../d9/df6/classns_region.html#ab4464a5607385ca0c853da35f19c1e14" target="_top" xlink:title="nsRegion::Xor">
<polygon fill="white" stroke="black" points="341.5,-0.5 341.5,-21.5 420.5,-21.5 420.5,-0.5 341.5,-0.5"/>
<text text-anchor="middle" x="381" y="-8.5" font-family="Helvetica,sans-Serif" font-size="10.00">nsRegion::Xor</text>
</a>
</g>
<!-- Node1&#45;&gt;Node8 -->
<g id="edge16" class="edge"><title>Node1&#45;&gt;Node8</title>
<path fill="none" stroke="midnightblue" d="M143.826,-100.358C173.002,-83.3691 233.201,-50.0928 288,-31 301.804,-26.1903 317.181,-22.3156 331.392,-19.3043"/>
<polygon fill="midnightblue" stroke="midnightblue" points="332.387,-22.6743 341.495,-17.2632 331,-15.8129 332.387,-22.6743"/>
</g>
<!-- Node4&#45;&gt;Node2 -->
<g id="edge10" class="edge"><title>Node4&#45;&gt;Node2</title>
<path fill="none" stroke="midnightblue" d="M434.334,-141.512C447.371,-144.345 461.238,-147.58 474,-151 501.422,-158.348 531.834,-168.158 555.309,-176.1"/>
<polygon fill="midnightblue" stroke="midnightblue" points="554.322,-179.461 564.916,-179.377 556.581,-172.836 554.322,-179.461"/>
</g>
<!-- Node5 -->
<g id="node9" class="node"><title>Node5</title>
<a xlink:href="../../db/d9b/classns_display_item.html#ac72fa0bfb6db872125966b9322114dee" target="_top" xlink:title="nsDisplayItem::ToReferenceFrame">
<polygon fill="white" stroke="black" points="510,-120.5 510,-141.5 680,-141.5 680,-120.5 510,-120.5"/>
<text text-anchor="middle" x="595" y="-128.5" font-family="Helvetica,sans-Serif" font-size="10.00">nsDisplayItem::ToReferenceFrame</text>
</a>
</g>
<!-- Node4&#45;&gt;Node5 -->
<g id="edge8" class="edge"><title>Node4&#45;&gt;Node5</title>
<path fill="none" stroke="midnightblue" d="M448.124,-131C464.518,-131 482.37,-131 499.8,-131"/>
<polygon fill="midnightblue" stroke="midnightblue" points="499.999,-134.5 509.999,-131 499.999,-127.5 499.999,-134.5"/>
</g>
</g>
</svg>
        <g id="navigator" transform="translate(0 0)" fill="#404254">
                <rect fill="#f2f5e9" fill-opacity="0.5" stroke="#606060" stroke-width=".5" x="0" y="0" width="60" height="60"/>
                <use id="zoomplus" xlink:href="#zoomPlus" x="17" y="9" onmousedown="handleZoom(evt,'in')"/>
                <use id="zoomminus" xlink:href="#zoomMin" x="42" y="9" onmousedown="handleZoom(evt,'out')"/>
                <use id="reset" xlink:href="#resetDef" x="30" y="36" onmousedown="handleReset()"/>
                <g id="arrowUp" xlink:href="#dirArrow" transform="translate(30 24)" onmousedown="handlePan(0,-1)">
                  <use xlink:href="#rim" fill="#404040">
                        <set attributeName="fill" to="#808080" begin="arrowUp.mouseover" end="arrowUp.mouseout"/>
                  </use>
                  <path fill="none" stroke="white" stroke-width="1.5" d="M0,-3.0v7 M-2.5,-0.5L0,-3.0L2.5,-0.5"/>
                </g>
                <g id="arrowRight" xlink:href="#dirArrow" transform="rotate(90) translate(36 -43)" onmousedown="handlePan(1,0)">
                  <use xlink:href="#rim" fill="#404040">
                        <set attributeName="fill" to="#808080" begin="arrowRight.mouseover" end="arrowRight.mouseout"/>
                  </use>
                  <path fill="none" stroke="white" stroke-width="1.5" d="M0,-3.0v7 M-2.5,-0.5L0,-3.0L2.5,-0.5"/>
                </g>
                <g id="arrowDown" xlink:href="#dirArrow" transform="rotate(180) translate(-30 -48)" onmousedown="handlePan(0,1)">
                  <use xlink:href="#rim" fill="#404040">
                        <set attributeName="fill" to="#808080" begin="arrowDown.mouseover" end="arrowDown.mouseout"/>
                  </use>
                  <path fill="none" stroke="white" stroke-width="1.5" d="M0,-3.0v7 M-2.5,-0.5L0,-3.0L2.5,-0.5"/>
                </g>
                <g id="arrowLeft" xlink:href="#dirArrow" transform="rotate(270) translate(-36 17)" onmousedown="handlePan(-1,0)">
                  <use xlink:href="#rim" fill="#404040">
                        <set attributeName="fill" to="#808080" begin="arrowLeft.mouseover" end="arrowLeft.mouseout"/>
                  </use>
                  <path fill="none" stroke="white" stroke-width="1.5" d="M0,-3.0v7 M-2.5,-0.5L0,-3.0L2.5,-0.5"/>
                </g>
        </g>
</svg>
