<?xml version="1.0" encoding="UTF-8" standalone="no"?>
<!DOCTYPE svg PUBLIC "-//W3C//DTD SVG 1.1//EN"
 "http://www.w3.org/Graphics/SVG/1.1/DTD/svg11.dtd">
<!-- Generated by graphviz version 2.26.3 (20100126.1600)
 -->
<!-- Title: G Pages: 1 -->
<svg width="348pt" height="70pt"
 viewBox="0.00 0.00 348.00 70.00" xmlns="http://www.w3.org/2000/svg" xmlns:xlink="http://www.w3.org/1999/xlink">
<g id="graph1" class="graph" transform="scale(1 1) rotate(0) translate(4 66)">
<title>G</title>
<polygon fill="white" stroke="white" points="-4,5 -4,-66 345,-66 345,5 -4,5"/>
<!-- Node1 -->
<g id="node1" class="node"><title>Node1</title>
<polygon fill="#bfbfbf" stroke="black" points="0,-20.5 0,-41.5 134,-41.5 134,-20.5 0,-20.5"/>
<text text-anchor="middle" x="67" y="-28.5" font-family="Helvetica,sans-Serif" font-size="10.00">nsDisplayItem::GetBounds</text>
</g>
<!-- Node2 -->
<g id="node3" class="node"><title>Node2</title>
<a xlink:href="../../db/d9b/classns_display_item.html#a09d78bf13081dd2c56c1c24d44f1bed4" target="_top" xlink:title="nsDisplayItem::Frame">
<polygon fill="white" stroke="black" points="198.5,-40.5 198.5,-61.5 311.5,-61.5 311.5,-40.5 198.5,-40.5"/>
<text text-anchor="middle" x="255" y="-48.5" font-family="Helvetica,sans-Serif" font-size="10.00">nsDisplayItem::Frame</text>
</a>
</g>
<!-- Node1&#45;&gt;Node2 -->
<g id="edge2" class="edge"><title>Node1&#45;&gt;Node2</title>
<path fill="none" stroke="midnightblue" d="M134.076,-38.1358C151.618,-40.0019 170.526,-42.0134 188.061,-43.8788"/>
<polygon fill="midnightblue" stroke="midnightblue" points="187.892,-47.3805 198.206,-44.9581 188.632,-40.4198 187.892,-47.3805"/>
</g>
<!-- Node3 -->
<g id="node5" class="node"><title>Node3</title>
<a xlink:href="../../db/d9b/classns_display_item.html#ac72fa0bfb6db872125966b9322114dee" target="_top" xlink:title="nsDisplayItem::ToReferenceFrame">
<polygon fill="white" stroke="black" points="170,-0.5 170,-21.5 340,-21.5 340,-0.5 170,-0.5"/>
<text text-anchor="middle" x="255" y="-8.5" font-family="Helvetica,sans-Serif" font-size="10.00">nsDisplayItem::ToReferenceFrame</text>
</a>
</g>
<!-- Node1&#45;&gt;Node3 -->
<g id="edge4" class="edge"><title>Node1&#45;&gt;Node3</title>
<path fill="none" stroke="midnightblue" d="M134.076,-23.8642C142.413,-22.9773 151.059,-22.0575 159.719,-21.1362"/>
<polygon fill="midnightblue" stroke="midnightblue" points="160.301,-24.5942 169.875,-20.0559 159.561,-17.6334 160.301,-24.5942"/>
</g>
</g>
</svg>
