<?xml version="1.0" encoding="UTF-8" standalone="no"?>
<!DOCTYPE svg PUBLIC "-//W3C//DTD SVG 1.1//EN"
 "http://www.w3.org/Graphics/SVG/1.1/DTD/svg11.dtd">
<!-- Generated by graphviz version 2.26.3 (20100126.1600)
 -->
<!-- Title: G Pages: 1 -->
<!--zoomable 190 -->
<svg id="main" version="1.1" xmlns="http://www.w3.org/2000/svg" xmlns:xlink="http://www.w3.org/1999/xlink" xml:space="preserve" onload="init(evt)">
        <defs>
                <circle id="rim" cx="0" cy="0" r="7"/>
                <circle id="rim2" cx="0" cy="0" r="3.5"/>
                <g id="zoomPlus">
                        <use xlink:href="#rim" fill="#404040">
                                <set attributeName="fill" to="#808080" begin="zoomplus.mouseover" end="zoomplus.mouseout"/>
                        </use>
                        <path d="M-4,0h8M0,-4v8" fill="none" stroke="white" stroke-width="1.5" pointer-events="none"/>
                </g>
                <g id="zoomMin">
                        <use xlink:href="#rim" fill="#404040">
                                <set attributeName="fill" to="#808080" begin="zoomminus.mouseover" end="zoomminus.mouseout"/>
                        </use>
                        <path d="M-4,0h8" fill="none" stroke="white" stroke-width="1.5" pointer-events="none"/>
                </g>
                <g id="dirArrow">
                        <path fill="none" stroke="white" stroke-width="1.5" d="M0,-3.0v7 M-2.5,-0.5L0,-3.0L2.5,-0.5"/>
                </g>
               <g id="resetDef">
                       <use xlink:href="#rim2" fill="#404040">
                               <set attributeName="fill" to="#808080" begin="reset.mouseover" end="reset.mouseout"/>
                       </use>
               </g>
        </defs>

<script type="text/javascript">
var viewWidth = 814;
var viewHeight = 190;
var sectionId = 'dynsection-11';
</script>
<script xlink:href="../../svgpan.js"/>
<svg id="graph" class="graph">
<g id="viewport">
<title>G</title>
<polygon fill="white" stroke="white" points="-4,5 -4,-186 811,-186 811,5 -4,5"/>
<!-- Node1 -->
<g id="node1" class="node"><title>Node1</title>
<polygon fill="#bfbfbf" stroke="black" points="0,-80.5 0,-101.5 162,-101.5 162,-80.5 0,-80.5"/>
<text text-anchor="middle" x="81" y="-88.5" font-family="Helvetica,sans-Serif" font-size="10.00">nsWrapperCache::IsDOMBinding</text>
</g>
<!-- Node2 -->
<g id="node3" class="node"><title>Node2</title>
<a xlink:href="../../d7/d4b/namespacemozilla_1_1dom.html#a8fddbda170bb7e4c514763ca68aea1a4" target="_top" xlink:title="mozilla::dom::CouldBeDOMBinding">
<polygon fill="white" stroke="black" points="223.5,-160.5 223.5,-181.5 394.5,-181.5 394.5,-160.5 223.5,-160.5"/>
<text text-anchor="middle" x="309" y="-168.5" font-family="Helvetica,sans-Serif" font-size="10.00">mozilla::dom::CouldBeDOMBinding</text>
</a>
</g>
<!-- Node1&#45;&gt;Node2 -->
<g id="edge2" class="edge"><title>Node1&#45;&gt;Node2</title>
<path fill="none" stroke="midnightblue" d="M106.543,-106.909C129.617,-120.584 164.929,-139.818 198,-151 209.222,-154.795 221.34,-157.913 233.303,-160.462"/>
<polygon fill="midnightblue" stroke="midnightblue" points="108.113,-103.768 97.7407,-101.608 104.502,-109.765 108.113,-103.768"/>
</g>
<!-- Node3 -->
<g id="node5" class="node"><title>Node3</title>
<a xlink:href="../../d0/d7e/classns_wrapper_cache.html#ae457594e56fc3c6aab5a903f3bda54da" target="_top" xlink:title="nsWrapperCache::SetHasSystemOnlyWrapper">
<polygon fill="white" stroke="black" points="198,-120.5 198,-141.5 420,-141.5 420,-120.5 198,-120.5"/>
<text text-anchor="middle" x="309" y="-128.5" font-family="Helvetica,sans-Serif" font-size="10.00">nsWrapperCache::SetHasSystemOnlyWrapper</text>
</a>
</g>
<!-- Node1&#45;&gt;Node3 -->
<g id="edge4" class="edge"><title>Node1&#45;&gt;Node3</title>
<path fill="none" stroke="midnightblue" d="M150.899,-103.263C182.301,-108.772 218.98,-115.207 249.1,-120.491"/>
<polygon fill="midnightblue" stroke="midnightblue" points="151.359,-99.7903 140.904,-101.51 150.149,-106.685 151.359,-99.7903"/>
</g>
<!-- Node5 -->
<g id="node9" class="node"><title>Node5</title>
<a xlink:href="../../d7/de8/classns_i_node.html#ae5b2e54a20c02a31ab74cbe9787780bf" target="_top" xlink:title="nsINode::WrapNode">
<polygon fill="white" stroke="black" points="256,-80.5 256,-101.5 362,-101.5 362,-80.5 256,-80.5"/>
<text text-anchor="middle" x="309" y="-88.5" font-family="Helvetica,sans-Serif" font-size="10.00">nsINode::WrapNode</text>
</a>
</g>
<!-- Node1&#45;&gt;Node5 -->
<g id="edge8" class="edge"><title>Node1&#45;&gt;Node5</title>
<path fill="none" stroke="midnightblue" d="M172.347,-91C200.635,-91 230.862,-91 255.677,-91"/>
<polygon fill="midnightblue" stroke="midnightblue" points="172.026,-87.5001 162.026,-91 172.026,-94.5001 172.026,-87.5001"/>
</g>
<!-- Node6 -->
<g id="node11" class="node"><title>Node6</title>
<a xlink:href="../../d0/d7e/classns_wrapper_cache.html#a4a56acbd17dcedaa9a442f385728c6af" target="_top" xlink:title="nsWrapperCache::WrapObject">
<polygon fill="white" stroke="black" points="234,-40.5 234,-61.5 384,-61.5 384,-40.5 234,-40.5"/>
<text text-anchor="middle" x="309" y="-48.5" font-family="Helvetica,sans-Serif" font-size="10.00">nsWrapperCache::WrapObject</text>
</a>
</g>
<!-- Node1&#45;&gt;Node6 -->
<g id="edge10" class="edge"><title>Node1&#45;&gt;Node6</title>
<path fill="none" stroke="midnightblue" d="M150.899,-78.737C182.301,-73.2279 218.98,-66.7929 249.1,-61.5087"/>
<polygon fill="midnightblue" stroke="midnightblue" points="150.149,-75.315 140.904,-80.4905 151.359,-82.2097 150.149,-75.315"/>
</g>
<!-- Node7 -->
<g id="node13" class="node"><title>Node7</title>
<a xlink:href="../../dd/d29/xpcpublic_8h.html#ab2df673a315c40d5662f787a9b95de05" target="_top" xlink:title="xpc_FastGetCachedWrapper">
<polygon fill="white" stroke="black" points="237.5,-0.5 237.5,-21.5 380.5,-21.5 380.5,-0.5 237.5,-0.5"/>
<text text-anchor="middle" x="309" y="-8.5" font-family="Helvetica,sans-Serif" font-size="10.00">xpc_FastGetCachedWrapper</text>
</a>
</g>
<!-- Node1&#45;&gt;Node7 -->
<g id="edge12" class="edge"><title>Node1&#45;&gt;Node7</title>
<path fill="none" stroke="midnightblue" d="M106.543,-75.0915C129.617,-61.4162 164.929,-42.1822 198,-31 210.521,-26.7663 224.156,-23.3748 237.447,-20.6757"/>
<polygon fill="midnightblue" stroke="midnightblue" points="104.502,-72.2349 97.7407,-80.3918 108.113,-78.2317 104.502,-72.2349"/>
</g>
<!-- Node4 -->
<g id="node7" class="node"><title>Node4</title>
<a xlink:href="../../d7/d4b/namespacemozilla_1_1dom.html#a177f8acab149bb17211be401ceb034da" target="_top" xlink:title="mozilla::dom::SetSystemOnlyWrapper">
<polygon fill="white" stroke="black" points="456,-120.5 456,-141.5 640,-141.5 640,-120.5 456,-120.5"/>
<text text-anchor="middle" x="548" y="-128.5" font-family="Helvetica,sans-Serif" font-size="10.00">mozilla::dom::SetSystemOnlyWrapper</text>
</a>
</g>
<!-- Node3&#45;&gt;Node4 -->
<g id="edge6" class="edge"><title>Node3&#45;&gt;Node4</title>
<path fill="none" stroke="midnightblue" d="M430.199,-131C438.804,-131 447.397,-131 455.799,-131"/>
<polygon fill="midnightblue" stroke="midnightblue" points="430.104,-127.5 420.104,-131 430.104,-134.5 430.104,-127.5"/>
</g>
<!-- Node8 -->
<g id="node15" class="node"><title>Node8</title>
<a xlink:href="../../d7/d4b/namespacemozilla_1_1dom.html#a0c1b6eb7dc87d20bf7ad4b99af954c20" target="_top" xlink:title="mozilla::dom::WrapObject">
<polygon fill="white" stroke="black" points="483,-0.5 483,-21.5 613,-21.5 613,-0.5 483,-0.5"/>
<text text-anchor="middle" x="548" y="-8.5" font-family="Helvetica,sans-Serif" font-size="10.00">mozilla::dom::WrapObject</text>
</a>
</g>
<!-- Node7&#45;&gt;Node8 -->
<g id="edge14" class="edge"><title>Node7&#45;&gt;Node8</title>
<path fill="none" stroke="midnightblue" d="M390.756,-11C420.826,-11 454.448,-11 482.86,-11"/>
<polygon fill="midnightblue" stroke="midnightblue" points="390.708,-7.5001 380.708,-11 390.708,-14.5001 390.708,-7.5001"/>
</g>
<!-- Node9 -->
<g id="node17" class="node"><title>Node9</title>
<a xlink:href="../../d7/d4b/namespacemozilla_1_1dom.html#a30c18642d147fe9689638dcc538e2c09" target="_top" xlink:title="mozilla::dom::WrapObject">
<polygon fill="white" stroke="black" points="676,-0.5 676,-21.5 806,-21.5 806,-0.5 676,-0.5"/>
<text text-anchor="middle" x="741" y="-8.5" font-family="Helvetica,sans-Serif" font-size="10.00">mozilla::dom::WrapObject</text>
</a>
</g>
<!-- Node8&#45;&gt;Node9 -->
<g id="edge16" class="edge"><title>Node8&#45;&gt;Node9</title>
<path fill="none" stroke="midnightblue" d="M623.185,-11C640.584,-11 658.956,-11 675.882,-11"/>
<polygon fill="midnightblue" stroke="midnightblue" points="623.072,-7.5001 613.072,-11 623.072,-14.5001 623.072,-7.5001"/>
</g>
</g>
</svg>
        <g id="navigator" transform="translate(0 0)" fill="#404254">
                <rect fill="#f2f5e9" fill-opacity="0.5" stroke="#606060" stroke-width=".5" x="0" y="0" width="60" height="60"/>
                <use id="zoomplus" xlink:href="#zoomPlus" x="17" y="9" onmousedown="handleZoom(evt,'in')"/>
                <use id="zoomminus" xlink:href="#zoomMin" x="42" y="9" onmousedown="handleZoom(evt,'out')"/>
                <use id="reset" xlink:href="#resetDef" x="30" y="36" onmousedown="handleReset()"/>
                <g id="arrowUp" xlink:href="#dirArrow" transform="translate(30 24)" onmousedown="handlePan(0,-1)">
                  <use xlink:href="#rim" fill="#404040">
                        <set attributeName="fill" to="#808080" begin="arrowUp.mouseover" end="arrowUp.mouseout"/>
                  </use>
                  <path fill="none" stroke="white" stroke-width="1.5" d="M0,-3.0v7 M-2.5,-0.5L0,-3.0L2.5,-0.5"/>
                </g>
                <g id="arrowRight" xlink:href="#dirArrow" transform="rotate(90) translate(36 -43)" onmousedown="handlePan(1,0)">
                  <use xlink:href="#rim" fill="#404040">
                        <set attributeName="fill" to="#808080" begin="arrowRight.mouseover" end="arrowRight.mouseout"/>
                  </use>
                  <path fill="none" stroke="white" stroke-width="1.5" d="M0,-3.0v7 M-2.5,-0.5L0,-3.0L2.5,-0.5"/>
                </g>
                <g id="arrowDown" xlink:href="#dirArrow" transform="rotate(180) translate(-30 -48)" onmousedown="handlePan(0,1)">
                  <use xlink:href="#rim" fill="#404040">
                        <set attributeName="fill" to="#808080" begin="arrowDown.mouseover" end="arrowDown.mouseout"/>
                  </use>
                  <path fill="none" stroke="white" stroke-width="1.5" d="M0,-3.0v7 M-2.5,-0.5L0,-3.0L2.5,-0.5"/>
                </g>
                <g id="arrowLeft" xlink:href="#dirArrow" transform="rotate(270) translate(-36 17)" onmousedown="handlePan(-1,0)">
                  <use xlink:href="#rim" fill="#404040">
                        <set attributeName="fill" to="#808080" begin="arrowLeft.mouseover" end="arrowLeft.mouseout"/>
                  </use>
                  <path fill="none" stroke="white" stroke-width="1.5" d="M0,-3.0v7 M-2.5,-0.5L0,-3.0L2.5,-0.5"/>
                </g>
        </g>
</svg>
