<?xml version="1.0" encoding="UTF-8" standalone="no"?>
<!DOCTYPE svg PUBLIC "-//W3C//DTD SVG 1.1//EN"
 "http://www.w3.org/Graphics/SVG/1.1/DTD/svg11.dtd">
<!-- Generated by graphviz version 2.26.3 (20100126.1600)
 -->
<!-- Title: G Pages: 1 -->
<!--zoomable 558 -->
<svg id="main" version="1.1" xmlns="http://www.w3.org/2000/svg" xmlns:xlink="http://www.w3.org/1999/xlink" xml:space="preserve" onload="init(evt)">
        <defs>
                <circle id="rim" cx="0" cy="0" r="7"/>
                <circle id="rim2" cx="0" cy="0" r="3.5"/>
                <g id="zoomPlus">
                        <use xlink:href="#rim" fill="#404040">
                                <set attributeName="fill" to="#808080" begin="zoomplus.mouseover" end="zoomplus.mouseout"/>
                        </use>
                        <path d="M-4,0h8M0,-4v8" fill="none" stroke="white" stroke-width="1.5" pointer-events="none"/>
                </g>
                <g id="zoomMin">
                        <use xlink:href="#rim" fill="#404040">
                                <set attributeName="fill" to="#808080" begin="zoomminus.mouseover" end="zoomminus.mouseout"/>
                        </use>
                        <path d="M-4,0h8" fill="none" stroke="white" stroke-width="1.5" pointer-events="none"/>
                </g>
                <g id="dirArrow">
                        <path fill="none" stroke="white" stroke-width="1.5" d="M0,-3.0v7 M-2.5,-0.5L0,-3.0L2.5,-0.5"/>
                </g>
               <g id="resetDef">
                       <use xlink:href="#rim2" fill="#404040">
                               <set attributeName="fill" to="#808080" begin="reset.mouseover" end="reset.mouseout"/>
                       </use>
               </g>
        </defs>

<script type="text/javascript">
var viewWidth = 968;
var viewHeight = 558;
var sectionId = 'dynsection-0';
</script>
<script xlink:href="../../svgpan.js"/>
<svg id="graph" class="graph">
<g id="viewport">
<title>G</title>
<polygon fill="white" stroke="white" points="-4,5 -4,-554.461 965,-554.461 965,5 -4,5"/>
<!-- Node1 -->
<g id="node1" class="node"><title>Node1</title>
<polygon fill="#bfbfbf" stroke="black" points="828.5,-460.5 828.5,-481.5 959.5,-481.5 959.5,-460.5 828.5,-460.5"/>
<text text-anchor="middle" x="894" y="-468.5" font-family="Helvetica,sans-Serif" font-size="10.00">NSSCMSOriginatorInfoStr</text>
</g>
<!-- Node2 -->
<g id="node2" class="node"><title>Node2</title>
<a xlink:href="../../d2/d86/struct_s_e_c_item_str.html" target="_top" xlink:title="SECItemStr">
<polygon fill="white" stroke="black" points="194,-522.5 194,-543.5 264,-543.5 264,-522.5 194,-522.5"/>
<text text-anchor="middle" x="229" y="-530.5" font-family="Helvetica,sans-Serif" font-size="10.00">SECItemStr</text>
</a>
</g>
<!-- Node2&#45;&gt;Node1 -->
<g id="edge2" class="edge"><title>Node2&#45;&gt;Node1</title>
<path fill="none" stroke="#9a32cd" stroke-dasharray="5,2" d="M274.213,-542.62C284.607,-544.441 295.648,-546.067 306,-547 359.118,-551.79 372.837,-551.264 426,-547 580.461,-534.611 760.823,-499.346 845.47,-481.548"/>
<polygon fill="#9a32cd" stroke="#9a32cd" points="274.553,-539.124 264.084,-540.752 273.284,-546.008 274.553,-539.124"/>
<text text-anchor="middle" x="620" y="-530" font-family="Helvetica,sans-Serif" font-size="10.00"> rawCerts</text>
</g>
<!-- Node4 -->
<g id="node6" class="node"><title>Node4</title>
<a xlink:href="../../d2/da9/struct_c_e_r_t_auth_key_i_d_str.html" target="_top" xlink:title="CERTAuthKeyIDStr">
<polygon fill="white" stroke="black" points="457.5,-260.5 457.5,-281.5 562.5,-281.5 562.5,-260.5 457.5,-260.5"/>
<text text-anchor="middle" x="510" y="-268.5" font-family="Helvetica,sans-Serif" font-size="10.00">CERTAuthKeyIDStr</text>
</a>
</g>
<!-- Node2&#45;&gt;Node4 -->
<g id="edge12" class="edge"><title>Node2&#45;&gt;Node4</title>
<path fill="none" stroke="#9a32cd" stroke-dasharray="5,2" d="M256.843,-517.648C271.273,-510.014 289.324,-500.958 306,-494 357.883,-472.352 390.596,-497.67 426,-454 470.509,-399.099 400.607,-351.787 444,-296 448.815,-289.81 455.347,-285.153 462.437,-281.648"/>
<polygon fill="#9a32cd" stroke="#9a32cd" points="255.095,-514.614 247.934,-522.423 258.402,-520.784 255.095,-514.614"/>
<text text-anchor="middle" x="366" y="-498" font-family="Helvetica,sans-Serif" font-size="10.00"> DERAuthCertIssuer</text>
</g>
<!-- Node14 -->
<g id="node35" class="node"><title>Node14</title>
<a xlink:href="../../dc/dd0/struct_c_e_r_t_signed_crl_str.html" target="_top" xlink:title="CERTSignedCrlStr">
<polygon fill="white" stroke="black" points="460,-460.5 460,-481.5 560,-481.5 560,-460.5 460,-460.5"/>
<text text-anchor="middle" x="510" y="-468.5" font-family="Helvetica,sans-Serif" font-size="10.00">CERTSignedCrlStr</text>
</a>
</g>
<!-- Node2&#45;&gt;Node14 -->
<g id="edge46" class="edge"><title>Node2&#45;&gt;Node14</title>
<path fill="none" stroke="#9a32cd" stroke-dasharray="5,2" d="M274.287,-532.2C314.756,-530.489 375.31,-525.456 426,-511 450.076,-504.134 475.791,-490.918 492.335,-481.559"/>
<polygon fill="#9a32cd" stroke="#9a32cd" points="274.058,-528.706 264.195,-532.576 274.318,-535.701 274.058,-528.706"/>
<text text-anchor="middle" x="366" y="-534" font-family="Helvetica,sans-Serif" font-size="10.00"> derCrl</text>
</g>
<!-- Node3 -->
<g id="node4" class="node"><title>Node3</title>
<a xlink:href="../../d8/d93/struct_c_e_r_t_certificate_str.html" target="_top" xlink:title="CERTCertificateStr">
<polygon fill="white" stroke="black" points="664,-284.5 664,-305.5 766,-305.5 766,-284.5 664,-284.5"/>
<text text-anchor="middle" x="715" y="-292.5" font-family="Helvetica,sans-Serif" font-size="10.00">CERTCertificateStr</text>
</a>
</g>
<!-- Node3&#45;&gt;Node1 -->
<g id="edge4" class="edge"><title>Node3&#45;&gt;Node1</title>
<path fill="none" stroke="#9a32cd" stroke-dasharray="5,2" d="M733.085,-312.782C770.094,-349.171 853.482,-431.161 883.215,-460.396"/>
<polygon fill="#9a32cd" stroke="#9a32cd" points="735.512,-310.26 725.928,-305.745 730.605,-315.251 735.512,-310.26"/>
<text text-anchor="middle" x="797" y="-392" font-family="Helvetica,sans-Serif" font-size="10.00"> certs</text>
</g>
<!-- Node4&#45;&gt;Node3 -->
<g id="edge6" class="edge"><title>Node4&#45;&gt;Node3</title>
<path fill="none" stroke="#9a32cd" stroke-dasharray="5,2" d="M572.612,-278.33C601.783,-281.745 636.061,-285.758 663.674,-288.991"/>
<polygon fill="#9a32cd" stroke="#9a32cd" points="572.866,-274.836 562.526,-277.149 572.052,-281.789 572.866,-274.836"/>
<text text-anchor="middle" x="620" y="-290" font-family="Helvetica,sans-Serif" font-size="10.00"> authKeyID</text>
</g>
<!-- Node5 -->
<g id="node8" class="node"><title>Node5</title>
<a xlink:href="../../d7/db0/struct_c_e_r_t_general_name_str.html" target="_top" xlink:title="CERTGeneralNameStr">
<polygon fill="white" stroke="black" points="170.5,-218.5 170.5,-239.5 287.5,-239.5 287.5,-218.5 170.5,-218.5"/>
<text text-anchor="middle" x="229" y="-226.5" font-family="Helvetica,sans-Serif" font-size="10.00">CERTGeneralNameStr</text>
</a>
</g>
<!-- Node5&#45;&gt;Node4 -->
<g id="edge8" class="edge"><title>Node5&#45;&gt;Node4</title>
<path fill="none" stroke="#9a32cd" stroke-dasharray="5,2" d="M295.422,-241.264C298.997,-241.866 302.541,-242.448 306,-243 357.365,-251.191 416.241,-259.116 457.498,-264.431"/>
<polygon fill="#9a32cd" stroke="#9a32cd" points="295.751,-237.77 285.303,-239.528 294.567,-244.669 295.751,-237.77"/>
<text text-anchor="middle" x="366" y="-263" font-family="Helvetica,sans-Serif" font-size="10.00"> authCertIssuer</text>
</g>
<!-- Node6 -->
<g id="node10" class="node"><title>Node6</title>
<polygon fill="white" stroke="#bfbfbf" points="6.5,-282.5 6.5,-303.5 47.5,-303.5 47.5,-282.5 6.5,-282.5"/>
<text text-anchor="middle" x="27" y="-290.5" font-family="Helvetica,sans-Serif" font-size="10.00">struct</text>
</g>
<!-- Node6&#45;&gt;Node3 -->
<g id="edge24" class="edge"><title>Node6&#45;&gt;Node3</title>
<path fill="none" stroke="#9a32cd" stroke-dasharray="5,2" d="M31.9288,-272.621C38.0463,-251.255 50.4075,-217.936 72,-197 189.463,-83.1084 269.769,-47.4134 426,-96 551.065,-134.894 669.903,-248.821 704.76,-284.315"/>
<polygon fill="#9a32cd" stroke="#9a32cd" points="28.5401,-271.745 29.3484,-282.309 35.3042,-273.547 28.5401,-271.745"/>
<text text-anchor="middle" x="366" y="-230" font-family="Helvetica,sans-Serif" font-size="10.00"> derPublicKey</text>
<text text-anchor="middle" x="366" y="-217" font-family="Helvetica,sans-Serif" font-size="10.00">nssCertificate</text>
<text text-anchor="middle" x="366" y="-204" font-family="Helvetica,sans-Serif" font-size="10.00">validity</text>
<text text-anchor="middle" x="366" y="-191" font-family="Helvetica,sans-Serif" font-size="10.00">derSubject</text>
<text text-anchor="middle" x="366" y="-178" font-family="Helvetica,sans-Serif" font-size="10.00">signatureWrap</text>
<text text-anchor="middle" x="366" y="-165" font-family="Helvetica,sans-Serif" font-size="10.00">bits</text>
<text text-anchor="middle" x="366" y="-152" font-family="Helvetica,sans-Serif" font-size="10.00">subjectID</text>
<text text-anchor="middle" x="366" y="-139" font-family="Helvetica,sans-Serif" font-size="10.00">issuerID</text>
<text text-anchor="middle" x="366" y="-126" font-family="Helvetica,sans-Serif" font-size="10.00">subjectPublicKeyInfo</text>
<text text-anchor="middle" x="366" y="-113" font-family="Helvetica,sans-Serif" font-size="10.00">issuer</text>
<text text-anchor="middle" x="366" y="-100" font-family="Helvetica,sans-Serif" font-size="10.00">...</text>
</g>
<!-- Node6&#45;&gt;Node4 -->
<g id="edge14" class="edge"><title>Node6&#45;&gt;Node4</title>
<path fill="none" stroke="#9a32cd" stroke-dasharray="5,2" d="M58.0716,-291.855C125.227,-289.34 288.913,-283 426,-276 436.067,-275.486 446.81,-274.886 457.133,-274.283"/>
<polygon fill="#9a32cd" stroke="#9a32cd" points="57.6373,-288.368 47.7746,-292.239 57.8981,-295.364 57.6373,-288.368"/>
<text text-anchor="middle" x="229" y="-304" font-family="Helvetica,sans-Serif" font-size="10.00"> keyID</text>
<text text-anchor="middle" x="229" y="-291" font-family="Helvetica,sans-Serif" font-size="10.00">authCertSerialNumber</text>
</g>
<!-- Node6&#45;&gt;Node5 -->
<g id="edge10" class="edge"><title>Node6&#45;&gt;Node5</title>
<path fill="none" stroke="#9a32cd" stroke-dasharray="5,2" d="M32.2681,-272.603C38.3672,-253.65 50.4533,-226.524 72,-214 113.664,-189.783 172.247,-205.954 204.793,-218.426"/>
<polygon fill="#9a32cd" stroke="#9a32cd" points="28.8519,-271.815 29.4079,-282.396 35.5711,-273.778 28.8519,-271.815"/>
<text text-anchor="middle" x="112" y="-270" font-family="Helvetica,sans-Serif" font-size="10.00"> directoryName</text>
<text text-anchor="middle" x="112" y="-257" font-family="Helvetica,sans-Serif" font-size="10.00">l</text>
<text text-anchor="middle" x="112" y="-244" font-family="Helvetica,sans-Serif" font-size="10.00">other</text>
<text text-anchor="middle" x="112" y="-231" font-family="Helvetica,sans-Serif" font-size="10.00">OthName</text>
<text text-anchor="middle" x="112" y="-218" font-family="Helvetica,sans-Serif" font-size="10.00">derDirectoryName</text>
</g>
<!-- Node7 -->
<g id="node14" class="node"><title>Node7</title>
<a xlink:href="../../df/db7/struct_p_l_arena_pool.html" target="_top" xlink:title="PLArenaPool">
<polygon fill="white" stroke="black" points="192,-390.5 192,-411.5 266,-411.5 266,-390.5 192,-390.5"/>
<text text-anchor="middle" x="229" y="-398.5" font-family="Helvetica,sans-Serif" font-size="10.00">PLArenaPool</text>
</a>
</g>
<!-- Node6&#45;&gt;Node7 -->
<g id="edge22" class="edge"><title>Node6&#45;&gt;Node7</title>
<path fill="none" stroke="#9a32cd" stroke-dasharray="5,2" d="M31.8243,-313.262C37.735,-333.364 49.8172,-363.365 72,-379 107.095,-403.736 157.718,-406.495 191.912,-404.875"/>
<polygon fill="#9a32cd" stroke="#9a32cd" points="35.1834,-312.275 29.2126,-303.523 28.4224,-314.088 35.1834,-312.275"/>
<text text-anchor="middle" x="112" y="-407" font-family="Helvetica,sans-Serif" font-size="10.00"> first</text>
</g>
<!-- Node9 -->
<g id="node21" class="node"><title>Node9</title>
<a xlink:href="../../dd/d02/struct_c_e_r_t_cert_extension_str.html" target="_top" xlink:title="CERTCertExtensionStr">
<polygon fill="white" stroke="black" points="306.5,-40.5 306.5,-61.5 425.5,-61.5 425.5,-40.5 306.5,-40.5"/>
<text text-anchor="middle" x="366" y="-48.5" font-family="Helvetica,sans-Serif" font-size="10.00">CERTCertExtensionStr</text>
</a>
</g>
<!-- Node6&#45;&gt;Node9 -->
<g id="edge28" class="edge"><title>Node6&#45;&gt;Node9</title>
<path fill="none" stroke="#9a32cd" stroke-dasharray="5,2" d="M27.5129,-272.329C29.3332,-218.268 37.394,-74.8709 72,-46 149.614,18.7511 283.041,-19.6507 339.516,-40.3752"/>
<polygon fill="#9a32cd" stroke="#9a32cd" points="24.0113,-272.336 27.2119,-282.436 31.0082,-272.545 24.0113,-272.336"/>
<text text-anchor="middle" x="112" y="-76" font-family="Helvetica,sans-Serif" font-size="10.00"> critical</text>
<text text-anchor="middle" x="112" y="-63" font-family="Helvetica,sans-Serif" font-size="10.00">value</text>
<text text-anchor="middle" x="112" y="-50" font-family="Helvetica,sans-Serif" font-size="10.00">id</text>
</g>
<!-- Node11 -->
<g id="node27" class="node"><title>Node11</title>
<a xlink:href="../../dc/de8/struct_c_e_r_t_subject_node_str.html" target="_top" xlink:title="CERTSubjectNodeStr">
<polygon fill="white" stroke="black" points="172.5,-339.5 172.5,-360.5 285.5,-360.5 285.5,-339.5 172.5,-339.5"/>
<text text-anchor="middle" x="229" y="-347.5" font-family="Helvetica,sans-Serif" font-size="10.00">CERTSubjectNodeStr</text>
</a>
</g>
<!-- Node6&#45;&gt;Node11 -->
<g id="edge36" class="edge"><title>Node6&#45;&gt;Node11</title>
<path fill="none" stroke="#9a32cd" stroke-dasharray="5,2" d="M57.6063,-301.099C82.9489,-307.859 119.876,-317.835 152,-327 165.819,-330.943 180.983,-335.436 194.172,-339.398"/>
<polygon fill="#9a32cd" stroke="#9a32cd" points="58.3978,-297.688 47.834,-298.498 56.5976,-304.452 58.3978,-297.688"/>
<text text-anchor="middle" x="112" y="-370" font-family="Helvetica,sans-Serif" font-size="10.00"> prev</text>
<text text-anchor="middle" x="112" y="-357" font-family="Helvetica,sans-Serif" font-size="10.00">keyID</text>
<text text-anchor="middle" x="112" y="-344" font-family="Helvetica,sans-Serif" font-size="10.00">next</text>
<text text-anchor="middle" x="112" y="-331" font-family="Helvetica,sans-Serif" font-size="10.00">certKey</text>
</g>
<!-- Node6&#45;&gt;Node14 -->
<g id="edge50" class="edge"><title>Node6&#45;&gt;Node14</title>
<path fill="none" stroke="#9a32cd" stroke-dasharray="5,2" d="M31.5576,-313.664C39.1297,-346.031 55.1449,-406.401 72,-420 130.613,-467.29 357.847,-472.015 459.893,-471.668"/>
<polygon fill="#9a32cd" stroke="#9a32cd" points="34.8774,-312.479 29.2438,-303.506 28.0522,-314.034 34.8774,-312.479"/>
<text text-anchor="middle" x="229" y="-483" font-family="Helvetica,sans-Serif" font-size="10.00"> signatureWrap</text>
<text text-anchor="middle" x="229" y="-470" font-family="Helvetica,sans-Serif" font-size="10.00">crl</text>
</g>
<!-- Node7&#45;&gt;Node3 -->
<g id="edge16" class="edge"><title>Node7&#45;&gt;Node3</title>
<path fill="none" stroke="#9a32cd" stroke-dasharray="5,2" d="M264.431,-385.785C272.646,-381.364 281.019,-376.065 288,-370 298.336,-361.021 294.244,-352.019 306,-345 359.108,-313.293 382.619,-334.627 444,-327 485.314,-321.867 597.628,-308.7 663.984,-300.949"/>
<polygon fill="#9a32cd" stroke="#9a32cd" points="262.652,-382.763 255.306,-390.397 265.81,-389.01 262.652,-382.763"/>
<text text-anchor="middle" x="510" y="-331" font-family="Helvetica,sans-Serif" font-size="10.00"> arena</text>
</g>
<!-- Node10 -->
<g id="node24" class="node"><title>Node10</title>
<a xlink:href="../../d3/d45/struct_c_e_r_t_subject_list_str.html" target="_top" xlink:title="CERTSubjectListStr">
<polygon fill="white" stroke="black" points="457,-349.5 457,-370.5 563,-370.5 563,-349.5 457,-349.5"/>
<text text-anchor="middle" x="510" y="-357.5" font-family="Helvetica,sans-Serif" font-size="10.00">CERTSubjectListStr</text>
</a>
</g>
<!-- Node7&#45;&gt;Node10 -->
<g id="edge32" class="edge"><title>Node7&#45;&gt;Node10</title>
<path fill="none" stroke="#9a32cd" stroke-dasharray="5,2" d="M276.187,-396.76C316.205,-392.861 375.058,-386.412 426,-378 438.655,-375.91 452.287,-373.193 464.812,-370.506"/>
<polygon fill="#9a32cd" stroke="#9a32cd" points="275.802,-393.281 266.182,-397.72 276.47,-400.249 275.802,-393.281"/>
<text text-anchor="middle" x="366" y="-397" font-family="Helvetica,sans-Serif" font-size="10.00"> arena</text>
</g>
<!-- Node7&#45;&gt;Node14 -->
<g id="edge48" class="edge"><title>Node7&#45;&gt;Node14</title>
<path fill="none" stroke="#9a32cd" stroke-dasharray="5,2" d="M276.255,-406.997C325.748,-413.744 399.855,-425.296 426,-437 435.25,-441.141 434.999,-446.341 444,-451 451.124,-454.688 459.04,-457.815 466.845,-460.422"/>
<polygon fill="#9a32cd" stroke="#9a32cd" points="276.471,-403.495 266.094,-405.632 275.538,-410.433 276.471,-403.495"/>
<text text-anchor="middle" x="366" y="-441" font-family="Helvetica,sans-Serif" font-size="10.00"> arena</text>
</g>
<!-- Node8 -->
<g id="node16" class="node"><title>Node8</title>
<a xlink:href="../../d0/da4/struct_p_l_arena.html" target="_top" xlink:title="PLArena">
<polygon fill="white" stroke="black" points="0,-486.5 0,-507.5 54,-507.5 54,-486.5 0,-486.5"/>
<text text-anchor="middle" x="27" y="-494.5" font-family="Helvetica,sans-Serif" font-size="10.00">PLArena</text>
</a>
</g>
<!-- Node8&#45;&gt;Node7 -->
<g id="edge18" class="edge"><title>Node8&#45;&gt;Node7</title>
<path fill="none" stroke="#9a32cd" stroke-dasharray="5,2" d="M58.4376,-482.059C99.6277,-462.484 170.835,-428.643 206.818,-411.542"/>
<polygon fill="#9a32cd" stroke="#9a32cd" points="56.9189,-478.906 49.3893,-486.36 59.9236,-485.228 56.9189,-478.906"/>
<text text-anchor="middle" x="112" y="-477" font-family="Helvetica,sans-Serif" font-size="10.00"> current</text>
</g>
<!-- Node8&#45;&gt;Node8 -->
<g id="edge20" class="edge"><title>Node8&#45;&gt;Node8</title>
<path fill="none" stroke="#9a32cd" stroke-dasharray="5,2" d="M11.6167,-517.793C12.9744,-522.529 18.1022,-526 27,-526 41.6016,-526 46.0505,-516.653 40.3467,-507.708"/>
<polygon fill="#9a32cd" stroke="#9a32cd" points="15.1046,-518.203 13.6533,-507.708 8.24309,-516.817 15.1046,-518.203"/>
<text text-anchor="middle" x="27" y="-530" font-family="Helvetica,sans-Serif" font-size="10.00"> next</text>
</g>
<!-- Node9&#45;&gt;Node3 -->
<g id="edge26" class="edge"><title>Node9&#45;&gt;Node3</title>
<path fill="none" stroke="#9a32cd" stroke-dasharray="5,2" d="M435.826,-39.3561C498.411,-33.1166 588.906,-35.0784 646,-85 677.49,-112.534 705.384,-245.457 712.972,-284.312"/>
<polygon fill="#9a32cd" stroke="#9a32cd" points="435.205,-35.903 425.644,-40.4676 435.965,-42.8617 435.205,-35.903"/>
<text text-anchor="middle" x="510" y="-53" font-family="Helvetica,sans-Serif" font-size="10.00"> extensions</text>
</g>
<!-- Node10&#45;&gt;Node3 -->
<g id="edge30" class="edge"><title>Node10&#45;&gt;Node3</title>
<path fill="none" stroke="#9a32cd" stroke-dasharray="5,2" d="M573.393,-350.876C596.639,-346.513 622.901,-340.37 646,-332 664.914,-325.147 685.02,-313.851 698.619,-305.54"/>
<polygon fill="#9a32cd" stroke="#9a32cd" points="572.511,-347.479 563.291,-352.698 573.753,-354.368 572.511,-347.479"/>
<text text-anchor="middle" x="620" y="-350" font-family="Helvetica,sans-Serif" font-size="10.00"> subjectList</text>
</g>
<!-- Node11&#45;&gt;Node10 -->
<g id="edge34" class="edge"><title>Node11&#45;&gt;Node10</title>
<path fill="none" stroke="#9a32cd" stroke-dasharray="5,2" d="M295.974,-349.273C334.109,-349.212 382.759,-349.726 426,-352 435.948,-352.523 446.538,-353.333 456.726,-354.24"/>
<polygon fill="#9a32cd" stroke="#9a32cd" points="295.499,-345.774 285.51,-349.305 295.52,-352.774 295.499,-345.774"/>
<text text-anchor="middle" x="366" y="-369" font-family="Helvetica,sans-Serif" font-size="10.00"> head</text>
<text text-anchor="middle" x="366" y="-356" font-family="Helvetica,sans-Serif" font-size="10.00">tail</text>
</g>
<!-- Node12 -->
<g id="node30" class="node"><title>Node12</title>
<a xlink:href="../../d5/d52/struct_c_e_r_t_cert_trust_str.html" target="_top" xlink:title="CERTCertTrustStr">
<polygon fill="white" stroke="black" points="461,-0.5 461,-21.5 559,-21.5 559,-0.5 461,-0.5"/>
<text text-anchor="middle" x="510" y="-8.5" font-family="Helvetica,sans-Serif" font-size="10.00">CERTCertTrustStr</text>
</a>
</g>
<!-- Node12&#45;&gt;Node3 -->
<g id="edge38" class="edge"><title>Node12&#45;&gt;Node3</title>
<path fill="none" stroke="#9a32cd" stroke-dasharray="5,2" d="M569.579,-5.84596C595.933,-6.76884 625.523,-12.653 646,-31 685.252,-66.1685 708.396,-239.631 713.781,-284.428"/>
<polygon fill="#9a32cd" stroke="#9a32cd" points="569.325,-2.34278 559.284,-5.72317 569.242,-9.34229 569.325,-2.34278"/>
<text text-anchor="middle" x="620" y="-35" font-family="Helvetica,sans-Serif" font-size="10.00"> trust</text>
</g>
<!-- Node13 -->
<g id="node32" class="node"><title>Node13</title>
<a xlink:href="../../da/ddc/struct_c_e_r_t_o_k_domain_name_str.html" target="_top" xlink:title="CERTOKDomainNameStr">
<polygon fill="white" stroke="black" points="444.5,-389.5 444.5,-410.5 575.5,-410.5 575.5,-389.5 444.5,-389.5"/>
<text text-anchor="middle" x="510" y="-397.5" font-family="Helvetica,sans-Serif" font-size="10.00">CERTOKDomainNameStr</text>
</a>
</g>
<!-- Node13&#45;&gt;Node3 -->
<g id="edge40" class="edge"><title>Node13&#45;&gt;Node3</title>
<path fill="none" stroke="#9a32cd" stroke-dasharray="5,2" d="M584.681,-386.989C605.402,-381.47 627.322,-373.741 646,-363 672.098,-347.992 695.434,-320.726 707.111,-305.682"/>
<polygon fill="#9a32cd" stroke="#9a32cd" points="583.783,-383.606 574.945,-389.448 585.497,-390.393 583.783,-383.606"/>
<text text-anchor="middle" x="620" y="-387" font-family="Helvetica,sans-Serif" font-size="10.00"> domainOK</text>
</g>
<!-- Node13&#45;&gt;Node13 -->
<g id="edge42" class="edge"><title>Node13&#45;&gt;Node13</title>
<path fill="none" stroke="#9a32cd" stroke-dasharray="5,2" d="M489.728,-420.427C491.292,-425.349 498.049,-429 510,-429 529.121,-429 534.947,-419.653 527.478,-410.708"/>
<polygon fill="#9a32cd" stroke="#9a32cd" points="493.123,-421.286 492.522,-410.708 486.395,-419.352 493.123,-421.286"/>
<text text-anchor="middle" x="510" y="-433" font-family="Helvetica,sans-Serif" font-size="10.00"> next</text>
</g>
<!-- Node14&#45;&gt;Node1 -->
<g id="edge44" class="edge"><title>Node14&#45;&gt;Node1</title>
<path fill="none" stroke="#9a32cd" stroke-dasharray="5,2" d="M570.215,-471C640.386,-471 755.939,-471 828.356,-471"/>
<polygon fill="#9a32cd" stroke="#9a32cd" points="570.201,-467.5 560.201,-471 570.201,-474.5 570.201,-467.5"/>
<text text-anchor="middle" x="715" y="-475" font-family="Helvetica,sans-Serif" font-size="10.00"> crls</text>
</g>
</g>
</svg>
        <g id="navigator" transform="translate(0 0)" fill="#404254">
                <rect fill="#f2f5e9" fill-opacity="0.5" stroke="#606060" stroke-width=".5" x="0" y="0" width="60" height="60"/>
                <use id="zoomplus" xlink:href="#zoomPlus" x="17" y="9" onmousedown="handleZoom(evt,'in')"/>
                <use id="zoomminus" xlink:href="#zoomMin" x="42" y="9" onmousedown="handleZoom(evt,'out')"/>
                <use id="reset" xlink:href="#resetDef" x="30" y="36" onmousedown="handleReset()"/>
                <g id="arrowUp" xlink:href="#dirArrow" transform="translate(30 24)" onmousedown="handlePan(0,-1)">
                  <use xlink:href="#rim" fill="#404040">
                        <set attributeName="fill" to="#808080" begin="arrowUp.mouseover" end="arrowUp.mouseout"/>
                  </use>
                  <path fill="none" stroke="white" stroke-width="1.5" d="M0,-3.0v7 M-2.5,-0.5L0,-3.0L2.5,-0.5"/>
                </g>
                <g id="arrowRight" xlink:href="#dirArrow" transform="rotate(90) translate(36 -43)" onmousedown="handlePan(1,0)">
                  <use xlink:href="#rim" fill="#404040">
                        <set attributeName="fill" to="#808080" begin="arrowRight.mouseover" end="arrowRight.mouseout"/>
                  </use>
                  <path fill="none" stroke="white" stroke-width="1.5" d="M0,-3.0v7 M-2.5,-0.5L0,-3.0L2.5,-0.5"/>
                </g>
                <g id="arrowDown" xlink:href="#dirArrow" transform="rotate(180) translate(-30 -48)" onmousedown="handlePan(0,1)">
                  <use xlink:href="#rim" fill="#404040">
                        <set attributeName="fill" to="#808080" begin="arrowDown.mouseover" end="arrowDown.mouseout"/>
                  </use>
                  <path fill="none" stroke="white" stroke-width="1.5" d="M0,-3.0v7 M-2.5,-0.5L0,-3.0L2.5,-0.5"/>
                </g>
                <g id="arrowLeft" xlink:href="#dirArrow" transform="rotate(270) translate(-36 17)" onmousedown="handlePan(-1,0)">
                  <use xlink:href="#rim" fill="#404040">
                        <set attributeName="fill" to="#808080" begin="arrowLeft.mouseover" end="arrowLeft.mouseout"/>
                  </use>
                  <path fill="none" stroke="white" stroke-width="1.5" d="M0,-3.0v7 M-2.5,-0.5L0,-3.0L2.5,-0.5"/>
                </g>
        </g>
</svg>
