<?xml version="1.0" encoding="UTF-8" standalone="no"?>
<!DOCTYPE svg PUBLIC "-//W3C//DTD SVG 1.1//EN"
 "http://www.w3.org/Graphics/SVG/1.1/DTD/svg11.dtd">
<!-- Generated by graphviz version 2.26.3 (20100126.1600)
 -->
<!-- Title: G Pages: 1 -->
<svg width="231pt" height="102pt"
 viewBox="0.00 0.00 231.00 102.00" xmlns="http://www.w3.org/2000/svg" xmlns:xlink="http://www.w3.org/1999/xlink">
<g id="graph1" class="graph" transform="scale(1 1) rotate(0) translate(4 98)">
<title>G</title>
<polygon fill="white" stroke="white" points="-4,5 -4,-98 228,-98 228,5 -4,5"/>
<!-- Node1 -->
<g id="node1" class="node"><title>Node1</title>
<polygon fill="#bfbfbf" stroke="black" points="0,-0.5 0,-21.5 164,-21.5 164,-0.5 0,-0.5"/>
<text text-anchor="middle" x="82" y="-8.5" font-family="Helvetica,sans-Serif" font-size="10.00">CK_WTLS_KEY_MAT_PARAMS</text>
</g>
<!-- Node2 -->
<g id="node2" class="node"><title>Node2</title>
<polygon fill="white" stroke="#bfbfbf" points="7.5,-72.5 7.5,-93.5 48.5,-93.5 48.5,-72.5 7.5,-72.5"/>
<text text-anchor="middle" x="28" y="-80.5" font-family="Helvetica,sans-Serif" font-size="10.00">struct</text>
</g>
<!-- Node2&#45;&gt;Node1 -->
<g id="edge2" class="edge"><title>Node2&#45;&gt;Node1</title>
<path fill="none" stroke="#9a32cd" stroke-dasharray="5,2" d="M41.0989,-63.5064C46.236,-56.0545 52.2656,-47.5394 58,-40 62.7476,-33.7581 68.3178,-26.9959 72.8962,-21.5727"/>
<polygon fill="#9a32cd" stroke="#9a32cd" points="37.8977,-61.9887 35.1584,-72.2233 43.6822,-65.9308 37.8977,-61.9887"/>
<text text-anchor="middle" x="86.5" y="-44.5" font-family="Helvetica,sans-Serif" font-size="10.00"> RandomInfo</text>
</g>
<!-- Node3 -->
<g id="node4" class="node"><title>Node3</title>
<a xlink:href="../../da/d34/struct_c_k___w_t_l_s___k_e_y___m_a_t___o_u_t.html" target="_top" xlink:title="CK_WTLS_KEY_MAT_OUT">
<polygon fill="white" stroke="black" points="66,-72.5 66,-93.5 208,-93.5 208,-72.5 66,-72.5"/>
<text text-anchor="middle" x="137" y="-80.5" font-family="Helvetica,sans-Serif" font-size="10.00">CK_WTLS_KEY_MAT_OUT</text>
</a>
</g>
<!-- Node3&#45;&gt;Node1 -->
<g id="edge4" class="edge"><title>Node3&#45;&gt;Node1</title>
<path fill="none" stroke="#9a32cd" stroke-dasharray="5,2" d="M128.783,-63.1688C125.142,-55.5419 120.443,-46.9939 115,-40 109.66,-33.1384 102.532,-26.6372 96.2669,-21.536"/>
<polygon fill="#9a32cd" stroke="#9a32cd" points="125.658,-64.7547 132.934,-72.4562 132.049,-61.8984 125.658,-64.7547"/>
<text text-anchor="middle" x="173" y="-44.5" font-family="Helvetica,sans-Serif" font-size="10.00"> pReturnedKeyMaterial</text>
</g>
</g>
</svg>
