<?xml version="1.0" encoding="UTF-8" standalone="no"?>
<!DOCTYPE svg PUBLIC "-//W3C//DTD SVG 1.1//EN"
 "http://www.w3.org/Graphics/SVG/1.1/DTD/svg11.dtd">
<!-- Generated by graphviz version 2.26.3 (20100126.1600)
 -->
<!-- Title: G Pages: 1 -->
<!--zoomable 159 -->
<svg id="main" version="1.1" xmlns="http://www.w3.org/2000/svg" xmlns:xlink="http://www.w3.org/1999/xlink" xml:space="preserve" onload="init(evt)">
        <defs>
                <circle id="rim" cx="0" cy="0" r="7"/>
                <circle id="rim2" cx="0" cy="0" r="3.5"/>
                <g id="zoomPlus">
                        <use xlink:href="#rim" fill="#404040">
                                <set attributeName="fill" to="#808080" begin="zoomplus.mouseover" end="zoomplus.mouseout"/>
                        </use>
                        <path d="M-4,0h8M0,-4v8" fill="none" stroke="white" stroke-width="1.5" pointer-events="none"/>
                </g>
                <g id="zoomMin">
                        <use xlink:href="#rim" fill="#404040">
                                <set attributeName="fill" to="#808080" begin="zoomminus.mouseover" end="zoomminus.mouseout"/>
                        </use>
                        <path d="M-4,0h8" fill="none" stroke="white" stroke-width="1.5" pointer-events="none"/>
                </g>
                <g id="dirArrow">
                        <path fill="none" stroke="white" stroke-width="1.5" d="M0,-3.0v7 M-2.5,-0.5L0,-3.0L2.5,-0.5"/>
                </g>
               <g id="resetDef">
                       <use xlink:href="#rim2" fill="#404040">
                               <set attributeName="fill" to="#808080" begin="reset.mouseover" end="reset.mouseout"/>
                       </use>
               </g>
        </defs>

<script type="text/javascript">
var viewWidth = 1174;
var viewHeight = 159;
var sectionId = 'dynsection-4';
</script>
<script xlink:href="../../svgpan.js"/>
<svg id="graph" class="graph">
<g id="viewport">
<title>G</title>
<polygon fill="white" stroke="white" points="-4,5 -4,-155 1171,-155 1171,5 -4,5"/>
<!-- Node1 -->
<g id="node1" class="node"><title>Node1</title>
<polygon fill="#bfbfbf" stroke="black" points="0,-79.5 0,-100.5 204,-100.5 204,-79.5 0,-79.5"/>
<text text-anchor="middle" x="102" y="-87.5" font-family="Helvetica,sans-Serif" font-size="10.00">mozilla::dom::FrameRequestCallback::Call</text>
</g>
<!-- Node2 -->
<g id="node3" class="node"><title>Node2</title>
<a xlink:href="../../de/d01/classmozilla_1_1dom_1_1_frame_request_callback.html#abf1ff2dc0698ced9b090de5dc2edb99f" target="_top" xlink:title="mozilla::dom::FrameRequestCallback::Call">
<polygon fill="white" stroke="black" points="240,-99.5 240,-120.5 444,-120.5 444,-99.5 240,-99.5"/>
<text text-anchor="middle" x="342" y="-107.5" font-family="Helvetica,sans-Serif" font-size="10.00">mozilla::dom::FrameRequestCallback::Call</text>
</a>
</g>
<!-- Node1&#45;&gt;Node2 -->
<g id="edge2" class="edge"><title>Node1&#45;&gt;Node2</title>
<path fill="none" stroke="midnightblue" d="M204.13,-98.5108C212.658,-99.2215 221.309,-99.9424 229.906,-100.659"/>
<polygon fill="midnightblue" stroke="midnightblue" points="229.706,-104.154 239.962,-101.497 230.287,-97.1784 229.706,-104.154"/>
</g>
<!-- Node3 -->
<g id="node5" class="node"><title>Node3</title>
<a xlink:href="../../d5/dc4/classmozilla_1_1dom_1_1_callback_object.html#a8a90a2d95ada28cbfcd86096f3f3b24e" target="_top" xlink:title="mozilla::dom::CallbackObject::CallbackPreserveColor">
<polygon fill="white" stroke="black" points="480.5,-129.5 480.5,-150.5 731.5,-150.5 731.5,-129.5 480.5,-129.5"/>
<text text-anchor="middle" x="606" y="-137.5" font-family="Helvetica,sans-Serif" font-size="10.00">mozilla::dom::CallbackObject::CallbackPreserveColor</text>
</a>
</g>
<!-- Node1&#45;&gt;Node3 -->
<g id="edge24" class="edge"><title>Node1&#45;&gt;Node3</title>
<path fill="none" stroke="midnightblue" d="M130.328,-100.519C157.893,-110.2 201.182,-123.946 240,-130 315.576,-141.787 400.969,-144.703 470.252,-144.483"/>
<polygon fill="midnightblue" stroke="midnightblue" points="470.373,-147.982 480.354,-144.428 470.335,-140.982 470.373,-147.982"/>
</g>
<!-- Node5 -->
<g id="node9" class="node"><title>Node5</title>
<a xlink:href="../../df/de5/classmozilla_1_1dom_1_1_callback_object_1_1_call_setup.html#a3985d9eb3b5b1bef46e3daa3c2e7c5c5" target="_top" xlink:title="mozilla::dom::CallbackObject::CallSetup::GetContext">
<polygon fill="white" stroke="black" points="481,-89.5 481,-110.5 731,-110.5 731,-89.5 481,-89.5"/>
<text text-anchor="middle" x="606" y="-97.5" font-family="Helvetica,sans-Serif" font-size="10.00">mozilla::dom::CallbackObject::CallSetup::GetContext</text>
</a>
</g>
<!-- Node1&#45;&gt;Node5 -->
<g id="edge26" class="edge"><title>Node1&#45;&gt;Node5</title>
<path fill="none" stroke="midnightblue" d="M204.162,-88.3557C272.148,-87.6663 363.437,-87.5158 444,-90 452.697,-90.2682 461.653,-90.6171 470.679,-91.0235"/>
<polygon fill="midnightblue" stroke="midnightblue" points="470.735,-94.53 480.889,-91.5055 471.065,-87.5378 470.735,-94.53"/>
</g>
<!-- Node6 -->
<g id="node11" class="node"><title>Node6</title>
<a xlink:href="../../dd/d9c/classmozilla_1_1_error_result.html#a35d9f418a4b6bcbefcb67dda4bc7e6ee" target="_top" xlink:title="mozilla::ErrorResult::Throw">
<polygon fill="white" stroke="black" points="538,-40.5 538,-61.5 674,-61.5 674,-40.5 538,-40.5"/>
<text text-anchor="middle" x="606" y="-48.5" font-family="Helvetica,sans-Serif" font-size="10.00">mozilla::ErrorResult::Throw</text>
</a>
</g>
<!-- Node1&#45;&gt;Node6 -->
<g id="edge28" class="edge"><title>Node1&#45;&gt;Node6</title>
<path fill="none" stroke="midnightblue" d="M204.296,-82.0843C299.919,-74.6848 440.656,-63.7945 527.65,-57.0628"/>
<polygon fill="midnightblue" stroke="midnightblue" points="528.024,-60.5444 537.724,-56.2832 527.484,-53.5652 528.024,-60.5444"/>
</g>
<!-- Node2&#45;&gt;Node3 -->
<g id="edge4" class="edge"><title>Node2&#45;&gt;Node3</title>
<path fill="none" stroke="midnightblue" d="M434.705,-120.535C456.966,-123.064 480.866,-125.78 503.541,-128.357"/>
<polygon fill="midnightblue" stroke="midnightblue" points="503.187,-131.839 513.518,-129.491 503.977,-124.884 503.187,-131.839"/>
</g>
<!-- Node2&#45;&gt;Node5 -->
<g id="edge8" class="edge"><title>Node2&#45;&gt;Node5</title>
<path fill="none" stroke="midnightblue" d="M444.069,-106.134C452.819,-105.802 461.755,-105.464 470.71,-105.125"/>
<polygon fill="midnightblue" stroke="midnightblue" points="470.96,-108.618 480.821,-104.742 470.695,-101.623 470.96,-108.618"/>
</g>
<!-- Node2&#45;&gt;Node6 -->
<g id="edge10" class="edge"><title>Node2&#45;&gt;Node6</title>
<path fill="none" stroke="midnightblue" d="M389.198,-99.452C433.922,-89.4569 501.168,-74.4283 548.894,-63.7624"/>
<polygon fill="midnightblue" stroke="midnightblue" points="549.771,-67.1529 558.766,-61.556 548.244,-60.3214 549.771,-67.1529"/>
</g>
<!-- Node4 -->
<g id="node7" class="node"><title>Node4</title>
<a xlink:href="../../db/d0b/class_j_s_1_1_heap.html#ac97872f2a208107769399acb87d52426" target="_top" xlink:title="JS::Heap::address">
<polygon fill="white" stroke="black" points="823,-129.5 823,-150.5 921,-150.5 921,-129.5 823,-129.5"/>
<text text-anchor="middle" x="872" y="-137.5" font-family="Helvetica,sans-Serif" font-size="10.00">JS::Heap::address</text>
</a>
</g>
<!-- Node3&#45;&gt;Node4 -->
<g id="edge6" class="edge"><title>Node3&#45;&gt;Node4</title>
<path fill="none" stroke="midnightblue" d="M731.6,-140C759.966,-140 788.783,-140 812.867,-140"/>
<polygon fill="midnightblue" stroke="midnightblue" points="812.884,-143.5 822.884,-140 812.884,-136.5 812.884,-143.5"/>
</g>
<!-- Node7 -->
<g id="node13" class="node"><title>Node7</title>
<a xlink:href="../../dd/d9c/classmozilla_1_1_error_result.html#a3743341d1ffd2f7bbe90bba540e988fe" target="_top" xlink:title="mozilla::ErrorResult::IsJSException">
<polygon fill="white" stroke="black" points="785.5,-80.5 785.5,-101.5 958.5,-101.5 958.5,-80.5 785.5,-80.5"/>
<text text-anchor="middle" x="872" y="-88.5" font-family="Helvetica,sans-Serif" font-size="10.00">mozilla::ErrorResult::IsJSException</text>
</a>
</g>
<!-- Node6&#45;&gt;Node7 -->
<g id="edge12" class="edge"><title>Node6&#45;&gt;Node7</title>
<path fill="none" stroke="midnightblue" d="M674.156,-61.2491C710.188,-66.6674 754.627,-73.35 792.255,-79.0082"/>
<polygon fill="midnightblue" stroke="midnightblue" points="791.759,-82.4729 802.168,-80.4989 792.8,-75.5507 791.759,-82.4729"/>
</g>
<!-- Node9 -->
<g id="node17" class="node"><title>Node9</title>
<a xlink:href="../../dd/d9c/classmozilla_1_1_error_result.html#a42babe5c49a9e75f2559a69edb11e874" target="_top" xlink:title="mozilla::ErrorResult::IsNotEnoughArgsError">
<polygon fill="white" stroke="black" points="768.5,-40.5 768.5,-61.5 975.5,-61.5 975.5,-40.5 768.5,-40.5"/>
<text text-anchor="middle" x="872" y="-48.5" font-family="Helvetica,sans-Serif" font-size="10.00">mozilla::ErrorResult::IsNotEnoughArgsError</text>
</a>
</g>
<!-- Node6&#45;&gt;Node9 -->
<g id="edge16" class="edge"><title>Node6&#45;&gt;Node9</title>
<path fill="none" stroke="midnightblue" d="M674.156,-51C699.767,-51 729.626,-51 758.267,-51"/>
<polygon fill="midnightblue" stroke="midnightblue" points="758.338,-54.5001 768.338,-51 758.338,-47.5001 758.338,-54.5001"/>
</g>
<!-- Node10 -->
<g id="node20" class="node"><title>Node10</title>
<a xlink:href="../../dd/d9c/classmozilla_1_1_error_result.html#a0fb81790665001fd83bc9276c810ce4f" target="_top" xlink:title="mozilla::ErrorResult::IsTypeError">
<polygon fill="white" stroke="black" points="792,-0.5 792,-21.5 952,-21.5 952,-0.5 792,-0.5"/>
<text text-anchor="middle" x="872" y="-8.5" font-family="Helvetica,sans-Serif" font-size="10.00">mozilla::ErrorResult::IsTypeError</text>
</a>
</g>
<!-- Node6&#45;&gt;Node10 -->
<g id="edge20" class="edge"><title>Node6&#45;&gt;Node10</title>
<path fill="none" stroke="midnightblue" d="M674.156,-40.7509C710.188,-35.3326 754.627,-28.65 792.255,-22.9918"/>
<polygon fill="midnightblue" stroke="midnightblue" points="792.8,-26.4493 802.168,-21.5011 791.759,-19.5271 792.8,-26.4493"/>
</g>
<!-- Node8 -->
<g id="node15" class="node"><title>Node8</title>
<a xlink:href="../../dd/d9c/classmozilla_1_1_error_result.html#a5ec60babbb4edab5e6b4f41f2406148a" target="_top" xlink:title="mozilla::ErrorResult::ErrorCode">
<polygon fill="white" stroke="black" points="1012.5,-40.5 1012.5,-61.5 1165.5,-61.5 1165.5,-40.5 1012.5,-40.5"/>
<text text-anchor="middle" x="1089" y="-48.5" font-family="Helvetica,sans-Serif" font-size="10.00">mozilla::ErrorResult::ErrorCode</text>
</a>
</g>
<!-- Node7&#45;&gt;Node8 -->
<g id="edge14" class="edge"><title>Node7&#45;&gt;Node8</title>
<path fill="none" stroke="midnightblue" d="M929.014,-80.4905C957.558,-75.229 992.289,-68.8268 1022.09,-63.3338"/>
<polygon fill="midnightblue" stroke="midnightblue" points="1022.79,-66.7636 1031.99,-61.5087 1021.52,-59.8796 1022.79,-66.7636"/>
</g>
<!-- Node9&#45;&gt;Node8 -->
<g id="edge18" class="edge"><title>Node9&#45;&gt;Node8</title>
<path fill="none" stroke="midnightblue" d="M975.733,-51C984.584,-51 993.476,-51 1002.17,-51"/>
<polygon fill="midnightblue" stroke="midnightblue" points="1002.28,-54.5001 1012.28,-51 1002.28,-47.5001 1002.28,-54.5001"/>
</g>
<!-- Node10&#45;&gt;Node8 -->
<g id="edge22" class="edge"><title>Node10&#45;&gt;Node8</title>
<path fill="none" stroke="midnightblue" d="M929.014,-21.5095C957.558,-26.771 992.289,-33.1732 1022.09,-38.6662"/>
<polygon fill="midnightblue" stroke="midnightblue" points="1021.52,-42.1204 1031.99,-40.4913 1022.79,-35.2364 1021.52,-42.1204"/>
</g>
</g>
</svg>
        <g id="navigator" transform="translate(0 0)" fill="#404254">
                <rect fill="#f2f5e9" fill-opacity="0.5" stroke="#606060" stroke-width=".5" x="0" y="0" width="60" height="60"/>
                <use id="zoomplus" xlink:href="#zoomPlus" x="17" y="9" onmousedown="handleZoom(evt,'in')"/>
                <use id="zoomminus" xlink:href="#zoomMin" x="42" y="9" onmousedown="handleZoom(evt,'out')"/>
                <use id="reset" xlink:href="#resetDef" x="30" y="36" onmousedown="handleReset()"/>
                <g id="arrowUp" xlink:href="#dirArrow" transform="translate(30 24)" onmousedown="handlePan(0,-1)">
                  <use xlink:href="#rim" fill="#404040">
                        <set attributeName="fill" to="#808080" begin="arrowUp.mouseover" end="arrowUp.mouseout"/>
                  </use>
                  <path fill="none" stroke="white" stroke-width="1.5" d="M0,-3.0v7 M-2.5,-0.5L0,-3.0L2.5,-0.5"/>
                </g>
                <g id="arrowRight" xlink:href="#dirArrow" transform="rotate(90) translate(36 -43)" onmousedown="handlePan(1,0)">
                  <use xlink:href="#rim" fill="#404040">
                        <set attributeName="fill" to="#808080" begin="arrowRight.mouseover" end="arrowRight.mouseout"/>
                  </use>
                  <path fill="none" stroke="white" stroke-width="1.5" d="M0,-3.0v7 M-2.5,-0.5L0,-3.0L2.5,-0.5"/>
                </g>
                <g id="arrowDown" xlink:href="#dirArrow" transform="rotate(180) translate(-30 -48)" onmousedown="handlePan(0,1)">
                  <use xlink:href="#rim" fill="#404040">
                        <set attributeName="fill" to="#808080" begin="arrowDown.mouseover" end="arrowDown.mouseout"/>
                  </use>
                  <path fill="none" stroke="white" stroke-width="1.5" d="M0,-3.0v7 M-2.5,-0.5L0,-3.0L2.5,-0.5"/>
                </g>
                <g id="arrowLeft" xlink:href="#dirArrow" transform="rotate(270) translate(-36 17)" onmousedown="handlePan(-1,0)">
                  <use xlink:href="#rim" fill="#404040">
                        <set attributeName="fill" to="#808080" begin="arrowLeft.mouseover" end="arrowLeft.mouseout"/>
                  </use>
                  <path fill="none" stroke="white" stroke-width="1.5" d="M0,-3.0v7 M-2.5,-0.5L0,-3.0L2.5,-0.5"/>
                </g>
        </g>
</svg>
