<?xml version="1.0" encoding="UTF-8" standalone="no"?>
<!DOCTYPE svg PUBLIC "-//W3C//DTD SVG 1.1//EN"
 "http://www.w3.org/Graphics/SVG/1.1/DTD/svg11.dtd">
<!-- Generated by graphviz version 2.26.3 (20100126.1600)
 -->
<!-- Title: G Pages: 1 -->
<svg width="252pt" height="146pt"
 viewBox="0.00 0.00 252.00 146.00" xmlns="http://www.w3.org/2000/svg" xmlns:xlink="http://www.w3.org/1999/xlink">
<g id="graph1" class="graph" transform="scale(1 1) rotate(0) translate(4 142)">
<title>G</title>
<polygon fill="white" stroke="white" points="-4,5 -4,-142 249,-142 249,5 -4,5"/>
<!-- Node1 -->
<g id="node1" class="node"><title>Node1</title>
<polygon fill="#bfbfbf" stroke="black" points="-0.5,-0.5 -0.5,-21.5 244.5,-21.5 244.5,-0.5 -0.5,-0.5"/>
<text text-anchor="middle" x="122" y="-8.5" font-family="Helvetica,sans-Serif" font-size="10.00">mozilla::FrameLayerBuilder::ThebesLayerItemsEntry</text>
</g>
<!-- Node2 -->
<g id="node2" class="node"><title>Node2</title>
<a xlink:href="../../d9/d2d/classns_ptr_hash_key.html" target="_top" xlink:title="nsPtrHashKey\&lt; ThebesLayer \&gt;">
<polygon fill="white" stroke="black" points="44.5,-58.5 44.5,-79.5 199.5,-79.5 199.5,-58.5 44.5,-58.5"/>
<text text-anchor="middle" x="122" y="-66.5" font-family="Helvetica,sans-Serif" font-size="10.00">nsPtrHashKey&lt; ThebesLayer &gt;</text>
</a>
</g>
<!-- Node2&#45;&gt;Node1 -->
<g id="edge2" class="edge"><title>Node2&#45;&gt;Node1</title>
<path fill="none" stroke="midnightblue" d="M122,-48.1906C122,-39.1684 122,-28.9941 122,-21.5707"/>
<polygon fill="midnightblue" stroke="midnightblue" points="118.5,-48.3619 122,-58.3619 125.5,-48.3619 118.5,-48.3619"/>
</g>
<!-- Node3 -->
<g id="node4" class="node"><title>Node3</title>
<a xlink:href="../../d0/dcc/struct_p_l_d_hash_entry_hdr.html" target="_top" xlink:title="PLDHashEntryHdr">
<polygon fill="white" stroke="black" points="73,-116.5 73,-137.5 171,-137.5 171,-116.5 73,-116.5"/>
<text text-anchor="middle" x="122" y="-124.5" font-family="Helvetica,sans-Serif" font-size="10.00">PLDHashEntryHdr</text>
</a>
</g>
<!-- Node3&#45;&gt;Node2 -->
<g id="edge4" class="edge"><title>Node3&#45;&gt;Node2</title>
<path fill="none" stroke="midnightblue" d="M122,-106.191C122,-97.1684 122,-86.9941 122,-79.5707"/>
<polygon fill="midnightblue" stroke="midnightblue" points="118.5,-106.362 122,-116.362 125.5,-106.362 118.5,-106.362"/>
</g>
</g>
</svg>
