<?xml version="1.0" encoding="UTF-8" standalone="no"?>
<!DOCTYPE svg PUBLIC "-//W3C//DTD SVG 1.1//EN"
 "http://www.w3.org/Graphics/SVG/1.1/DTD/svg11.dtd">
<!-- Generated by graphviz version 2.26.3 (20100126.1600)
 -->
<!-- Title: G Pages: 1 -->
<!--zoomable 86 -->
<svg id="main" version="1.1" xmlns="http://www.w3.org/2000/svg" xmlns:xlink="http://www.w3.org/1999/xlink" xml:space="preserve" onload="init(evt)">
        <defs>
                <circle id="rim" cx="0" cy="0" r="7"/>
                <circle id="rim2" cx="0" cy="0" r="3.5"/>
                <g id="zoomPlus">
                        <use xlink:href="#rim" fill="#404040">
                                <set attributeName="fill" to="#808080" begin="zoomplus.mouseover" end="zoomplus.mouseout"/>
                        </use>
                        <path d="M-4,0h8M0,-4v8" fill="none" stroke="white" stroke-width="1.5" pointer-events="none"/>
                </g>
                <g id="zoomMin">
                        <use xlink:href="#rim" fill="#404040">
                                <set attributeName="fill" to="#808080" begin="zoomminus.mouseover" end="zoomminus.mouseout"/>
                        </use>
                        <path d="M-4,0h8" fill="none" stroke="white" stroke-width="1.5" pointer-events="none"/>
                </g>
                <g id="dirArrow">
                        <path fill="none" stroke="white" stroke-width="1.5" d="M0,-3.0v7 M-2.5,-0.5L0,-3.0L2.5,-0.5"/>
                </g>
               <g id="resetDef">
                       <use xlink:href="#rim2" fill="#404040">
                               <set attributeName="fill" to="#808080" begin="reset.mouseover" end="reset.mouseout"/>
                       </use>
               </g>
        </defs>

<script type="text/javascript">
var viewWidth = 1674;
var viewHeight = 86;
var sectionId = 'dynsection-19';
</script>
<script xlink:href="../../svgpan.js"/>
<svg id="graph" class="graph">
<g id="viewport">
<title>G</title>
<polygon fill="white" stroke="white" points="-4,5 -4,-81.9963 1671,-81.9963 1671,5 -4,5"/>
<!-- Node1 -->
<g id="node1" class="node"><title>Node1</title>
<polygon fill="#bfbfbf" stroke="black" points="0.5,-20.5 0.5,-41.5 185.5,-41.5 185.5,-20.5 0.5,-20.5"/>
<text text-anchor="middle" x="93" y="-28.5" font-family="Helvetica,sans-Serif" font-size="10.00">mozilla::a11y::Accessible::GetIndexOf</text>
</g>
<!-- Node2 -->
<g id="node3" class="node"><title>Node2</title>
<a xlink:href="../../d5/d21/classmozilla_1_1a11y_1_1_hyper_text_accessible.html#aa53e6d0b93187be5dffef47b87563d44" target="_top" xlink:title="mozilla::a11y::HyperTextAccessible::GetChildOffset">
<polygon fill="white" stroke="black" points="222.5,-20.5 222.5,-41.5 467.5,-41.5 467.5,-20.5 222.5,-20.5"/>
<text text-anchor="middle" x="345" y="-28.5" font-family="Helvetica,sans-Serif" font-size="10.00">mozilla::a11y::HyperTextAccessible::GetChildOffset</text>
</a>
</g>
<!-- Node1&#45;&gt;Node2 -->
<g id="edge2" class="edge"><title>Node1&#45;&gt;Node2</title>
<path fill="none" stroke="midnightblue" d="M195.918,-31C204.638,-31 213.511,-31 222.362,-31"/>
<polygon fill="midnightblue" stroke="midnightblue" points="195.762,-27.5001 185.762,-31 195.762,-34.5001 195.762,-27.5001"/>
</g>
<!-- Node3 -->
<g id="node5" class="node"><title>Node3</title>
<a xlink:href="../../d5/d21/classmozilla_1_1a11y_1_1_hyper_text_accessible.html#a6a506b8e431f0976e51e2858221b6d13" target="_top" xlink:title="mozilla::a11y::HyperTextAccessible::CharacterCount">
<polygon fill="white" stroke="black" points="504.5,-40.5 504.5,-61.5 753.5,-61.5 753.5,-40.5 504.5,-40.5"/>
<text text-anchor="middle" x="629" y="-48.5" font-family="Helvetica,sans-Serif" font-size="10.00">mozilla::a11y::HyperTextAccessible::CharacterCount</text>
</a>
</g>
<!-- Node2&#45;&gt;Node3 -->
<g id="edge4" class="edge"><title>Node2&#45;&gt;Node3</title>
<path fill="none" stroke="midnightblue" d="M477.513,-40.3319C486.406,-40.9582 495.348,-41.5879 504.2,-42.2113"/>
<polygon fill="midnightblue" stroke="midnightblue" points="477.723,-36.8381 467.502,-39.6269 477.232,-43.8208 477.723,-36.8381"/>
</g>
<!-- Node6 -->
<g id="node11" class="node"><title>Node6</title>
<a xlink:href="../../d5/d21/classmozilla_1_1a11y_1_1_hyper_text_accessible.html#a343203bdb415433bf0f99057e637644c" target="_top" xlink:title="mozilla::a11y::HyperTextAccessible::CharAt">
<polygon fill="white" stroke="black" points="523.5,-0.5 523.5,-21.5 734.5,-21.5 734.5,-0.5 523.5,-0.5"/>
<text text-anchor="middle" x="629" y="-8.5" font-family="Helvetica,sans-Serif" font-size="10.00">mozilla::a11y::HyperTextAccessible::CharAt</text>
</a>
</g>
<!-- Node2&#45;&gt;Node6 -->
<g id="edge10" class="edge"><title>Node2&#45;&gt;Node6</title>
<path fill="none" stroke="midnightblue" d="M477.574,-21.6638C492.944,-20.5814 508.462,-19.4886 523.403,-18.4364"/>
<polygon fill="midnightblue" stroke="midnightblue" points="477.232,-18.1792 467.502,-22.3731 477.723,-25.1619 477.232,-18.1792"/>
</g>
<!-- Node4 -->
<g id="node7" class="node"><title>Node4</title>
<a xlink:href="../../d5/d21/classmozilla_1_1a11y_1_1_hyper_text_accessible.html#a32a73de4a10a2027a6d56ad9cd1c8da2" target="_top" xlink:title="mozilla::a11y::HyperTextAccessible::IsEmptyLastLineOffset">
<polygon fill="white" stroke="black" points="1384.5,-49.5 1384.5,-70.5 1665.5,-70.5 1665.5,-49.5 1384.5,-49.5"/>
<text text-anchor="middle" x="1525" y="-57.5" font-family="Helvetica,sans-Serif" font-size="10.00">mozilla::a11y::HyperTextAccessible::IsEmptyLastLineOffset</text>
</a>
</g>
<!-- Node3&#45;&gt;Node4 -->
<g id="edge6" class="edge"><title>Node3&#45;&gt;Node4</title>
<path fill="none" stroke="midnightblue" d="M708.694,-62.8777C734.566,-66.2033 763.445,-69.3569 790,-71 996.507,-83.7774 1236.24,-75.9591 1384.29,-68.5071"/>
<polygon fill="midnightblue" stroke="midnightblue" points="708.933,-59.3791 698.563,-61.5474 708.022,-66.3196 708.933,-59.3791"/>
</g>
<!-- Node5 -->
<g id="node9" class="node"><title>Node5</title>
<a xlink:href="../../d5/d21/classmozilla_1_1a11y_1_1_hyper_text_accessible.html#af95f4dfb413c45a73349a9971e473c86" target="_top" xlink:title="mozilla::a11y::HyperTextAccessible::ConvertMagicOffset">
<polygon fill="white" stroke="black" points="790,-40.5 790,-61.5 1058,-61.5 1058,-40.5 790,-40.5"/>
<text text-anchor="middle" x="924" y="-48.5" font-family="Helvetica,sans-Serif" font-size="10.00">mozilla::a11y::HyperTextAccessible::ConvertMagicOffset</text>
</a>
</g>
<!-- Node3&#45;&gt;Node5 -->
<g id="edge8" class="edge"><title>Node3&#45;&gt;Node5</title>
<path fill="none" stroke="midnightblue" d="M763.804,-51C772.458,-51 781.171,-51 789.822,-51"/>
<polygon fill="midnightblue" stroke="midnightblue" points="763.679,-47.5001 753.679,-51 763.679,-54.5001 763.679,-47.5001"/>
</g>
<!-- Node7 -->
<g id="node13" class="node"><title>Node7</title>
<a xlink:href="../../d5/d21/classmozilla_1_1a11y_1_1_hyper_text_accessible.html#a0cb965b82439486e1d98b86a262ba218" target="_top" xlink:title="mozilla::a11y::HyperTextAccessible::IsCharAt">
<polygon fill="white" stroke="black" points="814.5,-0.5 814.5,-21.5 1033.5,-21.5 1033.5,-0.5 814.5,-0.5"/>
<text text-anchor="middle" x="924" y="-8.5" font-family="Helvetica,sans-Serif" font-size="10.00">mozilla::a11y::HyperTextAccessible::IsCharAt</text>
</a>
</g>
<!-- Node6&#45;&gt;Node7 -->
<g id="edge12" class="edge"><title>Node6&#45;&gt;Node7</title>
<path fill="none" stroke="midnightblue" d="M744.728,-11C767.561,-11 791.46,-11 814.094,-11"/>
<polygon fill="midnightblue" stroke="midnightblue" points="744.669,-7.5001 734.669,-11 744.668,-14.5001 744.669,-7.5001"/>
</g>
<!-- Node8 -->
<g id="node15" class="node"><title>Node8</title>
<a xlink:href="../../d5/d21/classmozilla_1_1a11y_1_1_hyper_text_accessible.html#aa0fcd2ea00d6019b8b259aa63ee76f3b" target="_top" xlink:title="mozilla::a11y::HyperTextAccessible::IsLineEndCharAt">
<polygon fill="white" stroke="black" points="1094,-20.5 1094,-41.5 1348,-41.5 1348,-20.5 1094,-20.5"/>
<text text-anchor="middle" x="1221" y="-28.5" font-family="Helvetica,sans-Serif" font-size="10.00">mozilla::a11y::HyperTextAccessible::IsLineEndCharAt</text>
</a>
</g>
<!-- Node7&#45;&gt;Node8 -->
<g id="edge14" class="edge"><title>Node7&#45;&gt;Node8</title>
<path fill="none" stroke="midnightblue" d="M1043.92,-19.0756C1060.38,-20.1836 1077.32,-21.3244 1093.9,-22.4407"/>
<polygon fill="midnightblue" stroke="midnightblue" points="1043.96,-15.5703 1033.75,-18.3904 1043.49,-22.5545 1043.96,-15.5703"/>
</g>
<!-- Node8&#45;&gt;Node4 -->
<g id="edge16" class="edge"><title>Node8&#45;&gt;Node4</title>
<path fill="none" stroke="midnightblue" d="M1341.14,-42.4603C1365.39,-44.7743 1390.78,-47.1965 1414.68,-49.4765"/>
<polygon fill="midnightblue" stroke="midnightblue" points="1341.47,-38.9762 1331.18,-41.5107 1340.8,-45.9446 1341.47,-38.9762"/>
</g>
</g>
</svg>
        <g id="navigator" transform="translate(0 0)" fill="#404254">
                <rect fill="#f2f5e9" fill-opacity="0.5" stroke="#606060" stroke-width=".5" x="0" y="0" width="60" height="60"/>
                <use id="zoomplus" xlink:href="#zoomPlus" x="17" y="9" onmousedown="handleZoom(evt,'in')"/>
                <use id="zoomminus" xlink:href="#zoomMin" x="42" y="9" onmousedown="handleZoom(evt,'out')"/>
                <use id="reset" xlink:href="#resetDef" x="30" y="36" onmousedown="handleReset()"/>
                <g id="arrowUp" xlink:href="#dirArrow" transform="translate(30 24)" onmousedown="handlePan(0,-1)">
                  <use xlink:href="#rim" fill="#404040">
                        <set attributeName="fill" to="#808080" begin="arrowUp.mouseover" end="arrowUp.mouseout"/>
                  </use>
                  <path fill="none" stroke="white" stroke-width="1.5" d="M0,-3.0v7 M-2.5,-0.5L0,-3.0L2.5,-0.5"/>
                </g>
                <g id="arrowRight" xlink:href="#dirArrow" transform="rotate(90) translate(36 -43)" onmousedown="handlePan(1,0)">
                  <use xlink:href="#rim" fill="#404040">
                        <set attributeName="fill" to="#808080" begin="arrowRight.mouseover" end="arrowRight.mouseout"/>
                  </use>
                  <path fill="none" stroke="white" stroke-width="1.5" d="M0,-3.0v7 M-2.5,-0.5L0,-3.0L2.5,-0.5"/>
                </g>
                <g id="arrowDown" xlink:href="#dirArrow" transform="rotate(180) translate(-30 -48)" onmousedown="handlePan(0,1)">
                  <use xlink:href="#rim" fill="#404040">
                        <set attributeName="fill" to="#808080" begin="arrowDown.mouseover" end="arrowDown.mouseout"/>
                  </use>
                  <path fill="none" stroke="white" stroke-width="1.5" d="M0,-3.0v7 M-2.5,-0.5L0,-3.0L2.5,-0.5"/>
                </g>
                <g id="arrowLeft" xlink:href="#dirArrow" transform="rotate(270) translate(-36 17)" onmousedown="handlePan(-1,0)">
                  <use xlink:href="#rim" fill="#404040">
                        <set attributeName="fill" to="#808080" begin="arrowLeft.mouseover" end="arrowLeft.mouseout"/>
                  </use>
                  <path fill="none" stroke="white" stroke-width="1.5" d="M0,-3.0v7 M-2.5,-0.5L0,-3.0L2.5,-0.5"/>
                </g>
        </g>
</svg>
