<?xml version="1.0" encoding="UTF-8" standalone="no"?>
<!DOCTYPE svg PUBLIC "-//W3C//DTD SVG 1.1//EN"
 "http://www.w3.org/Graphics/SVG/1.1/DTD/svg11.dtd">
<!-- Generated by graphviz version 2.26.3 (20100126.1600)
 -->
<!-- Title: G Pages: 1 -->
<!--zoomable 668 -->
<svg id="main" version="1.1" xmlns="http://www.w3.org/2000/svg" xmlns:xlink="http://www.w3.org/1999/xlink" xml:space="preserve" onload="init(evt)">
        <defs>
                <circle id="rim" cx="0" cy="0" r="7"/>
                <circle id="rim2" cx="0" cy="0" r="3.5"/>
                <g id="zoomPlus">
                        <use xlink:href="#rim" fill="#404040">
                                <set attributeName="fill" to="#808080" begin="zoomplus.mouseover" end="zoomplus.mouseout"/>
                        </use>
                        <path d="M-4,0h8M0,-4v8" fill="none" stroke="white" stroke-width="1.5" pointer-events="none"/>
                </g>
                <g id="zoomMin">
                        <use xlink:href="#rim" fill="#404040">
                                <set attributeName="fill" to="#808080" begin="zoomminus.mouseover" end="zoomminus.mouseout"/>
                        </use>
                        <path d="M-4,0h8" fill="none" stroke="white" stroke-width="1.5" pointer-events="none"/>
                </g>
                <g id="dirArrow">
                        <path fill="none" stroke="white" stroke-width="1.5" d="M0,-3.0v7 M-2.5,-0.5L0,-3.0L2.5,-0.5"/>
                </g>
               <g id="resetDef">
                       <use xlink:href="#rim2" fill="#404040">
                               <set attributeName="fill" to="#808080" begin="reset.mouseover" end="reset.mouseout"/>
                       </use>
               </g>
        </defs>

<script type="text/javascript">
var viewWidth = 745;
var viewHeight = 668;
var sectionId = 'dynsection-0';
</script>
<script xlink:href="../../svgpan.js"/>
<svg id="graph" class="graph">
<g id="viewport">
<title>G</title>
<polygon fill="white" stroke="white" points="-4,5 -4,-664 742.345,-664 742.345,5 -4,5"/>
<!-- Node1 -->
<g id="node1" class="node"><title>Node1</title>
<polygon fill="#bfbfbf" stroke="black" points="178.345,-638.5 178.345,-659.5 570.345,-659.5 570.345,-638.5 178.345,-638.5"/>
<text text-anchor="middle" x="374.345" y="-646.5" font-family="Helvetica,sans-Serif" font-size="10.00">/home/aoi/Documents/FxOS/B2G/gaia/xulrunner&#45;sdk/include/skia/SkGradientShader.h</text>
</g>
<!-- Node2 -->
<g id="node3" class="node"><title>Node2</title>
<a xlink:href="../../dd/d33/_sk_shader_8h.html" target="_top" xlink:title="SkShader.h">
<polygon fill="white" stroke="black" points="340.345,-580.5 340.345,-601.5 408.345,-601.5 408.345,-580.5 340.345,-580.5"/>
<text text-anchor="middle" x="374.345" y="-588.5" font-family="Helvetica,sans-Serif" font-size="10.00">SkShader.h</text>
</a>
</g>
<!-- Node1&#45;&gt;Node2 -->
<g id="edge2" class="edge"><title>Node1&#45;&gt;Node2</title>
<path fill="none" stroke="midnightblue" d="M374.345,-638.362C374.345,-630.922 374.345,-620.743 374.345,-611.728"/>
<polygon fill="midnightblue" stroke="midnightblue" points="377.845,-611.571 374.345,-601.571 370.845,-611.571 377.845,-611.571"/>
</g>
<!-- Node3 -->
<g id="node5" class="node"><title>Node3</title>
<a xlink:href="../../de/dad/_sk_bitmap_8h.html" target="_top" xlink:title="SkBitmap.h">
<polygon fill="white" stroke="black" points="340.345,-522.5 340.345,-543.5 408.345,-543.5 408.345,-522.5 340.345,-522.5"/>
<text text-anchor="middle" x="374.345" y="-530.5" font-family="Helvetica,sans-Serif" font-size="10.00">SkBitmap.h</text>
</a>
</g>
<!-- Node2&#45;&gt;Node3 -->
<g id="edge4" class="edge"><title>Node2&#45;&gt;Node3</title>
<path fill="none" stroke="midnightblue" d="M374.345,-580.362C374.345,-572.922 374.345,-562.743 374.345,-553.728"/>
<polygon fill="midnightblue" stroke="midnightblue" points="377.845,-553.571 374.345,-543.571 370.845,-553.571 377.845,-553.571"/>
</g>
<!-- Node21 -->
<g id="node46" class="node"><title>Node21</title>
<a xlink:href="../../d9/dad/_sk_flattenable_8h.html" target="_top" xlink:title="SkFlattenable.h">
<polygon fill="white" stroke="black" points="117.845,-406.5 117.845,-427.5 202.845,-427.5 202.845,-406.5 117.845,-406.5"/>
<text text-anchor="middle" x="160.345" y="-414.5" font-family="Helvetica,sans-Serif" font-size="10.00">SkFlattenable.h</text>
</a>
</g>
<!-- Node2&#45;&gt;Node21 -->
<g id="edge90" class="edge"><title>Node2&#45;&gt;Node21</title>
<path fill="none" stroke="midnightblue" d="M340.314,-586.77C256.604,-575.565 44.6915,-542.076 6.34507,-486 -21.2887,-445.59 52.7657,-428.535 107.532,-421.564"/>
<polygon fill="midnightblue" stroke="midnightblue" points="107.988,-425.034 117.504,-420.376 107.16,-418.084 107.988,-425.034"/>
</g>
<!-- Node31 -->
<g id="node77" class="node"><title>Node31</title>
<a xlink:href="../../d8/d3b/_sk_mask_8h.html" target="_top" xlink:title="SkMask.h">
<polygon fill="white" stroke="black" points="507.845,-522.5 507.845,-543.5 568.845,-543.5 568.845,-522.5 507.845,-522.5"/>
<text text-anchor="middle" x="538.345" y="-530.5" font-family="Helvetica,sans-Serif" font-size="10.00">SkMask.h</text>
</a>
</g>
<!-- Node2&#45;&gt;Node31 -->
<g id="edge92" class="edge"><title>Node2&#45;&gt;Node31</title>
<path fill="none" stroke="midnightblue" d="M404.044,-580.497C430.665,-571.082 469.907,-557.204 499.106,-546.877"/>
<polygon fill="midnightblue" stroke="midnightblue" points="500.329,-550.157 508.59,-543.523 497.995,-543.558 500.329,-550.157"/>
</g>
<!-- Node34 -->
<g id="node85" class="node"><title>Node34</title>
<a xlink:href="../../da/d71/_sk_matrix_8h.html" target="_top" xlink:title="SkMatrix.h">
<polygon fill="white" stroke="black" points="426.345,-522.5 426.345,-543.5 490.345,-543.5 490.345,-522.5 426.345,-522.5"/>
<text text-anchor="middle" x="458.345" y="-530.5" font-family="Helvetica,sans-Serif" font-size="10.00">SkMatrix.h</text>
</a>
</g>
<!-- Node2&#45;&gt;Node34 -->
<g id="edge102" class="edge"><title>Node2&#45;&gt;Node34</title>
<path fill="none" stroke="midnightblue" d="M389.752,-580.362C402.303,-571.696 420.237,-559.313 434.62,-549.382"/>
<polygon fill="midnightblue" stroke="midnightblue" points="436.796,-552.133 443.036,-543.571 432.818,-546.372 436.796,-552.133"/>
</g>
<!-- Node35 -->
<g id="node88" class="node"><title>Node35</title>
<a xlink:href="../../d7/dac/_sk_paint_8h.html" target="_top" xlink:title="SkPaint.h">
<polygon fill="white" stroke="black" points="163.845,-522.5 163.845,-543.5 222.845,-543.5 222.845,-522.5 163.845,-522.5"/>
<text text-anchor="middle" x="193.345" y="-530.5" font-family="Helvetica,sans-Serif" font-size="10.00">SkPaint.h</text>
</a>
</g>
<!-- Node2&#45;&gt;Node35 -->
<g id="edge106" class="edge"><title>Node2&#45;&gt;Node35</title>
<path fill="none" stroke="midnightblue" d="M341.567,-580.497C310.916,-570.675 265.104,-555.994 232.534,-545.558"/>
<polygon fill="midnightblue" stroke="midnightblue" points="233.473,-542.184 222.882,-542.465 231.337,-548.85 233.473,-542.184"/>
</g>
<!-- Node4 -->
<g id="node7" class="node"><title>Node4</title>
<a xlink:href="../../d5/d31/_sk64_8h.html" target="_top" xlink:title="Sk64.h">
<polygon fill="white" stroke="black" points="411.845,-348.5 411.845,-369.5 458.845,-369.5 458.845,-348.5 411.845,-348.5"/>
<text text-anchor="middle" x="435.345" y="-356.5" font-family="Helvetica,sans-Serif" font-size="10.00">Sk64.h</text>
</a>
</g>
<!-- Node3&#45;&gt;Node4 -->
<g id="edge6" class="edge"><title>Node3&#45;&gt;Node4</title>
<path fill="none" stroke="midnightblue" d="M388.632,-522.317C398.986,-513.722 412.35,-500.687 419.345,-486 435.743,-451.57 437.347,-406.232 436.621,-380.081"/>
<polygon fill="midnightblue" stroke="midnightblue" points="440.107,-379.672 436.187,-369.83 433.114,-379.969 440.107,-379.672"/>
</g>
<!-- Node14 -->
<g id="node28" class="node"><title>Node14</title>
<a xlink:href="../../d8/de1/_sk_color_8h.html" target="_top" xlink:title="SkColor.h">
<polygon fill="white" stroke="black" points="267.345,-406.5 267.345,-427.5 327.345,-427.5 327.345,-406.5 267.345,-406.5"/>
<text text-anchor="middle" x="297.345" y="-414.5" font-family="Helvetica,sans-Serif" font-size="10.00">SkColor.h</text>
</a>
</g>
<!-- Node3&#45;&gt;Node14 -->
<g id="edge28" class="edge"><title>Node3&#45;&gt;Node14</title>
<path fill="none" stroke="midnightblue" d="M372.005,-522.469C368.507,-508.288 360.941,-482.68 348.345,-464 340.667,-452.613 329.706,-442.043 319.912,-433.822"/>
<polygon fill="midnightblue" stroke="midnightblue" points="322.043,-431.044 312.058,-427.502 317.655,-436.498 322.043,-431.044"/>
</g>
<!-- Node20 -->
<g id="node43" class="node"><title>Node20</title>
<a xlink:href="../../db/dc8/_sk_color_table_8h.html" target="_top" xlink:title="SkColorTable.h">
<polygon fill="white" stroke="black" points="255.345,-464.5 255.345,-485.5 339.345,-485.5 339.345,-464.5 255.345,-464.5"/>
<text text-anchor="middle" x="297.345" y="-472.5" font-family="Helvetica,sans-Serif" font-size="10.00">SkColorTable.h</text>
</a>
</g>
<!-- Node3&#45;&gt;Node20 -->
<g id="edge46" class="edge"><title>Node3&#45;&gt;Node20</title>
<path fill="none" stroke="midnightblue" d="M360.222,-522.362C348.825,-513.777 332.587,-501.546 319.467,-491.664"/>
<polygon fill="midnightblue" stroke="midnightblue" points="321.472,-488.792 311.379,-485.571 317.26,-494.383 321.472,-488.792"/>
</g>
<!-- Node22 -->
<g id="node48" class="node"><title>Node22</title>
<a xlink:href="../../df/d2b/_sk_ref_cnt_8h.html" target="_top" xlink:title="SkRefCnt.h">
<polygon fill="white" stroke="black" points="195.345,-348.5 195.345,-369.5 263.345,-369.5 263.345,-348.5 195.345,-348.5"/>
<text text-anchor="middle" x="229.345" y="-356.5" font-family="Helvetica,sans-Serif" font-size="10.00">SkRefCnt.h</text>
</a>
</g>
<!-- Node3&#45;&gt;Node22 -->
<g id="edge88" class="edge"><title>Node3&#45;&gt;Node22</title>
<path fill="none" stroke="midnightblue" d="M374.537,-522.285C374.356,-497.796 370.289,-437.427 336.345,-406 318.608,-389.578 294.207,-378.262 273.186,-370.856"/>
<polygon fill="midnightblue" stroke="midnightblue" points="274.086,-367.467 263.493,-367.627 271.874,-374.108 274.086,-367.467"/>
</g>
<!-- Node29 -->
<g id="node69" class="node"><title>Node29</title>
<a xlink:href="../../dc/d8c/_sk_point_8h.html" target="_top" xlink:title="SkPoint.h">
<polygon fill="white" stroke="black" points="470.845,-406.5 470.845,-427.5 529.845,-427.5 529.845,-406.5 470.845,-406.5"/>
<text text-anchor="middle" x="500.345" y="-414.5" font-family="Helvetica,sans-Serif" font-size="10.00">SkPoint.h</text>
</a>
</g>
<!-- Node3&#45;&gt;Node29 -->
<g id="edge80" class="edge"><title>Node3&#45;&gt;Node29</title>
<path fill="none" stroke="midnightblue" d="M400.478,-522.329C418.02,-514.238 440.85,-501.816 457.345,-486 471.914,-472.031 483.624,-452.138 491.123,-437.298"/>
<polygon fill="midnightblue" stroke="midnightblue" points="494.432,-438.494 495.625,-427.966 488.128,-435.452 494.432,-438.494"/>
</g>
<!-- Node5 -->
<g id="node9" class="node"><title>Node5</title>
<a xlink:href="../../d0/df6/_sk_fixed_8h.html" target="_top" xlink:title="SkFixed.h">
<polygon fill="white" stroke="black" points="400.845,-290.5 400.845,-311.5 461.845,-311.5 461.845,-290.5 400.845,-290.5"/>
<text text-anchor="middle" x="431.345" y="-298.5" font-family="Helvetica,sans-Serif" font-size="10.00">SkFixed.h</text>
</a>
</g>
<!-- Node4&#45;&gt;Node5 -->
<g id="edge8" class="edge"><title>Node4&#45;&gt;Node5</title>
<path fill="none" stroke="midnightblue" d="M434.611,-348.362C434.098,-340.922 433.396,-330.743 432.775,-321.728"/>
<polygon fill="midnightblue" stroke="midnightblue" points="436.254,-321.306 432.074,-311.571 429.27,-321.788 436.254,-321.306"/>
</g>
<!-- Node6 -->
<g id="node11" class="node"><title>Node6</title>
<a xlink:href="../../d3/d36/_sk_types_8h.html" target="_top" xlink:title="SkTypes.h">
<polygon fill="white" stroke="black" points="380.345,-116.5 380.345,-137.5 444.345,-137.5 444.345,-116.5 380.345,-116.5"/>
<text text-anchor="middle" x="412.345" y="-124.5" font-family="Helvetica,sans-Serif" font-size="10.00">SkTypes.h</text>
</a>
</g>
<!-- Node5&#45;&gt;Node6 -->
<g id="edge10" class="edge"><title>Node5&#45;&gt;Node6</title>
<path fill="none" stroke="midnightblue" d="M430.185,-290.377C427.118,-262.293 418.752,-185.673 414.66,-148.203"/>
<polygon fill="midnightblue" stroke="midnightblue" points="418.103,-147.489 413.538,-137.928 411.145,-148.249 418.103,-147.489"/>
</g>
<!-- Node7 -->
<g id="node13" class="node"><title>Node7</title>
<a xlink:href="../../da/dc5/_sk_pre_config_8h.html" target="_top" xlink:title="SkPreConfig.h">
<polygon fill="white" stroke="black" points="200.345,-58.5 200.345,-79.5 280.345,-79.5 280.345,-58.5 200.345,-58.5"/>
<text text-anchor="middle" x="240.345" y="-66.5" font-family="Helvetica,sans-Serif" font-size="10.00">SkPreConfig.h</text>
</a>
</g>
<!-- Node6&#45;&gt;Node7 -->
<g id="edge12" class="edge"><title>Node6&#45;&gt;Node7</title>
<path fill="none" stroke="midnightblue" d="M381.197,-116.497C353.157,-107.041 311.763,-93.0829 281.1,-82.7428"/>
<polygon fill="midnightblue" stroke="midnightblue" points="282.146,-79.4019 271.551,-79.5231 279.909,-86.035 282.146,-79.4019"/>
</g>
<!-- Node8 -->
<g id="node15" class="node"><title>Node8</title>
<a xlink:href="../../d8/d2f/_sk_user_config_8h.html" target="_top" xlink:title="SkUserConfig.h">
<polygon fill="white" stroke="black" points="298.345,-58.5 298.345,-79.5 384.345,-79.5 384.345,-58.5 298.345,-58.5"/>
<text text-anchor="middle" x="341.345" y="-66.5" font-family="Helvetica,sans-Serif" font-size="10.00">SkUserConfig.h</text>
</a>
</g>
<!-- Node6&#45;&gt;Node8 -->
<g id="edge14" class="edge"><title>Node6&#45;&gt;Node8</title>
<path fill="none" stroke="midnightblue" d="M399.323,-116.362C388.914,-107.859 374.126,-95.7785 362.09,-85.9466"/>
<polygon fill="midnightblue" stroke="midnightblue" points="364.244,-83.1866 354.285,-79.5707 359.815,-88.6077 364.244,-83.1866"/>
</g>
<!-- Node9 -->
<g id="node17" class="node"><title>Node9</title>
<a xlink:href="../../d8/d35/_sk_post_config_8h.html" target="_top" xlink:title="SkPostConfig.h">
<polygon fill="white" stroke="black" points="440.345,-58.5 440.345,-79.5 526.345,-79.5 526.345,-58.5 440.345,-58.5"/>
<text text-anchor="middle" x="483.345" y="-66.5" font-family="Helvetica,sans-Serif" font-size="10.00">SkPostConfig.h</text>
</a>
</g>
<!-- Node6&#45;&gt;Node9 -->
<g id="edge16" class="edge"><title>Node6&#45;&gt;Node9</title>
<path fill="none" stroke="midnightblue" d="M425.368,-116.362C435.776,-107.859 450.564,-95.7785 462.6,-85.9466"/>
<polygon fill="midnightblue" stroke="midnightblue" points="464.875,-88.6077 470.405,-79.5707 460.446,-83.1866 464.875,-88.6077"/>
</g>
<!-- Node10 -->
<g id="node19" class="node"><title>Node10</title>
<polygon fill="white" stroke="#bfbfbf" points="390.345,-0.5 390.345,-21.5 436.345,-21.5 436.345,-0.5 390.345,-0.5"/>
<text text-anchor="middle" x="413.345" y="-8.5" font-family="Helvetica,sans-Serif" font-size="10.00">stdio.h</text>
</g>
<!-- Node6&#45;&gt;Node10 -->
<g id="edge26" class="edge"><title>Node6&#45;&gt;Node10</title>
<path fill="none" stroke="midnightblue" d="M412.437,-116.295C412.603,-97.1314 412.952,-56.654 413.165,-31.8434"/>
<polygon fill="midnightblue" stroke="midnightblue" points="416.667,-31.709 413.253,-21.6792 409.667,-31.6486 416.667,-31.709"/>
</g>
<!-- Node13 -->
<g id="node25" class="node"><title>Node13</title>
<polygon fill="white" stroke="#bfbfbf" points="543.845,-58.5 543.845,-79.5 592.845,-79.5 592.845,-58.5 543.845,-58.5"/>
<text text-anchor="middle" x="568.345" y="-66.5" font-family="Helvetica,sans-Serif" font-size="10.00">stdint.h</text>
</g>
<!-- Node6&#45;&gt;Node13 -->
<g id="edge24" class="edge"><title>Node6&#45;&gt;Node13</title>
<path fill="none" stroke="midnightblue" d="M440.595,-116.497C466.907,-106.714 506.181,-92.1122 534.231,-81.6835"/>
<polygon fill="midnightblue" stroke="midnightblue" points="535.491,-84.9491 543.645,-78.1835 533.052,-78.3879 535.491,-84.9491"/>
</g>
<!-- Node9&#45;&gt;Node10 -->
<g id="edge18" class="edge"><title>Node9&#45;&gt;Node10</title>
<path fill="none" stroke="midnightblue" d="M470.506,-58.3619C460.343,-49.9408 445.944,-38.0105 434.141,-28.2308"/>
<polygon fill="midnightblue" stroke="midnightblue" points="436.036,-25.2558 426.103,-21.5707 431.57,-30.6459 436.036,-25.2558"/>
</g>
<!-- Node11 -->
<g id="node21" class="node"><title>Node11</title>
<polygon fill="white" stroke="#bfbfbf" points="456.845,-0.5 456.845,-21.5 505.845,-21.5 505.845,-0.5 456.845,-0.5"/>
<text text-anchor="middle" x="481.345" y="-8.5" font-family="Helvetica,sans-Serif" font-size="10.00">string.h</text>
</g>
<!-- Node9&#45;&gt;Node11 -->
<g id="edge20" class="edge"><title>Node9&#45;&gt;Node11</title>
<path fill="none" stroke="midnightblue" d="M482.978,-58.3619C482.722,-50.9219 482.371,-40.7427 482.06,-31.7276"/>
<polygon fill="midnightblue" stroke="midnightblue" points="485.552,-31.4441 481.71,-21.5707 478.556,-31.6854 485.552,-31.4441"/>
</g>
<!-- Node12 -->
<g id="node23" class="node"><title>Node12</title>
<polygon fill="white" stroke="#bfbfbf" points="523.345,-0.5 523.345,-21.5 571.345,-21.5 571.345,-0.5 523.345,-0.5"/>
<text text-anchor="middle" x="547.345" y="-8.5" font-family="Helvetica,sans-Serif" font-size="10.00">stdlib.h</text>
</g>
<!-- Node9&#45;&gt;Node12 -->
<g id="edge22" class="edge"><title>Node9&#45;&gt;Node12</title>
<path fill="none" stroke="midnightblue" d="M495.084,-58.3619C504.286,-50.0226 517.285,-38.2418 528.017,-28.5162"/>
<polygon fill="midnightblue" stroke="midnightblue" points="530.621,-30.8793 535.681,-21.5707 525.921,-25.6924 530.621,-30.8793"/>
</g>
<!-- Node15 -->
<g id="node30" class="node"><title>Node15</title>
<a xlink:href="../../d5/d8a/_sk_scalar_8h.html" target="_top" xlink:title="SkScalar.h">
<polygon fill="white" stroke="black" points="527.845,-348.5 527.845,-369.5 592.845,-369.5 592.845,-348.5 527.845,-348.5"/>
<text text-anchor="middle" x="560.345" y="-356.5" font-family="Helvetica,sans-Serif" font-size="10.00">SkScalar.h</text>
</a>
</g>
<!-- Node14&#45;&gt;Node15 -->
<g id="edge30" class="edge"><title>Node14&#45;&gt;Node15</title>
<path fill="none" stroke="midnightblue" d="M327.515,-410.347C374.287,-400.032 464.458,-380.146 517.818,-368.379"/>
<polygon fill="midnightblue" stroke="midnightblue" points="518.643,-371.781 527.655,-366.209 517.135,-364.945 518.643,-371.781"/>
</g>
<!-- Node15&#45;&gt;Node5 -->
<g id="edge32" class="edge"><title>Node15&#45;&gt;Node5</title>
<path fill="none" stroke="midnightblue" d="M536.984,-348.497C516.654,-339.356 486.967,-326.008 464.236,-315.788"/>
<polygon fill="midnightblue" stroke="midnightblue" points="465.524,-312.53 454.968,-311.621 462.653,-318.914 465.524,-312.53"/>
</g>
<!-- Node16 -->
<g id="node33" class="node"><title>Node16</title>
<a xlink:href="../../df/dd6/_sk_floating_point_8h.html" target="_top" xlink:title="SkFloatingPoint.h">
<polygon fill="white" stroke="black" points="550.345,-232.5 550.345,-253.5 644.345,-253.5 644.345,-232.5 550.345,-232.5"/>
<text text-anchor="middle" x="597.345" y="-240.5" font-family="Helvetica,sans-Serif" font-size="10.00">SkFloatingPoint.h</text>
</a>
</g>
<!-- Node15&#45;&gt;Node16 -->
<g id="edge34" class="edge"><title>Node15&#45;&gt;Node16</title>
<path fill="none" stroke="midnightblue" d="M563.76,-348.295C569.9,-329.045 582.899,-288.289 590.803,-263.509"/>
<polygon fill="midnightblue" stroke="midnightblue" points="594.234,-264.27 593.939,-253.679 587.565,-262.143 594.234,-264.27"/>
</g>
<!-- Node16&#45;&gt;Node6 -->
<g id="edge36" class="edge"><title>Node16&#45;&gt;Node6</title>
<path fill="none" stroke="midnightblue" d="M613.636,-232.306C632.86,-218.383 660.31,-193.523 644.345,-174 620.847,-145.264 514.981,-133.68 454.7,-129.35"/>
<polygon fill="midnightblue" stroke="midnightblue" points="454.577,-125.833 444.362,-128.646 454.102,-132.817 454.577,-125.833"/>
</g>
<!-- Node17 -->
<g id="node36" class="node"><title>Node17</title>
<polygon fill="white" stroke="#bfbfbf" points="690.845,-174.5 690.845,-195.5 737.845,-195.5 737.845,-174.5 690.845,-174.5"/>
<text text-anchor="middle" x="714.345" y="-182.5" font-family="Helvetica,sans-Serif" font-size="10.00">math.h</text>
</g>
<!-- Node16&#45;&gt;Node17 -->
<g id="edge38" class="edge"><title>Node16&#45;&gt;Node17</title>
<path fill="none" stroke="midnightblue" d="M618.533,-232.497C636.807,-223.438 663.417,-210.246 683.96,-200.063"/>
<polygon fill="midnightblue" stroke="midnightblue" points="685.515,-203.199 692.92,-195.621 682.405,-196.927 685.515,-203.199"/>
</g>
<!-- Node18 -->
<g id="node38" class="node"><title>Node18</title>
<polygon fill="white" stroke="#bfbfbf" points="497.345,-174.5 497.345,-195.5 541.345,-195.5 541.345,-174.5 497.345,-174.5"/>
<text text-anchor="middle" x="519.345" y="-182.5" font-family="Helvetica,sans-Serif" font-size="10.00">float.h</text>
</g>
<!-- Node16&#45;&gt;Node18 -->
<g id="edge40" class="edge"><title>Node16&#45;&gt;Node18</title>
<path fill="none" stroke="midnightblue" d="M583.039,-232.362C571.494,-223.777 555.045,-211.546 541.755,-201.664"/>
<polygon fill="midnightblue" stroke="midnightblue" points="543.674,-198.729 533.561,-195.571 539.497,-204.346 543.674,-198.729"/>
</g>
<!-- Node19 -->
<g id="node40" class="node"><title>Node19</title>
<a xlink:href="../../de/d2c/_sk_float_bits_8h.html" target="_top" xlink:title="SkFloatBits.h">
<polygon fill="white" stroke="black" points="559.345,-174.5 559.345,-195.5 635.345,-195.5 635.345,-174.5 559.345,-174.5"/>
<text text-anchor="middle" x="597.345" y="-182.5" font-family="Helvetica,sans-Serif" font-size="10.00">SkFloatBits.h</text>
</a>
</g>
<!-- Node16&#45;&gt;Node19 -->
<g id="edge42" class="edge"><title>Node16&#45;&gt;Node19</title>
<path fill="none" stroke="midnightblue" d="M597.345,-232.362C597.345,-224.922 597.345,-214.743 597.345,-205.728"/>
<polygon fill="midnightblue" stroke="midnightblue" points="600.845,-205.571 597.345,-195.571 593.845,-205.571 600.845,-205.571"/>
</g>
<!-- Node19&#45;&gt;Node6 -->
<g id="edge44" class="edge"><title>Node19&#45;&gt;Node6</title>
<path fill="none" stroke="midnightblue" d="M563.843,-174.497C533.081,-164.852 487.377,-150.524 454.218,-140.128"/>
<polygon fill="midnightblue" stroke="midnightblue" points="454.949,-136.689 444.36,-137.037 452.855,-143.368 454.949,-136.689"/>
</g>
<!-- Node20&#45;&gt;Node14 -->
<g id="edge48" class="edge"><title>Node20&#45;&gt;Node14</title>
<path fill="none" stroke="midnightblue" d="M297.345,-464.362C297.345,-456.922 297.345,-446.743 297.345,-437.728"/>
<polygon fill="midnightblue" stroke="midnightblue" points="300.845,-437.571 297.345,-427.571 293.845,-437.571 300.845,-437.571"/>
</g>
<!-- Node20&#45;&gt;Node21 -->
<g id="edge50" class="edge"><title>Node20&#45;&gt;Node21</title>
<path fill="none" stroke="midnightblue" d="M272.535,-464.497C250.849,-455.315 219.134,-441.889 194.953,-431.652"/>
<polygon fill="midnightblue" stroke="midnightblue" points="196.006,-428.297 185.433,-427.621 193.277,-434.743 196.006,-428.297"/>
</g>
<!-- Node21&#45;&gt;Node22 -->
<g id="edge52" class="edge"><title>Node21&#45;&gt;Node22</title>
<path fill="none" stroke="midnightblue" d="M173.001,-406.362C183.019,-397.941 197.212,-386.011 208.846,-376.231"/>
<polygon fill="midnightblue" stroke="midnightblue" points="211.367,-378.684 216.77,-369.571 206.863,-373.326 211.367,-378.684"/>
</g>
<!-- Node23 -->
<g id="node50" class="node"><title>Node23</title>
<a xlink:href="../../d9/def/_sk_thread_8h.html" target="_top" xlink:title="SkThread.h">
<polygon fill="white" stroke="black" points="280.845,-290.5 280.845,-311.5 347.845,-311.5 347.845,-290.5 280.845,-290.5"/>
<text text-anchor="middle" x="314.345" y="-298.5" font-family="Helvetica,sans-Serif" font-size="10.00">SkThread.h</text>
</a>
</g>
<!-- Node22&#45;&gt;Node23 -->
<g id="edge54" class="edge"><title>Node22&#45;&gt;Node23</title>
<path fill="none" stroke="midnightblue" d="M244.935,-348.362C257.636,-339.696 275.784,-327.313 290.337,-317.382"/>
<polygon fill="midnightblue" stroke="midnightblue" points="292.566,-320.098 298.854,-311.571 288.621,-314.316 292.566,-320.098"/>
</g>
<!-- Node25 -->
<g id="node55" class="node"><title>Node25</title>
<a xlink:href="../../dd/dac/_sk_inst_cnt_8h.html" target="_top" xlink:title="SkInstCnt.h">
<polygon fill="white" stroke="black" points="194.845,-290.5 194.845,-311.5 263.845,-311.5 263.845,-290.5 194.845,-290.5"/>
<text text-anchor="middle" x="229.345" y="-298.5" font-family="Helvetica,sans-Serif" font-size="10.00">SkInstCnt.h</text>
</a>
</g>
<!-- Node22&#45;&gt;Node25 -->
<g id="edge60" class="edge"><title>Node22&#45;&gt;Node25</title>
<path fill="none" stroke="midnightblue" d="M229.345,-348.362C229.345,-340.922 229.345,-330.743 229.345,-321.728"/>
<polygon fill="midnightblue" stroke="midnightblue" points="232.845,-321.571 229.345,-311.571 225.845,-321.571 232.845,-321.571"/>
</g>
<!-- Node28 -->
<g id="node63" class="node"><title>Node28</title>
<a xlink:href="../../db/d2d/_sk_templates_8h.html" target="_top" xlink:title="SkTemplates.h">
<polygon fill="white" stroke="black" points="59.8451,-174.5 59.8451,-195.5 142.845,-195.5 142.845,-174.5 59.8451,-174.5"/>
<text text-anchor="middle" x="101.345" y="-182.5" font-family="Helvetica,sans-Serif" font-size="10.00">SkTemplates.h</text>
</a>
</g>
<!-- Node22&#45;&gt;Node28 -->
<g id="edge78" class="edge"><title>Node22&#45;&gt;Node28</title>
<path fill="none" stroke="midnightblue" d="M216.17,-348.344C195.086,-330.694 153.576,-293.408 128.345,-254 118.728,-238.979 111.608,-219.988 107.101,-205.733"/>
<polygon fill="midnightblue" stroke="midnightblue" points="110.38,-204.482 104.166,-195.901 103.673,-206.484 110.38,-204.482"/>
</g>
<!-- Node23&#45;&gt;Node6 -->
<g id="edge56" class="edge"><title>Node23&#45;&gt;Node6</title>
<path fill="none" stroke="midnightblue" d="M333.427,-290.399C346.699,-282.107 363.833,-269.414 374.345,-254 396.81,-221.058 406.272,-174.538 410.042,-147.905"/>
<polygon fill="midnightblue" stroke="midnightblue" points="413.537,-148.168 411.331,-137.806 406.593,-147.282 413.537,-148.168"/>
</g>
<!-- Node24 -->
<g id="node53" class="node"><title>Node24</title>
<a xlink:href="../../d9/d82/_sk_thread__platform_8h.html" target="_top" xlink:title="SkThread_platform.h">
<polygon fill="white" stroke="black" points="258.845,-232.5 258.845,-253.5 365.845,-253.5 365.845,-232.5 258.845,-232.5"/>
<text text-anchor="middle" x="312.345" y="-240.5" font-family="Helvetica,sans-Serif" font-size="10.00">SkThread_platform.h</text>
</a>
</g>
<!-- Node23&#45;&gt;Node24 -->
<g id="edge58" class="edge"><title>Node23&#45;&gt;Node24</title>
<path fill="none" stroke="midnightblue" d="M313.978,-290.362C313.722,-282.922 313.371,-272.743 313.06,-263.728"/>
<polygon fill="midnightblue" stroke="midnightblue" points="316.552,-263.444 312.71,-253.571 309.556,-263.685 316.552,-263.444"/>
</g>
<!-- Node25&#45;&gt;Node6 -->
<g id="edge62" class="edge"><title>Node25&#45;&gt;Node6</title>
<path fill="none" stroke="midnightblue" d="M230.331,-290.154C232.132,-275.615 237.086,-249.603 250.345,-232 282.925,-188.748 338.905,-158.269 375.774,-141.667"/>
<polygon fill="midnightblue" stroke="midnightblue" points="377.415,-144.769 385.17,-137.549 374.606,-138.357 377.415,-144.769"/>
</g>
<!-- Node25&#45;&gt;Node24 -->
<g id="edge76" class="edge"><title>Node25&#45;&gt;Node24</title>
<path fill="none" stroke="midnightblue" d="M244.569,-290.362C256.97,-281.696 274.691,-269.313 288.902,-259.382"/>
<polygon fill="midnightblue" stroke="midnightblue" points="291.026,-262.168 297.218,-253.571 287.016,-256.43 291.026,-262.168"/>
</g>
<!-- Node26 -->
<g id="node58" class="node"><title>Node26</title>
<a xlink:href="../../dd/d82/_sk_t_array_8h.html" target="_top" xlink:title="SkTArray.h">
<polygon fill="white" stroke="black" points="137.345,-232.5 137.345,-253.5 203.345,-253.5 203.345,-232.5 137.345,-232.5"/>
<text text-anchor="middle" x="170.345" y="-240.5" font-family="Helvetica,sans-Serif" font-size="10.00">SkTArray.h</text>
</a>
</g>
<!-- Node25&#45;&gt;Node26 -->
<g id="edge64" class="edge"><title>Node25&#45;&gt;Node26</title>
<path fill="none" stroke="midnightblue" d="M218.524,-290.362C210.124,-282.104 198.291,-270.472 188.455,-260.803"/>
<polygon fill="midnightblue" stroke="midnightblue" points="190.683,-258.085 181.098,-253.571 185.776,-263.077 190.683,-258.085"/>
</g>
<!-- Node26&#45;&gt;Node6 -->
<g id="edge68" class="edge"><title>Node26&#45;&gt;Node6</title>
<path fill="none" stroke="midnightblue" d="M176.948,-232.354C186.994,-217.066 207.588,-189.08 232.345,-174 274.955,-148.046 331.683,-136.3 369.975,-131.067"/>
<polygon fill="midnightblue" stroke="midnightblue" points="370.782,-134.492 380.26,-129.757 369.898,-127.549 370.782,-134.492"/>
</g>
<!-- Node27 -->
<g id="node60" class="node"><title>Node27</title>
<polygon fill="white" stroke="#bfbfbf" points="118.845,-116.5 118.845,-137.5 153.845,-137.5 153.845,-116.5 118.845,-116.5"/>
<text text-anchor="middle" x="136.345" y="-124.5" font-family="Helvetica,sans-Serif" font-size="10.00">new</text>
</g>
<!-- Node26&#45;&gt;Node27 -->
<g id="edge66" class="edge"><title>Node26&#45;&gt;Node27</title>
<path fill="none" stroke="midnightblue" d="M167.517,-232.205C163.916,-218.592 157.432,-194.486 151.345,-174 148.738,-165.225 145.693,-155.585 143.031,-147.332"/>
<polygon fill="midnightblue" stroke="midnightblue" points="146.348,-146.215 139.924,-137.789 139.692,-148.381 146.348,-146.215"/>
</g>
<!-- Node26&#45;&gt;Node28 -->
<g id="edge70" class="edge"><title>Node26&#45;&gt;Node28</title>
<path fill="none" stroke="midnightblue" d="M157.689,-232.362C147.671,-223.941 133.478,-212.011 121.844,-202.231"/>
<polygon fill="midnightblue" stroke="midnightblue" points="123.827,-199.326 113.921,-195.571 119.323,-204.684 123.827,-199.326"/>
</g>
<!-- Node28&#45;&gt;Node6 -->
<g id="edge72" class="edge"><title>Node28&#45;&gt;Node6</title>
<path fill="none" stroke="midnightblue" d="M142.965,-177.238C202.266,-166.179 310.478,-145.998 370.113,-134.876"/>
<polygon fill="midnightblue" stroke="midnightblue" points="370.767,-138.315 379.956,-133.04 369.484,-131.433 370.767,-138.315"/>
</g>
<!-- Node28&#45;&gt;Node27 -->
<g id="edge74" class="edge"><title>Node28&#45;&gt;Node27</title>
<path fill="none" stroke="midnightblue" d="M107.765,-174.362C112.501,-166.513 119.077,-155.616 124.727,-146.253"/>
<polygon fill="midnightblue" stroke="midnightblue" points="127.796,-147.941 129.966,-137.571 121.803,-144.324 127.796,-147.941"/>
</g>
<!-- Node29&#45;&gt;Node15 -->
<g id="edge86" class="edge"><title>Node29&#45;&gt;Node15</title>
<path fill="none" stroke="midnightblue" d="M511.35,-406.362C519.892,-398.104 531.925,-386.472 541.928,-376.803"/>
<polygon fill="midnightblue" stroke="midnightblue" points="544.653,-379.037 549.41,-369.571 539.787,-374.004 544.653,-379.037"/>
</g>
<!-- Node30 -->
<g id="node71" class="node"><title>Node30</title>
<a xlink:href="../../d9/df0/_sk_math_8h.html" target="_top" xlink:title="SkMath.h">
<polygon fill="white" stroke="black" points="478.845,-290.5 478.845,-311.5 537.845,-311.5 537.845,-290.5 478.845,-290.5"/>
<text text-anchor="middle" x="508.345" y="-298.5" font-family="Helvetica,sans-Serif" font-size="10.00">SkMath.h</text>
</a>
</g>
<!-- Node29&#45;&gt;Node30 -->
<g id="edge82" class="edge"><title>Node29&#45;&gt;Node30</title>
<path fill="none" stroke="midnightblue" d="M501.083,-406.295C502.405,-387.131 505.197,-346.654 506.908,-321.843"/>
<polygon fill="midnightblue" stroke="midnightblue" points="510.412,-321.896 507.609,-311.679 503.429,-321.415 510.412,-321.896"/>
</g>
<!-- Node30&#45;&gt;Node6 -->
<g id="edge84" class="edge"><title>Node30&#45;&gt;Node6</title>
<path fill="none" stroke="midnightblue" d="M502.484,-290.377C486.789,-261.93 443.619,-183.684 423.252,-146.769"/>
<polygon fill="midnightblue" stroke="midnightblue" points="426.27,-144.993 418.374,-137.928 420.14,-148.374 426.27,-144.993"/>
</g>
<!-- Node32 -->
<g id="node79" class="node"><title>Node32</title>
<a xlink:href="../../df/d14/_sk_rect_8h.html" target="_top" xlink:title="SkRect.h">
<polygon fill="white" stroke="black" points="509.345,-464.5 509.345,-485.5 567.345,-485.5 567.345,-464.5 509.345,-464.5"/>
<text text-anchor="middle" x="538.345" y="-472.5" font-family="Helvetica,sans-Serif" font-size="10.00">SkRect.h</text>
</a>
</g>
<!-- Node31&#45;&gt;Node32 -->
<g id="edge94" class="edge"><title>Node31&#45;&gt;Node32</title>
<path fill="none" stroke="midnightblue" d="M538.345,-522.362C538.345,-514.922 538.345,-504.743 538.345,-495.728"/>
<polygon fill="midnightblue" stroke="midnightblue" points="541.845,-495.571 538.345,-485.571 534.845,-495.571 541.845,-495.571"/>
</g>
<!-- Node32&#45;&gt;Node29 -->
<g id="edge96" class="edge"><title>Node32&#45;&gt;Node29</title>
<path fill="none" stroke="midnightblue" d="M531.375,-464.362C526.179,-456.431 518.944,-445.389 512.768,-435.961"/>
<polygon fill="midnightblue" stroke="midnightblue" points="515.679,-434.017 507.271,-427.571 509.823,-437.853 515.679,-434.017"/>
</g>
<!-- Node33 -->
<g id="node82" class="node"><title>Node33</title>
<a xlink:href="../../d9/d2c/_sk_size_8h.html" target="_top" xlink:title="SkSize.h">
<polygon fill="white" stroke="black" points="547.345,-406.5 547.345,-427.5 603.345,-427.5 603.345,-406.5 547.345,-406.5"/>
<text text-anchor="middle" x="575.345" y="-414.5" font-family="Helvetica,sans-Serif" font-size="10.00">SkSize.h</text>
</a>
</g>
<!-- Node32&#45;&gt;Node33 -->
<g id="edge98" class="edge"><title>Node32&#45;&gt;Node33</title>
<path fill="none" stroke="midnightblue" d="M545.131,-464.362C550.138,-456.513 557.09,-445.616 563.063,-436.253"/>
<polygon fill="midnightblue" stroke="midnightblue" points="566.174,-437.884 568.602,-427.571 560.273,-434.119 566.174,-437.884"/>
</g>
<!-- Node33&#45;&gt;Node15 -->
<g id="edge100" class="edge"><title>Node33&#45;&gt;Node15</title>
<path fill="none" stroke="midnightblue" d="M572.594,-406.362C570.649,-398.84 567.979,-388.519 565.629,-379.431"/>
<polygon fill="midnightblue" stroke="midnightblue" points="568.971,-378.376 563.079,-369.571 562.194,-380.128 568.971,-378.376"/>
</g>
<!-- Node34&#45;&gt;Node32 -->
<g id="edge104" class="edge"><title>Node34&#45;&gt;Node32</title>
<path fill="none" stroke="midnightblue" d="M473.018,-522.362C484.859,-513.777 501.73,-501.546 515.361,-491.664"/>
<polygon fill="midnightblue" stroke="midnightblue" points="517.723,-494.274 523.765,-485.571 513.614,-488.607 517.723,-494.274"/>
</g>
<!-- Node35&#45;&gt;Node14 -->
<g id="edge108" class="edge"><title>Node35&#45;&gt;Node14</title>
<path fill="none" stroke="midnightblue" d="M200.716,-522.268C210.5,-508.304 228.611,-483.399 246.345,-464 255.866,-453.586 267.357,-442.857 277.019,-434.285"/>
<polygon fill="midnightblue" stroke="midnightblue" points="279.393,-436.859 284.622,-427.645 274.788,-431.586 279.393,-436.859"/>
</g>
<!-- Node36 -->
<g id="node91" class="node"><title>Node36</title>
<a xlink:href="../../dd/d31/_sk_draw_looper_8h.html" target="_top" xlink:title="SkDrawLooper.h">
<polygon fill="white" stroke="black" points="14.8451,-464.5 14.8451,-485.5 103.845,-485.5 103.845,-464.5 14.8451,-464.5"/>
<text text-anchor="middle" x="59.3451" y="-472.5" font-family="Helvetica,sans-Serif" font-size="10.00">SkDrawLooper.h</text>
</a>
</g>
<!-- Node35&#45;&gt;Node36 -->
<g id="edge110" class="edge"><title>Node35&#45;&gt;Node36</title>
<path fill="none" stroke="midnightblue" d="M169.079,-522.497C147.867,-513.315 116.847,-499.889 93.1953,-489.652"/>
<polygon fill="midnightblue" stroke="midnightblue" points="94.4513,-486.381 83.8838,-485.621 91.6707,-492.806 94.4513,-486.381"/>
</g>
<!-- Node37 -->
<g id="node94" class="node"><title>Node37</title>
<a xlink:href="../../d6/d5a/_sk_xfermode_8h.html" target="_top" xlink:title="SkXfermode.h">
<polygon fill="white" stroke="black" points="120.845,-464.5 120.845,-485.5 199.845,-485.5 199.845,-464.5 120.845,-464.5"/>
<text text-anchor="middle" x="160.345" y="-472.5" font-family="Helvetica,sans-Serif" font-size="10.00">SkXfermode.h</text>
</a>
</g>
<!-- Node35&#45;&gt;Node37 -->
<g id="edge114" class="edge"><title>Node35&#45;&gt;Node37</title>
<path fill="none" stroke="midnightblue" d="M187.292,-522.362C182.873,-514.595 176.756,-503.843 171.466,-494.546"/>
<polygon fill="midnightblue" stroke="midnightblue" points="174.347,-492.531 166.359,-485.571 168.263,-495.993 174.347,-492.531"/>
</g>
<!-- Node36&#45;&gt;Node21 -->
<g id="edge112" class="edge"><title>Node36&#45;&gt;Node21</title>
<path fill="none" stroke="midnightblue" d="M77.87,-464.362C93.2462,-455.532 115.341,-442.844 132.792,-432.822"/>
<polygon fill="midnightblue" stroke="midnightblue" points="135.009,-435.586 141.938,-427.571 131.523,-429.515 135.009,-435.586"/>
</g>
<!-- Node37&#45;&gt;Node14 -->
<g id="edge118" class="edge"><title>Node37&#45;&gt;Node14</title>
<path fill="none" stroke="midnightblue" d="M185.155,-464.497C206.842,-455.315 238.556,-441.889 262.737,-431.652"/>
<polygon fill="midnightblue" stroke="midnightblue" points="264.413,-434.743 272.257,-427.621 261.684,-428.297 264.413,-434.743"/>
</g>
<!-- Node37&#45;&gt;Node21 -->
<g id="edge116" class="edge"><title>Node37&#45;&gt;Node21</title>
<path fill="none" stroke="midnightblue" d="M160.345,-464.362C160.345,-456.922 160.345,-446.743 160.345,-437.728"/>
<polygon fill="midnightblue" stroke="midnightblue" points="163.845,-437.571 160.345,-427.571 156.845,-437.571 163.845,-437.571"/>
</g>
</g>
</svg>
        <g id="navigator" transform="translate(0 0)" fill="#404254">
                <rect fill="#f2f5e9" fill-opacity="0.5" stroke="#606060" stroke-width=".5" x="0" y="0" width="60" height="60"/>
                <use id="zoomplus" xlink:href="#zoomPlus" x="17" y="9" onmousedown="handleZoom(evt,'in')"/>
                <use id="zoomminus" xlink:href="#zoomMin" x="42" y="9" onmousedown="handleZoom(evt,'out')"/>
                <use id="reset" xlink:href="#resetDef" x="30" y="36" onmousedown="handleReset()"/>
                <g id="arrowUp" xlink:href="#dirArrow" transform="translate(30 24)" onmousedown="handlePan(0,-1)">
                  <use xlink:href="#rim" fill="#404040">
                        <set attributeName="fill" to="#808080" begin="arrowUp.mouseover" end="arrowUp.mouseout"/>
                  </use>
                  <path fill="none" stroke="white" stroke-width="1.5" d="M0,-3.0v7 M-2.5,-0.5L0,-3.0L2.5,-0.5"/>
                </g>
                <g id="arrowRight" xlink:href="#dirArrow" transform="rotate(90) translate(36 -43)" onmousedown="handlePan(1,0)">
                  <use xlink:href="#rim" fill="#404040">
                        <set attributeName="fill" to="#808080" begin="arrowRight.mouseover" end="arrowRight.mouseout"/>
                  </use>
                  <path fill="none" stroke="white" stroke-width="1.5" d="M0,-3.0v7 M-2.5,-0.5L0,-3.0L2.5,-0.5"/>
                </g>
                <g id="arrowDown" xlink:href="#dirArrow" transform="rotate(180) translate(-30 -48)" onmousedown="handlePan(0,1)">
                  <use xlink:href="#rim" fill="#404040">
                        <set attributeName="fill" to="#808080" begin="arrowDown.mouseover" end="arrowDown.mouseout"/>
                  </use>
                  <path fill="none" stroke="white" stroke-width="1.5" d="M0,-3.0v7 M-2.5,-0.5L0,-3.0L2.5,-0.5"/>
                </g>
                <g id="arrowLeft" xlink:href="#dirArrow" transform="rotate(270) translate(-36 17)" onmousedown="handlePan(-1,0)">
                  <use xlink:href="#rim" fill="#404040">
                        <set attributeName="fill" to="#808080" begin="arrowLeft.mouseover" end="arrowLeft.mouseout"/>
                  </use>
                  <path fill="none" stroke="white" stroke-width="1.5" d="M0,-3.0v7 M-2.5,-0.5L0,-3.0L2.5,-0.5"/>
                </g>
        </g>
</svg>
