<?xml version="1.0" encoding="UTF-8" standalone="no"?>
<!DOCTYPE svg PUBLIC "-//W3C//DTD SVG 1.1//EN"
 "http://www.w3.org/Graphics/SVG/1.1/DTD/svg11.dtd">
<!-- Generated by graphviz version 2.26.3 (20100126.1600)
 -->
<!-- Title: G Pages: 1 -->
<svg width="188pt" height="222pt"
 viewBox="0.00 0.00 188.00 222.00" xmlns="http://www.w3.org/2000/svg" xmlns:xlink="http://www.w3.org/1999/xlink">
<g id="graph1" class="graph" transform="scale(1 1) rotate(0) translate(4 218)">
<title>G</title>
<polygon fill="white" stroke="white" points="-4,5 -4,-218 185,-218 185,5 -4,5"/>
<!-- Node1 -->
<g id="node1" class="node"><title>Node1</title>
<polygon fill="#bfbfbf" stroke="black" points="-0.5,-0.5 -0.5,-21.5 110.5,-21.5 110.5,-0.5 -0.5,-0.5"/>
<text text-anchor="middle" x="55" y="-8.5" font-family="Helvetica,sans-Serif" font-size="10.00">nsIDialogParamBlock</text>
</g>
<!-- Node2 -->
<g id="node2" class="node"><title>Node2</title>
<a xlink:href="../../d4/d6a/classns_i_supports.html" target="_top" xlink:title="nsISupports">
<polygon fill="white" stroke="black" points="47.5,-192.5 47.5,-213.5 116.5,-213.5 116.5,-192.5 47.5,-192.5"/>
<text text-anchor="middle" x="82" y="-200.5" font-family="Helvetica,sans-Serif" font-size="10.00">nsISupports</text>
</a>
</g>
<!-- Node2&#45;&gt;Node1 -->
<g id="edge2" class="edge"><title>Node2&#45;&gt;Node1</title>
<path fill="none" stroke="midnightblue" d="M74.7669,-182.57C65.5687,-142.046 53.3532,-52.7355 53.1903,-21.8002"/>
<polygon fill="midnightblue" stroke="midnightblue" points="71.4018,-183.542 77.2092,-192.404 78.1954,-181.855 71.4018,-183.542"/>
</g>
<!-- Node2&#45;&gt;Node1 -->
<g id="edge4" class="edge"><title>Node2&#45;&gt;Node1</title>
<path fill="none" stroke="midnightblue" d="M83.4731,-182.311C81.2331,-141.666 68.3667,-52.6696 59.8473,-21.8002"/>
<polygon fill="midnightblue" stroke="midnightblue" points="79.9783,-182.526 83.8106,-192.404 86.9743,-182.292 79.9783,-182.526"/>
</g>
<!-- Node4 -->
<g id="node7" class="node"><title>Node4</title>
<a xlink:href="../../df/d6e/interfacens_i_array.html" target="_top" xlink:title="nsIArray">
<polygon fill="white" stroke="black" points="95.5,-132.5 95.5,-153.5 148.5,-153.5 148.5,-132.5 95.5,-132.5"/>
<text text-anchor="middle" x="122" y="-140.5" font-family="Helvetica,sans-Serif" font-size="10.00">nsIArray</text>
</a>
</g>
<!-- Node2&#45;&gt;Node4 -->
<g id="edge10" class="edge"><title>Node2&#45;&gt;Node4</title>
<path fill="none" stroke="midnightblue" d="M88.6514,-183.467C94.5164,-173.548 102.649,-161.885 109.611,-153.634"/>
<polygon fill="midnightblue" stroke="midnightblue" points="85.5628,-181.82 83.8353,-192.273 91.7043,-185.179 85.5628,-181.82"/>
</g>
<!-- Node2&#45;&gt;Node4 -->
<g id="edge12" class="edge"><title>Node2&#45;&gt;Node4</title>
<path fill="none" stroke="midnightblue" d="M100.71,-184.382C108.29,-174.273 116.046,-162.14 120.21,-153.634"/>
<polygon fill="midnightblue" stroke="midnightblue" points="97.9268,-182.259 94.4671,-192.273 103.417,-186.602 97.9268,-182.259"/>
</g>
<!-- Node3 -->
<g id="node5" class="node"><title>Node3</title>
<a xlink:href="../../da/d10/interfacens_i_mutable_array.html" target="_top" xlink:title="nsIMutableArray">
<polygon fill="white" stroke="black" points="92,-72.5 92,-93.5 180,-93.5 180,-72.5 92,-72.5"/>
<text text-anchor="middle" x="136" y="-80.5" font-family="Helvetica,sans-Serif" font-size="10.00">nsIMutableArray</text>
</a>
</g>
<!-- Node3&#45;&gt;Node1 -->
<g id="edge6" class="edge"><title>Node3&#45;&gt;Node1</title>
<path fill="none" stroke="#9a32cd" stroke-dasharray="5,2" d="M116.568,-65.7275C101.141,-52.0146 80.0621,-33.2774 67.0009,-21.6674"/>
<polygon fill="#9a32cd" stroke="#9a32cd" points="114.249,-68.3484 124.048,-72.3762 118.899,-63.1165 114.249,-68.3484"/>
<text text-anchor="middle" x="119.5" y="-44.5" font-family="Helvetica,sans-Serif" font-size="10.00"> objects</text>
</g>
<!-- Node4&#45;&gt;Node3 -->
<g id="edge8" class="edge"><title>Node4&#45;&gt;Node3</title>
<path fill="none" stroke="midnightblue" d="M120.388,-122.231C122.008,-112.592 124.972,-101.544 128.219,-93.6339"/>
<polygon fill="midnightblue" stroke="midnightblue" points="116.9,-121.928 119.187,-132.273 123.85,-122.76 116.9,-121.928"/>
</g>
<!-- Node4&#45;&gt;Node3 -->
<g id="edge14" class="edge"><title>Node4&#45;&gt;Node3</title>
<path fill="none" stroke="midnightblue" d="M133.211,-122.542C136.135,-112.83 138.369,-101.629 138.818,-93.6339"/>
<polygon fill="midnightblue" stroke="midnightblue" points="129.805,-121.678 129.819,-132.273 136.415,-123.982 129.805,-121.678"/>
</g>
</g>
</svg>
