<?xml version="1.0" encoding="UTF-8" standalone="no"?>
<!DOCTYPE svg PUBLIC "-//W3C//DTD SVG 1.1//EN"
 "http://www.w3.org/Graphics/SVG/1.1/DTD/svg11.dtd">
<!-- Generated by graphviz version 2.26.3 (20100126.1600)
 -->
<!-- Title: G Pages: 1 -->
<svg width="124pt" height="88pt"
 viewBox="0.00 0.00 124.00 88.00" xmlns="http://www.w3.org/2000/svg" xmlns:xlink="http://www.w3.org/1999/xlink">
<g id="graph1" class="graph" transform="scale(1 1) rotate(0) translate(4 84)">
<title>G</title>
<polygon fill="white" stroke="white" points="-4,5 -4,-84 121,-84 121,5 -4,5"/>
<!-- Node1 -->
<g id="node1" class="node"><title>Node1</title>
<polygon fill="#bfbfbf" stroke="black" points="40,-58.5 40,-79.5 78,-79.5 78,-58.5 40,-58.5"/>
<text text-anchor="middle" x="59" y="-66.5" font-family="Helvetica,sans-Serif" font-size="10.00">Task</text>
</g>
<!-- Node2 -->
<g id="node3" class="node"><title>Node2</title>
<a xlink:href="../../d1/d41/class_process.html" target="_top" xlink:title="Process">
<polygon fill="white" stroke="black" points="-0.5,-0.5 -0.5,-21.5 52.5,-21.5 52.5,-0.5 -0.5,-0.5"/>
<text text-anchor="middle" x="26" y="-8.5" font-family="Helvetica,sans-Serif" font-size="10.00">Process</text>
</a>
</g>
<!-- Node1&#45;&gt;Node2 -->
<g id="edge2" class="edge"><title>Node1&#45;&gt;Node2</title>
<path fill="none" stroke="midnightblue" d="M48,-49.6667C42.6677,-40.2948 36.4701,-29.4019 32.0143,-21.5707"/>
<polygon fill="midnightblue" stroke="midnightblue" points="44.9599,-51.4011 52.9473,-58.3619 51.0441,-47.9394 44.9599,-51.4011"/>
</g>
<!-- Node3 -->
<g id="node5" class="node"><title>Node3</title>
<a xlink:href="../../d8/d18/class_thread.html" target="_top" xlink:title="Thread">
<polygon fill="white" stroke="black" points="69.5,-0.5 69.5,-21.5 116.5,-21.5 116.5,-0.5 69.5,-0.5"/>
<text text-anchor="middle" x="93" y="-8.5" font-family="Helvetica,sans-Serif" font-size="10.00">Thread</text>
</a>
</g>
<!-- Node1&#45;&gt;Node3 -->
<g id="edge4" class="edge"><title>Node1&#45;&gt;Node3</title>
<path fill="none" stroke="midnightblue" d="M70.3333,-49.6667C75.8272,-40.2948 82.2127,-29.4019 86.8034,-21.5707"/>
<polygon fill="midnightblue" stroke="midnightblue" points="67.2739,-47.9649 65.2361,-58.3619 73.3128,-51.5049 67.2739,-47.9649"/>
</g>
</g>
</svg>
