<?xml version="1.0" encoding="UTF-8" standalone="no"?>
<!DOCTYPE svg PUBLIC "-//W3C//DTD SVG 1.1//EN"
 "http://www.w3.org/Graphics/SVG/1.1/DTD/svg11.dtd">
<!-- Generated by graphviz version 2.26.3 (20100126.1600)
 -->
<!-- Title: G Pages: 1 -->
<!--zoomable 70 -->
<svg id="main" version="1.1" xmlns="http://www.w3.org/2000/svg" xmlns:xlink="http://www.w3.org/1999/xlink" xml:space="preserve" onload="init(evt)">
        <defs>
                <circle id="rim" cx="0" cy="0" r="7"/>
                <circle id="rim2" cx="0" cy="0" r="3.5"/>
                <g id="zoomPlus">
                        <use xlink:href="#rim" fill="#404040">
                                <set attributeName="fill" to="#808080" begin="zoomplus.mouseover" end="zoomplus.mouseout"/>
                        </use>
                        <path d="M-4,0h8M0,-4v8" fill="none" stroke="white" stroke-width="1.5" pointer-events="none"/>
                </g>
                <g id="zoomMin">
                        <use xlink:href="#rim" fill="#404040">
                                <set attributeName="fill" to="#808080" begin="zoomminus.mouseover" end="zoomminus.mouseout"/>
                        </use>
                        <path d="M-4,0h8" fill="none" stroke="white" stroke-width="1.5" pointer-events="none"/>
                </g>
                <g id="dirArrow">
                        <path fill="none" stroke="white" stroke-width="1.5" d="M0,-3.0v7 M-2.5,-0.5L0,-3.0L2.5,-0.5"/>
                </g>
               <g id="resetDef">
                       <use xlink:href="#rim2" fill="#404040">
                               <set attributeName="fill" to="#808080" begin="reset.mouseover" end="reset.mouseout"/>
                       </use>
               </g>
        </defs>

<script type="text/javascript">
var viewWidth = 796;
var viewHeight = 70;
var sectionId = 'dynsection-4';
</script>
<script xlink:href="../../svgpan.js"/>
<svg id="graph" class="graph">
<g id="viewport">
<title>G</title>
<polygon fill="white" stroke="white" points="-4,5 -4,-66 793,-66 793,5 -4,5"/>
<!-- Node1 -->
<g id="node1" class="node"><title>Node1</title>
<polygon fill="#bfbfbf" stroke="black" points="0.5,-20.5 0.5,-41.5 143.5,-41.5 143.5,-20.5 0.5,-20.5"/>
<text text-anchor="middle" x="72" y="-28.5" font-family="Helvetica,sans-Serif" font-size="10.00">ImplCycleCollectionTraverse</text>
</g>
<!-- Node2 -->
<g id="node3" class="node"><title>Node2</title>
<a xlink:href="../../d4/d15/ns_cycle_collection_note_child_8h.html#a2d85044d6002711aed92dff93b471e6d" target="_top" xlink:title="CycleCollectionNoteChild">
<polygon fill="white" stroke="black" points="180.5,-20.5 180.5,-41.5 309.5,-41.5 309.5,-20.5 180.5,-20.5"/>
<text text-anchor="middle" x="245" y="-28.5" font-family="Helvetica,sans-Serif" font-size="10.00">CycleCollectionNoteChild</text>
</a>
</g>
<!-- Node1&#45;&gt;Node2 -->
<g id="edge2" class="edge"><title>Node1&#45;&gt;Node2</title>
<path fill="none" stroke="midnightblue" d="M143.615,-31C152.367,-31 161.329,-31 170.127,-31"/>
<polygon fill="midnightblue" stroke="midnightblue" points="170.359,-34.5001 180.359,-31 170.359,-27.5001 170.359,-34.5001"/>
</g>
<!-- Node3 -->
<g id="node5" class="node"><title>Node3</title>
<a xlink:href="../../d4/d15/ns_cycle_collection_note_child_8h.html#a28802bafafeb1c368c6d5c0c9cf52ebb" target="_top" xlink:title="CycleCollectionNoteEdgeName">
<polygon fill="white" stroke="black" points="346.5,-20.5 346.5,-41.5 501.5,-41.5 501.5,-20.5 346.5,-20.5"/>
<text text-anchor="middle" x="424" y="-28.5" font-family="Helvetica,sans-Serif" font-size="10.00">CycleCollectionNoteEdgeName</text>
</a>
</g>
<!-- Node2&#45;&gt;Node3 -->
<g id="edge4" class="edge"><title>Node2&#45;&gt;Node3</title>
<path fill="none" stroke="midnightblue" d="M309.623,-31C318.281,-31 327.277,-31 336.249,-31"/>
<polygon fill="midnightblue" stroke="midnightblue" points="336.35,-34.5001 346.35,-31 336.35,-27.5001 336.35,-34.5001"/>
</g>
<!-- Node4 -->
<g id="node7" class="node"><title>Node4</title>
<a xlink:href="../../d9/d36/classns_cycle_collection_traversal_callback.html#a82f6dd576a431142215d869cf16deb43" target="_top" xlink:title="nsCycleCollectionTraversalCallback::WantDebugInfo">
<polygon fill="white" stroke="black" points="538.5,-40.5 538.5,-61.5 787.5,-61.5 787.5,-40.5 538.5,-40.5"/>
<text text-anchor="middle" x="663" y="-48.5" font-family="Helvetica,sans-Serif" font-size="10.00">nsCycleCollectionTraversalCallback::WantDebugInfo</text>
</a>
</g>
<!-- Node3&#45;&gt;Node4 -->
<g id="edge6" class="edge"><title>Node3&#45;&gt;Node4</title>
<path fill="none" stroke="midnightblue" d="M501.596,-37.4934C510.113,-38.2061 518.955,-38.946 527.916,-39.6959"/>
<polygon fill="midnightblue" stroke="midnightblue" points="527.815,-43.1996 538.072,-40.5458 528.399,-36.224 527.815,-43.1996"/>
</g>
<!-- Node5 -->
<g id="node9" class="node"><title>Node5</title>
<a xlink:href="../../d4/d15/ns_cycle_collection_note_child_8h.html#a76821b3aaa443bb43a8ca1298904b233" target="_top" xlink:title="CycleCollectionNoteEdgeNameImpl">
<polygon fill="white" stroke="black" points="576,-0.5 576,-21.5 750,-21.5 750,-0.5 576,-0.5"/>
<text text-anchor="middle" x="663" y="-8.5" font-family="Helvetica,sans-Serif" font-size="10.00">CycleCollectionNoteEdgeNameImpl</text>
</a>
</g>
<!-- Node3&#45;&gt;Node5 -->
<g id="edge8" class="edge"><title>Node3&#45;&gt;Node5</title>
<path fill="none" stroke="midnightblue" d="M501.596,-24.5066C522.07,-22.7933 544.423,-20.9227 565.791,-19.1347"/>
<polygon fill="midnightblue" stroke="midnightblue" points="566.184,-22.6141 575.857,-18.2923 565.6,-15.6385 566.184,-22.6141"/>
</g>
</g>
</svg>
        <g id="navigator" transform="translate(0 0)" fill="#404254">
                <rect fill="#f2f5e9" fill-opacity="0.5" stroke="#606060" stroke-width=".5" x="0" y="0" width="60" height="60"/>
                <use id="zoomplus" xlink:href="#zoomPlus" x="17" y="9" onmousedown="handleZoom(evt,'in')"/>
                <use id="zoomminus" xlink:href="#zoomMin" x="42" y="9" onmousedown="handleZoom(evt,'out')"/>
                <use id="reset" xlink:href="#resetDef" x="30" y="36" onmousedown="handleReset()"/>
                <g id="arrowUp" xlink:href="#dirArrow" transform="translate(30 24)" onmousedown="handlePan(0,-1)">
                  <use xlink:href="#rim" fill="#404040">
                        <set attributeName="fill" to="#808080" begin="arrowUp.mouseover" end="arrowUp.mouseout"/>
                  </use>
                  <path fill="none" stroke="white" stroke-width="1.5" d="M0,-3.0v7 M-2.5,-0.5L0,-3.0L2.5,-0.5"/>
                </g>
                <g id="arrowRight" xlink:href="#dirArrow" transform="rotate(90) translate(36 -43)" onmousedown="handlePan(1,0)">
                  <use xlink:href="#rim" fill="#404040">
                        <set attributeName="fill" to="#808080" begin="arrowRight.mouseover" end="arrowRight.mouseout"/>
                  </use>
                  <path fill="none" stroke="white" stroke-width="1.5" d="M0,-3.0v7 M-2.5,-0.5L0,-3.0L2.5,-0.5"/>
                </g>
                <g id="arrowDown" xlink:href="#dirArrow" transform="rotate(180) translate(-30 -48)" onmousedown="handlePan(0,1)">
                  <use xlink:href="#rim" fill="#404040">
                        <set attributeName="fill" to="#808080" begin="arrowDown.mouseover" end="arrowDown.mouseout"/>
                  </use>
                  <path fill="none" stroke="white" stroke-width="1.5" d="M0,-3.0v7 M-2.5,-0.5L0,-3.0L2.5,-0.5"/>
                </g>
                <g id="arrowLeft" xlink:href="#dirArrow" transform="rotate(270) translate(-36 17)" onmousedown="handlePan(-1,0)">
                  <use xlink:href="#rim" fill="#404040">
                        <set attributeName="fill" to="#808080" begin="arrowLeft.mouseover" end="arrowLeft.mouseout"/>
                  </use>
                  <path fill="none" stroke="white" stroke-width="1.5" d="M0,-3.0v7 M-2.5,-0.5L0,-3.0L2.5,-0.5"/>
                </g>
        </g>
</svg>
