<?xml version="1.0" encoding="UTF-8" standalone="no"?>
<!DOCTYPE svg PUBLIC "-//W3C//DTD SVG 1.1//EN"
 "http://www.w3.org/Graphics/SVG/1.1/DTD/svg11.dtd">
<!-- Generated by graphviz version 2.26.3 (20100126.1600)
 -->
<!-- Title: G Pages: 1 -->
<svg width="302pt" height="110pt"
 viewBox="0.00 0.00 302.00 110.00" xmlns="http://www.w3.org/2000/svg" xmlns:xlink="http://www.w3.org/1999/xlink">
<g id="graph1" class="graph" transform="scale(1 1) rotate(0) translate(4 106)">
<title>G</title>
<polygon fill="white" stroke="white" points="-4,5 -4,-106 299,-106 299,5 -4,5"/>
<!-- Node1 -->
<g id="node1" class="node"><title>Node1</title>
<polygon fill="#bfbfbf" stroke="black" points="0,-40.5 0,-61.5 134,-61.5 134,-40.5 0,-40.5"/>
<text text-anchor="middle" x="67" y="-48.5" font-family="Helvetica,sans-Serif" font-size="10.00">mozilla::VectorBase::begin</text>
</g>
<!-- Node2 -->
<g id="node3" class="node"><title>Node2</title>
<a xlink:href="../../d3/d0b/classply_1_1lex_1_1_lexer.html#a6e40290650f5518514190de8ffab3955" target="_top" xlink:title="ply.lex.Lexer.pop_state">
<polygon fill="white" stroke="black" points="173,-80.5 173,-101.5 291,-101.5 291,-80.5 173,-80.5"/>
<text text-anchor="middle" x="232" y="-88.5" font-family="Helvetica,sans-Serif" font-size="10.00">ply.lex.Lexer.pop_state</text>
</a>
</g>
<!-- Node1&#45;&gt;Node2 -->
<g id="edge2" class="edge"><title>Node1&#45;&gt;Node2</title>
<path fill="none" stroke="midnightblue" d="M120.258,-63.911C142.371,-69.2718 167.703,-75.413 188.652,-80.4913"/>
<polygon fill="midnightblue" stroke="midnightblue" points="120.895,-60.4641 110.352,-61.5095 119.246,-67.2671 120.895,-60.4641"/>
</g>
<!-- Node3 -->
<g id="node5" class="node"><title>Node3</title>
<a xlink:href="../../d3/d0b/classply_1_1lex_1_1_lexer.html#a037507150387a436a2ac173d8a7fb444" target="_top" xlink:title="ply.lex.Lexer.push_state">
<polygon fill="white" stroke="black" points="170.5,-40.5 170.5,-61.5 293.5,-61.5 293.5,-40.5 170.5,-40.5"/>
<text text-anchor="middle" x="232" y="-48.5" font-family="Helvetica,sans-Serif" font-size="10.00">ply.lex.Lexer.push_state</text>
</a>
</g>
<!-- Node1&#45;&gt;Node3 -->
<g id="edge4" class="edge"><title>Node1&#45;&gt;Node3</title>
<path fill="none" stroke="midnightblue" d="M144.282,-51C152.996,-51 161.788,-51 170.267,-51"/>
<polygon fill="midnightblue" stroke="midnightblue" points="144.112,-47.5001 134.112,-51 144.112,-54.5001 144.112,-47.5001"/>
</g>
<!-- Node4 -->
<g id="node7" class="node"><title>Node4</title>
<a xlink:href="../../d3/d0b/classply_1_1lex_1_1_lexer.html#accec107ed506c5216081c8db8f6efebe" target="_top" xlink:title="ply.lex.Lexer.readtab">
<polygon fill="white" stroke="black" points="178.5,-0.5 178.5,-21.5 285.5,-21.5 285.5,-0.5 178.5,-0.5"/>
<text text-anchor="middle" x="232" y="-8.5" font-family="Helvetica,sans-Serif" font-size="10.00">ply.lex.Lexer.readtab</text>
</a>
</g>
<!-- Node1&#45;&gt;Node4 -->
<g id="edge6" class="edge"><title>Node1&#45;&gt;Node4</title>
<path fill="none" stroke="midnightblue" d="M120.258,-38.089C142.371,-32.7282 167.703,-26.587 188.652,-21.5087"/>
<polygon fill="midnightblue" stroke="midnightblue" points="119.246,-34.7329 110.352,-40.4905 120.895,-41.5359 119.246,-34.7329"/>
</g>
</g>
</svg>
