<?xml version="1.0" encoding="UTF-8" standalone="no"?>
<!DOCTYPE svg PUBLIC "-//W3C//DTD SVG 1.1//EN"
 "http://www.w3.org/Graphics/SVG/1.1/DTD/svg11.dtd">
<!-- Generated by graphviz version 2.26.3 (20100126.1600)
 -->
<!-- Title: G Pages: 1 -->
<svg width="433pt" height="262pt"
 viewBox="0.00 0.00 433.00 262.00" xmlns="http://www.w3.org/2000/svg" xmlns:xlink="http://www.w3.org/1999/xlink">
<g id="graph1" class="graph" transform="scale(1 1) rotate(0) translate(4 258)">
<title>G</title>
<polygon fill="white" stroke="white" points="-4,5 -4,-258 430,-258 430,5 -4,5"/>
<!-- Node1 -->
<g id="node1" class="node"><title>Node1</title>
<polygon fill="#bfbfbf" stroke="black" points="121,-0.5 121,-21.5 227,-21.5 227,-0.5 121,-0.5"/>
<text text-anchor="middle" x="174" y="-8.5" font-family="Helvetica,sans-Serif" font-size="10.00">mozilla::Preferences</text>
</g>
<!-- Node2 -->
<g id="node2" class="node"><title>Node2</title>
<a xlink:href="../../d0/d3c/interfacens_i_pref_service.html" target="_top" xlink:title="nsIPrefService">
<polygon fill="white" stroke="black" points="-0.5,-174.5 -0.5,-195.5 80.5,-195.5 80.5,-174.5 -0.5,-174.5"/>
<text text-anchor="middle" x="40" y="-182.5" font-family="Helvetica,sans-Serif" font-size="10.00">nsIPrefService</text>
</a>
</g>
<!-- Node2&#45;&gt;Node1 -->
<g id="edge2" class="edge"><title>Node2&#45;&gt;Node1</title>
<path fill="none" stroke="midnightblue" d="M54.5642,-166.088C82.6104,-129.67 143.31,-50.8507 165.584,-21.9277"/>
<polygon fill="midnightblue" stroke="midnightblue" points="51.5091,-164.319 48.1806,-174.377 57.0551,-168.59 51.5091,-164.319"/>
</g>
<!-- Node3 -->
<g id="node4" class="node"><title>Node3</title>
<a xlink:href="../../d4/d6a/classns_i_supports.html" target="_top" xlink:title="nsISupports">
<polygon fill="white" stroke="black" points="144.5,-232.5 144.5,-253.5 213.5,-253.5 213.5,-232.5 144.5,-232.5"/>
<text text-anchor="middle" x="179" y="-240.5" font-family="Helvetica,sans-Serif" font-size="10.00">nsISupports</text>
</a>
</g>
<!-- Node3&#45;&gt;Node2 -->
<g id="edge4" class="edge"><title>Node3&#45;&gt;Node2</title>
<path fill="none" stroke="midnightblue" d="M138.947,-228.751C113.114,-218.509 80.7313,-204.921 60.0932,-195.621"/>
<polygon fill="midnightblue" stroke="midnightblue" points="137.901,-232.1 148.488,-232.497 140.459,-225.584 137.901,-232.1"/>
</g>
<!-- Node3&#45;&gt;Node2 -->
<g id="edge6" class="edge"><title>Node3&#45;&gt;Node2</title>
<path fill="none" stroke="midnightblue" d="M149.798,-228.329C126.52,-218.102 94.1931,-204.698 70.5627,-195.523"/>
<polygon fill="midnightblue" stroke="midnightblue" points="148.609,-231.631 159.168,-232.497 151.453,-225.235 148.609,-231.631"/>
</g>
<!-- Node4 -->
<g id="node7" class="node"><title>Node4</title>
<a xlink:href="../../d5/d6a/interfacens_i_observer.html" target="_top" xlink:title="nsIObserver">
<polygon fill="white" stroke="black" points="98,-174.5 98,-195.5 168,-195.5 168,-174.5 98,-174.5"/>
<text text-anchor="middle" x="133" y="-182.5" font-family="Helvetica,sans-Serif" font-size="10.00">nsIObserver</text>
</a>
</g>
<!-- Node3&#45;&gt;Node4 -->
<g id="edge10" class="edge"><title>Node3&#45;&gt;Node4</title>
<path fill="none" stroke="midnightblue" d="M158.276,-224.83C149.833,-215.208 141.048,-203.728 136.032,-195.571"/>
<polygon fill="midnightblue" stroke="midnightblue" points="155.855,-227.368 165.199,-232.362 161.009,-222.631 155.855,-227.368"/>
</g>
<!-- Node3&#45;&gt;Node4 -->
<g id="edge12" class="edge"><title>Node3&#45;&gt;Node4</title>
<path fill="none" stroke="midnightblue" d="M170.282,-223.959C163.519,-214.522 154.421,-203.484 146.736,-195.571"/>
<polygon fill="midnightblue" stroke="midnightblue" points="167.445,-226.013 175.927,-232.362 173.255,-222.109 167.445,-226.013"/>
</g>
<!-- Node7 -->
<g id="node15" class="node"><title>Node7</title>
<a xlink:href="../../da/d35/interfacens_i_pref_branch.html" target="_top" xlink:title="nsIPrefBranch">
<polygon fill="white" stroke="black" points="185.5,-174.5 185.5,-195.5 264.5,-195.5 264.5,-174.5 185.5,-174.5"/>
<text text-anchor="middle" x="225" y="-182.5" font-family="Helvetica,sans-Serif" font-size="10.00">nsIPrefBranch</text>
</a>
</g>
<!-- Node3&#45;&gt;Node7 -->
<g id="edge22" class="edge"><title>Node3&#45;&gt;Node7</title>
<path fill="none" stroke="midnightblue" d="M187.718,-223.959C194.481,-214.522 203.579,-203.484 211.264,-195.571"/>
<polygon fill="midnightblue" stroke="midnightblue" points="184.745,-222.109 182.073,-232.362 190.555,-226.013 184.745,-222.109"/>
</g>
<!-- Node3&#45;&gt;Node7 -->
<g id="edge20" class="edge"><title>Node3&#45;&gt;Node7</title>
<path fill="none" stroke="midnightblue" d="M199.724,-224.83C208.167,-215.208 216.952,-203.728 221.968,-195.571"/>
<polygon fill="midnightblue" stroke="midnightblue" points="196.991,-222.631 192.801,-232.362 202.145,-227.368 196.991,-222.631"/>
</g>
<!-- Node9 -->
<g id="node23" class="node"><title>Node9</title>
<a xlink:href="../../df/dd6/interfacens_i_supports_weak_reference.html" target="_top" xlink:title="nsISupportsWeakReference">
<polygon fill="white" stroke="black" points="282,-174.5 282,-195.5 422,-195.5 422,-174.5 282,-174.5"/>
<text text-anchor="middle" x="352" y="-182.5" font-family="Helvetica,sans-Serif" font-size="10.00">nsISupportsWeakReference</text>
</a>
</g>
<!-- Node3&#45;&gt;Node9 -->
<g id="edge32" class="edge"><title>Node3&#45;&gt;Node9</title>
<path fill="none" stroke="midnightblue" d="M214.474,-229.144C243.915,-218.823 285.483,-204.944 315.269,-195.523"/>
<polygon fill="midnightblue" stroke="midnightblue" points="213.251,-225.864 204.989,-232.497 215.584,-232.464 213.251,-225.864"/>
</g>
<!-- Node3&#45;&gt;Node9 -->
<g id="edge34" class="edge"><title>Node3&#45;&gt;Node9</title>
<path fill="none" stroke="midnightblue" d="M223.275,-230.077C255.732,-219.691 298.583,-205.282 325.809,-195.575"/>
<polygon fill="midnightblue" stroke="midnightblue" points="222.035,-226.798 213.564,-233.161 224.154,-233.469 222.035,-226.798"/>
</g>
<!-- Node4&#45;&gt;Node1 -->
<g id="edge8" class="edge"><title>Node4&#45;&gt;Node1</title>
<path fill="none" stroke="midnightblue" d="M134.259,-164.246C136.222,-138.763 141.001,-94.4397 152,-58 155.905,-45.0624 162.787,-31.1499 167.817,-21.8467"/>
<polygon fill="midnightblue" stroke="midnightblue" points="130.766,-164.015 133.561,-174.235 137.749,-164.503 130.766,-164.015"/>
</g>
<!-- Node5 -->
<g id="node11" class="node"><title>Node5</title>
<a xlink:href="../../d9/d48/interfacens_i_pref_branch_internal.html" target="_top" xlink:title="nsIPrefBranchInternal">
<polygon fill="white" stroke="black" points="160.5,-58.5 160.5,-79.5 271.5,-79.5 271.5,-58.5 160.5,-58.5"/>
<text text-anchor="middle" x="216" y="-66.5" font-family="Helvetica,sans-Serif" font-size="10.00">nsIPrefBranchInternal</text>
</a>
</g>
<!-- Node5&#45;&gt;Node1 -->
<g id="edge14" class="edge"><title>Node5&#45;&gt;Node1</title>
<path fill="none" stroke="midnightblue" d="M202.423,-50.2504C195.543,-40.75 187.444,-29.5651 181.655,-21.5707"/>
<polygon fill="midnightblue" stroke="midnightblue" points="199.597,-52.3153 208.297,-58.3619 205.266,-48.2097 199.597,-52.3153"/>
</g>
<!-- Node6 -->
<g id="node13" class="node"><title>Node6</title>
<a xlink:href="../../de/d18/interfacens_i_pref_branch2.html" target="_top" xlink:title="nsIPrefBranch2">
<polygon fill="white" stroke="black" points="178,-116.5 178,-137.5 262,-137.5 262,-116.5 178,-116.5"/>
<text text-anchor="middle" x="220" y="-124.5" font-family="Helvetica,sans-Serif" font-size="10.00">nsIPrefBranch2</text>
</a>
</g>
<!-- Node6&#45;&gt;Node5 -->
<g id="edge26" class="edge"><title>Node6&#45;&gt;Node5</title>
<path fill="none" stroke="midnightblue" d="M212.099,-106.488C210.891,-97.3924 210.558,-87.0756 211.377,-79.5707"/>
<polygon fill="midnightblue" stroke="midnightblue" points="208.663,-107.153 213.902,-116.362 215.549,-105.896 208.663,-107.153"/>
</g>
<!-- Node6&#45;&gt;Node5 -->
<g id="edge16" class="edge"><title>Node6&#45;&gt;Node5</title>
<path fill="none" stroke="midnightblue" d="M225.07,-106.191C225.001,-97.1684 223.915,-86.9941 222.081,-79.5707"/>
<polygon fill="midnightblue" stroke="midnightblue" points="221.565,-106.22 224.63,-116.362 228.559,-106.522 221.565,-106.22"/>
</g>
<!-- Node7&#45;&gt;Node6 -->
<g id="edge24" class="edge"><title>Node7&#45;&gt;Node6</title>
<path fill="none" stroke="midnightblue" d="M216.745,-164.488C215.381,-155.392 214.869,-145.076 215.559,-137.571"/>
<polygon fill="midnightblue" stroke="midnightblue" points="213.327,-165.242 218.719,-174.362 220.191,-163.87 213.327,-165.242"/>
</g>
<!-- Node7&#45;&gt;Node6 -->
<g id="edge18" class="edge"><title>Node7&#45;&gt;Node6</title>
<path fill="none" stroke="midnightblue" d="M229.711,-164.191C229.487,-155.168 228.226,-144.994 226.263,-137.571"/>
<polygon fill="midnightblue" stroke="midnightblue" points="226.208,-164.274 229.447,-174.362 233.205,-164.456 226.208,-164.274"/>
</g>
<!-- Node8 -->
<g id="node21" class="node"><title>Node8</title>
<a xlink:href="../../d0/d50/classns_supports_weak_reference.html" target="_top" xlink:title="nsSupportsWeakReference">
<polygon fill="white" stroke="black" points="288.5,-58.5 288.5,-79.5 425.5,-79.5 425.5,-58.5 288.5,-58.5"/>
<text text-anchor="middle" x="357" y="-66.5" font-family="Helvetica,sans-Serif" font-size="10.00">nsSupportsWeakReference</text>
</a>
</g>
<!-- Node8&#45;&gt;Node1 -->
<g id="edge28" class="edge"><title>Node8&#45;&gt;Node1</title>
<path fill="none" stroke="midnightblue" d="M314.13,-55.4127C281.48,-45.0646 237.185,-31.0258 207.202,-21.5231"/>
<polygon fill="midnightblue" stroke="midnightblue" points="313.27,-58.8117 323.86,-58.4966 315.385,-52.1388 313.27,-58.8117"/>
</g>
<!-- Node9&#45;&gt;Node8 -->
<g id="edge30" class="edge"><title>Node9&#45;&gt;Node8</title>
<path fill="none" stroke="midnightblue" d="M352.9,-164.123C353.97,-139.298 355.715,-98.8235 356.54,-79.6792"/>
<polygon fill="midnightblue" stroke="midnightblue" points="349.395,-164.153 352.461,-174.295 356.389,-164.455 349.395,-164.153"/>
</g>
</g>
</svg>
