<?xml version="1.0" encoding="UTF-8" standalone="no"?>
<!DOCTYPE svg PUBLIC "-//W3C//DTD SVG 1.1//EN"
 "http://www.w3.org/Graphics/SVG/1.1/DTD/svg11.dtd">
<!-- Generated by graphviz version 2.26.3 (20100126.1600)
 -->
<!-- Title: G Pages: 1 -->
<!--zoomable 610 -->
<svg id="main" version="1.1" xmlns="http://www.w3.org/2000/svg" xmlns:xlink="http://www.w3.org/1999/xlink" xml:space="preserve" onload="init(evt)">
        <defs>
                <circle id="rim" cx="0" cy="0" r="7"/>
                <circle id="rim2" cx="0" cy="0" r="3.5"/>
                <g id="zoomPlus">
                        <use xlink:href="#rim" fill="#404040">
                                <set attributeName="fill" to="#808080" begin="zoomplus.mouseover" end="zoomplus.mouseout"/>
                        </use>
                        <path d="M-4,0h8M0,-4v8" fill="none" stroke="white" stroke-width="1.5" pointer-events="none"/>
                </g>
                <g id="zoomMin">
                        <use xlink:href="#rim" fill="#404040">
                                <set attributeName="fill" to="#808080" begin="zoomminus.mouseover" end="zoomminus.mouseout"/>
                        </use>
                        <path d="M-4,0h8" fill="none" stroke="white" stroke-width="1.5" pointer-events="none"/>
                </g>
                <g id="dirArrow">
                        <path fill="none" stroke="white" stroke-width="1.5" d="M0,-3.0v7 M-2.5,-0.5L0,-3.0L2.5,-0.5"/>
                </g>
               <g id="resetDef">
                       <use xlink:href="#rim2" fill="#404040">
                               <set attributeName="fill" to="#808080" begin="reset.mouseover" end="reset.mouseout"/>
                       </use>
               </g>
        </defs>

<script type="text/javascript">
var viewWidth = 738;
var viewHeight = 610;
var sectionId = 'dynsection-0';
</script>
<script xlink:href="../../svgpan.js"/>
<svg id="graph" class="graph">
<g id="viewport">
<title>G</title>
<polygon fill="white" stroke="white" points="-4,5 -4,-606 735.358,-606 735.358,5 -4,5"/>
<!-- Node1 -->
<g id="node1" class="node"><title>Node1</title>
<polygon fill="#bfbfbf" stroke="black" points="315.858,-580.5 315.858,-601.5 682.858,-601.5 682.858,-580.5 315.858,-580.5"/>
<text text-anchor="middle" x="499.358" y="-588.5" font-family="Helvetica,sans-Serif" font-size="10.00">/home/aoi/Documents/FxOS/B2G/gaia/xulrunner&#45;sdk/include/skia/SkClipStack.h</text>
</g>
<!-- Node2 -->
<g id="node3" class="node"><title>Node2</title>
<a xlink:href="../../dd/dd0/_sk_deque_8h.html" target="_top" xlink:title="SkDeque.h">
<polygon fill="white" stroke="black" points="665.858,-406.5 665.858,-427.5 730.858,-427.5 730.858,-406.5 665.858,-406.5"/>
<text text-anchor="middle" x="698.358" y="-414.5" font-family="Helvetica,sans-Serif" font-size="10.00">SkDeque.h</text>
</a>
</g>
<!-- Node1&#45;&gt;Node2 -->
<g id="edge2" class="edge"><title>Node1&#45;&gt;Node2</title>
<path fill="none" stroke="midnightblue" d="M534.447,-580.404C556.125,-572.681 583.657,-560.646 604.358,-544 642.435,-513.381 673.033,-463.886 688.125,-436.606"/>
<polygon fill="midnightblue" stroke="midnightblue" points="691.296,-438.099 692.969,-427.637 685.137,-434.773 691.296,-438.099"/>
</g>
<!-- Node11 -->
<g id="node22" class="node"><title>Node11</title>
<a xlink:href="../../d4/d49/_sk_path_8h.html" target="_top" xlink:title="SkPath.h">
<polygon fill="white" stroke="black" points="323.858,-522.5 323.858,-543.5 380.858,-543.5 380.858,-522.5 323.858,-522.5"/>
<text text-anchor="middle" x="352.358" y="-530.5" font-family="Helvetica,sans-Serif" font-size="10.00">SkPath.h</text>
</a>
</g>
<!-- Node1&#45;&gt;Node11 -->
<g id="edge22" class="edge"><title>Node1&#45;&gt;Node11</title>
<path fill="none" stroke="midnightblue" d="M472.737,-580.497C449.26,-571.234 414.832,-557.65 388.802,-547.379"/>
<polygon fill="midnightblue" stroke="midnightblue" points="389.864,-544.036 379.277,-543.621 387.294,-550.547 389.864,-544.036"/>
</g>
<!-- Node18 -->
<g id="node40" class="node"><title>Node18</title>
<a xlink:href="../../df/d14/_sk_rect_8h.html" target="_top" xlink:title="SkRect.h">
<polygon fill="white" stroke="black" points="476.358,-406.5 476.358,-427.5 534.358,-427.5 534.358,-406.5 476.358,-406.5"/>
<text text-anchor="middle" x="505.358" y="-414.5" font-family="Helvetica,sans-Serif" font-size="10.00">SkRect.h</text>
</a>
</g>
<!-- Node1&#45;&gt;Node18 -->
<g id="edge90" class="edge"><title>Node1&#45;&gt;Node18</title>
<path fill="none" stroke="midnightblue" d="M499.724,-580.377C500.692,-552.293 503.334,-475.673 504.626,-438.203"/>
<polygon fill="midnightblue" stroke="midnightblue" points="508.134,-438.042 504.981,-427.928 501.138,-437.801 508.134,-438.042"/>
</g>
<!-- Node28 -->
<g id="node65" class="node"><title>Node28</title>
<a xlink:href="../../d4/d78/_sk_t_d_array_8h.html" target="_top" xlink:title="SkTDArray.h">
<polygon fill="white" stroke="black" points="315.358,-464.5 315.358,-485.5 389.358,-485.5 389.358,-464.5 315.358,-464.5"/>
<text text-anchor="middle" x="352.358" y="-472.5" font-family="Helvetica,sans-Serif" font-size="10.00">SkTDArray.h</text>
</a>
</g>
<!-- Node1&#45;&gt;Node28 -->
<g id="edge96" class="edge"><title>Node1&#45;&gt;Node28</title>
<path fill="none" stroke="midnightblue" d="M485.792,-580.295C460.194,-560.096 404.588,-516.216 373.854,-491.963"/>
<polygon fill="midnightblue" stroke="midnightblue" points="375.909,-489.126 365.891,-485.679 371.573,-494.622 375.909,-489.126"/>
</g>
<!-- Node31 -->
<g id="node77" class="node"><title>Node31</title>
<a xlink:href="../../d9/dda/_sk_region_8h.html" target="_top" xlink:title="SkRegion.h">
<polygon fill="white" stroke="black" points="527.358,-522.5 527.358,-543.5 595.358,-543.5 595.358,-522.5 527.358,-522.5"/>
<text text-anchor="middle" x="561.358" y="-530.5" font-family="Helvetica,sans-Serif" font-size="10.00">SkRegion.h</text>
</a>
</g>
<!-- Node1&#45;&gt;Node31 -->
<g id="edge92" class="edge"><title>Node1&#45;&gt;Node31</title>
<path fill="none" stroke="midnightblue" d="M510.729,-580.362C519.644,-572.023 532.237,-560.242 542.633,-550.516"/>
<polygon fill="midnightblue" stroke="midnightblue" points="545.146,-552.958 550.058,-543.571 540.364,-547.846 545.146,-552.958"/>
</g>
<!-- Node3 -->
<g id="node5" class="node"><title>Node3</title>
<a xlink:href="../../d3/d36/_sk_types_8h.html" target="_top" xlink:title="SkTypes.h">
<polygon fill="white" stroke="black" points="339.358,-116.5 339.358,-137.5 403.358,-137.5 403.358,-116.5 339.358,-116.5"/>
<text text-anchor="middle" x="371.358" y="-124.5" font-family="Helvetica,sans-Serif" font-size="10.00">SkTypes.h</text>
</a>
</g>
<!-- Node2&#45;&gt;Node3 -->
<g id="edge4" class="edge"><title>Node2&#45;&gt;Node3</title>
<path fill="none" stroke="midnightblue" d="M702.42,-406.305C709.733,-386.063 724.358,-340.626 724.358,-301 724.358,-301 724.358,-301 724.358,-243 724.358,-207.99 715.098,-193.991 686.358,-174 643.005,-143.845 488.973,-132.523 413.565,-128.719"/>
<polygon fill="midnightblue" stroke="midnightblue" points="413.624,-125.218 403.466,-128.231 413.286,-132.209 413.624,-125.218"/>
</g>
<!-- Node4 -->
<g id="node7" class="node"><title>Node4</title>
<a xlink:href="../../da/dc5/_sk_pre_config_8h.html" target="_top" xlink:title="SkPreConfig.h">
<polygon fill="white" stroke="black" points="159.358,-58.5 159.358,-79.5 239.358,-79.5 239.358,-58.5 159.358,-58.5"/>
<text text-anchor="middle" x="199.358" y="-66.5" font-family="Helvetica,sans-Serif" font-size="10.00">SkPreConfig.h</text>
</a>
</g>
<!-- Node3&#45;&gt;Node4 -->
<g id="edge6" class="edge"><title>Node3&#45;&gt;Node4</title>
<path fill="none" stroke="midnightblue" d="M340.21,-116.497C312.169,-107.041 270.776,-93.0829 240.112,-82.7428"/>
<polygon fill="midnightblue" stroke="midnightblue" points="241.158,-79.4019 230.564,-79.5231 238.921,-86.035 241.158,-79.4019"/>
</g>
<!-- Node5 -->
<g id="node9" class="node"><title>Node5</title>
<a xlink:href="../../d8/d2f/_sk_user_config_8h.html" target="_top" xlink:title="SkUserConfig.h">
<polygon fill="white" stroke="black" points="257.358,-58.5 257.358,-79.5 343.358,-79.5 343.358,-58.5 257.358,-58.5"/>
<text text-anchor="middle" x="300.358" y="-66.5" font-family="Helvetica,sans-Serif" font-size="10.00">SkUserConfig.h</text>
</a>
</g>
<!-- Node3&#45;&gt;Node5 -->
<g id="edge8" class="edge"><title>Node3&#45;&gt;Node5</title>
<path fill="none" stroke="midnightblue" d="M358.335,-116.362C347.926,-107.859 333.138,-95.7785 321.102,-85.9466"/>
<polygon fill="midnightblue" stroke="midnightblue" points="323.256,-83.1866 313.297,-79.5707 318.828,-88.6077 323.256,-83.1866"/>
</g>
<!-- Node6 -->
<g id="node11" class="node"><title>Node6</title>
<a xlink:href="../../d8/d35/_sk_post_config_8h.html" target="_top" xlink:title="SkPostConfig.h">
<polygon fill="white" stroke="black" points="399.358,-58.5 399.358,-79.5 485.358,-79.5 485.358,-58.5 399.358,-58.5"/>
<text text-anchor="middle" x="442.358" y="-66.5" font-family="Helvetica,sans-Serif" font-size="10.00">SkPostConfig.h</text>
</a>
</g>
<!-- Node3&#45;&gt;Node6 -->
<g id="edge10" class="edge"><title>Node3&#45;&gt;Node6</title>
<path fill="none" stroke="midnightblue" d="M384.38,-116.362C394.789,-107.859 409.577,-95.7785 421.613,-85.9466"/>
<polygon fill="midnightblue" stroke="midnightblue" points="423.887,-88.6077 429.418,-79.5707 419.459,-83.1866 423.887,-88.6077"/>
</g>
<!-- Node7 -->
<g id="node13" class="node"><title>Node7</title>
<polygon fill="white" stroke="#bfbfbf" points="349.358,-0.5 349.358,-21.5 395.358,-21.5 395.358,-0.5 349.358,-0.5"/>
<text text-anchor="middle" x="372.358" y="-8.5" font-family="Helvetica,sans-Serif" font-size="10.00">stdio.h</text>
</g>
<!-- Node3&#45;&gt;Node7 -->
<g id="edge20" class="edge"><title>Node3&#45;&gt;Node7</title>
<path fill="none" stroke="midnightblue" d="M371.45,-116.295C371.615,-97.1314 371.964,-56.654 372.178,-31.8434"/>
<polygon fill="midnightblue" stroke="midnightblue" points="375.679,-31.709 372.265,-21.6792 368.679,-31.6486 375.679,-31.709"/>
</g>
<!-- Node10 -->
<g id="node19" class="node"><title>Node10</title>
<polygon fill="white" stroke="#bfbfbf" points="502.858,-58.5 502.858,-79.5 551.858,-79.5 551.858,-58.5 502.858,-58.5"/>
<text text-anchor="middle" x="527.358" y="-66.5" font-family="Helvetica,sans-Serif" font-size="10.00">stdint.h</text>
</g>
<!-- Node3&#45;&gt;Node10 -->
<g id="edge18" class="edge"><title>Node3&#45;&gt;Node10</title>
<path fill="none" stroke="midnightblue" d="M399.608,-116.497C425.92,-106.714 465.194,-92.1122 493.243,-81.6835"/>
<polygon fill="midnightblue" stroke="midnightblue" points="494.504,-84.9491 502.657,-78.1835 492.064,-78.3879 494.504,-84.9491"/>
</g>
<!-- Node6&#45;&gt;Node7 -->
<g id="edge12" class="edge"><title>Node6&#45;&gt;Node7</title>
<path fill="none" stroke="midnightblue" d="M429.518,-58.3619C419.355,-49.9408 404.956,-38.0105 393.153,-28.2308"/>
<polygon fill="midnightblue" stroke="midnightblue" points="395.049,-25.2558 385.115,-21.5707 390.582,-30.6459 395.049,-25.2558"/>
</g>
<!-- Node8 -->
<g id="node15" class="node"><title>Node8</title>
<polygon fill="white" stroke="#bfbfbf" points="481.858,-0.5 481.858,-21.5 530.858,-21.5 530.858,-0.5 481.858,-0.5"/>
<text text-anchor="middle" x="506.358" y="-8.5" font-family="Helvetica,sans-Serif" font-size="10.00">string.h</text>
</g>
<!-- Node6&#45;&gt;Node8 -->
<g id="edge14" class="edge"><title>Node6&#45;&gt;Node8</title>
<path fill="none" stroke="midnightblue" d="M454.096,-58.3619C463.298,-50.0226 476.298,-38.2418 487.029,-28.5162"/>
<polygon fill="midnightblue" stroke="midnightblue" points="489.634,-30.8793 494.693,-21.5707 484.933,-25.6924 489.634,-30.8793"/>
</g>
<!-- Node9 -->
<g id="node17" class="node"><title>Node9</title>
<polygon fill="white" stroke="#bfbfbf" points="416.358,-0.5 416.358,-21.5 464.358,-21.5 464.358,-0.5 416.358,-0.5"/>
<text text-anchor="middle" x="440.358" y="-8.5" font-family="Helvetica,sans-Serif" font-size="10.00">stdlib.h</text>
</g>
<!-- Node6&#45;&gt;Node9 -->
<g id="edge16" class="edge"><title>Node6&#45;&gt;Node9</title>
<path fill="none" stroke="midnightblue" d="M441.991,-58.3619C441.734,-50.9219 441.383,-40.7427 441.072,-31.7276"/>
<polygon fill="midnightblue" stroke="midnightblue" points="444.565,-31.4441 440.722,-21.5707 437.569,-31.6854 444.565,-31.4441"/>
</g>
<!-- Node12 -->
<g id="node24" class="node"><title>Node12</title>
<a xlink:href="../../dd/dac/_sk_inst_cnt_8h.html" target="_top" xlink:title="SkInstCnt.h">
<polygon fill="white" stroke="black" points="46.8575,-290.5 46.8575,-311.5 115.858,-311.5 115.858,-290.5 46.8575,-290.5"/>
<text text-anchor="middle" x="81.3575" y="-298.5" font-family="Helvetica,sans-Serif" font-size="10.00">SkInstCnt.h</text>
</a>
</g>
<!-- Node11&#45;&gt;Node12 -->
<g id="edge24" class="edge"><title>Node11&#45;&gt;Node12</title>
<path fill="none" stroke="midnightblue" d="M335.702,-522.391C321.655,-513.233 301.205,-499.4 284.358,-486 212.497,-428.844 133.885,-353 99.3378,-318.921"/>
<polygon fill="midnightblue" stroke="midnightblue" points="101.473,-316.11 91.9047,-311.561 96.5482,-321.084 101.473,-316.11"/>
</g>
<!-- Node17 -->
<g id="node38" class="node"><title>Node17</title>
<a xlink:href="../../da/d71/_sk_matrix_8h.html" target="_top" xlink:title="SkMatrix.h">
<polygon fill="white" stroke="black" points="407.358,-464.5 407.358,-485.5 471.358,-485.5 471.358,-464.5 407.358,-464.5"/>
<text text-anchor="middle" x="439.358" y="-472.5" font-family="Helvetica,sans-Serif" font-size="10.00">SkMatrix.h</text>
</a>
</g>
<!-- Node11&#45;&gt;Node17 -->
<g id="edge42" class="edge"><title>Node11&#45;&gt;Node17</title>
<path fill="none" stroke="midnightblue" d="M368.315,-522.362C381.314,-513.696 399.889,-501.313 414.785,-491.382"/>
<polygon fill="midnightblue" stroke="midnightblue" points="417.122,-494.03 423.502,-485.571 413.24,-488.206 417.122,-494.03"/>
</g>
<!-- Node11&#45;&gt;Node28 -->
<g id="edge74" class="edge"><title>Node11&#45;&gt;Node28</title>
<path fill="none" stroke="midnightblue" d="M352.358,-522.362C352.358,-514.922 352.358,-504.743 352.358,-495.728"/>
<polygon fill="midnightblue" stroke="midnightblue" points="355.858,-495.571 352.358,-485.571 348.858,-495.571 355.858,-495.571"/>
</g>
<!-- Node29 -->
<g id="node68" class="node"><title>Node29</title>
<a xlink:href="../../df/d2b/_sk_ref_cnt_8h.html" target="_top" xlink:title="SkRefCnt.h">
<polygon fill="white" stroke="black" points="168.358,-348.5 168.358,-369.5 236.358,-369.5 236.358,-348.5 168.358,-348.5"/>
<text text-anchor="middle" x="202.358" y="-356.5" font-family="Helvetica,sans-Serif" font-size="10.00">SkRefCnt.h</text>
</a>
</g>
<!-- Node11&#45;&gt;Node29 -->
<g id="edge78" class="edge"><title>Node11&#45;&gt;Node29</title>
<path fill="none" stroke="midnightblue" d="M341.483,-522.433C331.982,-513.073 317.936,-498.928 306.358,-486 273.022,-448.781 236.566,-402.973 216.9,-377.798"/>
<polygon fill="midnightblue" stroke="midnightblue" points="219.581,-375.544 210.677,-369.802 214.057,-379.843 219.581,-375.544"/>
</g>
<!-- Node12&#45;&gt;Node3 -->
<g id="edge26" class="edge"><title>Node12&#45;&gt;Node3</title>
<path fill="none" stroke="midnightblue" d="M93.6778,-290.464C110.571,-276.278 142.161,-250.663 171.358,-232 228.102,-195.727 298.717,-160.869 339.058,-141.85"/>
<polygon fill="midnightblue" stroke="midnightblue" points="340.583,-145.001 348.153,-137.589 337.613,-138.662 340.583,-145.001"/>
</g>
<!-- Node13 -->
<g id="node27" class="node"><title>Node13</title>
<a xlink:href="../../dd/d82/_sk_t_array_8h.html" target="_top" xlink:title="SkTArray.h">
<polygon fill="white" stroke="black" points="20.3575,-232.5 20.3575,-253.5 86.3575,-253.5 86.3575,-232.5 20.3575,-232.5"/>
<text text-anchor="middle" x="53.3575" y="-240.5" font-family="Helvetica,sans-Serif" font-size="10.00">SkTArray.h</text>
</a>
</g>
<!-- Node12&#45;&gt;Node13 -->
<g id="edge28" class="edge"><title>Node12&#45;&gt;Node13</title>
<path fill="none" stroke="midnightblue" d="M76.2219,-290.362C72.5117,-282.677 67.3906,-272.069 62.9354,-262.84"/>
<polygon fill="midnightblue" stroke="midnightblue" points="65.9601,-261.055 58.4606,-253.571 59.6562,-264.098 65.9601,-261.055"/>
</g>
<!-- Node16 -->
<g id="node36" class="node"><title>Node16</title>
<a xlink:href="../../d9/d82/_sk_thread__platform_8h.html" target="_top" xlink:title="SkThread_platform.h">
<polygon fill="white" stroke="black" points="179.858,-232.5 179.858,-253.5 286.858,-253.5 286.858,-232.5 179.858,-232.5"/>
<text text-anchor="middle" x="233.358" y="-240.5" font-family="Helvetica,sans-Serif" font-size="10.00">SkThread_platform.h</text>
</a>
</g>
<!-- Node12&#45;&gt;Node16 -->
<g id="edge40" class="edge"><title>Node12&#45;&gt;Node16</title>
<path fill="none" stroke="midnightblue" d="M108.884,-290.497C133.342,-281.164 169.296,-267.445 196.281,-257.147"/>
<polygon fill="midnightblue" stroke="midnightblue" points="197.685,-260.358 205.78,-253.523 195.189,-253.818 197.685,-260.358"/>
</g>
<!-- Node13&#45;&gt;Node3 -->
<g id="edge32" class="edge"><title>Node13&#45;&gt;Node3</title>
<path fill="none" stroke="midnightblue" d="M64.352,-232.287C80.7792,-216.916 113.346,-188.826 146.358,-174 206.429,-147.02 282.547,-135.294 329.064,-130.367"/>
<polygon fill="midnightblue" stroke="midnightblue" points="329.489,-133.842 339.09,-129.362 328.791,-126.876 329.489,-133.842"/>
</g>
<!-- Node14 -->
<g id="node29" class="node"><title>Node14</title>
<polygon fill="white" stroke="#bfbfbf" points="1.85751,-116.5 1.85751,-137.5 36.8575,-137.5 36.8575,-116.5 1.85751,-116.5"/>
<text text-anchor="middle" x="19.3575" y="-124.5" font-family="Helvetica,sans-Serif" font-size="10.00">new</text>
</g>
<!-- Node13&#45;&gt;Node14 -->
<g id="edge30" class="edge"><title>Node13&#45;&gt;Node14</title>
<path fill="none" stroke="midnightblue" d="M35.9407,-232.225C24.3107,-223.93 9.97772,-211.309 3.35751,-196 -3.47655,-180.197 1.9512,-161.04 8.27225,-146.925"/>
<polygon fill="midnightblue" stroke="midnightblue" points="11.5606,-148.172 12.8703,-137.658 5.29013,-145.06 11.5606,-148.172"/>
</g>
<!-- Node15 -->
<g id="node32" class="node"><title>Node15</title>
<a xlink:href="../../db/d2d/_sk_templates_8h.html" target="_top" xlink:title="SkTemplates.h">
<polygon fill="white" stroke="black" points="11.8575,-174.5 11.8575,-195.5 94.8575,-195.5 94.8575,-174.5 11.8575,-174.5"/>
<text text-anchor="middle" x="53.3575" y="-182.5" font-family="Helvetica,sans-Serif" font-size="10.00">SkTemplates.h</text>
</a>
</g>
<!-- Node13&#45;&gt;Node15 -->
<g id="edge34" class="edge"><title>Node13&#45;&gt;Node15</title>
<path fill="none" stroke="midnightblue" d="M53.3575,-232.362C53.3575,-224.922 53.3575,-214.743 53.3575,-205.728"/>
<polygon fill="midnightblue" stroke="midnightblue" points="56.8576,-205.571 53.3575,-195.571 49.8576,-205.571 56.8576,-205.571"/>
</g>
<!-- Node15&#45;&gt;Node3 -->
<g id="edge36" class="edge"><title>Node15&#45;&gt;Node3</title>
<path fill="none" stroke="midnightblue" d="M95.082,-176.561C99.5607,-175.684 104.052,-174.815 108.358,-174 186.168,-159.268 277.174,-143.281 329.163,-134.265"/>
<polygon fill="midnightblue" stroke="midnightblue" points="330.079,-137.659 339.336,-132.504 328.885,-130.761 330.079,-137.659"/>
</g>
<!-- Node15&#45;&gt;Node14 -->
<g id="edge38" class="edge"><title>Node15&#45;&gt;Node14</title>
<path fill="none" stroke="midnightblue" d="M47.1214,-174.362C42.5204,-166.513 36.1323,-155.616 30.6436,-146.253"/>
<polygon fill="midnightblue" stroke="midnightblue" points="33.6308,-144.428 25.5541,-137.571 27.5919,-147.968 33.6308,-144.428"/>
</g>
<!-- Node17&#45;&gt;Node18 -->
<g id="edge44" class="edge"><title>Node17&#45;&gt;Node18</title>
<path fill="none" stroke="midnightblue" d="M451.463,-464.362C461.046,-455.941 474.621,-444.011 485.75,-434.231"/>
<polygon fill="midnightblue" stroke="midnightblue" points="488.128,-436.801 493.329,-427.571 483.507,-431.543 488.128,-436.801"/>
</g>
<!-- Node19 -->
<g id="node42" class="node"><title>Node19</title>
<a xlink:href="../../dc/d8c/_sk_point_8h.html" target="_top" xlink:title="SkPoint.h">
<polygon fill="white" stroke="black" points="550.858,-348.5 550.858,-369.5 609.858,-369.5 609.858,-348.5 550.858,-348.5"/>
<text text-anchor="middle" x="580.358" y="-356.5" font-family="Helvetica,sans-Serif" font-size="10.00">SkPoint.h</text>
</a>
</g>
<!-- Node18&#45;&gt;Node19 -->
<g id="edge46" class="edge"><title>Node18&#45;&gt;Node19</title>
<path fill="none" stroke="midnightblue" d="M519.114,-406.362C530.109,-397.859 545.73,-385.779 558.444,-375.947"/>
<polygon fill="midnightblue" stroke="midnightblue" points="560.919,-378.457 566.689,-369.571 556.637,-372.919 560.919,-378.457"/>
</g>
<!-- Node27 -->
<g id="node62" class="node"><title>Node27</title>
<a xlink:href="../../d9/d2c/_sk_size_8h.html" target="_top" xlink:title="SkSize.h">
<polygon fill="white" stroke="black" points="477.358,-348.5 477.358,-369.5 533.358,-369.5 533.358,-348.5 477.358,-348.5"/>
<text text-anchor="middle" x="505.358" y="-356.5" font-family="Helvetica,sans-Serif" font-size="10.00">SkSize.h</text>
</a>
</g>
<!-- Node18&#45;&gt;Node27 -->
<g id="edge70" class="edge"><title>Node18&#45;&gt;Node27</title>
<path fill="none" stroke="midnightblue" d="M505.358,-406.362C505.358,-398.922 505.358,-388.743 505.358,-379.728"/>
<polygon fill="midnightblue" stroke="midnightblue" points="508.858,-379.571 505.358,-369.571 501.858,-379.571 508.858,-379.571"/>
</g>
<!-- Node20 -->
<g id="node44" class="node"><title>Node20</title>
<a xlink:href="../../d9/df0/_sk_math_8h.html" target="_top" xlink:title="SkMath.h">
<polygon fill="white" stroke="black" points="601.858,-290.5 601.858,-311.5 660.858,-311.5 660.858,-290.5 601.858,-290.5"/>
<text text-anchor="middle" x="631.358" y="-298.5" font-family="Helvetica,sans-Serif" font-size="10.00">SkMath.h</text>
</a>
</g>
<!-- Node19&#45;&gt;Node20 -->
<g id="edge48" class="edge"><title>Node19&#45;&gt;Node20</title>
<path fill="none" stroke="midnightblue" d="M589.712,-348.362C596.901,-340.186 606.998,-328.702 615.45,-319.091"/>
<polygon fill="midnightblue" stroke="midnightblue" points="618.088,-321.392 622.063,-311.571 612.831,-316.769 618.088,-321.392"/>
</g>
<!-- Node21 -->
<g id="node47" class="node"><title>Node21</title>
<a xlink:href="../../d5/d8a/_sk_scalar_8h.html" target="_top" xlink:title="SkScalar.h">
<polygon fill="white" stroke="black" points="483.858,-290.5 483.858,-311.5 548.858,-311.5 548.858,-290.5 483.858,-290.5"/>
<text text-anchor="middle" x="516.358" y="-298.5" font-family="Helvetica,sans-Serif" font-size="10.00">SkScalar.h</text>
</a>
</g>
<!-- Node19&#45;&gt;Node21 -->
<g id="edge52" class="edge"><title>Node19&#45;&gt;Node21</title>
<path fill="none" stroke="midnightblue" d="M568.619,-348.362C559.417,-340.023 546.417,-328.242 535.686,-318.516"/>
<polygon fill="midnightblue" stroke="midnightblue" points="537.782,-315.692 528.022,-311.571 533.081,-320.879 537.782,-315.692"/>
</g>
<!-- Node20&#45;&gt;Node3 -->
<g id="edge50" class="edge"><title>Node20&#45;&gt;Node3</title>
<path fill="none" stroke="midnightblue" d="M640.044,-290.431C658.405,-266.765 697.118,-208.859 667.358,-174 651.07,-154.922 491.358,-137.917 413.543,-130.687"/>
<polygon fill="midnightblue" stroke="midnightblue" points="413.856,-127.201 403.578,-129.773 413.216,-134.172 413.856,-127.201"/>
</g>
<!-- Node22 -->
<g id="node49" class="node"><title>Node22</title>
<a xlink:href="../../d0/df6/_sk_fixed_8h.html" target="_top" xlink:title="SkFixed.h">
<polygon fill="white" stroke="black" points="388.858,-232.5 388.858,-253.5 449.858,-253.5 449.858,-232.5 388.858,-232.5"/>
<text text-anchor="middle" x="419.358" y="-240.5" font-family="Helvetica,sans-Serif" font-size="10.00">SkFixed.h</text>
</a>
</g>
<!-- Node21&#45;&gt;Node22 -->
<g id="edge54" class="edge"><title>Node21&#45;&gt;Node22</title>
<path fill="none" stroke="midnightblue" d="M498.566,-290.362C483.799,-281.532 462.579,-268.844 445.819,-258.822"/>
<polygon fill="midnightblue" stroke="midnightblue" points="447.415,-255.699 437.036,-253.571 443.823,-261.707 447.415,-255.699"/>
</g>
<!-- Node23 -->
<g id="node52" class="node"><title>Node23</title>
<a xlink:href="../../df/dd6/_sk_floating_point_8h.html" target="_top" xlink:title="SkFloatingPoint.h">
<polygon fill="white" stroke="black" points="475.358,-232.5 475.358,-253.5 569.358,-253.5 569.358,-232.5 475.358,-232.5"/>
<text text-anchor="middle" x="522.358" y="-240.5" font-family="Helvetica,sans-Serif" font-size="10.00">SkFloatingPoint.h</text>
</a>
</g>
<!-- Node21&#45;&gt;Node23 -->
<g id="edge58" class="edge"><title>Node21&#45;&gt;Node23</title>
<path fill="none" stroke="midnightblue" d="M517.458,-290.362C518.228,-282.922 519.281,-272.743 520.213,-263.728"/>
<polygon fill="midnightblue" stroke="midnightblue" points="523.716,-263.878 521.264,-253.571 516.753,-263.157 523.716,-263.878"/>
</g>
<!-- Node22&#45;&gt;Node3 -->
<g id="edge56" class="edge"><title>Node22&#45;&gt;Node3</title>
<path fill="none" stroke="midnightblue" d="M414.928,-232.295C406.927,-212.959 389.946,-171.923 379.706,-147.177"/>
<polygon fill="midnightblue" stroke="midnightblue" points="382.834,-145.581 375.776,-137.679 376.366,-148.258 382.834,-145.581"/>
</g>
<!-- Node23&#45;&gt;Node3 -->
<g id="edge60" class="edge"><title>Node23&#45;&gt;Node3</title>
<path fill="none" stroke="midnightblue" d="M522.334,-232.199C521.717,-217.232 518.412,-190.202 503.358,-174 480.028,-148.893 442.397,-137.186 413.272,-131.734"/>
<polygon fill="midnightblue" stroke="midnightblue" points="413.806,-128.274 403.362,-130.054 412.637,-135.176 413.806,-128.274"/>
</g>
<!-- Node24 -->
<g id="node55" class="node"><title>Node24</title>
<polygon fill="white" stroke="#bfbfbf" points="549.858,-174.5 549.858,-195.5 596.858,-195.5 596.858,-174.5 549.858,-174.5"/>
<text text-anchor="middle" x="573.358" y="-182.5" font-family="Helvetica,sans-Serif" font-size="10.00">math.h</text>
</g>
<!-- Node23&#45;&gt;Node24 -->
<g id="edge62" class="edge"><title>Node23&#45;&gt;Node24</title>
<path fill="none" stroke="midnightblue" d="M531.712,-232.362C538.901,-224.186 548.998,-212.702 557.45,-203.091"/>
<polygon fill="midnightblue" stroke="midnightblue" points="560.088,-205.392 564.063,-195.571 554.831,-200.769 560.088,-205.392"/>
</g>
<!-- Node25 -->
<g id="node57" class="node"><title>Node25</title>
<polygon fill="white" stroke="#bfbfbf" points="614.358,-174.5 614.358,-195.5 658.358,-195.5 658.358,-174.5 614.358,-174.5"/>
<text text-anchor="middle" x="636.358" y="-182.5" font-family="Helvetica,sans-Serif" font-size="10.00">float.h</text>
</g>
<!-- Node23&#45;&gt;Node25 -->
<g id="edge64" class="edge"><title>Node23&#45;&gt;Node25</title>
<path fill="none" stroke="midnightblue" d="M543.002,-232.497C560.727,-223.479 586.502,-210.365 606.481,-200.201"/>
<polygon fill="midnightblue" stroke="midnightblue" points="608.156,-203.275 615.481,-195.621 604.981,-197.036 608.156,-203.275"/>
</g>
<!-- Node26 -->
<g id="node59" class="node"><title>Node26</title>
<a xlink:href="../../de/d2c/_sk_float_bits_8h.html" target="_top" xlink:title="SkFloatBits.h">
<polygon fill="white" stroke="black" points="418.358,-174.5 418.358,-195.5 494.358,-195.5 494.358,-174.5 418.358,-174.5"/>
<text text-anchor="middle" x="456.358" y="-182.5" font-family="Helvetica,sans-Serif" font-size="10.00">SkFloatBits.h</text>
</a>
</g>
<!-- Node23&#45;&gt;Node26 -->
<g id="edge66" class="edge"><title>Node23&#45;&gt;Node26</title>
<path fill="none" stroke="midnightblue" d="M510.252,-232.362C500.669,-223.941 487.094,-212.011 475.965,-202.231"/>
<polygon fill="midnightblue" stroke="midnightblue" points="478.208,-199.543 468.386,-195.571 473.587,-204.801 478.208,-199.543"/>
</g>
<!-- Node26&#45;&gt;Node3 -->
<g id="edge68" class="edge"><title>Node26&#45;&gt;Node3</title>
<path fill="none" stroke="midnightblue" d="M440.767,-174.362C428.066,-165.696 409.919,-153.313 395.365,-143.382"/>
<polygon fill="midnightblue" stroke="midnightblue" points="397.082,-140.316 386.849,-137.571 393.136,-146.098 397.082,-140.316"/>
</g>
<!-- Node27&#45;&gt;Node21 -->
<g id="edge72" class="edge"><title>Node27&#45;&gt;Node21</title>
<path fill="none" stroke="midnightblue" d="M507.375,-348.362C508.802,-340.84 510.759,-330.519 512.483,-321.431"/>
<polygon fill="midnightblue" stroke="midnightblue" points="515.928,-322.048 514.353,-311.571 509.051,-320.743 515.928,-322.048"/>
</g>
<!-- Node28&#45;&gt;Node3 -->
<g id="edge76" class="edge"><title>Node28&#45;&gt;Node3</title>
<path fill="none" stroke="midnightblue" d="M352.358,-464.444C352.358,-444.062 352.358,-397.868 352.358,-359 352.358,-359 352.358,-359 352.358,-243 352.358,-209.175 360.322,-170.523 365.938,-147.474"/>
<polygon fill="midnightblue" stroke="midnightblue" points="369.332,-148.331 368.389,-137.778 362.545,-146.616 369.332,-148.331"/>
</g>
<!-- Node29&#45;&gt;Node12 -->
<g id="edge86" class="edge"><title>Node29&#45;&gt;Node12</title>
<path fill="none" stroke="midnightblue" d="M180.445,-348.497C161.547,-339.438 134.026,-326.246 112.782,-316.063"/>
<polygon fill="midnightblue" stroke="midnightblue" points="114.046,-312.788 103.516,-311.621 111.02,-319.1 114.046,-312.788"/>
</g>
<!-- Node29&#45;&gt;Node15 -->
<g id="edge88" class="edge"><title>Node29&#45;&gt;Node15</title>
<path fill="none" stroke="midnightblue" d="M193.583,-348.375C175.439,-326.451 132.393,-274.68 95.3575,-232 87.0963,-222.48 77.7662,-212.011 70.0016,-203.375"/>
<polygon fill="midnightblue" stroke="midnightblue" points="72.4193,-200.83 63.123,-195.748 67.221,-205.518 72.4193,-200.83"/>
</g>
<!-- Node30 -->
<g id="node70" class="node"><title>Node30</title>
<a xlink:href="../../d9/def/_sk_thread_8h.html" target="_top" xlink:title="SkThread.h">
<polygon fill="white" stroke="black" points="199.858,-290.5 199.858,-311.5 266.858,-311.5 266.858,-290.5 199.858,-290.5"/>
<text text-anchor="middle" x="233.358" y="-298.5" font-family="Helvetica,sans-Serif" font-size="10.00">SkThread.h</text>
</a>
</g>
<!-- Node29&#45;&gt;Node30 -->
<g id="edge80" class="edge"><title>Node29&#45;&gt;Node30</title>
<path fill="none" stroke="midnightblue" d="M208.043,-348.362C212.195,-340.595 217.942,-329.843 222.911,-320.546"/>
<polygon fill="midnightblue" stroke="midnightblue" points="226.081,-322.04 227.708,-311.571 219.907,-318.74 226.081,-322.04"/>
</g>
<!-- Node30&#45;&gt;Node3 -->
<g id="edge82" class="edge"><title>Node30&#45;&gt;Node3</title>
<path fill="none" stroke="midnightblue" d="M251.315,-290.37C264.677,-281.803 282.714,-268.78 295.358,-254 321.598,-223.327 317.167,-208.357 338.358,-174 344.262,-164.427 351.371,-154.164 357.476,-145.678"/>
<polygon fill="midnightblue" stroke="midnightblue" points="360.317,-147.723 363.383,-137.582 354.662,-143.598 360.317,-147.723"/>
</g>
<!-- Node30&#45;&gt;Node16 -->
<g id="edge84" class="edge"><title>Node30&#45;&gt;Node16</title>
<path fill="none" stroke="midnightblue" d="M233.358,-290.362C233.358,-282.922 233.358,-272.743 233.358,-263.728"/>
<polygon fill="midnightblue" stroke="midnightblue" points="236.858,-263.571 233.358,-253.571 229.858,-263.571 236.858,-263.571"/>
</g>
<!-- Node31&#45;&gt;Node18 -->
<g id="edge94" class="edge"><title>Node31&#45;&gt;Node18</title>
<path fill="none" stroke="midnightblue" d="M556.19,-522.295C546.813,-502.872 526.867,-461.556 514.938,-436.846"/>
<polygon fill="midnightblue" stroke="midnightblue" points="518.012,-435.163 510.513,-427.679 511.709,-438.206 518.012,-435.163"/>
</g>
</g>
</svg>
        <g id="navigator" transform="translate(0 0)" fill="#404254">
                <rect fill="#f2f5e9" fill-opacity="0.5" stroke="#606060" stroke-width=".5" x="0" y="0" width="60" height="60"/>
                <use id="zoomplus" xlink:href="#zoomPlus" x="17" y="9" onmousedown="handleZoom(evt,'in')"/>
                <use id="zoomminus" xlink:href="#zoomMin" x="42" y="9" onmousedown="handleZoom(evt,'out')"/>
                <use id="reset" xlink:href="#resetDef" x="30" y="36" onmousedown="handleReset()"/>
                <g id="arrowUp" xlink:href="#dirArrow" transform="translate(30 24)" onmousedown="handlePan(0,-1)">
                  <use xlink:href="#rim" fill="#404040">
                        <set attributeName="fill" to="#808080" begin="arrowUp.mouseover" end="arrowUp.mouseout"/>
                  </use>
                  <path fill="none" stroke="white" stroke-width="1.5" d="M0,-3.0v7 M-2.5,-0.5L0,-3.0L2.5,-0.5"/>
                </g>
                <g id="arrowRight" xlink:href="#dirArrow" transform="rotate(90) translate(36 -43)" onmousedown="handlePan(1,0)">
                  <use xlink:href="#rim" fill="#404040">
                        <set attributeName="fill" to="#808080" begin="arrowRight.mouseover" end="arrowRight.mouseout"/>
                  </use>
                  <path fill="none" stroke="white" stroke-width="1.5" d="M0,-3.0v7 M-2.5,-0.5L0,-3.0L2.5,-0.5"/>
                </g>
                <g id="arrowDown" xlink:href="#dirArrow" transform="rotate(180) translate(-30 -48)" onmousedown="handlePan(0,1)">
                  <use xlink:href="#rim" fill="#404040">
                        <set attributeName="fill" to="#808080" begin="arrowDown.mouseover" end="arrowDown.mouseout"/>
                  </use>
                  <path fill="none" stroke="white" stroke-width="1.5" d="M0,-3.0v7 M-2.5,-0.5L0,-3.0L2.5,-0.5"/>
                </g>
                <g id="arrowLeft" xlink:href="#dirArrow" transform="rotate(270) translate(-36 17)" onmousedown="handlePan(-1,0)">
                  <use xlink:href="#rim" fill="#404040">
                        <set attributeName="fill" to="#808080" begin="arrowLeft.mouseover" end="arrowLeft.mouseout"/>
                  </use>
                  <path fill="none" stroke="white" stroke-width="1.5" d="M0,-3.0v7 M-2.5,-0.5L0,-3.0L2.5,-0.5"/>
                </g>
        </g>
</svg>
