<?xml version="1.0" encoding="UTF-8" standalone="no"?>
<!DOCTYPE svg PUBLIC "-//W3C//DTD SVG 1.1//EN"
 "http://www.w3.org/Graphics/SVG/1.1/DTD/svg11.dtd">
<!-- Generated by graphviz version 2.26.3 (20100126.1600)
 -->
<!-- Title: G Pages: 1 -->
<svg width="474pt" height="30pt"
 viewBox="0.00 0.00 474.00 30.00" xmlns="http://www.w3.org/2000/svg" xmlns:xlink="http://www.w3.org/1999/xlink">
<g id="graph1" class="graph" transform="scale(1 1) rotate(0) translate(4 26)">
<title>G</title>
<polygon fill="white" stroke="white" points="-4,5 -4,-26 471,-26 471,5 -4,5"/>
<!-- Node1 -->
<g id="node1" class="node"><title>Node1</title>
<polygon fill="#bfbfbf" stroke="black" points="0,-0.5 0,-21.5 186,-21.5 186,-0.5 0,-0.5"/>
<text text-anchor="middle" x="93" y="-8.5" font-family="Helvetica,sans-Serif" font-size="10.00">SkAutoLockColors::SkAutoLockColors</text>
</g>
<!-- Node2 -->
<g id="node3" class="node"><title>Node2</title>
<a xlink:href="../../da/d66/class_sk_color_table.html#a5e59f36e0f81702aa3de49fc493aa50f" target="_top" xlink:title="SkColorTable::lockColors">
<polygon fill="white" stroke="black" points="222,-0.5 222,-21.5 350,-21.5 350,-0.5 222,-0.5"/>
<text text-anchor="middle" x="286" y="-8.5" font-family="Helvetica,sans-Serif" font-size="10.00">SkColorTable::lockColors</text>
</a>
</g>
<!-- Node1&#45;&gt;Node2 -->
<g id="edge2" class="edge"><title>Node1&#45;&gt;Node2</title>
<path fill="none" stroke="midnightblue" d="M186.108,-11C194.743,-11 203.414,-11 211.844,-11"/>
<polygon fill="midnightblue" stroke="midnightblue" points="211.989,-14.5001 221.989,-11 211.989,-7.5001 211.989,-14.5001"/>
</g>
<!-- Node3 -->
<g id="node5" class="node"><title>Node3</title>
<a xlink:href="../../d9/d82/_sk_thread__platform_8h.html#a719144fc1c3dcde6ac3f9c3012bd98fd" target="_top" xlink:title="sk_atomic_inc">
<polygon fill="white" stroke="black" points="386,-0.5 386,-21.5 466,-21.5 466,-0.5 386,-0.5"/>
<text text-anchor="middle" x="426" y="-8.5" font-family="Helvetica,sans-Serif" font-size="10.00">sk_atomic_inc</text>
</a>
</g>
<!-- Node2&#45;&gt;Node3 -->
<g id="edge4" class="edge"><title>Node2&#45;&gt;Node3</title>
<path fill="none" stroke="midnightblue" d="M350.264,-11C358.755,-11 367.359,-11 375.573,-11"/>
<polygon fill="midnightblue" stroke="midnightblue" points="375.729,-14.5001 385.729,-11 375.729,-7.5001 375.729,-14.5001"/>
</g>
</g>
</svg>
