<?xml version="1.0" encoding="UTF-8" standalone="no"?>
<!DOCTYPE svg PUBLIC "-//W3C//DTD SVG 1.1//EN"
 "http://www.w3.org/Graphics/SVG/1.1/DTD/svg11.dtd">
<!-- Generated by graphviz version 2.26.3 (20100126.1600)
 -->
<!-- Title: G Pages: 1 -->
<!--zoomable 150 -->
<svg id="main" version="1.1" xmlns="http://www.w3.org/2000/svg" xmlns:xlink="http://www.w3.org/1999/xlink" xml:space="preserve" onload="init(evt)">
        <defs>
                <circle id="rim" cx="0" cy="0" r="7"/>
                <circle id="rim2" cx="0" cy="0" r="3.5"/>
                <g id="zoomPlus">
                        <use xlink:href="#rim" fill="#404040">
                                <set attributeName="fill" to="#808080" begin="zoomplus.mouseover" end="zoomplus.mouseout"/>
                        </use>
                        <path d="M-4,0h8M0,-4v8" fill="none" stroke="white" stroke-width="1.5" pointer-events="none"/>
                </g>
                <g id="zoomMin">
                        <use xlink:href="#rim" fill="#404040">
                                <set attributeName="fill" to="#808080" begin="zoomminus.mouseover" end="zoomminus.mouseout"/>
                        </use>
                        <path d="M-4,0h8" fill="none" stroke="white" stroke-width="1.5" pointer-events="none"/>
                </g>
                <g id="dirArrow">
                        <path fill="none" stroke="white" stroke-width="1.5" d="M0,-3.0v7 M-2.5,-0.5L0,-3.0L2.5,-0.5"/>
                </g>
               <g id="resetDef">
                       <use xlink:href="#rim2" fill="#404040">
                               <set attributeName="fill" to="#808080" begin="reset.mouseover" end="reset.mouseout"/>
                       </use>
               </g>
        </defs>

<script type="text/javascript">
var viewWidth = 926;
var viewHeight = 150;
var sectionId = 'dynsection-2';
</script>
<script xlink:href="../../svgpan.js"/>
<svg id="graph" class="graph">
<g id="viewport">
<title>G</title>
<polygon fill="white" stroke="white" points="-4,5 -4,-146 923,-146 923,5 -4,5"/>
<!-- Node1 -->
<g id="node1" class="node"><title>Node1</title>
<polygon fill="#bfbfbf" stroke="black" points="0,-80.5 0,-101.5 196,-101.5 196,-80.5 0,-80.5"/>
<text text-anchor="middle" x="98" y="-88.5" font-family="Helvetica,sans-Serif" font-size="10.00">mozilla::dom::PositionErrorCallback::Call</text>
</g>
<!-- Node2 -->
<g id="node3" class="node"><title>Node2</title>
<a xlink:href="../../d5/dc4/classmozilla_1_1dom_1_1_callback_object.html#a8a90a2d95ada28cbfcd86096f3f3b24e" target="_top" xlink:title="mozilla::dom::CallbackObject::CallbackPreserveColor">
<polygon fill="white" stroke="black" points="232.5,-120.5 232.5,-141.5 483.5,-141.5 483.5,-120.5 232.5,-120.5"/>
<text text-anchor="middle" x="358" y="-128.5" font-family="Helvetica,sans-Serif" font-size="10.00">mozilla::dom::CallbackObject::CallbackPreserveColor</text>
</a>
</g>
<!-- Node1&#45;&gt;Node2 -->
<g id="edge2" class="edge"><title>Node1&#45;&gt;Node2</title>
<path fill="none" stroke="midnightblue" d="M166.312,-101.51C201.106,-106.862 243.575,-113.396 279.688,-118.952"/>
<polygon fill="midnightblue" stroke="midnightblue" points="279.277,-122.43 289.693,-120.491 280.342,-115.511 279.277,-122.43"/>
</g>
<!-- Node4 -->
<g id="node7" class="node"><title>Node4</title>
<a xlink:href="../../df/de5/classmozilla_1_1dom_1_1_callback_object_1_1_call_setup.html#a3985d9eb3b5b1bef46e3daa3c2e7c5c5" target="_top" xlink:title="mozilla::dom::CallbackObject::CallSetup::GetContext">
<polygon fill="white" stroke="black" points="233,-80.5 233,-101.5 483,-101.5 483,-80.5 233,-80.5"/>
<text text-anchor="middle" x="358" y="-88.5" font-family="Helvetica,sans-Serif" font-size="10.00">mozilla::dom::CallbackObject::CallSetup::GetContext</text>
</a>
</g>
<!-- Node1&#45;&gt;Node4 -->
<g id="edge6" class="edge"><title>Node1&#45;&gt;Node4</title>
<path fill="none" stroke="midnightblue" d="M196.295,-91C204.967,-91 213.839,-91 222.745,-91"/>
<polygon fill="midnightblue" stroke="midnightblue" points="222.804,-94.5001 232.804,-91 222.804,-87.5001 222.804,-94.5001"/>
</g>
<!-- Node5 -->
<g id="node9" class="node"><title>Node5</title>
<a xlink:href="../../dd/d9c/classmozilla_1_1_error_result.html#a35d9f418a4b6bcbefcb67dda4bc7e6ee" target="_top" xlink:title="mozilla::ErrorResult::Throw">
<polygon fill="white" stroke="black" points="290,-40.5 290,-61.5 426,-61.5 426,-40.5 290,-40.5"/>
<text text-anchor="middle" x="358" y="-48.5" font-family="Helvetica,sans-Serif" font-size="10.00">mozilla::ErrorResult::Throw</text>
</a>
</g>
<!-- Node1&#45;&gt;Node5 -->
<g id="edge8" class="edge"><title>Node1&#45;&gt;Node5</title>
<path fill="none" stroke="midnightblue" d="M166.312,-80.4905C201.106,-75.1375 243.575,-68.6038 279.688,-63.048"/>
<polygon fill="midnightblue" stroke="midnightblue" points="280.342,-66.4887 289.693,-61.5087 279.277,-59.5701 280.342,-66.4887"/>
</g>
<!-- Node3 -->
<g id="node5" class="node"><title>Node3</title>
<a xlink:href="../../db/d0b/class_j_s_1_1_heap.html#ac97872f2a208107769399acb87d52426" target="_top" xlink:title="JS::Heap::address">
<polygon fill="white" stroke="black" points="575,-120.5 575,-141.5 673,-141.5 673,-120.5 575,-120.5"/>
<text text-anchor="middle" x="624" y="-128.5" font-family="Helvetica,sans-Serif" font-size="10.00">JS::Heap::address</text>
</a>
</g>
<!-- Node2&#45;&gt;Node3 -->
<g id="edge4" class="edge"><title>Node2&#45;&gt;Node3</title>
<path fill="none" stroke="midnightblue" d="M483.6,-131C511.966,-131 540.783,-131 564.867,-131"/>
<polygon fill="midnightblue" stroke="midnightblue" points="564.884,-134.5 574.884,-131 564.884,-127.5 564.884,-134.5"/>
</g>
<!-- Node6 -->
<g id="node11" class="node"><title>Node6</title>
<a xlink:href="../../dd/d9c/classmozilla_1_1_error_result.html#a3743341d1ffd2f7bbe90bba540e988fe" target="_top" xlink:title="mozilla::ErrorResult::IsJSException">
<polygon fill="white" stroke="black" points="537.5,-80.5 537.5,-101.5 710.5,-101.5 710.5,-80.5 537.5,-80.5"/>
<text text-anchor="middle" x="624" y="-88.5" font-family="Helvetica,sans-Serif" font-size="10.00">mozilla::ErrorResult::IsJSException</text>
</a>
</g>
<!-- Node5&#45;&gt;Node6 -->
<g id="edge10" class="edge"><title>Node5&#45;&gt;Node6</title>
<path fill="none" stroke="midnightblue" d="M426.156,-61.2491C462.188,-66.6674 506.627,-73.35 544.255,-79.0082"/>
<polygon fill="midnightblue" stroke="midnightblue" points="543.759,-82.4729 554.168,-80.4989 544.8,-75.5507 543.759,-82.4729"/>
</g>
<!-- Node8 -->
<g id="node15" class="node"><title>Node8</title>
<a xlink:href="../../dd/d9c/classmozilla_1_1_error_result.html#a42babe5c49a9e75f2559a69edb11e874" target="_top" xlink:title="mozilla::ErrorResult::IsNotEnoughArgsError">
<polygon fill="white" stroke="black" points="520.5,-40.5 520.5,-61.5 727.5,-61.5 727.5,-40.5 520.5,-40.5"/>
<text text-anchor="middle" x="624" y="-48.5" font-family="Helvetica,sans-Serif" font-size="10.00">mozilla::ErrorResult::IsNotEnoughArgsError</text>
</a>
</g>
<!-- Node5&#45;&gt;Node8 -->
<g id="edge14" class="edge"><title>Node5&#45;&gt;Node8</title>
<path fill="none" stroke="midnightblue" d="M426.156,-51C451.767,-51 481.626,-51 510.267,-51"/>
<polygon fill="midnightblue" stroke="midnightblue" points="510.338,-54.5001 520.338,-51 510.338,-47.5001 510.338,-54.5001"/>
</g>
<!-- Node9 -->
<g id="node18" class="node"><title>Node9</title>
<a xlink:href="../../dd/d9c/classmozilla_1_1_error_result.html#a0fb81790665001fd83bc9276c810ce4f" target="_top" xlink:title="mozilla::ErrorResult::IsTypeError">
<polygon fill="white" stroke="black" points="544,-0.5 544,-21.5 704,-21.5 704,-0.5 544,-0.5"/>
<text text-anchor="middle" x="624" y="-8.5" font-family="Helvetica,sans-Serif" font-size="10.00">mozilla::ErrorResult::IsTypeError</text>
</a>
</g>
<!-- Node5&#45;&gt;Node9 -->
<g id="edge18" class="edge"><title>Node5&#45;&gt;Node9</title>
<path fill="none" stroke="midnightblue" d="M426.156,-40.7509C462.188,-35.3326 506.627,-28.65 544.255,-22.9918"/>
<polygon fill="midnightblue" stroke="midnightblue" points="544.8,-26.4493 554.168,-21.5011 543.759,-19.5271 544.8,-26.4493"/>
</g>
<!-- Node7 -->
<g id="node13" class="node"><title>Node7</title>
<a xlink:href="../../dd/d9c/classmozilla_1_1_error_result.html#a5ec60babbb4edab5e6b4f41f2406148a" target="_top" xlink:title="mozilla::ErrorResult::ErrorCode">
<polygon fill="white" stroke="black" points="764.5,-40.5 764.5,-61.5 917.5,-61.5 917.5,-40.5 764.5,-40.5"/>
<text text-anchor="middle" x="841" y="-48.5" font-family="Helvetica,sans-Serif" font-size="10.00">mozilla::ErrorResult::ErrorCode</text>
</a>
</g>
<!-- Node6&#45;&gt;Node7 -->
<g id="edge12" class="edge"><title>Node6&#45;&gt;Node7</title>
<path fill="none" stroke="midnightblue" d="M681.014,-80.4905C709.558,-75.229 744.289,-68.8268 774.089,-63.3338"/>
<polygon fill="midnightblue" stroke="midnightblue" points="774.79,-66.7636 783.99,-61.5087 773.521,-59.8796 774.79,-66.7636"/>
</g>
<!-- Node8&#45;&gt;Node7 -->
<g id="edge16" class="edge"><title>Node8&#45;&gt;Node7</title>
<path fill="none" stroke="midnightblue" d="M727.733,-51C736.584,-51 745.476,-51 754.175,-51"/>
<polygon fill="midnightblue" stroke="midnightblue" points="754.283,-54.5001 764.283,-51 754.283,-47.5001 754.283,-54.5001"/>
</g>
<!-- Node9&#45;&gt;Node7 -->
<g id="edge20" class="edge"><title>Node9&#45;&gt;Node7</title>
<path fill="none" stroke="midnightblue" d="M681.014,-21.5095C709.558,-26.771 744.289,-33.1732 774.089,-38.6662"/>
<polygon fill="midnightblue" stroke="midnightblue" points="773.521,-42.1204 783.99,-40.4913 774.79,-35.2364 773.521,-42.1204"/>
</g>
</g>
</svg>
        <g id="navigator" transform="translate(0 0)" fill="#404254">
                <rect fill="#f2f5e9" fill-opacity="0.5" stroke="#606060" stroke-width=".5" x="0" y="0" width="60" height="60"/>
                <use id="zoomplus" xlink:href="#zoomPlus" x="17" y="9" onmousedown="handleZoom(evt,'in')"/>
                <use id="zoomminus" xlink:href="#zoomMin" x="42" y="9" onmousedown="handleZoom(evt,'out')"/>
                <use id="reset" xlink:href="#resetDef" x="30" y="36" onmousedown="handleReset()"/>
                <g id="arrowUp" xlink:href="#dirArrow" transform="translate(30 24)" onmousedown="handlePan(0,-1)">
                  <use xlink:href="#rim" fill="#404040">
                        <set attributeName="fill" to="#808080" begin="arrowUp.mouseover" end="arrowUp.mouseout"/>
                  </use>
                  <path fill="none" stroke="white" stroke-width="1.5" d="M0,-3.0v7 M-2.5,-0.5L0,-3.0L2.5,-0.5"/>
                </g>
                <g id="arrowRight" xlink:href="#dirArrow" transform="rotate(90) translate(36 -43)" onmousedown="handlePan(1,0)">
                  <use xlink:href="#rim" fill="#404040">
                        <set attributeName="fill" to="#808080" begin="arrowRight.mouseover" end="arrowRight.mouseout"/>
                  </use>
                  <path fill="none" stroke="white" stroke-width="1.5" d="M0,-3.0v7 M-2.5,-0.5L0,-3.0L2.5,-0.5"/>
                </g>
                <g id="arrowDown" xlink:href="#dirArrow" transform="rotate(180) translate(-30 -48)" onmousedown="handlePan(0,1)">
                  <use xlink:href="#rim" fill="#404040">
                        <set attributeName="fill" to="#808080" begin="arrowDown.mouseover" end="arrowDown.mouseout"/>
                  </use>
                  <path fill="none" stroke="white" stroke-width="1.5" d="M0,-3.0v7 M-2.5,-0.5L0,-3.0L2.5,-0.5"/>
                </g>
                <g id="arrowLeft" xlink:href="#dirArrow" transform="rotate(270) translate(-36 17)" onmousedown="handlePan(-1,0)">
                  <use xlink:href="#rim" fill="#404040">
                        <set attributeName="fill" to="#808080" begin="arrowLeft.mouseover" end="arrowLeft.mouseout"/>
                  </use>
                  <path fill="none" stroke="white" stroke-width="1.5" d="M0,-3.0v7 M-2.5,-0.5L0,-3.0L2.5,-0.5"/>
                </g>
        </g>
</svg>
