<?xml version="1.0" encoding="UTF-8" standalone="no"?>
<!DOCTYPE svg PUBLIC "-//W3C//DTD SVG 1.1//EN"
 "http://www.w3.org/Graphics/SVG/1.1/DTD/svg11.dtd">
<!-- Generated by graphviz version 2.26.3 (20100126.1600)
 -->
<!-- Title: G Pages: 1 -->
<svg width="196pt" height="88pt"
 viewBox="0.00 0.00 196.00 88.00" xmlns="http://www.w3.org/2000/svg" xmlns:xlink="http://www.w3.org/1999/xlink">
<g id="graph1" class="graph" transform="scale(1 1) rotate(0) translate(4 84)">
<title>G</title>
<polygon fill="white" stroke="white" points="-4,5 -4,-84 193,-84 193,5 -4,5"/>
<!-- Node1 -->
<g id="node1" class="node"><title>Node1</title>
<polygon fill="#bfbfbf" stroke="black" points="12,-0.5 12,-21.5 176,-21.5 176,-0.5 12,-0.5"/>
<text text-anchor="middle" x="94" y="-8.5" font-family="Helvetica,sans-Serif" font-size="10.00">mozilla::layers::CompositorParent</text>
</g>
<!-- Node2 -->
<g id="node2" class="node"><title>Node2</title>
<a xlink:href="../../dc/da7/classmozilla_1_1layers_1_1_shadow_layers_manager.html" target="_top" xlink:title="mozilla::layers::ShadowLayersManager">
<polygon fill="white" stroke="black" points="0,-58.5 0,-79.5 188,-79.5 188,-58.5 0,-58.5"/>
<text text-anchor="middle" x="94" y="-66.5" font-family="Helvetica,sans-Serif" font-size="10.00">mozilla::layers::ShadowLayersManager</text>
</a>
</g>
<!-- Node2&#45;&gt;Node1 -->
<g id="edge2" class="edge"><title>Node2&#45;&gt;Node1</title>
<path fill="none" stroke="midnightblue" d="M87.4952,-48.1906C86.9414,-39.1684 87.3257,-28.9941 88.6479,-21.5707"/>
<polygon fill="midnightblue" stroke="midnightblue" points="84.0431,-48.8143 88.6359,-58.3619 90.9995,-48.0341 84.0431,-48.8143"/>
</g>
<!-- Node2&#45;&gt;Node1 -->
<g id="edge4" class="edge"><title>Node2&#45;&gt;Node1</title>
<path fill="none" stroke="midnightblue" d="M100.505,-48.1906C101.059,-39.1684 100.674,-28.9941 99.3521,-21.5707"/>
<polygon fill="midnightblue" stroke="midnightblue" points="97.0005,-48.0341 99.3641,-58.3619 103.957,-48.8143 97.0005,-48.0341"/>
</g>
</g>
</svg>
