<?xml version="1.0" encoding="UTF-8" standalone="no"?>
<!DOCTYPE svg PUBLIC "-//W3C//DTD SVG 1.1//EN"
 "http://www.w3.org/Graphics/SVG/1.1/DTD/svg11.dtd">
<!-- Generated by graphviz version 2.26.3 (20100126.1600)
 -->
<!-- Title: G Pages: 1 -->
<!--zoomable 994 -->
<svg id="main" version="1.1" xmlns="http://www.w3.org/2000/svg" xmlns:xlink="http://www.w3.org/1999/xlink" xml:space="preserve" onload="init(evt)">
        <defs>
                <circle id="rim" cx="0" cy="0" r="7"/>
                <circle id="rim2" cx="0" cy="0" r="3.5"/>
                <g id="zoomPlus">
                        <use xlink:href="#rim" fill="#404040">
                                <set attributeName="fill" to="#808080" begin="zoomplus.mouseover" end="zoomplus.mouseout"/>
                        </use>
                        <path d="M-4,0h8M0,-4v8" fill="none" stroke="white" stroke-width="1.5" pointer-events="none"/>
                </g>
                <g id="zoomMin">
                        <use xlink:href="#rim" fill="#404040">
                                <set attributeName="fill" to="#808080" begin="zoomminus.mouseover" end="zoomminus.mouseout"/>
                        </use>
                        <path d="M-4,0h8" fill="none" stroke="white" stroke-width="1.5" pointer-events="none"/>
                </g>
                <g id="dirArrow">
                        <path fill="none" stroke="white" stroke-width="1.5" d="M0,-3.0v7 M-2.5,-0.5L0,-3.0L2.5,-0.5"/>
                </g>
               <g id="resetDef">
                       <use xlink:href="#rim2" fill="#404040">
                               <set attributeName="fill" to="#808080" begin="reset.mouseover" end="reset.mouseout"/>
                       </use>
               </g>
        </defs>

<script type="text/javascript">
var viewWidth = 1750;
var viewHeight = 994;
var sectionId = 'dynsection-6';
</script>
<script xlink:href="../../svgpan.js"/>
<svg id="graph" class="graph">
<g id="viewport">
<title>G</title>
<polygon fill="white" stroke="white" points="-4,5 -4,-989.812 1747,-989.812 1747,5 -4,5"/>
<!-- Node1 -->
<g id="node1" class="node"><title>Node1</title>
<polygon fill="#bfbfbf" stroke="black" points="0.5,-483.418 0.5,-504.418 267.5,-504.418 267.5,-483.418 0.5,-483.418"/>
<text text-anchor="middle" x="134" y="-491.418" font-family="Helvetica,sans-Serif" font-size="10.00">gaiatest.apps.base.Base.wait_for_element_not_displayed</text>
</g>
<!-- Node2 -->
<g id="node3" class="node"><title>Node2</title>
<a xlink:href="../../d9/d86/classgaiatest_1_1apps_1_1phone_1_1regions_1_1call__log_1_1_call_log.html#a25029c345933be236d2fde292064aa93" target="_top" xlink:title="gaiatest.apps.phone.regions.call_log.CallLog.__init__">
<polygon fill="white" stroke="black" points="407,-961.418 407,-982.418 655,-982.418 655,-961.418 407,-961.418"/>
<text text-anchor="middle" x="531" y="-969.418" font-family="Helvetica,sans-Serif" font-size="10.00">gaiatest.apps.phone.regions.call_log.CallLog.__init__</text>
</a>
</g>
<!-- Node1&#45;&gt;Node2 -->
<g id="edge2" class="edge"><title>Node1&#45;&gt;Node2</title>
<path fill="none" stroke="midnightblue" d="M138.58,-514.489C157.179,-596.073 229.61,-895.176 304,-951.918 352.599,-988.989 425.218,-988.599 475.163,-982.462"/>
<polygon fill="midnightblue" stroke="midnightblue" points="141.935,-513.453 136.319,-504.469 135.106,-514.994 141.935,-513.453"/>
</g>
<!-- Node3 -->
<g id="node5" class="node"><title>Node3</title>
<a xlink:href="../../dd/d66/classtest__endurance__airplane__mode_1_1_test_endurance_airplane_mode.html#a5be9c1c0383dd01902cb5df4c1e0a88e" target="_top" xlink:title="test_endurance_airplane_mode.TestEnduranceAirplaneMode.airplane_mode">
<polygon fill="white" stroke="black" points="868,-963.418 868,-984.418 1214,-984.418 1214,-963.418 868,-963.418"/>
<text text-anchor="middle" x="1041" y="-971.418" font-family="Helvetica,sans-Serif" font-size="10.00">test_endurance_airplane_mode.TestEnduranceAirplaneMode.airplane_mode</text>
</a>
</g>
<!-- Node1&#45;&gt;Node3 -->
<g id="edge4" class="edge"><title>Node1&#45;&gt;Node3</title>
<path fill="none" stroke="midnightblue" d="M136.127,-514.758C144.064,-580.558 178.309,-784.789 304,-873.918 386.585,-932.481 667.867,-865.812 758,-911.918 779.888,-923.115 772.097,-942.752 794,-953.918 816.71,-965.497 842.138,-972.787 867.811,-977.153"/>
<polygon fill="midnightblue" stroke="midnightblue" points="139.564,-514.004 134.967,-504.458 132.608,-514.787 139.564,-514.004"/>
</g>
<!-- Node5 -->
<g id="node9" class="node"><title>Node5</title>
<a xlink:href="../../d7/da3/classtest__marketplace__search__and__install__app_1_1_test_search_marketplace_and_install_app.html#a00c8405f5d12e846aafbfa9cf2c7779d" target="_top" xlink:title="test_marketplace_search_and_install_app.TestSearchMarketplaceAndInstallApp.confirm_installation">
<polygon fill="white" stroke="black" points="304.5,-843.418 304.5,-864.418 757.5,-864.418 757.5,-843.418 304.5,-843.418"/>
<text text-anchor="middle" x="531" y="-851.418" font-family="Helvetica,sans-Serif" font-size="10.00">test_marketplace_search_and_install_app.TestSearchMarketplaceAndInstallApp.confirm_installation</text>
</a>
</g>
<!-- Node1&#45;&gt;Node5 -->
<g id="edge8" class="edge"><title>Node1&#45;&gt;Node5</title>
<path fill="none" stroke="midnightblue" d="M137.259,-514.589C148.088,-575.616 188.945,-755.625 304,-833.918 350.118,-865.301 414.297,-868.181 462.651,-864.436"/>
<polygon fill="midnightblue" stroke="midnightblue" points="140.694,-513.906 135.576,-504.629 133.792,-515.073 140.694,-513.906"/>
</g>
<!-- Node7 -->
<g id="node13" class="node"><title>Node7</title>
<a xlink:href="../../d6/de4/classgaiatest_1_1gaia__test_1_1_gaia_test_case.html#a98b0b4f668164fe483646e7d44e20ec5" target="_top" xlink:title="gaiatest.gaia_test.GaiaTestCase.install_marketplace">
<polygon fill="white" stroke="black" points="407.5,-803.418 407.5,-824.418 654.5,-824.418 654.5,-803.418 407.5,-803.418"/>
<text text-anchor="middle" x="531" y="-811.418" font-family="Helvetica,sans-Serif" font-size="10.00">gaiatest.gaia_test.GaiaTestCase.install_marketplace</text>
</a>
</g>
<!-- Node1&#45;&gt;Node7 -->
<g id="edge12" class="edge"><title>Node1&#45;&gt;Node7</title>
<path fill="none" stroke="midnightblue" d="M138.618,-514.399C152.445,-570.425 199.21,-726.52 304,-793.918 346.924,-821.526 404.229,-826.389 450.522,-824.419"/>
<polygon fill="midnightblue" stroke="midnightblue" points="142.003,-513.503 136.285,-504.584 135.193,-515.122 142.003,-513.503"/>
</g>
<!-- Node13 -->
<g id="node25" class="node"><title>Node13</title>
<a xlink:href="../../d4/d23/classgaiatest_1_1apps_1_1videoplayer_1_1app_1_1_video_player.html#a36b04d03771e0b3ad3fc3a309537db39" target="_top" xlink:title="gaiatest.apps.videoplayer.app.VideoPlayer.launch">
<polygon fill="white" stroke="black" points="414.5,-763.418 414.5,-784.418 647.5,-784.418 647.5,-763.418 414.5,-763.418"/>
<text text-anchor="middle" x="531" y="-771.418" font-family="Helvetica,sans-Serif" font-size="10.00">gaiatest.apps.videoplayer.app.VideoPlayer.launch</text>
</a>
</g>
<!-- Node1&#45;&gt;Node13 -->
<g id="edge24" class="edge"><title>Node1&#45;&gt;Node13</title>
<path fill="none" stroke="midnightblue" d="M140.387,-514.373C157.456,-565.205 209.395,-697.235 304,-753.918 336.664,-773.49 376.855,-781.171 414.295,-783.137"/>
<polygon fill="midnightblue" stroke="midnightblue" points="143.614,-512.981 137.189,-504.557 136.958,-515.149 143.614,-512.981"/>
</g>
<!-- Node15 -->
<g id="node29" class="node"><title>Node15</title>
<a xlink:href="../../d2/dcd/classgaiatest_1_1apps_1_1contacts_1_1app_1_1_contacts.html#a2ab391e4fbef4a022bebd06d6f88a8d5" target="_top" xlink:title="gaiatest.apps.contacts.app.Contacts.launch">
<polygon fill="white" stroke="black" points="426.5,-723.418 426.5,-744.418 635.5,-744.418 635.5,-723.418 426.5,-723.418"/>
<text text-anchor="middle" x="531" y="-731.418" font-family="Helvetica,sans-Serif" font-size="10.00">gaiatest.apps.contacts.app.Contacts.launch</text>
</a>
</g>
<!-- Node1&#45;&gt;Node15 -->
<g id="edge28" class="edge"><title>Node1&#45;&gt;Node15</title>
<path fill="none" stroke="midnightblue" d="M142.566,-513.982C162.964,-558.955 219.133,-667.512 304,-713.918 340.795,-734.038 386.037,-740.925 426.424,-742.088"/>
<polygon fill="midnightblue" stroke="midnightblue" points="145.702,-512.418 138.454,-504.69 139.3,-515.251 145.702,-512.418"/>
</g>
<!-- Node17 -->
<g id="node34" class="node"><title>Node17</title>
<a xlink:href="../../dc/d49/classgaiatest_1_1apps_1_1gallery_1_1app_1_1_gallery.html#a91b053f86e70a6d55d4aa2d04429bd01" target="_top" xlink:title="gaiatest.apps.gallery.app.Gallery.launch">
<polygon fill="white" stroke="black" points="435.5,-683.418 435.5,-704.418 626.5,-704.418 626.5,-683.418 435.5,-683.418"/>
<text text-anchor="middle" x="531" y="-691.418" font-family="Helvetica,sans-Serif" font-size="10.00">gaiatest.apps.gallery.app.Gallery.launch</text>
</a>
</g>
<!-- Node1&#45;&gt;Node17 -->
<g id="edge34" class="edge"><title>Node1&#45;&gt;Node17</title>
<path fill="none" stroke="midnightblue" d="M145.346,-513.227C169.146,-551.689 228.39,-637.309 304,-673.918 344.237,-693.401 393.181,-699.581 435.305,-700.406"/>
<polygon fill="midnightblue" stroke="midnightblue" points="148.247,-511.261 140.071,-504.523 142.261,-514.889 148.247,-511.261"/>
</g>
<!-- Node18 -->
<g id="node38" class="node"><title>Node18</title>
<a xlink:href="../../da/d23/classgaiatest_1_1apps_1_1marketplace_1_1app_1_1_marketplace.html#a368163c863e32c130c49fd422d03eb57" target="_top" xlink:title="gaiatest.apps.marketplace.app.Marketplace.launch">
<polygon fill="white" stroke="black" points="412,-643.418 412,-664.418 650,-664.418 650,-643.418 412,-643.418"/>
<text text-anchor="middle" x="531" y="-651.418" font-family="Helvetica,sans-Serif" font-size="10.00">gaiatest.apps.marketplace.app.Marketplace.launch</text>
</a>
</g>
<!-- Node1&#45;&gt;Node18 -->
<g id="edge40" class="edge"><title>Node1&#45;&gt;Node18</title>
<path fill="none" stroke="midnightblue" d="M149.4,-512.394C176.785,-543.756 237.369,-606.654 304,-633.918 337.503,-647.628 376.056,-654.092 411.769,-656.739"/>
<polygon fill="midnightblue" stroke="midnightblue" points="151.746,-509.753 142.58,-504.44 146.433,-514.31 151.746,-509.753"/>
</g>
<!-- Node19 -->
<g id="node42" class="node"><title>Node19</title>
<a xlink:href="../../d2/d3c/classtest__endurance__lock__screen_1_1_test_endurance_lock_screen.html#a41234de58d4dd9c94021ba693856342e" target="_top" xlink:title="test_endurance_lock_screen.TestEnduranceLockScreen.lock_screen">
<polygon fill="white" stroke="black" points="372.5,-603.418 372.5,-624.418 689.5,-624.418 689.5,-603.418 372.5,-603.418"/>
<text text-anchor="middle" x="531" y="-611.418" font-family="Helvetica,sans-Serif" font-size="10.00">test_endurance_lock_screen.TestEnduranceLockScreen.lock_screen</text>
</a>
</g>
<!-- Node1&#45;&gt;Node19 -->
<g id="edge46" class="edge"><title>Node1&#45;&gt;Node19</title>
<path fill="none" stroke="midnightblue" d="M155.359,-510.783C186.178,-534.069 245.824,-575.296 304,-593.918 325.665,-600.854 349.05,-605.683 372.289,-609.001"/>
<polygon fill="midnightblue" stroke="midnightblue" points="157.169,-507.761 147.104,-504.451 152.908,-513.315 157.169,-507.761"/>
</g>
<!-- Node21 -->
<g id="node46" class="node"><title>Node21</title>
<a xlink:href="../../de/daa/classtest__endurance__open__close__email_1_1_test_endurance_browser_wifi.html#af849ab029ba199e11032c1f02b885fb1" target="_top" xlink:title="test_endurance_open_close_email.TestEnduranceBrowserWifi.open_close_email">
<polygon fill="white" stroke="black" points="346,-563.418 346,-584.418 716,-584.418 716,-563.418 346,-563.418"/>
<text text-anchor="middle" x="531" y="-571.418" font-family="Helvetica,sans-Serif" font-size="10.00">test_endurance_open_close_email.TestEnduranceBrowserWifi.open_close_email</text>
</a>
</g>
<!-- Node1&#45;&gt;Node21 -->
<g id="edge50" class="edge"><title>Node1&#45;&gt;Node21</title>
<path fill="none" stroke="midnightblue" d="M167.312,-508.496C201.071,-522.589 255.143,-543.322 304,-553.918 321.785,-557.776 340.508,-560.893 359.257,-563.411"/>
<polygon fill="midnightblue" stroke="midnightblue" points="168.507,-505.201 157.934,-504.532 165.782,-511.649 168.507,-505.201"/>
</g>
<!-- Node23 -->
<g id="node50" class="node"><title>Node23</title>
<a xlink:href="../../d4/dc1/classgaiatest_1_1apps_1_1camera_1_1app_1_1_camera.html#aaff1ffcda61c0da32b0251b14de773ba" target="_top" xlink:title="gaiatest.apps.camera.app.Camera.record_video">
<polygon fill="white" stroke="black" points="418.5,-523.418 418.5,-544.418 643.5,-544.418 643.5,-523.418 418.5,-523.418"/>
<text text-anchor="middle" x="531" y="-531.418" font-family="Helvetica,sans-Serif" font-size="10.00">gaiatest.apps.camera.app.Camera.record_video</text>
</a>
</g>
<!-- Node1&#45;&gt;Node23 -->
<g id="edge54" class="edge"><title>Node1&#45;&gt;Node23</title>
<path fill="none" stroke="midnightblue" d="M229.094,-505.603C253.493,-508.464 279.707,-511.42 304,-513.918 341.19,-517.744 381.856,-521.47 418.363,-524.649"/>
<polygon fill="midnightblue" stroke="midnightblue" points="229.463,-502.122 219.122,-504.427 228.644,-509.074 229.463,-502.122"/>
</g>
<!-- Node24 -->
<g id="node52" class="node"><title>Node24</title>
<a xlink:href="../../de/d7b/classgaiatest_1_1apps_1_1videoplayer_1_1regions_1_1fullscreen__video_1_1_fullscreen_video.html#a7295cbb1bceb0034e527787ddffb9d59" target="_top" xlink:title="gaiatest.apps.videoplayer.regions.fullscreen_video.FullscreenVideo.switch_to_video_frame">
<polygon fill="white" stroke="black" points="325,-483.418 325,-504.418 737,-504.418 737,-483.418 325,-483.418"/>
<text text-anchor="middle" x="531" y="-491.418" font-family="Helvetica,sans-Serif" font-size="10.00">gaiatest.apps.videoplayer.regions.fullscreen_video.FullscreenVideo.switch_to_video_frame</text>
</a>
</g>
<!-- Node1&#45;&gt;Node24 -->
<g id="edge56" class="edge"><title>Node1&#45;&gt;Node24</title>
<path fill="none" stroke="midnightblue" d="M277.607,-493.918C292.983,-493.918 308.835,-493.918 324.754,-493.918"/>
<polygon fill="midnightblue" stroke="midnightblue" points="277.576,-490.419 267.576,-493.918 277.576,-497.419 277.576,-490.419"/>
</g>
<!-- Node25 -->
<g id="node54" class="node"><title>Node25</title>
<a xlink:href="../../d3/dd5/classgaiatest_1_1apps_1_1browser_1_1app_1_1_browser.html#a04cca4f927c45f54a772c0ea9b2ac7f3" target="_top" xlink:title="gaiatest.apps.browser.app.Browser.tap_add_bookmark_to_home_screen_dialog_button">
<polygon fill="white" stroke="black" points="333,-443.418 333,-464.418 729,-464.418 729,-443.418 333,-443.418"/>
<text text-anchor="middle" x="531" y="-451.418" font-family="Helvetica,sans-Serif" font-size="10.00">gaiatest.apps.browser.app.Browser.tap_add_bookmark_to_home_screen_dialog_button</text>
</a>
</g>
<!-- Node1&#45;&gt;Node25 -->
<g id="edge58" class="edge"><title>Node1&#45;&gt;Node25</title>
<path fill="none" stroke="midnightblue" d="M229.094,-482.234C253.493,-479.372 279.707,-476.417 304,-473.918 336.468,-470.579 371.584,-467.315 404.27,-464.424"/>
<polygon fill="midnightblue" stroke="midnightblue" points="228.644,-478.763 219.122,-483.41 229.463,-485.714 228.644,-478.763"/>
</g>
<!-- Node26 -->
<g id="node56" class="node"><title>Node26</title>
<a xlink:href="../../d4/d05/classgaiatest_1_1apps_1_1gallery_1_1regions_1_1fullscreen__image_1_1_fullscreen_image.html#a6e5688c5354397f017d74623a0da05bc" target="_top" xlink:title="gaiatest.apps.gallery.regions.fullscreen_image.FullscreenImage.tap_confirm_deletion_button">
<polygon fill="white" stroke="black" points="322,-403.418 322,-424.418 740,-424.418 740,-403.418 322,-403.418"/>
<text text-anchor="middle" x="531" y="-411.418" font-family="Helvetica,sans-Serif" font-size="10.00">gaiatest.apps.gallery.regions.fullscreen_image.FullscreenImage.tap_confirm_deletion_button</text>
</a>
</g>
<!-- Node1&#45;&gt;Node26 -->
<g id="edge60" class="edge"><title>Node1&#45;&gt;Node26</title>
<path fill="none" stroke="midnightblue" d="M167.312,-479.341C201.071,-465.247 255.143,-444.515 304,-433.918 321.785,-430.061 340.508,-426.944 359.257,-424.426"/>
<polygon fill="midnightblue" stroke="midnightblue" points="165.782,-476.188 157.934,-483.305 168.507,-482.636 165.782,-476.188"/>
</g>
<!-- Node27 -->
<g id="node58" class="node"><title>Node27</title>
<a xlink:href="../../d4/dd9/classgaiatest_1_1apps_1_1persona_1_1app_1_1_persona.html#ab930c87f6e4b208d9b3a13555c0163cf" target="_top" xlink:title="gaiatest.apps.persona.app.Persona.tap_continue">
<polygon fill="white" stroke="black" points="416.5,-363.418 416.5,-384.418 645.5,-384.418 645.5,-363.418 416.5,-363.418"/>
<text text-anchor="middle" x="531" y="-371.418" font-family="Helvetica,sans-Serif" font-size="10.00">gaiatest.apps.persona.app.Persona.tap_continue</text>
</a>
</g>
<!-- Node1&#45;&gt;Node27 -->
<g id="edge62" class="edge"><title>Node1&#45;&gt;Node27</title>
<path fill="none" stroke="midnightblue" d="M155.359,-477.054C186.178,-453.768 245.824,-412.541 304,-393.918 339.607,-382.52 379.858,-376.812 416.472,-374.146"/>
<polygon fill="midnightblue" stroke="midnightblue" points="152.908,-474.522 147.104,-483.386 157.169,-480.076 152.908,-474.522"/>
</g>
<!-- Node29 -->
<g id="node62" class="node"><title>Node29</title>
<a xlink:href="../../db/d53/classgaiatest_1_1apps_1_1contacts_1_1regions_1_1settings__form_1_1_settings_form.html#a869339e47a76a2c857dd62f4de5f1765" target="_top" xlink:title="gaiatest.apps.contacts.regions.settings_form.SettingsForm.tap_import_from_sim">
<polygon fill="white" stroke="black" points="347,-323.418 347,-344.418 715,-344.418 715,-323.418 347,-323.418"/>
<text text-anchor="middle" x="531" y="-331.418" font-family="Helvetica,sans-Serif" font-size="10.00">gaiatest.apps.contacts.regions.settings_form.SettingsForm.tap_import_from_sim</text>
</a>
</g>
<!-- Node1&#45;&gt;Node29 -->
<g id="edge66" class="edge"><title>Node1&#45;&gt;Node29</title>
<path fill="none" stroke="midnightblue" d="M149.4,-475.443C176.785,-444.081 237.369,-381.183 304,-353.918 317.639,-348.337 332.116,-343.957 346.896,-340.546"/>
<polygon fill="midnightblue" stroke="midnightblue" points="146.433,-473.527 142.58,-483.396 151.746,-478.084 146.433,-473.527"/>
</g>
<!-- Node30 -->
<g id="node64" class="node"><title>Node30</title>
<a xlink:href="../../d4/d05/classgaiatest_1_1apps_1_1gallery_1_1regions_1_1fullscreen__image_1_1_fullscreen_image.html#a51cfa324cd5673b9aeb64f3748b8a0e6" target="_top" xlink:title="gaiatest.apps.gallery.regions.fullscreen_image.FullscreenImage.tap_tile_view_button">
<polygon fill="white" stroke="black" points="338.5,-283.418 338.5,-304.418 723.5,-304.418 723.5,-283.418 338.5,-283.418"/>
<text text-anchor="middle" x="531" y="-291.418" font-family="Helvetica,sans-Serif" font-size="10.00">gaiatest.apps.gallery.regions.fullscreen_image.FullscreenImage.tap_tile_view_button</text>
</a>
</g>
<!-- Node1&#45;&gt;Node30 -->
<g id="edge68" class="edge"><title>Node1&#45;&gt;Node30</title>
<path fill="none" stroke="midnightblue" d="M145.346,-474.61C169.146,-436.148 228.39,-350.528 304,-313.918 314.949,-308.617 326.544,-304.3 338.47,-300.809"/>
<polygon fill="midnightblue" stroke="midnightblue" points="142.261,-472.948 140.071,-483.314 148.247,-476.576 142.261,-472.948"/>
</g>
<!-- Node31 -->
<g id="node66" class="node"><title>Node31</title>
<a xlink:href="../../d7/d97/classtest__homescreen__delete__app_1_1_test_delete_app.html#a4d43055a90adade6e6a17c8f4d4abe0b" target="_top" xlink:title="test_homescreen_delete_app.TestDeleteApp.test_delete_app">
<polygon fill="white" stroke="black" points="389,-243.418 389,-264.418 673,-264.418 673,-243.418 389,-243.418"/>
<text text-anchor="middle" x="531" y="-251.418" font-family="Helvetica,sans-Serif" font-size="10.00">test_homescreen_delete_app.TestDeleteApp.test_delete_app</text>
</a>
</g>
<!-- Node1&#45;&gt;Node31 -->
<g id="edge70" class="edge"><title>Node1&#45;&gt;Node31</title>
<path fill="none" stroke="midnightblue" d="M142.566,-473.855C162.964,-428.882 219.133,-320.325 304,-273.918 329.687,-259.873 359.491,-252.276 388.886,-248.573"/>
<polygon fill="midnightblue" stroke="midnightblue" points="139.3,-472.586 138.454,-483.147 145.702,-475.419 139.3,-472.586"/>
</g>
<!-- Node32 -->
<g id="node68" class="node"><title>Node32</title>
<a xlink:href="../../dd/d66/classtest__endurance__airplane__mode_1_1_test_endurance_airplane_mode.html#afeccb0008835e81e22cfb65ea8f36e86" target="_top" xlink:title="test_endurance_airplane_mode.TestEnduranceAirplaneMode.verify_cell">
<polygon fill="white" stroke="black" points="367.5,-921.418 367.5,-942.418 694.5,-942.418 694.5,-921.418 367.5,-921.418"/>
<text text-anchor="middle" x="531" y="-929.418" font-family="Helvetica,sans-Serif" font-size="10.00">test_endurance_airplane_mode.TestEnduranceAirplaneMode.verify_cell</text>
</a>
</g>
<!-- Node1&#45;&gt;Node32 -->
<g id="edge72" class="edge"><title>Node1&#45;&gt;Node32</title>
<path fill="none" stroke="midnightblue" d="M135.431,-514.565C141.414,-583.45 170.766,-806.681 304,-906.918 322.534,-920.863 344.452,-929.739 367.238,-935.137"/>
<polygon fill="midnightblue" stroke="midnightblue" points="138.916,-514.235 134.636,-504.544 131.938,-514.789 138.916,-514.235"/>
</g>
<!-- Node33 -->
<g id="node71" class="node"><title>Node33</title>
<a xlink:href="../../dd/daa/classtest__endurance__video__playback_1_1_test_endurance_video_playback.html#aaa89494ac7b7adc5d027a658ebb93b68" target="_top" xlink:title="test_endurance_video_playback.TestEnduranceVideoPlayback.video_playback">
<polygon fill="white" stroke="black" points="350.5,-203.418 350.5,-224.418 711.5,-224.418 711.5,-203.418 350.5,-203.418"/>
<text text-anchor="middle" x="531" y="-211.418" font-family="Helvetica,sans-Serif" font-size="10.00">test_endurance_video_playback.TestEnduranceVideoPlayback.video_playback</text>
</a>
</g>
<!-- Node1&#45;&gt;Node33 -->
<g id="edge76" class="edge"><title>Node1&#45;&gt;Node33</title>
<path fill="none" stroke="midnightblue" d="M140.387,-473.464C157.456,-422.632 209.395,-290.602 304,-233.918 318.338,-225.327 334.127,-219.027 350.497,-214.496"/>
<polygon fill="midnightblue" stroke="midnightblue" points="136.958,-472.688 137.189,-483.28 143.614,-474.856 136.958,-472.688"/>
</g>
<!-- Node35 -->
<g id="node75" class="node"><title>Node35</title>
<a xlink:href="../../dd/de6/classgaiatest_1_1apps_1_1clock_1_1app_1_1_clock.html#a07ce7ef99090eafad6894579c1ef95ef" target="_top" xlink:title="gaiatest.apps.clock.app.Clock.wait_for_banner_not_visible">
<polygon fill="white" stroke="black" points="395,-163.418 395,-184.418 667,-184.418 667,-163.418 395,-163.418"/>
<text text-anchor="middle" x="531" y="-171.418" font-family="Helvetica,sans-Serif" font-size="10.00">gaiatest.apps.clock.app.Clock.wait_for_banner_not_visible</text>
</a>
</g>
<!-- Node1&#45;&gt;Node35 -->
<g id="edge80" class="edge"><title>Node1&#45;&gt;Node35</title>
<path fill="none" stroke="midnightblue" d="M138.618,-473.438C152.445,-417.412 199.21,-261.317 304,-193.918 346.924,-166.311 404.229,-161.448 450.522,-163.418"/>
<polygon fill="midnightblue" stroke="midnightblue" points="135.193,-472.715 136.285,-483.253 142.003,-474.334 135.193,-472.715"/>
</g>
<!-- Node36 -->
<g id="node77" class="node"><title>Node36</title>
<a xlink:href="../../df/da3/classgaiatest_1_1apps_1_1system_1_1regions_1_1cards__view_1_1_cards_view.html#a8a6c1aa67a261b4df33414f567392d18" target="_top" xlink:title="gaiatest.apps.system.regions.cards_view.CardsView.wait_for_cards_view_not_displayed">
<polygon fill="white" stroke="black" points="328,-123.418 328,-144.418 734,-144.418 734,-123.418 328,-123.418"/>
<text text-anchor="middle" x="531" y="-131.418" font-family="Helvetica,sans-Serif" font-size="10.00">gaiatest.apps.system.regions.cards_view.CardsView.wait_for_cards_view_not_displayed</text>
</a>
</g>
<!-- Node1&#45;&gt;Node36 -->
<g id="edge82" class="edge"><title>Node1&#45;&gt;Node36</title>
<path fill="none" stroke="midnightblue" d="M137.259,-473.248C148.088,-412.221 188.945,-232.212 304,-153.918 350.118,-122.536 414.297,-119.656 462.651,-123.401"/>
<polygon fill="midnightblue" stroke="midnightblue" points="133.792,-472.764 135.576,-483.208 140.694,-473.931 133.792,-472.764"/>
</g>
<!-- Node38 -->
<g id="node81" class="node"><title>Node38</title>
<a xlink:href="../../d1/dd8/classgaiatest_1_1apps_1_1email_1_1app_1_1_email.html#ab95cc28b1b41014627083a965b187db6" target="_top" xlink:title="gaiatest.apps.email.app.Email.wait_for_emails_to_sync">
<polygon fill="white" stroke="black" points="401.5,-83.4184 401.5,-104.418 660.5,-104.418 660.5,-83.4184 401.5,-83.4184"/>
<text text-anchor="middle" x="531" y="-91.4184" font-family="Helvetica,sans-Serif" font-size="10.00">gaiatest.apps.email.app.Email.wait_for_emails_to_sync</text>
</a>
</g>
<!-- Node1&#45;&gt;Node38 -->
<g id="edge86" class="edge"><title>Node1&#45;&gt;Node38</title>
<path fill="none" stroke="midnightblue" d="M136.143,-473.101C144.129,-407.371 178.504,-203.323 304,-113.918 351.527,-80.0597 419.645,-78.5783 468.848,-83.4048"/>
<polygon fill="midnightblue" stroke="midnightblue" points="132.625,-473.06 134.976,-483.391 139.581,-473.849 132.625,-473.06"/>
</g>
<!-- Node40 -->
<g id="node85" class="node"><title>Node40</title>
<a xlink:href="../../da/d23/classgaiatest_1_1apps_1_1marketplace_1_1app_1_1_marketplace.html#af96576ad0102ad88e1da5872444fe32c" target="_top" xlink:title="gaiatest.apps.marketplace.app.Marketplace.wait_for_notification_message_not_displayed">
<polygon fill="white" stroke="black" points="327.5,-43.4184 327.5,-64.4184 734.5,-64.4184 734.5,-43.4184 327.5,-43.4184"/>
<text text-anchor="middle" x="531" y="-51.4184" font-family="Helvetica,sans-Serif" font-size="10.00">gaiatest.apps.marketplace.app.Marketplace.wait_for_notification_message_not_displayed</text>
</a>
</g>
<!-- Node1&#45;&gt;Node40 -->
<g id="edge90" class="edge"><title>Node1&#45;&gt;Node40</title>
<path fill="none" stroke="midnightblue" d="M135.221,-472.82C140.537,-402.445 168.027,-174.531 304,-73.9184 352.181,-38.267 422.836,-37.8079 472.491,-43.3737"/>
<polygon fill="midnightblue" stroke="midnightblue" points="131.711,-472.845 134.524,-483.059 138.695,-473.32 131.711,-472.845"/>
</g>
<!-- Node41 -->
<g id="node87" class="node"><title>Node41</title>
<a xlink:href="../../d4/dc1/classgaiatest_1_1apps_1_1camera_1_1app_1_1_camera.html#a9def470a9273f9b3c175aeb5aef2e29f" target="_top" xlink:title="gaiatest.apps.camera.app.Camera.wait_for_video_timer_not_visible">
<polygon fill="white" stroke="black" points="375.5,-3.41845 375.5,-24.4184 686.5,-24.4184 686.5,-3.41845 375.5,-3.41845"/>
<text text-anchor="middle" x="531" y="-11.4184" font-family="Helvetica,sans-Serif" font-size="10.00">gaiatest.apps.camera.app.Camera.wait_for_video_timer_not_visible</text>
</a>
</g>
<!-- Node1&#45;&gt;Node41 -->
<g id="edge92" class="edge"><title>Node1&#45;&gt;Node41</title>
<path fill="none" stroke="midnightblue" d="M138.566,-473.259C157.111,-391.325 229.365,-90.932 304,-33.9184 352.573,3.1866 425.197,2.78932 475.151,-3.35862"/>
<polygon fill="midnightblue" stroke="midnightblue" points="135.083,-472.799 136.311,-483.322 141.913,-474.33 135.083,-472.799"/>
</g>
<!-- Node4 -->
<g id="node7" class="node"><title>Node4</title>
<a xlink:href="../../dd/d66/classtest__endurance__airplane__mode_1_1_test_endurance_airplane_mode.html#abe2b2f381f910746d32f17669e69110d" target="_top" xlink:title="test_endurance_airplane_mode.TestEnduranceAirplaneMode.test_endurance_airplane_mode">
<polygon fill="white" stroke="black" points="1324,-963.418 1324,-984.418 1742,-984.418 1742,-963.418 1324,-963.418"/>
<text text-anchor="middle" x="1533" y="-971.418" font-family="Helvetica,sans-Serif" font-size="10.00">test_endurance_airplane_mode.TestEnduranceAirplaneMode.test_endurance_airplane_mode</text>
</a>
</g>
<!-- Node3&#45;&gt;Node4 -->
<g id="edge6" class="edge"><title>Node3&#45;&gt;Node4</title>
<path fill="none" stroke="midnightblue" d="M1224.13,-973.918C1256.59,-973.918 1290.61,-973.918 1323.72,-973.918"/>
<polygon fill="midnightblue" stroke="midnightblue" points="1224.11,-970.419 1214.11,-973.918 1224.11,-977.419 1224.11,-970.419"/>
</g>
<!-- Node6 -->
<g id="node11" class="node"><title>Node6</title>
<a xlink:href="../../d7/da3/classtest__marketplace__search__and__install__app_1_1_test_search_marketplace_and_install_app.html#a8d6eb7f0c6fc15df240224a2ba73e4c9" target="_top" xlink:title="test_marketplace_search_and_install_app.TestSearchMarketplaceAndInstallApp.test_search_and_install_app">
<polygon fill="white" stroke="black" points="794.5,-923.418 794.5,-944.418 1287.5,-944.418 1287.5,-923.418 794.5,-923.418"/>
<text text-anchor="middle" x="1041" y="-931.418" font-family="Helvetica,sans-Serif" font-size="10.00">test_marketplace_search_and_install_app.TestSearchMarketplaceAndInstallApp.test_search_and_install_app</text>
</a>
</g>
<!-- Node5&#45;&gt;Node6 -->
<g id="edge10" class="edge"><title>Node5&#45;&gt;Node6</title>
<path fill="none" stroke="midnightblue" d="M728.485,-867.43C738.653,-870.666 748.556,-874.467 758,-878.918 778.185,-888.434 773.68,-904.696 794,-913.918 801.835,-917.475 809.954,-920.597 818.264,-923.332"/>
<polygon fill="midnightblue" stroke="midnightblue" points="729.245,-864.004 718.661,-864.497 727.242,-870.712 729.245,-864.004"/>
</g>
<!-- Node8 -->
<g id="node15" class="node"><title>Node8</title>
<a xlink:href="../../d1/da8/classtest__marketplace__search__for__paid__apps_1_1_test_search_marketplace_paid_app.html#a5d2325c9821b22c8d31d0b0b91af1759" target="_top" xlink:title="test_marketplace_search_for_paid_apps.TestSearchMarketplacePaidApp.setUp">
<polygon fill="white" stroke="black" points="858.5,-883.418 858.5,-904.418 1223.5,-904.418 1223.5,-883.418 858.5,-883.418"/>
<text text-anchor="middle" x="1041" y="-891.418" font-family="Helvetica,sans-Serif" font-size="10.00">test_marketplace_search_for_paid_apps.TestSearchMarketplacePaidApp.setUp</text>
</a>
</g>
<!-- Node7&#45;&gt;Node8 -->
<g id="edge14" class="edge"><title>Node7&#45;&gt;Node8</title>
<path fill="none" stroke="midnightblue" d="M664.829,-809.2C696.641,-812.475 729.572,-819.73 758,-833.918 779.4,-844.599 772.562,-863.313 794,-873.918 813.956,-883.79 835.937,-890.488 858.309,-894.892"/>
<polygon fill="midnightblue" stroke="midnightblue" points="664.821,-805.686 654.547,-808.273 664.193,-812.657 664.821,-805.686"/>
</g>
<!-- Node9 -->
<g id="node17" class="node"><title>Node9</title>
<a xlink:href="../../d7/da3/classtest__marketplace__search__and__install__app_1_1_test_search_marketplace_and_install_app.html#ae325f5d43c3cbe6cbfcc680abb557829" target="_top" xlink:title="test_marketplace_search_and_install_app.TestSearchMarketplaceAndInstallApp.setUp">
<polygon fill="white" stroke="black" points="843.5,-843.418 843.5,-864.418 1238.5,-864.418 1238.5,-843.418 843.5,-843.418"/>
<text text-anchor="middle" x="1041" y="-851.418" font-family="Helvetica,sans-Serif" font-size="10.00">test_marketplace_search_and_install_app.TestSearchMarketplaceAndInstallApp.setUp</text>
</a>
</g>
<!-- Node7&#45;&gt;Node9 -->
<g id="edge16" class="edge"><title>Node7&#45;&gt;Node9</title>
<path fill="none" stroke="midnightblue" d="M665.179,-824.442C739.732,-830.29 832.206,-837.542 906.767,-843.39"/>
<polygon fill="midnightblue" stroke="midnightblue" points="665.025,-820.92 654.782,-823.627 664.478,-827.898 665.025,-820.92"/>
</g>
<!-- Node10 -->
<g id="node19" class="node"><title>Node10</title>
<a xlink:href="../../d3/d50/classtest__marketplace__feedback__anonymous_1_1_test_marketplace_feedback.html#a093aef5a16a302cc3dc0f7c40aaa5184" target="_top" xlink:title="test_marketplace_feedback_anonymous.TestMarketplaceFeedback.setUp">
<polygon fill="white" stroke="black" points="871,-803.418 871,-824.418 1211,-824.418 1211,-803.418 871,-803.418"/>
<text text-anchor="middle" x="1041" y="-811.418" font-family="Helvetica,sans-Serif" font-size="10.00">test_marketplace_feedback_anonymous.TestMarketplaceFeedback.setUp</text>
</a>
</g>
<!-- Node7&#45;&gt;Node10 -->
<g id="edge18" class="edge"><title>Node7&#45;&gt;Node10</title>
<path fill="none" stroke="midnightblue" d="M665.17,-813.918C728.099,-813.918 803.797,-813.918 870.715,-813.918"/>
<polygon fill="midnightblue" stroke="midnightblue" points="664.782,-810.419 654.782,-813.918 664.782,-817.419 664.782,-810.419"/>
</g>
<!-- Node11 -->
<g id="node21" class="node"><title>Node11</title>
<a xlink:href="../../d3/deb/classtest__marketplace__change__region__anonymous_1_1_test_marketplace_change_region_anonymous.html#a141ab9871298e02431b6bb71dc8612b0" target="_top" xlink:title="test_marketplace_change_region_anonymous.TestMarketplaceChangeRegionAnonymous.setUp">
<polygon fill="white" stroke="black" points="822.5,-763.418 822.5,-784.418 1259.5,-784.418 1259.5,-763.418 822.5,-763.418"/>
<text text-anchor="middle" x="1041" y="-771.418" font-family="Helvetica,sans-Serif" font-size="10.00">test_marketplace_change_region_anonymous.TestMarketplaceChangeRegionAnonymous.setUp</text>
</a>
</g>
<!-- Node7&#45;&gt;Node11 -->
<g id="edge20" class="edge"><title>Node7&#45;&gt;Node11</title>
<path fill="none" stroke="midnightblue" d="M665.179,-803.395C739.732,-797.547 832.206,-790.294 906.767,-784.446"/>
<polygon fill="midnightblue" stroke="midnightblue" points="664.478,-799.939 654.782,-804.21 665.025,-806.917 664.478,-799.939"/>
</g>
<!-- Node12 -->
<g id="node23" class="node"><title>Node12</title>
<a xlink:href="../../d4/dc1/classtest__marketplace__without__connectivity_1_1_test_marketplace_without_connectivity.html#a6e2e7acb27a0dd6757dec70e64f071fd" target="_top" xlink:title="test_marketplace_without_connectivity.TestMarketplaceWithoutConnectivity.setUp">
<polygon fill="white" stroke="black" points="851,-723.418 851,-744.418 1231,-744.418 1231,-723.418 851,-723.418"/>
<text text-anchor="middle" x="1041" y="-731.418" font-family="Helvetica,sans-Serif" font-size="10.00">test_marketplace_without_connectivity.TestMarketplaceWithoutConnectivity.setUp</text>
</a>
</g>
<!-- Node7&#45;&gt;Node12 -->
<g id="edge22" class="edge"><title>Node7&#45;&gt;Node12</title>
<path fill="none" stroke="midnightblue" d="M664.829,-818.637C696.641,-815.362 729.572,-808.107 758,-793.918 779.4,-783.238 772.562,-764.523 794,-753.918 811.738,-745.143 831.077,-738.876 850.868,-734.499"/>
<polygon fill="midnightblue" stroke="midnightblue" points="664.193,-815.18 654.547,-819.564 664.821,-822.151 664.193,-815.18"/>
</g>
<!-- Node14 -->
<g id="node27" class="node"><title>Node14</title>
<a xlink:href="../../de/d19/classgaiatest_1_1apps_1_1cost__control_1_1app_1_1_cost_control.html#aba8b3acdc970a440f2f1a700d1393ea0" target="_top" xlink:title="gaiatest.apps.cost_control.app.CostControl.run_ftu_accepting_defaults">
<polygon fill="white" stroke="black" points="878,-683.418 878,-704.418 1204,-704.418 1204,-683.418 878,-683.418"/>
<text text-anchor="middle" x="1041" y="-691.418" font-family="Helvetica,sans-Serif" font-size="10.00">gaiatest.apps.cost_control.app.CostControl.run_ftu_accepting_defaults</text>
</a>
</g>
<!-- Node13&#45;&gt;Node14 -->
<g id="edge26" class="edge"><title>Node13&#45;&gt;Node14</title>
<path fill="none" stroke="midnightblue" d="M657.536,-779.321C691.566,-776.433 727.393,-769.195 758,-753.918 779.4,-743.238 772.562,-724.523 794,-713.918 819.74,-701.185 848.85,-693.732 877.822,-689.672"/>
<polygon fill="midnightblue" stroke="midnightblue" points="657.236,-775.833 647.518,-780.052 657.746,-782.815 657.236,-775.833"/>
</g>
<!-- Node15&#45;&gt;Node14 -->
<g id="edge32" class="edge"><title>Node15&#45;&gt;Node14</title>
<path fill="none" stroke="midnightblue" d="M646.013,-724.898C723.389,-718.829 825.684,-710.806 906.784,-704.445"/>
<polygon fill="midnightblue" stroke="midnightblue" points="645.441,-721.432 635.745,-725.703 645.988,-728.41 645.441,-721.432"/>
</g>
<!-- Node16 -->
<g id="node31" class="node"><title>Node16</title>
<a xlink:href="../../da/d23/classgaiatest_1_1apps_1_1marketplace_1_1app_1_1_marketplace.html#ad3135cd84885cc3fb73cc66d634e50f1" target="_top" xlink:title="gaiatest.apps.marketplace.app.Marketplace.login">
<polygon fill="white" stroke="black" points="926,-643.418 926,-664.418 1156,-664.418 1156,-643.418 926,-643.418"/>
<text text-anchor="middle" x="1041" y="-651.418" font-family="Helvetica,sans-Serif" font-size="10.00">gaiatest.apps.marketplace.app.Marketplace.login</text>
</a>
</g>
<!-- Node15&#45;&gt;Node16 -->
<g id="edge30" class="edge"><title>Node15&#45;&gt;Node16</title>
<path fill="none" stroke="midnightblue" d="M646.114,-740.136C683.427,-737.962 723.945,-730.915 758,-713.918 779.4,-703.238 772.562,-684.523 794,-673.918 834.201,-654.032 882.621,-647.025 925.899,-645.706"/>
<polygon fill="midnightblue" stroke="midnightblue" points="645.508,-736.661 635.683,-740.625 645.835,-743.653 645.508,-736.661"/>
</g>
<!-- Node17&#45;&gt;Node14 -->
<g id="edge38" class="edge"><title>Node17&#45;&gt;Node14</title>
<path fill="none" stroke="midnightblue" d="M636.73,-693.918C706.355,-693.918 798.894,-693.918 877.865,-693.918"/>
<polygon fill="midnightblue" stroke="midnightblue" points="636.628,-690.419 626.628,-693.918 636.628,-697.419 636.628,-690.419"/>
</g>
<!-- Node17&#45;&gt;Node16 -->
<g id="edge36" class="edge"><title>Node17&#45;&gt;Node16</title>
<path fill="none" stroke="midnightblue" d="M636.74,-685.625C721.064,-679.011 838.993,-669.762 925.725,-662.96"/>
<polygon fill="midnightblue" stroke="midnightblue" points="636.323,-682.147 626.628,-686.418 636.871,-689.126 636.323,-682.147"/>
</g>
<!-- Node18&#45;&gt;Node14 -->
<g id="edge44" class="edge"><title>Node18&#45;&gt;Node14</title>
<path fill="none" stroke="midnightblue" d="M660.28,-664.058C735.642,-669.969 830.544,-677.412 906.744,-683.389"/>
<polygon fill="midnightblue" stroke="midnightblue" points="660.493,-660.564 650.25,-663.271 659.946,-667.543 660.493,-660.564"/>
</g>
<!-- Node18&#45;&gt;Node16 -->
<g id="edge42" class="edge"><title>Node18&#45;&gt;Node16</title>
<path fill="none" stroke="midnightblue" d="M660.367,-653.918C742.203,-653.918 847.054,-653.918 925.98,-653.918"/>
<polygon fill="midnightblue" stroke="midnightblue" points="660.25,-650.419 650.25,-653.918 660.25,-657.419 660.25,-650.419"/>
</g>
<!-- Node20 -->
<g id="node44" class="node"><title>Node20</title>
<a xlink:href="../../d2/d3c/classtest__endurance__lock__screen_1_1_test_endurance_lock_screen.html#af93b6b51f0cbdcea50df74f931076e09" target="_top" xlink:title="test_endurance_lock_screen.TestEnduranceLockScreen.test_endurance_lock_screen">
<polygon fill="white" stroke="black" points="846.5,-603.418 846.5,-624.418 1235.5,-624.418 1235.5,-603.418 846.5,-603.418"/>
<text text-anchor="middle" x="1041" y="-611.418" font-family="Helvetica,sans-Serif" font-size="10.00">test_endurance_lock_screen.TestEnduranceLockScreen.test_endurance_lock_screen</text>
</a>
</g>
<!-- Node19&#45;&gt;Node20 -->
<g id="edge48" class="edge"><title>Node19&#45;&gt;Node20</title>
<path fill="none" stroke="midnightblue" d="M699.813,-613.918C746.673,-613.918 797.935,-613.918 846.153,-613.918"/>
<polygon fill="midnightblue" stroke="midnightblue" points="699.572,-610.419 689.572,-613.918 699.572,-617.419 699.572,-610.419"/>
</g>
<!-- Node22 -->
<g id="node48" class="node"><title>Node22</title>
<a xlink:href="../../de/daa/classtest__endurance__open__close__email_1_1_test_endurance_browser_wifi.html#a15b3f1a16d6a8ede3c764e21a0fcd300" target="_top" xlink:title="test_endurance_open_close_email.TestEnduranceBrowserWifi.test_endurance_open_close_email">
<polygon fill="white" stroke="black" points="820,-563.418 820,-584.418 1262,-584.418 1262,-563.418 820,-563.418"/>
<text text-anchor="middle" x="1041" y="-571.418" font-family="Helvetica,sans-Serif" font-size="10.00">test_endurance_open_close_email.TestEnduranceBrowserWifi.test_endurance_open_close_email</text>
</a>
</g>
<!-- Node21&#45;&gt;Node22 -->
<g id="edge52" class="edge"><title>Node21&#45;&gt;Node22</title>
<path fill="none" stroke="midnightblue" d="M726.499,-573.918C757.003,-573.918 788.71,-573.918 819.739,-573.918"/>
<polygon fill="midnightblue" stroke="midnightblue" points="726.204,-570.419 716.204,-573.918 726.203,-577.419 726.204,-570.419"/>
</g>
<!-- Node28 -->
<g id="node60" class="node"><title>Node28</title>
<a xlink:href="../../d4/dd9/classgaiatest_1_1apps_1_1persona_1_1app_1_1_persona.html#aa6498b263d7de1ab3436dfadcbd184e3" target="_top" xlink:title="gaiatest.apps.persona.app.Persona.login">
<polygon fill="white" stroke="black" points="944,-363.418 944,-384.418 1138,-384.418 1138,-363.418 944,-363.418"/>
<text text-anchor="middle" x="1041" y="-371.418" font-family="Helvetica,sans-Serif" font-size="10.00">gaiatest.apps.persona.app.Persona.login</text>
</a>
</g>
<!-- Node27&#45;&gt;Node28 -->
<g id="edge64" class="edge"><title>Node27&#45;&gt;Node28</title>
<path fill="none" stroke="midnightblue" d="M655.897,-373.918C744.611,-373.918 862.019,-373.918 943.779,-373.918"/>
<polygon fill="midnightblue" stroke="midnightblue" points="655.772,-370.419 645.772,-373.918 655.772,-377.419 655.772,-370.419"/>
</g>
<!-- Node32&#45;&gt;Node3 -->
<g id="edge74" class="edge"><title>Node32&#45;&gt;Node3</title>
<path fill="none" stroke="midnightblue" d="M665.833,-943.267C706.974,-946.711 752.341,-950.489 794,-953.918 831.732,-957.024 872.71,-960.358 910.243,-963.396"/>
<polygon fill="midnightblue" stroke="midnightblue" points="666.004,-939.769 655.747,-942.422 665.42,-946.744 666.004,-939.769"/>
</g>
<!-- Node34 -->
<g id="node73" class="node"><title>Node34</title>
<a xlink:href="../../dd/daa/classtest__endurance__video__playback_1_1_test_endurance_video_playback.html#a6e02f1318526e2b48df41a09e0dd6e3a" target="_top" xlink:title="test_endurance_video_playback.TestEnduranceVideoPlayback.test_endurance_video_playback">
<polygon fill="white" stroke="black" points="824.5,-203.418 824.5,-224.418 1257.5,-224.418 1257.5,-203.418 824.5,-203.418"/>
<text text-anchor="middle" x="1041" y="-211.418" font-family="Helvetica,sans-Serif" font-size="10.00">test_endurance_video_playback.TestEnduranceVideoPlayback.test_endurance_video_playback</text>
</a>
</g>
<!-- Node33&#45;&gt;Node34 -->
<g id="edge78" class="edge"><title>Node33&#45;&gt;Node34</title>
<path fill="none" stroke="midnightblue" d="M721.856,-213.918C755.319,-213.918 790.357,-213.918 824.456,-213.918"/>
<polygon fill="midnightblue" stroke="midnightblue" points="721.525,-210.419 711.525,-213.918 721.525,-217.419 721.525,-210.419"/>
</g>
<!-- Node37 -->
<g id="node79" class="node"><title>Node37</title>
<a xlink:href="../../df/da3/classgaiatest_1_1apps_1_1system_1_1regions_1_1cards__view_1_1_cards_view.html#a480412dd5d0ff1540fb3fd2b2e5b91fe" target="_top" xlink:title="gaiatest.apps.system.regions.cards_view.CardsView.exit_cards_view">
<polygon fill="white" stroke="black" points="880,-123.418 880,-144.418 1202,-144.418 1202,-123.418 880,-123.418"/>
<text text-anchor="middle" x="1041" y="-131.418" font-family="Helvetica,sans-Serif" font-size="10.00">gaiatest.apps.system.regions.cards_view.CardsView.exit_cards_view</text>
</a>
</g>
<!-- Node36&#45;&gt;Node37 -->
<g id="edge84" class="edge"><title>Node36&#45;&gt;Node37</title>
<path fill="none" stroke="midnightblue" d="M744.292,-133.918C789.664,-133.918 836.847,-133.918 879.883,-133.918"/>
<polygon fill="midnightblue" stroke="midnightblue" points="744.031,-130.419 734.031,-133.918 744.031,-137.419 744.031,-130.419"/>
</g>
<!-- Node39 -->
<g id="node83" class="node"><title>Node39</title>
<a xlink:href="../../d1/dd8/classgaiatest_1_1apps_1_1email_1_1app_1_1_email.html#a1c13bf41a5512a32a8287adc29d2e078" target="_top" xlink:title="gaiatest.apps.email.app.Email.wait_for_email">
<polygon fill="white" stroke="black" points="934,-83.4184 934,-104.418 1148,-104.418 1148,-83.4184 934,-83.4184"/>
<text text-anchor="middle" x="1041" y="-91.4184" font-family="Helvetica,sans-Serif" font-size="10.00">gaiatest.apps.email.app.Email.wait_for_email</text>
</a>
</g>
<!-- Node38&#45;&gt;Node39 -->
<g id="edge88" class="edge"><title>Node38&#45;&gt;Node39</title>
<path fill="none" stroke="midnightblue" d="M670.701,-93.9184C753.705,-93.9184 857.354,-93.9184 933.867,-93.9184"/>
<polygon fill="midnightblue" stroke="midnightblue" points="670.684,-90.4185 660.684,-93.9184 670.684,-97.4185 670.684,-90.4185"/>
</g>
</g>
</svg>
        <g id="navigator" transform="translate(0 0)" fill="#404254">
                <rect fill="#f2f5e9" fill-opacity="0.5" stroke="#606060" stroke-width=".5" x="0" y="0" width="60" height="60"/>
                <use id="zoomplus" xlink:href="#zoomPlus" x="17" y="9" onmousedown="handleZoom(evt,'in')"/>
                <use id="zoomminus" xlink:href="#zoomMin" x="42" y="9" onmousedown="handleZoom(evt,'out')"/>
                <use id="reset" xlink:href="#resetDef" x="30" y="36" onmousedown="handleReset()"/>
                <g id="arrowUp" xlink:href="#dirArrow" transform="translate(30 24)" onmousedown="handlePan(0,-1)">
                  <use xlink:href="#rim" fill="#404040">
                        <set attributeName="fill" to="#808080" begin="arrowUp.mouseover" end="arrowUp.mouseout"/>
                  </use>
                  <path fill="none" stroke="white" stroke-width="1.5" d="M0,-3.0v7 M-2.5,-0.5L0,-3.0L2.5,-0.5"/>
                </g>
                <g id="arrowRight" xlink:href="#dirArrow" transform="rotate(90) translate(36 -43)" onmousedown="handlePan(1,0)">
                  <use xlink:href="#rim" fill="#404040">
                        <set attributeName="fill" to="#808080" begin="arrowRight.mouseover" end="arrowRight.mouseout"/>
                  </use>
                  <path fill="none" stroke="white" stroke-width="1.5" d="M0,-3.0v7 M-2.5,-0.5L0,-3.0L2.5,-0.5"/>
                </g>
                <g id="arrowDown" xlink:href="#dirArrow" transform="rotate(180) translate(-30 -48)" onmousedown="handlePan(0,1)">
                  <use xlink:href="#rim" fill="#404040">
                        <set attributeName="fill" to="#808080" begin="arrowDown.mouseover" end="arrowDown.mouseout"/>
                  </use>
                  <path fill="none" stroke="white" stroke-width="1.5" d="M0,-3.0v7 M-2.5,-0.5L0,-3.0L2.5,-0.5"/>
                </g>
                <g id="arrowLeft" xlink:href="#dirArrow" transform="rotate(270) translate(-36 17)" onmousedown="handlePan(-1,0)">
                  <use xlink:href="#rim" fill="#404040">
                        <set attributeName="fill" to="#808080" begin="arrowLeft.mouseover" end="arrowLeft.mouseout"/>
                  </use>
                  <path fill="none" stroke="white" stroke-width="1.5" d="M0,-3.0v7 M-2.5,-0.5L0,-3.0L2.5,-0.5"/>
                </g>
        </g>
</svg>
