<?xml version="1.0" encoding="UTF-8" standalone="no"?>
<!DOCTYPE svg PUBLIC "-//W3C//DTD SVG 1.1//EN"
 "http://www.w3.org/Graphics/SVG/1.1/DTD/svg11.dtd">
<!-- Generated by graphviz version 2.26.3 (20100126.1600)
 -->
<!-- Title: G Pages: 1 -->
<!--zoomable 668 -->
<svg id="main" version="1.1" xmlns="http://www.w3.org/2000/svg" xmlns:xlink="http://www.w3.org/1999/xlink" xml:space="preserve" onload="init(evt)">
        <defs>
                <circle id="rim" cx="0" cy="0" r="7"/>
                <circle id="rim2" cx="0" cy="0" r="3.5"/>
                <g id="zoomPlus">
                        <use xlink:href="#rim" fill="#404040">
                                <set attributeName="fill" to="#808080" begin="zoomplus.mouseover" end="zoomplus.mouseout"/>
                        </use>
                        <path d="M-4,0h8M0,-4v8" fill="none" stroke="white" stroke-width="1.5" pointer-events="none"/>
                </g>
                <g id="zoomMin">
                        <use xlink:href="#rim" fill="#404040">
                                <set attributeName="fill" to="#808080" begin="zoomminus.mouseover" end="zoomminus.mouseout"/>
                        </use>
                        <path d="M-4,0h8" fill="none" stroke="white" stroke-width="1.5" pointer-events="none"/>
                </g>
                <g id="dirArrow">
                        <path fill="none" stroke="white" stroke-width="1.5" d="M0,-3.0v7 M-2.5,-0.5L0,-3.0L2.5,-0.5"/>
                </g>
               <g id="resetDef">
                       <use xlink:href="#rim2" fill="#404040">
                               <set attributeName="fill" to="#808080" begin="reset.mouseover" end="reset.mouseout"/>
                       </use>
               </g>
        </defs>

<script type="text/javascript">
var viewWidth = 1589;
var viewHeight = 668;
var sectionId = 'dynsection-0';
</script>
<script xlink:href="../../svgpan.js"/>
<svg id="graph" class="graph">
<g id="viewport">
<title>G</title>
<polygon fill="white" stroke="white" points="-4,5 -4,-664 1585.93,-664 1585.93,5 -4,5"/>
<!-- Node1 -->
<g id="node1" class="node"><title>Node1</title>
<polygon fill="#bfbfbf" stroke="black" points="906.427,-638.5 906.427,-659.5 1249.43,-659.5 1249.43,-638.5 906.427,-638.5"/>
<text text-anchor="middle" x="1077.93" y="-646.5" font-family="Helvetica,sans-Serif" font-size="10.00">/home/aoi/Documents/FxOS/B2G/gaia/xulrunner&#45;sdk/include/nsSubstring.h</text>
</g>
<!-- Node2 -->
<g id="node3" class="node"><title>Node2</title>
<a xlink:href="../../d2/df8/ns_a_string_8h.html" target="_top" xlink:title="nsAString.h">
<polygon fill="white" stroke="black" points="974.927,-580.5 974.927,-601.5 1042.93,-601.5 1042.93,-580.5 974.927,-580.5"/>
<text text-anchor="middle" x="1008.93" y="-588.5" font-family="Helvetica,sans-Serif" font-size="10.00">nsAString.h</text>
</a>
</g>
<!-- Node1&#45;&gt;Node2 -->
<g id="edge2" class="edge"><title>Node1&#45;&gt;Node2</title>
<path fill="none" stroke="midnightblue" d="M1065.27,-638.362C1055.25,-629.941 1041.06,-618.011 1029.43,-608.231"/>
<polygon fill="midnightblue" stroke="midnightblue" points="1031.41,-605.326 1021.5,-601.571 1026.9,-610.684 1031.41,-605.326"/>
</g>
<!-- Node3 -->
<g id="node5" class="node"><title>Node3</title>
<a xlink:href="../../de/d85/ns_string_fwd_8h.html" target="_top" xlink:title="nsStringFwd.h">
<polygon fill="white" stroke="black" points="639.927,-406.5 639.927,-427.5 719.927,-427.5 719.927,-406.5 639.927,-406.5"/>
<text text-anchor="middle" x="679.927" y="-414.5" font-family="Helvetica,sans-Serif" font-size="10.00">nsStringFwd.h</text>
</a>
</g>
<!-- Node2&#45;&gt;Node3 -->
<g id="edge4" class="edge"><title>Node2&#45;&gt;Node3</title>
<path fill="none" stroke="midnightblue" d="M974.707,-587.007C918.693,-579.986 810.405,-564.234 777.927,-544 735.214,-517.39 703.973,-465.072 689.29,-436.595"/>
<polygon fill="midnightblue" stroke="midnightblue" points="692.395,-434.979 684.795,-427.598 686.133,-438.108 692.395,-434.979"/>
</g>
<!-- Node8 -->
<g id="node15" class="node"><title>Node8</title>
<polygon fill="white" stroke="#bfbfbf" points="908.427,-116.5 908.427,-137.5 957.427,-137.5 957.427,-116.5 908.427,-116.5"/>
<text text-anchor="middle" x="932.927" y="-124.5" font-family="Helvetica,sans-Serif" font-size="10.00">string.h</text>
</g>
<!-- Node2&#45;&gt;Node8 -->
<g id="edge92" class="edge"><title>Node2&#45;&gt;Node8</title>
<path fill="none" stroke="midnightblue" d="M1002.82,-580.191C992.08,-560.127 970.927,-515.477 970.927,-475 970.927,-475 970.927,-475 970.927,-243 970.927,-207.741 954.876,-169.315 943.637,-146.732"/>
<polygon fill="midnightblue" stroke="midnightblue" points="946.729,-145.09 939.032,-137.809 940.508,-148.301 946.729,-145.09"/>
</g>
<!-- Node19 -->
<g id="node41" class="node"><title>Node19</title>
<a xlink:href="../../dd/dbc/ns_string_iterator_8h.html" target="_top" xlink:title="nsStringIterator.h">
<polygon fill="white" stroke="black" points="508.927,-522.5 508.927,-543.5 600.927,-543.5 600.927,-522.5 508.927,-522.5"/>
<text text-anchor="middle" x="554.927" y="-530.5" font-family="Helvetica,sans-Serif" font-size="10.00">nsStringIterator.h</text>
</a>
</g>
<!-- Node2&#45;&gt;Node19 -->
<g id="edge44" class="edge"><title>Node2&#45;&gt;Node19</title>
<path fill="none" stroke="midnightblue" d="M974.803,-586.641C897.106,-576.715 706.389,-552.35 611.064,-540.172"/>
<polygon fill="midnightblue" stroke="midnightblue" points="611.397,-536.686 601.034,-538.89 610.51,-543.63 611.397,-536.686"/>
</g>
<!-- Node29 -->
<g id="node76" class="node"><title>Node29</title>
<polygon fill="white" stroke="#bfbfbf" points="786.927,-522.5 786.927,-543.5 838.927,-543.5 838.927,-522.5 786.927,-522.5"/>
<text text-anchor="middle" x="812.927" y="-530.5" font-family="Helvetica,sans-Serif" font-size="10.00">stdarg.h</text>
</g>
<!-- Node2&#45;&gt;Node29 -->
<g id="edge94" class="edge"><title>Node2&#45;&gt;Node29</title>
<path fill="none" stroke="midnightblue" d="M974.633,-581.209C944.036,-572.425 897.775,-559.024 849.055,-544.307"/>
<polygon fill="midnightblue" stroke="midnightblue" points="849.867,-540.896 839.282,-541.347 847.838,-547.595 849.867,-540.896"/>
</g>
<!-- Node30 -->
<g id="node78" class="node"><title>Node30</title>
<a xlink:href="../../dd/dd3/fallible_8h.html" target="_top" xlink:title="mozilla/fallible.h">
<polygon fill="white" stroke="black" points="856.927,-522.5 856.927,-543.5 942.927,-543.5 942.927,-522.5 856.927,-522.5"/>
<text text-anchor="middle" x="899.927" y="-530.5" font-family="Helvetica,sans-Serif" font-size="10.00">mozilla/fallible.h</text>
</a>
</g>
<!-- Node2&#45;&gt;Node30 -->
<g id="edge96" class="edge"><title>Node2&#45;&gt;Node30</title>
<path fill="none" stroke="midnightblue" d="M989.188,-580.497C972.317,-571.519 947.818,-558.484 928.753,-548.339"/>
<polygon fill="midnightblue" stroke="midnightblue" points="930.359,-545.229 919.887,-543.621 927.071,-551.409 930.359,-545.229"/>
</g>
<!-- Node31 -->
<g id="node80" class="node"><title>Node31</title>
<a xlink:href="../../d8/d68/string-template-def-unichar_8h.html" target="_top" xlink:title="string&#45;template&#45;def&#45;unichar.h">
<polygon fill="white" stroke="black" points="1036.93,-464.5 1036.93,-485.5 1176.93,-485.5 1176.93,-464.5 1036.93,-464.5"/>
<text text-anchor="middle" x="1106.93" y="-472.5" font-family="Helvetica,sans-Serif" font-size="10.00">string&#45;template&#45;def&#45;unichar.h</text>
</a>
</g>
<!-- Node2&#45;&gt;Node31 -->
<g id="edge98" class="edge"><title>Node2&#45;&gt;Node31</title>
<path fill="none" stroke="midnightblue" d="M1017.97,-580.295C1034.67,-560.527 1070.53,-518.08 1091.26,-493.544"/>
<polygon fill="midnightblue" stroke="midnightblue" points="1094.12,-495.577 1097.9,-485.679 1088.78,-491.059 1094.12,-495.577"/>
</g>
<!-- Node32 -->
<g id="node82" class="node"><title>Node32</title>
<a xlink:href="../../de/d06/ns_t_substring_8h.html" target="_top" xlink:title="nsTSubstring.h">
<polygon fill="white" stroke="black" points="1011.43,-406.5 1011.43,-427.5 1094.43,-427.5 1094.43,-406.5 1011.43,-406.5"/>
<text text-anchor="middle" x="1052.93" y="-414.5" font-family="Helvetica,sans-Serif" font-size="10.00">nsTSubstring.h</text>
</a>
</g>
<!-- Node2&#45;&gt;Node32 -->
<g id="edge100" class="edge"><title>Node2&#45;&gt;Node32</title>
<path fill="none" stroke="midnightblue" d="M1009.31,-580.18C1010.37,-557.896 1014.24,-505.496 1027.93,-464 1031.05,-454.537 1035.98,-444.709 1040.63,-436.501"/>
<polygon fill="midnightblue" stroke="midnightblue" points="1043.75,-438.113 1045.85,-427.73 1037.73,-434.534 1043.75,-438.113"/>
</g>
<!-- Node34 -->
<g id="node87" class="node"><title>Node34</title>
<a xlink:href="../../d0/d3c/string-template-undef_8h.html" target="_top" xlink:title="string&#45;template&#45;undef.h">
<polygon fill="white" stroke="black" points="1194.93,-464.5 1194.93,-485.5 1310.93,-485.5 1310.93,-464.5 1194.93,-464.5"/>
<text text-anchor="middle" x="1252.93" y="-472.5" font-family="Helvetica,sans-Serif" font-size="10.00">string&#45;template&#45;undef.h</text>
</a>
</g>
<!-- Node2&#45;&gt;Node34 -->
<g id="edge106" class="edge"><title>Node2&#45;&gt;Node34</title>
<path fill="none" stroke="midnightblue" d="M1031.44,-580.295C1075.22,-559.482 1171.89,-513.527 1221.78,-489.808"/>
<polygon fill="midnightblue" stroke="midnightblue" points="1223.29,-492.966 1230.82,-485.512 1220.28,-486.644 1223.29,-492.966"/>
</g>
<!-- Node35 -->
<g id="node89" class="node"><title>Node35</title>
<a xlink:href="../../dc/d92/string-template-def-char_8h.html" target="_top" xlink:title="string&#45;template&#45;def&#45;char.h">
<polygon fill="white" stroke="black" points="1452.93,-464.5 1452.93,-485.5 1580.93,-485.5 1580.93,-464.5 1452.93,-464.5"/>
<text text-anchor="middle" x="1516.93" y="-472.5" font-family="Helvetica,sans-Serif" font-size="10.00">string&#45;template&#45;def&#45;char.h</text>
</a>
</g>
<!-- Node2&#45;&gt;Node35 -->
<g id="edge108" class="edge"><title>Node2&#45;&gt;Node35</title>
<path fill="none" stroke="midnightblue" d="M1043.03,-586.081C1093.71,-578.517 1191.73,-562.907 1273.93,-544 1344.75,-527.708 1425.71,-503.596 1474,-488.615"/>
<polygon fill="midnightblue" stroke="midnightblue" points="1475.29,-491.879 1483.79,-485.562 1473.2,-485.196 1475.29,-491.879"/>
</g>
<!-- Node36 -->
<g id="node91" class="node"><title>Node36</title>
<a xlink:href="../../da/d71/ns_substring_tuple_8h.html" target="_top" xlink:title="nsSubstringTuple.h">
<polygon fill="white" stroke="black" points="1164.43,-522.5 1164.43,-543.5 1265.43,-543.5 1265.43,-522.5 1164.43,-522.5"/>
<text text-anchor="middle" x="1214.93" y="-530.5" font-family="Helvetica,sans-Serif" font-size="10.00">nsSubstringTuple.h</text>
</a>
</g>
<!-- Node2&#45;&gt;Node36 -->
<g id="edge110" class="edge"><title>Node2&#45;&gt;Node36</title>
<path fill="none" stroke="midnightblue" d="M1042.94,-581.422C1076.93,-571.853 1129.47,-557.061 1167.53,-546.344"/>
<polygon fill="midnightblue" stroke="midnightblue" points="1168.69,-549.654 1177.37,-543.575 1166.79,-542.916 1168.69,-549.654"/>
</g>
<!-- Node4 -->
<g id="node7" class="node"><title>Node4</title>
<a xlink:href="../../d3/dd8/nscore_8h.html" target="_top" xlink:title="nscore.h">
<polygon fill="white" stroke="black" points="522.927,-232.5 522.927,-253.5 576.927,-253.5 576.927,-232.5 522.927,-232.5"/>
<text text-anchor="middle" x="549.927" y="-240.5" font-family="Helvetica,sans-Serif" font-size="10.00">nscore.h</text>
</a>
</g>
<!-- Node3&#45;&gt;Node4 -->
<g id="edge6" class="edge"><title>Node3&#45;&gt;Node4</title>
<path fill="none" stroke="midnightblue" d="M675.132,-406.27C668.682,-392.308 656.448,-367.406 642.927,-348 619.945,-315.016 587.929,-280.908 568.088,-260.842"/>
<polygon fill="midnightblue" stroke="midnightblue" points="570.424,-258.228 560.88,-253.629 565.473,-263.177 570.424,-258.228"/>
</g>
<!-- Node5 -->
<g id="node9" class="node"><title>Node5</title>
<a xlink:href="../../d7/d2d/xpcom-config_8h.html" target="_top" xlink:title="xpcom&#45;config.h">
<polygon fill="white" stroke="black" points="638.427,-116.5 638.427,-137.5 721.427,-137.5 721.427,-116.5 638.427,-116.5"/>
<text text-anchor="middle" x="679.927" y="-124.5" font-family="Helvetica,sans-Serif" font-size="10.00">xpcom&#45;config.h</text>
</a>
</g>
<!-- Node4&#45;&gt;Node5 -->
<g id="edge8" class="edge"><title>Node4&#45;&gt;Node5</title>
<path fill="none" stroke="midnightblue" d="M529.941,-232.441C507.238,-219.07 475.362,-195.216 491.927,-174 494.089,-171.231 573.528,-152.052 628.44,-139.065"/>
<polygon fill="midnightblue" stroke="midnightblue" points="629.455,-142.422 638.384,-136.718 627.847,-135.609 629.455,-142.422"/>
</g>
<!-- Node6 -->
<g id="node11" class="node"><title>Node6</title>
<a xlink:href="../../d1/d62/mozalloc_8h.html" target="_top" xlink:title="mozilla/mozalloc.h">
<polygon fill="white" stroke="black" points="500.927,-174.5 500.927,-195.5 598.927,-195.5 598.927,-174.5 500.927,-174.5"/>
<text text-anchor="middle" x="549.927" y="-182.5" font-family="Helvetica,sans-Serif" font-size="10.00">mozilla/mozalloc.h</text>
</a>
</g>
<!-- Node4&#45;&gt;Node6 -->
<g id="edge10" class="edge"><title>Node4&#45;&gt;Node6</title>
<path fill="none" stroke="midnightblue" d="M549.927,-232.362C549.927,-224.922 549.927,-214.743 549.927,-205.728"/>
<polygon fill="midnightblue" stroke="midnightblue" points="553.427,-205.571 549.927,-195.571 546.427,-205.571 553.427,-205.571"/>
</g>
<!-- Node11 -->
<g id="node22" class="node"><title>Node11</title>
<a xlink:href="../../d1/de4/mozalloc__macro__wrappers_8h.html" target="_top" xlink:title="mozilla/mozalloc_macro_wrappers.h">
<polygon fill="white" stroke="black" points="616.427,-174.5 616.427,-195.5 791.427,-195.5 791.427,-174.5 616.427,-174.5"/>
<text text-anchor="middle" x="703.927" y="-182.5" font-family="Helvetica,sans-Serif" font-size="10.00">mozilla/mozalloc_macro_wrappers.h</text>
</a>
</g>
<!-- Node4&#45;&gt;Node11 -->
<g id="edge22" class="edge"><title>Node4&#45;&gt;Node11</title>
<path fill="none" stroke="midnightblue" d="M577.104,-232.764C601.867,-223.438 638.678,-209.574 666.272,-199.182"/>
<polygon fill="midnightblue" stroke="midnightblue" points="667.857,-202.325 675.981,-195.525 665.389,-195.774 667.857,-202.325"/>
</g>
<!-- Node12 -->
<g id="node24" class="node"><title>Node12</title>
<polygon fill="white" stroke="#bfbfbf" points="776.927,-116.5 776.927,-137.5 828.927,-137.5 828.927,-116.5 776.927,-116.5"/>
<text text-anchor="middle" x="802.927" y="-124.5" font-family="Helvetica,sans-Serif" font-size="10.00">stddef.h</text>
</g>
<!-- Node4&#45;&gt;Node12 -->
<g id="edge24" class="edge"><title>Node4&#45;&gt;Node12</title>
<path fill="none" stroke="midnightblue" d="M577.309,-241.986C636.043,-239.186 771.144,-229.203 799.927,-196 811.24,-182.95 810.772,-162.741 808.199,-147.561"/>
<polygon fill="midnightblue" stroke="midnightblue" points="811.58,-146.633 806.091,-137.57 804.731,-148.077 811.58,-146.633"/>
</g>
<!-- Node13 -->
<g id="node26" class="node"><title>Node13</title>
<polygon fill="white" stroke="#bfbfbf" points="572.427,-116.5 572.427,-137.5 621.427,-137.5 621.427,-116.5 572.427,-116.5"/>
<text text-anchor="middle" x="596.927" y="-124.5" font-family="Helvetica,sans-Serif" font-size="10.00">stdint.h</text>
</g>
<!-- Node4&#45;&gt;Node13 -->
<g id="edge26" class="edge"><title>Node4&#45;&gt;Node13</title>
<path fill="none" stroke="midnightblue" d="M522.87,-235.309C489.244,-224.347 438.616,-202.374 458.927,-174 459.324,-173.444 522.029,-152.235 562.767,-138.501"/>
<polygon fill="midnightblue" stroke="midnightblue" points="563.99,-141.782 572.349,-135.272 561.755,-135.149 563.99,-141.782"/>
</g>
<!-- Node14 -->
<g id="node28" class="node"><title>Node14</title>
<a xlink:href="../../df/dcf/_null_ptr_8h.html" target="_top" xlink:title="mozilla/NullPtr.h">
<polygon fill="white" stroke="black" points="596.427,-58.5 596.427,-79.5 685.427,-79.5 685.427,-58.5 596.427,-58.5"/>
<text text-anchor="middle" x="640.927" y="-66.5" font-family="Helvetica,sans-Serif" font-size="10.00">mozilla/NullPtr.h</text>
</a>
</g>
<!-- Node4&#45;&gt;Node14 -->
<g id="edge28" class="edge"><title>Node4&#45;&gt;Node14</title>
<path fill="none" stroke="midnightblue" d="M577.308,-241.717C638.341,-238.319 782.996,-227.11 818.927,-196 839.434,-178.245 833.651,-164.787 837.927,-138 839.468,-128.344 843.986,-123.674 837.927,-116 820.463,-93.879 747.617,-81.0321 695.601,-74.5188"/>
<polygon fill="midnightblue" stroke="midnightblue" points="695.845,-71.023 685.498,-73.2998 695.007,-77.9726 695.845,-71.023"/>
</g>
<!-- Node15 -->
<g id="node31" class="node"><title>Node15</title>
<a xlink:href="../../d8/dcf/ns_error_8h.html" target="_top" xlink:title="nsError.h">
<polygon fill="white" stroke="black" points="350.927,-174.5 350.927,-195.5 406.927,-195.5 406.927,-174.5 350.927,-174.5"/>
<text text-anchor="middle" x="378.927" y="-182.5" font-family="Helvetica,sans-Serif" font-size="10.00">nsError.h</text>
</a>
</g>
<!-- Node4&#45;&gt;Node15 -->
<g id="edge32" class="edge"><title>Node4&#45;&gt;Node15</title>
<path fill="none" stroke="midnightblue" d="M522.831,-233.81C494.155,-224.083 448.689,-208.662 416.546,-197.76"/>
<polygon fill="midnightblue" stroke="midnightblue" points="417.627,-194.43 407.032,-194.533 415.378,-201.06 417.627,-194.43"/>
</g>
<!-- Node6&#45;&gt;Node5 -->
<g id="edge16" class="edge"><title>Node6&#45;&gt;Node5</title>
<path fill="none" stroke="midnightblue" d="M573.469,-174.497C593.956,-165.356 623.874,-152.008 646.781,-141.788"/>
<polygon fill="midnightblue" stroke="midnightblue" points="648.414,-144.892 656.121,-137.621 645.562,-138.499 648.414,-144.892"/>
</g>
<!-- Node7 -->
<g id="node13" class="node"><title>Node7</title>
<polygon fill="white" stroke="#bfbfbf" points="506.927,-116.5 506.927,-137.5 554.927,-137.5 554.927,-116.5 506.927,-116.5"/>
<text text-anchor="middle" x="530.927" y="-124.5" font-family="Helvetica,sans-Serif" font-size="10.00">stdlib.h</text>
</g>
<!-- Node6&#45;&gt;Node7 -->
<g id="edge12" class="edge"><title>Node6&#45;&gt;Node7</title>
<path fill="none" stroke="midnightblue" d="M546.442,-174.362C543.951,-166.758 540.523,-156.294 537.523,-147.135"/>
<polygon fill="midnightblue" stroke="midnightblue" points="540.829,-145.984 534.39,-137.571 534.177,-148.163 540.829,-145.984"/>
</g>
<!-- Node6&#45;&gt;Node8 -->
<g id="edge14" class="edge"><title>Node6&#45;&gt;Node8</title>
<path fill="none" stroke="midnightblue" d="M598.947,-175.547C601.983,-175.01 604.995,-174.49 607.927,-174 713.489,-156.366 838.999,-139.32 898.435,-131.483"/>
<polygon fill="midnightblue" stroke="midnightblue" points="898.949,-134.945 908.408,-130.172 898.037,-128.005 898.949,-134.945"/>
</g>
<!-- Node9 -->
<g id="node18" class="node"><title>Node9</title>
<a xlink:href="../../d1/da8/_attributes_8h.html" target="_top" xlink:title="mozilla/Attributes.h">
<polygon fill="white" stroke="black" points="263.427,-58.5 263.427,-79.5 364.427,-79.5 364.427,-58.5 263.427,-58.5"/>
<text text-anchor="middle" x="313.927" y="-66.5" font-family="Helvetica,sans-Serif" font-size="10.00">mozilla/Attributes.h</text>
</a>
</g>
<!-- Node6&#45;&gt;Node9 -->
<g id="edge18" class="edge"><title>Node6&#45;&gt;Node9</title>
<path fill="none" stroke="midnightblue" d="M599.362,-175.308C649.799,-164.921 721.807,-148.512 729.927,-138 735.904,-130.262 736.441,-123.292 729.927,-116 706.706,-90.0085 484.739,-76.5803 374.89,-71.4805"/>
<polygon fill="midnightblue" stroke="midnightblue" points="374.769,-67.9715 364.62,-71.0128 374.451,-74.9642 374.769,-67.9715"/>
</g>
<!-- Node10 -->
<g id="node20" class="node"><title>Node10</title>
<a xlink:href="../../da/da7/_compiler_8h.html" target="_top" xlink:title="mozilla/Compiler.h">
<polygon fill="white" stroke="black" points="264.927,-0.5 264.927,-21.5 362.927,-21.5 362.927,-0.5 264.927,-0.5"/>
<text text-anchor="middle" x="313.927" y="-8.5" font-family="Helvetica,sans-Serif" font-size="10.00">mozilla/Compiler.h</text>
</a>
</g>
<!-- Node9&#45;&gt;Node10 -->
<g id="edge20" class="edge"><title>Node9&#45;&gt;Node10</title>
<path fill="none" stroke="midnightblue" d="M313.927,-58.3619C313.927,-50.9219 313.927,-40.7427 313.927,-31.7276"/>
<polygon fill="midnightblue" stroke="midnightblue" points="317.427,-31.5706 313.927,-21.5707 310.427,-31.5707 317.427,-31.5706"/>
</g>
<!-- Node14&#45;&gt;Node10 -->
<g id="edge30" class="edge"><title>Node14&#45;&gt;Node10</title>
<path fill="none" stroke="midnightblue" d="M596.144,-61.057C538.199,-50.7791 437.089,-32.8454 372.931,-21.4656"/>
<polygon fill="midnightblue" stroke="midnightblue" points="373.421,-17.998 362.963,-19.6976 372.198,-24.8904 373.421,-17.998"/>
</g>
<!-- Node15&#45;&gt;Node13 -->
<g id="edge40" class="edge"><title>Node15&#45;&gt;Node13</title>
<path fill="none" stroke="midnightblue" d="M406.931,-177.626C411.603,-176.407 416.4,-175.162 420.927,-174 481.43,-158.462 499.357,-156.532 562.473,-138.301"/>
<polygon fill="midnightblue" stroke="midnightblue" points="563.502,-141.647 572.123,-135.49 561.543,-134.927 563.502,-141.647"/>
</g>
<!-- Node16 -->
<g id="node33" class="node"><title>Node16</title>
<a xlink:href="../../d1/d8a/_likely_8h.html" target="_top" xlink:title="mozilla/Likely.h">
<polygon fill="white" stroke="black" points="156.927,-116.5 156.927,-137.5 240.927,-137.5 240.927,-116.5 156.927,-116.5"/>
<text text-anchor="middle" x="198.927" y="-124.5" font-family="Helvetica,sans-Serif" font-size="10.00">mozilla/Likely.h</text>
</a>
</g>
<!-- Node15&#45;&gt;Node16 -->
<g id="edge34" class="edge"><title>Node15&#45;&gt;Node16</title>
<path fill="none" stroke="midnightblue" d="M350.802,-175.938C321.464,-166.484 275.124,-151.553 241.341,-140.667"/>
<polygon fill="midnightblue" stroke="midnightblue" points="242.324,-137.306 231.732,-137.571 240.177,-143.969 242.324,-137.306"/>
</g>
<!-- Node17 -->
<g id="node35" class="node"><title>Node17</title>
<a xlink:href="../../d3/dff/_typed_enum_8h.html" target="_top" xlink:title="mozilla/TypedEnum.h">
<polygon fill="white" stroke="black" points="258.427,-116.5 258.427,-137.5 369.427,-137.5 369.427,-116.5 258.427,-116.5"/>
<text text-anchor="middle" x="313.927" y="-124.5" font-family="Helvetica,sans-Serif" font-size="10.00">mozilla/TypedEnum.h</text>
</a>
</g>
<!-- Node15&#45;&gt;Node17 -->
<g id="edge36" class="edge"><title>Node15&#45;&gt;Node17</title>
<path fill="none" stroke="midnightblue" d="M367.005,-174.362C357.567,-165.941 344.197,-154.011 333.237,-144.231"/>
<polygon fill="midnightblue" stroke="midnightblue" points="335.565,-141.617 325.773,-137.571 330.904,-146.84 335.565,-141.617"/>
</g>
<!-- Node18 -->
<g id="node39" class="node"><title>Node18</title>
<a xlink:href="../../d7/dda/_error_list_c_defines_8h.html" target="_top" xlink:title="ErrorListCDefines.h">
<polygon fill="white" stroke="black" points="386.427,-116.5 386.427,-137.5 489.427,-137.5 489.427,-116.5 386.427,-116.5"/>
<text text-anchor="middle" x="437.927" y="-124.5" font-family="Helvetica,sans-Serif" font-size="10.00">ErrorListCDefines.h</text>
</a>
</g>
<!-- Node15&#45;&gt;Node18 -->
<g id="edge42" class="edge"><title>Node15&#45;&gt;Node18</title>
<path fill="none" stroke="midnightblue" d="M389.748,-174.362C398.148,-166.104 409.981,-154.472 419.817,-144.803"/>
<polygon fill="midnightblue" stroke="midnightblue" points="422.496,-147.077 427.174,-137.571 417.589,-142.085 422.496,-147.077"/>
</g>
<!-- Node17&#45;&gt;Node9 -->
<g id="edge38" class="edge"><title>Node17&#45;&gt;Node9</title>
<path fill="none" stroke="midnightblue" d="M313.927,-116.362C313.927,-108.922 313.927,-98.7427 313.927,-89.7276"/>
<polygon fill="midnightblue" stroke="midnightblue" points="317.427,-89.5706 313.927,-79.5707 310.427,-89.5707 317.427,-89.5706"/>
</g>
<!-- Node20 -->
<g id="node43" class="node"><title>Node20</title>
<a xlink:href="../../d3/d59/ns_char_traits_8h.html" target="_top" xlink:title="nsCharTraits.h">
<polygon fill="white" stroke="black" points="541.427,-406.5 541.427,-427.5 622.427,-427.5 622.427,-406.5 541.427,-406.5"/>
<text text-anchor="middle" x="581.927" y="-414.5" font-family="Helvetica,sans-Serif" font-size="10.00">nsCharTraits.h</text>
</a>
</g>
<!-- Node19&#45;&gt;Node20 -->
<g id="edge46" class="edge"><title>Node19&#45;&gt;Node20</title>
<path fill="none" stroke="midnightblue" d="M558.471,-522.259C561.514,-512.788 565.877,-498.577 568.927,-486 572.825,-469.922 576.244,-451.498 578.596,-437.735"/>
<polygon fill="midnightblue" stroke="midnightblue" points="582.055,-438.269 580.242,-427.83 575.15,-437.121 582.055,-438.269"/>
</g>
<!-- Node22 -->
<g id="node49" class="node"><title>Node22</title>
<a xlink:href="../../dc/d6d/ns_debug_8h.html" target="_top" xlink:title="nsDebug.h">
<polygon fill="white" stroke="black" points="423.927,-348.5 423.927,-369.5 487.927,-369.5 487.927,-348.5 423.927,-348.5"/>
<text text-anchor="middle" x="455.927" y="-356.5" font-family="Helvetica,sans-Serif" font-size="10.00">nsDebug.h</text>
</a>
</g>
<!-- Node19&#45;&gt;Node22 -->
<g id="edge90" class="edge"><title>Node19&#45;&gt;Node22</title>
<path fill="none" stroke="midnightblue" d="M523.983,-522.489C506.781,-515.02 486.558,-503.22 474.927,-486 453.198,-453.831 452.238,-406.668 453.846,-379.791"/>
<polygon fill="midnightblue" stroke="midnightblue" points="457.352,-379.859 454.64,-369.617 450.373,-379.314 457.352,-379.859"/>
</g>
<!-- Node28 -->
<g id="node70" class="node"><title>Node28</title>
<a xlink:href="../../d6/dbf/ns_algorithm_8h.html" target="_top" xlink:title="nsAlgorithm.h">
<polygon fill="white" stroke="black" points="483.427,-464.5 483.427,-485.5 560.427,-485.5 560.427,-464.5 483.427,-464.5"/>
<text text-anchor="middle" x="521.927" y="-472.5" font-family="Helvetica,sans-Serif" font-size="10.00">nsAlgorithm.h</text>
</a>
</g>
<!-- Node19&#45;&gt;Node28 -->
<g id="edge84" class="edge"><title>Node19&#45;&gt;Node28</title>
<path fill="none" stroke="midnightblue" d="M548.874,-522.362C544.455,-514.595 538.337,-503.843 533.048,-494.546"/>
<polygon fill="midnightblue" stroke="midnightblue" points="535.928,-492.531 527.941,-485.571 529.844,-495.993 535.928,-492.531"/>
</g>
<!-- Node20&#45;&gt;Node4 -->
<g id="edge52" class="edge"><title>Node20&#45;&gt;Node4</title>
<path fill="none" stroke="midnightblue" d="M579.973,-406.377C574.808,-378.293 560.717,-301.673 553.826,-264.203"/>
<polygon fill="midnightblue" stroke="midnightblue" points="557.188,-263.13 551.936,-253.928 550.303,-264.396 557.188,-263.13"/>
</g>
<!-- Node20&#45;&gt;Node8 -->
<g id="edge50" class="edge"><title>Node20&#45;&gt;Node8</title>
<path fill="none" stroke="midnightblue" d="M596.107,-406.335C608.552,-396.912 627.087,-382.73 642.927,-370 746.048,-287.126 866.41,-184.244 913.056,-144.133"/>
<polygon fill="midnightblue" stroke="midnightblue" points="915.345,-146.781 920.641,-137.605 910.778,-141.475 915.345,-146.781"/>
</g>
<!-- Node21 -->
<g id="node45" class="node"><title>Node21</title>
<polygon fill="white" stroke="#bfbfbf" points="585.427,-348.5 585.427,-369.5 634.427,-369.5 634.427,-348.5 585.427,-348.5"/>
<text text-anchor="middle" x="609.927" y="-356.5" font-family="Helvetica,sans-Serif" font-size="10.00">ctype.h</text>
</g>
<!-- Node20&#45;&gt;Node21 -->
<g id="edge48" class="edge"><title>Node20&#45;&gt;Node21</title>
<path fill="none" stroke="midnightblue" d="M587.062,-406.362C590.772,-398.677 595.894,-388.069 600.349,-378.84"/>
<polygon fill="midnightblue" stroke="midnightblue" points="603.628,-380.098 604.824,-369.571 597.324,-377.055 603.628,-380.098"/>
</g>
<!-- Node20&#45;&gt;Node22 -->
<g id="edge54" class="edge"><title>Node20&#45;&gt;Node22</title>
<path fill="none" stroke="midnightblue" d="M559.109,-406.497C539.341,-397.397 510.514,-384.127 488.351,-373.925"/>
<polygon fill="midnightblue" stroke="midnightblue" points="489.548,-370.623 479,-369.621 486.621,-376.982 489.548,-370.623"/>
</g>
<!-- Node22&#45;&gt;Node4 -->
<g id="edge56" class="edge"><title>Node22&#45;&gt;Node4</title>
<path fill="none" stroke="midnightblue" d="M467.131,-348.218C476.539,-338.954 490.133,-325.063 500.927,-312 514.285,-295.834 527.98,-276.245 537.483,-262.075"/>
<polygon fill="midnightblue" stroke="midnightblue" points="540.469,-263.906 543.078,-253.637 534.635,-260.038 540.469,-263.906"/>
</g>
<!-- Node22&#45;&gt;Node15 -->
<g id="edge58" class="edge"><title>Node22&#45;&gt;Node15</title>
<path fill="none" stroke="midnightblue" d="M442.563,-348.418C432.424,-339.69 418.91,-326.432 410.927,-312 391.945,-277.683 384.015,-231.959 380.861,-205.776"/>
<polygon fill="midnightblue" stroke="midnightblue" points="384.309,-205.102 379.755,-195.536 377.349,-205.855 384.309,-205.102"/>
</g>
<!-- Node22&#45;&gt;Node16 -->
<g id="edge82" class="edge"><title>Node22&#45;&gt;Node16</title>
<path fill="none" stroke="midnightblue" d="M442.353,-348.427C430.46,-339.063 412.802,-324.915 397.927,-312 329.667,-252.734 252.089,-178.53 217.394,-144.963"/>
<polygon fill="midnightblue" stroke="midnightblue" points="219.52,-142.15 209.904,-137.703 214.648,-147.176 219.52,-142.15"/>
</g>
<!-- Node23 -->
<g id="node53" class="node"><title>Node23</title>
<a xlink:href="../../dd/d3a/ns_x_p_c_o_m_8h.html" target="_top" xlink:title="nsXPCOM.h">
<polygon fill="white" stroke="black" points="419.927,-290.5 419.927,-311.5 491.927,-311.5 491.927,-290.5 419.927,-290.5"/>
<text text-anchor="middle" x="455.927" y="-298.5" font-family="Helvetica,sans-Serif" font-size="10.00">nsXPCOM.h</text>
</a>
</g>
<!-- Node22&#45;&gt;Node23 -->
<g id="edge60" class="edge"><title>Node22&#45;&gt;Node23</title>
<path fill="none" stroke="midnightblue" d="M455.927,-348.362C455.927,-340.922 455.927,-330.743 455.927,-321.728"/>
<polygon fill="midnightblue" stroke="midnightblue" points="459.427,-321.571 455.927,-311.571 452.427,-321.571 459.427,-321.571"/>
</g>
<!-- Node25 -->
<g id="node58" class="node"><title>Node25</title>
<a xlink:href="../../d9/de9/_assertions_8h.html" target="_top" xlink:title="mozilla/Assertions.h">
<polygon fill="white" stroke="black" points="82.4267,-174.5 82.4267,-195.5 187.427,-195.5 187.427,-174.5 82.4267,-174.5"/>
<text text-anchor="middle" x="134.927" y="-182.5" font-family="Helvetica,sans-Serif" font-size="10.00">mozilla/Assertions.h</text>
</a>
</g>
<!-- Node22&#45;&gt;Node25 -->
<g id="edge66" class="edge"><title>Node22&#45;&gt;Node25</title>
<path fill="none" stroke="midnightblue" d="M423.805,-356.214C384.449,-351.679 316.746,-340.173 265.927,-312 215.68,-284.144 170.876,-232.012 149.024,-203.984"/>
<polygon fill="midnightblue" stroke="midnightblue" points="151.613,-201.609 142.758,-195.793 146.054,-205.862 151.613,-201.609"/>
</g>
<!-- Node23&#45;&gt;Node4 -->
<g id="edge62" class="edge"><title>Node23&#45;&gt;Node4</title>
<path fill="none" stroke="midnightblue" d="M473.168,-290.362C487.478,-281.532 508.042,-268.844 524.284,-258.822"/>
<polygon fill="midnightblue" stroke="midnightblue" points="526.122,-261.8 532.795,-253.571 522.447,-255.843 526.122,-261.8"/>
</g>
<!-- Node24 -->
<g id="node56" class="node"><title>Node24</title>
<a xlink:href="../../d1/d66/ns_x_p_c_o_m_c_i_d_8h.html" target="_top" xlink:title="nsXPCOMCID.h">
<polygon fill="white" stroke="black" points="410.927,-232.5 410.927,-253.5 500.927,-253.5 500.927,-232.5 410.927,-232.5"/>
<text text-anchor="middle" x="455.927" y="-240.5" font-family="Helvetica,sans-Serif" font-size="10.00">nsXPCOMCID.h</text>
</a>
</g>
<!-- Node23&#45;&gt;Node24 -->
<g id="edge64" class="edge"><title>Node23&#45;&gt;Node24</title>
<path fill="none" stroke="midnightblue" d="M455.927,-290.362C455.927,-282.922 455.927,-272.743 455.927,-263.728"/>
<polygon fill="midnightblue" stroke="midnightblue" points="459.427,-263.571 455.927,-253.571 452.427,-263.571 459.427,-263.571"/>
</g>
<!-- Node25&#45;&gt;Node7 -->
<g id="edge78" class="edge"><title>Node25&#45;&gt;Node7</title>
<path fill="none" stroke="midnightblue" d="M187.483,-181.394C256.574,-175.95 381.722,-163.667 496.555,-137.983"/>
<polygon fill="midnightblue" stroke="midnightblue" points="497.595,-141.336 506.568,-135.703 496.04,-134.51 497.595,-141.336"/>
</g>
<!-- Node25&#45;&gt;Node9 -->
<g id="edge68" class="edge"><title>Node25&#45;&gt;Node9</title>
<path fill="none" stroke="midnightblue" d="M83.1514,-174.499C40.8898,-163.624 -8.20015,-144.23 15.9267,-116 31.1367,-98.2031 170.458,-82.3398 253.111,-74.3901"/>
<polygon fill="midnightblue" stroke="midnightblue" points="253.52,-77.8671 263.144,-73.4371 252.858,-70.8985 253.52,-77.8671"/>
</g>
<!-- Node25&#45;&gt;Node10 -->
<g id="edge70" class="edge"><title>Node25&#45;&gt;Node10</title>
<path fill="none" stroke="midnightblue" d="M82.4204,-176.754C37.1857,-167.269 -17.4264,-148.634 5.92672,-116 35.2873,-74.9709 173.607,-40.0814 254.553,-22.7367"/>
<polygon fill="midnightblue" stroke="midnightblue" points="255.553,-26.1028 264.611,-20.6083 254.103,-19.2544 255.553,-26.1028"/>
</g>
<!-- Node25&#45;&gt;Node12 -->
<g id="edge74" class="edge"><title>Node25&#45;&gt;Node12</title>
<path fill="none" stroke="midnightblue" d="M187.578,-182.096C291.494,-176.086 530.212,-160.906 729.927,-138 741.942,-136.622 755.017,-134.765 766.739,-132.97"/>
<polygon fill="midnightblue" stroke="midnightblue" points="767.292,-136.426 776.631,-131.422 766.21,-129.51 767.292,-136.426"/>
</g>
<!-- Node25&#45;&gt;Node16 -->
<g id="edge72" class="edge"><title>Node25&#45;&gt;Node16</title>
<path fill="none" stroke="midnightblue" d="M146.665,-174.362C155.867,-166.023 168.867,-154.242 179.598,-144.516"/>
<polygon fill="midnightblue" stroke="midnightblue" points="182.203,-146.879 187.263,-137.571 177.502,-141.692 182.203,-146.879"/>
</g>
<!-- Node26 -->
<g id="node64" class="node"><title>Node26</title>
<polygon fill="white" stroke="#bfbfbf" points="24.9267,-116.5 24.9267,-137.5 70.9267,-137.5 70.9267,-116.5 24.9267,-116.5"/>
<text text-anchor="middle" x="47.9267" y="-124.5" font-family="Helvetica,sans-Serif" font-size="10.00">stdio.h</text>
</g>
<!-- Node25&#45;&gt;Node26 -->
<g id="edge76" class="edge"><title>Node25&#45;&gt;Node26</title>
<path fill="none" stroke="midnightblue" d="M118.97,-174.362C105.97,-165.696 87.3956,-153.313 72.4995,-143.382"/>
<polygon fill="midnightblue" stroke="midnightblue" points="74.0447,-140.206 63.7827,-137.571 70.1618,-146.03 74.0447,-140.206"/>
</g>
<!-- Node27 -->
<g id="node67" class="node"><title>Node27</title>
<polygon fill="white" stroke="#bfbfbf" points="88.9267,-116.5 88.9267,-137.5 138.927,-137.5 138.927,-116.5 88.9267,-116.5"/>
<text text-anchor="middle" x="113.927" y="-124.5" font-family="Helvetica,sans-Serif" font-size="10.00">signal.h</text>
</g>
<!-- Node25&#45;&gt;Node27 -->
<g id="edge80" class="edge"><title>Node25&#45;&gt;Node27</title>
<path fill="none" stroke="midnightblue" d="M131.075,-174.362C128.322,-166.758 124.533,-156.294 121.217,-147.135"/>
<polygon fill="midnightblue" stroke="midnightblue" points="124.449,-145.782 117.754,-137.571 117.868,-148.165 124.449,-145.782"/>
</g>
<!-- Node28&#45;&gt;Node20 -->
<g id="edge86" class="edge"><title>Node28&#45;&gt;Node20</title>
<path fill="none" stroke="midnightblue" d="M532.932,-464.362C541.474,-456.104 553.507,-444.472 563.51,-434.803"/>
<polygon fill="midnightblue" stroke="midnightblue" points="566.234,-437.037 570.992,-427.571 561.369,-432.004 566.234,-437.037"/>
</g>
<!-- Node28&#45;&gt;Node22 -->
<g id="edge88" class="edge"><title>Node28&#45;&gt;Node22</title>
<path fill="none" stroke="midnightblue" d="M515.836,-464.295C504.736,-444.786 481.068,-403.188 467.032,-378.518"/>
<polygon fill="midnightblue" stroke="midnightblue" points="469.99,-376.64 462.003,-369.679 463.906,-380.102 469.99,-376.64"/>
</g>
<!-- Node33 -->
<g id="node84" class="node"><title>Node33</title>
<a xlink:href="../../db/d6d/_memory_reporting_8h.html" target="_top" xlink:title="mozilla/MemoryReporting.h">
<polygon fill="white" stroke="black" points="998.927,-290.5 998.927,-311.5 1134.93,-311.5 1134.93,-290.5 998.927,-290.5"/>
<text text-anchor="middle" x="1066.93" y="-298.5" font-family="Helvetica,sans-Serif" font-size="10.00">mozilla/MemoryReporting.h</text>
</a>
</g>
<!-- Node32&#45;&gt;Node33 -->
<g id="edge102" class="edge"><title>Node32&#45;&gt;Node33</title>
<path fill="none" stroke="midnightblue" d="M1054.22,-406.295C1056.53,-387.131 1061.42,-346.654 1064.41,-321.843"/>
<polygon fill="midnightblue" stroke="midnightblue" points="1067.91,-322.027 1065.64,-311.679 1060.96,-321.188 1067.91,-322.027"/>
</g>
<!-- Node33&#45;&gt;Node12 -->
<g id="edge104" class="edge"><title>Node33&#45;&gt;Node12</title>
<path fill="none" stroke="midnightblue" d="M1050.81,-290.377C1006.26,-261.013 881.197,-178.587 827.704,-143.33"/>
<polygon fill="midnightblue" stroke="midnightblue" points="829.444,-140.285 819.168,-137.705 825.592,-146.13 829.444,-140.285"/>
</g>
<!-- Node36&#45;&gt;Node1 -->
<g id="edge112" class="edge"><title>Node36&#45;&gt;Node1</title>
<path fill="none" stroke="midnightblue" d="M1202.31,-543.679C1178.58,-563.772 1127.1,-607.362 1098.37,-631.693"/>
<polygon fill="midnightblue" stroke="midnightblue" points="1095.94,-629.162 1090.57,-638.295 1100.46,-634.504 1095.94,-629.162"/>
</g>
<!-- Node36&#45;&gt;Node31 -->
<g id="edge114" class="edge"><title>Node36&#45;&gt;Node31</title>
<path fill="none" stroke="midnightblue" d="M1195.37,-522.497C1178.73,-513.56 1154.6,-500.602 1135.75,-490.477"/>
<polygon fill="midnightblue" stroke="midnightblue" points="1137.17,-487.269 1126.7,-485.621 1133.86,-493.436 1137.17,-487.269"/>
</g>
<!-- Node36&#45;&gt;Node34 -->
<g id="edge118" class="edge"><title>Node36&#45;&gt;Node34</title>
<path fill="none" stroke="midnightblue" d="M1221.9,-522.362C1227.09,-514.431 1234.33,-503.389 1240.5,-493.961"/>
<polygon fill="midnightblue" stroke="midnightblue" points="1243.45,-495.853 1246,-485.571 1237.59,-492.017 1243.45,-495.853"/>
</g>
<!-- Node36&#45;&gt;Node35 -->
<g id="edge120" class="edge"><title>Node36&#45;&gt;Node35</title>
<path fill="none" stroke="midnightblue" d="M1265.47,-523.292C1316.69,-513.456 1396.12,-498.2 1451.98,-487.473"/>
<polygon fill="midnightblue" stroke="midnightblue" points="1452.96,-490.849 1462.12,-485.525 1451.64,-483.974 1452.96,-490.849"/>
</g>
<!-- Node37 -->
<g id="node95" class="node"><title>Node37</title>
<a xlink:href="../../df/dc6/ns_t_substring_tuple_8h.html" target="_top" xlink:title="nsTSubstringTuple.h">
<polygon fill="white" stroke="black" points="1328.43,-464.5 1328.43,-485.5 1435.43,-485.5 1435.43,-464.5 1328.43,-464.5"/>
<text text-anchor="middle" x="1381.93" y="-472.5" font-family="Helvetica,sans-Serif" font-size="10.00">nsTSubstringTuple.h</text>
</a>
</g>
<!-- Node36&#45;&gt;Node37 -->
<g id="edge116" class="edge"><title>Node36&#45;&gt;Node37</title>
<path fill="none" stroke="midnightblue" d="M1245.17,-522.497C1272.28,-513.082 1312.24,-499.204 1341.97,-488.877"/>
<polygon fill="midnightblue" stroke="midnightblue" points="1343.33,-492.11 1351.63,-485.523 1341.03,-485.498 1343.33,-492.11"/>
</g>
</g>
</svg>
        <g id="navigator" transform="translate(0 0)" fill="#404254">
                <rect fill="#f2f5e9" fill-opacity="0.5" stroke="#606060" stroke-width=".5" x="0" y="0" width="60" height="60"/>
                <use id="zoomplus" xlink:href="#zoomPlus" x="17" y="9" onmousedown="handleZoom(evt,'in')"/>
                <use id="zoomminus" xlink:href="#zoomMin" x="42" y="9" onmousedown="handleZoom(evt,'out')"/>
                <use id="reset" xlink:href="#resetDef" x="30" y="36" onmousedown="handleReset()"/>
                <g id="arrowUp" xlink:href="#dirArrow" transform="translate(30 24)" onmousedown="handlePan(0,-1)">
                  <use xlink:href="#rim" fill="#404040">
                        <set attributeName="fill" to="#808080" begin="arrowUp.mouseover" end="arrowUp.mouseout"/>
                  </use>
                  <path fill="none" stroke="white" stroke-width="1.5" d="M0,-3.0v7 M-2.5,-0.5L0,-3.0L2.5,-0.5"/>
                </g>
                <g id="arrowRight" xlink:href="#dirArrow" transform="rotate(90) translate(36 -43)" onmousedown="handlePan(1,0)">
                  <use xlink:href="#rim" fill="#404040">
                        <set attributeName="fill" to="#808080" begin="arrowRight.mouseover" end="arrowRight.mouseout"/>
                  </use>
                  <path fill="none" stroke="white" stroke-width="1.5" d="M0,-3.0v7 M-2.5,-0.5L0,-3.0L2.5,-0.5"/>
                </g>
                <g id="arrowDown" xlink:href="#dirArrow" transform="rotate(180) translate(-30 -48)" onmousedown="handlePan(0,1)">
                  <use xlink:href="#rim" fill="#404040">
                        <set attributeName="fill" to="#808080" begin="arrowDown.mouseover" end="arrowDown.mouseout"/>
                  </use>
                  <path fill="none" stroke="white" stroke-width="1.5" d="M0,-3.0v7 M-2.5,-0.5L0,-3.0L2.5,-0.5"/>
                </g>
                <g id="arrowLeft" xlink:href="#dirArrow" transform="rotate(270) translate(-36 17)" onmousedown="handlePan(-1,0)">
                  <use xlink:href="#rim" fill="#404040">
                        <set attributeName="fill" to="#808080" begin="arrowLeft.mouseover" end="arrowLeft.mouseout"/>
                  </use>
                  <path fill="none" stroke="white" stroke-width="1.5" d="M0,-3.0v7 M-2.5,-0.5L0,-3.0L2.5,-0.5"/>
                </g>
        </g>
</svg>
