<?xml version="1.0" encoding="UTF-8" standalone="no"?>
<!DOCTYPE svg PUBLIC "-//W3C//DTD SVG 1.1//EN"
 "http://www.w3.org/Graphics/SVG/1.1/DTD/svg11.dtd">
<!-- Generated by graphviz version 2.26.3 (20100126.1600)
 -->
<!-- Title: G Pages: 1 -->
<svg width="159pt" height="102pt"
 viewBox="0.00 0.00 159.00 102.00" xmlns="http://www.w3.org/2000/svg" xmlns:xlink="http://www.w3.org/1999/xlink">
<g id="graph1" class="graph" transform="scale(1 1) rotate(0) translate(4 98)">
<title>G</title>
<polygon fill="white" stroke="white" points="-4,5 -4,-98 156,-98 156,5 -4,5"/>
<!-- Node1 -->
<g id="node1" class="node"><title>Node1</title>
<polygon fill="#bfbfbf" stroke="black" points="0,-0.5 0,-21.5 144,-21.5 144,-0.5 0,-0.5"/>
<text text-anchor="middle" x="72" y="-8.5" font-family="Helvetica,sans-Serif" font-size="10.00">nsIDOMWindowPerformance</text>
</g>
<!-- Node2 -->
<g id="node2" class="node"><title>Node2</title>
<a xlink:href="../../d4/d6a/classns_i_supports.html" target="_top" xlink:title="nsISupports">
<polygon fill="white" stroke="black" points="37.5,-72.5 37.5,-93.5 106.5,-93.5 106.5,-72.5 37.5,-72.5"/>
<text text-anchor="middle" x="72" y="-80.5" font-family="Helvetica,sans-Serif" font-size="10.00">nsISupports</text>
</a>
</g>
<!-- Node2&#45;&gt;Node1 -->
<g id="edge2" class="edge"><title>Node2&#45;&gt;Node1</title>
<path fill="none" stroke="midnightblue" d="M65.8188,-62.2348C64.7675,-48.969 65.1736,-32.3188 67.037,-21.6674"/>
<polygon fill="midnightblue" stroke="midnightblue" points="62.3698,-62.8685 67.0446,-72.3762 69.3192,-62.0284 62.3698,-62.8685"/>
</g>
<!-- Node2&#45;&gt;Node1 -->
<g id="edge4" class="edge"><title>Node2&#45;&gt;Node1</title>
<path fill="none" stroke="midnightblue" d="M78.1812,-62.2348C79.2325,-48.969 78.8264,-32.3188 76.963,-21.6674"/>
<polygon fill="midnightblue" stroke="midnightblue" points="74.6808,-62.0284 76.9554,-72.3762 81.6302,-62.8685 74.6808,-62.0284"/>
</g>
<!-- Node2&#45;&gt;Node1 -->
<g id="edge6" class="edge"><title>Node2&#45;&gt;Node1</title>
<path fill="none" stroke="#9a32cd" stroke-dasharray="5,2" d="M87.4178,-63.9962C89.2987,-60.8176 90.9312,-57.4325 92,-54 93.8499,-48.0591 93.8499,-45.9409 92,-40 89.9271,-33.3431 85.7343,-26.8642 81.7207,-21.7249"/>
<polygon fill="#9a32cd" stroke="#9a32cd" points="84.5064,-62.053 81.7207,-72.2751 90.2729,-66.0213 84.5064,-62.053"/>
<text text-anchor="middle" x="122" y="-44.5" font-family="Helvetica,sans-Serif" font-size="10.00"> performance</text>
</g>
</g>
</svg>
