<?xml version="1.0" encoding="UTF-8" standalone="no"?>
<!DOCTYPE svg PUBLIC "-//W3C//DTD SVG 1.1//EN"
 "http://www.w3.org/Graphics/SVG/1.1/DTD/svg11.dtd">
<!-- Generated by graphviz version 2.26.3 (20100126.1600)
 -->
<!-- Title: G Pages: 1 -->
<svg width="376pt" height="262pt"
 viewBox="0.00 0.00 376.00 262.00" xmlns="http://www.w3.org/2000/svg" xmlns:xlink="http://www.w3.org/1999/xlink">
<g id="graph1" class="graph" transform="scale(1 1) rotate(0) translate(4 258)">
<title>G</title>
<polygon fill="white" stroke="white" points="-4,5 -4,-258 373,-258 373,5 -4,5"/>
<!-- Node1 -->
<g id="node1" class="node"><title>Node1</title>
<polygon fill="#bfbfbf" stroke="black" points="128.5,-0.5 128.5,-21.5 295.5,-21.5 295.5,-0.5 128.5,-0.5"/>
<text text-anchor="middle" x="212" y="-8.5" font-family="Helvetica,sans-Serif" font-size="10.00">mozilla::dom::PopupBlockedEvent</text>
</g>
<!-- Node2 -->
<g id="node2" class="node"><title>Node2</title>
<a xlink:href="../../dc/d9a/classns_d_o_m_event.html" target="_top" xlink:title="nsDOMEvent">
<polygon fill="white" stroke="black" points="124,-58.5 124,-79.5 200,-79.5 200,-58.5 124,-58.5"/>
<text text-anchor="middle" x="162" y="-66.5" font-family="Helvetica,sans-Serif" font-size="10.00">nsDOMEvent</text>
</a>
</g>
<!-- Node2&#45;&gt;Node1 -->
<g id="edge2" class="edge"><title>Node2&#45;&gt;Node1</title>
<path fill="none" stroke="midnightblue" d="M177.913,-50.5407C186.156,-40.9786 195.925,-29.6467 202.887,-21.5707"/>
<polygon fill="midnightblue" stroke="midnightblue" points="175.049,-48.5025 171.171,-58.3619 180.351,-53.0731 175.049,-48.5025"/>
</g>
<!-- Node3 -->
<g id="node4" class="node"><title>Node3</title>
<a xlink:href="../../df/d03/classns_d_o_m_event_base.html" target="_top" xlink:title="nsDOMEventBase">
<polygon fill="white" stroke="black" points="0,-116.5 0,-137.5 98,-137.5 98,-116.5 0,-116.5"/>
<text text-anchor="middle" x="49" y="-124.5" font-family="Helvetica,sans-Serif" font-size="10.00">nsDOMEventBase</text>
</a>
</g>
<!-- Node3&#45;&gt;Node2 -->
<g id="edge4" class="edge"><title>Node3&#45;&gt;Node2</title>
<path fill="none" stroke="midnightblue" d="M78.6254,-111.794C98.3408,-101.675 123.748,-88.6338 141.307,-79.6212"/>
<polygon fill="midnightblue" stroke="midnightblue" points="76.7617,-108.816 69.4634,-116.497 79.9582,-115.044 76.7617,-108.816"/>
</g>
<!-- Node4 -->
<g id="node6" class="node"><title>Node4</title>
<a xlink:href="../../d4/d5c/interfacens_i_d_o_m_event.html" target="_top" xlink:title="nsIDOMEvent">
<polygon fill="white" stroke="black" points="257.5,-174.5 257.5,-195.5 336.5,-195.5 336.5,-174.5 257.5,-174.5"/>
<text text-anchor="middle" x="297" y="-182.5" font-family="Helvetica,sans-Serif" font-size="10.00">nsIDOMEvent</text>
</a>
</g>
<!-- Node4&#45;&gt;Node3 -->
<g id="edge6" class="edge"><title>Node4&#45;&gt;Node3</title>
<path fill="none" stroke="midnightblue" d="M247.664,-173.462C202.985,-163.013 137.701,-147.745 94.3152,-137.598"/>
<polygon fill="midnightblue" stroke="midnightblue" points="246.895,-176.876 257.429,-175.746 248.489,-170.06 246.895,-176.876"/>
</g>
<!-- Node7 -->
<g id="node13" class="node"><title>Node7</title>
<a xlink:href="../../da/d3c/interfacens_i_d_o_m_popup_blocked_event.html" target="_top" xlink:title="nsIDOMPopupBlockedEvent">
<polygon fill="white" stroke="black" points="226,-116.5 226,-137.5 368,-137.5 368,-116.5 226,-116.5"/>
<text text-anchor="middle" x="297" y="-124.5" font-family="Helvetica,sans-Serif" font-size="10.00">nsIDOMPopupBlockedEvent</text>
</a>
</g>
<!-- Node4&#45;&gt;Node7 -->
<g id="edge16" class="edge"><title>Node4&#45;&gt;Node7</title>
<path fill="none" stroke="midnightblue" d="M290.495,-164.191C289.941,-155.168 290.326,-144.994 291.648,-137.571"/>
<polygon fill="midnightblue" stroke="midnightblue" points="287.043,-164.814 291.636,-174.362 294,-164.034 287.043,-164.814"/>
</g>
<!-- Node4&#45;&gt;Node7 -->
<g id="edge18" class="edge"><title>Node4&#45;&gt;Node7</title>
<path fill="none" stroke="midnightblue" d="M303.505,-164.191C304.059,-155.168 303.674,-144.994 302.352,-137.571"/>
<polygon fill="midnightblue" stroke="midnightblue" points="300,-164.034 302.364,-174.362 306.957,-164.814 300,-164.034"/>
</g>
<!-- Node5 -->
<g id="node8" class="node"><title>Node5</title>
<a xlink:href="../../d4/d6a/classns_i_supports.html" target="_top" xlink:title="nsISupports">
<polygon fill="white" stroke="black" points="262.5,-232.5 262.5,-253.5 331.5,-253.5 331.5,-232.5 262.5,-232.5"/>
<text text-anchor="middle" x="297" y="-240.5" font-family="Helvetica,sans-Serif" font-size="10.00">nsISupports</text>
</a>
</g>
<!-- Node5&#45;&gt;Node4 -->
<g id="edge8" class="edge"><title>Node5&#45;&gt;Node4</title>
<path fill="none" stroke="midnightblue" d="M290.495,-222.191C289.941,-213.168 290.326,-202.994 291.648,-195.571"/>
<polygon fill="midnightblue" stroke="midnightblue" points="287.043,-222.814 291.636,-232.362 294,-222.034 287.043,-222.814"/>
</g>
<!-- Node5&#45;&gt;Node4 -->
<g id="edge10" class="edge"><title>Node5&#45;&gt;Node4</title>
<path fill="none" stroke="midnightblue" d="M303.505,-222.191C304.059,-213.168 303.674,-202.994 302.352,-195.571"/>
<polygon fill="midnightblue" stroke="midnightblue" points="300,-222.034 302.364,-232.362 306.957,-222.814 300,-222.034"/>
</g>
<!-- Node6 -->
<g id="node11" class="node"><title>Node6</title>
<a xlink:href="../../d0/d7e/classns_wrapper_cache.html" target="_top" xlink:title="nsWrapperCache">
<polygon fill="white" stroke="black" points="116,-116.5 116,-137.5 208,-137.5 208,-116.5 116,-116.5"/>
<text text-anchor="middle" x="162" y="-124.5" font-family="Helvetica,sans-Serif" font-size="10.00">nsWrapperCache</text>
</a>
</g>
<!-- Node6&#45;&gt;Node2 -->
<g id="edge12" class="edge"><title>Node6&#45;&gt;Node2</title>
<path fill="none" stroke="midnightblue" d="M162,-106.191C162,-97.1684 162,-86.9941 162,-79.5707"/>
<polygon fill="midnightblue" stroke="midnightblue" points="158.5,-106.362 162,-116.362 165.5,-106.362 158.5,-106.362"/>
</g>
<!-- Node7&#45;&gt;Node1 -->
<g id="edge14" class="edge"><title>Node7&#45;&gt;Node1</title>
<path fill="none" stroke="midnightblue" d="M283.152,-108.101C265.126,-83.5018 234.233,-41.3409 219.825,-21.6792"/>
<polygon fill="midnightblue" stroke="midnightblue" points="280.422,-110.297 289.156,-116.295 286.068,-106.16 280.422,-110.297"/>
</g>
</g>
</svg>
