<?xml version="1.0" encoding="UTF-8" standalone="no"?>
<!DOCTYPE svg PUBLIC "-//W3C//DTD SVG 1.1//EN"
 "http://www.w3.org/Graphics/SVG/1.1/DTD/svg11.dtd">
<!-- Generated by graphviz version 2.26.3 (20100126.1600)
 -->
<!-- Title: G Pages: 1 -->
<!--zoomable 726 -->
<svg id="main" version="1.1" xmlns="http://www.w3.org/2000/svg" xmlns:xlink="http://www.w3.org/1999/xlink" xml:space="preserve" onload="init(evt)">
        <defs>
                <circle id="rim" cx="0" cy="0" r="7"/>
                <circle id="rim2" cx="0" cy="0" r="3.5"/>
                <g id="zoomPlus">
                        <use xlink:href="#rim" fill="#404040">
                                <set attributeName="fill" to="#808080" begin="zoomplus.mouseover" end="zoomplus.mouseout"/>
                        </use>
                        <path d="M-4,0h8M0,-4v8" fill="none" stroke="white" stroke-width="1.5" pointer-events="none"/>
                </g>
                <g id="zoomMin">
                        <use xlink:href="#rim" fill="#404040">
                                <set attributeName="fill" to="#808080" begin="zoomminus.mouseover" end="zoomminus.mouseout"/>
                        </use>
                        <path d="M-4,0h8" fill="none" stroke="white" stroke-width="1.5" pointer-events="none"/>
                </g>
                <g id="dirArrow">
                        <path fill="none" stroke="white" stroke-width="1.5" d="M0,-3.0v7 M-2.5,-0.5L0,-3.0L2.5,-0.5"/>
                </g>
               <g id="resetDef">
                       <use xlink:href="#rim2" fill="#404040">
                               <set attributeName="fill" to="#808080" begin="reset.mouseover" end="reset.mouseout"/>
                       </use>
               </g>
        </defs>

<script type="text/javascript">
var viewWidth = 1392;
var viewHeight = 726;
var sectionId = 'dynsection-0';
</script>
<script xlink:href="../../svgpan.js"/>
<svg id="graph" class="graph">
<g id="viewport">
<title>G</title>
<polygon fill="white" stroke="white" points="-4,5 -4,-722 1389,-722 1389,5 -4,5"/>
<!-- Node1 -->
<g id="node1" class="node"><title>Node1</title>
<polygon fill="#bfbfbf" stroke="black" points="0,-696.5 0,-717.5 394,-717.5 394,-696.5 0,-696.5"/>
<text text-anchor="middle" x="197" y="-704.5" font-family="Helvetica,sans-Serif" font-size="10.00">/home/aoi/Documents/FxOS/B2G/gaia/xulrunner&#45;sdk/include/nsIObjectOutputStream.h</text>
</g>
<!-- Node2 -->
<g id="node3" class="node"><title>Node2</title>
<a xlink:href="../../d5/df4/ns_i_binary_output_stream_8h.html" target="_top" xlink:title="nsIBinaryOutputStream.h">
<polygon fill="white" stroke="black" points="179.5,-638.5 179.5,-659.5 306.5,-659.5 306.5,-638.5 179.5,-638.5"/>
<text text-anchor="middle" x="243" y="-646.5" font-family="Helvetica,sans-Serif" font-size="10.00">nsIBinaryOutputStream.h</text>
</a>
</g>
<!-- Node1&#45;&gt;Node2 -->
<g id="edge2" class="edge"><title>Node1&#45;&gt;Node2</title>
<path fill="none" stroke="midnightblue" d="M205.437,-696.362C211.792,-688.35 220.666,-677.161 228.193,-667.67"/>
<polygon fill="midnightblue" stroke="midnightblue" points="231.145,-669.581 234.616,-659.571 225.66,-665.231 231.145,-669.581"/>
</g>
<!-- Node5 -->
<g id="node9" class="node"><title>Node5</title>
<a xlink:href="../../d9/d92/nsrootidl_8h.html" target="_top" xlink:title="nsrootidl.h">
<polygon fill="white" stroke="black" points="159,-464.5 159,-485.5 221,-485.5 221,-464.5 159,-464.5"/>
<text text-anchor="middle" x="190" y="-472.5" font-family="Helvetica,sans-Serif" font-size="10.00">nsrootidl.h</text>
</a>
</g>
<!-- Node1&#45;&gt;Node5 -->
<g id="edge144" class="edge"><title>Node1&#45;&gt;Node5</title>
<path fill="none" stroke="midnightblue" d="M189.117,-696.465C182.822,-687.352 174.496,-673.544 171,-660 155.925,-601.607 172.963,-529.938 183.278,-495.452"/>
<polygon fill="midnightblue" stroke="midnightblue" points="186.707,-496.215 186.342,-485.626 180.024,-494.131 186.707,-496.215"/>
</g>
<!-- Node3 -->
<g id="node5" class="node"><title>Node3</title>
<a xlink:href="../../db/da8/ns_i_output_stream_8h.html" target="_top" xlink:title="nsIOutputStream.h">
<polygon fill="white" stroke="black" points="217.5,-580.5 217.5,-601.5 316.5,-601.5 316.5,-580.5 217.5,-580.5"/>
<text text-anchor="middle" x="267" y="-588.5" font-family="Helvetica,sans-Serif" font-size="10.00">nsIOutputStream.h</text>
</a>
</g>
<!-- Node2&#45;&gt;Node3 -->
<g id="edge4" class="edge"><title>Node2&#45;&gt;Node3</title>
<path fill="none" stroke="midnightblue" d="M247.402,-638.362C250.582,-630.677 254.972,-620.069 258.79,-610.84"/>
<polygon fill="midnightblue" stroke="midnightblue" points="262.036,-612.149 262.626,-601.571 255.568,-609.473 262.036,-612.149"/>
</g>
<!-- Node2&#45;&gt;Node5 -->
<g id="edge142" class="edge"><title>Node2&#45;&gt;Node5</title>
<path fill="none" stroke="midnightblue" d="M232.958,-638.332C225.115,-629.353 214.631,-615.801 209,-602 194.548,-566.577 190.933,-521.577 190.121,-495.757"/>
<polygon fill="midnightblue" stroke="midnightblue" points="193.618,-495.576 189.919,-485.648 186.62,-495.716 193.618,-495.576"/>
</g>
<!-- Node4 -->
<g id="node7" class="node"><title>Node4</title>
<a xlink:href="../../de/d5a/ns_i_supports_8h.html" target="_top" xlink:title="nsISupports.h">
<polygon fill="white" stroke="black" points="222.5,-522.5 222.5,-543.5 299.5,-543.5 299.5,-522.5 222.5,-522.5"/>
<text text-anchor="middle" x="261" y="-530.5" font-family="Helvetica,sans-Serif" font-size="10.00">nsISupports.h</text>
</a>
</g>
<!-- Node3&#45;&gt;Node4 -->
<g id="edge6" class="edge"><title>Node3&#45;&gt;Node4</title>
<path fill="none" stroke="midnightblue" d="M265.9,-580.362C265.13,-572.922 264.077,-562.743 263.144,-553.728"/>
<polygon fill="midnightblue" stroke="midnightblue" points="266.604,-553.157 262.094,-543.571 259.641,-553.878 266.604,-553.157"/>
</g>
<!-- Node4&#45;&gt;Node5 -->
<g id="edge8" class="edge"><title>Node4&#45;&gt;Node5</title>
<path fill="none" stroke="midnightblue" d="M247.978,-522.362C237.569,-513.859 222.781,-501.779 210.745,-491.947"/>
<polygon fill="midnightblue" stroke="midnightblue" points="212.899,-489.187 202.94,-485.571 208.47,-494.608 212.899,-489.187"/>
</g>
<!-- Node21 -->
<g id="node45" class="node"><title>Node21</title>
<a xlink:href="../../de/d38/ns_i_supports_base_8h.html" target="_top" xlink:title="nsISupportsBase.h">
<polygon fill="white" stroke="black" points="290,-348.5 290,-369.5 390,-369.5 390,-348.5 290,-348.5"/>
<text text-anchor="middle" x="340" y="-356.5" font-family="Helvetica,sans-Serif" font-size="10.00">nsISupportsBase.h</text>
</a>
</g>
<!-- Node4&#45;&gt;Node21 -->
<g id="edge48" class="edge"><title>Node4&#45;&gt;Node21</title>
<path fill="none" stroke="midnightblue" d="M265.823,-522.377C278.684,-494.051 313.962,-416.349 330.809,-379.242"/>
<polygon fill="midnightblue" stroke="midnightblue" points="334.091,-380.48 335.039,-369.928 327.718,-377.586 334.091,-380.48"/>
</g>
<!-- Node23 -->
<g id="node52" class="node"><title>Node23</title>
<a xlink:href="../../d9/d4b/ns_i_supports_utils_8h.html" target="_top" xlink:title="nsISupportsUtils.h">
<polygon fill="white" stroke="black" points="369,-464.5 369,-485.5 467,-485.5 467,-464.5 369,-464.5"/>
<text text-anchor="middle" x="418" y="-472.5" font-family="Helvetica,sans-Serif" font-size="10.00">nsISupportsUtils.h</text>
</a>
</g>
<!-- Node4&#45;&gt;Node23 -->
<g id="edge58" class="edge"><title>Node4&#45;&gt;Node23</title>
<path fill="none" stroke="midnightblue" d="M289.432,-522.497C314.805,-513.123 352.157,-499.324 380.07,-489.012"/>
<polygon fill="midnightblue" stroke="midnightblue" points="381.348,-492.272 389.515,-485.523 378.922,-485.705 381.348,-492.272"/>
</g>
<!-- Node6 -->
<g id="node11" class="node"><title>Node6</title>
<a xlink:href="../../d3/dd8/nscore_8h.html" target="_top" xlink:title="nscore.h">
<polygon fill="white" stroke="black" points="326,-232.5 326,-253.5 380,-253.5 380,-232.5 326,-232.5"/>
<text text-anchor="middle" x="353" y="-240.5" font-family="Helvetica,sans-Serif" font-size="10.00">nscore.h</text>
</a>
</g>
<!-- Node5&#45;&gt;Node6 -->
<g id="edge10" class="edge"><title>Node5&#45;&gt;Node6</title>
<path fill="none" stroke="midnightblue" d="M193.144,-464.263C202.451,-433.933 232.355,-346.176 282,-290 293.135,-277.4 308.393,-266.718 321.911,-258.737"/>
<polygon fill="midnightblue" stroke="midnightblue" points="323.931,-261.616 330.919,-253.653 320.49,-255.52 323.931,-261.616"/>
</g>
<!-- Node7 -->
<g id="node13" class="node"><title>Node7</title>
<a xlink:href="../../d7/d2d/xpcom-config_8h.html" target="_top" xlink:title="xpcom&#45;config.h">
<polygon fill="white" stroke="black" points="93.5,-116.5 93.5,-137.5 176.5,-137.5 176.5,-116.5 93.5,-116.5"/>
<text text-anchor="middle" x="135" y="-124.5" font-family="Helvetica,sans-Serif" font-size="10.00">xpcom&#45;config.h</text>
</a>
</g>
<!-- Node6&#45;&gt;Node7 -->
<g id="edge12" class="edge"><title>Node6&#45;&gt;Node7</title>
<path fill="none" stroke="midnightblue" d="M325.726,-241.379C271.93,-237.551 155.247,-225.918 131,-196 120.178,-182.647 122.719,-162.636 127.056,-147.597"/>
<polygon fill="midnightblue" stroke="midnightblue" points="130.516,-148.286 130.367,-137.692 123.877,-146.067 130.516,-148.286"/>
</g>
<!-- Node8 -->
<g id="node15" class="node"><title>Node8</title>
<a xlink:href="../../d1/d62/mozalloc_8h.html" target="_top" xlink:title="mozilla/mozalloc.h">
<polygon fill="white" stroke="black" points="140,-174.5 140,-195.5 238,-195.5 238,-174.5 140,-174.5"/>
<text text-anchor="middle" x="189" y="-182.5" font-family="Helvetica,sans-Serif" font-size="10.00">mozilla/mozalloc.h</text>
</a>
</g>
<!-- Node6&#45;&gt;Node8 -->
<g id="edge14" class="edge"><title>Node6&#45;&gt;Node8</title>
<path fill="none" stroke="midnightblue" d="M325.919,-233.422C299.436,-224.057 258.808,-209.688 228.681,-199.033"/>
<polygon fill="midnightblue" stroke="midnightblue" points="229.496,-195.609 218.901,-195.575 227.162,-202.209 229.496,-195.609"/>
</g>
<!-- Node13 -->
<g id="node26" class="node"><title>Node13</title>
<a xlink:href="../../d1/de4/mozalloc__macro__wrappers_8h.html" target="_top" xlink:title="mozilla/mozalloc_macro_wrappers.h">
<polygon fill="white" stroke="black" points="255.5,-174.5 255.5,-195.5 430.5,-195.5 430.5,-174.5 255.5,-174.5"/>
<text text-anchor="middle" x="343" y="-182.5" font-family="Helvetica,sans-Serif" font-size="10.00">mozilla/mozalloc_macro_wrappers.h</text>
</a>
</g>
<!-- Node6&#45;&gt;Node13 -->
<g id="edge26" class="edge"><title>Node6&#45;&gt;Node13</title>
<path fill="none" stroke="midnightblue" d="M351.166,-232.362C349.869,-224.84 348.089,-214.519 346.523,-205.431"/>
<polygon fill="midnightblue" stroke="midnightblue" points="349.971,-204.831 344.823,-195.571 343.073,-206.02 349.971,-204.831"/>
</g>
<!-- Node14 -->
<g id="node28" class="node"><title>Node14</title>
<polygon fill="white" stroke="#bfbfbf" points="754,-174.5 754,-195.5 806,-195.5 806,-174.5 754,-174.5"/>
<text text-anchor="middle" x="780" y="-182.5" font-family="Helvetica,sans-Serif" font-size="10.00">stddef.h</text>
</g>
<!-- Node6&#45;&gt;Node14 -->
<g id="edge28" class="edge"><title>Node6&#45;&gt;Node14</title>
<path fill="none" stroke="midnightblue" d="M380.376,-241.466C443.143,-237.581 602.281,-225.629 743.622,-195.983"/>
<polygon fill="midnightblue" stroke="midnightblue" points="744.717,-199.328 753.767,-193.818 743.256,-192.483 744.717,-199.328"/>
</g>
<!-- Node15 -->
<g id="node30" class="node"><title>Node15</title>
<polygon fill="white" stroke="#bfbfbf" points="713.5,-116.5 713.5,-137.5 762.5,-137.5 762.5,-116.5 713.5,-116.5"/>
<text text-anchor="middle" x="738" y="-124.5" font-family="Helvetica,sans-Serif" font-size="10.00">stdint.h</text>
</g>
<!-- Node6&#45;&gt;Node15 -->
<g id="edge30" class="edge"><title>Node6&#45;&gt;Node15</title>
<path fill="none" stroke="midnightblue" d="M380.176,-237.632C418.589,-229.801 490.797,-214.18 551,-196 605.282,-179.608 666.687,-155.932 703.858,-141.011"/>
<polygon fill="midnightblue" stroke="midnightblue" points="705.257,-144.221 713.22,-137.233 702.637,-137.73 705.257,-144.221"/>
</g>
<!-- Node16 -->
<g id="node32" class="node"><title>Node16</title>
<a xlink:href="../../df/dcf/_null_ptr_8h.html" target="_top" xlink:title="mozilla/NullPtr.h">
<polygon fill="white" stroke="black" points="493.5,-58.5 493.5,-79.5 582.5,-79.5 582.5,-58.5 493.5,-58.5"/>
<text text-anchor="middle" x="538" y="-66.5" font-family="Helvetica,sans-Serif" font-size="10.00">mozilla/NullPtr.h</text>
</a>
</g>
<!-- Node6&#45;&gt;Node16 -->
<g id="edge32" class="edge"><title>Node6&#45;&gt;Node16</title>
<path fill="none" stroke="midnightblue" d="M325.637,-240.257C271.474,-234.386 152.983,-219.222 120,-196 88.2667,-173.658 59.0121,-144.824 85,-116 111.217,-86.922 368.036,-74.7046 482.93,-70.6641"/>
<polygon fill="midnightblue" stroke="midnightblue" points="483.39,-74.1504 493.264,-70.3093 483.15,-67.1546 483.39,-74.1504"/>
</g>
<!-- Node17 -->
<g id="node35" class="node"><title>Node17</title>
<a xlink:href="../../d8/dcf/ns_error_8h.html" target="_top" xlink:title="nsError.h">
<polygon fill="white" stroke="black" points="486,-174.5 486,-195.5 542,-195.5 542,-174.5 486,-174.5"/>
<text text-anchor="middle" x="514" y="-182.5" font-family="Helvetica,sans-Serif" font-size="10.00">nsError.h</text>
</a>
</g>
<!-- Node6&#45;&gt;Node17 -->
<g id="edge36" class="edge"><title>Node6&#45;&gt;Node17</title>
<path fill="none" stroke="midnightblue" d="M380.311,-233.161C406.669,-223.666 446.796,-209.21 476.212,-198.613"/>
<polygon fill="midnightblue" stroke="midnightblue" points="477.52,-201.862 485.741,-195.18 475.147,-195.277 477.52,-201.862"/>
</g>
<!-- Node8&#45;&gt;Node7 -->
<g id="edge20" class="edge"><title>Node8&#45;&gt;Node7</title>
<path fill="none" stroke="midnightblue" d="M179.096,-174.362C171.484,-166.186 160.792,-154.702 151.843,-145.091"/>
<polygon fill="midnightblue" stroke="midnightblue" points="154.217,-142.505 144.842,-137.571 149.094,-147.275 154.217,-142.505"/>
</g>
<!-- Node9 -->
<g id="node17" class="node"><title>Node9</title>
<polygon fill="white" stroke="#bfbfbf" points="418,-116.5 418,-137.5 466,-137.5 466,-116.5 418,-116.5"/>
<text text-anchor="middle" x="442" y="-124.5" font-family="Helvetica,sans-Serif" font-size="10.00">stdlib.h</text>
</g>
<!-- Node8&#45;&gt;Node9 -->
<g id="edge16" class="edge"><title>Node8&#45;&gt;Node9</title>
<path fill="none" stroke="midnightblue" d="M238.384,-175.117C288.944,-164.888 365.071,-149.159 408.23,-137.963"/>
<polygon fill="midnightblue" stroke="midnightblue" points="409.189,-141.329 417.944,-135.363 407.379,-134.567 409.189,-141.329"/>
</g>
<!-- Node10 -->
<g id="node19" class="node"><title>Node10</title>
<polygon fill="white" stroke="#bfbfbf" points="231.5,-116.5 231.5,-137.5 280.5,-137.5 280.5,-116.5 231.5,-116.5"/>
<text text-anchor="middle" x="256" y="-124.5" font-family="Helvetica,sans-Serif" font-size="10.00">string.h</text>
</g>
<!-- Node8&#45;&gt;Node10 -->
<g id="edge18" class="edge"><title>Node8&#45;&gt;Node10</title>
<path fill="none" stroke="midnightblue" d="M201.289,-174.362C211.017,-165.941 224.798,-154.011 236.095,-144.231"/>
<polygon fill="midnightblue" stroke="midnightblue" points="238.519,-146.762 243.789,-137.571 233.938,-141.469 238.519,-146.762"/>
</g>
<!-- Node11 -->
<g id="node22" class="node"><title>Node11</title>
<a xlink:href="../../d1/da8/_attributes_8h.html" target="_top" xlink:title="mozilla/Attributes.h">
<polygon fill="white" stroke="black" points="779.5,-58.5 779.5,-79.5 880.5,-79.5 880.5,-58.5 779.5,-58.5"/>
<text text-anchor="middle" x="830" y="-66.5" font-family="Helvetica,sans-Serif" font-size="10.00">mozilla/Attributes.h</text>
</a>
</g>
<!-- Node8&#45;&gt;Node11 -->
<g id="edge22" class="edge"><title>Node8&#45;&gt;Node11</title>
<path fill="none" stroke="midnightblue" d="M190.835,-174.452C194.18,-158.752 202.873,-129.626 223,-116 245.384,-100.846 619.673,-79.8954 769.101,-72.0917"/>
<polygon fill="midnightblue" stroke="midnightblue" points="769.659,-75.5675 779.463,-71.5528 769.295,-68.577 769.659,-75.5675"/>
</g>
<!-- Node12 -->
<g id="node24" class="node"><title>Node12</title>
<a xlink:href="../../da/da7/_compiler_8h.html" target="_top" xlink:title="mozilla/Compiler.h">
<polygon fill="white" stroke="black" points="781,-0.5 781,-21.5 879,-21.5 879,-0.5 781,-0.5"/>
<text text-anchor="middle" x="830" y="-8.5" font-family="Helvetica,sans-Serif" font-size="10.00">mozilla/Compiler.h</text>
</a>
</g>
<!-- Node11&#45;&gt;Node12 -->
<g id="edge24" class="edge"><title>Node11&#45;&gt;Node12</title>
<path fill="none" stroke="midnightblue" d="M830,-58.3619C830,-50.9219 830,-40.7427 830,-31.7276"/>
<polygon fill="midnightblue" stroke="midnightblue" points="833.5,-31.5706 830,-21.5707 826.5,-31.5707 833.5,-31.5706"/>
</g>
<!-- Node16&#45;&gt;Node12 -->
<g id="edge34" class="edge"><title>Node16&#45;&gt;Node12</title>
<path fill="none" stroke="midnightblue" d="M582.666,-60.1279C633.051,-50.1201 715.205,-33.8017 770.876,-22.7438"/>
<polygon fill="midnightblue" stroke="midnightblue" points="771.822,-26.1243 780.949,-20.743 770.459,-19.2584 771.822,-26.1243"/>
</g>
<!-- Node17&#45;&gt;Node15 -->
<g id="edge44" class="edge"><title>Node17&#45;&gt;Node15</title>
<path fill="none" stroke="midnightblue" d="M542.022,-178.848C577.591,-170.878 641.008,-156.134 703.576,-138.278"/>
<polygon fill="midnightblue" stroke="midnightblue" points="704.561,-141.637 713.201,-135.504 702.623,-134.91 704.561,-141.637"/>
</g>
<!-- Node18 -->
<g id="node37" class="node"><title>Node18</title>
<a xlink:href="../../d1/d8a/_likely_8h.html" target="_top" xlink:title="mozilla/Likely.h">
<polygon fill="white" stroke="black" points="612,-116.5 612,-137.5 696,-137.5 696,-116.5 612,-116.5"/>
<text text-anchor="middle" x="654" y="-124.5" font-family="Helvetica,sans-Serif" font-size="10.00">mozilla/Likely.h</text>
</a>
</g>
<!-- Node17&#45;&gt;Node18 -->
<g id="edge38" class="edge"><title>Node17&#45;&gt;Node18</title>
<path fill="none" stroke="midnightblue" d="M539.353,-174.497C561.613,-165.275 594.212,-151.769 618.963,-141.515"/>
<polygon fill="midnightblue" stroke="midnightblue" points="620.464,-144.682 628.363,-137.621 617.784,-138.215 620.464,-144.682"/>
</g>
<!-- Node19 -->
<g id="node39" class="node"><title>Node19</title>
<a xlink:href="../../d3/dff/_typed_enum_8h.html" target="_top" xlink:title="mozilla/TypedEnum.h">
<polygon fill="white" stroke="black" points="483.5,-116.5 483.5,-137.5 594.5,-137.5 594.5,-116.5 483.5,-116.5"/>
<text text-anchor="middle" x="539" y="-124.5" font-family="Helvetica,sans-Serif" font-size="10.00">mozilla/TypedEnum.h</text>
</a>
</g>
<!-- Node17&#45;&gt;Node19 -->
<g id="edge40" class="edge"><title>Node17&#45;&gt;Node19</title>
<path fill="none" stroke="midnightblue" d="M518.585,-174.362C521.898,-166.677 526.47,-156.069 530.448,-146.84"/>
<polygon fill="midnightblue" stroke="midnightblue" points="533.699,-148.139 534.444,-137.571 527.271,-145.368 533.699,-148.139"/>
</g>
<!-- Node20 -->
<g id="node43" class="node"><title>Node20</title>
<a xlink:href="../../d7/dda/_error_list_c_defines_8h.html" target="_top" xlink:title="ErrorListCDefines.h">
<polygon fill="white" stroke="black" points="297.5,-116.5 297.5,-137.5 400.5,-137.5 400.5,-116.5 297.5,-116.5"/>
<text text-anchor="middle" x="349" y="-124.5" font-family="Helvetica,sans-Serif" font-size="10.00">ErrorListCDefines.h</text>
</a>
</g>
<!-- Node17&#45;&gt;Node20 -->
<g id="edge46" class="edge"><title>Node17&#45;&gt;Node20</title>
<path fill="none" stroke="midnightblue" d="M485.635,-175.029C458.897,-165.63 418.574,-151.456 388.656,-140.94"/>
<polygon fill="midnightblue" stroke="midnightblue" points="389.539,-137.54 378.944,-137.526 387.217,-144.144 389.539,-137.54"/>
</g>
<!-- Node19&#45;&gt;Node11 -->
<g id="edge42" class="edge"><title>Node19&#45;&gt;Node11</title>
<path fill="none" stroke="midnightblue" d="M591.698,-116.497C641.705,-106.53 716.814,-91.5594 769.303,-81.0977"/>
<polygon fill="midnightblue" stroke="midnightblue" points="770.034,-84.5209 779.157,-79.1337 768.666,-77.6559 770.034,-84.5209"/>
</g>
<!-- Node21&#45;&gt;Node6 -->
<g id="edge50" class="edge"><title>Node21&#45;&gt;Node6</title>
<path fill="none" stroke="midnightblue" d="M337.525,-348.15C334.792,-334.479 331.243,-310.314 335,-290 336.717,-280.715 340.192,-270.894 343.634,-262.644"/>
<polygon fill="midnightblue" stroke="midnightblue" points="346.835,-264.062 347.697,-253.502 340.438,-261.219 346.835,-264.062"/>
</g>
<!-- Node22 -->
<g id="node48" class="node"><title>Node22</title>
<a xlink:href="../../d9/d0a/ns_i_d_8h.html" target="_top" xlink:title="nsID.h">
<polygon fill="white" stroke="black" points="344,-290.5 344,-311.5 390,-311.5 390,-290.5 344,-290.5"/>
<text text-anchor="middle" x="367" y="-298.5" font-family="Helvetica,sans-Serif" font-size="10.00">nsID.h</text>
</a>
</g>
<!-- Node21&#45;&gt;Node22 -->
<g id="edge52" class="edge"><title>Node21&#45;&gt;Node22</title>
<path fill="none" stroke="midnightblue" d="M344.952,-348.362C348.53,-340.677 353.468,-330.069 357.764,-320.84"/>
<polygon fill="midnightblue" stroke="midnightblue" points="361.032,-322.114 362.079,-311.571 354.686,-319.159 361.032,-322.114"/>
</g>
<!-- Node22&#45;&gt;Node6 -->
<g id="edge56" class="edge"><title>Node22&#45;&gt;Node6</title>
<path fill="none" stroke="midnightblue" d="M364.432,-290.362C362.617,-282.84 360.125,-272.519 357.932,-263.431"/>
<polygon fill="midnightblue" stroke="midnightblue" points="361.3,-262.47 355.552,-253.571 354.496,-264.113 361.3,-262.47"/>
</g>
<!-- Node22&#45;&gt;Node10 -->
<g id="edge54" class="edge"><title>Node22&#45;&gt;Node10</title>
<path fill="none" stroke="midnightblue" d="M381.197,-290.466C410.008,-267.829 470.07,-213.409 439,-174 398.46,-122.579 358.658,-153.743 290.59,-138.057"/>
<polygon fill="midnightblue" stroke="midnightblue" points="291.353,-134.64 280.795,-135.52 289.597,-141.416 291.353,-134.64"/>
</g>
<!-- Node23&#45;&gt;Node6 -->
<g id="edge60" class="edge"><title>Node23&#45;&gt;Node6</title>
<path fill="none" stroke="midnightblue" d="M392.784,-464.372C360.024,-449.008 304.274,-417.162 281,-370 261.093,-329.661 303.395,-284.214 331.217,-260.129"/>
<polygon fill="midnightblue" stroke="midnightblue" points="333.538,-262.75 338.959,-253.647 329.044,-257.383 333.538,-262.75"/>
</g>
<!-- Node23&#45;&gt;Node17 -->
<g id="edge64" class="edge"><title>Node23&#45;&gt;Node17</title>
<path fill="none" stroke="midnightblue" d="M421.531,-464.335C435.672,-421.615 488.369,-262.426 507.231,-205.447"/>
<polygon fill="midnightblue" stroke="midnightblue" points="510.617,-206.355 510.437,-195.762 503.972,-204.156 510.617,-206.355"/>
</g>
<!-- Node23&#45;&gt;Node21 -->
<g id="edge62" class="edge"><title>Node23&#45;&gt;Node21</title>
<path fill="none" stroke="midnightblue" d="M410.802,-464.295C397.626,-444.7 369.465,-402.82 352.904,-378.191"/>
<polygon fill="midnightblue" stroke="midnightblue" points="355.665,-376.025 347.181,-369.679 349.856,-379.931 355.665,-376.025"/>
</g>
<!-- Node24 -->
<g id="node57" class="node"><title>Node24</title>
<a xlink:href="../../dc/d6d/ns_debug_8h.html" target="_top" xlink:title="nsDebug.h">
<polygon fill="white" stroke="black" points="500,-348.5 500,-369.5 564,-369.5 564,-348.5 500,-348.5"/>
<text text-anchor="middle" x="532" y="-356.5" font-family="Helvetica,sans-Serif" font-size="10.00">nsDebug.h</text>
</a>
</g>
<!-- Node23&#45;&gt;Node24 -->
<g id="edge66" class="edge"><title>Node23&#45;&gt;Node24</title>
<path fill="none" stroke="midnightblue" d="M428.521,-464.295C448.117,-444.355 490.393,-401.337 514.403,-376.906"/>
<polygon fill="midnightblue" stroke="midnightblue" points="516.992,-379.265 521.505,-369.679 511.999,-374.358 516.992,-379.265"/>
</g>
<!-- Node30 -->
<g id="node78" class="node"><title>Node30</title>
<a xlink:href="../../d0/d5a/ns_i_supports_impl_8h.html" target="_top" xlink:title="nsISupportsImpl.h">
<polygon fill="white" stroke="black" points="578,-406.5 578,-427.5 674,-427.5 674,-406.5 578,-406.5"/>
<text text-anchor="middle" x="626" y="-414.5" font-family="Helvetica,sans-Serif" font-size="10.00">nsISupportsImpl.h</text>
</a>
</g>
<!-- Node23&#45;&gt;Node30 -->
<g id="edge96" class="edge"><title>Node23&#45;&gt;Node30</title>
<path fill="none" stroke="midnightblue" d="M450.327,-464.497C483.099,-454.877 534.165,-440.598 572.863,-430.209"/>
<polygon fill="midnightblue" stroke="midnightblue" points="574.16,-433.485 582.919,-427.523 572.354,-426.722 574.16,-433.485"/>
</g>
<!-- Node24&#45;&gt;Node6 -->
<g id="edge68" class="edge"><title>Node24&#45;&gt;Node6</title>
<path fill="none" stroke="midnightblue" d="M524.782,-348.263C514.289,-333.371 493.49,-306.431 470,-290 445.672,-272.983 414.283,-260.805 390.142,-253.115"/>
<polygon fill="midnightblue" stroke="midnightblue" points="390.868,-249.677 380.282,-250.093 388.817,-256.37 390.868,-249.677"/>
</g>
<!-- Node24&#45;&gt;Node17 -->
<g id="edge70" class="edge"><title>Node24&#45;&gt;Node17</title>
<path fill="none" stroke="midnightblue" d="M530.901,-348.377C527.996,-320.293 520.07,-243.673 516.193,-206.203"/>
<polygon fill="midnightblue" stroke="midnightblue" points="519.641,-205.514 515.13,-195.928 512.678,-206.235 519.641,-205.514"/>
</g>
<!-- Node24&#45;&gt;Node18 -->
<g id="edge94" class="edge"><title>Node24&#45;&gt;Node18</title>
<path fill="none" stroke="midnightblue" d="M564.032,-349.502C592.879,-340.224 632.081,-325.558 641,-312 660.54,-282.295 645.344,-267.289 641,-232 638.985,-215.631 634.015,-212.369 632,-196 630.805,-186.295 629.877,-183.544 632,-174 634.086,-164.622 638.252,-154.901 642.403,-146.75"/>
<polygon fill="midnightblue" stroke="midnightblue" points="645.613,-148.173 647.317,-137.716 639.464,-144.828 645.613,-148.173"/>
</g>
<!-- Node25 -->
<g id="node61" class="node"><title>Node25</title>
<a xlink:href="../../dd/d3a/ns_x_p_c_o_m_8h.html" target="_top" xlink:title="nsXPCOM.h">
<polygon fill="white" stroke="black" points="560,-290.5 560,-311.5 632,-311.5 632,-290.5 560,-290.5"/>
<text text-anchor="middle" x="596" y="-298.5" font-family="Helvetica,sans-Serif" font-size="10.00">nsXPCOM.h</text>
</a>
</g>
<!-- Node24&#45;&gt;Node25 -->
<g id="edge72" class="edge"><title>Node24&#45;&gt;Node25</title>
<path fill="none" stroke="midnightblue" d="M543.739,-348.362C552.941,-340.023 565.94,-328.242 576.672,-318.516"/>
<polygon fill="midnightblue" stroke="midnightblue" points="579.276,-320.879 584.336,-311.571 574.576,-315.692 579.276,-320.879"/>
</g>
<!-- Node27 -->
<g id="node66" class="node"><title>Node27</title>
<a xlink:href="../../d9/de9/_assertions_8h.html" target="_top" xlink:title="mozilla/Assertions.h">
<polygon fill="white" stroke="black" points="965.5,-232.5 965.5,-253.5 1070.5,-253.5 1070.5,-232.5 965.5,-232.5"/>
<text text-anchor="middle" x="1018" y="-240.5" font-family="Helvetica,sans-Serif" font-size="10.00">mozilla/Assertions.h</text>
</a>
</g>
<!-- Node24&#45;&gt;Node27 -->
<g id="edge78" class="edge"><title>Node24&#45;&gt;Node27</title>
<path fill="none" stroke="midnightblue" d="M564.217,-350.307C567.185,-349.521 570.147,-348.742 573,-348 675.025,-321.451 700.381,-314.149 803,-290 854.992,-277.765 914.312,-264.877 957.454,-255.698"/>
<polygon fill="midnightblue" stroke="midnightblue" points="958.451,-259.065 967.506,-253.564 956.997,-252.217 958.451,-259.065"/>
</g>
<!-- Node25&#45;&gt;Node6 -->
<g id="edge74" class="edge"><title>Node25&#45;&gt;Node6</title>
<path fill="none" stroke="midnightblue" d="M559.883,-292.379C514.281,-281.495 436.232,-262.866 390.148,-251.867"/>
<polygon fill="midnightblue" stroke="midnightblue" points="390.808,-248.426 380.268,-249.508 389.182,-255.235 390.808,-248.426"/>
</g>
<!-- Node26 -->
<g id="node64" class="node"><title>Node26</title>
<a xlink:href="../../d1/d66/ns_x_p_c_o_m_c_i_d_8h.html" target="_top" xlink:title="nsXPCOMCID.h">
<polygon fill="white" stroke="black" points="542,-232.5 542,-253.5 632,-253.5 632,-232.5 542,-232.5"/>
<text text-anchor="middle" x="587" y="-240.5" font-family="Helvetica,sans-Serif" font-size="10.00">nsXPCOMCID.h</text>
</a>
</g>
<!-- Node25&#45;&gt;Node26 -->
<g id="edge76" class="edge"><title>Node25&#45;&gt;Node26</title>
<path fill="none" stroke="midnightblue" d="M594.349,-290.362C593.195,-282.922 591.615,-272.743 590.216,-263.728"/>
<polygon fill="midnightblue" stroke="midnightblue" points="593.632,-262.916 588.64,-253.571 586.715,-263.989 593.632,-262.916"/>
</g>
<!-- Node27&#45;&gt;Node9 -->
<g id="edge90" class="edge"><title>Node27&#45;&gt;Node9</title>
<path fill="none" stroke="midnightblue" d="M969.268,-232.478C935.831,-224.454 890.841,-212.05 853,-196 835.034,-188.38 833.554,-180.049 815,-174 673.632,-127.913 625.567,-168.395 476.323,-137.882"/>
<polygon fill="midnightblue" stroke="midnightblue" points="476.852,-134.417 466.344,-135.768 475.402,-141.265 476.852,-134.417"/>
</g>
<!-- Node27&#45;&gt;Node11 -->
<g id="edge80" class="edge"><title>Node27&#45;&gt;Node11</title>
<path fill="none" stroke="midnightblue" d="M1070.66,-234.01C1114.22,-224.147 1165.58,-205.392 1143,-174 1113.16,-132.516 973.034,-97.8802 890.735,-80.679"/>
<polygon fill="midnightblue" stroke="midnightblue" points="891.253,-77.2121 880.752,-78.6185 889.838,-84.0676 891.253,-77.2121"/>
</g>
<!-- Node27&#45;&gt;Node12 -->
<g id="edge82" class="edge"><title>Node27&#45;&gt;Node12</title>
<path fill="none" stroke="midnightblue" d="M1070.76,-237.504C1118.82,-229.978 1179.43,-212.676 1159,-174 1106.18,-74.0058 968.559,-34.3225 889.044,-19.3817"/>
<polygon fill="midnightblue" stroke="midnightblue" points="889.635,-15.9318 879.171,-17.5976 888.39,-22.8202 889.635,-15.9318"/>
</g>
<!-- Node27&#45;&gt;Node14 -->
<g id="edge86" class="edge"><title>Node27&#45;&gt;Node14</title>
<path fill="none" stroke="midnightblue" d="M971.479,-232.446C931.282,-223.209 871.681,-209.236 820,-196 818.744,-195.678 817.467,-195.348 816.178,-195.011"/>
<polygon fill="midnightblue" stroke="midnightblue" points="816.779,-191.548 806.215,-192.351 814.974,-198.312 816.779,-191.548"/>
</g>
<!-- Node27&#45;&gt;Node18 -->
<g id="edge84" class="edge"><title>Node27&#45;&gt;Node18</title>
<path fill="none" stroke="midnightblue" d="M1014.31,-232.262C1008.32,-216.591 994.888,-187.821 973,-174 874.061,-111.527 825.956,-156.188 706.145,-138.001"/>
<polygon fill="midnightblue" stroke="midnightblue" points="706.685,-134.543 696.25,-136.381 705.554,-141.451 706.685,-134.543"/>
</g>
<!-- Node28 -->
<g id="node72" class="node"><title>Node28</title>
<polygon fill="white" stroke="#bfbfbf" points="1020,-174.5 1020,-195.5 1066,-195.5 1066,-174.5 1020,-174.5"/>
<text text-anchor="middle" x="1043" y="-182.5" font-family="Helvetica,sans-Serif" font-size="10.00">stdio.h</text>
</g>
<!-- Node27&#45;&gt;Node28 -->
<g id="edge88" class="edge"><title>Node27&#45;&gt;Node28</title>
<path fill="none" stroke="midnightblue" d="M1022.59,-232.362C1025.9,-224.677 1030.47,-214.069 1034.45,-204.84"/>
<polygon fill="midnightblue" stroke="midnightblue" points="1037.7,-206.139 1038.44,-195.571 1031.27,-203.368 1037.7,-206.139"/>
</g>
<!-- Node29 -->
<g id="node75" class="node"><title>Node29</title>
<polygon fill="white" stroke="#bfbfbf" points="1084,-174.5 1084,-195.5 1134,-195.5 1134,-174.5 1084,-174.5"/>
<text text-anchor="middle" x="1109" y="-182.5" font-family="Helvetica,sans-Serif" font-size="10.00">signal.h</text>
</g>
<!-- Node27&#45;&gt;Node29 -->
<g id="edge92" class="edge"><title>Node27&#45;&gt;Node29</title>
<path fill="none" stroke="midnightblue" d="M1034.69,-232.362C1048.42,-223.614 1068.08,-211.079 1083.74,-201.101"/>
<polygon fill="midnightblue" stroke="midnightblue" points="1085.86,-203.897 1092.42,-195.571 1082.1,-197.994 1085.86,-203.897"/>
</g>
<!-- Node30&#45;&gt;Node6 -->
<g id="edge98" class="edge"><title>Node30&#45;&gt;Node6</title>
<path fill="none" stroke="midnightblue" d="M581.446,-406.445C554.12,-398.798 519.106,-386.828 491,-370 464.474,-354.119 401.362,-291.912 370.542,-260.849"/>
<polygon fill="midnightblue" stroke="midnightblue" points="372.963,-258.32 363.444,-253.67 367.986,-263.242 372.963,-258.32"/>
</g>
<!-- Node30&#45;&gt;Node11 -->
<g id="edge136" class="edge"><title>Node30&#45;&gt;Node11</title>
<path fill="none" stroke="midnightblue" d="M674.28,-414.728C841.242,-406.239 1384,-373.098 1384,-301 1384,-301 1384,-301 1384,-185 1384,-135.039 1034.38,-91.2509 890.62,-75.3578"/>
<polygon fill="midnightblue" stroke="midnightblue" points="890.955,-71.8737 880.632,-74.262 890.191,-78.8319 890.955,-71.8737"/>
</g>
<!-- Node30&#45;&gt;Node18 -->
<g id="edge140" class="edge"><title>Node30&#45;&gt;Node18</title>
<path fill="none" stroke="midnightblue" d="M644.434,-406.467C656.749,-398.287 671.938,-385.702 679,-370 688.033,-349.917 665.954,-202.478 657.3,-147.548"/>
<polygon fill="midnightblue" stroke="midnightblue" points="660.742,-146.911 655.717,-137.584 653.829,-148.01 660.742,-146.911"/>
</g>
<!-- Node30&#45;&gt;Node21 -->
<g id="edge100" class="edge"><title>Node30&#45;&gt;Node21</title>
<path fill="none" stroke="midnightblue" d="M577.807,-407.227C528.903,-397.309 453.072,-381.931 400.233,-371.215"/>
<polygon fill="midnightblue" stroke="midnightblue" points="400.813,-367.762 390.317,-369.204 399.422,-374.622 400.813,-367.762"/>
</g>
<!-- Node30&#45;&gt;Node23 -->
<g id="edge102" class="edge"><title>Node30&#45;&gt;Node23</title>
<path fill="none" stroke="midnightblue" d="M593.606,-427.523C560.809,-437.149 509.739,-451.428 471.058,-461.812"/>
<polygon fill="midnightblue" stroke="midnightblue" points="469.766,-458.535 461.007,-464.497 471.572,-465.298 469.766,-458.535"/>
</g>
<!-- Node30&#45;&gt;Node24 -->
<g id="edge120" class="edge"><title>Node30&#45;&gt;Node24</title>
<path fill="none" stroke="midnightblue" d="M608.759,-406.362C594.448,-397.532 573.885,-384.844 557.643,-374.822"/>
<polygon fill="midnightblue" stroke="midnightblue" points="559.48,-371.843 549.132,-369.571 555.804,-377.8 559.48,-371.843"/>
</g>
<!-- Node30&#45;&gt;Node27 -->
<g id="edge138" class="edge"><title>Node30&#45;&gt;Node27</title>
<path fill="none" stroke="midnightblue" d="M674.039,-406.973C708.451,-398.995 755.499,-386.444 795,-370 871.319,-338.229 954.154,-285.797 993.968,-259.343"/>
<polygon fill="midnightblue" stroke="midnightblue" points="996.101,-262.127 1002.47,-253.657 992.208,-256.31 996.101,-262.127"/>
</g>
<!-- Node31 -->
<g id="node83" class="node"><title>Node31</title>
<a xlink:href="../../d2/df8/prthread_8h.html" target="_top" xlink:title="prthread.h">
<polygon fill="white" stroke="black" points="726,-348.5 726,-369.5 786,-369.5 786,-348.5 726,-348.5"/>
<text text-anchor="middle" x="756" y="-356.5" font-family="Helvetica,sans-Serif" font-size="10.00">prthread.h</text>
</a>
</g>
<!-- Node30&#45;&gt;Node31 -->
<g id="edge104" class="edge"><title>Node30&#45;&gt;Node31</title>
<path fill="none" stroke="midnightblue" d="M649.542,-406.497C670.029,-397.356 699.947,-384.008 722.854,-373.788"/>
<polygon fill="midnightblue" stroke="midnightblue" points="724.488,-376.892 732.194,-369.621 721.635,-370.499 724.488,-376.892"/>
</g>
<!-- Node37 -->
<g id="node98" class="node"><title>Node37</title>
<a xlink:href="../../dc/d1c/ns_trace_refcnt_8h.html" target="_top" xlink:title="nsTraceRefcnt.h">
<polygon fill="white" stroke="black" points="581.5,-348.5 581.5,-369.5 670.5,-369.5 670.5,-348.5 581.5,-348.5"/>
<text text-anchor="middle" x="626" y="-356.5" font-family="Helvetica,sans-Serif" font-size="10.00">nsTraceRefcnt.h</text>
</a>
</g>
<!-- Node30&#45;&gt;Node37 -->
<g id="edge122" class="edge"><title>Node30&#45;&gt;Node37</title>
<path fill="none" stroke="midnightblue" d="M626,-406.362C626,-398.922 626,-388.743 626,-379.728"/>
<polygon fill="midnightblue" stroke="midnightblue" points="629.5,-379.571 626,-369.571 622.5,-379.571 629.5,-379.571"/>
</g>
<!-- Node38 -->
<g id="node101" class="node"><title>Node38</title>
<a xlink:href="../../db/d18/_atomics_8h.html" target="_top" xlink:title="mozilla/Atomics.h">
<polygon fill="white" stroke="black" points="1144.5,-290.5 1144.5,-311.5 1239.5,-311.5 1239.5,-290.5 1144.5,-290.5"/>
<text text-anchor="middle" x="1192" y="-298.5" font-family="Helvetica,sans-Serif" font-size="10.00">mozilla/Atomics.h</text>
</a>
</g>
<!-- Node30&#45;&gt;Node38 -->
<g id="edge126" class="edge"><title>Node30&#45;&gt;Node38</title>
<path fill="none" stroke="midnightblue" d="M674.164,-413.002C741.264,-406.854 866.413,-393.279 971,-370 1036.34,-355.457 1110.19,-330.637 1153.83,-315.064"/>
<polygon fill="midnightblue" stroke="midnightblue" points="1155.23,-318.279 1163.46,-311.603 1152.86,-311.692 1155.23,-318.279"/>
</g>
<!-- Node32 -->
<g id="node85" class="node"><title>Node32</title>
<a xlink:href="../../dc/d23/prtypes_8h.html" target="_top" xlink:title="prtypes.h">
<polygon fill="white" stroke="black" points="751.5,-232.5 751.5,-253.5 808.5,-253.5 808.5,-232.5 751.5,-232.5"/>
<text text-anchor="middle" x="780" y="-240.5" font-family="Helvetica,sans-Serif" font-size="10.00">prtypes.h</text>
</a>
</g>
<!-- Node31&#45;&gt;Node32 -->
<g id="edge106" class="edge"><title>Node31&#45;&gt;Node32</title>
<path fill="none" stroke="midnightblue" d="M758.215,-348.295C762.198,-329.045 770.63,-288.289 775.757,-263.509"/>
<polygon fill="midnightblue" stroke="midnightblue" points="779.192,-264.181 777.791,-253.679 772.337,-262.763 779.192,-264.181"/>
</g>
<!-- Node36 -->
<g id="node94" class="node"><title>Node36</title>
<a xlink:href="../../d7/dc8/prinrval_8h.html" target="_top" xlink:title="prinrval.h">
<polygon fill="white" stroke="black" points="812,-290.5 812,-311.5 868,-311.5 868,-290.5 812,-290.5"/>
<text text-anchor="middle" x="840" y="-298.5" font-family="Helvetica,sans-Serif" font-size="10.00">prinrval.h</text>
</a>
</g>
<!-- Node31&#45;&gt;Node36 -->
<g id="edge116" class="edge"><title>Node31&#45;&gt;Node36</title>
<path fill="none" stroke="midnightblue" d="M771.407,-348.362C783.958,-339.696 801.892,-327.313 816.275,-317.382"/>
<polygon fill="midnightblue" stroke="midnightblue" points="818.45,-320.133 824.691,-311.571 814.473,-314.372 818.45,-320.133"/>
</g>
<!-- Node32&#45;&gt;Node14 -->
<g id="edge110" class="edge"><title>Node32&#45;&gt;Node14</title>
<path fill="none" stroke="midnightblue" d="M780,-232.362C780,-224.922 780,-214.743 780,-205.728"/>
<polygon fill="midnightblue" stroke="midnightblue" points="783.5,-205.571 780,-195.571 776.5,-205.571 783.5,-205.571"/>
</g>
<!-- Node33 -->
<g id="node87" class="node"><title>Node33</title>
<a xlink:href="../../d7/d7e/prcpucfg_8h.html" target="_top" xlink:title="prcpucfg.h">
<polygon fill="white" stroke="black" points="674,-174.5 674,-195.5 736,-195.5 736,-174.5 674,-174.5"/>
<text text-anchor="middle" x="705" y="-182.5" font-family="Helvetica,sans-Serif" font-size="10.00">prcpucfg.h</text>
</a>
</g>
<!-- Node32&#45;&gt;Node33 -->
<g id="edge108" class="edge"><title>Node32&#45;&gt;Node33</title>
<path fill="none" stroke="midnightblue" d="M766.244,-232.362C755.249,-223.859 739.627,-211.779 726.914,-201.947"/>
<polygon fill="midnightblue" stroke="midnightblue" points="728.721,-198.919 718.669,-195.571 724.438,-204.457 728.721,-198.919"/>
</g>
<!-- Node34 -->
<g id="node90" class="node"><title>Node34</title>
<a xlink:href="../../d2/de8/protypes_8h.html" target="_top" xlink:title="obsolete/protypes.h">
<polygon fill="white" stroke="black" points="862,-174.5 862,-195.5 964,-195.5 964,-174.5 862,-174.5"/>
<text text-anchor="middle" x="913" y="-182.5" font-family="Helvetica,sans-Serif" font-size="10.00">obsolete/protypes.h</text>
</a>
</g>
<!-- Node32&#45;&gt;Node34 -->
<g id="edge112" class="edge"><title>Node32&#45;&gt;Node34</title>
<path fill="none" stroke="midnightblue" d="M804.085,-232.497C825.139,-223.315 855.927,-209.889 879.402,-199.652"/>
<polygon fill="midnightblue" stroke="midnightblue" points="880.877,-202.827 888.644,-195.621 878.079,-196.41 880.877,-202.827"/>
</g>
<!-- Node35 -->
<g id="node92" class="node"><title>Node35</title>
<polygon fill="white" stroke="#bfbfbf" points="879,-116.5 879,-137.5 947,-137.5 947,-116.5 879,-116.5"/>
<text text-anchor="middle" x="913" y="-124.5" font-family="Helvetica,sans-Serif" font-size="10.00">sys/types.h</text>
</g>
<!-- Node34&#45;&gt;Node35 -->
<g id="edge114" class="edge"><title>Node34&#45;&gt;Node35</title>
<path fill="none" stroke="midnightblue" d="M913,-174.362C913,-166.922 913,-156.743 913,-147.728"/>
<polygon fill="midnightblue" stroke="midnightblue" points="916.5,-147.571 913,-137.571 909.5,-147.571 916.5,-147.571"/>
</g>
<!-- Node36&#45;&gt;Node32 -->
<g id="edge118" class="edge"><title>Node36&#45;&gt;Node32</title>
<path fill="none" stroke="midnightblue" d="M828.995,-290.362C820.453,-282.104 808.42,-270.472 798.417,-260.803"/>
<polygon fill="midnightblue" stroke="midnightblue" points="800.558,-258.004 790.935,-253.571 795.692,-263.037 800.558,-258.004"/>
</g>
<!-- Node37&#45;&gt;Node25 -->
<g id="edge124" class="edge"><title>Node37&#45;&gt;Node25</title>
<path fill="none" stroke="midnightblue" d="M620.498,-348.362C616.48,-340.595 610.919,-329.843 606.11,-320.546"/>
<polygon fill="midnightblue" stroke="midnightblue" points="609.171,-318.845 601.468,-311.571 602.953,-322.061 609.171,-318.845"/>
</g>
<!-- Node38&#45;&gt;Node15 -->
<g id="edge134" class="edge"><title>Node38&#45;&gt;Node15</title>
<path fill="none" stroke="midnightblue" d="M1191.42,-290.334C1189.43,-265.405 1180.74,-203.233 1143,-174 1128.39,-162.68 867.896,-138.534 772.575,-130.036"/>
<polygon fill="midnightblue" stroke="midnightblue" points="772.843,-126.546 762.573,-129.148 772.224,-133.519 772.843,-126.546"/>
</g>
<!-- Node38&#45;&gt;Node27 -->
<g id="edge128" class="edge"><title>Node38&#45;&gt;Node27</title>
<path fill="none" stroke="midnightblue" d="M1160.49,-290.497C1132.12,-281.041 1090.25,-267.083 1059.23,-256.743"/>
<polygon fill="midnightblue" stroke="midnightblue" points="1060.16,-253.365 1049.57,-253.523 1057.95,-260.006 1060.16,-253.365"/>
</g>
<!-- Node39 -->
<g id="node104" class="node"><title>Node39</title>
<a xlink:href="../../d4/dd5/_type_traits_8h.html" target="_top" xlink:title="mozilla/TypeTraits.h">
<polygon fill="white" stroke="black" points="1251.5,-232.5 1251.5,-253.5 1356.5,-253.5 1356.5,-232.5 1251.5,-232.5"/>
<text text-anchor="middle" x="1304" y="-240.5" font-family="Helvetica,sans-Serif" font-size="10.00">mozilla/TypeTraits.h</text>
</a>
</g>
<!-- Node38&#45;&gt;Node39 -->
<g id="edge130" class="edge"><title>Node38&#45;&gt;Node39</title>
<path fill="none" stroke="midnightblue" d="M1212.28,-290.497C1229.62,-281.519 1254.79,-268.484 1274.38,-258.339"/>
<polygon fill="midnightblue" stroke="midnightblue" points="1276.22,-261.328 1283.49,-253.621 1273,-255.112 1276.22,-261.328"/>
</g>
<!-- Node40 -->
<g id="node106" class="node"><title>Node40</title>
<polygon fill="white" stroke="#bfbfbf" points="1278.5,-174.5 1278.5,-195.5 1329.5,-195.5 1329.5,-174.5 1278.5,-174.5"/>
<text text-anchor="middle" x="1304" y="-182.5" font-family="Helvetica,sans-Serif" font-size="10.00">wchar.h</text>
</g>
<!-- Node39&#45;&gt;Node40 -->
<g id="edge132" class="edge"><title>Node39&#45;&gt;Node40</title>
<path fill="none" stroke="midnightblue" d="M1304,-232.362C1304,-224.922 1304,-214.743 1304,-205.728"/>
<polygon fill="midnightblue" stroke="midnightblue" points="1307.5,-205.571 1304,-195.571 1300.5,-205.571 1307.5,-205.571"/>
</g>
</g>
</svg>
        <g id="navigator" transform="translate(0 0)" fill="#404254">
                <rect fill="#f2f5e9" fill-opacity="0.5" stroke="#606060" stroke-width=".5" x="0" y="0" width="60" height="60"/>
                <use id="zoomplus" xlink:href="#zoomPlus" x="17" y="9" onmousedown="handleZoom(evt,'in')"/>
                <use id="zoomminus" xlink:href="#zoomMin" x="42" y="9" onmousedown="handleZoom(evt,'out')"/>
                <use id="reset" xlink:href="#resetDef" x="30" y="36" onmousedown="handleReset()"/>
                <g id="arrowUp" xlink:href="#dirArrow" transform="translate(30 24)" onmousedown="handlePan(0,-1)">
                  <use xlink:href="#rim" fill="#404040">
                        <set attributeName="fill" to="#808080" begin="arrowUp.mouseover" end="arrowUp.mouseout"/>
                  </use>
                  <path fill="none" stroke="white" stroke-width="1.5" d="M0,-3.0v7 M-2.5,-0.5L0,-3.0L2.5,-0.5"/>
                </g>
                <g id="arrowRight" xlink:href="#dirArrow" transform="rotate(90) translate(36 -43)" onmousedown="handlePan(1,0)">
                  <use xlink:href="#rim" fill="#404040">
                        <set attributeName="fill" to="#808080" begin="arrowRight.mouseover" end="arrowRight.mouseout"/>
                  </use>
                  <path fill="none" stroke="white" stroke-width="1.5" d="M0,-3.0v7 M-2.5,-0.5L0,-3.0L2.5,-0.5"/>
                </g>
                <g id="arrowDown" xlink:href="#dirArrow" transform="rotate(180) translate(-30 -48)" onmousedown="handlePan(0,1)">
                  <use xlink:href="#rim" fill="#404040">
                        <set attributeName="fill" to="#808080" begin="arrowDown.mouseover" end="arrowDown.mouseout"/>
                  </use>
                  <path fill="none" stroke="white" stroke-width="1.5" d="M0,-3.0v7 M-2.5,-0.5L0,-3.0L2.5,-0.5"/>
                </g>
                <g id="arrowLeft" xlink:href="#dirArrow" transform="rotate(270) translate(-36 17)" onmousedown="handlePan(-1,0)">
                  <use xlink:href="#rim" fill="#404040">
                        <set attributeName="fill" to="#808080" begin="arrowLeft.mouseover" end="arrowLeft.mouseout"/>
                  </use>
                  <path fill="none" stroke="white" stroke-width="1.5" d="M0,-3.0v7 M-2.5,-0.5L0,-3.0L2.5,-0.5"/>
                </g>
        </g>
</svg>
