<?xml version="1.0" encoding="UTF-8" standalone="no"?>
<!DOCTYPE svg PUBLIC "-//W3C//DTD SVG 1.1//EN"
 "http://www.w3.org/Graphics/SVG/1.1/DTD/svg11.dtd">
<!-- Generated by graphviz version 2.26.3 (20100126.1600)
 -->
<!-- Title: G Pages: 1 -->
<svg width="356pt" height="262pt"
 viewBox="0.00 0.00 356.00 262.00" xmlns="http://www.w3.org/2000/svg" xmlns:xlink="http://www.w3.org/1999/xlink">
<g id="graph1" class="graph" transform="scale(1 1) rotate(0) translate(4 258)">
<title>G</title>
<polygon fill="white" stroke="white" points="-4,5 -4,-258 353,-258 353,5 -4,5"/>
<!-- Node1 -->
<g id="node1" class="node"><title>Node1</title>
<polygon fill="#bfbfbf" stroke="black" points="0,-232.5 0,-253.5 348,-253.5 348,-232.5 0,-232.5"/>
<text text-anchor="middle" x="174" y="-240.5" font-family="Helvetica,sans-Serif" font-size="10.00">/home/aoi/Documents/FxOS/B2G/gaia/xulrunner&#45;sdk/include/nspr/prthread.h</text>
</g>
<!-- Node2 -->
<g id="node3" class="node"><title>Node2</title>
<a xlink:href="../../dc/d23/prtypes_8h.html" target="_top" xlink:title="prtypes.h">
<polygon fill="white" stroke="black" points="145.5,-116.5 145.5,-137.5 202.5,-137.5 202.5,-116.5 145.5,-116.5"/>
<text text-anchor="middle" x="174" y="-124.5" font-family="Helvetica,sans-Serif" font-size="10.00">prtypes.h</text>
</a>
</g>
<!-- Node1&#45;&gt;Node2 -->
<g id="edge2" class="edge"><title>Node1&#45;&gt;Node2</title>
<path fill="none" stroke="midnightblue" d="M171.341,-232.256C169.142,-222.784 166.193,-208.572 165,-196 164.076,-186.266 164.076,-183.734 165,-174 165.829,-165.259 167.508,-155.724 169.193,-147.542"/>
<polygon fill="midnightblue" stroke="midnightblue" points="172.618,-148.261 171.341,-137.744 165.781,-146.762 172.618,-148.261"/>
</g>
<!-- Node7 -->
<g id="node13" class="node"><title>Node7</title>
<a xlink:href="../../d7/dc8/prinrval_8h.html" target="_top" xlink:title="prinrval.h">
<polygon fill="white" stroke="black" points="174,-174.5 174,-195.5 230,-195.5 230,-174.5 174,-174.5"/>
<text text-anchor="middle" x="202" y="-182.5" font-family="Helvetica,sans-Serif" font-size="10.00">prinrval.h</text>
</a>
</g>
<!-- Node1&#45;&gt;Node7 -->
<g id="edge12" class="edge"><title>Node1&#45;&gt;Node7</title>
<path fill="none" stroke="midnightblue" d="M179.136,-232.362C182.846,-224.677 187.967,-214.069 192.422,-204.84"/>
<polygon fill="midnightblue" stroke="midnightblue" points="195.701,-206.098 196.897,-195.571 189.397,-203.055 195.701,-206.098"/>
</g>
<!-- Node3 -->
<g id="node5" class="node"><title>Node3</title>
<a xlink:href="../../d7/d7e/prcpucfg_8h.html" target="_top" xlink:title="prcpucfg.h">
<polygon fill="white" stroke="black" points="68,-58.5 68,-79.5 130,-79.5 130,-58.5 68,-58.5"/>
<text text-anchor="middle" x="99" y="-66.5" font-family="Helvetica,sans-Serif" font-size="10.00">prcpucfg.h</text>
</a>
</g>
<!-- Node2&#45;&gt;Node3 -->
<g id="edge4" class="edge"><title>Node2&#45;&gt;Node3</title>
<path fill="none" stroke="midnightblue" d="M160.244,-116.362C149.249,-107.859 133.627,-95.7785 120.914,-85.9466"/>
<polygon fill="midnightblue" stroke="midnightblue" points="122.721,-82.9195 112.669,-79.5707 118.438,-88.4569 122.721,-82.9195"/>
</g>
<!-- Node4 -->
<g id="node7" class="node"><title>Node4</title>
<polygon fill="white" stroke="#bfbfbf" points="148,-58.5 148,-79.5 200,-79.5 200,-58.5 148,-58.5"/>
<text text-anchor="middle" x="174" y="-66.5" font-family="Helvetica,sans-Serif" font-size="10.00">stddef.h</text>
</g>
<!-- Node2&#45;&gt;Node4 -->
<g id="edge6" class="edge"><title>Node2&#45;&gt;Node4</title>
<path fill="none" stroke="midnightblue" d="M174,-116.362C174,-108.922 174,-98.7427 174,-89.7276"/>
<polygon fill="midnightblue" stroke="midnightblue" points="177.5,-89.5706 174,-79.5707 170.5,-89.5707 177.5,-89.5706"/>
</g>
<!-- Node5 -->
<g id="node9" class="node"><title>Node5</title>
<a xlink:href="../../d2/de8/protypes_8h.html" target="_top" xlink:title="obsolete/protypes.h">
<polygon fill="white" stroke="black" points="218,-58.5 218,-79.5 320,-79.5 320,-58.5 218,-58.5"/>
<text text-anchor="middle" x="269" y="-66.5" font-family="Helvetica,sans-Serif" font-size="10.00">obsolete/protypes.h</text>
</a>
</g>
<!-- Node2&#45;&gt;Node5 -->
<g id="edge8" class="edge"><title>Node2&#45;&gt;Node5</title>
<path fill="none" stroke="midnightblue" d="M191.424,-116.362C205.887,-107.532 226.669,-94.844 243.084,-84.8224"/>
<polygon fill="midnightblue" stroke="midnightblue" points="244.975,-87.7688 251.686,-79.5707 241.327,-81.7943 244.975,-87.7688"/>
</g>
<!-- Node6 -->
<g id="node11" class="node"><title>Node6</title>
<polygon fill="white" stroke="#bfbfbf" points="235,-0.5 235,-21.5 303,-21.5 303,-0.5 235,-0.5"/>
<text text-anchor="middle" x="269" y="-8.5" font-family="Helvetica,sans-Serif" font-size="10.00">sys/types.h</text>
</g>
<!-- Node5&#45;&gt;Node6 -->
<g id="edge10" class="edge"><title>Node5&#45;&gt;Node6</title>
<path fill="none" stroke="midnightblue" d="M269,-58.3619C269,-50.9219 269,-40.7427 269,-31.7276"/>
<polygon fill="midnightblue" stroke="midnightblue" points="272.5,-31.5706 269,-21.5707 265.5,-31.5707 272.5,-31.5706"/>
</g>
<!-- Node7&#45;&gt;Node2 -->
<g id="edge14" class="edge"><title>Node7&#45;&gt;Node2</title>
<path fill="none" stroke="midnightblue" d="M196.864,-174.362C193.154,-166.677 188.033,-156.069 183.578,-146.84"/>
<polygon fill="midnightblue" stroke="midnightblue" points="186.603,-145.055 179.103,-137.571 180.299,-148.098 186.603,-145.055"/>
</g>
</g>
</svg>
