<?xml version="1.0" encoding="UTF-8" standalone="no"?>
<!DOCTYPE svg PUBLIC "-//W3C//DTD SVG 1.1//EN"
 "http://www.w3.org/Graphics/SVG/1.1/DTD/svg11.dtd">
<!-- Generated by graphviz version 2.26.3 (20100126.1600)
 -->
<!-- Title: G Pages: 1 -->
<!--zoomable 470 -->
<svg id="main" version="1.1" xmlns="http://www.w3.org/2000/svg" xmlns:xlink="http://www.w3.org/1999/xlink" xml:space="preserve" onload="init(evt)">
        <defs>
                <circle id="rim" cx="0" cy="0" r="7"/>
                <circle id="rim2" cx="0" cy="0" r="3.5"/>
                <g id="zoomPlus">
                        <use xlink:href="#rim" fill="#404040">
                                <set attributeName="fill" to="#808080" begin="zoomplus.mouseover" end="zoomplus.mouseout"/>
                        </use>
                        <path d="M-4,0h8M0,-4v8" fill="none" stroke="white" stroke-width="1.5" pointer-events="none"/>
                </g>
                <g id="zoomMin">
                        <use xlink:href="#rim" fill="#404040">
                                <set attributeName="fill" to="#808080" begin="zoomminus.mouseover" end="zoomminus.mouseout"/>
                        </use>
                        <path d="M-4,0h8" fill="none" stroke="white" stroke-width="1.5" pointer-events="none"/>
                </g>
                <g id="dirArrow">
                        <path fill="none" stroke="white" stroke-width="1.5" d="M0,-3.0v7 M-2.5,-0.5L0,-3.0L2.5,-0.5"/>
                </g>
               <g id="resetDef">
                       <use xlink:href="#rim2" fill="#404040">
                               <set attributeName="fill" to="#808080" begin="reset.mouseover" end="reset.mouseout"/>
                       </use>
               </g>
        </defs>

<script type="text/javascript">
var viewWidth = 1102;
var viewHeight = 470;
var sectionId = 'dynsection-24';
</script>
<script xlink:href="../../svgpan.js"/>
<svg id="graph" class="graph">
<g id="viewport">
<title>G</title>
<polygon fill="white" stroke="white" points="-4,5 -4,-466 1099,-466 1099,5 -4,5"/>
<!-- Node1 -->
<g id="node1" class="node"><title>Node1</title>
<polygon fill="#bfbfbf" stroke="black" points="0.5,-220.5 0.5,-241.5 169.5,-241.5 169.5,-220.5 0.5,-220.5"/>
<text text-anchor="middle" x="85" y="-228.5" font-family="Helvetica,sans-Serif" font-size="10.00">nsTArray_Impl::RemoveElementAt</text>
</g>
<!-- Node2 -->
<g id="node3" class="node"><title>Node2</title>
<a xlink:href="../../d8/dad/classmozilla_1_1_media_segment_base.html#a53948f33d2d40a9fd4b286edaf4a7363" target="_top" xlink:title="mozilla::MediaSegmentBase\&lt; VideoSegment, VideoChunk \&gt;::AppendFromInternal">
<polygon fill="white" stroke="black" points="206,-440.5 206,-461.5 582,-461.5 582,-440.5 206,-440.5"/>
<text text-anchor="middle" x="394" y="-448.5" font-family="Helvetica,sans-Serif" font-size="10.00">mozilla::MediaSegmentBase&lt; VideoSegment, VideoChunk &gt;::AppendFromInternal</text>
</a>
</g>
<!-- Node1&#45;&gt;Node2 -->
<g id="edge2" class="edge"><title>Node1&#45;&gt;Node2</title>
<path fill="none" stroke="midnightblue" d="M90.5947,-251.224C103.298,-292.924 138.582,-388.134 206,-431 211.54,-434.522 217.361,-437.616 223.387,-440.327"/>
<polygon fill="midnightblue" stroke="midnightblue" points="93.9521,-250.235 87.7842,-241.621 87.2339,-252.201 93.9521,-250.235"/>
</g>
<!-- Node3 -->
<g id="node5" class="node"><title>Node3</title>
<a xlink:href="../../d3/d5e/classmozilla_1_1_deadlock_detector.html#a842d493367f02292cdd8411a1e56ec5d" target="_top" xlink:title="mozilla::DeadlockDetector::GetDeductionChain_Helper">
<polygon fill="white" stroke="black" points="265.5,-400.5 265.5,-421.5 522.5,-421.5 522.5,-400.5 265.5,-400.5"/>
<text text-anchor="middle" x="394" y="-408.5" font-family="Helvetica,sans-Serif" font-size="10.00">mozilla::DeadlockDetector::GetDeductionChain_Helper</text>
</a>
</g>
<!-- Node1&#45;&gt;Node3 -->
<g id="edge4" class="edge"><title>Node1&#45;&gt;Node3</title>
<path fill="none" stroke="midnightblue" d="M93.4386,-250.803C109.558,-285.901 148.333,-358.391 206,-391 224,-401.179 244.526,-407.559 265.245,-411.393"/>
<polygon fill="midnightblue" stroke="midnightblue" points="96.5956,-249.288 89.331,-241.576 90.2006,-252.135 96.5956,-249.288"/>
</g>
<!-- Node6 -->
<g id="node11" class="node"><title>Node6</title>
<a xlink:href="../../da/d21/classmozilla_1_1_track_union_stream.html#a271712de7dd99b19d98c9f970f663adc" target="_top" xlink:title="mozilla::TrackUnionStream::ProduceOutput">
<polygon fill="white" stroke="black" points="291,-360.5 291,-381.5 497,-381.5 497,-360.5 291,-360.5"/>
<text text-anchor="middle" x="394" y="-368.5" font-family="Helvetica,sans-Serif" font-size="10.00">mozilla::TrackUnionStream::ProduceOutput</text>
</a>
</g>
<!-- Node1&#45;&gt;Node6 -->
<g id="edge10" class="edge"><title>Node1&#45;&gt;Node6</title>
<path fill="none" stroke="midnightblue" d="M97.7517,-250.136C117.358,-277.776 157.744,-328.068 206,-351 231.94,-363.327 262.111,-369.564 290.59,-372.434"/>
<polygon fill="midnightblue" stroke="midnightblue" points="100.485,-247.935 91.9179,-241.702 94.7286,-251.918 100.485,-247.935"/>
</g>
<!-- Node7 -->
<g id="node13" class="node"><title>Node7</title>
<a xlink:href="../../d6/d06/classns_auto_t_observer_array.html#ad7288aff5f96a1e5d87ae2ce17da175d" target="_top" xlink:title="nsAutoTObserverArray\&lt; nsDocLoader *, 0 \&gt;::RemoveElement">
<polygon fill="white" stroke="black" points="249.5,-320.5 249.5,-341.5 538.5,-341.5 538.5,-320.5 249.5,-320.5"/>
<text text-anchor="middle" x="394" y="-328.5" font-family="Helvetica,sans-Serif" font-size="10.00">nsAutoTObserverArray&lt; nsDocLoader *, 0 &gt;::RemoveElement</text>
</a>
</g>
<!-- Node1&#45;&gt;Node7 -->
<g id="edge12" class="edge"><title>Node1&#45;&gt;Node7</title>
<path fill="none" stroke="midnightblue" d="M104.476,-248.227C127.13,-267.17 166.494,-296.799 206,-311 219.745,-315.941 234.392,-319.768 249.213,-322.72"/>
<polygon fill="midnightblue" stroke="midnightblue" points="106.525,-245.374 96.646,-241.545 101.98,-250.699 106.525,-245.374"/>
</g>
<!-- Node8 -->
<g id="node15" class="node"><title>Node8</title>
<a xlink:href="../../d4/dd8/classns_t_array___impl.html#ab012571e534d40747e3252062df9eb11" target="_top" xlink:title="nsTArray_Impl\&lt; nsString, nsTArrayInfallibleAllocator \&gt;::RemoveElement">
<polygon fill="white" stroke="black" points="227.5,-280.5 227.5,-301.5 560.5,-301.5 560.5,-280.5 227.5,-280.5"/>
<text text-anchor="middle" x="394" y="-288.5" font-family="Helvetica,sans-Serif" font-size="10.00">nsTArray_Impl&lt; nsString, nsTArrayInfallibleAllocator &gt;::RemoveElement</text>
</a>
</g>
<!-- Node1&#45;&gt;Node8 -->
<g id="edge14" class="edge"><title>Node1&#45;&gt;Node8</title>
<path fill="none" stroke="midnightblue" d="M121.107,-245.185C144.87,-253.958 176.858,-264.709 206,-271 223.807,-274.844 242.728,-277.962 261.445,-280.487"/>
<polygon fill="midnightblue" stroke="midnightblue" points="122.05,-241.801 111.458,-241.566 119.591,-248.355 122.05,-241.801"/>
</g>
<!-- Node9 -->
<g id="node17" class="node"><title>Node9</title>
<a xlink:href="../../d6/d06/classns_auto_t_observer_array.html#a8cc06d262353a155ec0c873032abdc06" target="_top" xlink:title="nsAutoTObserverArray\&lt; nsDocLoader *, 0 \&gt;::RemoveElementAt">
<polygon fill="white" stroke="black" points="244.5,-240.5 244.5,-261.5 543.5,-261.5 543.5,-240.5 244.5,-240.5"/>
<text text-anchor="middle" x="394" y="-248.5" font-family="Helvetica,sans-Serif" font-size="10.00">nsAutoTObserverArray&lt; nsDocLoader *, 0 &gt;::RemoveElementAt</text>
</a>
</g>
<!-- Node1&#45;&gt;Node9 -->
<g id="edge16" class="edge"><title>Node1&#45;&gt;Node9</title>
<path fill="none" stroke="midnightblue" d="M180.033,-237.151C200.428,-238.471 222.454,-239.897 244.35,-241.314"/>
<polygon fill="midnightblue" stroke="midnightblue" points="180.05,-233.645 169.844,-236.492 179.597,-240.63 180.05,-233.645"/>
</g>
<!-- Node10 -->
<g id="node19" class="node"><title>Node10</title>
<a xlink:href="../../d4/dd8/classns_t_array___impl.html#a5034aa3065bbe38791bb8cf05d84fca8" target="_top" xlink:title="nsTArray_Impl\&lt; nsString, nsTArrayInfallibleAllocator \&gt;::RemoveElementSorted">
<polygon fill="white" stroke="black" points="213,-200.5 213,-221.5 575,-221.5 575,-200.5 213,-200.5"/>
<text text-anchor="middle" x="394" y="-208.5" font-family="Helvetica,sans-Serif" font-size="10.00">nsTArray_Impl&lt; nsString, nsTArrayInfallibleAllocator &gt;::RemoveElementSorted</text>
</a>
</g>
<!-- Node1&#45;&gt;Node10 -->
<g id="edge18" class="edge"><title>Node1&#45;&gt;Node10</title>
<path fill="none" stroke="midnightblue" d="M179.948,-224.855C196.409,-223.789 213.935,-222.655 231.6,-221.511"/>
<polygon fill="midnightblue" stroke="midnightblue" points="179.597,-221.37 169.844,-225.508 180.05,-228.355 179.597,-221.37"/>
</g>
<!-- Node11 -->
<g id="node21" class="node"><title>Node11</title>
<a xlink:href="../../d3/dee/classgfx_mixed_font_family.html#a197b7884924ed23ce8bb043cd9c157fd" target="_top" xlink:title="gfxMixedFontFamily::RemoveFontEntry">
<polygon fill="white" stroke="black" points="298.5,-160.5 298.5,-181.5 489.5,-181.5 489.5,-160.5 298.5,-160.5"/>
<text text-anchor="middle" x="394" y="-168.5" font-family="Helvetica,sans-Serif" font-size="10.00">gfxMixedFontFamily::RemoveFontEntry</text>
</a>
</g>
<!-- Node1&#45;&gt;Node11 -->
<g id="edge20" class="edge"><title>Node1&#45;&gt;Node11</title>
<path fill="none" stroke="midnightblue" d="M121.107,-216.815C144.87,-208.042 176.858,-197.291 206,-191 235.678,-184.593 268.453,-180.205 298.214,-177.213"/>
<polygon fill="midnightblue" stroke="midnightblue" points="119.591,-213.645 111.458,-220.434 122.05,-220.199 119.591,-213.645"/>
</g>
<!-- Node12 -->
<g id="node23" class="node"><title>Node12</title>
<a xlink:href="../../da/d21/classmozilla_1_1_track_union_stream.html#a3dc69c8a25fce5eb6ee47c0eba99f926" target="_top" xlink:title="mozilla::TrackUnionStream::RemoveInput">
<polygon fill="white" stroke="black" points="294,-120.5 294,-141.5 494,-141.5 494,-120.5 294,-120.5"/>
<text text-anchor="middle" x="394" y="-128.5" font-family="Helvetica,sans-Serif" font-size="10.00">mozilla::TrackUnionStream::RemoveInput</text>
</a>
</g>
<!-- Node1&#45;&gt;Node12 -->
<g id="edge22" class="edge"><title>Node1&#45;&gt;Node12</title>
<path fill="none" stroke="midnightblue" d="M104.476,-213.773C127.13,-194.83 166.494,-165.201 206,-151 233.645,-141.063 264.938,-135.629 293.951,-132.765"/>
<polygon fill="midnightblue" stroke="midnightblue" points="101.98,-211.301 96.646,-220.455 106.525,-216.626 101.98,-211.301"/>
</g>
<!-- Node13 -->
<g id="node25" class="node"><title>Node13</title>
<a xlink:href="../../d7/d1d/classmozilla_1_1dom_1_1_m_o_z___f_i_n_a_l.html#a3a667e18475d7b3f97366b7132654ee3" target="_top" xlink:title="mozilla::dom::MOZ_FINAL::RemoveInputNode">
<polygon fill="white" stroke="black" points="283.5,-80.5 283.5,-101.5 504.5,-101.5 504.5,-80.5 283.5,-80.5"/>
<text text-anchor="middle" x="394" y="-88.5" font-family="Helvetica,sans-Serif" font-size="10.00">mozilla::dom::MOZ_FINAL::RemoveInputNode</text>
</a>
</g>
<!-- Node1&#45;&gt;Node13 -->
<g id="edge24" class="edge"><title>Node1&#45;&gt;Node13</title>
<path fill="none" stroke="midnightblue" d="M97.7517,-211.864C117.358,-184.224 157.744,-133.932 206,-111 229.717,-99.7296 256.97,-93.5501 283.233,-90.3803"/>
<polygon fill="midnightblue" stroke="midnightblue" points="94.7286,-210.082 91.9179,-220.298 100.485,-214.065 94.7286,-210.082"/>
</g>
<!-- Node14 -->
<g id="node27" class="node"><title>Node14</title>
<a xlink:href="../../d1/df1/classmozilla_1_1dom_1_1_h_t_m_l_options_collection.html#a35f8768b9d156b45699f4a1936d62354" target="_top" xlink:title="mozilla::dom::HTMLOptionsCollection::RemoveOptionAt">
<polygon fill="white" stroke="black" points="262.5,-40.5 262.5,-61.5 525.5,-61.5 525.5,-40.5 262.5,-40.5"/>
<text text-anchor="middle" x="394" y="-48.5" font-family="Helvetica,sans-Serif" font-size="10.00">mozilla::dom::HTMLOptionsCollection::RemoveOptionAt</text>
</a>
</g>
<!-- Node1&#45;&gt;Node14 -->
<g id="edge26" class="edge"><title>Node1&#45;&gt;Node14</title>
<path fill="none" stroke="midnightblue" d="M93.4386,-211.197C109.558,-176.099 148.333,-103.609 206,-71 223.143,-61.3062 242.577,-55.0577 262.287,-51.1721"/>
<polygon fill="midnightblue" stroke="midnightblue" points="90.2006,-209.865 89.331,-220.424 96.5956,-212.712 90.2006,-209.865"/>
</g>
<!-- Node15 -->
<g id="node29" class="node"><title>Node15</title>
<a xlink:href="../../d8/d0d/classmozilla_1_1_time_varying.html#a0af9169ee2ea93a71bd0d75f003da97e" target="_top" xlink:title="mozilla::TimeVarying\&lt; GraphTime, bool, 5 \&gt;::SetAtAndAfter">
<polygon fill="white" stroke="black" points="255,-0.5 255,-21.5 533,-21.5 533,-0.5 255,-0.5"/>
<text text-anchor="middle" x="394" y="-8.5" font-family="Helvetica,sans-Serif" font-size="10.00">mozilla::TimeVarying&lt; GraphTime, bool, 5 &gt;::SetAtAndAfter</text>
</a>
</g>
<!-- Node1&#45;&gt;Node15 -->
<g id="edge28" class="edge"><title>Node1&#45;&gt;Node15</title>
<path fill="none" stroke="midnightblue" d="M90.5947,-210.776C103.298,-169.076 138.582,-73.8661 206,-31 220.68,-21.666 237.34,-15.3396 254.53,-11.1756"/>
<polygon fill="midnightblue" stroke="midnightblue" points="87.2339,-209.799 87.7842,-220.379 93.9521,-211.765 87.2339,-209.799"/>
</g>
<!-- Node4 -->
<g id="node7" class="node"><title>Node4</title>
<a xlink:href="../../d3/d5e/classmozilla_1_1_deadlock_detector.html#a5dea10bc872b7e72d37b77689d7c4e38" target="_top" xlink:title="mozilla::DeadlockDetector::GetDeductionChain">
<polygon fill="white" stroke="black" points="618,-400.5 618,-421.5 842,-421.5 842,-400.5 618,-400.5"/>
<text text-anchor="middle" x="730" y="-408.5" font-family="Helvetica,sans-Serif" font-size="10.00">mozilla::DeadlockDetector::GetDeductionChain</text>
</a>
</g>
<!-- Node3&#45;&gt;Node4 -->
<g id="edge6" class="edge"><title>Node3&#45;&gt;Node4</title>
<path fill="none" stroke="midnightblue" d="M533.27,-411C561.448,-411 590.738,-411 617.84,-411"/>
<polygon fill="midnightblue" stroke="midnightblue" points="532.945,-407.5 522.945,-411 532.945,-414.5 532.945,-407.5"/>
</g>
<!-- Node5 -->
<g id="node9" class="node"><title>Node5</title>
<a xlink:href="../../d3/d5e/classmozilla_1_1_deadlock_detector.html#ae88e9bb875d78bb00fa6a272b0a3dd56" target="_top" xlink:title="mozilla::DeadlockDetector::CheckAcquisition">
<polygon fill="white" stroke="black" points="878.5,-400.5 878.5,-421.5 1093.5,-421.5 1093.5,-400.5 878.5,-400.5"/>
<text text-anchor="middle" x="986" y="-408.5" font-family="Helvetica,sans-Serif" font-size="10.00">mozilla::DeadlockDetector::CheckAcquisition</text>
</a>
</g>
<!-- Node4&#45;&gt;Node5 -->
<g id="edge8" class="edge"><title>Node4&#45;&gt;Node5</title>
<path fill="none" stroke="midnightblue" d="M852.408,-411C861.053,-411 869.732,-411 878.286,-411"/>
<polygon fill="midnightblue" stroke="midnightblue" points="852.285,-407.5 842.285,-411 852.285,-414.5 852.285,-407.5"/>
</g>
</g>
</svg>
        <g id="navigator" transform="translate(0 0)" fill="#404254">
                <rect fill="#f2f5e9" fill-opacity="0.5" stroke="#606060" stroke-width=".5" x="0" y="0" width="60" height="60"/>
                <use id="zoomplus" xlink:href="#zoomPlus" x="17" y="9" onmousedown="handleZoom(evt,'in')"/>
                <use id="zoomminus" xlink:href="#zoomMin" x="42" y="9" onmousedown="handleZoom(evt,'out')"/>
                <use id="reset" xlink:href="#resetDef" x="30" y="36" onmousedown="handleReset()"/>
                <g id="arrowUp" xlink:href="#dirArrow" transform="translate(30 24)" onmousedown="handlePan(0,-1)">
                  <use xlink:href="#rim" fill="#404040">
                        <set attributeName="fill" to="#808080" begin="arrowUp.mouseover" end="arrowUp.mouseout"/>
                  </use>
                  <path fill="none" stroke="white" stroke-width="1.5" d="M0,-3.0v7 M-2.5,-0.5L0,-3.0L2.5,-0.5"/>
                </g>
                <g id="arrowRight" xlink:href="#dirArrow" transform="rotate(90) translate(36 -43)" onmousedown="handlePan(1,0)">
                  <use xlink:href="#rim" fill="#404040">
                        <set attributeName="fill" to="#808080" begin="arrowRight.mouseover" end="arrowRight.mouseout"/>
                  </use>
                  <path fill="none" stroke="white" stroke-width="1.5" d="M0,-3.0v7 M-2.5,-0.5L0,-3.0L2.5,-0.5"/>
                </g>
                <g id="arrowDown" xlink:href="#dirArrow" transform="rotate(180) translate(-30 -48)" onmousedown="handlePan(0,1)">
                  <use xlink:href="#rim" fill="#404040">
                        <set attributeName="fill" to="#808080" begin="arrowDown.mouseover" end="arrowDown.mouseout"/>
                  </use>
                  <path fill="none" stroke="white" stroke-width="1.5" d="M0,-3.0v7 M-2.5,-0.5L0,-3.0L2.5,-0.5"/>
                </g>
                <g id="arrowLeft" xlink:href="#dirArrow" transform="rotate(270) translate(-36 17)" onmousedown="handlePan(-1,0)">
                  <use xlink:href="#rim" fill="#404040">
                        <set attributeName="fill" to="#808080" begin="arrowLeft.mouseover" end="arrowLeft.mouseout"/>
                  </use>
                  <path fill="none" stroke="white" stroke-width="1.5" d="M0,-3.0v7 M-2.5,-0.5L0,-3.0L2.5,-0.5"/>
                </g>
        </g>
</svg>
