<?xml version="1.0" encoding="UTF-8" standalone="no"?>
<!DOCTYPE svg PUBLIC "-//W3C//DTD SVG 1.1//EN"
 "http://www.w3.org/Graphics/SVG/1.1/DTD/svg11.dtd">
<!-- Generated by graphviz version 2.26.3 (20100126.1600)
 -->
<!-- Title: G Pages: 1 -->
<svg width="244pt" height="204pt"
 viewBox="0.00 0.00 244.00 204.00" xmlns="http://www.w3.org/2000/svg" xmlns:xlink="http://www.w3.org/1999/xlink">
<g id="graph1" class="graph" transform="scale(1 1) rotate(0) translate(4 200)">
<title>G</title>
<polygon fill="white" stroke="white" points="-4,5 -4,-200 241,-200 241,5 -4,5"/>
<!-- Node1 -->
<g id="node1" class="node"><title>Node1</title>
<polygon fill="#bfbfbf" stroke="black" points="2,-0.5 2,-21.5 180,-21.5 180,-0.5 2,-0.5"/>
<text text-anchor="middle" x="91" y="-8.5" font-family="Helvetica,sans-Serif" font-size="10.00">mozilla::net::WyciwygChannelParent</text>
</g>
<!-- Node2 -->
<g id="node2" class="node"><title>Node2</title>
<a xlink:href="../../d5/d6e/interfacens_i_stream_listener.html" target="_top" xlink:title="nsIStreamListener">
<polygon fill="white" stroke="black" points="5,-58.5 5,-79.5 101,-79.5 101,-58.5 5,-58.5"/>
<text text-anchor="middle" x="53" y="-66.5" font-family="Helvetica,sans-Serif" font-size="10.00">nsIStreamListener</text>
</a>
</g>
<!-- Node2&#45;&gt;Node1 -->
<g id="edge2" class="edge"><title>Node2&#45;&gt;Node1</title>
<path fill="none" stroke="midnightblue" d="M65.4751,-49.9591C71.658,-40.522 78.8901,-29.4835 84.0744,-21.5707"/>
<polygon fill="midnightblue" stroke="midnightblue" points="62.5225,-48.0792 59.9698,-58.3619 68.3777,-51.9154 62.5225,-48.0792"/>
</g>
<!-- Node3 -->
<g id="node4" class="node"><title>Node3</title>
<a xlink:href="../../d1/dc4/interfacens_i_request_observer.html" target="_top" xlink:title="nsIRequestObserver">
<polygon fill="white" stroke="black" points="-0.5,-116.5 -0.5,-137.5 106.5,-137.5 106.5,-116.5 -0.5,-116.5"/>
<text text-anchor="middle" x="53" y="-124.5" font-family="Helvetica,sans-Serif" font-size="10.00">nsIRequestObserver</text>
</a>
</g>
<!-- Node3&#45;&gt;Node2 -->
<g id="edge4" class="edge"><title>Node3&#45;&gt;Node2</title>
<path fill="none" stroke="midnightblue" d="M46.4952,-106.191C45.9414,-97.1684 46.3257,-86.9941 47.6479,-79.5707"/>
<polygon fill="midnightblue" stroke="midnightblue" points="43.0431,-106.814 47.6359,-116.362 49.9995,-106.034 43.0431,-106.814"/>
</g>
<!-- Node3&#45;&gt;Node2 -->
<g id="edge10" class="edge"><title>Node3&#45;&gt;Node2</title>
<path fill="none" stroke="midnightblue" d="M59.5048,-106.191C60.0586,-97.1684 59.6743,-86.9941 58.3521,-79.5707"/>
<polygon fill="midnightblue" stroke="midnightblue" points="56.0005,-106.034 58.3641,-116.362 62.9569,-106.814 56.0005,-106.034"/>
</g>
<!-- Node4 -->
<g id="node6" class="node"><title>Node4</title>
<a xlink:href="../../d4/d6a/classns_i_supports.html" target="_top" xlink:title="nsISupports">
<polygon fill="white" stroke="black" points="81.5,-174.5 81.5,-195.5 150.5,-195.5 150.5,-174.5 81.5,-174.5"/>
<text text-anchor="middle" x="116" y="-182.5" font-family="Helvetica,sans-Serif" font-size="10.00">nsISupports</text>
</a>
</g>
<!-- Node4&#45;&gt;Node3 -->
<g id="edge6" class="edge"><title>Node4&#45;&gt;Node3</title>
<path fill="none" stroke="midnightblue" d="M91.2977,-167.975C79.666,-158.132 66.8339,-146.055 59.1298,-137.571"/>
<polygon fill="midnightblue" stroke="midnightblue" points="89.13,-170.724 99.0808,-174.362 93.5704,-165.313 89.13,-170.724"/>
</g>
<!-- Node4&#45;&gt;Node3 -->
<g id="edge8" class="edge"><title>Node4&#45;&gt;Node3</title>
<path fill="none" stroke="midnightblue" d="M102.865,-167.118C93.1934,-157.438 80.251,-145.81 69.834,-137.571"/>
<polygon fill="midnightblue" stroke="midnightblue" points="100.362,-169.565 109.809,-174.362 105.415,-164.721 100.362,-169.565"/>
</g>
<!-- Node5 -->
<g id="node10" class="node"><title>Node5</title>
<a xlink:href="../../df/de7/interfacens_i_interface_requestor.html" target="_top" xlink:title="nsIInterfaceRequestor">
<polygon fill="white" stroke="black" points="123.5,-116.5 123.5,-137.5 236.5,-137.5 236.5,-116.5 123.5,-116.5"/>
<text text-anchor="middle" x="180" y="-124.5" font-family="Helvetica,sans-Serif" font-size="10.00">nsIInterfaceRequestor</text>
</a>
</g>
<!-- Node4&#45;&gt;Node5 -->
<g id="edge14" class="edge"><title>Node4&#45;&gt;Node5</title>
<path fill="none" stroke="midnightblue" d="M129.444,-167.118C139.282,-157.438 152.425,-145.81 162.984,-137.571"/>
<polygon fill="midnightblue" stroke="midnightblue" points="126.854,-164.761 122.375,-174.362 131.864,-169.649 126.854,-164.761"/>
</g>
<!-- Node4&#45;&gt;Node5 -->
<g id="edge16" class="edge"><title>Node4&#45;&gt;Node5</title>
<path fill="none" stroke="midnightblue" d="M140.996,-167.975C152.797,-158.132 165.838,-146.055 173.688,-137.571"/>
<polygon fill="midnightblue" stroke="midnightblue" points="138.675,-165.351 133.103,-174.362 143.078,-170.793 138.675,-165.351"/>
</g>
<!-- Node5&#45;&gt;Node1 -->
<g id="edge12" class="edge"><title>Node5&#45;&gt;Node1</title>
<path fill="none" stroke="midnightblue" d="M165.5,-108.101C146.626,-83.5018 114.279,-41.3409 99.1935,-21.6792"/>
<polygon fill="midnightblue" stroke="midnightblue" points="162.923,-110.492 171.787,-116.295 168.476,-106.231 162.923,-110.492"/>
</g>
</g>
</svg>
