<?xml version="1.0" encoding="UTF-8" standalone="no"?>
<!DOCTYPE svg PUBLIC "-//W3C//DTD SVG 1.1//EN"
 "http://www.w3.org/Graphics/SVG/1.1/DTD/svg11.dtd">
<!-- Generated by graphviz version 2.26.3 (20100126.1600)
 -->
<!-- Title: G Pages: 1 -->
<svg width="262pt" height="30pt"
 viewBox="0.00 0.00 262.00 30.00" xmlns="http://www.w3.org/2000/svg" xmlns:xlink="http://www.w3.org/1999/xlink">
<g id="graph1" class="graph" transform="scale(1 1) rotate(0) translate(4 26)">
<title>G</title>
<polygon fill="white" stroke="white" points="-4,5 -4,-26 259,-26 259,5 -4,5"/>
<!-- Node1 -->
<g id="node1" class="node"><title>Node1</title>
<polygon fill="#bfbfbf" stroke="black" points="0,-0.5 0,-21.5 78,-21.5 78,-0.5 0,-0.5"/>
<text text-anchor="middle" x="39" y="-8.5" font-family="Helvetica,sans-Serif" font-size="10.00">pickWallpaper</text>
</g>
<!-- Node2 -->
<g id="node3" class="node"><title>Node2</title>
<a xlink:href="../../d6/d4a/fl_2js_2pick_8js.html#a7064a2808f00c55f89c54065e7c89d1d" target="_top" xlink:title="displayError">
<polygon fill="white" stroke="black" points="114,-0.5 114,-21.5 182,-21.5 182,-0.5 114,-0.5"/>
<text text-anchor="middle" x="148" y="-8.5" font-family="Helvetica,sans-Serif" font-size="10.00">displayError</text>
</a>
</g>
<!-- Node1&#45;&gt;Node2 -->
<g id="edge2" class="edge"><title>Node1&#45;&gt;Node2</title>
<path fill="none" stroke="midnightblue" d="M78.0436,-11C86.382,-11 95.2465,-11 103.764,-11"/>
<polygon fill="midnightblue" stroke="midnightblue" points="103.923,-14.5001 113.923,-11 103.923,-7.5001 103.923,-14.5001"/>
</g>
<!-- Node3 -->
<g id="node5" class="node"><title>Node3</title>
<a xlink:href="../../d5/dbd/camera_2js_2camera_8js.html#a91dfa6843538cd55b524a76b1afc329c" target="_top" xlink:title="alert">
<polygon fill="white" stroke="black" points="218.5,-0.5 218.5,-21.5 253.5,-21.5 253.5,-0.5 218.5,-0.5"/>
<text text-anchor="middle" x="236" y="-8.5" font-family="Helvetica,sans-Serif" font-size="10.00">alert</text>
</a>
</g>
<!-- Node2&#45;&gt;Node3 -->
<g id="edge4" class="edge"><title>Node2&#45;&gt;Node3</title>
<path fill="none" stroke="midnightblue" d="M182.023,-11C190.632,-11 199.779,-11 208.05,-11"/>
<polygon fill="midnightblue" stroke="midnightblue" points="208.298,-14.5001 218.298,-11 208.298,-7.5001 208.298,-14.5001"/>
</g>
</g>
</svg>
