<?xml version="1.0" encoding="UTF-8" standalone="no"?>
<!DOCTYPE svg PUBLIC "-//W3C//DTD SVG 1.1//EN"
 "http://www.w3.org/Graphics/SVG/1.1/DTD/svg11.dtd">
<!-- Generated by graphviz version 2.26.3 (20100126.1600)
 -->
<!-- Title: G Pages: 1 -->
<!--zoomable 150 -->
<svg id="main" version="1.1" xmlns="http://www.w3.org/2000/svg" xmlns:xlink="http://www.w3.org/1999/xlink" xml:space="preserve" onload="init(evt)">
        <defs>
                <circle id="rim" cx="0" cy="0" r="7"/>
                <circle id="rim2" cx="0" cy="0" r="3.5"/>
                <g id="zoomPlus">
                        <use xlink:href="#rim" fill="#404040">
                                <set attributeName="fill" to="#808080" begin="zoomplus.mouseover" end="zoomplus.mouseout"/>
                        </use>
                        <path d="M-4,0h8M0,-4v8" fill="none" stroke="white" stroke-width="1.5" pointer-events="none"/>
                </g>
                <g id="zoomMin">
                        <use xlink:href="#rim" fill="#404040">
                                <set attributeName="fill" to="#808080" begin="zoomminus.mouseover" end="zoomminus.mouseout"/>
                        </use>
                        <path d="M-4,0h8" fill="none" stroke="white" stroke-width="1.5" pointer-events="none"/>
                </g>
                <g id="dirArrow">
                        <path fill="none" stroke="white" stroke-width="1.5" d="M0,-3.0v7 M-2.5,-0.5L0,-3.0L2.5,-0.5"/>
                </g>
               <g id="resetDef">
                       <use xlink:href="#rim2" fill="#404040">
                               <set attributeName="fill" to="#808080" begin="reset.mouseover" end="reset.mouseout"/>
                       </use>
               </g>
        </defs>

<script type="text/javascript">
var viewWidth = 1850;
var viewHeight = 150;
var sectionId = 'dynsection-0';
</script>
<script xlink:href="../../svgpan.js"/>
<svg id="graph" class="graph">
<g id="viewport">
<title>G</title>
<polygon fill="white" stroke="white" points="-4,5 -4,-146 1847,-146 1847,5 -4,5"/>
<!-- Node1 -->
<g id="node1" class="node"><title>Node1</title>
<polygon fill="#bfbfbf" stroke="black" points="1770,-59.5 1770,-80.5 1842,-80.5 1842,-59.5 1770,-59.5"/>
<text text-anchor="middle" x="1806" y="-67.5" font-family="Helvetica,sans-Serif" font-size="10.00">gfxFontStyle</text>
</g>
<!-- Node2 -->
<g id="node2" class="node"><title>Node2</title>
<a xlink:href="../../d0/d01/classns_ref_ptr.html" target="_top" xlink:title="nsRefPtr\&lt; gfxFontFeatureValueSet \&gt;">
<polygon fill="white" stroke="black" points="1464.5,-120.5 1464.5,-141.5 1643.5,-141.5 1643.5,-120.5 1464.5,-120.5"/>
<text text-anchor="middle" x="1554" y="-128.5" font-family="Helvetica,sans-Serif" font-size="10.00">nsRefPtr&lt; gfxFontFeatureValueSet &gt;</text>
</a>
</g>
<!-- Node2&#45;&gt;Node1 -->
<g id="edge2" class="edge"><title>Node2&#45;&gt;Node1</title>
<path fill="none" stroke="#9a32cd" stroke-dasharray="5,2" d="M1653.88,-120.572C1685.75,-115.605 1720.83,-108.392 1752,-98 1765.02,-93.6587 1778.75,-86.5061 1789.1,-80.5169"/>
<polygon fill="#9a32cd" stroke="#9a32cd" points="1653.03,-117.161 1643.66,-122.107 1654.07,-124.084 1653.03,-117.161"/>
<text text-anchor="middle" x="1707" y="-122" font-family="Helvetica,sans-Serif" font-size="10.00"> featureValueLookup</text>
</g>
<!-- Node3 -->
<g id="node4" class="node"><title>Node3</title>
<a xlink:href="../../d8/d6f/classns_t_array.html" target="_top" xlink:title="nsTArray\&lt; gfxFontFeature \&gt;">
<polygon fill="white" stroke="black" points="1484,-80.5 1484,-101.5 1624,-101.5 1624,-80.5 1484,-80.5"/>
<text text-anchor="middle" x="1554" y="-88.5" font-family="Helvetica,sans-Serif" font-size="10.00">nsTArray&lt; gfxFontFeature &gt;</text>
</a>
</g>
<!-- Node3&#45;&gt;Node1 -->
<g id="edge4" class="edge"><title>Node3&#45;&gt;Node1</title>
<path fill="none" stroke="#9a32cd" stroke-dasharray="5,2" d="M1634.36,-84.3031C1679.92,-80.5064 1734.69,-75.9428 1769.9,-73.0083"/>
<polygon fill="#9a32cd" stroke="#9a32cd" points="1633.87,-80.8319 1624.2,-85.1503 1634.45,-87.8077 1633.87,-80.8319"/>
<text text-anchor="middle" x="1707" y="-85" font-family="Helvetica,sans-Serif" font-size="10.00"> featureSettings</text>
</g>
<!-- Node4 -->
<g id="node6" class="node"><title>Node4</title>
<a xlink:href="../../d4/dd8/classns_t_array___impl.html" target="_top" xlink:title="nsTArray_Impl\&lt; gfxFontFeature, nsTArrayInfallibleAllocator \&gt;">
<polygon fill="white" stroke="black" points="1136,-80.5 1136,-101.5 1420,-101.5 1420,-80.5 1136,-80.5"/>
<text text-anchor="middle" x="1278" y="-88.5" font-family="Helvetica,sans-Serif" font-size="10.00">nsTArray_Impl&lt; gfxFontFeature, nsTArrayInfallibleAllocator &gt;</text>
</a>
</g>
<!-- Node4&#45;&gt;Node3 -->
<g id="edge6" class="edge"><title>Node4&#45;&gt;Node3</title>
<path fill="none" stroke="midnightblue" d="M1430.17,-91C1448.89,-91 1467.27,-91 1483.9,-91"/>
<polygon fill="midnightblue" stroke="midnightblue" points="1430.04,-87.5001 1420.04,-91 1430.04,-94.5001 1430.04,-87.5001"/>
</g>
<!-- Node5 -->
<g id="node8" class="node"><title>Node5</title>
<a xlink:href="../../db/d9f/classns_t_array__base.html" target="_top" xlink:title="nsTArray_base\&lt; nsTArrayInfallibleAllocator, nsTArray_CopyElements\&lt; gfxFontFeature \&gt; \&gt;">
<polygon fill="white" stroke="black" points="639,-80.5 639,-101.5 1053,-101.5 1053,-80.5 639,-80.5"/>
<text text-anchor="middle" x="846" y="-88.5" font-family="Helvetica,sans-Serif" font-size="10.00">nsTArray_base&lt; nsTArrayInfallibleAllocator, nsTArray_CopyElements&lt; gfxFontFeature &gt; &gt;</text>
</a>
</g>
<!-- Node5&#45;&gt;Node4 -->
<g id="edge8" class="edge"><title>Node5&#45;&gt;Node4</title>
<path fill="none" stroke="midnightblue" d="M1063.34,-91C1088,-91 1112.64,-91 1135.97,-91"/>
<polygon fill="midnightblue" stroke="midnightblue" points="1063.14,-87.5001 1053.14,-91 1063.14,-94.5001 1063.14,-87.5001"/>
</g>
<!-- Node6 -->
<g id="node10" class="node"><title>Node6</title>
<a xlink:href="../../dc/d5a/structns_t_array_header.html" target="_top" xlink:title="nsTArrayHeader">
<polygon fill="white" stroke="black" points="224,-45.5 224,-66.5 312,-66.5 312,-45.5 224,-45.5"/>
<text text-anchor="middle" x="268" y="-53.5" font-family="Helvetica,sans-Serif" font-size="10.00">nsTArrayHeader</text>
</a>
</g>
<!-- Node6&#45;&gt;Node5 -->
<g id="edge10" class="edge"><title>Node6&#45;&gt;Node5</title>
<path fill="none" stroke="#9a32cd" stroke-dasharray="5,2" d="M322.651,-59.3093C402.071,-64.1185 552.932,-73.2537 672.354,-80.4851"/>
<polygon fill="#9a32cd" stroke="#9a32cd" points="322.588,-55.7992 312.395,-58.6883 322.165,-62.7864 322.588,-55.7992"/>
<text text-anchor="middle" x="568" y="-78" font-family="Helvetica,sans-Serif" font-size="10.00"> mHdr</text>
</g>
<!-- Node6&#45;&gt;Node6 -->
<g id="edge12" class="edge"><title>Node6&#45;&gt;Node6</title>
<path fill="none" stroke="#9a32cd" stroke-dasharray="5,2" d="M214.504,-69.9766C204.371,-77.7913 222.203,-85 268,-85 322.785,-85 337.551,-74.684 312.299,-65.3553"/>
<polygon fill="#9a32cd" stroke="#9a32cd" points="216.337,-72.9725 223.701,-65.3553 213.194,-66.7176 216.337,-72.9725"/>
<text text-anchor="middle" x="268" y="-89" font-family="Helvetica,sans-Serif" font-size="10.00"> sEmptyHdr</text>
</g>
<!-- Node12 -->
<g id="node23" class="node"><title>Node12</title>
<a xlink:href="../../db/d9f/classns_t_array__base.html" target="_top" xlink:title="nsTArray_base\&lt; nsTArrayInfallibleAllocator, nsTArray_CopyElements\&lt; gfxAlternateValue \&gt; \&gt;">
<polygon fill="white" stroke="black" points="633.5,-40.5 633.5,-61.5 1058.5,-61.5 1058.5,-40.5 633.5,-40.5"/>
<text text-anchor="middle" x="846" y="-48.5" font-family="Helvetica,sans-Serif" font-size="10.00">nsTArray_base&lt; nsTArrayInfallibleAllocator, nsTArray_CopyElements&lt; gfxAlternateValue &gt; &gt;</text>
</a>
</g>
<!-- Node6&#45;&gt;Node12 -->
<g id="edge26" class="edge"><title>Node6&#45;&gt;Node12</title>
<path fill="none" stroke="#9a32cd" stroke-dasharray="5,2" d="M322.437,-55.5291C393.378,-54.9154 521.578,-53.8064 633.36,-52.8394"/>
<polygon fill="#9a32cd" stroke="#9a32cd" points="322.364,-52.0295 312.395,-55.616 322.425,-59.0292 322.364,-52.0295"/>
<text text-anchor="middle" x="568" y="-57" font-family="Helvetica,sans-Serif" font-size="10.00"> mHdr</text>
</g>
<!-- Node7 -->
<g id="node13" class="node"><title>Node7</title>
<a xlink:href="../../d7/dcf/structns_t_array___typed_base.html" target="_top" xlink:title="nsTArray_TypedBase\&lt; gfxFontFeature, nsTArray_Impl\&lt; gfxFontFeature, nsTArrayInfallibleAllocator \&gt; \&gt;">
<polygon fill="white" stroke="black" points="611.5,-120.5 611.5,-141.5 1080.5,-141.5 1080.5,-120.5 611.5,-120.5"/>
<text text-anchor="middle" x="846" y="-128.5" font-family="Helvetica,sans-Serif" font-size="10.00">nsTArray_TypedBase&lt; gfxFontFeature, nsTArray_Impl&lt; gfxFontFeature, nsTArrayInfallibleAllocator &gt; &gt;</text>
</a>
</g>
<!-- Node7&#45;&gt;Node4 -->
<g id="edge14" class="edge"><title>Node7&#45;&gt;Node4</title>
<path fill="none" stroke="midnightblue" d="M993.057,-119.673C1025.65,-116.987 1060.01,-114.02 1092,-111 1122.07,-108.161 1154.84,-104.746 1184.38,-101.547"/>
<polygon fill="midnightblue" stroke="midnightblue" points="992.684,-116.191 983.003,-120.497 993.256,-123.168 992.684,-116.191"/>
</g>
<!-- Node8 -->
<g id="node15" class="node"><title>Node8</title>
<a xlink:href="../../db/d62/structns_t_array___safe_element_at_helper.html" target="_top" xlink:title="nsTArray_SafeElementAtHelper\&lt; gfxFontFeature, nsTArray_Impl\&lt; gfxFontFeature, nsTArrayInfallibleAllocator \&gt; \&gt;">
<polygon fill="white" stroke="black" points="11,-120.5 11,-141.5 525,-141.5 525,-120.5 11,-120.5"/>
<text text-anchor="middle" x="268" y="-128.5" font-family="Helvetica,sans-Serif" font-size="10.00">nsTArray_SafeElementAtHelper&lt; gfxFontFeature, nsTArray_Impl&lt; gfxFontFeature, nsTArrayInfallibleAllocator &gt; &gt;</text>
</a>
</g>
<!-- Node8&#45;&gt;Node7 -->
<g id="edge16" class="edge"><title>Node8&#45;&gt;Node7</title>
<path fill="none" stroke="midnightblue" d="M535.384,-131C560.724,-131 586.286,-131 611.287,-131"/>
<polygon fill="midnightblue" stroke="midnightblue" points="535.306,-127.5 525.306,-131 535.306,-134.5 535.306,-127.5"/>
</g>
<!-- Node9 -->
<g id="node17" class="node"><title>Node9</title>
<a xlink:href="../../d0/d01/classns_ref_ptr.html" target="_top" xlink:title="nsRefPtr\&lt; nsIAtom \&gt;">
<polygon fill="white" stroke="black" points="1499,-0.5 1499,-21.5 1609,-21.5 1609,-0.5 1499,-0.5"/>
<text text-anchor="middle" x="1554" y="-8.5" font-family="Helvetica,sans-Serif" font-size="10.00">nsRefPtr&lt; nsIAtom &gt;</text>
</a>
</g>
<!-- Node9&#45;&gt;Node1 -->
<g id="edge18" class="edge"><title>Node9&#45;&gt;Node1</title>
<path fill="none" stroke="#9a32cd" stroke-dasharray="5,2" d="M1619.18,-9.14939C1658.77,-10.0587 1709.66,-14.9148 1752,-31 1768.65,-37.325 1784.81,-50.1534 1795.04,-59.372"/>
<polygon fill="#9a32cd" stroke="#9a32cd" points="1619.16,-5.64884 1609.11,-8.99684 1619.06,-12.648 1619.16,-5.64884"/>
<text text-anchor="middle" x="1707" y="-35" font-family="Helvetica,sans-Serif" font-size="10.00"> language</text>
</g>
<!-- Node10 -->
<g id="node19" class="node"><title>Node10</title>
<a xlink:href="../../d8/d6f/classns_t_array.html" target="_top" xlink:title="nsTArray\&lt; gfxAlternateValue \&gt;">
<polygon fill="white" stroke="black" points="1478,-40.5 1478,-61.5 1630,-61.5 1630,-40.5 1478,-40.5"/>
<text text-anchor="middle" x="1554" y="-48.5" font-family="Helvetica,sans-Serif" font-size="10.00">nsTArray&lt; gfxAlternateValue &gt;</text>
</a>
</g>
<!-- Node10&#45;&gt;Node1 -->
<g id="edge20" class="edge"><title>Node10&#45;&gt;Node1</title>
<path fill="none" stroke="#9a32cd" stroke-dasharray="5,2" d="M1640.24,-47.2196C1675.12,-47.0105 1715.66,-48.4475 1752,-54 1759.83,-55.1961 1768.11,-57.2371 1775.77,-59.4686"/>
<polygon fill="#9a32cd" stroke="#9a32cd" points="1640.05,-43.7213 1630.09,-47.3273 1640.13,-50.7209 1640.05,-43.7213"/>
<text text-anchor="middle" x="1707" y="-58" font-family="Helvetica,sans-Serif" font-size="10.00"> alternateValues</text>
</g>
<!-- Node11 -->
<g id="node21" class="node"><title>Node11</title>
<a xlink:href="../../d4/dd8/classns_t_array___impl.html" target="_top" xlink:title="nsTArray_Impl\&lt; gfxAlternateValue, nsTArrayInfallibleAllocator \&gt;">
<polygon fill="white" stroke="black" points="1130,-40.5 1130,-61.5 1426,-61.5 1426,-40.5 1130,-40.5"/>
<text text-anchor="middle" x="1278" y="-48.5" font-family="Helvetica,sans-Serif" font-size="10.00">nsTArray_Impl&lt; gfxAlternateValue, nsTArrayInfallibleAllocator &gt;</text>
</a>
</g>
<!-- Node11&#45;&gt;Node10 -->
<g id="edge22" class="edge"><title>Node11&#45;&gt;Node10</title>
<path fill="none" stroke="midnightblue" d="M1436.14,-51C1450.58,-51 1464.72,-51 1477.91,-51"/>
<polygon fill="midnightblue" stroke="midnightblue" points="1436.1,-47.5001 1426.1,-51 1436.1,-54.5001 1436.1,-47.5001"/>
</g>
<!-- Node12&#45;&gt;Node11 -->
<g id="edge24" class="edge"><title>Node12&#45;&gt;Node11</title>
<path fill="none" stroke="midnightblue" d="M1068.68,-51C1089.38,-51 1109.99,-51 1129.76,-51"/>
<polygon fill="midnightblue" stroke="midnightblue" points="1068.52,-47.5001 1058.52,-51 1068.52,-54.5001 1068.52,-47.5001"/>
</g>
<!-- Node13 -->
<g id="node26" class="node"><title>Node13</title>
<a xlink:href="../../d7/dcf/structns_t_array___typed_base.html" target="_top" xlink:title="nsTArray_TypedBase\&lt; gfxAlternateValue, nsTArray_Impl\&lt; gfxAlternateValue, nsTArrayInfallibleAllocator \&gt; \&gt;">
<polygon fill="white" stroke="black" points="600.5,-0.5 600.5,-21.5 1091.5,-21.5 1091.5,-0.5 600.5,-0.5"/>
<text text-anchor="middle" x="846" y="-8.5" font-family="Helvetica,sans-Serif" font-size="10.00">nsTArray_TypedBase&lt; gfxAlternateValue, nsTArray_Impl&lt; gfxAlternateValue, nsTArrayInfallibleAllocator &gt; &gt;</text>
</a>
</g>
<!-- Node13&#45;&gt;Node11 -->
<g id="edge28" class="edge"><title>Node13&#45;&gt;Node11</title>
<path fill="none" stroke="midnightblue" d="M993.057,-22.3275C1025.65,-25.0132 1060.01,-27.9801 1092,-31 1122.07,-33.8386 1154.84,-37.2543 1184.38,-40.4531"/>
<polygon fill="midnightblue" stroke="midnightblue" points="993.256,-18.8321 983.003,-21.5032 992.684,-25.8087 993.256,-18.8321"/>
</g>
<!-- Node14 -->
<g id="node28" class="node"><title>Node14</title>
<a xlink:href="../../db/d62/structns_t_array___safe_element_at_helper.html" target="_top" xlink:title="nsTArray_SafeElementAtHelper\&lt; gfxAlternateValue, nsTArray_Impl\&lt; gfxAlternateValue, nsTArrayInfallibleAllocator \&gt; \&gt;">
<polygon fill="white" stroke="black" points="0,-0.5 0,-21.5 536,-21.5 536,-0.5 0,-0.5"/>
<text text-anchor="middle" x="268" y="-8.5" font-family="Helvetica,sans-Serif" font-size="10.00">nsTArray_SafeElementAtHelper&lt; gfxAlternateValue, nsTArray_Impl&lt; gfxAlternateValue, nsTArrayInfallibleAllocator &gt; &gt;</text>
</a>
</g>
<!-- Node14&#45;&gt;Node13 -->
<g id="edge30" class="edge"><title>Node14&#45;&gt;Node13</title>
<path fill="none" stroke="midnightblue" d="M546.309,-11C564.388,-11 582.524,-11 600.431,-11"/>
<polygon fill="midnightblue" stroke="midnightblue" points="546.272,-7.5001 536.272,-11 546.272,-14.5001 546.272,-7.5001"/>
</g>
</g>
</svg>
        <g id="navigator" transform="translate(0 0)" fill="#404254">
                <rect fill="#f2f5e9" fill-opacity="0.5" stroke="#606060" stroke-width=".5" x="0" y="0" width="60" height="60"/>
                <use id="zoomplus" xlink:href="#zoomPlus" x="17" y="9" onmousedown="handleZoom(evt,'in')"/>
                <use id="zoomminus" xlink:href="#zoomMin" x="42" y="9" onmousedown="handleZoom(evt,'out')"/>
                <use id="reset" xlink:href="#resetDef" x="30" y="36" onmousedown="handleReset()"/>
                <g id="arrowUp" xlink:href="#dirArrow" transform="translate(30 24)" onmousedown="handlePan(0,-1)">
                  <use xlink:href="#rim" fill="#404040">
                        <set attributeName="fill" to="#808080" begin="arrowUp.mouseover" end="arrowUp.mouseout"/>
                  </use>
                  <path fill="none" stroke="white" stroke-width="1.5" d="M0,-3.0v7 M-2.5,-0.5L0,-3.0L2.5,-0.5"/>
                </g>
                <g id="arrowRight" xlink:href="#dirArrow" transform="rotate(90) translate(36 -43)" onmousedown="handlePan(1,0)">
                  <use xlink:href="#rim" fill="#404040">
                        <set attributeName="fill" to="#808080" begin="arrowRight.mouseover" end="arrowRight.mouseout"/>
                  </use>
                  <path fill="none" stroke="white" stroke-width="1.5" d="M0,-3.0v7 M-2.5,-0.5L0,-3.0L2.5,-0.5"/>
                </g>
                <g id="arrowDown" xlink:href="#dirArrow" transform="rotate(180) translate(-30 -48)" onmousedown="handlePan(0,1)">
                  <use xlink:href="#rim" fill="#404040">
                        <set attributeName="fill" to="#808080" begin="arrowDown.mouseover" end="arrowDown.mouseout"/>
                  </use>
                  <path fill="none" stroke="white" stroke-width="1.5" d="M0,-3.0v7 M-2.5,-0.5L0,-3.0L2.5,-0.5"/>
                </g>
                <g id="arrowLeft" xlink:href="#dirArrow" transform="rotate(270) translate(-36 17)" onmousedown="handlePan(-1,0)">
                  <use xlink:href="#rim" fill="#404040">
                        <set attributeName="fill" to="#808080" begin="arrowLeft.mouseover" end="arrowLeft.mouseout"/>
                  </use>
                  <path fill="none" stroke="white" stroke-width="1.5" d="M0,-3.0v7 M-2.5,-0.5L0,-3.0L2.5,-0.5"/>
                </g>
        </g>
</svg>
