<?xml version="1.0" encoding="UTF-8" standalone="no"?>
<!DOCTYPE svg PUBLIC "-//W3C//DTD SVG 1.1//EN"
 "http://www.w3.org/Graphics/SVG/1.1/DTD/svg11.dtd">
<!-- Generated by graphviz version 2.26.3 (20100126.1600)
 -->
<!-- Title: G Pages: 1 -->
<svg width="408pt" height="70pt"
 viewBox="0.00 0.00 408.00 70.00" xmlns="http://www.w3.org/2000/svg" xmlns:xlink="http://www.w3.org/1999/xlink">
<g id="graph1" class="graph" transform="scale(1 1) rotate(0) translate(4 66)">
<title>G</title>
<polygon fill="white" stroke="white" points="-4,5 -4,-66 405,-66 405,5 -4,5"/>
<!-- Node1 -->
<g id="node1" class="node"><title>Node1</title>
<polygon fill="#bfbfbf" stroke="black" points="0.5,-20.5 0.5,-41.5 177.5,-41.5 177.5,-20.5 0.5,-20.5"/>
<text text-anchor="middle" x="89" y="-28.5" font-family="Helvetica,sans-Serif" font-size="10.00">additional&#45;extensions.install_from_url</text>
</g>
<!-- Node2 -->
<g id="node3" class="node"><title>Node2</title>
<a xlink:href="../../d1/d3e/namespaceadditional-extensions.html#a909be1bfa2410b7b0c7c1319569b8838" target="_top" xlink:title="additional&#45;extensions.get_extension_id">
<polygon fill="white" stroke="black" points="214.5,-40.5 214.5,-61.5 399.5,-61.5 399.5,-40.5 214.5,-40.5"/>
<text text-anchor="middle" x="307" y="-48.5" font-family="Helvetica,sans-Serif" font-size="10.00">additional&#45;extensions.get_extension_id</text>
</a>
</g>
<!-- Node1&#45;&gt;Node2 -->
<g id="edge2" class="edge"><title>Node1&#45;&gt;Node2</title>
<path fill="none" stroke="midnightblue" d="M177.669,-39.1348C186.405,-39.9362 195.322,-40.7543 204.184,-41.5673"/>
<polygon fill="midnightblue" stroke="midnightblue" points="203.875,-45.0536 214.153,-42.4819 204.515,-38.0829 203.875,-45.0536"/>
</g>
<!-- Node3 -->
<g id="node5" class="node"><title>Node3</title>
<a xlink:href="../../d1/d3e/namespaceadditional-extensions.html#a8e13298ea017716a9fb3d4b7716f82fc" target="_top" xlink:title="additional&#45;extensions.get_unpack">
<polygon fill="white" stroke="black" points="226.5,-0.5 226.5,-21.5 387.5,-21.5 387.5,-0.5 226.5,-0.5"/>
<text text-anchor="middle" x="307" y="-8.5" font-family="Helvetica,sans-Serif" font-size="10.00">additional&#45;extensions.get_unpack</text>
</a>
</g>
<!-- Node1&#45;&gt;Node3 -->
<g id="edge4" class="edge"><title>Node1&#45;&gt;Node3</title>
<path fill="none" stroke="midnightblue" d="M177.669,-22.8652C190.412,-21.6962 203.539,-20.4918 216.321,-19.3192"/>
<polygon fill="midnightblue" stroke="midnightblue" points="216.845,-22.7859 226.483,-18.3869 216.205,-15.8152 216.845,-22.7859"/>
</g>
</g>
</svg>
