<?xml version="1.0" encoding="UTF-8" standalone="no"?>
<!DOCTYPE svg PUBLIC "-//W3C//DTD SVG 1.1//EN"
 "http://www.w3.org/Graphics/SVG/1.1/DTD/svg11.dtd">
<!-- Generated by graphviz version 2.26.3 (20100126.1600)
 -->
<!-- Title: G Pages: 1 -->
<svg width="376pt" height="30pt"
 viewBox="0.00 0.00 376.00 30.00" xmlns="http://www.w3.org/2000/svg" xmlns:xlink="http://www.w3.org/1999/xlink">
<g id="graph1" class="graph" transform="scale(1 1) rotate(0) translate(4 26)">
<title>G</title>
<polygon fill="white" stroke="white" points="-4,5 -4,-26 373,-26 373,5 -4,5"/>
<!-- Node1 -->
<g id="node1" class="node"><title>Node1</title>
<polygon fill="#bfbfbf" stroke="black" points="0.5,-0.5 0.5,-21.5 89.5,-21.5 89.5,-0.5 0.5,-0.5"/>
<text text-anchor="middle" x="45" y="-8.5" font-family="Helvetica,sans-Serif" font-size="10.00">gfxMatrix::Reset</text>
</g>
<!-- Node2 -->
<g id="node3" class="node"><title>Node2</title>
<a xlink:href="../../d1/d4f/structgfx_matrix.html#a1a0a5d9a30269fb61c2ffa765193d9df" target="_top" xlink:title="gfxMatrix::gfxMatrix">
<polygon fill="white" stroke="black" points="126,-0.5 126,-21.5 230,-21.5 230,-0.5 126,-0.5"/>
<text text-anchor="middle" x="178" y="-8.5" font-family="Helvetica,sans-Serif" font-size="10.00">gfxMatrix::gfxMatrix</text>
</a>
</g>
<!-- Node1&#45;&gt;Node2 -->
<g id="edge2" class="edge"><title>Node1&#45;&gt;Node2</title>
<path fill="none" stroke="midnightblue" d="M99.6636,-11C108.327,-11 117.268,-11 125.872,-11"/>
<polygon fill="midnightblue" stroke="midnightblue" points="99.6571,-7.5001 89.6571,-11 99.657,-14.5001 99.6571,-7.5001"/>
</g>
<!-- Node3 -->
<g id="node5" class="node"><title>Node3</title>
<a xlink:href="../../d1/d4f/structgfx_matrix.html#a6b6ee5e1b6f3c6404af905a0789f708b" target="_top" xlink:title="gfxMatrix::operator*">
<polygon fill="white" stroke="black" points="266,-0.5 266,-21.5 368,-21.5 368,-0.5 266,-0.5"/>
<text text-anchor="middle" x="317" y="-8.5" font-family="Helvetica,sans-Serif" font-size="10.00">gfxMatrix::operator*</text>
</a>
</g>
<!-- Node2&#45;&gt;Node3 -->
<g id="edge4" class="edge"><title>Node2&#45;&gt;Node3</title>
<path fill="none" stroke="midnightblue" d="M240.168,-11C248.785,-11 257.555,-11 265.938,-11"/>
<polygon fill="midnightblue" stroke="midnightblue" points="240.154,-7.5001 230.154,-11 240.154,-14.5001 240.154,-7.5001"/>
</g>
</g>
</svg>
