<?xml version="1.0" encoding="UTF-8" standalone="no"?>
<!DOCTYPE svg PUBLIC "-//W3C//DTD SVG 1.1//EN"
 "http://www.w3.org/Graphics/SVG/1.1/DTD/svg11.dtd">
<!-- Generated by graphviz version 2.26.3 (20100126.1600)
 -->
<!-- Title: G Pages: 1 -->
<svg width="208pt" height="70pt"
 viewBox="0.00 0.00 208.00 70.00" xmlns="http://www.w3.org/2000/svg" xmlns:xlink="http://www.w3.org/1999/xlink">
<g id="graph1" class="graph" transform="scale(1 1) rotate(0) translate(4 66)">
<title>G</title>
<polygon fill="white" stroke="white" points="-4,5 -4,-66 205,-66 205,5 -4,5"/>
<!-- Node1 -->
<g id="node1" class="node"><title>Node1</title>
<polygon fill="#bfbfbf" stroke="black" points="0.5,-20.5 0.5,-41.5 47.5,-41.5 47.5,-20.5 0.5,-20.5"/>
<text text-anchor="middle" x="24" y="-28.5" font-family="Helvetica,sans-Serif" font-size="10.00">nsSize</text>
</g>
<!-- Node2 -->
<g id="node3" class="node"><title>Node2</title>
<a xlink:href="../../d7/d20/classns_i_frame.html#abdba00d5f8364e72e993c96d22e9aa21" target="_top" xlink:title="nsIFrame::GetSize">
<polygon fill="white" stroke="black" points="92.5,-40.5 92.5,-61.5 191.5,-61.5 191.5,-40.5 92.5,-40.5"/>
<text text-anchor="middle" x="142" y="-48.5" font-family="Helvetica,sans-Serif" font-size="10.00">nsIFrame::GetSize</text>
</a>
</g>
<!-- Node1&#45;&gt;Node2 -->
<g id="edge2" class="edge"><title>Node1&#45;&gt;Node2</title>
<path fill="none" stroke="midnightblue" d="M57.7706,-36.7238C68.4684,-38.537 80.5297,-40.5813 92.111,-42.5442"/>
<polygon fill="midnightblue" stroke="midnightblue" points="58.0398,-33.2196 47.5955,-34.9992 56.8699,-40.1212 58.0398,-33.2196"/>
</g>
<!-- Node3 -->
<g id="node5" class="node"><title>Node3</title>
<a xlink:href="../../dc/d43/structns_int_size.html#ab889f4de4efc90aadcc700db3aa31b70" target="_top" xlink:title="nsIntSize::ToAppUnits">
<polygon fill="white" stroke="black" points="84,-0.5 84,-21.5 200,-21.5 200,-0.5 84,-0.5"/>
<text text-anchor="middle" x="142" y="-8.5" font-family="Helvetica,sans-Serif" font-size="10.00">nsIntSize::ToAppUnits</text>
</a>
</g>
<!-- Node1&#45;&gt;Node3 -->
<g id="edge4" class="edge"><title>Node1&#45;&gt;Node3</title>
<path fill="none" stroke="midnightblue" d="M57.5034,-25.3215C65.7203,-23.9288 74.7542,-22.3976 83.7643,-20.8705"/>
<polygon fill="midnightblue" stroke="midnightblue" points="56.8699,-21.8788 47.5955,-27.0008 58.0398,-28.7804 56.8699,-21.8788"/>
</g>
</g>
</svg>
