<?xml version="1.0" encoding="UTF-8" standalone="no"?>
<!DOCTYPE svg PUBLIC "-//W3C//DTD SVG 1.1//EN"
 "http://www.w3.org/Graphics/SVG/1.1/DTD/svg11.dtd">
<!-- Generated by graphviz version 2.26.3 (20100126.1600)
 -->
<!-- Title: G Pages: 1 -->
<svg width="376pt" height="204pt"
 viewBox="0.00 0.00 376.00 204.00" xmlns="http://www.w3.org/2000/svg" xmlns:xlink="http://www.w3.org/1999/xlink">
<g id="graph1" class="graph" transform="scale(1 1) rotate(0) translate(4 200)">
<title>G</title>
<polygon fill="white" stroke="white" points="-4,5 -4,-200 373,-200 373,5 -4,5"/>
<!-- Node1 -->
<g id="node1" class="node"><title>Node1</title>
<polygon fill="#bfbfbf" stroke="black" points="82.5,-116.5 82.5,-137.5 271.5,-137.5 271.5,-116.5 82.5,-116.5"/>
<text text-anchor="middle" x="177" y="-124.5" font-family="Helvetica,sans-Serif" font-size="10.00">mozilla::layers::CompositableForwarder</text>
</g>
<!-- Node3 -->
<g id="node5" class="node"><title>Node3</title>
<a xlink:href="../../d7/d40/classmozilla_1_1layers_1_1_image_bridge_child.html" target="_top" xlink:title="mozilla::layers::ImageBridgeChild">
<polygon fill="white" stroke="black" points="-0.5,-58.5 -0.5,-79.5 162.5,-79.5 162.5,-58.5 -0.5,-58.5"/>
<text text-anchor="middle" x="81" y="-66.5" font-family="Helvetica,sans-Serif" font-size="10.00">mozilla::layers::ImageBridgeChild</text>
</a>
</g>
<!-- Node1&#45;&gt;Node3 -->
<g id="edge4" class="edge"><title>Node1&#45;&gt;Node3</title>
<path fill="none" stroke="midnightblue" d="M150.684,-111.101C134.074,-101.066 113.079,-88.3808 98.4963,-79.5707"/>
<polygon fill="midnightblue" stroke="midnightblue" points="149.023,-114.186 159.392,-116.362 152.643,-108.195 149.023,-114.186"/>
</g>
<!-- Node4 -->
<g id="node7" class="node"><title>Node4</title>
<a xlink:href="../../d5/d64/classmozilla_1_1layers_1_1_shadow_layer_forwarder.html" target="_top" xlink:title="mozilla::layers::ShadowLayerForwarder">
<polygon fill="white" stroke="black" points="180,-58.5 180,-79.5 368,-79.5 368,-58.5 180,-58.5"/>
<text text-anchor="middle" x="274" y="-66.5" font-family="Helvetica,sans-Serif" font-size="10.00">mozilla::layers::ShadowLayerForwarder</text>
</a>
</g>
<!-- Node1&#45;&gt;Node4 -->
<g id="edge6" class="edge"><title>Node1&#45;&gt;Node4</title>
<path fill="none" stroke="midnightblue" d="M203.59,-111.101C220.373,-101.066 241.587,-88.3808 256.321,-79.5707"/>
<polygon fill="midnightblue" stroke="midnightblue" points="201.578,-108.226 194.791,-116.362 205.17,-114.234 201.578,-108.226"/>
</g>
<!-- Node2 -->
<g id="node2" class="node"><title>Node2</title>
<a xlink:href="../../dd/d26/classmozilla_1_1layers_1_1_i_surface_allocator.html" target="_top" xlink:title="mozilla::layers::ISurfaceAllocator">
<polygon fill="white" stroke="black" points="96.5,-174.5 96.5,-195.5 257.5,-195.5 257.5,-174.5 96.5,-174.5"/>
<text text-anchor="middle" x="177" y="-182.5" font-family="Helvetica,sans-Serif" font-size="10.00">mozilla::layers::ISurfaceAllocator</text>
</a>
</g>
<!-- Node2&#45;&gt;Node1 -->
<g id="edge2" class="edge"><title>Node2&#45;&gt;Node1</title>
<path fill="none" stroke="midnightblue" d="M177,-164.191C177,-155.168 177,-144.994 177,-137.571"/>
<polygon fill="midnightblue" stroke="midnightblue" points="173.5,-164.362 177,-174.362 180.5,-164.362 173.5,-164.362"/>
</g>
<!-- Node5 -->
<g id="node9" class="node"><title>Node5</title>
<a xlink:href="../../de/ddc/classmozilla_1_1layers_1_1_client_layer_manager.html" target="_top" xlink:title="mozilla::layers::ClientLayerManager">
<polygon fill="white" stroke="black" points="187.5,-0.5 187.5,-21.5 360.5,-21.5 360.5,-0.5 187.5,-0.5"/>
<text text-anchor="middle" x="274" y="-8.5" font-family="Helvetica,sans-Serif" font-size="10.00">mozilla::layers::ClientLayerManager</text>
</a>
</g>
<!-- Node4&#45;&gt;Node5 -->
<g id="edge8" class="edge"><title>Node4&#45;&gt;Node5</title>
<path fill="none" stroke="midnightblue" d="M274,-48.1906C274,-39.1684 274,-28.9941 274,-21.5707"/>
<polygon fill="midnightblue" stroke="midnightblue" points="270.5,-48.3619 274,-58.3619 277.5,-48.3619 270.5,-48.3619"/>
</g>
</g>
</svg>
