<?xml version="1.0" encoding="UTF-8" standalone="no"?>
<!DOCTYPE svg PUBLIC "-//W3C//DTD SVG 1.1//EN"
 "http://www.w3.org/Graphics/SVG/1.1/DTD/svg11.dtd">
<!-- Generated by graphviz version 2.26.3 (20100126.1600)
 -->
<!-- Title: G Pages: 1 -->
<svg width="334pt" height="88pt"
 viewBox="0.00 0.00 334.00 88.00" xmlns="http://www.w3.org/2000/svg" xmlns:xlink="http://www.w3.org/1999/xlink">
<g id="graph1" class="graph" transform="scale(1 1) rotate(0) translate(4 84)">
<title>G</title>
<polygon fill="white" stroke="white" points="-4,5 -4,-84 331,-84 331,5 -4,5"/>
<!-- Node1 -->
<g id="node1" class="node"><title>Node1</title>
<polygon fill="#bfbfbf" stroke="black" points="-0.5,-58.5 -0.5,-79.5 326.5,-79.5 326.5,-58.5 -0.5,-58.5"/>
<text text-anchor="middle" x="163" y="-66.5" font-family="Helvetica,sans-Serif" font-size="10.00">/home/aoi/Documents/FxOS/B2G/gaia/xulrunner&#45;sdk/include/nsEvent.h</text>
</g>
<!-- Node2 -->
<g id="node3" class="node"><title>Node2</title>
<polygon fill="white" stroke="#bfbfbf" points="88.5,-0.5 88.5,-21.5 137.5,-21.5 137.5,-0.5 88.5,-0.5"/>
<text text-anchor="middle" x="113" y="-8.5" font-family="Helvetica,sans-Serif" font-size="10.00">stdint.h</text>
</g>
<!-- Node1&#45;&gt;Node2 -->
<g id="edge2" class="edge"><title>Node1&#45;&gt;Node2</title>
<path fill="none" stroke="midnightblue" d="M153.829,-58.3619C146.852,-50.2678 137.079,-38.9318 128.844,-29.3796"/>
<polygon fill="midnightblue" stroke="midnightblue" points="131.293,-26.8595 122.113,-21.5707 125.991,-31.4301 131.293,-26.8595"/>
</g>
<!-- Node3 -->
<g id="node5" class="node"><title>Node3</title>
<a xlink:href="../../d8/dc1/ns_d_o_m_key_name_list_8h.html" target="_top" xlink:title="nsDOMKeyNameList.h">
<polygon fill="white" stroke="black" points="155,-0.5 155,-21.5 273,-21.5 273,-0.5 155,-0.5"/>
<text text-anchor="middle" x="214" y="-8.5" font-family="Helvetica,sans-Serif" font-size="10.00">nsDOMKeyNameList.h</text>
</a>
</g>
<!-- Node1&#45;&gt;Node3 -->
<g id="edge4" class="edge"><title>Node1&#45;&gt;Node3</title>
<path fill="none" stroke="midnightblue" d="M172.354,-58.3619C179.543,-50.1861 189.641,-38.7025 198.093,-29.0907"/>
<polygon fill="midnightblue" stroke="midnightblue" points="200.73,-31.3916 204.705,-21.5707 195.473,-26.7692 200.73,-31.3916"/>
</g>
</g>
</svg>
