<?xml version="1.0" encoding="UTF-8" standalone="no"?>
<!DOCTYPE svg PUBLIC "-//W3C//DTD SVG 1.1//EN"
 "http://www.w3.org/Graphics/SVG/1.1/DTD/svg11.dtd">
<!-- Generated by graphviz version 2.26.3 (20100126.1600)
 -->
<!-- Title: G Pages: 1 -->
<!--zoomable 552 -->
<svg id="main" version="1.1" xmlns="http://www.w3.org/2000/svg" xmlns:xlink="http://www.w3.org/1999/xlink" xml:space="preserve" onload="init(evt)">
        <defs>
                <circle id="rim" cx="0" cy="0" r="7"/>
                <circle id="rim2" cx="0" cy="0" r="3.5"/>
                <g id="zoomPlus">
                        <use xlink:href="#rim" fill="#404040">
                                <set attributeName="fill" to="#808080" begin="zoomplus.mouseover" end="zoomplus.mouseout"/>
                        </use>
                        <path d="M-4,0h8M0,-4v8" fill="none" stroke="white" stroke-width="1.5" pointer-events="none"/>
                </g>
                <g id="zoomMin">
                        <use xlink:href="#rim" fill="#404040">
                                <set attributeName="fill" to="#808080" begin="zoomminus.mouseover" end="zoomminus.mouseout"/>
                        </use>
                        <path d="M-4,0h8" fill="none" stroke="white" stroke-width="1.5" pointer-events="none"/>
                </g>
                <g id="dirArrow">
                        <path fill="none" stroke="white" stroke-width="1.5" d="M0,-3.0v7 M-2.5,-0.5L0,-3.0L2.5,-0.5"/>
                </g>
               <g id="resetDef">
                       <use xlink:href="#rim2" fill="#404040">
                               <set attributeName="fill" to="#808080" begin="reset.mouseover" end="reset.mouseout"/>
                       </use>
               </g>
        </defs>

<script type="text/javascript">
var viewWidth = 870;
var viewHeight = 552;
var sectionId = 'dynsection-0';
</script>
<script xlink:href="../../svgpan.js"/>
<svg id="graph" class="graph">
<g id="viewport">
<title>G</title>
<polygon fill="white" stroke="white" points="-4,5 -4,-548 867.407,-548 867.407,5 -4,5"/>
<!-- Node1 -->
<g id="node1" class="node"><title>Node1</title>
<polygon fill="#bfbfbf" stroke="black" points="0,-522.5 0,-543.5 338,-543.5 338,-522.5 0,-522.5"/>
<text text-anchor="middle" x="169" y="-530.5" font-family="Helvetica,sans-Serif" font-size="10.00">/home/aoi/Documents/FxOS/B2G/gaia/xulrunner&#45;sdk/include/nss/secdig.h</text>
</g>
<!-- Node2 -->
<g id="node3" class="node"><title>Node2</title>
<a xlink:href="../../d3/da9/utilrename_8h.html" target="_top" xlink:title="utilrename.h">
<polygon fill="white" stroke="black" points="134,-174.5 134,-195.5 204,-195.5 204,-174.5 134,-174.5"/>
<text text-anchor="middle" x="169" y="-182.5" font-family="Helvetica,sans-Serif" font-size="10.00">utilrename.h</text>
</a>
</g>
<!-- Node1&#45;&gt;Node2 -->
<g id="edge2" class="edge"><title>Node1&#45;&gt;Node2</title>
<path fill="none" stroke="midnightblue" d="M128.311,-522.373C81.4968,-507.399 11,-475.191 11,-417 11,-417 11,-417 11,-301 11,-244.45 77.5784,-212.437 124.298,-196.935"/>
<polygon fill="midnightblue" stroke="midnightblue" points="125.463,-200.237 133.935,-193.874 123.344,-193.565 125.463,-200.237"/>
</g>
<!-- Node3 -->
<g id="node5" class="node"><title>Node3</title>
<a xlink:href="../../dd/d32/secdigt_8h.html" target="_top" xlink:title="secdigt.h">
<polygon fill="white" stroke="black" points="225,-464.5 225,-485.5 281,-485.5 281,-464.5 225,-464.5"/>
<text text-anchor="middle" x="253" y="-472.5" font-family="Helvetica,sans-Serif" font-size="10.00">secdigt.h</text>
</a>
</g>
<!-- Node1&#45;&gt;Node3 -->
<g id="edge4" class="edge"><title>Node1&#45;&gt;Node3</title>
<path fill="none" stroke="midnightblue" d="M184.407,-522.362C196.958,-513.696 214.892,-501.313 229.275,-491.382"/>
<polygon fill="midnightblue" stroke="midnightblue" points="231.45,-494.133 237.691,-485.571 227.473,-488.372 231.45,-494.133"/>
</g>
<!-- Node15 -->
<g id="node34" class="node"><title>Node15</title>
<a xlink:href="../../dc/d39/seccomon_8h.html" target="_top" xlink:title="seccomon.h">
<polygon fill="white" stroke="black" points="368,-290.5 368,-311.5 438,-311.5 438,-290.5 368,-290.5"/>
<text text-anchor="middle" x="403" y="-298.5" font-family="Helvetica,sans-Serif" font-size="10.00">seccomon.h</text>
</a>
</g>
<!-- Node1&#45;&gt;Node15 -->
<g id="edge78" class="edge"><title>Node1&#45;&gt;Node15</title>
<path fill="none" stroke="midnightblue" d="M211.131,-522.493C256.532,-508.812 327.093,-480.23 363,-428 385.688,-394.997 395.988,-348.498 400.275,-321.885"/>
<polygon fill="midnightblue" stroke="midnightblue" points="403.767,-322.199 401.764,-311.795 396.842,-321.177 403.767,-322.199"/>
</g>
<!-- Node23 -->
<g id="node63" class="node"><title>Node23</title>
<a xlink:href="../../d0/d24/secasn1t_8h.html" target="_top" xlink:title="secasn1t.h">
<polygon fill="white" stroke="black" points="38.5,-406.5 38.5,-427.5 103.5,-427.5 103.5,-406.5 38.5,-406.5"/>
<text text-anchor="middle" x="71" y="-414.5" font-family="Helvetica,sans-Serif" font-size="10.00">secasn1t.h</text>
</a>
</g>
<!-- Node1&#45;&gt;Node23 -->
<g id="edge80" class="edge"><title>Node1&#45;&gt;Node23</title>
<path fill="none" stroke="midnightblue" d="M159.956,-522.295C143.256,-502.527 107.395,-460.08 86.6668,-435.544"/>
<polygon fill="midnightblue" stroke="midnightblue" points="89.1492,-433.059 80.0221,-427.679 83.802,-437.577 89.1492,-433.059"/>
</g>
<!-- Node24 -->
<g id="node66" class="node"><title>Node24</title>
<a xlink:href="../../da/dca/secdert_8h.html" target="_top" xlink:title="secdert.h">
<polygon fill="white" stroke="black" points="139.5,-348.5 139.5,-369.5 196.5,-369.5 196.5,-348.5 139.5,-348.5"/>
<text text-anchor="middle" x="168" y="-356.5" font-family="Helvetica,sans-Serif" font-size="10.00">secdert.h</text>
</a>
</g>
<!-- Node1&#45;&gt;Node24 -->
<g id="edge84" class="edge"><title>Node1&#45;&gt;Node24</title>
<path fill="none" stroke="midnightblue" d="M168.939,-522.377C168.778,-494.293 168.337,-417.673 168.122,-380.203"/>
<polygon fill="midnightblue" stroke="midnightblue" points="171.62,-379.907 168.063,-369.928 164.62,-379.948 171.62,-379.907"/>
</g>
<!-- Node3&#45;&gt;Node2 -->
<g id="edge6" class="edge"><title>Node3&#45;&gt;Node2</title>
<path fill="none" stroke="midnightblue" d="M231.7,-464.289C202.62,-448.314 151.739,-415.212 131,-370 105.119,-313.58 138.297,-239.436 157.339,-204.635"/>
<polygon fill="midnightblue" stroke="midnightblue" points="160.611,-205.961 162.494,-195.535 154.52,-202.511 160.611,-205.961"/>
</g>
<!-- Node4 -->
<g id="node8" class="node"><title>Node4</title>
<a xlink:href="../../d5/d70/plarena_8h.html" target="_top" xlink:title="plarena.h">
<polygon fill="white" stroke="black" points="265,-174.5 265,-195.5 321,-195.5 321,-174.5 265,-174.5"/>
<text text-anchor="middle" x="293" y="-182.5" font-family="Helvetica,sans-Serif" font-size="10.00">plarena.h</text>
</a>
</g>
<!-- Node3&#45;&gt;Node4 -->
<g id="edge8" class="edge"><title>Node3&#45;&gt;Node4</title>
<path fill="none" stroke="midnightblue" d="M254.471,-464.335C260.351,-421.704 282.229,-263.087 290.131,-205.803"/>
<polygon fill="midnightblue" stroke="midnightblue" points="293.616,-206.147 291.516,-195.762 286.682,-205.19 293.616,-206.147"/>
</g>
<!-- Node11 -->
<g id="node22" class="node"><title>Node11</title>
<a xlink:href="../../de/d47/secoidt_8h.html" target="_top" xlink:title="secoidt.h">
<polygon fill="white" stroke="black" points="281,-406.5 281,-427.5 337,-427.5 337,-406.5 281,-406.5"/>
<text text-anchor="middle" x="309" y="-414.5" font-family="Helvetica,sans-Serif" font-size="10.00">secoidt.h</text>
</a>
</g>
<!-- Node3&#45;&gt;Node11 -->
<g id="edge22" class="edge"><title>Node3&#45;&gt;Node11</title>
<path fill="none" stroke="midnightblue" d="M263.271,-464.362C271.244,-456.104 282.475,-444.472 291.811,-434.803"/>
<polygon fill="midnightblue" stroke="midnightblue" points="294.366,-437.196 298.794,-427.571 289.33,-432.334 294.366,-437.196"/>
</g>
<!-- Node12 -->
<g id="node25" class="node"><title>Node12</title>
<a xlink:href="../../d7/dbb/secitem_8h.html" target="_top" xlink:title="secitem.h">
<polygon fill="white" stroke="black" points="313.5,-348.5 313.5,-369.5 372.5,-369.5 372.5,-348.5 313.5,-348.5"/>
<text text-anchor="middle" x="343" y="-356.5" font-family="Helvetica,sans-Serif" font-size="10.00">secitem.h</text>
</a>
</g>
<!-- Node3&#45;&gt;Node12 -->
<g id="edge76" class="edge"><title>Node3&#45;&gt;Node12</title>
<path fill="none" stroke="midnightblue" d="M281.201,-469.14C303.081,-462.951 331.973,-450.806 346,-428 354.81,-413.676 353.067,-394.337 349.689,-379.777"/>
<polygon fill="midnightblue" stroke="midnightblue" points="352.956,-378.455 346.935,-369.737 346.205,-380.307 352.956,-378.455"/>
</g>
<!-- Node5 -->
<g id="node10" class="node"><title>Node5</title>
<a xlink:href="../../dc/d23/prtypes_8h.html" target="_top" xlink:title="prtypes.h">
<polygon fill="white" stroke="black" points="657.5,-116.5 657.5,-137.5 714.5,-137.5 714.5,-116.5 657.5,-116.5"/>
<text text-anchor="middle" x="686" y="-124.5" font-family="Helvetica,sans-Serif" font-size="10.00">prtypes.h</text>
</a>
</g>
<!-- Node4&#45;&gt;Node5 -->
<g id="edge10" class="edge"><title>Node4&#45;&gt;Node5</title>
<path fill="none" stroke="midnightblue" d="M321.357,-177.068C325.898,-175.944 330.563,-174.875 335,-174 447.279,-151.867 581.847,-137.072 646.932,-130.645"/>
<polygon fill="midnightblue" stroke="midnightblue" points="647.527,-134.104 657.14,-129.65 646.847,-127.137 647.527,-134.104"/>
</g>
<!-- Node10 -->
<g id="node20" class="node"><title>Node10</title>
<a xlink:href="../../dd/dc2/plarenas_8h.html" target="_top" xlink:title="plarenas.h">
<polygon fill="white" stroke="black" points="262,-116.5 262,-137.5 324,-137.5 324,-116.5 262,-116.5"/>
<text text-anchor="middle" x="293" y="-124.5" font-family="Helvetica,sans-Serif" font-size="10.00">plarenas.h</text>
</a>
</g>
<!-- Node4&#45;&gt;Node10 -->
<g id="edge20" class="edge"><title>Node4&#45;&gt;Node10</title>
<path fill="none" stroke="midnightblue" d="M293,-174.362C293,-166.922 293,-156.743 293,-147.728"/>
<polygon fill="midnightblue" stroke="midnightblue" points="296.5,-147.571 293,-137.571 289.5,-147.571 296.5,-147.571"/>
</g>
<!-- Node6 -->
<g id="node12" class="node"><title>Node6</title>
<a xlink:href="../../d7/d7e/prcpucfg_8h.html" target="_top" xlink:title="prcpucfg.h">
<polygon fill="white" stroke="black" points="589,-58.5 589,-79.5 651,-79.5 651,-58.5 589,-58.5"/>
<text text-anchor="middle" x="620" y="-66.5" font-family="Helvetica,sans-Serif" font-size="10.00">prcpucfg.h</text>
</a>
</g>
<!-- Node5&#45;&gt;Node6 -->
<g id="edge12" class="edge"><title>Node5&#45;&gt;Node6</title>
<path fill="none" stroke="midnightblue" d="M673.895,-116.362C664.312,-107.941 650.736,-96.0105 639.607,-86.2308"/>
<polygon fill="midnightblue" stroke="midnightblue" points="641.851,-83.5427 632.029,-79.5707 637.23,-88.8009 641.851,-83.5427"/>
</g>
<!-- Node7 -->
<g id="node14" class="node"><title>Node7</title>
<polygon fill="white" stroke="#bfbfbf" points="789,-58.5 789,-79.5 841,-79.5 841,-58.5 789,-58.5"/>
<text text-anchor="middle" x="815" y="-66.5" font-family="Helvetica,sans-Serif" font-size="10.00">stddef.h</text>
</g>
<!-- Node5&#45;&gt;Node7 -->
<g id="edge14" class="edge"><title>Node5&#45;&gt;Node7</title>
<path fill="none" stroke="midnightblue" d="M709.361,-116.497C729.691,-107.356 759.378,-94.0082 782.109,-83.7883"/>
<polygon fill="midnightblue" stroke="midnightblue" points="783.692,-86.9142 791.377,-79.6212 780.821,-80.5298 783.692,-86.9142"/>
</g>
<!-- Node8 -->
<g id="node16" class="node"><title>Node8</title>
<a xlink:href="../../d2/de8/protypes_8h.html" target="_top" xlink:title="obsolete/protypes.h">
<polygon fill="white" stroke="black" points="669,-58.5 669,-79.5 771,-79.5 771,-58.5 669,-58.5"/>
<text text-anchor="middle" x="720" y="-66.5" font-family="Helvetica,sans-Serif" font-size="10.00">obsolete/protypes.h</text>
</a>
</g>
<!-- Node5&#45;&gt;Node8 -->
<g id="edge16" class="edge"><title>Node5&#45;&gt;Node8</title>
<path fill="none" stroke="midnightblue" d="M692.236,-116.362C696.837,-108.513 703.225,-97.6159 708.714,-88.2527"/>
<polygon fill="midnightblue" stroke="midnightblue" points="711.766,-89.9677 713.803,-79.5707 705.727,-86.4276 711.766,-89.9677"/>
</g>
<!-- Node9 -->
<g id="node18" class="node"><title>Node9</title>
<polygon fill="white" stroke="#bfbfbf" points="771,-0.5 771,-21.5 839,-21.5 839,-0.5 771,-0.5"/>
<text text-anchor="middle" x="805" y="-8.5" font-family="Helvetica,sans-Serif" font-size="10.00">sys/types.h</text>
</g>
<!-- Node8&#45;&gt;Node9 -->
<g id="edge18" class="edge"><title>Node8&#45;&gt;Node9</title>
<path fill="none" stroke="midnightblue" d="M735.59,-58.3619C748.291,-49.6955 766.438,-37.3126 780.992,-27.3819"/>
<polygon fill="midnightblue" stroke="midnightblue" points="783.221,-30.0982 789.509,-21.5707 779.276,-24.316 783.221,-30.0982"/>
</g>
<!-- Node11&#45;&gt;Node2 -->
<g id="edge24" class="edge"><title>Node11&#45;&gt;Node2</title>
<path fill="none" stroke="midnightblue" d="M302.621,-406.429C280.801,-370.271 208.94,-251.186 180.619,-204.255"/>
<polygon fill="midnightblue" stroke="midnightblue" points="183.58,-202.387 175.417,-195.634 177.587,-206.004 183.58,-202.387"/>
</g>
<!-- Node11&#45;&gt;Node12 -->
<g id="edge26" class="edge"><title>Node11&#45;&gt;Node12</title>
<path fill="none" stroke="midnightblue" d="M315.236,-406.362C319.837,-398.513 326.225,-387.616 331.714,-378.253"/>
<polygon fill="midnightblue" stroke="midnightblue" points="334.766,-379.968 336.803,-369.571 328.727,-376.428 334.766,-379.968"/>
</g>
<!-- Node12&#45;&gt;Node2 -->
<g id="edge28" class="edge"><title>Node12&#45;&gt;Node2</title>
<path fill="none" stroke="midnightblue" d="M332.377,-348.377C303.567,-319.567 223.678,-239.678 187.376,-203.376"/>
<polygon fill="midnightblue" stroke="midnightblue" points="189.474,-200.524 179.928,-195.928 184.524,-205.474 189.474,-200.524"/>
</g>
<!-- Node12&#45;&gt;Node4 -->
<g id="edge30" class="edge"><title>Node12&#45;&gt;Node4</title>
<path fill="none" stroke="midnightblue" d="M339.948,-348.377C331.843,-320.172 309.67,-243.012 298.954,-205.72"/>
<polygon fill="midnightblue" stroke="midnightblue" points="302.266,-204.572 296.14,-195.928 295.538,-206.505 302.266,-204.572"/>
</g>
<!-- Node13 -->
<g id="node29" class="node"><title>Node13</title>
<a xlink:href="../../d1/d0e/plhash_8h.html" target="_top" xlink:title="plhash.h">
<polygon fill="white" stroke="black" points="675.5,-290.5 675.5,-311.5 728.5,-311.5 728.5,-290.5 675.5,-290.5"/>
<text text-anchor="middle" x="702" y="-298.5" font-family="Helvetica,sans-Serif" font-size="10.00">plhash.h</text>
</a>
</g>
<!-- Node12&#45;&gt;Node13 -->
<g id="edge32" class="edge"><title>Node12&#45;&gt;Node13</title>
<path fill="none" stroke="midnightblue" d="M372.684,-354.204C438.012,-343.65 594.077,-318.436 665.36,-306.92"/>
<polygon fill="midnightblue" stroke="midnightblue" points="665.928,-310.373 675.241,-305.323 664.811,-303.463 665.928,-310.373"/>
</g>
<!-- Node12&#45;&gt;Node15 -->
<g id="edge38" class="edge"><title>Node12&#45;&gt;Node15</title>
<path fill="none" stroke="midnightblue" d="M354.005,-348.362C362.547,-340.104 374.58,-328.472 384.583,-318.803"/>
<polygon fill="midnightblue" stroke="midnightblue" points="387.308,-321.037 392.065,-311.571 382.442,-316.004 387.308,-321.037"/>
</g>
<!-- Node13&#45;&gt;Node5 -->
<g id="edge36" class="edge"><title>Node13&#45;&gt;Node5</title>
<path fill="none" stroke="midnightblue" d="M720.488,-290.408C755.504,-268.961 825.471,-218.64 796,-174 780.212,-150.085 749.484,-138.296 724.51,-132.509"/>
<polygon fill="midnightblue" stroke="midnightblue" points="725.072,-129.051 714.569,-130.442 723.647,-135.904 725.072,-129.051"/>
</g>
<!-- Node14 -->
<g id="node31" class="node"><title>Node14</title>
<polygon fill="white" stroke="#bfbfbf" points="679,-232.5 679,-253.5 725,-253.5 725,-232.5 679,-232.5"/>
<text text-anchor="middle" x="702" y="-240.5" font-family="Helvetica,sans-Serif" font-size="10.00">stdio.h</text>
</g>
<!-- Node13&#45;&gt;Node14 -->
<g id="edge34" class="edge"><title>Node13&#45;&gt;Node14</title>
<path fill="none" stroke="midnightblue" d="M702,-290.362C702,-282.922 702,-272.743 702,-263.728"/>
<polygon fill="midnightblue" stroke="midnightblue" points="705.5,-263.571 702,-253.571 698.5,-263.571 705.5,-263.571"/>
</g>
<!-- Node15&#45;&gt;Node2 -->
<g id="edge40" class="edge"><title>Node15&#45;&gt;Node2</title>
<path fill="none" stroke="midnightblue" d="M381.405,-290.295C339.507,-269.525 247.104,-223.718 199.17,-199.956"/>
<polygon fill="midnightblue" stroke="midnightblue" points="200.719,-196.817 190.205,-195.512 197.61,-203.089 200.719,-196.817"/>
</g>
<!-- Node15&#45;&gt;Node5 -->
<g id="edge42" class="edge"><title>Node15&#45;&gt;Node5</title>
<path fill="none" stroke="midnightblue" d="M394.418,-290.398C376.287,-266.664 338.114,-208.628 368,-174 386.037,-153.101 566.164,-136.431 647.043,-129.937"/>
<polygon fill="midnightblue" stroke="midnightblue" points="647.62,-133.402 657.313,-129.125 647.068,-126.424 647.62,-133.402"/>
</g>
<!-- Node16 -->
<g id="node38" class="node"><title>Node16</title>
<a xlink:href="../../d9/d82/secport_8h.html" target="_top" xlink:title="secport.h">
<polygon fill="white" stroke="black" points="504.5,-232.5 504.5,-253.5 561.5,-253.5 561.5,-232.5 504.5,-232.5"/>
<text text-anchor="middle" x="533" y="-240.5" font-family="Helvetica,sans-Serif" font-size="10.00">secport.h</text>
</a>
</g>
<!-- Node15&#45;&gt;Node16 -->
<g id="edge44" class="edge"><title>Node15&#45;&gt;Node16</title>
<path fill="none" stroke="midnightblue" d="M421.202,-290.497C440.338,-281.217 470.666,-267.6 494.982,-257.323"/>
<polygon fill="midnightblue" stroke="midnightblue" points="496.431,-260.511 504.307,-253.425 493.731,-254.053 496.431,-260.511"/>
</g>
<!-- Node16&#45;&gt;Node2 -->
<g id="edge46" class="edge"><title>Node16&#45;&gt;Node2</title>
<path fill="none" stroke="midnightblue" d="M504.438,-238.449C441.531,-228.425 290.583,-204.373 214.487,-192.248"/>
<polygon fill="midnightblue" stroke="midnightblue" points="214.69,-188.736 204.264,-190.619 213.588,-195.649 214.69,-188.736"/>
</g>
<!-- Node16&#45;&gt;Node4 -->
<g id="edge68" class="edge"><title>Node16&#45;&gt;Node4</title>
<path fill="none" stroke="midnightblue" d="M504.05,-236.004C460.842,-225.562 379.428,-205.887 331.329,-194.263"/>
<polygon fill="midnightblue" stroke="midnightblue" points="331.849,-190.788 321.307,-191.841 330.205,-197.592 331.849,-190.788"/>
</g>
<!-- Node16&#45;&gt;Node5 -->
<g id="edge62" class="edge"><title>Node16&#45;&gt;Node5</title>
<path fill="none" stroke="midnightblue" d="M561.587,-238.692C602.977,-231.805 676.364,-216.926 692,-196 702.309,-182.203 699.204,-162.245 694.468,-147.339"/>
<polygon fill="midnightblue" stroke="midnightblue" points="697.61,-145.737 690.9,-137.538 691.032,-148.132 697.61,-145.737"/>
</g>
<!-- Node16&#45;&gt;Node7 -->
<g id="edge58" class="edge"><title>Node16&#45;&gt;Node7</title>
<path fill="none" stroke="midnightblue" d="M561.953,-239.738C626.888,-232.155 779.754,-212.713 796,-196 823.574,-167.634 822.051,-117.574 818.52,-89.523"/>
<polygon fill="midnightblue" stroke="midnightblue" points="821.982,-89.006 817.071,-79.6179 815.055,-90.0192 821.982,-89.006"/>
</g>
<!-- Node16&#45;&gt;Node9 -->
<g id="edge52" class="edge"><title>Node16&#45;&gt;Node9</title>
<path fill="none" stroke="midnightblue" d="M561.666,-239.955C629.751,-232.482 796.928,-212.634 816,-196 863.605,-154.48 873.537,-116.618 850,-58 845.424,-46.6028 836.618,-36.4093 828.001,-28.4526"/>
<polygon fill="midnightblue" stroke="midnightblue" points="830.132,-25.6689 820.267,-21.804 825.569,-30.9771 830.132,-25.6689"/>
</g>
<!-- Node16&#45;&gt;Node15 -->
<g id="edge74" class="edge"><title>Node16&#45;&gt;Node15</title>
<path fill="none" stroke="midnightblue" d="M514.555,-253.621C495.444,-262.88 465.352,-276.389 441.163,-286.615"/>
<polygon fill="midnightblue" stroke="midnightblue" points="439.757,-283.409 431.882,-290.497 442.458,-289.867 439.757,-283.409"/>
</g>
<!-- Node17 -->
<g id="node41" class="node"><title>Node17</title>
<a xlink:href="../../d3/d82/prlink_8h.html" target="_top" xlink:title="prlink.h">
<polygon fill="white" stroke="black" points="739,-174.5 739,-195.5 787,-195.5 787,-174.5 739,-174.5"/>
<text text-anchor="middle" x="763" y="-182.5" font-family="Helvetica,sans-Serif" font-size="10.00">prlink.h</text>
</a>
</g>
<!-- Node16&#45;&gt;Node17 -->
<g id="edge48" class="edge"><title>Node16&#45;&gt;Node17</title>
<path fill="none" stroke="midnightblue" d="M561.72,-236.364C599.342,-227.581 667.309,-211.404 725,-196 726.269,-195.661 727.561,-195.312 728.864,-194.955"/>
<polygon fill="midnightblue" stroke="midnightblue" points="730.236,-198.205 738.919,-192.135 728.346,-191.465 730.236,-198.205"/>
</g>
<!-- Node18 -->
<g id="node45" class="node"><title>Node18</title>
<polygon fill="white" stroke="#bfbfbf" points="376.5,-174.5 376.5,-195.5 425.5,-195.5 425.5,-174.5 376.5,-174.5"/>
<text text-anchor="middle" x="401" y="-182.5" font-family="Helvetica,sans-Serif" font-size="10.00">ctype.h</text>
</g>
<!-- Node16&#45;&gt;Node18 -->
<g id="edge54" class="edge"><title>Node16&#45;&gt;Node18</title>
<path fill="none" stroke="midnightblue" d="M509.096,-232.497C488.2,-223.315 457.644,-209.889 434.345,-199.652"/>
<polygon fill="midnightblue" stroke="midnightblue" points="435.736,-196.44 425.172,-195.621 432.92,-202.848 435.736,-196.44"/>
</g>
<!-- Node19 -->
<g id="node47" class="node"><title>Node19</title>
<polygon fill="white" stroke="#bfbfbf" points="442.5,-174.5 442.5,-195.5 491.5,-195.5 491.5,-174.5 442.5,-174.5"/>
<text text-anchor="middle" x="467" y="-182.5" font-family="Helvetica,sans-Serif" font-size="10.00">string.h</text>
</g>
<!-- Node16&#45;&gt;Node19 -->
<g id="edge56" class="edge"><title>Node16&#45;&gt;Node19</title>
<path fill="none" stroke="midnightblue" d="M520.895,-232.362C511.312,-223.941 497.736,-212.011 486.607,-202.231"/>
<polygon fill="midnightblue" stroke="midnightblue" points="488.851,-199.543 479.029,-195.571 484.23,-204.801 488.851,-199.543"/>
</g>
<!-- Node20 -->
<g id="node50" class="node"><title>Node20</title>
<polygon fill="white" stroke="#bfbfbf" points="509,-174.5 509,-195.5 557,-195.5 557,-174.5 509,-174.5"/>
<text text-anchor="middle" x="533" y="-182.5" font-family="Helvetica,sans-Serif" font-size="10.00">stdlib.h</text>
</g>
<!-- Node16&#45;&gt;Node20 -->
<g id="edge60" class="edge"><title>Node16&#45;&gt;Node20</title>
<path fill="none" stroke="midnightblue" d="M533,-232.362C533,-224.922 533,-214.743 533,-205.728"/>
<polygon fill="midnightblue" stroke="midnightblue" points="536.5,-205.571 533,-195.571 529.5,-205.571 536.5,-205.571"/>
</g>
<!-- Node21 -->
<g id="node53" class="node"><title>Node21</title>
<a xlink:href="../../db/d6e/prlog_8h.html" target="_top" xlink:title="prlog.h">
<polygon fill="white" stroke="black" points="575,-174.5 575,-195.5 621,-195.5 621,-174.5 575,-174.5"/>
<text text-anchor="middle" x="598" y="-182.5" font-family="Helvetica,sans-Serif" font-size="10.00">prlog.h</text>
</a>
</g>
<!-- Node16&#45;&gt;Node21 -->
<g id="edge64" class="edge"><title>Node16&#45;&gt;Node21</title>
<path fill="none" stroke="midnightblue" d="M544.922,-232.362C554.359,-223.941 567.73,-212.011 578.69,-202.231"/>
<polygon fill="midnightblue" stroke="midnightblue" points="581.022,-204.84 586.154,-195.571 576.362,-199.617 581.022,-204.84"/>
</g>
<!-- Node22 -->
<g id="node57" class="node"><title>Node22</title>
<a xlink:href="../../de/d72/plstr_8h.html" target="_top" xlink:title="plstr.h">
<polygon fill="white" stroke="black" points="639,-174.5 639,-195.5 683,-195.5 683,-174.5 639,-174.5"/>
<text text-anchor="middle" x="661" y="-182.5" font-family="Helvetica,sans-Serif" font-size="10.00">plstr.h</text>
</a>
</g>
<!-- Node16&#45;&gt;Node22 -->
<g id="edge70" class="edge"><title>Node16&#45;&gt;Node22</title>
<path fill="none" stroke="midnightblue" d="M556.18,-232.497C576.73,-223.185 606.918,-209.506 629.625,-199.217"/>
<polygon fill="midnightblue" stroke="midnightblue" points="631.185,-202.352 638.849,-195.037 628.296,-195.977 631.185,-202.352"/>
</g>
<!-- Node17&#45;&gt;Node5 -->
<g id="edge50" class="edge"><title>Node17&#45;&gt;Node5</title>
<path fill="none" stroke="midnightblue" d="M748.877,-174.362C737.48,-165.777 721.242,-153.546 708.122,-143.664"/>
<polygon fill="midnightblue" stroke="midnightblue" points="710.127,-140.792 700.033,-137.571 705.915,-146.383 710.127,-140.792"/>
</g>
<!-- Node21&#45;&gt;Node5 -->
<g id="edge66" class="edge"><title>Node21&#45;&gt;Node5</title>
<path fill="none" stroke="midnightblue" d="M614.141,-174.362C627.414,-165.614 646.432,-153.079 661.57,-143.101"/>
<polygon fill="midnightblue" stroke="midnightblue" points="663.538,-145.996 669.962,-137.571 659.686,-140.151 663.538,-145.996"/>
</g>
<!-- Node22&#45;&gt;Node5 -->
<g id="edge72" class="edge"><title>Node22&#45;&gt;Node5</title>
<path fill="none" stroke="midnightblue" d="M665.585,-174.362C668.898,-166.677 673.47,-156.069 677.448,-146.84"/>
<polygon fill="midnightblue" stroke="midnightblue" points="680.699,-148.139 681.444,-137.571 674.271,-145.368 680.699,-148.139"/>
</g>
<!-- Node23&#45;&gt;Node2 -->
<g id="edge82" class="edge"><title>Node23&#45;&gt;Node2</title>
<path fill="none" stroke="midnightblue" d="M69.7204,-406.374C66.657,-376.338 61.6506,-289.277 98,-232 106.559,-218.512 120.544,-208.037 133.848,-200.434"/>
<polygon fill="midnightblue" stroke="midnightblue" points="135.693,-203.417 142.875,-195.627 132.403,-197.238 135.693,-203.417"/>
</g>
<!-- Node24&#45;&gt;Node2 -->
<g id="edge86" class="edge"><title>Node24&#45;&gt;Node2</title>
<path fill="none" stroke="midnightblue" d="M168.061,-348.377C168.222,-320.293 168.663,-243.673 168.878,-206.203"/>
<polygon fill="midnightblue" stroke="midnightblue" points="172.38,-205.948 168.937,-195.928 165.38,-205.907 172.38,-205.948"/>
</g>
<!-- Node24&#45;&gt;Node15 -->
<g id="edge88" class="edge"><title>Node24&#45;&gt;Node15</title>
<path fill="none" stroke="midnightblue" d="M196.816,-351.888C237.093,-341.947 310.607,-323.803 358.1,-312.082"/>
<polygon fill="midnightblue" stroke="midnightblue" points="358.948,-315.477 367.818,-309.683 357.271,-308.681 358.948,-315.477"/>
</g>
</g>
</svg>
        <g id="navigator" transform="translate(0 0)" fill="#404254">
                <rect fill="#f2f5e9" fill-opacity="0.5" stroke="#606060" stroke-width=".5" x="0" y="0" width="60" height="60"/>
                <use id="zoomplus" xlink:href="#zoomPlus" x="17" y="9" onmousedown="handleZoom(evt,'in')"/>
                <use id="zoomminus" xlink:href="#zoomMin" x="42" y="9" onmousedown="handleZoom(evt,'out')"/>
                <use id="reset" xlink:href="#resetDef" x="30" y="36" onmousedown="handleReset()"/>
                <g id="arrowUp" xlink:href="#dirArrow" transform="translate(30 24)" onmousedown="handlePan(0,-1)">
                  <use xlink:href="#rim" fill="#404040">
                        <set attributeName="fill" to="#808080" begin="arrowUp.mouseover" end="arrowUp.mouseout"/>
                  </use>
                  <path fill="none" stroke="white" stroke-width="1.5" d="M0,-3.0v7 M-2.5,-0.5L0,-3.0L2.5,-0.5"/>
                </g>
                <g id="arrowRight" xlink:href="#dirArrow" transform="rotate(90) translate(36 -43)" onmousedown="handlePan(1,0)">
                  <use xlink:href="#rim" fill="#404040">
                        <set attributeName="fill" to="#808080" begin="arrowRight.mouseover" end="arrowRight.mouseout"/>
                  </use>
                  <path fill="none" stroke="white" stroke-width="1.5" d="M0,-3.0v7 M-2.5,-0.5L0,-3.0L2.5,-0.5"/>
                </g>
                <g id="arrowDown" xlink:href="#dirArrow" transform="rotate(180) translate(-30 -48)" onmousedown="handlePan(0,1)">
                  <use xlink:href="#rim" fill="#404040">
                        <set attributeName="fill" to="#808080" begin="arrowDown.mouseover" end="arrowDown.mouseout"/>
                  </use>
                  <path fill="none" stroke="white" stroke-width="1.5" d="M0,-3.0v7 M-2.5,-0.5L0,-3.0L2.5,-0.5"/>
                </g>
                <g id="arrowLeft" xlink:href="#dirArrow" transform="rotate(270) translate(-36 17)" onmousedown="handlePan(-1,0)">
                  <use xlink:href="#rim" fill="#404040">
                        <set attributeName="fill" to="#808080" begin="arrowLeft.mouseover" end="arrowLeft.mouseout"/>
                  </use>
                  <path fill="none" stroke="white" stroke-width="1.5" d="M0,-3.0v7 M-2.5,-0.5L0,-3.0L2.5,-0.5"/>
                </g>
        </g>
</svg>
