<?xml version="1.0" encoding="UTF-8" standalone="no"?>
<!DOCTYPE svg PUBLIC "-//W3C//DTD SVG 1.1//EN"
 "http://www.w3.org/Graphics/SVG/1.1/DTD/svg11.dtd">
<!-- Generated by graphviz version 2.26.3 (20100126.1600)
 -->
<!-- Title: G Pages: 1 -->
<svg width="242pt" height="146pt"
 viewBox="0.00 0.00 242.00 146.00" xmlns="http://www.w3.org/2000/svg" xmlns:xlink="http://www.w3.org/1999/xlink">
<g id="graph1" class="graph" transform="scale(1 1) rotate(0) translate(4 142)">
<title>G</title>
<polygon fill="white" stroke="white" points="-4,5 -4,-142 239,-142 239,5 -4,5"/>
<!-- Node1 -->
<g id="node1" class="node"><title>Node1</title>
<polygon fill="#bfbfbf" stroke="black" points="0,-0.5 0,-21.5 234,-21.5 234,-0.5 0,-0.5"/>
<text text-anchor="middle" x="117" y="-8.5" font-family="Helvetica,sans-Serif" font-size="10.00">mozilla::IsPod&lt; js::detail::HashTableEntry&lt; T &gt; &gt;</text>
</g>
<!-- Node2 -->
<g id="node2" class="node"><title>Node2</title>
<a xlink:href="../../d6/d14/structmozilla_1_1_is_pod.html" target="_top" xlink:title="mozilla::IsPod\&lt; T \&gt;">
<polygon fill="white" stroke="black" points="65.5,-58.5 65.5,-79.5 168.5,-79.5 168.5,-58.5 65.5,-58.5"/>
<text text-anchor="middle" x="117" y="-66.5" font-family="Helvetica,sans-Serif" font-size="10.00">mozilla::IsPod&lt; T &gt;</text>
</a>
</g>
<!-- Node2&#45;&gt;Node1 -->
<g id="edge2" class="edge"><title>Node2&#45;&gt;Node1</title>
<path fill="none" stroke="midnightblue" d="M117,-48.1906C117,-39.1684 117,-28.9941 117,-21.5707"/>
<polygon fill="midnightblue" stroke="midnightblue" points="113.5,-48.3619 117,-58.3619 120.5,-48.3619 113.5,-48.3619"/>
</g>
<!-- Node3 -->
<g id="node4" class="node"><title>Node3</title>
<a xlink:href="../../d2/dbe/structmozilla_1_1_integral_constant.html" target="_top" xlink:title="FalseType">
<polygon fill="white" stroke="black" points="86,-116.5 86,-137.5 148,-137.5 148,-116.5 86,-116.5"/>
<text text-anchor="middle" x="117" y="-124.5" font-family="Helvetica,sans-Serif" font-size="10.00">FalseType</text>
</a>
</g>
<!-- Node3&#45;&gt;Node2 -->
<g id="edge4" class="edge"><title>Node3&#45;&gt;Node2</title>
<path fill="none" stroke="midnightblue" d="M117,-106.191C117,-97.1684 117,-86.9941 117,-79.5707"/>
<polygon fill="midnightblue" stroke="midnightblue" points="113.5,-106.362 117,-116.362 120.5,-106.362 113.5,-106.362"/>
</g>
</g>
</svg>
