<?xml version="1.0" encoding="UTF-8" standalone="no"?>
<!DOCTYPE svg PUBLIC "-//W3C//DTD SVG 1.1//EN"
 "http://www.w3.org/Graphics/SVG/1.1/DTD/svg11.dtd">
<!-- Generated by graphviz version 2.26.3 (20100126.1600)
 -->
<!-- Title: G Pages: 1 -->
<svg width="286pt" height="70pt"
 viewBox="0.00 0.00 286.00 70.00" xmlns="http://www.w3.org/2000/svg" xmlns:xlink="http://www.w3.org/1999/xlink">
<g id="graph1" class="graph" transform="scale(1 1) rotate(0) translate(4 66)">
<title>G</title>
<polygon fill="white" stroke="white" points="-4,5 -4,-66 283,-66 283,5 -4,5"/>
<!-- Node1 -->
<g id="node1" class="node"><title>Node1</title>
<polygon fill="#bfbfbf" stroke="black" points="0.5,-20.5 0.5,-41.5 135.5,-41.5 135.5,-20.5 0.5,-20.5"/>
<text text-anchor="middle" x="68" y="-28.5" font-family="Helvetica,sans-Serif" font-size="10.00">multilocale.copy_properties</text>
</g>
<!-- Node2 -->
<g id="node3" class="node"><title>Node2</title>
<a xlink:href="../../df/d70/namespacemultilocale.html#abfd1c4989c424b677df139fd0fc56aaf" target="_top" xlink:title="multilocale.parse_ini">
<polygon fill="white" stroke="black" points="172.5,-40.5 172.5,-61.5 277.5,-61.5 277.5,-40.5 172.5,-40.5"/>
<text text-anchor="middle" x="225" y="-48.5" font-family="Helvetica,sans-Serif" font-size="10.00">multilocale.parse_ini</text>
</a>
</g>
<!-- Node1&#45;&gt;Node2 -->
<g id="edge2" class="edge"><title>Node1&#45;&gt;Node2</title>
<path fill="none" stroke="midnightblue" d="M135.949,-39.656C144.646,-40.7638 153.518,-41.8941 162.129,-42.991"/>
<polygon fill="midnightblue" stroke="midnightblue" points="161.729,-46.4682 172.091,-44.2601 162.614,-39.5244 161.729,-46.4682"/>
</g>
<!-- Node3 -->
<g id="node5" class="node"><title>Node3</title>
<a xlink:href="../../dc/d89/wappush_2js_2message_8js.html#a7c5f9536f6c7849a4a7a592bfedf18f1" target="_top" xlink:title="replace">
<polygon fill="white" stroke="black" points="201,-0.5 201,-21.5 249,-21.5 249,-0.5 201,-0.5"/>
<text text-anchor="middle" x="225" y="-8.5" font-family="Helvetica,sans-Serif" font-size="10.00">replace</text>
</a>
</g>
<!-- Node1&#45;&gt;Node3 -->
<g id="edge4" class="edge"><title>Node1&#45;&gt;Node3</title>
<path fill="none" stroke="midnightblue" d="M135.949,-22.344C154.848,-19.9365 174.578,-17.4232 190.65,-15.3758"/>
<polygon fill="midnightblue" stroke="midnightblue" points="191.159,-18.8393 200.637,-14.1036 190.275,-11.8954 191.159,-18.8393"/>
</g>
</g>
</svg>
