<?xml version="1.0" encoding="UTF-8" standalone="no"?>
<!DOCTYPE svg PUBLIC "-//W3C//DTD SVG 1.1//EN"
 "http://www.w3.org/Graphics/SVG/1.1/DTD/svg11.dtd">
<!-- Generated by graphviz version 2.26.3 (20100126.1600)
 -->
<!-- Title: G Pages: 1 -->
<svg width="178pt" height="146pt"
 viewBox="0.00 0.00 178.00 146.00" xmlns="http://www.w3.org/2000/svg" xmlns:xlink="http://www.w3.org/1999/xlink">
<g id="graph1" class="graph" transform="scale(1 1) rotate(0) translate(4 142)">
<title>G</title>
<polygon fill="white" stroke="white" points="-4,5 -4,-142 175,-142 175,5 -4,5"/>
<!-- Node1 -->
<g id="node1" class="node"><title>Node1</title>
<polygon fill="#bfbfbf" stroke="black" points="-0.5,-0.5 -0.5,-21.5 170.5,-21.5 170.5,-0.5 -0.5,-0.5"/>
<text text-anchor="middle" x="85" y="-8.5" font-family="Helvetica,sans-Serif" font-size="10.00">mozilla::dom::AlertServiceObserver</text>
</g>
<!-- Node2 -->
<g id="node2" class="node"><title>Node2</title>
<a xlink:href="../../d5/d6a/interfacens_i_observer.html" target="_top" xlink:title="nsIObserver">
<polygon fill="white" stroke="black" points="50,-58.5 50,-79.5 120,-79.5 120,-58.5 50,-58.5"/>
<text text-anchor="middle" x="85" y="-66.5" font-family="Helvetica,sans-Serif" font-size="10.00">nsIObserver</text>
</a>
</g>
<!-- Node2&#45;&gt;Node1 -->
<g id="edge2" class="edge"><title>Node2&#45;&gt;Node1</title>
<path fill="none" stroke="midnightblue" d="M85,-48.1906C85,-39.1684 85,-28.9941 85,-21.5707"/>
<polygon fill="midnightblue" stroke="midnightblue" points="81.5001,-48.3619 85,-58.3619 88.5001,-48.3619 81.5001,-48.3619"/>
</g>
<!-- Node3 -->
<g id="node4" class="node"><title>Node3</title>
<a xlink:href="../../d4/d6a/classns_i_supports.html" target="_top" xlink:title="nsISupports">
<polygon fill="white" stroke="black" points="50.5,-116.5 50.5,-137.5 119.5,-137.5 119.5,-116.5 50.5,-116.5"/>
<text text-anchor="middle" x="85" y="-124.5" font-family="Helvetica,sans-Serif" font-size="10.00">nsISupports</text>
</a>
</g>
<!-- Node3&#45;&gt;Node2 -->
<g id="edge4" class="edge"><title>Node3&#45;&gt;Node2</title>
<path fill="none" stroke="midnightblue" d="M78.4952,-106.191C77.9414,-97.1684 78.3257,-86.9941 79.6479,-79.5707"/>
<polygon fill="midnightblue" stroke="midnightblue" points="75.0431,-106.814 79.6359,-116.362 81.9995,-106.034 75.0431,-106.814"/>
</g>
<!-- Node3&#45;&gt;Node2 -->
<g id="edge6" class="edge"><title>Node3&#45;&gt;Node2</title>
<path fill="none" stroke="midnightblue" d="M91.5048,-106.191C92.0586,-97.1684 91.6743,-86.9941 90.3521,-79.5707"/>
<polygon fill="midnightblue" stroke="midnightblue" points="88.0005,-106.034 90.3641,-116.362 94.9569,-106.814 88.0005,-106.034"/>
</g>
</g>
</svg>
