<?xml version="1.0" encoding="UTF-8" standalone="no"?>
<!DOCTYPE svg PUBLIC "-//W3C//DTD SVG 1.1//EN"
 "http://www.w3.org/Graphics/SVG/1.1/DTD/svg11.dtd">
<!-- Generated by graphviz version 2.26.3 (20100126.1600)
 -->
<!-- Title: G Pages: 1 -->
<svg width="393pt" height="204pt"
 viewBox="0.00 0.00 393.00 204.00" xmlns="http://www.w3.org/2000/svg" xmlns:xlink="http://www.w3.org/1999/xlink">
<g id="graph1" class="graph" transform="scale(1 1) rotate(0) translate(4 200)">
<title>G</title>
<polygon fill="white" stroke="white" points="-4,5 -4,-200 390,-200 390,5 -4,5"/>
<!-- Node1 -->
<g id="node1" class="node"><title>Node1</title>
<polygon fill="#bfbfbf" stroke="black" points="98,-0.5 98,-21.5 212,-21.5 212,-0.5 98,-0.5"/>
<text text-anchor="middle" x="155" y="-8.5" font-family="Helvetica,sans-Serif" font-size="10.00">mozilla::gl::GLContext</text>
</g>
<!-- Node2 -->
<g id="node2" class="node"><title>Node2</title>
<a xlink:href="../../de/d4a/classmozilla_1_1gl_1_1_g_l_library_loader.html" target="_top" xlink:title="mozilla::gl::GLLibraryLoader">
<polygon fill="white" stroke="black" points="0,-58.5 0,-79.5 138,-79.5 138,-58.5 0,-58.5"/>
<text text-anchor="middle" x="69" y="-66.5" font-family="Helvetica,sans-Serif" font-size="10.00">mozilla::gl::GLLibraryLoader</text>
</a>
</g>
<!-- Node2&#45;&gt;Node1 -->
<g id="edge2" class="edge"><title>Node2&#45;&gt;Node1</title>
<path fill="none" stroke="midnightblue" d="M93.4051,-52.5407C108.149,-42.5973 126.505,-30.2177 139.326,-21.5707"/>
<polygon fill="midnightblue" stroke="midnightblue" points="91.1075,-49.8687 84.7737,-58.3619 95.0215,-55.6722 91.1075,-49.8687"/>
</g>
<!-- Node3 -->
<g id="node4" class="node"><title>Node3</title>
<a xlink:href="../../df/df3/classmozilla_1_1_generic_atomic_ref_counted.html" target="_top" xlink:title="mozilla::GenericAtomicRefCounted">
<polygon fill="white" stroke="black" points="156,-58.5 156,-79.5 326,-79.5 326,-58.5 156,-58.5"/>
<text text-anchor="middle" x="241" y="-66.5" font-family="Helvetica,sans-Serif" font-size="10.00">mozilla::GenericAtomicRefCounted</text>
</a>
</g>
<!-- Node3&#45;&gt;Node1 -->
<g id="edge4" class="edge"><title>Node3&#45;&gt;Node1</title>
<path fill="none" stroke="midnightblue" d="M216.595,-52.5407C201.851,-42.5973 183.495,-30.2177 170.674,-21.5707"/>
<polygon fill="midnightblue" stroke="midnightblue" points="214.979,-55.6722 225.226,-58.3619 218.893,-49.8687 214.979,-55.6722"/>
</g>
<!-- Node4 -->
<g id="node6" class="node"><title>Node4</title>
<a xlink:href="../../d1/d1e/classmozilla_1_1detail_1_1_generic_ref_counted.html" target="_top" xlink:title="mozilla::detail::GenericRefCounted\&lt; detail::AtomicRefCount \&gt;">
<polygon fill="white" stroke="black" points="96.5,-116.5 96.5,-137.5 385.5,-137.5 385.5,-116.5 96.5,-116.5"/>
<text text-anchor="middle" x="241" y="-124.5" font-family="Helvetica,sans-Serif" font-size="10.00">mozilla::detail::GenericRefCounted&lt; detail::AtomicRefCount &gt;</text>
</a>
</g>
<!-- Node4&#45;&gt;Node3 -->
<g id="edge6" class="edge"><title>Node4&#45;&gt;Node3</title>
<path fill="none" stroke="midnightblue" d="M241,-106.191C241,-97.1684 241,-86.9941 241,-79.5707"/>
<polygon fill="midnightblue" stroke="midnightblue" points="237.5,-106.362 241,-116.362 244.5,-106.362 237.5,-106.362"/>
</g>
<!-- Node5 -->
<g id="node8" class="node"><title>Node5</title>
<a xlink:href="../../dc/d3e/classmozilla_1_1_generic_ref_counted_base.html" target="_top" xlink:title="mozilla::GenericRefCountedBase">
<polygon fill="white" stroke="black" points="160,-174.5 160,-195.5 322,-195.5 322,-174.5 160,-174.5"/>
<text text-anchor="middle" x="241" y="-182.5" font-family="Helvetica,sans-Serif" font-size="10.00">mozilla::GenericRefCountedBase</text>
</a>
</g>
<!-- Node5&#45;&gt;Node4 -->
<g id="edge8" class="edge"><title>Node5&#45;&gt;Node4</title>
<path fill="none" stroke="midnightblue" d="M241,-164.191C241,-155.168 241,-144.994 241,-137.571"/>
<polygon fill="midnightblue" stroke="midnightblue" points="237.5,-164.362 241,-174.362 244.5,-164.362 237.5,-164.362"/>
</g>
</g>
</svg>
