<?xml version="1.0" encoding="UTF-8" standalone="no"?>
<!DOCTYPE svg PUBLIC "-//W3C//DTD SVG 1.1//EN"
 "http://www.w3.org/Graphics/SVG/1.1/DTD/svg11.dtd">
<!-- Generated by graphviz version 2.26.3 (20100126.1600)
 -->
<!-- Title: G Pages: 1 -->
<!--zoomable 203 -->
<svg id="main" version="1.1" xmlns="http://www.w3.org/2000/svg" xmlns:xlink="http://www.w3.org/1999/xlink" xml:space="preserve" onload="init(evt)">
        <defs>
                <circle id="rim" cx="0" cy="0" r="7"/>
                <circle id="rim2" cx="0" cy="0" r="3.5"/>
                <g id="zoomPlus">
                        <use xlink:href="#rim" fill="#404040">
                                <set attributeName="fill" to="#808080" begin="zoomplus.mouseover" end="zoomplus.mouseout"/>
                        </use>
                        <path d="M-4,0h8M0,-4v8" fill="none" stroke="white" stroke-width="1.5" pointer-events="none"/>
                </g>
                <g id="zoomMin">
                        <use xlink:href="#rim" fill="#404040">
                                <set attributeName="fill" to="#808080" begin="zoomminus.mouseover" end="zoomminus.mouseout"/>
                        </use>
                        <path d="M-4,0h8" fill="none" stroke="white" stroke-width="1.5" pointer-events="none"/>
                </g>
                <g id="dirArrow">
                        <path fill="none" stroke="white" stroke-width="1.5" d="M0,-3.0v7 M-2.5,-0.5L0,-3.0L2.5,-0.5"/>
                </g>
               <g id="resetDef">
                       <use xlink:href="#rim2" fill="#404040">
                               <set attributeName="fill" to="#808080" begin="reset.mouseover" end="reset.mouseout"/>
                       </use>
               </g>
        </defs>

<script type="text/javascript">
var viewWidth = 2394;
var viewHeight = 203;
var sectionId = 'dynsection-0';
</script>
<script xlink:href="../../svgpan.js"/>
<svg id="graph" class="graph">
<g id="viewport">
<title>G</title>
<polygon fill="white" stroke="white" points="-4,5 -4,-199 2391,-199 2391,5 -4,5"/>
<!-- Node1 -->
<g id="node1" class="node"><title>Node1</title>
<polygon fill="#bfbfbf" stroke="black" points="2206,-83.5 2206,-104.5 2386,-104.5 2386,-83.5 2206,-83.5"/>
<text text-anchor="middle" x="2296" y="-91.5" font-family="Helvetica,sans-Serif" font-size="10.00">mozilla::layers::GestureEventListener</text>
</g>
<!-- Node2 -->
<g id="node2" class="node"><title>Node2</title>
<a xlink:href="../../d8/d6f/classns_t_array.html" target="_top" xlink:title="nsTArray\&lt; SingleTouchData \&gt;">
<polygon fill="white" stroke="black" points="1530.5,-118.5 1530.5,-139.5 1679.5,-139.5 1679.5,-118.5 1530.5,-118.5"/>
<text text-anchor="middle" x="1605" y="-126.5" font-family="Helvetica,sans-Serif" font-size="10.00">nsTArray&lt; SingleTouchData &gt;</text>
</a>
</g>
<!-- Node2&#45;&gt;Node1 -->
<g id="edge2" class="edge"><title>Node2&#45;&gt;Node1</title>
<path fill="none" stroke="#9a32cd" stroke-dasharray="5,2" d="M1689.63,-126.684C1803.13,-123.278 2010.9,-115.989 2188,-104 2193.82,-103.606 2199.82,-103.16 2205.86,-102.682"/>
<polygon fill="#9a32cd" stroke="#9a32cd" points="1689.5,-123.186 1679.61,-126.982 1689.71,-130.183 1689.5,-123.186"/>
<text text-anchor="middle" x="1944" y="-125" font-family="Helvetica,sans-Serif" font-size="10.00"> mTouches</text>
</g>
<!-- Node8 -->
<g id="node15" class="node"><title>Node8</title>
<a xlink:href="../../db/d6d/classmozilla_1_1_multi_touch_input.html" target="_top" xlink:title="mozilla::MultiTouchInput">
<polygon fill="white" stroke="black" points="1882.5,-149.5 1882.5,-170.5 2005.5,-170.5 2005.5,-149.5 1882.5,-149.5"/>
<text text-anchor="middle" x="1944" y="-157.5" font-family="Helvetica,sans-Serif" font-size="10.00">mozilla::MultiTouchInput</text>
</a>
</g>
<!-- Node2&#45;&gt;Node8 -->
<g id="edge20" class="edge"><title>Node2&#45;&gt;Node8</title>
<path fill="none" stroke="#9a32cd" stroke-dasharray="5,2" d="M1690,-136.773C1749.84,-142.245 1828.56,-149.443 1882.41,-154.368"/>
<polygon fill="#9a32cd" stroke="#9a32cd" points="1690.09,-133.267 1679.81,-135.841 1689.45,-140.238 1690.09,-133.267"/>
<text text-anchor="middle" x="1799" y="-152" font-family="Helvetica,sans-Serif" font-size="10.00"> mTouches</text>
</g>
<!-- Node3 -->
<g id="node4" class="node"><title>Node3</title>
<a xlink:href="../../d4/dd8/classns_t_array___impl.html" target="_top" xlink:title="nsTArray_Impl\&lt; SingleTouchData, nsTArrayInfallibleAllocator \&gt;">
<polygon fill="white" stroke="black" points="1122.5,-118.5 1122.5,-139.5 1415.5,-139.5 1415.5,-118.5 1122.5,-118.5"/>
<text text-anchor="middle" x="1269" y="-126.5" font-family="Helvetica,sans-Serif" font-size="10.00">nsTArray_Impl&lt; SingleTouchData, nsTArrayInfallibleAllocator &gt;</text>
</a>
</g>
<!-- Node3&#45;&gt;Node2 -->
<g id="edge4" class="edge"><title>Node3&#45;&gt;Node2</title>
<path fill="none" stroke="midnightblue" d="M1426.11,-129C1462.46,-129 1499.49,-129 1530.35,-129"/>
<polygon fill="midnightblue" stroke="midnightblue" points="1425.89,-125.5 1415.89,-129 1425.89,-132.5 1425.89,-125.5"/>
</g>
<!-- Node4 -->
<g id="node6" class="node"><title>Node4</title>
<a xlink:href="../../db/d9f/classns_t_array__base.html" target="_top" xlink:title="nsTArray_base\&lt; nsTArrayInfallibleAllocator, nsTArray_CopyElements\&lt; SingleTouchData \&gt; \&gt;">
<polygon fill="white" stroke="black" points="628.5,-142.5 628.5,-163.5 1051.5,-163.5 1051.5,-142.5 628.5,-142.5"/>
<text text-anchor="middle" x="840" y="-150.5" font-family="Helvetica,sans-Serif" font-size="10.00">nsTArray_base&lt; nsTArrayInfallibleAllocator, nsTArray_CopyElements&lt; SingleTouchData &gt; &gt;</text>
</a>
</g>
<!-- Node4&#45;&gt;Node3 -->
<g id="edge6" class="edge"><title>Node4&#45;&gt;Node3</title>
<path fill="none" stroke="midnightblue" d="M1037.89,-141.929C1066.33,-140.338 1095.16,-138.726 1122.36,-137.204"/>
<polygon fill="midnightblue" stroke="midnightblue" points="1037.64,-138.438 1027.85,-142.491 1038.03,-145.427 1037.64,-138.438"/>
</g>
<!-- Node5 -->
<g id="node8" class="node"><title>Node5</title>
<a xlink:href="../../dc/d5a/structns_t_array_header.html" target="_top" xlink:title="nsTArrayHeader">
<polygon fill="white" stroke="black" points="222,-142.5 222,-163.5 310,-163.5 310,-142.5 222,-142.5"/>
<text text-anchor="middle" x="266" y="-150.5" font-family="Helvetica,sans-Serif" font-size="10.00">nsTArrayHeader</text>
</a>
</g>
<!-- Node5&#45;&gt;Node4 -->
<g id="edge8" class="edge"><title>Node5&#45;&gt;Node4</title>
<path fill="none" stroke="#9a32cd" stroke-dasharray="5,2" d="M320.484,-153C390.948,-153 517.787,-153 628.493,-153"/>
<polygon fill="#9a32cd" stroke="#9a32cd" points="320.088,-149.5 310.088,-153 320.088,-156.5 320.088,-149.5"/>
<text text-anchor="middle" x="564" y="-157" font-family="Helvetica,sans-Serif" font-size="10.00"> mHdr</text>
</g>
<!-- Node5&#45;&gt;Node5 -->
<g id="edge10" class="edge"><title>Node5&#45;&gt;Node5</title>
<path fill="none" stroke="#9a32cd" stroke-dasharray="5,2" d="M212.86,-166.977C202.795,-174.791 220.508,-182 266,-182 320.42,-182 335.088,-171.684 310.004,-162.355"/>
<polygon fill="#9a32cd" stroke="#9a32cd" points="214.653,-169.992 221.996,-162.355 211.493,-163.746 214.653,-169.992"/>
<text text-anchor="middle" x="266" y="-186" font-family="Helvetica,sans-Serif" font-size="10.00"> sEmptyHdr</text>
</g>
<!-- Node6 -->
<g id="node11" class="node"><title>Node6</title>
<a xlink:href="../../d7/dcf/structns_t_array___typed_base.html" target="_top" xlink:title="nsTArray_TypedBase\&lt; SingleTouchData, nsTArray_Impl\&lt; SingleTouchData, nsTArrayInfallibleAllocator \&gt; \&gt;">
<polygon fill="white" stroke="black" points="596.5,-102.5 596.5,-123.5 1083.5,-123.5 1083.5,-102.5 596.5,-102.5"/>
<text text-anchor="middle" x="840" y="-110.5" font-family="Helvetica,sans-Serif" font-size="10.00">nsTArray_TypedBase&lt; SingleTouchData, nsTArray_Impl&lt; SingleTouchData, nsTArrayInfallibleAllocator &gt; &gt;</text>
</a>
</g>
<!-- Node6&#45;&gt;Node3 -->
<g id="edge12" class="edge"><title>Node6&#45;&gt;Node3</title>
<path fill="none" stroke="midnightblue" d="M1093.76,-122.464C1103.44,-122.825 1113,-123.182 1122.38,-123.531"/>
<polygon fill="midnightblue" stroke="midnightblue" points="1093.76,-118.962 1083.64,-122.087 1093.5,-125.957 1093.76,-118.962"/>
</g>
<!-- Node7 -->
<g id="node13" class="node"><title>Node7</title>
<a xlink:href="../../db/d62/structns_t_array___safe_element_at_helper.html" target="_top" xlink:title="nsTArray_SafeElementAtHelper\&lt; SingleTouchData, nsTArray_Impl\&lt; SingleTouchData, nsTArrayInfallibleAllocator \&gt; \&gt;">
<polygon fill="white" stroke="black" points="0,-102.5 0,-123.5 532,-123.5 532,-102.5 0,-102.5"/>
<text text-anchor="middle" x="266" y="-110.5" font-family="Helvetica,sans-Serif" font-size="10.00">nsTArray_SafeElementAtHelper&lt; SingleTouchData, nsTArray_Impl&lt; SingleTouchData, nsTArrayInfallibleAllocator &gt; &gt;</text>
</a>
</g>
<!-- Node7&#45;&gt;Node6 -->
<g id="edge14" class="edge"><title>Node7&#45;&gt;Node6</title>
<path fill="none" stroke="midnightblue" d="M542.882,-113C560.671,-113 578.512,-113 596.131,-113"/>
<polygon fill="midnightblue" stroke="midnightblue" points="542.416,-109.5 532.416,-113 542.416,-116.5 542.416,-109.5"/>
</g>
<!-- Node8&#45;&gt;Node1 -->
<g id="edge16" class="edge"><title>Node8&#45;&gt;Node1</title>
<path fill="none" stroke="#9a32cd" stroke-dasharray="5,2" d="M2015.75,-156.009C2064.74,-152.253 2130.88,-145.151 2188,-132 2217.25,-125.266 2249.57,-113.255 2271.16,-104.535"/>
<polygon fill="#9a32cd" stroke="#9a32cd" points="2015.28,-152.534 2005.56,-156.761 2015.79,-159.515 2015.28,-152.534"/>
<text text-anchor="middle" x="2126" y="-155" font-family="Helvetica,sans-Serif" font-size="10.00"> mLastTouchInput</text>
</g>
<!-- Node9 -->
<g id="node17" class="node"><title>Node9</title>
<a xlink:href="../../d3/d93/classmozilla_1_1_input_data.html" target="_top" xlink:title="mozilla::InputData">
<polygon fill="white" stroke="black" points="1557,-168.5 1557,-189.5 1653,-189.5 1653,-168.5 1557,-168.5"/>
<text text-anchor="middle" x="1605" y="-176.5" font-family="Helvetica,sans-Serif" font-size="10.00">mozilla::InputData</text>
</a>
</g>
<!-- Node9&#45;&gt;Node8 -->
<g id="edge18" class="edge"><title>Node9&#45;&gt;Node8</title>
<path fill="none" stroke="midnightblue" d="M1663.46,-175.723C1724.61,-172.296 1820.19,-166.939 1882.46,-163.449"/>
<polygon fill="midnightblue" stroke="midnightblue" points="1663,-172.244 1653.21,-176.298 1663.39,-179.233 1663,-172.244"/>
</g>
<!-- Node10 -->
<g id="node20" class="node"><title>Node10</title>
<a xlink:href="../../d0/d01/classns_ref_ptr.html" target="_top" xlink:title="nsRefPtr\&lt; AsyncPanZoomController \&gt;">
<polygon fill="white" stroke="black" points="1851.5,-60.5 1851.5,-81.5 2036.5,-81.5 2036.5,-60.5 1851.5,-60.5"/>
<text text-anchor="middle" x="1944" y="-68.5" font-family="Helvetica,sans-Serif" font-size="10.00">nsRefPtr&lt; AsyncPanZoomController &gt;</text>
</a>
</g>
<!-- Node10&#45;&gt;Node1 -->
<g id="edge22" class="edge"><title>Node10&#45;&gt;Node1</title>
<path fill="none" stroke="#9a32cd" stroke-dasharray="5,2" d="M2047.2,-77.743C2097.5,-81.03 2157.44,-84.9465 2205.88,-88.1117"/>
<polygon fill="#9a32cd" stroke="#9a32cd" points="2047.15,-74.2326 2036.94,-77.0731 2046.69,-81.2177 2047.15,-74.2326"/>
<text text-anchor="middle" x="2126" y="-91" font-family="Helvetica,sans-Serif" font-size="10.00"> mAsyncPanZoomController</text>
</g>
<!-- Node11 -->
<g id="node22" class="node"><title>Node11</title>
<a xlink:href="../../de/de1/structmozilla_1_1gfx_1_1_int_point_typed.html" target="_top" xlink:title="mozilla::gfx::IntPointTyped\&lt; ScreenPixel \&gt;">
<polygon fill="white" stroke="black" points="1842,-20.5 1842,-41.5 2046,-41.5 2046,-20.5 1842,-20.5"/>
<text text-anchor="middle" x="1944" y="-28.5" font-family="Helvetica,sans-Serif" font-size="10.00">mozilla::gfx::IntPointTyped&lt; ScreenPixel &gt;</text>
</a>
</g>
<!-- Node11&#45;&gt;Node1 -->
<g id="edge24" class="edge"><title>Node11&#45;&gt;Node1</title>
<path fill="none" stroke="#9a32cd" stroke-dasharray="5,2" d="M2056.24,-42.1665C2097.85,-47.2376 2145.3,-54.1233 2188,-63 2213.78,-68.3599 2242.41,-76.6876 2263.71,-83.3625"/>
<polygon fill="#9a32cd" stroke="#9a32cd" points="2056.42,-38.6627 2046.07,-40.9491 2055.58,-45.6131 2056.42,-38.6627"/>
<text text-anchor="middle" x="2126" y="-67" font-family="Helvetica,sans-Serif" font-size="10.00"> mTouchStartPosition</text>
</g>
<!-- Node12 -->
<g id="node24" class="node"><title>Node12</title>
<a xlink:href="../../d2/dfb/structmozilla_1_1gfx_1_1_base_point.html" target="_top" xlink:title="mozilla::gfx::BasePoint\&lt; int32_t, IntPointTyped\&lt; ScreenPixel \&gt; \&gt;">
<polygon fill="white" stroke="black" points="1454,-40.5 1454,-61.5 1756,-61.5 1756,-40.5 1454,-40.5"/>
<text text-anchor="middle" x="1605" y="-48.5" font-family="Helvetica,sans-Serif" font-size="10.00">mozilla::gfx::BasePoint&lt; int32_t, IntPointTyped&lt; ScreenPixel &gt; &gt;</text>
</a>
</g>
<!-- Node12&#45;&gt;Node11 -->
<g id="edge26" class="edge"><title>Node12&#45;&gt;Node11</title>
<path fill="none" stroke="midnightblue" d="M1766.36,-41.4801C1792.03,-39.9656 1817.95,-38.4364 1841.76,-37.0318"/>
<polygon fill="midnightblue" stroke="midnightblue" points="1765.93,-37.9991 1756.16,-42.0821 1766.35,-44.987 1765.93,-37.9991"/>
</g>
<!-- Node13 -->
<g id="node26" class="node"><title>Node13</title>
<a xlink:href="../../d4/d94/structmozilla_1_1_screen_pixel.html" target="_top" xlink:title="mozilla::ScreenPixel">
<polygon fill="white" stroke="black" points="1552,-0.5 1552,-21.5 1658,-21.5 1658,-0.5 1552,-0.5"/>
<text text-anchor="middle" x="1605" y="-8.5" font-family="Helvetica,sans-Serif" font-size="10.00">mozilla::ScreenPixel</text>
</a>
</g>
<!-- Node13&#45;&gt;Node11 -->
<g id="edge28" class="edge"><title>Node13&#45;&gt;Node11</title>
<path fill="none" stroke="midnightblue" d="M1668.43,-14.7422C1717.15,-17.6167 1785.42,-21.6445 1841.82,-24.9718"/>
<polygon fill="midnightblue" stroke="midnightblue" points="1668.53,-11.2421 1658.34,-14.147 1668.12,-18.23 1668.53,-11.2421"/>
</g>
</g>
</svg>
        <g id="navigator" transform="translate(0 0)" fill="#404254">
                <rect fill="#f2f5e9" fill-opacity="0.5" stroke="#606060" stroke-width=".5" x="0" y="0" width="60" height="60"/>
                <use id="zoomplus" xlink:href="#zoomPlus" x="17" y="9" onmousedown="handleZoom(evt,'in')"/>
                <use id="zoomminus" xlink:href="#zoomMin" x="42" y="9" onmousedown="handleZoom(evt,'out')"/>
                <use id="reset" xlink:href="#resetDef" x="30" y="36" onmousedown="handleReset()"/>
                <g id="arrowUp" xlink:href="#dirArrow" transform="translate(30 24)" onmousedown="handlePan(0,-1)">
                  <use xlink:href="#rim" fill="#404040">
                        <set attributeName="fill" to="#808080" begin="arrowUp.mouseover" end="arrowUp.mouseout"/>
                  </use>
                  <path fill="none" stroke="white" stroke-width="1.5" d="M0,-3.0v7 M-2.5,-0.5L0,-3.0L2.5,-0.5"/>
                </g>
                <g id="arrowRight" xlink:href="#dirArrow" transform="rotate(90) translate(36 -43)" onmousedown="handlePan(1,0)">
                  <use xlink:href="#rim" fill="#404040">
                        <set attributeName="fill" to="#808080" begin="arrowRight.mouseover" end="arrowRight.mouseout"/>
                  </use>
                  <path fill="none" stroke="white" stroke-width="1.5" d="M0,-3.0v7 M-2.5,-0.5L0,-3.0L2.5,-0.5"/>
                </g>
                <g id="arrowDown" xlink:href="#dirArrow" transform="rotate(180) translate(-30 -48)" onmousedown="handlePan(0,1)">
                  <use xlink:href="#rim" fill="#404040">
                        <set attributeName="fill" to="#808080" begin="arrowDown.mouseover" end="arrowDown.mouseout"/>
                  </use>
                  <path fill="none" stroke="white" stroke-width="1.5" d="M0,-3.0v7 M-2.5,-0.5L0,-3.0L2.5,-0.5"/>
                </g>
                <g id="arrowLeft" xlink:href="#dirArrow" transform="rotate(270) translate(-36 17)" onmousedown="handlePan(-1,0)">
                  <use xlink:href="#rim" fill="#404040">
                        <set attributeName="fill" to="#808080" begin="arrowLeft.mouseover" end="arrowLeft.mouseout"/>
                  </use>
                  <path fill="none" stroke="white" stroke-width="1.5" d="M0,-3.0v7 M-2.5,-0.5L0,-3.0L2.5,-0.5"/>
                </g>
        </g>
</svg>
