<?xml version="1.0" encoding="UTF-8" standalone="no"?>
<!DOCTYPE svg PUBLIC "-//W3C//DTD SVG 1.1//EN"
 "http://www.w3.org/Graphics/SVG/1.1/DTD/svg11.dtd">
<!-- Generated by graphviz version 2.26.3 (20100126.1600)
 -->
<!-- Title: G Pages: 1 -->
<!--zoomable 186 -->
<svg id="main" version="1.1" xmlns="http://www.w3.org/2000/svg" xmlns:xlink="http://www.w3.org/1999/xlink" xml:space="preserve" onload="init(evt)">
        <defs>
                <circle id="rim" cx="0" cy="0" r="7"/>
                <circle id="rim2" cx="0" cy="0" r="3.5"/>
                <g id="zoomPlus">
                        <use xlink:href="#rim" fill="#404040">
                                <set attributeName="fill" to="#808080" begin="zoomplus.mouseover" end="zoomplus.mouseout"/>
                        </use>
                        <path d="M-4,0h8M0,-4v8" fill="none" stroke="white" stroke-width="1.5" pointer-events="none"/>
                </g>
                <g id="zoomMin">
                        <use xlink:href="#rim" fill="#404040">
                                <set attributeName="fill" to="#808080" begin="zoomminus.mouseover" end="zoomminus.mouseout"/>
                        </use>
                        <path d="M-4,0h8" fill="none" stroke="white" stroke-width="1.5" pointer-events="none"/>
                </g>
                <g id="dirArrow">
                        <path fill="none" stroke="white" stroke-width="1.5" d="M0,-3.0v7 M-2.5,-0.5L0,-3.0L2.5,-0.5"/>
                </g>
               <g id="resetDef">
                       <use xlink:href="#rim2" fill="#404040">
                               <set attributeName="fill" to="#808080" begin="reset.mouseover" end="reset.mouseout"/>
                       </use>
               </g>
        </defs>

<script type="text/javascript">
var viewWidth = 888;
var viewHeight = 186;
var sectionId = 'dynsection-1';
</script>
<script xlink:href="../../svgpan.js"/>
<svg id="graph" class="graph">
<g id="viewport">
<title>G</title>
<polygon fill="white" stroke="white" points="-4,5 -4,-182 885,-182 885,5 -4,5"/>
<!-- Node1 -->
<g id="node1" class="node"><title>Node1</title>
<polygon fill="#bfbfbf" stroke="black" points="0,-117.5 0,-138.5 280,-138.5 280,-117.5 0,-117.5"/>
<text text-anchor="middle" x="140" y="-125.5" font-family="Helvetica,sans-Serif" font-size="10.00">mozilla::dom::XPathEvaluatorBinding::GetConstructorObject</text>
</g>
<!-- Node2 -->
<g id="node3" class="node"><title>Node2</title>
<a xlink:href="../../dd/ddd/namespacemozilla_1_1dom_1_1_x_path_evaluator_binding.html#ac36aee5215d8f0a1e8d49c12891ceed7" target="_top" xlink:title="mozilla::dom::XPathEvaluatorBinding::CreateInterfaceObjects">
<polygon fill="white" stroke="black" points="316,-156.5 316,-177.5 602,-177.5 602,-156.5 316,-156.5"/>
<text text-anchor="middle" x="459" y="-164.5" font-family="Helvetica,sans-Serif" font-size="10.00">mozilla::dom::XPathEvaluatorBinding::CreateInterfaceObjects</text>
</a>
</g>
<!-- Node1&#45;&gt;Node2 -->
<g id="edge2" class="edge"><title>Node1&#45;&gt;Node2</title>
<path fill="none" stroke="midnightblue" d="M225.906,-138.503C268.193,-143.672 319.319,-149.923 362.901,-155.251"/>
<polygon fill="midnightblue" stroke="midnightblue" points="362.59,-158.739 372.941,-156.479 363.439,-151.791 362.59,-158.739"/>
</g>
<!-- Node3 -->
<g id="node5" class="node"><title>Node3</title>
<a xlink:href="../../db/da2/namespacejs.html#aca7ef07fd5e632405949331c6929f1e6" target="_top" xlink:title="js::GetObjectClass">
<polygon fill="white" stroke="black" points="780,-79.5 780,-100.5 880,-100.5 880,-79.5 780,-79.5"/>
<text text-anchor="middle" x="830" y="-87.5" font-family="Helvetica,sans-Serif" font-size="10.00">js::GetObjectClass</text>
</a>
</g>
<!-- Node1&#45;&gt;Node3 -->
<g id="edge4" class="edge"><title>Node1&#45;&gt;Node3</title>
<path fill="none" stroke="midnightblue" d="M280.087,-121.243C402.528,-115.178 585.08,-105.753 744,-96 752.375,-95.486 761.206,-94.9094 769.892,-94.3223"/>
<polygon fill="midnightblue" stroke="midnightblue" points="770.249,-97.8061 779.986,-93.6313 769.771,-90.8225 770.249,-97.8061"/>
</g>
<!-- Node4 -->
<g id="node7" class="node"><title>Node4</title>
<a xlink:href="../../d7/d4b/namespacemozilla_1_1dom.html#ade3c1c38ff416c6d50f6c97f01f836e1" target="_top" xlink:title="mozilla::dom::GetProtoAndIfaceArray">
<polygon fill="white" stroke="black" points="369.5,-59.5 369.5,-80.5 548.5,-80.5 548.5,-59.5 369.5,-59.5"/>
<text text-anchor="middle" x="459" y="-67.5" font-family="Helvetica,sans-Serif" font-size="10.00">mozilla::dom::GetProtoAndIfaceArray</text>
</a>
</g>
<!-- Node1&#45;&gt;Node4 -->
<g id="edge6" class="edge"><title>Node1&#45;&gt;Node4</title>
<path fill="none" stroke="midnightblue" d="M197.768,-117.497C252.138,-107.611 333.574,-92.8046 391.042,-82.356"/>
<polygon fill="midnightblue" stroke="midnightblue" points="391.911,-85.7555 401.123,-80.5231 390.658,-78.8684 391.911,-85.7555"/>
</g>
<!-- Node4&#45;&gt;Node3 -->
<g id="edge8" class="edge"><title>Node4&#45;&gt;Node3</title>
<path fill="none" stroke="midnightblue" d="M548.809,-74.8414C617.329,-78.5353 709.837,-83.5222 769.708,-86.7498"/>
<polygon fill="midnightblue" stroke="midnightblue" points="769.586,-90.2482 779.76,-87.2917 769.963,-83.2583 769.586,-90.2482"/>
</g>
<!-- Node5 -->
<g id="node10" class="node"><title>Node5</title>
<a xlink:href="../../db/da2/namespacejs.html#ad81f7c892e54c34c67a930983b58c1b0" target="_top" xlink:title="js::GetReservedSlot">
<polygon fill="white" stroke="black" points="638.5,-40.5 638.5,-61.5 743.5,-61.5 743.5,-40.5 638.5,-40.5"/>
<text text-anchor="middle" x="691" y="-48.5" font-family="Helvetica,sans-Serif" font-size="10.00">js::GetReservedSlot</text>
</a>
</g>
<!-- Node4&#45;&gt;Node5 -->
<g id="edge10" class="edge"><title>Node4&#45;&gt;Node5</title>
<path fill="none" stroke="midnightblue" d="M548.697,-62.6541C575.251,-60.4794 603.746,-58.1458 628.21,-56.1423"/>
<polygon fill="midnightblue" stroke="midnightblue" points="628.749,-59.6099 638.43,-55.3053 628.178,-52.6333 628.749,-59.6099"/>
</g>
<!-- Node6 -->
<g id="node13" class="node"><title>Node6</title>
<a xlink:href="../../d1/d94/class_j_s_1_1_value.html#acb6cff159be405ffc5f5f64fa39a04db" target="_top" xlink:title="JS::Value::toPrivate">
<polygon fill="white" stroke="black" points="639,-0.5 639,-21.5 743,-21.5 743,-0.5 639,-0.5"/>
<text text-anchor="middle" x="691" y="-8.5" font-family="Helvetica,sans-Serif" font-size="10.00">JS::Value::toPrivate</text>
</a>
</g>
<!-- Node4&#45;&gt;Node6 -->
<g id="edge14" class="edge"><title>Node4&#45;&gt;Node6</title>
<path fill="none" stroke="midnightblue" d="M500.477,-59.452C539.451,-49.5406 597.888,-34.6795 639.759,-24.0311"/>
<polygon fill="midnightblue" stroke="midnightblue" points="640.663,-27.4128 649.492,-21.556 638.938,-20.6287 640.663,-27.4128"/>
</g>
<!-- Node5&#45;&gt;Node3 -->
<g id="edge12" class="edge"><title>Node5&#45;&gt;Node3</title>
<path fill="none" stroke="midnightblue" d="M728.615,-61.554C745.149,-66.1929 764.757,-71.6943 782.302,-76.617"/>
<polygon fill="midnightblue" stroke="midnightblue" points="781.781,-80.106 792.355,-79.4376 783.672,-73.3662 781.781,-80.106"/>
</g>
</g>
</svg>
        <g id="navigator" transform="translate(0 0)" fill="#404254">
                <rect fill="#f2f5e9" fill-opacity="0.5" stroke="#606060" stroke-width=".5" x="0" y="0" width="60" height="60"/>
                <use id="zoomplus" xlink:href="#zoomPlus" x="17" y="9" onmousedown="handleZoom(evt,'in')"/>
                <use id="zoomminus" xlink:href="#zoomMin" x="42" y="9" onmousedown="handleZoom(evt,'out')"/>
                <use id="reset" xlink:href="#resetDef" x="30" y="36" onmousedown="handleReset()"/>
                <g id="arrowUp" xlink:href="#dirArrow" transform="translate(30 24)" onmousedown="handlePan(0,-1)">
                  <use xlink:href="#rim" fill="#404040">
                        <set attributeName="fill" to="#808080" begin="arrowUp.mouseover" end="arrowUp.mouseout"/>
                  </use>
                  <path fill="none" stroke="white" stroke-width="1.5" d="M0,-3.0v7 M-2.5,-0.5L0,-3.0L2.5,-0.5"/>
                </g>
                <g id="arrowRight" xlink:href="#dirArrow" transform="rotate(90) translate(36 -43)" onmousedown="handlePan(1,0)">
                  <use xlink:href="#rim" fill="#404040">
                        <set attributeName="fill" to="#808080" begin="arrowRight.mouseover" end="arrowRight.mouseout"/>
                  </use>
                  <path fill="none" stroke="white" stroke-width="1.5" d="M0,-3.0v7 M-2.5,-0.5L0,-3.0L2.5,-0.5"/>
                </g>
                <g id="arrowDown" xlink:href="#dirArrow" transform="rotate(180) translate(-30 -48)" onmousedown="handlePan(0,1)">
                  <use xlink:href="#rim" fill="#404040">
                        <set attributeName="fill" to="#808080" begin="arrowDown.mouseover" end="arrowDown.mouseout"/>
                  </use>
                  <path fill="none" stroke="white" stroke-width="1.5" d="M0,-3.0v7 M-2.5,-0.5L0,-3.0L2.5,-0.5"/>
                </g>
                <g id="arrowLeft" xlink:href="#dirArrow" transform="rotate(270) translate(-36 17)" onmousedown="handlePan(-1,0)">
                  <use xlink:href="#rim" fill="#404040">
                        <set attributeName="fill" to="#808080" begin="arrowLeft.mouseover" end="arrowLeft.mouseout"/>
                  </use>
                  <path fill="none" stroke="white" stroke-width="1.5" d="M0,-3.0v7 M-2.5,-0.5L0,-3.0L2.5,-0.5"/>
                </g>
        </g>
</svg>
