<?xml version="1.0" encoding="UTF-8" standalone="no"?>
<!DOCTYPE svg PUBLIC "-//W3C//DTD SVG 1.1//EN"
 "http://www.w3.org/Graphics/SVG/1.1/DTD/svg11.dtd">
<!-- Generated by graphviz version 2.26.3 (20100126.1600)
 -->
<!-- Title: G Pages: 1 -->
<!--zoomable 668 -->
<svg id="main" version="1.1" xmlns="http://www.w3.org/2000/svg" xmlns:xlink="http://www.w3.org/1999/xlink" xml:space="preserve" onload="init(evt)">
        <defs>
                <circle id="rim" cx="0" cy="0" r="7"/>
                <circle id="rim2" cx="0" cy="0" r="3.5"/>
                <g id="zoomPlus">
                        <use xlink:href="#rim" fill="#404040">
                                <set attributeName="fill" to="#808080" begin="zoomplus.mouseover" end="zoomplus.mouseout"/>
                        </use>
                        <path d="M-4,0h8M0,-4v8" fill="none" stroke="white" stroke-width="1.5" pointer-events="none"/>
                </g>
                <g id="zoomMin">
                        <use xlink:href="#rim" fill="#404040">
                                <set attributeName="fill" to="#808080" begin="zoomminus.mouseover" end="zoomminus.mouseout"/>
                        </use>
                        <path d="M-4,0h8" fill="none" stroke="white" stroke-width="1.5" pointer-events="none"/>
                </g>
                <g id="dirArrow">
                        <path fill="none" stroke="white" stroke-width="1.5" d="M0,-3.0v7 M-2.5,-0.5L0,-3.0L2.5,-0.5"/>
                </g>
               <g id="resetDef">
                       <use xlink:href="#rim2" fill="#404040">
                               <set attributeName="fill" to="#808080" begin="reset.mouseover" end="reset.mouseout"/>
                       </use>
               </g>
        </defs>

<script type="text/javascript">
var viewWidth = 1514;
var viewHeight = 668;
var sectionId = 'dynsection-0';
</script>
<script xlink:href="../../svgpan.js"/>
<svg id="graph" class="graph">
<g id="viewport">
<title>G</title>
<polygon fill="white" stroke="white" points="-4,5 -4,-664 1511,-664 1511,5 -4,5"/>
<!-- Node1 -->
<g id="node1" class="node"><title>Node1</title>
<polygon fill="#bfbfbf" stroke="black" points="-0.5,-638.5 -0.5,-659.5 560.5,-659.5 560.5,-638.5 -0.5,-638.5"/>
<text text-anchor="middle" x="280" y="-646.5" font-family="Helvetica,sans-Serif" font-size="10.00">/home/aoi/Documents/FxOS/B2G/gaia/xulrunner&#45;sdk/include/mozilla/dom/mobilemessage/MobileMessageDatabaseService.h</text>
</g>
<!-- Node2 -->
<g id="node3" class="node"><title>Node2</title>
<a xlink:href="../../d3/d40/ns_i_mobile_message_database_service_8h.html" target="_top" xlink:title="nsIMobileMessageDatabaseService.h">
<polygon fill="white" stroke="black" points="282,-580.5 282,-601.5 464,-601.5 464,-580.5 282,-580.5"/>
<text text-anchor="middle" x="373" y="-588.5" font-family="Helvetica,sans-Serif" font-size="10.00">nsIMobileMessageDatabaseService.h</text>
</a>
</g>
<!-- Node1&#45;&gt;Node2 -->
<g id="edge2" class="edge"><title>Node1&#45;&gt;Node2</title>
<path fill="none" stroke="midnightblue" d="M297.058,-638.362C311.085,-629.614 331.184,-617.079 347.182,-607.101"/>
<polygon fill="midnightblue" stroke="midnightblue" points="349.418,-609.832 356.051,-601.571 345.713,-603.893 349.418,-609.832"/>
</g>
<!-- Node10 -->
<g id="node20" class="node"><title>Node10</title>
<a xlink:href="../../d1/da8/_attributes_8h.html" target="_top" xlink:title="mozilla/Attributes.h">
<polygon fill="white" stroke="black" points="814.5,-58.5 814.5,-79.5 915.5,-79.5 915.5,-58.5 814.5,-58.5"/>
<text text-anchor="middle" x="865" y="-66.5" font-family="Helvetica,sans-Serif" font-size="10.00">mozilla/Attributes.h</text>
</a>
</g>
<!-- Node1&#45;&gt;Node10 -->
<g id="edge140" class="edge"><title>Node1&#45;&gt;Node10</title>
<path fill="none" stroke="midnightblue" d="M263.126,-638.448C236.566,-620.381 188,-580.809 188,-533 188,-533 188,-533 188,-185 188,-132.816 234.059,-134.108 283,-116 330.941,-98.2622 664.634,-79.2987 804.03,-72.0523"/>
<polygon fill="midnightblue" stroke="midnightblue" points="804.317,-75.5422 814.123,-71.5305 803.955,-68.5516 804.317,-75.5422"/>
</g>
<!-- Node3 -->
<g id="node5" class="node"><title>Node3</title>
<a xlink:href="../../de/d5a/ns_i_supports_8h.html" target="_top" xlink:title="nsISupports.h">
<polygon fill="white" stroke="black" points="401.5,-522.5 401.5,-543.5 478.5,-543.5 478.5,-522.5 401.5,-522.5"/>
<text text-anchor="middle" x="440" y="-530.5" font-family="Helvetica,sans-Serif" font-size="10.00">nsISupports.h</text>
</a>
</g>
<!-- Node2&#45;&gt;Node3 -->
<g id="edge4" class="edge"><title>Node2&#45;&gt;Node3</title>
<path fill="none" stroke="midnightblue" d="M385.289,-580.362C395.017,-571.941 408.798,-560.011 420.095,-550.231"/>
<polygon fill="midnightblue" stroke="midnightblue" points="422.519,-552.762 427.789,-543.571 417.938,-547.469 422.519,-552.762"/>
</g>
<!-- Node4 -->
<g id="node7" class="node"><title>Node4</title>
<a xlink:href="../../d9/d92/nsrootidl_8h.html" target="_top" xlink:title="nsrootidl.h">
<polygon fill="white" stroke="black" points="355,-406.5 355,-427.5 417,-427.5 417,-406.5 355,-406.5"/>
<text text-anchor="middle" x="386" y="-414.5" font-family="Helvetica,sans-Serif" font-size="10.00">nsrootidl.h</text>
</a>
</g>
<!-- Node3&#45;&gt;Node4 -->
<g id="edge6" class="edge"><title>Node3&#45;&gt;Node4</title>
<path fill="none" stroke="midnightblue" d="M435.017,-522.295C425.975,-502.872 406.742,-461.556 395.239,-436.846"/>
<polygon fill="midnightblue" stroke="midnightblue" points="398.365,-435.268 390.971,-427.679 392.019,-438.222 398.365,-435.268"/>
</g>
<!-- Node20 -->
<g id="node43" class="node"><title>Node20</title>
<a xlink:href="../../de/d38/ns_i_supports_base_8h.html" target="_top" xlink:title="nsISupportsBase.h">
<polygon fill="white" stroke="black" points="405,-348.5 405,-369.5 505,-369.5 505,-348.5 405,-348.5"/>
<text text-anchor="middle" x="455" y="-356.5" font-family="Helvetica,sans-Serif" font-size="10.00">nsISupportsBase.h</text>
</a>
</g>
<!-- Node3&#45;&gt;Node20 -->
<g id="edge46" class="edge"><title>Node3&#45;&gt;Node20</title>
<path fill="none" stroke="midnightblue" d="M440.916,-522.377C443.337,-494.293 449.942,-417.673 453.172,-380.203"/>
<polygon fill="midnightblue" stroke="midnightblue" points="456.686,-380.191 454.058,-369.928 449.712,-379.59 456.686,-380.191"/>
</g>
<!-- Node22 -->
<g id="node50" class="node"><title>Node22</title>
<a xlink:href="../../d9/d4b/ns_i_supports_utils_8h.html" target="_top" xlink:title="nsISupportsUtils.h">
<polygon fill="white" stroke="black" points="598,-464.5 598,-485.5 696,-485.5 696,-464.5 598,-464.5"/>
<text text-anchor="middle" x="647" y="-472.5" font-family="Helvetica,sans-Serif" font-size="10.00">nsISupportsUtils.h</text>
</a>
</g>
<!-- Node3&#45;&gt;Node22 -->
<g id="edge56" class="edge"><title>Node3&#45;&gt;Node22</title>
<path fill="none" stroke="midnightblue" d="M477.486,-522.497C511.671,-512.918 562.346,-498.72 599.384,-488.342"/>
<polygon fill="midnightblue" stroke="midnightblue" points="600.759,-491.591 609.444,-485.523 598.87,-484.851 600.759,-491.591"/>
</g>
<!-- Node5 -->
<g id="node9" class="node"><title>Node5</title>
<a xlink:href="../../d3/dd8/nscore_8h.html" target="_top" xlink:title="nscore.h">
<polygon fill="white" stroke="black" points="506,-232.5 506,-253.5 560,-253.5 560,-232.5 506,-232.5"/>
<text text-anchor="middle" x="533" y="-240.5" font-family="Helvetica,sans-Serif" font-size="10.00">nscore.h</text>
</a>
</g>
<!-- Node4&#45;&gt;Node5 -->
<g id="edge8" class="edge"><title>Node4&#45;&gt;Node5</title>
<path fill="none" stroke="midnightblue" d="M385.162,-406.38C384.538,-392.099 385.223,-366.377 396,-348 420.491,-306.239 468.63,-275.37 500.817,-258.277"/>
<polygon fill="midnightblue" stroke="midnightblue" points="502.562,-261.316 509.845,-253.621 499.353,-255.095 502.562,-261.316"/>
</g>
<!-- Node6 -->
<g id="node11" class="node"><title>Node6</title>
<a xlink:href="../../d7/d2d/xpcom-config_8h.html" target="_top" xlink:title="xpcom&#45;config.h">
<polygon fill="white" stroke="black" points="357.5,-116.5 357.5,-137.5 440.5,-137.5 440.5,-116.5 357.5,-116.5"/>
<text text-anchor="middle" x="399" y="-124.5" font-family="Helvetica,sans-Serif" font-size="10.00">xpcom&#45;config.h</text>
</a>
</g>
<!-- Node5&#45;&gt;Node6 -->
<g id="edge10" class="edge"><title>Node5&#45;&gt;Node6</title>
<path fill="none" stroke="midnightblue" d="M505.746,-241.083C453.834,-236.805 343.889,-224.519 321,-196 303.97,-174.781 333.916,-154.665 361.493,-141.688"/>
<polygon fill="midnightblue" stroke="midnightblue" points="362.989,-144.853 370.684,-137.569 360.127,-138.465 362.989,-144.853"/>
</g>
<!-- Node7 -->
<g id="node13" class="node"><title>Node7</title>
<a xlink:href="../../d1/d62/mozalloc_8h.html" target="_top" xlink:title="mozilla/mozalloc.h">
<polygon fill="white" stroke="black" points="330,-174.5 330,-195.5 428,-195.5 428,-174.5 330,-174.5"/>
<text text-anchor="middle" x="379" y="-182.5" font-family="Helvetica,sans-Serif" font-size="10.00">mozilla/mozalloc.h</text>
</a>
</g>
<!-- Node5&#45;&gt;Node7 -->
<g id="edge12" class="edge"><title>Node5&#45;&gt;Node7</title>
<path fill="none" stroke="midnightblue" d="M505.822,-232.764C481.059,-223.438 444.248,-209.574 416.655,-199.182"/>
<polygon fill="midnightblue" stroke="midnightblue" points="417.537,-195.774 406.945,-195.525 415.07,-202.325 417.537,-195.774"/>
</g>
<!-- Node12 -->
<g id="node24" class="node"><title>Node12</title>
<a xlink:href="../../d1/de4/mozalloc__macro__wrappers_8h.html" target="_top" xlink:title="mozilla/mozalloc_macro_wrappers.h">
<polygon fill="white" stroke="black" points="445.5,-174.5 445.5,-195.5 620.5,-195.5 620.5,-174.5 445.5,-174.5"/>
<text text-anchor="middle" x="533" y="-182.5" font-family="Helvetica,sans-Serif" font-size="10.00">mozilla/mozalloc_macro_wrappers.h</text>
</a>
</g>
<!-- Node5&#45;&gt;Node12 -->
<g id="edge24" class="edge"><title>Node5&#45;&gt;Node12</title>
<path fill="none" stroke="midnightblue" d="M533,-232.362C533,-224.922 533,-214.743 533,-205.728"/>
<polygon fill="midnightblue" stroke="midnightblue" points="536.5,-205.571 533,-195.571 529.5,-205.571 536.5,-205.571"/>
</g>
<!-- Node13 -->
<g id="node26" class="node"><title>Node13</title>
<polygon fill="white" stroke="#bfbfbf" points="902,-174.5 902,-195.5 954,-195.5 954,-174.5 902,-174.5"/>
<text text-anchor="middle" x="928" y="-182.5" font-family="Helvetica,sans-Serif" font-size="10.00">stddef.h</text>
</g>
<!-- Node5&#45;&gt;Node13 -->
<g id="edge26" class="edge"><title>Node5&#45;&gt;Node13</title>
<path fill="none" stroke="midnightblue" d="M560.15,-239.013C629.485,-228.833 813.126,-201.868 891.605,-190.344"/>
<polygon fill="midnightblue" stroke="midnightblue" points="892.572,-193.74 901.958,-188.824 891.555,-186.814 892.572,-193.74"/>
</g>
<!-- Node14 -->
<g id="node28" class="node"><title>Node14</title>
<polygon fill="white" stroke="#bfbfbf" points="623.5,-116.5 623.5,-137.5 672.5,-137.5 672.5,-116.5 623.5,-116.5"/>
<text text-anchor="middle" x="648" y="-124.5" font-family="Helvetica,sans-Serif" font-size="10.00">stdint.h</text>
</g>
<!-- Node5&#45;&gt;Node14 -->
<g id="edge28" class="edge"><title>Node5&#45;&gt;Node14</title>
<path fill="none" stroke="midnightblue" d="M560.046,-236.388C581.729,-229.717 611.355,-217.288 629,-196 640.247,-182.431 644.864,-162.716 646.745,-147.83"/>
<polygon fill="midnightblue" stroke="midnightblue" points="650.258,-147.856 647.714,-137.571 643.289,-147.197 650.258,-147.856"/>
</g>
<!-- Node15 -->
<g id="node30" class="node"><title>Node15</title>
<a xlink:href="../../df/dcf/_null_ptr_8h.html" target="_top" xlink:title="mozilla/NullPtr.h">
<polygon fill="white" stroke="black" points="464.5,-58.5 464.5,-79.5 553.5,-79.5 553.5,-58.5 464.5,-58.5"/>
<text text-anchor="middle" x="509" y="-66.5" font-family="Helvetica,sans-Serif" font-size="10.00">mozilla/NullPtr.h</text>
</a>
</g>
<!-- Node5&#45;&gt;Node15 -->
<g id="edge30" class="edge"><title>Node5&#45;&gt;Node15</title>
<path fill="none" stroke="midnightblue" d="M505.837,-240.11C453.928,-234.125 343.114,-218.986 313,-196 289.931,-178.391 289.861,-166.199 283,-138 280.688,-128.499 276.83,-123.585 283,-116 304.187,-89.9541 394.456,-77.8687 454.3,-72.6269"/>
<polygon fill="midnightblue" stroke="midnightblue" points="454.689,-76.1068 464.362,-71.7845 454.105,-69.1312 454.689,-76.1068"/>
</g>
<!-- Node16 -->
<g id="node33" class="node"><title>Node16</title>
<a xlink:href="../../d8/dcf/ns_error_8h.html" target="_top" xlink:title="nsError.h">
<polygon fill="white" stroke="black" points="714,-174.5 714,-195.5 770,-195.5 770,-174.5 714,-174.5"/>
<text text-anchor="middle" x="742" y="-182.5" font-family="Helvetica,sans-Serif" font-size="10.00">nsError.h</text>
</a>
</g>
<!-- Node5&#45;&gt;Node16 -->
<g id="edge34" class="edge"><title>Node5&#45;&gt;Node16</title>
<path fill="none" stroke="midnightblue" d="M560.323,-235.418C597.02,-225.234 662.406,-207.088 703.916,-195.569"/>
<polygon fill="midnightblue" stroke="midnightblue" points="704.967,-198.909 713.667,-192.863 703.095,-192.164 704.967,-198.909"/>
</g>
<!-- Node7&#45;&gt;Node6 -->
<g id="edge18" class="edge"><title>Node7&#45;&gt;Node6</title>
<path fill="none" stroke="midnightblue" d="M382.668,-174.362C385.29,-166.758 388.899,-156.294 392.057,-147.135"/>
<polygon fill="midnightblue" stroke="midnightblue" points="395.404,-148.165 395.355,-137.571 388.786,-145.883 395.404,-148.165"/>
</g>
<!-- Node8 -->
<g id="node15" class="node"><title>Node8</title>
<polygon fill="white" stroke="#bfbfbf" points="543,-116.5 543,-137.5 591,-137.5 591,-116.5 543,-116.5"/>
<text text-anchor="middle" x="567" y="-124.5" font-family="Helvetica,sans-Serif" font-size="10.00">stdlib.h</text>
</g>
<!-- Node7&#45;&gt;Node8 -->
<g id="edge14" class="edge"><title>Node7&#45;&gt;Node8</title>
<path fill="none" stroke="midnightblue" d="M413.045,-174.497C446.992,-164.024 498.842,-148.028 532.831,-137.541"/>
<polygon fill="midnightblue" stroke="midnightblue" points="534.243,-140.769 542.767,-134.476 532.179,-134.08 534.243,-140.769"/>
</g>
<!-- Node9 -->
<g id="node17" class="node"><title>Node9</title>
<polygon fill="white" stroke="#bfbfbf" points="291.5,-116.5 291.5,-137.5 340.5,-137.5 340.5,-116.5 291.5,-116.5"/>
<text text-anchor="middle" x="316" y="-124.5" font-family="Helvetica,sans-Serif" font-size="10.00">string.h</text>
</g>
<!-- Node7&#45;&gt;Node9 -->
<g id="edge16" class="edge"><title>Node7&#45;&gt;Node9</title>
<path fill="none" stroke="midnightblue" d="M367.445,-174.362C358.387,-166.023 345.59,-154.242 335.026,-144.516"/>
<polygon fill="midnightblue" stroke="midnightblue" points="337.21,-141.769 327.482,-137.571 332.468,-146.919 337.21,-141.769"/>
</g>
<!-- Node7&#45;&gt;Node10 -->
<g id="edge20" class="edge"><title>Node7&#45;&gt;Node10</title>
<path fill="none" stroke="midnightblue" d="M397.922,-174.496C426.494,-159.124 482.761,-130.731 534,-116 626.189,-89.4969 737.297,-77.6252 804.476,-72.5393"/>
<polygon fill="midnightblue" stroke="midnightblue" points="804.748,-76.0288 814.466,-71.8086 804.238,-69.0475 804.748,-76.0288"/>
</g>
<!-- Node11 -->
<g id="node22" class="node"><title>Node11</title>
<a xlink:href="../../da/da7/_compiler_8h.html" target="_top" xlink:title="mozilla/Compiler.h">
<polygon fill="white" stroke="black" points="816,-0.5 816,-21.5 914,-21.5 914,-0.5 816,-0.5"/>
<text text-anchor="middle" x="865" y="-8.5" font-family="Helvetica,sans-Serif" font-size="10.00">mozilla/Compiler.h</text>
</a>
</g>
<!-- Node10&#45;&gt;Node11 -->
<g id="edge22" class="edge"><title>Node10&#45;&gt;Node11</title>
<path fill="none" stroke="midnightblue" d="M865,-58.3619C865,-50.9219 865,-40.7427 865,-31.7276"/>
<polygon fill="midnightblue" stroke="midnightblue" points="868.5,-31.5706 865,-21.5707 861.5,-31.5707 868.5,-31.5706"/>
</g>
<!-- Node15&#45;&gt;Node11 -->
<g id="edge32" class="edge"><title>Node15&#45;&gt;Node11</title>
<path fill="none" stroke="midnightblue" d="M553.727,-61.713C617.538,-51.3169 734.814,-32.21 805.773,-20.6494"/>
<polygon fill="midnightblue" stroke="midnightblue" points="806.587,-24.0629 815.894,-19.0004 805.462,-17.154 806.587,-24.0629"/>
</g>
<!-- Node16&#45;&gt;Node14 -->
<g id="edge42" class="edge"><title>Node16&#45;&gt;Node14</title>
<path fill="none" stroke="midnightblue" d="M724.759,-174.362C710.448,-165.532 689.885,-152.844 673.643,-142.822"/>
<polygon fill="midnightblue" stroke="midnightblue" points="675.48,-139.843 665.132,-137.571 671.804,-145.8 675.48,-139.843"/>
</g>
<!-- Node17 -->
<g id="node35" class="node"><title>Node17</title>
<a xlink:href="../../d1/d8a/_likely_8h.html" target="_top" xlink:title="mozilla/Likely.h">
<polygon fill="white" stroke="black" points="938,-116.5 938,-137.5 1022,-137.5 1022,-116.5 938,-116.5"/>
<text text-anchor="middle" x="980" y="-124.5" font-family="Helvetica,sans-Serif" font-size="10.00">mozilla/Likely.h</text>
</a>
</g>
<!-- Node16&#45;&gt;Node17 -->
<g id="edge36" class="edge"><title>Node16&#45;&gt;Node17</title>
<path fill="none" stroke="midnightblue" d="M770.446,-177.464C774.976,-176.289 779.613,-175.1 784,-174 832.708,-161.783 888.399,-148.494 927.938,-139.173"/>
<polygon fill="midnightblue" stroke="midnightblue" points="928.949,-142.531 937.881,-136.833 927.345,-135.717 928.949,-142.531"/>
</g>
<!-- Node18 -->
<g id="node37" class="node"><title>Node18</title>
<a xlink:href="../../d3/dff/_typed_enum_8h.html" target="_top" xlink:title="mozilla/TypedEnum.h">
<polygon fill="white" stroke="black" points="809.5,-116.5 809.5,-137.5 920.5,-137.5 920.5,-116.5 809.5,-116.5"/>
<text text-anchor="middle" x="865" y="-124.5" font-family="Helvetica,sans-Serif" font-size="10.00">mozilla/TypedEnum.h</text>
</a>
</g>
<!-- Node16&#45;&gt;Node18 -->
<g id="edge38" class="edge"><title>Node16&#45;&gt;Node18</title>
<path fill="none" stroke="midnightblue" d="M764.274,-174.497C783.572,-165.397 811.713,-152.127 833.348,-141.925"/>
<polygon fill="midnightblue" stroke="midnightblue" points="834.924,-145.052 842.476,-137.621 831.938,-138.721 834.924,-145.052"/>
</g>
<!-- Node19 -->
<g id="node41" class="node"><title>Node19</title>
<a xlink:href="../../d7/dda/_error_list_c_defines_8h.html" target="_top" xlink:title="ErrorListCDefines.h">
<polygon fill="white" stroke="black" points="689.5,-116.5 689.5,-137.5 792.5,-137.5 792.5,-116.5 689.5,-116.5"/>
<text text-anchor="middle" x="741" y="-124.5" font-family="Helvetica,sans-Serif" font-size="10.00">ErrorListCDefines.h</text>
</a>
</g>
<!-- Node16&#45;&gt;Node19 -->
<g id="edge44" class="edge"><title>Node16&#45;&gt;Node19</title>
<path fill="none" stroke="midnightblue" d="M741.817,-174.362C741.688,-166.922 741.513,-156.743 741.357,-147.728"/>
<polygon fill="midnightblue" stroke="midnightblue" points="744.854,-147.509 741.182,-137.571 737.855,-147.63 744.854,-147.509"/>
</g>
<!-- Node18&#45;&gt;Node10 -->
<g id="edge40" class="edge"><title>Node18&#45;&gt;Node10</title>
<path fill="none" stroke="midnightblue" d="M865,-116.362C865,-108.922 865,-98.7427 865,-89.7276"/>
<polygon fill="midnightblue" stroke="midnightblue" points="868.5,-89.5706 865,-79.5707 861.5,-89.5707 868.5,-89.5706"/>
</g>
<!-- Node20&#45;&gt;Node5 -->
<g id="edge48" class="edge"><title>Node20&#45;&gt;Node5</title>
<path fill="none" stroke="midnightblue" d="M462.198,-348.295C475.374,-328.7 503.535,-286.82 520.096,-262.191"/>
<polygon fill="midnightblue" stroke="midnightblue" points="523.144,-263.931 525.819,-253.679 517.335,-260.025 523.144,-263.931"/>
</g>
<!-- Node21 -->
<g id="node46" class="node"><title>Node21</title>
<a xlink:href="../../d9/d0a/ns_i_d_8h.html" target="_top" xlink:title="nsID.h">
<polygon fill="white" stroke="black" points="303,-290.5 303,-311.5 349,-311.5 349,-290.5 303,-290.5"/>
<text text-anchor="middle" x="326" y="-298.5" font-family="Helvetica,sans-Serif" font-size="10.00">nsID.h</text>
</a>
</g>
<!-- Node20&#45;&gt;Node21 -->
<g id="edge50" class="edge"><title>Node20&#45;&gt;Node21</title>
<path fill="none" stroke="midnightblue" d="M431.639,-348.497C411.182,-339.299 381.25,-325.841 358.466,-315.597"/>
<polygon fill="midnightblue" stroke="midnightblue" points="359.743,-312.334 349.187,-311.425 356.872,-318.718 359.743,-312.334"/>
</g>
<!-- Node21&#45;&gt;Node5 -->
<g id="edge54" class="edge"><title>Node21&#45;&gt;Node5</title>
<path fill="none" stroke="midnightblue" d="M349.073,-294.066C353.681,-292.702 358.491,-291.293 363,-290 408.614,-276.916 461.299,-262.449 495.779,-253.069"/>
<polygon fill="midnightblue" stroke="midnightblue" points="497.135,-256.328 505.867,-250.329 495.3,-249.573 497.135,-256.328"/>
</g>
<!-- Node21&#45;&gt;Node9 -->
<g id="edge52" class="edge"><title>Node21&#45;&gt;Node9</title>
<path fill="none" stroke="midnightblue" d="M324.234,-290.308C321.204,-271.369 315.137,-230.65 313,-196 312.398,-186.241 312.688,-183.773 313,-174 313.272,-165.46 313.822,-156.061 314.378,-147.926"/>
<polygon fill="midnightblue" stroke="midnightblue" points="317.878,-148.046 315.113,-137.818 310.897,-147.538 317.878,-148.046"/>
</g>
<!-- Node22&#45;&gt;Node5 -->
<g id="edge58" class="edge"><title>Node22&#45;&gt;Node5</title>
<path fill="none" stroke="midnightblue" d="M641.805,-464.429C624.112,-428.422 566.01,-310.179 542.752,-262.847"/>
<polygon fill="midnightblue" stroke="midnightblue" points="545.777,-261.065 538.225,-253.634 539.494,-264.152 545.777,-261.065"/>
</g>
<!-- Node22&#45;&gt;Node16 -->
<g id="edge62" class="edge"><title>Node22&#45;&gt;Node16</title>
<path fill="none" stroke="midnightblue" d="M647,-464.444C647,-444.062 647,-397.868 647,-359 647,-359 647,-359 647,-301 647,-257.546 687.395,-221.439 715.504,-201.574"/>
<polygon fill="midnightblue" stroke="midnightblue" points="717.831,-204.224 724.131,-195.706 713.894,-198.436 717.831,-204.224"/>
</g>
<!-- Node22&#45;&gt;Node20 -->
<g id="edge60" class="edge"><title>Node22&#45;&gt;Node20</title>
<path fill="none" stroke="midnightblue" d="M603.116,-464.446C577.223,-456.91 544.616,-445.056 519,-428 498.65,-414.45 480.224,-393.167 468.426,-377.819"/>
<polygon fill="midnightblue" stroke="midnightblue" points="471.062,-375.5 462.28,-369.573 465.449,-379.682 471.062,-375.5"/>
</g>
<!-- Node23 -->
<g id="node55" class="node"><title>Node23</title>
<a xlink:href="../../dc/d6d/ns_debug_8h.html" target="_top" xlink:title="nsDebug.h">
<polygon fill="white" stroke="black" points="675,-348.5 675,-369.5 739,-369.5 739,-348.5 675,-348.5"/>
<text text-anchor="middle" x="707" y="-356.5" font-family="Helvetica,sans-Serif" font-size="10.00">nsDebug.h</text>
</a>
</g>
<!-- Node22&#45;&gt;Node23 -->
<g id="edge64" class="edge"><title>Node22&#45;&gt;Node23</title>
<path fill="none" stroke="midnightblue" d="M652.537,-464.295C662.583,-444.872 683.954,-403.556 696.735,-378.846"/>
<polygon fill="midnightblue" stroke="midnightblue" points="699.991,-380.169 701.476,-369.679 693.773,-376.953 699.991,-380.169"/>
</g>
<!-- Node29 -->
<g id="node76" class="node"><title>Node29</title>
<a xlink:href="../../d0/d5a/ns_i_supports_impl_8h.html" target="_top" xlink:title="nsISupportsImpl.h">
<polygon fill="white" stroke="black" points="753,-406.5 753,-427.5 849,-427.5 849,-406.5 753,-406.5"/>
<text text-anchor="middle" x="801" y="-414.5" font-family="Helvetica,sans-Serif" font-size="10.00">nsISupportsImpl.h</text>
</a>
</g>
<!-- Node22&#45;&gt;Node29 -->
<g id="edge94" class="edge"><title>Node22&#45;&gt;Node29</title>
<path fill="none" stroke="midnightblue" d="M669.548,-464.497C692.756,-455.123 729.216,-441.324 757.921,-431.012"/>
<polygon fill="midnightblue" stroke="midnightblue" points="759.47,-434.176 767.716,-427.523 757.121,-427.582 759.47,-434.176"/>
</g>
<!-- Node23&#45;&gt;Node5 -->
<g id="edge66" class="edge"><title>Node23&#45;&gt;Node5</title>
<path fill="none" stroke="midnightblue" d="M690.942,-348.295C660.307,-327.871 593.357,-283.238 557.244,-259.162"/>
<polygon fill="midnightblue" stroke="midnightblue" points="559.029,-256.147 548.767,-253.512 555.147,-261.971 559.029,-256.147"/>
</g>
<!-- Node23&#45;&gt;Node16 -->
<g id="edge68" class="edge"><title>Node23&#45;&gt;Node16</title>
<path fill="none" stroke="midnightblue" d="M704.287,-348.399C699.099,-326.087 689.513,-272.961 704,-232 707.831,-221.168 715.337,-211.003 722.674,-202.917"/>
<polygon fill="midnightblue" stroke="midnightblue" points="725.35,-205.185 729.811,-195.576 720.331,-200.306 725.35,-205.185"/>
</g>
<!-- Node23&#45;&gt;Node17 -->
<g id="edge92" class="edge"><title>Node23&#45;&gt;Node17</title>
<path fill="none" stroke="midnightblue" d="M739.396,-348.71C758.783,-341.162 782.735,-329.204 799,-312 845.069,-263.272 811.577,-220.389 860,-174 871.25,-163.223 905.769,-150.263 934.914,-140.684"/>
<polygon fill="midnightblue" stroke="midnightblue" points="936.109,-143.976 944.55,-137.573 933.958,-137.315 936.109,-143.976"/>
</g>
<!-- Node24 -->
<g id="node59" class="node"><title>Node24</title>
<a xlink:href="../../dd/d3a/ns_x_p_c_o_m_8h.html" target="_top" xlink:title="nsXPCOM.h">
<polygon fill="white" stroke="black" points="718,-290.5 718,-311.5 790,-311.5 790,-290.5 718,-290.5"/>
<text text-anchor="middle" x="754" y="-298.5" font-family="Helvetica,sans-Serif" font-size="10.00">nsXPCOM.h</text>
</a>
</g>
<!-- Node23&#45;&gt;Node24 -->
<g id="edge70" class="edge"><title>Node23&#45;&gt;Node24</title>
<path fill="none" stroke="midnightblue" d="M715.621,-348.362C722.18,-340.268 731.366,-328.932 739.106,-319.38"/>
<polygon fill="midnightblue" stroke="midnightblue" points="741.858,-321.544 745.434,-311.571 736.419,-317.136 741.858,-321.544"/>
</g>
<!-- Node26 -->
<g id="node64" class="node"><title>Node26</title>
<a xlink:href="../../d9/de9/_assertions_8h.html" target="_top" xlink:title="mozilla/Assertions.h">
<polygon fill="white" stroke="black" points="975.5,-232.5 975.5,-253.5 1080.5,-253.5 1080.5,-232.5 975.5,-232.5"/>
<text text-anchor="middle" x="1028" y="-240.5" font-family="Helvetica,sans-Serif" font-size="10.00">mozilla/Assertions.h</text>
</a>
</g>
<!-- Node23&#45;&gt;Node26 -->
<g id="edge76" class="edge"><title>Node23&#45;&gt;Node26</title>
<path fill="none" stroke="midnightblue" d="M738.892,-348.463C766.928,-339.123 808.788,-324.989 845,-312 896.049,-293.688 954.636,-271.366 991.482,-257.166"/>
<polygon fill="midnightblue" stroke="midnightblue" points="992.749,-260.429 1000.82,-253.563 990.228,-253.899 992.749,-260.429"/>
</g>
<!-- Node24&#45;&gt;Node5 -->
<g id="edge72" class="edge"><title>Node24&#45;&gt;Node5</title>
<path fill="none" stroke="midnightblue" d="M717.506,-291.422C676.706,-280.715 610.993,-263.469 569.992,-252.708"/>
<polygon fill="midnightblue" stroke="midnightblue" points="570.691,-249.273 560.13,-250.12 568.914,-256.044 570.691,-249.273"/>
</g>
<!-- Node25 -->
<g id="node62" class="node"><title>Node25</title>
<a xlink:href="../../d1/d66/ns_x_p_c_o_m_c_i_d_8h.html" target="_top" xlink:title="nsXPCOMCID.h">
<polygon fill="white" stroke="black" points="713,-232.5 713,-253.5 803,-253.5 803,-232.5 713,-232.5"/>
<text text-anchor="middle" x="758" y="-240.5" font-family="Helvetica,sans-Serif" font-size="10.00">nsXPCOMCID.h</text>
</a>
</g>
<!-- Node24&#45;&gt;Node25 -->
<g id="edge74" class="edge"><title>Node24&#45;&gt;Node25</title>
<path fill="none" stroke="midnightblue" d="M754.734,-290.362C755.247,-282.922 755.949,-272.743 756.571,-263.728"/>
<polygon fill="midnightblue" stroke="midnightblue" points="760.075,-263.788 757.271,-253.571 753.091,-263.306 760.075,-263.788"/>
</g>
<!-- Node26&#45;&gt;Node8 -->
<g id="edge88" class="edge"><title>Node26&#45;&gt;Node8</title>
<path fill="none" stroke="midnightblue" d="M975.398,-240.492C910.513,-236.237 797.455,-225.013 705,-196 663.62,-183.015 619.381,-158.854 592.453,-142.849"/>
<polygon fill="midnightblue" stroke="midnightblue" points="594.053,-139.727 583.682,-137.559 590.438,-145.721 594.053,-139.727"/>
</g>
<!-- Node26&#45;&gt;Node10 -->
<g id="edge78" class="edge"><title>Node26&#45;&gt;Node10</title>
<path fill="none" stroke="midnightblue" d="M1059.35,-232.48C1087.83,-220.998 1123.49,-200.641 1110,-174 1090.32,-135.141 1070.13,-135.127 1031,-116 997.711,-99.7302 957.833,-88.2097 925.507,-80.6476"/>
<polygon fill="midnightblue" stroke="midnightblue" points="926.26,-77.2294 915.733,-78.4269 924.709,-84.0555 926.26,-77.2294"/>
</g>
<!-- Node26&#45;&gt;Node11 -->
<g id="edge80" class="edge"><title>Node26&#45;&gt;Node11</title>
<path fill="none" stroke="midnightblue" d="M1073.72,-232.437C1093.02,-225.473 1113.62,-214.156 1125,-196 1130.19,-187.715 1128.7,-183.05 1125,-174 1090.12,-88.7572 983.786,-44.3107 918.405,-24.4341"/>
<polygon fill="midnightblue" stroke="midnightblue" points="919.257,-21.0363 908.675,-21.5651 917.277,-27.7505 919.257,-21.0363"/>
</g>
<!-- Node26&#45;&gt;Node13 -->
<g id="edge84" class="edge"><title>Node26&#45;&gt;Node13</title>
<path fill="none" stroke="midnightblue" d="M1009.66,-232.362C994.434,-223.532 972.559,-210.844 955.28,-200.822"/>
<polygon fill="midnightblue" stroke="midnightblue" points="956.632,-197.56 946.225,-195.571 953.12,-203.615 956.632,-197.56"/>
</g>
<!-- Node26&#45;&gt;Node17 -->
<g id="edge82" class="edge"><title>Node26&#45;&gt;Node17</title>
<path fill="none" stroke="midnightblue" d="M1051.85,-232.401C1076.9,-219.726 1110.64,-197.287 1095,-174 1080.85,-152.928 1055.4,-141.297 1032.04,-134.881"/>
<polygon fill="midnightblue" stroke="midnightblue" points="1032.74,-131.449 1022.19,-132.438 1031.06,-138.243 1032.74,-131.449"/>
</g>
<!-- Node27 -->
<g id="node70" class="node"><title>Node27</title>
<polygon fill="white" stroke="#bfbfbf" points="972,-174.5 972,-195.5 1018,-195.5 1018,-174.5 972,-174.5"/>
<text text-anchor="middle" x="995" y="-182.5" font-family="Helvetica,sans-Serif" font-size="10.00">stdio.h</text>
</g>
<!-- Node26&#45;&gt;Node27 -->
<g id="edge86" class="edge"><title>Node26&#45;&gt;Node27</title>
<path fill="none" stroke="midnightblue" d="M1021.95,-232.362C1017.53,-224.595 1011.41,-213.843 1006.12,-204.546"/>
<polygon fill="midnightblue" stroke="midnightblue" points="1009,-202.531 1001.01,-195.571 1002.92,-205.993 1009,-202.531"/>
</g>
<!-- Node28 -->
<g id="node73" class="node"><title>Node28</title>
<polygon fill="white" stroke="#bfbfbf" points="1036,-174.5 1036,-195.5 1086,-195.5 1086,-174.5 1036,-174.5"/>
<text text-anchor="middle" x="1061" y="-182.5" font-family="Helvetica,sans-Serif" font-size="10.00">signal.h</text>
</g>
<!-- Node26&#45;&gt;Node28 -->
<g id="edge90" class="edge"><title>Node26&#45;&gt;Node28</title>
<path fill="none" stroke="midnightblue" d="M1034.05,-232.362C1038.47,-224.595 1044.59,-213.843 1049.88,-204.546"/>
<polygon fill="midnightblue" stroke="midnightblue" points="1053.08,-205.993 1054.99,-195.571 1047,-202.531 1053.08,-205.993"/>
</g>
<!-- Node29&#45;&gt;Node5 -->
<g id="edge96" class="edge"><title>Node29&#45;&gt;Node5</title>
<path fill="none" stroke="midnightblue" d="M757.155,-406.467C729.776,-398.769 694.449,-386.737 666,-370 616.091,-340.638 570.143,-289.134 547.594,-261.6"/>
<polygon fill="midnightblue" stroke="midnightblue" points="550.118,-259.154 541.12,-253.561 544.667,-263.545 550.118,-259.154"/>
</g>
<!-- Node29&#45;&gt;Node10 -->
<g id="edge134" class="edge"><title>Node29&#45;&gt;Node10</title>
<path fill="none" stroke="midnightblue" d="M849.364,-415.888C973.919,-411.721 1296,-392.134 1296,-301 1296,-301 1296,-301 1296,-243 1296,-211.192 1299.47,-196.514 1277,-174 1227.91,-124.814 1028.17,-91.1808 925.927,-76.8291"/>
<polygon fill="midnightblue" stroke="midnightblue" points="926.135,-73.3245 915.749,-75.4188 925.174,-80.2582 926.135,-73.3245"/>
</g>
<!-- Node29&#45;&gt;Node17 -->
<g id="edge138" class="edge"><title>Node29&#45;&gt;Node17</title>
<path fill="none" stroke="midnightblue" d="M818,-406.352C829.953,-397.952 845.31,-385.148 854,-370 898.199,-292.96 840.247,-245.455 893,-174 903.74,-159.453 920.369,-148.92 936.224,-141.561"/>
<polygon fill="midnightblue" stroke="midnightblue" points="937.628,-144.767 945.42,-137.588 934.852,-138.341 937.628,-144.767"/>
</g>
<!-- Node29&#45;&gt;Node20 -->
<g id="edge98" class="edge"><title>Node29&#45;&gt;Node20</title>
<path fill="none" stroke="midnightblue" d="M752.89,-408.935C690.808,-398.529 582.782,-380.42 515.287,-369.106"/>
<polygon fill="midnightblue" stroke="midnightblue" points="515.666,-365.621 505.225,-367.419 514.508,-372.524 515.666,-365.621"/>
</g>
<!-- Node29&#45;&gt;Node22 -->
<g id="edge100" class="edge"><title>Node29&#45;&gt;Node22</title>
<path fill="none" stroke="midnightblue" d="M778.16,-427.621C754.914,-437.002 718.586,-450.748 689.987,-461.021"/>
<polygon fill="midnightblue" stroke="midnightblue" points="688.474,-457.844 680.228,-464.497 690.823,-464.439 688.474,-457.844"/>
</g>
<!-- Node29&#45;&gt;Node23 -->
<g id="edge118" class="edge"><title>Node29&#45;&gt;Node23</title>
<path fill="none" stroke="midnightblue" d="M783.759,-406.362C769.448,-397.532 748.885,-384.844 732.643,-374.822"/>
<polygon fill="midnightblue" stroke="midnightblue" points="734.48,-371.843 724.132,-369.571 730.804,-377.8 734.48,-371.843"/>
</g>
<!-- Node29&#45;&gt;Node26 -->
<g id="edge136" class="edge"><title>Node29&#45;&gt;Node26</title>
<path fill="none" stroke="midnightblue" d="M849.174,-411.716C906.583,-402.532 1000.01,-377.781 1042,-312 1051.41,-297.267 1045.93,-277.464 1039.27,-262.852"/>
<polygon fill="midnightblue" stroke="midnightblue" points="1042.28,-261.034 1034.64,-253.691 1036.03,-264.194 1042.28,-261.034"/>
</g>
<!-- Node30 -->
<g id="node81" class="node"><title>Node30</title>
<a xlink:href="../../d2/df8/prthread_8h.html" target="_top" xlink:title="prthread.h">
<polygon fill="white" stroke="black" points="1324,-348.5 1324,-369.5 1384,-369.5 1384,-348.5 1324,-348.5"/>
<text text-anchor="middle" x="1354" y="-356.5" font-family="Helvetica,sans-Serif" font-size="10.00">prthread.h</text>
</a>
</g>
<!-- Node29&#45;&gt;Node30 -->
<g id="edge102" class="edge"><title>Node29&#45;&gt;Node30</title>
<path fill="none" stroke="midnightblue" d="M849.036,-415.015C939.7,-410.727 1142.03,-398.579 1310,-370 1311.27,-369.785 1312.55,-369.552 1313.84,-369.305"/>
<polygon fill="midnightblue" stroke="midnightblue" points="1314.78,-372.685 1323.83,-367.187 1313.32,-365.838 1314.78,-372.685"/>
</g>
<!-- Node36 -->
<g id="node96" class="node"><title>Node36</title>
<a xlink:href="../../dc/d1c/ns_trace_refcnt_8h.html" target="_top" xlink:title="nsTraceRefcnt.h">
<polygon fill="white" stroke="black" points="756.5,-348.5 756.5,-369.5 845.5,-369.5 845.5,-348.5 756.5,-348.5"/>
<text text-anchor="middle" x="801" y="-356.5" font-family="Helvetica,sans-Serif" font-size="10.00">nsTraceRefcnt.h</text>
</a>
</g>
<!-- Node29&#45;&gt;Node36 -->
<g id="edge120" class="edge"><title>Node29&#45;&gt;Node36</title>
<path fill="none" stroke="midnightblue" d="M801,-406.362C801,-398.922 801,-388.743 801,-379.728"/>
<polygon fill="midnightblue" stroke="midnightblue" points="804.5,-379.571 801,-369.571 797.5,-379.571 804.5,-379.571"/>
</g>
<!-- Node37 -->
<g id="node99" class="node"><title>Node37</title>
<a xlink:href="../../db/d18/_atomics_8h.html" target="_top" xlink:title="mozilla/Atomics.h">
<polygon fill="white" stroke="black" points="938.5,-290.5 938.5,-311.5 1033.5,-311.5 1033.5,-290.5 938.5,-290.5"/>
<text text-anchor="middle" x="986" y="-298.5" font-family="Helvetica,sans-Serif" font-size="10.00">mozilla/Atomics.h</text>
</a>
</g>
<!-- Node29&#45;&gt;Node37 -->
<g id="edge124" class="edge"><title>Node29&#45;&gt;Node37</title>
<path fill="none" stroke="midnightblue" d="M821.862,-406.41C839.505,-397.263 865.301,-383.436 887,-370 914.153,-353.187 944.072,-331.931 963.836,-317.484"/>
<polygon fill="midnightblue" stroke="midnightblue" points="965.917,-320.299 971.9,-311.555 961.77,-314.659 965.917,-320.299"/>
</g>
<!-- Node31 -->
<g id="node83" class="node"><title>Node31</title>
<a xlink:href="../../dc/d23/prtypes_8h.html" target="_top" xlink:title="prtypes.h">
<polygon fill="white" stroke="black" points="1346.5,-232.5 1346.5,-253.5 1403.5,-253.5 1403.5,-232.5 1346.5,-232.5"/>
<text text-anchor="middle" x="1375" y="-240.5" font-family="Helvetica,sans-Serif" font-size="10.00">prtypes.h</text>
</a>
</g>
<!-- Node30&#45;&gt;Node31 -->
<g id="edge104" class="edge"><title>Node30&#45;&gt;Node31</title>
<path fill="none" stroke="midnightblue" d="M1365.56,-348.296C1374.15,-339.501 1385.18,-326.212 1390,-312 1395.45,-295.931 1390.62,-277.069 1385.04,-263.13"/>
<polygon fill="midnightblue" stroke="midnightblue" points="1388.22,-261.686 1380.97,-253.962 1381.82,-264.522 1388.22,-261.686"/>
</g>
<!-- Node35 -->
<g id="node92" class="node"><title>Node35</title>
<a xlink:href="../../d7/dc8/prinrval_8h.html" target="_top" xlink:title="prinrval.h">
<polygon fill="white" stroke="black" points="1325,-290.5 1325,-311.5 1381,-311.5 1381,-290.5 1325,-290.5"/>
<text text-anchor="middle" x="1353" y="-298.5" font-family="Helvetica,sans-Serif" font-size="10.00">prinrval.h</text>
</a>
</g>
<!-- Node30&#45;&gt;Node35 -->
<g id="edge114" class="edge"><title>Node30&#45;&gt;Node35</title>
<path fill="none" stroke="midnightblue" d="M1353.82,-348.362C1353.69,-340.922 1353.51,-330.743 1353.36,-321.728"/>
<polygon fill="midnightblue" stroke="midnightblue" points="1356.85,-321.509 1353.18,-311.571 1349.86,-321.63 1356.85,-321.509"/>
</g>
<!-- Node31&#45;&gt;Node13 -->
<g id="edge108" class="edge"><title>Node31&#45;&gt;Node13</title>
<path fill="none" stroke="midnightblue" d="M1346.46,-240.46C1268.8,-233.44 1053.99,-213.268 964.282,-195.885"/>
<polygon fill="midnightblue" stroke="midnightblue" points="964.728,-192.404 954.23,-193.835 963.328,-199.263 964.728,-192.404"/>
</g>
<!-- Node32 -->
<g id="node85" class="node"><title>Node32</title>
<a xlink:href="../../d7/d7e/prcpucfg_8h.html" target="_top" xlink:title="prcpucfg.h">
<polygon fill="white" stroke="black" points="1444,-174.5 1444,-195.5 1506,-195.5 1506,-174.5 1444,-174.5"/>
<text text-anchor="middle" x="1475" y="-182.5" font-family="Helvetica,sans-Serif" font-size="10.00">prcpucfg.h</text>
</a>
</g>
<!-- Node31&#45;&gt;Node32 -->
<g id="edge106" class="edge"><title>Node31&#45;&gt;Node32</title>
<path fill="none" stroke="midnightblue" d="M1393.34,-232.362C1408.57,-223.532 1430.44,-210.844 1447.72,-200.822"/>
<polygon fill="midnightblue" stroke="midnightblue" points="1449.88,-203.615 1456.77,-195.571 1446.37,-197.56 1449.88,-203.615"/>
</g>
<!-- Node33 -->
<g id="node88" class="node"><title>Node33</title>
<a xlink:href="../../d2/de8/protypes_8h.html" target="_top" xlink:title="obsolete/protypes.h">
<polygon fill="white" stroke="black" points="1324,-174.5 1324,-195.5 1426,-195.5 1426,-174.5 1324,-174.5"/>
<text text-anchor="middle" x="1375" y="-182.5" font-family="Helvetica,sans-Serif" font-size="10.00">obsolete/protypes.h</text>
</a>
</g>
<!-- Node31&#45;&gt;Node33 -->
<g id="edge110" class="edge"><title>Node31&#45;&gt;Node33</title>
<path fill="none" stroke="midnightblue" d="M1375,-232.362C1375,-224.922 1375,-214.743 1375,-205.728"/>
<polygon fill="midnightblue" stroke="midnightblue" points="1378.5,-205.571 1375,-195.571 1371.5,-205.571 1378.5,-205.571"/>
</g>
<!-- Node34 -->
<g id="node90" class="node"><title>Node34</title>
<polygon fill="white" stroke="#bfbfbf" points="1341,-116.5 1341,-137.5 1409,-137.5 1409,-116.5 1341,-116.5"/>
<text text-anchor="middle" x="1375" y="-124.5" font-family="Helvetica,sans-Serif" font-size="10.00">sys/types.h</text>
</g>
<!-- Node33&#45;&gt;Node34 -->
<g id="edge112" class="edge"><title>Node33&#45;&gt;Node34</title>
<path fill="none" stroke="midnightblue" d="M1375,-174.362C1375,-166.922 1375,-156.743 1375,-147.728"/>
<polygon fill="midnightblue" stroke="midnightblue" points="1378.5,-147.571 1375,-137.571 1371.5,-147.571 1378.5,-147.571"/>
</g>
<!-- Node35&#45;&gt;Node31 -->
<g id="edge116" class="edge"><title>Node35&#45;&gt;Node31</title>
<path fill="none" stroke="midnightblue" d="M1357.04,-290.362C1359.92,-282.758 1363.89,-272.294 1367.36,-263.135"/>
<polygon fill="midnightblue" stroke="midnightblue" points="1370.72,-264.162 1370.99,-253.571 1364.17,-261.679 1370.72,-264.162"/>
</g>
<!-- Node36&#45;&gt;Node24 -->
<g id="edge122" class="edge"><title>Node36&#45;&gt;Node24</title>
<path fill="none" stroke="midnightblue" d="M792.379,-348.362C785.82,-340.268 776.634,-328.932 768.894,-319.38"/>
<polygon fill="midnightblue" stroke="midnightblue" points="771.581,-317.136 762.566,-311.571 766.142,-321.544 771.581,-317.136"/>
</g>
<!-- Node37&#45;&gt;Node14 -->
<g id="edge132" class="edge"><title>Node37&#45;&gt;Node14</title>
<path fill="none" stroke="midnightblue" d="M971.284,-290.49C938.186,-267.19 854.835,-210.389 779,-174 769.99,-169.676 717.911,-151.311 682.195,-138.859"/>
<polygon fill="midnightblue" stroke="midnightblue" points="683.2,-135.503 672.605,-135.52 680.898,-142.114 683.2,-135.503"/>
</g>
<!-- Node37&#45;&gt;Node26 -->
<g id="edge126" class="edge"><title>Node37&#45;&gt;Node26</title>
<path fill="none" stroke="midnightblue" d="M993.703,-290.362C999.446,-282.431 1007.44,-271.389 1014.27,-261.961"/>
<polygon fill="midnightblue" stroke="midnightblue" points="1017.32,-263.723 1020.35,-253.571 1011.65,-259.617 1017.32,-263.723"/>
</g>
<!-- Node38 -->
<g id="node102" class="node"><title>Node38</title>
<a xlink:href="../../d4/dd5/_type_traits_8h.html" target="_top" xlink:title="mozilla/TypeTraits.h">
<polygon fill="white" stroke="black" points="1113.5,-232.5 1113.5,-253.5 1218.5,-253.5 1218.5,-232.5 1113.5,-232.5"/>
<text text-anchor="middle" x="1166" y="-240.5" font-family="Helvetica,sans-Serif" font-size="10.00">mozilla/TypeTraits.h</text>
</a>
</g>
<!-- Node37&#45;&gt;Node38 -->
<g id="edge128" class="edge"><title>Node37&#45;&gt;Node38</title>
<path fill="none" stroke="midnightblue" d="M1018.6,-290.497C1048.07,-281 1091.64,-266.962 1123.77,-256.609"/>
<polygon fill="midnightblue" stroke="midnightblue" points="1124.9,-259.921 1133.34,-253.523 1122.75,-253.259 1124.9,-259.921"/>
</g>
<!-- Node39 -->
<g id="node104" class="node"><title>Node39</title>
<polygon fill="white" stroke="#bfbfbf" points="1217.5,-174.5 1217.5,-195.5 1268.5,-195.5 1268.5,-174.5 1217.5,-174.5"/>
<text text-anchor="middle" x="1243" y="-182.5" font-family="Helvetica,sans-Serif" font-size="10.00">wchar.h</text>
</g>
<!-- Node38&#45;&gt;Node39 -->
<g id="edge130" class="edge"><title>Node38&#45;&gt;Node39</title>
<path fill="none" stroke="midnightblue" d="M1180.12,-232.362C1191.52,-223.777 1207.76,-211.546 1220.88,-201.664"/>
<polygon fill="midnightblue" stroke="midnightblue" points="1223.08,-204.383 1228.97,-195.571 1218.87,-198.792 1223.08,-204.383"/>
</g>
</g>
</svg>
        <g id="navigator" transform="translate(0 0)" fill="#404254">
                <rect fill="#f2f5e9" fill-opacity="0.5" stroke="#606060" stroke-width=".5" x="0" y="0" width="60" height="60"/>
                <use id="zoomplus" xlink:href="#zoomPlus" x="17" y="9" onmousedown="handleZoom(evt,'in')"/>
                <use id="zoomminus" xlink:href="#zoomMin" x="42" y="9" onmousedown="handleZoom(evt,'out')"/>
                <use id="reset" xlink:href="#resetDef" x="30" y="36" onmousedown="handleReset()"/>
                <g id="arrowUp" xlink:href="#dirArrow" transform="translate(30 24)" onmousedown="handlePan(0,-1)">
                  <use xlink:href="#rim" fill="#404040">
                        <set attributeName="fill" to="#808080" begin="arrowUp.mouseover" end="arrowUp.mouseout"/>
                  </use>
                  <path fill="none" stroke="white" stroke-width="1.5" d="M0,-3.0v7 M-2.5,-0.5L0,-3.0L2.5,-0.5"/>
                </g>
                <g id="arrowRight" xlink:href="#dirArrow" transform="rotate(90) translate(36 -43)" onmousedown="handlePan(1,0)">
                  <use xlink:href="#rim" fill="#404040">
                        <set attributeName="fill" to="#808080" begin="arrowRight.mouseover" end="arrowRight.mouseout"/>
                  </use>
                  <path fill="none" stroke="white" stroke-width="1.5" d="M0,-3.0v7 M-2.5,-0.5L0,-3.0L2.5,-0.5"/>
                </g>
                <g id="arrowDown" xlink:href="#dirArrow" transform="rotate(180) translate(-30 -48)" onmousedown="handlePan(0,1)">
                  <use xlink:href="#rim" fill="#404040">
                        <set attributeName="fill" to="#808080" begin="arrowDown.mouseover" end="arrowDown.mouseout"/>
                  </use>
                  <path fill="none" stroke="white" stroke-width="1.5" d="M0,-3.0v7 M-2.5,-0.5L0,-3.0L2.5,-0.5"/>
                </g>
                <g id="arrowLeft" xlink:href="#dirArrow" transform="rotate(270) translate(-36 17)" onmousedown="handlePan(-1,0)">
                  <use xlink:href="#rim" fill="#404040">
                        <set attributeName="fill" to="#808080" begin="arrowLeft.mouseover" end="arrowLeft.mouseout"/>
                  </use>
                  <path fill="none" stroke="white" stroke-width="1.5" d="M0,-3.0v7 M-2.5,-0.5L0,-3.0L2.5,-0.5"/>
                </g>
        </g>
</svg>
