<?xml version="1.0" encoding="UTF-8" standalone="no"?>
<!DOCTYPE svg PUBLIC "-//W3C//DTD SVG 1.1//EN"
 "http://www.w3.org/Graphics/SVG/1.1/DTD/svg11.dtd">
<!-- Generated by graphviz version 2.26.3 (20100126.1600)
 -->
<!-- Title: G Pages: 1 -->
<!--zoomable 650 -->
<svg id="main" version="1.1" xmlns="http://www.w3.org/2000/svg" xmlns:xlink="http://www.w3.org/1999/xlink" xml:space="preserve" onload="init(evt)">
        <defs>
                <circle id="rim" cx="0" cy="0" r="7"/>
                <circle id="rim2" cx="0" cy="0" r="3.5"/>
                <g id="zoomPlus">
                        <use xlink:href="#rim" fill="#404040">
                                <set attributeName="fill" to="#808080" begin="zoomplus.mouseover" end="zoomplus.mouseout"/>
                        </use>
                        <path d="M-4,0h8M0,-4v8" fill="none" stroke="white" stroke-width="1.5" pointer-events="none"/>
                </g>
                <g id="zoomMin">
                        <use xlink:href="#rim" fill="#404040">
                                <set attributeName="fill" to="#808080" begin="zoomminus.mouseover" end="zoomminus.mouseout"/>
                        </use>
                        <path d="M-4,0h8" fill="none" stroke="white" stroke-width="1.5" pointer-events="none"/>
                </g>
                <g id="dirArrow">
                        <path fill="none" stroke="white" stroke-width="1.5" d="M0,-3.0v7 M-2.5,-0.5L0,-3.0L2.5,-0.5"/>
                </g>
               <g id="resetDef">
                       <use xlink:href="#rim2" fill="#404040">
                               <set attributeName="fill" to="#808080" begin="reset.mouseover" end="reset.mouseout"/>
                       </use>
               </g>
        </defs>

<script type="text/javascript">
var viewWidth = 1040;
var viewHeight = 650;
var sectionId = 'dynsection-0';
</script>
<script xlink:href="../../svgpan.js"/>
<svg id="graph" class="graph">
<g id="viewport">
<title>G</title>
<polygon fill="white" stroke="white" points="-4,5 -4,-646.46 1037,-646.46 1037,5 -4,5"/>
<!-- Node1 -->
<g id="node1" class="node"><title>Node1</title>
<polygon fill="#bfbfbf" stroke="black" points="886,-492.96 886,-513.96 1032,-513.96 1032,-492.96 886,-492.96"/>
<text text-anchor="middle" x="959" y="-500.96" font-family="Helvetica,sans-Serif" font-size="10.00">SEC_PKCS7RecipientInfoStr</text>
</g>
<!-- Node2 -->
<g id="node2" class="node"><title>Node2</title>
<polygon fill="white" stroke="#bfbfbf" points="6.5,-251.96 6.5,-272.96 47.5,-272.96 47.5,-251.96 6.5,-251.96"/>
<text text-anchor="middle" x="27" y="-259.96" font-family="Helvetica,sans-Serif" font-size="10.00">struct</text>
</g>
<!-- Node2&#45;&gt;Node1 -->
<g id="edge2" class="edge"><title>Node2&#45;&gt;Node1</title>
<path fill="none" stroke="#9a32cd" stroke-dasharray="5,2" d="M33.126,-283.034C51.8896,-341.337 114.371,-503.46 229,-503.46 229,-503.46 229,-503.46 779,-503.46 814.156,-503.46 853.175,-503.46 885.872,-503.46"/>
<polygon fill="#9a32cd" stroke="#9a32cd" points="36.3557,-281.633 30.0407,-273.126 29.6722,-283.714 36.3557,-281.633"/>
<text text-anchor="middle" x="510" y="-533.46" font-family="Helvetica,sans-Serif" font-size="10.00"> encKey</text>
<text text-anchor="middle" x="510" y="-520.46" font-family="Helvetica,sans-Serif" font-size="10.00">keyEncAlg</text>
<text text-anchor="middle" x="510" y="-507.46" font-family="Helvetica,sans-Serif" font-size="10.00">version</text>
</g>
<!-- Node3 -->
<g id="node4" class="node"><title>Node3</title>
<a xlink:href="../../d8/d93/struct_c_e_r_t_certificate_str.html" target="_top" xlink:title="CERTCertificateStr">
<polygon fill="white" stroke="black" points="728,-184.96 728,-205.96 830,-205.96 830,-184.96 728,-184.96"/>
<text text-anchor="middle" x="779" y="-192.96" font-family="Helvetica,sans-Serif" font-size="10.00">CERTCertificateStr</text>
</a>
</g>
<!-- Node2&#45;&gt;Node3 -->
<g id="edge24" class="edge"><title>Node2&#45;&gt;Node3</title>
<path fill="none" stroke="#9a32cd" stroke-dasharray="5,2" d="M41.515,-281.01C49.5188,-289.894 60.2142,-299.806 72,-305.46 158.713,-347.056 191.95,-323.34 288,-318.46 476.284,-308.892 542.805,-362.57 710,-275.46 740.58,-259.527 763.458,-223.851 773.454,-206.022"/>
<polygon fill="#9a32cd" stroke="#9a32cd" points="44.1056,-278.654 34.9671,-273.293 38.7679,-283.183 44.1056,-278.654"/>
<text text-anchor="middle" x="366" y="-455.46" font-family="Helvetica,sans-Serif" font-size="10.00"> derPublicKey</text>
<text text-anchor="middle" x="366" y="-442.46" font-family="Helvetica,sans-Serif" font-size="10.00">nssCertificate</text>
<text text-anchor="middle" x="366" y="-429.46" font-family="Helvetica,sans-Serif" font-size="10.00">validity</text>
<text text-anchor="middle" x="366" y="-416.46" font-family="Helvetica,sans-Serif" font-size="10.00">derSubject</text>
<text text-anchor="middle" x="366" y="-403.46" font-family="Helvetica,sans-Serif" font-size="10.00">signatureWrap</text>
<text text-anchor="middle" x="366" y="-390.46" font-family="Helvetica,sans-Serif" font-size="10.00">bits</text>
<text text-anchor="middle" x="366" y="-377.46" font-family="Helvetica,sans-Serif" font-size="10.00">subjectID</text>
<text text-anchor="middle" x="366" y="-364.46" font-family="Helvetica,sans-Serif" font-size="10.00">issuerID</text>
<text text-anchor="middle" x="366" y="-351.46" font-family="Helvetica,sans-Serif" font-size="10.00">subjectPublicKeyInfo</text>
<text text-anchor="middle" x="366" y="-338.46" font-family="Helvetica,sans-Serif" font-size="10.00">issuer</text>
<text text-anchor="middle" x="366" y="-325.46" font-family="Helvetica,sans-Serif" font-size="10.00">...</text>
</g>
<!-- Node4 -->
<g id="node6" class="node"><title>Node4</title>
<a xlink:href="../../d2/da9/struct_c_e_r_t_auth_key_i_d_str.html" target="_top" xlink:title="CERTAuthKeyIDStr">
<polygon fill="white" stroke="black" points="457.5,-253.96 457.5,-274.96 562.5,-274.96 562.5,-253.96 457.5,-253.96"/>
<text text-anchor="middle" x="510" y="-261.96" font-family="Helvetica,sans-Serif" font-size="10.00">CERTAuthKeyIDStr</text>
</a>
</g>
<!-- Node2&#45;&gt;Node4 -->
<g id="edge14" class="edge"><title>Node2&#45;&gt;Node4</title>
<path fill="none" stroke="#9a32cd" stroke-dasharray="5,2" d="M49.7951,-278.698C56.6168,-282.688 64.3308,-286.403 72,-288.46 106.343,-297.668 116.449,-289.043 152,-288.46 273.827,-286.459 304.825,-292.202 426,-279.46 436.313,-278.375 447.267,-276.762 457.739,-274.991"/>
<polygon fill="#9a32cd" stroke="#9a32cd" points="51.4553,-275.607 41.1336,-273.216 47.7117,-281.522 51.4553,-275.607"/>
<text text-anchor="middle" x="229" y="-305.46" font-family="Helvetica,sans-Serif" font-size="10.00"> keyID</text>
<text text-anchor="middle" x="229" y="-292.46" font-family="Helvetica,sans-Serif" font-size="10.00">authCertSerialNumber</text>
</g>
<!-- Node5 -->
<g id="node8" class="node"><title>Node5</title>
<a xlink:href="../../d7/db0/struct_c_e_r_t_general_name_str.html" target="_top" xlink:title="CERTGeneralNameStr">
<polygon fill="white" stroke="black" points="170.5,-204.96 170.5,-225.96 287.5,-225.96 287.5,-204.96 170.5,-204.96"/>
<text text-anchor="middle" x="229" y="-212.96" font-family="Helvetica,sans-Serif" font-size="10.00">CERTGeneralNameStr</text>
</a>
</g>
<!-- Node2&#45;&gt;Node5 -->
<g id="edge10" class="edge"><title>Node2&#45;&gt;Node5</title>
<path fill="none" stroke="#9a32cd" stroke-dasharray="5,2" d="M42.7751,-244.14C50.6804,-236.29 60.9222,-227.916 72,-223.46 102.89,-211.032 139.995,-208.632 170.375,-209.526"/>
<polygon fill="#9a32cd" stroke="#9a32cd" points="40.0112,-241.969 35.7043,-251.649 45.1076,-246.768 40.0112,-241.969"/>
<text text-anchor="middle" x="112" y="-279.46" font-family="Helvetica,sans-Serif" font-size="10.00"> directoryName</text>
<text text-anchor="middle" x="112" y="-266.46" font-family="Helvetica,sans-Serif" font-size="10.00">l</text>
<text text-anchor="middle" x="112" y="-253.46" font-family="Helvetica,sans-Serif" font-size="10.00">other</text>
<text text-anchor="middle" x="112" y="-240.46" font-family="Helvetica,sans-Serif" font-size="10.00">OthName</text>
<text text-anchor="middle" x="112" y="-227.46" font-family="Helvetica,sans-Serif" font-size="10.00">derDirectoryName</text>
</g>
<!-- Node7 -->
<g id="node14" class="node"><title>Node7</title>
<a xlink:href="../../df/db7/struct_p_l_arena_pool.html" target="_top" xlink:title="PLArenaPool">
<polygon fill="white" stroke="black" points="192,-94.9596 192,-115.96 266,-115.96 266,-94.9596 192,-94.9596"/>
<text text-anchor="middle" x="229" y="-102.96" font-family="Helvetica,sans-Serif" font-size="10.00">PLArenaPool</text>
</a>
</g>
<!-- Node2&#45;&gt;Node7 -->
<g id="edge22" class="edge"><title>Node2&#45;&gt;Node7</title>
<path fill="none" stroke="#9a32cd" stroke-dasharray="5,2" d="M31.0323,-241.595C38.1422,-207.081 53.8816,-140.415 72,-125.46 89.6941,-110.854 151.115,-106.793 191.683,-105.735"/>
<polygon fill="#9a32cd" stroke="#9a32cd" points="27.5676,-241.072 29.0351,-251.565 34.4313,-242.447 27.5676,-241.072"/>
<text text-anchor="middle" x="112" y="-129.46" font-family="Helvetica,sans-Serif" font-size="10.00"> first</text>
</g>
<!-- Node9 -->
<g id="node21" class="node"><title>Node9</title>
<a xlink:href="../../dd/d02/struct_c_e_r_t_cert_extension_str.html" target="_top" xlink:title="CERTCertExtensionStr">
<polygon fill="white" stroke="black" points="306.5,-184.96 306.5,-205.96 425.5,-205.96 425.5,-184.96 306.5,-184.96"/>
<text text-anchor="middle" x="366" y="-192.96" font-family="Helvetica,sans-Serif" font-size="10.00">CERTCertExtensionStr</text>
</a>
</g>
<!-- Node2&#45;&gt;Node9 -->
<g id="edge28" class="edge"><title>Node2&#45;&gt;Node9</title>
<path fill="none" stroke="#9a32cd" stroke-dasharray="5,2" d="M30.1523,-241.582C34.8503,-218.658 46.1017,-182.922 72,-166.46 112.688,-140.596 252.171,-168.359 323.401,-184.934"/>
<polygon fill="#9a32cd" stroke="#9a32cd" points="26.6642,-241.203 28.337,-251.665 33.5535,-242.444 26.6642,-241.203"/>
<text text-anchor="middle" x="112" y="-196.46" font-family="Helvetica,sans-Serif" font-size="10.00"> critical</text>
<text text-anchor="middle" x="112" y="-183.46" font-family="Helvetica,sans-Serif" font-size="10.00">value</text>
<text text-anchor="middle" x="112" y="-170.46" font-family="Helvetica,sans-Serif" font-size="10.00">id</text>
</g>
<!-- Node11 -->
<g id="node27" class="node"><title>Node11</title>
<a xlink:href="../../dc/de8/struct_c_e_r_t_subject_node_str.html" target="_top" xlink:title="CERTSubjectNodeStr">
<polygon fill="white" stroke="black" points="172.5,-29.9596 172.5,-50.9596 285.5,-50.9596 285.5,-29.9596 172.5,-29.9596"/>
<text text-anchor="middle" x="229" y="-37.9596" font-family="Helvetica,sans-Serif" font-size="10.00">CERTSubjectNodeStr</text>
</a>
</g>
<!-- Node2&#45;&gt;Node11 -->
<g id="edge36" class="edge"><title>Node2&#45;&gt;Node11</title>
<path fill="none" stroke="#9a32cd" stroke-dasharray="5,2" d="M28.386,-241.549C32.0376,-193.455 43.6633,-77.2124 72,-52.4596 100.411,-27.6417 143.814,-26.0935 177.79,-29.9392"/>
<polygon fill="#9a32cd" stroke="#9a32cd" points="24.8809,-241.495 27.6569,-251.719 31.863,-241.995 24.8809,-241.495"/>
<text text-anchor="middle" x="112" y="-95.4596" font-family="Helvetica,sans-Serif" font-size="10.00"> prev</text>
<text text-anchor="middle" x="112" y="-82.4596" font-family="Helvetica,sans-Serif" font-size="10.00">keyID</text>
<text text-anchor="middle" x="112" y="-69.4596" font-family="Helvetica,sans-Serif" font-size="10.00">next</text>
<text text-anchor="middle" x="112" y="-56.4596" font-family="Helvetica,sans-Serif" font-size="10.00">certKey</text>
</g>
<!-- Node14 -->
<g id="node35" class="node"><title>Node14</title>
<a xlink:href="../../db/de1/struct_c_e_r_t_issuer_and_s_n_str.html" target="_top" xlink:title="CERTIssuerAndSNStr">
<polygon fill="white" stroke="black" points="594,-553.96 594,-574.96 710,-574.96 710,-553.96 594,-553.96"/>
<text text-anchor="middle" x="652" y="-561.96" font-family="Helvetica,sans-Serif" font-size="10.00">CERTIssuerAndSNStr</text>
</a>
</g>
<!-- Node2&#45;&gt;Node14 -->
<g id="edge46" class="edge"><title>Node2&#45;&gt;Node14</title>
<path fill="none" stroke="#9a32cd" stroke-dasharray="5,2" d="M27.5262,-283.261C29.3861,-338.377 37.5502,-486.099 72,-517.46 227.389,-658.914 513.161,-601.532 614.863,-575.041"/>
<polygon fill="#9a32cd" stroke="#9a32cd" points="31.0162,-282.872 27.2178,-272.981 24.0193,-283.082 31.0162,-282.872"/>
<text text-anchor="middle" x="229" y="-633.46" font-family="Helvetica,sans-Serif" font-size="10.00"> issuer</text>
<text text-anchor="middle" x="229" y="-620.46" font-family="Helvetica,sans-Serif" font-size="10.00">derIssuer</text>
<text text-anchor="middle" x="229" y="-607.46" font-family="Helvetica,sans-Serif" font-size="10.00">serialNumber</text>
</g>
<!-- Node3&#45;&gt;Node1 -->
<g id="edge4" class="edge"><title>Node3&#45;&gt;Node1</title>
<path fill="none" stroke="#9a32cd" stroke-dasharray="5,2" d="M790.258,-214.724C824.499,-273.314 926.646,-448.098 952.83,-492.902"/>
<polygon fill="#9a32cd" stroke="#9a32cd" points="793.264,-212.929 785.196,-206.062 787.22,-216.461 793.264,-212.929"/>
<text text-anchor="middle" x="858" y="-344.46" font-family="Helvetica,sans-Serif" font-size="10.00"> cert</text>
</g>
<!-- Node4&#45;&gt;Node3 -->
<g id="edge6" class="edge"><title>Node4&#45;&gt;Node3</title>
<path fill="none" stroke="#9a32cd" stroke-dasharray="5,2" d="M572.801,-260.939C612.923,-257.264 665.566,-249.762 710,-234.46 729.906,-227.604 750.664,-215.013 764.146,-205.99"/>
<polygon fill="#9a32cd" stroke="#9a32cd" points="572.285,-257.47 562.622,-261.814 572.885,-264.445 572.285,-257.47"/>
<text text-anchor="middle" x="652" y="-262.46" font-family="Helvetica,sans-Serif" font-size="10.00"> authKeyID</text>
</g>
<!-- Node5&#45;&gt;Node4 -->
<g id="edge8" class="edge"><title>Node5&#45;&gt;Node4</title>
<path fill="none" stroke="#9a32cd" stroke-dasharray="5,2" d="M297.481,-222.18C335.539,-226.495 383.628,-232.904 426,-241.46 442.451,-244.781 460.429,-249.547 475.516,-253.879"/>
<polygon fill="#9a32cd" stroke="#9a32cd" points="297.855,-218.701 287.529,-221.074 297.081,-225.658 297.855,-218.701"/>
<text text-anchor="middle" x="366" y="-245.46" font-family="Helvetica,sans-Serif" font-size="10.00"> authCertIssuer</text>
</g>
<!-- Node6 -->
<g id="node11" class="node"><title>Node6</title>
<a xlink:href="../../d2/d86/struct_s_e_c_item_str.html" target="_top" xlink:title="SECItemStr">
<polygon fill="white" stroke="black" points="194,-244.96 194,-265.96 264,-265.96 264,-244.96 194,-244.96"/>
<text text-anchor="middle" x="229" y="-252.96" font-family="Helvetica,sans-Serif" font-size="10.00">SECItemStr</text>
</a>
</g>
<!-- Node6&#45;&gt;Node4 -->
<g id="edge12" class="edge"><title>Node6&#45;&gt;Node4</title>
<path fill="none" stroke="#9a32cd" stroke-dasharray="5,2" d="M274.196,-256.907C324.139,-258.507 404.476,-261.08 457.257,-262.77"/>
<polygon fill="#9a32cd" stroke="#9a32cd" points="274.128,-253.403 264.021,-256.581 273.903,-260.4 274.128,-253.403"/>
<text text-anchor="middle" x="366" y="-266.46" font-family="Helvetica,sans-Serif" font-size="10.00"> DERAuthCertIssuer</text>
</g>
<!-- Node7&#45;&gt;Node3 -->
<g id="edge16" class="edge"><title>Node7&#45;&gt;Node3</title>
<path fill="none" stroke="#9a32cd" stroke-dasharray="5,2" d="M276.211,-114.813C286.049,-116.718 296.358,-118.682 306,-120.46 458.903,-148.646 640.81,-175.672 727.761,-188.194"/>
<polygon fill="#9a32cd" stroke="#9a32cd" points="276.662,-111.335 266.178,-112.859 275.324,-118.206 276.662,-111.335"/>
<text text-anchor="middle" x="510" y="-169.46" font-family="Helvetica,sans-Serif" font-size="10.00"> arena</text>
</g>
<!-- Node10 -->
<g id="node24" class="node"><title>Node10</title>
<a xlink:href="../../d3/d45/struct_c_e_r_t_subject_list_str.html" target="_top" xlink:title="CERTSubjectListStr">
<polygon fill="white" stroke="black" points="457,-2.95957 457,-23.9596 563,-23.9596 563,-2.95957 457,-2.95957"/>
<text text-anchor="middle" x="510" y="-10.9596" font-family="Helvetica,sans-Serif" font-size="10.00">CERTSubjectListStr</text>
</a>
</g>
<!-- Node7&#45;&gt;Node10 -->
<g id="edge32" class="edge"><title>Node7&#45;&gt;Node10</title>
<path fill="none" stroke="#9a32cd" stroke-dasharray="5,2" d="M276.414,-105.707C319.187,-103.686 381.965,-94.9106 426,-63.4596 438.653,-54.4222 431.738,-43.0214 444,-33.4596 448.91,-29.631 454.548,-26.5327 460.416,-24.0258"/>
<polygon fill="#9a32cd" stroke="#9a32cd" points="276.128,-102.215 266.263,-106.078 276.384,-109.21 276.128,-102.215"/>
<text text-anchor="middle" x="366" y="-107.46" font-family="Helvetica,sans-Serif" font-size="10.00"> arena</text>
</g>
<!-- Node8 -->
<g id="node16" class="node"><title>Node8</title>
<a xlink:href="../../d0/da4/struct_p_l_arena.html" target="_top" xlink:title="PLArena">
<polygon fill="white" stroke="black" points="0,-2.95957 0,-23.9596 54,-23.9596 54,-2.95957 0,-2.95957"/>
<text text-anchor="middle" x="27" y="-10.9596" font-family="Helvetica,sans-Serif" font-size="10.00">PLArena</text>
</a>
</g>
<!-- Node8&#45;&gt;Node7 -->
<g id="edge18" class="edge"><title>Node8&#45;&gt;Node7</title>
<path fill="none" stroke="#9a32cd" stroke-dasharray="5,2" d="M64.3605,-3.45035C91.0879,1.41808 126.671,2.97681 152,-14.4596 170.083,-26.9083 156.782,-42.9307 170,-60.4596 180.781,-74.7568 197.249,-86.7948 210.049,-94.8119"/>
<polygon fill="#9a32cd" stroke="#9a32cd" points="63.3229,-0.0901848 54.2297,-5.52738 64.7289,-6.94755 63.3229,-0.0901848"/>
<text text-anchor="middle" x="112" y="-18.4596" font-family="Helvetica,sans-Serif" font-size="10.00"> current</text>
</g>
<!-- Node8&#45;&gt;Node8 -->
<g id="edge20" class="edge"><title>Node8&#45;&gt;Node8</title>
<path fill="none" stroke="#9a32cd" stroke-dasharray="5,2" d="M11.6167,-34.2529C12.9744,-38.9887 18.1022,-42.4596 27,-42.4596 41.6016,-42.4596 46.0505,-33.1127 40.3467,-24.1674"/>
<polygon fill="#9a32cd" stroke="#9a32cd" points="15.1046,-34.6624 13.6533,-24.1674 8.24309,-33.2768 15.1046,-34.6624"/>
<text text-anchor="middle" x="27" y="-46.4596" font-family="Helvetica,sans-Serif" font-size="10.00"> next</text>
</g>
<!-- Node9&#45;&gt;Node3 -->
<g id="edge26" class="edge"><title>Node9&#45;&gt;Node3</title>
<path fill="none" stroke="#9a32cd" stroke-dasharray="5,2" d="M435.674,-195.46C518.372,-195.46 654.303,-195.46 727.869,-195.46"/>
<polygon fill="#9a32cd" stroke="#9a32cd" points="435.613,-191.96 425.613,-195.46 435.613,-198.96 435.613,-191.96"/>
<text text-anchor="middle" x="510" y="-199.46" font-family="Helvetica,sans-Serif" font-size="10.00"> extensions</text>
</g>
<!-- Node10&#45;&gt;Node3 -->
<g id="edge30" class="edge"><title>Node10&#45;&gt;Node3</title>
<path fill="none" stroke="#9a32cd" stroke-dasharray="5,2" d="M573.566,-9.68503C616.162,-10.3985 671.319,-17.9644 710,-47.4596 756.44,-82.8707 772.82,-157.125 777.446,-184.78"/>
<polygon fill="#9a32cd" stroke="#9a32cd" points="573.317,-6.184 563.302,-9.63986 573.287,-13.1839 573.317,-6.184"/>
<text text-anchor="middle" x="652" y="-51.4596" font-family="Helvetica,sans-Serif" font-size="10.00"> subjectList</text>
</g>
<!-- Node11&#45;&gt;Node10 -->
<g id="edge34" class="edge"><title>Node11&#45;&gt;Node10</title>
<path fill="none" stroke="#9a32cd" stroke-dasharray="5,2" d="M295.771,-34.0438C345.044,-29.3094 411.197,-22.9531 456.893,-18.5624"/>
<polygon fill="#9a32cd" stroke="#9a32cd" points="295.146,-30.5877 285.527,-35.0282 295.815,-37.5556 295.146,-30.5877"/>
<text text-anchor="middle" x="366" y="-50.4596" font-family="Helvetica,sans-Serif" font-size="10.00"> head</text>
<text text-anchor="middle" x="366" y="-37.4596" font-family="Helvetica,sans-Serif" font-size="10.00">tail</text>
</g>
<!-- Node12 -->
<g id="node30" class="node"><title>Node12</title>
<a xlink:href="../../d5/d52/struct_c_e_r_t_cert_trust_str.html" target="_top" xlink:title="CERTCertTrustStr">
<polygon fill="white" stroke="black" points="461,-113.96 461,-134.96 559,-134.96 559,-113.96 461,-113.96"/>
<text text-anchor="middle" x="510" y="-121.96" font-family="Helvetica,sans-Serif" font-size="10.00">CERTCertTrustStr</text>
</a>
</g>
<!-- Node12&#45;&gt;Node3 -->
<g id="edge38" class="edge"><title>Node12&#45;&gt;Node3</title>
<path fill="none" stroke="#9a32cd" stroke-dasharray="5,2" d="M569.418,-122.243C610.24,-122.655 664.978,-127.096 710,-144.46 733.349,-153.465 755.768,-172.614 768.423,-184.716"/>
<polygon fill="#9a32cd" stroke="#9a32cd" points="569.362,-118.743 559.354,-122.219 569.345,-125.743 569.362,-118.743"/>
<text text-anchor="middle" x="652" y="-148.46" font-family="Helvetica,sans-Serif" font-size="10.00"> trust</text>
</g>
<!-- Node13 -->
<g id="node32" class="node"><title>Node13</title>
<a xlink:href="../../da/ddc/struct_c_e_r_t_o_k_domain_name_str.html" target="_top" xlink:title="CERTOKDomainNameStr">
<polygon fill="white" stroke="black" points="444.5,-42.9596 444.5,-63.9596 575.5,-63.9596 575.5,-42.9596 444.5,-42.9596"/>
<text text-anchor="middle" x="510" y="-50.9596" font-family="Helvetica,sans-Serif" font-size="10.00">CERTOKDomainNameStr</text>
</a>
</g>
<!-- Node13&#45;&gt;Node3 -->
<g id="edge40" class="edge"><title>Node13&#45;&gt;Node3</title>
<path fill="none" stroke="#9a32cd" stroke-dasharray="5,2" d="M585.521,-61.6587C625.149,-68.7534 673.01,-81.9501 710,-106.46 740.966,-126.978 763.975,-166.064 773.781,-184.854"/>
<polygon fill="#9a32cd" stroke="#9a32cd" points="586.08,-58.2035 575.635,-59.9833 584.91,-65.1051 586.08,-58.2035"/>
<text text-anchor="middle" x="652" y="-110.46" font-family="Helvetica,sans-Serif" font-size="10.00"> domainOK</text>
</g>
<!-- Node13&#45;&gt;Node13 -->
<g id="edge42" class="edge"><title>Node13&#45;&gt;Node13</title>
<path fill="none" stroke="#9a32cd" stroke-dasharray="5,2" d="M483.692,-73.5147C485.418,-78.6236 494.187,-82.4596 510,-82.4596 534.684,-82.4596 542.204,-73.1127 532.562,-64.1674"/>
<polygon fill="#9a32cd" stroke="#9a32cd" points="486.967,-74.7518 487.438,-64.1674 480.469,-72.148 486.967,-74.7518"/>
<text text-anchor="middle" x="510" y="-86.4596" font-family="Helvetica,sans-Serif" font-size="10.00"> next</text>
</g>
<!-- Node14&#45;&gt;Node1 -->
<g id="edge44" class="edge"><title>Node14&#45;&gt;Node1</title>
<path fill="none" stroke="#9a32cd" stroke-dasharray="5,2" d="M714.987,-551.944C771.321,-540.751 852.959,-524.53 906.012,-513.988"/>
<polygon fill="#9a32cd" stroke="#9a32cd" points="714.251,-548.522 705.125,-553.904 715.615,-555.388 714.251,-548.522"/>
<text text-anchor="middle" x="779" y="-552.46" font-family="Helvetica,sans-Serif" font-size="10.00"> issuerAndSN</text>
</g>
</g>
</svg>
        <g id="navigator" transform="translate(0 0)" fill="#404254">
                <rect fill="#f2f5e9" fill-opacity="0.5" stroke="#606060" stroke-width=".5" x="0" y="0" width="60" height="60"/>
                <use id="zoomplus" xlink:href="#zoomPlus" x="17" y="9" onmousedown="handleZoom(evt,'in')"/>
                <use id="zoomminus" xlink:href="#zoomMin" x="42" y="9" onmousedown="handleZoom(evt,'out')"/>
                <use id="reset" xlink:href="#resetDef" x="30" y="36" onmousedown="handleReset()"/>
                <g id="arrowUp" xlink:href="#dirArrow" transform="translate(30 24)" onmousedown="handlePan(0,-1)">
                  <use xlink:href="#rim" fill="#404040">
                        <set attributeName="fill" to="#808080" begin="arrowUp.mouseover" end="arrowUp.mouseout"/>
                  </use>
                  <path fill="none" stroke="white" stroke-width="1.5" d="M0,-3.0v7 M-2.5,-0.5L0,-3.0L2.5,-0.5"/>
                </g>
                <g id="arrowRight" xlink:href="#dirArrow" transform="rotate(90) translate(36 -43)" onmousedown="handlePan(1,0)">
                  <use xlink:href="#rim" fill="#404040">
                        <set attributeName="fill" to="#808080" begin="arrowRight.mouseover" end="arrowRight.mouseout"/>
                  </use>
                  <path fill="none" stroke="white" stroke-width="1.5" d="M0,-3.0v7 M-2.5,-0.5L0,-3.0L2.5,-0.5"/>
                </g>
                <g id="arrowDown" xlink:href="#dirArrow" transform="rotate(180) translate(-30 -48)" onmousedown="handlePan(0,1)">
                  <use xlink:href="#rim" fill="#404040">
                        <set attributeName="fill" to="#808080" begin="arrowDown.mouseover" end="arrowDown.mouseout"/>
                  </use>
                  <path fill="none" stroke="white" stroke-width="1.5" d="M0,-3.0v7 M-2.5,-0.5L0,-3.0L2.5,-0.5"/>
                </g>
                <g id="arrowLeft" xlink:href="#dirArrow" transform="rotate(270) translate(-36 17)" onmousedown="handlePan(-1,0)">
                  <use xlink:href="#rim" fill="#404040">
                        <set attributeName="fill" to="#808080" begin="arrowLeft.mouseover" end="arrowLeft.mouseout"/>
                  </use>
                  <path fill="none" stroke="white" stroke-width="1.5" d="M0,-3.0v7 M-2.5,-0.5L0,-3.0L2.5,-0.5"/>
                </g>
        </g>
</svg>
