<?xml version="1.0" encoding="UTF-8" standalone="no"?>
<!DOCTYPE svg PUBLIC "-//W3C//DTD SVG 1.1//EN"
 "http://www.w3.org/Graphics/SVG/1.1/DTD/svg11.dtd">
<!-- Generated by graphviz version 2.26.3 (20100126.1600)
 -->
<!-- Title: G Pages: 1 -->
<svg width="192pt" height="146pt"
 viewBox="0.00 0.00 192.00 146.00" xmlns="http://www.w3.org/2000/svg" xmlns:xlink="http://www.w3.org/1999/xlink">
<g id="graph1" class="graph" transform="scale(1 1) rotate(0) translate(4 142)">
<title>G</title>
<polygon fill="white" stroke="white" points="-4,5 -4,-142 189,-142 189,5 -4,5"/>
<!-- Node1 -->
<g id="node1" class="node"><title>Node1</title>
<polygon fill="#bfbfbf" stroke="black" points="22.5,-0.5 22.5,-21.5 161.5,-21.5 161.5,-0.5 22.5,-0.5"/>
<text text-anchor="middle" x="92" y="-8.5" font-family="Helvetica,sans-Serif" font-size="10.00">AttributeRuleProcessorData</text>
</g>
<!-- Node2 -->
<g id="node2" class="node"><title>Node2</title>
<a xlink:href="../../d5/d5d/struct_element_dependent_rule_processor_data.html" target="_top" xlink:title="ElementDependentRuleProcessorData">
<polygon fill="white" stroke="black" points="-0.5,-58.5 -0.5,-79.5 184.5,-79.5 184.5,-58.5 -0.5,-58.5"/>
<text text-anchor="middle" x="92" y="-66.5" font-family="Helvetica,sans-Serif" font-size="10.00">ElementDependentRuleProcessorData</text>
</a>
</g>
<!-- Node2&#45;&gt;Node1 -->
<g id="edge2" class="edge"><title>Node2&#45;&gt;Node1</title>
<path fill="none" stroke="midnightblue" d="M92,-48.1906C92,-39.1684 92,-28.9941 92,-21.5707"/>
<polygon fill="midnightblue" stroke="midnightblue" points="88.5001,-48.3619 92,-58.3619 95.5001,-48.3619 88.5001,-48.3619"/>
</g>
<!-- Node3 -->
<g id="node4" class="node"><title>Node3</title>
<a xlink:href="../../d3/dbb/struct_rule_processor_data.html" target="_top" xlink:title="RuleProcessorData">
<polygon fill="white" stroke="black" points="41,-116.5 41,-137.5 143,-137.5 143,-116.5 41,-116.5"/>
<text text-anchor="middle" x="92" y="-124.5" font-family="Helvetica,sans-Serif" font-size="10.00">RuleProcessorData</text>
</a>
</g>
<!-- Node3&#45;&gt;Node2 -->
<g id="edge4" class="edge"><title>Node3&#45;&gt;Node2</title>
<path fill="none" stroke="midnightblue" d="M92,-106.191C92,-97.1684 92,-86.9941 92,-79.5707"/>
<polygon fill="midnightblue" stroke="midnightblue" points="88.5001,-106.362 92,-116.362 95.5001,-106.362 88.5001,-106.362"/>
</g>
</g>
</svg>
