<?xml version="1.0" encoding="UTF-8" standalone="no"?>
<!DOCTYPE svg PUBLIC "-//W3C//DTD SVG 1.1//EN"
 "http://www.w3.org/Graphics/SVG/1.1/DTD/svg11.dtd">
<!-- Generated by graphviz version 2.26.3 (20100126.1600)
 -->
<!-- Title: G Pages: 1 -->
<!--zoomable 70 -->
<svg id="main" version="1.1" xmlns="http://www.w3.org/2000/svg" xmlns:xlink="http://www.w3.org/1999/xlink" xml:space="preserve" onload="init(evt)">
        <defs>
                <circle id="rim" cx="0" cy="0" r="7"/>
                <circle id="rim2" cx="0" cy="0" r="3.5"/>
                <g id="zoomPlus">
                        <use xlink:href="#rim" fill="#404040">
                                <set attributeName="fill" to="#808080" begin="zoomplus.mouseover" end="zoomplus.mouseout"/>
                        </use>
                        <path d="M-4,0h8M0,-4v8" fill="none" stroke="white" stroke-width="1.5" pointer-events="none"/>
                </g>
                <g id="zoomMin">
                        <use xlink:href="#rim" fill="#404040">
                                <set attributeName="fill" to="#808080" begin="zoomminus.mouseover" end="zoomminus.mouseout"/>
                        </use>
                        <path d="M-4,0h8" fill="none" stroke="white" stroke-width="1.5" pointer-events="none"/>
                </g>
                <g id="dirArrow">
                        <path fill="none" stroke="white" stroke-width="1.5" d="M0,-3.0v7 M-2.5,-0.5L0,-3.0L2.5,-0.5"/>
                </g>
               <g id="resetDef">
                       <use xlink:href="#rim2" fill="#404040">
                               <set attributeName="fill" to="#808080" begin="reset.mouseover" end="reset.mouseout"/>
                       </use>
               </g>
        </defs>

<script type="text/javascript">
var viewWidth = 1360;
var viewHeight = 70;
var sectionId = 'dynsection-0';
</script>
<script xlink:href="../../svgpan.js"/>
<svg id="graph" class="graph">
<g id="viewport">
<title>G</title>
<polygon fill="white" stroke="white" points="-4,5 -4,-66 1357,-66 1357,5 -4,5"/>
<!-- Node1 -->
<g id="node1" class="node"><title>Node1</title>
<polygon fill="#bfbfbf" stroke="black" points="1206,-20.5 1206,-41.5 1352,-41.5 1352,-20.5 1206,-20.5"/>
<text text-anchor="middle" x="1279" y="-28.5" font-family="Helvetica,sans-Serif" font-size="10.00">mozilla::dom::Sequence&lt; T &gt;</text>
</g>
<!-- Node2 -->
<g id="node2" class="node"><title>Node2</title>
<a xlink:href="../../d3/d8f/class_fallible_t_array.html" target="_top" xlink:title="FallibleTArray\&lt; T \&gt;">
<polygon fill="white" stroke="black" points="1068.5,-20.5 1068.5,-41.5 1169.5,-41.5 1169.5,-20.5 1068.5,-20.5"/>
<text text-anchor="middle" x="1119" y="-28.5" font-family="Helvetica,sans-Serif" font-size="10.00">FallibleTArray&lt; T &gt;</text>
</a>
</g>
<!-- Node2&#45;&gt;Node1 -->
<g id="edge2" class="edge"><title>Node2&#45;&gt;Node1</title>
<path fill="none" stroke="midnightblue" d="M1179.84,-31C1188.36,-31 1197.19,-31 1205.91,-31"/>
<polygon fill="midnightblue" stroke="midnightblue" points="1179.63,-27.5001 1169.62,-31 1179.62,-34.5001 1179.63,-27.5001"/>
</g>
<!-- Node3 -->
<g id="node4" class="node"><title>Node3</title>
<a xlink:href="../../d4/dd8/classns_t_array___impl.html" target="_top" xlink:title="nsTArray_Impl\&lt; T, nsTArrayFallibleAllocator \&gt;">
<polygon fill="white" stroke="black" points="812.5,-20.5 812.5,-41.5 1031.5,-41.5 1031.5,-20.5 812.5,-20.5"/>
<text text-anchor="middle" x="922" y="-28.5" font-family="Helvetica,sans-Serif" font-size="10.00">nsTArray_Impl&lt; T, nsTArrayFallibleAllocator &gt;</text>
</a>
</g>
<!-- Node3&#45;&gt;Node2 -->
<g id="edge4" class="edge"><title>Node3&#45;&gt;Node2</title>
<path fill="none" stroke="midnightblue" d="M1041.8,-31C1051,-31 1059.94,-31 1068.28,-31"/>
<polygon fill="midnightblue" stroke="midnightblue" points="1041.73,-27.5001 1031.73,-31 1041.73,-34.5001 1041.73,-27.5001"/>
</g>
<!-- Node4 -->
<g id="node6" class="node"><title>Node4</title>
<a xlink:href="../../db/d9f/classns_t_array__base.html" target="_top" xlink:title="nsTArray_base\&lt; nsTArrayFallibleAllocator, nsTArray_CopyElements\&lt; T \&gt; \&gt;">
<polygon fill="white" stroke="black" points="426.5,-40.5 426.5,-61.5 775.5,-61.5 775.5,-40.5 426.5,-40.5"/>
<text text-anchor="middle" x="601" y="-48.5" font-family="Helvetica,sans-Serif" font-size="10.00">nsTArray_base&lt; nsTArrayFallibleAllocator, nsTArray_CopyElements&lt; T &gt; &gt;</text>
</a>
</g>
<!-- Node4&#45;&gt;Node3 -->
<g id="edge6" class="edge"><title>Node4&#45;&gt;Node3</title>
<path fill="none" stroke="midnightblue" d="M780.029,-39.8456C790.963,-39.1643 801.78,-38.4903 812.275,-37.8364"/>
<polygon fill="midnightblue" stroke="midnightblue" points="779.723,-36.3577 769.96,-40.4729 780.159,-43.3442 779.723,-36.3577"/>
</g>
<!-- Node5 -->
<g id="node8" class="node"><title>Node5</title>
<a xlink:href="../../d7/dcf/structns_t_array___typed_base.html" target="_top" xlink:title="nsTArray_TypedBase\&lt; T, nsTArray_Impl\&lt; T, nsTArrayFallibleAllocator \&gt; \&gt;">
<polygon fill="white" stroke="black" points="429,-0.5 429,-21.5 773,-21.5 773,-0.5 429,-0.5"/>
<text text-anchor="middle" x="601" y="-8.5" font-family="Helvetica,sans-Serif" font-size="10.00">nsTArray_TypedBase&lt; T, nsTArray_Impl&lt; T, nsTArrayFallibleAllocator &gt; &gt;</text>
</a>
</g>
<!-- Node5&#45;&gt;Node3 -->
<g id="edge8" class="edge"><title>Node5&#45;&gt;Node3</title>
<path fill="none" stroke="midnightblue" d="M780.029,-22.1544C790.963,-22.8357 801.78,-23.5097 812.275,-24.1636"/>
<polygon fill="midnightblue" stroke="midnightblue" points="780.159,-18.6558 769.96,-21.5271 779.723,-25.6423 780.159,-18.6558"/>
</g>
<!-- Node6 -->
<g id="node10" class="node"><title>Node6</title>
<a xlink:href="../../db/d62/structns_t_array___safe_element_at_helper.html" target="_top" xlink:title="nsTArray_SafeElementAtHelper\&lt; T, nsTArray_Impl\&lt; T, nsTArrayFallibleAllocator \&gt; \&gt;">
<polygon fill="white" stroke="black" points="0.5,-0.5 0.5,-21.5 389.5,-21.5 389.5,-0.5 0.5,-0.5"/>
<text text-anchor="middle" x="195" y="-8.5" font-family="Helvetica,sans-Serif" font-size="10.00">nsTArray_SafeElementAtHelper&lt; T, nsTArray_Impl&lt; T, nsTArrayFallibleAllocator &gt; &gt;</text>
</a>
</g>
<!-- Node6&#45;&gt;Node5 -->
<g id="edge10" class="edge"><title>Node6&#45;&gt;Node5</title>
<path fill="none" stroke="midnightblue" d="M399.834,-11C409.583,-11 419.327,-11 428.975,-11"/>
<polygon fill="midnightblue" stroke="midnightblue" points="399.676,-7.5001 389.676,-11 399.676,-14.5001 399.676,-7.5001"/>
</g>
</g>
</svg>
        <g id="navigator" transform="translate(0 0)" fill="#404254">
                <rect fill="#f2f5e9" fill-opacity="0.5" stroke="#606060" stroke-width=".5" x="0" y="0" width="60" height="60"/>
                <use id="zoomplus" xlink:href="#zoomPlus" x="17" y="9" onmousedown="handleZoom(evt,'in')"/>
                <use id="zoomminus" xlink:href="#zoomMin" x="42" y="9" onmousedown="handleZoom(evt,'out')"/>
                <use id="reset" xlink:href="#resetDef" x="30" y="36" onmousedown="handleReset()"/>
                <g id="arrowUp" xlink:href="#dirArrow" transform="translate(30 24)" onmousedown="handlePan(0,-1)">
                  <use xlink:href="#rim" fill="#404040">
                        <set attributeName="fill" to="#808080" begin="arrowUp.mouseover" end="arrowUp.mouseout"/>
                  </use>
                  <path fill="none" stroke="white" stroke-width="1.5" d="M0,-3.0v7 M-2.5,-0.5L0,-3.0L2.5,-0.5"/>
                </g>
                <g id="arrowRight" xlink:href="#dirArrow" transform="rotate(90) translate(36 -43)" onmousedown="handlePan(1,0)">
                  <use xlink:href="#rim" fill="#404040">
                        <set attributeName="fill" to="#808080" begin="arrowRight.mouseover" end="arrowRight.mouseout"/>
                  </use>
                  <path fill="none" stroke="white" stroke-width="1.5" d="M0,-3.0v7 M-2.5,-0.5L0,-3.0L2.5,-0.5"/>
                </g>
                <g id="arrowDown" xlink:href="#dirArrow" transform="rotate(180) translate(-30 -48)" onmousedown="handlePan(0,1)">
                  <use xlink:href="#rim" fill="#404040">
                        <set attributeName="fill" to="#808080" begin="arrowDown.mouseover" end="arrowDown.mouseout"/>
                  </use>
                  <path fill="none" stroke="white" stroke-width="1.5" d="M0,-3.0v7 M-2.5,-0.5L0,-3.0L2.5,-0.5"/>
                </g>
                <g id="arrowLeft" xlink:href="#dirArrow" transform="rotate(270) translate(-36 17)" onmousedown="handlePan(-1,0)">
                  <use xlink:href="#rim" fill="#404040">
                        <set attributeName="fill" to="#808080" begin="arrowLeft.mouseover" end="arrowLeft.mouseout"/>
                  </use>
                  <path fill="none" stroke="white" stroke-width="1.5" d="M0,-3.0v7 M-2.5,-0.5L0,-3.0L2.5,-0.5"/>
                </g>
        </g>
</svg>
