<?xml version="1.0" encoding="UTF-8" standalone="no"?>
<!DOCTYPE svg PUBLIC "-//W3C//DTD SVG 1.1//EN"
 "http://www.w3.org/Graphics/SVG/1.1/DTD/svg11.dtd">
<!-- Generated by graphviz version 2.26.3 (20100126.1600)
 -->
<!-- Title: G Pages: 1 -->
<svg width="326pt" height="204pt"
 viewBox="0.00 0.00 326.00 204.00" xmlns="http://www.w3.org/2000/svg" xmlns:xlink="http://www.w3.org/1999/xlink">
<g id="graph1" class="graph" transform="scale(1 1) rotate(0) translate(4 200)">
<title>G</title>
<polygon fill="white" stroke="white" points="-4,5 -4,-200 323,-200 323,5 -4,5"/>
<!-- Node1 -->
<g id="node1" class="node"><title>Node1</title>
<polygon fill="#bfbfbf" stroke="black" points="110.5,-116.5 110.5,-137.5 207.5,-137.5 207.5,-116.5 110.5,-116.5"/>
<text text-anchor="middle" x="159" y="-124.5" font-family="Helvetica,sans-Serif" font-size="10.00">nsIUploadChannel</text>
</g>
<!-- Node3 -->
<g id="node6" class="node"><title>Node3</title>
<a xlink:href="../../df/d5c/classmozilla_1_1net_1_1_f_t_p_channel_child.html" target="_top" xlink:title="mozilla::net::FTPChannelChild">
<polygon fill="white" stroke="black" points="0,-58.5 0,-79.5 150,-79.5 150,-58.5 0,-58.5"/>
<text text-anchor="middle" x="75" y="-66.5" font-family="Helvetica,sans-Serif" font-size="10.00">mozilla::net::FTPChannelChild</text>
</a>
</g>
<!-- Node1&#45;&gt;Node3 -->
<g id="edge6" class="edge"><title>Node1&#45;&gt;Node3</title>
<path fill="none" stroke="midnightblue" d="M135.162,-110.541C120.762,-100.597 102.833,-88.2177 90.3092,-79.5707"/>
<polygon fill="midnightblue" stroke="midnightblue" points="133.375,-113.56 143.593,-116.362 137.353,-107.8 133.375,-113.56"/>
</g>
<!-- Node4 -->
<g id="node8" class="node"><title>Node4</title>
<a xlink:href="../../d8/d60/classmozilla_1_1net_1_1_http_base_channel.html" target="_top" xlink:title="mozilla::net::HttpBaseChannel">
<polygon fill="white" stroke="black" points="168,-58.5 168,-79.5 318,-79.5 318,-58.5 168,-58.5"/>
<text text-anchor="middle" x="243" y="-66.5" font-family="Helvetica,sans-Serif" font-size="10.00">mozilla::net::HttpBaseChannel</text>
</a>
</g>
<!-- Node1&#45;&gt;Node4 -->
<g id="edge8" class="edge"><title>Node1&#45;&gt;Node4</title>
<path fill="none" stroke="midnightblue" d="M182.838,-110.541C197.238,-100.597 215.167,-88.2177 227.691,-79.5707"/>
<polygon fill="midnightblue" stroke="midnightblue" points="180.647,-107.8 174.407,-116.362 184.625,-113.56 180.647,-107.8"/>
</g>
<!-- Node2 -->
<g id="node2" class="node"><title>Node2</title>
<a xlink:href="../../d4/d6a/classns_i_supports.html" target="_top" xlink:title="nsISupports">
<polygon fill="white" stroke="black" points="124.5,-174.5 124.5,-195.5 193.5,-195.5 193.5,-174.5 124.5,-174.5"/>
<text text-anchor="middle" x="159" y="-182.5" font-family="Helvetica,sans-Serif" font-size="10.00">nsISupports</text>
</a>
</g>
<!-- Node2&#45;&gt;Node1 -->
<g id="edge2" class="edge"><title>Node2&#45;&gt;Node1</title>
<path fill="none" stroke="midnightblue" d="M152.495,-164.191C151.941,-155.168 152.326,-144.994 153.648,-137.571"/>
<polygon fill="midnightblue" stroke="midnightblue" points="149.043,-164.814 153.636,-174.362 156,-164.034 149.043,-164.814"/>
</g>
<!-- Node2&#45;&gt;Node1 -->
<g id="edge4" class="edge"><title>Node2&#45;&gt;Node1</title>
<path fill="none" stroke="midnightblue" d="M165.505,-164.191C166.059,-155.168 165.674,-144.994 164.352,-137.571"/>
<polygon fill="midnightblue" stroke="midnightblue" points="162,-164.034 164.364,-174.362 168.957,-164.814 162,-164.034"/>
</g>
<!-- Node5 -->
<g id="node10" class="node"><title>Node5</title>
<a xlink:href="../../d2/db2/classmozilla_1_1net_1_1_http_channel_child.html" target="_top" xlink:title="mozilla::net::HttpChannelChild">
<polygon fill="white" stroke="black" points="168,-0.5 168,-21.5 318,-21.5 318,-0.5 168,-0.5"/>
<text text-anchor="middle" x="243" y="-8.5" font-family="Helvetica,sans-Serif" font-size="10.00">mozilla::net::HttpChannelChild</text>
</a>
</g>
<!-- Node4&#45;&gt;Node5 -->
<g id="edge10" class="edge"><title>Node4&#45;&gt;Node5</title>
<path fill="none" stroke="midnightblue" d="M243,-48.1906C243,-39.1684 243,-28.9941 243,-21.5707"/>
<polygon fill="midnightblue" stroke="midnightblue" points="239.5,-48.3619 243,-58.3619 246.5,-48.3619 239.5,-48.3619"/>
</g>
</g>
</svg>
