<?xml version="1.0" encoding="UTF-8" standalone="no"?>
<!DOCTYPE svg PUBLIC "-//W3C//DTD SVG 1.1//EN"
 "http://www.w3.org/Graphics/SVG/1.1/DTD/svg11.dtd">
<!-- Generated by graphviz version 2.26.3 (20100126.1600)
 -->
<!-- Title: G Pages: 1 -->
<svg width="435pt" height="264pt"
 viewBox="0.00 0.00 435.00 264.00" xmlns="http://www.w3.org/2000/svg" xmlns:xlink="http://www.w3.org/1999/xlink">
<g id="graph1" class="graph" transform="scale(1 1) rotate(0) translate(4 260)">
<title>G</title>
<polygon fill="white" stroke="white" points="-4,5 -4,-260 432,-260 432,5 -4,5"/>
<!-- Node1 -->
<g id="node1" class="node"><title>Node1</title>
<polygon fill="#bfbfbf" stroke="black" points="-0.5,-0.5 -0.5,-21.5 68.5,-21.5 68.5,-0.5 -0.5,-0.5"/>
<text text-anchor="middle" x="34" y="-8.5" font-family="Helvetica,sans-Serif" font-size="10.00">jsdIProperty</text>
</g>
<!-- Node2 -->
<g id="node2" class="node"><title>Node2</title>
<a xlink:href="../../d8/df6/interfacejsd_i_ephemeral.html" target="_top" xlink:title="jsdIEphemeral">
<polygon fill="white" stroke="black" points="112.5,-174.5 112.5,-195.5 191.5,-195.5 191.5,-174.5 112.5,-174.5"/>
<text text-anchor="middle" x="152" y="-182.5" font-family="Helvetica,sans-Serif" font-size="10.00">jsdIEphemeral</text>
</a>
</g>
<!-- Node2&#45;&gt;Node1 -->
<g id="edge2" class="edge"><title>Node2&#45;&gt;Node1</title>
<path fill="none" stroke="midnightblue" d="M128.677,-167.412C107.709,-147.372 77.7625,-113.099 57,-80 44.7906,-60.5363 34.3951,-35.6548 31.8142,-21.712"/>
<polygon fill="midnightblue" stroke="midnightblue" points="126.506,-170.17 136.236,-174.363 131.245,-165.018 126.506,-170.17"/>
</g>
<!-- Node2&#45;&gt;Node1 -->
<g id="edge8" class="edge"><title>Node2&#45;&gt;Node1</title>
<path fill="none" stroke="midnightblue" d="M140.923,-166.339C124.656,-146.164 95.3966,-112.515 75,-80 62.7906,-60.5363 52.3951,-35.6548 44.1623,-21.712"/>
<polygon fill="midnightblue" stroke="midnightblue" points="138.293,-168.657 147.22,-174.363 143.8,-164.336 138.293,-168.657"/>
</g>
<!-- Node4 -->
<g id="node8" class="node"><title>Node4</title>
<a xlink:href="../../de/d54/interfacejsd_i_value.html" target="_top" xlink:title="jsdIValue">
<polygon fill="white" stroke="black" points="161.5,-106.5 161.5,-127.5 218.5,-127.5 218.5,-106.5 161.5,-106.5"/>
<text text-anchor="middle" x="190" y="-114.5" font-family="Helvetica,sans-Serif" font-size="10.00">jsdIValue</text>
</a>
</g>
<!-- Node2&#45;&gt;Node4 -->
<g id="edge12" class="edge"><title>Node2&#45;&gt;Node4</title>
<path fill="none" stroke="midnightblue" d="M156.96,-165.006C162.777,-152.829 171.579,-137.748 178.89,-127.775"/>
<polygon fill="midnightblue" stroke="midnightblue" points="153.664,-163.81 152.875,-174.375 160.08,-166.608 153.664,-163.81"/>
</g>
<!-- Node2&#45;&gt;Node4 -->
<g id="edge14" class="edge"><title>Node2&#45;&gt;Node4</title>
<path fill="none" stroke="midnightblue" d="M168.686,-166.093C176.692,-153.739 185.116,-138.048 189.068,-127.775"/>
<polygon fill="midnightblue" stroke="midnightblue" points="165.775,-164.15 163,-174.375 171.545,-168.112 165.775,-164.15"/>
</g>
<!-- Node5 -->
<g id="node12" class="node"><title>Node5</title>
<a xlink:href="../../d8/dce/interfacejsd_i_script.html" target="_top" xlink:title="jsdIScript">
<polygon fill="white" stroke="black" points="117,-0.5 117,-21.5 175,-21.5 175,-0.5 117,-0.5"/>
<text text-anchor="middle" x="146" y="-8.5" font-family="Helvetica,sans-Serif" font-size="10.00">jsdIScript</text>
</a>
</g>
<!-- Node2&#45;&gt;Node5 -->
<g id="edge18" class="edge"><title>Node2&#45;&gt;Node5</title>
<path fill="none" stroke="midnightblue" d="M144.356,-164.166C141.3,-142.981 139.98,-109.209 139,-80 138.309,-59.3988 137.644,-35.3327 140.011,-21.7575"/>
<polygon fill="midnightblue" stroke="midnightblue" points="140.959,-165.05 146.181,-174.269 147.848,-163.806 140.959,-165.05"/>
</g>
<!-- Node2&#45;&gt;Node5 -->
<g id="edge20" class="edge"><title>Node2&#45;&gt;Node5</title>
<path fill="none" stroke="midnightblue" d="M157.945,-164.166C159.3,-142.981 157.98,-109.209 157,-80 156.309,-59.3988 155.644,-35.3327 152.552,-21.7575"/>
<polygon fill="midnightblue" stroke="midnightblue" points="154.447,-163.971 156.937,-174.269 161.412,-164.666 154.447,-163.971"/>
</g>
<!-- Node3 -->
<g id="node4" class="node"><title>Node3</title>
<a xlink:href="../../d4/d6a/classns_i_supports.html" target="_top" xlink:title="nsISupports">
<polygon fill="white" stroke="black" points="320.5,-234.5 320.5,-255.5 389.5,-255.5 389.5,-234.5 320.5,-234.5"/>
<text text-anchor="middle" x="355" y="-242.5" font-family="Helvetica,sans-Serif" font-size="10.00">nsISupports</text>
</a>
</g>
<!-- Node3&#45;&gt;Node2 -->
<g id="edge4" class="edge"><title>Node3&#45;&gt;Node2</title>
<path fill="none" stroke="midnightblue" d="M310.079,-233.341C271.192,-222.369 216.168,-206.086 182.272,-195.507"/>
<polygon fill="midnightblue" stroke="midnightblue" points="309.518,-236.818 320.091,-236.147 311.407,-230.078 309.518,-236.818"/>
</g>
<!-- Node3&#45;&gt;Node2 -->
<g id="edge6" class="edge"><title>Node3&#45;&gt;Node2</title>
<path fill="none" stroke="midnightblue" d="M314.839,-231.429C279.098,-220.426 227.267,-205.159 191.669,-195.183"/>
<polygon fill="midnightblue" stroke="midnightblue" points="313.879,-234.795 324.466,-234.411 315.95,-228.109 313.879,-234.795"/>
</g>
<!-- Node6 -->
<g id="node18" class="node"><title>Node6</title>
<a xlink:href="../../db/d28/interfacejsd_i_object.html" target="_top" xlink:title="jsdIObject">
<polygon fill="white" stroke="black" points="366.5,-0.5 366.5,-21.5 427.5,-21.5 427.5,-0.5 366.5,-0.5"/>
<text text-anchor="middle" x="397" y="-8.5" font-family="Helvetica,sans-Serif" font-size="10.00">jsdIObject</text>
</a>
</g>
<!-- Node3&#45;&gt;Node6 -->
<g id="edge28" class="edge"><title>Node3&#45;&gt;Node6</title>
<path fill="none" stroke="midnightblue" d="M359.039,-224.628C370.08,-194.07 395.608,-134.163 405,-80 408.038,-62.4836 409.658,-57.1567 405,-40 403.226,-33.4667 399.569,-26.8999 396.938,-21.6713"/>
<polygon fill="midnightblue" stroke="midnightblue" points="355.705,-223.56 355.788,-234.155 362.33,-225.821 355.705,-223.56"/>
</g>
<!-- Node3&#45;&gt;Node6 -->
<g id="edge30" class="edge"><title>Node3&#45;&gt;Node6</title>
<path fill="none" stroke="midnightblue" d="M370.256,-225.422C387.633,-195.117 413.525,-134.636 423,-80 426.038,-62.4836 427.658,-57.1567 423,-40 421.226,-33.4667 417.569,-26.8999 413.263,-21.6713"/>
<polygon fill="midnightblue" stroke="midnightblue" points="367.15,-223.792 364.945,-234.155 373.131,-227.429 367.15,-223.792"/>
</g>
<!-- Node4&#45;&gt;Node1 -->
<g id="edge10" class="edge"><title>Node4&#45;&gt;Node1</title>
<path fill="none" stroke="#9a32cd" stroke-dasharray="5,2" d="M159.978,-101.705C148.208,-95.3786 134.736,-87.7234 123,-80 94.4189,-61.1918 63.3238,-35.8542 46.5077,-21.7032"/>
<polygon fill="#9a32cd" stroke="#9a32cd" points="158.512,-104.888 168.988,-106.469 161.784,-98.7001 158.512,-104.888"/>
<text text-anchor="middle" x="135.5" y="-70.5" font-family="Helvetica,sans-Serif" font-size="10.00"> alias</text>
<text text-anchor="middle" x="135.5" y="-57.5" font-family="Helvetica,sans-Serif" font-size="10.00">value</text>
<text text-anchor="middle" x="135.5" y="-44.5" font-family="Helvetica,sans-Serif" font-size="10.00">name</text>
</g>
<!-- Node4&#45;&gt;Node4 -->
<g id="edge24" class="edge"><title>Node4&#45;&gt;Node4</title>
<path fill="none" stroke="#9a32cd" stroke-dasharray="5,2" d="M228.76,-123.038C233.153,-121.907 236,-119.895 236,-117 236,-112.25 228.333,-109.875 218.75,-109.875"/>
<polygon fill="#9a32cd" stroke="#9a32cd" points="228.314,-119.566 218.75,-124.125 229.069,-126.525 228.314,-119.566"/>
<text text-anchor="middle" x="267" y="-127.5" font-family="Helvetica,sans-Serif" font-size="10.00"> jsConstructor</text>
<text text-anchor="middle" x="267" y="-114.5" font-family="Helvetica,sans-Serif" font-size="10.00">jsPrototype</text>
<text text-anchor="middle" x="267" y="-101.5" font-family="Helvetica,sans-Serif" font-size="10.00">jsParent</text>
</g>
<!-- Node4&#45;&gt;Node5 -->
<g id="edge22" class="edge"><title>Node4&#45;&gt;Node5</title>
<path fill="none" stroke="#9a32cd" stroke-dasharray="5,2" d="M174.849,-98.1976C170.879,-92.5908 166.902,-86.2643 164,-80 154.945,-60.4545 149.883,-35.6024 147.57,-21.6869"/>
<polygon fill="#9a32cd" stroke="#9a32cd" points="172.127,-100.403 180.927,-106.304 177.728,-96.2032 172.127,-100.403"/>
<text text-anchor="middle" x="197.5" y="-57.5" font-family="Helvetica,sans-Serif" font-size="10.00"> functionObject</text>
</g>
<!-- Node4&#45;&gt;Node6 -->
<g id="edge32" class="edge"><title>Node4&#45;&gt;Node6</title>
<path fill="none" stroke="#9a32cd" stroke-dasharray="5,2" d="M228.194,-104.415C243.061,-98.4213 259.685,-90.2847 273,-80 291.018,-66.0828 286.219,-52.8683 305,-40 323.374,-27.4105 347.488,-20.0748 366.419,-15.9319"/>
<polygon fill="#9a32cd" stroke="#9a32cd" points="226.814,-101.196 218.731,-108.045 229.322,-107.731 226.814,-101.196"/>
<text text-anchor="middle" x="318.5" y="-57.5" font-family="Helvetica,sans-Serif" font-size="10.00"> value</text>
</g>
<!-- Node5&#45;&gt;Node4 -->
<g id="edge16" class="edge"><title>Node5&#45;&gt;Node4</title>
<path fill="none" stroke="#9a32cd" stroke-dasharray="5,2" d="M185.478,-19.0784C206.324,-24.2306 228.847,-31.5236 235,-40 245.444,-54.3869 242.594,-63.9256 235,-80 229.729,-91.1571 219.262,-100.083 209.749,-106.371"/>
<polygon fill="#9a32cd" stroke="#9a32cd" points="185.993,-15.6043 175.458,-16.7253 184.393,-22.4189 185.993,-15.6043"/>
<text text-anchor="middle" x="255" y="-57.5" font-family="Helvetica,sans-Serif" font-size="10.00"> script</text>
</g>
<!-- Node6&#45;&gt;Node4 -->
<g id="edge26" class="edge"><title>Node6&#45;&gt;Node4</title>
<path fill="none" stroke="#9a32cd" stroke-dasharray="5,2" d="M372.039,-27.7667C367.41,-31.4874 362.832,-35.634 359,-40 345.472,-55.4122 352.343,-67.6125 336,-80 317.714,-93.8603 255.883,-106.106 218.806,-112.437"/>
<polygon fill="#9a32cd" stroke="#9a32cd" points="374.386,-30.3806 380.276,-21.5738 370.18,-24.7854 374.386,-30.3806"/>
<text text-anchor="middle" x="386.5" y="-57.5" font-family="Helvetica,sans-Serif" font-size="10.00"> objectValue</text>
</g>
</g>
</svg>
