<?xml version="1.0" encoding="UTF-8" standalone="no"?>
<!DOCTYPE svg PUBLIC "-//W3C//DTD SVG 1.1//EN"
 "http://www.w3.org/Graphics/SVG/1.1/DTD/svg11.dtd">
<!-- Generated by graphviz version 2.26.3 (20100126.1600)
 -->
<!-- Title: G Pages: 1 -->
<svg width="228pt" height="262pt"
 viewBox="0.00 0.00 228.00 262.00" xmlns="http://www.w3.org/2000/svg" xmlns:xlink="http://www.w3.org/1999/xlink">
<g id="graph1" class="graph" transform="scale(1 1) rotate(0) translate(4 258)">
<title>G</title>
<polygon fill="white" stroke="white" points="-4,5 -4,-258 225,-258 225,5 -4,5"/>
<!-- Node1 -->
<g id="node1" class="node"><title>Node1</title>
<polygon fill="#bfbfbf" stroke="black" points="19,-58.5 19,-79.5 201,-79.5 201,-58.5 19,-58.5"/>
<text text-anchor="middle" x="110" y="-66.5" font-family="Helvetica,sans-Serif" font-size="10.00">mozilla::dom::PageTransitionEventInit</text>
</g>
<!-- Node5 -->
<g id="node9" class="node"><title>Node5</title>
<a xlink:href="../../d4/d23/structmozilla_1_1dom_1_1_page_transition_event_init_initializer.html" target="_top" xlink:title="mozilla::dom::PageTransitionEventInitInitializer">
<polygon fill="white" stroke="black" points="-0.5,-0.5 -0.5,-21.5 220.5,-21.5 220.5,-0.5 -0.5,-0.5"/>
<text text-anchor="middle" x="110" y="-8.5" font-family="Helvetica,sans-Serif" font-size="10.00">mozilla::dom::PageTransitionEventInitInitializer</text>
</a>
</g>
<!-- Node1&#45;&gt;Node5 -->
<g id="edge8" class="edge"><title>Node1&#45;&gt;Node5</title>
<path fill="none" stroke="midnightblue" d="M110,-48.1906C110,-39.1684 110,-28.9941 110,-21.5707"/>
<polygon fill="midnightblue" stroke="midnightblue" points="106.5,-48.3619 110,-58.3619 113.5,-48.3619 106.5,-48.3619"/>
</g>
<!-- Node2 -->
<g id="node2" class="node"><title>Node2</title>
<a xlink:href="../../d8/d68/structmozilla_1_1dom_1_1_event_init.html" target="_top" xlink:title="mozilla::dom::EventInit">
<polygon fill="white" stroke="black" points="51.5,-116.5 51.5,-137.5 168.5,-137.5 168.5,-116.5 51.5,-116.5"/>
<text text-anchor="middle" x="110" y="-124.5" font-family="Helvetica,sans-Serif" font-size="10.00">mozilla::dom::EventInit</text>
</a>
</g>
<!-- Node2&#45;&gt;Node1 -->
<g id="edge2" class="edge"><title>Node2&#45;&gt;Node1</title>
<path fill="none" stroke="midnightblue" d="M110,-106.191C110,-97.1684 110,-86.9941 110,-79.5707"/>
<polygon fill="midnightblue" stroke="midnightblue" points="106.5,-106.362 110,-116.362 113.5,-106.362 106.5,-106.362"/>
</g>
<!-- Node3 -->
<g id="node4" class="node"><title>Node3</title>
<a xlink:href="../../d5/d9f/structmozilla_1_1dom_1_1_main_thread_dictionary_base.html" target="_top" xlink:title="mozilla::dom::MainThreadDictionaryBase">
<polygon fill="white" stroke="black" points="12,-174.5 12,-195.5 208,-195.5 208,-174.5 12,-174.5"/>
<text text-anchor="middle" x="110" y="-182.5" font-family="Helvetica,sans-Serif" font-size="10.00">mozilla::dom::MainThreadDictionaryBase</text>
</a>
</g>
<!-- Node3&#45;&gt;Node2 -->
<g id="edge4" class="edge"><title>Node3&#45;&gt;Node2</title>
<path fill="none" stroke="midnightblue" d="M110,-164.191C110,-155.168 110,-144.994 110,-137.571"/>
<polygon fill="midnightblue" stroke="midnightblue" points="106.5,-164.362 110,-174.362 113.5,-164.362 106.5,-164.362"/>
</g>
<!-- Node4 -->
<g id="node6" class="node"><title>Node4</title>
<a xlink:href="../../d6/d60/structmozilla_1_1dom_1_1_dictionary_base.html" target="_top" xlink:title="mozilla::dom::DictionaryBase">
<polygon fill="white" stroke="black" points="37.5,-232.5 37.5,-253.5 182.5,-253.5 182.5,-232.5 37.5,-232.5"/>
<text text-anchor="middle" x="110" y="-240.5" font-family="Helvetica,sans-Serif" font-size="10.00">mozilla::dom::DictionaryBase</text>
</a>
</g>
<!-- Node4&#45;&gt;Node3 -->
<g id="edge6" class="edge"><title>Node4&#45;&gt;Node3</title>
<path fill="none" stroke="midnightblue" d="M110,-222.191C110,-213.168 110,-202.994 110,-195.571"/>
<polygon fill="midnightblue" stroke="midnightblue" points="106.5,-222.362 110,-232.362 113.5,-222.362 106.5,-222.362"/>
</g>
</g>
</svg>
