<?xml version="1.0" encoding="UTF-8" standalone="no"?>
<!DOCTYPE svg PUBLIC "-//W3C//DTD SVG 1.1//EN"
 "http://www.w3.org/Graphics/SVG/1.1/DTD/svg11.dtd">
<!-- Generated by graphviz version 2.26.3 (20100126.1600)
 -->
<!-- Title: G Pages: 1 -->
<svg width="266pt" height="88pt"
 viewBox="0.00 0.00 266.00 88.00" xmlns="http://www.w3.org/2000/svg" xmlns:xlink="http://www.w3.org/1999/xlink">
<g id="graph1" class="graph" transform="scale(1 1) rotate(0) translate(4 84)">
<title>G</title>
<polygon fill="white" stroke="white" points="-4,5 -4,-84 263,-84 263,5 -4,5"/>
<!-- Node1 -->
<g id="node1" class="node"><title>Node1</title>
<polygon fill="#bfbfbf" stroke="black" points="93.5,-58.5 93.5,-79.5 152.5,-79.5 152.5,-58.5 93.5,-58.5"/>
<text text-anchor="middle" x="123" y="-66.5" font-family="Helvetica,sans-Serif" font-size="10.00">process.h</text>
</g>
<!-- Node2 -->
<g id="node3" class="node"><title>Node2</title>
<a xlink:href="../../d0/d91/b2g-info_8cpp.html" target="_top" xlink:title="b2g&#45;info.cpp">
<polygon fill="white" stroke="black" points="0,-0.5 0,-21.5 70,-21.5 70,-0.5 0,-0.5"/>
<text text-anchor="middle" x="35" y="-8.5" font-family="Helvetica,sans-Serif" font-size="10.00">b2g&#45;info.cpp</text>
</a>
</g>
<!-- Node1&#45;&gt;Node2 -->
<g id="edge2" class="edge"><title>Node1&#45;&gt;Node2</title>
<path fill="none" stroke="midnightblue" d="M98.4533,-52.8215C83.2957,-42.8312 64.2816,-30.2993 51.0382,-21.5707"/>
<polygon fill="midnightblue" stroke="midnightblue" points="96.5837,-55.7811 106.859,-58.3619 100.436,-49.9364 96.5837,-55.7811"/>
</g>
<!-- Node3 -->
<g id="node5" class="node"><title>Node3</title>
<a xlink:href="../../d0/d4c/process_8cpp.html" target="_top" xlink:title="process.cpp">
<polygon fill="white" stroke="black" points="88,-0.5 88,-21.5 158,-21.5 158,-0.5 88,-0.5"/>
<text text-anchor="middle" x="123" y="-8.5" font-family="Helvetica,sans-Serif" font-size="10.00">process.cpp</text>
</a>
</g>
<!-- Node1&#45;&gt;Node3 -->
<g id="edge4" class="edge"><title>Node1&#45;&gt;Node3</title>
<path fill="none" stroke="midnightblue" d="M123,-48.1906C123,-39.1684 123,-28.9941 123,-21.5707"/>
<polygon fill="midnightblue" stroke="midnightblue" points="119.5,-48.3619 123,-58.3619 126.5,-48.3619 119.5,-48.3619"/>
</g>
<!-- Node4 -->
<g id="node7" class="node"><title>Node4</title>
<a xlink:href="../../d1/d7b/processlist_8cpp.html" target="_top" xlink:title="processlist.cpp">
<polygon fill="white" stroke="black" points="175.5,-0.5 175.5,-21.5 258.5,-21.5 258.5,-0.5 175.5,-0.5"/>
<text text-anchor="middle" x="217" y="-8.5" font-family="Helvetica,sans-Serif" font-size="10.00">processlist.cpp</text>
</a>
</g>
<!-- Node1&#45;&gt;Node4 -->
<g id="edge6" class="edge"><title>Node1&#45;&gt;Node4</title>
<path fill="none" stroke="midnightblue" d="M148.767,-53.1009C165.031,-43.0658 185.59,-30.3808 199.868,-21.5707"/>
<polygon fill="midnightblue" stroke="midnightblue" points="146.914,-50.1322 140.241,-58.3619 150.589,-56.0894 146.914,-50.1322"/>
</g>
</g>
</svg>
