<?xml version="1.0" encoding="UTF-8" standalone="no"?>
<!DOCTYPE svg PUBLIC "-//W3C//DTD SVG 1.1//EN"
 "http://www.w3.org/Graphics/SVG/1.1/DTD/svg11.dtd">
<!-- Generated by graphviz version 2.26.3 (20100126.1600)
 -->
<!-- Title: G Pages: 1 -->
<svg width="402pt" height="30pt"
 viewBox="0.00 0.00 402.00 30.00" xmlns="http://www.w3.org/2000/svg" xmlns:xlink="http://www.w3.org/1999/xlink">
<g id="graph1" class="graph" transform="scale(1 1) rotate(0) translate(4 26)">
<title>G</title>
<polygon fill="white" stroke="white" points="-4,5 -4,-26 399,-26 399,5 -4,5"/>
<!-- Node1 -->
<g id="node1" class="node"><title>Node1</title>
<polygon fill="#bfbfbf" stroke="black" points="0,-0.5 0,-21.5 104,-21.5 104,-0.5 0,-0.5"/>
<text text-anchor="middle" x="52" y="-8.5" font-family="Helvetica,sans-Serif" font-size="10.00">SkWriter32::reserve</text>
</g>
<!-- Node2 -->
<g id="node3" class="node"><title>Node2</title>
<a xlink:href="../../d0/d4e/class_sk_writer32.html#a075ba9fdbee4882edf309374f53decc6" target="_top" xlink:title="SkWriter32::size">
<polygon fill="white" stroke="black" points="140.5,-0.5 140.5,-21.5 229.5,-21.5 229.5,-0.5 140.5,-0.5"/>
<text text-anchor="middle" x="185" y="-8.5" font-family="Helvetica,sans-Serif" font-size="10.00">SkWriter32::size</text>
</a>
</g>
<!-- Node1&#45;&gt;Node2 -->
<g id="edge2" class="edge"><title>Node1&#45;&gt;Node2</title>
<path fill="none" stroke="midnightblue" d="M104.183,-11C112.668,-11 121.48,-11 130.029,-11"/>
<polygon fill="midnightblue" stroke="midnightblue" points="130.288,-14.5001 140.288,-11 130.288,-7.5001 130.288,-14.5001"/>
</g>
<!-- Node3 -->
<g id="node5" class="node"><title>Node3</title>
<a xlink:href="../../d0/d4e/class_sk_writer32.html#a36123e285c9ea1a8f474c098bc41fa26" target="_top" xlink:title="SkWriter32::bytesWritten">
<polygon fill="white" stroke="black" points="266.5,-0.5 266.5,-21.5 393.5,-21.5 393.5,-0.5 266.5,-0.5"/>
<text text-anchor="middle" x="330" y="-8.5" font-family="Helvetica,sans-Serif" font-size="10.00">SkWriter32::bytesWritten</text>
</a>
</g>
<!-- Node2&#45;&gt;Node3 -->
<g id="edge4" class="edge"><title>Node2&#45;&gt;Node3</title>
<path fill="none" stroke="midnightblue" d="M229.688,-11C238.092,-11 247.083,-11 256.103,-11"/>
<polygon fill="midnightblue" stroke="midnightblue" points="256.27,-14.5001 266.27,-11 256.27,-7.5001 256.27,-14.5001"/>
</g>
</g>
</svg>
