<?xml version="1.0" encoding="UTF-8" standalone="no"?>
<!DOCTYPE svg PUBLIC "-//W3C//DTD SVG 1.1//EN"
 "http://www.w3.org/Graphics/SVG/1.1/DTD/svg11.dtd">
<!-- Generated by graphviz version 2.26.3 (20100126.1600)
 -->
<!-- Title: G Pages: 1 -->
<svg width="372pt" height="204pt"
 viewBox="0.00 0.00 372.00 204.00" xmlns="http://www.w3.org/2000/svg" xmlns:xlink="http://www.w3.org/1999/xlink">
<g id="graph1" class="graph" transform="scale(1 1) rotate(0) translate(4 200)">
<title>G</title>
<polygon fill="white" stroke="white" points="-4,5 -4,-200 369,-200 369,5 -4,5"/>
<!-- Node1 -->
<g id="node1" class="node"><title>Node1</title>
<polygon fill="#bfbfbf" stroke="black" points="70.5,-0.5 70.5,-21.5 289.5,-21.5 289.5,-0.5 70.5,-0.5"/>
<text text-anchor="middle" x="180" y="-8.5" font-family="Helvetica,sans-Serif" font-size="10.00">mozilla::ChannelMediaResource::MOZ_FINAL</text>
</g>
<!-- Node2 -->
<g id="node2" class="node"><title>Node2</title>
<a xlink:href="../../d5/d6e/interfacens_i_stream_listener.html" target="_top" xlink:title="nsIStreamListener">
<polygon fill="white" stroke="black" points="5,-58.5 5,-79.5 101,-79.5 101,-58.5 5,-58.5"/>
<text text-anchor="middle" x="53" y="-66.5" font-family="Helvetica,sans-Serif" font-size="10.00">nsIStreamListener</text>
</a>
</g>
<!-- Node2&#45;&gt;Node1 -->
<g id="edge2" class="edge"><title>Node2&#45;&gt;Node1</title>
<path fill="none" stroke="midnightblue" d="M85.3929,-54.2064C107.673,-44.031 136.74,-30.7567 156.743,-21.6212"/>
<polygon fill="midnightblue" stroke="midnightblue" points="83.641,-51.1587 75.9987,-58.4966 86.549,-57.5261 83.641,-51.1587"/>
</g>
<!-- Node3 -->
<g id="node4" class="node"><title>Node3</title>
<a xlink:href="../../d1/dc4/interfacens_i_request_observer.html" target="_top" xlink:title="nsIRequestObserver">
<polygon fill="white" stroke="black" points="-0.5,-116.5 -0.5,-137.5 106.5,-137.5 106.5,-116.5 -0.5,-116.5"/>
<text text-anchor="middle" x="53" y="-124.5" font-family="Helvetica,sans-Serif" font-size="10.00">nsIRequestObserver</text>
</a>
</g>
<!-- Node3&#45;&gt;Node2 -->
<g id="edge4" class="edge"><title>Node3&#45;&gt;Node2</title>
<path fill="none" stroke="midnightblue" d="M46.4952,-106.191C45.9414,-97.1684 46.3257,-86.9941 47.6479,-79.5707"/>
<polygon fill="midnightblue" stroke="midnightblue" points="43.0431,-106.814 47.6359,-116.362 49.9995,-106.034 43.0431,-106.814"/>
</g>
<!-- Node3&#45;&gt;Node2 -->
<g id="edge10" class="edge"><title>Node3&#45;&gt;Node2</title>
<path fill="none" stroke="midnightblue" d="M59.5048,-106.191C60.0586,-97.1684 59.6743,-86.9941 58.3521,-79.5707"/>
<polygon fill="midnightblue" stroke="midnightblue" points="56.0005,-106.034 58.3641,-116.362 62.9569,-106.814 56.0005,-106.034"/>
</g>
<!-- Node4 -->
<g id="node6" class="node"><title>Node4</title>
<a xlink:href="../../d4/d6a/classns_i_supports.html" target="_top" xlink:title="nsISupports">
<polygon fill="white" stroke="black" points="145.5,-174.5 145.5,-195.5 214.5,-195.5 214.5,-174.5 145.5,-174.5"/>
<text text-anchor="middle" x="180" y="-182.5" font-family="Helvetica,sans-Serif" font-size="10.00">nsISupports</text>
</a>
</g>
<!-- Node4&#45;&gt;Node3 -->
<g id="edge6" class="edge"><title>Node4&#45;&gt;Node3</title>
<path fill="none" stroke="midnightblue" d="M142.267,-170.479C118.661,-160.269 89.4449,-146.839 70.8957,-137.621"/>
<polygon fill="midnightblue" stroke="midnightblue" points="141.09,-173.783 151.661,-174.497 143.843,-167.347 141.09,-173.783"/>
</g>
<!-- Node4&#45;&gt;Node3 -->
<g id="edge8" class="edge"><title>Node4&#45;&gt;Node3</title>
<path fill="none" stroke="midnightblue" d="M153.294,-170.069C132.248,-159.912 103.144,-146.716 81.6179,-137.621"/>
<polygon fill="midnightblue" stroke="midnightblue" points="151.821,-173.245 162.341,-174.497 154.898,-166.957 151.821,-173.245"/>
</g>
<!-- Node5 -->
<g id="node10" class="node"><title>Node5</title>
<a xlink:href="../../df/de7/interfacens_i_interface_requestor.html" target="_top" xlink:title="nsIInterfaceRequestor">
<polygon fill="white" stroke="black" points="123.5,-116.5 123.5,-137.5 236.5,-137.5 236.5,-116.5 123.5,-116.5"/>
<text text-anchor="middle" x="180" y="-124.5" font-family="Helvetica,sans-Serif" font-size="10.00">nsIInterfaceRequestor</text>
</a>
</g>
<!-- Node4&#45;&gt;Node5 -->
<g id="edge14" class="edge"><title>Node4&#45;&gt;Node5</title>
<path fill="none" stroke="midnightblue" d="M173.495,-164.191C172.941,-155.168 173.326,-144.994 174.648,-137.571"/>
<polygon fill="midnightblue" stroke="midnightblue" points="170.043,-164.814 174.636,-174.362 177,-164.034 170.043,-164.814"/>
</g>
<!-- Node4&#45;&gt;Node5 -->
<g id="edge16" class="edge"><title>Node4&#45;&gt;Node5</title>
<path fill="none" stroke="midnightblue" d="M186.505,-164.191C187.059,-155.168 186.674,-144.994 185.352,-137.571"/>
<polygon fill="midnightblue" stroke="midnightblue" points="183,-164.034 185.364,-174.362 189.957,-164.814 183,-164.034"/>
</g>
<!-- Node6 -->
<g id="node14" class="node"><title>Node6</title>
<a xlink:href="../../d5/d15/interfacens_i_channel_event_sink.html" target="_top" xlink:title="nsIChannelEventSink">
<polygon fill="white" stroke="black" points="253.5,-116.5 253.5,-137.5 364.5,-137.5 364.5,-116.5 253.5,-116.5"/>
<text text-anchor="middle" x="309" y="-124.5" font-family="Helvetica,sans-Serif" font-size="10.00">nsIChannelEventSink</text>
</a>
</g>
<!-- Node4&#45;&gt;Node6 -->
<g id="edge22" class="edge"><title>Node4&#45;&gt;Node6</title>
<path fill="none" stroke="midnightblue" d="M207.22,-170.069C228.617,-159.912 258.176,-146.716 280.016,-137.621"/>
<polygon fill="midnightblue" stroke="midnightblue" points="205.514,-167.006 198.021,-174.497 208.549,-173.314 205.514,-167.006"/>
</g>
<!-- Node4&#45;&gt;Node6 -->
<g id="edge20" class="edge"><title>Node4&#45;&gt;Node6</title>
<path fill="none" stroke="midnightblue" d="M218.234,-170.479C242.191,-160.269 271.871,-146.839 290.738,-137.621"/>
<polygon fill="midnightblue" stroke="midnightblue" points="216.557,-167.388 208.701,-174.497 219.275,-173.839 216.557,-167.388"/>
</g>
<!-- Node5&#45;&gt;Node1 -->
<g id="edge12" class="edge"><title>Node5&#45;&gt;Node1</title>
<path fill="none" stroke="midnightblue" d="M180,-106.123C180,-81.2984 180,-40.8235 180,-21.6792"/>
<polygon fill="midnightblue" stroke="midnightblue" points="176.5,-106.295 180,-116.295 183.5,-106.295 176.5,-106.295"/>
</g>
<!-- Node6&#45;&gt;Node1 -->
<g id="edge18" class="edge"><title>Node6&#45;&gt;Node1</title>
<path fill="none" stroke="midnightblue" d="M289.404,-109.379C262.28,-84.9881 214.125,-41.6859 191.876,-21.6792"/>
<polygon fill="midnightblue" stroke="midnightblue" points="287.319,-112.211 297.095,-116.295 292,-107.006 287.319,-112.211"/>
</g>
</g>
</svg>
