<?xml version="1.0" encoding="UTF-8" standalone="no"?>
<!DOCTYPE svg PUBLIC "-//W3C//DTD SVG 1.1//EN"
 "http://www.w3.org/Graphics/SVG/1.1/DTD/svg11.dtd">
<!-- Generated by graphviz version 2.26.3 (20100126.1600)
 -->
<!-- Title: G Pages: 1 -->
<svg width="386pt" height="230pt"
 viewBox="0.00 0.00 386.00 230.00" xmlns="http://www.w3.org/2000/svg" xmlns:xlink="http://www.w3.org/1999/xlink">
<g id="graph1" class="graph" transform="scale(1 1) rotate(0) translate(4 226)">
<title>G</title>
<polygon fill="white" stroke="white" points="-4,5 -4,-226 383,-226 383,5 -4,5"/>
<!-- Node1 -->
<g id="node1" class="node"><title>Node1</title>
<polygon fill="#bfbfbf" stroke="black" points="0,-100.5 0,-121.5 114,-121.5 114,-100.5 0,-100.5"/>
<text text-anchor="middle" x="57" y="-108.5" font-family="Helvetica,sans-Serif" font-size="10.00">GrContextFactory::get</text>
</g>
<!-- Node2 -->
<g id="node3" class="node"><title>Node2</title>
<a xlink:href="../../d8/df9/class_sk_t_array.html#a533fbe276a11c38ff3fa7d2b15c9b1c9" target="_top" xlink:title="SkTArray::count">
<polygon fill="white" stroke="black" points="162,-200.5 162,-221.5 250,-221.5 250,-200.5 162,-200.5"/>
<text text-anchor="middle" x="206" y="-208.5" font-family="Helvetica,sans-Serif" font-size="10.00">SkTArray::count</text>
</a>
</g>
<!-- Node1&#45;&gt;Node2 -->
<g id="edge2" class="edge"><title>Node1&#45;&gt;Node2</title>
<path fill="none" stroke="midnightblue" d="M66.8923,-121.75C82.9006,-138.591 116.124,-171.301 150,-191 153.416,-192.987 157.063,-194.826 160.795,-196.519"/>
<polygon fill="midnightblue" stroke="midnightblue" points="159.588,-199.807 170.165,-200.421 162.279,-193.345 159.588,-199.807"/>
</g>
<!-- Node3 -->
<g id="node5" class="node"><title>Node3</title>
<a xlink:href="../../da/d02/class_gr_context.html#a154b9cfb120defc97d4fc79e92cc8334" target="_top" xlink:title="GrContext::Create">
<polygon fill="white" stroke="black" points="157.5,-160.5 157.5,-181.5 254.5,-181.5 254.5,-160.5 157.5,-160.5"/>
<text text-anchor="middle" x="206" y="-168.5" font-family="Helvetica,sans-Serif" font-size="10.00">GrContext::Create</text>
</a>
</g>
<!-- Node1&#45;&gt;Node3 -->
<g id="edge4" class="edge"><title>Node1&#45;&gt;Node3</title>
<path fill="none" stroke="midnightblue" d="M80.5283,-121.608C99.2282,-129.921 126.119,-141.611 150,-151 155.104,-153.007 160.501,-155.042 165.85,-157.007"/>
<polygon fill="midnightblue" stroke="midnightblue" points="164.759,-160.334 175.353,-160.448 167.142,-153.753 164.759,-160.334"/>
</g>
<!-- Node4 -->
<g id="node7" class="node"><title>Node4</title>
<a xlink:href="../../da/d24/class_sk_auto_t_unref.html#aa467289d5e5371817080d676a13522de" target="_top" xlink:title="SkAutoTUnref::get">
<polygon fill="white" stroke="black" points="157,-120.5 157,-141.5 255,-141.5 255,-120.5 157,-120.5"/>
<text text-anchor="middle" x="206" y="-128.5" font-family="Helvetica,sans-Serif" font-size="10.00">SkAutoTUnref::get</text>
</a>
</g>
<!-- Node1&#45;&gt;Node4 -->
<g id="edge6" class="edge"><title>Node1&#45;&gt;Node4</title>
<path fill="none" stroke="midnightblue" d="M114.181,-118.675C124.878,-120.111 136.08,-121.615 146.835,-123.058"/>
<polygon fill="midnightblue" stroke="midnightblue" points="146.603,-126.559 156.98,-124.42 147.534,-119.621 146.603,-126.559"/>
</g>
<!-- Node5 -->
<g id="node9" class="node"><title>Node5</title>
<a xlink:href="../../d8/df9/class_sk_t_array.html#a29b58a93d7c8d48f01fb5a9d5b6c6089" target="_top" xlink:title="SkTArray::push_back">
<polygon fill="white" stroke="black" points="150.5,-80.5 150.5,-101.5 261.5,-101.5 261.5,-80.5 150.5,-80.5"/>
<text text-anchor="middle" x="206" y="-88.5" font-family="Helvetica,sans-Serif" font-size="10.00">SkTArray::push_back</text>
</a>
</g>
<!-- Node1&#45;&gt;Node5 -->
<g id="edge8" class="edge"><title>Node1&#45;&gt;Node5</title>
<path fill="none" stroke="midnightblue" d="M114.181,-103.325C122.675,-102.185 131.487,-101.002 140.142,-99.8401"/>
<polygon fill="midnightblue" stroke="midnightblue" points="140.755,-103.289 150.2,-98.4899 139.823,-96.3515 140.755,-103.289"/>
</g>
<!-- Node6 -->
<g id="node11" class="node"><title>Node6</title>
<a xlink:href="../../da/dec/class_sk_ref_cnt.html#ad20a3a041c22c00ab926956aa5bbd8e1" target="_top" xlink:title="SkRefCnt::ref">
<polygon fill="white" stroke="black" points="167.5,-40.5 167.5,-61.5 244.5,-61.5 244.5,-40.5 167.5,-40.5"/>
<text text-anchor="middle" x="206" y="-48.5" font-family="Helvetica,sans-Serif" font-size="10.00">SkRefCnt::ref</text>
</a>
</g>
<!-- Node1&#45;&gt;Node6 -->
<g id="edge10" class="edge"><title>Node1&#45;&gt;Node6</title>
<path fill="none" stroke="midnightblue" d="M80.5283,-100.392C99.2282,-92.0793 126.119,-80.3895 150,-71 155.104,-68.9932 160.501,-66.958 165.85,-64.9927"/>
<polygon fill="midnightblue" stroke="midnightblue" points="167.142,-68.2474 175.353,-61.5516 164.759,-61.6657 167.142,-68.2474"/>
</g>
<!-- Node8 -->
<g id="node15" class="node"><title>Node8</title>
<a xlink:href="../../da/d24/class_sk_auto_t_unref.html#a361f8807463769789043b3c0ef7bce43" target="_top" xlink:title="SkAutoTUnref::reset">
<polygon fill="white" stroke="black" points="152.5,-0.5 152.5,-21.5 259.5,-21.5 259.5,-0.5 152.5,-0.5"/>
<text text-anchor="middle" x="206" y="-8.5" font-family="Helvetica,sans-Serif" font-size="10.00">SkAutoTUnref::reset</text>
</a>
</g>
<!-- Node1&#45;&gt;Node8 -->
<g id="edge14" class="edge"><title>Node1&#45;&gt;Node8</title>
<path fill="none" stroke="midnightblue" d="M66.8923,-100.25C82.9006,-83.409 116.124,-50.6993 150,-31 153.416,-29.0134 157.063,-27.1736 160.795,-25.4813"/>
<polygon fill="midnightblue" stroke="midnightblue" points="162.279,-28.6547 170.165,-21.5786 159.588,-22.1929 162.279,-28.6547"/>
</g>
<!-- Node7 -->
<g id="node13" class="node"><title>Node7</title>
<a xlink:href="../../d9/d82/_sk_thread__platform_8h.html#a719144fc1c3dcde6ac3f9c3012bd98fd" target="_top" xlink:title="sk_atomic_inc">
<polygon fill="white" stroke="black" points="298,-40.5 298,-61.5 378,-61.5 378,-40.5 298,-40.5"/>
<text text-anchor="middle" x="338" y="-48.5" font-family="Helvetica,sans-Serif" font-size="10.00">sk_atomic_inc</text>
</a>
</g>
<!-- Node6&#45;&gt;Node7 -->
<g id="edge12" class="edge"><title>Node6&#45;&gt;Node7</title>
<path fill="none" stroke="midnightblue" d="M244.535,-51C258.006,-51 273.336,-51 287.628,-51"/>
<polygon fill="midnightblue" stroke="midnightblue" points="287.81,-54.5001 297.81,-51 287.81,-47.5001 287.81,-54.5001"/>
</g>
</g>
</svg>
