<?xml version="1.0" encoding="UTF-8" standalone="no"?>
<!DOCTYPE svg PUBLIC "-//W3C//DTD SVG 1.1//EN"
 "http://www.w3.org/Graphics/SVG/1.1/DTD/svg11.dtd">
<!-- Generated by graphviz version 2.26.3 (20100126.1600)
 -->
<!-- Title: G Pages: 1 -->
<svg width="280pt" height="110pt"
 viewBox="0.00 0.00 280.00 110.00" xmlns="http://www.w3.org/2000/svg" xmlns:xlink="http://www.w3.org/1999/xlink">
<g id="graph1" class="graph" transform="scale(1 1) rotate(0) translate(4 106)">
<title>G</title>
<polygon fill="white" stroke="white" points="-4,5 -4,-106 277,-106 277,5 -4,5"/>
<!-- Node1 -->
<g id="node1" class="node"><title>Node1</title>
<polygon fill="#bfbfbf" stroke="black" points="0.5,-40.5 0.5,-61.5 91.5,-61.5 91.5,-40.5 0.5,-40.5"/>
<text text-anchor="middle" x="46" y="-48.5" font-family="Helvetica,sans-Serif" font-size="10.00">Process::threads</text>
</g>
<!-- Node2 -->
<g id="node3" class="node"><title>Node2</title>
<a xlink:href="../../d1/d41/class_process.html#a4be0403d5862318cde4444476eac0c7b" target="_top" xlink:title="Process::pid">
<polygon fill="white" stroke="black" points="128.5,-80.5 128.5,-101.5 199.5,-101.5 199.5,-80.5 128.5,-80.5"/>
<text text-anchor="middle" x="164" y="-88.5" font-family="Helvetica,sans-Serif" font-size="10.00">Process::pid</text>
</a>
</g>
<!-- Node1&#45;&gt;Node2 -->
<g id="edge2" class="edge"><title>Node1&#45;&gt;Node2</title>
<path fill="none" stroke="midnightblue" d="M77.0031,-61.5095C91.1187,-66.2945 108.018,-72.0229 123.151,-77.1529"/>
<polygon fill="midnightblue" stroke="midnightblue" points="122.2,-80.5261 132.794,-80.4218 124.447,-73.8966 122.2,-80.5261"/>
</g>
<!-- Node3 -->
<g id="node5" class="node"><title>Node3</title>
<a xlink:href="../../de/d06/utils_8cpp.html#a0fc6456d6824ff6e7fa42624077e0d84" target="_top" xlink:title="safe_opendir">
<polygon fill="white" stroke="black" points="128,-40.5 128,-61.5 200,-61.5 200,-40.5 128,-40.5"/>
<text text-anchor="middle" x="164" y="-48.5" font-family="Helvetica,sans-Serif" font-size="10.00">safe_opendir</text>
</a>
</g>
<!-- Node1&#45;&gt;Node3 -->
<g id="edge4" class="edge"><title>Node1&#45;&gt;Node3</title>
<path fill="none" stroke="midnightblue" d="M91.6219,-51C100.106,-51 108.979,-51 117.489,-51"/>
<polygon fill="midnightblue" stroke="midnightblue" points="117.638,-54.5001 127.638,-51 117.638,-47.5001 117.638,-54.5001"/>
</g>
<!-- Node4 -->
<g id="node7" class="node"><title>Node4</title>
<a xlink:href="../../de/d06/utils_8cpp.html#a5394673b22982035151b16fbf475e422" target="_top" xlink:title="str_to_int">
<polygon fill="white" stroke="black" points="135.5,-0.5 135.5,-21.5 192.5,-21.5 192.5,-0.5 135.5,-0.5"/>
<text text-anchor="middle" x="164" y="-8.5" font-family="Helvetica,sans-Serif" font-size="10.00">str_to_int</text>
</a>
</g>
<!-- Node1&#45;&gt;Node4 -->
<g id="edge6" class="edge"><title>Node1&#45;&gt;Node4</title>
<path fill="none" stroke="midnightblue" d="M77.0031,-40.4905C91.9317,-35.4299 109.973,-29.3141 125.748,-23.9669"/>
<polygon fill="midnightblue" stroke="midnightblue" points="126.881,-27.2783 135.228,-20.7531 124.634,-20.6489 126.881,-27.2783"/>
</g>
<!-- Node5 -->
<g id="node9" class="node"><title>Node5</title>
<a xlink:href="../../de/d06/utils_8cpp.html#a8421efed5119fd1615e48373572c0061" target="_top" xlink:title="strip">
<polygon fill="white" stroke="black" points="236.5,-0.5 236.5,-21.5 271.5,-21.5 271.5,-0.5 236.5,-0.5"/>
<text text-anchor="middle" x="254" y="-8.5" font-family="Helvetica,sans-Serif" font-size="10.00">strip</text>
</a>
</g>
<!-- Node4&#45;&gt;Node5 -->
<g id="edge8" class="edge"><title>Node4&#45;&gt;Node5</title>
<path fill="none" stroke="midnightblue" d="M192.972,-11C203.574,-11 215.542,-11 226.053,-11"/>
<polygon fill="midnightblue" stroke="midnightblue" points="226.362,-14.5001 236.361,-11 226.361,-7.5001 226.362,-14.5001"/>
</g>
</g>
</svg>
