<?xml version="1.0" encoding="UTF-8" standalone="no"?>
<!DOCTYPE svg PUBLIC "-//W3C//DTD SVG 1.1//EN"
 "http://www.w3.org/Graphics/SVG/1.1/DTD/svg11.dtd">
<!-- Generated by graphviz version 2.26.3 (20100126.1600)
 -->
<!-- Title: G Pages: 1 -->
<!--zoomable 187 -->
<svg id="main" version="1.1" xmlns="http://www.w3.org/2000/svg" xmlns:xlink="http://www.w3.org/1999/xlink" xml:space="preserve" onload="init(evt)">
        <defs>
                <circle id="rim" cx="0" cy="0" r="7"/>
                <circle id="rim2" cx="0" cy="0" r="3.5"/>
                <g id="zoomPlus">
                        <use xlink:href="#rim" fill="#404040">
                                <set attributeName="fill" to="#808080" begin="zoomplus.mouseover" end="zoomplus.mouseout"/>
                        </use>
                        <path d="M-4,0h8M0,-4v8" fill="none" stroke="white" stroke-width="1.5" pointer-events="none"/>
                </g>
                <g id="zoomMin">
                        <use xlink:href="#rim" fill="#404040">
                                <set attributeName="fill" to="#808080" begin="zoomminus.mouseover" end="zoomminus.mouseout"/>
                        </use>
                        <path d="M-4,0h8" fill="none" stroke="white" stroke-width="1.5" pointer-events="none"/>
                </g>
                <g id="dirArrow">
                        <path fill="none" stroke="white" stroke-width="1.5" d="M0,-3.0v7 M-2.5,-0.5L0,-3.0L2.5,-0.5"/>
                </g>
               <g id="resetDef">
                       <use xlink:href="#rim2" fill="#404040">
                               <set attributeName="fill" to="#808080" begin="reset.mouseover" end="reset.mouseout"/>
                       </use>
               </g>
        </defs>

<script type="text/javascript">
var viewWidth = 768;
var viewHeight = 187;
var sectionId = 'dynsection-4';
</script>
<script xlink:href="../../svgpan.js"/>
<svg id="graph" class="graph">
<g id="viewport">
<title>G</title>
<polygon fill="white" stroke="white" points="-4,5 -4,-183 765,-183 765,5 -4,5"/>
<!-- Node1 -->
<g id="node1" class="node"><title>Node1</title>
<polygon fill="#bfbfbf" stroke="black" points="0.5,-78.5 0.5,-99.5 71.5,-99.5 71.5,-78.5 0.5,-78.5"/>
<text text-anchor="middle" x="36" y="-86.5" font-family="Helvetica,sans-Serif" font-size="10.00">Process::pid</text>
</g>
<!-- Node2 -->
<g id="node3" class="node"><title>Node2</title>
<a xlink:href="../../d1/d41/class_process.html#a5180020a3ae4cdb44bb465b1291f8643" target="_top" xlink:title="Process::exe">
<polygon fill="white" stroke="black" points="139,-157.5 139,-178.5 213,-178.5 213,-157.5 139,-157.5"/>
<text text-anchor="middle" x="176" y="-165.5" font-family="Helvetica,sans-Serif" font-size="10.00">Process::exe</text>
</a>
</g>
<!-- Node1&#45;&gt;Node2 -->
<g id="edge2" class="edge"><title>Node1&#45;&gt;Node2</title>
<path fill="none" stroke="midnightblue" d="M53.5339,-106.812C67.278,-119.869 87.4573,-137.141 108,-148 117.574,-153.061 128.601,-157.005 138.95,-160.003"/>
<polygon fill="midnightblue" stroke="midnightblue" points="55.8347,-104.167 46.2312,-99.6924 50.9481,-109.179 55.8347,-104.167"/>
</g>
<!-- Node3 -->
<g id="node5" class="node"><title>Node3</title>
<a xlink:href="../../de/daf/class_process_list.html#afe0878d6ad8b143b0f374d2e84297554" target="_top" xlink:title="ProcessList::main_process">
<polygon fill="white" stroke="black" points="108.5,-117.5 108.5,-138.5 243.5,-138.5 243.5,-117.5 108.5,-117.5"/>
<text text-anchor="middle" x="176" y="-125.5" font-family="Helvetica,sans-Serif" font-size="10.00">ProcessList::main_process</text>
</a>
</g>
<!-- Node1&#45;&gt;Node3 -->
<g id="edge4" class="edge"><title>Node1&#45;&gt;Node3</title>
<path fill="none" stroke="midnightblue" d="M81.5193,-101.68C99.7484,-106.758 120.512,-112.543 137.922,-117.393"/>
<polygon fill="midnightblue" stroke="midnightblue" points="82.2626,-98.2542 71.6902,-98.9423 80.3841,-104.997 82.2626,-98.2542"/>
</g>
<!-- Node6 -->
<g id="node11" class="node"><title>Node6</title>
<a xlink:href="../../d0/d91/b2g-info_8cpp.html#a72987403ed81c976534491e6e4cb7533" target="_top" xlink:title="print_b2g_info">
<polygon fill="white" stroke="black" points="608.5,-78.5 608.5,-99.5 685.5,-99.5 685.5,-78.5 608.5,-78.5"/>
<text text-anchor="middle" x="647" y="-86.5" font-family="Helvetica,sans-Serif" font-size="10.00">print_b2g_info</text>
</a>
</g>
<!-- Node1&#45;&gt;Node6 -->
<g id="edge16" class="edge"><title>Node1&#45;&gt;Node6</title>
<path fill="none" stroke="midnightblue" d="M82.265,-89C198.45,-89 500.872,-89 608.377,-89"/>
<polygon fill="midnightblue" stroke="midnightblue" points="81.9398,-85.5001 71.9397,-89 81.9397,-92.5001 81.9398,-85.5001"/>
</g>
<!-- Node8 -->
<g id="node17" class="node"><title>Node8</title>
<a xlink:href="../../d1/d41/class_process.html#add7d75128dca5994f9b93709d7273037" target="_top" xlink:title="Process::threads">
<polygon fill="white" stroke="black" points="304.5,-39.5 304.5,-60.5 395.5,-60.5 395.5,-39.5 304.5,-39.5"/>
<text text-anchor="middle" x="350" y="-47.5" font-family="Helvetica,sans-Serif" font-size="10.00">Process::threads</text>
</a>
</g>
<!-- Node1&#45;&gt;Node8 -->
<g id="edge18" class="edge"><title>Node1&#45;&gt;Node8</title>
<path fill="none" stroke="midnightblue" d="M81.7695,-79.4658C90.4568,-77.8365 99.4899,-76.2644 108,-75 176.1,-64.8822 255.588,-57.5135 304.354,-53.495"/>
<polygon fill="midnightblue" stroke="midnightblue" points="80.9396,-76.0613 71.7822,-81.3899 82.2638,-82.9349 80.9396,-76.0613"/>
</g>
<!-- Node9 -->
<g id="node20" class="node"><title>Node9</title>
<a xlink:href="../../d1/d41/class_process.html#aa223046bc6b2f974ecf5c29fcef3db5b" target="_top" xlink:title="Process::user">
<polygon fill="white" stroke="black" points="475.5,-0.5 475.5,-21.5 552.5,-21.5 552.5,-0.5 475.5,-0.5"/>
<text text-anchor="middle" x="514" y="-8.5" font-family="Helvetica,sans-Serif" font-size="10.00">Process::user</text>
</a>
</g>
<!-- Node1&#45;&gt;Node9 -->
<g id="edge22" class="edge"><title>Node1&#45;&gt;Node9</title>
<path fill="none" stroke="midnightblue" d="M63.3151,-73.7467C76.4593,-67.0266 92.6634,-59.6227 108,-55 238.503,-15.6637 401.967,-10.5942 475.287,-10.5087"/>
<polygon fill="midnightblue" stroke="midnightblue" points="61.5603,-70.7151 54.3411,-78.4697 64.8204,-76.9096 61.5603,-70.7151"/>
</g>
<!-- Node4 -->
<g id="node7" class="node"><title>Node4</title>
<a xlink:href="../../de/daf/class_process_list.html#a50e6f4206a8d67e3639f8af25cff4395" target="_top" xlink:title="ProcessList::b2g_processes">
<polygon fill="white" stroke="black" points="280,-117.5 280,-138.5 420,-138.5 420,-117.5 280,-117.5"/>
<text text-anchor="middle" x="350" y="-125.5" font-family="Helvetica,sans-Serif" font-size="10.00">ProcessList::b2g_processes</text>
</a>
</g>
<!-- Node3&#45;&gt;Node4 -->
<g id="edge6" class="edge"><title>Node3&#45;&gt;Node4</title>
<path fill="none" stroke="midnightblue" d="M253.852,-128C262.506,-128 271.281,-128 279.831,-128"/>
<polygon fill="midnightblue" stroke="midnightblue" points="253.771,-124.5 243.771,-128 253.771,-131.5 253.771,-124.5"/>
</g>
<!-- Node5 -->
<g id="node9" class="node"><title>Node5</title>
<a xlink:href="../../d0/d91/b2g-info_8cpp.html#a21a526f63654418c49b074caf7feb59d" target="_top" xlink:title="print_system_meminfo">
<polygon fill="white" stroke="black" points="456,-155.5 456,-176.5 572,-176.5 572,-155.5 456,-155.5"/>
<text text-anchor="middle" x="514" y="-163.5" font-family="Helvetica,sans-Serif" font-size="10.00">print_system_meminfo</text>
</a>
</g>
<!-- Node4&#45;&gt;Node5 -->
<g id="edge8" class="edge"><title>Node4&#45;&gt;Node5</title>
<path fill="none" stroke="midnightblue" d="M405.531,-140.867C426.048,-145.621 449.043,-150.949 468.562,-155.472"/>
<polygon fill="midnightblue" stroke="midnightblue" points="406.215,-137.433 395.683,-138.585 404.635,-144.252 406.215,-137.433"/>
</g>
<!-- Node4&#45;&gt;Node6 -->
<g id="edge14" class="edge"><title>Node4&#45;&gt;Node6</title>
<path fill="none" stroke="midnightblue" d="M430.122,-120.392C472.414,-116.019 525.124,-110.005 572,-103 583.79,-101.238 596.56,-98.9847 608.164,-96.8031"/>
<polygon fill="midnightblue" stroke="midnightblue" points="429.751,-116.912 420.159,-121.412 430.464,-123.875 429.751,-116.912"/>
</g>
<!-- Node5&#45;&gt;Node6 -->
<g id="edge10" class="edge"><title>Node5&#45;&gt;Node6</title>
<path fill="none" stroke="midnightblue" d="M551.118,-151.311C558.174,-148.154 565.408,-144.658 572,-141 594.582,-128.469 618.813,-110.814 633.438,-99.6404"/>
<polygon fill="midnightblue" stroke="midnightblue" points="549.473,-148.21 541.683,-155.391 552.251,-154.635 549.473,-148.21"/>
</g>
<!-- Node7 -->
<g id="node13" class="node"><title>Node7</title>
<a xlink:href="../../d0/d91/b2g-info_8cpp.html#a217dbf8b442f20279ea00b898af96f52" target="_top" xlink:title="main">
<polygon fill="white" stroke="black" points="722,-78.5 722,-99.5 760,-99.5 760,-78.5 722,-78.5"/>
<text text-anchor="middle" x="741" y="-86.5" font-family="Helvetica,sans-Serif" font-size="10.00">main</text>
</a>
</g>
<!-- Node6&#45;&gt;Node7 -->
<g id="edge12" class="edge"><title>Node6&#45;&gt;Node7</title>
<path fill="none" stroke="midnightblue" d="M695.632,-89C704.998,-89 714.278,-89 721.981,-89"/>
<polygon fill="midnightblue" stroke="midnightblue" points="695.505,-85.5001 685.505,-89 695.505,-92.5001 695.505,-85.5001"/>
</g>
<!-- Node8&#45;&gt;Node6 -->
<g id="edge20" class="edge"><title>Node8&#45;&gt;Node6</title>
<path fill="none" stroke="midnightblue" d="M405.757,-55.1501C450.742,-59.5767 515.594,-66.5708 572,-75 583.79,-76.7619 596.56,-79.0153 608.164,-81.1969"/>
<polygon fill="midnightblue" stroke="midnightblue" points="405.912,-51.6487 395.619,-54.163 405.233,-58.6158 405.912,-51.6487"/>
</g>
<!-- Node9&#45;&gt;Node6 -->
<g id="edge24" class="edge"><title>Node9&#45;&gt;Node6</title>
<path fill="none" stroke="midnightblue" d="M549.533,-25.6768C557.079,-29.1386 564.905,-32.9957 572,-37 594.491,-49.694 618.747,-67.3043 633.402,-78.4241"/>
<polygon fill="midnightblue" stroke="midnightblue" points="550.759,-22.3919 540.2,-21.5221 547.912,-28.7868 550.759,-22.3919"/>
</g>
</g>
</svg>
        <g id="navigator" transform="translate(0 0)" fill="#404254">
                <rect fill="#f2f5e9" fill-opacity="0.5" stroke="#606060" stroke-width=".5" x="0" y="0" width="60" height="60"/>
                <use id="zoomplus" xlink:href="#zoomPlus" x="17" y="9" onmousedown="handleZoom(evt,'in')"/>
                <use id="zoomminus" xlink:href="#zoomMin" x="42" y="9" onmousedown="handleZoom(evt,'out')"/>
                <use id="reset" xlink:href="#resetDef" x="30" y="36" onmousedown="handleReset()"/>
                <g id="arrowUp" xlink:href="#dirArrow" transform="translate(30 24)" onmousedown="handlePan(0,-1)">
                  <use xlink:href="#rim" fill="#404040">
                        <set attributeName="fill" to="#808080" begin="arrowUp.mouseover" end="arrowUp.mouseout"/>
                  </use>
                  <path fill="none" stroke="white" stroke-width="1.5" d="M0,-3.0v7 M-2.5,-0.5L0,-3.0L2.5,-0.5"/>
                </g>
                <g id="arrowRight" xlink:href="#dirArrow" transform="rotate(90) translate(36 -43)" onmousedown="handlePan(1,0)">
                  <use xlink:href="#rim" fill="#404040">
                        <set attributeName="fill" to="#808080" begin="arrowRight.mouseover" end="arrowRight.mouseout"/>
                  </use>
                  <path fill="none" stroke="white" stroke-width="1.5" d="M0,-3.0v7 M-2.5,-0.5L0,-3.0L2.5,-0.5"/>
                </g>
                <g id="arrowDown" xlink:href="#dirArrow" transform="rotate(180) translate(-30 -48)" onmousedown="handlePan(0,1)">
                  <use xlink:href="#rim" fill="#404040">
                        <set attributeName="fill" to="#808080" begin="arrowDown.mouseover" end="arrowDown.mouseout"/>
                  </use>
                  <path fill="none" stroke="white" stroke-width="1.5" d="M0,-3.0v7 M-2.5,-0.5L0,-3.0L2.5,-0.5"/>
                </g>
                <g id="arrowLeft" xlink:href="#dirArrow" transform="rotate(270) translate(-36 17)" onmousedown="handlePan(-1,0)">
                  <use xlink:href="#rim" fill="#404040">
                        <set attributeName="fill" to="#808080" begin="arrowLeft.mouseover" end="arrowLeft.mouseout"/>
                  </use>
                  <path fill="none" stroke="white" stroke-width="1.5" d="M0,-3.0v7 M-2.5,-0.5L0,-3.0L2.5,-0.5"/>
                </g>
        </g>
</svg>
