<?xml version="1.0" encoding="UTF-8" standalone="no"?>
<!DOCTYPE svg PUBLIC "-//W3C//DTD SVG 1.1//EN"
 "http://www.w3.org/Graphics/SVG/1.1/DTD/svg11.dtd">
<!-- Generated by graphviz version 2.26.3 (20100126.1600)
 -->
<!-- Title: G Pages: 1 -->
<svg width="224pt" height="70pt"
 viewBox="0.00 0.00 224.00 70.00" xmlns="http://www.w3.org/2000/svg" xmlns:xlink="http://www.w3.org/1999/xlink">
<g id="graph1" class="graph" transform="scale(1 1) rotate(0) translate(4 66)">
<title>G</title>
<polygon fill="white" stroke="white" points="-4,5 -4,-66 221,-66 221,5 -4,5"/>
<!-- Node1 -->
<g id="node1" class="node"><title>Node1</title>
<polygon fill="#bfbfbf" stroke="black" points="0.5,-20.5 0.5,-41.5 91.5,-41.5 91.5,-20.5 0.5,-20.5"/>
<text text-anchor="middle" x="46" y="-28.5" font-family="Helvetica,sans-Serif" font-size="10.00">Process::rss_mb</text>
</g>
<!-- Node2 -->
<g id="node3" class="node"><title>Node2</title>
<a xlink:href="../../de/d06/utils_8cpp.html#abc844f60102de1fc70d50005ffb97735" target="_top" xlink:title="kb_to_mb">
<polygon fill="white" stroke="black" points="142.5,-40.5 142.5,-61.5 201.5,-61.5 201.5,-40.5 142.5,-40.5"/>
<text text-anchor="middle" x="172" y="-48.5" font-family="Helvetica,sans-Serif" font-size="10.00">kb_to_mb</text>
</a>
</g>
<!-- Node1&#45;&gt;Node2 -->
<g id="edge2" class="edge"><title>Node1&#45;&gt;Node2</title>
<path fill="none" stroke="midnightblue" d="M91.8453,-38.277C105.171,-40.3922 119.604,-42.6832 132.503,-44.7307"/>
<polygon fill="midnightblue" stroke="midnightblue" points="132.043,-48.2014 142.469,-46.3125 133.141,-41.288 132.043,-48.2014"/>
</g>
<!-- Node3 -->
<g id="node5" class="node"><title>Node3</title>
<a xlink:href="../../d1/d41/class_process.html#a0c88dd980594f1d71940d26b7ad6cea8" target="_top" xlink:title="Process::rss_kb">
<polygon fill="white" stroke="black" points="128,-0.5 128,-21.5 216,-21.5 216,-0.5 128,-0.5"/>
<text text-anchor="middle" x="172" y="-8.5" font-family="Helvetica,sans-Serif" font-size="10.00">Process::rss_kb</text>
</a>
</g>
<!-- Node1&#45;&gt;Node3 -->
<g id="edge4" class="edge"><title>Node1&#45;&gt;Node3</title>
<path fill="none" stroke="midnightblue" d="M91.8453,-23.723C100.241,-22.3904 109.076,-20.9879 117.69,-19.6206"/>
<polygon fill="midnightblue" stroke="midnightblue" points="118.334,-23.0623 127.662,-18.0378 117.236,-16.1489 118.334,-23.0623"/>
</g>
</g>
</svg>
