<?xml version="1.0" encoding="UTF-8" standalone="no"?>
<!DOCTYPE svg PUBLIC "-//W3C//DTD SVG 1.1//EN"
 "http://www.w3.org/Graphics/SVG/1.1/DTD/svg11.dtd">
<!-- Generated by graphviz version 2.26.3 (20100126.1600)
 -->
<!-- Title: G Pages: 1 -->
<svg width="432pt" height="30pt"
 viewBox="0.00 0.00 432.00 30.00" xmlns="http://www.w3.org/2000/svg" xmlns:xlink="http://www.w3.org/1999/xlink">
<g id="graph1" class="graph" transform="scale(1 1) rotate(0) translate(4 26)">
<title>G</title>
<polygon fill="white" stroke="white" points="-4,5 -4,-26 429,-26 429,5 -4,5"/>
<!-- Node1 -->
<g id="node1" class="node"><title>Node1</title>
<polygon fill="#bfbfbf" stroke="black" points="0,-0.5 0,-21.5 98,-21.5 98,-0.5 0,-0.5"/>
<text text-anchor="middle" x="49" y="-8.5" font-family="Helvetica,sans-Serif" font-size="10.00">Process::vsize_kb</text>
</g>
<!-- Node2 -->
<g id="node3" class="node"><title>Node2</title>
<a xlink:href="../../d1/d41/class_process.html#a5c0a5eabbeac51b40e7d691da2e74852" target="_top" xlink:title="Process::vsize_mb">
<polygon fill="white" stroke="black" points="134.5,-0.5 134.5,-21.5 235.5,-21.5 235.5,-0.5 134.5,-0.5"/>
<text text-anchor="middle" x="185" y="-8.5" font-family="Helvetica,sans-Serif" font-size="10.00">Process::vsize_mb</text>
</a>
</g>
<!-- Node1&#45;&gt;Node2 -->
<g id="edge2" class="edge"><title>Node1&#45;&gt;Node2</title>
<path fill="none" stroke="midnightblue" d="M108.144,-11C116.806,-11 125.664,-11 134.141,-11"/>
<polygon fill="midnightblue" stroke="midnightblue" points="108.099,-7.5001 98.0991,-11 108.099,-14.5001 108.099,-7.5001"/>
</g>
<!-- Node3 -->
<g id="node5" class="node"><title>Node3</title>
<a xlink:href="../../d0/d91/b2g-info_8cpp.html#a72987403ed81c976534491e6e4cb7533" target="_top" xlink:title="print_b2g_info">
<polygon fill="white" stroke="black" points="272.5,-0.5 272.5,-21.5 349.5,-21.5 349.5,-0.5 272.5,-0.5"/>
<text text-anchor="middle" x="311" y="-8.5" font-family="Helvetica,sans-Serif" font-size="10.00">print_b2g_info</text>
</a>
</g>
<!-- Node2&#45;&gt;Node3 -->
<g id="edge4" class="edge"><title>Node2&#45;&gt;Node3</title>
<path fill="none" stroke="midnightblue" d="M245.74,-11C254.85,-11 264.023,-11 272.495,-11"/>
<polygon fill="midnightblue" stroke="midnightblue" points="245.523,-7.5001 235.523,-11 245.523,-14.5001 245.523,-7.5001"/>
</g>
<!-- Node4 -->
<g id="node7" class="node"><title>Node4</title>
<a xlink:href="../../d0/d91/b2g-info_8cpp.html#a217dbf8b442f20279ea00b898af96f52" target="_top" xlink:title="main">
<polygon fill="white" stroke="black" points="386,-0.5 386,-21.5 424,-21.5 424,-0.5 386,-0.5"/>
<text text-anchor="middle" x="405" y="-8.5" font-family="Helvetica,sans-Serif" font-size="10.00">main</text>
</a>
</g>
<!-- Node3&#45;&gt;Node4 -->
<g id="edge6" class="edge"><title>Node3&#45;&gt;Node4</title>
<path fill="none" stroke="midnightblue" d="M359.632,-11C368.998,-11 378.278,-11 385.981,-11"/>
<polygon fill="midnightblue" stroke="midnightblue" points="359.505,-7.5001 349.505,-11 359.505,-14.5001 359.505,-7.5001"/>
</g>
</g>
</svg>
