<?xml version="1.0" encoding="UTF-8" standalone="no"?>
<!DOCTYPE svg PUBLIC "-//W3C//DTD SVG 1.1//EN"
 "http://www.w3.org/Graphics/SVG/1.1/DTD/svg11.dtd">
<!-- Generated by graphviz version 2.26.3 (20100126.1600)
 -->
<!-- Title: G Pages: 1 -->
<svg width="228pt" height="70pt"
 viewBox="0.00 0.00 228.00 70.00" xmlns="http://www.w3.org/2000/svg" xmlns:xlink="http://www.w3.org/1999/xlink">
<g id="graph1" class="graph" transform="scale(1 1) rotate(0) translate(4 66)">
<title>G</title>
<polygon fill="white" stroke="white" points="-4,5 -4,-66 225,-66 225,5 -4,5"/>
<!-- Node1 -->
<g id="node1" class="node"><title>Node1</title>
<polygon fill="#bfbfbf" stroke="black" points="0.5,-20.5 0.5,-41.5 93.5,-41.5 93.5,-20.5 0.5,-20.5"/>
<text text-anchor="middle" x="47" y="-28.5" font-family="Helvetica,sans-Serif" font-size="10.00">Process::pss_mb</text>
</g>
<!-- Node2 -->
<g id="node3" class="node"><title>Node2</title>
<a xlink:href="../../de/d06/utils_8cpp.html#abc844f60102de1fc70d50005ffb97735" target="_top" xlink:title="kb_to_mb">
<polygon fill="white" stroke="black" points="145.5,-40.5 145.5,-61.5 204.5,-61.5 204.5,-40.5 145.5,-40.5"/>
<text text-anchor="middle" x="175" y="-48.5" font-family="Helvetica,sans-Serif" font-size="10.00">kb_to_mb</text>
</a>
</g>
<!-- Node1&#45;&gt;Node2 -->
<g id="edge2" class="edge"><title>Node1&#45;&gt;Node2</title>
<path fill="none" stroke="midnightblue" d="M93.573,-38.277C107.223,-40.4098 122.017,-42.7214 135.204,-44.7818"/>
<polygon fill="midnightblue" stroke="midnightblue" points="134.961,-48.2863 145.382,-46.3721 136.042,-41.3702 134.961,-48.2863"/>
</g>
<!-- Node3 -->
<g id="node5" class="node"><title>Node3</title>
<a xlink:href="../../d1/d41/class_process.html#a1b4df06f4a34abc6b35a046678d1aec1" target="_top" xlink:title="Process::pss_kb">
<polygon fill="white" stroke="black" points="130,-0.5 130,-21.5 220,-21.5 220,-0.5 130,-0.5"/>
<text text-anchor="middle" x="175" y="-8.5" font-family="Helvetica,sans-Serif" font-size="10.00">Process::pss_kb</text>
</a>
</g>
<!-- Node1&#45;&gt;Node3 -->
<g id="edge4" class="edge"><title>Node1&#45;&gt;Node3</title>
<path fill="none" stroke="midnightblue" d="M93.573,-23.723C102.102,-22.3904 111.077,-20.9879 119.828,-19.6206"/>
<polygon fill="midnightblue" stroke="midnightblue" points="120.618,-23.0397 129.958,-18.0378 119.537,-16.1237 120.618,-23.0397"/>
</g>
</g>
</svg>
