<?xml version="1.0" encoding="UTF-8" standalone="no"?>
<!DOCTYPE svg PUBLIC "-//W3C//DTD SVG 1.1//EN"
 "http://www.w3.org/Graphics/SVG/1.1/DTD/svg11.dtd">
<!-- Generated by graphviz version 2.26.3 (20100126.1600)
 -->
<!-- Title: G Pages: 1 -->
<svg width="244pt" height="70pt"
 viewBox="0.00 0.00 244.00 70.00" xmlns="http://www.w3.org/2000/svg" xmlns:xlink="http://www.w3.org/1999/xlink">
<g id="graph1" class="graph" transform="scale(1 1) rotate(0) translate(4 66)">
<title>G</title>
<polygon fill="white" stroke="white" points="-4,5 -4,-66 241,-66 241,5 -4,5"/>
<!-- Node1 -->
<g id="node1" class="node"><title>Node1</title>
<polygon fill="#bfbfbf" stroke="black" points="0.5,-20.5 0.5,-41.5 101.5,-41.5 101.5,-20.5 0.5,-20.5"/>
<text text-anchor="middle" x="51" y="-28.5" font-family="Helvetica,sans-Serif" font-size="10.00">Process::vsize_mb</text>
</g>
<!-- Node2 -->
<g id="node3" class="node"><title>Node2</title>
<a xlink:href="../../de/d06/utils_8cpp.html#abc844f60102de1fc70d50005ffb97735" target="_top" xlink:title="kb_to_mb">
<polygon fill="white" stroke="black" points="157.5,-40.5 157.5,-61.5 216.5,-61.5 216.5,-40.5 157.5,-40.5"/>
<text text-anchor="middle" x="187" y="-48.5" font-family="Helvetica,sans-Serif" font-size="10.00">kb_to_mb</text>
</a>
</g>
<!-- Node1&#45;&gt;Node2 -->
<g id="edge2" class="edge"><title>Node1&#45;&gt;Node2</title>
<path fill="none" stroke="midnightblue" d="M101.641,-38.4473C116.713,-40.6636 133.003,-43.0592 147.272,-45.1577"/>
<polygon fill="midnightblue" stroke="midnightblue" points="146.856,-48.6341 157.259,-46.6264 147.875,-41.7086 146.856,-48.6341"/>
</g>
<!-- Node3 -->
<g id="node5" class="node"><title>Node3</title>
<a xlink:href="../../d1/d41/class_process.html#a1681e85c54de948fe29f5e990fa1c56c" target="_top" xlink:title="Process::vsize_kb">
<polygon fill="white" stroke="black" points="138,-0.5 138,-21.5 236,-21.5 236,-0.5 138,-0.5"/>
<text text-anchor="middle" x="187" y="-8.5" font-family="Helvetica,sans-Serif" font-size="10.00">Process::vsize_kb</text>
</a>
</g>
<!-- Node1&#45;&gt;Node3 -->
<g id="edge4" class="edge"><title>Node1&#45;&gt;Node3</title>
<path fill="none" stroke="midnightblue" d="M101.641,-23.5527C110.109,-22.3075 118.962,-21.0056 127.625,-19.7317"/>
<polygon fill="midnightblue" stroke="midnightblue" points="128.288,-23.1718 137.673,-18.254 127.27,-16.2463 128.288,-23.1718"/>
</g>
</g>
</svg>
