<?xml version="1.0" encoding="UTF-8" standalone="no"?>
<!DOCTYPE svg PUBLIC "-//W3C//DTD SVG 1.1//EN"
 "http://www.w3.org/Graphics/SVG/1.1/DTD/svg11.dtd">
<!-- Generated by graphviz version 2.26.3 (20100126.1600)
 -->
<!-- Title: G Pages: 1 -->
<svg width="480pt" height="230pt"
 viewBox="0.00 0.00 480.00 230.00" xmlns="http://www.w3.org/2000/svg" xmlns:xlink="http://www.w3.org/1999/xlink">
<g id="graph1" class="graph" transform="scale(1 1) rotate(0) translate(4 226)">
<title>G</title>
<polygon fill="white" stroke="white" points="-4,5 -4,-226 477,-226 477,5 -4,5"/>
<!-- Node1 -->
<g id="node1" class="node"><title>Node1</title>
<polygon fill="#bfbfbf" stroke="black" points="0,-100.5 0,-121.5 192,-121.5 192,-100.5 0,-100.5"/>
<text text-anchor="middle" x="96" y="-108.5" font-family="Helvetica,sans-Serif" font-size="10.00">nsSMILAnimationFunction::SetErrorFlag</text>
</g>
<!-- Node2 -->
<g id="node3" class="node"><title>Node2</title>
<a xlink:href="../../dd/dd1/classns_s_m_i_l_animation_function.html#ac8dbd2eb0d6d47805c278195c5309280" target="_top" xlink:title="nsSMILAnimationFunction::SetAccumulateErrorFlag">
<polygon fill="white" stroke="black" points="228,-200.5 228,-221.5 472,-221.5 472,-200.5 228,-200.5"/>
<text text-anchor="middle" x="350" y="-208.5" font-family="Helvetica,sans-Serif" font-size="10.00">nsSMILAnimationFunction::SetAccumulateErrorFlag</text>
</a>
</g>
<!-- Node1&#45;&gt;Node2 -->
<g id="edge2" class="edge"><title>Node1&#45;&gt;Node2</title>
<path fill="none" stroke="midnightblue" d="M117.422,-127.572C142.493,-146.081 185.949,-175.475 228,-191 238.369,-194.828 249.504,-197.926 260.677,-200.432"/>
<polygon fill="midnightblue" stroke="midnightblue" points="119.454,-124.721 109.354,-121.52 115.253,-130.32 119.454,-124.721"/>
</g>
<!-- Node3 -->
<g id="node5" class="node"><title>Node3</title>
<a xlink:href="../../dd/dd1/classns_s_m_i_l_animation_function.html#ae81b7bdca130a9973471125622462e7d" target="_top" xlink:title="nsSMILAnimationFunction::SetAdditiveErrorFlag">
<polygon fill="white" stroke="black" points="236.5,-160.5 236.5,-181.5 463.5,-181.5 463.5,-160.5 236.5,-160.5"/>
<text text-anchor="middle" x="350" y="-168.5" font-family="Helvetica,sans-Serif" font-size="10.00">nsSMILAnimationFunction::SetAdditiveErrorFlag</text>
</a>
</g>
<!-- Node1&#45;&gt;Node3 -->
<g id="edge4" class="edge"><title>Node1&#45;&gt;Node3</title>
<path fill="none" stroke="midnightblue" d="M136.129,-124.666C162.099,-133.134 196.77,-143.742 228,-151 243.47,-154.596 260.191,-157.784 276.146,-160.499"/>
<polygon fill="midnightblue" stroke="midnightblue" points="137.221,-121.34 126.628,-121.536 135.031,-127.989 137.221,-121.34"/>
</g>
<!-- Node4 -->
<g id="node7" class="node"><title>Node4</title>
<a xlink:href="../../dd/dd1/classns_s_m_i_l_animation_function.html#a9c2720f5e91bbe0dd766cc4d670b484b" target="_top" xlink:title="nsSMILAnimationFunction::SetCalcModeErrorFlag">
<polygon fill="white" stroke="black" points="232,-120.5 232,-141.5 468,-141.5 468,-120.5 232,-120.5"/>
<text text-anchor="middle" x="350" y="-128.5" font-family="Helvetica,sans-Serif" font-size="10.00">nsSMILAnimationFunction::SetCalcModeErrorFlag</text>
</a>
</g>
<!-- Node1&#45;&gt;Node4 -->
<g id="edge6" class="edge"><title>Node1&#45;&gt;Node4</title>
<path fill="none" stroke="midnightblue" d="M202.104,-119.355C211.842,-120.121 221.749,-120.901 231.587,-121.676"/>
<polygon fill="midnightblue" stroke="midnightblue" points="202.27,-115.857 192.027,-118.561 201.721,-122.835 202.27,-115.857"/>
</g>
<!-- Node5 -->
<g id="node9" class="node"><title>Node5</title>
<a xlink:href="../../dd/dd1/classns_s_m_i_l_animation_function.html#a3d0c8f51c7fcf0aab328bddc087db607" target="_top" xlink:title="nsSMILAnimationFunction::SetKeyPointsErrorFlag">
<polygon fill="white" stroke="black" points="231.5,-80.5 231.5,-101.5 468.5,-101.5 468.5,-80.5 231.5,-80.5"/>
<text text-anchor="middle" x="350" y="-88.5" font-family="Helvetica,sans-Serif" font-size="10.00">nsSMILAnimationFunction::SetKeyPointsErrorFlag</text>
</a>
</g>
<!-- Node1&#45;&gt;Node5 -->
<g id="edge8" class="edge"><title>Node1&#45;&gt;Node5</title>
<path fill="none" stroke="midnightblue" d="M202.298,-102.63C211.831,-101.879 221.524,-101.116 231.154,-100.358"/>
<polygon fill="midnightblue" stroke="midnightblue" points="201.721,-99.1646 192.027,-103.439 202.27,-106.143 201.721,-99.1646"/>
</g>
<!-- Node6 -->
<g id="node11" class="node"><title>Node6</title>
<a xlink:href="../../dd/dd1/classns_s_m_i_l_animation_function.html#a3b9b1123b1ece6a8078042511ab7140c" target="_top" xlink:title="nsSMILAnimationFunction::SetKeySplinesErrorFlag">
<polygon fill="white" stroke="black" points="229,-40.5 229,-61.5 471,-61.5 471,-40.5 229,-40.5"/>
<text text-anchor="middle" x="350" y="-48.5" font-family="Helvetica,sans-Serif" font-size="10.00">nsSMILAnimationFunction::SetKeySplinesErrorFlag</text>
</a>
</g>
<!-- Node1&#45;&gt;Node6 -->
<g id="edge10" class="edge"><title>Node1&#45;&gt;Node6</title>
<path fill="none" stroke="midnightblue" d="M136.129,-97.3344C162.099,-88.8663 196.77,-78.2583 228,-71 243.47,-67.4044 260.191,-64.2164 276.146,-61.5007"/>
<polygon fill="midnightblue" stroke="midnightblue" points="135.031,-94.0112 126.628,-100.464 137.221,-100.66 135.031,-94.0112"/>
</g>
<!-- Node7 -->
<g id="node13" class="node"><title>Node7</title>
<a xlink:href="../../dd/dd1/classns_s_m_i_l_animation_function.html#a0a3b69578fe99c79990dffda77bb3da6" target="_top" xlink:title="nsSMILAnimationFunction::SetKeyTimesErrorFlag">
<polygon fill="white" stroke="black" points="232,-0.5 232,-21.5 468,-21.5 468,-0.5 232,-0.5"/>
<text text-anchor="middle" x="350" y="-8.5" font-family="Helvetica,sans-Serif" font-size="10.00">nsSMILAnimationFunction::SetKeyTimesErrorFlag</text>
</a>
</g>
<!-- Node1&#45;&gt;Node7 -->
<g id="edge12" class="edge"><title>Node1&#45;&gt;Node7</title>
<path fill="none" stroke="midnightblue" d="M117.422,-94.4277C142.493,-75.9186 185.949,-46.5252 228,-31 238.369,-27.1716 249.504,-24.0741 260.677,-21.5684"/>
<polygon fill="midnightblue" stroke="midnightblue" points="115.253,-91.6796 109.354,-100.48 119.454,-97.2793 115.253,-91.6796"/>
</g>
</g>
</svg>
