<?xml version="1.0" encoding="UTF-8" standalone="no"?>
<!DOCTYPE svg PUBLIC "-//W3C//DTD SVG 1.1//EN"
 "http://www.w3.org/Graphics/SVG/1.1/DTD/svg11.dtd">
<!-- Generated by graphviz version 2.26.3 (20100126.1600)
 -->
<!-- Title: G Pages: 1 -->
<!--zoomable 2596 -->
<svg id="main" version="1.1" xmlns="http://www.w3.org/2000/svg" xmlns:xlink="http://www.w3.org/1999/xlink" xml:space="preserve" onload="init(evt)">
        <defs>
                <circle id="rim" cx="0" cy="0" r="7"/>
                <circle id="rim2" cx="0" cy="0" r="3.5"/>
                <g id="zoomPlus">
                        <use xlink:href="#rim" fill="#404040">
                                <set attributeName="fill" to="#808080" begin="zoomplus.mouseover" end="zoomplus.mouseout"/>
                        </use>
                        <path d="M-4,0h8M0,-4v8" fill="none" stroke="white" stroke-width="1.5" pointer-events="none"/>
                </g>
                <g id="zoomMin">
                        <use xlink:href="#rim" fill="#404040">
                                <set attributeName="fill" to="#808080" begin="zoomminus.mouseover" end="zoomminus.mouseout"/>
                        </use>
                        <path d="M-4,0h8" fill="none" stroke="white" stroke-width="1.5" pointer-events="none"/>
                </g>
                <g id="dirArrow">
                        <path fill="none" stroke="white" stroke-width="1.5" d="M0,-3.0v7 M-2.5,-0.5L0,-3.0L2.5,-0.5"/>
                </g>
               <g id="resetDef">
                       <use xlink:href="#rim2" fill="#404040">
                               <set attributeName="fill" to="#808080" begin="reset.mouseover" end="reset.mouseout"/>
                       </use>
               </g>
        </defs>

<script type="text/javascript">
var viewWidth = 4454;
var viewHeight = 2596;
var sectionId = 'dynsection-45';
</script>
<script xlink:href="../../svgpan.js"/>
<svg id="graph" class="graph">
<g id="viewport">
<title>G</title>
<polygon fill="white" stroke="white" points="-4,5 -4,-2592.18 4451,-2592.18 4451,5 -4,5"/>
<!-- Node1 -->
<g id="node1" class="node"><title>Node1</title>
<polygon fill="#bfbfbf" stroke="black" points="0,-2509.11 0,-2530.11 116,-2530.11 116,-2509.11 0,-2509.11"/>
<text text-anchor="middle" x="58" y="-2517.11" font-family="Helvetica,sans-Serif" font-size="10.00">parseGroupExpression</text>
</g>
<!-- Node2 -->
<g id="node3" class="node"><title>Node2</title>
<a xlink:href="../../d3/d52/blanket_8js.html#a3d582dbc2cd807955ef7456076ec1770" target="_top" xlink:title="parsePrimaryExpression">
<polygon fill="white" stroke="black" points="152.5,-2376.11 152.5,-2397.11 275.5,-2397.11 275.5,-2376.11 152.5,-2376.11"/>
<text text-anchor="middle" x="214" y="-2384.11" font-family="Helvetica,sans-Serif" font-size="10.00">parsePrimaryExpression</text>
</a>
</g>
<!-- Node1&#45;&gt;Node2 -->
<g id="edge2" class="edge"><title>Node1&#45;&gt;Node2</title>
<path fill="none" stroke="midnightblue" d="M78.5161,-2502.12C111.309,-2474.16 174.571,-2420.23 201.438,-2397.32"/>
<polygon fill="midnightblue" stroke="midnightblue" points="75.8415,-2499.8 70.5024,-2508.95 80.383,-2505.13 75.8415,-2499.8"/>
</g>
<!-- Node3 -->
<g id="node5" class="node"><title>Node3</title>
<a xlink:href="../../db/d7b/r_8js.html#a4bb36e0d0cde43aa023083eb1a91c876" target="_top" xlink:title="patch">
<polygon fill="white" stroke="black" points="4321.5,-764.11 4321.5,-785.11 4362.5,-785.11 4362.5,-764.11 4321.5,-764.11"/>
<text text-anchor="middle" x="4342" y="-772.11" font-family="Helvetica,sans-Serif" font-size="10.00">patch</text>
</a>
</g>
<!-- Node1&#45;&gt;Node3 -->
<g id="edge272" class="edge"><title>Node1&#45;&gt;Node3</title>
<path fill="none" stroke="midnightblue" d="M126.528,-2513.34C193.033,-2507.81 296.849,-2500.61 387,-2500.61 387,-2500.61 387,-2500.61 1423,-2500.61 1835.1,-2500.61 2018.26,-2557.93 2324,-2281.61 2420.42,-2194.47 2432.78,-2159.02 2498,-2046.61 2711.94,-1677.91 2537.72,-1417.2 2884,-1168.61 3096.04,-1016.39 3207.97,-1116.61 3469,-1116.61 3469,-1116.61 3469,-1116.61 4032,-1116.61 4144.44,-1116.61 4200.09,-1145.71 4280,-1066.61 4321.25,-1025.78 4337.78,-832.839 4341.27,-785.243"/>
<polygon fill="midnightblue" stroke="midnightblue" points="125.853,-2509.89 116.183,-2514.22 126.442,-2516.86 125.853,-2509.89"/>
</g>
<!-- Node12 -->
<g id="node31" class="node"><title>Node12</title>
<a xlink:href="../../db/d7b/r_8js.html#acdaaf121ae542d32ab051476c11ab32a" target="_top" xlink:title="unpatch">
<polygon fill="white" stroke="black" points="4316.5,-2034.11 4316.5,-2055.11 4367.5,-2055.11 4367.5,-2034.11 4316.5,-2034.11"/>
<text text-anchor="middle" x="4342" y="-2042.11" font-family="Helvetica,sans-Serif" font-size="10.00">unpatch</text>
</a>
</g>
<!-- Node1&#45;&gt;Node12 -->
<g id="edge274" class="edge"><title>Node1&#45;&gt;Node12</title>
<path fill="none" stroke="midnightblue" d="M101.654,-2533.04C117.406,-2537.53 135.394,-2542.23 152,-2545.61 255.239,-2566.59 281.651,-2576.61 387,-2576.61 387,-2576.61 387,-2576.61 4032,-2576.61 4143.44,-2576.61 4202.13,-2619.33 4280,-2539.61 4315.18,-2503.6 4337.6,-2124.71 4341.42,-2055.45"/>
<polygon fill="midnightblue" stroke="midnightblue" points="102.242,-2529.57 91.663,-2530.14 100.292,-2536.29 102.242,-2529.57"/>
</g>
<!-- Node2&#45;&gt;Node3 -->
<g id="edge4" class="edge"><title>Node2&#45;&gt;Node3</title>
<path fill="none" stroke="midnightblue" d="M282.463,-2398.82C350.756,-2409.94 458.786,-2424.61 553,-2424.61 553,-2424.61 553,-2424.61 1577,-2424.61 1922.36,-2424.61 2071.22,-2445.92 2324,-2210.61 2691.51,-1868.5 2329.56,-1474.94 2712,-1149.61 2762.66,-1106.52 2994.32,-964.61 3840,-964.61 3840,-964.61 3840,-964.61 4032,-964.61 4146.65,-964.61 4191.19,-966.116 4280,-893.61 4315.91,-864.292 4333.46,-808.647 4339.49,-785.321"/>
<polygon fill="midnightblue" stroke="midnightblue" points="282.703,-2395.32 272.267,-2397.14 281.564,-2402.22 282.703,-2395.32"/>
</g>
<!-- Node5 -->
<g id="node9" class="node"><title>Node5</title>
<a xlink:href="../../d3/d52/blanket_8js.html#ad7267f9e15c8f3c37f34200e138b8db9" target="_top" xlink:title="parseLeftHandSideExpression">
<polygon fill="white" stroke="black" points="312.5,-251.11 312.5,-272.11 461.5,-272.11 461.5,-251.11 312.5,-251.11"/>
<text text-anchor="middle" x="387" y="-259.11" font-family="Helvetica,sans-Serif" font-size="10.00">parseLeftHandSideExpression</text>
</a>
</g>
<!-- Node2&#45;&gt;Node5 -->
<g id="edge8" class="edge"><title>Node2&#45;&gt;Node5</title>
<path fill="none" stroke="midnightblue" d="M215.71,-2365.6C232.882,-2154.68 373.85,-423.135 386.145,-272.116"/>
<polygon fill="midnightblue" stroke="midnightblue" points="212.213,-2365.43 214.89,-2375.68 219.19,-2366 212.213,-2365.43"/>
</g>
<!-- Node7 -->
<g id="node16" class="node"><title>Node7</title>
<a xlink:href="../../db/d7b/r_8js.html#a8109edbc91b1c5805509faafc36dda62" target="_top" xlink:title="trackLeftHandSideExpressionAllowCall">
<polygon fill="white" stroke="black" points="3746,-232.11 3746,-253.11 3934,-253.11 3934,-232.11 3746,-232.11"/>
<text text-anchor="middle" x="3840" y="-240.11" font-family="Helvetica,sans-Serif" font-size="10.00">trackLeftHandSideExpressionAllowCall</text>
</a>
</g>
<!-- Node2&#45;&gt;Node7 -->
<g id="edge264" class="edge"><title>Node2&#45;&gt;Node7</title>
<path fill="none" stroke="midnightblue" d="M214.491,-2365.61C219.59,-2149.88 263.679,-342.826 312,-241.61 370.644,-118.77 416.88,-52.6098 553,-52.6098 553,-52.6098 553,-52.6098 2252,-52.6098 2567.65,-52.6098 2637.35,-166.61 2953,-166.61 2953,-166.61 2953,-166.61 3469,-166.61 3597.86,-166.61 3746.88,-211.16 3809.65,-232.042"/>
<polygon fill="midnightblue" stroke="midnightblue" points="210.991,-2365.56 214.255,-2375.64 217.989,-2365.72 210.991,-2365.56"/>
</g>
<!-- Node8 -->
<g id="node19" class="node"><title>Node8</title>
<a xlink:href="../../d3/d52/blanket_8js.html#af991c5171c6f7fd0e7096135aff10ede" target="_top" xlink:title="parseLeftHandSideExpressionAllowCall">
<polygon fill="white" stroke="black" points="644,-422.11 644,-443.11 834,-443.11 834,-422.11 644,-422.11"/>
<text text-anchor="middle" x="739" y="-430.11" font-family="Helvetica,sans-Serif" font-size="10.00">parseLeftHandSideExpressionAllowCall</text>
</a>
</g>
<!-- Node2&#45;&gt;Node8 -->
<g id="edge266" class="edge"><title>Node2&#45;&gt;Node8</title>
<path fill="none" stroke="midnightblue" d="M219.43,-2366.4C272.496,-2168.89 697.418,-587.374 736.172,-443.134"/>
<polygon fill="midnightblue" stroke="midnightblue" points="216.039,-2365.53 216.825,-2376.1 222.8,-2367.35 216.039,-2365.53"/>
</g>
<!-- Node2&#45;&gt;Node12 -->
<g id="edge270" class="edge"><title>Node2&#45;&gt;Node12</title>
<path fill="none" stroke="midnightblue" d="M238.125,-2402.84C257.287,-2414.87 285.223,-2430.52 312,-2438.61 415.036,-2469.76 445.359,-2462.61 553,-2462.61 553,-2462.61 553,-2462.61 1423,-2462.61 1871.39,-2462.61 1980.61,-2538.61 2429,-2538.61 2429,-2538.61 2429,-2538.61 4032,-2538.61 4143.44,-2538.61 4201.72,-2580.93 4280,-2501.61 4312.55,-2468.63 4336.93,-2121.58 4341.3,-2055.46"/>
<polygon fill="midnightblue" stroke="midnightblue" points="239.772,-2399.74 229.466,-2397.28 235.988,-2405.63 239.772,-2399.74"/>
</g>
<!-- Node28 -->
<g id="node75" class="node"><title>Node28</title>
<a xlink:href="../../db/d7b/r_8js.html#a11ec19180b29a7c45621ef05b8890c30" target="_top" xlink:title="trackLeftHandSideExpression">
<polygon fill="white" stroke="black" points="3767,-79.1098 3767,-100.11 3913,-100.11 3913,-79.1098 3767,-79.1098"/>
<text text-anchor="middle" x="3840" y="-87.1098" font-family="Helvetica,sans-Serif" font-size="10.00">trackLeftHandSideExpression</text>
</a>
</g>
<!-- Node2&#45;&gt;Node28 -->
<g id="edge268" class="edge"><title>Node2&#45;&gt;Node28</title>
<path fill="none" stroke="midnightblue" d="M214.15,-2365.8C215.864,-2140.34 233.166,-157.41 312,-64.6098 382.823,18.7608 443.608,-14.6098 553,-14.6098 553,-14.6098 553,-14.6098 2780,-14.6098 3011.28,-14.6098 3067.72,-52.6098 3299,-52.6098 3299,-52.6098 3299,-52.6098 3469,-52.6098 3576.45,-52.6098 3700.55,-68.1672 3774.52,-79.1061"/>
<polygon fill="midnightblue" stroke="midnightblue" points="210.649,-2365.92 214.075,-2375.94 217.649,-2365.97 210.649,-2365.92"/>
</g>
<!-- Node4 -->
<g id="node7" class="node"><title>Node4</title>
<a xlink:href="../../db/d7b/r_8js.html#a3e70263fa1d00b23249fce45e65e5849" target="_top" xlink:title="parse">
<polygon fill="white" stroke="black" points="4404.5,-1399.11 4404.5,-1420.11 4445.5,-1420.11 4445.5,-1399.11 4404.5,-1399.11"/>
<text text-anchor="middle" x="4425" y="-1407.11" font-family="Helvetica,sans-Serif" font-size="10.00">parse</text>
</a>
</g>
<!-- Node3&#45;&gt;Node4 -->
<g id="edge6" class="edge"><title>Node3&#45;&gt;Node4</title>
<path fill="none" stroke="midnightblue" d="M4344.72,-795.421C4357.79,-895.428 4413.92,-1324.85 4423.58,-1398.76"/>
<polygon fill="midnightblue" stroke="midnightblue" points="4348.17,-794.827 4343.41,-785.365 4341.23,-795.734 4348.17,-794.827"/>
</g>
<!-- Node5&#45;&gt;Node3 -->
<g id="edge10" class="edge"><title>Node5&#45;&gt;Node3</title>
<path fill="none" stroke="midnightblue" d="M406.348,-244.308C457.015,-200.86 599.344,-90.6098 739,-90.6098 739,-90.6098 739,-90.6098 2252,-90.6098 2718.56,-90.6098 2832.44,-14.6098 3299,-14.6098 3299,-14.6098 3299,-14.6098 4032,-14.6098 4143.14,-14.6098 4203.14,33.6605 4280,-46.6098 4331.98,-100.893 4340.85,-678.615 4341.89,-764.072"/>
<polygon fill="midnightblue" stroke="midnightblue" points="404.002,-241.709 398.754,-250.913 408.596,-246.991 404.002,-241.709"/>
</g>
<!-- Node6 -->
<g id="node12" class="node"><title>Node6</title>
<a xlink:href="../../d3/d52/blanket_8js.html#ab0ddf6d9b1b97408e0a5e840801580ac" target="_top" xlink:title="parseNewExpression">
<polygon fill="white" stroke="black" points="498,-231.11 498,-252.11 608,-252.11 608,-231.11 498,-231.11"/>
<text text-anchor="middle" x="553" y="-239.11" font-family="Helvetica,sans-Serif" font-size="10.00">parseNewExpression</text>
</a>
</g>
<!-- Node5&#45;&gt;Node6 -->
<g id="edge12" class="edge"><title>Node5&#45;&gt;Node6</title>
<path fill="none" stroke="midnightblue" d="M435.816,-249.515C455.328,-246.516 477.894,-243.736 497.984,-241.841"/>
<polygon fill="midnightblue" stroke="midnightblue" points="435.24,-246.063 425.92,-251.1 436.347,-252.975 435.24,-246.063"/>
</g>
<!-- Node5&#45;&gt;Node12 -->
<g id="edge262" class="edge"><title>Node5&#45;&gt;Node12</title>
<path fill="none" stroke="midnightblue" d="M389.097,-282.81C411.564,-504.291 616.263,-2386.61 1084,-2386.61 1084,-2386.61 1084,-2386.61 1577,-2386.61 2036.69,-2386.61 2145.31,-2500.61 2605,-2500.61 2605,-2500.61 2605,-2500.61 4032,-2500.61 4143.44,-2500.61 4201.25,-2542.46 4280,-2463.61 4309.95,-2433.63 4336.23,-2117.95 4341.17,-2055.36"/>
<polygon fill="midnightblue" stroke="midnightblue" points="392.547,-282.137 388.065,-272.536 385.582,-282.836 392.547,-282.137"/>
</g>
<!-- Node6&#45;&gt;Node3 -->
<g id="edge14" class="edge"><title>Node6&#45;&gt;Node3</title>
<path fill="none" stroke="midnightblue" d="M584.097,-226.668C601.372,-218.958 623.467,-210.053 644,-204.61 767.947,-171.752 801.772,-166.61 930,-166.61 930,-166.61 930,-166.61 2429,-166.61 2662.5,-166.61 2719.5,-128.61 2953,-128.61 2953,-128.61 2953,-128.61 4032,-128.61 4155.43,-128.61 4209.17,-152.523 4280,-253.61 4310.45,-297.064 4336.83,-693.006 4341.33,-763.801"/>
<polygon fill="midnightblue" stroke="midnightblue" points="582.174,-223.698 574.53,-231.034 585.08,-230.066 582.174,-223.698"/>
</g>
<!-- Node6&#45;&gt;Node5 -->
<g id="edge16" class="edge"><title>Node6&#45;&gt;Node5</title>
<path fill="none" stroke="midnightblue" d="M504.195,-253.703C490.881,-255.749 476.146,-257.694 461.745,-259.325"/>
<polygon fill="midnightblue" stroke="midnightblue" points="504.748,-257.159 514.069,-252.121 503.641,-250.247 504.748,-257.159"/>
</g>
<!-- Node6&#45;&gt;Node7 -->
<g id="edge18" class="edge"><title>Node6&#45;&gt;Node7</title>
<path fill="none" stroke="midnightblue" d="M618.327,-231.284C693.354,-220.336 820.237,-204.61 930,-204.61 930,-204.61 930,-204.61 3469,-204.61 3577.29,-204.61 3702.44,-220.829 3776.19,-232.075"/>
<polygon fill="midnightblue" stroke="midnightblue" points="617.474,-227.872 608.092,-232.794 618.496,-234.796 617.474,-227.872"/>
</g>
<!-- Node6&#45;&gt;Node8 -->
<g id="edge22" class="edge"><title>Node6&#45;&gt;Node8</title>
<path fill="none" stroke="midnightblue" d="M563.613,-261.154C578.868,-288.028 609.037,-336.888 644,-370.61 666.539,-392.349 697.727,-411.001 718.126,-422.015"/>
<polygon fill="midnightblue" stroke="midnightblue" points="566.613,-259.347 558.687,-252.316 560.499,-262.755 566.613,-259.347"/>
</g>
<!-- Node6&#45;&gt;Node12 -->
<g id="edge260" class="edge"><title>Node6&#45;&gt;Node12</title>
<path fill="none" stroke="midnightblue" d="M617.962,-253.024C967.43,-315.79 2655.54,-636.286 3934,-1186.61 4010.17,-1219.4 4032.14,-1227.38 4094,-1282.61 4113.63,-1300.13 4107.8,-1315.48 4130,-1329.61 4187.58,-1366.26 4234.86,-1311.4 4280,-1362.61 4326.43,-1415.29 4339.97,-1951.57 4341.78,-2034"/>
<polygon fill="midnightblue" stroke="midnightblue" points="618.476,-249.56 608.015,-251.242 617.242,-256.451 618.476,-249.56"/>
</g>
<!-- Node6&#45;&gt;Node28 -->
<g id="edge258" class="edge"><title>Node6&#45;&gt;Node28</title>
<path fill="none" stroke="midnightblue" d="M565.898,-222.765C581.599,-201.556 610.239,-168.053 644,-152.61 759.999,-99.5502 802.442,-128.61 930,-128.61 930,-128.61 930,-128.61 2429,-128.61 2662.5,-128.61 2719.5,-90.6098 2953,-90.6098 2953,-90.6098 2953,-90.6098 3469,-90.6098 3572.38,-90.6098 3691.96,-90.2167 3766.79,-89.9235"/>
<polygon fill="midnightblue" stroke="midnightblue" points="562.967,-220.846 559.984,-231.013 568.656,-224.925 562.967,-220.846"/>
</g>
<!-- Node7&#45;&gt;Node3 -->
<g id="edge20" class="edge"><title>Node7&#45;&gt;Node3</title>
<path fill="none" stroke="midnightblue" d="M3944.26,-235.104C4045.27,-234.019 4195.24,-249.867 4280,-341.61 4309.76,-373.822 4336.29,-700.46 4341.19,-763.95"/>
<polygon fill="midnightblue" stroke="midnightblue" points="3943.97,-231.608 3934.03,-235.273 3944.09,-238.607 3943.97,-231.608"/>
</g>
<!-- Node8&#45;&gt;Node3 -->
<g id="edge24" class="edge"><title>Node8&#45;&gt;Node3</title>
<path fill="none" stroke="midnightblue" d="M844.344,-423.12C978.583,-411.865 1217.83,-394.61 1423,-394.61 1423,-394.61 1423,-394.61 4032,-394.61 4087.2,-394.61 4238.86,-371.812 4280,-408.61 4334.64,-457.48 4341.13,-708.535 4341.9,-763.828"/>
<polygon fill="midnightblue" stroke="midnightblue" points="843.739,-419.658 834.069,-423.987 844.328,-426.634 843.739,-419.658"/>
</g>
<!-- Node9 -->
<g id="node22" class="node"><title>Node9</title>
<a xlink:href="../../d3/d52/blanket_8js.html#a8140b4f8a5ed204e55ec65d01ef0e08d" target="_top" xlink:title="parsePostfixExpression">
<polygon fill="white" stroke="black" points="870,-547.11 870,-568.11 990,-568.11 990,-547.11 870,-547.11"/>
<text text-anchor="middle" x="930" y="-555.11" font-family="Helvetica,sans-Serif" font-size="10.00">parsePostfixExpression</text>
</a>
</g>
<!-- Node8&#45;&gt;Node9 -->
<g id="edge26" class="edge"><title>Node8&#45;&gt;Node9</title>
<path fill="none" stroke="midnightblue" d="M763.857,-448.878C803.586,-474.878 880.315,-525.093 913.757,-546.979"/>
<polygon fill="midnightblue" stroke="midnightblue" points="765.569,-445.815 755.285,-443.267 761.735,-451.672 765.569,-445.815"/>
</g>
<!-- Node8&#45;&gt;Node12 -->
<g id="edge256" class="edge"><title>Node8&#45;&gt;Node12</title>
<path fill="none" stroke="midnightblue" d="M740.459,-453.581C755.209,-661.695 881.031,-2348.61 1084,-2348.61 1084,-2348.61 1084,-2348.61 1735,-2348.61 2202.2,-2348.61 2312.8,-2462.61 2780,-2462.61 2780,-2462.61 2780,-2462.61 4032,-2462.61 4143.51,-2462.61 4200.77,-2503.08 4280,-2424.61 4334.14,-2370.99 4341.02,-2111.46 4341.88,-2055.33"/>
<polygon fill="midnightblue" stroke="midnightblue" points="743.935,-453.115 739.742,-443.385 736.952,-453.606 743.935,-453.115"/>
</g>
<!-- Node9&#45;&gt;Node3 -->
<g id="edge28" class="edge"><title>Node9&#45;&gt;Node3</title>
<path fill="none" stroke="midnightblue" d="M971.136,-543.982C1072.74,-511.577 1344.22,-432.61 1577,-432.61 1577,-432.61 1577,-432.61 4032,-432.61 4142.4,-432.61 4197.02,-373.8 4280,-446.61 4329.23,-489.8 4339.86,-712.362 4341.67,-763.932"/>
<polygon fill="midnightblue" stroke="midnightblue" points="970.009,-540.668 961.559,-547.06 972.15,-547.333 970.009,-540.668"/>
</g>
<!-- Node10 -->
<g id="node25" class="node"><title>Node10</title>
<a xlink:href="../../d3/d52/blanket_8js.html#ae5cd9b619fc76e94b0867d235da7dc1c" target="_top" xlink:title="parseUnaryExpression">
<polygon fill="white" stroke="black" points="1026,-737.11 1026,-758.11 1142,-758.11 1142,-737.11 1026,-737.11"/>
<text text-anchor="middle" x="1084" y="-745.11" font-family="Helvetica,sans-Serif" font-size="10.00">parseUnaryExpression</text>
</a>
</g>
<!-- Node9&#45;&gt;Node10 -->
<g id="edge30" class="edge"><title>Node9&#45;&gt;Node10</title>
<path fill="none" stroke="midnightblue" d="M945.223,-576.391C977.164,-615.799 1050.3,-706.028 1075.37,-736.968"/>
<polygon fill="midnightblue" stroke="midnightblue" points="947.737,-573.934 938.721,-568.369 942.299,-578.342 947.737,-573.934"/>
</g>
<!-- Node9&#45;&gt;Node12 -->
<g id="edge254" class="edge"><title>Node9&#45;&gt;Node12</title>
<path fill="none" stroke="midnightblue" d="M931.524,-578.569C946.186,-776.563 1065.76,-2310.61 1251,-2310.61 1251,-2310.61 1251,-2310.61 1901,-2310.61 2371.29,-2310.61 2482.71,-2424.61 2953,-2424.61 2953,-2424.61 2953,-2424.61 4032,-2424.61 4143.58,-2424.61 4200.17,-2463.56 4280,-2385.61 4328.76,-2338 4339.77,-2107.7 4341.66,-2055.25"/>
<polygon fill="midnightblue" stroke="midnightblue" points="934.996,-578.066 930.773,-568.35 928.015,-578.579 934.996,-578.066"/>
</g>
<!-- Node10&#45;&gt;Node3 -->
<g id="edge32" class="edge"><title>Node10&#45;&gt;Node3</title>
<path fill="none" stroke="midnightblue" d="M1105.49,-730.793C1184.44,-670.767 1467.71,-470.61 1735,-470.61 1735,-470.61 1735,-470.61 4032,-470.61 4142.42,-470.61 4196.25,-413.637 4280,-485.61 4323.59,-523.07 4338.37,-716.24 4341.38,-763.948"/>
<polygon fill="midnightblue" stroke="midnightblue" points="1103.09,-728.225 1097.29,-737.089 1107.35,-733.778 1103.09,-728.225"/>
</g>
<!-- Node11 -->
<g id="node28" class="node"><title>Node11</title>
<a xlink:href="../../d3/d52/blanket_8js.html#aade312248455675511d8ccecf0b96416" target="_top" xlink:title="parseMultiplicativeExpression">
<polygon fill="white" stroke="black" points="1178,-832.11 1178,-853.11 1324,-853.11 1324,-832.11 1178,-832.11"/>
<text text-anchor="middle" x="1251" y="-840.11" font-family="Helvetica,sans-Serif" font-size="10.00">parseMultiplicativeExpression</text>
</a>
</g>
<!-- Node10&#45;&gt;Node11 -->
<g id="edge34" class="edge"><title>Node10&#45;&gt;Node11</title>
<path fill="none" stroke="midnightblue" d="M1111.49,-763.246C1145.65,-782.677 1203.01,-815.311 1232.41,-832.033"/>
<polygon fill="midnightblue" stroke="midnightblue" points="1112.93,-760.042 1102.51,-758.139 1109.47,-766.126 1112.93,-760.042"/>
</g>
<!-- Node10&#45;&gt;Node12 -->
<g id="edge252" class="edge"><title>Node10&#45;&gt;Node12</title>
<path fill="none" stroke="midnightblue" d="M1086.3,-768.271C1106.8,-950.229 1261.36,-2272.61 1423,-2272.61 1423,-2272.61 1423,-2272.61 2072,-2272.61 2544.5,-2272.61 2656.5,-2386.61 3129,-2386.61 3129,-2386.61 3129,-2386.61 4032,-2386.61 4143.65,-2386.61 4199.39,-2423.86 4280,-2346.61 4323.38,-2305.04 4338.36,-2104.13 4341.39,-2055.31"/>
<polygon fill="midnightblue" stroke="midnightblue" points="1089.76,-767.71 1085.16,-758.162 1082.8,-768.49 1089.76,-767.71"/>
</g>
<!-- Node11&#45;&gt;Node3 -->
<g id="edge36" class="edge"><title>Node11&#45;&gt;Node3</title>
<path fill="none" stroke="midnightblue" d="M1269.37,-824.672C1342.4,-755.323 1621.85,-508.61 1901,-508.61 1901,-508.61 1901,-508.61 4032,-508.61 4142.51,-508.61 4195.41,-455.489 4280,-526.61 4317.62,-558.242 4336.56,-720.796 4340.98,-764.035"/>
<polygon fill="midnightblue" stroke="midnightblue" points="1266.65,-822.428 1261.85,-831.875 1271.49,-827.481 1266.65,-822.428"/>
</g>
<!-- Node11&#45;&gt;Node12 -->
<g id="edge38" class="edge"><title>Node11&#45;&gt;Node12</title>
<path fill="none" stroke="midnightblue" d="M1251.25,-863.551C1253.84,-1037.37 1282.36,-2234.61 1577,-2234.61 1577,-2234.61 1577,-2234.61 2252,-2234.61 2720.08,-2234.61 2830.92,-2348.61 3299,-2348.61 3299,-2348.61 3299,-2348.61 4032,-2348.61 4143.72,-2348.61 4198.38,-2383.89 4280,-2307.61 4318.13,-2271.98 4336.81,-2099.61 4341.05,-2055.11"/>
<polygon fill="midnightblue" stroke="midnightblue" points="1254.74,-863.362 1251.11,-853.411 1247.74,-863.457 1254.74,-863.362"/>
</g>
<!-- Node13 -->
<g id="node34" class="node"><title>Node13</title>
<a xlink:href="../../d3/d52/blanket_8js.html#a2e6fe0682b4e55d8e98ae5c01b0f6651" target="_top" xlink:title="parseAdditiveExpression">
<polygon fill="white" stroke="black" points="1360.5,-879.11 1360.5,-900.11 1485.5,-900.11 1485.5,-879.11 1360.5,-879.11"/>
<text text-anchor="middle" x="1423" y="-887.11" font-family="Helvetica,sans-Serif" font-size="10.00">parseAdditiveExpression</text>
</a>
</g>
<!-- Node11&#45;&gt;Node13 -->
<g id="edge42" class="edge"><title>Node11&#45;&gt;Node13</title>
<path fill="none" stroke="midnightblue" d="M1299.58,-855.885C1326.48,-863.234 1359.44,-872.241 1384.53,-879.097"/>
<polygon fill="midnightblue" stroke="midnightblue" points="1300.17,-852.417 1289.6,-853.158 1298.32,-859.17 1300.17,-852.417"/>
</g>
<!-- Node12&#45;&gt;Node4 -->
<g id="edge40" class="edge"><title>Node12&#45;&gt;Node4</title>
<path fill="none" stroke="midnightblue" d="M4344.72,-2023.8C4357.79,-1923.79 4413.92,-1494.37 4423.58,-1420.46"/>
<polygon fill="midnightblue" stroke="midnightblue" points="4341.23,-2023.49 4343.41,-2033.85 4348.17,-2024.39 4341.23,-2023.49"/>
</g>
<!-- Node13&#45;&gt;Node3 -->
<g id="edge248" class="edge"><title>Node13&#45;&gt;Node3</title>
<path fill="none" stroke="midnightblue" d="M1440.77,-871.653C1512.57,-801.081 1790.99,-546.61 2072,-546.61 2072,-546.61 2072,-546.61 4032,-546.61 4142.66,-546.61 4194.2,-498.733 4280,-568.61 4311.57,-594.317 4334.33,-725.624 4340.39,-764.04"/>
<polygon fill="midnightblue" stroke="midnightblue" points="1438.03,-869.44 1433.4,-878.968 1442.96,-874.408 1438.03,-869.44"/>
</g>
<!-- Node13&#45;&gt;Node12 -->
<g id="edge250" class="edge"><title>Node13&#45;&gt;Node12</title>
<path fill="none" stroke="midnightblue" d="M1423.34,-910.528C1426.61,-1078.15 1458.77,-2196.61 1735,-2196.61 1735,-2196.61 1735,-2196.61 2429,-2196.61 2893.99,-2196.61 3004.01,-2310.61 3469,-2310.61 3469,-2310.61 3469,-2310.61 4032,-2310.61 4143.79,-2310.61 4197.01,-2343.52 4280,-2268.61 4312.87,-2238.94 4334.95,-2095.47 4340.58,-2055.16"/>
<polygon fill="midnightblue" stroke="midnightblue" points="1426.83,-910.065 1423.15,-900.13 1419.83,-910.192 1426.83,-910.065"/>
</g>
<!-- Node14 -->
<g id="node36" class="node"><title>Node14</title>
<a xlink:href="../../d3/d52/blanket_8js.html#af18e7fadfc65d15335d15562b922e197" target="_top" xlink:title="parseShiftExpression">
<polygon fill="white" stroke="black" points="1522,-903.11 1522,-924.11 1632,-924.11 1632,-903.11 1522,-903.11"/>
<text text-anchor="middle" x="1577" y="-911.11" font-family="Helvetica,sans-Serif" font-size="10.00">parseShiftExpression</text>
</a>
</g>
<!-- Node13&#45;&gt;Node14 -->
<g id="edge44" class="edge"><title>Node13&#45;&gt;Node14</title>
<path fill="none" stroke="midnightblue" d="M1495.56,-900.917C1504.4,-902.295 1513.31,-903.684 1521.84,-905.013"/>
<polygon fill="midnightblue" stroke="midnightblue" points="1496.06,-897.453 1485.64,-899.372 1494.98,-904.37 1496.06,-897.453"/>
</g>
<!-- Node14&#45;&gt;Node3 -->
<g id="edge244" class="edge"><title>Node14&#45;&gt;Node3</title>
<path fill="none" stroke="midnightblue" d="M1596.25,-895.94C1672.78,-827.63 1965.17,-584.61 2252,-584.61 2252,-584.61 2252,-584.61 4032,-584.61 4142.87,-584.61 4192.27,-543.817 4280,-611.61 4330.07,-650.301 4339.71,-734.459 4341.56,-764.057"/>
<polygon fill="midnightblue" stroke="midnightblue" points="1593.47,-893.741 1588.38,-903.036 1598.15,-898.941 1593.47,-893.741"/>
</g>
<!-- Node14&#45;&gt;Node12 -->
<g id="edge246" class="edge"><title>Node14&#45;&gt;Node12</title>
<path fill="none" stroke="midnightblue" d="M1577.77,-934.535C1584.32,-1097.6 1637.09,-2158.61 1901,-2158.61 1901,-2158.61 1901,-2158.61 2429,-2158.61 2970.93,-2158.61 3101.07,-2272.61 3643,-2272.61 3643,-2272.61 3643,-2272.61 4032,-2272.61 4143.87,-2272.61 4195.13,-2302.49 4280,-2229.61 4307.69,-2205.83 4332.7,-2090.99 4339.91,-2055.25"/>
<polygon fill="midnightblue" stroke="midnightblue" points="1581.26,-934.23 1577.38,-924.373 1574.27,-934.501 1581.26,-934.23"/>
</g>
<!-- Node15 -->
<g id="node38" class="node"><title>Node15</title>
<a xlink:href="../../d3/d52/blanket_8js.html#abef72bf489b6ff3ad5f00acefe809217" target="_top" xlink:title="parseRelationalExpression">
<polygon fill="white" stroke="black" points="1668.5,-915.11 1668.5,-936.11 1801.5,-936.11 1801.5,-915.11 1668.5,-915.11"/>
<text text-anchor="middle" x="1735" y="-923.11" font-family="Helvetica,sans-Serif" font-size="10.00">parseRelationalExpression</text>
</a>
</g>
<!-- Node14&#45;&gt;Node15 -->
<g id="edge46" class="edge"><title>Node14&#45;&gt;Node15</title>
<path fill="none" stroke="midnightblue" d="M1642.25,-918.566C1650.87,-919.22 1659.72,-919.892 1668.36,-920.549"/>
<polygon fill="midnightblue" stroke="midnightblue" points="1642.5,-915.074 1632.26,-917.807 1641.97,-922.054 1642.5,-915.074"/>
</g>
<!-- Node15&#45;&gt;Node3 -->
<g id="edge48" class="edge"><title>Node15&#45;&gt;Node3</title>
<path fill="none" stroke="midnightblue" d="M1756.24,-908.468C1837.83,-844.393 2141.06,-622.61 2429,-622.61 2429,-622.61 2429,-622.61 4032,-622.61 4143.14,-622.61 4188.98,-590.842 4280,-654.61 4318.41,-681.52 4334.65,-739.625 4339.91,-763.758"/>
<polygon fill="midnightblue" stroke="midnightblue" points="1753.88,-905.873 1748.21,-914.826 1758.22,-911.36 1753.88,-905.873"/>
</g>
<!-- Node15&#45;&gt;Node12 -->
<g id="edge242" class="edge"><title>Node15&#45;&gt;Node12</title>
<path fill="none" stroke="midnightblue" d="M1736.21,-946.659C1745.95,-1106.34 1817.81,-2120.61 2072,-2120.61 2072,-2120.61 2072,-2120.61 2429,-2120.61 2699.96,-2120.61 3372.04,-2234.61 3643,-2234.61 3643,-2234.61 3643,-2234.61 4032,-2234.61 4143.94,-2234.61 4192.42,-2260.34 4280,-2190.61 4324.16,-2155.45 4337.35,-2082.98 4340.86,-2055.5"/>
<polygon fill="midnightblue" stroke="midnightblue" points="1739.68,-946.08 1735.59,-936.306 1732.69,-946.496 1739.68,-946.08"/>
</g>
<!-- Node16 -->
<g id="node41" class="node"><title>Node16</title>
<a xlink:href="../../d3/d52/blanket_8js.html#a8c016313084b52bb2d2f92b13efa6662" target="_top" xlink:title="parseEqualityExpression">
<polygon fill="white" stroke="black" points="1838.5,-921.11 1838.5,-942.11 1963.5,-942.11 1963.5,-921.11 1838.5,-921.11"/>
<text text-anchor="middle" x="1901" y="-929.11" font-family="Helvetica,sans-Serif" font-size="10.00">parseEqualityExpression</text>
</a>
</g>
<!-- Node15&#45;&gt;Node16 -->
<g id="edge50" class="edge"><title>Node15&#45;&gt;Node16</title>
<path fill="none" stroke="midnightblue" d="M1811.64,-928.38C1820.62,-928.705 1829.7,-929.033 1838.46,-929.349"/>
<polygon fill="midnightblue" stroke="midnightblue" points="1811.68,-924.879 1801.56,-928.016 1811.43,-931.875 1811.68,-924.879"/>
</g>
<!-- Node16&#45;&gt;Node3 -->
<g id="edge238" class="edge"><title>Node16&#45;&gt;Node3</title>
<path fill="none" stroke="midnightblue" d="M1924.3,-915.302C2010.32,-856.754 2319.77,-660.61 2605,-660.61 2605,-660.61 2605,-660.61 4032,-660.61 4143.44,-660.61 4183.32,-642.188 4280,-697.61 4307.7,-713.486 4327.88,-746.94 4336.84,-764.048"/>
<polygon fill="midnightblue" stroke="midnightblue" points="1922.29,-912.442 1916.02,-920.986 1926.25,-918.213 1922.29,-912.442"/>
</g>
<!-- Node16&#45;&gt;Node12 -->
<g id="edge240" class="edge"><title>Node16&#45;&gt;Node12</title>
<path fill="none" stroke="midnightblue" d="M1902.64,-952.364C1915.49,-1107.71 2005.9,-2082.61 2252,-2082.61 2252,-2082.61 2252,-2082.61 2429,-2082.61 2699.96,-2082.61 3372.04,-2196.61 3643,-2196.61 3643,-2196.61 3643,-2196.61 4032,-2196.61 4143.94,-2196.61 4188.41,-2216.98 4280,-2152.61 4314.85,-2128.12 4332.78,-2077.37 4339.19,-2055.27"/>
<polygon fill="midnightblue" stroke="midnightblue" points="1906.12,-951.953 1901.82,-942.269 1899.14,-952.52 1906.12,-951.953"/>
</g>
<!-- Node17 -->
<g id="node43" class="node"><title>Node17</title>
<a xlink:href="../../d3/d52/blanket_8js.html#abc485fee39738abbdad2a2ae268c57a7" target="_top" xlink:title="parseBitwiseANDExpression">
<polygon fill="white" stroke="black" points="2000.5,-924.11 2000.5,-945.11 2143.5,-945.11 2143.5,-924.11 2000.5,-924.11"/>
<text text-anchor="middle" x="2072" y="-932.11" font-family="Helvetica,sans-Serif" font-size="10.00">parseBitwiseANDExpression</text>
</a>
</g>
<!-- Node16&#45;&gt;Node17 -->
<g id="edge52" class="edge"><title>Node16&#45;&gt;Node17</title>
<path fill="none" stroke="midnightblue" d="M1973.88,-932.888C1982.65,-933.042 1991.59,-933.199 2000.34,-933.353"/>
<polygon fill="midnightblue" stroke="midnightblue" points="1973.76,-929.386 1963.7,-932.71 1973.64,-936.385 1973.76,-929.386"/>
</g>
<!-- Node17&#45;&gt;Node3 -->
<g id="edge234" class="edge"><title>Node17&#45;&gt;Node3</title>
<path fill="none" stroke="midnightblue" d="M2098.44,-918.847C2189.61,-866.03 2500.63,-698.61 2780,-698.61 2780,-698.61 2780,-698.61 4032,-698.61 4143.65,-698.61 4174.86,-701.063 4280,-738.61 4297.35,-744.805 4315.36,-755.869 4327.47,-764.102"/>
<polygon fill="midnightblue" stroke="midnightblue" points="2096.46,-915.945 2089.59,-924.011 2100,-921.99 2096.46,-915.945"/>
</g>
<!-- Node17&#45;&gt;Node12 -->
<g id="edge236" class="edge"><title>Node17&#45;&gt;Node12</title>
<path fill="none" stroke="midnightblue" d="M2084.45,-953.71C2123.75,-1013.8 2249.11,-1204.06 2360,-1356.61 2755.4,-1900.55 2970.54,-2158.61 3643,-2158.61 3643,-2158.61 3643,-2158.61 4032,-2158.61 4143.79,-2158.61 4182.64,-2171.56 4280,-2116.61 4306.29,-2101.77 4326.68,-2071.36 4336.16,-2055.22"/>
<polygon fill="midnightblue" stroke="midnightblue" points="2087.3,-951.668 2078.9,-945.209 2081.44,-955.496 2087.3,-951.668"/>
</g>
<!-- Node18 -->
<g id="node45" class="node"><title>Node18</title>
<a xlink:href="../../d3/d52/blanket_8js.html#a3a8032efc2a75b74cee01ba7d0bcc75b" target="_top" xlink:title="parseBitwiseXORExpression">
<polygon fill="white" stroke="black" points="2180.5,-925.11 2180.5,-946.11 2323.5,-946.11 2323.5,-925.11 2180.5,-925.11"/>
<text text-anchor="middle" x="2252" y="-933.11" font-family="Helvetica,sans-Serif" font-size="10.00">parseBitwiseXORExpression</text>
</a>
</g>
<!-- Node17&#45;&gt;Node18 -->
<g id="edge54" class="edge"><title>Node17&#45;&gt;Node18</title>
<path fill="none" stroke="midnightblue" d="M2153.92,-935.065C2162.72,-935.114 2171.63,-935.163 2180.29,-935.211"/>
<polygon fill="midnightblue" stroke="midnightblue" points="2153.68,-931.564 2143.66,-935.008 2153.64,-938.563 2153.68,-931.564"/>
</g>
<!-- Node18&#45;&gt;Node3 -->
<g id="edge230" class="edge"><title>Node18&#45;&gt;Node3</title>
<path fill="none" stroke="midnightblue" d="M2281.97,-920.611C2377.37,-874.291 2683.61,-736.61 2953,-736.61 2953,-736.61 2953,-736.61 4032,-736.61 4141.8,-736.61 4271.86,-760.387 4321.43,-770.325"/>
<polygon fill="midnightblue" stroke="midnightblue" points="2280.34,-917.512 2272.89,-925.051 2283.41,-923.8 2280.34,-917.512"/>
</g>
<!-- Node18&#45;&gt;Node12 -->
<g id="edge232" class="edge"><title>Node18&#45;&gt;Node12</title>
<path fill="none" stroke="midnightblue" d="M2257.43,-955.813C2279.41,-1034.27 2368.58,-1322.94 2534,-1495.61 2979.16,-1960.27 3196.51,-2120.61 3840,-2120.61 3840,-2120.61 3840,-2120.61 4032,-2120.61 4143.38,-2120.61 4175.71,-2123.7 4280,-2084.61 4298.47,-2077.69 4317.16,-2064.62 4329.11,-2055.3"/>
<polygon fill="midnightblue" stroke="midnightblue" points="2260.81,-954.882 2254.78,-946.171 2254.06,-956.742 2260.81,-954.882"/>
</g>
<!-- Node19 -->
<g id="node47" class="node"><title>Node19</title>
<a xlink:href="../../d3/d52/blanket_8js.html#a7c53c509013c172b17e5d8f8d7a7fc55" target="_top" xlink:title="parseBitwiseORExpression">
<polygon fill="white" stroke="black" points="2360.5,-926.11 2360.5,-947.11 2497.5,-947.11 2497.5,-926.11 2360.5,-926.11"/>
<text text-anchor="middle" x="2429" y="-934.11" font-family="Helvetica,sans-Serif" font-size="10.00">parseBitwiseORExpression</text>
</a>
</g>
<!-- Node18&#45;&gt;Node19 -->
<g id="edge56" class="edge"><title>Node18&#45;&gt;Node19</title>
<path fill="none" stroke="midnightblue" d="M2334.01,-936.073C2342.81,-936.123 2351.69,-936.173 2360.31,-936.222"/>
<polygon fill="midnightblue" stroke="midnightblue" points="2333.76,-932.572 2323.74,-936.015 2333.72,-939.572 2333.76,-932.572"/>
</g>
<!-- Node19&#45;&gt;Node3 -->
<g id="edge226" class="edge"><title>Node19&#45;&gt;Node3</title>
<path fill="none" stroke="midnightblue" d="M2464.35,-922.393C2565.9,-882.876 2867.94,-774.61 3129,-774.61 3129,-774.61 3129,-774.61 4032,-774.61 4140.98,-774.61 4271.52,-774.61 4321.32,-774.61"/>
<polygon fill="midnightblue" stroke="midnightblue" points="2462.91,-919.197 2454.88,-926.105 2465.47,-925.714 2462.91,-919.197"/>
</g>
<!-- Node19&#45;&gt;Node12 -->
<g id="edge228" class="edge"><title>Node19&#45;&gt;Node12</title>
<path fill="none" stroke="midnightblue" d="M2430.22,-957.428C2437.89,-1067.91 2489.15,-1580.61 2780,-1580.61 2780,-1580.61 2780,-1580.61 3643,-1580.61 3694.08,-1580.61 4050.54,-1642.77 4094,-1669.61 4108.35,-1678.47 4271.26,-1895.18 4280,-1909.61 4306.6,-1953.5 4329.31,-2010.73 4338.1,-2034.04"/>
<polygon fill="midnightblue" stroke="midnightblue" points="2433.7,-957.003 2429.56,-947.25 2426.71,-957.456 2433.7,-957.003"/>
</g>
<!-- Node20 -->
<g id="node49" class="node"><title>Node20</title>
<a xlink:href="../../d3/d52/blanket_8js.html#acd83789832e062261d4b56a36645bee2" target="_top" xlink:title="parseLogicalANDExpression">
<polygon fill="white" stroke="black" points="2534,-1012.11 2534,-1033.11 2676,-1033.11 2676,-1012.11 2534,-1012.11"/>
<text text-anchor="middle" x="2605" y="-1020.11" font-family="Helvetica,sans-Serif" font-size="10.00">parseLogicalANDExpression</text>
</a>
</g>
<!-- Node19&#45;&gt;Node20 -->
<g id="edge58" class="edge"><title>Node19&#45;&gt;Node20</title>
<path fill="none" stroke="midnightblue" d="M2459.94,-951.729C2495.3,-969.007 2552.27,-996.843 2583.24,-1011.98"/>
<polygon fill="midnightblue" stroke="midnightblue" points="2461.1,-948.401 2450.58,-947.155 2458.03,-954.69 2461.1,-948.401"/>
</g>
<!-- Node20&#45;&gt;Node3 -->
<g id="edge60" class="edge"><title>Node20&#45;&gt;Node3</title>
<path fill="none" stroke="midnightblue" d="M2633.56,-1007.3C2726.53,-958.928 3030.01,-812.61 3299,-812.61 3299,-812.61 3299,-812.61 4032,-812.61 4142.74,-812.61 4170.66,-806.173 4280,-788.61 4293.95,-786.37 4309.45,-782.87 4321.46,-779.93"/>
<polygon fill="midnightblue" stroke="midnightblue" points="2631.73,-1004.31 2624.5,-1012.05 2634.98,-1010.51 2631.73,-1004.31"/>
</g>
<!-- Node20&#45;&gt;Node12 -->
<g id="edge62" class="edge"><title>Node20&#45;&gt;Node12</title>
<path fill="none" stroke="midnightblue" d="M2608.3,-1043.52C2624.92,-1140.61 2708.49,-1542.61 2953,-1542.61 2953,-1542.61 2953,-1542.61 3643,-1542.61 3772.77,-1542.61 3811.04,-1525.12 3934,-1566.61 3951.99,-1572.68 3953.03,-1581.09 3970,-1589.61 4022.67,-1616.06 4044.28,-1604.96 4094,-1636.61 4112.83,-1648.59 4110.83,-1660.18 4130,-1671.61 4190.01,-1707.38 4233.54,-1666.44 4280,-1718.61 4323.2,-1767.12 4338.4,-1983.12 4341.41,-2033.9"/>
<polygon fill="midnightblue" stroke="midnightblue" points="2611.72,-1042.76 2606.64,-1033.47 2604.82,-1043.91 2611.72,-1042.76"/>
</g>
<!-- Node21 -->
<g id="node53" class="node"><title>Node21</title>
<a xlink:href="../../d3/d52/blanket_8js.html#a0448e146785a1b1a89635278d750bf76" target="_top" xlink:title="parseLogicalORExpression">
<polygon fill="white" stroke="black" points="2712.5,-1159.11 2712.5,-1180.11 2847.5,-1180.11 2847.5,-1159.11 2712.5,-1159.11"/>
<text text-anchor="middle" x="2780" y="-1167.11" font-family="Helvetica,sans-Serif" font-size="10.00">parseLogicalORExpression</text>
</a>
</g>
<!-- Node20&#45;&gt;Node21 -->
<g id="edge64" class="edge"><title>Node20&#45;&gt;Node21</title>
<path fill="none" stroke="midnightblue" d="M2625.57,-1039.89C2662.02,-1070.51 2736.95,-1133.45 2767.06,-1158.74"/>
<polygon fill="midnightblue" stroke="midnightblue" points="2627.49,-1036.93 2617.59,-1033.18 2622.99,-1042.29 2627.49,-1036.93"/>
</g>
<!-- Node21&#45;&gt;Node3 -->
<g id="edge66" class="edge"><title>Node21&#45;&gt;Node3</title>
<path fill="none" stroke="midnightblue" d="M2793.42,-1150.66C2835.66,-1093.49 2972.37,-926.61 3129,-926.61 3129,-926.61 3129,-926.61 3643,-926.61 3785.38,-926.61 4156.34,-928.18 4280,-857.61 4309.52,-840.761 4329.25,-803.551 4337.55,-785.227"/>
<polygon fill="midnightblue" stroke="midnightblue" points="2790.52,-1148.71 2787.47,-1158.85 2796.18,-1152.83 2790.52,-1148.71"/>
</g>
<!-- Node21&#45;&gt;Node12 -->
<g id="edge224" class="edge"><title>Node21&#45;&gt;Node12</title>
<path fill="none" stroke="midnightblue" d="M2788.78,-1189.77C2821.81,-1262.15 2946.09,-1504.61 3129,-1504.61 3129,-1504.61 3129,-1504.61 3643,-1504.61 3772.77,-1504.61 3811.04,-1487.12 3934,-1528.61 3951.99,-1534.68 3953.03,-1543.09 3970,-1551.61 4022.67,-1578.06 4044.28,-1566.96 4094,-1598.61 4112.83,-1610.59 4110.83,-1622.18 4130,-1633.61 4190.01,-1669.38 4234.04,-1627.99 4280,-1680.61 4327.86,-1735.41 4339.59,-1979.23 4341.64,-2033.76"/>
<polygon fill="midnightblue" stroke="midnightblue" points="2791.85,-1188.07 2784.57,-1180.38 2785.46,-1190.93 2791.85,-1188.07"/>
</g>
<!-- Node22 -->
<g id="node56" class="node"><title>Node22</title>
<a xlink:href="../../d3/d52/blanket_8js.html#a2821a3216962a83c76a59cabeb771f0c" target="_top" xlink:title="parseConditionalExpression">
<polygon fill="white" stroke="black" points="2884,-1178.11 2884,-1199.11 3022,-1199.11 3022,-1178.11 2884,-1178.11"/>
<text text-anchor="middle" x="2953" y="-1186.11" font-family="Helvetica,sans-Serif" font-size="10.00">parseConditionalExpression</text>
</a>
</g>
<!-- Node21&#45;&gt;Node22 -->
<g id="edge68" class="edge"><title>Node21&#45;&gt;Node22</title>
<path fill="none" stroke="midnightblue" d="M2857.96,-1178.17C2866.6,-1179.12 2875.37,-1180.08 2883.9,-1181.02"/>
<polygon fill="midnightblue" stroke="midnightblue" points="2858.2,-1174.68 2847.88,-1177.06 2857.44,-1181.64 2858.2,-1174.68"/>
</g>
<!-- Node22&#45;&gt;Node3 -->
<g id="edge220" class="edge"><title>Node22&#45;&gt;Node3</title>
<path fill="none" stroke="midnightblue" d="M2973.28,-1171.12C3033.28,-1120.55 3217.01,-973.83 3398,-912.61 3584.55,-849.509 4098.43,-902.853 4280,-826.61 4302.02,-817.363 4322.14,-797.466 4333.17,-785.142"/>
<polygon fill="midnightblue" stroke="midnightblue" points="2970.7,-1168.72 2965.34,-1177.86 2975.23,-1174.06 2970.7,-1168.72"/>
</g>
<!-- Node22&#45;&gt;Node12 -->
<g id="edge222" class="edge"><title>Node22&#45;&gt;Node12</title>
<path fill="none" stroke="midnightblue" d="M2981.72,-1203.93C3068.51,-1249.48 3336.85,-1384.82 3576,-1447.61 3731,-1488.31 3783.67,-1435.09 3934,-1490.61 3952.04,-1497.27 3952.87,-1505.87 3970,-1514.61 4022.36,-1541.32 4044.52,-1528.87 4094,-1560.61 4113.05,-1572.83 4110.61,-1584.95 4130,-1596.61 4189.76,-1632.55 4234.38,-1589.87 4280,-1642.61 4332.78,-1703.63 4340.73,-1975.99 4341.83,-2033.8"/>
<polygon fill="midnightblue" stroke="midnightblue" points="2983.21,-1200.76 2972.73,-1199.19 2979.95,-1206.95 2983.21,-1200.76"/>
</g>
<!-- Node23 -->
<g id="node58" class="node"><title>Node23</title>
<a xlink:href="../../d3/d52/blanket_8js.html#a581bf229967f248813f49806ed5ec40e" target="_top" xlink:title="parseAssignmentExpression">
<polygon fill="white" stroke="black" points="3058.5,-1178.11 3058.5,-1199.11 3199.5,-1199.11 3199.5,-1178.11 3058.5,-1178.11"/>
<text text-anchor="middle" x="3129" y="-1186.11" font-family="Helvetica,sans-Serif" font-size="10.00">parseAssignmentExpression</text>
</a>
</g>
<!-- Node22&#45;&gt;Node23 -->
<g id="edge70" class="edge"><title>Node22&#45;&gt;Node23</title>
<path fill="none" stroke="midnightblue" d="M3032.23,-1181.89C3040.95,-1181.83 3049.8,-1181.86 3058.41,-1181.98"/>
<polygon fill="midnightblue" stroke="midnightblue" points="3032.02,-1178.39 3022.05,-1182 3032.09,-1185.39 3032.02,-1178.39"/>
</g>
<!-- Node23&#45;&gt;Node3 -->
<g id="edge216" class="edge"><title>Node23&#45;&gt;Node3</title>
<path fill="none" stroke="midnightblue" d="M3186,-1175.86C3412.13,-1125.1 4235.88,-938.405 4280,-902.61 4318.54,-871.339 4334.78,-810.265 4339.98,-785.466"/>
<polygon fill="midnightblue" stroke="midnightblue" points="3185,-1172.5 3176.01,-1178.1 3186.53,-1179.33 3185,-1172.5"/>
</g>
<!-- Node23&#45;&gt;Node12 -->
<g id="edge218" class="edge"><title>Node23&#45;&gt;Node12</title>
<path fill="none" stroke="midnightblue" d="M3175.86,-1202.03C3325.96,-1245.32 3793.23,-1382.52 3934,-1452.61 3951.44,-1461.29 3952.7,-1468.66 3970,-1477.61 4022.07,-1504.56 4044.76,-1490.79 4094,-1522.61 4113.27,-1535.06 4110.38,-1547.71 4130,-1559.61 4189.51,-1595.71 4234.65,-1551.81 4280,-1604.61 4309.03,-1638.4 4336.15,-1969.47 4341.17,-2033.81"/>
<polygon fill="midnightblue" stroke="midnightblue" points="3176.6,-1198.6 3166.02,-1199.2 3174.66,-1205.33 3176.6,-1198.6"/>
</g>
<!-- Node23&#45;&gt;Node22 -->
<g id="edge80" class="edge"><title>Node23&#45;&gt;Node22</title>
<path fill="none" stroke="midnightblue" d="M3048.21,-1195.34C3039.47,-1195.39 3030.64,-1195.35 3022.05,-1195.22"/>
<polygon fill="midnightblue" stroke="midnightblue" points="3048.44,-1198.84 3058.41,-1195.24 3048.37,-1191.84 3048.44,-1198.84"/>
</g>
<!-- Node24 -->
<g id="node60" class="node"><title>Node24</title>
<a xlink:href="../../d3/d52/blanket_8js.html#a4dd24748ac2de2377e9de1cea378c8ce" target="_top" xlink:title="parseArguments">
<polygon fill="white" stroke="black" points="3255,-298.11 3255,-319.11 3343,-319.11 3343,-298.11 3255,-298.11"/>
<text text-anchor="middle" x="3299" y="-306.11" font-family="Helvetica,sans-Serif" font-size="10.00">parseArguments</text>
</a>
</g>
<!-- Node23&#45;&gt;Node24 -->
<g id="edge72" class="edge"><title>Node23&#45;&gt;Node24</title>
<path fill="none" stroke="midnightblue" d="M3133.03,-1167.74C3156.93,-1044.03 3279.57,-409.175 3296.95,-319.216"/>
<polygon fill="midnightblue" stroke="midnightblue" points="3129.55,-1167.32 3131.09,-1177.8 3136.42,-1168.65 3129.55,-1167.32"/>
</g>
<!-- Node25 -->
<g id="node66" class="node"><title>Node25</title>
<a xlink:href="../../d3/d52/blanket_8js.html#ae038bf12ad5067fcaead75bbd31ced43" target="_top" xlink:title="parseExpression">
<polygon fill="white" stroke="black" points="3424.5,-1781.11 3424.5,-1802.11 3513.5,-1802.11 3513.5,-1781.11 3424.5,-1781.11"/>
<text text-anchor="middle" x="3469" y="-1789.11" font-family="Helvetica,sans-Serif" font-size="10.00">parseExpression</text>
</a>
</g>
<!-- Node23&#45;&gt;Node25 -->
<g id="edge82" class="edge"><title>Node23&#45;&gt;Node25</title>
<path fill="none" stroke="midnightblue" d="M3138.54,-1208.96C3156.66,-1247.31 3197.66,-1332.7 3236,-1402.61 3320.04,-1555.84 3433.54,-1735.85 3462.21,-1780.96"/>
<polygon fill="midnightblue" stroke="midnightblue" points="3141.49,-1207 3134.06,-1199.45 3135.15,-1209.99 3141.49,-1207"/>
</g>
<!-- Node46 -->
<g id="node140" class="node"><title>Node46</title>
<a xlink:href="../../d3/d52/blanket_8js.html#a2d21feb352371240c5be038e221a268c" target="_top" xlink:title="parseVariableDeclaration">
<polygon fill="white" stroke="black" points="3236.5,-1183.11 3236.5,-1204.11 3361.5,-1204.11 3361.5,-1183.11 3236.5,-1183.11"/>
<text text-anchor="middle" x="3299" y="-1191.11" font-family="Helvetica,sans-Serif" font-size="10.00">parseVariableDeclaration</text>
</a>
</g>
<!-- Node23&#45;&gt;Node46 -->
<g id="edge188" class="edge"><title>Node23&#45;&gt;Node46</title>
<path fill="none" stroke="midnightblue" d="M3209.72,-1190.98C3218.7,-1191.25 3227.75,-1191.51 3236.47,-1191.77"/>
<polygon fill="midnightblue" stroke="midnightblue" points="3209.72,-1187.48 3199.62,-1190.69 3209.51,-1194.48 3209.72,-1187.48"/>
</g>
<!-- Node24&#45;&gt;Node6 -->
<g id="edge76" class="edge"><title>Node24&#45;&gt;Node6</title>
<path fill="none" stroke="midnightblue" d="M3244.8,-301.499C3176.78,-293.203 3056.47,-280.61 2953,-280.61 2252,-280.61 2252,-280.61 2252,-280.61 2021.6,-280.61 1965.4,-242.61 1735,-242.61 930,-242.61 930,-242.61 930,-242.61 815.623,-242.61 681.728,-242.144 608.258,-241.848"/>
<polygon fill="midnightblue" stroke="midnightblue" points="3244.5,-304.988 3254.85,-302.74 3245.36,-298.041 3244.5,-304.988"/>
</g>
<!-- Node24&#45;&gt;Node7 -->
<g id="edge78" class="edge"><title>Node24&#45;&gt;Node7</title>
<path fill="none" stroke="midnightblue" d="M3353.42,-301.97C3447.5,-290.494 3641.23,-266.858 3753.8,-253.126"/>
<polygon fill="midnightblue" stroke="midnightblue" points="3352.77,-298.523 3343.27,-303.209 3353.62,-305.472 3352.77,-298.523"/>
</g>
<!-- Node24&#45;&gt;Node8 -->
<g id="edge74" class="edge"><title>Node24&#45;&gt;Node8</title>
<path fill="none" stroke="midnightblue" d="M3244.7,-311.149C3176.58,-314.112 3056.17,-318.61 2953,-318.61 1084,-318.61 1084,-318.61 1084,-318.61 952.791,-318.61 807.043,-393.868 757,-422.089"/>
<polygon fill="midnightblue" stroke="midnightblue" points="3244.93,-314.643 3254.77,-310.706 3244.63,-307.649 3244.93,-314.643"/>
</g>
<!-- Node25&#45;&gt;Node1 -->
<g id="edge158" class="edge"><title>Node25&#45;&gt;Node1</title>
<path fill="none" stroke="midnightblue" d="M3453.81,-1810.47C3400.77,-1875.27 3216.43,-2091.62 3022,-2216.61 2585.96,-2496.92 2419.37,-2538.61 1901,-2538.61 387,-2538.61 387,-2538.61 387,-2538.61 292.026,-2538.61 181.886,-2530.62 116.183,-2525"/>
<polygon fill="midnightblue" stroke="midnightblue" points="3456.81,-1812.33 3460.41,-1802.36 3451.38,-1807.91 3456.81,-1812.33"/>
</g>
<!-- Node25&#45;&gt;Node3 -->
<g id="edge180" class="edge"><title>Node25&#45;&gt;Node3</title>
<path fill="none" stroke="midnightblue" d="M3471.35,-1770.6C3481.07,-1686.46 3520.29,-1374.58 3576,-1294.61 3627.16,-1221.16 3664.9,-1224.5 3746,-1186.61 3858.83,-1133.89 4194.5,-1107.16 4280,-1016.61 4312.83,-981.842 4335.1,-827.431 4340.65,-785.274"/>
<polygon fill="midnightblue" stroke="midnightblue" points="3467.85,-1770.38 3470.19,-1780.71 3474.8,-1771.17 3467.85,-1770.38"/>
</g>
<!-- Node25&#45;&gt;Node12 -->
<g id="edge186" class="edge"><title>Node25&#45;&gt;Node12</title>
<path fill="none" stroke="midnightblue" d="M3471.41,-1812.21C3478.18,-1860.18 3502.02,-1979.63 3576,-2037.61 3669.69,-2111.03 3720.97,-2082.61 3840,-2082.61 3840,-2082.61 3840,-2082.61 4032,-2082.61 4142.66,-2082.61 4170.95,-2079.39 4280,-2060.61 4292.05,-2058.53 4305.19,-2055.29 4316.26,-2052.26"/>
<polygon fill="midnightblue" stroke="midnightblue" points="3474.86,-1811.58 3470.09,-1802.12 3467.91,-1812.49 3474.86,-1811.58"/>
</g>
<!-- Node26 -->
<g id="node68" class="node"><title>Node26</title>
<a xlink:href="../../d3/d52/blanket_8js.html#aeb9d0b4038ec99a33dfff443c4b35474" target="_top" xlink:title="parseCatchClause">
<polygon fill="white" stroke="black" points="3594,-1801.11 3594,-1822.11 3692,-1822.11 3692,-1801.11 3594,-1801.11"/>
<text text-anchor="middle" x="3643" y="-1809.11" font-family="Helvetica,sans-Serif" font-size="10.00">parseCatchClause</text>
</a>
</g>
<!-- Node25&#45;&gt;Node26 -->
<g id="edge84" class="edge"><title>Node25&#45;&gt;Node26</title>
<path fill="none" stroke="midnightblue" d="M3523.84,-1797.91C3546.25,-1800.49 3571.96,-1803.44 3593.75,-1805.95"/>
<polygon fill="midnightblue" stroke="midnightblue" points="3524.14,-1794.43 3513.81,-1796.76 3523.34,-1801.38 3524.14,-1794.43"/>
</g>
<!-- Node27 -->
<g id="node70" class="node"><title>Node27</title>
<a xlink:href="../../d3/d52/blanket_8js.html#aaa0453fb1925f4a1566c2d80ca795f6e" target="_top" xlink:title="parseComputedMember">
<polygon fill="white" stroke="black" points="3582.5,-345.11 3582.5,-366.11 3703.5,-366.11 3703.5,-345.11 3582.5,-345.11"/>
<text text-anchor="middle" x="3643" y="-353.11" font-family="Helvetica,sans-Serif" font-size="10.00">parseComputedMember</text>
</a>
</g>
<!-- Node25&#45;&gt;Node27 -->
<g id="edge86" class="edge"><title>Node25&#45;&gt;Node27</title>
<path fill="none" stroke="midnightblue" d="M3471.56,-1770.97C3480.82,-1696.11 3513.51,-1431.74 3540,-1213.61 3582.23,-865.85 3633.11,-438.673 3641.73,-366.269"/>
<polygon fill="midnightblue" stroke="midnightblue" points="3468.07,-1770.62 3470.32,-1780.97 3475.02,-1771.48 3468.07,-1770.62"/>
</g>
<!-- Node29 -->
<g id="node80" class="node"><title>Node29</title>
<a xlink:href="../../d3/d52/blanket_8js.html#a4739f761ecb9f42e6234ec35d8a24c6f" target="_top" xlink:title="parseDoWhileStatement">
<polygon fill="white" stroke="black" points="3970.5,-1719.11 3970.5,-1740.11 4093.5,-1740.11 4093.5,-1719.11 3970.5,-1719.11"/>
<text text-anchor="middle" x="4032" y="-1727.11" font-family="Helvetica,sans-Serif" font-size="10.00">parseDoWhileStatement</text>
</a>
</g>
<!-- Node25&#45;&gt;Node29 -->
<g id="edge102" class="edge"><title>Node25&#45;&gt;Node29</title>
<path fill="none" stroke="midnightblue" d="M3490.9,-1774.91C3511.56,-1760.26 3544.07,-1740.03 3576,-1731.61 3713.03,-1695.49 3881.37,-1708.9 3970.25,-1720.24"/>
<polygon fill="midnightblue" stroke="midnightblue" points="3488.57,-1772.27 3482.54,-1780.98 3492.68,-1777.93 3488.57,-1772.27"/>
</g>
<!-- Node30 -->
<g id="node82" class="node"><title>Node30</title>
<a xlink:href="../../db/d7b/r_8js.html#a62adfe89743d49ea654466e55ae6232f" target="_top" xlink:title="parseStatement">
<polygon fill="white" stroke="black" points="3797,-1799.11 3797,-1820.11 3883,-1820.11 3883,-1799.11 3797,-1799.11"/>
<text text-anchor="middle" x="3840" y="-1807.11" font-family="Helvetica,sans-Serif" font-size="10.00">parseStatement</text>
</a>
</g>
<!-- Node25&#45;&gt;Node30 -->
<g id="edge166" class="edge"><title>Node25&#45;&gt;Node30</title>
<path fill="none" stroke="midnightblue" d="M3485.79,-1809.78C3505.27,-1829.39 3539.44,-1859.45 3576,-1871.61 3632.51,-1890.4 3651.91,-1884.75 3710,-1871.61 3753.9,-1861.68 3800.34,-1835.06 3824.04,-1820.13"/>
<polygon fill="midnightblue" stroke="midnightblue" points="3488.07,-1807.1 3478.6,-1802.34 3483.03,-1811.96 3488.07,-1807.1"/>
</g>
<!-- Node31 -->
<g id="node85" class="node"><title>Node31</title>
<a xlink:href="../../d3/d52/blanket_8js.html#a07a06da7aef4530fe47e1a5ab71b04bc" target="_top" xlink:title="parseForStatement">
<polygon fill="white" stroke="black" points="3982,-1679.11 3982,-1700.11 4082,-1700.11 4082,-1679.11 3982,-1679.11"/>
<text text-anchor="middle" x="4032" y="-1687.11" font-family="Helvetica,sans-Serif" font-size="10.00">parseForStatement</text>
</a>
</g>
<!-- Node25&#45;&gt;Node31 -->
<g id="edge156" class="edge"><title>Node25&#45;&gt;Node31</title>
<path fill="none" stroke="midnightblue" d="M3485.13,-1773.42C3504.43,-1753.1 3538.82,-1721.29 3576,-1707.61 3715.6,-1656.25 3895.71,-1670.54 3981.82,-1681.82"/>
<polygon fill="midnightblue" stroke="midnightblue" points="3482.49,-1771.11 3478.27,-1780.83 3487.63,-1775.87 3482.49,-1771.11"/>
</g>
<!-- Node32 -->
<g id="node88" class="node"><title>Node32</title>
<a xlink:href="../../d3/d52/blanket_8js.html#ab95c5ac24cc7e6e98b77e7734af06692" target="_top" xlink:title="parseIfStatement">
<polygon fill="white" stroke="black" points="3986,-1917.11 3986,-1938.11 4078,-1938.11 4078,-1917.11 3986,-1917.11"/>
<text text-anchor="middle" x="4032" y="-1925.11" font-family="Helvetica,sans-Serif" font-size="10.00">parseIfStatement</text>
</a>
</g>
<!-- Node25&#45;&gt;Node32 -->
<g id="edge160" class="edge"><title>Node25&#45;&gt;Node32</title>
<path fill="none" stroke="midnightblue" d="M3475.7,-1812.15C3488.59,-1847.82 3520.57,-1920.2 3576,-1949.61 3645.93,-1986.71 3884.36,-1952.52 3985.76,-1935.7"/>
<polygon fill="midnightblue" stroke="midnightblue" points="3478.89,-1810.66 3472.31,-1802.35 3472.27,-1812.94 3478.89,-1810.66"/>
</g>
<!-- Node38 -->
<g id="node103" class="node"><title>Node38</title>
<a xlink:href="../../d3/d52/blanket_8js.html#a5dc09ab3f61dde211ca1a3b90d891fe8" target="_top" xlink:title="parseSwitchCase">
<polygon fill="white" stroke="black" points="3985,-1957.11 3985,-1978.11 4079,-1978.11 4079,-1957.11 3985,-1957.11"/>
<text text-anchor="middle" x="4032" y="-1965.11" font-family="Helvetica,sans-Serif" font-size="10.00">parseSwitchCase</text>
</a>
</g>
<!-- Node25&#45;&gt;Node38 -->
<g id="edge168" class="edge"><title>Node25&#45;&gt;Node38</title>
<path fill="none" stroke="midnightblue" d="M3474,-1812.28C3484.82,-1851.86 3514.56,-1937.56 3576,-1972.61 3716.11,-2052.55 3922.05,-2002.07 4000.28,-1978.14"/>
<polygon fill="midnightblue" stroke="midnightblue" points="3477.34,-1811.21 3471.44,-1802.41 3470.57,-1812.97 3477.34,-1811.21"/>
</g>
<!-- Node39 -->
<g id="node107" class="node"><title>Node39</title>
<a xlink:href="../../db/d7b/r_8js.html#a146bde02681c612af3f8e87db808b799" target="_top" xlink:title="parseSwitchStatement">
<polygon fill="white" stroke="black" points="4147,-1919.11 4147,-1940.11 4263,-1940.11 4263,-1919.11 4147,-1919.11"/>
<text text-anchor="middle" x="4205" y="-1927.11" font-family="Helvetica,sans-Serif" font-size="10.00">parseSwitchStatement</text>
</a>
</g>
<!-- Node25&#45;&gt;Node39 -->
<g id="edge170" class="edge"><title>Node25&#45;&gt;Node39</title>
<path fill="none" stroke="midnightblue" d="M3472.33,-1812.26C3480.69,-1856.7 3507.08,-1961.11 3576,-2007.61 3671.49,-2072.04 3985.49,-2026.29 4094,-1987.61 4129.23,-1975.05 4167.22,-1953.19 4188.37,-1940.19"/>
<polygon fill="midnightblue" stroke="midnightblue" points="3475.76,-1811.57 3470.57,-1802.33 3468.87,-1812.79 3475.76,-1811.57"/>
</g>
<!-- Node40 -->
<g id="node110" class="node"><title>Node40</title>
<a xlink:href="../../d3/d52/blanket_8js.html#a8ae43c12c9e9a63d7e6fe7a0ef681e17" target="_top" xlink:title="parseWhileStatement">
<polygon fill="white" stroke="black" points="3977,-1799.11 3977,-1820.11 4087,-1820.11 4087,-1799.11 3977,-1799.11"/>
<text text-anchor="middle" x="4032" y="-1807.11" font-family="Helvetica,sans-Serif" font-size="10.00">parseWhileStatement</text>
</a>
</g>
<!-- Node25&#45;&gt;Node40 -->
<g id="edge176" class="edge"><title>Node25&#45;&gt;Node40</title>
<path fill="none" stroke="midnightblue" d="M3499.81,-1776.73C3520.75,-1767.46 3549.38,-1756.42 3576,-1751.61 3734.44,-1722.96 3926.36,-1775.49 4000.59,-1799.04"/>
<polygon fill="midnightblue" stroke="midnightblue" points="3498.14,-1773.64 3490.48,-1780.96 3501.03,-1780.02 3498.14,-1773.64"/>
</g>
<!-- Node41 -->
<g id="node113" class="node"><title>Node41</title>
<a xlink:href="../../d3/d52/blanket_8js.html#ac14803936ed02bddcea9ebd93a86a0eb" target="_top" xlink:title="parseWithStatement">
<polygon fill="white" stroke="black" points="3979,-1759.11 3979,-1780.11 4085,-1780.11 4085,-1759.11 3979,-1759.11"/>
<text text-anchor="middle" x="4032" y="-1767.11" font-family="Helvetica,sans-Serif" font-size="10.00">parseWithStatement</text>
</a>
</g>
<!-- Node25&#45;&gt;Node41 -->
<g id="edge178" class="edge"><title>Node25&#45;&gt;Node41</title>
<path fill="none" stroke="midnightblue" d="M3493.39,-1775.78C3514.33,-1763.18 3545.84,-1746.55 3576,-1739.61 3610.5,-1731.67 3884.7,-1736.73 3934,-1743.61 3956.49,-1746.75 3981.2,-1753.32 4000.18,-1759.08"/>
<polygon fill="midnightblue" stroke="midnightblue" points="3491.49,-1772.83 3484.82,-1781.06 3495.17,-1778.79 3491.49,-1772.83"/>
</g>
<!-- Node42 -->
<g id="node118" class="node"><title>Node42</title>
<a xlink:href="../../d3/d52/blanket_8js.html#a1f9f27ca61731b2ecbd7691cfb160e9e" target="_top" xlink:title="parseExpressionStatement">
<polygon fill="white" stroke="black" points="3576,-1841.11 3576,-1862.11 3710,-1862.11 3710,-1841.11 3576,-1841.11"/>
<text text-anchor="middle" x="3643" y="-1849.11" font-family="Helvetica,sans-Serif" font-size="10.00">parseExpressionStatement</text>
</a>
</g>
<!-- Node25&#45;&gt;Node42 -->
<g id="edge152" class="edge"><title>Node25&#45;&gt;Node42</title>
<path fill="none" stroke="midnightblue" d="M3504.99,-1805.76C3525.64,-1813.7 3552.14,-1823.6 3576,-1831.61 3585.67,-1834.86 3596.2,-1838.12 3606,-1841.05"/>
<polygon fill="midnightblue" stroke="midnightblue" points="3506.23,-1802.49 3495.64,-1802.14 3503.71,-1809.01 3506.23,-1802.49"/>
</g>
<!-- Node43 -->
<g id="node124" class="node"><title>Node43</title>
<a xlink:href="../../d3/d52/blanket_8js.html#aa385122fdd11e44a81b355661fb20dd4" target="_top" xlink:title="parseReturnStatement">
<polygon fill="white" stroke="black" points="3585.5,-1761.11 3585.5,-1782.11 3700.5,-1782.11 3700.5,-1761.11 3585.5,-1761.11"/>
<text text-anchor="middle" x="3643" y="-1769.11" font-family="Helvetica,sans-Serif" font-size="10.00">parseReturnStatement</text>
</a>
</g>
<!-- Node25&#45;&gt;Node43 -->
<g id="edge162" class="edge"><title>Node25&#45;&gt;Node43</title>
<path fill="none" stroke="midnightblue" d="M3523.78,-1785.31C3543.32,-1783.07 3565.4,-1780.53 3585.2,-1778.25"/>
<polygon fill="midnightblue" stroke="midnightblue" points="3523.34,-1781.84 3513.81,-1786.46 3524.14,-1788.79 3523.34,-1781.84"/>
</g>
<!-- Node44 -->
<g id="node130" class="node"><title>Node44</title>
<a xlink:href="../../db/d7b/r_8js.html#a3b3182e65de7acec03619a7c3db10477" target="_top" xlink:title="parseThrowStatement">
<polygon fill="white" stroke="black" points="3586.5,-1919.11 3586.5,-1940.11 3699.5,-1940.11 3699.5,-1919.11 3586.5,-1919.11"/>
<text text-anchor="middle" x="3643" y="-1927.11" font-family="Helvetica,sans-Serif" font-size="10.00">parseThrowStatement</text>
</a>
</g>
<!-- Node25&#45;&gt;Node44 -->
<g id="edge172" class="edge"><title>Node25&#45;&gt;Node44</title>
<path fill="none" stroke="midnightblue" d="M3482.37,-1810.36C3500.87,-1835.06 3536.48,-1878.44 3576,-1904.61 3585.01,-1910.57 3595.63,-1915.37 3605.73,-1919.11"/>
<polygon fill="midnightblue" stroke="midnightblue" points="3485.1,-1808.16 3476.36,-1802.17 3479.46,-1812.3 3485.1,-1808.16"/>
</g>
<!-- Node45 -->
<g id="node136" class="node"><title>Node45</title>
<a xlink:href="../../db/d7b/r_8js.html#a62ed1e2ea92af56635abd07176d4248b" target="_top" xlink:title="trackGroupExpression">
<polygon fill="white" stroke="black" points="4148.5,-1221.11 4148.5,-1242.11 4261.5,-1242.11 4261.5,-1221.11 4148.5,-1221.11"/>
<text text-anchor="middle" x="4205" y="-1229.11" font-family="Helvetica,sans-Serif" font-size="10.00">trackGroupExpression</text>
</a>
</g>
<!-- Node25&#45;&gt;Node45 -->
<g id="edge182" class="edge"><title>Node25&#45;&gt;Node45</title>
<path fill="none" stroke="midnightblue" d="M3469.92,-1770.71C3473.58,-1709.28 3491.39,-1526.15 3576,-1407.61 3708.25,-1222.32 4019.88,-1219.4 4148.23,-1226.77"/>
<polygon fill="midnightblue" stroke="midnightblue" points="3466.41,-1770.85 3469.38,-1781.02 3473.4,-1771.22 3466.41,-1770.85"/>
</g>
<!-- Node27&#45;&gt;Node3 -->
<g id="edge92" class="edge"><title>Node27&#45;&gt;Node3</title>
<path fill="none" stroke="midnightblue" d="M3713.95,-347.636C3862.27,-332.627 4198.18,-307.835 4280,-380.61 4309.75,-407.072 4336.09,-704.018 4341.13,-764.062"/>
<polygon fill="midnightblue" stroke="midnightblue" points="3713.19,-344.196 3703.6,-348.698 3713.9,-351.159 3713.19,-344.196"/>
</g>
<!-- Node27&#45;&gt;Node5 -->
<g id="edge88" class="edge"><title>Node27&#45;&gt;Node5</title>
<path fill="none" stroke="midnightblue" d="M3595.69,-342.409C3484.52,-312.591 3197.55,-242.61 2953,-242.61 2252,-242.61 2252,-242.61 2252,-242.61 2021.6,-242.61 1965.4,-280.61 1735,-280.61 739,-280.61 739,-280.61 739,-280.61 643.222,-280.61 532.997,-273.509 461.784,-267.989"/>
<polygon fill="midnightblue" stroke="midnightblue" points="3595.01,-345.852 3605.58,-345.081 3596.84,-339.094 3595.01,-345.852"/>
</g>
<!-- Node27&#45;&gt;Node7 -->
<g id="edge98" class="edge"><title>Node27&#45;&gt;Node7</title>
<path fill="none" stroke="midnightblue" d="M3670.4,-339.893C3711.21,-316.482 3786.89,-273.075 3821.66,-253.13"/>
<polygon fill="midnightblue" stroke="midnightblue" points="3668.47,-336.967 3661.53,-344.979 3671.95,-343.039 3668.47,-336.967"/>
</g>
<!-- Node27&#45;&gt;Node8 -->
<g id="edge90" class="edge"><title>Node27&#45;&gt;Node8</title>
<path fill="none" stroke="midnightblue" d="M3572.02,-355.937C3502.46,-356.228 3393.44,-356.61 3299,-356.61 1251,-356.61 1251,-356.61 1251,-356.61 1074.87,-356.61 868.314,-401.16 781.166,-422.042"/>
<polygon fill="midnightblue" stroke="midnightblue" points="3572.43,-359.435 3582.41,-355.892 3572.4,-352.435 3572.43,-359.435"/>
</g>
<!-- Node27&#45;&gt;Node12 -->
<g id="edge100" class="edge"><title>Node27&#45;&gt;Node12</title>
<path fill="none" stroke="midnightblue" d="M3662.38,-373.073C3752.73,-455.868 4134.35,-821.133 4280,-1211.61 4310.16,-1292.45 4337.83,-1942.96 4341.57,-2034.03"/>
<polygon fill="midnightblue" stroke="midnightblue" points="3664.53,-370.301 3654.79,-366.152 3659.82,-375.475 3664.53,-370.301"/>
</g>
<!-- Node27&#45;&gt;Node28 -->
<g id="edge94" class="edge"><title>Node27&#45;&gt;Node28</title>
<path fill="none" stroke="midnightblue" d="M3656.93,-336.801C3695.41,-284.849 3802.27,-140.551 3832.15,-100.209"/>
<polygon fill="midnightblue" stroke="midnightblue" points="3654.11,-334.734 3650.97,-344.853 3659.73,-338.9 3654.11,-334.734"/>
</g>
<!-- Node28&#45;&gt;Node3 -->
<g id="edge96" class="edge"><title>Node28&#45;&gt;Node3</title>
<path fill="none" stroke="midnightblue" d="M3882.43,-76.2055C3970.01,-51.4714 4171.63,-10.1665 4280,-114.61 4328.89,-161.729 4340.33,-682.876 4341.82,-764.017"/>
<polygon fill="midnightblue" stroke="midnightblue" points="3881.21,-72.9147 3872.58,-79.0554 3883.16,-79.639 3881.21,-72.9147"/>
</g>
<!-- Node29&#45;&gt;Node30 -->
<g id="edge104" class="edge"><title>Node29&#45;&gt;Node30</title>
<path fill="none" stroke="midnightblue" d="M4009.45,-1744.19C3997.59,-1748.8 3982.87,-1753.58 3970,-1758.61 3937.7,-1771.22 3902,-1787.9 3876.2,-1799.02"/>
<polygon fill="midnightblue" stroke="midnightblue" points="4011.14,-1747.27 4019.02,-1740.19 4008.44,-1740.82 4011.14,-1747.27"/>
</g>
<!-- Node30&#45;&gt;Node3 -->
<g id="edge148" class="edge"><title>Node30&#45;&gt;Node3</title>
<path fill="none" stroke="midnightblue" d="M3841.9,-1789.08C3848.68,-1725.53 3876.49,-1528.72 3970,-1401.61 4021.44,-1331.69 4051.08,-1325.75 4130,-1289.61 4192.53,-1260.98 4234.34,-1303.04 4280,-1251.61 4312.15,-1215.39 4336.95,-853.063 4341.32,-785.446"/>
<polygon fill="midnightblue" stroke="midnightblue" points="3838.42,-1788.74 3840.9,-1799.04 3845.38,-1789.44 3838.42,-1788.74"/>
</g>
<!-- Node30&#45;&gt;Node12 -->
<g id="edge150" class="edge"><title>Node30&#45;&gt;Node12</title>
<path fill="none" stroke="midnightblue" d="M3848.31,-1829.75C3865.1,-1867.67 3906.93,-1949.28 3970,-1987.61 4083.91,-2056.82 4252.5,-2051.92 4316.29,-2047.08"/>
<polygon fill="midnightblue" stroke="midnightblue" points="3851.41,-1828.09 3844.24,-1820.29 3844.98,-1830.86 3851.41,-1828.09"/>
</g>
<!-- Node30&#45;&gt;Node29 -->
<g id="edge106" class="edge"><title>Node30&#45;&gt;Node29</title>
<path fill="none" stroke="midnightblue" d="M3859.54,-1793.46C3884.7,-1778.13 3929.96,-1756.24 3970,-1740.61 3970.42,-1740.45 3970.84,-1740.28 3971.27,-1740.12"/>
<polygon fill="midnightblue" stroke="midnightblue" points="3857.46,-1790.64 3850.93,-1798.99 3861.24,-1796.53 3857.46,-1790.64"/>
</g>
<!-- Node30&#45;&gt;Node31 -->
<g id="edge108" class="edge"><title>Node30&#45;&gt;Node31</title>
<path fill="none" stroke="midnightblue" d="M3853.34,-1791.24C3875.75,-1766.86 3923.12,-1725.25 3970,-1700.61 3973.8,-1698.61 3977.85,-1696.76 3981.97,-1695.1"/>
<polygon fill="midnightblue" stroke="midnightblue" points="3850.68,-1788.96 3846.73,-1798.79 3855.95,-1793.57 3850.68,-1788.96"/>
</g>
<!-- Node30&#45;&gt;Node32 -->
<g id="edge112" class="edge"><title>Node30&#45;&gt;Node32</title>
<path fill="none" stroke="midnightblue" d="M3869.04,-1826.32C3894.55,-1844.64 3933.23,-1873.42 3970,-1893.61 3986.48,-1902.66 4006.93,-1910.27 4019.73,-1916.91"/>
<polygon fill="midnightblue" stroke="midnightblue" points="3870.77,-1823.25 3860.59,-1820.3 3866.71,-1828.95 3870.77,-1823.25"/>
</g>
<!-- Node33 -->
<g id="node91" class="node"><title>Node33</title>
<a xlink:href="../../db/d7b/r_8js.html#aad27e4b4ae330a680c931e04c5323f56" target="_top" xlink:title="parseSourceElement">
<polygon fill="white" stroke="black" points="3978.5,-1411.11 3978.5,-1432.11 4085.5,-1432.11 4085.5,-1411.11 3978.5,-1411.11"/>
<text text-anchor="middle" x="4032" y="-1419.11" font-family="Helvetica,sans-Serif" font-size="10.00">parseSourceElement</text>
</a>
</g>
<!-- Node30&#45;&gt;Node33 -->
<g id="edge116" class="edge"><title>Node30&#45;&gt;Node33</title>
<path fill="none" stroke="midnightblue" d="M3849.85,-1789.7C3884.59,-1719.49 4000.72,-1484.82 4026.78,-1432.16"/>
<polygon fill="midnightblue" stroke="midnightblue" points="3846.63,-1788.31 3845.34,-1798.83 3852.91,-1791.42 3846.63,-1788.31"/>
</g>
<!-- Node37 -->
<g id="node101" class="node"><title>Node37</title>
<a xlink:href="../../d3/d52/blanket_8js.html#a62adfe89743d49ea654466e55ae6232f" target="_top" xlink:title="parseStatement">
<polygon fill="white" stroke="black" points="3989,-1839.11 3989,-1860.11 4075,-1860.11 4075,-1839.11 3989,-1839.11"/>
<text text-anchor="middle" x="4032" y="-1847.11" font-family="Helvetica,sans-Serif" font-size="10.00">parseStatement</text>
</a>
</g>
<!-- Node30&#45;&gt;Node37 -->
<g id="edge128" class="edge"><title>Node30&#45;&gt;Node37</title>
<path fill="none" stroke="midnightblue" d="M3893.01,-1820.65C3923.13,-1826.93 3960.37,-1834.69 3988.72,-1840.59"/>
<polygon fill="midnightblue" stroke="midnightblue" points="3893.59,-1817.2 3883.09,-1818.59 3892.16,-1824.05 3893.59,-1817.2"/>
</g>
<!-- Node30&#45;&gt;Node38 -->
<g id="edge130" class="edge"><title>Node30&#45;&gt;Node38</title>
<path fill="none" stroke="midnightblue" d="M3852.93,-1828.55C3874.06,-1858.14 3918.81,-1915.26 3970,-1947.61 3975.93,-1951.36 3982.62,-1954.46 3989.36,-1957.02"/>
<polygon fill="midnightblue" stroke="midnightblue" points="3855.76,-1826.49 3847.15,-1820.32 3850.02,-1830.51 3855.76,-1826.49"/>
</g>
<!-- Node30&#45;&gt;Node40 -->
<g id="edge140" class="edge"><title>Node30&#45;&gt;Node40</title>
<path fill="none" stroke="midnightblue" d="M3893.17,-1803.5C3919.27,-1802.67 3950.67,-1802.65 3977,-1803.44"/>
<polygon fill="midnightblue" stroke="midnightblue" points="3892.95,-1800 3883.09,-1803.87 3893.21,-1807 3892.95,-1800"/>
</g>
<!-- Node30&#45;&gt;Node41 -->
<g id="edge144" class="edge"><title>Node30&#45;&gt;Node41</title>
<path fill="none" stroke="midnightblue" d="M3876.82,-1796.49C3905.76,-1788.99 3946.48,-1780.28 3978.94,-1774.55"/>
<polygon fill="midnightblue" stroke="midnightblue" points="3875.86,-1793.13 3867.1,-1799.09 3877.67,-1799.89 3875.86,-1793.13"/>
</g>
<!-- Node31&#45;&gt;Node30 -->
<g id="edge110" class="edge"><title>Node31&#45;&gt;Node30</title>
<path fill="none" stroke="midnightblue" d="M4007.08,-1703.7C3995.44,-1707.83 3981.62,-1712.51 3970,-1718.61 3925.89,-1741.79 3881.34,-1780.01 3857.56,-1799"/>
<polygon fill="midnightblue" stroke="midnightblue" points="4008.46,-1706.92 4016.64,-1700.19 4006.04,-1700.35 4008.46,-1706.92"/>
</g>
<!-- Node32&#45;&gt;Node30 -->
<g id="edge114" class="edge"><title>Node32&#45;&gt;Node30</title>
<path fill="none" stroke="midnightblue" d="M3976.23,-1914.87C3974.11,-1913.81 3972.03,-1912.72 3970,-1911.61 3920.13,-1884.23 3866.77,-1841.06 3847.49,-1820.33"/>
<polygon fill="midnightblue" stroke="midnightblue" points="3975.18,-1918.24 3985.72,-1919.31 3978.15,-1911.9 3975.18,-1918.24"/>
</g>
<!-- Node34 -->
<g id="node93" class="node"><title>Node34</title>
<a xlink:href="../../db/d7b/r_8js.html#a1f1d5e319d9aa434b86d5106f42fc0cb" target="_top" xlink:title="parseFunctionSourceElements">
<polygon fill="white" stroke="red" points="4130,-1299.11 4130,-1320.11 4280,-1320.11 4280,-1299.11 4130,-1299.11"/>
<text text-anchor="middle" x="4205" y="-1307.11" font-family="Helvetica,sans-Serif" font-size="10.00">parseFunctionSourceElements</text>
</a>
</g>
<!-- Node33&#45;&gt;Node34 -->
<g id="edge118" class="edge"><title>Node33&#45;&gt;Node34</title>
<path fill="none" stroke="midnightblue" d="M4056.72,-1405.61C4092.61,-1382.37 4158.18,-1339.92 4188.64,-1320.2"/>
<polygon fill="midnightblue" stroke="midnightblue" points="4054.77,-1402.7 4048.28,-1411.07 4058.57,-1408.58 4054.77,-1402.7"/>
</g>
<!-- Node35 -->
<g id="node97" class="node"><title>Node35</title>
<a xlink:href="../../db/d7b/r_8js.html#a505a7bb7bf62010ed273bf23bd47a3b7" target="_top" xlink:title="parseSourceElements">
<polygon fill="white" stroke="red" points="4148.5,-1493.11 4148.5,-1514.11 4261.5,-1514.11 4261.5,-1493.11 4148.5,-1493.11"/>
<text text-anchor="middle" x="4205" y="-1501.11" font-family="Helvetica,sans-Serif" font-size="10.00">parseSourceElements</text>
</a>
</g>
<!-- Node33&#45;&gt;Node35 -->
<g id="edge124" class="edge"><title>Node33&#45;&gt;Node35</title>
<path fill="none" stroke="midnightblue" d="M4075.06,-1436.24C4081.64,-1439.24 4088.17,-1442.7 4094,-1446.61 4113.05,-1459.4 4110.2,-1472.01 4130,-1483.61 4136.51,-1487.42 4143.76,-1490.53 4151.12,-1493.05"/>
<polygon fill="midnightblue" stroke="midnightblue" points="4076.03,-1432.85 4065.46,-1432.17 4073.3,-1439.29 4076.03,-1432.85"/>
</g>
<!-- Node36 -->
<g id="node99" class="node"><title>Node36</title>
<a xlink:href="../../d3/d52/blanket_8js.html#a253d6f02434542babebca9e1a6e0a330" target="_top" xlink:title="parseStatementList">
<polygon fill="white" stroke="red" points="4154.5,-1453.11 4154.5,-1474.11 4255.5,-1474.11 4255.5,-1453.11 4154.5,-1453.11"/>
<text text-anchor="middle" x="4205" y="-1461.11" font-family="Helvetica,sans-Serif" font-size="10.00">parseStatementList</text>
</a>
</g>
<!-- Node33&#45;&gt;Node36 -->
<g id="edge126" class="edge"><title>Node33&#45;&gt;Node36</title>
<path fill="none" stroke="midnightblue" d="M4085.51,-1434.6C4109.97,-1440.54 4138.57,-1447.48 4161.66,-1453.09"/>
<polygon fill="midnightblue" stroke="midnightblue" points="4086.2,-1431.17 4075.66,-1432.21 4084.55,-1437.97 4086.2,-1431.17"/>
</g>
<!-- Node34&#45;&gt;Node3 -->
<g id="edge120" class="edge"><title>Node34&#45;&gt;Node3</title>
<path fill="none" stroke="midnightblue" d="M4269.88,-1293.86C4273.65,-1291.23 4277.09,-1288.17 4280,-1284.61 4312.87,-1244.38 4337.27,-854.904 4341.38,-785.246"/>
<polygon fill="midnightblue" stroke="midnightblue" points="4268.03,-1290.88 4261.16,-1298.94 4271.56,-1296.93 4268.03,-1290.88"/>
</g>
<!-- Node34&#45;&gt;Node12 -->
<g id="edge122" class="edge"><title>Node34&#45;&gt;Node12</title>
<path fill="none" stroke="midnightblue" d="M4270.02,-1325.25C4273.76,-1327.9 4277.15,-1331 4280,-1334.61 4325.32,-1392.04 4339.82,-1949.31 4341.76,-2033.88"/>
<polygon fill="midnightblue" stroke="midnightblue" points="4271.74,-1322.2 4261.35,-1320.13 4268.17,-1328.23 4271.74,-1322.2"/>
</g>
<!-- Node38&#45;&gt;Node3 -->
<g id="edge132" class="edge"><title>Node38&#45;&gt;Node3</title>
<path fill="none" stroke="midnightblue" d="M4087.86,-1952.35C4090.03,-1950.91 4092.09,-1949.33 4094,-1947.61 4170.35,-1878.63 4254.74,-1623.35 4280,-1523.61 4317.75,-1374.51 4338.55,-864.83 4341.61,-785.129"/>
<polygon fill="midnightblue" stroke="midnightblue" points="4086.08,-1949.34 4079.05,-1957.26 4089.49,-1955.45 4086.08,-1949.34"/>
</g>
<!-- Node38&#45;&gt;Node12 -->
<g id="edge134" class="edge"><title>Node38&#45;&gt;Node12</title>
<path fill="none" stroke="midnightblue" d="M4089.27,-1964.02C4141.11,-1962.91 4218.51,-1966.67 4280,-1992.61 4302,-2001.89 4322.13,-2021.78 4333.16,-2034.09"/>
<polygon fill="midnightblue" stroke="midnightblue" points="4089.16,-1960.52 4079.26,-1964.3 4089.36,-1967.52 4089.16,-1960.52"/>
</g>
<!-- Node38&#45;&gt;Node39 -->
<g id="edge136" class="edge"><title>Node38&#45;&gt;Node39</title>
<path fill="none" stroke="midnightblue" d="M4089.17,-1955.05C4111.21,-1950.21 4136.12,-1944.74 4157.18,-1940.11"/>
<polygon fill="midnightblue" stroke="midnightblue" points="4088.29,-1951.66 4079.27,-1957.23 4089.79,-1958.5 4088.29,-1951.66"/>
</g>
<!-- Node39&#45;&gt;Node30 -->
<g id="edge138" class="edge"><title>Node39&#45;&gt;Node30</title>
<path fill="none" stroke="midnightblue" d="M4142.47,-1916.91C4094.58,-1906.4 4027.23,-1889.93 3970,-1869.61 3929.71,-1855.3 3884.88,-1833.14 3859.79,-1820.13"/>
<polygon fill="midnightblue" stroke="midnightblue" points="4141.86,-1920.36 4152.38,-1919.06 4143.35,-1913.52 4141.86,-1920.36"/>
</g>
<!-- Node40&#45;&gt;Node30 -->
<g id="edge142" class="edge"><title>Node40&#45;&gt;Node30</title>
<path fill="none" stroke="midnightblue" d="M3967,-1816.04C3939.33,-1816.63 3907.8,-1816.4 3883.09,-1815.35"/>
<polygon fill="midnightblue" stroke="midnightblue" points="3967.09,-1819.54 3977,-1815.78 3966.91,-1812.54 3967.09,-1819.54"/>
</g>
<!-- Node41&#45;&gt;Node30 -->
<g id="edge146" class="edge"><title>Node41&#45;&gt;Node30</title>
<path fill="none" stroke="midnightblue" d="M3994.91,-1782.8C3962.92,-1791.08 3916.71,-1800.8 3883.09,-1806.37"/>
<polygon fill="midnightblue" stroke="midnightblue" points="3996,-1786.13 4004.76,-1780.17 3994.2,-1779.37 3996,-1786.13"/>
</g>
<!-- Node42&#45;&gt;Node30 -->
<g id="edge154" class="edge"><title>Node42&#45;&gt;Node30</title>
<path fill="none" stroke="midnightblue" d="M3702.52,-1838.92C3732.92,-1832.44 3769.22,-1824.7 3796.89,-1818.8"/>
<polygon fill="midnightblue" stroke="midnightblue" points="3701.51,-1835.56 3692.46,-1841.07 3702.97,-1842.4 3701.51,-1835.56"/>
</g>
<!-- Node43&#45;&gt;Node30 -->
<g id="edge164" class="edge"><title>Node43&#45;&gt;Node30</title>
<path fill="none" stroke="midnightblue" d="M3707.75,-1784.1C3737,-1789.74 3770.76,-1796.25 3796.85,-1801.29"/>
<polygon fill="midnightblue" stroke="midnightblue" points="3708.1,-1780.6 3697.61,-1782.14 3706.77,-1787.48 3708.1,-1780.6"/>
</g>
<!-- Node44&#45;&gt;Node30 -->
<g id="edge174" class="edge"><title>Node44&#45;&gt;Node30</title>
<path fill="none" stroke="midnightblue" d="M3686.2,-1915.48C3694.29,-1912.28 3702.54,-1908.63 3710,-1904.61 3756.76,-1879.42 3805.72,-1839.29 3827.86,-1820.27"/>
<polygon fill="midnightblue" stroke="midnightblue" points="3684.96,-1912.21 3676.85,-1919.02 3687.44,-1918.76 3684.96,-1912.21"/>
</g>
<!-- Node45&#45;&gt;Node3 -->
<g id="edge184" class="edge"><title>Node45&#45;&gt;Node3</title>
<path fill="none" stroke="midnightblue" d="M4269.6,-1215.92C4273.47,-1213.28 4277,-1210.2 4280,-1206.61 4308.05,-1173.02 4335.96,-848.305 4341.14,-785.204"/>
<polygon fill="midnightblue" stroke="midnightblue" points="4267.61,-1213.02 4260.66,-1221.02 4271.08,-1219.1 4267.61,-1213.02"/>
</g>
<!-- Node46&#45;&gt;Node3 -->
<g id="edge190" class="edge"><title>Node46&#45;&gt;Node3</title>
<path fill="none" stroke="midnightblue" d="M3358.84,-1180.92C3570.45,-1135.97 4271.3,-986.644 4280,-978.61 4309.57,-951.296 4333.65,-823.14 4340.22,-785.211"/>
<polygon fill="midnightblue" stroke="midnightblue" points="3357.89,-1177.54 3348.84,-1183.04 3359.35,-1184.39 3357.89,-1177.54"/>
</g>
<!-- Node46&#45;&gt;Node12 -->
<g id="edge214" class="edge"><title>Node46&#45;&gt;Node12</title>
<path fill="none" stroke="midnightblue" d="M3342.94,-1207.13C3484.67,-1250.79 3921.32,-1385.71 3934,-1394.61 3955.54,-1409.72 3948.67,-1426.2 3970,-1441.61 4017.29,-1475.76 4045.2,-1452.66 4094,-1484.61 4113.74,-1497.53 4109.92,-1511.23 4130,-1523.61 4189.04,-1559.99 4234.78,-1514.03 4280,-1566.61 4311.65,-1603.41 4336.85,-1966.09 4341.3,-2033.76"/>
<polygon fill="midnightblue" stroke="midnightblue" points="3343.84,-1203.75 3333.25,-1204.15 3341.78,-1210.44 3343.84,-1203.75"/>
</g>
<!-- Node47 -->
<g id="node143" class="node"><title>Node47</title>
<a xlink:href="../../d3/d52/blanket_8js.html#a1f40bff1db8e3db86f93e8fa26d32564" target="_top" xlink:title="parseVariableDeclarationList">
<polygon fill="white" stroke="black" points="3398.5,-1183.11 3398.5,-1204.11 3539.5,-1204.11 3539.5,-1183.11 3398.5,-1183.11"/>
<text text-anchor="middle" x="3469" y="-1191.11" font-family="Helvetica,sans-Serif" font-size="10.00">parseVariableDeclarationList</text>
</a>
</g>
<!-- Node46&#45;&gt;Node47 -->
<g id="edge192" class="edge"><title>Node46&#45;&gt;Node47</title>
<path fill="none" stroke="midnightblue" d="M3372,-1193.61C3380.76,-1193.61 3389.69,-1193.61 3398.42,-1193.61"/>
<polygon fill="midnightblue" stroke="midnightblue" points="3371.82,-1190.11 3361.82,-1193.61 3371.82,-1197.11 3371.82,-1190.11"/>
</g>
<!-- Node48 -->
<g id="node145" class="node"><title>Node48</title>
<a xlink:href="../../d3/d52/blanket_8js.html#aef339b5cc092875eb5b1a74161a34b78" target="_top" xlink:title="parseVariableStatement">
<polygon fill="white" stroke="black" points="3582.5,-1417.11 3582.5,-1438.11 3703.5,-1438.11 3703.5,-1417.11 3582.5,-1417.11"/>
<text text-anchor="middle" x="3643" y="-1425.11" font-family="Helvetica,sans-Serif" font-size="10.00">parseVariableStatement</text>
</a>
</g>
<!-- Node47&#45;&gt;Node48 -->
<g id="edge194" class="edge"><title>Node47&#45;&gt;Node48</title>
<path fill="none" stroke="midnightblue" d="M3482.94,-1212.36C3517.77,-1259.2 3607.72,-1380.17 3635.02,-1416.88"/>
<polygon fill="midnightblue" stroke="midnightblue" points="3485.7,-1210.21 3476.93,-1204.27 3480.09,-1214.39 3485.7,-1210.21"/>
</g>
<!-- Node49 -->
<g id="node148" class="node"><title>Node49</title>
<a xlink:href="../../d3/d52/blanket_8js.html#a93b759af8316cc5fedd9a23ad245254a" target="_top" xlink:title="parseConstLetDeclaration">
<polygon fill="white" stroke="black" points="3775,-1300.11 3775,-1321.11 3905,-1321.11 3905,-1300.11 3775,-1300.11"/>
<text text-anchor="middle" x="3840" y="-1308.11" font-family="Helvetica,sans-Serif" font-size="10.00">parseConstLetDeclaration</text>
</a>
</g>
<!-- Node47&#45;&gt;Node49 -->
<g id="edge198" class="edge"><title>Node47&#45;&gt;Node49</title>
<path fill="none" stroke="midnightblue" d="M3512.17,-1207.22C3586.95,-1230.81 3739.05,-1278.77 3806.5,-1300.04"/>
<polygon fill="midnightblue" stroke="midnightblue" points="3513.17,-1203.87 3502.58,-1204.2 3511.06,-1210.54 3513.17,-1203.87"/>
</g>
<!-- Node50 -->
<g id="node153" class="node"><title>Node50</title>
<a xlink:href="../../d3/d52/blanket_8js.html#a61a7ffe6ee3b9ce3ccd76776339f0fdd" target="_top" xlink:title="parseForVariableDeclaration">
<polygon fill="white" stroke="black" points="3770,-1196.11 3770,-1217.11 3910,-1217.11 3910,-1196.11 3770,-1196.11"/>
<text text-anchor="middle" x="3840" y="-1204.11" font-family="Helvetica,sans-Serif" font-size="10.00">parseForVariableDeclaration</text>
</a>
</g>
<!-- Node47&#45;&gt;Node50 -->
<g id="edge206" class="edge"><title>Node47&#45;&gt;Node50</title>
<path fill="none" stroke="midnightblue" d="M3543.87,-1181.77C3554.62,-1180.46 3565.58,-1179.34 3576,-1178.61 3635.41,-1174.47 3650.78,-1172.3 3710,-1178.61 3741.11,-1181.92 3775.7,-1189.57 3801.38,-1196.04"/>
<polygon fill="midnightblue" stroke="midnightblue" points="3543.11,-1178.33 3533.63,-1183.07 3544,-1185.28 3543.11,-1178.33"/>
</g>
<!-- Node48&#45;&gt;Node30 -->
<g id="edge196" class="edge"><title>Node48&#45;&gt;Node30</title>
<path fill="none" stroke="midnightblue" d="M3653.1,-1447.19C3688.65,-1516.12 3807.36,-1746.31 3834.46,-1798.86"/>
<polygon fill="midnightblue" stroke="midnightblue" points="3656.17,-1445.51 3648.47,-1438.23 3649.95,-1448.72 3656.17,-1445.51"/>
</g>
<!-- Node49&#45;&gt;Node3 -->
<g id="edge202" class="edge"><title>Node49&#45;&gt;Node3</title>
<path fill="none" stroke="midnightblue" d="M3879.93,-1296.71C3935.77,-1277.32 4040.42,-1241.23 4130,-1211.61 4196.46,-1189.64 4234.4,-1216.71 4280,-1163.61 4330.79,-1104.47 4340.29,-842.112 4341.76,-785.43"/>
<polygon fill="midnightblue" stroke="midnightblue" points="3878.71,-1293.42 3870.41,-1300.01 3881.01,-1300.04 3878.71,-1293.42"/>
</g>
<!-- Node49&#45;&gt;Node12 -->
<g id="edge204" class="edge"><title>Node49&#45;&gt;Node12</title>
<path fill="none" stroke="midnightblue" d="M3883.1,-1324.31C3939.66,-1342.21 4042.08,-1374.37 4130,-1400.61 4196.45,-1420.44 4235.47,-1390.44 4280,-1443.61 4319.57,-1490.85 4338.74,-1957.8 4341.62,-2034.09"/>
<polygon fill="midnightblue" stroke="midnightblue" points="3884.01,-1320.92 3873.42,-1321.24 3881.9,-1327.6 3884.01,-1320.92"/>
</g>
<!-- Node49&#45;&gt;Node33 -->
<g id="edge200" class="edge"><title>Node49&#45;&gt;Node33</title>
<path fill="none" stroke="midnightblue" d="M3892.69,-1324.7C3906.99,-1330.08 3921.85,-1337.25 3934,-1346.61 3955.69,-1363.32 3948.45,-1379.71 3970,-1396.61 3977.67,-1402.63 3986.98,-1407.39 3996.03,-1411.07"/>
<polygon fill="midnightblue" stroke="midnightblue" points="3893.53,-1321.28 3882.93,-1321.25 3891.2,-1327.88 3893.53,-1321.28"/>
</g>
<!-- Node50&#45;&gt;Node3 -->
<g id="edge210" class="edge"><title>Node50&#45;&gt;Node3</title>
<path fill="none" stroke="midnightblue" d="M3895.52,-1193.9C3918.51,-1188.84 3945.48,-1183.15 3970,-1178.61 4038.55,-1165.93 4230.25,-1179.44 4280,-1130.61 4330.82,-1080.74 4340.26,-839.398 4341.75,-785.36"/>
<polygon fill="midnightblue" stroke="midnightblue" points="3894.6,-1190.52 3885.59,-1196.11 3896.11,-1197.36 3894.6,-1190.52"/>
</g>
<!-- Node50&#45;&gt;Node12 -->
<g id="edge212" class="edge"><title>Node50&#45;&gt;Node12</title>
<path fill="none" stroke="midnightblue" d="M3866.34,-1222.69C3892.4,-1238.44 3933.56,-1262.87 3970,-1282.61 4039.91,-1320.47 4055.48,-1334.91 4130,-1362.61 4194.46,-1386.57 4235.21,-1348.43 4280,-1400.61 4323.12,-1450.84 4339.4,-1954.7 4341.71,-2034.1"/>
<polygon fill="midnightblue" stroke="midnightblue" points="3867.82,-1219.5 3857.45,-1217.3 3864.19,-1225.48 3867.82,-1219.5"/>
</g>
<!-- Node50&#45;&gt;Node31 -->
<g id="edge208" class="edge"><title>Node50&#45;&gt;Node31</title>
<path fill="none" stroke="midnightblue" d="M3865.48,-1222.77C3887,-1237.77 3916.95,-1262.03 3934,-1290.61 3969.34,-1349.86 3953.63,-1374.59 3970,-1441.61 3992.43,-1533.44 4020.45,-1644.14 4029.24,-1678.74"/>
<polygon fill="midnightblue" stroke="midnightblue" points="3867.36,-1219.82 3857.12,-1217.12 3863.44,-1225.62 3867.36,-1219.82"/>
</g>
</g>
</svg>
        <g id="navigator" transform="translate(0 0)" fill="#404254">
                <rect fill="#f2f5e9" fill-opacity="0.5" stroke="#606060" stroke-width=".5" x="0" y="0" width="60" height="60"/>
                <use id="zoomplus" xlink:href="#zoomPlus" x="17" y="9" onmousedown="handleZoom(evt,'in')"/>
                <use id="zoomminus" xlink:href="#zoomMin" x="42" y="9" onmousedown="handleZoom(evt,'out')"/>
                <use id="reset" xlink:href="#resetDef" x="30" y="36" onmousedown="handleReset()"/>
                <g id="arrowUp" xlink:href="#dirArrow" transform="translate(30 24)" onmousedown="handlePan(0,-1)">
                  <use xlink:href="#rim" fill="#404040">
                        <set attributeName="fill" to="#808080" begin="arrowUp.mouseover" end="arrowUp.mouseout"/>
                  </use>
                  <path fill="none" stroke="white" stroke-width="1.5" d="M0,-3.0v7 M-2.5,-0.5L0,-3.0L2.5,-0.5"/>
                </g>
                <g id="arrowRight" xlink:href="#dirArrow" transform="rotate(90) translate(36 -43)" onmousedown="handlePan(1,0)">
                  <use xlink:href="#rim" fill="#404040">
                        <set attributeName="fill" to="#808080" begin="arrowRight.mouseover" end="arrowRight.mouseout"/>
                  </use>
                  <path fill="none" stroke="white" stroke-width="1.5" d="M0,-3.0v7 M-2.5,-0.5L0,-3.0L2.5,-0.5"/>
                </g>
                <g id="arrowDown" xlink:href="#dirArrow" transform="rotate(180) translate(-30 -48)" onmousedown="handlePan(0,1)">
                  <use xlink:href="#rim" fill="#404040">
                        <set attributeName="fill" to="#808080" begin="arrowDown.mouseover" end="arrowDown.mouseout"/>
                  </use>
                  <path fill="none" stroke="white" stroke-width="1.5" d="M0,-3.0v7 M-2.5,-0.5L0,-3.0L2.5,-0.5"/>
                </g>
                <g id="arrowLeft" xlink:href="#dirArrow" transform="rotate(270) translate(-36 17)" onmousedown="handlePan(-1,0)">
                  <use xlink:href="#rim" fill="#404040">
                        <set attributeName="fill" to="#808080" begin="arrowLeft.mouseover" end="arrowLeft.mouseout"/>
                  </use>
                  <path fill="none" stroke="white" stroke-width="1.5" d="M0,-3.0v7 M-2.5,-0.5L0,-3.0L2.5,-0.5"/>
                </g>
        </g>
</svg>
