<?xml version="1.0" encoding="UTF-8" standalone="no"?>
<!DOCTYPE svg PUBLIC "-//W3C//DTD SVG 1.1//EN"
 "http://www.w3.org/Graphics/SVG/1.1/DTD/svg11.dtd">
<!-- Generated by graphviz version 2.26.3 (20100126.1600)
 -->
<!-- Title: G Pages: 1 -->
<!--zoomable 2803 -->
<svg id="main" version="1.1" xmlns="http://www.w3.org/2000/svg" xmlns:xlink="http://www.w3.org/1999/xlink" xml:space="preserve" onload="init(evt)">
        <defs>
                <circle id="rim" cx="0" cy="0" r="7"/>
                <circle id="rim2" cx="0" cy="0" r="3.5"/>
                <g id="zoomPlus">
                        <use xlink:href="#rim" fill="#404040">
                                <set attributeName="fill" to="#808080" begin="zoomplus.mouseover" end="zoomplus.mouseout"/>
                        </use>
                        <path d="M-4,0h8M0,-4v8" fill="none" stroke="white" stroke-width="1.5" pointer-events="none"/>
                </g>
                <g id="zoomMin">
                        <use xlink:href="#rim" fill="#404040">
                                <set attributeName="fill" to="#808080" begin="zoomminus.mouseover" end="zoomminus.mouseout"/>
                        </use>
                        <path d="M-4,0h8" fill="none" stroke="white" stroke-width="1.5" pointer-events="none"/>
                </g>
                <g id="dirArrow">
                        <path fill="none" stroke="white" stroke-width="1.5" d="M0,-3.0v7 M-2.5,-0.5L0,-3.0L2.5,-0.5"/>
                </g>
               <g id="resetDef">
                       <use xlink:href="#rim2" fill="#404040">
                               <set attributeName="fill" to="#808080" begin="reset.mouseover" end="reset.mouseout"/>
                       </use>
               </g>
        </defs>

<script type="text/javascript">
var viewWidth = 4502;
var viewHeight = 2803;
var sectionId = 'dynsection-27';
</script>
<script xlink:href="../../svgpan.js"/>
<svg id="graph" class="graph">
<g id="viewport">
<title>G</title>
<polygon fill="white" stroke="white" points="-4,5 -4,-2799.39 4499,-2799.39 4499,5 -4,5"/>
<!-- Node1 -->
<g id="node1" class="node"><title>Node1</title>
<polygon fill="#bfbfbf" stroke="black" points="0.5,-509.65 0.5,-530.65 125.5,-530.65 125.5,-509.65 0.5,-509.65"/>
<text text-anchor="middle" x="63" y="-517.65" font-family="Helvetica,sans-Serif" font-size="10.00">parseContinueStatement</text>
</g>
<!-- Node2 -->
<g id="node3" class="node"><title>Node2</title>
<a xlink:href="../../db/d7b/r_8js.html#a62adfe89743d49ea654466e55ae6232f" target="_top" xlink:title="parseStatement">
<polygon fill="white" stroke="black" points="162,-509.65 162,-530.65 248,-530.65 248,-509.65 162,-509.65"/>
<text text-anchor="middle" x="205" y="-517.65" font-family="Helvetica,sans-Serif" font-size="10.00">parseStatement</text>
</a>
</g>
<!-- Node1&#45;&gt;Node2 -->
<g id="edge2" class="edge"><title>Node1&#45;&gt;Node2</title>
<path fill="none" stroke="midnightblue" d="M135.736,-520.15C144.641,-520.15 153.509,-520.15 161.781,-520.15"/>
<polygon fill="midnightblue" stroke="midnightblue" points="135.697,-516.65 125.697,-520.15 135.697,-523.65 135.697,-516.65"/>
</g>
<!-- Node3 -->
<g id="node5" class="node"><title>Node3</title>
<a xlink:href="../../d3/d52/blanket_8js.html#a4739f761ecb9f42e6234ec35d8a24c6f" target="_top" xlink:title="parseDoWhileStatement">
<polygon fill="white" stroke="black" points="3989.5,-2726.65 3989.5,-2747.65 4112.5,-2747.65 4112.5,-2726.65 3989.5,-2726.65"/>
<text text-anchor="middle" x="4051" y="-2734.65" font-family="Helvetica,sans-Serif" font-size="10.00">parseDoWhileStatement</text>
</a>
</g>
<!-- Node2&#45;&gt;Node3 -->
<g id="edge4" class="edge"><title>Node2&#45;&gt;Node3</title>
<path fill="none" stroke="midnightblue" d="M205.154,-541.104C206.758,-755.465 221.589,-2541.8 284,-2633.15 343.85,-2720.75 396.903,-2728.15 503,-2728.15 503,-2728.15 503,-2728.15 3755,-2728.15 3836.07,-2728.15 3929.62,-2728.15 3989.49,-2730.26"/>
<polygon fill="midnightblue" stroke="midnightblue" points="208.653,-540.863 205.079,-530.889 201.653,-540.915 208.653,-540.863"/>
</g>
<!-- Node4 -->
<g id="node8" class="node"><title>Node4</title>
<a xlink:href="../../d3/d52/blanket_8js.html#a07a06da7aef4530fe47e1a5ab71b04bc" target="_top" xlink:title="parseForStatement">
<polygon fill="white" stroke="black" points="4001,-2670.65 4001,-2691.65 4101,-2691.65 4101,-2670.65 4001,-2670.65"/>
<text text-anchor="middle" x="4051" y="-2678.65" font-family="Helvetica,sans-Serif" font-size="10.00">parseForStatement</text>
</a>
</g>
<!-- Node2&#45;&gt;Node4 -->
<g id="edge8" class="edge"><title>Node2&#45;&gt;Node4</title>
<path fill="none" stroke="midnightblue" d="M205.216,-540.969C207.381,-750.6 226.346,-2472.21 284,-2562.15 342.782,-2653.85 394.078,-2672.15 503,-2672.15 503,-2672.15 503,-2672.15 3755,-2672.15 3841.46,-2672.15 3942.13,-2672.15 4000.98,-2674.7"/>
<polygon fill="midnightblue" stroke="midnightblue" points="208.715,-540.917 205.113,-530.954 201.716,-540.989 208.715,-540.917"/>
</g>
<!-- Node5 -->
<g id="node11" class="node"><title>Node5</title>
<a xlink:href="../../d3/d52/blanket_8js.html#ab95c5ac24cc7e6e98b77e7734af06692" target="_top" xlink:title="parseIfStatement">
<polygon fill="white" stroke="black" points="4005,-2614.65 4005,-2635.65 4097,-2635.65 4097,-2614.65 4005,-2614.65"/>
<text text-anchor="middle" x="4051" y="-2622.65" font-family="Helvetica,sans-Serif" font-size="10.00">parseIfStatement</text>
</a>
</g>
<!-- Node2&#45;&gt;Node5 -->
<g id="edge12" class="edge"><title>Node2&#45;&gt;Node5</title>
<path fill="none" stroke="midnightblue" d="M205.296,-541.008C208.163,-746.137 232.049,-2394.72 284,-2483.15 341.681,-2581.34 389.123,-2616.15 503,-2616.15 503,-2616.15 503,-2616.15 3755,-2616.15 3843.39,-2616.15 3946.62,-2616.15 4004.86,-2618.88"/>
<polygon fill="midnightblue" stroke="midnightblue" points="208.795,-540.892 205.156,-530.942 201.795,-540.989 208.795,-540.892"/>
</g>
<!-- Node6 -->
<g id="node14" class="node"><title>Node6</title>
<a xlink:href="../../db/d7b/r_8js.html#aad27e4b4ae330a680c931e04c5323f56" target="_top" xlink:title="parseSourceElement">
<polygon fill="white" stroke="black" points="284.5,-2415.65 284.5,-2436.65 391.5,-2436.65 391.5,-2415.65 284.5,-2415.65"/>
<text text-anchor="middle" x="338" y="-2423.65" font-family="Helvetica,sans-Serif" font-size="10.00">parseSourceElement</text>
</a>
</g>
<!-- Node2&#45;&gt;Node6 -->
<g id="edge16" class="edge"><title>Node2&#45;&gt;Node6</title>
<path fill="none" stroke="midnightblue" d="M206.459,-541.063C220.245,-738.62 327.273,-2272.42 337.254,-2415.46"/>
<polygon fill="midnightblue" stroke="midnightblue" points="209.936,-540.601 205.748,-530.869 202.953,-541.088 209.936,-540.601"/>
</g>
<!-- Node9 -->
<g id="node22" class="node"><title>Node9</title>
<a xlink:href="../../db/d7b/r_8js.html#a4bb36e0d0cde43aa023083eb1a91c876" target="_top" xlink:title="patch">
<polygon fill="white" stroke="black" points="4374.5,-1043.65 4374.5,-1064.65 4415.5,-1064.65 4415.5,-1043.65 4374.5,-1043.65"/>
<text text-anchor="middle" x="4395" y="-1051.65" font-family="Helvetica,sans-Serif" font-size="10.00">patch</text>
</a>
</g>
<!-- Node2&#45;&gt;Node9 -->
<g id="edge286" class="edge"><title>Node2&#45;&gt;Node9</title>
<path fill="none" stroke="midnightblue" d="M205.333,-499.328C207.116,-416.058 218.127,-108.36 284,-43.15 354.001,26.1467 404.501,-9.15001 503,-9.15001 503,-9.15001 503,-9.15001 4051,-9.15001 4180.96,-9.15001 4252.52,32.7409 4338,-65.15 4371.94,-104.014 4392.34,-939.246 4394.76,-1043.5"/>
<polygon fill="midnightblue" stroke="midnightblue" points="201.834,-499.278 205.142,-509.343 208.833,-499.412 201.834,-499.278"/>
</g>
<!-- Node11 -->
<g id="node26" class="node"><title>Node11</title>
<a xlink:href="../../db/d7b/r_8js.html#acdaaf121ae542d32ab051476c11ab32a" target="_top" xlink:title="unpatch">
<polygon fill="white" stroke="black" points="4218.5,-1864.65 4218.5,-1885.65 4269.5,-1885.65 4269.5,-1864.65 4218.5,-1864.65"/>
<text text-anchor="middle" x="4244" y="-1872.65" font-family="Helvetica,sans-Serif" font-size="10.00">unpatch</text>
</a>
</g>
<!-- Node2&#45;&gt;Node11 -->
<g id="edge288" class="edge"><title>Node2&#45;&gt;Node11</title>
<path fill="none" stroke="midnightblue" d="M205.085,-541.011C206.054,-759.059 216.285,-2614.91 284,-2707.15 345.056,-2790.32 399.826,-2784.15 503,-2784.15 503,-2784.15 503,-2784.15 3907,-2784.15 3999.78,-2784.15 4047.85,-2822.21 4114,-2757.15 4179.87,-2692.37 4235.95,-1981.28 4243.21,-1885.74"/>
<polygon fill="midnightblue" stroke="midnightblue" points="208.585,-540.884 205.042,-530.899 201.585,-540.914 208.585,-540.884"/>
</g>
<!-- Node34 -->
<g id="node93" class="node"><title>Node34</title>
<a xlink:href="../../d3/d52/blanket_8js.html#ac14803936ed02bddcea9ebd93a86a0eb" target="_top" xlink:title="parseWithStatement">
<polygon fill="white" stroke="black" points="3998,-428.65 3998,-449.65 4104,-449.65 4104,-428.65 3998,-428.65"/>
<text text-anchor="middle" x="4051" y="-436.65" font-family="Helvetica,sans-Serif" font-size="10.00">parseWithStatement</text>
</a>
</g>
<!-- Node2&#45;&gt;Node34 -->
<g id="edge284" class="edge"><title>Node2&#45;&gt;Node34</title>
<path fill="none" stroke="midnightblue" d="M209.413,-499.414C218.34,-467.405 241.408,-407.912 284,-380.15 366.205,-326.568 404.874,-352.15 503,-352.15 503,-352.15 503,-352.15 3055,-352.15 3420.1,-352.15 3858.2,-404.887 4002.4,-428.637"/>
<polygon fill="midnightblue" stroke="midnightblue" points="205.923,-498.937 206.837,-509.492 212.705,-500.671 205.923,-498.937"/>
</g>
<!-- Node40 -->
<g id="node118" class="node"><title>Node40</title>
<a xlink:href="../../d3/d52/blanket_8js.html#a8ae43c12c9e9a63d7e6fe7a0ef681e17" target="_top" xlink:title="parseWhileStatement">
<polygon fill="white" stroke="black" points="3996,-231.65 3996,-252.65 4106,-252.65 4106,-231.65 3996,-231.65"/>
<text text-anchor="middle" x="4051" y="-239.65" font-family="Helvetica,sans-Serif" font-size="10.00">parseWhileStatement</text>
</a>
</g>
<!-- Node2&#45;&gt;Node40 -->
<g id="edge282" class="edge"><title>Node2&#45;&gt;Node40</title>
<path fill="none" stroke="midnightblue" d="M208.254,-499.194C215.773,-462.005 237.392,-385.56 284,-342.15 360.285,-271.099 398.752,-258.15 503,-258.15 503,-258.15 503,-258.15 678,-258.15 1068.59,-258.15 1165.41,-220.15 1556,-220.15 1556,-220.15 1556,-220.15 3755,-220.15 3839.1,-220.15 3936.52,-225.453 3995.93,-231.629"/>
<polygon fill="midnightblue" stroke="midnightblue" points="204.744,-498.924 206.361,-509.395 211.627,-500.201 204.744,-498.924"/>
</g>
<!-- Node41 -->
<g id="node123" class="node"><title>Node41</title>
<a xlink:href="../../d3/d52/blanket_8js.html#a5dc09ab3f61dde211ca1a3b90d891fe8" target="_top" xlink:title="parseSwitchCase">
<polygon fill="white" stroke="black" points="4004,-660.65 4004,-681.65 4098,-681.65 4098,-660.65 4004,-660.65"/>
<text text-anchor="middle" x="4051" y="-668.65" font-family="Helvetica,sans-Serif" font-size="10.00">parseSwitchCase</text>
</a>
</g>
<!-- Node2&#45;&gt;Node41 -->
<g id="edge280" class="edge"><title>Node2&#45;&gt;Node41</title>
<path fill="none" stroke="midnightblue" d="M258.739,-520.15C318.41,-520.15 417.59,-520.15 503,-520.15 503,-520.15 503,-520.15 1013,-520.15 1254.33,-520.15 1314.67,-522.15 1556,-522.15 1556,-522.15 1556,-522.15 3055,-522.15 3429.6,-522.15 3874.81,-626.513 4010.06,-660.554"/>
<polygon fill="midnightblue" stroke="midnightblue" points="258.43,-516.65 248.43,-520.15 258.43,-523.65 258.43,-516.65"/>
</g>
<!-- Node50 -->
<g id="node189" class="node"><title>Node50</title>
<a xlink:href="../../d3/d52/blanket_8js.html#a62adfe89743d49ea654466e55ae6232f" target="_top" xlink:title="parseStatement">
<polygon fill="white" stroke="black" points="295,-398.65 295,-419.65 381,-419.65 381,-398.65 295,-398.65"/>
<text text-anchor="middle" x="338" y="-406.65" font-family="Helvetica,sans-Serif" font-size="10.00">parseStatement</text>
</a>
</g>
<!-- Node2&#45;&gt;Node50 -->
<g id="edge278" class="edge"><title>Node2&#45;&gt;Node50</title>
<path fill="none" stroke="midnightblue" d="M218.555,-501.515C233.057,-482.607 257.567,-453.45 284,-434.15 291.759,-428.484 301.008,-423.636 309.639,-419.758"/>
<polygon fill="midnightblue" stroke="midnightblue" points="215.655,-499.549 212.451,-509.647 221.253,-503.751 215.655,-499.549"/>
</g>
<!-- Node3&#45;&gt;Node2 -->
<g id="edge6" class="edge"><title>Node3&#45;&gt;Node2</title>
<path fill="none" stroke="midnightblue" d="M3979.37,-2744.37C3919.43,-2746.15 3831.63,-2746.15 3755,-2746.15 503,-2746.15 503,-2746.15 503,-2746.15 396.903,-2746.15 343.85,-2738.75 284,-2651.15 220.116,-2557.64 206.084,-688.186 205.063,-530.672"/>
<polygon fill="midnightblue" stroke="midnightblue" points="3979.61,-2747.87 3989.49,-2744.04 3979.38,-2740.87 3979.61,-2747.87"/>
</g>
<!-- Node4&#45;&gt;Node2 -->
<g id="edge10" class="edge"><title>Node4&#45;&gt;Node2</title>
<path fill="none" stroke="midnightblue" d="M3990.96,-2687.99C3931.16,-2690.15 3836.73,-2690.15 3755,-2690.15 503,-2690.15 503,-2690.15 503,-2690.15 394.078,-2690.15 342.782,-2671.85 284,-2580.15 224.985,-2488.09 206.507,-686.394 205.09,-530.816"/>
<polygon fill="midnightblue" stroke="midnightblue" points="3991.13,-2691.49 4000.98,-2687.6 3990.85,-2684.49 3991.13,-2691.49"/>
</g>
<!-- Node5&#45;&gt;Node2 -->
<g id="edge14" class="edge"><title>Node5&#45;&gt;Node2</title>
<path fill="none" stroke="midnightblue" d="M3994.54,-2631.86C3934.98,-2634.15 3838.38,-2634.15 3755,-2634.15 503,-2634.15 503,-2634.15 503,-2634.15 389.123,-2634.15 341.681,-2599.34 284,-2501.15 230.796,-2410.58 207.027,-683.684 205.125,-530.898"/>
<polygon fill="midnightblue" stroke="midnightblue" points="3995.01,-2635.34 4004.86,-2631.42 3994.72,-2628.35 3995.01,-2635.34"/>
</g>
<!-- Node7 -->
<g id="node16" class="node"><title>Node7</title>
<a xlink:href="../../db/d7b/r_8js.html#a1f1d5e319d9aa434b86d5106f42fc0cb" target="_top" xlink:title="parseFunctionSourceElements">
<polygon fill="white" stroke="black" points="428,-2415.65 428,-2436.65 578,-2436.65 578,-2415.65 428,-2415.65"/>
<text text-anchor="middle" x="503" y="-2423.65" font-family="Helvetica,sans-Serif" font-size="10.00">parseFunctionSourceElements</text>
</a>
</g>
<!-- Node6&#45;&gt;Node7 -->
<g id="edge18" class="edge"><title>Node6&#45;&gt;Node7</title>
<path fill="none" stroke="midnightblue" d="M401.8,-2426.15C410.321,-2426.15 419.124,-2426.15 427.817,-2426.15"/>
<polygon fill="midnightblue" stroke="midnightblue" points="401.571,-2422.65 391.571,-2426.15 401.571,-2429.65 401.571,-2422.65"/>
</g>
<!-- Node44 -->
<g id="node167" class="node"><title>Node44</title>
<a xlink:href="../../db/d7b/r_8js.html#a505a7bb7bf62010ed273bf23bd47a3b7" target="_top" xlink:title="parseSourceElements">
<polygon fill="white" stroke="black" points="446.5,-2549.65 446.5,-2570.65 559.5,-2570.65 559.5,-2549.65 446.5,-2549.65"/>
<text text-anchor="middle" x="503" y="-2557.65" font-family="Helvetica,sans-Serif" font-size="10.00">parseSourceElements</text>
</a>
</g>
<!-- Node6&#45;&gt;Node44 -->
<g id="edge246" class="edge"><title>Node6&#45;&gt;Node44</title>
<path fill="none" stroke="midnightblue" d="M358.943,-2443.16C393.38,-2471.13 460.995,-2526.04 489.655,-2549.31"/>
<polygon fill="midnightblue" stroke="midnightblue" points="360.916,-2440.25 350.947,-2436.66 356.503,-2445.69 360.916,-2440.25"/>
</g>
<!-- Node46 -->
<g id="node174" class="node"><title>Node46</title>
<a xlink:href="../../d3/d52/blanket_8js.html#a253d6f02434542babebca9e1a6e0a330" target="_top" xlink:title="parseStatementList">
<polygon fill="white" stroke="black" points="789.5,-208.65 789.5,-229.65 890.5,-229.65 890.5,-208.65 789.5,-208.65"/>
<text text-anchor="middle" x="840" y="-216.65" font-family="Helvetica,sans-Serif" font-size="10.00">parseStatementList</text>
</a>
</g>
<!-- Node6&#45;&gt;Node46 -->
<g id="edge256" class="edge"><title>Node6&#45;&gt;Node46</title>
<path fill="none" stroke="midnightblue" d="M342.654,-2405.69C391.07,-2192.83 801.71,-387.489 837.511,-230.094"/>
<polygon fill="midnightblue" stroke="midnightblue" points="339.212,-2405.04 340.407,-2415.57 346.038,-2406.59 339.212,-2405.04"/>
</g>
<!-- Node8 -->
<g id="node18" class="node"><title>Node8</title>
<a xlink:href="../../db/d7b/r_8js.html#a16cc31d0fa943031ec0447d62f3e7213" target="_top" xlink:title="parseFunctionDeclaration">
<polygon fill="white" stroke="black" points="614,-2492.65 614,-2513.65 742,-2513.65 742,-2492.65 614,-2492.65"/>
<text text-anchor="middle" x="678" y="-2500.65" font-family="Helvetica,sans-Serif" font-size="10.00">parseFunctionDeclaration</text>
</a>
</g>
<!-- Node7&#45;&gt;Node8 -->
<g id="edge20" class="edge"><title>Node7&#45;&gt;Node8</title>
<path fill="none" stroke="midnightblue" d="M552.026,-2439.96C560.882,-2443.16 569.875,-2446.89 578,-2451.15 595.716,-2460.43 596.525,-2468.42 614,-2478.15 624.006,-2483.72 635.507,-2488.63 645.975,-2492.59"/>
<polygon fill="midnightblue" stroke="midnightblue" points="553.114,-2436.63 542.519,-2436.69 550.843,-2443.25 553.114,-2436.63"/>
</g>
<!-- Node7&#45;&gt;Node9 -->
<g id="edge242" class="edge"><title>Node7&#45;&gt;Node9</title>
<path fill="none" stroke="midnightblue" d="M588.538,-2426.15C656.656,-2426.15 754.438,-2426.15 840,-2426.15 840,-2426.15 840,-2426.15 3406,-2426.15 3631.21,-2426.15 3681.79,-2502.15 3907,-2502.15 3907,-2502.15 3907,-2502.15 4051,-2502.15 4280.4,-2502.15 4265.24,-2290.71 4338,-2073.15 4371.68,-1972.43 4392.27,-1166.62 4394.75,-1064.73"/>
<polygon fill="midnightblue" stroke="midnightblue" points="588.288,-2422.65 578.288,-2426.15 588.288,-2429.65 588.288,-2422.65"/>
</g>
<!-- Node7&#45;&gt;Node11 -->
<g id="edge244" class="edge"><title>Node7&#45;&gt;Node11</title>
<path fill="none" stroke="midnightblue" d="M571.056,-2438.37C638.944,-2449.48 746.335,-2464.15 840,-2464.15 840,-2464.15 840,-2464.15 3406,-2464.15 3567.35,-2464.15 4002.09,-2419.39 4114,-2303.15 4175.81,-2238.95 4231.27,-1945.88 4242.1,-1885.9"/>
<polygon fill="midnightblue" stroke="midnightblue" points="571.358,-2434.87 560.92,-2436.68 570.213,-2441.77 571.358,-2434.87"/>
</g>
<!-- Node12 -->
<g id="node29" class="node"><title>Node12</title>
<a xlink:href="../../db/d7b/r_8js.html#a4bd46aa1c20442b3dba2e0092ea30734" target="_top" xlink:title="parseFunctionExpression">
<polygon fill="white" stroke="black" points="614.5,-2358.65 614.5,-2379.65 741.5,-2379.65 741.5,-2358.65 614.5,-2358.65"/>
<text text-anchor="middle" x="678" y="-2366.65" font-family="Helvetica,sans-Serif" font-size="10.00">parseFunctionExpression</text>
</a>
</g>
<!-- Node7&#45;&gt;Node12 -->
<g id="edge34" class="edge"><title>Node7&#45;&gt;Node12</title>
<path fill="none" stroke="midnightblue" d="M545.141,-2412.42C576.035,-2402.36 617.358,-2388.9 645.668,-2379.68"/>
<polygon fill="midnightblue" stroke="midnightblue" points="543.93,-2409.14 535.506,-2415.56 546.098,-2415.79 543.93,-2409.14"/>
</g>
<!-- Node8&#45;&gt;Node2 -->
<g id="edge24" class="edge"><title>Node8&#45;&gt;Node2</title>
<path fill="none" stroke="midnightblue" d="M620.038,-2515.49C531.805,-2530.45 365.471,-2542.9 284,-2446.15 218.12,-2367.91 206.019,-682.273 205.065,-530.987"/>
<polygon fill="midnightblue" stroke="midnightblue" points="620.901,-2518.89 630.141,-2513.71 619.685,-2512 620.901,-2518.89"/>
</g>
<!-- Node8&#45;&gt;Node6 -->
<g id="edge22" class="edge"><title>Node8&#45;&gt;Node6</title>
<path fill="none" stroke="midnightblue" d="M621.585,-2490.37C555.231,-2475.35 446.32,-2450.68 384.563,-2436.7"/>
<polygon fill="midnightblue" stroke="midnightblue" points="620.929,-2493.81 631.455,-2492.61 622.475,-2486.99 620.929,-2493.81"/>
</g>
<!-- Node8&#45;&gt;Node9 -->
<g id="edge26" class="edge"><title>Node8&#45;&gt;Node9</title>
<path fill="none" stroke="midnightblue" d="M752.391,-2502.8C820.278,-2502.51 923.381,-2502.15 1013,-2502.15 1013,-2502.15 1013,-2502.15 3231,-2502.15 3464.5,-2502.15 3521.5,-2540.15 3755,-2540.15 3755,-2540.15 3755,-2540.15 4051,-2540.15 4115,-2540.15 4293.76,-2562.4 4338,-2516.15 4391.28,-2460.45 4394.77,-1195.81 4394.99,-1065.05"/>
<polygon fill="midnightblue" stroke="midnightblue" points="752.206,-2499.3 742.222,-2502.84 752.237,-2506.3 752.206,-2499.3"/>
</g>
<!-- Node8&#45;&gt;Node11 -->
<g id="edge30" class="edge"><title>Node8&#45;&gt;Node11</title>
<path fill="none" stroke="midnightblue" d="M747.182,-2515.29C814.75,-2526.07 920.611,-2540.15 1013,-2540.15 1013,-2540.15 1013,-2540.15 3231,-2540.15 3429.6,-2540.15 3968.05,-2536.84 4114,-2402.15 4194.51,-2327.85 4236.01,-1953.82 4242.95,-1885.78"/>
<polygon fill="midnightblue" stroke="midnightblue" points="747.517,-2511.8 737.086,-2513.65 746.399,-2518.71 747.517,-2511.8"/>
</g>
<!-- Node10 -->
<g id="node24" class="node"><title>Node10</title>
<a xlink:href="../../db/d7b/r_8js.html#a3e70263fa1d00b23249fce45e65e5849" target="_top" xlink:title="parse">
<polygon fill="white" stroke="black" points="4452.5,-1864.65 4452.5,-1885.65 4493.5,-1885.65 4493.5,-1864.65 4452.5,-1864.65"/>
<text text-anchor="middle" x="4473" y="-1872.65" font-family="Helvetica,sans-Serif" font-size="10.00">parse</text>
</a>
</g>
<!-- Node9&#45;&gt;Node10 -->
<g id="edge28" class="edge"><title>Node9&#45;&gt;Node10</title>
<path fill="none" stroke="midnightblue" d="M4396.99,-1075.08C4408.25,-1193.59 4463.77,-1778.05 4471.98,-1864.47"/>
<polygon fill="midnightblue" stroke="midnightblue" points="4400.44,-1074.45 4396.01,-1064.83 4393.48,-1075.12 4400.44,-1074.45"/>
</g>
<!-- Node11&#45;&gt;Node10 -->
<g id="edge32" class="edge"><title>Node11&#45;&gt;Node10</title>
<path fill="none" stroke="midnightblue" d="M4279.88,-1875.15C4328.38,-1875.15 4413.28,-1875.15 4452.31,-1875.15"/>
<polygon fill="midnightblue" stroke="midnightblue" points="4279.82,-1871.65 4269.82,-1875.15 4279.82,-1878.65 4279.82,-1871.65"/>
</g>
<!-- Node12&#45;&gt;Node9 -->
<g id="edge238" class="edge"><title>Node12&#45;&gt;Node9</title>
<path fill="none" stroke="midnightblue" d="M751.696,-2362.57C819.527,-2357.08 922.961,-2350.15 1013,-2350.15 1013,-2350.15 1013,-2350.15 3579,-2350.15 3820.42,-2350.15 3931.18,-2413.82 4114,-2256.15 4256.99,-2132.83 4280.13,-2074.88 4338,-1895.15 4364.69,-1812.27 4391.02,-1156.6 4394.59,-1064.81"/>
<polygon fill="midnightblue" stroke="midnightblue" points="751.218,-2359.09 741.538,-2363.4 751.79,-2366.07 751.218,-2359.09"/>
</g>
<!-- Node12&#45;&gt;Node11 -->
<g id="edge240" class="edge"><title>Node12&#45;&gt;Node11</title>
<path fill="none" stroke="midnightblue" d="M751.696,-2375.73C819.527,-2381.22 922.961,-2388.15 1013,-2388.15 1013,-2388.15 1013,-2388.15 3579,-2388.15 3701.45,-2388.15 4030.9,-2346.09 4114,-2256.15 4220.48,-2140.91 4240.18,-1934.78 4243.42,-1885.8"/>
<polygon fill="midnightblue" stroke="midnightblue" points="751.79,-2372.23 741.538,-2374.9 751.218,-2379.21 751.79,-2372.23"/>
</g>
<!-- Node13 -->
<g id="node31" class="node"><title>Node13</title>
<a xlink:href="../../d3/d52/blanket_8js.html#a3d582dbc2cd807955ef7456076ec1770" target="_top" xlink:title="parsePrimaryExpression">
<polygon fill="white" stroke="black" points="778.5,-1334.65 778.5,-1355.65 901.5,-1355.65 901.5,-1334.65 778.5,-1334.65"/>
<text text-anchor="middle" x="840" y="-1342.65" font-family="Helvetica,sans-Serif" font-size="10.00">parsePrimaryExpression</text>
</a>
</g>
<!-- Node12&#45;&gt;Node13 -->
<g id="edge36" class="edge"><title>Node12&#45;&gt;Node13</title>
<path fill="none" stroke="midnightblue" d="M681.281,-2348.41C702.726,-2212.86 822.534,-1455.55 838.29,-1355.96"/>
<polygon fill="midnightblue" stroke="midnightblue" points="677.815,-2347.92 679.71,-2358.34 684.729,-2349.01 677.815,-2347.92"/>
</g>
<!-- Node13&#45;&gt;Node9 -->
<g id="edge38" class="edge"><title>Node13&#45;&gt;Node9</title>
<path fill="none" stroke="midnightblue" d="M847.64,-1365.52C898.918,-1498.37 1206.36,-2236.15 1710,-2236.15 1710,-2236.15 1710,-2236.15 3755,-2236.15 4085,-2236.15 3753.55,-1763.39 3988,-1531.15 4104.04,-1416.21 4231.79,-1543.22 4338,-1419.15 4385.44,-1363.73 4393.58,-1118.56 4394.8,-1064.65"/>
<polygon fill="midnightblue" stroke="midnightblue" points="850.758,-1363.87 843.924,-1355.78 844.218,-1366.37 850.758,-1363.87"/>
</g>
<!-- Node13&#45;&gt;Node11 -->
<g id="edge236" class="edge"><title>Node13&#45;&gt;Node11</title>
<path fill="none" stroke="midnightblue" d="M840.783,-1366.04C845.804,-1494.89 875.285,-2178.26 938,-2244.15 1070.49,-2383.34 1172.83,-2312.15 1365,-2312.15 1365,-2312.15 1365,-2312.15 3907,-2312.15 4014.47,-2312.15 4043.85,-2268.57 4114,-2187.15 4198.46,-2089.12 4233.87,-1928.49 4242.07,-1885.83"/>
<polygon fill="midnightblue" stroke="midnightblue" points="844.276,-1365.78 840.395,-1355.92 837.281,-1366.05 844.276,-1365.78"/>
</g>
<!-- Node14 -->
<g id="node34" class="node"><title>Node14</title>
<a xlink:href="../../d3/d52/blanket_8js.html#ad7267f9e15c8f3c37f34200e138b8db9" target="_top" xlink:title="parseLeftHandSideExpression">
<polygon fill="white" stroke="black" points="938.5,-644.65 938.5,-665.65 1087.5,-665.65 1087.5,-644.65 938.5,-644.65"/>
<text text-anchor="middle" x="1013" y="-652.65" font-family="Helvetica,sans-Serif" font-size="10.00">parseLeftHandSideExpression</text>
</a>
</g>
<!-- Node13&#45;&gt;Node14 -->
<g id="edge40" class="edge"><title>Node13&#45;&gt;Node14</title>
<path fill="none" stroke="midnightblue" d="M845.152,-1324.6C871.531,-1219.39 990.992,-742.928 1010.35,-665.731"/>
<polygon fill="midnightblue" stroke="midnightblue" points="841.685,-1324.04 842.648,-1334.59 848.475,-1325.74 841.685,-1324.04"/>
</g>
<!-- Node16 -->
<g id="node41" class="node"><title>Node16</title>
<a xlink:href="../../db/d7b/r_8js.html#a8109edbc91b1c5805509faafc36dda62" target="_top" xlink:title="trackLeftHandSideExpressionAllowCall">
<polygon fill="white" stroke="black" points="4150,-543.65 4150,-564.65 4338,-564.65 4338,-543.65 4150,-543.65"/>
<text text-anchor="middle" x="4244" y="-551.65" font-family="Helvetica,sans-Serif" font-size="10.00">trackLeftHandSideExpressionAllowCall</text>
</a>
</g>
<!-- Node13&#45;&gt;Node16 -->
<g id="edge230" class="edge"><title>Node13&#45;&gt;Node16</title>
<path fill="none" stroke="midnightblue" d="M840.665,-1324.51C844.332,-1220.71 864.666,-755.842 938,-635.15 1031.87,-480.654 1107.54,-479.438 1270,-400.15 1389.29,-341.934 1423.27,-314.15 1556,-314.15 1556,-314.15 1556,-314.15 3406,-314.15 3565.05,-314.15 3973.39,-344.814 4114,-419.15 4134.85,-430.175 4133.75,-441.054 4150,-458.15 4179.89,-489.594 4215.97,-526.023 4233.46,-543.595"/>
<polygon fill="midnightblue" stroke="midnightblue" points="837.163,-1324.52 840.321,-1334.63 844.159,-1324.75 837.163,-1324.52"/>
</g>
<!-- Node17 -->
<g id="node44" class="node"><title>Node17</title>
<a xlink:href="../../d3/d52/blanket_8js.html#af991c5171c6f7fd0e7096135aff10ede" target="_top" xlink:title="parseLeftHandSideExpressionAllowCall">
<polygon fill="white" stroke="black" points="1270,-777.65 1270,-798.65 1460,-798.65 1460,-777.65 1270,-777.65"/>
<text text-anchor="middle" x="1365" y="-785.65" font-family="Helvetica,sans-Serif" font-size="10.00">parseLeftHandSideExpressionAllowCall</text>
</a>
</g>
<!-- Node13&#45;&gt;Node17 -->
<g id="edge232" class="edge"><title>Node13&#45;&gt;Node17</title>
<path fill="none" stroke="midnightblue" d="M857.091,-1327.02C939.056,-1240.06 1290.57,-867.121 1354.88,-798.891"/>
<polygon fill="midnightblue" stroke="midnightblue" points="854.331,-1324.84 850.019,-1334.52 859.425,-1329.64 854.331,-1324.84"/>
</g>
<!-- Node37 -->
<g id="node104" class="node"><title>Node37</title>
<a xlink:href="../../db/d7b/r_8js.html#a11ec19180b29a7c45621ef05b8890c30" target="_top" xlink:title="trackLeftHandSideExpression">
<polygon fill="white" stroke="black" points="4171,-427.65 4171,-448.65 4317,-448.65 4317,-427.65 4171,-427.65"/>
<text text-anchor="middle" x="4244" y="-435.65" font-family="Helvetica,sans-Serif" font-size="10.00">trackLeftHandSideExpression</text>
</a>
</g>
<!-- Node13&#45;&gt;Node37 -->
<g id="edge234" class="edge"><title>Node13&#45;&gt;Node37</title>
<path fill="none" stroke="midnightblue" d="M841.159,-1324.53C848.305,-1200.13 887.734,-552.51 938,-481.15 1104.65,-244.568 1266.62,-276.15 1556,-276.15 1556,-276.15 1556,-276.15 3406,-276.15 3650.83,-276.15 3713.65,-293.216 3952,-349.15 4049.26,-371.973 4161.6,-409.44 4214.09,-427.611"/>
<polygon fill="midnightblue" stroke="midnightblue" points="837.659,-1324.44 840.585,-1334.62 844.647,-1324.84 837.659,-1324.44"/>
</g>
<!-- Node14&#45;&gt;Node9 -->
<g id="edge42" class="edge"><title>Node14&#45;&gt;Node9</title>
<path fill="none" stroke="midnightblue" d="M1098.05,-662.315C1169.3,-667.699 1273.71,-674.15 1365,-674.15 1365,-674.15 1365,-674.15 2878,-674.15 3113.27,-674.15 3170.73,-636.15 3406,-636.15 3406,-636.15 3406,-636.15 3579,-636.15 3600.34,-636.15 4322.76,-739.221 4338,-754.15 4380.52,-795.787 4392.3,-995.111 4394.55,-1043.53"/>
<polygon fill="midnightblue" stroke="midnightblue" points="1098.02,-658.803 1087.78,-661.53 1097.49,-665.783 1098.02,-658.803"/>
</g>
<!-- Node14&#45;&gt;Node11 -->
<g id="edge228" class="edge"><title>Node14&#45;&gt;Node11</title>
<path fill="none" stroke="midnightblue" d="M1014.29,-675.969C1023.96,-814.681 1096.04,-1613.34 1496,-2065.15 1570.23,-2149 1598.02,-2198.15 1710,-2198.15 1710,-2198.15 1710,-2198.15 3907,-2198.15 4001.65,-2198.15 4040.51,-2207.79 4114,-2148.15 4203.47,-2075.54 4235.09,-1926.74 4242.28,-1885.79"/>
<polygon fill="midnightblue" stroke="midnightblue" points="1017.78,-675.603 1013.62,-665.858 1010.79,-676.068 1017.78,-675.603"/>
</g>
<!-- Node15 -->
<g id="node37" class="node"><title>Node15</title>
<a xlink:href="../../d3/d52/blanket_8js.html#ab0ddf6d9b1b97408e0a5e840801580ac" target="_top" xlink:title="parseNewExpression">
<polygon fill="white" stroke="black" points="1124,-586.65 1124,-607.65 1234,-607.65 1234,-586.65 1124,-586.65"/>
<text text-anchor="middle" x="1179" y="-594.65" font-family="Helvetica,sans-Serif" font-size="10.00">parseNewExpression</text>
</a>
</g>
<!-- Node14&#45;&gt;Node15 -->
<g id="edge44" class="edge"><title>Node14&#45;&gt;Node15</title>
<path fill="none" stroke="midnightblue" d="M1040.19,-640.499C1064.8,-630.199 1101.6,-616.998 1131.13,-607.696"/>
<polygon fill="midnightblue" stroke="midnightblue" points="1038.56,-637.392 1030.76,-644.573 1041.33,-643.818 1038.56,-637.392"/>
</g>
<!-- Node15&#45;&gt;Node9 -->
<g id="edge46" class="edge"><title>Node15&#45;&gt;Node9</title>
<path fill="none" stroke="midnightblue" d="M1221.58,-581.813C1226.11,-579.053 1230.38,-575.85 1234,-572.15 1262.41,-543.119 1238.24,-513.464 1270,-488.15 1425.44,-364.274 1511.24,-408.15 1710,-408.15 1710,-408.15 1710,-408.15 3055,-408.15 3527.89,-408.15 3653.96,-195.682 4114,-305.15 4222.48,-330.962 4275.36,-325.899 4338,-418.15 4374.66,-472.148 4392.11,-965.017 4394.67,-1043.61"/>
<polygon fill="midnightblue" stroke="midnightblue" points="1219.81,-578.79 1212.64,-586.588 1223.11,-584.964 1219.81,-578.79"/>
</g>
<!-- Node15&#45;&gt;Node11 -->
<g id="edge226" class="edge"><title>Node15&#45;&gt;Node11</title>
<path fill="none" stroke="midnightblue" d="M1179.76,-617.839C1185.36,-748.27 1227.79,-1467.19 1496,-1965.15 1557.02,-2078.44 1581.33,-2160.15 1710,-2160.15 1710,-2160.15 1710,-2160.15 3907,-2160.15 4001.75,-2160.15 4038.72,-2166.69 4114,-2109.15 4193.94,-2048.05 4231.65,-1922.93 4241.38,-1885.78"/>
<polygon fill="midnightblue" stroke="midnightblue" points="1183.25,-617.511 1179.35,-607.66 1176.26,-617.793 1183.25,-617.511"/>
</g>
<!-- Node15&#45;&gt;Node14 -->
<g id="edge48" class="edge"><title>Node15&#45;&gt;Node14</title>
<path fill="none" stroke="midnightblue" d="M1151.69,-611.852C1127.12,-622.128 1090.47,-635.276 1061.01,-644.56"/>
<polygon fill="midnightblue" stroke="midnightblue" points="1153.31,-614.964 1161.1,-607.786 1150.54,-608.537 1153.31,-614.964"/>
</g>
<!-- Node15&#45;&gt;Node16 -->
<g id="edge50" class="edge"><title>Node15&#45;&gt;Node16</title>
<path fill="none" stroke="midnightblue" d="M1244.33,-586.824C1319.35,-575.877 1446.24,-560.15 1556,-560.15 1556,-560.15 1556,-560.15 3055,-560.15 3288.5,-560.15 3345.5,-522.15 3579,-522.15 3579,-522.15 3579,-522.15 3755,-522.15 3914.68,-522.15 3954.95,-522.072 4114,-536.15 4134.65,-537.978 4157.05,-540.781 4177.34,-543.635"/>
<polygon fill="midnightblue" stroke="midnightblue" points="1243.47,-583.412 1234.09,-588.335 1244.5,-590.337 1243.47,-583.412"/>
</g>
<!-- Node15&#45;&gt;Node17 -->
<g id="edge54" class="edge"><title>Node15&#45;&gt;Node17</title>
<path fill="none" stroke="midnightblue" d="M1196.58,-615.207C1234.71,-654.355 1323.99,-746.041 1354.54,-777.406"/>
<polygon fill="midnightblue" stroke="midnightblue" points="1198.75,-612.413 1189.27,-607.691 1193.73,-617.297 1198.75,-612.413"/>
</g>
<!-- Node15&#45;&gt;Node37 -->
<g id="edge224" class="edge"><title>Node15&#45;&gt;Node37</title>
<path fill="none" stroke="midnightblue" d="M1211.41,-582.322C1228.6,-574.79 1250.21,-565.842 1270,-559.15 1394.49,-517.063 1424.59,-484.15 1556,-484.15 1556,-484.15 1556,-484.15 3231,-484.15 3513.16,-484.15 3580.27,-429.729 3862,-414.15 3901.94,-411.941 3912,-413.533 3952,-414.15 4024.03,-415.261 4042.24,-412.82 4114,-419.15 4136.27,-421.114 4160.54,-424.359 4182.01,-427.616"/>
<polygon fill="midnightblue" stroke="midnightblue" points="1209.57,-579.311 1201.85,-586.566 1212.41,-585.709 1209.57,-579.311"/>
</g>
<!-- Node16&#45;&gt;Node9 -->
<g id="edge52" class="edge"><title>Node16&#45;&gt;Node9</title>
<path fill="none" stroke="midnightblue" d="M4327.6,-569.895C4331.42,-572.547 4334.93,-575.612 4338,-579.15 4369.59,-615.521 4390.74,-976.082 4394.42,-1043.37"/>
<polygon fill="midnightblue" stroke="midnightblue" points="4329.19,-566.773 4318.8,-564.723 4325.65,-572.808 4329.19,-566.773"/>
</g>
<!-- Node17&#45;&gt;Node9 -->
<g id="edge56" class="edge"><title>Node17&#45;&gt;Node9</title>
<path fill="none" stroke="midnightblue" d="M1470.52,-788.15C1538.82,-788.15 1629.67,-788.15 1710,-788.15 1710,-788.15 1710,-788.15 3579,-788.15 3663.34,-788.15 4272.57,-726.932 4338,-780.15 4380.03,-814.335 4392.09,-996.876 4394.5,-1043.37"/>
<polygon fill="midnightblue" stroke="midnightblue" points="1470.18,-784.65 1460.18,-788.15 1470.18,-791.65 1470.18,-784.65"/>
</g>
<!-- Node17&#45;&gt;Node11 -->
<g id="edge222" class="edge"><title>Node17&#45;&gt;Node11</title>
<path fill="none" stroke="midnightblue" d="M1365.73,-808.99C1372.21,-978.304 1426.46,-2122.15 1710,-2122.15 1710,-2122.15 1710,-2122.15 3907,-2122.15 4001.75,-2122.15 4036.52,-2125.69 4114,-2071.15 4184.79,-2021.32 4227.49,-1919.61 4240.07,-1886.11"/>
<polygon fill="midnightblue" stroke="midnightblue" points="1369.22,-808.752 1365.36,-798.888 1362.23,-809.01 1369.22,-808.752"/>
</g>
<!-- Node18 -->
<g id="node47" class="node"><title>Node18</title>
<a xlink:href="../../d3/d52/blanket_8js.html#a8140b4f8a5ed204e55ec65d01ef0e08d" target="_top" xlink:title="parsePostfixExpression">
<polygon fill="white" stroke="black" points="1496,-893.65 1496,-914.65 1616,-914.65 1616,-893.65 1496,-893.65"/>
<text text-anchor="middle" x="1556" y="-901.65" font-family="Helvetica,sans-Serif" font-size="10.00">parsePostfixExpression</text>
</a>
</g>
<!-- Node17&#45;&gt;Node18 -->
<g id="edge58" class="edge"><title>Node17&#45;&gt;Node18</title>
<path fill="none" stroke="midnightblue" d="M1391.23,-804.083C1430.91,-828.179 1505.1,-873.24 1538.69,-893.638"/>
<polygon fill="midnightblue" stroke="midnightblue" points="1392.99,-801.055 1382.63,-798.855 1389.36,-807.038 1392.99,-801.055"/>
</g>
<!-- Node18&#45;&gt;Node9 -->
<g id="edge60" class="edge"><title>Node18&#45;&gt;Node9</title>
<path fill="none" stroke="midnightblue" d="M1618.01,-891.793C1682.46,-880.043 1786.38,-864.15 1877,-864.15 1877,-864.15 1877,-864.15 4051,-864.15 4178.81,-864.15 4236.78,-804.122 4338,-882.15 4364.66,-902.7 4386.58,-1009.09 4393.05,-1043.44"/>
<polygon fill="midnightblue" stroke="midnightblue" points="1617.21,-888.382 1608.02,-893.64 1618.49,-895.265 1617.21,-888.382"/>
</g>
<!-- Node18&#45;&gt;Node11 -->
<g id="edge220" class="edge"><title>Node18&#45;&gt;Node11</title>
<path fill="none" stroke="midnightblue" d="M1557,-924.935C1565.13,-1082.62 1626.64,-2084.15 1877,-2084.15 1877,-2084.15 1877,-2084.15 3907,-2084.15 4001.75,-2084.15 4033.82,-2083.64 4114,-2033.15 4176.22,-1993.97 4222.82,-1914.85 4238.37,-1885.99"/>
<polygon fill="midnightblue" stroke="midnightblue" points="1560.48,-924.524 1556.49,-914.712 1553.49,-924.874 1560.48,-924.524"/>
</g>
<!-- Node19 -->
<g id="node50" class="node"><title>Node19</title>
<a xlink:href="../../d3/d52/blanket_8js.html#ae5cd9b619fc76e94b0867d235da7dc1c" target="_top" xlink:title="parseUnaryExpression">
<polygon fill="white" stroke="black" points="1652,-1102.65 1652,-1123.65 1768,-1123.65 1768,-1102.65 1652,-1102.65"/>
<text text-anchor="middle" x="1710" y="-1110.65" font-family="Helvetica,sans-Serif" font-size="10.00">parseUnaryExpression</text>
</a>
</g>
<!-- Node18&#45;&gt;Node19 -->
<g id="edge62" class="edge"><title>Node18&#45;&gt;Node19</title>
<path fill="none" stroke="midnightblue" d="M1569.86,-922.958C1601.36,-965.712 1677.53,-1069.08 1702.17,-1102.52"/>
<polygon fill="midnightblue" stroke="midnightblue" points="1572.6,-920.776 1563.85,-914.802 1566.96,-924.928 1572.6,-920.776"/>
</g>
<!-- Node19&#45;&gt;Node9 -->
<g id="edge64" class="edge"><title>Node19&#45;&gt;Node9</title>
<path fill="none" stroke="midnightblue" d="M1725.21,-1094.68C1769.41,-1043.25 1903.87,-902.15 2049,-902.15 2049,-902.15 2049,-902.15 4051,-902.15 4179.04,-902.15 4233.64,-852.973 4338,-927.15 4377.79,-955.432 4390.28,-1018.15 4393.77,-1043.36"/>
<polygon fill="midnightblue" stroke="midnightblue" points="1722.47,-1092.5 1718.69,-1102.4 1727.82,-1097.02 1722.47,-1092.5"/>
</g>
<!-- Node19&#45;&gt;Node11 -->
<g id="edge218" class="edge"><title>Node19&#45;&gt;Node11</title>
<path fill="none" stroke="midnightblue" d="M1712.81,-1134.04C1731.91,-1271.98 1848.06,-2046.15 2049,-2046.15 2049,-2046.15 2049,-2046.15 3907,-2046.15 4001.65,-2046.15 4030.64,-2040.97 4114,-1996.15 4168.31,-1966.95 4217.11,-1909.52 4235.86,-1885.8"/>
<polygon fill="midnightblue" stroke="midnightblue" points="1716.25,-1133.38 1711.43,-1123.95 1709.31,-1134.33 1716.25,-1133.38"/>
</g>
<!-- Node20 -->
<g id="node53" class="node"><title>Node20</title>
<a xlink:href="../../d3/d52/blanket_8js.html#aade312248455675511d8ccecf0b96416" target="_top" xlink:title="parseMultiplicativeExpression">
<polygon fill="white" stroke="black" points="1804,-1206.65 1804,-1227.65 1950,-1227.65 1950,-1206.65 1804,-1206.65"/>
<text text-anchor="middle" x="1877" y="-1214.65" font-family="Helvetica,sans-Serif" font-size="10.00">parseMultiplicativeExpression</text>
</a>
</g>
<!-- Node19&#45;&gt;Node20 -->
<g id="edge66" class="edge"><title>Node19&#45;&gt;Node20</title>
<path fill="none" stroke="midnightblue" d="M1735.52,-1129.04C1770.02,-1150.53 1830.61,-1188.26 1860.02,-1206.58"/>
<polygon fill="midnightblue" stroke="midnightblue" points="1737.27,-1126.01 1726.93,-1123.69 1733.57,-1131.95 1737.27,-1126.01"/>
</g>
<!-- Node20&#45;&gt;Node9 -->
<g id="edge68" class="edge"><title>Node20&#45;&gt;Node9</title>
<path fill="none" stroke="midnightblue" d="M1887.35,-1197.69C1922.45,-1134.66 2043.68,-940.15 2203,-940.15 2203,-940.15 2203,-940.15 4051,-940.15 4179.4,-940.15 4227.61,-907.574 4338,-973.15 4365.79,-989.661 4383.51,-1025.61 4390.95,-1043.54"/>
<polygon fill="midnightblue" stroke="midnightblue" points="1884.19,-1196.18 1882.47,-1206.63 1890.33,-1199.53 1884.19,-1196.18"/>
</g>
<!-- Node20&#45;&gt;Node11 -->
<g id="edge70" class="edge"><title>Node20&#45;&gt;Node11</title>
<path fill="none" stroke="midnightblue" d="M1880.73,-1237.85C1903.75,-1362.54 2031.24,-2008.15 2203,-2008.15 2203,-2008.15 2203,-2008.15 3907,-2008.15 4001.34,-2008.15 4027.25,-1998.22 4114,-1961.15 4160.78,-1941.16 4208.96,-1904.15 4231.26,-1885.9"/>
<polygon fill="midnightblue" stroke="midnightblue" points="1884.12,-1236.94 1878.88,-1227.73 1877.23,-1238.2 1884.12,-1236.94"/>
</g>
<!-- Node21 -->
<g id="node57" class="node"><title>Node21</title>
<a xlink:href="../../d3/d52/blanket_8js.html#a2e6fe0682b4e55d8e98ae5c01b0f6651" target="_top" xlink:title="parseAdditiveExpression">
<polygon fill="white" stroke="black" points="1986.5,-1258.65 1986.5,-1279.65 2111.5,-1279.65 2111.5,-1258.65 1986.5,-1258.65"/>
<text text-anchor="middle" x="2049" y="-1266.65" font-family="Helvetica,sans-Serif" font-size="10.00">parseAdditiveExpression</text>
</a>
</g>
<!-- Node20&#45;&gt;Node21 -->
<g id="edge72" class="edge"><title>Node20&#45;&gt;Node21</title>
<path fill="none" stroke="midnightblue" d="M1921.65,-1230.65C1950.53,-1239.38 1987.56,-1250.58 2014.24,-1258.64"/>
<polygon fill="midnightblue" stroke="midnightblue" points="1922.39,-1227.22 1911.81,-1227.67 1920.37,-1233.92 1922.39,-1227.22"/>
</g>
<!-- Node21&#45;&gt;Node9 -->
<g id="edge214" class="edge"><title>Node21&#45;&gt;Node9</title>
<path fill="none" stroke="midnightblue" d="M2058.19,-1249.15C2089.93,-1183.4 2201.75,-978.15 2361,-978.15 2361,-978.15 2361,-978.15 4051,-978.15 4179.67,-978.15 4217.57,-970.845 4338,-1016.15 4354.92,-1022.52 4371.84,-1034.72 4382.8,-1043.58"/>
<polygon fill="midnightblue" stroke="midnightblue" points="2054.9,-1247.91 2053.79,-1258.45 2061.23,-1250.91 2054.9,-1247.91"/>
</g>
<!-- Node21&#45;&gt;Node11 -->
<g id="edge216" class="edge"><title>Node21&#45;&gt;Node11</title>
<path fill="none" stroke="midnightblue" d="M2053.39,-1289.97C2078.49,-1406.26 2208.07,-1970.15 2361,-1970.15 2361,-1970.15 2361,-1970.15 3907,-1970.15 4000.62,-1970.15 4024.47,-1958.5 4114,-1931.15 4153.95,-1918.94 4198.17,-1898.25 4223.37,-1885.73"/>
<polygon fill="midnightblue" stroke="midnightblue" points="2056.75,-1288.93 2051.23,-1279.88 2049.9,-1290.39 2056.75,-1288.93"/>
</g>
<!-- Node22 -->
<g id="node59" class="node"><title>Node22</title>
<a xlink:href="../../d3/d52/blanket_8js.html#af18e7fadfc65d15335d15562b922e197" target="_top" xlink:title="parseShiftExpression">
<polygon fill="white" stroke="black" points="2148,-1284.65 2148,-1305.65 2258,-1305.65 2258,-1284.65 2148,-1284.65"/>
<text text-anchor="middle" x="2203" y="-1292.65" font-family="Helvetica,sans-Serif" font-size="10.00">parseShiftExpression</text>
</a>
</g>
<!-- Node21&#45;&gt;Node22 -->
<g id="edge74" class="edge"><title>Node21&#45;&gt;Node22</title>
<path fill="none" stroke="midnightblue" d="M2121.14,-1281.33C2130.01,-1282.83 2138.96,-1284.34 2147.52,-1285.78"/>
<polygon fill="midnightblue" stroke="midnightblue" points="2121.64,-1277.86 2111.19,-1279.65 2120.47,-1284.77 2121.64,-1277.86"/>
</g>
<!-- Node22&#45;&gt;Node9 -->
<g id="edge210" class="edge"><title>Node22&#45;&gt;Node9</title>
<path fill="none" stroke="midnightblue" d="M2213.22,-1275.55C2247.88,-1212.07 2367.76,-1016.15 2527,-1016.15 2527,-1016.15 2527,-1016.15 4051,-1016.15 4174.18,-1016.15 4320.67,-1040.52 4374.15,-1050.23"/>
<polygon fill="midnightblue" stroke="midnightblue" points="2210.03,-1274.09 2208.39,-1284.55 2216.2,-1277.39 2210.03,-1274.09"/>
</g>
<!-- Node22&#45;&gt;Node11 -->
<g id="edge212" class="edge"><title>Node22&#45;&gt;Node11</title>
<path fill="none" stroke="midnightblue" d="M2203.6,-1315.74C2207.99,-1425.03 2243.6,-1932.15 2527,-1932.15 2527,-1932.15 2527,-1932.15 3907,-1932.15 4024.79,-1932.15 4162.53,-1897.88 4218.46,-1882.49"/>
<polygon fill="midnightblue" stroke="midnightblue" points="2207.1,-1315.54 2203.25,-1305.67 2200.1,-1315.79 2207.1,-1315.54"/>
</g>
<!-- Node23 -->
<g id="node61" class="node"><title>Node23</title>
<a xlink:href="../../d3/d52/blanket_8js.html#abef72bf489b6ff3ad5f00acefe809217" target="_top" xlink:title="parseRelationalExpression">
<polygon fill="white" stroke="black" points="2294.5,-1297.65 2294.5,-1318.65 2427.5,-1318.65 2427.5,-1297.65 2294.5,-1297.65"/>
<text text-anchor="middle" x="2361" y="-1305.65" font-family="Helvetica,sans-Serif" font-size="10.00">parseRelationalExpression</text>
</a>
</g>
<!-- Node22&#45;&gt;Node23 -->
<g id="edge76" class="edge"><title>Node22&#45;&gt;Node23</title>
<path fill="none" stroke="midnightblue" d="M2268.25,-1300.52C2276.87,-1301.23 2285.72,-1301.96 2294.36,-1302.67"/>
<polygon fill="midnightblue" stroke="midnightblue" points="2268.51,-1297.03 2258.26,-1299.7 2267.94,-1304.01 2268.51,-1297.03"/>
</g>
<!-- Node23&#45;&gt;Node9 -->
<g id="edge78" class="edge"><title>Node23&#45;&gt;Node9</title>
<path fill="none" stroke="midnightblue" d="M2373.07,-1289.14C2412.16,-1230.15 2541.87,-1054.15 2698,-1054.15 2698,-1054.15 2698,-1054.15 4051,-1054.15 4173.73,-1054.15 4321.09,-1054.15 4374.45,-1054.15"/>
<polygon fill="midnightblue" stroke="midnightblue" points="2370.11,-1287.27 2367.58,-1297.56 2375.97,-1291.09 2370.11,-1287.27"/>
</g>
<!-- Node23&#45;&gt;Node11 -->
<g id="edge208" class="edge"><title>Node23&#45;&gt;Node11</title>
<path fill="none" stroke="midnightblue" d="M2362.74,-1329.02C2372.67,-1433.43 2431.6,-1894.15 2698,-1894.15 2698,-1894.15 2698,-1894.15 3907,-1894.15 4023.32,-1894.15 4161.87,-1882.73 4218.24,-1877.6"/>
<polygon fill="midnightblue" stroke="midnightblue" points="2366.2,-1328.47 2361.82,-1318.82 2359.23,-1329.1 2366.2,-1328.47"/>
</g>
<!-- Node24 -->
<g id="node64" class="node"><title>Node24</title>
<a xlink:href="../../d3/d52/blanket_8js.html#a8c016313084b52bb2d2f92b13efa6662" target="_top" xlink:title="parseEqualityExpression">
<polygon fill="white" stroke="black" points="2464.5,-1304.65 2464.5,-1325.65 2589.5,-1325.65 2589.5,-1304.65 2464.5,-1304.65"/>
<text text-anchor="middle" x="2527" y="-1312.65" font-family="Helvetica,sans-Serif" font-size="10.00">parseEqualityExpression</text>
</a>
</g>
<!-- Node23&#45;&gt;Node24 -->
<g id="edge80" class="edge"><title>Node23&#45;&gt;Node24</title>
<path fill="none" stroke="midnightblue" d="M2437.64,-1311.38C2446.62,-1311.76 2455.7,-1312.14 2464.46,-1312.51"/>
<polygon fill="midnightblue" stroke="midnightblue" points="2437.7,-1307.88 2427.56,-1310.96 2437.41,-1314.88 2437.7,-1307.88"/>
</g>
<!-- Node24&#45;&gt;Node9 -->
<g id="edge82" class="edge"><title>Node24&#45;&gt;Node9</title>
<path fill="none" stroke="midnightblue" d="M2542.05,-1296.36C2586.93,-1242.63 2726.18,-1092.15 2878,-1092.15 2878,-1092.15 2878,-1092.15 4051,-1092.15 4179,-1092.15 4211.68,-1088.81 4338,-1068.15 4350.17,-1066.16 4363.57,-1062.92 4374.32,-1060.06"/>
<polygon fill="midnightblue" stroke="midnightblue" points="2539.1,-1294.45 2535.45,-1304.39 2544.5,-1298.89 2539.1,-1294.45"/>
</g>
<!-- Node24&#45;&gt;Node11 -->
<g id="edge206" class="edge"><title>Node24&#45;&gt;Node11</title>
<path fill="none" stroke="midnightblue" d="M2529.95,-1335.96C2545.28,-1435.27 2625.2,-1856.15 2878,-1856.15 2878,-1856.15 2878,-1856.15 3907,-1856.15 4023.32,-1856.15 4161.87,-1867.57 4218.24,-1872.7"/>
<polygon fill="midnightblue" stroke="midnightblue" points="2533.39,-1335.33 2528.46,-1325.96 2526.47,-1336.36 2533.39,-1335.33"/>
</g>
<!-- Node25 -->
<g id="node67" class="node"><title>Node25</title>
<a xlink:href="../../d3/d52/blanket_8js.html#abc485fee39738abbdad2a2ae268c57a7" target="_top" xlink:title="parseBitwiseANDExpression">
<polygon fill="white" stroke="black" points="2626.5,-1307.65 2626.5,-1328.65 2769.5,-1328.65 2769.5,-1307.65 2626.5,-1307.65"/>
<text text-anchor="middle" x="2698" y="-1315.65" font-family="Helvetica,sans-Serif" font-size="10.00">parseBitwiseANDExpression</text>
</a>
</g>
<!-- Node24&#45;&gt;Node25 -->
<g id="edge84" class="edge"><title>Node24&#45;&gt;Node25</title>
<path fill="none" stroke="midnightblue" d="M2599.88,-1316.43C2608.65,-1316.58 2617.59,-1316.74 2626.34,-1316.89"/>
<polygon fill="midnightblue" stroke="midnightblue" points="2599.76,-1312.93 2589.7,-1316.25 2599.64,-1319.93 2599.76,-1312.93"/>
</g>
<!-- Node25&#45;&gt;Node9 -->
<g id="edge202" class="edge"><title>Node25&#45;&gt;Node9</title>
<path fill="none" stroke="midnightblue" d="M2715.97,-1300.43C2765.45,-1253.61 2909.68,-1130.15 3055,-1130.15 3055,-1130.15 3055,-1130.15 4051,-1130.15 4179,-1130.15 4220.68,-1157.35 4338,-1106.15 4358.87,-1097.04 4377.16,-1077.1 4387.09,-1064.73"/>
<polygon fill="midnightblue" stroke="midnightblue" points="2713.39,-1298.05 2708.6,-1307.5 2718.24,-1303.1 2713.39,-1298.05"/>
</g>
<!-- Node25&#45;&gt;Node11 -->
<g id="edge204" class="edge"><title>Node25&#45;&gt;Node11</title>
<path fill="none" stroke="midnightblue" d="M2702.04,-1339.15C2721.62,-1434.04 2815.67,-1818.15 3055,-1818.15 3055,-1818.15 3055,-1818.15 3907,-1818.15 3999.62,-1818.15 4022.91,-1825.39 4114,-1842.15 4150.64,-1848.89 4192.26,-1860.1 4218.33,-1867.55"/>
<polygon fill="midnightblue" stroke="midnightblue" points="2705.41,-1338.17 2700.02,-1329.06 2698.55,-1339.55 2705.41,-1338.17"/>
</g>
<!-- Node26 -->
<g id="node69" class="node"><title>Node26</title>
<a xlink:href="../../d3/d52/blanket_8js.html#a3a8032efc2a75b74cee01ba7d0bcc75b" target="_top" xlink:title="parseBitwiseXORExpression">
<polygon fill="white" stroke="black" points="2806.5,-1309.65 2806.5,-1330.65 2949.5,-1330.65 2949.5,-1309.65 2806.5,-1309.65"/>
<text text-anchor="middle" x="2878" y="-1317.65" font-family="Helvetica,sans-Serif" font-size="10.00">parseBitwiseXORExpression</text>
</a>
</g>
<!-- Node25&#45;&gt;Node26 -->
<g id="edge86" class="edge"><title>Node25&#45;&gt;Node26</title>
<path fill="none" stroke="midnightblue" d="M2779.92,-1319.06C2788.72,-1319.16 2797.63,-1319.26 2806.29,-1319.35"/>
<polygon fill="midnightblue" stroke="midnightblue" points="2779.7,-1315.56 2769.66,-1318.95 2779.62,-1322.56 2779.7,-1315.56"/>
</g>
<!-- Node26&#45;&gt;Node9 -->
<g id="edge198" class="edge"><title>Node26&#45;&gt;Node9</title>
<path fill="none" stroke="midnightblue" d="M2899.56,-1303.41C2952.68,-1263.91 3095.42,-1168.15 3231,-1168.15 3231,-1168.15 3231,-1168.15 4051,-1168.15 4179,-1168.15 4228.53,-1210.49 4338,-1144.15 4368.37,-1125.75 4385.25,-1084.32 4391.79,-1064.76"/>
<polygon fill="midnightblue" stroke="midnightblue" points="2897.42,-1300.65 2891.54,-1309.46 2901.63,-1306.24 2897.42,-1300.65"/>
</g>
<!-- Node26&#45;&gt;Node11 -->
<g id="edge200" class="edge"><title>Node26&#45;&gt;Node11</title>
<path fill="none" stroke="midnightblue" d="M2882.84,-1340.88C2905.09,-1430.5 3006.32,-1780.15 3231,-1780.15 3231,-1780.15 3231,-1780.15 3907,-1780.15 3999.62,-1780.15 4025.73,-1776.1 4114,-1804.15 4158.85,-1818.4 4206.01,-1848.56 4229.26,-1864.6"/>
<polygon fill="midnightblue" stroke="midnightblue" points="2886.22,-1339.96 2880.46,-1331.07 2879.41,-1341.61 2886.22,-1339.96"/>
</g>
<!-- Node27 -->
<g id="node71" class="node"><title>Node27</title>
<a xlink:href="../../d3/d52/blanket_8js.html#a7c53c509013c172b17e5d8f8d7a7fc55" target="_top" xlink:title="parseBitwiseORExpression">
<polygon fill="white" stroke="black" points="2986.5,-1310.65 2986.5,-1331.65 3123.5,-1331.65 3123.5,-1310.65 2986.5,-1310.65"/>
<text text-anchor="middle" x="3055" y="-1318.65" font-family="Helvetica,sans-Serif" font-size="10.00">parseBitwiseORExpression</text>
</a>
</g>
<!-- Node26&#45;&gt;Node27 -->
<g id="edge88" class="edge"><title>Node26&#45;&gt;Node27</title>
<path fill="none" stroke="midnightblue" d="M2960.01,-1320.61C2968.81,-1320.66 2977.69,-1320.71 2986.31,-1320.76"/>
<polygon fill="midnightblue" stroke="midnightblue" points="2959.76,-1317.11 2949.74,-1320.56 2959.72,-1324.11 2959.76,-1317.11"/>
</g>
<!-- Node27&#45;&gt;Node9 -->
<g id="edge194" class="edge"><title>Node27&#45;&gt;Node9</title>
<path fill="none" stroke="midnightblue" d="M3082.18,-1305.66C3139.87,-1274.27 3279.65,-1206.15 3406,-1206.15 3406,-1206.15 3406,-1206.15 4051,-1206.15 4115,-1206.15 4285.82,-1219.21 4338,-1182.15 4378.26,-1153.55 4390.51,-1089.82 4393.86,-1064.66"/>
<polygon fill="midnightblue" stroke="midnightblue" points="3080.39,-1302.64 3073.32,-1310.54 3083.77,-1308.77 3080.39,-1302.64"/>
</g>
<!-- Node27&#45;&gt;Node11 -->
<g id="edge196" class="edge"><title>Node27&#45;&gt;Node11</title>
<path fill="none" stroke="midnightblue" d="M3060.83,-1341.71C3086.14,-1426.18 3194.95,-1742.15 3406,-1742.15 3406,-1742.15 3406,-1742.15 3907,-1742.15 3999.62,-1742.15 4028.93,-1729.52 4114,-1766.15 4167.56,-1789.21 4216.04,-1841.8 4235.25,-1864.45"/>
<polygon fill="midnightblue" stroke="midnightblue" points="3064.15,-1340.59 3057.98,-1331.98 3057.43,-1342.56 3064.15,-1340.59"/>
</g>
<!-- Node28 -->
<g id="node73" class="node"><title>Node28</title>
<a xlink:href="../../d3/d52/blanket_8js.html#acd83789832e062261d4b56a36645bee2" target="_top" xlink:title="parseLogicalANDExpression">
<polygon fill="white" stroke="black" points="3160,-1310.65 3160,-1331.65 3302,-1331.65 3302,-1310.65 3160,-1310.65"/>
<text text-anchor="middle" x="3231" y="-1318.65" font-family="Helvetica,sans-Serif" font-size="10.00">parseLogicalANDExpression</text>
</a>
</g>
<!-- Node27&#45;&gt;Node28 -->
<g id="edge90" class="edge"><title>Node27&#45;&gt;Node28</title>
<path fill="none" stroke="midnightblue" d="M3133.66,-1321.15C3142.35,-1321.15 3151.15,-1321.15 3159.73,-1321.15"/>
<polygon fill="midnightblue" stroke="midnightblue" points="3133.55,-1317.65 3123.55,-1321.15 3133.55,-1324.65 3133.55,-1317.65"/>
</g>
<!-- Node28&#45;&gt;Node9 -->
<g id="edge92" class="edge"><title>Node28&#45;&gt;Node9</title>
<path fill="none" stroke="midnightblue" d="M3268.48,-1307.21C3331.61,-1285.03 3463.58,-1244.15 3579,-1244.15 3579,-1244.15 3579,-1244.15 4051,-1244.15 4115,-1244.15 4287.51,-1259.48 4338,-1220.15 4363.6,-1200.21 4386.06,-1098.53 4392.88,-1064.94"/>
<polygon fill="midnightblue" stroke="midnightblue" points="3267.2,-1303.95 3258.95,-1310.6 3269.55,-1310.55 3267.2,-1303.95"/>
</g>
<!-- Node28&#45;&gt;Node11 -->
<g id="edge94" class="edge"><title>Node28&#45;&gt;Node11</title>
<path fill="none" stroke="midnightblue" d="M3237.93,-1341.58C3266.25,-1420.92 3381.22,-1704.15 3579,-1704.15 3579,-1704.15 3579,-1704.15 3907,-1704.15 3999.62,-1704.15 4031.9,-1685.29 4114,-1728.15 4176.52,-1760.78 4222.93,-1836.75 4238.41,-1864.64"/>
<polygon fill="midnightblue" stroke="midnightblue" points="3241.11,-1340.08 3234.51,-1331.79 3234.5,-1342.39 3241.11,-1340.08"/>
</g>
<!-- Node29 -->
<g id="node77" class="node"><title>Node29</title>
<a xlink:href="../../d3/d52/blanket_8js.html#a0448e146785a1b1a89635278d750bf76" target="_top" xlink:title="parseLogicalORExpression">
<polygon fill="white" stroke="black" points="3338.5,-1310.65 3338.5,-1331.65 3473.5,-1331.65 3473.5,-1310.65 3338.5,-1310.65"/>
<text text-anchor="middle" x="3406" y="-1318.65" font-family="Helvetica,sans-Serif" font-size="10.00">parseLogicalORExpression</text>
</a>
</g>
<!-- Node28&#45;&gt;Node29 -->
<g id="edge96" class="edge"><title>Node28&#45;&gt;Node29</title>
<path fill="none" stroke="midnightblue" d="M3312.32,-1321.15C3321,-1321.15 3329.77,-1321.15 3338.28,-1321.15"/>
<polygon fill="midnightblue" stroke="midnightblue" points="3312.18,-1317.65 3302.18,-1321.15 3312.18,-1324.65 3312.18,-1317.65"/>
</g>
<!-- Node29&#45;&gt;Node9 -->
<g id="edge98" class="edge"><title>Node29&#45;&gt;Node9</title>
<path fill="none" stroke="midnightblue" d="M3474.17,-1308.99C3544.34,-1297.54 3656.94,-1282.15 3755,-1282.15 3755,-1282.15 3755,-1282.15 4051,-1282.15 4115,-1282.15 4288.68,-1298.93 4338,-1258.15 4368.82,-1232.67 4388.41,-1103.23 4393.61,-1064.87"/>
<polygon fill="midnightblue" stroke="midnightblue" points="3473.43,-1305.56 3464.13,-1310.65 3474.57,-1312.47 3473.43,-1305.56"/>
</g>
<!-- Node29&#45;&gt;Node11 -->
<g id="edge192" class="edge"><title>Node29&#45;&gt;Node11</title>
<path fill="none" stroke="midnightblue" d="M3414.39,-1341.43C3446.48,-1415.36 3569.04,-1666.15 3755,-1666.15 3755,-1666.15 3755,-1666.15 3907,-1666.15 3999.62,-1666.15 4034.41,-1642.78 4114,-1690.15 4185.51,-1732.71 4227.74,-1831.65 4240.14,-1864.41"/>
<polygon fill="midnightblue" stroke="midnightblue" points="3417.45,-1339.68 3410.32,-1331.85 3411.01,-1342.43 3417.45,-1339.68"/>
</g>
<!-- Node30 -->
<g id="node80" class="node"><title>Node30</title>
<a xlink:href="../../d3/d52/blanket_8js.html#a2821a3216962a83c76a59cabeb771f0c" target="_top" xlink:title="parseConditionalExpression">
<polygon fill="white" stroke="black" points="3510,-1348.65 3510,-1369.65 3648,-1369.65 3648,-1348.65 3510,-1348.65"/>
<text text-anchor="middle" x="3579" y="-1356.65" font-family="Helvetica,sans-Serif" font-size="10.00">parseConditionalExpression</text>
</a>
</g>
<!-- Node29&#45;&gt;Node30 -->
<g id="edge100" class="edge"><title>Node29&#45;&gt;Node30</title>
<path fill="none" stroke="midnightblue" d="M3463.99,-1333.89C3485.78,-1338.67 3510.29,-1344.06 3531.07,-1348.62"/>
<polygon fill="midnightblue" stroke="midnightblue" points="3464.71,-1330.46 3454.19,-1331.74 3463.21,-1337.3 3464.71,-1330.46"/>
</g>
<!-- Node30&#45;&gt;Node9 -->
<g id="edge188" class="edge"><title>Node30&#45;&gt;Node9</title>
<path fill="none" stroke="midnightblue" d="M3638.55,-1346.7C3653.35,-1343.91 3669.21,-1341.18 3684,-1339.15 3782.54,-1325.6 3807.53,-1320.15 3907,-1320.15 3907,-1320.15 3907,-1320.15 4051,-1320.15 4115,-1320.15 4289.53,-1337.94 4338,-1296.15 4374.13,-1265.01 4390.36,-1107.28 4394.12,-1064.74"/>
<polygon fill="midnightblue" stroke="midnightblue" points="3637.66,-1343.31 3628.5,-1348.63 3638.98,-1350.18 3637.66,-1343.31"/>
</g>
<!-- Node30&#45;&gt;Node11 -->
<g id="edge190" class="edge"><title>Node30&#45;&gt;Node11</title>
<path fill="none" stroke="midnightblue" d="M3602.56,-1375.63C3663.87,-1417.99 3834.3,-1532.53 3988,-1606.15 4041.77,-1631.9 4068.27,-1613.9 4114,-1652.15 4187.91,-1713.96 4229.37,-1829.24 4240.75,-1864.58"/>
<polygon fill="midnightblue" stroke="midnightblue" points="3604.21,-1372.51 3594,-1369.69 3600.22,-1378.26 3604.21,-1372.51"/>
</g>
<!-- Node31 -->
<g id="node82" class="node"><title>Node31</title>
<a xlink:href="../../d3/d52/blanket_8js.html#a581bf229967f248813f49806ed5ec40e" target="_top" xlink:title="parseAssignmentExpression">
<polygon fill="white" stroke="black" points="3684.5,-1348.65 3684.5,-1369.65 3825.5,-1369.65 3825.5,-1348.65 3684.5,-1348.65"/>
<text text-anchor="middle" x="3755" y="-1356.65" font-family="Helvetica,sans-Serif" font-size="10.00">parseAssignmentExpression</text>
</a>
</g>
<!-- Node30&#45;&gt;Node31 -->
<g id="edge102" class="edge"><title>Node30&#45;&gt;Node31</title>
<path fill="none" stroke="midnightblue" d="M3658.23,-1352.43C3666.95,-1352.37 3675.8,-1352.4 3684.41,-1352.52"/>
<polygon fill="midnightblue" stroke="midnightblue" points="3658.02,-1348.93 3648.05,-1352.54 3658.09,-1355.93 3658.02,-1348.93"/>
</g>
<!-- Node31&#45;&gt;Node9 -->
<g id="edge184" class="edge"><title>Node31&#45;&gt;Node9</title>
<path fill="none" stroke="midnightblue" d="M3835.78,-1361.1C3986.94,-1363.97 4300.73,-1365.95 4338,-1334.15 4380.17,-1298.17 4392.15,-1111.59 4394.52,-1064.8"/>
<polygon fill="midnightblue" stroke="midnightblue" points="3835.69,-1357.6 3825.62,-1360.9 3835.55,-1364.59 3835.69,-1357.6"/>
</g>
<!-- Node31&#45;&gt;Node11 -->
<g id="edge186" class="edge"><title>Node31&#45;&gt;Node11</title>
<path fill="none" stroke="midnightblue" d="M3770.65,-1377.86C3805.61,-1418.54 3894.36,-1515.84 3988,-1571.15 4038.95,-1601.24 4069.47,-1575.19 4114,-1614.15 4197.06,-1686.82 4232.93,-1824.99 4241.75,-1864.41"/>
<polygon fill="midnightblue" stroke="midnightblue" points="3773.17,-1375.42 3764.02,-1370.07 3767.84,-1379.95 3773.17,-1375.42"/>
</g>
<!-- Node31&#45;&gt;Node30 -->
<g id="edge112" class="edge"><title>Node31&#45;&gt;Node30</title>
<path fill="none" stroke="midnightblue" d="M3674.21,-1365.88C3665.47,-1365.93 3656.64,-1365.89 3648.05,-1365.76"/>
<polygon fill="midnightblue" stroke="midnightblue" points="3674.44,-1369.38 3684.41,-1365.78 3674.37,-1362.38 3674.44,-1369.38"/>
</g>
<!-- Node32 -->
<g id="node84" class="node"><title>Node32</title>
<a xlink:href="../../d3/d52/blanket_8js.html#a4dd24748ac2de2377e9de1cea378c8ce" target="_top" xlink:title="parseArguments">
<polygon fill="white" stroke="black" points="3863,-698.65 3863,-719.65 3951,-719.65 3951,-698.65 3863,-698.65"/>
<text text-anchor="middle" x="3907" y="-706.65" font-family="Helvetica,sans-Serif" font-size="10.00">parseArguments</text>
</a>
</g>
<!-- Node31&#45;&gt;Node32 -->
<g id="edge104" class="edge"><title>Node31&#45;&gt;Node32</title>
<path fill="none" stroke="midnightblue" d="M3757.18,-1337.98C3765.25,-1263.43 3796.41,-1006.75 3862,-805.15 3872.54,-772.768 3891.34,-737.054 3900.97,-719.734"/>
<polygon fill="midnightblue" stroke="midnightblue" points="3753.65,-1338.03 3756.08,-1348.34 3760.61,-1338.76 3753.65,-1338.03"/>
</g>
<!-- Node33 -->
<g id="node90" class="node"><title>Node33</title>
<a xlink:href="../../d3/d52/blanket_8js.html#ae038bf12ad5067fcaead75bbd31ced43" target="_top" xlink:title="parseExpression">
<polygon fill="white" stroke="red" points="3862.5,-814.65 3862.5,-835.65 3951.5,-835.65 3951.5,-814.65 3862.5,-814.65"/>
<text text-anchor="middle" x="3907" y="-822.65" font-family="Helvetica,sans-Serif" font-size="10.00">parseExpression</text>
</a>
</g>
<!-- Node31&#45;&gt;Node33 -->
<g id="edge114" class="edge"><title>Node31&#45;&gt;Node33</title>
<path fill="none" stroke="midnightblue" d="M3760.78,-1338.83C3785.92,-1250.52 3885.26,-901.532 3903.96,-835.842"/>
<polygon fill="midnightblue" stroke="midnightblue" points="3757.41,-1337.91 3758.04,-1348.48 3764.14,-1339.82 3757.41,-1337.91"/>
</g>
<!-- Node43 -->
<g id="node132" class="node"><title>Node43</title>
<a xlink:href="../../d3/d52/blanket_8js.html#a2d21feb352371240c5be038e221a268c" target="_top" xlink:title="parseVariableDeclaration">
<polygon fill="white" stroke="red" points="3988.5,-1424.65 3988.5,-1445.65 4113.5,-1445.65 4113.5,-1424.65 3988.5,-1424.65"/>
<text text-anchor="middle" x="4051" y="-1432.65" font-family="Helvetica,sans-Serif" font-size="10.00">parseVariableDeclaration</text>
</a>
</g>
<!-- Node31&#45;&gt;Node43 -->
<g id="edge178" class="edge"><title>Node31&#45;&gt;Node43</title>
<path fill="none" stroke="midnightblue" d="M3806.15,-1372.28C3863.82,-1387.09 3956.45,-1410.87 4009.72,-1424.55"/>
<polygon fill="midnightblue" stroke="midnightblue" points="3806.71,-1368.81 3796.16,-1369.72 3804.97,-1375.59 3806.71,-1368.81"/>
</g>
<!-- Node32&#45;&gt;Node15 -->
<g id="edge108" class="edge"><title>Node32&#45;&gt;Node15</title>
<path fill="none" stroke="midnightblue" d="M3852.86,-699.807C3787.99,-689.439 3675.9,-674.15 3579,-674.15 3406,-674.15 3406,-674.15 3406,-674.15 3089.53,-674.15 3014.47,-598.15 2698,-598.15 1556,-598.15 1556,-598.15 1556,-598.15 1441.62,-598.15 1307.73,-597.684 1234.26,-597.388"/>
<polygon fill="midnightblue" stroke="midnightblue" points="3852.43,-703.282 3862.86,-701.426 3853.55,-696.372 3852.43,-703.282"/>
</g>
<!-- Node32&#45;&gt;Node16 -->
<g id="edge110" class="edge"><title>Node32&#45;&gt;Node16</title>
<path fill="none" stroke="midnightblue" d="M3912.51,-688.926C3922.12,-657.973 3945.14,-599.657 3988,-573.15 4046.47,-536.993 4127.42,-537.51 4182.53,-543.633"/>
<polygon fill="midnightblue" stroke="midnightblue" points="3909.12,-688.055 3909.66,-698.636 3915.83,-690.027 3909.12,-688.055"/>
</g>
<!-- Node32&#45;&gt;Node17 -->
<g id="edge106" class="edge"><title>Node32&#45;&gt;Node17</title>
<path fill="none" stroke="midnightblue" d="M3852.95,-709.947C3787.94,-710.836 3675.49,-712.15 3579,-712.15 1710,-712.15 1710,-712.15 1710,-712.15 1614.29,-712.15 1588.85,-712.956 1496,-736.15 1456.12,-746.112 1412.16,-765.394 1386.66,-777.472"/>
<polygon fill="midnightblue" stroke="midnightblue" points="3853.02,-713.447 3862.97,-709.808 3852.92,-706.447 3853.02,-713.447"/>
</g>
<!-- Node33&#45;&gt;Node2 -->
<g id="edge160" class="edge"><title>Node33&#45;&gt;Node2</title>
<path fill="none" stroke="midnightblue" d="M3852.4,-825.418C3787.3,-825.714 3675.21,-826.15 3579,-826.15 1877,-826.15 1877,-826.15 1877,-826.15 1705.72,-826.15 1634.37,-783.193 1496,-884.15 1033.64,-1221.49 1375.95,-1949.22 938,-1705.15 431.915,-1423.12 231.206,-631.625 207.435,-530.769"/>
<polygon fill="midnightblue" stroke="midnightblue" points="3852.45,-828.918 3862.44,-825.372 3852.42,-821.918 3852.45,-828.918"/>
</g>
<!-- Node33&#45;&gt;Node3 -->
<g id="edge162" class="edge"><title>Node33&#45;&gt;Node3</title>
<path fill="none" stroke="midnightblue" d="M3907.32,-845.922C3910.51,-1045.5 3937.16,-2617.74 3988,-2701.15 3995.08,-2712.77 4007.4,-2720.99 4019.28,-2726.61"/>
<polygon fill="midnightblue" stroke="midnightblue" points="3910.82,-845.595 3907.16,-835.652 3903.82,-845.706 3910.82,-845.595"/>
</g>
<!-- Node33&#45;&gt;Node4 -->
<g id="edge122" class="edge"><title>Node33&#45;&gt;Node4</title>
<path fill="none" stroke="midnightblue" d="M3907.35,-845.9C3910.75,-1042.04 3938.67,-2564.34 3988,-2645.15 3995.09,-2656.76 4007.41,-2664.98 4019.29,-2670.61"/>
<polygon fill="midnightblue" stroke="midnightblue" points="3910.85,-845.718 3907.18,-835.78 3903.85,-845.838 3910.85,-845.718"/>
</g>
<!-- Node33&#45;&gt;Node5 -->
<g id="edge174" class="edge"><title>Node33&#45;&gt;Node5</title>
<path fill="none" stroke="midnightblue" d="M3907.31,-846.009C3910.32,-1040.02 3934.99,-2523.71 3988,-2599.15 3992.69,-2605.83 3999.43,-2610.8 4006.78,-2614.49"/>
<polygon fill="midnightblue" stroke="midnightblue" points="3910.81,-845.916 3907.16,-835.971 3903.81,-846.024 3910.81,-845.916"/>
</g>
<!-- Node33&#45;&gt;Node9 -->
<g id="edge116" class="edge"><title>Node33&#45;&gt;Node9</title>
<path fill="none" stroke="midnightblue" d="M3950.15,-811.89C4036.35,-788.357 4230.74,-750.57 4338,-850.15 4367.31,-877.359 4387.96,-1005.59 4393.51,-1043.54"/>
<polygon fill="midnightblue" stroke="midnightblue" points="3949.12,-808.544 3940.43,-814.609 3951.01,-815.285 3949.12,-808.544"/>
</g>
<!-- Node33&#45;&gt;Node11 -->
<g id="edge154" class="edge"><title>Node33&#45;&gt;Node11</title>
<path fill="none" stroke="midnightblue" d="M3907.29,-845.942C3909.01,-943.006 3920.2,-1351.2 3988,-1455.15 4023.73,-1509.93 4072.14,-1480.91 4114,-1531.15 4204.93,-1640.28 4236,-1819.57 4242.58,-1864.63"/>
<polygon fill="midnightblue" stroke="midnightblue" points="3910.79,-845.856 3907.13,-835.914 3903.79,-845.969 3910.79,-845.856"/>
</g>
<!-- Node33&#45;&gt;Node34 -->
<g id="edge118" class="edge"><title>Node33&#45;&gt;Node34</title>
<path fill="none" stroke="midnightblue" d="M3917.65,-805.634C3927.68,-786.589 3942.53,-756.559 3952,-729.15 3975.23,-661.893 3964.73,-640.393 3988,-573.15 4004.48,-525.535 4032.65,-472.282 4044.96,-449.935"/>
<polygon fill="midnightblue" stroke="midnightblue" points="3914.53,-804.051 3912.9,-814.521 3920.7,-807.351 3914.53,-804.051"/>
</g>
<!-- Node35 -->
<g id="node97" class="node"><title>Node35</title>
<a xlink:href="../../d3/d52/blanket_8js.html#aeb9d0b4038ec99a33dfff443c4b35474" target="_top" xlink:title="parseCatchClause">
<polygon fill="white" stroke="black" points="4002,-814.65 4002,-835.65 4100,-835.65 4100,-814.65 4002,-814.65"/>
<text text-anchor="middle" x="4051" y="-822.65" font-family="Helvetica,sans-Serif" font-size="10.00">parseCatchClause</text>
</a>
</g>
<!-- Node33&#45;&gt;Node35 -->
<g id="edge124" class="edge"><title>Node33&#45;&gt;Node35</title>
<path fill="none" stroke="midnightblue" d="M3962.1,-825.15C3975.23,-825.15 3989.16,-825.15 4002,-825.15"/>
<polygon fill="midnightblue" stroke="midnightblue" points="3961.77,-821.65 3951.77,-825.15 3961.77,-828.65 3961.77,-821.65"/>
</g>
<!-- Node36 -->
<g id="node99" class="node"><title>Node36</title>
<a xlink:href="../../d3/d52/blanket_8js.html#aaa0453fb1925f4a1566c2d80ca795f6e" target="_top" xlink:title="parseComputedMember">
<polygon fill="white" stroke="black" points="3990.5,-582.65 3990.5,-603.65 4111.5,-603.65 4111.5,-582.65 3990.5,-582.65"/>
<text text-anchor="middle" x="4051" y="-590.65" font-family="Helvetica,sans-Serif" font-size="10.00">parseComputedMember</text>
</a>
</g>
<!-- Node33&#45;&gt;Node36 -->
<g id="edge126" class="edge"><title>Node33&#45;&gt;Node36</title>
<path fill="none" stroke="midnightblue" d="M3923.22,-806.455C3932.84,-794.496 3944.56,-778.254 3952,-762.15 3979.66,-702.258 3944.55,-667.79 3988,-618.15 3993.43,-611.952 4000.59,-607.274 4008.15,-603.749"/>
<polygon fill="midnightblue" stroke="midnightblue" points="3920.37,-804.41 3916.68,-814.343 3925.75,-808.878 3920.37,-804.41"/>
</g>
<!-- Node38 -->
<g id="node109" class="node"><title>Node38</title>
<a xlink:href="../../d3/d52/blanket_8js.html#a6a4edd36ce21dbafc8996a3dff3759dd" target="_top" xlink:title="parseGroupExpression">
<polygon fill="white" stroke="black" points="3993,-1540.65 3993,-1561.65 4109,-1561.65 4109,-1540.65 3993,-1540.65"/>
<text text-anchor="middle" x="4051" y="-1548.65" font-family="Helvetica,sans-Serif" font-size="10.00">parseGroupExpression</text>
</a>
</g>
<!-- Node33&#45;&gt;Node38 -->
<g id="edge142" class="edge"><title>Node33&#45;&gt;Node38</title>
<path fill="none" stroke="midnightblue" d="M3907.73,-846.044C3911.49,-945.455 3930.7,-1370.58 3988,-1488.15 3998.84,-1510.4 4020.74,-1529.44 4035.64,-1540.6"/>
<polygon fill="midnightblue" stroke="midnightblue" points="3911.22,-845.673 3907.36,-835.807 3904.23,-845.929 3911.22,-845.673"/>
</g>
<!-- Node39 -->
<g id="node114" class="node"><title>Node39</title>
<a xlink:href="../../db/d7b/r_8js.html#a3b3182e65de7acec03619a7c3db10477" target="_top" xlink:title="parseThrowStatement">
<polygon fill="white" stroke="black" points="3994.5,-191.65 3994.5,-212.65 4107.5,-212.65 4107.5,-191.65 3994.5,-191.65"/>
<text text-anchor="middle" x="4051" y="-199.65" font-family="Helvetica,sans-Serif" font-size="10.00">parseThrowStatement</text>
</a>
</g>
<!-- Node33&#45;&gt;Node39 -->
<g id="edge150" class="edge"><title>Node33&#45;&gt;Node39</title>
<path fill="none" stroke="midnightblue" d="M3918.78,-805.618C3929.51,-786.769 3944.74,-757.061 3952,-729.15 3980.45,-619.841 3918.11,-310.883 3988,-222.15 3990.98,-218.364 3994.68,-215.281 3998.78,-212.774"/>
<polygon fill="midnightblue" stroke="midnightblue" points="3915.67,-804.017 3913.65,-814.418 3921.71,-807.542 3915.67,-804.017"/>
</g>
<!-- Node33&#45;&gt;Node40 -->
<g id="edge156" class="edge"><title>Node33&#45;&gt;Node40</title>
<path fill="none" stroke="midnightblue" d="M3918.5,-805.542C3929.02,-786.638 3944.11,-756.892 3952,-729.15 3989.93,-595.733 3956.54,-554.24 3988,-419.15 4003.16,-354.026 4034.44,-279.701 4046.3,-252.672"/>
<polygon fill="midnightblue" stroke="midnightblue" points="3915.38,-803.949 3913.48,-814.371 3921.47,-807.41 3915.38,-803.949"/>
</g>
<!-- Node33&#45;&gt;Node41 -->
<g id="edge164" class="edge"><title>Node33&#45;&gt;Node41</title>
<path fill="none" stroke="midnightblue" d="M3923.85,-807.133C3954.09,-774.787 4016.71,-707.823 4041.03,-681.809"/>
<polygon fill="midnightblue" stroke="midnightblue" points="3921.17,-804.87 3916.9,-814.565 3926.28,-809.651 3921.17,-804.87"/>
</g>
<!-- Node42 -->
<g id="node127" class="node"><title>Node42</title>
<a xlink:href="../../db/d7b/r_8js.html#a146bde02681c612af3f8e87db808b799" target="_top" xlink:title="parseSwitchStatement">
<polygon fill="white" stroke="black" points="4186,-621.65 4186,-642.65 4302,-642.65 4302,-621.65 4186,-621.65"/>
<text text-anchor="middle" x="4244" y="-629.65" font-family="Helvetica,sans-Serif" font-size="10.00">parseSwitchStatement</text>
</a>
</g>
<!-- Node33&#45;&gt;Node42 -->
<g id="edge176" class="edge"><title>Node33&#45;&gt;Node42</title>
<path fill="none" stroke="midnightblue" d="M3922.83,-806.269C3932.3,-794.24 3944.02,-777.989 3952,-762.15 3975.35,-715.839 3947.21,-683.178 3988,-651.15 4048.12,-603.949 4142.58,-611.463 4198.39,-621.566"/>
<polygon fill="midnightblue" stroke="midnightblue" points="3919.97,-804.236 3916.41,-814.215 3925.42,-808.634 3919.97,-804.236"/>
</g>
<!-- Node34&#45;&gt;Node2 -->
<g id="edge120" class="edge"><title>Node34&#45;&gt;Node2</title>
<path fill="none" stroke="midnightblue" d="M3987.97,-435.225C3830.79,-419.631 3408.65,-370.15 3055,-370.15 503,-370.15 503,-370.15 503,-370.15 404.874,-370.15 366.205,-344.568 284,-398.15 241.726,-425.705 218.686,-484.518 209.616,-509.333"/>
<polygon fill="midnightblue" stroke="midnightblue" points="3987.64,-438.71 3997.94,-436.202 3988.33,-431.743 3987.64,-438.71"/>
</g>
<!-- Node36&#45;&gt;Node9 -->
<g id="edge132" class="edge"><title>Node36&#45;&gt;Node9</title>
<path fill="none" stroke="midnightblue" d="M4122,-587.983C4196.8,-584.202 4307.89,-583.859 4338,-612.15 4370.63,-642.814 4390.86,-979.466 4394.43,-1043.62"/>
<polygon fill="midnightblue" stroke="midnightblue" points="4121.49,-584.505 4111.69,-588.537 4121.87,-591.495 4121.49,-584.505"/>
</g>
<!-- Node36&#45;&gt;Node11 -->
<g id="edge140" class="edge"><title>Node36&#45;&gt;Node11</title>
<path fill="none" stroke="midnightblue" d="M4076.62,-609.805C4090.11,-620.031 4105.56,-634.374 4114,-651.15 4229.4,-880.451 4242.7,-1757.39 4243.89,-1864.42"/>
<polygon fill="midnightblue" stroke="midnightblue" points="4078.29,-606.698 4068.13,-603.696 4074.2,-612.379 4078.29,-606.698"/>
</g>
<!-- Node36&#45;&gt;Node14 -->
<g id="edge128" class="edge"><title>Node36&#45;&gt;Node14</title>
<path fill="none" stroke="midnightblue" d="M3980.21,-594.367C3887.9,-595.847 3721.38,-598.15 3579,-598.15 3231,-598.15 3231,-598.15 3231,-598.15 2993.51,-598.15 2935.49,-636.15 2698,-636.15 1365,-636.15 1365,-636.15 1365,-636.15 1269.22,-636.15 1159,-643.251 1087.78,-648.77"/>
<polygon fill="midnightblue" stroke="midnightblue" points="3980.34,-597.866 3990.28,-594.204 3980.22,-590.867 3980.34,-597.866"/>
</g>
<!-- Node36&#45;&gt;Node16 -->
<g id="edge138" class="edge"><title>Node36&#45;&gt;Node16</title>
<path fill="none" stroke="midnightblue" d="M4112.91,-580.641C4138.39,-575.492 4167.58,-569.593 4191.93,-564.671"/>
<polygon fill="midnightblue" stroke="midnightblue" points="4112.08,-577.236 4102.97,-582.647 4113.47,-584.097 4112.08,-577.236"/>
</g>
<!-- Node36&#45;&gt;Node17 -->
<g id="edge130" class="edge"><title>Node36&#45;&gt;Node17</title>
<path fill="none" stroke="midnightblue" d="M3988.03,-611C3952.76,-652.775 3993.33,-696.555 3952,-729.15 3886.81,-780.56 3662.02,-750.15 3579,-750.15 1710,-750.15 1710,-750.15 1710,-750.15 1609.22,-750.15 1492.87,-766.369 1424.31,-777.615"/>
<polygon fill="midnightblue" stroke="midnightblue" points="3990.56,-613.419 3994.95,-603.773 3985.51,-608.58 3990.56,-613.419"/>
</g>
<!-- Node36&#45;&gt;Node37 -->
<g id="edge134" class="edge"><title>Node36&#45;&gt;Node37</title>
<path fill="none" stroke="midnightblue" d="M4072.08,-576.224C4112.11,-544.074 4198.08,-475.033 4230.9,-448.673"/>
<polygon fill="midnightblue" stroke="midnightblue" points="4069.87,-573.506 4064.27,-582.496 4074.25,-578.963 4069.87,-573.506"/>
</g>
<!-- Node37&#45;&gt;Node9 -->
<g id="edge136" class="edge"><title>Node37&#45;&gt;Node9</title>
<path fill="none" stroke="midnightblue" d="M4267.84,-454.931C4290.11,-472.068 4322.23,-500.832 4338,-534.15 4382.97,-629.169 4393.22,-977.569 4394.77,-1043.38"/>
<polygon fill="midnightblue" stroke="midnightblue" points="4269.65,-451.919 4259.55,-448.738 4265.46,-457.527 4269.65,-451.919"/>
</g>
<!-- Node38&#45;&gt;Node9 -->
<g id="edge144" class="edge"><title>Node38&#45;&gt;Node9</title>
<path fill="none" stroke="midnightblue" d="M4101.28,-1563.73C4165.41,-1576.47 4275.47,-1586.63 4338,-1526.15 4355.24,-1509.47 4388.18,-1133.77 4394.08,-1064.93"/>
<polygon fill="midnightblue" stroke="midnightblue" points="4101.9,-1560.29 4091.4,-1561.68 4100.48,-1567.14 4101.9,-1560.29"/>
</g>
<!-- Node38&#45;&gt;Node11 -->
<g id="edge148" class="edge"><title>Node38&#45;&gt;Node11</title>
<path fill="none" stroke="midnightblue" d="M4100.5,-1566.26C4105.41,-1569.04 4110.04,-1572.31 4114,-1576.15 4203.67,-1662.97 4235.32,-1822.05 4242.37,-1864.5"/>
<polygon fill="midnightblue" stroke="midnightblue" points="4101.95,-1563.07 4091.44,-1561.76 4098.84,-1569.34 4101.95,-1563.07"/>
</g>
<!-- Node38&#45;&gt;Node13 -->
<g id="edge146" class="edge"><title>Node38&#45;&gt;Node13</title>
<path fill="none" stroke="midnightblue" d="M4049.54,-1572.04C4041.58,-1683.11 4001.97,-2201.14 3952,-2250.15 3889.03,-2311.91 3843.2,-2274.15 3755,-2274.15 1556,-2274.15 1556,-2274.15 1556,-2274.15 1486.99,-2274.15 985.684,-2262.04 938,-2212.15 887.561,-2159.38 914.372,-1628.09 902,-1556.15 888.475,-1477.51 855.71,-1386.64 844.134,-1355.92"/>
<polygon fill="midnightblue" stroke="midnightblue" points="4053.05,-1572.04 4050.26,-1561.82 4046.07,-1571.54 4053.05,-1572.04"/>
</g>
<!-- Node39&#45;&gt;Node2 -->
<g id="edge152" class="edge"><title>Node39&#45;&gt;Node2</title>
<path fill="none" stroke="midnightblue" d="M3984.26,-194.349C3924.34,-188.023 3833.91,-180.15 3755,-180.15 503,-180.15 503,-180.15 503,-180.15 396.726,-180.15 355.297,-197.341 284,-276.15 219.477,-347.471 207.595,-472.145 205.458,-509.364"/>
<polygon fill="midnightblue" stroke="midnightblue" points="3984.03,-197.844 3994.35,-195.43 3984.78,-190.884 3984.03,-197.844"/>
</g>
<!-- Node40&#45;&gt;Node2 -->
<g id="edge158" class="edge"><title>Node40&#45;&gt;Node2</title>
<path fill="none" stroke="midnightblue" d="M3985.85,-244.663C3925.9,-242.889 3834.5,-238.15 3755,-238.15 1556,-238.15 1556,-238.15 1556,-238.15 1165.41,-238.15 1068.59,-276.15 678,-276.15 503,-276.15 503,-276.15 503,-276.15 398.752,-276.15 360.285,-289.099 284,-360.15 237.074,-403.857 215.478,-481.051 208.102,-509.623"/>
<polygon fill="midnightblue" stroke="midnightblue" points="3985.84,-248.164 3995.93,-244.94 3986.03,-241.167 3985.84,-248.164"/>
</g>
<!-- Node41&#45;&gt;Node9 -->
<g id="edge166" class="edge"><title>Node41&#45;&gt;Node9</title>
<path fill="none" stroke="midnightblue" d="M4108.16,-668.159C4182.26,-665.585 4305.8,-666.157 4338,-696.15 4364.31,-720.654 4389.06,-986.632 4394.08,-1043.49"/>
<polygon fill="midnightblue" stroke="midnightblue" points="4107.91,-664.666 4098.05,-668.54 4108.18,-671.661 4107.91,-664.666"/>
</g>
<!-- Node41&#45;&gt;Node11 -->
<g id="edge168" class="edge"><title>Node41&#45;&gt;Node11</title>
<path fill="none" stroke="midnightblue" d="M4062.49,-690.446C4077.03,-715.816 4101.64,-762.215 4114,-805.15 4175.84,-1020.05 4235.52,-1766.3 4243.17,-1864.46"/>
<polygon fill="midnightblue" stroke="midnightblue" points="4065.52,-688.685 4057.46,-681.803 4059.47,-692.206 4065.52,-688.685"/>
</g>
<!-- Node41&#45;&gt;Node42 -->
<g id="edge170" class="edge"><title>Node41&#45;&gt;Node42</title>
<path fill="none" stroke="midnightblue" d="M4108.12,-659.607C4134.65,-654.247 4165.97,-647.919 4191.84,-642.689"/>
<polygon fill="midnightblue" stroke="midnightblue" points="4107.32,-656.198 4098.21,-661.61 4108.71,-663.059 4107.32,-656.198"/>
</g>
<!-- Node42&#45;&gt;Node2 -->
<g id="edge172" class="edge"><title>Node42&#45;&gt;Node2</title>
<path fill="none" stroke="midnightblue" d="M4216.12,-616.692C4190.39,-603.108 4150.7,-583.881 4114,-573.15 3733.45,-461.886 3627.48,-446.15 3231,-446.15 1710,-446.15 1710,-446.15 1710,-446.15 1130.56,-446.15 427.133,-501.549 248.062,-516.48"/>
<polygon fill="midnightblue" stroke="midnightblue" points="4214.8,-619.955 4225.27,-621.593 4218.11,-613.785 4214.8,-619.955"/>
</g>
<!-- Node43&#45;&gt;Node9 -->
<g id="edge180" class="edge"><title>Node43&#45;&gt;Node9</title>
<path fill="none" stroke="midnightblue" d="M4123.92,-1440.08C4189.29,-1440.24 4283.11,-1429.21 4338,-1372.15 4381.84,-1326.58 4392.67,-1114.55 4394.63,-1064.68"/>
<polygon fill="midnightblue" stroke="midnightblue" points="4123.72,-1436.57 4113.68,-1439.96 4123.64,-1443.57 4123.72,-1436.57"/>
</g>
<!-- Node43&#45;&gt;Node11 -->
<g id="edge182" class="edge"><title>Node43&#45;&gt;Node11</title>
<path fill="none" stroke="midnightblue" d="M4101.85,-1450.41C4106.33,-1453.15 4110.49,-1456.37 4114,-1460.15 4172.82,-1523.5 4230.43,-1805.59 4241.93,-1864.39"/>
<polygon fill="midnightblue" stroke="midnightblue" points="4103.4,-1447.27 4092.92,-1445.71 4100.14,-1453.46 4103.4,-1447.27"/>
</g>
<!-- Node45 -->
<g id="node169" class="node"><title>Node45</title>
<a xlink:href="../../db/d7b/r_8js.html#a98235696795509f1466ca6456d6d4496" target="_top" xlink:title="parseProgram">
<polygon fill="white" stroke="black" points="4012.5,-2568.65 4012.5,-2589.65 4089.5,-2589.65 4089.5,-2568.65 4012.5,-2568.65"/>
<text text-anchor="middle" x="4051" y="-2576.65" font-family="Helvetica,sans-Serif" font-size="10.00">parseProgram</text>
</a>
</g>
<!-- Node44&#45;&gt;Node45 -->
<g id="edge248" class="edge"><title>Node44&#45;&gt;Node45</title>
<path fill="none" stroke="midnightblue" d="M569.734,-2565.82C637.682,-2571.09 746.096,-2578.15 840,-2578.15 840,-2578.15 840,-2578.15 3755,-2578.15 3847.24,-2578.15 3955.66,-2578.64 4012.21,-2578.94"/>
<polygon fill="midnightblue" stroke="midnightblue" points="569.84,-2562.32 559.596,-2565.02 569.291,-2569.29 569.84,-2562.32"/>
</g>
<!-- Node45&#45;&gt;Node9 -->
<g id="edge252" class="edge"><title>Node45&#45;&gt;Node9</title>
<path fill="none" stroke="midnightblue" d="M4100,-2582.3C4173.34,-2585.83 4306.44,-2587.29 4338,-2554.15 4365.32,-2525.46 4392.19,-1196.99 4394.79,-1064.73"/>
<polygon fill="midnightblue" stroke="midnightblue" points="4099.8,-2578.78 4089.64,-2581.76 4099.44,-2585.77 4099.8,-2578.78"/>
</g>
<!-- Node45&#45;&gt;Node10 -->
<g id="edge250" class="edge"><title>Node45&#45;&gt;Node10</title>
<path fill="none" stroke="midnightblue" d="M4087.86,-2593.03C4147.75,-2612.95 4266.68,-2641.14 4338,-2582.15 4451.62,-2488.17 4470.48,-1966.62 4472.74,-1885.7"/>
<polygon fill="midnightblue" stroke="midnightblue" points="4088.67,-2589.61 4078.08,-2589.67 4086.4,-2596.23 4088.67,-2589.61"/>
</g>
<!-- Node45&#45;&gt;Node11 -->
<g id="edge254" class="edge"><title>Node45&#45;&gt;Node11</title>
<path fill="none" stroke="midnightblue" d="M4061.34,-2559.66C4075.01,-2533.22 4099.11,-2484.22 4114,-2440.15 4187.62,-2222.26 4233.39,-1943.2 4242.37,-1885.77"/>
<polygon fill="midnightblue" stroke="midnightblue" points="4058.18,-2558.15 4056.65,-2568.63 4064.38,-2561.39 4058.18,-2558.15"/>
</g>
<!-- Node47 -->
<g id="node176" class="node"><title>Node47</title>
<a xlink:href="../../d3/d52/blanket_8js.html#af3549836ff2efc1bd21d0bf83d37d5e8" target="_top" xlink:title="parseBlock">
<polygon fill="white" stroke="black" points="3874.5,-124.65 3874.5,-145.65 3939.5,-145.65 3939.5,-124.65 3874.5,-124.65"/>
<text text-anchor="middle" x="3907" y="-132.65" font-family="Helvetica,sans-Serif" font-size="10.00">parseBlock</text>
</a>
</g>
<!-- Node46&#45;&gt;Node47 -->
<g id="edge258" class="edge"><title>Node46&#45;&gt;Node47</title>
<path fill="none" stroke="midnightblue" d="M876.861,-205.076C938.464,-182.858 1066.66,-142.15 1179,-142.15 1179,-142.15 1179,-142.15 3579,-142.15 3687.22,-142.15 3815.48,-138.294 3874.42,-136.306"/>
<polygon fill="midnightblue" stroke="midnightblue" points="875.397,-201.885 867.206,-208.605 877.8,-208.46 875.397,-201.885"/>
</g>
<!-- Node47&#45;&gt;Node2 -->
<g id="edge270" class="edge"><title>Node47&#45;&gt;Node2</title>
<path fill="none" stroke="midnightblue" d="M3864.15,-128.501C3801.63,-119.392 3681.67,-104.15 3579,-104.15 503,-104.15 503,-104.15 503,-104.15 401.841,-104.15 353.488,-92.6344 284,-166.15 234.905,-218.091 210.762,-456.257 205.922,-509.551"/>
<polygon fill="midnightblue" stroke="midnightblue" points="3863.64,-131.963 3874.04,-129.961 3864.66,-125.038 3863.64,-131.963"/>
</g>
<!-- Node47&#45;&gt;Node9 -->
<g id="edge274" class="edge"><title>Node47&#45;&gt;Node9</title>
<path fill="none" stroke="midnightblue" d="M3949.64,-141.749C4048.92,-158.07 4290.71,-203.656 4338,-267.15 4386.59,-332.38 4394.08,-953.942 4394.91,-1043.44"/>
<polygon fill="midnightblue" stroke="midnightblue" points="3950.08,-138.274 3939.65,-140.126 3948.96,-145.184 3950.08,-138.274"/>
</g>
<!-- Node47&#45;&gt;Node11 -->
<g id="edge276" class="edge"><title>Node47&#45;&gt;Node11</title>
<path fill="none" stroke="midnightblue" d="M3908.39,-156.118C3914.3,-242.017 3939.27,-575.24 3988,-845.15 4065.09,-1272.18 4216.99,-1785.19 4240.82,-1864.61"/>
<polygon fill="midnightblue" stroke="midnightblue" points="3911.88,-155.812 3907.71,-146.072 3904.89,-156.286 3911.88,-155.812"/>
</g>
<!-- Node48 -->
<g id="node178" class="node"><title>Node48</title>
<a xlink:href="../../db/d7b/r_8js.html#aeb9d0b4038ec99a33dfff443c4b35474" target="_top" xlink:title="parseCatchClause">
<polygon fill="white" stroke="black" points="4002,-113.65 4002,-134.65 4100,-134.65 4100,-113.65 4002,-113.65"/>
<text text-anchor="middle" x="4051" y="-121.65" font-family="Helvetica,sans-Serif" font-size="10.00">parseCatchClause</text>
</a>
</g>
<!-- Node47&#45;&gt;Node48 -->
<g id="edge260" class="edge"><title>Node47&#45;&gt;Node48</title>
<path fill="none" stroke="midnightblue" d="M3949.99,-131.866C3966.28,-130.622 3984.95,-129.196 4001.77,-127.911"/>
<polygon fill="midnightblue" stroke="midnightblue" points="3949.38,-128.402 3939.68,-132.654 3949.91,-135.382 3949.38,-128.402"/>
</g>
<!-- Node49 -->
<g id="node180" class="node"><title>Node49</title>
<a xlink:href="../../db/d7b/r_8js.html#afbd0d123a7318300b113d139fe19e055" target="_top" xlink:title="parseTryStatement">
<polygon fill="white" stroke="black" points="4194,-74.65 4194,-95.65 4294,-95.65 4294,-74.65 4194,-74.65"/>
<text text-anchor="middle" x="4244" y="-82.65" font-family="Helvetica,sans-Serif" font-size="10.00">parseTryStatement</text>
</a>
</g>
<!-- Node47&#45;&gt;Node49 -->
<g id="edge272" class="edge"><title>Node47&#45;&gt;Node49</title>
<path fill="none" stroke="midnightblue" d="M3939.07,-120.4C3953.69,-114.327 3971.4,-107.858 3988,-104.15 4058.24,-88.4569 4141.74,-85.0024 4193.82,-84.5904"/>
<polygon fill="midnightblue" stroke="midnightblue" points="3937.31,-117.347 3929.49,-124.503 3940.06,-123.781 3937.31,-117.347"/>
</g>
<!-- Node48&#45;&gt;Node9 -->
<g id="edge266" class="edge"><title>Node48&#45;&gt;Node9</title>
<path fill="none" stroke="midnightblue" d="M4110.42,-120.646C4185.18,-117.653 4307.51,-117.918 4338,-149.15 4370.89,-182.838 4392.09,-944.005 4394.72,-1043.47"/>
<polygon fill="midnightblue" stroke="midnightblue" points="4110.04,-117.159 4100.2,-121.087 4110.35,-124.153 4110.04,-117.159"/>
</g>
<!-- Node48&#45;&gt;Node11 -->
<g id="edge268" class="edge"><title>Node48&#45;&gt;Node11</title>
<path fill="none" stroke="midnightblue" d="M4077.07,-140.91C4090.56,-151.094 4105.86,-165.361 4114,-182.15 4159.71,-276.4 4141.99,-547.707 4150,-652.15 4188.65,-1155.9 4236.4,-1776.35 4243.18,-1864.54"/>
<polygon fill="midnightblue" stroke="midnightblue" points="4078.74,-137.797 4068.57,-134.823 4074.66,-143.489 4078.74,-137.797"/>
</g>
<!-- Node48&#45;&gt;Node49 -->
<g id="edge262" class="edge"><title>Node48&#45;&gt;Node49</title>
<path fill="none" stroke="midnightblue" d="M4110.22,-112.183C4136.99,-106.773 4168.29,-100.449 4193.88,-95.2777"/>
<polygon fill="midnightblue" stroke="midnightblue" points="4109.31,-108.796 4100.2,-114.208 4110.7,-115.658 4109.31,-108.796"/>
</g>
<!-- Node49&#45;&gt;Node2 -->
<g id="edge264" class="edge"><title>Node49&#45;&gt;Node2</title>
<path fill="none" stroke="midnightblue" d="M4183.97,-74.2615C4116.75,-63.0326 4004.44,-47.15 3907,-47.15 503,-47.15 503,-47.15 503,-47.15 402.535,-47.15 352.763,-29.9044 284,-103.15 226.255,-164.66 208.605,-449.802 205.524,-509.265"/>
<polygon fill="midnightblue" stroke="midnightblue" points="4183.51,-77.734 4193.95,-75.9513 4184.68,-70.8321 4183.51,-77.734"/>
</g>
</g>
</svg>
        <g id="navigator" transform="translate(0 0)" fill="#404254">
                <rect fill="#f2f5e9" fill-opacity="0.5" stroke="#606060" stroke-width=".5" x="0" y="0" width="60" height="60"/>
                <use id="zoomplus" xlink:href="#zoomPlus" x="17" y="9" onmousedown="handleZoom(evt,'in')"/>
                <use id="zoomminus" xlink:href="#zoomMin" x="42" y="9" onmousedown="handleZoom(evt,'out')"/>
                <use id="reset" xlink:href="#resetDef" x="30" y="36" onmousedown="handleReset()"/>
                <g id="arrowUp" xlink:href="#dirArrow" transform="translate(30 24)" onmousedown="handlePan(0,-1)">
                  <use xlink:href="#rim" fill="#404040">
                        <set attributeName="fill" to="#808080" begin="arrowUp.mouseover" end="arrowUp.mouseout"/>
                  </use>
                  <path fill="none" stroke="white" stroke-width="1.5" d="M0,-3.0v7 M-2.5,-0.5L0,-3.0L2.5,-0.5"/>
                </g>
                <g id="arrowRight" xlink:href="#dirArrow" transform="rotate(90) translate(36 -43)" onmousedown="handlePan(1,0)">
                  <use xlink:href="#rim" fill="#404040">
                        <set attributeName="fill" to="#808080" begin="arrowRight.mouseover" end="arrowRight.mouseout"/>
                  </use>
                  <path fill="none" stroke="white" stroke-width="1.5" d="M0,-3.0v7 M-2.5,-0.5L0,-3.0L2.5,-0.5"/>
                </g>
                <g id="arrowDown" xlink:href="#dirArrow" transform="rotate(180) translate(-30 -48)" onmousedown="handlePan(0,1)">
                  <use xlink:href="#rim" fill="#404040">
                        <set attributeName="fill" to="#808080" begin="arrowDown.mouseover" end="arrowDown.mouseout"/>
                  </use>
                  <path fill="none" stroke="white" stroke-width="1.5" d="M0,-3.0v7 M-2.5,-0.5L0,-3.0L2.5,-0.5"/>
                </g>
                <g id="arrowLeft" xlink:href="#dirArrow" transform="rotate(270) translate(-36 17)" onmousedown="handlePan(-1,0)">
                  <use xlink:href="#rim" fill="#404040">
                        <set attributeName="fill" to="#808080" begin="arrowLeft.mouseover" end="arrowLeft.mouseout"/>
                  </use>
                  <path fill="none" stroke="white" stroke-width="1.5" d="M0,-3.0v7 M-2.5,-0.5L0,-3.0L2.5,-0.5"/>
                </g>
        </g>
</svg>
