<?xml version="1.0" encoding="UTF-8" standalone="no"?>
<!DOCTYPE svg PUBLIC "-//W3C//DTD SVG 1.1//EN"
 "http://www.w3.org/Graphics/SVG/1.1/DTD/svg11.dtd">
<!-- Generated by graphviz version 2.26.3 (20100126.1600)
 -->
<!-- Title: G Pages: 1 -->
<!--zoomable 2057 -->
<svg id="main" version="1.1" xmlns="http://www.w3.org/2000/svg" xmlns:xlink="http://www.w3.org/1999/xlink" xml:space="preserve" onload="init(evt)">
        <defs>
                <circle id="rim" cx="0" cy="0" r="7"/>
                <circle id="rim2" cx="0" cy="0" r="3.5"/>
                <g id="zoomPlus">
                        <use xlink:href="#rim" fill="#404040">
                                <set attributeName="fill" to="#808080" begin="zoomplus.mouseover" end="zoomplus.mouseout"/>
                        </use>
                        <path d="M-4,0h8M0,-4v8" fill="none" stroke="white" stroke-width="1.5" pointer-events="none"/>
                </g>
                <g id="zoomMin">
                        <use xlink:href="#rim" fill="#404040">
                                <set attributeName="fill" to="#808080" begin="zoomminus.mouseover" end="zoomminus.mouseout"/>
                        </use>
                        <path d="M-4,0h8" fill="none" stroke="white" stroke-width="1.5" pointer-events="none"/>
                </g>
                <g id="dirArrow">
                        <path fill="none" stroke="white" stroke-width="1.5" d="M0,-3.0v7 M-2.5,-0.5L0,-3.0L2.5,-0.5"/>
                </g>
               <g id="resetDef">
                       <use xlink:href="#rim2" fill="#404040">
                               <set attributeName="fill" to="#808080" begin="reset.mouseover" end="reset.mouseout"/>
                       </use>
               </g>
        </defs>

<script type="text/javascript">
var viewWidth = 3424;
var viewHeight = 2057;
var sectionId = 'dynsection-23';
</script>
<script xlink:href="../../svgpan.js"/>
<svg id="graph" class="graph">
<g id="viewport">
<title>G</title>
<polygon fill="white" stroke="white" points="-4,5 -4,-2053.16 3421,-2053.16 3421,5 -4,5"/>
<!-- Node1 -->
<g id="node1" class="node"><title>Node1</title>
<polygon fill="#bfbfbf" stroke="black" points="0,-1332.06 0,-1353.06 138,-1353.06 138,-1332.06 0,-1332.06"/>
<text text-anchor="middle" x="69" y="-1340.06" font-family="Helvetica,sans-Serif" font-size="10.00">parseConditionalExpression</text>
</g>
<!-- Node2 -->
<g id="node3" class="node"><title>Node2</title>
<a xlink:href="../../d3/d52/blanket_8js.html#a581bf229967f248813f49806ed5ec40e" target="_top" xlink:title="parseAssignmentExpression">
<polygon fill="white" stroke="black" points="174.5,-1332.06 174.5,-1353.06 315.5,-1353.06 315.5,-1332.06 174.5,-1332.06"/>
<text text-anchor="middle" x="245" y="-1340.06" font-family="Helvetica,sans-Serif" font-size="10.00">parseAssignmentExpression</text>
</a>
</g>
<!-- Node1&#45;&gt;Node2 -->
<g id="edge2" class="edge"><title>Node1&#45;&gt;Node2</title>
<path fill="none" stroke="midnightblue" d="M148.226,-1335.84C156.953,-1335.78 165.796,-1335.81 174.408,-1335.93"/>
<polygon fill="midnightblue" stroke="midnightblue" points="148.016,-1332.35 138.055,-1335.95 148.092,-1339.34 148.016,-1332.35"/>
</g>
<!-- Node5 -->
<g id="node9" class="node"><title>Node5</title>
<a xlink:href="../../db/d7b/r_8js.html#a4bb36e0d0cde43aa023083eb1a91c876" target="_top" xlink:title="patch">
<polygon fill="white" stroke="black" points="3267.5,-545.063 3267.5,-566.063 3308.5,-566.063 3308.5,-545.063 3267.5,-545.063"/>
<text text-anchor="middle" x="3288" y="-553.063" font-family="Helvetica,sans-Serif" font-size="10.00">patch</text>
</a>
</g>
<!-- Node1&#45;&gt;Node5 -->
<g id="edge280" class="edge"><title>Node1&#45;&gt;Node5</title>
<path fill="none" stroke="midnightblue" d="M69.7811,-1321.9C76.6674,-1153.98 133.603,-19.5635 415,-19.5635 415,-19.5635 415,-19.5635 2977,-19.5635 3077.22,-19.5635 3127.78,32.7842 3202,-34.5635 3241.63,-70.5251 3280.51,-474.327 3287.04,-545.03"/>
<polygon fill="midnightblue" stroke="midnightblue" points="66.2829,-1321.78 69.3835,-1331.91 73.2774,-1322.06 66.2829,-1321.78"/>
</g>
<!-- Node10 -->
<g id="node22" class="node"><title>Node10</title>
<a xlink:href="../../db/d7b/r_8js.html#acdaaf121ae542d32ab051476c11ab32a" target="_top" xlink:title="unpatch">
<polygon fill="white" stroke="black" points="3262.5,-1459.06 3262.5,-1480.06 3313.5,-1480.06 3313.5,-1459.06 3262.5,-1459.06"/>
<text text-anchor="middle" x="3288" y="-1467.06" font-family="Helvetica,sans-Serif" font-size="10.00">unpatch</text>
</a>
</g>
<!-- Node1&#45;&gt;Node10 -->
<g id="edge282" class="edge"><title>Node1&#45;&gt;Node10</title>
<path fill="none" stroke="midnightblue" d="M69.8444,-1363.23C75.609,-1475.15 118.525,-2003.56 415,-2003.56 415,-2003.56 415,-2003.56 2977,-2003.56 3079.74,-2003.56 3131.36,-2025.16 3202,-1950.56 3235.9,-1914.76 3279.16,-1547.25 3286.82,-1480.07"/>
<polygon fill="midnightblue" stroke="midnightblue" points="73.3392,-1363.04 69.3731,-1353.21 66.3469,-1363.37 73.3392,-1363.04"/>
</g>
<!-- Node2&#45;&gt;Node1 -->
<g id="edge78" class="edge"><title>Node2&#45;&gt;Node1</title>
<path fill="none" stroke="midnightblue" d="M164.213,-1349.29C155.473,-1349.34 146.638,-1349.3 138.055,-1349.17"/>
<polygon fill="midnightblue" stroke="midnightblue" points="164.443,-1352.79 174.408,-1349.19 164.375,-1345.79 164.443,-1352.79"/>
</g>
<!-- Node3 -->
<g id="node5" class="node"><title>Node3</title>
<a xlink:href="../../d3/d52/blanket_8js.html#a4dd24748ac2de2377e9de1cea378c8ce" target="_top" xlink:title="parseArguments">
<polygon fill="white" stroke="black" points="1739,-622.063 1739,-643.063 1827,-643.063 1827,-622.063 1739,-622.063"/>
<text text-anchor="middle" x="1783" y="-630.063" font-family="Helvetica,sans-Serif" font-size="10.00">parseArguments</text>
</a>
</g>
<!-- Node2&#45;&gt;Node3 -->
<g id="edge4" class="edge"><title>Node2&#45;&gt;Node3</title>
<path fill="none" stroke="midnightblue" d="M246.18,-1321.75C255.798,-1161.77 327.624,-133.563 585,-133.563 585,-133.563 585,-133.563 759,-133.563 1032.21,-133.563 1103.74,-187.161 1348,-309.563 1534.69,-403.117 1724.72,-577.314 1771.9,-621.935"/>
<polygon fill="midnightblue" stroke="midnightblue" points="242.686,-1321.55 245.593,-1331.74 249.674,-1321.96 242.686,-1321.55"/>
</g>
<!-- Node2&#45;&gt;Node5 -->
<g id="edge276" class="edge"><title>Node2&#45;&gt;Node5</title>
<path fill="none" stroke="midnightblue" d="M245.906,-1321.43C252.341,-1174.7 292.585,-310.561 352,-211.563 415.878,-105.13 460.869,-57.5635 585,-57.5635 585,-57.5635 585,-57.5635 2977,-57.5635 3077.29,-57.5635 3127.58,-7.34025 3202,-74.5635 3274.87,-140.384 3286.27,-480.501 3287.79,-544.999"/>
<polygon fill="midnightblue" stroke="midnightblue" points="242.396,-1321.6 245.458,-1331.75 249.389,-1321.91 242.396,-1321.6"/>
</g>
<!-- Node2&#45;&gt;Node10 -->
<g id="edge278" class="edge"><title>Node2&#45;&gt;Node10</title>
<path fill="none" stroke="midnightblue" d="M246.235,-1363.37C253.877,-1471.63 304.13,-1965.56 585,-1965.56 585,-1965.56 585,-1965.56 2977,-1965.56 3080.38,-1965.56 3131.2,-1981.9 3202,-1906.56 3262.89,-1841.76 3283.79,-1540.66 3287.4,-1480.17"/>
<polygon fill="midnightblue" stroke="midnightblue" points="249.71,-1362.86 245.561,-1353.12 242.725,-1363.32 249.71,-1362.86"/>
</g>
<!-- Node18 -->
<g id="node58" class="node"><title>Node18</title>
<a xlink:href="../../d3/d52/blanket_8js.html#ae038bf12ad5067fcaead75bbd31ced43" target="_top" xlink:title="parseExpression">
<polygon fill="white" stroke="black" points="540.5,-1585.06 540.5,-1606.06 629.5,-1606.06 629.5,-1585.06 540.5,-1585.06"/>
<text text-anchor="middle" x="585" y="-1593.06" font-family="Helvetica,sans-Serif" font-size="10.00">parseExpression</text>
</a>
</g>
<!-- Node2&#45;&gt;Node18 -->
<g id="edge80" class="edge"><title>Node2&#45;&gt;Node18</title>
<path fill="none" stroke="midnightblue" d="M267.484,-1359.29C332.23,-1407.47 517.847,-1545.59 570.763,-1584.97"/>
<polygon fill="midnightblue" stroke="midnightblue" points="269.289,-1356.27 259.177,-1353.11 265.11,-1361.89 269.289,-1356.27"/>
</g>
<!-- Node46 -->
<g id="node170" class="node"><title>Node46</title>
<a xlink:href="../../d3/d52/blanket_8js.html#a2d21feb352371240c5be038e221a268c" target="_top" xlink:title="parseVariableDeclaration">
<polygon fill="white" stroke="black" points="352.5,-1332.06 352.5,-1353.06 477.5,-1353.06 477.5,-1332.06 352.5,-1332.06"/>
<text text-anchor="middle" x="415" y="-1340.06" font-family="Helvetica,sans-Serif" font-size="10.00">parseVariableDeclaration</text>
</a>
</g>
<!-- Node2&#45;&gt;Node46 -->
<g id="edge248" class="edge"><title>Node2&#45;&gt;Node46</title>
<path fill="none" stroke="midnightblue" d="M325.716,-1342.56C334.703,-1342.56 343.754,-1342.56 352.466,-1342.56"/>
<polygon fill="midnightblue" stroke="midnightblue" points="325.618,-1339.06 315.618,-1342.56 325.618,-1346.06 325.618,-1339.06"/>
</g>
<!-- Node4 -->
<g id="node7" class="node"><title>Node4</title>
<a xlink:href="../../d3/d52/blanket_8js.html#af991c5171c6f7fd0e7096135aff10ede" target="_top" xlink:title="parseLeftHandSideExpressionAllowCall">
<polygon fill="white" stroke="black" points="2044,-898.063 2044,-919.063 2234,-919.063 2234,-898.063 2044,-898.063"/>
<text text-anchor="middle" x="2139" y="-906.063" font-family="Helvetica,sans-Serif" font-size="10.00">parseLeftHandSideExpressionAllowCall</text>
</a>
</g>
<!-- Node3&#45;&gt;Node4 -->
<g id="edge6" class="edge"><title>Node3&#45;&gt;Node4</title>
<path fill="none" stroke="midnightblue" d="M1837.13,-644.126C1844.32,-646.485 1851.46,-649.277 1858,-652.563 1934.04,-690.771 1959.56,-701.598 2008,-771.563 2037.76,-814.552 2006.05,-847.597 2044,-883.563 2050.56,-889.781 2058.48,-894.496 2066.91,-898.063"/>
<polygon fill="midnightblue" stroke="midnightblue" points="1837.92,-640.71 1827.34,-641.17 1835.9,-647.411 1837.92,-640.71"/>
</g>
<!-- Node14 -->
<g id="node40" class="node"><title>Node14</title>
<a xlink:href="../../d3/d52/blanket_8js.html#ab0ddf6d9b1b97408e0a5e840801580ac" target="_top" xlink:title="parseNewExpression">
<polygon fill="white" stroke="black" points="1896,-622.063 1896,-643.063 2006,-643.063 2006,-622.063 1896,-622.063"/>
<text text-anchor="middle" x="1951" y="-630.063" font-family="Helvetica,sans-Serif" font-size="10.00">parseNewExpression</text>
</a>
</g>
<!-- Node3&#45;&gt;Node14 -->
<g id="edge52" class="edge"><title>Node3&#45;&gt;Node14</title>
<path fill="none" stroke="midnightblue" d="M1837.27,-632.563C1855.98,-632.563 1876.94,-632.563 1895.73,-632.563"/>
<polygon fill="midnightblue" stroke="midnightblue" points="1837.14,-629.064 1827.14,-632.563 1837.14,-636.064 1837.14,-629.064"/>
</g>
<!-- Node16 -->
<g id="node48" class="node"><title>Node16</title>
<a xlink:href="../../db/d7b/r_8js.html#a8109edbc91b1c5805509faafc36dda62" target="_top" xlink:title="trackLeftHandSideExpressionAllowCall">
<polygon fill="white" stroke="black" points="2045,-470.063 2045,-491.063 2233,-491.063 2233,-470.063 2045,-470.063"/>
<text text-anchor="middle" x="2139" y="-478.063" font-family="Helvetica,sans-Serif" font-size="10.00">trackLeftHandSideExpressionAllowCall</text>
</a>
</g>
<!-- Node3&#45;&gt;Node16 -->
<g id="edge76" class="edge"><title>Node3&#45;&gt;Node16</title>
<path fill="none" stroke="midnightblue" d="M1820.76,-618.359C1866.41,-600.569 1944.96,-567.97 2008,-531.563 2025.09,-521.693 2026.16,-513.995 2044,-505.563 2056.8,-499.516 2071.28,-494.762 2085.02,-491.099"/>
<polygon fill="midnightblue" stroke="midnightblue" points="1819.32,-615.16 1811.26,-622.031 1821.85,-621.689 1819.32,-615.16"/>
</g>
<!-- Node4&#45;&gt;Node5 -->
<g id="edge8" class="edge"><title>Node4&#45;&gt;Node5</title>
<path fill="none" stroke="midnightblue" d="M2161.96,-891.809C2182.21,-876.408 2211.85,-852.279 2234,-827.563 2253,-806.358 2248.71,-793.479 2270,-774.563 2349.19,-704.188 2378.06,-669.563 2484,-669.563 2484,-669.563 2484,-669.563 2977,-669.563 3077.57,-669.563 3111.76,-689.957 3202,-645.563 3239.23,-627.247 3268.99,-585.78 3281.54,-566.192"/>
<polygon fill="midnightblue" stroke="midnightblue" points="2159.81,-889.05 2153.91,-897.851 2164.01,-894.648 2159.81,-889.05"/>
</g>
<!-- Node7 -->
<g id="node13" class="node"><title>Node7</title>
<a xlink:href="../../d3/d52/blanket_8js.html#a8140b4f8a5ed204e55ec65d01ef0e08d" target="_top" xlink:title="parsePostfixExpression">
<polygon fill="white" stroke="black" points="2270,-931.063 2270,-952.063 2390,-952.063 2390,-931.063 2270,-931.063"/>
<text text-anchor="middle" x="2330" y="-939.063" font-family="Helvetica,sans-Serif" font-size="10.00">parsePostfixExpression</text>
</a>
</g>
<!-- Node4&#45;&gt;Node7 -->
<g id="edge12" class="edge"><title>Node4&#45;&gt;Node7</title>
<path fill="none" stroke="midnightblue" d="M2209.83,-920.801C2229.59,-924.215 2250.87,-927.892 2269.95,-931.188"/>
<polygon fill="midnightblue" stroke="midnightblue" points="2210.41,-917.349 2199.96,-919.096 2209.22,-924.247 2210.41,-917.349"/>
</g>
<!-- Node4&#45;&gt;Node10 -->
<g id="edge50" class="edge"><title>Node4&#45;&gt;Node10</title>
<path fill="none" stroke="midnightblue" d="M2149.61,-927.938C2182.03,-984.937 2286.21,-1152.14 2426,-1217.56 2445.77,-1226.82 3183.61,-1329.81 3202,-1341.56 3247.56,-1370.69 3274.77,-1433.55 3284.22,-1458.77"/>
<polygon fill="midnightblue" stroke="midnightblue" points="2152.65,-926.206 2144.71,-919.193 2146.54,-929.628 2152.65,-926.206"/>
</g>
<!-- Node6 -->
<g id="node11" class="node"><title>Node6</title>
<a xlink:href="../../db/d7b/r_8js.html#a3e70263fa1d00b23249fce45e65e5849" target="_top" xlink:title="parse">
<polygon fill="white" stroke="black" points="3374.5,-545.063 3374.5,-566.063 3415.5,-566.063 3415.5,-545.063 3374.5,-545.063"/>
<text text-anchor="middle" x="3395" y="-553.063" font-family="Helvetica,sans-Serif" font-size="10.00">parse</text>
</a>
</g>
<!-- Node5&#45;&gt;Node6 -->
<g id="edge10" class="edge"><title>Node5&#45;&gt;Node6</title>
<path fill="none" stroke="midnightblue" d="M3318.85,-555.563C3336.71,-555.563 3358.68,-555.563 3374.43,-555.563"/>
<polygon fill="midnightblue" stroke="midnightblue" points="3318.63,-552.064 3308.63,-555.563 3318.63,-559.064 3318.63,-552.064"/>
</g>
<!-- Node7&#45;&gt;Node5 -->
<g id="edge14" class="edge"><title>Node7&#45;&gt;Node5</title>
<path fill="none" stroke="midnightblue" d="M2345.32,-923.454C2388.2,-874.915 2515.2,-745.563 2651,-745.563 2651,-745.563 2651,-745.563 2977,-745.563 3077.57,-745.563 3118.97,-778.309 3202,-721.563 3258.01,-683.287 3279.89,-596.867 3286.03,-566.424"/>
<polygon fill="midnightblue" stroke="midnightblue" points="2342.66,-921.182 2338.74,-931.026 2347.94,-925.775 2342.66,-921.182"/>
</g>
<!-- Node8 -->
<g id="node16" class="node"><title>Node8</title>
<a xlink:href="../../d3/d52/blanket_8js.html#ae5cd9b619fc76e94b0867d235da7dc1c" target="_top" xlink:title="parseUnaryExpression">
<polygon fill="white" stroke="black" points="2426,-947.063 2426,-968.063 2542,-968.063 2542,-947.063 2426,-947.063"/>
<text text-anchor="middle" x="2484" y="-955.063" font-family="Helvetica,sans-Serif" font-size="10.00">parseUnaryExpression</text>
</a>
</g>
<!-- Node7&#45;&gt;Node8 -->
<g id="edge16" class="edge"><title>Node7&#45;&gt;Node8</title>
<path fill="none" stroke="midnightblue" d="M2400.61,-948.9C2409.03,-949.774 2417.55,-950.66 2425.77,-951.513"/>
<polygon fill="midnightblue" stroke="midnightblue" points="2400.73,-945.393 2390.42,-947.841 2400.01,-952.356 2400.73,-945.393"/>
</g>
<!-- Node7&#45;&gt;Node10 -->
<g id="edge48" class="edge"><title>Node7&#45;&gt;Node10</title>
<path fill="none" stroke="midnightblue" d="M2367.56,-955.682C2385.28,-962.335 2406.72,-970.372 2426,-977.563 2431.39,-979.573 3197.85,-1261.59 3202,-1265.56 3261.14,-1322.18 3281.4,-1425.81 3286.54,-1459.02"/>
<polygon fill="midnightblue" stroke="midnightblue" points="2368.73,-952.382 2358.13,-952.143 2366.27,-958.935 2368.73,-952.382"/>
</g>
<!-- Node8&#45;&gt;Node5 -->
<g id="edge18" class="edge"><title>Node8&#45;&gt;Node5</title>
<path fill="none" stroke="midnightblue" d="M2502.43,-939.99C2550.78,-895.801 2686.98,-783.563 2823,-783.563 2823,-783.563 2823,-783.563 2977,-783.563 3077.57,-783.563 3121.28,-819.545 3202,-759.563 3268.02,-710.506 3283.76,-600.913 3287.15,-566.273"/>
<polygon fill="midnightblue" stroke="midnightblue" points="2499.88,-937.574 2494.93,-946.941 2504.64,-942.706 2499.88,-937.574"/>
</g>
<!-- Node9 -->
<g id="node19" class="node"><title>Node9</title>
<a xlink:href="../../d3/d52/blanket_8js.html#aade312248455675511d8ccecf0b96416" target="_top" xlink:title="parseMultiplicativeExpression">
<polygon fill="white" stroke="black" points="2578,-950.063 2578,-971.063 2724,-971.063 2724,-950.063 2578,-950.063"/>
<text text-anchor="middle" x="2651" y="-958.063" font-family="Helvetica,sans-Serif" font-size="10.00">parseMultiplicativeExpression</text>
</a>
</g>
<!-- Node8&#45;&gt;Node9 -->
<g id="edge20" class="edge"><title>Node8&#45;&gt;Node9</title>
<path fill="none" stroke="midnightblue" d="M2552.51,-958.794C2560.9,-958.945 2569.49,-959.099 2577.94,-959.251"/>
<polygon fill="midnightblue" stroke="midnightblue" points="2552.47,-955.293 2542.41,-958.613 2552.34,-962.292 2552.47,-955.293"/>
</g>
<!-- Node8&#45;&gt;Node10 -->
<g id="edge46" class="edge"><title>Node8&#45;&gt;Node10</title>
<path fill="none" stroke="midnightblue" d="M2522.93,-971.701C2670.7,-1025.42 3189.2,-1214.53 3202,-1227.56 3269.63,-1296.44 3284.38,-1421.9 3287.32,-1458.98"/>
<polygon fill="midnightblue" stroke="midnightblue" points="2523.94,-968.342 2513.34,-968.216 2521.55,-974.921 2523.94,-968.342"/>
</g>
<!-- Node9&#45;&gt;Node5 -->
<g id="edge22" class="edge"><title>Node9&#45;&gt;Node5</title>
<path fill="none" stroke="midnightblue" d="M2693.19,-946.866C2746.39,-929.704 2840.72,-899.626 2922,-875.563 2923.94,-874.991 3200.52,-798.94 3202,-797.563 3272.76,-731.575 3285.35,-603.575 3287.55,-566.107"/>
<polygon fill="midnightblue" stroke="midnightblue" points="2691.87,-943.614 2683.43,-950.018 2694.03,-950.275 2691.87,-943.614"/>
</g>
<!-- Node9&#45;&gt;Node10 -->
<g id="edge24" class="edge"><title>Node9&#45;&gt;Node10</title>
<path fill="none" stroke="midnightblue" d="M2687.91,-974.905C2808.36,-1021.83 3183.3,-1168.98 3202,-1189.56 3240.13,-1231.53 3277.09,-1412.85 3285.98,-1458.9"/>
<polygon fill="midnightblue" stroke="midnightblue" points="2688.96,-971.557 2678.37,-971.19 2686.42,-978.08 2688.96,-971.557"/>
</g>
<!-- Node11 -->
<g id="node25" class="node"><title>Node11</title>
<a xlink:href="../../d3/d52/blanket_8js.html#a2e6fe0682b4e55d8e98ae5c01b0f6651" target="_top" xlink:title="parseAdditiveExpression">
<polygon fill="white" stroke="black" points="2760.5,-958.063 2760.5,-979.063 2885.5,-979.063 2885.5,-958.063 2760.5,-958.063"/>
<text text-anchor="middle" x="2823" y="-966.063" font-family="Helvetica,sans-Serif" font-size="10.00">parseAdditiveExpression</text>
</a>
</g>
<!-- Node9&#45;&gt;Node11 -->
<g id="edge28" class="edge"><title>Node9&#45;&gt;Node11</title>
<path fill="none" stroke="midnightblue" d="M2734.59,-964.451C2743.27,-964.855 2751.98,-965.26 2760.37,-965.65"/>
<polygon fill="midnightblue" stroke="midnightblue" points="2734.59,-960.948 2724.44,-963.979 2734.27,-967.94 2734.59,-960.948"/>
</g>
<!-- Node10&#45;&gt;Node6 -->
<g id="edge26" class="edge"><title>Node10&#45;&gt;Node6</title>
<path fill="none" stroke="midnightblue" d="M3290.44,-1448.74C3305.25,-1322.2 3382.89,-659 3393.74,-566.322"/>
<polygon fill="midnightblue" stroke="midnightblue" points="3286.93,-1448.64 3289.24,-1458.98 3293.88,-1449.46 3286.93,-1448.64"/>
</g>
<!-- Node11&#45;&gt;Node5 -->
<g id="edge42" class="edge"><title>Node11&#45;&gt;Node5</title>
<path fill="none" stroke="midnightblue" d="M2843.18,-951.314C2862.28,-935.838 2892.38,-913.613 2922,-900.563 3038.91,-849.057 3108.56,-922.687 3202,-835.563 3243.56,-796.809 3278.1,-612.304 3286.2,-566.082"/>
<polygon fill="midnightblue" stroke="midnightblue" points="2840.69,-948.826 2835.21,-957.893 2845.15,-954.223 2840.69,-948.826"/>
</g>
<!-- Node11&#45;&gt;Node10 -->
<g id="edge44" class="edge"><title>Node11&#45;&gt;Node10</title>
<path fill="none" stroke="midnightblue" d="M2861.78,-982.562C2948.7,-1014.66 3155.17,-1095.11 3202,-1151.56 3243.08,-1201.08 3278.38,-1409.2 3286.33,-1458.88"/>
<polygon fill="midnightblue" stroke="midnightblue" points="2862.87,-979.235 2852.28,-979.071 2860.46,-985.806 2862.87,-979.235"/>
</g>
<!-- Node12 -->
<g id="node27" class="node"><title>Node12</title>
<a xlink:href="../../d3/d52/blanket_8js.html#af18e7fadfc65d15335d15562b922e197" target="_top" xlink:title="parseShiftExpression">
<polygon fill="white" stroke="black" points="2922,-962.063 2922,-983.063 3032,-983.063 3032,-962.063 2922,-962.063"/>
<text text-anchor="middle" x="2977" y="-970.063" font-family="Helvetica,sans-Serif" font-size="10.00">parseShiftExpression</text>
</a>
</g>
<!-- Node11&#45;&gt;Node12 -->
<g id="edge30" class="edge"><title>Node11&#45;&gt;Node12</title>
<path fill="none" stroke="midnightblue" d="M2895.84,-970.455C2904.59,-970.683 2913.4,-970.912 2921.84,-971.131"/>
<polygon fill="midnightblue" stroke="midnightblue" points="2895.73,-966.951 2885.64,-970.19 2895.54,-973.949 2895.73,-966.951"/>
</g>
<!-- Node12&#45;&gt;Node5 -->
<g id="edge38" class="edge"><title>Node12&#45;&gt;Node5</title>
<path fill="none" stroke="midnightblue" d="M3035.87,-959.86C3098.51,-945.834 3190.25,-923.646 3202,-911.563 3252.32,-859.831 3281.02,-619.931 3286.88,-566.242"/>
<polygon fill="midnightblue" stroke="midnightblue" points="3035.08,-956.449 3026.08,-962.038 3036.6,-963.282 3035.08,-956.449"/>
</g>
<!-- Node12&#45;&gt;Node10 -->
<g id="edge40" class="edge"><title>Node12&#45;&gt;Node10</title>
<path fill="none" stroke="midnightblue" d="M3018.22,-986.419C3076.27,-1006.73 3177.73,-1045.44 3202,-1075.56 3252.19,-1137.85 3281.3,-1402.84 3286.97,-1459.06"/>
<polygon fill="midnightblue" stroke="midnightblue" points="3019.2,-983.054 3008.61,-983.083 3016.91,-989.667 3019.2,-983.054"/>
</g>
<!-- Node13 -->
<g id="node29" class="node"><title>Node13</title>
<a xlink:href="../../d3/d52/blanket_8js.html#abef72bf489b6ff3ad5f00acefe809217" target="_top" xlink:title="parseRelationalExpression">
<polygon fill="white" stroke="red" points="3068.5,-964.063 3068.5,-985.063 3201.5,-985.063 3201.5,-964.063 3068.5,-964.063"/>
<text text-anchor="middle" x="3135" y="-972.063" font-family="Helvetica,sans-Serif" font-size="10.00">parseRelationalExpression</text>
</a>
</g>
<!-- Node12&#45;&gt;Node13 -->
<g id="edge32" class="edge"><title>Node12&#45;&gt;Node13</title>
<path fill="none" stroke="midnightblue" d="M3042.53,-973.393C3051.06,-973.501 3059.81,-973.612 3068.36,-973.72"/>
<polygon fill="midnightblue" stroke="midnightblue" points="3042.3,-969.89 3032.26,-973.263 3042.22,-976.889 3042.3,-969.89"/>
</g>
<!-- Node13&#45;&gt;Node5 -->
<g id="edge34" class="edge"><title>Node13&#45;&gt;Node5</title>
<path fill="none" stroke="midnightblue" d="M3190.91,-959.052C3195.03,-956.376 3198.81,-953.239 3202,-949.563 3254.4,-889.126 3281.77,-622.681 3287.05,-566.134"/>
<polygon fill="midnightblue" stroke="midnightblue" points="3189.14,-956.033 3182.07,-963.923 3192.51,-962.165 3189.14,-956.033"/>
</g>
<!-- Node13&#45;&gt;Node10 -->
<g id="edge36" class="edge"><title>Node13&#45;&gt;Node10</title>
<path fill="none" stroke="midnightblue" d="M3191.55,-990.295C3195.44,-992.922 3199,-995.987 3202,-999.563 3263.39,-1072.85 3283.95,-1395.19 3287.44,-1458.68"/>
<polygon fill="midnightblue" stroke="midnightblue" points="3193.01,-987.098 3182.58,-985.216 3189.56,-993.189 3193.01,-987.098"/>
</g>
<!-- Node14&#45;&gt;Node4 -->
<g id="edge68" class="edge"><title>Node14&#45;&gt;Node4</title>
<path fill="none" stroke="midnightblue" d="M1998.48,-648.522C2002.07,-651.107 2005.32,-654.1 2008,-657.563 2070.18,-738.056 1975.74,-808.16 2044,-883.563 2049.49,-889.632 2056.27,-894.304 2063.65,-897.89"/>
<polygon fill="midnightblue" stroke="midnightblue" points="2000.01,-645.356 1989.64,-643.201 1996.4,-651.355 2000.01,-645.356"/>
</g>
<!-- Node14&#45;&gt;Node5 -->
<g id="edge54" class="edge"><title>Node14&#45;&gt;Node5</title>
<path fill="none" stroke="midnightblue" d="M1980.86,-617.563C1998.78,-609.114 2022.24,-598.997 2044,-592.563 2234.23,-536.311 2285.62,-517.563 2484,-517.563 2484,-517.563 2484,-517.563 2977,-517.563 3087.15,-517.563 3217.63,-541.34 3267.36,-551.278"/>
<polygon fill="midnightblue" stroke="midnightblue" points="1979.02,-614.564 1971.53,-622.052 1982.06,-620.873 1979.02,-614.564"/>
</g>
<!-- Node14&#45;&gt;Node10 -->
<g id="edge74" class="edge"><title>Node14&#45;&gt;Node10</title>
<path fill="none" stroke="midnightblue" d="M1980.14,-648.143C1989.36,-653.538 1999.38,-659.912 2008,-666.563 2119.48,-752.572 2151.48,-774.483 2234,-888.563 2255.2,-917.874 2243.21,-937.254 2270,-961.563 2310.99,-998.756 3160.17,-1277.32 3202,-1313.56 3250.15,-1355.29 3276.49,-1430.87 3284.95,-1458.81"/>
<polygon fill="midnightblue" stroke="midnightblue" points="1981.7,-645.003 1971.28,-643.101 1978.24,-651.087 1981.7,-645.003"/>
</g>
<!-- Node15 -->
<g id="node43" class="node"><title>Node15</title>
<a xlink:href="../../d3/d52/blanket_8js.html#ad7267f9e15c8f3c37f34200e138b8db9" target="_top" xlink:title="parseLeftHandSideExpression">
<polygon fill="white" stroke="black" points="1708.5,-662.063 1708.5,-683.063 1857.5,-683.063 1857.5,-662.063 1708.5,-662.063"/>
<text text-anchor="middle" x="1783" y="-670.063" font-family="Helvetica,sans-Serif" font-size="10.00">parseLeftHandSideExpression</text>
</a>
</g>
<!-- Node14&#45;&gt;Node15 -->
<g id="edge56" class="edge"><title>Node14&#45;&gt;Node15</title>
<path fill="none" stroke="midnightblue" d="M1917.48,-646.065C1899.61,-651.32 1876.88,-657.121 1855.22,-662.058"/>
<polygon fill="midnightblue" stroke="midnightblue" points="1918.59,-649.387 1927.14,-643.128 1916.56,-642.69 1918.59,-649.387"/>
</g>
<!-- Node14&#45;&gt;Node16 -->
<g id="edge64" class="edge"><title>Node14&#45;&gt;Node16</title>
<path fill="none" stroke="midnightblue" d="M1969.06,-614.79C1980.89,-602.649 1996.27,-585.864 2008,-569.563 2027.07,-543.076 2018.18,-525.518 2044,-505.563 2052.1,-499.307 2061.62,-494.61 2071.45,-491.085"/>
<polygon fill="midnightblue" stroke="midnightblue" points="1966.43,-612.478 1961.88,-622.047 1971.4,-617.403 1966.43,-612.478"/>
</g>
<!-- Node17 -->
<g id="node52" class="node"><title>Node17</title>
<a xlink:href="../../db/d7b/r_8js.html#a11ec19180b29a7c45621ef05b8890c30" target="_top" xlink:title="trackLeftHandSideExpression">
<polygon fill="white" stroke="black" points="2066,-602.063 2066,-623.063 2212,-623.063 2212,-602.063 2066,-602.063"/>
<text text-anchor="middle" x="2139" y="-610.063" font-family="Helvetica,sans-Serif" font-size="10.00">trackLeftHandSideExpression</text>
</a>
</g>
<!-- Node14&#45;&gt;Node17 -->
<g id="edge70" class="edge"><title>Node14&#45;&gt;Node17</title>
<path fill="none" stroke="midnightblue" d="M2016.4,-625.606C2032.32,-623.913 2049.44,-622.091 2065.7,-620.362"/>
<polygon fill="midnightblue" stroke="midnightblue" points="2015.71,-622.16 2006.14,-626.698 2016.45,-629.12 2015.71,-622.16"/>
</g>
<!-- Node15&#45;&gt;Node5 -->
<g id="edge58" class="edge"><title>Node15&#45;&gt;Node5</title>
<path fill="none" stroke="midnightblue" d="M1867.62,-672.726C1959.2,-671.137 2108.94,-663.383 2234,-632.563 2250.83,-628.416 2253.22,-621.906 2270,-617.563 2362.65,-593.585 2388.29,-593.563 2484,-593.563 2484,-593.563 2484,-593.563 2977,-593.563 3087.15,-593.563 3217.63,-569.787 3267.36,-559.849"/>
<polygon fill="midnightblue" stroke="midnightblue" points="1867.51,-669.227 1857.57,-672.88 1867.62,-676.226 1867.51,-669.227"/>
</g>
<!-- Node15&#45;&gt;Node10 -->
<g id="edge62" class="edge"><title>Node15&#45;&gt;Node10</title>
<path fill="none" stroke="midnightblue" d="M1799.93,-691.009C1872.98,-770.331 2162.23,-1081.97 2270,-1160.56 2332.95,-1206.48 2352.17,-1215.64 2426,-1240.56 2508.99,-1268.58 3124.82,-1338.13 3202,-1379.56 3238.37,-1399.09 3268.34,-1439.58 3281.22,-1458.88"/>
<polygon fill="midnightblue" stroke="midnightblue" points="1802.18,-688.276 1792.83,-683.286 1797.02,-693.015 1802.18,-688.276"/>
</g>
<!-- Node15&#45;&gt;Node14 -->
<g id="edge60" class="edge"><title>Node15&#45;&gt;Node14</title>
<path fill="none" stroke="midnightblue" d="M1816.54,-659.055C1839.21,-652.392 1869.67,-644.852 1895.87,-639.308"/>
<polygon fill="midnightblue" stroke="midnightblue" points="1815.26,-655.785 1806.71,-662.044 1817.3,-662.482 1815.26,-655.785"/>
</g>
<!-- Node16&#45;&gt;Node5 -->
<g id="edge66" class="edge"><title>Node16&#45;&gt;Node5</title>
<path fill="none" stroke="midnightblue" d="M2243.43,-480.103C2311.85,-479.841 2403.24,-479.563 2484,-479.563 2484,-479.563 2484,-479.563 2977,-479.563 3077.57,-479.563 3106.7,-471.447 3202,-503.563 3229.94,-512.98 3258.47,-532.626 3274.64,-544.891"/>
<polygon fill="midnightblue" stroke="midnightblue" points="2243.07,-476.605 2233.08,-480.144 2243.09,-483.605 2243.07,-476.605"/>
</g>
<!-- Node17&#45;&gt;Node5 -->
<g id="edge72" class="edge"><title>Node17&#45;&gt;Node5</title>
<path fill="none" stroke="midnightblue" d="M2185.06,-599.341C2210.02,-592.587 2241.5,-584.727 2270,-579.563 2364.17,-562.502 2388.29,-555.563 2484,-555.563 2484,-555.563 2484,-555.563 2977,-555.563 3086.34,-555.563 3217.29,-555.563 3267.25,-555.563"/>
<polygon fill="midnightblue" stroke="midnightblue" points="2183.85,-596.041 2175.14,-602.06 2185.7,-602.792 2183.85,-596.041"/>
</g>
<!-- Node18&#45;&gt;Node5 -->
<g id="edge82" class="edge"><title>Node18&#45;&gt;Node5</title>
<path fill="none" stroke="midnightblue" d="M593.197,-1575.24C608.855,-1535.28 642.646,-1443.38 656,-1362.56 666.268,-1300.43 651.849,-278.081 692,-229.563 737.123,-175.038 1036.55,-134.563 1273,-134.563 1273,-134.563 1273,-134.563 1951,-134.563 2187.89,-134.563 2247.11,-133.563 2484,-133.563 2484,-133.563 2484,-133.563 2977,-133.563 3077.48,-133.563 3127.01,-88.69 3202,-155.563 3262.7,-209.694 3283.62,-487.056 3287.36,-544.96"/>
<polygon fill="midnightblue" stroke="midnightblue" points="589.894,-1574.07 589.462,-1584.66 596.401,-1576.65 589.894,-1574.07"/>
</g>
<!-- Node18&#45;&gt;Node10 -->
<g id="edge222" class="edge"><title>Node18&#45;&gt;Node10</title>
<path fill="none" stroke="midnightblue" d="M589.554,-1616.1C603.49,-1677.05 647.334,-1854.97 692,-1891.56 775.433,-1959.92 824.14,-1927.56 932,-1927.56 932,-1927.56 932,-1927.56 2977,-1927.56 3081.47,-1927.56 3131.01,-1936.2 3202,-1859.56 3255.83,-1801.45 3282.08,-1536.37 3287.1,-1480.09"/>
<polygon fill="midnightblue" stroke="midnightblue" points="592.922,-1615.12 587.306,-1606.14 586.094,-1616.66 592.922,-1615.12"/>
</g>
<!-- Node19 -->
<g id="node61" class="node"><title>Node19</title>
<a xlink:href="../../d3/d52/blanket_8js.html#ac14803936ed02bddcea9ebd93a86a0eb" target="_top" xlink:title="parseWithStatement">
<polygon fill="white" stroke="black" points="1047,-1720.06 1047,-1741.06 1153,-1741.06 1153,-1720.06 1047,-1720.06"/>
<text text-anchor="middle" x="1100" y="-1728.06" font-family="Helvetica,sans-Serif" font-size="10.00">parseWithStatement</text>
</a>
</g>
<!-- Node18&#45;&gt;Node19 -->
<g id="edge84" class="edge"><title>Node18&#45;&gt;Node19</title>
<path fill="none" stroke="midnightblue" d="M595.777,-1615.28C612.297,-1643.23 646.779,-1693.34 692,-1714.56 808.792,-1769.38 965.737,-1754.34 1046.71,-1741.07"/>
<polygon fill="midnightblue" stroke="midnightblue" points="598.7,-1613.34 590.694,-1606.4 592.625,-1616.81 598.7,-1613.34"/>
</g>
<!-- Node20 -->
<g id="node63" class="node"><title>Node20</title>
<a xlink:href="../../db/d7b/r_8js.html#a62adfe89743d49ea654466e55ae6232f" target="_top" xlink:title="parseStatement">
<polygon fill="white" stroke="black" points="889,-1623.06 889,-1644.06 975,-1644.06 975,-1623.06 889,-1623.06"/>
<text text-anchor="middle" x="932" y="-1631.06" font-family="Helvetica,sans-Serif" font-size="10.00">parseStatement</text>
</a>
</g>
<!-- Node18&#45;&gt;Node20 -->
<g id="edge230" class="edge"><title>Node18&#45;&gt;Node20</title>
<path fill="none" stroke="midnightblue" d="M639.888,-1601.57C708.899,-1609.13 825.936,-1621.95 888.88,-1628.84"/>
<polygon fill="midnightblue" stroke="midnightblue" points="639.975,-1598.06 629.654,-1600.45 639.213,-1605.02 639.975,-1598.06"/>
</g>
<!-- Node21 -->
<g id="node65" class="node"><title>Node21</title>
<a xlink:href="../../d3/d52/blanket_8js.html#a4739f761ecb9f42e6234ec35d8a24c6f" target="_top" xlink:title="parseDoWhileStatement">
<polygon fill="white" stroke="black" points="1038.5,-1450.06 1038.5,-1471.06 1161.5,-1471.06 1161.5,-1450.06 1038.5,-1450.06"/>
<text text-anchor="middle" x="1100" y="-1458.06" font-family="Helvetica,sans-Serif" font-size="10.00">parseDoWhileStatement</text>
</a>
</g>
<!-- Node18&#45;&gt;Node21 -->
<g id="edge232" class="edge"><title>Node18&#45;&gt;Node21</title>
<path fill="none" stroke="midnightblue" d="M602.804,-1577.94C622.726,-1559.36 656.844,-1530.86 692,-1516.56 808.071,-1469.37 956.428,-1460.55 1038.47,-1459.68"/>
<polygon fill="midnightblue" stroke="midnightblue" points="600.233,-1575.55 595.412,-1584.98 605.064,-1580.62 600.233,-1575.55"/>
</g>
<!-- Node22 -->
<g id="node68" class="node"><title>Node22</title>
<a xlink:href="../../d3/d52/blanket_8js.html#a07a06da7aef4530fe47e1a5ab71b04bc" target="_top" xlink:title="parseForStatement">
<polygon fill="white" stroke="black" points="1050,-1410.06 1050,-1431.06 1150,-1431.06 1150,-1410.06 1050,-1410.06"/>
<text text-anchor="middle" x="1100" y="-1418.06" font-family="Helvetica,sans-Serif" font-size="10.00">parseForStatement</text>
</a>
</g>
<!-- Node18&#45;&gt;Node22 -->
<g id="edge192" class="edge"><title>Node18&#45;&gt;Node22</title>
<path fill="none" stroke="midnightblue" d="M591.875,-1575.39C605.034,-1540.33 637.424,-1468.97 692,-1438.56 751.924,-1405.18 954.36,-1411.98 1049.63,-1417.29"/>
<polygon fill="midnightblue" stroke="midnightblue" points="588.502,-1574.43 588.406,-1585.02 595.088,-1576.8 588.502,-1574.43"/>
</g>
<!-- Node23 -->
<g id="node71" class="node"><title>Node23</title>
<a xlink:href="../../d3/d52/blanket_8js.html#ab95c5ac24cc7e6e98b77e7734af06692" target="_top" xlink:title="parseIfStatement">
<polygon fill="white" stroke="black" points="1054,-1800.06 1054,-1821.06 1146,-1821.06 1146,-1800.06 1054,-1800.06"/>
<text text-anchor="middle" x="1100" y="-1808.06" font-family="Helvetica,sans-Serif" font-size="10.00">parseIfStatement</text>
</a>
</g>
<!-- Node18&#45;&gt;Node23 -->
<g id="edge240" class="edge"><title>Node18&#45;&gt;Node23</title>
<path fill="none" stroke="midnightblue" d="M590.199,-1616.05C601.366,-1655.38 631.673,-1740.98 692,-1779.56 804.96,-1851.8 973.144,-1834.37 1053.71,-1820.22"/>
<polygon fill="midnightblue" stroke="midnightblue" points="593.54,-1615 587.547,-1606.26 586.783,-1616.83 593.54,-1615"/>
</g>
<!-- Node36 -->
<g id="node122" class="node"><title>Node36</title>
<a xlink:href="../../d3/d52/blanket_8js.html#a5dc09ab3f61dde211ca1a3b90d891fe8" target="_top" xlink:title="parseSwitchCase">
<polygon fill="white" stroke="black" points="1053,-1878.06 1053,-1899.06 1147,-1899.06 1147,-1878.06 1053,-1878.06"/>
<text text-anchor="middle" x="1100" y="-1886.06" font-family="Helvetica,sans-Serif" font-size="10.00">parseSwitchCase</text>
</a>
</g>
<!-- Node18&#45;&gt;Node36 -->
<g id="edge238" class="edge"><title>Node18&#45;&gt;Node36</title>
<path fill="none" stroke="midnightblue" d="M586.167,-1616.43C590.312,-1668.35 608.966,-1803.52 692,-1863.56 748.428,-1904.37 958.113,-1897.3 1052.92,-1891.78"/>
<polygon fill="midnightblue" stroke="midnightblue" points="589.637,-1615.87 585.454,-1606.14 582.654,-1616.36 589.637,-1615.87"/>
</g>
<!-- Node37 -->
<g id="node126" class="node"><title>Node37</title>
<a xlink:href="../../db/d7b/r_8js.html#a146bde02681c612af3f8e87db808b799" target="_top" xlink:title="parseSwitchStatement">
<polygon fill="white" stroke="black" points="1215,-1716.06 1215,-1737.06 1331,-1737.06 1331,-1716.06 1215,-1716.06"/>
<text text-anchor="middle" x="1273" y="-1724.06" font-family="Helvetica,sans-Serif" font-size="10.00">parseSwitchStatement</text>
</a>
</g>
<!-- Node18&#45;&gt;Node37 -->
<g id="edge242" class="edge"><title>Node18&#45;&gt;Node37</title>
<path fill="none" stroke="midnightblue" d="M588.236,-1616.18C596.469,-1661.07 622.698,-1767.55 692,-1816.56 777.309,-1876.9 1075.01,-1888.46 1162,-1830.56 1194.12,-1809.19 1169.31,-1777.37 1198,-1751.56 1204.94,-1745.32 1213.48,-1740.63 1222.29,-1737.11"/>
<polygon fill="midnightblue" stroke="midnightblue" points="591.658,-1615.43 586.515,-1606.17 584.759,-1616.62 591.658,-1615.43"/>
</g>
<!-- Node38 -->
<g id="node129" class="node"><title>Node38</title>
<a xlink:href="../../d3/d52/blanket_8js.html#a8ae43c12c9e9a63d7e6fe7a0ef681e17" target="_top" xlink:title="parseWhileStatement">
<polygon fill="white" stroke="black" points="1045,-1760.06 1045,-1781.06 1155,-1781.06 1155,-1760.06 1045,-1760.06"/>
<text text-anchor="middle" x="1100" y="-1768.06" font-family="Helvetica,sans-Serif" font-size="10.00">parseWhileStatement</text>
</a>
</g>
<!-- Node18&#45;&gt;Node38 -->
<g id="edge228" class="edge"><title>Node18&#45;&gt;Node38</title>
<path fill="none" stroke="midnightblue" d="M592.624,-1615.69C606.568,-1649.34 639.652,-1716.23 692,-1745.56 805.289,-1809.06 965.099,-1794.55 1047.03,-1781.11"/>
<polygon fill="midnightblue" stroke="midnightblue" points="595.87,-1614.38 588.911,-1606.39 589.369,-1616.97 595.87,-1614.38"/>
</g>
<!-- Node39 -->
<g id="node136" class="node"><title>Node39</title>
<a xlink:href="../../d3/d52/blanket_8js.html#aeb9d0b4038ec99a33dfff443c4b35474" target="_top" xlink:title="parseCatchClause">
<polygon fill="white" stroke="black" points="710,-1526.06 710,-1547.06 808,-1547.06 808,-1526.06 710,-1526.06"/>
<text text-anchor="middle" x="759" y="-1534.06" font-family="Helvetica,sans-Serif" font-size="10.00">parseCatchClause</text>
</a>
</g>
<!-- Node18&#45;&gt;Node39 -->
<g id="edge194" class="edge"><title>Node18&#45;&gt;Node39</title>
<path fill="none" stroke="midnightblue" d="M622.142,-1581.41C642.64,-1573.75 668.612,-1564.31 692,-1556.56 701.795,-1553.32 712.472,-1550.02 722.365,-1547.07"/>
<polygon fill="midnightblue" stroke="midnightblue" points="620.687,-1578.22 612.555,-1585.01 623.147,-1584.77 620.687,-1578.22"/>
</g>
<!-- Node40 -->
<g id="node138" class="node"><title>Node40</title>
<a xlink:href="../../d3/d52/blanket_8js.html#aaa0453fb1925f4a1566c2d80ca795f6e" target="_top" xlink:title="parseComputedMember">
<polygon fill="white" stroke="black" points="1549.5,-890.063 1549.5,-911.063 1670.5,-911.063 1670.5,-890.063 1549.5,-890.063"/>
<text text-anchor="middle" x="1610" y="-898.063" font-family="Helvetica,sans-Serif" font-size="10.00">parseComputedMember</text>
</a>
</g>
<!-- Node18&#45;&gt;Node40 -->
<g id="edge196" class="edge"><title>Node18&#45;&gt;Node40</title>
<path fill="none" stroke="midnightblue" d="M592.705,-1575.27C636.465,-1460.76 854.509,-900.563 932,-900.563 932,-900.563 932,-900.563 1273,-900.563 1369.68,-900.563 1481.97,-900.563 1549.43,-900.563"/>
<polygon fill="midnightblue" stroke="midnightblue" points="589.315,-1574.33 589.024,-1584.92 595.856,-1576.83 589.315,-1574.33"/>
</g>
<!-- Node41 -->
<g id="node146" class="node"><title>Node41</title>
<a xlink:href="../../d3/d52/blanket_8js.html#a6a4edd36ce21dbafc8996a3dff3759dd" target="_top" xlink:title="parseGroupExpression">
<polygon fill="white" stroke="black" points="1390,-799.063 1390,-820.063 1506,-820.063 1506,-799.063 1390,-799.063"/>
<text text-anchor="middle" x="1448" y="-807.063" font-family="Helvetica,sans-Serif" font-size="10.00">parseGroupExpression</text>
</a>
</g>
<!-- Node18&#45;&gt;Node41 -->
<g id="edge210" class="edge"><title>Node18&#45;&gt;Node41</title>
<path fill="none" stroke="midnightblue" d="M592.884,-1575.18C607.997,-1535.13 640.882,-1443.06 656,-1362.56 695.158,-1154.05 644.046,-1093.23 692,-886.563 756.917,-606.787 644.791,-286.563 932,-286.563 932,-286.563 932,-286.563 1100,-286.563 1351.33,-286.563 1202.95,-601.241 1384,-775.563 1394.33,-785.512 1408.15,-793.342 1420.31,-798.968"/>
<polygon fill="midnightblue" stroke="midnightblue" points="589.575,-1574.03 589.284,-1584.63 596.116,-1576.53 589.575,-1574.03"/>
</g>
<!-- Node42 -->
<g id="node151" class="node"><title>Node42</title>
<a xlink:href="../../db/d7b/r_8js.html#a3b3182e65de7acec03619a7c3db10477" target="_top" xlink:title="parseThrowStatement">
<polygon fill="white" stroke="black" points="702.5,-1566.06 702.5,-1587.06 815.5,-1587.06 815.5,-1566.06 702.5,-1566.06"/>
<text text-anchor="middle" x="759" y="-1574.06" font-family="Helvetica,sans-Serif" font-size="10.00">parseThrowStatement</text>
</a>
</g>
<!-- Node18&#45;&gt;Node42 -->
<g id="edge218" class="edge"><title>Node18&#45;&gt;Node42</title>
<path fill="none" stroke="midnightblue" d="M639.966,-1589.56C659.893,-1587.39 682.426,-1584.92 702.485,-1582.73"/>
<polygon fill="midnightblue" stroke="midnightblue" points="639.37,-1586.11 629.809,-1590.67 640.13,-1593.06 639.37,-1586.11"/>
</g>
<!-- Node43 -->
<g id="node155" class="node"><title>Node43</title>
<a xlink:href="../../d3/d52/blanket_8js.html#aa385122fdd11e44a81b355661fb20dd4" target="_top" xlink:title="parseReturnStatement">
<polygon fill="white" stroke="black" points="701.5,-1684.06 701.5,-1705.06 816.5,-1705.06 816.5,-1684.06 701.5,-1684.06"/>
<text text-anchor="middle" x="759" y="-1692.06" font-family="Helvetica,sans-Serif" font-size="10.00">parseReturnStatement</text>
</a>
</g>
<!-- Node18&#45;&gt;Node43 -->
<g id="edge224" class="edge"><title>Node18&#45;&gt;Node43</title>
<path fill="none" stroke="midnightblue" d="M604.254,-1613.03C624.691,-1630.75 658.59,-1657.88 692,-1674.56 699.385,-1678.25 707.575,-1681.39 715.62,-1684.01"/>
<polygon fill="midnightblue" stroke="midnightblue" points="606.426,-1610.28 596.61,-1606.29 601.798,-1615.53 606.426,-1610.28"/>
</g>
<!-- Node44 -->
<g id="node161" class="node"><title>Node44</title>
<a xlink:href="../../d3/d52/blanket_8js.html#a1f9f27ca61731b2ecbd7691cfb160e9e" target="_top" xlink:title="parseExpressionStatement">
<polygon fill="white" stroke="black" points="692,-1644.06 692,-1665.06 826,-1665.06 826,-1644.06 692,-1644.06"/>
<text text-anchor="middle" x="759" y="-1652.06" font-family="Helvetica,sans-Serif" font-size="10.00">parseExpressionStatement</text>
</a>
</g>
<!-- Node18&#45;&gt;Node44 -->
<g id="edge234" class="edge"><title>Node18&#45;&gt;Node44</title>
<path fill="none" stroke="midnightblue" d="M625.813,-1609.4C657.012,-1619.98 699.371,-1634.34 727.869,-1644.01"/>
<polygon fill="midnightblue" stroke="midnightblue" points="626.702,-1606.01 616.108,-1606.11 624.454,-1612.64 626.702,-1606.01"/>
</g>
<!-- Node45 -->
<g id="node167" class="node"><title>Node45</title>
<a xlink:href="../../db/d7b/r_8js.html#a62ed1e2ea92af56635abd07176d4248b" target="_top" xlink:title="trackGroupExpression">
<polygon fill="white" stroke="black" points="2427.5,-162.063 2427.5,-183.063 2540.5,-183.063 2540.5,-162.063 2427.5,-162.063"/>
<text text-anchor="middle" x="2484" y="-170.063" font-family="Helvetica,sans-Serif" font-size="10.00">trackGroupExpression</text>
</a>
</g>
<!-- Node18&#45;&gt;Node45 -->
<g id="edge244" class="edge"><title>Node18&#45;&gt;Node45</title>
<path fill="none" stroke="midnightblue" d="M593.181,-1575.23C608.81,-1535.28 642.553,-1443.36 656,-1362.56 665.646,-1304.6 654.604,-350.883 692,-305.563 776.3,-203.403 1140.55,-172.563 1273,-172.563 1273,-172.563 1273,-172.563 2139,-172.563 2240.52,-172.563 2358.85,-172.563 2427.22,-172.563"/>
<polygon fill="midnightblue" stroke="midnightblue" points="589.878,-1574.07 589.452,-1584.65 596.387,-1576.64 589.878,-1574.07"/>
</g>
<!-- Node19&#45;&gt;Node20 -->
<g id="edge86" class="edge"><title>Node19&#45;&gt;Node20</title>
<path fill="none" stroke="midnightblue" d="M1039.64,-1715.43C1039.09,-1715.14 1038.54,-1714.85 1038,-1714.56 998.742,-1693.62 956.127,-1661.46 939.362,-1644.09"/>
<polygon fill="midnightblue" stroke="midnightblue" points="1038.33,-1718.68 1048.85,-1719.94 1041.4,-1712.4 1038.33,-1718.68"/>
</g>
<!-- Node20&#45;&gt;Node5 -->
<g id="edge188" class="edge"><title>Node20&#45;&gt;Node5</title>
<path fill="none" stroke="midnightblue" d="M963.652,-1618.84C984.46,-1609.55 1012.46,-1597.8 1038,-1589.56 1859.94,-1324.32 2170.05,-1471.63 2886,-988.563 2904.76,-975.908 2902.5,-964.038 2922,-952.563 2925.49,-950.512 3199.16,-875.442 3202,-872.563 3247.06,-826.899 3279.35,-616.629 3286.5,-566.374"/>
<polygon fill="midnightblue" stroke="midnightblue" points="962.019,-1615.73 954.346,-1623.04 964.9,-1622.11 962.019,-1615.73"/>
</g>
<!-- Node20&#45;&gt;Node10 -->
<g id="edge190" class="edge"><title>Node20&#45;&gt;Node10</title>
<path fill="none" stroke="midnightblue" d="M985.23,-1629.34C1032.01,-1626.58 1101.81,-1624.76 1162,-1632.56 1518.59,-1678.8 1591.42,-1811.56 1951,-1811.56 1951,-1811.56 1951,-1811.56 2823,-1811.56 2907.31,-1811.56 3136.36,-1847.47 3202,-1794.56 3253.35,-1753.17 3281.06,-1531.57 3286.85,-1480.2"/>
<polygon fill="midnightblue" stroke="midnightblue" points="984.787,-1625.86 975.026,-1629.98 985.225,-1632.85 984.787,-1625.86"/>
</g>
<!-- Node20&#45;&gt;Node19 -->
<g id="edge186" class="edge"><title>Node20&#45;&gt;Node19</title>
<path fill="none" stroke="midnightblue" d="M963.688,-1649.99C984.187,-1663.67 1011.84,-1682.61 1038,-1696.56 1054.79,-1705.52 1075.52,-1713.26 1088.24,-1720.03"/>
<polygon fill="midnightblue" stroke="midnightblue" points="965.355,-1646.9 955.085,-1644.29 961.491,-1652.73 965.355,-1646.9"/>
</g>
<!-- Node20&#45;&gt;Node21 -->
<g id="edge88" class="edge"><title>Node20&#45;&gt;Node21</title>
<path fill="none" stroke="midnightblue" d="M939.158,-1613.31C953.778,-1579.92 989.799,-1514.46 1038,-1476.56 1040.46,-1474.63 1043.1,-1472.82 1045.84,-1471.15"/>
<polygon fill="midnightblue" stroke="midnightblue" points="935.759,-1612.38 935.175,-1622.95 942.228,-1615.05 935.759,-1612.38"/>
</g>
<!-- Node20&#45;&gt;Node22 -->
<g id="edge92" class="edge"><title>Node20&#45;&gt;Node22</title>
<path fill="none" stroke="midnightblue" d="M936.366,-1612.82C947.186,-1571.6 978.743,-1480.5 1038,-1431.56 1041.58,-1428.61 1045.6,-1426.09 1049.83,-1423.98"/>
<polygon fill="midnightblue" stroke="midnightblue" points="932.948,-1612.06 933.957,-1622.61 939.745,-1613.74 932.948,-1612.06"/>
</g>
<!-- Node20&#45;&gt;Node23 -->
<g id="edge96" class="edge"><title>Node20&#45;&gt;Node23</title>
<path fill="none" stroke="midnightblue" d="M943.041,-1653.74C958.995,-1685.65 991.74,-1746.8 1038,-1781.56 1050.39,-1790.87 1067.27,-1795.95 1080.29,-1800.03"/>
<polygon fill="midnightblue" stroke="midnightblue" points="946.028,-1651.88 938.455,-1644.47 939.754,-1654.99 946.028,-1651.88"/>
</g>
<!-- Node24 -->
<g id="node74" class="node"><title>Node24</title>
<a xlink:href="../../db/d7b/r_8js.html#aad27e4b4ae330a680c931e04c5323f56" target="_top" xlink:title="parseSourceElement">
<polygon fill="white" stroke="black" points="1046.5,-1256.06 1046.5,-1277.06 1153.5,-1277.06 1153.5,-1256.06 1046.5,-1256.06"/>
<text text-anchor="middle" x="1100" y="-1264.06" font-family="Helvetica,sans-Serif" font-size="10.00">parseSourceElement</text>
</a>
</g>
<!-- Node20&#45;&gt;Node24 -->
<g id="edge100" class="edge"><title>Node20&#45;&gt;Node24</title>
<path fill="none" stroke="midnightblue" d="M941.025,-1613.61C959.265,-1573.31 1001.86,-1479.34 1038,-1400.56 1059.06,-1354.67 1084.42,-1300.06 1094.99,-1277.32"/>
<polygon fill="midnightblue" stroke="midnightblue" points="937.77,-1612.32 936.836,-1622.87 944.147,-1615.2 937.77,-1612.32"/>
</g>
<!-- Node35 -->
<g id="node120" class="node"><title>Node35</title>
<a xlink:href="../../d3/d52/blanket_8js.html#a62adfe89743d49ea654466e55ae6232f" target="_top" xlink:title="parseStatement">
<polygon fill="white" stroke="black" points="1057,-1642.06 1057,-1663.06 1143,-1663.06 1143,-1642.06 1057,-1642.06"/>
<text text-anchor="middle" x="1100" y="-1650.06" font-family="Helvetica,sans-Serif" font-size="10.00">parseStatement</text>
</a>
</g>
<!-- Node20&#45;&gt;Node35 -->
<g id="edge170" class="edge"><title>Node20&#45;&gt;Node35</title>
<path fill="none" stroke="midnightblue" d="M985.256,-1639.59C1008.36,-1642.2 1035.05,-1645.22 1056.88,-1647.69"/>
<polygon fill="midnightblue" stroke="midnightblue" points="985.594,-1636.1 975.264,-1638.46 984.807,-1643.06 985.594,-1636.1"/>
</g>
<!-- Node20&#45;&gt;Node36 -->
<g id="edge172" class="edge"><title>Node20&#45;&gt;Node36</title>
<path fill="none" stroke="midnightblue" d="M940.245,-1653.77C955.961,-1690.94 992.711,-1771.75 1038,-1830.56 1052.3,-1849.13 1072.75,-1867.01 1086.2,-1877.89"/>
<polygon fill="midnightblue" stroke="midnightblue" points="943.293,-1651.99 936.218,-1644.1 936.831,-1654.68 943.293,-1651.99"/>
</g>
<!-- Node20&#45;&gt;Node38 -->
<g id="edge182" class="edge"><title>Node20&#45;&gt;Node38</title>
<path fill="none" stroke="midnightblue" d="M948.949,-1652.4C967.763,-1676.53 1000.47,-1717.33 1038,-1741.56 1051.59,-1750.34 1069.34,-1755.55 1082.37,-1760.01"/>
<polygon fill="midnightblue" stroke="midnightblue" points="951.568,-1650.07 942.663,-1644.33 946.045,-1654.37 951.568,-1650.07"/>
</g>
<!-- Node21&#45;&gt;Node20 -->
<g id="edge90" class="edge"><title>Node21&#45;&gt;Node20</title>
<path fill="none" stroke="midnightblue" d="M1075.46,-1474.98C1063.33,-1479.89 1048.98,-1485.93 1038,-1494.56 990.297,-1532.07 954.523,-1596.57 939.618,-1622.67"/>
<polygon fill="midnightblue" stroke="midnightblue" points="1077.07,-1478.1 1085.01,-1471.09 1074.43,-1471.62 1077.07,-1478.1"/>
</g>
<!-- Node22&#45;&gt;Node20 -->
<g id="edge94" class="edge"><title>Node22&#45;&gt;Node20</title>
<path fill="none" stroke="midnightblue" d="M1069.29,-1434.04C1058.51,-1437.57 1046.88,-1442.23 1038,-1449.56 978.164,-1498.98 946.571,-1591.38 936.055,-1623.04"/>
<polygon fill="midnightblue" stroke="midnightblue" points="1070.33,-1437.38 1078.85,-1431.08 1068.26,-1430.7 1070.33,-1437.38"/>
</g>
<!-- Node23&#45;&gt;Node20 -->
<g id="edge98" class="edge"><title>Node23&#45;&gt;Node20</title>
<path fill="none" stroke="midnightblue" d="M1044.64,-1803.93C1042.32,-1802.59 1040.1,-1801.14 1038,-1799.56 981.212,-1756.88 944.791,-1674.46 934.796,-1644.33"/>
<polygon fill="midnightblue" stroke="midnightblue" points="1043.39,-1807.22 1053.91,-1808.49 1046.48,-1800.94 1043.39,-1807.22"/>
</g>
<!-- Node25 -->
<g id="node76" class="node"><title>Node25</title>
<a xlink:href="../../db/d7b/r_8js.html#a1f1d5e319d9aa434b86d5106f42fc0cb" target="_top" xlink:title="parseFunctionSourceElements">
<polygon fill="white" stroke="black" points="1198,-1256.06 1198,-1277.06 1348,-1277.06 1348,-1256.06 1198,-1256.06"/>
<text text-anchor="middle" x="1273" y="-1264.06" font-family="Helvetica,sans-Serif" font-size="10.00">parseFunctionSourceElements</text>
</a>
</g>
<!-- Node24&#45;&gt;Node25 -->
<g id="edge102" class="edge"><title>Node24&#45;&gt;Node25</title>
<path fill="none" stroke="midnightblue" d="M1163.82,-1266.56C1174.93,-1266.56 1186.58,-1266.56 1197.96,-1266.56"/>
<polygon fill="midnightblue" stroke="midnightblue" points="1163.79,-1263.06 1153.79,-1266.56 1163.79,-1270.06 1163.79,-1263.06"/>
</g>
<!-- Node29 -->
<g id="node98" class="node"><title>Node29</title>
<a xlink:href="../../db/d7b/r_8js.html#a505a7bb7bf62010ed273bf23bd47a3b7" target="_top" xlink:title="parseSourceElements">
<polygon fill="white" stroke="black" points="1894.5,-278.063 1894.5,-299.063 2007.5,-299.063 2007.5,-278.063 1894.5,-278.063"/>
<text text-anchor="middle" x="1951" y="-286.063" font-family="Helvetica,sans-Serif" font-size="10.00">parseSourceElements</text>
</a>
</g>
<!-- Node24&#45;&gt;Node29 -->
<g id="edge138" class="edge"><title>Node24&#45;&gt;Node29</title>
<path fill="none" stroke="midnightblue" d="M1103.53,-1245.82C1125.04,-1121.86 1242.25,-479.846 1384,-349.563 1457.35,-282.148 1765.78,-283.029 1894.36,-286.49"/>
<polygon fill="midnightblue" stroke="midnightblue" points="1100.05,-1245.44 1101.8,-1255.89 1106.94,-1246.63 1100.05,-1245.44"/>
</g>
<!-- Node31 -->
<g id="node105" class="node"><title>Node31</title>
<a xlink:href="../../d3/d52/blanket_8js.html#a253d6f02434542babebca9e1a6e0a330" target="_top" xlink:title="parseStatementList">
<polygon fill="white" stroke="black" points="2279.5,-1686.06 2279.5,-1707.06 2380.5,-1707.06 2380.5,-1686.06 2279.5,-1686.06"/>
<text text-anchor="middle" x="2330" y="-1694.06" font-family="Helvetica,sans-Serif" font-size="10.00">parseStatementList</text>
</a>
</g>
<!-- Node24&#45;&gt;Node31 -->
<g id="edge148" class="edge"><title>Node24&#45;&gt;Node31</title>
<path fill="none" stroke="midnightblue" d="M1141.07,-1281.13C1148.23,-1284.22 1155.46,-1287.73 1162,-1291.56 1179.72,-1301.96 1180.83,-1309.29 1198,-1320.56 1329.78,-1407.09 1399.66,-1374.96 1512,-1485.56 1535.81,-1509.01 1525.67,-1526.71 1548,-1551.56 1592.82,-1601.46 1619.92,-1595.31 1672,-1637.56 1689.09,-1651.43 1687.72,-1663.02 1708,-1671.56 1810.47,-1714.71 2150.01,-1704.65 2279.36,-1699.04"/>
<polygon fill="midnightblue" stroke="midnightblue" points="1142.02,-1277.73 1131.44,-1277.17 1139.36,-1284.21 1142.02,-1277.73"/>
</g>
<!-- Node25&#45;&gt;Node5 -->
<g id="edge134" class="edge"><title>Node25&#45;&gt;Node5</title>
<path fill="none" stroke="midnightblue" d="M1276.03,-1245.7C1294.58,-1121.08 1397.06,-476.457 1548,-361.563 1631.97,-297.645 1677.47,-327.563 1783,-327.563 1783,-327.563 1783,-327.563 2977,-327.563 3077.57,-327.563 3121.28,-291.582 3202,-351.563 3218.89,-364.114 3269.82,-504.484 3284.19,-544.798"/>
<polygon fill="midnightblue" stroke="midnightblue" points="1272.53,-1245.42 1274.54,-1255.82 1279.46,-1246.44 1272.53,-1245.42"/>
</g>
<!-- Node25&#45;&gt;Node10 -->
<g id="edge136" class="edge"><title>Node25&#45;&gt;Node10</title>
<path fill="none" stroke="midnightblue" d="M1326.37,-1279.46C1408.09,-1298.78 1569.34,-1335.25 1708,-1356.56 2200.31,-1432.23 2324.91,-1469.56 2823,-1469.56 2823,-1469.56 2823,-1469.56 2977,-1469.56 3082.83,-1469.56 3208.91,-1469.56 3262.2,-1469.56"/>
<polygon fill="midnightblue" stroke="midnightblue" points="1327.11,-1276.04 1316.57,-1277.13 1325.49,-1282.85 1327.11,-1276.04"/>
</g>
<!-- Node26 -->
<g id="node78" class="node"><title>Node26</title>
<a xlink:href="../../db/d7b/r_8js.html#a16cc31d0fa943031ec0447d62f3e7213" target="_top" xlink:title="parseFunctionDeclaration">
<polygon fill="white" stroke="black" points="1384,-1336.06 1384,-1357.06 1512,-1357.06 1512,-1336.06 1384,-1336.06"/>
<text text-anchor="middle" x="1448" y="-1344.06" font-family="Helvetica,sans-Serif" font-size="10.00">parseFunctionDeclaration</text>
</a>
</g>
<!-- Node25&#45;&gt;Node26 -->
<g id="edge104" class="edge"><title>Node25&#45;&gt;Node26</title>
<path fill="none" stroke="midnightblue" d="M1319.12,-1280.57C1328.91,-1284.26 1339,-1288.61 1348,-1293.56 1365.76,-1303.34 1366.38,-1311.55 1384,-1321.56 1393.85,-1327.16 1405.21,-1332.05 1415.59,-1335.98"/>
<polygon fill="midnightblue" stroke="midnightblue" points="1320.08,-1277.2 1309.48,-1277.12 1317.72,-1283.79 1320.08,-1277.2"/>
</g>
<!-- Node27 -->
<g id="node84" class="node"><title>Node27</title>
<a xlink:href="../../db/d7b/r_8js.html#a4bd46aa1c20442b3dba2e0092ea30734" target="_top" xlink:title="parseFunctionExpression">
<polygon fill="white" stroke="black" points="1384.5,-745.063 1384.5,-766.063 1511.5,-766.063 1511.5,-745.063 1384.5,-745.063"/>
<text text-anchor="middle" x="1448" y="-753.063" font-family="Helvetica,sans-Serif" font-size="10.00">parseFunctionExpression</text>
</a>
</g>
<!-- Node25&#45;&gt;Node27 -->
<g id="edge114" class="edge"><title>Node25&#45;&gt;Node27</title>
<path fill="none" stroke="midnightblue" d="M1275.5,-1246.01C1285.76,-1164.39 1326.82,-863.914 1384,-789.563 1392.05,-779.091 1404.27,-771.49 1415.87,-766.166"/>
<polygon fill="midnightblue" stroke="midnightblue" points="1272.01,-1245.68 1274.26,-1256.03 1278.96,-1246.54 1272.01,-1245.68"/>
</g>
<!-- Node26&#45;&gt;Node5 -->
<g id="edge110" class="edge"><title>Node26&#45;&gt;Node5</title>
<path fill="none" stroke="midnightblue" d="M1449.96,-1325.81C1459.45,-1227.03 1502.09,-804.183 1548,-680.563 1594.45,-555.49 1594.36,-496.473 1708,-426.563 1800.4,-369.721 1842.52,-403.563 1951,-403.563 1951,-403.563 1951,-403.563 2977,-403.563 3078.01,-403.563 3115.63,-383.189 3202,-435.563 3246.05,-462.277 3273.94,-521.018 3283.9,-545.026"/>
<polygon fill="midnightblue" stroke="midnightblue" points="1446.45,-1325.69 1448.99,-1335.98 1453.42,-1326.36 1446.45,-1325.69"/>
</g>
<!-- Node26&#45;&gt;Node10 -->
<g id="edge112" class="edge"><title>Node26&#45;&gt;Node10</title>
<path fill="none" stroke="midnightblue" d="M1474.77,-1362.25C1494.59,-1373.49 1522.47,-1388.53 1548,-1399.56 1697.14,-1464.03 1735.02,-1484.04 1894,-1517.56 2224.45,-1587.24 2313.28,-1583.56 2651,-1583.56 2651,-1583.56 2651,-1583.56 2977,-1583.56 3077.57,-1583.56 3111.76,-1603.96 3202,-1559.56 3239.23,-1541.25 3268.99,-1499.78 3281.54,-1480.19"/>
<polygon fill="midnightblue" stroke="midnightblue" points="1476.42,-1359.16 1466,-1357.22 1472.94,-1365.23 1476.42,-1359.16"/>
</g>
<!-- Node26&#45;&gt;Node20 -->
<g id="edge108" class="edge"><title>Node26&#45;&gt;Node20</title>
<path fill="none" stroke="midnightblue" d="M1418.31,-1361.74C1366.85,-1387.74 1257.45,-1441.78 1162,-1480.56 1107.96,-1502.52 1087.14,-1492.14 1038,-1523.56 994.205,-1551.56 955.336,-1601.17 939.522,-1622.88"/>
<polygon fill="midnightblue" stroke="midnightblue" points="1420.18,-1364.71 1427.52,-1357.07 1417.01,-1358.47 1420.18,-1364.71"/>
</g>
<!-- Node26&#45;&gt;Node24 -->
<g id="edge106" class="edge"><title>Node26&#45;&gt;Node24</title>
<path fill="none" stroke="midnightblue" d="M1392.17,-1333.73C1323.81,-1318.01 1209.32,-1291.69 1145.85,-1277.1"/>
<polygon fill="midnightblue" stroke="midnightblue" points="1391.79,-1337.23 1402.32,-1336.06 1393.36,-1330.41 1391.79,-1337.23"/>
</g>
<!-- Node27&#45;&gt;Node5 -->
<g id="edge130" class="edge"><title>Node27&#45;&gt;Node5</title>
<path fill="none" stroke="midnightblue" d="M1451.62,-734.815C1463.36,-669.772 1502.28,-471.577 1548,-427.563 1625.82,-352.647 1674.98,-365.563 1783,-365.563 1783,-365.563 1783,-365.563 2977,-365.563 3077.57,-365.563 3118.97,-332.818 3202,-389.563 3258.01,-427.84 3279.89,-514.26 3286.03,-544.703"/>
<polygon fill="midnightblue" stroke="midnightblue" points="1448.11,-734.57 1449.8,-745.028 1455,-735.795 1448.11,-734.57"/>
</g>
<!-- Node27&#45;&gt;Node10 -->
<g id="edge132" class="edge"><title>Node27&#45;&gt;Node10</title>
<path fill="none" stroke="midnightblue" d="M1488.68,-770.783C1497.38,-775.65 1505.81,-781.838 1512,-789.563 1549.75,-836.691 1525.29,-864.618 1548,-920.563 1629.48,-1121.27 1566.38,-1347.56 1783,-1347.56 1783,-1347.56 1783,-1347.56 2139,-1347.56 2445.28,-1347.56 2516.72,-1431.56 2823,-1431.56 2823,-1431.56 2823,-1431.56 2977,-1431.56 3083.61,-1431.56 3209.28,-1453.84 3262.33,-1464.28"/>
<polygon fill="midnightblue" stroke="midnightblue" points="1490.08,-767.574 1479.58,-766.182 1486.92,-773.82 1490.08,-767.574"/>
</g>
<!-- Node28 -->
<g id="node86" class="node"><title>Node28</title>
<a xlink:href="../../d3/d52/blanket_8js.html#a3d582dbc2cd807955ef7456076ec1770" target="_top" xlink:title="parsePrimaryExpression">
<polygon fill="white" stroke="black" points="1548.5,-690.063 1548.5,-711.063 1671.5,-711.063 1671.5,-690.063 1548.5,-690.063"/>
<text text-anchor="middle" x="1610" y="-698.063" font-family="Helvetica,sans-Serif" font-size="10.00">parsePrimaryExpression</text>
</a>
</g>
<!-- Node27&#45;&gt;Node28 -->
<g id="edge116" class="edge"><title>Node27&#45;&gt;Node28</title>
<path fill="none" stroke="midnightblue" d="M1488.73,-741.734C1516.69,-732.243 1553.23,-719.838 1578.86,-711.135"/>
<polygon fill="midnightblue" stroke="midnightblue" points="1487.58,-738.43 1479.24,-744.959 1489.83,-745.058 1487.58,-738.43"/>
</g>
<!-- Node28&#45;&gt;Node4 -->
<g id="edge124" class="edge"><title>Node28&#45;&gt;Node4</title>
<path fill="none" stroke="midnightblue" d="M1641.4,-715.631C1712.07,-749.126 1889.49,-830.952 2044,-883.563 2059.98,-889.006 2077.81,-893.977 2093.67,-898.029"/>
<polygon fill="midnightblue" stroke="midnightblue" points="1642.69,-712.366 1632.16,-711.233 1639.68,-718.688 1642.69,-712.366"/>
</g>
<!-- Node28&#45;&gt;Node5 -->
<g id="edge118" class="edge"><title>Node28&#45;&gt;Node5</title>
<path fill="none" stroke="midnightblue" d="M1611.96,-680.055C1617.56,-633.91 1638.06,-521.868 1708,-469.563 1795.06,-404.453 1842.29,-441.563 1951,-441.563 1951,-441.563 1951,-441.563 2977,-441.563 3078.07,-441.563 3111.02,-430.552 3202,-474.563 3236.71,-491.355 3266.82,-527.168 3280.37,-545.009"/>
<polygon fill="midnightblue" stroke="midnightblue" points="1608.48,-679.732 1610.86,-690.055 1615.43,-680.499 1608.48,-679.732"/>
</g>
<!-- Node28&#45;&gt;Node10 -->
<g id="edge128" class="edge"><title>Node28&#45;&gt;Node10</title>
<path fill="none" stroke="midnightblue" d="M1627.75,-718.434C1647.01,-737.576 1678.92,-768.574 1708,-793.563 1851.42,-916.796 1890.96,-943.501 2044,-1054.56 2142.17,-1125.81 2162.16,-1152.03 2270,-1207.56 2554.36,-1354 3106.98,-1380.86 3202,-1417.56 3229.18,-1428.06 3257.5,-1446.99 3273.9,-1458.89"/>
<polygon fill="midnightblue" stroke="midnightblue" points="1630.1,-715.833 1620.55,-711.244 1625.16,-720.786 1630.1,-715.833"/>
</g>
<!-- Node28&#45;&gt;Node15 -->
<g id="edge120" class="edge"><title>Node28&#45;&gt;Node15</title>
<path fill="none" stroke="midnightblue" d="M1681.9,-688.927C1693.85,-686.992 1706.19,-684.995 1717.96,-683.09"/>
<polygon fill="midnightblue" stroke="midnightblue" points="1681.28,-685.481 1671.97,-690.534 1682.4,-692.391 1681.28,-685.481"/>
</g>
<!-- Node28&#45;&gt;Node16 -->
<g id="edge122" class="edge"><title>Node28&#45;&gt;Node16</title>
<path fill="none" stroke="midnightblue" d="M1613.31,-679.963C1621.22,-638.337 1645.42,-544.678 1708,-503.563 1761.39,-468.489 1934.84,-469.932 2044.75,-474.809"/>
<polygon fill="midnightblue" stroke="midnightblue" points="1609.83,-679.563 1611.53,-690.02 1616.72,-680.783 1609.83,-679.563"/>
</g>
<!-- Node28&#45;&gt;Node17 -->
<g id="edge126" class="edge"><title>Node28&#45;&gt;Node17</title>
<path fill="none" stroke="midnightblue" d="M1623.83,-681.676C1640.86,-660.211 1671.97,-626.368 1708,-612.563 1839.71,-562.105 2011.14,-585.955 2092.38,-602.04"/>
<polygon fill="midnightblue" stroke="midnightblue" points="1620.94,-679.696 1617.63,-689.758 1626.49,-683.96 1620.94,-679.696"/>
</g>
<!-- Node30 -->
<g id="node100" class="node"><title>Node30</title>
<a xlink:href="../../db/d7b/r_8js.html#a98235696795509f1466ca6456d6d4496" target="_top" xlink:title="parseProgram">
<polygon fill="white" stroke="black" points="3096.5,-278.063 3096.5,-299.063 3173.5,-299.063 3173.5,-278.063 3096.5,-278.063"/>
<text text-anchor="middle" x="3135" y="-286.063" font-family="Helvetica,sans-Serif" font-size="10.00">parseProgram</text>
</a>
</g>
<!-- Node29&#45;&gt;Node30 -->
<g id="edge140" class="edge"><title>Node29&#45;&gt;Node30</title>
<path fill="none" stroke="midnightblue" d="M2017.84,-288.563C2093.56,-288.563 2220.65,-288.563 2330,-288.563 2330,-288.563 2330,-288.563 2823,-288.563 2921.31,-288.563 3037.05,-288.563 3096.09,-288.563"/>
<polygon fill="midnightblue" stroke="midnightblue" points="2017.51,-285.064 2007.51,-288.563 2017.51,-292.064 2017.51,-285.064"/>
</g>
<!-- Node30&#45;&gt;Node5 -->
<g id="edge144" class="edge"><title>Node30&#45;&gt;Node5</title>
<path fill="none" stroke="midnightblue" d="M3183.35,-300.646C3190.23,-303.971 3196.74,-308.197 3202,-313.563 3235.93,-348.21 3221.79,-370.859 3238,-416.563 3254.97,-464.422 3275.6,-521.4 3284.08,-544.761"/>
<polygon fill="midnightblue" stroke="midnightblue" points="3184.39,-297.288 3173.82,-296.647 3181.68,-303.743 3184.39,-297.288"/>
</g>
<!-- Node30&#45;&gt;Node6 -->
<g id="edge142" class="edge"><title>Node30&#45;&gt;Node6</title>
<path fill="none" stroke="midnightblue" d="M3183.33,-302.956C3189.9,-305.936 3196.33,-309.45 3202,-313.563 3296.19,-381.858 3369.1,-507.721 3389.36,-544.935"/>
<polygon fill="midnightblue" stroke="midnightblue" points="3184.24,-299.546 3173.66,-298.965 3181.57,-306.016 3184.24,-299.546"/>
</g>
<!-- Node30&#45;&gt;Node10 -->
<g id="edge146" class="edge"><title>Node30&#45;&gt;Node10</title>
<path fill="none" stroke="midnightblue" d="M3137.66,-309.107C3156.76,-456.499 3272.54,-1350.24 3286.6,-1458.77"/>
<polygon fill="midnightblue" stroke="midnightblue" points="3141.13,-308.601 3136.37,-299.134 3134.18,-309.501 3141.13,-308.601"/>
</g>
<!-- Node32 -->
<g id="node107" class="node"><title>Node32</title>
<a xlink:href="../../d3/d52/blanket_8js.html#af3549836ff2efc1bd21d0bf83d37d5e8" target="_top" xlink:title="parseBlock">
<polygon fill="white" stroke="black" points="2944.5,-1744.06 2944.5,-1765.06 3009.5,-1765.06 3009.5,-1744.06 2944.5,-1744.06"/>
<text text-anchor="middle" x="2977" y="-1752.06" font-family="Helvetica,sans-Serif" font-size="10.00">parseBlock</text>
</a>
</g>
<!-- Node31&#45;&gt;Node32 -->
<g id="edge150" class="edge"><title>Node31&#45;&gt;Node32</title>
<path fill="none" stroke="midnightblue" d="M2390.87,-1702.02C2524.93,-1714.04 2841.92,-1742.45 2944.42,-1751.64"/>
<polygon fill="midnightblue" stroke="midnightblue" points="2391.04,-1698.52 2380.77,-1701.11 2390.42,-1705.49 2391.04,-1698.52"/>
</g>
<!-- Node32&#45;&gt;Node5 -->
<g id="edge166" class="edge"><title>Node32&#45;&gt;Node5</title>
<path fill="none" stroke="midnightblue" d="M2983.72,-1734.45C3012.72,-1647.17 3128.96,-1292.19 3202,-994.563 3243.55,-825.232 3278.36,-615.28 3286.3,-566.177"/>
<polygon fill="midnightblue" stroke="midnightblue" points="2980.39,-1733.36 2980.56,-1743.95 2987.04,-1735.57 2980.39,-1733.36"/>
</g>
<!-- Node32&#45;&gt;Node10 -->
<g id="edge168" class="edge"><title>Node32&#45;&gt;Node10</title>
<path fill="none" stroke="midnightblue" d="M3019.98,-1751.39C3077.45,-1746.32 3175.22,-1734.54 3202,-1711.56 3239.39,-1679.48 3276.32,-1522.44 3285.71,-1480.1"/>
<polygon fill="midnightblue" stroke="midnightblue" points="3019.41,-1747.93 3009.75,-1752.26 3020.01,-1754.9 3019.41,-1747.93"/>
</g>
<!-- Node32&#45;&gt;Node20 -->
<g id="edge162" class="edge"><title>Node32&#45;&gt;Node20</title>
<path fill="none" stroke="midnightblue" d="M2933.95,-1758.67C2871.61,-1764.26 2752.56,-1773.56 2651,-1773.56 1951,-1773.56 1951,-1773.56 1951,-1773.56 1842.43,-1773.56 1806.37,-1794.5 1708,-1748.56 1687.78,-1739.12 1691.63,-1724.18 1672,-1713.56 1569.84,-1658.34 1277.43,-1612.31 1162,-1599.56 1107.22,-1593.52 1092.45,-1591.04 1038,-1599.56 1009.55,-1604.01 978.309,-1614.8 957.164,-1623.04"/>
<polygon fill="midnightblue" stroke="midnightblue" points="2934.54,-1762.13 2944.18,-1757.74 2933.91,-1755.16 2934.54,-1762.13"/>
</g>
<!-- Node33 -->
<g id="node109" class="node"><title>Node33</title>
<a xlink:href="../../db/d7b/r_8js.html#aeb9d0b4038ec99a33dfff443c4b35474" target="_top" xlink:title="parseCatchClause">
<polygon fill="white" stroke="black" points="3086,-1764.06 3086,-1785.06 3184,-1785.06 3184,-1764.06 3086,-1764.06"/>
<text text-anchor="middle" x="3135" y="-1772.06" font-family="Helvetica,sans-Serif" font-size="10.00">parseCatchClause</text>
</a>
</g>
<!-- Node32&#45;&gt;Node33 -->
<g id="edge152" class="edge"><title>Node32&#45;&gt;Node33</title>
<path fill="none" stroke="midnightblue" d="M3019.69,-1759.97C3040.09,-1762.55 3064.61,-1765.65 3085.79,-1768.33"/>
<polygon fill="midnightblue" stroke="midnightblue" points="3020.1,-1756.49 3009.74,-1758.71 3019.22,-1763.44 3020.1,-1756.49"/>
</g>
<!-- Node34 -->
<g id="node111" class="node"><title>Node34</title>
<a xlink:href="../../db/d7b/r_8js.html#afbd0d123a7318300b113d139fe19e055" target="_top" xlink:title="parseTryStatement">
<polygon fill="white" stroke="black" points="3238,-1879.06 3238,-1900.06 3338,-1900.06 3338,-1879.06 3238,-1879.06"/>
<text text-anchor="middle" x="3288" y="-1887.06" font-family="Helvetica,sans-Serif" font-size="10.00">parseTryStatement</text>
</a>
</g>
<!-- Node32&#45;&gt;Node34 -->
<g id="edge164" class="edge"><title>Node32&#45;&gt;Node34</title>
<path fill="none" stroke="midnightblue" d="M3010.52,-1769.36C3027.7,-1776.93 3048.96,-1786.27 3068,-1794.56 3138.75,-1825.39 3222.48,-1861.42 3263.23,-1878.93"/>
<polygon fill="midnightblue" stroke="midnightblue" points="3011.49,-1765.96 3000.93,-1765.13 3008.67,-1772.37 3011.49,-1765.96"/>
</g>
<!-- Node33&#45;&gt;Node5 -->
<g id="edge158" class="edge"><title>Node33&#45;&gt;Node5</title>
<path fill="none" stroke="midnightblue" d="M3137.6,-1753.85C3156.53,-1603.06 3272.76,-677.005 3286.64,-566.369"/>
<polygon fill="midnightblue" stroke="midnightblue" points="3134.1,-1753.67 3136.32,-1764.03 3141.04,-1754.54 3134.1,-1753.67"/>
</g>
<!-- Node33&#45;&gt;Node10 -->
<g id="edge160" class="edge"><title>Node33&#45;&gt;Node10</title>
<path fill="none" stroke="midnightblue" d="M3189.67,-1759.33C3194.21,-1756.59 3198.42,-1753.36 3202,-1749.56 3240.89,-1708.3 3277.28,-1526.46 3286.02,-1480.27"/>
<polygon fill="midnightblue" stroke="midnightblue" points="3187.89,-1756.31 3180.62,-1764.01 3191.11,-1762.52 3187.89,-1756.31"/>
</g>
<!-- Node33&#45;&gt;Node34 -->
<g id="edge154" class="edge"><title>Node33&#45;&gt;Node34</title>
<path fill="none" stroke="midnightblue" d="M3157.41,-1791.41C3189.43,-1815.47 3247.3,-1858.97 3273.91,-1878.98"/>
<polygon fill="midnightblue" stroke="midnightblue" points="3159.22,-1788.39 3149.12,-1785.18 3155.01,-1793.98 3159.22,-1788.39"/>
</g>
<!-- Node34&#45;&gt;Node20 -->
<g id="edge156" class="edge"><title>Node34&#45;&gt;Node20</title>
<path fill="none" stroke="midnightblue" d="M3280.83,-1909.74C3269.25,-1939.03 3243.45,-1992.56 3202,-2017.56 3115.88,-2069.5 3077.57,-2041.56 2977,-2041.56 1273,-2041.56 1273,-2041.56 1273,-2041.56 1152.99,-2041.56 1116.4,-1999.43 1038,-1908.56 964.969,-1823.91 939.384,-1683.43 933.456,-1644.09"/>
<polygon fill="midnightblue" stroke="midnightblue" points="3284.19,-1910.73 3284.45,-1900.14 3277.64,-1908.26 3284.19,-1910.73"/>
</g>
<!-- Node36&#45;&gt;Node5 -->
<g id="edge174" class="edge"><title>Node36&#45;&gt;Node5</title>
<path fill="none" stroke="midnightblue" d="M1136.83,-1874.39C1155.17,-1867.4 1177.71,-1858.92 1198,-1851.56 1725.27,-1660.5 1877.15,-1664.5 2390,-1437.56 2544.59,-1369.16 2575.59,-1336.52 2724,-1255.56 2936.49,-1139.65 3058.96,-1189.83 3202,-994.563 3254.66,-922.67 3282.02,-626.862 3287.12,-566.391"/>
<polygon fill="midnightblue" stroke="midnightblue" points="1135.48,-1871.16 1127.38,-1878 1137.98,-1877.7 1135.48,-1871.16"/>
</g>
<!-- Node36&#45;&gt;Node10 -->
<g id="edge176" class="edge"><title>Node36&#45;&gt;Node10</title>
<path fill="none" stroke="midnightblue" d="M1157.3,-1878.71C1226.12,-1867.75 1345.13,-1851.56 1448,-1851.56 1448,-1851.56 1448,-1851.56 2977,-1851.56 3077.57,-1851.56 3126.44,-1893.93 3202,-1827.56 3256.63,-1779.58 3282.08,-1534.15 3287.07,-1480.1"/>
<polygon fill="midnightblue" stroke="midnightblue" points="1156.43,-1875.3 1147.11,-1880.35 1157.54,-1882.21 1156.43,-1875.3"/>
</g>
<!-- Node36&#45;&gt;Node37 -->
<g id="edge178" class="edge"><title>Node36&#45;&gt;Node37</title>
<path fill="none" stroke="midnightblue" d="M1149.83,-1873.31C1154.32,-1870.57 1158.48,-1867.34 1162,-1863.56 1197.61,-1825.28 1161.23,-1788.73 1198,-1751.56 1204.18,-1745.32 1211.95,-1740.63 1220.14,-1737.12"/>
<polygon fill="midnightblue" stroke="midnightblue" points="1148.12,-1870.25 1140.9,-1878.01 1151.38,-1876.45 1148.12,-1870.25"/>
</g>
<!-- Node37&#45;&gt;Node20 -->
<g id="edge180" class="edge"><title>Node37&#45;&gt;Node20</title>
<path fill="none" stroke="midnightblue" d="M1208.5,-1714.04C1160.96,-1704.26 1094.94,-1689.51 1038,-1672.56 1010.18,-1664.29 979.102,-1652.55 957.827,-1644.11"/>
<polygon fill="midnightblue" stroke="midnightblue" points="1207.86,-1717.48 1218.36,-1716.05 1209.26,-1710.62 1207.86,-1717.48"/>
</g>
<!-- Node38&#45;&gt;Node20 -->
<g id="edge184" class="edge"><title>Node38&#45;&gt;Node20</title>
<path fill="none" stroke="midnightblue" d="M1036.52,-1757.96C985.373,-1722.27 948.263,-1667.79 936.171,-1644.19"/>
<polygon fill="midnightblue" stroke="midnightblue" points="1034.58,-1760.88 1044.84,-1763.52 1038.47,-1755.06 1034.58,-1760.88"/>
</g>
<!-- Node40&#45;&gt;Node4 -->
<g id="edge200" class="edge"><title>Node40&#45;&gt;Node4</title>
<path fill="none" stroke="midnightblue" d="M1680.9,-901.636C1774.46,-903.051 1939.49,-905.546 2043.84,-907.124"/>
<polygon fill="midnightblue" stroke="midnightblue" points="1680.73,-898.133 1670.68,-901.481 1680.63,-905.132 1680.73,-898.133"/>
</g>
<!-- Node40&#45;&gt;Node5 -->
<g id="edge202" class="edge"><title>Node40&#45;&gt;Node5</title>
<path fill="none" stroke="midnightblue" d="M1654.79,-913.885C1759.77,-942.731 2028.39,-1002.65 2234,-928.563 2338.24,-891.007 2327.74,-820.753 2426,-769.563 2517.99,-721.64 2547.27,-707.563 2651,-707.563 2651,-707.563 2651,-707.563 2977,-707.563 3078.14,-707.563 3115.54,-726.036 3202,-673.563 3245.34,-647.259 3273.45,-590.034 3283.68,-566.256"/>
<polygon fill="midnightblue" stroke="midnightblue" points="1655.43,-910.429 1644.85,-911.112 1653.55,-917.171 1655.43,-910.429"/>
</g>
<!-- Node40&#45;&gt;Node10 -->
<g id="edge208" class="edge"><title>Node40&#45;&gt;Node10</title>
<path fill="none" stroke="midnightblue" d="M1625.67,-918.668C1714.78,-1019.53 2170.77,-1507.56 2651,-1507.56 2651,-1507.56 2651,-1507.56 2977,-1507.56 3083.61,-1507.56 3209.28,-1485.29 3262.33,-1474.85"/>
<polygon fill="midnightblue" stroke="midnightblue" points="1628.25,-916.31 1619.03,-911.099 1622.99,-920.925 1628.25,-916.31"/>
</g>
<!-- Node40&#45;&gt;Node15 -->
<g id="edge198" class="edge"><title>Node40&#45;&gt;Node15</title>
<path fill="none" stroke="midnightblue" d="M1614.26,-880.133C1623.8,-839.47 1650.66,-747.992 1708,-697.563 1715.11,-691.309 1723.84,-686.61 1732.79,-683.082"/>
<polygon fill="midnightblue" stroke="midnightblue" points="1610.83,-879.443 1612.07,-889.965 1617.66,-880.969 1610.83,-879.443"/>
</g>
<!-- Node40&#45;&gt;Node16 -->
<g id="edge206" class="edge"><title>Node40&#45;&gt;Node16</title>
<path fill="none" stroke="midnightblue" d="M1616.97,-880.546C1628.51,-847.339 1652.28,-778.751 1672,-720.563 1688.24,-672.644 1673.85,-649.896 1708,-612.563 1768.86,-546.035 1808.08,-558.895 1894,-531.563 1952.07,-513.093 2020.04,-499.553 2069.64,-491.086"/>
<polygon fill="midnightblue" stroke="midnightblue" points="1613.65,-879.431 1613.67,-890.026 1620.26,-881.731 1613.65,-879.431"/>
</g>
<!-- Node40&#45;&gt;Node17 -->
<g id="edge204" class="edge"><title>Node40&#45;&gt;Node17</title>
<path fill="none" stroke="midnightblue" d="M1638.51,-885.044C1733.77,-833.182 2039.56,-666.703 2119.65,-623.099"/>
<polygon fill="midnightblue" stroke="midnightblue" points="1636.56,-882.116 1629.45,-889.972 1639.91,-888.264 1636.56,-882.116"/>
</g>
<!-- Node41&#45;&gt;Node5 -->
<g id="edge212" class="edge"><title>Node41&#45;&gt;Node5</title>
<path fill="none" stroke="midnightblue" d="M1512.81,-797.109C1724.26,-756.659 2386.09,-631.563 2484,-631.563 2484,-631.563 2484,-631.563 2977,-631.563 3078.34,-631.563 3105.02,-623.967 3202,-594.563 3225.85,-587.334 3251.69,-574.94 3268.76,-566.064"/>
<polygon fill="midnightblue" stroke="midnightblue" points="1511.95,-793.71 1502.79,-799.028 1513.27,-800.585 1511.95,-793.71"/>
</g>
<!-- Node41&#45;&gt;Node10 -->
<g id="edge216" class="edge"><title>Node41&#45;&gt;Node10</title>
<path fill="none" stroke="midnightblue" d="M1449.72,-830.44C1457.37,-919.784 1490.55,-1269.57 1548,-1361.56 1665.72,-1550.06 1728.77,-1657.56 1951,-1657.56 1951,-1657.56 1951,-1657.56 2139,-1657.56 2366.56,-1657.56 2423.44,-1659.56 2651,-1659.56 2651,-1659.56 2651,-1659.56 2977,-1659.56 3077.57,-1659.56 3118.97,-1692.31 3202,-1635.56 3258.01,-1597.29 3279.89,-1510.87 3286.03,-1480.42"/>
<polygon fill="midnightblue" stroke="midnightblue" points="1453.18,-829.908 1448.86,-820.236 1446.21,-830.495 1453.18,-829.908"/>
</g>
<!-- Node41&#45;&gt;Node28 -->
<g id="edge214" class="edge"><title>Node41&#45;&gt;Node28</title>
<path fill="none" stroke="midnightblue" d="M1479.11,-794.348C1489.76,-788.799 1501.6,-782.241 1512,-775.563 1544.27,-754.843 1579.33,-726.431 1597.49,-711.214"/>
<polygon fill="midnightblue" stroke="midnightblue" points="1477.44,-791.271 1470.13,-798.941 1480.63,-797.504 1477.44,-791.271"/>
</g>
<!-- Node42&#45;&gt;Node20 -->
<g id="edge220" class="edge"><title>Node42&#45;&gt;Node20</title>
<path fill="none" stroke="midnightblue" d="M800.659,-1590.29C831.201,-1600.35 872.051,-1613.81 900.038,-1623.03"/>
<polygon fill="midnightblue" stroke="midnightblue" points="801.728,-1586.96 791.135,-1587.15 799.537,-1593.6 801.728,-1586.96"/>
</g>
<!-- Node43&#45;&gt;Node20 -->
<g id="edge226" class="edge"><title>Node43&#45;&gt;Node20</title>
<path fill="none" stroke="midnightblue" d="M806.092,-1681.02C812.801,-1678.94 819.595,-1676.75 826,-1674.56 853.817,-1665.05 885.162,-1652.72 906.505,-1644.08"/>
<polygon fill="midnightblue" stroke="midnightblue" points="804.925,-1677.71 796.377,-1683.97 806.963,-1684.41 804.925,-1677.71"/>
</g>
<!-- Node44&#45;&gt;Node20 -->
<g id="edge236" class="edge"><title>Node44&#45;&gt;Node20</title>
<path fill="none" stroke="midnightblue" d="M836.556,-1645.15C854.476,-1642.97 872.913,-1640.74 888.748,-1638.81"/>
<polygon fill="midnightblue" stroke="midnightblue" points="835.887,-1641.7 826.382,-1646.38 836.731,-1648.65 835.887,-1641.7"/>
</g>
<!-- Node45&#45;&gt;Node5 -->
<g id="edge246" class="edge"><title>Node45&#45;&gt;Node5</title>
<path fill="none" stroke="midnightblue" d="M2550.88,-172.563C2619.26,-172.563 2728.53,-172.563 2823,-172.563 2823,-172.563 2823,-172.563 2977,-172.563 3077.62,-172.563 3126.55,-131.004 3202,-197.563 3256.53,-245.663 3282.06,-490.999 3287.07,-545.029"/>
<polygon fill="midnightblue" stroke="midnightblue" points="2550.68,-169.064 2540.68,-172.563 2550.68,-176.064 2550.68,-169.064"/>
</g>
<!-- Node46&#45;&gt;Node5 -->
<g id="edge250" class="edge"><title>Node46&#45;&gt;Node5</title>
<path fill="none" stroke="midnightblue" d="M416.081,-1321.6C425.053,-1158.28 493.628,-95.5635 759,-95.5635 759,-95.5635 759,-95.5635 2977,-95.5635 3077.36,-95.5635 3127.3,-47.5477 3202,-114.563 3268.77,-174.467 3284.98,-482.702 3287.59,-544.694"/>
<polygon fill="midnightblue" stroke="midnightblue" points="412.575,-1321.61 415.536,-1331.78 419.565,-1321.98 412.575,-1321.61"/>
</g>
<!-- Node46&#45;&gt;Node10 -->
<g id="edge274" class="edge"><title>Node46&#45;&gt;Node10</title>
<path fill="none" stroke="midnightblue" d="M471.094,-1355.13C485.054,-1357.92 500.025,-1360.62 514,-1362.56 622.172,-1377.63 649.784,-1381.56 759,-1381.56 759,-1381.56 759,-1381.56 932,-1381.56 1034.57,-1381.56 1077.36,-1342.63 1162,-1400.56 1192.18,-1421.22 1171.25,-1449.62 1198,-1474.56 1364.1,-1629.47 1479.87,-1544.44 1672,-1665.56 1690.36,-1677.14 1688.15,-1689.78 1708,-1698.56 1846.64,-1759.9 2238.47,-1721.32 2390,-1716.56 2480.36,-1713.73 3127.9,-1717.35 3202,-1665.56 3266.87,-1620.22 3283.33,-1514.64 3287.03,-1480.46"/>
<polygon fill="midnightblue" stroke="midnightblue" points="471.634,-1351.67 461.136,-1353.1 470.233,-1358.53 471.634,-1351.67"/>
</g>
<!-- Node47 -->
<g id="node173" class="node"><title>Node47</title>
<a xlink:href="../../d3/d52/blanket_8js.html#a1f40bff1db8e3db86f93e8fa26d32564" target="_top" xlink:title="parseVariableDeclarationList">
<polygon fill="white" stroke="black" points="514.5,-1332.06 514.5,-1353.06 655.5,-1353.06 655.5,-1332.06 514.5,-1332.06"/>
<text text-anchor="middle" x="585" y="-1340.06" font-family="Helvetica,sans-Serif" font-size="10.00">parseVariableDeclarationList</text>
</a>
</g>
<!-- Node46&#45;&gt;Node47 -->
<g id="edge252" class="edge"><title>Node46&#45;&gt;Node47</title>
<path fill="none" stroke="midnightblue" d="M488,-1342.56C496.76,-1342.56 505.693,-1342.56 514.418,-1342.56"/>
<polygon fill="midnightblue" stroke="midnightblue" points="487.819,-1339.06 477.819,-1342.56 487.819,-1346.06 487.819,-1339.06"/>
</g>
<!-- Node48 -->
<g id="node175" class="node"><title>Node48</title>
<a xlink:href="../../d3/d52/blanket_8js.html#aef339b5cc092875eb5b1a74161a34b78" target="_top" xlink:title="parseVariableStatement">
<polygon fill="white" stroke="black" points="698.5,-1448.06 698.5,-1469.06 819.5,-1469.06 819.5,-1448.06 698.5,-1448.06"/>
<text text-anchor="middle" x="759" y="-1456.06" font-family="Helvetica,sans-Serif" font-size="10.00">parseVariableStatement</text>
</a>
</g>
<!-- Node47&#45;&gt;Node48 -->
<g id="edge254" class="edge"><title>Node47&#45;&gt;Node48</title>
<path fill="none" stroke="midnightblue" d="M609.588,-1358.96C645.896,-1383.16 712.828,-1427.78 743.233,-1448.05"/>
<polygon fill="midnightblue" stroke="midnightblue" points="611.32,-1355.9 601.058,-1353.27 607.437,-1361.73 611.32,-1355.9"/>
</g>
<!-- Node49 -->
<g id="node178" class="node"><title>Node49</title>
<a xlink:href="../../d3/d52/blanket_8js.html#a93b759af8316cc5fedd9a23ad245254a" target="_top" xlink:title="parseConstLetDeclaration">
<polygon fill="white" stroke="black" points="867,-851.063 867,-872.063 997,-872.063 997,-851.063 867,-851.063"/>
<text text-anchor="middle" x="932" y="-859.063" font-family="Helvetica,sans-Serif" font-size="10.00">parseConstLetDeclaration</text>
</a>
</g>
<!-- Node47&#45;&gt;Node49 -->
<g id="edge258" class="edge"><title>Node47&#45;&gt;Node49</title>
<path fill="none" stroke="midnightblue" d="M586.756,-1321.72C594.058,-1240.35 624.829,-945.722 692,-886.563 742.929,-841.709 825.51,-843.612 879.288,-851.058"/>
<polygon fill="midnightblue" stroke="midnightblue" points="583.264,-1321.47 585.88,-1331.74 590.238,-1322.08 583.264,-1321.47"/>
</g>
<!-- Node50 -->
<g id="node183" class="node"><title>Node50</title>
<a xlink:href="../../d3/d52/blanket_8js.html#a61a7ffe6ee3b9ce3ccd76776339f0fdd" target="_top" xlink:title="parseForVariableDeclaration">
<polygon fill="white" stroke="black" points="862,-1332.06 862,-1353.06 1002,-1353.06 1002,-1332.06 862,-1332.06"/>
<text text-anchor="middle" x="932" y="-1340.06" font-family="Helvetica,sans-Serif" font-size="10.00">parseForVariableDeclaration</text>
</a>
</g>
<!-- Node47&#45;&gt;Node50 -->
<g id="edge266" class="edge"><title>Node47&#45;&gt;Node50</title>
<path fill="none" stroke="midnightblue" d="M665.729,-1342.56C725.103,-1342.56 805.012,-1342.56 861.757,-1342.56"/>
<polygon fill="midnightblue" stroke="midnightblue" points="665.639,-1339.06 655.639,-1342.56 665.639,-1346.06 665.639,-1339.06"/>
</g>
<!-- Node48&#45;&gt;Node20 -->
<g id="edge256" class="edge"><title>Node48&#45;&gt;Node20</title>
<path fill="none" stroke="midnightblue" d="M780.055,-1475.67C793.551,-1486.9 811.242,-1502.13 826,-1516.56 864.022,-1553.74 905.29,-1601.76 923.05,-1622.84"/>
<polygon fill="midnightblue" stroke="midnightblue" points="782.199,-1472.9 772.258,-1469.23 777.743,-1478.3 782.199,-1472.9"/>
</g>
<!-- Node49&#45;&gt;Node5 -->
<g id="edge260" class="edge"><title>Node49&#45;&gt;Node5</title>
<path fill="none" stroke="midnightblue" d="M936.257,-841.052C953.781,-761.514 1027.61,-469.985 1198,-310.563 1335.52,-181.898 1421.68,-211.563 1610,-211.563 1610,-211.563 1610,-211.563 2977,-211.563 3077.57,-211.563 3125.55,-170.22 3202,-235.563 3251.3,-277.707 3280.48,-493.898 3286.73,-544.814"/>
<polygon fill="midnightblue" stroke="midnightblue" points="932.834,-840.32 934.153,-850.833 939.678,-841.792 932.834,-840.32"/>
</g>
<!-- Node49&#45;&gt;Node10 -->
<g id="edge262" class="edge"><title>Node49&#45;&gt;Node10</title>
<path fill="none" stroke="midnightblue" d="M934.369,-882.721C943.489,-960.4 978.807,-1228.38 1038,-1286.56 1079.31,-1327.17 2346.56,-1545.56 2651,-1545.56 2651,-1545.56 2651,-1545.56 2977,-1545.56 3078.34,-1545.56 3105.02,-1537.97 3202,-1508.56 3225.85,-1501.33 3251.69,-1488.94 3268.76,-1480.06"/>
<polygon fill="midnightblue" stroke="midnightblue" points="937.792,-881.851 933.172,-872.316 930.838,-882.651 937.792,-881.851"/>
</g>
<!-- Node49&#45;&gt;Node24 -->
<g id="edge264" class="edge"><title>Node49&#45;&gt;Node24</title>
<path fill="none" stroke="midnightblue" d="M940.407,-881.83C970.604,-954.627 1072.99,-1201.46 1095.57,-1255.89"/>
<polygon fill="midnightblue" stroke="midnightblue" points="943.558,-880.292 936.494,-872.396 937.092,-882.974 943.558,-880.292"/>
</g>
<!-- Node50&#45;&gt;Node5 -->
<g id="edge268" class="edge"><title>Node50&#45;&gt;Node5</title>
<path fill="none" stroke="midnightblue" d="M936.721,-1321.91C966.996,-1190.09 1134.63,-469.33 1198,-392.563 1259.69,-317.824 1513.09,-249.563 1610,-249.563 1610,-249.563 1610,-249.563 2977,-249.563 3077.36,-249.563 3124.09,-205.308 3202,-268.563 3247.23,-305.283 3279.15,-497.478 3286.42,-544.953"/>
<polygon fill="midnightblue" stroke="midnightblue" points="933.253,-1321.38 934.43,-1331.91 940.076,-1322.94 933.253,-1321.38"/>
</g>
<!-- Node50&#45;&gt;Node10 -->
<g id="edge272" class="edge"><title>Node50&#45;&gt;Node10</title>
<path fill="none" stroke="midnightblue" d="M1012.31,-1333.3C1059.73,-1331.95 1118.75,-1337.84 1162,-1367.56 1190.83,-1387.38 1169.6,-1417.13 1198,-1437.56 1312.59,-1520.02 1372.58,-1463.38 1512,-1485.56 2015.48,-1565.68 2141.18,-1621.56 2651,-1621.56 2651,-1621.56 2651,-1621.56 2977,-1621.56 3078.14,-1621.56 3115.54,-1640.04 3202,-1587.56 3245.34,-1561.26 3273.45,-1504.03 3283.68,-1480.26"/>
<polygon fill="midnightblue" stroke="midnightblue" points="1011.92,-1329.81 1002.07,-1333.71 1012.2,-1336.81 1011.92,-1329.81"/>
</g>
<!-- Node50&#45;&gt;Node22 -->
<g id="edge270" class="edge"><title>Node50&#45;&gt;Node22</title>
<path fill="none" stroke="midnightblue" d="M963.896,-1357.37C996.983,-1372.73 1047.89,-1396.37 1077.17,-1409.96"/>
<polygon fill="midnightblue" stroke="midnightblue" points="965.201,-1354.12 954.657,-1353.08 962.253,-1360.47 965.201,-1354.12"/>
</g>
</g>
</svg>
        <g id="navigator" transform="translate(0 0)" fill="#404254">
                <rect fill="#f2f5e9" fill-opacity="0.5" stroke="#606060" stroke-width=".5" x="0" y="0" width="60" height="60"/>
                <use id="zoomplus" xlink:href="#zoomPlus" x="17" y="9" onmousedown="handleZoom(evt,'in')"/>
                <use id="zoomminus" xlink:href="#zoomMin" x="42" y="9" onmousedown="handleZoom(evt,'out')"/>
                <use id="reset" xlink:href="#resetDef" x="30" y="36" onmousedown="handleReset()"/>
                <g id="arrowUp" xlink:href="#dirArrow" transform="translate(30 24)" onmousedown="handlePan(0,-1)">
                  <use xlink:href="#rim" fill="#404040">
                        <set attributeName="fill" to="#808080" begin="arrowUp.mouseover" end="arrowUp.mouseout"/>
                  </use>
                  <path fill="none" stroke="white" stroke-width="1.5" d="M0,-3.0v7 M-2.5,-0.5L0,-3.0L2.5,-0.5"/>
                </g>
                <g id="arrowRight" xlink:href="#dirArrow" transform="rotate(90) translate(36 -43)" onmousedown="handlePan(1,0)">
                  <use xlink:href="#rim" fill="#404040">
                        <set attributeName="fill" to="#808080" begin="arrowRight.mouseover" end="arrowRight.mouseout"/>
                  </use>
                  <path fill="none" stroke="white" stroke-width="1.5" d="M0,-3.0v7 M-2.5,-0.5L0,-3.0L2.5,-0.5"/>
                </g>
                <g id="arrowDown" xlink:href="#dirArrow" transform="rotate(180) translate(-30 -48)" onmousedown="handlePan(0,1)">
                  <use xlink:href="#rim" fill="#404040">
                        <set attributeName="fill" to="#808080" begin="arrowDown.mouseover" end="arrowDown.mouseout"/>
                  </use>
                  <path fill="none" stroke="white" stroke-width="1.5" d="M0,-3.0v7 M-2.5,-0.5L0,-3.0L2.5,-0.5"/>
                </g>
                <g id="arrowLeft" xlink:href="#dirArrow" transform="rotate(270) translate(-36 17)" onmousedown="handlePan(-1,0)">
                  <use xlink:href="#rim" fill="#404040">
                        <set attributeName="fill" to="#808080" begin="arrowLeft.mouseover" end="arrowLeft.mouseout"/>
                  </use>
                  <path fill="none" stroke="white" stroke-width="1.5" d="M0,-3.0v7 M-2.5,-0.5L0,-3.0L2.5,-0.5"/>
                </g>
        </g>
</svg>
