<?xml version="1.0" encoding="UTF-8" standalone="no"?>
<!DOCTYPE svg PUBLIC "-//W3C//DTD SVG 1.1//EN"
 "http://www.w3.org/Graphics/SVG/1.1/DTD/svg11.dtd">
<!-- Generated by graphviz version 2.26.3 (20100126.1600)
 -->
<!-- Title: G Pages: 1 -->
<!--zoomable 2058 -->
<svg id="main" version="1.1" xmlns="http://www.w3.org/2000/svg" xmlns:xlink="http://www.w3.org/1999/xlink" xml:space="preserve" onload="init(evt)">
        <defs>
                <circle id="rim" cx="0" cy="0" r="7"/>
                <circle id="rim2" cx="0" cy="0" r="3.5"/>
                <g id="zoomPlus">
                        <use xlink:href="#rim" fill="#404040">
                                <set attributeName="fill" to="#808080" begin="zoomplus.mouseover" end="zoomplus.mouseout"/>
                        </use>
                        <path d="M-4,0h8M0,-4v8" fill="none" stroke="white" stroke-width="1.5" pointer-events="none"/>
                </g>
                <g id="zoomMin">
                        <use xlink:href="#rim" fill="#404040">
                                <set attributeName="fill" to="#808080" begin="zoomminus.mouseover" end="zoomminus.mouseout"/>
                        </use>
                        <path d="M-4,0h8" fill="none" stroke="white" stroke-width="1.5" pointer-events="none"/>
                </g>
                <g id="dirArrow">
                        <path fill="none" stroke="white" stroke-width="1.5" d="M0,-3.0v7 M-2.5,-0.5L0,-3.0L2.5,-0.5"/>
                </g>
               <g id="resetDef">
                       <use xlink:href="#rim2" fill="#404040">
                               <set attributeName="fill" to="#808080" begin="reset.mouseover" end="reset.mouseout"/>
                       </use>
               </g>
        </defs>

<script type="text/javascript">
var viewWidth = 3458;
var viewHeight = 2058;
var sectionId = 'dynsection-53';
</script>
<script xlink:href="../../svgpan.js"/>
<svg id="graph" class="graph">
<g id="viewport">
<title>G</title>
<polygon fill="white" stroke="white" points="-4,5 -4,-2053.87 3455,-2053.87 3455,5 -4,5"/>
<!-- Node1 -->
<g id="node1" class="node"><title>Node1</title>
<polygon fill="#bfbfbf" stroke="black" points="0,-945.923 0,-966.923 142,-966.923 142,-945.923 0,-945.923"/>
<text text-anchor="middle" x="71" y="-953.923" font-family="Helvetica,sans-Serif" font-size="10.00">parseLogicalANDExpression</text>
</g>
<!-- Node2 -->
<g id="node3" class="node"><title>Node2</title>
<a xlink:href="../../d3/d52/blanket_8js.html#a0448e146785a1b1a89635278d750bf76" target="_top" xlink:title="parseLogicalORExpression">
<polygon fill="white" stroke="black" points="178.5,-945.923 178.5,-966.923 313.5,-966.923 313.5,-945.923 178.5,-945.923"/>
<text text-anchor="middle" x="246" y="-953.923" font-family="Helvetica,sans-Serif" font-size="10.00">parseLogicalORExpression</text>
</a>
</g>
<!-- Node1&#45;&gt;Node2 -->
<g id="edge2" class="edge"><title>Node1&#45;&gt;Node2</title>
<path fill="none" stroke="midnightblue" d="M152.318,-956.423C161.005,-956.423 169.773,-956.423 178.278,-956.423"/>
<polygon fill="midnightblue" stroke="midnightblue" points="152.179,-952.923 142.179,-956.423 152.179,-959.923 152.179,-952.923"/>
</g>
<!-- Node3 -->
<g id="node5" class="node"><title>Node3</title>
<a xlink:href="../../db/d7b/r_8js.html#a4bb36e0d0cde43aa023083eb1a91c876" target="_top" xlink:title="patch">
<polygon fill="white" stroke="black" points="3301.5,-561.923 3301.5,-582.923 3342.5,-582.923 3342.5,-561.923 3301.5,-561.923"/>
<text text-anchor="middle" x="3322" y="-569.923" font-family="Helvetica,sans-Serif" font-size="10.00">patch</text>
</a>
</g>
<!-- Node1&#45;&gt;Node3 -->
<g id="edge280" class="edge"><title>Node1&#45;&gt;Node3</title>
<path fill="none" stroke="midnightblue" d="M73.922,-935.915C94.0035,-798.874 216.837,-21.4233 419,-21.4233 419,-21.4233 419,-21.4233 3001,-21.4233 3105.63,-21.4233 3158.44,34.7982 3236,-35.4233 3276.86,-72.414 3314.73,-488.679 3321.07,-561.565"/>
<polygon fill="midnightblue" stroke="midnightblue" points="70.4421,-935.524 72.4725,-945.923 77.3698,-936.528 70.4421,-935.524"/>
</g>
<!-- Node12 -->
<g id="node26" class="node"><title>Node12</title>
<a xlink:href="../../db/d7b/r_8js.html#acdaaf121ae542d32ab051476c11ab32a" target="_top" xlink:title="unpatch">
<polygon fill="white" stroke="black" points="3296.5,-1475.92 3296.5,-1496.92 3347.5,-1496.92 3347.5,-1475.92 3296.5,-1475.92"/>
<text text-anchor="middle" x="3322" y="-1483.92" font-family="Helvetica,sans-Serif" font-size="10.00">unpatch</text>
</a>
</g>
<!-- Node1&#45;&gt;Node12 -->
<g id="edge282" class="edge"><title>Node1&#45;&gt;Node12</title>
<path fill="none" stroke="midnightblue" d="M73.1709,-977.079C89.1514,-1123.87 194.278,-2003.42 419,-2003.42 419,-2003.42 419,-2003.42 3001,-2003.42 3109.25,-2003.42 3162.51,-2018.9 3236,-1939.42 3298.63,-1871.68 3318.2,-1558.68 3321.47,-1497"/>
<polygon fill="midnightblue" stroke="midnightblue" points="76.65,-976.696 72.1029,-967.127 69.69,-977.443 76.65,-976.696"/>
</g>
<!-- Node2&#45;&gt;Node3 -->
<g id="edge4" class="edge"><title>Node2&#45;&gt;Node3</title>
<path fill="none" stroke="midnightblue" d="M249.31,-935.514C271.228,-800.682 400.564,-59.4233 595,-59.4233 595,-59.4233 595,-59.4233 3001,-59.4233 3105.63,-59.4233 3158.02,-3.6633 3236,-73.4233 3312,-141.413 3320.88,-495.995 3321.88,-561.881"/>
<polygon fill="midnightblue" stroke="midnightblue" points="245.801,-935.296 247.669,-945.725 252.712,-936.407 245.801,-935.296"/>
</g>
<!-- Node5 -->
<g id="node9" class="node"><title>Node5</title>
<a xlink:href="../../d3/d52/blanket_8js.html#a2821a3216962a83c76a59cabeb771f0c" target="_top" xlink:title="parseConditionalExpression">
<polygon fill="white" stroke="black" points="350,-945.923 350,-966.923 488,-966.923 488,-945.923 350,-945.923"/>
<text text-anchor="middle" x="419" y="-953.923" font-family="Helvetica,sans-Serif" font-size="10.00">parseConditionalExpression</text>
</a>
</g>
<!-- Node2&#45;&gt;Node5 -->
<g id="edge8" class="edge"><title>Node2&#45;&gt;Node5</title>
<path fill="none" stroke="midnightblue" d="M323.956,-956.423C332.605,-956.423 341.368,-956.423 349.897,-956.423"/>
<polygon fill="midnightblue" stroke="midnightblue" points="323.878,-952.923 313.878,-956.423 323.878,-959.923 323.878,-952.923"/>
</g>
<!-- Node2&#45;&gt;Node12 -->
<g id="edge278" class="edge"><title>Node2&#45;&gt;Node12</title>
<path fill="none" stroke="midnightblue" d="M248.449,-977.204C265.981,-1121.25 377.986,-1965.42 595,-1965.42 595,-1965.42 595,-1965.42 3001,-1965.42 3110.77,-1965.42 3162.46,-1970.92 3236,-1889.42 3290.76,-1828.74 3316.28,-1555.32 3321.13,-1497.27"/>
<polygon fill="midnightblue" stroke="midnightblue" points="251.899,-976.583 247.232,-967.072 244.949,-977.418 251.899,-976.583"/>
</g>
<!-- Node4 -->
<g id="node7" class="node"><title>Node4</title>
<a xlink:href="../../db/d7b/r_8js.html#a3e70263fa1d00b23249fce45e65e5849" target="_top" xlink:title="parse">
<polygon fill="white" stroke="black" points="3408.5,-1475.92 3408.5,-1496.92 3449.5,-1496.92 3449.5,-1475.92 3408.5,-1475.92"/>
<text text-anchor="middle" x="3429" y="-1483.92" font-family="Helvetica,sans-Serif" font-size="10.00">parse</text>
</a>
</g>
<!-- Node3&#45;&gt;Node4 -->
<g id="edge6" class="edge"><title>Node3&#45;&gt;Node4</title>
<path fill="none" stroke="midnightblue" d="M3324.44,-593.252C3339.25,-719.783 3416.89,-1382.99 3427.74,-1475.66"/>
<polygon fill="midnightblue" stroke="midnightblue" points="3327.88,-592.529 3323.24,-583.004 3320.93,-593.343 3327.88,-592.529"/>
</g>
<!-- Node5&#45;&gt;Node3 -->
<g id="edge274" class="edge"><title>Node5&#45;&gt;Node3</title>
<path fill="none" stroke="midnightblue" d="M422.494,-935.994C445.323,-805.799 578.119,-97.4233 765,-97.4233 765,-97.4233 765,-97.4233 3001,-97.4233 3105.63,-97.4233 3157.54,-42.2016 3236,-111.423 3306.51,-173.636 3319.8,-498.932 3321.72,-561.873"/>
<polygon fill="midnightblue" stroke="midnightblue" points="419.041,-935.421 420.78,-945.872 425.938,-936.618 419.041,-935.421"/>
</g>
<!-- Node6 -->
<g id="node11" class="node"><title>Node6</title>
<a xlink:href="../../d3/d52/blanket_8js.html#a581bf229967f248813f49806ed5ec40e" target="_top" xlink:title="parseAssignmentExpression">
<polygon fill="white" stroke="black" points="524.5,-945.923 524.5,-966.923 665.5,-966.923 665.5,-945.923 524.5,-945.923"/>
<text text-anchor="middle" x="595" y="-953.923" font-family="Helvetica,sans-Serif" font-size="10.00">parseAssignmentExpression</text>
</a>
</g>
<!-- Node5&#45;&gt;Node6 -->
<g id="edge10" class="edge"><title>Node5&#45;&gt;Node6</title>
<path fill="none" stroke="midnightblue" d="M498.226,-949.703C506.953,-949.644 515.796,-949.673 524.408,-949.792"/>
<polygon fill="midnightblue" stroke="midnightblue" points="498.016,-946.205 488.055,-949.814 498.092,-953.205 498.016,-946.205"/>
</g>
<!-- Node5&#45;&gt;Node12 -->
<g id="edge276" class="edge"><title>Node5&#45;&gt;Node12</title>
<path fill="none" stroke="midnightblue" d="M421.663,-977.279C440.242,-1118.36 555.904,-1927.42 765,-1927.42 765,-1927.42 765,-1927.42 3001,-1927.42 3113.49,-1927.42 3162.11,-1918.24 3236,-1833.42 3282.17,-1780.42 3313.96,-1549.57 3320.68,-1497.07"/>
<polygon fill="midnightblue" stroke="midnightblue" points="425.087,-976.462 420.327,-966.997 418.145,-977.365 425.087,-976.462"/>
</g>
<!-- Node6&#45;&gt;Node3 -->
<g id="edge270" class="edge"><title>Node6&#45;&gt;Node3</title>
<path fill="none" stroke="midnightblue" d="M596.666,-935.689C602.795,-866.793 627.735,-640.263 702,-470.423 774.66,-304.254 753.639,-135.423 935,-135.423 935,-135.423 935,-135.423 3001,-135.423 3105.69,-135.423 3157.2,-82.5021 3236,-151.423 3300.43,-207.781 3318.46,-501.442 3321.5,-561.635"/>
<polygon fill="midnightblue" stroke="midnightblue" points="593.175,-935.431 595.812,-945.692 600.15,-936.026 593.175,-935.431"/>
</g>
<!-- Node6&#45;&gt;Node5 -->
<g id="edge72" class="edge"><title>Node6&#45;&gt;Node5</title>
<path fill="none" stroke="midnightblue" d="M514.213,-963.153C505.473,-963.202 496.638,-963.162 488.055,-963.032"/>
<polygon fill="midnightblue" stroke="midnightblue" points="514.443,-966.651 524.408,-963.054 514.375,-959.651 514.443,-966.651"/>
</g>
<!-- Node7 -->
<g id="node13" class="node"><title>Node7</title>
<a xlink:href="../../d3/d52/blanket_8js.html#a4dd24748ac2de2377e9de1cea378c8ce" target="_top" xlink:title="parseArguments">
<polygon fill="white" stroke="black" points="2089,-467.923 2089,-488.923 2177,-488.923 2177,-467.923 2089,-467.923"/>
<text text-anchor="middle" x="2133" y="-475.923" font-family="Helvetica,sans-Serif" font-size="10.00">parseArguments</text>
</a>
</g>
<!-- Node6&#45;&gt;Node7 -->
<g id="edge12" class="edge"><title>Node6&#45;&gt;Node7</title>
<path fill="none" stroke="midnightblue" d="M598.098,-935.629C613.757,-839.106 693.195,-439.423 935,-439.423 935,-439.423 935,-439.423 1798,-439.423 1897.91,-439.423 1922.95,-445.328 2022,-458.423 2044.13,-461.349 2068.56,-465.635 2088.86,-469.49"/>
<polygon fill="midnightblue" stroke="midnightblue" points="594.622,-935.204 596.532,-945.625 601.538,-936.287 594.622,-935.204"/>
</g>
<!-- Node6&#45;&gt;Node12 -->
<g id="edge272" class="edge"><title>Node6&#45;&gt;Node12</title>
<path fill="none" stroke="midnightblue" d="M597.828,-977.317C617.065,-1115.25 733.987,-1889.42 935,-1889.42 935,-1889.42 935,-1889.42 1960,-1889.42 2102.12,-1889.42 3128.8,-1893.73 3236,-1800.42 3284.07,-1758.58 3314.18,-1546.82 3320.68,-1496.95"/>
<polygon fill="midnightblue" stroke="midnightblue" points="601.27,-976.653 596.438,-967.224 594.335,-977.608 601.27,-976.653"/>
</g>
<!-- Node18 -->
<g id="node55" class="node"><title>Node18</title>
<a xlink:href="../../d3/d52/blanket_8js.html#ae038bf12ad5067fcaead75bbd31ced43" target="_top" xlink:title="parseExpression">
<polygon fill="white" stroke="black" points="890.5,-1470.92 890.5,-1491.92 979.5,-1491.92 979.5,-1470.92 890.5,-1470.92"/>
<text text-anchor="middle" x="935" y="-1478.92" font-family="Helvetica,sans-Serif" font-size="10.00">parseExpression</text>
</a>
</g>
<!-- Node6&#45;&gt;Node18 -->
<g id="edge74" class="edge"><title>Node6&#45;&gt;Node18</title>
<path fill="none" stroke="midnightblue" d="M607.636,-975.935C663.257,-1061.82 885.399,-1404.83 927.938,-1470.52"/>
<polygon fill="midnightblue" stroke="midnightblue" points="610.475,-973.88 602.101,-967.389 604.6,-977.685 610.475,-973.88"/>
</g>
<!-- Node46 -->
<g id="node167" class="node"><title>Node46</title>
<a xlink:href="../../d3/d52/blanket_8js.html#a2d21feb352371240c5be038e221a268c" target="_top" xlink:title="parseVariableDeclaration">
<polygon fill="white" stroke="black" points="702.5,-945.923 702.5,-966.923 827.5,-966.923 827.5,-945.923 702.5,-945.923"/>
<text text-anchor="middle" x="765" y="-953.923" font-family="Helvetica,sans-Serif" font-size="10.00">parseVariableDeclaration</text>
</a>
</g>
<!-- Node6&#45;&gt;Node46 -->
<g id="edge242" class="edge"><title>Node6&#45;&gt;Node46</title>
<path fill="none" stroke="midnightblue" d="M675.716,-956.423C684.703,-956.423 693.754,-956.423 702.466,-956.423"/>
<polygon fill="midnightblue" stroke="midnightblue" points="675.618,-952.923 665.618,-956.423 675.618,-959.923 675.618,-952.923"/>
</g>
<!-- Node8 -->
<g id="node15" class="node"><title>Node8</title>
<a xlink:href="../../d3/d52/blanket_8js.html#af991c5171c6f7fd0e7096135aff10ede" target="_top" xlink:title="parseLeftHandSideExpressionAllowCall">
<polygon fill="white" stroke="black" points="2394,-776.923 2394,-797.923 2584,-797.923 2584,-776.923 2394,-776.923"/>
<text text-anchor="middle" x="2489" y="-784.923" font-family="Helvetica,sans-Serif" font-size="10.00">parseLeftHandSideExpressionAllowCall</text>
</a>
</g>
<!-- Node7&#45;&gt;Node8 -->
<g id="edge14" class="edge"><title>Node7&#45;&gt;Node8</title>
<path fill="none" stroke="midnightblue" d="M2187,-489.819C2194.32,-492.418 2201.52,-495.582 2208,-499.423 2224.97,-509.491 2430.98,-726.238 2479.03,-776.9"/>
<polygon fill="midnightblue" stroke="midnightblue" points="2187.61,-486.339 2177.02,-486.614 2185.47,-493.003 2187.61,-486.339"/>
</g>
<!-- Node14 -->
<g id="node37" class="node"><title>Node14</title>
<a xlink:href="../../d3/d52/blanket_8js.html#ab0ddf6d9b1b97408e0a5e840801580ac" target="_top" xlink:title="parseNewExpression">
<polygon fill="white" stroke="black" points="2246,-467.923 2246,-488.923 2356,-488.923 2356,-467.923 2246,-467.923"/>
<text text-anchor="middle" x="2301" y="-475.923" font-family="Helvetica,sans-Serif" font-size="10.00">parseNewExpression</text>
</a>
</g>
<!-- Node7&#45;&gt;Node14 -->
<g id="edge46" class="edge"><title>Node7&#45;&gt;Node14</title>
<path fill="none" stroke="midnightblue" d="M2187.27,-478.423C2205.98,-478.423 2226.94,-478.423 2245.73,-478.423"/>
<polygon fill="midnightblue" stroke="midnightblue" points="2187.14,-474.923 2177.14,-478.423 2187.14,-481.923 2187.14,-474.923"/>
</g>
<!-- Node16 -->
<g id="node45" class="node"><title>Node16</title>
<a xlink:href="../../db/d7b/r_8js.html#a8109edbc91b1c5805509faafc36dda62" target="_top" xlink:title="trackLeftHandSideExpressionAllowCall">
<polygon fill="white" stroke="black" points="2395,-315.923 2395,-336.923 2583,-336.923 2583,-315.923 2395,-315.923"/>
<text text-anchor="middle" x="2489" y="-323.923" font-family="Helvetica,sans-Serif" font-size="10.00">trackLeftHandSideExpressionAllowCall</text>
</a>
</g>
<!-- Node7&#45;&gt;Node16 -->
<g id="edge70" class="edge"><title>Node7&#45;&gt;Node16</title>
<path fill="none" stroke="midnightblue" d="M2170.76,-464.219C2216.41,-446.429 2294.96,-413.83 2358,-377.423 2375.09,-367.553 2376.16,-359.855 2394,-351.423 2406.8,-345.376 2421.28,-340.622 2435.02,-336.958"/>
<polygon fill="midnightblue" stroke="midnightblue" points="2169.32,-461.02 2161.26,-467.891 2171.85,-467.549 2169.32,-461.02"/>
</g>
<!-- Node8&#45;&gt;Node3 -->
<g id="edge42" class="edge"><title>Node8&#45;&gt;Node3</title>
<path fill="none" stroke="midnightblue" d="M2513.89,-771.368C2586.9,-724.544 2797.67,-591.423 2834,-591.423 2834,-591.423 2834,-591.423 3001,-591.423 3114.61,-591.423 3250.44,-579.417 3301.37,-574.493"/>
<polygon fill="midnightblue" stroke="midnightblue" points="2511.82,-768.536 2505.3,-776.885 2515.61,-774.425 2511.82,-768.536"/>
</g>
<!-- Node9 -->
<g id="node17" class="node"><title>Node9</title>
<a xlink:href="../../d3/d52/blanket_8js.html#a8140b4f8a5ed204e55ec65d01ef0e08d" target="_top" xlink:title="parsePostfixExpression">
<polygon fill="white" stroke="black" points="2620,-923.923 2620,-944.923 2740,-944.923 2740,-923.923 2620,-923.923"/>
<text text-anchor="middle" x="2680" y="-931.923" font-family="Helvetica,sans-Serif" font-size="10.00">parsePostfixExpression</text>
</a>
</g>
<!-- Node8&#45;&gt;Node9 -->
<g id="edge16" class="edge"><title>Node8&#45;&gt;Node9</title>
<path fill="none" stroke="midnightblue" d="M2515.27,-803.515C2534.71,-815.74 2561.6,-833.314 2584,-850.423 2616.21,-875.021 2651.43,-907.376 2668.89,-923.828"/>
<polygon fill="midnightblue" stroke="midnightblue" points="2516.98,-800.455 2506.64,-798.133 2513.27,-806.395 2516.98,-800.455"/>
</g>
<!-- Node8&#45;&gt;Node12 -->
<g id="edge44" class="edge"><title>Node8&#45;&gt;Node12</title>
<path fill="none" stroke="midnightblue" d="M2523.66,-802.539C2544.09,-813.139 2568.82,-829.209 2584,-850.423 2620.64,-901.622 2584.3,-935.569 2620,-987.423 2657.21,-1041.47 2687.43,-1034.16 2740,-1073.42 2756.24,-1085.55 2757.2,-1093.86 2776,-1101.42 2871.35,-1139.78 3158.22,-1082.24 3236,-1149.42 3287.75,-1194.12 3315.25,-1423.53 3320.9,-1475.81"/>
<polygon fill="midnightblue" stroke="midnightblue" points="2525.14,-799.368 2514.63,-798.056 2522.03,-805.637 2525.14,-799.368"/>
</g>
<!-- Node9&#45;&gt;Node3 -->
<g id="edge18" class="edge"><title>Node9&#45;&gt;Node3</title>
<path fill="none" stroke="midnightblue" d="M2728.8,-918.99C2732.96,-916.287 2736.8,-913.123 2740,-909.423 2782.31,-860.501 2730.29,-814.184 2776,-768.423 2923.59,-620.657 3054.94,-776.515 3236,-672.423 3274.71,-650.169 3304.35,-603.796 3316.27,-582.96"/>
<polygon fill="midnightblue" stroke="midnightblue" points="2726.95,-916.015 2719.89,-923.915 2730.33,-922.142 2726.95,-916.015"/>
</g>
<!-- Node10 -->
<g id="node20" class="node"><title>Node10</title>
<a xlink:href="../../d3/d52/blanket_8js.html#ae5cd9b619fc76e94b0867d235da7dc1c" target="_top" xlink:title="parseUnaryExpression">
<polygon fill="white" stroke="black" points="2776,-923.923 2776,-944.923 2892,-944.923 2892,-923.923 2776,-923.923"/>
<text text-anchor="middle" x="2834" y="-931.923" font-family="Helvetica,sans-Serif" font-size="10.00">parseUnaryExpression</text>
</a>
</g>
<!-- Node9&#45;&gt;Node10 -->
<g id="edge20" class="edge"><title>Node9&#45;&gt;Node10</title>
<path fill="none" stroke="midnightblue" d="M2750.61,-934.423C2759.03,-934.423 2767.55,-934.423 2775.77,-934.423"/>
<polygon fill="midnightblue" stroke="midnightblue" points="2750.42,-930.923 2740.42,-934.423 2750.42,-937.923 2750.42,-930.923"/>
</g>
<!-- Node9&#45;&gt;Node12 -->
<g id="edge40" class="edge"><title>Node9&#45;&gt;Node12</title>
<path fill="none" stroke="midnightblue" d="M2738.03,-947.191C2876.95,-977.988 3218.45,-1055.16 3236,-1073.42 3294.11,-1133.89 3317.07,-1416.65 3321.27,-1475.63"/>
<polygon fill="midnightblue" stroke="midnightblue" points="2738.51,-943.713 2727.99,-944.968 2737,-950.547 2738.51,-943.713"/>
</g>
<!-- Node10&#45;&gt;Node3 -->
<g id="edge22" class="edge"><title>Node10&#45;&gt;Node3</title>
<path fill="none" stroke="midnightblue" d="M2891.08,-921.609C2998.97,-897.179 3223.22,-845.309 3236,-833.423 3274.77,-797.352 3310.97,-627.566 3319.9,-583.103"/>
<polygon fill="midnightblue" stroke="midnightblue" points="2890,-918.266 2881.01,-923.885 2891.54,-925.093 2890,-918.266"/>
</g>
<!-- Node11 -->
<g id="node23" class="node"><title>Node11</title>
<a xlink:href="../../d3/d52/blanket_8js.html#aade312248455675511d8ccecf0b96416" target="_top" xlink:title="parseMultiplicativeExpression">
<polygon fill="white" stroke="black" points="2928,-923.923 2928,-944.923 3074,-944.923 3074,-923.923 2928,-923.923"/>
<text text-anchor="middle" x="3001" y="-931.923" font-family="Helvetica,sans-Serif" font-size="10.00">parseMultiplicativeExpression</text>
</a>
</g>
<!-- Node10&#45;&gt;Node11 -->
<g id="edge24" class="edge"><title>Node10&#45;&gt;Node11</title>
<path fill="none" stroke="midnightblue" d="M2902.51,-934.423C2910.9,-934.423 2919.49,-934.423 2927.94,-934.423"/>
<polygon fill="midnightblue" stroke="midnightblue" points="2902.41,-930.923 2892.41,-934.423 2902.41,-937.923 2902.41,-930.923"/>
</g>
<!-- Node10&#45;&gt;Node12 -->
<g id="edge38" class="edge"><title>Node10&#45;&gt;Node12</title>
<path fill="none" stroke="midnightblue" d="M2891.3,-947.114C2999.46,-971.303 3224.03,-1022.74 3236,-1035.42 3299.06,-1102.23 3318.28,-1414.36 3321.49,-1475.88"/>
<polygon fill="midnightblue" stroke="midnightblue" points="2892.04,-943.693 2881.52,-944.93 2890.52,-950.525 2892.04,-943.693"/>
</g>
<!-- Node11&#45;&gt;Node3 -->
<g id="edge26" class="edge"><title>Node11&#45;&gt;Node3</title>
<path fill="none" stroke="midnightblue" d="M3060.31,-921.707C3125.68,-907.2 3223.32,-883.88 3236,-871.423 3279.26,-828.941 3312.78,-631.024 3320.38,-582.961"/>
<polygon fill="midnightblue" stroke="midnightblue" points="3059.53,-918.296 3050.52,-923.869 3061.03,-925.132 3059.53,-918.296"/>
</g>
<!-- Node11&#45;&gt;Node12 -->
<g id="edge28" class="edge"><title>Node11&#45;&gt;Node12</title>
<path fill="none" stroke="midnightblue" d="M3061.38,-947.091C3126.97,-961.394 3224.04,-984.368 3236,-997.423 3303.39,-1071 3319.22,-1411.39 3321.64,-1475.87"/>
<polygon fill="midnightblue" stroke="midnightblue" points="3062.06,-943.657 3051.55,-944.96 3060.58,-950.499 3062.06,-943.657"/>
</g>
<!-- Node13 -->
<g id="node29" class="node"><title>Node13</title>
<a xlink:href="../../d3/d52/blanket_8js.html#a2e6fe0682b4e55d8e98ae5c01b0f6651" target="_top" xlink:title="parseAdditiveExpression">
<polygon fill="white" stroke="red" points="3110.5,-923.923 3110.5,-944.923 3235.5,-944.923 3235.5,-923.923 3110.5,-923.923"/>
<text text-anchor="middle" x="3173" y="-931.923" font-family="Helvetica,sans-Serif" font-size="10.00">parseAdditiveExpression</text>
</a>
</g>
<!-- Node11&#45;&gt;Node13 -->
<g id="edge32" class="edge"><title>Node11&#45;&gt;Node13</title>
<path fill="none" stroke="midnightblue" d="M3084.59,-934.423C3093.27,-934.423 3101.98,-934.423 3110.37,-934.423"/>
<polygon fill="midnightblue" stroke="midnightblue" points="3084.44,-930.923 3074.44,-934.423 3084.44,-937.923 3084.44,-930.923"/>
</g>
<!-- Node12&#45;&gt;Node4 -->
<g id="edge30" class="edge"><title>Node12&#45;&gt;Node4</title>
<path fill="none" stroke="midnightblue" d="M3357.67,-1486.42C3374.46,-1486.42 3393.9,-1486.42 3408.24,-1486.42"/>
<polygon fill="midnightblue" stroke="midnightblue" points="3357.63,-1482.92 3347.63,-1486.42 3357.63,-1489.92 3357.63,-1482.92"/>
</g>
<!-- Node13&#45;&gt;Node3 -->
<g id="edge34" class="edge"><title>Node13&#45;&gt;Node3</title>
<path fill="none" stroke="midnightblue" d="M3224.76,-918.916C3228.93,-916.234 3232.77,-913.096 3236,-909.423 3281.06,-858.191 3313.59,-634.772 3320.59,-583.112"/>
<polygon fill="midnightblue" stroke="midnightblue" points="3222.92,-915.932 3215.83,-923.803 3226.28,-922.072 3222.92,-915.932"/>
</g>
<!-- Node13&#45;&gt;Node12 -->
<g id="edge36" class="edge"><title>Node13&#45;&gt;Node12</title>
<path fill="none" stroke="midnightblue" d="M3225.77,-950.088C3229.61,-952.732 3233.1,-955.819 3236,-959.423 3303.4,-1043.22 3319.27,-1407.95 3321.65,-1475.61"/>
<polygon fill="midnightblue" stroke="midnightblue" points="3227.32,-946.945 3216.91,-944.981 3223.83,-953.009 3227.32,-946.945"/>
</g>
<!-- Node14&#45;&gt;Node3 -->
<g id="edge48" class="edge"><title>Node14&#45;&gt;Node3</title>
<path fill="none" stroke="midnightblue" d="M2330.86,-463.423C2348.78,-454.974 2372.24,-444.857 2394,-438.423 2584.23,-382.171 2635.62,-363.423 2834,-363.423 2834,-363.423 2834,-363.423 3001,-363.423 3105.99,-363.423 3150.47,-326.532 3236,-387.423 3297.17,-430.973 3316,-529.265 3320.67,-561.766"/>
<polygon fill="midnightblue" stroke="midnightblue" points="2329.02,-460.424 2321.53,-467.911 2332.06,-466.733 2329.02,-460.424"/>
</g>
<!-- Node14&#45;&gt;Node8 -->
<g id="edge62" class="edge"><title>Node14&#45;&gt;Node8</title>
<path fill="none" stroke="midnightblue" d="M2347.9,-494.161C2351.69,-496.799 2355.15,-499.864 2358,-503.423 2410.09,-568.461 2355.78,-613.377 2394,-687.423 2413.99,-726.151 2453.57,-760.356 2474.79,-776.895"/>
<polygon fill="midnightblue" stroke="midnightblue" points="2349.58,-491.087 2339.18,-489.046 2346.03,-497.125 2349.58,-491.087"/>
</g>
<!-- Node14&#45;&gt;Node12 -->
<g id="edge68" class="edge"><title>Node14&#45;&gt;Node12</title>
<path fill="none" stroke="midnightblue" d="M2325.05,-494.907C2380.84,-534.572 2519.24,-641.449 2584,-767.423 2622.7,-842.696 2561.96,-892.826 2620,-954.423 2626.06,-960.849 3229.83,-1105.11 3236,-1111.42 3289.19,-1165.91 3315.85,-1420.8 3321.05,-1475.9"/>
<polygon fill="midnightblue" stroke="midnightblue" points="2327.02,-492.015 2316.83,-489.125 2322.99,-497.741 2327.02,-492.015"/>
</g>
<!-- Node15 -->
<g id="node40" class="node"><title>Node15</title>
<a xlink:href="../../d3/d52/blanket_8js.html#ad7267f9e15c8f3c37f34200e138b8db9" target="_top" xlink:title="parseLeftHandSideExpression">
<polygon fill="white" stroke="black" points="2058.5,-508.923 2058.5,-529.923 2207.5,-529.923 2207.5,-508.923 2058.5,-508.923"/>
<text text-anchor="middle" x="2133" y="-516.923" font-family="Helvetica,sans-Serif" font-size="10.00">parseLeftHandSideExpression</text>
</a>
</g>
<!-- Node14&#45;&gt;Node15 -->
<g id="edge50" class="edge"><title>Node14&#45;&gt;Node15</title>
<path fill="none" stroke="midnightblue" d="M2267.85,-492.014C2249.52,-497.525 2226.01,-503.655 2203.76,-508.829"/>
<polygon fill="midnightblue" stroke="midnightblue" points="2268.95,-495.337 2277.46,-489.026 2266.88,-488.652 2268.95,-495.337"/>
</g>
<!-- Node14&#45;&gt;Node16 -->
<g id="edge58" class="edge"><title>Node14&#45;&gt;Node16</title>
<path fill="none" stroke="midnightblue" d="M2319.06,-460.65C2330.89,-448.509 2346.27,-431.724 2358,-415.423 2377.07,-388.936 2368.18,-371.378 2394,-351.423 2402.1,-345.167 2411.62,-340.47 2421.45,-336.945"/>
<polygon fill="midnightblue" stroke="midnightblue" points="2316.43,-458.338 2311.88,-467.907 2321.4,-463.263 2316.43,-458.338"/>
</g>
<!-- Node17 -->
<g id="node49" class="node"><title>Node17</title>
<a xlink:href="../../db/d7b/r_8js.html#a11ec19180b29a7c45621ef05b8890c30" target="_top" xlink:title="trackLeftHandSideExpression">
<polygon fill="white" stroke="black" points="2416,-447.923 2416,-468.923 2562,-468.923 2562,-447.923 2416,-447.923"/>
<text text-anchor="middle" x="2489" y="-455.923" font-family="Helvetica,sans-Serif" font-size="10.00">trackLeftHandSideExpression</text>
</a>
</g>
<!-- Node14&#45;&gt;Node17 -->
<g id="edge64" class="edge"><title>Node14&#45;&gt;Node17</title>
<path fill="none" stroke="midnightblue" d="M2366.4,-471.466C2382.32,-469.773 2399.44,-467.951 2415.7,-466.221"/>
<polygon fill="midnightblue" stroke="midnightblue" points="2365.71,-468.019 2356.14,-472.558 2366.45,-474.98 2365.71,-468.019"/>
</g>
<!-- Node15&#45;&gt;Node3 -->
<g id="edge54" class="edge"><title>Node15&#45;&gt;Node3</title>
<path fill="none" stroke="midnightblue" d="M2217.62,-519.346C2309.21,-517.51 2458.95,-509.387 2584,-478.423 2600.83,-474.257 2603.22,-467.766 2620,-463.423 2712.65,-439.445 2738.29,-439.423 2834,-439.423 2834,-439.423 2834,-439.423 3001,-439.423 3105.99,-439.423 3143.98,-412.879 3236,-463.423 3277.83,-486.401 3306.4,-539.039 3317.2,-561.712"/>
<polygon fill="midnightblue" stroke="midnightblue" points="2217.51,-515.848 2207.57,-519.527 2217.63,-522.846 2217.51,-515.848"/>
</g>
<!-- Node15&#45;&gt;Node12 -->
<g id="edge56" class="edge"><title>Node15&#45;&gt;Node12</title>
<path fill="none" stroke="midnightblue" d="M2147.43,-538.152C2184.93,-586.152 2289.8,-716.206 2394,-807.423 2471.18,-874.986 2522.15,-856.6 2584,-938.423 2614,-978.113 2587.3,-1006.93 2620,-1044.42 2811,-1263.39 3037.92,-1050.84 3236,-1263.42 3296.54,-1328.39 3315.96,-1440.57 3320.7,-1475.63"/>
<polygon fill="midnightblue" stroke="midnightblue" points="2150.13,-535.919 2141.23,-530.172 2144.6,-540.215 2150.13,-535.919"/>
</g>
<!-- Node15&#45;&gt;Node14 -->
<g id="edge52" class="edge"><title>Node15&#45;&gt;Node14</title>
<path fill="none" stroke="midnightblue" d="M2166.2,-505.816C2188.94,-498.982 2219.64,-491.2 2245.99,-485.469"/>
<polygon fill="midnightblue" stroke="midnightblue" points="2164.87,-502.565 2156.36,-508.877 2166.95,-509.249 2164.87,-502.565"/>
</g>
<!-- Node16&#45;&gt;Node3 -->
<g id="edge60" class="edge"><title>Node16&#45;&gt;Node3</title>
<path fill="none" stroke="midnightblue" d="M2593.43,-325.963C2661.85,-325.701 2753.24,-325.423 2834,-325.423 2834,-325.423 2834,-325.423 3001,-325.423 3105.99,-325.423 3152.56,-285.698 3236,-349.423 3307.23,-403.825 3319.48,-525.181 3321.57,-561.776"/>
<polygon fill="midnightblue" stroke="midnightblue" points="2593.07,-322.465 2583.08,-326.004 2593.09,-329.465 2593.07,-322.465"/>
</g>
<!-- Node17&#45;&gt;Node3 -->
<g id="edge66" class="edge"><title>Node17&#45;&gt;Node3</title>
<path fill="none" stroke="midnightblue" d="M2535.06,-445.201C2560.02,-438.447 2591.5,-430.586 2620,-425.423 2714.17,-408.361 2738.29,-401.423 2834,-401.423 2834,-401.423 2834,-401.423 3001,-401.423 3105.99,-401.423 3147.7,-368.626 3236,-425.423 3287.23,-458.374 3311.7,-533.481 3319.3,-561.562"/>
<polygon fill="midnightblue" stroke="midnightblue" points="2533.85,-441.901 2525.14,-447.92 2535.7,-448.652 2533.85,-441.901"/>
</g>
<!-- Node18&#45;&gt;Node3 -->
<g id="edge234" class="edge"><title>Node18&#45;&gt;Node3</title>
<path fill="none" stroke="midnightblue" d="M937.146,-1460.44C945.692,-1381.05 979.896,-1100.42 1042,-1040.42 1143.18,-942.673 1219.14,-1022.69 1352,-976.423 1608.6,-887.073 1643.65,-796.975 1898,-701.423 2208.2,-584.892 2296.19,-585.775 2620,-515.423 2714.4,-494.914 2737.4,-477.423 2834,-477.423 2834,-477.423 2834,-477.423 3001,-477.423 3107.18,-477.423 3136.72,-482.78 3236,-520.423 3263.41,-530.815 3291.88,-549.962 3308.22,-561.898"/>
<polygon fill="midnightblue" stroke="midnightblue" points="933.638,-1460.34 936.071,-1470.65 940.599,-1461.07 933.638,-1460.34"/>
</g>
<!-- Node18&#45;&gt;Node12 -->
<g id="edge240" class="edge"><title>Node18&#45;&gt;Node12</title>
<path fill="none" stroke="midnightblue" d="M939.213,-1501.92C952.635,-1565.29 996.208,-1756.21 1042,-1797.42 1123.27,-1870.56 1172.67,-1851.42 1282,-1851.42 1282,-1851.42 1282,-1851.42 1960,-1851.42 2031.01,-1851.42 3180.95,-1820.29 3236,-1775.42 3281.45,-1738.38 3313.21,-1544.9 3320.43,-1497.1"/>
<polygon fill="midnightblue" stroke="midnightblue" points="942.6,-1501.02 937.127,-1491.95 935.748,-1502.46 942.6,-1501.02"/>
</g>
<!-- Node19 -->
<g id="node57" class="node"><title>Node19</title>
<a xlink:href="../../d3/d52/blanket_8js.html#aeb9d0b4038ec99a33dfff443c4b35474" target="_top" xlink:title="parseCatchClause">
<polygon fill="white" stroke="black" points="1060,-1530.92 1060,-1551.92 1158,-1551.92 1158,-1530.92 1060,-1530.92"/>
<text text-anchor="middle" x="1109" y="-1538.92" font-family="Helvetica,sans-Serif" font-size="10.00">parseCatchClause</text>
</a>
</g>
<!-- Node18&#45;&gt;Node19 -->
<g id="edge76" class="edge"><title>Node18&#45;&gt;Node19</title>
<path fill="none" stroke="midnightblue" d="M970.986,-1495.57C991.644,-1503.52 1018.14,-1513.41 1042,-1521.42 1051.67,-1524.67 1062.2,-1527.94 1072,-1530.87"/>
<polygon fill="midnightblue" stroke="midnightblue" points="972.234,-1492.3 961.645,-1491.96 969.709,-1498.83 972.234,-1492.3"/>
</g>
<!-- Node20 -->
<g id="node59" class="node"><title>Node20</title>
<a xlink:href="../../d3/d52/blanket_8js.html#aaa0453fb1925f4a1566c2d80ca795f6e" target="_top" xlink:title="parseComputedMember">
<polygon fill="white" stroke="black" points="1899.5,-467.923 1899.5,-488.923 2020.5,-488.923 2020.5,-467.923 1899.5,-467.923"/>
<text text-anchor="middle" x="1960" y="-475.923" font-family="Helvetica,sans-Serif" font-size="10.00">parseComputedMember</text>
</a>
</g>
<!-- Node18&#45;&gt;Node20 -->
<g id="edge78" class="edge"><title>Node18&#45;&gt;Node20</title>
<path fill="none" stroke="midnightblue" d="M937.431,-1460.75C954.841,-1317.41 1066.08,-477.423 1282,-477.423 1282,-477.423 1282,-477.423 1623,-477.423 1719.68,-477.423 1831.97,-477.84 1899.43,-478.135"/>
<polygon fill="midnightblue" stroke="midnightblue" points="933.938,-1460.48 936.223,-1470.83 940.888,-1461.31 933.938,-1460.48"/>
</g>
<!-- Node21 -->
<g id="node67" class="node"><title>Node21</title>
<a xlink:href="../../d3/d52/blanket_8js.html#a4739f761ecb9f42e6234ec35d8a24c6f" target="_top" xlink:title="parseDoWhileStatement">
<polygon fill="white" stroke="black" points="1388.5,-1723.92 1388.5,-1744.92 1511.5,-1744.92 1511.5,-1723.92 1388.5,-1723.92"/>
<text text-anchor="middle" x="1450" y="-1731.92" font-family="Helvetica,sans-Serif" font-size="10.00">parseDoWhileStatement</text>
</a>
</g>
<!-- Node18&#45;&gt;Node21 -->
<g id="edge92" class="edge"><title>Node18&#45;&gt;Node21</title>
<path fill="none" stroke="midnightblue" d="M939.863,-1501.97C950.65,-1542.72 980.624,-1633.71 1042,-1678.42 1145.01,-1753.47 1302.37,-1751.16 1388.46,-1742.83"/>
<polygon fill="midnightblue" stroke="midnightblue" points="943.213,-1500.94 937.371,-1492.1 936.427,-1502.65 943.213,-1500.94"/>
</g>
<!-- Node22 -->
<g id="node69" class="node"><title>Node22</title>
<a xlink:href="../../db/d7b/r_8js.html#a62adfe89743d49ea654466e55ae6232f" target="_top" xlink:title="parseStatement">
<polygon fill="white" stroke="black" points="1239,-1509.92 1239,-1530.92 1325,-1530.92 1325,-1509.92 1239,-1509.92"/>
<text text-anchor="middle" x="1282" y="-1517.92" font-family="Helvetica,sans-Serif" font-size="10.00">parseStatement</text>
</a>
</g>
<!-- Node18&#45;&gt;Node22 -->
<g id="edge220" class="edge"><title>Node18&#45;&gt;Node22</title>
<path fill="none" stroke="midnightblue" d="M951.789,-1499.59C971.274,-1519.2 1005.44,-1549.27 1042,-1561.42 1098.51,-1580.21 1117.46,-1572.35 1176,-1561.42 1207.03,-1555.63 1240.68,-1541.06 1261.55,-1530.95"/>
<polygon fill="midnightblue" stroke="midnightblue" points="954.068,-1496.91 944.603,-1492.15 949.034,-1501.78 954.068,-1496.91"/>
</g>
<!-- Node23 -->
<g id="node72" class="node"><title>Node23</title>
<a xlink:href="../../d3/d52/blanket_8js.html#a07a06da7aef4530fe47e1a5ab71b04bc" target="_top" xlink:title="parseForStatement">
<polygon fill="white" stroke="black" points="1400,-1333.92 1400,-1354.92 1500,-1354.92 1500,-1333.92 1400,-1333.92"/>
<text text-anchor="middle" x="1450" y="-1341.92" font-family="Helvetica,sans-Serif" font-size="10.00">parseForStatement</text>
</a>
</g>
<!-- Node18&#45;&gt;Node23 -->
<g id="edge204" class="edge"><title>Node18&#45;&gt;Node23</title>
<path fill="none" stroke="midnightblue" d="M950.905,-1463.46C970.22,-1442.96 1004.85,-1410.23 1042,-1394.42 1162.66,-1343.08 1320.31,-1339.68 1399.68,-1341.85"/>
<polygon fill="midnightblue" stroke="midnightblue" points="948.247,-1461.18 944.053,-1470.91 953.399,-1465.92 948.247,-1461.18"/>
</g>
<!-- Node24 -->
<g id="node75" class="node"><title>Node24</title>
<a xlink:href="../../d3/d52/blanket_8js.html#ab95c5ac24cc7e6e98b77e7734af06692" target="_top" xlink:title="parseIfStatement">
<polygon fill="white" stroke="black" points="1404,-1683.92 1404,-1704.92 1496,-1704.92 1496,-1683.92 1404,-1683.92"/>
<text text-anchor="middle" x="1450" y="-1691.92" font-family="Helvetica,sans-Serif" font-size="10.00">parseIfStatement</text>
</a>
</g>
<!-- Node18&#45;&gt;Node24 -->
<g id="edge214" class="edge"><title>Node18&#45;&gt;Node24</title>
<path fill="none" stroke="midnightblue" d="M942.323,-1501.72C955.994,-1536.41 988.918,-1606.53 1042,-1639.42 1156.52,-1710.39 1323.6,-1706.67 1403.75,-1699.77"/>
<polygon fill="midnightblue" stroke="midnightblue" points="945.519,-1500.28 938.697,-1492.18 938.975,-1502.77 945.519,-1500.28"/>
</g>
<!-- Node37 -->
<g id="node126" class="node"><title>Node37</title>
<a xlink:href="../../d3/d52/blanket_8js.html#a5dc09ab3f61dde211ca1a3b90d891fe8" target="_top" xlink:title="parseSwitchCase">
<polygon fill="white" stroke="black" points="1403,-1451.92 1403,-1472.92 1497,-1472.92 1497,-1451.92 1403,-1451.92"/>
<text text-anchor="middle" x="1450" y="-1459.92" font-family="Helvetica,sans-Serif" font-size="10.00">parseSwitchCase</text>
</a>
</g>
<!-- Node18&#45;&gt;Node37 -->
<g id="edge222" class="edge"><title>Node18&#45;&gt;Node37</title>
<path fill="none" stroke="midnightblue" d="M965.812,-1466.54C986.752,-1457.28 1015.38,-1446.24 1042,-1441.42 1170.95,-1418.11 1326.27,-1439.38 1402.74,-1453.03"/>
<polygon fill="midnightblue" stroke="midnightblue" points="964.139,-1463.46 956.48,-1470.78 967.032,-1469.83 964.139,-1463.46"/>
</g>
<!-- Node38 -->
<g id="node130" class="node"><title>Node38</title>
<a xlink:href="../../db/d7b/r_8js.html#a146bde02681c612af3f8e87db808b799" target="_top" xlink:title="parseSwitchStatement">
<polygon fill="white" stroke="black" points="1565,-1725.92 1565,-1746.92 1681,-1746.92 1681,-1725.92 1565,-1725.92"/>
<text text-anchor="middle" x="1623" y="-1733.92" font-family="Helvetica,sans-Serif" font-size="10.00">parseSwitchStatement</text>
</a>
</g>
<!-- Node18&#45;&gt;Node38 -->
<g id="edge224" class="edge"><title>Node18&#45;&gt;Node38</title>
<path fill="none" stroke="midnightblue" d="M936.442,-1502.06C941.238,-1554.13 961.311,-1691.67 1042,-1761.42 1121.21,-1829.9 1410.72,-1820.97 1512,-1794.42 1549.02,-1784.72 1587.6,-1760.94 1608.1,-1747.03"/>
<polygon fill="midnightblue" stroke="midnightblue" points="939.925,-1501.71 935.615,-1492.04 932.949,-1502.29 939.925,-1501.71"/>
</g>
<!-- Node39 -->
<g id="node133" class="node"><title>Node39</title>
<a xlink:href="../../d3/d52/blanket_8js.html#a8ae43c12c9e9a63d7e6fe7a0ef681e17" target="_top" xlink:title="parseWhileStatement">
<polygon fill="white" stroke="black" points="1395,-1373.92 1395,-1394.92 1505,-1394.92 1505,-1373.92 1395,-1373.92"/>
<text text-anchor="middle" x="1450" y="-1381.92" font-family="Helvetica,sans-Serif" font-size="10.00">parseWhileStatement</text>
</a>
</g>
<!-- Node18&#45;&gt;Node39 -->
<g id="edge230" class="edge"><title>Node18&#45;&gt;Node39</title>
<path fill="none" stroke="midnightblue" d="M959.467,-1465.49C980.465,-1452.65 1012,-1435.33 1042,-1426.42 1164.36,-1390.08 1315.4,-1384.04 1394.97,-1383.69"/>
<polygon fill="midnightblue" stroke="midnightblue" points="957.507,-1462.58 950.877,-1470.85 961.214,-1468.52 957.507,-1462.58"/>
</g>
<!-- Node40 -->
<g id="node136" class="node"><title>Node40</title>
<a xlink:href="../../d3/d52/blanket_8js.html#ac14803936ed02bddcea9ebd93a86a0eb" target="_top" xlink:title="parseWithStatement">
<polygon fill="white" stroke="black" points="1397,-1763.92 1397,-1784.92 1503,-1784.92 1503,-1763.92 1397,-1763.92"/>
<text text-anchor="middle" x="1450" y="-1771.92" font-family="Helvetica,sans-Serif" font-size="10.00">parseWithStatement</text>
</a>
</g>
<!-- Node18&#45;&gt;Node40 -->
<g id="edge232" class="edge"><title>Node18&#45;&gt;Node40</title>
<path fill="none" stroke="midnightblue" d="M937.916,-1502.14C945.642,-1548.83 971.134,-1662.62 1042,-1719.42 1145.04,-1802.01 1311.85,-1794.04 1396.72,-1783.21"/>
<polygon fill="midnightblue" stroke="midnightblue" points="941.34,-1501.38 936.352,-1492.03 934.422,-1502.45 941.34,-1501.38"/>
</g>
<!-- Node41 -->
<g id="node141" class="node"><title>Node41</title>
<a xlink:href="../../d3/d52/blanket_8js.html#a1f9f27ca61731b2ecbd7691cfb160e9e" target="_top" xlink:title="parseExpressionStatement">
<polygon fill="white" stroke="black" points="1042,-1490.92 1042,-1511.92 1176,-1511.92 1176,-1490.92 1042,-1490.92"/>
<text text-anchor="middle" x="1109" y="-1498.92" font-family="Helvetica,sans-Serif" font-size="10.00">parseExpressionStatement</text>
</a>
</g>
<!-- Node18&#45;&gt;Node41 -->
<g id="edge200" class="edge"><title>Node18&#45;&gt;Node41</title>
<path fill="none" stroke="midnightblue" d="M989.801,-1487.72C1006.26,-1489.61 1024.51,-1491.71 1041.68,-1493.69"/>
<polygon fill="midnightblue" stroke="midnightblue" points="990.144,-1484.24 979.809,-1486.57 989.344,-1491.19 990.144,-1484.24"/>
</g>
<!-- Node42 -->
<g id="node145" class="node"><title>Node42</title>
<a xlink:href="../../d3/d52/blanket_8js.html#a6a4edd36ce21dbafc8996a3dff3759dd" target="_top" xlink:title="parseGroupExpression">
<polygon fill="white" stroke="black" points="1740,-873.923 1740,-894.923 1856,-894.923 1856,-873.923 1740,-873.923"/>
<text text-anchor="middle" x="1798" y="-881.923" font-family="Helvetica,sans-Serif" font-size="10.00">parseGroupExpression</text>
</a>
</g>
<!-- Node18&#45;&gt;Node42 -->
<g id="edge206" class="edge"><title>Node18&#45;&gt;Node42</title>
<path fill="none" stroke="midnightblue" d="M938.388,-1460.46C950.026,-1391.06 990.505,-1170.46 1042,-1123.42 1261.65,-922.787 1437.97,-1134.94 1698,-990.423 1741.34,-966.334 1776.94,-916.996 1791.24,-895.192"/>
<polygon fill="midnightblue" stroke="midnightblue" points="934.891,-1460.16 936.715,-1470.59 941.798,-1461.3 934.891,-1460.16"/>
</g>
<!-- Node43 -->
<g id="node151" class="node"><title>Node43</title>
<a xlink:href="../../d3/d52/blanket_8js.html#aa385122fdd11e44a81b355661fb20dd4" target="_top" xlink:title="parseReturnStatement">
<polygon fill="white" stroke="black" points="1051.5,-1450.92 1051.5,-1471.92 1166.5,-1471.92 1166.5,-1450.92 1051.5,-1450.92"/>
<text text-anchor="middle" x="1109" y="-1458.92" font-family="Helvetica,sans-Serif" font-size="10.00">parseReturnStatement</text>
</a>
</g>
<!-- Node18&#45;&gt;Node43 -->
<g id="edge216" class="edge"><title>Node18&#45;&gt;Node43</title>
<path fill="none" stroke="midnightblue" d="M989.776,-1475.13C1009.32,-1472.88 1031.4,-1470.34 1051.2,-1468.07"/>
<polygon fill="midnightblue" stroke="midnightblue" points="989.344,-1471.65 979.809,-1476.27 990.144,-1478.61 989.344,-1471.65"/>
</g>
<!-- Node44 -->
<g id="node157" class="node"><title>Node44</title>
<a xlink:href="../../db/d7b/r_8js.html#a3b3182e65de7acec03619a7c3db10477" target="_top" xlink:title="parseThrowStatement">
<polygon fill="white" stroke="black" points="1052.5,-1608.92 1052.5,-1629.92 1165.5,-1629.92 1165.5,-1608.92 1052.5,-1608.92"/>
<text text-anchor="middle" x="1109" y="-1616.92" font-family="Helvetica,sans-Serif" font-size="10.00">parseThrowStatement</text>
</a>
</g>
<!-- Node18&#45;&gt;Node44 -->
<g id="edge226" class="edge"><title>Node18&#45;&gt;Node44</title>
<path fill="none" stroke="midnightblue" d="M948.374,-1500.17C966.869,-1524.88 1002.48,-1568.25 1042,-1594.42 1051.01,-1600.39 1061.63,-1605.18 1071.73,-1608.92"/>
<polygon fill="midnightblue" stroke="midnightblue" points="951.099,-1497.97 942.359,-1491.98 945.457,-1502.11 951.099,-1497.97"/>
</g>
<!-- Node45 -->
<g id="node163" class="node"><title>Node45</title>
<a xlink:href="../../db/d7b/r_8js.html#a62ed1e2ea92af56635abd07176d4248b" target="_top" xlink:title="trackGroupExpression">
<polygon fill="white" stroke="black" points="2777.5,-657.923 2777.5,-678.923 2890.5,-678.923 2890.5,-657.923 2777.5,-657.923"/>
<text text-anchor="middle" x="2834" y="-665.923" font-family="Helvetica,sans-Serif" font-size="10.00">trackGroupExpression</text>
</a>
</g>
<!-- Node18&#45;&gt;Node45 -->
<g id="edge236" class="edge"><title>Node18&#45;&gt;Node45</title>
<path fill="none" stroke="midnightblue" d="M947.631,-1462C965.951,-1434.92 1002.1,-1385.45 1042,-1352.42 1254.11,-1176.87 1347.66,-1137.42 1623,-1137.42 1623,-1137.42 1623,-1137.42 1960,-1137.42 2262.54,-1137.42 2322.87,-1018.19 2584,-865.423 2659.04,-821.526 2678.65,-809.021 2740,-747.423 2758.82,-728.529 2755.76,-716.787 2776,-699.423 2785.62,-691.171 2797.8,-684.247 2808.51,-679.051"/>
<polygon fill="midnightblue" stroke="midnightblue" points="944.547,-1460.31 941.917,-1470.58 950.373,-1464.19 944.547,-1460.31"/>
</g>
<!-- Node20&#45;&gt;Node3 -->
<g id="edge84" class="edge"><title>Node20&#45;&gt;Node3</title>
<path fill="none" stroke="midnightblue" d="M1964.65,-457.66C1974.46,-419.356 2001.17,-338.224 2058,-302.423 2149.55,-244.745 2192.79,-287.423 2301,-287.423 2301,-287.423 2301,-287.423 3001,-287.423 3105.86,-287.423 3153.97,-243.101 3236,-308.423 3277.95,-341.83 3311.94,-516.593 3320.12,-561.76"/>
<polygon fill="midnightblue" stroke="midnightblue" points="1961.18,-457.124 1962.23,-467.667 1967.99,-458.77 1961.18,-457.124"/>
</g>
<!-- Node20&#45;&gt;Node8 -->
<g id="edge82" class="edge"><title>Node20&#45;&gt;Node8</title>
<path fill="none" stroke="midnightblue" d="M1985.22,-494.456C2004.93,-506.902 2033.06,-524.494 2058,-539.423 2215.77,-633.877 2409.37,-742.838 2469.96,-776.778"/>
<polygon fill="midnightblue" stroke="midnightblue" points="1986.86,-491.352 1976.54,-488.961 1983.12,-497.267 1986.86,-491.352"/>
</g>
<!-- Node20&#45;&gt;Node12 -->
<g id="edge90" class="edge"><title>Node20&#45;&gt;Node12</title>
<path fill="none" stroke="midnightblue" d="M1974.4,-497.443C1992.78,-521.274 2026.04,-562.928 2058,-595.423 2196.53,-736.262 2228.78,-778.125 2394,-886.423 2472.31,-937.751 2523.44,-906.013 2584,-977.423 2621.12,-1021.19 2581.41,-1058.95 2620,-1101.42 2670.17,-1156.64 2704.51,-1142.08 2776,-1163.42 2905.54,-1202.09 2944.73,-1184.85 3074,-1224.42 3111.25,-1235.83 3208.14,-1264.2 3236,-1291.42 3291.84,-1345.98 3314.05,-1443.08 3320.14,-1475.52"/>
<polygon fill="midnightblue" stroke="midnightblue" points="1976.98,-495.051 1968.12,-489.239 1971.42,-499.306 1976.98,-495.051"/>
</g>
<!-- Node20&#45;&gt;Node15 -->
<g id="edge80" class="edge"><title>Node20&#45;&gt;Node15</title>
<path fill="none" stroke="midnightblue" d="M2014.52,-491.344C2038.38,-496.999 2066.02,-503.55 2088.6,-508.901"/>
<polygon fill="midnightblue" stroke="midnightblue" points="2015.09,-487.882 2004.55,-488.982 2013.48,-494.694 2015.09,-487.882"/>
</g>
<!-- Node20&#45;&gt;Node16 -->
<g id="edge88" class="edge"><title>Node20&#45;&gt;Node16</title>
<path fill="none" stroke="midnightblue" d="M1968.59,-458.123C1982.46,-428.231 2012.87,-373.334 2058,-349.423 2180.83,-284.348 2351.95,-301.504 2436.89,-315.889"/>
<polygon fill="midnightblue" stroke="midnightblue" points="1965.25,-457.004 1964.37,-467.562 1971.65,-459.857 1965.25,-457.004"/>
</g>
<!-- Node20&#45;&gt;Node17 -->
<g id="edge86" class="edge"><title>Node20&#45;&gt;Node17</title>
<path fill="none" stroke="midnightblue" d="M2012.12,-465.761C2026.86,-462.734 2042.98,-459.94 2058,-458.423 2183.26,-445.772 2330.04,-449.75 2415.95,-453.964"/>
<polygon fill="midnightblue" stroke="midnightblue" points="2011.21,-462.375 2002.16,-467.882 2012.67,-469.221 2011.21,-462.375"/>
</g>
<!-- Node21&#45;&gt;Node22 -->
<g id="edge94" class="edge"><title>Node21&#45;&gt;Node22</title>
<path fill="none" stroke="midnightblue" d="M1381,-1717.27C1320.53,-1661.52 1291.13,-1563.68 1283.84,-1530.95"/>
<polygon fill="midnightblue" stroke="midnightblue" points="1378.69,-1719.91 1388.53,-1723.85 1383.3,-1714.64 1378.69,-1719.91"/>
</g>
<!-- Node22&#45;&gt;Node3 -->
<g id="edge196" class="edge"><title>Node22&#45;&gt;Node3</title>
<path fill="none" stroke="midnightblue" d="M1283.93,-1499.56C1289.78,-1448.64 1311.84,-1317.02 1388,-1246.42 1468.02,-1172.25 1513.89,-1175.42 1623,-1175.42 1623,-1175.42 1623,-1175.42 1798,-1175.42 2148.6,-1175.42 2249.75,-1214.23 2584,-1108.42 2660.53,-1084.2 2691.87,-1081.66 2740,-1017.42 2779.82,-964.284 2729.9,-920.215 2776,-872.423 2849.83,-795.879 3153.88,-807.999 3236,-740.423 3288.88,-696.909 3312.74,-612.47 3319.72,-582.932"/>
<polygon fill="midnightblue" stroke="midnightblue" points="1280.43,-1499.35 1282.87,-1509.67 1287.4,-1500.09 1280.43,-1499.35"/>
</g>
<!-- Node22&#45;&gt;Node12 -->
<g id="edge198" class="edge"><title>Node22&#45;&gt;Node12</title>
<path fill="none" stroke="midnightblue" d="M1301.57,-1537.65C1321.98,-1554.92 1355.47,-1581.32 1388,-1598.42 1439.63,-1625.57 1471.39,-1599.55 1512,-1641.42 1549.29,-1679.87 1506.08,-1723.1 1548,-1756.42 1635.23,-1825.76 1686.57,-1775.42 1798,-1775.42 1798,-1775.42 1798,-1775.42 3001,-1775.42 3106.6,-1775.42 3154.97,-1808.13 3236,-1740.42 3275.57,-1707.36 3311.05,-1541.36 3319.89,-1497.22"/>
<polygon fill="midnightblue" stroke="midnightblue" points="1303.78,-1534.94 1293.91,-1531.09 1299.22,-1540.25 1303.78,-1534.94"/>
</g>
<!-- Node22&#45;&gt;Node21 -->
<g id="edge96" class="edge"><title>Node22&#45;&gt;Node21</title>
<path fill="none" stroke="midnightblue" d="M1289.2,-1540.52C1302.12,-1578.51 1333.14,-1660.02 1388,-1705.42 1399.59,-1715.01 1415.87,-1720.04 1428.84,-1723.91"/>
<polygon fill="midnightblue" stroke="midnightblue" points="1292.52,-1539.4 1286.03,-1531.03 1285.88,-1541.62 1292.52,-1539.4"/>
</g>
<!-- Node22&#45;&gt;Node23 -->
<g id="edge98" class="edge"><title>Node22&#45;&gt;Node23</title>
<path fill="none" stroke="midnightblue" d="M1288.33,-1499.98C1301.88,-1464.72 1336.7,-1393.86 1388,-1355.42 1391.62,-1352.71 1395.62,-1350.36 1399.8,-1348.35"/>
<polygon fill="midnightblue" stroke="midnightblue" points="1284.92,-1499.11 1284.81,-1509.7 1291.5,-1501.49 1284.92,-1499.11"/>
</g>
<!-- Node22&#45;&gt;Node24 -->
<g id="edge102" class="edge"><title>Node22&#45;&gt;Node24</title>
<path fill="none" stroke="midnightblue" d="M1294.49,-1540.1C1311.48,-1570.06 1344.78,-1626.33 1388,-1660.42 1402.03,-1671.49 1421.62,-1678.29 1435,-1683.91"/>
<polygon fill="midnightblue" stroke="midnightblue" points="1297.32,-1538 1289.36,-1531.02 1291.23,-1541.44 1297.32,-1538"/>
</g>
<!-- Node25 -->
<g id="node78" class="node"><title>Node25</title>
<a xlink:href="../../db/d7b/r_8js.html#aad27e4b4ae330a680c931e04c5323f56" target="_top" xlink:title="parseSourceElement">
<polygon fill="white" stroke="black" points="1396.5,-1255.92 1396.5,-1276.92 1503.5,-1276.92 1503.5,-1255.92 1396.5,-1255.92"/>
<text text-anchor="middle" x="1450" y="-1263.92" font-family="Helvetica,sans-Serif" font-size="10.00">parseSourceElement</text>
</a>
</g>
<!-- Node22&#45;&gt;Node25 -->
<g id="edge106" class="edge"><title>Node22&#45;&gt;Node25</title>
<path fill="none" stroke="midnightblue" d="M1290.29,-1500.27C1306.06,-1463.27 1342.85,-1382.93 1388,-1324.42 1402.32,-1305.87 1422.77,-1287.99 1436.21,-1277.1"/>
<polygon fill="midnightblue" stroke="midnightblue" points="1287.06,-1498.93 1286.41,-1509.5 1293.51,-1501.64 1287.06,-1498.93"/>
</g>
<!-- Node36 -->
<g id="node124" class="node"><title>Node36</title>
<a xlink:href="../../d3/d52/blanket_8js.html#a62adfe89743d49ea654466e55ae6232f" target="_top" xlink:title="parseStatement">
<polygon fill="white" stroke="black" points="1407,-1567.92 1407,-1588.92 1493,-1588.92 1493,-1567.92 1407,-1567.92"/>
<text text-anchor="middle" x="1450" y="-1575.92" font-family="Helvetica,sans-Serif" font-size="10.00">parseStatement</text>
</a>
</g>
<!-- Node22&#45;&gt;Node36 -->
<g id="edge176" class="edge"><title>Node22&#45;&gt;Node36</title>
<path fill="none" stroke="midnightblue" d="M1322.13,-1534.28C1352.03,-1544.6 1392.23,-1558.48 1419.52,-1567.9"/>
<polygon fill="midnightblue" stroke="midnightblue" points="1323.02,-1530.88 1312.42,-1530.93 1320.73,-1537.5 1323.02,-1530.88"/>
</g>
<!-- Node22&#45;&gt;Node37 -->
<g id="edge178" class="edge"><title>Node22&#45;&gt;Node37</title>
<path fill="none" stroke="midnightblue" d="M1322.13,-1506.57C1352.03,-1496.25 1392.23,-1482.37 1419.52,-1472.95"/>
<polygon fill="midnightblue" stroke="midnightblue" points="1320.73,-1503.35 1312.42,-1509.92 1323.02,-1509.96 1320.73,-1503.35"/>
</g>
<!-- Node22&#45;&gt;Node39 -->
<g id="edge188" class="edge"><title>Node22&#45;&gt;Node39</title>
<path fill="none" stroke="midnightblue" d="M1292.2,-1500.82C1309.55,-1474.3 1346.95,-1428.26 1388,-1400.42 1390.79,-1398.53 1393.74,-1396.75 1396.78,-1395.09"/>
<polygon fill="midnightblue" stroke="midnightblue" points="1289.03,-1499.29 1286.75,-1509.63 1294.98,-1502.97 1289.03,-1499.29"/>
</g>
<!-- Node22&#45;&gt;Node40 -->
<g id="edge192" class="edge"><title>Node22&#45;&gt;Node40</title>
<path fill="none" stroke="midnightblue" d="M1286.55,-1540.95C1296.37,-1585.06 1324.05,-1688.34 1388,-1745.42 1398.88,-1755.14 1414.54,-1760.14 1427.4,-1763.87"/>
<polygon fill="midnightblue" stroke="midnightblue" points="1289.95,-1540.11 1284.43,-1531.07 1283.11,-1541.58 1289.95,-1540.11"/>
</g>
<!-- Node23&#45;&gt;Node22 -->
<g id="edge100" class="edge"><title>Node23&#45;&gt;Node22</title>
<path fill="none" stroke="midnightblue" d="M1420.62,-1358.05C1409.62,-1361.67 1397.49,-1366.31 1388,-1373.42 1336.9,-1411.71 1302.15,-1482.18 1288.48,-1509.62"/>
<polygon fill="midnightblue" stroke="midnightblue" points="1421.83,-1361.33 1430.3,-1354.97 1419.71,-1354.66 1421.83,-1361.33"/>
</g>
<!-- Node24&#45;&gt;Node22 -->
<g id="edge104" class="edge"><title>Node24&#45;&gt;Node22</title>
<path fill="none" stroke="midnightblue" d="M1395.18,-1683.44C1392.67,-1681.88 1390.26,-1680.21 1388,-1678.42 1334.41,-1636.15 1296.07,-1559.79 1285.16,-1531.08"/>
<polygon fill="midnightblue" stroke="midnightblue" points="1393.54,-1686.54 1403.98,-1688.3 1396.92,-1680.41 1393.54,-1686.54"/>
</g>
<!-- Node26 -->
<g id="node80" class="node"><title>Node26</title>
<a xlink:href="../../db/d7b/r_8js.html#a1f1d5e319d9aa434b86d5106f42fc0cb" target="_top" xlink:title="parseFunctionSourceElements">
<polygon fill="white" stroke="black" points="1548,-1255.92 1548,-1276.92 1698,-1276.92 1698,-1255.92 1548,-1255.92"/>
<text text-anchor="middle" x="1623" y="-1263.92" font-family="Helvetica,sans-Serif" font-size="10.00">parseFunctionSourceElements</text>
</a>
</g>
<!-- Node25&#45;&gt;Node26 -->
<g id="edge108" class="edge"><title>Node25&#45;&gt;Node26</title>
<path fill="none" stroke="midnightblue" d="M1513.82,-1266.42C1524.93,-1266.42 1536.58,-1266.42 1547.96,-1266.42"/>
<polygon fill="midnightblue" stroke="midnightblue" points="1513.79,-1262.92 1503.79,-1266.42 1513.79,-1269.92 1513.79,-1262.92"/>
</g>
<!-- Node30 -->
<g id="node102" class="node"><title>Node30</title>
<a xlink:href="../../db/d7b/r_8js.html#a505a7bb7bf62010ed273bf23bd47a3b7" target="_top" xlink:title="parseSourceElements">
<polygon fill="white" stroke="black" points="2244.5,-1528.92 2244.5,-1549.92 2357.5,-1549.92 2357.5,-1528.92 2244.5,-1528.92"/>
<text text-anchor="middle" x="2301" y="-1536.92" font-family="Helvetica,sans-Serif" font-size="10.00">parseSourceElements</text>
</a>
</g>
<!-- Node25&#45;&gt;Node30 -->
<g id="edge144" class="edge"><title>Node25&#45;&gt;Node30</title>
<path fill="none" stroke="midnightblue" d="M1491.96,-1280.94C1498.86,-1284 1505.79,-1287.51 1512,-1291.42 1530.36,-1303 1529.19,-1313.59 1548,-1324.42 1608.53,-1359.31 1637.99,-1335.66 1698,-1371.42 1717.17,-1382.85 1714.43,-1395.71 1734,-1406.42 1779.56,-1431.37 2117.34,-1501.97 2248.83,-1528.85"/>
<polygon fill="midnightblue" stroke="midnightblue" points="1493.19,-1277.66 1482.61,-1277.05 1490.5,-1284.12 1493.19,-1277.66"/>
</g>
<!-- Node32 -->
<g id="node109" class="node"><title>Node32</title>
<a xlink:href="../../d3/d52/blanket_8js.html#a253d6f02434542babebca9e1a6e0a330" target="_top" xlink:title="parseStatementList">
<polygon fill="white" stroke="black" points="2629.5,-1609.92 2629.5,-1630.92 2730.5,-1630.92 2730.5,-1609.92 2629.5,-1609.92"/>
<text text-anchor="middle" x="2680" y="-1617.92" font-family="Helvetica,sans-Serif" font-size="10.00">parseStatementList</text>
</a>
</g>
<!-- Node25&#45;&gt;Node32 -->
<g id="edge154" class="edge"><title>Node25&#45;&gt;Node32</title>
<path fill="none" stroke="midnightblue" d="M1469.07,-1283.83C1481.44,-1295.23 1497.84,-1310.54 1512,-1324.42 1528.38,-1340.49 1529.86,-1347.37 1548,-1361.42 1689.63,-1471.15 1727.14,-1507.51 1898,-1561.42 2162.87,-1645.01 2502.18,-1632.85 2629.1,-1624.46"/>
<polygon fill="midnightblue" stroke="midnightblue" points="1471.31,-1281.14 1461.58,-1276.95 1466.58,-1286.3 1471.31,-1281.14"/>
</g>
<!-- Node26&#45;&gt;Node3 -->
<g id="edge140" class="edge"><title>Node26&#45;&gt;Node3</title>
<path fill="none" stroke="midnightblue" d="M1654.75,-1251.38C1818.59,-1173.73 2561.68,-821.371 2584,-807.423 2659.11,-760.482 2673.5,-741.921 2740,-683.423 2756.76,-668.684 2755.81,-657.924 2776,-648.423 2869.04,-604.646 3135.24,-618.945 3236,-598.423 3258.77,-593.785 3284.17,-585.738 3301.42,-579.822"/>
<polygon fill="midnightblue" stroke="midnightblue" points="1652.77,-1248.44 1645.23,-1255.89 1655.77,-1254.77 1652.77,-1248.44"/>
</g>
<!-- Node26&#45;&gt;Node12 -->
<g id="edge142" class="edge"><title>Node26&#45;&gt;Node12</title>
<path fill="none" stroke="midnightblue" d="M1682.22,-1279.03C1889.98,-1323.07 2578.69,-1467.42 2680,-1467.42 2680,-1467.42 2680,-1467.42 2834,-1467.42 2956.8,-1467.42 2987.28,-1475.8 3110,-1480.42 3177.15,-1482.95 3256.3,-1484.93 3296.21,-1485.85"/>
<polygon fill="midnightblue" stroke="midnightblue" points="1682.91,-1275.6 1672.4,-1276.95 1681.46,-1282.45 1682.91,-1275.6"/>
</g>
<!-- Node27 -->
<g id="node82" class="node"><title>Node27</title>
<a xlink:href="../../db/d7b/r_8js.html#a16cc31d0fa943031ec0447d62f3e7213" target="_top" xlink:title="parseFunctionDeclaration">
<polygon fill="white" stroke="black" points="1734,-1375.92 1734,-1396.92 1862,-1396.92 1862,-1375.92 1734,-1375.92"/>
<text text-anchor="middle" x="1798" y="-1383.92" font-family="Helvetica,sans-Serif" font-size="10.00">parseFunctionDeclaration</text>
</a>
</g>
<!-- Node26&#45;&gt;Node27 -->
<g id="edge110" class="edge"><title>Node26&#45;&gt;Node27</title>
<path fill="none" stroke="midnightblue" d="M1678.73,-1281.12C1685.68,-1284.45 1692.32,-1288.5 1698,-1293.42 1723.83,-1315.84 1708.48,-1338.67 1734,-1361.42 1740.86,-1367.54 1749.38,-1372.23 1757.94,-1375.81"/>
<polygon fill="midnightblue" stroke="midnightblue" points="1679.71,-1277.73 1669.14,-1277.02 1676.96,-1284.17 1679.71,-1277.73"/>
</g>
<!-- Node28 -->
<g id="node88" class="node"><title>Node28</title>
<a xlink:href="../../db/d7b/r_8js.html#a4bd46aa1c20442b3dba2e0092ea30734" target="_top" xlink:title="parseFunctionExpression">
<polygon fill="white" stroke="black" points="1734.5,-1244.92 1734.5,-1265.92 1861.5,-1265.92 1861.5,-1244.92 1734.5,-1244.92"/>
<text text-anchor="middle" x="1798" y="-1252.92" font-family="Helvetica,sans-Serif" font-size="10.00">parseFunctionExpression</text>
</a>
</g>
<!-- Node26&#45;&gt;Node28 -->
<g id="edge120" class="edge"><title>Node26&#45;&gt;Node28</title>
<path fill="none" stroke="midnightblue" d="M1708.45,-1261.05C1717.18,-1260.5 1725.94,-1259.95 1734.37,-1259.42"/>
<polygon fill="midnightblue" stroke="midnightblue" points="1707.99,-1257.57 1698.23,-1261.69 1708.43,-1264.56 1707.99,-1257.57"/>
</g>
<!-- Node27&#45;&gt;Node3 -->
<g id="edge116" class="edge"><title>Node27&#45;&gt;Node3</title>
<path fill="none" stroke="midnightblue" d="M1865.43,-1374.03C2002.49,-1348.09 2322.75,-1283.59 2584,-1201.42 2655.17,-1179.04 2693.34,-1197.64 2740,-1139.42 2803.33,-1060.4 2707.85,-989.335 2776,-914.423 2811.53,-875.371 3196.59,-830.548 3236,-795.423 3302.76,-735.929 3318.06,-618.576 3321.24,-582.934"/>
<polygon fill="midnightblue" stroke="midnightblue" points="1864.67,-1370.61 1855.49,-1375.91 1865.97,-1377.49 1864.67,-1370.61"/>
</g>
<!-- Node27&#45;&gt;Node12 -->
<g id="edge118" class="edge"><title>Node27&#45;&gt;Node12</title>
<path fill="none" stroke="midnightblue" d="M1853.58,-1399.2C1992.24,-1429.93 2364.95,-1505.42 2680,-1505.42 2680,-1505.42 2680,-1505.42 2834,-1505.42 3012.77,-1505.42 3060.29,-1552.39 3236,-1519.42 3252.87,-1516.26 3255.98,-1511.58 3272,-1505.42 3279.89,-1502.39 3288.49,-1499.11 3296.29,-1496.15"/>
<polygon fill="midnightblue" stroke="midnightblue" points="1854.14,-1395.74 1843.62,-1396.98 1852.62,-1402.58 1854.14,-1395.74"/>
</g>
<!-- Node27&#45;&gt;Node22 -->
<g id="edge114" class="edge"><title>Node27&#45;&gt;Node22</title>
<path fill="none" stroke="midnightblue" d="M1723.69,-1385.69C1639.32,-1387.29 1499.01,-1397.43 1388,-1442.42 1348.61,-1458.39 1310.5,-1492.33 1292.61,-1509.7"/>
<polygon fill="midnightblue" stroke="midnightblue" points="1723.75,-1389.19 1733.69,-1385.54 1723.64,-1382.19 1723.75,-1389.19"/>
</g>
<!-- Node27&#45;&gt;Node25 -->
<g id="edge112" class="edge"><title>Node27&#45;&gt;Node25</title>
<path fill="none" stroke="midnightblue" d="M1756.15,-1372.09C1748.6,-1368.94 1740.93,-1365.36 1734,-1361.42 1716.38,-1351.41 1716.14,-1342.47 1698,-1333.42 1662.98,-1315.96 1559.42,-1290.95 1497.76,-1276.95"/>
<polygon fill="midnightblue" stroke="midnightblue" points="1755,-1375.4 1765.59,-1375.84 1757.59,-1368.9 1755,-1375.4"/>
</g>
<!-- Node28&#45;&gt;Node3 -->
<g id="edge136" class="edge"><title>Node28&#45;&gt;Node3</title>
<path fill="none" stroke="midnightblue" d="M1851.97,-1242.41C1930.53,-1223.31 2080.89,-1186.17 2208,-1151.42 2451.21,-1084.93 2571.86,-1142.31 2740,-954.423 2779.98,-909.748 2735.53,-868.652 2776,-824.423 2824.71,-771.196 2858.67,-787.381 2928,-767.423 3062.27,-728.774 3120.49,-783.035 3236,-704.423 3281.9,-673.184 3309.08,-608.487 3318.37,-583.037"/>
<polygon fill="midnightblue" stroke="midnightblue" points="1850.72,-1239.11 1841.83,-1244.87 1852.37,-1245.91 1850.72,-1239.11"/>
</g>
<!-- Node28&#45;&gt;Node12 -->
<g id="edge138" class="edge"><title>Node28&#45;&gt;Node12</title>
<path fill="none" stroke="midnightblue" d="M1866.43,-1267.79C1953.88,-1283.47 2110.02,-1311.04 2244,-1332.42 2663.58,-1399.4 3177.32,-1467.47 3296.49,-1483.09"/>
<polygon fill="midnightblue" stroke="midnightblue" points="1866.83,-1264.31 1856.37,-1265.99 1865.59,-1271.2 1866.83,-1264.31"/>
</g>
<!-- Node29 -->
<g id="node90" class="node"><title>Node29</title>
<a xlink:href="../../d3/d52/blanket_8js.html#a3d582dbc2cd807955ef7456076ec1770" target="_top" xlink:title="parsePrimaryExpression">
<polygon fill="white" stroke="black" points="1898.5,-774.923 1898.5,-795.923 2021.5,-795.923 2021.5,-774.923 1898.5,-774.923"/>
<text text-anchor="middle" x="1960" y="-782.923" font-family="Helvetica,sans-Serif" font-size="10.00">parsePrimaryExpression</text>
</a>
</g>
<!-- Node28&#45;&gt;Node29 -->
<g id="edge122" class="edge"><title>Node28&#45;&gt;Node29</title>
<path fill="none" stroke="midnightblue" d="M1804.97,-1235.21C1832.77,-1154.55 1935.3,-857.09 1956.25,-796.312"/>
<polygon fill="midnightblue" stroke="midnightblue" points="1801.64,-1234.13 1801.69,-1244.72 1808.26,-1236.41 1801.64,-1234.13"/>
</g>
<!-- Node29&#45;&gt;Node3 -->
<g id="edge124" class="edge"><title>Node29&#45;&gt;Node3</title>
<path fill="none" stroke="midnightblue" d="M2031.85,-773.388C2148.91,-752.949 2387.47,-707.821 2584,-648.423 2600.43,-643.457 2603.97,-640.573 2620,-634.423 2714.95,-597.993 2732.3,-553.423 2834,-553.423 2834,-553.423 2834,-553.423 3001,-553.423 3114.61,-553.423 3250.44,-565.429 3301.37,-570.354"/>
<polygon fill="midnightblue" stroke="midnightblue" points="2031.18,-769.952 2021.92,-775.112 2032.38,-776.848 2031.18,-769.952"/>
</g>
<!-- Node29&#45;&gt;Node8 -->
<g id="edge130" class="edge"><title>Node29&#45;&gt;Node8</title>
<path fill="none" stroke="midnightblue" d="M2032.15,-792.371C2111.9,-799.108 2244.16,-807.489 2358,-801.423 2372.5,-800.65 2387.87,-799.4 2402.78,-797.956"/>
<polygon fill="midnightblue" stroke="midnightblue" points="2031.99,-788.845 2021.73,-791.475 2031.39,-795.819 2031.99,-788.845"/>
</g>
<!-- Node29&#45;&gt;Node12 -->
<g id="edge134" class="edge"><title>Node29&#45;&gt;Node12</title>
<path fill="none" stroke="midnightblue" d="M2001.56,-799.235C2108.74,-836.507 2399.06,-948.102 2584,-1120.42 2605.92,-1140.85 2595.67,-1159.94 2620,-1177.42 2677.95,-1219.07 2706.05,-1201.29 2776,-1215.42 2907.5,-1241.99 2950.99,-1209.9 3074,-1263.42 3092.59,-1271.51 3092.33,-1281.48 3110,-1291.42 3162.23,-1320.81 3190.27,-1300.69 3236,-1339.42 3282.25,-1378.6 3309.58,-1449.3 3318.63,-1475.91"/>
<polygon fill="midnightblue" stroke="midnightblue" points="2002.66,-795.912 1992.06,-795.962 2000.38,-802.53 2002.66,-795.912"/>
</g>
<!-- Node29&#45;&gt;Node15 -->
<g id="edge126" class="edge"><title>Node29&#45;&gt;Node15</title>
<path fill="none" stroke="midnightblue" d="M1970.86,-765.906C1988.35,-734.795 2024.22,-672.281 2058,-621.423 2080.74,-587.185 2110.28,-548.541 2124.55,-530.197"/>
<polygon fill="midnightblue" stroke="midnightblue" points="1967.68,-764.413 1965.85,-774.849 1973.79,-767.833 1967.68,-764.413"/>
</g>
<!-- Node29&#45;&gt;Node16 -->
<g id="edge128" class="edge"><title>Node29&#45;&gt;Node16</title>
<path fill="none" stroke="midnightblue" d="M1963.87,-764.595C1976.19,-700.161 2016.17,-505.58 2058,-458.423 2143.04,-362.56 2295.63,-335.326 2394.56,-328.147"/>
<polygon fill="midnightblue" stroke="midnightblue" points="1960.37,-764.257 1961.95,-774.733 1967.25,-765.556 1960.37,-764.257"/>
</g>
<!-- Node29&#45;&gt;Node17 -->
<g id="edge132" class="edge"><title>Node29&#45;&gt;Node17</title>
<path fill="none" stroke="midnightblue" d="M1985.76,-769.503C2078.56,-712.135 2394.44,-516.876 2471.8,-469.058"/>
<polygon fill="midnightblue" stroke="midnightblue" points="1983.67,-766.679 1977,-774.914 1987.35,-772.633 1983.67,-766.679"/>
</g>
<!-- Node31 -->
<g id="node104" class="node"><title>Node31</title>
<a xlink:href="../../db/d7b/r_8js.html#a98235696795509f1466ca6456d6d4496" target="_top" xlink:title="parseProgram">
<polygon fill="white" stroke="black" points="3134.5,-1571.92 3134.5,-1592.92 3211.5,-1592.92 3211.5,-1571.92 3134.5,-1571.92"/>
<text text-anchor="middle" x="3173" y="-1579.92" font-family="Helvetica,sans-Serif" font-size="10.00">parseProgram</text>
</a>
</g>
<!-- Node30&#45;&gt;Node31 -->
<g id="edge146" class="edge"><title>Node30&#45;&gt;Node31</title>
<path fill="none" stroke="midnightblue" d="M2367.84,-1540.55C2443.56,-1541.74 2570.65,-1543.42 2680,-1543.42 2680,-1543.42 2680,-1543.42 2834,-1543.42 2943.45,-1543.42 3071.48,-1563.74 3134.27,-1575.04"/>
<polygon fill="midnightblue" stroke="midnightblue" points="2367.56,-1537.05 2357.5,-1540.39 2367.45,-1544.05 2367.56,-1537.05"/>
</g>
<!-- Node31&#45;&gt;Node3 -->
<g id="edge150" class="edge"><title>Node31&#45;&gt;Node3</title>
<path fill="none" stroke="midnightblue" d="M3177.44,-1561.74C3188.43,-1509.98 3217.4,-1370.61 3236,-1253.42 3279.06,-982.137 3314.3,-647.289 3320.89,-583.273"/>
<polygon fill="midnightblue" stroke="midnightblue" points="3173.98,-1561.16 3175.32,-1571.67 3180.83,-1562.62 3173.98,-1561.16"/>
</g>
<!-- Node31&#45;&gt;Node4 -->
<g id="edge148" class="edge"><title>Node31&#45;&gt;Node4</title>
<path fill="none" stroke="midnightblue" d="M3211.07,-1568.15C3265.9,-1547.59 3365.22,-1510.34 3408.22,-1494.22"/>
<polygon fill="midnightblue" stroke="midnightblue" points="3209.51,-1564.99 3201.37,-1571.78 3211.97,-1571.55 3209.51,-1564.99"/>
</g>
<!-- Node31&#45;&gt;Node12 -->
<g id="edge152" class="edge"><title>Node31&#45;&gt;Node12</title>
<path fill="none" stroke="midnightblue" d="M3215.01,-1567.89C3222.2,-1564.8 3229.45,-1561.29 3236,-1557.42 3251.58,-1548.21 3290.29,-1514.57 3310.02,-1497.11"/>
<polygon fill="midnightblue" stroke="midnightblue" points="3213.26,-1564.82 3205.32,-1571.82 3215.9,-1571.3 3213.26,-1564.82"/>
</g>
<!-- Node33 -->
<g id="node111" class="node"><title>Node33</title>
<a xlink:href="../../d3/d52/blanket_8js.html#af3549836ff2efc1bd21d0bf83d37d5e8" target="_top" xlink:title="parseBlock">
<polygon fill="white" stroke="black" points="2968.5,-1686.92 2968.5,-1707.92 3033.5,-1707.92 3033.5,-1686.92 2968.5,-1686.92"/>
<text text-anchor="middle" x="3001" y="-1694.92" font-family="Helvetica,sans-Serif" font-size="10.00">parseBlock</text>
</a>
</g>
<!-- Node32&#45;&gt;Node33 -->
<g id="edge156" class="edge"><title>Node32&#45;&gt;Node33</title>
<path fill="none" stroke="midnightblue" d="M2733.9,-1633.35C2800.88,-1649.42 2913.04,-1676.32 2968.26,-1689.57"/>
<polygon fill="midnightblue" stroke="midnightblue" points="2734.5,-1629.9 2723.96,-1630.97 2732.87,-1636.7 2734.5,-1629.9"/>
</g>
<!-- Node33&#45;&gt;Node3 -->
<g id="edge172" class="edge"><title>Node33&#45;&gt;Node3</title>
<path fill="none" stroke="midnightblue" d="M3013.24,-1678.17C3052.87,-1614.85 3178.4,-1406.15 3236,-1215.42 3310.89,-967.446 3320.63,-646.03 3321.84,-583.3"/>
<polygon fill="midnightblue" stroke="midnightblue" points="3010.21,-1676.43 3007.84,-1686.75 3016.13,-1680.15 3010.21,-1676.43"/>
</g>
<!-- Node33&#45;&gt;Node12 -->
<g id="edge174" class="edge"><title>Node33&#45;&gt;Node12</title>
<path fill="none" stroke="midnightblue" d="M3043.66,-1706.53C3094.35,-1714.81 3179.18,-1720.38 3236,-1680.42 3300.19,-1635.28 3317.1,-1530.96 3320.97,-1497.18"/>
<polygon fill="midnightblue" stroke="midnightblue" points="3044.15,-1703.06 3033.69,-1704.79 3042.94,-1709.96 3044.15,-1703.06"/>
</g>
<!-- Node33&#45;&gt;Node22 -->
<g id="edge168" class="edge"><title>Node33&#45;&gt;Node22</title>
<path fill="none" stroke="midnightblue" d="M2958.08,-1697.42C2896.51,-1697.42 2779.57,-1697.42 2680,-1697.42 1798,-1697.42 1798,-1697.42 1798,-1697.42 1686.38,-1697.42 1632.19,-1746.71 1548,-1673.42 1495.96,-1628.13 1565.96,-1565.41 1512,-1522.42 1454.69,-1476.76 1361.37,-1495.53 1313.1,-1509.83"/>
<polygon fill="midnightblue" stroke="midnightblue" points="2958.19,-1700.92 2968.19,-1697.42 2958.19,-1693.92 2958.19,-1700.92"/>
</g>
<!-- Node34 -->
<g id="node113" class="node"><title>Node34</title>
<a xlink:href="../../db/d7b/r_8js.html#aeb9d0b4038ec99a33dfff443c4b35474" target="_top" xlink:title="parseCatchClause">
<polygon fill="white" stroke="black" points="3124,-1649.92 3124,-1670.92 3222,-1670.92 3222,-1649.92 3124,-1649.92"/>
<text text-anchor="middle" x="3173" y="-1657.92" font-family="Helvetica,sans-Serif" font-size="10.00">parseCatchClause</text>
</a>
</g>
<!-- Node33&#45;&gt;Node34 -->
<g id="edge158" class="edge"><title>Node33&#45;&gt;Node34</title>
<path fill="none" stroke="midnightblue" d="M3043.78,-1688.22C3068.15,-1682.98 3098.77,-1676.39 3124.09,-1670.94"/>
<polygon fill="midnightblue" stroke="midnightblue" points="3042.8,-1684.85 3033.76,-1690.38 3044.27,-1691.7 3042.8,-1684.85"/>
</g>
<!-- Node35 -->
<g id="node115" class="node"><title>Node35</title>
<a xlink:href="../../db/d7b/r_8js.html#afbd0d123a7318300b113d139fe19e055" target="_top" xlink:title="parseTryStatement">
<polygon fill="white" stroke="black" points="3272,-1878.92 3272,-1899.92 3372,-1899.92 3372,-1878.92 3272,-1878.92"/>
<text text-anchor="middle" x="3322" y="-1886.92" font-family="Helvetica,sans-Serif" font-size="10.00">parseTryStatement</text>
</a>
</g>
<!-- Node33&#45;&gt;Node35 -->
<g id="edge170" class="edge"><title>Node33&#45;&gt;Node35</title>
<path fill="none" stroke="midnightblue" d="M3027.36,-1713.19C3090.84,-1751.16 3250.92,-1846.91 3304.34,-1878.86"/>
<polygon fill="midnightblue" stroke="midnightblue" points="3029.09,-1710.15 3018.72,-1708.02 3025.5,-1716.16 3029.09,-1710.15"/>
</g>
<!-- Node34&#45;&gt;Node3 -->
<g id="edge164" class="edge"><title>Node34&#45;&gt;Node3</title>
<path fill="none" stroke="midnightblue" d="M3199.03,-1643.64C3212.5,-1633.45 3227.8,-1619.18 3236,-1602.42 3283.27,-1505.81 3317.43,-686.77 3321.58,-583.179"/>
<polygon fill="midnightblue" stroke="midnightblue" points="3196.62,-1641.06 3190.53,-1649.73 3200.7,-1646.75 3196.62,-1641.06"/>
</g>
<!-- Node34&#45;&gt;Node12 -->
<g id="edge166" class="edge"><title>Node34&#45;&gt;Node12</title>
<path fill="none" stroke="midnightblue" d="M3220.88,-1645.49C3226.31,-1642.65 3231.49,-1639.32 3236,-1635.42 3282.33,-1595.39 3309.61,-1523.93 3318.64,-1497.04"/>
<polygon fill="midnightblue" stroke="midnightblue" points="3219.2,-1642.41 3211.62,-1649.81 3222.16,-1648.75 3219.2,-1642.41"/>
</g>
<!-- Node34&#45;&gt;Node35 -->
<g id="edge160" class="edge"><title>Node34&#45;&gt;Node35</title>
<path fill="none" stroke="midnightblue" d="M3185.54,-1679.7C3215.72,-1726.09 3291.64,-1842.76 3315.03,-1878.71"/>
<polygon fill="midnightblue" stroke="midnightblue" points="3188.37,-1677.63 3179.99,-1671.16 3182.51,-1681.45 3188.37,-1677.63"/>
</g>
<!-- Node35&#45;&gt;Node22 -->
<g id="edge162" class="edge"><title>Node35&#45;&gt;Node22</title>
<path fill="none" stroke="midnightblue" d="M3314.84,-1909.62C3303.28,-1938.95 3277.5,-1992.52 3236,-2017.42 3145.98,-2071.44 3105.99,-2041.42 3001,-2041.42 2489,-2041.42 2489,-2041.42 2489,-2041.42 2232.98,-2041.42 2216.02,-1813.42 1960,-1813.42 1798,-1813.42 1798,-1813.42 1798,-1813.42 1686.33,-1813.42 1634.67,-1858.84 1548,-1788.42 1506.76,-1754.92 1549.32,-1712.25 1512,-1674.42 1471.23,-1633.1 1436.92,-1664.67 1388,-1633.42 1343.34,-1604.9 1304.64,-1553.36 1289.18,-1531.12"/>
<polygon fill="midnightblue" stroke="midnightblue" points="3318.21,-1910.61 3318.46,-1900.01 3311.66,-1908.14 3318.21,-1910.61"/>
</g>
<!-- Node37&#45;&gt;Node3 -->
<g id="edge180" class="edge"><title>Node37&#45;&gt;Node3</title>
<path fill="none" stroke="midnightblue" d="M1507.19,-1468.41C1696.14,-1485.48 2312.64,-1519.54 2740,-1291.42 2975.11,-1165.92 3086.02,-1174.73 3236,-954.423 3279.52,-890.504 3313.61,-638.511 3320.66,-583.196"/>
<polygon fill="midnightblue" stroke="midnightblue" points="1507.48,-1464.92 1497.2,-1467.48 1506.84,-1471.89 1507.48,-1464.92"/>
</g>
<!-- Node37&#45;&gt;Node12 -->
<g id="edge182" class="edge"><title>Node37&#45;&gt;Node12</title>
<path fill="none" stroke="midnightblue" d="M1487.02,-1477C1495.4,-1480.72 1504.14,-1484.95 1512,-1489.42 1529.15,-1499.2 1531.43,-1504.71 1548,-1515.42 1655.67,-1585.05 1669.77,-1659.42 1798,-1659.42 1798,-1659.42 1798,-1659.42 2489,-1659.42 2655.39,-1659.42 3100.94,-1807.6 3236,-1710.42 3273.11,-1683.72 3309.81,-1538.13 3319.52,-1497.16"/>
<polygon fill="midnightblue" stroke="midnightblue" points="1488.35,-1473.76 1477.78,-1473.02 1485.58,-1480.19 1488.35,-1473.76"/>
</g>
<!-- Node37&#45;&gt;Node38 -->
<g id="edge184" class="edge"><title>Node37&#45;&gt;Node38</title>
<path fill="none" stroke="midnightblue" d="M1472.21,-1479.64C1485.64,-1491.2 1502.05,-1507.55 1512,-1525.42 1544.93,-1584.57 1512.31,-1615.9 1548,-1673.42 1562.17,-1696.25 1587.42,-1714.9 1604.67,-1725.83"/>
<polygon fill="midnightblue" stroke="midnightblue" points="1474.24,-1476.78 1464.31,-1473.09 1469.78,-1482.17 1474.24,-1476.78"/>
</g>
<!-- Node38&#45;&gt;Node22 -->
<g id="edge186" class="edge"><title>Node38&#45;&gt;Node22</title>
<path fill="none" stroke="midnightblue" d="M1559.49,-1720.9C1555.26,-1718.23 1551.35,-1715.09 1548,-1711.42 1500.89,-1659.84 1563.03,-1606.13 1512,-1558.42 1485.61,-1533.76 1384.2,-1525.01 1325.22,-1521.98"/>
<polygon fill="midnightblue" stroke="midnightblue" points="1558.11,-1724.13 1568.57,-1725.77 1561.41,-1717.96 1558.11,-1724.13"/>
</g>
<!-- Node39&#45;&gt;Node22 -->
<g id="edge190" class="edge"><title>Node39&#45;&gt;Node22</title>
<path fill="none" stroke="midnightblue" d="M1426.88,-1399.11C1414.69,-1404.28 1399.86,-1410.38 1388,-1418.42 1348.3,-1445.34 1312.02,-1489.28 1293.98,-1509.87"/>
<polygon fill="midnightblue" stroke="midnightblue" points="1428.61,-1402.18 1436.37,-1394.97 1425.81,-1395.77 1428.61,-1402.18"/>
</g>
<!-- Node40&#45;&gt;Node22 -->
<g id="edge194" class="edge"><title>Node40&#45;&gt;Node22</title>
<path fill="none" stroke="midnightblue" d="M1388.51,-1763.87C1388.34,-1763.72 1388.17,-1763.57 1388,-1763.42 1313.97,-1697.34 1288.55,-1569.36 1283.17,-1531.09"/>
<polygon fill="midnightblue" stroke="midnightblue" points="1386.68,-1766.87 1396.87,-1769.8 1390.74,-1761.16 1386.68,-1766.87"/>
</g>
<!-- Node41&#45;&gt;Node22 -->
<g id="edge202" class="edge"><title>Node41&#45;&gt;Node22</title>
<path fill="none" stroke="midnightblue" d="M1186.56,-1509.94C1204.48,-1511.91 1222.91,-1513.93 1238.75,-1515.67"/>
<polygon fill="midnightblue" stroke="midnightblue" points="1186.7,-1506.44 1176.38,-1508.82 1185.94,-1513.39 1186.7,-1506.44"/>
</g>
<!-- Node42&#45;&gt;Node3 -->
<g id="edge210" class="edge"><title>Node42&#45;&gt;Node3</title>
<path fill="none" stroke="midnightblue" d="M1808.77,-865.082C1824.68,-838.366 1857.07,-790.622 1898,-765.423 2090.88,-646.691 2172.94,-697.757 2394,-648.423 2478.22,-629.627 2509.23,-651.507 2584,-608.423 2604.72,-596.482 2599.49,-580.728 2620,-568.423 2704.02,-518.014 2736.02,-515.423 2834,-515.423 2834,-515.423 2834,-515.423 3001,-515.423 3115.9,-515.423 3250.42,-551.265 3301.2,-566.106"/>
<polygon fill="midnightblue" stroke="midnightblue" points="1805.65,-863.486 1803.66,-873.893 1811.7,-866.994 1805.65,-863.486"/>
</g>
<!-- Node42&#45;&gt;Node12 -->
<g id="edge212" class="edge"><title>Node42&#45;&gt;Node12</title>
<path fill="none" stroke="midnightblue" d="M1838.84,-898.264C1913.62,-924.128 2076.89,-983.03 2208,-1047.42 2399.02,-1141.24 2420.43,-1217.51 2620,-1291.42 2735.12,-1334.06 2771.46,-1316.21 2892,-1339.42 2973.14,-1355.05 2993.32,-1359.54 3074,-1377.42 3146.2,-1393.43 3169.74,-1382.57 3236,-1415.42 3267.4,-1430.99 3297.39,-1460.04 3312.27,-1475.72"/>
<polygon fill="midnightblue" stroke="midnightblue" points="1839.91,-894.931 1829.32,-894.983 1837.63,-901.549 1839.91,-894.931"/>
</g>
<!-- Node42&#45;&gt;Node29 -->
<g id="edge208" class="edge"><title>Node42&#45;&gt;Node29</title>
<path fill="none" stroke="midnightblue" d="M1824.09,-868.482C1857.47,-848.081 1914.37,-813.308 1942.79,-795.942"/>
<polygon fill="midnightblue" stroke="midnightblue" points="1822.04,-865.628 1815.34,-873.829 1825.69,-871.6 1822.04,-865.628"/>
</g>
<!-- Node43&#45;&gt;Node22 -->
<g id="edge218" class="edge"><title>Node43&#45;&gt;Node22</title>
<path fill="none" stroke="midnightblue" d="M1155.82,-1474.99C1162.61,-1477.08 1169.5,-1479.26 1176,-1481.42 1202.98,-1490.4 1233.4,-1501.72 1254.71,-1509.85"/>
<polygon fill="midnightblue" stroke="midnightblue" points="1156.58,-1471.56 1145.99,-1472.02 1154.55,-1478.26 1156.58,-1471.56"/>
</g>
<!-- Node44&#45;&gt;Node22 -->
<g id="edge228" class="edge"><title>Node44&#45;&gt;Node22</title>
<path fill="none" stroke="midnightblue" d="M1151.88,-1605.27C1160.05,-1602.06 1168.41,-1598.4 1176,-1594.42 1211.77,-1575.65 1249.64,-1546.69 1268.98,-1531.15"/>
<polygon fill="midnightblue" stroke="midnightblue" points="1150.56,-1602.02 1142.43,-1608.82 1153.03,-1608.57 1150.56,-1602.02"/>
</g>
<!-- Node45&#45;&gt;Node3 -->
<g id="edge238" class="edge"><title>Node45&#45;&gt;Node3</title>
<path fill="none" stroke="midnightblue" d="M2900.83,-676.519C2982.88,-683.747 3124.82,-687.33 3236,-643.423 3269.13,-630.338 3299.07,-599.384 3313.28,-583.007"/>
<polygon fill="midnightblue" stroke="midnightblue" points="2900.92,-673.013 2890.64,-675.575 2900.27,-679.983 2900.92,-673.013"/>
</g>
<!-- Node46&#45;&gt;Node3 -->
<g id="edge244" class="edge"><title>Node46&#45;&gt;Node3</title>
<path fill="none" stroke="midnightblue" d="M769.282,-935.54C795.366,-811.167 937.48,-173.423 1109,-173.423 1109,-173.423 1109,-173.423 3001,-173.423 3105.79,-173.423 3156.84,-123.768 3236,-192.423 3294.25,-242.946 3316.96,-504.896 3321.23,-561.593"/>
<polygon fill="midnightblue" stroke="midnightblue" points="765.789,-935.15 767.181,-945.653 772.642,-936.574 765.789,-935.15"/>
</g>
<!-- Node46&#45;&gt;Node12 -->
<g id="edge268" class="edge"><title>Node46&#45;&gt;Node12</title>
<path fill="none" stroke="midnightblue" d="M784.007,-973.881C827.026,-1012.63 936.347,-1106.84 1042,-1163.42 1185.87,-1240.47 1233.05,-1235.17 1388,-1286.42 1442.72,-1304.53 1462.81,-1294.38 1512,-1324.42 1531.58,-1336.38 1529.01,-1348.55 1548,-1361.42 1622.05,-1411.63 1649.12,-1410.14 1734,-1438.42 2318.31,-1633.1 2494.31,-1587.15 3110,-1602.42 3165.98,-1603.81 3185.98,-1627.61 3236,-1602.42 3281.01,-1579.76 3308.36,-1521.18 3318.03,-1497.05"/>
<polygon fill="midnightblue" stroke="midnightblue" points="786.293,-971.23 776.534,-967.106 781.592,-976.416 786.293,-971.23"/>
</g>
<!-- Node47 -->
<g id="node170" class="node"><title>Node47</title>
<a xlink:href="../../d3/d52/blanket_8js.html#a1f40bff1db8e3db86f93e8fa26d32564" target="_top" xlink:title="parseVariableDeclarationList">
<polygon fill="white" stroke="black" points="864.5,-945.923 864.5,-966.923 1005.5,-966.923 1005.5,-945.923 864.5,-945.923"/>
<text text-anchor="middle" x="935" y="-953.923" font-family="Helvetica,sans-Serif" font-size="10.00">parseVariableDeclarationList</text>
</a>
</g>
<!-- Node46&#45;&gt;Node47 -->
<g id="edge246" class="edge"><title>Node46&#45;&gt;Node47</title>
<path fill="none" stroke="midnightblue" d="M838,-956.423C846.76,-956.423 855.693,-956.423 864.418,-956.423"/>
<polygon fill="midnightblue" stroke="midnightblue" points="837.819,-952.923 827.819,-956.423 837.819,-959.923 837.819,-952.923"/>
</g>
<!-- Node48 -->
<g id="node172" class="node"><title>Node48</title>
<a xlink:href="../../d3/d52/blanket_8js.html#aef339b5cc092875eb5b1a74161a34b78" target="_top" xlink:title="parseVariableStatement">
<polygon fill="white" stroke="black" points="1048.5,-1132.92 1048.5,-1153.92 1169.5,-1153.92 1169.5,-1132.92 1048.5,-1132.92"/>
<text text-anchor="middle" x="1109" y="-1140.92" font-family="Helvetica,sans-Serif" font-size="10.00">parseVariableStatement</text>
</a>
</g>
<!-- Node47&#45;&gt;Node48 -->
<g id="edge248" class="edge"><title>Node47&#45;&gt;Node48</title>
<path fill="none" stroke="midnightblue" d="M951.711,-974.383C987.358,-1012.69 1069.96,-1101.46 1098.82,-1132.48"/>
<polygon fill="midnightblue" stroke="midnightblue" points="954.228,-971.95 944.854,-967.013 949.103,-976.718 954.228,-971.95"/>
</g>
<!-- Node49 -->
<g id="node175" class="node"><title>Node49</title>
<a xlink:href="../../d3/d52/blanket_8js.html#a93b759af8316cc5fedd9a23ad245254a" target="_top" xlink:title="parseConstLetDeclaration">
<polygon fill="white" stroke="black" points="1217,-879.923 1217,-900.923 1347,-900.923 1347,-879.923 1217,-879.923"/>
<text text-anchor="middle" x="1282" y="-887.923" font-family="Helvetica,sans-Serif" font-size="10.00">parseConstLetDeclaration</text>
</a>
</g>
<!-- Node47&#45;&gt;Node49 -->
<g id="edge252" class="edge"><title>Node47&#45;&gt;Node49</title>
<path fill="none" stroke="midnightblue" d="M1000.55,-943.956C1065.86,-931.534 1165.03,-912.672 1226.54,-900.971"/>
<polygon fill="midnightblue" stroke="midnightblue" points="999.537,-940.585 990.367,-945.892 1000.84,-947.462 999.537,-940.585"/>
</g>
<!-- Node50 -->
<g id="node180" class="node"><title>Node50</title>
<a xlink:href="../../d3/d52/blanket_8js.html#a61a7ffe6ee3b9ce3ccd76776339f0fdd" target="_top" xlink:title="parseForVariableDeclaration">
<polygon fill="white" stroke="black" points="1212,-945.923 1212,-966.923 1352,-966.923 1352,-945.923 1212,-945.923"/>
<text text-anchor="middle" x="1282" y="-953.923" font-family="Helvetica,sans-Serif" font-size="10.00">parseForVariableDeclaration</text>
</a>
</g>
<!-- Node47&#45;&gt;Node50 -->
<g id="edge260" class="edge"><title>Node47&#45;&gt;Node50</title>
<path fill="none" stroke="midnightblue" d="M1015.73,-956.423C1075.1,-956.423 1155.01,-956.423 1211.76,-956.423"/>
<polygon fill="midnightblue" stroke="midnightblue" points="1015.64,-952.923 1005.64,-956.423 1015.64,-959.923 1015.64,-952.923"/>
</g>
<!-- Node48&#45;&gt;Node22 -->
<g id="edge250" class="edge"><title>Node48&#45;&gt;Node22</title>
<path fill="none" stroke="midnightblue" d="M1118.29,-1163.67C1150.03,-1232.84 1253.5,-1458.32 1277.15,-1509.86"/>
<polygon fill="midnightblue" stroke="midnightblue" points="1121.34,-1161.93 1113.99,-1154.3 1114.98,-1164.85 1121.34,-1161.93"/>
</g>
<!-- Node49&#45;&gt;Node3 -->
<g id="edge256" class="edge"><title>Node49&#45;&gt;Node3</title>
<path fill="none" stroke="midnightblue" d="M1293.41,-871.229C1347.5,-782.251 1588.32,-407.771 1898,-254.423 1922.98,-242.052 2247.5,-211.423 2301,-211.423 2301,-211.423 2301,-211.423 3001,-211.423 3105.99,-211.423 3156.47,-166.881 3236,-235.423 3287.8,-280.068 3315.26,-509.519 3320.9,-561.808"/>
<polygon fill="midnightblue" stroke="midnightblue" points="1290.42,-869.422 1288.25,-879.793 1296.41,-873.036 1290.42,-869.422"/>
</g>
<!-- Node49&#45;&gt;Node12 -->
<g id="edge258" class="edge"><title>Node49&#45;&gt;Node12</title>
<path fill="none" stroke="midnightblue" d="M1357.25,-895.84C1534.7,-910.028 1991.88,-954.883 2358,-1062.42 2463.21,-1093.33 2497.36,-1094.21 2584,-1161.42 2604.51,-1177.34 2598.42,-1192.99 2620,-1207.42 2738.14,-1286.44 3117.35,-1301.18 3236,-1379.42 3275,-1405.14 3304.69,-1454.2 3316.47,-1475.78"/>
<polygon fill="midnightblue" stroke="midnightblue" points="1357.48,-892.347 1347.24,-895.048 1356.93,-899.325 1357.48,-892.347"/>
</g>
<!-- Node49&#45;&gt;Node25 -->
<g id="edge254" class="edge"><title>Node49&#45;&gt;Node25</title>
<path fill="none" stroke="midnightblue" d="M1315.14,-905.779C1328.27,-913.344 1342.49,-923.62 1352,-936.423 1430.95,-1042.68 1446.65,-1212.11 1449.44,-1255.85"/>
<polygon fill="midnightblue" stroke="midnightblue" points="1316.74,-902.669 1306.28,-900.978 1313.41,-908.822 1316.74,-902.669"/>
</g>
<!-- Node50&#45;&gt;Node3 -->
<g id="edge264" class="edge"><title>Node50&#45;&gt;Node3</title>
<path fill="none" stroke="midnightblue" d="M1308.52,-940.382C1321.9,-931.944 1338.19,-921.145 1352,-910.423 1687.27,-650.191 1668.15,-435.17 2058,-267.423 2157.48,-224.62 2192.7,-249.423 2301,-249.423 2301,-249.423 2301,-249.423 3001,-249.423 3105.79,-249.423 3155.04,-201.894 3236,-268.423 3283.67,-307.6 3313.98,-512.744 3320.62,-561.853"/>
<polygon fill="midnightblue" stroke="midnightblue" points="1306.43,-937.562 1299.79,-945.816 1310.13,-943.506 1306.43,-937.562"/>
</g>
<!-- Node50&#45;&gt;Node12 -->
<g id="edge266" class="edge"><title>Node50&#45;&gt;Node12</title>
<path fill="none" stroke="midnightblue" d="M1321.7,-970.187C1407.49,-998.666 1617.07,-1061.42 1798,-1061.42 1798,-1061.42 1798,-1061.42 1960,-1061.42 2167.65,-1061.42 2200.37,-1159.43 2394,-1234.42 2494.07,-1273.18 2517.1,-1288.97 2620,-1319.42 2888.75,-1398.96 2967.11,-1375.36 3236,-1454.42 3256.63,-1460.49 3279.42,-1469.06 3296.35,-1475.8"/>
<polygon fill="midnightblue" stroke="midnightblue" points="1322.69,-966.83 1312.1,-966.972 1320.47,-973.467 1322.69,-966.83"/>
</g>
<!-- Node50&#45;&gt;Node23 -->
<g id="edge262" class="edge"><title>Node50&#45;&gt;Node23</title>
<path fill="none" stroke="midnightblue" d="M1284.92,-977.031C1293.36,-1031.37 1321.55,-1181.55 1388,-1286.42 1400.39,-1305.97 1420.9,-1323.36 1434.91,-1333.88"/>
<polygon fill="midnightblue" stroke="midnightblue" points="1288.35,-976.315 1283.41,-966.942 1281.43,-977.35 1288.35,-976.315"/>
</g>
</g>
</svg>
        <g id="navigator" transform="translate(0 0)" fill="#404254">
                <rect fill="#f2f5e9" fill-opacity="0.5" stroke="#606060" stroke-width=".5" x="0" y="0" width="60" height="60"/>
                <use id="zoomplus" xlink:href="#zoomPlus" x="17" y="9" onmousedown="handleZoom(evt,'in')"/>
                <use id="zoomminus" xlink:href="#zoomMin" x="42" y="9" onmousedown="handleZoom(evt,'out')"/>
                <use id="reset" xlink:href="#resetDef" x="30" y="36" onmousedown="handleReset()"/>
                <g id="arrowUp" xlink:href="#dirArrow" transform="translate(30 24)" onmousedown="handlePan(0,-1)">
                  <use xlink:href="#rim" fill="#404040">
                        <set attributeName="fill" to="#808080" begin="arrowUp.mouseover" end="arrowUp.mouseout"/>
                  </use>
                  <path fill="none" stroke="white" stroke-width="1.5" d="M0,-3.0v7 M-2.5,-0.5L0,-3.0L2.5,-0.5"/>
                </g>
                <g id="arrowRight" xlink:href="#dirArrow" transform="rotate(90) translate(36 -43)" onmousedown="handlePan(1,0)">
                  <use xlink:href="#rim" fill="#404040">
                        <set attributeName="fill" to="#808080" begin="arrowRight.mouseover" end="arrowRight.mouseout"/>
                  </use>
                  <path fill="none" stroke="white" stroke-width="1.5" d="M0,-3.0v7 M-2.5,-0.5L0,-3.0L2.5,-0.5"/>
                </g>
                <g id="arrowDown" xlink:href="#dirArrow" transform="rotate(180) translate(-30 -48)" onmousedown="handlePan(0,1)">
                  <use xlink:href="#rim" fill="#404040">
                        <set attributeName="fill" to="#808080" begin="arrowDown.mouseover" end="arrowDown.mouseout"/>
                  </use>
                  <path fill="none" stroke="white" stroke-width="1.5" d="M0,-3.0v7 M-2.5,-0.5L0,-3.0L2.5,-0.5"/>
                </g>
                <g id="arrowLeft" xlink:href="#dirArrow" transform="rotate(270) translate(-36 17)" onmousedown="handlePan(-1,0)">
                  <use xlink:href="#rim" fill="#404040">
                        <set attributeName="fill" to="#808080" begin="arrowLeft.mouseover" end="arrowLeft.mouseout"/>
                  </use>
                  <path fill="none" stroke="white" stroke-width="1.5" d="M0,-3.0v7 M-2.5,-0.5L0,-3.0L2.5,-0.5"/>
                </g>
        </g>
</svg>
