<?xml version="1.0" encoding="UTF-8" standalone="no"?>
<!DOCTYPE svg PUBLIC "-//W3C//DTD SVG 1.1//EN"
 "http://www.w3.org/Graphics/SVG/1.1/DTD/svg11.dtd">
<!-- Generated by graphviz version 2.26.3 (20100126.1600)
 -->
<!-- Title: G Pages: 1 -->
<svg width="378pt" height="146pt"
 viewBox="0.00 0.00 378.00 146.00" xmlns="http://www.w3.org/2000/svg" xmlns:xlink="http://www.w3.org/1999/xlink">
<g id="graph1" class="graph" transform="scale(1 1) rotate(0) translate(4 142)">
<title>G</title>
<polygon fill="white" stroke="white" points="-4,5 -4,-142 375,-142 375,5 -4,5"/>
<!-- Node1 -->
<g id="node1" class="node"><title>Node1</title>
<polygon fill="#bfbfbf" stroke="black" points="-0.5,-116.5 -0.5,-137.5 370.5,-137.5 370.5,-116.5 -0.5,-116.5"/>
<text text-anchor="middle" x="185" y="-124.5" font-family="Helvetica,sans-Serif" font-size="10.00">/home/aoi/Documents/FxOS/B2G/gaia/xulrunner&#45;sdk/idl/nsIDocShellTreeNode.idl</text>
</g>
<!-- Node2 -->
<g id="node3" class="node"><title>Node2</title>
<a xlink:href="../../d9/d0f/ns_i_doc_shell_tree_item_8idl.html" target="_top" xlink:title="/home/aoi/Documents/FxOS/B2G/gaia/xulrunner&#45;sdk/idl/nsIDocShellTreeItem.idl">
<polygon fill="white" stroke="black" points="1.5,-58.5 1.5,-79.5 368.5,-79.5 368.5,-58.5 1.5,-58.5"/>
<text text-anchor="middle" x="185" y="-66.5" font-family="Helvetica,sans-Serif" font-size="10.00">/home/aoi/Documents/FxOS/B2G/gaia/xulrunner&#45;sdk/idl/nsIDocShellTreeItem.idl</text>
</a>
</g>
<!-- Node1&#45;&gt;Node2 -->
<g id="edge2" class="edge"><title>Node1&#45;&gt;Node2</title>
<path fill="none" stroke="midnightblue" d="M185,-106.191C185,-97.1684 185,-86.9941 185,-79.5707"/>
<polygon fill="midnightblue" stroke="midnightblue" points="181.5,-106.362 185,-116.362 188.5,-106.362 181.5,-106.362"/>
</g>
<!-- Node3 -->
<g id="node5" class="node"><title>Node3</title>
<a xlink:href="../../d8/d13/ns_i_doc_shell_8idl.html" target="_top" xlink:title="/home/aoi/Documents/FxOS/B2G/gaia/xulrunner&#45;sdk/idl/nsIDocShell.idl">
<polygon fill="white" stroke="black" points="21,-0.5 21,-21.5 349,-21.5 349,-0.5 21,-0.5"/>
<text text-anchor="middle" x="185" y="-8.5" font-family="Helvetica,sans-Serif" font-size="10.00">/home/aoi/Documents/FxOS/B2G/gaia/xulrunner&#45;sdk/idl/nsIDocShell.idl</text>
</a>
</g>
<!-- Node2&#45;&gt;Node3 -->
<g id="edge4" class="edge"><title>Node2&#45;&gt;Node3</title>
<path fill="none" stroke="midnightblue" d="M185,-48.1906C185,-39.1684 185,-28.9941 185,-21.5707"/>
<polygon fill="midnightblue" stroke="midnightblue" points="181.5,-48.3619 185,-58.3619 188.5,-48.3619 181.5,-48.3619"/>
</g>
</g>
</svg>
