<?xml version="1.0" encoding="UTF-8" standalone="no"?>
<!DOCTYPE svg PUBLIC "-//W3C//DTD SVG 1.1//EN"
 "http://www.w3.org/Graphics/SVG/1.1/DTD/svg11.dtd">
<!-- Generated by graphviz version 2.26.3 (20100126.1600)
 -->
<!-- Title: G Pages: 1 -->
<svg width="372pt" height="70pt"
 viewBox="0.00 0.00 372.00 70.00" xmlns="http://www.w3.org/2000/svg" xmlns:xlink="http://www.w3.org/1999/xlink">
<g id="graph1" class="graph" transform="scale(1 1) rotate(0) translate(4 66)">
<title>G</title>
<polygon fill="white" stroke="white" points="-4,5 -4,-66 369,-66 369,5 -4,5"/>
<!-- Node1 -->
<g id="node1" class="node"><title>Node1</title>
<polygon fill="#bfbfbf" stroke="black" points="0,-20.5 0,-41.5 156,-41.5 156,-20.5 0,-20.5"/>
<text text-anchor="middle" x="78" y="-28.5" font-family="Helvetica,sans-Serif" font-size="10.00">SkMWCRandom::nextUScalar1</text>
</g>
<!-- Node2 -->
<g id="node3" class="node"><title>Node2</title>
<a xlink:href="../../d8/d80/class_sk_m_w_c_random.html#adc91c64ad21b85e61e4544c49c8861f4" target="_top" xlink:title="SkMWCRandom::nextBiasedBool">
<polygon fill="white" stroke="black" points="195.5,-40.5 195.5,-61.5 360.5,-61.5 360.5,-40.5 195.5,-40.5"/>
<text text-anchor="middle" x="278" y="-48.5" font-family="Helvetica,sans-Serif" font-size="10.00">SkMWCRandom::nextBiasedBool</text>
</a>
</g>
<!-- Node1&#45;&gt;Node2 -->
<g id="edge2" class="edge"><title>Node1&#45;&gt;Node2</title>
<path fill="none" stroke="midnightblue" d="M166.184,-39.8184C175.845,-40.7845 185.656,-41.7656 195.249,-42.7249"/>
<polygon fill="midnightblue" stroke="midnightblue" points="166.483,-36.3309 156.185,-38.8185 165.787,-43.2962 166.483,-36.3309"/>
</g>
<!-- Node3 -->
<g id="node5" class="node"><title>Node3</title>
<a xlink:href="../../d8/d80/class_sk_m_w_c_random.html#a4ffdaa70e5032b9f8ab72bedb56e164f" target="_top" xlink:title="SkMWCRandom::nextRangeScalar">
<polygon fill="white" stroke="black" points="192,-0.5 192,-21.5 364,-21.5 364,-0.5 192,-0.5"/>
<text text-anchor="middle" x="278" y="-8.5" font-family="Helvetica,sans-Serif" font-size="10.00">SkMWCRandom::nextRangeScalar</text>
</a>
</g>
<!-- Node1&#45;&gt;Node3 -->
<g id="edge4" class="edge"><title>Node1&#45;&gt;Node3</title>
<path fill="none" stroke="midnightblue" d="M166.16,-22.184C174.717,-21.3283 183.391,-20.4609 191.927,-19.6073"/>
<polygon fill="midnightblue" stroke="midnightblue" points="165.787,-18.7038 156.185,-23.1815 166.483,-25.6691 165.787,-18.7038"/>
</g>
</g>
</svg>
