<?xml version="1.0" encoding="UTF-8" standalone="no"?>
<!DOCTYPE svg PUBLIC "-//W3C//DTD SVG 1.1//EN"
 "http://www.w3.org/Graphics/SVG/1.1/DTD/svg11.dtd">
<!-- Generated by graphviz version 2.26.3 (20100126.1600)
 -->
<!-- Title: G Pages: 1 -->
<svg width="224pt" height="238pt"
 viewBox="0.00 0.00 224.00 238.00" xmlns="http://www.w3.org/2000/svg" xmlns:xlink="http://www.w3.org/1999/xlink">
<g id="graph1" class="graph" transform="scale(1 1) rotate(0) translate(4 234)">
<title>G</title>
<polygon fill="white" stroke="white" points="-4,5 -4,-234 221,-234 221,5 -4,5"/>
<!-- Node1 -->
<g id="node1" class="node"><title>Node1</title>
<polygon fill="#bfbfbf" stroke="black" points="19,-0.5 19,-21.5 153,-21.5 153,-0.5 19,-0.5"/>
<text text-anchor="middle" x="86" y="-8.5" font-family="Helvetica,sans-Serif" font-size="10.00">CERTNameConstraintsStr</text>
</g>
<!-- Node2 -->
<g id="node2" class="node"><title>Node2</title>
<a xlink:href="../../d2/d86/struct_s_e_c_item_str.html" target="_top" xlink:title="SECItemStr">
<polygon fill="white" stroke="black" points="0,-84.5 0,-105.5 70,-105.5 70,-84.5 0,-84.5"/>
<text text-anchor="middle" x="35" y="-92.5" font-family="Helvetica,sans-Serif" font-size="10.00">SECItemStr</text>
</a>
</g>
<!-- Node2&#45;&gt;Node1 -->
<g id="edge2" class="edge"><title>Node2&#45;&gt;Node1</title>
<path fill="none" stroke="#9a32cd" stroke-dasharray="5,2" d="M37.4665,-74.534C39.5204,-63.6009 43.2527,-50.3107 50,-40 54.7462,-32.7473 61.895,-26.4526 68.5745,-21.5986"/>
<polygon fill="#9a32cd" stroke="#9a32cd" points="33.9974,-74.0653 35.9225,-84.4838 40.9146,-75.1388 33.9974,-74.0653"/>
<text text-anchor="middle" x="83" y="-57" font-family="Helvetica,sans-Serif" font-size="10.00"> DERExcluded</text>
<text text-anchor="middle" x="83" y="-44" font-family="Helvetica,sans-Serif" font-size="10.00">DERPermited</text>
</g>
<!-- Node3 -->
<g id="node4" class="node"><title>Node3</title>
<a xlink:href="../../de/daf/struct_c_e_r_t_name_constraint_str.html" target="_top" xlink:title="CERTNameConstraintStr">
<polygon fill="white" stroke="black" points="88,-84.5 88,-105.5 216,-105.5 216,-84.5 88,-84.5"/>
<text text-anchor="middle" x="152" y="-92.5" font-family="Helvetica,sans-Serif" font-size="10.00">CERTNameConstraintStr</text>
</a>
</g>
<!-- Node3&#45;&gt;Node1 -->
<g id="edge4" class="edge"><title>Node3&#45;&gt;Node1</title>
<path fill="none" stroke="#9a32cd" stroke-dasharray="5,2" d="M140.8,-75.6459C134.146,-64.759 125.225,-51.1555 116,-40 110.645,-33.5243 103.983,-26.9629 98.2986,-21.723"/>
<polygon fill="#9a32cd" stroke="#9a32cd" points="137.885,-77.5902 146.015,-84.384 143.896,-74.0032 137.885,-77.5902"/>
<text text-anchor="middle" x="154.5" y="-57" font-family="Helvetica,sans-Serif" font-size="10.00"> excluded</text>
<text text-anchor="middle" x="154.5" y="-44" font-family="Helvetica,sans-Serif" font-size="10.00">permited</text>
</g>
<!-- Node4 -->
<g id="node6" class="node"><title>Node4</title>
<polygon fill="white" stroke="#bfbfbf" points="131.5,-208.5 131.5,-229.5 172.5,-229.5 172.5,-208.5 131.5,-208.5"/>
<text text-anchor="middle" x="152" y="-216.5" font-family="Helvetica,sans-Serif" font-size="10.00">struct</text>
</g>
<!-- Node4&#45;&gt;Node3 -->
<g id="edge6" class="edge"><title>Node4&#45;&gt;Node3</title>
<path fill="none" stroke="#9a32cd" stroke-dasharray="5,2" d="M152,-198.241C152,-171.498 152,-126.022 152,-105.545"/>
<polygon fill="#9a32cd" stroke="#9a32cd" points="148.5,-198.428 152,-208.428 155.5,-198.428 148.5,-198.428"/>
<text text-anchor="middle" x="176.5" y="-180.5" font-family="Helvetica,sans-Serif" font-size="10.00"> l</text>
<text text-anchor="middle" x="176.5" y="-167.5" font-family="Helvetica,sans-Serif" font-size="10.00">DERName</text>
<text text-anchor="middle" x="176.5" y="-154.5" font-family="Helvetica,sans-Serif" font-size="10.00">min</text>
<text text-anchor="middle" x="176.5" y="-141.5" font-family="Helvetica,sans-Serif" font-size="10.00">max</text>
<text text-anchor="middle" x="176.5" y="-128.5" font-family="Helvetica,sans-Serif" font-size="10.00">name</text>
</g>
</g>
</svg>
