<?xml version="1.0" encoding="UTF-8" standalone="no"?>
<!DOCTYPE svg PUBLIC "-//W3C//DTD SVG 1.1//EN"
 "http://www.w3.org/Graphics/SVG/1.1/DTD/svg11.dtd">
<!-- Generated by graphviz version 2.26.3 (20100126.1600)
 -->
<!-- Title: G Pages: 1 -->
<svg width="422pt" height="30pt"
 viewBox="0.00 0.00 422.00 30.00" xmlns="http://www.w3.org/2000/svg" xmlns:xlink="http://www.w3.org/1999/xlink">
<g id="graph1" class="graph" transform="scale(1 1) rotate(0) translate(4 26)">
<title>G</title>
<polygon fill="white" stroke="white" points="-4,5 -4,-26 419,-26 419,5 -4,5"/>
<!-- Node1 -->
<g id="node1" class="node"><title>Node1</title>
<polygon fill="#bfbfbf" stroke="black" points="0.5,-0.5 0.5,-21.5 125.5,-21.5 125.5,-0.5 0.5,-0.5"/>
<text text-anchor="middle" x="63" y="-8.5" font-family="Helvetica,sans-Serif" font-size="10.00">header.attributeAsNative</text>
</g>
<!-- Node2 -->
<g id="node3" class="node"><title>Node2</title>
<a xlink:href="../../d8/dbd/namespaceheader.html#aa9fde647882ba441282df5e442e6e51f" target="_top" xlink:title="header.write_interface">
<polygon fill="white" stroke="black" points="162.5,-0.5 162.5,-21.5 275.5,-21.5 275.5,-0.5 162.5,-0.5"/>
<text text-anchor="middle" x="219" y="-8.5" font-family="Helvetica,sans-Serif" font-size="10.00">header.write_interface</text>
</a>
</g>
<!-- Node1&#45;&gt;Node2 -->
<g id="edge2" class="edge"><title>Node1&#45;&gt;Node2</title>
<path fill="none" stroke="midnightblue" d="M135.657,-11C144.667,-11 153.771,-11 162.487,-11"/>
<polygon fill="midnightblue" stroke="midnightblue" points="135.552,-7.5001 125.552,-11 135.552,-14.5001 135.552,-7.5001"/>
</g>
<!-- Node3 -->
<g id="node5" class="node"><title>Node3</title>
<a xlink:href="../../d8/dbd/namespaceheader.html#a9b6d35c5d78b3e938143567111d9a5ef" target="_top" xlink:title="header.print_header">
<polygon fill="white" stroke="black" points="312,-0.5 312,-21.5 414,-21.5 414,-0.5 312,-0.5"/>
<text text-anchor="middle" x="363" y="-8.5" font-family="Helvetica,sans-Serif" font-size="10.00">header.print_header</text>
</a>
</g>
<!-- Node2&#45;&gt;Node3 -->
<g id="edge4" class="edge"><title>Node2&#45;&gt;Node3</title>
<path fill="none" stroke="midnightblue" d="M285.966,-11C294.594,-11 303.319,-11 311.642,-11"/>
<polygon fill="midnightblue" stroke="midnightblue" points="285.913,-7.5001 275.913,-11 285.913,-14.5001 285.913,-7.5001"/>
</g>
</g>
</svg>
