<?xml version="1.0" encoding="UTF-8" standalone="no"?>
<!DOCTYPE svg PUBLIC "-//W3C//DTD SVG 1.1//EN"
 "http://www.w3.org/Graphics/SVG/1.1/DTD/svg11.dtd">
<!-- Generated by graphviz version 2.26.3 (20100126.1600)
 -->
<!-- Title: G Pages: 1 -->
<svg width="416pt" height="30pt"
 viewBox="0.00 0.00 416.00 30.00" xmlns="http://www.w3.org/2000/svg" xmlns:xlink="http://www.w3.org/1999/xlink">
<g id="graph1" class="graph" transform="scale(1 1) rotate(0) translate(4 26)">
<title>G</title>
<polygon fill="white" stroke="white" points="-4,5 -4,-26 413,-26 413,5 -4,5"/>
<!-- Node1 -->
<g id="node1" class="node"><title>Node1</title>
<polygon fill="#bfbfbf" stroke="black" points="0,-0.5 0,-21.5 120,-21.5 120,-0.5 0,-0.5"/>
<text text-anchor="middle" x="60" y="-8.5" font-family="Helvetica,sans-Serif" font-size="10.00">header.paramlistNames</text>
</g>
<!-- Node2 -->
<g id="node3" class="node"><title>Node2</title>
<a xlink:href="../../d8/dbd/namespaceheader.html#aa9fde647882ba441282df5e442e6e51f" target="_top" xlink:title="header.write_interface">
<polygon fill="white" stroke="black" points="156.5,-0.5 156.5,-21.5 269.5,-21.5 269.5,-0.5 156.5,-0.5"/>
<text text-anchor="middle" x="213" y="-8.5" font-family="Helvetica,sans-Serif" font-size="10.00">header.write_interface</text>
</a>
</g>
<!-- Node1&#45;&gt;Node2 -->
<g id="edge2" class="edge"><title>Node1&#45;&gt;Node2</title>
<path fill="none" stroke="midnightblue" d="M130.166,-11C138.866,-11 147.676,-11 156.142,-11"/>
<polygon fill="midnightblue" stroke="midnightblue" points="130.031,-7.5001 120.031,-11 130.03,-14.5001 130.031,-7.5001"/>
</g>
<!-- Node3 -->
<g id="node5" class="node"><title>Node3</title>
<a xlink:href="../../d8/dbd/namespaceheader.html#a9b6d35c5d78b3e938143567111d9a5ef" target="_top" xlink:title="header.print_header">
<polygon fill="white" stroke="black" points="306,-0.5 306,-21.5 408,-21.5 408,-0.5 306,-0.5"/>
<text text-anchor="middle" x="357" y="-8.5" font-family="Helvetica,sans-Serif" font-size="10.00">header.print_header</text>
</a>
</g>
<!-- Node2&#45;&gt;Node3 -->
<g id="edge4" class="edge"><title>Node2&#45;&gt;Node3</title>
<path fill="none" stroke="midnightblue" d="M279.966,-11C288.594,-11 297.319,-11 305.642,-11"/>
<polygon fill="midnightblue" stroke="midnightblue" points="279.913,-7.5001 269.913,-11 279.913,-14.5001 279.913,-7.5001"/>
</g>
</g>
</svg>
