<?xml version="1.0" encoding="UTF-8" standalone="no"?>
<!DOCTYPE svg PUBLIC "-//W3C//DTD SVG 1.1//EN"
 "http://www.w3.org/Graphics/SVG/1.1/DTD/svg11.dtd">
<!-- Generated by graphviz version 2.26.3 (20100126.1600)
 -->
<!-- Title: G Pages: 1 -->
<svg width="326pt" height="222pt"
 viewBox="0.00 0.00 326.00 222.00" xmlns="http://www.w3.org/2000/svg" xmlns:xlink="http://www.w3.org/1999/xlink">
<g id="graph1" class="graph" transform="scale(1 1) rotate(0) translate(4 218)">
<title>G</title>
<polygon fill="white" stroke="white" points="-4,5 -4,-218 323,-218 323,5 -4,5"/>
<!-- Node1 -->
<g id="node1" class="node"><title>Node1</title>
<polygon fill="#bfbfbf" stroke="black" points="133.5,-0.5 133.5,-21.5 284.5,-21.5 284.5,-0.5 133.5,-0.5"/>
<text text-anchor="middle" x="209" y="-8.5" font-family="Helvetica,sans-Serif" font-size="10.00">mozilla::dom::StorageEventInit</text>
</g>
<!-- Node2 -->
<g id="node2" class="node"><title>Node2</title>
<a xlink:href="../../d8/d68/structmozilla_1_1dom_1_1_event_init.html" target="_top" xlink:title="mozilla::dom::EventInit">
<polygon fill="white" stroke="black" points="39.5,-72.5 39.5,-93.5 156.5,-93.5 156.5,-72.5 39.5,-72.5"/>
<text text-anchor="middle" x="98" y="-80.5" font-family="Helvetica,sans-Serif" font-size="10.00">mozilla::dom::EventInit</text>
</a>
</g>
<!-- Node2&#45;&gt;Node1 -->
<g id="edge2" class="edge"><title>Node2&#45;&gt;Node1</title>
<path fill="none" stroke="midnightblue" d="M122.901,-66.8481C144.171,-53.0514 174.163,-33.597 192.554,-21.6674"/>
<polygon fill="midnightblue" stroke="midnightblue" points="120.863,-63.9978 114.378,-72.3762 124.673,-69.8706 120.863,-63.9978"/>
</g>
<!-- Node3 -->
<g id="node4" class="node"><title>Node3</title>
<a xlink:href="../../d5/d9f/structmozilla_1_1dom_1_1_main_thread_dictionary_base.html" target="_top" xlink:title="mozilla::dom::MainThreadDictionaryBase">
<polygon fill="white" stroke="black" points="0,-132.5 0,-153.5 196,-153.5 196,-132.5 0,-132.5"/>
<text text-anchor="middle" x="98" y="-140.5" font-family="Helvetica,sans-Serif" font-size="10.00">mozilla::dom::MainThreadDictionaryBase</text>
</a>
</g>
<!-- Node3&#45;&gt;Node2 -->
<g id="edge4" class="edge"><title>Node3&#45;&gt;Node2</title>
<path fill="none" stroke="midnightblue" d="M98,-122.231C98,-112.592 98,-101.544 98,-93.6339"/>
<polygon fill="midnightblue" stroke="midnightblue" points="94.5001,-122.273 98,-132.273 101.5,-122.273 94.5001,-122.273"/>
</g>
<!-- Node4 -->
<g id="node6" class="node"><title>Node4</title>
<a xlink:href="../../d6/d60/structmozilla_1_1dom_1_1_dictionary_base.html" target="_top" xlink:title="mozilla::dom::DictionaryBase">
<polygon fill="white" stroke="black" points="25.5,-192.5 25.5,-213.5 170.5,-213.5 170.5,-192.5 25.5,-192.5"/>
<text text-anchor="middle" x="98" y="-200.5" font-family="Helvetica,sans-Serif" font-size="10.00">mozilla::dom::DictionaryBase</text>
</a>
</g>
<!-- Node4&#45;&gt;Node3 -->
<g id="edge6" class="edge"><title>Node4&#45;&gt;Node3</title>
<path fill="none" stroke="midnightblue" d="M98,-182.231C98,-172.592 98,-161.544 98,-153.634"/>
<polygon fill="midnightblue" stroke="midnightblue" points="94.5001,-182.273 98,-192.273 101.5,-182.273 94.5001,-182.273"/>
</g>
<!-- Node5 -->
<g id="node8" class="node"><title>Node5</title>
<a xlink:href="../../d0/d01/classns_ref_ptr.html" target="_top" xlink:title="nsRefPtr\&lt; nsIDOMStorage \&gt;">
<polygon fill="white" stroke="black" points="174,-72.5 174,-93.5 318,-93.5 318,-72.5 174,-72.5"/>
<text text-anchor="middle" x="246" y="-80.5" font-family="Helvetica,sans-Serif" font-size="10.00">nsRefPtr&lt; nsIDOMStorage &gt;</text>
</a>
</g>
<!-- Node5&#45;&gt;Node1 -->
<g id="edge8" class="edge"><title>Node5&#45;&gt;Node1</title>
<path fill="none" stroke="#9a32cd" stroke-dasharray="5,2" d="M235.938,-63.4193C229.028,-49.9734 220.12,-32.6384 214.482,-21.6674"/>
<polygon fill="#9a32cd" stroke="#9a32cd" points="232.857,-65.0816 240.541,-72.3762 239.083,-61.8821 232.857,-65.0816"/>
<text text-anchor="middle" x="263" y="-44.5" font-family="Helvetica,sans-Serif" font-size="10.00"> mStorageArea</text>
</g>
</g>
</svg>
