<?xml version="1.0" encoding="UTF-8" standalone="no"?>
<!DOCTYPE svg PUBLIC "-//W3C//DTD SVG 1.1//EN"
 "http://www.w3.org/Graphics/SVG/1.1/DTD/svg11.dtd">
<!-- Generated by graphviz version 2.26.3 (20100126.1600)
 -->
<!-- Title: G Pages: 1 -->
<!--zoomable 150 -->
<svg id="main" version="1.1" xmlns="http://www.w3.org/2000/svg" xmlns:xlink="http://www.w3.org/1999/xlink" xml:space="preserve" onload="init(evt)">
        <defs>
                <circle id="rim" cx="0" cy="0" r="7"/>
                <circle id="rim2" cx="0" cy="0" r="3.5"/>
                <g id="zoomPlus">
                        <use xlink:href="#rim" fill="#404040">
                                <set attributeName="fill" to="#808080" begin="zoomplus.mouseover" end="zoomplus.mouseout"/>
                        </use>
                        <path d="M-4,0h8M0,-4v8" fill="none" stroke="white" stroke-width="1.5" pointer-events="none"/>
                </g>
                <g id="zoomMin">
                        <use xlink:href="#rim" fill="#404040">
                                <set attributeName="fill" to="#808080" begin="zoomminus.mouseover" end="zoomminus.mouseout"/>
                        </use>
                        <path d="M-4,0h8" fill="none" stroke="white" stroke-width="1.5" pointer-events="none"/>
                </g>
                <g id="dirArrow">
                        <path fill="none" stroke="white" stroke-width="1.5" d="M0,-3.0v7 M-2.5,-0.5L0,-3.0L2.5,-0.5"/>
                </g>
               <g id="resetDef">
                       <use xlink:href="#rim2" fill="#404040">
                               <set attributeName="fill" to="#808080" begin="reset.mouseover" end="reset.mouseout"/>
                       </use>
               </g>
        </defs>

<script type="text/javascript">
var viewWidth = 514;
var viewHeight = 150;
var sectionId = 'dynsection-4';
</script>
<script xlink:href="../../svgpan.js"/>
<svg id="graph" class="graph">
<g id="viewport">
<title>G</title>
<polygon fill="white" stroke="white" points="-4,5 -4,-146 511,-146 511,5 -4,5"/>
<!-- Node1 -->
<g id="node1" class="node"><title>Node1</title>
<polygon fill="#bfbfbf" stroke="black" points="0.5,-40.5 0.5,-61.5 77.5,-61.5 77.5,-40.5 0.5,-40.5"/>
<text text-anchor="middle" x="39" y="-48.5" font-family="Helvetica,sans-Serif" font-size="10.00">SkRefCnt::ref</text>
</g>
<!-- Node2 -->
<g id="node3" class="node"><title>Node2</title>
<a xlink:href="../../d6/d68/class_gr_effect.html#ae14830dcb6c6023768103d5accb10743" target="_top" xlink:title="GrEffect::CreateEffectRef">
<polygon fill="white" stroke="black" points="127.5,-80.5 127.5,-101.5 258.5,-101.5 258.5,-80.5 127.5,-80.5"/>
<text text-anchor="middle" x="193" y="-88.5" font-family="Helvetica,sans-Serif" font-size="10.00">GrEffect::CreateEffectRef</text>
</a>
</g>
<!-- Node1&#45;&gt;Node2 -->
<g id="edge2" class="edge"><title>Node1&#45;&gt;Node2</title>
<path fill="none" stroke="midnightblue" d="M87.3431,-63.9877C96.2048,-66.3411 105.377,-68.7588 114,-71 125.913,-74.0962 138.853,-77.3979 150.746,-80.4077"/>
<polygon fill="midnightblue" stroke="midnightblue" points="88.0793,-60.5619 77.5154,-61.3708 86.278,-67.3262 88.0793,-60.5619"/>
</g>
<!-- Node5 -->
<g id="node9" class="node"><title>Node5</title>
<a xlink:href="../../df/d77/class_gr_context_factory.html#a415d737aa7b1abfd6fdef89467b42747" target="_top" xlink:title="GrContextFactory::get">
<polygon fill="white" stroke="black" points="136,-40.5 136,-61.5 250,-61.5 250,-40.5 136,-40.5"/>
<text text-anchor="middle" x="193" y="-48.5" font-family="Helvetica,sans-Serif" font-size="10.00">GrContextFactory::get</text>
</a>
</g>
<!-- Node1&#45;&gt;Node5 -->
<g id="edge8" class="edge"><title>Node1&#45;&gt;Node5</title>
<path fill="none" stroke="midnightblue" d="M88.0726,-51C103.261,-51 120.126,-51 135.813,-51"/>
<polygon fill="midnightblue" stroke="midnightblue" points="87.8607,-47.5001 77.8607,-51 87.8607,-54.5001 87.8607,-47.5001"/>
</g>
<!-- Node7 -->
<g id="node13" class="node"><title>Node7</title>
<a xlink:href="../../d6/d68/class_gr_effect.html#ad59398367993ded017ec9954d75a1f6d" target="_top" xlink:title="GrEffect::incDeferredRefCounts">
<polygon fill="white" stroke="black" points="114.5,-0.5 114.5,-21.5 271.5,-21.5 271.5,-0.5 114.5,-0.5"/>
<text text-anchor="middle" x="193" y="-8.5" font-family="Helvetica,sans-Serif" font-size="10.00">GrEffect::incDeferredRefCounts</text>
</a>
</g>
<!-- Node1&#45;&gt;Node7 -->
<g id="edge12" class="edge"><title>Node1&#45;&gt;Node7</title>
<path fill="none" stroke="midnightblue" d="M87.3431,-38.0123C96.2048,-35.6589 105.377,-33.2412 114,-31 125.913,-27.9038 138.853,-24.6021 150.746,-21.5923"/>
<polygon fill="midnightblue" stroke="midnightblue" points="86.278,-34.6738 77.5154,-40.6292 88.0793,-41.4381 86.278,-34.6738"/>
</g>
<!-- Node3 -->
<g id="node5" class="node"><title>Node3</title>
<a xlink:href="../../d4/d7e/class_gr_effect_stage_1_1_deferred_stage.html#a6a970b11b43efb297803d5f9e9c1dcfc" target="_top" xlink:title="GrEffectStage::DeferredStage::restoreTo">
<polygon fill="white" stroke="black" points="309.5,-120.5 309.5,-141.5 504.5,-141.5 504.5,-120.5 309.5,-120.5"/>
<text text-anchor="middle" x="407" y="-128.5" font-family="Helvetica,sans-Serif" font-size="10.00">GrEffectStage::DeferredStage::restoreTo</text>
</a>
</g>
<!-- Node2&#45;&gt;Node3 -->
<g id="edge4" class="edge"><title>Node2&#45;&gt;Node3</title>
<path fill="none" stroke="midnightblue" d="M259.374,-103.406C288.676,-108.883 322.753,-115.253 350.778,-120.491"/>
<polygon fill="midnightblue" stroke="midnightblue" points="259.699,-99.9065 249.226,-101.51 258.413,-106.787 259.699,-99.9065"/>
</g>
<!-- Node4 -->
<g id="node7" class="node"><title>Node4</title>
<a xlink:href="../../d6/d68/class_gr_effect.html#a7aa790b0c442a75e55c772928411e028" target="_top" xlink:title="GrEffect::CreateEffectRef">
<polygon fill="white" stroke="black" points="341.5,-80.5 341.5,-101.5 472.5,-101.5 472.5,-80.5 341.5,-80.5"/>
<text text-anchor="middle" x="407" y="-88.5" font-family="Helvetica,sans-Serif" font-size="10.00">GrEffect::CreateEffectRef</text>
</a>
</g>
<!-- Node2&#45;&gt;Node4 -->
<g id="edge6" class="edge"><title>Node2&#45;&gt;Node4</title>
<path fill="none" stroke="midnightblue" d="M268.69,-91C292.45,-91 318.467,-91 341.463,-91"/>
<polygon fill="midnightblue" stroke="midnightblue" points="268.661,-87.5001 258.661,-91 268.661,-94.5001 268.661,-87.5001"/>
</g>
<!-- Node6 -->
<g id="node11" class="node"><title>Node6</title>
<a xlink:href="../../df/d7d/classxpidl_1_1_builtin_location.html#a695d8c1b7c51a03609e41e8c8d4f19f1" target="_top" xlink:title="xpidl.BuiltinLocation.__str__">
<polygon fill="white" stroke="black" points="337.5,-40.5 337.5,-61.5 476.5,-61.5 476.5,-40.5 337.5,-40.5"/>
<text text-anchor="middle" x="407" y="-48.5" font-family="Helvetica,sans-Serif" font-size="10.00">xpidl.BuiltinLocation.__str__</text>
</a>
</g>
<!-- Node5&#45;&gt;Node6 -->
<g id="edge10" class="edge"><title>Node5&#45;&gt;Node6</title>
<path fill="none" stroke="midnightblue" d="M260.329,-51C284.778,-51 312.444,-51 337.109,-51"/>
<polygon fill="midnightblue" stroke="midnightblue" points="260.067,-47.5001 250.067,-51 260.067,-54.5001 260.067,-47.5001"/>
</g>
<!-- Node8 -->
<g id="node15" class="node"><title>Node8</title>
<a xlink:href="../../d4/d7e/class_gr_effect_stage_1_1_deferred_stage.html#a9c02b1ac90f59fa11aa8e4571ada9d05" target="_top" xlink:title="GrEffectStage::DeferredStage::saveFrom">
<polygon fill="white" stroke="black" points="308.5,-0.5 308.5,-21.5 505.5,-21.5 505.5,-0.5 308.5,-0.5"/>
<text text-anchor="middle" x="407" y="-8.5" font-family="Helvetica,sans-Serif" font-size="10.00">GrEffectStage::DeferredStage::saveFrom</text>
</a>
</g>
<!-- Node7&#45;&gt;Node8 -->
<g id="edge14" class="edge"><title>Node7&#45;&gt;Node8</title>
<path fill="none" stroke="midnightblue" d="M281.934,-11C290.667,-11 299.564,-11 308.385,-11"/>
<polygon fill="midnightblue" stroke="midnightblue" points="281.774,-7.5001 271.774,-11 281.774,-14.5001 281.774,-7.5001"/>
</g>
</g>
</svg>
        <g id="navigator" transform="translate(0 0)" fill="#404254">
                <rect fill="#f2f5e9" fill-opacity="0.5" stroke="#606060" stroke-width=".5" x="0" y="0" width="60" height="60"/>
                <use id="zoomplus" xlink:href="#zoomPlus" x="17" y="9" onmousedown="handleZoom(evt,'in')"/>
                <use id="zoomminus" xlink:href="#zoomMin" x="42" y="9" onmousedown="handleZoom(evt,'out')"/>
                <use id="reset" xlink:href="#resetDef" x="30" y="36" onmousedown="handleReset()"/>
                <g id="arrowUp" xlink:href="#dirArrow" transform="translate(30 24)" onmousedown="handlePan(0,-1)">
                  <use xlink:href="#rim" fill="#404040">
                        <set attributeName="fill" to="#808080" begin="arrowUp.mouseover" end="arrowUp.mouseout"/>
                  </use>
                  <path fill="none" stroke="white" stroke-width="1.5" d="M0,-3.0v7 M-2.5,-0.5L0,-3.0L2.5,-0.5"/>
                </g>
                <g id="arrowRight" xlink:href="#dirArrow" transform="rotate(90) translate(36 -43)" onmousedown="handlePan(1,0)">
                  <use xlink:href="#rim" fill="#404040">
                        <set attributeName="fill" to="#808080" begin="arrowRight.mouseover" end="arrowRight.mouseout"/>
                  </use>
                  <path fill="none" stroke="white" stroke-width="1.5" d="M0,-3.0v7 M-2.5,-0.5L0,-3.0L2.5,-0.5"/>
                </g>
                <g id="arrowDown" xlink:href="#dirArrow" transform="rotate(180) translate(-30 -48)" onmousedown="handlePan(0,1)">
                  <use xlink:href="#rim" fill="#404040">
                        <set attributeName="fill" to="#808080" begin="arrowDown.mouseover" end="arrowDown.mouseout"/>
                  </use>
                  <path fill="none" stroke="white" stroke-width="1.5" d="M0,-3.0v7 M-2.5,-0.5L0,-3.0L2.5,-0.5"/>
                </g>
                <g id="arrowLeft" xlink:href="#dirArrow" transform="rotate(270) translate(-36 17)" onmousedown="handlePan(-1,0)">
                  <use xlink:href="#rim" fill="#404040">
                        <set attributeName="fill" to="#808080" begin="arrowLeft.mouseover" end="arrowLeft.mouseout"/>
                  </use>
                  <path fill="none" stroke="white" stroke-width="1.5" d="M0,-3.0v7 M-2.5,-0.5L0,-3.0L2.5,-0.5"/>
                </g>
        </g>
</svg>
