<?xml version="1.0" encoding="UTF-8" standalone="no"?>
<!DOCTYPE svg PUBLIC "-//W3C//DTD SVG 1.1//EN"
 "http://www.w3.org/Graphics/SVG/1.1/DTD/svg11.dtd">
<!-- Generated by graphviz version 2.26.3 (20100126.1600)
 -->
<!-- Title: G Pages: 1 -->
<svg width="142pt" height="320pt"
 viewBox="0.00 0.00 142.00 320.00" xmlns="http://www.w3.org/2000/svg" xmlns:xlink="http://www.w3.org/1999/xlink">
<g id="graph1" class="graph" transform="scale(1 1) rotate(0) translate(4 316)">
<title>G</title>
<polygon fill="white" stroke="white" points="-4,5 -4,-316 139,-316 139,5 -4,5"/>
<!-- Node1 -->
<g id="node1" class="node"><title>Node1</title>
<polygon fill="#bfbfbf" stroke="black" points="30.5,-116.5 30.5,-137.5 103.5,-137.5 103.5,-116.5 30.5,-116.5"/>
<text text-anchor="middle" x="67" y="-124.5" font-family="Helvetica,sans-Serif" font-size="10.00">nsIDOMText</text>
</g>
<!-- Node5 -->
<g id="node12" class="node"><title>Node5</title>
<a xlink:href="../../db/dda/interfacens_i_d_o_m_c_d_a_t_a_section.html" target="_top" xlink:title="nsIDOMCDATASection">
<polygon fill="white" stroke="black" points="6.5,-58.5 6.5,-79.5 127.5,-79.5 127.5,-58.5 6.5,-58.5"/>
<text text-anchor="middle" x="67" y="-66.5" font-family="Helvetica,sans-Serif" font-size="10.00">nsIDOMCDATASection</text>
</a>
</g>
<!-- Node1&#45;&gt;Node5 -->
<g id="edge14" class="edge"><title>Node1&#45;&gt;Node5</title>
<path fill="none" stroke="midnightblue" d="M60.4952,-106.191C59.9414,-97.1684 60.3257,-86.9941 61.6479,-79.5707"/>
<polygon fill="midnightblue" stroke="midnightblue" points="57.0431,-106.814 61.6359,-116.362 63.9995,-106.034 57.0431,-106.814"/>
</g>
<!-- Node1&#45;&gt;Node5 -->
<g id="edge18" class="edge"><title>Node1&#45;&gt;Node5</title>
<path fill="none" stroke="midnightblue" d="M73.5048,-106.191C74.0586,-97.1684 73.6743,-86.9941 72.3521,-79.5707"/>
<polygon fill="midnightblue" stroke="midnightblue" points="70.0005,-106.034 72.3641,-116.362 76.9569,-106.814 70.0005,-106.034"/>
</g>
<!-- Node2 -->
<g id="node2" class="node"><title>Node2</title>
<a xlink:href="../../d3/d72/interfacens_i_d_o_m_character_data.html" target="_top" xlink:title="nsIDOMCharacterData">
<polygon fill="white" stroke="black" points="8.5,-174.5 8.5,-195.5 125.5,-195.5 125.5,-174.5 8.5,-174.5"/>
<text text-anchor="middle" x="67" y="-182.5" font-family="Helvetica,sans-Serif" font-size="10.00">nsIDOMCharacterData</text>
</a>
</g>
<!-- Node2&#45;&gt;Node1 -->
<g id="edge2" class="edge"><title>Node2&#45;&gt;Node1</title>
<path fill="none" stroke="midnightblue" d="M60.4952,-164.191C59.9414,-155.168 60.3257,-144.994 61.6479,-137.571"/>
<polygon fill="midnightblue" stroke="midnightblue" points="57.0431,-164.814 61.6359,-174.362 63.9995,-164.034 57.0431,-164.814"/>
</g>
<!-- Node2&#45;&gt;Node1 -->
<g id="edge12" class="edge"><title>Node2&#45;&gt;Node1</title>
<path fill="none" stroke="midnightblue" d="M73.5048,-164.191C74.0586,-155.168 73.6743,-144.994 72.3521,-137.571"/>
<polygon fill="midnightblue" stroke="midnightblue" points="70.0005,-164.034 72.3641,-174.362 76.9569,-164.814 70.0005,-164.034"/>
</g>
<!-- Node3 -->
<g id="node4" class="node"><title>Node3</title>
<a xlink:href="../../da/da2/interfacens_i_d_o_m_node.html" target="_top" xlink:title="nsIDOMNode">
<polygon fill="white" stroke="black" points="28.5,-232.5 28.5,-253.5 105.5,-253.5 105.5,-232.5 28.5,-232.5"/>
<text text-anchor="middle" x="67" y="-240.5" font-family="Helvetica,sans-Serif" font-size="10.00">nsIDOMNode</text>
</a>
</g>
<!-- Node3&#45;&gt;Node2 -->
<g id="edge4" class="edge"><title>Node3&#45;&gt;Node2</title>
<path fill="none" stroke="midnightblue" d="M60.4952,-222.191C59.9414,-213.168 60.3257,-202.994 61.6479,-195.571"/>
<polygon fill="midnightblue" stroke="midnightblue" points="57.0431,-222.814 61.6359,-232.362 63.9995,-222.034 57.0431,-222.814"/>
</g>
<!-- Node3&#45;&gt;Node2 -->
<g id="edge10" class="edge"><title>Node3&#45;&gt;Node2</title>
<path fill="none" stroke="midnightblue" d="M73.5048,-222.191C74.0586,-213.168 73.6743,-202.994 72.3521,-195.571"/>
<polygon fill="midnightblue" stroke="midnightblue" points="70.0005,-222.034 72.3641,-232.362 76.9569,-222.814 70.0005,-222.034"/>
</g>
<!-- Node4 -->
<g id="node6" class="node"><title>Node4</title>
<a xlink:href="../../d4/d6a/classns_i_supports.html" target="_top" xlink:title="nsISupports">
<polygon fill="white" stroke="black" points="32.5,-290.5 32.5,-311.5 101.5,-311.5 101.5,-290.5 32.5,-290.5"/>
<text text-anchor="middle" x="67" y="-298.5" font-family="Helvetica,sans-Serif" font-size="10.00">nsISupports</text>
</a>
</g>
<!-- Node4&#45;&gt;Node3 -->
<g id="edge6" class="edge"><title>Node4&#45;&gt;Node3</title>
<path fill="none" stroke="midnightblue" d="M60.4952,-280.191C59.9414,-271.168 60.3257,-260.994 61.6479,-253.571"/>
<polygon fill="midnightblue" stroke="midnightblue" points="57.0431,-280.814 61.6359,-290.362 63.9995,-280.034 57.0431,-280.814"/>
</g>
<!-- Node4&#45;&gt;Node3 -->
<g id="edge8" class="edge"><title>Node4&#45;&gt;Node3</title>
<path fill="none" stroke="midnightblue" d="M73.5048,-280.191C74.0586,-271.168 73.6743,-260.994 72.3521,-253.571"/>
<polygon fill="midnightblue" stroke="midnightblue" points="70.0005,-280.034 72.3641,-290.362 76.9569,-280.814 70.0005,-280.034"/>
</g>
<!-- Node6 -->
<g id="node14" class="node"><title>Node6</title>
<a xlink:href="../../d7/d1d/classmozilla_1_1dom_1_1_m_o_z___f_i_n_a_l.html" target="_top" xlink:title="mozilla::dom::MOZ_FINAL">
<polygon fill="white" stroke="black" points="0,-0.5 0,-21.5 134,-21.5 134,-0.5 0,-0.5"/>
<text text-anchor="middle" x="67" y="-8.5" font-family="Helvetica,sans-Serif" font-size="10.00">mozilla::dom::MOZ_FINAL</text>
</a>
</g>
<!-- Node5&#45;&gt;Node6 -->
<g id="edge16" class="edge"><title>Node5&#45;&gt;Node6</title>
<path fill="none" stroke="midnightblue" d="M67,-48.1906C67,-39.1684 67,-28.9941 67,-21.5707"/>
<polygon fill="midnightblue" stroke="midnightblue" points="63.5001,-48.3619 67,-58.3619 70.5001,-48.3619 63.5001,-48.3619"/>
</g>
</g>
</svg>
