<?xml version="1.0" encoding="UTF-8" standalone="no"?>
<!DOCTYPE svg PUBLIC "-//W3C//DTD SVG 1.1//EN"
 "http://www.w3.org/Graphics/SVG/1.1/DTD/svg11.dtd">
<!-- Generated by graphviz version 2.26.3 (20100126.1600)
 -->
<!-- Title: G Pages: 1 -->
<!--zoomable 262 -->
<svg id="main" version="1.1" xmlns="http://www.w3.org/2000/svg" xmlns:xlink="http://www.w3.org/1999/xlink" xml:space="preserve" onload="init(evt)">
        <defs>
                <circle id="rim" cx="0" cy="0" r="7"/>
                <circle id="rim2" cx="0" cy="0" r="3.5"/>
                <g id="zoomPlus">
                        <use xlink:href="#rim" fill="#404040">
                                <set attributeName="fill" to="#808080" begin="zoomplus.mouseover" end="zoomplus.mouseout"/>
                        </use>
                        <path d="M-4,0h8M0,-4v8" fill="none" stroke="white" stroke-width="1.5" pointer-events="none"/>
                </g>
                <g id="zoomMin">
                        <use xlink:href="#rim" fill="#404040">
                                <set attributeName="fill" to="#808080" begin="zoomminus.mouseover" end="zoomminus.mouseout"/>
                        </use>
                        <path d="M-4,0h8" fill="none" stroke="white" stroke-width="1.5" pointer-events="none"/>
                </g>
                <g id="dirArrow">
                        <path fill="none" stroke="white" stroke-width="1.5" d="M0,-3.0v7 M-2.5,-0.5L0,-3.0L2.5,-0.5"/>
                </g>
               <g id="resetDef">
                       <use xlink:href="#rim2" fill="#404040">
                               <set attributeName="fill" to="#808080" begin="reset.mouseover" end="reset.mouseout"/>
                       </use>
               </g>
        </defs>

<script type="text/javascript">
var viewWidth = 1894;
var viewHeight = 262;
var sectionId = 'dynsection-1';
</script>
<script xlink:href="../../svgpan.js"/>
<svg id="graph" class="graph">
<g id="viewport">
<title>G</title>
<polygon fill="white" stroke="white" points="-4,5 -4,-258 1891,-258 1891,5 -4,5"/>
<!-- Node1 -->
<g id="node1" class="node"><title>Node1</title>
<polygon fill="#bfbfbf" stroke="black" points="794.5,-232.5 794.5,-253.5 1143.5,-253.5 1143.5,-232.5 794.5,-232.5"/>
<text text-anchor="middle" x="969" y="-240.5" font-family="Helvetica,sans-Serif" font-size="10.00">/home/aoi/Documents/FxOS/B2G/gaia/xulrunner&#45;sdk/idl/nsIOutputStream.idl</text>
</g>
<!-- Node2 -->
<g id="node3" class="node"><title>Node2</title>
<a xlink:href="../../de/dcd/ns_i_async_output_stream_8idl.html" target="_top" xlink:title="/home/aoi/Documents/FxOS/B2G/gaia/xulrunner&#45;sdk/idl/nsIAsyncOutputStream.idl">
<polygon fill="white" stroke="black" points="-0.5,-174.5 -0.5,-195.5 376.5,-195.5 376.5,-174.5 -0.5,-174.5"/>
<text text-anchor="middle" x="188" y="-182.5" font-family="Helvetica,sans-Serif" font-size="10.00">/home/aoi/Documents/FxOS/B2G/gaia/xulrunner&#45;sdk/idl/nsIAsyncOutputStream.idl</text>
</a>
</g>
<!-- Node1&#45;&gt;Node2 -->
<g id="edge2" class="edge"><title>Node1&#45;&gt;Node2</title>
<path fill="none" stroke="midnightblue" d="M817.525,-231.751C676.399,-221.27 467.586,-205.763 329.698,-195.523"/>
<polygon fill="midnightblue" stroke="midnightblue" points="817.335,-235.246 827.567,-232.497 817.853,-228.266 817.335,-235.246"/>
</g>
<!-- Node4 -->
<g id="node7" class="node"><title>Node4</title>
<a xlink:href="../../d8/d51/ns_i_binary_output_stream_8idl.html" target="_top" xlink:title="/home/aoi/Documents/FxOS/B2G/gaia/xulrunner&#45;sdk/idl/nsIBinaryOutputStream.idl">
<polygon fill="white" stroke="black" points="393.5,-174.5 393.5,-195.5 770.5,-195.5 770.5,-174.5 393.5,-174.5"/>
<text text-anchor="middle" x="582" y="-182.5" font-family="Helvetica,sans-Serif" font-size="10.00">/home/aoi/Documents/FxOS/B2G/gaia/xulrunner&#45;sdk/idl/nsIBinaryOutputStream.idl</text>
</a>
</g>
<!-- Node1&#45;&gt;Node4 -->
<g id="edge6" class="edge"><title>Node1&#45;&gt;Node4</title>
<path fill="none" stroke="midnightblue" d="M888.849,-230.988C819.064,-220.529 718.9,-205.517 652.214,-195.523"/>
<polygon fill="midnightblue" stroke="midnightblue" points="888.509,-234.476 898.917,-232.497 889.546,-227.553 888.509,-234.476"/>
</g>
<!-- Node9 -->
<g id="node17" class="node"><title>Node9</title>
<a xlink:href="../../d7/d89/ns_i_buffered_streams_8idl.html" target="_top" xlink:title="/home/aoi/Documents/FxOS/B2G/gaia/xulrunner&#45;sdk/idl/nsIBufferedStreams.idl">
<polygon fill="white" stroke="black" points="788,-174.5 788,-195.5 1150,-195.5 1150,-174.5 788,-174.5"/>
<text text-anchor="middle" x="969" y="-182.5" font-family="Helvetica,sans-Serif" font-size="10.00">/home/aoi/Documents/FxOS/B2G/gaia/xulrunner&#45;sdk/idl/nsIBufferedStreams.idl</text>
</a>
</g>
<!-- Node1&#45;&gt;Node9 -->
<g id="edge16" class="edge"><title>Node1&#45;&gt;Node9</title>
<path fill="none" stroke="midnightblue" d="M969,-222.191C969,-213.168 969,-202.994 969,-195.571"/>
<polygon fill="midnightblue" stroke="midnightblue" points="965.5,-222.362 969,-232.362 972.5,-222.362 965.5,-222.362"/>
</g>
<!-- Node10 -->
<g id="node19" class="node"><title>Node10</title>
<a xlink:href="../../d7/da8/ns_i_file_streams_8idl.html" target="_top" xlink:title="/home/aoi/Documents/FxOS/B2G/gaia/xulrunner&#45;sdk/idl/nsIFileStreams.idl">
<polygon fill="white" stroke="black" points="1167.5,-174.5 1167.5,-195.5 1508.5,-195.5 1508.5,-174.5 1167.5,-174.5"/>
<text text-anchor="middle" x="1338" y="-182.5" font-family="Helvetica,sans-Serif" font-size="10.00">/home/aoi/Documents/FxOS/B2G/gaia/xulrunner&#45;sdk/idl/nsIFileStreams.idl</text>
</a>
</g>
<!-- Node1&#45;&gt;Node10 -->
<g id="edge18" class="edge"><title>Node1&#45;&gt;Node10</title>
<path fill="none" stroke="midnightblue" d="M1045.83,-230.923C1112.35,-220.468 1207.6,-205.497 1271.05,-195.523"/>
<polygon fill="midnightblue" stroke="midnightblue" points="1045.16,-227.486 1035.82,-232.497 1046.25,-234.401 1045.16,-227.486"/>
</g>
<!-- Node11 -->
<g id="node21" class="node"><title>Node11</title>
<a xlink:href="../../dd/d8d/ns_i_r_d_f_x_m_l_source_8idl.html" target="_top" xlink:title="/home/aoi/Documents/FxOS/B2G/gaia/xulrunner&#45;sdk/idl/nsIRDFXMLSource.idl">
<polygon fill="white" stroke="black" points="1526,-174.5 1526,-195.5 1886,-195.5 1886,-174.5 1526,-174.5"/>
<text text-anchor="middle" x="1706" y="-182.5" font-family="Helvetica,sans-Serif" font-size="10.00">/home/aoi/Documents/FxOS/B2G/gaia/xulrunner&#45;sdk/idl/nsIRDFXMLSource.idl</text>
</a>
</g>
<!-- Node1&#45;&gt;Node11 -->
<g id="edge20" class="edge"><title>Node1&#45;&gt;Node11</title>
<path fill="none" stroke="midnightblue" d="M1112.74,-231.688C1245.9,-221.208 1442.43,-205.743 1572.28,-195.523"/>
<polygon fill="midnightblue" stroke="midnightblue" points="1112.16,-228.223 1102.47,-232.497 1112.71,-235.201 1112.16,-228.223"/>
</g>
<!-- Node3 -->
<g id="node5" class="node"><title>Node3</title>
<a xlink:href="../../d1/dfa/ns_i_pipe_8idl.html" target="_top" xlink:title="/home/aoi/Documents/FxOS/B2G/gaia/xulrunner&#45;sdk/idl/nsIPipe.idl">
<polygon fill="white" stroke="black" points="34,-116.5 34,-137.5 342,-137.5 342,-116.5 34,-116.5"/>
<text text-anchor="middle" x="188" y="-124.5" font-family="Helvetica,sans-Serif" font-size="10.00">/home/aoi/Documents/FxOS/B2G/gaia/xulrunner&#45;sdk/idl/nsIPipe.idl</text>
</a>
</g>
<!-- Node2&#45;&gt;Node3 -->
<g id="edge4" class="edge"><title>Node2&#45;&gt;Node3</title>
<path fill="none" stroke="midnightblue" d="M188,-164.191C188,-155.168 188,-144.994 188,-137.571"/>
<polygon fill="midnightblue" stroke="midnightblue" points="184.5,-164.362 188,-174.362 191.5,-164.362 184.5,-164.362"/>
</g>
<!-- Node5 -->
<g id="node9" class="node"><title>Node5</title>
<a xlink:href="../../df/dac/ns_i_object_output_stream_8idl.html" target="_top" xlink:title="/home/aoi/Documents/FxOS/B2G/gaia/xulrunner&#45;sdk/idl/nsIObjectOutputStream.idl">
<polygon fill="white" stroke="black" points="393.5,-116.5 393.5,-137.5 770.5,-137.5 770.5,-116.5 393.5,-116.5"/>
<text text-anchor="middle" x="582" y="-124.5" font-family="Helvetica,sans-Serif" font-size="10.00">/home/aoi/Documents/FxOS/B2G/gaia/xulrunner&#45;sdk/idl/nsIObjectOutputStream.idl</text>
</a>
</g>
<!-- Node4&#45;&gt;Node5 -->
<g id="edge8" class="edge"><title>Node4&#45;&gt;Node5</title>
<path fill="none" stroke="midnightblue" d="M582,-164.191C582,-155.168 582,-144.994 582,-137.571"/>
<polygon fill="midnightblue" stroke="midnightblue" points="578.5,-164.362 582,-174.362 585.5,-164.362 578.5,-164.362"/>
</g>
<!-- Node6 -->
<g id="node11" class="node"><title>Node6</title>
<a xlink:href="../../dd/d5f/ns_i_startup_cache_8idl.html" target="_top" xlink:title="/home/aoi/Documents/FxOS/B2G/gaia/xulrunner&#45;sdk/idl/nsIStartupCache.idl">
<polygon fill="white" stroke="black" points="227,-58.5 227,-79.5 575,-79.5 575,-58.5 227,-58.5"/>
<text text-anchor="middle" x="401" y="-66.5" font-family="Helvetica,sans-Serif" font-size="10.00">/home/aoi/Documents/FxOS/B2G/gaia/xulrunner&#45;sdk/idl/nsIStartupCache.idl</text>
</a>
</g>
<!-- Node5&#45;&gt;Node6 -->
<g id="edge10" class="edge"><title>Node5&#45;&gt;Node6</title>
<path fill="none" stroke="midnightblue" d="M539.598,-113.413C507.305,-103.065 463.494,-89.0258 433.839,-79.5231"/>
<polygon fill="midnightblue" stroke="midnightblue" points="538.631,-116.778 549.222,-116.497 540.767,-110.112 538.631,-116.778"/>
</g>
<!-- Node7 -->
<g id="node13" class="node"><title>Node7</title>
<a xlink:href="../../d9/d61/ns_i_x_p_connect_8idl.html" target="_top" xlink:title="/home/aoi/Documents/FxOS/B2G/gaia/xulrunner&#45;sdk/idl/nsIXPConnect.idl">
<polygon fill="white" stroke="black" points="593,-58.5 593,-79.5 931,-79.5 931,-58.5 593,-58.5"/>
<text text-anchor="middle" x="762" y="-66.5" font-family="Helvetica,sans-Serif" font-size="10.00">/home/aoi/Documents/FxOS/B2G/gaia/xulrunner&#45;sdk/idl/nsIXPConnect.idl</text>
</a>
</g>
<!-- Node5&#45;&gt;Node7 -->
<g id="edge12" class="edge"><title>Node5&#45;&gt;Node7</title>
<path fill="none" stroke="midnightblue" d="M624.167,-113.413C656.282,-103.065 699.851,-89.0258 729.342,-79.5231"/>
<polygon fill="midnightblue" stroke="midnightblue" points="623.041,-110.098 614.597,-116.497 625.188,-116.761 623.041,-110.098"/>
</g>
<!-- Node8 -->
<g id="node15" class="node"><title>Node8</title>
<a xlink:href="../../da/d0a/ns_i_x_p_c_scriptable_8idl.html" target="_top" xlink:title="/home/aoi/Documents/FxOS/B2G/gaia/xulrunner&#45;sdk/idl/nsIXPCScriptable.idl">
<polygon fill="white" stroke="black" points="585.5,-0.5 585.5,-21.5 938.5,-21.5 938.5,-0.5 585.5,-0.5"/>
<text text-anchor="middle" x="762" y="-8.5" font-family="Helvetica,sans-Serif" font-size="10.00">/home/aoi/Documents/FxOS/B2G/gaia/xulrunner&#45;sdk/idl/nsIXPCScriptable.idl</text>
</a>
</g>
<!-- Node7&#45;&gt;Node8 -->
<g id="edge14" class="edge"><title>Node7&#45;&gt;Node8</title>
<path fill="none" stroke="midnightblue" d="M762,-48.1906C762,-39.1684 762,-28.9941 762,-21.5707"/>
<polygon fill="midnightblue" stroke="midnightblue" points="758.5,-48.3619 762,-58.3619 765.5,-48.3619 758.5,-48.3619"/>
</g>
</g>
</svg>
        <g id="navigator" transform="translate(0 0)" fill="#404254">
                <rect fill="#f2f5e9" fill-opacity="0.5" stroke="#606060" stroke-width=".5" x="0" y="0" width="60" height="60"/>
                <use id="zoomplus" xlink:href="#zoomPlus" x="17" y="9" onmousedown="handleZoom(evt,'in')"/>
                <use id="zoomminus" xlink:href="#zoomMin" x="42" y="9" onmousedown="handleZoom(evt,'out')"/>
                <use id="reset" xlink:href="#resetDef" x="30" y="36" onmousedown="handleReset()"/>
                <g id="arrowUp" xlink:href="#dirArrow" transform="translate(30 24)" onmousedown="handlePan(0,-1)">
                  <use xlink:href="#rim" fill="#404040">
                        <set attributeName="fill" to="#808080" begin="arrowUp.mouseover" end="arrowUp.mouseout"/>
                  </use>
                  <path fill="none" stroke="white" stroke-width="1.5" d="M0,-3.0v7 M-2.5,-0.5L0,-3.0L2.5,-0.5"/>
                </g>
                <g id="arrowRight" xlink:href="#dirArrow" transform="rotate(90) translate(36 -43)" onmousedown="handlePan(1,0)">
                  <use xlink:href="#rim" fill="#404040">
                        <set attributeName="fill" to="#808080" begin="arrowRight.mouseover" end="arrowRight.mouseout"/>
                  </use>
                  <path fill="none" stroke="white" stroke-width="1.5" d="M0,-3.0v7 M-2.5,-0.5L0,-3.0L2.5,-0.5"/>
                </g>
                <g id="arrowDown" xlink:href="#dirArrow" transform="rotate(180) translate(-30 -48)" onmousedown="handlePan(0,1)">
                  <use xlink:href="#rim" fill="#404040">
                        <set attributeName="fill" to="#808080" begin="arrowDown.mouseover" end="arrowDown.mouseout"/>
                  </use>
                  <path fill="none" stroke="white" stroke-width="1.5" d="M0,-3.0v7 M-2.5,-0.5L0,-3.0L2.5,-0.5"/>
                </g>
                <g id="arrowLeft" xlink:href="#dirArrow" transform="rotate(270) translate(-36 17)" onmousedown="handlePan(-1,0)">
                  <use xlink:href="#rim" fill="#404040">
                        <set attributeName="fill" to="#808080" begin="arrowLeft.mouseover" end="arrowLeft.mouseout"/>
                  </use>
                  <path fill="none" stroke="white" stroke-width="1.5" d="M0,-3.0v7 M-2.5,-0.5L0,-3.0L2.5,-0.5"/>
                </g>
        </g>
</svg>
