<?xml version="1.0" encoding="UTF-8" standalone="no"?>
<!DOCTYPE svg PUBLIC "-//W3C//DTD SVG 1.1//EN"
 "http://www.w3.org/Graphics/SVG/1.1/DTD/svg11.dtd">
<!-- Generated by graphviz version 2.26.3 (20100126.1600)
 -->
<!-- Title: G Pages: 1 -->
<svg width="364pt" height="146pt"
 viewBox="0.00 0.00 364.00 146.00" xmlns="http://www.w3.org/2000/svg" xmlns:xlink="http://www.w3.org/1999/xlink">
<g id="graph1" class="graph" transform="scale(1 1) rotate(0) translate(4 142)">
<title>G</title>
<polygon fill="white" stroke="white" points="-4,5 -4,-142 361,-142 361,5 -4,5"/>
<!-- Node1 -->
<g id="node1" class="node"><title>Node1</title>
<polygon fill="#bfbfbf" stroke="black" points="-0.5,-116.5 -0.5,-137.5 356.5,-137.5 356.5,-116.5 -0.5,-116.5"/>
<text text-anchor="middle" x="178" y="-124.5" font-family="Helvetica,sans-Serif" font-size="10.00">/home/aoi/Documents/FxOS/B2G/gaia/xulrunner&#45;sdk/include/vpx/vpx_codec.h</text>
</g>
<!-- Node2 -->
<g id="node3" class="node"><title>Node2</title>
<a xlink:href="../../d9/d93/vpx__integer_8h.html" target="_top" xlink:title="vpx_integer.h">
<polygon fill="white" stroke="black" points="95.5,-58.5 95.5,-79.5 170.5,-79.5 170.5,-58.5 95.5,-58.5"/>
<text text-anchor="middle" x="133" y="-66.5" font-family="Helvetica,sans-Serif" font-size="10.00">vpx_integer.h</text>
</a>
</g>
<!-- Node1&#45;&gt;Node2 -->
<g id="edge2" class="edge"><title>Node1&#45;&gt;Node2</title>
<path fill="none" stroke="midnightblue" d="M169.746,-116.362C163.53,-108.35 154.849,-97.1605 147.485,-87.6696"/>
<polygon fill="midnightblue" stroke="midnightblue" points="150.097,-85.326 141.201,-79.5707 144.566,-89.617 150.097,-85.326"/>
</g>
<!-- Node6 -->
<g id="node11" class="node"><title>Node6</title>
<a xlink:href="../../d7/d3c/vpx__image_8h.html" target="_top" xlink:title="Describes the vpx image descriptor and associated operations.">
<polygon fill="white" stroke="black" points="188,-58.5 188,-79.5 260,-79.5 260,-58.5 188,-58.5"/>
<text text-anchor="middle" x="224" y="-66.5" font-family="Helvetica,sans-Serif" font-size="10.00">vpx_image.h</text>
</a>
</g>
<!-- Node1&#45;&gt;Node6 -->
<g id="edge10" class="edge"><title>Node1&#45;&gt;Node6</title>
<path fill="none" stroke="midnightblue" d="M186.437,-116.362C192.792,-108.35 201.666,-97.1605 209.193,-87.6696"/>
<polygon fill="midnightblue" stroke="midnightblue" points="212.145,-89.5805 215.616,-79.5707 206.66,-85.2308 212.145,-89.5805"/>
</g>
<!-- Node3 -->
<g id="node5" class="node"><title>Node3</title>
<polygon fill="white" stroke="#bfbfbf" points="39,-0.5 39,-21.5 91,-21.5 91,-0.5 39,-0.5"/>
<text text-anchor="middle" x="65" y="-8.5" font-family="Helvetica,sans-Serif" font-size="10.00">stddef.h</text>
</g>
<!-- Node2&#45;&gt;Node3 -->
<g id="edge4" class="edge"><title>Node2&#45;&gt;Node3</title>
<path fill="none" stroke="midnightblue" d="M120.528,-58.3619C110.655,-49.9408 96.6675,-38.0105 85.2016,-28.2308"/>
<polygon fill="midnightblue" stroke="midnightblue" points="87.2729,-25.3972 77.3932,-21.5707 82.7302,-30.7231 87.2729,-25.3972"/>
</g>
<!-- Node4 -->
<g id="node7" class="node"><title>Node4</title>
<polygon fill="white" stroke="#bfbfbf" points="108.5,-0.5 108.5,-21.5 157.5,-21.5 157.5,-0.5 108.5,-0.5"/>
<text text-anchor="middle" x="133" y="-8.5" font-family="Helvetica,sans-Serif" font-size="10.00">stdint.h</text>
</g>
<!-- Node2&#45;&gt;Node4 -->
<g id="edge6" class="edge"><title>Node2&#45;&gt;Node4</title>
<path fill="none" stroke="midnightblue" d="M133,-58.3619C133,-50.9219 133,-40.7427 133,-31.7276"/>
<polygon fill="midnightblue" stroke="midnightblue" points="136.5,-31.5706 133,-21.5707 129.5,-31.5707 136.5,-31.5706"/>
</g>
<!-- Node5 -->
<g id="node9" class="node"><title>Node5</title>
<polygon fill="white" stroke="#bfbfbf" points="174.5,-0.5 174.5,-21.5 233.5,-21.5 233.5,-0.5 174.5,-0.5"/>
<text text-anchor="middle" x="204" y="-8.5" font-family="Helvetica,sans-Serif" font-size="10.00">inttypes.h</text>
</g>
<!-- Node2&#45;&gt;Node5 -->
<g id="edge8" class="edge"><title>Node2&#45;&gt;Node5</title>
<path fill="none" stroke="midnightblue" d="M146.022,-58.3619C156.431,-49.859 171.219,-37.7785 183.255,-27.9466"/>
<polygon fill="midnightblue" stroke="midnightblue" points="185.53,-30.6077 191.06,-21.5707 181.101,-25.1866 185.53,-30.6077"/>
</g>
</g>
</svg>
