<?xml version="1.0" encoding="UTF-8" standalone="no"?>
<!DOCTYPE svg PUBLIC "-//W3C//DTD SVG 1.1//EN"
 "http://www.w3.org/Graphics/SVG/1.1/DTD/svg11.dtd">
<!-- Generated by graphviz version 2.26.3 (20100126.1600)
 -->
<!-- Title: G Pages: 1 -->
<svg width="450pt" height="70pt"
 viewBox="0.00 0.00 450.00 70.00" xmlns="http://www.w3.org/2000/svg" xmlns:xlink="http://www.w3.org/1999/xlink">
<g id="graph1" class="graph" transform="scale(1 1) rotate(0) translate(4 66)">
<title>G</title>
<polygon fill="white" stroke="white" points="-4,5 -4,-66 447,-66 447,5 -4,5"/>
<!-- Node1 -->
<g id="node1" class="node"><title>Node1</title>
<polygon fill="#bfbfbf" stroke="black" points="0.5,-20.5 0.5,-41.5 69.5,-41.5 69.5,-20.5 0.5,-20.5"/>
<text text-anchor="middle" x="35" y="-28.5" font-family="Helvetica,sans-Serif" font-size="10.00">nsIntRegion</text>
</g>
<!-- Node2 -->
<g id="node3" class="node"><title>Node2</title>
<a xlink:href="../../da/d0a/classmozilla_1_1layers_1_1_layer_manager_composite.html#ae6ff5ed3c7d206555732ec517184701c" target="_top" xlink:title="mozilla::layers::LayerManagerComposite::CallThebesLayerDrawCallback">
<polygon fill="white" stroke="black" points="106.5,-40.5 106.5,-61.5 441.5,-61.5 441.5,-40.5 106.5,-40.5"/>
<text text-anchor="middle" x="274" y="-48.5" font-family="Helvetica,sans-Serif" font-size="10.00">mozilla::layers::LayerManagerComposite::CallThebesLayerDrawCallback</text>
</a>
</g>
<!-- Node1&#45;&gt;Node2 -->
<g id="edge2" class="edge"><title>Node1&#45;&gt;Node2</title>
<path fill="none" stroke="midnightblue" d="M79.9116,-34.7583C99.6079,-36.4065 123.809,-38.4317 148.356,-40.4858"/>
<polygon fill="midnightblue" stroke="midnightblue" points="80.0097,-31.2544 69.7527,-33.9082 79.4259,-38.23 80.0097,-31.2544"/>
</g>
<!-- Node3 -->
<g id="node5" class="node"><title>Node3</title>
<a xlink:href="../../d3/d03/classmozilla_1_1layers_1_1_layer_manager_o_g_l.html#a86486c15648b8da8c2c488bd47b727cb" target="_top" xlink:title="mozilla::layers::LayerManagerOGL::CallThebesLayerDrawCallback">
<polygon fill="white" stroke="black" points="120,-0.5 120,-21.5 428,-21.5 428,-0.5 120,-0.5"/>
<text text-anchor="middle" x="274" y="-8.5" font-family="Helvetica,sans-Serif" font-size="10.00">mozilla::layers::LayerManagerOGL::CallThebesLayerDrawCallback</text>
</a>
</g>
<!-- Node1&#45;&gt;Node3 -->
<g id="edge4" class="edge"><title>Node1&#45;&gt;Node3</title>
<path fill="none" stroke="midnightblue" d="M79.9116,-27.2417C99.6079,-25.5935 123.809,-23.5683 148.356,-21.5142"/>
<polygon fill="midnightblue" stroke="midnightblue" points="79.4259,-23.77 69.7527,-28.0918 80.0097,-30.7456 79.4259,-23.77"/>
</g>
</g>
</svg>
