<?xml version="1.0" encoding="UTF-8" standalone="no"?>
<!DOCTYPE svg PUBLIC "-//W3C//DTD SVG 1.1//EN"
 "http://www.w3.org/Graphics/SVG/1.1/DTD/svg11.dtd">
<!-- Generated by graphviz version 2.26.3 (20100126.1600)
 -->
<!-- Title: G Pages: 1 -->
<svg width="262pt" height="70pt"
 viewBox="0.00 0.00 262.00 70.00" xmlns="http://www.w3.org/2000/svg" xmlns:xlink="http://www.w3.org/1999/xlink">
<g id="graph1" class="graph" transform="scale(1 1) rotate(0) translate(4 66)">
<title>G</title>
<polygon fill="white" stroke="white" points="-4,5 -4,-66 259,-66 259,5 -4,5"/>
<!-- Node1 -->
<g id="node1" class="node"><title>Node1</title>
<polygon fill="#bfbfbf" stroke="black" points="0.5,-20.5 0.5,-41.5 93.5,-41.5 93.5,-20.5 0.5,-20.5"/>
<text text-anchor="middle" x="47" y="-28.5" font-family="Helvetica,sans-Serif" font-size="10.00">MOZ_FINAL::Set</text>
</g>
<!-- Node2 -->
<g id="node3" class="node"><title>Node2</title>
<a xlink:href="../../d9/df8/interfacens_i_d_o_m_range.html#a2b8155bfae72fb8976d765290b5602b6" target="_top" xlink:title="nsIDOMRange::SetEnd">
<polygon fill="white" stroke="black" points="132,-40.5 132,-61.5 252,-61.5 252,-40.5 132,-40.5"/>
<text text-anchor="middle" x="192" y="-48.5" font-family="Helvetica,sans-Serif" font-size="10.00">nsIDOMRange::SetEnd</text>
</a>
</g>
<!-- Node1&#45;&gt;Node2 -->
<g id="edge2" class="edge"><title>Node1&#45;&gt;Node2</title>
<path fill="none" stroke="midnightblue" d="M93.6771,-37.4382C102.709,-38.6841 112.357,-40.0148 121.947,-41.3376"/>
<polygon fill="midnightblue" stroke="midnightblue" points="121.508,-44.8101 131.893,-42.7093 122.465,-37.8757 121.508,-44.8101"/>
</g>
<!-- Node3 -->
<g id="node5" class="node"><title>Node3</title>
<a xlink:href="../../d9/df8/interfacens_i_d_o_m_range.html#aefb8f55130a84973eaf48495f7f05598" target="_top" xlink:title="nsIDOMRange::SetStart">
<polygon fill="white" stroke="black" points="130,-0.5 130,-21.5 254,-21.5 254,-0.5 130,-0.5"/>
<text text-anchor="middle" x="192" y="-8.5" font-family="Helvetica,sans-Serif" font-size="10.00">nsIDOMRange::SetStart</text>
</a>
</g>
<!-- Node1&#45;&gt;Node3 -->
<g id="edge4" class="edge"><title>Node1&#45;&gt;Node3</title>
<path fill="none" stroke="midnightblue" d="M93.6771,-24.5618C102.038,-23.4085 110.926,-22.1826 119.808,-20.9575"/>
<polygon fill="midnightblue" stroke="midnightblue" points="120.377,-24.4122 129.805,-19.5786 119.421,-17.4779 120.377,-24.4122"/>
</g>
</g>
</svg>
