<?xml version="1.0" encoding="UTF-8" standalone="no"?>
<!DOCTYPE svg PUBLIC "-//W3C//DTD SVG 1.1//EN"
 "http://www.w3.org/Graphics/SVG/1.1/DTD/svg11.dtd">
<!-- Generated by graphviz version 2.26.3 (20100126.1600)
 -->
<!-- Title: G Pages: 1 -->
<svg width="402pt" height="70pt"
 viewBox="0.00 0.00 402.00 70.00" xmlns="http://www.w3.org/2000/svg" xmlns:xlink="http://www.w3.org/1999/xlink">
<g id="graph1" class="graph" transform="scale(1 1) rotate(0) translate(4 66)">
<title>G</title>
<polygon fill="white" stroke="white" points="-4,5 -4,-66 399,-66 399,5 -4,5"/>
<!-- Node1 -->
<g id="node1" class="node"><title>Node1</title>
<polygon fill="#bfbfbf" stroke="black" points="0.5,-20.5 0.5,-41.5 207.5,-41.5 207.5,-20.5 0.5,-20.5"/>
<text text-anchor="middle" x="104" y="-28.5" font-family="Helvetica,sans-Serif" font-size="10.00">MOZ_FINAL::GetAnimationsForCompositor</text>
</g>
<!-- Node2 -->
<g id="node3" class="node"><title>Node2</title>
<a xlink:href="../../d7/de8/classns_i_node.html#ae3f7b718a3f2aaa918ce7f3435518d46" target="_top" xlink:title="nsINode::GetProperty">
<polygon fill="white" stroke="black" points="263,-40.5 263,-61.5 375,-61.5 375,-40.5 263,-40.5"/>
<text text-anchor="middle" x="319" y="-48.5" font-family="Helvetica,sans-Serif" font-size="10.00">nsINode::GetProperty</text>
</a>
</g>
<!-- Node1&#45;&gt;Node2 -->
<g id="edge2" class="edge"><title>Node1&#45;&gt;Node2</title>
<path fill="none" stroke="midnightblue" d="M207.721,-40.6485C223.016,-42.0712 238.412,-43.5035 252.67,-44.8298"/>
<polygon fill="midnightblue" stroke="midnightblue" points="252.553,-48.3339 262.834,-45.7752 253.201,-41.364 252.553,-48.3339"/>
</g>
<!-- Node3 -->
<g id="node5" class="node"><title>Node3</title>
<a xlink:href="../../d7/de8/classns_i_node.html#a21019111e86ce93ea4fef437a70b04f6" target="_top" xlink:title="nsINode::MayHaveAnimations">
<polygon fill="white" stroke="black" points="244,-0.5 244,-21.5 394,-21.5 394,-0.5 244,-0.5"/>
<text text-anchor="middle" x="319" y="-8.5" font-family="Helvetica,sans-Serif" font-size="10.00">nsINode::MayHaveAnimations</text>
</a>
</g>
<!-- Node1&#45;&gt;Node3 -->
<g id="edge4" class="edge"><title>Node1&#45;&gt;Node3</title>
<path fill="none" stroke="midnightblue" d="M207.721,-21.3515C216.348,-20.549 225.007,-19.7435 233.476,-18.9557"/>
<polygon fill="midnightblue" stroke="midnightblue" points="234.064,-22.4162 243.697,-18.0049 233.416,-15.4463 234.064,-22.4162"/>
</g>
</g>
</svg>
