<?xml version="1.0" encoding="UTF-8" standalone="no"?>
<!DOCTYPE svg PUBLIC "-//W3C//DTD SVG 1.1//EN"
 "http://www.w3.org/Graphics/SVG/1.1/DTD/svg11.dtd">
<!-- Generated by graphviz version 2.26.3 (20100126.1600)
 -->
<!-- Title: G Pages: 1 -->
<svg width="380pt" height="70pt"
 viewBox="0.00 0.00 380.00 70.00" xmlns="http://www.w3.org/2000/svg" xmlns:xlink="http://www.w3.org/1999/xlink">
<g id="graph1" class="graph" transform="scale(1 1) rotate(0) translate(4 66)">
<title>G</title>
<polygon fill="white" stroke="white" points="-4,5 -4,-66 377,-66 377,5 -4,5"/>
<!-- Node1 -->
<g id="node1" class="node"><title>Node1</title>
<polygon fill="#bfbfbf" stroke="black" points="0,-20.5 0,-41.5 130,-41.5 130,-20.5 0,-20.5"/>
<text text-anchor="middle" x="65" y="-28.5" font-family="Helvetica,sans-Serif" font-size="10.00">NS_NewRunnableMethod</text>
</g>
<!-- Node2 -->
<g id="node3" class="node"><title>Node2</title>
<a xlink:href="../../d3/d39/classmozilla_1_1net_1_1_http_async_aborter.html#a98df292b5cb69aa76d1b35439b944bac" target="_top" xlink:title="mozilla::net::HttpAsyncAborter::AsyncCall">
<polygon fill="white" stroke="black" points="168,-40.5 168,-61.5 370,-61.5 370,-40.5 168,-40.5"/>
<text text-anchor="middle" x="269" y="-48.5" font-family="Helvetica,sans-Serif" font-size="10.00">mozilla::net::HttpAsyncAborter::AsyncCall</text>
</a>
</g>
<!-- Node1&#45;&gt;Node2 -->
<g id="edge2" class="edge"><title>Node1&#45;&gt;Node2</title>
<path fill="none" stroke="midnightblue" d="M140.12,-38.3648C149.117,-39.2467 158.413,-40.1581 167.702,-41.0688"/>
<polygon fill="midnightblue" stroke="midnightblue" points="140.402,-34.8756 130.108,-37.3831 139.719,-41.8422 140.402,-34.8756"/>
</g>
<!-- Node3 -->
<g id="node5" class="node"><title>Node3</title>
<a xlink:href="../../d1/de9/classmozilla_1_1net_1_1_channel_event_queue.html#a1188142fb547fe16652f9c33f961977c" target="_top" xlink:title="mozilla::net::ChannelEventQueue::Resume">
<polygon fill="white" stroke="black" points="166,-0.5 166,-21.5 372,-21.5 372,-0.5 166,-0.5"/>
<text text-anchor="middle" x="269" y="-8.5" font-family="Helvetica,sans-Serif" font-size="10.00">mozilla::net::ChannelEventQueue::Resume</text>
</a>
</g>
<!-- Node1&#45;&gt;Node3 -->
<g id="edge4" class="edge"><title>Node1&#45;&gt;Node3</title>
<path fill="none" stroke="midnightblue" d="M140.18,-23.6294C148.556,-22.8082 157.192,-21.9615 165.84,-21.1138"/>
<polygon fill="midnightblue" stroke="midnightblue" points="139.719,-20.1578 130.108,-24.6169 140.402,-27.1244 139.719,-20.1578"/>
</g>
</g>
</svg>
