<?xml version="1.0" encoding="UTF-8" standalone="no"?>
<!DOCTYPE svg PUBLIC "-//W3C//DTD SVG 1.1//EN"
 "http://www.w3.org/Graphics/SVG/1.1/DTD/svg11.dtd">
<!-- Generated by graphviz version 2.26.3 (20100126.1600)
 -->
<!-- Title: G Pages: 1 -->
<!--zoomable 170 -->
<svg id="main" version="1.1" xmlns="http://www.w3.org/2000/svg" xmlns:xlink="http://www.w3.org/1999/xlink" xml:space="preserve" onload="init(evt)">
        <defs>
                <circle id="rim" cx="0" cy="0" r="7"/>
                <circle id="rim2" cx="0" cy="0" r="3.5"/>
                <g id="zoomPlus">
                        <use xlink:href="#rim" fill="#404040">
                                <set attributeName="fill" to="#808080" begin="zoomplus.mouseover" end="zoomplus.mouseout"/>
                        </use>
                        <path d="M-4,0h8M0,-4v8" fill="none" stroke="white" stroke-width="1.5" pointer-events="none"/>
                </g>
                <g id="zoomMin">
                        <use xlink:href="#rim" fill="#404040">
                                <set attributeName="fill" to="#808080" begin="zoomminus.mouseover" end="zoomminus.mouseout"/>
                        </use>
                        <path d="M-4,0h8" fill="none" stroke="white" stroke-width="1.5" pointer-events="none"/>
                </g>
                <g id="dirArrow">
                        <path fill="none" stroke="white" stroke-width="1.5" d="M0,-3.0v7 M-2.5,-0.5L0,-3.0L2.5,-0.5"/>
                </g>
               <g id="resetDef">
                       <use xlink:href="#rim2" fill="#404040">
                               <set attributeName="fill" to="#808080" begin="reset.mouseover" end="reset.mouseout"/>
                       </use>
               </g>
        </defs>

<script type="text/javascript">
var viewWidth = 880;
var viewHeight = 170;
var sectionId = 'dynsection-5';
</script>
<script xlink:href="../../svgpan.js"/>
<svg id="graph" class="graph">
<g id="viewport">
<title>G</title>
<polygon fill="white" stroke="white" points="-4,5 -4,-166 877,-166 877,5 -4,5"/>
<!-- Node1 -->
<g id="node1" class="node"><title>Node1</title>
<polygon fill="#bfbfbf" stroke="black" points="0.5,-60.5 0.5,-81.5 185.5,-81.5 185.5,-60.5 0.5,-60.5"/>
<text text-anchor="middle" x="93" y="-68.5" font-family="Helvetica,sans-Serif" font-size="10.00">sk_membar_aquire__after_atomic_dec</text>
</g>
<!-- Node2 -->
<g id="node3" class="node"><title>Node2</title>
<a xlink:href="../../da/dec/class_sk_ref_cnt.html#a38af7c1c38a521154b2f7e0a73e69bc4" target="_top" xlink:title="SkRefCnt::unref">
<polygon fill="white" stroke="black" points="249,-80.5 249,-101.5 337,-101.5 337,-80.5 249,-80.5"/>
<text text-anchor="middle" x="293" y="-88.5" font-family="Helvetica,sans-Serif" font-size="10.00">SkRefCnt::unref</text>
</a>
</g>
<!-- Node1&#45;&gt;Node2 -->
<g id="edge2" class="edge"><title>Node1&#45;&gt;Node2</title>
<path fill="none" stroke="midnightblue" d="M195.787,-81.2787C214.534,-83.1534 233.15,-85.015 248.997,-86.5997"/>
<polygon fill="midnightblue" stroke="midnightblue" points="195.98,-77.7807 185.682,-80.2682 195.284,-84.7459 195.98,-77.7807"/>
</g>
<!-- Node9 -->
<g id="node17" class="node"><title>Node9</title>
<a xlink:href="../../de/d4d/class_sk_weak_ref_cnt.html#acb9cc74646def17ad0fb64fdca6489bc" target="_top" xlink:title="SkWeakRefCnt::weak_unref">
<polygon fill="white" stroke="black" points="222,-40.5 222,-61.5 364,-61.5 364,-40.5 222,-40.5"/>
<text text-anchor="middle" x="293" y="-48.5" font-family="Helvetica,sans-Serif" font-size="10.00">SkWeakRefCnt::weak_unref</text>
</a>
</g>
<!-- Node1&#45;&gt;Node9 -->
<g id="edge16" class="edge"><title>Node1&#45;&gt;Node9</title>
<path fill="none" stroke="midnightblue" d="M195.674,-60.7326C204.527,-59.8473 213.352,-58.9648 221.871,-58.1129"/>
<polygon fill="midnightblue" stroke="midnightblue" points="195.284,-57.2541 185.682,-61.7318 195.98,-64.2193 195.284,-57.2541"/>
</g>
<!-- Node3 -->
<g id="node5" class="node"><title>Node3</title>
<a xlink:href="../../d6/d68/class_gr_effect.html#a69d462ab94941e8df400b389b2b774d9" target="_top" xlink:title="GrEffect::decDeferredRefCounts">
<polygon fill="white" stroke="black" points="426,-140.5 426,-161.5 586,-161.5 586,-140.5 426,-140.5"/>
<text text-anchor="middle" x="506" y="-148.5" font-family="Helvetica,sans-Serif" font-size="10.00">GrEffect::decDeferredRefCounts</text>
</a>
</g>
<!-- Node2&#45;&gt;Node3 -->
<g id="edge4" class="edge"><title>Node2&#45;&gt;Node3</title>
<path fill="none" stroke="midnightblue" d="M327.029,-105.427C347.814,-113.808 375.099,-124.052 400,-131 412.988,-134.624 427.054,-137.792 440.566,-140.473"/>
<polygon fill="midnightblue" stroke="midnightblue" points="328.259,-102.149 317.678,-101.605 325.611,-108.628 328.259,-102.149"/>
</g>
<!-- Node4 -->
<g id="node7" class="node"><title>Node4</title>
<a xlink:href="../../de/d55/class_gr_auto_scratch_texture.html#a1ad32392a36b22e32481c1ff70d2a921" target="_top" xlink:title="GrAutoScratchTexture::detach">
<polygon fill="white" stroke="black" points="431.5,-100.5 431.5,-121.5 580.5,-121.5 580.5,-100.5 431.5,-100.5"/>
<text text-anchor="middle" x="506" y="-108.5" font-family="Helvetica,sans-Serif" font-size="10.00">GrAutoScratchTexture::detach</text>
</a>
</g>
<!-- Node2&#45;&gt;Node4 -->
<g id="edge6" class="edge"><title>Node2&#45;&gt;Node4</title>
<path fill="none" stroke="midnightblue" d="M347.351,-96.1034C372.854,-98.498 403.654,-101.39 431.304,-103.986"/>
<polygon fill="midnightblue" stroke="midnightblue" points="347.417,-92.5943 337.134,-95.144 346.763,-99.5636 347.417,-92.5943"/>
</g>
<!-- Node5 -->
<g id="node9" class="node"><title>Node5</title>
<a xlink:href="../../d9/d93/class_gr_effect_1_1_auto_effect_unref.html#acaa9b525941b7effcff63a20225853fa" target="_top" xlink:title="GrEffect::AutoEffectUnref::~AutoEffectUnref">
<polygon fill="white" stroke="black" points="400,-60.5 400,-81.5 612,-81.5 612,-60.5 400,-60.5"/>
<text text-anchor="middle" x="506" y="-68.5" font-family="Helvetica,sans-Serif" font-size="10.00">GrEffect::AutoEffectUnref::~AutoEffectUnref</text>
</a>
</g>
<!-- Node2&#45;&gt;Node5 -->
<g id="edge8" class="edge"><title>Node2&#45;&gt;Node5</title>
<path fill="none" stroke="midnightblue" d="M347.401,-85.8919C363.523,-84.3781 381.759,-82.6659 399.975,-80.9554"/>
<polygon fill="midnightblue" stroke="midnightblue" points="346.763,-82.4364 337.134,-86.856 347.417,-89.4057 346.763,-82.4364"/>
</g>
<!-- Node6 -->
<g id="node11" class="node"><title>Node6</title>
<a xlink:href="../../de/d55/class_gr_auto_scratch_texture.html#a412ae6167b7eebe873c3ae8dfe1695b8" target="_top" xlink:title="GrAutoScratchTexture::reset">
<polygon fill="white" stroke="black" points="435,-20.5 435,-41.5 577,-41.5 577,-20.5 435,-20.5"/>
<text text-anchor="middle" x="506" y="-28.5" font-family="Helvetica,sans-Serif" font-size="10.00">GrAutoScratchTexture::reset</text>
</a>
</g>
<!-- Node2&#45;&gt;Node6 -->
<g id="edge10" class="edge"><title>Node2&#45;&gt;Node6</title>
<path fill="none" stroke="midnightblue" d="M346.661,-77.3307C352.579,-75.3969 358.463,-73.2815 364,-71 380.923,-64.0271 382.786,-57.221 400,-51 411.008,-47.0218 422.959,-43.794 434.736,-41.1872"/>
<polygon fill="midnightblue" stroke="midnightblue" points="345.238,-74.1074 336.722,-80.411 347.31,-80.7936 345.238,-74.1074"/>
</g>
<!-- Node7 -->
<g id="node13" class="node"><title>Node7</title>
<a xlink:href="../../de/d55/class_gr_auto_scratch_texture.html#a28cf65c22f03be45f91603fd559bdf1b" target="_top" xlink:title="GrAutoScratchTexture::~GrAutoScratchTexture">
<polygon fill="white" stroke="black" points="648,-40.5 648,-61.5 872,-61.5 872,-40.5 648,-40.5"/>
<text text-anchor="middle" x="760" y="-48.5" font-family="Helvetica,sans-Serif" font-size="10.00">GrAutoScratchTexture::~GrAutoScratchTexture</text>
</a>
</g>
<!-- Node6&#45;&gt;Node7 -->
<g id="edge12" class="edge"><title>Node6&#45;&gt;Node7</title>
<path fill="none" stroke="midnightblue" d="M587.265,-37.3988C606.447,-38.9092 627.235,-40.5461 647.522,-42.1435"/>
<polygon fill="midnightblue" stroke="midnightblue" points="587.335,-33.8936 577.091,-36.5977 586.785,-40.872 587.335,-33.8936"/>
</g>
<!-- Node8 -->
<g id="node15" class="node"><title>Node8</title>
<a xlink:href="../../de/d55/class_gr_auto_scratch_texture.html#a498325d8a611d8b487d19a9a2fd3ae11" target="_top" xlink:title="GrAutoScratchTexture::set">
<polygon fill="white" stroke="black" points="693,-0.5 693,-21.5 827,-21.5 827,-0.5 693,-0.5"/>
<text text-anchor="middle" x="760" y="-8.5" font-family="Helvetica,sans-Serif" font-size="10.00">GrAutoScratchTexture::set</text>
</a>
</g>
<!-- Node6&#45;&gt;Node8 -->
<g id="edge14" class="edge"><title>Node6&#45;&gt;Node8</title>
<path fill="none" stroke="midnightblue" d="M587.473,-24.5848C621.49,-21.9063 660.529,-18.8324 692.858,-16.2868"/>
<polygon fill="midnightblue" stroke="midnightblue" points="586.785,-21.128 577.091,-25.4023 587.335,-28.1064 586.785,-21.128"/>
</g>
</g>
</svg>
        <g id="navigator" transform="translate(0 0)" fill="#404254">
                <rect fill="#f2f5e9" fill-opacity="0.5" stroke="#606060" stroke-width=".5" x="0" y="0" width="60" height="60"/>
                <use id="zoomplus" xlink:href="#zoomPlus" x="17" y="9" onmousedown="handleZoom(evt,'in')"/>
                <use id="zoomminus" xlink:href="#zoomMin" x="42" y="9" onmousedown="handleZoom(evt,'out')"/>
                <use id="reset" xlink:href="#resetDef" x="30" y="36" onmousedown="handleReset()"/>
                <g id="arrowUp" xlink:href="#dirArrow" transform="translate(30 24)" onmousedown="handlePan(0,-1)">
                  <use xlink:href="#rim" fill="#404040">
                        <set attributeName="fill" to="#808080" begin="arrowUp.mouseover" end="arrowUp.mouseout"/>
                  </use>
                  <path fill="none" stroke="white" stroke-width="1.5" d="M0,-3.0v7 M-2.5,-0.5L0,-3.0L2.5,-0.5"/>
                </g>
                <g id="arrowRight" xlink:href="#dirArrow" transform="rotate(90) translate(36 -43)" onmousedown="handlePan(1,0)">
                  <use xlink:href="#rim" fill="#404040">
                        <set attributeName="fill" to="#808080" begin="arrowRight.mouseover" end="arrowRight.mouseout"/>
                  </use>
                  <path fill="none" stroke="white" stroke-width="1.5" d="M0,-3.0v7 M-2.5,-0.5L0,-3.0L2.5,-0.5"/>
                </g>
                <g id="arrowDown" xlink:href="#dirArrow" transform="rotate(180) translate(-30 -48)" onmousedown="handlePan(0,1)">
                  <use xlink:href="#rim" fill="#404040">
                        <set attributeName="fill" to="#808080" begin="arrowDown.mouseover" end="arrowDown.mouseout"/>
                  </use>
                  <path fill="none" stroke="white" stroke-width="1.5" d="M0,-3.0v7 M-2.5,-0.5L0,-3.0L2.5,-0.5"/>
                </g>
                <g id="arrowLeft" xlink:href="#dirArrow" transform="rotate(270) translate(-36 17)" onmousedown="handlePan(-1,0)">
                  <use xlink:href="#rim" fill="#404040">
                        <set attributeName="fill" to="#808080" begin="arrowLeft.mouseover" end="arrowLeft.mouseout"/>
                  </use>
                  <path fill="none" stroke="white" stroke-width="1.5" d="M0,-3.0v7 M-2.5,-0.5L0,-3.0L2.5,-0.5"/>
                </g>
        </g>
</svg>
