<?xml version="1.0" encoding="UTF-8" standalone="no"?>
<!DOCTYPE svg PUBLIC "-//W3C//DTD SVG 1.1//EN"
 "http://www.w3.org/Graphics/SVG/1.1/DTD/svg11.dtd">
<!-- Generated by graphviz version 2.26.3 (20100126.1600)
 -->
<!-- Title: G Pages: 1 -->
<svg width="110pt" height="146pt"
 viewBox="0.00 0.00 110.00 146.00" xmlns="http://www.w3.org/2000/svg" xmlns:xlink="http://www.w3.org/1999/xlink">
<g id="graph1" class="graph" transform="scale(1 1) rotate(0) translate(4 142)">
<title>G</title>
<polygon fill="white" stroke="white" points="-4,5 -4,-142 107,-142 107,5 -4,5"/>
<!-- Node1 -->
<g id="node1" class="node"><title>Node1</title>
<polygon fill="#bfbfbf" stroke="black" points="-0.5,-0.5 -0.5,-21.5 102.5,-21.5 102.5,-0.5 -0.5,-0.5"/>
<text text-anchor="middle" x="51" y="-8.5" font-family="Helvetica,sans-Serif" font-size="10.00">CWhitespaceToken</text>
</g>
<!-- Node2 -->
<g id="node2" class="node"><title>Node2</title>
<a xlink:href="../../db/d48/class_c_h_t_m_l_token.html" target="_top" xlink:title="CHTMLToken">
<polygon fill="white" stroke="black" points="12,-58.5 12,-79.5 90,-79.5 90,-58.5 12,-58.5"/>
<text text-anchor="middle" x="51" y="-66.5" font-family="Helvetica,sans-Serif" font-size="10.00">CHTMLToken</text>
</a>
</g>
<!-- Node2&#45;&gt;Node1 -->
<g id="edge2" class="edge"><title>Node2&#45;&gt;Node1</title>
<path fill="none" stroke="midnightblue" d="M51,-48.1906C51,-39.1684 51,-28.9941 51,-21.5707"/>
<polygon fill="midnightblue" stroke="midnightblue" points="47.5001,-48.3619 51,-58.3619 54.5001,-48.3619 47.5001,-48.3619"/>
</g>
<!-- Node3 -->
<g id="node4" class="node"><title>Node3</title>
<a xlink:href="../../d6/db3/class_c_token.html" target="_top" xlink:title="CToken">
<polygon fill="white" stroke="black" points="25.5,-116.5 25.5,-137.5 76.5,-137.5 76.5,-116.5 25.5,-116.5"/>
<text text-anchor="middle" x="51" y="-124.5" font-family="Helvetica,sans-Serif" font-size="10.00">CToken</text>
</a>
</g>
<!-- Node3&#45;&gt;Node2 -->
<g id="edge4" class="edge"><title>Node3&#45;&gt;Node2</title>
<path fill="none" stroke="midnightblue" d="M51,-106.191C51,-97.1684 51,-86.9941 51,-79.5707"/>
<polygon fill="midnightblue" stroke="midnightblue" points="47.5001,-106.362 51,-116.362 54.5001,-106.362 47.5001,-106.362"/>
</g>
</g>
</svg>
