<?xml version="1.0" encoding="UTF-8" standalone="no"?>
<!DOCTYPE svg PUBLIC "-//W3C//DTD SVG 1.1//EN"
 "http://www.w3.org/Graphics/SVG/1.1/DTD/svg11.dtd">
<!-- Generated by graphviz version 2.26.3 (20100126.1600)
 -->
<!-- Title: G Pages: 1 -->
<svg width="496pt" height="110pt"
 viewBox="0.00 0.00 496.00 110.00" xmlns="http://www.w3.org/2000/svg" xmlns:xlink="http://www.w3.org/1999/xlink">
<g id="graph1" class="graph" transform="scale(1 1) rotate(0) translate(4 106)">
<title>G</title>
<polygon fill="white" stroke="white" points="-4,5 -4,-106 493,-106 493,5 -4,5"/>
<!-- Node1 -->
<g id="node1" class="node"><title>Node1</title>
<polygon fill="#bfbfbf" stroke="black" points="0.5,-40.5 0.5,-61.5 125.5,-61.5 125.5,-40.5 0.5,-40.5"/>
<text text-anchor="middle" x="63" y="-48.5" font-family="Helvetica,sans-Serif" font-size="10.00">nsSize::ToNearestPixels</text>
</g>
<!-- Node2 -->
<g id="node3" class="node"><title>Node2</title>
<a xlink:href="../../d5/d98/structns_size.html#aea2d4348572c3a98adbcf87bf0772957" target="_top" xlink:title="nsSize::ScaleToNearestPixels">
<polygon fill="white" stroke="black" points="162,-40.5 162,-61.5 312,-61.5 312,-40.5 162,-40.5"/>
<text text-anchor="middle" x="237" y="-48.5" font-family="Helvetica,sans-Serif" font-size="10.00">nsSize::ScaleToNearestPixels</text>
</a>
</g>
<!-- Node1&#45;&gt;Node2 -->
<g id="edge2" class="edge"><title>Node1&#45;&gt;Node2</title>
<path fill="none" stroke="midnightblue" d="M125.818,-51C134.214,-51 142.936,-51 151.637,-51"/>
<polygon fill="midnightblue" stroke="midnightblue" points="151.819,-54.5001 161.819,-51 151.819,-47.5001 151.819,-54.5001"/>
</g>
<!-- Node3 -->
<g id="node5" class="node"><title>Node3</title>
<a xlink:href="../../d6/ddb/ns_coord_8h.html#af9ccb0f706e735603c6f371963d8612c" target="_top" xlink:title="NSAppUnitsToDoublePixels">
<polygon fill="white" stroke="black" points="348,-80.5 348,-101.5 488,-101.5 488,-80.5 348,-80.5"/>
<text text-anchor="middle" x="418" y="-88.5" font-family="Helvetica,sans-Serif" font-size="10.00">NSAppUnitsToDoublePixels</text>
</a>
</g>
<!-- Node2&#45;&gt;Node3 -->
<g id="edge4" class="edge"><title>Node2&#45;&gt;Node3</title>
<path fill="none" stroke="midnightblue" d="M284.556,-61.5095C307.846,-66.6566 336.076,-72.8954 360.563,-78.3067"/>
<polygon fill="midnightblue" stroke="midnightblue" points="359.928,-81.7509 370.448,-80.4913 361.439,-74.9158 359.928,-81.7509"/>
</g>
<!-- Node4 -->
<g id="node7" class="node"><title>Node4</title>
<a xlink:href="../../d5/d28/img_i_container_8idl.html#a42c69de839699dd1d5fd8b37bd158dbf" target="_top" xlink:title="nsIntSize">
<polygon fill="white" stroke="black" points="389,-40.5 389,-61.5 447,-61.5 447,-40.5 389,-40.5"/>
<text text-anchor="middle" x="418" y="-48.5" font-family="Helvetica,sans-Serif" font-size="10.00">nsIntSize</text>
</a>
</g>
<!-- Node2&#45;&gt;Node4 -->
<g id="edge6" class="edge"><title>Node2&#45;&gt;Node4</title>
<path fill="none" stroke="midnightblue" d="M312.188,-51C335.076,-51 359.31,-51 378.802,-51"/>
<polygon fill="midnightblue" stroke="midnightblue" points="378.817,-54.5001 388.817,-51 378.817,-47.5001 378.817,-54.5001"/>
</g>
<!-- Node5 -->
<g id="node9" class="node"><title>Node5</title>
<a xlink:href="../../d6/ddb/ns_coord_8h.html#a1163b3567b86bfa75129ef55c7c79566" target="_top" xlink:title="NSToIntRoundUp">
<polygon fill="white" stroke="black" points="370.5,-0.5 370.5,-21.5 465.5,-21.5 465.5,-0.5 370.5,-0.5"/>
<text text-anchor="middle" x="418" y="-8.5" font-family="Helvetica,sans-Serif" font-size="10.00">NSToIntRoundUp</text>
</a>
</g>
<!-- Node2&#45;&gt;Node5 -->
<g id="edge8" class="edge"><title>Node2&#45;&gt;Node5</title>
<path fill="none" stroke="midnightblue" d="M284.556,-40.4905C307.846,-35.3434 336.076,-29.1046 360.563,-23.6933"/>
<polygon fill="midnightblue" stroke="midnightblue" points="361.439,-27.0842 370.448,-21.5087 359.928,-20.2491 361.439,-27.0842"/>
</g>
</g>
</svg>
