<?xml version="1.0" encoding="UTF-8" standalone="no"?>
<!DOCTYPE svg PUBLIC "-//W3C//DTD SVG 1.1//EN"
 "http://www.w3.org/Graphics/SVG/1.1/DTD/svg11.dtd">
<!-- Generated by graphviz version 2.26.3 (20100126.1600)
 -->
<!-- Title: G Pages: 1 -->
<svg width="458pt" height="150pt"
 viewBox="0.00 0.00 458.00 150.00" xmlns="http://www.w3.org/2000/svg" xmlns:xlink="http://www.w3.org/1999/xlink">
<g id="graph1" class="graph" transform="scale(1 1) rotate(0) translate(4 146)">
<title>G</title>
<polygon fill="white" stroke="white" points="-4,5 -4,-146 455,-146 455,5 -4,5"/>
<!-- Node1 -->
<g id="node1" class="node"><title>Node1</title>
<polygon fill="#bfbfbf" stroke="black" points="0.5,-60.5 0.5,-81.5 215.5,-81.5 215.5,-60.5 0.5,-60.5"/>
<text text-anchor="middle" x="108" y="-68.5" font-family="Helvetica,sans-Serif" font-size="10.00">mozilla::GetUserMediaNotificationEvent::Run</text>
</g>
<!-- Node2 -->
<g id="node3" class="node"><title>Node2</title>
<a xlink:href="../../d1/d89/classns_auto_ptr.html#a05b01e5675caecdaf45353891929fb88" target="_top" xlink:title="nsAutoPtr::forget">
<polygon fill="white" stroke="black" points="305.5,-120.5 305.5,-141.5 396.5,-141.5 396.5,-120.5 305.5,-120.5"/>
<text text-anchor="middle" x="351" y="-128.5" font-family="Helvetica,sans-Serif" font-size="10.00">nsAutoPtr::forget</text>
</a>
</g>
<!-- Node1&#45;&gt;Node2 -->
<g id="edge2" class="edge"><title>Node1&#45;&gt;Node2</title>
<path fill="none" stroke="midnightblue" d="M143.323,-81.5737C172.362,-90.0821 214.656,-102.053 252,-111 265.859,-114.32 280.896,-117.548 294.967,-120.408"/>
<polygon fill="midnightblue" stroke="midnightblue" points="294.518,-123.887 305.011,-122.421 295.894,-117.024 294.518,-123.887"/>
</g>
<!-- Node3 -->
<g id="node5" class="node"><title>Node3</title>
<a xlink:href="../../d0/d01/classns_ref_ptr.html#add7340ba81d74a4e3d639082d721f670" target="_top" xlink:title="nsRefPtr::forget">
<polygon fill="white" stroke="black" points="308,-80.5 308,-101.5 394,-101.5 394,-80.5 308,-80.5"/>
<text text-anchor="middle" x="351" y="-88.5" font-family="Helvetica,sans-Serif" font-size="10.00">nsRefPtr::forget</text>
</a>
</g>
<!-- Node1&#45;&gt;Node3 -->
<g id="edge4" class="edge"><title>Node1&#45;&gt;Node3</title>
<path fill="none" stroke="midnightblue" d="M215.645,-79.8596C244.192,-82.2092 273.774,-84.6439 297.974,-86.6357"/>
<polygon fill="midnightblue" stroke="midnightblue" points="297.744,-90.1285 307.998,-87.4607 298.318,-83.1521 297.744,-90.1285"/>
</g>
<!-- Node4 -->
<g id="node7" class="node"><title>Node4</title>
<a xlink:href="../../d7/ddf/classmozilla_1_1dom_1_1_content_child.html#a7afeaec753e3103601bc8b801c89b257" target="_top" xlink:title="mozilla::dom::ContentChild::GetSingleton">
<polygon fill="white" stroke="black" points="252.5,-40.5 252.5,-61.5 449.5,-61.5 449.5,-40.5 252.5,-40.5"/>
<text text-anchor="middle" x="351" y="-48.5" font-family="Helvetica,sans-Serif" font-size="10.00">mozilla::dom::ContentChild::GetSingleton</text>
</a>
</g>
<!-- Node1&#45;&gt;Node4 -->
<g id="edge6" class="edge"><title>Node1&#45;&gt;Node4</title>
<path fill="none" stroke="midnightblue" d="M215.645,-62.1404C224.404,-61.4194 233.261,-60.6905 242.03,-59.9687"/>
<polygon fill="midnightblue" stroke="midnightblue" points="242.593,-63.4343 252.272,-59.1258 242.019,-56.4579 242.593,-63.4343"/>
</g>
<!-- Node5 -->
<g id="node9" class="node"><title>Node5</title>
<a xlink:href="../../d6/d6b/ns_thread_utils_8h.html#a74b704f371917f1aa50c77cc59f5abba" target="_top" xlink:title="NS_IsMainThread">
<polygon fill="white" stroke="black" points="303.5,-0.5 303.5,-21.5 398.5,-21.5 398.5,-0.5 303.5,-0.5"/>
<text text-anchor="middle" x="351" y="-8.5" font-family="Helvetica,sans-Serif" font-size="10.00">NS_IsMainThread</text>
</a>
</g>
<!-- Node1&#45;&gt;Node5 -->
<g id="edge8" class="edge"><title>Node1&#45;&gt;Node5</title>
<path fill="none" stroke="midnightblue" d="M143.323,-60.4263C172.362,-51.9179 214.656,-39.9467 252,-31 265.249,-27.8259 279.575,-24.7363 293.103,-21.9722"/>
<polygon fill="midnightblue" stroke="midnightblue" points="294.15,-25.3317 303.262,-19.926 292.768,-18.4695 294.15,-25.3317"/>
</g>
</g>
</svg>
