<?xml version="1.0" encoding="UTF-8" standalone="no"?>
<!DOCTYPE svg PUBLIC "-//W3C//DTD SVG 1.1//EN"
 "http://www.w3.org/Graphics/SVG/1.1/DTD/svg11.dtd">
<!-- Generated by graphviz version 2.26.3 (20100126.1600)
 -->
<!-- Title: G Pages: 1 -->
<!--zoomable 164 -->
<svg id="main" version="1.1" xmlns="http://www.w3.org/2000/svg" xmlns:xlink="http://www.w3.org/1999/xlink" xml:space="preserve" onload="init(evt)">
        <defs>
                <circle id="rim" cx="0" cy="0" r="7"/>
                <circle id="rim2" cx="0" cy="0" r="3.5"/>
                <g id="zoomPlus">
                        <use xlink:href="#rim" fill="#404040">
                                <set attributeName="fill" to="#808080" begin="zoomplus.mouseover" end="zoomplus.mouseout"/>
                        </use>
                        <path d="M-4,0h8M0,-4v8" fill="none" stroke="white" stroke-width="1.5" pointer-events="none"/>
                </g>
                <g id="zoomMin">
                        <use xlink:href="#rim" fill="#404040">
                                <set attributeName="fill" to="#808080" begin="zoomminus.mouseover" end="zoomminus.mouseout"/>
                        </use>
                        <path d="M-4,0h8" fill="none" stroke="white" stroke-width="1.5" pointer-events="none"/>
                </g>
                <g id="dirArrow">
                        <path fill="none" stroke="white" stroke-width="1.5" d="M0,-3.0v7 M-2.5,-0.5L0,-3.0L2.5,-0.5"/>
                </g>
               <g id="resetDef">
                       <use xlink:href="#rim2" fill="#404040">
                               <set attributeName="fill" to="#808080" begin="reset.mouseover" end="reset.mouseout"/>
                       </use>
               </g>
        </defs>

<script type="text/javascript">
var viewWidth = 762;
var viewHeight = 164;
var sectionId = 'dynsection-1';
</script>
<script xlink:href="../../svgpan.js"/>
<svg id="graph" class="graph">
<g id="viewport">
<title>G</title>
<polygon fill="white" stroke="white" points="-4,5 -4,-160 759,-160 759,5 -4,5"/>
<!-- Node1 -->
<g id="node1" class="node"><title>Node1</title>
<polygon fill="#bfbfbf" stroke="black" points="0.5,-58.5 0.5,-79.5 155.5,-79.5 155.5,-58.5 0.5,-58.5"/>
<text text-anchor="middle" x="78" y="-66.5" font-family="Helvetica,sans-Serif" font-size="10.00">xml2dict.TSTTree.balanceLevel</text>
</g>
<!-- Node1&#45;&gt;Node1 -->
<g id="edge2" class="edge"><title>Node1&#45;&gt;Node1</title>
<path fill="none" stroke="midnightblue" d="M47.8109,-79.7079C34.9096,-88.6531 44.9727,-98 78,-98 100.19,-98 112.014,-93.7807 113.471,-88.2987"/>
<polygon fill="midnightblue" stroke="midnightblue" points="116.408,-86.3931 108.189,-79.7079 110.445,-90.0596 116.408,-86.3931"/>
</g>
<!-- Node2 -->
<g id="node4" class="node"><title>Node2</title>
<a xlink:href="../../d7/d33/classxml2dict_1_1_t_s_t_tree.html#a6e989ebdc9d65e9f14e3c56c1126935f" target="_top" xlink:title="xml2dict.TSTTree.balanceTree">
<polygon fill="white" stroke="black" points="192.5,-58.5 192.5,-79.5 343.5,-79.5 343.5,-58.5 192.5,-58.5"/>
<text text-anchor="middle" x="268" y="-66.5" font-family="Helvetica,sans-Serif" font-size="10.00">xml2dict.TSTTree.balanceTree</text>
</a>
</g>
<!-- Node1&#45;&gt;Node2 -->
<g id="edge4" class="edge"><title>Node1&#45;&gt;Node2</title>
<path fill="none" stroke="midnightblue" d="M155.554,-62.3522C164.257,-62.2492 173.162,-62.2241 181.964,-62.2768"/>
<polygon fill="midnightblue" stroke="midnightblue" points="182.197,-65.7791 192.23,-62.3744 182.264,-58.7794 182.197,-65.7791"/>
</g>
<!-- Node8 -->
<g id="node20" class="node"><title>Node8</title>
<a xlink:href="../../d7/d33/classxml2dict_1_1_t_s_t_tree.html#a0037ec46baba6b4062f0dcd83f326c8a" target="_top" xlink:title="xml2dict.TSTTree.divide">
<polygon fill="white" stroke="black" points="412.5,-0.5 412.5,-21.5 535.5,-21.5 535.5,-0.5 412.5,-0.5"/>
<text text-anchor="middle" x="474" y="-8.5" font-family="Helvetica,sans-Serif" font-size="10.00">xml2dict.TSTTree.divide</text>
</a>
</g>
<!-- Node1&#45;&gt;Node8 -->
<g id="edge24" class="edge"><title>Node1&#45;&gt;Node8</title>
<path fill="none" stroke="midnightblue" d="M135.336,-58.4827C153.439,-55.2853 173.533,-51.8629 192,-49 263.382,-37.9335 345.22,-27.1117 402.283,-19.8654"/>
<polygon fill="midnightblue" stroke="midnightblue" points="402.804,-23.3274 412.286,-18.5995 401.925,-16.3828 402.804,-23.3274"/>
</g>
<!-- Node2&#45;&gt;Node1 -->
<g id="edge22" class="edge"><title>Node2&#45;&gt;Node1</title>
<path fill="none" stroke="midnightblue" d="M192.23,-75.6256C183.462,-75.7405 174.466,-75.7758 165.558,-75.7316"/>
<polygon fill="midnightblue" stroke="midnightblue" points="165.583,-72.2317 155.554,-75.6478 165.525,-79.2315 165.583,-72.2317"/>
</g>
<!-- Node2&#45;&gt;Node2 -->
<g id="edge6" class="edge"><title>Node2&#45;&gt;Node2</title>
<path fill="none" stroke="midnightblue" d="M237.811,-79.7079C224.91,-88.6531 234.973,-98 268,-98 290.19,-98 302.014,-93.7807 303.471,-88.2987"/>
<polygon fill="midnightblue" stroke="midnightblue" points="306.408,-86.3931 298.189,-79.7079 300.445,-90.0596 306.408,-86.3931"/>
</g>
<!-- Node3 -->
<g id="node7" class="node"><title>Node3</title>
<a xlink:href="../../d7/d33/classxml2dict_1_1_t_s_t_tree.html#a198fca8c213bbf4a79fe7c5de556d14d" target="_top" xlink:title="xml2dict.TSTTree.promoteNodeToRoot">
<polygon fill="white" stroke="black" points="380,-58.5 380,-79.5 568,-79.5 568,-58.5 380,-58.5"/>
<text text-anchor="middle" x="474" y="-66.5" font-family="Helvetica,sans-Serif" font-size="10.00">xml2dict.TSTTree.promoteNodeToRoot</text>
</a>
</g>
<!-- Node2&#45;&gt;Node3 -->
<g id="edge8" class="edge"><title>Node2&#45;&gt;Node3</title>
<path fill="none" stroke="midnightblue" d="M343.537,-69C352.13,-69 360.999,-69 369.878,-69"/>
<polygon fill="midnightblue" stroke="midnightblue" points="369.894,-72.5001 379.894,-69 369.894,-65.5001 369.894,-72.5001"/>
</g>
<!-- Node6 -->
<g id="node14" class="node"><title>Node6</title>
<a xlink:href="../../d7/d33/classxml2dict_1_1_t_s_t_tree.html#a776d918df1f6ca796a28072ecb79f356" target="_top" xlink:title="xml2dict.TSTTree.sortLevelByFreq">
<polygon fill="white" stroke="black" points="389.5,-116.5 389.5,-137.5 558.5,-137.5 558.5,-116.5 389.5,-116.5"/>
<text text-anchor="middle" x="474" y="-124.5" font-family="Helvetica,sans-Serif" font-size="10.00">xml2dict.TSTTree.sortLevelByFreq</text>
</a>
</g>
<!-- Node2&#45;&gt;Node6 -->
<g id="edge16" class="edge"><title>Node2&#45;&gt;Node6</title>
<path fill="none" stroke="midnightblue" d="M296.255,-79.6157C318.731,-87.8091 351.095,-99.051 380,-107 389.411,-109.588 399.43,-112.038 409.287,-114.277"/>
<polygon fill="midnightblue" stroke="midnightblue" points="408.541,-117.697 419.061,-116.444 410.056,-110.862 408.541,-117.697"/>
</g>
<!-- Node3&#45;&gt;Node3 -->
<g id="edge12" class="edge"><title>Node3&#45;&gt;Node3</title>
<path fill="none" stroke="midnightblue" d="M441.586,-79.7079C427.735,-88.6531 438.539,-98 474,-98 498.379,-98 511.105,-93.5821 512.176,-87.9142"/>
<polygon fill="midnightblue" stroke="midnightblue" points="515.025,-85.8803 506.414,-79.7079 509.296,-89.9031 515.025,-85.8803"/>
</g>
<!-- Node4 -->
<g id="node9" class="node"><title>Node4</title>
<a xlink:href="../../d7/d33/classxml2dict_1_1_t_s_t_tree.html#a8fe2fb444139e1300f4fea919bd28942" target="_top" xlink:title="xml2dict.TSTTree.rotateLeft">
<polygon fill="white" stroke="black" points="609.5,-53.5 609.5,-74.5 748.5,-74.5 748.5,-53.5 609.5,-53.5"/>
<text text-anchor="middle" x="679" y="-61.5" font-family="Helvetica,sans-Serif" font-size="10.00">xml2dict.TSTTree.rotateLeft</text>
</a>
</g>
<!-- Node3&#45;&gt;Node4 -->
<g id="edge10" class="edge"><title>Node3&#45;&gt;Node4</title>
<path fill="none" stroke="midnightblue" d="M568.1,-66.7049C578.521,-66.4507 589.057,-66.1937 599.276,-65.9445"/>
<polygon fill="midnightblue" stroke="midnightblue" points="599.461,-69.4411 609.373,-65.6982 599.29,-62.4432 599.461,-69.4411"/>
</g>
<!-- Node5 -->
<g id="node12" class="node"><title>Node5</title>
<a xlink:href="../../d7/d33/classxml2dict_1_1_t_s_t_tree.html#aa07c8cb547cfd28d8ec541a7c4aecbda" target="_top" xlink:title="xml2dict.TSTTree.rotateRight">
<polygon fill="white" stroke="black" points="606,-4.5 606,-25.5 752,-25.5 752,-4.5 606,-4.5"/>
<text text-anchor="middle" x="679" y="-12.5" font-family="Helvetica,sans-Serif" font-size="10.00">xml2dict.TSTTree.rotateRight</text>
</a>
</g>
<!-- Node3&#45;&gt;Node5 -->
<g id="edge14" class="edge"><title>Node3&#45;&gt;Node5</title>
<path fill="none" stroke="midnightblue" d="M527.382,-58.4901C540.703,-55.635 554.917,-52.3885 568,-49 591.139,-43.007 616.66,-35.2699 637.391,-28.6909"/>
<polygon fill="midnightblue" stroke="midnightblue" points="638.695,-31.9486 647.152,-25.5669 636.561,-25.2817 638.695,-31.9486"/>
</g>
<!-- Node7 -->
<g id="node16" class="node"><title>Node7</title>
<a xlink:href="../../d7/d33/classxml2dict_1_1_t_s_t_tree.html#a7d7ebc94d13159446c0f2492508726b8" target="_top" xlink:title="xml2dict.TSTTree.collectLevel">
<polygon fill="white" stroke="black" points="604.5,-116.5 604.5,-137.5 753.5,-137.5 753.5,-116.5 604.5,-116.5"/>
<text text-anchor="middle" x="679" y="-124.5" font-family="Helvetica,sans-Serif" font-size="10.00">xml2dict.TSTTree.collectLevel</text>
</a>
</g>
<!-- Node6&#45;&gt;Node7 -->
<g id="edge18" class="edge"><title>Node6&#45;&gt;Node7</title>
<path fill="none" stroke="midnightblue" d="M558.565,-127C570.337,-127 582.435,-127 594.211,-127"/>
<polygon fill="midnightblue" stroke="midnightblue" points="594.46,-130.5 604.46,-127 594.46,-123.5 594.46,-130.5"/>
</g>
<!-- Node7&#45;&gt;Node7 -->
<g id="edge20" class="edge"><title>Node7&#45;&gt;Node7</title>
<path fill="none" stroke="midnightblue" d="M646.586,-137.708C632.735,-146.653 643.539,-156 679,-156 703.379,-156 716.105,-151.582 717.176,-145.914"/>
<polygon fill="midnightblue" stroke="midnightblue" points="720.025,-143.88 711.414,-137.708 714.296,-147.903 720.025,-143.88"/>
</g>
<!-- Node8&#45;&gt;Node4 -->
<g id="edge26" class="edge"><title>Node8&#45;&gt;Node4</title>
<path fill="none" stroke="midnightblue" d="M514.992,-21.598C547.534,-30.0113 593.202,-41.818 628.086,-50.837"/>
<polygon fill="midnightblue" stroke="midnightblue" points="627.521,-54.3059 638.079,-53.4204 629.273,-47.5287 627.521,-54.3059"/>
</g>
<!-- Node8&#45;&gt;Node5 -->
<g id="edge28" class="edge"><title>Node8&#45;&gt;Node5</title>
<path fill="none" stroke="midnightblue" d="M535.507,-12.2001C554.474,-12.5702 575.684,-12.9841 595.856,-13.3777"/>
<polygon fill="midnightblue" stroke="midnightblue" points="595.91,-16.8793 605.976,-13.5751 596.046,-9.88062 595.91,-16.8793"/>
</g>
<!-- Node8&#45;&gt;Node8 -->
<g id="edge30" class="edge"><title>Node8&#45;&gt;Node8</title>
<path fill="none" stroke="midnightblue" d="M441.586,-21.7079C427.735,-30.6531 438.539,-40 474,-40 498.379,-40 511.105,-35.5821 512.176,-29.9142"/>
<polygon fill="midnightblue" stroke="midnightblue" points="515.025,-27.8803 506.414,-21.7079 509.296,-31.9031 515.025,-27.8803"/>
</g>
</g>
</svg>
        <g id="navigator" transform="translate(0 0)" fill="#404254">
                <rect fill="#f2f5e9" fill-opacity="0.5" stroke="#606060" stroke-width=".5" x="0" y="0" width="60" height="60"/>
                <use id="zoomplus" xlink:href="#zoomPlus" x="17" y="9" onmousedown="handleZoom(evt,'in')"/>
                <use id="zoomminus" xlink:href="#zoomMin" x="42" y="9" onmousedown="handleZoom(evt,'out')"/>
                <use id="reset" xlink:href="#resetDef" x="30" y="36" onmousedown="handleReset()"/>
                <g id="arrowUp" xlink:href="#dirArrow" transform="translate(30 24)" onmousedown="handlePan(0,-1)">
                  <use xlink:href="#rim" fill="#404040">
                        <set attributeName="fill" to="#808080" begin="arrowUp.mouseover" end="arrowUp.mouseout"/>
                  </use>
                  <path fill="none" stroke="white" stroke-width="1.5" d="M0,-3.0v7 M-2.5,-0.5L0,-3.0L2.5,-0.5"/>
                </g>
                <g id="arrowRight" xlink:href="#dirArrow" transform="rotate(90) translate(36 -43)" onmousedown="handlePan(1,0)">
                  <use xlink:href="#rim" fill="#404040">
                        <set attributeName="fill" to="#808080" begin="arrowRight.mouseover" end="arrowRight.mouseout"/>
                  </use>
                  <path fill="none" stroke="white" stroke-width="1.5" d="M0,-3.0v7 M-2.5,-0.5L0,-3.0L2.5,-0.5"/>
                </g>
                <g id="arrowDown" xlink:href="#dirArrow" transform="rotate(180) translate(-30 -48)" onmousedown="handlePan(0,1)">
                  <use xlink:href="#rim" fill="#404040">
                        <set attributeName="fill" to="#808080" begin="arrowDown.mouseover" end="arrowDown.mouseout"/>
                  </use>
                  <path fill="none" stroke="white" stroke-width="1.5" d="M0,-3.0v7 M-2.5,-0.5L0,-3.0L2.5,-0.5"/>
                </g>
                <g id="arrowLeft" xlink:href="#dirArrow" transform="rotate(270) translate(-36 17)" onmousedown="handlePan(-1,0)">
                  <use xlink:href="#rim" fill="#404040">
                        <set attributeName="fill" to="#808080" begin="arrowLeft.mouseover" end="arrowLeft.mouseout"/>
                  </use>
                  <path fill="none" stroke="white" stroke-width="1.5" d="M0,-3.0v7 M-2.5,-0.5L0,-3.0L2.5,-0.5"/>
                </g>
        </g>
</svg>
