<?xml version="1.0" encoding="UTF-8" standalone="no"?>
<!DOCTYPE svg PUBLIC "-//W3C//DTD SVG 1.1//EN"
 "http://www.w3.org/Graphics/SVG/1.1/DTD/svg11.dtd">
<!-- Generated by graphviz version 2.26.3 (20100126.1600)
 -->
<!-- Title: G Pages: 1 -->
<svg width="444pt" height="162pt"
 viewBox="0.00 0.00 444.00 162.00" xmlns="http://www.w3.org/2000/svg" xmlns:xlink="http://www.w3.org/1999/xlink">
<g id="graph1" class="graph" transform="scale(1 1) rotate(0) translate(4 158)">
<title>G</title>
<polygon fill="white" stroke="white" points="-4,5 -4,-158 441,-158 441,5 -4,5"/>
<!-- Node1 -->
<g id="node1" class="node"><title>Node1</title>
<polygon fill="#bfbfbf" stroke="black" points="238,-0.5 238,-21.5 382,-21.5 382,-0.5 238,-0.5"/>
<text text-anchor="middle" x="310" y="-8.5" font-family="Helvetica,sans-Serif" font-size="10.00">mozilla::layers::TextureClient</text>
</g>
<!-- Node2 -->
<g id="node2" class="node"><title>Node2</title>
<a xlink:href="../../d2/de4/classmozilla_1_1_ref_counted.html" target="_top" xlink:title="mozilla::RefCounted\&lt; TextureClient \&gt;">
<polygon fill="white" stroke="black" points="78,-72.5 78,-93.5 260,-93.5 260,-72.5 78,-72.5"/>
<text text-anchor="middle" x="169" y="-80.5" font-family="Helvetica,sans-Serif" font-size="10.00">mozilla::RefCounted&lt; TextureClient &gt;</text>
</a>
</g>
<!-- Node2&#45;&gt;Node1 -->
<g id="edge2" class="edge"><title>Node2&#45;&gt;Node1</title>
<path fill="none" stroke="midnightblue" d="M198.838,-67.7634C225.941,-53.9236 265.226,-33.8633 289.11,-21.6674"/>
<polygon fill="midnightblue" stroke="midnightblue" points="197.119,-64.7112 189.805,-72.3762 200.303,-70.9454 197.119,-64.7112"/>
</g>
<!-- Node3 -->
<g id="node4" class="node"><title>Node3</title>
<a xlink:href="../../df/d3c/classmozilla_1_1detail_1_1_ref_counted.html" target="_top" xlink:title="mozilla::detail::RefCounted\&lt; TextureClient, detail::NonAtomicRefCount \&gt;">
<polygon fill="white" stroke="black" points="0,-132.5 0,-153.5 338,-153.5 338,-132.5 0,-132.5"/>
<text text-anchor="middle" x="169" y="-140.5" font-family="Helvetica,sans-Serif" font-size="10.00">mozilla::detail::RefCounted&lt; TextureClient, detail::NonAtomicRefCount &gt;</text>
</a>
</g>
<!-- Node3&#45;&gt;Node2 -->
<g id="edge4" class="edge"><title>Node3&#45;&gt;Node2</title>
<path fill="none" stroke="midnightblue" d="M169,-122.231C169,-112.592 169,-101.544 169,-93.6339"/>
<polygon fill="midnightblue" stroke="midnightblue" points="165.5,-122.273 169,-132.273 172.5,-122.273 165.5,-122.273"/>
</g>
<!-- Node4 -->
<g id="node6" class="node"><title>Node4</title>
<a xlink:href="../../d9/dc3/classmozilla_1_1_ref_ptr.html" target="_top" xlink:title="mozilla::RefPtr\&lt; TextureClient \&gt;">
<polygon fill="white" stroke="black" points="278,-72.5 278,-93.5 436,-93.5 436,-72.5 278,-72.5"/>
<text text-anchor="middle" x="357" y="-80.5" font-family="Helvetica,sans-Serif" font-size="10.00">mozilla::RefPtr&lt; TextureClient &gt;</text>
</a>
</g>
<!-- Node4&#45;&gt;Node1 -->
<g id="edge6" class="edge"><title>Node4&#45;&gt;Node1</title>
<path fill="none" stroke="#9a32cd" stroke-dasharray="5,2" d="M344.473,-63.8099C335.661,-50.3106 324.195,-32.7449 316.963,-21.6674"/>
<polygon fill="#9a32cd" stroke="#9a32cd" points="341.668,-65.9155 350.065,-72.3762 347.53,-62.0892 341.668,-65.9155"/>
<text text-anchor="middle" x="368" y="-44.5" font-family="Helvetica,sans-Serif" font-size="10.00"> mNextSibling</text>
</g>
</g>
</svg>
