<?xml version="1.0" encoding="UTF-8" standalone="no"?>
<!DOCTYPE svg PUBLIC "-//W3C//DTD SVG 1.1//EN"
 "http://www.w3.org/Graphics/SVG/1.1/DTD/svg11.dtd">
<!-- Generated by graphviz version 2.26.3 (20100126.1600)
 -->
<!-- Title: G Pages: 1 -->
<svg width="256pt" height="174pt"
 viewBox="0.00 0.00 256.00 174.00" xmlns="http://www.w3.org/2000/svg" xmlns:xlink="http://www.w3.org/1999/xlink">
<g id="graph1" class="graph" transform="scale(1 1) rotate(0) translate(4 170)">
<title>G</title>
<polygon fill="white" stroke="white" points="-4,5 -4,-170 253,-170 253,5 -4,5"/>
<!-- Node1 -->
<g id="node1" class="node"><title>Node1</title>
<polygon fill="#bfbfbf" stroke="black" points="63.5,-0.5 63.5,-21.5 134.5,-21.5 134.5,-0.5 63.5,-0.5"/>
<text text-anchor="middle" x="99" y="-8.5" font-family="Helvetica,sans-Serif" font-size="10.00">vorbis_block</text>
</g>
<!-- Node2 -->
<g id="node2" class="node"><title>Node2</title>
<polygon fill="white" stroke="#bfbfbf" points="-0.5,-72.5 -0.5,-93.5 40.5,-93.5 40.5,-72.5 -0.5,-72.5"/>
<text text-anchor="middle" x="20" y="-80.5" font-family="Helvetica,sans-Serif" font-size="10.00">struct</text>
</g>
<!-- Node2&#45;&gt;Node1 -->
<g id="edge2" class="edge"><title>Node2&#45;&gt;Node1</title>
<path fill="none" stroke="#9a32cd" stroke-dasharray="5,2" d="M39.3673,-65.3488C54.3744,-51.6714 74.6736,-33.1709 87.2955,-21.6674"/>
<polygon fill="#9a32cd" stroke="#9a32cd" points="36.6901,-63.0533 31.6567,-72.3762 41.4053,-68.2269 36.6901,-63.0533"/>
<text text-anchor="middle" x="77" y="-44.5" font-family="Helvetica,sans-Serif" font-size="10.00"> reap</text>
</g>
<!-- Node3 -->
<g id="node4" class="node"><title>Node3</title>
<a xlink:href="../../d6/dd5/structoggpack__buffer.html" target="_top" xlink:title="oggpack_buffer">
<polygon fill="white" stroke="black" points="57.5,-72.5 57.5,-93.5 140.5,-93.5 140.5,-72.5 57.5,-72.5"/>
<text text-anchor="middle" x="99" y="-80.5" font-family="Helvetica,sans-Serif" font-size="10.00">oggpack_buffer</text>
</a>
</g>
<!-- Node3&#45;&gt;Node1 -->
<g id="edge4" class="edge"><title>Node3&#45;&gt;Node1</title>
<path fill="none" stroke="#9a32cd" stroke-dasharray="5,2" d="M99,-62.2348C99,-48.969 99,-32.3188 99,-21.6674"/>
<polygon fill="#9a32cd" stroke="#9a32cd" points="95.5001,-62.3761 99,-72.3762 102.5,-62.3762 95.5001,-62.3761"/>
<text text-anchor="middle" x="108.5" y="-44.5" font-family="Helvetica,sans-Serif" font-size="10.00"> opb</text>
</g>
<!-- Node4 -->
<g id="node6" class="node"><title>Node4</title>
<a xlink:href="../../d1/d12/structvorbis__dsp__state.html" target="_top" xlink:title="vorbis_dsp_state">
<polygon fill="white" stroke="black" points="157.5,-72.5 157.5,-93.5 248.5,-93.5 248.5,-72.5 157.5,-72.5"/>
<text text-anchor="middle" x="203" y="-80.5" font-family="Helvetica,sans-Serif" font-size="10.00">vorbis_dsp_state</text>
</a>
</g>
<!-- Node4&#45;&gt;Node1 -->
<g id="edge6" class="edge"><title>Node4&#45;&gt;Node1</title>
<path fill="none" stroke="#9a32cd" stroke-dasharray="5,2" d="M179.402,-66.663C159.49,-52.8778 131.563,-33.5437 114.409,-21.6674"/>
<polygon fill="#9a32cd" stroke="#9a32cd" points="177.44,-69.5617 187.654,-72.3762 181.425,-63.8063 177.44,-69.5617"/>
<text text-anchor="middle" x="167" y="-44.5" font-family="Helvetica,sans-Serif" font-size="10.00"> vd</text>
</g>
<!-- Node5 -->
<g id="node8" class="node"><title>Node5</title>
<a xlink:href="../../da/d7e/structvorbis__info.html" target="_top" xlink:title="vorbis_info">
<polygon fill="white" stroke="black" points="171,-144.5 171,-165.5 235,-165.5 235,-144.5 171,-144.5"/>
<text text-anchor="middle" x="203" y="-152.5" font-family="Helvetica,sans-Serif" font-size="10.00">vorbis_info</text>
</a>
</g>
<!-- Node5&#45;&gt;Node4 -->
<g id="edge8" class="edge"><title>Node5&#45;&gt;Node4</title>
<path fill="none" stroke="#9a32cd" stroke-dasharray="5,2" d="M203,-134.235C203,-120.969 203,-104.319 203,-93.6674"/>
<polygon fill="#9a32cd" stroke="#9a32cd" points="199.5,-134.376 203,-144.376 206.5,-134.376 199.5,-134.376"/>
<text text-anchor="middle" x="208.5" y="-116.5" font-family="Helvetica,sans-Serif" font-size="10.00"> vi</text>
</g>
</g>
</svg>
