<?xml version="1.0" encoding="UTF-8" standalone="no"?>
<!DOCTYPE svg PUBLIC "-//W3C//DTD SVG 1.1//EN"
 "http://www.w3.org/Graphics/SVG/1.1/DTD/svg11.dtd">
<!-- Generated by graphviz version 2.26.3 (20100126.1600)
 -->
<!-- Title: G Pages: 1 -->
<svg width="242pt" height="88pt"
 viewBox="0.00 0.00 242.00 88.00" xmlns="http://www.w3.org/2000/svg" xmlns:xlink="http://www.w3.org/1999/xlink">
<g id="graph1" class="graph" transform="scale(1 1) rotate(0) translate(4 84)">
<title>G</title>
<polygon fill="white" stroke="white" points="-4,5 -4,-84 239,-84 239,5 -4,5"/>
<!-- Node1 -->
<g id="node1" class="node"><title>Node1</title>
<polygon fill="#bfbfbf" stroke="black" points="0,-20.5 0,-41.5 92,-41.5 92,-20.5 0,-20.5"/>
<text text-anchor="middle" x="46" y="-28.5" font-family="Helvetica,sans-Serif" font-size="10.00">nsIntRegion::And</text>
</g>
<!-- Node2 -->
<g id="node3" class="node"><title>Node2</title>
<a xlink:href="../../d5/d82/classns_int_region.html#a1f54bd737289e682d05621b0945b9906" target="_top" xlink:title="nsIntRegion::And">
<polygon fill="white" stroke="black" points="135,-40.5 135,-61.5 227,-61.5 227,-40.5 135,-40.5"/>
<text text-anchor="middle" x="181" y="-48.5" font-family="Helvetica,sans-Serif" font-size="10.00">nsIntRegion::And</text>
</a>
</g>
<!-- Node1&#45;&gt;Node2 -->
<g id="edge2" class="edge"><title>Node1&#45;&gt;Node2</title>
<path fill="none" stroke="midnightblue" d="M92.0818,-37.8269C102.501,-39.3705 113.68,-41.0266 124.474,-42.6258"/>
<polygon fill="midnightblue" stroke="midnightblue" points="124.263,-46.1326 134.668,-44.1359 125.288,-39.2082 124.263,-46.1326"/>
</g>
<!-- Node3 -->
<g id="node6" class="node"><title>Node3</title>
<a xlink:href="../../da/d8e/namespacemozilla_1_1gfx.html#a0b70301d64963eae5caafa0ffe210eca" target="_top" xlink:title="mozilla::gfx::ToRect">
<polygon fill="white" stroke="black" points="128.5,-0.5 128.5,-21.5 233.5,-21.5 233.5,-0.5 128.5,-0.5"/>
<text text-anchor="middle" x="181" y="-8.5" font-family="Helvetica,sans-Serif" font-size="10.00">mozilla::gfx::ToRect</text>
</a>
</g>
<!-- Node1&#45;&gt;Node3 -->
<g id="edge6" class="edge"><title>Node1&#45;&gt;Node3</title>
<path fill="none" stroke="midnightblue" d="M92.0818,-24.1731C100.427,-22.9368 109.259,-21.6283 117.99,-20.3348"/>
<polygon fill="midnightblue" stroke="midnightblue" points="118.78,-23.7561 128.159,-18.8283 117.754,-16.8317 118.78,-23.7561"/>
</g>
<!-- Node2&#45;&gt;Node2 -->
<g id="edge4" class="edge"><title>Node2&#45;&gt;Node2</title>
<path fill="none" stroke="midnightblue" d="M159.709,-61.7079C150.61,-70.6531 157.707,-80 181,-80 195.558,-80 203.79,-76.3489 205.695,-71.4266"/>
<polygon fill="midnightblue" stroke="midnightblue" points="208.9,-69.989 202.291,-61.7079 202.293,-72.3027 208.9,-69.989"/>
</g>
</g>
</svg>
