<?xml version="1.0" encoding="UTF-8" standalone="no"?>
<!DOCTYPE svg PUBLIC "-//W3C//DTD SVG 1.1//EN"
 "http://www.w3.org/Graphics/SVG/1.1/DTD/svg11.dtd">
<!-- Generated by graphviz version 2.26.3 (20100126.1600)
 -->
<!-- Title: G Pages: 1 -->
<!--zoomable 610 -->
<svg id="main" version="1.1" xmlns="http://www.w3.org/2000/svg" xmlns:xlink="http://www.w3.org/1999/xlink" xml:space="preserve" onload="init(evt)">
        <defs>
                <circle id="rim" cx="0" cy="0" r="7"/>
                <circle id="rim2" cx="0" cy="0" r="3.5"/>
                <g id="zoomPlus">
                        <use xlink:href="#rim" fill="#404040">
                                <set attributeName="fill" to="#808080" begin="zoomplus.mouseover" end="zoomplus.mouseout"/>
                        </use>
                        <path d="M-4,0h8M0,-4v8" fill="none" stroke="white" stroke-width="1.5" pointer-events="none"/>
                </g>
                <g id="zoomMin">
                        <use xlink:href="#rim" fill="#404040">
                                <set attributeName="fill" to="#808080" begin="zoomminus.mouseover" end="zoomminus.mouseout"/>
                        </use>
                        <path d="M-4,0h8" fill="none" stroke="white" stroke-width="1.5" pointer-events="none"/>
                </g>
                <g id="dirArrow">
                        <path fill="none" stroke="white" stroke-width="1.5" d="M0,-3.0v7 M-2.5,-0.5L0,-3.0L2.5,-0.5"/>
                </g>
               <g id="resetDef">
                       <use xlink:href="#rim2" fill="#404040">
                               <set attributeName="fill" to="#808080" begin="reset.mouseover" end="reset.mouseout"/>
                       </use>
               </g>
        </defs>

<script type="text/javascript">
var viewWidth = 1320;
var viewHeight = 610;
var sectionId = 'dynsection-0';
</script>
<script xlink:href="../../svgpan.js"/>
<svg id="graph" class="graph">
<g id="viewport">
<title>G</title>
<polygon fill="white" stroke="white" points="-4,5 -4,-606 1317,-606 1317,5 -4,5"/>
<!-- Node1 -->
<g id="node1" class="node"><title>Node1</title>
<polygon fill="#bfbfbf" stroke="black" points="-0.5,-580.5 -0.5,-601.5 336.5,-601.5 336.5,-580.5 -0.5,-580.5"/>
<text text-anchor="middle" x="168" y="-588.5" font-family="Helvetica,sans-Serif" font-size="10.00">/home/aoi/Documents/FxOS/B2G/gaia/xulrunner&#45;sdk/idl/nsICancelable.idl</text>
</g>
<!-- Node2 -->
<g id="node3" class="node"><title>Node2</title>
<a xlink:href="../../d0/d95/ns_i_supports_8idl.html" target="_top" xlink:title="nsISupports.idl">
<polygon fill="white" stroke="black" points="127,-522.5 127,-543.5 209,-543.5 209,-522.5 127,-522.5"/>
<text text-anchor="middle" x="168" y="-530.5" font-family="Helvetica,sans-Serif" font-size="10.00">nsISupports.idl</text>
</a>
</g>
<!-- Node1&#45;&gt;Node2 -->
<g id="edge2" class="edge"><title>Node1&#45;&gt;Node2</title>
<path fill="none" stroke="midnightblue" d="M168,-580.362C168,-572.922 168,-562.743 168,-553.728"/>
<polygon fill="midnightblue" stroke="midnightblue" points="171.5,-553.571 168,-543.571 164.5,-553.571 171.5,-553.571"/>
</g>
<!-- Node3 -->
<g id="node5" class="node"><title>Node3</title>
<a xlink:href="../../db/d12/nsrootidl_8idl.html" target="_top" xlink:title="nsrootidl.idl">
<polygon fill="white" stroke="black" points="74,-406.5 74,-427.5 140,-427.5 140,-406.5 74,-406.5"/>
<text text-anchor="middle" x="107" y="-414.5" font-family="Helvetica,sans-Serif" font-size="10.00">nsrootidl.idl</text>
</a>
</g>
<!-- Node2&#45;&gt;Node3 -->
<g id="edge4" class="edge"><title>Node2&#45;&gt;Node3</title>
<path fill="none" stroke="midnightblue" d="M162.371,-522.295C152.157,-502.872 130.43,-461.556 117.436,-436.846"/>
<polygon fill="midnightblue" stroke="midnightblue" points="120.368,-434.901 112.616,-427.679 114.172,-438.159 120.368,-434.901"/>
</g>
<!-- Node19 -->
<g id="node41" class="node"><title>Node19</title>
<a xlink:href="../../de/d38/ns_i_supports_base_8h.html" target="_top" xlink:title="nsISupportsBase.h">
<polygon fill="white" stroke="black" points="218,-348.5 218,-369.5 318,-369.5 318,-348.5 218,-348.5"/>
<text text-anchor="middle" x="268" y="-356.5" font-family="Helvetica,sans-Serif" font-size="10.00">nsISupportsBase.h</text>
</a>
</g>
<!-- Node2&#45;&gt;Node19 -->
<g id="edge44" class="edge"><title>Node2&#45;&gt;Node19</title>
<path fill="none" stroke="midnightblue" d="M174.105,-522.377C190.454,-493.93 235.423,-415.684 256.639,-378.769"/>
<polygon fill="midnightblue" stroke="midnightblue" points="259.771,-380.342 261.72,-369.928 253.702,-376.854 259.771,-380.342"/>
</g>
<!-- Node21 -->
<g id="node48" class="node"><title>Node21</title>
<a xlink:href="../../d9/d4b/ns_i_supports_utils_8h.html" target="_top" xlink:title="nsISupportsUtils.h">
<polygon fill="white" stroke="black" points="297,-464.5 297,-485.5 395,-485.5 395,-464.5 297,-464.5"/>
<text text-anchor="middle" x="346" y="-472.5" font-family="Helvetica,sans-Serif" font-size="10.00">nsISupportsUtils.h</text>
</a>
</g>
<!-- Node2&#45;&gt;Node21 -->
<g id="edge54" class="edge"><title>Node2&#45;&gt;Node21</title>
<path fill="none" stroke="midnightblue" d="M200.234,-522.497C229.253,-513.041 272.09,-499.083 303.824,-488.743"/>
<polygon fill="midnightblue" stroke="midnightblue" points="305.281,-491.949 313.705,-485.523 303.113,-485.293 305.281,-491.949"/>
</g>
<!-- Node4 -->
<g id="node7" class="node"><title>Node4</title>
<a xlink:href="../../d3/dd8/nscore_8h.html" target="_top" xlink:title="nscore.h">
<polygon fill="white" stroke="black" points="254,-232.5 254,-253.5 308,-253.5 308,-232.5 254,-232.5"/>
<text text-anchor="middle" x="281" y="-240.5" font-family="Helvetica,sans-Serif" font-size="10.00">nscore.h</text>
</a>
</g>
<!-- Node3&#45;&gt;Node4 -->
<g id="edge6" class="edge"><title>Node3&#45;&gt;Node4</title>
<path fill="none" stroke="midnightblue" d="M110.175,-406.322C117.776,-382.432 139.177,-324.098 176,-290 195.189,-272.231 222.219,-260.343 244.049,-252.969"/>
<polygon fill="midnightblue" stroke="midnightblue" points="245.207,-256.273 253.666,-249.893 243.075,-249.606 245.207,-256.273"/>
</g>
<!-- Node5 -->
<g id="node9" class="node"><title>Node5</title>
<a xlink:href="../../d7/d2d/xpcom-config_8h.html" target="_top" xlink:title="xpcom&#45;config.h">
<polygon fill="white" stroke="black" points="21.5,-116.5 21.5,-137.5 104.5,-137.5 104.5,-116.5 21.5,-116.5"/>
<text text-anchor="middle" x="63" y="-124.5" font-family="Helvetica,sans-Serif" font-size="10.00">xpcom&#45;config.h</text>
</a>
</g>
<!-- Node4&#45;&gt;Node5 -->
<g id="edge8" class="edge"><title>Node4&#45;&gt;Node5</title>
<path fill="none" stroke="midnightblue" d="M253.726,-241.379C199.93,-237.551 83.2469,-225.918 59,-196 48.1784,-182.647 50.7186,-162.636 55.0562,-147.597"/>
<polygon fill="midnightblue" stroke="midnightblue" points="58.5164,-148.286 58.3669,-137.692 51.8774,-146.067 58.5164,-148.286"/>
</g>
<!-- Node6 -->
<g id="node11" class="node"><title>Node6</title>
<a xlink:href="../../d1/d62/mozalloc_8h.html" target="_top" xlink:title="mozilla/mozalloc.h">
<polygon fill="white" stroke="black" points="68,-174.5 68,-195.5 166,-195.5 166,-174.5 68,-174.5"/>
<text text-anchor="middle" x="117" y="-182.5" font-family="Helvetica,sans-Serif" font-size="10.00">mozilla/mozalloc.h</text>
</a>
</g>
<!-- Node4&#45;&gt;Node6 -->
<g id="edge10" class="edge"><title>Node4&#45;&gt;Node6</title>
<path fill="none" stroke="midnightblue" d="M253.919,-233.422C227.436,-224.057 186.808,-209.688 156.681,-199.033"/>
<polygon fill="midnightblue" stroke="midnightblue" points="157.496,-195.609 146.901,-195.575 155.162,-202.209 157.496,-195.609"/>
</g>
<!-- Node11 -->
<g id="node22" class="node"><title>Node11</title>
<a xlink:href="../../d1/de4/mozalloc__macro__wrappers_8h.html" target="_top" xlink:title="mozilla/mozalloc_macro_wrappers.h">
<polygon fill="white" stroke="black" points="183.5,-174.5 183.5,-195.5 358.5,-195.5 358.5,-174.5 183.5,-174.5"/>
<text text-anchor="middle" x="271" y="-182.5" font-family="Helvetica,sans-Serif" font-size="10.00">mozilla/mozalloc_macro_wrappers.h</text>
</a>
</g>
<!-- Node4&#45;&gt;Node11 -->
<g id="edge22" class="edge"><title>Node4&#45;&gt;Node11</title>
<path fill="none" stroke="midnightblue" d="M279.166,-232.362C277.869,-224.84 276.089,-214.519 274.523,-205.431"/>
<polygon fill="midnightblue" stroke="midnightblue" points="277.971,-204.831 272.823,-195.571 271.073,-206.02 277.971,-204.831"/>
</g>
<!-- Node12 -->
<g id="node24" class="node"><title>Node12</title>
<polygon fill="white" stroke="#bfbfbf" points="682,-174.5 682,-195.5 734,-195.5 734,-174.5 682,-174.5"/>
<text text-anchor="middle" x="708" y="-182.5" font-family="Helvetica,sans-Serif" font-size="10.00">stddef.h</text>
</g>
<!-- Node4&#45;&gt;Node12 -->
<g id="edge24" class="edge"><title>Node4&#45;&gt;Node12</title>
<path fill="none" stroke="midnightblue" d="M308.376,-241.466C371.143,-237.581 530.281,-225.629 671.622,-195.983"/>
<polygon fill="midnightblue" stroke="midnightblue" points="672.717,-199.328 681.767,-193.818 671.256,-192.483 672.717,-199.328"/>
</g>
<!-- Node13 -->
<g id="node26" class="node"><title>Node13</title>
<polygon fill="white" stroke="#bfbfbf" points="641.5,-116.5 641.5,-137.5 690.5,-137.5 690.5,-116.5 641.5,-116.5"/>
<text text-anchor="middle" x="666" y="-124.5" font-family="Helvetica,sans-Serif" font-size="10.00">stdint.h</text>
</g>
<!-- Node4&#45;&gt;Node13 -->
<g id="edge26" class="edge"><title>Node4&#45;&gt;Node13</title>
<path fill="none" stroke="midnightblue" d="M308.176,-237.632C346.589,-229.801 418.797,-214.18 479,-196 533.282,-179.608 594.687,-155.932 631.858,-141.011"/>
<polygon fill="midnightblue" stroke="midnightblue" points="633.257,-144.221 641.22,-137.233 630.637,-137.73 633.257,-144.221"/>
</g>
<!-- Node14 -->
<g id="node28" class="node"><title>Node14</title>
<a xlink:href="../../df/dcf/_null_ptr_8h.html" target="_top" xlink:title="mozilla/NullPtr.h">
<polygon fill="white" stroke="black" points="421.5,-58.5 421.5,-79.5 510.5,-79.5 510.5,-58.5 421.5,-58.5"/>
<text text-anchor="middle" x="466" y="-66.5" font-family="Helvetica,sans-Serif" font-size="10.00">mozilla/NullPtr.h</text>
</a>
</g>
<!-- Node4&#45;&gt;Node14 -->
<g id="edge28" class="edge"><title>Node4&#45;&gt;Node14</title>
<path fill="none" stroke="midnightblue" d="M253.637,-240.257C199.474,-234.386 80.9829,-219.222 48,-196 16.2667,-173.658 -12.9879,-144.824 13,-116 39.2171,-86.922 296.036,-74.7046 410.93,-70.6641"/>
<polygon fill="midnightblue" stroke="midnightblue" points="411.39,-74.1504 421.264,-70.3093 411.15,-67.1546 411.39,-74.1504"/>
</g>
<!-- Node15 -->
<g id="node31" class="node"><title>Node15</title>
<a xlink:href="../../d8/dcf/ns_error_8h.html" target="_top" xlink:title="nsError.h">
<polygon fill="white" stroke="black" points="414,-174.5 414,-195.5 470,-195.5 470,-174.5 414,-174.5"/>
<text text-anchor="middle" x="442" y="-182.5" font-family="Helvetica,sans-Serif" font-size="10.00">nsError.h</text>
</a>
</g>
<!-- Node4&#45;&gt;Node15 -->
<g id="edge32" class="edge"><title>Node4&#45;&gt;Node15</title>
<path fill="none" stroke="midnightblue" d="M308.311,-233.161C334.669,-223.666 374.796,-209.21 404.212,-198.613"/>
<polygon fill="midnightblue" stroke="midnightblue" points="405.52,-201.862 413.741,-195.18 403.147,-195.277 405.52,-201.862"/>
</g>
<!-- Node6&#45;&gt;Node5 -->
<g id="edge16" class="edge"><title>Node6&#45;&gt;Node5</title>
<path fill="none" stroke="midnightblue" d="M107.096,-174.362C99.4836,-166.186 88.792,-154.702 79.843,-145.091"/>
<polygon fill="midnightblue" stroke="midnightblue" points="82.2175,-142.505 72.8416,-137.571 77.0942,-147.275 82.2175,-142.505"/>
</g>
<!-- Node7 -->
<g id="node13" class="node"><title>Node7</title>
<polygon fill="white" stroke="#bfbfbf" points="346,-116.5 346,-137.5 394,-137.5 394,-116.5 346,-116.5"/>
<text text-anchor="middle" x="370" y="-124.5" font-family="Helvetica,sans-Serif" font-size="10.00">stdlib.h</text>
</g>
<!-- Node6&#45;&gt;Node7 -->
<g id="edge12" class="edge"><title>Node6&#45;&gt;Node7</title>
<path fill="none" stroke="midnightblue" d="M166.384,-175.117C216.944,-164.888 293.071,-149.159 336.23,-137.963"/>
<polygon fill="midnightblue" stroke="midnightblue" points="337.189,-141.329 345.944,-135.363 335.379,-134.567 337.189,-141.329"/>
</g>
<!-- Node8 -->
<g id="node15" class="node"><title>Node8</title>
<polygon fill="white" stroke="#bfbfbf" points="159.5,-116.5 159.5,-137.5 208.5,-137.5 208.5,-116.5 159.5,-116.5"/>
<text text-anchor="middle" x="184" y="-124.5" font-family="Helvetica,sans-Serif" font-size="10.00">string.h</text>
</g>
<!-- Node6&#45;&gt;Node8 -->
<g id="edge14" class="edge"><title>Node6&#45;&gt;Node8</title>
<path fill="none" stroke="midnightblue" d="M129.289,-174.362C139.017,-165.941 152.798,-154.011 164.095,-144.231"/>
<polygon fill="midnightblue" stroke="midnightblue" points="166.519,-146.762 171.789,-137.571 161.938,-141.469 166.519,-146.762"/>
</g>
<!-- Node9 -->
<g id="node18" class="node"><title>Node9</title>
<a xlink:href="../../d1/da8/_attributes_8h.html" target="_top" xlink:title="mozilla/Attributes.h">
<polygon fill="white" stroke="black" points="707.5,-58.5 707.5,-79.5 808.5,-79.5 808.5,-58.5 707.5,-58.5"/>
<text text-anchor="middle" x="758" y="-66.5" font-family="Helvetica,sans-Serif" font-size="10.00">mozilla/Attributes.h</text>
</a>
</g>
<!-- Node6&#45;&gt;Node9 -->
<g id="edge18" class="edge"><title>Node6&#45;&gt;Node9</title>
<path fill="none" stroke="midnightblue" d="M118.835,-174.452C122.18,-158.752 130.873,-129.626 151,-116 173.384,-100.846 547.673,-79.8954 697.101,-72.0917"/>
<polygon fill="midnightblue" stroke="midnightblue" points="697.659,-75.5675 707.463,-71.5528 697.295,-68.577 697.659,-75.5675"/>
</g>
<!-- Node10 -->
<g id="node20" class="node"><title>Node10</title>
<a xlink:href="../../da/da7/_compiler_8h.html" target="_top" xlink:title="mozilla/Compiler.h">
<polygon fill="white" stroke="black" points="709,-0.5 709,-21.5 807,-21.5 807,-0.5 709,-0.5"/>
<text text-anchor="middle" x="758" y="-8.5" font-family="Helvetica,sans-Serif" font-size="10.00">mozilla/Compiler.h</text>
</a>
</g>
<!-- Node9&#45;&gt;Node10 -->
<g id="edge20" class="edge"><title>Node9&#45;&gt;Node10</title>
<path fill="none" stroke="midnightblue" d="M758,-58.3619C758,-50.9219 758,-40.7427 758,-31.7276"/>
<polygon fill="midnightblue" stroke="midnightblue" points="761.5,-31.5706 758,-21.5707 754.5,-31.5707 761.5,-31.5706"/>
</g>
<!-- Node14&#45;&gt;Node10 -->
<g id="edge30" class="edge"><title>Node14&#45;&gt;Node10</title>
<path fill="none" stroke="midnightblue" d="M510.666,-60.1279C561.051,-50.1201 643.205,-33.8017 698.876,-22.7438"/>
<polygon fill="midnightblue" stroke="midnightblue" points="699.822,-26.1243 708.949,-20.743 698.459,-19.2584 699.822,-26.1243"/>
</g>
<!-- Node15&#45;&gt;Node13 -->
<g id="edge40" class="edge"><title>Node15&#45;&gt;Node13</title>
<path fill="none" stroke="midnightblue" d="M470.022,-178.848C505.591,-170.878 569.008,-156.134 631.576,-138.278"/>
<polygon fill="midnightblue" stroke="midnightblue" points="632.561,-141.637 641.201,-135.504 630.623,-134.91 632.561,-141.637"/>
</g>
<!-- Node16 -->
<g id="node33" class="node"><title>Node16</title>
<a xlink:href="../../d1/d8a/_likely_8h.html" target="_top" xlink:title="mozilla/Likely.h">
<polygon fill="white" stroke="black" points="540,-116.5 540,-137.5 624,-137.5 624,-116.5 540,-116.5"/>
<text text-anchor="middle" x="582" y="-124.5" font-family="Helvetica,sans-Serif" font-size="10.00">mozilla/Likely.h</text>
</a>
</g>
<!-- Node15&#45;&gt;Node16 -->
<g id="edge34" class="edge"><title>Node15&#45;&gt;Node16</title>
<path fill="none" stroke="midnightblue" d="M467.353,-174.497C489.613,-165.275 522.212,-151.769 546.963,-141.515"/>
<polygon fill="midnightblue" stroke="midnightblue" points="548.464,-144.682 556.363,-137.621 545.784,-138.215 548.464,-144.682"/>
</g>
<!-- Node17 -->
<g id="node35" class="node"><title>Node17</title>
<a xlink:href="../../d3/dff/_typed_enum_8h.html" target="_top" xlink:title="mozilla/TypedEnum.h">
<polygon fill="white" stroke="black" points="411.5,-116.5 411.5,-137.5 522.5,-137.5 522.5,-116.5 411.5,-116.5"/>
<text text-anchor="middle" x="467" y="-124.5" font-family="Helvetica,sans-Serif" font-size="10.00">mozilla/TypedEnum.h</text>
</a>
</g>
<!-- Node15&#45;&gt;Node17 -->
<g id="edge36" class="edge"><title>Node15&#45;&gt;Node17</title>
<path fill="none" stroke="midnightblue" d="M446.585,-174.362C449.898,-166.677 454.47,-156.069 458.448,-146.84"/>
<polygon fill="midnightblue" stroke="midnightblue" points="461.699,-148.139 462.444,-137.571 455.271,-145.368 461.699,-148.139"/>
</g>
<!-- Node18 -->
<g id="node39" class="node"><title>Node18</title>
<a xlink:href="../../d7/dda/_error_list_c_defines_8h.html" target="_top" xlink:title="ErrorListCDefines.h">
<polygon fill="white" stroke="black" points="225.5,-116.5 225.5,-137.5 328.5,-137.5 328.5,-116.5 225.5,-116.5"/>
<text text-anchor="middle" x="277" y="-124.5" font-family="Helvetica,sans-Serif" font-size="10.00">ErrorListCDefines.h</text>
</a>
</g>
<!-- Node15&#45;&gt;Node18 -->
<g id="edge42" class="edge"><title>Node15&#45;&gt;Node18</title>
<path fill="none" stroke="midnightblue" d="M413.635,-175.029C386.897,-165.63 346.574,-151.456 316.656,-140.94"/>
<polygon fill="midnightblue" stroke="midnightblue" points="317.539,-137.54 306.944,-137.526 315.217,-144.144 317.539,-137.54"/>
</g>
<!-- Node17&#45;&gt;Node9 -->
<g id="edge38" class="edge"><title>Node17&#45;&gt;Node9</title>
<path fill="none" stroke="midnightblue" d="M519.698,-116.497C569.705,-106.53 644.814,-91.5594 697.303,-81.0977"/>
<polygon fill="midnightblue" stroke="midnightblue" points="698.034,-84.5209 707.157,-79.1337 696.666,-77.6559 698.034,-84.5209"/>
</g>
<!-- Node19&#45;&gt;Node4 -->
<g id="edge46" class="edge"><title>Node19&#45;&gt;Node4</title>
<path fill="none" stroke="midnightblue" d="M265.525,-348.15C262.792,-334.479 259.243,-310.314 263,-290 264.717,-280.715 268.192,-270.894 271.634,-262.644"/>
<polygon fill="midnightblue" stroke="midnightblue" points="274.835,-264.062 275.697,-253.502 268.438,-261.219 274.835,-264.062"/>
</g>
<!-- Node20 -->
<g id="node44" class="node"><title>Node20</title>
<a xlink:href="../../d9/d0a/ns_i_d_8h.html" target="_top" xlink:title="nsID.h">
<polygon fill="white" stroke="black" points="272,-290.5 272,-311.5 318,-311.5 318,-290.5 272,-290.5"/>
<text text-anchor="middle" x="295" y="-298.5" font-family="Helvetica,sans-Serif" font-size="10.00">nsID.h</text>
</a>
</g>
<!-- Node19&#45;&gt;Node20 -->
<g id="edge48" class="edge"><title>Node19&#45;&gt;Node20</title>
<path fill="none" stroke="midnightblue" d="M272.952,-348.362C276.53,-340.677 281.468,-330.069 285.764,-320.84"/>
<polygon fill="midnightblue" stroke="midnightblue" points="289.032,-322.114 290.079,-311.571 282.686,-319.159 289.032,-322.114"/>
</g>
<!-- Node20&#45;&gt;Node4 -->
<g id="edge52" class="edge"><title>Node20&#45;&gt;Node4</title>
<path fill="none" stroke="midnightblue" d="M292.432,-290.362C290.617,-282.84 288.125,-272.519 285.932,-263.431"/>
<polygon fill="midnightblue" stroke="midnightblue" points="289.3,-262.47 283.552,-253.571 282.496,-264.113 289.3,-262.47"/>
</g>
<!-- Node20&#45;&gt;Node8 -->
<g id="edge50" class="edge"><title>Node20&#45;&gt;Node8</title>
<path fill="none" stroke="midnightblue" d="M309.197,-290.466C338.008,-267.829 398.07,-213.409 367,-174 326.46,-122.579 286.658,-153.743 218.59,-138.057"/>
<polygon fill="midnightblue" stroke="midnightblue" points="219.353,-134.64 208.795,-135.52 217.597,-141.416 219.353,-134.64"/>
</g>
<!-- Node21&#45;&gt;Node4 -->
<g id="edge56" class="edge"><title>Node21&#45;&gt;Node4</title>
<path fill="none" stroke="midnightblue" d="M320.784,-464.372C288.024,-449.008 232.274,-417.162 209,-370 189.093,-329.661 231.395,-284.214 259.217,-260.129"/>
<polygon fill="midnightblue" stroke="midnightblue" points="261.538,-262.75 266.959,-253.647 257.044,-257.383 261.538,-262.75"/>
</g>
<!-- Node21&#45;&gt;Node15 -->
<g id="edge60" class="edge"><title>Node21&#45;&gt;Node15</title>
<path fill="none" stroke="midnightblue" d="M349.531,-464.335C363.672,-421.615 416.369,-262.426 435.231,-205.447"/>
<polygon fill="midnightblue" stroke="midnightblue" points="438.617,-206.355 438.437,-195.762 431.972,-204.156 438.617,-206.355"/>
</g>
<!-- Node21&#45;&gt;Node19 -->
<g id="edge58" class="edge"><title>Node21&#45;&gt;Node19</title>
<path fill="none" stroke="midnightblue" d="M338.802,-464.295C325.626,-444.7 297.465,-402.82 280.904,-378.191"/>
<polygon fill="midnightblue" stroke="midnightblue" points="283.665,-376.025 275.181,-369.679 277.856,-379.931 283.665,-376.025"/>
</g>
<!-- Node22 -->
<g id="node53" class="node"><title>Node22</title>
<a xlink:href="../../dc/d6d/ns_debug_8h.html" target="_top" xlink:title="nsDebug.h">
<polygon fill="white" stroke="black" points="428,-348.5 428,-369.5 492,-369.5 492,-348.5 428,-348.5"/>
<text text-anchor="middle" x="460" y="-356.5" font-family="Helvetica,sans-Serif" font-size="10.00">nsDebug.h</text>
</a>
</g>
<!-- Node21&#45;&gt;Node22 -->
<g id="edge62" class="edge"><title>Node21&#45;&gt;Node22</title>
<path fill="none" stroke="midnightblue" d="M356.521,-464.295C376.117,-444.355 418.393,-401.337 442.403,-376.906"/>
<polygon fill="midnightblue" stroke="midnightblue" points="444.992,-379.265 449.505,-369.679 439.999,-374.358 444.992,-379.265"/>
</g>
<!-- Node28 -->
<g id="node74" class="node"><title>Node28</title>
<a xlink:href="../../d0/d5a/ns_i_supports_impl_8h.html" target="_top" xlink:title="nsISupportsImpl.h">
<polygon fill="white" stroke="black" points="506,-406.5 506,-427.5 602,-427.5 602,-406.5 506,-406.5"/>
<text text-anchor="middle" x="554" y="-414.5" font-family="Helvetica,sans-Serif" font-size="10.00">nsISupportsImpl.h</text>
</a>
</g>
<!-- Node21&#45;&gt;Node28 -->
<g id="edge92" class="edge"><title>Node21&#45;&gt;Node28</title>
<path fill="none" stroke="midnightblue" d="M378.327,-464.497C411.099,-454.877 462.165,-440.598 500.863,-430.209"/>
<polygon fill="midnightblue" stroke="midnightblue" points="502.16,-433.485 510.919,-427.523 500.354,-426.722 502.16,-433.485"/>
</g>
<!-- Node22&#45;&gt;Node4 -->
<g id="edge64" class="edge"><title>Node22&#45;&gt;Node4</title>
<path fill="none" stroke="midnightblue" d="M452.782,-348.263C442.289,-333.371 421.49,-306.431 398,-290 373.672,-272.983 342.283,-260.805 318.142,-253.115"/>
<polygon fill="midnightblue" stroke="midnightblue" points="318.868,-249.677 308.282,-250.093 316.817,-256.37 318.868,-249.677"/>
</g>
<!-- Node22&#45;&gt;Node15 -->
<g id="edge66" class="edge"><title>Node22&#45;&gt;Node15</title>
<path fill="none" stroke="midnightblue" d="M458.901,-348.377C455.996,-320.293 448.07,-243.673 444.193,-206.203"/>
<polygon fill="midnightblue" stroke="midnightblue" points="447.641,-205.514 443.13,-195.928 440.678,-206.235 447.641,-205.514"/>
</g>
<!-- Node22&#45;&gt;Node16 -->
<g id="edge90" class="edge"><title>Node22&#45;&gt;Node16</title>
<path fill="none" stroke="midnightblue" d="M492.032,-349.502C520.879,-340.224 560.081,-325.558 569,-312 588.54,-282.295 573.344,-267.289 569,-232 566.985,-215.631 562.015,-212.369 560,-196 558.805,-186.295 557.877,-183.544 560,-174 562.086,-164.622 566.252,-154.901 570.403,-146.75"/>
<polygon fill="midnightblue" stroke="midnightblue" points="573.613,-148.173 575.317,-137.716 567.464,-144.828 573.613,-148.173"/>
</g>
<!-- Node23 -->
<g id="node57" class="node"><title>Node23</title>
<a xlink:href="../../dd/d3a/ns_x_p_c_o_m_8h.html" target="_top" xlink:title="nsXPCOM.h">
<polygon fill="white" stroke="black" points="488,-290.5 488,-311.5 560,-311.5 560,-290.5 488,-290.5"/>
<text text-anchor="middle" x="524" y="-298.5" font-family="Helvetica,sans-Serif" font-size="10.00">nsXPCOM.h</text>
</a>
</g>
<!-- Node22&#45;&gt;Node23 -->
<g id="edge68" class="edge"><title>Node22&#45;&gt;Node23</title>
<path fill="none" stroke="midnightblue" d="M471.739,-348.362C480.941,-340.023 493.94,-328.242 504.672,-318.516"/>
<polygon fill="midnightblue" stroke="midnightblue" points="507.276,-320.879 512.336,-311.571 502.576,-315.692 507.276,-320.879"/>
</g>
<!-- Node25 -->
<g id="node62" class="node"><title>Node25</title>
<a xlink:href="../../d9/de9/_assertions_8h.html" target="_top" xlink:title="mozilla/Assertions.h">
<polygon fill="white" stroke="black" points="893.5,-232.5 893.5,-253.5 998.5,-253.5 998.5,-232.5 893.5,-232.5"/>
<text text-anchor="middle" x="946" y="-240.5" font-family="Helvetica,sans-Serif" font-size="10.00">mozilla/Assertions.h</text>
</a>
</g>
<!-- Node22&#45;&gt;Node25 -->
<g id="edge74" class="edge"><title>Node22&#45;&gt;Node25</title>
<path fill="none" stroke="midnightblue" d="M492.217,-350.307C495.185,-349.521 498.147,-348.742 501,-348 603.025,-321.451 628.381,-314.149 731,-290 782.992,-277.765 842.312,-264.877 885.454,-255.698"/>
<polygon fill="midnightblue" stroke="midnightblue" points="886.451,-259.065 895.506,-253.564 884.997,-252.217 886.451,-259.065"/>
</g>
<!-- Node23&#45;&gt;Node4 -->
<g id="edge70" class="edge"><title>Node23&#45;&gt;Node4</title>
<path fill="none" stroke="midnightblue" d="M487.883,-292.379C442.281,-281.495 364.232,-262.866 318.148,-251.867"/>
<polygon fill="midnightblue" stroke="midnightblue" points="318.808,-248.426 308.268,-249.508 317.182,-255.235 318.808,-248.426"/>
</g>
<!-- Node24 -->
<g id="node60" class="node"><title>Node24</title>
<a xlink:href="../../d1/d66/ns_x_p_c_o_m_c_i_d_8h.html" target="_top" xlink:title="nsXPCOMCID.h">
<polygon fill="white" stroke="black" points="470,-232.5 470,-253.5 560,-253.5 560,-232.5 470,-232.5"/>
<text text-anchor="middle" x="515" y="-240.5" font-family="Helvetica,sans-Serif" font-size="10.00">nsXPCOMCID.h</text>
</a>
</g>
<!-- Node23&#45;&gt;Node24 -->
<g id="edge72" class="edge"><title>Node23&#45;&gt;Node24</title>
<path fill="none" stroke="midnightblue" d="M522.349,-290.362C521.195,-282.922 519.615,-272.743 518.216,-263.728"/>
<polygon fill="midnightblue" stroke="midnightblue" points="521.632,-262.916 516.64,-253.571 514.715,-263.989 521.632,-262.916"/>
</g>
<!-- Node25&#45;&gt;Node7 -->
<g id="edge86" class="edge"><title>Node25&#45;&gt;Node7</title>
<path fill="none" stroke="midnightblue" d="M897.268,-232.478C863.831,-224.454 818.841,-212.05 781,-196 763.034,-188.38 761.554,-180.049 743,-174 601.632,-127.913 553.567,-168.395 404.323,-137.882"/>
<polygon fill="midnightblue" stroke="midnightblue" points="404.852,-134.417 394.344,-135.768 403.402,-141.265 404.852,-134.417"/>
</g>
<!-- Node25&#45;&gt;Node9 -->
<g id="edge76" class="edge"><title>Node25&#45;&gt;Node9</title>
<path fill="none" stroke="midnightblue" d="M998.656,-234.01C1042.22,-224.147 1093.58,-205.392 1071,-174 1041.16,-132.516 901.034,-97.8802 818.735,-80.679"/>
<polygon fill="midnightblue" stroke="midnightblue" points="819.253,-77.2121 808.752,-78.6185 817.838,-84.0676 819.253,-77.2121"/>
</g>
<!-- Node25&#45;&gt;Node10 -->
<g id="edge78" class="edge"><title>Node25&#45;&gt;Node10</title>
<path fill="none" stroke="midnightblue" d="M998.756,-237.504C1046.82,-229.978 1107.43,-212.676 1087,-174 1034.18,-74.0058 896.559,-34.3225 817.044,-19.3817"/>
<polygon fill="midnightblue" stroke="midnightblue" points="817.635,-15.9318 807.171,-17.5976 816.39,-22.8202 817.635,-15.9318"/>
</g>
<!-- Node25&#45;&gt;Node12 -->
<g id="edge82" class="edge"><title>Node25&#45;&gt;Node12</title>
<path fill="none" stroke="midnightblue" d="M899.479,-232.446C859.282,-223.209 799.681,-209.236 748,-196 746.744,-195.678 745.467,-195.348 744.178,-195.011"/>
<polygon fill="midnightblue" stroke="midnightblue" points="744.779,-191.548 734.215,-192.351 742.974,-198.312 744.779,-191.548"/>
</g>
<!-- Node25&#45;&gt;Node16 -->
<g id="edge80" class="edge"><title>Node25&#45;&gt;Node16</title>
<path fill="none" stroke="midnightblue" d="M942.312,-232.262C936.32,-216.591 922.888,-187.821 901,-174 802.061,-111.527 753.956,-156.188 634.145,-138.001"/>
<polygon fill="midnightblue" stroke="midnightblue" points="634.685,-134.543 624.25,-136.381 633.554,-141.451 634.685,-134.543"/>
</g>
<!-- Node26 -->
<g id="node68" class="node"><title>Node26</title>
<polygon fill="white" stroke="#bfbfbf" points="948,-174.5 948,-195.5 994,-195.5 994,-174.5 948,-174.5"/>
<text text-anchor="middle" x="971" y="-182.5" font-family="Helvetica,sans-Serif" font-size="10.00">stdio.h</text>
</g>
<!-- Node25&#45;&gt;Node26 -->
<g id="edge84" class="edge"><title>Node25&#45;&gt;Node26</title>
<path fill="none" stroke="midnightblue" d="M950.585,-232.362C953.898,-224.677 958.47,-214.069 962.448,-204.84"/>
<polygon fill="midnightblue" stroke="midnightblue" points="965.699,-206.139 966.444,-195.571 959.271,-203.368 965.699,-206.139"/>
</g>
<!-- Node27 -->
<g id="node71" class="node"><title>Node27</title>
<polygon fill="white" stroke="#bfbfbf" points="1012,-174.5 1012,-195.5 1062,-195.5 1062,-174.5 1012,-174.5"/>
<text text-anchor="middle" x="1037" y="-182.5" font-family="Helvetica,sans-Serif" font-size="10.00">signal.h</text>
</g>
<!-- Node25&#45;&gt;Node27 -->
<g id="edge88" class="edge"><title>Node25&#45;&gt;Node27</title>
<path fill="none" stroke="midnightblue" d="M962.691,-232.362C976.416,-223.614 996.084,-211.079 1011.74,-201.101"/>
<polygon fill="midnightblue" stroke="midnightblue" points="1013.86,-203.897 1020.42,-195.571 1010.1,-197.994 1013.86,-203.897"/>
</g>
<!-- Node28&#45;&gt;Node4 -->
<g id="edge94" class="edge"><title>Node28&#45;&gt;Node4</title>
<path fill="none" stroke="midnightblue" d="M509.446,-406.445C482.12,-398.798 447.106,-386.828 419,-370 392.474,-354.119 329.362,-291.912 298.542,-260.849"/>
<polygon fill="midnightblue" stroke="midnightblue" points="300.963,-258.32 291.444,-253.67 295.986,-263.242 300.963,-258.32"/>
</g>
<!-- Node28&#45;&gt;Node9 -->
<g id="edge132" class="edge"><title>Node28&#45;&gt;Node9</title>
<path fill="none" stroke="midnightblue" d="M602.28,-414.728C769.242,-406.239 1312,-373.098 1312,-301 1312,-301 1312,-301 1312,-185 1312,-135.039 962.377,-91.2509 818.62,-75.3578"/>
<polygon fill="midnightblue" stroke="midnightblue" points="818.955,-71.8737 808.632,-74.262 818.191,-78.8319 818.955,-71.8737"/>
</g>
<!-- Node28&#45;&gt;Node16 -->
<g id="edge136" class="edge"><title>Node28&#45;&gt;Node16</title>
<path fill="none" stroke="midnightblue" d="M572.434,-406.467C584.749,-398.287 599.938,-385.702 607,-370 616.033,-349.917 593.954,-202.478 585.3,-147.548"/>
<polygon fill="midnightblue" stroke="midnightblue" points="588.742,-146.911 583.717,-137.584 581.829,-148.01 588.742,-146.911"/>
</g>
<!-- Node28&#45;&gt;Node19 -->
<g id="edge96" class="edge"><title>Node28&#45;&gt;Node19</title>
<path fill="none" stroke="midnightblue" d="M505.807,-407.227C456.903,-397.309 381.072,-381.931 328.233,-371.215"/>
<polygon fill="midnightblue" stroke="midnightblue" points="328.813,-367.762 318.317,-369.204 327.422,-374.622 328.813,-367.762"/>
</g>
<!-- Node28&#45;&gt;Node21 -->
<g id="edge98" class="edge"><title>Node28&#45;&gt;Node21</title>
<path fill="none" stroke="midnightblue" d="M521.606,-427.523C488.809,-437.149 437.739,-451.428 399.058,-461.812"/>
<polygon fill="midnightblue" stroke="midnightblue" points="397.766,-458.535 389.007,-464.497 399.572,-465.298 397.766,-458.535"/>
</g>
<!-- Node28&#45;&gt;Node22 -->
<g id="edge116" class="edge"><title>Node28&#45;&gt;Node22</title>
<path fill="none" stroke="midnightblue" d="M536.759,-406.362C522.448,-397.532 501.885,-384.844 485.643,-374.822"/>
<polygon fill="midnightblue" stroke="midnightblue" points="487.48,-371.843 477.132,-369.571 483.804,-377.8 487.48,-371.843"/>
</g>
<!-- Node28&#45;&gt;Node25 -->
<g id="edge134" class="edge"><title>Node28&#45;&gt;Node25</title>
<path fill="none" stroke="midnightblue" d="M602.039,-406.973C636.451,-398.995 683.499,-386.444 723,-370 799.319,-338.229 882.154,-285.797 921.968,-259.343"/>
<polygon fill="midnightblue" stroke="midnightblue" points="924.101,-262.127 930.465,-253.657 920.208,-256.31 924.101,-262.127"/>
</g>
<!-- Node29 -->
<g id="node79" class="node"><title>Node29</title>
<a xlink:href="../../d2/df8/prthread_8h.html" target="_top" xlink:title="prthread.h">
<polygon fill="white" stroke="black" points="654,-348.5 654,-369.5 714,-369.5 714,-348.5 654,-348.5"/>
<text text-anchor="middle" x="684" y="-356.5" font-family="Helvetica,sans-Serif" font-size="10.00">prthread.h</text>
</a>
</g>
<!-- Node28&#45;&gt;Node29 -->
<g id="edge100" class="edge"><title>Node28&#45;&gt;Node29</title>
<path fill="none" stroke="midnightblue" d="M577.542,-406.497C598.029,-397.356 627.947,-384.008 650.854,-373.788"/>
<polygon fill="midnightblue" stroke="midnightblue" points="652.488,-376.892 660.194,-369.621 649.635,-370.499 652.488,-376.892"/>
</g>
<!-- Node35 -->
<g id="node94" class="node"><title>Node35</title>
<a xlink:href="../../dc/d1c/ns_trace_refcnt_8h.html" target="_top" xlink:title="nsTraceRefcnt.h">
<polygon fill="white" stroke="black" points="509.5,-348.5 509.5,-369.5 598.5,-369.5 598.5,-348.5 509.5,-348.5"/>
<text text-anchor="middle" x="554" y="-356.5" font-family="Helvetica,sans-Serif" font-size="10.00">nsTraceRefcnt.h</text>
</a>
</g>
<!-- Node28&#45;&gt;Node35 -->
<g id="edge118" class="edge"><title>Node28&#45;&gt;Node35</title>
<path fill="none" stroke="midnightblue" d="M554,-406.362C554,-398.922 554,-388.743 554,-379.728"/>
<polygon fill="midnightblue" stroke="midnightblue" points="557.5,-379.571 554,-369.571 550.5,-379.571 557.5,-379.571"/>
</g>
<!-- Node36 -->
<g id="node97" class="node"><title>Node36</title>
<a xlink:href="../../db/d18/_atomics_8h.html" target="_top" xlink:title="mozilla/Atomics.h">
<polygon fill="white" stroke="black" points="1017.5,-290.5 1017.5,-311.5 1112.5,-311.5 1112.5,-290.5 1017.5,-290.5"/>
<text text-anchor="middle" x="1065" y="-298.5" font-family="Helvetica,sans-Serif" font-size="10.00">mozilla/Atomics.h</text>
</a>
</g>
<!-- Node28&#45;&gt;Node36 -->
<g id="edge122" class="edge"><title>Node28&#45;&gt;Node36</title>
<path fill="none" stroke="midnightblue" d="M602.09,-414.67C670.323,-410.441 798.652,-399.064 904,-370 952.086,-356.734 1004.65,-332.14 1036.21,-316.181"/>
<polygon fill="midnightblue" stroke="midnightblue" points="1038,-319.199 1045.3,-311.528 1034.81,-312.968 1038,-319.199"/>
</g>
<!-- Node30 -->
<g id="node81" class="node"><title>Node30</title>
<a xlink:href="../../dc/d23/prtypes_8h.html" target="_top" xlink:title="prtypes.h">
<polygon fill="white" stroke="black" points="679.5,-232.5 679.5,-253.5 736.5,-253.5 736.5,-232.5 679.5,-232.5"/>
<text text-anchor="middle" x="708" y="-240.5" font-family="Helvetica,sans-Serif" font-size="10.00">prtypes.h</text>
</a>
</g>
<!-- Node29&#45;&gt;Node30 -->
<g id="edge102" class="edge"><title>Node29&#45;&gt;Node30</title>
<path fill="none" stroke="midnightblue" d="M686.215,-348.295C690.198,-329.045 698.63,-288.289 703.757,-263.509"/>
<polygon fill="midnightblue" stroke="midnightblue" points="707.192,-264.181 705.791,-253.679 700.337,-262.763 707.192,-264.181"/>
</g>
<!-- Node34 -->
<g id="node90" class="node"><title>Node34</title>
<a xlink:href="../../d7/dc8/prinrval_8h.html" target="_top" xlink:title="prinrval.h">
<polygon fill="white" stroke="black" points="740,-290.5 740,-311.5 796,-311.5 796,-290.5 740,-290.5"/>
<text text-anchor="middle" x="768" y="-298.5" font-family="Helvetica,sans-Serif" font-size="10.00">prinrval.h</text>
</a>
</g>
<!-- Node29&#45;&gt;Node34 -->
<g id="edge112" class="edge"><title>Node29&#45;&gt;Node34</title>
<path fill="none" stroke="midnightblue" d="M699.407,-348.362C711.958,-339.696 729.892,-327.313 744.275,-317.382"/>
<polygon fill="midnightblue" stroke="midnightblue" points="746.45,-320.133 752.691,-311.571 742.473,-314.372 746.45,-320.133"/>
</g>
<!-- Node30&#45;&gt;Node12 -->
<g id="edge106" class="edge"><title>Node30&#45;&gt;Node12</title>
<path fill="none" stroke="midnightblue" d="M708,-232.362C708,-224.922 708,-214.743 708,-205.728"/>
<polygon fill="midnightblue" stroke="midnightblue" points="711.5,-205.571 708,-195.571 704.5,-205.571 711.5,-205.571"/>
</g>
<!-- Node31 -->
<g id="node83" class="node"><title>Node31</title>
<a xlink:href="../../d7/d7e/prcpucfg_8h.html" target="_top" xlink:title="prcpucfg.h">
<polygon fill="white" stroke="black" points="602,-174.5 602,-195.5 664,-195.5 664,-174.5 602,-174.5"/>
<text text-anchor="middle" x="633" y="-182.5" font-family="Helvetica,sans-Serif" font-size="10.00">prcpucfg.h</text>
</a>
</g>
<!-- Node30&#45;&gt;Node31 -->
<g id="edge104" class="edge"><title>Node30&#45;&gt;Node31</title>
<path fill="none" stroke="midnightblue" d="M694.244,-232.362C683.249,-223.859 667.627,-211.779 654.914,-201.947"/>
<polygon fill="midnightblue" stroke="midnightblue" points="656.721,-198.919 646.669,-195.571 652.438,-204.457 656.721,-198.919"/>
</g>
<!-- Node32 -->
<g id="node86" class="node"><title>Node32</title>
<a xlink:href="../../d2/de8/protypes_8h.html" target="_top" xlink:title="obsolete/protypes.h">
<polygon fill="white" stroke="black" points="790,-174.5 790,-195.5 892,-195.5 892,-174.5 790,-174.5"/>
<text text-anchor="middle" x="841" y="-182.5" font-family="Helvetica,sans-Serif" font-size="10.00">obsolete/protypes.h</text>
</a>
</g>
<!-- Node30&#45;&gt;Node32 -->
<g id="edge108" class="edge"><title>Node30&#45;&gt;Node32</title>
<path fill="none" stroke="midnightblue" d="M732.085,-232.497C753.139,-223.315 783.927,-209.889 807.402,-199.652"/>
<polygon fill="midnightblue" stroke="midnightblue" points="808.877,-202.827 816.644,-195.621 806.079,-196.41 808.877,-202.827"/>
</g>
<!-- Node33 -->
<g id="node88" class="node"><title>Node33</title>
<polygon fill="white" stroke="#bfbfbf" points="807,-116.5 807,-137.5 875,-137.5 875,-116.5 807,-116.5"/>
<text text-anchor="middle" x="841" y="-124.5" font-family="Helvetica,sans-Serif" font-size="10.00">sys/types.h</text>
</g>
<!-- Node32&#45;&gt;Node33 -->
<g id="edge110" class="edge"><title>Node32&#45;&gt;Node33</title>
<path fill="none" stroke="midnightblue" d="M841,-174.362C841,-166.922 841,-156.743 841,-147.728"/>
<polygon fill="midnightblue" stroke="midnightblue" points="844.5,-147.571 841,-137.571 837.5,-147.571 844.5,-147.571"/>
</g>
<!-- Node34&#45;&gt;Node30 -->
<g id="edge114" class="edge"><title>Node34&#45;&gt;Node30</title>
<path fill="none" stroke="midnightblue" d="M756.995,-290.362C748.453,-282.104 736.42,-270.472 726.417,-260.803"/>
<polygon fill="midnightblue" stroke="midnightblue" points="728.558,-258.004 718.935,-253.571 723.692,-263.037 728.558,-258.004"/>
</g>
<!-- Node35&#45;&gt;Node23 -->
<g id="edge120" class="edge"><title>Node35&#45;&gt;Node23</title>
<path fill="none" stroke="midnightblue" d="M548.498,-348.362C544.48,-340.595 538.919,-329.843 534.11,-320.546"/>
<polygon fill="midnightblue" stroke="midnightblue" points="537.171,-318.845 529.468,-311.571 530.953,-322.061 537.171,-318.845"/>
</g>
<!-- Node36&#45;&gt;Node13 -->
<g id="edge130" class="edge"><title>Node36&#45;&gt;Node13</title>
<path fill="none" stroke="midnightblue" d="M1069.95,-290.16C1080.18,-265.937 1100.36,-206.966 1071,-174 1058.71,-160.196 796.749,-137.621 700.81,-129.784"/>
<polygon fill="midnightblue" stroke="midnightblue" points="700.993,-126.287 690.742,-128.966 700.426,-133.264 700.993,-126.287"/>
</g>
<!-- Node36&#45;&gt;Node25 -->
<g id="edge124" class="edge"><title>Node36&#45;&gt;Node25</title>
<path fill="none" stroke="midnightblue" d="M1043.45,-290.497C1024.86,-281.438 997.798,-268.246 976.905,-258.063"/>
<polygon fill="midnightblue" stroke="midnightblue" points="978.314,-254.856 967.792,-253.621 975.247,-261.149 978.314,-254.856"/>
</g>
<!-- Node37 -->
<g id="node100" class="node"><title>Node37</title>
<a xlink:href="../../d4/dd5/_type_traits_8h.html" target="_top" xlink:title="mozilla/TypeTraits.h">
<polygon fill="white" stroke="black" points="1179.5,-232.5 1179.5,-253.5 1284.5,-253.5 1284.5,-232.5 1179.5,-232.5"/>
<text text-anchor="middle" x="1232" y="-240.5" font-family="Helvetica,sans-Serif" font-size="10.00">mozilla/TypeTraits.h</text>
</a>
</g>
<!-- Node36&#45;&gt;Node37 -->
<g id="edge126" class="edge"><title>Node36&#45;&gt;Node37</title>
<path fill="none" stroke="midnightblue" d="M1095.24,-290.497C1122.35,-281.082 1162.31,-267.204 1192.04,-256.877"/>
<polygon fill="midnightblue" stroke="midnightblue" points="1193.4,-260.11 1201.7,-253.523 1191.11,-253.498 1193.4,-260.11"/>
</g>
<!-- Node38 -->
<g id="node102" class="node"><title>Node38</title>
<polygon fill="white" stroke="#bfbfbf" points="1206.5,-174.5 1206.5,-195.5 1257.5,-195.5 1257.5,-174.5 1206.5,-174.5"/>
<text text-anchor="middle" x="1232" y="-182.5" font-family="Helvetica,sans-Serif" font-size="10.00">wchar.h</text>
</g>
<!-- Node37&#45;&gt;Node38 -->
<g id="edge128" class="edge"><title>Node37&#45;&gt;Node38</title>
<path fill="none" stroke="midnightblue" d="M1232,-232.362C1232,-224.922 1232,-214.743 1232,-205.728"/>
<polygon fill="midnightblue" stroke="midnightblue" points="1235.5,-205.571 1232,-195.571 1228.5,-205.571 1235.5,-205.571"/>
</g>
</g>
</svg>
        <g id="navigator" transform="translate(0 0)" fill="#404254">
                <rect fill="#f2f5e9" fill-opacity="0.5" stroke="#606060" stroke-width=".5" x="0" y="0" width="60" height="60"/>
                <use id="zoomplus" xlink:href="#zoomPlus" x="17" y="9" onmousedown="handleZoom(evt,'in')"/>
                <use id="zoomminus" xlink:href="#zoomMin" x="42" y="9" onmousedown="handleZoom(evt,'out')"/>
                <use id="reset" xlink:href="#resetDef" x="30" y="36" onmousedown="handleReset()"/>
                <g id="arrowUp" xlink:href="#dirArrow" transform="translate(30 24)" onmousedown="handlePan(0,-1)">
                  <use xlink:href="#rim" fill="#404040">
                        <set attributeName="fill" to="#808080" begin="arrowUp.mouseover" end="arrowUp.mouseout"/>
                  </use>
                  <path fill="none" stroke="white" stroke-width="1.5" d="M0,-3.0v7 M-2.5,-0.5L0,-3.0L2.5,-0.5"/>
                </g>
                <g id="arrowRight" xlink:href="#dirArrow" transform="rotate(90) translate(36 -43)" onmousedown="handlePan(1,0)">
                  <use xlink:href="#rim" fill="#404040">
                        <set attributeName="fill" to="#808080" begin="arrowRight.mouseover" end="arrowRight.mouseout"/>
                  </use>
                  <path fill="none" stroke="white" stroke-width="1.5" d="M0,-3.0v7 M-2.5,-0.5L0,-3.0L2.5,-0.5"/>
                </g>
                <g id="arrowDown" xlink:href="#dirArrow" transform="rotate(180) translate(-30 -48)" onmousedown="handlePan(0,1)">
                  <use xlink:href="#rim" fill="#404040">
                        <set attributeName="fill" to="#808080" begin="arrowDown.mouseover" end="arrowDown.mouseout"/>
                  </use>
                  <path fill="none" stroke="white" stroke-width="1.5" d="M0,-3.0v7 M-2.5,-0.5L0,-3.0L2.5,-0.5"/>
                </g>
                <g id="arrowLeft" xlink:href="#dirArrow" transform="rotate(270) translate(-36 17)" onmousedown="handlePan(-1,0)">
                  <use xlink:href="#rim" fill="#404040">
                        <set attributeName="fill" to="#808080" begin="arrowLeft.mouseover" end="arrowLeft.mouseout"/>
                  </use>
                  <path fill="none" stroke="white" stroke-width="1.5" d="M0,-3.0v7 M-2.5,-0.5L0,-3.0L2.5,-0.5"/>
                </g>
        </g>
</svg>
