<?xml version="1.0" encoding="UTF-8" standalone="no"?>
<!DOCTYPE svg PUBLIC "-//W3C//DTD SVG 1.1//EN"
 "http://www.w3.org/Graphics/SVG/1.1/DTD/svg11.dtd">
<!-- Generated by graphviz version 2.26.3 (20100126.1600)
 -->
<!-- Title: G Pages: 1 -->
<!--zoomable 436 -->
<svg id="main" version="1.1" xmlns="http://www.w3.org/2000/svg" xmlns:xlink="http://www.w3.org/1999/xlink" xml:space="preserve" onload="init(evt)">
        <defs>
                <circle id="rim" cx="0" cy="0" r="7"/>
                <circle id="rim2" cx="0" cy="0" r="3.5"/>
                <g id="zoomPlus">
                        <use xlink:href="#rim" fill="#404040">
                                <set attributeName="fill" to="#808080" begin="zoomplus.mouseover" end="zoomplus.mouseout"/>
                        </use>
                        <path d="M-4,0h8M0,-4v8" fill="none" stroke="white" stroke-width="1.5" pointer-events="none"/>
                </g>
                <g id="zoomMin">
                        <use xlink:href="#rim" fill="#404040">
                                <set attributeName="fill" to="#808080" begin="zoomminus.mouseover" end="zoomminus.mouseout"/>
                        </use>
                        <path d="M-4,0h8" fill="none" stroke="white" stroke-width="1.5" pointer-events="none"/>
                </g>
                <g id="dirArrow">
                        <path fill="none" stroke="white" stroke-width="1.5" d="M0,-3.0v7 M-2.5,-0.5L0,-3.0L2.5,-0.5"/>
                </g>
               <g id="resetDef">
                       <use xlink:href="#rim2" fill="#404040">
                               <set attributeName="fill" to="#808080" begin="reset.mouseover" end="reset.mouseout"/>
                       </use>
               </g>
        </defs>

<script type="text/javascript">
var viewWidth = 563;
var viewHeight = 436;
var sectionId = 'dynsection-0';
</script>
<script xlink:href="../../svgpan.js"/>
<svg id="graph" class="graph">
<g id="viewport">
<title>G</title>
<polygon fill="white" stroke="white" points="-4,5 -4,-432 559.528,-432 559.528,5 -4,5"/>
<!-- Node1 -->
<g id="node1" class="node"><title>Node1</title>
<polygon fill="#bfbfbf" stroke="black" points="-0.5,-406.5 -0.5,-427.5 386.5,-427.5 386.5,-406.5 -0.5,-406.5"/>
<text text-anchor="middle" x="193" y="-414.5" font-family="Helvetica,sans-Serif" font-size="10.00">/home/aoi/Documents/FxOS/B2G/gaia/xulrunner&#45;sdk/include/nspr/obsolete/probslet.h</text>
</g>
<!-- Node2 -->
<g id="node3" class="node"><title>Node2</title>
<a xlink:href="../../da/d32/prio_8h.html" target="_top" xlink:title="prio.h">
<polygon fill="white" stroke="black" points="172.5,-290.5 172.5,-311.5 213.5,-311.5 213.5,-290.5 172.5,-290.5"/>
<text text-anchor="middle" x="193" y="-298.5" font-family="Helvetica,sans-Serif" font-size="10.00">prio.h</text>
</a>
</g>
<!-- Node1&#45;&gt;Node2 -->
<g id="edge2" class="edge"><title>Node1&#45;&gt;Node2</title>
<path fill="none" stroke="midnightblue" d="M193,-406.295C193,-387.131 193,-346.654 193,-321.843"/>
<polygon fill="midnightblue" stroke="midnightblue" points="196.5,-321.679 193,-311.679 189.5,-321.679 196.5,-321.679"/>
</g>
<!-- Node16 -->
<g id="node34" class="node"><title>Node16</title>
<a xlink:href="../../d5/df8/pprio_8h.html" target="_top" xlink:title="private/pprio.h">
<polygon fill="white" stroke="black" points="87,-348.5 87,-369.5 165,-369.5 165,-348.5 87,-348.5"/>
<text text-anchor="middle" x="126" y="-356.5" font-family="Helvetica,sans-Serif" font-size="10.00">private/pprio.h</text>
</a>
</g>
<!-- Node1&#45;&gt;Node16 -->
<g id="edge36" class="edge"><title>Node1&#45;&gt;Node16</title>
<path fill="none" stroke="midnightblue" d="M180.711,-406.362C170.983,-397.941 157.202,-386.011 145.905,-376.231"/>
<polygon fill="midnightblue" stroke="midnightblue" points="148.062,-373.469 138.211,-369.571 143.481,-378.762 148.062,-373.469"/>
</g>
<!-- Node17 -->
<g id="node38" class="node"><title>Node17</title>
<polygon fill="white" stroke="#bfbfbf" points="221,-348.5 221,-369.5 281,-369.5 281,-348.5 221,-348.5"/>
<text text-anchor="middle" x="251" y="-356.5" font-family="Helvetica,sans-Serif" font-size="10.00">sys/stat.h</text>
</g>
<!-- Node1&#45;&gt;Node17 -->
<g id="edge42" class="edge"><title>Node1&#45;&gt;Node17</title>
<path fill="none" stroke="midnightblue" d="M203.638,-406.362C211.896,-398.104 223.528,-386.472 233.197,-376.803"/>
<polygon fill="midnightblue" stroke="midnightblue" points="235.833,-379.117 240.429,-369.571 230.883,-374.167 235.833,-379.117"/>
</g>
<!-- Node3 -->
<g id="node5" class="node"><title>Node3</title>
<a xlink:href="../../d0/d1c/prlong_8h.html" target="_top" xlink:title="prlong.h">
<polygon fill="white" stroke="black" points="164.5,-174.5 164.5,-195.5 215.5,-195.5 215.5,-174.5 164.5,-174.5"/>
<text text-anchor="middle" x="190" y="-182.5" font-family="Helvetica,sans-Serif" font-size="10.00">prlong.h</text>
</a>
</g>
<!-- Node2&#45;&gt;Node3 -->
<g id="edge4" class="edge"><title>Node2&#45;&gt;Node3</title>
<path fill="none" stroke="midnightblue" d="M192.723,-290.295C192.228,-271.131 191.181,-230.654 190.539,-205.843"/>
<polygon fill="midnightblue" stroke="midnightblue" points="194.034,-205.585 190.276,-195.679 187.036,-205.766 194.034,-205.585"/>
</g>
<!-- Node9 -->
<g id="node17" class="node"><title>Node9</title>
<a xlink:href="../../d8/d28/prtime_8h.html" target="_top" xlink:title="prtime.h">
<polygon fill="white" stroke="black" points="221,-232.5 221,-253.5 273,-253.5 273,-232.5 221,-232.5"/>
<text text-anchor="middle" x="247" y="-240.5" font-family="Helvetica,sans-Serif" font-size="10.00">prtime.h</text>
</a>
</g>
<!-- Node2&#45;&gt;Node9 -->
<g id="edge16" class="edge"><title>Node2&#45;&gt;Node9</title>
<path fill="none" stroke="midnightblue" d="M202.904,-290.362C210.516,-282.186 221.208,-270.702 230.157,-261.091"/>
<polygon fill="midnightblue" stroke="midnightblue" points="232.906,-263.275 237.158,-253.571 227.783,-258.505 232.906,-263.275"/>
</g>
<!-- Node10 -->
<g id="node20" class="node"><title>Node10</title>
<a xlink:href="../../d7/dc8/prinrval_8h.html" target="_top" xlink:title="prinrval.h">
<polygon fill="white" stroke="black" points="109,-232.5 109,-253.5 165,-253.5 165,-232.5 109,-232.5"/>
<text text-anchor="middle" x="137" y="-240.5" font-family="Helvetica,sans-Serif" font-size="10.00">prinrval.h</text>
</a>
</g>
<!-- Node2&#45;&gt;Node10 -->
<g id="edge20" class="edge"><title>Node2&#45;&gt;Node10</title>
<path fill="none" stroke="midnightblue" d="M182.729,-290.362C174.756,-282.104 163.525,-270.472 154.189,-260.803"/>
<polygon fill="midnightblue" stroke="midnightblue" points="156.67,-258.334 147.206,-253.571 151.634,-263.196 156.67,-258.334"/>
</g>
<!-- Node11 -->
<g id="node23" class="node"><title>Node11</title>
<a xlink:href="../../d4/dd7/prinet_8h.html" target="_top" xlink:title="prinet.h">
<polygon fill="white" stroke="black" points="351.5,-232.5 351.5,-253.5 400.5,-253.5 400.5,-232.5 351.5,-232.5"/>
<text text-anchor="middle" x="376" y="-240.5" font-family="Helvetica,sans-Serif" font-size="10.00">prinet.h</text>
</a>
</g>
<!-- Node2&#45;&gt;Node11 -->
<g id="edge24" class="edge"><title>Node2&#45;&gt;Node11</title>
<path fill="none" stroke="midnightblue" d="M213.637,-294.459C244.785,-284.587 304.162,-265.768 341.83,-253.83"/>
<polygon fill="midnightblue" stroke="midnightblue" points="342.897,-257.163 351.373,-250.805 340.782,-250.49 342.897,-257.163"/>
</g>
<!-- Node4 -->
<g id="node7" class="node"><title>Node4</title>
<a xlink:href="../../dc/d23/prtypes_8h.html" target="_top" xlink:title="prtypes.h">
<polygon fill="white" stroke="black" points="134.5,-116.5 134.5,-137.5 191.5,-137.5 191.5,-116.5 134.5,-116.5"/>
<text text-anchor="middle" x="163" y="-124.5" font-family="Helvetica,sans-Serif" font-size="10.00">prtypes.h</text>
</a>
</g>
<!-- Node3&#45;&gt;Node4 -->
<g id="edge6" class="edge"><title>Node3&#45;&gt;Node4</title>
<path fill="none" stroke="midnightblue" d="M185.048,-174.362C181.47,-166.677 176.532,-156.069 172.236,-146.84"/>
<polygon fill="midnightblue" stroke="midnightblue" points="175.314,-145.159 167.921,-137.571 168.968,-148.114 175.314,-145.159"/>
</g>
<!-- Node5 -->
<g id="node9" class="node"><title>Node5</title>
<a xlink:href="../../d7/d7e/prcpucfg_8h.html" target="_top" xlink:title="prcpucfg.h">
<polygon fill="white" stroke="black" points="280,-58.5 280,-79.5 342,-79.5 342,-58.5 280,-58.5"/>
<text text-anchor="middle" x="311" y="-66.5" font-family="Helvetica,sans-Serif" font-size="10.00">prcpucfg.h</text>
</a>
</g>
<!-- Node4&#45;&gt;Node5 -->
<g id="edge8" class="edge"><title>Node4&#45;&gt;Node5</title>
<path fill="none" stroke="midnightblue" d="M189.802,-116.497C213.438,-107.234 248.1,-93.6499 274.308,-83.3793"/>
<polygon fill="midnightblue" stroke="midnightblue" points="275.864,-86.5287 283.898,-79.6212 273.31,-80.0113 275.864,-86.5287"/>
</g>
<!-- Node6 -->
<g id="node11" class="node"><title>Node6</title>
<polygon fill="white" stroke="#bfbfbf" points="90,-58.5 90,-79.5 142,-79.5 142,-58.5 90,-58.5"/>
<text text-anchor="middle" x="116" y="-66.5" font-family="Helvetica,sans-Serif" font-size="10.00">stddef.h</text>
</g>
<!-- Node4&#45;&gt;Node6 -->
<g id="edge10" class="edge"><title>Node4&#45;&gt;Node6</title>
<path fill="none" stroke="midnightblue" d="M154.379,-116.362C147.82,-108.268 138.634,-96.9318 130.894,-87.3796"/>
<polygon fill="midnightblue" stroke="midnightblue" points="133.581,-85.1364 124.566,-79.5707 128.142,-89.5436 133.581,-85.1364"/>
</g>
<!-- Node7 -->
<g id="node13" class="node"><title>Node7</title>
<a xlink:href="../../d2/de8/protypes_8h.html" target="_top" xlink:title="obsolete/protypes.h">
<polygon fill="white" stroke="black" points="160,-58.5 160,-79.5 262,-79.5 262,-58.5 160,-58.5"/>
<text text-anchor="middle" x="211" y="-66.5" font-family="Helvetica,sans-Serif" font-size="10.00">obsolete/protypes.h</text>
</a>
</g>
<!-- Node4&#45;&gt;Node7 -->
<g id="edge12" class="edge"><title>Node4&#45;&gt;Node7</title>
<path fill="none" stroke="midnightblue" d="M171.804,-116.362C178.502,-108.268 187.884,-96.9318 195.789,-87.3796"/>
<polygon fill="midnightblue" stroke="midnightblue" points="198.573,-89.5061 202.252,-79.5707 193.18,-85.0431 198.573,-89.5061"/>
</g>
<!-- Node8 -->
<g id="node15" class="node"><title>Node8</title>
<polygon fill="white" stroke="#bfbfbf" points="365,-0.5 365,-21.5 433,-21.5 433,-0.5 365,-0.5"/>
<text text-anchor="middle" x="399" y="-8.5" font-family="Helvetica,sans-Serif" font-size="10.00">sys/types.h</text>
</g>
<!-- Node7&#45;&gt;Node8 -->
<g id="edge14" class="edge"><title>Node7&#45;&gt;Node8</title>
<path fill="none" stroke="midnightblue" d="M245.045,-58.4966C275.96,-48.9592 321.723,-34.8408 355.322,-24.475"/>
<polygon fill="midnightblue" stroke="midnightblue" points="356.367,-27.8156 364.891,-21.5231 354.303,-21.1267 356.367,-27.8156"/>
</g>
<!-- Node9&#45;&gt;Node3 -->
<g id="edge18" class="edge"><title>Node9&#45;&gt;Node3</title>
<path fill="none" stroke="midnightblue" d="M236.545,-232.362C228.43,-224.104 216.999,-212.472 207.496,-202.803"/>
<polygon fill="midnightblue" stroke="midnightblue" points="209.894,-200.25 200.388,-195.571 204.901,-205.156 209.894,-200.25"/>
</g>
<!-- Node10&#45;&gt;Node4 -->
<g id="edge22" class="edge"><title>Node10&#45;&gt;Node4</title>
<path fill="none" stroke="midnightblue" d="M139.399,-232.295C143.714,-213.045 152.849,-172.289 158.403,-147.509"/>
<polygon fill="midnightblue" stroke="midnightblue" points="161.834,-148.203 160.606,-137.679 155.004,-146.672 161.834,-148.203"/>
</g>
<!-- Node11&#45;&gt;Node8 -->
<g id="edge26" class="edge"><title>Node11&#45;&gt;Node8</title>
<path fill="none" stroke="midnightblue" d="M400.651,-239.666C442.584,-233.435 524.928,-218.577 542,-196 589.796,-132.793 481.553,-58.4123 427.449,-26.6499"/>
<polygon fill="midnightblue" stroke="midnightblue" points="429.055,-23.536 418.643,-21.5758 425.56,-29.6011 429.055,-23.536"/>
</g>
<!-- Node12 -->
<g id="node26" class="node"><title>Node12</title>
<polygon fill="white" stroke="#bfbfbf" points="378.5,-174.5 378.5,-195.5 451.5,-195.5 451.5,-174.5 378.5,-174.5"/>
<text text-anchor="middle" x="415" y="-182.5" font-family="Helvetica,sans-Serif" font-size="10.00">sys/socket.h</text>
</g>
<!-- Node11&#45;&gt;Node12 -->
<g id="edge28" class="edge"><title>Node11&#45;&gt;Node12</title>
<path fill="none" stroke="midnightblue" d="M383.153,-232.362C388.486,-224.431 395.911,-213.389 402.251,-203.961"/>
<polygon fill="midnightblue" stroke="midnightblue" points="405.217,-205.822 407.892,-195.571 399.408,-201.916 405.217,-205.822"/>
</g>
<!-- Node13 -->
<g id="node28" class="node"><title>Node13</title>
<polygon fill="white" stroke="#bfbfbf" points="468.5,-174.5 468.5,-195.5 533.5,-195.5 533.5,-174.5 468.5,-174.5"/>
<text text-anchor="middle" x="501" y="-182.5" font-family="Helvetica,sans-Serif" font-size="10.00">netinet/in.h</text>
</g>
<!-- Node11&#45;&gt;Node13 -->
<g id="edge30" class="edge"><title>Node11&#45;&gt;Node13</title>
<path fill="none" stroke="midnightblue" d="M398.637,-232.497C418.248,-223.397 446.846,-210.127 468.833,-199.925"/>
<polygon fill="midnightblue" stroke="midnightblue" points="470.512,-203.005 478.109,-195.621 467.565,-196.655 470.512,-203.005"/>
</g>
<!-- Node14 -->
<g id="node30" class="node"><title>Node14</title>
<polygon fill="white" stroke="#bfbfbf" points="233,-174.5 233,-195.5 295,-195.5 295,-174.5 233,-174.5"/>
<text text-anchor="middle" x="264" y="-182.5" font-family="Helvetica,sans-Serif" font-size="10.00">arpa/inet.h</text>
</g>
<!-- Node11&#45;&gt;Node14 -->
<g id="edge32" class="edge"><title>Node11&#45;&gt;Node14</title>
<path fill="none" stroke="midnightblue" d="M355.718,-232.497C338.382,-223.519 313.21,-210.484 293.62,-200.339"/>
<polygon fill="midnightblue" stroke="midnightblue" points="294.999,-197.112 284.51,-195.621 291.78,-203.328 294.999,-197.112"/>
</g>
<!-- Node15 -->
<g id="node32" class="node"><title>Node15</title>
<polygon fill="white" stroke="#bfbfbf" points="312.5,-174.5 312.5,-195.5 361.5,-195.5 361.5,-174.5 312.5,-174.5"/>
<text text-anchor="middle" x="337" y="-182.5" font-family="Helvetica,sans-Serif" font-size="10.00">netdb.h</text>
</g>
<!-- Node11&#45;&gt;Node15 -->
<g id="edge34" class="edge"><title>Node11&#45;&gt;Node15</title>
<path fill="none" stroke="midnightblue" d="M368.847,-232.362C363.514,-224.431 356.089,-213.389 349.749,-203.961"/>
<polygon fill="midnightblue" stroke="midnightblue" points="352.592,-201.916 344.108,-195.571 346.783,-205.822 352.592,-201.916"/>
</g>
<!-- Node16&#45;&gt;Node2 -->
<g id="edge40" class="edge"><title>Node16&#45;&gt;Node2</title>
<path fill="none" stroke="midnightblue" d="M138.289,-348.362C148.017,-339.941 161.798,-328.011 173.095,-318.231"/>
<polygon fill="midnightblue" stroke="midnightblue" points="175.519,-320.762 180.789,-311.571 170.938,-315.469 175.519,-320.762"/>
</g>
<!-- Node16&#45;&gt;Node4 -->
<g id="edge38" class="edge"><title>Node16&#45;&gt;Node4</title>
<path fill="none" stroke="midnightblue" d="M120.444,-348.347C109.721,-326.372 88.2251,-274.511 100,-232 109.194,-198.806 131.986,-165.569 147.481,-145.641"/>
<polygon fill="midnightblue" stroke="midnightblue" points="150.308,-147.71 153.812,-137.711 144.838,-143.342 150.308,-147.71"/>
</g>
</g>
</svg>
        <g id="navigator" transform="translate(0 0)" fill="#404254">
                <rect fill="#f2f5e9" fill-opacity="0.5" stroke="#606060" stroke-width=".5" x="0" y="0" width="60" height="60"/>
                <use id="zoomplus" xlink:href="#zoomPlus" x="17" y="9" onmousedown="handleZoom(evt,'in')"/>
                <use id="zoomminus" xlink:href="#zoomMin" x="42" y="9" onmousedown="handleZoom(evt,'out')"/>
                <use id="reset" xlink:href="#resetDef" x="30" y="36" onmousedown="handleReset()"/>
                <g id="arrowUp" xlink:href="#dirArrow" transform="translate(30 24)" onmousedown="handlePan(0,-1)">
                  <use xlink:href="#rim" fill="#404040">
                        <set attributeName="fill" to="#808080" begin="arrowUp.mouseover" end="arrowUp.mouseout"/>
                  </use>
                  <path fill="none" stroke="white" stroke-width="1.5" d="M0,-3.0v7 M-2.5,-0.5L0,-3.0L2.5,-0.5"/>
                </g>
                <g id="arrowRight" xlink:href="#dirArrow" transform="rotate(90) translate(36 -43)" onmousedown="handlePan(1,0)">
                  <use xlink:href="#rim" fill="#404040">
                        <set attributeName="fill" to="#808080" begin="arrowRight.mouseover" end="arrowRight.mouseout"/>
                  </use>
                  <path fill="none" stroke="white" stroke-width="1.5" d="M0,-3.0v7 M-2.5,-0.5L0,-3.0L2.5,-0.5"/>
                </g>
                <g id="arrowDown" xlink:href="#dirArrow" transform="rotate(180) translate(-30 -48)" onmousedown="handlePan(0,1)">
                  <use xlink:href="#rim" fill="#404040">
                        <set attributeName="fill" to="#808080" begin="arrowDown.mouseover" end="arrowDown.mouseout"/>
                  </use>
                  <path fill="none" stroke="white" stroke-width="1.5" d="M0,-3.0v7 M-2.5,-0.5L0,-3.0L2.5,-0.5"/>
                </g>
                <g id="arrowLeft" xlink:href="#dirArrow" transform="rotate(270) translate(-36 17)" onmousedown="handlePan(-1,0)">
                  <use xlink:href="#rim" fill="#404040">
                        <set attributeName="fill" to="#808080" begin="arrowLeft.mouseover" end="arrowLeft.mouseout"/>
                  </use>
                  <path fill="none" stroke="white" stroke-width="1.5" d="M0,-3.0v7 M-2.5,-0.5L0,-3.0L2.5,-0.5"/>
                </g>
        </g>
</svg>
