<?xml version="1.0" encoding="UTF-8" standalone="no"?>
<!DOCTYPE svg PUBLIC "-//W3C//DTD SVG 1.1//EN"
 "http://www.w3.org/Graphics/SVG/1.1/DTD/svg11.dtd">
<!-- Generated by graphviz version 2.26.3 (20100126.1600)
 -->
<!-- Title: G Pages: 1 -->
<!--zoomable 320 -->
<svg id="main" version="1.1" xmlns="http://www.w3.org/2000/svg" xmlns:xlink="http://www.w3.org/1999/xlink" xml:space="preserve" onload="init(evt)">
        <defs>
                <circle id="rim" cx="0" cy="0" r="7"/>
                <circle id="rim2" cx="0" cy="0" r="3.5"/>
                <g id="zoomPlus">
                        <use xlink:href="#rim" fill="#404040">
                                <set attributeName="fill" to="#808080" begin="zoomplus.mouseover" end="zoomplus.mouseout"/>
                        </use>
                        <path d="M-4,0h8M0,-4v8" fill="none" stroke="white" stroke-width="1.5" pointer-events="none"/>
                </g>
                <g id="zoomMin">
                        <use xlink:href="#rim" fill="#404040">
                                <set attributeName="fill" to="#808080" begin="zoomminus.mouseover" end="zoomminus.mouseout"/>
                        </use>
                        <path d="M-4,0h8" fill="none" stroke="white" stroke-width="1.5" pointer-events="none"/>
                </g>
                <g id="dirArrow">
                        <path fill="none" stroke="white" stroke-width="1.5" d="M0,-3.0v7 M-2.5,-0.5L0,-3.0L2.5,-0.5"/>
                </g>
               <g id="resetDef">
                       <use xlink:href="#rim2" fill="#404040">
                               <set attributeName="fill" to="#808080" begin="reset.mouseover" end="reset.mouseout"/>
                       </use>
               </g>
        </defs>

<script type="text/javascript">
var viewWidth = 4874;
var viewHeight = 320;
var sectionId = 'dynsection-1';
</script>
<script xlink:href="../../svgpan.js"/>
<svg id="graph" class="graph">
<g id="viewport">
<title>G</title>
<polygon fill="white" stroke="white" points="-4,5 -4,-316 4871,-316 4871,5 -4,5"/>
<!-- Node1 -->
<g id="node1" class="node"><title>Node1</title>
<polygon fill="#bfbfbf" stroke="black" points="3171,-290.5 3171,-311.5 3629,-311.5 3629,-290.5 3171,-290.5"/>
<text text-anchor="middle" x="3400" y="-298.5" font-family="Helvetica,sans-Serif" font-size="10.00">/home/aoi/Documents/FxOS/B2G/gaia/xulrunner&#45;sdk/include/mozilla/layers/CompositableForwarder.h</text>
</g>
<!-- Node2 -->
<g id="node3" class="node"><title>Node2</title>
<a xlink:href="../../da/de0/_shadow_layers_8h.html" target="_top" xlink:title="/home/aoi/Documents/FxOS/B2G/gaia/xulrunner&#45;sdk/include/mozilla/layers/ShadowLayers.h">
<polygon fill="white" stroke="black" points="2654.5,-232.5 2654.5,-253.5 3073.5,-253.5 3073.5,-232.5 2654.5,-232.5"/>
<text text-anchor="middle" x="2864" y="-240.5" font-family="Helvetica,sans-Serif" font-size="10.00">/home/aoi/Documents/FxOS/B2G/gaia/xulrunner&#45;sdk/include/mozilla/layers/ShadowLayers.h</text>
</a>
</g>
<!-- Node1&#45;&gt;Node2 -->
<g id="edge2" class="edge"><title>Node1&#45;&gt;Node2</title>
<path fill="none" stroke="midnightblue" d="M3292.83,-289.403C3196.04,-278.93 3054.84,-263.65 2961.25,-253.523"/>
<polygon fill="midnightblue" stroke="midnightblue" points="3292.62,-292.9 3302.93,-290.497 3293.37,-285.941 3292.62,-292.9"/>
</g>
<!-- Node23 -->
<g id="node53" class="node"><title>Node23</title>
<a xlink:href="../../db/df0/_image_bridge_child_8h.html" target="_top" xlink:title="/home/aoi/Documents/FxOS/B2G/gaia/xulrunner&#45;sdk/include/mozilla/layers/ImageBridgeChild.h">
<polygon fill="white" stroke="black" points="3720.5,-232.5 3720.5,-253.5 4151.5,-253.5 4151.5,-232.5 3720.5,-232.5"/>
<text text-anchor="middle" x="3936" y="-240.5" font-family="Helvetica,sans-Serif" font-size="10.00">/home/aoi/Documents/FxOS/B2G/gaia/xulrunner&#45;sdk/include/mozilla/layers/ImageBridgeChild.h</text>
</a>
</g>
<!-- Node1&#45;&gt;Node23 -->
<g id="edge60" class="edge"><title>Node1&#45;&gt;Node23</title>
<path fill="none" stroke="midnightblue" d="M3507.17,-289.403C3603.96,-278.93 3745.16,-263.65 3838.75,-253.523"/>
<polygon fill="midnightblue" stroke="midnightblue" points="3506.63,-285.941 3497.07,-290.497 3507.38,-292.9 3506.63,-285.941"/>
</g>
<!-- Node3 -->
<g id="node5" class="node"><title>Node3</title>
<a xlink:href="../../da/d23/_basic_layers_8h.html" target="_top" xlink:title="/home/aoi/Documents/FxOS/B2G/gaia/xulrunner&#45;sdk/include/BasicLayers.h">
<polygon fill="white" stroke="black" points="3879.5,-174.5 3879.5,-195.5 4224.5,-195.5 4224.5,-174.5 3879.5,-174.5"/>
<text text-anchor="middle" x="4052" y="-182.5" font-family="Helvetica,sans-Serif" font-size="10.00">/home/aoi/Documents/FxOS/B2G/gaia/xulrunner&#45;sdk/include/BasicLayers.h</text>
</a>
</g>
<!-- Node2&#45;&gt;Node3 -->
<g id="edge4" class="edge"><title>Node2&#45;&gt;Node3</title>
<path fill="none" stroke="midnightblue" d="M3083.81,-232.268C3313.4,-221.06 3668.8,-203.708 3879.14,-193.44"/>
<polygon fill="midnightblue" stroke="midnightblue" points="3083.47,-228.781 3073.66,-232.764 3083.81,-235.772 3083.47,-228.781"/>
</g>
<!-- Node7 -->
<g id="node14" class="node"><title>Node7</title>
<a xlink:href="../../d8/dc2/_client_layer_manager_8h.html" target="_top" xlink:title="/home/aoi/Documents/FxOS/B2G/gaia/xulrunner&#45;sdk/include/ClientLayerManager.h">
<polygon fill="white" stroke="black" points="789,-174.5 789,-195.5 1167,-195.5 1167,-174.5 789,-174.5"/>
<text text-anchor="middle" x="978" y="-182.5" font-family="Helvetica,sans-Serif" font-size="10.00">/home/aoi/Documents/FxOS/B2G/gaia/xulrunner&#45;sdk/include/ClientLayerManager.h</text>
</a>
</g>
<!-- Node2&#45;&gt;Node7 -->
<g id="edge14" class="edge"><title>Node2&#45;&gt;Node7</title>
<path fill="none" stroke="midnightblue" d="M2643.93,-236.232C2270.42,-224.746 1518.78,-201.631 1167.29,-190.821"/>
<polygon fill="midnightblue" stroke="midnightblue" points="2643.95,-239.734 2654.05,-236.543 2644.16,-232.738 2643.95,-239.734"/>
</g>
<!-- Node11 -->
<g id="node22" class="node"><title>Node11</title>
<a xlink:href="../../d2/dcd/_client_tiled_thebes_layer_8h.html" target="_top" xlink:title="/home/aoi/Documents/FxOS/B2G/gaia/xulrunner&#45;sdk/include/ClientTiledThebesLayer.h">
<polygon fill="white" stroke="black" points="1182,-116.5 1182,-137.5 1576,-137.5 1576,-116.5 1182,-116.5"/>
<text text-anchor="middle" x="1379" y="-124.5" font-family="Helvetica,sans-Serif" font-size="10.00">/home/aoi/Documents/FxOS/B2G/gaia/xulrunner&#45;sdk/include/ClientTiledThebesLayer.h</text>
</a>
</g>
<!-- Node2&#45;&gt;Node11 -->
<g id="edge32" class="edge"><title>Node2&#45;&gt;Node11</title>
<path fill="none" stroke="midnightblue" d="M2644.09,-232.008C2487.3,-223.628 2271.56,-210.993 2082,-196 1864.39,-178.787 1609.52,-152.152 1474.41,-137.52"/>
<polygon fill="midnightblue" stroke="midnightblue" points="2644.16,-235.517 2654.33,-232.554 2644.53,-228.527 2644.16,-235.517"/>
</g>
<!-- Node16 -->
<g id="node33" class="node"><title>Node16</title>
<a xlink:href="../../d0/d57/_layer_manager_composite_8h.html" target="_top" xlink:title="/home/aoi/Documents/FxOS/B2G/gaia/xulrunner&#45;sdk/include/mozilla/layers/LayerManagerComposite.h">
<polygon fill="white" stroke="black" points="2243.5,-174.5 2243.5,-195.5 2706.5,-195.5 2706.5,-174.5 2243.5,-174.5"/>
<text text-anchor="middle" x="2475" y="-182.5" font-family="Helvetica,sans-Serif" font-size="10.00">/home/aoi/Documents/FxOS/B2G/gaia/xulrunner&#45;sdk/include/mozilla/layers/LayerManagerComposite.h</text>
</a>
</g>
<!-- Node2&#45;&gt;Node16 -->
<g id="edge34" class="edge"><title>Node2&#45;&gt;Node16</title>
<path fill="none" stroke="midnightblue" d="M2783.43,-230.988C2713.29,-220.529 2612.61,-205.517 2545.58,-195.523"/>
<polygon fill="midnightblue" stroke="midnightblue" points="2783.15,-234.484 2793.56,-232.497 2784.18,-227.56 2783.15,-234.484"/>
</g>
<!-- Node18 -->
<g id="node38" class="node"><title>Node18</title>
<a xlink:href="../../d8/d21/_color_layer_composite_8h.html" target="_top" xlink:title="/home/aoi/Documents/FxOS/B2G/gaia/xulrunner&#45;sdk/include/mozilla/layers/ColorLayerComposite.h">
<polygon fill="white" stroke="black" points="1593.5,-116.5 1593.5,-137.5 2042.5,-137.5 2042.5,-116.5 1593.5,-116.5"/>
<text text-anchor="middle" x="1818" y="-124.5" font-family="Helvetica,sans-Serif" font-size="10.00">/home/aoi/Documents/FxOS/B2G/gaia/xulrunner&#45;sdk/include/mozilla/layers/ColorLayerComposite.h</text>
</a>
</g>
<!-- Node2&#45;&gt;Node18 -->
<g id="edge50" class="edge"><title>Node2&#45;&gt;Node18</title>
<path fill="none" stroke="midnightblue" d="M2651.51,-231.863C2529.39,-224.278 2373.27,-212.572 2235,-196 2104.04,-180.304 1951.4,-152.632 1872.09,-137.54"/>
<polygon fill="midnightblue" stroke="midnightblue" points="2651.53,-235.371 2661.72,-232.493 2651.96,-228.384 2651.53,-235.371"/>
</g>
<!-- Node19 -->
<g id="node40" class="node"><title>Node19</title>
<a xlink:href="../../d6/da1/_container_layer_composite_8h.html" target="_top" xlink:title="/home/aoi/Documents/FxOS/B2G/gaia/xulrunner&#45;sdk/include/mozilla/layers/ContainerLayerComposite.h">
<polygon fill="white" stroke="black" points="2611.5,-116.5 2611.5,-137.5 3078.5,-137.5 3078.5,-116.5 2611.5,-116.5"/>
<text text-anchor="middle" x="2845" y="-124.5" font-family="Helvetica,sans-Serif" font-size="10.00">/home/aoi/Documents/FxOS/B2G/gaia/xulrunner&#45;sdk/include/mozilla/layers/ContainerLayerComposite.h</text>
</a>
</g>
<!-- Node2&#45;&gt;Node19 -->
<g id="edge52" class="edge"><title>Node2&#45;&gt;Node19</title>
<path fill="none" stroke="midnightblue" d="M2860.58,-222.123C2856.51,-197.298 2849.88,-156.824 2846.75,-137.679"/>
<polygon fill="midnightblue" stroke="midnightblue" points="2857.18,-222.992 2862.25,-232.295 2864.08,-221.861 2857.18,-222.992"/>
</g>
<!-- Node20 -->
<g id="node43" class="node"><title>Node20</title>
<a xlink:href="../../d6/de4/_image_layer_composite_8h.html" target="_top" xlink:title="/home/aoi/Documents/FxOS/B2G/gaia/xulrunner&#45;sdk/include/mozilla/layers/ImageLayerComposite.h">
<polygon fill="white" stroke="black" points="3096,-116.5 3096,-137.5 3548,-137.5 3548,-116.5 3096,-116.5"/>
<text text-anchor="middle" x="3322" y="-124.5" font-family="Helvetica,sans-Serif" font-size="10.00">/home/aoi/Documents/FxOS/B2G/gaia/xulrunner&#45;sdk/include/mozilla/layers/ImageLayerComposite.h</text>
</a>
</g>
<!-- Node2&#45;&gt;Node20 -->
<g id="edge54" class="edge"><title>Node2&#45;&gt;Node20</title>
<path fill="none" stroke="midnightblue" d="M2870.9,-222.894C2877.52,-206.846 2889.18,-185.25 2907,-174 2929.59,-159.738 3063.71,-146.321 3173.45,-137.502"/>
<polygon fill="midnightblue" stroke="midnightblue" points="2867.54,-221.883 2867.26,-232.475 2874.08,-224.37 2867.54,-221.883"/>
</g>
<!-- Node21 -->
<g id="node45" class="node"><title>Node21</title>
<a xlink:href="../../d4/d41/_thebes_layer_composite_8h.html" target="_top" xlink:title="/home/aoi/Documents/FxOS/B2G/gaia/xulrunner&#45;sdk/include/mozilla/layers/ThebesLayerComposite.h">
<polygon fill="white" stroke="black" points="3566,-116.5 3566,-137.5 4024,-137.5 4024,-116.5 3566,-116.5"/>
<text text-anchor="middle" x="3795" y="-124.5" font-family="Helvetica,sans-Serif" font-size="10.00">/home/aoi/Documents/FxOS/B2G/gaia/xulrunner&#45;sdk/include/mozilla/layers/ThebesLayerComposite.h</text>
</a>
</g>
<!-- Node2&#45;&gt;Node21 -->
<g id="edge58" class="edge"><title>Node2&#45;&gt;Node21</title>
<path fill="none" stroke="midnightblue" d="M2881,-225.024C2898.95,-206.533 2926.48,-179.655 2940,-174 2954.48,-167.945 3322.19,-149.414 3570.62,-137.51"/>
<polygon fill="midnightblue" stroke="midnightblue" points="2878.37,-222.713 2873.97,-232.349 2883.42,-227.562 2878.37,-222.713"/>
</g>
<!-- Node22 -->
<g id="node50" class="node"><title>Node22</title>
<a xlink:href="../../d9/df3/_layer_transaction_parent_8h.html" target="_top" xlink:title="/home/aoi/Documents/FxOS/B2G/gaia/xulrunner&#45;sdk/include/mozilla/layers/LayerTransactionParent.h">
<polygon fill="white" stroke="black" points="2949,-174.5 2949,-195.5 3407,-195.5 3407,-174.5 2949,-174.5"/>
<text text-anchor="middle" x="3178" y="-182.5" font-family="Helvetica,sans-Serif" font-size="10.00">/home/aoi/Documents/FxOS/B2G/gaia/xulrunner&#45;sdk/include/mozilla/layers/LayerTransactionParent.h</text>
</a>
</g>
<!-- Node2&#45;&gt;Node22 -->
<g id="edge56" class="edge"><title>Node2&#45;&gt;Node22</title>
<path fill="none" stroke="midnightblue" d="M2930.78,-230.665C2987.32,-220.222 3067.48,-205.415 3121.03,-195.523"/>
<polygon fill="midnightblue" stroke="midnightblue" points="2930.06,-227.238 2920.86,-232.497 2931.33,-234.122 2930.06,-227.238"/>
</g>
<!-- Node4 -->
<g id="node7" class="node"><title>Node4</title>
<a xlink:href="../../de/d49/_basic_layers_impl_8h.html" target="_top" xlink:title="/home/aoi/Documents/FxOS/B2G/gaia/xulrunner&#45;sdk/include/BasicLayersImpl.h">
<polygon fill="white" stroke="black" points="4080,-116.5 4080,-137.5 4444,-137.5 4444,-116.5 4080,-116.5"/>
<text text-anchor="middle" x="4262" y="-124.5" font-family="Helvetica,sans-Serif" font-size="10.00">/home/aoi/Documents/FxOS/B2G/gaia/xulrunner&#45;sdk/include/BasicLayersImpl.h</text>
</a>
</g>
<!-- Node3&#45;&gt;Node4 -->
<g id="edge6" class="edge"><title>Node3&#45;&gt;Node4</title>
<path fill="none" stroke="midnightblue" d="M4099.75,-171.812C4137.35,-161.428 4189.05,-147.149 4223.9,-137.523"/>
<polygon fill="midnightblue" stroke="midnightblue" points="4098.74,-168.461 4090.03,-174.497 4100.6,-175.208 4098.74,-168.461"/>
</g>
<!-- Node5 -->
<g id="node9" class="node"><title>Node5</title>
<a xlink:href="../../d6/d61/_basic_canvas_layer_8h.html" target="_top" xlink:title="/home/aoi/Documents/FxOS/B2G/gaia/xulrunner&#45;sdk/include/BasicCanvasLayer.h">
<polygon fill="white" stroke="black" points="3865,-58.5 3865,-79.5 4239,-79.5 4239,-58.5 3865,-58.5"/>
<text text-anchor="middle" x="4052" y="-66.5" font-family="Helvetica,sans-Serif" font-size="10.00">/home/aoi/Documents/FxOS/B2G/gaia/xulrunner&#45;sdk/include/BasicCanvasLayer.h</text>
</a>
</g>
<!-- Node3&#45;&gt;Node5 -->
<g id="edge12" class="edge"><title>Node3&#45;&gt;Node5</title>
<path fill="none" stroke="midnightblue" d="M4052,-164.123C4052,-139.298 4052,-98.8235 4052,-79.6792"/>
<polygon fill="midnightblue" stroke="midnightblue" points="4048.5,-164.295 4052,-174.295 4055.5,-164.295 4048.5,-164.295"/>
</g>
<!-- Node4&#45;&gt;Node5 -->
<g id="edge8" class="edge"><title>Node4&#45;&gt;Node5</title>
<path fill="none" stroke="midnightblue" d="M4214.25,-113.812C4176.65,-103.428 4124.95,-89.1487 4090.1,-79.5231"/>
<polygon fill="midnightblue" stroke="midnightblue" points="4213.4,-117.208 4223.97,-116.497 4215.26,-110.461 4213.4,-117.208"/>
</g>
<!-- Node6 -->
<g id="node11" class="node"><title>Node6</title>
<a xlink:href="../../d4/d19/_basic_thebes_layer_8h.html" target="_top" xlink:title="/home/aoi/Documents/FxOS/B2G/gaia/xulrunner&#45;sdk/include/BasicThebesLayer.h">
<polygon fill="white" stroke="black" points="4257,-58.5 4257,-79.5 4629,-79.5 4629,-58.5 4257,-58.5"/>
<text text-anchor="middle" x="4443" y="-66.5" font-family="Helvetica,sans-Serif" font-size="10.00">/home/aoi/Documents/FxOS/B2G/gaia/xulrunner&#45;sdk/include/BasicThebesLayer.h</text>
</a>
</g>
<!-- Node4&#45;&gt;Node6 -->
<g id="edge10" class="edge"><title>Node4&#45;&gt;Node6</title>
<path fill="none" stroke="midnightblue" d="M4304.4,-113.413C4336.69,-103.065 4380.51,-89.0258 4410.16,-79.5231"/>
<polygon fill="midnightblue" stroke="midnightblue" points="4303.23,-110.112 4294.78,-116.497 4305.37,-116.778 4303.23,-110.112"/>
</g>
<!-- Node8 -->
<g id="node16" class="node"><title>Node8</title>
<a xlink:href="../../d0/dfd/_client_canvas_layer_8h.html" target="_top" xlink:title="/home/aoi/Documents/FxOS/B2G/gaia/xulrunner&#45;sdk/include/ClientCanvasLayer.h">
<polygon fill="white" stroke="black" points="0,-116.5 0,-137.5 374,-137.5 374,-116.5 0,-116.5"/>
<text text-anchor="middle" x="187" y="-124.5" font-family="Helvetica,sans-Serif" font-size="10.00">/home/aoi/Documents/FxOS/B2G/gaia/xulrunner&#45;sdk/include/ClientCanvasLayer.h</text>
</a>
</g>
<!-- Node7&#45;&gt;Node8 -->
<g id="edge16" class="edge"><title>Node7&#45;&gt;Node8</title>
<path fill="none" stroke="midnightblue" d="M824.585,-173.751C681.653,-163.27 470.166,-147.763 330.513,-137.523"/>
<polygon fill="midnightblue" stroke="midnightblue" points="824.527,-177.256 834.756,-174.497 825.039,-170.275 824.527,-177.256"/>
</g>
<!-- Node9 -->
<g id="node18" class="node"><title>Node9</title>
<a xlink:href="../../d7/d5e/_client_container_layer_8h.html" target="_top" xlink:title="/home/aoi/Documents/FxOS/B2G/gaia/xulrunner&#45;sdk/include/ClientContainerLayer.h">
<polygon fill="white" stroke="black" points="391.5,-116.5 391.5,-137.5 774.5,-137.5 774.5,-116.5 391.5,-116.5"/>
<text text-anchor="middle" x="583" y="-124.5" font-family="Helvetica,sans-Serif" font-size="10.00">/home/aoi/Documents/FxOS/B2G/gaia/xulrunner&#45;sdk/include/ClientContainerLayer.h</text>
</a>
</g>
<!-- Node7&#45;&gt;Node9 -->
<g id="edge18" class="edge"><title>Node7&#45;&gt;Node9</title>
<path fill="none" stroke="midnightblue" d="M896.192,-172.988C824.965,-162.529 722.73,-147.517 654.666,-137.523"/>
<polygon fill="midnightblue" stroke="midnightblue" points="896.066,-176.507 906.468,-174.497 897.083,-169.581 896.066,-176.507"/>
</g>
<!-- Node10 -->
<g id="node20" class="node"><title>Node10</title>
<a xlink:href="../../da/df8/_client_thebes_layer_8h.html" target="_top" xlink:title="/home/aoi/Documents/FxOS/B2G/gaia/xulrunner&#45;sdk/include/ClientThebesLayer.h">
<polygon fill="white" stroke="black" points="791.5,-116.5 791.5,-137.5 1164.5,-137.5 1164.5,-116.5 791.5,-116.5"/>
<text text-anchor="middle" x="978" y="-124.5" font-family="Helvetica,sans-Serif" font-size="10.00">/home/aoi/Documents/FxOS/B2G/gaia/xulrunner&#45;sdk/include/ClientThebesLayer.h</text>
</a>
</g>
<!-- Node7&#45;&gt;Node10 -->
<g id="edge20" class="edge"><title>Node7&#45;&gt;Node10</title>
<path fill="none" stroke="midnightblue" d="M978,-164.191C978,-155.168 978,-144.994 978,-137.571"/>
<polygon fill="midnightblue" stroke="midnightblue" points="974.5,-164.362 978,-174.362 981.5,-164.362 974.5,-164.362"/>
</g>
<!-- Node7&#45;&gt;Node11 -->
<g id="edge22" class="edge"><title>Node7&#45;&gt;Node11</title>
<path fill="none" stroke="midnightblue" d="M1060.61,-173.052C1132.93,-162.591 1237.01,-147.538 1306.25,-137.523"/>
<polygon fill="midnightblue" stroke="midnightblue" points="1060.01,-169.601 1050.62,-174.497 1061.02,-176.529 1060.01,-169.601"/>
</g>
<!-- Node12 -->
<g id="node24" class="node"><title>Node12</title>
<a xlink:href="../../dd/dca/_compositable_host_8h.html" target="_top" xlink:title="/home/aoi/Documents/FxOS/B2G/gaia/xulrunner&#45;sdk/include/CompositableHost.h">
<polygon fill="white" stroke="black" points="1363,-58.5 1363,-79.5 1735,-79.5 1735,-58.5 1363,-58.5"/>
<text text-anchor="middle" x="1549" y="-66.5" font-family="Helvetica,sans-Serif" font-size="10.00">/home/aoi/Documents/FxOS/B2G/gaia/xulrunner&#45;sdk/include/CompositableHost.h</text>
</a>
</g>
<!-- Node11&#45;&gt;Node12 -->
<g id="edge24" class="edge"><title>Node11&#45;&gt;Node12</title>
<path fill="none" stroke="midnightblue" d="M1419.61,-113.144C1449.86,-102.823 1490.54,-88.9439 1518.16,-79.5231"/>
<polygon fill="midnightblue" stroke="midnightblue" points="1418.12,-109.955 1409.79,-116.497 1420.38,-116.58 1418.12,-109.955"/>
</g>
<!-- Node13 -->
<g id="node26" class="node"><title>Node13</title>
<a xlink:href="../../db/de9/_image_host_8h.html" target="_top" xlink:title="/home/aoi/Documents/FxOS/B2G/gaia/xulrunner&#45;sdk/include/ImageHost.h">
<polygon fill="white" stroke="black" points="1550.5,-0.5 1550.5,-21.5 1889.5,-21.5 1889.5,-0.5 1550.5,-0.5"/>
<text text-anchor="middle" x="1720" y="-8.5" font-family="Helvetica,sans-Serif" font-size="10.00">/home/aoi/Documents/FxOS/B2G/gaia/xulrunner&#45;sdk/include/ImageHost.h</text>
</a>
</g>
<!-- Node12&#45;&gt;Node13 -->
<g id="edge26" class="edge"><title>Node12&#45;&gt;Node13</title>
<path fill="none" stroke="midnightblue" d="M1589.45,-55.2787C1619.92,-44.9437 1661.08,-30.9849 1688.98,-21.5231"/>
<polygon fill="midnightblue" stroke="midnightblue" points="1588.31,-51.97 1579.97,-58.4966 1590.56,-58.599 1588.31,-51.97"/>
</g>
<!-- Node14 -->
<g id="node28" class="node"><title>Node14</title>
<a xlink:href="../../d1/dce/_content_host_8h.html" target="_top" xlink:title="/home/aoi/Documents/FxOS/B2G/gaia/xulrunner&#45;sdk/include/mozilla/layers/ContentHost.h">
<polygon fill="white" stroke="black" points="1123,-0.5 1123,-21.5 1533,-21.5 1533,-0.5 1123,-0.5"/>
<text text-anchor="middle" x="1328" y="-8.5" font-family="Helvetica,sans-Serif" font-size="10.00">/home/aoi/Documents/FxOS/B2G/gaia/xulrunner&#45;sdk/include/mozilla/layers/ContentHost.h</text>
</a>
</g>
<!-- Node12&#45;&gt;Node14 -->
<g id="edge28" class="edge"><title>Node12&#45;&gt;Node14</title>
<path fill="none" stroke="midnightblue" d="M1499.25,-55.9447C1459.65,-45.5501 1404.93,-31.1897 1368.1,-21.5231"/>
<polygon fill="midnightblue" stroke="midnightblue" points="1498.42,-59.3435 1508.98,-58.4966 1500.19,-52.5727 1498.42,-59.3435"/>
</g>
<!-- Node15 -->
<g id="node30" class="node"><title>Node15</title>
<a xlink:href="../../d7/db1/mozilla_2layers_2_image_host_8h.html" target="_top" xlink:title="/home/aoi/Documents/FxOS/B2G/gaia/xulrunner&#45;sdk/include/mozilla/layers/ImageHost.h">
<polygon fill="white" stroke="black" points="1907,-0.5 1907,-21.5 2309,-21.5 2309,-0.5 1907,-0.5"/>
<text text-anchor="middle" x="2108" y="-8.5" font-family="Helvetica,sans-Serif" font-size="10.00">/home/aoi/Documents/FxOS/B2G/gaia/xulrunner&#45;sdk/include/mozilla/layers/ImageHost.h</text>
</a>
</g>
<!-- Node12&#45;&gt;Node15 -->
<g id="edge30" class="edge"><title>Node12&#45;&gt;Node15</title>
<path fill="none" stroke="midnightblue" d="M1660.46,-57.435C1761.41,-46.9607 1908.87,-31.6607 2006.58,-21.5231"/>
<polygon fill="midnightblue" stroke="midnightblue" points="1659.82,-53.9832 1650.23,-58.4966 1660.54,-60.9458 1659.82,-53.9832"/>
</g>
<!-- Node16&#45;&gt;Node13 -->
<g id="edge36" class="edge"><title>Node16&#45;&gt;Node13</title>
<path fill="none" stroke="midnightblue" d="M2321.81,-173.419C2255.69,-166.348 2177.87,-155.228 2109,-138 2082.25,-131.309 2077.04,-125.061 2051,-116 1944.24,-78.8511 1816.3,-39.7931 1755.48,-21.5508"/>
<polygon fill="midnightblue" stroke="midnightblue" points="2321.59,-176.915 2331.9,-174.476 2322.32,-169.953 2321.59,-176.915"/>
</g>
<!-- Node16&#45;&gt;Node15 -->
<g id="edge44" class="edge"><title>Node16&#45;&gt;Node15</title>
<path fill="none" stroke="midnightblue" d="M2329.37,-173.516C2240.79,-165.127 2141.89,-152.682 2127,-138 2095.09,-106.541 2101.58,-46.1906 2105.84,-21.711"/>
<polygon fill="midnightblue" stroke="midnightblue" points="2329.28,-177.022 2339.56,-174.468 2329.93,-170.053 2329.28,-177.022"/>
</g>
<!-- Node17 -->
<g id="node36" class="node"><title>Node17</title>
<a xlink:href="../../d5/d17/_canvas_layer_composite_8h.html" target="_top" xlink:title="/home/aoi/Documents/FxOS/B2G/gaia/xulrunner&#45;sdk/include/mozilla/layers/CanvasLayerComposite.h">
<polygon fill="white" stroke="black" points="2135.5,-116.5 2135.5,-137.5 2594.5,-137.5 2594.5,-116.5 2135.5,-116.5"/>
<text text-anchor="middle" x="2365" y="-124.5" font-family="Helvetica,sans-Serif" font-size="10.00">/home/aoi/Documents/FxOS/B2G/gaia/xulrunner&#45;sdk/include/mozilla/layers/CanvasLayerComposite.h</text>
</a>
</g>
<!-- Node16&#45;&gt;Node17 -->
<g id="edge38" class="edge"><title>Node16&#45;&gt;Node17</title>
<path fill="none" stroke="midnightblue" d="M2446.16,-169.794C2426.97,-159.675 2402.24,-146.634 2385.14,-137.621"/>
<polygon fill="midnightblue" stroke="midnightblue" points="2444.6,-172.928 2455.08,-174.497 2447.87,-166.736 2444.6,-172.928"/>
</g>
<!-- Node16&#45;&gt;Node18 -->
<g id="edge40" class="edge"><title>Node16&#45;&gt;Node18</title>
<path fill="none" stroke="midnightblue" d="M2345.79,-173.593C2227.1,-163.115 2052.62,-147.712 1937.2,-137.523"/>
<polygon fill="midnightblue" stroke="midnightblue" points="2345.75,-177.104 2356.02,-174.497 2346.37,-170.131 2345.75,-177.104"/>
</g>
<!-- Node16&#45;&gt;Node19 -->
<g id="edge42" class="edge"><title>Node16&#45;&gt;Node19</title>
<path fill="none" stroke="midnightblue" d="M2552.04,-172.923C2618.74,-162.468 2714.24,-147.497 2777.87,-137.523"/>
<polygon fill="midnightblue" stroke="midnightblue" points="2551.34,-169.49 2542,-174.497 2552.43,-176.406 2551.34,-169.49"/>
</g>
<!-- Node16&#45;&gt;Node20 -->
<g id="edge46" class="edge"><title>Node16&#45;&gt;Node20</title>
<path fill="none" stroke="midnightblue" d="M2638.82,-173.782C2791.87,-163.301 3018.64,-147.773 3168.33,-137.523"/>
<polygon fill="midnightblue" stroke="midnightblue" points="2638.12,-170.322 2628.39,-174.497 2638.6,-177.305 2638.12,-170.322"/>
</g>
<!-- Node16&#45;&gt;Node21 -->
<g id="edge48" class="edge"><title>Node16&#45;&gt;Node21</title>
<path fill="none" stroke="midnightblue" d="M2716.68,-174.694C2935.97,-165.297 3268.18,-150.947 3557,-138 3560.62,-137.838 3564.26,-137.674 3567.93,-137.509"/>
<polygon fill="midnightblue" stroke="midnightblue" points="2716.49,-171.199 2706.65,-175.124 2716.79,-178.192 2716.49,-171.199"/>
</g>
<!-- Node24 -->
<g id="node55" class="node"><title>Node24</title>
<a xlink:href="../../db/d84/_gonk_native_window_8h.html" target="_top" xlink:title="/home/aoi/Documents/FxOS/B2G/gaia/xulrunner&#45;sdk/include/GonkNativeWindow.h">
<polygon fill="white" stroke="black" points="4358,-174.5 4358,-195.5 4736,-195.5 4736,-174.5 4358,-174.5"/>
<text text-anchor="middle" x="4547" y="-182.5" font-family="Helvetica,sans-Serif" font-size="10.00">/home/aoi/Documents/FxOS/B2G/gaia/xulrunner&#45;sdk/include/GonkNativeWindow.h</text>
</a>
</g>
<!-- Node23&#45;&gt;Node24 -->
<g id="edge62" class="edge"><title>Node23&#45;&gt;Node24</title>
<path fill="none" stroke="midnightblue" d="M4056.83,-231.53C4167.19,-221.054 4329.03,-205.691 4436.14,-195.523"/>
<polygon fill="midnightblue" stroke="midnightblue" points="4056.27,-228.067 4046.65,-232.497 4056.93,-235.036 4056.27,-228.067"/>
</g>
<!-- Node25 -->
<g id="node57" class="node"><title>Node25</title>
<a xlink:href="../../de/d6f/_gonk_native_window_client_8h.html" target="_top" xlink:title="/home/aoi/Documents/FxOS/B2G/gaia/xulrunner&#45;sdk/include/GonkNativeWindowClient.h">
<polygon fill="white" stroke="black" points="4462,-116.5 4462,-137.5 4866,-137.5 4866,-116.5 4462,-116.5"/>
<text text-anchor="middle" x="4664" y="-124.5" font-family="Helvetica,sans-Serif" font-size="10.00">/home/aoi/Documents/FxOS/B2G/gaia/xulrunner&#45;sdk/include/GonkNativeWindowClient.h</text>
</a>
</g>
<!-- Node24&#45;&gt;Node25 -->
<g id="edge64" class="edge"><title>Node24&#45;&gt;Node25</title>
<path fill="none" stroke="midnightblue" d="M4577.4,-169.932C4597.85,-159.793 4624.31,-146.675 4642.57,-137.621"/>
<polygon fill="midnightblue" stroke="midnightblue" points="4575.59,-166.919 4568.19,-174.497 4578.7,-173.191 4575.59,-166.919"/>
</g>
</g>
</svg>
        <g id="navigator" transform="translate(0 0)" fill="#404254">
                <rect fill="#f2f5e9" fill-opacity="0.5" stroke="#606060" stroke-width=".5" x="0" y="0" width="60" height="60"/>
                <use id="zoomplus" xlink:href="#zoomPlus" x="17" y="9" onmousedown="handleZoom(evt,'in')"/>
                <use id="zoomminus" xlink:href="#zoomMin" x="42" y="9" onmousedown="handleZoom(evt,'out')"/>
                <use id="reset" xlink:href="#resetDef" x="30" y="36" onmousedown="handleReset()"/>
                <g id="arrowUp" xlink:href="#dirArrow" transform="translate(30 24)" onmousedown="handlePan(0,-1)">
                  <use xlink:href="#rim" fill="#404040">
                        <set attributeName="fill" to="#808080" begin="arrowUp.mouseover" end="arrowUp.mouseout"/>
                  </use>
                  <path fill="none" stroke="white" stroke-width="1.5" d="M0,-3.0v7 M-2.5,-0.5L0,-3.0L2.5,-0.5"/>
                </g>
                <g id="arrowRight" xlink:href="#dirArrow" transform="rotate(90) translate(36 -43)" onmousedown="handlePan(1,0)">
                  <use xlink:href="#rim" fill="#404040">
                        <set attributeName="fill" to="#808080" begin="arrowRight.mouseover" end="arrowRight.mouseout"/>
                  </use>
                  <path fill="none" stroke="white" stroke-width="1.5" d="M0,-3.0v7 M-2.5,-0.5L0,-3.0L2.5,-0.5"/>
                </g>
                <g id="arrowDown" xlink:href="#dirArrow" transform="rotate(180) translate(-30 -48)" onmousedown="handlePan(0,1)">
                  <use xlink:href="#rim" fill="#404040">
                        <set attributeName="fill" to="#808080" begin="arrowDown.mouseover" end="arrowDown.mouseout"/>
                  </use>
                  <path fill="none" stroke="white" stroke-width="1.5" d="M0,-3.0v7 M-2.5,-0.5L0,-3.0L2.5,-0.5"/>
                </g>
                <g id="arrowLeft" xlink:href="#dirArrow" transform="rotate(270) translate(-36 17)" onmousedown="handlePan(-1,0)">
                  <use xlink:href="#rim" fill="#404040">
                        <set attributeName="fill" to="#808080" begin="arrowLeft.mouseover" end="arrowLeft.mouseout"/>
                  </use>
                  <path fill="none" stroke="white" stroke-width="1.5" d="M0,-3.0v7 M-2.5,-0.5L0,-3.0L2.5,-0.5"/>
                </g>
        </g>
</svg>
