<?xml version="1.0" encoding="UTF-8" standalone="no"?>
<!DOCTYPE svg PUBLIC "-//W3C//DTD SVG 1.1//EN"
 "http://www.w3.org/Graphics/SVG/1.1/DTD/svg11.dtd">
<!-- Generated by graphviz version 2.26.3 (20100126.1600)
 -->
<!-- Title: G Pages: 1 -->
<!--zoomable 150 -->
<svg id="main" version="1.1" xmlns="http://www.w3.org/2000/svg" xmlns:xlink="http://www.w3.org/1999/xlink" xml:space="preserve" onload="init(evt)">
        <defs>
                <circle id="rim" cx="0" cy="0" r="7"/>
                <circle id="rim2" cx="0" cy="0" r="3.5"/>
                <g id="zoomPlus">
                        <use xlink:href="#rim" fill="#404040">
                                <set attributeName="fill" to="#808080" begin="zoomplus.mouseover" end="zoomplus.mouseout"/>
                        </use>
                        <path d="M-4,0h8M0,-4v8" fill="none" stroke="white" stroke-width="1.5" pointer-events="none"/>
                </g>
                <g id="zoomMin">
                        <use xlink:href="#rim" fill="#404040">
                                <set attributeName="fill" to="#808080" begin="zoomminus.mouseover" end="zoomminus.mouseout"/>
                        </use>
                        <path d="M-4,0h8" fill="none" stroke="white" stroke-width="1.5" pointer-events="none"/>
                </g>
                <g id="dirArrow">
                        <path fill="none" stroke="white" stroke-width="1.5" d="M0,-3.0v7 M-2.5,-0.5L0,-3.0L2.5,-0.5"/>
                </g>
               <g id="resetDef">
                       <use xlink:href="#rim2" fill="#404040">
                               <set attributeName="fill" to="#808080" begin="reset.mouseover" end="reset.mouseout"/>
                       </use>
               </g>
        </defs>

<script type="text/javascript">
var viewWidth = 812;
var viewHeight = 150;
var sectionId = 'dynsection-2';
</script>
<script xlink:href="../../svgpan.js"/>
<svg id="graph" class="graph">
<g id="viewport">
<title>G</title>
<polygon fill="white" stroke="white" points="-4,5 -4,-146 809,-146 809,5 -4,5"/>
<!-- Node1 -->
<g id="node1" class="node"><title>Node1</title>
<polygon fill="#bfbfbf" stroke="black" points="0.5,-80.5 0.5,-101.5 197.5,-101.5 197.5,-80.5 0.5,-80.5"/>
<text text-anchor="middle" x="99" y="-88.5" font-family="Helvetica,sans-Serif" font-size="10.00">mozilla::CanvasUtils::DashArrayToJSVal</text>
</g>
<!-- Node2 -->
<g id="node3" class="node"><title>Node2</title>
<a xlink:href="../../db/d9f/classns_t_array__base.html#ae1f48111b444c3c0a8bc113f2a38f2cf" target="_top" xlink:title="nsTArray_base::IsEmpty">
<polygon fill="white" stroke="black" points="239.5,-120.5 239.5,-141.5 364.5,-141.5 364.5,-120.5 239.5,-120.5"/>
<text text-anchor="middle" x="302" y="-128.5" font-family="Helvetica,sans-Serif" font-size="10.00">nsTArray_base::IsEmpty</text>
</a>
</g>
<!-- Node1&#45;&gt;Node2 -->
<g id="edge2" class="edge"><title>Node1&#45;&gt;Node2</title>
<path fill="none" stroke="midnightblue" d="M152.336,-101.51C178.805,-106.725 210.964,-113.062 238.678,-118.523"/>
<polygon fill="midnightblue" stroke="midnightblue" points="238.18,-121.992 248.668,-120.491 239.534,-115.124 238.18,-121.992"/>
</g>
<!-- Node3 -->
<g id="node5" class="node"><title>Node3</title>
<a xlink:href="../../db/d9f/classns_t_array__base.html#a9ff8fa91fb766d44982e50ac82558141" target="_top" xlink:title="nsTArray_base::Length">
<polygon fill="white" stroke="black" points="243,-80.5 243,-101.5 361,-101.5 361,-80.5 243,-80.5"/>
<text text-anchor="middle" x="302" y="-88.5" font-family="Helvetica,sans-Serif" font-size="10.00">nsTArray_base::Length</text>
</a>
</g>
<!-- Node1&#45;&gt;Node3 -->
<g id="edge4" class="edge"><title>Node1&#45;&gt;Node3</title>
<path fill="none" stroke="midnightblue" d="M197.527,-91C209.36,-91 221.247,-91 232.545,-91"/>
<polygon fill="midnightblue" stroke="midnightblue" points="232.735,-94.5001 242.735,-91 232.735,-87.5001 232.735,-94.5001"/>
</g>
<!-- Node4 -->
<g id="node7" class="node"><title>Node4</title>
<a xlink:href="../../dd/d9c/classmozilla_1_1_error_result.html#a35d9f418a4b6bcbefcb67dda4bc7e6ee" target="_top" xlink:title="mozilla::ErrorResult::Throw">
<polygon fill="white" stroke="black" points="234,-40.5 234,-61.5 370,-61.5 370,-40.5 234,-40.5"/>
<text text-anchor="middle" x="302" y="-48.5" font-family="Helvetica,sans-Serif" font-size="10.00">mozilla::ErrorResult::Throw</text>
</a>
</g>
<!-- Node1&#45;&gt;Node4 -->
<g id="edge6" class="edge"><title>Node1&#45;&gt;Node4</title>
<path fill="none" stroke="midnightblue" d="M152.336,-80.4905C178.805,-75.2748 210.964,-68.9381 238.678,-63.4773"/>
<polygon fill="midnightblue" stroke="midnightblue" points="239.534,-66.876 248.668,-61.5087 238.18,-60.0081 239.534,-66.876"/>
</g>
<!-- Node5 -->
<g id="node9" class="node"><title>Node5</title>
<a xlink:href="../../dd/d9c/classmozilla_1_1_error_result.html#a3743341d1ffd2f7bbe90bba540e988fe" target="_top" xlink:title="mozilla::ErrorResult::IsJSException">
<polygon fill="white" stroke="black" points="423.5,-80.5 423.5,-101.5 596.5,-101.5 596.5,-80.5 423.5,-80.5"/>
<text text-anchor="middle" x="510" y="-88.5" font-family="Helvetica,sans-Serif" font-size="10.00">mozilla::ErrorResult::IsJSException</text>
</a>
</g>
<!-- Node4&#45;&gt;Node5 -->
<g id="edge8" class="edge"><title>Node4&#45;&gt;Node5</title>
<path fill="none" stroke="midnightblue" d="M356.65,-61.5095C383.89,-66.7481 417.011,-73.1175 445.492,-78.5945"/>
<polygon fill="midnightblue" stroke="midnightblue" points="444.874,-82.0398 455.355,-80.4913 446.196,-75.1657 444.874,-82.0398"/>
</g>
<!-- Node7 -->
<g id="node13" class="node"><title>Node7</title>
<a xlink:href="../../dd/d9c/classmozilla_1_1_error_result.html#a42babe5c49a9e75f2559a69edb11e874" target="_top" xlink:title="mozilla::ErrorResult::IsNotEnoughArgsError">
<polygon fill="white" stroke="black" points="406.5,-40.5 406.5,-61.5 613.5,-61.5 613.5,-40.5 406.5,-40.5"/>
<text text-anchor="middle" x="510" y="-48.5" font-family="Helvetica,sans-Serif" font-size="10.00">mozilla::ErrorResult::IsNotEnoughArgsError</text>
</a>
</g>
<!-- Node4&#45;&gt;Node7 -->
<g id="edge12" class="edge"><title>Node4&#45;&gt;Node7</title>
<path fill="none" stroke="midnightblue" d="M370.107,-51C378.543,-51 387.338,-51 396.23,-51"/>
<polygon fill="midnightblue" stroke="midnightblue" points="396.295,-54.5001 406.295,-51 396.295,-47.5001 396.295,-54.5001"/>
</g>
<!-- Node8 -->
<g id="node16" class="node"><title>Node8</title>
<a xlink:href="../../dd/d9c/classmozilla_1_1_error_result.html#a0fb81790665001fd83bc9276c810ce4f" target="_top" xlink:title="mozilla::ErrorResult::IsTypeError">
<polygon fill="white" stroke="black" points="430,-0.5 430,-21.5 590,-21.5 590,-0.5 430,-0.5"/>
<text text-anchor="middle" x="510" y="-8.5" font-family="Helvetica,sans-Serif" font-size="10.00">mozilla::ErrorResult::IsTypeError</text>
</a>
</g>
<!-- Node4&#45;&gt;Node8 -->
<g id="edge16" class="edge"><title>Node4&#45;&gt;Node8</title>
<path fill="none" stroke="midnightblue" d="M356.65,-40.4905C383.89,-35.2519 417.011,-28.8825 445.492,-23.4055"/>
<polygon fill="midnightblue" stroke="midnightblue" points="446.196,-26.8343 455.355,-21.5087 444.874,-19.9602 446.196,-26.8343"/>
</g>
<!-- Node6 -->
<g id="node11" class="node"><title>Node6</title>
<a xlink:href="../../dd/d9c/classmozilla_1_1_error_result.html#a5ec60babbb4edab5e6b4f41f2406148a" target="_top" xlink:title="mozilla::ErrorResult::ErrorCode">
<polygon fill="white" stroke="black" points="650.5,-40.5 650.5,-61.5 803.5,-61.5 803.5,-40.5 650.5,-40.5"/>
<text text-anchor="middle" x="727" y="-48.5" font-family="Helvetica,sans-Serif" font-size="10.00">mozilla::ErrorResult::ErrorCode</text>
</a>
</g>
<!-- Node5&#45;&gt;Node6 -->
<g id="edge10" class="edge"><title>Node5&#45;&gt;Node6</title>
<path fill="none" stroke="midnightblue" d="M567.014,-80.4905C595.558,-75.229 630.289,-68.8268 660.089,-63.3338"/>
<polygon fill="midnightblue" stroke="midnightblue" points="660.79,-66.7636 669.99,-61.5087 659.521,-59.8796 660.79,-66.7636"/>
</g>
<!-- Node7&#45;&gt;Node6 -->
<g id="edge14" class="edge"><title>Node7&#45;&gt;Node6</title>
<path fill="none" stroke="midnightblue" d="M613.733,-51C622.584,-51 631.476,-51 640.175,-51"/>
<polygon fill="midnightblue" stroke="midnightblue" points="640.283,-54.5001 650.283,-51 640.283,-47.5001 640.283,-54.5001"/>
</g>
<!-- Node8&#45;&gt;Node6 -->
<g id="edge18" class="edge"><title>Node8&#45;&gt;Node6</title>
<path fill="none" stroke="midnightblue" d="M567.014,-21.5095C595.558,-26.771 630.289,-33.1732 660.089,-38.6662"/>
<polygon fill="midnightblue" stroke="midnightblue" points="659.521,-42.1204 669.99,-40.4913 660.79,-35.2364 659.521,-42.1204"/>
</g>
</g>
</svg>
        <g id="navigator" transform="translate(0 0)" fill="#404254">
                <rect fill="#f2f5e9" fill-opacity="0.5" stroke="#606060" stroke-width=".5" x="0" y="0" width="60" height="60"/>
                <use id="zoomplus" xlink:href="#zoomPlus" x="17" y="9" onmousedown="handleZoom(evt,'in')"/>
                <use id="zoomminus" xlink:href="#zoomMin" x="42" y="9" onmousedown="handleZoom(evt,'out')"/>
                <use id="reset" xlink:href="#resetDef" x="30" y="36" onmousedown="handleReset()"/>
                <g id="arrowUp" xlink:href="#dirArrow" transform="translate(30 24)" onmousedown="handlePan(0,-1)">
                  <use xlink:href="#rim" fill="#404040">
                        <set attributeName="fill" to="#808080" begin="arrowUp.mouseover" end="arrowUp.mouseout"/>
                  </use>
                  <path fill="none" stroke="white" stroke-width="1.5" d="M0,-3.0v7 M-2.5,-0.5L0,-3.0L2.5,-0.5"/>
                </g>
                <g id="arrowRight" xlink:href="#dirArrow" transform="rotate(90) translate(36 -43)" onmousedown="handlePan(1,0)">
                  <use xlink:href="#rim" fill="#404040">
                        <set attributeName="fill" to="#808080" begin="arrowRight.mouseover" end="arrowRight.mouseout"/>
                  </use>
                  <path fill="none" stroke="white" stroke-width="1.5" d="M0,-3.0v7 M-2.5,-0.5L0,-3.0L2.5,-0.5"/>
                </g>
                <g id="arrowDown" xlink:href="#dirArrow" transform="rotate(180) translate(-30 -48)" onmousedown="handlePan(0,1)">
                  <use xlink:href="#rim" fill="#404040">
                        <set attributeName="fill" to="#808080" begin="arrowDown.mouseover" end="arrowDown.mouseout"/>
                  </use>
                  <path fill="none" stroke="white" stroke-width="1.5" d="M0,-3.0v7 M-2.5,-0.5L0,-3.0L2.5,-0.5"/>
                </g>
                <g id="arrowLeft" xlink:href="#dirArrow" transform="rotate(270) translate(-36 17)" onmousedown="handlePan(-1,0)">
                  <use xlink:href="#rim" fill="#404040">
                        <set attributeName="fill" to="#808080" begin="arrowLeft.mouseover" end="arrowLeft.mouseout"/>
                  </use>
                  <path fill="none" stroke="white" stroke-width="1.5" d="M0,-3.0v7 M-2.5,-0.5L0,-3.0L2.5,-0.5"/>
                </g>
        </g>
</svg>
