<?xml version="1.0" encoding="UTF-8" standalone="no"?>
<!DOCTYPE svg PUBLIC "-//W3C//DTD SVG 1.1//EN"
 "http://www.w3.org/Graphics/SVG/1.1/DTD/svg11.dtd">
<!-- Generated by graphviz version 2.26.3 (20100126.1600)
 -->
<!-- Title: G Pages: 1 -->
<!--zoomable 150 -->
<svg id="main" version="1.1" xmlns="http://www.w3.org/2000/svg" xmlns:xlink="http://www.w3.org/1999/xlink" xml:space="preserve" onload="init(evt)">
        <defs>
                <circle id="rim" cx="0" cy="0" r="7"/>
                <circle id="rim2" cx="0" cy="0" r="3.5"/>
                <g id="zoomPlus">
                        <use xlink:href="#rim" fill="#404040">
                                <set attributeName="fill" to="#808080" begin="zoomplus.mouseover" end="zoomplus.mouseout"/>
                        </use>
                        <path d="M-4,0h8M0,-4v8" fill="none" stroke="white" stroke-width="1.5" pointer-events="none"/>
                </g>
                <g id="zoomMin">
                        <use xlink:href="#rim" fill="#404040">
                                <set attributeName="fill" to="#808080" begin="zoomminus.mouseover" end="zoomminus.mouseout"/>
                        </use>
                        <path d="M-4,0h8" fill="none" stroke="white" stroke-width="1.5" pointer-events="none"/>
                </g>
                <g id="dirArrow">
                        <path fill="none" stroke="white" stroke-width="1.5" d="M0,-3.0v7 M-2.5,-0.5L0,-3.0L2.5,-0.5"/>
                </g>
               <g id="resetDef">
                       <use xlink:href="#rim2" fill="#404040">
                               <set attributeName="fill" to="#808080" begin="reset.mouseover" end="reset.mouseout"/>
                       </use>
               </g>
        </defs>

<script type="text/javascript">
var viewWidth = 870;
var viewHeight = 150;
var sectionId = 'dynsection-14';
</script>
<script xlink:href="../../svgpan.js"/>
<svg id="graph" class="graph">
<g id="viewport">
<title>G</title>
<polygon fill="white" stroke="white" points="-4,5 -4,-146 867,-146 867,5 -4,5"/>
<!-- Node1 -->
<g id="node1" class="node"><title>Node1</title>
<polygon fill="#bfbfbf" stroke="black" points="0.5,-80.5 0.5,-101.5 235.5,-101.5 235.5,-80.5 0.5,-80.5"/>
<text text-anchor="middle" x="118" y="-88.5" font-family="Helvetica,sans-Serif" font-size="10.00">gaiatest.apps.browser.app.Browser.tap_go_button</text>
</g>
<!-- Node2 -->
<g id="node3" class="node"><title>Node2</title>
<a xlink:href="../../d9/deb/classgaiatest_1_1apps_1_1base_1_1_base.html#a9abcc24aee943e40fb976f06825085b0" target="_top" xlink:title="gaiatest.apps.base.Base.wait_for_element_displayed">
<polygon fill="white" stroke="black" points="298,-120.5 298,-141.5 546,-141.5 546,-120.5 298,-120.5"/>
<text text-anchor="middle" x="422" y="-128.5" font-family="Helvetica,sans-Serif" font-size="10.00">gaiatest.apps.base.Base.wait_for_element_displayed</text>
</a>
</g>
<!-- Node1&#45;&gt;Node2 -->
<g id="edge2" class="edge"><title>Node1&#45;&gt;Node2</title>
<path fill="none" stroke="midnightblue" d="M197.872,-101.51C239.076,-106.931 289.486,-113.564 332.055,-119.165"/>
<polygon fill="midnightblue" stroke="midnightblue" points="331.763,-122.657 342.134,-120.491 332.676,-115.717 331.763,-122.657"/>
</g>
<!-- Node3 -->
<g id="node5" class="node"><title>Node3</title>
<a xlink:href="../../d6/de4/classgaiatest_1_1gaia__test_1_1_gaia_test_case.html#ae87c78f7a1e6470c436b8b0553e87bd3" target="_top" xlink:title="gaiatest.gaia_test.GaiaTestCase.wait_for_element_displayed">
<polygon fill="white" stroke="black" points="280,-80.5 280,-101.5 564,-101.5 564,-80.5 280,-80.5"/>
<text text-anchor="middle" x="422" y="-88.5" font-family="Helvetica,sans-Serif" font-size="10.00">gaiatest.gaia_test.GaiaTestCase.wait_for_element_displayed</text>
</a>
</g>
<!-- Node1&#45;&gt;Node3 -->
<g id="edge4" class="edge"><title>Node1&#45;&gt;Node3</title>
<path fill="none" stroke="midnightblue" d="M235.534,-91C246.777,-91 258.285,-91 269.795,-91"/>
<polygon fill="midnightblue" stroke="midnightblue" points="269.904,-94.5001 279.904,-91 269.904,-87.5001 269.904,-94.5001"/>
</g>
<!-- Node4 -->
<g id="node7" class="node"><title>Node4</title>
<a xlink:href="../../d3/dd5/classgaiatest_1_1apps_1_1browser_1_1app_1_1_browser.html#afe8fd49ec527e8da3709efcbdff7afb0" target="_top" xlink:title="gaiatest.apps.browser.app.Browser.wait_for_throbber_not_visible">
<polygon fill="white" stroke="black" points="272,-40.5 272,-61.5 572,-61.5 572,-40.5 272,-40.5"/>
<text text-anchor="middle" x="422" y="-48.5" font-family="Helvetica,sans-Serif" font-size="10.00">gaiatest.apps.browser.app.Browser.wait_for_throbber_not_visible</text>
</a>
</g>
<!-- Node1&#45;&gt;Node4 -->
<g id="edge6" class="edge"><title>Node1&#45;&gt;Node4</title>
<path fill="none" stroke="midnightblue" d="M197.872,-80.4905C239.076,-75.0689 289.486,-68.4361 332.055,-62.8348"/>
<polygon fill="midnightblue" stroke="midnightblue" points="332.676,-66.2834 342.134,-61.5087 331.763,-59.3433 332.676,-66.2834"/>
</g>
<!-- Node5 -->
<g id="node9" class="node"><title>Node5</title>
<a xlink:href="../../d6/de4/classgaiatest_1_1gaia__test_1_1_gaia_test_case.html#a665ed7dc4e1131529b18157f28a01f8a" target="_top" xlink:title="gaiatest.gaia_test.GaiaTestCase.wait_for_condition">
<polygon fill="white" stroke="black" points="614,-80.5 614,-101.5 856,-101.5 856,-80.5 614,-80.5"/>
<text text-anchor="middle" x="735" y="-88.5" font-family="Helvetica,sans-Serif" font-size="10.00">gaiatest.gaia_test.GaiaTestCase.wait_for_condition</text>
</a>
</g>
<!-- Node4&#45;&gt;Node5 -->
<g id="edge8" class="edge"><title>Node4&#45;&gt;Node5</title>
<path fill="none" stroke="midnightblue" d="M504.237,-61.5095C546.75,-66.9425 598.782,-73.5919 642.67,-79.2006"/>
<polygon fill="midnightblue" stroke="midnightblue" points="642.406,-82.6953 652.769,-80.4913 643.294,-75.7518 642.406,-82.6953"/>
</g>
<!-- Node6 -->
<g id="node11" class="node"><title>Node6</title>
<a xlink:href="../../d9/deb/classgaiatest_1_1apps_1_1base_1_1_base.html#acd0689f975942b2bad45ef1bf321e0c5" target="_top" xlink:title="gaiatest.apps.base.Base.wait_for_condition">
<polygon fill="white" stroke="black" points="632,-40.5 632,-61.5 838,-61.5 838,-40.5 632,-40.5"/>
<text text-anchor="middle" x="735" y="-48.5" font-family="Helvetica,sans-Serif" font-size="10.00">gaiatest.apps.base.Base.wait_for_condition</text>
</a>
</g>
<!-- Node4&#45;&gt;Node6 -->
<g id="edge10" class="edge"><title>Node4&#45;&gt;Node6</title>
<path fill="none" stroke="midnightblue" d="M572.083,-51C588.685,-51 605.384,-51 621.431,-51"/>
<polygon fill="midnightblue" stroke="midnightblue" points="621.874,-54.5001 631.874,-51 621.873,-47.5001 621.874,-54.5001"/>
</g>
<!-- Node7 -->
<g id="node13" class="node"><title>Node7</title>
<a xlink:href="../../d3/dd5/classgaiatest_1_1apps_1_1browser_1_1app_1_1_browser.html#aa27013d38d92c296a231b8f2a8aab6d4" target="_top" xlink:title="gaiatest.apps.browser.app.Browser.is_throbber_visible">
<polygon fill="white" stroke="black" points="608,-0.5 608,-21.5 862,-21.5 862,-0.5 608,-0.5"/>
<text text-anchor="middle" x="735" y="-8.5" font-family="Helvetica,sans-Serif" font-size="10.00">gaiatest.apps.browser.app.Browser.is_throbber_visible</text>
</a>
</g>
<!-- Node4&#45;&gt;Node7 -->
<g id="edge12" class="edge"><title>Node4&#45;&gt;Node7</title>
<path fill="none" stroke="midnightblue" d="M504.237,-40.4905C546.75,-35.0575 598.782,-28.4081 642.67,-22.7994"/>
<polygon fill="midnightblue" stroke="midnightblue" points="643.294,-26.2482 652.769,-21.5087 642.406,-19.3047 643.294,-26.2482"/>
</g>
</g>
</svg>
        <g id="navigator" transform="translate(0 0)" fill="#404254">
                <rect fill="#f2f5e9" fill-opacity="0.5" stroke="#606060" stroke-width=".5" x="0" y="0" width="60" height="60"/>
                <use id="zoomplus" xlink:href="#zoomPlus" x="17" y="9" onmousedown="handleZoom(evt,'in')"/>
                <use id="zoomminus" xlink:href="#zoomMin" x="42" y="9" onmousedown="handleZoom(evt,'out')"/>
                <use id="reset" xlink:href="#resetDef" x="30" y="36" onmousedown="handleReset()"/>
                <g id="arrowUp" xlink:href="#dirArrow" transform="translate(30 24)" onmousedown="handlePan(0,-1)">
                  <use xlink:href="#rim" fill="#404040">
                        <set attributeName="fill" to="#808080" begin="arrowUp.mouseover" end="arrowUp.mouseout"/>
                  </use>
                  <path fill="none" stroke="white" stroke-width="1.5" d="M0,-3.0v7 M-2.5,-0.5L0,-3.0L2.5,-0.5"/>
                </g>
                <g id="arrowRight" xlink:href="#dirArrow" transform="rotate(90) translate(36 -43)" onmousedown="handlePan(1,0)">
                  <use xlink:href="#rim" fill="#404040">
                        <set attributeName="fill" to="#808080" begin="arrowRight.mouseover" end="arrowRight.mouseout"/>
                  </use>
                  <path fill="none" stroke="white" stroke-width="1.5" d="M0,-3.0v7 M-2.5,-0.5L0,-3.0L2.5,-0.5"/>
                </g>
                <g id="arrowDown" xlink:href="#dirArrow" transform="rotate(180) translate(-30 -48)" onmousedown="handlePan(0,1)">
                  <use xlink:href="#rim" fill="#404040">
                        <set attributeName="fill" to="#808080" begin="arrowDown.mouseover" end="arrowDown.mouseout"/>
                  </use>
                  <path fill="none" stroke="white" stroke-width="1.5" d="M0,-3.0v7 M-2.5,-0.5L0,-3.0L2.5,-0.5"/>
                </g>
                <g id="arrowLeft" xlink:href="#dirArrow" transform="rotate(270) translate(-36 17)" onmousedown="handlePan(-1,0)">
                  <use xlink:href="#rim" fill="#404040">
                        <set attributeName="fill" to="#808080" begin="arrowLeft.mouseover" end="arrowLeft.mouseout"/>
                  </use>
                  <path fill="none" stroke="white" stroke-width="1.5" d="M0,-3.0v7 M-2.5,-0.5L0,-3.0L2.5,-0.5"/>
                </g>
        </g>
</svg>
