<?xml version="1.0" encoding="UTF-8" standalone="no"?>
<!DOCTYPE svg PUBLIC "-//W3C//DTD SVG 1.1//EN"
 "http://www.w3.org/Graphics/SVG/1.1/DTD/svg11.dtd">
<!-- Generated by graphviz version 2.26.3 (20100126.1600)
 -->
<!-- Title: G Pages: 1 -->
<svg width="328pt" height="70pt"
 viewBox="0.00 0.00 328.00 70.00" xmlns="http://www.w3.org/2000/svg" xmlns:xlink="http://www.w3.org/1999/xlink">
<g id="graph1" class="graph" transform="scale(1 1) rotate(0) translate(4 66)">
<title>G</title>
<polygon fill="white" stroke="white" points="-4,5 -4,-66 325,-66 325,5 -4,5"/>
<!-- Node1 -->
<g id="node1" class="node"><title>Node1</title>
<polygon fill="#bfbfbf" stroke="black" points="0,-20.5 0,-41.5 124,-41.5 124,-20.5 0,-20.5"/>
<text text-anchor="middle" x="62" y="-28.5" font-family="Helvetica,sans-Serif" font-size="10.00">handlePlayerTouchMove</text>
</g>
<!-- Node2 -->
<g id="node3" class="node"><title>Node2</title>
<a xlink:href="../../d4/daf/video_2js_2view_8js.html#ae00c60fcf18f895f6324cf52962d10de" target="_top" xlink:title="dragSlider">
<polygon fill="white" stroke="black" points="177,-40.5 177,-61.5 237,-61.5 237,-40.5 177,-40.5"/>
<text text-anchor="middle" x="207" y="-48.5" font-family="Helvetica,sans-Serif" font-size="10.00">dragSlider</text>
</a>
</g>
<!-- Node1&#45;&gt;Node2 -->
<g id="edge2" class="edge"><title>Node1&#45;&gt;Node2</title>
<path fill="none" stroke="midnightblue" d="M134.585,-41.0117C149.433,-43.0598 164.277,-45.1072 176.625,-46.8104"/>
<polygon fill="midnightblue" stroke="midnightblue" points="134.719,-37.4972 124.335,-39.5979 133.763,-44.4315 134.719,-37.4972"/>
</g>
<!-- Node3 -->
<g id="node5" class="node"><title>Node3</title>
<a xlink:href="../../dd/d85/video_8js.html#a2346166825e9b62dbdbd755de78dba54" target="_top" xlink:title="initPlayerControls">
<polygon fill="white" stroke="black" points="160,-0.5 160,-21.5 254,-21.5 254,-0.5 160,-0.5"/>
<text text-anchor="middle" x="207" y="-8.5" font-family="Helvetica,sans-Serif" font-size="10.00">initPlayerControls</text>
</a>
</g>
<!-- Node1&#45;&gt;Node3 -->
<g id="edge4" class="edge"><title>Node1&#45;&gt;Node3</title>
<path fill="none" stroke="midnightblue" d="M134.367,-21.0184C142.938,-19.8361 151.512,-18.6535 159.609,-17.5366"/>
<polygon fill="midnightblue" stroke="midnightblue" points="133.763,-17.5685 124.335,-22.4021 134.719,-24.5028 133.763,-17.5685"/>
</g>
<!-- Node4 -->
<g id="node7" class="node"><title>Node4</title>
<a xlink:href="../../dd/d85/video_8js.html#af8dc73726eb0578fe44fb98cd2319445" target="_top" xlink:title="init">
<polygon fill="white" stroke="black" points="290.5,-0.5 290.5,-21.5 319.5,-21.5 319.5,-0.5 290.5,-0.5"/>
<text text-anchor="middle" x="305" y="-8.5" font-family="Helvetica,sans-Serif" font-size="10.00">init</text>
</a>
</g>
<!-- Node3&#45;&gt;Node4 -->
<g id="edge6" class="edge"><title>Node3&#45;&gt;Node4</title>
<path fill="none" stroke="midnightblue" d="M264.392,-11C274.005,-11 283.173,-11 290.358,-11"/>
<polygon fill="midnightblue" stroke="midnightblue" points="264.278,-7.5001 254.278,-11 264.278,-14.5001 264.278,-7.5001"/>
</g>
</g>
</svg>
