<?xml version="1.0" encoding="UTF-8" standalone="no"?>
<!DOCTYPE svg PUBLIC "-//W3C//DTD SVG 1.1//EN"
 "http://www.w3.org/Graphics/SVG/1.1/DTD/svg11.dtd">
<!-- Generated by graphviz version 2.26.3 (20100126.1600)
 -->
<!-- Title: G Pages: 1 -->
<svg width="306pt" height="150pt"
 viewBox="0.00 0.00 306.00 150.00" xmlns="http://www.w3.org/2000/svg" xmlns:xlink="http://www.w3.org/1999/xlink">
<g id="graph1" class="graph" transform="scale(1 1) rotate(0) translate(4 146)">
<title>G</title>
<polygon fill="white" stroke="white" points="-4,5 -4,-146 303,-146 303,5 -4,5"/>
<!-- Node1 -->
<g id="node1" class="node"><title>Node1</title>
<polygon fill="#bfbfbf" stroke="black" points="0.5,-60.5 0.5,-81.5 77.5,-81.5 77.5,-60.5 0.5,-60.5"/>
<text text-anchor="middle" x="39" y="-68.5" font-family="Helvetica,sans-Serif" font-size="10.00">setPlayerSize</text>
</g>
<!-- Node2 -->
<g id="node3" class="node"><title>Node2</title>
<a xlink:href="../../dd/d85/video_8js.html#a9991f66969aecd6728b62c1c9d593997" target="_top" xlink:title="handleResize">
<polygon fill="white" stroke="black" points="114,-120.5 114,-141.5 190,-141.5 190,-120.5 114,-120.5"/>
<text text-anchor="middle" x="152" y="-128.5" font-family="Helvetica,sans-Serif" font-size="10.00">handleResize</text>
</a>
</g>
<!-- Node1&#45;&gt;Node2 -->
<g id="edge2" class="edge"><title>Node1&#45;&gt;Node2</title>
<path fill="none" stroke="midnightblue" d="M67.8285,-86.4226C81.7665,-93.867 98.7434,-102.917 114,-111 119.797,-114.071 126.099,-117.395 131.874,-120.433"/>
<polygon fill="midnightblue" stroke="midnightblue" points="69.1924,-83.1831 58.7231,-81.5569 65.8932,-89.3569 69.1924,-83.1831"/>
</g>
<!-- Node4 -->
<g id="node7" class="node"><title>Node4</title>
<a xlink:href="../../dd/d85/video_8js.html#a8b49d36778ec71033289dda65ead66ce" target="_top" xlink:title="restoreVideo">
<polygon fill="white" stroke="black" points="116.5,-80.5 116.5,-101.5 187.5,-101.5 187.5,-80.5 116.5,-80.5"/>
<text text-anchor="middle" x="152" y="-88.5" font-family="Helvetica,sans-Serif" font-size="10.00">restoreVideo</text>
</a>
</g>
<!-- Node1&#45;&gt;Node4 -->
<g id="edge6" class="edge"><title>Node1&#45;&gt;Node4</title>
<path fill="none" stroke="midnightblue" d="M87.4775,-79.5801C97.1404,-81.2903 107.123,-83.0571 116.263,-84.6749"/>
<polygon fill="midnightblue" stroke="midnightblue" points="88.0291,-76.1234 77.5721,-77.8269 86.8091,-83.0163 88.0291,-76.1234"/>
</g>
<!-- Node5 -->
<g id="node9" class="node"><title>Node5</title>
<a xlink:href="../../d4/daf/video_2js_2view_8js.html#a1bcba9c213f541fd6f9db40ddab20384" target="_top" xlink:title="showPlayer">
<polygon fill="white" stroke="black" points="118,-40.5 118,-61.5 186,-61.5 186,-40.5 118,-40.5"/>
<text text-anchor="middle" x="152" y="-48.5" font-family="Helvetica,sans-Serif" font-size="10.00">showPlayer</text>
</a>
</g>
<!-- Node1&#45;&gt;Node5 -->
<g id="edge8" class="edge"><title>Node1&#45;&gt;Node5</title>
<path fill="none" stroke="midnightblue" d="M87.5709,-62.4034C97.7362,-60.6042 108.251,-58.7432 117.763,-57.0596"/>
<polygon fill="midnightblue" stroke="midnightblue" points="86.8091,-58.9837 77.5721,-64.1731 88.0291,-65.8766 86.8091,-58.9837"/>
</g>
<!-- Node6 -->
<g id="node11" class="node"><title>Node6</title>
<a xlink:href="../../db/dcd/build__stage_2email_2shared_2js_2media_2video__player_8js.html#a612b58b49e6b99cf1229b3c371d5f684" target="_top" xlink:title="VideoPlayer">
<polygon fill="white" stroke="black" points="117.5,-0.5 117.5,-21.5 186.5,-21.5 186.5,-0.5 117.5,-0.5"/>
<text text-anchor="middle" x="152" y="-8.5" font-family="Helvetica,sans-Serif" font-size="10.00">VideoPlayer</text>
</a>
</g>
<!-- Node1&#45;&gt;Node6 -->
<g id="edge10" class="edge"><title>Node1&#45;&gt;Node6</title>
<path fill="none" stroke="midnightblue" d="M67.8285,-55.5774C81.7665,-48.133 98.7434,-39.0832 114,-31 119.797,-27.9286 126.099,-24.6054 131.874,-21.5666"/>
<polygon fill="midnightblue" stroke="midnightblue" points="65.8932,-52.6431 58.7231,-60.4431 69.1924,-58.8169 65.8932,-52.6431"/>
</g>
<!-- Node3 -->
<g id="node5" class="node"><title>Node3</title>
<a xlink:href="../../dd/d85/video_8js.html#af8dc73726eb0578fe44fb98cd2319445" target="_top" xlink:title="init">
<polygon fill="white" stroke="black" points="247.5,-120.5 247.5,-141.5 276.5,-141.5 276.5,-120.5 247.5,-120.5"/>
<text text-anchor="middle" x="262" y="-128.5" font-family="Helvetica,sans-Serif" font-size="10.00">init</text>
</a>
</g>
<!-- Node2&#45;&gt;Node3 -->
<g id="edge4" class="edge"><title>Node2&#45;&gt;Node3</title>
<path fill="none" stroke="midnightblue" d="M200.563,-131C217.532,-131 235.329,-131 247.374,-131"/>
<polygon fill="midnightblue" stroke="midnightblue" points="200.164,-127.5 190.164,-131 200.164,-134.5 200.164,-127.5"/>
</g>
<!-- Node7 -->
<g id="node13" class="node"><title>Node7</title>
<a xlink:href="../../d6/d40/build__stage_2email_2shared_2js_2media_2media__frame_8js.html#a369a818079f25867bf624967bbc86bf7" target="_top" xlink:title="MediaFrame">
<polygon fill="white" stroke="black" points="226.5,-0.5 226.5,-21.5 297.5,-21.5 297.5,-0.5 226.5,-0.5"/>
<text text-anchor="middle" x="262" y="-8.5" font-family="Helvetica,sans-Serif" font-size="10.00">MediaFrame</text>
</a>
</g>
<!-- Node6&#45;&gt;Node7 -->
<g id="edge12" class="edge"><title>Node6&#45;&gt;Node7</title>
<path fill="none" stroke="midnightblue" d="M196.63,-11C206.566,-11 216.97,-11 226.482,-11"/>
<polygon fill="midnightblue" stroke="midnightblue" points="196.503,-7.5001 186.503,-11 196.503,-14.5001 196.503,-7.5001"/>
</g>
</g>
</svg>
