<?xml version="1.0" encoding="UTF-8" standalone="no"?>
<!DOCTYPE svg PUBLIC "-//W3C//DTD SVG 1.1//EN"
 "http://www.w3.org/Graphics/SVG/1.1/DTD/svg11.dtd">
<!-- Generated by graphviz version 2.26.3 (20100126.1600)
 -->
<!-- Title: G Pages: 1 -->
<!--zoomable 384 -->
<svg id="main" version="1.1" xmlns="http://www.w3.org/2000/svg" xmlns:xlink="http://www.w3.org/1999/xlink" xml:space="preserve" onload="init(evt)">
        <defs>
                <circle id="rim" cx="0" cy="0" r="7"/>
                <circle id="rim2" cx="0" cy="0" r="3.5"/>
                <g id="zoomPlus">
                        <use xlink:href="#rim" fill="#404040">
                                <set attributeName="fill" to="#808080" begin="zoomplus.mouseover" end="zoomplus.mouseout"/>
                        </use>
                        <path d="M-4,0h8M0,-4v8" fill="none" stroke="white" stroke-width="1.5" pointer-events="none"/>
                </g>
                <g id="zoomMin">
                        <use xlink:href="#rim" fill="#404040">
                                <set attributeName="fill" to="#808080" begin="zoomminus.mouseover" end="zoomminus.mouseout"/>
                        </use>
                        <path d="M-4,0h8" fill="none" stroke="white" stroke-width="1.5" pointer-events="none"/>
                </g>
                <g id="dirArrow">
                        <path fill="none" stroke="white" stroke-width="1.5" d="M0,-3.0v7 M-2.5,-0.5L0,-3.0L2.5,-0.5"/>
                </g>
               <g id="resetDef">
                       <use xlink:href="#rim2" fill="#404040">
                               <set attributeName="fill" to="#808080" begin="reset.mouseover" end="reset.mouseout"/>
                       </use>
               </g>
        </defs>

<script type="text/javascript">
var viewWidth = 1342;
var viewHeight = 384;
var sectionId = 'dynsection-25';
</script>
<script xlink:href="../../svgpan.js"/>
<svg id="graph" class="graph">
<g id="viewport">
<title>G</title>
<polygon fill="white" stroke="white" points="-4,5 -4,-380 1339,-380 1339,5 -4,5"/>
<!-- Node1 -->
<g id="node1" class="node"><title>Node1</title>
<polygon fill="#bfbfbf" stroke="black" points="0,-196.5 0,-217.5 94,-217.5 94,-196.5 0,-196.5"/>
<text text-anchor="middle" x="47" y="-204.5" font-family="Helvetica,sans-Serif" font-size="10.00">initPlayerControls</text>
</g>
<!-- Node2 -->
<g id="node3" class="node"><title>Node2</title>
<a xlink:href="../../dd/d85/video_8js.html#a08aeb96a802810874aea079377509efd" target="_top" xlink:title="handlePlayerTouchEnd">
<polygon fill="white" stroke="black" points="132.5,-354.5 132.5,-375.5 249.5,-375.5 249.5,-354.5 132.5,-354.5"/>
<text text-anchor="middle" x="191" y="-362.5" font-family="Helvetica,sans-Serif" font-size="10.00">handlePlayerTouchEnd</text>
</a>
</g>
<!-- Node1&#45;&gt;Node2 -->
<g id="edge2" class="edge"><title>Node1&#45;&gt;Node2</title>
<path fill="none" stroke="midnightblue" d="M50.9124,-217.524C60.5961,-242.233 87.9817,-304.543 130,-340 134.595,-343.877 139.873,-347.216 145.359,-350.074"/>
<polygon fill="midnightblue" stroke="midnightblue" points="144.165,-353.379 154.707,-354.44 147.128,-347.037 144.165,-353.379"/>
</g>
<!-- Node3 -->
<g id="node5" class="node"><title>Node3</title>
<a xlink:href="../../dd/d85/video_8js.html#acd8cfbf16e7792632f478414a7d330cc" target="_top" xlink:title="handlePlayerTouchMove">
<polygon fill="white" stroke="black" points="444,-295.5 444,-316.5 568,-316.5 568,-295.5 444,-295.5"/>
<text text-anchor="middle" x="506" y="-303.5" font-family="Helvetica,sans-Serif" font-size="10.00">handlePlayerTouchMove</text>
</a>
</g>
<!-- Node1&#45;&gt;Node3 -->
<g id="edge4" class="edge"><title>Node1&#45;&gt;Node3</title>
<path fill="none" stroke="midnightblue" d="M65.2575,-217.541C104.459,-239.492 200.259,-289.519 288,-307 332.46,-315.858 344.667,-307.195 390,-307 404.099,-306.939 419.162,-306.837 433.607,-306.72"/>
<polygon fill="midnightblue" stroke="midnightblue" points="434.023,-310.217 443.994,-306.633 433.965,-303.217 434.023,-310.217"/>
</g>
<!-- Node4 -->
<g id="node7" class="node"><title>Node4</title>
<a xlink:href="../../dd/d85/video_8js.html#aba6e10c498c5804392b6460c6cd5b0cf" target="_top" xlink:title="handlePlayerTouchStart">
<polygon fill="white" stroke="black" points="130.5,-196.5 130.5,-217.5 251.5,-217.5 251.5,-196.5 130.5,-196.5"/>
<text text-anchor="middle" x="191" y="-204.5" font-family="Helvetica,sans-Serif" font-size="10.00">handlePlayerTouchStart</text>
</a>
</g>
<!-- Node1&#45;&gt;Node4 -->
<g id="edge6" class="edge"><title>Node1&#45;&gt;Node4</title>
<path fill="none" stroke="midnightblue" d="M94.151,-207C102.464,-207 111.28,-207 120.075,-207"/>
<polygon fill="midnightblue" stroke="midnightblue" points="120.358,-210.5 130.358,-207 120.358,-203.5 120.358,-210.5"/>
</g>
<!-- Node28 -->
<g id="node62" class="node"><title>Node28</title>
<a xlink:href="../../dd/d85/video_8js.html#a6fcd1c3d17b759ae9f24a6d8edceed54" target="_top" xlink:title="playerEnded">
<polygon fill="white" stroke="black" points="303.5,-40.5 303.5,-61.5 374.5,-61.5 374.5,-40.5 303.5,-40.5"/>
<text text-anchor="middle" x="339" y="-48.5" font-family="Helvetica,sans-Serif" font-size="10.00">playerEnded</text>
</a>
</g>
<!-- Node1&#45;&gt;Node28 -->
<g id="edge68" class="edge"><title>Node1&#45;&gt;Node28</title>
<path fill="none" stroke="midnightblue" d="M52.9832,-196.206C64.8839,-175.76 93.5484,-131.347 130,-108 180.39,-75.7252 248.876,-61.551 293.499,-55.4449"/>
<polygon fill="midnightblue" stroke="midnightblue" points="294.002,-58.9091 303.473,-54.1601 293.108,-51.9665 294.002,-58.9091"/>
</g>
<!-- Node29 -->
<g id="node65" class="node"><title>Node29</title>
<a xlink:href="../../dd/d85/video_8js.html#a7751b1e88bf6a27cd0cae9e64e11e0a8" target="_top" xlink:title="timeUpdated">
<polygon fill="white" stroke="black" points="155,-117.5 155,-138.5 227,-138.5 227,-117.5 155,-117.5"/>
<text text-anchor="middle" x="191" y="-125.5" font-family="Helvetica,sans-Serif" font-size="10.00">timeUpdated</text>
</a>
</g>
<!-- Node1&#45;&gt;Node29 -->
<g id="edge72" class="edge"><title>Node1&#45;&gt;Node29</title>
<path fill="none" stroke="midnightblue" d="M66.4205,-196.346C91.1126,-182.799 133.945,-159.301 162.382,-143.7"/>
<polygon fill="midnightblue" stroke="midnightblue" points="164.343,-146.616 171.427,-138.738 160.977,-140.479 164.343,-146.616"/>
</g>
<!-- Node5 -->
<g id="node9" class="node"><title>Node5</title>
<a xlink:href="../../dd/d85/video_8js.html#a03df2043699e7f5e33046f6dfc4c1b53" target="_top" xlink:title="cleanupPick">
<polygon fill="white" stroke="black" points="304,-156.5 304,-177.5 374,-177.5 374,-156.5 304,-156.5"/>
<text text-anchor="middle" x="339" y="-164.5" font-family="Helvetica,sans-Serif" font-size="10.00">cleanupPick</text>
</a>
</g>
<!-- Node4&#45;&gt;Node5 -->
<g id="edge8" class="edge"><title>Node4&#45;&gt;Node5</title>
<path fill="none" stroke="midnightblue" d="M229.885,-196.49C249.61,-191.159 273.668,-184.657 294.17,-179.116"/>
<polygon fill="midnightblue" stroke="midnightblue" points="295.174,-182.471 303.914,-176.483 293.347,-175.713 295.174,-182.471"/>
</g>
<!-- Node6 -->
<g id="node11" class="node"><title>Node6</title>
<a xlink:href="../../dd/d85/video_8js.html#a87871aceb087d64a0527f9a89eb07e37" target="_top" xlink:title="hidePlayer">
<polygon fill="white" stroke="black" points="475,-79.5 475,-100.5 537,-100.5 537,-79.5 475,-79.5"/>
<text text-anchor="middle" x="506" y="-87.5" font-family="Helvetica,sans-Serif" font-size="10.00">hidePlayer</text>
</a>
</g>
<!-- Node4&#45;&gt;Node6 -->
<g id="edge62" class="edge"><title>Node4&#45;&gt;Node6</title>
<path fill="none" stroke="midnightblue" d="M205.048,-196.424C223.284,-183.15 256.513,-160.493 288,-147 347.045,-121.698 420.038,-105.403 464.791,-96.9706"/>
<polygon fill="midnightblue" stroke="midnightblue" points="465.514,-100.396 474.715,-95.1426 464.246,-93.5121 465.514,-100.396"/>
</g>
<!-- Node24 -->
<g id="node52" class="node"><title>Node24</title>
<a xlink:href="../../dd/d85/video_8js.html#ae00c60fcf18f895f6324cf52962d10de" target="_top" xlink:title="dragSlider">
<polygon fill="white" stroke="black" points="309,-276.5 309,-297.5 369,-297.5 369,-276.5 309,-276.5"/>
<text text-anchor="middle" x="339" y="-284.5" font-family="Helvetica,sans-Serif" font-size="10.00">dragSlider</text>
</a>
</g>
<!-- Node4&#45;&gt;Node24 -->
<g id="edge56" class="edge"><title>Node4&#45;&gt;Node24</title>
<path fill="none" stroke="midnightblue" d="M206.293,-217.665C224.998,-230.423 257.894,-251.94 288,-267 291.828,-268.915 295.885,-270.774 299.974,-272.539"/>
<polygon fill="midnightblue" stroke="midnightblue" points="298.899,-275.881 309.477,-276.465 301.572,-269.412 298.899,-275.881"/>
</g>
<!-- Node26 -->
<g id="node58" class="node"><title>Node26</title>
<a xlink:href="../../dd/d85/video_8js.html#a1d3947acf14e830b4a9d052890e2617c" target="_top" xlink:title="setVideoPlaying">
<polygon fill="white" stroke="black" points="295.5,-236.5 295.5,-257.5 382.5,-257.5 382.5,-236.5 295.5,-236.5"/>
<text text-anchor="middle" x="339" y="-244.5" font-family="Helvetica,sans-Serif" font-size="10.00">setVideoPlaying</text>
</a>
</g>
<!-- Node4&#45;&gt;Node26 -->
<g id="edge64" class="edge"><title>Node4&#45;&gt;Node26</title>
<path fill="none" stroke="midnightblue" d="M229.885,-217.51C248.422,-222.519 270.785,-228.563 290.427,-233.872"/>
<polygon fill="midnightblue" stroke="midnightblue" points="289.551,-237.261 300.118,-236.491 291.377,-230.503 289.551,-237.261"/>
</g>
<!-- Node27 -->
<g id="node60" class="node"><title>Node27</title>
<a xlink:href="../../dd/d85/video_8js.html#a8c49c6155f6629d2ec8fe5cb57b84637" target="_top" xlink:title="showVideoControls">
<polygon fill="white" stroke="black" points="288.5,-196.5 288.5,-217.5 389.5,-217.5 389.5,-196.5 288.5,-196.5"/>
<text text-anchor="middle" x="339" y="-204.5" font-family="Helvetica,sans-Serif" font-size="10.00">showVideoControls</text>
</a>
</g>
<!-- Node4&#45;&gt;Node27 -->
<g id="edge66" class="edge"><title>Node4&#45;&gt;Node27</title>
<path fill="none" stroke="midnightblue" d="M251.624,-207C260.346,-207 269.323,-207 278.051,-207"/>
<polygon fill="midnightblue" stroke="midnightblue" points="278.151,-210.5 288.151,-207 278.151,-203.5 278.151,-210.5"/>
</g>
<!-- Node5&#45;&gt;Node6 -->
<g id="edge10" class="edge"><title>Node5&#45;&gt;Node6</title>
<path fill="none" stroke="midnightblue" d="M361.87,-156.455C390.896,-143.072 441.128,-119.911 473.961,-104.772"/>
<polygon fill="midnightblue" stroke="midnightblue" points="475.523,-107.907 483.138,-100.541 472.592,-101.55 475.523,-107.907"/>
</g>
<!-- Node7 -->
<g id="node13" class="node"><title>Node7</title>
<a xlink:href="../../d8/d50/apps_2video_2js_2metadata_8js.html#a630c4c6c13813ba79f9cceef1fc57d7b" target="_top" xlink:title="captureFrame">
<polygon fill="white" stroke="black" points="1058.5,-278.5 1058.5,-299.5 1135.5,-299.5 1135.5,-278.5 1058.5,-278.5"/>
<text text-anchor="middle" x="1097" y="-286.5" font-family="Helvetica,sans-Serif" font-size="10.00">captureFrame</text>
</a>
</g>
<!-- Node6&#45;&gt;Node7 -->
<g id="edge12" class="edge"><title>Node6&#45;&gt;Node7</title>
<path fill="none" stroke="midnightblue" d="M537.357,-100.559C636.733,-134.02 944.674,-237.709 1056.17,-275.252"/>
<polygon fill="midnightblue" stroke="midnightblue" points="1055.12,-278.593 1065.72,-278.467 1057.36,-271.959 1055.12,-278.593"/>
</g>
<!-- Node8 -->
<g id="node15" class="node"><title>Node8</title>
<a xlink:href="../../d8/d50/apps_2video_2js_2metadata_8js.html#ae22812565b83dc890014f0864f947bd0" target="_top" xlink:title="startParsingMetadata">
<polygon fill="white" stroke="black" points="622,-79.5 622,-100.5 732,-100.5 732,-79.5 622,-79.5"/>
<text text-anchor="middle" x="677" y="-87.5" font-family="Helvetica,sans-Serif" font-size="10.00">startParsingMetadata</text>
</a>
</g>
<!-- Node6&#45;&gt;Node8 -->
<g id="edge14" class="edge"><title>Node6&#45;&gt;Node8</title>
<path fill="none" stroke="midnightblue" d="M537.364,-90C558.218,-90 586.372,-90 611.936,-90"/>
<polygon fill="midnightblue" stroke="midnightblue" points="611.957,-93.5001 621.957,-90 611.957,-86.5001 611.957,-93.5001"/>
</g>
<!-- Node21 -->
<g id="node45" class="node"><title>Node21</title>
<a xlink:href="../../dd/d85/video_8js.html#a5ac3b5032f9a9ecde23b4b999725109f" target="_top" xlink:title="updateDialog">
<polygon fill="white" stroke="black" points="928,-20.5 928,-41.5 1002,-41.5 1002,-20.5 928,-20.5"/>
<text text-anchor="middle" x="965" y="-28.5" font-family="Helvetica,sans-Serif" font-size="10.00">updateDialog</text>
</a>
</g>
<!-- Node6&#45;&gt;Node21 -->
<g id="edge54" class="edge"><title>Node6&#45;&gt;Node21</title>
<path fill="none" stroke="midnightblue" d="M537.461,-84.2726C560.768,-80.1036 593.322,-74.4352 622,-70 686.725,-59.99 702.946,-57.5898 768,-50 819.175,-44.0295 877.987,-38.5346 917.933,-35.0066"/>
<polygon fill="midnightblue" stroke="midnightblue" points="918.262,-38.4913 927.918,-34.131 917.651,-31.518 918.262,-38.4913"/>
</g>
<!-- Node9 -->
<g id="node17" class="node"><title>Node9</title>
<a xlink:href="../../d8/d50/apps_2video_2js_2metadata_8js.html#ab0dcf0f45a87ccde675b9320f5b69d3a" target="_top" xlink:title="processFirstQueuedItem">
<polygon fill="white" stroke="black" points="768,-99.5 768,-120.5 892,-120.5 892,-99.5 768,-99.5"/>
<text text-anchor="middle" x="830" y="-107.5" font-family="Helvetica,sans-Serif" font-size="10.00">processFirstQueuedItem</text>
</a>
</g>
<!-- Node8&#45;&gt;Node9 -->
<g id="edge16" class="edge"><title>Node8&#45;&gt;Node9</title>
<path fill="none" stroke="midnightblue" d="M732.237,-97.2205C740.542,-98.3061 749.211,-99.4393 757.807,-100.563"/>
<polygon fill="midnightblue" stroke="midnightblue" points="757.469,-104.048 767.838,-101.874 758.376,-97.1075 757.469,-104.048"/>
</g>
<!-- Node23 -->
<g id="node49" class="node"><title>Node23</title>
<a xlink:href="../../dd/d85/video_8js.html#a75635219ebfcafcc9f0d68b6c4c7b610" target="_top" xlink:title="showThrobber">
<polygon fill="white" stroke="black" points="791,-59.5 791,-80.5 869,-80.5 869,-59.5 791,-59.5"/>
<text text-anchor="middle" x="830" y="-67.5" font-family="Helvetica,sans-Serif" font-size="10.00">showThrobber</text>
</a>
</g>
<!-- Node8&#45;&gt;Node23 -->
<g id="edge52" class="edge"><title>Node8&#45;&gt;Node23</title>
<path fill="none" stroke="midnightblue" d="M732.237,-82.7795C747.954,-80.725 764.972,-78.5003 780.337,-76.4919"/>
<polygon fill="midnightblue" stroke="midnightblue" points="781.211,-79.9075 790.673,-75.1408 780.304,-72.9665 781.211,-79.9075"/>
</g>
<!-- Node10 -->
<g id="node19" class="node"><title>Node10</title>
<a xlink:href="../../d4/d76/camera_2js_2filmstrip_8js.html#ae6b06bd26f6c80aa7e9c46e369a2882c" target="_top" xlink:title="addVideo">
<polygon fill="white" stroke="black" points="936.5,-60.5 936.5,-81.5 993.5,-81.5 993.5,-60.5 936.5,-60.5"/>
<text text-anchor="middle" x="965" y="-68.5" font-family="Helvetica,sans-Serif" font-size="10.00">addVideo</text>
</a>
</g>
<!-- Node9&#45;&gt;Node10 -->
<g id="edge18" class="edge"><title>Node9&#45;&gt;Node10</title>
<path fill="none" stroke="midnightblue" d="M866.533,-99.446C885.067,-94.0919 907.577,-87.5889 926.394,-82.1528"/>
<polygon fill="midnightblue" stroke="midnightblue" points="927.502,-85.476 936.137,-79.3381 925.559,-78.751 927.502,-85.476"/>
</g>
<!-- Node12 -->
<g id="node23" class="node"><title>Node12</title>
<a xlink:href="../../d8/d50/apps_2video_2js_2metadata_8js.html#a0b97138040447870c0f4f24d76ba070a" target="_top" xlink:title="getMetadata">
<polygon fill="white" stroke="black" points="929.5,-140.5 929.5,-161.5 1000.5,-161.5 1000.5,-140.5 929.5,-140.5"/>
<text text-anchor="middle" x="965" y="-148.5" font-family="Helvetica,sans-Serif" font-size="10.00">getMetadata</text>
</a>
</g>
<!-- Node9&#45;&gt;Node12 -->
<g id="edge22" class="edge"><title>Node9&#45;&gt;Node12</title>
<path fill="none" stroke="midnightblue" d="M864.766,-120.559C881.772,-125.723 902.437,-131.999 920.575,-137.508"/>
<polygon fill="midnightblue" stroke="midnightblue" points="919.766,-140.92 930.352,-140.477 921.801,-134.222 919.766,-140.92"/>
</g>
<!-- Node20 -->
<g id="node43" class="node"><title>Node20</title>
<a xlink:href="../../dd/d85/video_8js.html#a7b433f6aa3139d37460764b72cf2d163" target="_top" xlink:title="hideThrobber">
<polygon fill="white" stroke="black" points="928.5,-100.5 928.5,-121.5 1001.5,-121.5 1001.5,-100.5 928.5,-100.5"/>
<text text-anchor="middle" x="965" y="-108.5" font-family="Helvetica,sans-Serif" font-size="10.00">hideThrobber</text>
</a>
</g>
<!-- Node9&#45;&gt;Node20 -->
<g id="edge46" class="edge"><title>Node9&#45;&gt;Node20</title>
<path fill="none" stroke="midnightblue" d="M892.363,-110.462C901.009,-110.526 909.769,-110.591 918.07,-110.652"/>
<polygon fill="midnightblue" stroke="midnightblue" points="918.27,-114.154 928.296,-110.728 918.322,-107.154 918.27,-114.154"/>
</g>
<!-- Node9&#45;&gt;Node21 -->
<g id="edge48" class="edge"><title>Node9&#45;&gt;Node21</title>
<path fill="none" stroke="midnightblue" d="M872.672,-99.4572C879.408,-96.8967 886.092,-93.7764 892,-90 911.876,-77.2962 909.372,-65.4715 928,-51 929.78,-49.6169 931.67,-48.2765 933.615,-46.9886"/>
<polygon fill="midnightblue" stroke="midnightblue" points="935.6,-49.8784 942.347,-41.7091 931.978,-43.8884 935.6,-49.8784"/>
</g>
<!-- Node11 -->
<g id="node21" class="node"><title>Node11</title>
<a xlink:href="../../d4/d76/camera_2js_2filmstrip_8js.html#a246682eea904b777ca4d4707f24232f2" target="_top" xlink:title="createThumbnail">
<polygon fill="white" stroke="black" points="1052.5,-40.5 1052.5,-61.5 1141.5,-61.5 1141.5,-40.5 1052.5,-40.5"/>
<text text-anchor="middle" x="1097" y="-48.5" font-family="Helvetica,sans-Serif" font-size="10.00">createThumbnail</text>
</a>
</g>
<!-- Node10&#45;&gt;Node11 -->
<g id="edge20" class="edge"><title>Node10&#45;&gt;Node11</title>
<path fill="none" stroke="midnightblue" d="M993.642,-66.6603C1007.83,-64.5101 1025.46,-61.8394 1042.11,-59.316"/>
<polygon fill="midnightblue" stroke="midnightblue" points="1042.96,-62.7284 1052.32,-57.7698 1041.91,-55.8074 1042.96,-62.7284"/>
</g>
<!-- Node12&#45;&gt;Node7 -->
<g id="edge24" class="edge"><title>Node12&#45;&gt;Node7</title>
<path fill="none" stroke="midnightblue" d="M969.233,-161.522C978.537,-183.437 1002.78,-234.394 1038,-264 1042.58,-267.852 1047.85,-271.189 1053.3,-274.058"/>
<polygon fill="midnightblue" stroke="midnightblue" points="1052.04,-277.334 1062.58,-278.452 1055.04,-271.007 1052.04,-277.334"/>
</g>
<!-- Node12&#45;&gt;Node11 -->
<g id="edge26" class="edge"><title>Node12&#45;&gt;Node11</title>
<path fill="none" stroke="midnightblue" d="M988.977,-140.487C993.611,-137.805 998.2,-134.633 1002,-131 1024.48,-109.509 1013.79,-90.5206 1038,-71 1040.06,-69.3367 1042.27,-67.8086 1044.58,-66.405"/>
<polygon fill="midnightblue" stroke="midnightblue" points="1046.6,-69.2978 1053.87,-61.5862 1043.38,-63.0841 1046.6,-69.2978"/>
</g>
<!-- Node13 -->
<g id="node27" class="node"><title>Node13</title>
<a xlink:href="../../d7/d78/namespacefactory.html#a1c47ef339eafcb580414d1d592ef4628" target="_top" xlink:title="factory.failed">
<polygon fill="white" stroke="black" points="1060.5,-120.5 1060.5,-141.5 1133.5,-141.5 1133.5,-120.5 1060.5,-120.5"/>
<text text-anchor="middle" x="1097" y="-128.5" font-family="Helvetica,sans-Serif" font-size="10.00">factory.failed</text>
</a>
</g>
<!-- Node12&#45;&gt;Node13 -->
<g id="edge28" class="edge"><title>Node12&#45;&gt;Node13</title>
<path fill="none" stroke="midnightblue" d="M1000.72,-145.588C1016.02,-143.269 1034.1,-140.531 1050.43,-138.056"/>
<polygon fill="midnightblue" stroke="midnightblue" points="1050.97,-141.515 1060.33,-136.556 1049.92,-134.594 1050.97,-141.515"/>
</g>
<!-- Node14 -->
<g id="node29" class="node"><title>Node14</title>
<a xlink:href="../../dd/d85/video_8js.html#a48ae97587470b75a7c95fc58c25bd3e3" target="_top" xlink:title="fileNameToVideoName">
<polygon fill="white" stroke="black" points="1038,-80.5 1038,-101.5 1156,-101.5 1156,-80.5 1038,-80.5"/>
<text text-anchor="middle" x="1097" y="-88.5" font-family="Helvetica,sans-Serif" font-size="10.00">fileNameToVideoName</text>
</a>
</g>
<!-- Node12&#45;&gt;Node14 -->
<g id="edge30" class="edge"><title>Node12&#45;&gt;Node14</title>
<path fill="none" stroke="midnightblue" d="M984.609,-140.455C990.232,-137.416 996.365,-134.088 1002,-131 1018.05,-122.204 1021.26,-118.413 1038,-111 1042.7,-108.918 1047.69,-106.92 1052.7,-105.046"/>
<polygon fill="midnightblue" stroke="midnightblue" points="1054.05,-108.278 1062.28,-101.606 1051.69,-101.69 1054.05,-108.278"/>
</g>
<!-- Node15 -->
<g id="node31" class="node"><title>Node15</title>
<a xlink:href="../../df/dcd/apps_2gallery_2js_2metadata__scripts_8js.html#ab788b9d95bc35ef077f98db5199435ab" target="_top" xlink:title="getVideoRotation">
<polygon fill="white" stroke="black" points="1051,-200.5 1051,-221.5 1143,-221.5 1143,-200.5 1051,-200.5"/>
<text text-anchor="middle" x="1097" y="-208.5" font-family="Helvetica,sans-Serif" font-size="10.00">getVideoRotation</text>
</a>
</g>
<!-- Node12&#45;&gt;Node15 -->
<g id="edge32" class="edge"><title>Node12&#45;&gt;Node15</title>
<path fill="none" stroke="midnightblue" d="M982.267,-161.582C996.791,-170.208 1018.29,-182.337 1038,-191 1042.77,-193.095 1047.83,-195.109 1052.9,-196.999"/>
<polygon fill="midnightblue" stroke="midnightblue" points="1052.01,-200.397 1062.61,-200.468 1054.37,-193.806 1052.01,-200.397"/>
</g>
<!-- Node17 -->
<g id="node35" class="node"><title>Node17</title>
<a xlink:href="../../d1/d22/ical_8js.html#a6053319846c80bf9561a1958bb817380" target="_top" xlink:title="typeof">
<polygon fill="white" stroke="black" points="1290,-200.5 1290,-221.5 1334,-221.5 1334,-200.5 1290,-200.5"/>
<text text-anchor="middle" x="1312" y="-208.5" font-family="Helvetica,sans-Serif" font-size="10.00">typeof</text>
</a>
</g>
<!-- Node12&#45;&gt;Node17 -->
<g id="edge44" class="edge"><title>Node12&#45;&gt;Node17</title>
<path fill="none" stroke="midnightblue" d="M970.703,-161.623C981.193,-179.886 1005.49,-216.654 1038,-231 1125.83,-269.755 1159.32,-246.866 1254,-231 1262.76,-229.532 1271.96,-226.899 1280.4,-224.016"/>
<polygon fill="midnightblue" stroke="midnightblue" points="1281.67,-227.278 1289.87,-220.57 1279.27,-220.7 1281.67,-227.278"/>
</g>
<!-- Node18 -->
<g id="node38" class="node"><title>Node18</title>
<a xlink:href="../../d6/d52/js_2browser_8js.html#a7321fd84345f4f9455f25996b932b8fd" target="_top" xlink:title="if">
<polygon fill="white" stroke="black" points="1082.5,-160.5 1082.5,-181.5 1111.5,-181.5 1111.5,-160.5 1082.5,-160.5"/>
<text text-anchor="middle" x="1097" y="-168.5" font-family="Helvetica,sans-Serif" font-size="10.00">if</text>
</a>
</g>
<!-- Node12&#45;&gt;Node18 -->
<g id="edge40" class="edge"><title>Node12&#45;&gt;Node18</title>
<path fill="none" stroke="midnightblue" d="M1000.72,-156.412C1023.37,-159.844 1052.1,-164.197 1072.26,-167.251"/>
<polygon fill="midnightblue" stroke="midnightblue" points="1071.8,-170.721 1082.21,-168.759 1072.85,-163.8 1071.8,-170.721"/>
</g>
<!-- Node16 -->
<g id="node33" class="node"><title>Node16</title>
<a xlink:href="../../d0/de6/fake-oncall-desktop_8js.html#a6efd5e1eedff09b640ec574dc6dd2879" target="_top" xlink:title="error">
<polygon fill="white" stroke="black" points="1205,-200.5 1205,-221.5 1241,-221.5 1241,-200.5 1205,-200.5"/>
<text text-anchor="middle" x="1223" y="-208.5" font-family="Helvetica,sans-Serif" font-size="10.00">error</text>
</a>
</g>
<!-- Node15&#45;&gt;Node16 -->
<g id="edge34" class="edge"><title>Node15&#45;&gt;Node16</title>
<path fill="none" stroke="midnightblue" d="M1143.2,-211C1160.38,-211 1179.36,-211 1194.5,-211"/>
<polygon fill="midnightblue" stroke="midnightblue" points="1194.76,-214.5 1204.76,-211 1194.76,-207.5 1194.76,-214.5"/>
</g>
<!-- Node15&#45;&gt;Node17 -->
<g id="edge38" class="edge"><title>Node15&#45;&gt;Node17</title>
<path fill="none" stroke="midnightblue" d="M1132.97,-200.44C1164.87,-192.498 1212.67,-184.075 1254,-191 1262.76,-192.468 1271.96,-195.101 1280.4,-197.984"/>
<polygon fill="midnightblue" stroke="midnightblue" points="1279.27,-201.3 1289.87,-201.43 1281.67,-194.722 1279.27,-201.3"/>
</g>
<!-- Node16&#45;&gt;Node17 -->
<g id="edge36" class="edge"><title>Node16&#45;&gt;Node17</title>
<path fill="none" stroke="midnightblue" d="M1241.01,-211C1252.15,-211 1266.78,-211 1279.86,-211"/>
<polygon fill="midnightblue" stroke="midnightblue" points="1279.92,-214.5 1289.92,-211 1279.92,-207.5 1279.92,-214.5"/>
</g>
<!-- Node19 -->
<g id="node40" class="node"><title>Node19</title>
<a xlink:href="../../d6/d52/js_2browser_8js.html#a35ca1017bd581c0cd64ad0e3defc07d8" target="_top" xlink:title="actHandle">
<polygon fill="white" stroke="black" points="1192.5,-122.5 1192.5,-143.5 1253.5,-143.5 1253.5,-122.5 1192.5,-122.5"/>
<text text-anchor="middle" x="1223" y="-130.5" font-family="Helvetica,sans-Serif" font-size="10.00">actHandle</text>
</a>
</g>
<!-- Node18&#45;&gt;Node19 -->
<g id="edge42" class="edge"><title>Node18&#45;&gt;Node19</title>
<path fill="none" stroke="midnightblue" d="M1111.95,-166.492C1129.31,-161.256 1158.65,-152.406 1182.82,-145.118"/>
<polygon fill="midnightblue" stroke="midnightblue" points="1183.9,-148.447 1192.47,-142.208 1181.88,-141.745 1183.9,-148.447"/>
</g>
<!-- Node22 -->
<g id="node47" class="node"><title>Node22</title>
<a xlink:href="../../de/db0/music_8js.html#a06b9f891a17c6f5559d8709267729496" target="_top" xlink:title="showOverlay">
<polygon fill="white" stroke="black" points="1060,-0.5 1060,-21.5 1134,-21.5 1134,-0.5 1060,-0.5"/>
<text text-anchor="middle" x="1097" y="-8.5" font-family="Helvetica,sans-Serif" font-size="10.00">showOverlay</text>
</a>
</g>
<!-- Node21&#45;&gt;Node22 -->
<g id="edge50" class="edge"><title>Node21&#45;&gt;Node22</title>
<path fill="none" stroke="midnightblue" d="M1002.12,-25.3757C1016.88,-23.1389 1034.05,-20.5384 1049.68,-18.169"/>
<polygon fill="midnightblue" stroke="midnightblue" points="1050.34,-21.6101 1059.7,-16.6514 1049.29,-14.6891 1050.34,-21.6101"/>
</g>
<!-- Node24&#45;&gt;Node3 -->
<g id="edge58" class="edge"><title>Node24&#45;&gt;Node3</title>
<path fill="none" stroke="midnightblue" d="M369.242,-290.441C387.337,-292.499 411.159,-295.21 433.843,-297.791"/>
<polygon fill="midnightblue" stroke="midnightblue" points="433.485,-301.272 443.816,-298.925 434.276,-294.317 433.485,-301.272"/>
</g>
<!-- Node25 -->
<g id="node55" class="node"><title>Node25</title>
<a xlink:href="../../d2/da3/namespacegoogle_1_1protobuf_1_1internal.html#a1b0bebbb829f5b272171927a1b7adfbe" target="_top" xlink:title="google::protobuf::internal::Infinity">
<polygon fill="white" stroke="black" points="426.5,-197.5 426.5,-218.5 585.5,-218.5 585.5,-197.5 426.5,-197.5"/>
<text text-anchor="middle" x="506" y="-205.5" font-family="Helvetica,sans-Serif" font-size="10.00">google::protobuf::internal::Infinity</text>
</a>
</g>
<!-- Node24&#45;&gt;Node25 -->
<g id="edge60" class="edge"><title>Node24&#45;&gt;Node25</title>
<path fill="none" stroke="midnightblue" d="M367.261,-276.479C374.716,-273.551 382.712,-270.273 390,-267 420.433,-253.332 454.35,-235.803 477.608,-223.414"/>
<polygon fill="midnightblue" stroke="midnightblue" points="479.415,-226.416 486.577,-218.609 476.11,-220.246 479.415,-226.416"/>
</g>
<!-- Node28&#45;&gt;Node6 -->
<g id="edge70" class="edge"><title>Node28&#45;&gt;Node6</title>
<path fill="none" stroke="midnightblue" d="M374.826,-59.3665C401.287,-65.546 437.353,-73.9687 464.971,-80.4185"/>
<polygon fill="midnightblue" stroke="midnightblue" points="464.197,-83.8317 474.731,-82.6976 465.789,-77.0151 464.197,-83.8317"/>
</g>
<!-- Node29&#45;&gt;Node25 -->
<g id="edge74" class="edge"><title>Node29&#45;&gt;Node25</title>
<path fill="none" stroke="midnightblue" d="M227.021,-127.292C267.506,-127.441 334.788,-130.545 390,-147 423.922,-157.11 459.453,-177.459 482.11,-191.869"/>
<polygon fill="midnightblue" stroke="midnightblue" points="480.41,-194.938 490.704,-197.444 484.22,-189.066 480.41,-194.938"/>
</g>
<!-- Node29&#45;&gt;Node28 -->
<g id="edge76" class="edge"><title>Node29&#45;&gt;Node28</title>
<path fill="none" stroke="midnightblue" d="M210.215,-117.433C229.708,-106.777 260.798,-89.9528 288,-76 294.367,-72.7344 301.221,-69.3115 307.776,-66.0829"/>
<polygon fill="midnightblue" stroke="midnightblue" points="309.63,-69.0723 317.073,-61.5324 306.553,-62.785 309.63,-69.0723"/>
</g>
</g>
</svg>
        <g id="navigator" transform="translate(0 0)" fill="#404254">
                <rect fill="#f2f5e9" fill-opacity="0.5" stroke="#606060" stroke-width=".5" x="0" y="0" width="60" height="60"/>
                <use id="zoomplus" xlink:href="#zoomPlus" x="17" y="9" onmousedown="handleZoom(evt,'in')"/>
                <use id="zoomminus" xlink:href="#zoomMin" x="42" y="9" onmousedown="handleZoom(evt,'out')"/>
                <use id="reset" xlink:href="#resetDef" x="30" y="36" onmousedown="handleReset()"/>
                <g id="arrowUp" xlink:href="#dirArrow" transform="translate(30 24)" onmousedown="handlePan(0,-1)">
                  <use xlink:href="#rim" fill="#404040">
                        <set attributeName="fill" to="#808080" begin="arrowUp.mouseover" end="arrowUp.mouseout"/>
                  </use>
                  <path fill="none" stroke="white" stroke-width="1.5" d="M0,-3.0v7 M-2.5,-0.5L0,-3.0L2.5,-0.5"/>
                </g>
                <g id="arrowRight" xlink:href="#dirArrow" transform="rotate(90) translate(36 -43)" onmousedown="handlePan(1,0)">
                  <use xlink:href="#rim" fill="#404040">
                        <set attributeName="fill" to="#808080" begin="arrowRight.mouseover" end="arrowRight.mouseout"/>
                  </use>
                  <path fill="none" stroke="white" stroke-width="1.5" d="M0,-3.0v7 M-2.5,-0.5L0,-3.0L2.5,-0.5"/>
                </g>
                <g id="arrowDown" xlink:href="#dirArrow" transform="rotate(180) translate(-30 -48)" onmousedown="handlePan(0,1)">
                  <use xlink:href="#rim" fill="#404040">
                        <set attributeName="fill" to="#808080" begin="arrowDown.mouseover" end="arrowDown.mouseout"/>
                  </use>
                  <path fill="none" stroke="white" stroke-width="1.5" d="M0,-3.0v7 M-2.5,-0.5L0,-3.0L2.5,-0.5"/>
                </g>
                <g id="arrowLeft" xlink:href="#dirArrow" transform="rotate(270) translate(-36 17)" onmousedown="handlePan(-1,0)">
                  <use xlink:href="#rim" fill="#404040">
                        <set attributeName="fill" to="#808080" begin="arrowLeft.mouseover" end="arrowLeft.mouseout"/>
                  </use>
                  <path fill="none" stroke="white" stroke-width="1.5" d="M0,-3.0v7 M-2.5,-0.5L0,-3.0L2.5,-0.5"/>
                </g>
        </g>
</svg>
