<?xml version="1.0" encoding="UTF-8" standalone="no"?>
<!DOCTYPE svg PUBLIC "-//W3C//DTD SVG 1.1//EN"
 "http://www.w3.org/Graphics/SVG/1.1/DTD/svg11.dtd">
<!-- Generated by graphviz version 2.26.3 (20100126.1600)
 -->
<!-- Title: G Pages: 1 -->
<svg width="432pt" height="30pt"
 viewBox="0.00 0.00 432.00 30.00" xmlns="http://www.w3.org/2000/svg" xmlns:xlink="http://www.w3.org/1999/xlink">
<g id="graph1" class="graph" transform="scale(1 1) rotate(0) translate(4 26)">
<title>G</title>
<polygon fill="white" stroke="white" points="-4,5 -4,-26 429,-26 429,5 -4,5"/>
<!-- Node1 -->
<g id="node1" class="node"><title>Node1</title>
<polygon fill="#bfbfbf" stroke="black" points="0,-0.5 0,-21.5 70,-21.5 70,-0.5 0,-0.5"/>
<text text-anchor="middle" x="35" y="-8.5" font-family="Helvetica,sans-Serif" font-size="10.00">cleanupPick</text>
</g>
<!-- Node2 -->
<g id="node3" class="node"><title>Node2</title>
<a xlink:href="../../dd/d85/video_8js.html#aba6e10c498c5804392b6460c6cd5b0cf" target="_top" xlink:title="handlePlayerTouchStart">
<polygon fill="white" stroke="black" points="106.5,-0.5 106.5,-21.5 227.5,-21.5 227.5,-0.5 106.5,-0.5"/>
<text text-anchor="middle" x="167" y="-8.5" font-family="Helvetica,sans-Serif" font-size="10.00">handlePlayerTouchStart</text>
</a>
</g>
<!-- Node1&#45;&gt;Node2 -->
<g id="edge2" class="edge"><title>Node1&#45;&gt;Node2</title>
<path fill="none" stroke="midnightblue" d="M80.0367,-11C88.486,-11 97.4468,-11 106.281,-11"/>
<polygon fill="midnightblue" stroke="midnightblue" points="80.0271,-7.5001 70.027,-11 80.027,-14.5001 80.0271,-7.5001"/>
</g>
<!-- Node3 -->
<g id="node5" class="node"><title>Node3</title>
<a xlink:href="../../dd/d85/video_8js.html#a2346166825e9b62dbdbd755de78dba54" target="_top" xlink:title="initPlayerControls">
<polygon fill="white" stroke="black" points="264,-0.5 264,-21.5 358,-21.5 358,-0.5 264,-0.5"/>
<text text-anchor="middle" x="311" y="-8.5" font-family="Helvetica,sans-Serif" font-size="10.00">initPlayerControls</text>
</a>
</g>
<!-- Node2&#45;&gt;Node3 -->
<g id="edge4" class="edge"><title>Node2&#45;&gt;Node3</title>
<path fill="none" stroke="midnightblue" d="M237.684,-11C246.605,-11 255.554,-11 263.981,-11"/>
<polygon fill="midnightblue" stroke="midnightblue" points="237.652,-7.5001 227.652,-11 237.652,-14.5001 237.652,-7.5001"/>
</g>
<!-- Node4 -->
<g id="node7" class="node"><title>Node4</title>
<a xlink:href="../../dd/d85/video_8js.html#af8dc73726eb0578fe44fb98cd2319445" target="_top" xlink:title="init">
<polygon fill="white" stroke="black" points="394.5,-0.5 394.5,-21.5 423.5,-21.5 423.5,-0.5 394.5,-0.5"/>
<text text-anchor="middle" x="409" y="-8.5" font-family="Helvetica,sans-Serif" font-size="10.00">init</text>
</a>
</g>
<!-- Node3&#45;&gt;Node4 -->
<g id="edge6" class="edge"><title>Node3&#45;&gt;Node4</title>
<path fill="none" stroke="midnightblue" d="M368.392,-11C378.005,-11 387.173,-11 394.358,-11"/>
<polygon fill="midnightblue" stroke="midnightblue" points="368.278,-7.5001 358.278,-11 368.278,-14.5001 368.278,-7.5001"/>
</g>
</g>
</svg>
