<?xml version="1.0" encoding="UTF-8" standalone="no"?>
<!DOCTYPE svg PUBLIC "-//W3C//DTD SVG 1.1//EN"
 "http://www.w3.org/Graphics/SVG/1.1/DTD/svg11.dtd">
<!-- Generated by graphviz version 2.26.3 (20100126.1600)
 -->
<!-- Title: G Pages: 1 -->
<svg width="478pt" height="70pt"
 viewBox="0.00 0.00 478.00 70.00" xmlns="http://www.w3.org/2000/svg" xmlns:xlink="http://www.w3.org/1999/xlink">
<g id="graph1" class="graph" transform="scale(1 1) rotate(0) translate(4 66)">
<title>G</title>
<polygon fill="white" stroke="white" points="-4,5 -4,-66 475,-66 475,5 -4,5"/>
<!-- Node1 -->
<g id="node1" class="node"><title>Node1</title>
<polygon fill="#bfbfbf" stroke="black" points="0,-20.5 0,-41.5 104,-41.5 104,-20.5 0,-20.5"/>
<text text-anchor="middle" x="52" y="-28.5" font-family="Helvetica,sans-Serif" font-size="10.00">testContactsSearch</text>
</g>
<!-- Node2 -->
<g id="node3" class="node"><title>Node2</title>
<a xlink:href="../../da/ded/ds-test_8js.html#a96c639e17949eb5b6031072207d80575" target="_top" xlink:title="ok">
<polygon fill="white" stroke="black" points="143.5,-40.5 143.5,-61.5 172.5,-61.5 172.5,-40.5 143.5,-40.5"/>
<text text-anchor="middle" x="158" y="-48.5" font-family="Helvetica,sans-Serif" font-size="10.00">ok</text>
</a>
</g>
<!-- Node1&#45;&gt;Node2 -->
<g id="edge2" class="edge"><title>Node1&#45;&gt;Node2</title>
<path fill="none" stroke="midnightblue" d="M104.068,-40.8242C114.342,-42.7626 124.662,-44.7098 133.484,-46.3744"/>
<polygon fill="midnightblue" stroke="midnightblue" points="132.923,-49.8302 143.398,-48.245 134.221,-42.9515 132.923,-49.8302"/>
</g>
<!-- Node6 -->
<g id="node11" class="node"><title>Node6</title>
<a xlink:href="../../d8/dd3/head_8js.html#a08ccbec53d45462b72eedf1db271b1a2" target="_top" xlink:title="until">
<polygon fill="white" stroke="black" points="140.5,-0.5 140.5,-21.5 175.5,-21.5 175.5,-0.5 140.5,-0.5"/>
<text text-anchor="middle" x="158" y="-8.5" font-family="Helvetica,sans-Serif" font-size="10.00">until</text>
</a>
</g>
<!-- Node1&#45;&gt;Node6 -->
<g id="edge10" class="edge"><title>Node1&#45;&gt;Node6</title>
<path fill="none" stroke="midnightblue" d="M104.068,-21.1758C113.097,-19.4723 122.161,-17.7621 130.213,-16.2428"/>
<polygon fill="midnightblue" stroke="midnightblue" points="130.95,-19.6657 140.127,-14.3722 129.652,-12.7871 130.95,-19.6657"/>
</g>
<!-- Node3 -->
<g id="node5" class="node"><title>Node3</title>
<a xlink:href="../../da/ded/ds-test_8js.html#a0c2adf7b8ccfbc4084d5ea87a964c2fb" target="_top" xlink:title="_logResult">
<polygon fill="white" stroke="black" points="217.5,-40.5 217.5,-61.5 280.5,-61.5 280.5,-40.5 217.5,-40.5"/>
<text text-anchor="middle" x="249" y="-48.5" font-family="Helvetica,sans-Serif" font-size="10.00">_logResult</text>
</a>
</g>
<!-- Node2&#45;&gt;Node3 -->
<g id="edge4" class="edge"><title>Node2&#45;&gt;Node3</title>
<path fill="none" stroke="midnightblue" d="M172.621,-51C182.041,-51 194.805,-51 207.2,-51"/>
<polygon fill="midnightblue" stroke="midnightblue" points="207.444,-54.5001 217.444,-51 207.444,-47.5001 207.444,-54.5001"/>
</g>
<!-- Node4 -->
<g id="node7" class="node"><title>Node4</title>
<a xlink:href="../../d8/dfa/init_8js.html#aad81d14d4c8eea114056d7dc1f18f9b7" target="_top" xlink:title="log">
<polygon fill="white" stroke="black" points="322.5,-40.5 322.5,-61.5 351.5,-61.5 351.5,-40.5 322.5,-40.5"/>
<text text-anchor="middle" x="337" y="-48.5" font-family="Helvetica,sans-Serif" font-size="10.00">log</text>
</a>
</g>
<!-- Node3&#45;&gt;Node4 -->
<g id="edge6" class="edge"><title>Node3&#45;&gt;Node4</title>
<path fill="none" stroke="midnightblue" d="M280.77,-51C291.072,-51 302.345,-51 312.075,-51"/>
<polygon fill="midnightblue" stroke="midnightblue" points="312.271,-54.5001 322.271,-51 312.271,-47.5001 312.271,-54.5001"/>
</g>
<!-- Node5 -->
<g id="node9" class="node"><title>Node5</title>
<a xlink:href="../../d8/dfa/init_8js.html#a2197ced104ebfb003edc6b736182910e" target="_top" xlink:title="getLoggerTime">
<polygon fill="white" stroke="black" points="388.5,-40.5 388.5,-61.5 469.5,-61.5 469.5,-40.5 388.5,-40.5"/>
<text text-anchor="middle" x="429" y="-48.5" font-family="Helvetica,sans-Serif" font-size="10.00">getLoggerTime</text>
</a>
</g>
<!-- Node4&#45;&gt;Node5 -->
<g id="edge8" class="edge"><title>Node4&#45;&gt;Node5</title>
<path fill="none" stroke="midnightblue" d="M351.781,-51C359.17,-51 368.594,-51 378.299,-51"/>
<polygon fill="midnightblue" stroke="midnightblue" points="378.442,-54.5001 388.442,-51 378.442,-47.5001 378.442,-54.5001"/>
</g>
<!-- Node7 -->
<g id="node13" class="node"><title>Node7</title>
<a xlink:href="../../d1/d5b/namespacejcconv.html#a846efc552618562a262a88978ef66841" target="_top" xlink:title="jcconv.check">
<polygon fill="white" stroke="black" points="212,-0.5 212,-21.5 286,-21.5 286,-0.5 212,-0.5"/>
<text text-anchor="middle" x="249" y="-8.5" font-family="Helvetica,sans-Serif" font-size="10.00">jcconv.check</text>
</a>
</g>
<!-- Node6&#45;&gt;Node7 -->
<g id="edge12" class="edge"><title>Node6&#45;&gt;Node7</title>
<path fill="none" stroke="midnightblue" d="M175.546,-11C183.131,-11 192.41,-11 201.785,-11"/>
<polygon fill="midnightblue" stroke="midnightblue" points="201.921,-14.5001 211.921,-11 201.921,-7.5001 201.921,-14.5001"/>
</g>
</g>
</svg>
