<?xml version="1.0" encoding="UTF-8" standalone="no"?>
<!DOCTYPE svg PUBLIC "-//W3C//DTD SVG 1.1//EN"
 "http://www.w3.org/Graphics/SVG/1.1/DTD/svg11.dtd">
<!-- Generated by graphviz version 2.26.3 (20100126.1600)
 -->
<!-- Title: G Pages: 1 -->
<!--zoomable 282 -->
<svg id="main" version="1.1" xmlns="http://www.w3.org/2000/svg" xmlns:xlink="http://www.w3.org/1999/xlink" xml:space="preserve" onload="init(evt)">
        <defs>
                <circle id="rim" cx="0" cy="0" r="7"/>
                <circle id="rim2" cx="0" cy="0" r="3.5"/>
                <g id="zoomPlus">
                        <use xlink:href="#rim" fill="#404040">
                                <set attributeName="fill" to="#808080" begin="zoomplus.mouseover" end="zoomplus.mouseout"/>
                        </use>
                        <path d="M-4,0h8M0,-4v8" fill="none" stroke="white" stroke-width="1.5" pointer-events="none"/>
                </g>
                <g id="zoomMin">
                        <use xlink:href="#rim" fill="#404040">
                                <set attributeName="fill" to="#808080" begin="zoomminus.mouseover" end="zoomminus.mouseout"/>
                        </use>
                        <path d="M-4,0h8" fill="none" stroke="white" stroke-width="1.5" pointer-events="none"/>
                </g>
                <g id="dirArrow">
                        <path fill="none" stroke="white" stroke-width="1.5" d="M0,-3.0v7 M-2.5,-0.5L0,-3.0L2.5,-0.5"/>
                </g>
               <g id="resetDef">
                       <use xlink:href="#rim2" fill="#404040">
                               <set attributeName="fill" to="#808080" begin="reset.mouseover" end="reset.mouseout"/>
                       </use>
               </g>
        </defs>

<script type="text/javascript">
var viewWidth = 591;
var viewHeight = 282;
var sectionId = 'dynsection-1';
</script>
<script xlink:href="../../svgpan.js"/>
<svg id="graph" class="graph">
<g id="viewport">
<title>G</title>
<polygon fill="white" stroke="white" points="-4,5 -4,-278 588,-278 588,5 -4,5"/>
<!-- Node1 -->
<g id="node1" class="node"><title>Node1</title>
<polygon fill="#bfbfbf" stroke="black" points="332.5,-0.5 332.5,-21.5 563.5,-21.5 563.5,-0.5 332.5,-0.5"/>
<text text-anchor="middle" x="448" y="-8.5" font-family="Helvetica,sans-Serif" font-size="10.00">mozilla::layers::TiledDeprecatedTextureHostOGL</text>
</g>
<!-- Node2 -->
<g id="node2" class="node"><title>Node2</title>
<a xlink:href="../../d0/d12/classmozilla_1_1layers_1_1_deprecated_texture_host.html" target="_top" xlink:title="mozilla::layers::DeprecatedTextureHost">
<polygon fill="white" stroke="black" points="205,-60.5 205,-81.5 395,-81.5 395,-60.5 205,-60.5"/>
<text text-anchor="middle" x="300" y="-68.5" font-family="Helvetica,sans-Serif" font-size="10.00">mozilla::layers::DeprecatedTextureHost</text>
</a>
</g>
<!-- Node2&#45;&gt;Node1 -->
<g id="edge2" class="edge"><title>Node2&#45;&gt;Node1</title>
<path fill="none" stroke="midnightblue" d="M335.433,-56.6353C361.944,-45.8875 397.622,-31.4237 421.645,-21.6846"/>
<polygon fill="midnightblue" stroke="midnightblue" points="334.071,-53.4106 326.119,-60.4113 336.701,-59.8978 334.071,-53.4106"/>
</g>
<!-- Node3 -->
<g id="node4" class="node"><title>Node3</title>
<a xlink:href="../../dc/d92/classmozilla_1_1layers_1_1_texture_source.html" target="_top" xlink:title="mozilla::layers::TextureSource">
<polygon fill="white" stroke="black" points="96.5,-132.5 96.5,-153.5 245.5,-153.5 245.5,-132.5 96.5,-132.5"/>
<text text-anchor="middle" x="171" y="-140.5" font-family="Helvetica,sans-Serif" font-size="10.00">mozilla::layers::TextureSource</text>
</a>
</g>
<!-- Node3&#45;&gt;Node2 -->
<g id="edge4" class="edge"><title>Node3&#45;&gt;Node2</title>
<path fill="none" stroke="midnightblue" d="M198.951,-127.399C223.722,-113.574 259.227,-93.7568 280.888,-81.6674"/>
<polygon fill="midnightblue" stroke="midnightblue" points="197.061,-124.446 190.034,-132.376 200.472,-130.559 197.061,-124.446"/>
</g>
<!-- Node4 -->
<g id="node6" class="node"><title>Node4</title>
<a xlink:href="../../d2/de4/classmozilla_1_1_ref_counted.html" target="_top" xlink:title="mozilla::RefCounted\&lt; TextureSource \&gt;">
<polygon fill="white" stroke="black" points="77,-192.5 77,-213.5 265,-213.5 265,-192.5 77,-192.5"/>
<text text-anchor="middle" x="171" y="-200.5" font-family="Helvetica,sans-Serif" font-size="10.00">mozilla::RefCounted&lt; TextureSource &gt;</text>
</a>
</g>
<!-- Node4&#45;&gt;Node3 -->
<g id="edge6" class="edge"><title>Node4&#45;&gt;Node3</title>
<path fill="none" stroke="midnightblue" d="M171,-182.231C171,-172.592 171,-161.544 171,-153.634"/>
<polygon fill="midnightblue" stroke="midnightblue" points="167.5,-182.273 171,-192.273 174.5,-182.273 167.5,-182.273"/>
</g>
<!-- Node5 -->
<g id="node8" class="node"><title>Node5</title>
<a xlink:href="../../df/d3c/classmozilla_1_1detail_1_1_ref_counted.html" target="_top" xlink:title="mozilla::detail::RefCounted\&lt; TextureSource, detail::NonAtomicRefCount \&gt;">
<polygon fill="white" stroke="black" points="-0.5,-252.5 -0.5,-273.5 342.5,-273.5 342.5,-252.5 -0.5,-252.5"/>
<text text-anchor="middle" x="171" y="-260.5" font-family="Helvetica,sans-Serif" font-size="10.00">mozilla::detail::RefCounted&lt; TextureSource, detail::NonAtomicRefCount &gt;</text>
</a>
</g>
<!-- Node5&#45;&gt;Node4 -->
<g id="edge8" class="edge"><title>Node5&#45;&gt;Node4</title>
<path fill="none" stroke="midnightblue" d="M171,-242.231C171,-232.592 171,-221.544 171,-213.634"/>
<polygon fill="midnightblue" stroke="midnightblue" points="167.5,-242.273 171,-252.273 174.5,-242.273 167.5,-242.273"/>
</g>
<!-- Node6 -->
<g id="node10" class="node"><title>Node6</title>
<a xlink:href="../../dd/d26/classmozilla_1_1layers_1_1_i_surface_allocator.html" target="_top" xlink:title="mozilla::layers::ISurfaceAllocator">
<polygon fill="white" stroke="black" points="262.5,-132.5 262.5,-153.5 423.5,-153.5 423.5,-132.5 262.5,-132.5"/>
<text text-anchor="middle" x="343" y="-140.5" font-family="Helvetica,sans-Serif" font-size="10.00">mozilla::layers::ISurfaceAllocator</text>
</a>
</g>
<!-- Node6&#45;&gt;Node2 -->
<g id="edge10" class="edge"><title>Node6&#45;&gt;Node2</title>
<path fill="none" stroke="#9a32cd" stroke-dasharray="5,2" d="M331.306,-123.419C323.276,-109.973 312.923,-92.6384 306.371,-81.6674"/>
<polygon fill="#9a32cd" stroke="#9a32cd" points="328.523,-125.585 336.655,-132.376 334.533,-121.996 328.523,-125.585"/>
<text text-anchor="middle" x="357.5" y="-104.5" font-family="Helvetica,sans-Serif" font-size="10.00"> mDeAllocator</text>
</g>
<!-- Node7 -->
<g id="node12" class="node"><title>Node7</title>
<a xlink:href="../../d1/db2/classmozilla_1_1layers_1_1_texture_source_o_g_l.html" target="_top" xlink:title="mozilla::layers::TextureSourceOGL">
<polygon fill="white" stroke="black" points="413,-60.5 413,-81.5 583,-81.5 583,-60.5 413,-60.5"/>
<text text-anchor="middle" x="498" y="-68.5" font-family="Helvetica,sans-Serif" font-size="10.00">mozilla::layers::TextureSourceOGL</text>
</a>
</g>
<!-- Node7&#45;&gt;Node1 -->
<g id="edge12" class="edge"><title>Node7&#45;&gt;Node1</title>
<path fill="none" stroke="midnightblue" d="M482.485,-52.3819C474.061,-42.273 463.95,-30.1398 456.862,-21.6339"/>
<polygon fill="midnightblue" stroke="midnightblue" points="479.97,-54.8316 489.061,-60.2732 485.348,-50.3503 479.97,-54.8316"/>
</g>
</g>
</svg>
        <g id="navigator" transform="translate(0 0)" fill="#404254">
                <rect fill="#f2f5e9" fill-opacity="0.5" stroke="#606060" stroke-width=".5" x="0" y="0" width="60" height="60"/>
                <use id="zoomplus" xlink:href="#zoomPlus" x="17" y="9" onmousedown="handleZoom(evt,'in')"/>
                <use id="zoomminus" xlink:href="#zoomMin" x="42" y="9" onmousedown="handleZoom(evt,'out')"/>
                <use id="reset" xlink:href="#resetDef" x="30" y="36" onmousedown="handleReset()"/>
                <g id="arrowUp" xlink:href="#dirArrow" transform="translate(30 24)" onmousedown="handlePan(0,-1)">
                  <use xlink:href="#rim" fill="#404040">
                        <set attributeName="fill" to="#808080" begin="arrowUp.mouseover" end="arrowUp.mouseout"/>
                  </use>
                  <path fill="none" stroke="white" stroke-width="1.5" d="M0,-3.0v7 M-2.5,-0.5L0,-3.0L2.5,-0.5"/>
                </g>
                <g id="arrowRight" xlink:href="#dirArrow" transform="rotate(90) translate(36 -43)" onmousedown="handlePan(1,0)">
                  <use xlink:href="#rim" fill="#404040">
                        <set attributeName="fill" to="#808080" begin="arrowRight.mouseover" end="arrowRight.mouseout"/>
                  </use>
                  <path fill="none" stroke="white" stroke-width="1.5" d="M0,-3.0v7 M-2.5,-0.5L0,-3.0L2.5,-0.5"/>
                </g>
                <g id="arrowDown" xlink:href="#dirArrow" transform="rotate(180) translate(-30 -48)" onmousedown="handlePan(0,1)">
                  <use xlink:href="#rim" fill="#404040">
                        <set attributeName="fill" to="#808080" begin="arrowDown.mouseover" end="arrowDown.mouseout"/>
                  </use>
                  <path fill="none" stroke="white" stroke-width="1.5" d="M0,-3.0v7 M-2.5,-0.5L0,-3.0L2.5,-0.5"/>
                </g>
                <g id="arrowLeft" xlink:href="#dirArrow" transform="rotate(270) translate(-36 17)" onmousedown="handlePan(-1,0)">
                  <use xlink:href="#rim" fill="#404040">
                        <set attributeName="fill" to="#808080" begin="arrowLeft.mouseover" end="arrowLeft.mouseout"/>
                  </use>
                  <path fill="none" stroke="white" stroke-width="1.5" d="M0,-3.0v7 M-2.5,-0.5L0,-3.0L2.5,-0.5"/>
                </g>
        </g>
</svg>
