<?xml version="1.0" encoding="UTF-8" standalone="no"?>
<!DOCTYPE svg PUBLIC "-//W3C//DTD SVG 1.1//EN"
 "http://www.w3.org/Graphics/SVG/1.1/DTD/svg11.dtd">
<!-- Generated by graphviz version 2.26.3 (20100126.1600)
 -->
<!-- Title: G Pages: 1 -->
<svg width="330pt" height="30pt"
 viewBox="0.00 0.00 330.00 30.00" xmlns="http://www.w3.org/2000/svg" xmlns:xlink="http://www.w3.org/1999/xlink">
<g id="graph1" class="graph" transform="scale(1 1) rotate(0) translate(4 26)">
<title>G</title>
<polygon fill="white" stroke="white" points="-4,5 -4,-26 327,-26 327,5 -4,5"/>
<!-- Node1 -->
<g id="node1" class="node"><title>Node1</title>
<polygon fill="#bfbfbf" stroke="black" points="0.5,-0.5 0.5,-21.5 123.5,-21.5 123.5,-0.5 0.5,-0.5"/>
<text text-anchor="middle" x="62" y="-8.5" font-family="Helvetica,sans-Serif" font-size="10.00">xpt.M_add_class_attribs</text>
</g>
<!-- Node2 -->
<g id="node3" class="node"><title>Node2</title>
<a xlink:href="../../db/dc1/namespacexpt.html#a17cff18a1a6441f4466f5bd1eb6c9515" target="_top" xlink:title="xpt.enum">
<polygon fill="white" stroke="black" points="160.5,-0.5 160.5,-21.5 217.5,-21.5 217.5,-0.5 160.5,-0.5"/>
<text text-anchor="middle" x="189" y="-8.5" font-family="Helvetica,sans-Serif" font-size="10.00">xpt.enum</text>
</a>
</g>
<!-- Node1&#45;&gt;Node2 -->
<g id="edge2" class="edge"><title>Node1&#45;&gt;Node2</title>
<path fill="none" stroke="midnightblue" d="M133.895,-11C143.293,-11 152.441,-11 160.496,-11"/>
<polygon fill="midnightblue" stroke="midnightblue" points="133.64,-7.5001 123.64,-11 133.64,-14.5001 133.64,-7.5001"/>
</g>
<!-- Node3 -->
<g id="node5" class="node"><title>Node3</title>
<a xlink:href="../../db/dc1/namespacexpt.html#a28c22dcaf94a6f6062626162fd4ceac9" target="_top" xlink:title="xpt.xpt_link">
<polygon fill="white" stroke="black" points="254.5,-0.5 254.5,-21.5 321.5,-21.5 321.5,-0.5 254.5,-0.5"/>
<text text-anchor="middle" x="288" y="-8.5" font-family="Helvetica,sans-Serif" font-size="10.00">xpt.xpt_link</text>
</a>
</g>
<!-- Node2&#45;&gt;Node3 -->
<g id="edge4" class="edge"><title>Node2&#45;&gt;Node3</title>
<path fill="none" stroke="midnightblue" d="M227.918,-11C236.595,-11 245.728,-11 254.181,-11"/>
<polygon fill="midnightblue" stroke="midnightblue" points="227.635,-7.5001 217.635,-11 227.635,-14.5001 227.635,-7.5001"/>
</g>
</g>
</svg>
