<?xml version="1.0" encoding="UTF-8" standalone="no"?>
<!DOCTYPE svg PUBLIC "-//W3C//DTD SVG 1.1//EN"
 "http://www.w3.org/Graphics/SVG/1.1/DTD/svg11.dtd">
<!-- Generated by graphviz version 2.26.3 (20100126.1600)
 -->
<!-- Title: G Pages: 1 -->
<svg width="160pt" height="162pt"
 viewBox="0.00 0.00 160.00 162.00" xmlns="http://www.w3.org/2000/svg" xmlns:xlink="http://www.w3.org/1999/xlink">
<g id="graph1" class="graph" transform="scale(1 1) rotate(0) translate(4 158)">
<title>G</title>
<polygon fill="white" stroke="white" points="-4,5 -4,-158 157,-158 157,5 -4,5"/>
<!-- Node1 -->
<g id="node1" class="node"><title>Node1</title>
<polygon fill="#bfbfbf" stroke="black" points="0,-0.5 0,-21.5 102,-21.5 102,-0.5 0,-0.5"/>
<text text-anchor="middle" x="51" y="-8.5" font-family="Helvetica,sans-Serif" font-size="10.00">extISessionStorage</text>
</g>
<!-- Node2 -->
<g id="node2" class="node"><title>Node2</title>
<a xlink:href="../../d4/d6a/classns_i_supports.html" target="_top" xlink:title="nsISupports">
<polygon fill="white" stroke="black" points="44.5,-132.5 44.5,-153.5 113.5,-153.5 113.5,-132.5 44.5,-132.5"/>
<text text-anchor="middle" x="79" y="-140.5" font-family="Helvetica,sans-Serif" font-size="10.00">nsISupports</text>
</a>
</g>
<!-- Node2&#45;&gt;Node1 -->
<g id="edge2" class="edge"><title>Node2&#45;&gt;Node1</title>
<path fill="none" stroke="midnightblue" d="M69.587,-122.456C60.9399,-93.9515 50.6197,-43.4497 49.3667,-21.5825"/>
<polygon fill="midnightblue" stroke="midnightblue" points="66.3432,-123.795 72.7968,-132.198 72.9916,-121.605 66.3432,-123.795"/>
</g>
<!-- Node2&#45;&gt;Node1 -->
<g id="edge4" class="edge"><title>Node2&#45;&gt;Node1</title>
<path fill="none" stroke="midnightblue" d="M79.6513,-122.078C76.1539,-93.5071 65.1114,-43.3534 57.1228,-21.5825"/>
<polygon fill="midnightblue" stroke="midnightblue" points="76.183,-122.577 80.6205,-132.198 83.1511,-121.91 76.183,-122.577"/>
</g>
<!-- Node3 -->
<g id="node5" class="node"><title>Node3</title>
<a xlink:href="../../d0/d4e/interfaceext_i_events.html" target="_top" xlink:title="extIEvents">
<polygon fill="white" stroke="black" points="88,-72.5 88,-93.5 152,-93.5 152,-72.5 88,-72.5"/>
<text text-anchor="middle" x="120" y="-80.5" font-family="Helvetica,sans-Serif" font-size="10.00">extIEvents</text>
</a>
</g>
<!-- Node2&#45;&gt;Node3 -->
<g id="edge8" class="edge"><title>Node2&#45;&gt;Node3</title>
<path fill="none" stroke="midnightblue" d="M85.9769,-123.467C92.0073,-113.548 100.335,-101.885 107.434,-93.6339"/>
<polygon fill="midnightblue" stroke="midnightblue" points="82.8746,-121.843 81.0141,-132.273 88.9729,-125.28 82.8746,-121.843"/>
</g>
<!-- Node2&#45;&gt;Node3 -->
<g id="edge10" class="edge"><title>Node2&#45;&gt;Node3</title>
<path fill="none" stroke="midnightblue" d="M98.0206,-124.382C105.769,-114.273 113.727,-102.14 118.033,-93.6339"/>
<polygon fill="midnightblue" stroke="midnightblue" points="95.2072,-122.295 91.6459,-132.273 100.652,-126.694 95.2072,-122.295"/>
</g>
<!-- Node3&#45;&gt;Node1 -->
<g id="edge6" class="edge"><title>Node3&#45;&gt;Node1</title>
<path fill="none" stroke="#9a32cd" stroke-dasharray="5,2" d="M102.719,-64.9677C89.649,-51.3294 72.1451,-33.0644 61.223,-21.6674"/>
<polygon fill="#9a32cd" stroke="#9a32cd" points="100.373,-67.5779 109.819,-72.3762 105.427,-62.7346 100.373,-67.5779"/>
<text text-anchor="middle" x="107.5" y="-44.5" font-family="Helvetica,sans-Serif" font-size="10.00"> events</text>
</g>
</g>
</svg>
