<?xml version="1.0" encoding="UTF-8" standalone="no"?>
<!DOCTYPE svg PUBLIC "-//W3C//DTD SVG 1.1//EN"
 "http://www.w3.org/Graphics/SVG/1.1/DTD/svg11.dtd">
<!-- Generated by graphviz version 2.26.3 (20100126.1600)
 -->
<!-- Title: G Pages: 1 -->
<svg width="498pt" height="146pt"
 viewBox="0.00 0.00 498.00 146.00" xmlns="http://www.w3.org/2000/svg" xmlns:xlink="http://www.w3.org/1999/xlink">
<g id="graph1" class="graph" transform="scale(1 1) rotate(0) translate(4 142)">
<title>G</title>
<polygon fill="white" stroke="white" points="-4,5 -4,-142 495,-142 495,5 -4,5"/>
<!-- Node1 -->
<g id="node1" class="node"><title>Node1</title>
<polygon fill="#bfbfbf" stroke="black" points="220,-58.5 220,-79.5 290,-79.5 290,-58.5 220,-58.5"/>
<text text-anchor="middle" x="255" y="-66.5" font-family="Helvetica,sans-Serif" font-size="10.00">SkWStream</text>
</g>
<!-- Node3 -->
<g id="node5" class="node"><title>Node3</title>
<a xlink:href="../../d5/da2/class_sk_debug_w_stream.html" target="_top" xlink:title="SkDebugWStream">
<polygon fill="white" stroke="black" points="0,-0.5 0,-21.5 98,-21.5 98,-0.5 0,-0.5"/>
<text text-anchor="middle" x="49" y="-8.5" font-family="Helvetica,sans-Serif" font-size="10.00">SkDebugWStream</text>
</a>
</g>
<!-- Node1&#45;&gt;Node3 -->
<g id="edge4" class="edge"><title>Node1&#45;&gt;Node3</title>
<path fill="none" stroke="midnightblue" d="M209.569,-56.2086C172.583,-45.7953 121.009,-31.2744 86.3843,-21.5257"/>
<polygon fill="midnightblue" stroke="midnightblue" points="209.013,-59.6882 219.587,-59.0294 210.91,-52.9502 209.013,-59.6882"/>
</g>
<!-- Node4 -->
<g id="node7" class="node"><title>Node4</title>
<a xlink:href="../../df/db0/class_sk_dynamic_memory_w_stream.html" target="_top" xlink:title="SkDynamicMemoryWStream">
<polygon fill="white" stroke="black" points="116,-0.5 116,-21.5 260,-21.5 260,-0.5 116,-0.5"/>
<text text-anchor="middle" x="188" y="-8.5" font-family="Helvetica,sans-Serif" font-size="10.00">SkDynamicMemoryWStream</text>
</a>
</g>
<!-- Node1&#45;&gt;Node4 -->
<g id="edge6" class="edge"><title>Node1&#45;&gt;Node4</title>
<path fill="none" stroke="midnightblue" d="M235.005,-51.6908C223.694,-41.8996 209.917,-29.973 200.211,-21.5707"/>
<polygon fill="midnightblue" stroke="midnightblue" points="232.86,-54.4631 242.711,-58.3619 237.441,-49.1706 232.86,-54.4631"/>
</g>
<!-- Node5 -->
<g id="node9" class="node"><title>Node5</title>
<a xlink:href="../../d2/d85/class_sk_f_i_l_e_w_stream.html" target="_top" xlink:title="SkFILEWStream">
<polygon fill="white" stroke="black" points="277.5,-0.5 277.5,-21.5 368.5,-21.5 368.5,-0.5 277.5,-0.5"/>
<text text-anchor="middle" x="323" y="-8.5" font-family="Helvetica,sans-Serif" font-size="10.00">SkFILEWStream</text>
</a>
</g>
<!-- Node1&#45;&gt;Node5 -->
<g id="edge8" class="edge"><title>Node1&#45;&gt;Node5</title>
<path fill="none" stroke="midnightblue" d="M275.294,-51.6908C286.773,-41.8996 300.756,-29.973 310.607,-21.5707"/>
<polygon fill="midnightblue" stroke="midnightblue" points="272.809,-49.2095 267.472,-58.3619 277.352,-54.5353 272.809,-49.2095"/>
</g>
<!-- Node6 -->
<g id="node11" class="node"><title>Node6</title>
<a xlink:href="../../db/d9d/class_sk_memory_w_stream.html" target="_top" xlink:title="SkMemoryWStream">
<polygon fill="white" stroke="black" points="385.5,-0.5 385.5,-21.5 490.5,-21.5 490.5,-0.5 385.5,-0.5"/>
<text text-anchor="middle" x="438" y="-8.5" font-family="Helvetica,sans-Serif" font-size="10.00">SkMemoryWStream</text>
</a>
</g>
<!-- Node1&#45;&gt;Node6 -->
<g id="edge10" class="edge"><title>Node1&#45;&gt;Node6</title>
<path fill="none" stroke="midnightblue" d="M297.87,-55.4127C330.52,-45.0646 374.815,-31.0258 404.798,-21.5231"/>
<polygon fill="midnightblue" stroke="midnightblue" points="296.615,-52.1388 288.14,-58.4966 298.73,-58.8117 296.615,-52.1388"/>
</g>
<!-- Node2 -->
<g id="node2" class="node"><title>Node2</title>
<a xlink:href="../../d2/ddd/class_sk_noncopyable.html" target="_top" xlink:title="SkNoncopyable">
<polygon fill="white" stroke="black" points="212,-116.5 212,-137.5 298,-137.5 298,-116.5 212,-116.5"/>
<text text-anchor="middle" x="255" y="-124.5" font-family="Helvetica,sans-Serif" font-size="10.00">SkNoncopyable</text>
</a>
</g>
<!-- Node2&#45;&gt;Node1 -->
<g id="edge2" class="edge"><title>Node2&#45;&gt;Node1</title>
<path fill="none" stroke="#8b1a1a" d="M255,-106.191C255,-97.1684 255,-86.9941 255,-79.5707"/>
<polygon fill="#8b1a1a" stroke="#8b1a1a" points="251.5,-106.362 255,-116.362 258.5,-106.362 251.5,-106.362"/>
</g>
</g>
</svg>
