<?xml version="1.0" encoding="UTF-8" standalone="no"?>
<!DOCTYPE svg PUBLIC "-//W3C//DTD SVG 1.1//EN"
 "http://www.w3.org/Graphics/SVG/1.1/DTD/svg11.dtd">
<!-- Generated by graphviz version 2.26.3 (20100126.1600)
 -->
<!-- Title: G Pages: 1 -->
<svg width="344pt" height="204pt"
 viewBox="0.00 0.00 344.00 204.00" xmlns="http://www.w3.org/2000/svg" xmlns:xlink="http://www.w3.org/1999/xlink">
<g id="graph1" class="graph" transform="scale(1 1) rotate(0) translate(4 200)">
<title>G</title>
<polygon fill="white" stroke="white" points="-4,5 -4,-200 341,-200 341,5 -4,5"/>
<!-- Node1 -->
<g id="node1" class="node"><title>Node1</title>
<polygon fill="#bfbfbf" stroke="black" points="0,-174.5 0,-195.5 336,-195.5 336,-174.5 0,-174.5"/>
<text text-anchor="middle" x="168" y="-182.5" font-family="Helvetica,sans-Serif" font-size="10.00">/home/aoi/Documents/FxOS/B2G/gaia/xulrunner&#45;sdk/include/cairo/cairo.h</text>
</g>
<!-- Node2 -->
<g id="node3" class="node"><title>Node2</title>
<a xlink:href="../../d0/d1f/cairo-version_8h.html" target="_top" xlink:title="cairo&#45;version.h">
<polygon fill="white" stroke="black" points="28,-116.5 28,-137.5 108,-137.5 108,-116.5 28,-116.5"/>
<text text-anchor="middle" x="68" y="-124.5" font-family="Helvetica,sans-Serif" font-size="10.00">cairo&#45;version.h</text>
</a>
</g>
<!-- Node1&#45;&gt;Node2 -->
<g id="edge2" class="edge"><title>Node1&#45;&gt;Node2</title>
<path fill="none" stroke="midnightblue" d="M149.658,-174.362C134.434,-165.532 112.559,-152.844 95.28,-142.822"/>
<polygon fill="midnightblue" stroke="midnightblue" points="96.6316,-139.56 86.2253,-137.571 93.1196,-145.615 96.6316,-139.56"/>
</g>
<!-- Node3 -->
<g id="node5" class="node"><title>Node3</title>
<a xlink:href="../../d2/df9/cairo-features_8h.html" target="_top" xlink:title="cairo&#45;features.h">
<polygon fill="white" stroke="black" points="126,-116.5 126,-137.5 210,-137.5 210,-116.5 126,-116.5"/>
<text text-anchor="middle" x="168" y="-124.5" font-family="Helvetica,sans-Serif" font-size="10.00">cairo&#45;features.h</text>
</a>
</g>
<!-- Node1&#45;&gt;Node3 -->
<g id="edge4" class="edge"><title>Node1&#45;&gt;Node3</title>
<path fill="none" stroke="midnightblue" d="M168,-174.362C168,-166.922 168,-156.743 168,-147.728"/>
<polygon fill="midnightblue" stroke="midnightblue" points="171.5,-147.571 168,-137.571 164.5,-147.571 171.5,-147.571"/>
</g>
<!-- Node6 -->
<g id="node11" class="node"><title>Node6</title>
<a xlink:href="../../dc/d22/cairo-deprecated_8h.html" target="_top" xlink:title="cairo&#45;deprecated.h">
<polygon fill="white" stroke="black" points="227.5,-116.5 227.5,-137.5 324.5,-137.5 324.5,-116.5 227.5,-116.5"/>
<text text-anchor="middle" x="276" y="-124.5" font-family="Helvetica,sans-Serif" font-size="10.00">cairo&#45;deprecated.h</text>
</a>
</g>
<!-- Node1&#45;&gt;Node6 -->
<g id="edge10" class="edge"><title>Node1&#45;&gt;Node6</title>
<path fill="none" stroke="midnightblue" d="M187.558,-174.497C204.198,-165.56 228.327,-152.602 247.18,-142.477"/>
<polygon fill="midnightblue" stroke="midnightblue" points="249.069,-145.436 256.223,-137.621 245.757,-139.269 249.069,-145.436"/>
</g>
<!-- Node4 -->
<g id="node7" class="node"><title>Node4</title>
<a xlink:href="../../df/d04/cairo-platform_8h.html" target="_top" xlink:title="cairo&#45;platform.h">
<polygon fill="white" stroke="black" points="126,-58.5 126,-79.5 210,-79.5 210,-58.5 126,-58.5"/>
<text text-anchor="middle" x="168" y="-66.5" font-family="Helvetica,sans-Serif" font-size="10.00">cairo&#45;platform.h</text>
</a>
</g>
<!-- Node3&#45;&gt;Node4 -->
<g id="edge6" class="edge"><title>Node3&#45;&gt;Node4</title>
<path fill="none" stroke="midnightblue" d="M168,-116.362C168,-108.922 168,-98.7427 168,-89.7276"/>
<polygon fill="midnightblue" stroke="midnightblue" points="171.5,-89.5706 168,-79.5707 164.5,-89.5707 171.5,-89.5706"/>
</g>
<!-- Node5 -->
<g id="node9" class="node"><title>Node5</title>
<a xlink:href="../../d7/d7e/prcpucfg_8h.html" target="_top" xlink:title="prcpucfg.h">
<polygon fill="white" stroke="black" points="137,-0.5 137,-21.5 199,-21.5 199,-0.5 137,-0.5"/>
<text text-anchor="middle" x="168" y="-8.5" font-family="Helvetica,sans-Serif" font-size="10.00">prcpucfg.h</text>
</a>
</g>
<!-- Node4&#45;&gt;Node5 -->
<g id="edge8" class="edge"><title>Node4&#45;&gt;Node5</title>
<path fill="none" stroke="midnightblue" d="M168,-58.3619C168,-50.9219 168,-40.7427 168,-31.7276"/>
<polygon fill="midnightblue" stroke="midnightblue" points="171.5,-31.5706 168,-21.5707 164.5,-31.5707 171.5,-31.5706"/>
</g>
</g>
</svg>
