<?xml version="1.0" encoding="UTF-8" standalone="no"?>
<!DOCTYPE svg PUBLIC "-//W3C//DTD SVG 1.1//EN"
 "http://www.w3.org/Graphics/SVG/1.1/DTD/svg11.dtd">
<!-- Generated by graphviz version 2.26.3 (20100126.1600)
 -->
<!-- Title: G Pages: 1 -->
<svg width="306pt" height="30pt"
 viewBox="0.00 0.00 306.00 30.00" xmlns="http://www.w3.org/2000/svg" xmlns:xlink="http://www.w3.org/1999/xlink">
<g id="graph1" class="graph" transform="scale(1 1) rotate(0) translate(4 26)">
<title>G</title>
<polygon fill="white" stroke="white" points="-4,5 -4,-26 303,-26 303,5 -4,5"/>
<!-- Node1 -->
<g id="node1" class="node"><title>Node1</title>
<polygon fill="#bfbfbf" stroke="black" points="0.5,-0.5 0.5,-21.5 77.5,-21.5 77.5,-0.5 0.5,-0.5"/>
<text text-anchor="middle" x="39" y="-8.5" font-family="Helvetica,sans-Serif" font-size="10.00">Key::ToString</text>
</g>
<!-- Node2 -->
<g id="node3" class="node"><title>Node2</title>
<a xlink:href="../../df/df7/class_key.html#aa17ee44b0e909a94b9aa45e5d89755b7" target="_top" xlink:title="Key::IsString">
<polygon fill="white" stroke="black" points="114,-0.5 114,-21.5 188,-21.5 188,-0.5 114,-0.5"/>
<text text-anchor="middle" x="151" y="-8.5" font-family="Helvetica,sans-Serif" font-size="10.00">Key::IsString</text>
</a>
</g>
<!-- Node1&#45;&gt;Node2 -->
<g id="edge2" class="edge"><title>Node1&#45;&gt;Node2</title>
<path fill="none" stroke="midnightblue" d="M77.544,-11C86.0033,-11 95.0531,-11 103.808,-11"/>
<polygon fill="midnightblue" stroke="midnightblue" points="103.898,-14.5001 113.898,-11 103.898,-7.5001 103.898,-14.5001"/>
</g>
<!-- Node3 -->
<g id="node5" class="node"><title>Node3</title>
<a xlink:href="../../df/df7/class_key.html#ac2a3fd749820298152024efa2223882a" target="_top" xlink:title="Key::IsUnset">
<polygon fill="white" stroke="black" points="224,-0.5 224,-21.5 298,-21.5 298,-0.5 224,-0.5"/>
<text text-anchor="middle" x="261" y="-8.5" font-family="Helvetica,sans-Serif" font-size="10.00">Key::IsUnset</text>
</a>
</g>
<!-- Node2&#45;&gt;Node3 -->
<g id="edge4" class="edge"><title>Node2&#45;&gt;Node3</title>
<path fill="none" stroke="midnightblue" d="M188.241,-11C196.394,-11 205.131,-11 213.62,-11"/>
<polygon fill="midnightblue" stroke="midnightblue" points="213.797,-14.5001 223.797,-11 213.797,-7.5001 213.797,-14.5001"/>
</g>
</g>
</svg>
