<?xml version="1.0" encoding="UTF-8" standalone="no"?>
<!DOCTYPE svg PUBLIC "-//W3C//DTD SVG 1.1//EN"
 "http://www.w3.org/Graphics/SVG/1.1/DTD/svg11.dtd">
<!-- Generated by graphviz version 2.26.3 (20100126.1600)
 -->
<!-- Title: G Pages: 1 -->
<!--zoomable 159 -->
<svg id="main" version="1.1" xmlns="http://www.w3.org/2000/svg" xmlns:xlink="http://www.w3.org/1999/xlink" xml:space="preserve" onload="init(evt)">
        <defs>
                <circle id="rim" cx="0" cy="0" r="7"/>
                <circle id="rim2" cx="0" cy="0" r="3.5"/>
                <g id="zoomPlus">
                        <use xlink:href="#rim" fill="#404040">
                                <set attributeName="fill" to="#808080" begin="zoomplus.mouseover" end="zoomplus.mouseout"/>
                        </use>
                        <path d="M-4,0h8M0,-4v8" fill="none" stroke="white" stroke-width="1.5" pointer-events="none"/>
                </g>
                <g id="zoomMin">
                        <use xlink:href="#rim" fill="#404040">
                                <set attributeName="fill" to="#808080" begin="zoomminus.mouseover" end="zoomminus.mouseout"/>
                        </use>
                        <path d="M-4,0h8" fill="none" stroke="white" stroke-width="1.5" pointer-events="none"/>
                </g>
                <g id="dirArrow">
                        <path fill="none" stroke="white" stroke-width="1.5" d="M0,-3.0v7 M-2.5,-0.5L0,-3.0L2.5,-0.5"/>
                </g>
               <g id="resetDef">
                       <use xlink:href="#rim2" fill="#404040">
                               <set attributeName="fill" to="#808080" begin="reset.mouseover" end="reset.mouseout"/>
                       </use>
               </g>
        </defs>

<script type="text/javascript">
var viewWidth = 1194;
var viewHeight = 159;
var sectionId = 'dynsection-4';
</script>
<script xlink:href="../../svgpan.js"/>
<svg id="graph" class="graph">
<g id="viewport">
<title>G</title>
<polygon fill="white" stroke="white" points="-4,5 -4,-155 1191,-155 1191,5 -4,5"/>
<!-- Node1 -->
<g id="node1" class="node"><title>Node1</title>
<polygon fill="#bfbfbf" stroke="black" points="0,-79.5 0,-100.5 214,-100.5 214,-79.5 0,-79.5"/>
<text text-anchor="middle" x="107" y="-87.5" font-family="Helvetica,sans-Serif" font-size="10.00">mozilla::dom::DOMTransactionCallback::Call</text>
</g>
<!-- Node2 -->
<g id="node3" class="node"><title>Node2</title>
<a xlink:href="../../dd/dcd/classmozilla_1_1dom_1_1_d_o_m_transaction_callback.html#acaa431ca2a4b11666e683e15dcaf187e" target="_top" xlink:title="mozilla::dom::DOMTransactionCallback::Call">
<polygon fill="white" stroke="black" points="250,-99.5 250,-120.5 464,-120.5 464,-99.5 250,-99.5"/>
<text text-anchor="middle" x="357" y="-107.5" font-family="Helvetica,sans-Serif" font-size="10.00">mozilla::dom::DOMTransactionCallback::Call</text>
</a>
</g>
<!-- Node1&#45;&gt;Node2 -->
<g id="edge2" class="edge"><title>Node1&#45;&gt;Node2</title>
<path fill="none" stroke="midnightblue" d="M214.11,-98.5688C222.588,-99.247 231.178,-99.9342 239.719,-100.618"/>
<polygon fill="midnightblue" stroke="midnightblue" points="239.467,-104.108 249.714,-101.417 240.025,-97.1308 239.467,-104.108"/>
</g>
<!-- Node3 -->
<g id="node5" class="node"><title>Node3</title>
<a xlink:href="../../d5/dc4/classmozilla_1_1dom_1_1_callback_object.html#a8a90a2d95ada28cbfcd86096f3f3b24e" target="_top" xlink:title="mozilla::dom::CallbackObject::CallbackPreserveColor">
<polygon fill="white" stroke="black" points="500.5,-129.5 500.5,-150.5 751.5,-150.5 751.5,-129.5 500.5,-129.5"/>
<text text-anchor="middle" x="626" y="-137.5" font-family="Helvetica,sans-Serif" font-size="10.00">mozilla::dom::CallbackObject::CallbackPreserveColor</text>
</a>
</g>
<!-- Node1&#45;&gt;Node3 -->
<g id="edge24" class="edge"><title>Node1&#45;&gt;Node3</title>
<path fill="none" stroke="midnightblue" d="M136.389,-100.519C164.977,-110.201 209.851,-123.946 250,-130 329.092,-141.927 418.577,-144.73 490.403,-144.409"/>
<polygon fill="midnightblue" stroke="midnightblue" points="490.441,-147.909 500.417,-144.344 490.395,-140.909 490.441,-147.909"/>
</g>
<!-- Node5 -->
<g id="node9" class="node"><title>Node5</title>
<a xlink:href="../../df/de5/classmozilla_1_1dom_1_1_callback_object_1_1_call_setup.html#a3985d9eb3b5b1bef46e3daa3c2e7c5c5" target="_top" xlink:title="mozilla::dom::CallbackObject::CallSetup::GetContext">
<polygon fill="white" stroke="black" points="501,-89.5 501,-110.5 751,-110.5 751,-89.5 501,-89.5"/>
<text text-anchor="middle" x="626" y="-97.5" font-family="Helvetica,sans-Serif" font-size="10.00">mozilla::dom::CallbackObject::CallSetup::GetContext</text>
</a>
</g>
<!-- Node1&#45;&gt;Node5 -->
<g id="edge26" class="edge"><title>Node1&#45;&gt;Node5</title>
<path fill="none" stroke="midnightblue" d="M214.035,-88.2796C284.961,-87.5633 380.058,-87.4117 464,-90 472.697,-90.2682 481.653,-90.6171 490.679,-91.0235"/>
<polygon fill="midnightblue" stroke="midnightblue" points="490.735,-94.53 500.889,-91.5055 491.065,-87.5378 490.735,-94.53"/>
</g>
<!-- Node6 -->
<g id="node11" class="node"><title>Node6</title>
<a xlink:href="../../dd/d9c/classmozilla_1_1_error_result.html#a35d9f418a4b6bcbefcb67dda4bc7e6ee" target="_top" xlink:title="mozilla::ErrorResult::Throw">
<polygon fill="white" stroke="black" points="558,-40.5 558,-61.5 694,-61.5 694,-40.5 558,-40.5"/>
<text text-anchor="middle" x="626" y="-48.5" font-family="Helvetica,sans-Serif" font-size="10.00">mozilla::ErrorResult::Throw</text>
</a>
</g>
<!-- Node1&#45;&gt;Node6 -->
<g id="edge28" class="edge"><title>Node1&#45;&gt;Node6</title>
<path fill="none" stroke="midnightblue" d="M214.222,-81.9428C313.541,-74.4795 458.913,-63.5556 547.726,-56.8818"/>
<polygon fill="midnightblue" stroke="midnightblue" points="548.027,-60.3692 557.737,-56.1296 547.503,-53.3889 548.027,-60.3692"/>
</g>
<!-- Node2&#45;&gt;Node3 -->
<g id="edge4" class="edge"><title>Node2&#45;&gt;Node3</title>
<path fill="none" stroke="midnightblue" d="M451.461,-120.535C474.143,-123.064 498.496,-125.78 521.601,-128.357"/>
<polygon fill="midnightblue" stroke="midnightblue" points="521.44,-131.861 531.766,-129.491 522.216,-124.904 521.44,-131.861"/>
</g>
<!-- Node2&#45;&gt;Node5 -->
<g id="edge8" class="edge"><title>Node2&#45;&gt;Node5</title>
<path fill="none" stroke="midnightblue" d="M464.089,-106.019C472.818,-105.695 481.708,-105.364 490.603,-105.033"/>
<polygon fill="midnightblue" stroke="midnightblue" points="490.777,-108.529 500.64,-104.66 490.517,-101.534 490.777,-108.529"/>
</g>
<!-- Node2&#45;&gt;Node6 -->
<g id="edge10" class="edge"><title>Node2&#45;&gt;Node6</title>
<path fill="none" stroke="midnightblue" d="M405.092,-99.452C450.662,-89.4569 519.183,-74.4283 567.812,-63.7624"/>
<polygon fill="midnightblue" stroke="midnightblue" points="568.854,-67.1172 577.872,-61.556 567.354,-60.2797 568.854,-67.1172"/>
</g>
<!-- Node4 -->
<g id="node7" class="node"><title>Node4</title>
<a xlink:href="../../db/d0b/class_j_s_1_1_heap.html#ac97872f2a208107769399acb87d52426" target="_top" xlink:title="JS::Heap::address">
<polygon fill="white" stroke="black" points="843,-129.5 843,-150.5 941,-150.5 941,-129.5 843,-129.5"/>
<text text-anchor="middle" x="892" y="-137.5" font-family="Helvetica,sans-Serif" font-size="10.00">JS::Heap::address</text>
</a>
</g>
<!-- Node3&#45;&gt;Node4 -->
<g id="edge6" class="edge"><title>Node3&#45;&gt;Node4</title>
<path fill="none" stroke="midnightblue" d="M751.6,-140C779.966,-140 808.783,-140 832.867,-140"/>
<polygon fill="midnightblue" stroke="midnightblue" points="832.884,-143.5 842.884,-140 832.884,-136.5 832.884,-143.5"/>
</g>
<!-- Node7 -->
<g id="node13" class="node"><title>Node7</title>
<a xlink:href="../../dd/d9c/classmozilla_1_1_error_result.html#a3743341d1ffd2f7bbe90bba540e988fe" target="_top" xlink:title="mozilla::ErrorResult::IsJSException">
<polygon fill="white" stroke="black" points="805.5,-80.5 805.5,-101.5 978.5,-101.5 978.5,-80.5 805.5,-80.5"/>
<text text-anchor="middle" x="892" y="-88.5" font-family="Helvetica,sans-Serif" font-size="10.00">mozilla::ErrorResult::IsJSException</text>
</a>
</g>
<!-- Node6&#45;&gt;Node7 -->
<g id="edge12" class="edge"><title>Node6&#45;&gt;Node7</title>
<path fill="none" stroke="midnightblue" d="M694.156,-61.2491C730.188,-66.6674 774.627,-73.35 812.255,-79.0082"/>
<polygon fill="midnightblue" stroke="midnightblue" points="811.759,-82.4729 822.168,-80.4989 812.8,-75.5507 811.759,-82.4729"/>
</g>
<!-- Node9 -->
<g id="node17" class="node"><title>Node9</title>
<a xlink:href="../../dd/d9c/classmozilla_1_1_error_result.html#a42babe5c49a9e75f2559a69edb11e874" target="_top" xlink:title="mozilla::ErrorResult::IsNotEnoughArgsError">
<polygon fill="white" stroke="black" points="788.5,-40.5 788.5,-61.5 995.5,-61.5 995.5,-40.5 788.5,-40.5"/>
<text text-anchor="middle" x="892" y="-48.5" font-family="Helvetica,sans-Serif" font-size="10.00">mozilla::ErrorResult::IsNotEnoughArgsError</text>
</a>
</g>
<!-- Node6&#45;&gt;Node9 -->
<g id="edge16" class="edge"><title>Node6&#45;&gt;Node9</title>
<path fill="none" stroke="midnightblue" d="M694.156,-51C719.767,-51 749.626,-51 778.267,-51"/>
<polygon fill="midnightblue" stroke="midnightblue" points="778.338,-54.5001 788.338,-51 778.338,-47.5001 778.338,-54.5001"/>
</g>
<!-- Node10 -->
<g id="node20" class="node"><title>Node10</title>
<a xlink:href="../../dd/d9c/classmozilla_1_1_error_result.html#a0fb81790665001fd83bc9276c810ce4f" target="_top" xlink:title="mozilla::ErrorResult::IsTypeError">
<polygon fill="white" stroke="black" points="812,-0.5 812,-21.5 972,-21.5 972,-0.5 812,-0.5"/>
<text text-anchor="middle" x="892" y="-8.5" font-family="Helvetica,sans-Serif" font-size="10.00">mozilla::ErrorResult::IsTypeError</text>
</a>
</g>
<!-- Node6&#45;&gt;Node10 -->
<g id="edge20" class="edge"><title>Node6&#45;&gt;Node10</title>
<path fill="none" stroke="midnightblue" d="M694.156,-40.7509C730.188,-35.3326 774.627,-28.65 812.255,-22.9918"/>
<polygon fill="midnightblue" stroke="midnightblue" points="812.8,-26.4493 822.168,-21.5011 811.759,-19.5271 812.8,-26.4493"/>
</g>
<!-- Node8 -->
<g id="node15" class="node"><title>Node8</title>
<a xlink:href="../../dd/d9c/classmozilla_1_1_error_result.html#a5ec60babbb4edab5e6b4f41f2406148a" target="_top" xlink:title="mozilla::ErrorResult::ErrorCode">
<polygon fill="white" stroke="black" points="1032.5,-40.5 1032.5,-61.5 1185.5,-61.5 1185.5,-40.5 1032.5,-40.5"/>
<text text-anchor="middle" x="1109" y="-48.5" font-family="Helvetica,sans-Serif" font-size="10.00">mozilla::ErrorResult::ErrorCode</text>
</a>
</g>
<!-- Node7&#45;&gt;Node8 -->
<g id="edge14" class="edge"><title>Node7&#45;&gt;Node8</title>
<path fill="none" stroke="midnightblue" d="M949.014,-80.4905C977.558,-75.229 1012.29,-68.8268 1042.09,-63.3338"/>
<polygon fill="midnightblue" stroke="midnightblue" points="1042.79,-66.7636 1051.99,-61.5087 1041.52,-59.8796 1042.79,-66.7636"/>
</g>
<!-- Node9&#45;&gt;Node8 -->
<g id="edge18" class="edge"><title>Node9&#45;&gt;Node8</title>
<path fill="none" stroke="midnightblue" d="M995.733,-51C1004.58,-51 1013.48,-51 1022.17,-51"/>
<polygon fill="midnightblue" stroke="midnightblue" points="1022.28,-54.5001 1032.28,-51 1022.28,-47.5001 1022.28,-54.5001"/>
</g>
<!-- Node10&#45;&gt;Node8 -->
<g id="edge22" class="edge"><title>Node10&#45;&gt;Node8</title>
<path fill="none" stroke="midnightblue" d="M949.014,-21.5095C977.558,-26.771 1012.29,-33.1732 1042.09,-38.6662"/>
<polygon fill="midnightblue" stroke="midnightblue" points="1041.52,-42.1204 1051.99,-40.4913 1042.79,-35.2364 1041.52,-42.1204"/>
</g>
</g>
</svg>
        <g id="navigator" transform="translate(0 0)" fill="#404254">
                <rect fill="#f2f5e9" fill-opacity="0.5" stroke="#606060" stroke-width=".5" x="0" y="0" width="60" height="60"/>
                <use id="zoomplus" xlink:href="#zoomPlus" x="17" y="9" onmousedown="handleZoom(evt,'in')"/>
                <use id="zoomminus" xlink:href="#zoomMin" x="42" y="9" onmousedown="handleZoom(evt,'out')"/>
                <use id="reset" xlink:href="#resetDef" x="30" y="36" onmousedown="handleReset()"/>
                <g id="arrowUp" xlink:href="#dirArrow" transform="translate(30 24)" onmousedown="handlePan(0,-1)">
                  <use xlink:href="#rim" fill="#404040">
                        <set attributeName="fill" to="#808080" begin="arrowUp.mouseover" end="arrowUp.mouseout"/>
                  </use>
                  <path fill="none" stroke="white" stroke-width="1.5" d="M0,-3.0v7 M-2.5,-0.5L0,-3.0L2.5,-0.5"/>
                </g>
                <g id="arrowRight" xlink:href="#dirArrow" transform="rotate(90) translate(36 -43)" onmousedown="handlePan(1,0)">
                  <use xlink:href="#rim" fill="#404040">
                        <set attributeName="fill" to="#808080" begin="arrowRight.mouseover" end="arrowRight.mouseout"/>
                  </use>
                  <path fill="none" stroke="white" stroke-width="1.5" d="M0,-3.0v7 M-2.5,-0.5L0,-3.0L2.5,-0.5"/>
                </g>
                <g id="arrowDown" xlink:href="#dirArrow" transform="rotate(180) translate(-30 -48)" onmousedown="handlePan(0,1)">
                  <use xlink:href="#rim" fill="#404040">
                        <set attributeName="fill" to="#808080" begin="arrowDown.mouseover" end="arrowDown.mouseout"/>
                  </use>
                  <path fill="none" stroke="white" stroke-width="1.5" d="M0,-3.0v7 M-2.5,-0.5L0,-3.0L2.5,-0.5"/>
                </g>
                <g id="arrowLeft" xlink:href="#dirArrow" transform="rotate(270) translate(-36 17)" onmousedown="handlePan(-1,0)">
                  <use xlink:href="#rim" fill="#404040">
                        <set attributeName="fill" to="#808080" begin="arrowLeft.mouseover" end="arrowLeft.mouseout"/>
                  </use>
                  <path fill="none" stroke="white" stroke-width="1.5" d="M0,-3.0v7 M-2.5,-0.5L0,-3.0L2.5,-0.5"/>
                </g>
        </g>
</svg>
