<?xml version="1.0" encoding="UTF-8" standalone="no"?>
<!DOCTYPE svg PUBLIC "-//W3C//DTD SVG 1.1//EN"
 "http://www.w3.org/Graphics/SVG/1.1/DTD/svg11.dtd">
<!-- Generated by graphviz version 2.26.3 (20100126.1600)
 -->
<!-- Title: G Pages: 1 -->
<svg width="487pt" height="294pt"
 viewBox="0.00 0.00 487.00 294.00" xmlns="http://www.w3.org/2000/svg" xmlns:xlink="http://www.w3.org/1999/xlink">
<g id="graph1" class="graph" transform="scale(1 1) rotate(0) translate(4 290)">
<title>G</title>
<polygon fill="white" stroke="white" points="-4,5 -4,-290 484,-290 484,5 -4,5"/>
<!-- Node1 -->
<g id="node1" class="node"><title>Node1</title>
<polygon fill="#bfbfbf" stroke="black" points="269,-0.5 269,-21.5 413,-21.5 413,-0.5 269,-0.5"/>
<text text-anchor="middle" x="341" y="-8.5" font-family="Helvetica,sans-Serif" font-size="10.00">mozilla::dom::FocusEventInit</text>
</g>
<!-- Node2 -->
<g id="node2" class="node"><title>Node2</title>
<a xlink:href="../../d3/da5/structmozilla_1_1dom_1_1_u_i_event_init.html" target="_top" xlink:title="mozilla::dom::UIEventInit">
<polygon fill="white" stroke="black" points="145,-72.5 145,-93.5 273,-93.5 273,-72.5 145,-72.5"/>
<text text-anchor="middle" x="209" y="-80.5" font-family="Helvetica,sans-Serif" font-size="10.00">mozilla::dom::UIEventInit</text>
</a>
</g>
<!-- Node2&#45;&gt;Node1 -->
<g id="edge2" class="edge"><title>Node2&#45;&gt;Node1</title>
<path fill="none" stroke="midnightblue" d="M237.267,-67.5817C262.628,-53.7486 299.182,-33.81 321.443,-21.6674"/>
<polygon fill="midnightblue" stroke="midnightblue" points="235.58,-64.5149 228.477,-72.3762 238.932,-70.6602 235.58,-64.5149"/>
</g>
<!-- Node3 -->
<g id="node4" class="node"><title>Node3</title>
<a xlink:href="../../d8/d68/structmozilla_1_1dom_1_1_event_init.html" target="_top" xlink:title="mozilla::dom::EventInit">
<polygon fill="white" stroke="black" points="39.5,-144.5 39.5,-165.5 156.5,-165.5 156.5,-144.5 39.5,-144.5"/>
<text text-anchor="middle" x="98" y="-152.5" font-family="Helvetica,sans-Serif" font-size="10.00">mozilla::dom::EventInit</text>
</a>
</g>
<!-- Node3&#45;&gt;Node2 -->
<g id="edge4" class="edge"><title>Node3&#45;&gt;Node2</title>
<path fill="none" stroke="midnightblue" d="M122.901,-138.848C144.171,-125.051 174.163,-105.597 192.554,-93.6674"/>
<polygon fill="midnightblue" stroke="midnightblue" points="120.863,-135.998 114.378,-144.376 124.673,-141.871 120.863,-135.998"/>
</g>
<!-- Node4 -->
<g id="node6" class="node"><title>Node4</title>
<a xlink:href="../../d5/d9f/structmozilla_1_1dom_1_1_main_thread_dictionary_base.html" target="_top" xlink:title="mozilla::dom::MainThreadDictionaryBase">
<polygon fill="white" stroke="black" points="0,-204.5 0,-225.5 196,-225.5 196,-204.5 0,-204.5"/>
<text text-anchor="middle" x="98" y="-212.5" font-family="Helvetica,sans-Serif" font-size="10.00">mozilla::dom::MainThreadDictionaryBase</text>
</a>
</g>
<!-- Node4&#45;&gt;Node3 -->
<g id="edge6" class="edge"><title>Node4&#45;&gt;Node3</title>
<path fill="none" stroke="midnightblue" d="M98,-194.231C98,-184.592 98,-173.544 98,-165.634"/>
<polygon fill="midnightblue" stroke="midnightblue" points="94.5001,-194.273 98,-204.273 101.5,-194.273 94.5001,-194.273"/>
</g>
<!-- Node5 -->
<g id="node8" class="node"><title>Node5</title>
<a xlink:href="../../d6/d60/structmozilla_1_1dom_1_1_dictionary_base.html" target="_top" xlink:title="mozilla::dom::DictionaryBase">
<polygon fill="white" stroke="black" points="25.5,-264.5 25.5,-285.5 170.5,-285.5 170.5,-264.5 25.5,-264.5"/>
<text text-anchor="middle" x="98" y="-272.5" font-family="Helvetica,sans-Serif" font-size="10.00">mozilla::dom::DictionaryBase</text>
</a>
</g>
<!-- Node5&#45;&gt;Node4 -->
<g id="edge8" class="edge"><title>Node5&#45;&gt;Node4</title>
<path fill="none" stroke="midnightblue" d="M98,-254.231C98,-244.592 98,-233.544 98,-225.634"/>
<polygon fill="midnightblue" stroke="midnightblue" points="94.5001,-254.273 98,-264.273 101.5,-254.273 94.5001,-254.273"/>
</g>
<!-- Node6 -->
<g id="node10" class="node"><title>Node6</title>
<a xlink:href="../../d0/d01/classns_ref_ptr.html" target="_top" xlink:title="nsRefPtr\&lt; nsIDOMWindow \&gt;">
<polygon fill="white" stroke="black" points="174,-144.5 174,-165.5 320,-165.5 320,-144.5 174,-144.5"/>
<text text-anchor="middle" x="247" y="-152.5" font-family="Helvetica,sans-Serif" font-size="10.00">nsRefPtr&lt; nsIDOMWindow &gt;</text>
</a>
</g>
<!-- Node6&#45;&gt;Node2 -->
<g id="edge10" class="edge"><title>Node6&#45;&gt;Node2</title>
<path fill="none" stroke="#9a32cd" stroke-dasharray="5,2" d="M236.666,-135.419C229.569,-121.973 220.42,-104.638 214.63,-93.6674"/>
<polygon fill="#9a32cd" stroke="#9a32cd" points="233.63,-137.166 241.393,-144.376 239.821,-133.899 233.63,-137.166"/>
<text text-anchor="middle" x="249" y="-116.5" font-family="Helvetica,sans-Serif" font-size="10.00"> mView</text>
</g>
<!-- Node7 -->
<g id="node12" class="node"><title>Node7</title>
<a xlink:href="../../d0/d01/classns_ref_ptr.html" target="_top" xlink:title="nsRefPtr\&lt; mozilla::dom::EventTarget \&gt;">
<polygon fill="white" stroke="black" points="291,-72.5 291,-93.5 479,-93.5 479,-72.5 291,-72.5"/>
<text text-anchor="middle" x="385" y="-80.5" font-family="Helvetica,sans-Serif" font-size="10.00">nsRefPtr&lt; mozilla::dom::EventTarget &gt;</text>
</a>
</g>
<!-- Node7&#45;&gt;Node1 -->
<g id="edge12" class="edge"><title>Node7&#45;&gt;Node1</title>
<path fill="none" stroke="#9a32cd" stroke-dasharray="5,2" d="M373.273,-63.8099C365.023,-50.3106 354.289,-32.7449 347.519,-21.6674"/>
<polygon fill="#9a32cd" stroke="#9a32cd" points="370.307,-65.6684 378.508,-72.3762 376.28,-62.0182 370.307,-65.6684"/>
<text text-anchor="middle" x="402.5" y="-44.5" font-family="Helvetica,sans-Serif" font-size="10.00"> mRelatedTarget</text>
</g>
</g>
</svg>
