<?xml version="1.0" encoding="UTF-8" standalone="no"?>
<!DOCTYPE svg PUBLIC "-//W3C//DTD SVG 1.1//EN"
 "http://www.w3.org/Graphics/SVG/1.1/DTD/svg11.dtd">
<!-- Generated by graphviz version 2.26.3 (20100126.1600)
 -->
<!-- Title: G Pages: 1 -->
<svg width="292pt" height="204pt"
 viewBox="0.00 0.00 292.00 204.00" xmlns="http://www.w3.org/2000/svg" xmlns:xlink="http://www.w3.org/1999/xlink">
<g id="graph1" class="graph" transform="scale(1 1) rotate(0) translate(4 200)">
<title>G</title>
<polygon fill="white" stroke="white" points="-4,5 -4,-200 289,-200 289,5 -4,5"/>
<!-- Node1 -->
<g id="node1" class="node"><title>Node1</title>
<polygon fill="#bfbfbf" stroke="black" points="113.5,-174.5 113.5,-195.5 196.5,-195.5 196.5,-174.5 113.5,-174.5"/>
<text text-anchor="middle" x="155" y="-182.5" font-family="Helvetica,sans-Serif" font-size="10.00">processlist.cpp</text>
</g>
<!-- Node2 -->
<g id="node3" class="node"><title>Node2</title>
<a xlink:href="../../d5/d32/processlist_8h.html" target="_top" xlink:title="processlist.h">
<polygon fill="white" stroke="black" points="0,-116.5 0,-137.5 72,-137.5 72,-116.5 0,-116.5"/>
<text text-anchor="middle" x="36" y="-124.5" font-family="Helvetica,sans-Serif" font-size="10.00">processlist.h</text>
</a>
</g>
<!-- Node1&#45;&gt;Node2 -->
<g id="edge2" class="edge"><title>Node1&#45;&gt;Node2</title>
<path fill="none" stroke="midnightblue" d="M133.45,-174.497C114.864,-165.438 87.7982,-152.246 66.9046,-142.063"/>
<polygon fill="midnightblue" stroke="midnightblue" points="68.3144,-138.856 57.7918,-137.621 65.2475,-145.149 68.3144,-138.856"/>
</g>
<!-- Node4 -->
<g id="node7" class="node"><title>Node4</title>
<a xlink:href="../../da/d42/process_8h.html" target="_top" xlink:title="process.h">
<polygon fill="white" stroke="black" points="89.5,-116.5 89.5,-137.5 148.5,-137.5 148.5,-116.5 89.5,-116.5"/>
<text text-anchor="middle" x="119" y="-124.5" font-family="Helvetica,sans-Serif" font-size="10.00">process.h</text>
</a>
</g>
<!-- Node1&#45;&gt;Node4 -->
<g id="edge6" class="edge"><title>Node1&#45;&gt;Node4</title>
<path fill="none" stroke="midnightblue" d="M148.397,-174.362C143.525,-166.513 136.762,-155.616 130.95,-146.253"/>
<polygon fill="midnightblue" stroke="midnightblue" points="133.809,-144.221 125.561,-137.571 127.861,-147.913 133.809,-144.221"/>
</g>
<!-- Node7 -->
<g id="node15" class="node"><title>Node7</title>
<polygon fill="white" stroke="#bfbfbf" points="166,-116.5 166,-137.5 218,-137.5 218,-116.5 166,-116.5"/>
<text text-anchor="middle" x="192" y="-124.5" font-family="Helvetica,sans-Serif" font-size="10.00">assert.h</text>
</g>
<!-- Node1&#45;&gt;Node7 -->
<g id="edge16" class="edge"><title>Node1&#45;&gt;Node7</title>
<path fill="none" stroke="midnightblue" d="M161.786,-174.362C166.793,-166.513 173.745,-155.616 179.718,-146.253"/>
<polygon fill="midnightblue" stroke="midnightblue" points="182.829,-147.884 185.257,-137.571 176.928,-144.119 182.829,-147.884"/>
</g>
<!-- Node8 -->
<g id="node17" class="node"><title>Node8</title>
<polygon fill="white" stroke="#bfbfbf" points="235.5,-116.5 235.5,-137.5 284.5,-137.5 284.5,-116.5 235.5,-116.5"/>
<text text-anchor="middle" x="260" y="-124.5" font-family="Helvetica,sans-Serif" font-size="10.00">dirent.h</text>
</g>
<!-- Node1&#45;&gt;Node8 -->
<g id="edge18" class="edge"><title>Node1&#45;&gt;Node8</title>
<path fill="none" stroke="midnightblue" d="M174.259,-174.362C190.466,-165.409 213.853,-152.491 232.109,-142.406"/>
<polygon fill="midnightblue" stroke="midnightblue" points="233.802,-145.47 240.863,-137.571 230.418,-139.342 233.802,-145.47"/>
</g>
<!-- Node3 -->
<g id="node5" class="node"><title>Node3</title>
<polygon fill="white" stroke="#bfbfbf" points="19,-58.5 19,-79.5 63,-79.5 63,-58.5 19,-58.5"/>
<text text-anchor="middle" x="41" y="-66.5" font-family="Helvetica,sans-Serif" font-size="10.00">vector</text>
</g>
<!-- Node2&#45;&gt;Node3 -->
<g id="edge4" class="edge"><title>Node2&#45;&gt;Node3</title>
<path fill="none" stroke="midnightblue" d="M36.9171,-116.362C37.5585,-108.922 38.436,-98.7427 39.2131,-89.7276"/>
<polygon fill="midnightblue" stroke="midnightblue" points="42.7168,-89.8343 40.0887,-79.5707 35.7427,-89.2331 42.7168,-89.8343"/>
</g>
<!-- Node4&#45;&gt;Node3 -->
<g id="edge14" class="edge"><title>Node4&#45;&gt;Node3</title>
<path fill="none" stroke="midnightblue" d="M104.694,-116.362C93.1488,-107.777 76.6996,-95.5459 63.4096,-85.6636"/>
<polygon fill="midnightblue" stroke="midnightblue" points="65.3288,-82.7291 55.2157,-79.5707 61.1519,-88.3463 65.3288,-82.7291"/>
</g>
<!-- Node5 -->
<g id="node9" class="node"><title>Node5</title>
<a xlink:href="../../d5/d60/utils_8h.html" target="_top" xlink:title="utils.h">
<polygon fill="white" stroke="black" points="91.5,-58.5 91.5,-79.5 134.5,-79.5 134.5,-58.5 91.5,-58.5"/>
<text text-anchor="middle" x="113" y="-66.5" font-family="Helvetica,sans-Serif" font-size="10.00">utils.h</text>
</a>
</g>
<!-- Node4&#45;&gt;Node5 -->
<g id="edge8" class="edge"><title>Node4&#45;&gt;Node5</title>
<path fill="none" stroke="midnightblue" d="M117.9,-116.362C117.13,-108.922 116.077,-98.7427 115.144,-89.7276"/>
<polygon fill="midnightblue" stroke="midnightblue" points="118.604,-89.1574 114.094,-79.5707 111.641,-89.8777 118.604,-89.1574"/>
</g>
<!-- Node6 -->
<g id="node11" class="node"><title>Node6</title>
<polygon fill="white" stroke="#bfbfbf" points="116.5,-0.5 116.5,-21.5 157.5,-21.5 157.5,-0.5 116.5,-0.5"/>
<text text-anchor="middle" x="137" y="-8.5" font-family="Helvetica,sans-Serif" font-size="10.00">string</text>
</g>
<!-- Node4&#45;&gt;Node6 -->
<g id="edge12" class="edge"><title>Node4&#45;&gt;Node6</title>
<path fill="none" stroke="midnightblue" d="M126.284,-116.372C132.099,-107.201 139.786,-93.3619 143,-80 146.817,-64.1333 144.9,-45.6969 142.257,-31.875"/>
<polygon fill="midnightblue" stroke="midnightblue" points="145.634,-30.9367 140.076,-21.9167 138.796,-32.4339 145.634,-30.9367"/>
</g>
<!-- Node5&#45;&gt;Node6 -->
<g id="edge10" class="edge"><title>Node5&#45;&gt;Node6</title>
<path fill="none" stroke="midnightblue" d="M117.402,-58.3619C120.582,-50.6766 124.972,-40.0686 128.79,-30.8399"/>
<polygon fill="midnightblue" stroke="midnightblue" points="132.036,-32.1491 132.626,-21.5707 125.568,-29.4726 132.036,-32.1491"/>
</g>
</g>
</svg>
