<?xml version="1.0" encoding="UTF-8" standalone="no"?>
<!DOCTYPE svg PUBLIC "-//W3C//DTD SVG 1.1//EN"
 "http://www.w3.org/Graphics/SVG/1.1/DTD/svg11.dtd">
<!-- Generated by graphviz version 2.26.3 (20100126.1600)
 -->
<!-- Title: G Pages: 1 -->
<svg width="418pt" height="70pt"
 viewBox="0.00 0.00 418.00 70.00" xmlns="http://www.w3.org/2000/svg" xmlns:xlink="http://www.w3.org/1999/xlink">
<g id="graph1" class="graph" transform="scale(1 1) rotate(0) translate(4 66)">
<title>G</title>
<polygon fill="white" stroke="white" points="-4,5 -4,-66 415,-66 415,5 -4,5"/>
<!-- Node1 -->
<g id="node1" class="node"><title>Node1</title>
<polygon fill="#bfbfbf" stroke="black" points="0,-20.5 0,-41.5 158,-41.5 158,-20.5 0,-20.5"/>
<text text-anchor="middle" x="79" y="-28.5" font-family="Helvetica,sans-Serif" font-size="10.00">nsPresContext::SetMinFontSize</text>
</g>
<!-- Node2 -->
<g id="node3" class="node"><title>Node2</title>
<a xlink:href="../../d0/d65/classns_pres_context.html#a9c74e9b7dd2fbecff542e09fb9eb02c9" target="_top" xlink:title="nsPresContext::HasCachedStyleData">
<polygon fill="white" stroke="black" points="210.5,-40.5 210.5,-61.5 393.5,-61.5 393.5,-40.5 210.5,-40.5"/>
<text text-anchor="middle" x="302" y="-48.5" font-family="Helvetica,sans-Serif" font-size="10.00">nsPresContext::HasCachedStyleData</text>
</a>
</g>
<!-- Node1&#45;&gt;Node2 -->
<g id="edge2" class="edge"><title>Node1&#45;&gt;Node2</title>
<path fill="none" stroke="midnightblue" d="M158.249,-38.1076C171.849,-39.3273 186.149,-40.6098 200.24,-41.8735"/>
<polygon fill="midnightblue" stroke="midnightblue" points="200.178,-45.3819 210.45,-42.7893 200.803,-38.4099 200.178,-45.3819"/>
</g>
<!-- Node3 -->
<g id="node5" class="node"><title>Node3</title>
<a xlink:href="../../d0/d65/classns_pres_context.html#af7091c467d1ba9bf51a3acf9589b2459" target="_top" xlink:title="nsPresContext::MediaFeatureValuesChanged">
<polygon fill="white" stroke="black" points="194,-0.5 194,-21.5 410,-21.5 410,-0.5 194,-0.5"/>
<text text-anchor="middle" x="302" y="-8.5" font-family="Helvetica,sans-Serif" font-size="10.00">nsPresContext::MediaFeatureValuesChanged</text>
</a>
</g>
<!-- Node1&#45;&gt;Node3 -->
<g id="edge4" class="edge"><title>Node1&#45;&gt;Node3</title>
<path fill="none" stroke="midnightblue" d="M158.249,-23.8924C166.527,-23.15 175.065,-22.3843 183.657,-21.6137"/>
<polygon fill="midnightblue" stroke="midnightblue" points="184.109,-25.0874 193.756,-20.708 183.483,-18.1153 184.109,-25.0874"/>
</g>
</g>
</svg>
