<?xml version="1.0" encoding="UTF-8" standalone="no"?>
<!DOCTYPE svg PUBLIC "-//W3C//DTD SVG 1.1//EN"
 "http://www.w3.org/Graphics/SVG/1.1/DTD/svg11.dtd">
<!-- Generated by graphviz version 2.26.3 (20100126.1600)
 -->
<!-- Title: G Pages: 1 -->
<svg width="406pt" height="88pt"
 viewBox="0.00 0.00 406.00 88.00" xmlns="http://www.w3.org/2000/svg" xmlns:xlink="http://www.w3.org/1999/xlink">
<g id="graph1" class="graph" transform="scale(1 1) rotate(0) translate(4 84)">
<title>G</title>
<polygon fill="white" stroke="white" points="-4,5 -4,-84 403,-84 403,5 -4,5"/>
<!-- Node1 -->
<g id="node1" class="node"><title>Node1</title>
<polygon fill="#bfbfbf" stroke="black" points="23.5,-58.5 23.5,-79.5 394.5,-79.5 394.5,-58.5 23.5,-58.5"/>
<text text-anchor="middle" x="209" y="-66.5" font-family="Helvetica,sans-Serif" font-size="10.00">/home/aoi/Documents/FxOS/B2G/gaia/xulrunner&#45;sdk/include/opentype&#45;sanitiser.h</text>
</g>
<!-- Node2 -->
<g id="node3" class="node"><title>Node2</title>
<polygon fill="white" stroke="#bfbfbf" points="0,-0.5 0,-21.5 62,-21.5 62,-0.5 0,-0.5"/>
<text text-anchor="middle" x="31" y="-8.5" font-family="Helvetica,sans-Serif" font-size="10.00">arpa/inet.h</text>
</g>
<!-- Node1&#45;&gt;Node2 -->
<g id="edge2" class="edge"><title>Node1&#45;&gt;Node2</title>
<path fill="none" stroke="midnightblue" d="M176.766,-58.4966C147.385,-48.9232 103.84,-34.7343 71.9951,-24.358"/>
<polygon fill="midnightblue" stroke="midnightblue" points="72.6922,-20.904 62.0999,-21.1337 70.5235,-27.5596 72.6922,-20.904"/>
</g>
<!-- Node3 -->
<g id="node5" class="node"><title>Node3</title>
<polygon fill="white" stroke="#bfbfbf" points="79.5,-0.5 79.5,-21.5 128.5,-21.5 128.5,-0.5 79.5,-0.5"/>
<text text-anchor="middle" x="104" y="-8.5" font-family="Helvetica,sans-Serif" font-size="10.00">stdint.h</text>
</g>
<!-- Node1&#45;&gt;Node3 -->
<g id="edge4" class="edge"><title>Node1&#45;&gt;Node3</title>
<path fill="none" stroke="midnightblue" d="M189.741,-58.3619C173.534,-49.4094 150.147,-36.4908 131.891,-26.4064"/>
<polygon fill="midnightblue" stroke="midnightblue" points="133.582,-23.3422 123.137,-21.5707 130.198,-29.4696 133.582,-23.3422"/>
</g>
<!-- Node4 -->
<g id="node7" class="node"><title>Node4</title>
<polygon fill="white" stroke="#bfbfbf" points="146,-0.5 146,-21.5 202,-21.5 202,-0.5 146,-0.5"/>
<text text-anchor="middle" x="174" y="-8.5" font-family="Helvetica,sans-Serif" font-size="10.00">algorithm</text>
</g>
<!-- Node1&#45;&gt;Node4 -->
<g id="edge6" class="edge"><title>Node1&#45;&gt;Node4</title>
<path fill="none" stroke="midnightblue" d="M202.58,-58.3619C197.844,-50.5131 191.268,-39.6159 185.618,-30.2527"/>
<polygon fill="midnightblue" stroke="midnightblue" points="188.542,-28.3242 180.379,-21.5707 182.549,-31.9409 188.542,-28.3242"/>
</g>
<!-- Node5 -->
<g id="node9" class="node"><title>Node5</title>
<polygon fill="white" stroke="#bfbfbf" points="219.5,-0.5 219.5,-21.5 268.5,-21.5 268.5,-0.5 219.5,-0.5"/>
<text text-anchor="middle" x="244" y="-8.5" font-family="Helvetica,sans-Serif" font-size="10.00">cassert</text>
</g>
<!-- Node1&#45;&gt;Node5 -->
<g id="edge8" class="edge"><title>Node1&#45;&gt;Node5</title>
<path fill="none" stroke="midnightblue" d="M215.42,-58.3619C220.156,-50.5131 226.732,-39.6159 232.382,-30.2527"/>
<polygon fill="midnightblue" stroke="midnightblue" points="235.451,-31.9409 237.621,-21.5707 229.458,-28.3242 235.451,-31.9409"/>
</g>
<!-- Node6 -->
<g id="node11" class="node"><title>Node6</title>
<polygon fill="white" stroke="#bfbfbf" points="285.5,-0.5 285.5,-21.5 334.5,-21.5 334.5,-0.5 285.5,-0.5"/>
<text text-anchor="middle" x="310" y="-8.5" font-family="Helvetica,sans-Serif" font-size="10.00">cstddef</text>
</g>
<!-- Node1&#45;&gt;Node6 -->
<g id="edge10" class="edge"><title>Node1&#45;&gt;Node6</title>
<path fill="none" stroke="midnightblue" d="M227.525,-58.3619C242.901,-49.532 264.996,-36.844 282.447,-26.8224"/>
<polygon fill="midnightblue" stroke="midnightblue" points="284.664,-29.5857 291.592,-21.5707 281.178,-23.5154 284.664,-29.5857"/>
</g>
<!-- Node7 -->
<g id="node13" class="node"><title>Node7</title>
<polygon fill="white" stroke="#bfbfbf" points="352,-0.5 352,-21.5 398,-21.5 398,-0.5 352,-0.5"/>
<text text-anchor="middle" x="375" y="-8.5" font-family="Helvetica,sans-Serif" font-size="10.00">cstring</text>
</g>
<!-- Node1&#45;&gt;Node7 -->
<g id="edge12" class="edge"><title>Node1&#45;&gt;Node7</title>
<path fill="none" stroke="midnightblue" d="M239.061,-58.4966C268.189,-48.3194 312.246,-32.9261 342.251,-22.4423"/>
<polygon fill="midnightblue" stroke="midnightblue" points="343.561,-25.6923 351.847,-19.0897 341.252,-19.0841 343.561,-25.6923"/>
</g>
</g>
</svg>
