<?xml version="1.0" encoding="UTF-8" standalone="no"?>
<!DOCTYPE svg PUBLIC "-//W3C//DTD SVG 1.1//EN"
 "http://www.w3.org/Graphics/SVG/1.1/DTD/svg11.dtd">
<!-- Generated by graphviz version 2.26.3 (20100126.1600)
 -->
<!-- Title: G Pages: 1 -->
<!--zoomable 204 -->
<svg id="main" version="1.1" xmlns="http://www.w3.org/2000/svg" xmlns:xlink="http://www.w3.org/1999/xlink" xml:space="preserve" onload="init(evt)">
        <defs>
                <circle id="rim" cx="0" cy="0" r="7"/>
                <circle id="rim2" cx="0" cy="0" r="3.5"/>
                <g id="zoomPlus">
                        <use xlink:href="#rim" fill="#404040">
                                <set attributeName="fill" to="#808080" begin="zoomplus.mouseover" end="zoomplus.mouseout"/>
                        </use>
                        <path d="M-4,0h8M0,-4v8" fill="none" stroke="white" stroke-width="1.5" pointer-events="none"/>
                </g>
                <g id="zoomMin">
                        <use xlink:href="#rim" fill="#404040">
                                <set attributeName="fill" to="#808080" begin="zoomminus.mouseover" end="zoomminus.mouseout"/>
                        </use>
                        <path d="M-4,0h8" fill="none" stroke="white" stroke-width="1.5" pointer-events="none"/>
                </g>
                <g id="dirArrow">
                        <path fill="none" stroke="white" stroke-width="1.5" d="M0,-3.0v7 M-2.5,-0.5L0,-3.0L2.5,-0.5"/>
                </g>
               <g id="resetDef">
                       <use xlink:href="#rim2" fill="#404040">
                               <set attributeName="fill" to="#808080" begin="reset.mouseover" end="reset.mouseout"/>
                       </use>
               </g>
        </defs>

<script type="text/javascript">
var viewWidth = 856;
var viewHeight = 204;
var sectionId = 'dynsection-1';
</script>
<script xlink:href="../../svgpan.js"/>
<svg id="graph" class="graph">
<g id="viewport">
<title>G</title>
<polygon fill="white" stroke="white" points="-4,5 -4,-200 853,-200 853,5 -4,5"/>
<!-- Node1 -->
<g id="node1" class="node"><title>Node1</title>
<polygon fill="#bfbfbf" stroke="black" points="301.5,-174.5 301.5,-195.5 648.5,-195.5 648.5,-174.5 301.5,-174.5"/>
<text text-anchor="middle" x="475" y="-182.5" font-family="Helvetica,sans-Serif" font-size="10.00">/home/aoi/Documents/FxOS/B2G/gaia/xulrunner&#45;sdk/include/theora/codec.h</text>
</g>
<!-- Node2 -->
<g id="node3" class="node"><title>Node2</title>
<a xlink:href="../../d6/d1f/theoradec_8h.html" target="_top" xlink:title="/home/aoi/Documents/FxOS/B2G/gaia/xulrunner&#45;sdk/include/theora/theoradec.h">
<polygon fill="white" stroke="black" points="102,-116.5 102,-137.5 466,-137.5 466,-116.5 102,-116.5"/>
<text text-anchor="middle" x="284" y="-124.5" font-family="Helvetica,sans-Serif" font-size="10.00">/home/aoi/Documents/FxOS/B2G/gaia/xulrunner&#45;sdk/include/theora/theoradec.h</text>
</a>
</g>
<!-- Node1&#45;&gt;Node2 -->
<g id="edge2" class="edge"><title>Node1&#45;&gt;Node2</title>
<path fill="none" stroke="midnightblue" d="M430.696,-171.546C396.577,-161.186 350.082,-147.067 318.654,-137.523"/>
<polygon fill="midnightblue" stroke="midnightblue" points="429.826,-174.94 440.411,-174.497 431.86,-168.242 429.826,-174.94"/>
</g>
<!-- Node5 -->
<g id="node10" class="node"><title>Node5</title>
<a xlink:href="../../d6/da6/theoraenc_8h.html" target="_top" xlink:title="/home/aoi/Documents/FxOS/B2G/gaia/xulrunner&#45;sdk/include/theora/theoraenc.h">
<polygon fill="white" stroke="black" points="484,-116.5 484,-137.5 848,-137.5 848,-116.5 484,-116.5"/>
<text text-anchor="middle" x="666" y="-124.5" font-family="Helvetica,sans-Serif" font-size="10.00">/home/aoi/Documents/FxOS/B2G/gaia/xulrunner&#45;sdk/include/theora/theoraenc.h</text>
</a>
</g>
<!-- Node1&#45;&gt;Node5 -->
<g id="edge10" class="edge"><title>Node1&#45;&gt;Node5</title>
<path fill="none" stroke="midnightblue" d="M519.304,-171.546C553.423,-161.186 599.918,-147.067 631.346,-137.523"/>
<polygon fill="midnightblue" stroke="midnightblue" points="518.14,-168.242 509.589,-174.497 520.174,-174.94 518.14,-168.242"/>
</g>
<!-- Node3 -->
<g id="node5" class="node"><title>Node3</title>
<a xlink:href="../../d9/df6/_ogg_codec_state_8h.html" target="_top" xlink:title="/home/aoi/Documents/FxOS/B2G/gaia/xulrunner&#45;sdk/include/OggCodecState.h">
<polygon fill="white" stroke="black" points="-0.5,-58.5 -0.5,-79.5 360.5,-79.5 360.5,-58.5 -0.5,-58.5"/>
<text text-anchor="middle" x="180" y="-66.5" font-family="Helvetica,sans-Serif" font-size="10.00">/home/aoi/Documents/FxOS/B2G/gaia/xulrunner&#45;sdk/include/OggCodecState.h</text>
</a>
</g>
<!-- Node2&#45;&gt;Node3 -->
<g id="edge4" class="edge"><title>Node2&#45;&gt;Node3</title>
<path fill="none" stroke="midnightblue" d="M255.99,-111.379C237.919,-101.301 214.898,-88.4624 198.954,-79.5707"/>
<polygon fill="midnightblue" stroke="midnightblue" points="254.486,-114.548 264.925,-116.362 257.896,-108.434 254.486,-114.548"/>
</g>
<!-- Node4 -->
<g id="node7" class="node"><title>Node4</title>
<a xlink:href="../../df/d61/_ogg_reader_8h.html" target="_top" xlink:title="/home/aoi/Documents/FxOS/B2G/gaia/xulrunner&#45;sdk/include/OggReader.h">
<polygon fill="white" stroke="black" points="113.5,-0.5 113.5,-21.5 454.5,-21.5 454.5,-0.5 113.5,-0.5"/>
<text text-anchor="middle" x="284" y="-8.5" font-family="Helvetica,sans-Serif" font-size="10.00">/home/aoi/Documents/FxOS/B2G/gaia/xulrunner&#45;sdk/include/OggReader.h</text>
</a>
</g>
<!-- Node2&#45;&gt;Node4 -->
<g id="edge8" class="edge"><title>Node2&#45;&gt;Node4</title>
<path fill="none" stroke="midnightblue" d="M330.219,-112.315C345.283,-105.087 360.346,-94.6746 369,-80 384.545,-53.6411 346.918,-33.1457 316.851,-21.5641"/>
<polygon fill="midnightblue" stroke="midnightblue" points="328.642,-109.185 320.896,-116.414 331.459,-115.593 328.642,-109.185"/>
</g>
<!-- Node3&#45;&gt;Node4 -->
<g id="edge6" class="edge"><title>Node3&#45;&gt;Node4</title>
<path fill="none" stroke="midnightblue" d="M208.01,-53.379C226.081,-43.3011 249.102,-30.4624 265.046,-21.5707"/>
<polygon fill="midnightblue" stroke="midnightblue" points="206.104,-50.4344 199.075,-58.3619 209.514,-56.548 206.104,-50.4344"/>
</g>
</g>
</svg>
        <g id="navigator" transform="translate(0 0)" fill="#404254">
                <rect fill="#f2f5e9" fill-opacity="0.5" stroke="#606060" stroke-width=".5" x="0" y="0" width="60" height="60"/>
                <use id="zoomplus" xlink:href="#zoomPlus" x="17" y="9" onmousedown="handleZoom(evt,'in')"/>
                <use id="zoomminus" xlink:href="#zoomMin" x="42" y="9" onmousedown="handleZoom(evt,'out')"/>
                <use id="reset" xlink:href="#resetDef" x="30" y="36" onmousedown="handleReset()"/>
                <g id="arrowUp" xlink:href="#dirArrow" transform="translate(30 24)" onmousedown="handlePan(0,-1)">
                  <use xlink:href="#rim" fill="#404040">
                        <set attributeName="fill" to="#808080" begin="arrowUp.mouseover" end="arrowUp.mouseout"/>
                  </use>
                  <path fill="none" stroke="white" stroke-width="1.5" d="M0,-3.0v7 M-2.5,-0.5L0,-3.0L2.5,-0.5"/>
                </g>
                <g id="arrowRight" xlink:href="#dirArrow" transform="rotate(90) translate(36 -43)" onmousedown="handlePan(1,0)">
                  <use xlink:href="#rim" fill="#404040">
                        <set attributeName="fill" to="#808080" begin="arrowRight.mouseover" end="arrowRight.mouseout"/>
                  </use>
                  <path fill="none" stroke="white" stroke-width="1.5" d="M0,-3.0v7 M-2.5,-0.5L0,-3.0L2.5,-0.5"/>
                </g>
                <g id="arrowDown" xlink:href="#dirArrow" transform="rotate(180) translate(-30 -48)" onmousedown="handlePan(0,1)">
                  <use xlink:href="#rim" fill="#404040">
                        <set attributeName="fill" to="#808080" begin="arrowDown.mouseover" end="arrowDown.mouseout"/>
                  </use>
                  <path fill="none" stroke="white" stroke-width="1.5" d="M0,-3.0v7 M-2.5,-0.5L0,-3.0L2.5,-0.5"/>
                </g>
                <g id="arrowLeft" xlink:href="#dirArrow" transform="rotate(270) translate(-36 17)" onmousedown="handlePan(-1,0)">
                  <use xlink:href="#rim" fill="#404040">
                        <set attributeName="fill" to="#808080" begin="arrowLeft.mouseover" end="arrowLeft.mouseout"/>
                  </use>
                  <path fill="none" stroke="white" stroke-width="1.5" d="M0,-3.0v7 M-2.5,-0.5L0,-3.0L2.5,-0.5"/>
                </g>
        </g>
</svg>
