<?xml version="1.0" encoding="UTF-8" standalone="no"?>
<!DOCTYPE svg PUBLIC "-//W3C//DTD SVG 1.1//EN"
 "http://www.w3.org/Graphics/SVG/1.1/DTD/svg11.dtd">
<!-- Generated by graphviz version 2.26.3 (20100126.1600)
 -->
<!-- Title: G Pages: 1 -->
<svg width="294pt" height="204pt"
 viewBox="0.00 0.00 294.00 204.00" xmlns="http://www.w3.org/2000/svg" xmlns:xlink="http://www.w3.org/1999/xlink">
<g id="graph1" class="graph" transform="scale(1 1) rotate(0) translate(4 200)">
<title>G</title>
<polygon fill="white" stroke="white" points="-4,5 -4,-200 291,-200 291,5 -4,5"/>
<!-- Node1 -->
<g id="node1" class="node"><title>Node1</title>
<polygon fill="#bfbfbf" stroke="black" points="19,-58.5 19,-79.5 267,-79.5 267,-58.5 19,-58.5"/>
<text text-anchor="middle" x="143" y="-66.5" font-family="Helvetica,sans-Serif" font-size="10.00">mozilla::dom::DeviceStorageEnumerationParameters</text>
</g>
<!-- Node4 -->
<g id="node7" class="node"><title>Node4</title>
<a xlink:href="../../df/dd4/structmozilla_1_1dom_1_1_device_storage_enumeration_parameters_initializer.html" target="_top" xlink:title="mozilla::dom::DeviceStorageEnumerationParametersInitializer">
<polygon fill="white" stroke="black" points="-0.5,-0.5 -0.5,-21.5 286.5,-21.5 286.5,-0.5 -0.5,-0.5"/>
<text text-anchor="middle" x="143" y="-8.5" font-family="Helvetica,sans-Serif" font-size="10.00">mozilla::dom::DeviceStorageEnumerationParametersInitializer</text>
</a>
</g>
<!-- Node1&#45;&gt;Node4 -->
<g id="edge6" class="edge"><title>Node1&#45;&gt;Node4</title>
<path fill="none" stroke="midnightblue" d="M143,-48.1906C143,-39.1684 143,-28.9941 143,-21.5707"/>
<polygon fill="midnightblue" stroke="midnightblue" points="139.5,-48.3619 143,-58.3619 146.5,-48.3619 139.5,-48.3619"/>
</g>
<!-- Node2 -->
<g id="node2" class="node"><title>Node2</title>
<a xlink:href="../../d5/d9f/structmozilla_1_1dom_1_1_main_thread_dictionary_base.html" target="_top" xlink:title="mozilla::dom::MainThreadDictionaryBase">
<polygon fill="white" stroke="black" points="45,-116.5 45,-137.5 241,-137.5 241,-116.5 45,-116.5"/>
<text text-anchor="middle" x="143" y="-124.5" font-family="Helvetica,sans-Serif" font-size="10.00">mozilla::dom::MainThreadDictionaryBase</text>
</a>
</g>
<!-- Node2&#45;&gt;Node1 -->
<g id="edge2" class="edge"><title>Node2&#45;&gt;Node1</title>
<path fill="none" stroke="midnightblue" d="M143,-106.191C143,-97.1684 143,-86.9941 143,-79.5707"/>
<polygon fill="midnightblue" stroke="midnightblue" points="139.5,-106.362 143,-116.362 146.5,-106.362 139.5,-106.362"/>
</g>
<!-- Node3 -->
<g id="node4" class="node"><title>Node3</title>
<a xlink:href="../../d6/d60/structmozilla_1_1dom_1_1_dictionary_base.html" target="_top" xlink:title="mozilla::dom::DictionaryBase">
<polygon fill="white" stroke="black" points="70.5,-174.5 70.5,-195.5 215.5,-195.5 215.5,-174.5 70.5,-174.5"/>
<text text-anchor="middle" x="143" y="-182.5" font-family="Helvetica,sans-Serif" font-size="10.00">mozilla::dom::DictionaryBase</text>
</a>
</g>
<!-- Node3&#45;&gt;Node2 -->
<g id="edge4" class="edge"><title>Node3&#45;&gt;Node2</title>
<path fill="none" stroke="midnightblue" d="M143,-164.191C143,-155.168 143,-144.994 143,-137.571"/>
<polygon fill="midnightblue" stroke="midnightblue" points="139.5,-164.362 143,-174.362 146.5,-164.362 139.5,-164.362"/>
</g>
</g>
</svg>
