<?xml version="1.0" encoding="UTF-8" standalone="no"?>
<!DOCTYPE svg PUBLIC "-//W3C//DTD SVG 1.1//EN"
 "http://www.w3.org/Graphics/SVG/1.1/DTD/svg11.dtd">
<!-- Generated by graphviz version 2.26.3 (20100126.1600)
 -->
<!-- Title: G Pages: 1 -->
<!--zoomable 784 -->
<svg id="main" version="1.1" xmlns="http://www.w3.org/2000/svg" xmlns:xlink="http://www.w3.org/1999/xlink" xml:space="preserve" onload="init(evt)">
        <defs>
                <circle id="rim" cx="0" cy="0" r="7"/>
                <circle id="rim2" cx="0" cy="0" r="3.5"/>
                <g id="zoomPlus">
                        <use xlink:href="#rim" fill="#404040">
                                <set attributeName="fill" to="#808080" begin="zoomplus.mouseover" end="zoomplus.mouseout"/>
                        </use>
                        <path d="M-4,0h8M0,-4v8" fill="none" stroke="white" stroke-width="1.5" pointer-events="none"/>
                </g>
                <g id="zoomMin">
                        <use xlink:href="#rim" fill="#404040">
                                <set attributeName="fill" to="#808080" begin="zoomminus.mouseover" end="zoomminus.mouseout"/>
                        </use>
                        <path d="M-4,0h8" fill="none" stroke="white" stroke-width="1.5" pointer-events="none"/>
                </g>
                <g id="dirArrow">
                        <path fill="none" stroke="white" stroke-width="1.5" d="M0,-3.0v7 M-2.5,-0.5L0,-3.0L2.5,-0.5"/>
                </g>
               <g id="resetDef">
                       <use xlink:href="#rim2" fill="#404040">
                               <set attributeName="fill" to="#808080" begin="reset.mouseover" end="reset.mouseout"/>
                       </use>
               </g>
        </defs>

<script type="text/javascript">
var viewWidth = 1127;
var viewHeight = 784;
var sectionId = 'dynsection-0';
</script>
<script xlink:href="../../svgpan.js"/>
<svg id="graph" class="graph">
<g id="viewport">
<title>G</title>
<polygon fill="white" stroke="white" points="-4,5 -4,-780 1124,-780 1124,5 -4,5"/>
<!-- Node1 -->
<g id="node1" class="node"><title>Node1</title>
<polygon fill="#bfbfbf" stroke="black" points="74,-754.5 74,-775.5 468,-775.5 468,-754.5 74,-754.5"/>
<text text-anchor="middle" x="271" y="-762.5" font-family="Helvetica,sans-Serif" font-size="10.00">/home/aoi/Documents/FxOS/B2G/gaia/xulrunner&#45;sdk/include/mozilla/gfx/ScaleFactor.h</text>
</g>
<!-- Node2 -->
<g id="node3" class="node"><title>Node2</title>
<a xlink:href="../../d2/d6f/gfx_point_8h.html" target="_top" xlink:title="gfxPoint.h">
<polygon fill="white" stroke="black" points="240.5,-696.5 240.5,-717.5 301.5,-717.5 301.5,-696.5 240.5,-696.5"/>
<text text-anchor="middle" x="271" y="-704.5" font-family="Helvetica,sans-Serif" font-size="10.00">gfxPoint.h</text>
</a>
</g>
<!-- Node1&#45;&gt;Node2 -->
<g id="edge2" class="edge"><title>Node1&#45;&gt;Node2</title>
<path fill="none" stroke="midnightblue" d="M271,-754.362C271,-746.922 271,-736.743 271,-727.728"/>
<polygon fill="midnightblue" stroke="midnightblue" points="274.5,-727.571 271,-717.571 267.5,-727.571 274.5,-727.571"/>
</g>
<!-- Node3 -->
<g id="node5" class="node"><title>Node3</title>
<a xlink:href="../../d1/d2f/ns_math_utils_8h.html" target="_top" xlink:title="nsMathUtils.h">
<polygon fill="white" stroke="black" points="171.5,-464.5 171.5,-485.5 248.5,-485.5 248.5,-464.5 171.5,-464.5"/>
<text text-anchor="middle" x="210" y="-472.5" font-family="Helvetica,sans-Serif" font-size="10.00">nsMathUtils.h</text>
</a>
</g>
<!-- Node2&#45;&gt;Node3 -->
<g id="edge4" class="edge"><title>Node2&#45;&gt;Node3</title>
<path fill="none" stroke="midnightblue" d="M274.014,-696.11C281.669,-666.111 299.076,-580.619 267,-522 260.199,-509.57 248.653,-499.116 237.725,-491.247"/>
<polygon fill="midnightblue" stroke="midnightblue" points="239.444,-488.185 229.195,-485.502 235.534,-493.991 239.444,-488.185"/>
</g>
<!-- Node21 -->
<g id="node45" class="node"><title>Node21</title>
<a xlink:href="../../dd/d5d/_base_size_8h.html" target="_top" xlink:title="mozilla/gfx/BaseSize.h">
<polygon fill="white" stroke="black" points="-0.5,-464.5 -0.5,-485.5 116.5,-485.5 116.5,-464.5 -0.5,-464.5"/>
<text text-anchor="middle" x="58" y="-472.5" font-family="Helvetica,sans-Serif" font-size="10.00">mozilla/gfx/BaseSize.h</text>
</a>
</g>
<!-- Node2&#45;&gt;Node21 -->
<g id="edge48" class="edge"><title>Node2&#45;&gt;Node21</title>
<path fill="none" stroke="midnightblue" d="M250.883,-696.406C235.172,-687.67 213.196,-674.409 196,-660 142.7,-615.336 129.74,-601.749 91,-544 80.6423,-528.56 71.743,-509.369 65.8052,-495.148"/>
<polygon fill="midnightblue" stroke="midnightblue" points="69.0181,-493.757 62.0265,-485.797 62.528,-496.38 69.0181,-493.757"/>
</g>
<!-- Node22 -->
<g id="node47" class="node"><title>Node22</title>
<a xlink:href="../../d3/d6f/_base_point_8h.html" target="_top" xlink:title="mozilla/gfx/BasePoint.h">
<polygon fill="white" stroke="black" points="622,-464.5 622,-485.5 742,-485.5 742,-464.5 622,-464.5"/>
<text text-anchor="middle" x="682" y="-472.5" font-family="Helvetica,sans-Serif" font-size="10.00">mozilla/gfx/BasePoint.h</text>
</a>
</g>
<!-- Node2&#45;&gt;Node22 -->
<g id="edge50" class="edge"><title>Node2&#45;&gt;Node22</title>
<path fill="none" stroke="midnightblue" d="M289.728,-696.429C355.522,-659.289 576.308,-534.661 654.37,-490.597"/>
<polygon fill="midnightblue" stroke="midnightblue" points="656.174,-493.597 663.162,-485.634 652.733,-487.501 656.174,-493.597"/>
</g>
<!-- Node23 -->
<g id="node49" class="node"><title>Node23</title>
<a xlink:href="../../d7/ddf/ns_size_8h.html" target="_top" xlink:title="nsSize.h">
<polygon fill="white" stroke="black" points="179.5,-580.5 179.5,-601.5 234.5,-601.5 234.5,-580.5 179.5,-580.5"/>
<text text-anchor="middle" x="207" y="-588.5" font-family="Helvetica,sans-Serif" font-size="10.00">nsSize.h</text>
</a>
</g>
<!-- Node2&#45;&gt;Node23 -->
<g id="edge52" class="edge"><title>Node2&#45;&gt;Node23</title>
<path fill="none" stroke="midnightblue" d="M245.87,-696.393C231.052,-688.665 213.573,-676.629 205,-660 197.298,-645.061 198.636,-625.781 201.42,-611.4"/>
<polygon fill="midnightblue" stroke="midnightblue" points="204.863,-612.042 203.705,-601.511 198.043,-610.466 204.863,-612.042"/>
</g>
<!-- Node38 -->
<g id="node101" class="node"><title>Node38</title>
<a xlink:href="../../dc/d42/ns_point_8h.html" target="_top" xlink:title="nsPoint.h">
<polygon fill="white" stroke="black" points="214,-638.5 214,-659.5 272,-659.5 272,-638.5 214,-638.5"/>
<text text-anchor="middle" x="243" y="-646.5" font-family="Helvetica,sans-Serif" font-size="10.00">nsPoint.h</text>
</a>
</g>
<!-- Node2&#45;&gt;Node38 -->
<g id="edge126" class="edge"><title>Node2&#45;&gt;Node38</title>
<path fill="none" stroke="midnightblue" d="M265.864,-696.362C262.154,-688.677 257.033,-678.069 252.578,-668.84"/>
<polygon fill="midnightblue" stroke="midnightblue" points="255.603,-667.055 248.103,-659.571 249.299,-670.098 255.603,-667.055"/>
</g>
<!-- Node39 -->
<g id="node107" class="node"><title>Node39</title>
<a xlink:href="../../d7/db4/gfx_types_8h.html" target="_top" xlink:title="gfxTypes.h">
<polygon fill="white" stroke="black" points="483.5,-638.5 483.5,-659.5 548.5,-659.5 548.5,-638.5 483.5,-638.5"/>
<text text-anchor="middle" x="516" y="-646.5" font-family="Helvetica,sans-Serif" font-size="10.00">gfxTypes.h</text>
</a>
</g>
<!-- Node2&#45;&gt;Node39 -->
<g id="edge136" class="edge"><title>Node2&#45;&gt;Node39</title>
<path fill="none" stroke="midnightblue" d="M301.688,-699.78C340.781,-690.576 410.423,-674.159 470,-660 471.078,-659.744 472.171,-659.484 473.273,-659.221"/>
<polygon fill="midnightblue" stroke="midnightblue" points="474.419,-662.547 483.335,-656.823 472.796,-655.737 474.419,-662.547"/>
</g>
<!-- Node4 -->
<g id="node7" class="node"><title>Node4</title>
<a xlink:href="../../d3/dd8/nscore_8h.html" target="_top" xlink:title="nscore.h">
<polygon fill="white" stroke="black" points="396,-232.5 396,-253.5 450,-253.5 450,-232.5 396,-232.5"/>
<text text-anchor="middle" x="423" y="-240.5" font-family="Helvetica,sans-Serif" font-size="10.00">nscore.h</text>
</a>
</g>
<!-- Node3&#45;&gt;Node4 -->
<g id="edge6" class="edge"><title>Node3&#45;&gt;Node4</title>
<path fill="none" stroke="midnightblue" d="M219.706,-464.429C253.18,-427.969 364.066,-307.191 406.387,-261.095"/>
<polygon fill="midnightblue" stroke="midnightblue" points="409.053,-263.367 413.237,-253.634 403.896,-258.633 409.053,-263.367"/>
</g>
<!-- Node19 -->
<g id="node41" class="node"><title>Node19</title>
<polygon fill="white" stroke="#bfbfbf" points="188,-406.5 188,-427.5 232,-427.5 232,-406.5 188,-406.5"/>
<text text-anchor="middle" x="210" y="-414.5" font-family="Helvetica,sans-Serif" font-size="10.00">cmath</text>
</g>
<!-- Node3&#45;&gt;Node19 -->
<g id="edge44" class="edge"><title>Node3&#45;&gt;Node19</title>
<path fill="none" stroke="midnightblue" d="M210,-464.362C210,-456.922 210,-446.743 210,-437.728"/>
<polygon fill="midnightblue" stroke="midnightblue" points="213.5,-437.571 210,-427.571 206.5,-437.571 213.5,-437.571"/>
</g>
<!-- Node20 -->
<g id="node43" class="node"><title>Node20</title>
<polygon fill="white" stroke="#bfbfbf" points="325,-406.5 325,-427.5 369,-427.5 369,-406.5 325,-406.5"/>
<text text-anchor="middle" x="347" y="-414.5" font-family="Helvetica,sans-Serif" font-size="10.00">float.h</text>
</g>
<!-- Node3&#45;&gt;Node20 -->
<g id="edge46" class="edge"><title>Node3&#45;&gt;Node20</title>
<path fill="none" stroke="midnightblue" d="M234.81,-464.497C257.41,-454.929 290.9,-440.751 315.405,-430.376"/>
<polygon fill="midnightblue" stroke="midnightblue" points="316.799,-433.587 324.643,-426.465 314.07,-427.141 316.799,-433.587"/>
</g>
<!-- Node5 -->
<g id="node9" class="node"><title>Node5</title>
<a xlink:href="../../d7/d2d/xpcom-config_8h.html" target="_top" xlink:title="xpcom&#45;config.h">
<polygon fill="white" stroke="black" points="308.5,-116.5 308.5,-137.5 391.5,-137.5 391.5,-116.5 308.5,-116.5"/>
<text text-anchor="middle" x="350" y="-124.5" font-family="Helvetica,sans-Serif" font-size="10.00">xpcom&#45;config.h</text>
</a>
</g>
<!-- Node4&#45;&gt;Node5 -->
<g id="edge8" class="edge"><title>Node4&#45;&gt;Node5</title>
<path fill="none" stroke="midnightblue" d="M419.546,-232.166C414.785,-218.091 405.371,-193.067 393,-174 386.249,-163.595 377.159,-153.285 369.077,-144.985"/>
<polygon fill="midnightblue" stroke="midnightblue" points="371.307,-142.268 361.745,-137.706 366.375,-147.235 371.307,-142.268"/>
</g>
<!-- Node6 -->
<g id="node11" class="node"><title>Node6</title>
<a xlink:href="../../d1/d62/mozalloc_8h.html" target="_top" xlink:title="mozilla/mozalloc.h">
<polygon fill="white" stroke="black" points="445,-174.5 445,-195.5 543,-195.5 543,-174.5 445,-174.5"/>
<text text-anchor="middle" x="494" y="-182.5" font-family="Helvetica,sans-Serif" font-size="10.00">mozilla/mozalloc.h</text>
</a>
</g>
<!-- Node4&#45;&gt;Node6 -->
<g id="edge10" class="edge"><title>Node4&#45;&gt;Node6</title>
<path fill="none" stroke="midnightblue" d="M436.022,-232.362C446.431,-223.859 461.219,-211.779 473.255,-201.947"/>
<polygon fill="midnightblue" stroke="midnightblue" points="475.53,-204.608 481.06,-195.571 471.101,-199.187 475.53,-204.608"/>
</g>
<!-- Node11 -->
<g id="node22" class="node"><title>Node11</title>
<a xlink:href="../../d1/de4/mozalloc__macro__wrappers_8h.html" target="_top" xlink:title="mozilla/mozalloc_macro_wrappers.h">
<polygon fill="white" stroke="black" points="176.5,-174.5 176.5,-195.5 351.5,-195.5 351.5,-174.5 176.5,-174.5"/>
<text text-anchor="middle" x="264" y="-182.5" font-family="Helvetica,sans-Serif" font-size="10.00">mozilla/mozalloc_macro_wrappers.h</text>
</a>
</g>
<!-- Node4&#45;&gt;Node11 -->
<g id="edge22" class="edge"><title>Node4&#45;&gt;Node11</title>
<path fill="none" stroke="midnightblue" d="M395.667,-233.029C370.013,-223.671 331.382,-209.58 302.591,-199.077"/>
<polygon fill="midnightblue" stroke="midnightblue" points="303.449,-195.665 292.855,-195.526 301.05,-202.241 303.449,-195.665"/>
</g>
<!-- Node12 -->
<g id="node24" class="node"><title>Node12</title>
<polygon fill="white" stroke="#bfbfbf" points="239,-116.5 239,-137.5 291,-137.5 291,-116.5 239,-116.5"/>
<text text-anchor="middle" x="265" y="-124.5" font-family="Helvetica,sans-Serif" font-size="10.00">stddef.h</text>
</g>
<!-- Node4&#45;&gt;Node12 -->
<g id="edge24" class="edge"><title>Node4&#45;&gt;Node12</title>
<path fill="none" stroke="midnightblue" d="M415.071,-232.026C404.035,-217.342 382.812,-191.167 360,-174 341.845,-160.338 319.103,-148.921 300.421,-140.762"/>
<polygon fill="midnightblue" stroke="midnightblue" points="301.641,-137.477 291.068,-136.797 298.91,-143.922 301.641,-137.477"/>
</g>
<!-- Node13 -->
<g id="node26" class="node"><title>Node13</title>
<polygon fill="white" stroke="#bfbfbf" points="131.5,-116.5 131.5,-137.5 180.5,-137.5 180.5,-116.5 131.5,-116.5"/>
<text text-anchor="middle" x="156" y="-124.5" font-family="Helvetica,sans-Serif" font-size="10.00">stdint.h</text>
</g>
<!-- Node4&#45;&gt;Node13 -->
<g id="edge26" class="edge"><title>Node4&#45;&gt;Node13</title>
<path fill="none" stroke="midnightblue" d="M395.836,-241.806C336.807,-238.629 199.592,-227.911 168,-196 155.61,-183.484 153.399,-163.043 153.815,-147.65"/>
<polygon fill="midnightblue" stroke="midnightblue" points="157.317,-147.727 154.474,-137.521 150.332,-147.272 157.317,-147.727"/>
</g>
<!-- Node14 -->
<g id="node28" class="node"><title>Node14</title>
<a xlink:href="../../df/dcf/_null_ptr_8h.html" target="_top" xlink:title="mozilla/NullPtr.h">
<polygon fill="white" stroke="black" points="25.5,-116.5 25.5,-137.5 114.5,-137.5 114.5,-116.5 25.5,-116.5"/>
<text text-anchor="middle" x="70" y="-124.5" font-family="Helvetica,sans-Serif" font-size="10.00">mozilla/NullPtr.h</text>
</a>
</g>
<!-- Node4&#45;&gt;Node14 -->
<g id="edge28" class="edge"><title>Node4&#45;&gt;Node14</title>
<path fill="none" stroke="midnightblue" d="M395.919,-241.521C315.481,-236.855 82.1813,-221.238 60,-196 48.2668,-182.65 53.2834,-161.914 59.6952,-146.657"/>
<polygon fill="midnightblue" stroke="midnightblue" points="62.8858,-148.096 63.9481,-137.555 56.5439,-145.133 62.8858,-148.096"/>
</g>
<!-- Node15 -->
<g id="node31" class="node"><title>Node15</title>
<a xlink:href="../../d8/dcf/ns_error_8h.html" target="_top" xlink:title="nsError.h">
<polygon fill="white" stroke="black" points="612,-174.5 612,-195.5 668,-195.5 668,-174.5 612,-174.5"/>
<text text-anchor="middle" x="640" y="-182.5" font-family="Helvetica,sans-Serif" font-size="10.00">nsError.h</text>
</a>
</g>
<!-- Node4&#45;&gt;Node15 -->
<g id="edge32" class="edge"><title>Node4&#45;&gt;Node15</title>
<path fill="none" stroke="midnightblue" d="M450.044,-235.772C488.331,-225.538 558.506,-206.782 602.008,-195.154"/>
<polygon fill="midnightblue" stroke="midnightblue" points="603.169,-198.467 611.926,-192.504 601.362,-191.704 603.169,-198.467"/>
</g>
<!-- Node6&#45;&gt;Node5 -->
<g id="edge16" class="edge"><title>Node6&#45;&gt;Node5</title>
<path fill="none" stroke="midnightblue" d="M467.923,-174.497C444.925,-165.234 411.2,-151.65 385.7,-141.379"/>
<polygon fill="midnightblue" stroke="midnightblue" points="386.953,-138.111 376.37,-137.621 384.338,-144.604 386.953,-138.111"/>
</g>
<!-- Node7 -->
<g id="node13" class="node"><title>Node7</title>
<polygon fill="white" stroke="#bfbfbf" points="761,-116.5 761,-137.5 809,-137.5 809,-116.5 761,-116.5"/>
<text text-anchor="middle" x="785" y="-124.5" font-family="Helvetica,sans-Serif" font-size="10.00">stdlib.h</text>
</g>
<!-- Node6&#45;&gt;Node7 -->
<g id="edge12" class="edge"><title>Node6&#45;&gt;Node7</title>
<path fill="none" stroke="midnightblue" d="M543.429,-178.124C593.551,-170.678 673.445,-157.51 751.027,-137.988"/>
<polygon fill="midnightblue" stroke="midnightblue" points="752.145,-141.315 760.967,-135.448 750.411,-134.533 752.145,-141.315"/>
</g>
<!-- Node8 -->
<g id="node15" class="node"><title>Node8</title>
<polygon fill="white" stroke="#bfbfbf" points="446.5,-116.5 446.5,-137.5 495.5,-137.5 495.5,-116.5 446.5,-116.5"/>
<text text-anchor="middle" x="471" y="-124.5" font-family="Helvetica,sans-Serif" font-size="10.00">string.h</text>
</g>
<!-- Node6&#45;&gt;Node8 -->
<g id="edge14" class="edge"><title>Node6&#45;&gt;Node8</title>
<path fill="none" stroke="midnightblue" d="M489.781,-174.362C486.766,-166.758 482.617,-156.294 478.985,-147.135"/>
<polygon fill="midnightblue" stroke="midnightblue" points="482.132,-145.576 475.192,-137.571 475.625,-148.157 482.132,-145.576"/>
</g>
<!-- Node9 -->
<g id="node18" class="node"><title>Node9</title>
<a xlink:href="../../d1/da8/_attributes_8h.html" target="_top" xlink:title="mozilla/Attributes.h">
<polygon fill="white" stroke="black" points="637.5,-58.5 637.5,-79.5 738.5,-79.5 738.5,-58.5 637.5,-58.5"/>
<text text-anchor="middle" x="688" y="-66.5" font-family="Helvetica,sans-Serif" font-size="10.00">mozilla/Attributes.h</text>
</a>
</g>
<!-- Node6&#45;&gt;Node9 -->
<g id="edge18" class="edge"><title>Node6&#45;&gt;Node9</title>
<path fill="none" stroke="midnightblue" d="M474.784,-174.422C452.524,-160.832 420.96,-136.543 438,-116 461.552,-87.6071 560.833,-76.256 626.972,-71.7959"/>
<polygon fill="midnightblue" stroke="midnightblue" points="627.529,-75.2675 637.286,-71.1376 627.083,-68.2817 627.529,-75.2675"/>
</g>
<!-- Node10 -->
<g id="node20" class="node"><title>Node10</title>
<a xlink:href="../../da/da7/_compiler_8h.html" target="_top" xlink:title="mozilla/Compiler.h">
<polygon fill="white" stroke="black" points="639,-0.5 639,-21.5 737,-21.5 737,-0.5 639,-0.5"/>
<text text-anchor="middle" x="688" y="-8.5" font-family="Helvetica,sans-Serif" font-size="10.00">mozilla/Compiler.h</text>
</a>
</g>
<!-- Node9&#45;&gt;Node10 -->
<g id="edge20" class="edge"><title>Node9&#45;&gt;Node10</title>
<path fill="none" stroke="midnightblue" d="M688,-58.3619C688,-50.9219 688,-40.7427 688,-31.7276"/>
<polygon fill="midnightblue" stroke="midnightblue" points="691.5,-31.5706 688,-21.5707 684.5,-31.5707 691.5,-31.5706"/>
</g>
<!-- Node14&#45;&gt;Node10 -->
<g id="edge30" class="edge"><title>Node14&#45;&gt;Node10</title>
<path fill="none" stroke="midnightblue" d="M114.519,-117.69C117.388,-117.112 120.234,-116.544 123,-116 307.269,-79.7596 526.019,-40.0459 628.921,-21.5596"/>
<polygon fill="midnightblue" stroke="midnightblue" points="629.586,-24.9963 638.81,-19.7844 628.349,-18.1065 629.586,-24.9963"/>
</g>
<!-- Node15&#45;&gt;Node13 -->
<g id="edge40" class="edge"><title>Node15&#45;&gt;Node13</title>
<path fill="none" stroke="midnightblue" d="M611.873,-181.39C594.604,-179.196 572.03,-176.371 552,-174 408.996,-157.069 372.798,-156.59 230,-138 217.12,-136.323 203.011,-134.278 190.599,-132.408"/>
<polygon fill="midnightblue" stroke="midnightblue" points="191.049,-128.936 180.635,-130.89 189.994,-135.856 191.049,-128.936"/>
</g>
<!-- Node16 -->
<g id="node33" class="node"><title>Node16</title>
<a xlink:href="../../d1/d8a/_likely_8h.html" target="_top" xlink:title="mozilla/Likely.h">
<polygon fill="white" stroke="black" points="827,-116.5 827,-137.5 911,-137.5 911,-116.5 827,-116.5"/>
<text text-anchor="middle" x="869" y="-124.5" font-family="Helvetica,sans-Serif" font-size="10.00">mozilla/Likely.h</text>
</a>
</g>
<!-- Node15&#45;&gt;Node16 -->
<g id="edge34" class="edge"><title>Node15&#45;&gt;Node16</title>
<path fill="none" stroke="midnightblue" d="M668.08,-177.888C705.244,-168.475 771.447,-151.708 817.665,-140.002"/>
<polygon fill="midnightblue" stroke="midnightblue" points="818.662,-143.36 827.497,-137.512 816.943,-136.574 818.662,-143.36"/>
</g>
<!-- Node17 -->
<g id="node35" class="node"><title>Node17</title>
<a xlink:href="../../d3/dff/_typed_enum_8h.html" target="_top" xlink:title="mozilla/TypedEnum.h">
<polygon fill="white" stroke="black" points="632.5,-116.5 632.5,-137.5 743.5,-137.5 743.5,-116.5 632.5,-116.5"/>
<text text-anchor="middle" x="688" y="-124.5" font-family="Helvetica,sans-Serif" font-size="10.00">mozilla/TypedEnum.h</text>
</a>
</g>
<!-- Node15&#45;&gt;Node17 -->
<g id="edge36" class="edge"><title>Node15&#45;&gt;Node17</title>
<path fill="none" stroke="midnightblue" d="M648.804,-174.362C655.502,-166.268 664.884,-154.932 672.789,-145.38"/>
<polygon fill="midnightblue" stroke="midnightblue" points="675.573,-147.506 679.252,-137.571 670.18,-143.043 675.573,-147.506"/>
</g>
<!-- Node18 -->
<g id="node39" class="node"><title>Node18</title>
<a xlink:href="../../d7/dda/_error_list_c_defines_8h.html" target="_top" xlink:title="ErrorListCDefines.h">
<polygon fill="white" stroke="black" points="512.5,-116.5 512.5,-137.5 615.5,-137.5 615.5,-116.5 512.5,-116.5"/>
<text text-anchor="middle" x="564" y="-124.5" font-family="Helvetica,sans-Serif" font-size="10.00">ErrorListCDefines.h</text>
</a>
</g>
<!-- Node15&#45;&gt;Node18 -->
<g id="edge42" class="edge"><title>Node15&#45;&gt;Node18</title>
<path fill="none" stroke="midnightblue" d="M626.06,-174.362C614.812,-165.777 598.784,-153.546 585.835,-143.664"/>
<polygon fill="midnightblue" stroke="midnightblue" points="587.924,-140.855 577.851,-137.571 583.677,-146.42 587.924,-140.855"/>
</g>
<!-- Node17&#45;&gt;Node9 -->
<g id="edge38" class="edge"><title>Node17&#45;&gt;Node9</title>
<path fill="none" stroke="midnightblue" d="M688,-116.362C688,-108.922 688,-98.7427 688,-89.7276"/>
<polygon fill="midnightblue" stroke="midnightblue" points="691.5,-89.5706 688,-79.5707 684.5,-89.5707 691.5,-89.5706"/>
</g>
<!-- Node23&#45;&gt;Node21 -->
<g id="edge110" class="edge"><title>Node23&#45;&gt;Node21</title>
<path fill="none" stroke="midnightblue" d="M193.25,-580.295C167.304,-560.096 110.941,-516.216 79.7889,-491.963"/>
<polygon fill="midnightblue" stroke="midnightblue" points="81.758,-489.061 71.7173,-485.679 77.4579,-494.584 81.758,-489.061"/>
</g>
<!-- Node24 -->
<g id="node51" class="node"><title>Node24</title>
<a xlink:href="../../d6/ddb/ns_coord_8h.html" target="_top" xlink:title="nsCoord.h">
<polygon fill="white" stroke="black" points="328,-522.5 328,-543.5 390,-543.5 390,-522.5 328,-522.5"/>
<text text-anchor="middle" x="359" y="-530.5" font-family="Helvetica,sans-Serif" font-size="10.00">nsCoord.h</text>
</a>
</g>
<!-- Node23&#45;&gt;Node24 -->
<g id="edge54" class="edge"><title>Node23&#45;&gt;Node24</title>
<path fill="none" stroke="midnightblue" d="M234.526,-580.497C258.984,-571.164 294.938,-557.445 321.924,-547.147"/>
<polygon fill="midnightblue" stroke="midnightblue" points="323.327,-550.358 331.422,-543.523 320.832,-543.818 323.327,-550.358"/>
</g>
<!-- Node36 -->
<g id="node92" class="node"><title>Node36</title>
<a xlink:href="../../d1/d18/_point_8h.html" target="_top" xlink:title="mozilla/gfx/Point.h">
<polygon fill="white" stroke="black" points="160,-522.5 160,-543.5 258,-543.5 258,-522.5 160,-522.5"/>
<text text-anchor="middle" x="209" y="-530.5" font-family="Helvetica,sans-Serif" font-size="10.00">mozilla/gfx/Point.h</text>
</a>
</g>
<!-- Node23&#45;&gt;Node36 -->
<g id="edge112" class="edge"><title>Node23&#45;&gt;Node36</title>
<path fill="none" stroke="midnightblue" d="M207.367,-580.362C207.623,-572.922 207.974,-562.743 208.285,-553.728"/>
<polygon fill="midnightblue" stroke="midnightblue" points="211.789,-553.685 208.635,-543.571 204.793,-553.444 211.789,-553.685"/>
</g>
<!-- Node24&#45;&gt;Node3 -->
<g id="edge100" class="edge"><title>Node24&#45;&gt;Node3</title>
<path fill="none" stroke="midnightblue" d="M332.017,-522.497C308.147,-513.205 273.106,-499.565 246.693,-489.283"/>
<polygon fill="midnightblue" stroke="midnightblue" points="247.622,-485.889 237.033,-485.523 245.083,-492.412 247.622,-485.889"/>
</g>
<!-- Node24&#45;&gt;Node4 -->
<g id="edge98" class="edge"><title>Node24&#45;&gt;Node4</title>
<path fill="none" stroke="midnightblue" d="M376.252,-522.368C388.034,-514.059 402.771,-501.362 410,-486 445.412,-410.745 434.048,-307.532 426.908,-263.863"/>
<polygon fill="midnightblue" stroke="midnightblue" points="430.333,-263.124 425.173,-253.87 423.436,-264.322 430.333,-263.124"/>
</g>
<!-- Node24&#45;&gt;Node20 -->
<g id="edge104" class="edge"><title>Node24&#45;&gt;Node20</title>
<path fill="none" stroke="midnightblue" d="M371.472,-522.04C385.106,-508.654 403.902,-485.175 395,-464 390.036,-452.192 380.497,-441.865 371.221,-433.921"/>
<polygon fill="midnightblue" stroke="midnightblue" points="373.262,-431.072 363.26,-427.577 368.899,-436.547 373.262,-431.072"/>
</g>
<!-- Node25 -->
<g id="node53" class="node"><title>Node25</title>
<a xlink:href="../../d6/dbf/ns_algorithm_8h.html" target="_top" xlink:title="nsAlgorithm.h">
<polygon fill="white" stroke="black" points="479.5,-464.5 479.5,-485.5 556.5,-485.5 556.5,-464.5 479.5,-464.5"/>
<text text-anchor="middle" x="518" y="-472.5" font-family="Helvetica,sans-Serif" font-size="10.00">nsAlgorithm.h</text>
</a>
</g>
<!-- Node24&#45;&gt;Node25 -->
<g id="edge56" class="edge"><title>Node24&#45;&gt;Node25</title>
<path fill="none" stroke="midnightblue" d="M387.794,-522.497C413.491,-513.123 451.318,-499.324 479.587,-489.012"/>
<polygon fill="midnightblue" stroke="midnightblue" points="480.957,-492.238 489.152,-485.523 478.558,-485.662 480.957,-492.238"/>
</g>
<!-- Node28 -->
<g id="node61" class="node"><title>Node28</title>
<a xlink:href="../../dc/d6d/ns_debug_8h.html" target="_top" xlink:title="nsDebug.h">
<polygon fill="white" stroke="black" points="601,-348.5 601,-369.5 665,-369.5 665,-348.5 601,-348.5"/>
<text text-anchor="middle" x="633" y="-356.5" font-family="Helvetica,sans-Serif" font-size="10.00">nsDebug.h</text>
</a>
</g>
<!-- Node24&#45;&gt;Node28 -->
<g id="edge106" class="edge"><title>Node24&#45;&gt;Node28</title>
<path fill="none" stroke="midnightblue" d="M390.452,-525.228C394.995,-524.13 399.615,-523.026 404,-522 475.394,-505.294 506.611,-530.35 565,-486 600.497,-459.038 619.528,-408.06 627.814,-379.575"/>
<polygon fill="midnightblue" stroke="midnightblue" points="631.21,-380.426 630.476,-369.857 624.459,-378.577 631.21,-380.426"/>
</g>
<!-- Node34 -->
<g id="node85" class="node"><title>Node34</title>
<polygon fill="white" stroke="#bfbfbf" points="265.5,-464.5 265.5,-485.5 312.5,-485.5 312.5,-464.5 265.5,-464.5"/>
<text text-anchor="middle" x="289" y="-472.5" font-family="Helvetica,sans-Serif" font-size="10.00">math.h</text>
</g>
<!-- Node24&#45;&gt;Node34 -->
<g id="edge102" class="edge"><title>Node24&#45;&gt;Node34</title>
<path fill="none" stroke="midnightblue" d="M346.161,-522.362C335.998,-513.941 321.599,-502.011 309.796,-492.231"/>
<polygon fill="midnightblue" stroke="midnightblue" points="311.691,-489.256 301.758,-485.571 307.225,-494.646 311.691,-489.256"/>
</g>
<!-- Node35 -->
<g id="node89" class="node"><title>Node35</title>
<polygon fill="white" stroke="#bfbfbf" points="330,-464.5 330,-485.5 386,-485.5 386,-464.5 330,-464.5"/>
<text text-anchor="middle" x="358" y="-472.5" font-family="Helvetica,sans-Serif" font-size="10.00">algorithm</text>
</g>
<!-- Node24&#45;&gt;Node35 -->
<g id="edge108" class="edge"><title>Node24&#45;&gt;Node35</title>
<path fill="none" stroke="midnightblue" d="M358.817,-522.362C358.688,-514.922 358.513,-504.743 358.357,-495.728"/>
<polygon fill="midnightblue" stroke="midnightblue" points="361.854,-495.509 358.182,-485.571 354.855,-495.63 361.854,-495.509"/>
</g>
<!-- Node26 -->
<g id="node55" class="node"><title>Node26</title>
<a xlink:href="../../d3/d59/ns_char_traits_8h.html" target="_top" xlink:title="nsCharTraits.h">
<polygon fill="white" stroke="black" points="467.5,-406.5 467.5,-427.5 548.5,-427.5 548.5,-406.5 467.5,-406.5"/>
<text text-anchor="middle" x="508" y="-414.5" font-family="Helvetica,sans-Serif" font-size="10.00">nsCharTraits.h</text>
</a>
</g>
<!-- Node25&#45;&gt;Node26 -->
<g id="edge58" class="edge"><title>Node25&#45;&gt;Node26</title>
<path fill="none" stroke="midnightblue" d="M516.166,-464.362C514.869,-456.84 513.089,-446.519 511.523,-437.431"/>
<polygon fill="midnightblue" stroke="midnightblue" points="514.971,-436.831 509.823,-427.571 508.073,-438.02 514.971,-436.831"/>
</g>
<!-- Node25&#45;&gt;Node28 -->
<g id="edge96" class="edge"><title>Node25&#45;&gt;Node28</title>
<path fill="none" stroke="midnightblue" d="M528.613,-464.295C548.381,-444.355 591.028,-401.337 615.249,-376.906"/>
<polygon fill="midnightblue" stroke="midnightblue" points="617.858,-379.245 622.413,-369.679 612.887,-374.317 617.858,-379.245"/>
</g>
<!-- Node26&#45;&gt;Node4 -->
<g id="edge64" class="edge"><title>Node26&#45;&gt;Node4</title>
<path fill="none" stroke="midnightblue" d="M502.811,-406.377C488.973,-378.051 451.015,-300.349 432.889,-263.242"/>
<polygon fill="midnightblue" stroke="midnightblue" points="435.872,-261.377 428.338,-253.928 429.583,-264.449 435.872,-261.377"/>
</g>
<!-- Node26&#45;&gt;Node8 -->
<g id="edge62" class="edge"><title>Node26&#45;&gt;Node8</title>
<path fill="none" stroke="midnightblue" d="M520.973,-406.311C530.835,-397.523 544.025,-384.238 552,-370 567.544,-342.249 571,-332.808 571,-301 571,-301 571,-301 571,-243 571,-211.192 571.423,-199.189 552,-174 540.049,-158.502 521.428,-147.186 505.052,-139.547"/>
<polygon fill="midnightblue" stroke="midnightblue" points="506.301,-136.274 495.737,-135.471 503.494,-142.686 506.301,-136.274"/>
</g>
<!-- Node27 -->
<g id="node57" class="node"><title>Node27</title>
<polygon fill="white" stroke="#bfbfbf" points="494.5,-348.5 494.5,-369.5 543.5,-369.5 543.5,-348.5 494.5,-348.5"/>
<text text-anchor="middle" x="519" y="-356.5" font-family="Helvetica,sans-Serif" font-size="10.00">ctype.h</text>
</g>
<!-- Node26&#45;&gt;Node27 -->
<g id="edge60" class="edge"><title>Node26&#45;&gt;Node27</title>
<path fill="none" stroke="midnightblue" d="M510.018,-406.362C511.444,-398.84 513.402,-388.519 515.125,-379.431"/>
<polygon fill="midnightblue" stroke="midnightblue" points="518.571,-380.048 516.995,-369.571 511.693,-378.743 518.571,-380.048"/>
</g>
<!-- Node26&#45;&gt;Node28 -->
<g id="edge66" class="edge"><title>Node26&#45;&gt;Node28</title>
<path fill="none" stroke="midnightblue" d="M530.637,-406.497C550.248,-397.397 578.846,-384.127 600.833,-373.925"/>
<polygon fill="midnightblue" stroke="midnightblue" points="602.512,-377.005 610.109,-369.621 599.565,-370.655 602.512,-377.005"/>
</g>
<!-- Node28&#45;&gt;Node4 -->
<g id="edge68" class="edge"><title>Node28&#45;&gt;Node4</title>
<path fill="none" stroke="midnightblue" d="M613.62,-348.295C576.254,-327.655 494.128,-282.29 450.887,-258.404"/>
<polygon fill="midnightblue" stroke="midnightblue" points="452.475,-255.283 442.03,-253.512 449.091,-261.411 452.475,-255.283"/>
</g>
<!-- Node28&#45;&gt;Node15 -->
<g id="edge70" class="edge"><title>Node28&#45;&gt;Node15</title>
<path fill="none" stroke="midnightblue" d="M646.753,-348.413C657.23,-339.682 671.292,-326.423 680,-312 693.95,-288.894 693.954,-280.686 698,-254 699.466,-244.333 702.208,-240.826 698,-232 691.97,-219.353 680.691,-209.007 669.67,-201.272"/>
<polygon fill="midnightblue" stroke="midnightblue" points="671.286,-198.148 660.993,-195.636 667.473,-204.018 671.286,-198.148"/>
</g>
<!-- Node28&#45;&gt;Node16 -->
<g id="edge94" class="edge"><title>Node28&#45;&gt;Node16</title>
<path fill="none" stroke="midnightblue" d="M650.007,-348.333C663.791,-339.355 683.415,-325.803 699,-312 761.175,-256.936 768.619,-234.983 825,-174 833.83,-164.449 843.725,-153.869 851.892,-145.169"/>
<polygon fill="midnightblue" stroke="midnightblue" points="854.527,-147.475 858.825,-137.792 849.426,-142.681 854.527,-147.475"/>
</g>
<!-- Node29 -->
<g id="node65" class="node"><title>Node29</title>
<a xlink:href="../../dd/d3a/ns_x_p_c_o_m_8h.html" target="_top" xlink:title="nsXPCOM.h">
<polygon fill="white" stroke="black" points="599,-290.5 599,-311.5 671,-311.5 671,-290.5 599,-290.5"/>
<text text-anchor="middle" x="635" y="-298.5" font-family="Helvetica,sans-Serif" font-size="10.00">nsXPCOM.h</text>
</a>
</g>
<!-- Node28&#45;&gt;Node29 -->
<g id="edge72" class="edge"><title>Node28&#45;&gt;Node29</title>
<path fill="none" stroke="midnightblue" d="M633.367,-348.362C633.623,-340.922 633.974,-330.743 634.285,-321.728"/>
<polygon fill="midnightblue" stroke="midnightblue" points="637.789,-321.685 634.635,-311.571 630.793,-321.444 637.789,-321.685"/>
</g>
<!-- Node31 -->
<g id="node70" class="node"><title>Node31</title>
<a xlink:href="../../d9/de9/_assertions_8h.html" target="_top" xlink:title="mozilla/Assertions.h">
<polygon fill="white" stroke="black" points="833.5,-174.5 833.5,-195.5 938.5,-195.5 938.5,-174.5 833.5,-174.5"/>
<text text-anchor="middle" x="886" y="-182.5" font-family="Helvetica,sans-Serif" font-size="10.00">mozilla/Assertions.h</text>
</a>
</g>
<!-- Node28&#45;&gt;Node31 -->
<g id="edge78" class="edge"><title>Node28&#45;&gt;Node31</title>
<path fill="none" stroke="midnightblue" d="M665.171,-355.593C699.277,-350.669 753.439,-338.981 792,-312 832.235,-283.848 862.164,-232.966 876.526,-204.91"/>
<polygon fill="midnightblue" stroke="midnightblue" points="879.792,-206.204 881.104,-195.69 873.522,-203.091 879.792,-206.204"/>
</g>
<!-- Node29&#45;&gt;Node4 -->
<g id="edge74" class="edge"><title>Node29&#45;&gt;Node4</title>
<path fill="none" stroke="midnightblue" d="M598.556,-291.029C559.868,-280.445 499.046,-263.805 460.107,-253.152"/>
<polygon fill="midnightblue" stroke="midnightblue" points="460.793,-249.711 450.224,-250.448 458.946,-256.463 460.793,-249.711"/>
</g>
<!-- Node30 -->
<g id="node68" class="node"><title>Node30</title>
<a xlink:href="../../d1/d66/ns_x_p_c_o_m_c_i_d_8h.html" target="_top" xlink:title="nsXPCOMCID.h">
<polygon fill="white" stroke="black" points="599,-232.5 599,-253.5 689,-253.5 689,-232.5 599,-232.5"/>
<text text-anchor="middle" x="644" y="-240.5" font-family="Helvetica,sans-Serif" font-size="10.00">nsXPCOMCID.h</text>
</a>
</g>
<!-- Node29&#45;&gt;Node30 -->
<g id="edge76" class="edge"><title>Node29&#45;&gt;Node30</title>
<path fill="none" stroke="midnightblue" d="M636.651,-290.362C637.805,-282.922 639.385,-272.743 640.784,-263.728"/>
<polygon fill="midnightblue" stroke="midnightblue" points="644.285,-263.989 642.36,-253.571 637.368,-262.916 644.285,-263.989"/>
</g>
<!-- Node31&#45;&gt;Node7 -->
<g id="edge90" class="edge"><title>Node31&#45;&gt;Node7</title>
<path fill="none" stroke="midnightblue" d="M867.475,-174.362C852.099,-165.532 830.004,-152.844 812.553,-142.822"/>
<polygon fill="midnightblue" stroke="midnightblue" points="813.822,-139.515 803.408,-137.571 810.336,-145.586 813.822,-139.515"/>
</g>
<!-- Node31&#45;&gt;Node9 -->
<g id="edge80" class="edge"><title>Node31&#45;&gt;Node9</title>
<path fill="none" stroke="midnightblue" d="M898.245,-174.327C913.229,-159.985 934.879,-134.195 920,-116 898.715,-89.9701 809.846,-78.0136 748.492,-72.7743"/>
<polygon fill="midnightblue" stroke="midnightblue" points="748.769,-69.2854 738.518,-71.9605 748.2,-76.2622 748.769,-69.2854"/>
</g>
<!-- Node31&#45;&gt;Node10 -->
<g id="edge82" class="edge"><title>Node31&#45;&gt;Node10</title>
<path fill="none" stroke="midnightblue" d="M938.834,-178.299C988.664,-169.701 1052.11,-151.455 1026,-116 992.745,-70.847 835.091,-36.7046 747.331,-20.8252"/>
<polygon fill="midnightblue" stroke="midnightblue" points="747.707,-17.3371 737.247,-19.0254 746.477,-24.2281 747.707,-17.3371"/>
</g>
<!-- Node31&#45;&gt;Node12 -->
<g id="edge86" class="edge"><title>Node31&#45;&gt;Node12</title>
<path fill="none" stroke="midnightblue" d="M833.208,-182.287C712.576,-175.849 418.711,-158.753 301.041,-137.776"/>
<polygon fill="midnightblue" stroke="midnightblue" points="301.684,-134.335 291.21,-135.932 300.394,-141.215 301.684,-134.335"/>
</g>
<!-- Node31&#45;&gt;Node16 -->
<g id="edge84" class="edge"><title>Node31&#45;&gt;Node16</title>
<path fill="none" stroke="midnightblue" d="M882.882,-174.362C880.677,-166.84 877.652,-156.519 874.988,-147.431"/>
<polygon fill="midnightblue" stroke="midnightblue" points="878.27,-146.182 872.098,-137.571 871.552,-148.151 878.27,-146.182"/>
</g>
<!-- Node32 -->
<g id="node76" class="node"><title>Node32</title>
<polygon fill="white" stroke="#bfbfbf" points="1073,-116.5 1073,-137.5 1119,-137.5 1119,-116.5 1073,-116.5"/>
<text text-anchor="middle" x="1096" y="-124.5" font-family="Helvetica,sans-Serif" font-size="10.00">stdio.h</text>
</g>
<!-- Node31&#45;&gt;Node32 -->
<g id="edge88" class="edge"><title>Node31&#45;&gt;Node32</title>
<path fill="none" stroke="midnightblue" d="M925.928,-174.44C961.04,-165.085 1013.5,-150.943 1059,-138 1060.41,-137.599 1061.85,-137.186 1063.3,-136.766"/>
<polygon fill="midnightblue" stroke="midnightblue" points="1064.32,-140.116 1072.93,-133.95 1062.35,-133.398 1064.32,-140.116"/>
</g>
<!-- Node33 -->
<g id="node79" class="node"><title>Node33</title>
<polygon fill="white" stroke="#bfbfbf" points="967,-116.5 967,-137.5 1017,-137.5 1017,-116.5 967,-116.5"/>
<text text-anchor="middle" x="992" y="-124.5" font-family="Helvetica,sans-Serif" font-size="10.00">signal.h</text>
</g>
<!-- Node31&#45;&gt;Node33 -->
<g id="edge92" class="edge"><title>Node31&#45;&gt;Node33</title>
<path fill="none" stroke="midnightblue" d="M905.442,-174.362C921.804,-165.409 945.413,-152.491 963.843,-142.406"/>
<polygon fill="midnightblue" stroke="midnightblue" points="965.589,-145.441 972.681,-137.571 962.229,-139.3 965.589,-145.441"/>
</g>
<!-- Node36&#45;&gt;Node21 -->
<g id="edge124" class="edge"><title>Node36&#45;&gt;Node21</title>
<path fill="none" stroke="midnightblue" d="M181.655,-522.497C157.358,-513.164 121.64,-499.445 94.8322,-489.147"/>
<polygon fill="midnightblue" stroke="midnightblue" points="95.9863,-485.842 85.3962,-485.523 93.4763,-492.376 95.9863,-485.842"/>
</g>
<!-- Node36&#45;&gt;Node22 -->
<g id="edge122" class="edge"><title>Node36&#45;&gt;Node22</title>
<path fill="none" stroke="midnightblue" d="M258.281,-526.957C342.608,-516.617 514.837,-495.498 611.739,-483.615"/>
<polygon fill="midnightblue" stroke="midnightblue" points="612.237,-487.081 621.737,-482.39 611.385,-480.133 612.237,-487.081"/>
</g>
<!-- Node37 -->
<g id="node94" class="node"><title>Node37</title>
<a xlink:href="../../dc/dcf/mozilla_2gfx_2_types_8h.html" target="_top" xlink:title="Types.h">
<polygon fill="white" stroke="black" points="69,-174.5 69,-195.5 121,-195.5 121,-174.5 69,-174.5"/>
<text text-anchor="middle" x="95" y="-182.5" font-family="Helvetica,sans-Serif" font-size="10.00">Types.h</text>
</a>
</g>
<!-- Node36&#45;&gt;Node37 -->
<g id="edge114" class="edge"><title>Node36&#45;&gt;Node37</title>
<path fill="none" stroke="midnightblue" d="M195.421,-522.429C185.101,-513.707 171.307,-500.452 163,-486 147.149,-458.423 144,-448.808 144,-417 144,-417 144,-417 144,-301 144,-264.463 123.117,-226.193 108.617,-204.025"/>
<polygon fill="midnightblue" stroke="midnightblue" points="111.385,-201.87 102.873,-195.562 105.593,-205.801 111.385,-201.87"/>
</g>
<!-- Node37&#45;&gt;Node12 -->
<g id="edge118" class="edge"><title>Node37&#45;&gt;Node12</title>
<path fill="none" stroke="midnightblue" d="M121.19,-176.065C150.141,-166.187 196.946,-150.218 229.255,-139.195"/>
<polygon fill="midnightblue" stroke="midnightblue" points="230.446,-142.487 238.78,-135.946 228.186,-135.862 230.446,-142.487"/>
</g>
<!-- Node37&#45;&gt;Node13 -->
<g id="edge120" class="edge"><title>Node37&#45;&gt;Node13</title>
<path fill="none" stroke="midnightblue" d="M106.188,-174.362C114.959,-166.023 127.349,-154.242 137.578,-144.516"/>
<polygon fill="midnightblue" stroke="midnightblue" points="140.047,-146.998 144.883,-137.571 135.224,-141.925 140.047,-146.998"/>
</g>
<!-- Node37&#45;&gt;Node14 -->
<g id="edge116" class="edge"><title>Node37&#45;&gt;Node14</title>
<path fill="none" stroke="midnightblue" d="M90.4146,-174.362C87.102,-166.677 82.5296,-156.069 78.5517,-146.84"/>
<polygon fill="midnightblue" stroke="midnightblue" points="81.7288,-145.368 74.5563,-137.571 75.3005,-148.139 81.7288,-145.368"/>
</g>
<!-- Node38&#45;&gt;Node21 -->
<g id="edge130" class="edge"><title>Node38&#45;&gt;Node21</title>
<path fill="none" stroke="midnightblue" d="M224.122,-638.338C209.091,-629.465 187.852,-616.055 171,-602 130.681,-568.374 91.8325,-520.157 71.8793,-493.863"/>
<polygon fill="midnightblue" stroke="midnightblue" points="74.6619,-491.74 65.8622,-485.84 69.0617,-495.94 74.6619,-491.74"/>
</g>
<!-- Node38&#45;&gt;Node22 -->
<g id="edge132" class="edge"><title>Node38&#45;&gt;Node22</title>
<path fill="none" stroke="midnightblue" d="M259.326,-638.346C305.107,-608.502 432.036,-525.988 442,-522 472.229,-509.901 552.385,-495.429 611.792,-485.77"/>
<polygon fill="midnightblue" stroke="midnightblue" points="612.565,-489.191 621.88,-484.144 611.451,-482.28 612.565,-489.191"/>
</g>
<!-- Node38&#45;&gt;Node23 -->
<g id="edge134" class="edge"><title>Node38&#45;&gt;Node23</title>
<path fill="none" stroke="midnightblue" d="M236.397,-638.362C231.525,-630.513 224.762,-619.616 218.95,-610.253"/>
<polygon fill="midnightblue" stroke="midnightblue" points="221.809,-608.221 213.561,-601.571 215.861,-611.913 221.809,-608.221"/>
</g>
<!-- Node38&#45;&gt;Node24 -->
<g id="edge128" class="edge"><title>Node38&#45;&gt;Node24</title>
<path fill="none" stroke="midnightblue" d="M253.705,-638.295C273.645,-618.355 316.663,-575.337 341.094,-550.906"/>
<polygon fill="midnightblue" stroke="midnightblue" points="343.725,-553.225 348.321,-543.679 338.775,-548.275 343.725,-553.225"/>
</g>
</g>
</svg>
        <g id="navigator" transform="translate(0 0)" fill="#404254">
                <rect fill="#f2f5e9" fill-opacity="0.5" stroke="#606060" stroke-width=".5" x="0" y="0" width="60" height="60"/>
                <use id="zoomplus" xlink:href="#zoomPlus" x="17" y="9" onmousedown="handleZoom(evt,'in')"/>
                <use id="zoomminus" xlink:href="#zoomMin" x="42" y="9" onmousedown="handleZoom(evt,'out')"/>
                <use id="reset" xlink:href="#resetDef" x="30" y="36" onmousedown="handleReset()"/>
                <g id="arrowUp" xlink:href="#dirArrow" transform="translate(30 24)" onmousedown="handlePan(0,-1)">
                  <use xlink:href="#rim" fill="#404040">
                        <set attributeName="fill" to="#808080" begin="arrowUp.mouseover" end="arrowUp.mouseout"/>
                  </use>
                  <path fill="none" stroke="white" stroke-width="1.5" d="M0,-3.0v7 M-2.5,-0.5L0,-3.0L2.5,-0.5"/>
                </g>
                <g id="arrowRight" xlink:href="#dirArrow" transform="rotate(90) translate(36 -43)" onmousedown="handlePan(1,0)">
                  <use xlink:href="#rim" fill="#404040">
                        <set attributeName="fill" to="#808080" begin="arrowRight.mouseover" end="arrowRight.mouseout"/>
                  </use>
                  <path fill="none" stroke="white" stroke-width="1.5" d="M0,-3.0v7 M-2.5,-0.5L0,-3.0L2.5,-0.5"/>
                </g>
                <g id="arrowDown" xlink:href="#dirArrow" transform="rotate(180) translate(-30 -48)" onmousedown="handlePan(0,1)">
                  <use xlink:href="#rim" fill="#404040">
                        <set attributeName="fill" to="#808080" begin="arrowDown.mouseover" end="arrowDown.mouseout"/>
                  </use>
                  <path fill="none" stroke="white" stroke-width="1.5" d="M0,-3.0v7 M-2.5,-0.5L0,-3.0L2.5,-0.5"/>
                </g>
                <g id="arrowLeft" xlink:href="#dirArrow" transform="rotate(270) translate(-36 17)" onmousedown="handlePan(-1,0)">
                  <use xlink:href="#rim" fill="#404040">
                        <set attributeName="fill" to="#808080" begin="arrowLeft.mouseover" end="arrowLeft.mouseout"/>
                  </use>
                  <path fill="none" stroke="white" stroke-width="1.5" d="M0,-3.0v7 M-2.5,-0.5L0,-3.0L2.5,-0.5"/>
                </g>
        </g>
</svg>
