<?xml version="1.0" encoding="UTF-8" standalone="no"?>
<!DOCTYPE svg PUBLIC "-//W3C//DTD SVG 1.1//EN"
 "http://www.w3.org/Graphics/SVG/1.1/DTD/svg11.dtd">
<!-- Generated by graphviz version 2.26.3 (20100126.1600)
 -->
<!-- Title: G Pages: 1 -->
<!--zoomable 378 -->
<svg id="main" version="1.1" xmlns="http://www.w3.org/2000/svg" xmlns:xlink="http://www.w3.org/1999/xlink" xml:space="preserve" onload="init(evt)">
        <defs>
                <circle id="rim" cx="0" cy="0" r="7"/>
                <circle id="rim2" cx="0" cy="0" r="3.5"/>
                <g id="zoomPlus">
                        <use xlink:href="#rim" fill="#404040">
                                <set attributeName="fill" to="#808080" begin="zoomplus.mouseover" end="zoomplus.mouseout"/>
                        </use>
                        <path d="M-4,0h8M0,-4v8" fill="none" stroke="white" stroke-width="1.5" pointer-events="none"/>
                </g>
                <g id="zoomMin">
                        <use xlink:href="#rim" fill="#404040">
                                <set attributeName="fill" to="#808080" begin="zoomminus.mouseover" end="zoomminus.mouseout"/>
                        </use>
                        <path d="M-4,0h8" fill="none" stroke="white" stroke-width="1.5" pointer-events="none"/>
                </g>
                <g id="dirArrow">
                        <path fill="none" stroke="white" stroke-width="1.5" d="M0,-3.0v7 M-2.5,-0.5L0,-3.0L2.5,-0.5"/>
                </g>
               <g id="resetDef">
                       <use xlink:href="#rim2" fill="#404040">
                               <set attributeName="fill" to="#808080" begin="reset.mouseover" end="reset.mouseout"/>
                       </use>
               </g>
        </defs>

<script type="text/javascript">
var viewWidth = 5113;
var viewHeight = 378;
var sectionId = 'dynsection-1';
</script>
<script xlink:href="../../svgpan.js"/>
<svg id="graph" class="graph">
<g id="viewport">
<title>G</title>
<polygon fill="white" stroke="white" points="-4,5 -4,-374 5110.07,-374 5110.07,5 -4,5"/>
<!-- Node1 -->
<g id="node1" class="node"><title>Node1</title>
<polygon fill="#bfbfbf" stroke="black" points="3094.57,-348.5 3094.57,-369.5 3469.57,-369.5 3469.57,-348.5 3094.57,-348.5"/>
<text text-anchor="middle" x="3282.07" y="-356.5" font-family="Helvetica,sans-Serif" font-size="10.00">/home/aoi/Documents/FxOS/B2G/gaia/xulrunner&#45;sdk/include/nsIConsoleListener.h</text>
</g>
<!-- Node2 -->
<g id="node3" class="node"><title>Node2</title>
<a xlink:href="../../d5/d01/_x_p_c_o_m_8h.html" target="_top" xlink:title="/home/aoi/Documents/FxOS/B2G/gaia/xulrunner&#45;sdk/include/mozilla/XPCOM.h">
<polygon fill="white" stroke="black" points="2886.07,-232.5 2886.07,-253.5 3248.07,-253.5 3248.07,-232.5 2886.07,-232.5"/>
<text text-anchor="middle" x="3067.07" y="-240.5" font-family="Helvetica,sans-Serif" font-size="10.00">/home/aoi/Documents/FxOS/B2G/gaia/xulrunner&#45;sdk/include/mozilla/XPCOM.h</text>
</a>
</g>
<!-- Node1&#45;&gt;Node2 -->
<g id="edge2" class="edge"><title>Node1&#45;&gt;Node2</title>
<path fill="none" stroke="midnightblue" d="M3193.76,-346.757C3149.45,-338.903 3101.89,-327.295 3086.07,-312 3070,-296.451 3067.13,-268.655 3066.85,-253.522"/>
<polygon fill="midnightblue" stroke="midnightblue" points="3193.29,-350.228 3203.74,-348.475 3194.48,-343.33 3193.29,-350.228"/>
</g>
<!-- Node20 -->
<g id="node41" class="node"><title>Node20</title>
<a xlink:href="../../da/d37/_content_child_8h.html" target="_top" xlink:title="/home/aoi/Documents/FxOS/B2G/gaia/xulrunner&#45;sdk/include/mozilla/dom/ContentChild.h">
<polygon fill="white" stroke="black" points="3768.07,-290.5 3768.07,-311.5 4172.07,-311.5 4172.07,-290.5 3768.07,-290.5"/>
<text text-anchor="middle" x="3970.07" y="-298.5" font-family="Helvetica,sans-Serif" font-size="10.00">/home/aoi/Documents/FxOS/B2G/gaia/xulrunner&#45;sdk/include/mozilla/dom/ContentChild.h</text>
</a>
</g>
<!-- Node1&#45;&gt;Node20 -->
<g id="edge42" class="edge"><title>Node1&#45;&gt;Node20</title>
<path fill="none" stroke="midnightblue" d="M3416.63,-347.656C3540.93,-337.177 3724.14,-321.732 3845.25,-311.523"/>
<polygon fill="midnightblue" stroke="midnightblue" points="3416.33,-344.169 3406.66,-348.497 3416.92,-351.144 3416.33,-344.169"/>
</g>
<!-- Node27 -->
<g id="node55" class="node"><title>Node27</title>
<a xlink:href="../../de/d4e/ns_i_console_service_8h.html" target="_top" xlink:title="/home/aoi/Documents/FxOS/B2G/gaia/xulrunner&#45;sdk/include/nsIConsoleService.h">
<polygon fill="white" stroke="black" points="3095.07,-290.5 3095.07,-311.5 3469.07,-311.5 3469.07,-290.5 3095.07,-290.5"/>
<text text-anchor="middle" x="3282.07" y="-298.5" font-family="Helvetica,sans-Serif" font-size="10.00">/home/aoi/Documents/FxOS/B2G/gaia/xulrunner&#45;sdk/include/nsIConsoleService.h</text>
</a>
</g>
<!-- Node1&#45;&gt;Node27 -->
<g id="edge56" class="edge"><title>Node1&#45;&gt;Node27</title>
<path fill="none" stroke="midnightblue" d="M3282.07,-338.191C3282.07,-329.168 3282.07,-318.994 3282.07,-311.571"/>
<polygon fill="midnightblue" stroke="midnightblue" points="3278.57,-338.362 3282.07,-348.362 3285.57,-338.362 3278.57,-338.362"/>
</g>
<!-- Node3 -->
<g id="node5" class="node"><title>Node3</title>
<a xlink:href="../../d0/d94/_media_resource_8h.html" target="_top" xlink:title="/home/aoi/Documents/FxOS/B2G/gaia/xulrunner&#45;sdk/include/MediaResource.h">
<polygon fill="white" stroke="black" points="2694.57,-174.5 2694.57,-195.5 3053.57,-195.5 3053.57,-174.5 2694.57,-174.5"/>
<text text-anchor="middle" x="2874.07" y="-182.5" font-family="Helvetica,sans-Serif" font-size="10.00">/home/aoi/Documents/FxOS/B2G/gaia/xulrunner&#45;sdk/include/MediaResource.h</text>
</a>
</g>
<!-- Node2&#45;&gt;Node3 -->
<g id="edge4" class="edge"><title>Node2&#45;&gt;Node3</title>
<path fill="none" stroke="midnightblue" d="M3022.3,-229.546C2987.83,-219.186 2940.85,-205.067 2909.09,-195.523"/>
<polygon fill="midnightblue" stroke="midnightblue" points="3021.54,-232.97 3032.12,-232.497 3023.55,-226.267 3021.54,-232.97"/>
</g>
<!-- Node19 -->
<g id="node39" class="node"><title>Node19</title>
<a xlink:href="../../d4/d00/_i_o_interposer_8h.html" target="_top" xlink:title="/home/aoi/Documents/FxOS/B2G/gaia/xulrunner&#45;sdk/include/mozilla/IOInterposer.h">
<polygon fill="white" stroke="black" points="3070.57,-174.5 3070.57,-195.5 3449.57,-195.5 3449.57,-174.5 3070.57,-174.5"/>
<text text-anchor="middle" x="3260.07" y="-182.5" font-family="Helvetica,sans-Serif" font-size="10.00">/home/aoi/Documents/FxOS/B2G/gaia/xulrunner&#45;sdk/include/mozilla/IOInterposer.h</text>
</a>
</g>
<!-- Node2&#45;&gt;Node19 -->
<g id="edge40" class="edge"><title>Node2&#45;&gt;Node19</title>
<path fill="none" stroke="midnightblue" d="M3111.84,-229.546C3146.32,-219.186 3193.3,-205.067 3225.06,-195.523"/>
<polygon fill="midnightblue" stroke="midnightblue" points="3110.59,-226.267 3102.02,-232.497 3112.61,-232.97 3110.59,-226.267"/>
</g>
<!-- Node4 -->
<g id="node7" class="node"><title>Node4</title>
<a xlink:href="../../db/d29/_media_decoder_8h.html" target="_top" xlink:title="/home/aoi/Documents/FxOS/B2G/gaia/xulrunner&#45;sdk/include/MediaDecoder.h">
<polygon fill="white" stroke="black" points="951.073,-116.5 951.073,-137.5 1305.07,-137.5 1305.07,-116.5 951.073,-116.5"/>
<text text-anchor="middle" x="1128.07" y="-124.5" font-family="Helvetica,sans-Serif" font-size="10.00">/home/aoi/Documents/FxOS/B2G/gaia/xulrunner&#45;sdk/include/MediaDecoder.h</text>
</a>
</g>
<!-- Node3&#45;&gt;Node4 -->
<g id="edge6" class="edge"><title>Node3&#45;&gt;Node4</title>
<path fill="none" stroke="midnightblue" d="M2684,-178.686C2343.84,-167.386 1635.75,-143.864 1305.19,-132.884"/>
<polygon fill="midnightblue" stroke="midnightblue" points="2684.09,-182.191 2694.2,-179.025 2684.33,-175.195 2684.09,-182.191"/>
</g>
<!-- Node12 -->
<g id="node24" class="node"><title>Node12</title>
<a xlink:href="../../d3/de9/_media_decoder_reader_8h.html" target="_top" xlink:title="/home/aoi/Documents/FxOS/B2G/gaia/xulrunner&#45;sdk/include/MediaDecoderReader.h">
<polygon fill="white" stroke="black" points="2681.07,-116.5 2681.07,-137.5 3067.07,-137.5 3067.07,-116.5 2681.07,-116.5"/>
<text text-anchor="middle" x="2874.07" y="-124.5" font-family="Helvetica,sans-Serif" font-size="10.00">/home/aoi/Documents/FxOS/B2G/gaia/xulrunner&#45;sdk/include/MediaDecoderReader.h</text>
</a>
</g>
<!-- Node3&#45;&gt;Node12 -->
<g id="edge24" class="edge"><title>Node3&#45;&gt;Node12</title>
<path fill="none" stroke="midnightblue" d="M2874.07,-164.191C2874.07,-155.168 2874.07,-144.994 2874.07,-137.571"/>
<polygon fill="midnightblue" stroke="midnightblue" points="2870.57,-164.362 2874.07,-174.362 2877.57,-164.362 2870.57,-164.362"/>
</g>
<!-- Node18 -->
<g id="node37" class="node"><title>Node18</title>
<a xlink:href="../../d4/d1e/_buffer_media_resource_8h.html" target="_top" xlink:title="/home/aoi/Documents/FxOS/B2G/gaia/xulrunner&#45;sdk/include/BufferMediaResource.h">
<polygon fill="white" stroke="black" points="3085.07,-116.5 3085.07,-137.5 3471.07,-137.5 3471.07,-116.5 3085.07,-116.5"/>
<text text-anchor="middle" x="3278.07" y="-124.5" font-family="Helvetica,sans-Serif" font-size="10.00">/home/aoi/Documents/FxOS/B2G/gaia/xulrunner&#45;sdk/include/BufferMediaResource.h</text>
</a>
</g>
<!-- Node3&#45;&gt;Node18 -->
<g id="edge38" class="edge"><title>Node3&#45;&gt;Node18</title>
<path fill="none" stroke="midnightblue" d="M2957.3,-173.052C3030.17,-162.591 3135.02,-147.538 3204.77,-137.523"/>
<polygon fill="midnightblue" stroke="midnightblue" points="2956.64,-169.611 2947.23,-174.497 2957.63,-176.54 2956.64,-169.611"/>
</g>
<!-- Node5 -->
<g id="node9" class="node"><title>Node5</title>
<a xlink:href="../../dc/dae/_audio_available_event_manager_8h.html" target="_top" xlink:title="/home/aoi/Documents/FxOS/B2G/gaia/xulrunner&#45;sdk/include/AudioAvailableEventManager.h">
<polygon fill="white" stroke="black" points="1879.57,-58.5 1879.57,-79.5 2298.57,-79.5 2298.57,-58.5 1879.57,-58.5"/>
<text text-anchor="middle" x="2089.07" y="-66.5" font-family="Helvetica,sans-Serif" font-size="10.00">/home/aoi/Documents/FxOS/B2G/gaia/xulrunner&#45;sdk/include/AudioAvailableEventManager.h</text>
</a>
</g>
<!-- Node4&#45;&gt;Node5 -->
<g id="edge8" class="edge"><title>Node4&#45;&gt;Node5</title>
<path fill="none" stroke="midnightblue" d="M1312.12,-115.892C1485.8,-105.41 1744.29,-89.8092 1914.72,-79.5231"/>
<polygon fill="midnightblue" stroke="midnightblue" points="1311.87,-112.4 1302.1,-116.497 1312.3,-119.388 1311.87,-112.4"/>
</g>
<!-- Node6 -->
<g id="node11" class="node"><title>Node6</title>
<a xlink:href="../../dc/d47/_media_decoder_state_machine_8h.html" target="_top" xlink:title="/home/aoi/Documents/FxOS/B2G/gaia/xulrunner&#45;sdk/include/MediaDecoderStateMachine.h">
<polygon fill="white" stroke="black" points="830.073,-0.5 830.073,-21.5 1244.07,-21.5 1244.07,-0.5 830.073,-0.5"/>
<text text-anchor="middle" x="1037.07" y="-8.5" font-family="Helvetica,sans-Serif" font-size="10.00">/home/aoi/Documents/FxOS/B2G/gaia/xulrunner&#45;sdk/include/MediaDecoderStateMachine.h</text>
</a>
</g>
<!-- Node4&#45;&gt;Node6 -->
<g id="edge14" class="edge"><title>Node4&#45;&gt;Node6</title>
<path fill="none" stroke="midnightblue" d="M940.818,-125.834C629.652,-122.965 36.8689,-113.155 5.07262,-80 -1.69521,-72.943 -1.6822,-65.0695 5.07262,-58 33.0863,-28.6815 536.692,-17.33 829.852,-13.1925"/>
<polygon fill="midnightblue" stroke="midnightblue" points="940.822,-129.334 950.854,-125.925 940.886,-122.334 940.822,-129.334"/>
</g>
<!-- Node7 -->
<g id="node13" class="node"><title>Node7</title>
<a xlink:href="../../d4/d26/_g_streamer_decoder_8h.html" target="_top" xlink:title="/home/aoi/Documents/FxOS/B2G/gaia/xulrunner&#45;sdk/include/GStreamerDecoder.h">
<polygon fill="white" stroke="black" points="13.5726,-58.5 13.5726,-79.5 388.573,-79.5 388.573,-58.5 13.5726,-58.5"/>
<text text-anchor="middle" x="201.073" y="-66.5" font-family="Helvetica,sans-Serif" font-size="10.00">/home/aoi/Documents/FxOS/B2G/gaia/xulrunner&#45;sdk/include/GStreamerDecoder.h</text>
</a>
</g>
<!-- Node4&#45;&gt;Node7 -->
<g id="edge12" class="edge"><title>Node4&#45;&gt;Node7</title>
<path fill="none" stroke="midnightblue" d="M950.036,-115.861C782.509,-105.379 533.497,-89.799 369.26,-79.5231"/>
<polygon fill="midnightblue" stroke="midnightblue" points="950.001,-119.365 960.2,-116.497 950.438,-112.379 950.001,-119.365"/>
</g>
<!-- Node8 -->
<g id="node16" class="node"><title>Node8</title>
<a xlink:href="../../db/d01/_ogg_decoder_8h.html" target="_top" xlink:title="/home/aoi/Documents/FxOS/B2G/gaia/xulrunner&#45;sdk/include/OggDecoder.h">
<polygon fill="white" stroke="black" points="406.073,-58.5 406.073,-79.5 752.073,-79.5 752.073,-58.5 406.073,-58.5"/>
<text text-anchor="middle" x="579.073" y="-66.5" font-family="Helvetica,sans-Serif" font-size="10.00">/home/aoi/Documents/FxOS/B2G/gaia/xulrunner&#45;sdk/include/OggDecoder.h</text>
</a>
</g>
<!-- Node4&#45;&gt;Node8 -->
<g id="edge16" class="edge"><title>Node4&#45;&gt;Node8</title>
<path fill="none" stroke="midnightblue" d="M1018.6,-115.435C919.46,-104.961 774.637,-89.6607 678.679,-79.5231"/>
<polygon fill="midnightblue" stroke="midnightblue" points="1018.34,-118.927 1028.65,-116.497 1019.08,-111.965 1018.34,-118.927"/>
</g>
<!-- Node9 -->
<g id="node18" class="node"><title>Node9</title>
<a xlink:href="../../d8/dff/_raw_decoder_8h.html" target="_top" xlink:title="/home/aoi/Documents/FxOS/B2G/gaia/xulrunner&#45;sdk/include/RawDecoder.h">
<polygon fill="white" stroke="black" points="770.073,-58.5 770.073,-79.5 1118.07,-79.5 1118.07,-58.5 770.073,-58.5"/>
<text text-anchor="middle" x="944.073" y="-66.5" font-family="Helvetica,sans-Serif" font-size="10.00">/home/aoi/Documents/FxOS/B2G/gaia/xulrunner&#45;sdk/include/RawDecoder.h</text>
</a>
</g>
<!-- Node4&#45;&gt;Node9 -->
<g id="edge18" class="edge"><title>Node4&#45;&gt;Node9</title>
<path fill="none" stroke="midnightblue" d="M1084.97,-113.413C1052.14,-103.065 1007.6,-89.0258 977.456,-79.5231"/>
<polygon fill="midnightblue" stroke="midnightblue" points="1084.16,-116.828 1094.75,-116.497 1086.27,-110.152 1084.16,-116.828"/>
</g>
<!-- Node10 -->
<g id="node20" class="node"><title>Node10</title>
<a xlink:href="../../df/df2/_wave_decoder_8h.html" target="_top" xlink:title="/home/aoi/Documents/FxOS/B2G/gaia/xulrunner&#45;sdk/include/WaveDecoder.h">
<polygon fill="white" stroke="black" points="1135.57,-58.5 1135.57,-79.5 1488.57,-79.5 1488.57,-58.5 1135.57,-58.5"/>
<text text-anchor="middle" x="1312.07" y="-66.5" font-family="Helvetica,sans-Serif" font-size="10.00">/home/aoi/Documents/FxOS/B2G/gaia/xulrunner&#45;sdk/include/WaveDecoder.h</text>
</a>
</g>
<!-- Node4&#45;&gt;Node10 -->
<g id="edge20" class="edge"><title>Node4&#45;&gt;Node10</title>
<path fill="none" stroke="midnightblue" d="M1171.18,-113.413C1204.01,-103.065 1248.54,-89.0258 1278.69,-79.5231"/>
<polygon fill="midnightblue" stroke="midnightblue" points="1169.88,-110.152 1161.39,-116.497 1171.98,-116.828 1169.88,-110.152"/>
</g>
<!-- Node11 -->
<g id="node22" class="node"><title>Node11</title>
<a xlink:href="../../d8/de6/_web_m_decoder_8h.html" target="_top" xlink:title="/home/aoi/Documents/FxOS/B2G/gaia/xulrunner&#45;sdk/include/WebMDecoder.h">
<polygon fill="white" stroke="black" points="1506.07,-58.5 1506.07,-79.5 1862.07,-79.5 1862.07,-58.5 1506.07,-58.5"/>
<text text-anchor="middle" x="1684.07" y="-66.5" font-family="Helvetica,sans-Serif" font-size="10.00">/home/aoi/Documents/FxOS/B2G/gaia/xulrunner&#45;sdk/include/WebMDecoder.h</text>
</a>
</g>
<!-- Node4&#45;&gt;Node11 -->
<g id="edge22" class="edge"><title>Node4&#45;&gt;Node11</title>
<path fill="none" stroke="midnightblue" d="M1238.94,-115.435C1339.35,-104.961 1486.01,-89.6607 1583.2,-79.5231"/>
<polygon fill="midnightblue" stroke="midnightblue" points="1238.34,-111.978 1228.76,-116.497 1239.07,-118.94 1238.34,-111.978"/>
</g>
<!-- Node5&#45;&gt;Node6 -->
<g id="edge10" class="edge"><title>Node5&#45;&gt;Node6</title>
<path fill="none" stroke="midnightblue" d="M1888.45,-57.939C1698.32,-47.4566 1414.79,-31.8246 1227.94,-21.5231"/>
<polygon fill="midnightblue" stroke="midnightblue" points="1888.39,-61.4407 1898.56,-58.4966 1888.77,-54.4514 1888.39,-61.4407"/>
</g>
<!-- Node12&#45;&gt;Node5 -->
<g id="edge26" class="edge"><title>Node12&#45;&gt;Node5</title>
<path fill="none" stroke="midnightblue" d="M2721.82,-115.751C2579.97,-105.27 2370.09,-89.7631 2231.5,-79.5231"/>
<polygon fill="midnightblue" stroke="midnightblue" points="2721.68,-119.25 2731.92,-116.497 2722.2,-112.269 2721.68,-119.25"/>
</g>
<!-- Node13 -->
<g id="node27" class="node"><title>Node13</title>
<a xlink:href="../../d2/d00/_g_streamer_reader_8h.html" target="_top" xlink:title="/home/aoi/Documents/FxOS/B2G/gaia/xulrunner&#45;sdk/include/GStreamerReader.h">
<polygon fill="white" stroke="black" points="2316.07,-58.5 2316.07,-79.5 2686.07,-79.5 2686.07,-58.5 2316.07,-58.5"/>
<text text-anchor="middle" x="2501.07" y="-66.5" font-family="Helvetica,sans-Serif" font-size="10.00">/home/aoi/Documents/FxOS/B2G/gaia/xulrunner&#45;sdk/include/GStreamerReader.h</text>
</a>
</g>
<!-- Node12&#45;&gt;Node13 -->
<g id="edge28" class="edge"><title>Node12&#45;&gt;Node13</title>
<path fill="none" stroke="midnightblue" d="M2796.41,-114.923C2729.17,-104.468 2632.89,-89.4969 2568.75,-79.5231"/>
<polygon fill="midnightblue" stroke="midnightblue" points="2796.11,-118.418 2806.53,-116.497 2797.18,-111.502 2796.11,-118.418"/>
</g>
<!-- Node14 -->
<g id="node29" class="node"><title>Node14</title>
<a xlink:href="../../df/d61/_ogg_reader_8h.html" target="_top" xlink:title="/home/aoi/Documents/FxOS/B2G/gaia/xulrunner&#45;sdk/include/OggReader.h">
<polygon fill="white" stroke="black" points="2703.57,-58.5 2703.57,-79.5 3044.57,-79.5 3044.57,-58.5 2703.57,-58.5"/>
<text text-anchor="middle" x="2874.07" y="-66.5" font-family="Helvetica,sans-Serif" font-size="10.00">/home/aoi/Documents/FxOS/B2G/gaia/xulrunner&#45;sdk/include/OggReader.h</text>
</a>
</g>
<!-- Node12&#45;&gt;Node14 -->
<g id="edge30" class="edge"><title>Node12&#45;&gt;Node14</title>
<path fill="none" stroke="midnightblue" d="M2874.07,-106.191C2874.07,-97.1684 2874.07,-86.9941 2874.07,-79.5707"/>
<polygon fill="midnightblue" stroke="midnightblue" points="2870.57,-106.362 2874.07,-116.362 2877.57,-106.362 2870.57,-106.362"/>
</g>
<!-- Node15 -->
<g id="node31" class="node"><title>Node15</title>
<a xlink:href="../../d0/dbf/_raw_reader_8h.html" target="_top" xlink:title="/home/aoi/Documents/FxOS/B2G/gaia/xulrunner&#45;sdk/include/RawReader.h">
<polygon fill="white" stroke="black" points="3061.57,-58.5 3061.57,-79.5 3404.57,-79.5 3404.57,-58.5 3061.57,-58.5"/>
<text text-anchor="middle" x="3233.07" y="-66.5" font-family="Helvetica,sans-Serif" font-size="10.00">/home/aoi/Documents/FxOS/B2G/gaia/xulrunner&#45;sdk/include/RawReader.h</text>
</a>
</g>
<!-- Node12&#45;&gt;Node15 -->
<g id="edge32" class="edge"><title>Node12&#45;&gt;Node15</title>
<path fill="none" stroke="midnightblue" d="M2949.22,-114.859C3013.92,-104.406 3106.33,-89.4764 3167.94,-79.5231"/>
<polygon fill="midnightblue" stroke="midnightblue" points="2948.4,-111.446 2939.08,-116.497 2949.52,-118.357 2948.4,-111.446"/>
</g>
<!-- Node16 -->
<g id="node33" class="node"><title>Node16</title>
<a xlink:href="../../d8/dd7/_wave_reader_8h.html" target="_top" xlink:title="/home/aoi/Documents/FxOS/B2G/gaia/xulrunner&#45;sdk/include/WaveReader.h">
<polygon fill="white" stroke="black" points="3422.07,-58.5 3422.07,-79.5 3770.07,-79.5 3770.07,-58.5 3422.07,-58.5"/>
<text text-anchor="middle" x="3596.07" y="-66.5" font-family="Helvetica,sans-Serif" font-size="10.00">/home/aoi/Documents/FxOS/B2G/gaia/xulrunner&#45;sdk/include/WaveReader.h</text>
</a>
</g>
<!-- Node12&#45;&gt;Node16 -->
<g id="edge34" class="edge"><title>Node12&#45;&gt;Node16</title>
<path fill="none" stroke="midnightblue" d="M3014.89,-115.688C3145.34,-105.208 3337.86,-89.7426 3465.08,-79.5231"/>
<polygon fill="midnightblue" stroke="midnightblue" points="3014.51,-112.207 3004.82,-116.497 3015.07,-119.185 3014.51,-112.207"/>
</g>
<!-- Node17 -->
<g id="node35" class="node"><title>Node17</title>
<a xlink:href="../../d3/d79/_web_m_reader_8h.html" target="_top" xlink:title="/home/aoi/Documents/FxOS/B2G/gaia/xulrunner&#45;sdk/include/WebMReader.h">
<polygon fill="white" stroke="black" points="3787.57,-58.5 3787.57,-79.5 4138.57,-79.5 4138.57,-58.5 3787.57,-58.5"/>
<text text-anchor="middle" x="3963.07" y="-66.5" font-family="Helvetica,sans-Serif" font-size="10.00">/home/aoi/Documents/FxOS/B2G/gaia/xulrunner&#45;sdk/include/WebMReader.h</text>
</a>
</g>
<!-- Node12&#45;&gt;Node17 -->
<g id="edge36" class="edge"><title>Node12&#45;&gt;Node17</title>
<path fill="none" stroke="midnightblue" d="M3077.08,-115.949C3390.2,-99.4461 3470.05,-97.1489 3779.07,-80 3781.95,-79.8404 3784.85,-79.6785 3787.77,-79.5145"/>
<polygon fill="midnightblue" stroke="midnightblue" points="3076.59,-112.469 3066.79,-116.491 3076.96,-119.459 3076.59,-112.469"/>
</g>
<!-- Node21 -->
<g id="node43" class="node"><title>Node21</title>
<a xlink:href="../../d2/d85/_content_process_8h.html" target="_top" xlink:title="/home/aoi/Documents/FxOS/B2G/gaia/xulrunner&#45;sdk/include/mozilla/dom/ContentProcess.h">
<polygon fill="white" stroke="black" points="3265.57,-232.5 3265.57,-253.5 3682.57,-253.5 3682.57,-232.5 3265.57,-232.5"/>
<text text-anchor="middle" x="3474.07" y="-240.5" font-family="Helvetica,sans-Serif" font-size="10.00">/home/aoi/Documents/FxOS/B2G/gaia/xulrunner&#45;sdk/include/mozilla/dom/ContentProcess.h</text>
</a>
</g>
<!-- Node20&#45;&gt;Node21 -->
<g id="edge44" class="edge"><title>Node20&#45;&gt;Node21</title>
<path fill="none" stroke="midnightblue" d="M3870.08,-289.308C3780.54,-278.837 3650.41,-263.62 3564.06,-253.523"/>
<polygon fill="midnightblue" stroke="midnightblue" points="3869.91,-292.811 3880.25,-290.497 3870.72,-285.859 3869.91,-292.811"/>
</g>
<!-- Node22 -->
<g id="node45" class="node"><title>Node22</title>
<a xlink:href="../../dd/dda/_device_storage_request_parent_8h.html" target="_top" xlink:title="/home/aoi/Documents/FxOS/B2G/gaia/xulrunner&#45;sdk/include/mozilla/dom/devicestorage/DeviceStorageRequestParent.h">
<polygon fill="white" stroke="black" points="3700.07,-232.5 3700.07,-253.5 4240.07,-253.5 4240.07,-232.5 3700.07,-232.5"/>
<text text-anchor="middle" x="3970.07" y="-240.5" font-family="Helvetica,sans-Serif" font-size="10.00">/home/aoi/Documents/FxOS/B2G/gaia/xulrunner&#45;sdk/include/mozilla/dom/devicestorage/DeviceStorageRequestParent.h</text>
</a>
</g>
<!-- Node20&#45;&gt;Node22 -->
<g id="edge46" class="edge"><title>Node20&#45;&gt;Node22</title>
<path fill="none" stroke="midnightblue" d="M3970.07,-280.191C3970.07,-271.168 3970.07,-260.994 3970.07,-253.571"/>
<polygon fill="midnightblue" stroke="midnightblue" points="3966.57,-280.362 3970.07,-290.362 3973.57,-280.362 3966.57,-280.362"/>
</g>
<!-- Node23 -->
<g id="node47" class="node"><title>Node23</title>
<a xlink:href="../../d2/d8e/_tab_child_8h.html" target="_top" xlink:title="/home/aoi/Documents/FxOS/B2G/gaia/xulrunner&#45;sdk/include/mozilla/dom/TabChild.h">
<polygon fill="white" stroke="black" points="4258.07,-232.5 4258.07,-253.5 4644.07,-253.5 4644.07,-232.5 4258.07,-232.5"/>
<text text-anchor="middle" x="4451.07" y="-240.5" font-family="Helvetica,sans-Serif" font-size="10.00">/home/aoi/Documents/FxOS/B2G/gaia/xulrunner&#45;sdk/include/mozilla/dom/TabChild.h</text>
</a>
</g>
<!-- Node20&#45;&gt;Node23 -->
<g id="edge48" class="edge"><title>Node20&#45;&gt;Node23</title>
<path fill="none" stroke="midnightblue" d="M4067.3,-289.276C4154.13,-278.806 4280.16,-263.61 4363.8,-253.523"/>
<polygon fill="midnightblue" stroke="midnightblue" points="4066.69,-285.825 4057.18,-290.497 4067.53,-292.774 4066.69,-285.825"/>
</g>
<!-- Node25 -->
<g id="node51" class="node"><title>Node25</title>
<a xlink:href="../../dd/dd6/_media_manager_8h.html" target="_top" xlink:title="/home/aoi/Documents/FxOS/B2G/gaia/xulrunner&#45;sdk/include/mozilla/MediaManager.h">
<polygon fill="white" stroke="black" points="4672.57,-232.5 4672.57,-253.5 5061.57,-253.5 5061.57,-232.5 4672.57,-232.5"/>
<text text-anchor="middle" x="4867.07" y="-240.5" font-family="Helvetica,sans-Serif" font-size="10.00">/home/aoi/Documents/FxOS/B2G/gaia/xulrunner&#45;sdk/include/mozilla/MediaManager.h</text>
</a>
</g>
<!-- Node20&#45;&gt;Node25 -->
<g id="edge52" class="edge"><title>Node20&#45;&gt;Node25</title>
<path fill="none" stroke="midnightblue" d="M4142.59,-289.845C4304.69,-279.363 4545.49,-263.794 4704.33,-253.523"/>
<polygon fill="midnightblue" stroke="midnightblue" points="4142.27,-286.359 4132.51,-290.497 4142.72,-293.344 4142.27,-286.359"/>
</g>
<!-- Node24 -->
<g id="node49" class="node"><title>Node24</title>
<a xlink:href="../../d9/dba/_remote_open_file_child_8h.html" target="_top" xlink:title="/home/aoi/Documents/FxOS/B2G/gaia/xulrunner&#45;sdk/include/mozilla/net/RemoteOpenFileChild.h">
<polygon fill="white" stroke="black" points="4220.57,-174.5 4220.57,-195.5 4657.57,-195.5 4657.57,-174.5 4220.57,-174.5"/>
<text text-anchor="middle" x="4439.07" y="-182.5" font-family="Helvetica,sans-Serif" font-size="10.00">/home/aoi/Documents/FxOS/B2G/gaia/xulrunner&#45;sdk/include/mozilla/net/RemoteOpenFileChild.h</text>
</a>
</g>
<!-- Node23&#45;&gt;Node24 -->
<g id="edge50" class="edge"><title>Node23&#45;&gt;Node24</title>
<path fill="none" stroke="midnightblue" d="M4446.83,-222.488C4444.95,-213.392 4442.81,-203.076 4441.26,-195.571"/>
<polygon fill="midnightblue" stroke="midnightblue" points="4443.42,-223.278 4448.87,-232.362 4450.27,-221.86 4443.42,-223.278"/>
</g>
<!-- Node26 -->
<g id="node53" class="node"><title>Node26</title>
<a xlink:href="../../d1/dbe/_speech_recognition_8h.html" target="_top" xlink:title="/home/aoi/Documents/FxOS/B2G/gaia/xulrunner&#45;sdk/include/mozilla/dom/SpeechRecognition.h">
<polygon fill="white" stroke="black" points="4674.57,-174.5 4674.57,-195.5 5105.57,-195.5 5105.57,-174.5 4674.57,-174.5"/>
<text text-anchor="middle" x="4890.07" y="-182.5" font-family="Helvetica,sans-Serif" font-size="10.00">/home/aoi/Documents/FxOS/B2G/gaia/xulrunner&#45;sdk/include/mozilla/dom/SpeechRecognition.h</text>
</a>
</g>
<!-- Node25&#45;&gt;Node26 -->
<g id="edge54" class="edge"><title>Node25&#45;&gt;Node26</title>
<path fill="none" stroke="midnightblue" d="M4875.09,-222.784C4878.72,-213.617 4882.87,-203.157 4885.88,-195.571"/>
<polygon fill="midnightblue" stroke="midnightblue" points="4871.72,-221.776 4871.29,-232.362 4878.23,-224.356 4871.72,-221.776"/>
</g>
<!-- Node27&#45;&gt;Node2 -->
<g id="edge58" class="edge"><title>Node27&#45;&gt;Node2</title>
<path fill="none" stroke="midnightblue" d="M3233.19,-287.812C3194.7,-277.428 3141.76,-263.149 3106.08,-253.523"/>
<polygon fill="midnightblue" stroke="midnightblue" points="3232.57,-291.271 3243.14,-290.497 3234.39,-284.513 3232.57,-291.271"/>
</g>
</g>
</svg>
        <g id="navigator" transform="translate(0 0)" fill="#404254">
                <rect fill="#f2f5e9" fill-opacity="0.5" stroke="#606060" stroke-width=".5" x="0" y="0" width="60" height="60"/>
                <use id="zoomplus" xlink:href="#zoomPlus" x="17" y="9" onmousedown="handleZoom(evt,'in')"/>
                <use id="zoomminus" xlink:href="#zoomMin" x="42" y="9" onmousedown="handleZoom(evt,'out')"/>
                <use id="reset" xlink:href="#resetDef" x="30" y="36" onmousedown="handleReset()"/>
                <g id="arrowUp" xlink:href="#dirArrow" transform="translate(30 24)" onmousedown="handlePan(0,-1)">
                  <use xlink:href="#rim" fill="#404040">
                        <set attributeName="fill" to="#808080" begin="arrowUp.mouseover" end="arrowUp.mouseout"/>
                  </use>
                  <path fill="none" stroke="white" stroke-width="1.5" d="M0,-3.0v7 M-2.5,-0.5L0,-3.0L2.5,-0.5"/>
                </g>
                <g id="arrowRight" xlink:href="#dirArrow" transform="rotate(90) translate(36 -43)" onmousedown="handlePan(1,0)">
                  <use xlink:href="#rim" fill="#404040">
                        <set attributeName="fill" to="#808080" begin="arrowRight.mouseover" end="arrowRight.mouseout"/>
                  </use>
                  <path fill="none" stroke="white" stroke-width="1.5" d="M0,-3.0v7 M-2.5,-0.5L0,-3.0L2.5,-0.5"/>
                </g>
                <g id="arrowDown" xlink:href="#dirArrow" transform="rotate(180) translate(-30 -48)" onmousedown="handlePan(0,1)">
                  <use xlink:href="#rim" fill="#404040">
                        <set attributeName="fill" to="#808080" begin="arrowDown.mouseover" end="arrowDown.mouseout"/>
                  </use>
                  <path fill="none" stroke="white" stroke-width="1.5" d="M0,-3.0v7 M-2.5,-0.5L0,-3.0L2.5,-0.5"/>
                </g>
                <g id="arrowLeft" xlink:href="#dirArrow" transform="rotate(270) translate(-36 17)" onmousedown="handlePan(-1,0)">
                  <use xlink:href="#rim" fill="#404040">
                        <set attributeName="fill" to="#808080" begin="arrowLeft.mouseover" end="arrowLeft.mouseout"/>
                  </use>
                  <path fill="none" stroke="white" stroke-width="1.5" d="M0,-3.0v7 M-2.5,-0.5L0,-3.0L2.5,-0.5"/>
                </g>
        </g>
</svg>
