<?xml version="1.0" encoding="UTF-8" standalone="no"?>
<!DOCTYPE svg PUBLIC "-//W3C//DTD SVG 1.1//EN"
 "http://www.w3.org/Graphics/SVG/1.1/DTD/svg11.dtd">
<!-- Generated by graphviz version 2.26.3 (20100126.1600)
 -->
<!-- Title: G Pages: 1 -->
<!--zoomable 914 -->
<svg id="main" version="1.1" xmlns="http://www.w3.org/2000/svg" xmlns:xlink="http://www.w3.org/1999/xlink" xml:space="preserve" onload="init(evt)">
        <defs>
                <circle id="rim" cx="0" cy="0" r="7"/>
                <circle id="rim2" cx="0" cy="0" r="3.5"/>
                <g id="zoomPlus">
                        <use xlink:href="#rim" fill="#404040">
                                <set attributeName="fill" to="#808080" begin="zoomplus.mouseover" end="zoomplus.mouseout"/>
                        </use>
                        <path d="M-4,0h8M0,-4v8" fill="none" stroke="white" stroke-width="1.5" pointer-events="none"/>
                </g>
                <g id="zoomMin">
                        <use xlink:href="#rim" fill="#404040">
                                <set attributeName="fill" to="#808080" begin="zoomminus.mouseover" end="zoomminus.mouseout"/>
                        </use>
                        <path d="M-4,0h8" fill="none" stroke="white" stroke-width="1.5" pointer-events="none"/>
                </g>
                <g id="dirArrow">
                        <path fill="none" stroke="white" stroke-width="1.5" d="M0,-3.0v7 M-2.5,-0.5L0,-3.0L2.5,-0.5"/>
                </g>
               <g id="resetDef">
                       <use xlink:href="#rim2" fill="#404040">
                               <set attributeName="fill" to="#808080" begin="reset.mouseover" end="reset.mouseout"/>
                       </use>
               </g>
        </defs>

<script type="text/javascript">
var viewWidth = 1950;
var viewHeight = 914;
var sectionId = 'dynsection-1';
</script>
<script xlink:href="../../svgpan.js"/>
<svg id="graph" class="graph">
<g id="viewport">
<title>G</title>
<polygon fill="white" stroke="white" points="-4,5 -4,-909.947 1947,-909.947 1947,5 -4,5"/>
<!-- Node1 -->
<g id="node1" class="node"><title>Node1</title>
<polygon fill="#bfbfbf" stroke="black" points="1750.5,-668.447 1750.5,-689.447 1941.5,-689.447 1941.5,-668.447 1750.5,-668.447"/>
<text text-anchor="middle" x="1846" y="-676.447" font-family="Helvetica,sans-Serif" font-size="10.00">mozilla::layers::CanvasLayerComposite</text>
</g>
<!-- Node2 -->
<g id="node2" class="node"><title>Node2</title>
<a xlink:href="../../db/da3/classmozilla_1_1layers_1_1_canvas_layer.html" target="_top" xlink:title="mozilla::layers::CanvasLayer">
<polygon fill="white" stroke="black" points="1561.5,-647.447 1561.5,-668.447 1704.5,-668.447 1704.5,-647.447 1561.5,-647.447"/>
<text text-anchor="middle" x="1633" y="-655.447" font-family="Helvetica,sans-Serif" font-size="10.00">mozilla::layers::CanvasLayer</text>
</a>
</g>
<!-- Node2&#45;&gt;Node1 -->
<g id="edge2" class="edge"><title>Node2&#45;&gt;Node1</title>
<path fill="none" stroke="midnightblue" d="M1714.68,-666C1726.38,-667.154 1738.51,-668.35 1750.45,-669.527"/>
<polygon fill="midnightblue" stroke="midnightblue" points="1714.81,-662.496 1704.52,-664.998 1714.13,-669.462 1714.81,-662.496"/>
</g>
<!-- Node3 -->
<g id="node4" class="node"><title>Node3</title>
<a xlink:href="../../d9/da9/classmozilla_1_1layers_1_1_layer.html" target="_top" xlink:title="mozilla::layers::Layer">
<polygon fill="white" stroke="black" points="1268,-446.447 1268,-467.447 1378,-467.447 1378,-446.447 1268,-446.447"/>
<text text-anchor="middle" x="1323" y="-454.447" font-family="Helvetica,sans-Serif" font-size="10.00">mozilla::layers::Layer</text>
</a>
</g>
<!-- Node3&#45;&gt;Node2 -->
<g id="edge4" class="edge"><title>Node3&#45;&gt;Node2</title>
<path fill="none" stroke="midnightblue" d="M1376.18,-470.21C1421.62,-483.317 1487.19,-506.58 1536,-541.947 1577.88,-572.291 1612.74,-624.626 1626.59,-647.138"/>
<polygon fill="midnightblue" stroke="midnightblue" points="1377.09,-466.831 1366.52,-467.489 1375.19,-473.569 1377.09,-466.831"/>
</g>
<!-- Node3&#45;&gt;Node3 -->
<g id="edge6" class="edge"><title>Node3&#45;&gt;Node3</title>
<path fill="none" stroke="#9a32cd" stroke-dasharray="5,2" d="M1292.48,-476.626C1294.12,-481.922 1304.29,-485.947 1323,-485.947 1351.51,-485.947 1360.19,-476.6 1349.06,-467.655"/>
<polygon fill="#9a32cd" stroke="#9a32cd" points="1295.63,-478.168 1296.94,-467.655 1289.36,-475.053 1295.63,-478.168"/>
<text text-anchor="middle" x="1323" y="-502.947" font-family="Helvetica,sans-Serif" font-size="10.00"> mPrevSibling</text>
<text text-anchor="middle" x="1323" y="-489.947" font-family="Helvetica,sans-Serif" font-size="10.00">mNextSibling</text>
</g>
<!-- Node13 -->
<g id="node25" class="node"><title>Node13</title>
<a xlink:href="../../d0/d1c/classmozilla_1_1layers_1_1_container_layer.html" target="_top" xlink:title="mozilla::layers::ContainerLayer">
<polygon fill="white" stroke="black" points="1557,-372.447 1557,-393.447 1709,-393.447 1709,-372.447 1557,-372.447"/>
<text text-anchor="middle" x="1633" y="-380.447" font-family="Helvetica,sans-Serif" font-size="10.00">mozilla::layers::ContainerLayer</text>
</a>
</g>
<!-- Node3&#45;&gt;Node13 -->
<g id="edge28" class="edge"><title>Node3&#45;&gt;Node13</title>
<path fill="none" stroke="midnightblue" d="M1384.35,-444.332C1427.02,-435.333 1485.14,-422.626 1536,-409.947 1556.18,-404.915 1578.56,-398.727 1596.73,-393.545"/>
<polygon fill="midnightblue" stroke="midnightblue" points="1383.46,-440.941 1374.4,-446.423 1384.9,-447.792 1383.46,-440.941"/>
</g>
<!-- Node3&#45;&gt;Node13 -->
<g id="edge32" class="edge"><title>Node3&#45;&gt;Node13</title>
<path fill="none" stroke="#9a32cd" stroke-dasharray="5,2" d="M1341.51,-439.377C1362.83,-420.466 1399.84,-391.541 1438,-379.947 1480.92,-366.904 1531.65,-368.166 1570.61,-372.419"/>
<polygon fill="#9a32cd" stroke="#9a32cd" points="1338.92,-436.996 1333.88,-446.315 1343.64,-442.174 1338.92,-436.996"/>
<text text-anchor="middle" x="1487" y="-396.947" font-family="Helvetica,sans-Serif" font-size="10.00"> mFirstChild</text>
<text text-anchor="middle" x="1487" y="-383.947" font-family="Helvetica,sans-Serif" font-size="10.00">mLastChild</text>
</g>
<!-- Node4 -->
<g id="node7" class="node"><title>Node4</title>
<a xlink:href="../../d8/d2e/classmozilla_1_1_debug_only.html" target="_top" xlink:title="mozilla::DebugOnly\&lt; uint32_t \&gt;">
<polygon fill="white" stroke="black" points="857.5,-280.447 857.5,-301.447 1012.5,-301.447 1012.5,-280.447 857.5,-280.447"/>
<text text-anchor="middle" x="935" y="-288.447" font-family="Helvetica,sans-Serif" font-size="10.00">mozilla::DebugOnly&lt; uint32_t &gt;</text>
</a>
</g>
<!-- Node4&#45;&gt;Node3 -->
<g id="edge8" class="edge"><title>Node4&#45;&gt;Node3</title>
<path fill="none" stroke="#9a32cd" stroke-dasharray="5,2" d="M1023.04,-283.079C1079.09,-281.936 1151.5,-287.876 1208,-317.947 1264.68,-348.113 1304.33,-419.1 1317.87,-446.187"/>
<polygon fill="#9a32cd" stroke="#9a32cd" points="1022.67,-279.588 1012.77,-283.37 1022.87,-286.585 1022.67,-279.588"/>
<text text-anchor="middle" x="1150" y="-321.947" font-family="Helvetica,sans-Serif" font-size="10.00"> mDebugColorIndex</text>
</g>
<!-- Node5 -->
<g id="node9" class="node"><title>Node5</title>
<a xlink:href="../../d7/dc7/structns_int_rect.html" target="_top" xlink:title="nsIntRect">
<polygon fill="white" stroke="black" points="905.5,-815.447 905.5,-836.447 964.5,-836.447 964.5,-815.447 905.5,-815.447"/>
<text text-anchor="middle" x="935" y="-823.447" font-family="Helvetica,sans-Serif" font-size="10.00">nsIntRect</text>
</a>
</g>
<!-- Node5&#45;&gt;Node2 -->
<g id="edge80" class="edge"><title>Node5&#45;&gt;Node2</title>
<path fill="none" stroke="#9a32cd" stroke-dasharray="5,2" d="M974.783,-826.581C1028.19,-826.824 1125.85,-825.132 1208,-811.947 1358.1,-787.856 1421.83,-815.32 1536,-714.947 1549.73,-702.873 1539.81,-689.488 1554,-677.947 1558.72,-674.108 1564.08,-670.994 1569.74,-668.47"/>
<polygon fill="#9a32cd" stroke="#9a32cd" points="974.734,-823.08 964.71,-826.509 974.685,-830.08 974.734,-823.08"/>
<text text-anchor="middle" x="1323" y="-812.947" font-family="Helvetica,sans-Serif" font-size="10.00"> mBounds</text>
</g>
<!-- Node5&#45;&gt;Node3 -->
<g id="edge10" class="edge"><title>Node5&#45;&gt;Node3</title>
<path fill="none" stroke="#9a32cd" stroke-dasharray="5,2" d="M974.799,-815.716C1046.9,-796.812 1193.09,-756.636 1208,-737.947 1236.38,-702.374 1204.42,-574.017 1226,-533.947 1242.72,-502.9 1277.82,-480.031 1300.9,-467.604"/>
<polygon fill="#9a32cd" stroke="#9a32cd" points="973.515,-812.434 964.723,-818.346 975.283,-819.207 973.515,-812.434"/>
<text text-anchor="middle" x="1150" y="-798.947" font-family="Helvetica,sans-Serif" font-size="10.00"> mClipRect</text>
<text text-anchor="middle" x="1150" y="-785.947" font-family="Helvetica,sans-Serif" font-size="10.00">mTileSourceRect</text>
</g>
<!-- Node34 -->
<g id="node74" class="node"><title>Node34</title>
<a xlink:href="../../d9/d63/classmozilla_1_1layers_1_1_layer_composite.html" target="_top" xlink:title="mozilla::layers::LayerComposite">
<polygon fill="white" stroke="black" points="1554.5,-687.447 1554.5,-708.447 1711.5,-708.447 1711.5,-687.447 1554.5,-687.447"/>
<text text-anchor="middle" x="1633" y="-695.447" font-family="Helvetica,sans-Serif" font-size="10.00">mozilla::layers::LayerComposite</text>
</a>
</g>
<!-- Node5&#45;&gt;Node34 -->
<g id="edge92" class="edge"><title>Node5&#45;&gt;Node34</title>
<path fill="none" stroke="#9a32cd" stroke-dasharray="5,2" d="M974.383,-839.481C1075.2,-871.601 1347.92,-942.376 1536,-839.947 1590.01,-810.532 1619.91,-736.509 1629.53,-708.715"/>
<polygon fill="#9a32cd" stroke="#9a32cd" points="975.206,-836.068 964.614,-836.317 973.049,-842.728 975.206,-836.068"/>
<text text-anchor="middle" x="1323" y="-896.947" font-family="Helvetica,sans-Serif" font-size="10.00"> mShadowClipRect</text>
</g>
<!-- Node6 -->
<g id="node11" class="node"><title>Node6</title>
<a xlink:href="../../dc/db8/structmozilla_1_1gfx_1_1_base_rect.html" target="_top" xlink:title="mozilla::gfx::BaseRect\&lt; int32_t, nsIntRect, nsIntPoint, nsIntSize, nsIntMargin \&gt;">
<polygon fill="white" stroke="black" points="219.5,-815.447 219.5,-836.447 586.5,-836.447 586.5,-815.447 219.5,-815.447"/>
<text text-anchor="middle" x="403" y="-823.447" font-family="Helvetica,sans-Serif" font-size="10.00">mozilla::gfx::BaseRect&lt; int32_t, nsIntRect, nsIntPoint, nsIntSize, nsIntMargin &gt;</text>
</a>
</g>
<!-- Node6&#45;&gt;Node5 -->
<g id="edge12" class="edge"><title>Node6&#45;&gt;Node5</title>
<path fill="none" stroke="midnightblue" d="M596.835,-825.947C711.866,-825.947 846.374,-825.947 905.067,-825.947"/>
<polygon fill="midnightblue" stroke="midnightblue" points="596.829,-822.447 586.829,-825.947 596.829,-829.447 596.829,-822.447"/>
</g>
<!-- Node7 -->
<g id="node13" class="node"><title>Node7</title>
<a xlink:href="../../de/d80/structmozilla_1_1gfx_1_1_point_typed.html" target="_top" xlink:title="mozilla::gfx::PointTyped\&lt; LayerPixel \&gt;">
<polygon fill="white" stroke="black" points="842,-400.447 842,-421.447 1028,-421.447 1028,-400.447 842,-400.447"/>
<text text-anchor="middle" x="935" y="-408.447" font-family="Helvetica,sans-Serif" font-size="10.00">mozilla::gfx::PointTyped&lt; LayerPixel &gt;</text>
</a>
</g>
<!-- Node7&#45;&gt;Node3 -->
<g id="edge14" class="edge"><title>Node7&#45;&gt;Node3</title>
<path fill="none" stroke="#9a32cd" stroke-dasharray="5,2" d="M1038.37,-414.213C1089.61,-416.828 1152.29,-421.524 1208,-429.947 1233.96,-433.871 1262.71,-440.621 1284.97,-446.39"/>
<polygon fill="#9a32cd" stroke="#9a32cd" points="1038.44,-410.712 1028.28,-413.717 1038.1,-417.704 1038.44,-410.712"/>
<text text-anchor="middle" x="1150" y="-433.947" font-family="Helvetica,sans-Serif" font-size="10.00"> mAnchor</text>
</g>
<!-- Node8 -->
<g id="node15" class="node"><title>Node8</title>
<a xlink:href="../../d2/dfb/structmozilla_1_1gfx_1_1_base_point.html" target="_top" xlink:title="mozilla::gfx::BasePoint\&lt; Float, PointTyped\&lt; LayerPixel \&gt; \&gt;">
<polygon fill="white" stroke="black" points="264.5,-400.447 264.5,-421.447 541.5,-421.447 541.5,-400.447 264.5,-400.447"/>
<text text-anchor="middle" x="403" y="-408.447" font-family="Helvetica,sans-Serif" font-size="10.00">mozilla::gfx::BasePoint&lt; Float, PointTyped&lt; LayerPixel &gt; &gt;</text>
</a>
</g>
<!-- Node8&#45;&gt;Node7 -->
<g id="edge16" class="edge"><title>Node8&#45;&gt;Node7</title>
<path fill="none" stroke="midnightblue" d="M551.804,-410.947C644.819,-410.947 761.73,-410.947 841.805,-410.947"/>
<polygon fill="midnightblue" stroke="midnightblue" points="551.735,-407.447 541.735,-410.947 551.735,-414.447 551.735,-407.447"/>
</g>
<!-- Node9 -->
<g id="node17" class="node"><title>Node9</title>
<a xlink:href="../../da/db9/structmozilla_1_1_layer_pixel.html" target="_top" xlink:title="mozilla::LayerPixel">
<polygon fill="white" stroke="black" points="353.5,-360.447 353.5,-381.447 452.5,-381.447 452.5,-360.447 353.5,-360.447"/>
<text text-anchor="middle" x="403" y="-368.447" font-family="Helvetica,sans-Serif" font-size="10.00">mozilla::LayerPixel</text>
</a>
</g>
<!-- Node9&#45;&gt;Node7 -->
<g id="edge18" class="edge"><title>Node9&#45;&gt;Node7</title>
<path fill="none" stroke="midnightblue" d="M462.856,-374.522C523.995,-378.263 621.652,-384.481 706,-390.947 750.666,-394.371 800.19,-398.638 841.724,-402.35"/>
<polygon fill="midnightblue" stroke="midnightblue" points="462.815,-371.013 452.621,-373.898 462.389,-378 462.815,-371.013"/>
</g>
<!-- Node27 -->
<g id="node56" class="node"><title>Node27</title>
<a xlink:href="../../d8/d1c/structmozilla_1_1gfx_1_1_margin_typed.html" target="_top" xlink:title="mozilla::gfx::MarginTyped\&lt; LayerPixel \&gt;">
<polygon fill="white" stroke="black" points="838.5,-320.447 838.5,-341.447 1031.5,-341.447 1031.5,-320.447 838.5,-320.447"/>
<text text-anchor="middle" x="935" y="-328.447" font-family="Helvetica,sans-Serif" font-size="10.00">mozilla::gfx::MarginTyped&lt; LayerPixel &gt;</text>
</a>
</g>
<!-- Node9&#45;&gt;Node27 -->
<g id="edge64" class="edge"><title>Node9&#45;&gt;Node27</title>
<path fill="none" stroke="midnightblue" d="M462.856,-367.372C523.995,-363.631 621.652,-357.413 706,-350.947 749.472,-347.614 797.546,-343.484 838.377,-339.843"/>
<polygon fill="midnightblue" stroke="midnightblue" points="462.389,-363.893 452.621,-367.995 462.815,-370.88 462.389,-363.893"/>
</g>
<!-- Node10 -->
<g id="node19" class="node"><title>Node10</title>
<a xlink:href="../../d6/d3b/classgfx3_d_matrix.html" target="_top" xlink:title="gfx3DMatrix">
<polygon fill="white" stroke="black" points="900,-596.447 900,-617.447 970,-617.447 970,-596.447 900,-596.447"/>
<text text-anchor="middle" x="935" y="-604.447" font-family="Helvetica,sans-Serif" font-size="10.00">gfx3DMatrix</text>
</a>
</g>
<!-- Node10&#45;&gt;Node3 -->
<g id="edge20" class="edge"><title>Node10&#45;&gt;Node3</title>
<path fill="none" stroke="#9a32cd" stroke-dasharray="5,2" d="M980.465,-602.916C1036.3,-596.612 1132.85,-581.258 1208,-545.947 1219.31,-540.633 1281.92,-490.299 1309.71,-467.764"/>
<polygon fill="#9a32cd" stroke="#9a32cd" points="979.759,-599.471 970.192,-604.025 980.51,-606.431 979.759,-599.471"/>
<text text-anchor="middle" x="1150" y="-600.947" font-family="Helvetica,sans-Serif" font-size="10.00"> mEffectiveTransform</text>
<text text-anchor="middle" x="1150" y="-587.947" font-family="Helvetica,sans-Serif" font-size="10.00">mTransform</text>
</g>
<!-- Node10&#45;&gt;Node34 -->
<g id="edge94" class="edge"><title>Node10&#45;&gt;Node34</title>
<path fill="none" stroke="#9a32cd" stroke-dasharray="5,2" d="M980.225,-611.825C1066.07,-621.203 1258.5,-642.786 1420,-664.947 1470.05,-671.814 1526.54,-680.616 1568.77,-687.402"/>
<polygon fill="#9a32cd" stroke="#9a32cd" points="980.37,-608.32 970.049,-610.716 979.611,-615.279 980.37,-608.32"/>
<text text-anchor="middle" x="1323" y="-668.947" font-family="Helvetica,sans-Serif" font-size="10.00"> mShadowTransform</text>
</g>
<!-- Node11 -->
<g id="node21" class="node"><title>Node11</title>
<a xlink:href="../../d1/db5/classmozilla_1_1gfx_1_1_user_data.html" target="_top" xlink:title="mozilla::gfx::UserData">
<polygon fill="white" stroke="black" points="345.5,-464.447 345.5,-485.447 460.5,-485.447 460.5,-464.447 345.5,-464.447"/>
<text text-anchor="middle" x="403" y="-472.447" font-family="Helvetica,sans-Serif" font-size="10.00">mozilla::gfx::UserData</text>
</a>
</g>
<!-- Node11&#45;&gt;Node3 -->
<g id="edge22" class="edge"><title>Node11&#45;&gt;Node3</title>
<path fill="none" stroke="#9a32cd" stroke-dasharray="5,2" d="M470.63,-473.624C645.118,-470.21 1107.99,-461.154 1267.81,-458.027"/>
<polygon fill="#9a32cd" stroke="#9a32cd" points="470.48,-470.126 460.55,-473.821 470.617,-477.125 470.48,-470.126"/>
<text text-anchor="middle" x="935" y="-470.947" font-family="Helvetica,sans-Serif" font-size="10.00"> mUserData</text>
</g>
<!-- Node29 -->
<g id="node61" class="node"><title>Node29</title>
<a xlink:href="../../d1/d01/classmozilla_1_1layers_1_1_layer_manager.html" target="_top" xlink:title="mozilla::layers::LayerManager">
<polygon fill="white" stroke="black" points="861.5,-643.447 861.5,-664.447 1008.5,-664.447 1008.5,-643.447 861.5,-643.447"/>
<text text-anchor="middle" x="935" y="-651.447" font-family="Helvetica,sans-Serif" font-size="10.00">mozilla::layers::LayerManager</text>
</a>
</g>
<!-- Node11&#45;&gt;Node29 -->
<g id="edge72" class="edge"><title>Node11&#45;&gt;Node29</title>
<path fill="none" stroke="#9a32cd" stroke-dasharray="5,2" d="M470.98,-482.657C534.282,-491.758 630.031,-510.515 706,-546.947 742.553,-564.477 749.587,-574.031 778,-602.947 787.345,-612.457 784.7,-619.869 796,-626.947 815.375,-639.083 839.017,-645.964 861.269,-649.808"/>
<polygon fill="#9a32cd" stroke="#9a32cd" points="471.106,-479.141 460.719,-481.226 470.139,-486.074 471.106,-479.141"/>
<text text-anchor="middle" x="751" y="-606.947" font-family="Helvetica,sans-Serif" font-size="10.00"> mUserData</text>
</g>
<!-- Node12 -->
<g id="node23" class="node"><title>Node12</title>
<a xlink:href="../../d1/d89/classns_auto_ptr.html" target="_top" xlink:title="nsAutoPtr\&lt; gfx3DMatrix \&gt;">
<polygon fill="white" stroke="black" points="869.5,-360.447 869.5,-381.447 1000.5,-381.447 1000.5,-360.447 869.5,-360.447"/>
<text text-anchor="middle" x="935" y="-368.447" font-family="Helvetica,sans-Serif" font-size="10.00">nsAutoPtr&lt; gfx3DMatrix &gt;</text>
</a>
</g>
<!-- Node12&#45;&gt;Node3 -->
<g id="edge24" class="edge"><title>Node12&#45;&gt;Node3</title>
<path fill="none" stroke="#9a32cd" stroke-dasharray="5,2" d="M1010.87,-372.332C1066.42,-375.009 1143.1,-382.193 1208,-400.947 1244.69,-411.55 1283.99,-433.185 1305.83,-446.241"/>
<polygon fill="#9a32cd" stroke="#9a32cd" points="1010.9,-368.83 1000.75,-371.883 1010.59,-375.823 1010.9,-368.83"/>
<text text-anchor="middle" x="1150" y="-404.947" font-family="Helvetica,sans-Serif" font-size="10.00"> mPendingTransform</text>
</g>
<!-- Node13&#45;&gt;Node3 -->
<g id="edge26" class="edge"><title>Node13&#45;&gt;Node3</title>
<path fill="none" stroke="#9a32cd" stroke-dasharray="5,2" d="M1609.14,-399.159C1590.18,-411.171 1562.53,-426.812 1536,-434.947 1484.11,-450.858 1422.13,-455.776 1378.44,-457.065"/>
<polygon fill="#9a32cd" stroke="#9a32cd" points="1611.22,-401.981 1617.7,-393.602 1607.41,-396.108 1611.22,-401.981"/>
<text text-anchor="middle" x="1487" y="-456.947" font-family="Helvetica,sans-Serif" font-size="10.00"> mParent</text>
</g>
<!-- Node14 -->
<g id="node28" class="node"><title>Node14</title>
<a xlink:href="../../d0/d01/classns_ref_ptr.html" target="_top" xlink:title="nsRefPtr\&lt; AsyncPanZoomController \&gt;">
<polygon fill="white" stroke="black" points="1230.5,-109.447 1230.5,-130.447 1415.5,-130.447 1415.5,-109.447 1230.5,-109.447"/>
<text text-anchor="middle" x="1323" y="-117.447" font-family="Helvetica,sans-Serif" font-size="10.00">nsRefPtr&lt; AsyncPanZoomController &gt;</text>
</a>
</g>
<!-- Node14&#45;&gt;Node13 -->
<g id="edge30" class="edge"><title>Node14&#45;&gt;Node13</title>
<path fill="none" stroke="#9a32cd" stroke-dasharray="5,2" d="M1403.01,-133.432C1408.86,-135.329 1414.58,-137.488 1420,-139.947 1478.92,-166.698 1492.34,-180.181 1536,-227.947 1579.69,-275.748 1615.34,-345.793 1628.03,-372.276"/>
<polygon fill="#9a32cd" stroke="#9a32cd" points="1403.66,-129.975 1393.08,-130.483 1401.67,-136.685 1403.66,-129.975"/>
<text text-anchor="middle" x="1487" y="-231.947" font-family="Helvetica,sans-Serif" font-size="10.00"> mAPZC</text>
</g>
<!-- Node15 -->
<g id="node31" class="node"><title>Node15</title>
<a xlink:href="../../d5/d2f/structmozilla_1_1layers_1_1_frame_metrics.html" target="_top" xlink:title="mozilla::layers::FrameMetrics">
<polygon fill="white" stroke="black" points="1250,-149.447 1250,-170.447 1396,-170.447 1396,-149.447 1250,-149.447"/>
<text text-anchor="middle" x="1323" y="-157.447" font-family="Helvetica,sans-Serif" font-size="10.00">mozilla::layers::FrameMetrics</text>
</a>
</g>
<!-- Node15&#45;&gt;Node13 -->
<g id="edge34" class="edge"><title>Node15&#45;&gt;Node13</title>
<path fill="none" stroke="#9a32cd" stroke-dasharray="5,2" d="M1346.12,-176.578C1406.62,-220.103 1568.39,-336.471 1618.2,-372.299"/>
<polygon fill="#9a32cd" stroke="#9a32cd" points="1348.11,-173.701 1337.95,-170.703 1344.03,-179.384 1348.11,-173.701"/>
<text text-anchor="middle" x="1487" y="-314.947" font-family="Helvetica,sans-Serif" font-size="10.00"> mFrameMetrics</text>
</g>
<!-- Node16 -->
<g id="node33" class="node"><title>Node16</title>
<a xlink:href="../../de/d80/structmozilla_1_1gfx_1_1_point_typed.html" target="_top" xlink:title="mozilla::gfx::PointTyped\&lt; CSSPixel \&gt;">
<polygon fill="white" stroke="black" points="843.5,-13.447 843.5,-34.447 1026.5,-34.447 1026.5,-13.447 843.5,-13.447"/>
<text text-anchor="middle" x="935" y="-21.447" font-family="Helvetica,sans-Serif" font-size="10.00">mozilla::gfx::PointTyped&lt; CSSPixel &gt;</text>
</a>
</g>
<!-- Node16&#45;&gt;Node15 -->
<g id="edge36" class="edge"><title>Node16&#45;&gt;Node15</title>
<path fill="none" stroke="#9a32cd" stroke-dasharray="5,2" d="M983.138,-11.1622C1043.54,1.70806 1146.63,12.6954 1208,-41.947 1241.07,-71.3959 1195.03,-108.296 1226,-139.947 1232.61,-146.706 1240.86,-151.484 1249.74,-154.82"/>
<polygon fill="#9a32cd" stroke="#9a32cd" points="982.097,-7.80828 973.1,-13.4025 983.622,-14.6402 982.097,-7.80828"/>
<text text-anchor="middle" x="1150" y="-45.947" font-family="Helvetica,sans-Serif" font-size="10.00"> mScrollOffset</text>
</g>
<!-- Node17 -->
<g id="node35" class="node"><title>Node17</title>
<a xlink:href="../../d2/dfb/structmozilla_1_1gfx_1_1_base_point.html" target="_top" xlink:title="mozilla::gfx::BasePoint\&lt; Float, PointTyped\&lt; CSSPixel \&gt; \&gt;">
<polygon fill="white" stroke="black" points="266,-13.447 266,-34.447 540,-34.447 540,-13.447 266,-13.447"/>
<text text-anchor="middle" x="403" y="-21.447" font-family="Helvetica,sans-Serif" font-size="10.00">mozilla::gfx::BasePoint&lt; Float, PointTyped&lt; CSSPixel &gt; &gt;</text>
</a>
</g>
<!-- Node17&#45;&gt;Node16 -->
<g id="edge38" class="edge"><title>Node17&#45;&gt;Node16</title>
<path fill="none" stroke="midnightblue" d="M550.158,-23.947C643.986,-23.947 762.647,-23.947 843.227,-23.947"/>
<polygon fill="midnightblue" stroke="midnightblue" points="550.003,-20.4471 540.003,-23.947 550.003,-27.4471 550.003,-20.4471"/>
</g>
<!-- Node18 -->
<g id="node37" class="node"><title>Node18</title>
<a xlink:href="../../da/d4f/structmozilla_1_1_c_s_s_pixel.html" target="_top" xlink:title="mozilla::CSSPixel">
<polygon fill="white" stroke="black" points="355,-93.447 355,-114.447 451,-114.447 451,-93.447 355,-93.447"/>
<text text-anchor="middle" x="403" y="-101.447" font-family="Helvetica,sans-Serif" font-size="10.00">mozilla::CSSPixel</text>
</a>
</g>
<!-- Node18&#45;&gt;Node16 -->
<g id="edge40" class="edge"><title>Node18&#45;&gt;Node16</title>
<path fill="none" stroke="midnightblue" d="M461.342,-106.109C523.045,-107.009 622.782,-104.494 706,-83.947 748.496,-73.4542 753.939,-56.0675 796,-43.947 811.111,-39.5926 827.431,-36.1629 843.391,-33.4682"/>
<polygon fill="midnightblue" stroke="midnightblue" points="461.087,-102.603 451.025,-105.921 460.96,-109.602 461.087,-102.603"/>
</g>
<!-- Node25 -->
<g id="node51" class="node"><title>Node25</title>
<a xlink:href="../../d5/d9e/structmozilla_1_1gfx_1_1_rect_typed.html" target="_top" xlink:title="mozilla::gfx::RectTyped\&lt; CSSPixel \&gt;">
<polygon fill="white" stroke="black" points="844,-173.447 844,-194.447 1026,-194.447 1026,-173.447 844,-173.447"/>
<text text-anchor="middle" x="935" y="-181.447" font-family="Helvetica,sans-Serif" font-size="10.00">mozilla::gfx::RectTyped&lt; CSSPixel &gt;</text>
</a>
</g>
<!-- Node18&#45;&gt;Node25 -->
<g id="edge58" class="edge"><title>Node18&#45;&gt;Node25</title>
<path fill="none" stroke="midnightblue" d="M461.342,-101.785C523.045,-100.885 622.782,-103.4 706,-123.947 748.496,-134.44 753.939,-151.826 796,-163.947 811.228,-168.335 827.684,-171.784 843.762,-174.488"/>
<polygon fill="midnightblue" stroke="midnightblue" points="460.96,-98.2917 451.025,-101.973 461.087,-105.291 460.96,-98.2917"/>
</g>
<!-- Node19 -->
<g id="node39" class="node"><title>Node19</title>
<a xlink:href="../../dc/d67/structmozilla_1_1gfx_1_1_scale_factor.html" target="_top" xlink:title="mozilla::gfx::ScaleFactor\&lt; CSSPixel, LayoutDevicePixel \&gt;">
<polygon fill="white" stroke="black" points="798,-240.447 798,-261.447 1072,-261.447 1072,-240.447 798,-240.447"/>
<text text-anchor="middle" x="935" y="-248.447" font-family="Helvetica,sans-Serif" font-size="10.00">mozilla::gfx::ScaleFactor&lt; CSSPixel, LayoutDevicePixel &gt;</text>
</a>
</g>
<!-- Node19&#45;&gt;Node15 -->
<g id="edge42" class="edge"><title>Node19&#45;&gt;Node15</title>
<path fill="none" stroke="#9a32cd" stroke-dasharray="5,2" d="M1082.33,-253.032C1123.76,-250.183 1168.32,-243.794 1208,-230.947 1249.07,-217.648 1290.51,-186.788 1310.57,-170.481"/>
<polygon fill="#9a32cd" stroke="#9a32cd" points="1081.92,-249.551 1072.15,-253.666 1082.35,-256.538 1081.92,-249.551"/>
<text text-anchor="middle" x="1150" y="-255.947" font-family="Helvetica,sans-Serif" font-size="10.00"> mDevPixelsPerCSSPixel</text>
</g>
<!-- Node20 -->
<g id="node41" class="node"><title>Node20</title>
<a xlink:href="../../dd/de9/structmozilla_1_1gfx_1_1_int_rect_typed.html" target="_top" xlink:title="mozilla::gfx::IntRectTyped\&lt; ScreenPixel \&gt;">
<polygon fill="white" stroke="black" points="833.5,-53.447 833.5,-74.447 1036.5,-74.447 1036.5,-53.447 833.5,-53.447"/>
<text text-anchor="middle" x="935" y="-61.447" font-family="Helvetica,sans-Serif" font-size="10.00">mozilla::gfx::IntRectTyped&lt; ScreenPixel &gt;</text>
</a>
</g>
<!-- Node20&#45;&gt;Node15 -->
<g id="edge44" class="edge"><title>Node20&#45;&gt;Node15</title>
<path fill="none" stroke="#9a32cd" stroke-dasharray="5,2" d="M1046.85,-57.91C1110.89,-56.8321 1183.3,-60.4183 1208,-79.947 1229.84,-97.2126 1205.47,-121.147 1226,-139.947 1232.85,-146.217 1241.12,-150.732 1249.92,-153.953"/>
<polygon fill="#9a32cd" stroke="#9a32cd" points="1046.58,-54.4147 1036.66,-58.1213 1046.73,-61.4132 1046.58,-54.4147"/>
<text text-anchor="middle" x="1150" y="-83.947" font-family="Helvetica,sans-Serif" font-size="10.00"> mCompositionBounds</text>
</g>
<!-- Node21 -->
<g id="node43" class="node"><title>Node21</title>
<a xlink:href="../../dc/db8/structmozilla_1_1gfx_1_1_base_rect.html" target="_top" xlink:title="mozilla::gfx::BaseRect\&lt; int32_t, IntRectTyped\&lt; ScreenPixel \&gt;, IntPointTyped\&lt; ScreenPixel \&gt;, IntSizeTyped\&lt; ScreenPixel \&gt;, Margin \&gt;">
<polygon fill="white" stroke="black" points="100,-53.447 100,-74.447 706,-74.447 706,-53.447 100,-53.447"/>
<text text-anchor="middle" x="403" y="-61.447" font-family="Helvetica,sans-Serif" font-size="10.00">mozilla::gfx::BaseRect&lt; int32_t, IntRectTyped&lt; ScreenPixel &gt;, IntPointTyped&lt; ScreenPixel &gt;, IntSizeTyped&lt; ScreenPixel &gt;, Margin &gt;</text>
</a>
</g>
<!-- Node21&#45;&gt;Node20 -->
<g id="edge46" class="edge"><title>Node21&#45;&gt;Node20</title>
<path fill="none" stroke="midnightblue" d="M716.453,-63.947C758.559,-63.947 799.026,-63.947 833.447,-63.947"/>
<polygon fill="midnightblue" stroke="midnightblue" points="716.297,-60.4471 706.297,-63.947 716.297,-67.4471 716.297,-60.4471"/>
</g>
<!-- Node22 -->
<g id="node45" class="node"><title>Node22</title>
<a xlink:href="../../d4/d94/structmozilla_1_1_screen_pixel.html" target="_top" xlink:title="mozilla::ScreenPixel">
<polygon fill="white" stroke="black" points="350,-133.447 350,-154.447 456,-154.447 456,-133.447 350,-133.447"/>
<text text-anchor="middle" x="403" y="-141.447" font-family="Helvetica,sans-Serif" font-size="10.00">mozilla::ScreenPixel</text>
</a>
</g>
<!-- Node22&#45;&gt;Node20 -->
<g id="edge48" class="edge"><title>Node22&#45;&gt;Node20</title>
<path fill="none" stroke="midnightblue" d="M466.156,-146.171C528.142,-146.868 624.913,-143.968 706,-123.947 748.496,-113.454 753.939,-96.0675 796,-83.947 809.236,-80.1327 823.401,-77.0279 837.439,-74.5052"/>
<polygon fill="midnightblue" stroke="midnightblue" points="466.186,-142.671 456.136,-146.023 466.083,-149.67 466.186,-142.671"/>
</g>
<!-- Node23 -->
<g id="node47" class="node"><title>Node23</title>
<a xlink:href="../../dc/d67/structmozilla_1_1gfx_1_1_scale_factor.html" target="_top" xlink:title="mozilla::gfx::ScaleFactor\&lt; ScreenPixel, ScreenPixel \&gt;">
<polygon fill="white" stroke="black" points="808,-133.447 808,-154.447 1062,-154.447 1062,-133.447 808,-133.447"/>
<text text-anchor="middle" x="935" y="-141.447" font-family="Helvetica,sans-Serif" font-size="10.00">mozilla::gfx::ScaleFactor&lt; ScreenPixel, ScreenPixel &gt;</text>
</a>
</g>
<!-- Node23&#45;&gt;Node15 -->
<g id="edge50" class="edge"><title>Node23&#45;&gt;Node15</title>
<path fill="none" stroke="#9a32cd" stroke-dasharray="5,2" d="M1072.29,-139.319C1115.75,-138.96 1163.93,-139.707 1208,-142.947 1226.01,-144.271 1245.49,-146.747 1263.2,-149.408"/>
<polygon fill="#9a32cd" stroke="#9a32cd" points="1072.19,-135.82 1062.23,-139.423 1072.27,-142.82 1072.19,-135.82"/>
<text text-anchor="middle" x="1150" y="-146.947" font-family="Helvetica,sans-Serif" font-size="10.00"> mZoom</text>
</g>
<!-- Node24 -->
<g id="node49" class="node"><title>Node24</title>
<a xlink:href="../../dc/d67/structmozilla_1_1gfx_1_1_scale_factor.html" target="_top" xlink:title="mozilla::gfx::ScaleFactor\&lt; LayoutDevicePixel, LayerPixel \&gt;">
<polygon fill="white" stroke="black" points="796.5,-93.447 796.5,-114.447 1073.5,-114.447 1073.5,-93.447 796.5,-93.447"/>
<text text-anchor="middle" x="935" y="-101.447" font-family="Helvetica,sans-Serif" font-size="10.00">mozilla::gfx::ScaleFactor&lt; LayoutDevicePixel, LayerPixel &gt;</text>
</a>
</g>
<!-- Node24&#45;&gt;Node15 -->
<g id="edge52" class="edge"><title>Node24&#45;&gt;Node15</title>
<path fill="none" stroke="#9a32cd" stroke-dasharray="5,2" d="M1083.94,-96.0674C1125.49,-98.6703 1169.71,-106.161 1208,-122.947 1218.08,-127.365 1216.24,-134.865 1226,-139.947 1233.47,-143.838 1241.64,-146.973 1249.96,-149.497"/>
<polygon fill="#9a32cd" stroke="#9a32cd" points="1083.89,-92.56 1073.72,-95.5208 1083.52,-99.5501 1083.89,-92.56"/>
<text text-anchor="middle" x="1150" y="-126.947" font-family="Helvetica,sans-Serif" font-size="10.00"> mResolution</text>
</g>
<!-- Node25&#45;&gt;Node15 -->
<g id="edge54" class="edge"><title>Node25&#45;&gt;Node15</title>
<path fill="none" stroke="#9a32cd" stroke-dasharray="5,2" d="M1036.62,-177.661C1103.59,-173.519 1189.73,-168.19 1249.98,-164.464"/>
<polygon fill="#9a32cd" stroke="#9a32cd" points="1036.22,-174.179 1026.46,-178.29 1036.66,-181.166 1036.22,-174.179"/>
<text text-anchor="middle" x="1150" y="-217.947" font-family="Helvetica,sans-Serif" font-size="10.00"> mScrollableRect</text>
<text text-anchor="middle" x="1150" y="-204.947" font-family="Helvetica,sans-Serif" font-size="10.00">mViewport</text>
<text text-anchor="middle" x="1150" y="-191.947" font-family="Helvetica,sans-Serif" font-size="10.00">mCriticalDisplayPort</text>
<text text-anchor="middle" x="1150" y="-178.947" font-family="Helvetica,sans-Serif" font-size="10.00">mDisplayPort</text>
</g>
<!-- Node26 -->
<g id="node53" class="node"><title>Node26</title>
<a xlink:href="../../dc/db8/structmozilla_1_1gfx_1_1_base_rect.html" target="_top" xlink:title="mozilla::gfx::BaseRect\&lt; Float, RectTyped\&lt; CSSPixel \&gt;, PointTyped\&lt; CSSPixel \&gt;, SizeTyped\&lt; CSSPixel \&gt;, Margin \&gt;">
<polygon fill="white" stroke="black" points="135,-173.447 135,-194.447 671,-194.447 671,-173.447 135,-173.447"/>
<text text-anchor="middle" x="403" y="-181.447" font-family="Helvetica,sans-Serif" font-size="10.00">mozilla::gfx::BaseRect&lt; Float, RectTyped&lt; CSSPixel &gt;, PointTyped&lt; CSSPixel &gt;, SizeTyped&lt; CSSPixel &gt;, Margin &gt;</text>
</a>
</g>
<!-- Node26&#45;&gt;Node25 -->
<g id="edge56" class="edge"><title>Node26&#45;&gt;Node25</title>
<path fill="none" stroke="midnightblue" d="M681.544,-183.947C740.319,-183.947 798.276,-183.947 843.901,-183.947"/>
<polygon fill="midnightblue" stroke="midnightblue" points="681.338,-180.447 671.338,-183.947 681.338,-187.447 681.338,-180.447"/>
</g>
<!-- Node27&#45;&gt;Node3 -->
<g id="edge60" class="edge"><title>Node27&#45;&gt;Node3</title>
<path fill="none" stroke="#9a32cd" stroke-dasharray="5,2" d="M1041.79,-329.633C1093.73,-332.401 1156,-340.902 1208,-362.947 1253.82,-382.372 1295.92,-425.935 1313.86,-446.2"/>
<polygon fill="#9a32cd" stroke="#9a32cd" points="1041.71,-326.125 1031.55,-329.153 1041.38,-333.117 1041.71,-326.125"/>
<text text-anchor="middle" x="1150" y="-366.947" font-family="Helvetica,sans-Serif" font-size="10.00"> mMargins</text>
</g>
<!-- Node28 -->
<g id="node58" class="node"><title>Node28</title>
<a xlink:href="../../dd/db7/structmozilla_1_1gfx_1_1_base_margin.html" target="_top" xlink:title="mozilla::gfx::BaseMargin\&lt; Float, MarginTyped\&lt; LayerPixel \&gt; \&gt;">
<polygon fill="white" stroke="black" points="258,-320.447 258,-341.447 548,-341.447 548,-320.447 258,-320.447"/>
<text text-anchor="middle" x="403" y="-328.447" font-family="Helvetica,sans-Serif" font-size="10.00">mozilla::gfx::BaseMargin&lt; Float, MarginTyped&lt; LayerPixel &gt; &gt;</text>
</a>
</g>
<!-- Node28&#45;&gt;Node27 -->
<g id="edge62" class="edge"><title>Node28&#45;&gt;Node27</title>
<path fill="none" stroke="midnightblue" d="M558.119,-330.947C648.728,-330.947 760.244,-330.947 838.377,-330.947"/>
<polygon fill="midnightblue" stroke="midnightblue" points="558.02,-327.447 548.02,-330.947 558.02,-334.447 558.02,-327.447"/>
</g>
<!-- Node29&#45;&gt;Node3 -->
<g id="edge66" class="edge"><title>Node29&#45;&gt;Node3</title>
<path fill="none" stroke="#9a32cd" stroke-dasharray="5,2" d="M1018.67,-651.845C1088.6,-648.307 1181.09,-638.893 1208,-613.947 1234.73,-589.172 1206.62,-564.814 1226,-533.947 1244.98,-503.718 1280.13,-480.316 1302.5,-467.597"/>
<polygon fill="#9a32cd" stroke="#9a32cd" points="1018.35,-648.356 1008.53,-652.325 1018.68,-655.348 1018.35,-648.356"/>
<text text-anchor="middle" x="1150" y="-649.947" font-family="Helvetica,sans-Serif" font-size="10.00"> mManager</text>
</g>
<!-- Node36 -->
<g id="node78" class="node"><title>Node36</title>
<a xlink:href="../../da/d0a/classmozilla_1_1layers_1_1_layer_manager_composite.html" target="_top" xlink:title="mozilla::layers::LayerManagerComposite">
<polygon fill="white" stroke="black" points="1226,-687.447 1226,-708.447 1420,-708.447 1420,-687.447 1226,-687.447"/>
<text text-anchor="middle" x="1323" y="-695.447" font-family="Helvetica,sans-Serif" font-size="10.00">mozilla::layers::LayerManagerComposite</text>
</a>
</g>
<!-- Node29&#45;&gt;Node36 -->
<g id="edge88" class="edge"><title>Node29&#45;&gt;Node36</title>
<path fill="none" stroke="midnightblue" d="M1011.37,-665.992C1036.96,-669.8 1065.68,-673.825 1092,-676.947 1135.89,-682.153 1184.6,-686.755 1225.94,-690.314"/>
<polygon fill="midnightblue" stroke="midnightblue" points="1011.76,-662.513 1001.35,-664.49 1010.72,-669.435 1011.76,-662.513"/>
</g>
<!-- Node30 -->
<g id="node63" class="node"><title>Node30</title>
<a xlink:href="../../da/d4e/struct_p_r_log_module_info.html" target="_top" xlink:title="PRLogModuleInfo">
<polygon fill="white" stroke="black" points="355.5,-643.447 355.5,-664.447 450.5,-664.447 450.5,-643.447 355.5,-643.447"/>
<text text-anchor="middle" x="403" y="-651.447" font-family="Helvetica,sans-Serif" font-size="10.00">PRLogModuleInfo</text>
</a>
</g>
<!-- Node30&#45;&gt;Node29 -->
<g id="edge68" class="edge"><title>Node30&#45;&gt;Node29</title>
<path fill="none" stroke="#9a32cd" stroke-dasharray="5,2" d="M460.909,-653.947C558.17,-653.947 754.17,-653.947 861.175,-653.947"/>
<polygon fill="#9a32cd" stroke="#9a32cd" points="460.68,-650.447 450.68,-653.947 460.68,-657.447 460.68,-650.447"/>
<text text-anchor="middle" x="751" y="-657.947" font-family="Helvetica,sans-Serif" font-size="10.00"> sLog</text>
</g>
<!-- Node31 -->
<g id="node65" class="node"><title>Node31</title>
<polygon fill="white" stroke="#bfbfbf" points="0.5,-643.447 0.5,-664.447 41.5,-664.447 41.5,-643.447 0.5,-643.447"/>
<text text-anchor="middle" x="21" y="-651.447" font-family="Helvetica,sans-Serif" font-size="10.00">struct</text>
</g>
<!-- Node31&#45;&gt;Node30 -->
<g id="edge70" class="edge"><title>Node31&#45;&gt;Node30</title>
<path fill="none" stroke="#9a32cd" stroke-dasharray="5,2" d="M51.7718,-653.947C118.293,-653.947 275.886,-653.947 355.386,-653.947"/>
<polygon fill="#9a32cd" stroke="#9a32cd" points="51.538,-650.447 41.538,-653.947 51.5379,-657.447 51.538,-650.447"/>
<text text-anchor="middle" x="71" y="-657.947" font-family="Helvetica,sans-Serif" font-size="10.00"> next</text>
</g>
<!-- Node32 -->
<g id="node68" class="node"><title>Node32</title>
<a xlink:href="../../d0/d01/classns_ref_ptr.html" target="_top" xlink:title="nsRefPtr\&lt; Layer \&gt;">
<polygon fill="white" stroke="black" points="354,-556.447 354,-577.447 452,-577.447 452,-556.447 354,-556.447"/>
<text text-anchor="middle" x="403" y="-564.447" font-family="Helvetica,sans-Serif" font-size="10.00">nsRefPtr&lt; Layer &gt;</text>
</a>
</g>
<!-- Node32&#45;&gt;Node3 -->
<g id="edge76" class="edge"><title>Node32&#45;&gt;Node3</title>
<path fill="none" stroke="#9a32cd" stroke-dasharray="5,2" d="M462.25,-559.863C629.787,-539.831 1105.29,-482.977 1267.78,-463.55"/>
<polygon fill="#9a32cd" stroke="#9a32cd" points="461.652,-556.409 452.138,-561.072 462.483,-563.36 461.652,-556.409"/>
<text text-anchor="middle" x="935" y="-522.947" font-family="Helvetica,sans-Serif" font-size="10.00"> mMaskLayer</text>
</g>
<!-- Node32&#45;&gt;Node29 -->
<g id="edge74" class="edge"><title>Node32&#45;&gt;Node29</title>
<path fill="none" stroke="#9a32cd" stroke-dasharray="5,2" d="M462.085,-576.609C562.664,-593.057 766.344,-626.366 870.497,-643.399"/>
<polygon fill="#9a32cd" stroke="#9a32cd" points="462.53,-573.136 452.096,-574.976 461.4,-580.044 462.53,-573.136"/>
<text text-anchor="middle" x="751" y="-631.947" font-family="Helvetica,sans-Serif" font-size="10.00"> mRoot</text>
</g>
<!-- Node33 -->
<g id="node71" class="node"><title>Node33</title>
<a xlink:href="../../d5/d82/classns_int_region.html" target="_top" xlink:title="nsIntRegion">
<polygon fill="white" stroke="black" points="900.5,-543.447 900.5,-564.447 969.5,-564.447 969.5,-543.447 900.5,-543.447"/>
<text text-anchor="middle" x="935" y="-551.447" font-family="Helvetica,sans-Serif" font-size="10.00">nsIntRegion</text>
</a>
</g>
<!-- Node33&#45;&gt;Node3 -->
<g id="edge78" class="edge"><title>Node33&#45;&gt;Node3</title>
<path fill="none" stroke="#9a32cd" stroke-dasharray="5,2" d="M979.813,-547.615C1007.45,-542.975 1043.34,-535.609 1074,-524.947 1082.45,-522.009 1083.54,-518.843 1092,-515.947 1141.73,-498.931 1157.07,-505.928 1208,-492.947 1236.99,-485.558 1269.48,-475.191 1292.51,-467.479"/>
<polygon fill="#9a32cd" stroke="#9a32cd" points="978.967,-544.207 969.655,-549.261 980.086,-551.116 978.967,-544.207"/>
<text text-anchor="middle" x="1150" y="-532.947" font-family="Helvetica,sans-Serif" font-size="10.00"> mVisibleRegion</text>
<text text-anchor="middle" x="1150" y="-519.947" font-family="Helvetica,sans-Serif" font-size="10.00">mInvalidRegion</text>
</g>
<!-- Node33&#45;&gt;Node34 -->
<g id="edge96" class="edge"><title>Node33&#45;&gt;Node34</title>
<path fill="none" stroke="#9a32cd" stroke-dasharray="5,2" d="M980.016,-554.023C1034.35,-554.705 1128.36,-557.768 1208,-569.947 1304.01,-584.63 1326.89,-595.313 1420,-622.947 1472.28,-638.464 1488.5,-636.163 1536,-662.947 1545.07,-668.062 1544.72,-673.218 1554,-677.947 1561.44,-681.737 1569.64,-684.843 1577.87,-687.378"/>
<polygon fill="#9a32cd" stroke="#9a32cd" points="979.728,-550.52 969.693,-553.917 979.656,-557.52 979.728,-550.52"/>
<text text-anchor="middle" x="1323" y="-626.947" font-family="Helvetica,sans-Serif" font-size="10.00"> mShadowVisibleRegion</text>
</g>
<!-- Node34&#45;&gt;Node1 -->
<g id="edge82" class="edge"><title>Node34&#45;&gt;Node1</title>
<path fill="none" stroke="midnightblue" d="M1721.82,-690.024C1731.22,-689.185 1740.81,-688.33 1750.29,-687.485"/>
<polygon fill="midnightblue" stroke="midnightblue" points="1721.36,-686.551 1711.71,-690.926 1721.98,-693.524 1721.36,-686.551"/>
</g>
<!-- Node35 -->
<g id="node76" class="node"><title>Node35</title>
<a xlink:href="../../d9/dc3/classmozilla_1_1_ref_ptr.html" target="_top" xlink:title="mozilla::RefPtr\&lt; Compositor \&gt;">
<polygon fill="white" stroke="black" points="860,-727.447 860,-748.447 1010,-748.447 1010,-727.447 860,-727.447"/>
<text text-anchor="middle" x="935" y="-735.447" font-family="Helvetica,sans-Serif" font-size="10.00">mozilla::RefPtr&lt; Compositor &gt;</text>
</a>
</g>
<!-- Node35&#45;&gt;Node34 -->
<g id="edge84" class="edge"><title>Node35&#45;&gt;Node34</title>
<path fill="none" stroke="#9a32cd" stroke-dasharray="5,2" d="M1020.24,-739.479C1074.1,-740.067 1145.15,-740.148 1208,-737.947 1354.05,-732.833 1390.95,-732.695 1536,-714.947 1549.92,-713.244 1564.87,-710.888 1578.77,-708.472"/>
<polygon fill="#9a32cd" stroke="#9a32cd" points="1020.09,-735.977 1010.05,-739.359 1020.01,-742.976 1020.09,-735.977"/>
<text text-anchor="middle" x="1323" y="-740.947" font-family="Helvetica,sans-Serif" font-size="10.00"> mCompositor</text>
</g>
<!-- Node35&#45;&gt;Node36 -->
<g id="edge90" class="edge"><title>Node35&#45;&gt;Node36</title>
<path fill="none" stroke="#9a32cd" stroke-dasharray="5,2" d="M1020.58,-729.124C1081.25,-722.87 1162.74,-714.468 1225.85,-707.962"/>
<polygon fill="#9a32cd" stroke="#9a32cd" points="1019.86,-725.68 1010.27,-730.187 1020.58,-732.643 1019.86,-725.68"/>
<text text-anchor="middle" x="1150" y="-724.947" font-family="Helvetica,sans-Serif" font-size="10.00"> mCompositor</text>
</g>
<!-- Node36&#45;&gt;Node34 -->
<g id="edge86" class="edge"><title>Node36&#45;&gt;Node34</title>
<path fill="none" stroke="#9a32cd" stroke-dasharray="5,2" d="M1430.47,-697.947C1471.16,-697.947 1516.68,-697.947 1554.25,-697.947"/>
<polygon fill="#9a32cd" stroke="#9a32cd" points="1430.24,-694.447 1420.24,-697.947 1430.24,-701.447 1430.24,-694.447"/>
<text text-anchor="middle" x="1487" y="-701.947" font-family="Helvetica,sans-Serif" font-size="10.00"> mCompositeManager</text>
</g>
</g>
</svg>
        <g id="navigator" transform="translate(0 0)" fill="#404254">
                <rect fill="#f2f5e9" fill-opacity="0.5" stroke="#606060" stroke-width=".5" x="0" y="0" width="60" height="60"/>
                <use id="zoomplus" xlink:href="#zoomPlus" x="17" y="9" onmousedown="handleZoom(evt,'in')"/>
                <use id="zoomminus" xlink:href="#zoomMin" x="42" y="9" onmousedown="handleZoom(evt,'out')"/>
                <use id="reset" xlink:href="#resetDef" x="30" y="36" onmousedown="handleReset()"/>
                <g id="arrowUp" xlink:href="#dirArrow" transform="translate(30 24)" onmousedown="handlePan(0,-1)">
                  <use xlink:href="#rim" fill="#404040">
                        <set attributeName="fill" to="#808080" begin="arrowUp.mouseover" end="arrowUp.mouseout"/>
                  </use>
                  <path fill="none" stroke="white" stroke-width="1.5" d="M0,-3.0v7 M-2.5,-0.5L0,-3.0L2.5,-0.5"/>
                </g>
                <g id="arrowRight" xlink:href="#dirArrow" transform="rotate(90) translate(36 -43)" onmousedown="handlePan(1,0)">
                  <use xlink:href="#rim" fill="#404040">
                        <set attributeName="fill" to="#808080" begin="arrowRight.mouseover" end="arrowRight.mouseout"/>
                  </use>
                  <path fill="none" stroke="white" stroke-width="1.5" d="M0,-3.0v7 M-2.5,-0.5L0,-3.0L2.5,-0.5"/>
                </g>
                <g id="arrowDown" xlink:href="#dirArrow" transform="rotate(180) translate(-30 -48)" onmousedown="handlePan(0,1)">
                  <use xlink:href="#rim" fill="#404040">
                        <set attributeName="fill" to="#808080" begin="arrowDown.mouseover" end="arrowDown.mouseout"/>
                  </use>
                  <path fill="none" stroke="white" stroke-width="1.5" d="M0,-3.0v7 M-2.5,-0.5L0,-3.0L2.5,-0.5"/>
                </g>
                <g id="arrowLeft" xlink:href="#dirArrow" transform="rotate(270) translate(-36 17)" onmousedown="handlePan(-1,0)">
                  <use xlink:href="#rim" fill="#404040">
                        <set attributeName="fill" to="#808080" begin="arrowLeft.mouseover" end="arrowLeft.mouseout"/>
                  </use>
                  <path fill="none" stroke="white" stroke-width="1.5" d="M0,-3.0v7 M-2.5,-0.5L0,-3.0L2.5,-0.5"/>
                </g>
        </g>
</svg>
