<?xml version="1.0" encoding="UTF-8" standalone="no"?>
<!DOCTYPE svg PUBLIC "-//W3C//DTD SVG 1.1//EN"
 "http://www.w3.org/Graphics/SVG/1.1/DTD/svg11.dtd">
<!-- Generated by graphviz version 2.26.3 (20100126.1600)
 -->
<!-- Title: G Pages: 1 -->
<!--zoomable 613 -->
<svg id="main" version="1.1" xmlns="http://www.w3.org/2000/svg" xmlns:xlink="http://www.w3.org/1999/xlink" xml:space="preserve" onload="init(evt)">
        <defs>
                <circle id="rim" cx="0" cy="0" r="7"/>
                <circle id="rim2" cx="0" cy="0" r="3.5"/>
                <g id="zoomPlus">
                        <use xlink:href="#rim" fill="#404040">
                                <set attributeName="fill" to="#808080" begin="zoomplus.mouseover" end="zoomplus.mouseout"/>
                        </use>
                        <path d="M-4,0h8M0,-4v8" fill="none" stroke="white" stroke-width="1.5" pointer-events="none"/>
                </g>
                <g id="zoomMin">
                        <use xlink:href="#rim" fill="#404040">
                                <set attributeName="fill" to="#808080" begin="zoomminus.mouseover" end="zoomminus.mouseout"/>
                        </use>
                        <path d="M-4,0h8" fill="none" stroke="white" stroke-width="1.5" pointer-events="none"/>
                </g>
                <g id="dirArrow">
                        <path fill="none" stroke="white" stroke-width="1.5" d="M0,-3.0v7 M-2.5,-0.5L0,-3.0L2.5,-0.5"/>
                </g>
               <g id="resetDef">
                       <use xlink:href="#rim2" fill="#404040">
                               <set attributeName="fill" to="#808080" begin="reset.mouseover" end="reset.mouseout"/>
                       </use>
               </g>
        </defs>

<script type="text/javascript">
var viewWidth = 1166;
var viewHeight = 613;
var sectionId = 'dynsection-1';
</script>
<script xlink:href="../../svgpan.js"/>
<svg id="graph" class="graph">
<g id="viewport">
<title>G</title>
<polygon fill="white" stroke="white" points="-4,5 -4,-608.787 1163,-608.787 1163,5 -4,5"/>
<!-- Node1 -->
<g id="node1" class="node"><title>Node1</title>
<polygon fill="#bfbfbf" stroke="black" points="1056,-541.287 1056,-562.287 1158,-562.287 1158,-541.287 1056,-541.287"/>
<text text-anchor="middle" x="1107" y="-549.287" font-family="Helvetica,sans-Serif" font-size="10.00">nsIImageDocument</text>
</g>
<!-- Node2 -->
<g id="node2" class="node"><title>Node2</title>
<a xlink:href="../../d4/d6a/classns_i_supports.html" target="_top" xlink:title="nsISupports">
<polygon fill="white" stroke="black" points="242.5,-242.287 242.5,-263.287 311.5,-263.287 311.5,-242.287 242.5,-242.287"/>
<text text-anchor="middle" x="277" y="-250.287" font-family="Helvetica,sans-Serif" font-size="10.00">nsISupports</text>
</a>
</g>
<!-- Node2&#45;&gt;Node1 -->
<g id="edge2" class="edge"><title>Node2&#45;&gt;Node1</title>
<path fill="none" stroke="midnightblue" d="M281.506,-273.479C296.147,-340.041 349.322,-542.787 482,-542.787 482,-542.787 482,-542.787 916,-542.787 963.418,-542.787 1017.46,-542.787 1055.93,-544.356"/>
<polygon fill="midnightblue" stroke="midnightblue" points="284.857,-272.408 279.344,-263.36 278.011,-273.871 284.857,-272.408"/>
</g>
<!-- Node2&#45;&gt;Node1 -->
<g id="edge4" class="edge"><title>Node2&#45;&gt;Node1</title>
<path fill="none" stroke="midnightblue" d="M280.081,-273.707C292.444,-343.278 344.577,-560.787 482,-560.787 482,-560.787 482,-560.787 916,-560.787 963.418,-560.787 1017.46,-560.787 1055.93,-559.218"/>
<polygon fill="midnightblue" stroke="midnightblue" points="283.48,-272.812 278.379,-263.527 276.576,-273.967 283.48,-272.812"/>
</g>
<!-- Node4 -->
<g id="node7" class="node"><title>Node4</title>
<a xlink:href="../../d8/d9e/interfacens_i_request.html" target="_top" xlink:title="nsIRequest">
<polygon fill="white" stroke="black" points="448.5,-329.287 448.5,-350.287 515.5,-350.287 515.5,-329.287 448.5,-329.287"/>
<text text-anchor="middle" x="482" y="-337.287" font-family="Helvetica,sans-Serif" font-size="10.00">nsIRequest</text>
</a>
</g>
<!-- Node2&#45;&gt;Node4 -->
<g id="edge10" class="edge"><title>Node2&#45;&gt;Node4</title>
<path fill="none" stroke="midnightblue" d="M300.3,-270.574C308.898,-278.397 319.197,-286.947 330,-292.787 367.568,-313.096 416.226,-322.787 448.241,-329.321"/>
<polygon fill="midnightblue" stroke="midnightblue" points="302.619,-267.95 292.917,-263.691 297.845,-273.07 302.619,-267.95"/>
</g>
<!-- Node2&#45;&gt;Node4 -->
<g id="edge12" class="edge"><title>Node2&#45;&gt;Node4</title>
<path fill="none" stroke="midnightblue" d="M287.071,-272.084C296.884,-285.329 312.803,-301.491 330,-310.787 367.568,-331.096 416.226,-340.787 448.241,-343.169"/>
<polygon fill="midnightblue" stroke="midnightblue" points="289.791,-269.855 281.313,-263.501 283.978,-273.755 289.791,-269.855"/>
</g>
<!-- Node6 -->
<g id="node15" class="node"><title>Node6</title>
<a xlink:href="../../d1/dc4/interfacens_i_request_observer.html" target="_top" xlink:title="nsIRequestObserver">
<polygon fill="white" stroke="black" points="428.5,-199.287 428.5,-220.287 535.5,-220.287 535.5,-199.287 428.5,-199.287"/>
<text text-anchor="middle" x="482" y="-207.287" font-family="Helvetica,sans-Serif" font-size="10.00">nsIRequestObserver</text>
</a>
</g>
<!-- Node2&#45;&gt;Node6 -->
<g id="edge22" class="edge"><title>Node2&#45;&gt;Node6</title>
<path fill="none" stroke="midnightblue" d="M314.466,-239.571C346.351,-231.281 392.542,-221.372 428.35,-215.024"/>
<polygon fill="midnightblue" stroke="midnightblue" points="313.402,-236.233 304.647,-242.199 315.212,-242.994 313.402,-236.233"/>
</g>
<!-- Node2&#45;&gt;Node6 -->
<g id="edge24" class="edge"><title>Node2&#45;&gt;Node6</title>
<path fill="none" stroke="midnightblue" d="M321.664,-249.104C362.18,-242.283 420.617,-229.72 454.614,-220.303"/>
<polygon fill="midnightblue" stroke="midnightblue" points="321.085,-245.653 311.775,-250.71 322.207,-252.562 321.085,-245.653"/>
</g>
<!-- Node7 -->
<g id="node19" class="node"><title>Node7</title>
<a xlink:href="../../dd/dcc/interfacens_i_simple_enumerator.html" target="_top" xlink:title="nsISimpleEnumerator">
<polygon fill="white" stroke="black" points="427,-156.287 427,-177.287 537,-177.287 537,-156.287 427,-156.287"/>
<text text-anchor="middle" x="482" y="-164.287" font-family="Helvetica,sans-Serif" font-size="10.00">nsISimpleEnumerator</text>
</a>
</g>
<!-- Node2&#45;&gt;Node7 -->
<g id="edge28" class="edge"><title>Node2&#45;&gt;Node7</title>
<path fill="none" stroke="midnightblue" d="M292.886,-235.866C303.303,-228.641 317.297,-220.943 330,-214.787 364.766,-197.939 373.783,-194.235 410,-180.787 415.413,-178.777 421.092,-176.779 426.786,-174.893"/>
<polygon fill="midnightblue" stroke="midnightblue" points="290.61,-233.2 284.775,-242.043 294.851,-238.769 290.61,-233.2"/>
</g>
<!-- Node2&#45;&gt;Node7 -->
<g id="edge30" class="edge"><title>Node2&#45;&gt;Node7</title>
<path fill="none" stroke="midnightblue" d="M320.344,-237.602C323.593,-235.949 326.837,-234.32 330,-232.787 364.766,-215.939 373.783,-212.235 410,-198.787 430.175,-191.296 454.049,-183.964 468.604,-177.295"/>
<polygon fill="midnightblue" stroke="midnightblue" points="318.545,-234.591 311.239,-242.264 321.735,-240.822 318.545,-234.591"/>
</g>
<!-- Node8 -->
<g id="node24" class="node"><title>Node8</title>
<a xlink:href="../../df/de7/interfacens_i_interface_requestor.html" target="_top" xlink:title="nsIInterfaceRequestor">
<polygon fill="white" stroke="black" points="425.5,-242.287 425.5,-263.287 538.5,-263.287 538.5,-242.287 425.5,-242.287"/>
<text text-anchor="middle" x="482" y="-250.287" font-family="Helvetica,sans-Serif" font-size="10.00">nsIInterfaceRequestor</text>
</a>
</g>
<!-- Node2&#45;&gt;Node8 -->
<g id="edge36" class="edge"><title>Node2&#45;&gt;Node8</title>
<path fill="none" stroke="midnightblue" d="M322.079,-247.084C352.463,-245.84 392.785,-245.705 425.338,-246.677"/>
<polygon fill="midnightblue" stroke="midnightblue" points="321.599,-243.603 311.775,-247.57 321.929,-250.595 321.599,-243.603"/>
</g>
<!-- Node2&#45;&gt;Node8 -->
<g id="edge38" class="edge"><title>Node2&#45;&gt;Node8</title>
<path fill="none" stroke="midnightblue" d="M322.079,-258.49C352.463,-259.734 392.785,-259.869 425.338,-258.897"/>
<polygon fill="midnightblue" stroke="midnightblue" points="321.929,-254.979 311.775,-258.004 321.599,-261.971 321.929,-254.979"/>
</g>
<!-- Node9 -->
<g id="node28" class="node"><title>Node9</title>
<a xlink:href="../../d8/dc8/interfacens_i_load_group_connection_info.html" target="_top" xlink:title="nsILoadGroupConnectionInfo">
<polygon fill="white" stroke="black" points="410.5,-285.287 410.5,-306.287 553.5,-306.287 553.5,-285.287 410.5,-285.287"/>
<text text-anchor="middle" x="482" y="-293.287" font-family="Helvetica,sans-Serif" font-size="10.00">nsILoadGroupConnectionInfo</text>
</a>
</g>
<!-- Node2&#45;&gt;Node9 -->
<g id="edge42" class="edge"><title>Node2&#45;&gt;Node9</title>
<path fill="none" stroke="midnightblue" d="M321.45,-261.341C324.323,-262.222 327.19,-263.053 330,-263.787 368.734,-273.905 414.262,-280.062 445.324,-285.237"/>
<polygon fill="midnightblue" stroke="midnightblue" points="322.32,-257.944 311.729,-258.214 320.176,-264.608 322.32,-257.944"/>
</g>
<!-- Node2&#45;&gt;Node9 -->
<g id="edge44" class="edge"><title>Node2&#45;&gt;Node9</title>
<path fill="none" stroke="midnightblue" d="M294.895,-268.551C305.026,-273.777 318.03,-278.66 330,-281.787 355.823,-288.532 384.665,-293.517 410.227,-296.552"/>
<polygon fill="midnightblue" stroke="midnightblue" points="296.592,-265.489 286.189,-263.481 293.069,-271.538 296.592,-265.489"/>
</g>
<!-- Node10 -->
<g id="node33" class="node"><title>Node10</title>
<a xlink:href="../../d7/da7/interfaceimg_i_container.html" target="_top" xlink:title="imgIContainer">
<polygon fill="white" stroke="black" points="443.5,-471.287 443.5,-492.287 520.5,-492.287 520.5,-471.287 443.5,-471.287"/>
<text text-anchor="middle" x="482" y="-479.287" font-family="Helvetica,sans-Serif" font-size="10.00">imgIContainer</text>
</a>
</g>
<!-- Node2&#45;&gt;Node10 -->
<g id="edge50" class="edge"><title>Node2&#45;&gt;Node10</title>
<path fill="none" stroke="midnightblue" d="M284.219,-272.92C292.202,-296.905 307.055,-336.583 330,-364.787 370.858,-415.01 440.649,-452.678 469.227,-471.045"/>
<polygon fill="midnightblue" stroke="midnightblue" points="287.542,-271.82 281.122,-263.391 280.885,-273.983 287.542,-271.82"/>
</g>
<!-- Node2&#45;&gt;Node10 -->
<g id="edge52" class="edge"><title>Node2&#45;&gt;Node10</title>
<path fill="none" stroke="midnightblue" d="M280.748,-273.379C287.403,-301.136 303.168,-349.806 330,-382.787 362.585,-422.84 413.57,-454.907 447.378,-471.215"/>
<polygon fill="midnightblue" stroke="midnightblue" points="284.145,-272.529 278.575,-263.517 277.309,-274.036 284.145,-272.529"/>
</g>
<!-- Node14 -->
<g id="node43" class="node"><title>Node14</title>
<a xlink:href="../../dd/d68/interfacens_i_serializable.html" target="_top" xlink:title="nsISerializable">
<polygon fill="white" stroke="black" points="442,-68.2871 442,-89.2871 522,-89.2871 522,-68.2871 442,-68.2871"/>
<text text-anchor="middle" x="482" y="-76.2871" font-family="Helvetica,sans-Serif" font-size="10.00">nsISerializable</text>
</a>
</g>
<!-- Node2&#45;&gt;Node14 -->
<g id="edge62" class="edge"><title>Node2&#45;&gt;Node14</title>
<path fill="none" stroke="midnightblue" d="M281.662,-232.301C289.056,-207.822 305.225,-167.884 330,-141.787 360.457,-109.704 408.1,-90.3784 441.92,-81.8119"/>
<polygon fill="midnightblue" stroke="midnightblue" points="278.256,-231.486 278.956,-242.058 285.001,-233.357 278.256,-231.486"/>
</g>
<!-- Node2&#45;&gt;Node14 -->
<g id="edge64" class="edge"><title>Node2&#45;&gt;Node14</title>
<path fill="none" stroke="midnightblue" d="M286.333,-232.692C294.961,-212.306 309.548,-181.33 330,-159.787 366.69,-121.139 428.316,-101.004 460.679,-89.3662"/>
<polygon fill="midnightblue" stroke="midnightblue" points="283.062,-231.443 282.471,-242.021 289.53,-234.12 283.062,-231.443"/>
</g>
<!-- Node15 -->
<g id="node48" class="node"><title>Node15</title>
<a xlink:href="../../dd/d71/interfacens_i_u_r_i.html" target="_top" xlink:title="nsIURI">
<polygon fill="white" stroke="black" points="458,-113.287 458,-134.287 506,-134.287 506,-113.287 458,-113.287"/>
<text text-anchor="middle" x="482" y="-121.287" font-family="Helvetica,sans-Serif" font-size="10.00">nsIURI</text>
</a>
</g>
<!-- Node2&#45;&gt;Node15 -->
<g id="edge70" class="edge"><title>Node2&#45;&gt;Node15</title>
<path fill="none" stroke="midnightblue" d="M286.38,-233.118C296.242,-217.934 312.702,-197.906 330,-183.787 361.774,-157.853 372.476,-154.343 410,-137.787 425.487,-130.954 443.649,-125.167 457.857,-122.259"/>
<polygon fill="midnightblue" stroke="midnightblue" points="283.285,-231.474 281.145,-241.851 289.289,-235.074 283.285,-231.474"/>
</g>
<!-- Node2&#45;&gt;Node15 -->
<g id="edge72" class="edge"><title>Node2&#45;&gt;Node15</title>
<path fill="none" stroke="midnightblue" d="M297.378,-234.352C306.607,-223.998 318.105,-211.496 330,-201.787 361.774,-175.853 372.476,-172.343 410,-155.787 429.209,-147.312 452.532,-140.446 467.323,-134.292"/>
<polygon fill="midnightblue" stroke="midnightblue" points="294.521,-232.298 290.499,-242.1 299.756,-236.946 294.521,-232.298"/>
</g>
<!-- Node16 -->
<g id="node52" class="node"><title>Node16</title>
<a xlink:href="../../da/d82/interfacens_i_content_security_policy.html" target="_top" xlink:title="nsIContentSecurityPolicy">
<polygon fill="white" stroke="black" points="418,-27.2871 418,-48.2871 546,-48.2871 546,-27.2871 418,-27.2871"/>
<text text-anchor="middle" x="482" y="-35.2871" font-family="Helvetica,sans-Serif" font-size="10.00">nsIContentSecurityPolicy</text>
</a>
</g>
<!-- Node2&#45;&gt;Node16 -->
<g id="edge76" class="edge"><title>Node2&#45;&gt;Node16</title>
<path fill="none" stroke="midnightblue" d="M279.018,-231.703C283.458,-198.762 296.486,-135.867 330,-95.7871 352.199,-69.2389 386.985,-52.858 417.68,-43.8728"/>
<polygon fill="midnightblue" stroke="midnightblue" points="275.497,-231.674 277.786,-242.019 282.447,-232.504 275.497,-231.674"/>
</g>
<!-- Node2&#45;&gt;Node16 -->
<g id="edge78" class="edge"><title>Node2&#45;&gt;Node16</title>
<path fill="none" stroke="midnightblue" d="M280.914,-231.986C286.734,-202.565 300.349,-149.247 330,-113.787 362.189,-75.2922 420.841,-58.174 455.113,-48.3312"/>
<polygon fill="midnightblue" stroke="midnightblue" points="277.438,-231.533 279.048,-242.005 284.32,-232.815 277.438,-231.533"/>
</g>
<!-- Node17 -->
<g id="node57" class="node"><title>Node17</title>
<a xlink:href="../../d5/deb/interfaceimg_i_notification_observer.html" target="_top" xlink:title="imgINotificationObserver">
<polygon fill="white" stroke="black" points="419.5,-371.287 419.5,-392.287 544.5,-392.287 544.5,-371.287 419.5,-371.287"/>
<text text-anchor="middle" x="482" y="-379.287" font-family="Helvetica,sans-Serif" font-size="10.00">imgINotificationObserver</text>
</a>
</g>
<!-- Node2&#45;&gt;Node17 -->
<g id="edge84" class="edge"><title>Node2&#45;&gt;Node17</title>
<path fill="none" stroke="midnightblue" d="M288.266,-272.486C297.105,-289.281 311.087,-312.463 330,-326.787 364.507,-352.921 413.858,-364.301 446.868,-371.271"/>
<polygon fill="midnightblue" stroke="midnightblue" points="291.319,-270.768 283.657,-263.45 285.083,-273.948 291.319,-270.768"/>
</g>
<!-- Node2&#45;&gt;Node17 -->
<g id="edge86" class="edge"><title>Node2&#45;&gt;Node17</title>
<path fill="none" stroke="midnightblue" d="M282.355,-273.042C290.083,-294.455 306.106,-326.691 330,-344.787 355.825,-364.346 389.965,-375.641 419.346,-381.268"/>
<polygon fill="midnightblue" stroke="midnightblue" points="285.671,-271.921 279.23,-263.509 279.02,-274.102 285.671,-271.921"/>
</g>
<!-- Node3 -->
<g id="node5" class="node"><title>Node3</title>
<a xlink:href="../../d6/d84/interfaceimg_i_request.html" target="_top" xlink:title="imgIRequest">
<polygon fill="white" stroke="black" points="880,-387.287 880,-408.287 952,-408.287 952,-387.287 880,-387.287"/>
<text text-anchor="middle" x="916" y="-395.287" font-family="Helvetica,sans-Serif" font-size="10.00">imgIRequest</text>
</a>
</g>
<!-- Node3&#45;&gt;Node1 -->
<g id="edge6" class="edge"><title>Node3&#45;&gt;Node1</title>
<path fill="none" stroke="#9a32cd" stroke-dasharray="5,2" d="M937.335,-414.989C977.051,-447.012 1061.24,-514.894 1093.78,-541.128"/>
<polygon fill="#9a32cd" stroke="#9a32cd" points="939.11,-411.924 929.128,-408.372 934.716,-417.374 939.11,-411.924"/>
<text text-anchor="middle" x="1004" y="-496.787" font-family="Helvetica,sans-Serif" font-size="10.00"> imageRequest</text>
</g>
<!-- Node4&#45;&gt;Node3 -->
<g id="edge46" class="edge"><title>Node4&#45;&gt;Node3</title>
<path fill="none" stroke="midnightblue" d="M525.486,-341.519C535.14,-344.368 545.132,-348.184 554,-352.787 562.995,-357.456 562.524,-363.194 572,-366.787 678.037,-406.997 815.583,-399.732 879.888,-396.895"/>
<polygon fill="midnightblue" stroke="midnightblue" points="526.171,-338.08 515.609,-338.909 524.382,-344.848 526.171,-338.08"/>
</g>
<!-- Node4&#45;&gt;Node3 -->
<g id="edge8" class="edge"><title>Node4&#45;&gt;Node3</title>
<path fill="none" stroke="midnightblue" d="M508.789,-353.512C522.744,-358.072 539.811,-363.422 554,-370.787 562.995,-375.456 562.524,-381.194 572,-384.787 678.037,-424.997 815.583,-417.732 879.888,-407.594"/>
<polygon fill="midnightblue" stroke="midnightblue" points="509.857,-350.179 499.263,-350.314 507.629,-356.815 509.857,-350.179"/>
</g>
<!-- Node5 -->
<g id="node11" class="node"><title>Node5</title>
<a xlink:href="../../da/d0e/interfacens_i_load_group.html" target="_top" xlink:title="nsILoadGroup">
<polygon fill="white" stroke="black" points="691.5,-274.287 691.5,-295.287 768.5,-295.287 768.5,-274.287 691.5,-274.287"/>
<text text-anchor="middle" x="730" y="-282.287" font-family="Helvetica,sans-Serif" font-size="10.00">nsILoadGroup</text>
</a>
</g>
<!-- Node4&#45;&gt;Node5 -->
<g id="edge32" class="edge"><title>Node4&#45;&gt;Node5</title>
<path fill="none" stroke="#9a32cd" stroke-dasharray="5,2" d="M525.524,-351.661C563.965,-359.864 620.776,-366.311 666,-347.787 691.97,-337.15 713.06,-310.325 723.294,-295.335"/>
<polygon fill="#9a32cd" stroke="#9a32cd" points="526.205,-348.227 515.679,-349.436 524.662,-355.055 526.205,-348.227"/>
<text text-anchor="middle" x="619" y="-362.787" font-family="Helvetica,sans-Serif" font-size="10.00"> defaultLoadRequest</text>
</g>
<!-- Node4&#45;&gt;Node5 -->
<g id="edge16" class="edge"><title>Node4&#45;&gt;Node5</title>
<path fill="none" stroke="midnightblue" d="M525.781,-331.332C563.613,-327.365 619.389,-321.9 666,-307.787 676.463,-304.619 687.295,-299.848 697.006,-295.316"/>
<polygon fill="midnightblue" stroke="midnightblue" points="525.181,-327.876 515.609,-332.417 525.923,-334.836 525.181,-327.876"/>
</g>
<!-- Node4&#45;&gt;Node5 -->
<g id="edge18" class="edge"><title>Node4&#45;&gt;Node5</title>
<path fill="none" stroke="midnightblue" d="M525.781,-345.617C563.613,-345.365 619.389,-339.9 666,-325.787 687.639,-319.235 710.858,-305.826 722.473,-295.386"/>
<polygon fill="midnightblue" stroke="midnightblue" points="525.631,-342.116 515.609,-345.553 525.586,-349.116 525.631,-342.116"/>
</g>
<!-- Node5&#45;&gt;Node4 -->
<g id="edge14" class="edge"><title>Node5&#45;&gt;Node4</title>
<path fill="none" stroke="#9a32cd" stroke-dasharray="5,2" d="M681.491,-284.821C649.512,-286.232 607.195,-290.786 572,-303.787 562.981,-307.119 562.637,-311.563 554,-315.787 541.927,-321.692 528.044,-326.701 515.711,-330.591"/>
<polygon fill="#9a32cd" stroke="#9a32cd" points="681.619,-288.319 691.488,-284.467 681.371,-281.324 681.619,-288.319"/>
<text text-anchor="middle" x="619" y="-307.787" font-family="Helvetica,sans-Serif" font-size="10.00"> loadGroup</text>
</g>
<!-- Node6&#45;&gt;Node5 -->
<g id="edge20" class="edge"><title>Node6&#45;&gt;Node5</title>
<path fill="none" stroke="#9a32cd" stroke-dasharray="5,2" d="M545.638,-202.177C582.366,-200.434 628.548,-202.895 666,-219.787 691.985,-231.508 713.069,-258.881 723.298,-274.101"/>
<polygon fill="#9a32cd" stroke="#9a32cd" points="545.322,-198.689 535.545,-202.771 545.734,-205.677 545.322,-198.689"/>
<text text-anchor="middle" x="619" y="-223.787" font-family="Helvetica,sans-Serif" font-size="10.00"> groupObserver</text>
</g>
<!-- Node7&#45;&gt;Node5 -->
<g id="edge26" class="edge"><title>Node7&#45;&gt;Node5</title>
<path fill="none" stroke="#9a32cd" stroke-dasharray="5,2" d="M547.352,-159.703C584.658,-158.801 630.848,-163.259 666,-184.787 700.277,-205.779 719.469,-252.812 726.669,-274.035"/>
<polygon fill="#9a32cd" stroke="#9a32cd" points="546.943,-156.216 537.082,-160.09 547.206,-163.211 546.943,-156.216"/>
<text text-anchor="middle" x="619" y="-188.787" font-family="Helvetica,sans-Serif" font-size="10.00"> requests</text>
</g>
<!-- Node8&#45;&gt;Node5 -->
<g id="edge34" class="edge"><title>Node8&#45;&gt;Node5</title>
<path fill="none" stroke="#9a32cd" stroke-dasharray="5,2" d="M545.33,-240.885C581.346,-236.452 626.922,-234.819 666,-245.787 685.543,-251.272 705.033,-264.555 717.279,-274.094"/>
<polygon fill="#9a32cd" stroke="#9a32cd" points="544.408,-237.477 534.96,-242.27 545.335,-244.415 544.408,-237.477"/>
<text text-anchor="middle" x="619" y="-249.787" font-family="Helvetica,sans-Serif" font-size="10.00"> notificationCallbacks</text>
</g>
<!-- Node9&#45;&gt;Node5 -->
<g id="edge40" class="edge"><title>Node9&#45;&gt;Node5</title>
<path fill="none" stroke="#9a32cd" stroke-dasharray="5,2" d="M524.587,-282.231C546.586,-275.282 569.393,-268.183 572,-267.787 613.304,-261.51 624.574,-262.379 666,-267.787 676.146,-269.112 686.972,-271.57 696.78,-274.213"/>
<polygon fill="#9a32cd" stroke="#9a32cd" points="523.418,-278.93 514.941,-285.284 525.531,-285.603 523.418,-278.93"/>
<text text-anchor="middle" x="619" y="-271.787" font-family="Helvetica,sans-Serif" font-size="10.00"> connectionInfo</text>
</g>
<!-- Node10&#45;&gt;Node3 -->
<g id="edge48" class="edge"><title>Node10&#45;&gt;Node3</title>
<path fill="none" stroke="#9a32cd" stroke-dasharray="5,2" d="M530.608,-485.965C605.507,-490.36 751.986,-490.733 862,-439.787 878.813,-432.001 895.187,-418.108 905.414,-408.442"/>
<polygon fill="#9a32cd" stroke="#9a32cd" points="530.728,-482.466 520.525,-485.323 530.283,-489.452 530.728,-482.466"/>
<text text-anchor="middle" x="730" y="-486.787" font-family="Helvetica,sans-Serif" font-size="10.00"> image</text>
</g>
<!-- Node11 -->
<g id="node37" class="node"><title>Node11</title>
<a xlink:href="../../d5/d98/structns_size.html" target="_top" xlink:title="nsSize">
<polygon fill="white" stroke="black" points="253.5,-583.287 253.5,-604.287 300.5,-604.287 300.5,-583.287 253.5,-583.287"/>
<text text-anchor="middle" x="277" y="-591.287" font-family="Helvetica,sans-Serif" font-size="10.00">nsSize</text>
</a>
</g>
<!-- Node11&#45;&gt;Node10 -->
<g id="edge54" class="edge"><title>Node11&#45;&gt;Node10</title>
<path fill="none" stroke="#9a32cd" stroke-dasharray="5,2" d="M305.221,-578.369C347.505,-555.267 426.216,-512.264 462.616,-492.377"/>
<polygon fill="#9a32cd" stroke="#9a32cd" points="303.383,-575.384 296.286,-583.25 306.74,-581.527 303.383,-575.384"/>
<text text-anchor="middle" x="361" y="-579.787" font-family="Helvetica,sans-Serif" font-size="10.00"> intrinsicRatio</text>
<text text-anchor="middle" x="361" y="-566.787" font-family="Helvetica,sans-Serif" font-size="10.00">intrinsicSize</text>
</g>
<!-- Node12 -->
<g id="node39" class="node"><title>Node12</title>
<a xlink:href="../../d1/d12/structmozilla_1_1gfx_1_1_base_size.html" target="_top" xlink:title="mozilla::gfx::BaseSize\&lt; nscoord, nsSize \&gt;">
<polygon fill="white" stroke="black" points="0.5,-583.287 0.5,-604.287 203.5,-604.287 203.5,-583.287 0.5,-583.287"/>
<text text-anchor="middle" x="102" y="-591.287" font-family="Helvetica,sans-Serif" font-size="10.00">mozilla::gfx::BaseSize&lt; nscoord, nsSize &gt;</text>
</a>
</g>
<!-- Node12&#45;&gt;Node11 -->
<g id="edge56" class="edge"><title>Node12&#45;&gt;Node11</title>
<path fill="none" stroke="midnightblue" d="M213.946,-593.787C228.768,-593.787 242.573,-593.787 253.464,-593.787"/>
<polygon fill="midnightblue" stroke="midnightblue" points="213.545,-590.287 203.545,-593.787 213.545,-597.287 213.545,-590.287"/>
</g>
<!-- Node13 -->
<g id="node41" class="node"><title>Node13</title>
<a xlink:href="../../d5/d7f/interfacens_i_principal.html" target="_top" xlink:title="nsIPrincipal">
<polygon fill="white" stroke="black" points="696,-32.2871 696,-53.2871 764,-53.2871 764,-32.2871 696,-32.2871"/>
<text text-anchor="middle" x="730" y="-40.2871" font-family="Helvetica,sans-Serif" font-size="10.00">nsIPrincipal</text>
</a>
</g>
<!-- Node13&#45;&gt;Node3 -->
<g id="edge58" class="edge"><title>Node13&#45;&gt;Node3</title>
<path fill="none" stroke="#9a32cd" stroke-dasharray="5,2" d="M774.199,-50.3018C803.527,-57.6385 840.455,-71.8215 862,-98.7871 898.878,-144.943 912.563,-339.248 915.408,-387.103"/>
<polygon fill="#9a32cd" stroke="#9a32cd" points="774.712,-46.828 764.18,-47.9825 773.133,-53.6477 774.712,-46.828"/>
<text text-anchor="middle" x="828" y="-102.787" font-family="Helvetica,sans-Serif" font-size="10.00"> imagePrincipal</text>
</g>
<!-- Node14&#45;&gt;Node13 -->
<g id="edge60" class="edge"><title>Node14&#45;&gt;Node13</title>
<path fill="none" stroke="midnightblue" d="M529.905,-66.3717C578.528,-57.4078 652.601,-46.8634 695.665,-42.9342"/>
<polygon fill="midnightblue" stroke="midnightblue" points="529.111,-62.9597 519.936,-68.2575 530.412,-69.8377 529.111,-62.9597"/>
</g>
<!-- Node14&#45;&gt;Node13 -->
<g id="edge66" class="edge"><title>Node14&#45;&gt;Node13</title>
<path fill="none" stroke="midnightblue" d="M532.137,-77.0559C580.869,-71.7991 653.55,-61.0075 695.923,-52.5567"/>
<polygon fill="midnightblue" stroke="midnightblue" points="531.708,-73.5815 522.121,-78.0908 532.428,-80.5444 531.708,-73.5815"/>
</g>
<!-- Node15&#45;&gt;Node3 -->
<g id="edge80" class="edge"><title>Node15&#45;&gt;Node3</title>
<path fill="none" stroke="#9a32cd" stroke-dasharray="5,2" d="M516.288,-124.286C554.546,-126.054 617.444,-132.638 666,-155.787 784.869,-212.457 882.579,-348.099 908.967,-387.12"/>
<polygon fill="#9a32cd" stroke="#9a32cd" points="516.307,-120.785 506.183,-123.906 516.044,-127.78 516.307,-120.785"/>
<text text-anchor="middle" x="730" y="-233.787" font-family="Helvetica,sans-Serif" font-size="10.00"> URI</text>
</g>
<!-- Node15&#45;&gt;Node13 -->
<g id="edge68" class="edge"><title>Node15&#45;&gt;Node13</title>
<path fill="none" stroke="#9a32cd" stroke-dasharray="5,2" d="M515.61,-114.364C528.008,-110.311 541.96,-105.053 554,-98.7871 562.754,-94.2315 563.041,-89.9253 572,-85.7871 611.046,-67.7509 624.564,-74.3183 666,-62.7871 676.318,-59.9157 687.485,-56.5252 697.559,-53.3594"/>
<polygon fill="#9a32cd" stroke="#9a32cd" points="514.565,-111.023 506.067,-117.351 516.656,-117.704 514.565,-111.023"/>
<text text-anchor="middle" x="619" y="-102.787" font-family="Helvetica,sans-Serif" font-size="10.00"> domain</text>
<text text-anchor="middle" x="619" y="-89.7871" font-family="Helvetica,sans-Serif" font-size="10.00">URI</text>
</g>
<!-- Node16&#45;&gt;Node13 -->
<g id="edge74" class="edge"><title>Node16&#45;&gt;Node13</title>
<path fill="none" stroke="#9a32cd" stroke-dasharray="5,2" d="M514.847,-23.5327C531.605,-17.0235 552.516,-10.0486 572,-6.78707 613.204,0.1104 625.586,3.79947 666,-6.78707 684.745,-11.6973 703.793,-23.4681 716.175,-32.2214"/>
<polygon fill="#9a32cd" stroke="#9a32cd" points="513.481,-20.3093 505.502,-27.2798 516.086,-26.8064 513.481,-20.3093"/>
<text text-anchor="middle" x="619" y="-10.7871" font-family="Helvetica,sans-Serif" font-size="10.00"> csp</text>
</g>
<!-- Node17&#45;&gt;Node3 -->
<g id="edge82" class="edge"><title>Node17&#45;&gt;Node3</title>
<path fill="none" stroke="#9a32cd" stroke-dasharray="5,2" d="M501.851,-399.072C519.08,-412.849 545.378,-431.066 572,-438.787 628.196,-455.085 837.002,-427.093 862,-420.787 873.461,-417.896 885.623,-412.902 895.497,-408.305"/>
<polygon fill="#9a32cd" stroke="#9a32cd" points="503.654,-396.021 493.715,-392.351 499.196,-401.418 503.654,-396.021"/>
<text text-anchor="middle" x="730" y="-444.787" font-family="Helvetica,sans-Serif" font-size="10.00"> notificationObserver</text>
</g>
</g>
</svg>
        <g id="navigator" transform="translate(0 0)" fill="#404254">
                <rect fill="#f2f5e9" fill-opacity="0.5" stroke="#606060" stroke-width=".5" x="0" y="0" width="60" height="60"/>
                <use id="zoomplus" xlink:href="#zoomPlus" x="17" y="9" onmousedown="handleZoom(evt,'in')"/>
                <use id="zoomminus" xlink:href="#zoomMin" x="42" y="9" onmousedown="handleZoom(evt,'out')"/>
                <use id="reset" xlink:href="#resetDef" x="30" y="36" onmousedown="handleReset()"/>
                <g id="arrowUp" xlink:href="#dirArrow" transform="translate(30 24)" onmousedown="handlePan(0,-1)">
                  <use xlink:href="#rim" fill="#404040">
                        <set attributeName="fill" to="#808080" begin="arrowUp.mouseover" end="arrowUp.mouseout"/>
                  </use>
                  <path fill="none" stroke="white" stroke-width="1.5" d="M0,-3.0v7 M-2.5,-0.5L0,-3.0L2.5,-0.5"/>
                </g>
                <g id="arrowRight" xlink:href="#dirArrow" transform="rotate(90) translate(36 -43)" onmousedown="handlePan(1,0)">
                  <use xlink:href="#rim" fill="#404040">
                        <set attributeName="fill" to="#808080" begin="arrowRight.mouseover" end="arrowRight.mouseout"/>
                  </use>
                  <path fill="none" stroke="white" stroke-width="1.5" d="M0,-3.0v7 M-2.5,-0.5L0,-3.0L2.5,-0.5"/>
                </g>
                <g id="arrowDown" xlink:href="#dirArrow" transform="rotate(180) translate(-30 -48)" onmousedown="handlePan(0,1)">
                  <use xlink:href="#rim" fill="#404040">
                        <set attributeName="fill" to="#808080" begin="arrowDown.mouseover" end="arrowDown.mouseout"/>
                  </use>
                  <path fill="none" stroke="white" stroke-width="1.5" d="M0,-3.0v7 M-2.5,-0.5L0,-3.0L2.5,-0.5"/>
                </g>
                <g id="arrowLeft" xlink:href="#dirArrow" transform="rotate(270) translate(-36 17)" onmousedown="handlePan(-1,0)">
                  <use xlink:href="#rim" fill="#404040">
                        <set attributeName="fill" to="#808080" begin="arrowLeft.mouseover" end="arrowLeft.mouseout"/>
                  </use>
                  <path fill="none" stroke="white" stroke-width="1.5" d="M0,-3.0v7 M-2.5,-0.5L0,-3.0L2.5,-0.5"/>
                </g>
        </g>
</svg>
