<?xml version="1.0" encoding="UTF-8" standalone="no"?>
<!DOCTYPE svg PUBLIC "-//W3C//DTD SVG 1.1//EN"
 "http://www.w3.org/Graphics/SVG/1.1/DTD/svg11.dtd">
<!-- Generated by graphviz version 2.26.3 (20100126.1600)
 -->
<!-- Title: G Pages: 1 -->
<!--zoomable 404 -->
<svg id="main" version="1.1" xmlns="http://www.w3.org/2000/svg" xmlns:xlink="http://www.w3.org/1999/xlink" xml:space="preserve" onload="init(evt)">
        <defs>
                <circle id="rim" cx="0" cy="0" r="7"/>
                <circle id="rim2" cx="0" cy="0" r="3.5"/>
                <g id="zoomPlus">
                        <use xlink:href="#rim" fill="#404040">
                                <set attributeName="fill" to="#808080" begin="zoomplus.mouseover" end="zoomplus.mouseout"/>
                        </use>
                        <path d="M-4,0h8M0,-4v8" fill="none" stroke="white" stroke-width="1.5" pointer-events="none"/>
                </g>
                <g id="zoomMin">
                        <use xlink:href="#rim" fill="#404040">
                                <set attributeName="fill" to="#808080" begin="zoomminus.mouseover" end="zoomminus.mouseout"/>
                        </use>
                        <path d="M-4,0h8" fill="none" stroke="white" stroke-width="1.5" pointer-events="none"/>
                </g>
                <g id="dirArrow">
                        <path fill="none" stroke="white" stroke-width="1.5" d="M0,-3.0v7 M-2.5,-0.5L0,-3.0L2.5,-0.5"/>
                </g>
               <g id="resetDef">
                       <use xlink:href="#rim2" fill="#404040">
                               <set attributeName="fill" to="#808080" begin="reset.mouseover" end="reset.mouseout"/>
                       </use>
               </g>
        </defs>

<script type="text/javascript">
var viewWidth = 670;
var viewHeight = 404;
var sectionId = 'dynsection-1';
</script>
<script xlink:href="../../svgpan.js"/>
<svg id="graph" class="graph">
<g id="viewport">
<title>G</title>
<polygon fill="white" stroke="white" points="-4,5 -4,-400 667,-400 667,5 -4,5"/>
<!-- Node1 -->
<g id="node1" class="node"><title>Node1</title>
<polygon fill="#bfbfbf" stroke="black" points="171,-0.5 171,-21.5 353,-21.5 353,-0.5 171,-0.5"/>
<text text-anchor="middle" x="262" y="-8.5" font-family="Helvetica,sans-Serif" font-size="10.00">mozilla::dom::DeviceOrientationEvent</text>
</g>
<!-- Node2 -->
<g id="node2" class="node"><title>Node2</title>
<a xlink:href="../../dc/d9a/classns_d_o_m_event.html" target="_top" xlink:title="nsDOMEvent">
<polygon fill="white" stroke="black" points="298,-60.5 298,-81.5 374,-81.5 374,-60.5 298,-60.5"/>
<text text-anchor="middle" x="336" y="-68.5" font-family="Helvetica,sans-Serif" font-size="10.00">nsDOMEvent</text>
</a>
</g>
<!-- Node2&#45;&gt;Node1 -->
<g id="edge2" class="edge"><title>Node2&#45;&gt;Node1</title>
<path fill="none" stroke="midnightblue" d="M314.888,-53.8824C302.078,-43.4954 286.13,-30.5651 275.115,-21.6339"/>
<polygon fill="midnightblue" stroke="midnightblue" points="312.798,-56.6938 322.77,-60.2732 317.207,-51.2565 312.798,-56.6938"/>
</g>
<!-- Node3 -->
<g id="node4" class="node"><title>Node3</title>
<a xlink:href="../../df/d03/classns_d_o_m_event_base.html" target="_top" xlink:title="nsDOMEventBase">
<polygon fill="white" stroke="black" points="174,-132.5 174,-153.5 272,-153.5 272,-132.5 174,-132.5"/>
<text text-anchor="middle" x="223" y="-140.5" font-family="Helvetica,sans-Serif" font-size="10.00">nsDOMEventBase</text>
</a>
</g>
<!-- Node3&#45;&gt;Node2 -->
<g id="edge4" class="edge"><title>Node3&#45;&gt;Node2</title>
<path fill="none" stroke="midnightblue" d="M248.35,-126.848C270.003,-113.051 300.535,-93.597 319.258,-81.6674"/>
<polygon fill="midnightblue" stroke="midnightblue" points="246.226,-124.051 239.674,-132.376 249.988,-129.954 246.226,-124.051"/>
</g>
<!-- Node4 -->
<g id="node6" class="node"><title>Node4</title>
<a xlink:href="../../d4/d5c/interfacens_i_d_o_m_event.html" target="_top" xlink:title="nsIDOMEvent">
<polygon fill="white" stroke="black" points="38.5,-204.5 38.5,-225.5 117.5,-225.5 117.5,-204.5 38.5,-204.5"/>
<text text-anchor="middle" x="78" y="-212.5" font-family="Helvetica,sans-Serif" font-size="10.00">nsIDOMEvent</text>
</a>
</g>
<!-- Node4&#45;&gt;Node3 -->
<g id="edge6" class="edge"><title>Node4&#45;&gt;Node3</title>
<path fill="none" stroke="midnightblue" d="M108.685,-199.763C136.557,-185.924 176.956,-165.863 201.517,-153.667"/>
<polygon fill="midnightblue" stroke="midnightblue" points="106.795,-196.794 99.3952,-204.376 109.908,-203.063 106.795,-196.794"/>
</g>
<!-- Node11 -->
<g id="node23" class="node"><title>Node11</title>
<a xlink:href="../../d8/df1/interfacens_i_d_o_m_device_orientation_event.html" target="_top" xlink:title="nsIDOMDeviceOrientationEvent">
<polygon fill="white" stroke="black" points="-0.5,-132.5 -0.5,-153.5 156.5,-153.5 156.5,-132.5 -0.5,-132.5"/>
<text text-anchor="middle" x="78" y="-140.5" font-family="Helvetica,sans-Serif" font-size="10.00">nsIDOMDeviceOrientationEvent</text>
</a>
</g>
<!-- Node4&#45;&gt;Node11 -->
<g id="edge28" class="edge"><title>Node4&#45;&gt;Node11</title>
<path fill="none" stroke="midnightblue" d="M71.8188,-194.235C70.7675,-180.969 71.1736,-164.319 73.037,-153.667"/>
<polygon fill="midnightblue" stroke="midnightblue" points="68.3698,-194.868 73.0446,-204.376 75.3192,-194.028 68.3698,-194.868"/>
</g>
<!-- Node4&#45;&gt;Node11 -->
<g id="edge30" class="edge"><title>Node4&#45;&gt;Node11</title>
<path fill="none" stroke="midnightblue" d="M84.1812,-194.235C85.2325,-180.969 84.8264,-164.319 82.963,-153.667"/>
<polygon fill="midnightblue" stroke="midnightblue" points="80.6808,-194.028 82.9554,-204.376 87.6302,-194.868 80.6808,-194.028"/>
</g>
<!-- Node5 -->
<g id="node8" class="node"><title>Node5</title>
<a xlink:href="../../d4/d6a/classns_i_supports.html" target="_top" xlink:title="nsISupports">
<polygon fill="white" stroke="black" points="76.5,-374.5 76.5,-395.5 145.5,-395.5 145.5,-374.5 76.5,-374.5"/>
<text text-anchor="middle" x="111" y="-382.5" font-family="Helvetica,sans-Serif" font-size="10.00">nsISupports</text>
</a>
</g>
<!-- Node5&#45;&gt;Node4 -->
<g id="edge8" class="edge"><title>Node5&#45;&gt;Node4</title>
<path fill="none" stroke="midnightblue" d="M102.399,-364.367C92.1158,-327.898 78.0036,-253.293 76.5774,-225.63"/>
<polygon fill="midnightblue" stroke="midnightblue" points="99.1836,-365.822 105.449,-374.366 105.879,-363.78 99.1836,-365.822"/>
</g>
<!-- Node5&#45;&gt;Node4 -->
<g id="edge10" class="edge"><title>Node5&#45;&gt;Node4</title>
<path fill="none" stroke="midnightblue" d="M111.59,-364.367C107.715,-327.898 92.8632,-253.293 83.5496,-225.63"/>
<polygon fill="midnightblue" stroke="midnightblue" points="108.105,-364.69 112.422,-374.366 115.081,-364.11 108.105,-364.69"/>
</g>
<!-- Node6 -->
<g id="node11" class="node"><title>Node6</title>
<a xlink:href="../../d9/ddf/interfacens_i_d_o_m_event_target.html" target="_top" xlink:title="nsIDOMEventTarget">
<polygon fill="white" stroke="black" points="114.5,-314.5 114.5,-335.5 221.5,-335.5 221.5,-314.5 114.5,-314.5"/>
<text text-anchor="middle" x="168" y="-322.5" font-family="Helvetica,sans-Serif" font-size="10.00">nsIDOMEventTarget</text>
</a>
</g>
<!-- Node5&#45;&gt;Node6 -->
<g id="edge14" class="edge"><title>Node5&#45;&gt;Node6</title>
<path fill="none" stroke="midnightblue" d="M122.389,-366.382C131.152,-356.273 143.011,-344.14 152.598,-335.634"/>
<polygon fill="midnightblue" stroke="midnightblue" points="119.542,-364.333 115.875,-374.273 124.94,-368.79 119.542,-364.333"/>
</g>
<!-- Node5&#45;&gt;Node6 -->
<g id="edge16" class="edge"><title>Node5&#45;&gt;Node6</title>
<path fill="none" stroke="midnightblue" d="M134.048,-367.286C144.754,-357.004 156.426,-344.395 163.197,-335.634"/>
<polygon fill="midnightblue" stroke="midnightblue" points="131.463,-364.909 126.506,-374.273 136.221,-370.044 131.463,-364.909"/>
</g>
<!-- Node6&#45;&gt;Node4 -->
<g id="edge12" class="edge"><title>Node6&#45;&gt;Node4</title>
<path fill="none" stroke="#9a32cd" stroke-dasharray="5,2" d="M152.789,-306.409C133.819,-283.224 102.027,-244.367 86.7357,-225.677"/>
<polygon fill="#9a32cd" stroke="#9a32cd" points="150.329,-308.929 159.37,-314.453 155.747,-304.497 150.329,-308.929"/>
<text text-anchor="middle" x="190" y="-287" font-family="Helvetica,sans-Serif" font-size="10.00"> target</text>
<text text-anchor="middle" x="190" y="-274" font-family="Helvetica,sans-Serif" font-size="10.00">currentTarget</text>
<text text-anchor="middle" x="190" y="-261" font-family="Helvetica,sans-Serif" font-size="10.00">originalTarget</text>
<text text-anchor="middle" x="190" y="-248" font-family="Helvetica,sans-Serif" font-size="10.00">explicitOriginalTarget</text>
</g>
<!-- Node7 -->
<g id="node15" class="node"><title>Node7</title>
<a xlink:href="../../d0/d7e/classns_wrapper_cache.html" target="_top" xlink:title="nsWrapperCache">
<polygon fill="white" stroke="black" points="290,-132.5 290,-153.5 382,-153.5 382,-132.5 290,-132.5"/>
<text text-anchor="middle" x="336" y="-140.5" font-family="Helvetica,sans-Serif" font-size="10.00">nsWrapperCache</text>
</a>
</g>
<!-- Node7&#45;&gt;Node2 -->
<g id="edge18" class="edge"><title>Node7&#45;&gt;Node2</title>
<path fill="none" stroke="midnightblue" d="M336,-122.235C336,-108.969 336,-92.3188 336,-81.6674"/>
<polygon fill="midnightblue" stroke="midnightblue" points="332.5,-122.376 336,-132.376 339.5,-122.376 332.5,-122.376"/>
</g>
<!-- Node8 -->
<g id="node17" class="node"><title>Node8</title>
<a xlink:href="../../d0/d01/classns_ref_ptr.html" target="_top" xlink:title="nsRefPtr\&lt; nsPresContext \&gt;">
<polygon fill="white" stroke="black" points="399.5,-132.5 399.5,-153.5 538.5,-153.5 538.5,-132.5 399.5,-132.5"/>
<text text-anchor="middle" x="469" y="-140.5" font-family="Helvetica,sans-Serif" font-size="10.00">nsRefPtr&lt; nsPresContext &gt;</text>
</a>
</g>
<!-- Node8&#45;&gt;Node2 -->
<g id="edge20" class="edge"><title>Node8&#45;&gt;Node2</title>
<path fill="none" stroke="#9a32cd" stroke-dasharray="5,2" d="M440.519,-127.582C414.966,-113.749 378.135,-93.81 355.705,-81.6674"/>
<polygon fill="#9a32cd" stroke="#9a32cd" points="438.915,-130.693 449.375,-132.376 442.248,-124.537 438.915,-130.693"/>
<text text-anchor="middle" x="448.5" y="-104.5" font-family="Helvetica,sans-Serif" font-size="10.00"> mPresContext</text>
</g>
<!-- Node9 -->
<g id="node19" class="node"><title>Node9</title>
<a xlink:href="../../dc/db1/classns_event.html" target="_top" xlink:title="nsEvent">
<polygon fill="white" stroke="black" points="555.5,-132.5 555.5,-153.5 608.5,-153.5 608.5,-132.5 555.5,-132.5"/>
<text text-anchor="middle" x="582" y="-140.5" font-family="Helvetica,sans-Serif" font-size="10.00">nsEvent</text>
</a>
</g>
<!-- Node9&#45;&gt;Node2 -->
<g id="edge22" class="edge"><title>Node9&#45;&gt;Node2</title>
<path fill="none" stroke="#9a32cd" stroke-dasharray="5,2" d="M552.785,-127.795C534.108,-118.612 509.133,-107.309 486,-100 448.822,-88.2525 404.881,-80.4342 374.203,-75.9061"/>
<polygon fill="#9a32cd" stroke="#9a32cd" points="551.425,-131.028 561.934,-132.371 554.556,-124.767 551.425,-131.028"/>
<text text-anchor="middle" x="539.5" y="-104.5" font-family="Helvetica,sans-Serif" font-size="10.00"> mEvent</text>
</g>
<!-- Node10 -->
<g id="node21" class="node"><title>Node10</title>
<a xlink:href="../../d9/d49/structmozilla_1_1widget_1_1_base_event_flags.html" target="_top" xlink:title="mozilla::widget::BaseEventFlags">
<polygon fill="white" stroke="black" points="502,-204.5 502,-225.5 662,-225.5 662,-204.5 502,-204.5"/>
<text text-anchor="middle" x="582" y="-212.5" font-family="Helvetica,sans-Serif" font-size="10.00">mozilla::widget::BaseEventFlags</text>
</a>
</g>
<!-- Node10&#45;&gt;Node9 -->
<g id="edge24" class="edge"><title>Node10&#45;&gt;Node9</title>
<path fill="none" stroke="#9a32cd" stroke-dasharray="5,2" d="M582,-194.235C582,-180.969 582,-164.319 582,-153.667"/>
<polygon fill="#9a32cd" stroke="#9a32cd" points="578.5,-194.376 582,-204.376 585.5,-194.376 578.5,-194.376"/>
<text text-anchor="middle" x="600" y="-176.5" font-family="Helvetica,sans-Serif" font-size="10.00"> mFlags</text>
</g>
<!-- Node11&#45;&gt;Node1 -->
<g id="edge26" class="edge"><title>Node11&#45;&gt;Node1</title>
<path fill="none" stroke="midnightblue" d="M101.219,-126.343C139.604,-98.8057 215.224,-44.5568 247.183,-21.6294"/>
<polygon fill="midnightblue" stroke="midnightblue" points="98.8317,-123.748 92.7465,-132.421 102.912,-129.436 98.8317,-123.748"/>
</g>
</g>
</svg>
        <g id="navigator" transform="translate(0 0)" fill="#404254">
                <rect fill="#f2f5e9" fill-opacity="0.5" stroke="#606060" stroke-width=".5" x="0" y="0" width="60" height="60"/>
                <use id="zoomplus" xlink:href="#zoomPlus" x="17" y="9" onmousedown="handleZoom(evt,'in')"/>
                <use id="zoomminus" xlink:href="#zoomMin" x="42" y="9" onmousedown="handleZoom(evt,'out')"/>
                <use id="reset" xlink:href="#resetDef" x="30" y="36" onmousedown="handleReset()"/>
                <g id="arrowUp" xlink:href="#dirArrow" transform="translate(30 24)" onmousedown="handlePan(0,-1)">
                  <use xlink:href="#rim" fill="#404040">
                        <set attributeName="fill" to="#808080" begin="arrowUp.mouseover" end="arrowUp.mouseout"/>
                  </use>
                  <path fill="none" stroke="white" stroke-width="1.5" d="M0,-3.0v7 M-2.5,-0.5L0,-3.0L2.5,-0.5"/>
                </g>
                <g id="arrowRight" xlink:href="#dirArrow" transform="rotate(90) translate(36 -43)" onmousedown="handlePan(1,0)">
                  <use xlink:href="#rim" fill="#404040">
                        <set attributeName="fill" to="#808080" begin="arrowRight.mouseover" end="arrowRight.mouseout"/>
                  </use>
                  <path fill="none" stroke="white" stroke-width="1.5" d="M0,-3.0v7 M-2.5,-0.5L0,-3.0L2.5,-0.5"/>
                </g>
                <g id="arrowDown" xlink:href="#dirArrow" transform="rotate(180) translate(-30 -48)" onmousedown="handlePan(0,1)">
                  <use xlink:href="#rim" fill="#404040">
                        <set attributeName="fill" to="#808080" begin="arrowDown.mouseover" end="arrowDown.mouseout"/>
                  </use>
                  <path fill="none" stroke="white" stroke-width="1.5" d="M0,-3.0v7 M-2.5,-0.5L0,-3.0L2.5,-0.5"/>
                </g>
                <g id="arrowLeft" xlink:href="#dirArrow" transform="rotate(270) translate(-36 17)" onmousedown="handlePan(-1,0)">
                  <use xlink:href="#rim" fill="#404040">
                        <set attributeName="fill" to="#808080" begin="arrowLeft.mouseover" end="arrowLeft.mouseout"/>
                  </use>
                  <path fill="none" stroke="white" stroke-width="1.5" d="M0,-3.0v7 M-2.5,-0.5L0,-3.0L2.5,-0.5"/>
                </g>
        </g>
</svg>
