<?xml version="1.0" encoding="UTF-8" standalone="no"?>
<!DOCTYPE svg PUBLIC "-//W3C//DTD SVG 1.1//EN"
 "http://www.w3.org/Graphics/SVG/1.1/DTD/svg11.dtd">
<!-- Generated by graphviz version 2.26.3 (20100126.1600)
 -->
<!-- Title: G Pages: 1 -->
<!--zoomable 159 -->
<svg id="main" version="1.1" xmlns="http://www.w3.org/2000/svg" xmlns:xlink="http://www.w3.org/1999/xlink" xml:space="preserve" onload="init(evt)">
        <defs>
                <circle id="rim" cx="0" cy="0" r="7"/>
                <circle id="rim2" cx="0" cy="0" r="3.5"/>
                <g id="zoomPlus">
                        <use xlink:href="#rim" fill="#404040">
                                <set attributeName="fill" to="#808080" begin="zoomplus.mouseover" end="zoomplus.mouseout"/>
                        </use>
                        <path d="M-4,0h8M0,-4v8" fill="none" stroke="white" stroke-width="1.5" pointer-events="none"/>
                </g>
                <g id="zoomMin">
                        <use xlink:href="#rim" fill="#404040">
                                <set attributeName="fill" to="#808080" begin="zoomminus.mouseover" end="zoomminus.mouseout"/>
                        </use>
                        <path d="M-4,0h8" fill="none" stroke="white" stroke-width="1.5" pointer-events="none"/>
                </g>
                <g id="dirArrow">
                        <path fill="none" stroke="white" stroke-width="1.5" d="M0,-3.0v7 M-2.5,-0.5L0,-3.0L2.5,-0.5"/>
                </g>
               <g id="resetDef">
                       <use xlink:href="#rim2" fill="#404040">
                               <set attributeName="fill" to="#808080" begin="reset.mouseover" end="reset.mouseout"/>
                       </use>
               </g>
        </defs>

<script type="text/javascript">
var viewWidth = 1070;
var viewHeight = 159;
var sectionId = 'dynsection-4';
</script>
<script xlink:href="../../svgpan.js"/>
<svg id="graph" class="graph">
<g id="viewport">
<title>G</title>
<polygon fill="white" stroke="white" points="-4,5 -4,-155 1067,-155 1067,5 -4,5"/>
<!-- Node1 -->
<g id="node1" class="node"><title>Node1</title>
<polygon fill="#bfbfbf" stroke="black" points="0.5,-79.5 0.5,-100.5 151.5,-100.5 151.5,-79.5 0.5,-79.5"/>
<text text-anchor="middle" x="76" y="-87.5" font-family="Helvetica,sans-Serif" font-size="10.00">mozilla::dom::PromiseInit::Call</text>
</g>
<!-- Node2 -->
<g id="node3" class="node"><title>Node2</title>
<a xlink:href="../../d1/d2b/classmozilla_1_1dom_1_1_promise_init.html#abfa9f2954cd85a61ff32a88494342b59" target="_top" xlink:title="mozilla::dom::PromiseInit::Call">
<polygon fill="white" stroke="black" points="188.5,-99.5 188.5,-120.5 339.5,-120.5 339.5,-99.5 188.5,-99.5"/>
<text text-anchor="middle" x="264" y="-107.5" font-family="Helvetica,sans-Serif" font-size="10.00">mozilla::dom::PromiseInit::Call</text>
</a>
</g>
<!-- Node1&#45;&gt;Node2 -->
<g id="edge2" class="edge"><title>Node1&#45;&gt;Node2</title>
<path fill="none" stroke="midnightblue" d="M151.654,-98.0483C160.402,-98.9789 169.37,-99.933 178.24,-100.877"/>
<polygon fill="midnightblue" stroke="midnightblue" points="177.88,-104.358 188.195,-101.936 178.621,-97.3973 177.88,-104.358"/>
</g>
<!-- Node3 -->
<g id="node5" class="node"><title>Node3</title>
<a xlink:href="../../d5/dc4/classmozilla_1_1dom_1_1_callback_object.html#a8a90a2d95ada28cbfcd86096f3f3b24e" target="_top" xlink:title="mozilla::dom::CallbackObject::CallbackPreserveColor">
<polygon fill="white" stroke="black" points="376.5,-129.5 376.5,-150.5 627.5,-150.5 627.5,-129.5 376.5,-129.5"/>
<text text-anchor="middle" x="502" y="-137.5" font-family="Helvetica,sans-Serif" font-size="10.00">mozilla::dom::CallbackObject::CallbackPreserveColor</text>
</a>
</g>
<!-- Node1&#45;&gt;Node3 -->
<g id="edge24" class="edge"><title>Node1&#45;&gt;Node3</title>
<path fill="none" stroke="midnightblue" d="M99.0054,-100.609C121.242,-110.284 156.151,-123.96 188,-130 245.761,-140.955 310.55,-144.457 366.208,-144.841"/>
<polygon fill="midnightblue" stroke="midnightblue" points="366.478,-148.342 376.49,-144.877 366.503,-141.342 366.478,-148.342"/>
</g>
<!-- Node5 -->
<g id="node9" class="node"><title>Node5</title>
<a xlink:href="../../df/de5/classmozilla_1_1dom_1_1_callback_object_1_1_call_setup.html#a3985d9eb3b5b1bef46e3daa3c2e7c5c5" target="_top" xlink:title="mozilla::dom::CallbackObject::CallSetup::GetContext">
<polygon fill="white" stroke="black" points="377,-89.5 377,-110.5 627,-110.5 627,-89.5 377,-89.5"/>
<text text-anchor="middle" x="502" y="-97.5" font-family="Helvetica,sans-Serif" font-size="10.00">mozilla::dom::CallbackObject::CallSetup::GetContext</text>
</a>
</g>
<!-- Node1&#45;&gt;Node5 -->
<g id="edge26" class="edge"><title>Node1&#45;&gt;Node5</title>
<path fill="none" stroke="midnightblue" d="M151.694,-88.7635C204.484,-88.204 276.551,-88.0436 340,-90 348.697,-90.2682 357.653,-90.6171 366.679,-91.0235"/>
<polygon fill="midnightblue" stroke="midnightblue" points="366.735,-94.53 376.889,-91.5055 367.065,-87.5378 366.735,-94.53"/>
</g>
<!-- Node6 -->
<g id="node11" class="node"><title>Node6</title>
<a xlink:href="../../dd/d9c/classmozilla_1_1_error_result.html#a35d9f418a4b6bcbefcb67dda4bc7e6ee" target="_top" xlink:title="mozilla::ErrorResult::Throw">
<polygon fill="white" stroke="black" points="434,-40.5 434,-61.5 570,-61.5 570,-40.5 434,-40.5"/>
<text text-anchor="middle" x="502" y="-48.5" font-family="Helvetica,sans-Serif" font-size="10.00">mozilla::ErrorResult::Throw</text>
</a>
</g>
<!-- Node1&#45;&gt;Node6 -->
<g id="edge28" class="edge"><title>Node1&#45;&gt;Node6</title>
<path fill="none" stroke="midnightblue" d="M151.669,-83.0725C228.209,-76.0653 345.993,-65.2823 423.523,-58.1845"/>
<polygon fill="midnightblue" stroke="midnightblue" points="424.076,-61.6486 433.715,-57.2514 423.437,-54.6778 424.076,-61.6486"/>
</g>
<!-- Node2&#45;&gt;Node3 -->
<g id="edge4" class="edge"><title>Node2&#45;&gt;Node3</title>
<path fill="none" stroke="midnightblue" d="M339.632,-119.533C361.448,-122.283 385.517,-125.317 408.291,-128.188"/>
<polygon fill="midnightblue" stroke="midnightblue" points="407.945,-131.672 418.305,-129.45 408.821,-124.727 407.945,-131.672"/>
</g>
<!-- Node2&#45;&gt;Node5 -->
<g id="edge8" class="edge"><title>Node2&#45;&gt;Node5</title>
<path fill="none" stroke="midnightblue" d="M339.632,-106.822C348.328,-106.457 357.382,-106.076 366.57,-105.69"/>
<polygon fill="midnightblue" stroke="midnightblue" points="366.737,-109.187 376.581,-105.27 366.443,-102.193 366.737,-109.187"/>
</g>
<!-- Node2&#45;&gt;Node6 -->
<g id="edge10" class="edge"><title>Node2&#45;&gt;Node6</title>
<path fill="none" stroke="midnightblue" d="M302.015,-99.4583C323.653,-93.5483 351.29,-86.151 376,-80 398.283,-74.4532 422.877,-68.7087 444.378,-63.8101"/>
<polygon fill="midnightblue" stroke="midnightblue" points="445.36,-67.1761 454.338,-61.5505 443.812,-60.3496 445.36,-67.1761"/>
</g>
<!-- Node4 -->
<g id="node7" class="node"><title>Node4</title>
<a xlink:href="../../db/d0b/class_j_s_1_1_heap.html#ac97872f2a208107769399acb87d52426" target="_top" xlink:title="JS::Heap::address">
<polygon fill="white" stroke="black" points="719,-129.5 719,-150.5 817,-150.5 817,-129.5 719,-129.5"/>
<text text-anchor="middle" x="768" y="-137.5" font-family="Helvetica,sans-Serif" font-size="10.00">JS::Heap::address</text>
</a>
</g>
<!-- Node3&#45;&gt;Node4 -->
<g id="edge6" class="edge"><title>Node3&#45;&gt;Node4</title>
<path fill="none" stroke="midnightblue" d="M627.6,-140C655.966,-140 684.783,-140 708.867,-140"/>
<polygon fill="midnightblue" stroke="midnightblue" points="708.884,-143.5 718.884,-140 708.884,-136.5 708.884,-143.5"/>
</g>
<!-- Node7 -->
<g id="node13" class="node"><title>Node7</title>
<a xlink:href="../../dd/d9c/classmozilla_1_1_error_result.html#a3743341d1ffd2f7bbe90bba540e988fe" target="_top" xlink:title="mozilla::ErrorResult::IsJSException">
<polygon fill="white" stroke="black" points="681.5,-80.5 681.5,-101.5 854.5,-101.5 854.5,-80.5 681.5,-80.5"/>
<text text-anchor="middle" x="768" y="-88.5" font-family="Helvetica,sans-Serif" font-size="10.00">mozilla::ErrorResult::IsJSException</text>
</a>
</g>
<!-- Node6&#45;&gt;Node7 -->
<g id="edge12" class="edge"><title>Node6&#45;&gt;Node7</title>
<path fill="none" stroke="midnightblue" d="M570.156,-61.2491C606.188,-66.6674 650.627,-73.35 688.255,-79.0082"/>
<polygon fill="midnightblue" stroke="midnightblue" points="687.759,-82.4729 698.168,-80.4989 688.8,-75.5507 687.759,-82.4729"/>
</g>
<!-- Node9 -->
<g id="node17" class="node"><title>Node9</title>
<a xlink:href="../../dd/d9c/classmozilla_1_1_error_result.html#a42babe5c49a9e75f2559a69edb11e874" target="_top" xlink:title="mozilla::ErrorResult::IsNotEnoughArgsError">
<polygon fill="white" stroke="black" points="664.5,-40.5 664.5,-61.5 871.5,-61.5 871.5,-40.5 664.5,-40.5"/>
<text text-anchor="middle" x="768" y="-48.5" font-family="Helvetica,sans-Serif" font-size="10.00">mozilla::ErrorResult::IsNotEnoughArgsError</text>
</a>
</g>
<!-- Node6&#45;&gt;Node9 -->
<g id="edge16" class="edge"><title>Node6&#45;&gt;Node9</title>
<path fill="none" stroke="midnightblue" d="M570.156,-51C595.767,-51 625.626,-51 654.267,-51"/>
<polygon fill="midnightblue" stroke="midnightblue" points="654.338,-54.5001 664.338,-51 654.338,-47.5001 654.338,-54.5001"/>
</g>
<!-- Node10 -->
<g id="node20" class="node"><title>Node10</title>
<a xlink:href="../../dd/d9c/classmozilla_1_1_error_result.html#a0fb81790665001fd83bc9276c810ce4f" target="_top" xlink:title="mozilla::ErrorResult::IsTypeError">
<polygon fill="white" stroke="black" points="688,-0.5 688,-21.5 848,-21.5 848,-0.5 688,-0.5"/>
<text text-anchor="middle" x="768" y="-8.5" font-family="Helvetica,sans-Serif" font-size="10.00">mozilla::ErrorResult::IsTypeError</text>
</a>
</g>
<!-- Node6&#45;&gt;Node10 -->
<g id="edge20" class="edge"><title>Node6&#45;&gt;Node10</title>
<path fill="none" stroke="midnightblue" d="M570.156,-40.7509C606.188,-35.3326 650.627,-28.65 688.255,-22.9918"/>
<polygon fill="midnightblue" stroke="midnightblue" points="688.8,-26.4493 698.168,-21.5011 687.759,-19.5271 688.8,-26.4493"/>
</g>
<!-- Node8 -->
<g id="node15" class="node"><title>Node8</title>
<a xlink:href="../../dd/d9c/classmozilla_1_1_error_result.html#a5ec60babbb4edab5e6b4f41f2406148a" target="_top" xlink:title="mozilla::ErrorResult::ErrorCode">
<polygon fill="white" stroke="black" points="908.5,-40.5 908.5,-61.5 1061.5,-61.5 1061.5,-40.5 908.5,-40.5"/>
<text text-anchor="middle" x="985" y="-48.5" font-family="Helvetica,sans-Serif" font-size="10.00">mozilla::ErrorResult::ErrorCode</text>
</a>
</g>
<!-- Node7&#45;&gt;Node8 -->
<g id="edge14" class="edge"><title>Node7&#45;&gt;Node8</title>
<path fill="none" stroke="midnightblue" d="M825.014,-80.4905C853.558,-75.229 888.289,-68.8268 918.089,-63.3338"/>
<polygon fill="midnightblue" stroke="midnightblue" points="918.79,-66.7636 927.99,-61.5087 917.521,-59.8796 918.79,-66.7636"/>
</g>
<!-- Node9&#45;&gt;Node8 -->
<g id="edge18" class="edge"><title>Node9&#45;&gt;Node8</title>
<path fill="none" stroke="midnightblue" d="M871.733,-51C880.584,-51 889.476,-51 898.175,-51"/>
<polygon fill="midnightblue" stroke="midnightblue" points="898.283,-54.5001 908.283,-51 898.283,-47.5001 898.283,-54.5001"/>
</g>
<!-- Node10&#45;&gt;Node8 -->
<g id="edge22" class="edge"><title>Node10&#45;&gt;Node8</title>
<path fill="none" stroke="midnightblue" d="M825.014,-21.5095C853.558,-26.771 888.289,-33.1732 918.089,-38.6662"/>
<polygon fill="midnightblue" stroke="midnightblue" points="917.521,-42.1204 927.99,-40.4913 918.79,-35.2364 917.521,-42.1204"/>
</g>
</g>
</svg>
        <g id="navigator" transform="translate(0 0)" fill="#404254">
                <rect fill="#f2f5e9" fill-opacity="0.5" stroke="#606060" stroke-width=".5" x="0" y="0" width="60" height="60"/>
                <use id="zoomplus" xlink:href="#zoomPlus" x="17" y="9" onmousedown="handleZoom(evt,'in')"/>
                <use id="zoomminus" xlink:href="#zoomMin" x="42" y="9" onmousedown="handleZoom(evt,'out')"/>
                <use id="reset" xlink:href="#resetDef" x="30" y="36" onmousedown="handleReset()"/>
                <g id="arrowUp" xlink:href="#dirArrow" transform="translate(30 24)" onmousedown="handlePan(0,-1)">
                  <use xlink:href="#rim" fill="#404040">
                        <set attributeName="fill" to="#808080" begin="arrowUp.mouseover" end="arrowUp.mouseout"/>
                  </use>
                  <path fill="none" stroke="white" stroke-width="1.5" d="M0,-3.0v7 M-2.5,-0.5L0,-3.0L2.5,-0.5"/>
                </g>
                <g id="arrowRight" xlink:href="#dirArrow" transform="rotate(90) translate(36 -43)" onmousedown="handlePan(1,0)">
                  <use xlink:href="#rim" fill="#404040">
                        <set attributeName="fill" to="#808080" begin="arrowRight.mouseover" end="arrowRight.mouseout"/>
                  </use>
                  <path fill="none" stroke="white" stroke-width="1.5" d="M0,-3.0v7 M-2.5,-0.5L0,-3.0L2.5,-0.5"/>
                </g>
                <g id="arrowDown" xlink:href="#dirArrow" transform="rotate(180) translate(-30 -48)" onmousedown="handlePan(0,1)">
                  <use xlink:href="#rim" fill="#404040">
                        <set attributeName="fill" to="#808080" begin="arrowDown.mouseover" end="arrowDown.mouseout"/>
                  </use>
                  <path fill="none" stroke="white" stroke-width="1.5" d="M0,-3.0v7 M-2.5,-0.5L0,-3.0L2.5,-0.5"/>
                </g>
                <g id="arrowLeft" xlink:href="#dirArrow" transform="rotate(270) translate(-36 17)" onmousedown="handlePan(-1,0)">
                  <use xlink:href="#rim" fill="#404040">
                        <set attributeName="fill" to="#808080" begin="arrowLeft.mouseover" end="arrowLeft.mouseout"/>
                  </use>
                  <path fill="none" stroke="white" stroke-width="1.5" d="M0,-3.0v7 M-2.5,-0.5L0,-3.0L2.5,-0.5"/>
                </g>
        </g>
</svg>
