<?xml version="1.0" encoding="UTF-8" standalone="no"?>
<!DOCTYPE svg PUBLIC "-//W3C//DTD SVG 1.1//EN"
 "http://www.w3.org/Graphics/SVG/1.1/DTD/svg11.dtd">
<!-- Generated by graphviz version 2.26.3 (20100126.1600)
 -->
<!-- Title: G Pages: 1 -->
<svg width="246pt" height="162pt"
 viewBox="0.00 0.00 246.00 162.00" xmlns="http://www.w3.org/2000/svg" xmlns:xlink="http://www.w3.org/1999/xlink">
<g id="graph1" class="graph" transform="scale(1 1) rotate(0) translate(4 158)">
<title>G</title>
<polygon fill="white" stroke="white" points="-4,5 -4,-158 243,-158 243,5 -4,5"/>
<!-- Node1 -->
<g id="node1" class="node"><title>Node1</title>
<polygon fill="#bfbfbf" stroke="black" points="0,-0.5 0,-21.5 238,-21.5 238,-0.5 0,-0.5"/>
<text text-anchor="middle" x="119" y="-8.5" font-family="Helvetica,sans-Serif" font-size="10.00">mozilla::detail::BaseOfTester&lt; Type, const Type &gt;</text>
</g>
<!-- Node2 -->
<g id="node2" class="node"><title>Node2</title>
<a xlink:href="../../d2/dbe/structmozilla_1_1_integral_constant.html" target="_top" xlink:title="TrueType">
<polygon fill="white" stroke="black" points="90,-60.5 90,-81.5 148,-81.5 148,-60.5 90,-60.5"/>
<text text-anchor="middle" x="119" y="-68.5" font-family="Helvetica,sans-Serif" font-size="10.00">TrueType</text>
</a>
</g>
<!-- Node2&#45;&gt;Node1 -->
<g id="edge2" class="edge"><title>Node2&#45;&gt;Node1</title>
<path fill="none" stroke="midnightblue" d="M119,-50.2312C119,-40.5922 119,-29.5444 119,-21.6339"/>
<polygon fill="midnightblue" stroke="midnightblue" points="115.5,-50.2732 119,-60.2732 122.5,-50.2732 115.5,-50.2732"/>
</g>
<!-- Node3 -->
<g id="node4" class="node"><title>Node3</title>
<polygon fill="white" stroke="#bfbfbf" points="104.5,-132.5 104.5,-153.5 133.5,-153.5 133.5,-132.5 104.5,-132.5"/>
<text text-anchor="middle" x="119" y="-140.5" font-family="Helvetica,sans-Serif" font-size="10.00">T</text>
</g>
<!-- Node3&#45;&gt;Node2 -->
<g id="edge4" class="edge"><title>Node3&#45;&gt;Node2</title>
<path fill="none" stroke="#9a32cd" stroke-dasharray="5,2" d="M119,-122.235C119,-108.969 119,-92.3188 119,-81.6674"/>
<polygon fill="#9a32cd" stroke="#9a32cd" points="115.5,-122.376 119,-132.376 122.5,-122.376 115.5,-122.376"/>
<text text-anchor="middle" x="132.5" y="-104.5" font-family="Helvetica,sans-Serif" font-size="10.00"> value</text>
</g>
</g>
</svg>
