<?xml version="1.0" encoding="UTF-8" standalone="no"?>
<!DOCTYPE svg PUBLIC "-//W3C//DTD SVG 1.1//EN"
 "http://www.w3.org/Graphics/SVG/1.1/DTD/svg11.dtd">
<!-- Generated by graphviz version 2.26.3 (20100126.1600)
 -->
<!-- Title: G Pages: 1 -->
<!--zoomable 262 -->
<svg id="main" version="1.1" xmlns="http://www.w3.org/2000/svg" xmlns:xlink="http://www.w3.org/1999/xlink" xml:space="preserve" onload="init(evt)">
        <defs>
                <circle id="rim" cx="0" cy="0" r="7"/>
                <circle id="rim2" cx="0" cy="0" r="3.5"/>
                <g id="zoomPlus">
                        <use xlink:href="#rim" fill="#404040">
                                <set attributeName="fill" to="#808080" begin="zoomplus.mouseover" end="zoomplus.mouseout"/>
                        </use>
                        <path d="M-4,0h8M0,-4v8" fill="none" stroke="white" stroke-width="1.5" pointer-events="none"/>
                </g>
                <g id="zoomMin">
                        <use xlink:href="#rim" fill="#404040">
                                <set attributeName="fill" to="#808080" begin="zoomminus.mouseover" end="zoomminus.mouseout"/>
                        </use>
                        <path d="M-4,0h8" fill="none" stroke="white" stroke-width="1.5" pointer-events="none"/>
                </g>
                <g id="dirArrow">
                        <path fill="none" stroke="white" stroke-width="1.5" d="M0,-3.0v7 M-2.5,-0.5L0,-3.0L2.5,-0.5"/>
                </g>
               <g id="resetDef">
                       <use xlink:href="#rim2" fill="#404040">
                               <set attributeName="fill" to="#808080" begin="reset.mouseover" end="reset.mouseout"/>
                       </use>
               </g>
        </defs>

<script type="text/javascript">
var viewWidth = 3475;
var viewHeight = 262;
var sectionId = 'dynsection-1';
</script>
<script xlink:href="../../svgpan.js"/>
<svg id="graph" class="graph">
<g id="viewport">
<title>G</title>
<polygon fill="white" stroke="white" points="-4,5 -4,-258 3472,-258 3472,5 -4,5"/>
<!-- Node1 -->
<g id="node1" class="node"><title>Node1</title>
<polygon fill="#bfbfbf" stroke="black" points="1227.5,-232.5 1227.5,-253.5 1574.5,-253.5 1574.5,-232.5 1227.5,-232.5"/>
<text text-anchor="middle" x="1401" y="-240.5" font-family="Helvetica,sans-Serif" font-size="10.00">/home/aoi/Documents/FxOS/B2G/gaia/xulrunner&#45;sdk/include/nspr/prmwait.h</text>
</g>
<!-- Node2 -->
<g id="node3" class="node"><title>Node2</title>
<a xlink:href="../../d8/d6c/nspr_8h.html" target="_top" xlink:title="/home/aoi/Documents/FxOS/B2G/gaia/xulrunner&#45;sdk/include/nspr/nspr.h">
<polygon fill="white" stroke="black" points="1235,-174.5 1235,-195.5 1567,-195.5 1567,-174.5 1235,-174.5"/>
<text text-anchor="middle" x="1401" y="-182.5" font-family="Helvetica,sans-Serif" font-size="10.00">/home/aoi/Documents/FxOS/B2G/gaia/xulrunner&#45;sdk/include/nspr/nspr.h</text>
</a>
</g>
<!-- Node1&#45;&gt;Node2 -->
<g id="edge2" class="edge"><title>Node1&#45;&gt;Node2</title>
<path fill="none" stroke="midnightblue" d="M1401,-222.191C1401,-213.168 1401,-202.994 1401,-195.571"/>
<polygon fill="midnightblue" stroke="midnightblue" points="1397.5,-222.362 1401,-232.362 1404.5,-222.362 1397.5,-222.362"/>
</g>
<!-- Node3 -->
<g id="node5" class="node"><title>Node3</title>
<a xlink:href="../../d2/d35/ns_n_s_s_shut_down_8h.html" target="_top" xlink:title="/home/aoi/Documents/FxOS/B2G/gaia/xulrunner&#45;sdk/include/nsNSSShutDown.h">
<polygon fill="white" stroke="black" points="0,-116.5 0,-137.5 368,-137.5 368,-116.5 0,-116.5"/>
<text text-anchor="middle" x="184" y="-124.5" font-family="Helvetica,sans-Serif" font-size="10.00">/home/aoi/Documents/FxOS/B2G/gaia/xulrunner&#45;sdk/include/nsNSSShutDown.h</text>
</a>
</g>
<!-- Node2&#45;&gt;Node3 -->
<g id="edge4" class="edge"><title>Node2&#45;&gt;Node3</title>
<path fill="none" stroke="midnightblue" d="M1224.48,-177.492C1020.38,-168.673 674.343,-153.297 377,-138 373.816,-137.836 370.602,-137.669 367.366,-137.5"/>
<polygon fill="midnightblue" stroke="midnightblue" points="1224.55,-180.998 1234.7,-177.933 1224.86,-174.005 1224.55,-180.998"/>
</g>
<!-- Node5 -->
<g id="node9" class="node"><title>Node5</title>
<a xlink:href="../../d2/d18/expat__config_8h.html" target="_top" xlink:title="/home/aoi/Documents/FxOS/B2G/gaia/xulrunner&#45;sdk/include/expat_config.h">
<polygon fill="white" stroke="black" points="385.5,-116.5 385.5,-137.5 732.5,-137.5 732.5,-116.5 385.5,-116.5"/>
<text text-anchor="middle" x="559" y="-124.5" font-family="Helvetica,sans-Serif" font-size="10.00">/home/aoi/Documents/FxOS/B2G/gaia/xulrunner&#45;sdk/include/expat_config.h</text>
</a>
</g>
<!-- Node2&#45;&gt;Node5 -->
<g id="edge8" class="edge"><title>Node2&#45;&gt;Node5</title>
<path fill="none" stroke="midnightblue" d="M1238.15,-173.782C1086,-163.301 860.572,-147.773 711.766,-137.523"/>
<polygon fill="midnightblue" stroke="midnightblue" points="1238.3,-177.301 1248.52,-174.497 1238.78,-170.318 1238.3,-177.301"/>
</g>
<!-- Node6 -->
<g id="node11" class="node"><title>Node6</title>
<a xlink:href="../../da/df8/nriceresolverfake_8h.html" target="_top" xlink:title="/home/aoi/Documents/FxOS/B2G/gaia/xulrunner&#45;sdk/include/mtransport/nriceresolverfake.h">
<polygon fill="white" stroke="black" points="749.5,-116.5 749.5,-137.5 1164.5,-137.5 1164.5,-116.5 749.5,-116.5"/>
<text text-anchor="middle" x="957" y="-124.5" font-family="Helvetica,sans-Serif" font-size="10.00">/home/aoi/Documents/FxOS/B2G/gaia/xulrunner&#45;sdk/include/mtransport/nriceresolverfake.h</text>
</a>
</g>
<!-- Node2&#45;&gt;Node6 -->
<g id="edge10" class="edge"><title>Node2&#45;&gt;Node6</title>
<path fill="none" stroke="midnightblue" d="M1310.52,-173.18C1230.4,-162.714 1114.53,-147.579 1037.56,-137.523"/>
<polygon fill="midnightblue" stroke="midnightblue" points="1310.23,-176.672 1320.59,-174.497 1311.13,-169.731 1310.23,-176.672"/>
</g>
<!-- Node7 -->
<g id="node13" class="node"><title>Node7</title>
<a xlink:href="../../db/d11/transportlayerloopback_8h.html" target="_top" xlink:title="/home/aoi/Documents/FxOS/B2G/gaia/xulrunner&#45;sdk/include/mtransport/transportlayerloopback.h">
<polygon fill="white" stroke="black" points="1181.5,-116.5 1181.5,-137.5 1620.5,-137.5 1620.5,-116.5 1181.5,-116.5"/>
<text text-anchor="middle" x="1401" y="-124.5" font-family="Helvetica,sans-Serif" font-size="10.00">/home/aoi/Documents/FxOS/B2G/gaia/xulrunner&#45;sdk/include/mtransport/transportlayerloopback.h</text>
</a>
</g>
<!-- Node2&#45;&gt;Node7 -->
<g id="edge12" class="edge"><title>Node2&#45;&gt;Node7</title>
<path fill="none" stroke="midnightblue" d="M1401,-164.191C1401,-155.168 1401,-144.994 1401,-137.571"/>
<polygon fill="midnightblue" stroke="midnightblue" points="1397.5,-164.362 1401,-174.362 1404.5,-164.362 1397.5,-164.362"/>
</g>
<!-- Node8 -->
<g id="node15" class="node"><title>Node8</title>
<a xlink:href="../../d6/d0e/transportlayerprsock_8h.html" target="_top" xlink:title="/home/aoi/Documents/FxOS/B2G/gaia/xulrunner&#45;sdk/include/mtransport/transportlayerprsock.h">
<polygon fill="white" stroke="black" points="1637.5,-116.5 1637.5,-137.5 2066.5,-137.5 2066.5,-116.5 1637.5,-116.5"/>
<text text-anchor="middle" x="1852" y="-124.5" font-family="Helvetica,sans-Serif" font-size="10.00">/home/aoi/Documents/FxOS/B2G/gaia/xulrunner&#45;sdk/include/mtransport/transportlayerprsock.h</text>
</a>
</g>
<!-- Node2&#45;&gt;Node8 -->
<g id="edge14" class="edge"><title>Node2&#45;&gt;Node8</title>
<path fill="none" stroke="midnightblue" d="M1492.91,-173.18C1574.29,-162.714 1691.98,-147.579 1770.17,-137.523"/>
<polygon fill="midnightblue" stroke="midnightblue" points="1492.14,-169.75 1482.67,-174.497 1493.04,-176.692 1492.14,-169.75"/>
</g>
<!-- Node9 -->
<g id="node17" class="node"><title>Node9</title>
<a xlink:href="../../d6/d1b/pprthred_8h.html" target="_top" xlink:title="/home/aoi/Documents/FxOS/B2G/gaia/xulrunner&#45;sdk/include/nspr/private/pprthred.h">
<polygon fill="white" stroke="black" points="2084,-116.5 2084,-137.5 2464,-137.5 2464,-116.5 2084,-116.5"/>
<text text-anchor="middle" x="2274" y="-124.5" font-family="Helvetica,sans-Serif" font-size="10.00">/home/aoi/Documents/FxOS/B2G/gaia/xulrunner&#45;sdk/include/nspr/private/pprthred.h</text>
</a>
</g>
<!-- Node2&#45;&gt;Node9 -->
<g id="edge16" class="edge"><title>Node2&#45;&gt;Node9</title>
<path fill="none" stroke="midnightblue" d="M1569.37,-173.814C1727.13,-163.332 1961.17,-147.784 2115.61,-137.523"/>
<polygon fill="midnightblue" stroke="midnightblue" points="1568.84,-170.341 1559.09,-174.497 1569.3,-177.326 1568.84,-170.341"/>
</g>
<!-- Node11 -->
<g id="node21" class="node"><title>Node11</title>
<a xlink:href="../../de/d78/nssbaset_8h.html" target="_top" xlink:title="/home/aoi/Documents/FxOS/B2G/gaia/xulrunner&#45;sdk/include/nss/nssbaset.h">
<polygon fill="white" stroke="black" points="2660,-116.5 2660,-137.5 3010,-137.5 3010,-116.5 2660,-116.5"/>
<text text-anchor="middle" x="2835" y="-124.5" font-family="Helvetica,sans-Serif" font-size="10.00">/home/aoi/Documents/FxOS/B2G/gaia/xulrunner&#45;sdk/include/nss/nssbaset.h</text>
</a>
</g>
<!-- Node2&#45;&gt;Node11 -->
<g id="edge20" class="edge"><title>Node2&#45;&gt;Node11</title>
<path fill="none" stroke="midnightblue" d="M1577.37,-177.867C1853.43,-166.701 2384.47,-145.222 2659.81,-134.086"/>
<polygon fill="midnightblue" stroke="midnightblue" points="1577.1,-174.374 1567.25,-178.276 1577.38,-181.369 1577.1,-174.374"/>
</g>
<!-- Node4 -->
<g id="node7" class="node"><title>Node4</title>
<a xlink:href="../../da/dc2/_crypto_task_8h.html" target="_top" xlink:title="/home/aoi/Documents/FxOS/B2G/gaia/xulrunner&#45;sdk/include/CryptoTask.h">
<polygon fill="white" stroke="black" points="13,-58.5 13,-79.5 355,-79.5 355,-58.5 13,-58.5"/>
<text text-anchor="middle" x="184" y="-66.5" font-family="Helvetica,sans-Serif" font-size="10.00">/home/aoi/Documents/FxOS/B2G/gaia/xulrunner&#45;sdk/include/CryptoTask.h</text>
</a>
</g>
<!-- Node3&#45;&gt;Node4 -->
<g id="edge6" class="edge"><title>Node3&#45;&gt;Node4</title>
<path fill="none" stroke="midnightblue" d="M184,-106.191C184,-97.1684 184,-86.9941 184,-79.5707"/>
<polygon fill="midnightblue" stroke="midnightblue" points="180.5,-106.362 184,-116.362 187.5,-106.362 180.5,-106.362"/>
</g>
<!-- Node10 -->
<g id="node19" class="node"><title>Node10</title>
<a xlink:href="../../d8/dcb/prpriv_8h.html" target="_top" xlink:title="/home/aoi/Documents/FxOS/B2G/gaia/xulrunner&#45;sdk/include/nspr/private/prpriv.h">
<polygon fill="white" stroke="black" points="2000.5,-58.5 2000.5,-79.5 2369.5,-79.5 2369.5,-58.5 2000.5,-58.5"/>
<text text-anchor="middle" x="2185" y="-66.5" font-family="Helvetica,sans-Serif" font-size="10.00">/home/aoi/Documents/FxOS/B2G/gaia/xulrunner&#45;sdk/include/nspr/private/prpriv.h</text>
</a>
</g>
<!-- Node9&#45;&gt;Node10 -->
<g id="edge18" class="edge"><title>Node9&#45;&gt;Node10</title>
<path fill="none" stroke="midnightblue" d="M2249.17,-110.821C2233.84,-100.831 2214.61,-88.2993 2201.22,-79.5707"/>
<polygon fill="midnightblue" stroke="midnightblue" points="2247.39,-113.834 2257.68,-116.362 2251.21,-107.97 2247.39,-113.834"/>
</g>
<!-- Node12 -->
<g id="node23" class="node"><title>Node12</title>
<a xlink:href="../../d5/d79/nssbase_8h.html" target="_top" xlink:title="/home/aoi/Documents/FxOS/B2G/gaia/xulrunner&#45;sdk/include/nss/nssbase.h">
<polygon fill="white" stroke="black" points="2386.5,-58.5 2386.5,-79.5 2733.5,-79.5 2733.5,-58.5 2386.5,-58.5"/>
<text text-anchor="middle" x="2560" y="-66.5" font-family="Helvetica,sans-Serif" font-size="10.00">/home/aoi/Documents/FxOS/B2G/gaia/xulrunner&#45;sdk/include/nss/nssbase.h</text>
</a>
</g>
<!-- Node11&#45;&gt;Node12 -->
<g id="edge22" class="edge"><title>Node11&#45;&gt;Node12</title>
<path fill="none" stroke="midnightblue" d="M2775.28,-114.404C2725.84,-103.977 2656.41,-89.333 2609.89,-79.5231"/>
<polygon fill="midnightblue" stroke="midnightblue" points="2774.69,-117.858 2785.2,-116.497 2776.14,-111.008 2774.69,-117.858"/>
</g>
<!-- Node13 -->
<g id="node25" class="node"><title>Node13</title>
<a xlink:href="../../d0/df0/nssckfw_8h.html" target="_top" xlink:title="/home/aoi/Documents/FxOS/B2G/gaia/xulrunner&#45;sdk/include/nss/nssckfw.h">
<polygon fill="white" stroke="black" points="2750.5,-58.5 2750.5,-79.5 3097.5,-79.5 3097.5,-58.5 2750.5,-58.5"/>
<text text-anchor="middle" x="2924" y="-66.5" font-family="Helvetica,sans-Serif" font-size="10.00">/home/aoi/Documents/FxOS/B2G/gaia/xulrunner&#45;sdk/include/nss/nssckfw.h</text>
</a>
</g>
<!-- Node11&#45;&gt;Node13 -->
<g id="edge24" class="edge"><title>Node11&#45;&gt;Node13</title>
<path fill="none" stroke="midnightblue" d="M2859.83,-110.821C2875.16,-100.831 2894.39,-88.2993 2907.78,-79.5707"/>
<polygon fill="midnightblue" stroke="midnightblue" points="2857.79,-107.97 2851.32,-116.362 2861.61,-113.834 2857.79,-107.97"/>
</g>
<!-- Node14 -->
<g id="node27" class="node"><title>Node14</title>
<a xlink:href="../../d0/dde/nssckmdt_8h.html" target="_top" xlink:title="/home/aoi/Documents/FxOS/B2G/gaia/xulrunner&#45;sdk/include/nss/nssckmdt.h">
<polygon fill="white" stroke="black" points="3114.5,-58.5 3114.5,-79.5 3467.5,-79.5 3467.5,-58.5 3114.5,-58.5"/>
<text text-anchor="middle" x="3291" y="-66.5" font-family="Helvetica,sans-Serif" font-size="10.00">/home/aoi/Documents/FxOS/B2G/gaia/xulrunner&#45;sdk/include/nss/nssckmdt.h</text>
</a>
</g>
<!-- Node11&#45;&gt;Node14 -->
<g id="edge26" class="edge"><title>Node11&#45;&gt;Node14</title>
<path fill="none" stroke="midnightblue" d="M2927.68,-115.212C3009.97,-104.745 3129.13,-89.589 3208.27,-79.5231"/>
<polygon fill="midnightblue" stroke="midnightblue" points="2927.06,-111.763 2917.58,-116.497 2927.94,-118.707 2927.06,-111.763"/>
</g>
<!-- Node15 -->
<g id="node29" class="node"><title>Node15</title>
<a xlink:href="../../d1/d28/nssckfwc_8h.html" target="_top" xlink:title="/home/aoi/Documents/FxOS/B2G/gaia/xulrunner&#45;sdk/include/nss/nssckfwc.h">
<polygon fill="white" stroke="black" points="3115,-0.5 3115,-21.5 3467,-21.5 3467,-0.5 3115,-0.5"/>
<text text-anchor="middle" x="3291" y="-8.5" font-family="Helvetica,sans-Serif" font-size="10.00">/home/aoi/Documents/FxOS/B2G/gaia/xulrunner&#45;sdk/include/nss/nssckfwc.h</text>
</a>
</g>
<!-- Node14&#45;&gt;Node15 -->
<g id="edge28" class="edge"><title>Node14&#45;&gt;Node15</title>
<path fill="none" stroke="midnightblue" d="M3291,-48.1906C3291,-39.1684 3291,-28.9941 3291,-21.5707"/>
<polygon fill="midnightblue" stroke="midnightblue" points="3287.5,-48.3619 3291,-58.3619 3294.5,-48.3619 3287.5,-48.3619"/>
</g>
</g>
</svg>
        <g id="navigator" transform="translate(0 0)" fill="#404254">
                <rect fill="#f2f5e9" fill-opacity="0.5" stroke="#606060" stroke-width=".5" x="0" y="0" width="60" height="60"/>
                <use id="zoomplus" xlink:href="#zoomPlus" x="17" y="9" onmousedown="handleZoom(evt,'in')"/>
                <use id="zoomminus" xlink:href="#zoomMin" x="42" y="9" onmousedown="handleZoom(evt,'out')"/>
                <use id="reset" xlink:href="#resetDef" x="30" y="36" onmousedown="handleReset()"/>
                <g id="arrowUp" xlink:href="#dirArrow" transform="translate(30 24)" onmousedown="handlePan(0,-1)">
                  <use xlink:href="#rim" fill="#404040">
                        <set attributeName="fill" to="#808080" begin="arrowUp.mouseover" end="arrowUp.mouseout"/>
                  </use>
                  <path fill="none" stroke="white" stroke-width="1.5" d="M0,-3.0v7 M-2.5,-0.5L0,-3.0L2.5,-0.5"/>
                </g>
                <g id="arrowRight" xlink:href="#dirArrow" transform="rotate(90) translate(36 -43)" onmousedown="handlePan(1,0)">
                  <use xlink:href="#rim" fill="#404040">
                        <set attributeName="fill" to="#808080" begin="arrowRight.mouseover" end="arrowRight.mouseout"/>
                  </use>
                  <path fill="none" stroke="white" stroke-width="1.5" d="M0,-3.0v7 M-2.5,-0.5L0,-3.0L2.5,-0.5"/>
                </g>
                <g id="arrowDown" xlink:href="#dirArrow" transform="rotate(180) translate(-30 -48)" onmousedown="handlePan(0,1)">
                  <use xlink:href="#rim" fill="#404040">
                        <set attributeName="fill" to="#808080" begin="arrowDown.mouseover" end="arrowDown.mouseout"/>
                  </use>
                  <path fill="none" stroke="white" stroke-width="1.5" d="M0,-3.0v7 M-2.5,-0.5L0,-3.0L2.5,-0.5"/>
                </g>
                <g id="arrowLeft" xlink:href="#dirArrow" transform="rotate(270) translate(-36 17)" onmousedown="handlePan(-1,0)">
                  <use xlink:href="#rim" fill="#404040">
                        <set attributeName="fill" to="#808080" begin="arrowLeft.mouseover" end="arrowLeft.mouseout"/>
                  </use>
                  <path fill="none" stroke="white" stroke-width="1.5" d="M0,-3.0v7 M-2.5,-0.5L0,-3.0L2.5,-0.5"/>
                </g>
        </g>
</svg>
