<?xml version="1.0" encoding="UTF-8" standalone="no"?>
<!DOCTYPE svg PUBLIC "-//W3C//DTD SVG 1.1//EN"
 "http://www.w3.org/Graphics/SVG/1.1/DTD/svg11.dtd">
<!-- Generated by graphviz version 2.26.3 (20100126.1600)
 -->
<!-- Title: G Pages: 1 -->
<!--zoomable 621 -->
<svg id="main" version="1.1" xmlns="http://www.w3.org/2000/svg" xmlns:xlink="http://www.w3.org/1999/xlink" xml:space="preserve" onload="init(evt)">
        <defs>
                <circle id="rim" cx="0" cy="0" r="7"/>
                <circle id="rim2" cx="0" cy="0" r="3.5"/>
                <g id="zoomPlus">
                        <use xlink:href="#rim" fill="#404040">
                                <set attributeName="fill" to="#808080" begin="zoomplus.mouseover" end="zoomplus.mouseout"/>
                        </use>
                        <path d="M-4,0h8M0,-4v8" fill="none" stroke="white" stroke-width="1.5" pointer-events="none"/>
                </g>
                <g id="zoomMin">
                        <use xlink:href="#rim" fill="#404040">
                                <set attributeName="fill" to="#808080" begin="zoomminus.mouseover" end="zoomminus.mouseout"/>
                        </use>
                        <path d="M-4,0h8" fill="none" stroke="white" stroke-width="1.5" pointer-events="none"/>
                </g>
                <g id="dirArrow">
                        <path fill="none" stroke="white" stroke-width="1.5" d="M0,-3.0v7 M-2.5,-0.5L0,-3.0L2.5,-0.5"/>
                </g>
               <g id="resetDef">
                       <use xlink:href="#rim2" fill="#404040">
                               <set attributeName="fill" to="#808080" begin="reset.mouseover" end="reset.mouseout"/>
                       </use>
               </g>
        </defs>

<script type="text/javascript">
var viewWidth = 2230;
var viewHeight = 621;
var sectionId = 'dynsection-1';
</script>
<script xlink:href="../../svgpan.js"/>
<svg id="graph" class="graph">
<g id="viewport">
<title>G</title>
<polygon fill="white" stroke="white" points="-4,5 -4,-617 2227,-617 2227,5 -4,5"/>
<!-- Node1 -->
<g id="node1" class="node"><title>Node1</title>
<polygon fill="#bfbfbf" stroke="black" points="2096.5,-135.5 2096.5,-156.5 2221.5,-156.5 2221.5,-135.5 2096.5,-135.5"/>
<text text-anchor="middle" x="2159" y="-143.5" font-family="Helvetica,sans-Serif" font-size="10.00">mozilla::layers::RefLayer</text>
</g>
<!-- Node2 -->
<g id="node2" class="node"><title>Node2</title>
<a xlink:href="../../d0/d1c/classmozilla_1_1layers_1_1_container_layer.html" target="_top" xlink:title="mozilla::layers::ContainerLayer">
<polygon fill="white" stroke="black" points="1571,-121.5 1571,-142.5 1723,-142.5 1723,-121.5 1571,-121.5"/>
<text text-anchor="middle" x="1647" y="-129.5" font-family="Helvetica,sans-Serif" font-size="10.00">mozilla::layers::ContainerLayer</text>
</a>
</g>
<!-- Node2&#45;&gt;Node1 -->
<g id="edge2" class="edge"><title>Node2&#45;&gt;Node1</title>
<path fill="none" stroke="midnightblue" d="M1679.62,-117.362C1702.23,-108.044 1733.31,-96.8466 1762,-92 1897.97,-69.0276 2061.43,-114.02 2128.26,-135.489"/>
<polygon fill="midnightblue" stroke="midnightblue" points="1678.03,-114.235 1670.18,-121.349 1680.75,-120.685 1678.03,-114.235"/>
</g>
<!-- Node3 -->
<g id="node4" class="node"><title>Node3</title>
<a xlink:href="../../d9/da9/classmozilla_1_1layers_1_1_layer.html" target="_top" xlink:title="mozilla::layers::Layer">
<polygon fill="white" stroke="black" points="1876,-308.5 1876,-329.5 1986,-329.5 1986,-308.5 1876,-308.5"/>
<text text-anchor="middle" x="1931" y="-316.5" font-family="Helvetica,sans-Serif" font-size="10.00">mozilla::layers::Layer</text>
</a>
</g>
<!-- Node2&#45;&gt;Node3 -->
<g id="edge26" class="edge"><title>Node2&#45;&gt;Node3</title>
<path fill="none" stroke="#9a32cd" stroke-dasharray="5,2" d="M1693.5,-145.304C1714.36,-151.075 1739.33,-157.708 1762,-163 1804.36,-172.888 1823.07,-156.085 1858,-182 1902.15,-214.759 1922.29,-282.304 1928.65,-308.393"/>
<polygon fill="#9a32cd" stroke="#9a32cd" points="1694.18,-141.863 1683.61,-142.55 1692.3,-148.606 1694.18,-141.863"/>
<text text-anchor="middle" x="1810" y="-186" font-family="Helvetica,sans-Serif" font-size="10.00"> mParent</text>
</g>
<!-- Node3&#45;&gt;Node1 -->
<g id="edge78" class="edge"><title>Node3&#45;&gt;Node1</title>
<path fill="none" stroke="#9a32cd" stroke-dasharray="5,2" d="M1953.13,-302.205C1999.69,-266.881 2106.61,-185.756 2144.97,-156.643"/>
<polygon fill="#9a32cd" stroke="#9a32cd" points="1950.77,-299.606 1944.92,-308.438 1955,-305.182 1950.77,-299.606"/>
<text text-anchor="middle" x="2041" y="-267" font-family="Helvetica,sans-Serif" font-size="10.00"> mTempReferent</text>
</g>
<!-- Node3&#45;&gt;Node2 -->
<g id="edge4" class="edge"><title>Node3&#45;&gt;Node2</title>
<path fill="none" stroke="midnightblue" d="M1927.44,-298.284C1920.5,-264.694 1901.81,-198.805 1858,-166 1836.99,-150.266 1774.74,-141.538 1723.26,-136.878"/>
<polygon fill="midnightblue" stroke="midnightblue" points="1924.04,-299.178 1929.36,-308.343 1930.92,-297.864 1924.04,-299.178"/>
</g>
<!-- Node3&#45;&gt;Node2 -->
<g id="edge50" class="edge"><title>Node3&#45;&gt;Node2</title>
<path fill="none" stroke="#9a32cd" stroke-dasharray="5,2" d="M1926.94,-298.629C1916.95,-250.756 1889.65,-133.431 1858,-111 1799.89,-69.8066 1709.07,-102.884 1668.2,-121.49"/>
<polygon fill="#9a32cd" stroke="#9a32cd" points="1923.52,-299.379 1928.96,-308.474 1930.38,-297.976 1923.52,-299.379"/>
<text text-anchor="middle" x="1810" y="-128" font-family="Helvetica,sans-Serif" font-size="10.00"> mFirstChild</text>
<text text-anchor="middle" x="1810" y="-115" font-family="Helvetica,sans-Serif" font-size="10.00">mLastChild</text>
</g>
<!-- Node3&#45;&gt;Node3 -->
<g id="edge6" class="edge"><title>Node3&#45;&gt;Node3</title>
<path fill="none" stroke="#9a32cd" stroke-dasharray="5,2" d="M1910.73,-339.427C1912.29,-344.349 1919.05,-348 1931,-348 1950.12,-348 1955.95,-338.653 1948.48,-329.708"/>
<polygon fill="#9a32cd" stroke="#9a32cd" points="1914.12,-340.286 1913.52,-329.708 1907.4,-338.352 1914.12,-340.286"/>
<text text-anchor="middle" x="1931" y="-365" font-family="Helvetica,sans-Serif" font-size="10.00"> mPrevSibling</text>
<text text-anchor="middle" x="1931" y="-352" font-family="Helvetica,sans-Serif" font-size="10.00">mNextSibling</text>
</g>
<!-- Node4 -->
<g id="node7" class="node"><title>Node4</title>
<a xlink:href="../../d8/d2e/classmozilla_1_1_debug_only.html" target="_top" xlink:title="mozilla::DebugOnly\&lt; uint32_t \&gt;">
<polygon fill="white" stroke="black" points="1569.5,-579.5 1569.5,-600.5 1724.5,-600.5 1724.5,-579.5 1569.5,-579.5"/>
<text text-anchor="middle" x="1647" y="-587.5" font-family="Helvetica,sans-Serif" font-size="10.00">mozilla::DebugOnly&lt; uint32_t &gt;</text>
</a>
</g>
<!-- Node4&#45;&gt;Node3 -->
<g id="edge8" class="edge"><title>Node4&#45;&gt;Node3</title>
<path fill="none" stroke="#9a32cd" stroke-dasharray="5,2" d="M1723.92,-601.133C1767.9,-603.135 1821.42,-597.596 1858,-567 1896.13,-535.109 1922.93,-372.744 1929.46,-329.561"/>
<polygon fill="#9a32cd" stroke="#9a32cd" points="1724.01,-597.632 1713.82,-600.536 1723.6,-604.62 1724.01,-597.632"/>
<text text-anchor="middle" x="1810" y="-604" font-family="Helvetica,sans-Serif" font-size="10.00"> mDebugColorIndex</text>
</g>
<!-- Node5 -->
<g id="node9" class="node"><title>Node5</title>
<a xlink:href="../../d7/dc7/structns_int_rect.html" target="_top" xlink:title="nsIntRect">
<polygon fill="white" stroke="black" points="1617.5,-539.5 1617.5,-560.5 1676.5,-560.5 1676.5,-539.5 1617.5,-539.5"/>
<text text-anchor="middle" x="1647" y="-547.5" font-family="Helvetica,sans-Serif" font-size="10.00">nsIntRect</text>
</a>
</g>
<!-- Node5&#45;&gt;Node3 -->
<g id="edge10" class="edge"><title>Node5&#45;&gt;Node3</title>
<path fill="none" stroke="#9a32cd" stroke-dasharray="5,2" d="M1686.72,-546.365C1744.14,-540.78 1844.96,-529.619 1858,-519 1889.1,-493.678 1919.93,-367.581 1928.6,-329.748"/>
<polygon fill="#9a32cd" stroke="#9a32cd" points="1686.15,-542.903 1676.53,-547.341 1686.82,-549.871 1686.15,-542.903"/>
<text text-anchor="middle" x="1810" y="-554" font-family="Helvetica,sans-Serif" font-size="10.00"> mClipRect</text>
<text text-anchor="middle" x="1810" y="-541" font-family="Helvetica,sans-Serif" font-size="10.00">mTileSourceRect</text>
</g>
<!-- Node6 -->
<g id="node11" class="node"><title>Node6</title>
<a xlink:href="../../dc/db8/structmozilla_1_1gfx_1_1_base_rect.html" target="_top" xlink:title="mozilla::gfx::BaseRect\&lt; int32_t, nsIntRect, nsIntPoint, nsIntSize, nsIntMargin \&gt;">
<polygon fill="white" stroke="black" points="1074.5,-548.5 1074.5,-569.5 1441.5,-569.5 1441.5,-548.5 1074.5,-548.5"/>
<text text-anchor="middle" x="1258" y="-556.5" font-family="Helvetica,sans-Serif" font-size="10.00">mozilla::gfx::BaseRect&lt; int32_t, nsIntRect, nsIntPoint, nsIntSize, nsIntMargin &gt;</text>
</a>
</g>
<!-- Node6&#45;&gt;Node5 -->
<g id="edge12" class="edge"><title>Node6&#45;&gt;Node5</title>
<path fill="none" stroke="midnightblue" d="M1452.03,-554.511C1516.54,-553.018 1581.12,-551.524 1617.38,-550.685"/>
<polygon fill="midnightblue" stroke="midnightblue" points="1451.59,-551.02 1441.68,-554.75 1451.76,-558.018 1451.59,-551.02"/>
</g>
<!-- Node7 -->
<g id="node13" class="node"><title>Node7</title>
<a xlink:href="../../de/d80/structmozilla_1_1gfx_1_1_point_typed.html" target="_top" xlink:title="mozilla::gfx::PointTyped\&lt; LayerPixel \&gt;">
<polygon fill="white" stroke="black" points="1554,-498.5 1554,-519.5 1740,-519.5 1740,-498.5 1554,-498.5"/>
<text text-anchor="middle" x="1647" y="-506.5" font-family="Helvetica,sans-Serif" font-size="10.00">mozilla::gfx::PointTyped&lt; LayerPixel &gt;</text>
</a>
</g>
<!-- Node7&#45;&gt;Node3 -->
<g id="edge14" class="edge"><title>Node7&#45;&gt;Node3</title>
<path fill="none" stroke="#9a32cd" stroke-dasharray="5,2" d="M1750.3,-505.186C1794.8,-501.665 1840.6,-494.917 1858,-482 1910.04,-443.377 1925.76,-359.176 1929.78,-329.56"/>
<polygon fill="#9a32cd" stroke="#9a32cd" points="1749.95,-501.702 1740.24,-505.931 1750.47,-508.683 1749.95,-501.702"/>
<text text-anchor="middle" x="1810" y="-507" font-family="Helvetica,sans-Serif" font-size="10.00"> mAnchor</text>
</g>
<!-- Node8 -->
<g id="node15" class="node"><title>Node8</title>
<a xlink:href="../../d2/dfb/structmozilla_1_1gfx_1_1_base_point.html" target="_top" xlink:title="mozilla::gfx::BasePoint\&lt; Float, PointTyped\&lt; LayerPixel \&gt; \&gt;">
<polygon fill="white" stroke="black" points="1119.5,-508.5 1119.5,-529.5 1396.5,-529.5 1396.5,-508.5 1119.5,-508.5"/>
<text text-anchor="middle" x="1258" y="-516.5" font-family="Helvetica,sans-Serif" font-size="10.00">mozilla::gfx::BasePoint&lt; Float, PointTyped&lt; LayerPixel &gt; &gt;</text>
</a>
</g>
<!-- Node8&#45;&gt;Node7 -->
<g id="edge16" class="edge"><title>Node8&#45;&gt;Node7</title>
<path fill="none" stroke="midnightblue" d="M1406.67,-515.178C1456.12,-513.907 1509.76,-512.528 1553.8,-511.396"/>
<polygon fill="midnightblue" stroke="midnightblue" points="1406.42,-511.683 1396.52,-515.439 1406.6,-518.681 1406.42,-511.683"/>
</g>
<!-- Node9 -->
<g id="node17" class="node"><title>Node9</title>
<a xlink:href="../../da/db9/structmozilla_1_1_layer_pixel.html" target="_top" xlink:title="mozilla::LayerPixel">
<polygon fill="white" stroke="black" points="1208.5,-468.5 1208.5,-489.5 1307.5,-489.5 1307.5,-468.5 1208.5,-468.5"/>
<text text-anchor="middle" x="1258" y="-476.5" font-family="Helvetica,sans-Serif" font-size="10.00">mozilla::LayerPixel</text>
</a>
</g>
<!-- Node9&#45;&gt;Node7 -->
<g id="edge18" class="edge"><title>Node9&#45;&gt;Node7</title>
<path fill="none" stroke="midnightblue" d="M1317.81,-483.613C1380.72,-488.464 1480.54,-496.163 1553.79,-501.811"/>
<polygon fill="midnightblue" stroke="midnightblue" points="1317.9,-480.109 1307.66,-482.83 1317.36,-487.089 1317.9,-480.109"/>
</g>
<!-- Node13 -->
<g id="node26" class="node"><title>Node13</title>
<a xlink:href="../../d8/d1c/structmozilla_1_1gfx_1_1_margin_typed.html" target="_top" xlink:title="mozilla::gfx::MarginTyped\&lt; LayerPixel \&gt;">
<polygon fill="white" stroke="black" points="1550.5,-458.5 1550.5,-479.5 1743.5,-479.5 1743.5,-458.5 1550.5,-458.5"/>
<text text-anchor="middle" x="1647" y="-466.5" font-family="Helvetica,sans-Serif" font-size="10.00">mozilla::gfx::MarginTyped&lt; LayerPixel &gt;</text>
</a>
</g>
<!-- Node9&#45;&gt;Node13 -->
<g id="edge32" class="edge"><title>Node9&#45;&gt;Node13</title>
<path fill="none" stroke="midnightblue" d="M1318.04,-477.457C1379.96,-475.865 1477.5,-473.357 1550.31,-471.486"/>
<polygon fill="midnightblue" stroke="midnightblue" points="1317.57,-473.967 1307.66,-477.723 1317.75,-480.965 1317.57,-473.967"/>
</g>
<!-- Node10 -->
<g id="node19" class="node"><title>Node10</title>
<a xlink:href="../../d6/d3b/classgfx3_d_matrix.html" target="_top" xlink:title="gfx3DMatrix">
<polygon fill="white" stroke="black" points="1612,-418.5 1612,-439.5 1682,-439.5 1682,-418.5 1612,-418.5"/>
<text text-anchor="middle" x="1647" y="-426.5" font-family="Helvetica,sans-Serif" font-size="10.00">gfx3DMatrix</text>
</a>
</g>
<!-- Node10&#45;&gt;Node3 -->
<g id="edge20" class="edge"><title>Node10&#45;&gt;Node3</title>
<path fill="none" stroke="#9a32cd" stroke-dasharray="5,2" d="M1692.43,-425.873C1745.63,-421.6 1830.06,-412.736 1858,-398 1888.89,-381.708 1913.6,-347.065 1924.68,-329.573"/>
<polygon fill="#9a32cd" stroke="#9a32cd" points="1691.93,-422.401 1682.23,-426.667 1692.47,-429.38 1691.93,-422.401"/>
<text text-anchor="middle" x="1810" y="-435" font-family="Helvetica,sans-Serif" font-size="10.00"> mEffectiveTransform</text>
<text text-anchor="middle" x="1810" y="-422" font-family="Helvetica,sans-Serif" font-size="10.00">mTransform</text>
</g>
<!-- Node11 -->
<g id="node21" class="node"><title>Node11</title>
<a xlink:href="../../d1/db5/classmozilla_1_1gfx_1_1_user_data.html" target="_top" xlink:title="mozilla::gfx::UserData">
<polygon fill="white" stroke="black" points="1200.5,-379.5 1200.5,-400.5 1315.5,-400.5 1315.5,-379.5 1200.5,-379.5"/>
<text text-anchor="middle" x="1258" y="-387.5" font-family="Helvetica,sans-Serif" font-size="10.00">mozilla::gfx::UserData</text>
</a>
</g>
<!-- Node11&#45;&gt;Node3 -->
<g id="edge22" class="edge"><title>Node11&#45;&gt;Node3</title>
<path fill="none" stroke="#9a32cd" stroke-dasharray="5,2" d="M1325.58,-388.617C1381.07,-387.221 1461.68,-384.596 1532,-380 1626.44,-373.827 1649.83,-369.398 1744,-360 1794.69,-354.941 1808.53,-360.185 1858,-348 1875.74,-343.63 1894.91,-335.889 1909.15,-329.503"/>
<polygon fill="#9a32cd" stroke="#9a32cd" points="1325.43,-385.119 1315.51,-388.863 1325.6,-392.117 1325.43,-385.119"/>
<text text-anchor="middle" x="1647" y="-382" font-family="Helvetica,sans-Serif" font-size="10.00"> mUserData</text>
</g>
<!-- Node15 -->
<g id="node31" class="node"><title>Node15</title>
<a xlink:href="../../d1/d01/classmozilla_1_1layers_1_1_layer_manager.html" target="_top" xlink:title="mozilla::layers::LayerManager">
<polygon fill="white" stroke="black" points="1573.5,-329.5 1573.5,-350.5 1720.5,-350.5 1720.5,-329.5 1573.5,-329.5"/>
<text text-anchor="middle" x="1647" y="-337.5" font-family="Helvetica,sans-Serif" font-size="10.00">mozilla::layers::LayerManager</text>
</a>
</g>
<!-- Node11&#45;&gt;Node15 -->
<g id="edge40" class="edge"><title>Node11&#45;&gt;Node15</title>
<path fill="none" stroke="#9a32cd" stroke-dasharray="5,2" d="M1325.74,-381.293C1394.9,-372.403 1501.95,-358.644 1573.22,-349.483"/>
<polygon fill="#9a32cd" stroke="#9a32cd" points="1325.29,-377.822 1315.82,-382.568 1326.18,-384.765 1325.29,-377.822"/>
<text text-anchor="middle" x="1496" y="-367" font-family="Helvetica,sans-Serif" font-size="10.00"> mUserData</text>
</g>
<!-- Node12 -->
<g id="node23" class="node"><title>Node12</title>
<a xlink:href="../../d1/d89/classns_auto_ptr.html" target="_top" xlink:title="nsAutoPtr\&lt; gfx3DMatrix \&gt;">
<polygon fill="white" stroke="black" points="1581.5,-240.5 1581.5,-261.5 1712.5,-261.5 1712.5,-240.5 1581.5,-240.5"/>
<text text-anchor="middle" x="1647" y="-248.5" font-family="Helvetica,sans-Serif" font-size="10.00">nsAutoPtr&lt; gfx3DMatrix &gt;</text>
</a>
</g>
<!-- Node12&#45;&gt;Node3 -->
<g id="edge24" class="edge"><title>Node12&#45;&gt;Node3</title>
<path fill="none" stroke="#9a32cd" stroke-dasharray="5,2" d="M1723.12,-249.398C1764.11,-250.702 1814.96,-255.868 1858,-271 1881.75,-279.351 1905.4,-297.055 1919.08,-308.47"/>
<polygon fill="#9a32cd" stroke="#9a32cd" points="1723,-245.894 1712.92,-249.146 1722.83,-252.892 1723,-245.894"/>
<text text-anchor="middle" x="1810" y="-275" font-family="Helvetica,sans-Serif" font-size="10.00"> mPendingTransform</text>
</g>
<!-- Node13&#45;&gt;Node3 -->
<g id="edge28" class="edge"><title>Node13&#45;&gt;Node3</title>
<path fill="none" stroke="#9a32cd" stroke-dasharray="5,2" d="M1753.65,-466.784C1796.75,-464.079 1840.44,-458.461 1858,-447 1901.49,-418.619 1921.91,-354.762 1928.5,-329.538"/>
<polygon fill="#9a32cd" stroke="#9a32cd" points="1753.38,-463.293 1743.6,-467.365 1753.79,-470.282 1753.38,-463.293"/>
<text text-anchor="middle" x="1810" y="-469" font-family="Helvetica,sans-Serif" font-size="10.00"> mMargins</text>
</g>
<!-- Node14 -->
<g id="node28" class="node"><title>Node14</title>
<a xlink:href="../../dd/db7/structmozilla_1_1gfx_1_1_base_margin.html" target="_top" xlink:title="mozilla::gfx::BaseMargin\&lt; Float, MarginTyped\&lt; LayerPixel \&gt; \&gt;">
<polygon fill="white" stroke="black" points="1113,-428.5 1113,-449.5 1403,-449.5 1403,-428.5 1113,-428.5"/>
<text text-anchor="middle" x="1258" y="-436.5" font-family="Helvetica,sans-Serif" font-size="10.00">mozilla::gfx::BaseMargin&lt; Float, MarginTyped&lt; LayerPixel &gt; &gt;</text>
</a>
</g>
<!-- Node14&#45;&gt;Node13 -->
<g id="edge30" class="edge"><title>Node14&#45;&gt;Node13</title>
<path fill="none" stroke="midnightblue" d="M1404.35,-450.287C1453.16,-454.051 1506.28,-458.148 1550.35,-461.546"/>
<polygon fill="midnightblue" stroke="midnightblue" points="1404.57,-446.793 1394.33,-449.514 1404.03,-453.772 1404.57,-446.793"/>
</g>
<!-- Node15&#45;&gt;Node3 -->
<g id="edge34" class="edge"><title>Node15&#45;&gt;Node3</title>
<path fill="none" stroke="#9a32cd" stroke-dasharray="5,2" d="M1730.64,-333.816C1777.45,-330.354 1834.51,-326.135 1875.75,-323.086"/>
<polygon fill="#9a32cd" stroke="#9a32cd" points="1730.22,-330.337 1720.51,-334.565 1730.74,-337.318 1730.22,-330.337"/>
<text text-anchor="middle" x="1810" y="-335" font-family="Helvetica,sans-Serif" font-size="10.00"> mManager</text>
</g>
<!-- Node16 -->
<g id="node33" class="node"><title>Node16</title>
<a xlink:href="../../da/d4e/struct_p_r_log_module_info.html" target="_top" xlink:title="PRLogModuleInfo">
<polygon fill="white" stroke="black" points="1210.5,-329.5 1210.5,-350.5 1305.5,-350.5 1305.5,-329.5 1210.5,-329.5"/>
<text text-anchor="middle" x="1258" y="-337.5" font-family="Helvetica,sans-Serif" font-size="10.00">PRLogModuleInfo</text>
</a>
</g>
<!-- Node16&#45;&gt;Node15 -->
<g id="edge36" class="edge"><title>Node16&#45;&gt;Node15</title>
<path fill="none" stroke="#9a32cd" stroke-dasharray="5,2" d="M1315.88,-340C1384.37,-340 1498.55,-340 1573.3,-340"/>
<polygon fill="#9a32cd" stroke="#9a32cd" points="1315.7,-336.5 1305.7,-340 1315.7,-343.5 1315.7,-336.5"/>
<text text-anchor="middle" x="1496" y="-344" font-family="Helvetica,sans-Serif" font-size="10.00"> sLog</text>
</g>
<!-- Node17 -->
<g id="node35" class="node"><title>Node17</title>
<polygon fill="white" stroke="#bfbfbf" points="762.5,-329.5 762.5,-350.5 803.5,-350.5 803.5,-329.5 762.5,-329.5"/>
<text text-anchor="middle" x="783" y="-337.5" font-family="Helvetica,sans-Serif" font-size="10.00">struct</text>
</g>
<!-- Node17&#45;&gt;Node16 -->
<g id="edge38" class="edge"><title>Node17&#45;&gt;Node16</title>
<path fill="none" stroke="#9a32cd" stroke-dasharray="5,2" d="M813.734,-340C894.477,-340 1113.05,-340 1210.27,-340"/>
<polygon fill="#9a32cd" stroke="#9a32cd" points="813.716,-336.5 803.716,-340 813.716,-343.5 813.716,-336.5"/>
<text text-anchor="middle" x="998" y="-344" font-family="Helvetica,sans-Serif" font-size="10.00"> next</text>
</g>
<!-- Node18 -->
<g id="node38" class="node"><title>Node18</title>
<a xlink:href="../../d0/d01/classns_ref_ptr.html" target="_top" xlink:title="nsRefPtr\&lt; Layer \&gt;">
<polygon fill="white" stroke="black" points="1209,-275.5 1209,-296.5 1307,-296.5 1307,-275.5 1209,-275.5"/>
<text text-anchor="middle" x="1258" y="-283.5" font-family="Helvetica,sans-Serif" font-size="10.00">nsRefPtr&lt; Layer &gt;</text>
</a>
</g>
<!-- Node18&#45;&gt;Node3 -->
<g id="edge44" class="edge"><title>Node18&#45;&gt;Node3</title>
<path fill="none" stroke="#9a32cd" stroke-dasharray="5,2" d="M1317.53,-288.171C1409.18,-291.604 1590.32,-298.75 1744,-307 1788.34,-309.381 1838.56,-312.634 1875.79,-315.153"/>
<polygon fill="#9a32cd" stroke="#9a32cd" points="1317.47,-284.667 1307.34,-287.791 1317.2,-291.662 1317.47,-284.667"/>
<text text-anchor="middle" x="1647" y="-311" font-family="Helvetica,sans-Serif" font-size="10.00"> mMaskLayer</text>
</g>
<!-- Node18&#45;&gt;Node15 -->
<g id="edge42" class="edge"><title>Node18&#45;&gt;Node15</title>
<path fill="none" stroke="#9a32cd" stroke-dasharray="5,2" d="M1317.03,-293.754C1372.54,-301.097 1457.95,-312.527 1532,-323 1546.49,-325.049 1561.99,-327.301 1576.78,-329.476"/>
<polygon fill="#9a32cd" stroke="#9a32cd" points="1317.4,-290.272 1307.03,-292.432 1316.48,-297.212 1317.4,-290.272"/>
<text text-anchor="middle" x="1496" y="-327" font-family="Helvetica,sans-Serif" font-size="10.00"> mRoot</text>
</g>
<!-- Node19 -->
<g id="node41" class="node"><title>Node19</title>
<a xlink:href="../../d5/d82/classns_int_region.html" target="_top" xlink:title="nsIntRegion">
<polygon fill="white" stroke="black" points="1612.5,-200.5 1612.5,-221.5 1681.5,-221.5 1681.5,-200.5 1612.5,-200.5"/>
<text text-anchor="middle" x="1647" y="-208.5" font-family="Helvetica,sans-Serif" font-size="10.00">nsIntRegion</text>
</a>
</g>
<!-- Node19&#45;&gt;Node3 -->
<g id="edge46" class="edge"><title>Node19&#45;&gt;Node3</title>
<path fill="none" stroke="#9a32cd" stroke-dasharray="5,2" d="M1691.87,-202.856C1736.69,-197.032 1806.17,-194.431 1858,-222 1894.28,-241.301 1917.65,-287.479 1926.72,-308.39"/>
<polygon fill="#9a32cd" stroke="#9a32cd" points="1691.29,-199.404 1681.87,-204.263 1692.26,-206.336 1691.29,-199.404"/>
<text text-anchor="middle" x="1810" y="-239" font-family="Helvetica,sans-Serif" font-size="10.00"> mVisibleRegion</text>
<text text-anchor="middle" x="1810" y="-226" font-family="Helvetica,sans-Serif" font-size="10.00">mInvalidRegion</text>
</g>
<!-- Node20 -->
<g id="node43" class="node"><title>Node20</title>
<a xlink:href="../../d0/d01/classns_ref_ptr.html" target="_top" xlink:title="nsRefPtr\&lt; AsyncPanZoomController \&gt;">
<polygon fill="white" stroke="black" points="1165.5,-140.5 1165.5,-161.5 1350.5,-161.5 1350.5,-140.5 1165.5,-140.5"/>
<text text-anchor="middle" x="1258" y="-148.5" font-family="Helvetica,sans-Serif" font-size="10.00">nsRefPtr&lt; AsyncPanZoomController &gt;</text>
</a>
</g>
<!-- Node20&#45;&gt;Node2 -->
<g id="edge48" class="edge"><title>Node20&#45;&gt;Node2</title>
<path fill="none" stroke="#9a32cd" stroke-dasharray="5,2" d="M1360.68,-145.985C1426.58,-142.766 1510.72,-138.656 1570.71,-135.726"/>
<polygon fill="#9a32cd" stroke="#9a32cd" points="1360.5,-142.489 1350.68,-146.473 1360.84,-149.481 1360.5,-142.489"/>
<text text-anchor="middle" x="1496" y="-144" font-family="Helvetica,sans-Serif" font-size="10.00"> mAPZC</text>
</g>
<!-- Node21 -->
<g id="node46" class="node"><title>Node21</title>
<a xlink:href="../../d5/d2f/structmozilla_1_1layers_1_1_frame_metrics.html" target="_top" xlink:title="mozilla::layers::FrameMetrics">
<polygon fill="white" stroke="black" points="1185,-100.5 1185,-121.5 1331,-121.5 1331,-100.5 1185,-100.5"/>
<text text-anchor="middle" x="1258" y="-108.5" font-family="Helvetica,sans-Serif" font-size="10.00">mozilla::layers::FrameMetrics</text>
</a>
</g>
<!-- Node21&#45;&gt;Node2 -->
<g id="edge52" class="edge"><title>Node21&#45;&gt;Node2</title>
<path fill="none" stroke="#9a32cd" stroke-dasharray="5,2" d="M1341.31,-112.767C1395.64,-114.233 1468.08,-116.78 1532,-121 1544.61,-121.832 1557.98,-122.921 1570.96,-124.09"/>
<polygon fill="#9a32cd" stroke="#9a32cd" points="1341.13,-109.261 1331.04,-112.497 1340.94,-116.259 1341.13,-109.261"/>
<text text-anchor="middle" x="1496" y="-125" font-family="Helvetica,sans-Serif" font-size="10.00"> mFrameMetrics</text>
</g>
<!-- Node22 -->
<g id="node48" class="node"><title>Node22</title>
<a xlink:href="../../de/d80/structmozilla_1_1gfx_1_1_point_typed.html" target="_top" xlink:title="mozilla::gfx::PointTyped\&lt; CSSPixel \&gt;">
<polygon fill="white" stroke="black" points="691.5,-229.5 691.5,-250.5 874.5,-250.5 874.5,-229.5 691.5,-229.5"/>
<text text-anchor="middle" x="783" y="-237.5" font-family="Helvetica,sans-Serif" font-size="10.00">mozilla::gfx::PointTyped&lt; CSSPixel &gt;</text>
</a>
</g>
<!-- Node22&#45;&gt;Node21 -->
<g id="edge54" class="edge"><title>Node22&#45;&gt;Node21</title>
<path fill="none" stroke="#9a32cd" stroke-dasharray="5,2" d="M835.065,-252.497C895.843,-263.731 995.702,-271.271 1056,-218 1085.59,-191.857 1044.78,-157.552 1074,-131 1105.51,-102.37 1153.7,-98.0184 1192.85,-100.483"/>
<polygon fill="#9a32cd" stroke="#9a32cd" points="835.41,-248.998 824.925,-250.521 834.071,-255.869 835.41,-248.998"/>
<text text-anchor="middle" x="998" y="-263" font-family="Helvetica,sans-Serif" font-size="10.00"> mScrollOffset</text>
</g>
<!-- Node23 -->
<g id="node50" class="node"><title>Node23</title>
<a xlink:href="../../d2/dfb/structmozilla_1_1gfx_1_1_base_point.html" target="_top" xlink:title="mozilla::gfx::BasePoint\&lt; Float, PointTyped\&lt; CSSPixel \&gt; \&gt;">
<polygon fill="white" stroke="black" points="166,-235.5 166,-256.5 440,-256.5 440,-235.5 166,-235.5"/>
<text text-anchor="middle" x="303" y="-243.5" font-family="Helvetica,sans-Serif" font-size="10.00">mozilla::gfx::BasePoint&lt; Float, PointTyped&lt; CSSPixel &gt; &gt;</text>
</a>
</g>
<!-- Node23&#45;&gt;Node22 -->
<g id="edge56" class="edge"><title>Node23&#45;&gt;Node22</title>
<path fill="none" stroke="midnightblue" d="M450.704,-244.154C529.213,-243.172 623.266,-241.997 691.241,-241.147"/>
<polygon fill="midnightblue" stroke="midnightblue" points="450.183,-240.66 440.227,-244.285 450.27,-247.659 450.183,-240.66"/>
</g>
<!-- Node24 -->
<g id="node52" class="node"><title>Node24</title>
<a xlink:href="../../da/d4f/structmozilla_1_1_c_s_s_pixel.html" target="_top" xlink:title="mozilla::CSSPixel">
<polygon fill="white" stroke="black" points="255,-195.5 255,-216.5 351,-216.5 351,-195.5 255,-195.5"/>
<text text-anchor="middle" x="303" y="-203.5" font-family="Helvetica,sans-Serif" font-size="10.00">mozilla::CSSPixel</text>
</a>
</g>
<!-- Node24&#45;&gt;Node22 -->
<g id="edge58" class="edge"><title>Node24&#45;&gt;Node22</title>
<path fill="none" stroke="midnightblue" d="M361.233,-209.618C422.249,-213.462 520.88,-219.825 606,-226 633.67,-228.007 663.761,-230.334 691.151,-232.507"/>
<polygon fill="midnightblue" stroke="midnightblue" points="361.231,-206.111 351.031,-208.977 360.792,-213.097 361.231,-206.111"/>
</g>
<!-- Node31 -->
<g id="node66" class="node"><title>Node31</title>
<a xlink:href="../../d5/d9e/structmozilla_1_1gfx_1_1_rect_typed.html" target="_top" xlink:title="mozilla::gfx::RectTyped\&lt; CSSPixel \&gt;">
<polygon fill="white" stroke="black" points="692,-160.5 692,-181.5 874,-181.5 874,-160.5 692,-160.5"/>
<text text-anchor="middle" x="783" y="-168.5" font-family="Helvetica,sans-Serif" font-size="10.00">mozilla::gfx::RectTyped&lt; CSSPixel &gt;</text>
</a>
</g>
<!-- Node24&#45;&gt;Node31 -->
<g id="edge76" class="edge"><title>Node24&#45;&gt;Node31</title>
<path fill="none" stroke="midnightblue" d="M361.24,-202.479C422.262,-198.714 520.898,-192.414 606,-186 633.831,-183.902 664.104,-181.413 691.616,-179.072"/>
<polygon fill="midnightblue" stroke="midnightblue" points="360.803,-198.999 351.037,-203.106 361.233,-205.986 360.803,-198.999"/>
</g>
<!-- Node25 -->
<g id="node54" class="node"><title>Node25</title>
<a xlink:href="../../dc/d67/structmozilla_1_1gfx_1_1_scale_factor.html" target="_top" xlink:title="mozilla::gfx::ScaleFactor\&lt; CSSPixel, LayoutDevicePixel \&gt;">
<polygon fill="white" stroke="black" points="646,-120.5 646,-141.5 920,-141.5 920,-120.5 646,-120.5"/>
<text text-anchor="middle" x="783" y="-128.5" font-family="Helvetica,sans-Serif" font-size="10.00">mozilla::gfx::ScaleFactor&lt; CSSPixel, LayoutDevicePixel &gt;</text>
</a>
</g>
<!-- Node25&#45;&gt;Node21 -->
<g id="edge60" class="edge"><title>Node25&#45;&gt;Node21</title>
<path fill="none" stroke="#9a32cd" stroke-dasharray="5,2" d="M930.282,-124.799C1014.77,-121.241 1117.16,-116.93 1184.75,-114.084"/>
<polygon fill="#9a32cd" stroke="#9a32cd" points="929.915,-121.311 920.071,-125.229 930.209,-128.305 929.915,-121.311"/>
<text text-anchor="middle" x="998" y="-127" font-family="Helvetica,sans-Serif" font-size="10.00"> mDevPixelsPerCSSPixel</text>
</g>
<!-- Node26 -->
<g id="node56" class="node"><title>Node26</title>
<a xlink:href="../../dd/de9/structmozilla_1_1gfx_1_1_int_rect_typed.html" target="_top" xlink:title="mozilla::gfx::IntRectTyped\&lt; ScreenPixel \&gt;">
<polygon fill="white" stroke="black" points="681.5,-80.5 681.5,-101.5 884.5,-101.5 884.5,-80.5 681.5,-80.5"/>
<text text-anchor="middle" x="783" y="-88.5" font-family="Helvetica,sans-Serif" font-size="10.00">mozilla::gfx::IntRectTyped&lt; ScreenPixel &gt;</text>
</a>
</g>
<!-- Node26&#45;&gt;Node21 -->
<g id="edge62" class="edge"><title>Node26&#45;&gt;Node21</title>
<path fill="none" stroke="#9a32cd" stroke-dasharray="5,2" d="M894.845,-95.3991C944.245,-97.3699 1003.02,-99.7523 1056,-102 1098.61,-103.808 1146.28,-105.927 1184.6,-107.655"/>
<polygon fill="#9a32cd" stroke="#9a32cd" points="894.905,-91.8988 884.773,-94.9978 894.626,-98.8933 894.905,-91.8988"/>
<text text-anchor="middle" x="998" y="-106" font-family="Helvetica,sans-Serif" font-size="10.00"> mCompositionBounds</text>
</g>
<!-- Node27 -->
<g id="node58" class="node"><title>Node27</title>
<a xlink:href="../../dc/db8/structmozilla_1_1gfx_1_1_base_rect.html" target="_top" xlink:title="mozilla::gfx::BaseRect\&lt; int32_t, IntRectTyped\&lt; ScreenPixel \&gt;, IntPointTyped\&lt; ScreenPixel \&gt;, IntSizeTyped\&lt; ScreenPixel \&gt;, Margin \&gt;">
<polygon fill="white" stroke="black" points="0,-99.5 0,-120.5 606,-120.5 606,-99.5 0,-99.5"/>
<text text-anchor="middle" x="303" y="-107.5" font-family="Helvetica,sans-Serif" font-size="10.00">mozilla::gfx::BaseRect&lt; int32_t, IntRectTyped&lt; ScreenPixel &gt;, IntPointTyped&lt; ScreenPixel &gt;, IntSizeTyped&lt; ScreenPixel &gt;, Margin &gt;</text>
</a>
</g>
<!-- Node27&#45;&gt;Node26 -->
<g id="edge64" class="edge"><title>Node27&#45;&gt;Node26</title>
<path fill="none" stroke="midnightblue" d="M578.616,-99.0902C615.198,-97.6422 650.651,-96.2388 681.473,-95.0188"/>
<polygon fill="midnightblue" stroke="midnightblue" points="578.124,-95.6068 568.271,-99.4997 578.401,-102.601 578.124,-95.6068"/>
</g>
<!-- Node28 -->
<g id="node60" class="node"><title>Node28</title>
<a xlink:href="../../d4/d94/structmozilla_1_1_screen_pixel.html" target="_top" xlink:title="mozilla::ScreenPixel">
<polygon fill="white" stroke="black" points="250,-59.5 250,-80.5 356,-80.5 356,-59.5 250,-59.5"/>
<text text-anchor="middle" x="303" y="-67.5" font-family="Helvetica,sans-Serif" font-size="10.00">mozilla::ScreenPixel</text>
</a>
</g>
<!-- Node28&#45;&gt;Node26 -->
<g id="edge66" class="edge"><title>Node28&#45;&gt;Node26</title>
<path fill="none" stroke="midnightblue" d="M366.661,-72.7852C447.023,-76.301 586.234,-82.3915 681.376,-86.554"/>
<polygon fill="midnightblue" stroke="midnightblue" points="366.346,-69.2681 356.202,-72.3276 366.04,-76.2614 366.346,-69.2681"/>
</g>
<!-- Node29 -->
<g id="node62" class="node"><title>Node29</title>
<a xlink:href="../../dc/d67/structmozilla_1_1gfx_1_1_scale_factor.html" target="_top" xlink:title="mozilla::gfx::ScaleFactor\&lt; ScreenPixel, ScreenPixel \&gt;">
<polygon fill="white" stroke="black" points="656,-40.5 656,-61.5 910,-61.5 910,-40.5 656,-40.5"/>
<text text-anchor="middle" x="783" y="-48.5" font-family="Helvetica,sans-Serif" font-size="10.00">mozilla::gfx::ScaleFactor&lt; ScreenPixel, ScreenPixel &gt;</text>
</a>
</g>
<!-- Node29&#45;&gt;Node21 -->
<g id="edge68" class="edge"><title>Node29&#45;&gt;Node21</title>
<path fill="none" stroke="#9a32cd" stroke-dasharray="5,2" d="M903.107,-62.5422C950.764,-67.4396 1006.03,-73.5146 1056,-80 1102.44,-86.0273 1154.7,-94.0809 1194.42,-100.469"/>
<polygon fill="#9a32cd" stroke="#9a32cd" points="903.361,-59.0501 893.057,-61.5153 902.65,-66.0138 903.361,-59.0501"/>
<text text-anchor="middle" x="998" y="-84" font-family="Helvetica,sans-Serif" font-size="10.00"> mZoom</text>
</g>
<!-- Node30 -->
<g id="node64" class="node"><title>Node30</title>
<a xlink:href="../../dc/d67/structmozilla_1_1gfx_1_1_scale_factor.html" target="_top" xlink:title="mozilla::gfx::ScaleFactor\&lt; LayoutDevicePixel, LayerPixel \&gt;">
<polygon fill="white" stroke="black" points="644.5,-0.5 644.5,-21.5 921.5,-21.5 921.5,-0.5 644.5,-0.5"/>
<text text-anchor="middle" x="783" y="-8.5" font-family="Helvetica,sans-Serif" font-size="10.00">mozilla::gfx::ScaleFactor&lt; LayoutDevicePixel, LayerPixel &gt;</text>
</a>
</g>
<!-- Node30&#45;&gt;Node21 -->
<g id="edge70" class="edge"><title>Node30&#45;&gt;Node21</title>
<path fill="none" stroke="#9a32cd" stroke-dasharray="5,2" d="M897.118,-22.7654C946.318,-28.8971 1004.31,-37.5477 1056,-49 1118.68,-62.8878 1190.06,-86.761 1228.95,-100.478"/>
<polygon fill="#9a32cd" stroke="#9a32cd" points="897.431,-19.2776 887.079,-21.5338 896.578,-26.2255 897.431,-19.2776"/>
<text text-anchor="middle" x="998" y="-53" font-family="Helvetica,sans-Serif" font-size="10.00"> mResolution</text>
</g>
<!-- Node31&#45;&gt;Node21 -->
<g id="edge72" class="edge"><title>Node31&#45;&gt;Node21</title>
<path fill="none" stroke="#9a32cd" stroke-dasharray="5,2" d="M884.3,-167.939C936.468,-164.259 1000.59,-156.437 1056,-140 1064.57,-137.456 1065.42,-133.523 1074,-131 1109.61,-120.531 1150.54,-115.438 1184.74,-113"/>
<polygon fill="#9a32cd" stroke="#9a32cd" points="883.778,-164.466 874.032,-168.621 884.242,-171.45 883.778,-164.466"/>
<text text-anchor="middle" x="998" y="-205" font-family="Helvetica,sans-Serif" font-size="10.00"> mScrollableRect</text>
<text text-anchor="middle" x="998" y="-192" font-family="Helvetica,sans-Serif" font-size="10.00">mViewport</text>
<text text-anchor="middle" x="998" y="-179" font-family="Helvetica,sans-Serif" font-size="10.00">mCriticalDisplayPort</text>
<text text-anchor="middle" x="998" y="-166" font-family="Helvetica,sans-Serif" font-size="10.00">mDisplayPort</text>
</g>
<!-- Node32 -->
<g id="node68" class="node"><title>Node32</title>
<a xlink:href="../../dc/db8/structmozilla_1_1gfx_1_1_base_rect.html" target="_top" xlink:title="mozilla::gfx::BaseRect\&lt; Float, RectTyped\&lt; CSSPixel \&gt;, PointTyped\&lt; CSSPixel \&gt;, SizeTyped\&lt; CSSPixel \&gt;, Margin \&gt;">
<polygon fill="white" stroke="black" points="35,-155.5 35,-176.5 571,-176.5 571,-155.5 35,-155.5"/>
<text text-anchor="middle" x="303" y="-163.5" font-family="Helvetica,sans-Serif" font-size="10.00">mozilla::gfx::BaseRect&lt; Float, RectTyped&lt; CSSPixel &gt;, PointTyped&lt; CSSPixel &gt;, SizeTyped&lt; CSSPixel &gt;, Margin &gt;</text>
</a>
</g>
<!-- Node32&#45;&gt;Node31 -->
<g id="edge74" class="edge"><title>Node32&#45;&gt;Node31</title>
<path fill="none" stroke="midnightblue" d="M581.234,-168.898C621.111,-169.314 659.542,-169.714 691.97,-170.052"/>
<polygon fill="midnightblue" stroke="midnightblue" points="581.104,-165.397 571.068,-168.792 581.031,-172.396 581.104,-165.397"/>
</g>
</g>
</svg>
        <g id="navigator" transform="translate(0 0)" fill="#404254">
                <rect fill="#f2f5e9" fill-opacity="0.5" stroke="#606060" stroke-width=".5" x="0" y="0" width="60" height="60"/>
                <use id="zoomplus" xlink:href="#zoomPlus" x="17" y="9" onmousedown="handleZoom(evt,'in')"/>
                <use id="zoomminus" xlink:href="#zoomMin" x="42" y="9" onmousedown="handleZoom(evt,'out')"/>
                <use id="reset" xlink:href="#resetDef" x="30" y="36" onmousedown="handleReset()"/>
                <g id="arrowUp" xlink:href="#dirArrow" transform="translate(30 24)" onmousedown="handlePan(0,-1)">
                  <use xlink:href="#rim" fill="#404040">
                        <set attributeName="fill" to="#808080" begin="arrowUp.mouseover" end="arrowUp.mouseout"/>
                  </use>
                  <path fill="none" stroke="white" stroke-width="1.5" d="M0,-3.0v7 M-2.5,-0.5L0,-3.0L2.5,-0.5"/>
                </g>
                <g id="arrowRight" xlink:href="#dirArrow" transform="rotate(90) translate(36 -43)" onmousedown="handlePan(1,0)">
                  <use xlink:href="#rim" fill="#404040">
                        <set attributeName="fill" to="#808080" begin="arrowRight.mouseover" end="arrowRight.mouseout"/>
                  </use>
                  <path fill="none" stroke="white" stroke-width="1.5" d="M0,-3.0v7 M-2.5,-0.5L0,-3.0L2.5,-0.5"/>
                </g>
                <g id="arrowDown" xlink:href="#dirArrow" transform="rotate(180) translate(-30 -48)" onmousedown="handlePan(0,1)">
                  <use xlink:href="#rim" fill="#404040">
                        <set attributeName="fill" to="#808080" begin="arrowDown.mouseover" end="arrowDown.mouseout"/>
                  </use>
                  <path fill="none" stroke="white" stroke-width="1.5" d="M0,-3.0v7 M-2.5,-0.5L0,-3.0L2.5,-0.5"/>
                </g>
                <g id="arrowLeft" xlink:href="#dirArrow" transform="rotate(270) translate(-36 17)" onmousedown="handlePan(-1,0)">
                  <use xlink:href="#rim" fill="#404040">
                        <set attributeName="fill" to="#808080" begin="arrowLeft.mouseover" end="arrowLeft.mouseout"/>
                  </use>
                  <path fill="none" stroke="white" stroke-width="1.5" d="M0,-3.0v7 M-2.5,-0.5L0,-3.0L2.5,-0.5"/>
                </g>
        </g>
</svg>
