<?xml version="1.0" encoding="UTF-8" standalone="no"?>
<!DOCTYPE svg PUBLIC "-//W3C//DTD SVG 1.1//EN"
 "http://www.w3.org/Graphics/SVG/1.1/DTD/svg11.dtd">
<!-- Generated by graphviz version 2.26.3 (20100126.1600)
 -->
<!-- Title: G Pages: 1 -->
<!--zoomable 196 -->
<svg id="main" version="1.1" xmlns="http://www.w3.org/2000/svg" xmlns:xlink="http://www.w3.org/1999/xlink" xml:space="preserve" onload="init(evt)">
        <defs>
                <circle id="rim" cx="0" cy="0" r="7"/>
                <circle id="rim2" cx="0" cy="0" r="3.5"/>
                <g id="zoomPlus">
                        <use xlink:href="#rim" fill="#404040">
                                <set attributeName="fill" to="#808080" begin="zoomplus.mouseover" end="zoomplus.mouseout"/>
                        </use>
                        <path d="M-4,0h8M0,-4v8" fill="none" stroke="white" stroke-width="1.5" pointer-events="none"/>
                </g>
                <g id="zoomMin">
                        <use xlink:href="#rim" fill="#404040">
                                <set attributeName="fill" to="#808080" begin="zoomminus.mouseover" end="zoomminus.mouseout"/>
                        </use>
                        <path d="M-4,0h8" fill="none" stroke="white" stroke-width="1.5" pointer-events="none"/>
                </g>
                <g id="dirArrow">
                        <path fill="none" stroke="white" stroke-width="1.5" d="M0,-3.0v7 M-2.5,-0.5L0,-3.0L2.5,-0.5"/>
                </g>
               <g id="resetDef">
                       <use xlink:href="#rim2" fill="#404040">
                               <set attributeName="fill" to="#808080" begin="reset.mouseover" end="reset.mouseout"/>
                       </use>
               </g>
        </defs>

<script type="text/javascript">
var viewWidth = 1086;
var viewHeight = 196;
var sectionId = 'dynsection-1';
</script>
<script xlink:href="../../svgpan.js"/>
<svg id="graph" class="graph">
<g id="viewport">
<title>G</title>
<polygon fill="white" stroke="white" points="-4,5 -4,-192 1083,-192 1083,5 -4,5"/>
<!-- Node1 -->
<g id="node1" class="node"><title>Node1</title>
<polygon fill="#bfbfbf" stroke="black" points="906.5,-76.5 906.5,-97.5 1077.5,-97.5 1077.5,-76.5 906.5,-76.5"/>
<text text-anchor="middle" x="992" y="-84.5" font-family="Helvetica,sans-Serif" font-size="10.00">mozilla::dom::SocketsDictInitializer</text>
</g>
<!-- Node2 -->
<g id="node2" class="node"><title>Node2</title>
<a xlink:href="../../da/d40/structmozilla_1_1dom_1_1_sockets_dict.html" target="_top" xlink:title="mozilla::dom::SocketsDict">
<polygon fill="white" stroke="black" points="736,-76.5 736,-97.5 868,-97.5 868,-76.5 736,-76.5"/>
<text text-anchor="middle" x="802" y="-84.5" font-family="Helvetica,sans-Serif" font-size="10.00">mozilla::dom::SocketsDict</text>
</a>
</g>
<!-- Node2&#45;&gt;Node1 -->
<g id="edge2" class="edge"><title>Node2&#45;&gt;Node1</title>
<path fill="none" stroke="midnightblue" d="M878.43,-87C887.611,-87 897.033,-87 906.334,-87"/>
<polygon fill="midnightblue" stroke="midnightblue" points="878.186,-83.5001 868.186,-87 878.186,-90.5001 878.186,-83.5001"/>
</g>
<!-- Node3 -->
<g id="node4" class="node"><title>Node3</title>
<a xlink:href="../../d5/d9f/structmozilla_1_1dom_1_1_main_thread_dictionary_base.html" target="_top" xlink:title="mozilla::dom::MainThreadDictionaryBase">
<polygon fill="white" stroke="black" points="415,-166.5 415,-187.5 611,-187.5 611,-166.5 415,-166.5"/>
<text text-anchor="middle" x="513" y="-174.5" font-family="Helvetica,sans-Serif" font-size="10.00">mozilla::dom::MainThreadDictionaryBase</text>
</a>
</g>
<!-- Node3&#45;&gt;Node2 -->
<g id="edge4" class="edge"><title>Node3&#45;&gt;Node2</title>
<path fill="none" stroke="midnightblue" d="M621.55,-176.905C653.559,-173.843 688.023,-167.453 718,-155 749.362,-141.972 778.367,-113.374 792.671,-97.735"/>
<polygon fill="midnightblue" stroke="midnightblue" points="620.917,-173.446 611.252,-177.785 621.514,-180.42 620.917,-173.446"/>
</g>
<!-- Node4 -->
<g id="node6" class="node"><title>Node4</title>
<a xlink:href="../../d6/d60/structmozilla_1_1dom_1_1_dictionary_base.html" target="_top" xlink:title="mozilla::dom::DictionaryBase">
<polygon fill="white" stroke="black" points="107.5,-166.5 107.5,-187.5 252.5,-187.5 252.5,-166.5 107.5,-166.5"/>
<text text-anchor="middle" x="180" y="-174.5" font-family="Helvetica,sans-Serif" font-size="10.00">mozilla::dom::DictionaryBase</text>
</a>
</g>
<!-- Node4&#45;&gt;Node3 -->
<g id="edge6" class="edge"><title>Node4&#45;&gt;Node3</title>
<path fill="none" stroke="midnightblue" d="M262.914,-177C308.989,-177 366.595,-177 414.902,-177"/>
<polygon fill="midnightblue" stroke="midnightblue" points="262.667,-173.5 252.667,-177 262.667,-180.5 262.667,-173.5"/>
</g>
<!-- Node5 -->
<g id="node8" class="node"><title>Node5</title>
<a xlink:href="../../d2/d77/classmozilla_1_1dom_1_1_optional.html" target="_top" xlink:title="mozilla::dom::Optional\&lt; Sequence\&lt; uint32_t \&gt; \&gt;">
<polygon fill="white" stroke="black" points="399,-125.5 399,-146.5 627,-146.5 627,-125.5 399,-125.5"/>
<text text-anchor="middle" x="513" y="-133.5" font-family="Helvetica,sans-Serif" font-size="10.00">mozilla::dom::Optional&lt; Sequence&lt; uint32_t &gt; &gt;</text>
</a>
</g>
<!-- Node5&#45;&gt;Node2 -->
<g id="edge8" class="edge"><title>Node5&#45;&gt;Node2</title>
<path fill="none" stroke="#9a32cd" stroke-dasharray="5,2" d="M637.421,-126.76C664.164,-123.631 692.151,-119.481 718,-114 737.031,-109.965 757.853,-103.288 774.005,-97.5841"/>
<polygon fill="#9a32cd" stroke="#9a32cd" points="636.784,-123.31 627.24,-127.911 637.57,-130.266 636.784,-123.31"/>
<text text-anchor="middle" x="682" y="-142" font-family="Helvetica,sans-Serif" font-size="10.00"> mTcp</text>
<text text-anchor="middle" x="682" y="-129" font-family="Helvetica,sans-Serif" font-size="10.00">mPort</text>
</g>
<!-- Node6 -->
<g id="node10" class="node"><title>Node6</title>
<a xlink:href="../../da/de1/classmozilla_1_1dom_1_1_optional__base.html" target="_top" xlink:title="mozilla::dom::Optional_base\&lt; Sequence\&lt; uint32_t \&gt;, Sequence\&lt; uint32_t \&gt; \&gt;">
<polygon fill="white" stroke="black" points="2,-125.5 2,-146.5 358,-146.5 358,-125.5 2,-125.5"/>
<text text-anchor="middle" x="180" y="-133.5" font-family="Helvetica,sans-Serif" font-size="10.00">mozilla::dom::Optional_base&lt; Sequence&lt; uint32_t &gt;, Sequence&lt; uint32_t &gt; &gt;</text>
</a>
</g>
<!-- Node6&#45;&gt;Node5 -->
<g id="edge10" class="edge"><title>Node6&#45;&gt;Node5</title>
<path fill="none" stroke="midnightblue" d="M368.494,-136C378.758,-136 388.909,-136 398.786,-136"/>
<polygon fill="midnightblue" stroke="midnightblue" points="368.198,-132.5 358.198,-136 368.198,-139.5 368.198,-132.5"/>
</g>
<!-- Node7 -->
<g id="node12" class="node"><title>Node7</title>
<a xlink:href="../../d2/d77/classmozilla_1_1dom_1_1_optional.html" target="_top" xlink:title="mozilla::dom::Optional\&lt; Sequence\&lt; double \&gt; \&gt;">
<polygon fill="white" stroke="black" points="402,-80.5 402,-101.5 624,-101.5 624,-80.5 402,-80.5"/>
<text text-anchor="middle" x="513" y="-88.5" font-family="Helvetica,sans-Serif" font-size="10.00">mozilla::dom::Optional&lt; Sequence&lt; double &gt; &gt;</text>
</a>
</g>
<!-- Node7&#45;&gt;Node2 -->
<g id="edge12" class="edge"><title>Node7&#45;&gt;Node2</title>
<path fill="none" stroke="#9a32cd" stroke-dasharray="5,2" d="M634.086,-88.186C638.105,-88.119 642.085,-88.0567 646,-88 675.518,-87.5725 708.181,-87.3278 735.959,-87.1876"/>
<polygon fill="#9a32cd" stroke="#9a32cd" points="633.968,-84.6875 624.031,-88.3616 634.091,-91.6864 633.968,-84.6875"/>
<text text-anchor="middle" x="682" y="-105" font-family="Helvetica,sans-Serif" font-size="10.00"> mSockreceived</text>
<text text-anchor="middle" x="682" y="-92" font-family="Helvetica,sans-Serif" font-size="10.00">mSocksent</text>
</g>
<!-- Node8 -->
<g id="node14" class="node"><title>Node8</title>
<a xlink:href="../../da/de1/classmozilla_1_1dom_1_1_optional__base.html" target="_top" xlink:title="mozilla::dom::Optional_base\&lt; Sequence\&lt; double \&gt;, Sequence\&lt; double \&gt; \&gt;">
<polygon fill="white" stroke="black" points="8,-80.5 8,-101.5 352,-101.5 352,-80.5 8,-80.5"/>
<text text-anchor="middle" x="180" y="-88.5" font-family="Helvetica,sans-Serif" font-size="10.00">mozilla::dom::Optional_base&lt; Sequence&lt; double &gt;, Sequence&lt; double &gt; &gt;</text>
</a>
</g>
<!-- Node8&#45;&gt;Node7 -->
<g id="edge14" class="edge"><title>Node8&#45;&gt;Node7</title>
<path fill="none" stroke="midnightblue" d="M362.588,-91C375.945,-91 389.162,-91 401.892,-91"/>
<polygon fill="midnightblue" stroke="midnightblue" points="362.352,-87.5001 352.352,-91 362.352,-94.5001 362.352,-87.5001"/>
</g>
<!-- Node9 -->
<g id="node16" class="node"><title>Node9</title>
<a xlink:href="../../d2/d77/classmozilla_1_1dom_1_1_optional.html" target="_top" xlink:title="mozilla::dom::Optional\&lt; Sequence\&lt; nsString \&gt; \&gt;">
<polygon fill="white" stroke="black" points="398,-40.5 398,-61.5 628,-61.5 628,-40.5 398,-40.5"/>
<text text-anchor="middle" x="513" y="-48.5" font-family="Helvetica,sans-Serif" font-size="10.00">mozilla::dom::Optional&lt; Sequence&lt; nsString &gt; &gt;</text>
</a>
</g>
<!-- Node9&#45;&gt;Node2 -->
<g id="edge16" class="edge"><title>Node9&#45;&gt;Node2</title>
<path fill="none" stroke="#9a32cd" stroke-dasharray="5,2" d="M638.24,-60.4559C664.644,-63.0513 692.288,-66.2178 718,-70 729.924,-71.754 742.711,-74.0999 754.623,-76.4876"/>
<polygon fill="#9a32cd" stroke="#9a32cd" points="638.477,-56.9626 628.187,-59.4891 637.806,-63.9305 638.477,-56.9626"/>
<text text-anchor="middle" x="682" y="-74" font-family="Helvetica,sans-Serif" font-size="10.00"> mHost</text>
</g>
<!-- Node10 -->
<g id="node18" class="node"><title>Node10</title>
<a xlink:href="../../da/de1/classmozilla_1_1dom_1_1_optional__base.html" target="_top" xlink:title="mozilla::dom::Optional_base\&lt; Sequence\&lt; nsString \&gt;, Sequence\&lt; nsString \&gt; \&gt;">
<polygon fill="white" stroke="black" points="0.5,-40.5 0.5,-61.5 359.5,-61.5 359.5,-40.5 0.5,-40.5"/>
<text text-anchor="middle" x="180" y="-48.5" font-family="Helvetica,sans-Serif" font-size="10.00">mozilla::dom::Optional_base&lt; Sequence&lt; nsString &gt;, Sequence&lt; nsString &gt; &gt;</text>
</a>
</g>
<!-- Node10&#45;&gt;Node9 -->
<g id="edge18" class="edge"><title>Node10&#45;&gt;Node9</title>
<path fill="none" stroke="midnightblue" d="M369.911,-51C379.328,-51 388.644,-51 397.734,-51"/>
<polygon fill="midnightblue" stroke="midnightblue" points="369.658,-47.5001 359.658,-51 369.658,-54.5001 369.658,-47.5001"/>
</g>
<!-- Node11 -->
<g id="node20" class="node"><title>Node11</title>
<a xlink:href="../../d2/d77/classmozilla_1_1dom_1_1_optional.html" target="_top" xlink:title="mozilla::dom::Optional\&lt; Sequence\&lt; bool \&gt; \&gt;">
<polygon fill="white" stroke="black" points="407,-0.5 407,-21.5 619,-21.5 619,-0.5 407,-0.5"/>
<text text-anchor="middle" x="513" y="-8.5" font-family="Helvetica,sans-Serif" font-size="10.00">mozilla::dom::Optional&lt; Sequence&lt; bool &gt; &gt;</text>
</a>
</g>
<!-- Node11&#45;&gt;Node2 -->
<g id="edge20" class="edge"><title>Node11&#45;&gt;Node2</title>
<path fill="none" stroke="#9a32cd" stroke-dasharray="5,2" d="M628.496,-23.1104C658.109,-27.9693 689.605,-34.7047 718,-44 742.601,-52.0533 768.832,-66.5454 785.311,-76.4607"/>
<polygon fill="#9a32cd" stroke="#9a32cd" points="628.957,-19.6399 618.533,-21.5336 627.862,-26.5538 628.957,-19.6399"/>
<text text-anchor="middle" x="682" y="-48" font-family="Helvetica,sans-Serif" font-size="10.00"> mActive</text>
</g>
<!-- Node12 -->
<g id="node22" class="node"><title>Node12</title>
<a xlink:href="../../da/de1/classmozilla_1_1dom_1_1_optional__base.html" target="_top" xlink:title="mozilla::dom::Optional_base\&lt; Sequence\&lt; bool \&gt;, Sequence\&lt; bool \&gt; \&gt;">
<polygon fill="white" stroke="black" points="18.5,-0.5 18.5,-21.5 341.5,-21.5 341.5,-0.5 18.5,-0.5"/>
<text text-anchor="middle" x="180" y="-8.5" font-family="Helvetica,sans-Serif" font-size="10.00">mozilla::dom::Optional_base&lt; Sequence&lt; bool &gt;, Sequence&lt; bool &gt; &gt;</text>
</a>
</g>
<!-- Node12&#45;&gt;Node11 -->
<g id="edge22" class="edge"><title>Node12&#45;&gt;Node11</title>
<path fill="none" stroke="midnightblue" d="M351.698,-11C370.379,-11 388.972,-11 406.537,-11"/>
<polygon fill="midnightblue" stroke="midnightblue" points="351.623,-7.5001 341.623,-11 351.623,-14.5001 351.623,-7.5001"/>
</g>
</g>
</svg>
        <g id="navigator" transform="translate(0 0)" fill="#404254">
                <rect fill="#f2f5e9" fill-opacity="0.5" stroke="#606060" stroke-width=".5" x="0" y="0" width="60" height="60"/>
                <use id="zoomplus" xlink:href="#zoomPlus" x="17" y="9" onmousedown="handleZoom(evt,'in')"/>
                <use id="zoomminus" xlink:href="#zoomMin" x="42" y="9" onmousedown="handleZoom(evt,'out')"/>
                <use id="reset" xlink:href="#resetDef" x="30" y="36" onmousedown="handleReset()"/>
                <g id="arrowUp" xlink:href="#dirArrow" transform="translate(30 24)" onmousedown="handlePan(0,-1)">
                  <use xlink:href="#rim" fill="#404040">
                        <set attributeName="fill" to="#808080" begin="arrowUp.mouseover" end="arrowUp.mouseout"/>
                  </use>
                  <path fill="none" stroke="white" stroke-width="1.5" d="M0,-3.0v7 M-2.5,-0.5L0,-3.0L2.5,-0.5"/>
                </g>
                <g id="arrowRight" xlink:href="#dirArrow" transform="rotate(90) translate(36 -43)" onmousedown="handlePan(1,0)">
                  <use xlink:href="#rim" fill="#404040">
                        <set attributeName="fill" to="#808080" begin="arrowRight.mouseover" end="arrowRight.mouseout"/>
                  </use>
                  <path fill="none" stroke="white" stroke-width="1.5" d="M0,-3.0v7 M-2.5,-0.5L0,-3.0L2.5,-0.5"/>
                </g>
                <g id="arrowDown" xlink:href="#dirArrow" transform="rotate(180) translate(-30 -48)" onmousedown="handlePan(0,1)">
                  <use xlink:href="#rim" fill="#404040">
                        <set attributeName="fill" to="#808080" begin="arrowDown.mouseover" end="arrowDown.mouseout"/>
                  </use>
                  <path fill="none" stroke="white" stroke-width="1.5" d="M0,-3.0v7 M-2.5,-0.5L0,-3.0L2.5,-0.5"/>
                </g>
                <g id="arrowLeft" xlink:href="#dirArrow" transform="rotate(270) translate(-36 17)" onmousedown="handlePan(-1,0)">
                  <use xlink:href="#rim" fill="#404040">
                        <set attributeName="fill" to="#808080" begin="arrowLeft.mouseover" end="arrowLeft.mouseout"/>
                  </use>
                  <path fill="none" stroke="white" stroke-width="1.5" d="M0,-3.0v7 M-2.5,-0.5L0,-3.0L2.5,-0.5"/>
                </g>
        </g>
</svg>
