<?xml version="1.0" encoding="UTF-8" standalone="no"?>
<!DOCTYPE svg PUBLIC "-//W3C//DTD SVG 1.1//EN"
 "http://www.w3.org/Graphics/SVG/1.1/DTD/svg11.dtd">
<!-- Generated by graphviz version 2.26.3 (20100126.1600)
 -->
<!-- Title: G Pages: 1 -->
<svg width="226pt" height="207pt"
 viewBox="0.00 0.00 226.00 207.38" xmlns="http://www.w3.org/2000/svg" xmlns:xlink="http://www.w3.org/1999/xlink">
<g id="graph1" class="graph" transform="scale(1 1) rotate(0) translate(4 203.377)">
<title>G</title>
<polygon fill="white" stroke="white" points="-4,5 -4,-203.377 223,-203.377 223,5 -4,5"/>
<!-- Node1 -->
<g id="node1" class="node"><title>Node1</title>
<polygon fill="#bfbfbf" stroke="black" points="0.5,-100.5 0.5,-121.5 29.5,-121.5 29.5,-100.5 0.5,-100.5"/>
<text text-anchor="middle" x="15" y="-108.5" font-family="Helvetica,sans-Serif" font-size="10.00">if</text>
</g>
<!-- Node2 -->
<g id="node3" class="node"><title>Node2</title>
<a xlink:href="../../d0/de6/fake-oncall-desktop_8js.html#a6efd5e1eedff09b640ec574dc6dd2879" target="_top" xlink:title="error">
<polygon fill="white" stroke="black" points="75,-160.5 75,-181.5 111,-181.5 111,-160.5 75,-160.5"/>
<text text-anchor="middle" x="93" y="-168.5" font-family="Helvetica,sans-Serif" font-size="10.00">error</text>
</a>
</g>
<!-- Node1&#45;&gt;Node2 -->
<g id="edge2" class="edge"><title>Node1&#45;&gt;Node2</title>
<path fill="none" stroke="midnightblue" d="M28.344,-121.629C38.5875,-129.748 53.1134,-141.177 66,-151 67.4034,-152.07 68.8521,-153.166 70.3158,-154.267"/>
<polygon fill="midnightblue" stroke="midnightblue" points="68.5441,-157.312 78.6524,-160.486 72.7294,-151.701 68.5441,-157.312"/>
</g>
<!-- Node3 -->
<g id="node5" class="node"><title>Node3</title>
<a xlink:href="../../d1/d22/ical_8js.html#a6053319846c80bf9561a1958bb817380" target="_top" xlink:title="typeof">
<polygon fill="white" stroke="black" points="165,-160.5 165,-181.5 209,-181.5 209,-160.5 165,-160.5"/>
<text text-anchor="middle" x="187" y="-168.5" font-family="Helvetica,sans-Serif" font-size="10.00">typeof</text>
</a>
</g>
<!-- Node1&#45;&gt;Node3 -->
<g id="edge20" class="edge"><title>Node1&#45;&gt;Node3</title>
<path fill="none" stroke="midnightblue" d="M18.1365,-121.783C24.0715,-139.945 38.8493,-176.11 66,-191 94.6384,-206.706 132.403,-196.407 158.073,-185.63"/>
<polygon fill="midnightblue" stroke="midnightblue" points="159.565,-188.797 167.275,-181.529 156.716,-182.403 159.565,-188.797"/>
</g>
<!-- Node4 -->
<g id="node7" class="node"><title>Node4</title>
<a xlink:href="../../d9/d42/caldav__worker_8js.html#a032b49ab17ef5d8b831bf4024d75aaad" target="_top" xlink:title="forEach">
<polygon fill="white" stroke="black" points="68,-80.5 68,-101.5 118,-101.5 118,-80.5 68,-80.5"/>
<text text-anchor="middle" x="93" y="-88.5" font-family="Helvetica,sans-Serif" font-size="10.00">forEach</text>
</a>
</g>
<!-- Node1&#45;&gt;Node4 -->
<g id="edge6" class="edge"><title>Node1&#45;&gt;Node4</title>
<path fill="none" stroke="midnightblue" d="M29.6712,-107.238C37.747,-105.167 48.1402,-102.503 58.1625,-99.9327"/>
<polygon fill="midnightblue" stroke="midnightblue" points="59.1442,-103.294 67.9615,-97.4201 57.4055,-96.5136 59.1442,-103.294"/>
</g>
<!-- Node5 -->
<g id="node9" class="node"><title>Node5</title>
<a xlink:href="../../d6/d52/js_2browser_8js.html#a7321fd84345f4f9455f25996b932b8fd" target="_top" xlink:title="if">
<polygon fill="white" stroke="black" points="78.5,-40.5 78.5,-61.5 107.5,-61.5 107.5,-40.5 78.5,-40.5"/>
<text text-anchor="middle" x="93" y="-48.5" font-family="Helvetica,sans-Serif" font-size="10.00">if</text>
</a>
</g>
<!-- Node1&#45;&gt;Node5 -->
<g id="edge8" class="edge"><title>Node1&#45;&gt;Node5</title>
<path fill="none" stroke="midnightblue" d="M28.344,-100.371C38.5875,-92.2517 53.1134,-80.8234 66,-71 67.4034,-69.9302 68.8521,-68.834 70.3158,-67.7325"/>
<polygon fill="midnightblue" stroke="midnightblue" points="72.7294,-70.2987 78.6524,-61.5141 68.5441,-64.6877 72.7294,-70.2987"/>
</g>
<!-- Node7 -->
<g id="node13" class="node"><title>Node7</title>
<a xlink:href="../../db/d6b/make__gaia__shared_8js.html#ac5aa547163f784b68be607a47eb170b1" target="_top" xlink:title="load">
<polygon fill="white" stroke="black" points="75.5,-0.5 75.5,-21.5 110.5,-21.5 110.5,-0.5 75.5,-0.5"/>
<text text-anchor="middle" x="93" y="-8.5" font-family="Helvetica,sans-Serif" font-size="10.00">load</text>
</a>
</g>
<!-- Node1&#45;&gt;Node7 -->
<g id="edge12" class="edge"><title>Node1&#45;&gt;Node7</title>
<path fill="none" stroke="midnightblue" d="M20.1963,-100.307C28.4047,-84.1106 45.5576,-52.9261 66,-31 66.895,-30.04 67.8413,-29.0942 68.8229,-28.1677"/>
<polygon fill="midnightblue" stroke="midnightblue" points="71.3465,-30.62 76.7747,-21.5213 66.8573,-25.249 71.3465,-30.62"/>
</g>
<!-- Node8 -->
<g id="node15" class="node"><title>Node8</title>
<a xlink:href="../../db/df4/geoloc_8js.html#a15b4f92b0ef49ac05f43437f3d85ae46" target="_top" xlink:title="success">
<polygon fill="white" stroke="black" points="66.5,-120.5 66.5,-141.5 119.5,-141.5 119.5,-120.5 66.5,-120.5"/>
<text text-anchor="middle" x="93" y="-128.5" font-family="Helvetica,sans-Serif" font-size="10.00">success</text>
</a>
</g>
<!-- Node1&#45;&gt;Node8 -->
<g id="edge14" class="edge"><title>Node1&#45;&gt;Node8</title>
<path fill="none" stroke="midnightblue" d="M29.6712,-114.762C37.3354,-116.727 47.0867,-119.227 56.6273,-121.674"/>
<polygon fill="midnightblue" stroke="midnightblue" points="55.8411,-125.085 66.3971,-124.179 57.5798,-118.305 55.8411,-125.085"/>
</g>
<!-- Node2&#45;&gt;Node3 -->
<g id="edge4" class="edge"><title>Node2&#45;&gt;Node3</title>
<path fill="none" stroke="midnightblue" d="M111.124,-171C123.488,-171 140.205,-171 154.801,-171"/>
<polygon fill="midnightblue" stroke="midnightblue" points="154.961,-174.5 164.961,-171 154.961,-167.5 154.961,-174.5"/>
</g>
<!-- Node6 -->
<g id="node11" class="node"><title>Node6</title>
<a xlink:href="../../d6/d52/js_2browser_8js.html#a35ca1017bd581c0cd64ad0e3defc07d8" target="_top" xlink:title="actHandle">
<polygon fill="white" stroke="black" points="156.5,-40.5 156.5,-61.5 217.5,-61.5 217.5,-40.5 156.5,-40.5"/>
<text text-anchor="middle" x="187" y="-48.5" font-family="Helvetica,sans-Serif" font-size="10.00">actHandle</text>
</a>
</g>
<!-- Node5&#45;&gt;Node6 -->
<g id="edge10" class="edge"><title>Node5&#45;&gt;Node6</title>
<path fill="none" stroke="midnightblue" d="M107.688,-51C118.057,-51 132.493,-51 146.21,-51"/>
<polygon fill="midnightblue" stroke="midnightblue" points="146.481,-54.5001 156.481,-51 146.481,-47.5001 146.481,-54.5001"/>
</g>
<!-- Node8&#45;&gt;Node3 -->
<g id="edge16" class="edge"><title>Node8&#45;&gt;Node3</title>
<path fill="none" stroke="midnightblue" d="M117.697,-141.51C129.2,-146.404 143.024,-152.287 155.288,-157.506"/>
<polygon fill="midnightblue" stroke="midnightblue" points="154.144,-160.822 164.716,-161.517 156.885,-154.381 154.144,-160.822"/>
</g>
<!-- Node9 -->
<g id="node18" class="node"><title>Node9</title>
<a xlink:href="../../db/df4/geoloc_8js.html#af2466db6613b121fa92f40e15d832813" target="_top" xlink:title="keep">
<polygon fill="white" stroke="black" points="168,-120.5 168,-141.5 206,-141.5 206,-120.5 168,-120.5"/>
<text text-anchor="middle" x="187" y="-128.5" font-family="Helvetica,sans-Serif" font-size="10.00">keep</text>
</a>
</g>
<!-- Node8&#45;&gt;Node9 -->
<g id="edge18" class="edge"><title>Node8&#45;&gt;Node9</title>
<path fill="none" stroke="midnightblue" d="M119.685,-131C131.524,-131 145.492,-131 157.627,-131"/>
<polygon fill="midnightblue" stroke="midnightblue" points="157.719,-134.5 167.719,-131 157.719,-127.5 157.719,-134.5"/>
</g>
</g>
</svg>
