<?xml version="1.0" encoding="UTF-8" standalone="no"?>
<!DOCTYPE svg PUBLIC "-//W3C//DTD SVG 1.1//EN"
 "http://www.w3.org/Graphics/SVG/1.1/DTD/svg11.dtd">
<!-- Generated by graphviz version 2.26.3 (20100126.1600)
 -->
<!-- Title: G Pages: 1 -->
<!--zoomable 384 -->
<svg id="main" version="1.1" xmlns="http://www.w3.org/2000/svg" xmlns:xlink="http://www.w3.org/1999/xlink" xml:space="preserve" onload="init(evt)">
        <defs>
                <circle id="rim" cx="0" cy="0" r="7"/>
                <circle id="rim2" cx="0" cy="0" r="3.5"/>
                <g id="zoomPlus">
                        <use xlink:href="#rim" fill="#404040">
                                <set attributeName="fill" to="#808080" begin="zoomplus.mouseover" end="zoomplus.mouseout"/>
                        </use>
                        <path d="M-4,0h8M0,-4v8" fill="none" stroke="white" stroke-width="1.5" pointer-events="none"/>
                </g>
                <g id="zoomMin">
                        <use xlink:href="#rim" fill="#404040">
                                <set attributeName="fill" to="#808080" begin="zoomminus.mouseover" end="zoomminus.mouseout"/>
                        </use>
                        <path d="M-4,0h8" fill="none" stroke="white" stroke-width="1.5" pointer-events="none"/>
                </g>
                <g id="dirArrow">
                        <path fill="none" stroke="white" stroke-width="1.5" d="M0,-3.0v7 M-2.5,-0.5L0,-3.0L2.5,-0.5"/>
                </g>
               <g id="resetDef">
                       <use xlink:href="#rim2" fill="#404040">
                               <set attributeName="fill" to="#808080" begin="reset.mouseover" end="reset.mouseout"/>
                       </use>
               </g>
        </defs>

<script type="text/javascript">
var viewWidth = 2590;
var viewHeight = 384;
var sectionId = 'dynsection-0';
</script>
<script xlink:href="../../svgpan.js"/>
<svg id="graph" class="graph">
<g id="viewport">
<title>G</title>
<polygon fill="white" stroke="white" points="-4,5 -4,-380 2587,-380 2587,5 -4,5"/>
<!-- Node1 -->
<g id="node1" class="node"><title>Node1</title>
<polygon fill="#bfbfbf" stroke="black" points="2462.5,-213.5 2462.5,-234.5 2581.5,-234.5 2581.5,-213.5 2462.5,-213.5"/>
<text text-anchor="middle" x="2522" y="-221.5" font-family="Helvetica,sans-Serif" font-size="10.00">MOZ_FINAL&lt; T &gt;::Key</text>
</g>
<!-- Node2 -->
<g id="node2" class="node"><title>Node2</title>
<a xlink:href="../../d2/dbb/structgfx_font_style.html" target="_top" xlink:title="gfxFontStyle">
<polygon fill="white" stroke="black" points="2016,-276.5 2016,-297.5 2088,-297.5 2088,-276.5 2016,-276.5"/>
<text text-anchor="middle" x="2052" y="-284.5" font-family="Helvetica,sans-Serif" font-size="10.00">gfxFontStyle</text>
</a>
</g>
<!-- Node2&#45;&gt;Node1 -->
<g id="edge2" class="edge"><title>Node2&#45;&gt;Node1</title>
<path fill="none" stroke="#9a32cd" stroke-dasharray="5,2" d="M2098.04,-280.828C2183.68,-269.35 2367.34,-244.731 2462.34,-231.996"/>
<polygon fill="#9a32cd" stroke="#9a32cd" points="2097.55,-277.363 2088.1,-282.161 2098.48,-284.301 2097.55,-277.363"/>
<text text-anchor="middle" x="2333" y="-257" font-family="Helvetica,sans-Serif" font-size="10.00"> mStyle</text>
</g>
<!-- Node3 -->
<g id="node4" class="node"><title>Node3</title>
<a xlink:href="../../d0/d01/classns_ref_ptr.html" target="_top" xlink:title="nsRefPtr\&lt; gfxFontFeatureValueSet \&gt;">
<polygon fill="white" stroke="black" points="1555.5,-354.5 1555.5,-375.5 1734.5,-375.5 1734.5,-354.5 1555.5,-354.5"/>
<text text-anchor="middle" x="1645" y="-362.5" font-family="Helvetica,sans-Serif" font-size="10.00">nsRefPtr&lt; gfxFontFeatureValueSet &gt;</text>
</a>
</g>
<!-- Node3&#45;&gt;Node2 -->
<g id="edge4" class="edge"><title>Node3&#45;&gt;Node2</title>
<path fill="none" stroke="#9a32cd" stroke-dasharray="5,2" d="M1735.53,-353.116C1754.22,-350.542 1773.76,-347.76 1792,-345 1840.11,-337.719 1852.42,-337.203 1900,-327 1940.02,-318.418 1985.33,-306.16 2015.99,-297.48"/>
<polygon fill="#9a32cd" stroke="#9a32cd" points="1734.99,-349.658 1725.55,-354.483 1735.94,-356.594 1734.99,-349.658"/>
<text text-anchor="middle" x="1855" y="-346" font-family="Helvetica,sans-Serif" font-size="10.00"> featureValueLookup</text>
</g>
<!-- Node4 -->
<g id="node6" class="node"><title>Node4</title>
<a xlink:href="../../d8/d6f/classns_t_array.html" target="_top" xlink:title="nsTArray\&lt; gfxFontFeature \&gt;">
<polygon fill="white" stroke="black" points="1575,-234.5 1575,-255.5 1715,-255.5 1715,-234.5 1575,-234.5"/>
<text text-anchor="middle" x="1645" y="-242.5" font-family="Helvetica,sans-Serif" font-size="10.00">nsTArray&lt; gfxFontFeature &gt;</text>
</a>
</g>
<!-- Node4&#45;&gt;Node2 -->
<g id="edge6" class="edge"><title>Node4&#45;&gt;Node2</title>
<path fill="none" stroke="#9a32cd" stroke-dasharray="5,2" d="M1725.3,-251.53C1775.54,-255.793 1841.6,-261.718 1900,-268 1939.66,-272.266 1985.03,-278.056 2015.8,-282.119"/>
<polygon fill="#9a32cd" stroke="#9a32cd" points="1725.4,-248.027 1715.15,-250.673 1724.82,-255.002 1725.4,-248.027"/>
<text text-anchor="middle" x="1855" y="-272" font-family="Helvetica,sans-Serif" font-size="10.00"> featureSettings</text>
</g>
<!-- Node16 -->
<g id="node32" class="node"><title>Node16</title>
<a xlink:href="../../de/d12/classgfx_font_entry.html" target="_top" xlink:title="gfxFontEntry">
<polygon fill="white" stroke="black" points="2296.5,-120.5 2296.5,-141.5 2369.5,-141.5 2369.5,-120.5 2296.5,-120.5"/>
<text text-anchor="middle" x="2333" y="-128.5" font-family="Helvetica,sans-Serif" font-size="10.00">gfxFontEntry</text>
</a>
</g>
<!-- Node4&#45;&gt;Node16 -->
<g id="edge36" class="edge"><title>Node4&#45;&gt;Node16</title>
<path fill="none" stroke="#9a32cd" stroke-dasharray="5,2" d="M1725.23,-239.091C1831.08,-230.815 2023.04,-214.148 2186,-191 2227.17,-185.152 2240.09,-191.074 2278,-174 2295.46,-166.136 2312.32,-151.6 2322.67,-141.623"/>
<polygon fill="#9a32cd" stroke="#9a32cd" points="1724.95,-235.602 1715.26,-239.866 1725.5,-242.581 1724.95,-235.602"/>
<text text-anchor="middle" x="2052" y="-225" font-family="Helvetica,sans-Serif" font-size="10.00"> mFeatureSettings</text>
</g>
<!-- Node5 -->
<g id="node8" class="node"><title>Node5</title>
<a xlink:href="../../d4/dd8/classns_t_array___impl.html" target="_top" xlink:title="nsTArray_Impl\&lt; gfxFontFeature, nsTArrayInfallibleAllocator \&gt;">
<polygon fill="white" stroke="black" points="1170,-234.5 1170,-255.5 1454,-255.5 1454,-234.5 1170,-234.5"/>
<text text-anchor="middle" x="1312" y="-242.5" font-family="Helvetica,sans-Serif" font-size="10.00">nsTArray_Impl&lt; gfxFontFeature, nsTArrayInfallibleAllocator &gt;</text>
</a>
</g>
<!-- Node5&#45;&gt;Node4 -->
<g id="edge8" class="edge"><title>Node5&#45;&gt;Node4</title>
<path fill="none" stroke="midnightblue" d="M1464.49,-245C1503.03,-245 1542.59,-245 1574.81,-245"/>
<polygon fill="midnightblue" stroke="midnightblue" points="1464.19,-241.5 1454.19,-245 1464.19,-248.5 1464.19,-241.5"/>
</g>
<!-- Node6 -->
<g id="node10" class="node"><title>Node6</title>
<a xlink:href="../../db/d9f/classns_t_array__base.html" target="_top" xlink:title="nsTArray_base\&lt; nsTArrayInfallibleAllocator, nsTArray_CopyElements\&lt; gfxFontFeature \&gt; \&gt;">
<polygon fill="white" stroke="black" points="639,-234.5 639,-255.5 1053,-255.5 1053,-234.5 639,-234.5"/>
<text text-anchor="middle" x="846" y="-242.5" font-family="Helvetica,sans-Serif" font-size="10.00">nsTArray_base&lt; nsTArrayInfallibleAllocator, nsTArray_CopyElements&lt; gfxFontFeature &gt; &gt;</text>
</a>
</g>
<!-- Node6&#45;&gt;Node5 -->
<g id="edge10" class="edge"><title>Node6&#45;&gt;Node5</title>
<path fill="none" stroke="midnightblue" d="M1063.28,-245C1099.4,-245 1136.03,-245 1169.67,-245"/>
<polygon fill="midnightblue" stroke="midnightblue" points="1063.11,-241.5 1053.11,-245 1063.11,-248.5 1063.11,-241.5"/>
</g>
<!-- Node7 -->
<g id="node12" class="node"><title>Node7</title>
<a xlink:href="../../dc/d5a/structns_t_array_header.html" target="_top" xlink:title="nsTArrayHeader">
<polygon fill="white" stroke="black" points="224,-234.5 224,-255.5 312,-255.5 312,-234.5 224,-234.5"/>
<text text-anchor="middle" x="268" y="-242.5" font-family="Helvetica,sans-Serif" font-size="10.00">nsTArrayHeader</text>
</a>
</g>
<!-- Node7&#45;&gt;Node6 -->
<g id="edge12" class="edge"><title>Node7&#45;&gt;Node6</title>
<path fill="none" stroke="#9a32cd" stroke-dasharray="5,2" d="M322.599,-245C394.727,-245 525.841,-245 638.791,-245"/>
<polygon fill="#9a32cd" stroke="#9a32cd" points="322.395,-241.5 312.395,-245 322.395,-248.5 322.395,-241.5"/>
<text text-anchor="middle" x="568" y="-249" font-family="Helvetica,sans-Serif" font-size="10.00"> mHdr</text>
</g>
<!-- Node7&#45;&gt;Node7 -->
<g id="edge14" class="edge"><title>Node7&#45;&gt;Node7</title>
<path fill="none" stroke="#9a32cd" stroke-dasharray="5,2" d="M214.504,-258.977C204.371,-266.791 222.203,-274 268,-274 322.785,-274 337.551,-263.684 312.299,-254.355"/>
<polygon fill="#9a32cd" stroke="#9a32cd" points="216.337,-261.972 223.701,-254.355 213.194,-255.718 216.337,-261.972"/>
<text text-anchor="middle" x="268" y="-278" font-family="Helvetica,sans-Serif" font-size="10.00"> sEmptyHdr</text>
</g>
<!-- Node13 -->
<g id="node25" class="node"><title>Node13</title>
<a xlink:href="../../db/d9f/classns_t_array__base.html" target="_top" xlink:title="nsTArray_base\&lt; nsTArrayInfallibleAllocator, nsTArray_CopyElements\&lt; gfxAlternateValue \&gt; \&gt;">
<polygon fill="white" stroke="black" points="633.5,-274.5 633.5,-295.5 1058.5,-295.5 1058.5,-274.5 633.5,-274.5"/>
<text text-anchor="middle" x="846" y="-282.5" font-family="Helvetica,sans-Serif" font-size="10.00">nsTArray_base&lt; nsTArrayInfallibleAllocator, nsTArray_CopyElements&lt; gfxAlternateValue &gt; &gt;</text>
</a>
</g>
<!-- Node7&#45;&gt;Node13 -->
<g id="edge28" class="edge"><title>Node7&#45;&gt;Node13</title>
<path fill="none" stroke="#9a32cd" stroke-dasharray="5,2" d="M322.511,-248.772C406.791,-254.605 571.762,-266.022 694.086,-274.487"/>
<polygon fill="#9a32cd" stroke="#9a32cd" points="322.613,-245.271 312.395,-248.072 322.129,-252.254 322.613,-245.271"/>
<text text-anchor="middle" x="568" y="-270" font-family="Helvetica,sans-Serif" font-size="10.00"> mHdr</text>
</g>
<!-- Node22 -->
<g id="node45" class="node"><title>Node22</title>
<a xlink:href="../../db/d9f/classns_t_array__base.html" target="_top" xlink:title="nsTArray_base\&lt; nsTArrayInfallibleAllocator, nsTArray_CopyElements\&lt; uint8_t \&gt; \&gt;">
<polygon fill="white" stroke="black" points="657.5,-194.5 657.5,-215.5 1034.5,-215.5 1034.5,-194.5 657.5,-194.5"/>
<text text-anchor="middle" x="846" y="-202.5" font-family="Helvetica,sans-Serif" font-size="10.00">nsTArray_base&lt; nsTArrayInfallibleAllocator, nsTArray_CopyElements&lt; uint8_t &gt; &gt;</text>
</a>
</g>
<!-- Node7&#45;&gt;Node22 -->
<g id="edge50" class="edge"><title>Node7&#45;&gt;Node22</title>
<path fill="none" stroke="#9a32cd" stroke-dasharray="5,2" d="M322.511,-241.228C406.791,-235.395 571.762,-223.978 694.086,-215.513"/>
<polygon fill="#9a32cd" stroke="#9a32cd" points="322.129,-237.746 312.395,-241.928 322.613,-244.729 322.129,-237.746"/>
<text text-anchor="middle" x="568" y="-229" font-family="Helvetica,sans-Serif" font-size="10.00"> mHdr</text>
</g>
<!-- Node8 -->
<g id="node15" class="node"><title>Node8</title>
<a xlink:href="../../d7/dcf/structns_t_array___typed_base.html" target="_top" xlink:title="nsTArray_TypedBase\&lt; gfxFontFeature, nsTArray_Impl\&lt; gfxFontFeature, nsTArrayInfallibleAllocator \&gt; \&gt;">
<polygon fill="white" stroke="black" points="611.5,-314.5 611.5,-335.5 1080.5,-335.5 1080.5,-314.5 611.5,-314.5"/>
<text text-anchor="middle" x="846" y="-322.5" font-family="Helvetica,sans-Serif" font-size="10.00">nsTArray_TypedBase&lt; gfxFontFeature, nsTArray_Impl&lt; gfxFontFeature, nsTArrayInfallibleAllocator &gt; &gt;</text>
</a>
</g>
<!-- Node8&#45;&gt;Node5 -->
<g id="edge16" class="edge"><title>Node8&#45;&gt;Node5</title>
<path fill="none" stroke="midnightblue" d="M1063.91,-312.344C1073.47,-310.202 1082.87,-307.766 1092,-305 1127.03,-294.388 1129.26,-276.54 1164,-265 1175.56,-261.158 1187.87,-258.053 1200.26,-255.544"/>
<polygon fill="midnightblue" stroke="midnightblue" points="1062.95,-308.97 1053.89,-314.472 1064.4,-315.817 1062.95,-308.97"/>
</g>
<!-- Node9 -->
<g id="node17" class="node"><title>Node9</title>
<a xlink:href="../../db/d62/structns_t_array___safe_element_at_helper.html" target="_top" xlink:title="nsTArray_SafeElementAtHelper\&lt; gfxFontFeature, nsTArray_Impl\&lt; gfxFontFeature, nsTArrayInfallibleAllocator \&gt; \&gt;">
<polygon fill="white" stroke="black" points="11,-314.5 11,-335.5 525,-335.5 525,-314.5 11,-314.5"/>
<text text-anchor="middle" x="268" y="-322.5" font-family="Helvetica,sans-Serif" font-size="10.00">nsTArray_SafeElementAtHelper&lt; gfxFontFeature, nsTArray_Impl&lt; gfxFontFeature, nsTArrayInfallibleAllocator &gt; &gt;</text>
</a>
</g>
<!-- Node9&#45;&gt;Node8 -->
<g id="edge18" class="edge"><title>Node9&#45;&gt;Node8</title>
<path fill="none" stroke="midnightblue" d="M535.384,-325C560.724,-325 586.286,-325 611.287,-325"/>
<polygon fill="midnightblue" stroke="midnightblue" points="535.306,-321.5 525.306,-325 535.306,-328.5 535.306,-321.5"/>
</g>
<!-- Node10 -->
<g id="node19" class="node"><title>Node10</title>
<a xlink:href="../../d0/d01/classns_ref_ptr.html" target="_top" xlink:title="nsRefPtr\&lt; nsIAtom \&gt;">
<polygon fill="white" stroke="black" points="1590,-314.5 1590,-335.5 1700,-335.5 1700,-314.5 1590,-314.5"/>
<text text-anchor="middle" x="1645" y="-322.5" font-family="Helvetica,sans-Serif" font-size="10.00">nsRefPtr&lt; nsIAtom &gt;</text>
</a>
</g>
<!-- Node10&#45;&gt;Node2 -->
<g id="edge20" class="edge"><title>Node10&#45;&gt;Node2</title>
<path fill="none" stroke="#9a32cd" stroke-dasharray="5,2" d="M1710.24,-319.711C1761.78,-315.451 1835.52,-309.175 1900,-303 1939.62,-299.206 1985,-294.365 2015.78,-291.006"/>
<polygon fill="#9a32cd" stroke="#9a32cd" points="1709.92,-316.226 1700.24,-320.536 1710.5,-323.202 1709.92,-316.226"/>
<text text-anchor="middle" x="1855" y="-314" font-family="Helvetica,sans-Serif" font-size="10.00"> language</text>
</g>
<!-- Node11 -->
<g id="node21" class="node"><title>Node11</title>
<a xlink:href="../../d8/d6f/classns_t_array.html" target="_top" xlink:title="nsTArray\&lt; gfxAlternateValue \&gt;">
<polygon fill="white" stroke="black" points="1569,-274.5 1569,-295.5 1721,-295.5 1721,-274.5 1569,-274.5"/>
<text text-anchor="middle" x="1645" y="-282.5" font-family="Helvetica,sans-Serif" font-size="10.00">nsTArray&lt; gfxAlternateValue &gt;</text>
</a>
</g>
<!-- Node11&#45;&gt;Node2 -->
<g id="edge22" class="edge"><title>Node11&#45;&gt;Node2</title>
<path fill="none" stroke="#9a32cd" stroke-dasharray="5,2" d="M1731.34,-285.424C1819.59,-285.858 1952.43,-286.511 2015.83,-286.822"/>
<polygon fill="#9a32cd" stroke="#9a32cd" points="1731.09,-281.923 1721.08,-285.374 1731.06,-288.923 1731.09,-281.923"/>
<text text-anchor="middle" x="1855" y="-290" font-family="Helvetica,sans-Serif" font-size="10.00"> alternateValues</text>
</g>
<!-- Node12 -->
<g id="node23" class="node"><title>Node12</title>
<a xlink:href="../../d4/dd8/classns_t_array___impl.html" target="_top" xlink:title="nsTArray_Impl\&lt; gfxAlternateValue, nsTArrayInfallibleAllocator \&gt;">
<polygon fill="white" stroke="black" points="1164,-274.5 1164,-295.5 1460,-295.5 1460,-274.5 1164,-274.5"/>
<text text-anchor="middle" x="1312" y="-282.5" font-family="Helvetica,sans-Serif" font-size="10.00">nsTArray_Impl&lt; gfxAlternateValue, nsTArrayInfallibleAllocator &gt;</text>
</a>
</g>
<!-- Node12&#45;&gt;Node11 -->
<g id="edge24" class="edge"><title>Node12&#45;&gt;Node11</title>
<path fill="none" stroke="midnightblue" d="M1470.6,-285C1504.85,-285 1539.53,-285 1568.86,-285"/>
<polygon fill="midnightblue" stroke="midnightblue" points="1470.48,-281.5 1460.48,-285 1470.48,-288.5 1470.48,-281.5"/>
</g>
<!-- Node13&#45;&gt;Node12 -->
<g id="edge26" class="edge"><title>Node13&#45;&gt;Node12</title>
<path fill="none" stroke="midnightblue" d="M1068.55,-285C1100.83,-285 1133.37,-285 1163.7,-285"/>
<polygon fill="midnightblue" stroke="midnightblue" points="1068.54,-281.5 1058.54,-285 1068.54,-288.5 1068.54,-281.5"/>
</g>
<!-- Node14 -->
<g id="node28" class="node"><title>Node14</title>
<a xlink:href="../../d7/dcf/structns_t_array___typed_base.html" target="_top" xlink:title="nsTArray_TypedBase\&lt; gfxAlternateValue, nsTArray_Impl\&lt; gfxAlternateValue, nsTArrayInfallibleAllocator \&gt; \&gt;">
<polygon fill="white" stroke="black" points="600.5,-354.5 600.5,-375.5 1091.5,-375.5 1091.5,-354.5 600.5,-354.5"/>
<text text-anchor="middle" x="846" y="-362.5" font-family="Helvetica,sans-Serif" font-size="10.00">nsTArray_TypedBase&lt; gfxAlternateValue, nsTArray_Impl&lt; gfxAlternateValue, nsTArrayInfallibleAllocator &gt; &gt;</text>
</a>
</g>
<!-- Node14&#45;&gt;Node12 -->
<g id="edge30" class="edge"><title>Node14&#45;&gt;Node12</title>
<path fill="none" stroke="midnightblue" d="M1033.85,-353.348C1053.55,-351.047 1073.23,-348.294 1092,-345 1160.43,-332.993 1238.43,-309.25 1280.72,-295.506"/>
<polygon fill="midnightblue" stroke="midnightblue" points="1033.41,-349.875 1023.87,-354.476 1034.19,-356.831 1033.41,-349.875"/>
</g>
<!-- Node15 -->
<g id="node30" class="node"><title>Node15</title>
<a xlink:href="../../db/d62/structns_t_array___safe_element_at_helper.html" target="_top" xlink:title="nsTArray_SafeElementAtHelper\&lt; gfxAlternateValue, nsTArray_Impl\&lt; gfxAlternateValue, nsTArrayInfallibleAllocator \&gt; \&gt;">
<polygon fill="white" stroke="black" points="0,-354.5 0,-375.5 536,-375.5 536,-354.5 0,-354.5"/>
<text text-anchor="middle" x="268" y="-362.5" font-family="Helvetica,sans-Serif" font-size="10.00">nsTArray_SafeElementAtHelper&lt; gfxAlternateValue, nsTArray_Impl&lt; gfxAlternateValue, nsTArrayInfallibleAllocator &gt; &gt;</text>
</a>
</g>
<!-- Node15&#45;&gt;Node14 -->
<g id="edge32" class="edge"><title>Node15&#45;&gt;Node14</title>
<path fill="none" stroke="midnightblue" d="M546.309,-365C564.388,-365 582.524,-365 600.431,-365"/>
<polygon fill="midnightblue" stroke="midnightblue" points="546.272,-361.5 536.272,-365 546.272,-368.5 546.272,-361.5"/>
</g>
<!-- Node16&#45;&gt;Node1 -->
<g id="edge34" class="edge"><title>Node16&#45;&gt;Node1</title>
<path fill="none" stroke="#9a32cd" stroke-dasharray="5,2" d="M2363.86,-146.186C2402.34,-165.121 2467.12,-196.996 2500.57,-213.456"/>
<polygon fill="#9a32cd" stroke="#9a32cd" points="2365.2,-142.943 2354.68,-141.668 2362.11,-149.224 2365.2,-142.943"/>
<text text-anchor="middle" x="2416" y="-187" font-family="Helvetica,sans-Serif" font-size="10.00"> mFontEntry</text>
</g>
<!-- Node17 -->
<g id="node35" class="node"><title>Node17</title>
<a xlink:href="../../d0/d01/classns_ref_ptr.html" target="_top" xlink:title="nsRefPtr\&lt; gfxCharacterMap \&gt;">
<polygon fill="white" stroke="black" points="1977.5,-40.5 1977.5,-61.5 2126.5,-61.5 2126.5,-40.5 1977.5,-40.5"/>
<text text-anchor="middle" x="2052" y="-48.5" font-family="Helvetica,sans-Serif" font-size="10.00">nsRefPtr&lt; gfxCharacterMap &gt;</text>
</a>
</g>
<!-- Node17&#45;&gt;Node16 -->
<g id="edge38" class="edge"><title>Node17&#45;&gt;Node16</title>
<path fill="none" stroke="#9a32cd" stroke-dasharray="5,2" d="M2136.65,-53.3615C2180.45,-57.2042 2233.85,-66.0867 2278,-86 2295.99,-94.1153 2312.98,-109.665 2323.19,-120.185"/>
<polygon fill="#9a32cd" stroke="#9a32cd" points="2136.84,-49.8661 2126.6,-52.5524 2136.28,-56.8435 2136.84,-49.8661"/>
<text text-anchor="middle" x="2241" y="-90" font-family="Helvetica,sans-Serif" font-size="10.00"> mCharacterMap</text>
</g>
<!-- Node18 -->
<g id="node37" class="node"><title>Node18</title>
<a xlink:href="../../df/d90/classgfx_s_v_g_glyphs.html" target="_top" xlink:title="gfxSVGGlyphs">
<polygon fill="white" stroke="black" points="2011,-0.5 2011,-21.5 2093,-21.5 2093,-0.5 2011,-0.5"/>
<text text-anchor="middle" x="2052" y="-8.5" font-family="Helvetica,sans-Serif" font-size="10.00">gfxSVGGlyphs</text>
</a>
</g>
<!-- Node18&#45;&gt;Node16 -->
<g id="edge40" class="edge"><title>Node18&#45;&gt;Node16</title>
<path fill="none" stroke="#9a32cd" stroke-dasharray="5,2" d="M2103.15,-7.62253C2151.96,-6.89803 2225.62,-12.5608 2278,-47 2305.53,-65.0998 2322.39,-102.259 2329.33,-120.47"/>
<polygon fill="#9a32cd" stroke="#9a32cd" points="2103.04,-4.12409 2093.12,-7.86602 2103.21,-11.122 2103.04,-4.12409"/>
<text text-anchor="middle" x="2241" y="-51" font-family="Helvetica,sans-Serif" font-size="10.00"> mSVGGlyphs</text>
</g>
<!-- Node19 -->
<g id="node39" class="node"><title>Node19</title>
<a xlink:href="../../dc/d28/classgfx_user_font_data.html" target="_top" xlink:title="gfxUserFontData">
<polygon fill="white" stroke="black" points="2006,-160.5 2006,-181.5 2098,-181.5 2098,-160.5 2006,-160.5"/>
<text text-anchor="middle" x="2052" y="-168.5" font-family="Helvetica,sans-Serif" font-size="10.00">gfxUserFontData</text>
</a>
</g>
<!-- Node19&#45;&gt;Node16 -->
<g id="edge42" class="edge"><title>Node19&#45;&gt;Node16</title>
<path fill="none" stroke="#9a32cd" stroke-dasharray="5,2" d="M2108.31,-167.802C2154.28,-164.527 2220.77,-158.27 2278,-147 2285.32,-145.559 2293.07,-143.589 2300.37,-141.524"/>
<polygon fill="#9a32cd" stroke="#9a32cd" points="2107.98,-164.317 2098.24,-168.495 2108.46,-171.3 2107.98,-164.317"/>
<text text-anchor="middle" x="2241" y="-161" font-family="Helvetica,sans-Serif" font-size="10.00"> mUserFontData</text>
</g>
<!-- Node20 -->
<g id="node41" class="node"><title>Node20</title>
<a xlink:href="../../d8/d6f/classns_t_array.html" target="_top" xlink:title="nsTArray\&lt; uint8_t \&gt;">
<polygon fill="white" stroke="black" points="1593,-160.5 1593,-181.5 1697,-181.5 1697,-160.5 1593,-160.5"/>
<text text-anchor="middle" x="1645" y="-168.5" font-family="Helvetica,sans-Serif" font-size="10.00">nsTArray&lt; uint8_t &gt;</text>
</a>
</g>
<!-- Node20&#45;&gt;Node19 -->
<g id="edge44" class="edge"><title>Node20&#45;&gt;Node19</title>
<path fill="none" stroke="#9a32cd" stroke-dasharray="5,2" d="M1707.59,-171C1789.9,-171 1932.61,-171 2005.79,-171"/>
<polygon fill="#9a32cd" stroke="#9a32cd" points="1707.37,-167.5 1697.37,-171 1707.37,-174.5 1707.37,-167.5"/>
<text text-anchor="middle" x="1855" y="-175" font-family="Helvetica,sans-Serif" font-size="10.00"> mMetadata</text>
</g>
<!-- Node21 -->
<g id="node43" class="node"><title>Node21</title>
<a xlink:href="../../d4/dd8/classns_t_array___impl.html" target="_top" xlink:title="nsTArray_Impl\&lt; uint8_t, nsTArrayInfallibleAllocator \&gt;">
<polygon fill="white" stroke="black" points="1188,-160.5 1188,-181.5 1436,-181.5 1436,-160.5 1188,-160.5"/>
<text text-anchor="middle" x="1312" y="-168.5" font-family="Helvetica,sans-Serif" font-size="10.00">nsTArray_Impl&lt; uint8_t, nsTArrayInfallibleAllocator &gt;</text>
</a>
</g>
<!-- Node21&#45;&gt;Node20 -->
<g id="edge46" class="edge"><title>Node21&#45;&gt;Node20</title>
<path fill="none" stroke="midnightblue" d="M1446.69,-171C1498.08,-171 1553.68,-171 1592.89,-171"/>
<polygon fill="midnightblue" stroke="midnightblue" points="1446.47,-167.5 1436.47,-171 1446.47,-174.5 1446.47,-167.5"/>
</g>
<!-- Node22&#45;&gt;Node21 -->
<g id="edge48" class="edge"><title>Node22&#45;&gt;Node21</title>
<path fill="none" stroke="midnightblue" d="M1000.04,-193.761C1061.04,-189.31 1130.22,-184.263 1187.91,-180.054"/>
<polygon fill="midnightblue" stroke="midnightblue" points="999.655,-190.28 989.936,-194.498 1000.16,-197.261 999.655,-190.28"/>
</g>
<!-- Node23 -->
<g id="node48" class="node"><title>Node23</title>
<a xlink:href="../../d7/dcf/structns_t_array___typed_base.html" target="_top" xlink:title="nsTArray_TypedBase\&lt; uint8_t, nsTArray_Impl\&lt; uint8_t, nsTArrayInfallibleAllocator \&gt; \&gt;">
<polygon fill="white" stroke="black" points="648.5,-154.5 648.5,-175.5 1043.5,-175.5 1043.5,-154.5 648.5,-154.5"/>
<text text-anchor="middle" x="846" y="-162.5" font-family="Helvetica,sans-Serif" font-size="10.00">nsTArray_TypedBase&lt; uint8_t, nsTArray_Impl&lt; uint8_t, nsTArrayInfallibleAllocator &gt; &gt;</text>
</a>
</g>
<!-- Node23&#45;&gt;Node21 -->
<g id="edge52" class="edge"><title>Node23&#45;&gt;Node21</title>
<path fill="none" stroke="midnightblue" d="M1053.67,-167.674C1099.43,-168.263 1146.51,-168.869 1187.74,-169.4"/>
<polygon fill="midnightblue" stroke="midnightblue" points="1053.67,-164.174 1043.63,-167.545 1053.58,-171.173 1053.67,-164.174"/>
</g>
<!-- Node24 -->
<g id="node50" class="node"><title>Node24</title>
<a xlink:href="../../db/d62/structns_t_array___safe_element_at_helper.html" target="_top" xlink:title="nsTArray_SafeElementAtHelper\&lt; uint8_t, nsTArray_Impl\&lt; uint8_t, nsTArrayInfallibleAllocator \&gt; \&gt;">
<polygon fill="white" stroke="black" points="48,-154.5 48,-175.5 488,-175.5 488,-154.5 48,-154.5"/>
<text text-anchor="middle" x="268" y="-162.5" font-family="Helvetica,sans-Serif" font-size="10.00">nsTArray_SafeElementAtHelper&lt; uint8_t, nsTArray_Impl&lt; uint8_t, nsTArrayInfallibleAllocator &gt; &gt;</text>
</a>
</g>
<!-- Node24&#45;&gt;Node23 -->
<g id="edge54" class="edge"><title>Node24&#45;&gt;Node23</title>
<path fill="none" stroke="midnightblue" d="M498.383,-165C547.99,-165 600.003,-165 648.238,-165"/>
<polygon fill="midnightblue" stroke="midnightblue" points="498.166,-161.5 488.166,-165 498.166,-168.5 498.166,-161.5"/>
</g>
<!-- Node25 -->
<g id="node52" class="node"><title>Node25</title>
<a xlink:href="../../d4/dfc/classns_data_hashtable.html" target="_top" xlink:title="nsDataHashtable\&lt; nsPtrHashKey\&lt; const void \&gt;, void * \&gt;">
<polygon fill="white" stroke="black" points="1918,-120.5 1918,-141.5 2186,-141.5 2186,-120.5 1918,-120.5"/>
<text text-anchor="middle" x="2052" y="-128.5" font-family="Helvetica,sans-Serif" font-size="10.00">nsDataHashtable&lt; nsPtrHashKey&lt; const void &gt;, void * &gt;</text>
</a>
</g>
<!-- Node25&#45;&gt;Node16 -->
<g id="edge56" class="edge"><title>Node25&#45;&gt;Node16</title>
<path fill="none" stroke="#9a32cd" stroke-dasharray="5,2" d="M2196.77,-131C2233.81,-131 2270.45,-131 2296.38,-131"/>
<polygon fill="#9a32cd" stroke="#9a32cd" points="2196.33,-127.5 2186.33,-131 2196.33,-134.5 2196.33,-127.5"/>
<text text-anchor="middle" x="2241" y="-135" font-family="Helvetica,sans-Serif" font-size="10.00"> mGrTableMap</text>
</g>
<!-- Node26 -->
<g id="node54" class="node"><title>Node26</title>
<a xlink:href="../../da/dba/classns_base_hashtable.html" target="_top" xlink:title="nsBaseHashtable\&lt; nsPtrHashKey\&lt; const void \&gt;,void *,void * \&gt;">
<polygon fill="white" stroke="black" points="1498,-116.5 1498,-137.5 1792,-137.5 1792,-116.5 1498,-116.5"/>
<text text-anchor="middle" x="1645" y="-124.5" font-family="Helvetica,sans-Serif" font-size="10.00">nsBaseHashtable&lt; nsPtrHashKey&lt; const void &gt;,void *,void * &gt;</text>
</a>
</g>
<!-- Node26&#45;&gt;Node25 -->
<g id="edge58" class="edge"><title>Node26&#45;&gt;Node25</title>
<path fill="none" stroke="midnightblue" d="M1802.4,-128.547C1840.56,-128.922 1881.01,-129.32 1917.98,-129.683"/>
<polygon fill="midnightblue" stroke="midnightblue" points="1802.26,-125.045 1792.22,-128.447 1802.19,-132.045 1802.26,-125.045"/>
</g>
<!-- Node27 -->
<g id="node56" class="node"><title>Node27</title>
<a xlink:href="../../d5/dc3/classns_t_hashtable.html" target="_top" xlink:title="nsTHashtable\&lt; nsBaseHashtableET\&lt; KeyClass, DataType \&gt; \&gt;">
<polygon fill="white" stroke="black" points="1164.5,-114.5 1164.5,-135.5 1459.5,-135.5 1459.5,-114.5 1164.5,-114.5"/>
<text text-anchor="middle" x="1312" y="-122.5" font-family="Helvetica,sans-Serif" font-size="10.00">nsTHashtable&lt; nsBaseHashtableET&lt; KeyClass, DataType &gt; &gt;</text>
</a>
</g>
<!-- Node27&#45;&gt;Node26 -->
<g id="edge60" class="edge"><title>Node27&#45;&gt;Node26</title>
<path fill="none" stroke="darkgreen" d="M1469.66,-125.947C1479.03,-126.003 1488.43,-126.06 1497.76,-126.116"/>
<polygon fill="darkgreen" stroke="darkgreen" points="1469.53,-122.446 1459.51,-125.886 1469.49,-129.446 1469.53,-122.446"/>
</g>
<!-- Node28 -->
<g id="node58" class="node"><title>Node28</title>
<polygon fill="white" stroke="#bfbfbf" points="825.5,-114.5 825.5,-135.5 866.5,-135.5 866.5,-114.5 825.5,-114.5"/>
<text text-anchor="middle" x="846" y="-122.5" font-family="Helvetica,sans-Serif" font-size="10.00">struct</text>
</g>
<!-- Node28&#45;&gt;Node27 -->
<g id="edge62" class="edge"><title>Node28&#45;&gt;Node27</title>
<path fill="none" stroke="#9a32cd" stroke-dasharray="5,2" d="M876.89,-125C934.619,-125 1062.27,-125 1164.46,-125"/>
<polygon fill="#9a32cd" stroke="#9a32cd" points="876.625,-121.5 866.625,-125 876.625,-128.5 876.625,-121.5"/>
<text text-anchor="middle" x="1128" y="-129" font-family="Helvetica,sans-Serif" font-size="10.00"> mTable</text>
</g>
<!-- Node29 -->
<g id="node60" class="node"><title>Node29</title>
<a xlink:href="../../d1/ddd/classns_auto_array_ptr.html" target="_top" xlink:title="nsAutoArrayPtr\&lt; uint8_t \&gt;">
<polygon fill="white" stroke="black" points="1986.5,-80.5 1986.5,-101.5 2117.5,-101.5 2117.5,-80.5 1986.5,-80.5"/>
<text text-anchor="middle" x="2052" y="-88.5" font-family="Helvetica,sans-Serif" font-size="10.00">nsAutoArrayPtr&lt; uint8_t &gt;</text>
</a>
</g>
<!-- Node29&#45;&gt;Node16 -->
<g id="edge64" class="edge"><title>Node29&#45;&gt;Node16</title>
<path fill="none" stroke="#9a32cd" stroke-dasharray="5,2" d="M2127.87,-94.9539C2172.01,-98.1888 2228.52,-103.939 2278,-114 2286.13,-115.653 2294.77,-118.021 2302.73,-120.467"/>
<polygon fill="#9a32cd" stroke="#9a32cd" points="2128.01,-91.4553 2117.79,-94.2428 2127.52,-98.4379 2128.01,-91.4553"/>
<text text-anchor="middle" x="2241" y="-118" font-family="Helvetica,sans-Serif" font-size="10.00"> mUVSData</text>
</g>
</g>
</svg>
        <g id="navigator" transform="translate(0 0)" fill="#404254">
                <rect fill="#f2f5e9" fill-opacity="0.5" stroke="#606060" stroke-width=".5" x="0" y="0" width="60" height="60"/>
                <use id="zoomplus" xlink:href="#zoomPlus" x="17" y="9" onmousedown="handleZoom(evt,'in')"/>
                <use id="zoomminus" xlink:href="#zoomMin" x="42" y="9" onmousedown="handleZoom(evt,'out')"/>
                <use id="reset" xlink:href="#resetDef" x="30" y="36" onmousedown="handleReset()"/>
                <g id="arrowUp" xlink:href="#dirArrow" transform="translate(30 24)" onmousedown="handlePan(0,-1)">
                  <use xlink:href="#rim" fill="#404040">
                        <set attributeName="fill" to="#808080" begin="arrowUp.mouseover" end="arrowUp.mouseout"/>
                  </use>
                  <path fill="none" stroke="white" stroke-width="1.5" d="M0,-3.0v7 M-2.5,-0.5L0,-3.0L2.5,-0.5"/>
                </g>
                <g id="arrowRight" xlink:href="#dirArrow" transform="rotate(90) translate(36 -43)" onmousedown="handlePan(1,0)">
                  <use xlink:href="#rim" fill="#404040">
                        <set attributeName="fill" to="#808080" begin="arrowRight.mouseover" end="arrowRight.mouseout"/>
                  </use>
                  <path fill="none" stroke="white" stroke-width="1.5" d="M0,-3.0v7 M-2.5,-0.5L0,-3.0L2.5,-0.5"/>
                </g>
                <g id="arrowDown" xlink:href="#dirArrow" transform="rotate(180) translate(-30 -48)" onmousedown="handlePan(0,1)">
                  <use xlink:href="#rim" fill="#404040">
                        <set attributeName="fill" to="#808080" begin="arrowDown.mouseover" end="arrowDown.mouseout"/>
                  </use>
                  <path fill="none" stroke="white" stroke-width="1.5" d="M0,-3.0v7 M-2.5,-0.5L0,-3.0L2.5,-0.5"/>
                </g>
                <g id="arrowLeft" xlink:href="#dirArrow" transform="rotate(270) translate(-36 17)" onmousedown="handlePan(-1,0)">
                  <use xlink:href="#rim" fill="#404040">
                        <set attributeName="fill" to="#808080" begin="arrowLeft.mouseover" end="arrowLeft.mouseout"/>
                  </use>
                  <path fill="none" stroke="white" stroke-width="1.5" d="M0,-3.0v7 M-2.5,-0.5L0,-3.0L2.5,-0.5"/>
                </g>
        </g>
</svg>
