<?xml version="1.0" encoding="UTF-8" standalone="no"?>
<!DOCTYPE svg PUBLIC "-//W3C//DTD SVG 1.1//EN"
 "http://www.w3.org/Graphics/SVG/1.1/DTD/svg11.dtd">
<!-- Generated by graphviz version 2.26.3 (20100126.1600)
 -->
<!-- Title: G Pages: 1 -->
<svg width="207pt" height="222pt"
 viewBox="0.00 0.00 207.00 222.00" xmlns="http://www.w3.org/2000/svg" xmlns:xlink="http://www.w3.org/1999/xlink">
<g id="graph1" class="graph" transform="scale(1 1) rotate(0) translate(4 218)">
<title>G</title>
<polygon fill="white" stroke="white" points="-4,5 -4,-218 204,-218 204,5 -4,5"/>
<!-- Node1 -->
<g id="node1" class="node"><title>Node1</title>
<polygon fill="#bfbfbf" stroke="black" points="0,-0.5 0,-21.5 104,-21.5 104,-0.5 0,-0.5"/>
<text text-anchor="middle" x="52" y="-8.5" font-family="Helvetica,sans-Serif" font-size="10.00">nsICookieManager2</text>
</g>
<!-- Node2 -->
<g id="node2" class="node"><title>Node2</title>
<a xlink:href="../../db/d9f/interfacens_i_cookie_manager.html" target="_top" xlink:title="nsICookieManager">
<polygon fill="white" stroke="black" points="3,-60.5 3,-81.5 101,-81.5 101,-60.5 3,-60.5"/>
<text text-anchor="middle" x="52" y="-68.5" font-family="Helvetica,sans-Serif" font-size="10.00">nsICookieManager</text>
</a>
</g>
<!-- Node2&#45;&gt;Node1 -->
<g id="edge2" class="edge"><title>Node2&#45;&gt;Node1</title>
<path fill="none" stroke="midnightblue" d="M45.5424,-50.2312C44.9133,-40.5922 45.2993,-29.5444 46.7005,-21.6339"/>
<polygon fill="midnightblue" stroke="midnightblue" points="42.0768,-50.7326 46.6841,-60.2732 49.032,-49.9418 42.0768,-50.7326"/>
</g>
<!-- Node2&#45;&gt;Node1 -->
<g id="edge14" class="edge"><title>Node2&#45;&gt;Node1</title>
<path fill="none" stroke="midnightblue" d="M58.4576,-50.2312C59.0867,-40.5922 58.7007,-29.5444 57.2995,-21.6339"/>
<polygon fill="midnightblue" stroke="midnightblue" points="54.968,-49.9418 57.3159,-60.2732 61.9232,-50.7326 54.968,-49.9418"/>
</g>
<!-- Node3 -->
<g id="node4" class="node"><title>Node3</title>
<a xlink:href="../../d4/d6a/classns_i_supports.html" target="_top" xlink:title="nsISupports">
<polygon fill="white" stroke="black" points="50.5,-192.5 50.5,-213.5 119.5,-213.5 119.5,-192.5 50.5,-192.5"/>
<text text-anchor="middle" x="85" y="-200.5" font-family="Helvetica,sans-Serif" font-size="10.00">nsISupports</text>
</a>
</g>
<!-- Node3&#45;&gt;Node2 -->
<g id="edge4" class="edge"><title>Node3&#45;&gt;Node2</title>
<path fill="none" stroke="midnightblue" d="M74.8088,-182.456C65.082,-153.951 52.8489,-103.45 50.7676,-81.5825"/>
<polygon fill="midnightblue" stroke="midnightblue" points="71.654,-184.018 78.3877,-192.198 78.2246,-181.604 71.654,-184.018"/>
</g>
<!-- Node3&#45;&gt;Node2 -->
<g id="edge6" class="edge"><title>Node3&#45;&gt;Node2</title>
<path fill="none" stroke="midnightblue" d="M84.8588,-182.078C80.2791,-153.507 67.337,-103.353 58.5237,-81.5825"/>
<polygon fill="midnightblue" stroke="midnightblue" points="81.4174,-182.75 86.2113,-192.198 88.3557,-181.822 81.4174,-182.75"/>
</g>
<!-- Node4 -->
<g id="node7" class="node"><title>Node4</title>
<a xlink:href="../../dd/dcc/interfacens_i_simple_enumerator.html" target="_top" xlink:title="nsISimpleEnumerator">
<polygon fill="white" stroke="black" points="89,-132.5 89,-153.5 199,-153.5 199,-132.5 89,-132.5"/>
<text text-anchor="middle" x="144" y="-140.5" font-family="Helvetica,sans-Serif" font-size="10.00">nsISimpleEnumerator</text>
</a>
</g>
<!-- Node3&#45;&gt;Node4 -->
<g id="edge10" class="edge"><title>Node3&#45;&gt;Node4</title>
<path fill="none" stroke="midnightblue" d="M97.0095,-184.382C106.109,-174.273 118.373,-162.14 128.244,-153.634"/>
<polygon fill="midnightblue" stroke="midnightblue" points="94.0924,-182.407 90.2321,-192.273 99.4027,-186.967 94.0924,-182.407"/>
</g>
<!-- Node3&#45;&gt;Node4 -->
<g id="edge12" class="edge"><title>Node3&#45;&gt;Node4</title>
<path fill="none" stroke="midnightblue" d="M108.317,-185.585C119.452,-175.25 131.711,-162.48 138.843,-153.634"/>
<polygon fill="midnightblue" stroke="midnightblue" points="105.969,-182.989 100.864,-192.273 110.644,-188.199 105.969,-182.989"/>
</g>
<!-- Node4&#45;&gt;Node2 -->
<g id="edge8" class="edge"><title>Node4&#45;&gt;Node2</title>
<path fill="none" stroke="#9a32cd" stroke-dasharray="5,2" d="M122.41,-126.104C104.848,-112.359 80.6017,-93.384 65.6306,-81.6674"/>
<polygon fill="#9a32cd" stroke="#9a32cd" points="120.393,-128.969 130.425,-132.376 124.707,-123.457 120.393,-128.969"/>
<text text-anchor="middle" x="132" y="-104.5" font-family="Helvetica,sans-Serif" font-size="10.00"> enumerator</text>
</g>
</g>
</svg>
