<?xml version="1.0" encoding="UTF-8" standalone="no"?>
<!DOCTYPE svg PUBLIC "-//W3C//DTD SVG 1.1//EN"
 "http://www.w3.org/Graphics/SVG/1.1/DTD/svg11.dtd">
<!-- Generated by graphviz version 2.26.3 (20100126.1600)
 -->
<!-- Title: G Pages: 1 -->
<svg width="264pt" height="146pt"
 viewBox="0.00 0.00 264.00 146.00" xmlns="http://www.w3.org/2000/svg" xmlns:xlink="http://www.w3.org/1999/xlink">
<g id="graph1" class="graph" transform="scale(1 1) rotate(0) translate(4 142)">
<title>G</title>
<polygon fill="white" stroke="white" points="-4,5 -4,-142 261,-142 261,5 -4,5"/>
<!-- Node1 -->
<g id="node1" class="node"><title>Node1</title>
<polygon fill="#bfbfbf" stroke="black" points="-0.5,-0.5 -0.5,-21.5 256.5,-21.5 256.5,-0.5 -0.5,-0.5"/>
<text text-anchor="middle" x="128" y="-8.5" font-family="Helvetica,sans-Serif" font-size="10.00">gaiatest.apps.cost_control.regions.ftu_step2.FTUStep2</text>
</g>
<!-- Node2 -->
<g id="node2" class="node"><title>Node2</title>
<a xlink:href="../../de/d19/classgaiatest_1_1apps_1_1cost__control_1_1app_1_1_cost_control.html" target="_top" xlink:title="gaiatest.apps.cost_control.app.CostControl">
<polygon fill="white" stroke="black" points="25,-58.5 25,-79.5 231,-79.5 231,-58.5 25,-58.5"/>
<text text-anchor="middle" x="128" y="-66.5" font-family="Helvetica,sans-Serif" font-size="10.00">gaiatest.apps.cost_control.app.CostControl</text>
</a>
</g>
<!-- Node2&#45;&gt;Node1 -->
<g id="edge2" class="edge"><title>Node2&#45;&gt;Node1</title>
<path fill="none" stroke="midnightblue" d="M128,-48.1906C128,-39.1684 128,-28.9941 128,-21.5707"/>
<polygon fill="midnightblue" stroke="midnightblue" points="124.5,-48.3619 128,-58.3619 131.5,-48.3619 124.5,-48.3619"/>
</g>
<!-- Node3 -->
<g id="node4" class="node"><title>Node3</title>
<a xlink:href="../../d9/deb/classgaiatest_1_1apps_1_1base_1_1_base.html" target="_top" xlink:title="gaiatest.apps.base.Base">
<polygon fill="white" stroke="black" points="65.5,-116.5 65.5,-137.5 190.5,-137.5 190.5,-116.5 65.5,-116.5"/>
<text text-anchor="middle" x="128" y="-124.5" font-family="Helvetica,sans-Serif" font-size="10.00">gaiatest.apps.base.Base</text>
</a>
</g>
<!-- Node3&#45;&gt;Node2 -->
<g id="edge4" class="edge"><title>Node3&#45;&gt;Node2</title>
<path fill="none" stroke="midnightblue" d="M128,-106.191C128,-97.1684 128,-86.9941 128,-79.5707"/>
<polygon fill="midnightblue" stroke="midnightblue" points="124.5,-106.362 128,-116.362 131.5,-106.362 124.5,-106.362"/>
</g>
</g>
</svg>
