<?xml version="1.0" encoding="UTF-8" standalone="no"?>
<!DOCTYPE svg PUBLIC "-//W3C//DTD SVG 1.1//EN"
 "http://www.w3.org/Graphics/SVG/1.1/DTD/svg11.dtd">
<!-- Generated by graphviz version 2.26.3 (20100126.1600)
 -->
<!-- Title: G Pages: 1 -->
<svg width="322pt" height="70pt"
 viewBox="0.00 0.00 322.00 70.00" xmlns="http://www.w3.org/2000/svg" xmlns:xlink="http://www.w3.org/1999/xlink">
<g id="graph1" class="graph" transform="scale(1 1) rotate(0) translate(4 66)">
<title>G</title>
<polygon fill="white" stroke="white" points="-4,5 -4,-66 319,-66 319,5 -4,5"/>
<!-- Node1 -->
<g id="node1" class="node"><title>Node1</title>
<polygon fill="#bfbfbf" stroke="black" points="0,-20.5 0,-41.5 126,-41.5 126,-20.5 0,-20.5"/>
<text text-anchor="middle" x="63" y="-28.5" font-family="Helvetica,sans-Serif" font-size="10.00">imgIRequest::LockImage</text>
</g>
<!-- Node2 -->
<g id="node3" class="node"><title>Node2</title>
<a xlink:href="../../d7/d3a/structns_cursor_image.html#a83d2a2bff434e6bc87a3922fac1ae586" target="_top" xlink:title="nsCursorImage::SetImage">
<polygon fill="white" stroke="black" points="172.5,-40.5 172.5,-61.5 303.5,-61.5 303.5,-40.5 172.5,-40.5"/>
<text text-anchor="middle" x="238" y="-48.5" font-family="Helvetica,sans-Serif" font-size="10.00">nsCursorImage::SetImage</text>
</a>
</g>
<!-- Node1&#45;&gt;Node2 -->
<g id="edge2" class="edge"><title>Node1&#45;&gt;Node2</title>
<path fill="none" stroke="midnightblue" d="M136.137,-39.3585C148.119,-40.7279 160.471,-42.1396 172.261,-43.4869"/>
<polygon fill="midnightblue" stroke="midnightblue" points="136.512,-35.8786 126.179,-38.2205 135.717,-42.8334 136.512,-35.8786"/>
</g>
<!-- Node3 -->
<g id="node5" class="node"><title>Node3</title>
<a xlink:href="../../df/d11/structns_style_list.html#a9dcad763e680a43363ab4fb84b9e95fe" target="_top" xlink:title="nsStyleList::SetListStyleImage">
<polygon fill="white" stroke="black" points="162,-0.5 162,-21.5 314,-21.5 314,-0.5 162,-0.5"/>
<text text-anchor="middle" x="238" y="-8.5" font-family="Helvetica,sans-Serif" font-size="10.00">nsStyleList::SetListStyleImage</text>
</a>
</g>
<!-- Node1&#45;&gt;Node3 -->
<g id="edge4" class="edge"><title>Node1&#45;&gt;Node3</title>
<path fill="none" stroke="midnightblue" d="M136.33,-22.6195C144.742,-21.658 153.334,-20.6761 161.783,-19.7105"/>
<polygon fill="midnightblue" stroke="midnightblue" points="135.717,-19.1666 126.179,-23.7795 136.512,-26.1214 135.717,-19.1666"/>
</g>
</g>
</svg>
