<?xml version="1.0" encoding="UTF-8" standalone="no"?>
<!DOCTYPE svg PUBLIC "-//W3C//DTD SVG 1.1//EN"
 "http://www.w3.org/Graphics/SVG/1.1/DTD/svg11.dtd">
<!-- Generated by graphviz version 2.26.3 (20100126.1600)
 -->
<!-- Title: G Pages: 1 -->
<svg width="260pt" height="320pt"
 viewBox="0.00 0.00 260.00 320.00" xmlns="http://www.w3.org/2000/svg" xmlns:xlink="http://www.w3.org/1999/xlink">
<g id="graph1" class="graph" transform="scale(1 1) rotate(0) translate(4 316)">
<title>G</title>
<polygon fill="white" stroke="white" points="-4,5 -4,-316 257,-316 257,5 -4,5"/>
<!-- Node1 -->
<g id="node1" class="node"><title>Node1</title>
<polygon fill="#bfbfbf" stroke="black" points="70.5,-0.5 70.5,-21.5 177.5,-21.5 177.5,-0.5 70.5,-0.5"/>
<text text-anchor="middle" x="124" y="-8.5" font-family="Helvetica,sans-Serif" font-size="10.00">nsSVGFilterProperty</text>
</g>
<!-- Node2 -->
<g id="node2" class="node"><title>Node2</title>
<a xlink:href="../../d1/dba/classns_s_v_g_i_d_rendering_observer.html" target="_top" xlink:title="nsSVGIDRenderingObserver">
<polygon fill="white" stroke="black" points="3.5,-58.5 3.5,-79.5 146.5,-79.5 146.5,-58.5 3.5,-58.5"/>
<text text-anchor="middle" x="75" y="-66.5" font-family="Helvetica,sans-Serif" font-size="10.00">nsSVGIDRenderingObserver</text>
</a>
</g>
<!-- Node2&#45;&gt;Node1 -->
<g id="edge2" class="edge"><title>Node2&#45;&gt;Node1</title>
<path fill="none" stroke="midnightblue" d="M90.5949,-50.5407C98.6733,-40.9786 108.247,-29.6467 115.07,-21.5707"/>
<polygon fill="midnightblue" stroke="midnightblue" points="87.7673,-48.4643 83.9874,-58.3619 93.1145,-52.9818 87.7673,-48.4643"/>
</g>
<!-- Node3 -->
<g id="node4" class="node"><title>Node3</title>
<a xlink:href="../../d0/dbd/classns_s_v_g_rendering_observer.html" target="_top" xlink:title="nsSVGRenderingObserver">
<polygon fill="white" stroke="black" points="0,-116.5 0,-137.5 132,-137.5 132,-116.5 0,-116.5"/>
<text text-anchor="middle" x="66" y="-124.5" font-family="Helvetica,sans-Serif" font-size="10.00">nsSVGRenderingObserver</text>
</a>
</g>
<!-- Node3&#45;&gt;Node2 -->
<g id="edge4" class="edge"><title>Node3&#45;&gt;Node2</title>
<path fill="none" stroke="midnightblue" d="M69.229,-106.191C70.629,-97.1684 72.2078,-86.9941 73.3597,-79.5707"/>
<polygon fill="midnightblue" stroke="midnightblue" points="65.7256,-105.943 67.6507,-116.362 72.6428,-107.017 65.7256,-105.943"/>
</g>
<!-- Node4 -->
<g id="node6" class="node"><title>Node4</title>
<a xlink:href="../../d6/d32/classns_stub_mutation_observer.html" target="_top" xlink:title="nsStubMutationObserver">
<polygon fill="white" stroke="black" points="-0.5,-174.5 -0.5,-195.5 124.5,-195.5 124.5,-174.5 -0.5,-174.5"/>
<text text-anchor="middle" x="62" y="-182.5" font-family="Helvetica,sans-Serif" font-size="10.00">nsStubMutationObserver</text>
</a>
</g>
<!-- Node4&#45;&gt;Node3 -->
<g id="edge6" class="edge"><title>Node4&#45;&gt;Node3</title>
<path fill="none" stroke="midnightblue" d="M63.4351,-164.191C64.0574,-155.168 64.759,-144.994 65.271,-137.571"/>
<polygon fill="midnightblue" stroke="midnightblue" points="59.9301,-164.145 62.7337,-174.362 66.9135,-164.626 59.9301,-164.145"/>
</g>
<!-- Node5 -->
<g id="node8" class="node"><title>Node5</title>
<a xlink:href="../../d8/d6d/classns_i_mutation_observer.html" target="_top" xlink:title="nsIMutationObserver">
<polygon fill="white" stroke="black" points="35.5,-232.5 35.5,-253.5 142.5,-253.5 142.5,-232.5 35.5,-232.5"/>
<text text-anchor="middle" x="89" y="-240.5" font-family="Helvetica,sans-Serif" font-size="10.00">nsIMutationObserver</text>
</a>
</g>
<!-- Node5&#45;&gt;Node4 -->
<g id="edge8" class="edge"><title>Node5&#45;&gt;Node4</title>
<path fill="none" stroke="midnightblue" d="M79.7264,-223.079C75.4266,-213.842 70.4905,-203.239 66.9208,-195.571"/>
<polygon fill="midnightblue" stroke="midnightblue" points="76.6544,-224.773 84.0478,-232.362 83.0005,-221.819 76.6544,-224.773"/>
</g>
<!-- Node6 -->
<g id="node10" class="node"><title>Node6</title>
<a xlink:href="../../d4/d6a/classns_i_supports.html" target="_top" xlink:title="nsISupports">
<polygon fill="white" stroke="black" points="101.5,-290.5 101.5,-311.5 170.5,-311.5 170.5,-290.5 101.5,-290.5"/>
<text text-anchor="middle" x="136" y="-298.5" font-family="Helvetica,sans-Serif" font-size="10.00">nsISupports</text>
</a>
</g>
<!-- Node6&#45;&gt;Node5 -->
<g id="edge10" class="edge"><title>Node6&#45;&gt;Node5</title>
<path fill="none" stroke="midnightblue" d="M121.042,-282.541C113.293,-272.979 104.11,-261.647 97.5659,-253.571"/>
<polygon fill="midnightblue" stroke="midnightblue" points="118.364,-284.796 127.379,-290.362 123.803,-280.389 118.364,-284.796"/>
</g>
<!-- Node7 -->
<g id="node12" class="node"><title>Node7</title>
<a xlink:href="../../db/db2/classns_i_s_v_g_filter_property.html" target="_top" xlink:title="nsISVGFilterProperty">
<polygon fill="white" stroke="black" points="142,-174.5 142,-195.5 252,-195.5 252,-174.5 142,-174.5"/>
<text text-anchor="middle" x="197" y="-182.5" font-family="Helvetica,sans-Serif" font-size="10.00">nsISVGFilterProperty</text>
</a>
</g>
<!-- Node6&#45;&gt;Node7 -->
<g id="edge14" class="edge"><title>Node6&#45;&gt;Node7</title>
<path fill="none" stroke="midnightblue" d="M146.454,-281.121C159.455,-256.396 181.181,-215.082 191.384,-195.679"/>
<polygon fill="midnightblue" stroke="midnightblue" points="143.186,-279.815 141.629,-290.295 149.382,-283.073 143.186,-279.815"/>
</g>
<!-- Node7&#45;&gt;Node1 -->
<g id="edge12" class="edge"><title>Node7&#45;&gt;Node1</title>
<path fill="none" stroke="midnightblue" d="M192.071,-164.73C185.447,-139.115 172.456,-94.0241 155,-58 148.606,-44.8054 139.062,-30.937 132.255,-21.7145"/>
<polygon fill="midnightblue" stroke="midnightblue" points="188.678,-165.59 194.515,-174.433 195.466,-163.881 188.678,-165.59"/>
</g>
</g>
</svg>
