<?xml version="1.0" encoding="UTF-8" standalone="no"?>
<!DOCTYPE svg PUBLIC "-//W3C//DTD SVG 1.1//EN"
 "http://www.w3.org/Graphics/SVG/1.1/DTD/svg11.dtd">
<!-- Generated by graphviz version 2.26.3 (20100126.1600)
 -->
<!-- Title: G Pages: 1 -->
<svg width="437pt" height="204pt"
 viewBox="0.00 0.00 437.00 204.00" xmlns="http://www.w3.org/2000/svg" xmlns:xlink="http://www.w3.org/1999/xlink">
<g id="graph1" class="graph" transform="scale(1 1) rotate(0) translate(4 200)">
<title>G</title>
<polygon fill="white" stroke="white" points="-4,5 -4,-200 434,-200 434,5 -4,5"/>
<!-- Node1 -->
<g id="node1" class="node"><title>Node1</title>
<polygon fill="#bfbfbf" stroke="black" points="202,-174.5 202,-195.5 272,-195.5 272,-174.5 202,-174.5"/>
<text text-anchor="middle" x="237" y="-182.5" font-family="Helvetica,sans-Serif" font-size="10.00">process.cpp</text>
</g>
<!-- Node2 -->
<g id="node3" class="node"><title>Node2</title>
<a xlink:href="../../da/d42/process_8h.html" target="_top" xlink:title="process.h">
<polygon fill="white" stroke="black" points="40.5,-116.5 40.5,-137.5 99.5,-137.5 99.5,-116.5 40.5,-116.5"/>
<text text-anchor="middle" x="70" y="-124.5" font-family="Helvetica,sans-Serif" font-size="10.00">process.h</text>
</a>
</g>
<!-- Node1&#45;&gt;Node2 -->
<g id="edge2" class="edge"><title>Node1&#45;&gt;Node2</title>
<path fill="none" stroke="midnightblue" d="M206.758,-174.497C179.481,-165.023 139.191,-151.031 109.402,-140.685"/>
<polygon fill="midnightblue" stroke="midnightblue" points="110.331,-137.302 99.7367,-137.328 108.035,-143.915 110.331,-137.302"/>
</g>
<!-- Node6 -->
<g id="node12" class="node"><title>Node6</title>
<polygon fill="white" stroke="#bfbfbf" points="116.5,-116.5 116.5,-137.5 165.5,-137.5 165.5,-116.5 116.5,-116.5"/>
<text text-anchor="middle" x="141" y="-124.5" font-family="Helvetica,sans-Serif" font-size="10.00">dirent.h</text>
</g>
<!-- Node1&#45;&gt;Node6 -->
<g id="edge12" class="edge"><title>Node1&#45;&gt;Node6</title>
<path fill="none" stroke="midnightblue" d="M219.392,-174.362C204.777,-165.532 183.776,-152.844 167.189,-142.822"/>
<polygon fill="midnightblue" stroke="midnightblue" points="168.865,-139.746 158.496,-137.571 165.246,-145.738 168.865,-139.746"/>
</g>
<!-- Node7 -->
<g id="node14" class="node"><title>Node7</title>
<polygon fill="white" stroke="#bfbfbf" points="182.5,-116.5 182.5,-137.5 229.5,-137.5 229.5,-116.5 182.5,-116.5"/>
<text text-anchor="middle" x="206" y="-124.5" font-family="Helvetica,sans-Serif" font-size="10.00">errno.h</text>
</g>
<!-- Node1&#45;&gt;Node7 -->
<g id="edge14" class="edge"><title>Node1&#45;&gt;Node7</title>
<path fill="none" stroke="midnightblue" d="M231.314,-174.362C227.163,-166.595 221.416,-155.843 216.447,-146.546"/>
<polygon fill="midnightblue" stroke="midnightblue" points="219.45,-144.74 211.65,-137.571 213.277,-148.04 219.45,-144.74"/>
</g>
<!-- Node8 -->
<g id="node16" class="node"><title>Node8</title>
<polygon fill="white" stroke="#bfbfbf" points="247,-116.5 247,-137.5 291,-137.5 291,-116.5 247,-116.5"/>
<text text-anchor="middle" x="269" y="-124.5" font-family="Helvetica,sans-Serif" font-size="10.00">fcntl.h</text>
</g>
<!-- Node1&#45;&gt;Node8 -->
<g id="edge16" class="edge"><title>Node1&#45;&gt;Node8</title>
<path fill="none" stroke="midnightblue" d="M242.869,-174.362C247.155,-166.595 253.087,-155.843 258.216,-146.546"/>
<polygon fill="midnightblue" stroke="midnightblue" points="261.402,-148.017 263.168,-137.571 255.273,-144.636 261.402,-148.017"/>
</g>
<!-- Node9 -->
<g id="node18" class="node"><title>Node9</title>
<polygon fill="white" stroke="#bfbfbf" points="308.5,-116.5 308.5,-137.5 351.5,-137.5 351.5,-116.5 308.5,-116.5"/>
<text text-anchor="middle" x="330" y="-124.5" font-family="Helvetica,sans-Serif" font-size="10.00">pwd.h</text>
</g>
<!-- Node1&#45;&gt;Node9 -->
<g id="edge18" class="edge"><title>Node1&#45;&gt;Node9</title>
<path fill="none" stroke="midnightblue" d="M254.058,-174.362C268.085,-165.614 288.184,-153.079 304.182,-143.101"/>
<polygon fill="midnightblue" stroke="midnightblue" points="306.418,-145.832 313.051,-137.571 302.713,-139.893 306.418,-145.832"/>
</g>
<!-- Node10 -->
<g id="node20" class="node"><title>Node10</title>
<polygon fill="white" stroke="#bfbfbf" points="369,-116.5 369,-137.5 429,-137.5 429,-116.5 369,-116.5"/>
<text text-anchor="middle" x="399" y="-124.5" font-family="Helvetica,sans-Serif" font-size="10.00">sys/stat.h</text>
</g>
<!-- Node1&#45;&gt;Node10 -->
<g id="edge20" class="edge"><title>Node1&#45;&gt;Node10</title>
<path fill="none" stroke="midnightblue" d="M266.337,-174.497C292.519,-165.123 331.06,-151.324 359.863,-141.012"/>
<polygon fill="midnightblue" stroke="midnightblue" points="361.373,-144.189 369.608,-137.523 359.013,-137.599 361.373,-144.189"/>
</g>
<!-- Node3 -->
<g id="node5" class="node"><title>Node3</title>
<a xlink:href="../../d5/d60/utils_8h.html" target="_top" xlink:title="utils.h">
<polygon fill="white" stroke="black" points="-0.5,-58.5 -0.5,-79.5 42.5,-79.5 42.5,-58.5 -0.5,-58.5"/>
<text text-anchor="middle" x="21" y="-66.5" font-family="Helvetica,sans-Serif" font-size="10.00">utils.h</text>
</a>
</g>
<!-- Node2&#45;&gt;Node3 -->
<g id="edge4" class="edge"><title>Node2&#45;&gt;Node3</title>
<path fill="none" stroke="midnightblue" d="M61.0126,-116.362C54.1745,-108.268 44.5976,-96.9318 36.5276,-87.3796"/>
<polygon fill="midnightblue" stroke="midnightblue" points="39.0575,-84.9508 29.9304,-79.5707 33.7103,-89.4683 39.0575,-84.9508"/>
</g>
<!-- Node4 -->
<g id="node7" class="node"><title>Node4</title>
<polygon fill="white" stroke="#bfbfbf" points="24.5,-0.5 24.5,-21.5 65.5,-21.5 65.5,-0.5 24.5,-0.5"/>
<text text-anchor="middle" x="45" y="-8.5" font-family="Helvetica,sans-Serif" font-size="10.00">string</text>
</g>
<!-- Node2&#45;&gt;Node4 -->
<g id="edge8" class="edge"><title>Node2&#45;&gt;Node4</title>
<path fill="none" stroke="midnightblue" d="M67.6929,-116.295C63.5442,-97.0451 54.7605,-56.2889 49.4201,-31.5091"/>
<polygon fill="midnightblue" stroke="midnightblue" points="52.8299,-30.7174 47.3016,-21.6792 45.987,-32.1922 52.8299,-30.7174"/>
</g>
<!-- Node5 -->
<g id="node10" class="node"><title>Node5</title>
<polygon fill="white" stroke="#bfbfbf" points="98,-58.5 98,-79.5 142,-79.5 142,-58.5 98,-58.5"/>
<text text-anchor="middle" x="120" y="-66.5" font-family="Helvetica,sans-Serif" font-size="10.00">vector</text>
</g>
<!-- Node2&#45;&gt;Node5 -->
<g id="edge10" class="edge"><title>Node2&#45;&gt;Node5</title>
<path fill="none" stroke="midnightblue" d="M79.1708,-116.362C86.1484,-108.268 95.9208,-96.9318 104.156,-87.3796"/>
<polygon fill="midnightblue" stroke="midnightblue" points="107.009,-89.4301 110.887,-79.5707 101.707,-84.8595 107.009,-89.4301"/>
</g>
<!-- Node3&#45;&gt;Node4 -->
<g id="edge6" class="edge"><title>Node3&#45;&gt;Node4</title>
<path fill="none" stroke="midnightblue" d="M25.402,-58.3619C28.5821,-50.6766 32.9716,-40.0686 36.7904,-30.8399"/>
<polygon fill="midnightblue" stroke="midnightblue" points="40.0364,-32.1491 40.6259,-21.5707 33.5683,-29.4726 40.0364,-32.1491"/>
</g>
</g>
</svg>
