<?xml version="1.0" encoding="UTF-8" standalone="no"?>
<!DOCTYPE svg PUBLIC "-//W3C//DTD SVG 1.1//EN"
 "http://www.w3.org/Graphics/SVG/1.1/DTD/svg11.dtd">
<!-- Generated by graphviz version 2.26.3 (20100126.1600)
 -->
<!-- Title: G Pages: 1 -->
<svg width="206pt" height="110pt"
 viewBox="0.00 0.00 206.00 110.00" xmlns="http://www.w3.org/2000/svg" xmlns:xlink="http://www.w3.org/1999/xlink">
<g id="graph1" class="graph" transform="scale(1 1) rotate(0) translate(4 106)">
<title>G</title>
<polygon fill="white" stroke="white" points="-4,5 -4,-106 203,-106 203,5 -4,5"/>
<!-- Node1 -->
<g id="node1" class="node"><title>Node1</title>
<polygon fill="#bfbfbf" stroke="black" points="0,-40.5 0,-61.5 62,-61.5 62,-40.5 0,-40.5"/>
<text text-anchor="middle" x="31" y="-48.5" font-family="Helvetica,sans-Serif" font-size="10.00">toMidnight</text>
</g>
<!-- Node2 -->
<g id="node3" class="node"><title>Node2</title>
<a xlink:href="../../db/d9d/datausage_8js.html#aa596854b13e814c9701f1ee2af43e377" target="_top" xlink:title="drawMobileGraphic">
<polygon fill="white" stroke="black" points="98,-80.5 98,-101.5 198,-101.5 198,-80.5 98,-80.5"/>
<text text-anchor="middle" x="148" y="-88.5" font-family="Helvetica,sans-Serif" font-size="10.00">drawMobileGraphic</text>
</a>
</g>
<!-- Node1&#45;&gt;Node2 -->
<g id="edge2" class="edge"><title>Node1&#45;&gt;Node2</title>
<path fill="none" stroke="midnightblue" d="M71.2876,-64.7735C86.2761,-69.8978 103.036,-75.6279 117.059,-80.4218"/>
<polygon fill="midnightblue" stroke="midnightblue" points="72.3349,-61.4328 61.7404,-61.5095 70.0704,-68.0564 72.3349,-61.4328"/>
</g>
<!-- Node3 -->
<g id="node5" class="node"><title>Node3</title>
<a xlink:href="../../db/d9d/datausage_8js.html#a214e23fc4cd18bdbcc140ce47a6702ef" target="_top" xlink:title="drawWifiGraphic">
<polygon fill="white" stroke="black" points="103.5,-40.5 103.5,-61.5 192.5,-61.5 192.5,-40.5 103.5,-40.5"/>
<text text-anchor="middle" x="148" y="-48.5" font-family="Helvetica,sans-Serif" font-size="10.00">drawWifiGraphic</text>
</a>
</g>
<!-- Node1&#45;&gt;Node3 -->
<g id="edge4" class="edge"><title>Node1&#45;&gt;Node3</title>
<path fill="none" stroke="midnightblue" d="M72.1676,-51C82.1925,-51 92.9638,-51 103.15,-51"/>
<polygon fill="midnightblue" stroke="midnightblue" points="72.0467,-47.5001 62.0467,-51 72.0466,-54.5001 72.0467,-47.5001"/>
</g>
<!-- Node4 -->
<g id="node7" class="node"><title>Node4</title>
<a xlink:href="../../d1/dd8/common_8js.html#a0097700e2e811bad440a626e45b16dfc" target="_top" xlink:title="updateNextReset">
<polygon fill="white" stroke="black" points="101.5,-0.5 101.5,-21.5 194.5,-21.5 194.5,-0.5 101.5,-0.5"/>
<text text-anchor="middle" x="148" y="-8.5" font-family="Helvetica,sans-Serif" font-size="10.00">updateNextReset</text>
</a>
</g>
<!-- Node1&#45;&gt;Node4 -->
<g id="edge6" class="edge"><title>Node1&#45;&gt;Node4</title>
<path fill="none" stroke="midnightblue" d="M71.2876,-37.2265C86.2761,-32.1022 103.036,-26.3721 117.059,-21.5782"/>
<polygon fill="midnightblue" stroke="midnightblue" points="70.0704,-33.9436 61.7404,-40.4905 72.3349,-40.5672 70.0704,-33.9436"/>
</g>
</g>
</svg>
