<?xml version="1.0" encoding="UTF-8" standalone="no"?>
<!DOCTYPE svg PUBLIC "-//W3C//DTD SVG 1.1//EN"
 "http://www.w3.org/Graphics/SVG/1.1/DTD/svg11.dtd">
<!-- Generated by graphviz version 2.26.3 (20100126.1600)
 -->
<!-- Title: G Pages: 1 -->
<svg width="136pt" height="320pt"
 viewBox="0.00 0.00 136.00 320.00" xmlns="http://www.w3.org/2000/svg" xmlns:xlink="http://www.w3.org/1999/xlink">
<g id="graph1" class="graph" transform="scale(1 1) rotate(0) translate(4 316)">
<title>G</title>
<polygon fill="white" stroke="white" points="-4,5 -4,-316 133,-316 133,5 -4,5"/>
<!-- Node1 -->
<g id="node1" class="node"><title>Node1</title>
<polygon fill="#bfbfbf" stroke="black" points="25.5,-0.5 25.5,-21.5 102.5,-21.5 102.5,-0.5 25.5,-0.5"/>
<text text-anchor="middle" x="64" y="-8.5" font-family="Helvetica,sans-Serif" font-size="10.00">SkGrPixelRef</text>
</g>
<!-- Node2 -->
<g id="node2" class="node"><title>Node2</title>
<a xlink:href="../../d8/dfb/class_sk_r_o_lock_pixels_pixel_ref.html" target="_top" xlink:title="SkROLockPixelsPixelRef">
<polygon fill="white" stroke="black" points="-0.5,-58.5 -0.5,-79.5 128.5,-79.5 128.5,-58.5 -0.5,-58.5"/>
<text text-anchor="middle" x="64" y="-66.5" font-family="Helvetica,sans-Serif" font-size="10.00">SkROLockPixelsPixelRef</text>
</a>
</g>
<!-- Node2&#45;&gt;Node1 -->
<g id="edge2" class="edge"><title>Node2&#45;&gt;Node1</title>
<path fill="none" stroke="midnightblue" d="M64,-48.1906C64,-39.1684 64,-28.9941 64,-21.5707"/>
<polygon fill="midnightblue" stroke="midnightblue" points="60.5001,-48.3619 64,-58.3619 67.5001,-48.3619 60.5001,-48.3619"/>
</g>
<!-- Node3 -->
<g id="node4" class="node"><title>Node3</title>
<a xlink:href="../../df/d8b/class_sk_pixel_ref.html" target="_top" xlink:title="SkPixelRef">
<polygon fill="white" stroke="black" points="31,-116.5 31,-137.5 97,-137.5 97,-116.5 31,-116.5"/>
<text text-anchor="middle" x="64" y="-124.5" font-family="Helvetica,sans-Serif" font-size="10.00">SkPixelRef</text>
</a>
</g>
<!-- Node3&#45;&gt;Node2 -->
<g id="edge4" class="edge"><title>Node3&#45;&gt;Node2</title>
<path fill="none" stroke="midnightblue" d="M64,-106.191C64,-97.1684 64,-86.9941 64,-79.5707"/>
<polygon fill="midnightblue" stroke="midnightblue" points="60.5001,-106.362 64,-116.362 67.5001,-106.362 60.5001,-106.362"/>
</g>
<!-- Node4 -->
<g id="node6" class="node"><title>Node4</title>
<a xlink:href="../../dd/d75/class_sk_flattenable.html" target="_top" xlink:title="SkFlattenable">
<polygon fill="white" stroke="black" points="25.5,-174.5 25.5,-195.5 102.5,-195.5 102.5,-174.5 25.5,-174.5"/>
<text text-anchor="middle" x="64" y="-182.5" font-family="Helvetica,sans-Serif" font-size="10.00">SkFlattenable</text>
</a>
</g>
<!-- Node4&#45;&gt;Node3 -->
<g id="edge6" class="edge"><title>Node4&#45;&gt;Node3</title>
<path fill="none" stroke="midnightblue" d="M64,-164.191C64,-155.168 64,-144.994 64,-137.571"/>
<polygon fill="midnightblue" stroke="midnightblue" points="60.5001,-164.362 64,-174.362 67.5001,-164.362 60.5001,-164.362"/>
</g>
<!-- Node5 -->
<g id="node8" class="node"><title>Node5</title>
<a xlink:href="../../da/dec/class_sk_ref_cnt.html" target="_top" xlink:title="SkRefCnt">
<polygon fill="white" stroke="black" points="34,-232.5 34,-253.5 94,-253.5 94,-232.5 34,-232.5"/>
<text text-anchor="middle" x="64" y="-240.5" font-family="Helvetica,sans-Serif" font-size="10.00">SkRefCnt</text>
</a>
</g>
<!-- Node5&#45;&gt;Node4 -->
<g id="edge8" class="edge"><title>Node5&#45;&gt;Node4</title>
<path fill="none" stroke="midnightblue" d="M64,-222.191C64,-213.168 64,-202.994 64,-195.571"/>
<polygon fill="midnightblue" stroke="midnightblue" points="60.5001,-222.362 64,-232.362 67.5001,-222.362 60.5001,-222.362"/>
</g>
<!-- Node6 -->
<g id="node10" class="node"><title>Node6</title>
<a xlink:href="../../d2/ddd/class_sk_noncopyable.html" target="_top" xlink:title="SkNoncopyable">
<polygon fill="white" stroke="black" points="21,-290.5 21,-311.5 107,-311.5 107,-290.5 21,-290.5"/>
<text text-anchor="middle" x="64" y="-298.5" font-family="Helvetica,sans-Serif" font-size="10.00">SkNoncopyable</text>
</a>
</g>
<!-- Node6&#45;&gt;Node5 -->
<g id="edge10" class="edge"><title>Node6&#45;&gt;Node5</title>
<path fill="none" stroke="#8b1a1a" d="M64,-280.191C64,-271.168 64,-260.994 64,-253.571"/>
<polygon fill="#8b1a1a" stroke="#8b1a1a" points="60.5001,-280.362 64,-290.362 67.5001,-280.362 60.5001,-280.362"/>
</g>
</g>
</svg>
