<?xml version="1.0" encoding="UTF-8" standalone="no"?>
<!DOCTYPE svg PUBLIC "-//W3C//DTD SVG 1.1//EN"
 "http://www.w3.org/Graphics/SVG/1.1/DTD/svg11.dtd">
<!-- Generated by graphviz version 2.26.3 (20100126.1600)
 -->
<!-- Title: G Pages: 1 -->
<!--zoomable 109 -->
<svg id="main" version="1.1" xmlns="http://www.w3.org/2000/svg" xmlns:xlink="http://www.w3.org/1999/xlink" xml:space="preserve" onload="init(evt)">
        <defs>
                <circle id="rim" cx="0" cy="0" r="7"/>
                <circle id="rim2" cx="0" cy="0" r="3.5"/>
                <g id="zoomPlus">
                        <use xlink:href="#rim" fill="#404040">
                                <set attributeName="fill" to="#808080" begin="zoomplus.mouseover" end="zoomplus.mouseout"/>
                        </use>
                        <path d="M-4,0h8M0,-4v8" fill="none" stroke="white" stroke-width="1.5" pointer-events="none"/>
                </g>
                <g id="zoomMin">
                        <use xlink:href="#rim" fill="#404040">
                                <set attributeName="fill" to="#808080" begin="zoomminus.mouseover" end="zoomminus.mouseout"/>
                        </use>
                        <path d="M-4,0h8" fill="none" stroke="white" stroke-width="1.5" pointer-events="none"/>
                </g>
                <g id="dirArrow">
                        <path fill="none" stroke="white" stroke-width="1.5" d="M0,-3.0v7 M-2.5,-0.5L0,-3.0L2.5,-0.5"/>
                </g>
               <g id="resetDef">
                       <use xlink:href="#rim2" fill="#404040">
                               <set attributeName="fill" to="#808080" begin="reset.mouseover" end="reset.mouseout"/>
                       </use>
               </g>
        </defs>

<script type="text/javascript">
var viewWidth = 720;
var viewHeight = 109;
var sectionId = 'dynsection-0';
</script>
<script xlink:href="../../svgpan.js"/>
<svg id="graph" class="graph">
<g id="viewport">
<title>G</title>
<polygon fill="white" stroke="white" points="-4,5 -4,-105 717,-105 717,5 -4,5"/>
<!-- Node1 -->
<g id="node1" class="node"><title>Node1</title>
<polygon fill="#bfbfbf" stroke="black" points="0.5,-39.5 0.5,-60.5 77.5,-60.5 77.5,-39.5 0.5,-39.5"/>
<text text-anchor="middle" x="39" y="-47.5" font-family="Helvetica,sans-Serif" font-size="10.00">generatorTest</text>
</g>
<!-- Node2 -->
<g id="node3" class="node"><title>Node2</title>
<a xlink:href="../../d8/dd3/head_8js.html#ab90b20c60593469370c3ef53f868d7d8" target="_top" xlink:title="testApp">
<polygon fill="white" stroke="black" points="146,-59.5 146,-80.5 196,-80.5 196,-59.5 146,-59.5"/>
<text text-anchor="middle" x="171" y="-67.5" font-family="Helvetica,sans-Serif" font-size="10.00">testApp</text>
</a>
</g>
<!-- Node1&#45;&gt;Node2 -->
<g id="edge2" class="edge"><title>Node1&#45;&gt;Node2</title>
<path fill="none" stroke="midnightblue" d="M77.5347,-55.8386C95.9823,-58.6337 117.914,-61.9567 135.895,-64.6811"/>
<polygon fill="midnightblue" stroke="midnightblue" points="135.558,-68.1698 145.969,-66.2075 136.606,-61.2488 135.558,-68.1698"/>
</g>
<!-- Node10 -->
<g id="node19" class="node"><title>Node10</title>
<a xlink:href="../../d9/d4a/browser__dialer__call__from__contacts_8js.html#a4278a8c4fe8378c8fe3d43490788d9cb" target="_top" xlink:title="testCallFromContacts">
<polygon fill="white" stroke="black" points="114.5,-19.5 114.5,-40.5 227.5,-40.5 227.5,-19.5 114.5,-19.5"/>
<text text-anchor="middle" x="171" y="-27.5" font-family="Helvetica,sans-Serif" font-size="10.00">testCallFromContacts</text>
</a>
</g>
<!-- Node1&#45;&gt;Node10 -->
<g id="edge18" class="edge"><title>Node1&#45;&gt;Node10</title>
<path fill="none" stroke="midnightblue" d="M77.5347,-44.1614C85.8281,-42.9048 94.8257,-41.5416 103.852,-40.174"/>
<polygon fill="midnightblue" stroke="midnightblue" points="104.656,-43.5921 114.019,-38.6335 103.607,-36.6711 104.656,-43.5921"/>
</g>
<!-- Node3 -->
<g id="node5" class="node"><title>Node3</title>
<a xlink:href="../../d8/dd3/head_8js.html#a0a7282709a42b43de4d78a6d9b613284" target="_top" xlink:title="silentOK">
<polygon fill="white" stroke="black" points="264,-79.5 264,-100.5 318,-100.5 318,-79.5 264,-79.5"/>
<text text-anchor="middle" x="291" y="-87.5" font-family="Helvetica,sans-Serif" font-size="10.00">silentOK</text>
</a>
</g>
<!-- Node2&#45;&gt;Node3 -->
<g id="edge4" class="edge"><title>Node2&#45;&gt;Node3</title>
<path fill="none" stroke="midnightblue" d="M196.156,-74.1927C212.856,-76.9761 235.068,-80.6781 253.799,-83.7998"/>
<polygon fill="midnightblue" stroke="midnightblue" points="253.35,-87.2731 263.789,-85.4648 254.5,-80.3684 253.35,-87.2731"/>
</g>
<!-- Node8 -->
<g id="node15" class="node"><title>Node8</title>
<a xlink:href="../../d8/dd3/head_8js.html#a08ccbec53d45462b72eedf1db271b1a2" target="_top" xlink:title="until">
<polygon fill="white" stroke="black" points="273.5,-39.5 273.5,-60.5 308.5,-60.5 308.5,-39.5 273.5,-39.5"/>
<text text-anchor="middle" x="291" y="-47.5" font-family="Helvetica,sans-Serif" font-size="10.00">until</text>
</a>
</g>
<!-- Node2&#45;&gt;Node8 -->
<g id="edge14" class="edge"><title>Node2&#45;&gt;Node8</title>
<path fill="none" stroke="midnightblue" d="M196.156,-65.8073C215.82,-62.53 243.126,-57.979 263.391,-54.6014"/>
<polygon fill="midnightblue" stroke="midnightblue" points="263.981,-58.0516 273.269,-52.9551 262.83,-51.1468 263.981,-58.0516"/>
</g>
<!-- Node4 -->
<g id="node7" class="node"><title>Node4</title>
<a xlink:href="../../da/ded/ds-test_8js.html#a96c639e17949eb5b6031072207d80575" target="_top" xlink:title="ok">
<polygon fill="white" stroke="black" points="376.5,-0.5 376.5,-21.5 405.5,-21.5 405.5,-0.5 376.5,-0.5"/>
<text text-anchor="middle" x="391" y="-8.5" font-family="Helvetica,sans-Serif" font-size="10.00">ok</text>
</a>
</g>
<!-- Node3&#45;&gt;Node4 -->
<g id="edge6" class="edge"><title>Node3&#45;&gt;Node4</title>
<path fill="none" stroke="midnightblue" d="M306.248,-79.4794C310.193,-76.5515 314.353,-73.2731 318,-70 335.555,-54.2435 335.372,-45.4715 354,-31 358.04,-27.8614 362.64,-24.9428 367.191,-22.3587"/>
<polygon fill="midnightblue" stroke="midnightblue" points="369.063,-25.3285 376.268,-17.5613 365.792,-19.1396 369.063,-25.3285"/>
</g>
<!-- Node5 -->
<g id="node9" class="node"><title>Node5</title>
<a xlink:href="../../da/ded/ds-test_8js.html#a0c2adf7b8ccfbc4084d5ea87a964c2fb" target="_top" xlink:title="_logResult">
<polygon fill="white" stroke="black" points="464.5,-0.5 464.5,-21.5 527.5,-21.5 527.5,-0.5 464.5,-0.5"/>
<text text-anchor="middle" x="496" y="-8.5" font-family="Helvetica,sans-Serif" font-size="10.00">_logResult</text>
</a>
</g>
<!-- Node4&#45;&gt;Node5 -->
<g id="edge8" class="edge"><title>Node4&#45;&gt;Node5</title>
<path fill="none" stroke="midnightblue" d="M405.6,-11C418.106,-11 436.756,-11 453.874,-11"/>
<polygon fill="midnightblue" stroke="midnightblue" points="454.265,-14.5001 464.265,-11 454.265,-7.5001 454.265,-14.5001"/>
</g>
<!-- Node6 -->
<g id="node11" class="node"><title>Node6</title>
<a xlink:href="../../d8/dfa/init_8js.html#aad81d14d4c8eea114056d7dc1f18f9b7" target="_top" xlink:title="log">
<polygon fill="white" stroke="black" points="564.5,-0.5 564.5,-21.5 593.5,-21.5 593.5,-0.5 564.5,-0.5"/>
<text text-anchor="middle" x="579" y="-8.5" font-family="Helvetica,sans-Serif" font-size="10.00">log</text>
</a>
</g>
<!-- Node5&#45;&gt;Node6 -->
<g id="edge10" class="edge"><title>Node5&#45;&gt;Node6</title>
<path fill="none" stroke="midnightblue" d="M527.853,-11C536.626,-11 546.008,-11 554.31,-11"/>
<polygon fill="midnightblue" stroke="midnightblue" points="554.459,-14.5001 564.459,-11 554.459,-7.5001 554.459,-14.5001"/>
</g>
<!-- Node7 -->
<g id="node13" class="node"><title>Node7</title>
<a xlink:href="../../d8/dfa/init_8js.html#a2197ced104ebfb003edc6b736182910e" target="_top" xlink:title="getLoggerTime">
<polygon fill="white" stroke="black" points="630.5,-0.5 630.5,-21.5 711.5,-21.5 711.5,-0.5 630.5,-0.5"/>
<text text-anchor="middle" x="671" y="-8.5" font-family="Helvetica,sans-Serif" font-size="10.00">getLoggerTime</text>
</a>
</g>
<!-- Node6&#45;&gt;Node7 -->
<g id="edge12" class="edge"><title>Node6&#45;&gt;Node7</title>
<path fill="none" stroke="midnightblue" d="M593.781,-11C601.17,-11 610.594,-11 620.299,-11"/>
<polygon fill="midnightblue" stroke="midnightblue" points="620.442,-14.5001 630.442,-11 620.442,-7.5001 620.442,-14.5001"/>
</g>
<!-- Node9 -->
<g id="node17" class="node"><title>Node9</title>
<a xlink:href="../../d1/d5b/namespacejcconv.html#a846efc552618562a262a88978ef66841" target="_top" xlink:title="jcconv.check">
<polygon fill="white" stroke="black" points="354,-40.5 354,-61.5 428,-61.5 428,-40.5 354,-40.5"/>
<text text-anchor="middle" x="391" y="-48.5" font-family="Helvetica,sans-Serif" font-size="10.00">jcconv.check</text>
</a>
</g>
<!-- Node8&#45;&gt;Node9 -->
<g id="edge16" class="edge"><title>Node8&#45;&gt;Node9</title>
<path fill="none" stroke="midnightblue" d="M308.878,-50.1788C318.622,-50.2762 331.187,-50.4019 343.545,-50.5255"/>
<polygon fill="midnightblue" stroke="midnightblue" points="343.776,-54.0278 353.81,-50.6281 343.846,-47.0282 343.776,-54.0278"/>
</g>
<!-- Node10&#45;&gt;Node4 -->
<g id="edge22" class="edge"><title>Node10&#45;&gt;Node4</title>
<path fill="none" stroke="midnightblue" d="M227.655,-25.107C272.265,-21.2544 332.318,-16.068 365.785,-13.1777"/>
<polygon fill="midnightblue" stroke="midnightblue" points="366.392,-16.6383 376.054,-12.2908 365.79,-9.66428 366.392,-16.6383"/>
</g>
<!-- Node10&#45;&gt;Node8 -->
<g id="edge20" class="edge"><title>Node10&#45;&gt;Node8</title>
<path fill="none" stroke="midnightblue" d="M227.837,-39.4729C240.195,-41.5326 252.733,-43.6221 263.345,-45.3908"/>
<polygon fill="midnightblue" stroke="midnightblue" points="262.798,-48.8478 273.237,-47.0395 263.949,-41.9431 262.798,-48.8478"/>
</g>
</g>
</svg>
        <g id="navigator" transform="translate(0 0)" fill="#404254">
                <rect fill="#f2f5e9" fill-opacity="0.5" stroke="#606060" stroke-width=".5" x="0" y="0" width="60" height="60"/>
                <use id="zoomplus" xlink:href="#zoomPlus" x="17" y="9" onmousedown="handleZoom(evt,'in')"/>
                <use id="zoomminus" xlink:href="#zoomMin" x="42" y="9" onmousedown="handleZoom(evt,'out')"/>
                <use id="reset" xlink:href="#resetDef" x="30" y="36" onmousedown="handleReset()"/>
                <g id="arrowUp" xlink:href="#dirArrow" transform="translate(30 24)" onmousedown="handlePan(0,-1)">
                  <use xlink:href="#rim" fill="#404040">
                        <set attributeName="fill" to="#808080" begin="arrowUp.mouseover" end="arrowUp.mouseout"/>
                  </use>
                  <path fill="none" stroke="white" stroke-width="1.5" d="M0,-3.0v7 M-2.5,-0.5L0,-3.0L2.5,-0.5"/>
                </g>
                <g id="arrowRight" xlink:href="#dirArrow" transform="rotate(90) translate(36 -43)" onmousedown="handlePan(1,0)">
                  <use xlink:href="#rim" fill="#404040">
                        <set attributeName="fill" to="#808080" begin="arrowRight.mouseover" end="arrowRight.mouseout"/>
                  </use>
                  <path fill="none" stroke="white" stroke-width="1.5" d="M0,-3.0v7 M-2.5,-0.5L0,-3.0L2.5,-0.5"/>
                </g>
                <g id="arrowDown" xlink:href="#dirArrow" transform="rotate(180) translate(-30 -48)" onmousedown="handlePan(0,1)">
                  <use xlink:href="#rim" fill="#404040">
                        <set attributeName="fill" to="#808080" begin="arrowDown.mouseover" end="arrowDown.mouseout"/>
                  </use>
                  <path fill="none" stroke="white" stroke-width="1.5" d="M0,-3.0v7 M-2.5,-0.5L0,-3.0L2.5,-0.5"/>
                </g>
                <g id="arrowLeft" xlink:href="#dirArrow" transform="rotate(270) translate(-36 17)" onmousedown="handlePan(-1,0)">
                  <use xlink:href="#rim" fill="#404040">
                        <set attributeName="fill" to="#808080" begin="arrowLeft.mouseover" end="arrowLeft.mouseout"/>
                  </use>
                  <path fill="none" stroke="white" stroke-width="1.5" d="M0,-3.0v7 M-2.5,-0.5L0,-3.0L2.5,-0.5"/>
                </g>
        </g>
</svg>
