<?xml version="1.0" encoding="UTF-8" standalone="no"?>
<!DOCTYPE svg PUBLIC "-//W3C//DTD SVG 1.1//EN"
 "http://www.w3.org/Graphics/SVG/1.1/DTD/svg11.dtd">
<!-- Generated by graphviz version 2.26.3 (20100126.1600)
 -->
<!-- Title: G Pages: 1 -->
<svg width="110pt" height="106pt"
 viewBox="0.00 0.00 110.00 106.00" xmlns="http://www.w3.org/2000/svg" xmlns:xlink="http://www.w3.org/1999/xlink">
<g id="graph1" class="graph" transform="scale(1 1) rotate(0) translate(4 102)">
<title>G</title>
<polygon fill="white" stroke="white" points="-4,5 -4,-102 107,-102 107,5 -4,5"/>
<!-- Node1 -->
<g id="node1" class="node"><title>Node1</title>
<polygon fill="#bfbfbf" stroke="black" points="3.5,-2.5 3.5,-23.5 62.5,-23.5 62.5,-2.5 3.5,-2.5"/>
<text text-anchor="middle" x="33" y="-10.5" font-family="Helvetica,sans-Serif" font-size="10.00">ZZLinkStr</text>
</g>
<!-- Node1&#45;&gt;Node1 -->
<g id="edge2" class="edge"><title>Node1&#45;&gt;Node1</title>
<path fill="none" stroke="#9a32cd" stroke-dasharray="5,2" d="M72.8122,-18.9842C77.1814,-17.844 80,-15.8493 80,-13 80,-8.32422 72.4095,-5.9498 62.8325,-5.87674"/>
<polygon fill="#9a32cd" stroke="#9a32cd" points="72.3711,-15.5117 62.8325,-20.1233 73.165,-22.4665 72.3711,-15.5117"/>
<text text-anchor="middle" x="91" y="-17" font-family="Helvetica,sans-Serif" font-size="10.00"> prev</text>
<text text-anchor="middle" x="91" y="-4" font-family="Helvetica,sans-Serif" font-size="10.00">next</text>
</g>
<!-- Node2 -->
<g id="node3" class="node"><title>Node2</title>
<a xlink:href="../../dd/d2a/struct_j_a_r___item__.html" target="_top" xlink:title="JAR_Item_">
<polygon fill="white" stroke="black" points="0,-76.5 0,-97.5 66,-97.5 66,-76.5 0,-76.5"/>
<text text-anchor="middle" x="33" y="-84.5" font-family="Helvetica,sans-Serif" font-size="10.00">JAR_Item_</text>
</a>
</g>
<!-- Node2&#45;&gt;Node1 -->
<g id="edge4" class="edge"><title>Node2&#45;&gt;Node1</title>
<path fill="none" stroke="#9a32cd" stroke-dasharray="5,2" d="M33,-66.2771C33,-52.3872 33,-34.675 33,-23.5827"/>
<polygon fill="#9a32cd" stroke="#9a32cd" points="29.5001,-66.3976 33,-76.3976 36.5001,-66.3976 29.5001,-66.3976"/>
<text text-anchor="middle" x="45.5" y="-48.5" font-family="Helvetica,sans-Serif" font-size="10.00"> thing</text>
</g>
</g>
</svg>
