<?xml version="1.0" encoding="UTF-8" standalone="no"?>
<!DOCTYPE svg PUBLIC "-//W3C//DTD SVG 1.1//EN"
 "http://www.w3.org/Graphics/SVG/1.1/DTD/svg11.dtd">
<!-- Generated by graphviz version 2.26.3 (20100126.1600)
 -->
<!-- Title: G Pages: 1 -->
<!--zoomable 726 -->
<svg id="main" version="1.1" xmlns="http://www.w3.org/2000/svg" xmlns:xlink="http://www.w3.org/1999/xlink" xml:space="preserve" onload="init(evt)">
        <defs>
                <circle id="rim" cx="0" cy="0" r="7"/>
                <circle id="rim2" cx="0" cy="0" r="3.5"/>
                <g id="zoomPlus">
                        <use xlink:href="#rim" fill="#404040">
                                <set attributeName="fill" to="#808080" begin="zoomplus.mouseover" end="zoomplus.mouseout"/>
                        </use>
                        <path d="M-4,0h8M0,-4v8" fill="none" stroke="white" stroke-width="1.5" pointer-events="none"/>
                </g>
                <g id="zoomMin">
                        <use xlink:href="#rim" fill="#404040">
                                <set attributeName="fill" to="#808080" begin="zoomminus.mouseover" end="zoomminus.mouseout"/>
                        </use>
                        <path d="M-4,0h8" fill="none" stroke="white" stroke-width="1.5" pointer-events="none"/>
                </g>
                <g id="dirArrow">
                        <path fill="none" stroke="white" stroke-width="1.5" d="M0,-3.0v7 M-2.5,-0.5L0,-3.0L2.5,-0.5"/>
                </g>
               <g id="resetDef">
                       <use xlink:href="#rim2" fill="#404040">
                               <set attributeName="fill" to="#808080" begin="reset.mouseover" end="reset.mouseout"/>
                       </use>
               </g>
        </defs>

<script type="text/javascript">
var viewWidth = 1461;
var viewHeight = 726;
var sectionId = 'dynsection-0';
</script>
<script xlink:href="../../svgpan.js"/>
<svg id="graph" class="graph">
<g id="viewport">
<title>G</title>
<polygon fill="white" stroke="white" points="-4,5 -4,-722 1458,-722 1458,5 -4,5"/>
<!-- Node1 -->
<g id="node1" class="node"><title>Node1</title>
<polygon fill="#bfbfbf" stroke="black" points="-0.5,-696.5 -0.5,-717.5 450.5,-717.5 450.5,-696.5 -0.5,-696.5"/>
<text text-anchor="middle" x="225" y="-704.5" font-family="Helvetica,sans-Serif" font-size="10.00">/home/aoi/Documents/FxOS/B2G/gaia/xulrunner&#45;sdk/include/mozilla/dom/ExternalHelperAppChild.h</text>
</g>
<!-- Node2 -->
<g id="node3" class="node"><title>Node2</title>
<polygon fill="white" stroke="#bfbfbf" points="47.5,-638.5 47.5,-659.5 238.5,-659.5 238.5,-638.5 47.5,-638.5"/>
<text text-anchor="middle" x="143" y="-646.5" font-family="Helvetica,sans-Serif" font-size="10.00">mozilla/dom/PExternalHelperAppChild.h</text>
</g>
<!-- Node1&#45;&gt;Node2 -->
<g id="edge2" class="edge"><title>Node1&#45;&gt;Node2</title>
<path fill="none" stroke="midnightblue" d="M209.96,-696.362C197.707,-687.696 180.201,-675.313 166.161,-665.382"/>
<polygon fill="midnightblue" stroke="midnightblue" points="168.13,-662.488 157.945,-659.571 164.088,-668.203 168.13,-662.488"/>
</g>
<!-- Node3 -->
<g id="node5" class="node"><title>Node3</title>
<a xlink:href="../../d3/dcf/ns_i_stream_listener_8h.html" target="_top" xlink:title="nsIStreamListener.h">
<polygon fill="white" stroke="black" points="256,-638.5 256,-659.5 360,-659.5 360,-638.5 256,-638.5"/>
<text text-anchor="middle" x="308" y="-646.5" font-family="Helvetica,sans-Serif" font-size="10.00">nsIStreamListener.h</text>
</a>
</g>
<!-- Node1&#45;&gt;Node3 -->
<g id="edge4" class="edge"><title>Node1&#45;&gt;Node3</title>
<path fill="none" stroke="midnightblue" d="M240.223,-696.362C252.625,-687.696 270.346,-675.313 284.557,-665.382"/>
<polygon fill="midnightblue" stroke="midnightblue" points="286.681,-668.168 292.873,-659.571 282.671,-662.43 286.681,-668.168"/>
</g>
<!-- Node4 -->
<g id="node7" class="node"><title>Node4</title>
<a xlink:href="../../d7/dd3/ns_i_request_observer_8h.html" target="_top" xlink:title="nsIRequestObserver.h">
<polygon fill="white" stroke="black" points="250.5,-580.5 250.5,-601.5 365.5,-601.5 365.5,-580.5 250.5,-580.5"/>
<text text-anchor="middle" x="308" y="-588.5" font-family="Helvetica,sans-Serif" font-size="10.00">nsIRequestObserver.h</text>
</a>
</g>
<!-- Node3&#45;&gt;Node4 -->
<g id="edge6" class="edge"><title>Node3&#45;&gt;Node4</title>
<path fill="none" stroke="midnightblue" d="M308,-638.362C308,-630.922 308,-620.743 308,-611.728"/>
<polygon fill="midnightblue" stroke="midnightblue" points="311.5,-611.571 308,-601.571 304.5,-611.571 311.5,-611.571"/>
</g>
<!-- Node5 -->
<g id="node9" class="node"><title>Node5</title>
<a xlink:href="../../de/d5a/ns_i_supports_8h.html" target="_top" xlink:title="nsISupports.h">
<polygon fill="white" stroke="black" points="269.5,-522.5 269.5,-543.5 346.5,-543.5 346.5,-522.5 269.5,-522.5"/>
<text text-anchor="middle" x="308" y="-530.5" font-family="Helvetica,sans-Serif" font-size="10.00">nsISupports.h</text>
</a>
</g>
<!-- Node4&#45;&gt;Node5 -->
<g id="edge8" class="edge"><title>Node4&#45;&gt;Node5</title>
<path fill="none" stroke="midnightblue" d="M308,-580.362C308,-572.922 308,-562.743 308,-553.728"/>
<polygon fill="midnightblue" stroke="midnightblue" points="311.5,-553.571 308,-543.571 304.5,-553.571 311.5,-553.571"/>
</g>
<!-- Node6 -->
<g id="node11" class="node"><title>Node6</title>
<a xlink:href="../../d9/d92/nsrootidl_8h.html" target="_top" xlink:title="nsrootidl.h">
<polygon fill="white" stroke="black" points="218,-406.5 218,-427.5 280,-427.5 280,-406.5 218,-406.5"/>
<text text-anchor="middle" x="249" y="-414.5" font-family="Helvetica,sans-Serif" font-size="10.00">nsrootidl.h</text>
</a>
</g>
<!-- Node5&#45;&gt;Node6 -->
<g id="edge10" class="edge"><title>Node5&#45;&gt;Node6</title>
<path fill="none" stroke="midnightblue" d="M302.555,-522.295C292.676,-502.872 271.662,-461.556 259.094,-436.846"/>
<polygon fill="midnightblue" stroke="midnightblue" points="262.085,-435.006 254.432,-427.679 255.846,-438.179 262.085,-435.006"/>
</g>
<!-- Node22 -->
<g id="node47" class="node"><title>Node22</title>
<a xlink:href="../../de/d38/ns_i_supports_base_8h.html" target="_top" xlink:title="nsISupportsBase.h">
<polygon fill="white" stroke="black" points="359,-348.5 359,-369.5 459,-369.5 459,-348.5 359,-348.5"/>
<text text-anchor="middle" x="409" y="-356.5" font-family="Helvetica,sans-Serif" font-size="10.00">nsISupportsBase.h</text>
</a>
</g>
<!-- Node5&#45;&gt;Node22 -->
<g id="edge50" class="edge"><title>Node5&#45;&gt;Node22</title>
<path fill="none" stroke="midnightblue" d="M314.166,-522.377C330.679,-493.93 376.097,-415.684 397.525,-378.769"/>
<polygon fill="midnightblue" stroke="midnightblue" points="400.664,-380.333 402.657,-369.928 394.61,-376.819 400.664,-380.333"/>
</g>
<!-- Node24 -->
<g id="node54" class="node"><title>Node24</title>
<a xlink:href="../../d9/d4b/ns_i_supports_utils_8h.html" target="_top" xlink:title="nsISupportsUtils.h">
<polygon fill="white" stroke="black" points="438,-464.5 438,-485.5 536,-485.5 536,-464.5 438,-464.5"/>
<text text-anchor="middle" x="487" y="-472.5" font-family="Helvetica,sans-Serif" font-size="10.00">nsISupportsUtils.h</text>
</a>
</g>
<!-- Node5&#45;&gt;Node24 -->
<g id="edge60" class="edge"><title>Node5&#45;&gt;Node24</title>
<path fill="none" stroke="midnightblue" d="M340.416,-522.497C369.724,-513 413.048,-498.962 445.001,-488.609"/>
<polygon fill="midnightblue" stroke="midnightblue" points="446.089,-491.935 454.524,-485.523 443.932,-485.276 446.089,-491.935"/>
</g>
<!-- Node7 -->
<g id="node13" class="node"><title>Node7</title>
<a xlink:href="../../d3/dd8/nscore_8h.html" target="_top" xlink:title="nscore.h">
<polygon fill="white" stroke="black" points="395,-232.5 395,-253.5 449,-253.5 449,-232.5 395,-232.5"/>
<text text-anchor="middle" x="422" y="-240.5" font-family="Helvetica,sans-Serif" font-size="10.00">nscore.h</text>
</a>
</g>
<!-- Node6&#45;&gt;Node7 -->
<g id="edge12" class="edge"><title>Node6&#45;&gt;Node7</title>
<path fill="none" stroke="midnightblue" d="M252.084,-406.322C259.484,-382.432 280.402,-324.097 317,-290 336.135,-272.173 363.166,-260.286 385.01,-252.927"/>
<polygon fill="midnightblue" stroke="midnightblue" points="386.169,-256.231 394.634,-249.859 384.043,-249.561 386.169,-256.231"/>
</g>
<!-- Node8 -->
<g id="node15" class="node"><title>Node8</title>
<a xlink:href="../../d7/d2d/xpcom-config_8h.html" target="_top" xlink:title="xpcom&#45;config.h">
<polygon fill="white" stroke="black" points="162.5,-116.5 162.5,-137.5 245.5,-137.5 245.5,-116.5 162.5,-116.5"/>
<text text-anchor="middle" x="204" y="-124.5" font-family="Helvetica,sans-Serif" font-size="10.00">xpcom&#45;config.h</text>
</a>
</g>
<!-- Node7&#45;&gt;Node8 -->
<g id="edge14" class="edge"><title>Node7&#45;&gt;Node8</title>
<path fill="none" stroke="midnightblue" d="M394.726,-241.379C340.93,-237.551 224.247,-225.918 200,-196 189.178,-182.647 191.719,-162.636 196.056,-147.597"/>
<polygon fill="midnightblue" stroke="midnightblue" points="199.516,-148.286 199.367,-137.692 192.877,-146.067 199.516,-148.286"/>
</g>
<!-- Node9 -->
<g id="node17" class="node"><title>Node9</title>
<a xlink:href="../../d1/d62/mozalloc_8h.html" target="_top" xlink:title="mozilla/mozalloc.h">
<polygon fill="white" stroke="black" points="209,-174.5 209,-195.5 307,-195.5 307,-174.5 209,-174.5"/>
<text text-anchor="middle" x="258" y="-182.5" font-family="Helvetica,sans-Serif" font-size="10.00">mozilla/mozalloc.h</text>
</a>
</g>
<!-- Node7&#45;&gt;Node9 -->
<g id="edge16" class="edge"><title>Node7&#45;&gt;Node9</title>
<path fill="none" stroke="midnightblue" d="M394.919,-233.422C368.436,-224.057 327.808,-209.688 297.681,-199.033"/>
<polygon fill="midnightblue" stroke="midnightblue" points="298.496,-195.609 287.901,-195.575 296.162,-202.209 298.496,-195.609"/>
</g>
<!-- Node14 -->
<g id="node28" class="node"><title>Node14</title>
<a xlink:href="../../d1/de4/mozalloc__macro__wrappers_8h.html" target="_top" xlink:title="mozilla/mozalloc_macro_wrappers.h">
<polygon fill="white" stroke="black" points="324.5,-174.5 324.5,-195.5 499.5,-195.5 499.5,-174.5 324.5,-174.5"/>
<text text-anchor="middle" x="412" y="-182.5" font-family="Helvetica,sans-Serif" font-size="10.00">mozilla/mozalloc_macro_wrappers.h</text>
</a>
</g>
<!-- Node7&#45;&gt;Node14 -->
<g id="edge28" class="edge"><title>Node7&#45;&gt;Node14</title>
<path fill="none" stroke="midnightblue" d="M420.166,-232.362C418.869,-224.84 417.089,-214.519 415.523,-205.431"/>
<polygon fill="midnightblue" stroke="midnightblue" points="418.971,-204.831 413.823,-195.571 412.073,-206.02 418.971,-204.831"/>
</g>
<!-- Node15 -->
<g id="node30" class="node"><title>Node15</title>
<polygon fill="white" stroke="#bfbfbf" points="823,-174.5 823,-195.5 875,-195.5 875,-174.5 823,-174.5"/>
<text text-anchor="middle" x="849" y="-182.5" font-family="Helvetica,sans-Serif" font-size="10.00">stddef.h</text>
</g>
<!-- Node7&#45;&gt;Node15 -->
<g id="edge30" class="edge"><title>Node7&#45;&gt;Node15</title>
<path fill="none" stroke="midnightblue" d="M449.376,-241.466C512.143,-237.581 671.281,-225.629 812.622,-195.983"/>
<polygon fill="midnightblue" stroke="midnightblue" points="813.717,-199.328 822.767,-193.818 812.256,-192.483 813.717,-199.328"/>
</g>
<!-- Node16 -->
<g id="node32" class="node"><title>Node16</title>
<polygon fill="white" stroke="#bfbfbf" points="782.5,-116.5 782.5,-137.5 831.5,-137.5 831.5,-116.5 782.5,-116.5"/>
<text text-anchor="middle" x="807" y="-124.5" font-family="Helvetica,sans-Serif" font-size="10.00">stdint.h</text>
</g>
<!-- Node7&#45;&gt;Node16 -->
<g id="edge32" class="edge"><title>Node7&#45;&gt;Node16</title>
<path fill="none" stroke="midnightblue" d="M449.176,-237.632C487.589,-229.801 559.797,-214.18 620,-196 674.282,-179.608 735.687,-155.932 772.858,-141.011"/>
<polygon fill="midnightblue" stroke="midnightblue" points="774.257,-144.221 782.22,-137.233 771.637,-137.73 774.257,-144.221"/>
</g>
<!-- Node17 -->
<g id="node34" class="node"><title>Node17</title>
<a xlink:href="../../df/dcf/_null_ptr_8h.html" target="_top" xlink:title="mozilla/NullPtr.h">
<polygon fill="white" stroke="black" points="562.5,-58.5 562.5,-79.5 651.5,-79.5 651.5,-58.5 562.5,-58.5"/>
<text text-anchor="middle" x="607" y="-66.5" font-family="Helvetica,sans-Serif" font-size="10.00">mozilla/NullPtr.h</text>
</a>
</g>
<!-- Node7&#45;&gt;Node17 -->
<g id="edge34" class="edge"><title>Node7&#45;&gt;Node17</title>
<path fill="none" stroke="midnightblue" d="M394.637,-240.257C340.474,-234.386 221.983,-219.222 189,-196 157.267,-173.658 128.012,-144.824 154,-116 180.217,-86.922 437.036,-74.7046 551.93,-70.6641"/>
<polygon fill="midnightblue" stroke="midnightblue" points="552.39,-74.1504 562.264,-70.3093 552.15,-67.1546 552.39,-74.1504"/>
</g>
<!-- Node18 -->
<g id="node37" class="node"><title>Node18</title>
<a xlink:href="../../d8/dcf/ns_error_8h.html" target="_top" xlink:title="nsError.h">
<polygon fill="white" stroke="black" points="555,-174.5 555,-195.5 611,-195.5 611,-174.5 555,-174.5"/>
<text text-anchor="middle" x="583" y="-182.5" font-family="Helvetica,sans-Serif" font-size="10.00">nsError.h</text>
</a>
</g>
<!-- Node7&#45;&gt;Node18 -->
<g id="edge38" class="edge"><title>Node7&#45;&gt;Node18</title>
<path fill="none" stroke="midnightblue" d="M449.311,-233.161C475.669,-223.666 515.796,-209.21 545.212,-198.613"/>
<polygon fill="midnightblue" stroke="midnightblue" points="546.52,-201.862 554.741,-195.18 544.147,-195.277 546.52,-201.862"/>
</g>
<!-- Node9&#45;&gt;Node8 -->
<g id="edge22" class="edge"><title>Node9&#45;&gt;Node8</title>
<path fill="none" stroke="midnightblue" d="M248.096,-174.362C240.484,-166.186 229.792,-154.702 220.843,-145.091"/>
<polygon fill="midnightblue" stroke="midnightblue" points="223.217,-142.505 213.842,-137.571 218.094,-147.275 223.217,-142.505"/>
</g>
<!-- Node10 -->
<g id="node19" class="node"><title>Node10</title>
<polygon fill="white" stroke="#bfbfbf" points="487,-116.5 487,-137.5 535,-137.5 535,-116.5 487,-116.5"/>
<text text-anchor="middle" x="511" y="-124.5" font-family="Helvetica,sans-Serif" font-size="10.00">stdlib.h</text>
</g>
<!-- Node9&#45;&gt;Node10 -->
<g id="edge18" class="edge"><title>Node9&#45;&gt;Node10</title>
<path fill="none" stroke="midnightblue" d="M307.384,-175.117C357.944,-164.888 434.071,-149.159 477.23,-137.963"/>
<polygon fill="midnightblue" stroke="midnightblue" points="478.189,-141.329 486.944,-135.363 476.379,-134.567 478.189,-141.329"/>
</g>
<!-- Node11 -->
<g id="node21" class="node"><title>Node11</title>
<polygon fill="white" stroke="#bfbfbf" points="300.5,-116.5 300.5,-137.5 349.5,-137.5 349.5,-116.5 300.5,-116.5"/>
<text text-anchor="middle" x="325" y="-124.5" font-family="Helvetica,sans-Serif" font-size="10.00">string.h</text>
</g>
<!-- Node9&#45;&gt;Node11 -->
<g id="edge20" class="edge"><title>Node9&#45;&gt;Node11</title>
<path fill="none" stroke="midnightblue" d="M270.289,-174.362C280.017,-165.941 293.798,-154.011 305.095,-144.231"/>
<polygon fill="midnightblue" stroke="midnightblue" points="307.519,-146.762 312.789,-137.571 302.938,-141.469 307.519,-146.762"/>
</g>
<!-- Node12 -->
<g id="node24" class="node"><title>Node12</title>
<a xlink:href="../../d1/da8/_attributes_8h.html" target="_top" xlink:title="mozilla/Attributes.h">
<polygon fill="white" stroke="black" points="848.5,-58.5 848.5,-79.5 949.5,-79.5 949.5,-58.5 848.5,-58.5"/>
<text text-anchor="middle" x="899" y="-66.5" font-family="Helvetica,sans-Serif" font-size="10.00">mozilla/Attributes.h</text>
</a>
</g>
<!-- Node9&#45;&gt;Node12 -->
<g id="edge24" class="edge"><title>Node9&#45;&gt;Node12</title>
<path fill="none" stroke="midnightblue" d="M259.835,-174.452C263.18,-158.752 271.873,-129.626 292,-116 314.384,-100.846 688.673,-79.8954 838.101,-72.0917"/>
<polygon fill="midnightblue" stroke="midnightblue" points="838.659,-75.5675 848.463,-71.5528 838.295,-68.577 838.659,-75.5675"/>
</g>
<!-- Node13 -->
<g id="node26" class="node"><title>Node13</title>
<a xlink:href="../../da/da7/_compiler_8h.html" target="_top" xlink:title="mozilla/Compiler.h">
<polygon fill="white" stroke="black" points="850,-0.5 850,-21.5 948,-21.5 948,-0.5 850,-0.5"/>
<text text-anchor="middle" x="899" y="-8.5" font-family="Helvetica,sans-Serif" font-size="10.00">mozilla/Compiler.h</text>
</a>
</g>
<!-- Node12&#45;&gt;Node13 -->
<g id="edge26" class="edge"><title>Node12&#45;&gt;Node13</title>
<path fill="none" stroke="midnightblue" d="M899,-58.3619C899,-50.9219 899,-40.7427 899,-31.7276"/>
<polygon fill="midnightblue" stroke="midnightblue" points="902.5,-31.5706 899,-21.5707 895.5,-31.5707 902.5,-31.5706"/>
</g>
<!-- Node17&#45;&gt;Node13 -->
<g id="edge36" class="edge"><title>Node17&#45;&gt;Node13</title>
<path fill="none" stroke="midnightblue" d="M651.666,-60.1279C702.051,-50.1201 784.205,-33.8017 839.876,-22.7438"/>
<polygon fill="midnightblue" stroke="midnightblue" points="840.822,-26.1243 849.949,-20.743 839.459,-19.2584 840.822,-26.1243"/>
</g>
<!-- Node18&#45;&gt;Node16 -->
<g id="edge46" class="edge"><title>Node18&#45;&gt;Node16</title>
<path fill="none" stroke="midnightblue" d="M611.022,-178.848C646.591,-170.878 710.008,-156.134 772.576,-138.278"/>
<polygon fill="midnightblue" stroke="midnightblue" points="773.561,-141.637 782.201,-135.504 771.623,-134.91 773.561,-141.637"/>
</g>
<!-- Node19 -->
<g id="node39" class="node"><title>Node19</title>
<a xlink:href="../../d1/d8a/_likely_8h.html" target="_top" xlink:title="mozilla/Likely.h">
<polygon fill="white" stroke="black" points="681,-116.5 681,-137.5 765,-137.5 765,-116.5 681,-116.5"/>
<text text-anchor="middle" x="723" y="-124.5" font-family="Helvetica,sans-Serif" font-size="10.00">mozilla/Likely.h</text>
</a>
</g>
<!-- Node18&#45;&gt;Node19 -->
<g id="edge40" class="edge"><title>Node18&#45;&gt;Node19</title>
<path fill="none" stroke="midnightblue" d="M608.353,-174.497C630.613,-165.275 663.212,-151.769 687.963,-141.515"/>
<polygon fill="midnightblue" stroke="midnightblue" points="689.464,-144.682 697.363,-137.621 686.784,-138.215 689.464,-144.682"/>
</g>
<!-- Node20 -->
<g id="node41" class="node"><title>Node20</title>
<a xlink:href="../../d3/dff/_typed_enum_8h.html" target="_top" xlink:title="mozilla/TypedEnum.h">
<polygon fill="white" stroke="black" points="552.5,-116.5 552.5,-137.5 663.5,-137.5 663.5,-116.5 552.5,-116.5"/>
<text text-anchor="middle" x="608" y="-124.5" font-family="Helvetica,sans-Serif" font-size="10.00">mozilla/TypedEnum.h</text>
</a>
</g>
<!-- Node18&#45;&gt;Node20 -->
<g id="edge42" class="edge"><title>Node18&#45;&gt;Node20</title>
<path fill="none" stroke="midnightblue" d="M587.585,-174.362C590.898,-166.677 595.47,-156.069 599.448,-146.84"/>
<polygon fill="midnightblue" stroke="midnightblue" points="602.699,-148.139 603.444,-137.571 596.271,-145.368 602.699,-148.139"/>
</g>
<!-- Node21 -->
<g id="node45" class="node"><title>Node21</title>
<a xlink:href="../../d7/dda/_error_list_c_defines_8h.html" target="_top" xlink:title="ErrorListCDefines.h">
<polygon fill="white" stroke="black" points="366.5,-116.5 366.5,-137.5 469.5,-137.5 469.5,-116.5 366.5,-116.5"/>
<text text-anchor="middle" x="418" y="-124.5" font-family="Helvetica,sans-Serif" font-size="10.00">ErrorListCDefines.h</text>
</a>
</g>
<!-- Node18&#45;&gt;Node21 -->
<g id="edge48" class="edge"><title>Node18&#45;&gt;Node21</title>
<path fill="none" stroke="midnightblue" d="M554.635,-175.029C527.897,-165.63 487.574,-151.456 457.656,-140.94"/>
<polygon fill="midnightblue" stroke="midnightblue" points="458.539,-137.54 447.944,-137.526 456.217,-144.144 458.539,-137.54"/>
</g>
<!-- Node20&#45;&gt;Node12 -->
<g id="edge44" class="edge"><title>Node20&#45;&gt;Node12</title>
<path fill="none" stroke="midnightblue" d="M660.698,-116.497C710.705,-106.53 785.814,-91.5594 838.303,-81.0977"/>
<polygon fill="midnightblue" stroke="midnightblue" points="839.034,-84.5209 848.157,-79.1337 837.666,-77.6559 839.034,-84.5209"/>
</g>
<!-- Node22&#45;&gt;Node7 -->
<g id="edge52" class="edge"><title>Node22&#45;&gt;Node7</title>
<path fill="none" stroke="midnightblue" d="M406.525,-348.15C403.792,-334.479 400.243,-310.314 404,-290 405.717,-280.715 409.192,-270.894 412.634,-262.644"/>
<polygon fill="midnightblue" stroke="midnightblue" points="415.835,-264.062 416.697,-253.502 409.438,-261.219 415.835,-264.062"/>
</g>
<!-- Node23 -->
<g id="node50" class="node"><title>Node23</title>
<a xlink:href="../../d9/d0a/ns_i_d_8h.html" target="_top" xlink:title="nsID.h">
<polygon fill="white" stroke="black" points="413,-290.5 413,-311.5 459,-311.5 459,-290.5 413,-290.5"/>
<text text-anchor="middle" x="436" y="-298.5" font-family="Helvetica,sans-Serif" font-size="10.00">nsID.h</text>
</a>
</g>
<!-- Node22&#45;&gt;Node23 -->
<g id="edge54" class="edge"><title>Node22&#45;&gt;Node23</title>
<path fill="none" stroke="midnightblue" d="M413.952,-348.362C417.53,-340.677 422.468,-330.069 426.764,-320.84"/>
<polygon fill="midnightblue" stroke="midnightblue" points="430.032,-322.114 431.079,-311.571 423.686,-319.159 430.032,-322.114"/>
</g>
<!-- Node23&#45;&gt;Node7 -->
<g id="edge58" class="edge"><title>Node23&#45;&gt;Node7</title>
<path fill="none" stroke="midnightblue" d="M433.432,-290.362C431.617,-282.84 429.125,-272.519 426.932,-263.431"/>
<polygon fill="midnightblue" stroke="midnightblue" points="430.3,-262.47 424.552,-253.571 423.496,-264.113 430.3,-262.47"/>
</g>
<!-- Node23&#45;&gt;Node11 -->
<g id="edge56" class="edge"><title>Node23&#45;&gt;Node11</title>
<path fill="none" stroke="midnightblue" d="M450.197,-290.466C479.008,-267.829 539.07,-213.409 508,-174 467.46,-122.579 427.658,-153.743 359.59,-138.057"/>
<polygon fill="midnightblue" stroke="midnightblue" points="360.353,-134.64 349.795,-135.52 358.597,-141.416 360.353,-134.64"/>
</g>
<!-- Node24&#45;&gt;Node7 -->
<g id="edge62" class="edge"><title>Node24&#45;&gt;Node7</title>
<path fill="none" stroke="midnightblue" d="M461.784,-464.372C429.024,-449.008 373.274,-417.162 350,-370 330.093,-329.661 372.395,-284.214 400.217,-260.129"/>
<polygon fill="midnightblue" stroke="midnightblue" points="402.538,-262.75 407.959,-253.647 398.044,-257.383 402.538,-262.75"/>
</g>
<!-- Node24&#45;&gt;Node18 -->
<g id="edge66" class="edge"><title>Node24&#45;&gt;Node18</title>
<path fill="none" stroke="midnightblue" d="M490.531,-464.335C504.672,-421.615 557.369,-262.426 576.231,-205.447"/>
<polygon fill="midnightblue" stroke="midnightblue" points="579.617,-206.355 579.437,-195.762 572.972,-204.156 579.617,-206.355"/>
</g>
<!-- Node24&#45;&gt;Node22 -->
<g id="edge64" class="edge"><title>Node24&#45;&gt;Node22</title>
<path fill="none" stroke="midnightblue" d="M479.802,-464.295C466.626,-444.7 438.465,-402.82 421.904,-378.191"/>
<polygon fill="midnightblue" stroke="midnightblue" points="424.665,-376.025 416.181,-369.679 418.856,-379.931 424.665,-376.025"/>
</g>
<!-- Node25 -->
<g id="node59" class="node"><title>Node25</title>
<a xlink:href="../../dc/d6d/ns_debug_8h.html" target="_top" xlink:title="nsDebug.h">
<polygon fill="white" stroke="black" points="569,-348.5 569,-369.5 633,-369.5 633,-348.5 569,-348.5"/>
<text text-anchor="middle" x="601" y="-356.5" font-family="Helvetica,sans-Serif" font-size="10.00">nsDebug.h</text>
</a>
</g>
<!-- Node24&#45;&gt;Node25 -->
<g id="edge68" class="edge"><title>Node24&#45;&gt;Node25</title>
<path fill="none" stroke="midnightblue" d="M497.521,-464.295C517.117,-444.355 559.393,-401.337 583.403,-376.906"/>
<polygon fill="midnightblue" stroke="midnightblue" points="585.992,-379.265 590.505,-369.679 580.999,-374.358 585.992,-379.265"/>
</g>
<!-- Node31 -->
<g id="node80" class="node"><title>Node31</title>
<a xlink:href="../../d0/d5a/ns_i_supports_impl_8h.html" target="_top" xlink:title="nsISupportsImpl.h">
<polygon fill="white" stroke="black" points="647,-406.5 647,-427.5 743,-427.5 743,-406.5 647,-406.5"/>
<text text-anchor="middle" x="695" y="-414.5" font-family="Helvetica,sans-Serif" font-size="10.00">nsISupportsImpl.h</text>
</a>
</g>
<!-- Node24&#45;&gt;Node31 -->
<g id="edge98" class="edge"><title>Node24&#45;&gt;Node31</title>
<path fill="none" stroke="midnightblue" d="M519.327,-464.497C552.099,-454.877 603.165,-440.598 641.863,-430.209"/>
<polygon fill="midnightblue" stroke="midnightblue" points="643.16,-433.485 651.919,-427.523 641.354,-426.722 643.16,-433.485"/>
</g>
<!-- Node25&#45;&gt;Node7 -->
<g id="edge70" class="edge"><title>Node25&#45;&gt;Node7</title>
<path fill="none" stroke="midnightblue" d="M593.782,-348.263C583.289,-333.371 562.49,-306.431 539,-290 514.672,-272.983 483.283,-260.805 459.142,-253.115"/>
<polygon fill="midnightblue" stroke="midnightblue" points="459.868,-249.677 449.282,-250.093 457.817,-256.37 459.868,-249.677"/>
</g>
<!-- Node25&#45;&gt;Node18 -->
<g id="edge72" class="edge"><title>Node25&#45;&gt;Node18</title>
<path fill="none" stroke="midnightblue" d="M599.901,-348.377C596.996,-320.293 589.07,-243.673 585.193,-206.203"/>
<polygon fill="midnightblue" stroke="midnightblue" points="588.641,-205.514 584.13,-195.928 581.678,-206.235 588.641,-205.514"/>
</g>
<!-- Node25&#45;&gt;Node19 -->
<g id="edge96" class="edge"><title>Node25&#45;&gt;Node19</title>
<path fill="none" stroke="midnightblue" d="M633.032,-349.502C661.879,-340.224 701.081,-325.558 710,-312 729.54,-282.295 714.344,-267.289 710,-232 707.985,-215.631 703.015,-212.369 701,-196 699.805,-186.295 698.877,-183.544 701,-174 703.086,-164.622 707.252,-154.901 711.403,-146.75"/>
<polygon fill="midnightblue" stroke="midnightblue" points="714.613,-148.173 716.317,-137.716 708.464,-144.828 714.613,-148.173"/>
</g>
<!-- Node26 -->
<g id="node63" class="node"><title>Node26</title>
<a xlink:href="../../dd/d3a/ns_x_p_c_o_m_8h.html" target="_top" xlink:title="nsXPCOM.h">
<polygon fill="white" stroke="black" points="629,-290.5 629,-311.5 701,-311.5 701,-290.5 629,-290.5"/>
<text text-anchor="middle" x="665" y="-298.5" font-family="Helvetica,sans-Serif" font-size="10.00">nsXPCOM.h</text>
</a>
</g>
<!-- Node25&#45;&gt;Node26 -->
<g id="edge74" class="edge"><title>Node25&#45;&gt;Node26</title>
<path fill="none" stroke="midnightblue" d="M612.739,-348.362C621.941,-340.023 634.94,-328.242 645.672,-318.516"/>
<polygon fill="midnightblue" stroke="midnightblue" points="648.276,-320.879 653.336,-311.571 643.576,-315.692 648.276,-320.879"/>
</g>
<!-- Node28 -->
<g id="node68" class="node"><title>Node28</title>
<a xlink:href="../../d9/de9/_assertions_8h.html" target="_top" xlink:title="mozilla/Assertions.h">
<polygon fill="white" stroke="black" points="1034.5,-232.5 1034.5,-253.5 1139.5,-253.5 1139.5,-232.5 1034.5,-232.5"/>
<text text-anchor="middle" x="1087" y="-240.5" font-family="Helvetica,sans-Serif" font-size="10.00">mozilla/Assertions.h</text>
</a>
</g>
<!-- Node25&#45;&gt;Node28 -->
<g id="edge80" class="edge"><title>Node25&#45;&gt;Node28</title>
<path fill="none" stroke="midnightblue" d="M633.217,-350.307C636.185,-349.521 639.147,-348.742 642,-348 744.025,-321.451 769.381,-314.149 872,-290 923.992,-277.765 983.312,-264.877 1026.45,-255.698"/>
<polygon fill="midnightblue" stroke="midnightblue" points="1027.45,-259.065 1036.51,-253.564 1026,-252.217 1027.45,-259.065"/>
</g>
<!-- Node26&#45;&gt;Node7 -->
<g id="edge76" class="edge"><title>Node26&#45;&gt;Node7</title>
<path fill="none" stroke="midnightblue" d="M628.883,-292.379C583.281,-281.495 505.232,-262.866 459.148,-251.867"/>
<polygon fill="midnightblue" stroke="midnightblue" points="459.808,-248.426 449.268,-249.508 458.182,-255.235 459.808,-248.426"/>
</g>
<!-- Node27 -->
<g id="node66" class="node"><title>Node27</title>
<a xlink:href="../../d1/d66/ns_x_p_c_o_m_c_i_d_8h.html" target="_top" xlink:title="nsXPCOMCID.h">
<polygon fill="white" stroke="black" points="611,-232.5 611,-253.5 701,-253.5 701,-232.5 611,-232.5"/>
<text text-anchor="middle" x="656" y="-240.5" font-family="Helvetica,sans-Serif" font-size="10.00">nsXPCOMCID.h</text>
</a>
</g>
<!-- Node26&#45;&gt;Node27 -->
<g id="edge78" class="edge"><title>Node26&#45;&gt;Node27</title>
<path fill="none" stroke="midnightblue" d="M663.349,-290.362C662.195,-282.922 660.615,-272.743 659.216,-263.728"/>
<polygon fill="midnightblue" stroke="midnightblue" points="662.632,-262.916 657.64,-253.571 655.715,-263.989 662.632,-262.916"/>
</g>
<!-- Node28&#45;&gt;Node10 -->
<g id="edge92" class="edge"><title>Node28&#45;&gt;Node10</title>
<path fill="none" stroke="midnightblue" d="M1038.27,-232.478C1004.83,-224.454 959.841,-212.05 922,-196 904.034,-188.38 902.554,-180.049 884,-174 742.632,-127.913 694.567,-168.395 545.323,-137.882"/>
<polygon fill="midnightblue" stroke="midnightblue" points="545.852,-134.417 535.344,-135.768 544.402,-141.265 545.852,-134.417"/>
</g>
<!-- Node28&#45;&gt;Node12 -->
<g id="edge82" class="edge"><title>Node28&#45;&gt;Node12</title>
<path fill="none" stroke="midnightblue" d="M1139.66,-234.01C1183.22,-224.147 1234.58,-205.392 1212,-174 1182.16,-132.516 1042.03,-97.8802 959.735,-80.679"/>
<polygon fill="midnightblue" stroke="midnightblue" points="960.253,-77.2121 949.752,-78.6185 958.838,-84.0676 960.253,-77.2121"/>
</g>
<!-- Node28&#45;&gt;Node13 -->
<g id="edge84" class="edge"><title>Node28&#45;&gt;Node13</title>
<path fill="none" stroke="midnightblue" d="M1139.76,-237.504C1187.82,-229.978 1248.43,-212.676 1228,-174 1175.18,-74.0058 1037.56,-34.3225 958.044,-19.3817"/>
<polygon fill="midnightblue" stroke="midnightblue" points="958.635,-15.9318 948.171,-17.5976 957.39,-22.8202 958.635,-15.9318"/>
</g>
<!-- Node28&#45;&gt;Node15 -->
<g id="edge88" class="edge"><title>Node28&#45;&gt;Node15</title>
<path fill="none" stroke="midnightblue" d="M1040.48,-232.446C1000.28,-223.209 940.681,-209.236 889,-196 887.744,-195.678 886.467,-195.348 885.178,-195.011"/>
<polygon fill="midnightblue" stroke="midnightblue" points="885.779,-191.548 875.215,-192.351 883.974,-198.312 885.779,-191.548"/>
</g>
<!-- Node28&#45;&gt;Node19 -->
<g id="edge86" class="edge"><title>Node28&#45;&gt;Node19</title>
<path fill="none" stroke="midnightblue" d="M1083.31,-232.262C1077.32,-216.591 1063.89,-187.821 1042,-174 943.061,-111.527 894.956,-156.188 775.145,-138.001"/>
<polygon fill="midnightblue" stroke="midnightblue" points="775.685,-134.543 765.25,-136.381 774.554,-141.451 775.685,-134.543"/>
</g>
<!-- Node29 -->
<g id="node74" class="node"><title>Node29</title>
<polygon fill="white" stroke="#bfbfbf" points="1089,-174.5 1089,-195.5 1135,-195.5 1135,-174.5 1089,-174.5"/>
<text text-anchor="middle" x="1112" y="-182.5" font-family="Helvetica,sans-Serif" font-size="10.00">stdio.h</text>
</g>
<!-- Node28&#45;&gt;Node29 -->
<g id="edge90" class="edge"><title>Node28&#45;&gt;Node29</title>
<path fill="none" stroke="midnightblue" d="M1091.59,-232.362C1094.9,-224.677 1099.47,-214.069 1103.45,-204.84"/>
<polygon fill="midnightblue" stroke="midnightblue" points="1106.7,-206.139 1107.44,-195.571 1100.27,-203.368 1106.7,-206.139"/>
</g>
<!-- Node30 -->
<g id="node77" class="node"><title>Node30</title>
<polygon fill="white" stroke="#bfbfbf" points="1153,-174.5 1153,-195.5 1203,-195.5 1203,-174.5 1153,-174.5"/>
<text text-anchor="middle" x="1178" y="-182.5" font-family="Helvetica,sans-Serif" font-size="10.00">signal.h</text>
</g>
<!-- Node28&#45;&gt;Node30 -->
<g id="edge94" class="edge"><title>Node28&#45;&gt;Node30</title>
<path fill="none" stroke="midnightblue" d="M1103.69,-232.362C1117.42,-223.614 1137.08,-211.079 1152.74,-201.101"/>
<polygon fill="midnightblue" stroke="midnightblue" points="1154.86,-203.897 1161.42,-195.571 1151.1,-197.994 1154.86,-203.897"/>
</g>
<!-- Node31&#45;&gt;Node7 -->
<g id="edge100" class="edge"><title>Node31&#45;&gt;Node7</title>
<path fill="none" stroke="midnightblue" d="M650.446,-406.445C623.12,-398.798 588.106,-386.828 560,-370 533.474,-354.119 470.362,-291.912 439.542,-260.849"/>
<polygon fill="midnightblue" stroke="midnightblue" points="441.963,-258.32 432.444,-253.67 436.986,-263.242 441.963,-258.32"/>
</g>
<!-- Node31&#45;&gt;Node12 -->
<g id="edge138" class="edge"><title>Node31&#45;&gt;Node12</title>
<path fill="none" stroke="midnightblue" d="M743.28,-414.728C910.242,-406.239 1453,-373.098 1453,-301 1453,-301 1453,-301 1453,-185 1453,-135.039 1103.38,-91.2509 959.62,-75.3578"/>
<polygon fill="midnightblue" stroke="midnightblue" points="959.955,-71.8737 949.632,-74.262 959.191,-78.8319 959.955,-71.8737"/>
</g>
<!-- Node31&#45;&gt;Node19 -->
<g id="edge142" class="edge"><title>Node31&#45;&gt;Node19</title>
<path fill="none" stroke="midnightblue" d="M713.434,-406.467C725.749,-398.287 740.938,-385.702 748,-370 757.033,-349.917 734.954,-202.478 726.3,-147.548"/>
<polygon fill="midnightblue" stroke="midnightblue" points="729.742,-146.911 724.717,-137.584 722.829,-148.01 729.742,-146.911"/>
</g>
<!-- Node31&#45;&gt;Node22 -->
<g id="edge102" class="edge"><title>Node31&#45;&gt;Node22</title>
<path fill="none" stroke="midnightblue" d="M646.807,-407.227C597.903,-397.309 522.072,-381.931 469.233,-371.215"/>
<polygon fill="midnightblue" stroke="midnightblue" points="469.813,-367.762 459.317,-369.204 468.422,-374.622 469.813,-367.762"/>
</g>
<!-- Node31&#45;&gt;Node24 -->
<g id="edge104" class="edge"><title>Node31&#45;&gt;Node24</title>
<path fill="none" stroke="midnightblue" d="M662.606,-427.523C629.809,-437.149 578.739,-451.428 540.058,-461.812"/>
<polygon fill="midnightblue" stroke="midnightblue" points="538.766,-458.535 530.007,-464.497 540.572,-465.298 538.766,-458.535"/>
</g>
<!-- Node31&#45;&gt;Node25 -->
<g id="edge122" class="edge"><title>Node31&#45;&gt;Node25</title>
<path fill="none" stroke="midnightblue" d="M677.759,-406.362C663.448,-397.532 642.885,-384.844 626.643,-374.822"/>
<polygon fill="midnightblue" stroke="midnightblue" points="628.48,-371.843 618.132,-369.571 624.804,-377.8 628.48,-371.843"/>
</g>
<!-- Node31&#45;&gt;Node28 -->
<g id="edge140" class="edge"><title>Node31&#45;&gt;Node28</title>
<path fill="none" stroke="midnightblue" d="M743.039,-406.973C777.451,-398.995 824.499,-386.444 864,-370 940.319,-338.229 1023.15,-285.797 1062.97,-259.343"/>
<polygon fill="midnightblue" stroke="midnightblue" points="1065.1,-262.127 1071.47,-253.657 1061.21,-256.31 1065.1,-262.127"/>
</g>
<!-- Node32 -->
<g id="node85" class="node"><title>Node32</title>
<a xlink:href="../../d2/df8/prthread_8h.html" target="_top" xlink:title="prthread.h">
<polygon fill="white" stroke="black" points="795,-348.5 795,-369.5 855,-369.5 855,-348.5 795,-348.5"/>
<text text-anchor="middle" x="825" y="-356.5" font-family="Helvetica,sans-Serif" font-size="10.00">prthread.h</text>
</a>
</g>
<!-- Node31&#45;&gt;Node32 -->
<g id="edge106" class="edge"><title>Node31&#45;&gt;Node32</title>
<path fill="none" stroke="midnightblue" d="M718.542,-406.497C739.029,-397.356 768.947,-384.008 791.854,-373.788"/>
<polygon fill="midnightblue" stroke="midnightblue" points="793.488,-376.892 801.194,-369.621 790.635,-370.499 793.488,-376.892"/>
</g>
<!-- Node38 -->
<g id="node100" class="node"><title>Node38</title>
<a xlink:href="../../dc/d1c/ns_trace_refcnt_8h.html" target="_top" xlink:title="nsTraceRefcnt.h">
<polygon fill="white" stroke="black" points="650.5,-348.5 650.5,-369.5 739.5,-369.5 739.5,-348.5 650.5,-348.5"/>
<text text-anchor="middle" x="695" y="-356.5" font-family="Helvetica,sans-Serif" font-size="10.00">nsTraceRefcnt.h</text>
</a>
</g>
<!-- Node31&#45;&gt;Node38 -->
<g id="edge124" class="edge"><title>Node31&#45;&gt;Node38</title>
<path fill="none" stroke="midnightblue" d="M695,-406.362C695,-398.922 695,-388.743 695,-379.728"/>
<polygon fill="midnightblue" stroke="midnightblue" points="698.5,-379.571 695,-369.571 691.5,-379.571 698.5,-379.571"/>
</g>
<!-- Node39 -->
<g id="node103" class="node"><title>Node39</title>
<a xlink:href="../../db/d18/_atomics_8h.html" target="_top" xlink:title="mozilla/Atomics.h">
<polygon fill="white" stroke="black" points="1158.5,-290.5 1158.5,-311.5 1253.5,-311.5 1253.5,-290.5 1158.5,-290.5"/>
<text text-anchor="middle" x="1206" y="-298.5" font-family="Helvetica,sans-Serif" font-size="10.00">mozilla/Atomics.h</text>
</a>
</g>
<!-- Node31&#45;&gt;Node39 -->
<g id="edge128" class="edge"><title>Node31&#45;&gt;Node39</title>
<path fill="none" stroke="midnightblue" d="M743.09,-414.67C811.323,-410.441 939.652,-399.064 1045,-370 1093.09,-356.734 1145.65,-332.14 1177.21,-316.181"/>
<polygon fill="midnightblue" stroke="midnightblue" points="1179,-319.199 1186.3,-311.528 1175.81,-312.968 1179,-319.199"/>
</g>
<!-- Node33 -->
<g id="node87" class="node"><title>Node33</title>
<a xlink:href="../../dc/d23/prtypes_8h.html" target="_top" xlink:title="prtypes.h">
<polygon fill="white" stroke="black" points="820.5,-232.5 820.5,-253.5 877.5,-253.5 877.5,-232.5 820.5,-232.5"/>
<text text-anchor="middle" x="849" y="-240.5" font-family="Helvetica,sans-Serif" font-size="10.00">prtypes.h</text>
</a>
</g>
<!-- Node32&#45;&gt;Node33 -->
<g id="edge108" class="edge"><title>Node32&#45;&gt;Node33</title>
<path fill="none" stroke="midnightblue" d="M827.215,-348.295C831.198,-329.045 839.63,-288.289 844.757,-263.509"/>
<polygon fill="midnightblue" stroke="midnightblue" points="848.192,-264.181 846.791,-253.679 841.337,-262.763 848.192,-264.181"/>
</g>
<!-- Node37 -->
<g id="node96" class="node"><title>Node37</title>
<a xlink:href="../../d7/dc8/prinrval_8h.html" target="_top" xlink:title="prinrval.h">
<polygon fill="white" stroke="black" points="881,-290.5 881,-311.5 937,-311.5 937,-290.5 881,-290.5"/>
<text text-anchor="middle" x="909" y="-298.5" font-family="Helvetica,sans-Serif" font-size="10.00">prinrval.h</text>
</a>
</g>
<!-- Node32&#45;&gt;Node37 -->
<g id="edge118" class="edge"><title>Node32&#45;&gt;Node37</title>
<path fill="none" stroke="midnightblue" d="M840.407,-348.362C852.958,-339.696 870.892,-327.313 885.275,-317.382"/>
<polygon fill="midnightblue" stroke="midnightblue" points="887.45,-320.133 893.691,-311.571 883.473,-314.372 887.45,-320.133"/>
</g>
<!-- Node33&#45;&gt;Node15 -->
<g id="edge112" class="edge"><title>Node33&#45;&gt;Node15</title>
<path fill="none" stroke="midnightblue" d="M849,-232.362C849,-224.922 849,-214.743 849,-205.728"/>
<polygon fill="midnightblue" stroke="midnightblue" points="852.5,-205.571 849,-195.571 845.5,-205.571 852.5,-205.571"/>
</g>
<!-- Node34 -->
<g id="node89" class="node"><title>Node34</title>
<a xlink:href="../../d7/d7e/prcpucfg_8h.html" target="_top" xlink:title="prcpucfg.h">
<polygon fill="white" stroke="black" points="743,-174.5 743,-195.5 805,-195.5 805,-174.5 743,-174.5"/>
<text text-anchor="middle" x="774" y="-182.5" font-family="Helvetica,sans-Serif" font-size="10.00">prcpucfg.h</text>
</a>
</g>
<!-- Node33&#45;&gt;Node34 -->
<g id="edge110" class="edge"><title>Node33&#45;&gt;Node34</title>
<path fill="none" stroke="midnightblue" d="M835.244,-232.362C824.249,-223.859 808.627,-211.779 795.914,-201.947"/>
<polygon fill="midnightblue" stroke="midnightblue" points="797.721,-198.919 787.669,-195.571 793.438,-204.457 797.721,-198.919"/>
</g>
<!-- Node35 -->
<g id="node92" class="node"><title>Node35</title>
<a xlink:href="../../d2/de8/protypes_8h.html" target="_top" xlink:title="obsolete/protypes.h">
<polygon fill="white" stroke="black" points="931,-174.5 931,-195.5 1033,-195.5 1033,-174.5 931,-174.5"/>
<text text-anchor="middle" x="982" y="-182.5" font-family="Helvetica,sans-Serif" font-size="10.00">obsolete/protypes.h</text>
</a>
</g>
<!-- Node33&#45;&gt;Node35 -->
<g id="edge114" class="edge"><title>Node33&#45;&gt;Node35</title>
<path fill="none" stroke="midnightblue" d="M873.085,-232.497C894.139,-223.315 924.927,-209.889 948.402,-199.652"/>
<polygon fill="midnightblue" stroke="midnightblue" points="949.877,-202.827 957.644,-195.621 947.079,-196.41 949.877,-202.827"/>
</g>
<!-- Node36 -->
<g id="node94" class="node"><title>Node36</title>
<polygon fill="white" stroke="#bfbfbf" points="948,-116.5 948,-137.5 1016,-137.5 1016,-116.5 948,-116.5"/>
<text text-anchor="middle" x="982" y="-124.5" font-family="Helvetica,sans-Serif" font-size="10.00">sys/types.h</text>
</g>
<!-- Node35&#45;&gt;Node36 -->
<g id="edge116" class="edge"><title>Node35&#45;&gt;Node36</title>
<path fill="none" stroke="midnightblue" d="M982,-174.362C982,-166.922 982,-156.743 982,-147.728"/>
<polygon fill="midnightblue" stroke="midnightblue" points="985.5,-147.571 982,-137.571 978.5,-147.571 985.5,-147.571"/>
</g>
<!-- Node37&#45;&gt;Node33 -->
<g id="edge120" class="edge"><title>Node37&#45;&gt;Node33</title>
<path fill="none" stroke="midnightblue" d="M897.995,-290.362C889.453,-282.104 877.42,-270.472 867.417,-260.803"/>
<polygon fill="midnightblue" stroke="midnightblue" points="869.558,-258.004 859.935,-253.571 864.692,-263.037 869.558,-258.004"/>
</g>
<!-- Node38&#45;&gt;Node26 -->
<g id="edge126" class="edge"><title>Node38&#45;&gt;Node26</title>
<path fill="none" stroke="midnightblue" d="M689.498,-348.362C685.48,-340.595 679.919,-329.843 675.11,-320.546"/>
<polygon fill="midnightblue" stroke="midnightblue" points="678.171,-318.845 670.468,-311.571 671.953,-322.061 678.171,-318.845"/>
</g>
<!-- Node39&#45;&gt;Node16 -->
<g id="edge136" class="edge"><title>Node39&#45;&gt;Node16</title>
<path fill="none" stroke="midnightblue" d="M1210.95,-290.16C1221.18,-265.937 1241.36,-206.966 1212,-174 1199.71,-160.196 937.749,-137.621 841.81,-129.784"/>
<polygon fill="midnightblue" stroke="midnightblue" points="841.993,-126.287 831.742,-128.966 841.426,-133.264 841.993,-126.287"/>
</g>
<!-- Node39&#45;&gt;Node28 -->
<g id="edge130" class="edge"><title>Node39&#45;&gt;Node28</title>
<path fill="none" stroke="midnightblue" d="M1184.45,-290.497C1165.86,-281.438 1138.8,-268.246 1117.9,-258.063"/>
<polygon fill="midnightblue" stroke="midnightblue" points="1119.31,-254.856 1108.79,-253.621 1116.25,-261.149 1119.31,-254.856"/>
</g>
<!-- Node40 -->
<g id="node106" class="node"><title>Node40</title>
<a xlink:href="../../d4/dd5/_type_traits_8h.html" target="_top" xlink:title="mozilla/TypeTraits.h">
<polygon fill="white" stroke="black" points="1320.5,-232.5 1320.5,-253.5 1425.5,-253.5 1425.5,-232.5 1320.5,-232.5"/>
<text text-anchor="middle" x="1373" y="-240.5" font-family="Helvetica,sans-Serif" font-size="10.00">mozilla/TypeTraits.h</text>
</a>
</g>
<!-- Node39&#45;&gt;Node40 -->
<g id="edge132" class="edge"><title>Node39&#45;&gt;Node40</title>
<path fill="none" stroke="midnightblue" d="M1236.24,-290.497C1263.35,-281.082 1303.31,-267.204 1333.04,-256.877"/>
<polygon fill="midnightblue" stroke="midnightblue" points="1334.4,-260.11 1342.7,-253.523 1332.11,-253.498 1334.4,-260.11"/>
</g>
<!-- Node41 -->
<g id="node108" class="node"><title>Node41</title>
<polygon fill="white" stroke="#bfbfbf" points="1347.5,-174.5 1347.5,-195.5 1398.5,-195.5 1398.5,-174.5 1347.5,-174.5"/>
<text text-anchor="middle" x="1373" y="-182.5" font-family="Helvetica,sans-Serif" font-size="10.00">wchar.h</text>
</g>
<!-- Node40&#45;&gt;Node41 -->
<g id="edge134" class="edge"><title>Node40&#45;&gt;Node41</title>
<path fill="none" stroke="midnightblue" d="M1373,-232.362C1373,-224.922 1373,-214.743 1373,-205.728"/>
<polygon fill="midnightblue" stroke="midnightblue" points="1376.5,-205.571 1373,-195.571 1369.5,-205.571 1376.5,-205.571"/>
</g>
</g>
</svg>
        <g id="navigator" transform="translate(0 0)" fill="#404254">
                <rect fill="#f2f5e9" fill-opacity="0.5" stroke="#606060" stroke-width=".5" x="0" y="0" width="60" height="60"/>
                <use id="zoomplus" xlink:href="#zoomPlus" x="17" y="9" onmousedown="handleZoom(evt,'in')"/>
                <use id="zoomminus" xlink:href="#zoomMin" x="42" y="9" onmousedown="handleZoom(evt,'out')"/>
                <use id="reset" xlink:href="#resetDef" x="30" y="36" onmousedown="handleReset()"/>
                <g id="arrowUp" xlink:href="#dirArrow" transform="translate(30 24)" onmousedown="handlePan(0,-1)">
                  <use xlink:href="#rim" fill="#404040">
                        <set attributeName="fill" to="#808080" begin="arrowUp.mouseover" end="arrowUp.mouseout"/>
                  </use>
                  <path fill="none" stroke="white" stroke-width="1.5" d="M0,-3.0v7 M-2.5,-0.5L0,-3.0L2.5,-0.5"/>
                </g>
                <g id="arrowRight" xlink:href="#dirArrow" transform="rotate(90) translate(36 -43)" onmousedown="handlePan(1,0)">
                  <use xlink:href="#rim" fill="#404040">
                        <set attributeName="fill" to="#808080" begin="arrowRight.mouseover" end="arrowRight.mouseout"/>
                  </use>
                  <path fill="none" stroke="white" stroke-width="1.5" d="M0,-3.0v7 M-2.5,-0.5L0,-3.0L2.5,-0.5"/>
                </g>
                <g id="arrowDown" xlink:href="#dirArrow" transform="rotate(180) translate(-30 -48)" onmousedown="handlePan(0,1)">
                  <use xlink:href="#rim" fill="#404040">
                        <set attributeName="fill" to="#808080" begin="arrowDown.mouseover" end="arrowDown.mouseout"/>
                  </use>
                  <path fill="none" stroke="white" stroke-width="1.5" d="M0,-3.0v7 M-2.5,-0.5L0,-3.0L2.5,-0.5"/>
                </g>
                <g id="arrowLeft" xlink:href="#dirArrow" transform="rotate(270) translate(-36 17)" onmousedown="handlePan(-1,0)">
                  <use xlink:href="#rim" fill="#404040">
                        <set attributeName="fill" to="#808080" begin="arrowLeft.mouseover" end="arrowLeft.mouseout"/>
                  </use>
                  <path fill="none" stroke="white" stroke-width="1.5" d="M0,-3.0v7 M-2.5,-0.5L0,-3.0L2.5,-0.5"/>
                </g>
        </g>
</svg>
