<?xml version="1.0" encoding="UTF-8" standalone="no"?>
<!DOCTYPE svg PUBLIC "-//W3C//DTD SVG 1.1//EN"
 "http://www.w3.org/Graphics/SVG/1.1/DTD/svg11.dtd">
<!-- Generated by graphviz version 2.26.3 (20100126.1600)
 -->
<!-- Title: G Pages: 1 -->
<svg width="260pt" height="70pt"
 viewBox="0.00 0.00 260.00 70.00" xmlns="http://www.w3.org/2000/svg" xmlns:xlink="http://www.w3.org/1999/xlink">
<g id="graph1" class="graph" transform="scale(1 1) rotate(0) translate(4 66)">
<title>G</title>
<polygon fill="white" stroke="white" points="-4,5 -4,-66 257,-66 257,5 -4,5"/>
<!-- Node1 -->
<g id="node1" class="node"><title>Node1</title>
<a xlink:href="d3/d20/classjs_1_1_rooted_base.html" target="_top" xlink:title="js::RootedBase\&lt; T \&gt;">
<polygon fill="white" stroke="black" points="0,-20.5 0,-41.5 108,-41.5 108,-20.5 0,-20.5"/>
<text text-anchor="middle" x="54" y="-28.5" font-family="Helvetica,sans-Serif" font-size="10.00">js::RootedBase&lt; T &gt;</text>
</a>
</g>
<!-- Node2 -->
<g id="node3" class="node"><title>Node2</title>
<a xlink:href="dd/d95/classjs_1_1_fake_rooted.html" target="_top" xlink:title="js::FakeRooted\&lt; T \&gt;">
<polygon fill="white" stroke="black" points="144.5,-40.5 144.5,-61.5 251.5,-61.5 251.5,-40.5 144.5,-40.5"/>
<text text-anchor="middle" x="198" y="-48.5" font-family="Helvetica,sans-Serif" font-size="10.00">js::FakeRooted&lt; T &gt;</text>
</a>
</g>
<!-- Node1&#45;&gt;Node2 -->
<g id="edge2" class="edge"><title>Node1&#45;&gt;Node2</title>
<path fill="none" stroke="midnightblue" d="M118.128,-39.9067C126.818,-41.1136 135.662,-42.3419 144.146,-43.5203"/>
<polygon fill="midnightblue" stroke="midnightblue" points="118.416,-36.4132 108.03,-38.5042 117.453,-43.3467 118.416,-36.4132"/>
</g>
<!-- Node3 -->
<g id="node5" class="node"><title>Node3</title>
<a xlink:href="db/d76/class_j_s_1_1_rooted.html" target="_top" xlink:title="JS::Rooted\&lt; T \&gt;">
<polygon fill="white" stroke="black" points="153,-0.5 153,-21.5 243,-21.5 243,-0.5 153,-0.5"/>
<text text-anchor="middle" x="198" y="-8.5" font-family="Helvetica,sans-Serif" font-size="10.00">JS::Rooted&lt; T &gt;</text>
</a>
</g>
<!-- Node1&#45;&gt;Node3 -->
<g id="edge4" class="edge"><title>Node1&#45;&gt;Node3</title>
<path fill="none" stroke="midnightblue" d="M118.144,-22.0911C129.769,-20.4766 141.67,-18.8236 152.617,-17.3032"/>
<polygon fill="midnightblue" stroke="midnightblue" points="117.453,-18.6533 108.03,-23.4958 118.416,-25.5868 117.453,-18.6533"/>
</g>
</g>
</svg>
