<?xml version="1.0" encoding="UTF-8" standalone="no"?>
<!DOCTYPE svg PUBLIC "-//W3C//DTD SVG 1.1//EN"
 "http://www.w3.org/Graphics/SVG/1.1/DTD/svg11.dtd">
<!-- Generated by graphviz version 2.26.3 (20100126.1600)
 -->
<!-- Title: G Pages: 1 -->
<svg width="344pt" height="70pt"
 viewBox="0.00 0.00 344.00 70.00" xmlns="http://www.w3.org/2000/svg" xmlns:xlink="http://www.w3.org/1999/xlink">
<g id="graph1" class="graph" transform="scale(1 1) rotate(0) translate(4 66)">
<title>G</title>
<polygon fill="white" stroke="white" points="-4,5 -4,-66 341,-66 341,5 -4,5"/>
<!-- Node1 -->
<g id="node1" class="node"><title>Node1</title>
<a xlink:href="df/de6/classns_layout_utils_1_1_rect_callback.html" target="_top" xlink:title="nsLayoutUtils::RectCallback">
<polygon fill="white" stroke="black" points="0,-20.5 0,-41.5 142,-41.5 142,-20.5 0,-20.5"/>
<text text-anchor="middle" x="71" y="-28.5" font-family="Helvetica,sans-Serif" font-size="10.00">nsLayoutUtils::RectCallback</text>
</a>
</g>
<!-- Node2 -->
<g id="node3" class="node"><title>Node2</title>
<a xlink:href="d9/d3a/structns_layout_utils_1_1_rect_accumulator.html" target="_top" xlink:title="nsLayoutUtils::RectAccumulator">
<polygon fill="white" stroke="black" points="178,-40.5 178,-61.5 336,-61.5 336,-40.5 178,-40.5"/>
<text text-anchor="middle" x="257" y="-48.5" font-family="Helvetica,sans-Serif" font-size="10.00">nsLayoutUtils::RectAccumulator</text>
</a>
</g>
<!-- Node1&#45;&gt;Node2 -->
<g id="edge2" class="edge"><title>Node1&#45;&gt;Node2</title>
<path fill="none" stroke="midnightblue" d="M152.078,-39.718C160.633,-40.638 169.326,-41.5727 177.859,-42.4902"/>
<polygon fill="midnightblue" stroke="midnightblue" points="152.432,-36.236 142.115,-38.6468 151.683,-43.1959 152.432,-36.236"/>
</g>
<!-- Node3 -->
<g id="node5" class="node"><title>Node3</title>
<a xlink:href="d2/d44/structns_layout_utils_1_1_rect_list_builder.html" target="_top" xlink:title="nsLayoutUtils::RectListBuilder">
<polygon fill="white" stroke="black" points="182.5,-0.5 182.5,-21.5 331.5,-21.5 331.5,-0.5 182.5,-0.5"/>
<text text-anchor="middle" x="257" y="-8.5" font-family="Helvetica,sans-Serif" font-size="10.00">nsLayoutUtils::RectListBuilder</text>
</a>
</g>
<!-- Node1&#45;&gt;Node3 -->
<g id="edge4" class="edge"><title>Node1&#45;&gt;Node3</title>
<path fill="none" stroke="midnightblue" d="M152.058,-22.2841C162.082,-21.2063 172.294,-20.1082 182.218,-19.0411"/>
<polygon fill="midnightblue" stroke="midnightblue" points="151.683,-18.8041 142.115,-23.3532 152.432,-25.764 151.683,-18.8041"/>
</g>
</g>
</svg>
