<?xml version="1.0" encoding="UTF-8" standalone="no"?>
<!DOCTYPE svg PUBLIC "-//W3C//DTD SVG 1.1//EN"
 "http://www.w3.org/Graphics/SVG/1.1/DTD/svg11.dtd">
<!-- Generated by graphviz version 2.26.3 (20100126.1600)
 -->
<!-- Title: G Pages: 1 -->
<svg width="634pt" height="30pt"
 viewBox="0.00 0.00 634.00 30.00" xmlns="http://www.w3.org/2000/svg" xmlns:xlink="http://www.w3.org/1999/xlink">
<g id="graph1" class="graph" transform="scale(1 1) rotate(0) translate(4 26)">
<title>G</title>
<polygon fill="white" stroke="white" points="-4,5 -4,-26 631,-26 631,5 -4,5"/>
<!-- Node1 -->
<g id="node1" class="node"><title>Node1</title>
<a xlink:href="df/dd5/classjs_1_1_value_operations.html" target="_top" xlink:title="js::ValueOperations\&lt; Outer \&gt;">
<polygon fill="white" stroke="black" points="0,-0.5 0,-21.5 144,-21.5 144,-0.5 0,-0.5"/>
<text text-anchor="middle" x="72" y="-8.5" font-family="Helvetica,sans-Serif" font-size="10.00">js::ValueOperations&lt; Outer &gt;</text>
</a>
</g>
<!-- Node2 -->
<g id="node3" class="node"><title>Node2</title>
<a xlink:href="d7/da1/classjs_1_1_unbarriered_mutable_value_operations.html" target="_top" xlink:title="js::UnbarrieredMutableValueOperations\&lt; Outer \&gt;">
<polygon fill="white" stroke="black" points="180.5,-0.5 180.5,-21.5 409.5,-21.5 409.5,-0.5 180.5,-0.5"/>
<text text-anchor="middle" x="295" y="-8.5" font-family="Helvetica,sans-Serif" font-size="10.00">js::UnbarrieredMutableValueOperations&lt; Outer &gt;</text>
</a>
</g>
<!-- Node1&#45;&gt;Node2 -->
<g id="edge2" class="edge"><title>Node1&#45;&gt;Node2</title>
<path fill="none" stroke="midnightblue" d="M154.284,-11C162.749,-11 171.455,-11 180.189,-11"/>
<polygon fill="midnightblue" stroke="midnightblue" points="154.094,-7.5001 144.094,-11 154.094,-14.5001 154.094,-7.5001"/>
</g>
<!-- Node3 -->
<g id="node5" class="node"><title>Node3</title>
<a xlink:href="d6/d45/classjs_1_1_mutable_value_operations.html" target="_top" xlink:title="js::MutableValueOperations\&lt; Outer \&gt;">
<polygon fill="white" stroke="black" points="446.5,-0.5 446.5,-21.5 625.5,-21.5 625.5,-0.5 446.5,-0.5"/>
<text text-anchor="middle" x="536" y="-8.5" font-family="Helvetica,sans-Serif" font-size="10.00">js::MutableValueOperations&lt; Outer &gt;</text>
</a>
</g>
<!-- Node2&#45;&gt;Node3 -->
<g id="edge4" class="edge"><title>Node2&#45;&gt;Node3</title>
<path fill="none" stroke="midnightblue" d="M419.671,-11C428.677,-11 437.651,-11 446.393,-11"/>
<polygon fill="midnightblue" stroke="midnightblue" points="419.501,-7.5001 409.501,-11 419.501,-14.5001 419.501,-7.5001"/>
</g>
</g>
</svg>
