<?xml version="1.0" encoding="UTF-8" standalone="no"?>
<!DOCTYPE svg PUBLIC "-//W3C//DTD SVG 1.1//EN"
 "http://www.w3.org/Graphics/SVG/1.1/DTD/svg11.dtd">
<!-- Generated by graphviz version 2.26.3 (20100126.1600)
 -->
<!-- Title: G Pages: 1 -->
<svg width="358pt" height="150pt"
 viewBox="0.00 0.00 358.00 150.00" xmlns="http://www.w3.org/2000/svg" xmlns:xlink="http://www.w3.org/1999/xlink">
<g id="graph1" class="graph" transform="scale(1 1) rotate(0) translate(4 146)">
<title>G</title>
<polygon fill="white" stroke="white" points="-4,5 -4,-146 355,-146 355,5 -4,5"/>
<!-- Node1 -->
<g id="node1" class="node"><title>Node1</title>
<a xlink:href="d2/dd4/classmozilla_1_1plugins_1_1_a_stream.html" target="_top" xlink:title="mozilla::plugins::AStream">
<polygon fill="white" stroke="black" points="0,-60.5 0,-81.5 128,-81.5 128,-60.5 0,-60.5"/>
<text text-anchor="middle" x="64" y="-68.5" font-family="Helvetica,sans-Serif" font-size="10.00">mozilla::plugins::AStream</text>
</a>
</g>
<!-- Node2 -->
<g id="node3" class="node"><title>Node2</title>
<a xlink:href="d4/dc7/classmozilla_1_1plugins_1_1_browser_stream_child.html" target="_top" xlink:title="mozilla::plugins::BrowserStreamChild">
<polygon fill="white" stroke="black" points="167,-120.5 167,-141.5 347,-141.5 347,-120.5 167,-120.5"/>
<text text-anchor="middle" x="257" y="-128.5" font-family="Helvetica,sans-Serif" font-size="10.00">mozilla::plugins::BrowserStreamChild</text>
</a>
</g>
<!-- Node1&#45;&gt;Node2 -->
<g id="edge2" class="edge"><title>Node1&#45;&gt;Node2</title>
<path fill="none" stroke="midnightblue" d="M96.3012,-85.534C115.649,-93.8307 140.898,-103.951 164,-111 175.689,-114.567 188.391,-117.743 200.544,-120.456"/>
<polygon fill="midnightblue" stroke="midnightblue" points="97.6056,-82.2847 87.0393,-81.5086 94.8154,-88.7046 97.6056,-82.2847"/>
</g>
<!-- Node3 -->
<g id="node5" class="node"><title>Node3</title>
<a xlink:href="d3/dd2/classmozilla_1_1plugins_1_1_browser_stream_parent.html" target="_top" xlink:title="mozilla::plugins::BrowserStreamParent">
<polygon fill="white" stroke="black" points="164,-80.5 164,-101.5 350,-101.5 350,-80.5 164,-80.5"/>
<text text-anchor="middle" x="257" y="-88.5" font-family="Helvetica,sans-Serif" font-size="10.00">mozilla::plugins::BrowserStreamParent</text>
</a>
</g>
<!-- Node1&#45;&gt;Node3 -->
<g id="edge4" class="edge"><title>Node1&#45;&gt;Node3</title>
<path fill="none" stroke="midnightblue" d="M138.308,-78.7003C146.65,-79.5648 155.226,-80.4535 163.768,-81.3387"/>
<polygon fill="midnightblue" stroke="midnightblue" points="138.574,-75.2092 128.266,-77.6597 137.852,-82.1719 138.574,-75.2092"/>
</g>
<!-- Node4 -->
<g id="node7" class="node"><title>Node4</title>
<a xlink:href="d9/d9c/classmozilla_1_1plugins_1_1_plugin_stream_child.html" target="_top" xlink:title="mozilla::plugins::PluginStreamChild">
<polygon fill="white" stroke="black" points="171.5,-40.5 171.5,-61.5 342.5,-61.5 342.5,-40.5 171.5,-40.5"/>
<text text-anchor="middle" x="257" y="-48.5" font-family="Helvetica,sans-Serif" font-size="10.00">mozilla::plugins::PluginStreamChild</text>
</a>
</g>
<!-- Node1&#45;&gt;Node4 -->
<g id="edge6" class="edge"><title>Node1&#45;&gt;Node4</title>
<path fill="none" stroke="midnightblue" d="M138.461,-63.2838C149.238,-62.167 160.403,-61.0101 171.377,-59.8728"/>
<polygon fill="midnightblue" stroke="midnightblue" points="137.852,-59.8281 128.266,-64.3403 138.574,-66.7908 137.852,-59.8281"/>
</g>
<!-- Node5 -->
<g id="node9" class="node"><title>Node5</title>
<a xlink:href="d3/d7a/classmozilla_1_1plugins_1_1_plugin_stream_parent.html" target="_top" xlink:title="mozilla::plugins::PluginStreamParent">
<polygon fill="white" stroke="black" points="168.5,-0.5 168.5,-21.5 345.5,-21.5 345.5,-0.5 168.5,-0.5"/>
<text text-anchor="middle" x="257" y="-8.5" font-family="Helvetica,sans-Serif" font-size="10.00">mozilla::plugins::PluginStreamParent</text>
</a>
</g>
<!-- Node1&#45;&gt;Node5 -->
<g id="edge8" class="edge"><title>Node1&#45;&gt;Node5</title>
<path fill="none" stroke="midnightblue" d="M96.3012,-56.466C115.649,-48.1693 140.898,-38.0495 164,-31 175.689,-27.4332 188.391,-24.2573 200.544,-21.5444"/>
<polygon fill="midnightblue" stroke="midnightblue" points="94.8154,-53.2954 87.0393,-60.4914 97.6056,-59.7153 94.8154,-53.2954"/>
</g>
</g>
</svg>
