<?xml version="1.0" encoding="UTF-8" standalone="no"?>
<!DOCTYPE svg PUBLIC "-//W3C//DTD SVG 1.1//EN"
 "http://www.w3.org/Graphics/SVG/1.1/DTD/svg11.dtd">
<!-- Generated by graphviz version 2.26.3 (20100126.1600)
 -->
<!-- Title: G Pages: 1 -->
<svg width="838pt" height="30pt"
 viewBox="0.00 0.00 838.00 30.00" xmlns="http://www.w3.org/2000/svg" xmlns:xlink="http://www.w3.org/1999/xlink">
<g id="graph1" class="graph" transform="scale(1 1) rotate(0) translate(4 26)">
<title>G</title>
<polygon fill="white" stroke="white" points="-4,5 -4,-26 835,-26 835,5 -4,5"/>
<!-- Node1 -->
<g id="node1" class="node"><title>Node1</title>
<a xlink:href="df/d3c/classmozilla_1_1detail_1_1_ref_counted.html" target="_top" xlink:title="mozilla::detail::RefCounted\&lt; PathSink, detail::NonAtomicRefCount \&gt;">
<polygon fill="white" stroke="black" points="0.5,-0.5 0.5,-21.5 319.5,-21.5 319.5,-0.5 0.5,-0.5"/>
<text text-anchor="middle" x="160" y="-8.5" font-family="Helvetica,sans-Serif" font-size="10.00">mozilla::detail::RefCounted&lt; PathSink, detail::NonAtomicRefCount &gt;</text>
</a>
</g>
<!-- Node2 -->
<g id="node3" class="node"><title>Node2</title>
<a xlink:href="d2/de4/classmozilla_1_1_ref_counted.html" target="_top" xlink:title="mozilla::RefCounted\&lt; PathSink \&gt;">
<polygon fill="white" stroke="black" points="356,-0.5 356,-21.5 520,-21.5 520,-0.5 356,-0.5"/>
<text text-anchor="middle" x="438" y="-8.5" font-family="Helvetica,sans-Serif" font-size="10.00">mozilla::RefCounted&lt; PathSink &gt;</text>
</a>
</g>
<!-- Node1&#45;&gt;Node2 -->
<g id="edge2" class="edge"><title>Node1&#45;&gt;Node2</title>
<path fill="none" stroke="midnightblue" d="M329.865,-11C338.808,-11 347.571,-11 355.997,-11"/>
<polygon fill="midnightblue" stroke="midnightblue" points="329.7,-7.5001 319.7,-11 329.7,-14.5001 329.7,-7.5001"/>
</g>
<!-- Node3 -->
<g id="node5" class="node"><title>Node3</title>
<a xlink:href="d5/d0f/classmozilla_1_1gfx_1_1_path_sink.html" target="_top" xlink:title="mozilla::gfx::PathSink">
<polygon fill="white" stroke="black" points="556.5,-0.5 556.5,-21.5 669.5,-21.5 669.5,-0.5 556.5,-0.5"/>
<text text-anchor="middle" x="613" y="-8.5" font-family="Helvetica,sans-Serif" font-size="10.00">mozilla::gfx::PathSink</text>
</a>
</g>
<!-- Node2&#45;&gt;Node3 -->
<g id="edge4" class="edge"><title>Node2&#45;&gt;Node3</title>
<path fill="none" stroke="midnightblue" d="M530.185,-11C539.092,-11 547.935,-11 556.342,-11"/>
<polygon fill="midnightblue" stroke="midnightblue" points="530.12,-7.5001 520.12,-11 530.12,-14.5001 530.12,-7.5001"/>
</g>
<!-- Node4 -->
<g id="node7" class="node"><title>Node4</title>
<a xlink:href="db/d52/classmozilla_1_1gfx_1_1_path_builder.html" target="_top" xlink:title="mozilla::gfx::PathBuilder">
<polygon fill="white" stroke="black" points="706.5,-0.5 706.5,-21.5 829.5,-21.5 829.5,-0.5 706.5,-0.5"/>
<text text-anchor="middle" x="768" y="-8.5" font-family="Helvetica,sans-Serif" font-size="10.00">mozilla::gfx::PathBuilder</text>
</a>
</g>
<!-- Node3&#45;&gt;Node4 -->
<g id="edge6" class="edge"><title>Node3&#45;&gt;Node4</title>
<path fill="none" stroke="midnightblue" d="M680.036,-11C688.819,-11 697.786,-11 706.472,-11"/>
<polygon fill="midnightblue" stroke="midnightblue" points="679.836,-7.5001 669.836,-11 679.836,-14.5001 679.836,-7.5001"/>
</g>
</g>
</svg>
