<?xml version="1.0" encoding="UTF-8" standalone="no"?>
<!DOCTYPE svg PUBLIC "-//W3C//DTD SVG 1.1//EN"
 "http://www.w3.org/Graphics/SVG/1.1/DTD/svg11.dtd">
<!-- Generated by graphviz version 2.26.3 (20100126.1600)
 -->
<!-- Title: G Pages: 1 -->
<svg width="274pt" height="110pt"
 viewBox="0.00 0.00 274.00 110.00" xmlns="http://www.w3.org/2000/svg" xmlns:xlink="http://www.w3.org/1999/xlink">
<g id="graph1" class="graph" transform="scale(1 1) rotate(0) translate(4 106)">
<title>G</title>
<polygon fill="white" stroke="white" points="-4,5 -4,-106 271,-106 271,5 -4,5"/>
<!-- Node1 -->
<g id="node1" class="node"><title>Node1</title>
<a xlink:href="d3/d93/classmozilla_1_1_input_data.html" target="_top" xlink:title="mozilla::InputData">
<polygon fill="white" stroke="black" points="0,-40.5 0,-61.5 96,-61.5 96,-40.5 0,-40.5"/>
<text text-anchor="middle" x="48" y="-48.5" font-family="Helvetica,sans-Serif" font-size="10.00">mozilla::InputData</text>
</a>
</g>
<!-- Node2 -->
<g id="node3" class="node"><title>Node2</title>
<a xlink:href="db/d6d/classmozilla_1_1_multi_touch_input.html" target="_top" xlink:title="mozilla::MultiTouchInput">
<polygon fill="white" stroke="black" points="137.5,-80.5 137.5,-101.5 260.5,-101.5 260.5,-80.5 137.5,-80.5"/>
<text text-anchor="middle" x="199" y="-88.5" font-family="Helvetica,sans-Serif" font-size="10.00">mozilla::MultiTouchInput</text>
</a>
</g>
<!-- Node1&#45;&gt;Node2 -->
<g id="edge2" class="edge"><title>Node1&#45;&gt;Node2</title>
<path fill="none" stroke="midnightblue" d="M97.5611,-64.1288C117.602,-69.4375 140.418,-75.4816 159.33,-80.4913"/>
<polygon fill="midnightblue" stroke="midnightblue" points="98.2363,-60.687 87.6735,-61.5095 96.4438,-67.4536 98.2363,-60.687"/>
</g>
<!-- Node3 -->
<g id="node5" class="node"><title>Node3</title>
<a xlink:href="d7/d75/classmozilla_1_1_pinch_gesture_input.html" target="_top" xlink:title="mozilla::PinchGestureInput">
<polygon fill="white" stroke="black" points="132,-40.5 132,-61.5 266,-61.5 266,-40.5 132,-40.5"/>
<text text-anchor="middle" x="199" y="-48.5" font-family="Helvetica,sans-Serif" font-size="10.00">mozilla::PinchGestureInput</text>
</a>
</g>
<!-- Node1&#45;&gt;Node3 -->
<g id="edge4" class="edge"><title>Node1&#45;&gt;Node3</title>
<path fill="none" stroke="midnightblue" d="M106.283,-51C114.702,-51 123.423,-51 131.996,-51"/>
<polygon fill="midnightblue" stroke="midnightblue" points="106.193,-47.5001 96.1925,-51 106.192,-54.5001 106.193,-47.5001"/>
</g>
<!-- Node4 -->
<g id="node7" class="node"><title>Node4</title>
<a xlink:href="df/da1/classmozilla_1_1_tap_gesture_input.html" target="_top" xlink:title="mozilla::TapGestureInput">
<polygon fill="white" stroke="black" points="136,-0.5 136,-21.5 262,-21.5 262,-0.5 136,-0.5"/>
<text text-anchor="middle" x="199" y="-8.5" font-family="Helvetica,sans-Serif" font-size="10.00">mozilla::TapGestureInput</text>
</a>
</g>
<!-- Node1&#45;&gt;Node4 -->
<g id="edge6" class="edge"><title>Node1&#45;&gt;Node4</title>
<path fill="none" stroke="midnightblue" d="M97.5611,-37.8712C117.602,-32.5625 140.418,-26.5184 159.33,-21.5087"/>
<polygon fill="midnightblue" stroke="midnightblue" points="96.4438,-34.5464 87.6735,-40.4905 98.2363,-41.313 96.4438,-34.5464"/>
</g>
</g>
</svg>
