<?xml version="1.0" encoding="UTF-8" standalone="no"?>
<!DOCTYPE svg PUBLIC "-//W3C//DTD SVG 1.1//EN"
 "http://www.w3.org/Graphics/SVG/1.1/DTD/svg11.dtd">
<!-- Generated by graphviz version 2.26.3 (20100126.1600)
 -->
<!-- Title: G Pages: 1 -->
<svg width="874pt" height="230pt"
 viewBox="0.00 0.00 874.00 230.00" xmlns="http://www.w3.org/2000/svg" xmlns:xlink="http://www.w3.org/1999/xlink">
<g id="graph1" class="graph" transform="scale(1 1) rotate(0) translate(4 226)">
<title>G</title>
<polygon fill="white" stroke="white" points="-4,5 -4,-226 871,-226 871,5 -4,5"/>
<!-- Node1 -->
<g id="node1" class="node"><title>Node1</title>
<a xlink:href="dd/d26/classmozilla_1_1layers_1_1_i_surface_allocator.html" target="_top" xlink:title="mozilla::layers::ISurfaceAllocator">
<polygon fill="white" stroke="black" points="0.5,-140.5 0.5,-161.5 161.5,-161.5 161.5,-140.5 0.5,-140.5"/>
<text text-anchor="middle" x="81" y="-148.5" font-family="Helvetica,sans-Serif" font-size="10.00">mozilla::layers::ISurfaceAllocator</text>
</a>
</g>
<!-- Node2 -->
<g id="node3" class="node"><title>Node2</title>
<a xlink:href="d8/da3/classmozilla_1_1layers_1_1_compositable_forwarder.html" target="_top" xlink:title="mozilla::layers::CompositableForwarder">
<polygon fill="white" stroke="black" points="209.5,-160.5 209.5,-181.5 398.5,-181.5 398.5,-160.5 209.5,-160.5"/>
<text text-anchor="middle" x="304" y="-168.5" font-family="Helvetica,sans-Serif" font-size="10.00">mozilla::layers::CompositableForwarder</text>
</a>
</g>
<!-- Node1&#45;&gt;Node2 -->
<g id="edge2" class="edge"><title>Node1&#45;&gt;Node2</title>
<path fill="none" stroke="midnightblue" d="M171.77,-159.141C184.102,-160.247 196.785,-161.384 209.185,-162.496"/>
<polygon fill="midnightblue" stroke="midnightblue" points="171.781,-155.628 161.508,-158.22 171.155,-162.6 171.781,-155.628"/>
</g>
<!-- Node6 -->
<g id="node11" class="node"><title>Node6</title>
<a xlink:href="d3/d89/classmozilla_1_1layers_1_1_compositable_parent_manager.html" target="_top" xlink:title="mozilla::layers::CompositableParentManager">
<polygon fill="white" stroke="black" points="198,-120.5 198,-141.5 410,-141.5 410,-120.5 198,-120.5"/>
<text text-anchor="middle" x="304" y="-128.5" font-family="Helvetica,sans-Serif" font-size="10.00">mozilla::layers::CompositableParentManager</text>
</a>
</g>
<!-- Node1&#45;&gt;Node6 -->
<g id="edge10" class="edge"><title>Node1&#45;&gt;Node6</title>
<path fill="none" stroke="midnightblue" d="M171.615,-142.873C180.305,-142.094 189.171,-141.299 197.99,-140.508"/>
<polygon fill="midnightblue" stroke="midnightblue" points="171.155,-139.4 161.508,-143.78 171.781,-146.372 171.155,-139.4"/>
</g>
<!-- Node3 -->
<g id="node5" class="node"><title>Node3</title>
<a xlink:href="d7/d40/classmozilla_1_1layers_1_1_image_bridge_child.html" target="_top" xlink:title="mozilla::layers::ImageBridgeChild">
<polygon fill="white" stroke="black" points="459.5,-200.5 459.5,-221.5 622.5,-221.5 622.5,-200.5 459.5,-200.5"/>
<text text-anchor="middle" x="541" y="-208.5" font-family="Helvetica,sans-Serif" font-size="10.00">mozilla::layers::ImageBridgeChild</text>
</a>
</g>
<!-- Node2&#45;&gt;Node3 -->
<g id="edge4" class="edge"><title>Node2&#45;&gt;Node3</title>
<path fill="none" stroke="midnightblue" d="M376.235,-183.192C408.969,-188.716 447.291,-195.184 478.736,-200.491"/>
<polygon fill="midnightblue" stroke="midnightblue" points="376.712,-179.723 366.269,-181.51 375.547,-186.625 376.712,-179.723"/>
</g>
<!-- Node4 -->
<g id="node7" class="node"><title>Node4</title>
<a xlink:href="d5/d64/classmozilla_1_1layers_1_1_shadow_layer_forwarder.html" target="_top" xlink:title="mozilla::layers::ShadowLayerForwarder">
<polygon fill="white" stroke="black" points="447,-160.5 447,-181.5 635,-181.5 635,-160.5 447,-160.5"/>
<text text-anchor="middle" x="541" y="-168.5" font-family="Helvetica,sans-Serif" font-size="10.00">mozilla::layers::ShadowLayerForwarder</text>
</a>
</g>
<!-- Node2&#45;&gt;Node4 -->
<g id="edge6" class="edge"><title>Node2&#45;&gt;Node4</title>
<path fill="none" stroke="midnightblue" d="M408.794,-171C421.463,-171 434.344,-171 446.847,-171"/>
<polygon fill="midnightblue" stroke="midnightblue" points="408.69,-167.5 398.69,-171 408.69,-174.5 408.69,-167.5"/>
</g>
<!-- Node5 -->
<g id="node9" class="node"><title>Node5</title>
<a xlink:href="de/ddc/classmozilla_1_1layers_1_1_client_layer_manager.html" target="_top" xlink:title="mozilla::layers::ClientLayerManager">
<polygon fill="white" stroke="black" points="682.5,-140.5 682.5,-161.5 855.5,-161.5 855.5,-140.5 682.5,-140.5"/>
<text text-anchor="middle" x="769" y="-148.5" font-family="Helvetica,sans-Serif" font-size="10.00">mozilla::layers::ClientLayerManager</text>
</a>
</g>
<!-- Node4&#45;&gt;Node5 -->
<g id="edge8" class="edge"><title>Node4&#45;&gt;Node5</title>
<path fill="none" stroke="midnightblue" d="M645.047,-161.873C657.566,-160.775 670.246,-159.663 682.478,-158.59"/>
<polygon fill="midnightblue" stroke="midnightblue" points="644.709,-158.389 635.053,-162.75 645.32,-165.362 644.709,-158.389"/>
</g>
<!-- Node7 -->
<g id="node13" class="node"><title>Node7</title>
<a xlink:href="dc/df4/classmozilla_1_1layers_1_1_image_bridge_parent.html" target="_top" xlink:title="mozilla::layers::ImageBridgeParent">
<polygon fill="white" stroke="black" points="456.5,-120.5 456.5,-141.5 625.5,-141.5 625.5,-120.5 456.5,-120.5"/>
<text text-anchor="middle" x="541" y="-128.5" font-family="Helvetica,sans-Serif" font-size="10.00">mozilla::layers::ImageBridgeParent</text>
</a>
</g>
<!-- Node6&#45;&gt;Node7 -->
<g id="edge12" class="edge"><title>Node6&#45;&gt;Node7</title>
<path fill="none" stroke="midnightblue" d="M420.244,-131C432.434,-131 444.656,-131 456.394,-131"/>
<polygon fill="midnightblue" stroke="midnightblue" points="420.023,-127.5 410.023,-131 420.023,-134.5 420.023,-127.5"/>
</g>
<!-- Node8 -->
<g id="node15" class="node"><title>Node8</title>
<a xlink:href="dc/deb/classmozilla_1_1layers_1_1_layer_transaction_parent.html" target="_top" xlink:title="mozilla::layers::LayerTransactionParent">
<polygon fill="white" stroke="black" points="446.5,-80.5 446.5,-101.5 635.5,-101.5 635.5,-80.5 446.5,-80.5"/>
<text text-anchor="middle" x="541" y="-88.5" font-family="Helvetica,sans-Serif" font-size="10.00">mozilla::layers::LayerTransactionParent</text>
</a>
</g>
<!-- Node6&#45;&gt;Node8 -->
<g id="edge14" class="edge"><title>Node6&#45;&gt;Node8</title>
<path fill="none" stroke="midnightblue" d="M376.235,-118.808C408.969,-113.284 447.291,-106.816 478.736,-101.509"/>
<polygon fill="midnightblue" stroke="midnightblue" points="375.547,-115.375 366.269,-120.49 376.712,-122.277 375.547,-115.375"/>
</g>
<!-- Node9 -->
<g id="node16" class="node"><title>Node9</title>
<a xlink:href="d1/d01/classmozilla_1_1layers_1_1_layer_manager.html" target="_top" xlink:title="mozilla::layers::LayerManager">
<polygon fill="white" stroke="black" points="467.5,-40.5 467.5,-61.5 614.5,-61.5 614.5,-40.5 467.5,-40.5"/>
<text text-anchor="middle" x="541" y="-48.5" font-family="Helvetica,sans-Serif" font-size="10.00">mozilla::layers::LayerManager</text>
</a>
</g>
<!-- Node9&#45;&gt;Node5 -->
<g id="edge18" class="edge"><title>Node9&#45;&gt;Node5</title>
<path fill="none" stroke="midnightblue" d="M624.392,-65.2633C628.409,-66.9657 632.303,-68.87 636,-71 656.723,-82.941 652.459,-97.2093 672,-111 690.455,-124.024 713.79,-133.816 732.947,-140.451"/>
<polygon fill="midnightblue" stroke="midnightblue" points="625.424,-61.9116 614.833,-61.6461 622.947,-68.4586 625.424,-61.9116"/>
</g>
<!-- Node10 -->
<g id="node18" class="node"><title>Node10</title>
<a xlink:href="d1/d4e/classmozilla_1_1layers_1_1_basic_layer_manager.html" target="_top" xlink:title="mozilla::layers::BasicLayerManager">
<polygon fill="white" stroke="black" points="683,-80.5 683,-101.5 855,-101.5 855,-80.5 683,-80.5"/>
<text text-anchor="middle" x="769" y="-88.5" font-family="Helvetica,sans-Serif" font-size="10.00">mozilla::layers::BasicLayerManager</text>
</a>
</g>
<!-- Node9&#45;&gt;Node10 -->
<g id="edge16" class="edge"><title>Node9&#45;&gt;Node10</title>
<path fill="none" stroke="midnightblue" d="M610.899,-63.263C642.301,-68.7721 678.98,-75.2071 709.1,-80.4913"/>
<polygon fill="midnightblue" stroke="midnightblue" points="611.359,-59.7903 600.904,-61.5095 610.149,-66.685 611.359,-59.7903"/>
</g>
<!-- Node11 -->
<g id="node21" class="node"><title>Node11</title>
<a xlink:href="da/d0a/classmozilla_1_1layers_1_1_layer_manager_composite.html" target="_top" xlink:title="mozilla::layers::LayerManagerComposite">
<polygon fill="white" stroke="black" points="672,-40.5 672,-61.5 866,-61.5 866,-40.5 672,-40.5"/>
<text text-anchor="middle" x="769" y="-48.5" font-family="Helvetica,sans-Serif" font-size="10.00">mozilla::layers::LayerManagerComposite</text>
</a>
</g>
<!-- Node9&#45;&gt;Node11 -->
<g id="edge20" class="edge"><title>Node9&#45;&gt;Node11</title>
<path fill="none" stroke="midnightblue" d="M625.107,-51C640.323,-51 656.303,-51 671.855,-51"/>
<polygon fill="midnightblue" stroke="midnightblue" points="624.71,-47.5001 614.71,-51 624.71,-54.5001 624.71,-47.5001"/>
</g>
<!-- Node12 -->
<g id="node23" class="node"><title>Node12</title>
<a xlink:href="d3/d03/classmozilla_1_1layers_1_1_layer_manager_o_g_l.html" target="_top" xlink:title="mozilla::layers::LayerManagerOGL">
<polygon fill="white" stroke="black" points="685.5,-0.5 685.5,-21.5 852.5,-21.5 852.5,-0.5 685.5,-0.5"/>
<text text-anchor="middle" x="769" y="-8.5" font-family="Helvetica,sans-Serif" font-size="10.00">mozilla::layers::LayerManagerOGL</text>
</a>
</g>
<!-- Node9&#45;&gt;Node12 -->
<g id="edge22" class="edge"><title>Node9&#45;&gt;Node12</title>
<path fill="none" stroke="midnightblue" d="M610.899,-38.737C642.301,-33.2279 678.98,-26.7929 709.1,-21.5087"/>
<polygon fill="midnightblue" stroke="midnightblue" points="610.149,-35.315 600.904,-40.4905 611.359,-42.2097 610.149,-35.315"/>
</g>
</g>
</svg>
