<?xml version="1.0" encoding="UTF-8" standalone="no"?>
<!DOCTYPE svg PUBLIC "-//W3C//DTD SVG 1.1//EN"
 "http://www.w3.org/Graphics/SVG/1.1/DTD/svg11.dtd">
<!-- Generated by graphviz version 2.26.3 (20100126.1600)
 -->
<!-- Title: G Pages: 1 -->
<svg width="1500pt" height="70pt"
 viewBox="0.00 0.00 1500.00 70.00" xmlns="http://www.w3.org/2000/svg" xmlns:xlink="http://www.w3.org/1999/xlink">
<g id="graph1" class="graph" transform="scale(1 1) rotate(0) translate(4 66)">
<title>G</title>
<polygon fill="white" stroke="white" points="-4,5 -4,-66 1497,-66 1497,5 -4,5"/>
<!-- Node1 -->
<g id="node1" class="node"><title>Node1</title>
<a xlink:href="df/d8b/structmozilla_1_1ipc_1_1_has_result_codes.html" target="_top" xlink:title="mozilla::ipc::HasResultCodes">
<polygon fill="white" stroke="black" points="614.5,-40.5 614.5,-61.5 761.5,-61.5 761.5,-40.5 614.5,-40.5"/>
<text text-anchor="middle" x="688" y="-48.5" font-family="Helvetica,sans-Serif" font-size="10.00">mozilla::ipc::HasResultCodes</text>
</a>
</g>
<!-- Node2 -->
<g id="node3" class="node"><title>Node2</title>
<a xlink:href="d6/d7e/classmozilla_1_1ipc_1_1_async_channel.html" target="_top" xlink:title="mozilla::ipc::AsyncChannel">
<polygon fill="white" stroke="black" points="864,-40.5 864,-61.5 1000,-61.5 1000,-40.5 864,-40.5"/>
<text text-anchor="middle" x="932" y="-48.5" font-family="Helvetica,sans-Serif" font-size="10.00">mozilla::ipc::AsyncChannel</text>
</a>
</g>
<!-- Node1&#45;&gt;Node2 -->
<g id="edge2" class="edge"><title>Node1&#45;&gt;Node2</title>
<path fill="none" stroke="darkgreen" d="M771.572,-51C801.581,-51 835.046,-51 863.615,-51"/>
<polygon fill="darkgreen" stroke="darkgreen" points="771.539,-47.5001 761.539,-51 771.539,-54.5001 771.539,-47.5001"/>
</g>
<!-- Node5 -->
<g id="node9" class="node"><title>Node5</title>
<a xlink:href="d5/d27/classmozilla_1_1ipc_1_1_async_channel_1_1_async_listener.html" target="_top" xlink:title="mozilla::ipc::AsyncChannel::AsyncListener">
<polygon fill="white" stroke="black" points="830,-0.5 830,-21.5 1034,-21.5 1034,-0.5 830,-0.5"/>
<text text-anchor="middle" x="932" y="-8.5" font-family="Helvetica,sans-Serif" font-size="10.00">mozilla::ipc::AsyncChannel::AsyncListener</text>
</a>
</g>
<!-- Node1&#45;&gt;Node5 -->
<g id="edge8" class="edge"><title>Node1&#45;&gt;Node5</title>
<path fill="none" stroke="darkgreen" d="M762.368,-38.8085C796.07,-33.2837 835.524,-26.8158 867.897,-21.5087"/>
<polygon fill="darkgreen" stroke="darkgreen" points="761.41,-35.4187 752.108,-40.4905 762.543,-42.3265 761.41,-35.4187"/>
</g>
<!-- Node3 -->
<g id="node5" class="node"><title>Node3</title>
<a xlink:href="d9/d6b/classmozilla_1_1ipc_1_1_sync_channel.html" target="_top" xlink:title="mozilla::ipc::SyncChannel">
<polygon fill="white" stroke="black" points="1101.5,-40.5 1101.5,-61.5 1232.5,-61.5 1232.5,-40.5 1101.5,-40.5"/>
<text text-anchor="middle" x="1167" y="-48.5" font-family="Helvetica,sans-Serif" font-size="10.00">mozilla::ipc::SyncChannel</text>
</a>
</g>
<!-- Node2&#45;&gt;Node3 -->
<g id="edge4" class="edge"><title>Node2&#45;&gt;Node3</title>
<path fill="none" stroke="midnightblue" d="M1010.55,-51C1040.02,-51 1073.19,-51 1101.37,-51"/>
<polygon fill="midnightblue" stroke="midnightblue" points="1010.29,-47.5001 1000.29,-51 1010.29,-54.5001 1010.29,-47.5001"/>
</g>
<!-- Node4 -->
<g id="node7" class="node"><title>Node4</title>
<a xlink:href="de/d20/classmozilla_1_1ipc_1_1_r_p_c_channel.html" target="_top" xlink:title="mozilla::ipc::RPCChannel">
<polygon fill="white" stroke="black" points="1331,-40.5 1331,-61.5 1461,-61.5 1461,-40.5 1331,-40.5"/>
<text text-anchor="middle" x="1396" y="-48.5" font-family="Helvetica,sans-Serif" font-size="10.00">mozilla::ipc::RPCChannel</text>
</a>
</g>
<!-- Node3&#45;&gt;Node4 -->
<g id="edge6" class="edge"><title>Node3&#45;&gt;Node4</title>
<path fill="none" stroke="midnightblue" d="M1242.92,-51C1271.35,-51 1303.38,-51 1330.76,-51"/>
<polygon fill="midnightblue" stroke="midnightblue" points="1242.62,-47.5001 1232.62,-51 1242.62,-54.5001 1242.62,-47.5001"/>
</g>
<!-- Node6 -->
<g id="node11" class="node"><title>Node6</title>
<a xlink:href="df/df2/classmozilla_1_1ipc_1_1_sync_channel_1_1_sync_listener.html" target="_top" xlink:title="mozilla::ipc::SyncChannel::SyncListener">
<polygon fill="white" stroke="black" points="1070,-0.5 1070,-21.5 1264,-21.5 1264,-0.5 1070,-0.5"/>
<text text-anchor="middle" x="1167" y="-8.5" font-family="Helvetica,sans-Serif" font-size="10.00">mozilla::ipc::SyncChannel::SyncListener</text>
</a>
</g>
<!-- Node5&#45;&gt;Node6 -->
<g id="edge10" class="edge"><title>Node5&#45;&gt;Node6</title>
<path fill="none" stroke="midnightblue" d="M1044.12,-11C1052.73,-11 1061.37,-11 1069.87,-11"/>
<polygon fill="midnightblue" stroke="midnightblue" points="1044.05,-7.5001 1034.05,-11 1044.05,-14.5001 1044.05,-7.5001"/>
</g>
<!-- Node7 -->
<g id="node13" class="node"><title>Node7</title>
<a xlink:href="df/df1/classmozilla_1_1ipc_1_1_r_p_c_channel_1_1_r_p_c_listener.html" target="_top" xlink:title="mozilla::ipc::RPCChannel::RPCListener">
<polygon fill="white" stroke="black" points="1300,-0.5 1300,-21.5 1492,-21.5 1492,-0.5 1300,-0.5"/>
<text text-anchor="middle" x="1396" y="-8.5" font-family="Helvetica,sans-Serif" font-size="10.00">mozilla::ipc::RPCChannel::RPCListener</text>
</a>
</g>
<!-- Node6&#45;&gt;Node7 -->
<g id="edge12" class="edge"><title>Node6&#45;&gt;Node7</title>
<path fill="none" stroke="midnightblue" d="M1274.14,-11C1282.71,-11 1291.34,-11 1299.83,-11"/>
<polygon fill="midnightblue" stroke="midnightblue" points="1274.12,-7.5001 1264.12,-11 1274.12,-14.5001 1274.12,-7.5001"/>
</g>
<!-- Node8 -->
<g id="node14" class="node"><title>Node8</title>
<a xlink:href="de/da4/classmozilla_1_1_supports_weak_ptr_base.html" target="_top" xlink:title="mozilla::SupportsWeakPtrBase\&lt; AsyncListener, detail::WeakReference\&lt; AsyncListener, detail::NonAtomicRefCount \&gt; \&gt;">
<polygon fill="white" stroke="black" points="0.5,-0.5 0.5,-21.5 545.5,-21.5 545.5,-0.5 0.5,-0.5"/>
<text text-anchor="middle" x="273" y="-8.5" font-family="Helvetica,sans-Serif" font-size="10.00">mozilla::SupportsWeakPtrBase&lt; AsyncListener, detail::WeakReference&lt; AsyncListener, detail::NonAtomicRefCount &gt; &gt;</text>
</a>
</g>
<!-- Node9 -->
<g id="node16" class="node"><title>Node9</title>
<a xlink:href="d1/d9d/classmozilla_1_1_supports_weak_ptr.html" target="_top" xlink:title="mozilla::SupportsWeakPtr\&lt; AsyncListener \&gt;">
<polygon fill="white" stroke="black" points="582.5,-0.5 582.5,-21.5 793.5,-21.5 793.5,-0.5 582.5,-0.5"/>
<text text-anchor="middle" x="688" y="-8.5" font-family="Helvetica,sans-Serif" font-size="10.00">mozilla::SupportsWeakPtr&lt; AsyncListener &gt;</text>
</a>
</g>
<!-- Node8&#45;&gt;Node9 -->
<g id="edge14" class="edge"><title>Node8&#45;&gt;Node9</title>
<path fill="none" stroke="midnightblue" d="M556.043,-11C565.071,-11 573.878,-11 582.382,-11"/>
<polygon fill="midnightblue" stroke="midnightblue" points="555.761,-7.5001 545.761,-11 555.761,-14.5001 555.761,-7.5001"/>
</g>
<!-- Node9&#45;&gt;Node5 -->
<g id="edge16" class="edge"><title>Node9&#45;&gt;Node5</title>
<path fill="none" stroke="midnightblue" d="M803.75,-11C812.419,-11 821.13,-11 829.708,-11"/>
<polygon fill="midnightblue" stroke="midnightblue" points="803.603,-7.5001 793.603,-11 803.603,-14.5001 803.603,-7.5001"/>
</g>
</g>
</svg>
