<?xml version="1.0" encoding="UTF-8" standalone="no"?>
<!DOCTYPE svg PUBLIC "-//W3C//DTD SVG 1.1//EN"
 "http://www.w3.org/Graphics/SVG/1.1/DTD/svg11.dtd">
<!-- Generated by graphviz version 2.26.3 (20100126.1600)
 -->
<!-- Title: G Pages: 1 -->
<!--zoomable 101 -->
<svg id="main" version="1.1" xmlns="http://www.w3.org/2000/svg" xmlns:xlink="http://www.w3.org/1999/xlink" xml:space="preserve" onload="init(evt)">
        <defs>
                <circle id="rim" cx="0" cy="0" r="7"/>
                <circle id="rim2" cx="0" cy="0" r="3.5"/>
                <g id="zoomPlus">
                        <use xlink:href="#rim" fill="#404040">
                                <set attributeName="fill" to="#808080" begin="zoomplus.mouseover" end="zoomplus.mouseout"/>
                        </use>
                        <path d="M-4,0h8M0,-4v8" fill="none" stroke="white" stroke-width="1.5" pointer-events="none"/>
                </g>
                <g id="zoomMin">
                        <use xlink:href="#rim" fill="#404040">
                                <set attributeName="fill" to="#808080" begin="zoomminus.mouseover" end="zoomminus.mouseout"/>
                        </use>
                        <path d="M-4,0h8" fill="none" stroke="white" stroke-width="1.5" pointer-events="none"/>
                </g>
                <g id="dirArrow">
                        <path fill="none" stroke="white" stroke-width="1.5" d="M0,-3.0v7 M-2.5,-0.5L0,-3.0L2.5,-0.5"/>
                </g>
               <g id="resetDef">
                       <use xlink:href="#rim2" fill="#404040">
                               <set attributeName="fill" to="#808080" begin="reset.mouseover" end="reset.mouseout"/>
                       </use>
               </g>
        </defs>

<script type="text/javascript">
var viewWidth = 1580;
var viewHeight = 101;
var sectionId = 'dynsection-0';
</script>
<script xlink:href="../../svgpan.js"/>
<svg id="graph" class="graph">
<g id="viewport">
<title>G</title>
<polygon fill="white" stroke="white" points="-4,5 -4,-97 1577,-97 1577,5 -4,5"/>
<!-- Node1 -->
<g id="node1" class="node"><title>Node1</title>
<polygon fill="#bfbfbf" stroke="black" points="1456,-21.5 1456,-42.5 1572,-42.5 1572,-21.5 1456,-21.5"/>
<text text-anchor="middle" x="1514" y="-29.5" font-family="Helvetica,sans-Serif" font-size="10.00">mozilla::SVGStringList</text>
</g>
<!-- Node2 -->
<g id="node2" class="node"><title>Node2</title>
<a xlink:href="../../d3/d8f/class_fallible_t_array.html" target="_top" xlink:title="FallibleTArray\&lt; nsString \&gt;">
<polygon fill="white" stroke="black" points="1244.5,-21.5 1244.5,-42.5 1375.5,-42.5 1375.5,-21.5 1244.5,-21.5"/>
<text text-anchor="middle" x="1310" y="-29.5" font-family="Helvetica,sans-Serif" font-size="10.00">FallibleTArray&lt; nsString &gt;</text>
</a>
</g>
<!-- Node2&#45;&gt;Node1 -->
<g id="edge2" class="edge"><title>Node2&#45;&gt;Node1</title>
<path fill="none" stroke="#9a32cd" stroke-dasharray="5,2" d="M1385.78,-32C1408.89,-32 1433.92,-32 1455.68,-32"/>
<polygon fill="#9a32cd" stroke="#9a32cd" points="1385.67,-28.5001 1375.67,-32 1385.67,-35.5001 1385.67,-28.5001"/>
<text text-anchor="middle" x="1416" y="-36" font-family="Helvetica,sans-Serif" font-size="10.00"> mStrings</text>
</g>
<!-- Node3 -->
<g id="node4" class="node"><title>Node3</title>
<a xlink:href="../../d4/dd8/classns_t_array___impl.html" target="_top" xlink:title="nsTArray_Impl\&lt; nsString, nsTArrayFallibleAllocator \&gt;">
<polygon fill="white" stroke="black" points="956.5,-21.5 956.5,-42.5 1205.5,-42.5 1205.5,-21.5 956.5,-21.5"/>
<text text-anchor="middle" x="1081" y="-29.5" font-family="Helvetica,sans-Serif" font-size="10.00">nsTArray_Impl&lt; nsString, nsTArrayFallibleAllocator &gt;</text>
</a>
</g>
<!-- Node3&#45;&gt;Node2 -->
<g id="edge4" class="edge"><title>Node3&#45;&gt;Node2</title>
<path fill="none" stroke="midnightblue" d="M1215.81,-32C1225.59,-32 1235.17,-32 1244.24,-32"/>
<polygon fill="midnightblue" stroke="midnightblue" points="1215.55,-28.5001 1205.55,-32 1215.55,-35.5001 1215.55,-28.5001"/>
</g>
<!-- Node4 -->
<g id="node6" class="node"><title>Node4</title>
<a xlink:href="../../db/d9f/classns_t_array__base.html" target="_top" xlink:title="nsTArray_base\&lt; nsTArrayFallibleAllocator, nsTArray_CopyElements\&lt; nsString \&gt; \&gt;">
<polygon fill="white" stroke="black" points="526.5,-40.5 526.5,-61.5 905.5,-61.5 905.5,-40.5 526.5,-40.5"/>
<text text-anchor="middle" x="716" y="-48.5" font-family="Helvetica,sans-Serif" font-size="10.00">nsTArray_base&lt; nsTArrayFallibleAllocator, nsTArray_CopyElements&lt; nsString &gt; &gt;</text>
</a>
</g>
<!-- Node4&#45;&gt;Node3 -->
<g id="edge6" class="edge"><title>Node4&#45;&gt;Node3</title>
<path fill="none" stroke="midnightblue" d="M915.761,-40.6015C929.529,-39.8848 943.166,-39.1749 956.352,-38.4885"/>
<polygon fill="midnightblue" stroke="midnightblue" points="915.521,-37.1091 905.716,-41.1244 915.885,-44.0997 915.521,-37.1091"/>
</g>
<!-- Node5 -->
<g id="node8" class="node"><title>Node5</title>
<a xlink:href="../../dc/d5a/structns_t_array_header.html" target="_top" xlink:title="nsTArrayHeader">
<polygon fill="white" stroke="black" points="181,-40.5 181,-61.5 269,-61.5 269,-40.5 181,-40.5"/>
<text text-anchor="middle" x="225" y="-48.5" font-family="Helvetica,sans-Serif" font-size="10.00">nsTArrayHeader</text>
</a>
</g>
<!-- Node5&#45;&gt;Node4 -->
<g id="edge8" class="edge"><title>Node5&#45;&gt;Node4</title>
<path fill="none" stroke="#9a32cd" stroke-dasharray="5,2" d="M279.291,-51C338.818,-51 437.681,-51 526.301,-51"/>
<polygon fill="#9a32cd" stroke="#9a32cd" points="279.005,-47.5001 269.005,-51 279.005,-54.5001 279.005,-47.5001"/>
<text text-anchor="middle" x="482" y="-55" font-family="Helvetica,sans-Serif" font-size="10.00"> mHdr</text>
</g>
<!-- Node5&#45;&gt;Node5 -->
<g id="edge10" class="edge"><title>Node5&#45;&gt;Node5</title>
<path fill="none" stroke="#9a32cd" stroke-dasharray="5,2" d="M177.114,-68.2318C175.476,-74.6831 191.438,-80 225,-80 269.75,-80 283.21,-70.5478 265.38,-61.5571"/>
<polygon fill="#9a32cd" stroke="#9a32cd" points="179.473,-70.8179 184.62,-61.5571 174.822,-65.587 179.473,-70.8179"/>
<text text-anchor="middle" x="225" y="-84" font-family="Helvetica,sans-Serif" font-size="10.00"> sEmptyHdr</text>
</g>
<!-- Node6 -->
<g id="node11" class="node"><title>Node6</title>
<a xlink:href="../../d7/dcf/structns_t_array___typed_base.html" target="_top" xlink:title="nsTArray_TypedBase\&lt; nsString, nsTArray_Impl\&lt; nsString, nsTArrayFallibleAllocator \&gt; \&gt;">
<polygon fill="white" stroke="black" points="514,-0.5 514,-21.5 918,-21.5 918,-0.5 514,-0.5"/>
<text text-anchor="middle" x="716" y="-8.5" font-family="Helvetica,sans-Serif" font-size="10.00">nsTArray_TypedBase&lt; nsString, nsTArray_Impl&lt; nsString, nsTArrayFallibleAllocator &gt; &gt;</text>
</a>
</g>
<!-- Node6&#45;&gt;Node3 -->
<g id="edge12" class="edge"><title>Node6&#45;&gt;Node3</title>
<path fill="none" stroke="midnightblue" d="M908.815,-22.0935C924.938,-23.0211 940.952,-23.9425 956.354,-24.8286"/>
<polygon fill="midnightblue" stroke="midnightblue" points="908.952,-18.5956 898.767,-21.5154 908.55,-25.5841 908.952,-18.5956"/>
</g>
<!-- Node7 -->
<g id="node13" class="node"><title>Node7</title>
<a xlink:href="../../db/d62/structns_t_array___safe_element_at_helper.html" target="_top" xlink:title="nsTArray_SafeElementAtHelper\&lt; nsString, nsTArray_Impl\&lt; nsString, nsTArrayFallibleAllocator \&gt; \&gt;">
<polygon fill="white" stroke="black" points="0.5,-0.5 0.5,-21.5 449.5,-21.5 449.5,-0.5 0.5,-0.5"/>
<text text-anchor="middle" x="225" y="-8.5" font-family="Helvetica,sans-Serif" font-size="10.00">nsTArray_SafeElementAtHelper&lt; nsString, nsTArray_Impl&lt; nsString, nsTArrayFallibleAllocator &gt; &gt;</text>
</a>
</g>
<!-- Node7&#45;&gt;Node6 -->
<g id="edge14" class="edge"><title>Node7&#45;&gt;Node6</title>
<path fill="none" stroke="midnightblue" d="M459.679,-11C477.725,-11 495.849,-11 513.66,-11"/>
<polygon fill="midnightblue" stroke="midnightblue" points="459.664,-7.5001 449.664,-11 459.664,-14.5001 459.664,-7.5001"/>
</g>
</g>
</svg>
        <g id="navigator" transform="translate(0 0)" fill="#404254">
                <rect fill="#f2f5e9" fill-opacity="0.5" stroke="#606060" stroke-width=".5" x="0" y="0" width="60" height="60"/>
                <use id="zoomplus" xlink:href="#zoomPlus" x="17" y="9" onmousedown="handleZoom(evt,'in')"/>
                <use id="zoomminus" xlink:href="#zoomMin" x="42" y="9" onmousedown="handleZoom(evt,'out')"/>
                <use id="reset" xlink:href="#resetDef" x="30" y="36" onmousedown="handleReset()"/>
                <g id="arrowUp" xlink:href="#dirArrow" transform="translate(30 24)" onmousedown="handlePan(0,-1)">
                  <use xlink:href="#rim" fill="#404040">
                        <set attributeName="fill" to="#808080" begin="arrowUp.mouseover" end="arrowUp.mouseout"/>
                  </use>
                  <path fill="none" stroke="white" stroke-width="1.5" d="M0,-3.0v7 M-2.5,-0.5L0,-3.0L2.5,-0.5"/>
                </g>
                <g id="arrowRight" xlink:href="#dirArrow" transform="rotate(90) translate(36 -43)" onmousedown="handlePan(1,0)">
                  <use xlink:href="#rim" fill="#404040">
                        <set attributeName="fill" to="#808080" begin="arrowRight.mouseover" end="arrowRight.mouseout"/>
                  </use>
                  <path fill="none" stroke="white" stroke-width="1.5" d="M0,-3.0v7 M-2.5,-0.5L0,-3.0L2.5,-0.5"/>
                </g>
                <g id="arrowDown" xlink:href="#dirArrow" transform="rotate(180) translate(-30 -48)" onmousedown="handlePan(0,1)">
                  <use xlink:href="#rim" fill="#404040">
                        <set attributeName="fill" to="#808080" begin="arrowDown.mouseover" end="arrowDown.mouseout"/>
                  </use>
                  <path fill="none" stroke="white" stroke-width="1.5" d="M0,-3.0v7 M-2.5,-0.5L0,-3.0L2.5,-0.5"/>
                </g>
                <g id="arrowLeft" xlink:href="#dirArrow" transform="rotate(270) translate(-36 17)" onmousedown="handlePan(-1,0)">
                  <use xlink:href="#rim" fill="#404040">
                        <set attributeName="fill" to="#808080" begin="arrowLeft.mouseover" end="arrowLeft.mouseout"/>
                  </use>
                  <path fill="none" stroke="white" stroke-width="1.5" d="M0,-3.0v7 M-2.5,-0.5L0,-3.0L2.5,-0.5"/>
                </g>
        </g>
</svg>
