<?xml version="1.0" encoding="UTF-8" standalone="no"?>
<!DOCTYPE svg PUBLIC "-//W3C//DTD SVG 1.1//EN"
 "http://www.w3.org/Graphics/SVG/1.1/DTD/svg11.dtd">
<!-- Generated by graphviz version 2.26.3 (20100126.1600)
 -->
<!-- Title: G Pages: 1 -->
<!--zoomable 249 -->
<svg id="main" version="1.1" xmlns="http://www.w3.org/2000/svg" xmlns:xlink="http://www.w3.org/1999/xlink" xml:space="preserve" onload="init(evt)">
        <defs>
                <circle id="rim" cx="0" cy="0" r="7"/>
                <circle id="rim2" cx="0" cy="0" r="3.5"/>
                <g id="zoomPlus">
                        <use xlink:href="#rim" fill="#404040">
                                <set attributeName="fill" to="#808080" begin="zoomplus.mouseover" end="zoomplus.mouseout"/>
                        </use>
                        <path d="M-4,0h8M0,-4v8" fill="none" stroke="white" stroke-width="1.5" pointer-events="none"/>
                </g>
                <g id="zoomMin">
                        <use xlink:href="#rim" fill="#404040">
                                <set attributeName="fill" to="#808080" begin="zoomminus.mouseover" end="zoomminus.mouseout"/>
                        </use>
                        <path d="M-4,0h8" fill="none" stroke="white" stroke-width="1.5" pointer-events="none"/>
                </g>
                <g id="dirArrow">
                        <path fill="none" stroke="white" stroke-width="1.5" d="M0,-3.0v7 M-2.5,-0.5L0,-3.0L2.5,-0.5"/>
                </g>
               <g id="resetDef">
                       <use xlink:href="#rim2" fill="#404040">
                               <set attributeName="fill" to="#808080" begin="reset.mouseover" end="reset.mouseout"/>
                       </use>
               </g>
        </defs>

<script type="text/javascript">
var viewWidth = 2548;
var viewHeight = 249;
var sectionId = 'dynsection-1';
</script>
<script xlink:href="../../svgpan.js"/>
<svg id="graph" class="graph">
<g id="viewport">
<title>G</title>
<polygon fill="white" stroke="white" points="-4,5 -4,-245 2545,-245 2545,5 -4,5"/>
<!-- Node1 -->
<g id="node1" class="node"><title>Node1</title>
<polygon fill="#bfbfbf" stroke="black" points="2346.5,-122.5 2346.5,-143.5 2539.5,-143.5 2539.5,-122.5 2346.5,-122.5"/>
<text text-anchor="middle" x="2443" y="-130.5" font-family="Helvetica,sans-Serif" font-size="10.00">mozilla::dom::HTMLPropertiesCollection</text>
</g>
<!-- Node2 -->
<g id="node2" class="node"><title>Node2</title>
<a xlink:href="../../d0/d18/classns_i_h_t_m_l_collection.html" target="_top" xlink:title="nsIHTMLCollection">
<polygon fill="white" stroke="black" points="2027.5,-219.5 2027.5,-240.5 2128.5,-240.5 2128.5,-219.5 2027.5,-219.5"/>
<text text-anchor="middle" x="2078" y="-227.5" font-family="Helvetica,sans-Serif" font-size="10.00">nsIHTMLCollection</text>
</a>
</g>
<!-- Node2&#45;&gt;Node1 -->
<g id="edge2" class="edge"><title>Node2&#45;&gt;Node1</title>
<path fill="none" stroke="midnightblue" d="M2138.65,-223.436C2162.88,-220.236 2190.93,-215.804 2216,-210 2266.94,-198.209 2278.48,-190.781 2328,-174 2357.51,-164 2391.05,-151.965 2414.26,-143.53"/>
<polygon fill="midnightblue" stroke="midnightblue" points="2138,-219.991 2128.52,-224.732 2138.88,-226.934 2138,-219.991"/>
</g>
<!-- Node3 -->
<g id="node4" class="node"><title>Node3</title>
<a xlink:href="../../d1/dfc/interfacens_i_d_o_m_h_t_m_l_collection.html" target="_top" xlink:title="nsIDOMHTMLCollection">
<polygon fill="white" stroke="black" points="1632,-219.5 1632,-240.5 1756,-240.5 1756,-219.5 1632,-219.5"/>
<text text-anchor="middle" x="1694" y="-227.5" font-family="Helvetica,sans-Serif" font-size="10.00">nsIDOMHTMLCollection</text>
</a>
</g>
<!-- Node3&#45;&gt;Node2 -->
<g id="edge4" class="edge"><title>Node3&#45;&gt;Node2</title>
<path fill="none" stroke="midnightblue" d="M1766.59,-230C1842.78,-230 1960.57,-230 2027.32,-230"/>
<polygon fill="midnightblue" stroke="midnightblue" points="1766.12,-226.5 1756.12,-230 1766.12,-233.5 1766.12,-226.5"/>
</g>
<!-- Node4 -->
<g id="node6" class="node"><title>Node4</title>
<a xlink:href="../../d4/d6a/classns_i_supports.html" target="_top" xlink:title="nsISupports">
<polygon fill="white" stroke="black" points="1080.5,-219.5 1080.5,-240.5 1149.5,-240.5 1149.5,-219.5 1080.5,-219.5"/>
<text text-anchor="middle" x="1115" y="-227.5" font-family="Helvetica,sans-Serif" font-size="10.00">nsISupports</text>
</a>
</g>
<!-- Node4&#45;&gt;Node3 -->
<g id="edge6" class="edge"><title>Node4&#45;&gt;Node3</title>
<path fill="none" stroke="midnightblue" d="M1159.95,-226.174C1262.6,-222.468 1514.39,-222.285 1631.82,-225.623"/>
<polygon fill="midnightblue" stroke="midnightblue" points="1159.77,-222.679 1149.92,-226.569 1160.04,-229.673 1159.77,-222.679"/>
</g>
<!-- Node4&#45;&gt;Node3 -->
<g id="edge8" class="edge"><title>Node4&#45;&gt;Node3</title>
<path fill="none" stroke="midnightblue" d="M1159.95,-233.826C1262.6,-237.532 1514.39,-237.715 1631.82,-234.377"/>
<polygon fill="midnightblue" stroke="midnightblue" points="1160.04,-230.327 1149.92,-233.431 1159.77,-237.321 1160.04,-230.327"/>
</g>
<!-- Node6 -->
<g id="node11" class="node"><title>Node6</title>
<a xlink:href="../../d8/d6d/classns_i_mutation_observer.html" target="_top" xlink:title="nsIMutationObserver">
<polygon fill="white" stroke="black" points="1640.5,-179.5 1640.5,-200.5 1747.5,-200.5 1747.5,-179.5 1640.5,-179.5"/>
<text text-anchor="middle" x="1694" y="-187.5" font-family="Helvetica,sans-Serif" font-size="10.00">nsIMutationObserver</text>
</a>
</g>
<!-- Node4&#45;&gt;Node6 -->
<g id="edge14" class="edge"><title>Node4&#45;&gt;Node6</title>
<path fill="none" stroke="midnightblue" d="M1160.21,-226.877C1265.62,-219.595 1527.29,-201.517 1640.45,-193.7"/>
<polygon fill="midnightblue" stroke="midnightblue" points="1159.65,-223.407 1149.92,-227.588 1160.13,-230.39 1159.65,-223.407"/>
</g>
<!-- Node5 -->
<g id="node9" class="node"><title>Node5</title>
<a xlink:href="../../d6/d32/classns_stub_mutation_observer.html" target="_top" xlink:title="nsStubMutationObserver">
<polygon fill="white" stroke="black" points="2015.5,-179.5 2015.5,-200.5 2140.5,-200.5 2140.5,-179.5 2015.5,-179.5"/>
<text text-anchor="middle" x="2078" y="-187.5" font-family="Helvetica,sans-Serif" font-size="10.00">nsStubMutationObserver</text>
</a>
</g>
<!-- Node5&#45;&gt;Node1 -->
<g id="edge10" class="edge"><title>Node5&#45;&gt;Node1</title>
<path fill="none" stroke="midnightblue" d="M2150.58,-180.283C2200.53,-173.415 2268.38,-163.732 2328,-154 2347.53,-150.812 2368.86,-147.006 2387.8,-143.516"/>
<polygon fill="midnightblue" stroke="midnightblue" points="2149.95,-176.837 2140.51,-181.662 2150.9,-183.772 2149.95,-176.837"/>
</g>
<!-- Node6&#45;&gt;Node5 -->
<g id="edge12" class="edge"><title>Node6&#45;&gt;Node5</title>
<path fill="none" stroke="midnightblue" d="M1758.02,-190C1829.49,-190 1944.41,-190 2015.33,-190"/>
<polygon fill="midnightblue" stroke="midnightblue" points="1757.8,-186.5 1747.8,-190 1757.8,-193.5 1757.8,-186.5"/>
</g>
<!-- Node7 -->
<g id="node14" class="node"><title>Node7</title>
<a xlink:href="../../d0/d7e/classns_wrapper_cache.html" target="_top" xlink:title="nsWrapperCache">
<polygon fill="white" stroke="black" points="2032,-139.5 2032,-160.5 2124,-160.5 2124,-139.5 2032,-139.5"/>
<text text-anchor="middle" x="2078" y="-147.5" font-family="Helvetica,sans-Serif" font-size="10.00">nsWrapperCache</text>
</a>
</g>
<!-- Node7&#45;&gt;Node1 -->
<g id="edge16" class="edge"><title>Node7&#45;&gt;Node1</title>
<path fill="none" stroke="midnightblue" d="M2134.38,-147.374C2190.77,-144.747 2278.62,-140.656 2346.18,-137.509"/>
<polygon fill="midnightblue" stroke="midnightblue" points="2134.05,-143.885 2124.23,-147.847 2134.38,-150.878 2134.05,-143.885"/>
</g>
<!-- Node8 -->
<g id="node16" class="node"><title>Node8</title>
<a xlink:href="../../d8/db9/classns_ref_ptr_hashtable.html" target="_top" xlink:title="nsRefPtrHashtable\&lt; nsStringHashKey, PropertyNodeList \&gt;">
<polygon fill="white" stroke="black" points="1940,-99.5 1940,-120.5 2216,-120.5 2216,-99.5 1940,-99.5"/>
<text text-anchor="middle" x="2078" y="-107.5" font-family="Helvetica,sans-Serif" font-size="10.00">nsRefPtrHashtable&lt; nsStringHashKey, PropertyNodeList &gt;</text>
</a>
</g>
<!-- Node8&#45;&gt;Node1 -->
<g id="edge18" class="edge"><title>Node8&#45;&gt;Node1</title>
<path fill="none" stroke="#9a32cd" stroke-dasharray="5,2" d="M2226.58,-115.068C2259.97,-116.616 2295.21,-118.57 2328,-121 2334.01,-121.445 2340.18,-121.951 2346.41,-122.496"/>
<polygon fill="#9a32cd" stroke="#9a32cd" points="2226.43,-111.558 2216.28,-114.601 2226.11,-118.551 2226.43,-111.558"/>
<text text-anchor="middle" x="2281" y="-125" font-family="Helvetica,sans-Serif" font-size="10.00"> mNamedItemEntries</text>
</g>
<!-- Node9 -->
<g id="node18" class="node"><title>Node9</title>
<a xlink:href="../../da/dba/classns_base_hashtable.html" target="_top" xlink:title="nsBaseHashtable\&lt; nsStringHashKey, nsRefPtr\&lt; PropertyNodeList \&gt;, PropertyNodeList * \&gt;">
<polygon fill="white" stroke="black" points="1486,-108.5 1486,-129.5 1902,-129.5 1902,-108.5 1486,-108.5"/>
<text text-anchor="middle" x="1694" y="-116.5" font-family="Helvetica,sans-Serif" font-size="10.00">nsBaseHashtable&lt; nsStringHashKey, nsRefPtr&lt; PropertyNodeList &gt;, PropertyNodeList * &gt;</text>
</a>
</g>
<!-- Node9&#45;&gt;Node8 -->
<g id="edge20" class="edge"><title>Node9&#45;&gt;Node8</title>
<path fill="none" stroke="midnightblue" d="M1912.19,-113.886C1921.54,-113.667 1930.8,-113.45 1939.89,-113.237"/>
<polygon fill="midnightblue" stroke="midnightblue" points="1911.93,-110.391 1902.01,-114.125 1912.09,-117.389 1911.93,-110.391"/>
</g>
<!-- Node10 -->
<g id="node20" class="node"><title>Node10</title>
<a xlink:href="../../d5/dc3/classns_t_hashtable.html" target="_top" xlink:title="nsTHashtable\&lt; nsBaseHashtableET\&lt; nsStringHashKey,nsRefPtr\&lt; PropertyNodeList \&gt; \&gt; \&gt;">
<polygon fill="white" stroke="black" points="907,-111.5 907,-132.5 1323,-132.5 1323,-111.5 907,-111.5"/>
<text text-anchor="middle" x="1115" y="-119.5" font-family="Helvetica,sans-Serif" font-size="10.00">nsTHashtable&lt; nsBaseHashtableET&lt; nsStringHashKey,nsRefPtr&lt; PropertyNodeList &gt; &gt; &gt;</text>
</a>
</g>
<!-- Node10&#45;&gt;Node9 -->
<g id="edge22" class="edge"><title>Node10&#45;&gt;Node9</title>
<path fill="none" stroke="darkgreen" d="M1333.48,-120.868C1383.36,-120.61 1436.24,-120.336 1485.69,-120.079"/>
<polygon fill="darkgreen" stroke="darkgreen" points="1333.2,-117.369 1323.21,-120.921 1333.23,-124.369 1333.2,-117.369"/>
</g>
<!-- Node11 -->
<g id="node22" class="node"><title>Node11</title>
<polygon fill="white" stroke="#bfbfbf" points="334.5,-111.5 334.5,-132.5 375.5,-132.5 375.5,-111.5 334.5,-111.5"/>
<text text-anchor="middle" x="355" y="-119.5" font-family="Helvetica,sans-Serif" font-size="10.00">struct</text>
</g>
<!-- Node11&#45;&gt;Node10 -->
<g id="edge24" class="edge"><title>Node11&#45;&gt;Node10</title>
<path fill="none" stroke="#9a32cd" stroke-dasharray="5,2" d="M385.925,-122C472.609,-122 723.563,-122 906.89,-122"/>
<polygon fill="#9a32cd" stroke="#9a32cd" points="385.722,-118.5 375.722,-122 385.722,-125.5 385.722,-118.5"/>
<text text-anchor="middle" x="746" y="-126" font-family="Helvetica,sans-Serif" font-size="10.00"> mTable</text>
</g>
<!-- Node12 -->
<g id="node24" class="node"><title>Node12</title>
<a xlink:href="../../d8/d6f/classns_t_array.html" target="_top" xlink:title="nsTArray\&lt; nsRefPtr\&lt; nsGenericHTMLElement \&gt; \&gt;">
<polygon fill="white" stroke="black" points="1958.5,-59.5 1958.5,-80.5 2197.5,-80.5 2197.5,-59.5 1958.5,-59.5"/>
<text text-anchor="middle" x="2078" y="-67.5" font-family="Helvetica,sans-Serif" font-size="10.00">nsTArray&lt; nsRefPtr&lt; nsGenericHTMLElement &gt; &gt;</text>
</a>
</g>
<!-- Node12&#45;&gt;Node1 -->
<g id="edge26" class="edge"><title>Node12&#45;&gt;Node1</title>
<path fill="none" stroke="#9a32cd" stroke-dasharray="5,2" d="M2207.93,-79.9726C2246.78,-84.1835 2289.32,-90.0196 2328,-98 2357.64,-104.115 2390.59,-114.532 2413.6,-122.415"/>
<polygon fill="#9a32cd" stroke="#9a32cd" points="2207.92,-76.4521 2197.61,-78.8823 2207.18,-83.4134 2207.92,-76.4521"/>
<text text-anchor="middle" x="2281" y="-102" font-family="Helvetica,sans-Serif" font-size="10.00"> mProperties</text>
</g>
<!-- Node13 -->
<g id="node26" class="node"><title>Node13</title>
<a xlink:href="../../d4/dd8/classns_t_array___impl.html" target="_top" xlink:title="nsTArray_Impl\&lt; nsRefPtr\&lt; nsGenericHTMLElement \&gt;, nsTArrayInfallibleAllocator \&gt;">
<polygon fill="white" stroke="black" points="1502.5,-40.5 1502.5,-61.5 1885.5,-61.5 1885.5,-40.5 1502.5,-40.5"/>
<text text-anchor="middle" x="1694" y="-48.5" font-family="Helvetica,sans-Serif" font-size="10.00">nsTArray_Impl&lt; nsRefPtr&lt; nsGenericHTMLElement &gt;, nsTArrayInfallibleAllocator &gt;</text>
</a>
</g>
<!-- Node13&#45;&gt;Node12 -->
<g id="edge28" class="edge"><title>Node13&#45;&gt;Node12</title>
<path fill="none" stroke="midnightblue" d="M1895.88,-60.9887C1917.24,-62.0456 1938.44,-63.0945 1958.41,-64.0828"/>
<polygon fill="midnightblue" stroke="midnightblue" points="1895.88,-57.4846 1885.72,-60.4861 1895.53,-64.4761 1895.88,-57.4846"/>
</g>
<!-- Node14 -->
<g id="node28" class="node"><title>Node14</title>
<a xlink:href="../../db/d9f/classns_t_array__base.html" target="_top" xlink:title="nsTArray_base\&lt; nsTArrayInfallibleAllocator, nsTArray_CopyElements\&lt; nsRefPtr\&lt; nsGenericHTMLElement \&gt; \&gt; \&gt;">
<polygon fill="white" stroke="black" points="859,-40.5 859,-61.5 1371,-61.5 1371,-40.5 859,-40.5"/>
<text text-anchor="middle" x="1115" y="-48.5" font-family="Helvetica,sans-Serif" font-size="10.00">nsTArray_base&lt; nsTArrayInfallibleAllocator, nsTArray_CopyElements&lt; nsRefPtr&lt; nsGenericHTMLElement &gt; &gt; &gt;</text>
</a>
</g>
<!-- Node14&#45;&gt;Node13 -->
<g id="edge30" class="edge"><title>Node14&#45;&gt;Node13</title>
<path fill="none" stroke="midnightblue" d="M1381.15,-51C1421.96,-51 1463.4,-51 1502.19,-51"/>
<polygon fill="midnightblue" stroke="midnightblue" points="1381.06,-47.5001 1371.06,-51 1381.06,-54.5001 1381.06,-47.5001"/>
</g>
<!-- Node15 -->
<g id="node30" class="node"><title>Node15</title>
<a xlink:href="../../dc/d5a/structns_t_array_header.html" target="_top" xlink:title="nsTArrayHeader">
<polygon fill="white" stroke="black" points="311,-40.5 311,-61.5 399,-61.5 399,-40.5 311,-40.5"/>
<text text-anchor="middle" x="355" y="-48.5" font-family="Helvetica,sans-Serif" font-size="10.00">nsTArrayHeader</text>
</a>
</g>
<!-- Node15&#45;&gt;Node14 -->
<g id="edge32" class="edge"><title>Node15&#45;&gt;Node14</title>
<path fill="none" stroke="#9a32cd" stroke-dasharray="5,2" d="M409.147,-51C501.974,-51 697.118,-51 858.739,-51"/>
<polygon fill="#9a32cd" stroke="#9a32cd" points="409.146,-47.5001 399.146,-51 409.146,-54.5001 409.146,-47.5001"/>
<text text-anchor="middle" x="746" y="-55" font-family="Helvetica,sans-Serif" font-size="10.00"> mHdr</text>
</g>
<!-- Node15&#45;&gt;Node15 -->
<g id="edge34" class="edge"><title>Node15&#45;&gt;Node15</title>
<path fill="none" stroke="#9a32cd" stroke-dasharray="5,2" d="M300.747,-59.457C263.4,-69.0085 281.484,-80 355,-80 434.409,-80 449.143,-67.1755 399.202,-57.194"/>
<polygon fill="#9a32cd" stroke="#9a32cd" points="301.811,-62.8052 310.798,-57.194 300.273,-55.9761 301.811,-62.8052"/>
<text text-anchor="middle" x="355" y="-84" font-family="Helvetica,sans-Serif" font-size="10.00"> sEmptyHdr</text>
</g>
<!-- Node16 -->
<g id="node33" class="node"><title>Node16</title>
<a xlink:href="../../d7/dcf/structns_t_array___typed_base.html" target="_top" xlink:title="nsTArray_TypedBase\&lt; nsRefPtr\&lt; nsGenericHTMLElement \&gt;, nsTArray_Impl\&lt; nsRefPtr\&lt; nsGenericHTMLElement \&gt;, nsTArrayInfallibleAllocator \&gt; \&gt;">
<polygon fill="white" stroke="black" points="782.5,-0.5 782.5,-21.5 1447.5,-21.5 1447.5,-0.5 782.5,-0.5"/>
<text text-anchor="middle" x="1115" y="-8.5" font-family="Helvetica,sans-Serif" font-size="10.00">nsTArray_TypedBase&lt; nsRefPtr&lt; nsGenericHTMLElement &gt;, nsTArray_Impl&lt; nsRefPtr&lt; nsGenericHTMLElement &gt;, nsTArrayInfallibleAllocator &gt; &gt;</text>
</a>
</g>
<!-- Node16&#45;&gt;Node13 -->
<g id="edge36" class="edge"><title>Node16&#45;&gt;Node13</title>
<path fill="none" stroke="midnightblue" d="M1311.85,-22.1311C1356.62,-24.855 1403.96,-27.8874 1448,-31 1488.07,-33.8319 1531.78,-37.2719 1571.1,-40.4948"/>
<polygon fill="midnightblue" stroke="midnightblue" points="1311.93,-18.6298 1301.73,-21.5185 1311.5,-25.6169 1311.93,-18.6298"/>
</g>
<!-- Node17 -->
<g id="node35" class="node"><title>Node17</title>
<a xlink:href="../../db/d62/structns_t_array___safe_element_at_helper.html" target="_top" xlink:title="nsTArray_SafeElementAtHelper\&lt; nsRefPtr\&lt; nsGenericHTMLElement \&gt;, nsTArray_Impl\&lt; nsRefPtr\&lt; nsGenericHTMLElement \&gt;, nsTArrayInfallibleAllocator \&gt; \&gt;">
<polygon fill="white" stroke="black" points="0,-0.5 0,-21.5 710,-21.5 710,-0.5 0,-0.5"/>
<text text-anchor="middle" x="355" y="-8.5" font-family="Helvetica,sans-Serif" font-size="10.00">nsTArray_SafeElementAtHelper&lt; nsRefPtr&lt; nsGenericHTMLElement &gt;, nsTArray_Impl&lt; nsRefPtr&lt; nsGenericHTMLElement &gt;, nsTArrayInfallibleAllocator &gt; &gt;</text>
</a>
</g>
<!-- Node17&#45;&gt;Node16 -->
<g id="edge38" class="edge"><title>Node17&#45;&gt;Node16</title>
<path fill="none" stroke="midnightblue" d="M720.402,-11C741.103,-11 761.862,-11 782.433,-11"/>
<polygon fill="midnightblue" stroke="midnightblue" points="720.245,-7.5001 710.245,-11 720.245,-14.5001 720.245,-7.5001"/>
</g>
<!-- Node18 -->
<g id="node37" class="node"><title>Node18</title>
<a xlink:href="../../d0/d01/classns_ref_ptr.html" target="_top" xlink:title="nsRefPtr\&lt; PropertyStringList \&gt;">
<polygon fill="white" stroke="black" points="2002,-19.5 2002,-40.5 2154,-40.5 2154,-19.5 2002,-19.5"/>
<text text-anchor="middle" x="2078" y="-27.5" font-family="Helvetica,sans-Serif" font-size="10.00">nsRefPtr&lt; PropertyStringList &gt;</text>
</a>
</g>
<!-- Node18&#45;&gt;Node1 -->
<g id="edge40" class="edge"><title>Node18&#45;&gt;Node1</title>
<path fill="none" stroke="#9a32cd" stroke-dasharray="5,2" d="M2164.44,-34.2559C2213.5,-38.6777 2275.42,-47.6808 2328,-66 2367.28,-79.6849 2408.17,-107.249 2429,-122.409"/>
<polygon fill="#9a32cd" stroke="#9a32cd" points="2164.44,-30.7428 2154.17,-33.3801 2163.84,-37.7175 2164.44,-30.7428"/>
<text text-anchor="middle" x="2281" y="-70" font-family="Helvetica,sans-Serif" font-size="10.00"> mNames</text>
</g>
</g>
</svg>
        <g id="navigator" transform="translate(0 0)" fill="#404254">
                <rect fill="#f2f5e9" fill-opacity="0.5" stroke="#606060" stroke-width=".5" x="0" y="0" width="60" height="60"/>
                <use id="zoomplus" xlink:href="#zoomPlus" x="17" y="9" onmousedown="handleZoom(evt,'in')"/>
                <use id="zoomminus" xlink:href="#zoomMin" x="42" y="9" onmousedown="handleZoom(evt,'out')"/>
                <use id="reset" xlink:href="#resetDef" x="30" y="36" onmousedown="handleReset()"/>
                <g id="arrowUp" xlink:href="#dirArrow" transform="translate(30 24)" onmousedown="handlePan(0,-1)">
                  <use xlink:href="#rim" fill="#404040">
                        <set attributeName="fill" to="#808080" begin="arrowUp.mouseover" end="arrowUp.mouseout"/>
                  </use>
                  <path fill="none" stroke="white" stroke-width="1.5" d="M0,-3.0v7 M-2.5,-0.5L0,-3.0L2.5,-0.5"/>
                </g>
                <g id="arrowRight" xlink:href="#dirArrow" transform="rotate(90) translate(36 -43)" onmousedown="handlePan(1,0)">
                  <use xlink:href="#rim" fill="#404040">
                        <set attributeName="fill" to="#808080" begin="arrowRight.mouseover" end="arrowRight.mouseout"/>
                  </use>
                  <path fill="none" stroke="white" stroke-width="1.5" d="M0,-3.0v7 M-2.5,-0.5L0,-3.0L2.5,-0.5"/>
                </g>
                <g id="arrowDown" xlink:href="#dirArrow" transform="rotate(180) translate(-30 -48)" onmousedown="handlePan(0,1)">
                  <use xlink:href="#rim" fill="#404040">
                        <set attributeName="fill" to="#808080" begin="arrowDown.mouseover" end="arrowDown.mouseout"/>
                  </use>
                  <path fill="none" stroke="white" stroke-width="1.5" d="M0,-3.0v7 M-2.5,-0.5L0,-3.0L2.5,-0.5"/>
                </g>
                <g id="arrowLeft" xlink:href="#dirArrow" transform="rotate(270) translate(-36 17)" onmousedown="handlePan(-1,0)">
                  <use xlink:href="#rim" fill="#404040">
                        <set attributeName="fill" to="#808080" begin="arrowLeft.mouseover" end="arrowLeft.mouseout"/>
                  </use>
                  <path fill="none" stroke="white" stroke-width="1.5" d="M0,-3.0v7 M-2.5,-0.5L0,-3.0L2.5,-0.5"/>
                </g>
        </g>
</svg>
