<?xml version="1.0" encoding="UTF-8" standalone="no"?>
<!DOCTYPE svg PUBLIC "-//W3C//DTD SVG 1.1//EN"
 "http://www.w3.org/Graphics/SVG/1.1/DTD/svg11.dtd">
<!-- Generated by graphviz version 2.26.3 (20100126.1600)
 -->
<!-- Title: G Pages: 1 -->
<svg width="164pt" height="102pt"
 viewBox="0.00 0.00 164.00 102.00" xmlns="http://www.w3.org/2000/svg" xmlns:xlink="http://www.w3.org/1999/xlink">
<g id="graph1" class="graph" transform="scale(1 1) rotate(0) translate(4 98)">
<title>G</title>
<polygon fill="white" stroke="white" points="-4,5 -4,-98 161,-98 161,5 -4,5"/>
<!-- Node1 -->
<g id="node1" class="node"><title>Node1</title>
<polygon fill="#bfbfbf" stroke="black" points="29.5,-0.5 29.5,-21.5 136.5,-21.5 136.5,-0.5 29.5,-0.5"/>
<text text-anchor="middle" x="83" y="-8.5" font-family="Helvetica,sans-Serif" font-size="10.00">JS::AutoArrayRooter</text>
</g>
<!-- Node2 -->
<g id="node2" class="node"><title>Node2</title>
<polygon fill="white" stroke="#bfbfbf" points="-0.5,-72.5 -0.5,-93.5 80.5,-93.5 80.5,-72.5 -0.5,-72.5"/>
<text text-anchor="middle" x="40" y="-80.5" font-family="Helvetica,sans-Serif" font-size="10.00">AutoGCRooter</text>
</g>
<!-- Node2&#45;&gt;Node1 -->
<g id="edge2" class="edge"><title>Node2&#45;&gt;Node1</title>
<path fill="none" stroke="#8b1a1a" d="M51.694,-63.4193C59.7242,-49.9734 70.0771,-32.6384 76.6292,-21.6674"/>
<polygon fill="#8b1a1a" stroke="#8b1a1a" points="48.4673,-61.9961 46.3448,-72.3762 54.4772,-65.5853 48.4673,-61.9961"/>
</g>
<!-- Node3 -->
<g id="node4" class="node"><title>Node3</title>
<a xlink:href="../../d1/d94/class_j_s_1_1_value.html" target="_top" xlink:title="JS::Value">
<polygon fill="white" stroke="black" points="97.5,-72.5 97.5,-93.5 156.5,-93.5 156.5,-72.5 97.5,-72.5"/>
<text text-anchor="middle" x="127" y="-80.5" font-family="Helvetica,sans-Serif" font-size="10.00">JS::Value</text>
</a>
</g>
<!-- Node3&#45;&gt;Node1 -->
<g id="edge4" class="edge"><title>Node3&#45;&gt;Node1</title>
<path fill="none" stroke="#9a32cd" stroke-dasharray="5,2" d="M115.273,-63.8099C107.023,-50.3106 96.2885,-32.7449 89.519,-21.6674"/>
<polygon fill="#9a32cd" stroke="#9a32cd" points="112.307,-65.6684 120.508,-72.3762 118.28,-62.0182 112.307,-65.6684"/>
<text text-anchor="middle" x="120.5" y="-44.5" font-family="Helvetica,sans-Serif" font-size="10.00"> array</text>
</g>
</g>
</svg>
