<?xml version="1.0" encoding="UTF-8" standalone="no"?>
<!DOCTYPE svg PUBLIC "-//W3C//DTD SVG 1.1//EN"
 "http://www.w3.org/Graphics/SVG/1.1/DTD/svg11.dtd">
<!-- Generated by graphviz version 2.26.3 (20100126.1600)
 -->
<!-- Title: G Pages: 1 -->
<svg width="466pt" height="70pt"
 viewBox="0.00 0.00 466.00 70.00" xmlns="http://www.w3.org/2000/svg" xmlns:xlink="http://www.w3.org/1999/xlink">
<g id="graph1" class="graph" transform="scale(1 1) rotate(0) translate(4 66)">
<title>G</title>
<polygon fill="white" stroke="white" points="-4,5 -4,-66 463,-66 463,5 -4,5"/>
<!-- Node1 -->
<g id="node1" class="node"><title>Node1</title>
<polygon fill="#bfbfbf" stroke="black" points="0,-20.5 0,-41.5 212,-41.5 212,-20.5 0,-20.5"/>
<text text-anchor="middle" x="106" y="-28.5" font-family="Helvetica,sans-Serif" font-size="10.00">nsCOMPtr&lt; nsISupports &gt;::StartAssignment</text>
</g>
<!-- Node2 -->
<g id="node3" class="node"><title>Node2</title>
<a xlink:href="../../df/de1/classns_c_o_m_ptr__base.html#a59b380db7265ce9dd853944f0edeb057" target="_top" xlink:title="nsCOMPtr_base::assign_assuming_AddRef">
<polygon fill="white" stroke="black" points="248.5,-40.5 248.5,-61.5 457.5,-61.5 457.5,-40.5 248.5,-40.5"/>
<text text-anchor="middle" x="353" y="-48.5" font-family="Helvetica,sans-Serif" font-size="10.00">nsCOMPtr_base::assign_assuming_AddRef</text>
</a>
</g>
<!-- Node1&#45;&gt;Node2 -->
<g id="edge2" class="edge"><title>Node1&#45;&gt;Node2</title>
<path fill="none" stroke="midnightblue" d="M212.184,-39.5979C220.83,-40.298 229.591,-41.0074 238.294,-41.7121"/>
<polygon fill="midnightblue" stroke="midnightblue" points="238.224,-45.2177 248.474,-42.5363 238.789,-38.2406 238.224,-45.2177"/>
</g>
<!-- Node3 -->
<g id="node5" class="node"><title>Node3</title>
<a xlink:href="../../df/de1/classns_c_o_m_ptr__base.html#a4bdbffcb57fa7a3fd150e6e38f30e2d2" target="_top" xlink:title="nsCOMPtr_base::begin_assignment">
<polygon fill="white" stroke="black" points="266,-0.5 266,-21.5 440,-21.5 440,-0.5 266,-0.5"/>
<text text-anchor="middle" x="353" y="-8.5" font-family="Helvetica,sans-Serif" font-size="10.00">nsCOMPtr_base::begin_assignment</text>
</a>
</g>
<!-- Node1&#45;&gt;Node3 -->
<g id="edge4" class="edge"><title>Node1&#45;&gt;Node3</title>
<path fill="none" stroke="midnightblue" d="M212.184,-22.4021C226.598,-21.235 241.334,-20.0418 255.584,-18.888"/>
<polygon fill="midnightblue" stroke="midnightblue" points="256.178,-22.3514 265.863,-18.0556 255.613,-15.3742 256.178,-22.3514"/>
</g>
</g>
</svg>
