<?xml version="1.0" encoding="UTF-8" standalone="no"?>
<!DOCTYPE svg PUBLIC "-//W3C//DTD SVG 1.1//EN"
 "http://www.w3.org/Graphics/SVG/1.1/DTD/svg11.dtd">
<!-- Generated by graphviz version 2.26.3 (20100126.1600)
 -->
<!-- Title: G Pages: 1 -->
<svg width="272pt" height="110pt"
 viewBox="0.00 0.00 272.00 110.00" xmlns="http://www.w3.org/2000/svg" xmlns:xlink="http://www.w3.org/1999/xlink">
<g id="graph1" class="graph" transform="scale(1 1) rotate(0) translate(4 106)">
<title>G</title>
<polygon fill="white" stroke="white" points="-4,5 -4,-106 269,-106 269,5 -4,5"/>
<!-- Node1 -->
<g id="node1" class="node"><title>Node1</title>
<polygon fill="#bfbfbf" stroke="black" points="0,-40.5 0,-61.5 40,-61.5 40,-40.5 0,-40.5"/>
<text text-anchor="middle" x="20" y="-48.5" font-family="Helvetica,sans-Serif" font-size="10.00">close</text>
</g>
<!-- Node2 -->
<g id="node3" class="node"><title>Node2</title>
<a xlink:href="../../da/de0/service__extensions_8js.html#ad068481e8f613ccae4e3acef0a461380" target="_top" xlink:title="if">
<polygon fill="white" stroke="black" points="155.5,-80.5 155.5,-101.5 184.5,-101.5 184.5,-80.5 155.5,-80.5"/>
<text text-anchor="middle" x="170" y="-88.5" font-family="Helvetica,sans-Serif" font-size="10.00">if</text>
</a>
</g>
<!-- Node1&#45;&gt;Node2 -->
<g id="edge2" class="edge"><title>Node1&#45;&gt;Node2</title>
<path fill="none" stroke="midnightblue" d="M49.4962,-62.3651C57.9777,-65.4058 67.2909,-68.5302 76,-71 103.609,-78.8296 136.552,-85.1665 155.197,-88.4821"/>
<polygon fill="midnightblue" stroke="midnightblue" points="50.6011,-59.0424 40.0076,-58.8782 48.1866,-65.6127 50.6011,-59.0424"/>
</g>
<!-- Node3 -->
<g id="node5" class="node"><title>Node3</title>
<a xlink:href="../../d7/d57/structmozilla_1_1_scoped_close_f_d_traits.html#ab0b1769c7d6be32c3c61aa83cbe9f703" target="_top" xlink:title="mozilla::ScopedCloseFDTraits::release">
<polygon fill="white" stroke="black" points="76,-40.5 76,-61.5 264,-61.5 264,-40.5 76,-40.5"/>
<text text-anchor="middle" x="170" y="-48.5" font-family="Helvetica,sans-Serif" font-size="10.00">mozilla::ScopedCloseFDTraits::release</text>
</a>
</g>
<!-- Node1&#45;&gt;Node3 -->
<g id="edge4" class="edge"><title>Node1&#45;&gt;Node3</title>
<path fill="none" stroke="midnightblue" d="M50.3807,-51C58.0666,-51 66.7348,-51 75.8045,-51"/>
<polygon fill="midnightblue" stroke="midnightblue" points="50.2297,-47.5001 40.2297,-51 50.2296,-54.5001 50.2297,-47.5001"/>
</g>
<!-- Node4 -->
<g id="node7" class="node"><title>Node4</title>
<a xlink:href="../../d0/dda/tools_2extensions_2httpd_2bootstrap_8js.html#aff35f22ded84d5cd36bce458c0bd4cf2" target="_top" xlink:title="startup">
<polygon fill="white" stroke="black" points="146.5,-0.5 146.5,-21.5 193.5,-21.5 193.5,-0.5 146.5,-0.5"/>
<text text-anchor="middle" x="170" y="-8.5" font-family="Helvetica,sans-Serif" font-size="10.00">startup</text>
</a>
</g>
<!-- Node1&#45;&gt;Node4 -->
<g id="edge6" class="edge"><title>Node1&#45;&gt;Node4</title>
<path fill="none" stroke="midnightblue" d="M49.4962,-39.6349C57.9777,-36.5942 67.2909,-33.4698 76,-31 99.5961,-24.3085 127.088,-18.7072 146.221,-15.1505"/>
<polygon fill="midnightblue" stroke="midnightblue" points="48.1866,-36.3873 40.0076,-43.1218 50.6011,-42.9576 48.1866,-36.3873"/>
</g>
</g>
</svg>
