<?xml version="1.0" encoding="UTF-8" standalone="no"?>
<!DOCTYPE svg PUBLIC "-//W3C//DTD SVG 1.1//EN"
 "http://www.w3.org/Graphics/SVG/1.1/DTD/svg11.dtd">
<!-- Generated by graphviz version 2.26.3 (20100126.1600)
 -->
<!-- Title: G Pages: 1 -->
<!--zoomable 230 -->
<svg id="main" version="1.1" xmlns="http://www.w3.org/2000/svg" xmlns:xlink="http://www.w3.org/1999/xlink" xml:space="preserve" onload="init(evt)">
        <defs>
                <circle id="rim" cx="0" cy="0" r="7"/>
                <circle id="rim2" cx="0" cy="0" r="3.5"/>
                <g id="zoomPlus">
                        <use xlink:href="#rim" fill="#404040">
                                <set attributeName="fill" to="#808080" begin="zoomplus.mouseover" end="zoomplus.mouseout"/>
                        </use>
                        <path d="M-4,0h8M0,-4v8" fill="none" stroke="white" stroke-width="1.5" pointer-events="none"/>
                </g>
                <g id="zoomMin">
                        <use xlink:href="#rim" fill="#404040">
                                <set attributeName="fill" to="#808080" begin="zoomminus.mouseover" end="zoomminus.mouseout"/>
                        </use>
                        <path d="M-4,0h8" fill="none" stroke="white" stroke-width="1.5" pointer-events="none"/>
                </g>
                <g id="dirArrow">
                        <path fill="none" stroke="white" stroke-width="1.5" d="M0,-3.0v7 M-2.5,-0.5L0,-3.0L2.5,-0.5"/>
                </g>
               <g id="resetDef">
                       <use xlink:href="#rim2" fill="#404040">
                               <set attributeName="fill" to="#808080" begin="reset.mouseover" end="reset.mouseout"/>
                       </use>
               </g>
        </defs>

<script type="text/javascript">
var viewWidth = 574;
var viewHeight = 230;
var sectionId = 'dynsection-6';
</script>
<script xlink:href="../../svgpan.js"/>
<svg id="graph" class="graph">
<g id="viewport">
<title>G</title>
<polygon fill="white" stroke="white" points="-4,5 -4,-226 571,-226 571,5 -4,5"/>
<!-- Node1 -->
<g id="node1" class="node"><title>Node1</title>
<polygon fill="#bfbfbf" stroke="black" points="0.5,-100.5 0.5,-121.5 183.5,-121.5 183.5,-100.5 0.5,-100.5"/>
<text text-anchor="middle" x="92" y="-108.5" font-family="Helvetica,sans-Serif" font-size="10.00">ClientContainerLayer::RepositionChild</text>
</g>
<!-- Node2 -->
<g id="node3" class="node"><title>Node2</title>
<a xlink:href="../../d7/d5e/_client_container_layer_8h.html#ab9d0be214a8396c4dbf326761221da1c" target="_top" xlink:title="ContainerRepositionChild">
<polygon fill="white" stroke="black" points="220,-100.5 220,-121.5 348,-121.5 348,-100.5 220,-100.5"/>
<text text-anchor="middle" x="284" y="-108.5" font-family="Helvetica,sans-Serif" font-size="10.00">ContainerRepositionChild</text>
</a>
</g>
<!-- Node1&#45;&gt;Node2 -->
<g id="edge2" class="edge"><title>Node1&#45;&gt;Node2</title>
<path fill="none" stroke="midnightblue" d="M183.501,-111C192.222,-111 200.992,-111 209.523,-111"/>
<polygon fill="midnightblue" stroke="midnightblue" points="209.792,-114.5 219.791,-111 209.791,-107.5 209.792,-114.5"/>
</g>
<!-- Node3 -->
<g id="node5" class="node"><title>Node3</title>
<a xlink:href="../../d9/da9/classmozilla_1_1layers_1_1_layer.html#abae2e7580e7b2bbd828f68fd30f74d90" target="_top" xlink:title="mozilla::layers::Layer::GetPrevSibling">
<polygon fill="white" stroke="black" points="384.5,-200.5 384.5,-221.5 565.5,-221.5 565.5,-200.5 384.5,-200.5"/>
<text text-anchor="middle" x="475" y="-208.5" font-family="Helvetica,sans-Serif" font-size="10.00">mozilla::layers::Layer::GetPrevSibling</text>
</a>
</g>
<!-- Node2&#45;&gt;Node3 -->
<g id="edge4" class="edge"><title>Node2&#45;&gt;Node3</title>
<path fill="none" stroke="midnightblue" d="M293.971,-121.676C310.803,-139.023 346.684,-173.179 384,-191 389.018,-193.396 394.328,-195.51 399.763,-197.373"/>
<polygon fill="midnightblue" stroke="midnightblue" points="399.055,-200.818 409.644,-200.463 401.145,-194.137 399.055,-200.818"/>
</g>
<!-- Node4 -->
<g id="node7" class="node"><title>Node4</title>
<a xlink:href="../../d9/da9/classmozilla_1_1layers_1_1_layer.html#a80f92b49bf60a61e4919fd59c6e4e60f" target="_top" xlink:title="mozilla::layers::Layer::GetNextSibling">
<polygon fill="white" stroke="black" points="384,-160.5 384,-181.5 566,-181.5 566,-160.5 384,-160.5"/>
<text text-anchor="middle" x="475" y="-168.5" font-family="Helvetica,sans-Serif" font-size="10.00">mozilla::layers::Layer::GetNextSibling</text>
</a>
</g>
<!-- Node2&#45;&gt;Node4 -->
<g id="edge6" class="edge"><title>Node2&#45;&gt;Node4</title>
<path fill="none" stroke="midnightblue" d="M307.448,-121.653C327.467,-130.438 357.192,-142.754 384,-151 392.425,-153.592 401.386,-155.986 410.274,-158.15"/>
<polygon fill="midnightblue" stroke="midnightblue" points="409.709,-161.612 420.245,-160.493 411.311,-154.798 409.709,-161.612"/>
</g>
<!-- Node5 -->
<g id="node9" class="node"><title>Node5</title>
<a xlink:href="../../d9/da9/classmozilla_1_1layers_1_1_layer.html#a271e931c646ae721f98df49d5cf54847" target="_top" xlink:title="mozilla::layers::Layer::Manager">
<polygon fill="white" stroke="black" points="398.5,-120.5 398.5,-141.5 551.5,-141.5 551.5,-120.5 398.5,-120.5"/>
<text text-anchor="middle" x="475" y="-128.5" font-family="Helvetica,sans-Serif" font-size="10.00">mozilla::layers::Layer::Manager</text>
</a>
</g>
<!-- Node2&#45;&gt;Node5 -->
<g id="edge8" class="edge"><title>Node2&#45;&gt;Node5</title>
<path fill="none" stroke="midnightblue" d="M348.132,-117.715C360.999,-119.063 374.722,-120.5 388.21,-121.912"/>
<polygon fill="midnightblue" stroke="midnightblue" points="388.152,-125.425 398.462,-122.986 388.881,-118.463 388.152,-125.425"/>
</g>
<!-- Node6 -->
<g id="node11" class="node"><title>Node6</title>
<a xlink:href="../../d9/da9/classmozilla_1_1layers_1_1_layer.html#af0867b484260b693da02e9a5d26fa59e" target="_top" xlink:title="mozilla::layers::Layer::SetPrevSibling">
<polygon fill="white" stroke="black" points="385,-80.5 385,-101.5 565,-101.5 565,-80.5 385,-80.5"/>
<text text-anchor="middle" x="475" y="-88.5" font-family="Helvetica,sans-Serif" font-size="10.00">mozilla::layers::Layer::SetPrevSibling</text>
</a>
</g>
<!-- Node2&#45;&gt;Node6 -->
<g id="edge10" class="edge"><title>Node2&#45;&gt;Node6</title>
<path fill="none" stroke="midnightblue" d="M348.132,-104.285C356.714,-103.386 365.677,-102.447 374.698,-101.503"/>
<polygon fill="midnightblue" stroke="midnightblue" points="375.308,-104.958 384.889,-100.436 374.579,-97.9963 375.308,-104.958"/>
</g>
<!-- Node7 -->
<g id="node13" class="node"><title>Node7</title>
<a xlink:href="../../d9/da9/classmozilla_1_1layers_1_1_layer.html#a1a7acb7fe5f0feb465f0848ae11fa25c" target="_top" xlink:title="mozilla::layers::Layer::SetNextSibling">
<polygon fill="white" stroke="black" points="384.5,-40.5 384.5,-61.5 565.5,-61.5 565.5,-40.5 384.5,-40.5"/>
<text text-anchor="middle" x="475" y="-48.5" font-family="Helvetica,sans-Serif" font-size="10.00">mozilla::layers::Layer::SetNextSibling</text>
</a>
</g>
<!-- Node2&#45;&gt;Node7 -->
<g id="edge12" class="edge"><title>Node2&#45;&gt;Node7</title>
<path fill="none" stroke="midnightblue" d="M307.448,-100.347C327.467,-91.562 357.192,-79.2464 384,-71 392.425,-68.4084 401.386,-66.0139 410.274,-63.8501"/>
<polygon fill="midnightblue" stroke="midnightblue" points="411.311,-67.2019 420.245,-61.5068 409.709,-60.3875 411.311,-67.2019"/>
</g>
<!-- Node8 -->
<g id="node15" class="node"><title>Node8</title>
<a xlink:href="../../d9/da9/classmozilla_1_1layers_1_1_layer.html#ad50ea4291b9138cca43b235c805b18aa" target="_top" xlink:title="mozilla::layers::Layer::GetParent">
<polygon fill="white" stroke="black" points="395,-0.5 395,-21.5 555,-21.5 555,-0.5 395,-0.5"/>
<text text-anchor="middle" x="475" y="-8.5" font-family="Helvetica,sans-Serif" font-size="10.00">mozilla::layers::Layer::GetParent</text>
</a>
</g>
<!-- Node2&#45;&gt;Node8 -->
<g id="edge14" class="edge"><title>Node2&#45;&gt;Node8</title>
<path fill="none" stroke="midnightblue" d="M293.971,-100.324C310.803,-82.9774 346.684,-48.8211 384,-31 389.018,-28.6038 394.328,-26.4905 399.763,-24.6273"/>
<polygon fill="midnightblue" stroke="midnightblue" points="401.145,-27.8625 409.644,-21.5366 399.055,-21.1818 401.145,-27.8625"/>
</g>
</g>
</svg>
        <g id="navigator" transform="translate(0 0)" fill="#404254">
                <rect fill="#f2f5e9" fill-opacity="0.5" stroke="#606060" stroke-width=".5" x="0" y="0" width="60" height="60"/>
                <use id="zoomplus" xlink:href="#zoomPlus" x="17" y="9" onmousedown="handleZoom(evt,'in')"/>
                <use id="zoomminus" xlink:href="#zoomMin" x="42" y="9" onmousedown="handleZoom(evt,'out')"/>
                <use id="reset" xlink:href="#resetDef" x="30" y="36" onmousedown="handleReset()"/>
                <g id="arrowUp" xlink:href="#dirArrow" transform="translate(30 24)" onmousedown="handlePan(0,-1)">
                  <use xlink:href="#rim" fill="#404040">
                        <set attributeName="fill" to="#808080" begin="arrowUp.mouseover" end="arrowUp.mouseout"/>
                  </use>
                  <path fill="none" stroke="white" stroke-width="1.5" d="M0,-3.0v7 M-2.5,-0.5L0,-3.0L2.5,-0.5"/>
                </g>
                <g id="arrowRight" xlink:href="#dirArrow" transform="rotate(90) translate(36 -43)" onmousedown="handlePan(1,0)">
                  <use xlink:href="#rim" fill="#404040">
                        <set attributeName="fill" to="#808080" begin="arrowRight.mouseover" end="arrowRight.mouseout"/>
                  </use>
                  <path fill="none" stroke="white" stroke-width="1.5" d="M0,-3.0v7 M-2.5,-0.5L0,-3.0L2.5,-0.5"/>
                </g>
                <g id="arrowDown" xlink:href="#dirArrow" transform="rotate(180) translate(-30 -48)" onmousedown="handlePan(0,1)">
                  <use xlink:href="#rim" fill="#404040">
                        <set attributeName="fill" to="#808080" begin="arrowDown.mouseover" end="arrowDown.mouseout"/>
                  </use>
                  <path fill="none" stroke="white" stroke-width="1.5" d="M0,-3.0v7 M-2.5,-0.5L0,-3.0L2.5,-0.5"/>
                </g>
                <g id="arrowLeft" xlink:href="#dirArrow" transform="rotate(270) translate(-36 17)" onmousedown="handlePan(-1,0)">
                  <use xlink:href="#rim" fill="#404040">
                        <set attributeName="fill" to="#808080" begin="arrowLeft.mouseover" end="arrowLeft.mouseout"/>
                  </use>
                  <path fill="none" stroke="white" stroke-width="1.5" d="M0,-3.0v7 M-2.5,-0.5L0,-3.0L2.5,-0.5"/>
                </g>
        </g>
</svg>
