<?xml version="1.0" encoding="UTF-8" standalone="no"?>
<!DOCTYPE svg PUBLIC "-//W3C//DTD SVG 1.1//EN"
 "http://www.w3.org/Graphics/SVG/1.1/DTD/svg11.dtd">
<!-- Generated by graphviz version 2.26.3 (20100126.1600)
 -->
<!-- Title: G Pages: 1 -->
<svg width="352pt" height="30pt"
 viewBox="0.00 0.00 352.00 30.00" xmlns="http://www.w3.org/2000/svg" xmlns:xlink="http://www.w3.org/1999/xlink">
<g id="graph1" class="graph" transform="scale(1 1) rotate(0) translate(4 26)">
<title>G</title>
<polygon fill="white" stroke="white" points="-4,5 -4,-26 349,-26 349,5 -4,5"/>
<!-- Node1 -->
<g id="node1" class="node"><title>Node1</title>
<polygon fill="#bfbfbf" stroke="black" points="0,-0.5 0,-21.5 84,-21.5 84,-0.5 0,-0.5"/>
<text text-anchor="middle" x="42" y="-8.5" font-family="Helvetica,sans-Serif" font-size="10.00">validateUIDList</text>
</g>
<!-- Node2 -->
<g id="node3" class="node"><title>Node2</title>
<a xlink:href="../../dc/d5e/apps_2email_2js_2ext_2mailapi_2imap_2probe_8js.html#abcd08625ae0ec62657961ab7570b3ebb" target="_top" xlink:title="buildSearchQuery">
<polygon fill="white" stroke="black" points="120,-0.5 120,-21.5 214,-21.5 214,-0.5 120,-0.5"/>
<text text-anchor="middle" x="167" y="-8.5" font-family="Helvetica,sans-Serif" font-size="10.00">buildSearchQuery</text>
</a>
</g>
<!-- Node1&#45;&gt;Node2 -->
<g id="edge2" class="edge"><title>Node1&#45;&gt;Node2</title>
<path fill="none" stroke="midnightblue" d="M94.4809,-11C102.95,-11 111.67,-11 119.999,-11"/>
<polygon fill="midnightblue" stroke="midnightblue" points="94.3193,-7.5001 84.3193,-11 94.3193,-14.5001 94.3193,-7.5001"/>
</g>
<!-- Node3 -->
<g id="node5" class="node"><title>Node3</title>
<a xlink:href="../../d0/d6e/build__stage_2email_2js_2ext_2mailapi_2imap_2probe_8js.html#abcd08625ae0ec62657961ab7570b3ebb" target="_top" xlink:title="buildSearchQuery">
<polygon fill="white" stroke="black" points="250,-0.5 250,-21.5 344,-21.5 344,-0.5 250,-0.5"/>
<text text-anchor="middle" x="297" y="-8.5" font-family="Helvetica,sans-Serif" font-size="10.00">buildSearchQuery</text>
</a>
</g>
<!-- Node2&#45;&gt;Node3 -->
<g id="edge4" class="edge"><title>Node2&#45;&gt;Node3</title>
<path fill="none" stroke="midnightblue" d="M224.539,-11C233.034,-11 241.703,-11 249.952,-11"/>
<polygon fill="midnightblue" stroke="midnightblue" points="224.301,-7.5001 214.301,-11 224.301,-14.5001 224.301,-7.5001"/>
</g>
</g>
</svg>
