<?xml version="1.0" encoding="UTF-8" standalone="no"?>
<!DOCTYPE svg PUBLIC "-//W3C//DTD SVG 1.1//EN"
 "http://www.w3.org/Graphics/SVG/1.1/DTD/svg11.dtd">
<!-- Generated by graphviz version 2.26.3 (20100126.1600)
 -->
<!-- Title: G Pages: 1 -->
<svg width="334pt" height="70pt"
 viewBox="0.00 0.00 334.00 70.00" xmlns="http://www.w3.org/2000/svg" xmlns:xlink="http://www.w3.org/1999/xlink">
<g id="graph1" class="graph" transform="scale(1 1) rotate(0) translate(4 66)">
<title>G</title>
<polygon fill="white" stroke="white" points="-4,5 -4,-66 331,-66 331,5 -4,5"/>
<!-- Node1 -->
<g id="node1" class="node"><title>Node1</title>
<polygon fill="#bfbfbf" stroke="black" points="0.5,-20.5 0.5,-41.5 103.5,-41.5 103.5,-20.5 0.5,-20.5"/>
<text text-anchor="middle" x="52" y="-28.5" font-family="Helvetica,sans-Serif" font-size="10.00">parseBodyStructure</text>
</g>
<!-- Node2 -->
<g id="node3" class="node"><title>Node2</title>
<a xlink:href="../../d0/d6e/build__stage_2email_2js_2ext_2mailapi_2imap_2probe_8js.html#a40ad667db22e285a0095957453a7058c" target="_top" xlink:title="parseBodyStructure">
<polygon fill="white" stroke="black" points="140.5,-40.5 140.5,-61.5 243.5,-61.5 243.5,-40.5 140.5,-40.5"/>
<text text-anchor="middle" x="192" y="-48.5" font-family="Helvetica,sans-Serif" font-size="10.00">parseBodyStructure</text>
</a>
</g>
<!-- Node1&#45;&gt;Node2 -->
<g id="edge2" class="edge"><title>Node1&#45;&gt;Node2</title>
<path fill="none" stroke="midnightblue" d="M113.714,-39.8163C122.651,-41.093 131.771,-42.3958 140.48,-43.6399"/>
<polygon fill="midnightblue" stroke="midnightblue" points="114.128,-36.3399 103.733,-38.3904 113.138,-43.2696 114.128,-36.3399"/>
</g>
<!-- Node3 -->
<g id="node5" class="node"><title>Node3</title>
<a xlink:href="../../dc/d5e/apps_2email_2js_2ext_2mailapi_2imap_2probe_8js.html#a0b4789dc5253b112778d836135fa8d58" target="_top" xlink:title="parseFetch">
<polygon fill="white" stroke="black" points="159.5,-0.5 159.5,-21.5 224.5,-21.5 224.5,-0.5 159.5,-0.5"/>
<text text-anchor="middle" x="192" y="-8.5" font-family="Helvetica,sans-Serif" font-size="10.00">parseFetch</text>
</a>
</g>
<!-- Node1&#45;&gt;Node3 -->
<g id="edge4" class="edge"><title>Node1&#45;&gt;Node3</title>
<path fill="none" stroke="midnightblue" d="M113.871,-22.1612C129.469,-19.933 145.612,-17.6268 159.147,-15.6933"/>
<polygon fill="midnightblue" stroke="midnightblue" points="113.138,-18.7304 103.733,-23.6096 114.128,-25.6601 113.138,-18.7304"/>
</g>
<!-- Node4 -->
<g id="node7" class="node"><title>Node4</title>
<a xlink:href="../../dc/d5e/apps_2email_2js_2ext_2mailapi_2imap_2probe_8js.html#aba983438655021425112777c0e7ebbe8" target="_top" xlink:title="switch">
<polygon fill="white" stroke="black" points="280.5,-0.5 280.5,-21.5 325.5,-21.5 325.5,-0.5 280.5,-0.5"/>
<text text-anchor="middle" x="303" y="-8.5" font-family="Helvetica,sans-Serif" font-size="10.00">switch</text>
</a>
</g>
<!-- Node3&#45;&gt;Node4 -->
<g id="edge6" class="edge"><title>Node3&#45;&gt;Node4</title>
<path fill="none" stroke="midnightblue" d="M235.117,-11C250.56,-11 267.351,-11 280.37,-11"/>
<polygon fill="midnightblue" stroke="midnightblue" points="234.703,-7.5001 224.703,-11 234.703,-14.5001 234.703,-7.5001"/>
</g>
</g>
</svg>
