<?xml version="1.0" encoding="UTF-8" standalone="no"?>
<!DOCTYPE svg PUBLIC "-//W3C//DTD SVG 1.1//EN"
 "http://www.w3.org/Graphics/SVG/1.1/DTD/svg11.dtd">
<!-- Generated by graphviz version 2.26.3 (20100126.1600)
 -->
<!-- Title: G Pages: 1 -->
<!--zoomable 350 -->
<svg id="main" version="1.1" xmlns="http://www.w3.org/2000/svg" xmlns:xlink="http://www.w3.org/1999/xlink" xml:space="preserve" onload="init(evt)">
        <defs>
                <circle id="rim" cx="0" cy="0" r="7"/>
                <circle id="rim2" cx="0" cy="0" r="3.5"/>
                <g id="zoomPlus">
                        <use xlink:href="#rim" fill="#404040">
                                <set attributeName="fill" to="#808080" begin="zoomplus.mouseover" end="zoomplus.mouseout"/>
                        </use>
                        <path d="M-4,0h8M0,-4v8" fill="none" stroke="white" stroke-width="1.5" pointer-events="none"/>
                </g>
                <g id="zoomMin">
                        <use xlink:href="#rim" fill="#404040">
                                <set attributeName="fill" to="#808080" begin="zoomminus.mouseover" end="zoomminus.mouseout"/>
                        </use>
                        <path d="M-4,0h8" fill="none" stroke="white" stroke-width="1.5" pointer-events="none"/>
                </g>
                <g id="dirArrow">
                        <path fill="none" stroke="white" stroke-width="1.5" d="M0,-3.0v7 M-2.5,-0.5L0,-3.0L2.5,-0.5"/>
                </g>
               <g id="resetDef">
                       <use xlink:href="#rim2" fill="#404040">
                               <set attributeName="fill" to="#808080" begin="reset.mouseover" end="reset.mouseout"/>
                       </use>
               </g>
        </defs>

<script type="text/javascript">
var viewWidth = 538;
var viewHeight = 350;
var sectionId = 'dynsection-0';
</script>
<script xlink:href="../../svgpan.js"/>
<svg id="graph" class="graph">
<g id="viewport">
<title>G</title>
<polygon fill="white" stroke="white" points="-4,5 -4,-346 535,-346 535,5 -4,5"/>
<!-- Node1 -->
<g id="node1" class="node"><title>Node1</title>
<polygon fill="#bfbfbf" stroke="black" points="456,-160.5 456,-181.5 530,-181.5 530,-160.5 456,-160.5"/>
<text text-anchor="middle" x="493" y="-168.5" font-family="Helvetica,sans-Serif" font-size="10.00">nsDocLoader</text>
</g>
<!-- Node2 -->
<g id="node2" class="node"><title>Node2</title>
<a xlink:href="../../da/d54/interfacens_i_document_loader.html" target="_top" xlink:title="nsIDocumentLoader">
<polygon fill="white" stroke="black" points="124,-320.5 124,-341.5 228,-341.5 228,-320.5 124,-320.5"/>
<text text-anchor="middle" x="176" y="-328.5" font-family="Helvetica,sans-Serif" font-size="10.00">nsIDocumentLoader</text>
</a>
</g>
<!-- Node2&#45;&gt;Node1 -->
<g id="edge2" class="edge"><title>Node2&#45;&gt;Node1</title>
<path fill="none" stroke="midnightblue" d="M238.508,-337.422C291.239,-339.636 366.468,-334.955 420,-299 462.898,-270.187 483.549,-207.149 490.352,-181.837"/>
<polygon fill="midnightblue" stroke="midnightblue" points="238.442,-333.914 228.275,-336.895 238.082,-340.905 238.442,-333.914"/>
</g>
<!-- Node3 -->
<g id="node4" class="node"><title>Node3</title>
<a xlink:href="../../d4/d6a/classns_i_supports.html" target="_top" xlink:title="nsISupports">
<polygon fill="white" stroke="black" points="0.5,-160.5 0.5,-181.5 69.5,-181.5 69.5,-160.5 0.5,-160.5"/>
<text text-anchor="middle" x="35" y="-168.5" font-family="Helvetica,sans-Serif" font-size="10.00">nsISupports</text>
</a>
</g>
<!-- Node3&#45;&gt;Node2 -->
<g id="edge4" class="edge"><title>Node3&#45;&gt;Node2</title>
<path fill="none" stroke="midnightblue" d="M41.6589,-191.763C50.828,-220.842 70.3989,-272.625 106,-302 117.991,-311.894 134.619,-316.898 148.66,-320.424"/>
<polygon fill="midnightblue" stroke="midnightblue" points="44.8958,-190.377 38.6423,-181.824 38.1975,-192.41 44.8958,-190.377"/>
</g>
<!-- Node3&#45;&gt;Node2 -->
<g id="edge6" class="edge"><title>Node3&#45;&gt;Node2</title>
<path fill="none" stroke="midnightblue" d="M38.4959,-191.698C45.8281,-224.427 65.5847,-286.652 106,-320 111.264,-324.344 117.422,-327.745 123.863,-330.323"/>
<polygon fill="midnightblue" stroke="midnightblue" points="41.9071,-190.909 36.4737,-181.814 35.0491,-192.313 41.9071,-190.909"/>
</g>
<!-- Node4 -->
<g id="node7" class="node"><title>Node4</title>
<a xlink:href="../../d1/dc4/interfacens_i_request_observer.html" target="_top" xlink:title="nsIRequestObserver">
<polygon fill="white" stroke="black" points="122.5,-280.5 122.5,-301.5 229.5,-301.5 229.5,-280.5 122.5,-280.5"/>
<text text-anchor="middle" x="176" y="-288.5" font-family="Helvetica,sans-Serif" font-size="10.00">nsIRequestObserver</text>
</a>
</g>
<!-- Node3&#45;&gt;Node4 -->
<g id="edge10" class="edge"><title>Node3&#45;&gt;Node4</title>
<path fill="none" stroke="midnightblue" d="M47.5673,-190.756C59.5215,-211.583 79.5928,-243.313 106,-262 119.619,-271.637 137.804,-276.653 152.226,-280.486"/>
<polygon fill="midnightblue" stroke="midnightblue" points="50.4651,-188.769 42.5056,-181.776 44.3672,-192.206 50.4651,-188.769"/>
</g>
<!-- Node3&#45;&gt;Node4 -->
<g id="edge12" class="edge"><title>Node3&#45;&gt;Node4</title>
<path fill="none" stroke="midnightblue" d="M41.3002,-191.056C51.6259,-216.148 74.2266,-257.515 106,-280 110.952,-283.504 116.508,-286.398 122.268,-288.727"/>
<polygon fill="midnightblue" stroke="midnightblue" points="44.5685,-189.803 37.7394,-181.703 38.0266,-192.294 44.5685,-189.803"/>
</g>
<!-- Node6 -->
<g id="node13" class="node"><title>Node6</title>
<a xlink:href="../../df/dd6/interfacens_i_supports_weak_reference.html" target="_top" xlink:title="nsISupportsWeakReference">
<polygon fill="white" stroke="black" points="106,-240.5 106,-261.5 246,-261.5 246,-240.5 106,-240.5"/>
<text text-anchor="middle" x="176" y="-248.5" font-family="Helvetica,sans-Serif" font-size="10.00">nsISupportsWeakReference</text>
</a>
</g>
<!-- Node3&#45;&gt;Node6 -->
<g id="edge18" class="edge"><title>Node3&#45;&gt;Node6</title>
<path fill="none" stroke="midnightblue" d="M59.9629,-188.542C72.7648,-199.562 89.1794,-213.029 106,-222 122.171,-230.624 142.48,-235.895 157.052,-240.48"/>
<polygon fill="midnightblue" stroke="midnightblue" points="61.9517,-185.634 52.104,-181.726 57.3653,-190.923 61.9517,-185.634"/>
</g>
<!-- Node3&#45;&gt;Node6 -->
<g id="edge20" class="edge"><title>Node3&#45;&gt;Node6</title>
<path fill="none" stroke="midnightblue" d="M46.5399,-190.086C59.6981,-206.069 82.4511,-227.44 106,-240 106.223,-240.119 106.447,-240.237 106.671,-240.355"/>
<polygon fill="midnightblue" stroke="midnightblue" points="49.1141,-187.689 40.2729,-181.851 43.5436,-191.928 49.1141,-187.689"/>
</g>
<!-- Node7 -->
<g id="node17" class="node"><title>Node7</title>
<a xlink:href="../../db/dce/interfacens_i_progress_event_sink.html" target="_top" xlink:title="nsIProgressEventSink">
<polygon fill="white" stroke="black" points="119,-200.5 119,-221.5 233,-221.5 233,-200.5 119,-200.5"/>
<text text-anchor="middle" x="176" y="-208.5" font-family="Helvetica,sans-Serif" font-size="10.00">nsIProgressEventSink</text>
</a>
</g>
<!-- Node3&#45;&gt;Node7 -->
<g id="edge24" class="edge"><title>Node3&#45;&gt;Node7</title>
<path fill="none" stroke="midnightblue" d="M79.7264,-177.356C105.31,-183.748 136.145,-192.976 155.906,-200.409"/>
<polygon fill="midnightblue" stroke="midnightblue" points="80.3962,-173.918 69.8539,-174.972 78.7527,-180.722 80.3962,-173.918"/>
</g>
<!-- Node3&#45;&gt;Node7 -->
<g id="edge26" class="edge"><title>Node3&#45;&gt;Node7</title>
<path fill="none" stroke="midnightblue" d="M64.576,-185.006C80.2919,-190.453 100.158,-196.431 118.749,-201.402"/>
<polygon fill="midnightblue" stroke="midnightblue" points="65.4972,-181.618 54.9028,-181.519 63.1234,-188.203 65.4972,-181.618"/>
</g>
<!-- Node8 -->
<g id="node21" class="node"><title>Node8</title>
<a xlink:href="../../d0/d89/interfacens_i_web_progress.html" target="_top" xlink:title="nsIWebProgress">
<polygon fill="white" stroke="black" points="131.5,-160.5 131.5,-181.5 220.5,-181.5 220.5,-160.5 131.5,-160.5"/>
<text text-anchor="middle" x="176" y="-168.5" font-family="Helvetica,sans-Serif" font-size="10.00">nsIWebProgress</text>
</a>
</g>
<!-- Node3&#45;&gt;Node8 -->
<g id="edge30" class="edge"><title>Node3&#45;&gt;Node8</title>
<path fill="none" stroke="midnightblue" d="M80.2673,-164.65C96.6398,-164.109 115.104,-164.117 131.417,-164.673"/>
<polygon fill="midnightblue" stroke="midnightblue" points="79.6994,-161.17 69.8539,-165.084 79.9911,-168.164 79.6994,-161.17"/>
</g>
<!-- Node3&#45;&gt;Node8 -->
<g id="edge32" class="edge"><title>Node3&#45;&gt;Node8</title>
<path fill="none" stroke="midnightblue" d="M80.2673,-177.35C96.6398,-177.891 115.104,-177.883 131.417,-177.327"/>
<polygon fill="midnightblue" stroke="midnightblue" points="79.9911,-173.836 69.8539,-176.916 79.6994,-180.83 79.9911,-173.836"/>
</g>
<!-- Node9 -->
<g id="node25" class="node"><title>Node9</title>
<a xlink:href="../../df/de7/interfacens_i_interface_requestor.html" target="_top" xlink:title="nsIInterfaceRequestor">
<polygon fill="white" stroke="black" points="119.5,-120.5 119.5,-141.5 232.5,-141.5 232.5,-120.5 119.5,-120.5"/>
<text text-anchor="middle" x="176" y="-128.5" font-family="Helvetica,sans-Serif" font-size="10.00">nsIInterfaceRequestor</text>
</a>
</g>
<!-- Node3&#45;&gt;Node9 -->
<g id="edge36" class="edge"><title>Node3&#45;&gt;Node9</title>
<path fill="none" stroke="midnightblue" d="M64.6703,-156.961C80.5465,-151.462 100.638,-145.426 119.37,-140.433"/>
<polygon fill="midnightblue" stroke="midnightblue" points="63.1242,-153.798 54.9028,-160.481 65.4972,-160.384 63.1242,-153.798"/>
</g>
<!-- Node3&#45;&gt;Node9 -->
<g id="edge38" class="edge"><title>Node3&#45;&gt;Node9</title>
<path fill="none" stroke="midnightblue" d="M79.7264,-164.644C105.31,-158.252 136.145,-149.024 155.906,-141.591"/>
<polygon fill="midnightblue" stroke="midnightblue" points="78.7527,-161.278 69.8539,-167.028 80.3962,-168.082 78.7527,-161.278"/>
</g>
<!-- Node10 -->
<g id="node29" class="node"><title>Node10</title>
<a xlink:href="../../d5/d15/interfacens_i_channel_event_sink.html" target="_top" xlink:title="nsIChannelEventSink">
<polygon fill="white" stroke="black" points="120.5,-80.5 120.5,-101.5 231.5,-101.5 231.5,-80.5 120.5,-80.5"/>
<text text-anchor="middle" x="176" y="-88.5" font-family="Helvetica,sans-Serif" font-size="10.00">nsIChannelEventSink</text>
</a>
</g>
<!-- Node3&#45;&gt;Node10 -->
<g id="edge42" class="edge"><title>Node3&#45;&gt;Node10</title>
<path fill="none" stroke="midnightblue" d="M46.5399,-151.914C59.6981,-135.931 82.4511,-114.56 106,-102 110.572,-99.5614 115.476,-97.3909 120.487,-95.5021"/>
<polygon fill="midnightblue" stroke="midnightblue" points="43.5436,-150.072 40.2729,-160.149 49.1141,-154.311 43.5436,-150.072"/>
</g>
<!-- Node3&#45;&gt;Node10 -->
<g id="edge44" class="edge"><title>Node3&#45;&gt;Node10</title>
<path fill="none" stroke="midnightblue" d="M59.9629,-153.458C72.7648,-142.438 89.1794,-128.971 106,-120 122.171,-111.376 142.48,-106.105 157.052,-101.52"/>
<polygon fill="midnightblue" stroke="midnightblue" points="57.3653,-151.077 52.104,-160.274 61.9517,-156.366 57.3653,-151.077"/>
</g>
<!-- Node11 -->
<g id="node33" class="node"><title>Node11</title>
<a xlink:href="../../da/dda/interfacens_i_security_event_sink.html" target="_top" xlink:title="nsISecurityEventSink">
<polygon fill="white" stroke="black" points="120.5,-40.5 120.5,-61.5 231.5,-61.5 231.5,-40.5 120.5,-40.5"/>
<text text-anchor="middle" x="176" y="-48.5" font-family="Helvetica,sans-Serif" font-size="10.00">nsISecurityEventSink</text>
</a>
</g>
<!-- Node3&#45;&gt;Node11 -->
<g id="edge48" class="edge"><title>Node3&#45;&gt;Node11</title>
<path fill="none" stroke="midnightblue" d="M41.3002,-150.944C51.6259,-125.852 74.2266,-84.4846 106,-62 110.436,-58.8606 115.357,-56.2116 120.475,-54.0194"/>
<polygon fill="midnightblue" stroke="midnightblue" points="38.0266,-149.706 37.7394,-160.297 44.5685,-152.197 38.0266,-149.706"/>
</g>
<!-- Node3&#45;&gt;Node11 -->
<g id="edge50" class="edge"><title>Node3&#45;&gt;Node11</title>
<path fill="none" stroke="midnightblue" d="M47.5673,-151.244C59.5215,-130.417 79.5928,-98.6872 106,-80 119.619,-70.3628 137.804,-65.3465 152.226,-61.5144"/>
<polygon fill="midnightblue" stroke="midnightblue" points="44.3672,-149.794 42.5056,-160.224 50.4651,-153.231 44.3672,-149.794"/>
</g>
<!-- Node12 -->
<g id="node37" class="node"><title>Node12</title>
<a xlink:href="../../dd/d70/interfacens_i_supports_priority.html" target="_top" xlink:title="nsISupportsPriority">
<polygon fill="white" stroke="black" points="126,-0.5 126,-21.5 226,-21.5 226,-0.5 126,-0.5"/>
<text text-anchor="middle" x="176" y="-8.5" font-family="Helvetica,sans-Serif" font-size="10.00">nsISupportsPriority</text>
</a>
</g>
<!-- Node3&#45;&gt;Node12 -->
<g id="edge54" class="edge"><title>Node3&#45;&gt;Node12</title>
<path fill="none" stroke="midnightblue" d="M38.4959,-150.302C45.8281,-117.573 65.5847,-55.3477 106,-22 111.752,-17.254 118.571,-13.6333 125.659,-10.9815"/>
<polygon fill="midnightblue" stroke="midnightblue" points="35.0491,-149.687 36.4737,-160.186 41.9071,-151.091 35.0491,-149.687"/>
</g>
<!-- Node3&#45;&gt;Node12 -->
<g id="edge56" class="edge"><title>Node3&#45;&gt;Node12</title>
<path fill="none" stroke="midnightblue" d="M41.6589,-150.237C50.828,-121.158 70.3989,-69.3754 106,-40 117.991,-30.1058 134.619,-25.1024 148.66,-21.5757"/>
<polygon fill="midnightblue" stroke="midnightblue" points="38.1975,-149.59 38.6423,-160.176 44.8958,-151.623 38.1975,-149.59"/>
</g>
<!-- Node4&#45;&gt;Node1 -->
<g id="edge8" class="edge"><title>Node4&#45;&gt;Node1</title>
<path fill="none" stroke="midnightblue" d="M239.704,-299.318C291.542,-302.985 364.881,-300.878 420,-270 456.33,-249.648 479.669,-202.86 488.729,-181.718"/>
<polygon fill="midnightblue" stroke="midnightblue" points="239.882,-295.821 229.635,-298.514 239.325,-302.799 239.882,-295.821"/>
</g>
<!-- Node5 -->
<g id="node11" class="node"><title>Node5</title>
<a xlink:href="../../d0/d50/classns_supports_weak_reference.html" target="_top" xlink:title="nsSupportsWeakReference">
<polygon fill="white" stroke="black" points="282.5,-239.5 282.5,-260.5 419.5,-260.5 419.5,-239.5 282.5,-239.5"/>
<text text-anchor="middle" x="351" y="-247.5" font-family="Helvetica,sans-Serif" font-size="10.00">nsSupportsWeakReference</text>
</a>
</g>
<!-- Node5&#45;&gt;Node1 -->
<g id="edge14" class="edge"><title>Node5&#45;&gt;Node1</title>
<path fill="none" stroke="midnightblue" d="M393.864,-235.889C402.702,-232.418 411.806,-228.414 420,-224 442.75,-211.743 466.5,-193.269 480.509,-181.684"/>
<polygon fill="midnightblue" stroke="midnightblue" points="392.56,-232.64 384.435,-239.44 395.027,-239.191 392.56,-232.64"/>
</g>
<!-- Node6&#45;&gt;Node5 -->
<g id="edge16" class="edge"><title>Node6&#45;&gt;Node5</title>
<path fill="none" stroke="midnightblue" d="M256.285,-250.541C264.955,-250.492 273.721,-250.442 282.238,-250.393"/>
<polygon fill="midnightblue" stroke="midnightblue" points="256.151,-247.042 246.171,-250.599 256.191,-254.042 256.151,-247.042"/>
</g>
<!-- Node7&#45;&gt;Node1 -->
<g id="edge22" class="edge"><title>Node7&#45;&gt;Node1</title>
<path fill="none" stroke="midnightblue" d="M243.539,-205.327C292.628,-200.833 360.599,-193.845 420,-185 431.743,-183.251 444.473,-180.952 455.965,-178.722"/>
<polygon fill="midnightblue" stroke="midnightblue" points="243.004,-201.861 233.36,-206.248 243.635,-208.832 243.004,-201.861"/>
</g>
<!-- Node8&#45;&gt;Node1 -->
<g id="edge28" class="edge"><title>Node8&#45;&gt;Node1</title>
<path fill="none" stroke="midnightblue" d="M231.116,-171C295.552,-171 400.424,-171 455.888,-171"/>
<polygon fill="midnightblue" stroke="midnightblue" points="230.746,-167.5 220.746,-171 230.746,-174.5 230.746,-167.5"/>
</g>
<!-- Node9&#45;&gt;Node1 -->
<g id="edge34" class="edge"><title>Node9&#45;&gt;Node1</title>
<path fill="none" stroke="midnightblue" d="M242.785,-139.427C307.522,-147.596 403.38,-159.691 455.66,-166.288"/>
<polygon fill="midnightblue" stroke="midnightblue" points="243.033,-135.931 232.673,-138.151 242.156,-142.876 243.033,-135.931"/>
</g>
<!-- Node10&#45;&gt;Node1 -->
<g id="edge40" class="edge"><title>Node10&#45;&gt;Node1</title>
<path fill="none" stroke="midnightblue" d="M241.937,-101.058C291.517,-109.448 360.797,-122.944 420,-141 437.3,-146.276 456.168,-154.087 470.387,-160.417"/>
<polygon fill="midnightblue" stroke="midnightblue" points="242.42,-97.5898 231.98,-99.3962 241.268,-104.494 242.42,-97.5898"/>
</g>
<!-- Node11&#45;&gt;Node1 -->
<g id="edge46" class="edge"><title>Node11&#45;&gt;Node1</title>
<path fill="none" stroke="midnightblue" d="M241.861,-55.8779C292.861,-61.8253 364.012,-74.978 420,-104 447.338,-118.171 472.136,-145.281 484.58,-160.308"/>
<polygon fill="midnightblue" stroke="midnightblue" points="241.942,-52.3658 231.619,-54.7485 241.175,-59.3236 241.942,-52.3658"/>
</g>
<!-- Node12&#45;&gt;Node1 -->
<g id="edge52" class="edge"><title>Node12&#45;&gt;Node1</title>
<path fill="none" stroke="midnightblue" d="M236.338,-9.77543C289.01,-11.52 365.36,-21.1173 420,-58 458.329,-83.8728 481.037,-137.321 489.359,-160.211"/>
<polygon fill="midnightblue" stroke="midnightblue" points="236.216,-6.27148 226.133,-9.52547 236.044,-13.2694 236.216,-6.27148"/>
</g>
</g>
</svg>
        <g id="navigator" transform="translate(0 0)" fill="#404254">
                <rect fill="#f2f5e9" fill-opacity="0.5" stroke="#606060" stroke-width=".5" x="0" y="0" width="60" height="60"/>
                <use id="zoomplus" xlink:href="#zoomPlus" x="17" y="9" onmousedown="handleZoom(evt,'in')"/>
                <use id="zoomminus" xlink:href="#zoomMin" x="42" y="9" onmousedown="handleZoom(evt,'out')"/>
                <use id="reset" xlink:href="#resetDef" x="30" y="36" onmousedown="handleReset()"/>
                <g id="arrowUp" xlink:href="#dirArrow" transform="translate(30 24)" onmousedown="handlePan(0,-1)">
                  <use xlink:href="#rim" fill="#404040">
                        <set attributeName="fill" to="#808080" begin="arrowUp.mouseover" end="arrowUp.mouseout"/>
                  </use>
                  <path fill="none" stroke="white" stroke-width="1.5" d="M0,-3.0v7 M-2.5,-0.5L0,-3.0L2.5,-0.5"/>
                </g>
                <g id="arrowRight" xlink:href="#dirArrow" transform="rotate(90) translate(36 -43)" onmousedown="handlePan(1,0)">
                  <use xlink:href="#rim" fill="#404040">
                        <set attributeName="fill" to="#808080" begin="arrowRight.mouseover" end="arrowRight.mouseout"/>
                  </use>
                  <path fill="none" stroke="white" stroke-width="1.5" d="M0,-3.0v7 M-2.5,-0.5L0,-3.0L2.5,-0.5"/>
                </g>
                <g id="arrowDown" xlink:href="#dirArrow" transform="rotate(180) translate(-30 -48)" onmousedown="handlePan(0,1)">
                  <use xlink:href="#rim" fill="#404040">
                        <set attributeName="fill" to="#808080" begin="arrowDown.mouseover" end="arrowDown.mouseout"/>
                  </use>
                  <path fill="none" stroke="white" stroke-width="1.5" d="M0,-3.0v7 M-2.5,-0.5L0,-3.0L2.5,-0.5"/>
                </g>
                <g id="arrowLeft" xlink:href="#dirArrow" transform="rotate(270) translate(-36 17)" onmousedown="handlePan(-1,0)">
                  <use xlink:href="#rim" fill="#404040">
                        <set attributeName="fill" to="#808080" begin="arrowLeft.mouseover" end="arrowLeft.mouseout"/>
                  </use>
                  <path fill="none" stroke="white" stroke-width="1.5" d="M0,-3.0v7 M-2.5,-0.5L0,-3.0L2.5,-0.5"/>
                </g>
        </g>
</svg>
