<?xml version="1.0" encoding="UTF-8" standalone="no"?>
<!DOCTYPE svg PUBLIC "-//W3C//DTD SVG 1.1//EN"
 "http://www.w3.org/Graphics/SVG/1.1/DTD/svg11.dtd">
<!-- Generated by graphviz version 2.26.3 (20100126.1600)
 -->
<!-- Title: G Pages: 1 -->
<svg width="330pt" height="70pt"
 viewBox="0.00 0.00 330.00 70.00" xmlns="http://www.w3.org/2000/svg" xmlns:xlink="http://www.w3.org/1999/xlink">
<g id="graph1" class="graph" transform="scale(1 1) rotate(0) translate(4 66)">
<title>G</title>
<polygon fill="white" stroke="white" points="-4,5 -4,-66 327,-66 327,5 -4,5"/>
<!-- Node1 -->
<g id="node1" class="node"><title>Node1</title>
<polygon fill="#bfbfbf" stroke="black" points="0.5,-20.5 0.5,-41.5 129.5,-41.5 129.5,-20.5 0.5,-20.5"/>
<text text-anchor="middle" x="65" y="-28.5" font-family="Helvetica,sans-Serif" font-size="10.00">nsCOMArray_base::Clear</text>
</g>
<!-- Node2 -->
<g id="node3" class="node"><title>Node2</title>
<a xlink:href="../../dc/da8/ns_c_o_m_array_8h.html#a914bd7f7b72d9ec517fcc67c103104f7" target="_top" xlink:title="ImplCycleCollectionUnlink">
<polygon fill="white" stroke="black" points="178,-40.5 178,-61.5 310,-61.5 310,-40.5 178,-40.5"/>
<text text-anchor="middle" x="244" y="-48.5" font-family="Helvetica,sans-Serif" font-size="10.00">ImplCycleCollectionUnlink</text>
</a>
</g>
<!-- Node1&#45;&gt;Node2 -->
<g id="edge2" class="edge"><title>Node1&#45;&gt;Node2</title>
<path fill="none" stroke="midnightblue" d="M139.701,-39.3464C152.401,-40.7655 165.51,-42.2302 177.967,-43.622"/>
<polygon fill="midnightblue" stroke="midnightblue" points="139.95,-35.8526 129.623,-38.2205 139.173,-42.8093 139.95,-35.8526"/>
</g>
<!-- Node3 -->
<g id="node5" class="node"><title>Node3</title>
<a xlink:href="../../da/d7b/structns_style_border.html#a8008eca65e7875e1a1624f407e695bbb" target="_top" xlink:title="nsStyleBorder::SetBorderImage">
<polygon fill="white" stroke="black" points="166.5,-0.5 166.5,-21.5 321.5,-21.5 321.5,-0.5 166.5,-0.5"/>
<text text-anchor="middle" x="244" y="-8.5" font-family="Helvetica,sans-Serif" font-size="10.00">nsStyleBorder::SetBorderImage</text>
</a>
</g>
<!-- Node1&#45;&gt;Node3 -->
<g id="edge4" class="edge"><title>Node1&#45;&gt;Node3</title>
<path fill="none" stroke="midnightblue" d="M139.809,-22.6415C148.579,-21.6616 157.542,-20.6601 166.35,-19.676"/>
<polygon fill="midnightblue" stroke="midnightblue" points="139.173,-19.1907 129.623,-23.7795 139.95,-26.1474 139.173,-19.1907"/>
</g>
</g>
</svg>
